<?xml version="1.0" encoding="UTF-8" standalone="no"?>
<!DOCTYPE svg PUBLIC "-//W3C//DTD SVG 1.1//EN"
"http://www.w3.org/Graphics/SVG/1.1/DTD/svg11.dtd">
<svg width="508px" height="600px"
xmlns="http://www.w3.org/2000/svg" version="1.1">
<g transform="translate(0000, 0000) scale(1.0000, 1.0000)">
<path fill="#000000" stroke="none" d="
M 437.16 598.53
C 433.31 597.90 418.52 594.84 404.29 591.73
C 372.68 584.85 372.04 584.74 351.76 583.33
C 332.04 581.95 304.92 583.26 259.61 587.81
C 241.27 589.64 214.02 591.48 199.04 591.89
C 173.60 592.60 171.04 592.45 160.36 589.74
C 154.06 588.14 146.75 585.73 144.10 584.38
L 139.27 581.94
L 130.56 586.31
C 119.56 591.82 102.39 597.27 92.83 598.27
C 77.75 599.85 70.10 593.37 74.85 583.00
C 76.75 578.82 82.69 575.29 96.06 570.41
C 102.44 568.08 111.00 564.50 115.07 562.47
C 122.35 558.84 122.49 558.66 122.49 553.31
C 122.49 546.36 128.52 533.42 133.83 528.95
C 136.03 527.11 142.78 522.90 148.84 519.61
C 155.31 516.08 159.88 512.78 159.88 511.61
C 159.88 505.61 153.56 480.50 145.73 455.41
C 140.83 439.69 135.96 423.35 134.89 419.10
C 128.93 395.21 128.75 370.75 134.45 359.69
C 140.92 347.12 154.88 338.87 167.29 340.27
C 170.76 340.66 178.61 343.73 186.68 347.82
C 206.29 357.80 226.33 376.13 254.35 409.73
C 261.01 417.71 269.65 428.60 273.55 433.91
C 281.45 444.67 284.34 447.52 285.47 445.69
C 286.85 443.45 292.64 417.39 295.31 401.41
C 298.82 380.30 299.93 352.82 297.91 336.61
C 297.04 329.58 294.61 314.85 292.53 303.86
C 290.44 292.88 287.01 272.32 284.92 258.15
C 280.95 231.37 278.73 221.42 276.60 221.05
C 275.92 220.92 271.56 225.45 266.93 231.12
C 253.34 247.74 233.40 267.57 223.92 273.88
C 214.73 279.99 202.50 284.58 195.54 284.51
C 189.65 284.47 175.74 279.44 167.10 274.24
C 153.02 265.75 132.13 247.98 110.17 225.84
C 91.96 207.44 87.40 203.50 83.51 202.76
C 77.66 201.67 76.07 202.61 76.07 207.17
C 76.07 209.14 68.27 279.32 58.74 363.13
C 48.44 453.62 41.84 516.28 42.48 517.43
C 43.08 518.50 46.96 521.73 51.11 524.61
C 61.31 531.70 63.85 536.92 63.72 550.43
C 63.55 567.86 55.03 585.46 42.87 593.51
C 24.79 605.46 10.43 596.03 2.44 566.97
C -3.58 545.02 1.51 530.50 18.22 522.03
C 21.49 520.36 24.56 518.00 25.04 516.76
C 25.52 515.52 33.14 451.33 41.97 374.10
C 50.80 296.87 58.88 226.30 59.92 217.27
C 61.72 201.58 61.69 200.69 59.35 196.67
C 55.78 190.61 53.24 171.53 55.17 165.26
C 56.14 162.08 56.23 159.93 55.42 159.12
C 51.69 155.39 58.68 145.49 65.01 145.49
C 66.84 145.49 68.35 145.35 68.36 145.17
C 69.25 132.09 74.86 88.55 75.89 86.60
C 78.97 80.86 86.88 81.98 88.49 88.39
C 88.94 90.22 88.06 104.24 86.51 119.55
L 83.72 147.37
L 89.03 151.78
C 91.94 154.20 95.94 159.42 97.93 163.39
C 107.03 181.66 105.82 180.46 134.65 199.89
C 152.98 212.25 165.65 221.90 174.20 229.96
C 181.11 236.48 187.96 242.20 189.39 242.67
C 193.41 243.94 196.61 241.51 203.34 232.07
C 215.55 214.92 235.29 191.01 245.58 180.88
C 260.82 165.86 276.55 158.27 301.54 153.89
C 307.47 152.85 313.12 151.34 314.11 150.52
C 316.46 148.57 316.39 141.62 313.99 138.21
C 312.60 136.24 310.06 135.24 304.65 134.58
C 290.00 132.76 287.07 130.13 283.19 115.31
C 281.04 107.10 279.71 105.63 274.31 105.61
C 269.87 105.58 265.60 101.46 265.60 97.20
C 265.60 95.42 270.72 83.69 276.99 71.12
C 283.26 58.56 289.66 44.81 291.24 40.56
C 299.29 18.81 316.11 4.97 339.10 1.18
C 368.25 -3.62 399.02 7.74 410.68 27.61
C 418.16 40.36 417.66 63.63 409.37 88.42
C 403.46 106.12 398.11 116.28 390.48 124.33
C 384.15 131.02 384.08 131.16 383.84 140.16
C 383.46 153.45 383.28 153.36 408.88 153.86
C 446.41 154.61 456.10 158.97 471.89 182.21
C 490.84 210.12 502.87 247.27 506.83 290.12
C 508.99 313.64 507.65 365.24 504.09 395.28
L 501.28 419.10
L 504.30 433.26
C 511.61 467.55 506.45 481.53 486.49 481.55
C 475.71 481.55 474.48 482.95 474.48 495.15
C 474.48 506.12 472.18 509.87 465.45 509.87
C 463.30 509.87 460.44 508.73 459.01 507.30
C 456.66 504.95 456.43 503.01 456.43 485.94
C 456.43 467.24 456.45 467.10 461.73 452.14
C 466.64 438.23 467.00 436.31 466.56 426.18
C 466.30 420.15 466.16 403.35 466.24 388.84
C 466.35 367.39 466.92 359.55 469.28 347.00
C 472.99 327.13 472.41 320.86 465.46 305.15
C 459.98 292.79 438.07 238.84 433.97 227.60
C 432.74 224.24 430.70 220.22 429.44 218.67
L 427.15 215.83
L 424.93 219.21
C 422.31 223.21 421.41 226.92 412.09 272.32
C 404.36 309.91 402.47 321.76 398.47 357.30
C 393.93 397.73 392.72 422.36 394.40 439.70
C 396.63 462.71 399.70 507.35 399.70 516.79
C 399.70 523.09 398.78 527.20 395.83 534.13
C 393.70 539.12 391.96 543.71 391.96 544.33
C 391.96 544.94 393.91 546.37 396.28 547.51
C 399.08 548.83 402.70 552.73 406.54 558.55
C 409.80 563.51 414.10 568.70 416.08 570.09
C 425.60 576.79 441.16 582.45 455.55 584.45
C 460.38 585.12 465.17 586.35 466.19 587.20
C 468.97 589.51 468.55 597.05 465.54 598.66
C 462.58 600.24 447.05 600.18 437.16 598.53
M 36.98 590.28
C 44.16 586.07 51.99 576.19 54.99 567.52
C 58.07 558.63 58.08 543.03 55.03 537.26
C 53.82 534.97 49.65 530.76 45.77 527.90
C 41.45 524.70 38.38 521.36 37.86 519.26
C 37.06 516.06 39.18 495.64 51.02 392.70
C 66.84 255.26 70.60 221.05 71.15 209.87
C 71.52 202.22 71.34 201.50 68.98 201.50
C 65.83 201.50 65.73 202.08 61.26 243.35
C 57.74 275.87 52.44 322.57 41.96 413.30
C 40.20 428.52 36.97 457.21 34.75 477.04
C 29.95 520.17 29.50 522.24 24.29 525.10
C 6.43 534.90 2.13 544.78 7.19 564.41
C 11.31 580.33 21.15 593.56 28.87 593.56
C 30.25 593.56 33.88 592.08 36.98 590.28
M 459.65 592.27
C 459.21 591.57 456.96 590.99 454.62 590.99
C 447.25 590.99 430.37 586.03 419.41 580.66
C 409.56 575.83 408.36 574.78 402.00 565.57
C 391.92 550.93 391.56 550.82 373.06 556.64
C 351.90 563.29 345.87 562.94 314.60 553.25
L 297.19 547.85
L 273.34 547.93
C 251.68 548.01 247.66 548.39 229.50 552.15
C 218.50 554.42 204.30 557.77 197.91 559.58
C 179.26 564.90 173.75 562.57 157.91 542.70
C 152.54 535.97 147.53 530.47 146.75 530.47
C 143.03 530.47 136.58 536.27 133.54 542.36
C 124.18 561.12 133.91 574.38 163.60 583.33
C 172.54 586.02 174.76 586.15 199.06 585.45
C 213.32 585.05 236.59 583.53 250.78 582.08
C 290.99 577.96 321.87 575.54 333.89 575.55
C 352.96 575.58 378.92 579.06 409.48 585.70
C 442.36 592.83 443.91 593.10 453.60 593.37
C 457.88 593.48 460.15 593.09 459.65 592.27
M 97.99 590.28
C 109.28 587.64 127.86 580.47 131.32 577.39
C 131.56 577.17 130.15 574.78 128.15 572.09
C 126.16 569.38 124.41 566.99 124.28 566.76
C 124.14 566.54 121.22 567.76 117.78 569.50
C 114.34 571.22 107.32 574.15 102.19 575.99
C 86.60 581.58 81.23 584.96 81.23 589.20
C 81.23 589.89 86.46 592.08 88.32 592.17
C 89.03 592.21 93.37 591.36 97.99 590.28
M 210.81 549.23
C 239.62 542.39 256.02 540.46 280.37 541.07
C 300.40 541.57 301.62 541.75 318.47 547.02
C 328.05 550.00 339.96 553.09 344.96 553.88
C 353.67 555.26 354.58 555.14 366.24 551.24
C 379.36 546.85 382.22 544.66 387.28 535.17
C 393.24 524.00 393.74 517.78 391.43 484.24
C 390.28 467.52 388.99 450.48 388.57 446.34
L 387.81 438.82
L 378.60 439.67
C 366.49 440.79 334.02 447.36 320.67 451.36
C 314.84 453.13 302.54 456.50 293.32 458.87
C 274.93 463.60 268.21 466.39 222.09 488.47
C 204.89 496.70 190.47 503.43 190.05 503.43
C 189.64 503.43 186.95 505.43 184.09 507.88
C 181.23 510.32 174.18 514.75 168.41 517.71
C 153.61 525.33 154.09 524.65 158.94 531.44
C 165.14 540.13 174.15 549.86 178.55 552.63
C 183.23 555.57 184.87 555.40 210.81 549.23
M 179.54 501.23
C 190.20 490.02 185.24 435.59 170.84 405.77
C 167.64 399.15 164.67 391.53 164.24 388.84
C 163.18 382.17 166.36 373.16 173.60 362.39
L 179.48 353.64
L 176.52 351.41
C 174.90 350.19 171.37 348.53 168.67 347.73
C 164.47 346.47 162.90 346.65 157.35 349.03
C 149.47 352.40 141.72 360.54 138.62 368.68
C 136.68 373.74 136.43 376.97 137.11 387.91
C 138.13 404.43 140.87 416.46 150.83 448.07
C 159.65 476.10 162.96 488.39 165.11 501.14
L 166.58 509.79
L 171.29 507.37
C 173.88 506.05 177.59 503.28 179.54 501.23
M 468.03 490.03
C 468.79 476.70 470.11 475.11 480.33 475.11
C 487.95 475.11 495.03 473.01 497.34 470.05
C 498.21 468.94 499.58 465.72 500.37 462.90
C 501.58 458.60 501.23 454.71 498.20 438.61
L 494.59 419.45
L 497.61 393.52
C 503.23 345.06 502.71 296.77 496.20 262.73
C 488.47 222.32 466.26 178.98 447.54 167.78
C 437.91 162.01 430.60 160.74 405.07 160.35
C 376.73 159.93 377.13 160.18 377.13 142.29
L 377.13 130.13
L 371.33 126.45
C 361.20 120.03 353.36 107.07 353.30 96.67
C 353.29 92.97 354.68 87.93 357.30 82.26
C 363.92 67.94 360.50 63.03 347.99 68.85
C 344.16 70.62 339.78 72.08 338.25 72.09
C 333.81 72.12 313.10 64.96 303.24 60.00
C 296.38 56.55 293.91 55.83 292.95 57.01
C 292.25 57.88 287.52 66.89 282.44 77.05
C 272.51 96.89 272.26 99.14 279.94 99.14
C 284.53 99.14 288.81 103.21 288.81 107.55
C 288.81 111.88 291.51 112.70 297.04 110.07
C 301.38 108.01 304.28 108.28 304.28 110.76
C 304.28 111.39 301.68 113.43 298.48 115.30
C 292.01 119.10 291.89 119.33 294.63 123.23
C 295.94 125.10 298.96 126.46 303.97 127.44
C 308.05 128.24 312.99 129.19 314.95 129.57
C 319.70 130.49 322.34 135.88 322.34 144.71
C 322.34 154.74 319.23 158.02 308.15 159.73
C 294.50 161.85 281.15 165.93 271.47 170.92
C 259.54 177.08 242.42 194.14 223.31 218.88
C 199.63 249.57 199.41 249.79 192.19 249.79
C 184.58 249.79 179.91 246.85 165.68 233.11
C 159.29 226.94 147.02 217.62 133.45 208.61
C 102.21 187.88 101.36 187.11 94.64 173.33
C 91.50 166.87 87.55 160.36 85.86 158.87
C 81.71 155.19 66.21 151.02 63.36 152.81
C 58.60 155.81 61.02 157.71 70.54 158.45
C 76.86 158.94 80.66 159.90 82.38 161.46
C 88.73 167.20 90.85 179.69 87.03 188.82
C 85.97 191.37 85.10 193.88 85.10 194.41
C 85.10 194.92 87.62 196.33 90.72 197.51
C 94.97 199.12 99.96 203.50 111.03 215.29
C 135.26 241.11 158.99 261.13 177.21 271.13
C 183.68 274.69 187.79 276.00 193.93 276.50
C 201.46 277.09 202.77 276.79 211.14 272.39
C 226.36 264.41 243.85 248.00 260.79 225.79
C 271.46 211.82 277.18 208.56 282.22 213.59
C 285.29 216.66 286.74 223.30 291.42 255.58
C 293.47 269.74 296.87 290.30 298.97 301.29
C 304.72 331.27 306.04 345.54 305.15 368.24
C 304.35 388.83 301.40 409.88 295.88 434.29
C 294.12 442.02 293.02 448.85 293.42 449.50
C 294.56 451.35 299.84 450.82 307.13 448.11
C 321.86 442.65 357.77 435.00 377.21 433.18
L 386.32 432.33
L 387.85 405.12
C 390.49 358.11 395.71 317.72 405.01 272.32
C 416.78 214.84 418.06 210.81 424.89 209.10
C 432.59 207.17 435.78 211.20 444.06 233.29
C 446.64 240.15 454.03 258.40 460.50 273.85
C 480.60 321.86 480.77 322.70 475.56 350.27
C 472.70 365.39 471.76 395.16 473.14 426.82
C 473.68 439.27 473.52 440.21 468.29 455.39
C 463.17 470.24 462.87 471.89 462.87 485.76
C 462.87 493.83 463.27 500.83 463.76 501.31
C 466.16 503.70 467.44 500.32 468.03 490.03
M 221.42 480.44
C 237.56 472.75 256.49 463.94 263.48 460.88
C 270.46 457.82 276.46 454.60 276.80 453.72
C 277.53 451.82 262.37 431.36 244.95 410.73
C 230.20 393.26 199.83 363.52 193.08 359.92
L 188.33 357.40
L 185.05 360.49
C 180.53 364.73 174.54 374.28 172.14 381.08
L 170.15 386.72
L 176.54 400.33
C 186.72 422.06 193.36 458.51 191.63 483.15
C 191.21 489.35 191.12 494.42 191.45 494.42
C 191.79 494.42 205.28 488.12 221.42 480.44
M 74.51 193.69
C 78.44 190.94 82.52 182.59 82.52 177.26
C 82.52 168.90 74.86 163.45 65.87 165.42
C 61.01 166.49 60.11 170.16 62.03 181.16
C 63.05 187.00 64.47 190.69 66.52 192.72
C 70.05 196.26 70.73 196.34 74.51 193.69
M 79.94 145.02
C 79.94 144.05 81.11 131.52 82.54 117.18
C 84.57 96.95 84.81 90.70 83.63 89.27
C 80.09 85.02 78.59 90.52 75.84 117.72
C 73.54 140.42 73.40 144.64 74.92 145.61
C 77.59 147.30 79.94 147.01 79.94 145.02"/>
<path fill="#000000" stroke="none" d="
M 294.27 83.39
C 291.04 81.85 289.43 77.52 290.66 73.67
C 292.22 68.77 303.07 66.57 310.06 69.75
C 315.99 72.45 315.97 80.78 310.00 83.50
C 305.97 85.33 298.17 85.27 294.27 83.39
M 307.38 80.94
C 312.88 78.44 312.77 75.19 307.07 72.19
C 303.50 70.31 302.11 71.06 304.90 73.36
C 307.42 75.45 307.38 77.12 304.74 80.05
C 302.26 82.78 302.89 82.98 307.38 80.94"/>
<path fill="#ae3c2a" stroke="none" d="
M 442.89 592.64
C 440.76 592.34 425.73 589.21 409.48 585.70
C 378.92 579.06 352.96 575.58 333.89 575.55
C 321.87 575.54 290.99 577.96 250.78 582.08
C 236.59 583.53 213.32 585.05 199.06 585.45
C 174.76 586.15 172.54 586.02 163.60 583.33
C 133.91 574.38 124.18 561.12 133.54 542.36
C 136.58 536.27 143.03 530.47 146.75 530.47
C 147.53 530.47 152.54 535.97 157.91 542.70
C 173.75 562.57 179.26 564.90 197.91 559.58
C 204.30 557.77 218.50 554.42 229.50 552.15
C 247.66 548.39 251.68 548.01 273.34 547.93
L 297.19 547.85
L 314.60 553.25
C 345.87 562.94 351.90 563.29 373.06 556.64
C 391.56 550.82 391.92 550.93 402.00 565.57
C 408.36 574.78 409.56 575.83 419.41 580.66
C 430.37 586.03 447.25 590.99 454.62 590.99
C 456.96 590.99 459.21 591.57 459.65 592.27
C 460.45 593.56 450.97 593.77 442.89 592.64"/>
<path fill="#ae3c2a" stroke="none" d="
M 84.13 590.95
C 82.53 590.30 81.23 589.52 81.23 589.20
C 81.23 584.96 86.60 581.58 102.19 575.99
C 107.32 574.15 114.34 571.22 117.78 569.50
C 121.22 567.76 124.14 566.54 124.28 566.76
C 124.41 566.99 126.16 569.38 128.15 572.09
C 130.15 574.78 131.56 577.17 131.32 577.39
C 127.86 580.47 109.28 587.64 97.99 590.28
C 88.44 592.51 88.07 592.53 84.13 590.95"/>
<path fill="#ae3c2a" stroke="none" d="
M 165.11 501.14
C 162.96 488.39 159.65 476.10 150.83 448.07
C 140.87 416.46 138.13 404.43 137.11 387.91
C 136.43 376.97 136.68 373.74 138.62 368.68
C 141.72 360.54 149.47 352.40 157.35 349.03
C 162.90 346.65 164.47 346.47 168.67 347.73
C 171.37 348.53 174.90 350.19 176.52 351.41
L 179.48 353.64
L 173.60 362.39
C 166.36 373.16 163.18 382.17 164.24 388.84
C 164.67 391.53 167.64 399.15 170.84 405.77
C 181.10 427.02 187.61 465.45 184.59 486.82
C 182.92 498.64 180.24 502.78 171.29 507.37
L 166.58 509.79
L 165.11 501.14"/>
<path fill="#ae3c2a" stroke="none" d="
M 463.76 501.31
C 463.27 500.83 462.87 493.83 462.87 485.76
C 462.87 471.89 463.17 470.24 468.29 455.39
C 473.52 440.21 473.68 439.27 473.14 426.82
C 471.76 395.16 472.70 365.39 475.56 350.27
C 480.77 322.70 480.60 321.86 460.50 273.85
C 454.03 258.40 446.64 240.15 444.06 233.29
C 435.78 211.20 432.59 207.17 424.89 209.10
C 418.06 210.81 416.78 214.84 405.01 272.32
C 395.71 317.72 390.49 358.11 387.85 405.12
L 386.32 432.33
L 377.21 433.18
C 357.77 435.00 321.86 442.65 307.13 448.11
C 299.84 450.82 294.56 451.35 293.42 449.50
C 293.02 448.85 294.12 442.02 295.88 434.29
C 301.40 409.88 304.35 388.83 305.15 368.24
C 306.04 345.54 304.72 331.27 298.97 301.29
C 296.87 290.30 293.47 269.74 291.42 255.58
C 286.74 223.30 285.29 216.66 282.22 213.59
C 277.18 208.56 271.46 211.82 260.79 225.79
C 243.85 248.00 226.36 264.41 211.14 272.39
C 202.77 276.79 201.46 277.09 193.93 276.50
C 187.79 276.00 183.68 274.69 177.21 271.13
C 158.99 261.13 135.26 241.11 111.03 215.29
C 99.96 203.50 94.97 199.12 90.72 197.51
C 87.62 196.33 85.10 194.92 85.10 194.41
C 85.10 193.88 85.97 191.37 87.03 188.82
C 90.85 179.69 88.73 167.20 82.38 161.46
C 80.66 159.90 76.86 158.94 70.54 158.45
C 61.02 157.71 58.60 155.81 63.36 152.81
C 66.21 151.02 81.71 155.19 85.86 158.87
C 87.55 160.36 91.50 166.87 94.64 173.33
C 101.36 187.11 102.21 187.88 133.45 208.61
C 147.02 217.62 159.29 226.94 165.68 233.11
C 179.91 246.85 184.58 249.79 192.19 249.79
C 199.41 249.79 199.63 249.57 223.31 218.88
C 242.42 194.14 259.54 177.08 271.47 170.92
C 281.15 165.93 294.50 161.85 308.15 159.73
C 319.23 158.02 322.34 154.74 322.34 144.71
C 322.34 135.88 319.70 130.49 314.95 129.57
C 312.99 129.19 308.05 128.24 303.97 127.44
C 298.96 126.46 295.94 125.10 294.63 123.23
C 291.89 119.33 292.01 119.10 298.48 115.30
C 301.68 113.43 304.28 111.39 304.28 110.76
C 304.28 108.28 301.38 108.01 297.04 110.07
C 291.51 112.70 288.81 111.88 288.81 107.55
C 288.81 103.21 284.53 99.14 279.94 99.14
C 272.21 99.14 272.49 96.93 282.96 76.08
C 289.11 63.80 293.42 56.65 294.65 56.65
C 295.74 56.65 300.13 58.43 304.43 60.59
C 313.27 65.05 334.04 72.10 338.25 72.09
C 339.78 72.08 344.16 70.62 347.99 68.85
C 360.50 63.03 363.92 67.94 357.30 82.26
C 354.68 87.93 353.29 92.97 353.30 96.67
C 353.36 107.07 361.20 120.03 371.33 126.45
L 377.13 130.13
L 377.13 142.29
C 377.13 160.18 376.73 159.93 405.07 160.35
C 430.60 160.74 437.91 162.01 447.54 167.78
C 466.26 178.98 488.47 222.32 496.20 262.73
C 502.71 296.77 503.23 345.06 497.61 393.52
L 494.59 419.45
L 498.20 438.61
C 501.23 454.71 501.58 458.60 500.37 462.90
C 499.58 465.72 498.21 468.94 497.34 470.05
C 495.03 473.01 487.95 475.11 480.33 475.11
C 470.11 475.11 468.79 476.70 468.03 490.03
C 467.44 500.32 466.16 503.70 463.76 501.31
M 310.00 83.50
C 315.97 80.78 315.99 72.45 310.06 69.75
C 303.07 66.57 292.22 68.77 290.66 73.67
C 289.43 77.52 291.04 81.85 294.27 83.39
C 298.17 85.27 305.97 85.33 310.00 83.50"/>
<path fill="#ae3c2a" stroke="none" d="
M 66.52 192.72
C 64.47 190.69 63.05 187.00 62.03 181.16
C 60.11 170.16 61.01 166.49 65.87 165.42
C 78.97 162.55 86.48 173.88 79.95 186.66
C 77.57 191.33 73.03 195.71 70.57 195.71
C 69.99 195.71 68.15 194.37 66.52 192.72"/>
<path fill="#fefefe" stroke="none" d="
M 178.55 552.63
C 174.15 549.86 165.14 540.13 158.94 531.44
C 154.09 524.65 153.61 525.33 168.41 517.71
C 174.18 514.75 181.23 510.32 184.09 507.88
C 186.95 505.43 189.64 503.43 190.05 503.43
C 190.47 503.43 204.89 496.70 222.09 488.47
C 268.21 466.39 274.93 463.60 293.32 458.87
C 302.54 456.50 314.84 453.13 320.67 451.36
C 334.02 447.36 366.49 440.79 378.60 439.67
L 387.81 438.82
L 388.57 446.34
C 388.99 450.48 390.28 467.52 391.43 484.24
C 393.74 517.78 393.24 524.00 387.28 535.17
C 382.22 544.66 379.36 546.85 366.24 551.24
C 354.58 555.14 353.67 555.26 344.96 553.88
C 339.96 553.09 328.05 550.00 318.47 547.02
C 301.62 541.75 300.40 541.57 280.37 541.07
C 256.02 540.46 239.62 542.39 210.81 549.23
C 184.87 555.40 183.23 555.57 178.55 552.63"/>
<path fill="#fefefe" stroke="none" d="
M 191.63 483.15
C 193.36 458.51 186.72 422.06 176.54 400.33
L 170.15 386.72
L 172.14 381.08
C 174.54 374.28 180.53 364.73 185.05 360.49
L 188.33 357.40
L 193.08 359.92
C 199.83 363.52 230.20 393.26 244.95 410.73
C 262.37 431.36 277.53 451.82 276.80 453.72
C 276.46 454.60 270.46 457.82 263.48 460.88
C 256.49 463.94 237.56 472.75 221.42 480.44
C 205.28 488.12 191.79 494.42 191.45 494.42
C 191.12 494.42 191.21 489.35 191.63 483.15"/>
<path fill="#fefefe" stroke="none" d="
M 304.99 79.75
C 306.97 77.58 307.12 76.67 305.84 74.63
C 303.60 71.05 303.90 70.52 307.19 72.24
C 312.77 75.19 312.85 78.45 307.38 80.94
C 302.79 83.03 302.26 82.76 304.99 79.75"/>
<path fill="#c57a36" stroke="none" d="
M 21.82 590.46
C 16.37 586.76 10.08 575.55 7.19 564.41
C 2.13 544.78 6.43 534.90 24.29 525.10
C 29.50 522.24 29.95 520.17 34.75 477.04
C 36.97 457.21 40.20 428.52 41.96 413.30
C 52.44 322.57 57.74 275.87 61.26 243.35
C 65.73 202.08 65.83 201.50 68.98 201.50
C 73.09 201.50 73.38 198.50 51.02 392.70
C 39.18 495.64 37.06 516.06 37.86 519.26
C 38.38 521.36 41.45 524.70 45.77 527.90
C 55.13 534.80 57.22 539.01 57.29 551.07
C 57.35 563.05 54.40 572.07 47.62 580.65
C 42.42 587.21 33.21 593.56 28.87 593.56
C 27.50 593.56 24.33 592.17 21.82 590.46"/>
<path fill="#c57a36" stroke="none" d="
M 74.95 145.62
C 73.47 144.68 73.52 141.00 75.34 122.15
C 78.13 93.17 78.65 90.05 80.85 89.20
C 84.95 87.63 85.16 91.04 82.56 117.12
C 81.11 131.50 79.94 144.05 79.94 145.02
C 79.94 147.01 77.59 147.30 74.95 145.62"/>
</g>
</svg>
