<?xml version="1.0" encoding="UTF-8" standalone="no"?>
<!DOCTYPE svg PUBLIC "-//W3C//DTD SVG 1.1//EN"
"http://www.w3.org/Graphics/SVG/1.1/DTD/svg11.dtd">
<svg width="461px" height="600px"
xmlns="http://www.w3.org/2000/svg" version="1.1">
<g transform="translate(0000, 0000) scale(1.0000, 1.0000)">
<path fill="#000000" stroke="none" d="
M 45.52 596.86
C 42.39 593.72 41.66 590.54 43.17 586.59
C 44.55 583.01 53.42 579.53 69.36 576.28
C 99.81 570.09 108.88 566.73 116.91 558.72
C 126.63 549.01 129.71 537.38 142.59 461.54
C 146.24 440.04 150.33 418.10 151.69 412.82
C 158.27 387.13 169.62 374.32 189.51 370.15
C 202.03 367.54 217.09 372.96 255.89 394.05
C 281.67 408.06 306.98 420.87 307.62 420.22
C 308.81 419.04 297.56 391.54 292.47 383.17
C 281.95 365.85 278.63 356.86 256.30 285.36
C 251.69 270.62 247.37 258.00 246.71 257.33
C 244.70 255.33 242.93 257.31 232.82 272.88
C 212.97 303.47 180.62 343.72 168.54 352.86
C 156.10 362.28 145.84 363.95 134.06 358.47
C 124.52 354.04 103.17 335.03 83.01 313.03
C 73.32 302.45 61.74 290.44 57.26 286.32
C 48.75 278.50 35.96 270.68 35.96 273.29
C 35.96 274.12 32.39 280.47 28.03 287.42
C 19.47 301.08 17.95 302.13 8.63 300.88
C 1.49 299.92 -0.32 297.23 0.30 288.46
C 0.72 282.51 1.93 279.68 7.97 270.35
C 11.92 264.27 15.79 258.90 16.57 258.41
C 17.61 257.77 17.61 256.82 16.58 254.90
C 13.78 249.69 23.00 225.53 28.78 222.90
C 31.31 221.74 31.88 220.74 31.32 218.50
C 30.40 214.81 34.74 210.26 39.19 210.26
C 41.85 210.26 43.66 208.35 49.22 199.68
C 54.99 190.69 56.32 187.37 58.20 177.56
C 59.49 170.69 61.42 164.73 62.96 162.82
C 64.37 161.05 66.15 158.18 66.90 156.41
C 70.59 147.85 71.51 146.79 77.02 144.88
L 82.71 142.91
L 122.80 73.05
C 149.24 26.99 163.89 2.67 165.87 1.62
C 171.60 -1.41 174.60 -0.35 181.46 7.13
C 189.59 15.97 201.41 23.91 218.53 31.97
L 231.71 38.19
L 237.63 32.87
C 245.69 25.64 254.09 21.29 267.77 17.29
C 280.70 13.51 284.18 13.58 300.16 17.92
C 325.11 24.69 343.97 43.29 351.07 68.14
C 353.88 78.00 353.66 90.37 350.48 102.27
C 346.23 118.15 343.52 122.88 331.93 134.69
C 319.99 146.90 317.58 151.17 319.72 156.36
C 321.52 160.68 323.96 162.10 333.94 164.65
C 338.46 165.82 344.63 168.22 347.66 169.99
C 357.97 176.01 367.98 191.58 375.14 212.72
C 381.45 231.32 382.89 241.82 383.85 276.28
C 384.52 300.14 385.22 309.45 386.65 312.72
L 388.55 317.09
L 392.74 310.56
C 400.21 298.94 410.68 290.92 423.29 287.17
C 427.77 285.83 429.58 285.92 435.07 287.74
C 449.21 292.42 458.82 304.18 460.56 318.94
C 461.22 324.49 460.79 326.68 457.91 332.56
C 451.70 345.23 438.89 353.21 418.29 357.19
C 412.10 358.40 407.22 359.55 407.44 359.77
C 407.66 359.99 419.03 364.82 432.72 370.50
C 446.40 376.18 458.37 381.46 459.30 382.24
C 460.23 383.01 460.97 384.87 460.95 386.37
C 460.86 390.73 455.44 400.60 452.87 401.08
C 451.59 401.31 445.91 398.58 440.26 394.99
C 434.62 391.40 429.71 388.46 429.35 388.46
C 428.97 388.46 432.48 392.64 437.13 397.76
C 441.76 402.87 445.56 408.00 445.58 409.17
C 445.60 413.27 432.35 422.90 428.63 421.47
C 427.68 421.12 421.46 411.51 414.82 400.15
C 408.17 388.78 402.25 379.49 401.66 379.49
C 400.15 379.49 404.34 387.41 417.96 410.26
C 424.47 421.18 430.95 432.74 432.36 435.95
C 438.82 450.58 439.21 463.33 433.75 481.95
C 431.02 491.28 431.00 491.50 433.40 492.85
C 434.75 493.62 437.47 495.77 439.44 497.65
C 443.66 501.69 444.26 509.01 441.08 517.97
C 439.35 522.88 439.36 525.12 441.22 539.53
C 445.41 571.88 442.17 589.47 430.98 595.28
C 423.97 598.91 402.15 599.99 397.47 596.94
C 393.62 594.41 393.21 589.77 396.58 586.73
C 397.87 585.56 401.92 583.72 405.58 582.64
C 409.88 581.36 412.96 579.51 414.36 577.40
C 416.43 574.23 416.29 573.47 410.20 555.49
C 406.73 545.23 403.29 536.01 402.55 535.00
C 400.93 532.81 395.41 534.83 358.85 551.01
C 296.14 578.79 262.94 590.24 227.93 596.17
C 201.53 600.64 189.40 598.56 180.11 588.00
C 175.58 582.85 170.78 571.00 170.80 565.01
C 170.84 558.49 174.32 545.42 177.98 538.12
C 182.29 529.50 213.41 498.50 228.48 487.81
C 234.44 483.59 241.54 478.17 244.27 475.77
L 249.21 471.41
L 246.28 468.31
C 242.89 464.69 206.06 439.74 204.14 439.74
C 202.24 439.74 200.99 443.81 197.92 459.90
C 194.11 479.85 190.06 491.87 178.21 518.59
C 163.78 551.09 160.52 561.35 160.52 574.27
C 160.52 580.45 159.76 586.50 158.67 589.12
C 155.13 597.56 144.43 600.87 133.55 596.87
C 129.65 595.45 128.23 595.54 122.90 597.62
C 117.46 599.73 112.86 600.00 82.72 600.00
L 48.68 600.00
L 45.52 596.86
M 122.24 590.37
C 128.50 587.79 128.50 587.79 142.72 591.92
C 143.89 592.27 146.67 590.87 149.05 588.76
C 153.22 585.04 153.29 584.81 154.20 570.37
C 155.28 553.46 156.89 548.36 172.07 514.10
C 184.04 487.08 187.56 476.85 191.23 458.33
C 195.32 437.81 196.27 434.81 199.24 433.23
C 200.72 432.44 203.52 432.12 205.47 432.50
C 209.16 433.24 231.69 447.46 247.17 458.81
C 252.10 462.42 256.72 465.36 257.44 465.33
C 259.97 465.24 308.82 431.40 308.25 430.13
C 307.93 429.42 302.44 426.45 296.05 423.51
C 289.66 420.58 276.92 414.09 267.74 409.09
C 237.73 392.77 210.12 379.51 201.61 377.35
L 193.26 375.22
L 185.23 378.81
C 170.70 385.32 162.22 397.97 156.89 421.15
C 155.44 427.50 151.58 448.56 148.32 467.95
C 145.05 487.33 140.95 510.71 139.20 519.87
C 130.48 565.37 123.55 572.36 78.07 581.44
C 68.67 583.31 58.47 585.95 55.38 587.29
C 50.57 589.38 50.00 590.03 51.40 591.71
C 52.80 593.40 57.45 593.62 84.62 593.27
C 112.32 592.90 116.96 592.55 122.24 590.37
M 224.91 589.79
C 255.13 584.59 286.19 574.32 332.59 554.22
C 400.57 524.77 401.33 524.51 406.90 529.17
C 410.51 532.17 421.15 562.56 422.05 572.41
C 422.96 582.37 420.29 586.22 410.92 588.46
C 401.66 590.68 401.79 592.31 411.21 592.31
C 421.31 592.31 429.64 588.50 433.24 582.23
C 436.83 575.99 437.31 562.26 434.68 541.03
C 432.54 523.85 432.54 522.44 434.62 514.77
C 437.23 505.14 436.25 502.21 429.69 500.05
C 425.92 498.81 423.85 499.13 414.27 502.45
C 400.93 507.06 390.55 508.56 360.20 510.26
C 347.11 510.99 331.87 512.65 325.05 514.10
C 298.64 519.69 266.17 532.87 244.33 546.83
C 234.94 552.83 230.87 553.67 230.11 549.73
C 229.50 546.54 239.40 539.87 260.03 529.58
C 293.51 512.88 320.92 505.73 358.89 503.76
C 385.74 502.37 396.85 500.90 406.63 497.47
C 421.76 492.17 424.66 488.90 428.97 472.32
C 432.36 459.27 431.53 451.99 425.15 438.87
C 421.35 431.06 403.20 399.76 401.28 397.67
C 400.83 397.18 359.81 414.44 336.44 424.94
C 327.61 428.90 318.35 433.77 315.86 435.77
C 313.36 437.77 302.96 444.92 292.74 451.67
C 245.18 483.06 212.65 508.63 195.32 528.24
C 185.17 539.72 182.17 544.88 179.79 554.94
C 177.90 562.97 178.75 571.18 182.18 577.88
C 185.27 583.94 187.97 586.37 195.21 589.64
C 202.42 592.91 206.72 592.94 224.91 589.79
M 358.81 407.13
C 379.24 398.27 396.20 390.77 396.50 390.47
C 396.78 390.18 395.01 385.42 392.56 379.91
C 390.10 374.38 387.38 367.56 386.51 364.74
C 385.63 361.92 384.49 359.14 383.97 358.56
C 383.44 357.99 379.03 360.06 374.17 363.17
C 369.31 366.28 354.07 374.77 340.29 382.05
C 311.21 397.42 309.05 399.01 310.19 404.21
C 311.70 411.05 318.54 424.60 320.13 423.92
C 320.98 423.56 338.39 416.00 358.81 407.13
M 437.85 410.94
C 439.63 408.79 440.02 409.28 416.57 383.78
C 412.27 379.09 408.42 375.78 408.03 376.41
C 407.64 377.05 410.12 382.18 413.54 387.82
C 416.97 393.46 421.32 400.67 423.22 403.85
C 430.19 415.47 432.95 416.82 437.85 410.94
M 358.27 367.72
C 378.26 356.50 384.29 351.82 383.23 348.33
C 382.76 346.78 381.99 345.09 381.53 344.58
C 381.05 344.06 369.70 349.87 356.31 357.50
C 342.91 365.13 325.97 374.73 318.67 378.83
C 311.36 382.95 305.11 387.04 304.76 387.92
C 304.41 388.82 304.76 390.71 305.52 392.12
C 306.83 394.56 307.75 394.24 325.85 384.99
C 336.26 379.65 350.86 371.88 358.27 367.72
M 453.87 391.15
C 456.21 386.64 456.16 386.59 437.24 377.83
C 422.57 371.04 413.38 367.62 412.42 368.59
C 410.96 370.04 419.72 377.40 427.70 381.44
C 432.35 383.78 439.57 387.76 443.75 390.28
C 447.94 392.81 451.50 394.87 451.65 394.87
C 451.82 394.87 452.81 393.19 453.87 391.15
M 368.26 345.77
C 382.12 338.18 382.46 337.51 380.14 323.26
C 379.25 317.87 378.10 298.46 377.58 280.13
C 376.57 244.99 375.30 235.54 368.99 216.67
C 364.11 202.06 357.19 189.88 349.20 181.83
C 342.67 175.26 340.91 174.24 330.55 171.17
C 317.90 167.40 313.97 164.31 312.59 157.05
C 311.07 148.92 313.00 143.73 320.48 135.91
C 324.31 131.90 327.05 128.24 326.59 127.77
C 326.13 127.31 324.07 126.92 322.05 126.92
C 315.62 126.92 308.73 122.44 305.76 116.31
C 302.39 109.33 302.40 108.44 306.25 93.78
C 309.13 82.87 309.24 81.47 307.51 78.14
C 304.61 72.54 302.14 71.74 296.11 74.49
C 291.42 76.60 287.22 76.87 257.30 76.90
C 220.77 76.92 221.61 76.76 220.07 84.45
C 219.62 86.68 218.75 88.82 218.13 89.21
C 217.52 89.59 217.00 91.15 216.98 92.71
C 216.97 94.24 215.27 99.26 213.22 103.82
C 208.77 113.73 209.50 115.38 218.31 115.38
C 226.22 115.38 229.79 118.19 230.73 125.17
C 231.44 130.44 231.45 130.45 237.94 131.22
C 245.23 132.08 247.28 133.44 246.06 136.62
C 245.36 138.42 244.15 138.64 238.82 137.94
C 235.03 137.44 232.43 137.59 232.43 138.31
C 232.43 143.81 238.06 147.13 249.40 148.31
C 258.87 149.29 263.35 152.82 265.88 161.26
C 268.95 171.47 264.95 176.27 244.45 186.97
C 232.41 193.26 229.59 195.40 223.26 202.94
C 213.70 214.36 205.11 227.36 185.66 259.83
C 176.86 274.51 167.46 289.94 164.77 294.10
C 162.08 298.26 158.51 303.92 156.84 306.69
C 155.17 309.46 151.99 312.59 149.77 313.64
C 146.07 315.40 145.23 315.35 139.79 313.01
C 136.52 311.62 130.13 307.33 125.63 303.51
C 118.37 297.37 98.18 281.92 74.03 264.01
C 64.42 256.90 60.93 251.99 59.78 243.95
C 59.29 240.58 58.58 236.53 58.20 234.95
L 57.52 232.08
L 53.92 234.63
C 51.94 236.03 49.98 237.18 49.54 237.18
C 47.00 237.18 37.24 231.47 37.24 229.99
C 37.24 227.74 36.70 227.76 32.09 230.14
C 29.12 231.67 27.81 233.81 25.73 240.53
C 24.30 245.18 23.11 249.62 23.11 250.37
C 23.11 252.38 28.40 257.69 30.40 257.69
C 31.33 257.69 34.26 259.64 36.92 262.01
C 39.56 264.38 44.92 268.12 48.80 270.29
C 56.91 274.85 69.74 286.92 92.52 311.45
C 117.82 338.69 138.02 355.09 146.30 355.12
C 151.06 355.13 159.73 350.45 166.96 343.96
C 179.38 332.81 207.67 297.08 224.43 271.37
C 239.15 248.77 243.53 244.45 248.84 247.28
C 252.24 249.10 254.38 254.60 264.59 287.82
C 279.49 336.29 284.75 351.13 292.84 367.51
L 300.55 383.10
L 328.45 367.69
C 343.79 359.22 361.71 349.35 368.26 345.77
M 418.34 352.53
C 435.84 347.99 444.64 343.46 450.33 336.09
C 461.54 321.54 453.58 299.00 435.04 292.86
C 428.94 290.83 428.04 290.83 421.81 292.78
C 414.03 295.23 406.09 300.64 401.46 306.65
C 390.49 320.87 389.00 323.33 389.80 325.83
C 390.51 328.10 391.72 327.33 400.00 319.32
C 415.66 304.17 427.25 300.68 436.40 308.36
C 451.60 321.13 437.31 340.46 406.57 348.68
C 401.21 350.12 396.52 351.28 396.13 351.28
C 395.74 351.28 396.04 352.44 396.79 353.85
C 398.60 357.23 400.66 357.10 418.34 352.53
M 412.02 342.14
C 425.49 337.53 435.52 329.73 437.35 322.47
C 438.37 318.40 434.79 312.00 430.13 309.59
C 426.55 307.74 425.84 307.78 420.27 310.24
C 412.18 313.82 407.43 317.62 398.98 327.22
C 390.81 336.50 389.11 340.87 392.38 344.13
C 394.92 346.67 400.50 346.10 412.02 342.14
M 148.86 304.32
L 151.51 300.95
L 143.49 292.44
C 132.53 280.85 126.76 273.10 105.12 240.95
C 94.88 225.74 85.38 212.18 84.01 210.82
C 80.14 207.00 74.48 203.63 74.48 205.15
C 74.48 205.91 71.55 210.86 67.97 216.17
C 63.00 223.53 61.79 226.21 62.87 227.50
C 63.64 228.44 65.08 233.36 66.04 238.45
C 68.02 248.77 70.97 252.74 83.07 261.31
C 95.22 269.91 125.10 292.65 132.26 298.77
C 139.07 304.55 143.50 307.58 145.34 307.65
C 145.81 307.68 147.40 306.18 148.86 304.32
M 22.65 282.69
C 27.13 275.64 30.81 268.85 30.81 267.60
C 30.82 264.95 25.46 262.14 22.54 263.26
C 19.70 264.35 5.18 287.22 5.15 290.64
C 5.14 293.82 8.41 296.28 12.07 295.82
C 13.60 295.63 17.54 290.74 22.65 282.69
M 165.13 279.24
L 169.45 270.68
L 135.65 233.65
C 115.40 211.46 101.27 194.92 100.37 192.36
C 99.55 190.00 98.88 184.91 98.88 181.05
C 98.88 170.53 96.46 164.26 89.73 157.28
C 84.93 152.32 83.04 151.17 80.18 151.50
C 74.38 152.18 75.13 154.77 82.20 158.33
C 87.32 160.94 89.34 162.87 91.24 167.05
C 95.41 176.23 94.07 183.03 86.20 192.81
C 81.45 198.69 81.36 199.33 84.85 202.26
C 90.79 207.21 92.08 208.59 96.53 214.74
C 99.06 218.27 106.51 229.23 113.05 239.10
C 129.53 263.91 137.73 274.83 147.56 285.03
L 155.98 293.77
L 158.40 290.79
C 159.72 289.15 162.75 283.96 165.13 279.24
M 194.25 230.77
C 214.13 198.83 223.24 188.85 240.13 180.54
C 246.85 177.23 253.99 172.81 256.00 170.71
C 259.43 167.13 259.56 166.59 258.15 162.28
C 256.29 156.67 254.14 155.42 244.45 154.33
C 230.27 152.74 226.79 149.26 224.73 134.58
C 223.18 123.54 221.65 121.79 213.56 121.79
C 202.93 121.79 200.14 114.28 206.06 101.58
C 208.73 95.85 215.73 75.59 215.73 73.58
C 215.73 72.38 202.31 67.00 192.62 64.29
C 181.52 61.21 159.37 57.45 157.83 58.40
C 157.27 58.76 144.26 80.95 128.95 107.73
L 101.10 156.42
L 103.09 163.14
C 104.19 166.85 105.41 174.35 105.82 179.81
L 106.56 189.76
L 117.16 201.72
C 122.99 208.29 138.15 224.97 150.82 238.78
L 173.88 263.88
L 180.28 253.42
C 183.78 247.65 190.08 237.46 194.25 230.77
M 54.13 223.40
C 61.16 214.00 69.34 201.55 69.34 200.22
C 69.34 198.88 63.71 194.87 61.83 194.87
C 61.18 194.87 56.41 201.58 51.26 209.78
L 41.88 224.71
L 44.84 227.09
C 46.46 228.41 48.19 229.49 48.68 229.49
C 49.16 229.49 51.61 226.74 54.13 223.40
M 80.75 187.47
C 83.55 184.81 86.23 181.08 86.72 179.17
C 87.76 175.00 84.53 168.85 79.23 164.91
C 75.93 162.45 75.38 162.38 72.17 164.15
C 68.80 166.03 65.85 172.50 63.64 182.86
C 62.88 186.41 63.26 187.15 67.03 189.47
C 73.07 193.21 75.01 192.92 80.75 187.47
M 127.77 95.91
C 179.30 5.60 175.35 13.17 172.69 10.23
C 171.42 8.83 169.95 7.69 169.43 7.69
C 168.89 7.69 150.72 38.59 129.03 76.35
C 90.80 142.90 89.67 145.06 91.87 147.50
C 93.11 148.87 94.77 149.99 95.54 149.96
C 96.32 149.94 110.82 125.62 127.77 95.91
M 223.58 51.53
L 226.97 44.73
L 212.68 37.60
C 204.83 33.68 194.74 27.92 190.26 24.81
C 185.77 21.69 181.61 19.03 181.00 18.87
C 179.62 18.53 161.70 49.79 162.88 50.47
C 163.34 50.74 167.19 51.38 171.43 51.88
C 181.22 53.06 199.98 57.96 209.95 61.94
L 217.66 65.00
L 218.93 61.67
C 219.64 59.83 221.73 55.27 223.58 51.53"/>
<path fill="#000000" stroke="none" d="
M 228.87 98.42
C 225.66 96.88 224.05 92.58 225.27 88.74
C 226.83 83.86 237.64 81.67 244.60 84.83
C 250.51 87.53 250.48 95.82 244.54 98.53
C 240.53 100.35 232.76 100.29 228.87 98.42
M 241.93 95.97
C 247.41 93.49 247.30 90.26 241.62 87.27
C 238.06 85.40 236.68 86.14 239.46 88.44
C 241.97 90.51 241.93 92.18 239.30 95.09
C 236.83 97.81 237.46 98.01 241.93 95.97"/>
<path fill="#c57a36" stroke="none" d="
M 7.38 294.79
C 6.15 294.06 5.15 292.19 5.15 290.64
C 5.18 287.22 19.70 264.35 22.54 263.26
C 25.46 262.14 30.82 264.95 30.81 267.60
C 30.81 268.85 27.13 275.64 22.65 282.69
C 14.43 295.63 12.02 297.54 7.38 294.79"/>
<path fill="#c57a36" stroke="none" d="
M 44.84 227.09
L 41.88 224.71
L 51.26 209.78
C 56.41 201.58 61.18 194.87 61.83 194.87
C 63.71 194.87 69.34 198.88 69.34 200.22
C 69.34 202.62 50.36 229.49 48.68 229.49
C 48.19 229.49 46.46 228.41 44.84 227.09"/>
<path fill="#c57a36" stroke="none" d="
M 91.87 147.49
C 89.66 145.06 90.76 142.94 128.45 77.29
C 149.83 40.08 167.94 9.22 168.71 8.72
C 170.69 7.44 174.87 11.63 174.00 14.03
C 171.91 19.68 96.75 149.92 95.54 149.96
C 94.77 149.99 93.11 148.87 91.87 147.49"/>
<path fill="#ffbf53" stroke="none" d="
M 215.73 64.19
C 210.62 61.27 188.00 54.72 176.21 52.73
C 168.94 51.51 162.98 50.09 162.97 49.58
C 162.90 47.33 179.29 19.29 180.68 19.27
C 181.52 19.24 185.86 21.76 190.31 24.85
C 194.76 27.94 204.83 33.68 212.68 37.60
L 226.97 44.73
L 223.58 51.53
C 221.73 55.27 219.64 59.90 218.93 61.81
C 217.98 64.40 217.17 65.00 215.73 64.19"/>
<path fill="#ae3c2a" stroke="none" d="
M 51.40 591.71
C 50.00 590.03 50.57 589.38 55.38 587.29
C 58.47 585.95 68.67 583.31 78.07 581.44
C 123.55 572.36 130.48 565.37 139.20 519.87
C 140.95 510.71 145.05 487.33 148.32 467.95
C 151.58 448.56 155.44 427.50 156.89 421.15
C 162.22 397.97 170.70 385.32 185.23 378.81
L 193.26 375.22
L 201.61 377.35
C 210.12 379.51 237.73 392.77 267.74 409.09
C 276.92 414.09 289.66 420.58 296.05 423.51
C 302.44 426.45 307.93 429.42 308.25 430.13
C 308.82 431.40 259.97 465.24 257.44 465.33
C 256.72 465.36 252.10 462.42 247.17 458.81
C 231.69 447.46 209.16 433.24 205.47 432.50
C 203.52 432.12 200.72 432.44 199.24 433.23
C 196.27 434.81 195.32 437.81 191.23 458.33
C 187.56 476.85 184.04 487.08 172.07 514.10
C 156.89 548.36 155.28 553.46 154.20 570.37
C 153.29 584.81 153.22 585.04 149.05 588.76
C 146.67 590.87 143.89 592.27 142.72 591.92
C 128.50 587.79 128.50 587.79 122.24 590.37
C 116.96 592.55 112.32 592.90 84.62 593.27
C 57.45 593.62 52.80 593.40 51.40 591.71"/>
<path fill="#ae3c2a" stroke="none" d="
M 195.21 589.64
C 187.97 586.37 185.27 583.94 182.18 577.88
C 178.75 571.18 177.90 562.97 179.79 554.94
C 182.17 544.88 185.17 539.72 195.32 528.24
C 212.65 508.63 245.18 483.06 292.74 451.67
C 302.96 444.92 313.36 437.77 315.86 435.77
C 318.35 433.77 327.61 428.90 336.44 424.94
C 359.81 414.44 400.83 397.18 401.28 397.67
C 403.20 399.76 421.35 431.06 425.15 438.87
C 431.53 451.99 432.36 459.27 428.97 472.32
C 424.66 488.90 421.76 492.17 406.63 497.47
C 396.85 500.90 385.74 502.37 358.89 503.76
C 320.92 505.73 293.51 512.88 260.03 529.58
C 239.40 539.87 229.50 546.54 230.11 549.73
C 230.87 553.67 234.94 552.83 244.33 546.83
C 266.17 532.87 298.64 519.69 325.05 514.10
C 331.87 512.65 347.11 510.99 360.20 510.26
C 390.55 508.56 400.93 507.06 414.27 502.45
C 423.85 499.13 425.92 498.81 429.69 500.05
C 436.25 502.21 437.23 505.14 434.62 514.77
C 432.54 522.44 432.54 523.85 434.68 541.03
C 437.31 562.26 436.83 575.99 433.24 582.23
C 429.64 588.50 421.31 592.31 411.21 592.31
C 401.79 592.31 401.66 590.68 410.92 588.46
C 420.29 586.22 422.96 582.37 422.05 572.41
C 421.15 562.56 410.51 532.17 406.90 529.17
C 401.33 524.51 400.57 524.77 332.59 554.22
C 286.19 574.32 255.13 584.59 224.91 589.79
C 206.72 592.94 202.42 592.91 195.21 589.64"/>
<path fill="#ae3c2a" stroke="none" d="
M 314.79 416.23
C 309.19 403.88 308.81 401.05 312.32 397.91
C 313.93 396.46 326.53 389.33 340.29 382.05
C 354.07 374.77 369.31 366.28 374.17 363.17
C 379.03 360.06 383.44 357.99 383.97 358.56
C 384.49 359.14 385.63 361.92 386.51 364.74
C 387.38 367.56 390.10 374.38 392.56 379.91
C 395.01 385.42 396.78 390.18 396.50 390.47
C 396.10 390.86 344.79 413.35 320.13 423.92
C 319.19 424.32 317.10 421.32 314.79 416.23"/>
<path fill="#ae3c2a" stroke="none" d="
M 292.84 367.51
C 284.75 351.13 279.49 336.29 264.59 287.82
C 254.38 254.60 252.24 249.10 248.84 247.28
C 243.53 244.45 239.15 248.77 224.43 271.37
C 207.67 297.08 179.38 332.81 166.96 343.96
C 159.73 350.45 151.06 355.13 146.30 355.12
C 138.02 355.09 117.82 338.69 92.52 311.45
C 69.74 286.92 56.91 274.85 48.80 270.29
C 44.92 268.12 39.56 264.38 36.92 262.01
C 34.26 259.64 31.33 257.69 30.40 257.69
C 28.40 257.69 23.11 252.38 23.11 250.37
C 23.11 249.62 24.30 245.18 25.73 240.53
C 27.81 233.81 29.12 231.67 32.09 230.14
C 36.70 227.76 37.24 227.74 37.24 229.99
C 37.24 231.47 47.00 237.18 49.54 237.18
C 49.98 237.18 51.94 236.03 53.92 234.63
L 57.52 232.08
L 58.20 234.95
C 58.58 236.53 59.29 240.58 59.78 243.95
C 60.93 251.99 64.42 256.90 74.03 264.01
C 98.18 281.92 118.37 297.37 125.63 303.51
C 130.13 307.33 136.52 311.62 139.79 313.01
C 145.23 315.35 146.07 315.40 149.77 313.64
C 151.99 312.59 155.17 309.46 156.84 306.69
C 158.51 303.92 162.08 298.26 164.77 294.10
C 167.46 289.94 176.86 274.51 185.66 259.83
C 205.11 227.36 213.70 214.36 223.26 202.94
C 229.59 195.40 232.41 193.26 244.45 186.97
C 264.95 176.27 268.95 171.47 265.88 161.26
C 263.35 152.82 258.87 149.29 249.40 148.31
C 238.06 147.13 232.43 143.81 232.43 138.31
C 232.43 137.59 235.03 137.44 238.82 137.94
C 244.15 138.64 245.36 138.42 246.06 136.62
C 247.28 133.44 245.23 132.08 237.94 131.22
C 231.45 130.45 231.44 130.44 230.73 125.17
C 229.79 118.19 226.22 115.38 218.31 115.38
C 209.50 115.38 208.77 113.73 213.22 103.82
C 215.27 99.26 216.97 94.24 216.98 92.71
C 217.00 91.15 217.52 89.59 218.13 89.21
C 218.75 88.82 219.62 86.68 220.07 84.45
C 221.61 76.76 220.82 76.92 256.66 76.92
C 284.07 76.94 290.56 76.58 295.52 74.81
C 302.53 72.29 304.80 72.91 307.44 78.01
C 309.26 81.51 309.17 82.72 306.25 93.78
C 302.40 108.44 302.39 109.33 305.76 116.31
C 308.73 122.44 315.62 126.92 322.05 126.92
C 324.07 126.92 326.13 127.31 326.59 127.77
C 327.05 128.24 324.31 131.90 320.48 135.91
C 313.00 143.73 311.07 148.92 312.59 157.05
C 313.97 164.31 317.90 167.40 330.55 171.17
C 340.91 174.24 342.67 175.26 349.20 181.83
C 357.19 189.88 364.11 202.06 368.99 216.67
C 375.30 235.54 376.57 244.99 377.58 280.13
C 378.10 298.46 379.25 317.87 380.14 323.26
C 382.46 337.51 382.12 338.18 368.26 345.77
C 361.71 349.35 343.79 359.22 328.45 367.69
L 300.55 383.10
L 292.84 367.51
M 244.54 98.53
C 250.48 95.82 250.51 87.53 244.60 84.83
C 237.64 81.67 226.83 83.86 225.27 88.74
C 224.05 92.58 225.66 96.88 228.87 98.42
C 232.76 100.29 240.53 100.35 244.54 98.53"/>
<path fill="#ae3c2a" stroke="none" d="
M 147.56 285.03
C 137.73 274.83 129.53 263.91 113.05 239.10
C 106.51 229.23 99.06 218.27 96.53 214.74
C 92.08 208.59 90.79 207.21 84.85 202.26
C 81.36 199.33 81.45 198.69 86.20 192.81
C 94.07 183.03 95.41 176.23 91.24 167.05
C 89.34 162.87 87.32 160.94 82.20 158.33
C 75.13 154.77 74.38 152.18 80.18 151.50
C 83.04 151.17 84.93 152.32 89.73 157.28
C 96.46 164.26 98.88 170.53 98.88 181.05
C 98.88 184.91 99.55 190.00 100.37 192.36
C 101.27 194.92 115.40 211.46 135.65 233.65
L 169.45 270.68
L 165.13 279.24
C 162.75 283.96 159.72 289.15 158.40 290.79
L 155.98 293.77
L 147.56 285.03"/>
<path fill="#ae3c2a" stroke="none" d="
M 67.03 189.47
C 63.26 187.15 62.88 186.41 63.64 182.86
C 65.85 172.50 68.80 166.03 72.17 164.15
C 75.38 162.38 75.93 162.45 79.23 164.91
C 84.53 168.85 87.76 175.00 86.72 179.17
C 85.66 183.36 76.52 192.35 73.46 192.21
C 72.26 192.14 69.36 190.92 67.03 189.47"/>
<path fill="#fefefe" stroke="none" d="
M 202.89 441.03
C 202.89 440.09 203.28 439.71 203.75 440.17
C 204.21 440.64 204.21 441.41 203.75 441.88
C 203.28 442.35 202.89 441.96 202.89 441.03"/>
<path fill="#fefefe" stroke="none" d="
M 239.55 94.79
C 241.52 92.63 241.67 91.73 240.40 89.69
C 238.17 86.13 238.46 85.60 241.74 87.32
C 247.30 90.26 247.37 93.50 241.93 95.97
C 237.36 98.06 236.83 97.79 239.55 94.79"/>
<path fill="#cf9e66" stroke="none" d="
M 429.24 412.45
C 427.83 410.90 425.12 407.03 423.22 403.85
C 421.32 400.67 416.97 393.46 413.54 387.82
C 410.12 382.18 407.64 377.05 408.03 376.41
C 408.42 375.78 412.27 379.09 416.57 383.78
C 440.02 409.28 439.63 408.79 437.85 410.94
C 434.47 415.01 431.97 415.45 429.24 412.45"/>
<path fill="#cf9e66" stroke="none" d="
M 305.52 392.12
C 304.76 390.71 304.41 388.82 304.76 387.92
C 305.11 387.04 311.36 382.95 318.67 378.83
C 325.97 374.73 342.91 365.13 356.31 357.50
C 369.70 349.87 381.05 344.06 381.53 344.58
C 381.99 345.09 382.76 346.78 383.23 348.33
C 383.94 350.67 383.00 351.95 377.92 355.65
C 370.23 361.26 350.53 372.36 325.85 384.99
C 307.75 394.24 306.83 394.56 305.52 392.12"/>
<path fill="#cf9e66" stroke="none" d="
M 443.75 390.28
C 439.57 387.76 432.35 383.78 427.70 381.44
C 419.72 377.40 410.96 370.04 412.42 368.59
C 413.38 367.62 422.57 371.04 437.24 377.83
C 456.16 386.59 456.21 386.64 453.87 391.15
C 452.81 393.19 451.82 394.87 451.65 394.87
C 451.50 394.87 447.94 392.81 443.75 390.28"/>
<path fill="#cf9e66" stroke="none" d="
M 396.79 353.85
C 396.04 352.44 395.74 351.28 396.13 351.28
C 396.52 351.28 401.21 350.12 406.57 348.68
C 431.16 342.10 446.72 327.38 441.75 315.42
C 439.59 310.23 433.73 305.42 428.29 304.41
C 421.45 303.13 411.09 308.59 400.00 319.32
C 391.72 327.33 390.51 328.10 389.80 325.83
C 389.00 323.33 390.49 320.87 401.46 306.65
C 406.21 300.49 414.27 295.09 422.09 292.82
C 428.33 291.01 429.50 291.01 435.27 292.94
C 453.58 299.00 461.48 321.63 450.33 336.09
C 444.64 343.46 435.84 347.99 418.34 352.53
C 400.66 357.10 398.60 357.23 396.79 353.85"/>
</g>
</svg>
