<?xml version="1.0" encoding="UTF-8" standalone="no"?>
<!DOCTYPE svg PUBLIC "-//W3C//DTD SVG 1.1//EN"
"http://www.w3.org/Graphics/SVG/1.1/DTD/svg11.dtd">
<svg width="360px" height="600px"
xmlns="http://www.w3.org/2000/svg" version="1.1">
<g transform="translate(0000, 0000) scale(1.0000, 1.0000)">
<path fill="#000000" stroke="none" d="
M 3.87 597.42
C 0.43 593.99 0.61 588.82 4.27 585.58
C 5.90 584.12 13.45 580.75 21.02 578.09
C 51.61 567.35 58.79 557.59 61.90 522.54
C 63.85 500.63 65.16 490.76 70.95 455.15
C 73.72 438.15 76.85 417.30 77.92 408.80
C 81.68 378.93 85.28 372.71 104.19 363.28
C 111.11 359.83 121.72 355.11 127.74 352.78
C 165.55 338.18 177.45 331.49 184.49 320.88
C 191.19 310.80 192.59 304.17 193.23 280.04
C 193.78 258.55 193.70 257.79 189.20 238.56
C 184.52 218.48 181.78 211.16 178.99 211.16
C 178.13 211.16 171.65 217.38 164.59 225.00
C 129.26 263.12 118.01 271.69 103.34 271.66
C 87.03 271.64 74.08 260.68 48.18 224.99
C 39.83 213.49 27.43 198.28 20.65 191.20
C 2.53 172.33 0.00 169.09 0.00 164.83
C 0.00 160.61 3.96 157.08 8.70 157.08
C 10.37 157.08 14.14 159.35 17.33 162.30
C 20.90 165.58 23.33 166.98 23.88 166.08
C 25.63 163.26 22.97 157.91 16.28 150.80
C 4.45 138.23 3.02 134.76 7.74 130.04
C 13.20 124.60 23.16 128.38 32.70 139.53
C 39.43 147.40 42.08 152.78 43.90 162.36
C 45.50 170.76 53.37 182.73 67.86 198.81
C 74.18 205.83 82.14 214.94 85.54 219.08
C 88.94 223.21 93.33 227.43 95.29 228.44
C 98.48 230.09 99.25 230.03 102.65 227.87
C 104.74 226.55 114.00 217.17 123.23 207.05
C 165.11 161.09 173.74 154.25 194.19 150.73
C 213.05 147.50 218.85 143.30 215.52 135.30
C 213.77 131.07 212.85 130.62 203.23 129.31
C 194.37 128.09 190.22 125.70 188.53 120.88
C 186.26 114.39 186.81 110.24 191.02 102.27
C 193.17 98.18 194.67 94.12 194.35 93.27
C 194.01 92.42 190.50 89.87 186.54 87.61
C 173.61 80.23 173.83 76.51 188.12 61.34
C 195.43 53.58 199.59 47.72 203.81 39.23
C 214.26 18.17 233.52 2.69 251.88 0.57
C 264.67 -0.91 277.64 3.54 293.74 14.94
C 311.81 27.71 320.03 46.40 316.18 65.94
C 312.61 84.08 303.48 97.89 283.61 115.27
C 268.74 128.29 263.63 135.95 265.17 142.96
C 266.26 147.91 268.40 148.80 283.60 150.59
C 305.06 153.12 315.95 159.57 324.08 174.57
C 329.60 184.74 350.68 239.67 354.32 253.35
C 359.28 272.00 359.68 288.37 356.09 325.94
C 352.93 358.89 353.05 361.97 358.03 379.79
C 360.66 389.16 360.52 396.72 357.50 408.49
C 354.59 419.81 350.68 428.10 347.69 429.24
C 341.38 431.65 335.48 428.59 335.48 422.88
C 335.48 421.17 336.99 415.40 338.84 410.07
C 343.90 395.46 340.80 391.04 335.47 405.27
C 333.95 409.31 332.03 413.06 331.20 413.59
C 326.19 416.76 318.71 412.15 318.71 405.90
C 318.71 403.96 320.55 392.05 322.84 379.43
L 326.97 356.51
L 323.86 335.01
C 321.79 320.77 320.71 307.22 320.63 294.85
C 320.52 276.28 320.49 276.12 315.66 264.59
C 312.98 258.22 307.70 244.11 303.91 233.23
C 300.13 222.35 296.13 212.54 295.02 211.43
C 293.19 209.60 292.57 210.30 288.43 219.03
C 277.99 240.94 277.38 265.75 286.21 308.37
C 292.36 338.03 293.45 348.40 291.63 359.79
C 288.44 379.70 276.44 392.03 254.14 398.33
C 247.03 400.33 208.31 406.11 191.61 407.65
C 176.59 409.04 174.27 413.67 177.41 435.94
C 179.83 453.21 179.83 471.94 177.41 506.65
C 174.58 547.15 174.75 550.74 180.03 565.78
C 182.49 572.79 184.52 580.62 184.52 583.16
C 184.50 594.59 174.74 600.89 163.12 596.95
C 155.25 594.27 153.73 594.31 146.92 597.40
C 142.09 599.59 138.43 599.95 120.97 599.97
C 102.35 600.00 100.43 599.78 98.06 597.42
C 92.34 591.71 97.14 584.50 108.25 582.13
C 111.94 581.33 115.95 580.69 117.16 580.67
C 120.98 580.65 133.38 574.25 137.86 569.99
C 148.01 560.30 149.99 550.09 146.00 527.90
C 139.07 489.41 130.32 427.39 130.32 416.81
C 130.32 414.22 130.23 414.22 127.07 417.19
C 122.34 421.64 118.04 436.74 114.22 462.42
C 110.44 487.87 107.28 500.38 98.21 525.97
C 94.68 535.88 90.53 548.25 88.95 553.47
C 86.14 562.84 86.14 563.09 88.36 573.63
C 90.19 582.35 90.32 585.15 89.08 588.91
C 85.90 598.55 76.95 601.71 63.07 598.12
C 54.90 596.01 53.56 596.00 42.17 597.93
C 35.48 599.07 24.71 600.00 18.23 600.00
C 8.17 600.00 6.08 599.63 3.87 597.42
M 44.57 590.91
C 54.75 589.45 57.28 589.51 64.43 591.31
C 73.81 593.67 77.42 592.87 80.81 587.69
C 82.81 584.65 82.89 583.27 81.54 575.37
C 80.68 570.48 80.00 564.32 80.00 561.68
C 80.00 559.06 84.90 542.41 90.90 524.69
C 101.65 492.97 104.27 482.33 109.70 448.18
C 113.39 424.97 116.97 415.43 124.44 408.81
C 129.52 404.30 130.53 402.50 132.41 394.64
C 133.61 389.68 135.66 383.43 137.01 380.77
C 138.88 377.03 139.05 375.77 137.78 375.30
C 136.88 374.96 130.84 373.04 124.39 371.02
L 112.63 367.36
L 105.48 370.98
C 97.15 375.18 91.21 381.81 88.40 390.04
C 87.30 393.26 85.50 402.85 84.40 411.36
C 83.30 419.86 80.13 440.73 77.34 457.73
C 74.57 474.72 71.41 496.74 70.34 506.65
C 66.49 542.24 65.69 547.42 63.02 554.56
C 59.91 562.85 52.34 571.67 44.30 576.37
C 41.25 578.15 33.17 581.60 26.34 584.05
C 11.26 589.42 8.71 590.72 9.79 592.47
C 10.80 594.08 27.72 593.33 44.57 590.91
M 144.52 590.34
C 153.46 586.58 154.85 586.49 162.50 589.16
C 169.37 591.54 173.45 590.76 176.22 586.52
C 178.48 583.08 178.03 580.75 171.74 563.65
C 168.44 554.65 168.27 542.55 170.98 505.36
C 173.41 471.94 173.37 455.83 170.84 437.72
C 168.54 421.24 169.01 414.49 172.98 406.71
C 174.79 403.18 175.41 400.29 174.85 398.02
C 173.29 391.71 166.25 382.39 160.49 379.03
L 154.85 375.72
L 150.66 378.17
C 144.76 381.61 141.29 387.33 138.68 397.97
C 135.12 412.48 136.70 428.94 148.55 500.86
C 156.12 546.71 156.34 555.28 150.17 566.58
C 143.92 578.03 134.50 584.01 116.98 587.61
C 111.42 588.76 106.32 590.02 105.66 590.43
C 102.27 592.52 107.51 593.56 121.41 593.56
C 134.98 593.56 137.78 593.18 144.52 590.34
M 352.36 400.33
C 353.83 392.11 353.72 390.67 350.52 378.81
C 346.39 363.48 346.34 358.87 349.81 322.55
C 353.03 288.86 352.58 273.77 347.88 256.67
C 343.17 239.58 320.84 183.54 315.59 175.65
C 307.47 163.47 299.55 159.36 279.52 156.98
C 261.43 154.82 262.04 155.07 259.10 148.43
C 256.75 143.15 256.62 141.68 257.92 136.04
C 258.74 132.52 261.35 126.93 263.74 123.62
L 268.06 117.61
L 265.01 112.56
C 260.45 105.04 260.89 97.74 266.63 85.69
C 272.27 73.83 271.65 70.51 263.37 68.28
C 259.29 67.18 257.60 65.77 255.21 61.45
C 253.03 57.49 250.94 55.60 247.56 54.49
C 240.92 52.31 212.84 48.84 210.85 49.94
C 207.14 52.02 185.69 76.02 186.45 77.24
C 186.90 77.97 190.41 80.58 194.25 83.02
C 201.86 87.89 203.91 91.98 201.43 97.40
C 199.39 101.88 200.61 103.08 206.81 102.70
C 210.89 102.44 212.27 102.86 212.59 104.45
C 213.10 106.89 209.52 108.12 201.77 108.14
C 195.54 108.15 192.90 110.56 194.06 115.20
C 195.21 119.76 199.51 122.11 209.01 123.41
C 218.28 124.67 221.28 127.17 222.72 134.83
C 224.04 141.88 221.92 148.20 217.17 151.39
C 214.76 153.00 208.05 155.06 201.07 156.33
C 183.50 159.55 176.49 163.75 158.06 182.18
C 149.55 190.69 135.12 205.62 126.00 215.38
C 116.88 225.13 107.64 234.03 105.47 235.16
C 102.85 236.51 99.74 236.96 96.26 236.48
C 90.48 235.71 88.34 233.73 64.10 206.65
C 44.63 184.91 39.63 176.67 34.12 157.33
C 31.63 148.57 24.62 139.21 17.99 135.80
C 11.96 132.68 12.57 135.70 19.60 143.72
C 27.47 152.68 32.86 163.52 31.72 168.08
C 30.67 172.21 25.46 175.58 21.86 174.44
C 20.32 173.95 16.86 171.57 14.15 169.13
C 11.39 166.64 8.90 165.27 8.45 165.99
C 8.01 166.70 14.08 173.70 21.94 181.55
C 29.78 189.39 41.23 202.58 47.34 210.88
C 66.94 237.45 68.88 239.88 77.68 249.18
C 88.46 260.58 97.51 265.83 104.72 264.86
C 115.66 263.39 123.64 256.62 161.55 216.64
C 172.83 204.76 176.62 202.47 182.57 203.96
C 187.07 205.08 190.13 211.79 195.01 231.28
C 198.86 246.67 199.20 249.76 199.69 274.48
L 200.22 301.11
L 208.18 304.26
C 217.86 308.10 227.86 310.30 235.61 310.30
C 249.50 310.30 277.02 301.03 276.52 296.54
C 276.37 295.25 275.57 288.41 274.72 281.34
C 272.86 265.61 273.91 239.16 276.81 228.63
C 279.69 218.15 286.40 204.81 289.95 202.49
C 294.41 199.57 298.90 201.36 301.91 207.26
C 303.34 210.04 307.37 220.61 310.86 230.73
C 314.36 240.86 319.42 254.36 322.10 260.73
L 326.98 272.32
L 327.21 292.92
C 327.35 306.35 328.39 319.71 330.17 331.29
C 333.39 352.25 333.57 360.99 331.02 373.67
C 325.11 403.21 324.48 409.52 327.68 407.55
C 328.25 407.20 329.35 404.43 330.13 401.42
C 332.23 393.30 336.18 387.55 339.66 387.58
C 348.53 387.63 350.65 397.22 345.28 412.97
C 343.56 418.00 342.54 422.50 343.02 422.96
C 344.53 424.47 350.74 409.43 352.36 400.33
M 221.29 397.07
C 260.85 391.45 273.11 385.67 281.52 368.60
C 285.33 360.90 285.70 359.06 285.59 349.04
C 285.51 342.48 284.03 331.18 281.95 321.24
C 280.01 312.04 278.35 304.43 278.25 304.34
C 278.14 304.24 273.78 305.88 268.55 307.98
C 247.46 316.44 229.30 317.36 211.28 310.89
C 198.59 306.33 198.63 306.33 196.84 312.23
C 194.18 320.92 190.15 327.55 184.22 333.01
C 174.98 341.51 166.79 345.67 136.36 357.30
C 129.39 359.96 124.17 362.56 124.75 363.09
C 127.39 365.47 145.94 369.91 153.75 370.03
C 161.33 370.16 162.93 370.65 167.30 374.16
C 173.56 379.20 178.88 386.72 180.85 393.35
C 181.69 396.18 182.97 399.26 183.66 400.17
C 185.11 402.08 187.19 401.90 221.29 397.07"/>
<path fill="#000000" stroke="none" d="
M 217.14 72.14
C 209.99 67.79 210.18 57.71 217.43 55.89
C 221.91 54.77 231.83 58.67 234.39 62.56
C 240.21 71.42 227.51 78.45 217.14 72.14
M 229.05 70.82
C 231.97 70.82 232.74 65.76 230.25 63.00
C 229.01 61.64 227.38 60.52 226.65 60.52
C 225.81 60.52 225.88 61.11 226.84 62.06
C 229.23 64.44 228.68 67.71 225.48 70.08
C 223.25 71.76 223.12 72.08 224.94 71.54
C 226.25 71.14 228.09 70.82 229.05 70.82"/>
<path fill="#ae3c2a" stroke="none" d="
M 9.79 592.47
C 8.71 590.72 11.26 589.42 26.34 584.05
C 33.17 581.60 41.25 578.15 44.30 576.37
C 52.34 571.67 59.91 562.85 63.02 554.56
C 65.69 547.42 66.49 542.24 70.34 506.65
C 71.41 496.74 74.57 474.72 77.34 457.73
C 80.13 440.73 83.30 419.86 84.40 411.36
C 85.50 402.85 87.30 393.26 88.40 390.04
C 91.21 381.81 97.15 375.18 105.48 370.98
L 112.63 367.36
L 124.39 371.02
C 130.84 373.04 136.88 374.96 137.78 375.30
C 139.05 375.77 138.88 377.03 137.01 380.77
C 135.66 383.43 133.61 389.68 132.41 394.64
C 130.53 402.50 129.52 404.30 124.44 408.81
C 116.97 415.43 113.39 424.97 109.70 448.18
C 104.27 482.33 101.65 492.97 90.90 524.69
C 84.90 542.41 80.00 559.06 80.00 561.68
C 80.00 564.32 80.68 570.48 81.54 575.37
C 82.89 583.27 82.81 584.65 80.81 587.69
C 77.42 592.87 73.81 593.67 64.43 591.31
C 57.28 589.51 54.75 589.45 44.57 590.91
C 27.72 593.33 10.80 594.08 9.79 592.47"/>
<path fill="#ae3c2a" stroke="none" d="
M 105.21 592.36
C 104.12 590.59 105.82 589.91 116.98 587.61
C 134.50 584.01 143.92 578.03 150.17 566.58
C 156.34 555.28 156.12 546.71 148.55 500.86
C 136.70 428.94 135.12 412.48 138.68 397.97
C 141.29 387.33 144.76 381.61 150.66 378.17
L 154.85 375.72
L 160.49 379.03
C 166.25 382.39 173.29 391.71 174.85 398.02
C 175.41 400.29 174.79 403.18 172.98 406.71
C 169.01 414.49 168.54 421.24 170.84 437.72
C 173.37 455.83 173.41 471.94 170.98 505.36
C 168.27 542.55 168.44 554.65 171.74 563.65
C 178.03 580.75 178.48 583.08 176.22 586.52
C 173.45 590.76 169.37 591.54 162.50 589.16
C 154.85 586.49 153.46 586.58 144.52 590.34
C 137.78 593.18 134.98 593.56 121.41 593.56
C 112.92 593.56 105.63 593.02 105.21 592.36"/>
<path fill="#ae3c2a" stroke="none" d="
M 343.02 422.96
C 342.54 422.50 343.56 418.00 345.28 412.97
C 350.65 397.22 348.53 387.63 339.66 387.58
C 336.18 387.55 332.23 393.30 330.13 401.42
C 329.35 404.43 328.25 407.20 327.68 407.55
C 324.48 409.52 325.11 403.21 331.02 373.67
C 333.57 360.99 333.39 352.25 330.17 331.29
C 328.39 319.71 327.35 306.35 327.21 292.92
L 326.98 272.32
L 322.10 260.73
C 319.42 254.36 314.36 240.86 310.86 230.73
C 307.37 220.61 303.34 210.04 301.91 207.26
C 298.90 201.36 294.41 199.57 289.95 202.49
C 286.40 204.81 279.69 218.15 276.81 228.63
C 273.91 239.16 272.86 265.61 274.72 281.34
C 275.57 288.41 276.37 295.25 276.52 296.54
C 277.02 301.03 249.50 310.30 235.61 310.30
C 227.86 310.30 217.86 308.10 208.18 304.26
L 200.22 301.11
L 199.69 274.48
C 199.20 249.76 198.86 246.67 195.01 231.28
C 190.13 211.79 187.07 205.08 182.57 203.96
C 176.62 202.47 172.83 204.76 161.55 216.64
C 123.64 256.62 115.66 263.39 104.72 264.86
C 97.51 265.83 88.46 260.58 77.68 249.18
C 68.88 239.88 66.94 237.45 47.34 210.88
C 41.23 202.58 29.78 189.39 21.94 181.55
C 14.08 173.70 8.01 166.70 8.45 165.99
C 8.90 165.27 11.39 166.64 14.15 169.13
C 16.86 171.57 20.32 173.95 21.86 174.44
C 25.46 175.58 30.67 172.21 31.72 168.08
C 32.86 163.52 27.47 152.68 19.60 143.72
C 12.57 135.70 11.96 132.68 17.99 135.80
C 24.62 139.21 31.63 148.57 34.12 157.33
C 39.63 176.67 44.63 184.91 64.10 206.65
C 88.34 233.73 90.48 235.71 96.26 236.48
C 99.74 236.96 102.85 236.51 105.47 235.16
C 107.64 234.03 116.88 225.13 126.00 215.38
C 135.12 205.62 149.55 190.69 158.06 182.18
C 176.49 163.75 183.50 159.55 201.07 156.33
C 208.05 155.06 214.76 153.00 217.17 151.39
C 221.92 148.20 224.04 141.88 222.72 134.83
C 221.28 127.17 218.28 124.67 209.01 123.41
C 199.51 122.11 195.21 119.76 194.06 115.20
C 192.90 110.56 195.54 108.15 201.77 108.14
C 209.52 108.12 213.10 106.89 212.59 104.45
C 212.27 102.86 210.89 102.44 206.81 102.70
C 200.61 103.08 199.39 101.88 201.43 97.40
C 203.91 91.98 201.86 87.89 194.25 83.02
C 190.41 80.58 186.90 77.97 186.45 77.24
C 185.52 75.75 207.97 51.31 211.46 50.02
C 214.17 49.02 240.97 52.33 247.54 54.48
C 250.94 55.60 253.02 57.49 255.21 61.45
C 257.60 65.77 259.29 67.18 263.37 68.28
C 271.65 70.51 272.27 73.83 266.63 85.69
C 260.89 97.74 260.45 105.04 265.01 112.56
L 268.06 117.61
L 263.74 123.62
C 261.35 126.93 258.74 132.52 257.92 136.04
C 256.62 141.68 256.75 143.15 259.10 148.43
C 262.04 155.07 261.43 154.82 279.52 156.98
C 299.55 159.36 307.47 163.47 315.59 175.65
C 320.84 183.54 343.17 239.58 347.88 256.67
C 352.58 273.77 353.03 288.86 349.81 322.55
C 346.34 358.87 346.39 363.48 350.52 378.81
C 353.72 390.67 353.83 392.11 352.36 400.33
C 350.74 409.43 344.53 424.47 343.02 422.96
M 231.59 73.17
C 239.14 69.73 236.37 61.00 226.55 57.27
C 219.60 54.62 214.66 55.52 212.70 59.81
C 208.43 69.17 220.93 78.01 231.59 73.17"/>
<path fill="#fefefe" stroke="none" d="
M 183.66 400.17
C 182.97 399.26 181.69 396.18 180.85 393.35
C 178.88 386.72 173.56 379.20 167.30 374.16
C 162.93 370.65 161.33 370.16 153.75 370.03
C 145.94 369.91 127.39 365.47 124.75 363.09
C 124.17 362.56 129.39 359.96 136.36 357.30
C 180.22 340.55 190.54 332.86 196.84 312.23
C 198.63 306.33 198.59 306.33 211.28 310.89
C 229.30 317.36 247.46 316.44 268.55 307.98
C 273.78 305.88 278.14 304.24 278.25 304.34
C 278.35 304.43 280.01 312.04 281.95 321.24
C 284.03 331.18 285.51 342.48 285.59 349.04
C 285.70 359.06 285.33 360.90 281.52 368.60
C 273.11 385.67 260.85 391.45 221.29 397.07
C 187.19 401.90 185.11 402.08 183.66 400.17"/>
<path fill="#fefefe" stroke="none" d="
M 225.66 69.73
C 228.17 67.76 228.58 66.62 227.83 63.62
C 226.90 59.96 226.92 59.96 229.59 62.36
C 233.97 66.32 232.74 69.88 226.45 71.29
L 222.58 72.17
L 225.66 69.73"/>
</g>
</svg>
