<?xml version="1.0" encoding="UTF-8" standalone="no"?>
<!DOCTYPE svg PUBLIC "-//W3C//DTD SVG 1.1//EN"
"http://www.w3.org/Graphics/SVG/1.1/DTD/svg11.dtd">
<svg width="438px" height="600px"
xmlns="http://www.w3.org/2000/svg" version="1.1">
<g transform="translate(0000, 0000) scale(1.0000, 1.0000)">
<path fill="#000000" stroke="none" d="
M 2.74 597.60
C -0.85 594.03 -0.78 588.17 2.89 584.21
C 4.48 582.49 9.83 579.62 14.77 577.83
C 31.38 571.82 51.79 562.96 52.86 561.28
C 53.43 560.36 53.92 557.05 53.92 553.94
C 53.97 542.60 63.03 529.95 76.00 523.09
C 80.47 520.73 85.96 517.42 88.19 515.74
C 91.92 512.95 92.16 512.33 91.04 508.59
C 90.37 506.33 87.28 491.79 84.16 476.28
C 81.05 460.77 76.46 439.13 73.98 428.21
C 67.18 398.24 65.15 377.13 68.06 366.63
C 70.40 358.23 76.32 350.59 83.03 347.31
C 92.72 342.55 98.31 343.22 116.24 351.21
C 146.33 364.63 155.64 372.56 186.88 411.42
C 199.10 426.64 211.45 441.35 214.30 444.09
L 219.46 449.06
L 221.38 442.17
C 222.43 438.36 223.95 430.36 224.74 424.36
C 225.55 418.36 227.95 404.51 230.10 393.59
C 236.04 363.29 234.72 348.03 223.35 315.49
C 221.25 309.44 214.65 288.38 208.69 268.72
C 202.73 249.04 197.51 232.62 197.10 232.21
C 196.69 231.79 194.02 231.53 191.15 231.59
C 187.43 231.69 180.43 234.49 166.52 241.42
C 125.70 261.76 77.30 282.83 53.30 290.73
C 34.72 296.85 25.91 298.18 17.10 296.22
C -3.94 291.51 -5.74 269.76 12.86 244.86
C 23.53 230.55 92.33 153.96 105.72 141.45
C 127.05 121.54 141.38 115.83 177.46 112.90
C 198.53 111.19 202.12 110.44 200.23 108.17
C 199.44 107.21 197.99 106.41 197.01 106.41
C 193.97 106.41 190.10 101.45 190.10 97.56
C 190.10 95.51 192.62 89.03 195.71 83.14
C 198.80 77.26 204.07 64.08 207.45 53.85
C 210.83 43.62 215.19 32.95 217.12 30.13
C 227.34 15.27 242.76 5.40 261.18 1.91
C 302.62 -5.94 334.74 14.82 342.32 54.32
C 344.77 67.12 344.75 80.04 342.26 94.31
C 339.83 108.21 336.30 117.12 328.51 129.00
C 325.22 134.03 321.22 140.83 319.61 144.13
C 316.94 149.62 316.85 150.42 318.57 153.50
C 320.75 157.38 323.53 158.29 338.83 160.15
C 353.30 161.92 361.38 165.94 373.40 177.35
C 384.99 188.33 394.32 202.05 404.53 223.15
C 422.27 259.81 430.78 295.13 436.19 354.49
C 438.71 382.12 438.10 393.23 433.02 412.82
C 430.91 420.92 427.69 433.32 425.85 440.37
L 422.51 453.18
L 426.48 468.49
C 430.64 484.58 430.72 490.32 426.86 497.81
C 424.55 502.32 417.98 506.40 412.95 506.42
C 407.84 506.46 406.54 507.44 404.19 513.09
C 402.05 518.23 398.08 520.13 392.44 518.72
C 387.44 517.46 386.13 513.42 386.18 499.36
C 386.22 488.62 386.88 484.51 390.24 474.01
C 396.14 455.56 396.31 452.17 392.36 429.49
C 388.42 406.83 388.55 397.46 393.12 376.28
C 397.66 355.26 397.18 347.28 390.15 326.92
C 386.88 317.40 382.07 301.24 379.48 291.03
C 373.87 268.87 369.23 256.37 364.58 250.85
L 361.16 246.79
L 357.36 250.41
C 347.64 259.63 335.24 296.14 327.43 338.62
C 325.42 349.55 324.58 360.59 324.09 382.69
C 323.41 412.91 323.66 416.12 329.66 457.69
C 330.93 466.49 331.83 481.23 331.88 494.23
C 331.98 517.60 330.63 525.69 324.38 539.33
L 321.33 545.97
L 328.62 552.86
C 344.93 568.31 362.26 576.92 385.98 581.37
C 399.83 583.96 404.60 589.74 398.18 596.15
C 395.97 598.36 393.90 598.72 383.55 598.72
C 368.33 598.72 355.31 596.26 331.56 588.88
C 297.52 578.32 283.40 577.50 226.06 582.72
C 194.79 585.56 149.49 589.22 114.84 591.71
C 101.56 592.67 86.41 590.79 76.07 586.94
L 69.27 584.40
L 58.24 589.01
C 43.74 595.06 28.77 598.83 15.90 599.67
C 6.47 600.28 5.21 600.08 2.74 597.60
M 33.78 589.74
C 44.98 586.79 61.65 579.77 61.65 577.99
C 61.65 577.36 60.68 575.27 59.47 573.35
C 58.28 571.44 57.18 569.69 57.06 569.49
C 56.81 569.09 9.71 587.86 7.49 589.24
C 6.81 589.65 7.00 590.81 7.93 591.94
C 9.95 594.37 19.15 593.59 33.78 589.74
M 391.09 591.06
C 391.91 589.74 391.26 589.55 376.81 586.65
C 357.81 582.85 338.42 572.83 323.39 559.09
L 316.03 552.35
L 309.26 555.62
C 305.53 557.41 298.55 559.50 293.73 560.26
C 283.11 561.91 277.28 561.01 247.90 553.21
C 213.00 543.95 206.72 543.37 178.50 546.85
C 157.36 549.45 148.68 551.49 131.32 557.88
C 117.95 562.82 116.49 563.10 111.80 561.71
C 105.36 559.78 100.70 555.10 93.98 543.79
C 88.76 535.03 83.46 529.49 80.29 529.49
C 77.50 529.49 66.77 539.90 64.03 545.26
C 60.28 552.59 61.19 562.31 66.32 569.59
C 72.11 577.82 80.14 581.59 98.26 584.58
C 106.11 585.87 142.39 583.56 202.94 577.92
C 236.55 574.79 253.94 573.78 274.87 573.77
C 305.61 573.74 307.70 574.05 336.53 582.97
C 346.78 586.14 358.92 589.49 363.50 590.40
C 373.53 592.40 390.03 592.79 391.09 591.06
M 127.61 551.36
C 141.25 545.95 151.00 543.67 172.12 540.92
C 205.80 536.55 217.97 537.69 261.39 549.29
C 281.36 554.63 289.31 555.23 298.75 552.10
C 312.74 547.46 320.63 535.76 324.44 514.00
C 326.92 499.82 326.35 483.59 322.39 455.81
C 320.99 445.95 319.83 437.65 319.83 437.36
C 319.83 436.31 299.69 438.63 287.51 441.09
C 280.69 442.46 269.71 445.54 263.11 447.91
C 235.67 457.79 215.47 465.53 212.82 467.17
C 211.28 468.13 205.73 470.51 200.49 472.46
C 195.26 474.42 182.03 480.60 171.10 486.21
C 160.17 491.82 143.94 499.26 135.02 502.73
C 126.11 506.22 116.20 510.42 113.03 512.08
C 109.86 513.73 105.07 515.77 102.40 516.63
C 99.74 517.47 95.91 519.55 93.89 521.24
L 90.22 524.32
L 99.10 537.76
C 108.05 551.31 111.73 555.13 115.86 555.13
C 117.09 555.13 122.38 553.44 127.61 551.36
M 399.20 508.23
C 401.15 502.26 403.78 500.00 408.77 500.00
C 417.02 500.00 422.59 493.85 422.59 484.72
C 422.59 482.87 421.34 477.04 419.81 471.77
C 415.53 457.00 416.11 446.62 422.41 424.82
C 431.45 393.47 432.28 387.27 430.45 365.55
C 424.64 296.87 415.50 259.63 394.86 220.68
C 382.83 197.96 372.92 185.23 360.28 176.22
C 350.16 169.01 347.54 168.08 331.76 165.99
C 324.54 165.03 317.43 163.60 315.96 162.81
C 313.00 161.23 310.84 156.62 310.84 151.87
C 310.84 149.56 309.57 148.13 305.87 146.23
C 297.15 141.79 289.57 130.31 285.78 115.78
C 283.16 105.74 283.35 101.71 287.00 90.23
C 289.84 81.31 289.97 80.03 288.30 76.81
C 285.69 71.76 284.82 71.45 272.46 71.23
C 260.81 71.03 256.21 69.71 232.40 59.77
C 215.11 52.55 215.92 52.27 210.65 67.36
C 208.18 74.44 204.25 83.56 201.92 87.63
C 197.91 94.67 197.31 100.00 200.52 100.00
C 203.63 100.00 208.08 106.42 208.08 110.88
C 208.08 116.58 210.27 117.58 216.42 114.67
C 220.03 112.95 221.41 112.81 222.61 113.99
C 223.79 115.18 223.42 116.08 220.93 117.99
C 219.15 119.35 217.06 120.47 216.25 120.49
C 215.44 120.50 213.50 121.55 211.92 122.83
L 209.06 125.14
L 212.31 128.92
C 215.45 132.56 215.90 132.68 225.36 132.32
C 234.63 131.96 235.34 132.13 238.81 135.60
C 244.02 140.81 246.49 152.17 243.96 159.32
C 241.52 166.21 237.39 169.00 227.34 170.58
C 205.31 174.03 206.87 173.37 178.22 191.44
C 132.43 220.29 104.66 235.08 77.88 244.85
C 65.52 249.35 61.47 249.06 59.73 243.58
C 58.53 239.85 61.27 236.00 86.66 205.77
C 110.99 176.81 130.22 156.60 138.66 151.14
C 144.10 147.60 145.03 147.44 159.05 147.44
C 171.71 147.44 174.34 147.06 178.08 144.76
C 183.25 141.56 184.96 138.73 184.96 133.36
C 184.96 128.47 189.93 123.08 194.43 123.08
C 199.35 123.08 201.66 121.76 201.66 118.94
C 201.66 116.63 201.08 116.44 196.62 117.14
C 193.85 117.59 185.93 118.54 179.01 119.24
C 150.91 122.15 142.06 124.65 128.29 133.54
C 117.53 140.47 107.27 150.47 78.48 182.05
C 9.95 257.24 1.32 269.62 8.95 281.81
C 12.64 287.68 19.25 290.21 28.90 289.41
C 45.26 288.06 88.18 270.81 152.47 239.72
C 166.72 232.82 181.35 226.19 184.97 225.00
C 192.40 222.54 198.90 223.18 202.08 226.68
C 203.21 227.92 209.05 245.08 215.04 264.79
C 221.04 284.51 227.73 305.83 229.92 312.18
C 241.45 345.64 242.93 365.12 236.42 397.35
C 234.34 407.62 231.73 422.37 230.61 430.13
C 229.49 437.88 227.97 446.14 227.19 448.49
C 226.44 450.82 226.09 453.03 226.45 453.37
C 226.80 453.73 232.20 451.88 238.46 449.28
C 263.99 438.67 285.30 433.10 307.04 431.37
L 318.01 430.51
L 317.48 399.40
C 316.77 357.62 318.92 338.96 328.92 300.17
C 339.87 257.74 351.38 237.40 362.82 240.26
C 371.67 242.47 377.99 255.36 385.85 287.18
C 388.37 297.40 393.01 313.17 396.14 322.19
C 404.72 346.90 404.86 351.65 398.01 388.17
L 395.07 403.90
L 398.72 425.90
C 403.00 451.72 402.74 458.37 396.72 477.56
C 393.51 487.82 392.72 492.50 392.80 500.96
C 392.85 506.79 393.28 512.15 393.74 512.90
C 395.23 515.31 397.51 513.36 399.20 508.23
M 111.35 504.45
C 115.20 501.92 116.04 495.17 116.04 466.67
C 116.03 445.08 115.73 441.81 112.63 430.26
C 110.22 421.24 107.07 413.79 101.82 404.62
C 92.26 387.91 92.19 385.44 100.74 368.56
C 106.78 356.68 106.97 355.99 104.70 354.33
C 94.33 346.77 78.60 355.42 74.34 371.03
C 71.63 380.96 73.50 394.31 84.54 444.23
C 87.34 456.92 90.89 473.95 92.42 482.05
C 93.93 490.15 96.06 499.82 97.13 503.51
L 99.07 510.22
L 103.81 508.24
C 106.40 507.17 109.80 505.45 111.35 504.45
M 133.24 495.46
C 138.01 493.68 150.89 487.69 161.84 482.15
C 172.80 476.62 188.19 469.40 196.05 466.10
C 217.27 457.23 216.60 458.41 206.48 447.49
C 201.76 442.42 190.84 429.24 182.19 418.22
C 163.85 394.85 151.67 381.71 140.76 373.53
C 132.03 366.97 119.45 360.26 115.92 360.26
C 112.63 360.26 100.82 383.13 101.90 387.36
C 102.33 389.03 105.34 395.00 108.58 400.64
C 119.96 420.42 124.19 443.86 122.67 478.53
C 122.05 492.62 122.19 498.72 123.15 498.72
C 123.91 498.72 128.45 497.26 133.24 495.46
M 91.20 231.23
C 111.52 222.50 136.60 208.53 171.42 186.55
C 186.49 177.05 200.21 168.74 201.92 168.09
C 203.63 167.45 210.43 166.26 217.03 165.46
C 230.06 163.87 236.03 161.29 237.18 156.73
C 238.36 152.05 236.42 144.83 233.09 141.51
C 230.34 138.77 229.25 138.51 223.19 139.23
C 214.52 140.24 207.76 137.63 204.92 132.15
C 201.08 124.73 191.38 128.31 191.38 137.15
C 191.38 140.67 190.37 143.31 187.92 146.23
C 182.68 152.45 177.92 153.85 162.07 153.85
C 148.71 153.85 147.88 154.01 143.09 157.51
C 134.86 163.55 111.04 188.91 91.18 212.82
C 66.18 242.91 68.08 240.32 71.94 239.13
C 73.70 238.58 82.36 235.03 91.20 231.23"/>
<path fill="#000000" stroke="none" d="
M 218.65 83.04
C 215.44 81.50 213.84 77.19 215.06 73.36
C 216.61 68.47 227.43 66.28 234.39 69.45
C 240.30 72.14 240.27 80.44 234.32 83.14
C 230.32 84.96 222.55 84.91 218.65 83.04
M 231.72 80.59
C 237.20 78.10 237.09 74.87 231.41 71.88
C 227.85 70.01 226.46 70.76 229.25 73.05
C 231.75 75.13 231.72 76.79 229.08 79.71
C 226.62 82.42 227.25 82.63 231.72 80.59"/>
<path fill="#ae3c2a" stroke="none" d="
M 7.93 591.94
C 7.00 590.81 6.81 589.65 7.49 589.24
C 9.71 587.86 56.81 569.09 57.06 569.49
C 57.18 569.69 58.28 571.44 59.47 573.35
C 60.68 575.27 61.65 577.36 61.65 577.99
C 61.65 579.77 44.98 586.79 33.78 589.74
C 19.15 593.59 9.95 594.37 7.93 591.94"/>
<path fill="#ae3c2a" stroke="none" d="
M 363.50 590.40
C 358.92 589.49 346.78 586.14 336.53 582.97
C 307.70 574.05 305.61 573.74 274.87 573.77
C 253.94 573.78 236.55 574.79 202.94 577.92
C 142.39 583.56 106.11 585.87 98.26 584.58
C 80.14 581.59 72.11 577.82 66.32 569.59
C 61.19 562.31 60.28 552.59 64.03 545.26
C 66.77 539.90 77.50 529.49 80.29 529.49
C 83.46 529.49 88.76 535.03 93.98 543.79
C 100.70 555.10 105.36 559.78 111.80 561.71
C 116.49 563.10 117.95 562.82 131.32 557.88
C 148.68 551.49 157.36 549.45 178.50 546.85
C 206.72 543.37 213.00 543.95 247.90 553.21
C 277.28 561.01 283.11 561.91 293.73 560.26
C 298.55 559.50 305.53 557.41 309.26 555.62
L 316.03 552.35
L 323.39 559.09
C 338.42 572.83 357.81 582.85 376.81 586.65
C 391.26 589.55 391.91 589.74 391.09 591.06
C 390.03 592.79 373.53 592.40 363.50 590.40"/>
<path fill="#ae3c2a" stroke="none" d="
M 393.74 512.90
C 393.28 512.15 392.85 506.79 392.80 500.96
C 392.72 492.50 393.51 487.82 396.72 477.56
C 402.74 458.37 403.00 451.72 398.72 425.90
L 395.07 403.90
L 398.01 388.17
C 404.86 351.65 404.72 346.90 396.14 322.19
C 393.01 313.17 388.37 297.40 385.85 287.18
C 377.99 255.36 371.67 242.47 362.82 240.26
C 351.38 237.40 339.87 257.74 328.92 300.17
C 318.92 338.96 316.77 357.62 317.48 399.40
L 318.01 430.51
L 307.04 431.37
C 285.30 433.10 263.99 438.67 238.46 449.28
C 232.20 451.88 226.80 453.73 226.45 453.37
C 226.09 453.03 226.44 450.82 227.19 448.49
C 227.97 446.14 229.49 437.88 230.61 430.13
C 231.73 422.37 234.34 407.62 236.42 397.35
C 242.93 365.12 241.45 345.64 229.92 312.18
C 227.73 305.83 221.04 284.51 215.04 264.79
C 209.05 245.08 203.21 227.92 202.08 226.68
C 198.90 223.18 192.40 222.54 184.97 225.00
C 181.35 226.19 166.72 232.82 152.47 239.72
C 88.18 270.81 45.26 288.06 28.90 289.41
C 19.25 290.21 12.64 287.68 8.95 281.81
C 1.32 269.62 9.95 257.24 78.48 182.05
C 128.05 127.67 134.10 123.90 179.01 119.24
C 185.93 118.54 193.85 117.59 196.62 117.14
C 201.08 116.44 201.66 116.63 201.66 118.94
C 201.66 121.76 199.35 123.08 194.43 123.08
C 189.93 123.08 184.96 128.47 184.96 133.36
C 184.96 138.73 183.25 141.56 178.08 144.76
C 174.34 147.06 171.71 147.44 159.05 147.44
C 145.03 147.44 144.10 147.60 138.66 151.14
C 130.22 156.60 110.99 176.81 86.66 205.77
C 61.27 236.00 58.53 239.85 59.73 243.58
C 61.47 249.06 65.52 249.35 77.88 244.85
C 104.66 235.08 132.43 220.29 178.22 191.44
C 206.87 173.37 205.31 174.03 227.34 170.58
C 237.39 169.00 241.52 166.21 243.96 159.32
C 246.49 152.17 244.02 140.81 238.81 135.60
C 235.34 132.13 234.63 131.96 225.36 132.32
C 215.90 132.68 215.45 132.56 212.31 128.92
L 209.06 125.14
L 211.92 122.83
C 213.50 121.55 215.44 120.50 216.25 120.49
C 217.06 120.47 219.15 119.35 220.93 117.99
C 223.42 116.08 223.79 115.18 222.61 113.99
C 221.41 112.81 220.03 112.95 216.42 114.67
C 210.27 117.58 208.08 116.58 208.08 110.88
C 208.08 106.42 203.63 100.00 200.52 100.00
C 197.20 100.00 197.86 94.56 202.03 87.46
C 204.45 83.36 208.27 74.45 210.54 67.64
C 212.81 60.85 215.35 55.05 216.19 54.77
C 218.06 54.12 227.07 57.19 241.23 63.31
C 256.10 69.73 266.35 72.19 274.96 71.44
C 283.13 70.71 285.66 71.73 288.28 76.78
C 289.97 80.03 289.85 81.28 287.00 90.23
C 283.35 101.71 283.16 105.74 285.78 115.78
C 289.57 130.31 297.15 141.79 305.87 146.23
C 309.57 148.13 310.84 149.56 310.84 151.87
C 310.84 156.62 313.00 161.23 315.96 162.81
C 317.43 163.60 324.54 165.03 331.76 165.99
C 347.54 168.08 350.16 169.01 360.28 176.22
C 372.92 185.23 382.83 197.96 394.86 220.68
C 415.50 259.63 424.64 296.87 430.45 365.55
C 432.28 387.27 431.45 393.47 422.41 424.82
C 416.11 446.62 415.53 457.00 419.81 471.77
C 421.34 477.04 422.59 482.87 422.59 484.72
C 422.59 493.85 417.02 500.00 408.77 500.00
C 403.78 500.00 401.15 502.26 399.20 508.23
C 397.51 513.36 395.23 515.31 393.74 512.90
M 234.32 83.14
C 240.27 80.44 240.30 72.14 234.39 69.45
C 227.43 66.28 216.61 68.47 215.06 73.36
C 213.84 77.19 215.44 81.50 218.65 83.04
C 222.55 84.91 230.32 84.96 234.32 83.14"/>
<path fill="#ae3c2a" stroke="none" d="
M 97.13 503.51
C 96.06 499.82 93.93 490.15 92.42 482.05
C 90.89 473.95 87.34 456.92 84.54 444.23
C 71.13 383.63 70.44 373.76 78.70 361.41
C 82.81 355.26 91.92 350.65 97.77 351.74
C 100.26 352.22 103.39 353.38 104.70 354.33
C 106.97 355.99 106.78 356.68 100.74 368.56
C 92.19 385.44 92.26 387.91 101.82 404.62
C 107.07 413.79 110.22 421.24 112.63 430.26
C 115.73 441.81 116.03 445.08 116.04 466.67
C 116.04 479.72 115.61 493.14 115.10 496.50
C 114.10 503.00 112.54 504.62 103.81 508.24
L 99.07 510.22
L 97.13 503.51"/>
<path fill="#fefefe" stroke="none" d="
M 110.78 553.15
C 109.24 552.08 103.98 545.14 99.10 537.76
L 90.22 524.32
L 93.89 521.24
C 95.91 519.55 99.74 517.47 102.40 516.63
C 105.07 515.77 109.86 513.73 113.03 512.08
C 116.20 510.42 126.11 506.22 135.02 502.73
C 143.94 499.26 160.17 491.82 171.10 486.21
C 182.03 480.60 195.26 474.42 200.49 472.46
C 205.73 470.51 211.28 468.13 212.82 467.17
C 215.47 465.53 235.67 457.79 263.11 447.91
C 269.71 445.54 280.69 442.46 287.51 441.09
C 299.69 438.63 319.83 436.31 319.83 437.36
C 319.83 437.65 320.99 445.95 322.39 455.81
C 326.35 483.59 326.92 499.82 324.44 514.00
C 320.63 535.76 312.74 547.46 298.75 552.10
C 289.31 555.23 281.36 554.63 261.39 549.29
C 217.97 537.69 205.80 536.55 172.12 540.92
C 151.00 543.67 141.25 545.95 127.61 551.36
C 116.73 555.67 114.69 555.88 110.78 553.15"/>
<path fill="#fefefe" stroke="none" d="
M 122.67 478.53
C 124.19 443.86 119.96 420.42 108.58 400.64
C 105.34 395.00 102.33 389.03 101.90 387.36
C 100.82 383.13 112.63 360.26 115.92 360.26
C 119.45 360.26 132.03 366.97 140.76 373.53
C 151.67 381.71 163.85 394.85 182.19 418.22
C 190.84 429.24 201.76 442.42 206.48 447.49
C 216.60 458.41 217.27 457.23 196.05 466.10
C 188.19 469.40 172.80 476.62 161.84 482.15
C 143.45 491.45 126.48 498.72 123.15 498.72
C 122.19 498.72 122.05 492.62 122.67 478.53"/>
<path fill="#fefefe" stroke="none" d="
M 229.34 79.41
C 231.31 77.24 231.46 76.35 230.19 74.31
C 227.95 70.74 228.25 70.22 231.52 71.94
C 237.09 74.87 237.16 78.12 231.72 80.59
C 227.14 82.68 226.62 82.41 229.34 79.41"/>
</g>
</svg>
