<?xml version="1.0" encoding="UTF-8" standalone="no"?>
<!DOCTYPE svg PUBLIC "-//W3C//DTD SVG 1.1//EN"
"http://www.w3.org/Graphics/SVG/1.1/DTD/svg11.dtd">
<svg width="429px" height="600px"
xmlns="http://www.w3.org/2000/svg" version="1.1">
<g transform="translate(0000, 0000) scale(1.0000, 1.0000)">
<path fill="#000000" stroke="none" d="
M 2.58 597.42
C -2.54 592.31 -1.21 589.30 19.25 559.71
C 25.24 551.07 31.76 541.73 33.74 538.97
L 37.36 533.95
L 37.36 364.24
L 37.36 194.54
L 34.28 189.99
C 30.12 183.88 27.27 165.52 29.31 157.92
C 30.29 154.25 30.31 152.11 29.39 150.99
C 27.30 148.48 29.28 143.25 33.51 140.12
L 37.36 137.28
L 37.36 73.79
C 37.36 12.01 37.42 10.24 39.94 7.73
C 43.23 4.43 48.23 4.43 51.53 7.73
C 54.04 10.24 54.11 12.01 54.11 74.38
L 54.11 138.48
L 58.55 140.86
C 64.75 144.19 68.19 148.18 73.42 158.14
L 77.94 166.74
L 99.20 179.92
C 110.90 187.18 126.21 196.69 133.25 201.05
C 148.80 210.70 152.56 212.25 155.60 210.35
C 156.81 209.59 163.03 199.08 169.41 187.00
C 190.95 146.20 198.58 136.93 218.34 127.56
C 229.06 122.46 231.54 119.83 229.83 115.36
C 228.52 111.94 222.98 109.82 212.75 108.80
C 201.41 107.68 198.95 105.75 197.69 96.98
C 196.48 88.70 195.30 87.55 188.03 87.55
C 181.08 87.55 177.78 85.26 177.78 80.46
C 177.78 73.31 184.71 32.29 186.92 26.39
C 188.24 22.85 191.09 17.81 193.27 15.19
C 201.37 5.37 221.35 -1.00 239.89 0.32
C 269.41 2.43 291.31 34.11 286.17 67.27
C 281.97 94.43 281.71 98.95 284.03 105.01
C 286.64 111.85 286.17 111.72 309.83 112.45
C 330.72 113.11 337.66 114.86 348.79 122.30
C 358.80 128.99 383.46 152.48 391.06 162.59
C 408.00 185.11 411.65 200.51 413.51 257.34
L 414.76 295.40
L 421.28 308.51
C 428.46 322.94 430.28 331.52 427.75 339.14
C 424.59 348.71 415.06 350.29 411.52 341.85
C 410.51 339.41 409.68 335.92 409.68 334.08
C 409.68 330.76 405.13 318.54 402.99 316.12
C 402.36 315.41 402.24 318.84 402.72 324.00
C 403.49 332.24 403.30 333.41 400.83 335.88
C 397.22 339.49 393.53 339.35 389.64 335.47
C 386.96 332.78 386.49 331.09 386.49 324.21
C 386.50 319.74 387.36 310.79 388.41 304.30
L 390.33 292.51
L 384.00 266.32
C 380.53 251.91 376.75 232.89 375.60 224.03
C 374.47 215.18 373.18 206.21 372.75 204.09
C 371.76 199.16 365.62 193.45 343.43 176.85
C 330.34 167.05 325.22 163.88 324.46 165.08
C 322.68 167.88 323.24 188.83 325.38 199.16
C 326.49 204.54 331.68 221.34 336.90 236.51
C 354.37 287.25 354.87 293.38 344.06 325.35
C 336.82 346.78 336.40 350.79 339.49 368.45
C 340.56 374.58 341.96 384.14 342.59 389.69
C 343.21 395.24 347.26 412.53 351.56 428.11
C 366.35 481.67 369.65 502.92 367.24 529.26
L 365.64 546.89
L 370.27 561.19
C 376.08 579.14 376.30 585.93 371.23 590.99
C 366.00 596.20 358.32 597.95 346.55 596.60
C 334.43 595.21 312.56 595.60 295.28 597.52
C 279.21 599.28 273.54 598.48 271.56 594.14
C 267.90 586.09 275.46 581.20 298.25 576.85
C 306.05 575.37 314.73 573.54 317.56 572.79
C 327.64 570.14 334.88 559.82 335.91 546.61
C 336.66 536.91 330.94 508.29 322.88 481.55
C 319.79 471.27 313.97 451.87 309.94 438.41
C 305.90 424.96 301.88 411.93 301.01 409.44
L 299.42 404.94
L 279.89 404.58
L 260.36 404.23
L 253.14 419.38
C 248.76 428.60 242.64 445.16 237.56 461.59
C 224.74 503.02 220.76 514.83 210.21 542.70
C 200.60 568.11 200.47 568.61 200.72 579.54
C 200.93 589.00 200.59 591.13 198.34 593.99
C 194.57 598.78 188.55 599.46 173.89 596.78
C 161.37 594.48 148.17 594.52 121.52 596.92
C 110.21 597.94 106.31 597.06 103.54 592.84
C 99.04 585.99 106.10 581.11 129.47 574.92
C 151.91 568.97 157.42 565.49 168.19 550.40
C 180.99 532.48 187.16 513.15 195.11 466.09
C 200.19 436.12 204.25 419.07 209.39 406.26
C 211.18 401.76 213.83 391.80 215.26 384.13
C 218.88 364.67 222.59 353.06 235.00 322.25
C 257.80 265.66 260.49 248.96 251.23 221.25
C 246.55 207.26 235.83 184.24 232.86 181.79
C 231.07 180.32 230.35 180.91 227.28 186.30
C 215.11 207.67 210.96 213.93 202.63 223.45
C 186.98 241.40 172.44 251.90 161.38 253.20
C 147.24 254.87 129.29 245.41 98.54 220.04
C 87.72 211.11 76.98 202.47 74.68 200.83
C 71.31 198.42 59.35 194.52 55.07 194.45
C 53.36 194.41 53.89 534.10 55.60 537.31
C 56.43 538.84 64.66 549.66 73.87 561.33
C 93.77 586.55 94.73 588.06 93.57 592.71
C 92.52 596.88 87.44 599.65 83.92 597.95
C 81.65 596.85 68.83 582.13 52.90 562.31
C 47.32 555.39 45.57 553.93 44.34 555.23
C 43.49 556.13 36.37 566.21 28.51 577.64
C 20.65 589.07 13.30 598.78 12.16 599.20
C 8.43 600.64 5.19 600.04 2.58 597.42
M 25.43 570.14
C 33.77 558.05 41.87 547.57 43.44 546.85
C 47.38 545.05 49.64 546.88 60.54 560.73
C 83.58 590.03 85.53 592.29 86.75 591.06
C 87.56 590.25 87.55 589.22 86.70 588.14
C 85.99 587.23 78.28 577.52 69.55 566.55
C 60.85 555.59 52.64 544.87 51.34 542.73
C 49.06 539.01 48.97 531.68 48.95 366.63
L 48.95 194.42
L 45.73 194.42
L 42.51 194.42
L 42.51 366.03
L 42.51 537.64
L 36.34 546.61
C 12.54 581.18 6.26 590.95 7.03 592.18
C 7.51 592.97 8.44 593.28 9.10 592.87
C 9.74 592.47 17.10 582.24 25.43 570.14
M 191.34 590.48
C 193.42 588.97 193.81 586.91 193.93 576.64
C 194.07 564.91 194.34 563.90 203.81 538.84
C 213.97 511.97 220.31 493.09 232.52 453.32
C 236.53 440.28 242.00 425.21 244.70 419.85
C 247.39 414.48 249.99 408.79 250.49 407.19
L 251.38 404.29
L 234.65 404.29
L 217.90 404.29
L 215.41 411.05
C 208.74 429.13 207.14 435.94 200.99 472.49
C 198.82 485.30 196.17 499.67 195.10 504.44
C 187.87 536.34 174.96 559.82 157.39 572.94
C 150.24 578.29 149.56 578.52 127.54 583.51
C 117.92 585.68 114.01 587.11 114.01 588.46
C 114.01 589.89 115.55 590.28 120.45 590.10
C 124.00 589.96 135.88 589.48 146.86 589.03
C 162.20 588.41 168.78 588.66 175.21 590.12
C 186.11 592.58 188.39 592.64 191.34 590.48
M 302.04 589.03
C 316.00 587.07 320.54 587.16 343.38 589.87
C 356.74 591.45 362.69 589.93 366.62 583.93
C 368.79 580.62 368.72 580.09 363.95 565.13
C 359.08 549.80 359.07 549.67 360.22 536.56
C 362.90 505.84 360.23 486.90 345.60 432.62
L 338.14 404.94
L 323.01 404.58
C 314.70 404.37 307.90 404.68 307.90 405.24
C 307.90 407.24 313.30 425.82 322.14 454.18
C 343.10 521.58 347.01 549.30 337.87 565.49
C 331.63 576.52 327.11 579.31 312.24 581.34
C 298.33 583.22 288.07 585.14 284.07 586.60
C 277.21 589.07 277.09 593.02 283.89 591.76
C 286.12 591.33 294.28 590.11 302.04 589.03
M 334.94 395.95
C 336.20 394.43 335.95 390.19 333.65 375.03
C 329.80 349.49 330.43 341.48 337.97 320.39
C 345.02 300.64 345.92 295.26 343.97 284.50
C 342.56 276.62 332.76 244.64 331.77 244.64
C 330.70 244.64 269.61 253.78 266.46 254.41
C 263.30 255.04 262.89 255.86 261.47 264.35
C 258.96 279.40 254.31 293.81 242.26 323.82
C 229.33 356.05 225.21 368.41 222.32 383.64
C 220.80 391.65 220.65 394.79 221.74 396.10
C 223.99 398.83 332.66 398.68 334.94 395.95
M 421.82 328.92
C 421.36 326.45 418.47 319.55 415.41 313.61
C 408.83 300.81 407.11 289.71 407.09 259.82
C 407.07 237.41 405.21 215.12 402.38 203.63
C 396.57 179.96 382.42 160.29 353.75 136.07
C 336.45 121.44 327.53 118.45 301.20 118.45
C 292.65 118.45 284.67 117.84 283.23 117.06
C 279.79 115.22 275.76 106.13 275.72 100.13
C 275.69 95.87 275.14 95.05 270.77 92.82
C 264.37 89.56 257.10 81.44 255.07 75.28
C 254.04 72.15 253.70 66.75 254.15 60.24
C 254.78 50.96 254.59 49.79 251.89 46.64
L 248.91 43.20
L 243.10 48.55
L 237.29 53.91
L 215.60 53.78
C 203.58 53.72 192.47 54.24 190.72 54.97
C 187.90 56.12 187.36 57.50 185.99 67.08
C 184.16 79.84 184.78 81.12 192.75 81.12
C 198.95 81.12 203.55 84.37 203.55 88.76
C 203.55 92.05 205.77 93.32 208.10 91.38
C 210.15 89.69 213.86 90.54 213.86 92.70
C 213.86 93.46 211.79 95.29 209.27 96.79
C 206.74 98.28 205.15 99.97 205.73 100.53
C 206.29 101.11 210.83 101.97 215.79 102.46
C 227.52 103.61 232.54 105.75 235.72 110.97
C 241.62 120.63 238.23 126.88 223.31 133.85
C 217.18 136.73 209.76 141.05 206.82 143.46
C 198.72 150.09 186.13 170.02 171.34 199.65
C 163.82 214.74 160.89 217.60 153.02 217.60
C 145.32 217.60 143.43 216.62 103.71 192.10
L 72.79 173.02
L 67.60 162.98
C 61.82 151.82 59.34 149.29 50.78 146.03
C 44.10 143.47 35.43 144.63 35.43 148.07
C 35.43 149.54 37.64 150.17 44.72 150.72
C 51.03 151.21 54.83 152.18 56.54 153.73
C 63.04 159.61 64.97 171.73 61.00 181.65
C 58.53 187.83 59.13 188.58 67.69 189.85
C 74.75 190.92 80.72 194.88 101.77 212.50
C 125.93 232.70 144.57 244.65 154.99 246.61
C 162.02 247.92 171.34 242.83 184.61 230.42
C 198.98 216.99 206.37 207.50 217.06 188.85
C 230.84 164.78 234.07 165.00 246.59 190.84
C 256.20 210.70 261.17 225.64 262.35 238.25
C 263.09 246.28 263.47 247.21 265.93 247.21
C 270.37 247.21 327.39 238.45 328.20 237.66
C 328.60 237.24 326.84 230.11 324.28 221.78
C 321.71 213.46 319.01 203.21 318.27 199.02
C 316.48 188.87 316.67 165.31 318.61 159.66
C 321.36 151.56 324.33 152.59 346.63 169.36
C 370.72 187.49 377.16 193.56 378.69 199.55
C 379.34 202.04 380.78 211.48 381.91 220.52
C 383.06 229.56 386.86 248.68 390.38 263.01
C 397.28 291.09 397.90 297.03 394.76 304.57
C 392.10 310.89 391.67 325.89 394.04 328.75
C 397.01 332.34 397.95 329.94 397.19 320.74
C 396.54 312.90 396.75 311.63 399.20 309.18
C 402.64 305.74 403.78 305.74 407.01 309.22
C 410.04 312.46 416.12 327.67 416.12 331.98
C 416.12 333.61 416.77 336.15 417.57 337.65
C 419.02 340.34 419.05 340.33 420.85 336.90
C 422.02 334.66 422.37 331.82 421.82 328.92
M 49.33 185.39
C 59.31 177.54 57.91 159.68 47.14 157.66
C 41.59 156.62 37.75 157.82 35.97 161.14
C 33.77 165.24 36.92 181.22 40.67 184.97
C 44.34 188.64 45.14 188.68 49.33 185.39
M 48.95 75.48
C 48.95 25.36 48.62 12.91 47.25 11.78
C 42.81 8.09 42.51 12.00 42.51 75.58
L 42.51 137.77
L 45.73 137.77
L 48.95 137.77
L 48.95 75.48"/>
<path fill="#000000" stroke="none" d="
M 197.92 69.44
C 193.78 66.18 193.58 62.61 197.39 59.95
C 203.30 55.80 213.86 59.06 213.86 65.02
C 213.86 68.42 208.95 72.10 204.41 72.10
C 202.71 72.10 199.79 70.91 197.92 69.44
M 209.02 67.74
C 211.96 65.51 211.88 63.50 208.79 61.85
C 205.26 59.96 204.26 60.19 206.15 62.47
C 207.48 64.07 207.35 64.89 205.46 66.98
C 203.70 68.92 203.58 69.52 204.97 69.49
C 205.96 69.46 207.79 68.68 209.02 67.74"/>
<path fill="#c57a36" stroke="none" d="
M 7.03 592.18
C 6.26 590.95 12.54 581.18 36.34 546.61
L 42.51 537.64
L 42.51 366.03
L 42.51 194.42
L 45.73 194.42
L 48.95 194.42
L 48.95 366.63
C 48.97 531.68 49.06 539.01 51.34 542.73
C 52.64 544.87 60.85 555.59 69.55 566.55
C 78.28 577.52 85.99 587.23 86.70 588.14
C 87.55 589.22 87.56 590.25 86.75 591.06
C 85.53 592.29 83.58 590.03 60.54 560.73
C 49.64 546.88 47.38 545.05 43.44 546.85
C 41.87 547.57 33.77 558.05 25.43 570.14
C 17.10 582.24 9.74 592.47 9.10 592.87
C 8.44 593.28 7.51 592.97 7.03 592.18"/>
<path fill="#c57a36" stroke="none" d="
M 42.82 75.00
C 43.16 13.20 43.20 12.23 45.73 12.23
C 48.27 12.23 48.31 13.20 48.65 75.00
L 48.98 137.77
L 45.73 137.77
L 42.49 137.77
L 42.82 75.00"/>
<path fill="#ae3c2a" stroke="none" d="
M 175.21 590.12
C 168.78 588.66 162.20 588.41 146.86 589.03
C 135.88 589.48 124.00 589.96 120.45 590.10
C 115.55 590.28 114.01 589.89 114.01 588.46
C 114.01 587.11 117.92 585.68 127.54 583.51
C 149.56 578.52 150.24 578.29 157.39 572.94
C 174.96 559.82 187.87 536.34 195.10 504.44
C 196.17 499.67 198.82 485.30 200.99 472.49
C 207.14 435.94 208.74 429.13 215.41 411.05
L 217.90 404.29
L 234.65 404.29
L 251.38 404.29
L 250.49 407.19
C 249.99 408.79 247.39 414.48 244.70 419.85
C 242.00 425.21 236.53 440.28 232.52 453.32
C 220.31 493.09 213.97 511.97 203.81 538.84
C 194.34 563.90 194.07 564.91 193.93 576.64
C 193.73 593.12 192.47 594.03 175.21 590.12"/>
<path fill="#ae3c2a" stroke="none" d="
M 279.08 591.24
C 276.90 587.74 286.73 584.81 312.24 581.34
C 327.11 579.31 331.63 576.52 337.87 565.49
C 347.01 549.30 343.10 521.58 322.14 454.18
C 313.30 425.82 307.90 407.24 307.90 405.24
C 307.90 404.68 314.70 404.37 323.01 404.58
L 338.14 404.94
L 345.60 432.62
C 360.23 486.90 362.90 505.84 360.22 536.56
C 359.07 549.67 359.08 549.80 363.95 565.13
C 368.72 580.09 368.79 580.62 366.62 583.93
C 362.69 589.93 356.74 591.45 343.38 589.87
C 320.54 587.16 316.00 587.07 302.04 589.03
C 294.28 590.11 286.12 591.33 283.89 591.76
C 281.67 592.17 279.51 591.94 279.08 591.24"/>
<path fill="#ae3c2a" stroke="none" d="
M 417.57 337.65
C 416.77 336.15 416.12 333.61 416.12 331.98
C 416.12 327.67 410.04 312.46 407.01 309.22
C 403.78 305.74 402.64 305.74 399.20 309.18
C 396.75 311.63 396.54 312.90 397.19 320.74
C 397.95 329.94 397.01 332.34 394.04 328.75
C 391.67 325.89 392.10 310.89 394.76 304.57
C 397.90 297.03 397.28 291.09 390.38 263.01
C 386.86 248.68 383.06 229.56 381.91 220.52
C 380.78 211.48 379.34 202.04 378.69 199.55
C 377.16 193.56 370.72 187.49 346.63 169.36
C 324.33 152.59 321.36 151.56 318.61 159.66
C 316.67 165.31 316.48 188.87 318.27 199.02
C 319.01 203.21 321.71 213.46 324.28 221.78
C 326.84 230.11 328.60 237.24 328.20 237.66
C 327.39 238.45 270.37 247.21 265.93 247.21
C 263.47 247.21 263.09 246.28 262.35 238.25
C 261.17 225.64 256.20 210.70 246.59 190.84
C 234.07 165.00 230.84 164.78 217.06 188.85
C 206.37 207.50 198.98 216.99 184.61 230.42
C 171.34 242.83 162.02 247.92 154.99 246.61
C 144.57 244.65 125.93 232.70 101.77 212.50
C 80.72 194.88 74.75 190.92 67.69 189.85
C 59.13 188.58 58.53 187.83 61.00 181.65
C 64.97 171.73 63.04 159.61 56.54 153.73
C 54.83 152.18 51.03 151.21 44.72 150.72
C 37.64 150.17 35.43 149.54 35.43 148.07
C 35.43 144.63 44.10 143.47 50.78 146.03
C 59.34 149.29 61.82 151.82 67.60 162.98
L 72.79 173.02
L 103.71 192.10
C 143.43 216.62 145.32 217.60 153.02 217.60
C 160.89 217.60 163.82 214.74 171.34 199.65
C 186.13 170.02 198.72 150.09 206.82 143.46
C 209.76 141.05 217.18 136.73 223.31 133.85
C 238.23 126.88 241.62 120.63 235.72 110.97
C 232.54 105.75 227.52 103.61 215.79 102.46
C 210.83 101.97 206.29 101.11 205.73 100.53
C 205.15 99.97 206.74 98.28 209.27 96.79
C 211.79 95.29 213.86 93.46 213.86 92.70
C 213.86 90.54 210.15 89.69 208.10 91.38
C 205.77 93.32 203.55 92.05 203.55 88.76
C 203.55 84.37 198.95 81.12 192.75 81.12
C 184.78 81.12 184.16 79.84 185.99 67.08
C 187.36 57.50 187.90 56.12 190.72 54.97
C 192.47 54.24 203.54 53.72 215.49 53.78
L 237.10 53.90
L 243.13 48.68
L 249.15 43.47
L 252.00 46.78
C 254.58 49.76 254.78 51.06 254.15 60.24
C 253.70 66.75 254.04 72.15 255.07 75.28
C 257.10 81.44 264.37 89.56 270.77 92.82
C 275.14 95.05 275.69 95.87 275.72 100.13
C 275.76 106.13 279.79 115.22 283.23 117.06
C 284.67 117.84 292.65 118.45 301.20 118.45
C 327.53 118.45 336.45 121.44 353.75 136.07
C 382.42 160.29 396.57 179.96 402.38 203.63
C 405.21 215.12 407.07 237.41 407.09 259.82
C 407.11 289.71 408.83 300.81 415.41 313.61
C 422.07 326.54 423.37 332.10 420.85 336.90
C 419.05 340.33 419.02 340.34 417.57 337.65
M 210.69 70.02
C 217.03 65.87 212.57 57.94 203.88 57.94
C 199.30 57.94 194.53 61.21 194.53 64.35
C 194.53 67.47 200.43 72.10 204.41 72.10
C 206.11 72.10 208.93 71.16 210.69 70.02"/>
<path fill="#ae3c2a" stroke="none" d="
M 40.67 184.97
C 36.92 181.22 33.77 165.24 35.97 161.14
C 37.75 157.82 41.59 156.62 47.14 157.66
C 57.91 159.68 59.31 177.54 49.33 185.39
C 45.14 188.68 44.34 188.64 40.67 184.97"/>
<path fill="#fefefe" stroke="none" d="
M 221.74 396.10
C 220.65 394.79 220.80 391.65 222.32 383.64
C 225.21 368.41 229.33 356.05 242.26 323.82
C 254.31 293.81 258.96 279.40 261.47 264.35
C 262.89 255.86 263.30 255.04 266.46 254.41
C 269.61 253.78 330.70 244.64 331.77 244.64
C 332.76 244.64 342.56 276.62 343.97 284.50
C 345.92 295.26 345.02 300.64 337.97 320.39
C 330.43 341.48 329.80 349.49 333.65 375.03
C 335.95 390.19 336.20 394.43 334.94 395.95
C 332.66 398.68 223.99 398.83 221.74 396.10"/>
<path fill="#fefefe" stroke="none" d="
M 205.31 67.13
C 206.62 65.70 207.13 63.85 206.60 62.48
C 205.84 60.50 206.09 60.41 208.51 61.70
C 210.03 62.51 211.28 63.82 211.28 64.60
C 211.28 66.40 207.35 69.44 204.97 69.49
C 203.54 69.52 203.61 69.01 205.31 67.13"/>
</g>
</svg>
