<?xml version="1.0" encoding="UTF-8" standalone="no"?>
<!DOCTYPE svg PUBLIC "-//W3C//DTD SVG 1.1//EN"
"http://www.w3.org/Graphics/SVG/1.1/DTD/svg11.dtd">
<svg width="511px" height="600px"
xmlns="http://www.w3.org/2000/svg" version="1.1">
<g transform="translate(0000, 0000) scale(1.0000, 1.0000)">
<path fill="#000000" stroke="none" d="
M 225.86 597.46
C 219.67 591.26 222.19 581.77 230.66 579.42
C 233.32 578.68 236.94 578.06 238.72 578.05
C 246.05 578.00 266.91 572.72 274.43 569.02
C 289.17 561.77 292.51 555.30 301.39 516.77
C 304.51 503.29 308.54 486.15 310.37 478.71
C 312.57 469.66 313.84 460.44 314.15 450.97
C 314.67 435.32 314.86 434.54 323.14 413.05
C 326.58 404.13 329.76 392.97 331.01 385.47
C 332.18 378.54 335.69 363.23 338.83 351.45
C 347.39 319.39 350.00 305.46 350.18 290.93
C 350.34 278.31 350.23 277.79 345.83 270.44
C 339.11 259.19 324.72 245.55 299.63 226.62
C 271.80 205.61 267.29 202.58 263.89 202.58
C 262.40 202.58 258.03 204.55 254.16 206.98
C 195.15 243.83 173.57 251.45 143.88 245.86
C 137.49 244.66 121.84 240.23 109.10 236.04
C 86.32 228.53 72.82 225.81 58.34 225.81
C 51.81 225.81 51.49 225.96 52.35 228.66
C 55.62 238.94 60.65 260.41 60.65 264.04
C 60.65 269.69 56.82 273.55 51.22 273.55
C 43.87 273.55 42.80 271.73 37.27 249.64
C 33.01 232.66 31.45 228.35 28.39 225.16
C 20.69 217.11 14.75 200.04 17.91 195.05
C 18.63 193.90 17.98 192.28 15.95 190.27
C 12.01 186.32 12.09 182.57 16.19 178.77
L 19.47 175.73
L 16.90 165.60
C 14.65 156.72 7.51 123.29 1.66 94.19
C -1.82 76.84 1.02 59.30 8.58 51.41
C 20.22 39.26 61.26 32.85 68.03 42.12
C 70.66 45.70 70.15 57.60 67.24 60.50
C 63.97 63.78 55.72 65.02 49.10 63.24
C 44.75 62.08 42.35 62.19 36.51 63.90
C 23.64 67.64 18.13 76.80 20.45 90.57
C 21.78 98.44 35.42 159.52 37.46 166.76
C 38.62 170.85 39.81 172.01 45.24 174.35
C 49.27 176.09 54.11 179.78 58.20 184.26
C 70.15 197.33 68.86 196.85 100.65 200.00
C 108.11 200.75 125.01 203.16 138.23 205.39
C 162.05 209.39 162.33 209.42 169.20 207.17
C 181.65 203.14 204.95 187.47 233.56 163.95
C 241.72 157.23 251.89 149.25 256.15 146.22
C 271.51 135.26 273.67 132.36 270.29 127.21
C 267.47 122.92 262.33 121.38 253.37 122.19
C 238.31 123.54 232.60 119.95 230.39 107.74
C 229.07 100.41 227.74 99.35 219.86 99.35
C 214.63 99.35 212.27 98.71 210.34 96.77
C 207.06 93.50 207.10 92.85 210.93 84.74
C 216.13 73.74 217.92 67.61 220.70 51.41
C 224.16 31.10 227.15 23.43 234.35 16.34
C 246.12 4.74 262.31 -0.89 280.57 0.27
C 297.95 1.39 312.69 11.55 320.96 28.10
C 326.41 38.98 328.14 48.32 327.54 63.37
C 327.05 75.61 326.86 76.27 320.23 89.01
C 316.47 96.21 313.59 103.30 313.81 104.79
C 314.03 106.27 315.66 108.55 317.44 109.86
C 320.59 112.17 320.87 112.15 329.05 109.47
C 351.57 102.06 383.42 108.52 423.90 128.66
C 469.87 151.54 498.51 182.23 505.15 215.75
C 507.53 227.69 507.72 253.19 505.68 281.29
C 504.23 301.23 504.24 301.33 507.75 314.19
C 510.85 325.48 511.21 328.80 510.72 340.65
C 509.89 360.35 504.39 369.60 494.92 367.23
C 489.39 365.83 488.33 361.51 490.79 350.30
C 491.97 344.95 492.93 338.41 492.93 335.77
L 492.92 330.97
L 490.44 335.05
C 487.54 339.79 483.79 341.37 480.09 339.39
C 476.24 337.33 475.62 332.59 477.91 322.86
C 483.11 300.86 483.35 304.94 475.02 272.00
C 469.53 250.28 467.05 237.69 466.09 226.63
C 464.82 211.79 464.64 211.19 460.47 206.86
C 454.44 200.61 440.96 192.45 421.32 183.19
C 412.09 178.83 401.16 173.21 397.02 170.70
C 386.21 164.14 385.46 166.44 394.36 178.83
C 398.39 184.44 407.65 198.04 414.94 209.06
C 422.83 220.95 434.03 235.60 442.58 245.19
C 467.89 273.54 470.43 283.47 463.91 328.39
C 460.17 354.14 460.03 359.20 462.60 376.25
C 463.67 383.28 464.53 393.21 464.53 398.32
C 464.55 412.18 467.69 433.63 474.22 464.35
C 482.71 504.39 483.86 512.58 485.15 542.58
C 485.80 557.48 486.93 571.70 487.70 574.18
C 492.35 589.51 484.83 601.45 471.80 599.41
C 468.87 598.95 464.74 598.65 462.61 598.71
C 434.84 599.69 407.32 600.00 402.98 599.35
C 400.00 598.93 396.27 597.52 394.68 596.25
C 392.05 594.12 391.96 593.59 393.52 589.82
C 396.15 583.46 403.60 580.03 423.03 576.23
C 448.40 571.26 452.93 568.50 452.93 558.01
C 452.93 549.46 443.49 515.70 429.11 472.90
C 419.33 443.78 413.26 422.25 411.02 408.67
L 410.22 403.79
L 395.95 404.15
L 381.69 404.52
L 378.77 412.26
C 377.17 416.52 372.86 425.96 369.21 433.25
C 361.86 447.90 356.18 463.92 337.32 523.23
C 324.67 563.05 324.60 563.29 324.52 576.77
C 324.42 592.04 323.80 594.15 318.64 596.83
C 314.26 599.08 310.20 599.20 302.57 597.28
C 297.97 596.12 295.76 596.25 290.81 597.92
C 285.94 599.59 279.05 600.00 256.56 600.00
C 230.25 600.00 228.23 599.83 225.86 597.46
M 287.27 591.46
C 292.11 589.45 302.02 589.52 309.13 591.64
C 310.78 592.13 312.91 591.51 314.77 590.01
C 317.53 587.77 317.77 586.53 317.98 573.47
L 318.21 559.35
L 331.94 516.13
C 350.81 456.77 353.80 448.36 363.24 428.39
C 367.77 418.80 371.86 409.37 372.33 407.42
L 373.21 403.87
L 353.87 403.87
L 334.52 403.87
L 327.70 421.61
C 321.53 437.68 320.90 440.27 321.03 449.03
C 321.21 461.25 320.10 467.85 312.20 501.29
C 308.68 516.19 304.65 533.25 303.24 539.20
C 296.15 569.33 284.84 578.22 246.54 583.78
C 232.16 585.87 227.95 587.96 230.93 591.55
C 233.42 594.55 280.06 594.48 287.27 591.46
M 456.31 591.39
C 462.69 589.38 463.51 589.38 468.60 591.38
C 473.55 593.33 474.34 593.34 477.10 591.54
C 481.80 588.46 483.10 584.48 481.33 578.59
C 480.49 575.82 479.33 561.06 478.73 545.81
C 477.57 516.09 476.70 509.92 467.69 467.10
C 464.48 451.85 460.87 431.63 459.65 422.19
L 457.45 405.03
L 437.27 404.52
L 417.08 404.01
L 419.51 415.08
C 423.12 431.63 426.43 442.77 436.21 471.45
C 441.09 485.73 448.12 507.87 451.85 520.65
C 458.03 541.87 458.62 545.02 458.67 557.21
C 458.74 570.34 458.67 570.61 455.11 573.46
C 450.63 577.02 442.31 579.64 424.01 583.20
C 392.23 589.39 393.88 593.33 428.30 593.47
C 444.67 593.54 451.03 593.06 456.31 591.39
M 452.62 397.33
C 457.86 395.51 458.43 392.48 456.16 378.59
C 453.49 362.36 453.77 350.92 457.46 326.03
C 461.20 300.70 461.38 294.89 458.69 284.46
C 455.94 273.83 450.21 264.86 437.98 251.97
C 428.84 242.35 427.15 241.11 424.43 241.95
C 422.72 242.48 406.86 250.25 389.19 259.20
L 357.07 275.48
L 356.71 290.97
C 356.28 309.79 354.72 318.39 344.64 357.70
C 340.33 374.54 336.80 390.36 336.80 392.85
L 336.80 397.39
L 385.51 397.74
C 412.30 397.94 437.47 398.23 441.45 398.40
C 445.42 398.57 450.45 398.09 452.62 397.33
M 503.88 338.06
C 503.89 328.95 503.10 322.98 500.81 314.84
C 497.75 304.03 497.72 303.54 499.22 280.65
C 502.25 233.92 500.77 216.83 492.22 199.81
C 475.91 167.33 434.16 136.63 383.87 120.14
C 357.31 111.43 349.79 110.90 331.69 116.44
C 315.83 121.28 307.12 117.03 307.12 104.44
L 307.12 98.06
L 301.37 98.06
C 286.41 98.06 282.04 89.14 287.84 70.36
C 290.30 62.39 290.35 61.50 288.46 58.61
C 285.85 54.63 285.26 54.68 279.41 59.32
C 272.56 64.77 267.58 65.30 249.05 62.58
C 225.10 59.05 227.24 58.46 224.49 69.23
C 223.19 74.31 220.89 80.88 219.38 83.85
C 215.82 90.81 217.33 92.90 225.89 92.90
C 232.34 92.90 235.31 94.66 236.79 99.37
C 237.74 102.35 238.22 102.43 243.80 100.49
C 246.94 99.39 248.33 99.41 249.47 100.57
C 251.13 102.25 250.13 103.24 242.71 107.35
C 234.97 111.64 243.19 116.99 255.09 115.42
C 272.87 113.06 284.22 125.82 276.15 139.06
C 274.73 141.39 269.73 146.04 265.04 149.38
C 260.35 152.74 250.96 160.04 244.16 165.61
C 210.83 192.94 186.84 209.16 173.92 213.08
C 163.51 216.25 158.31 215.99 130.33 210.95
C 120.76 209.24 102.77 206.89 90.37 205.75
C 74.95 204.34 66.69 203.01 64.25 201.57
C 62.29 200.41 57.82 195.91 54.34 191.55
C 46.66 181.96 40.80 178.83 32.16 179.65
C 25.03 180.34 18.34 184.01 20.41 186.09
C 21.32 186.99 24.31 186.90 29.94 185.78
C 37.11 184.36 38.66 184.43 42.20 186.26
C 51.63 191.14 56.66 205.81 52.33 215.81
C 51.47 217.75 52.09 218.06 56.96 218.08
C 71.11 218.10 90.15 221.94 110.85 228.93
C 132.89 236.37 152.76 241.29 160.77 241.29
C 175.17 241.29 206.94 227.47 239.37 207.10
C 258.79 194.90 262.43 193.68 270.34 196.71
C 273.57 197.94 279.26 201.35 282.96 204.28
C 286.66 207.21 297.66 215.56 307.39 222.83
C 327.98 238.21 342.31 251.42 349.09 261.25
L 353.89 268.23
L 387.61 251.39
C 406.14 242.13 421.50 234.39 421.72 234.19
C 422.08 233.86 400.31 201.03 386.33 180.85
C 380.04 171.75 379.17 166.66 383.25 162.58
C 386.76 159.07 391.97 159.34 399.51 163.42
C 402.99 165.30 416.57 172.25 429.70 178.85
C 454.51 191.34 467.56 200.22 469.89 206.19
C 470.64 208.10 471.76 215.83 472.38 223.34
C 473.14 232.58 475.81 246.12 480.61 265.10
C 489.99 302.15 490.02 302.40 485.95 318.00
C 484.03 325.38 483.10 331.33 483.75 331.97
C 484.40 332.63 485.63 330.74 486.65 327.52
C 488.11 322.90 489.04 321.86 491.99 321.52
C 495.04 321.17 495.86 321.81 497.48 325.68
C 499.73 331.08 499.93 340.55 497.98 349.66
C 497.21 353.28 496.96 357.23 497.44 358.44
C 498.13 360.19 498.87 359.60 501.08 355.48
C 503.34 351.26 503.85 348.10 503.88 338.06
M 54.06 266.62
C 55.16 265.29 54.71 261.78 52.20 252.10
C 46.18 229.01 45.31 226.88 42.14 227.86
C 40.61 228.32 39.16 228.88 38.92 229.10
C 38.44 229.51 47.60 265.82 48.60 267.42
C 49.54 268.97 52.47 268.54 54.06 266.62
M 42.51 219.43
C 43.89 218.05 45.72 214.58 46.57 211.73
C 47.87 207.37 47.78 205.64 46.00 200.97
C 43.07 193.30 38.02 190.36 31.02 192.25
C 23.11 194.37 22.26 197.29 26.43 207.91
C 29.76 216.37 34.43 221.94 38.23 221.94
C 39.22 221.94 41.13 220.81 42.51 219.43
M 30.74 173.07
C 32.13 172.19 32.08 170.65 30.47 164.39
C 27.67 153.55 16.85 104.40 14.74 92.90
C 13.18 84.39 13.20 82.37 14.98 76.17
C 17.69 66.72 23.02 61.87 34.79 58.08
C 42.69 55.55 44.71 55.33 48.93 56.59
C 55.94 58.68 59.00 58.43 61.94 55.48
C 65.20 52.22 65.20 49.72 61.94 46.45
C 54.57 39.08 19.34 47.23 11.32 58.15
C 7.50 63.34 5.79 76.40 7.36 88.44
C 9.24 103.02 22.04 163.46 25.18 172.58
C 25.81 174.43 28.26 174.65 30.74 173.07"/>
<path fill="#000000" stroke="none" d="
M 233.86 80.99
C 230.63 79.45 229.02 75.11 230.25 71.25
C 231.81 66.34 242.67 64.13 249.67 67.32
C 255.60 70.03 255.58 78.37 249.60 81.10
C 245.58 82.93 237.77 82.88 233.86 80.99
M 246.98 78.53
C 252.49 76.03 252.38 72.77 246.67 69.77
C 243.10 67.88 241.71 68.63 244.51 70.94
C 247.02 73.03 246.98 74.71 244.34 77.64
C 241.86 80.37 242.49 80.58 246.98 78.53"/>
<path fill="#c57a36" stroke="none" d="
M 48.60 267.42
C 47.60 265.82 38.44 229.51 38.92 229.10
C 39.16 228.88 40.61 228.32 42.14 227.86
C 45.31 226.88 46.18 229.01 52.20 252.10
C 54.71 261.78 55.16 265.29 54.06 266.62
C 52.47 268.54 49.54 268.97 48.60 267.42"/>
<path fill="#c57a36" stroke="none" d="
M 25.18 172.58
C 22.04 163.46 9.24 103.02 7.36 88.44
C 5.85 76.85 7.39 63.97 10.93 58.58
C 15.79 51.16 30.84 45.21 47.24 44.22
C 58.06 43.57 59.23 43.74 61.76 46.27
C 65.20 49.72 65.26 52.17 61.94 55.48
C 59.00 58.43 55.94 58.68 48.93 56.59
C 44.71 55.33 42.69 55.55 34.79 58.08
C 23.02 61.87 17.69 66.72 14.98 76.17
C 13.20 82.37 13.18 84.39 14.74 92.90
C 16.85 104.40 27.67 153.55 30.47 164.39
C 32.08 170.65 32.13 172.19 30.74 173.07
C 28.26 174.65 25.81 174.43 25.18 172.58"/>
<path fill="#ae3c2a" stroke="none" d="
M 230.93 591.55
C 227.95 587.96 232.16 585.87 246.54 583.78
C 284.84 578.22 296.15 569.33 303.24 539.20
C 304.65 533.25 308.68 516.19 312.20 501.29
C 320.10 467.85 321.21 461.25 321.03 449.03
C 320.90 440.27 321.53 437.68 327.70 421.61
L 334.52 403.87
L 353.87 403.87
L 373.21 403.87
L 372.33 407.42
C 371.86 409.37 367.77 418.80 363.24 428.39
C 353.80 448.36 350.81 456.77 331.94 516.13
L 318.21 559.35
L 317.98 573.47
C 317.77 586.53 317.53 587.77 314.77 590.01
C 312.91 591.51 310.78 592.13 309.13 591.64
C 302.02 589.52 292.11 589.45 287.27 591.46
C 280.06 594.48 233.42 594.55 230.93 591.55"/>
<path fill="#ae3c2a" stroke="none" d="
M 404.22 592.22
C 402.62 591.57 401.32 590.71 401.32 590.30
C 401.32 588.71 410.52 585.83 424.01 583.20
C 442.31 579.64 450.63 577.02 455.11 573.46
C 458.67 570.61 458.74 570.34 458.67 557.21
C 458.62 545.02 458.03 541.87 451.85 520.65
C 448.12 507.87 441.09 485.73 436.21 471.45
C 426.43 442.77 423.12 431.63 419.51 415.08
L 417.08 404.01
L 437.27 404.52
L 457.45 405.03
L 459.65 422.19
C 460.87 431.63 464.48 451.85 467.69 467.10
C 476.70 509.92 477.57 516.09 478.73 545.81
C 479.33 561.06 480.49 575.82 481.33 578.59
C 483.10 584.48 481.80 588.46 477.10 591.54
C 474.34 593.34 473.55 593.33 468.60 591.38
C 463.51 589.38 462.69 589.38 456.31 591.39
C 451.03 593.06 444.67 593.54 428.30 593.47
C 416.66 593.42 405.82 592.86 404.22 592.22"/>
<path fill="#ae3c2a" stroke="none" d="
M 497.44 358.44
C 496.96 357.23 497.21 353.28 497.98 349.66
C 499.93 340.55 499.73 331.08 497.48 325.68
C 495.86 321.81 495.04 321.17 491.99 321.52
C 489.04 321.86 488.11 322.90 486.65 327.52
C 485.63 330.74 484.40 332.63 483.75 331.97
C 483.10 331.33 484.03 325.38 485.95 318.00
C 490.02 302.40 489.99 302.15 480.61 265.10
C 475.81 246.12 473.14 232.58 472.38 223.34
C 471.76 215.83 470.64 208.10 469.89 206.19
C 467.56 200.22 454.51 191.34 429.70 178.85
C 416.57 172.25 402.99 165.30 399.51 163.42
C 391.97 159.34 386.76 159.07 383.25 162.58
C 379.17 166.66 380.04 171.75 386.33 180.85
C 400.31 201.03 422.08 233.86 421.72 234.19
C 421.50 234.39 406.14 242.13 387.61 251.39
L 353.89 268.23
L 349.09 261.25
C 342.31 251.42 327.98 238.21 307.39 222.83
C 297.66 215.56 286.66 207.21 282.96 204.28
C 279.26 201.35 273.57 197.94 270.34 196.71
C 262.43 193.68 258.79 194.90 239.37 207.10
C 206.94 227.47 175.17 241.29 160.77 241.29
C 152.76 241.29 132.89 236.37 110.85 228.93
C 90.15 221.94 71.11 218.10 56.96 218.08
C 52.09 218.06 51.47 217.75 52.33 215.81
C 56.66 205.81 51.63 191.14 42.20 186.26
C 38.66 184.43 37.11 184.36 29.94 185.78
C 24.31 186.90 21.32 186.99 20.41 186.09
C 18.34 184.01 25.03 180.34 32.16 179.65
C 40.80 178.83 46.66 181.96 54.34 191.55
C 57.82 195.91 62.29 200.41 64.25 201.57
C 66.69 203.01 74.95 204.34 90.37 205.75
C 102.77 206.89 120.76 209.24 130.33 210.95
C 158.31 215.99 163.51 216.25 173.92 213.08
C 186.84 209.16 210.83 192.94 244.16 165.61
C 250.96 160.04 260.35 152.74 265.04 149.38
C 269.73 146.04 274.73 141.39 276.15 139.06
C 284.22 125.82 272.87 113.06 255.09 115.42
C 243.19 116.99 234.97 111.64 242.71 107.35
C 250.13 103.24 251.13 102.25 249.47 100.57
C 248.33 99.41 246.94 99.39 243.80 100.49
C 238.22 102.43 237.74 102.35 236.79 99.37
C 235.31 94.66 232.34 92.90 225.89 92.90
C 217.33 92.90 215.82 90.81 219.38 83.85
C 220.89 80.88 223.19 74.31 224.49 69.23
C 227.24 58.46 225.10 59.05 249.05 62.58
C 266.91 65.21 272.84 64.72 278.37 60.17
C 284.04 55.50 286.20 55.16 288.48 58.65
C 290.34 61.48 290.29 62.44 287.84 70.36
C 282.04 89.14 286.41 98.06 301.37 98.06
L 307.12 98.06
L 307.12 104.44
C 307.12 117.03 315.83 121.28 331.69 116.44
C 349.79 110.90 357.31 111.43 383.87 120.14
C 434.16 136.63 475.91 167.33 492.22 199.81
C 500.77 216.83 502.25 233.92 499.22 280.65
C 497.72 303.54 497.75 304.03 500.81 314.84
C 505.01 329.73 505.13 347.92 501.08 355.48
C 498.87 359.60 498.13 360.19 497.44 358.44
M 249.60 81.10
C 255.58 78.37 255.60 70.03 249.67 67.32
C 242.67 64.13 231.81 66.34 230.25 71.25
C 229.02 75.11 230.63 79.45 233.86 80.99
C 237.77 82.88 245.58 82.93 249.60 81.10"/>
<path fill="#ae3c2a" stroke="none" d="
M 33.19 219.35
C 31.37 217.91 28.36 212.83 26.43 207.91
C 22.26 197.29 23.11 194.37 31.02 192.25
C 38.02 190.36 43.07 193.30 46.00 200.97
C 47.78 205.64 47.87 207.37 46.57 211.73
C 44.91 217.29 41.11 221.94 38.23 221.94
C 37.27 221.94 35.00 220.77 33.19 219.35"/>
<path fill="#fefefe" stroke="none" d="
M 385.51 397.74
L 336.80 397.39
L 336.80 392.85
C 336.80 390.36 340.33 374.54 344.64 357.70
C 354.72 318.39 356.28 309.79 356.71 290.97
L 357.07 275.48
L 389.19 259.20
C 406.86 250.25 422.72 242.48 424.43 241.95
C 427.15 241.11 428.84 242.35 437.98 251.97
C 450.21 264.86 455.94 273.83 458.69 284.46
C 461.38 294.89 461.20 300.70 457.46 326.03
C 453.77 350.92 453.49 362.36 456.16 378.59
C 457.19 384.92 457.71 391.42 457.31 393.03
C 456.34 396.85 450.62 398.79 441.45 398.40
C 437.47 398.23 412.30 397.94 385.51 397.74"/>
<path fill="#fefefe" stroke="none" d="
M 244.60 77.34
C 246.57 75.16 246.73 74.26 245.45 72.21
C 243.20 68.62 243.50 68.09 246.79 69.82
C 252.38 72.77 252.45 76.04 246.98 78.53
C 242.39 80.63 241.86 80.36 244.60 77.34"/>
</g>
</svg>
