<?xml version="1.0" encoding="UTF-8" standalone="no"?>
<!DOCTYPE svg PUBLIC "-//W3C//DTD SVG 1.1//EN"
"http://www.w3.org/Graphics/SVG/1.1/DTD/svg11.dtd">
<svg width="471px" height="600px"
xmlns="http://www.w3.org/2000/svg" version="1.1">
<g transform="translate(0000, 0000) scale(1.0000, 1.0000)">
<path fill="#000000" stroke="none" d="
M 72.41 598.57
C 64.64 596.33 63.79 588.84 70.91 585.16
C 72.99 584.08 81.20 581.77 89.16 580.01
C 97.10 578.26 106.08 575.88 109.12 574.73
C 116.87 571.77 124.83 562.52 128.33 552.35
C 134.16 535.44 162.77 419.91 167.44 394.43
C 170.02 380.30 175.47 360.36 187.16 322.14
C 191.01 309.58 194.78 294.84 195.57 289.37
C 196.34 283.91 198.22 275.45 199.74 270.55
C 202.26 262.45 202.38 260.78 201.00 251.41
C 200.18 245.77 197.23 234.73 194.44 226.90
C 180.25 186.98 177.90 180.85 175.92 178.54
C 172.73 174.82 160.31 175.25 137.05 179.85
C 115.05 184.21 109.08 184.51 98.61 181.79
C 78.72 176.61 65.86 159.07 50.15 115.63
C 38.90 84.51 32.02 72.42 16.92 57.22
C 8.25 48.48 6.43 45.94 6.43 42.60
C 6.43 38.03 10.27 33.40 14.05 33.40
C 15.40 33.40 18.36 35.74 20.64 38.61
C 22.91 41.46 25.02 43.54 25.34 43.22
C 26.61 41.95 18.49 30.99 10.14 22.72
C -0.48 12.19 -1.88 8.54 3.09 4.28
C 7.71 0.32 10.39 0.50 19.53 5.37
C 32.06 12.03 40.37 23.97 44.96 41.86
C 46.74 48.77 55.00 62.31 75.49 91.91
C 84.77 105.31 94.88 120.84 97.97 126.40
C 106.41 141.61 105.70 141.39 129.76 135.62
C 147.31 131.41 152.84 130.65 172.51 129.80
C 186.39 129.21 196.31 128.21 198.24 127.21
C 204.22 124.11 205.90 121.81 205.90 116.72
C 205.90 110.33 202.35 106.64 196.21 106.64
C 193.71 106.64 189.71 105.83 187.34 104.84
C 182.38 102.76 180.83 99.08 179.47 86.08
C 178.45 76.46 177.31 74.52 172.57 74.52
C 168.16 74.52 163.43 71.19 163.43 68.07
C 163.43 66.73 168.85 59.40 175.48 51.76
C 182.11 44.15 189.39 34.59 191.67 30.55
C 195.92 23.01 206.51 12.36 215.22 6.87
C 217.91 5.18 223.71 2.87 228.11 1.75
C 255.51 -5.27 282.28 14.42 284.12 42.91
C 284.95 56.03 282.95 63.65 273.37 83.74
C 263.67 104.11 261.21 113.22 263.75 119.33
C 265.60 123.82 266.50 124.12 280.54 125.25
C 298.48 126.69 323.57 131.29 337.81 135.75
C 358.17 142.12 361.43 142.39 366.48 138.15
C 368.74 136.25 373.88 129.39 377.89 122.92
C 381.91 116.44 390.24 104.47 396.40 96.31
C 411.64 76.16 419.02 64.86 427.89 48.18
C 443.90 18.01 454.63 6.87 465.17 9.51
C 469.15 10.51 471.46 14.66 470.41 18.89
C 469.96 20.67 466.80 25.09 463.38 28.73
C 453.07 39.70 450.32 47.95 458.85 42.33
C 463.63 39.19 465.22 39.20 468.43 42.40
C 474.31 48.27 469.89 55.86 456.66 62.67
C 452.16 64.99 445.83 68.83 442.57 71.20
C 436.70 75.51 436.64 75.61 429.23 98.47
C 415.65 140.30 406.67 159.38 395.90 169.30
C 385.59 178.78 374.74 180.28 332.58 178.09
C 306.29 176.72 303.68 177.31 295.46 186.45
C 285.60 197.40 280.13 217.34 281.40 237.69
C 281.94 246.26 283.14 251.24 286.96 260.81
C 292.10 273.70 295.02 284.31 297.21 298.07
C 299.08 309.84 298.78 317.97 296.07 327.62
C 294.80 332.21 292.43 340.88 290.82 346.90
L 287.89 357.82
L 290.10 378.37
C 291.31 389.68 294.27 408.76 296.67 420.77
C 302.22 448.68 306.65 478.02 311.40 518.42
C 314.36 543.65 316.02 553.08 319.10 562.42
C 326.43 584.67 323.05 597.55 309.91 597.38
C 307.55 597.35 303.65 596.26 301.22 594.98
C 296.94 592.70 296.64 592.70 291.57 595.00
C 287.00 597.07 282.78 597.38 258.63 597.40
C 235.60 597.43 230.44 597.10 228.06 595.43
C 224.99 593.28 224.42 589.73 226.52 585.82
C 228.55 582.04 231.69 580.90 243.90 579.51
C 261.15 577.55 276.19 569.67 281.30 559.91
C 282.30 558.00 283.11 553.53 283.11 549.98
C 283.11 541.64 274.02 506.29 263.25 472.81
C 255.45 448.55 249.85 427.94 247.79 415.95
L 246.97 411.13
L 230.44 411.13
L 213.93 411.13
L 212.55 416.61
C 211.80 419.61 207.90 428.71 203.89 436.84
C 194.09 456.77 194.18 456.53 175.21 514.77
C 162.17 554.76 158.21 568.59 157.08 578.00
C 156.28 584.65 155.04 591.13 154.35 592.43
C 152.19 596.47 148.13 597.78 140.41 596.94
C 136.19 596.48 128.39 596.96 121.61 598.07
C 108.90 600.18 79.03 600.48 72.41 598.57
M 120.17 591.51
C 127.34 590.38 135.95 589.76 139.32 590.16
C 144.72 590.80 145.66 590.54 147.40 587.91
C 148.47 586.27 149.88 580.33 150.51 574.72
C 152.66 555.91 184.81 458.76 197.42 432.98
C 202.08 423.43 205.90 414.62 205.90 413.38
C 205.90 411.35 204.22 411.13 188.55 411.13
C 171.63 411.13 171.18 411.20 170.50 414.03
C 170.11 415.62 166.33 431.67 162.11 449.68
C 153.29 487.16 140.32 537.76 135.44 553.59
C 129.29 573.61 121.46 580.10 97.16 585.26
C 88.67 587.07 80.28 589.17 78.50 589.94
C 75.44 591.25 75.41 591.37 77.86 592.36
C 82.31 594.15 106.59 593.67 120.17 591.51
M 288.08 588.41
C 295.22 585.17 298.66 585.21 305.30 588.59
L 310.64 591.31
L 313.61 587.88
C 317.51 583.35 317.36 579.67 312.60 565.21
C 309.44 555.58 307.87 546.51 304.91 520.99
C 300.51 482.92 295.80 451.45 291.07 428.48
L 287.62 411.78
L 271.21 411.42
C 254.88 411.06 254.80 411.07 254.80 413.99
C 254.80 419.28 260.92 442.20 268.95 467.02
C 273.30 480.45 279.70 502.57 283.20 516.18
C 293.00 554.34 291.93 565.58 277.61 575.18
C 269.18 580.83 258.66 584.52 246.46 586.11
C 233.69 587.78 232.57 588.10 233.57 589.71
C 234.06 590.51 243.63 590.99 258.42 590.98
C 279.60 590.96 283.14 590.65 288.08 588.41
M 285.25 402.71
C 285.68 401.60 285.01 391.97 283.77 381.29
C 281.11 358.39 281.60 351.52 287.28 332.93
C 290.64 321.96 291.43 317.25 291.29 308.99
C 291.00 292.18 282.07 262.41 276.40 259.37
C 275.03 258.66 271.79 258.39 269.19 258.78
C 266.58 259.19 256.64 260.12 247.08 260.83
C 227.69 262.29 217.33 264.05 211.91 266.83
C 207.25 269.22 204.78 275.22 202.47 289.72
C 200.07 304.68 198.41 311.00 189.04 340.83
C 177.19 378.57 171.98 401.25 174.59 403.85
C 175.06 404.33 199.98 404.71 229.97 404.71
C 278.19 404.71 284.57 404.48 285.25 402.71
M 220.06 257.04
C 223.24 256.41 234.82 255.20 245.80 254.35
C 256.77 253.49 267.76 252.14 270.25 251.33
L 274.75 249.88
L 274.89 231.91
C 275.03 212.07 276.67 203.92 283.15 190.61
C 285.26 186.27 289.28 180.67 292.06 178.15
C 299.77 171.20 304.67 170.38 330.73 171.65
C 373.89 173.76 381.90 172.54 392.20 162.26
C 399.68 154.78 410.81 131.52 418.80 106.64
C 430.15 71.32 430.95 69.51 436.79 65.73
C 439.68 63.87 442.35 61.93 442.73 61.41
C 443.11 60.90 446.87 58.97 451.09 57.12
C 459.23 53.55 464.94 49.17 463.82 47.36
C 463.45 46.77 461.44 47.54 459.34 49.08
C 454.53 52.63 449.15 51.20 447.27 45.85
C 445.73 41.47 448.49 35.73 456.47 26.71
C 463.09 19.23 465.03 15.85 463.32 14.80
C 461.48 13.67 450.74 24.00 446.00 31.46
C 443.76 35.01 438.25 44.84 433.76 53.32
C 424.48 70.90 419.85 77.97 403.67 99.43
C 397.34 107.82 389.24 119.38 385.69 125.13
C 376.45 140.03 373.66 143.38 368.41 145.88
C 361.98 148.92 351.45 147.76 333.81 142.09
C 318.72 137.22 295.29 132.94 276.28 131.56
C 269.78 131.09 263.39 130.16 262.10 129.49
C 256.49 126.60 254.60 114.23 257.84 101.72
L 259.60 94.96
L 255.49 93.25
C 244.70 88.74 243.08 79.21 250.48 63.64
C 254.67 54.82 254.97 53.58 253.22 51.83
C 251.47 50.08 250.84 50.09 247.30 51.92
C 240.13 55.62 230.53 54.57 214.55 48.32
C 193.56 40.11 195.43 40.23 189.69 46.70
C 171.25 67.44 170.20 69.38 177.51 69.38
C 181.97 69.38 184.20 71.91 185.25 78.12
C 185.90 82.07 186.52 82.82 188.89 82.55
C 190.46 82.37 193.05 82.09 194.64 81.91
C 199.74 81.34 197.87 85.26 191.42 88.65
C 188.07 90.42 185.31 92.57 185.31 93.44
C 185.31 96.15 191.71 99.35 199.16 100.37
C 209.81 101.81 211.69 104.27 211.69 116.81
C 211.69 133.03 208.59 134.63 174.37 136.27
C 156.12 137.13 149.30 138.06 133.24 141.88
C 103.56 148.95 101.42 148.45 92.58 132.48
C 89.44 126.80 78.36 109.84 67.95 94.81
C 48.63 66.85 38.30 49.12 36.68 41.11
C 36.17 38.63 33.18 32.20 30.01 26.80
C 25.62 19.32 22.58 15.84 17.22 12.15
C 11.68 8.35 9.84 7.66 8.62 8.88
C 7.04 10.48 7.35 10.84 18.87 20.56
C 20.96 22.33 24.95 27.96 27.75 33.07
C 32.60 41.96 32.73 42.51 30.85 45.91
C 28.00 50.99 25.34 50.90 19.35 45.51
C 16.46 42.89 13.67 41.18 13.15 41.70
C 12.65 42.23 16.92 47.09 22.66 52.48
C 37.59 66.54 43.97 77.64 56.03 110.49
C 69.89 148.21 82.09 167.06 96.83 173.51
C 105.72 177.40 116.54 177.24 137.56 172.90
C 147.97 170.74 157.62 169.59 165.36 169.59
C 180.73 169.59 182.54 170.89 187.33 185.34
C 189.26 191.16 193.34 202.42 196.40 210.35
C 202.53 226.23 206.52 240.77 207.90 252.24
C 208.72 259.10 209.03 259.68 211.54 258.96
C 213.03 258.54 216.88 257.67 220.06 257.04"/>
<path fill="#000000" stroke="none" d="
M 194.62 65.23
C 191.40 63.69 189.79 59.37 191.01 55.53
C 192.57 50.63 203.41 48.44 210.38 51.61
C 216.30 54.31 216.27 62.62 210.32 65.33
C 206.30 67.16 198.51 67.10 194.62 65.23
M 207.70 62.78
C 213.20 60.28 213.08 57.04 207.39 54.05
C 203.83 52.18 202.44 52.92 205.23 55.22
C 207.74 57.30 207.70 58.97 205.07 61.89
C 202.59 64.61 203.22 64.82 207.70 62.78"/>
<path fill="#ae3c2a" stroke="none" d="
M 77.86 592.36
C 75.41 591.37 75.44 591.25 78.50 589.94
C 80.28 589.17 88.67 587.07 97.16 585.26
C 121.46 580.10 129.29 573.61 135.44 553.59
C 140.32 537.76 153.29 487.16 162.11 449.68
C 166.33 431.67 170.11 415.62 170.50 414.03
C 171.18 411.20 171.63 411.13 188.55 411.13
C 204.22 411.13 205.90 411.35 205.90 413.38
C 205.90 414.62 202.08 423.43 197.42 432.98
C 184.81 458.76 152.66 555.91 150.51 574.72
C 149.88 580.33 148.47 586.27 147.40 587.91
C 145.66 590.54 144.72 590.80 139.32 590.16
C 135.95 589.76 127.34 590.38 120.17 591.51
C 106.59 593.67 82.31 594.15 77.86 592.36"/>
<path fill="#ae3c2a" stroke="none" d="
M 233.57 589.71
C 232.57 588.10 233.69 587.78 246.46 586.11
C 258.66 584.52 269.18 580.83 277.61 575.18
C 291.93 565.58 293.00 554.34 283.20 516.18
C 279.70 502.57 273.30 480.45 268.95 467.02
C 260.92 442.20 254.80 419.28 254.80 413.99
C 254.80 411.07 254.88 411.06 271.21 411.42
L 287.62 411.78
L 291.07 428.48
C 295.80 451.45 300.51 482.92 304.91 520.99
C 307.87 546.51 309.44 555.58 312.60 565.21
C 317.36 579.67 317.51 583.35 313.61 587.88
L 310.64 591.31
L 305.30 588.59
C 298.66 585.21 295.22 585.17 288.08 588.41
C 283.14 590.65 279.60 590.96 258.42 590.98
C 243.63 590.99 234.06 590.51 233.57 589.71"/>
<path fill="#ae3c2a" stroke="none" d="
M 207.90 252.24
C 206.52 240.77 202.53 226.23 196.40 210.35
C 193.34 202.42 189.26 191.16 187.33 185.34
C 182.54 170.89 180.73 169.59 165.36 169.59
C 157.62 169.59 147.97 170.74 137.56 172.90
C 116.54 177.24 105.72 177.40 96.83 173.51
C 82.09 167.06 69.89 148.21 56.03 110.49
C 43.97 77.64 37.59 66.54 22.66 52.48
C 16.92 47.09 12.65 42.23 13.15 41.70
C 13.67 41.18 16.46 42.89 19.35 45.51
C 25.34 50.90 28.00 50.99 30.85 45.91
C 32.73 42.51 32.60 41.96 27.77 33.12
C 22.73 23.88 20.91 21.76 12.32 15.04
C 9.79 13.07 7.72 10.96 7.72 10.36
C 7.72 7.44 11.90 8.38 17.82 12.63
C 25.29 17.99 34.09 31.32 36.70 41.23
C 39.30 51.07 47.81 65.63 67.96 94.81
C 78.36 109.84 89.44 126.80 92.58 132.48
C 101.42 148.45 103.56 148.95 133.24 141.88
C 149.30 138.06 156.12 137.13 174.37 136.27
C 208.59 134.63 211.69 133.03 211.69 116.81
C 211.69 104.27 209.81 101.81 199.16 100.37
C 191.71 99.35 185.31 96.15 185.31 93.44
C 185.31 92.57 188.07 90.42 191.42 88.65
C 197.87 85.26 199.74 81.34 194.64 81.91
C 193.05 82.09 190.46 82.37 188.89 82.55
C 186.52 82.82 185.90 82.07 185.25 78.12
C 184.20 71.91 181.97 69.38 177.51 69.38
C 170.20 69.38 171.25 67.44 189.69 46.70
C 195.43 40.23 193.56 40.11 214.55 48.32
C 230.53 54.57 240.13 55.62 247.30 51.92
C 250.84 50.09 251.47 50.08 253.22 51.83
C 254.97 53.58 254.67 54.82 250.48 63.64
C 243.08 79.21 244.70 88.74 255.49 93.25
L 259.60 94.96
L 257.84 101.72
C 254.60 114.23 256.49 126.60 262.10 129.49
C 263.39 130.16 269.78 131.09 276.28 131.56
C 295.29 132.94 318.72 137.22 333.81 142.09
C 351.45 147.76 361.98 148.92 368.41 145.88
C 373.66 143.38 376.45 140.03 385.69 125.13
C 389.24 119.38 397.34 107.82 403.67 99.43
C 419.85 77.97 424.48 70.90 433.76 53.32
C 438.25 44.84 443.76 35.01 446.00 31.46
C 450.74 24.00 461.48 13.67 463.32 14.80
C 465.03 15.85 463.09 19.23 456.47 26.71
C 448.49 35.73 445.73 41.47 447.27 45.85
C 449.15 51.20 454.53 52.63 459.34 49.08
C 461.44 47.54 463.45 46.77 463.82 47.36
C 464.94 49.17 459.23 53.55 451.09 57.12
C 446.87 58.97 443.11 60.90 442.73 61.41
C 442.35 61.93 439.68 63.87 436.79 65.73
C 430.95 69.51 430.15 71.32 418.80 106.64
C 410.81 131.52 399.68 154.78 392.20 162.26
C 381.90 172.54 373.89 173.76 330.73 171.65
C 304.67 170.38 299.77 171.20 292.06 178.15
C 289.28 180.67 285.26 186.27 283.15 190.61
C 276.67 203.92 275.03 212.07 274.89 231.91
L 274.75 249.88
L 270.25 251.33
C 267.76 252.14 256.77 253.49 245.80 254.35
C 227.37 255.78 218.51 256.97 211.54 258.96
C 209.03 259.68 208.72 259.10 207.90 252.24
M 210.32 65.33
C 216.27 62.62 216.30 54.31 210.38 51.61
C 203.41 48.44 192.57 50.63 191.01 55.53
C 189.79 59.37 191.40 63.69 194.62 65.23
C 198.51 67.10 206.30 67.16 210.32 65.33"/>
<path fill="#fefefe" stroke="none" d="
M 174.59 403.85
C 171.98 401.25 177.19 378.57 189.04 340.83
C 198.41 311.00 200.07 304.68 202.47 289.72
C 204.78 275.22 207.25 269.22 211.91 266.83
C 217.33 264.05 227.69 262.29 247.08 260.83
C 256.64 260.12 266.58 259.19 269.19 258.78
C 271.79 258.39 275.03 258.66 276.40 259.37
C 282.07 262.41 291.00 292.18 291.29 308.99
C 291.43 317.25 290.64 321.96 287.28 332.93
C 281.60 351.52 281.11 358.39 283.77 381.29
C 285.01 391.97 285.68 401.60 285.25 402.71
C 284.57 404.48 278.19 404.71 229.97 404.71
C 199.98 404.71 175.06 404.33 174.59 403.85"/>
<path fill="#fefefe" stroke="none" d="
M 205.32 61.59
C 207.29 59.42 207.45 58.52 206.17 56.48
C 203.93 52.91 204.23 52.38 207.51 54.10
C 213.08 57.04 213.16 60.30 207.70 62.78
C 203.12 64.87 202.59 64.60 205.32 61.59"/>
</g>
</svg>
