<?xml version="1.0" encoding="UTF-8" standalone="no"?>
<!DOCTYPE svg PUBLIC "-//W3C//DTD SVG 1.1//EN"
"http://www.w3.org/Graphics/SVG/1.1/DTD/svg11.dtd">
<svg width="471px" height="600px"
xmlns="http://www.w3.org/2000/svg" version="1.1">
<g transform="translate(0000, 0000) scale(1.0000, 1.0000)">
<path fill="#000000" stroke="none" d="
M 226.00 597.98
C 213.53 593.99 198.41 581.43 191.67 569.45
C 189.39 565.41 182.11 555.85 175.48 548.24
C 168.85 540.60 163.43 533.27 163.43 531.93
C 163.43 528.81 168.16 525.48 172.57 525.48
C 177.31 525.48 178.45 523.54 179.47 513.92
C 180.83 500.92 182.38 497.24 187.34 495.16
C 189.71 494.17 193.71 493.36 196.21 493.36
C 202.35 493.36 205.90 489.67 205.90 483.28
C 205.90 478.19 204.22 475.89 198.24 472.79
C 196.31 471.79 186.39 470.79 172.51 470.20
C 152.84 469.35 147.31 468.59 129.76 464.38
C 105.70 458.61 106.41 458.39 97.97 473.60
C 94.88 479.16 84.77 494.69 75.49 508.09
C 55.00 537.69 46.74 551.23 44.96 558.14
C 40.37 576.03 32.06 587.97 19.53 594.63
C 10.39 599.50 7.71 599.68 3.09 595.72
C -1.88 591.46 -0.48 587.81 10.14 577.28
C 18.49 569.01 26.61 558.05 25.34 556.78
C 25.02 556.46 22.91 558.54 20.64 561.39
C 18.36 564.26 15.40 566.60 14.05 566.60
C 10.27 566.60 6.43 561.97 6.43 557.40
C 6.43 554.06 8.25 551.52 16.92 542.78
C 32.02 527.58 38.90 515.49 50.15 484.37
C 65.86 440.93 78.72 423.39 98.61 418.21
C 109.08 415.49 115.05 415.79 137.05 420.15
C 160.31 424.75 172.73 425.18 175.92 421.46
C 177.90 419.15 180.25 413.02 194.44 373.10
C 197.23 365.27 200.18 354.23 201.00 348.59
C 202.38 339.22 202.26 337.55 199.74 329.45
C 198.22 324.55 196.34 316.09 195.57 310.63
C 194.78 305.16 191.01 290.42 187.16 277.86
C 175.47 239.64 170.02 219.70 167.44 205.57
C 162.78 180.14 134.16 64.57 128.35 47.70
C 124.94 37.84 117.47 28.88 109.90 25.64
C 106.91 24.36 98.77 22.11 91.81 20.63
C 75.75 17.24 68.53 14.57 66.83 11.41
C 65.08 8.13 66.39 4.24 69.90 2.30
C 74.63 -0.31 105.73 -0.59 121.21 1.84
C 128.95 3.04 136.98 3.58 140.01 3.11
C 146.89 2.00 151.36 3.20 153.71 6.77
C 154.74 8.34 156.25 15.13 157.06 21.84
C 158.22 31.45 162.08 44.94 175.21 85.23
C 194.18 143.47 194.09 143.23 203.89 163.16
C 207.90 171.29 211.80 180.39 212.55 183.39
L 213.93 188.87
L 230.44 188.87
L 246.97 188.87
L 247.79 184.05
C 249.85 172.06 255.45 151.45 263.25 127.19
C 274.02 93.71 283.11 58.36 283.11 50.02
C 283.11 46.47 282.30 42.00 281.30 40.09
C 276.19 30.33 261.15 22.45 243.90 20.49
C 231.69 19.10 228.55 17.96 226.52 14.18
C 224.42 10.27 224.99 6.72 228.06 4.57
C 230.44 2.90 235.60 2.57 258.63 2.60
C 282.78 2.62 287.00 2.93 291.57 5.00
C 296.64 7.30 296.94 7.30 301.22 5.02
C 303.65 3.74 307.55 2.65 309.91 2.62
C 323.05 2.45 326.43 15.33 319.10 37.58
C 316.02 46.92 314.36 56.35 311.40 81.58
C 306.65 121.98 302.22 151.32 296.67 179.23
C 294.27 191.24 291.31 210.32 290.10 221.63
L 287.89 242.18
L 290.82 253.10
C 292.43 259.12 294.80 267.79 296.07 272.38
C 298.78 282.03 299.08 290.16 297.21 301.93
C 295.02 315.69 292.10 326.30 286.96 339.19
C 283.14 348.76 281.94 353.74 281.40 362.31
C 280.13 382.66 285.60 402.60 295.46 413.55
C 303.68 422.69 306.29 423.28 332.58 421.91
C 374.74 419.72 385.59 421.22 395.90 430.70
C 406.67 440.62 415.65 459.70 429.23 501.53
C 436.64 524.39 436.70 524.49 442.57 528.80
C 445.83 531.17 452.16 535.01 456.66 537.33
C 469.89 544.14 474.31 551.73 468.43 557.60
C 465.22 560.80 463.63 560.81 458.85 557.67
C 450.32 552.05 453.07 560.30 463.38 571.27
C 466.80 574.91 469.96 579.33 470.41 581.11
C 471.46 585.34 469.15 589.49 465.17 590.49
C 454.63 593.13 443.90 581.99 427.89 551.82
C 419.02 535.14 411.64 523.84 396.40 503.69
C 390.24 495.53 381.91 483.56 377.89 477.08
C 373.88 470.61 368.74 463.75 366.48 461.85
C 361.43 457.61 358.17 457.88 337.81 464.25
C 323.57 468.71 298.48 473.31 280.54 474.75
C 266.50 475.88 265.60 476.18 263.75 480.67
C 261.21 486.78 263.67 495.89 273.37 516.26
C 282.95 536.35 284.95 543.97 284.12 557.09
C 283.05 573.62 272.65 588.99 257.97 595.70
C 248.90 599.83 234.93 600.84 226.00 597.98
M 17.50 587.65
C 22.56 584.17 25.70 580.54 30.01 573.20
C 33.18 567.80 36.17 561.37 36.68 558.89
C 38.30 550.88 48.63 533.15 67.95 505.19
C 78.36 490.16 89.44 473.20 92.58 467.52
C 101.42 451.55 103.56 451.05 133.24 458.12
C 149.30 461.94 156.12 462.87 174.37 463.73
C 208.59 465.37 211.69 466.97 211.69 483.19
C 211.69 495.73 209.81 498.19 199.16 499.63
C 191.71 500.65 185.31 503.85 185.31 506.56
C 185.31 507.43 188.07 509.58 191.42 511.35
C 198.09 514.86 199.72 518.66 194.32 518.06
C 192.54 517.86 189.97 517.58 188.57 517.41
C 186.59 517.19 185.88 518.13 185.25 521.88
C 184.20 528.09 181.97 530.62 177.51 530.62
C 171.89 530.62 171.79 532.82 177.15 538.86
C 179.87 541.91 184.90 547.70 188.34 551.70
C 195.48 560.04 193.17 560.04 214.55 551.68
C 230.53 545.43 240.13 544.38 247.30 548.08
C 250.84 549.91 251.47 549.92 253.22 548.17
C 254.97 546.42 254.67 545.18 250.48 536.36
C 243.08 520.79 244.70 511.26 255.49 506.75
L 259.60 505.04
L 257.84 498.28
C 254.60 485.77 256.49 473.40 262.10 470.51
C 263.39 469.84 269.78 468.91 276.28 468.44
C 295.29 467.06 318.72 462.78 333.81 457.91
C 351.45 452.24 361.98 451.08 368.41 454.12
C 373.66 456.62 376.45 459.97 385.69 474.87
C 389.24 480.62 397.34 492.18 403.67 500.57
C 419.85 522.03 424.48 529.10 433.76 546.68
C 438.25 555.16 443.76 564.99 446.00 568.54
C 450.74 576.00 461.48 586.33 463.32 585.20
C 465.03 584.15 463.09 580.77 456.47 573.29
C 448.49 564.27 445.73 558.53 447.27 554.15
C 449.15 548.80 454.53 547.37 459.34 550.92
C 461.44 552.46 463.45 553.23 463.82 552.64
C 464.94 550.83 459.23 546.45 451.09 542.88
C 446.87 541.03 443.11 539.10 442.73 538.59
C 442.35 538.07 439.68 536.13 436.79 534.27
C 430.95 530.49 430.15 528.68 418.80 493.36
C 410.81 468.48 399.68 445.22 392.20 437.74
C 381.90 427.46 373.89 426.24 330.73 428.35
C 304.67 429.62 299.77 428.80 292.06 421.85
C 289.28 419.33 285.26 413.73 283.15 409.39
C 276.67 396.08 275.03 387.93 274.89 368.09
L 274.75 350.12
L 270.25 348.67
C 267.76 347.86 256.77 346.51 245.80 345.65
C 227.37 344.22 218.51 343.03 211.54 341.04
C 209.03 340.32 208.72 340.90 207.90 347.76
C 206.52 359.23 202.53 373.77 196.40 389.65
C 193.34 397.58 189.26 408.84 187.33 414.66
C 182.54 429.11 180.73 430.41 165.36 430.41
C 157.62 430.41 147.97 429.26 137.56 427.10
C 116.54 422.76 105.72 422.60 96.83 426.49
C 82.09 432.94 69.89 451.79 56.03 489.51
C 43.97 522.36 37.59 533.46 22.66 547.52
C 16.92 552.91 12.65 557.77 13.15 558.30
C 13.67 558.82 16.46 557.11 19.35 554.49
C 25.34 549.10 28.00 549.01 30.85 554.09
C 32.73 557.49 32.60 558.04 27.75 566.93
C 24.95 572.04 20.96 577.67 18.87 579.44
C 8.43 588.24 7.36 589.39 8.24 590.80
C 9.56 592.95 10.02 592.78 17.50 587.65
M 277.83 339.33
C 283.36 333.80 291.21 305.40 291.35 290.36
C 291.42 282.99 290.46 277.53 287.27 267.07
C 281.60 248.47 281.11 241.59 283.77 218.71
C 285.01 208.03 285.68 198.39 285.25 197.28
C 284.56 195.48 278.48 195.30 229.43 195.60
L 174.37 195.93
L 173.97 199.44
C 173.41 204.35 179.88 230.03 189.04 259.17
C 198.41 288.99 200.07 295.32 202.47 310.28
C 206.39 334.91 208.51 336.24 248.41 339.25
C 259.36 340.09 268.56 340.99 268.86 341.25
C 270.32 342.63 275.68 341.47 277.83 339.33
M 205.90 186.62
C 205.90 185.38 202.08 176.57 197.42 167.02
C 184.81 141.24 152.66 44.09 150.51 25.28
C 149.88 19.67 148.47 13.73 147.40 12.09
C 145.66 9.46 144.72 9.20 139.32 9.84
C 135.95 10.24 127.34 9.62 120.17 8.49
C 106.59 6.33 82.31 5.85 77.86 7.64
C 75.41 8.63 75.44 8.75 78.50 10.06
C 80.28 10.83 88.67 12.93 97.16 14.74
C 121.46 19.90 129.29 26.39 135.44 46.41
C 140.32 62.24 153.29 112.84 162.11 150.32
C 166.33 168.35 170.11 184.38 170.50 185.97
C 171.18 188.80 171.63 188.87 188.55 188.87
C 204.22 188.87 205.90 188.65 205.90 186.62
M 291.07 171.52
C 295.80 148.55 300.51 117.08 304.91 79.01
C 307.87 53.49 309.44 44.42 312.60 34.79
C 317.36 20.33 317.51 16.65 313.61 12.12
L 310.64 8.69
L 305.30 11.41
C 298.66 14.79 295.22 14.83 288.08 11.59
C 283.14 9.35 279.60 9.04 258.42 9.02
C 243.63 9.01 234.06 9.49 233.57 10.29
C 232.57 11.90 233.69 12.22 246.46 13.89
C 258.66 15.48 269.18 19.17 277.61 24.82
C 291.93 34.42 293.00 45.66 283.20 83.82
C 279.70 97.43 273.30 119.55 268.95 132.98
C 260.92 157.80 254.80 180.72 254.80 186.01
C 254.80 188.93 254.88 188.94 271.21 188.58
L 287.62 188.22
L 291.07 171.52"/>
<path fill="#000000" stroke="none" d="
M 194.62 548.31
C 191.40 546.77 189.79 542.45 191.01 538.61
C 192.57 533.72 203.41 531.52 210.38 534.69
C 216.30 537.39 216.27 545.70 210.32 548.42
C 206.30 550.24 198.51 550.19 194.62 548.31
M 207.70 545.86
C 213.20 543.37 213.08 540.13 207.39 537.13
C 203.83 535.26 202.44 536.00 205.23 538.30
C 207.74 540.39 207.70 542.06 205.07 544.97
C 202.59 547.70 203.22 547.90 207.70 545.86"/>
<path fill="#ae3c2a" stroke="none" d="
M 8.24 590.80
C 7.36 589.39 8.43 588.24 18.87 579.44
C 20.96 577.67 24.95 572.04 27.75 566.93
C 32.60 558.04 32.73 557.49 30.85 554.09
C 28.00 549.01 25.34 549.10 19.35 554.49
C 16.46 557.11 13.67 558.82 13.15 558.30
C 12.65 557.77 16.92 552.91 22.66 547.52
C 37.59 533.46 43.97 522.36 56.03 489.51
C 69.89 451.79 82.09 432.94 96.83 426.49
C 105.72 422.60 116.54 422.76 137.56 427.10
C 147.97 429.26 157.62 430.41 165.36 430.41
C 180.73 430.41 182.54 429.11 187.33 414.66
C 189.26 408.84 193.34 397.58 196.40 389.65
C 202.53 373.77 206.52 359.23 207.90 347.76
C 208.72 340.90 209.03 340.32 211.54 341.04
C 218.51 343.03 227.37 344.22 245.80 345.65
C 256.77 346.51 267.76 347.86 270.25 348.67
L 274.75 350.12
L 274.89 368.09
C 275.03 387.93 276.67 396.08 283.15 409.39
C 285.26 413.73 289.28 419.33 292.06 421.85
C 299.77 428.80 304.67 429.62 330.73 428.35
C 373.89 426.24 381.90 427.46 392.20 437.74
C 399.68 445.22 410.81 468.48 418.80 493.36
C 430.15 528.68 430.95 530.49 436.79 534.27
C 439.68 536.13 442.35 538.07 442.73 538.59
C 443.11 539.10 446.87 541.03 451.09 542.88
C 459.23 546.45 464.94 550.83 463.82 552.64
C 463.45 553.23 461.44 552.46 459.34 550.92
C 454.53 547.37 449.15 548.80 447.27 554.15
C 445.73 558.53 448.49 564.27 456.47 573.29
C 463.09 580.77 465.03 584.15 463.32 585.20
C 461.48 586.33 450.74 576.00 446.00 568.54
C 443.76 564.99 438.25 555.16 433.76 546.68
C 424.48 529.10 419.85 522.03 403.67 500.57
C 397.34 492.18 389.24 480.62 385.69 474.87
C 376.45 459.97 373.66 456.62 368.41 454.12
C 361.98 451.08 351.45 452.24 333.81 457.91
C 318.72 462.78 295.29 467.06 276.28 468.44
C 269.78 468.91 263.39 469.84 262.10 470.51
C 256.49 473.40 254.60 485.77 257.84 498.28
L 259.60 505.04
L 255.49 506.75
C 244.70 511.26 243.08 520.79 250.48 536.36
C 254.67 545.18 254.97 546.42 253.22 548.17
C 251.47 549.92 250.84 549.91 247.30 548.08
C 240.13 544.38 230.53 545.43 214.55 551.68
C 193.17 560.04 195.48 560.04 188.34 551.70
C 184.90 547.70 179.87 541.91 177.15 538.86
C 171.79 532.82 171.89 530.62 177.51 530.62
C 181.97 530.62 184.20 528.09 185.25 521.88
C 185.88 518.13 186.59 517.19 188.57 517.41
C 189.97 517.58 192.54 517.86 194.32 518.06
C 199.72 518.66 198.09 514.86 191.42 511.35
C 188.07 509.58 185.31 507.43 185.31 506.56
C 185.31 503.85 191.71 500.65 199.16 499.63
C 209.81 498.19 211.69 495.73 211.69 483.19
C 211.69 466.97 208.59 465.37 174.37 463.73
C 156.12 462.87 149.30 461.94 133.24 458.12
C 103.56 451.05 101.42 451.55 92.58 467.52
C 89.44 473.20 78.36 490.16 67.95 505.19
C 48.63 533.15 38.30 550.88 36.68 558.89
C 36.17 561.37 33.18 567.80 30.01 573.20
C 25.70 580.54 22.56 584.17 17.50 587.65
C 10.02 592.78 9.56 592.95 8.24 590.80
M 210.32 548.42
C 216.27 545.70 216.30 537.39 210.38 534.69
C 203.41 531.52 192.57 533.72 191.01 538.61
C 189.79 542.45 191.40 546.77 194.62 548.31
C 198.51 550.19 206.30 550.24 210.32 548.42"/>
<path fill="#ae3c2a" stroke="none" d="
M 170.50 185.97
C 170.11 184.38 166.33 168.35 162.11 150.32
C 153.29 112.84 140.32 62.24 135.44 46.41
C 129.29 26.39 121.46 19.90 97.16 14.74
C 88.67 12.93 80.28 10.81 78.50 10.02
L 75.28 8.61
L 78.50 7.64
C 84.28 5.92 106.86 6.37 120.17 8.49
C 127.34 9.62 135.95 10.24 139.32 9.84
C 144.72 9.20 145.66 9.46 147.40 12.09
C 148.47 13.73 149.88 19.67 150.51 25.28
C 152.66 44.09 184.81 141.24 197.42 167.02
C 202.08 176.57 205.90 185.38 205.90 186.62
C 205.90 188.65 204.22 188.87 188.55 188.87
C 171.63 188.87 171.18 188.80 170.50 185.97"/>
<path fill="#ae3c2a" stroke="none" d="
M 254.80 186.01
C 254.80 180.72 260.92 157.80 268.95 132.98
C 273.30 119.55 279.70 97.43 283.20 83.82
C 293.00 45.66 291.93 34.42 277.61 24.82
C 269.18 19.17 258.66 15.48 246.46 13.89
C 233.69 12.22 232.57 11.90 233.57 10.29
C 234.06 9.49 243.63 9.01 258.42 9.02
C 279.60 9.04 283.14 9.35 288.08 11.59
C 295.22 14.83 298.66 14.79 305.30 11.41
L 310.64 8.69
L 313.61 12.12
C 317.51 16.65 317.36 20.33 312.60 34.79
C 309.44 44.42 307.87 53.49 304.91 79.01
C 300.51 117.08 295.80 148.55 291.07 171.52
L 287.62 188.22
L 271.21 188.58
C 254.88 188.94 254.80 188.93 254.80 186.01"/>
<path fill="#fefefe" stroke="none" d="
M 205.07 544.97
C 207.70 542.06 207.74 540.39 205.23 538.30
C 202.44 536.00 203.83 535.26 207.39 537.13
C 213.08 540.13 213.20 543.37 207.70 545.86
C 203.22 547.90 202.59 547.70 205.07 544.97"/>
<path fill="#fefefe" stroke="none" d="
M 268.86 341.25
C 268.56 340.99 259.36 340.09 248.41 339.25
C 208.51 336.24 206.39 334.91 202.47 310.28
C 200.07 295.32 198.41 289.00 189.04 259.17
C 180.69 232.60 173.73 205.81 173.73 200.27
C 173.73 198.33 174.62 196.51 175.76 196.07
C 176.88 195.64 201.81 195.29 231.14 195.29
C 278.30 195.29 284.57 195.52 285.25 197.29
C 285.68 198.40 285.01 208.03 283.77 218.71
C 281.11 241.59 281.60 248.47 287.27 267.07
C 290.46 277.53 291.42 282.99 291.35 290.36
C 291.21 305.40 283.36 333.80 277.83 339.33
C 275.68 341.47 270.32 342.63 268.86 341.25"/>
</g>
</svg>
