<?xml version="1.0" encoding="UTF-8" standalone="no"?>
<!DOCTYPE svg PUBLIC "-//W3C//DTD SVG 1.1//EN"
"http://www.w3.org/Graphics/SVG/1.1/DTD/svg11.dtd">
<svg width="418px" height="600px"
xmlns="http://www.w3.org/2000/svg" version="1.1">
<g transform="translate(0000, 0000) scale(1.0000, 1.0000)">
<path fill="#000000" stroke="none" d="
M 9.41 598.56
C 5.48 596.53 3.24 590.71 5.07 587.29
C 7.13 583.46 9.86 582.21 33.44 574.33
L 54.66 567.24
L 55.48 559.53
C 56.49 550.25 60.59 538.28 65.18 531.26
C 67.03 528.44 73.17 521.73 78.82 516.35
L 89.09 506.57
L 88.19 500.56
C 87.69 497.25 86.16 491.27 84.77 487.25
C 83.38 483.22 77.85 457.67 72.47 430.45
C 63.07 382.84 62.76 380.65 64.24 373.34
C 67.56 356.99 74.84 347.16 86.11 343.82
C 94.82 341.24 98.26 341.24 109.05 343.81
C 131.72 349.23 163.92 370.74 203.79 407.07
C 213.78 416.18 218.48 418.20 224.11 415.85
C 226.41 414.89 229.04 413.20 229.94 412.11
C 233.50 407.82 234.17 389.87 231.97 357.17
C 230.02 327.96 229.17 322.03 220.07 274.56
C 214.68 246.42 209.72 223.30 209.04 223.17
C 208.36 223.03 204.14 227.54 199.68 233.19
C 172.91 267.06 153.79 286.05 138.75 293.65
C 121.03 302.63 106.66 297.55 87.79 275.61
C 84.14 271.36 71.20 255.16 59.05 239.61
C 46.89 224.07 31.95 205.57 25.81 198.50
C 13.94 184.81 9.08 178.06 3.49 167.49
C -0.67 159.62 -0.87 156.33 2.57 152.89
C 6.42 149.05 10.88 149.70 16.72 154.97
C 23.22 160.83 23.37 158.40 17.17 148.32
C 8.81 134.74 5.20 127.89 5.17 125.59
C 5.13 122.31 9.79 118.20 13.53 118.20
C 21.49 118.20 37.34 140.45 39.32 154.41
C 42.66 178.02 52.41 191.27 85.53 217.22
C 96.14 225.53 108.72 236.43 113.46 241.44
C 118.22 246.44 122.97 250.54 124.01 250.54
C 126.92 250.54 130.22 247.01 157.19 215.20
C 170.97 198.95 186.48 181.39 191.64 176.18
C 206.62 161.09 222.93 151.91 238.58 149.78
C 252.56 147.88 262.38 143.79 262.38 139.89
C 262.38 137.72 254.40 135.22 244.37 134.25
C 239.07 133.73 233.19 132.54 231.33 131.58
C 227.44 129.60 225.08 123.94 225.08 116.65
C 225.08 109.91 223.15 106.64 219.19 106.64
C 214.29 106.64 208.49 103.12 207.61 99.61
C 206.49 95.18 210.03 85.54 216.65 74.89
C 223.96 63.17 229.30 52.50 232.05 44.08
C 236.55 30.35 250.29 13.88 262.36 7.72
C 299.89 -11.41 340.66 7.21 348.71 47.16
C 350.73 57.19 349.20 65.82 341.26 89.09
C 335.62 105.57 332.23 113.31 327.92 119.45
C 325.18 123.35 322.22 138.73 323.34 143.23
C 324.50 147.82 328.75 150.10 340.20 152.29
C 354.50 155.02 364.02 159.67 371.53 167.61
C 379.71 176.25 382.23 181.40 395.31 216.10
C 412.60 262.01 418.00 283.66 418.00 306.91
C 418.00 326.38 413.32 332.15 396.25 333.70
C 383.39 334.86 359.62 328.23 346.08 319.68
C 342.03 317.13 339.94 316.48 338.81 317.42
C 336.69 319.18 334.40 332.79 334.39 343.79
C 334.37 348.68 332.95 363.66 331.20 377.09
C 327.44 405.84 327.27 413.85 330.01 431.78
C 332.47 447.79 331.80 461.40 328.06 472.05
C 324.74 481.52 324.73 483.08 328.03 483.08
C 332.51 483.08 337.82 486.63 339.53 490.77
C 341.98 496.66 340.55 508.97 334.52 534.05
C 331.60 546.18 328.11 562.25 326.75 569.76
C 325.40 577.26 323.21 585.25 321.90 587.52
C 315.98 597.74 288.57 599.10 286.10 589.30
C 285.04 585.04 288.27 579.19 294.37 574.27
C 301.98 568.18 306.59 558.71 306.57 549.28
C 306.55 540.10 302.59 530.03 298.52 528.73
C 294.41 527.43 298.13 525.97 216.72 560.85
C 189.84 572.38 160.86 584.12 152.33 586.97
C 120.22 597.69 91.73 600.94 79.50 595.28
L 73.45 592.50
L 58.28 595.67
C 40.94 599.29 13.92 600.89 9.41 598.56
M 43.09 591.64
C 52.28 589.88 61.11 588.13 62.69 587.77
C 65.52 587.13 65.49 587.01 61.07 580.87
L 56.58 574.63
L 40.19 579.71
C 12.12 588.42 7.65 590.81 14.37 593.50
C 19.22 595.44 25.36 595.04 43.09 591.64
M 127.33 586.99
C 145.66 582.42 161.91 576.23 212.86 554.42
C 239.74 542.90 267.52 531.01 274.59 527.99
C 290.85 521.05 300.82 519.84 305.50 524.24
C 310.45 528.89 313.14 537.66 313.15 549.25
C 313.17 562.28 310.01 569.60 300.11 579.64
C 293.05 586.78 292.97 586.92 295.83 588.45
C 299.25 590.27 307.94 589.21 312.19 586.43
C 316.33 583.72 318.45 578.80 320.19 567.88
C 321.04 562.59 324.59 546.01 328.06 531.06
C 331.54 516.12 334.40 502.06 334.40 499.85
C 334.40 495.08 329.49 489.51 325.29 489.51
C 323.75 489.51 318.48 490.96 313.58 492.72
C 308.68 494.49 293.55 497.99 279.98 500.51
C 226.09 510.49 190.63 519.84 165.66 530.66
C 152.34 536.43 134.38 546.91 126.04 553.76
C 122.87 556.37 118.99 559.17 117.45 559.98
C 112.82 562.41 106.21 561.73 101.48 558.32
C 86.11 547.31 81.68 544.79 75.12 543.33
C 66.71 541.45 66.44 541.67 64.20 552.39
C 61.40 565.73 65.52 578.08 74.78 584.21
C 86.91 592.23 102.83 593.06 127.33 586.99
M 121.58 547.37
C 153.52 523.30 193.23 509.59 274.59 494.56
C 286.62 492.33 300.87 489.13 306.26 487.44
L 316.05 484.37
L 319.44 475.05
C 325.72 457.85 326.17 453.20 323.53 433.55
C 321.85 421.00 321.38 412.15 321.92 402.53
L 322.70 389.07
L 316.01 389.97
C 306.36 391.26 291.84 396.06 271.66 404.62
C 261.96 408.75 251.76 412.83 249.01 413.70
C 235.30 418.09 170.04 456.87 127.88 485.69
C 126.30 486.77 120.51 491.40 115.03 495.97
C 109.54 500.54 102.69 506.12 99.79 508.36
C 96.90 510.60 89.32 517.46 82.96 523.62
L 71.38 534.81
L 75.88 536.04
C 85.80 538.77 91.37 541.22 96.47 545.14
C 105.91 552.39 109.68 555.03 110.56 555.03
C 111.03 555.03 116.00 551.59 121.58 547.37
M 105.17 492.77
L 112.19 485.76
L 111.59 468.04
C 110.94 449.10 108.65 438.40 98.38 406.00
C 92.63 387.87 92.85 383.76 100.35 369.46
C 107.06 356.63 108.58 351.89 106.42 350.52
C 103.82 348.87 91.57 349.32 87.00 351.24
C 76.89 355.45 69.75 370.48 71.21 384.50
C 71.65 388.66 75.23 408.66 79.18 428.92
C 86.64 467.28 94.76 499.79 96.90 499.79
C 97.58 499.79 101.30 496.63 105.17 492.77
M 145.01 464.70
C 158.98 456.00 179.88 443.14 191.44 436.14
C 212.07 423.65 212.42 423.37 209.48 421.45
C 207.82 420.37 203.74 417.17 200.42 414.35
C 158.63 378.81 142.94 366.77 128.62 359.27
C 116.17 352.75 114.93 352.55 113.91 356.81
C 113.45 358.78 110.09 366.31 106.48 373.55
L 99.88 386.71
L 105.22 403.75
C 115.11 435.28 117.19 445.10 117.95 463.49
C 118.35 472.86 118.88 480.51 119.15 480.51
C 119.41 480.51 131.05 473.40 145.01 464.70
M 255.94 403.14
C 295.46 386.78 301.29 384.85 315.76 383.37
L 323.70 382.56
L 325.83 366.27
C 327.00 357.30 327.98 346.24 327.99 341.69
C 328.02 333.06 329.85 318.08 331.34 314.18
C 333.41 308.80 287.46 269.65 256.65 250.54
C 236.02 237.74 231.51 231.15 238.52 224.13
C 242.53 220.14 244.50 220.18 249.48 224.35
C 257.32 230.96 254.86 226.03 245.40 216.21
C 230.65 200.87 229.10 197.69 234.08 192.72
C 242.35 184.46 258.30 196.51 276.84 225.01
C 288.06 242.25 292.41 246.35 307.24 253.61
C 313.35 256.59 322.50 261.51 327.60 264.54
C 332.69 267.56 337.46 269.65 338.21 269.19
C 340.39 267.85 343.17 261.69 346.75 250.28
C 351.99 233.56 355.94 231.17 362.81 240.58
C 368.98 249.03 372.53 256.77 378.94 275.73
C 385.38 294.80 385.37 298.46 378.89 300.09
C 373.96 301.32 367.74 298.65 354.05 289.41
C 340.73 280.43 331.08 274.86 304.33 260.72
C 295.22 255.91 286.34 250.63 284.59 249.01
C 282.83 247.37 276.61 238.82 270.77 229.98
C 258.40 211.27 240.51 192.89 240.51 198.87
C 240.51 199.43 243.47 202.75 247.10 206.26
C 260.60 219.35 263.69 226.10 258.52 231.26
C 255.08 234.69 251.79 234.50 247.13 230.58
C 245.01 228.80 242.94 227.87 242.54 228.53
C 241.31 230.52 245.98 235.09 253.59 239.38
C 272.11 249.80 306.88 276.17 326.53 294.67
C 339.51 306.90 343.69 309.98 355.11 315.75
C 382.50 329.60 405.86 330.76 410.14 318.48
C 413.38 309.21 411.00 286.69 404.42 264.03
C 400.02 248.90 381.72 199.76 376.11 188.04
C 368.05 171.13 356.38 162.46 336.64 158.69
C 323.88 156.26 320.78 154.68 318.22 149.28
C 316.50 145.66 316.23 142.70 316.90 134.71
L 317.73 124.69
L 312.88 121.61
C 299.79 113.25 296.09 103.13 300.32 87.37
C 302.86 77.87 302.73 73.72 299.76 70.75
C 297.40 68.39 296.97 68.38 290.92 70.30
C 283.55 72.66 279.46 71.88 256.59 63.75
C 249.51 61.25 241.78 59.02 239.42 58.82
C 235.26 58.47 234.85 58.88 227.48 70.66
C 213.86 92.45 212.33 98.13 219.70 99.61
C 228.09 101.29 229.59 102.23 231.02 106.61
C 232.79 112.09 234.04 112.52 239.88 109.76
C 243.51 108.04 244.86 107.90 246.05 109.12
C 247.89 110.98 245.04 113.50 237.62 116.52
C 232.34 118.66 231.80 120.08 234.71 124.21
C 236.16 126.30 238.50 127.13 244.68 127.76
C 259.79 129.31 262.79 130.06 265.80 133.07
C 271.35 138.62 268.88 148.87 261.28 151.80
C 259.40 152.52 252.09 154.20 245.01 155.55
C 236.90 157.09 228.82 159.64 223.15 162.44
C 206.56 170.61 198.08 178.97 154.11 230.62
C 131.35 257.34 131.07 257.60 123.95 257.60
C 118.44 257.60 117.77 257.16 108.27 247.31
C 102.80 241.66 90.83 231.26 81.65 224.24
C 51.27 200.94 38.84 185.69 34.75 166.70
C 34.03 163.35 32.82 157.85 32.08 154.50
C 30.65 148.07 20.96 130.39 16.84 126.66
C 12.12 122.39 12.76 127.09 18.19 136.46
C 30.37 157.49 31.23 160.24 27.01 164.45
C 23.07 168.39 19.52 167.60 14.03 161.60
C 10.52 157.77 8.66 156.58 7.70 157.53
C 5.92 159.31 18.47 178.29 30.15 191.43
C 34.84 196.73 49.43 214.78 62.55 231.52
C 94.00 271.70 101.71 280.56 109.71 285.87
C 118.79 291.89 122.98 292.55 130.65 289.17
C 146.99 281.94 166.58 262.96 193.32 228.42
C 202.25 216.89 206.16 213.28 209.68 213.28
C 215.30 213.28 215.86 215.20 226.27 270.45
C 235.97 321.87 236.54 325.95 238.49 357.17
C 239.80 378.28 240.16 393.48 239.49 399.89
C 238.29 411.51 236.56 411.16 255.94 403.14
M 376.12 290.04
C 369.46 268.50 359.58 246.04 356.75 246.04
C 356.14 246.04 353.56 252.26 351.06 259.85
L 346.49 273.67
L 349.77 276.67
C 355.60 282.00 373.09 292.84 375.97 292.91
C 376.55 292.92 376.61 291.64 376.12 290.04"/>
<path fill="#000000" stroke="none" d="
M 236.95 85.79
C 233.73 84.24 232.13 79.93 233.35 76.09
C 234.90 71.19 245.73 68.99 252.70 72.17
C 258.62 74.87 258.59 83.18 252.64 85.89
C 248.63 87.71 240.85 87.66 236.95 85.79
M 250.03 83.33
C 255.52 80.84 255.40 77.60 249.72 74.61
C 246.16 72.73 244.77 73.48 247.56 75.78
C 250.07 77.86 250.03 79.53 247.39 82.45
C 244.92 85.17 245.55 85.37 250.03 83.33"/>
<path fill="#ae3c2a" stroke="none" d="
M 14.37 593.50
C 7.65 590.81 12.12 588.42 40.19 579.71
L 56.58 574.63
L 61.07 580.87
C 65.49 587.01 65.52 587.13 62.69 587.77
C 50.64 590.53 25.54 594.84 21.86 594.77
C 19.38 594.73 16.01 594.15 14.37 593.50"/>
<path fill="#ae3c2a" stroke="none" d="
M 88.23 589.75
C 68.78 584.87 60.20 571.50 64.20 552.39
C 66.44 541.67 66.71 541.45 75.12 543.33
C 81.68 544.79 86.11 547.31 101.48 558.32
C 106.21 561.73 112.82 562.41 117.45 559.98
C 118.99 559.17 122.87 556.37 126.04 553.76
C 134.38 546.91 152.34 536.43 165.66 530.66
C 190.63 519.84 226.09 510.49 279.98 500.51
C 293.55 497.99 308.68 494.49 313.58 492.72
C 318.48 490.96 323.75 489.51 325.29 489.51
C 329.49 489.51 334.40 495.08 334.40 499.85
C 334.40 502.06 331.54 516.12 328.06 531.06
C 324.59 546.01 321.04 562.59 320.19 567.88
C 318.45 578.80 316.33 583.72 312.19 586.43
C 307.94 589.21 299.25 590.27 295.83 588.45
C 292.97 586.92 293.05 586.78 300.11 579.64
C 310.01 569.60 313.17 562.28 313.15 549.25
C 313.14 537.66 310.45 528.89 305.50 524.24
C 300.82 519.84 290.85 521.05 274.59 527.99
C 267.52 531.01 239.74 542.90 212.86 554.42
C 161.91 576.23 145.66 582.42 127.33 586.99
C 109.90 591.31 97.82 592.16 88.23 589.75"/>
<path fill="#ae3c2a" stroke="none" d="
M 91.00 482.76
C 86.16 465.07 72.60 397.75 71.21 384.50
C 69.75 370.48 76.89 355.45 87.00 351.24
C 91.57 349.32 103.82 348.87 106.42 350.52
C 108.58 351.89 107.06 356.63 100.35 369.46
C 92.85 383.76 92.63 387.87 98.38 406.00
C 108.65 438.40 110.94 449.10 111.59 468.04
L 112.19 485.76
L 105.17 492.77
C 101.30 496.63 97.58 499.79 96.90 499.79
C 96.22 499.79 93.55 492.13 91.00 482.76"/>
<path fill="#ae3c2a" stroke="none" d="
M 239.49 399.89
C 240.16 393.48 239.80 378.28 238.49 357.17
C 236.54 325.95 235.97 321.87 226.27 270.45
C 215.86 215.20 215.30 213.28 209.68 213.28
C 206.16 213.28 202.25 216.89 193.32 228.42
C 166.58 262.96 146.99 281.94 130.65 289.17
C 122.98 292.55 118.79 291.89 109.71 285.87
C 101.71 280.56 94.00 271.70 62.55 231.52
C 49.43 214.78 34.84 196.73 30.15 191.43
C 18.47 178.29 5.92 159.31 7.70 157.53
C 8.66 156.58 10.52 157.77 14.03 161.60
C 19.52 167.60 23.07 168.39 27.01 164.45
C 31.23 160.24 30.37 157.49 18.19 136.46
C 12.76 127.09 12.12 122.39 16.84 126.66
C 20.96 130.39 30.65 148.07 32.08 154.50
C 32.82 157.85 34.03 163.35 34.75 166.70
C 38.84 185.69 51.27 200.94 81.65 224.24
C 90.83 231.26 102.80 241.66 108.27 247.31
C 117.77 257.16 118.44 257.60 123.95 257.60
C 131.07 257.60 131.35 257.34 154.11 230.62
C 198.08 178.97 206.56 170.61 223.15 162.44
C 228.82 159.64 236.90 157.09 245.01 155.55
C 252.09 154.20 259.40 152.52 261.28 151.80
C 268.88 148.87 271.35 138.62 265.80 133.07
C 262.79 130.06 259.79 129.31 244.68 127.76
C 238.50 127.13 236.16 126.30 234.71 124.21
C 231.80 120.08 232.34 118.66 237.62 116.52
C 245.04 113.50 247.89 110.98 246.05 109.12
C 244.86 107.90 243.51 108.04 239.88 109.76
C 234.04 112.52 232.79 112.09 231.02 106.61
C 229.59 102.23 228.09 101.29 219.70 99.61
C 214.66 98.61 213.99 94.69 217.67 87.60
C 222.88 77.54 234.09 59.83 235.89 58.83
C 237.82 57.75 251.44 61.31 263.37 66.03
C 277.36 71.55 284.30 72.60 291.22 70.25
C 296.93 68.31 297.33 68.33 299.74 70.73
C 302.72 73.71 302.88 77.85 300.32 87.37
C 296.09 103.13 299.79 113.25 312.88 121.61
L 317.73 124.69
L 316.90 134.71
C 316.23 142.70 316.50 145.66 318.22 149.28
C 320.78 154.68 323.88 156.26 336.64 158.69
C 356.38 162.46 368.05 171.13 376.11 188.04
C 381.72 199.76 400.02 248.90 404.42 264.03
C 411.00 286.69 413.38 309.21 410.14 318.48
C 405.86 330.76 382.50 329.60 355.11 315.75
C 343.69 309.98 339.51 306.90 326.53 294.67
C 306.88 276.17 272.11 249.80 253.59 239.38
C 245.98 235.09 241.31 230.52 242.54 228.53
C 242.94 227.87 245.01 228.80 247.13 230.58
C 251.79 234.50 255.08 234.69 258.52 231.26
C 263.69 226.10 260.60 219.35 247.10 206.26
C 243.47 202.75 240.51 199.43 240.51 198.87
C 240.51 192.89 258.40 211.27 270.77 229.98
C 276.61 238.82 282.83 247.37 284.59 249.01
C 286.34 250.63 295.22 255.91 304.33 260.72
C 331.08 274.86 340.73 280.43 354.05 289.41
C 367.74 298.65 373.96 301.32 378.89 300.09
C 385.37 298.46 385.38 294.80 378.94 275.73
C 372.53 256.77 368.98 249.03 362.81 240.58
C 355.94 231.17 351.99 233.56 346.75 250.28
C 343.17 261.69 340.39 267.85 338.21 269.19
C 337.46 269.65 332.69 267.56 327.60 264.54
C 322.50 261.51 313.35 256.59 307.24 253.61
C 292.41 246.35 288.06 242.25 276.84 225.01
C 258.30 196.51 242.35 184.46 234.08 192.72
C 229.10 197.69 230.65 200.87 245.40 216.21
C 254.86 226.03 257.32 230.96 249.48 224.35
C 244.50 220.18 242.53 220.14 238.52 224.13
C 231.51 231.15 236.02 237.74 256.65 250.54
C 287.46 269.65 333.41 308.80 331.34 314.18
C 329.85 318.08 328.02 333.06 327.99 341.69
C 327.98 346.24 327.00 357.30 325.83 366.27
L 323.70 382.56
L 315.76 383.37
C 301.29 384.85 295.46 386.78 255.94 403.14
C 236.56 411.16 238.29 411.51 239.49 399.89
M 252.64 85.89
C 258.59 83.18 258.62 74.87 252.70 72.17
C 245.73 68.99 234.90 71.19 233.35 76.09
C 232.13 79.93 233.73 84.24 236.95 85.79
C 240.85 87.66 248.63 87.71 252.64 85.89"/>
<path fill="#fefefe" stroke="none" d="
M 105.76 552.14
C 103.60 550.55 99.42 547.40 96.47 545.14
C 91.37 541.22 85.80 538.77 75.88 536.04
L 71.38 534.81
L 82.96 523.62
C 89.32 517.46 96.90 510.60 99.79 508.36
C 102.69 506.12 109.54 500.54 115.03 495.97
C 120.51 491.40 126.30 486.77 127.88 485.69
C 170.04 456.87 235.30 418.09 249.01 413.70
C 251.76 412.83 261.96 408.75 271.66 404.62
C 291.84 396.06 306.36 391.26 316.01 389.97
L 322.70 389.07
L 321.92 402.53
C 321.38 412.15 321.85 421.00 323.53 433.55
C 326.17 453.20 325.72 457.85 319.44 475.05
L 316.05 484.37
L 306.26 487.44
C 300.87 489.13 286.62 492.33 274.59 494.56
C 193.23 509.59 153.52 523.30 121.58 547.37
C 116.00 551.59 111.03 555.03 110.56 555.03
C 110.09 555.03 107.93 553.73 105.76 552.14"/>
<path fill="#fefefe" stroke="none" d="
M 117.95 463.49
C 117.19 445.10 115.11 435.28 105.22 403.75
L 99.88 386.71
L 106.48 373.55
C 110.09 366.31 113.45 358.78 113.91 356.81
C 114.93 352.55 116.17 352.75 128.62 359.27
C 142.94 366.77 158.63 378.81 200.42 414.35
C 203.74 417.17 207.82 420.37 209.48 421.45
C 212.42 423.37 212.07 423.65 191.44 436.14
C 179.88 443.14 158.98 456.00 145.01 464.70
C 131.05 473.40 119.41 480.51 119.15 480.51
C 118.88 480.51 118.35 472.86 117.95 463.49"/>
<path fill="#fefefe" stroke="none" d="
M 247.65 82.15
C 249.62 79.98 249.77 79.08 248.50 77.04
C 246.26 73.46 246.56 72.94 249.84 74.66
C 255.40 77.60 255.48 80.85 250.03 83.33
C 245.45 85.43 244.92 85.16 247.65 82.15"/>
</g>
</svg>
