<?xml version="1.0" encoding="UTF-8" standalone="no"?>
<!DOCTYPE svg PUBLIC "-//W3C//DTD SVG 1.1//EN"
"http://www.w3.org/Graphics/SVG/1.1/DTD/svg11.dtd">
<svg width="443px" height="600px"
xmlns="http://www.w3.org/2000/svg" version="1.1">
<g transform="translate(0000, 0000) scale(1.0000, 1.0000)">
<path fill="#000000" stroke="none" d="
M 181.02 596.75
C 179.38 594.26 179.12 592.57 179.99 590.11
C 181.85 584.93 186.75 582.36 197.81 580.80
C 216.52 578.16 221.42 576.83 227.57 572.72
C 234.53 568.08 238.14 561.93 238.14 554.71
C 238.14 542.66 228.67 500.61 215.82 455.59
C 211.92 441.97 208.36 427.98 207.92 424.54
L 207.08 418.27
L 184.66 418.63
L 162.26 418.98
L 151.58 441.66
C 140.94 464.25 106.95 550.09 100.62 570.32
C 98.80 576.17 97.31 582.38 97.31 584.14
C 97.31 585.90 96.44 589.01 95.37 591.07
C 92.12 597.36 86.79 598.90 78.55 595.92
C 75.08 594.67 73.11 594.78 67.46 596.56
C 61.89 598.31 55.34 598.72 32.85 598.72
C 6.82 598.72 4.97 598.57 2.56 596.16
C -1.89 591.71 -0.22 584.85 6.12 581.63
C 8.04 580.66 13.64 579.19 18.57 578.35
C 31.48 576.19 50.39 571.05 56.00 568.17
C 62.42 564.86 68.26 558.56 72.20 550.68
C 73.97 547.13 78.93 530.71 83.24 514.22
C 87.54 497.72 93.58 475.29 96.67 464.39
C 99.76 453.49 103.26 440.53 104.44 435.61
C 105.62 430.68 108.77 422.60 111.44 417.63
C 117.37 406.63 141.98 324.38 149.48 290.55
L 154.41 268.29
L 152.13 259.20
C 149.98 250.70 142.52 203.88 139.30 178.85
C 137.01 160.95 140.62 145.98 149.48 136.61
C 151.30 134.69 156.71 131.60 161.54 129.77
C 168.53 127.10 170.47 125.77 171.12 123.16
C 172.48 117.76 170.04 113.49 163.30 109.38
C 159.83 107.27 155.09 103.73 152.76 101.51
C 148.66 97.61 148.52 97.15 148.52 87.38
C 148.52 75.85 147.55 74.20 140.72 74.20
C 137.98 74.20 134.73 73.18 132.99 71.76
L 129.97 69.33
L 132.68 63.76
C 134.17 60.70 139.35 53.42 144.19 47.58
C 149.03 41.73 156.19 32.52 160.09 27.11
C 171.80 10.85 182.56 5.80 205.50 5.78
C 218.00 5.77 220.37 6.14 226.71 9.11
C 244.51 17.44 253.29 36.12 250.00 58.67
C 248.09 71.78 244.30 81.47 237.43 90.81
C 231.92 98.28 231.74 98.80 231.74 107.91
C 231.74 125.87 235.79 131.51 252.19 136.39
C 258.19 138.18 266.27 140.79 270.15 142.20
C 292.47 150.32 291.61 150.12 295.77 148.40
C 301.34 146.09 308.46 137.49 317.27 122.43
C 321.46 115.25 330.29 101.31 336.90 91.46
C 343.49 81.59 350.56 69.80 352.59 65.23
C 366.84 33.26 377.92 12.54 384.55 5.45
C 388.88 0.81 395.83 -1.22 398.84 1.29
C 402.04 3.94 401.00 9.63 395.42 20.09
C 387.47 34.95 382.82 43.92 382.82 44.37
C 382.82 44.60 383.39 44.78 384.08 44.78
C 384.77 44.78 386.50 42.50 387.92 39.70
C 391.85 32.01 398.24 29.64 402.48 34.32
C 407.78 40.17 404.01 48.19 388.56 63.97
C 379.26 73.46 371.75 85.01 360.99 106.34
C 355.63 116.98 350.43 131.26 351.15 133.39
C 351.69 135.01 380.83 101.14 387.33 91.34
C 389.83 87.58 392.64 82.32 393.59 79.65
C 395.91 73.09 405.99 53.04 413.86 39.33
C 421.12 26.66 427.26 20.47 432.54 20.47
C 440.78 20.47 441.18 26.79 433.83 40.55
C 425.88 55.42 421.23 64.39 421.23 64.84
C 421.23 65.07 421.80 65.25 422.49 65.25
C 423.18 65.25 424.91 62.97 426.33 60.17
C 430.26 52.48 436.65 50.11 440.89 54.79
C 446.79 61.30 441.72 70.18 420.26 90.95
L 405.17 105.54
L 391.90 131.13
C 376.00 161.82 367.17 175.54 355.99 186.91
C 344.32 198.77 341.39 199.32 309.09 195.65
C 256.80 189.70 242.84 195.34 238.73 224.10
C 237.66 231.67 241.74 249.77 247.13 261.28
C 249.25 265.80 252.69 277.23 254.79 286.67
C 259.39 307.46 259.73 322.80 256.04 343.50
C 249.04 382.87 249.23 380.00 252.07 401.07
C 253.51 411.62 255.30 425.72 256.08 432.41
C 256.85 439.10 259.82 456.08 262.69 470.15
C 267.44 493.47 267.99 498.23 268.89 523.88
C 269.68 546.32 270.42 553.97 272.55 561.62
C 276.12 574.40 276.21 588.87 272.75 594.52
C 269.97 599.08 265.54 600.78 260.20 599.36
C 258.28 598.84 254.70 598.52 252.23 598.64
C 249.76 598.76 233.23 599.14 215.47 599.48
L 183.20 600.09
L 181.02 596.75
M 245.98 591.58
C 249.60 590.28 253.75 589.80 257.72 590.25
C 269.10 591.52 271.55 584.35 266.20 565.37
C 264.05 557.76 263.30 550.12 262.48 527.08
C 261.52 500.60 261.02 496.25 256.17 472.71
C 253.28 458.64 250.21 440.65 249.36 432.73
L 247.84 418.34
L 230.68 418.34
L 213.54 418.34
L 214.38 423.13
C 214.85 425.77 218.04 437.72 221.47 449.68
C 231.63 485.12 235.26 499.59 240.03 523.59
C 245.35 550.36 245.76 560.88 241.81 569.04
C 237.26 578.41 222.41 585.83 207.86 586.00
C 199.41 586.11 189.66 587.81 188.01 589.46
C 184.52 592.94 188.79 593.60 214.37 593.60
C 234.85 593.60 241.58 593.17 245.98 591.58
M 64.71 590.29
C 69.45 589.04 75.11 588.50 79.65 588.90
C 84.54 589.30 87.40 589.00 88.27 587.95
C 88.98 587.08 90.42 582.38 91.46 577.52
C 92.51 572.65 95.04 563.77 97.10 557.78
C 105.53 533.32 135.36 458.57 144.18 439.80
C 149.39 428.74 153.64 419.39 153.64 419.01
C 153.64 418.64 146.24 418.34 137.19 418.34
C 123.13 418.34 120.47 418.66 118.79 420.58
C 115.22 424.63 112.82 430.62 109.64 443.42
C 107.89 450.38 104.96 461.26 103.12 467.59
C 101.26 473.92 95.68 494.65 90.70 513.65
C 85.73 532.64 80.21 551.27 78.45 555.03
C 70.50 571.96 59.37 577.96 24.62 584.03
C 10.54 586.49 5.54 588.72 8.96 591.01
C 12.25 593.21 55.85 592.64 64.71 590.29
M 246.62 408.42
C 242.38 386.76 242.60 378.01 248.03 350.53
C 253.10 324.92 252.95 306.58 247.45 285.31
C 245.19 276.54 242.24 267.90 240.91 266.12
C 238.00 262.26 235.87 262.17 204.86 264.61
C 180.12 266.57 164.10 269.13 161.91 271.47
C 161.05 272.38 158.20 282.92 155.57 294.88
C 151.87 311.73 138.00 361.28 123.41 409.70
C 122.79 411.81 126.31 411.94 185.02 411.94
L 247.31 411.94
L 246.62 408.42
M 167.09 262.31
C 172.58 261.04 187.75 259.47 218.03 256.99
C 232.01 255.84 236.81 255.02 236.36 253.87
C 236.03 253.00 234.75 247.59 233.51 241.83
C 231.64 233.13 231.49 229.61 232.58 220.91
C 235.14 200.39 241.68 192.56 259.64 188.57
C 270.54 186.15 291.48 186.61 318.60 189.88
C 336.94 192.09 339.97 191.31 349.89 181.86
C 360.00 172.25 370.88 155.49 386.14 126.01
L 398.74 101.71
L 415.59 85.07
C 433.81 67.09 437.79 62.09 435.65 59.95
C 434.74 59.04 433.59 59.71 431.94 62.09
C 427.69 68.28 423.96 71.64 421.39 71.64
C 418.25 71.64 414.83 68.37 414.83 65.36
C 414.83 64.12 418.84 55.43 423.74 46.06
C 432.09 30.09 433.83 24.60 429.34 28.32
C 426.28 30.87 420.66 39.58 415.84 49.25
C 410.34 60.31 401.43 79.91 399.52 85.13
C 398.74 87.26 395.96 92.24 393.35 96.17
C 387.29 105.28 358.88 138.90 355.22 141.30
C 353.70 142.29 349.19 147.44 345.19 152.75
C 339.05 160.90 337.09 162.63 332.53 163.86
C 323.66 166.25 305.03 163.20 296.40 157.94
C 294.99 157.07 291.36 156.01 288.31 155.55
C 285.26 155.10 277.49 152.79 271.02 150.40
C 264.56 148.00 254.26 144.56 248.14 142.73
C 242.02 140.90 235.26 137.94 233.13 136.13
C 227.99 131.82 225.34 122.66 225.34 109.28
C 225.34 98.84 225.32 98.75 221.67 97.47
C 211.45 93.91 209.61 83.22 216.49 67.54
C 221.83 55.39 221.00 54.52 203.86 54.43
C 192.60 54.38 190.58 53.99 184.32 50.72
C 180.48 48.72 173.31 45.75 168.39 44.14
L 159.45 41.19
L 155.98 45.22
C 154.09 47.44 149.60 52.67 146.01 56.84
C 142.43 61.01 139.70 65.04 139.95 65.80
C 140.20 66.55 142.82 67.50 145.77 67.89
C 152.12 68.75 153.07 69.57 154.61 75.48
C 155.61 79.25 156.28 79.88 158.88 79.48
C 165.11 78.54 166.84 78.72 167.41 80.33
C 167.76 81.36 165.47 83.04 161.39 84.77
C 155.34 87.33 154.83 87.86 155.18 91.39
C 155.50 94.64 157.01 96.12 165.08 101.03
C 175.79 107.57 177.81 110.74 177.90 121.14
C 177.98 129.48 174.91 133.24 165.59 136.20
C 157.66 138.72 153.01 143.03 149.03 151.52
C 144.54 161.16 144.14 168.63 147.11 187.42
C 148.56 196.57 151.23 213.84 153.07 225.80
C 156.50 248.33 159.76 263.57 161.16 263.51
C 161.61 263.49 164.27 262.95 167.09 262.31
M 332.97 155.37
C 336.85 151.86 342.83 140.01 343.75 133.98
C 347.09 112.25 365.62 77.12 383.37 58.85
C 395.79 46.07 399.15 41.39 397.24 39.48
C 396.33 38.57 395.18 39.24 393.53 41.62
C 389.28 47.81 385.55 51.17 382.98 51.17
C 379.84 51.17 376.42 47.90 376.42 44.89
C 376.42 43.65 380.43 34.96 385.33 25.59
C 393.68 9.62 395.42 4.13 390.93 7.86
C 386.13 11.83 378.36 25.68 368.41 47.97
C 356.61 74.38 352.85 81.36 339.82 101.17
C 332.13 112.82 323.25 126.87 320.09 132.38
C 316.92 137.88 311.93 144.87 309.00 147.89
L 303.66 153.39
L 309.00 155.32
C 311.93 156.37 315.48 157.52 316.89 157.86
C 321.70 159.01 330.43 157.66 332.97 155.37"/>
<path fill="#000000" stroke="none" d="
M 160.34 63.67
C 157.14 62.14 155.54 57.84 156.75 54.01
C 158.30 49.14 169.08 46.95 176.02 50.11
C 181.91 52.80 181.89 61.07 175.96 63.77
C 171.96 65.59 164.22 65.54 160.34 63.67
M 173.36 61.23
C 178.83 58.75 178.71 55.52 173.05 52.54
C 169.51 50.67 168.12 51.42 170.90 53.71
C 173.40 55.78 173.36 57.44 170.73 60.35
C 168.28 63.06 168.90 63.26 173.36 61.23"/>
<path fill="#ae3c2a" stroke="none" d="
M 187.51 592.21
C 185.45 588.88 194.34 586.17 207.86 586.00
C 222.41 585.83 237.26 578.41 241.81 569.04
C 245.76 560.88 245.35 550.36 240.03 523.59
C 235.26 499.59 231.63 485.12 221.47 449.68
C 218.04 437.72 214.85 425.77 214.38 423.13
L 213.54 418.34
L 230.68 418.34
L 247.84 418.34
L 249.36 432.73
C 250.21 440.65 253.28 458.64 256.17 472.71
C 261.02 496.25 261.52 500.60 262.48 527.08
C 263.30 550.12 264.05 557.76 266.20 565.37
C 271.55 584.35 269.10 591.52 257.72 590.25
C 253.75 589.80 249.60 590.28 245.98 591.58
C 241.58 593.17 234.85 593.60 214.37 593.60
C 197.02 593.60 188.07 593.14 187.51 592.21"/>
<path fill="#ae3c2a" stroke="none" d="
M 8.96 591.01
C 5.54 588.72 10.54 586.49 24.62 584.03
C 59.37 577.96 70.50 571.96 78.45 555.03
C 80.21 551.27 85.73 532.64 90.70 513.65
C 95.68 494.65 101.26 473.92 103.12 467.59
C 104.96 461.26 107.89 450.38 109.64 443.42
C 112.82 430.62 115.22 424.63 118.79 420.58
C 120.47 418.66 123.13 418.34 137.19 418.34
C 146.24 418.34 153.64 418.64 153.64 419.01
C 153.64 419.39 149.39 428.74 144.18 439.80
C 135.36 458.57 105.53 533.32 97.10 557.78
C 95.04 563.77 92.51 572.65 91.46 577.52
C 90.42 582.38 88.98 587.08 88.27 587.95
C 87.40 589.00 84.54 589.30 79.65 588.90
C 75.11 588.50 69.45 589.04 64.71 590.29
C 55.85 592.64 12.25 593.21 8.96 591.01"/>
<path fill="#ae3c2a" stroke="none" d="
M 158.37 255.54
C 157.26 251.14 154.88 237.76 153.07 225.80
C 151.23 213.84 148.56 196.57 147.11 187.42
C 144.14 168.63 144.54 161.16 149.03 151.52
C 153.01 143.03 157.66 138.72 165.59 136.20
C 174.91 133.24 177.98 129.48 177.90 121.14
C 177.81 110.74 175.79 107.57 165.08 101.03
C 157.01 96.12 155.50 94.64 155.18 91.39
C 154.83 87.86 155.34 87.33 161.39 84.77
C 165.47 83.04 167.76 81.36 167.41 80.33
C 166.84 78.72 165.11 78.54 158.88 79.48
C 156.28 79.88 155.61 79.25 154.61 75.48
C 153.07 69.57 152.12 68.75 145.77 67.89
C 142.82 67.50 140.20 66.55 139.95 65.80
C 139.70 65.04 142.43 61.01 146.01 56.84
C 149.60 52.67 154.09 47.44 155.98 45.22
L 159.45 41.19
L 168.39 44.14
C 173.31 45.75 180.48 48.72 184.32 50.72
C 190.58 53.99 192.60 54.38 203.86 54.43
C 221.00 54.52 221.83 55.39 216.49 67.54
C 209.61 83.22 211.45 93.91 221.67 97.47
C 225.32 98.75 225.34 98.84 225.34 109.28
C 225.34 122.66 227.99 131.82 233.13 136.13
C 235.26 137.94 242.02 140.90 248.14 142.73
C 254.26 144.56 264.56 148.00 271.02 150.40
C 277.49 152.79 285.26 155.10 288.31 155.55
C 291.36 156.01 294.99 157.07 296.40 157.94
C 305.03 163.20 323.66 166.25 332.53 163.86
C 337.09 162.63 339.05 160.90 345.19 152.75
C 349.19 147.44 353.70 142.29 355.22 141.30
C 358.88 138.90 387.29 105.28 393.35 96.17
C 395.96 92.24 398.74 87.26 399.52 85.13
C 401.43 79.91 410.34 60.31 415.84 49.25
C 420.66 39.58 426.28 30.87 429.34 28.32
C 433.83 24.60 432.09 30.09 423.74 46.06
C 418.84 55.43 414.83 64.12 414.83 65.36
C 414.83 68.37 418.25 71.64 421.39 71.64
C 423.96 71.64 427.69 68.28 431.94 62.09
C 433.59 59.71 434.74 59.04 435.65 59.95
C 437.79 62.09 433.81 67.09 415.59 85.07
L 398.74 101.71
L 386.14 126.01
C 370.88 155.49 360.00 172.25 349.89 181.86
C 339.97 191.31 336.94 192.09 318.60 189.88
C 291.48 186.61 270.54 186.15 259.64 188.57
C 241.68 192.56 235.14 200.39 232.58 220.91
C 231.49 229.61 231.64 233.13 233.51 241.83
C 234.75 247.59 236.03 253.00 236.36 253.87
C 236.81 255.02 232.01 255.84 218.03 256.99
C 187.75 259.47 172.58 261.04 167.09 262.31
C 164.27 262.95 161.61 263.49 161.16 263.51
C 160.72 263.53 159.45 259.94 158.37 255.54
M 175.96 63.77
C 181.89 61.07 181.91 52.80 176.02 50.11
C 169.08 46.95 158.30 49.14 156.75 54.01
C 155.54 57.84 157.14 62.14 160.34 63.67
C 164.22 65.54 171.96 65.59 175.96 63.77"/>
<path fill="#ae3c2a" stroke="none" d="
M 316.89 157.86
C 315.48 157.52 311.93 156.37 309.00 155.32
L 303.66 153.39
L 309.00 147.89
C 311.93 144.87 316.92 137.88 320.09 132.38
C 323.25 126.87 332.13 112.82 339.82 101.17
C 352.85 81.36 356.61 74.38 368.41 47.97
C 381.21 19.30 390.47 4.66 393.73 7.92
C 394.04 8.23 390.26 16.16 385.36 25.55
C 380.44 34.95 376.42 43.65 376.42 44.89
C 376.42 47.90 379.84 51.17 382.98 51.17
C 385.55 51.17 389.28 47.81 393.53 41.62
C 395.18 39.24 396.33 38.57 397.24 39.48
C 399.15 41.39 395.79 46.07 383.37 58.85
C 365.62 77.12 347.09 112.25 343.75 133.98
C 342.83 140.01 336.85 151.86 332.97 155.37
C 330.43 157.66 321.70 159.01 316.89 157.86"/>
<path fill="#fefefe" stroke="none" d="
M 123.41 409.70
C 138.00 361.28 151.87 311.73 155.57 294.88
C 158.20 282.92 161.05 272.38 161.91 271.47
C 164.10 269.13 180.12 266.57 204.86 264.61
C 235.87 262.17 238.00 262.26 240.91 266.12
C 242.24 267.90 245.19 276.54 247.45 285.31
C 252.95 306.58 253.10 324.92 248.03 350.53
C 242.60 378.01 242.38 386.76 246.62 408.42
L 247.31 411.94
L 185.02 411.94
C 126.31 411.94 122.79 411.81 123.41 409.70"/>
<path fill="#fefefe" stroke="none" d="
M 170.99 60.05
C 172.95 57.89 173.10 56.99 171.84 54.96
C 169.61 51.40 169.90 50.88 173.17 52.59
C 178.71 55.52 178.79 58.76 173.36 61.23
C 168.80 63.31 168.28 63.04 170.99 60.05"/>
</g>
</svg>
