<?xml version="1.0" encoding="UTF-8" standalone="no"?>
<!DOCTYPE svg PUBLIC "-//W3C//DTD SVG 1.1//EN"
"http://www.w3.org/Graphics/SVG/1.1/DTD/svg11.dtd">
<svg width="361px" height="600px"
xmlns="http://www.w3.org/2000/svg" version="1.1">
<g transform="translate(0000, 0000) scale(1.0000, 1.0000)">
<path fill="#000000" stroke="none" d="
M 177.92 597.42
C 172.80 592.31 175.33 585.55 183.74 581.83
C 191.29 578.50 192.59 574.31 191.83 555.85
L 191.25 541.67
L 186.64 537.45
C 183.58 534.66 178.50 532.12 171.53 529.92
C 165.75 528.10 160.76 526.61 160.45 526.61
C 158.66 526.61 160.32 545.82 163.09 557.27
C 166.82 572.64 167.30 585.15 164.31 589.42
C 160.16 595.33 151.23 597.68 143.74 594.85
C 141.34 593.94 135.54 594.17 124.00 595.61
C 104.55 598.06 70.92 597.21 66.18 594.15
C 62.41 591.72 61.32 587.73 63.19 583.22
C 65.06 578.74 67.52 577.87 88.96 574.16
C 129.95 567.06 133.80 559.97 119.57 517.76
C 115.39 505.40 113.47 501.39 110.93 499.80
C 109.13 498.67 97.21 490.49 84.45 481.64
C 56.81 462.45 43.69 450.10 37.43 437.41
C 29.49 421.30 30.52 413.51 43.60 390.93
C 54.95 371.36 77.74 328.09 84.40 313.52
C 87.63 306.44 92.53 296.19 95.29 290.76
L 100.31 280.85
L 95.76 262.75
C 93.27 252.79 90.61 244.64 89.86 244.64
C 89.12 244.64 81.87 246.71 73.77 249.23
C 34.93 261.33 10.97 263.02 3.97 254.12
C -2.68 245.68 -0.35 232.64 11.77 210.64
C 26.52 183.86 45.19 158.46 64.26 139.20
C 76.00 127.34 86.50 121.66 99.16 120.32
C 105.44 119.65 108.18 118.69 110.54 116.33
C 112.25 114.63 113.44 112.62 113.20 111.88
C 112.95 111.14 109.29 108.70 105.06 106.44
C 99.79 103.65 97.10 101.34 96.48 99.14
C 95.99 97.36 94.93 93.42 94.13 90.39
C 93.33 87.33 91.99 84.62 91.14 84.33
C 90.30 84.05 87.16 83.19 84.15 82.43
C 78.21 80.91 75.42 77.42 76.54 72.95
C 76.93 71.42 80.13 66.77 83.64 62.63
C 88.74 56.61 90.98 52.33 94.75 41.38
C 101.92 20.59 107.91 12.49 121.05 5.88
C 133.44 -0.35 146.10 -1.42 158.67 2.70
C 174.60 7.93 184.88 16.94 191.78 31.75
C 194.81 38.25 195.29 40.93 195.30 51.50
C 195.33 66.28 193.26 70.96 179.51 87.09
C 168.33 100.20 165.36 104.97 164.31 111.53
C 162.85 120.66 164.84 121.53 198.55 126.72
C 223.03 130.48 236.06 132.10 251.17 133.26
C 264.75 134.32 265.70 133.73 276.38 117.46
C 280.92 110.58 288.95 98.94 294.24 91.61
C 304.26 77.72 306.21 74.27 317.14 50.86
C 331.40 20.36 342.74 3.86 349.44 3.86
C 352.85 3.86 357.13 8.34 357.13 11.91
C 357.13 13.51 354.18 20.02 350.60 26.39
C 343.32 39.28 340.02 46.44 340.95 47.36
C 341.29 47.69 342.81 45.85 344.33 43.26
C 348.84 35.63 355.34 33.71 358.99 38.91
C 363.80 45.76 360.47 52.36 343.52 69.53
L 332.73 80.47
L 321.81 112.96
C 302.23 171.23 298.97 174.24 258.79 171.30
C 247.99 170.50 232.02 169.30 223.30 168.62
C 214.58 167.94 206.32 167.38 204.97 167.38
C 199.76 167.38 193.11 175.39 186.28 189.91
C 180.01 203.24 179.55 204.91 178.51 218.24
C 177.08 236.87 177.30 255.05 179.06 264.45
C 179.84 268.62 182.59 276.73 185.15 282.48
C 203.73 323.99 203.94 330.67 187.62 366.31
C 173.73 396.63 166.61 426.30 164.24 463.70
C 163.39 477.18 163.43 477.41 166.46 479.27
C 168.15 480.30 175.96 485.23 183.80 490.21
C 203.13 502.51 209.75 505.67 219.19 507.19
C 229.40 508.84 232.87 511.15 234.80 517.60
C 236.62 523.66 235.54 528.31 228.82 543.35
C 226.45 548.65 223.05 558.90 221.27 566.12
C 217.61 580.92 214.64 587.47 209.29 592.55
C 201.61 599.82 183.19 602.69 177.92 597.42
M 197.23 591.00
C 206.99 586.08 210.19 580.79 215.21 561.27
C 217.28 553.18 221.05 542.11 223.59 536.68
C 226.13 531.23 228.20 525.27 228.20 523.42
C 228.20 518.01 223.34 514.27 215.04 513.30
C 205.32 512.16 199.53 509.45 180.50 497.11
L 164.38 486.66
L 162.66 502.27
C 161.70 510.86 161.42 518.32 162.01 518.85
C 162.60 519.37 168.06 521.32 174.13 523.17
C 180.20 525.03 187.17 527.88 189.60 529.52
C 197.00 534.49 197.91 537.75 197.91 559.49
C 197.91 581.94 197.13 584.06 187.45 588.35
C 182.38 590.58 181.71 591.28 183.08 592.92
C 185.44 595.75 188.69 595.31 197.23 591.00
M 122.10 588.95
C 131.08 587.76 140.61 587.24 145.39 587.70
C 152.81 588.42 153.72 588.23 156.67 585.28
C 160.62 581.34 160.74 576.98 157.23 563.95
C 153.41 549.77 152.81 534.19 155.14 510.52
C 156.25 499.18 157.33 478.94 157.55 465.53
L 157.94 441.14
L 149.56 439.53
C 140.49 437.79 123.72 437.30 118.76 438.63
L 115.69 439.44
L 116.42 460.17
C 117.21 482.74 118.70 490.52 127.51 517.91
C 135.10 541.51 136.10 547.11 134.19 555.59
C 132.38 563.69 128.12 569.43 121.35 572.88
C 115.22 576.00 109.52 577.48 89.13 581.25
C 70.52 584.69 68.62 585.35 70.86 587.59
C 74.24 590.97 101.57 591.70 122.10 588.95
M 109.65 478.84
C 108.91 472.93 108.29 465.18 108.27 461.63
L 108.26 455.15
L 95.96 444.21
C 86.98 436.21 82.37 433.02 78.89 432.37
C 70.94 430.88 42.55 429.58 42.55 430.70
C 42.55 431.28 44.33 434.52 46.50 437.90
C 51.95 446.38 65.48 458.83 81.39 470.00
C 88.74 475.15 98.20 481.88 102.41 484.96
C 106.60 488.02 110.26 490.33 110.52 490.06
C 110.79 489.80 110.39 484.75 109.65 478.84
M 108.27 441.95
C 108.25 438.45 106.68 436.76 102.49 435.77
L 98.63 434.86
L 103.08 439.53
C 108.18 444.91 108.31 444.97 108.27 441.95
M 162.82 420.63
C 166.33 400.88 173.32 378.98 182.32 359.67
C 196.05 330.12 196.15 326.16 183.77 298.24
C 179.82 289.31 176.03 280.55 175.34 278.77
C 173.85 274.82 173.27 274.80 150.85 278.18
C 141.28 279.63 128.97 281.33 123.50 281.97
C 107.13 283.89 104.32 286.31 96.62 305.15
C 90.56 319.94 61.27 376.45 48.77 397.42
C 41.70 409.29 38.07 418.36 39.75 420.04
C 40.68 420.97 144.19 431.96 156.74 432.46
L 160.70 432.62
L 162.82 420.63
M 121.88 275.46
C 127.52 274.71 141.14 272.81 152.14 271.22
L 172.12 268.34
L 171.48 260.03
C 170.61 248.83 170.84 232.58 172.09 216.77
L 173.13 203.72
L 160.52 207.36
C 153.58 209.37 147.26 211.70 146.48 212.55
C 145.38 213.72 145.81 213.85 148.27 213.10
C 150.05 212.56 154.16 211.85 157.41 211.53
C 164.14 210.86 167.61 213.14 167.61 218.23
C 167.61 223.31 166.23 225.30 160.68 228.18
C 156.08 230.58 152.99 230.99 137.95 231.17
C 120.84 231.39 120.37 231.48 109.59 236.24
C 103.57 238.91 98.46 241.24 98.24 241.42
C 97.91 241.71 105.03 271.34 106.37 275.21
C 107.05 277.17 108.75 277.20 121.88 275.46
M 38.94 251.02
C 57.46 247.25 86.95 237.88 106.29 229.61
C 123.80 222.12 123.59 222.15 137.79 224.83
C 142.03 225.64 154.28 223.51 159.05 221.12
C 163.35 218.97 159.38 217.78 152.52 219.14
C 143.91 220.87 139.51 219.77 138.47 215.64
C 137.03 209.85 140.58 206.70 153.01 202.79
C 166.78 198.45 177.37 193.35 175.82 191.81
C 174.75 190.74 171.00 191.90 148.91 200.21
C 143.95 202.08 138.38 204.09 136.52 204.67
C 132.38 205.97 127.21 208.64 126.35 209.92
C 125.99 210.45 119.32 212.12 111.52 213.64
C 103.72 215.16 95.02 217.22 92.18 218.20
C 86.94 220.03 54.94 227.90 52.76 227.90
C 50.91 227.90 46.41 222.95 46.41 220.93
C 46.41 218.23 79.46 180.58 82.75 179.54
C 87.36 178.08 89.71 182.54 91.62 196.42
C 92.56 203.25 93.98 209.10 94.76 209.41
C 97.78 210.57 118.89 204.57 129.79 199.45
C 136.06 196.53 144.36 193.08 148.27 191.81
C 152.17 190.52 159.65 187.93 164.90 186.04
C 170.15 184.15 175.83 182.87 177.53 183.19
C 180.22 183.71 181.13 182.79 184.37 176.39
C 191.06 163.15 197.61 159.89 214.40 161.45
C 245.97 164.38 278.41 165.91 282.87 164.68
C 289.50 162.85 297.34 155.42 301.64 146.86
C 303.63 142.92 309.71 126.40 315.18 110.14
C 320.65 93.88 326.02 78.82 327.13 76.69
C 328.24 74.55 333.29 68.92 338.37 64.18
C 348.34 54.90 355.53 45.59 353.95 44.07
C 353.41 43.56 352.31 44.27 351.50 45.66
C 348.52 50.81 343.09 55.36 339.92 55.36
C 336.16 55.36 332.64 52.30 332.64 49.04
C 332.64 47.79 336.68 39.03 341.65 29.55
C 350.49 12.64 351.91 6.05 344.92 14.34
C 338.75 21.68 330.01 38.70 317.92 66.95
C 313.17 78.06 308.24 86.02 294.19 105.32
C 288.67 112.89 281.93 122.77 279.22 127.26
C 271.79 139.56 269.31 140.70 252.06 139.70
C 234.44 138.70 222.92 137.34 196.62 133.24
C 164.91 128.27 162.86 127.75 159.77 123.84
C 155.45 118.36 156.91 106.38 163.46 93.67
C 163.73 93.14 163.26 92.70 162.42 92.70
C 159.03 92.70 152.41 88.52 151.03 85.49
C 148.59 80.16 149.30 76.76 155.35 64.84
C 163.44 48.91 162.98 44.70 153.84 50.97
C 149.13 54.21 148.38 54.32 137.14 53.56
C 130.67 53.12 121.97 52.17 117.80 51.46
C 100.40 48.49 102.70 47.83 96.19 57.58
C 92.98 62.38 88.81 68.19 86.92 70.48
C 84.42 73.52 83.98 74.77 85.26 75.12
C 96.55 78.12 98.67 79.30 99.96 83.30
C 101.81 89.02 102.36 89.32 106.93 86.95
C 109.14 85.80 111.52 85.22 112.21 85.65
C 114.84 87.27 113.26 89.83 108.24 92.09
C 105.37 93.39 102.72 94.93 102.34 95.54
C 101.97 96.13 104.84 98.03 108.73 99.75
C 119.43 104.47 122.50 111.01 118.03 119.63
C 115.84 123.86 111.67 125.69 101.78 126.80
C 89.66 128.14 81.92 132.71 68.33 146.55
C 54.64 160.47 36.18 184.29 26.21 200.86
C 17.60 215.16 8.30 233.88 7.14 239.21
C 6.00 244.51 8.82 249.26 14.61 251.77
C 20.18 254.19 23.92 254.07 38.94 251.02
M 74.13 215.85
L 85.74 212.87
L 85.44 204.62
C 85.27 200.07 84.67 194.67 84.09 192.62
C 83.04 188.88 83.03 188.88 71.09 202.58
C 60.73 214.47 58.11 218.97 61.64 218.86
C 62.13 218.83 67.75 217.48 74.13 215.85"/>
<path fill="#000000" stroke="none" d="
M 104.73 69.23
C 101.51 67.69 99.89 63.36 101.12 59.51
C 102.68 54.61 113.53 52.40 120.52 55.58
C 126.45 58.29 126.43 66.62 120.46 69.33
C 116.44 71.16 108.64 71.11 104.73 69.23
M 117.84 66.77
C 123.35 64.27 123.23 61.03 117.53 58.03
C 113.96 56.15 112.57 56.90 115.37 59.20
C 117.88 61.29 117.84 62.96 115.20 65.88
C 112.72 68.61 113.35 68.82 117.84 66.77"/>
<path fill="#ae3c2a" stroke="none" d="
M 183.08 592.92
C 181.71 591.28 182.38 590.58 187.45 588.35
C 197.13 584.06 197.91 581.94 197.91 559.49
C 197.91 537.75 197.00 534.49 189.60 529.52
C 187.17 527.88 180.20 525.03 174.13 523.17
C 168.06 521.32 162.60 519.37 162.01 518.85
C 161.42 518.32 161.70 510.86 162.66 502.27
L 164.38 486.66
L 180.50 497.11
C 199.53 509.45 205.32 512.16 215.04 513.30
C 223.34 514.27 228.20 518.01 228.20 523.42
C 228.20 525.27 226.13 531.23 223.59 536.68
C 221.05 542.11 217.28 553.18 215.21 561.27
C 210.19 580.79 206.99 586.08 197.23 591.00
C 188.69 595.31 185.44 595.75 183.08 592.92"/>
<path fill="#ae3c2a" stroke="none" d="
M 80.32 589.83
C 72.28 589.06 68.00 587.00 70.82 585.24
C 71.59 584.77 79.85 582.97 89.13 581.25
C 109.52 577.48 115.22 576.00 121.35 572.88
C 128.12 569.43 132.38 563.69 134.19 555.59
C 136.10 547.11 135.10 541.51 127.51 517.91
C 118.70 490.52 117.21 482.74 116.42 460.17
L 115.69 439.44
L 118.76 438.63
C 123.72 437.30 140.49 437.79 149.56 439.53
L 157.94 441.14
L 157.55 465.53
C 157.33 478.94 156.25 499.18 155.14 510.52
C 152.81 534.19 153.41 549.77 157.23 563.95
C 160.74 576.98 160.62 581.34 156.67 585.28
C 153.72 588.23 152.81 588.42 145.39 587.70
C 140.61 587.24 131.08 587.76 122.10 588.95
C 106.78 591.00 95.07 591.24 80.32 589.83"/>
<path fill="#ae3c2a" stroke="none" d="
M 102.41 484.96
C 98.20 481.88 88.74 475.15 81.39 470.00
C 65.48 458.83 51.95 446.38 46.50 437.90
C 44.33 434.52 42.55 431.28 42.55 430.70
C 42.55 429.58 70.94 430.88 78.89 432.37
C 82.37 433.02 86.98 436.21 95.96 444.21
L 108.26 455.15
L 108.27 461.63
C 108.29 465.18 108.91 472.93 109.65 478.84
C 110.39 484.75 110.79 489.80 110.52 490.06
C 110.26 490.33 106.60 488.02 102.41 484.96"/>
<path fill="#ae3c2a" stroke="none" d="
M 106.37 275.21
C 105.03 271.34 97.91 241.71 98.24 241.42
C 98.46 241.24 103.57 238.91 109.59 236.24
C 120.37 231.48 120.84 231.39 137.95 231.17
C 152.99 230.99 156.08 230.58 160.68 228.18
C 166.23 225.30 167.61 223.31 167.61 218.23
C 167.61 213.14 164.14 210.86 157.41 211.53
C 154.16 211.85 150.05 212.56 148.27 213.10
C 145.81 213.85 145.38 213.72 146.48 212.55
C 147.26 211.70 153.58 209.37 160.52 207.36
L 173.13 203.72
L 172.09 216.77
C 170.84 232.58 170.61 248.83 171.48 260.03
L 172.12 268.34
L 152.14 271.22
C 108.67 277.48 107.20 277.61 106.37 275.21"/>
<path fill="#ae3c2a" stroke="none" d="
M 14.61 251.77
C 8.82 249.26 6.00 244.51 7.14 239.21
C 8.30 233.88 17.60 215.16 26.21 200.86
C 36.18 184.29 54.64 160.47 68.33 146.55
C 81.92 132.71 89.66 128.14 101.78 126.80
C 111.67 125.69 115.84 123.86 118.03 119.63
C 122.50 111.01 119.43 104.47 108.73 99.75
C 104.84 98.03 101.97 96.13 102.34 95.54
C 102.72 94.93 105.37 93.39 108.24 92.09
C 113.26 89.83 114.84 87.27 112.21 85.65
C 111.52 85.22 109.14 85.80 106.93 86.95
C 102.36 89.32 101.81 89.02 99.96 83.30
C 98.67 79.30 96.55 78.12 85.26 75.12
C 83.98 74.77 84.42 73.52 86.92 70.48
C 88.81 68.19 92.98 62.38 96.19 57.58
C 102.70 47.83 100.40 48.49 117.80 51.46
C 121.97 52.17 130.67 53.12 137.14 53.56
C 148.38 54.32 149.13 54.21 153.84 50.97
C 162.98 44.70 163.44 48.91 155.35 64.84
C 149.30 76.76 148.59 80.16 151.03 85.49
C 152.41 88.52 159.03 92.70 162.42 92.70
C 163.26 92.70 163.73 93.14 163.46 93.67
C 159.64 101.06 158.04 106.25 157.59 112.66
C 156.87 122.91 159.64 126.72 169.24 128.65
C 192.65 133.35 231.26 138.52 252.06 139.70
C 269.29 140.70 271.78 139.56 279.25 127.26
C 281.98 122.77 290.02 110.99 297.15 101.07
C 310.67 82.25 312.43 79.12 324.32 52.79
C 333.64 32.16 337.24 25.13 341.96 18.26
C 345.52 13.08 348.75 10.52 350.07 11.83
C 350.38 12.14 346.57 20.12 341.63 29.58
C 336.68 39.04 332.64 47.79 332.64 49.04
C 332.64 52.30 336.16 55.36 339.92 55.36
C 343.09 55.36 348.52 50.81 351.50 45.66
C 352.31 44.27 353.41 43.56 353.95 44.07
C 355.53 45.59 348.34 54.90 338.37 64.18
C 333.29 68.92 328.24 74.55 327.13 76.69
C 326.02 78.82 320.65 93.88 315.18 110.14
C 309.71 126.40 303.63 142.92 301.64 146.86
C 297.34 155.42 289.50 162.85 282.87 164.68
C 278.41 165.91 245.97 164.38 214.40 161.45
C 197.61 159.89 191.06 163.15 184.37 176.39
C 181.13 182.79 180.22 183.71 177.53 183.19
C 175.83 182.87 170.15 184.15 164.90 186.04
C 159.65 187.93 152.17 190.52 148.27 191.81
C 144.36 193.08 136.06 196.53 129.79 199.45
C 118.89 204.57 97.78 210.57 94.76 209.41
C 93.98 209.10 92.56 203.25 91.62 196.42
C 89.71 182.54 87.36 178.08 82.75 179.54
C 79.46 180.58 46.41 218.23 46.41 220.93
C 46.41 222.95 50.91 227.90 52.76 227.90
C 54.94 227.90 86.94 220.03 92.18 218.20
C 95.02 217.22 103.72 215.16 111.52 213.64
C 119.32 212.12 125.99 210.45 126.35 209.92
C 127.21 208.64 132.38 205.97 136.52 204.67
C 138.38 204.09 143.95 202.08 148.91 200.21
C 171.00 191.90 174.75 190.74 175.82 191.81
C 177.37 193.35 166.78 198.45 153.01 202.79
C 140.58 206.70 137.03 209.85 138.47 215.64
C 139.51 219.77 143.91 220.87 152.52 219.14
C 159.38 217.78 163.35 218.97 159.05 221.12
C 154.28 223.51 142.03 225.64 137.79 224.83
C 123.59 222.15 123.80 222.12 106.29 229.61
C 86.95 237.88 57.46 247.25 38.94 251.02
C 23.92 254.07 20.18 254.19 14.61 251.77
M 120.46 69.33
C 126.43 66.62 126.45 58.29 120.52 55.58
C 113.53 52.40 102.68 54.61 101.12 59.51
C 99.89 63.36 101.51 67.69 104.73 69.23
C 108.64 71.11 116.44 71.16 120.46 69.33"/>
<path fill="#fefefe" stroke="none" d="
M 96.83 426.73
C 66.05 423.67 40.37 420.66 39.75 420.04
C 38.07 418.36 41.70 409.29 48.77 397.42
C 61.27 376.45 90.56 319.94 96.62 305.15
C 104.32 286.31 107.13 283.89 123.50 281.97
C 128.97 281.33 141.28 279.63 150.85 278.18
C 173.27 274.80 173.85 274.82 175.34 278.77
C 176.03 280.55 179.82 289.31 183.77 298.24
C 196.15 326.16 196.05 330.12 182.32 359.67
C 173.32 378.98 166.33 400.88 162.82 420.63
L 160.70 432.62
L 156.74 432.46
C 154.56 432.37 127.60 429.80 96.83 426.73"/>
<path fill="#fefefe" stroke="none" d="
M 115.46 65.59
C 117.43 63.41 117.58 62.51 116.31 60.46
C 114.06 56.88 114.36 56.36 117.65 58.08
C 123.23 61.03 123.31 64.29 117.84 66.77
C 113.25 68.87 112.72 68.60 115.46 65.59"/>
</g>
</svg>
