<?xml version="1.0" encoding="UTF-8" standalone="no"?>
<!DOCTYPE svg PUBLIC "-//W3C//DTD SVG 1.1//EN"
"http://www.w3.org/Graphics/SVG/1.1/DTD/svg11.dtd">
<svg width="410px" height="600px"
xmlns="http://www.w3.org/2000/svg" version="1.1">
<g transform="translate(0000, 0000) scale(1.0000, 1.0000)">
<path fill="#000000" stroke="none" d="
M 377.12 596.85
C 369.32 595.20 355.98 592.03 347.47 589.80
C 311.97 580.49 302.29 580.15 253.35 586.49
C 188.91 594.85 170.00 596.55 141.18 596.63
C 117.33 596.69 112.65 596.36 101.86 593.78
C 95.13 592.17 86.50 589.44 82.71 587.72
C 74.77 584.10 75.75 583.97 51.12 591.77
C 41.31 594.88 31.96 597.42 30.36 597.42
C 24.70 597.42 19.35 594.70 18.51 591.39
C 16.66 583.96 27.17 576.48 50.54 568.64
L 66.39 563.30
L 67.37 556.47
C 69.33 542.63 78.83 528.93 95.83 515.39
L 100.77 511.47
L 97.45 500.95
C 90.48 478.92 85.37 456.44 74.83 401.52
C 70.72 380.07 71.71 368.42 78.60 357.58
C 82.81 350.94 93.05 345.15 102.49 344.10
C 115.72 342.61 137.99 353.16 163.55 373.04
C 179.25 385.26 206.30 411.85 216.87 425.46
C 228.09 439.91 231.06 443.42 233.04 444.66
C 234.13 445.31 235.67 443.28 237.93 438.18
C 249.49 412.07 250.67 371.32 240.95 333.79
C 238.88 325.82 236.83 315.82 236.38 311.58
L 235.58 303.86
L 227.05 301.33
C 216.35 298.15 209.04 293.54 197.03 282.39
C 191.82 277.56 186.00 272.21 184.09 270.53
L 180.59 267.45
L 167.00 280.40
C 152.34 294.39 141.08 301.29 132.91 301.29
C 130.37 301.29 124.52 299.51 119.91 297.33
C 108.77 292.08 89.49 272.63 63.87 240.77
C 52.14 226.18 37.31 209.72 25.64 198.28
C 15.16 188.02 5.11 177.36 3.30 174.61
C -0.66 168.59 -0.93 163.16 2.58 159.66
C 7.28 154.96 12.76 156.98 16.81 164.90
C 18.26 167.73 19.95 169.74 20.55 169.35
C 21.65 168.68 20.31 165.80 9.23 145.11
C 3.18 133.79 2.76 131.15 6.45 127.47
C 14.27 119.65 22.60 129.21 43.01 169.36
C 50.98 185.06 57.75 192.70 76.71 207.36
C 82.39 211.75 94.27 222.41 103.14 231.06
C 121.53 249.00 129.92 256.22 132.41 256.22
C 135.09 256.22 145.50 246.06 149.08 239.95
C 151.79 235.35 152.06 234.01 150.78 231.63
C 148.98 228.28 139.22 217.56 118.58 196.27
C 95.49 172.45 90.77 164.29 96.70 158.37
C 100.49 154.58 105.13 155.09 108.51 159.66
C 110.08 161.78 111.89 163.52 112.52 163.52
C 113.97 163.52 109.41 155.96 102.32 146.64
C 94.26 136.04 92.04 130.87 93.85 126.89
C 95.89 122.43 101.16 121.36 106.63 124.30
C 112.39 127.40 123.05 141.73 131.42 157.65
C 135.12 164.69 140.62 174.24 143.65 178.89
C 151.02 190.16 171.08 208.49 174.06 206.65
C 174.78 206.21 178.47 201.68 182.26 196.60
C 191.15 184.62 204.64 171.27 214.37 164.78
C 221.75 159.86 228.00 157.58 248.19 152.47
C 258.17 149.95 264.31 145.22 264.31 140.06
C 264.31 135.12 261.91 133.91 252.12 133.89
C 234.46 133.88 230.54 131.06 228.75 117.05
C 227.72 108.89 226.43 106.87 222.25 106.87
C 218.00 106.87 214.03 102.50 214.03 97.83
C 214.03 95.68 215.97 90.03 218.36 85.27
C 222.02 77.97 228.13 62.38 237.98 35.23
C 244.30 17.83 260.44 4.91 280.57 1.13
C 291.91 -0.99 314.94 0.39 323.62 3.71
C 337.31 8.96 348.77 21.08 352.97 34.74
C 356.20 45.19 355.81 65.96 352.15 79.04
C 350.59 84.64 345.21 97.11 340.21 106.76
C 325.95 134.25 326.47 139.20 344.81 151.27
C 361.64 162.35 367.75 171.80 370.08 190.36
C 371.90 204.84 369.97 219.27 361.68 252.95
C 350.15 299.77 345.35 327.44 343.01 360.52
C 341.09 387.67 341.41 445.35 343.60 467.38
C 344.62 477.66 345.47 493.36 345.50 502.30
C 345.53 516.76 345.10 520.02 341.58 531.85
C 338.57 541.94 337.93 545.83 338.89 547.96
C 341.02 552.59 363.44 569.06 375.83 575.07
C 382.22 578.18 391.43 581.85 396.32 583.22
C 410.34 587.21 413.88 592.53 405.81 597.44
C 400.46 600.70 394.86 600.58 377.12 596.85
M 400.14 592.69
C 400.61 592.21 396.29 590.46 390.53 588.79
C 375.18 584.37 363.29 578.09 346.90 565.78
L 332.34 554.82
L 317.99 556.96
C 298.66 559.83 288.03 558.88 259.15 551.68
C 218.14 541.47 207.18 540.28 188.51 544.08
C 175.18 546.79 157.55 552.88 145.40 558.95
C 139.92 561.71 134.24 563.95 132.77 563.95
C 128.17 563.95 120.74 559.21 115.26 552.77
C 112.36 549.36 105.59 542.95 100.23 538.52
L 90.48 530.48
L 84.68 536.92
C 75.09 547.58 72.21 561.41 77.28 572.55
C 80.09 578.73 82.59 580.22 97.99 584.92
C 126.62 593.67 144.38 593.21 240.58 581.30
C 305.09 573.31 312.01 573.52 356.44 584.72
C 387.99 592.67 398.27 594.55 400.14 592.69
M 50.36 584.37
C 70.36 577.84 70.67 577.69 69.31 574.74
C 67.82 571.44 67.55 571.45 54.18 575.12
C 46.43 577.26 33.01 583.16 29.14 586.13
C 27.00 587.78 27.10 590.99 29.28 590.99
C 29.69 590.99 39.18 588.01 50.36 584.37
M 142.87 551.74
C 163.69 541.79 188.16 535.62 206.91 535.62
C 220.15 535.62 232.80 537.82 262.01 545.21
C 290.98 552.54 297.38 553.18 315.18 550.53
C 329.01 548.47 331.29 547.43 331.33 543.18
C 331.34 542.03 333.09 535.44 335.22 528.54
C 339.91 513.33 340.12 505.44 336.92 466.88
L 334.69 439.98
L 317.88 440.76
C 292.69 441.91 258.29 450.64 229.50 463.18
C 222.04 466.43 211.60 470.68 206.29 472.64
C 193.27 477.42 191.75 478.09 153.70 495.53
C 135.47 503.90 117.73 511.84 114.28 513.19
C 110.84 514.56 105.62 517.84 102.68 520.51
L 97.34 525.35
L 105.07 532.09
C 109.32 535.80 116.61 542.76 121.27 547.53
C 125.94 552.31 130.59 556.22 131.64 556.22
C 132.67 556.22 137.72 554.21 142.87 551.74
M 126.71 487.43
C 126.27 468.88 120.18 435.36 111.96 406.42
C 107.04 389.06 107.37 384.23 114.53 368.70
C 117.49 362.30 119.91 356.65 119.91 356.15
C 119.91 354.55 111.14 351.50 106.57 351.50
C 100.69 351.50 91.68 354.79 87.91 358.30
C 78.35 367.21 77.49 378.06 83.70 411.37
C 90.78 449.37 95.20 467.67 106.61 506.19
C 107.15 508.03 108.52 507.73 117.12 503.99
L 127.00 499.67
L 126.71 487.43
M 160.88 483.99
C 174.87 477.54 193.74 469.45 202.83 466.02
C 216.33 460.91 225.53 456.63 229.37 453.67
C 229.64 453.45 227.59 450.80 224.80 447.77
C 222.02 444.75 217.18 438.80 214.06 434.55
C 196.75 410.95 160.03 377.52 134.47 362.09
L 127.76 358.03
L 121.85 370.48
C 118.62 377.32 115.63 384.23 115.23 385.83
C 114.83 387.44 116.27 395.00 118.45 402.63
C 124.30 423.22 131.20 459.26 132.99 478.65
C 133.86 488.03 134.76 495.71 135.00 495.71
C 135.25 495.71 146.89 490.43 160.88 483.99
M 263.17 443.78
C 283.26 437.64 297.71 435.08 317.81 434.09
L 334.58 433.26
L 335.40 395.92
C 336.75 335.03 340.18 310.38 356.40 244.87
C 363.68 215.46 365.31 203.29 363.51 191.97
C 360.85 175.38 354.97 167.07 338.26 156.30
C 325.49 148.06 322.83 143.10 323.93 129.52
L 324.60 121.26
L 316.81 118.43
C 302.16 113.10 299.47 106.83 304.08 88.79
C 307.27 76.34 306.78 70.38 302.32 67.47
C 299.75 65.78 298.54 65.82 291.65 67.73
C 284.14 69.81 283.49 69.80 272.21 67.07
C 260.50 64.24 245.78 58.88 242.65 56.32
C 239.99 54.14 237.59 57.55 232.85 70.26
C 230.50 76.58 226.74 85.39 224.49 89.82
L 220.42 97.88
L 223.67 99.15
C 225.46 99.86 228.39 101.01 230.17 101.70
C 232.33 102.55 233.69 104.32 234.22 106.96
C 235.25 112.07 237.22 112.75 243.02 110.01
C 246.30 108.45 248.10 108.19 249.06 109.15
C 251.03 111.12 249.62 112.65 242.97 115.78
C 238.26 117.98 237.14 119.12 237.48 121.36
C 238.08 125.65 243.19 127.43 254.96 127.45
C 263.77 127.47 266.04 127.91 268.10 129.97
C 272.17 134.03 272.83 141.08 269.74 147.44
C 266.44 154.21 260.69 157.20 243.74 160.94
C 229.70 164.05 222.55 167.60 210.83 177.24
C 202.01 184.52 188.90 199.53 184.41 207.49
L 181.75 212.23
L 192.30 220.66
L 202.85 229.08
L 208.20 223.34
C 213.97 217.16 217.82 216.14 222.66 219.53
C 225.76 221.70 226.85 225.55 228.04 238.58
C 228.71 246.03 229.36 247.89 231.84 249.53
C 234.77 251.46 235.35 250.97 263.11 222.86
C 291.20 194.42 295.35 191.25 296.26 197.65
C 296.53 199.51 288.60 208.33 267.76 229.35
C 251.89 245.38 237.68 258.89 236.18 259.36
C 232.75 260.46 217.33 251.74 208.88 243.94
C 205.68 240.99 200.40 236.61 197.12 234.21
C 193.86 231.80 185.74 225.75 179.07 220.75
C 172.42 215.76 163.42 209.27 159.07 206.33
C 154.73 203.39 148.93 198.44 146.18 195.31
C 141.17 189.61 125.06 163.69 125.06 161.32
C 125.06 158.78 120.64 151.11 114.84 143.56
C 111.58 139.31 107.88 134.24 106.64 132.30
C 104.38 128.76 101.38 127.70 99.99 129.94
C 99.59 130.60 102.69 135.45 106.90 140.74
C 114.77 150.64 119.91 159.35 119.91 162.82
C 119.91 165.70 115.20 169.96 112.04 169.96
C 110.56 169.96 107.63 168.14 105.56 165.91
C 103.48 163.70 101.40 162.26 100.94 162.72
C 99.52 164.14 105.38 171.01 128.49 195.08
C 140.74 207.82 152.63 220.87 154.91 224.05
C 157.19 227.23 163.15 234.22 168.16 239.59
C 173.18 244.94 180.46 253.22 184.37 257.97
C 192.16 267.45 208.87 283.16 217.13 288.76
C 220.03 290.73 225.47 293.24 229.24 294.35
L 236.06 296.36
L 241.54 291.31
C 244.56 288.54 251.63 283.22 257.27 279.49
C 264.64 274.61 276.32 263.82 298.76 241.18
C 329.88 209.76 334.00 206.56 334.95 213.12
C 335.56 217.29 277.15 275.43 262.18 285.55
C 249.65 294.03 244.19 299.45 242.85 304.75
C 242.36 306.72 243.90 315.80 246.68 327.50
C 253.80 357.33 255.93 387.40 252.61 411.61
C 251.47 420.01 245.64 439.91 241.86 448.34
C 240.74 450.82 238.64 451.27 263.17 443.78
M 141.62 290.77
C 148.73 287.33 174.06 263.25 174.06 259.93
C 174.06 258.62 170.41 253.69 165.96 248.99
L 157.85 240.45
L 154.19 246.09
C 147.21 256.82 138.27 263.95 131.78 263.95
C 127.45 263.95 118.18 256.64 97.92 237.27
C 86.96 226.80 73.07 214.39 67.04 209.72
C 50.91 197.19 44.79 190.02 37.87 175.53
C 23.63 145.80 18.53 136.75 13.76 132.80
C 9.18 129.01 10.98 134.67 19.51 150.79
C 29.54 169.75 29.98 173.15 22.70 175.71
C 19.29 176.91 18.66 176.56 13.58 170.72
C 10.46 167.12 7.76 165.01 7.28 165.79
C 6.03 167.79 15.21 178.74 25.99 188.11
C 40.20 200.48 47.45 208.31 67.48 233.03
C 89.50 260.19 113.05 284.81 121.84 289.84
C 129.58 294.27 133.95 294.48 141.62 290.77
M 221.19 236.47
C 220.72 232.62 219.59 228.48 218.69 227.25
C 217.21 225.22 216.77 225.39 213.54 229.24
L 210.00 233.43
L 215.48 239.01
C 218.49 242.07 221.21 244.33 221.52 244.02
C 221.83 243.72 221.68 240.32 221.19 236.47"/>
<path fill="#000000" stroke="none" d="
M 241.40 83.39
C 238.17 81.85 236.56 77.52 237.79 73.67
C 239.35 68.77 250.20 66.57 257.19 69.75
C 263.12 72.45 263.10 80.78 257.13 83.50
C 253.10 85.33 245.30 85.27 241.40 83.39
M 254.51 80.94
C 260.01 78.44 259.90 75.19 254.20 72.19
C 250.63 70.31 249.24 71.06 252.03 73.36
C 254.55 75.45 254.51 77.12 251.87 80.05
C 249.39 82.78 250.02 82.98 254.51 80.94"/>
<path fill="#ae3c2a" stroke="none" d="
M 385.50 591.63
C 380.90 590.70 367.81 587.59 356.44 584.72
C 312.01 573.52 305.09 573.31 240.58 581.30
C 144.38 593.21 126.62 593.67 97.99 584.92
C 82.59 580.22 80.09 578.73 77.28 572.55
C 72.21 561.41 75.09 547.58 84.68 536.92
L 90.48 530.48
L 100.23 538.52
C 105.59 542.95 112.36 549.36 115.26 552.77
C 120.74 559.21 128.17 563.95 132.77 563.95
C 134.24 563.95 139.92 561.71 145.40 558.95
C 157.55 552.88 175.18 546.79 188.51 544.08
C 207.18 540.28 218.14 541.47 259.15 551.68
C 288.03 558.88 298.66 559.83 317.99 556.96
L 332.34 554.82
L 346.90 565.78
C 363.29 578.09 375.18 584.37 390.53 588.79
C 396.29 590.46 400.61 592.21 400.14 592.69
C 398.94 593.88 395.38 593.63 385.50 591.63"/>
<path fill="#ae3c2a" stroke="none" d="
M 27.60 589.51
C 25.35 585.86 45.28 576.67 64.59 572.46
C 67.24 571.88 68.23 572.36 69.31 574.74
C 70.67 577.69 70.36 577.84 50.36 584.37
C 39.18 588.01 29.69 590.99 29.28 590.99
C 28.85 590.99 28.11 590.32 27.60 589.51"/>
<path fill="#ae3c2a" stroke="none" d="
M 106.61 506.19
C 95.20 467.67 90.78 449.37 83.70 411.37
C 77.49 378.06 78.35 367.21 87.91 358.30
C 91.68 354.79 100.69 351.50 106.57 351.50
C 111.14 351.50 119.91 354.55 119.91 356.15
C 119.91 356.65 117.49 362.30 114.53 368.70
C 107.37 384.23 107.04 389.06 111.96 406.42
C 120.18 435.36 126.27 468.88 126.71 487.43
L 127.00 499.67
L 117.12 503.99
C 108.52 507.73 107.15 508.03 106.61 506.19"/>
<path fill="#ae3c2a" stroke="none" d="
M 241.86 448.34
C 245.64 439.91 251.47 420.01 252.61 411.61
C 255.93 387.40 253.80 357.33 246.68 327.50
C 243.90 315.80 242.36 306.72 242.85 304.75
C 244.19 299.45 249.65 294.03 262.18 285.55
C 277.15 275.43 335.56 217.29 334.95 213.12
C 334.00 206.56 329.88 209.76 298.76 241.18
C 276.32 263.82 264.64 274.61 257.27 279.49
C 251.63 283.22 244.56 288.54 241.54 291.31
L 236.06 296.36
L 229.24 294.35
C 225.47 293.24 220.03 290.73 217.13 288.76
C 208.87 283.16 192.16 267.45 184.37 257.97
C 180.46 253.22 173.18 244.94 168.16 239.59
C 163.15 234.22 157.19 227.23 154.91 224.05
C 152.63 220.87 140.74 207.82 128.49 195.08
C 105.38 171.01 99.52 164.14 100.94 162.72
C 101.40 162.26 103.48 163.70 105.56 165.91
C 107.63 168.14 110.56 169.96 112.04 169.96
C 115.20 169.96 119.91 165.70 119.91 162.82
C 119.91 159.35 114.77 150.64 106.90 140.74
C 102.69 135.45 99.59 130.60 99.99 129.94
C 101.38 127.70 104.38 128.76 106.64 132.30
C 107.88 134.24 111.58 139.31 114.84 143.56
C 120.64 151.11 125.06 158.78 125.06 161.32
C 125.06 163.69 141.17 189.61 146.18 195.31
C 148.93 198.44 154.73 203.39 159.07 206.33
C 163.42 209.27 172.42 215.76 179.07 220.75
C 185.74 225.75 193.86 231.80 197.12 234.21
C 200.40 236.61 205.68 240.99 208.88 243.94
C 217.33 251.74 232.75 260.46 236.18 259.36
C 237.68 258.89 251.89 245.38 267.76 229.35
C 288.60 208.33 296.53 199.51 296.26 197.65
C 295.35 191.25 291.20 194.42 263.11 222.86
C 235.35 250.97 234.77 251.46 231.84 249.53
C 229.36 247.89 228.71 246.03 228.04 238.58
C 226.85 225.55 225.76 221.70 222.66 219.53
C 217.82 216.14 213.97 217.16 208.20 223.34
L 202.85 229.08
L 192.30 220.66
L 181.75 212.23
L 184.41 207.49
C 188.90 199.53 202.01 184.52 210.83 177.24
C 222.55 167.60 229.70 164.05 243.74 160.94
C 260.69 157.20 266.44 154.21 269.74 147.44
C 272.83 141.08 272.17 134.03 268.10 129.97
C 266.04 127.91 263.77 127.47 254.96 127.45
C 243.19 127.43 238.08 125.65 237.48 121.36
C 237.14 119.12 238.26 117.98 242.97 115.78
C 249.62 112.65 251.03 111.12 249.06 109.15
C 248.10 108.19 246.30 108.45 243.02 110.01
C 237.22 112.75 235.25 112.07 234.22 106.96
C 233.69 104.32 232.33 102.55 230.17 101.70
C 228.39 101.01 225.46 99.86 223.67 99.15
L 220.42 97.88
L 224.49 89.82
C 226.74 85.39 230.52 76.55 232.89 70.17
C 237.21 58.56 240.28 54.39 242.93 56.55
C 245.82 58.91 260.97 64.34 272.21 67.07
C 283.49 69.80 284.14 69.81 291.65 67.73
C 298.54 65.82 299.75 65.78 302.32 67.47
C 306.78 70.38 307.27 76.34 304.08 88.79
C 299.47 106.83 302.16 113.10 316.81 118.43
L 324.60 121.26
L 323.93 129.52
C 322.83 143.10 325.49 148.06 338.26 156.30
C 354.97 167.07 360.85 175.38 363.51 191.97
C 365.31 203.29 363.68 215.46 356.40 244.87
C 340.18 310.38 336.75 335.03 335.40 395.92
L 334.58 433.26
L 317.81 434.09
C 297.71 435.08 283.26 437.64 263.17 443.78
C 238.64 451.27 240.74 450.82 241.86 448.34
M 257.13 83.50
C 263.10 80.78 263.12 72.45 257.19 69.75
C 250.20 66.57 239.35 68.77 237.79 73.67
C 236.56 77.52 238.17 81.85 241.40 83.39
C 245.30 85.27 253.10 85.33 257.13 83.50"/>
<path fill="#ae3c2a" stroke="none" d="
M 121.84 289.84
C 113.05 284.81 89.50 260.19 67.48 233.03
C 47.45 208.31 40.20 200.48 25.99 188.11
C 15.21 178.74 6.03 167.79 7.28 165.79
C 7.76 165.01 10.46 167.12 13.58 170.72
C 18.66 176.56 19.29 176.91 22.70 175.71
C 29.98 173.15 29.54 169.75 19.51 150.79
C 10.98 134.67 9.18 129.01 13.76 132.80
C 18.53 136.75 23.63 145.80 37.87 175.53
C 44.79 190.02 50.91 197.19 67.04 209.72
C 73.07 214.39 86.96 226.80 97.92 237.27
C 118.18 256.64 127.45 263.95 131.78 263.95
C 138.27 263.95 147.21 256.82 154.19 246.09
L 157.85 240.45
L 165.96 248.99
C 170.41 253.69 174.06 258.62 174.06 259.93
C 174.06 263.25 148.73 287.33 141.62 290.77
C 133.95 294.48 129.58 294.27 121.84 289.84"/>
<path fill="#fefefe" stroke="none" d="
M 121.27 547.53
C 116.61 542.76 109.32 535.80 105.07 532.09
L 97.34 525.35
L 102.68 520.51
C 105.62 517.84 110.84 514.56 114.28 513.19
C 117.73 511.84 135.47 503.90 153.70 495.53
C 191.75 478.09 193.27 477.42 206.29 472.64
C 211.60 470.68 222.04 466.43 229.50 463.18
C 258.29 450.64 292.69 441.91 317.88 440.76
L 334.69 439.98
L 336.92 466.88
C 340.12 505.44 339.91 513.33 335.22 528.54
C 333.09 535.44 331.34 542.03 331.33 543.18
C 331.29 547.43 329.01 548.47 315.18 550.53
C 297.38 553.18 290.98 552.54 262.01 545.21
C 232.80 537.82 220.15 535.62 206.91 535.62
C 188.16 535.62 163.69 541.79 142.87 551.74
C 137.72 554.21 132.67 556.22 131.64 556.22
C 130.59 556.22 125.94 552.31 121.27 547.53"/>
<path fill="#fefefe" stroke="none" d="
M 132.99 478.65
C 131.20 459.26 124.30 423.22 118.45 402.63
C 116.27 395.00 114.83 387.44 115.23 385.83
C 115.63 384.23 118.62 377.32 121.85 370.48
L 127.76 358.03
L 134.47 362.09
C 160.03 377.52 196.75 410.95 214.06 434.55
C 217.18 438.80 222.02 444.75 224.80 447.77
C 227.59 450.80 229.64 453.45 229.37 453.67
C 225.53 456.63 216.33 460.91 202.83 466.02
C 193.74 469.45 174.87 477.54 160.88 483.99
C 146.89 490.43 135.25 495.71 135.00 495.71
C 134.76 495.71 133.86 488.03 132.99 478.65"/>
<path fill="#fefefe" stroke="none" d="
M 252.12 79.75
C 254.10 77.58 254.25 76.67 252.98 74.63
C 250.73 71.05 251.03 70.52 254.32 72.24
C 259.90 75.19 259.98 78.45 254.51 80.94
C 249.92 83.03 249.39 82.76 252.12 79.75"/>
</g>
</svg>
