<?xml version="1.0" encoding="UTF-8" standalone="no"?>
<!DOCTYPE svg PUBLIC "-//W3C//DTD SVG 1.1//EN"
"http://www.w3.org/Graphics/SVG/1.1/DTD/svg11.dtd">
<svg width="385px" height="600px"
xmlns="http://www.w3.org/2000/svg" version="1.1">
<g transform="translate(0000, 0000) scale(1.0000, 1.0000)">
<path fill="#000000" stroke="none" d="
M 0.39 597.87
C -1.12 593.91 5.57 590.36 41.43 576.17
C 65.50 566.63 77.98 561.02 80.35 558.66
L 83.82 555.19
L 81.88 547.60
C 80.81 543.42 75.94 525.19 71.06 507.10
C 66.17 489.01 59.78 464.61 56.86 452.90
C 53.93 441.20 49.11 422.90 46.16 412.26
C 41.41 395.17 40.79 391.32 40.80 379.35
C 40.81 367.54 41.26 364.72 44.34 357.34
C 50.62 342.32 59.96 334.28 71.24 334.22
C 78.65 334.18 91.61 338.80 100.77 344.75
C 117.22 355.45 130.94 370.92 151.48 401.96
C 170.90 431.30 178.95 441.83 180.98 440.58
C 181.63 440.18 182.16 436.43 182.16 432.23
C 182.16 428.04 183.30 414.58 184.71 402.31
C 186.10 390.04 187.87 367.51 188.64 352.26
C 193.09 263.33 201.29 237.17 235.88 201.33
C 248.08 188.70 250.64 183.87 250.64 173.52
C 250.64 161.16 245.78 155.34 231.90 151.06
C 227.47 149.69 219.72 148.17 214.67 147.68
C 205.63 146.79 205.46 146.83 204.21 150.10
C 203.51 151.94 202.06 158.50 200.98 164.70
C 199.89 170.89 198.42 176.54 197.69 177.26
C 195.86 179.10 178.29 173.37 178.29 170.94
C 178.29 169.95 183.21 161.78 189.22 152.80
L 200.15 136.45
L 201.01 125.66
C 202.09 112.45 201.21 110.97 192.34 110.97
C 187.76 110.97 185.33 110.26 183.46 108.39
C 179.12 104.05 180.15 98.40 187.47 86.35
C 195.82 72.62 201.04 62.31 205.03 51.63
C 213.75 28.37 230.72 11.02 251.93 3.68
C 263.45 -0.31 291.46 -0.63 302.32 3.08
C 315.71 7.68 324.76 13.11 333.45 21.81
C 343.13 31.46 349.15 42.13 352.09 54.83
C 355.67 70.21 360.62 137.33 362.43 194.84
C 362.86 208.67 364.04 227.06 365.07 235.69
C 367.52 256.50 367.52 278.67 365.08 282.01
C 363.57 284.09 361.18 284.63 351.19 285.16
L 339.14 285.81
L 339.51 317.42
C 339.91 350.88 338.71 372.63 334.52 408.39
C 333.12 420.45 329.92 450.94 327.43 476.13
C 324.94 501.32 322.37 524.54 321.71 527.74
C 319.64 537.83 320.12 545.11 323.13 548.92
C 324.63 550.83 330.88 555.82 337.02 560.01
C 343.15 564.22 353.99 571.99 361.10 577.29
C 368.20 582.58 376.34 588.58 379.19 590.61
C 382.20 592.76 384.35 595.35 384.35 596.83
C 384.35 599.33 381.99 599.35 192.78 599.68
C 15.26 599.99 1.15 599.85 0.39 597.87
M 366.06 592.58
C 366.64 591.64 335.48 567.81 324.55 560.85
C 313.70 553.94 311.76 545.12 315.83 521.29
C 316.85 515.25 318.90 497.26 320.38 481.29
C 321.86 465.32 325.21 433.68 327.82 410.97
C 332.42 370.94 332.56 368.43 332.31 328.61
C 332.17 306.03 331.72 287.01 331.32 286.35
C 330.92 285.69 321.90 285.16 311.28 285.16
C 285.51 285.16 286.81 286.49 286.81 260.05
L 286.81 240.12
L 281.32 242.26
C 277.17 243.88 271.57 244.40 258.39 244.41
C 240.87 244.43 240.37 244.34 219.40 237.83
C 215.10 236.50 206.57 258.74 201.71 283.99
C 198.70 299.64 197.01 317.87 195.06 355.48
C 194.28 370.39 192.53 392.36 191.14 404.31
C 189.76 416.26 188.62 430.88 188.62 436.80
C 188.62 448.37 187.14 451.61 181.82 451.61
C 176.44 451.61 163.60 435.41 140.82 399.87
C 122.41 371.16 97.31 347.72 79.40 342.50
C 72.84 340.61 72.12 340.63 66.90 342.98
C 59.36 346.37 54.93 351.46 50.93 361.29
C 46.61 371.90 45.84 380.45 48.20 390.97
C 50.52 401.20 67.58 466.90 76.20 498.71
C 92.04 557.21 91.65 555.21 88.47 561.34
C 86.26 565.60 82.15 567.94 63.77 575.41
C 28.76 589.61 23.38 591.96 24.15 592.72
C 25.32 593.90 365.34 593.75 366.06 592.58
M 273.89 238.65
C 277.08 237.94 281.31 236.72 283.26 235.94
L 286.81 234.53
L 286.81 170.00
L 286.81 105.47
L 291.85 93.70
C 298.54 78.04 298.53 78.08 296.95 73.56
C 294.85 67.52 291.48 66.36 286.45 69.94
C 282.82 72.52 280.79 72.89 270.66 72.83
C 263.39 72.77 254.33 71.65 246.46 69.82
C 227.62 65.43 211.54 63.25 209.61 64.83
C 208.71 65.55 205.12 71.19 201.65 77.37
C 198.16 83.54 193.52 91.39 191.35 94.83
C 186.49 102.48 187.53 104.52 196.29 104.52
C 203.95 104.52 206.83 106.63 207.87 113.01
C 208.70 118.01 208.78 118.06 214.46 118.06
C 222.85 118.06 222.96 121.39 214.70 124.83
C 209.08 127.16 208.24 128.01 207.43 132.30
C 206.19 138.93 207.77 140.00 221.38 141.83
C 239.88 144.31 251.05 149.47 255.19 157.47
C 257.85 162.61 257.79 184.22 255.11 190.68
C 254.01 193.33 247.98 200.71 241.68 207.10
C 230.61 218.35 220.92 230.06 220.92 232.22
C 220.92 233.17 236.54 237.81 244.18 239.10
C 250.55 240.18 268.18 239.91 273.89 238.65"/>
<path fill="#000000" stroke="none" d="
M 212.18 88.74
C 208.95 87.19 207.33 82.85 208.56 78.99
C 210.12 74.08 221.00 71.87 228.00 75.06
C 233.95 77.77 233.92 86.12 227.94 88.84
C 223.91 90.67 216.09 90.62 212.18 88.74
M 225.32 86.27
C 230.83 83.77 230.72 80.52 225.01 77.51
C 221.43 75.63 220.03 76.37 222.83 78.68
C 225.35 80.77 225.32 82.45 222.67 85.38
C 220.19 88.12 220.82 88.32 225.32 86.27"/>
<path fill="#ae3c2a" stroke="none" d="
M 244.18 239.10
C 236.54 237.81 220.92 233.17 220.92 232.22
C 220.92 230.06 230.61 218.35 241.68 207.10
C 247.98 200.71 254.01 193.33 255.11 190.68
C 257.79 184.22 257.85 162.61 255.19 157.47
C 251.05 149.47 239.88 144.31 221.38 141.83
C 207.77 140.00 206.19 138.93 207.43 132.30
C 208.24 128.01 209.08 127.16 214.70 124.83
C 222.96 121.39 222.85 118.06 214.46 118.06
C 208.78 118.06 208.70 118.01 207.87 113.01
C 206.83 106.63 203.95 104.52 196.29 104.52
C 187.53 104.52 186.49 102.48 191.35 94.83
C 193.52 91.39 198.20 83.47 201.72 77.23
C 205.25 70.97 209.02 65.37 210.10 64.76
C 212.45 63.46 228.97 65.75 246.46 69.82
C 254.33 71.65 263.39 72.77 270.66 72.83
C 280.79 72.89 282.82 72.52 286.45 69.94
C 291.48 66.36 294.85 67.52 296.95 73.56
C 298.53 78.08 298.54 78.04 291.85 93.70
L 286.81 105.47
L 286.81 170.00
L 286.81 234.53
L 283.26 235.94
C 274.32 239.51 255.51 241.02 244.18 239.10
M 227.94 88.84
C 233.92 86.12 233.95 77.77 228.00 75.06
C 221.00 71.87 210.12 74.08 208.56 78.99
C 207.33 82.85 208.95 87.19 212.18 88.74
C 216.09 90.62 223.91 90.67 227.94 88.84"/>
<path fill="#fefefe" stroke="none" d="
M 222.93 85.08
C 224.90 82.90 225.06 82.00 223.78 79.95
C 221.53 76.36 221.83 75.83 225.12 77.56
C 230.72 80.52 230.79 83.78 225.32 86.27
C 220.72 88.37 220.19 88.10 222.93 85.08"/>
<path fill="#ffbf53" stroke="none" d="
M 24.15 592.72
C 23.38 591.96 28.76 589.61 63.77 575.41
C 82.15 567.94 86.26 565.60 88.47 561.34
C 91.65 555.21 92.04 557.21 76.20 498.71
C 67.58 466.90 50.52 401.20 48.20 390.97
C 45.84 380.45 46.61 371.90 50.93 361.29
C 54.93 351.46 59.36 346.37 66.90 342.98
C 72.12 340.63 72.84 340.61 79.40 342.50
C 97.31 347.72 122.41 371.16 140.82 399.87
C 163.60 435.41 176.44 451.61 181.82 451.61
C 187.14 451.61 188.62 448.37 188.62 436.80
C 188.62 430.88 189.76 416.26 191.14 404.31
C 192.53 392.36 194.28 370.39 195.06 355.48
C 197.65 305.38 200.46 283.29 206.88 262.22
C 210.38 250.72 215.64 239.03 217.64 238.26
C 218.53 237.92 222.68 238.77 226.87 240.15
C 243.66 245.69 269.07 246.61 281.32 242.13
L 286.81 240.12
L 286.81 260.05
C 286.81 286.49 285.51 285.16 311.28 285.16
C 321.90 285.16 330.92 285.69 331.32 286.35
C 331.72 287.01 332.17 306.03 332.31 328.61
C 332.56 368.43 332.42 370.94 327.82 410.97
C 325.21 433.68 321.86 465.32 320.38 481.29
C 318.90 497.26 316.85 515.25 315.83 521.29
C 311.76 545.12 313.70 553.94 324.55 560.85
C 335.48 567.81 366.64 591.64 366.06 592.58
C 365.34 593.75 25.32 593.90 24.15 592.72"/>
</g>
</svg>
