<?xml version="1.0" encoding="UTF-8" standalone="no"?>
<!DOCTYPE svg PUBLIC "-//W3C//DTD SVG 1.1//EN"
"http://www.w3.org/Graphics/SVG/1.1/DTD/svg11.dtd">
<svg width="445px" height="600px"
xmlns="http://www.w3.org/2000/svg" version="1.1">
<g transform="translate(0000, 0000) scale(1.0000, 1.0000)">
<path fill="#000000" stroke="none" d="
M 95.82 597.82
C 95.33 596.56 95.75 595.21 96.83 594.57
C 107.42 588.28 130.34 576.14 144.12 569.54
C 155.13 564.26 161.95 560.19 163.33 558.08
C 165.40 554.94 165.32 554.29 161.57 543.61
C 159.40 537.44 153.29 519.94 147.97 504.72
C 142.67 489.50 134.43 466.03 129.67 452.58
C 124.91 439.12 118.68 419.12 115.83 408.15
C 111.35 390.94 110.62 386.16 110.46 373.39
C 110.36 365.25 110.55 355.65 110.88 352.07
C 111.40 346.20 110.95 344.73 106.31 337.26
C 96.88 322.09 95.85 316.43 101.12 308.69
C 104.71 303.40 105.78 308.37 91.54 263.95
C 77.80 221.09 50.12 150.42 45.84 147.31
C 44.77 146.52 39.70 145.18 34.58 144.35
C 24.02 142.60 19.05 139.96 12.29 132.49
C 6.41 126.00 3.38 119.06 1.33 107.47
C -0.03 99.81 0.05 97.18 1.86 89.51
C 5.42 74.38 12.36 65.38 25.68 58.65
C 51.56 45.55 86.05 57.15 98.83 83.27
C 101.94 89.59 102.54 92.60 102.93 103.61
L 103.39 116.52
L 110.39 123.09
C 118.56 130.78 119.61 135.66 114.22 141.05
C 108.44 146.81 100.23 144.82 91.15 135.46
C 85.41 129.55 83.83 124.16 84.02 111.31
C 84.12 103.94 83.53 101.01 80.82 95.69
C 74.55 83.33 55.71 70.76 46.69 72.91
C 33.11 76.17 20.06 89.82 20.35 100.45
C 20.48 104.95 25.86 115.62 29.87 119.36
C 33.86 123.06 40.37 125.72 48.37 126.86
C 55.64 127.92 60.27 129.95 63.41 133.45
C 70.34 141.17 110.42 249.03 119.34 283.91
C 120.60 288.86 122.28 293.55 123.05 294.32
C 123.84 295.08 128.24 296.72 132.86 297.94
C 145.34 301.25 151.11 305.28 162.57 318.66
C 168.29 325.33 176.83 333.84 181.53 337.58
C 189.31 343.76 218.01 376.16 254.32 419.74
C 268.01 436.17 271.73 439.91 273.10 438.55
C 273.60 438.04 274.47 422.16 275.01 403.25
C 277.42 319.30 278.65 292.45 280.54 281.97
C 285.66 253.70 297.78 222.79 310.20 206.29
L 316.30 198.21
L 315.37 182.76
C 314.58 169.71 314.07 167.12 312.08 166.06
C 309.35 164.60 294.45 162.53 282.67 161.97
L 274.47 161.59
L 268.41 178.97
C 262.10 197.05 259.85 202.15 258.18 202.15
C 256.32 202.15 241.20 190.53 241.20 189.10
C 241.20 188.32 247.21 181.17 254.55 173.24
C 267.14 159.62 267.95 158.42 268.81 151.94
C 269.89 143.85 268.51 124.93 266.68 122.64
C 265.97 121.75 263.10 121.03 260.31 121.03
C 254.53 121.03 250.23 119.16 250.23 116.67
C 250.23 115.73 254.57 104.39 259.88 91.48
L 269.53 68.01
L 265.17 63.91
C 258.38 57.53 256.26 44.27 260.67 35.88
C 261.57 34.16 260.83 33.64 256.55 32.96
C 253.62 32.50 249.97 30.76 248.21 29.00
C 241.95 22.75 245.23 16.83 256.73 13.61
C 265.16 11.25 272.48 11.70 278.89 14.97
C 285.56 18.39 286.77 25.07 282.45 34.58
C 278.18 43.96 279.58 44.50 285.90 35.92
C 306.52 7.96 333.83 -4.33 361.64 1.85
C 377.19 5.30 388.53 11.70 400.50 23.77
C 412.01 35.37 417.72 44.16 422.84 58.16
C 425.96 66.67 426.28 69.24 426.19 84.33
C 426.08 104.65 424.03 111.79 408.85 144.85
C 393.41 178.47 391.45 188.02 398.37 195.99
C 406.82 205.71 426.06 232.65 429.72 239.86
C 437.51 255.27 438.81 263.64 434.80 272.47
C 427.75 287.94 412.84 284.21 400.58 263.95
L 397.07 258.15
L 397.82 281.97
C 398.22 295.08 399.21 324.54 400.02 347.45
C 401.89 400.76 400.86 478.53 398.04 496.21
C 395.39 512.69 388.93 537.55 384.13 549.70
C 379.95 560.27 380.12 564.08 384.91 567.21
C 386.60 568.31 396.40 572.63 406.69 576.81
C 427.16 585.10 443.04 592.71 444.37 594.88
C 444.83 595.64 444.52 597.09 443.66 598.12
C 442.32 599.76 419.04 600.00 269.39 600.00
C 108.57 600.00 96.60 599.85 95.82 597.82
M 419.71 592.51
C 420.07 591.93 412.15 588.01 402.11 583.82
C 379.46 574.34 374.06 569.92 374.06 560.96
C 374.06 557.43 375.57 551.19 377.76 545.64
C 385.49 526.12 391.42 499.52 393.34 475.85
C 395.24 452.59 394.97 382.88 392.76 325.11
C 391.73 298.20 390.86 268.21 390.85 258.48
C 390.84 248.74 390.52 240.77 390.14 240.77
C 389.77 240.77 386.03 242.51 381.82 244.62
C 359.74 255.75 333.22 257.37 307.37 249.18
C 302.19 247.53 297.74 246.57 297.48 247.02
C 296.15 249.39 291.25 265.93 289.03 275.54
C 284.88 293.51 283.90 307.92 282.41 373.39
C 280.89 440.72 280.00 449.36 274.62 449.36
C 270.64 449.36 263.97 443.67 254.41 432.10
C 226.37 398.19 187.35 353.42 179.82 346.53
C 169.90 337.45 155.34 329.65 146.48 328.65
C 129.24 326.72 118.50 340.02 116.55 365.67
C 115.56 378.75 120.24 401.19 130.15 431.01
C 138.57 456.31 161.68 522.33 166.91 535.98
C 168.74 540.79 170.61 547.78 171.05 551.54
C 172.41 563.15 170.97 564.64 145.44 577.94
C 133.20 584.33 122.02 590.45 120.60 591.52
C 118.29 593.28 133.45 593.48 268.53 593.52
C 351.32 593.55 419.34 593.09 419.71 592.51
M 120.70 330.95
C 128.68 322.15 140.50 319.12 153.17 322.66
C 162.64 325.31 146.98 309.19 136.80 305.82
C 121.85 300.86 102.67 309.57 105.06 320.23
C 106.05 324.68 113.06 336.05 114.80 336.05
C 115.51 336.05 118.16 333.76 120.70 330.95
M 116.09 296.12
C 116.09 293.97 105.30 258.93 98.85 240.13
C 85.81 202.07 62.18 142.98 58.25 138.61
C 55.12 135.10 50.48 133.07 43.21 132.01
C 30.20 130.13 23.80 125.85 18.50 115.45
C 7.31 93.52 21.70 69.26 47.04 67.30
C 61.72 66.17 78.67 76.27 86.07 90.59
C 89.01 96.26 89.53 99.01 89.76 109.75
C 89.97 119.42 90.57 123.15 92.42 126.06
C 94.71 129.68 105.45 139.02 107.33 139.04
C 107.84 139.06 108.93 137.81 109.75 136.26
C 111.10 133.76 110.61 132.91 104.96 128.03
L 98.67 122.59
L 97.94 109.09
C 97.32 97.88 96.58 94.35 93.62 88.29
C 89.04 78.94 80.13 70.07 69.59 64.36
C 61.82 60.18 60.48 59.87 49.66 59.88
C 39.48 59.90 37.21 60.33 31.23 63.46
C 21.50 68.56 14.81 75.09 10.68 83.48
C 7.67 89.60 7.12 92.32 7.22 100.43
C 7.37 111.76 10.27 119.41 17.45 127.34
C 24.21 134.81 29.18 137.45 39.74 139.20
C 44.86 140.03 49.93 141.37 51.00 142.16
C 56.44 146.12 94.78 247.47 105.11 285.19
C 108.94 299.19 109.44 300.03 112.98 298.42
C 114.69 297.64 116.09 296.61 116.09 296.12
M 348.75 178.57
L 351.32 175.13
L 348.48 166.43
C 345.07 155.96 344.75 141.86 347.68 130.64
C 348.93 125.83 352.78 118.13 357.92 110.06
C 362.45 102.98 366.80 95.48 367.58 93.42
C 369.48 88.43 368.12 83.00 364.23 79.93
C 361.07 77.46 360.97 77.46 353.81 79.92
C 342.30 83.87 332.41 83.24 292.27 76.04
C 283.82 74.52 276.48 73.74 275.95 74.30
C 275.42 74.86 271.72 83.34 267.71 93.14
C 259.89 112.30 259.80 114.59 266.91 114.59
C 272.95 114.59 275.27 117.42 276.00 125.74
C 276.64 132.90 276.83 133.24 279.90 132.77
C 286.88 131.70 289.51 132.01 289.89 133.94
C 290.15 135.22 287.82 137.11 283.16 139.40
C 276.60 142.61 276.03 143.24 276.03 147.26
C 276.03 149.65 276.75 152.21 277.64 152.95
C 278.53 153.68 285.34 154.94 292.80 155.74
C 310.74 157.69 318.41 159.48 319.77 162.04
C 320.37 163.21 321.29 170.61 321.81 178.51
L 322.72 192.85
L 334.46 187.43
C 341.24 184.29 347.27 180.55 348.75 178.57
M 272.30 48.82
C 272.73 44.28 274.33 36.95 275.85 32.55
C 277.36 28.15 278.61 23.92 278.61 23.15
C 278.61 21.18 270.48 18.03 265.43 18.03
C 260.89 18.03 252.17 21.77 252.17 23.72
C 252.17 24.85 256.09 26.28 267.97 29.51
C 274.13 31.18 275.22 34.16 270.34 36.01
C 265.47 37.85 263.50 48.85 266.91 55.20
C 269.46 59.97 271.46 57.61 272.30 48.82"/>
<path fill="#000000" stroke="none" d="
M 281.49 100.13
C 278.26 98.59 276.65 94.26 277.87 90.41
C 279.43 85.51 290.29 83.30 297.29 86.48
C 303.22 89.19 303.19 97.52 297.22 100.24
C 293.20 102.06 285.39 102.01 281.49 100.13
M 294.60 97.67
C 300.11 95.18 299.99 91.93 294.29 88.93
C 290.72 87.05 289.33 87.80 292.13 90.10
C 294.64 92.19 294.60 93.86 291.96 96.79
C 289.48 99.52 290.11 99.72 294.60 97.67"/>
<path fill="#ffbf53" stroke="none" d="
M 120.60 591.52
C 122.02 590.45 133.20 584.33 145.44 577.94
C 170.97 564.64 172.41 563.15 171.05 551.54
C 170.61 547.78 168.74 540.79 166.91 535.98
C 161.68 522.33 138.57 456.31 130.15 431.01
C 120.24 401.19 115.56 378.75 116.55 365.67
C 118.50 340.02 129.24 326.72 146.48 328.65
C 155.34 329.65 169.90 337.45 179.82 346.53
C 187.35 353.42 226.37 398.19 254.41 432.10
C 263.97 443.67 270.64 449.36 274.62 449.36
C 280.00 449.36 280.89 440.72 282.41 373.39
C 283.90 307.92 284.88 293.51 289.03 275.54
C 291.25 265.93 296.15 249.39 297.48 247.02
C 297.74 246.57 302.19 247.53 307.37 249.18
C 333.22 257.37 359.74 255.75 381.82 244.62
C 386.03 242.51 389.77 240.77 390.14 240.77
C 390.52 240.77 390.84 248.74 390.85 258.48
C 390.86 268.21 391.73 298.20 392.76 325.11
C 394.97 382.88 395.24 452.59 393.34 475.85
C 391.42 499.52 385.49 526.12 377.76 545.64
C 375.57 551.19 374.06 557.43 374.06 560.96
C 374.06 569.92 379.46 574.34 402.11 583.82
C 412.15 588.01 420.07 591.93 419.71 592.51
C 419.34 593.09 351.32 593.55 268.53 593.52
C 133.45 593.48 118.29 593.28 120.60 591.52"/>
<path fill="#ffbf53" stroke="none" d="
M 266.91 55.20
C 263.50 48.85 265.47 37.85 270.34 36.01
C 272.04 35.36 273.45 33.99 273.45 32.96
C 273.45 31.13 271.06 30.15 258.90 27.00
C 255.52 26.11 252.45 24.93 252.09 24.35
C 250.99 22.57 257.16 19.38 263.25 18.54
C 269.33 17.70 278.61 20.50 278.61 23.15
C 278.61 23.92 277.36 28.15 275.85 32.55
C 274.33 36.95 272.73 44.28 272.30 48.82
C 271.46 57.61 269.46 59.97 266.91 55.20"/>
<path fill="#c57a36" stroke="none" d="
M 108.55 296.38
C 107.82 294.48 106.27 289.44 105.11 285.19
C 94.78 247.47 56.44 146.12 51.00 142.16
C 49.93 141.37 44.86 140.03 39.74 139.20
C 29.18 137.45 24.21 134.81 17.45 127.34
C 10.27 119.41 7.37 111.76 7.22 100.43
C 7.12 92.32 7.67 89.60 10.68 83.48
C 14.82 75.06 21.55 68.52 31.23 63.52
C 37.15 60.45 39.59 59.97 49.66 59.92
C 60.53 59.87 61.80 60.15 69.59 64.36
C 80.13 70.07 89.04 78.94 93.62 88.29
C 96.58 94.35 97.32 97.88 97.94 109.09
L 98.67 122.59
L 104.96 128.03
C 110.61 132.91 111.10 133.76 109.75 136.26
C 108.93 137.81 107.84 139.06 107.33 139.04
C 105.45 139.02 94.71 129.68 92.42 126.06
C 90.57 123.15 89.97 119.42 89.76 109.75
C 89.53 99.01 89.01 96.26 86.07 90.59
C 78.67 76.27 61.72 66.17 47.04 67.30
C 21.70 69.26 7.31 93.52 18.50 115.45
C 23.80 125.85 30.20 130.13 43.21 132.01
C 50.48 133.07 55.12 135.10 58.25 138.61
C 62.18 142.98 85.81 202.07 98.85 240.13
C 105.30 258.93 116.09 293.97 116.09 296.12
C 116.09 296.61 114.69 297.64 112.98 298.42
C 110.22 299.68 109.74 299.46 108.55 296.38"/>
<path fill="#ae3c2a" stroke="none" d="
M 109.69 329.94
C 102.54 318.54 103.47 312.84 113.24 307.87
C 125.84 301.45 138.98 303.68 149.79 314.09
C 156.63 320.67 157.94 324.00 153.17 322.66
C 140.50 319.12 128.68 322.15 120.70 330.95
C 118.16 333.76 115.51 336.05 114.80 336.05
C 114.09 336.05 111.79 333.30 109.69 329.94"/>
<path fill="#ae3c2a" stroke="none" d="
M 321.81 178.51
C 321.29 170.61 320.37 163.21 319.77 162.04
C 318.41 159.48 310.74 157.69 292.80 155.74
C 285.34 154.94 278.53 153.68 277.64 152.95
C 276.75 152.21 276.03 149.65 276.03 147.26
C 276.03 143.24 276.60 142.61 283.16 139.40
C 287.82 137.11 290.15 135.22 289.89 133.94
C 289.51 132.01 286.88 131.70 279.90 132.77
C 276.83 133.24 276.64 132.90 276.00 125.74
C 275.27 117.42 272.95 114.59 266.91 114.59
C 259.82 114.59 259.92 112.33 267.85 92.88
C 271.91 82.92 275.95 74.48 276.83 74.15
C 277.71 73.82 284.71 74.68 292.38 76.07
C 331.78 83.18 342.37 83.85 353.81 79.92
C 360.97 77.46 361.07 77.46 364.23 79.93
C 368.12 83.00 369.48 88.43 367.58 93.42
C 366.80 95.48 362.45 102.98 357.92 110.06
C 352.78 118.13 348.93 125.83 347.68 130.64
C 344.75 141.86 345.07 155.96 348.48 166.43
L 351.32 175.13
L 348.75 178.57
C 347.27 180.55 341.24 184.29 334.46 187.43
L 322.72 192.85
L 321.81 178.51
M 297.22 100.24
C 303.19 97.52 303.22 89.19 297.29 86.48
C 290.29 83.30 279.43 85.51 277.87 90.41
C 276.65 94.26 278.26 98.59 281.49 100.13
C 285.39 102.01 293.20 102.06 297.22 100.24"/>
<path fill="#fefefe" stroke="none" d="
M 292.22 96.49
C 294.19 94.31 294.34 93.41 293.07 91.36
C 290.82 87.79 291.12 87.26 294.41 88.98
C 299.99 91.93 300.07 95.19 294.60 97.67
C 290.01 99.77 289.48 99.50 292.22 96.49"/>
</g>
</svg>
