<?xml version="1.0" encoding="UTF-8" standalone="no"?>
<!DOCTYPE svg PUBLIC "-//W3C//DTD SVG 1.1//EN"
"http://www.w3.org/Graphics/SVG/1.1/DTD/svg11.dtd">
<svg width="306px" height="600px"
xmlns="http://www.w3.org/2000/svg" version="1.1">
<g transform="translate(0000, 0000) scale(1.0000, 1.0000)">
<path fill="#000000" stroke="none" d="
M 1.23 598.02
C -0.13 596.40 -0.09 595.71 1.40 594.24
C 2.38 593.25 16.43 586.37 32.58 578.95
C 48.74 571.53 62.95 564.57 64.17 563.48
C 66.18 561.66 66.21 560.94 64.55 555.36
C 63.54 551.99 60.69 544.79 58.20 539.35
C 53.30 528.61 32.53 474.77 24.99 453.19
C 18.36 434.23 11.52 406.99 11.52 399.47
C 11.52 387.00 19.40 376.06 31.69 371.48
C 48.27 365.30 58.77 369.87 72.71 389.36
C 75.98 393.92 88.23 409.75 99.94 424.53
C 111.66 439.31 124.42 455.68 128.32 460.91
C 132.21 466.15 136.56 471.47 137.99 472.76
L 140.61 475.09
L 141.21 405.10
C 141.85 329.64 142.10 326.43 149.27 303.63
C 155.66 283.29 162.78 272.63 176.66 262.57
C 183.74 257.45 186.34 253.14 185.17 248.49
C 184.05 244.02 180.07 242.55 169.04 242.55
L 160.29 242.55
L 153.59 251.57
C 149.90 256.52 144.68 263.99 141.96 268.16
C 139.26 272.34 136.61 275.74 136.06 275.73
C 133.90 275.71 118.85 257.72 119.53 255.96
C 119.92 254.96 124.44 252.03 129.58 249.45
C 134.72 246.87 141.84 242.91 145.39 240.64
C 151.34 236.86 152.01 235.91 153.47 229.40
C 154.65 224.16 154.70 220.98 153.70 217.24
C 152.19 211.65 150.63 210.64 143.44 210.64
C 140.57 210.64 137.33 209.64 135.59 208.24
C 132.91 206.07 132.77 205.48 134.22 202.31
C 135.77 198.91 143.56 187.01 152.35 174.63
C 156.11 169.34 156.69 167.41 157.20 158.57
C 157.60 151.88 157.08 145.42 155.66 139.24
C 153.41 129.36 153.78 125.78 157.25 123.98
C 158.47 123.34 174.04 123.31 193.30 123.91
C 211.96 124.47 227.39 124.76 227.59 124.56
C 227.81 124.34 221.59 117.15 213.78 108.59
C 182.56 74.32 169.76 50.64 172.03 31.38
C 174.22 12.87 180.21 3.94 192.29 1.25
C 198.80 -0.20 200.30 -0.11 206.26 2.04
C 214.30 4.97 217.18 8.53 219.18 18.04
C 220.49 24.28 220.37 26.03 218.37 31.25
C 216.49 36.17 215.08 37.72 210.78 39.68
C 204.33 42.60 200.76 42.73 195.84 40.19
C 188.90 36.61 189.77 27.46 197.21 25.97
C 199.27 25.56 201.55 24.51 202.28 23.63
C 205.20 20.13 200.13 15.54 195.38 17.36
C 192.22 18.57 188.03 27.60 187.81 33.66
C 187.42 45.28 201.38 67.28 227.41 96.00
C 235.07 104.46 243.15 113.44 245.36 115.97
C 250.13 121.39 251.66 120.74 256.13 111.32
C 258.82 105.63 281.08 40.06 285.95 23.51
C 289.33 11.96 292.34 7.66 297.02 7.66
C 302.48 7.66 306.00 11.63 306.00 17.78
C 306.00 20.55 304.30 28.16 302.22 34.70
C 300.15 41.25 289.48 77.62 278.51 115.53
C 267.54 153.45 256.19 191.72 253.29 200.58
C 249.88 211.02 248.31 217.81 248.82 219.87
C 249.45 222.34 251.80 223.99 259.56 227.36
C 276.40 234.68 289.94 250.21 298.87 272.44
C 303.87 284.92 305.95 296.23 305.97 311.17
C 306.01 328.17 305.05 329.36 291.28 329.36
C 278.05 329.36 276.55 327.80 276.55 314.13
C 276.55 293.62 268.20 267.29 256.07 249.57
C 254.15 246.77 251.30 241.98 249.75 238.93
C 247.09 233.71 246.80 233.50 244.62 235.46
C 243.35 236.60 240.45 241.23 238.16 245.72
C 232.82 256.23 233.43 260.80 241.34 269.22
C 248.15 276.50 252.43 284.73 256.31 298.12
L 259.27 308.30
L 259.20 397.66
C 259.17 472.06 258.78 490.72 256.96 509.11
C 254.18 537.33 254.04 562.05 256.66 564.66
C 257.68 565.69 266.83 572.32 276.97 579.42
C 298.11 594.20 299.33 595.33 297.04 598.09
C 295.64 599.77 277.63 600.00 149.16 600.00
C 18.59 600.00 2.70 599.78 1.23 598.02
M 280.97 592.48
C 280.30 591.86 273.42 586.90 265.67 581.49
C 257.92 576.06 250.87 570.73 249.99 569.62
C 247.62 566.63 247.94 532.51 250.57 506.96
C 252.41 489.24 252.78 471.46 252.81 398.94
C 252.87 319.61 252.67 311.43 250.59 303.92
C 248.01 294.59 241.98 280.56 240.83 281.18
C 217.43 293.96 203.43 294.89 179.49 285.27
C 169.00 281.06 168.27 280.93 166.66 283.06
C 160.99 290.60 153.50 311.02 150.16 328.09
C 148.40 337.09 147.92 351.24 147.32 410.92
C 146.50 492.82 147.10 488.83 136.71 481.40
C 133.56 479.13 127.87 473.17 124.06 468.14
C 120.26 463.11 107.61 446.91 95.96 432.15
C 84.31 417.40 70.87 400.00 66.09 393.50
C 55.62 379.26 48.97 374.60 41.05 375.94
C 30.02 377.81 17.92 389.97 17.92 399.23
C 17.92 403.79 22.57 422.12 28.26 439.95
C 33.31 455.85 58.32 521.54 65.11 536.81
C 67.92 543.13 71.25 552.15 72.49 556.85
C 74.67 565.03 74.67 565.52 72.51 567.91
C 71.25 569.27 59.92 575.13 47.32 580.91
C 34.71 586.70 24.70 591.92 25.08 592.52
C 25.45 593.12 83.45 593.62 153.97 593.62
C 229.04 593.62 281.69 593.14 280.97 592.48
M 297.75 320.81
C 299.64 318.93 299.84 316.83 299.20 305.81
C 297.64 278.72 284.53 253.31 264.52 238.57
C 256.22 232.46 254.99 234.22 261.24 243.27
C 272.69 259.85 281.38 285.49 282.58 306.17
C 283.09 314.97 283.95 319.97 285.17 321.17
C 287.67 323.66 295.10 323.44 297.75 320.81
M 215.07 285.96
C 221.14 284.82 236.86 278.68 236.86 277.46
C 236.86 277.19 234.89 274.10 232.48 270.61
C 230.08 267.13 227.73 262.60 227.29 260.54
C 226.22 255.70 228.45 247.40 233.01 239.26
C 235.01 235.69 236.26 232.17 235.79 231.45
C 235.33 230.72 232.42 228.86 229.33 227.30
C 219.85 222.50 217.66 219.49 217.66 211.23
C 217.66 206.04 218.72 201.63 221.50 195.32
C 226.03 185.02 226.21 182.69 222.73 178.97
C 215.84 171.59 203.20 168.51 179.81 168.51
L 164.19 168.51
L 162.56 172.44
C 161.67 174.60 157.25 181.29 152.74 187.31
C 140.27 203.99 140.22 204.26 149.13 204.26
C 156.00 204.26 158.47 206.18 160.57 213.20
C 161.86 217.51 162.88 218.89 164.69 218.73
C 166.01 218.60 168.81 218.32 170.92 218.09
C 174.05 217.74 174.77 218.13 174.77 220.20
C 174.77 222.09 172.96 223.46 167.72 225.54
C 160.53 228.40 158.63 231.03 161.37 234.32
C 162.50 235.66 165.82 236.17 173.54 236.17
C 179.37 236.17 185.09 236.53 186.24 236.96
C 192.00 239.17 194.03 253.98 189.57 261.28
C 188.21 263.50 183.55 267.73 179.23 270.65
C 174.91 273.57 171.55 276.15 171.78 276.36
C 173.42 277.88 190.21 283.99 196.51 285.36
C 206.26 287.48 206.95 287.50 215.07 285.96
M 240.70 219.38
C 240.70 217.17 242.67 209.57 245.09 202.47
C 249.18 190.51 261.05 150.37 281.21 80.43
C 285.77 64.62 291.84 44.06 294.71 34.70
C 298.33 22.88 299.52 17.29 298.59 16.35
C 296.65 14.43 294.27 19.69 288.81 37.98
C 280.71 64.99 263.71 114.03 260.54 119.46
C 256.35 126.63 254.91 127.58 244.94 129.75
C 238.27 131.21 231.24 131.49 215.10 130.94
C 203.48 130.54 186.78 130.14 177.97 130.02
L 161.96 129.82
L 162.27 132.88
C 162.44 134.58 162.95 141.78 163.41 148.90
L 164.24 161.85
L 185.51 162.47
C 210.82 163.23 219.31 165.26 226.81 172.38
C 231.18 176.51 231.74 177.74 231.74 183.10
C 231.74 186.84 230.28 192.79 227.90 198.71
C 225.79 203.97 224.06 209.26 224.06 210.45
C 224.06 214.11 227.96 218.45 233.51 220.97
C 240.47 224.12 240.70 224.07 240.70 219.38
M 239.88 121.57
C 240.22 121.03 233.57 113.13 225.12 104.02
C 205.34 82.69 194.51 68.41 187.90 54.96
C 179.43 37.66 179.94 24.54 189.46 15.05
C 195.48 9.05 199.73 8.74 204.96 13.94
C 211.18 20.14 209.54 28.33 201.65 30.43
C 199.54 31.00 197.81 32.29 197.81 33.28
C 197.81 35.87 202.74 36.24 207.15 33.97
C 217.53 28.62 214.67 11.53 202.75 7.60
C 192.42 4.20 182.56 11.77 179.22 25.65
C 174.43 45.54 185.62 66.98 221.08 105.93
C 235.20 121.44 238.33 124.06 239.88 121.57"/>
<path fill="#000000" stroke="none" d="
M 170.58 191.20
C 167.38 189.66 165.78 185.37 166.99 181.56
C 168.54 176.69 179.32 174.51 186.26 177.66
C 192.15 180.34 192.13 188.60 186.20 191.30
C 182.20 193.11 174.46 193.06 170.58 191.20
M 183.60 188.76
C 189.07 186.28 188.95 183.06 183.29 180.09
C 179.75 178.23 178.36 178.97 181.14 181.25
C 183.64 183.32 183.60 184.98 180.98 187.88
C 178.52 190.58 179.14 190.79 183.60 188.76"/>
<path fill="#ffbf53" stroke="none" d="
M 25.08 592.52
C 24.70 591.92 34.71 586.70 47.32 580.91
C 59.92 575.13 71.25 569.27 72.51 567.91
C 74.67 565.52 74.67 565.03 72.49 556.85
C 71.25 552.15 67.92 543.13 65.11 536.81
C 58.32 521.54 33.31 455.85 28.26 439.95
C 22.57 422.12 17.92 403.79 17.92 399.23
C 17.92 389.97 30.02 377.81 41.05 375.94
C 48.97 374.60 55.62 379.26 66.09 393.50
C 70.87 400.00 84.31 417.40 95.96 432.15
C 107.61 446.91 120.26 463.11 124.06 468.14
C 127.87 473.17 133.56 479.13 136.71 481.40
C 147.10 488.83 146.50 492.82 147.32 410.92
C 147.92 351.24 148.40 337.09 150.16 328.09
C 153.50 311.02 160.99 290.60 166.66 283.06
C 168.27 280.93 169.00 281.06 179.49 285.27
C 203.43 294.89 217.43 293.96 240.83 281.18
C 241.98 280.56 248.01 294.59 250.59 303.92
C 252.67 311.43 252.87 319.61 252.81 398.94
C 252.78 471.46 252.41 489.24 250.57 506.96
C 247.94 532.51 247.62 566.63 249.99 569.62
C 250.87 570.73 257.92 576.06 265.67 581.49
C 273.42 586.90 280.30 591.86 280.97 592.48
C 281.69 593.14 229.04 593.62 153.97 593.62
C 83.45 593.62 25.45 593.12 25.08 592.52"/>
<path fill="#ffbf53" stroke="none" d="
M 221.08 105.93
C 193.38 75.51 179.46 53.69 178.22 38.77
C 176.55 18.64 188.96 3.06 203.00 7.69
C 214.69 11.53 217.40 28.69 207.15 33.97
C 202.74 36.24 197.81 35.87 197.81 33.28
C 197.81 32.29 199.54 31.00 201.65 30.43
C 209.54 28.33 211.18 20.14 204.96 13.94
C 199.73 8.74 195.48 9.05 189.46 15.05
C 179.94 24.54 179.43 37.66 187.90 54.96
C 194.51 68.41 205.34 82.69 225.12 104.02
C 233.57 113.13 240.22 121.03 239.88 121.57
C 238.33 124.06 235.20 121.44 221.08 105.93"/>
<path fill="#ff0000" stroke="none" d="
M 233.51 220.97
C 227.96 218.45 224.06 214.11 224.06 210.45
C 224.06 209.26 225.79 203.97 227.90 198.71
C 230.28 192.79 231.74 186.84 231.74 183.10
C 231.74 177.74 231.18 176.51 226.81 172.38
C 219.31 165.26 210.82 163.23 185.51 162.47
L 164.24 161.85
L 163.41 148.90
C 162.95 141.78 162.44 134.58 162.27 132.88
L 161.96 129.82
L 177.97 130.02
C 186.78 130.14 203.48 130.54 215.10 130.94
C 231.24 131.49 238.27 131.21 244.94 129.75
C 254.91 127.58 256.35 126.63 260.54 119.46
C 263.68 114.06 280.66 65.17 288.77 38.12
C 294.28 19.71 295.60 16.60 297.88 16.60
C 300.24 16.60 300.12 17.49 295.85 30.94
C 293.77 37.44 287.78 57.70 282.51 75.96
C 261.01 150.51 249.26 190.25 245.09 202.47
C 242.67 209.57 240.70 217.17 240.70 219.38
C 240.70 224.07 240.47 224.12 233.51 220.97"/>
<path fill="#ae3c2a" stroke="none" d="
M 196.51 285.36
C 190.21 283.99 173.42 277.88 171.78 276.36
C 171.55 276.15 174.91 273.57 179.23 270.65
C 183.55 267.73 188.21 263.50 189.57 261.28
C 194.03 253.98 192.00 239.17 186.24 236.96
C 185.09 236.53 179.37 236.17 173.54 236.17
C 165.82 236.17 162.50 235.66 161.37 234.32
C 158.63 231.03 160.53 228.40 167.72 225.54
C 172.96 223.46 174.77 222.09 174.77 220.20
C 174.77 218.13 174.05 217.74 170.92 218.09
C 168.81 218.32 166.01 218.60 164.69 218.73
C 162.88 218.89 161.86 217.51 160.57 213.20
C 158.47 206.18 156.00 204.26 149.13 204.26
C 140.25 204.26 140.29 204.04 152.62 187.35
C 157.06 181.35 161.67 174.66 162.86 172.48
L 165.05 168.51
L 180.23 168.51
C 203.20 168.51 215.88 171.63 222.73 178.97
C 226.21 182.69 226.03 185.02 221.50 195.32
C 218.72 201.63 217.66 206.04 217.66 211.23
C 217.66 219.49 219.85 222.50 229.33 227.30
C 232.42 228.86 235.33 230.72 235.79 231.45
C 236.26 232.17 235.01 235.69 233.01 239.26
C 228.45 247.40 226.22 255.70 227.29 260.54
C 227.73 262.60 230.08 267.13 232.48 270.61
C 234.89 274.10 236.86 277.19 236.86 277.46
C 236.86 278.68 221.14 284.82 215.07 285.96
C 206.95 287.50 206.26 287.48 196.51 285.36
M 186.20 191.30
C 192.13 188.60 192.15 180.34 186.26 177.66
C 179.32 174.51 168.54 176.69 166.99 181.56
C 165.78 185.37 167.38 189.66 170.58 191.20
C 174.46 193.06 182.20 193.11 186.20 191.30"/>
<path fill="#fefefe" stroke="none" d="
M 181.23 187.58
C 183.19 185.43 183.34 184.53 182.08 182.50
C 179.85 178.95 180.14 178.43 183.41 180.14
C 188.95 183.06 189.03 186.29 183.60 188.76
C 179.04 190.84 178.52 190.57 181.23 187.58"/>
<path fill="#ef907a" stroke="none" d="
M 285.17 321.17
C 283.95 319.97 283.09 314.97 282.58 306.17
C 281.38 285.43 272.69 259.85 261.18 243.17
C 256.84 236.89 257.01 233.95 261.59 236.39
C 266.92 239.23 279.18 251.95 284.17 259.83
C 293.84 275.09 298.20 288.43 299.20 305.81
C 299.84 316.83 299.64 318.93 297.75 320.81
C 295.10 323.44 287.67 323.66 285.17 321.17"/>
</g>
</svg>
