<?xml version="1.0" encoding="UTF-8" standalone="no"?>
<!DOCTYPE svg PUBLIC "-//W3C//DTD SVG 1.1//EN"
"http://www.w3.org/Graphics/SVG/1.1/DTD/svg11.dtd">
<svg width="373px" height="600px"
xmlns="http://www.w3.org/2000/svg" version="1.1">
<g transform="translate(0000, 0000) scale(1.0000, 1.0000)">
<path fill="#000000" stroke="none" d="
M 0.86 599.15
C -1.51 596.76 0.85 594.39 9.55 590.43
C 14.80 588.03 23.09 583.74 27.97 580.89
C 32.85 578.04 42.64 572.81 49.73 569.28
C 56.81 565.73 63.67 561.66 64.97 560.23
C 68.88 555.91 68.97 548.57 65.35 530.09
C 59.68 501.16 49.21 440.22 47.13 424.13
C 44.30 402.12 44.54 380.22 47.70 373.26
L 50.18 367.81
L 46.39 357.42
C 44.30 351.70 42.59 345.96 42.59 344.67
C 42.59 343.38 44.08 339.52 45.90 336.12
L 49.19 329.91
L 45.04 324.14
C 37.40 313.50 13.24 255.97 8.26 236.52
C 3.94 219.69 2.90 200.05 5.67 187.16
C 6.79 181.87 8.54 176.71 9.55 175.70
C 12.66 172.59 17.63 175.03 26.97 184.23
C 33.70 190.86 37.02 195.48 41.04 203.87
C 50.57 223.73 54.00 243.85 56.80 296.13
C 57.63 311.74 58.80 325.77 59.40 327.29
C 60.07 328.99 64.22 331.86 70.16 334.71
C 80.83 339.85 83.93 342.98 87.26 352.01
C 90.00 359.45 92.26 362.18 98.09 365.16
C 105.56 368.98 116.83 378.34 140.64 400.50
C 153.08 412.09 167.05 424.85 171.66 428.88
L 180.05 436.18
L 181.78 432.00
C 182.73 429.70 184.06 420.54 184.72 411.65
C 185.38 402.76 187.96 372.26 190.45 343.87
C 192.94 315.48 195.57 284.26 196.28 274.49
C 197.83 253.48 200.71 241.32 207.91 225.32
C 220.95 196.39 222.38 192.14 222.99 180.62
C 223.67 167.65 221.53 160.74 216.16 158.70
C 214.31 158.00 207.38 157.42 200.79 157.42
L 188.77 157.42
L 178.60 174.15
C 173.01 183.37 167.84 190.92 167.10 190.93
C 165.04 190.98 151.01 176.30 151.01 174.09
C 151.01 173.02 156.75 167.88 163.78 162.68
C 170.81 157.47 177.19 151.82 177.98 150.09
C 179.94 145.79 179.84 123.54 177.85 121.55
C 176.94 120.63 172.48 120.00 166.88 120.00
C 159.18 120.00 156.98 119.52 154.88 117.42
C 153.46 116.00 152.30 114.01 152.30 113.01
C 152.30 110.49 157.25 99.14 159.40 96.77
C 161.98 93.91 175.41 63.51 177.07 56.77
C 179.30 47.69 183.62 40.17 192.66 29.60
C 204.97 15.20 213.82 8.81 228.45 3.78
C 240.62 -0.41 264.22 -0.43 276.20 3.75
C 312.93 16.57 334.80 54.94 340.60 116.77
C 342.64 138.44 343.78 165.73 342.80 169.60
C 341.33 175.47 335.29 177.02 315.42 176.62
C 305.95 176.43 297.86 176.63 297.42 177.07
C 296.46 178.03 301.78 188.89 306.92 196.50
C 313.94 206.88 319.08 223.28 321.55 243.23
C 323.22 256.62 322.38 308.92 319.44 374.19
C 318.41 397.26 317.24 434.71 316.86 457.42
C 316.48 480.13 315.51 510.05 314.73 523.92
C 313.09 552.61 313.54 554.80 322.41 560.74
C 325.03 562.49 336.47 569.99 347.83 577.38
C 375.44 595.37 373.93 594.15 372.21 596.99
C 370.84 599.26 363.57 599.37 186.25 599.68
C 84.77 599.86 1.34 599.63 0.86 599.15
M 354.18 592.43
C 354.78 591.47 339.96 581.23 317.77 567.25
C 308.09 561.15 306.91 557.96 307.71 540.00
C 308.08 531.48 308.96 500.71 309.65 471.61
C 310.35 442.52 311.90 397.23 313.09 370.97
C 315.57 316.19 316.22 242.06 314.28 237.88
L 312.98 235.11
L 303.59 238.85
C 272.20 251.33 248.55 251.43 222.08 239.21
C 216.80 236.79 212.06 235.24 211.51 235.78
C 208.57 238.77 203.98 260.53 202.68 277.61
C 201.91 287.79 199.29 318.19 196.85 345.16
C 194.42 372.13 191.87 402.79 191.20 413.28
C 190.17 429.07 189.43 433.41 186.94 438.44
C 185.27 441.78 182.87 444.71 181.61 444.94
C 178.51 445.52 167.02 436.00 137.46 408.34
C 123.97 395.72 110.03 383.08 106.48 380.25
C 86.59 364.36 64.96 362.54 54.98 375.90
C 51.30 380.83 50.70 399.01 53.48 420.65
C 55.89 439.24 65.04 491.88 71.81 526.05
C 78.73 560.94 77.87 563.63 56.32 574.40
C 41.73 581.72 26.14 590.70 25.06 592.41
C 24.66 593.06 95.17 593.55 188.93 593.55
C 281.26 593.55 353.80 593.06 354.18 592.43
M 69.70 361.01
C 83.22 358.86 83.51 358.54 78.41 350.84
C 74.94 345.59 59.50 337.43 55.47 338.72
C 51.30 340.04 49.82 344.15 51.50 349.75
C 54.67 360.36 56.81 364.14 59.11 363.21
C 60.33 362.72 65.07 361.73 69.70 361.01
M 49.72 285.61
C 48.54 268.71 46.73 249.94 45.69 243.90
C 41.31 218.72 34.03 202.23 22.06 190.41
L 14.30 182.77
L 12.73 186.54
C 11.80 188.76 11.14 196.44 11.13 205.16
C 11.09 227.38 15.51 241.79 38.68 294.79
C 45.90 311.32 49.88 318.30 51.29 316.89
C 51.60 316.59 50.89 302.52 49.72 285.61
M 282.99 240.08
C 288.13 238.76 296.70 236.00 302.01 233.94
C 311.13 230.41 311.67 229.99 311.29 226.57
C 310.69 220.86 306.31 210.22 301.16 201.86
C 298.57 197.64 294.71 191.01 292.58 187.10
C 290.45 183.19 285.11 176.22 280.71 171.61
C 271.63 162.09 268.01 155.75 265.05 144.19
C 262.24 133.24 263.31 122.59 269.00 104.99
C 271.54 97.15 273.62 89.45 273.62 87.88
C 273.62 84.31 270.81 78.77 267.45 75.74
C 264.96 73.48 264.61 73.56 256.01 78.13
C 247.69 82.58 246.66 82.81 238.73 82.09
C 234.10 81.66 223.94 79.54 216.15 77.35
C 199.33 72.62 184.68 69.72 182.29 70.63
C 180.23 71.42 161.19 109.70 162.12 111.20
C 162.48 111.78 166.80 112.26 171.73 112.26
C 182.94 112.26 185.85 114.50 185.85 123.15
C 185.85 126.30 186.46 129.25 187.21 129.72
C 187.95 130.18 191.49 129.85 195.10 128.98
C 200.50 127.69 201.83 127.72 202.76 129.19
C 204.61 132.10 204.30 132.39 194.89 136.59
C 187.26 140.00 185.85 141.12 185.85 143.79
C 185.85 149.29 190.14 150.97 204.25 150.97
C 226.54 150.97 229.09 153.75 229.09 178.06
C 229.09 194.62 227.90 199.39 219.10 218.40
C 216.21 224.63 214.09 229.91 214.38 230.14
C 214.66 230.37 219.82 232.66 225.87 235.20
C 235.82 239.41 242.53 241.46 251.68 243.10
C 257.31 244.09 273.30 242.55 282.99 240.08"/>
<path fill="#000000" stroke="none" d="
M 188.73 97.77
C 185.51 96.22 183.89 91.88 185.12 88.03
C 186.68 83.11 197.55 80.90 204.54 84.09
C 210.48 86.80 210.45 95.15 204.48 97.87
C 200.45 99.70 192.64 99.65 188.73 97.77
M 201.86 95.30
C 207.37 92.80 207.25 89.55 201.55 86.54
C 197.97 84.66 196.58 85.41 199.38 87.72
C 201.90 89.81 201.86 91.48 199.21 94.41
C 196.73 97.15 197.37 97.35 201.86 95.30"/>
<path fill="#ae3c2a" stroke="none" d="
M 54.93 359.35
C 49.39 346.10 49.55 340.59 55.47 338.72
C 59.50 337.43 74.94 345.59 78.41 350.84
C 83.51 358.54 83.22 358.86 69.70 361.01
C 65.07 361.73 60.33 362.72 59.11 363.21
C 57.43 363.88 56.45 362.98 54.93 359.35"/>
<path fill="#ae3c2a" stroke="none" d="
M 251.68 243.10
C 242.53 241.46 235.82 239.41 225.87 235.20
C 219.82 232.66 214.66 230.37 214.38 230.14
C 214.09 229.91 216.21 224.63 219.10 218.40
C 227.90 199.39 229.09 194.62 229.09 178.06
C 229.09 153.75 226.54 150.97 204.25 150.97
C 190.14 150.97 185.85 149.29 185.85 143.79
C 185.85 141.12 187.26 140.00 194.89 136.59
C 204.30 132.39 204.61 132.10 202.76 129.19
C 201.83 127.72 200.50 127.69 195.10 128.98
C 191.49 129.85 187.95 130.18 187.21 129.72
C 186.46 129.25 185.85 126.30 185.85 123.15
C 185.85 114.50 182.94 112.26 171.73 112.26
C 166.80 112.26 162.48 111.78 162.12 111.20
C 160.93 109.26 180.49 71.20 182.92 70.71
C 186.22 70.04 199.81 72.76 216.15 77.35
C 223.94 79.54 234.10 81.66 238.73 82.09
C 246.66 82.81 247.69 82.58 256.01 78.13
C 264.61 73.56 264.96 73.48 267.45 75.74
C 270.81 78.77 273.62 84.31 273.62 87.88
C 273.62 89.45 271.54 97.15 269.00 104.99
C 263.31 122.59 262.24 133.24 265.05 144.19
C 268.01 155.75 271.63 162.09 280.71 171.61
C 285.11 176.22 290.45 183.19 292.58 187.10
C 294.71 191.01 298.57 197.64 301.16 201.86
C 306.31 210.22 310.69 220.86 311.29 226.57
C 311.67 229.99 311.13 230.41 302.01 233.94
C 283.94 240.94 261.98 244.93 251.68 243.10
M 204.48 97.87
C 210.45 95.15 210.48 86.80 204.54 84.09
C 197.55 80.90 186.68 83.11 185.12 88.03
C 183.89 91.88 185.51 96.22 188.73 97.77
C 192.64 99.65 200.45 99.70 204.48 97.87"/>
<path fill="#fefefe" stroke="none" d="
M 199.47 94.12
C 201.45 91.94 201.60 91.03 200.32 88.98
C 198.08 85.39 198.37 84.86 201.67 86.59
C 207.25 89.55 207.33 92.81 201.86 95.30
C 197.26 97.41 196.73 97.14 199.47 94.12"/>
<path fill="#efad53" stroke="none" d="
M 48.64 315.11
C 43.93 309.91 19.53 250.85 14.67 232.90
C 9.68 214.43 9.71 184.52 14.70 184.52
C 15.63 184.52 19.71 187.99 23.76 192.25
C 34.72 203.73 41.44 219.57 45.68 243.90
C 47.61 255.03 52.30 315.88 51.29 316.89
C 50.99 317.19 49.81 316.39 48.64 315.11"/>
<path fill="#e2ba81" stroke="none" d="
M 25.06 592.41
C 26.14 590.70 41.73 581.72 56.32 574.40
C 77.87 563.63 78.73 560.94 71.81 526.05
C 65.04 491.88 55.89 439.24 53.48 420.65
C 50.70 399.01 51.30 380.83 54.98 375.90
C 62.39 365.97 76.86 364.09 91.64 371.11
C 102.44 376.25 107.78 380.58 137.46 408.34
C 167.02 436.00 178.51 445.52 181.61 444.94
C 182.87 444.71 185.27 441.78 186.94 438.44
C 189.43 433.41 190.17 429.07 191.20 413.28
C 191.87 402.79 194.42 372.13 196.85 345.16
C 199.29 318.19 201.91 287.79 202.68 277.61
C 204.07 259.30 208.80 237.90 211.90 235.99
C 212.65 235.52 217.40 237.06 222.47 239.39
C 248.53 251.42 272.37 251.25 303.59 238.85
L 312.98 235.11
L 314.28 237.88
C 316.22 242.06 315.57 316.19 313.09 370.97
C 311.90 397.23 310.35 442.52 309.65 471.61
C 308.96 500.71 308.08 531.48 307.71 540.00
C 306.91 557.96 308.09 561.15 317.77 567.25
C 339.96 581.23 354.78 591.47 354.18 592.43
C 353.80 593.06 281.26 593.55 188.93 593.55
C 95.17 593.55 24.66 593.06 25.06 592.41"/>
</g>
</svg>
