<?xml version="1.0" encoding="UTF-8" standalone="no"?>
<!DOCTYPE svg PUBLIC "-//W3C//DTD SVG 1.1//EN"
"http://www.w3.org/Graphics/SVG/1.1/DTD/svg11.dtd">
<svg width="423px" height="600px"
xmlns="http://www.w3.org/2000/svg" version="1.1">
<g transform="translate(0000, 0000) scale(1.0000, 1.0000)">
<path fill="#000000" stroke="none" d="
M 6.45 599.09
C 2.40 597.59 0.00 594.33 0.00 590.29
C 0.00 582.85 2.91 580.98 23.10 575.43
C 43.81 569.74 52.22 565.78 58.69 558.62
C 64.62 552.06 67.77 545.55 70.83 533.51
C 73.65 522.42 74.49 513.94 79.33 448.07
C 84.56 376.85 84.95 372.88 87.54 364.57
C 93.73 344.70 106.67 333.84 135.18 324.54
C 150.15 319.66 166.69 316.45 208.28 310.38
C 227.43 307.58 245.69 304.38 248.86 303.24
C 264.83 297.58 267.86 287.28 265.42 247.09
C 264.05 224.59 264.13 220.40 266.12 208.21
C 268.97 190.75 278.95 155.63 283.05 148.65
C 286.74 142.36 293.38 136.24 300.36 132.68
C 306.61 129.50 307.22 127.84 305.11 119.74
C 302.74 110.61 300.81 109.53 286.85 109.48
L 275.17 109.44
L 271.51 117.09
C 269.49 121.30 265.03 127.51 261.60 130.88
L 255.36 137.02
L 250.19 131.97
C 247.35 129.21 245.03 126.22 245.03 125.32
C 245.03 124.43 248.45 121.38 252.63 118.55
C 262.94 111.57 269.80 103.44 269.02 99.18
C 268.68 97.39 268.04 93.13 267.59 89.72
C 266.81 83.87 266.45 83.38 261.06 81.08
C 257.58 79.58 255.35 77.79 255.35 76.49
C 255.35 74.15 260.57 64.58 268.98 51.50
C 271.95 46.89 276.79 38.30 279.75 32.41
C 286.57 18.84 293.52 11.29 303.57 6.53
C 322.55 -2.47 344.82 -1.88 360.31 8.05
C 375.83 17.99 383.54 35.91 385.57 66.72
C 387.91 102.22 389.48 133.25 390.26 159.01
C 391.24 191.20 392.01 189.67 374.42 190.56
L 361.74 191.20
L 361.39 226.21
L 361.06 261.21
L 371.50 257.41
C 396.65 248.24 417.56 252.06 421.74 266.61
C 423.83 273.88 423.34 357.22 421.16 365.39
C 420.16 369.13 415.25 379.56 410.26 388.57
C 398.88 409.08 397.50 414.72 400.41 428.99
C 403.01 441.86 408.41 454.06 415.04 462.01
C 417.79 465.32 420.70 469.29 421.52 470.83
C 423.99 475.55 423.19 483.45 419.22 493.35
C 416.89 499.20 414.67 508.34 413.42 517.33
C 412.30 525.32 409.95 540.24 408.18 550.48
C 405.63 565.30 405.14 571.43 405.78 580.56
C 406.57 591.55 406.47 592.16 403.42 595.20
C 400.96 597.66 398.30 598.57 391.53 599.29
C 374.37 601.13 362.34 597.82 362.41 591.31
C 362.48 586.83 367.31 578.51 375.72 568.45
C 388.66 552.99 392.89 536.97 391.71 507.97
C 390.98 489.64 389.88 486.58 372.96 455.29
C 362.54 436.03 354.65 417.39 354.65 412.02
C 354.65 410.70 353.73 408.72 352.62 407.60
C 350.83 405.81 342.01 405.58 275.12 405.58
L 199.64 405.58
L 195.97 409.49
C 190.85 414.97 189.89 421.75 189.05 457.73
C 188.66 474.72 187.67 495.86 186.86 504.72
C 186.04 513.58 185.50 526.03 185.67 532.40
C 185.84 538.78 186.06 546.81 186.15 550.25
C 186.31 556.25 186.04 556.76 179.93 562.06
L 173.53 567.59
L 172.64 579.81
C 172.15 586.53 171.11 593.21 170.32 594.67
C 168.41 598.25 161.36 599.99 148.72 599.99
C 136.79 600.00 132.36 598.76 130.24 594.84
C 127.85 590.38 129.87 585.57 141.31 568.36
C 155.30 547.31 157.54 540.57 157.53 519.53
C 157.53 509.45 156.33 496.03 154.09 480.90
C 150.07 453.88 148.50 420.22 150.76 409.44
C 151.58 405.55 154.19 397.58 156.55 391.74
L 160.86 381.12
L 156.83 381.12
C 143.68 381.14 135.46 396.45 132.77 425.97
C 129.90 457.18 127.29 471.45 117.12 511.11
C 107.88 547.17 106.76 552.80 107.10 561.37
C 107.97 582.99 107.68 586.93 104.95 590.65
C 98.93 598.87 88.34 600.53 66.98 596.63
C 56.02 594.63 55.03 594.64 41.01 597.28
C 27.38 599.85 10.86 600.71 6.45 599.09
M 39.11 590.74
C 53.40 588.10 55.05 588.04 65.55 589.75
C 71.70 590.76 80.32 591.59 84.69 591.61
C 91.41 591.63 93.19 591.13 96.12 588.41
C 101.39 583.51 102.07 580.39 100.55 568.17
C 98.91 554.97 99.82 549.68 110.96 507.30
C 118.45 478.82 122.52 461.32 122.52 457.61
C 122.52 456.01 121.91 456.04 118.44 457.83
C 116.20 458.99 111.11 460.21 107.16 460.56
C 101.00 461.09 98.86 460.62 92.53 457.39
C 85.35 453.73 85.12 453.70 85.10 456.31
C 85.09 457.80 83.93 474.06 82.50 492.46
C 79.63 529.47 77.03 543.32 70.67 555.22
C 63.71 568.27 54.04 574.44 30.72 580.71
C 10.21 586.22 8.06 587.00 7.23 589.17
C 5.34 594.08 17.76 594.70 39.11 590.74
M 143.70 590.27
C 144.80 585.88 150.04 586.30 150.68 590.82
C 151.07 593.60 151.58 593.81 156.33 593.18
C 164.17 592.12 165.23 590.33 166.29 576.35
L 167.23 564.01
L 173.87 556.98
C 179.97 550.55 180.45 549.62 179.57 545.69
C 178.19 539.47 178.55 525.82 180.97 493.43
C 182.16 477.66 183.14 455.34 183.15 443.86
C 183.19 422.69 184.19 414.95 187.89 407.19
C 191.82 398.90 189.24 399.14 274.37 399.14
C 332.69 399.14 351.93 398.77 353.10 397.60
C 355.11 395.59 355.11 384.67 353.10 382.66
C 351.12 380.68 173.97 380.41 170.28 382.38
C 167.76 383.73 160.66 399.48 157.81 410.09
C 155.53 418.57 155.62 441.33 158.01 459.01
C 159.06 466.80 160.88 480.13 162.04 488.63
C 163.22 497.12 164.14 511.89 164.12 521.46
C 164.05 544.60 162.08 550.73 147.48 572.87
C 138.25 586.88 136.65 590.02 137.99 591.63
C 140.40 594.53 142.78 593.96 143.70 590.27
M 391.37 592.31
C 398.83 590.59 399.94 588.36 399.05 576.89
C 398.47 569.34 399.17 562.13 402.17 544.64
C 404.30 532.25 406.70 516.89 407.51 510.52
C 408.36 503.83 410.59 494.94 412.77 489.49
C 414.85 484.31 416.55 479.34 416.55 478.45
C 416.55 477.57 413.48 472.79 409.72 467.83
C 398.52 453.08 393.04 437.19 392.93 419.10
C 392.85 405.68 394.20 401.45 404.31 383.69
C 416.95 361.47 416.75 362.70 416.29 312.64
C 415.95 273.76 415.69 269.42 413.57 266.30
C 410.76 262.18 402.87 258.80 396.03 258.80
C 389.01 258.80 374.47 263.47 367.22 268.06
L 361.10 271.94
L 361.10 341.36
L 361.10 410.78
L 364.35 420.09
C 366.14 425.21 372.83 439.07 379.22 450.89
C 396.27 482.46 397.52 486.21 398.21 507.63
C 398.83 526.78 397.28 541.22 393.20 554.47
C 391.26 560.69 388.63 565.06 382.25 572.64
C 370.05 587.10 367.82 592.27 373.79 592.27
C 375.08 592.27 376.64 590.63 377.51 588.31
C 379.58 582.82 383.67 583.57 383.65 589.42
C 383.64 593.95 383.89 594.05 391.37 592.31
M 117.03 452.50
C 124.45 448.80 124.18 449.56 125.78 428.11
C 127.48 405.14 131.99 389.41 139.02 381.93
C 146.04 374.47 143.11 374.68 239.51 374.67
C 322.11 374.67 328.44 374.51 331.67 372.39
C 336.92 368.92 339.47 365.06 347.39 348.59
L 354.68 333.45
L 354.34 262.33
L 354.00 191.20
L 342.62 190.56
C 330.20 189.86 327.57 188.29 327.57 181.62
C 327.55 178.38 327.40 178.33 317.57 178.22
C 309.07 178.13 292.98 175.00 284.70 171.84
C 283.01 171.19 282.08 172.76 279.98 179.83
C 271.42 208.62 270.87 214.31 272.04 262.66
C 272.63 286.96 271.35 294.63 265.56 301.65
C 259.73 308.70 251.83 310.91 211.24 316.78
C 156.11 324.75 133.72 330.40 116.51 340.73
C 95.67 353.21 91.81 363.24 88.29 414.33
C 85.84 449.85 85.59 448.56 96.08 453.37
C 103.18 456.63 109.23 456.37 117.03 452.50
M 353.10 373.13
C 354.06 372.18 354.64 367.62 354.60 361.22
L 354.56 350.86
L 350.05 360.46
C 347.56 365.74 344.59 371.11 343.44 372.37
C 341.47 374.55 341.64 374.68 346.46 374.68
C 349.26 374.68 352.25 373.98 353.10 373.13
M 325.53 173.03
C 327.32 172.35 327.57 167.70 327.58 134.09
C 327.58 113.10 328.12 92.61 328.79 88.57
C 329.67 83.19 331.56 78.93 335.90 72.62
C 342.38 63.15 344.11 58.49 341.95 56.33
C 341.16 55.55 335.14 54.76 328.56 54.58
C 318.53 54.31 295.36 50.33 284.13 46.94
C 281.69 46.21 280.28 47.68 273.48 57.93
C 261.94 75.33 262.26 74.30 267.52 76.49
C 270.71 77.82 272.25 79.43 272.82 81.99
C 274.37 89.02 274.45 89.10 278.88 88.12
C 285.81 86.58 286.94 86.77 286.94 89.45
C 286.94 91.27 285.34 92.58 281.19 94.11
C 269.48 98.42 273.85 103.00 289.69 103.00
C 306.77 103.00 309.89 105.37 312.36 120.30
C 314.19 131.33 312.99 133.87 303.05 140.15
C 294.57 145.51 288.61 152.59 285.73 160.73
L 283.89 165.94
L 290.08 168.00
C 304.02 172.62 320.50 174.97 325.53 173.03"/>
<path fill="#000000" stroke="none" d="
M 285.31 71.81
C 282.08 70.26 280.47 65.94 281.69 62.09
C 283.26 57.18 294.11 54.98 301.10 58.16
C 307.04 60.86 307.01 69.19 301.04 71.91
C 297.02 73.74 289.21 73.69 285.31 71.81
M 298.42 69.35
C 303.93 66.85 303.81 63.61 298.11 60.61
C 294.54 58.73 293.15 59.47 295.95 61.78
C 298.46 63.86 298.42 65.54 295.78 68.46
C 293.30 71.19 293.93 71.39 298.42 69.35"/>
<path fill="#ae3c2a" stroke="none" d="
M 9.38 592.24
C 5.52 590.70 6.84 587.61 12.05 585.94
C 14.29 585.23 22.68 582.88 30.72 580.71
C 54.04 574.44 63.71 568.27 70.67 555.22
C 77.03 543.32 79.63 529.47 82.50 492.46
C 83.93 474.06 85.09 457.80 85.10 456.31
C 85.12 453.70 85.35 453.73 92.53 457.39
C 98.86 460.62 101.00 461.09 107.16 460.56
C 111.11 460.21 116.20 458.99 118.44 457.83
C 121.91 456.04 122.52 456.01 122.52 457.61
C 122.52 461.32 118.45 478.82 110.96 507.30
C 99.82 549.68 98.91 554.97 100.55 568.17
C 102.07 580.39 101.39 583.51 96.12 588.41
C 93.19 591.13 91.41 591.63 84.69 591.61
C 80.32 591.59 71.70 590.76 65.55 589.75
C 55.05 588.04 53.40 588.10 39.11 590.74
C 23.07 593.72 14.16 594.17 9.38 592.24"/>
<path fill="#ae3c2a" stroke="none" d="
M 304.50 171.84
C 299.97 170.85 293.48 169.12 290.08 168.00
L 283.89 165.94
L 285.73 160.73
C 288.61 152.59 294.57 145.51 303.05 140.15
C 312.99 133.87 314.19 131.33 312.36 120.30
C 309.89 105.37 306.77 103.00 289.69 103.00
C 273.85 103.00 269.48 98.42 281.19 94.11
C 285.34 92.58 286.94 91.27 286.94 89.45
C 286.94 86.77 285.81 86.58 278.88 88.12
C 274.45 89.10 274.37 89.02 272.82 81.99
C 272.25 79.43 270.71 77.82 267.50 76.48
C 264.61 75.28 263.30 74.03 263.87 73.03
C 268.44 65.00 280.41 47.70 281.76 47.19
C 282.70 46.83 286.11 47.32 289.33 48.28
C 300.42 51.62 327.98 55.64 334.16 54.82
C 345.16 53.37 345.65 58.40 335.90 72.62
C 331.56 78.93 329.67 83.19 328.79 88.57
C 328.12 92.61 327.58 113.10 327.58 134.09
C 327.57 167.70 327.32 172.35 325.53 173.03
C 322.29 174.27 313.45 173.77 304.50 171.84
M 301.04 71.91
C 307.01 69.19 307.04 60.86 301.10 58.16
C 294.11 54.98 283.26 57.18 281.69 62.09
C 280.47 65.94 282.08 70.26 285.31 71.81
C 289.21 73.69 297.02 73.74 301.04 71.91"/>
<path fill="#fefefe" stroke="none" d="
M 296.04 68.16
C 298.01 65.99 298.16 65.09 296.89 63.04
C 294.64 59.46 294.94 58.93 298.23 60.66
C 303.81 63.61 303.89 66.86 298.42 69.35
C 293.83 71.45 293.30 71.18 296.04 68.16"/>
<path fill="#ffbf53" stroke="none" d="
M 96.08 453.37
C 85.59 448.56 85.84 449.85 88.29 414.33
C 91.81 363.24 95.67 353.21 116.51 340.73
C 133.72 330.40 156.11 324.75 211.24 316.78
C 251.83 310.91 259.73 308.70 265.56 301.65
C 271.35 294.63 272.63 286.97 272.04 262.66
C 270.95 218.60 271.35 212.28 276.50 192.61
C 279.06 182.74 281.77 173.97 282.49 173.10
C 283.53 171.85 285.50 172.02 291.68 173.88
C 302.68 177.21 317.65 179.45 323.03 178.58
C 327.30 177.89 327.57 178.06 327.57 181.38
C 327.57 188.30 330.09 189.85 342.62 190.56
L 354.00 191.20
L 354.34 262.33
L 354.68 333.45
L 347.39 348.59
C 339.47 365.06 336.92 368.92 331.67 372.39
C 328.44 374.51 322.11 374.67 239.51 374.67
C 143.11 374.68 146.04 374.47 139.02 381.93
C 131.99 389.41 127.48 405.14 125.78 428.11
C 124.18 449.56 124.45 448.80 117.03 452.50
C 109.23 456.37 103.18 456.63 96.08 453.37"/>
<path fill="#c55f36" stroke="none" d="
M 383.65 589.42
C 383.67 583.57 379.58 582.82 377.51 588.31
C 376.64 590.63 375.08 592.27 373.79 592.27
C 367.82 592.27 370.05 587.10 382.25 572.64
C 388.63 565.06 391.26 560.69 393.20 554.47
C 397.28 541.22 398.83 526.78 398.21 507.63
C 397.52 486.21 396.27 482.46 379.22 450.89
C 372.83 439.07 366.14 425.21 364.35 420.09
L 361.10 410.78
L 361.10 341.39
L 361.10 272.02
L 366.41 268.51
C 378.39 260.59 396.05 257.02 405.49 260.61
C 416.00 264.63 415.86 263.97 416.29 312.64
C 416.75 362.70 416.95 361.47 404.31 383.69
C 394.20 401.45 392.85 405.68 392.93 419.10
C 393.04 437.19 398.52 453.08 409.72 467.83
C 413.48 472.79 416.55 477.57 416.55 478.45
C 416.55 479.34 414.85 484.31 412.77 489.49
C 410.59 494.94 408.36 503.83 407.51 510.52
C 406.70 516.89 404.30 532.25 402.17 544.64
C 399.17 562.13 398.47 569.34 399.05 576.89
C 399.94 588.36 398.83 590.59 391.37 592.31
C 383.89 594.05 383.64 593.95 383.65 589.42"/>
<path fill="#c57a36" stroke="none" d="
M 137.99 591.63
C 136.65 590.02 138.25 586.88 147.48 572.87
C 162.08 550.73 164.05 544.60 164.12 521.46
C 164.14 511.89 163.22 497.12 162.04 488.63
C 160.88 480.13 159.06 466.80 158.01 459.01
C 155.62 441.33 155.53 418.57 157.81 410.09
C 161.29 397.11 167.78 383.58 171.12 382.31
C 176.14 380.41 351.18 380.74 353.10 382.66
C 355.11 384.67 355.11 395.59 353.10 397.60
C 351.93 398.77 332.69 399.14 274.37 399.14
C 189.24 399.14 191.82 398.90 187.89 407.19
C 184.19 414.95 183.19 422.69 183.15 443.86
C 183.14 455.34 182.16 477.66 180.97 493.43
C 178.55 525.82 178.19 539.47 179.57 545.69
C 180.45 549.62 179.97 550.55 173.87 556.98
L 167.23 564.01
L 166.29 576.35
C 165.23 590.33 164.17 592.12 156.33 593.18
C 151.58 593.81 151.07 593.60 150.68 590.82
C 150.04 586.30 144.80 585.88 143.70 590.27
C 142.78 593.96 140.40 594.53 137.99 591.63"/>
</g>
</svg>
