<?xml version="1.0" encoding="UTF-8" standalone="no"?>
<!DOCTYPE svg PUBLIC "-//W3C//DTD SVG 1.1//EN"
"http://www.w3.org/Graphics/SVG/1.1/DTD/svg11.dtd">
<svg width="176px" height="600px"
xmlns="http://www.w3.org/2000/svg" version="1.1">
<g transform="translate(0000, 0000) scale(1.0000, 1.0000)">
<path fill="#000000" stroke="none" d="
M 2.59 597.42
C -1.84 593.02 -0.03 585.36 6.33 581.63
C 8.26 580.48 16.82 577.85 25.36 575.77
C 43.82 571.26 52.44 567.18 61.47 558.68
C 73.80 547.08 78.89 533.11 78.93 510.79
C 78.94 495.35 77.48 481.70 71.78 444.21
C 66.31 408.17 57.72 339.31 54.75 307.73
C 53.11 290.20 52.50 271.13 52.48 235.62
C 52.45 189.53 52.58 186.88 55.34 177.04
C 56.93 171.37 60.25 162.63 62.73 157.61
C 66.48 150.01 68.51 147.59 74.85 143.16
C 83.46 137.16 86.24 132.39 84.22 127.09
C 82.77 123.31 81.31 122.83 67.77 121.69
L 58.56 120.90
L 49.66 136.64
C 44.76 145.27 39.76 152.97 38.53 153.73
C 36.66 154.87 35.04 153.90 29.14 148.09
C 25.21 144.23 22.00 140.67 22.00 140.18
C 22.00 139.67 28.44 133.93 36.31 127.40
C 45.86 119.48 50.38 114.91 49.90 113.67
C 49.50 112.64 48.80 108.52 48.35 104.50
C 47.90 100.49 46.95 96.49 46.25 95.60
C 45.51 94.67 42.05 93.99 38.02 93.99
C 27.68 93.99 23.27 88.48 27.36 80.70
C 28.17 79.16 33.30 71.24 38.73 63.09
C 44.17 54.94 51.62 42.15 55.28 34.66
C 65.95 12.88 78.85 2.88 99.30 0.58
C 115.72 -1.27 135.61 5.18 149.00 16.69
C 159.98 26.12 168.00 41.14 173.02 61.66
C 174.76 68.78 175.18 81.46 175.64 139.30
C 176.26 220.49 177.57 213.73 161.20 213.73
C 155.90 213.73 151.24 214.26 150.84 214.91
C 148.80 218.19 148.67 263.23 150.64 284.94
C 154.53 327.98 154.58 327.45 137.97 423.00
C 131.94 457.73 125.48 498.14 123.60 512.82
L 120.21 539.50
L 124.17 555.30
C 128.93 574.35 129.35 585.75 125.49 592.03
C 120.69 599.88 119.72 600.00 59.57 600.00
C 6.90 600.00 5.10 599.92 2.59 597.42
M 114.98 591.72
C 122.75 587.73 123.26 581.07 117.61 557.94
L 113.57 541.43
L 115.78 521.46
C 118.58 496.22 121.88 475.21 133.88 406.22
C 147.96 325.24 147.87 326.23 144.19 287.47
C 142.84 273.36 142.29 256.96 142.57 240.13
L 143.00 214.38
L 130.28 213.73
C 119.63 213.19 117.25 212.68 115.72 210.59
C 114.21 208.52 113.88 198.30 113.88 151.62
L 113.88 95.15
L 119.25 84.90
C 125.75 72.53 125.31 70.53 114.59 63.72
C 110.69 61.24 106.89 58.11 106.18 56.77
C 103.85 52.44 98.16 51.59 76.66 52.38
C 60.77 52.97 55.78 53.58 53.95 55.16
C 52.67 56.28 48.90 61.56 45.60 66.90
C 42.29 72.24 38.20 78.46 36.51 80.74
C 34.81 83.01 33.80 85.47 34.26 86.21
C 34.72 86.95 38.27 87.55 42.14 87.55
C 51.56 87.55 53.74 89.81 54.92 100.78
C 55.41 105.41 56.55 110.18 57.43 111.37
C 59.23 113.83 67.48 115.74 76.61 115.83
C 85.40 115.91 88.88 117.93 91.35 124.39
C 95.34 134.77 92.30 140.99 78.68 150.23
C 73.92 153.46 71.69 156.31 68.10 163.76
C 60.12 180.23 59.26 185.92 58.57 225.32
C 57.77 272.87 59.94 302.63 69.96 381.12
C 72.81 403.42 76.84 432.68 78.93 446.14
C 84.26 480.49 85.84 498.90 85.06 517.56
C 84.14 539.52 80.47 549.97 69.24 562.38
C 62.21 570.17 46.94 578.39 35.32 580.65
C 16.37 584.33 6.20 588.71 8.37 592.22
C 8.93 593.11 26.22 593.56 60.32 593.56
C 102.02 593.56 112.08 593.23 114.98 591.72"/>
<path fill="#000000" stroke="none" d="
M 60.93 68.14
C 58.73 65.96 56.94 63.63 56.94 62.95
C 56.94 60.31 60.84 60.45 64.59 63.21
C 68.69 66.22 70.37 65.99 76.64 61.52
C 78.42 60.26 79.20 60.27 80.52 61.60
C 81.87 62.95 81.27 64.08 77.34 67.67
C 71.09 73.40 66.35 73.53 60.93 68.14"/>
<path fill="#c57a36" stroke="none" d="
M 8.37 592.22
C 6.20 588.71 16.37 584.33 35.32 580.65
C 46.94 578.39 62.21 570.17 69.24 562.38
C 80.47 549.97 84.14 539.52 85.06 517.56
C 85.84 498.90 84.26 480.49 78.93 446.14
C 76.84 432.68 72.81 403.42 69.96 381.12
C 59.94 302.63 57.77 272.87 58.57 225.32
C 59.26 185.92 60.12 180.23 68.10 163.76
C 71.69 156.31 73.92 153.46 78.68 150.23
C 92.30 140.99 95.34 134.77 91.35 124.39
C 88.88 117.93 85.40 115.91 76.61 115.83
C 67.48 115.74 59.23 113.83 57.43 111.37
C 56.55 110.18 55.41 105.41 54.92 100.78
C 53.74 89.81 51.56 87.55 42.14 87.55
C 38.27 87.55 34.72 86.95 34.26 86.21
C 33.80 85.47 34.81 83.01 36.51 80.74
C 38.20 78.46 42.29 72.24 45.60 66.90
C 48.90 61.56 52.67 56.28 53.95 55.16
C 55.79 53.56 60.71 52.97 76.79 52.42
C 98.31 51.68 103.89 52.51 106.18 56.77
C 106.89 58.11 110.69 61.24 114.59 63.72
C 125.31 70.53 125.75 72.53 119.25 84.90
L 113.88 95.15
L 113.88 151.62
C 113.88 198.30 114.21 208.52 115.72 210.59
C 117.25 212.68 119.63 213.19 130.28 213.73
L 143.00 214.38
L 142.57 240.13
C 142.29 256.96 142.84 273.36 144.19 287.47
C 147.87 326.23 147.96 325.24 133.88 406.22
C 121.88 475.21 118.58 496.22 115.78 521.46
L 113.57 541.43
L 117.61 557.94
C 122.00 575.87 122.48 581.34 120.11 586.52
C 116.94 593.42 115.75 593.56 60.32 593.56
C 26.22 593.56 8.93 593.11 8.37 592.22
M 77.34 67.67
C 81.27 64.08 81.87 62.95 80.52 61.60
C 79.20 60.27 78.42 60.26 76.64 61.52
C 70.37 65.99 68.69 66.22 64.59 63.21
C 60.84 60.45 56.94 60.31 56.94 62.95
C 56.94 63.63 58.73 65.96 60.93 68.14
C 66.35 73.53 71.09 73.40 77.34 67.67"/>
</g>
</svg>
