<?xml version="1.0" encoding="UTF-8" standalone="no"?>
<!DOCTYPE svg PUBLIC "-//W3C//DTD SVG 1.1//EN"
"http://www.w3.org/Graphics/SVG/1.1/DTD/svg11.dtd">
<svg width="416px" height="600px"
xmlns="http://www.w3.org/2000/svg" version="1.1">
<g transform="translate(0000, 0000) scale(1.0000, 1.0000)">
<path fill="#000000" stroke="none" d="
M 191.67 598.18
C 183.74 595.38 180.55 589.20 183.84 583.05
C 185.69 579.60 188.89 578.31 200.13 576.49
C 219.61 573.34 234.68 561.46 244.18 541.74
C 250.11 529.41 252.89 518.41 256.93 491.35
C 260.34 468.42 264.57 450.68 268.42 443.14
C 269.76 440.52 272.17 433.58 273.76 427.74
C 275.36 421.88 278.93 410.91 281.68 403.33
C 287.12 388.37 299.91 346.95 299.91 344.26
C 299.91 343.13 299.22 342.89 297.79 343.51
C 296.63 344.02 290.78 346.27 284.79 348.53
C 261.63 357.26 233.25 370.71 226.65 376.08
C 218.47 382.73 209.50 385.57 196.51 385.64
C 184.99 385.70 176.29 382.15 172.33 375.80
L 169.91 371.93
L 87.37 371.88
C 6.48 371.83 4.79 371.78 2.42 369.42
C 0.30 367.30 0.00 365.40 0.00 354.33
C 0.00 335.30 -4.09 336.82 47.16 336.82
C 70.44 336.82 89.49 336.60 89.49 336.33
C 89.49 336.05 87.86 332.39 85.86 328.18
C 83.87 323.96 82.23 319.55 82.23 318.35
C 82.23 315.53 84.65 310.82 92.78 297.86
C 99.76 286.72 102.50 284.27 106.56 285.56
C 110.46 286.79 126.98 313.34 126.98 318.36
C 126.98 319.55 125.34 323.96 123.35 328.18
C 121.35 332.39 119.72 336.05 119.72 336.33
C 119.72 336.60 134.49 336.82 152.54 336.82
L 185.36 336.82
L 190.43 332.16
C 193.22 329.59 198.72 326.29 202.65 324.82
C 212.46 321.18 243.24 300.56 252.30 291.57
C 261.66 282.28 265.71 274.25 272.79 250.93
C 279.48 228.93 284.43 217.75 291.26 209.18
C 297.08 201.89 300.14 200.08 311.37 197.25
C 321.25 194.78 326.00 191.24 324.75 187.28
C 323.17 182.32 311.94 180.45 307.47 184.41
C 306.15 185.57 302.52 189.91 299.40 194.06
C 296.21 198.30 292.78 201.61 291.60 201.61
C 289.27 201.61 282.98 195.66 282.98 193.46
C 282.98 192.70 286.65 189.51 291.14 186.37
C 295.63 183.25 299.98 179.86 300.81 178.84
C 302.75 176.50 302.79 163.92 300.87 162.01
C 300.08 161.22 298.14 160.56 296.56 160.56
C 292.98 160.56 289.02 158.51 289.02 156.65
C 289.02 155.87 292.57 148.90 296.88 141.16
L 304.74 127.07
L 304.74 112.43
C 304.74 91.97 303.35 92.96 331.97 92.96
L 354.35 92.96
L 350.41 87.67
C 348.24 84.77 342.11 77.23 336.79 70.93
C 315.64 45.86 309.42 27.66 316.90 12.62
C 324.04 -1.80 344.84 -4.20 350.71 8.70
C 353.67 15.21 353.68 19.76 350.77 26.16
C 347.26 33.89 339.92 36.33 334.98 31.39
C 332.45 28.87 331.69 22.41 333.77 21.13
C 334.43 20.72 334.96 19.74 334.94 18.94
C 334.92 18.16 333.78 18.85 332.40 20.49
C 330.42 22.88 330.07 24.46 330.68 28.33
C 331.68 34.56 338.93 46.58 348.21 57.34
C 352.21 61.99 358.07 69.28 361.25 73.53
C 364.42 77.79 368.72 83.19 370.78 85.53
L 374.56 89.78
L 376.02 87.05
C 376.83 85.56 382.03 71.31 387.58 55.41
C 393.12 39.50 399.26 23.65 401.22 20.19
C 407.53 9.01 414.79 9.65 414.79 21.37
C 414.79 32.47 407.24 60.10 390.54 110.06
C 378.26 146.85 374.57 160.12 375.11 165.61
C 375.46 169.29 375.88 169.58 383.35 171.46
C 393.94 174.13 397.90 176.37 403.73 182.98
C 415.09 195.88 419.65 223.42 411.73 231.34
C 407.96 235.10 402.30 235.12 398.55 231.38
C 395.95 228.78 393.02 219.39 393.02 213.63
C 393.02 205.62 382.50 188.57 373.70 182.31
L 370.25 179.87
L 367.64 184.08
C 366.09 186.59 365.33 189.24 365.78 190.62
C 366.18 191.90 370.60 196.60 375.60 201.05
C 385.66 210.05 388.40 214.45 390.60 225.13
C 392.37 233.64 391.63 245.69 387.91 269.22
C 386.26 279.57 385.30 291.45 385.25 301.81
C 385.16 317.71 385.28 318.47 390.00 332.60
C 396.63 352.45 396.61 361.67 389.92 381.49
C 385.47 394.62 385.22 396.12 385.37 409.26
C 385.45 416.89 386.38 427.48 387.45 432.80
C 392.55 458.52 400.06 513.50 402.14 540.24
C 402.55 545.55 404.20 555.40 405.82 562.14
C 410.81 583.00 409.45 590.76 400.11 594.49
C 392.47 597.55 342.38 598.74 335.93 596.02
C 330.56 593.76 328.82 589.18 331.51 584.39
C 332.87 581.95 336.23 580.24 347.31 576.37
C 369.80 568.54 373.67 564.66 373.67 550.04
C 373.67 541.35 367.52 515.47 356.96 479.79
C 353.65 468.56 350.27 456.12 349.46 452.17
C 346.73 438.71 347.92 439.44 328.76 439.44
C 312.74 439.44 311.99 439.55 310.26 442.18
C 307.19 446.85 304.77 454.88 298.71 480.48
C 292.74 505.77 291.05 510.77 278.62 540.24
L 271.49 557.14
L 271.80 571.44
C 272.15 588.13 270.63 592.97 264.00 596.12
C 260.46 597.81 259.01 597.86 253.01 596.52
C 239.97 593.63 236.73 593.66 221.17 596.86
C 203.96 600.40 198.62 600.64 191.67 598.18
M 214.05 590.95
C 233.52 586.59 239.94 586.12 249.43 588.35
C 263.77 591.72 265.27 590.04 264.14 571.94
C 263.27 558.01 262.33 561.25 279.11 519.72
C 284.55 506.25 287.84 495.49 291.94 477.68
C 294.97 464.52 298.77 450.53 300.35 446.60
L 303.26 439.44
L 290.63 439.44
L 278.01 439.44
L 275.02 446.19
C 270.42 456.56 267.61 468.27 264.17 491.35
C 257.69 534.97 251.61 550.74 235.02 567.01
C 226.48 575.37 212.17 582.49 201.65 583.63
C 193.20 584.54 188.89 586.60 190.40 589.04
C 192.82 592.95 201.87 593.67 214.05 590.95
M 387.22 589.33
C 393.24 588.87 398.42 587.86 399.31 586.95
C 401.51 584.74 400.97 573.16 398.05 560.41
C 396.74 554.63 395.31 545.55 394.90 540.24
C 393.25 519.19 385.37 459.03 382.35 444.41
L 381.43 440.04
L 367.79 439.70
C 355.17 439.38 354.18 439.52 354.75 441.51
C 355.09 442.70 356.01 446.92 356.78 450.91
C 357.55 454.89 361.91 471.01 366.45 486.72
C 383.24 544.77 384.69 559.93 374.52 570.83
C 371.13 574.45 360.95 579.57 350.09 583.09
C 338.57 586.83 336.61 587.89 338.74 589.24
C 340.67 590.46 371.65 590.51 387.22 589.33
M 378.51 424.35
C 376.93 405.43 377.83 396.02 382.70 380.89
C 389.04 361.09 389.08 352.43 382.93 333.39
C 380.49 325.86 378.16 317.53 377.73 314.86
L 376.95 310.02
L 369.57 310.82
C 365.51 311.25 354.94 312.85 346.08 314.35
L 329.98 317.11
L 319.24 327.78
C 310.28 336.68 308.37 339.25 307.68 343.35
C 306.53 350.12 291.13 399.78 286.18 412.64
C 281.43 425.00 280.22 429.46 281.21 431.06
C 281.66 431.78 300.23 432.10 330.53 431.90
L 379.12 431.59
L 378.51 424.35
M 213.77 375.43
C 216.66 374.16 221.19 371.25 223.85 368.98
C 228.74 364.80 261.97 349.17 279.95 342.59
C 293.29 337.70 301.85 332.96 310.92 325.40
C 318.31 319.24 329.90 305.63 333.79 298.53
C 337.93 290.98 359.85 254.85 364.23 248.39
C 367.31 243.83 369.76 241.45 371.34 241.45
C 375.34 241.45 375.44 244.85 371.61 250.27
C 368.18 255.08 353.42 279.31 346.80 290.95
C 345.11 293.93 342.21 299.03 340.36 302.28
L 337.00 308.19
L 341.13 307.47
C 343.39 307.07 352.39 305.81 361.12 304.66
L 376.99 302.56
L 377.79 293.12
C 378.22 287.92 379.62 276.75 380.91 268.30
C 387.13 227.15 385.32 217.23 369.27 205.06
C 357.34 196.00 355.45 189.30 362.09 179.53
L 364.97 175.30
L 360.18 173.15
C 349.46 168.33 347.15 160.70 352.03 146.28
C 354.42 139.18 354.46 138.60 352.54 135.68
C 349.48 131.02 343.01 128.96 329.28 128.26
C 314.24 127.48 312.92 128.15 306.50 139.68
C 303.98 144.19 301.13 149.12 300.16 150.62
C 298.49 153.20 298.60 153.42 302.30 154.70
C 304.84 155.59 306.76 157.38 307.80 159.81
C 309.18 163.09 309.99 163.58 314.00 163.58
C 320.65 163.58 320.85 166.82 314.35 169.36
C 309.52 171.26 308.29 174.17 312.10 174.68
C 313.04 174.80 316.49 175.26 319.75 175.68
C 330.56 177.10 335.40 185.37 330.72 194.41
C 328.64 198.43 322.35 202.02 313.67 204.14
C 305.19 206.21 301.94 208.12 296.93 213.95
C 290.69 221.22 286.47 230.74 279.94 252.31
C 271.19 281.22 265.09 291.67 250.47 302.89
C 230.37 318.31 216.84 326.97 208.10 330.00
C 203.15 331.70 198.28 333.94 197.25 334.96
C 195.57 336.64 195.83 336.82 199.89 336.82
C 204.93 336.82 209.21 340.15 209.21 344.10
C 209.21 346.41 209.40 346.44 212.74 344.72
C 214.69 343.71 217.35 341.40 218.65 339.56
C 219.97 337.71 225.60 333.56 231.15 330.31
C 236.71 327.07 246.92 321.09 253.82 317.03
C 267.73 308.87 281.44 297.02 286.05 289.16
C 289.79 282.80 294.05 270.39 296.84 257.75
C 299.41 246.10 300.49 243.86 303.53 243.86
C 306.45 243.86 307.47 245.78 310.57 257.14
C 311.93 262.12 314.06 268.58 315.29 271.48
L 317.55 276.76
L 321.01 267.86
C 330.39 243.71 340.55 225.75 344.81 225.75
C 347.72 225.75 349.11 229.06 347.29 231.66
C 341.83 239.35 336.17 250.45 329.09 267.37
C 318.64 292.29 313.61 301.21 304.59 310.84
C 294.88 321.20 283.98 327.94 250.93 343.98
C 235.63 351.40 220.54 358.80 217.40 360.43
C 210.75 363.86 208.01 364.07 203.10 361.53
C 198.58 359.20 198.59 360.18 203.16 365.37
C 207.38 370.16 207.71 372.46 204.46 374.20
C 200.96 376.07 195.80 375.73 187.27 373.07
C 179.61 370.70 175.98 371.25 179.59 374.26
C 185.68 379.29 203.62 379.91 213.77 375.43
M 192.22 362.06
C 189.30 356.62 194.40 350.75 200.14 352.95
C 202.40 353.82 202.70 347.71 200.50 345.51
C 198.40 343.41 10.81 343.41 8.71 345.51
C 6.81 347.41 6.81 361.24 8.71 363.14
C 9.81 364.24 32.16 364.59 101.87 364.59
L 193.57 364.59
L 192.22 362.06
M 255.22 333.62
C 285.12 318.81 294.85 312.33 302.74 301.99
C 312.51 289.21 312.75 288.52 310.34 280.45
C 309.18 276.59 307.25 269.90 306.05 265.59
C 303.99 258.24 303.80 257.98 302.99 261.37
C 302.51 263.36 301.33 268.25 300.37 272.23
C 294.48 296.81 282.31 309.46 243.81 331.12
C 236.47 335.25 228.16 340.96 225.34 343.80
C 222.54 346.64 217.76 350.06 214.72 351.40
C 211.69 352.74 209.21 354.30 209.21 354.87
C 209.21 356.10 218.85 351.65 255.22 333.62
M 112.99 330.04
C 114.69 326.31 116.09 322.77 116.09 322.19
C 116.09 321.61 110.92 321.13 104.60 321.13
C 98.29 321.13 93.12 321.61 93.12 322.19
C 93.12 322.77 94.52 326.31 96.22 330.04
C 99.31 336.76 99.38 336.82 104.60 336.82
C 109.83 336.82 109.90 336.76 112.99 330.04
M 114.59 311.17
C 113.61 309.67 111.05 305.60 108.91 302.11
C 106.76 298.62 104.82 295.77 104.60 295.77
C 104.39 295.77 102.45 298.62 100.30 302.11
C 98.16 305.60 95.60 309.67 94.62 311.17
L 92.84 313.88
L 104.60 313.88
L 116.37 313.88
L 114.59 311.17
M 407.75 222.05
C 409.59 213.38 404.14 193.38 398.10 186.72
C 395.70 184.07 387.64 179.30 383.41 178.03
C 380.82 177.26 381.10 177.89 385.69 183.04
C 392.55 190.74 398.66 203.76 400.29 214.15
C 402.35 227.29 405.84 230.98 407.75 222.05
M 368.12 160.67
C 368.57 156.74 373.03 140.85 378.04 125.36
C 397.61 64.88 400.46 55.64 404.00 41.25
C 410.82 13.61 407.14 20.98 391.14 67.00
C 386.76 79.62 382.39 91.15 381.44 92.63
C 377.45 98.82 374.00 99.48 343.19 99.98
C 321.52 100.33 314.19 100.84 313.20 102.02
C 312.45 102.93 312.04 107.15 312.24 111.86
L 312.60 120.12
L 326.51 120.86
C 348.17 122.00 356.83 125.51 360.26 134.51
C 361.92 138.86 361.86 139.76 359.39 146.79
C 356.67 154.58 356.08 160.07 357.70 162.60
C 358.58 164.00 365.05 167.78 366.56 167.79
C 366.97 167.81 367.68 164.60 368.12 160.67
M 362.90 86.02
C 360.89 83.53 356.37 78.01 352.86 73.76
C 330.88 47.17 327.50 41.93 325.24 30.78
C 324.00 24.64 324.06 22.87 325.64 19.11
C 328.18 13.11 332.87 10.07 336.80 11.86
C 340.82 13.69 341.95 18.82 339.34 23.36
C 337.12 27.24 338.12 29.55 341.47 28.26
C 344.01 27.30 347.07 21.60 347.07 17.87
C 347.06 13.63 342.69 7.40 339.10 6.51
C 331.76 4.67 321.53 13.15 319.75 22.54
C 318.01 31.69 326.03 47.67 341.34 65.65
C 346.50 71.71 352.91 79.79 355.60 83.60
C 359.33 88.93 361.17 90.54 363.50 90.54
L 366.55 90.54
L 362.90 86.02"/>
<path fill="#000000" stroke="none" d="
M 312.79 146.28
C 308.05 141.05 311.88 134.00 319.46 134.00
C 326.78 134.00 330.60 141.90 325.51 146.50
C 322.52 149.19 315.33 149.07 312.79 146.28
M 323.49 143.66
C 325.60 141.33 325.60 141.16 323.49 138.83
C 322.28 137.51 320.43 136.43 319.38 136.45
C 317.72 136.49 317.74 136.67 319.56 137.72
C 322.00 139.15 322.33 142.53 320.22 144.63
C 319.33 145.52 319.26 146.08 320.04 146.08
C 320.73 146.08 322.28 144.99 323.49 143.66"/>
<path fill="#ffbf53" stroke="none" d="
M 281.21 431.06
C 280.22 429.46 281.43 425.00 286.18 412.64
C 291.13 399.78 306.53 350.12 307.68 343.35
C 308.37 339.25 310.28 336.68 319.24 327.78
L 329.98 317.11
L 346.08 314.35
C 354.94 312.85 365.51 311.25 369.57 310.82
L 376.95 310.02
L 377.73 314.86
C 378.16 317.53 380.49 325.86 382.93 333.39
C 389.08 352.43 389.04 361.09 382.70 380.89
C 377.83 396.02 376.93 405.43 378.51 424.35
L 379.12 431.59
L 330.53 431.90
C 300.23 432.10 281.66 431.78 281.21 431.06"/>
<path fill="#ffbf53" stroke="none" d="
M 355.60 83.60
C 352.91 79.79 346.50 71.71 341.34 65.65
C 330.39 52.80 323.57 41.83 320.91 32.80
C 318.78 25.53 319.33 20.58 322.92 14.70
C 325.82 9.95 334.90 5.46 339.35 6.57
C 342.73 7.41 347.06 13.75 347.07 17.87
C 347.07 21.60 344.01 27.30 341.47 28.26
C 338.12 29.55 337.12 27.24 339.34 23.36
C 343.62 15.92 337.41 8.21 330.70 12.60
C 319.74 19.76 323.44 37.65 340.10 58.19
C 343.60 62.50 349.34 69.50 352.86 73.76
C 356.37 78.01 360.89 83.53 362.90 86.02
L 366.55 90.54
L 363.50 90.54
C 361.17 90.54 359.33 88.93 355.60 83.60"/>
<path fill="#ff0000" stroke="none" d="
M 362.21 165.92
C 360.24 164.89 358.20 163.40 357.70 162.60
C 356.08 160.07 356.67 154.58 359.39 146.79
C 361.86 139.76 361.92 138.86 360.26 134.51
C 356.83 125.51 348.17 122.00 326.51 120.86
L 312.60 120.12
L 312.24 111.86
C 312.04 107.15 312.45 102.93 313.20 102.02
C 314.19 100.83 321.48 100.35 343.19 100.02
C 382.80 99.44 378.84 102.57 393.56 60.28
C 403.58 31.46 406.18 24.81 407.08 25.70
C 407.41 26.04 406.04 33.02 404.02 41.23
C 400.46 55.64 397.61 64.87 378.04 125.36
C 373.03 140.85 368.57 156.74 368.12 160.67
C 367.68 164.60 366.97 167.81 366.56 167.79
C 366.15 167.79 364.19 166.95 362.21 165.92"/>
<path fill="#ae3c2a" stroke="none" d="
M 193.91 591.56
C 186.51 588.58 190.14 584.86 201.65 583.63
C 212.17 582.49 226.48 575.37 235.02 567.01
C 251.61 550.74 257.69 534.97 264.17 491.35
C 267.61 468.27 270.42 456.56 275.02 446.19
L 278.01 439.44
L 290.63 439.44
L 303.26 439.44
L 300.35 446.60
C 298.77 450.53 294.97 464.52 291.94 477.68
C 287.84 495.49 284.55 506.25 279.11 519.72
C 262.33 561.25 263.27 558.01 264.14 571.94
C 265.27 590.04 263.77 591.72 249.43 588.35
C 239.94 586.12 233.52 586.59 214.05 590.95
C 205.29 592.91 197.83 593.13 193.91 591.56"/>
<path fill="#ae3c2a" stroke="none" d="
M 338.74 589.24
C 336.61 587.89 338.57 586.83 350.09 583.09
C 386.82 571.18 388.32 562.35 366.45 486.72
C 361.91 471.01 357.55 454.89 356.78 450.91
C 356.01 446.92 355.09 442.70 354.75 441.51
C 354.18 439.52 355.17 439.38 367.79 439.70
L 381.43 440.04
L 382.35 444.41
C 385.37 459.03 393.25 519.19 394.90 540.24
C 395.31 545.55 396.74 554.63 398.05 560.41
C 400.97 573.16 401.51 584.74 399.31 586.95
C 398.42 587.86 393.24 588.87 387.22 589.33
C 371.65 590.51 340.67 590.46 338.74 589.24"/>
<path fill="#ae3c2a" stroke="none" d="
M 187.21 377.46
C 184.08 376.58 180.66 375.14 179.59 374.26
C 175.98 371.25 179.61 370.70 187.27 373.07
C 195.80 375.73 200.96 376.07 204.46 374.20
C 207.71 372.46 207.38 370.16 203.16 365.37
C 198.59 360.18 198.58 359.20 203.10 361.53
C 208.01 364.07 210.75 363.86 217.40 360.43
C 220.54 358.80 235.63 351.40 250.93 343.98
C 283.98 327.94 294.88 321.20 304.59 310.84
C 313.61 301.21 318.64 292.29 329.09 267.37
C 336.17 250.45 341.83 239.35 347.29 231.66
C 349.11 229.06 347.72 225.75 344.81 225.75
C 340.55 225.75 330.39 243.71 321.01 267.86
L 317.55 276.76
L 315.29 271.48
C 314.06 268.58 311.93 262.12 310.57 257.14
C 307.47 245.78 306.45 243.86 303.53 243.86
C 300.49 243.86 299.41 246.10 296.84 257.75
C 294.05 270.39 289.79 282.80 286.05 289.16
C 281.44 297.02 267.73 308.87 253.82 317.03
C 246.92 321.09 236.71 327.07 231.15 330.31
C 225.60 333.56 219.97 337.71 218.65 339.56
C 217.35 341.40 214.69 343.71 212.74 344.72
C 209.40 346.44 209.21 346.41 209.21 344.10
C 209.21 340.15 204.93 336.82 199.89 336.82
C 195.83 336.82 195.57 336.64 197.25 334.96
C 198.28 333.94 203.15 331.70 208.10 330.00
C 216.84 326.97 230.37 318.31 250.47 302.89
C 265.09 291.67 271.19 281.22 279.94 252.31
C 286.47 230.74 290.69 221.22 296.93 213.95
C 301.94 208.12 305.19 206.21 313.67 204.14
C 322.35 202.02 328.64 198.43 330.72 194.41
C 335.40 185.37 330.56 177.10 319.75 175.68
C 316.49 175.26 313.04 174.80 312.10 174.68
C 308.29 174.17 309.52 171.26 314.35 169.36
C 320.85 166.82 320.65 163.58 314.00 163.58
C 309.99 163.58 309.18 163.09 307.80 159.81
C 306.78 157.40 304.84 155.59 302.37 154.73
L 298.55 153.39
L 301.90 147.62
C 303.74 144.45 306.67 139.40 308.41 136.42
C 312.93 128.62 315.27 127.74 329.53 128.35
C 343.02 128.95 349.46 131.00 352.54 135.68
C 354.46 138.60 354.42 139.18 352.03 146.28
C 347.15 160.70 349.46 168.33 360.18 173.15
L 364.97 175.30
L 362.09 179.53
C 355.45 189.30 357.34 196.00 369.27 205.06
C 385.32 217.23 387.13 227.15 380.91 268.30
C 379.62 276.75 378.22 287.92 377.79 293.12
L 376.99 302.56
L 361.12 304.66
C 352.39 305.81 343.39 307.07 341.13 307.47
L 337.00 308.19
L 340.36 302.28
C 342.21 299.03 345.11 293.93 346.80 290.95
C 353.42 279.31 368.18 255.08 371.61 250.27
C 375.44 244.85 375.34 241.45 371.34 241.45
C 369.76 241.45 367.31 243.83 364.23 248.39
C 359.85 254.85 337.93 290.98 333.79 298.53
C 329.90 305.63 318.31 319.24 310.92 325.40
C 301.85 332.96 293.29 337.70 279.95 342.59
C 261.97 349.17 228.74 364.80 223.85 368.98
C 221.19 371.25 216.66 374.16 213.77 375.43
C 206.75 378.53 194.38 379.47 187.21 377.46
M 325.51 146.50
C 330.60 141.90 326.78 134.00 319.46 134.00
C 311.88 134.00 308.05 141.05 312.79 146.28
C 315.33 149.07 322.52 149.19 325.51 146.50"/>
<path fill="#fefefe" stroke="none" d="
M 320.74 143.66
C 321.95 141.73 321.95 140.76 320.74 138.83
C 319.92 137.51 319.70 136.42 320.27 136.42
C 320.84 136.42 322.28 137.51 323.49 138.83
C 325.60 141.16 325.60 141.33 323.49 143.66
C 322.28 144.99 320.84 146.08 320.27 146.08
C 319.70 146.08 319.92 144.99 320.74 143.66"/>
<path fill="#ef907a" stroke="none" d="
M 402.83 224.80
C 402.15 223.52 400.99 218.74 400.25 214.15
C 398.59 203.66 393.91 193.15 387.29 185.02
C 384.46 181.55 382.14 178.42 382.14 178.07
C 382.14 176.89 391.05 181.13 395.21 184.31
C 402.96 190.21 410.01 211.42 407.75 222.05
C 406.72 226.88 404.58 228.07 402.83 224.80"/>
<path fill="#c57a36" stroke="none" d="
M 96.22 330.04
C 94.52 326.31 93.12 322.77 93.12 322.19
C 93.12 321.61 98.29 321.13 104.60 321.13
C 110.92 321.13 116.09 321.61 116.09 322.19
C 116.09 322.77 114.69 326.31 112.99 330.04
C 109.90 336.76 109.83 336.82 104.60 336.82
C 99.38 336.82 99.31 336.76 96.22 330.04"/>
<path fill="#c57a36" stroke="none" d="
M 95.44 309.96
C 96.85 307.80 99.17 304.00 100.61 301.51
C 102.05 299.02 103.85 296.98 104.60 296.98
C 105.35 296.98 107.16 299.02 108.60 301.51
C 110.03 304.00 112.36 307.80 113.77 309.96
L 116.33 313.88
L 104.60 313.88
L 92.87 313.88
L 95.44 309.96"/>
<path fill="#c55436" stroke="none" d="
M 8.71 363.14
C 7.88 362.32 7.26 358.39 7.26 354.13
C 7.26 347.88 7.67 346.35 9.59 345.32
C 13.17 343.40 198.58 343.59 200.50 345.51
C 202.70 347.71 202.40 353.82 200.14 352.95
C 194.40 350.75 189.30 356.62 192.22 362.06
L 193.57 364.59
L 101.87 364.59
C 32.16 364.59 9.81 364.24 8.71 363.14"/>
</g>
</svg>
