<?xml version="1.0" encoding="UTF-8" standalone="no"?>
<!DOCTYPE svg PUBLIC "-//W3C//DTD SVG 1.1//EN"
"http://www.w3.org/Graphics/SVG/1.1/DTD/svg11.dtd">
<svg width="529px" height="600px"
xmlns="http://www.w3.org/2000/svg" version="1.1">
<g transform="translate(0000, 0000) scale(1.0000, 1.0000)">
<path fill="#000000" stroke="none" d="
M 107.86 596.94
C 103.78 592.85 103.95 588.19 108.35 583.78
C 112.42 579.70 116.72 578.38 134.35 575.78
C 141.33 574.74 149.58 572.71 152.66 571.26
C 165.16 565.38 176.62 548.17 185.30 522.22
C 189.43 509.86 192.54 495.57 198.99 459.27
C 201.24 446.54 203.74 437.39 207.67 427.46
C 210.70 419.79 216.05 402.57 219.57 389.19
C 223.08 375.80 228.68 355.60 232.02 344.28
C 241.06 313.63 244.54 298.84 244.56 290.91
C 244.59 281.99 240.74 219.53 240.03 217.19
C 239.20 214.49 235.72 218.21 222.06 236.38
C 194.49 273.03 180.01 281.89 153.60 278.28
C 147.68 277.47 132.75 274.54 120.40 271.77
C 58.71 257.95 60.86 258.31 52.84 260.20
C 43.43 262.42 23.66 262.42 15.35 260.20
C 0.39 256.22 -4.07 247.60 5.58 241.28
C 8.23 239.54 10.23 239.50 22.97 240.90
C 30.89 241.76 37.74 242.11 38.19 241.66
C 38.64 241.20 37.25 238.83 35.10 236.38
C 32.95 233.94 31.19 230.81 31.19 229.42
C 31.19 226.14 36.61 220.79 39.92 220.79
C 43.84 220.79 49.93 224.22 55.52 229.60
C 64.04 237.78 66.81 238.39 101.02 239.55
C 128.00 240.47 133.01 240.97 143.30 243.79
C 149.73 245.55 156.78 246.99 158.96 246.99
C 164.21 246.99 169.02 241.87 176.00 228.90
C 202.12 180.36 230.69 153.27 261.39 147.93
C 272.98 145.91 275.07 144.62 276.59 138.60
C 277.90 133.35 275.52 129.26 270.09 127.48
C 267.36 126.59 264.56 125.30 263.88 124.62
C 263.19 123.93 262.35 119.11 262.00 113.90
C 261.32 103.52 261.31 103.50 252.04 100.80
C 248.34 99.73 246.28 98.37 245.99 96.84
C 245.61 94.84 252.25 79.10 264.01 54.11
C 275.90 28.86 304.76 20.35 332.15 34.00
C 341.25 38.54 351.60 48.34 355.63 56.23
C 359.78 64.35 360.26 75.72 356.95 87.77
C 352.80 102.92 346.22 114.15 338.90 118.60
C 336.14 120.27 334.59 122.94 332.20 130.19
C 328.60 141.04 329.05 145.41 333.97 147.28
C 335.78 147.97 344.05 149.05 352.35 149.69
C 368.87 150.95 393.83 155.26 417.79 160.98
C 426.26 163.00 435.28 164.66 437.82 164.66
C 443.51 164.66 446.66 161.55 454.20 148.44
C 457.17 143.30 464.06 132.35 469.52 124.12
C 489.37 94.18 492.61 82.38 485.97 64.17
C 482.26 54.00 482.46 49.61 486.70 47.33
C 490.93 45.07 494.78 46.99 499.66 53.78
C 502.19 57.29 504.67 59.68 505.20 59.09
C 505.71 58.49 507.10 53.34 508.29 47.64
C 512.03 29.61 516.56 22.35 522.82 24.35
C 527.22 25.73 529.37 31.93 528.44 40.43
C 527.40 49.70 522.95 70.74 521.44 73.47
C 520.84 74.57 515.50 87.26 509.59 101.66
C 492.91 142.34 476.59 173.81 465.02 187.66
C 456.65 197.66 451.25 198.56 419.83 195.23
C 396.36 192.74 375.39 192.79 366.73 195.36
C 343.85 202.15 331.81 227.63 331.41 270.06
C 331.26 286.58 331.51 288.54 336.09 306.22
C 341.79 328.24 341.78 330.25 335.53 372.35
C 330.33 407.29 330.74 422.18 337.95 459.89
C 344.77 495.56 345.60 503.19 345.60 530.36
C 345.60 551.81 345.85 554.52 348.72 563.59
C 353.16 577.67 353.81 583.77 351.32 588.55
C 347.27 596.40 346.97 596.44 304.64 597.19
C 266.45 597.87 266.10 597.85 263.44 595.20
C 260.31 592.07 260.00 587.91 262.63 584.16
C 264.59 581.36 276.15 577.10 293.55 572.73
C 308.59 568.96 315.92 561.62 317.65 548.54
C 319.12 537.51 313.46 511.30 301.95 475.88
C 297.94 463.53 293.71 450.06 292.56 445.95
C 291.41 441.83 289.33 435.79 287.94 432.54
L 285.40 426.61
L 273.73 426.61
L 262.08 426.61
L 253.87 443.56
C 249.35 452.88 241.82 469.86 237.11 481.30
C 232.42 492.72 224.66 511.06 219.87 522.04
C 215.09 533.01 209.38 547.25 207.17 553.66
C 203.32 564.89 203.20 565.80 204.03 578.61
C 204.83 590.81 204.69 592.14 202.37 595.01
C 200.07 597.85 198.71 598.20 186.95 598.93
C 179.85 599.38 159.85 599.80 142.48 599.86
L 110.93 600.00
L 107.86 596.94
M 183.22 591.46
C 196.79 590.32 197.46 589.50 196.38 575.09
C 195.64 565.38 195.90 563.46 199.35 553.22
C 201.42 547.05 206.88 533.29 211.49 522.66
C 216.09 512.03 224.56 491.98 230.30 478.09
C 236.04 464.22 242.64 449.06 244.99 444.41
C 247.32 439.77 250.11 433.86 251.19 431.29
L 253.15 426.61
L 234.64 426.61
L 216.15 426.61
L 213.61 432.54
C 209.98 441.02 207.81 450.32 203.40 476.51
C 196.87 515.29 188.56 540.95 176.89 558.39
C 165.87 574.85 155.44 580.64 131.04 583.85
C 116.64 585.73 110.05 588.61 113.12 591.68
C 114.20 592.77 169.65 592.58 183.22 591.46
M 341.65 587.63
C 346.01 585.31 346.18 580.94 342.38 569.10
C 339.06 558.77 338.83 556.59 338.00 526.40
C 337.35 502.58 336.50 491.30 334.60 481.50
C 328.03 447.31 325.63 433.63 325.63 430.27
L 325.63 426.61
L 309.38 426.61
L 293.13 426.61
L 294.91 430.05
C 295.89 431.94 298.41 439.37 300.52 446.58
C 302.63 453.78 306.32 465.51 308.73 472.64
C 323.10 515.14 328.28 546.76 322.89 559.01
C 320.67 564.04 312.86 573.21 309.07 575.24
C 307.72 575.96 300.28 578.15 292.52 580.10
C 275.30 584.46 268.99 586.95 270.21 588.94
C 271.44 590.91 337.80 589.70 341.65 587.63
M 324.39 408.25
C 324.39 402.26 326.16 385.56 328.32 371.14
C 333.71 335.11 333.68 324.54 328.18 303.34
L 323.86 286.74
L 317.57 287.55
C 308.63 288.70 298.54 291.29 281.34 296.84
C 273.11 299.51 263.15 302.58 259.21 303.68
C 251.01 305.96 249.18 308.11 247.17 317.76
C 246.42 321.37 243.00 333.79 239.56 345.38
C 236.12 356.98 230.50 377.05 227.10 389.99
C 223.68 402.92 220.53 414.77 220.10 416.32
L 219.30 419.13
L 271.84 419.13
L 324.39 419.13
L 324.39 408.25
M 278.14 290.01
C 289.93 286.23 304.79 282.21 311.17 281.09
L 322.79 279.03
L 323.63 265.19
C 326.31 220.99 339.45 195.94 363.87 188.40
C 373.99 185.26 395.35 185.01 420.46 187.73
C 429.73 188.73 440.53 189.57 444.47 189.58
C 450.97 189.60 452.11 189.18 456.65 185.08
C 468.21 174.64 488.28 135.64 509.84 81.70
C 511.48 77.59 513.32 73.35 513.90 72.29
C 514.49 71.23 516.20 64.78 517.70 57.94
C 519.19 51.12 520.93 43.28 521.54 40.55
C 522.75 35.13 521.26 31.95 519.28 35.73
C 518.61 37.00 516.77 43.65 515.20 50.48
C 512.29 63.14 509.10 68.61 504.61 68.61
C 502.48 68.61 495.75 62.30 493.28 57.98
C 490.25 52.70 490.46 57.38 493.55 64.13
C 496.40 70.34 496.76 72.55 496.37 81.49
C 495.99 90.67 495.34 92.94 490.17 103.56
C 486.99 110.06 479.42 123.06 473.33 132.45
C 467.23 141.83 459.74 153.51 456.69 158.38
C 447.23 173.48 442.55 174.66 416.54 168.49
C 390.37 162.27 369.29 158.58 351.95 157.19
C 342.81 156.45 333.57 155.09 331.42 154.18
C 322.42 150.37 320.07 142.57 324.30 130.47
C 325.72 126.41 326.88 122.69 326.88 122.20
C 326.88 121.71 325.26 120.64 323.29 119.81
C 321.31 118.99 318.66 116.40 317.39 114.05
C 315.22 110.01 315.19 109.36 317.09 102.60
C 318.19 98.66 320.32 92.11 321.82 88.07
C 324.25 81.48 324.34 80.51 322.65 78.81
C 321.07 77.23 319.95 77.15 315.88 78.37
C 306.21 81.27 287.92 79.10 270.83 73.02
C 266.42 71.45 265.10 71.38 264.29 72.64
C 261.87 76.44 255.73 92.48 256.33 93.46
C 256.69 94.04 258.95 94.89 261.36 95.34
C 266.06 96.22 268.24 98.99 268.24 104.10
C 268.24 107.10 268.60 107.30 273.41 106.99
C 279.95 106.57 281.08 108.99 275.74 111.95
C 268.19 116.13 267.56 116.81 269.25 118.84
C 270.10 119.86 272.46 121.04 274.51 121.43
C 285.29 123.59 286.28 146.53 275.84 152.12
C 274.46 152.87 268.43 154.33 262.45 155.36
C 246.08 158.22 236.79 163.61 220.72 179.59
C 207.21 193.01 191.65 214.40 183.19 231.21
C 174.73 248.01 168.22 254.46 159.70 254.46
C 157.30 254.47 149.72 253.04 142.85 251.29
C 132.10 248.54 126.10 247.96 99.46 246.97
C 69.91 245.90 68.23 245.70 61.15 242.52
C 57.07 240.70 52.90 237.93 51.89 236.37
C 49.52 232.75 41.62 227.85 39.90 228.91
C 39.10 229.41 40.31 231.65 42.99 234.62
C 53.74 246.51 43.62 252.19 18.84 248.17
C 9.20 246.60 6.35 248.15 12.65 251.51
C 16.97 253.83 23.77 254.06 59.26 253.06
C 70.73 252.74 74.17 253.28 101.68 259.77
C 141.76 269.21 159.86 272.38 168.21 271.42
C 183.19 269.68 194.18 260.57 215.89 231.90
C 230.14 213.08 237.49 205.82 242.27 205.82
C 246.18 205.82 248.28 210.79 248.29 220.13
C 248.31 224.96 249.14 240.40 250.15 254.47
C 251.16 268.54 252.00 283.83 252.01 288.46
C 252.02 295.87 252.31 296.88 254.37 296.88
C 255.67 296.88 266.36 293.79 278.14 290.01"/>
<path fill="#000000" stroke="none" d="
M 32.44 217.05
C 29.17 213.78 29.29 210.51 33.10 198.45
C 36.49 187.73 39.21 184.62 45.19 184.62
C 49.28 184.62 53.65 188.53 53.65 192.20
C 53.65 196.47 46.23 216.30 44.00 217.98
C 40.91 220.32 35.26 219.87 32.44 217.05
M 43.92 203.43
C 47.34 192.87 47.41 190.85 44.35 190.85
C 41.91 190.85 34.12 212.07 35.91 213.87
C 38.33 216.29 40.80 213.07 43.92 203.43"/>
<path fill="#000000" stroke="none" d="
M 49.91 173.39
C 46.29 169.77 46.82 164.74 51.85 155.09
C 59.19 141.01 65.40 137.63 71.94 144.16
C 75.99 148.22 75.46 151.43 68.65 163.83
C 62.16 175.66 55.55 179.03 49.91 173.39
M 63.46 159.14
C 67.30 152.30 68.50 149.06 67.56 148.13
C 65.60 146.17 63.18 148.65 57.95 158.00
C 53.67 165.64 53.04 170.47 56.46 169.33
C 57.32 169.06 60.46 164.47 63.46 159.14"/>
<path fill="#000000" stroke="none" d="
M 74.86 133.47
C 69.59 128.21 72.69 121.27 87.07 106.15
C 92.67 100.27 98.10 99.33 102.31 103.53
C 107.00 108.22 105.66 113.50 97.22 123.69
C 93.05 128.73 88.73 133.55 87.62 134.41
C 84.53 136.81 77.69 136.30 74.86 133.47
M 91.33 119.84
C 98.70 111.12 99.45 109.77 97.72 108.34
C 95.63 106.60 94.57 107.56 82.73 121.88
C 78.63 126.85 78.16 129.73 81.48 129.73
C 82.29 129.73 86.72 125.28 91.33 119.84"/>
<path fill="#000000" stroke="none" d="
M 112.85 95.49
C 109.51 92.13 108.82 86.57 111.35 83.26
C 114.15 79.61 128.81 68.58 131.90 67.80
C 138.44 66.16 144.65 72.47 143.00 79.09
C 141.94 83.29 123.12 98.54 118.96 98.54
C 117.29 98.54 114.53 97.17 112.85 95.49
M 128.05 84.70
C 136.73 77.60 138.95 74.02 134.46 74.37
C 131.94 74.56 116.03 87.37 116.03 89.20
C 116.03 90.62 117.22 92.31 118.21 92.31
C 118.49 92.31 122.92 88.88 128.05 84.70"/>
<path fill="#000000" stroke="none" d="
M 153.46 66.11
C 150.53 63.18 150.22 57.75 152.79 54.09
C 154.96 50.98 171.83 42.41 175.76 42.41
C 179.27 42.41 184.65 47.71 184.65 51.17
C 184.65 56.17 181.93 58.83 171.84 63.70
C 160.38 69.24 157.03 69.68 153.46 66.11
M 168.76 57.94
C 177.98 53.04 179.40 51.63 177.24 49.47
C 176.14 48.37 173.83 49.07 167.66 52.38
C 158.77 57.12 156.55 59.08 157.79 61.07
C 158.97 62.98 159.60 62.79 168.76 57.94"/>
<path fill="#000000" stroke="none" d="
M 197.21 44.12
C 191.68 37.07 194.81 31.52 206.96 26.88
C 220.26 21.79 223.78 21.54 227.61 25.37
C 231.09 28.84 231.72 33.21 229.25 36.59
C 227.59 38.84 206.21 47.40 202.19 47.40
C 200.88 47.40 198.64 45.92 197.21 44.12
M 213.88 37.05
C 223.73 33.07 226.53 30.61 222.84 29.19
C 220.53 28.30 204.18 34.32 202.11 36.82
C 200.71 38.49 201.36 41.23 203.13 41.10
C 203.60 41.08 208.44 39.24 213.88 37.05"/>
<path fill="#000000" stroke="none" d="
M 243.29 28.69
C 240.45 25.85 240.02 20.23 242.42 16.96
C 244.01 14.79 265.52 8.74 271.67 8.73
C 277.86 8.73 281.75 17.60 277.89 22.90
C 276.24 25.14 255.52 31.11 249.22 31.16
C 247.33 31.17 244.66 30.06 243.29 28.69
M 273.60 18.85
C 275.22 17.23 273.56 14.97 270.74 14.97
C 267.86 14.97 248.87 19.45 247.08 20.56
C 246.22 21.08 246.18 22.12 246.98 23.61
C 248.14 25.77 248.72 25.75 260.31 22.94
C 266.98 21.33 272.96 19.48 273.60 18.85"/>
<path fill="#000000" stroke="none" d="
M 452.99 28.09
C 446.84 26.44 441.80 24.34 440.83 23.00
C 436.89 17.61 440.70 8.73 446.97 8.73
C 452.66 8.73 472.07 14.18 474.29 16.40
C 477.34 19.45 477.24 25.56 474.10 28.69
C 470.95 31.85 466.52 31.72 452.99 28.09
M 470.51 20.86
C 469.90 20.25 464.27 18.49 458.01 16.94
C 448.38 14.56 446.41 14.40 445.18 15.85
C 442.78 18.76 446.46 20.97 457.14 23.01
C 462.55 24.05 467.30 25.22 467.70 25.62
C 468.10 26.01 469.14 25.35 470.02 24.15
C 470.95 22.88 471.16 21.51 470.51 20.86"/>
<path fill="#000000" stroke="none" d="
M 410.47 20.37
C 401.18 19.45 397.77 18.49 395.43 16.14
C 392.25 12.96 392.35 8.15 395.66 4.83
C 398.13 2.36 399.15 2.22 409.59 3.01
C 420.51 3.84 425.10 5.14 426.98 7.98
C 428.74 10.60 427.93 16.23 425.45 18.71
C 422.99 21.17 420.84 21.41 410.47 20.37
M 421.15 14.43
C 424.85 11.71 422.26 10.20 411.29 8.68
C 403.81 7.63 401.14 7.68 399.73 8.84
C 396.99 11.13 399.43 12.87 407.70 14.52
C 417.50 16.48 418.38 16.47 421.15 14.43"/>
<path fill="#000000" stroke="none" d="
M 293.20 17.46
C 290.30 14.57 289.98 10.20 292.38 6.90
C 294.27 4.33 302.75 2.73 315.34 2.58
C 324.01 2.48 328.13 4.99 328.13 10.37
C 328.13 17.26 321.92 19.72 304.11 19.88
C 297.29 19.95 295.22 19.48 293.20 17.46
M 321.59 12.19
C 322.83 11.18 322.84 10.50 321.68 9.09
C 320.48 7.66 318.06 7.47 309.50 8.16
C 297.74 9.12 294.71 10.40 297.18 13.38
C 298.41 14.87 300.73 15.06 309.37 14.35
C 315.23 13.86 320.73 12.89 321.59 12.19"/>
<path fill="#000000" stroke="none" d="
M 344.35 13.72
C 341.43 10.80 341.13 6.46 343.63 3.04
C 345.16 0.94 347.26 0.57 359.73 0.21
C 372.92 -0.17 374.29 0.00 376.69 2.40
C 379.97 5.68 380.02 10.49 376.79 13.72
C 374.59 15.92 372.63 16.22 360.57 16.22
C 348.50 16.22 346.54 15.92 344.35 13.72
M 372.86 9.58
C 375.52 6.39 371.75 4.99 360.47 4.99
C 349.24 4.99 345.20 6.59 348.37 9.75
C 350.49 11.88 371.07 11.73 372.86 9.58"/>
<path fill="#000000" stroke="none" d="
M 265.31 90.02
C 260.42 84.62 264.38 77.34 272.20 77.34
C 279.75 77.34 283.69 85.50 278.44 90.25
C 275.35 93.03 267.93 92.91 265.31 90.02
M 276.35 87.32
C 278.54 84.91 278.54 84.74 276.35 82.33
C 275.10 80.96 273.62 79.83 273.03 79.83
C 272.45 79.83 272.67 80.96 273.52 82.33
C 274.77 84.32 274.77 85.32 273.52 87.32
C 272.67 88.69 272.45 89.81 273.03 89.81
C 273.62 89.81 275.10 88.69 276.35 87.32"/>
<path fill="#cf9e66" stroke="none" d="
M 35.91 213.87
C 34.12 212.07 41.91 190.85 44.35 190.85
C 47.41 190.85 47.34 192.87 43.92 203.43
C 40.80 213.07 38.33 216.29 35.91 213.87"/>
<path fill="#cf9e66" stroke="none" d="
M 54.17 167.95
C 53.40 165.94 61.16 151.01 64.35 148.37
C 65.68 147.26 66.62 147.19 67.56 148.13
C 68.50 149.06 67.30 152.30 63.46 159.14
C 57.90 169.02 55.47 171.33 54.17 167.95"/>
<path fill="#cf9e66" stroke="none" d="
M 79.19 128.43
C 78.43 127.20 81.40 123.13 91.40 111.67
C 95.12 107.40 96.02 106.93 97.72 108.34
C 99.45 109.77 98.70 111.12 91.33 119.84
C 83.19 129.46 80.85 131.11 79.19 128.43"/>
<path fill="#cf9e66" stroke="none" d="
M 116.87 91.47
C 116.40 91.02 116.03 90.00 116.03 89.20
C 116.03 87.37 131.94 74.56 134.46 74.37
C 138.95 74.02 136.73 77.60 128.05 84.70
C 118.18 92.76 118.15 92.77 116.87 91.47"/>
<path fill="#cf9e66" stroke="none" d="
M 157.79 61.07
C 156.55 59.08 158.77 57.12 167.66 52.38
C 173.83 49.07 176.14 48.37 177.24 49.47
C 179.40 51.63 177.98 53.04 168.76 57.94
C 159.60 62.79 158.97 62.98 157.79 61.07"/>
<path fill="#cf9e66" stroke="none" d="
M 201.46 39.87
C 200.06 37.60 203.28 35.18 212.22 31.76
C 220.73 28.50 225.27 28.42 224.28 31.50
C 224.00 32.36 219.32 34.85 213.88 37.05
C 202.60 41.60 202.54 41.61 201.46 39.87"/>
<path fill="#cf9e66" stroke="none" d="
M 246.98 23.61
C 245.42 20.68 246.16 20.28 258.39 17.36
C 269.88 14.62 272.75 14.42 273.92 16.33
C 275.38 18.67 272.78 19.92 260.31 22.94
C 248.72 25.75 248.14 25.77 246.98 23.61"/>
<path fill="#cf9e66" stroke="none" d="
M 467.70 25.62
C 467.30 25.22 462.55 24.05 457.14 23.01
C 446.46 20.97 442.78 18.76 445.18 15.85
C 446.41 14.40 448.38 14.56 458.01 16.94
C 470.81 20.10 472.32 21.01 470.02 24.15
C 469.14 25.35 468.10 26.01 467.70 25.62"/>
<path fill="#cf9e66" stroke="none" d="
M 407.70 14.52
C 399.43 12.87 396.99 11.13 399.73 8.84
C 401.14 7.68 403.81 7.63 411.29 8.68
C 422.26 10.20 424.85 11.71 421.15 14.43
C 418.38 16.47 417.50 16.48 407.70 14.52"/>
<path fill="#cf9e66" stroke="none" d="
M 297.18 13.38
C 294.71 10.40 297.74 9.12 309.50 8.16
C 318.06 7.47 320.48 7.66 321.68 9.09
C 324.14 12.06 321.01 13.38 309.37 14.35
C 300.73 15.06 298.41 14.87 297.18 13.38"/>
<path fill="#cf9e66" stroke="none" d="
M 348.17 9.44
C 345.77 6.55 350.45 4.99 361.48 4.99
C 371.76 4.99 375.44 6.47 372.86 9.58
C 370.86 11.98 350.18 11.88 348.17 9.44"/>
<path fill="#ae3c2a" stroke="none" d="
M 113.12 591.68
C 110.05 588.61 116.64 585.73 131.04 583.85
C 155.44 580.64 165.87 574.85 176.89 558.39
C 188.56 540.95 196.87 515.29 203.40 476.51
C 207.81 450.32 209.98 441.02 213.61 432.54
L 216.15 426.61
L 234.64 426.61
L 253.15 426.61
L 251.19 431.29
C 250.11 433.86 247.32 439.77 244.99 444.41
C 242.64 449.06 236.04 464.22 230.30 478.09
C 224.56 491.98 216.09 512.03 211.49 522.66
C 206.88 533.29 201.42 547.05 199.35 553.22
C 195.90 563.46 195.64 565.38 196.38 575.09
C 197.46 589.50 196.79 590.32 183.22 591.46
C 169.65 592.58 114.20 592.77 113.12 591.68"/>
<path fill="#ae3c2a" stroke="none" d="
M 270.21 588.94
C 268.99 586.95 275.30 584.46 292.52 580.10
C 300.28 578.15 307.72 575.96 309.07 575.24
C 312.86 573.21 320.67 564.04 322.89 559.01
C 328.28 546.76 323.10 515.14 308.73 472.64
C 306.32 465.51 302.63 453.78 300.52 446.58
C 298.41 439.37 295.89 431.94 294.91 430.05
L 293.13 426.61
L 309.38 426.61
L 325.63 426.61
L 325.63 430.27
C 325.63 433.63 328.03 447.31 334.60 481.50
C 336.50 491.30 337.35 502.58 338.00 526.40
C 338.83 556.59 339.06 558.77 342.38 569.10
C 346.18 580.94 346.01 585.31 341.65 587.63
C 337.80 589.70 271.44 590.91 270.21 588.94"/>
<path fill="#ae3c2a" stroke="none" d="
M 252.01 288.46
C 252.00 283.83 251.16 268.54 250.15 254.47
C 249.14 240.40 248.31 224.96 248.29 220.13
C 248.28 210.79 246.18 205.82 242.27 205.82
C 237.49 205.82 230.14 213.08 215.89 231.90
C 194.18 260.57 183.19 269.68 168.21 271.42
C 159.86 272.38 141.76 269.21 101.68 259.77
C 74.17 253.28 70.73 252.74 59.26 253.06
C 23.77 254.06 16.97 253.83 12.65 251.51
C 6.35 248.15 9.20 246.60 18.84 248.17
C 43.62 252.19 53.74 246.51 42.99 234.62
C 40.31 231.65 39.10 229.41 39.90 228.91
C 41.62 227.85 49.52 232.75 51.89 236.37
C 52.90 237.93 57.07 240.70 61.15 242.52
C 68.23 245.70 69.91 245.90 99.46 246.97
C 126.10 247.96 132.10 248.54 142.85 251.29
C 149.72 253.04 157.30 254.47 159.70 254.46
C 168.22 254.46 174.73 248.01 183.19 231.21
C 191.65 214.40 207.21 193.01 220.72 179.59
C 236.79 163.61 246.08 158.22 262.45 155.36
C 268.43 154.33 274.46 152.87 275.84 152.12
C 286.28 146.53 285.29 123.59 274.51 121.43
C 272.46 121.04 270.10 119.86 269.25 118.84
C 267.56 116.81 268.19 116.13 275.74 111.95
C 281.08 108.99 279.95 106.57 273.41 106.99
C 268.60 107.30 268.24 107.10 268.24 104.10
C 268.24 98.99 266.06 96.22 261.36 95.34
C 258.95 94.89 256.69 94.04 256.33 93.46
C 255.73 92.48 261.87 76.44 264.29 72.64
C 265.10 71.38 266.42 71.45 270.83 73.02
C 287.92 79.10 306.21 81.27 315.88 78.37
C 319.95 77.15 321.07 77.23 322.65 78.81
C 324.34 80.51 324.25 81.48 321.82 88.07
C 320.32 92.11 318.19 98.66 317.09 102.60
C 315.19 109.36 315.22 110.01 317.39 114.05
C 318.66 116.40 321.31 118.99 323.29 119.81
C 325.26 120.64 326.88 121.71 326.88 122.20
C 326.88 122.69 325.72 126.41 324.30 130.47
C 320.07 142.57 322.42 150.37 331.42 154.18
C 333.57 155.09 342.81 156.45 351.95 157.19
C 369.29 158.58 390.37 162.27 416.54 168.49
C 442.55 174.66 447.23 173.48 456.69 158.38
C 459.74 153.51 467.23 141.83 473.33 132.45
C 479.42 123.06 486.99 110.06 490.17 103.56
C 495.34 92.94 495.99 90.67 496.37 81.49
C 496.76 72.55 496.40 70.34 493.55 64.13
C 490.46 57.38 490.25 52.70 493.28 57.98
C 495.75 62.30 502.48 68.61 504.61 68.61
C 508.73 68.61 512.38 63.06 514.49 53.54
C 518.00 37.80 519.02 34.93 521.08 34.93
C 522.26 34.93 522.76 35.64 522.34 36.72
C 521.96 37.71 521.03 42.06 520.25 46.39
C 518.46 56.52 515.51 68.54 514.04 71.73
C 513.40 73.10 511.52 77.59 509.86 81.70
C 487.50 137.18 468.23 174.62 456.65 185.08
C 452.11 189.18 450.97 189.60 444.47 189.58
C 440.53 189.57 429.73 188.73 420.46 187.73
C 395.35 185.01 373.99 185.26 363.87 188.40
C 339.45 195.94 326.31 220.99 323.63 265.19
L 322.79 279.03
L 311.17 281.09
C 304.79 282.21 289.93 286.23 278.14 290.01
C 266.36 293.79 255.67 296.88 254.37 296.88
C 252.31 296.88 252.02 295.87 252.01 288.46
M 278.44 90.25
C 283.69 85.50 279.75 77.34 272.20 77.34
C 264.38 77.34 260.42 84.62 265.31 90.02
C 267.93 92.91 275.35 93.03 278.44 90.25"/>
<path fill="#fefefe" stroke="none" d="
M 220.10 416.32
C 220.53 414.77 223.68 402.92 227.10 389.99
C 230.50 377.05 236.12 356.98 239.56 345.38
C 243.00 333.79 246.42 321.37 247.17 317.76
C 249.18 308.11 251.01 305.96 259.21 303.68
C 263.15 302.58 273.11 299.51 281.34 296.84
C 298.54 291.29 308.63 288.70 317.57 287.55
L 323.86 286.74
L 328.18 303.34
C 333.68 324.54 333.71 335.11 328.32 371.14
C 326.16 385.56 324.39 402.26 324.39 408.25
L 324.39 419.13
L 271.84 419.13
L 219.30 419.13
L 220.10 416.32"/>
<path fill="#fefefe" stroke="none" d="
M 273.22 87.95
C 274.16 86.83 274.43 84.75 273.92 82.65
L 273.07 79.21
L 275.88 81.97
C 278.62 84.66 278.64 84.80 276.39 87.27
C 273.77 90.16 270.86 90.80 273.22 87.95"/>
</g>
</svg>
