<?xml version="1.0" encoding="UTF-8" standalone="no"?>
<!DOCTYPE svg PUBLIC "-//W3C//DTD SVG 1.1//EN"
"http://www.w3.org/Graphics/SVG/1.1/DTD/svg11.dtd">
<svg width="534px" height="600px"
xmlns="http://www.w3.org/2000/svg" version="1.1">
<g transform="translate(0000, 0000) scale(1.0000, 1.0000)">
<path fill="#000000" stroke="none" d="
M 2.51 597.49
C 0.16 595.15 0.00 593.32 0.00 569.31
C 0.00 536.97 -1.04 538.62 19.22 538.62
L 33.41 538.62
L 32.89 535.06
C 32.15 530.08 34.95 527.81 45.52 524.82
C 74.68 516.55 80.55 514.06 88.07 506.74
C 97.54 497.52 101.54 485.24 101.52 465.43
C 101.51 449.50 96.67 409.09 88.45 356.37
C 77.61 286.76 74.30 251.61 75.66 220.46
C 77.07 188.15 81.52 167.70 91.41 148.00
C 99.12 132.66 104.04 120.63 104.04 117.16
C 104.04 112.89 101.52 111.48 93.80 111.48
C 85.38 111.48 85.01 111.92 80.28 127.77
C 77.15 138.23 75.91 140.29 72.72 140.29
C 69.67 140.29 63.93 135.53 63.93 133.00
C 63.93 131.84 67.39 125.27 71.61 118.41
L 79.30 105.92
L 78.53 96.03
C 77.76 85.84 76.41 82.67 72.87 82.66
C 68.43 82.65 61.62 80.00 60.86 78.00
C 60.33 76.62 64.84 66.28 73.52 48.90
C 88.75 18.44 94.57 11.02 108.43 4.36
C 115.14 1.15 117.32 0.75 128.55 0.69
C 140.66 0.63 141.52 0.81 150.74 5.36
C 170.09 14.92 183.74 34.20 189.52 60.13
C 191.95 71.09 192.20 76.73 192.70 131.74
C 193.36 202.32 194.62 196.66 178.14 196.66
L 168.25 196.66
L 167.22 209.50
C 166.66 216.56 166.30 243.12 166.42 268.52
L 166.63 314.71
L 153.59 395.27
L 140.56 475.84
L 141.99 503.54
C 143.03 523.90 143.04 532.21 142.01 534.93
L 140.61 538.62
L 233.64 538.62
L 326.68 538.62
L 344.49 324.11
L 362.31 109.60
L 379.65 56.22
C 389.21 26.86 397.40 2.20 397.89 1.42
C 398.98 -0.35 401.97 -0.43 403.02 1.28
C 403.46 1.98 411.92 26.24 421.83 55.18
C 437.19 100.05 440.06 109.60 441.24 119.97
C 442.48 130.85 470.07 528.78 470.07 535.77
L 470.07 538.62
L 499.53 538.62
C 527.32 538.62 529.12 538.76 531.49 541.13
C 533.84 543.47 534.00 545.30 534.00 569.31
C 534.00 593.32 533.84 595.15 531.49 597.49
C 529.00 599.99 527.32 600.00 267.00 600.00
C 6.68 600.00 5.00 599.99 2.51 597.49
M 524.97 590.98
C 527.08 588.88 527.08 549.75 524.97 547.64
C 522.78 545.45 11.22 545.45 9.03 547.64
C 6.92 549.75 6.92 588.88 9.03 590.98
C 11.22 593.17 522.78 593.17 524.97 590.98
M 130.42 536.72
C 132.55 535.62 134.45 533.39 134.94 531.41
C 135.42 529.53 135.17 516.21 134.39 501.81
L 132.99 475.63
L 146.05 394.70
L 159.11 313.78
L 158.90 268.06
C 158.78 242.92 159.13 216.56 159.70 209.50
L 160.73 196.66
L 149.31 196.66
C 132.58 196.66 133.53 198.61 132.15 161.47
C 130.03 105.01 130.88 93.47 137.96 83.19
C 140.07 80.13 142.64 75.62 143.67 73.14
C 145.35 69.12 145.33 68.34 143.57 65.65
C 141.90 63.11 140.57 62.63 135.15 62.63
C 129.13 62.63 128.39 62.27 123.52 56.98
C 120.55 53.75 116.48 50.79 114.01 50.09
C 109.03 48.66 85.26 48.44 83.28 49.82
C 81.00 51.37 70.01 72.59 70.81 73.88
C 71.23 74.54 73.82 75.70 76.58 76.43
C 81.60 77.79 82.31 78.69 84.79 87.02
C 85.59 89.71 87.02 91.05 89.95 91.89
C 95.04 93.34 95.20 95.99 90.27 97.08
C 81.34 99.03 84.99 103.97 95.37 103.97
C 104.03 103.97 108.28 105.65 110.17 109.80
C 113.32 116.71 111.19 124.36 99.23 149.06
C 88.22 171.82 84.54 188.34 83.18 221.09
C 81.88 252.63 84.70 282.50 95.92 355.74
C 111.84 459.76 112.58 480.14 101.27 501.34
C 93.70 515.54 82.66 522.44 57.35 528.75
C 48.90 530.87 41.48 533.07 40.85 533.67
C 40.18 534.31 40.36 535.54 41.32 536.69
C 43.71 539.56 124.86 539.59 130.42 536.72
M 462.05 529.54
C 461.62 524.54 455.37 432.80 448.15 325.68
C 440.94 218.54 434.70 127.38 434.28 123.07
L 433.52 115.24
L 401.78 115.24
L 370.04 115.24
L 369.25 122.44
C 368.62 128.27 334.69 536.30 334.69 538.10
C 334.69 538.38 363.52 538.62 398.77 538.62
L 462.84 538.62
L 462.05 529.54
M 428.67 101.15
C 427.30 97.53 420.39 78.13 413.30 58.03
L 400.40 21.49
L 386.35 63.70
C 378.63 86.89 372.30 106.30 372.30 106.81
C 372.30 107.31 385.53 107.72 401.72 107.72
L 431.12 107.72
L 428.67 101.15"/>
<path fill="#000000" stroke="none" d="
M 86.77 66.94
C 83.95 64.97 83.03 60.86 85.13 59.56
C 85.75 59.17 87.95 59.82 89.99 60.99
C 93.49 63.01 93.89 62.99 97.02 60.95
C 100.75 58.51 102.79 59.11 102.79 62.63
C 102.79 65.79 98.13 68.89 93.39 68.89
C 91.28 68.89 88.30 68.02 86.77 66.94"/>
<path fill="#fc9f8f" stroke="none" d="
M 334.69 538.10
C 334.69 536.30 368.62 128.27 369.25 122.44
L 370.04 115.24
L 401.78 115.24
L 433.52 115.24
L 434.28 123.07
C 434.70 127.38 440.94 218.54 448.15 325.68
C 455.37 432.80 461.62 524.54 462.05 529.54
L 462.84 538.62
L 398.77 538.62
C 363.52 538.62 334.69 538.38 334.69 538.10"/>
<path fill="#fc9f8f" stroke="none" d="
M 372.30 106.78
C 372.30 105.01 400.14 22.40 400.59 22.84
C 400.83 23.09 407.22 40.73 414.77 62.07
C 422.32 83.39 429.09 102.39 429.82 104.28
L 431.15 107.72
L 401.73 107.72
C 385.53 107.72 372.30 107.30 372.30 106.78"/>
<path fill="#c57a36" stroke="none" d="
M 41.32 536.69
C 40.36 535.54 40.18 534.31 40.85 533.67
C 41.48 533.07 48.90 530.87 57.35 528.75
C 82.66 522.44 93.70 515.54 101.27 501.34
C 112.58 480.14 111.84 459.76 95.92 355.74
C 84.70 282.50 81.88 252.63 83.18 221.09
C 84.54 188.34 88.22 171.82 99.23 149.06
C 111.19 124.36 113.32 116.71 110.17 109.80
C 108.28 105.65 104.03 103.97 95.37 103.97
C 84.99 103.97 81.34 99.03 90.27 97.08
C 95.20 95.99 95.04 93.34 89.95 91.89
C 87.02 91.05 85.59 89.71 84.79 87.02
C 82.31 78.69 81.60 77.79 76.58 76.43
C 73.82 75.70 71.23 74.56 70.82 73.90
C 69.60 71.91 81.83 50.33 84.61 49.57
C 88.84 48.41 109.44 48.78 114.01 50.09
C 116.48 50.79 120.55 53.75 123.52 56.98
C 128.39 62.27 129.13 62.63 135.15 62.63
C 140.57 62.63 141.90 63.11 143.57 65.65
C 145.33 68.34 145.35 69.12 143.67 73.14
C 142.64 75.62 140.07 80.13 137.96 83.19
C 130.88 93.47 130.03 105.01 132.15 161.47
C 133.53 198.61 132.58 196.66 149.31 196.66
L 160.73 196.66
L 159.70 209.50
C 159.13 216.56 158.78 242.92 158.90 268.06
L 159.11 313.78
L 146.05 394.70
L 132.99 475.63
L 134.39 501.81
C 135.17 516.21 135.42 529.53 134.94 531.41
C 133.22 538.27 130.79 538.62 84.83 538.62
C 48.60 538.62 42.71 538.36 41.32 536.69
M 100.01 66.94
C 102.86 64.94 103.73 60.85 101.57 59.52
C 100.90 59.11 98.85 59.75 97.02 60.95
C 93.89 62.99 93.49 63.01 89.99 60.99
C 85.84 58.61 83.99 59.12 83.99 62.63
C 83.99 65.79 88.65 68.89 93.39 68.89
C 95.49 68.89 98.48 68.02 100.01 66.94"/>
<path fill="#c45a40" stroke="none" d="
M 9.03 590.98
C 7.98 589.94 7.52 583.28 7.52 569.11
C 7.52 550.25 7.70 548.63 9.94 547.44
C 13.69 545.44 522.97 545.64 524.97 547.64
C 527.08 549.75 527.08 588.88 524.97 590.98
C 522.78 593.17 11.22 593.17 9.03 590.98"/>
</g>
</svg>
