<?xml version="1.0" encoding="UTF-8" standalone="no"?>
<!DOCTYPE svg PUBLIC "-//W3C//DTD SVG 1.1//EN"
"http://www.w3.org/Graphics/SVG/1.1/DTD/svg11.dtd">
<svg width="514px" height="600px"
xmlns="http://www.w3.org/2000/svg" version="1.1">
<g transform="translate(0000, 0000) scale(1.0000, 1.0000)">
<path fill="#000000" stroke="none" d="
M 14.78 599.09
C 2.53 597.42 -1.31 594.58 0.58 588.63
C 1.64 585.26 5.94 583.63 24.99 579.33
C 56.21 572.29 68.80 566.79 74.98 557.54
C 81.20 548.21 83.29 540.75 93.78 490.15
C 102.76 446.90 107.49 429.91 114.99 414.04
C 121.46 400.39 130.26 390.18 139.69 385.40
C 147.92 381.21 163.91 380.34 173.54 383.54
C 185.93 387.65 208.35 404.34 236.31 430.23
L 249.30 442.27
L 251.11 437.94
C 253.49 432.24 257.00 401.60 257.01 386.47
C 257.01 375.06 254.43 322.20 253.84 321.51
C 253.68 321.33 249.39 322.90 244.30 324.99
C 225.65 332.69 216.65 334.57 198.51 334.64
C 183.02 334.69 181.29 334.45 175.38 331.41
C 170.85 329.07 167.89 326.31 165.14 321.87
C 161.51 316.02 161.24 314.67 160.84 300.75
C 160.00 271.43 170.13 238.93 196.49 186.51
C 208.54 162.57 226.57 152.89 259.20 152.89
C 273.17 152.89 273.96 152.75 277.11 149.60
C 280.22 146.49 280.27 146.18 278.23 143.92
C 276.88 142.43 272.57 140.90 266.84 139.89
C 255.39 137.86 251.22 134.30 249.88 125.41
C 248.80 118.20 246.59 115.63 241.43 115.63
C 236.86 115.63 231.30 110.61 231.30 106.50
C 231.30 104.94 234.69 97.54 238.84 90.05
C 242.99 82.57 248.51 70.96 251.08 64.24
C 263.96 30.68 272.11 22.47 297.75 17.10
C 307.64 15.03 309.00 15.03 319.35 17.02
C 333.83 19.81 342.81 24.06 351.45 32.22
C 364.04 44.15 369.26 60.82 366.46 80.21
C 364.04 96.94 358.16 112.28 347.46 129.76
C 343.49 136.25 343.20 137.41 343.97 143.85
C 345.02 152.74 348.16 156.01 357.46 157.94
C 367.90 160.11 464.66 160.47 469.41 158.36
C 474.04 156.31 476.30 150.75 477.40 138.73
C 477.88 133.45 480.02 120.17 482.17 109.21
C 486.50 87.07 487.03 77.00 484.80 59.34
C 483.51 48.98 482.79 46.81 479.37 42.93
C 475.00 37.95 474.23 32.25 477.47 29.00
C 480.62 25.85 484.00 26.58 489.58 31.63
C 498.62 39.79 495.26 33.02 484.20 20.78
C 477.62 13.49 475.98 9.64 477.25 4.55
C 477.85 2.16 479.19 1.18 482.77 0.51
C 487.36 -0.35 487.76 -0.10 496.58 9.16
C 506.80 19.91 512.84 30.81 513.74 40.12
C 514.06 43.57 513.32 52.91 512.07 60.87
C 509.93 74.54 509.91 76.69 511.91 99.03
C 515.57 140.22 514.30 164.20 507.79 176.84
C 499.62 192.72 484.48 197.14 432.40 198.86
C 397.46 200.02 395.19 200.63 390.67 210.04
C 386.82 218.04 382.12 244.32 378.47 278.16
C 376.65 295.12 373.32 321.13 371.06 335.97
C 367.86 357.04 366.97 367.04 367.00 381.58
C 367.02 398.99 367.39 401.82 372.66 424.63
C 377.92 447.30 378.33 450.44 378.52 468.62
L 378.73 488.21
L 383.87 493.77
C 393.80 504.55 393.84 512.99 384.16 546.68
C 381.53 555.87 378.66 566.85 377.79 571.09
C 375.17 583.88 371.51 589.57 363.17 593.82
C 351.67 599.69 337.95 597.76 337.95 590.27
C 337.95 587.18 339.07 585.78 347.93 577.84
C 350.09 575.90 353.14 571.66 354.70 568.43
C 359.99 557.50 359.23 537.61 353.39 534.49
C 350.64 533.01 340.68 536.27 327.02 543.13
C 317.59 547.86 229.40 579.79 204.08 587.64
C 179.66 595.21 172.05 596.57 157.80 595.90
C 143.92 595.25 138.02 592.82 130.74 584.75
C 125.70 579.17 123.99 574.34 122.61 561.67
C 121.54 551.88 121.05 552.46 114.94 570.71
C 107.52 592.90 102.61 598.15 89.54 597.94
C 85.17 597.88 77.85 597.38 73.24 596.85
C 67.85 596.22 57.95 596.61 45.28 597.94
C 25.88 599.97 22.28 600.12 14.78 599.09
M 41.76 591.66
C 61.14 589.46 75.46 589.26 83.22 591.04
C 93.88 593.51 101.80 587.11 106.69 572.09
C 108.25 567.30 113.44 555.58 118.23 546.04
C 127.50 527.59 148.07 470.61 152.35 451.61
C 153.62 445.95 155.51 440.31 156.55 439.08
C 159.11 436.06 164.67 436.24 168.80 439.49
C 173.96 443.55 182.69 455.59 189.00 467.34
C 192.12 473.18 195.26 477.93 195.96 477.93
C 196.67 477.92 198.69 476.75 200.46 475.34
C 202.23 473.92 212.20 467.22 222.63 460.45
C 233.05 453.66 241.58 447.65 241.58 447.07
C 241.58 445.67 214.88 420.80 204.31 412.37
C 191.38 402.03 177.39 392.93 170.33 390.24
C 161.58 386.92 154.38 387.15 145.91 391.03
C 135.93 395.59 128.15 404.18 121.42 418.06
C 113.81 433.75 108.45 453.08 98.94 499.14
C 94.58 520.34 89.51 542.20 87.70 547.72
C 80.42 569.96 70.87 576.18 30.20 585.16
C 21.72 587.04 13.71 588.89 12.40 589.27
C 7.84 590.62 12.95 592.70 22.49 593.37
C 23.90 593.47 32.57 592.70 41.76 591.66
M 358.03 587.79
C 366.28 583.68 368.92 578.96 373.16 560.81
C 374.98 553.04 377.97 541.77 379.81 535.76
C 385.92 515.82 385.17 502.99 377.56 498.01
C 374.76 496.18 373.43 496.39 358.69 501.12
C 349.97 503.91 325.71 510.00 304.78 514.66
C 283.86 519.31 260.03 525.06 251.85 527.41
C 226.94 534.58 204.69 545.16 188.05 557.76
C 179.30 564.39 175.67 565.22 175.03 560.78
C 174.32 555.89 195.87 541.59 219.43 531.30
C 235.03 524.48 255.07 518.66 288.41 511.27
C 345.01 498.73 368.01 492.09 370.43 487.59
C 371.19 486.17 372.06 479.23 372.35 472.16
C 372.80 461.67 372.29 456.37 369.50 443.25
C 367.63 434.42 365.11 422.38 363.90 416.49
L 361.73 405.79
L 354.67 406.66
C 338.87 408.63 315.39 417.35 291.05 430.33
C 284.69 433.71 272.83 439.86 264.71 443.99
C 256.59 448.11 236.63 460.29 220.38 471.07
C 194.46 488.25 187.51 493.63 163.84 514.91
C 134.05 541.70 131.01 545.68 130.02 559.25
C 129.04 572.53 134.58 581.60 147.13 587.32
C 158.65 592.57 177.33 589.41 219.09 575.18
C 253.41 563.47 315.74 540.44 323.16 536.71
C 334.72 530.90 346.47 526.77 351.41 526.77
C 360.62 526.77 364.85 534.46 364.91 551.36
C 364.95 564.66 360.93 575.87 353.41 583.39
C 344.97 591.82 346.68 593.45 358.03 587.79
M 163.19 504.82
C 170.62 498.17 179.24 490.56 182.35 487.93
L 188.02 483.13
L 184.42 474.68
C 182.46 470.04 178.68 462.95 176.04 458.92
C 170.71 450.78 162.55 442.45 161.55 444.10
C 161.20 444.69 159.89 449.81 158.65 455.46
C 156.31 466.06 137.76 521.32 134.31 528.01
C 130.97 534.48 132.09 534.03 141.03 525.35
C 145.80 520.72 155.78 511.49 163.19 504.82
M 286.72 424.23
C 316.46 409.18 332.48 403.18 349.52 400.72
L 360.44 399.13
L 360.55 379.76
C 360.62 364.99 361.60 353.97 364.70 333.40
C 366.92 318.57 370.23 292.55 372.06 275.59
C 376.54 233.97 381.79 207.71 386.91 201.20
C 392.44 194.17 395.18 193.61 429.19 192.55
C 478.28 191.04 492.57 187.26 500.71 173.67
C 508.11 161.29 509.10 145.90 505.40 100.65
C 503.31 74.93 503.31 72.71 505.39 59.54
C 506.61 51.88 507.60 44.08 507.59 42.23
C 507.55 33.12 486.63 2.44 482.95 6.12
C 481.84 7.23 482.89 9.26 487.28 14.40
C 494.60 22.97 501.15 33.22 501.15 36.13
C 501.15 39.11 497.71 42.40 494.61 42.40
C 493.22 42.40 489.51 40.01 486.35 37.09
C 479.29 30.59 478.80 32.48 485.54 40.25
C 490.19 45.62 490.56 46.66 491.56 57.35
C 493.49 77.67 492.72 91.79 488.54 113.06
C 486.39 124.02 484.23 137.32 483.74 142.61
C 482.50 156.05 480.02 161.70 474.29 164.16
C 468.07 166.82 432.80 167.58 387.43 166.05
C 340.63 164.47 341.28 164.75 337.09 144.54
C 336.17 140.07 335.17 138.94 329.38 135.84
C 321.30 131.51 317.68 125.01 316.60 112.91
C 315.99 106.20 316.47 102.87 319.18 94.64
C 323.72 80.88 321.34 76.70 310.80 79.86
C 303.90 81.92 296.80 80.13 276.70 71.23
C 267.79 67.30 260.06 64.55 259.52 65.11
C 258.97 65.69 256.96 69.92 255.05 74.52
C 253.14 79.12 248.76 88.11 245.31 94.51
C 238.55 107.10 238.60 109.21 245.76 109.21
C 249.73 109.21 255.71 114.19 255.71 117.49
C 255.71 120.04 257.44 120.00 262.99 117.38
C 266.10 115.90 267.83 115.67 268.78 116.62
C 270.75 118.59 269.35 120.12 262.80 123.20
C 259.61 124.70 257.00 126.49 257.00 127.17
C 257.00 129.48 262.72 132.04 272.73 134.21
C 279.86 135.75 283.23 137.14 284.61 139.13
C 289.15 145.61 284.99 156.99 277.53 158.48
C 275.25 158.94 267.51 159.31 260.33 159.31
C 245.23 159.31 235.44 161.50 224.58 167.28
C 212.33 173.81 207.46 180.45 194.15 208.81
C 170.28 259.67 161.50 298.10 169.94 314.81
C 176.42 327.64 191.13 331.63 214.33 326.88
C 229.76 323.72 246.99 316.32 277.03 299.95
C 296.77 289.21 309.36 283.26 320.97 279.25
C 329.91 276.14 337.79 273.06 338.47 272.38
C 341.05 269.79 338.04 269.81 331.45 272.40
C 327.65 273.91 323.32 274.78 321.69 274.37
C 317.61 273.34 315.48 269.01 317.19 265.26
C 318.53 262.30 336.08 251.90 344.51 249.06
C 350.66 246.99 352.69 245.28 350.56 243.96
C 345.55 240.86 323.54 252.33 309.36 265.41
C 300.03 274.02 287.39 280.21 268.56 285.37
C 260.44 287.59 245.69 292.33 235.80 295.90
C 214.45 303.58 204.75 304.93 200.60 300.78
C 199.11 299.29 197.89 296.88 197.89 295.41
C 197.89 291.82 221.14 225.65 225.17 217.77
C 227.39 213.42 231.63 209.42 234.02 209.42
C 240.08 209.42 249.20 231.57 251.76 252.46
C 252.54 258.82 253.80 267.97 254.58 272.80
C 256.19 282.91 254.52 282.58 273.40 276.67
C 286.02 272.72 293.21 268.54 310.16 255.24
C 323.77 244.56 331.14 240.36 340.91 237.70
C 351.59 234.81 361.37 239.70 359.12 246.82
C 358.55 248.60 353.21 251.83 342.34 256.96
C 333.56 261.11 326.39 265.18 326.39 266.00
C 326.39 266.94 327.24 267.16 328.64 266.57
C 329.87 266.06 332.46 265.01 334.37 264.24
C 342.34 261.07 349.73 268.60 345.29 275.37
C 343.75 277.71 339.84 279.66 330.62 282.71
C 315.85 287.59 312.38 289.25 282.84 305.52
L 260.48 317.83
L 261.32 333.33
C 263.66 377.16 263.72 397.66 261.57 416.84
C 260.39 427.39 259.13 436.50 258.77 437.07
C 258.43 437.64 258.39 438.12 258.70 438.12
C 259.02 438.12 271.62 431.86 286.72 424.23
M 225.83 291.61
C 248.38 283.17 249.55 282.57 248.80 279.53
C 248.44 278.07 247.22 269.70 246.08 260.94
C 243.98 244.74 237.80 222.44 234.71 219.87
C 232.51 218.04 230.37 222.81 218.45 256.32
C 213.41 270.45 208.39 284.47 207.28 287.46
C 205.65 291.85 205.57 293.28 206.87 294.85
C 209.16 297.60 210.38 297.39 225.83 291.61"/>
<path fill="#000000" stroke="none" d="
M 262.44 92.21
C 259.22 90.67 257.62 86.35 258.84 82.51
C 260.39 77.61 271.21 75.42 278.18 78.59
C 284.09 81.29 284.06 89.60 278.11 92.31
C 274.10 94.14 266.33 94.09 262.44 92.21
M 275.50 89.76
C 280.99 87.26 280.88 84.03 275.20 81.03
C 271.64 79.16 270.25 79.90 273.04 82.20
C 275.54 84.28 275.50 85.95 272.87 88.87
C 270.40 91.59 271.03 91.80 275.50 89.76"/>
<path fill="#ae3c2a" stroke="none" d="
M 16.06 592.64
C 11.19 591.94 9.29 590.20 12.40 589.27
C 13.71 588.89 21.72 587.04 30.20 585.16
C 70.87 576.18 80.42 569.96 87.70 547.72
C 89.51 542.20 94.58 520.34 98.94 499.14
C 108.45 453.08 113.81 433.75 121.42 418.06
C 128.15 404.18 135.93 395.59 145.91 391.03
C 154.38 387.15 161.58 386.92 170.33 390.24
C 177.39 392.93 191.38 402.03 204.31 412.37
C 214.88 420.80 241.58 445.67 241.58 447.07
C 241.58 447.65 233.05 453.66 222.63 460.45
C 212.20 467.22 202.23 473.92 200.46 475.34
C 198.69 476.75 196.67 477.92 195.96 477.93
C 195.26 477.93 192.12 473.18 189.00 467.34
C 182.69 455.59 173.96 443.55 168.80 439.49
C 164.67 436.24 159.11 436.06 156.55 439.08
C 155.51 440.31 153.62 445.95 152.35 451.61
C 148.07 470.61 127.50 527.59 118.23 546.04
C 113.44 555.58 108.25 567.30 106.69 572.09
C 101.80 587.11 93.88 593.51 83.22 591.04
C 75.46 589.26 61.14 589.46 41.76 591.66
C 24.90 593.56 23.05 593.64 16.06 592.64"/>
<path fill="#ae3c2a" stroke="none" d="
M 347.94 590.29
C 347.55 589.89 350.01 586.78 353.41 583.39
C 360.93 575.87 364.95 564.66 364.91 551.36
C 364.85 534.46 360.62 526.77 351.41 526.77
C 346.47 526.77 334.72 530.90 323.16 536.71
C 315.74 540.44 253.41 563.47 219.09 575.18
C 177.33 589.41 158.65 592.57 147.13 587.32
C 134.58 581.60 129.04 572.53 130.02 559.25
C 131.01 545.68 134.05 541.70 163.84 514.91
C 187.51 493.63 194.46 488.25 220.38 471.07
C 236.63 460.29 256.59 448.11 264.71 443.99
C 272.83 439.86 284.69 433.71 291.05 430.33
C 315.39 417.35 338.87 408.63 354.67 406.66
L 361.73 405.79
L 363.90 416.49
C 365.11 422.38 367.63 434.42 369.50 443.25
C 372.29 456.37 372.80 461.67 372.35 472.16
C 372.06 479.23 371.19 486.17 370.43 487.59
C 368.01 492.09 345.01 498.73 288.41 511.27
C 255.07 518.66 235.03 524.48 219.43 531.30
C 195.87 541.59 174.32 555.89 175.03 560.78
C 175.67 565.22 179.30 564.39 188.05 557.76
C 204.69 545.16 226.94 534.58 251.85 527.41
C 260.03 525.06 283.86 519.31 304.78 514.66
C 325.71 510.00 349.97 503.91 358.69 501.12
C 373.43 496.39 374.76 496.18 377.56 498.01
C 385.17 502.99 385.92 515.82 379.81 535.76
C 377.97 541.77 374.98 553.04 373.16 560.81
C 368.92 578.96 366.28 583.68 358.03 587.79
C 351.52 591.04 349.25 591.60 347.94 590.29"/>
<path fill="#ae3c2a" stroke="none" d="
M 258.77 437.07
C 259.13 436.50 260.39 427.39 261.57 416.84
C 263.72 397.66 263.66 377.16 261.32 333.33
L 260.48 317.83
L 282.84 305.52
C 312.38 289.25 315.85 287.59 330.62 282.71
C 339.84 279.66 343.75 277.71 345.29 275.37
C 349.73 268.60 342.34 261.07 334.37 264.24
C 332.46 265.01 329.87 266.06 328.64 266.57
C 327.24 267.16 326.39 266.94 326.39 266.00
C 326.39 265.18 333.56 261.11 342.34 256.96
C 353.21 251.83 358.55 248.60 359.12 246.82
C 361.37 239.70 351.59 234.81 340.91 237.70
C 331.14 240.36 323.77 244.56 310.16 255.24
C 293.21 268.54 286.02 272.72 273.40 276.67
C 254.52 282.58 256.19 282.91 254.58 272.80
C 253.80 267.97 252.54 258.82 251.76 252.46
C 249.20 231.57 240.08 209.42 234.02 209.42
C 231.63 209.42 227.39 213.42 225.17 217.77
C 221.14 225.65 197.89 291.82 197.89 295.41
C 197.89 296.88 199.11 299.29 200.60 300.78
C 204.75 304.93 214.45 303.58 235.80 295.90
C 245.69 292.33 260.44 287.59 268.56 285.37
C 287.39 280.21 300.03 274.02 309.36 265.41
C 323.54 252.33 345.55 240.86 350.56 243.96
C 352.69 245.28 350.66 246.99 344.51 249.06
C 336.08 251.90 318.53 262.30 317.19 265.26
C 315.48 269.01 317.61 273.34 321.69 274.37
C 323.32 274.78 327.65 273.91 331.45 272.40
C 338.04 269.81 341.05 269.79 338.47 272.38
C 337.79 273.06 329.91 276.14 320.97 279.25
C 309.36 283.26 296.77 289.21 277.03 299.95
C 238.26 321.07 216.73 328.92 197.62 328.90
C 165.30 328.87 158.83 304.78 176.67 250.99
C 184.50 227.41 204.46 185.28 211.51 177.43
C 222.29 165.44 238.80 159.31 260.33 159.31
C 267.51 159.31 275.25 158.94 277.53 158.48
C 284.99 156.99 289.15 145.61 284.61 139.13
C 283.23 137.14 279.86 135.75 272.73 134.21
C 262.72 132.04 257.00 129.48 257.00 127.17
C 257.00 126.49 259.61 124.70 262.80 123.20
C 269.35 120.12 270.75 118.59 268.78 116.62
C 267.83 115.67 266.10 115.90 262.99 117.38
C 257.44 120.00 255.71 120.04 255.71 117.49
C 255.71 114.19 249.73 109.21 245.76 109.21
C 238.60 109.21 238.55 107.10 245.31 94.51
C 248.76 88.11 253.14 79.12 255.05 74.52
C 256.96 69.92 258.97 65.69 259.52 65.11
C 260.06 64.55 267.79 67.30 276.70 71.23
C 296.80 80.13 303.90 81.92 310.80 79.86
C 321.34 76.70 323.72 80.88 319.18 94.64
C 316.47 102.87 315.99 106.20 316.60 112.91
C 317.68 125.01 321.30 131.51 329.38 135.84
C 335.17 138.94 336.17 140.07 337.09 144.54
C 340.06 158.83 340.36 159.38 346.72 162.21
C 352.05 164.57 356.64 165.01 387.43 166.05
C 432.80 167.58 468.07 166.82 474.29 164.16
C 480.02 161.70 482.50 156.05 483.74 142.61
C 484.23 137.32 486.39 124.02 488.54 113.06
C 492.72 91.79 493.49 77.67 491.56 57.35
C 490.56 46.66 490.19 45.62 485.54 40.25
C 478.80 32.48 479.29 30.59 486.35 37.09
C 489.51 40.01 493.22 42.40 494.61 42.40
C 497.71 42.40 501.15 39.11 501.15 36.13
C 501.15 33.22 494.60 22.96 487.25 14.35
C 482.63 8.96 481.77 7.28 483.20 6.40
C 487.54 3.71 507.55 33.12 507.59 42.23
C 507.60 44.08 506.61 51.88 505.39 59.54
C 503.31 72.71 503.31 74.93 505.40 100.65
C 509.10 145.90 508.11 161.29 500.71 173.67
C 492.57 187.26 478.28 191.04 429.19 192.55
C 384.77 193.93 385.78 193.19 378.50 229.34
C 376.79 237.82 373.88 258.63 372.06 275.59
C 370.23 292.55 366.92 318.57 364.70 333.40
C 361.60 353.97 360.62 364.99 360.55 379.76
L 360.44 399.13
L 349.52 400.72
C 332.48 403.18 316.46 409.18 286.72 424.23
C 271.62 431.86 259.02 438.12 258.70 438.12
C 258.39 438.12 258.43 437.64 258.77 437.07
M 278.11 92.31
C 284.06 89.60 284.09 81.29 278.18 78.59
C 271.21 75.42 260.39 77.61 258.84 82.51
C 257.62 86.35 259.22 90.67 262.44 92.21
C 266.33 94.09 274.10 94.14 278.11 92.31"/>
<path fill="#fefefe" stroke="none" d="
M 273.13 88.57
C 275.09 86.40 275.25 85.50 273.97 83.46
C 271.74 79.89 272.03 79.36 275.31 81.08
C 280.88 84.03 280.95 87.28 275.50 89.76
C 270.93 91.85 270.40 91.58 273.13 88.57"/>
</g>
</svg>
