<?xml version="1.0" encoding="UTF-8" standalone="no"?>
<!DOCTYPE svg PUBLIC "-//W3C//DTD SVG 1.1//EN"
"http://www.w3.org/Graphics/SVG/1.1/DTD/svg11.dtd">
<svg width="461px" height="600px"
xmlns="http://www.w3.org/2000/svg" version="1.1">
<g transform="translate(0000, 0000) scale(1.0000, 1.0000)">
<path fill="#000000" stroke="none" d="
M 97.09 598.18
C 74.56 593.01 62.47 579.91 62.54 560.73
C 62.62 539.73 76.58 523.13 111.23 502.82
C 131.96 490.66 183.14 467.38 189.13 467.38
C 191.66 467.38 191.87 464.92 189.96 456.86
C 185.04 435.99 189.91 420.13 213.19 381.14
C 231.63 350.27 237.23 337.38 237.23 325.82
C 237.23 319.96 233.90 310.69 230.26 306.39
C 227.46 303.09 218.78 298.30 217.80 299.51
C 217.30 300.14 214.69 303.95 212.00 307.98
C 204.78 318.79 188.59 333.59 172.18 344.37
C 164.25 349.60 143.21 361.39 125.42 370.58
C 81.89 393.09 73.79 398.28 60.52 412.17
C 51.12 422.01 48.98 423.63 45.39 423.62
C 40.61 423.61 36.06 419.81 36.06 415.83
C 36.06 414.39 37.19 410.97 38.58 408.26
C 39.96 405.54 40.77 402.99 40.36 402.59
C 39.96 402.18 37.23 403.61 34.30 405.76
C 23.37 413.78 10.93 421.03 8.09 421.03
C 4.04 421.03 0.00 416.63 0.00 412.21
C 0.00 404.38 12.04 392.78 25.75 387.39
C 43.42 380.45 54.65 373.88 75.51 358.31
C 87.64 349.26 105.31 336.35 114.76 329.61
C 136.74 313.97 156.19 294.80 167.65 277.47
C 172.32 270.39 181.48 255.32 187.98 243.99
C 213.53 199.49 228.72 180.45 244.72 172.89
C 249.29 170.73 255.73 168.00 259.02 166.83
C 267.01 163.98 269.04 159.58 265.68 152.42
C 263.23 147.19 263.12 147.14 244.87 143.43
C 239.30 142.29 236.28 137.73 234.48 127.65
C 232.44 116.27 230.04 113.30 222.77 113.30
C 216.84 113.30 212.47 109.85 212.47 105.15
C 212.47 100.24 217.43 86.61 223.98 73.47
C 227.37 66.70 231.45 57.10 233.05 52.15
C 242.95 21.58 260.81 4.92 287.71 1.21
C 312.09 -2.16 335.11 5.68 349.19 22.12
C 352.96 26.54 359.55 33.84 363.82 38.36
L 371.59 46.56
L 400.49 29.72
C 416.39 20.46 430.35 12.88 431.52 12.88
C 434.77 12.88 435.85 15.03 439.79 29.33
C 444.38 45.98 444.31 46.08 426.66 48.24
C 412.93 49.93 413.96 50.67 431.95 52.06
C 444.62 53.02 445.23 53.90 442.38 67.20
C 439.68 79.84 438.50 82.40 435.45 82.40
C 434.20 82.40 421.08 77.19 406.30 70.83
C 391.52 64.45 379.28 59.39 379.10 59.58
C 378.92 59.76 379.99 63.36 381.48 67.61
C 383.99 74.77 384.23 78.68 384.73 121.67
L 385.27 168.03
L 396.51 179.61
C 402.68 185.99 411.22 195.84 415.45 201.50
C 428.33 218.69 452.36 254.27 456.93 262.91
C 460.76 270.14 461.15 271.87 460.63 278.76
C 460.05 286.35 448.53 321.76 428.25 378.33
C 423.60 391.31 419.79 403.33 419.79 405.03
C 419.79 406.74 421.00 412.53 422.48 417.93
C 426.52 432.62 425.63 450.99 420.39 461.51
C 415.84 470.63 411.20 474.53 406.34 473.30
C 400.55 471.86 399.74 467.74 402.38 453.33
C 404.73 440.60 404.50 432.68 401.69 429.30
C 399.72 426.93 398.39 427.89 395.29 433.97
C 391.13 442.13 383.42 442.49 379.23 434.73
C 376.05 428.82 377.26 423.71 385.62 407.78
C 392.21 395.19 392.57 394.00 393.96 379.83
C 397.13 347.56 402.14 318.82 408.09 298.87
C 410.28 291.52 412.07 284.51 412.07 283.30
C 412.07 278.19 403.81 265.02 394.97 256.00
L 385.69 246.57
L 385.04 261.15
C 384.21 279.49 384.30 279.40 366.34 279.40
L 353.31 279.40
L 350.89 320.92
C 349.56 343.76 348.52 370.26 348.57 379.83
C 348.70 402.23 352.27 438.30 355.58 450.64
C 358.87 462.93 360.30 496.30 358.10 509.37
C 357.18 514.78 354.24 523.21 350.54 530.99
L 344.48 543.72
L 348.20 546.44
C 350.24 547.92 356.91 553.08 363.01 557.91
C 377.63 569.48 389.24 576.33 400.72 580.17
C 405.90 581.90 411.15 584.52 412.39 586.00
C 415.48 589.70 415.21 594.30 411.78 596.70
C 405.62 601.03 395.58 599.00 354.76 585.17
C 329.01 576.44 315.00 572.94 306.06 573.00
C 303.10 573.03 294.31 574.18 286.52 575.58
C 262.11 579.94 184.57 592.17 159.68 595.58
C 129.62 599.70 107.70 600.61 97.09 598.18
M 143.01 590.95
C 166.05 588.10 253.41 574.62 276.21 570.39
C 309.82 564.15 317.65 565.07 364.46 580.73
C 381.12 586.30 397.13 591.24 400.04 591.71
C 408.89 593.12 407.74 590.18 398.24 587.09
C 386.40 583.25 375.10 576.95 362.90 567.42
C 346.72 554.78 340.10 550.97 336.20 552.06
C 334.37 552.58 327.08 552.93 320.00 552.84
C 307.30 552.66 303.94 552.06 254.32 541.17
C 241.34 538.33 235.57 537.77 218.27 537.71
C 200.07 537.64 195.89 538.06 182.43 541.22
C 174.05 543.19 161.12 546.80 153.70 549.23
C 139.54 553.87 133.03 554.63 128.36 552.17
C 126.81 551.36 121.75 547.16 117.12 542.83
C 112.48 538.52 104.69 532.79 99.82 530.11
L 90.95 525.24
L 84.05 532.04
C 75.07 540.89 69.52 551.83 69.56 560.61
C 69.61 573.00 76.04 581.73 89.73 588.03
C 103.04 594.14 112.78 594.68 143.01 590.95
M 146.40 544.06
C 173.13 534.41 200.91 529.75 225.04 530.85
C 242.10 531.62 245.13 532.12 284.83 540.73
C 314.55 547.17 325.87 548.30 332.55 545.50
C 335.20 544.39 337.38 542.64 337.38 541.61
C 337.38 540.58 339.98 534.80 343.16 528.76
C 346.36 522.73 349.82 514.13 350.88 509.65
C 354.39 494.70 352.81 463.25 347.87 450.46
C 346.64 447.26 345.94 447.03 335.22 446.19
C 327.61 445.61 317.97 446.01 306.04 447.40
C 250.11 453.95 195.89 469.35 147.13 492.55
C 128.59 501.37 99.15 518.28 99.15 520.09
C 99.15 520.73 103.02 523.40 107.74 526.04
C 112.47 528.68 118.97 533.51 122.18 536.77
C 128.69 543.37 133.78 547.18 136.10 547.20
C 136.95 547.21 141.58 545.79 146.40 544.06
M 413.21 461.18
C 418.87 450.01 419.97 433.65 415.94 420.82
C 411.69 407.25 412.34 402.18 421.84 375.08
C 438.72 326.86 454.56 279.46 454.54 277.20
C 454.47 272.64 449.44 263.95 432.63 239.36
C 413.50 211.39 402.19 196.44 392.02 185.64
L 385.12 178.33
L 385.08 206.78
L 385.03 235.25
L 397.71 247.98
C 414.18 264.55 419.29 274.09 418.04 286.02
C 417.59 290.36 415.74 298.58 413.93 304.31
C 408.65 321.03 403.35 351.80 400.37 383.05
C 398.95 398.02 398.69 398.90 391.97 411.77
C 385.27 424.57 383.65 430.33 386.26 431.95
C 386.94 432.36 388.71 430.35 390.18 427.47
C 395.08 417.85 403.63 417.23 408.19 426.15
C 411.36 432.37 411.63 444.98 408.82 456.86
C 406.07 468.55 408.35 470.79 413.21 461.18
M 207.97 460.94
C 241.38 449.45 313.44 437.29 334.93 439.52
C 346.24 440.69 346.41 440.36 344.19 420.39
C 341.72 398.06 341.77 358.79 344.31 322.53
C 345.45 306.24 346.38 289.88 346.39 286.16
L 346.39 279.40
L 325.79 279.40
C 298.66 279.40 300.04 280.67 300.04 255.58
C 300.04 245.32 299.89 236.92 299.71 236.92
C 299.53 236.94 296.21 237.80 292.31 238.84
C 278.07 242.67 259.83 240.79 243.21 233.78
C 241.59 233.09 239.05 235.93 232.12 246.17
C 220.95 262.70 217.76 268.89 216.89 275.86
C 216.01 282.80 219.16 289.22 225.35 293.14
C 239.22 301.92 243.94 310.21 243.92 325.75
C 243.89 340.88 239.00 352.94 220.10 384.45
C 201.55 415.36 193.16 436.21 195.08 446.61
C 197.21 458.23 198.59 463.52 199.50 463.52
C 200.03 463.52 203.84 462.36 207.97 460.94
M 54.77 406.83
C 59.51 401.14 64.98 395.67 66.92 394.66
C 68.87 393.66 74.06 390.44 78.46 387.52
C 82.86 384.59 100.84 374.76 118.40 365.67
C 160.54 343.88 170.98 337.39 189.50 321.52
C 197.87 314.33 207.86 302.09 210.51 295.76
C 212.06 292.04 212.06 290.72 210.53 286.38
C 206.48 275.06 209.14 266.88 224.36 243.76
C 230.92 233.77 236.96 224.52 237.78 223.21
C 238.96 221.28 239.72 221.10 241.64 222.24
C 242.95 223.03 244.02 224.77 244.02 226.11
C 244.02 227.86 246.16 229.39 251.75 231.66
C 262.29 235.92 280.21 236.85 291.78 233.70
L 300.04 231.48
L 300.04 163.06
C 300.04 87.55 299.41 93.84 308.34 81.12
C 311.91 76.04 312.02 75.50 310.22 72.30
C 306.85 66.27 301.16 65.30 267.87 65.16
L 237.63 65.02
L 230.85 77.25
C 227.11 83.97 223.44 91.70 222.70 94.39
C 221.95 97.09 221.05 100.06 220.70 100.98
C 219.58 103.89 223.95 106.87 229.30 106.87
C 235.47 106.87 239.51 110.41 239.51 115.80
C 239.51 120.81 240.78 121.36 247.78 119.50
C 252.25 118.30 254.03 118.29 255.16 119.42
C 257.28 121.55 254.39 124.71 247.56 127.74
C 244.55 129.08 242.09 130.62 242.09 131.19
C 242.09 133.94 248.15 137.05 256.58 138.61
C 267.23 140.58 271.75 144.24 274.39 153.05
C 277.46 163.31 272.17 170.70 258.64 175.06
C 237.18 181.94 223.44 197.67 193.83 249.14
C 164.45 300.21 154.38 311.32 107.59 344.41
C 97.70 351.40 82.52 362.50 73.82 369.08
C 57.20 381.67 46.04 387.97 32.19 392.52
C 19.08 396.85 3.77 409.87 7.46 413.55
C 8.63 414.72 9.64 414.48 11.90 412.48
C 16.32 408.55 28.10 401.15 36.43 397.07
C 42.21 394.22 44.36 393.72 46.07 394.80
C 49.49 396.94 49.40 400.89 45.74 408.09
C 42.62 414.24 42.40 417.17 45.03 417.17
C 45.64 417.17 50.01 412.52 54.77 406.83
M 435.07 67.27
C 435.79 63.91 435.89 60.67 435.28 60.05
C 434.36 59.11 392.62 55.09 391.81 55.88
C 391.66 56.03 396.29 58.11 402.11 60.46
C 407.95 62.83 416.19 66.35 420.44 68.29
C 428.29 71.88 431.34 73.11 432.89 73.29
C 433.37 73.34 434.34 70.64 435.07 67.27
M 410.57 43.13
C 419.54 42.08 428.69 40.91 430.91 40.53
L 434.95 39.85
L 433.03 33.13
C 429.89 22.08 429.67 22.08 409.74 33.73
C 400.04 39.41 391.86 44.28 391.57 44.55
C 390.72 45.37 393.31 45.18 410.57 43.13"/>
<path fill="#000000" stroke="none" d="
M 243.67 88.55
C 240.45 87.00 238.84 82.67 240.07 78.82
C 241.63 73.92 252.47 71.72 259.45 74.90
C 265.37 77.60 265.35 85.93 259.38 88.65
C 255.37 90.48 247.58 90.42 243.67 88.55
M 256.77 86.09
C 262.27 83.59 262.15 80.34 256.46 77.34
C 252.89 75.46 251.50 76.21 254.30 78.52
C 256.81 80.60 256.77 82.27 254.13 85.20
C 251.66 87.93 252.29 88.13 256.77 86.09"/>
<path fill="#ef907a" stroke="none" d="
M 430.09 72.50
C 429.04 72.13 424.69 70.24 420.44 68.29
C 416.19 66.35 407.95 62.83 402.11 60.46
C 396.29 58.11 391.66 56.03 391.81 55.88
C 392.62 55.09 434.36 59.11 435.28 60.05
C 436.48 61.27 434.27 73.45 432.89 73.29
C 432.41 73.24 431.15 72.88 430.09 72.50"/>
<path fill="#ef907a" stroke="none" d="
M 393.43 43.35
C 403.07 36.88 426.54 24.33 428.37 24.68
C 429.82 24.97 431.34 27.66 432.77 32.48
L 434.96 39.85
L 430.92 40.53
C 425.65 41.41 394.76 45.06 392.57 45.06
C 391.62 45.06 391.98 44.33 393.43 43.35"/>
<path fill="#ae3c2a" stroke="none" d="
M 101.96 592.18
C 88.65 589.56 75.96 581.19 71.96 572.37
C 66.38 560.11 70.93 544.98 84.05 532.04
L 90.95 525.24
L 99.82 530.11
C 104.69 532.79 112.48 538.52 117.12 542.83
C 121.75 547.16 126.81 551.36 128.36 552.17
C 133.03 554.63 139.54 553.87 153.70 549.23
C 161.12 546.80 174.05 543.19 182.43 541.22
C 195.89 538.06 200.07 537.64 218.27 537.71
C 235.57 537.77 241.34 538.33 254.32 541.17
C 303.94 552.06 307.30 552.66 320.00 552.84
C 327.08 552.93 334.37 552.58 336.20 552.06
C 340.10 550.97 346.72 554.78 362.90 567.42
C 375.10 576.95 386.40 583.25 398.24 587.09
C 407.74 590.18 408.89 593.12 400.04 591.71
C 397.13 591.24 381.12 586.30 364.46 580.73
C 317.65 565.07 309.82 564.15 276.21 570.39
C 253.41 574.62 166.05 588.10 143.01 590.95
C 120.72 593.70 111.13 593.99 101.96 592.18"/>
<path fill="#ae3c2a" stroke="none" d="
M 407.64 466.22
C 407.23 465.57 407.77 461.36 408.82 456.86
C 411.63 444.98 411.36 432.37 408.19 426.15
C 403.63 417.23 395.08 417.85 390.18 427.47
C 388.71 430.35 386.94 432.36 386.26 431.95
C 383.65 430.33 385.27 424.57 391.97 411.77
C 398.69 398.90 398.95 398.02 400.37 383.05
C 403.35 351.80 408.65 321.03 413.93 304.31
C 415.74 298.58 417.59 290.36 418.04 286.02
C 419.29 274.09 414.18 264.55 397.71 247.98
L 385.03 235.25
L 385.08 206.78
L 385.12 178.33
L 392.02 185.64
C 402.19 196.44 413.50 211.39 432.63 239.36
C 449.44 263.95 454.47 272.64 454.54 277.20
C 454.56 279.46 438.72 326.86 421.84 375.08
C 412.34 402.18 411.69 407.25 415.94 420.82
C 419.97 433.65 418.87 450.01 413.21 461.18
C 410.56 466.42 408.77 468.05 407.64 466.22"/>
<path fill="#ae3c2a" stroke="none" d="
M 43.16 415.93
C 42.75 415.25 43.91 411.72 45.74 408.09
C 49.40 400.89 49.49 396.94 46.07 394.80
C 44.36 393.72 42.21 394.22 36.43 397.07
C 28.10 401.15 16.32 408.55 11.90 412.48
C 9.64 414.48 8.63 414.72 7.46 413.55
C 3.77 409.87 19.08 396.85 32.19 392.52
C 46.04 387.97 57.20 381.67 73.82 369.08
C 82.52 362.50 97.70 351.40 107.59 344.41
C 154.38 311.32 164.45 300.21 193.83 249.14
C 210.22 220.64 221.04 204.41 230.54 194.05
C 240.03 183.68 247.51 178.64 258.64 175.06
C 272.17 170.70 277.46 163.31 274.39 153.05
C 271.75 144.24 267.23 140.58 256.58 138.61
C 248.15 137.05 242.09 133.94 242.09 131.19
C 242.09 130.62 244.55 129.08 247.56 127.74
C 254.39 124.71 257.28 121.55 255.16 119.42
C 254.03 118.29 252.25 118.30 247.78 119.50
C 240.78 121.36 239.51 120.81 239.51 115.80
C 239.51 110.41 235.47 106.87 229.30 106.87
C 226.42 106.87 223.38 105.99 222.22 104.85
C 221.11 103.73 220.20 102.72 220.21 102.59
C 220.40 99.36 225.52 87.13 230.55 77.79
C 235.53 68.59 237.89 65.47 240.35 64.85
C 242.14 64.40 255.87 64.34 270.86 64.70
C 300.82 65.42 307.04 66.62 310.22 72.30
C 312.02 75.50 311.91 76.04 308.34 81.12
C 299.41 93.84 300.04 87.55 300.04 163.06
L 300.04 231.48
L 291.78 233.70
C 280.21 236.85 262.29 235.92 251.75 231.66
C 246.16 229.39 244.02 227.86 244.02 226.11
C 244.02 224.77 242.95 223.03 241.64 222.24
C 239.72 221.10 238.96 221.28 237.78 223.21
C 236.96 224.52 230.92 233.77 224.36 243.76
C 209.14 266.88 206.48 275.06 210.53 286.38
C 212.06 290.72 212.06 292.04 210.51 295.76
C 207.86 302.09 197.87 314.33 189.50 321.52
C 170.98 337.39 160.54 343.88 118.40 365.67
C 100.84 374.76 82.86 384.59 78.46 387.52
C 74.06 390.44 68.87 393.66 66.92 394.66
C 64.98 395.67 59.51 401.14 54.77 406.83
C 46.20 417.09 44.64 418.31 43.16 415.93
M 259.38 88.65
C 265.35 85.93 265.37 77.60 259.45 74.90
C 252.47 71.72 241.63 73.92 240.07 78.82
C 238.84 82.67 240.45 87.00 243.67 88.55
C 247.58 90.42 255.37 90.48 259.38 88.65"/>
<path fill="#fefefe" stroke="none" d="
M 254.39 84.90
C 256.36 82.73 256.51 81.82 255.24 79.78
C 253.00 76.20 253.29 75.67 256.58 77.39
C 262.15 80.34 262.23 83.60 256.77 86.09
C 252.19 88.18 251.66 87.91 254.39 84.90"/>
<path fill="#ffbf53" stroke="none" d="
M 131.29 544.94
C 129.50 543.71 125.40 540.04 122.18 536.77
C 118.97 533.51 112.47 528.68 107.74 526.04
C 103.02 523.40 99.15 520.73 99.15 520.09
C 99.15 518.28 128.59 501.37 147.13 492.55
C 195.89 469.35 250.11 453.95 306.04 447.40
C 317.97 446.01 327.61 445.61 335.22 446.19
C 345.94 447.03 346.64 447.26 347.87 450.46
C 352.81 463.25 354.39 494.70 350.88 509.65
C 349.82 514.13 346.36 522.73 343.16 528.76
C 339.98 534.80 337.38 540.58 337.38 541.61
C 337.38 542.64 335.20 544.39 332.55 545.50
C 325.87 548.30 314.55 547.17 284.83 540.73
C 245.13 532.12 242.10 531.62 225.04 530.85
C 200.91 529.75 173.13 534.41 146.40 544.06
C 135.97 547.80 135.51 547.84 131.29 544.94"/>
<path fill="#ffbf53" stroke="none" d="
M 197.23 457.40
C 196.52 454.04 195.55 449.19 195.08 446.61
C 193.16 436.21 201.55 415.36 220.10 384.45
C 239.00 352.94 243.89 340.88 243.92 325.75
C 243.94 310.21 239.22 301.92 225.35 293.14
C 216.13 287.30 214.27 276.89 220.34 264.91
C 223.64 258.42 237.98 236.86 240.34 234.88
C 241.54 233.86 244.85 234.46 252.66 237.10
C 265.11 241.31 280.57 242.00 292.31 238.84
C 296.21 237.80 299.53 236.94 299.71 236.92
C 299.89 236.92 300.04 245.32 300.04 255.58
C 300.04 280.67 298.66 279.40 325.79 279.40
L 346.39 279.40
L 346.39 286.16
C 346.38 289.88 345.45 306.24 344.31 322.53
C 341.77 358.79 341.72 398.06 344.19 420.39
C 346.41 440.36 346.24 440.69 334.93 439.52
C 313.44 437.29 241.38 449.45 207.97 460.94
C 203.84 462.36 200.03 463.52 199.50 463.52
C 198.96 463.52 197.93 460.76 197.23 457.40"/>
</g>
</svg>
