<?xml version="1.0" encoding="UTF-8" standalone="no"?>
<!DOCTYPE svg PUBLIC "-//W3C//DTD SVG 1.1//EN"
"http://www.w3.org/Graphics/SVG/1.1/DTD/svg11.dtd">
<svg width="585px" height="600px"
xmlns="http://www.w3.org/2000/svg" version="1.1">
<g transform="translate(0000, 0000) scale(1.0000, 1.0000)">
<path fill="#000000" stroke="none" d="
M 387.45 598.14
C 382.95 597.24 368.33 591.91 354.95 586.29
C 319.10 571.23 310.79 569.70 284.34 573.33
C 279.16 574.04 278.91 574.25 279.56 577.52
C 280.49 582.10 276.44 586.25 271.09 586.25
C 268.94 586.25 264.14 584.51 260.41 582.38
C 255.60 579.62 252.74 578.74 250.52 579.29
C 247.59 580.02 247.53 580.23 249.33 582.81
C 251.92 586.51 251.75 589.50 248.75 592.50
C 244.85 596.40 239.34 595.64 229.56 589.83
L 220.86 584.66
L 209.50 585.46
C 203.24 585.91 180.40 588.80 158.75 591.89
C 137.09 594.98 115.08 597.50 109.83 597.50
C 91.01 597.50 77.31 590.41 70.26 577.05
C 67.17 571.19 66.88 569.41 66.88 556.85
C 66.88 543.89 67.11 542.60 70.86 534.96
C 75.75 525.06 79.16 521.70 91.25 514.96
C 96.40 512.09 101.89 508.94 103.44 507.96
L 106.26 506.19
L 103.31 500.28
C 101.70 497.04 98.80 490.15 96.89 485.00
C 94.98 479.85 90.40 468.75 86.71 460.34
C 74.51 432.51 73.00 422.33 78.81 407.04
C 81.74 399.34 81.80 398.62 79.39 399.54
C 78.38 399.94 75.24 404.41 72.44 409.49
C 64.45 423.95 58.26 428.90 50.58 426.97
C 45.80 425.77 44.29 420.65 46.74 413.95
C 48.79 408.31 47.85 403.75 44.64 403.75
C 41.59 403.76 35.23 408.66 29.86 415.12
C 15.51 432.48 10.34 435.90 4.39 432.00
C -3.45 426.86 -0.18 418.06 15.85 401.23
C 24.77 391.85 28.03 389.44 41.48 382.21
C 72.72 365.41 94.61 350.85 112.95 334.68
L 119.01 329.32
L 112.58 324.98
C 100.79 317.01 94.80 304.50 97.39 293.23
C 99.29 284.99 102.91 279.44 109.18 275.17
C 121.76 266.62 132.41 266.44 154.31 274.38
C 162.84 277.47 170.35 280.00 170.97 280.00
C 174.01 280.00 184.86 263.60 209.05 222.47
C 232.31 182.94 247.49 167.75 269.43 162.01
C 273.51 160.95 277.56 159.11 278.43 157.93
C 282.00 153.04 279.04 139.70 274.07 138.31
C 272.86 137.97 268.50 137.32 264.38 136.85
C 256.05 135.90 250.70 133.64 249.53 130.57
C 249.10 129.45 248.75 125.26 248.75 121.24
C 248.75 112.62 247.24 110.60 239.89 109.36
C 233.62 108.30 229.50 104.57 230.40 100.81
C 230.76 99.34 233.58 90.81 236.66 81.88
C 239.74 72.94 243.74 60.89 245.55 55.09
C 253.94 28.24 263.56 15.35 281.54 6.86
C 319.59 -11.10 364.96 11.43 381.38 56.40
C 389.05 77.44 390.04 86.33 391.10 144.38
L 392.00 194.38
L 396.78 203.69
C 399.39 208.81 404.03 220.06 407.06 228.69
C 410.10 237.31 415.74 250.84 419.59 258.75
C 425.46 270.81 428.03 274.54 435.49 281.95
C 440.38 286.81 451.64 295.77 460.53 301.88
C 480.24 315.41 486.16 320.30 507.60 340.72
C 528.62 360.75 540.30 370.07 550.48 374.93
C 556.50 377.80 561.02 381.44 568.91 389.72
C 585.17 406.82 588.49 415.59 580.61 420.75
C 574.61 424.68 570.11 421.65 554.52 403.25
C 551.16 399.29 546.51 395.14 544.19 394.04
C 540.29 392.18 539.79 392.18 537.94 394.03
C 536.09 395.88 536.10 396.53 538.07 402.09
C 540.69 409.43 539.32 414.50 534.43 415.72
C 526.69 417.66 520.55 412.70 512.39 397.92
C 505.32 385.14 494.91 374.94 476.88 363.15
C 430.26 332.69 425.74 329.45 413.68 317.88
C 406.82 311.29 398.10 301.77 394.29 296.70
L 387.36 287.50
L 373.25 287.50
L 359.15 287.50
L 357.39 296.56
C 356.14 303.01 355.64 315.16 355.68 338.75
L 355.72 371.88
L 361.23 405.00
C 366.40 436.18 366.73 439.56 366.73 462.50
C 366.74 491.53 364.17 506.45 356.18 523.86
C 353.46 529.77 351.25 535.12 351.25 535.77
C 351.25 539.24 375.31 567.89 381.86 572.24
C 385.04 574.34 392.11 577.10 398.26 578.64
C 412.89 582.31 417.22 584.29 418.95 588.07
C 420.21 590.84 420.02 591.69 417.55 594.31
C 414.68 597.38 405.56 600.11 399.00 599.89
C 397.15 599.81 391.95 599.04 387.45 598.14
M 407.49 591.39
C 411.59 590.24 410.09 589.46 397.57 586.26
C 379.64 581.69 373.22 577.16 359.14 559.11
C 349.06 546.21 345.55 544.71 333.15 548.07
C 328.68 549.29 323.75 549.96 322.20 549.58
C 320.64 549.20 308.12 547.44 294.38 545.66
C 280.62 543.89 267.75 542.11 265.77 541.71
C 262.19 540.99 262.18 541.01 263.05 545.80
C 263.99 550.97 268.62 561.76 271.42 565.26
C 273.01 567.25 274.05 567.27 286.88 565.49
C 311.31 562.10 322.25 564.31 359.95 580.28
C 385.83 591.24 397.89 594.06 407.49 591.39
M 158.22 584.46
C 179.49 581.41 200.69 578.54 205.34 578.06
L 213.81 577.20
L 213.17 573.29
C 212.82 571.14 211.95 563.75 211.24 556.88
C 209.21 537.51 209.69 538.47 202.78 539.39
C 191.14 540.92 150.51 548.88 145.09 550.66
C 129.95 555.68 121.09 550.77 100.99 526.25
L 96.38 520.62
L 91.81 523.07
C 85.49 526.48 78.06 535.28 75.72 542.16
C 74.60 545.44 73.75 552.09 73.75 557.48
C 73.75 578.69 86.25 589.86 110.10 589.96
C 115.31 589.99 136.97 587.51 158.22 584.46
M 241.94 586.15
C 242.40 585.40 241.38 583.30 239.66 581.46
C 226.68 567.51 223.66 550.83 229.39 524.76
C 231.41 515.56 231.57 512.67 230.41 505.88
C 229.65 501.46 228.05 495.77 226.84 493.22
C 224.09 487.43 214.14 480.59 200.50 475.16
C 194.94 472.94 188.46 469.50 186.12 467.52
C 182.15 464.16 182.01 463.80 183.96 461.80
C 185.93 459.79 186.76 460.01 198.34 465.56
C 219.51 475.71 221.39 476.76 226.86 481.54
C 233.69 487.50 235.71 492.74 239.55 514.31
C 242.61 531.51 249.36 563.15 250.75 566.76
C 251.14 567.76 255.40 570.92 260.23 573.80
C 266.59 577.58 269.38 578.62 270.36 577.64
C 271.36 576.64 270.86 575.33 268.56 572.83
C 257.50 560.77 256.11 555.81 254.96 524.38
C 254.41 509.19 253.35 496.27 252.46 493.75
C 248.38 482.24 233.05 468.00 221.60 465.06
C 203.75 460.50 196.25 456.84 193.81 451.50
C 193.09 449.93 192.50 442.84 192.50 435.75
C 192.50 428.66 191.89 415.53 191.14 406.55
C 188.95 380.48 192.73 364.36 202.55 357.74
C 206.50 355.07 207.66 354.93 217.67 355.70
C 225.90 356.35 230.88 356.02 238.31 354.38
C 255.09 350.65 278.75 339.14 278.75 334.69
C 278.75 332.33 265.10 319.84 253.98 312.01
C 248.25 307.99 240.30 301.66 236.29 297.96
C 227.38 289.70 216.50 283.01 207.91 280.51
C 201.84 278.74 200.89 278.80 191.98 281.39
C 186.76 282.90 182.50 284.61 182.50 285.19
C 182.50 286.56 183.15 286.52 188.86 284.83
C 192.86 283.62 194.15 283.72 196.81 285.48
C 200.54 287.91 200.86 290.70 197.81 294.16
C 195.69 296.57 195.71 296.61 198.75 295.68
C 208.14 292.75 211.95 293.31 221.46 299.05
C 226.50 302.09 234.12 306.44 238.40 308.70
C 246.90 313.19 258.75 324.70 258.75 328.46
C 258.75 333.44 249.84 338.90 236.61 342.01
C 226.55 344.39 213.02 343.73 196.18 340.05
C 188.26 338.33 182.66 337.84 176.48 338.36
C 168.78 339.00 167.55 338.80 165.16 336.41
C 161.18 332.43 161.92 327.84 168.19 318.18
C 174.45 308.51 174.84 305.44 169.74 305.98
C 165.99 306.36 164.15 304.40 166.09 302.06
C 166.81 301.20 167.09 299.31 166.71 297.88
C 166.34 296.44 166.69 294.01 167.51 292.49
C 169.51 288.75 167.81 287.24 157.17 283.26
L 148.72 280.10
L 141.96 288.29
C 138.25 292.79 134.88 297.81 134.47 299.44
C 134.03 301.20 135.25 306.98 137.49 313.71
C 143.86 332.91 143.16 335.09 123.76 355.93
C 103.01 378.24 96.69 386.46 90.51 399.14
C 80.85 418.96 80.66 426.36 89.26 446.88
C 91.56 452.38 96.10 463.35 99.32 471.25
C 102.55 479.15 107.44 490.66 110.19 496.81
C 116.65 511.29 130.40 528.95 133.64 526.94
C 134.40 526.48 132.61 523.29 129.28 519.19
C 122.89 511.34 122.54 507.98 127.83 505.04
C 130.96 503.30 131.62 503.33 134.99 505.24
C 139.16 507.61 141.09 506.35 137.79 503.41
C 136.60 502.36 131.82 499.43 127.19 496.89
C 119.22 492.54 118.51 491.78 114.46 483.22
C 110.26 474.38 97.29 435.02 95.62 426.14
C 94.45 419.80 96.90 414.79 109.18 398.36
C 120.69 382.96 127.44 376.25 131.41 376.25
C 132.84 376.25 135.84 378.09 138.09 380.34
C 141.22 383.47 142.64 386.49 144.21 393.39
C 146.88 405.10 146.79 410.39 143.64 428.27
C 139.82 449.98 141.75 459.88 151.97 471.20
C 159.14 479.12 166.14 483.39 184.21 490.85
C 211.30 502.02 213.56 504.38 215.11 523.12
C 216.68 542.08 220.05 569.16 221.38 573.33
C 222.31 576.30 224.69 578.52 231.00 582.34
C 240.25 587.92 240.74 588.10 241.94 586.15
M 242.26 562.81
C 237.60 543.30 235.85 537.50 234.66 537.50
C 233.91 537.50 233.65 541.56 233.98 547.81
C 234.56 558.90 239.45 572.50 242.85 572.50
C 244.29 572.50 244.18 570.80 242.26 562.81
M 144.38 543.07
C 147.81 542.04 161.31 539.23 174.38 536.84
C 187.44 534.45 200.09 532.08 202.50 531.56
L 206.88 530.62
L 207.25 522.05
C 207.61 513.54 207.59 513.42 202.88 509.05
C 198.64 505.11 192.15 502.01 162.50 489.74
C 159.94 488.68 157.84 489.14 150.81 492.33
L 142.24 496.21
L 145.50 500.07
C 149.44 504.76 149.61 507.89 146.10 511.40
C 144.01 513.49 142.44 513.90 138.60 513.39
L 133.75 512.74
L 138.75 518.42
C 144.55 525.00 144.93 527.69 140.69 531.94
C 134.70 537.91 126.90 535.15 118.32 524.01
C 110.57 513.95 109.80 513.40 106.45 515.75
L 103.69 517.69
L 107.34 522.27
C 113.59 530.14 123.31 539.76 127.69 542.44
C 132.68 545.48 136.02 545.61 144.38 543.07
M 334.43 539.64
L 341.88 536.77
L 347.30 525.57
C 353.51 512.78 356.64 501.73 358.61 485.62
C 360.26 472.16 360.41 447.57 358.85 445.12
C 357.95 443.70 354.98 443.52 342.94 444.24
C 321.51 445.48 301.42 448.65 250.35 458.86
C 246.76 459.58 242.61 461.15 241.11 462.35
L 238.41 464.55
L 241.76 467.19
C 247.97 472.08 257.46 485.21 259.49 491.73
C 260.70 495.64 261.74 505.05 262.16 515.94
C 262.54 525.74 262.91 533.77 262.99 533.80
C 263.20 533.88 324.19 542.20 325.68 542.36
C 326.39 542.44 330.32 541.21 334.43 539.64
M 146.49 476.32
C 134.38 461.46 132.14 451.08 136.14 428.27
C 137.57 420.11 138.75 411.00 138.75 408.03
C 138.75 400.02 136.41 390.54 133.52 386.88
C 131.39 384.16 130.69 383.91 129.05 385.26
C 126.86 387.06 105.64 415.23 103.62 418.99
C 101.96 422.08 102.64 425.16 110.26 449.38
C 119.45 478.60 122.51 484.90 129.47 488.85
L 135.15 492.06
L 143.64 487.66
L 152.12 483.26
L 146.49 476.32
M 233.49 457.76
C 235.01 456.24 236.22 451.85 237.25 444.09
C 238.09 437.80 240.45 425.29 242.49 416.29
C 246.09 400.42 247.80 388.55 249.34 368.55
L 250.09 358.98
L 244.10 360.91
C 240.30 362.15 232.53 362.96 222.78 363.14
C 210.17 363.38 207.00 363.82 205.01 365.61
C 200.80 369.43 198.40 378.00 198.28 389.71
C 198.08 407.19 200.09 444.07 201.44 447.66
C 202.85 451.40 207.90 453.91 219.94 456.85
C 224.36 457.94 228.25 459.09 228.58 459.41
C 229.69 460.53 231.25 460.00 233.49 457.76
M 253.12 450.59
C 255.88 450.15 267.69 447.90 279.38 445.60
C 306.22 440.30 324.04 437.84 343.38 436.74
L 358.61 435.89
L 358.04 432.62
C 350.81 391.60 348.46 371.66 347.85 346.23
C 347.27 321.96 348.30 302.65 350.81 290.94
L 351.54 287.50
L 332.65 287.50
C 308.06 287.50 308.75 288.06 308.75 268.01
L 308.75 253.52
L 303.44 254.48
C 289.48 256.95 270.21 254.76 251.38 248.56
L 243.39 245.93
L 241.11 248.90
C 236.10 255.49 230.00 269.11 230.00 273.74
C 230.00 281.38 236.26 289.24 251.25 300.43
C 273.48 317.00 281.19 323.74 283.78 328.79
C 288.64 338.31 286.20 342.19 270.16 350.48
C 262.38 354.50 258.82 357.06 258.27 359.04
C 257.84 360.60 256.89 369.19 256.14 378.12
C 255.39 387.06 252.64 404.50 250.00 416.88
C 247.38 429.25 244.84 442.39 244.35 446.06
C 243.55 452.20 243.68 452.70 245.80 452.06
C 247.07 451.69 250.38 451.02 253.12 450.59
M 26.41 407.81
C 36.54 396.67 47.18 393.30 53.19 399.31
C 56.73 402.86 57.15 407.92 54.45 414.39
C 53.46 416.76 53.11 418.99 53.67 419.32
C 55.81 420.65 60.94 414.86 66.04 405.39
C 70.96 396.25 71.99 395.16 80.97 389.66
C 86.30 386.41 91.80 381.94 93.25 379.69
C 95.71 375.88 109.05 360.70 123.71 345.00
C 132.34 335.76 133.19 334.14 129.88 333.09
C 128.01 332.50 126.06 333.27 123.07 335.81
C 99.51 355.86 80.36 369.58 63.12 378.74
C 57.62 381.66 52.29 384.76 51.25 385.64
C 50.21 386.50 45.15 389.15 39.98 391.51
C 31.97 395.17 29.10 397.44 20.60 406.76
C 9.86 418.54 6.89 423.00 8.26 425.23
C 9.11 426.59 10.89 424.89 26.41 407.81
M 576.05 409.61
C 575.12 407.88 569.89 401.54 564.40 395.51
C 556.17 386.50 552.88 383.85 545.65 380.49
C 534.84 375.45 525.09 367.70 501.46 345.36
C 478.98 324.11 474.58 320.46 455.62 307.41
C 435.85 293.79 431.06 289.70 423.55 280.00
C 415.83 270.04 408.60 255.07 400.01 231.25
C 396.41 221.29 393.18 212.85 392.82 212.50
C 392.46 212.15 392.55 227.62 393.01 246.88
L 393.88 281.88
L 397.88 288.62
C 403.01 297.27 422.89 317.54 435.14 326.59
C 440.36 330.46 454.43 339.81 466.39 347.39
C 502.64 370.34 509.43 376.57 520.65 397.30
C 526.73 408.50 534.72 412.69 529.95 402.16
C 526.70 395.00 526.89 392.92 531.15 388.65
C 535.52 384.29 540.45 383.90 547.31 387.41
C 552.76 390.19 556.31 393.49 567.35 406.09
C 572.45 411.91 575.75 414.75 576.53 413.98
C 577.29 413.21 577.12 411.64 576.05 409.61
M 241.49 333.14
C 250.91 329.81 251.55 328.03 245.28 322.48
C 241.14 318.80 230.28 312.29 218.75 306.56
C 218.40 306.40 216.55 308.75 214.62 311.79
C 212.70 314.84 207.53 320.69 203.12 324.81
L 195.12 332.30
L 204.12 333.77
C 209.07 334.60 213.69 335.48 214.38 335.74
C 217.27 336.85 236.09 335.04 241.49 333.14
M 188.10 328.20
C 197.97 321.49 212.46 304.23 210.66 301.31
C 210.29 300.70 205.90 300.49 200.93 300.84
C 194.24 301.31 191.26 301.02 189.54 299.71
C 186.61 297.50 187.66 293.38 191.59 291.59
C 193.71 290.62 192.30 290.41 185.62 290.71
C 178.32 291.05 176.57 291.56 175.09 293.80
C 173.41 296.30 173.62 296.76 178.15 300.57
L 183.01 304.65
L 181.26 309.96
C 180.30 312.89 177.34 318.31 174.69 322.02
C 172.03 325.72 170.25 329.39 170.73 330.15
C 171.85 331.99 184.65 330.54 188.10 328.20
M 222.84 272.05
C 223.95 261.26 237.10 237.74 241.04 239.49
C 260.43 248.08 287.09 252.35 303.35 249.49
L 308.56 248.56
L 308.35 177.09
C 308.23 137.79 308.56 103.54 309.11 100.99
C 309.68 98.34 313.56 91.69 318.18 85.51
C 326.93 73.76 328.12 69.38 323.76 65.01
C 321.39 62.64 319.91 62.56 287.20 63.06
L 253.12 63.60
L 250.40 68.99
C 245.93 77.84 238.41 100.17 239.56 101.24
C 240.15 101.78 243.75 103.11 247.57 104.20
C 253.39 105.86 254.81 106.85 256.32 110.28
C 257.31 112.52 258.98 114.29 260.00 114.18
C 261.02 114.08 263.27 113.79 265.00 113.55
C 267.43 113.22 268.12 113.67 268.12 115.59
C 268.12 117.38 266.56 118.62 262.50 120.12
C 251.90 124.04 255.81 129.12 270.50 130.54
C 275.24 130.99 280.09 131.88 281.29 132.51
C 287.20 135.69 289.61 154.65 285.04 162.14
C 283.10 165.32 281.10 166.56 275.36 168.15
C 262.94 171.56 258.32 173.59 251.88 178.47
C 243.88 184.53 231.53 199.95 221.49 216.42
C 201.31 249.55 186.22 275.40 186.77 275.94
C 187.10 276.28 189.18 275.91 191.38 275.15
C 197.22 273.10 207.24 273.54 214.38 276.14
C 217.81 277.39 220.96 278.49 221.39 278.59
C 221.81 278.68 222.46 275.74 222.84 272.05"/>
<path fill="#000000" stroke="none" d="
M 146.50 296.00
C 143.00 292.50 145.64 286.25 150.62 286.25
C 152.06 286.25 153.93 286.93 154.75 287.75
C 155.57 288.58 156.25 290.43 156.25 291.88
C 156.25 293.32 155.57 295.17 154.75 296.00
C 153.93 296.82 152.07 297.50 150.62 297.50
C 149.18 297.50 147.32 296.82 146.50 296.00"/>
<path fill="#000000" stroke="none" d="
M 253.75 88.75
C 247.85 82.85 252.49 75.00 261.88 75.00
C 268.38 75.00 272.50 78.15 272.50 83.12
C 272.50 88.10 268.38 91.25 261.88 91.25
C 257.91 91.25 255.51 90.51 253.75 88.75
M 267.47 86.27
C 270.20 83.55 269.70 80.60 266.19 78.71
C 263.06 77.05 261.69 77.19 263.50 79.00
C 264.32 79.83 265.00 81.68 265.00 83.12
C 265.00 84.57 264.32 86.42 263.50 87.25
C 262.34 88.41 262.34 88.75 263.50 88.75
C 264.32 88.75 266.11 87.64 267.47 86.27"/>
<path fill="#ae3c2a" stroke="none" d="
M 388.12 590.66
C 383.99 589.76 371.31 585.09 359.95 580.28
C 322.25 564.31 311.31 562.10 286.88 565.49
C 274.05 567.27 273.01 567.25 271.42 565.26
C 268.62 561.76 263.99 550.97 263.05 545.80
C 262.18 541.01 262.19 540.99 265.77 541.71
C 267.75 542.11 280.62 543.89 294.38 545.66
C 308.12 547.44 320.64 549.20 322.20 549.58
C 323.75 549.96 328.68 549.29 333.15 548.07
C 345.55 544.71 349.06 546.21 359.14 559.11
C 373.22 577.16 379.64 581.69 397.57 586.26
C 410.09 589.46 411.59 590.24 407.49 591.39
C 402.74 592.70 396.40 592.48 388.12 590.66"/>
<path fill="#ae3c2a" stroke="none" d="
M 94.35 587.75
C 79.97 582.78 73.75 573.64 73.75 557.48
C 73.75 552.09 74.60 545.44 75.72 542.16
C 78.06 535.28 85.49 526.48 91.81 523.07
L 96.38 520.62
L 100.99 526.25
C 121.09 550.77 129.95 555.68 145.09 550.66
C 150.51 548.88 191.14 540.92 202.78 539.39
C 209.69 538.47 209.21 537.51 211.24 556.88
C 211.95 563.75 212.82 571.14 213.17 573.29
L 213.81 577.20
L 205.34 578.06
C 200.69 578.54 179.49 581.41 158.22 584.46
C 116.16 590.49 104.08 591.11 94.35 587.75"/>
<path fill="#ae3c2a" stroke="none" d="
M 231.00 582.34
C 224.69 578.52 222.31 576.30 221.38 573.33
C 220.05 569.16 216.68 542.08 215.11 523.12
C 213.56 504.38 211.30 502.02 184.21 490.85
C 166.14 483.39 159.14 479.12 151.97 471.20
C 141.75 459.88 139.82 449.98 143.64 428.27
C 146.79 410.39 146.88 405.10 144.21 393.39
C 142.64 386.49 141.22 383.47 138.09 380.34
C 135.84 378.09 132.84 376.25 131.41 376.25
C 127.44 376.25 120.69 382.96 109.18 398.36
C 96.90 414.79 94.45 419.80 95.62 426.14
C 97.29 435.02 110.26 474.38 114.46 483.22
C 118.51 491.78 119.22 492.54 127.19 496.89
C 131.82 499.43 136.60 502.36 137.79 503.41
C 141.09 506.35 139.16 507.61 134.99 505.24
C 131.62 503.33 130.96 503.30 127.83 505.04
C 122.54 507.98 122.89 511.34 129.28 519.19
C 132.61 523.29 134.40 526.48 133.64 526.94
C 130.40 528.95 116.65 511.29 110.19 496.81
C 107.44 490.66 102.55 479.15 99.32 471.25
C 96.10 463.35 91.56 452.38 89.26 446.88
C 80.66 426.36 80.85 418.96 90.51 399.14
C 96.69 386.46 103.01 378.24 123.76 355.93
C 143.16 335.09 143.86 332.91 137.49 313.71
C 135.25 306.98 134.03 301.20 134.47 299.44
C 134.88 297.81 138.25 292.79 141.96 288.29
L 148.72 280.10
L 157.17 283.26
C 167.81 287.24 169.51 288.75 167.51 292.49
C 166.69 294.01 166.34 296.44 166.71 297.88
C 167.09 299.31 166.81 301.20 166.09 302.06
C 164.15 304.40 165.99 306.36 169.74 305.98
C 174.84 305.44 174.45 308.51 168.19 318.18
C 161.92 327.84 161.18 332.43 165.16 336.41
C 167.55 338.80 168.78 339.00 176.48 338.36
C 182.66 337.84 188.26 338.33 196.18 340.05
C 213.02 343.73 226.55 344.39 236.61 342.01
C 249.84 338.90 258.75 333.44 258.75 328.46
C 258.75 324.70 246.90 313.19 238.40 308.70
C 234.12 306.44 226.50 302.09 221.46 299.05
C 211.95 293.31 208.14 292.75 198.75 295.68
C 195.71 296.61 195.69 296.57 197.81 294.16
C 200.86 290.70 200.54 287.91 196.81 285.48
C 194.15 283.72 192.86 283.62 188.86 284.83
C 183.15 286.52 182.50 286.56 182.50 285.19
C 182.50 284.61 186.76 282.90 191.98 281.39
C 200.89 278.80 201.84 278.74 207.91 280.51
C 216.50 283.01 227.38 289.70 236.29 297.96
C 240.30 301.66 248.25 307.99 253.98 312.01
C 265.10 319.84 278.75 332.33 278.75 334.69
C 278.75 339.14 255.09 350.65 238.31 354.38
C 230.88 356.02 225.90 356.35 217.67 355.70
C 207.66 354.93 206.50 355.07 202.55 357.74
C 192.73 364.36 188.95 380.48 191.14 406.55
C 191.89 415.53 192.50 428.66 192.50 435.75
C 192.50 442.84 193.09 449.93 193.81 451.50
C 196.25 456.84 203.75 460.50 221.60 465.06
C 233.05 468.00 248.38 482.24 252.46 493.75
C 253.35 496.27 254.41 509.19 254.96 524.38
C 256.11 555.81 257.50 560.77 268.56 572.83
C 270.86 575.33 271.36 576.64 270.36 577.64
C 269.38 578.62 266.59 577.58 260.23 573.80
C 255.40 570.92 251.14 567.76 250.75 566.76
C 249.36 563.15 242.61 531.51 239.55 514.31
C 235.71 492.74 233.69 487.50 226.86 481.54
C 221.39 476.76 219.51 475.71 198.34 465.56
C 186.76 460.01 185.93 459.79 183.96 461.80
C 182.01 463.80 182.15 464.16 186.12 467.52
C 188.46 469.50 194.94 472.94 200.50 475.16
C 214.14 480.59 224.09 487.43 226.84 493.22
C 228.05 495.77 229.65 501.46 230.41 505.88
C 231.57 512.67 231.41 515.56 229.39 524.76
C 223.66 550.83 226.68 567.51 239.66 581.46
C 242.40 584.40 242.71 587.60 240.24 587.45
C 239.76 587.42 235.60 585.12 231.00 582.34
M 154.75 296.00
C 155.57 295.17 156.25 293.32 156.25 291.88
C 156.25 290.43 155.57 288.58 154.75 287.75
C 151.25 284.25 145.00 286.89 145.00 291.88
C 145.00 293.32 145.68 295.17 146.50 296.00
C 147.32 296.82 149.18 297.50 150.62 297.50
C 152.07 297.50 153.93 296.82 154.75 296.00"/>
<path fill="#ae3c2a" stroke="none" d="
M 237.81 565.31
C 235.38 559.98 234.39 555.46 233.98 547.81
C 233.32 535.39 235.05 534.30 237.91 545.31
C 243.80 567.94 244.64 572.50 242.85 572.50
C 241.89 572.50 239.62 569.26 237.81 565.31"/>
<path fill="#ae3c2a" stroke="none" d="
M 8.26 425.23
C 6.89 423.00 9.86 418.54 20.60 406.76
C 29.10 397.44 31.97 395.17 39.98 391.51
C 45.15 389.15 50.21 386.50 51.25 385.64
C 52.29 384.76 57.62 381.66 63.12 378.74
C 80.36 369.58 99.51 355.86 123.07 335.81
C 126.06 333.27 128.01 332.50 129.88 333.09
C 133.19 334.14 132.34 335.76 123.71 345.00
C 109.05 360.70 95.71 375.88 93.25 379.69
C 91.80 381.94 86.30 386.41 80.97 389.66
C 71.99 395.16 70.96 396.25 66.04 405.39
C 60.94 414.86 55.81 420.65 53.67 419.32
C 53.11 418.99 53.46 416.76 54.45 414.39
C 57.15 407.92 56.73 402.86 53.19 399.31
C 47.18 393.30 36.54 396.67 26.41 407.81
C 10.89 424.89 9.11 426.59 8.26 425.23"/>
<path fill="#ae3c2a" stroke="none" d="
M 567.35 406.09
C 556.31 393.49 552.76 390.19 547.31 387.41
C 540.45 383.90 535.52 384.29 531.15 388.65
C 526.89 392.92 526.70 395.00 529.95 402.16
C 534.72 412.69 526.73 408.50 520.65 397.30
C 509.43 376.57 502.64 370.34 466.39 347.39
C 454.43 339.81 440.36 330.46 435.14 326.59
C 422.89 317.54 403.01 297.27 397.88 288.62
L 393.88 281.88
L 393.01 246.88
C 392.55 227.62 392.46 212.15 392.82 212.50
C 393.18 212.85 396.41 221.29 400.01 231.25
C 408.60 255.07 415.83 270.04 423.55 280.00
C 431.06 289.70 435.85 293.79 455.62 307.41
C 474.58 320.46 478.98 324.11 501.46 345.36
C 525.09 367.70 534.84 375.45 545.65 380.49
C 552.88 383.85 556.17 386.50 564.40 395.51
C 575.42 407.60 578.39 412.11 576.53 413.98
C 575.75 414.75 572.45 411.91 567.35 406.09"/>
<path fill="#ae3c2a" stroke="none" d="
M 170.73 330.15
C 170.25 329.39 172.03 325.72 174.69 322.02
C 177.34 318.31 180.30 312.89 181.26 309.96
L 183.01 304.65
L 178.15 300.57
C 173.62 296.76 173.41 296.30 175.09 293.80
C 176.57 291.56 178.32 291.05 185.62 290.71
C 192.30 290.41 193.71 290.62 191.59 291.59
C 187.66 293.38 186.61 297.50 189.54 299.71
C 191.26 301.02 194.24 301.31 200.93 300.84
C 205.90 300.49 210.29 300.70 210.66 301.31
C 212.46 304.23 197.97 321.49 188.10 328.20
C 184.65 330.54 171.85 331.99 170.73 330.15"/>
<path fill="#ae3c2a" stroke="none" d="
M 214.38 276.14
C 207.24 273.54 197.22 273.10 191.38 275.15
C 189.18 275.91 187.10 276.28 186.77 275.94
C 186.22 275.40 201.31 249.55 221.49 216.42
C 231.53 199.95 243.88 184.53 251.88 178.47
C 258.32 173.59 262.94 171.56 275.36 168.15
C 281.10 166.56 283.10 165.32 285.04 162.14
C 289.61 154.65 287.20 135.69 281.29 132.51
C 280.09 131.88 275.24 130.99 270.50 130.54
C 255.81 129.12 251.90 124.04 262.50 120.12
C 266.56 118.62 268.12 117.38 268.12 115.59
C 268.12 113.67 267.43 113.22 265.00 113.55
C 263.27 113.79 261.02 114.08 260.00 114.18
C 258.98 114.29 257.31 112.52 256.32 110.28
C 254.81 106.85 253.39 105.86 247.57 104.20
C 243.75 103.11 240.14 101.78 239.55 101.23
C 237.54 99.36 251.29 63.75 254.01 63.75
C 254.90 63.76 270.39 63.48 288.44 63.12
C 320.04 62.53 321.34 62.59 323.75 65.00
C 328.12 69.38 326.94 73.75 318.18 85.51
C 313.56 91.69 309.68 98.34 309.11 100.99
C 308.56 103.54 308.23 137.79 308.35 177.09
L 308.56 248.56
L 303.35 249.49
C 287.09 252.35 260.43 248.08 241.04 239.49
C 237.10 237.74 223.95 261.26 222.84 272.05
C 222.46 275.74 221.81 278.68 221.39 278.59
C 220.96 278.49 217.81 277.39 214.38 276.14
M 270.00 88.75
C 275.90 82.85 271.26 75.00 261.88 75.00
C 255.38 75.00 251.25 78.15 251.25 83.12
C 251.25 88.10 255.38 91.25 261.88 91.25
C 265.84 91.25 268.24 90.51 270.00 88.75"/>
<path fill="#fefefe" stroke="none" d="
M 263.75 86.88
C 264.69 85.75 265.01 83.47 264.55 81.21
C 263.88 77.83 264.04 77.56 266.12 78.69
C 269.70 80.60 270.21 83.54 267.47 86.27
C 264.51 89.24 261.38 89.74 263.75 86.88"/>
<path fill="#ffbf53" stroke="none" d="
M 127.69 542.44
C 123.31 539.76 113.59 530.14 107.34 522.27
L 103.69 517.69
L 106.45 515.75
C 109.80 513.40 110.57 513.95 118.32 524.01
C 126.90 535.15 134.70 537.91 140.69 531.94
C 144.93 527.69 144.55 525.00 138.75 518.42
L 133.75 512.74
L 138.60 513.39
C 142.44 513.90 144.01 513.49 146.10 511.40
C 149.61 507.89 149.44 504.76 145.50 500.07
L 142.24 496.21
L 150.81 492.33
C 157.84 489.14 159.94 488.68 162.50 489.74
C 192.15 502.01 198.64 505.11 202.88 509.05
C 207.59 513.42 207.61 513.54 207.25 522.05
L 206.88 530.62
L 202.50 531.56
C 200.09 532.08 187.44 534.45 174.38 536.84
C 161.31 539.23 147.81 542.04 144.38 543.07
C 136.02 545.61 132.68 545.48 127.69 542.44"/>
<path fill="#ffbf53" stroke="none" d="
M 293.75 538.04
C 276.91 535.74 263.06 533.83 262.99 533.80
C 262.91 533.77 262.54 525.74 262.16 515.94
C 261.74 505.05 260.70 495.64 259.49 491.73
C 257.46 485.21 247.97 472.08 241.76 467.19
L 238.41 464.55
L 241.11 462.35
C 242.61 461.15 246.76 459.58 250.35 458.86
C 301.42 448.65 321.51 445.48 342.94 444.24
C 354.98 443.52 357.95 443.70 358.85 445.12
C 360.41 447.57 360.26 472.16 358.61 485.62
C 356.64 501.73 353.51 512.78 347.30 525.57
L 341.88 536.77
L 334.43 539.64
C 330.32 541.21 326.39 542.44 325.68 542.36
C 324.96 542.29 310.59 540.34 293.75 538.04"/>
<path fill="#ffbf53" stroke="none" d="
M 244.35 446.06
C 244.84 442.39 247.38 429.25 250.00 416.88
C 252.64 404.50 255.39 387.06 256.14 378.12
C 256.89 369.19 257.84 360.60 258.27 359.04
C 258.82 357.06 262.38 354.50 270.16 350.48
C 286.20 342.19 288.64 338.31 283.78 328.79
C 281.19 323.74 273.48 317.00 251.25 300.43
C 228.29 283.29 225.62 275.59 236.25 257.02
C 239.20 251.85 242.38 247.34 243.29 246.99
C 244.21 246.64 247.36 247.20 250.29 248.25
C 267.21 254.29 289.66 256.91 303.44 254.48
L 308.75 253.52
L 308.75 268.01
C 308.75 288.06 308.06 287.50 332.65 287.50
L 351.54 287.50
L 350.81 290.94
C 348.30 302.65 347.27 321.96 347.85 346.23
C 348.46 371.66 350.81 391.60 358.04 432.62
L 358.61 435.89
L 343.38 436.74
C 324.04 437.84 306.22 440.30 279.38 445.60
C 267.69 447.90 255.88 450.15 253.12 450.59
C 250.38 451.02 247.07 451.69 245.80 452.06
C 243.68 452.70 243.55 452.20 244.35 446.06"/>
</g>
</svg>
