<?xml version="1.0" encoding="UTF-8" standalone="no"?>
<!DOCTYPE svg PUBLIC "-//W3C//DTD SVG 1.1//EN"
"http://www.w3.org/Graphics/SVG/1.1/DTD/svg11.dtd">
<svg width="403px" height="600px"
xmlns="http://www.w3.org/2000/svg" version="1.1">
<g transform="translate(0000, 0000) scale(1.0000, 1.0000)">
<path fill="#000000" stroke="none" d="
M 2.78 597.61
C 0.01 594.85 -0.92 588.40 0.80 583.92
C 1.95 580.94 7.04 578.63 19.47 575.46
C 37.52 570.85 49.60 565.60 56.63 559.29
C 66.52 550.41 70.00 539.14 72.31 508.39
C 74.17 483.82 83.35 407.19 86.66 388.66
C 88.09 380.63 88.85 372.80 88.36 371.24
C 87.87 369.66 85.51 366.10 83.12 363.32
C 78.02 357.34 76.22 351.74 76.22 341.72
C 76.21 332.44 75.43 330.43 72.20 331.28
C 70.77 331.65 68.57 330.94 67.15 329.66
C 64.69 327.45 64.66 327.55 65.44 335.82
C 66.19 343.87 66.08 344.32 62.83 346.45
C 58.40 349.35 53.55 348.12 51.14 343.46
C 50.12 341.48 48.57 334.08 47.71 327.02
C 45.78 311.14 46.45 308.41 56.76 290.32
C 62.65 280.00 64.66 275.10 65.28 269.68
C 65.72 265.78 66.99 259.68 68.10 256.13
C 73.16 239.92 88.40 215.26 100.85 203.10
C 105.14 198.92 109.22 194.46 109.91 193.23
C 111.75 189.94 109.55 186.68 101.22 180.40
C 92.04 173.48 85.86 165.38 83.12 156.70
C 81.08 150.25 81.09 149.51 83.25 143.86
C 86.13 136.32 92.75 129.63 101.27 125.68
C 108.89 122.13 113.80 121.83 121.27 124.46
C 128.11 126.88 142.90 136.52 147.83 141.78
C 151.53 145.72 151.58 145.97 149.59 149.38
C 147.62 152.72 147.69 153.14 150.62 157.38
C 154.60 163.15 154.51 164.95 149.98 171.23
C 147.91 174.05 145.26 178.26 144.07 180.54
C 142.10 184.36 142.08 184.98 143.96 187.82
C 148.53 194.79 155.65 192.67 181.23 176.77
C 198.72 165.90 225.67 152.00 239.73 146.57
C 246.20 144.09 256.95 140.98 263.63 139.68
C 275.09 137.43 275.80 137.11 276.17 133.88
C 276.65 129.88 272.55 125.16 268.63 125.16
C 267.18 125.16 264.03 124.34 261.61 123.33
C 256.63 121.25 254.48 115.92 254.47 105.59
C 254.46 97.17 253.55 95.56 247.38 92.92
C 243.60 91.29 241.45 89.35 240.25 86.45
C 238.03 81.10 239.38 77.19 249.51 59.79
C 253.71 52.58 258.54 43.14 260.25 38.79
C 264.59 27.72 267.72 23.05 275.84 15.65
C 284.13 8.08 293.48 3.37 304.10 1.41
C 327.50 -2.89 346.17 2.61 361.06 18.22
C 369.69 27.25 375.31 38.66 377.89 52.44
C 378.94 58.01 380.37 65.38 381.07 68.81
C 381.80 72.41 382.33 102.95 382.33 141.39
C 382.33 206.03 382.27 207.81 379.75 210.32
C 377.48 212.59 375.45 212.90 362.57 212.90
C 352.94 212.90 347.45 213.43 346.43 214.45
C 345.29 215.59 344.88 226.44 344.88 255.25
L 344.88 294.50
L 347.78 292.37
C 360.96 282.71 375.38 283.11 382.89 293.33
C 385.38 296.72 385.58 298.80 385.68 324.30
C 385.82 354.97 385.73 354.63 396.19 367.96
C 406.15 380.67 405.05 389.70 392.89 395.24
C 387.72 397.59 383.83 398.05 365.86 398.48
L 344.88 398.98
L 344.88 496.90
C 344.88 593.12 344.82 594.89 342.29 597.42
C 339.76 599.95 337.99 600.00 243.48 600.00
C 148.97 600.00 147.20 599.95 144.67 597.42
C 142.14 594.89 142.08 593.08 142.03 500.32
C 141.98 414.05 141.80 406.13 139.97 409.51
C 136.76 415.42 133.43 426.03 131.12 437.63
C 129.94 443.55 124.59 466.68 119.26 489.03
C 104.39 551.24 103.59 555.65 104.32 572.35
C 104.82 583.92 104.53 587.39 102.82 590.71
C 99.15 597.79 95.23 598.88 74.54 598.46
C 64.45 598.27 44.80 598.62 30.87 599.25
C 5.93 600.37 5.52 600.35 2.78 597.61
M 73.41 591.63
L 91.92 591.61
L 95.22 587.78
C 98.45 584.05 98.50 583.65 97.69 570.27
C 96.98 558.62 97.33 554.27 100.01 541.19
C 102.86 527.28 111.52 490.06 113.06 485.08
C 113.60 483.34 112.17 483.15 102.35 483.61
C 96.11 483.91 88.91 483.57 86.34 482.86
L 81.66 481.57
L 80.94 486.27
C 80.54 488.85 79.55 499.68 78.77 510.32
C 74.99 560.89 68.20 569.73 23.86 581.77
C 9.16 585.77 5.09 588.41 8.09 592.03
C 9.44 593.65 12.93 593.77 32.29 592.77
C 44.72 592.14 63.23 591.63 73.41 591.63
M 162.75 494.84
C 162.75 396.46 162.74 396.13 160.13 396.13
C 158.68 396.13 155.49 396.97 153.02 398.00
L 148.54 399.87
L 148.54 495.16
C 148.54 567.56 148.92 590.83 150.09 592.00
C 150.94 592.85 154.15 593.55 157.20 593.55
L 162.75 593.55
L 162.75 494.84
M 226.04 528.39
C 226.04 464.94 226.11 463.16 228.62 460.65
C 231.13 458.14 232.93 458.06 284.81 458.06
L 338.42 458.06
L 338.42 421.28
L 338.42 384.48
L 333.44 387.77
C 326.07 392.65 317.76 393.47 267.03 394.35
L 220.82 395.14
L 221.61 401.77
C 222.45 408.79 222.15 408.41 235.08 418.49
C 242.50 424.27 244.10 427.24 241.49 430.39
C 239.27 433.06 228.35 432.75 218.36 429.70
C 213.78 428.32 209.93 427.30 209.82 427.46
C 209.70 427.61 208.93 429.02 208.11 430.59
C 205.81 435.02 199.24 435.57 188.30 432.26
C 183.13 430.70 176.71 428.36 174.05 427.08
L 169.21 424.75
L 169.21 509.15
L 169.21 593.55
L 197.62 593.55
L 226.04 593.55
L 226.04 528.39
M 241.54 536.13
C 241.54 480.43 241.62 478.63 244.12 476.13
C 246.60 473.65 248.43 473.55 292.56 473.55
L 338.42 473.55
L 338.42 469.03
L 338.42 464.52
L 287.01 464.52
C 248.75 464.52 235.20 464.92 234.05 466.06
C 232.89 467.23 232.50 483.33 232.50 530.58
L 232.50 593.55
L 237.02 593.55
L 241.54 593.55
L 241.54 536.13
M 336.87 592.00
C 338.03 590.84 338.42 576.46 338.42 535.23
L 338.42 480.00
L 294.76 480.00
C 262.52 480.00 250.70 480.40 249.55 481.55
C 248.39 482.71 248.00 497.08 248.00 538.32
L 248.00 593.55
L 291.66 593.55
C 323.90 593.55 335.72 593.15 336.87 592.00
M 114.88 476.25
C 115.46 475.33 118.68 462.00 122.05 446.63
C 129.58 412.30 131.63 406.61 139.33 398.67
C 145.61 392.22 151.53 389.70 160.49 389.69
L 165.33 389.68
L 165.26 382.90
C 165.22 379.17 164.49 370.80 163.64 364.30
C 161.63 348.76 158.80 346.19 140.60 343.30
C 134.46 342.34 132.49 342.67 122.95 346.26
C 117.00 348.50 109.18 352.68 105.40 355.65
C 97.92 361.52 98.54 359.85 93.65 387.10
C 91.35 399.88 82.67 468.32 82.67 473.63
C 82.67 478.08 84.76 478.57 101.81 478.21
C 110.09 478.03 114.17 477.41 114.88 476.25
M 201.19 426.10
C 201.46 425.29 199.74 423.81 197.39 422.80
C 191.90 420.46 188.34 417.28 184.89 411.61
C 181.49 406.04 181.17 393.72 184.10 380.86
C 185.72 373.79 185.84 369.21 184.85 355.97
C 183.42 337.06 181.48 331.38 175.45 328.30
C 173.08 327.08 166.70 323.25 161.26 319.78
L 151.40 313.47
L 133.91 314.35
C 114.18 315.33 109.73 314.34 105.90 308.06
C 104.43 305.64 103.29 304.83 102.70 305.78
C 100.93 308.65 103.40 315.69 107.54 319.63
C 114.31 326.08 134.28 335.30 145.78 337.32
C 155.41 338.99 165.53 342.99 167.28 345.82
C 168.61 347.99 171.77 374.09 171.78 383.07
C 171.79 387.61 171.11 394.99 170.28 399.48
C 168.20 410.77 170.06 416.95 176.45 419.99
C 183.34 423.25 198.09 428.34 199.49 427.94
C 200.14 427.74 200.92 426.92 201.19 426.10
M 235.08 426.10
C 235.08 425.56 231.04 422.62 226.11 419.57
C 221.17 416.53 216.83 413.06 216.48 411.86
C 216.12 410.66 215.48 405.32 215.04 400.00
C 214.08 388.49 202.28 333.06 199.30 326.12
L 197.22 321.26
L 194.93 325.03
C 193.67 327.11 191.63 329.37 190.40 330.05
C 188.92 330.89 188.48 332.08 189.10 333.66
C 189.59 334.97 190.53 343.34 191.17 352.27
C 192.11 365.46 193.05 370.32 196.15 378.13
C 198.26 383.42 201.53 394.12 203.42 401.90
C 205.32 409.68 207.42 417.06 208.09 418.30
C 210.06 421.99 235.08 429.23 235.08 426.10
M 196.97 404.62
C 194.99 395.75 194.49 394.84 191.68 394.84
C 189.09 394.84 188.58 395.48 188.58 398.80
C 188.58 400.97 189.23 404.01 190.03 405.57
C 191.81 409.02 197.88 415.65 198.61 414.93
C 198.90 414.65 198.15 410.00 196.97 404.62
M 390.08 387.68
C 392.58 386.22 394.77 383.90 394.97 382.52
C 395.16 381.11 392.74 376.58 389.49 372.26
C 378.95 358.28 379.05 358.71 379.53 330.21
C 379.88 309.91 379.57 304.01 378.02 300.30
C 376.12 295.75 370.46 291.61 366.19 291.61
C 362.86 291.61 356.62 295.32 350.55 300.92
L 344.88 306.13
L 344.88 348.68
L 344.88 391.24
L 365.22 390.77
C 382.89 390.39 386.16 389.97 390.08 387.68
M 192.43 387.42
C 192.43 386.89 191.85 385.57 191.17 384.52
C 190.16 382.95 189.91 383.14 189.90 385.48
C 189.89 387.08 190.46 388.39 191.17 388.39
C 191.88 388.39 192.45 387.95 192.43 387.42
M 321.29 385.63
C 329.35 384.09 334.62 379.47 336.88 371.94
C 337.99 368.22 338.42 346.68 338.42 294.12
L 338.42 221.43
L 333.74 225.87
C 331.17 228.32 322.09 238.95 313.56 249.50
C 289.02 279.85 273.85 294.66 258.01 303.70
C 252.96 306.58 251.88 307.86 251.88 310.86
C 251.88 316.13 248.41 323.63 244.38 327.14
C 240.12 330.83 232.89 332.76 219.45 333.79
C 213.85 334.22 209.25 334.67 209.25 334.79
C 209.25 334.92 211.87 346.71 215.06 361.01
C 218.25 375.30 220.88 387.35 220.88 387.78
C 220.88 389.05 313.86 387.05 321.29 385.63
M 88.43 355.55
C 84.63 346.48 88.50 338.65 94.23 343.81
C 97.90 347.12 99.26 345.20 95.83 341.55
C 94.27 339.90 91.19 332.37 88.83 324.45
C 84.76 310.84 84.62 309.59 84.90 290.32
L 85.19 270.32
L 91.70 257.42
C 100.18 240.61 102.49 237.61 105.54 239.50
C 107.38 240.62 107.93 242.95 108.23 250.84
C 108.44 256.30 108.07 263.78 107.42 267.47
C 106.76 271.17 106.50 277.46 106.86 281.45
L 107.51 288.68
L 111.26 286.81
C 115.18 284.86 127.97 285.05 134.33 287.14
C 137.46 288.17 137.42 288.04 133.36 283.41
C 128.79 278.19 128.02 273.59 131.19 270.41
C 134.68 266.94 139.03 268.05 145.96 274.19
C 149.56 277.38 153.06 280.00 153.75 280.00
C 154.44 280.00 155.08 276.37 155.18 271.94
C 155.75 245.37 156.95 233.16 159.13 231.79
C 163.98 228.76 179.98 244.79 184.09 256.77
C 185.19 259.96 186.44 266.79 186.88 271.94
L 187.67 281.29
L 193.30 281.29
L 198.92 281.29
L 198.92 271.85
C 198.92 258.23 196.36 251.26 187.24 240.00
C 182.93 234.68 178.33 228.30 177.01 225.81
C 173.60 219.38 155.63 203.59 146.48 198.97
C 133.93 192.65 132.45 185.38 140.79 171.12
C 143.63 166.27 145.96 162.04 145.96 161.74
C 145.96 161.43 144.67 159.45 143.09 157.32
C 140.70 154.09 140.49 153.03 141.80 150.94
C 142.66 149.55 143.38 148.17 143.38 147.87
C 143.38 147.56 140.46 145.17 136.89 142.55
L 130.39 137.81
L 124.56 142.58
C 121.35 145.21 117.94 148.61 116.99 150.13
C 116.02 151.69 114.91 158.80 114.44 166.41
C 113.69 178.72 113.87 180.41 116.42 185.23
C 120.38 192.68 119.08 196.09 108.05 206.93
C 84.01 230.54 68.12 265.73 72.20 286.34
C 72.99 290.31 74.13 298.49 74.74 304.53
C 75.47 311.90 76.96 317.88 79.26 322.72
C 81.85 328.22 82.67 331.92 82.67 338.35
C 82.67 346.53 85.07 356.03 88.04 359.60
C 90.42 362.46 90.58 360.72 88.43 355.55
M 94.90 350.14
C 91.99 348.01 90.77 348.92 92.96 351.56
C 93.85 352.65 95.18 353.15 95.92 352.70
C 96.75 352.18 96.35 351.20 94.90 350.14
M 115.93 341.15
C 119.66 339.83 122.71 338.39 122.71 337.96
C 122.71 337.52 120.29 336.08 117.35 334.75
C 106.54 329.88 100.69 325.28 98.13 319.66
C 94.91 312.61 94.95 306.89 98.26 297.10
C 99.73 292.75 100.75 287.57 100.52 285.60
L 100.10 282.01
L 95.78 285.88
C 89.42 291.59 89.07 297.87 94.14 316.00
C 96.36 323.92 98.17 331.15 98.17 332.06
C 98.17 334.54 106.30 344.65 107.83 344.06
C 108.55 343.78 112.19 342.48 115.93 341.15
M 59.68 335.07
C 57.67 329.55 57.72 320.12 59.75 316.63
C 66.26 305.51 67.28 302.79 66.91 297.65
C 66.70 294.68 65.94 292.32 65.23 292.41
C 64.52 292.49 61.38 297.50 58.27 303.54
L 52.60 314.50
L 54.25 325.32
C 56.36 339.08 57.70 342.88 59.73 340.85
C 60.86 339.72 60.85 338.32 59.68 335.07
M 233.24 324.74
C 236.88 323.48 239.13 321.56 241.19 317.95
C 242.78 315.17 244.09 312.46 244.10 311.94
C 244.11 311.41 234.23 310.97 222.14 310.97
L 200.16 310.97
L 202.91 316.45
C 204.43 319.47 206.91 323.30 208.42 324.98
C 210.96 327.77 211.88 327.96 219.67 327.25
C 224.34 326.83 230.45 325.69 233.24 324.74
M 188.87 324.19
C 192.39 320.14 193.83 316.25 193.00 312.93
C 192.28 310.08 191.49 309.68 186.61 309.68
C 181.67 309.68 180.73 310.18 178.34 314.05
C 175.20 319.12 175.64 321.12 180.52 324.08
C 185.17 326.89 186.49 326.90 188.87 324.19
M 69.27 319.83
C 68.08 317.08 67.33 316.35 67.27 317.83
C 67.15 320.46 69.63 325.70 70.56 324.77
C 70.90 324.44 70.32 322.22 69.27 319.83
M 172.32 312.90
C 174.62 309.39 173.81 308.98 168.51 310.99
C 165.64 312.08 165.32 312.63 166.64 314.22
C 168.85 316.86 169.88 316.63 172.32 312.90
M 146.78 307.20
C 153.98 306.62 160.67 305.63 161.64 305.01
C 162.61 304.39 181.12 303.87 202.79 303.87
L 242.19 303.87
L 252.39 298.06
C 266.13 290.25 285.42 271.68 305.13 247.28
C 313.81 236.53 323.45 225.02 326.56 221.68
C 329.66 218.35 331.82 215.01 331.35 214.26
C 330.89 213.51 327.35 212.90 323.49 212.90
C 315.48 212.90 311.29 210.01 311.29 204.46
C 311.29 201.51 311.03 201.34 308.46 202.71
C 303.34 205.46 292.98 215.97 285.10 226.45
C 280.82 232.13 276.66 237.35 275.85 238.06
C 275.03 238.77 267.63 248.65 259.41 260.00
C 239.33 287.69 241.21 286.71 206.67 287.88
C 192.10 288.37 176.07 289.21 171.03 289.72
C 158.82 290.97 153.61 289.14 144.25 280.30
C 138.67 275.03 136.37 273.57 135.29 274.66
C 134.20 275.74 135.61 277.72 140.77 282.34
C 146.02 287.02 147.50 289.11 146.82 290.88
C 145.91 293.26 141.10 293.26 124.65 290.89
C 118.85 290.05 110.17 293.01 108.93 296.26
C 107.74 299.32 110.61 304.26 115.26 307.17
C 118.73 309.37 120.75 309.70 126.58 309.06
C 130.50 308.62 139.58 307.79 146.78 307.20
M 177.32 282.58
L 181.21 282.58
L 180.43 274.52
C 179.30 262.67 176.18 255.05 169.41 247.51
L 163.40 240.81
L 162.58 249.77
C 162.14 254.68 161.70 264.45 161.61 271.47
L 161.46 284.22
L 167.45 283.41
C 170.75 282.95 175.19 282.58 177.32 282.58
M 229.27 279.87
C 232.68 278.94 236.45 276.34 240.37 272.21
L 246.30 265.95
L 247.81 249.57
C 249.50 231.21 249.82 232.49 238.22 211.61
C 234.66 205.21 233.71 202.25 234.23 199.07
L 234.90 194.93
L 226.42 198.12
C 221.74 199.87 213.78 203.55 208.75 206.27
C 203.70 209.01 196.24 212.54 192.19 214.13
C 181.26 218.43 181.09 219.03 188.23 228.35
C 191.62 232.76 196.02 238.53 198.00 241.16
C 202.80 247.56 205.34 257.70 205.36 270.65
L 205.38 281.29
L 214.74 281.28
C 219.89 281.28 226.43 280.65 229.27 279.87
M 101.32 262.30
C 102.49 257.66 103.18 253.61 102.87 253.30
C 101.89 252.32 91.71 273.68 91.76 276.61
C 91.86 282.10 99.05 271.38 101.32 262.30
M 272.21 230.65
C 290.20 206.70 296.80 199.83 305.65 195.92
C 310.74 193.68 311.29 192.99 311.29 188.97
C 311.29 186.52 311.15 184.52 310.97 184.52
C 310.79 184.52 306.54 185.38 301.51 186.43
C 288.83 189.07 274.27 186.40 262.87 179.37
L 258.72 176.80
L 250.87 184.21
C 239.54 194.89 239.31 197.51 248.19 213.79
L 255.10 226.45
L 255.07 239.68
C 255.05 246.95 255.13 252.90 255.26 252.90
C 255.38 252.90 263.01 242.89 272.21 230.65
M 199.91 202.13
C 212.51 196.19 225.67 190.31 229.14 189.05
C 235.57 186.70 240.06 183.28 253.61 170.40
C 261.06 163.30 272.54 148.59 272.54 146.14
C 272.54 144.12 260.39 146.80 246.71 151.85
C 232.78 156.98 206.11 170.50 188.33 181.47
C 181.71 185.54 172.66 190.84 168.19 193.25
L 160.06 197.65
L 168.19 205.21
C 172.66 209.38 176.47 212.81 176.66 212.85
C 176.85 212.88 187.32 208.05 199.91 202.13
M 306.12 179.99
L 310.65 178.45
L 311.29 130.62
C 311.91 84.62 312.04 82.66 314.64 79.14
C 325.23 64.84 326.03 63.32 324.78 59.68
C 324.01 57.47 321.60 55.15 318.38 53.55
C 313.73 51.21 311.05 51.01 290.62 51.30
C 278.20 51.50 267.04 51.96 265.83 52.34
C 263.33 53.14 253.64 66.26 249.41 74.59
C 245.78 81.72 246.73 84.72 253.19 86.45
C 258.91 88.00 259.82 89.06 260.89 95.45
C 261.69 100.22 261.52 100.17 270.55 99.15
C 273.39 98.83 274.51 99.30 274.85 100.99
C 275.20 102.70 273.48 104.12 268.12 106.57
C 264.16 108.39 260.92 110.43 260.92 111.12
C 260.92 113.92 267.17 118.35 272.30 119.16
C 275.29 119.64 278.96 121.25 280.45 122.74
C 282.77 125.06 283.08 126.63 282.64 134.01
C 282.02 144.32 277.55 154.80 269.25 165.38
C 266.08 169.39 263.50 173.06 263.50 173.51
C 263.50 174.93 277.31 180.52 283.79 181.72
C 290.68 182.99 299.27 182.34 306.12 179.99"/>
<path fill="#000000" stroke="none" d="
M 125.55 155.87
C 123.32 153.64 123.64 150.40 126.36 147.94
C 129.15 145.42 131.93 145.21 134.08 147.35
C 136.31 149.59 135.99 152.83 133.26 155.29
C 130.47 157.81 127.69 158.01 125.55 155.87"/>
<path fill="#000000" stroke="none" d="
M 267.67 71.96
C 264.44 70.41 262.83 66.08 264.06 62.22
C 265.62 57.30 276.49 55.10 283.50 58.28
C 289.44 60.99 289.41 69.34 283.43 72.06
C 279.40 73.90 271.59 73.85 267.67 71.96
M 280.81 69.50
C 286.32 66.99 286.21 63.74 280.50 60.74
C 276.92 58.85 275.53 59.60 278.33 61.91
C 280.85 64.00 280.81 65.68 278.16 68.61
C 275.68 71.34 276.31 71.55 280.81 69.50"/>
<path fill="#ae3c2a" stroke="none" d="
M 8.09 592.03
C 5.09 588.41 9.16 585.77 23.86 581.77
C 68.20 569.73 74.99 560.89 78.77 510.32
C 79.55 499.68 80.54 488.85 80.94 486.27
L 81.66 481.57
L 86.34 482.86
C 88.91 483.57 96.11 483.91 102.35 483.61
C 112.17 483.15 113.60 483.34 113.06 485.08
C 111.52 490.06 102.86 527.28 100.01 541.19
C 97.33 554.27 96.98 558.62 97.69 570.27
C 98.50 583.65 98.45 584.05 95.22 587.78
L 91.92 591.61
L 73.41 591.63
C 63.23 591.63 44.72 592.14 32.29 592.77
C 12.93 593.77 9.44 593.65 8.09 592.03"/>
<path fill="#ae3c2a" stroke="none" d="
M 189.69 425.24
C 174.23 419.74 171.96 418.28 170.29 412.72
C 169.13 408.86 169.13 405.73 170.28 399.48
C 171.11 394.99 171.79 387.61 171.78 383.07
C 171.77 374.09 168.61 347.99 167.28 345.82
C 165.53 342.99 155.41 338.99 145.78 337.32
C 134.28 335.30 114.31 326.08 107.54 319.63
C 103.40 315.69 100.93 308.65 102.70 305.78
C 103.29 304.83 104.43 305.64 105.90 308.06
C 109.73 314.34 114.18 315.33 133.91 314.35
L 151.40 313.47
L 161.26 319.78
C 166.70 323.25 173.08 327.08 175.45 328.30
C 181.48 331.38 183.42 337.06 184.85 355.97
C 185.84 369.21 185.72 373.79 184.10 380.86
C 181.17 393.72 181.49 406.04 184.89 411.61
C 188.34 417.28 191.90 420.46 197.39 422.80
C 201.33 424.48 202.39 427.08 199.49 427.94
C 198.81 428.13 194.41 426.92 189.69 425.24"/>
<path fill="#ae3c2a" stroke="none" d="
M 219.29 423.77
C 213.65 421.95 208.76 419.56 208.09 418.30
C 207.42 417.06 205.32 409.68 203.42 401.90
C 201.53 394.12 198.26 383.42 196.15 378.13
C 193.05 370.32 192.11 365.46 191.17 352.27
C 190.53 343.34 189.59 334.97 189.10 333.66
C 188.48 332.08 188.92 330.89 190.40 330.05
C 191.63 329.37 193.67 327.11 194.93 325.03
L 197.22 321.26
L 199.30 326.12
C 202.28 333.06 214.08 388.49 215.04 400.00
C 215.48 405.32 216.12 410.66 216.48 411.86
C 216.83 413.06 221.17 416.53 226.11 419.57
C 231.04 422.62 235.08 425.56 235.08 426.10
C 235.08 427.87 229.49 427.05 219.29 423.77"/>
<path fill="#ae3c2a" stroke="none" d="
M 88.04 359.60
C 85.07 356.03 82.67 346.53 82.67 338.35
C 82.67 331.92 81.85 328.22 79.26 322.72
C 76.96 317.88 75.47 311.90 74.74 304.53
C 74.13 298.49 72.99 290.31 72.20 286.34
C 68.12 265.73 84.01 230.54 108.05 206.93
C 119.08 196.09 120.38 192.68 116.42 185.23
C 113.87 180.41 113.69 178.72 114.44 166.41
C 114.91 158.80 116.02 151.69 116.99 150.13
C 117.94 148.61 121.35 145.21 124.56 142.58
L 130.39 137.81
L 136.89 142.55
C 140.46 145.17 143.38 147.56 143.38 147.87
C 143.38 148.17 142.66 149.55 141.80 150.94
C 140.49 153.03 140.70 154.09 143.09 157.32
C 144.67 159.45 145.96 161.43 145.96 161.74
C 145.96 162.04 143.63 166.27 140.79 171.12
C 132.45 185.38 133.93 192.65 146.48 198.97
C 155.63 203.59 173.60 219.38 177.01 225.81
C 178.33 228.30 182.93 234.68 187.24 240.00
C 196.36 251.26 198.92 258.23 198.92 271.85
L 198.92 281.29
L 193.30 281.29
L 187.67 281.29
L 186.88 271.94
C 186.44 266.79 185.19 259.96 184.09 256.77
C 179.98 244.79 163.98 228.76 159.13 231.79
C 156.95 233.16 155.75 245.37 155.18 271.94
C 155.08 276.37 154.44 280.00 153.75 280.00
C 153.06 280.00 149.56 277.38 145.96 274.19
C 139.03 268.05 134.68 266.94 131.19 270.41
C 128.02 273.59 128.79 278.19 133.36 283.41
C 137.42 288.04 137.46 288.17 134.33 287.14
C 127.97 285.05 115.18 284.86 111.26 286.81
L 107.51 288.68
L 106.86 281.45
C 106.50 277.46 106.76 271.17 107.42 267.47
C 108.07 263.78 108.44 256.30 108.23 250.84
C 107.93 242.95 107.38 240.62 105.54 239.50
C 102.49 237.61 100.18 240.61 91.70 257.42
L 85.19 270.32
L 84.90 290.32
C 84.62 309.59 84.76 310.84 88.83 324.45
C 91.19 332.37 94.27 339.90 95.83 341.55
C 99.26 345.20 97.90 347.12 94.23 343.81
C 88.50 338.65 84.63 346.48 88.43 355.55
C 90.58 360.72 90.42 362.46 88.04 359.60
M 133.26 155.29
C 137.16 151.77 135.50 145.81 130.63 145.81
C 127.98 145.81 124.00 149.65 124.00 152.19
C 124.00 157.15 129.27 158.90 133.26 155.29"/>
<path fill="#ae3c2a" stroke="none" d="
M 57.07 339.24
C 56.43 337.54 55.17 331.26 54.25 325.32
L 52.60 314.50
L 58.27 303.54
C 61.38 297.50 64.52 292.49 65.23 292.41
C 65.94 292.32 66.70 294.68 66.91 297.65
C 67.28 302.79 66.26 305.51 59.75 316.63
C 57.72 320.12 57.67 329.55 59.68 335.07
C 60.85 338.32 60.86 339.72 59.73 340.85
C 58.58 342.00 57.94 341.61 57.07 339.24"/>
<path fill="#ae3c2a" stroke="none" d="
M 180.52 324.08
C 175.64 321.12 175.20 319.12 178.34 314.05
C 180.73 310.18 181.67 309.68 186.61 309.68
C 191.49 309.68 192.28 310.08 193.00 312.93
C 193.83 316.25 192.39 320.14 188.87 324.19
C 186.49 326.90 185.17 326.89 180.52 324.08"/>
<path fill="#ae3c2a" stroke="none" d="
M 68.56 322.77
C 67.80 321.34 67.22 319.11 67.27 317.83
C 67.33 316.35 68.08 317.08 69.27 319.83
C 71.36 324.61 70.80 326.94 68.56 322.77"/>
<path fill="#ae3c2a" stroke="none" d="
M 166.64 314.22
C 165.32 312.63 165.64 312.08 168.51 310.99
C 173.81 308.98 174.62 309.39 172.32 312.90
C 169.88 316.63 168.85 316.86 166.64 314.22"/>
<path fill="#ae3c2a" stroke="none" d="
M 115.26 307.17
C 110.61 304.26 107.74 299.32 108.93 296.26
C 110.17 293.01 118.85 290.05 124.65 290.89
C 141.10 293.26 145.91 293.26 146.82 290.88
C 147.50 289.11 146.02 287.02 140.77 282.34
C 135.61 277.72 134.20 275.74 135.29 274.66
C 136.37 273.57 138.67 275.03 144.25 280.30
C 153.61 289.14 158.82 290.97 171.03 289.72
C 176.07 289.21 192.10 288.37 206.67 287.88
C 241.21 286.71 239.33 287.69 259.41 260.00
C 267.63 248.65 275.03 238.77 275.85 238.06
C 276.66 237.35 280.82 232.13 285.10 226.45
C 292.98 215.97 303.34 205.46 308.46 202.71
C 311.03 201.34 311.29 201.51 311.29 204.46
C 311.29 210.01 315.48 212.90 323.49 212.90
C 327.35 212.90 330.89 213.51 331.35 214.26
C 331.82 215.01 329.66 218.35 326.56 221.68
C 323.45 225.02 313.81 236.53 305.13 247.28
C 285.42 271.68 266.13 290.25 252.39 298.06
L 242.19 303.87
L 202.79 303.87
C 181.12 303.87 162.61 304.39 161.64 305.01
C 160.67 305.63 153.98 306.62 146.78 307.20
C 139.58 307.79 130.50 308.62 126.58 309.06
C 120.75 309.70 118.73 309.37 115.26 307.17"/>
<path fill="#ae3c2a" stroke="none" d="
M 91.76 276.61
C 91.71 273.68 101.89 252.32 102.87 253.30
C 104.39 254.81 98.88 271.11 95.51 275.03
C 92.20 278.90 91.81 279.06 91.76 276.61"/>
<path fill="#ae3c2a" stroke="none" d="
M 168.19 205.21
L 160.06 197.65
L 168.19 193.25
C 172.66 190.84 181.71 185.54 188.33 181.47
C 206.11 170.50 232.78 156.98 246.71 151.85
C 260.39 146.80 272.54 144.12 272.54 146.14
C 272.54 148.59 261.06 163.30 253.61 170.40
C 240.06 183.28 235.57 186.70 229.14 189.05
C 225.67 190.31 212.51 196.19 199.91 202.13
C 187.32 208.05 176.85 212.88 176.66 212.85
C 176.47 212.81 172.66 209.38 168.19 205.21"/>
<path fill="#ae3c2a" stroke="none" d="
M 283.79 181.72
C 277.31 180.52 263.50 174.93 263.50 173.51
C 263.50 173.06 266.08 169.39 269.25 165.38
C 277.55 154.80 282.02 144.32 282.64 134.01
C 283.08 126.63 282.77 125.06 280.45 122.74
C 278.96 121.25 275.29 119.64 272.30 119.16
C 267.17 118.35 260.92 113.92 260.92 111.12
C 260.92 110.43 264.16 108.39 268.12 106.57
C 273.48 104.12 275.20 102.70 274.85 100.99
C 274.51 99.30 273.39 98.83 270.55 99.15
C 261.52 100.17 261.69 100.22 260.89 95.45
C 259.82 89.06 258.91 88.00 253.19 86.45
C 246.73 84.72 245.78 81.72 249.41 74.59
C 253.64 66.25 263.33 53.12 265.83 52.35
C 267.04 51.97 278.20 51.51 290.62 51.32
C 311.06 51.01 313.72 51.21 318.38 53.55
C 321.60 55.15 324.01 57.47 324.78 59.68
C 326.03 63.32 325.23 64.84 314.64 79.14
C 312.04 82.66 311.91 84.62 311.29 130.62
L 310.65 178.45
L 306.12 179.99
C 299.27 182.34 290.68 182.99 283.79 181.72
M 283.43 72.06
C 289.41 69.34 289.44 60.99 283.50 58.28
C 276.49 55.10 265.62 57.30 264.06 62.22
C 262.83 66.08 264.44 70.41 267.67 71.96
C 271.59 73.85 279.40 73.90 283.43 72.06"/>
<path fill="#fefefe" stroke="none" d="
M 278.42 68.31
C 280.40 66.13 280.55 65.23 279.27 63.17
C 277.02 59.59 277.32 59.06 280.61 60.79
C 286.21 63.74 286.29 67.01 280.81 69.50
C 276.21 71.60 275.68 71.33 278.42 68.31"/>
<path fill="#ffbf53" stroke="none" d="
M 86.22 477.86
C 83.34 477.37 82.67 476.57 82.67 473.63
C 82.67 468.32 91.35 399.88 93.65 387.10
C 98.54 359.85 97.92 361.52 105.40 355.65
C 109.18 352.68 117.00 348.50 122.95 346.26
C 132.49 342.67 134.46 342.34 140.60 343.30
C 158.80 346.19 161.63 348.76 163.64 364.30
C 164.49 370.80 165.22 379.17 165.26 382.90
L 165.33 389.68
L 160.49 389.69
C 151.53 389.70 145.61 392.22 139.33 398.67
C 131.63 406.61 129.58 412.30 122.05 446.63
C 118.68 462.00 115.46 475.33 114.88 476.25
C 113.81 477.99 93.58 479.11 86.22 477.86"/>
<path fill="#ffbf53" stroke="none" d="
M 189.90 385.48
C 189.91 383.14 190.16 382.95 191.17 384.52
C 192.78 387.02 192.78 388.39 191.17 388.39
C 190.46 388.39 189.89 387.08 189.90 385.48"/>
<path fill="#ffbf53" stroke="none" d="
M 220.88 387.78
C 220.88 387.35 218.25 375.30 215.06 361.01
C 211.87 346.71 209.25 334.92 209.25 334.79
C 209.25 334.67 213.85 334.22 219.45 333.79
C 232.89 332.76 240.12 330.83 244.38 327.14
C 248.41 323.63 251.88 316.13 251.88 310.86
C 251.88 307.86 252.96 306.58 258.01 303.70
C 273.85 294.66 289.02 279.85 313.56 249.50
C 322.09 238.95 331.17 228.32 333.74 225.87
L 338.42 221.43
L 338.42 294.12
C 338.42 346.68 337.99 368.22 336.88 371.94
C 334.62 379.47 329.35 384.09 321.29 385.63
C 313.86 387.05 220.88 389.05 220.88 387.78"/>
<path fill="#ffbf53" stroke="none" d="
M 255.07 239.68
L 255.10 226.45
L 248.19 213.79
C 239.44 197.75 239.63 194.84 250.16 184.84
C 256.90 178.43 261.12 176.57 262.80 179.28
C 263.95 181.14 277.55 185.90 285.37 187.17
C 290.43 188.01 294.90 187.79 301.51 186.43
C 306.54 185.38 310.79 184.52 310.97 184.52
C 311.15 184.52 311.29 186.52 311.29 188.97
C 311.29 192.99 310.74 193.68 305.65 195.92
C 296.80 199.83 290.20 206.70 272.21 230.65
C 263.01 242.89 255.38 252.90 255.26 252.90
C 255.13 252.90 255.05 246.95 255.07 239.68"/>
<path fill="#ffa053" stroke="none" d="
M 169.21 509.15
L 169.21 424.75
L 174.05 427.08
C 176.71 428.36 183.13 430.70 188.30 432.26
C 199.24 435.57 205.81 435.02 208.11 430.59
C 208.93 429.02 209.70 427.61 209.82 427.46
C 209.93 427.30 213.78 428.32 218.36 429.70
C 228.35 432.75 239.27 433.06 241.49 430.39
C 244.10 427.24 242.50 424.27 235.08 418.49
C 222.15 408.41 222.45 408.79 221.61 401.77
L 220.82 395.14
L 267.03 394.35
C 317.76 393.47 326.07 392.65 333.44 387.77
L 338.42 384.48
L 338.42 421.28
L 338.42 458.06
L 284.81 458.06
C 232.93 458.06 231.13 458.14 228.62 460.65
C 226.11 463.16 226.04 464.94 226.04 528.39
L 226.04 593.55
L 197.62 593.55
L 169.21 593.55
L 169.21 509.15"/>
<path fill="#ffa053" stroke="none" d="
M 248.00 538.32
C 248.00 497.08 248.39 482.71 249.55 481.55
C 250.70 480.40 262.52 480.00 294.76 480.00
L 338.42 480.00
L 338.42 535.23
C 338.42 576.46 338.03 590.84 336.87 592.00
C 335.72 593.15 323.90 593.55 291.66 593.55
L 248.00 593.55
L 248.00 538.32"/>
<path fill="#ffa053" stroke="none" d="
M 344.88 348.65
L 344.88 306.05
L 351.46 300.13
C 359.94 292.52 366.12 290.52 371.90 293.50
C 379.13 297.23 380.02 301.51 379.53 330.21
C 379.05 358.71 378.95 358.28 389.49 372.26
C 392.74 376.58 395.16 381.11 394.97 382.52
C 394.77 383.90 392.58 386.22 390.08 387.68
C 386.16 389.97 382.89 390.39 365.22 390.77
L 344.88 391.24
L 344.88 348.65"/>
<path fill="#c57a36" stroke="none" d="
M 193.94 410.99
C 187.65 403.83 186.68 395.86 192.01 395.10
C 194.45 394.74 194.99 395.78 196.94 404.55
C 198.15 409.97 198.88 414.66 198.56 414.98
C 198.23 415.30 196.15 413.51 193.94 410.99"/>
<path fill="#c55436" stroke="none" d="
M 150.09 592.00
C 148.92 590.83 148.54 567.57 148.54 495.28
C 148.54 388.68 147.59 398.68 157.93 396.75
L 162.75 395.85
L 162.75 494.70
L 162.75 593.55
L 157.20 593.55
C 154.15 593.55 150.94 592.85 150.09 592.00"/>
<path fill="#c55436" stroke="none" d="
M 232.50 530.58
C 232.50 483.33 232.89 467.23 234.05 466.06
C 235.20 464.92 248.75 464.52 287.01 464.52
L 338.42 464.52
L 338.42 469.03
L 338.42 473.55
L 292.56 473.55
C 248.43 473.55 246.60 473.65 244.12 476.13
C 241.62 478.63 241.54 480.43 241.54 536.13
L 241.54 593.55
L 237.02 593.55
L 232.50 593.55
L 232.50 530.58"/>
</g>
</svg>
