<?xml version="1.0" encoding="UTF-8" standalone="no"?>
<!DOCTYPE svg PUBLIC "-//W3C//DTD SVG 1.1//EN"
"http://www.w3.org/Graphics/SVG/1.1/DTD/svg11.dtd">
<svg width="351px" height="600px"
xmlns="http://www.w3.org/2000/svg" version="1.1">
<g transform="translate(0000, 0000) scale(1.0000, 1.0000)">
<path fill="#000000" stroke="none" d="
M 48.44 599.21
C 28.56 596.13 12.44 586.48 6.73 574.23
C 3.13 566.49 3.04 562.26 6.29 552.82
C 9.65 543.06 14.87 535.16 23.61 526.62
C 32.77 517.66 35.39 515.75 59.48 500.43
L 79.32 487.81
L 60.74 468.65
C 28.09 435.03 14.68 412.60 4.64 374.84
C 0.93 360.87 0.79 359.43 0.72 332.70
C 0.62 301.02 1.60 295.45 10.67 275.99
C 18.68 258.82 26.49 247.58 50.40 218.87
C 57.02 210.92 65.51 200.47 69.27 195.66
L 76.11 186.92
L 76.31 176.16
C 76.44 169.19 77.43 162.53 79.13 157.23
C 82.13 147.89 82.55 135.40 80.26 124.29
C 78.42 115.32 79.42 113.85 86.54 115.06
C 95.49 116.57 106.80 124.39 122.03 139.62
C 141.95 159.52 154.35 178.97 153.23 188.55
C 152.82 192.11 152.94 192.10 138.84 190.47
C 133.80 189.87 129.37 190.57 118.65 193.60
C 111.11 195.74 102.05 197.48 98.54 197.48
C 92.62 197.48 91.80 197.87 87.28 202.88
C 77.75 213.42 44.75 254.31 38.06 263.87
C 28.91 276.94 20.71 294.30 17.64 307.09
C 9.13 342.55 22.37 392.73 49.89 429.41
C 59.33 441.97 93.54 476.73 96.47 476.73
C 97.55 476.73 102.76 474.78 108.03 472.42
C 113.31 470.04 124.13 465.77 132.10 462.94
C 140.06 460.11 150.85 455.79 156.10 453.33
L 165.64 448.86
L 167.69 432.23
C 168.81 423.08 172.54 401.19 175.99 383.58
C 179.44 365.97 182.96 346.77 183.83 340.88
C 185.93 326.48 185.93 292.63 183.82 286.43
C 182.92 283.80 177.81 275.82 172.46 268.69
C 160.38 252.60 158.62 247.41 161.64 236.99
C 164.69 226.49 169.08 218.43 184.80 194.45
C 199.20 172.48 205.33 159.51 206.93 147.58
C 208.11 138.64 205.77 136.36 194.17 135.23
C 183.10 134.15 181.59 133.69 178.61 130.48
C 176.70 128.43 176.13 126.04 176.13 119.97
C 176.13 110.78 174.71 108.79 167.21 107.53
C 160.92 106.47 156.75 102.72 157.65 98.93
C 159.98 89.11 174.12 53.92 182.75 36.48
C 195.78 10.13 230.69 -5.52 259.84 1.91
C 282.88 7.80 301.65 24.01 309.41 44.73
C 315.04 59.81 318.63 94.88 320.82 156.60
C 321.56 177.36 323.00 207.64 324.00 223.90
C 325.01 240.16 325.83 260.11 325.84 268.24
C 325.84 287.52 325.41 288.05 309.69 288.05
L 298.56 288.05
L 297.12 294.65
C 294.42 306.94 293.18 318.82 293.15 332.54
C 293.13 347.99 296.07 383.47 298.84 400.93
C 299.85 407.32 300.68 418.64 300.68 426.09
C 300.68 433.53 301.29 454.18 302.05 471.95
L 303.42 504.28
L 298.90 520.52
C 296.43 529.46 294.39 537.84 294.40 539.13
C 294.40 540.58 296.36 542.63 299.38 544.35
C 302.19 545.95 307.61 551.43 311.81 556.93
C 322.06 570.33 324.88 572.70 337.16 578.34
C 348.57 583.58 351.45 585.95 350.79 589.56
C 350.22 592.58 342.67 596.23 336.99 596.23
C 330.25 596.23 312.67 590.79 297.91 584.15
C 290.78 580.96 280.72 577.47 275.55 576.42
C 263.21 573.89 253.37 574.97 192.38 585.56
C 125.79 597.11 111.21 598.89 79.26 599.38
C 64.38 599.61 50.51 599.52 48.44 599.21
M 103.79 591.18
C 124.45 589.28 149.43 585.51 195.92 577.28
C 218.90 573.22 243.95 569.22 251.58 568.39
C 269.83 566.42 278.82 567.97 299.42 576.73
C 319.65 585.32 336.96 590.64 338.76 588.84
C 339.70 587.90 339.39 587.26 337.69 586.65
C 336.36 586.20 331.75 584.18 327.44 582.16
C 319.61 578.52 317.43 576.42 304.19 559.80
C 301.18 556.03 296.94 551.89 294.76 550.62
C 291.05 548.45 290.34 548.43 283.29 550.25
C 272.35 553.09 266.36 552.70 243.69 547.71
C 193.35 536.62 163.98 534.09 141.53 538.92
C 128.84 541.65 103.34 549.89 90.29 555.47
C 84.79 557.82 79.47 559.75 78.45 559.75
C 75.03 559.75 68.59 555.74 62.27 549.66
C 55.42 543.07 35.35 527.04 33.94 527.04
C 31.60 527.04 19.63 541.71 16.41 548.53
C 11.11 559.74 10.53 564.86 13.79 571.60
C 18.15 580.60 28.72 587.14 44.43 590.57
C 53.87 592.62 84.71 592.93 103.79 591.18
M 88.95 547.92
C 110.11 538.72 139.85 530.58 158.52 528.92
C 175.37 527.41 210.27 532.09 248.00 540.93
C 256.73 542.98 266.81 544.65 270.37 544.65
C 278.06 544.65 285.06 542.03 286.02 538.79
C 286.40 537.52 288.76 529.12 291.27 520.13
L 295.83 503.77
L 294.51 472.49
C 293.73 454.29 292.63 440.53 291.85 439.60
C 289.47 436.72 261.88 435.96 245.95 438.34
C 231.75 440.45 202.56 447.33 192.48 450.94
C 189.38 452.06 182.16 454.06 176.46 455.41
C 170.74 456.74 162.54 459.30 158.21 461.08
C 153.87 462.88 142.54 467.16 133.00 470.60
C 110.55 478.70 90.33 488.55 75.90 498.42
C 69.55 502.74 59.22 509.53 52.94 513.51
C 46.66 517.47 41.52 521.21 41.52 521.80
C 41.52 522.38 45.91 526.28 51.27 530.44
C 56.63 534.62 64.58 541.22 68.93 545.12
C 73.28 549.01 77.36 552.20 77.99 552.20
C 78.62 552.20 83.55 550.28 88.95 547.92
M 84.24 475.70
C 75.36 468.69 53.46 445.65 44.69 434.09
C 29.34 413.85 16.33 384.06 12.01 359.27
C 9.18 343.03 9.42 315.31 12.52 302.44
C 17.36 282.24 28.22 263.23 50.20 236.54
C 82.73 196.99 83.41 196.10 81.82 194.57
C 80.63 193.42 79.53 194.06 76.94 197.45
C 75.11 199.85 66.80 210.04 58.50 220.10
C 30.43 254.11 23.92 263.40 15.71 281.02
C 6.63 300.57 5.65 305.57 5.75 332.08
C 5.85 353.85 6.10 356.28 9.69 369.81
C 19.70 407.57 33.11 429.99 65.86 463.72
C 82.88 481.25 84.78 482.84 87.21 481.55
C 89.75 480.19 89.64 479.95 84.24 475.70
M 195.63 442.11
C 228.83 432.21 253.81 428.29 275.24 429.58
C 285.66 430.21 289.91 430.04 291.28 428.91
C 293.67 426.92 293.70 416.86 291.34 401.89
C 285.77 366.36 284.35 315.51 288.47 298.98
C 289.66 294.26 290.61 289.87 290.61 289.23
C 290.61 288.54 280.99 288.05 267.34 288.05
C 245.74 288.05 243.89 287.87 241.55 285.53
C 239.16 283.14 239.03 281.35 239.03 249.06
L 239.03 215.09
L 227.40 215.08
C 214.05 215.06 205.00 212.99 194.72 207.61
L 187.50 203.82
L 183.30 210.40
C 175.42 222.74 172.54 228.30 169.85 236.38
C 167.27 244.09 167.25 244.72 169.20 249.84
C 170.33 252.81 174.67 259.64 178.85 265.03
C 189.35 278.60 191.16 282.67 192.69 296.01
C 195.01 316.34 192.65 338.06 182.43 390.57
C 176.12 423.02 173.00 444.52 174.28 446.62
C 175.16 448.03 177.31 447.57 195.63 442.11
M 239.31 151.26
L 239.66 92.45
L 246.90 82.00
C 254.75 70.65 255.45 67.99 251.61 64.15
C 249.22 61.76 247.42 61.64 215.14 61.64
L 181.20 61.64
L 178.27 66.35
C 174.30 72.75 165.55 98.11 166.88 99.36
C 167.47 99.90 171.10 101.25 174.95 102.34
C 180.80 104.01 182.23 105.01 183.75 108.45
C 184.75 110.72 186.42 112.49 187.45 112.38
C 188.48 112.28 190.75 111.99 192.48 111.75
C 194.92 111.42 195.63 111.87 195.63 113.80
C 195.63 115.60 194.06 116.86 189.97 118.38
C 185.48 120.03 184.31 121.07 184.31 123.40
C 184.31 126.70 186.90 127.67 199.34 129.01
C 205.56 129.67 207.52 130.50 210.98 133.96
C 215.95 138.93 216.22 142.48 212.70 156.26
C 210.00 166.82 205.01 177.45 196.72 190.29
C 193.70 194.98 191.23 199.04 191.23 199.31
C 191.23 199.57 193.25 201.04 195.74 202.58
C 203.83 207.58 213.61 209.92 226.73 210.00
L 238.96 210.06
L 239.31 151.26
M 117.74 186.01
C 128.34 182.98 132.90 182.25 138.05 182.78
C 141.70 183.16 144.68 183.16 144.68 182.79
C 144.68 182.42 142.90 178.78 140.73 174.69
C 132.26 158.82 108.80 134.39 94.56 126.65
L 88.69 123.46
L 88.68 138.14
C 88.68 149.71 88.04 155.13 85.69 163.69
C 82.25 176.14 82.72 182.19 87.46 186.93
C 91.73 191.19 100.62 190.92 117.74 186.01"/>
<path fill="#000000" stroke="none" d="
M 181.16 86.79
C 175.22 80.86 179.89 72.96 189.34 72.96
C 195.88 72.96 200.03 76.13 200.03 81.13
C 200.03 86.14 195.88 89.31 189.34 89.31
C 185.35 89.31 182.94 88.57 181.16 86.79
M 194.97 84.30
C 197.72 81.56 197.21 78.59 193.68 76.69
C 190.53 75.02 189.15 75.16 190.97 76.98
C 191.80 77.81 192.48 79.69 192.48 81.13
C 192.48 82.59 191.80 84.45 190.97 85.28
C 189.80 86.45 189.80 86.79 190.97 86.79
C 191.80 86.79 193.60 85.67 194.97 84.30"/>
<path fill="#ae3c2a" stroke="none" d="
M 44.43 590.57
C 28.72 587.14 18.15 580.60 13.79 571.60
C 10.53 564.86 11.11 559.74 16.41 548.53
C 19.63 541.71 31.60 527.04 33.94 527.04
C 35.35 527.04 55.42 543.07 62.27 549.66
C 68.59 555.74 75.03 559.75 78.45 559.75
C 79.47 559.75 84.79 557.82 90.29 555.47
C 103.34 549.89 128.84 541.65 141.53 538.92
C 163.98 534.09 193.35 536.62 243.69 547.71
C 266.36 552.70 272.35 553.09 283.29 550.25
C 290.34 548.43 291.05 548.45 294.76 550.62
C 296.94 551.89 301.18 556.03 304.19 559.80
C 317.43 576.42 319.61 578.52 327.44 582.16
C 331.75 584.18 336.36 586.20 337.69 586.65
C 339.39 587.26 339.70 587.90 338.76 588.84
C 336.96 590.64 319.65 585.32 299.42 576.73
C 278.82 567.97 269.83 566.42 251.58 568.39
C 243.95 569.22 218.90 573.22 195.92 577.28
C 149.43 585.51 124.45 589.28 103.79 591.18
C 84.71 592.93 53.87 592.62 44.43 590.57"/>
<path fill="#ae3c2a" stroke="none" d="
M 207.38 207.65
C 200.99 205.61 191.23 200.57 191.23 199.31
C 191.23 199.04 193.70 194.98 196.72 190.29
C 205.01 177.45 210.00 166.82 212.70 156.26
C 216.22 142.48 215.95 138.93 210.98 133.96
C 207.52 130.50 205.56 129.67 199.34 129.01
C 186.90 127.67 184.31 126.70 184.31 123.40
C 184.31 121.07 185.48 120.03 189.97 118.38
C 194.06 116.86 195.63 115.60 195.63 113.80
C 195.63 111.87 194.92 111.42 192.48 111.75
C 190.75 111.99 188.48 112.28 187.45 112.38
C 186.42 112.49 184.75 110.72 183.75 108.45
C 182.23 105.01 180.80 104.01 174.95 102.34
C 171.10 101.25 167.47 99.90 166.88 99.36
C 165.76 98.31 173.97 73.37 177.22 67.92
C 180.99 61.61 180.86 61.64 216.00 61.64
C 247.42 61.64 249.22 61.76 251.61 64.15
C 255.45 67.99 254.75 70.65 246.90 82.00
L 239.66 92.45
L 239.31 151.26
L 238.96 210.06
L 226.73 210.00
C 218.55 209.95 212.13 209.17 207.38 207.65
M 197.52 86.79
C 203.45 80.86 198.79 72.96 189.34 72.96
C 182.80 72.96 178.65 76.13 178.65 81.13
C 178.65 86.14 182.80 89.31 189.34 89.31
C 193.33 89.31 195.74 88.57 197.52 86.79"/>
<path fill="#fefefe" stroke="none" d="
M 191.23 84.91
C 192.17 83.77 192.50 81.48 192.03 79.21
C 191.35 75.80 191.52 75.53 193.62 76.67
C 197.21 78.59 197.73 81.55 194.97 84.30
C 191.99 87.28 188.84 87.79 191.23 84.91"/>
<path fill="#3dd91f" stroke="none" d="
M 65.86 463.72
C 33.11 429.99 19.70 407.57 9.69 369.81
C 6.10 356.28 5.85 353.85 5.75 332.08
C 5.65 305.57 6.63 300.57 15.71 281.02
C 23.92 263.40 30.43 254.11 58.50 220.10
C 66.80 210.04 75.11 199.85 76.94 197.45
C 79.53 194.06 80.63 193.42 81.82 194.57
C 83.41 196.10 82.73 196.99 50.20 236.54
C 28.22 263.23 17.36 282.24 12.52 302.44
C 9.42 315.31 9.18 343.03 12.01 359.27
C 16.33 384.06 29.34 413.85 44.69 434.09
C 53.46 445.65 75.36 468.69 84.24 475.70
C 89.64 479.95 89.75 480.19 87.21 481.55
C 84.78 482.84 82.88 481.25 65.86 463.72"/>
<path fill="#3dd91f" stroke="none" d="
M 345.97 424.53
C 345.97 424.19 346.26 423.90 346.60 423.90
C 346.94 423.90 347.23 424.19 347.23 424.53
C 347.23 424.87 346.94 425.16 346.60 425.16
C 346.26 425.16 345.97 424.87 345.97 424.53"/>
<path fill="#3dd91f" stroke="none" d="
M 87.46 186.93
C 82.72 182.19 82.25 176.15 85.67 163.69
C 87.99 155.28 88.66 149.64 88.68 138.68
C 88.68 129.61 89.17 124.53 90.01 124.53
C 92.13 124.53 102.95 131.75 110.42 138.15
C 119.70 146.10 135.88 165.61 140.73 174.69
C 142.90 178.78 144.68 182.42 144.68 182.79
C 144.68 183.16 141.70 183.16 138.05 182.78
C 132.90 182.25 128.34 182.98 117.74 186.01
C 100.62 190.92 91.73 191.19 87.46 186.93"/>
<path fill="#ffbf53" stroke="none" d="
M 68.93 545.12
C 64.58 541.22 56.63 534.62 51.27 530.44
C 45.91 526.28 41.52 522.38 41.52 521.80
C 41.52 521.21 46.66 517.47 52.94 513.51
C 59.22 509.53 69.55 502.74 75.90 498.42
C 90.33 488.55 110.55 478.70 133.00 470.60
C 142.54 467.16 153.87 462.88 158.21 461.08
C 162.54 459.30 170.74 456.74 176.46 455.41
C 182.16 454.06 189.38 452.06 192.48 450.94
C 202.56 447.33 231.75 440.45 245.95 438.34
C 261.88 435.96 289.47 436.72 291.85 439.60
C 292.63 440.53 293.73 454.29 294.51 472.49
L 295.83 503.77
L 291.27 520.13
C 288.76 529.12 286.40 537.52 286.02 538.79
C 285.06 542.03 278.06 544.65 270.37 544.65
C 266.81 544.65 256.73 542.98 248.00 540.93
C 210.27 532.09 175.37 527.41 158.52 528.92
C 139.85 530.58 110.11 538.72 88.95 547.92
C 83.55 550.28 78.62 552.20 77.99 552.20
C 77.36 552.20 73.28 549.01 68.93 545.12"/>
<path fill="#ffbf53" stroke="none" d="
M 174.28 446.62
C 173.00 444.52 176.12 423.02 182.43 390.57
C 192.65 338.06 195.01 316.34 192.69 296.01
C 191.16 282.67 189.35 278.60 178.85 265.03
C 174.67 259.64 170.33 252.81 169.20 249.84
C 167.25 244.72 167.27 244.08 169.83 236.38
C 172.96 226.94 185.73 205.03 188.11 205.03
C 189.00 205.03 192.51 206.47 195.89 208.23
C 205.15 213.03 214.50 215.06 227.40 215.08
L 239.03 215.09
L 239.03 249.06
C 239.03 281.35 239.16 283.14 241.55 285.53
C 243.89 287.87 245.74 288.05 267.34 288.05
C 280.99 288.05 290.61 288.54 290.61 289.23
C 290.61 289.87 289.66 294.26 288.47 298.98
C 284.35 315.51 285.77 366.36 291.34 401.89
C 293.70 416.86 293.67 426.92 291.28 428.91
C 289.91 430.04 285.66 430.21 275.24 429.58
C 253.81 428.29 228.83 432.21 195.63 442.11
C 177.31 447.57 175.16 448.03 174.28 446.62"/>
</g>
</svg>
