<?xml version="1.0" encoding="UTF-8" standalone="no"?>
<!DOCTYPE svg PUBLIC "-//W3C//DTD SVG 1.1//EN"
"http://www.w3.org/Graphics/SVG/1.1/DTD/svg11.dtd">
<svg width="438px" height="600px"
xmlns="http://www.w3.org/2000/svg" version="1.1">
<g transform="translate(0000, 0000) scale(1.0000, 1.0000)">
<path fill="#000000" stroke="none" d="
M 123.28 598.05
C 122.39 596.97 122.02 595.18 122.46 594.05
C 123.27 591.92 125.35 590.92 155.40 578.32
C 165.50 574.07 175.16 569.23 176.87 567.52
C 179.63 564.77 179.87 563.69 179.08 557.70
C 178.58 554.00 176.18 544.76 173.74 537.17
C 171.29 529.57 162.76 497.42 154.76 465.72
C 146.76 434.02 138.49 401.59 136.40 393.67
C 127.89 361.56 133.08 345.39 153.89 339.08
C 161.99 336.62 164.22 336.43 171.24 337.62
C 175.67 338.38 181.49 340.05 184.21 341.33
C 191.63 344.86 209.73 362.69 225.99 382.49
C 241.53 401.44 265.40 428.75 269.93 432.81
C 272.66 435.25 272.71 435.24 274.04 431.75
C 274.79 429.80 275.39 420.79 275.39 411.71
C 275.39 401.53 276.70 385.10 278.80 368.88
C 284.06 328.38 282.30 309.50 272.16 297.84
L 267.78 292.79
L 250.93 309.28
C 232.40 327.38 226.47 331.45 213.74 334.81
C 205.41 337.01 204.85 337.00 191.45 334.13
C 183.88 332.52 170.90 328.83 162.61 325.94
C 106.46 306.33 102.89 305.25 85.24 302.57
C 39.54 295.62 18.32 286.85 21.69 276.25
C 22.16 274.77 24.59 272.71 27.09 271.66
L 31.64 269.76
L 30.58 259.01
C 27.30 226.06 31.37 155.61 38.17 127.34
L 41.10 115.24
L 36.92 109.69
C 34.62 106.65 30.11 99.03 26.90 92.78
L 21.05 81.41
L 11.63 78.37
C 6.45 76.69 1.57 74.29 0.79 73.03
C -2.52 67.73 5.85 62.28 25.57 56.88
C 36.33 53.95 41.40 53.31 53.77 53.31
C 81.87 53.31 112.04 64.55 106.75 73.03
C 105.96 74.29 101.08 76.69 95.90 78.37
L 86.49 81.41
L 80.64 92.78
C 77.42 99.03 72.91 106.65 70.62 109.69
L 66.43 115.24
L 69.36 127.34
C 74.75 149.71 77.82 184.27 77.94 223.69
L 78.03 259.39
L 81.31 259.41
C 86.94 259.47 95.05 264.05 99.56 269.74
C 106.42 278.38 115.57 281.84 142.94 286.13
C 149.79 287.20 161.30 289.06 168.51 290.27
C 189.87 293.86 196.71 294.00 201.48 291.01
C 203.88 289.51 208.73 283.34 213.13 276.20
C 230.78 247.55 263.94 201.30 278.09 185.58
C 281.88 181.38 289.57 174.73 295.15 170.82
C 302.27 165.84 305.73 162.47 306.74 159.60
C 310.48 148.89 306.86 144.10 294.99 144.10
C 286.46 144.10 280.25 141.73 278.05 137.63
C 277.30 136.24 276.70 131.57 276.70 127.26
C 276.70 119.46 274.72 115.30 271.04 115.27
C 270.18 115.27 267.25 114.64 264.50 113.88
C 256.39 111.63 255.97 108.67 261.62 93.59
C 264.28 86.49 269.07 75.50 272.26 69.16
C 275.44 62.82 279.76 52.95 281.84 47.23
C 288.86 28.02 300.75 14.15 316.72 6.54
C 357.22 -12.77 410.40 11.57 422.66 55.02
C 426.84 69.86 430.54 107.76 432.77 158.52
C 433.54 176.16 434.77 201.81 435.51 215.50
C 436.24 229.19 437.19 257.86 437.59 279.18
C 438.55 327.77 440.85 323.58 413.25 323.58
L 393.75 323.58
L 392.94 359.28
C 392.48 378.92 391.76 417.38 391.33 444.76
C 390.71 484.21 389.90 500.65 387.39 523.97
C 383.03 564.64 382.97 563.70 389.81 568.64
C 392.86 570.86 402.74 576.20 411.75 580.49
C 432.90 590.61 437.93 595.22 431.53 598.64
C 429.82 599.55 379.25 600.00 276.95 600.00
C 143.98 600.00 124.70 599.75 123.28 598.05
M 415.44 591.45
C 415.06 591.07 409.81 588.37 403.76 585.46
C 391.17 579.39 380.39 572.95 378.00 570.05
C 375.62 567.14 375.97 556.26 379.55 522.92
C 382.10 499.32 382.90 483.16 383.50 444.10
C 383.92 417.09 384.61 378.92 385.07 359.28
L 385.89 323.58
L 368.67 323.58
C 344.66 323.58 346.20 325.89 346.20 290.17
L 346.20 262.01
L 327.14 262.01
C 305.13 262.01 291.94 259.81 279.51 254.07
C 274.92 251.95 271.01 250.22 270.83 250.22
C 269.95 250.22 263.59 265.93 263.61 268.07
C 263.67 272.54 268.74 281.82 274.84 288.59
C 290.16 305.62 292.66 323.06 286.52 370.09
C 284.50 385.60 283.26 401.90 283.19 413.32
C 283.10 434.42 281.72 440.16 276.32 442.06
C 273.49 443.04 271.68 442.81 268.26 440.96
C 263.32 438.31 246.55 419.80 224.19 392.36
C 203.88 367.41 189.69 353.29 180.84 349.18
C 168.80 343.57 152.15 345.46 145.35 353.20
C 138.94 360.51 139.22 375.43 146.21 400.22
C 148.64 408.86 156.85 440.70 164.43 470.96
C 172.03 501.22 179.46 529.52 180.96 533.84
C 182.47 538.17 184.90 546.42 186.37 552.18
C 191.08 570.52 188.75 573.37 159.00 585.62
C 151.61 588.67 145.56 591.38 145.56 591.64
C 145.56 591.92 206.45 592.14 280.86 592.14
C 355.27 592.14 415.84 591.83 415.44 591.45
M 213.81 326.72
C 217.70 325.56 223.35 322.93 226.34 320.87
C 231.93 317.03 257.88 291.31 260.02 287.52
C 260.82 286.09 260.31 283.32 258.46 279.03
C 255.09 271.21 255.01 266.50 258.11 258.42
C 260.94 251.02 267.05 241.05 268.77 241.05
C 269.44 241.05 271.81 242.71 274.04 244.76
C 282.61 252.56 301.49 256.77 328.05 256.77
L 346.14 256.77
L 346.51 177.08
L 346.86 97.39
L 353.14 87.21
C 360.55 75.24 361.78 70.73 358.87 66.29
C 355.09 60.54 349.56 59.79 318.04 60.72
C 284.71 61.72 285.11 61.57 278.48 74.10
C 272.82 84.81 265.67 104.80 267.05 106.09
C 267.67 106.66 271.46 108.07 275.47 109.21
C 281.57 110.95 283.06 111.98 284.65 115.57
C 285.68 117.93 287.43 119.78 288.50 119.66
C 289.58 119.55 291.94 119.25 293.75 119.00
C 296.29 118.66 297.03 119.14 297.03 121.14
C 297.03 123.01 295.39 124.32 291.13 125.90
C 280.22 129.92 284.44 136.24 298.04 136.24
C 307.53 136.24 313.04 138.94 315.49 144.80
C 317.89 150.54 317.84 154.81 315.32 160.83
C 312.74 167.02 309.16 170.83 300.96 176.16
C 286.82 185.36 266.94 209.53 237.90 252.84
C 229.92 264.72 221.23 278.07 218.58 282.50
C 213.15 291.51 205.02 299.52 199.97 300.77
C 195.38 301.93 186.08 300.97 155.83 296.27
C 114.67 289.86 99.72 285.14 93.41 276.56
C 90.05 272.00 80.70 266.70 77.90 267.77
C 76.89 268.15 76.06 270.16 76.06 272.20
C 76.06 277.35 73.74 279.94 67.04 282.28
C 58.72 285.18 50.89 284.76 41.77 280.93
C 34.42 277.83 28.02 277.47 30.92 280.30
C 32.82 282.14 49.88 288.30 56.39 289.48
C 59.64 290.07 72.64 292.35 85.28 294.55
C 103.01 297.63 113.05 300.24 129.21 305.92
C 174.18 321.77 180.66 323.91 190.81 326.21
C 204.10 329.24 205.23 329.27 213.81 326.72
M 65.87 274.02
C 68.19 271.70 70.68 246.52 70.75 224.61
C 70.87 189.90 63.65 126.77 58.93 121.09
C 56.93 118.66 50.61 118.66 48.60 121.09
C 45.86 124.39 42.15 146.55 39.39 176.14
C 36.35 208.77 36.00 234.55 38.29 256.48
L 39.87 271.55
L 45.18 274.02
C 51.01 276.75 63.13 276.76 65.87 274.02
M 63.29 105.00
C 66.57 101.50 71.29 94.28 73.76 88.95
C 79.29 77.14 83.47 72.50 89.69 71.33
C 92.29 70.85 94.42 70.00 94.42 69.43
C 94.42 67.99 75.94 63.08 63.93 61.34
C 56.38 60.24 51.16 60.24 43.60 61.34
C 31.59 63.08 13.11 67.99 13.11 69.43
C 13.11 70.00 15.24 70.85 17.85 71.33
C 24.06 72.50 28.25 77.14 33.77 88.95
C 36.25 94.28 40.97 101.50 44.25 105.00
C 52.18 113.48 55.35 113.48 63.29 105.00"/>
<path fill="#000000" stroke="none" d="
M 281.95 93.01
C 275.76 86.83 280.62 78.60 290.47 78.60
C 297.29 78.60 301.62 81.90 301.62 87.12
C 301.62 92.33 297.29 95.63 290.47 95.63
C 286.31 95.63 283.80 94.86 281.95 93.01
M 296.35 90.42
C 299.20 87.56 298.68 84.47 294.99 82.49
C 291.72 80.75 290.27 80.90 292.17 82.79
C 293.04 83.66 293.75 85.60 293.75 87.12
C 293.75 88.64 293.04 90.58 292.17 91.44
C 290.96 92.66 290.96 93.01 292.17 93.01
C 293.04 93.01 294.92 91.85 296.35 90.42"/>
<path fill="#59c91c" stroke="none" d="
M 45.18 274.02
L 39.87 271.55
L 38.29 256.48
C 36.00 234.55 36.35 208.77 39.39 176.14
C 42.15 146.55 45.86 124.39 48.60 121.09
C 50.61 118.66 56.93 118.66 58.93 121.09
C 63.65 126.77 70.87 189.90 70.75 224.61
C 70.68 246.52 68.19 271.70 65.87 274.02
C 63.13 276.76 51.01 276.75 45.18 274.02"/>
<path fill="#59c91c" stroke="none" d="
M 44.25 105.00
C 40.97 101.50 36.25 94.28 33.77 88.95
C 28.25 77.14 24.06 72.50 17.85 71.33
C 15.24 70.85 13.11 70.00 13.11 69.43
C 13.11 67.90 32.04 62.99 44.19 61.36
C 51.67 60.37 57.69 60.33 63.86 61.24
C 75.14 62.92 94.42 68.08 94.42 69.43
C 94.42 70.00 92.29 70.85 89.69 71.33
C 83.47 72.50 79.29 77.14 73.76 88.95
C 71.29 94.28 66.57 101.50 63.29 105.00
C 55.35 113.48 52.18 113.48 44.25 105.00"/>
<path fill="#ae3c2a" stroke="none" d="
M 190.81 326.21
C 180.66 323.91 174.18 321.77 129.21 305.92
C 113.05 300.24 103.01 297.63 85.28 294.55
C 72.64 292.35 59.64 290.07 56.39 289.48
C 49.88 288.30 32.82 282.14 30.92 280.30
C 28.02 277.47 34.42 277.83 41.77 280.93
C 50.89 284.76 58.72 285.18 67.04 282.28
C 73.74 279.94 76.06 277.35 76.06 272.20
C 76.06 270.16 76.89 268.15 77.90 267.77
C 80.70 266.70 90.05 272.00 93.41 276.56
C 99.72 285.14 114.67 289.86 155.83 296.27
C 186.08 300.97 195.38 301.93 199.97 300.77
C 205.02 299.52 213.15 291.51 218.58 282.50
C 221.23 278.07 229.92 264.72 237.90 252.84
C 266.94 209.53 286.82 185.36 300.96 176.16
C 309.16 170.83 312.74 167.02 315.32 160.83
C 317.84 154.81 317.89 150.54 315.49 144.80
C 313.04 138.94 307.53 136.24 298.04 136.24
C 284.44 136.24 280.22 129.92 291.13 125.90
C 295.39 124.32 297.03 123.01 297.03 121.14
C 297.03 119.14 296.29 118.66 293.75 119.00
C 291.94 119.25 289.58 119.55 288.50 119.66
C 287.43 119.78 285.68 117.93 284.65 115.57
C 283.06 111.98 281.57 110.95 275.47 109.21
C 271.46 108.07 267.67 106.66 267.05 106.09
C 265.67 104.80 272.82 84.81 278.48 74.10
C 285.08 61.62 284.71 61.74 318.05 60.73
C 349.57 59.79 355.09 60.54 358.87 66.29
C 361.78 70.73 360.55 75.24 353.14 87.21
L 346.86 97.39
L 346.51 177.08
L 346.14 256.77
L 328.05 256.77
C 301.49 256.77 282.61 252.56 274.04 244.76
C 271.81 242.71 269.44 241.05 268.77 241.05
C 267.05 241.05 260.94 251.02 258.11 258.42
C 255.01 266.50 255.09 271.21 258.46 279.03
C 260.31 283.32 260.82 286.09 260.02 287.52
C 257.88 291.31 231.93 317.03 226.34 320.87
C 220.74 324.72 208.82 328.91 204.01 328.72
C 202.52 328.65 196.58 327.52 190.81 326.21
M 298.99 93.01
C 305.18 86.83 300.32 78.60 290.47 78.60
C 283.65 78.60 279.32 81.90 279.32 87.12
C 279.32 92.33 283.65 95.63 290.47 95.63
C 294.63 95.63 297.14 94.86 298.99 93.01"/>
<path fill="#fefefe" stroke="none" d="
M 292.44 91.05
C 293.42 89.87 293.76 87.48 293.28 85.11
C 292.57 81.56 292.74 81.29 294.93 82.47
C 298.68 84.47 299.22 87.55 296.35 90.42
C 293.24 93.52 289.95 94.05 292.44 91.05"/>
<path fill="#ffbf53" stroke="none" d="
M 145.56 591.64
C 145.56 591.38 151.61 588.67 159.00 585.62
C 188.75 573.37 191.08 570.52 186.37 552.18
C 184.90 546.42 182.47 538.17 180.96 533.84
C 179.46 529.52 172.03 501.22 164.43 470.96
C 156.85 440.70 148.64 408.86 146.21 400.22
C 139.22 375.43 138.94 360.51 145.35 353.20
C 152.15 345.46 168.80 343.57 180.84 349.18
C 189.69 353.29 203.88 367.41 224.19 392.36
C 246.55 419.80 263.32 438.31 268.26 440.96
C 271.68 442.81 273.49 443.04 276.32 442.06
C 281.72 440.16 283.10 434.42 283.19 413.32
C 283.26 401.90 284.50 385.60 286.52 370.09
C 290.21 341.82 290.59 326.78 287.93 314.23
C 285.58 303.17 282.54 297.29 274.34 287.96
C 265.82 278.25 262.64 270.28 264.69 263.61
C 265.50 260.92 267.34 256.83 268.77 254.53
L 271.36 250.31
L 279.60 254.12
C 291.94 259.81 305.18 262.01 327.14 262.01
L 346.20 262.01
L 346.20 290.17
C 346.20 325.89 344.66 323.58 368.67 323.58
L 385.89 323.58
L 385.07 359.28
C 384.61 378.92 383.92 417.09 383.50 444.10
C 382.90 483.16 382.10 499.32 379.55 522.92
C 375.97 556.26 375.62 567.14 378.00 570.05
C 380.39 572.95 391.17 579.39 403.76 585.46
C 409.81 588.37 415.06 591.07 415.44 591.45
C 415.84 591.83 355.27 592.14 280.86 592.14
C 206.45 592.14 145.56 591.92 145.56 591.64"/>
</g>
</svg>
