<?xml version="1.0" encoding="UTF-8" standalone="no"?>
<!DOCTYPE svg PUBLIC "-//W3C//DTD SVG 1.1//EN"
"http://www.w3.org/Graphics/SVG/1.1/DTD/svg11.dtd">
<svg width="693px" height="600px"
xmlns="http://www.w3.org/2000/svg" version="1.1">
<g transform="translate(0000, 0000) scale(1.0000, 1.0000)">
<path fill="#000000" stroke="none" d="
M 57.65 597.49
C 55.18 595.03 55.14 593.32 55.14 495.41
L 55.14 395.82
L 30.08 395.82
C -1.38 395.82 0.00 396.65 0.00 377.66
C 0.00 359.29 -0.26 359.50 22.56 359.50
L 40.10 359.50
L 40.10 348.80
L 40.10 338.12
L 34.46 332.63
L 28.82 327.16
L 28.82 251.80
C 28.82 204.55 29.29 175.59 30.06 174.14
C 31.65 171.17 39.64 168.24 50.75 166.55
C 55.58 165.81 70.52 162.45 83.96 159.09
C 122.63 149.44 125.48 149.06 159.92 149.06
C 188.81 149.06 190.62 149.20 192.99 151.57
C 195.44 154.02 195.49 155.74 195.49 241.13
C 195.49 342.29 196.83 333.19 181.96 333.19
C 177.00 333.19 172.81 333.82 171.93 334.70
C 170.98 335.65 170.43 340.46 170.43 347.85
L 170.43 359.50
L 182.10 359.50
L 193.78 359.50
L 195.86 355.15
C 198.15 350.34 206.08 343.92 213.40 340.96
C 216.92 339.53 217.94 338.52 217.31 337.05
C 214.08 329.42 216.31 324.73 225.28 320.20
C 228.54 318.56 235.34 316.28 240.41 315.14
C 248.84 313.24 318.81 305.75 347.13 303.72
C 362.11 302.64 375.89 300.11 380.90 297.53
C 385.85 294.96 391.36 287.46 397.04 275.57
C 404.33 260.25 426.48 219.32 434.20 206.83
C 444.33 190.46 455.05 177.59 462.91 172.38
C 466.62 169.92 474.65 166.23 480.76 164.19
C 489.44 161.30 492.34 159.72 494.05 156.96
C 497.03 152.18 496.82 149.51 493.18 145.87
C 490.58 143.27 488.90 142.80 482.44 142.80
C 478.23 142.80 473.70 142.22 472.37 141.51
C 469.00 139.70 466.18 133.73 466.18 128.39
C 466.18 123.16 463.41 117.14 460.49 116.02
C 459.36 115.59 456.57 115.24 454.26 115.24
C 449.64 115.24 446.13 112.55 446.13 109.01
C 446.13 107.75 448.11 101.60 450.53 95.35
C 456.30 80.39 458.66 71.06 458.66 63.17
C 458.66 34.89 476.73 12.11 506.28 3.17
C 516.62 0.04 541.04 -0.71 552.65 1.74
C 573.76 6.20 590.57 18.69 599.33 36.41
C 609.20 56.37 611.53 73.43 611.54 125.44
L 611.54 163.80
L 622.57 175.54
C 639.79 193.84 685.04 252.84 689.69 263.05
C 694.77 274.16 693.84 278.89 676.95 328.45
C 668.55 353.05 659.35 378.98 656.48 386.07
C 650.66 400.48 650.15 405.93 653.43 419.62
C 656.06 430.65 655.89 442.36 652.96 453.82
C 650.10 464.98 647.50 469.47 643.25 470.53
C 639.04 471.58 634.33 469.19 633.41 465.52
C 632.99 463.85 633.54 457.73 634.63 451.92
C 637.23 438.01 637.12 433.63 634.03 428.57
L 631.46 424.35
L 628.07 429.56
C 623.15 437.15 615.19 438.29 611.62 431.91
C 609.16 427.52 610.69 421.54 619.19 402.34
C 625.42 388.27 625.48 388.02 628.51 361.63
C 632.05 331.01 633.93 320.98 639.25 304.42
C 644.93 286.77 645.20 281.39 640.89 272.58
C 636.87 264.38 625.89 251.86 617.35 245.75
L 611.54 241.60
L 611.54 249.82
C 611.54 262.33 610.42 263.05 590.87 263.05
L 575.20 263.05
L 575.20 322.23
L 575.20 381.42
L 580.84 432.48
C 587.95 496.80 588.22 511.16 582.70 529.75
L 578.90 542.49
L 582.48 545.50
C 584.45 547.16 587.83 551.84 589.99 555.88
C 597.72 570.39 606.88 576.13 628.30 579.91
C 645.20 582.90 647.56 583.84 648.61 588.05
C 650.74 596.54 644.34 600.63 630.38 599.67
C 614.28 598.57 602.03 594.64 562.07 577.78
C 550.62 572.94 542.73 572.86 516.93 577.27
C 504.52 579.38 472.10 583.98 444.87 587.46
C 417.64 590.96 390.30 594.66 384.09 595.73
C 366.15 598.77 333.32 599.45 322.82 596.98
C 305.83 592.97 291.77 582.53 288.45 571.43
C 286.26 564.14 286.64 558.45 289.91 549.46
C 296.70 530.76 316.09 511.05 339.19 499.37
C 355.10 491.32 397.79 476.58 421.41 470.98
C 443.14 465.82 446.52 463.77 452.48 451.98
C 461.99 433.24 463.92 416.41 463.43 356.99
C 462.99 305.71 463.33 307.73 453.31 296.39
L 448.01 290.39
L 437.93 302.92
C 425.67 318.15 418.53 324.28 405.40 330.76
C 390.36 338.19 378.18 341.01 360.28 341.17
C 346.56 341.31 343.93 340.94 330.21 336.95
C 305.03 329.61 298.75 330.48 277.76 344.14
C 273.04 347.21 266.70 350.83 263.67 352.17
C 259.87 353.85 258.15 355.37 258.15 357.06
C 258.15 359.30 259.08 359.50 269.43 359.50
C 285.09 359.50 285.72 360.20 285.72 377.66
C 285.72 397.27 289.19 395.82 241.86 395.82
L 203.01 395.82
L 203.01 495.41
C 203.01 611.95 204.80 600.00 187.35 600.00
C 169.89 600.00 171.68 611.95 171.68 495.41
L 171.68 395.82
L 129.08 395.82
L 86.47 395.82
L 86.47 495.41
C 86.47 611.95 88.26 600.00 70.80 600.00
C 61.82 600.00 59.76 599.61 57.65 597.49
M 78.70 592.23
C 79.84 591.09 80.20 567.41 80.20 493.28
L 80.20 395.82
L 70.80 395.82
L 61.41 395.82
L 61.41 493.28
C 61.41 567.41 61.77 591.09 62.91 592.23
C 64.86 594.19 76.74 594.19 78.70 592.23
M 195.24 592.23
C 196.38 591.09 196.75 567.41 196.75 493.28
L 196.75 395.82
L 187.35 395.82
L 177.95 395.82
L 177.95 493.28
C 177.95 567.41 178.31 591.09 179.45 592.23
C 181.41 594.19 193.29 594.19 195.24 592.23
M 640.94 592.05
C 644.23 589.64 642.77 589.08 623.91 585.47
C 600.77 581.04 592.03 575.95 585.64 563.16
C 582.26 556.41 578.47 551.66 574.95 549.77
C 573.46 548.97 570.25 549.62 564.30 551.95
C 557.72 554.53 553.64 555.28 546.38 555.26
C 537.42 555.23 496.23 548.66 461.49 541.69
C 449.65 539.32 443.55 538.70 437.98 539.27
C 426.13 540.50 405.77 545.66 385.22 552.65
C 366.70 558.96 366.17 559.06 360.35 557.42
C 354.55 555.81 329.26 538.32 319.87 529.45
L 315.80 525.61
L 311.34 529.92
C 305.28 535.77 298.79 545.76 295.57 554.18
C 293.19 560.39 293.08 561.73 294.48 566.76
C 297.30 576.83 308.87 585.88 324.39 590.19
C 335.40 593.25 354.06 593.15 376.58 589.94
C 386.23 588.56 416.11 584.62 442.99 581.17
C 469.87 577.73 499.76 573.46 509.41 571.69
C 531.17 567.70 549.02 566.54 557.23 568.60
C 560.57 569.44 569.50 572.84 577.08 576.18
C 605.74 588.79 620.57 593.42 632.92 593.64
C 636.07 593.69 639.68 592.97 640.94 592.05
M 380.34 546.69
C 398.94 540.14 420.10 534.91 434.22 533.39
C 446.58 532.03 447.19 532.10 477.46 537.82
C 494.35 541.00 517.07 545.01 527.97 546.71
L 547.78 549.81
L 559.50 545.96
L 571.22 542.10
L 575.37 530.66
C 579.04 520.52 579.56 517.44 579.96 503.77
C 580.37 490.23 577.26 450.14 575.69 448.51
C 574.56 447.36 535.94 451.13 518.21 454.13
C 490.94 458.74 460.89 465.68 448.01 470.33
C 441.80 472.57 432.66 475.33 427.68 476.46
C 413.87 479.59 372.79 492.88 357.97 499.00
C 346.44 503.76 331.70 511.99 324.03 517.94
C 321.66 519.77 321.67 519.88 324.66 523.08
C 329.01 527.74 355.41 547.29 360.10 549.33
C 365.60 551.72 366.26 551.64 380.34 546.69
M 646.37 452.09
C 649.52 439.23 649.48 435.48 645.98 415.24
C 643.47 400.70 643.84 398.59 652.90 375.16
C 655.83 367.58 664.67 342.28 672.52 318.94
L 686.82 276.50
L 684.88 270.71
C 683.80 267.53 679.49 260.15 675.29 254.30
C 659.45 232.32 621.46 184.60 616.59 180.61
L 611.54 176.48
L 611.54 204.51
C 611.54 231.98 611.59 232.60 614.36 235.13
C 615.92 236.54 619.15 238.70 621.57 239.91
C 627.63 242.97 640.12 256.10 645.38 264.96
C 649.59 272.07 649.77 272.83 649.69 284.30
C 649.62 294.51 648.94 298.28 645.03 310.28
C 639.73 326.57 637.71 337.54 634.13 369.51
L 631.53 392.68
L 623.94 409.37
C 616.93 424.80 615.74 429.65 619.00 429.65
C 619.69 429.65 621.22 428.09 622.40 426.20
C 625.89 420.58 629.39 417.12 631.58 417.12
C 634.21 417.12 639.82 422.98 641.55 427.54
C 643.42 432.54 643.16 445.18 640.97 454.48
C 639.94 458.86 639.43 462.96 639.84 463.64
C 641.68 466.60 643.69 463.05 646.37 452.09
M 491.87 452.42
C 519.95 446.63 538.76 443.96 560.48 442.67
C 569.88 442.12 575.19 441.31 575.18 440.42
C 575.16 439.67 573.77 426.91 572.07 412.11
C 569.20 387.09 568.97 380.83 568.96 324.11
L 568.94 263.05
L 552.02 263.05
C 530.53 263.05 530.09 262.75 530.09 247.88
C 530.09 238.70 529.88 237.82 527.90 238.65
C 505.46 248.07 489.55 248.71 472.14 240.89
C 468.14 239.10 464.66 237.86 464.40 238.12
C 461.64 241.03 449.51 262.30 447.97 266.91
C 445.51 274.32 446.18 275.87 457.99 290.05
C 470.54 305.12 470.25 303.14 469.60 367.38
C 469.11 416.12 468.81 422.63 466.50 432.78
C 465.10 438.98 462.76 447.16 461.30 450.94
C 459.85 454.72 458.66 458.03 458.66 458.28
C 458.66 459.04 465.90 457.77 491.87 452.42
M 277.95 388.06
C 279.94 386.07 279.94 369.26 277.95 367.27
C 275.77 365.09 9.95 365.09 7.77 367.27
C 5.78 369.26 5.78 386.07 7.77 388.06
C 9.95 390.24 275.77 390.24 277.95 388.06
M 164.16 345.72
C 164.16 328.21 165.08 326.93 177.70 326.93
C 182.66 326.93 186.85 326.30 187.72 325.43
C 188.86 324.29 189.23 303.83 189.23 241.03
C 189.23 170.22 188.96 157.92 187.41 156.63
C 186.07 155.52 177.67 155.26 155.14 155.65
C 126.34 156.15 123.84 156.39 109.03 160.03
C 87.47 165.32 56.02 172.53 47.19 174.20
C 34.05 176.69 35.09 170.07 35.09 251.20
L 35.09 322.01
L 40.73 327.49
L 46.37 332.97
L 46.37 346.23
L 46.37 359.50
L 105.27 359.50
L 164.16 359.50
L 164.16 345.72
M 251.89 358.01
C 251.89 354.81 246.00 348.06 241.15 345.71
C 238.35 344.33 233.72 343.22 230.86 343.22
C 221.05 343.22 206.75 349.89 202.42 356.49
L 200.44 359.50
L 226.17 359.50
C 245.19 359.50 251.89 359.11 251.89 358.01
M 263.29 344.77
C 265.07 343.58 269.58 340.55 273.32 338.07
C 294.67 323.79 302.66 322.82 333.98 330.69
C 357.60 336.63 364.36 336.80 382.00 331.92
C 404.33 325.73 416.84 317.22 432.28 297.72
L 443.27 283.82
L 441.44 279.42
C 439.12 273.90 440.06 266.19 444.12 257.35
C 448.48 247.80 459.46 232.05 462.39 231.12
C 463.97 230.62 467.81 231.72 472.74 234.11
C 488.71 241.85 506.20 241.88 522.44 234.20
L 530.09 230.58
L 530.09 165.98
C 530.09 111.39 530.38 100.68 531.97 96.89
C 534.42 90.99 534.39 90.61 530.78 86.99
C 527.86 84.09 526.94 83.92 512.88 83.92
L 498.07 83.92
L 495.59 89.25
C 490.88 99.39 478.76 101.71 471.00 93.95
C 469.03 91.99 467.43 89.27 467.43 87.92
C 467.43 86.44 466.33 85.18 464.66 84.75
C 463.14 84.35 461.83 84.14 461.74 84.29
C 460.40 86.52 454.01 107.29 454.45 108.00
C 454.77 108.54 456.94 108.98 459.26 108.98
C 465.53 108.98 467.28 110.04 470.07 115.50
C 472.36 119.96 472.96 120.39 475.98 119.56
C 485.91 116.84 487.53 120.55 478.40 125.09
C 471.88 128.32 471.14 130.22 474.95 134.03
C 476.90 135.98 479.12 136.53 485.04 136.53
C 494.90 136.53 499.15 138.80 501.83 145.50
C 504.24 151.50 503.73 156.46 500.13 162.38
C 498.18 165.56 496.02 166.80 488.53 169.06
C 483.47 170.58 476.04 173.57 472.03 175.72
C 455.84 184.28 439.85 208.03 407.29 271.84
C 401.14 283.92 394.25 295.70 391.98 298.03
C 383.46 306.79 383.00 306.88 308.28 313.84
C 256.94 318.64 243.01 320.59 232.79 324.41
C 224.00 327.70 220.74 330.08 222.54 331.89
C 223.53 332.89 225.76 332.41 230.68 330.13
C 234.42 328.40 241.51 326.08 246.43 324.98
C 254.62 323.15 255.72 323.15 259.24 324.96
C 262.95 326.88 265.67 330.33 265.67 333.11
C 265.67 333.85 263.65 336.68 261.18 339.41
C 258.72 342.14 257.05 344.96 257.50 345.67
C 258.59 347.45 259.51 347.31 263.29 344.77
M 254.24 338.08
C 257.86 333.71 258.23 332.73 256.72 331.23
C 254.83 329.34 250.53 330.06 239.57 334.11
L 234.14 336.11
L 240.09 338.37
C 243.36 339.61 246.62 341.21 247.34 341.92
C 249.25 343.84 249.63 343.63 254.24 338.08
M 489.67 89.45
C 493.13 85.57 493.20 83.90 490.01 79.85
C 485.33 73.90 477.14 74.39 472.89 80.88
C 470.94 83.87 470.90 84.55 472.56 87.49
C 476.47 94.46 484.39 95.36 489.67 89.45
M 539.99 78.48
C 540.08 75.98 538.82 73.62 535.85 70.65
L 531.59 66.39
L 498.97 66.39
C 462.88 66.39 466.15 65.60 464.32 74.68
C 463.24 80.09 466.29 81.07 469.74 76.42
C 475.19 69.03 487.09 68.71 493.72 75.76
C 496.60 78.83 497.16 78.91 513.57 78.91
L 530.44 78.91
L 534.34 83.11
C 538.03 87.09 538.27 87.18 539.05 84.68
C 539.50 83.24 539.93 80.44 539.99 78.48"/>
<path fill="#ae3c2a" stroke="none" d="
M 619.31 591.82
C 610.30 589.87 597.00 584.94 577.08 576.18
C 569.50 572.84 560.57 569.44 557.23 568.60
C 549.02 566.54 531.17 567.70 509.41 571.69
C 499.76 573.46 469.87 577.73 442.99 581.17
C 416.11 584.62 386.23 588.56 376.58 589.94
C 354.06 593.15 335.40 593.25 324.39 590.19
C 308.87 585.88 297.30 576.83 294.48 566.76
C 293.08 561.73 293.19 560.39 295.57 554.18
C 298.79 545.76 305.28 535.77 311.34 529.92
L 315.80 525.61
L 319.87 529.45
C 329.26 538.32 354.55 555.81 360.35 557.42
C 366.17 559.06 366.70 558.96 385.22 552.65
C 405.77 545.66 426.13 540.50 437.98 539.27
C 443.55 538.70 449.65 539.32 461.49 541.69
C 496.23 548.66 537.42 555.23 546.38 555.26
C 553.64 555.28 557.72 554.53 564.30 551.95
C 570.25 549.62 573.46 548.97 574.95 549.77
C 578.47 551.66 582.26 556.41 585.64 563.16
C 592.03 575.95 600.77 581.04 623.91 585.47
C 642.77 589.08 644.23 589.64 640.94 592.05
C 638.06 594.15 629.63 594.06 619.31 591.82"/>
<path fill="#ae3c2a" stroke="none" d="
M 639.84 463.64
C 639.43 462.96 639.94 458.86 640.97 454.48
C 643.16 445.18 643.42 432.54 641.55 427.54
C 639.82 422.98 634.21 417.12 631.58 417.12
C 629.39 417.12 625.89 420.58 622.40 426.20
C 621.22 428.09 619.69 429.65 619.00 429.65
C 615.74 429.65 616.93 424.80 623.94 409.37
L 631.53 392.68
L 634.13 369.51
C 637.71 337.54 639.73 326.57 645.03 310.28
C 648.94 298.28 649.62 294.51 649.69 284.30
C 649.77 272.83 649.59 272.07 645.38 264.96
C 640.12 256.10 627.63 242.97 621.57 239.91
C 619.15 238.70 615.92 236.54 614.36 235.13
C 611.59 232.60 611.54 231.98 611.54 204.51
L 611.54 176.48
L 616.59 180.61
C 621.46 184.60 659.45 232.32 675.29 254.30
C 679.49 260.15 683.80 267.53 684.88 270.71
L 686.82 276.50
L 672.52 318.94
C 664.67 342.28 655.83 367.58 652.90 375.16
C 643.84 398.59 643.47 400.70 645.98 415.24
C 649.48 435.48 649.52 439.23 646.37 452.09
C 643.69 463.05 641.68 466.60 639.84 463.64"/>
<path fill="#ae3c2a" stroke="none" d="
M 257.50 345.67
C 257.05 344.96 258.72 342.14 261.18 339.41
C 263.65 336.68 265.67 333.85 265.67 333.11
C 265.67 330.33 262.95 326.88 259.24 324.96
C 255.72 323.15 254.62 323.15 246.43 324.98
C 241.51 326.08 234.42 328.40 230.68 330.13
C 225.76 332.41 223.53 332.89 222.54 331.89
C 220.74 330.08 224.00 327.70 232.79 324.41
C 243.01 320.59 256.94 318.64 308.28 313.84
C 383.00 306.88 383.46 306.79 391.98 298.03
C 394.25 295.70 401.14 283.92 407.29 271.84
C 439.85 208.03 455.84 184.28 472.03 175.72
C 476.04 173.57 483.47 170.58 488.53 169.06
C 496.02 166.80 498.18 165.56 500.13 162.38
C 503.73 156.46 504.24 151.50 501.83 145.50
C 499.15 138.80 494.90 136.53 485.04 136.53
C 479.12 136.53 476.90 135.98 474.95 134.03
C 471.14 130.22 471.88 128.32 478.40 125.09
C 487.53 120.55 485.91 116.84 475.98 119.56
C 472.96 120.39 472.36 119.96 470.07 115.50
C 467.28 110.04 465.53 108.98 459.26 108.98
C 456.94 108.98 454.77 108.54 454.45 108.00
C 454.01 107.29 460.40 86.52 461.74 84.29
C 461.83 84.14 463.14 84.35 464.66 84.75
C 466.33 85.18 467.43 86.44 467.43 87.92
C 467.43 89.27 469.03 91.99 471.00 93.95
C 478.76 101.71 490.88 99.39 495.59 89.25
L 498.07 83.92
L 512.88 83.92
C 526.94 83.92 527.86 84.09 530.78 86.99
C 534.39 90.61 534.42 90.99 531.97 96.89
C 530.38 100.68 530.09 111.39 530.09 165.98
L 530.09 230.58
L 522.44 234.20
C 506.20 241.88 488.71 241.85 472.74 234.11
C 467.81 231.72 463.97 230.62 462.39 231.12
C 459.46 232.05 448.48 247.80 444.12 257.35
C 440.06 266.19 439.12 273.90 441.44 279.42
L 443.27 283.82
L 432.28 297.72
C 416.84 317.22 404.33 325.73 382.00 331.92
C 364.36 336.80 357.60 336.63 333.98 330.69
C 302.66 322.82 294.67 323.79 273.32 338.07
C 269.58 340.55 265.07 343.58 263.29 344.77
C 259.51 347.31 258.59 347.45 257.50 345.67"/>
<path fill="#ae3c2a" stroke="none" d="
M 534.34 83.11
L 530.44 78.91
L 513.57 78.91
C 497.16 78.91 496.60 78.83 493.72 75.76
C 487.09 68.71 475.19 69.03 469.74 76.42
C 466.13 81.29 463.36 80.07 464.44 74.07
C 464.89 71.57 465.81 68.82 466.49 67.95
C 467.43 66.78 475.63 66.39 499.66 66.39
L 531.59 66.39
L 535.85 70.65
C 540.14 74.93 540.95 78.51 539.05 84.68
C 538.27 87.18 538.03 87.09 534.34 83.11"/>
<path fill="#fefefe" stroke="none" d="
M 477.84 92.71
C 474.12 91.18 470.81 85.84 471.74 82.90
C 473.02 78.89 477.04 76.17 481.92 76.03
C 485.51 75.93 487.22 76.67 489.52 79.35
C 493.22 83.65 493.25 85.45 489.67 89.45
C 486.44 93.07 481.80 94.35 477.84 92.71"/>
<path fill="#f4d2c9" stroke="none" d="
M 46.37 346.23
L 46.37 332.97
L 40.73 327.49
L 35.09 322.01
L 35.09 251.20
C 35.09 170.07 34.05 176.69 47.19 174.20
C 55.80 172.57 86.83 165.47 109.03 160.05
C 123.78 156.45 126.47 156.19 155.13 155.66
C 177.86 155.24 186.03 155.47 187.40 156.61
C 188.96 157.92 189.23 169.82 189.23 241.03
C 189.23 303.83 188.86 324.29 187.72 325.43
C 186.85 326.30 182.66 326.93 177.70 326.93
C 165.08 326.93 164.16 328.21 164.16 345.72
L 164.16 359.50
L 105.27 359.50
L 46.37 359.50
L 46.37 346.23"/>
<path fill="#ffbf53" stroke="none" d="
M 360.10 549.33
C 355.41 547.29 329.01 527.74 324.66 523.08
C 321.67 519.88 321.66 519.77 324.03 517.94
C 331.70 511.99 346.44 503.76 357.97 499.00
C 372.79 492.88 413.87 479.59 427.68 476.46
C 432.66 475.33 441.80 472.57 448.01 470.33
C 460.89 465.68 490.94 458.74 518.21 454.13
C 535.94 451.13 574.56 447.36 575.69 448.51
C 577.26 450.14 580.37 490.23 579.96 503.77
C 579.56 517.44 579.04 520.52 575.37 530.66
L 571.22 542.10
L 559.50 545.96
L 547.78 549.81
L 527.97 546.71
C 517.07 545.01 494.35 541.00 477.46 537.82
C 447.19 532.10 446.58 532.03 434.22 533.39
C 420.10 534.91 398.94 540.14 380.34 546.69
C 366.26 551.64 365.60 551.72 360.10 549.33"/>
<path fill="#ffbf53" stroke="none" d="
M 458.66 458.28
C 458.66 458.03 459.85 454.72 461.30 450.94
C 462.76 447.16 465.10 438.98 466.50 432.78
C 468.81 422.63 469.11 416.12 469.60 367.38
C 470.25 303.09 470.55 305.14 457.92 289.98
C 446.05 275.75 445.32 273.95 448.36 265.95
C 450.90 259.27 461.37 241.68 464.20 239.34
C 465.40 238.33 467.59 238.78 472.58 241.06
C 489.30 248.71 505.64 247.99 527.90 238.65
C 529.88 237.82 530.09 238.70 530.09 247.88
C 530.09 262.75 530.53 263.05 552.02 263.05
L 568.94 263.05
L 568.96 324.11
C 568.97 380.83 569.20 387.09 572.07 412.11
C 573.77 426.91 575.16 439.67 575.18 440.42
C 575.19 441.31 569.88 442.12 560.48 442.67
C 538.76 443.96 519.95 446.63 491.87 452.42
C 465.90 457.77 458.66 459.04 458.66 458.28"/>
<path fill="#8c8583" stroke="none" d="
M 202.42 356.49
C 206.51 350.27 217.52 344.74 228.09 343.64
C 234.00 343.03 236.38 343.38 240.81 345.53
C 245.95 348.04 251.89 354.74 251.89 358.01
C 251.89 359.11 245.19 359.50 226.17 359.50
L 200.44 359.50
L 202.42 356.49"/>
<path fill="#c55436" stroke="none" d="
M 62.91 592.23
C 61.77 591.09 61.41 567.41 61.41 493.28
L 61.41 395.82
L 70.80 395.82
L 80.20 395.82
L 80.20 493.28
C 80.20 567.41 79.84 591.09 78.70 592.23
C 76.74 594.19 64.86 594.19 62.91 592.23"/>
<path fill="#c55436" stroke="none" d="
M 179.45 592.23
C 178.31 591.09 177.95 567.41 177.95 493.28
L 177.95 395.82
L 187.35 395.82
L 196.75 395.82
L 196.75 493.28
C 196.75 567.41 196.38 591.09 195.24 592.23
C 193.29 594.19 181.41 594.19 179.45 592.23"/>
<path fill="#c55436" stroke="none" d="
M 7.77 388.06
C 6.88 387.17 6.27 382.86 6.27 377.46
C 6.27 369.75 6.63 368.15 8.68 367.06
C 12.41 365.07 275.96 365.27 277.95 367.27
C 279.94 369.26 279.94 386.07 277.95 388.06
C 275.77 390.24 9.95 390.24 7.77 388.06"/>
</g>
</svg>
