<?xml version="1.0" encoding="UTF-8" standalone="no"?>
<!DOCTYPE svg PUBLIC "-//W3C//DTD SVG 1.1//EN"
"http://www.w3.org/Graphics/SVG/1.1/DTD/svg11.dtd">
<svg width="380px" height="600px"
xmlns="http://www.w3.org/2000/svg" version="1.1">
<g transform="translate(0000, 0000) scale(1.0000, 1.0000)">
<path fill="#000000" stroke="none" d="
M 29.91 597.99
C 28.34 596.90 27.05 595.21 27.05 594.24
C 27.05 593.28 34.15 586.58 42.83 579.37
C 51.51 572.15 59.38 564.81 60.32 563.06
C 61.68 560.54 61.74 558.08 60.62 551.29
C 57.58 532.64 56.57 511.84 55.83 451.29
C 55.03 386.91 56.06 355.00 59.92 325.34
C 62.37 306.48 65.44 300.14 77.12 289.75
C 82.21 285.24 86.69 280.22 87.10 278.60
C 88.08 274.71 84.28 263.51 80.42 258.93
C 74.42 251.79 65.69 236.33 60.99 224.45
C 58.37 217.82 55.87 212.55 55.44 212.74
C 55.02 212.94 51.51 214.25 47.65 215.67
C 38.50 219.01 31.77 225.73 29.83 233.41
C 28.74 237.76 28.34 285.39 28.34 411.94
C 28.34 582.84 28.31 584.58 25.76 587.12
C 24.35 588.54 21.73 589.70 19.97 589.70
C 18.19 589.70 15.59 588.54 14.17 587.12
C 11.62 584.58 11.59 582.84 11.59 405.64
C 11.59 283.47 12.03 224.70 12.97 220.31
C 15.19 209.96 21.60 203.83 36.70 197.64
C 43.59 194.81 49.50 191.81 49.84 190.98
C 50.82 188.50 42.96 160.76 33.30 132.62
C -0.05 35.41 0.00 35.60 0.00 27.97
C 0.00 18.86 2.23 13.20 7.59 8.68
C 15.55 1.98 26.32 2.69 40.01 10.82
L 47.18 15.05
L 53.21 8.87
C 59.27 2.67 65.09 0.03 72.69 0.01
C 78.01 0.00 87.09 4.69 90.21 9.06
C 93.21 13.27 113.41 55.70 130.04 92.70
C 136.23 106.51 147.31 130.56 154.64 146.14
C 164.89 167.91 167.90 175.51 167.64 178.97
C 167.46 181.45 167.21 188.69 167.10 195.06
C 166.89 206.15 167.15 207.30 172.97 221.50
C 176.31 229.67 179.05 237.93 179.05 239.85
C 179.05 243.95 174.99 248.50 171.32 248.50
C 166.45 248.50 163.59 253.00 163.59 260.68
C 163.59 273.98 169.75 285.05 180.02 290.23
C 184.86 292.67 185.07 293.50 181.85 297.48
C 178.95 301.06 175.35 300.42 167.84 294.98
C 164.29 292.40 161.47 288.75 159.11 283.67
C 157.20 279.55 155.19 275.32 154.65 274.26
C 153.25 271.53 145.13 269.92 139.47 271.26
C 132.88 272.82 129.91 277.91 132.68 282.85
C 133.75 284.74 137.42 287.69 140.84 289.40
C 154.22 296.07 164.56 312.09 168.06 331.55
C 169.69 340.57 172.46 380.07 174.57 424.25
C 175.87 451.49 178.16 480.91 179.06 481.94
C 179.57 482.51 182.77 478.45 186.20 472.93
C 196.58 456.17 230.42 405.70 239.62 393.27
C 251.38 377.36 262.83 365.39 269.83 361.69
C 273.03 359.97 275.66 357.93 275.66 357.13
C 275.66 356.32 273.37 346.17 270.57 334.58
C 267.78 323.00 265.12 310.04 264.67 305.79
C 263.94 299.02 264.21 297.52 266.86 293.63
C 268.51 291.19 271.77 288.09 274.09 286.73
C 277.76 284.59 278.83 284.48 282.27 285.90
C 284.45 286.80 288.57 289.49 291.43 291.89
C 294.29 294.28 297.22 296.03 297.95 295.79
C 301.36 294.66 320.75 258.80 325.98 243.97
C 331.13 229.34 330.50 203.86 324.57 186.93
C 323.24 183.15 318.65 174.06 314.36 166.71
C 305.16 150.99 304.24 147.64 307.68 142.13
C 310.48 137.67 319.69 132.62 325.06 132.62
C 337.00 132.62 348.47 145.48 363.72 175.94
C 367.56 183.63 372.61 195.13 374.94 201.50
C 378.91 212.38 379.18 214.16 379.27 230.47
L 379.36 247.85
L 372.50 269.74
C 365.33 292.67 363.16 297.42 359.97 297.42
C 358.91 297.42 354.10 295.44 349.29 293.02
C 338.48 287.59 333.03 286.49 326.04 288.37
C 320.58 289.84 315.09 294.03 315.84 296.15
C 316.06 296.78 319.42 299.52 323.32 302.23
C 339.72 313.64 338.21 325.25 319.46 332.09
C 309.54 335.70 297.35 346.65 294.27 354.72
C 292.36 359.74 292.30 361.36 293.81 368.96
C 295.29 376.43 295.23 378.86 293.35 388.02
C 291.39 397.55 291.36 399.12 293.14 404.95
C 295.33 412.08 294.70 422.65 291.52 432.62
C 290.50 435.81 282.49 466.78 273.72 501.45
C 261.43 550.00 258.09 564.89 259.22 566.25
C 260.04 567.23 271.96 573.62 285.72 580.45
C 299.49 587.29 311.03 593.63 311.38 594.53
C 311.73 595.43 311.30 597.03 310.43 598.08
C 309.04 599.76 291.40 600.00 170.81 600.00
C 47.96 600.00 32.46 599.78 29.91 597.99
M 289.08 592.60
C 289.62 592.07 281.74 587.58 271.59 582.62
C 250.18 572.18 248.29 570.21 250.95 561.13
C 252.63 555.39 283.49 435.33 286.80 421.65
C 288.59 414.28 288.53 413.50 285.71 405.63
C 283.27 398.81 281.56 396.39 276.01 391.87
C 267.28 384.76 261.72 383.64 255.55 387.72
C 249.91 391.48 235.23 411.84 209.40 451.75
C 187.64 485.36 183.51 490.56 178.55 490.56
C 171.75 490.56 171.64 489.99 168.77 434.55
C 165.82 377.46 163.35 342.68 161.65 334.43
C 160.24 327.59 153.84 310.30 152.71 310.30
C 152.58 310.30 149.57 311.70 146.00 313.43
C 138.01 317.28 122.40 320.61 112.44 320.58
C 102.08 320.55 88.69 317.50 78.96 312.94
L 70.74 309.10
L 69.59 312.15
C 67.79 316.88 65.94 328.70 64.14 347.00
C 62.99 358.52 62.50 386.01 62.55 435.19
C 62.62 507.91 63.78 533.36 67.85 551.50
C 69.96 560.94 69.47 566.81 66.20 571.48
C 65.06 573.10 58.69 578.45 52.03 583.36
C 45.38 588.27 39.93 592.58 39.93 592.93
C 39.93 593.97 288.03 593.64 289.08 592.60
M 23.19 407.92
C 23.19 280.51 23.59 232.61 24.68 228.26
C 26.63 220.52 33.05 214.35 43.69 210.01
C 52.62 206.38 53.73 205.17 51.22 201.76
C 49.71 199.70 48.94 199.82 39.93 203.50
C 27.51 208.57 20.16 215.97 18.14 225.40
C 16.08 235.03 16.19 580.91 18.27 582.98
C 23.20 587.91 23.19 588.46 23.19 407.92
M 287.36 382.57
C 288.62 378.35 288.45 376.97 286.12 372.41
C 284.64 369.52 282.31 366.79 280.93 366.35
C 277.48 365.25 270.60 368.42 266.12 373.20
C 262.65 376.88 262.56 377.24 264.83 377.96
C 270.96 379.91 279.72 384.33 281.63 386.46
C 284.33 389.43 285.55 388.61 287.36 382.57
M 295.74 336.04
C 302.81 329.24 314.81 321.94 318.94 321.90
C 319.72 321.89 321.35 320.78 322.57 319.42
C 325.61 316.07 323.82 313.00 315.84 307.88
C 308.79 303.36 306.87 303.04 303.28 305.76
C 299.30 308.77 297.19 308.12 288.67 301.29
C 284.25 297.75 280.12 294.85 279.49 294.85
C 277.55 294.85 275.66 299.56 275.66 304.40
C 275.66 308.30 281.12 337.39 282.76 342.17
C 283.88 345.46 287.90 343.56 295.74 336.04
M 128.90 313.61
C 133.55 312.63 140.11 310.53 143.47 308.95
L 149.57 306.09
L 146.10 302.47
C 144.19 300.48 139.52 297.37 135.71 295.57
C 128.30 292.07 123.65 286.30 123.70 280.69
C 123.71 278.91 124.82 275.03 126.17 272.07
C 128.25 267.50 129.47 266.45 134.19 265.17
C 137.25 264.35 142.76 263.97 146.42 264.35
C 151.09 264.82 153.79 264.48 155.44 263.20
C 157.63 261.50 157.64 261.26 155.63 259.76
C 154.45 258.88 151.65 257.14 149.41 255.90
C 147.18 254.67 145.60 252.93 145.91 252.04
C 146.53 250.31 148.07 250.24 153.55 251.69
C 156.65 252.52 157.22 252.12 158.96 247.96
C 160.41 244.47 161.88 243.12 164.79 242.52
C 171.86 241.12 172.06 239.45 166.71 225.97
C 164.03 219.21 161.22 213.18 160.46 212.58
C 159.70 211.98 150.83 211.18 140.74 210.81
L 122.40 210.12
L 116.91 213.84
C 110.65 218.07 107.17 218.46 101.56 215.55
C 94.92 212.12 94.37 214.94 99.66 225.17
C 103.48 232.52 104.34 235.58 104.33 241.67
C 104.33 249.94 102.30 254.06 95.44 259.84
L 91.32 263.30
L 93.31 268.94
C 94.42 272.03 95.32 275.47 95.32 276.58
C 95.32 281.59 89.71 289.61 81.72 296.01
C 72.08 303.72 72.15 304.47 82.69 308.99
C 97.02 315.17 113.72 316.83 128.90 313.61
M 363.61 265.13
C 366.99 254.21 370.11 242.05 370.53 238.09
C 373.20 213.18 347.00 153.09 329.30 143.58
C 325.55 141.55 324.21 141.40 321.45 142.65
C 319.63 143.48 317.51 145.53 316.75 147.21
C 315.58 149.78 316.04 151.29 319.82 157.20
C 332.91 177.68 338.52 194.24 339.67 215.67
C 340.57 232.62 338.01 244.76 329.79 262.61
C 326.94 268.79 324.61 274.43 324.61 275.15
C 324.61 275.87 327.99 276.77 332.11 277.15
C 336.81 277.57 342.44 279.27 347.24 281.72
C 351.44 283.85 355.46 285.48 356.17 285.30
C 356.88 285.13 360.23 276.05 363.61 265.13
M 95.22 248.97
C 99.16 243.98 98.53 239.01 92.58 228.24
C 87.54 219.13 87.35 218.36 88.77 213.62
C 91.03 206.07 97.14 203.90 104.29 208.11
C 107.68 210.12 108.04 210.08 112.02 207.14
C 116.02 204.21 116.95 204.09 134.76 204.44
C 153.13 204.79 153.38 204.76 156.60 201.53
C 159.45 198.68 159.81 197.36 159.47 190.88
L 159.08 183.48
L 108.49 183.14
C 65.13 182.85 57.80 183.08 57.18 184.69
C 56.30 186.97 61.78 206.41 67.11 219.94
C 71.34 230.67 79.18 244.66 84.48 250.96
C 88.22 255.42 90.48 255.00 95.22 248.97
M 100.47 174.54
C 100.47 174.23 92.01 151.20 81.67 123.36
C 71.31 95.52 59.18 62.10 54.69 49.09
C 49.85 35.07 45.34 24.17 43.60 22.33
C 39.78 18.26 25.30 11.16 20.82 11.16
C 13.27 11.16 6.44 19.20 6.44 28.07
C 6.44 30.10 12.28 48.80 19.41 69.63
C 37.88 123.54 49.75 159.13 52.13 167.70
L 54.18 175.11
L 77.33 175.11
C 90.05 175.11 100.47 174.85 100.47 174.54
M 157.80 173.83
C 158.22 173.12 152.98 160.52 146.13 145.83
C 139.27 131.12 130.32 111.57 126.22 102.36
C 112.58 71.65 87.62 19.11 84.81 15.15
C 83.28 13.02 79.53 10.16 76.48 8.81
C 70.98 6.37 70.86 6.37 65.85 8.94
C 60.39 11.72 55.75 16.79 54.64 21.18
C 54.27 22.69 55.38 28.24 57.12 33.53
C 59.56 40.94 101.21 153.81 108.06 171.57
L 109.43 175.11
L 133.22 175.11
C 147.57 175.11 157.32 174.61 157.80 173.83"/>
<path fill="#000000" stroke="none" d="
M 135.55 232.75
C 132.33 231.21 130.72 226.88 131.94 223.03
C 133.50 218.12 144.35 215.92 151.33 219.10
C 157.26 221.81 157.23 230.14 151.27 232.85
C 147.25 234.68 139.45 234.63 135.55 232.75
M 141.24 229.40
C 138.60 226.48 138.56 224.81 141.08 222.72
C 143.87 220.40 142.61 219.81 138.71 221.59
C 133.27 224.06 133.18 227.23 138.47 230.23
C 142.36 232.43 143.64 232.04 141.24 229.40"/>
<path fill="#ffbf53" stroke="none" d="
M 39.93 592.93
C 39.93 592.58 45.38 588.27 52.03 583.36
C 58.69 578.45 65.06 573.10 66.20 571.48
C 69.47 566.81 69.96 560.94 67.85 551.50
C 63.78 533.36 62.62 507.91 62.55 435.19
C 62.50 386.01 62.99 358.52 64.14 347.00
C 65.94 328.70 67.79 316.88 69.59 312.15
L 70.74 309.10
L 78.96 312.94
C 88.69 317.50 102.08 320.55 112.44 320.58
C 122.40 320.61 138.01 317.28 146.00 313.43
C 149.57 311.70 152.58 310.30 152.71 310.30
C 153.84 310.30 160.24 327.59 161.65 334.43
C 163.35 342.68 165.82 377.46 168.77 434.55
C 171.64 489.99 171.75 490.56 178.55 490.56
C 183.51 490.56 187.64 485.36 209.40 451.75
C 235.23 411.84 249.91 391.48 255.55 387.72
C 261.72 383.64 267.28 384.76 276.01 391.87
C 281.56 396.39 283.27 398.81 285.71 405.63
C 288.53 413.50 288.59 414.28 286.80 421.65
C 283.49 435.33 252.63 555.39 250.95 561.13
C 248.29 570.21 250.18 572.18 271.59 582.62
C 281.74 587.58 289.62 592.07 289.08 592.60
C 288.03 593.64 39.93 593.97 39.93 592.93"/>
<path fill="#ffbf53" stroke="none" d="
M 52.13 167.70
C 49.75 159.13 37.88 123.54 19.41 69.63
C 12.28 48.80 6.44 30.10 6.44 28.07
C 6.44 19.20 13.27 11.16 20.82 11.16
C 25.30 11.16 39.78 18.26 43.60 22.33
C 45.34 24.17 49.85 35.07 54.69 49.09
C 59.18 62.10 71.31 95.52 81.67 123.36
C 92.01 151.20 100.47 174.23 100.47 174.54
C 100.47 174.85 90.05 175.11 77.33 175.11
L 54.18 175.11
L 52.13 167.70"/>
<path fill="#ffbf53" stroke="none" d="
M 108.06 171.57
C 101.21 153.81 59.56 40.94 57.12 33.53
C 55.38 28.22 54.29 22.60 54.71 20.96
C 55.78 16.67 61.77 10.62 67.05 8.47
C 71.17 6.80 72.14 6.85 76.84 8.95
C 79.71 10.24 83.29 13.03 84.82 15.17
C 87.62 19.11 112.60 71.69 126.22 102.36
C 130.32 111.57 139.27 131.12 146.13 145.83
C 152.98 160.52 158.22 173.12 157.80 173.83
C 157.32 174.61 147.57 175.11 133.22 175.11
L 109.43 175.11
L 108.06 171.57"/>
<path fill="#fd7b7a" stroke="none" d="
M 347.24 281.72
C 342.44 279.27 336.81 277.57 332.11 277.15
C 327.99 276.77 324.61 275.87 324.61 275.15
C 324.61 274.43 326.94 268.79 329.79 262.61
C 338.01 244.76 340.57 232.62 339.67 215.67
C 338.52 194.24 332.91 177.68 319.82 157.20
C 316.03 151.29 315.57 149.78 316.75 147.19
C 318.93 142.42 324.35 140.95 329.54 143.72
C 346.97 153.04 373.19 213.37 370.53 238.09
C 369.60 246.71 358.00 284.86 356.17 285.30
C 355.46 285.48 351.44 283.85 347.24 281.72"/>
<path fill="#ff0000" stroke="none" d="
M 18.27 582.98
C 16.19 580.91 16.08 235.03 18.14 225.40
C 20.16 215.97 27.51 208.57 39.93 203.50
C 48.94 199.82 49.71 199.70 51.22 201.76
C 53.73 205.17 52.62 206.38 43.69 210.01
C 33.05 214.35 26.63 220.52 24.68 228.26
C 23.59 232.61 23.19 280.51 23.19 407.92
C 23.19 588.46 23.20 587.91 18.27 582.98"/>
<path fill="#ff0000" stroke="none" d="
M 84.48 250.96
C 75.27 240.03 65.22 218.20 59.14 195.93
C 56.65 186.79 56.48 185.02 58.06 184.03
C 59.10 183.36 81.27 182.99 109.49 183.17
L 159.08 183.48
L 159.47 190.88
C 159.81 197.36 159.45 198.68 156.60 201.53
C 153.38 204.76 153.13 204.79 134.76 204.44
C 116.95 204.09 116.02 204.21 112.02 207.14
C 108.04 210.08 107.68 210.12 104.29 208.11
C 97.14 203.90 91.03 206.07 88.77 213.62
C 87.35 218.36 87.54 219.13 92.58 228.24
C 98.53 239.01 99.16 243.98 95.22 248.97
C 90.48 255.00 88.22 255.42 84.48 250.96"/>
<path fill="#ae3c2a" stroke="none" d="
M 281.63 386.46
C 279.72 384.33 270.96 379.91 264.83 377.96
C 262.56 377.24 262.65 376.88 266.12 373.20
C 270.60 368.42 277.48 365.25 280.93 366.35
C 282.31 366.79 284.64 369.52 286.12 372.41
C 288.45 376.97 288.62 378.35 287.36 382.57
C 285.55 388.61 284.33 389.43 281.63 386.46"/>
<path fill="#ae3c2a" stroke="none" d="
M 97.13 313.53
C 88.20 311.60 76.76 306.98 74.67 304.47
C 73.59 303.15 75.18 301.25 81.72 296.01
C 89.71 289.61 95.32 281.59 95.32 276.58
C 95.32 275.47 94.42 272.03 93.31 268.94
L 91.32 263.30
L 95.44 259.84
C 102.30 254.06 104.33 249.94 104.33 241.67
C 104.34 235.58 103.48 232.52 99.66 225.17
C 94.37 214.94 94.92 212.12 101.56 215.55
C 107.15 218.45 110.55 218.11 116.40 214.06
C 121.50 210.53 121.59 210.52 140.30 210.95
C 150.63 211.18 159.70 211.91 160.46 212.52
C 161.22 213.15 164.03 219.21 166.71 225.97
C 172.06 239.45 171.86 241.12 164.79 242.52
C 161.88 243.12 160.41 244.47 158.96 247.96
C 157.22 252.12 156.65 252.52 153.55 251.69
C 148.07 250.24 146.53 250.31 145.91 252.04
C 145.60 252.93 147.18 254.67 149.41 255.90
C 151.65 257.14 154.45 258.88 155.63 259.76
C 157.64 261.26 157.63 261.50 155.44 263.20
C 153.79 264.48 151.09 264.82 146.42 264.35
C 142.76 263.97 137.25 264.35 134.19 265.17
C 129.47 266.45 128.25 267.50 126.17 272.07
C 124.82 275.03 123.71 278.91 123.70 280.69
C 123.65 286.30 128.30 292.07 135.71 295.57
C 139.52 297.37 144.19 300.48 146.10 302.47
L 149.57 306.09
L 143.47 308.95
C 130.42 315.08 112.42 316.87 97.13 313.53
M 151.27 232.85
C 157.23 230.14 157.26 221.81 151.33 219.10
C 144.35 215.92 133.50 218.12 131.94 223.03
C 130.72 226.88 132.33 231.21 135.55 232.75
C 139.45 234.63 147.25 234.68 151.27 232.85"/>
<path fill="#fefefe" stroke="none" d="
M 138.47 230.23
C 132.94 227.07 133.31 223.67 139.43 221.55
C 143.21 220.22 143.29 220.26 141.26 222.53
C 138.59 225.48 138.58 226.45 141.24 229.40
C 143.64 232.04 142.36 232.43 138.47 230.23"/>
<path fill="#ec4b43" stroke="none" d="
M 282.76 342.17
C 281.03 337.11 275.66 308.19 275.66 303.94
C 275.66 299.77 278.11 294.85 280.18 294.85
C 280.43 294.85 284.25 297.75 288.67 301.29
C 297.19 308.12 299.30 308.77 303.28 305.76
C 306.87 303.04 308.79 303.36 315.84 307.88
C 323.82 313.00 325.61 316.07 322.57 319.42
C 321.35 320.78 319.72 321.89 318.94 321.90
C 314.81 321.94 302.81 329.24 295.74 336.04
C 287.90 343.56 283.88 345.46 282.76 342.17"/>
</g>
</svg>
