<?xml version="1.0" encoding="UTF-8" standalone="no"?>
<!DOCTYPE svg PUBLIC "-//W3C//DTD SVG 1.1//EN"
"http://www.w3.org/Graphics/SVG/1.1/DTD/svg11.dtd">
<svg width="285px" height="600px"
xmlns="http://www.w3.org/2000/svg" version="1.1">
<g transform="translate(0000, 0000) scale(1.0000, 1.0000)">
<path fill="#000000" stroke="none" d="
M 255.43 598.07
C 243.94 595.48 230.00 588.59 222.08 581.58
C 218.02 577.97 213.63 575.33 210.82 574.80
C 204.89 573.70 189.75 575.61 143.79 583.31
C 30.18 602.34 17.49 602.64 4.63 586.69
C 0.86 582.01 0.64 581.12 0.64 570.59
C 0.64 561.36 1.19 558.33 3.82 553.00
C 10.34 539.74 29.18 525.71 63.23 508.74
C 81.62 499.58 112.19 488.15 123.94 486.03
L 128.60 485.19
L 130.07 474.67
C 130.88 468.89 132.94 458.37 134.67 451.29
C 143.07 416.60 143.40 407.50 137.79 365.67
C 133.85 336.33 133.50 288.85 137.16 281.97
C 142.27 272.41 146.97 269.23 158.93 267.22
C 164.58 266.28 166.90 262.92 165.70 257.42
C 164.66 252.68 161.73 251.07 154.20 251.07
C 145.87 251.07 143.14 248.06 143.14 238.84
C 143.14 230.60 140.26 226.61 134.29 226.61
C 129.50 226.61 123.80 222.10 123.80 218.32
C 123.80 216.68 126.44 209.34 129.68 201.99
C 132.92 194.64 137.32 183.86 139.47 178.03
C 145.57 161.46 154.52 149.29 166.37 141.44
C 173.31 136.83 163.88 133.98 141.60 133.93
C 116.10 133.88 107.20 130.21 102.45 117.80
C 98.22 106.71 101.76 105.68 117.59 113.38
C 129.49 119.18 128.73 119.12 151.20 115.17
C 164.75 112.79 165.30 112.79 174.42 115.13
C 179.56 116.45 184.64 117.82 185.70 118.18
C 190.60 119.87 179.67 110.78 173.72 108.23
C 158.76 101.82 158.07 101.32 156.09 95.64
C 153.76 88.89 155.02 81.95 163.29 56.18
C 166.43 46.36 168.70 37.34 168.32 36.13
C 167.93 34.92 165.33 32.65 162.53 31.08
C 152.17 25.26 149.49 17.27 155.10 8.88
C 158.93 3.15 165.45 0.00 173.45 0.01
C 180.68 0.01 185.57 2.59 191.10 9.31
L 194.57 13.52
L 200.13 8.20
C 207.41 1.24 210.05 0.00 217.67 0.00
C 225.36 0.00 231.74 3.80 235.03 10.33
C 238.99 18.21 238.08 22.48 230.85 30.12
L 224.43 36.90
L 231.49 65.39
C 235.39 81.06 238.57 95.23 238.57 96.88
C 238.57 102.41 235.32 105.13 226.70 106.80
C 216.92 108.71 207.33 112.65 204.30 116.00
C 201.38 119.21 203.29 119.10 211.00 115.60
C 216.38 113.16 218.99 112.82 228.90 113.25
C 255.15 114.40 260.45 113.94 271.37 109.57
C 285.31 103.98 287.79 105.39 282.46 115.82
C 277.44 125.63 270.74 128.37 240.16 133.13
C 221.45 136.06 215.77 137.90 217.40 140.52
C 217.80 141.17 221.45 143.36 225.51 145.40
C 234.50 149.94 240.59 155.83 244.22 163.52
C 248.29 172.11 248.13 195.08 243.93 208.58
C 239.40 223.12 232.66 235.03 225.56 241.00
C 220.84 244.97 219.22 247.31 218.59 251.10
C 217.35 258.42 219.33 260.91 228.50 263.47
C 238.06 266.15 245.36 272.69 247.77 280.76
C 250.16 288.71 247.59 315.04 239.98 360.52
C 229.23 424.73 228.99 431.21 235.97 471.24
C 241.63 503.70 242.16 514.42 238.74 527.54
C 237.23 533.37 236.00 540.03 236.00 542.34
C 236.00 550.36 248.20 571.21 256.87 578.03
C 258.81 579.54 264.60 581.51 270.38 582.61
C 280.82 584.60 283.71 586.56 283.71 591.63
C 283.71 593.12 282.91 595.45 281.93 596.78
C 279.58 600.00 266.78 600.62 255.43 598.07
M 275.29 592.34
C 276.10 591.04 268.18 588.42 263.36 588.42
C 255.13 588.40 243.90 578.48 236.56 564.73
C 234.63 561.12 231.93 556.92 230.57 555.41
C 228.19 552.77 227.83 552.75 222.05 554.59
C 212.38 557.67 187.60 557.07 161.41 553.15
C 135.76 549.30 126.74 549.04 109.62 551.70
C 95.73 553.87 84.60 556.76 67.41 562.71
C 52.41 567.89 48.06 567.37 40.54 559.56
C 37.66 556.56 33.35 551.10 30.98 547.44
C 28.59 543.77 25.96 540.77 25.11 540.77
C 22.61 540.77 11.67 553.24 8.98 559.15
C 1.59 575.42 11.74 590.39 31.21 591.90
C 39.98 592.58 71.29 588.41 125.74 579.27
C 192.50 568.08 212.06 565.97 218.35 569.29
C 219.90 570.12 223.60 572.92 226.59 575.52
C 229.57 578.14 235.49 582.12 239.75 584.38
C 251.97 590.88 273.24 595.65 275.29 592.34
M 69.92 554.32
C 87.10 548.19 106.03 544.52 124.45 543.75
C 137.15 543.21 144.07 543.72 163.13 546.62
C 192.78 551.11 207.61 551.33 220.20 547.44
L 229.55 544.56
L 229.55 539.46
C 229.55 536.65 230.77 529.89 232.28 524.42
C 234.46 516.50 234.83 512.58 234.16 505.17
C 233.21 494.65 229.93 475.06 228.97 474.09
C 227.33 472.47 197.28 477.24 165.07 484.25
C 121.63 493.69 114.08 495.67 96.07 502.35
C 73.09 510.90 35.64 530.68 33.92 535.20
C 33.04 537.48 41.32 549.72 47.28 554.95
C 49.70 557.06 52.96 558.80 54.52 558.80
C 56.10 558.80 63.02 556.79 69.92 554.32
M 165.96 476.94
C 191.72 471.27 215.04 467.46 224.22 467.41
C 228.04 467.38 228.46 467.05 227.82 464.58
C 227.42 463.04 226.38 455.24 225.50 447.24
C 223.36 427.83 225.14 407.85 233.38 358.34
C 241.19 311.46 243.35 291.33 241.28 284.47
C 239.30 277.85 233.70 273.52 222.98 270.27
C 211.92 266.91 210.91 265.33 211.87 252.79
C 212.56 243.54 212.52 243.33 208.85 240.72
C 201.05 235.18 200.83 220.17 208.28 201.88
C 213.04 190.18 210.91 186.73 200.53 189.37
C 197.69 190.09 183.63 191.02 169.26 191.45
C 152.61 191.94 142.75 192.73 142.02 193.64
C 141.39 194.42 138.73 199.97 136.12 205.96
C 131.65 216.17 131.50 216.95 133.63 218.51
C 134.88 219.42 137.72 220.17 139.92 220.17
C 145.08 220.17 148.08 222.41 149.43 227.25
C 150.29 230.39 151.08 231.03 153.59 230.64
C 159.82 229.70 161.60 229.87 162.14 231.44
C 162.45 232.33 160.86 234.06 158.63 235.30
C 150.68 239.70 150.16 240.27 152.06 242.56
C 153.16 243.90 155.82 244.64 159.51 244.64
C 162.66 244.64 166.29 245.20 167.60 245.90
C 170.72 247.56 172.81 253.85 172.81 261.57
C 172.81 269.69 170.01 272.56 160.93 273.75
C 155.25 274.48 153.20 275.52 148.78 279.91
C 144.47 284.18 143.14 286.67 141.84 292.92
C 139.64 303.52 140.91 337.53 144.51 363.73
C 146.39 377.50 147.37 391.60 147.48 406.22
C 147.62 427.61 147.50 428.63 142.31 450.64
C 135.60 479.01 135.02 482.83 137.34 482.83
C 138.32 482.83 151.19 480.18 165.96 476.94
M 210.22 134.54
C 213.88 130.64 217.18 129.73 240.51 126.19
C 259.97 123.24 270.13 120.57 273.73 117.44
C 277.29 114.33 275.61 114.32 268.75 117.40
C 262.28 120.32 251.46 120.99 229.55 119.82
C 222.66 119.46 219.68 120.00 212.89 122.87
C 205.29 126.09 203.72 126.31 193.54 125.55
C 187.46 125.09 178.36 123.54 173.33 122.10
L 164.20 119.50
L 149.06 122.36
C 131.90 125.59 126.48 125.28 117.34 120.50
C 113.83 118.67 110.56 117.17 110.05 117.17
C 108.71 117.17 115.04 123.63 118.00 125.27
C 119.44 126.08 130.79 127.06 143.79 127.52
C 168.32 128.37 173.70 129.63 176.69 135.21
C 177.93 137.54 179.40 137.77 192.61 137.77
C 206.49 137.77 207.31 137.61 210.22 134.54
M 220.92 100.92
C 224.32 100.45 228.23 99.14 229.60 98.00
C 232.04 95.96 231.96 95.42 225.67 71.16
C 222.15 57.54 218.90 43.29 218.44 39.48
L 217.63 32.56
L 224.21 25.30
C 230.24 18.64 230.67 17.78 229.30 14.78
C 227.68 11.23 220.86 6.44 217.40 6.44
C 213.29 6.44 207.90 10.24 202.61 16.87
L 197.31 23.51
L 197.31 66.88
L 197.31 110.24
L 206.01 106.00
C 210.80 103.66 217.50 101.38 220.92 100.92
M 190.86 66.45
L 190.86 23.47
L 186.67 17.20
C 184.36 13.76 180.30 9.79 177.64 8.37
L 172.81 5.79
L 168.07 8.37
C 165.47 9.79 162.19 12.52 160.77 14.42
C 157.69 18.61 158.86 20.65 166.58 24.58
C 177.28 30.03 177.64 35.60 168.96 62.20
C 159.73 90.54 160.32 95.30 173.66 100.18
C 177.80 101.69 183.21 104.37 185.70 106.12
C 188.19 107.88 190.36 109.34 190.54 109.38
C 190.72 109.42 190.86 90.10 190.86 66.45"/>
<path fill="#000000" stroke="none" d="
M 149.89 213.44
C 146.67 211.89 145.05 207.57 146.28 203.72
C 147.84 198.81 158.70 196.61 165.69 199.79
C 171.62 202.49 171.59 210.82 165.62 213.54
C 161.60 215.37 153.80 215.32 149.89 213.44
M 163.00 210.98
C 168.51 208.48 168.40 205.24 162.70 202.24
C 159.12 200.36 157.73 201.10 160.53 203.41
C 163.04 205.49 163.00 207.17 160.36 210.09
C 157.88 212.82 158.52 213.03 163.00 210.98"/>
<path fill="#ef907a" stroke="none" d="
M 197.31 66.88
L 197.31 23.51
L 202.61 16.87
C 207.90 10.24 213.29 6.44 217.40 6.44
C 220.86 6.44 227.68 11.23 229.30 14.78
C 230.67 17.78 230.24 18.64 224.21 25.30
L 217.63 32.56
L 218.44 39.48
C 218.90 43.29 222.15 57.54 225.67 71.16
C 231.96 95.42 232.04 95.96 229.60 98.00
C 228.23 99.14 224.32 100.45 220.92 100.92
C 217.50 101.38 210.80 103.66 206.01 106.00
L 197.31 110.24
L 197.31 66.88"/>
<path fill="#ef907a" stroke="none" d="
M 185.70 106.12
C 183.21 104.37 177.80 101.69 173.66 100.18
C 160.31 95.30 159.73 90.54 169.00 62.09
C 171.94 53.09 174.66 42.70 175.04 39.03
C 175.68 32.85 175.44 32.06 171.88 28.73
C 169.75 26.73 166.09 23.95 163.73 22.53
C 161.38 21.12 159.24 19.30 158.98 18.52
C 158.19 16.07 164.90 9.27 169.65 7.70
C 175.59 5.74 180.93 8.74 186.67 17.25
L 190.86 23.47
L 190.86 66.45
C 190.86 90.10 190.72 109.42 190.54 109.38
C 190.36 109.34 188.19 107.88 185.70 106.12"/>
<path fill="#76716a" stroke="none" d="
M 176.69 135.21
C 173.70 129.63 168.32 128.37 143.79 127.52
C 130.79 127.06 119.44 126.08 118.00 125.27
C 115.04 123.63 108.71 117.17 110.05 117.17
C 110.56 117.17 113.83 118.67 117.34 120.50
C 126.48 125.28 131.90 125.59 149.06 122.36
L 164.20 119.50
L 173.33 122.10
C 178.36 123.54 187.46 125.09 193.54 125.55
C 203.72 126.31 205.29 126.09 212.89 122.87
C 219.68 120.00 222.66 119.46 229.55 119.82
C 250.81 120.95 262.26 120.22 269.49 117.28
C 276.01 114.62 276.37 114.59 274.30 116.87
C 271.19 120.31 260.69 123.10 236.86 126.85
C 215.35 130.22 213.57 130.76 209.66 135.08
C 207.46 137.51 205.81 137.77 192.64 137.77
C 179.40 137.77 177.93 137.54 176.69 135.21"/>
<path fill="#ae3c2a" stroke="none" d="
M 256.89 590.96
C 245.78 588.05 234.14 582.12 226.59 575.52
C 223.60 572.92 219.90 570.12 218.35 569.29
C 212.06 565.97 192.50 568.08 125.74 579.27
C 71.29 588.41 39.98 592.58 31.21 591.90
C 11.74 590.39 1.59 575.42 8.98 559.15
C 11.67 553.24 22.61 540.77 25.11 540.77
C 25.96 540.77 28.59 543.77 30.98 547.44
C 33.35 551.10 37.66 556.56 40.54 559.56
C 48.06 567.37 52.41 567.89 67.41 562.71
C 84.60 556.76 95.73 553.87 109.62 551.70
C 126.74 549.04 135.76 549.30 161.41 553.15
C 187.60 557.07 212.38 557.67 222.05 554.59
C 227.83 552.75 228.19 552.77 230.57 555.41
C 231.93 556.92 234.63 561.12 236.56 564.73
C 243.90 578.48 255.13 588.40 263.36 588.42
C 268.18 588.42 276.10 591.04 275.29 592.34
C 274.14 594.19 267.32 593.69 256.89 590.96"/>
<path fill="#ae3c2a" stroke="none" d="
M 136.27 478.00
C 136.67 475.35 139.38 463.03 142.31 450.64
C 147.50 428.63 147.62 427.61 147.48 406.22
C 147.37 391.60 146.39 377.50 144.51 363.73
C 140.91 337.53 139.64 303.52 141.84 292.92
C 143.14 286.67 144.47 284.18 148.78 279.91
C 153.20 275.52 155.25 274.48 160.93 273.75
C 170.01 272.56 172.81 269.69 172.81 261.57
C 172.81 253.85 170.72 247.56 167.60 245.90
C 166.29 245.20 162.66 244.64 159.51 244.64
C 155.82 244.64 153.16 243.90 152.06 242.56
C 150.16 240.27 150.68 239.70 158.63 235.30
C 160.86 234.06 162.45 232.33 162.14 231.44
C 161.60 229.87 159.82 229.70 153.59 230.64
C 151.08 231.03 150.29 230.39 149.43 227.25
C 148.08 222.41 145.08 220.17 139.92 220.17
C 137.72 220.17 134.88 219.42 133.63 218.51
C 131.50 216.95 131.65 216.17 136.12 205.96
C 138.73 199.97 141.39 194.42 142.02 193.64
C 142.75 192.73 152.64 191.92 169.26 191.42
C 183.63 190.98 197.94 190.09 201.09 189.44
C 211.38 187.29 213.04 190.17 208.28 201.88
C 200.83 220.17 201.05 235.18 208.85 240.72
C 212.52 243.33 212.56 243.54 211.87 252.79
C 210.91 265.33 211.92 266.91 222.98 270.27
C 233.70 273.52 239.30 277.85 241.28 284.47
C 243.35 291.33 241.19 311.46 233.38 358.34
C 225.14 407.85 223.36 427.83 225.50 447.24
C 226.38 455.24 227.42 463.04 227.82 464.58
C 228.46 467.05 228.04 467.38 224.22 467.41
C 215.04 467.46 191.72 471.27 165.96 476.94
C 151.19 480.18 138.32 482.83 137.34 482.83
C 136.03 482.83 135.76 481.58 136.27 478.00
M 165.62 213.54
C 171.59 210.82 171.62 202.49 165.69 199.79
C 158.70 196.61 147.84 198.81 146.28 203.72
C 145.05 207.57 146.67 211.89 149.89 213.44
C 153.80 215.32 161.60 215.37 165.62 213.54"/>
<path fill="#fefefe" stroke="none" d="
M 160.62 209.79
C 162.59 207.62 162.75 206.72 161.47 204.67
C 159.23 201.09 159.52 200.56 162.81 202.29
C 168.40 205.24 168.47 208.49 163.00 210.98
C 158.41 213.08 157.88 212.81 160.62 209.79"/>
<path fill="#ffbf53" stroke="none" d="
M 47.28 554.95
C 41.32 549.72 33.04 537.48 33.92 535.20
C 34.81 532.87 52.05 522.46 68.99 514.04
C 83.68 506.74 105.72 498.28 119.93 494.52
C 155.73 485.02 226.65 471.77 229.02 474.15
C 229.95 475.07 233.24 494.95 234.16 505.17
C 234.83 512.58 234.46 516.50 232.28 524.42
C 230.77 529.89 229.55 536.65 229.55 539.46
L 229.55 544.56
L 220.20 547.44
C 207.61 551.33 192.78 551.11 163.13 546.62
C 144.07 543.72 137.15 543.21 124.45 543.75
C 106.03 544.52 87.10 548.19 69.92 554.32
C 63.02 556.79 56.10 558.80 54.52 558.80
C 52.96 558.80 49.70 557.06 47.28 554.95"/>
</g>
</svg>
