<?xml version="1.0" encoding="UTF-8" standalone="no"?>
<!DOCTYPE svg PUBLIC "-//W3C//DTD SVG 1.1//EN"
"http://www.w3.org/Graphics/SVG/1.1/DTD/svg11.dtd">
<svg width="445px" height="600px"
xmlns="http://www.w3.org/2000/svg" version="1.1">
<g transform="translate(0000, 0000) scale(1.0000, 1.0000)">
<path fill="#000000" stroke="none" d="
M 68.03 597.55
C 64.30 593.03 67.83 591.28 123.52 569.89
C 144.38 561.89 152.03 556.96 152.03 551.48
C 152.03 547.04 136.71 498.25 127.50 473.35
C 103.44 408.33 99.10 389.84 100.18 356.55
L 100.89 333.94
L 96.36 326.80
C 89.13 315.39 83.93 304.35 83.93 300.41
C 83.93 298.39 85.06 295.14 86.43 293.18
C 88.81 289.79 88.30 287.72 77.49 256.01
C 71.20 237.55 65.59 221.91 65.04 221.27
C 64.50 220.64 57.66 224.37 49.84 229.58
C 42.03 234.79 34.84 239.05 33.87 239.05
C 32.18 239.05 23.75 222.19 23.75 218.82
C 23.75 217.92 30.71 215.60 39.19 213.66
C 61.16 208.65 60.00 209.24 55.49 205.57
C 48.03 199.49 40.32 193.28 30.88 185.78
C 20.78 177.77 18.24 175.27 13.37 168.52
C 11.67 166.20 9.38 163.33 8.27 162.16
C 4.51 158.22 0.06 146.49 0.03 140.45
C -0.10 117.66 26.15 100.81 51.02 107.72
C 62.47 110.90 69.93 120.11 74.41 136.62
C 76.44 144.13 76.38 147.51 73.45 187.99
C 72.37 202.62 73.31 205.44 77.49 200.39
C 80.07 197.29 100.61 185.22 103.32 185.22
C 105.37 185.22 112.44 199.60 112.44 203.78
C 112.44 205.68 110.52 206.36 90.36 211.54
C 84.22 213.12 79.18 215.07 79.18 215.87
C 79.18 216.66 87.42 232.83 97.47 251.81
C 115.70 286.15 115.80 286.29 121.72 287.30
C 125.00 287.86 131.33 290.39 135.80 292.94
C 142.70 296.88 144.68 299.15 148.85 307.87
C 151.78 314.01 155.94 319.82 159.19 322.29
C 167.86 328.91 226.19 401.15 243.45 426.65
C 246.98 431.87 251.99 438.13 254.55 440.56
C 262.36 447.94 263.23 444.92 264.69 405.58
C 265.38 386.69 266.68 357.70 267.57 341.16
C 268.47 324.62 269.20 307.31 269.20 302.69
L 269.22 294.30
L 260.10 295.33
C 247.51 296.75 238.26 294.08 235.18 288.14
C 231.75 281.51 232.19 274.46 237.66 248.60
C 243.28 222.02 250.85 198.22 259.62 179.49
L 265.80 166.34
L 260.98 159.56
C 251.58 146.25 200.96 97.73 185.74 87.37
C 169.84 76.59 166.28 72.74 166.28 66.35
C 166.28 56.71 181.15 46.05 228.83 21.58
C 283.80 -6.63 291.55 -6.71 347.15 20.45
C 376.27 34.70 381.05 37.58 389.94 46.34
C 408.04 64.18 421.18 89.30 429.37 121.66
C 436.13 148.45 438.54 171.01 440.41 225.48
C 442.81 295.49 443.10 294.46 420.61 294.46
C 410.29 294.46 405.27 295.09 404.06 296.55
C 402.86 298.01 402.21 335.49 401.89 421.22
C 401.48 534.95 401.24 544.31 398.60 550.92
L 395.75 558.05
L 400.31 562.01
C 402.83 564.19 413.95 572.28 425.01 580.01
C 438.78 589.60 445.00 594.87 444.67 596.63
C 444.21 598.99 428.50 599.24 257.12 599.60
C 89.57 599.97 69.87 599.76 68.03 597.55
M 421.25 588.84
C 419.06 587.10 411.43 581.76 404.27 576.98
C 397.10 572.20 390.51 566.91 389.62 565.25
C 387.21 560.75 387.66 554.50 391.17 543.29
C 394.18 533.67 394.31 528.40 394.31 398.44
C 394.32 264.73 393.74 246.38 388.80 227.45
C 381.61 199.93 364.25 180.87 341.79 175.84
C 322.79 171.59 298.86 186.22 288.77 208.26
C 282.52 221.91 280.32 236.25 278.67 273.88
C 277.82 293.48 276.04 329.79 274.74 354.62
C 273.46 379.44 272.38 408.63 272.38 419.53
C 272.37 441.26 270.64 450.32 266.08 452.75
C 257.28 457.47 249.26 452.12 235.88 432.62
C 214.88 401.97 160.12 334.89 150.32 327.78
C 141.23 321.21 136.35 320.53 127.01 324.55
C 111.85 331.08 107.72 339.26 107.70 362.75
C 107.69 386.75 113.74 410.03 135.08 467.81
C 145.57 496.21 160.26 543.18 161.07 550.92
C 162.40 563.37 155.08 568.80 119.56 581.79
C 108.24 585.93 98.30 589.93 97.47 590.69
C 96.62 591.50 166.39 592.07 260.59 592.05
L 425.20 592.02
L 421.25 588.84
M 116.03 319.88
C 120.58 317.32 128.05 314.74 132.63 314.14
C 137.21 313.54 140.94 312.47 140.94 311.79
C 140.94 308.04 132.04 300.81 123.49 297.61
C 116.06 294.84 112.07 294.25 105.75 295.00
C 94.70 296.31 92.50 298.64 95.49 305.83
C 98.09 312.05 105.74 324.54 106.94 324.54
C 107.37 324.54 111.47 322.45 116.03 319.88
M 267.60 286.54
C 270.01 286.54 270.42 283.57 271.31 260.03
C 272.86 219.23 278.92 199.11 294.29 183.77
C 307.92 170.15 326.67 164.04 343.92 167.60
C 382.89 175.66 402.07 210.74 402.21 274.27
L 402.24 286.54
L 415.51 286.54
C 430.11 286.54 431.44 285.83 433.08 277.04
C 434.64 268.54 431.17 182.03 428.44 161.32
C 422.02 112.77 407.34 77.53 383.87 54.28
C 373.21 43.73 370.09 41.78 342.73 28.51
C 326.43 20.63 312.93 14.36 312.70 14.60
C 312.48 14.85 315.06 19.61 318.45 25.19
C 335.51 53.30 336.27 75.13 321.26 104.96
C 315.13 117.12 291.37 152.14 283.45 160.69
C 267.38 178.02 253.57 212.12 244.80 256.13
C 239.38 283.30 241.84 289.11 257.96 287.32
C 261.77 286.89 266.13 286.54 267.60 286.54
M 63.14 151.98
C 63.30 139.82 62.87 137.75 58.66 130.42
C 55.13 124.24 52.48 121.69 47.56 119.73
C 34.90 114.66 25.46 117.39 17.50 128.37
C 10.42 138.14 10.10 142.35 15.68 152.23
C 20.21 160.26 26.15 166.21 50.45 187.16
L 60.97 196.21
L 61.97 180.82
C 62.52 172.35 63.04 159.37 63.14 151.98
M 277.48 153.96
C 283.90 146.61 311.20 104.69 315.19 96.06
C 325.45 73.84 325.07 56.83 313.83 35.86
C 302.28 14.33 293.84 8.20 278.23 10.05
C 269.22 11.11 219.98 35.18 195.58 50.45
L 181.33 59.37
L 195.58 60.28
C 216.99 61.68 220.98 63.36 217.15 69.40
C 216.10 71.07 214.50 71.15 209.66 69.80
C 206.27 68.87 197.94 68.09 191.14 68.09
L 178.81 68.07
L 181.55 71.64
C 183.05 73.60 189.21 78.40 195.25 82.32
C 205.68 89.11 251.50 132.78 265.43 149.21
C 272.45 157.49 273.90 158.06 277.48 153.96"/>
<path fill="#000000" stroke="none" d="
M 246.18 54.70
C 243.18 51.69 242.30 49.14 242.30 43.54
C 242.30 33.45 247.25 28.50 257.34 28.50
C 267.43 28.50 272.38 33.45 272.38 43.54
C 272.38 53.62 267.43 58.58 257.34 58.58
C 251.73 58.58 249.18 57.69 246.18 54.70
M 264.47 50.66
C 270.74 44.39 266.18 33.25 257.34 33.25
C 252.26 33.25 247.05 38.45 247.05 43.54
C 247.05 45.72 248.47 48.92 250.21 50.66
C 251.96 52.40 255.15 53.83 257.34 53.83
C 259.53 53.83 262.72 52.40 264.47 50.66"/>
<path fill="#000000" stroke="none" d="
M 252.11 48.76
C 247.68 44.33 251.02 36.41 257.34 36.41
C 261.58 36.41 264.47 39.29 264.47 43.54
C 264.47 47.78 261.58 50.66 257.34 50.66
C 255.50 50.66 253.16 49.80 252.11 48.76"/>
<path fill="#219f23" stroke="none" d="
M 265.43 149.21
C 251.50 132.78 205.68 89.11 195.25 82.32
C 189.21 78.40 183.05 73.60 181.55 71.64
L 178.81 68.07
L 191.14 68.09
C 197.94 68.09 206.27 68.87 209.66 69.80
C 214.50 71.15 216.10 71.07 217.15 69.40
C 220.98 63.36 216.99 61.68 195.58 60.28
L 181.33 59.37
L 195.58 50.45
C 219.70 35.37 268.90 11.37 278.15 10.18
C 293.84 8.17 302.20 14.18 313.83 35.86
C 325.07 56.83 325.45 73.84 315.19 96.06
C 311.20 104.69 283.90 146.61 277.48 153.96
C 273.90 158.06 272.45 157.49 265.43 149.21
M 268.50 54.70
C 271.50 51.69 272.38 49.14 272.38 43.54
C 272.38 33.45 267.43 28.50 257.34 28.50
C 247.25 28.50 242.30 33.45 242.30 43.54
C 242.30 53.62 247.25 58.58 257.34 58.58
C 262.95 58.58 265.50 57.69 268.50 54.70"/>
<path fill="#c55436" stroke="none" d="
M 247.65 286.65
C 241.16 283.87 240.55 277.39 244.80 256.13
C 253.57 212.12 267.38 178.02 283.45 160.69
C 291.37 152.14 315.13 117.12 321.26 104.96
C 336.09 75.51 335.48 53.41 319.05 26.15
C 315.98 21.06 313.67 16.40 313.91 15.80
C 314.16 15.21 327.40 21.06 343.35 28.78
C 370.03 41.73 373.25 43.76 383.87 54.28
C 407.34 77.53 422.02 112.77 428.44 161.32
C 431.17 182.03 434.64 268.54 433.08 277.04
C 431.44 285.83 430.11 286.54 415.51 286.54
L 402.24 286.54
L 402.21 274.27
C 402.07 210.74 382.89 175.66 343.92 167.60
C 326.67 164.04 307.92 170.15 294.29 183.77
C 278.92 199.11 272.86 219.23 271.31 260.03
C 270.42 283.57 270.01 286.54 267.60 286.54
C 266.13 286.54 261.77 286.89 257.96 287.32
C 254.14 287.75 249.49 287.45 247.65 286.65"/>
<path fill="#eb2e00" stroke="none" d="
M 250.21 50.66
C 244.08 44.53 247.14 35.64 255.99 33.89
C 265.56 32.01 271.47 43.66 264.47 50.66
C 262.72 52.40 259.53 53.83 257.34 53.83
C 255.15 53.83 251.96 52.40 250.21 50.66
M 262.57 48.76
C 267.00 44.33 263.66 36.41 257.34 36.41
C 253.10 36.41 250.21 39.29 250.21 43.54
C 250.21 47.78 253.10 50.66 257.34 50.66
C 259.18 50.66 261.52 49.80 262.57 48.76"/>
<path fill="#ffbf53" stroke="none" d="
M 97.47 590.69
C 98.30 589.93 108.24 585.93 119.56 581.79
C 155.08 568.80 162.40 563.37 161.07 550.92
C 160.26 543.18 145.57 496.21 135.08 467.81
C 113.74 410.03 107.69 386.75 107.70 362.75
C 107.72 339.26 111.85 331.08 127.01 324.55
C 136.35 320.53 141.23 321.21 150.32 327.78
C 160.12 334.89 214.88 401.97 235.88 432.62
C 249.26 452.12 257.28 457.47 266.08 452.75
C 270.64 450.32 272.37 441.26 272.38 419.53
C 272.38 408.63 273.46 379.44 274.74 354.62
C 276.04 329.79 277.82 293.48 278.67 273.88
C 280.32 236.14 282.52 221.91 288.85 208.10
C 298.91 186.11 323.09 171.64 342.49 175.99
C 364.23 180.89 381.70 200.28 388.80 227.45
C 393.74 246.38 394.32 264.73 394.31 398.44
C 394.31 528.40 394.18 533.67 391.17 543.29
C 387.66 554.50 387.21 560.75 389.62 565.25
C 390.51 566.91 397.10 572.20 404.27 576.98
C 411.43 581.76 419.06 587.10 421.25 588.84
L 425.20 592.02
L 260.59 592.05
C 166.39 592.07 96.62 591.50 97.47 590.69"/>
<path fill="#ae3c2a" stroke="none" d="
M 101.97 317.92
C 95.27 307.31 92.99 300.87 95.05 298.39
C 96.03 297.20 100.70 295.76 105.44 295.17
C 112.36 294.30 115.95 294.79 123.57 297.64
C 132.04 300.81 140.94 308.06 140.94 311.79
C 140.94 312.47 137.21 313.54 132.63 314.14
C 128.05 314.74 120.58 317.32 116.03 319.88
C 111.47 322.45 107.37 324.54 106.94 324.54
C 106.50 324.54 104.27 321.56 101.97 317.92"/>
</g>
</svg>
