<?xml version="1.0" encoding="UTF-8" standalone="no"?>
<!DOCTYPE svg PUBLIC "-//W3C//DTD SVG 1.1//EN"
"http://www.w3.org/Graphics/SVG/1.1/DTD/svg11.dtd">
<svg width="342px" height="600px"
xmlns="http://www.w3.org/2000/svg" version="1.1">
<g transform="translate(0000, 0000) scale(1.0000, 1.0000)">
<path fill="#000000" stroke="none" d="
M 17.60 597.49
C 15.57 595.46 15.09 593.31 15.09 586.19
C 15.09 574.37 16.99 572.38 28.29 572.38
L 36.46 572.38
L 36.46 349.22
L 36.46 126.05
L 30.65 120.45
C 23.39 113.45 20.51 107.18 18.77 94.61
C 17.28 83.77 14.30 79.14 6.81 75.99
C 4.51 75.03 2.29 72.78 1.32 70.44
C -1.99 62.47 5.36 54.05 15.72 53.92
C 25.15 53.81 27.28 51.97 32.98 39.03
C 36.88 30.16 40.03 25.23 45.60 19.29
C 54.68 9.60 62.26 5.72 78.74 2.33
C 92.54 -0.51 90.44 -0.69 133.28 6.98
C 142.61 8.65 174.86 13.14 204.95 16.96
C 309.42 30.24 311.69 30.59 320.60 35.13
C 323.33 36.53 327.29 37.66 329.41 37.66
C 334.49 37.66 342.00 40.85 342.00 42.99
C 342.00 43.93 340.05 46.58 337.66 48.89
C 334.08 52.37 333.20 54.29 332.54 60.11
C 330.96 74.13 328.47 80.21 321.17 87.85
L 314.34 95.00
L 314.34 333.69
L 314.34 572.38
L 324.40 572.38
C 337.81 572.38 339.49 573.92 339.49 586.19
C 339.49 601.66 358.97 600.00 177.29 600.00
C 21.79 600.00 20.09 599.97 17.60 597.49
M 331.69 592.22
C 333.64 590.27 333.64 582.11 331.69 580.17
C 329.50 577.98 25.07 577.98 22.88 580.17
C 20.93 582.11 20.93 590.27 22.88 592.22
C 25.07 594.40 329.50 594.40 331.69 592.22
M 47.78 349.58
L 47.78 126.78
L 44.01 126.78
L 40.24 126.78
L 40.24 349.58
L 40.24 572.38
L 44.01 572.38
L 47.78 572.38
L 47.78 349.58
M 94.19 566.10
C 96.79 560.05 101.34 536.33 104.40 512.76
C 105.35 505.46 106.10 468.21 106.50 407.23
C 107.11 313.32 107.10 312.99 104.49 308.70
C 100.93 302.89 101.10 295.61 104.99 287.97
C 108.92 280.22 108.92 277.19 104.99 271.39
C 101.23 265.88 100.80 257.47 103.87 249.79
C 105.58 245.56 105.67 243.77 104.44 238.78
C 102.93 232.72 95.84 219.67 94.04 219.67
C 93.48 219.67 93.04 218.26 93.04 216.53
C 93.04 213.88 93.64 213.39 96.78 213.39
C 99.58 213.39 100.32 212.92 99.78 211.51
C 99.39 210.46 97.71 209.62 96.05 209.62
C 93.69 209.62 93.04 208.96 93.04 206.49
C 93.04 203.84 93.64 203.35 96.78 203.35
C 99.58 203.35 100.32 202.88 99.78 201.46
C 99.39 200.42 97.71 199.58 96.05 199.58
C 93.69 199.58 93.04 198.92 93.04 196.44
C 93.04 193.79 93.64 193.31 96.78 193.31
C 99.58 193.31 100.32 192.84 99.78 191.42
C 99.38 190.37 97.51 189.54 95.56 189.54
C 92.88 189.54 91.87 190.27 91.28 192.64
C 90.33 196.42 86.27 198.79 82.39 197.82
C 77.64 196.63 76.28 191.13 77.31 177.30
C 78.92 155.79 83.65 142.24 97.92 118.26
C 104.11 107.86 106.88 98.40 106.88 87.65
C 106.88 81.98 110.04 71.45 112.16 70.10
C 119.57 65.42 131.92 78.19 132.00 90.62
C 132.02 96.23 127.16 110.15 120.54 123.30
C 117.86 128.64 115.69 134.00 115.70 135.23
C 115.71 136.44 117.40 140.27 119.45 143.72
C 123.07 149.82 123.18 150.46 123.20 166.63
L 123.22 183.26
L 130.14 183.26
C 136.67 183.26 137.05 183.44 137.05 186.40
C 137.05 188.87 136.41 189.54 134.05 189.54
C 132.39 189.54 130.70 190.39 130.31 191.42
C 129.77 192.84 130.51 193.31 133.32 193.31
C 136.46 193.31 137.05 193.79 137.05 196.44
C 137.05 198.92 136.41 199.58 134.05 199.58
C 132.39 199.58 130.70 200.44 130.31 201.46
C 129.77 202.88 130.51 203.35 133.32 203.35
C 136.46 203.35 137.05 203.84 137.05 206.49
C 137.05 208.96 136.41 209.62 134.05 209.62
C 132.39 209.62 130.70 210.48 130.31 211.51
C 129.77 212.92 130.51 213.39 133.32 213.39
C 136.23 213.39 137.05 213.94 137.05 215.95
C 137.05 217.36 135.89 219.75 134.49 221.26
C 131.08 224.92 126.06 235.51 125.06 241.18
L 124.25 245.74
L 136.62 246.49
C 143.43 246.92 154.94 247.59 162.21 248.02
L 175.43 248.80
L 176.95 239.18
C 178.95 226.64 186.50 204.25 191.19 196.96
C 193.23 193.79 194.89 190.28 194.89 189.16
C 194.89 188.05 195.97 184.14 197.29 180.49
C 200.80 170.79 201.63 163.02 199.45 160.05
C 198.03 158.12 196.12 157.59 190.30 157.57
L 182.94 157.53
L 177.71 167.54
C 174.85 173.03 171.83 177.75 171.01 178.03
C 169.33 178.59 160.94 170.95 160.94 168.85
C 160.94 168.11 164.63 163.86 169.11 159.41
C 176.75 151.86 177.25 151.03 176.60 146.90
C 175.10 137.52 174.73 136.85 170.35 135.01
C 167.94 134.01 165.97 132.51 165.97 131.69
C 165.97 130.87 169.05 124.21 172.81 116.87
C 176.57 109.56 181.13 100.29 182.97 96.31
C 189.17 82.81 202.56 72.01 218.60 67.57
C 237.35 62.37 254.61 66.99 268.55 80.90
C 278.29 90.63 280.18 100.26 275.37 115.76
C 271.36 128.74 257.69 148.26 248.62 153.98
C 239.49 159.74 239.66 166.90 249.07 172.13
C 259.84 178.14 262.11 185.62 257.97 201.58
C 256.55 207.04 254.79 219.70 254.05 229.71
C 252.50 250.61 253.52 264.94 258.20 288.08
C 264.14 317.49 263.72 328.82 255.63 355.14
C 242.72 397.13 242.19 401.81 246.94 431.33
C 248.74 442.47 250.21 455.01 250.21 459.20
C 250.21 469.67 247.20 491.67 242.79 513.40
C 237.05 541.72 236.02 551.10 237.72 559.68
C 238.80 565.19 238.80 567.70 237.73 569.71
L 236.29 572.38
L 267.77 572.38
L 299.25 572.38
L 299.25 333.93
L 299.25 95.46
L 293.49 89.71
C 286.34 82.57 283.31 75.88 281.56 63.33
C 280.38 54.84 279.59 52.86 275.57 48.25
C 271.37 43.41 270.29 42.87 263.42 42.11
C 232.03 38.71 134.32 25.69 120.08 23.02
C 95.70 18.44 85.75 18.46 76.21 23.11
C 66.33 27.92 55.05 39.25 52.23 47.22
C 51.05 50.59 48.79 56.52 47.20 60.39
L 44.35 67.43
L 57.54 68.28
C 71.20 69.16 79.21 71.42 79.21 74.38
C 79.21 75.33 77.52 77.72 75.43 79.72
C 71.63 83.36 69.18 89.52 69.17 95.49
C 69.14 103.39 65.18 112.12 58.35 119.26
L 51.55 126.38
L 51.55 349.38
L 51.55 572.38
L 71.52 572.38
L 91.47 572.38
L 94.19 566.10
M 128.98 569.56
C 124.74 555.09 119.90 521.27 118.24 494.56
C 117.52 483.18 116.95 438.13 116.93 394.46
C 116.93 324.73 116.71 315.06 115.05 315.06
C 113.39 315.06 113.16 324.65 113.15 393.83
C 113.15 437.15 112.56 482.20 111.85 493.93
C 110.24 520.93 105.43 554.81 101.12 569.56
C 100.30 572.37 100.34 572.38 115.05 572.38
C 129.76 572.38 129.80 572.37 128.98 569.56
M 141.80 566.77
C 143.60 560.05 146.22 558.44 159.88 555.64
C 178.18 551.87 192.21 545.97 198.36 539.44
C 203.94 533.51 205.44 527.56 205.39 511.51
C 205.35 495.62 204.29 488.72 196.17 451.26
C 193.48 438.83 190.14 419.33 188.73 407.95
C 187.33 396.56 185.03 377.91 183.64 366.53
C 182.24 355.14 180.25 339.60 179.21 332.01
C 178.18 324.41 177.32 316.37 177.31 314.12
L 177.29 310.04
L 166.28 310.08
C 155.11 310.10 133.05 311.89 126.57 313.29
L 123.01 314.06
L 123.59 407.13
C 124.20 505.46 124.44 510.14 130.81 545.89
C 133.18 559.17 137.49 572.38 139.47 572.38
C 139.92 572.38 140.97 569.86 141.80 566.77
M 227.64 570.08
C 230.30 567.93 230.52 566.67 230.79 552.82
C 231.00 541.24 232.23 531.90 236.23 511.51
C 239.07 497.01 242.08 479.07 242.92 471.64
C 244.34 458.96 244.23 456.75 241.02 435.87
C 235.87 402.28 236.55 392.77 246.33 361.62
C 257.14 327.20 257.85 318.78 252.17 292.47
C 250.31 283.83 248.45 270.63 248.05 263.12
C 247.33 249.53 247.32 249.48 245.00 252.45
C 243.71 254.10 240.44 262.29 237.74 270.65
C 231.79 289.04 227.79 297.20 221.96 302.85
C 216.18 308.46 210.38 310.04 195.54 310.04
L 183.28 310.04
L 184.15 318.51
C 184.62 323.17 185.82 332.56 186.83 339.36
C 187.84 346.18 190.06 364.26 191.80 379.53
C 195.73 414.26 197.82 427.51 203.11 451.26
C 210.29 483.48 211.61 492.79 211.71 512.17
C 211.80 529.61 211.65 530.71 208.36 537.45
C 202.60 549.18 191.77 555.11 164.10 561.72
C 155.14 563.85 150.89 565.49 149.32 567.43
C 148.10 568.93 147.11 570.65 147.11 571.27
C 147.11 571.90 164.12 572.38 185.95 572.38
C 221.80 572.38 225.00 572.21 227.64 570.08
M 310.57 333.26
L 310.57 94.14
L 306.79 94.14
L 303.02 94.14
L 303.02 333.26
L 303.02 572.38
L 306.79 572.38
L 310.57 572.38
L 310.57 333.26
M 128.25 306.16
C 132.06 305.55 150.73 304.72 169.74 304.32
C 207.25 303.55 211.88 302.80 217.85 296.52
C 222.35 291.79 226.73 282.58 230.74 269.41
C 232.60 263.28 235.99 254.36 238.29 249.58
C 243.74 238.22 246.14 225.30 244.08 218.44
C 242.17 212.07 238.92 210.15 234.18 212.60
C 229.11 215.21 226.25 221.28 217.69 247.51
C 207.84 277.64 204.75 284.66 200.95 285.45
C 199.34 285.79 194.07 286.42 189.23 286.85
C 184.39 287.28 172.90 288.73 163.71 290.06
C 144.71 292.79 133.13 293.10 125.06 291.08
C 116.96 289.03 111.28 290.44 109.41 294.92
C 108.58 296.92 108.28 299.77 108.76 301.26
C 109.82 304.57 116.88 309.06 119.45 308.05
C 120.49 307.63 124.44 306.79 128.25 306.16
M 158.74 284.11
L 173.51 282.03
L 173.51 278.02
L 173.51 274.03
L 158.23 273.20
C 132.56 271.83 128.53 272.03 127.04 274.81
C 126.33 276.15 125.74 278.71 125.74 280.51
C 125.74 286.61 134.37 287.55 158.74 284.11
M 119.45 279.92
C 119.45 276.99 118.90 276.15 116.93 276.15
C 114.97 276.15 114.42 276.99 114.42 279.92
C 114.42 282.84 114.97 283.68 116.93 283.68
C 118.90 283.68 119.45 282.84 119.45 279.92
M 192.41 279.79
C 198.45 278.50 199.03 278.03 201.40 272.57
C 202.80 269.36 207.83 254.85 212.59 240.33
C 219.97 217.81 221.86 213.33 225.44 209.87
C 232.55 203.00 240.20 202.07 246.01 207.36
C 249.08 210.16 248.69 210.72 251.47 199.58
C 252.25 196.48 253.18 192.92 253.55 191.66
C 254.04 189.97 252.56 190.56 247.77 194.01
C 235.33 202.93 216.21 206.74 203.30 202.86
C 196.18 200.71 196.11 200.79 191.14 214.38
C 184.11 233.60 179.80 256.59 179.80 274.85
C 179.80 280.72 180.02 281.17 182.88 281.17
C 184.58 281.17 188.87 280.56 192.41 279.79
M 120.92 267.80
C 125.95 263.26 121.65 251.05 115.02 251.05
C 108.38 251.05 105.87 261.45 111.21 266.80
C 114.82 270.39 117.71 270.69 120.92 267.80
M 174.22 261.65
C 174.68 258.51 174.83 255.70 174.53 255.41
C 173.97 254.84 129.21 252.10 128.90 252.62
C 128.80 252.79 128.95 255.87 129.23 259.47
L 129.75 266.01
L 139.37 266.44
C 144.66 266.66 154.48 266.97 161.18 267.11
L 173.36 267.36
L 174.22 261.65
M 119.35 238.43
C 120.79 231.67 123.56 225.44 126.72 221.86
C 128.54 219.79 127.89 219.67 115.05 219.67
C 102.21 219.67 101.56 219.79 103.38 221.86
C 106.54 225.44 109.30 231.67 110.75 238.43
C 111.92 243.85 112.55 244.77 115.05 244.77
C 117.55 244.77 118.18 243.85 119.35 238.43
M 123.67 211.51
C 124.28 209.94 122.84 209.62 115.05 209.62
C 107.25 209.62 105.82 209.94 106.42 211.51
C 106.96 212.90 109.18 213.39 115.05 213.39
C 120.92 213.39 123.13 212.90 123.67 211.51
M 123.67 201.46
C 124.28 199.90 122.84 199.58 115.05 199.58
C 107.25 199.58 105.82 199.90 106.42 201.46
C 106.96 202.86 109.18 203.35 115.05 203.35
C 120.92 203.35 123.13 202.86 123.67 201.46
M 224.16 196.36
C 233.58 193.92 242.34 189.55 246.25 185.36
C 249.81 181.56 249.37 180.64 241.99 176.52
L 236.29 173.35
L 231.89 176.35
C 225.46 180.70 215.62 183.65 210.66 182.72
C 205.89 181.83 202.95 183.92 201.64 189.09
C 200.72 192.77 202.23 194.61 207.83 196.66
C 213.34 198.68 215.33 198.64 224.16 196.36
M 123.67 191.42
C 124.28 189.85 122.84 189.54 115.05 189.54
C 107.25 189.54 105.82 189.85 106.42 191.42
C 106.96 192.82 109.18 193.31 115.05 193.31
C 120.92 193.31 123.13 192.82 123.67 191.42
M 91.12 171.97
C 93.71 163.14 98.21 151.61 101.39 145.61
C 109.93 129.55 122.79 101.62 124.39 95.71
C 126.00 89.76 124.29 83.97 119.73 79.92
C 117.21 77.69 117.10 77.69 115.79 80.12
C 115.05 81.50 113.61 88.47 112.61 95.61
C 110.27 112.09 109.34 114.62 99.81 130.32
C 90.24 146.06 85.70 159.11 84.17 175.22
C 83.06 186.94 83.45 190.90 85.53 188.71
C 86.07 188.13 88.59 180.60 91.12 171.97
M 109.39 171.62
C 109.39 162.89 108.87 159.24 107.34 157.05
C 105.73 154.76 105.06 154.49 104.18 155.84
C 103.04 157.59 95.56 180.51 95.56 182.27
C 95.56 182.81 98.66 183.26 102.47 183.26
L 109.39 183.26
L 109.39 171.62
M 118.19 167.86
C 118.19 153.28 118.02 152.21 114.86 147.58
C 111.74 143.00 111.43 142.83 109.83 145.02
C 107.50 148.19 107.65 149.07 111.28 153.36
C 114.19 156.83 114.42 158.06 114.42 170.18
C 114.42 180.98 114.75 183.26 116.31 183.26
C 117.88 183.26 118.19 180.72 118.19 167.86
M 221.92 173.28
C 228.89 170.27 234.71 165.08 235.45 161.22
C 235.97 158.54 235.25 157.48 231.23 154.95
C 220.02 147.88 218.33 136.48 227.03 126.87
C 230.82 122.66 231.13 121.87 229.43 120.48
C 227.95 119.25 226.79 119.21 224.34 120.31
C 219.26 122.64 216.10 122.08 200.40 116.13
C 192.22 113.03 185.17 110.91 184.73 111.43
C 184.28 111.93 181.81 116.15 179.25 120.80
L 174.57 129.25
L 177.75 130.69
C 179.50 131.50 181.49 133.73 182.17 135.68
C 183.15 138.48 184.09 139.15 186.80 138.95
C 191.92 138.58 191.92 141.50 186.82 143.92
C 184.34 145.10 182.32 146.50 182.32 147.03
C 182.32 149.59 188.40 151.88 195.17 151.88
C 205.68 151.88 208.00 154.48 207.14 165.25
C 206.56 172.39 206.78 173.49 209.14 175.13
C 211.93 177.09 213.76 176.82 221.92 173.28
M 52.62 115.51
C 59.49 110.10 61.32 105.87 64.00 89.27
C 64.70 84.87 66.24 80.22 67.39 78.94
C 69.37 76.77 69.36 76.56 67.13 75.65
C 64.04 74.41 23.98 74.41 20.88 75.65
C 18.66 76.56 18.65 76.77 20.62 78.94
C 21.78 80.22 23.31 84.87 24.02 89.27
C 26.69 105.87 28.53 110.10 35.39 115.51
C 38.88 118.26 42.75 120.50 44.01 120.50
C 45.26 120.50 49.14 118.26 52.62 115.51
M 315.41 84.13
C 322.27 78.72 324.11 74.49 326.79 57.89
C 327.49 53.49 328.99 48.88 330.09 47.66
C 333.46 43.95 330.26 43.36 306.79 43.36
C 283.33 43.36 280.13 43.95 283.50 47.66
C 284.60 48.88 286.10 53.49 286.80 57.89
C 289.48 74.49 291.32 78.72 298.18 84.13
C 301.66 86.87 305.54 89.12 306.79 89.12
C 308.05 89.12 311.92 86.87 315.41 84.13
M 24.52 67.76
C 37.91 65.76 39.47 64.02 47.20 42.20
C 49.98 34.37 61.32 22.85 70.55 18.49
C 83.58 12.34 90.06 11.87 110.65 15.60
C 136.64 20.32 154.34 22.86 216.89 30.78
C 266.27 37.03 273.64 37.69 285.42 36.89
C 306.20 35.50 306.53 35.56 204.95 22.63
C 172.11 18.45 137.58 13.64 128.25 11.95
C 95.60 6.00 91.02 5.62 80.29 8.01
C 66.79 11.02 59.16 15.23 50.60 24.35
C 45.06 30.25 41.91 35.21 38.01 44.05
C 32.34 56.92 30.16 58.83 21.00 58.93
C 12.18 59.05 3.41 66.03 8.47 68.90
C 9.69 69.59 11.82 69.90 13.20 69.60
C 14.59 69.30 19.68 68.47 24.52 67.76"/>
<path fill="#000000" stroke="none" d="
M 92.29 150.11
C 91.48 148.02 95.07 140.59 96.89 140.59
C 99.23 140.59 99.52 144.10 97.51 148.00
C 95.35 152.17 93.38 152.96 92.29 150.11"/>
<path fill="#000000" stroke="none" d="
M 187.62 127.33
C 184.58 125.21 183.94 120.64 186.34 118.24
C 189.94 114.65 198.66 118.36 198.66 123.46
C 198.66 129.10 192.99 131.10 187.62 127.33"/>
<path fill="#cf9e66" stroke="none" d="
M 22.88 592.22
C 20.93 590.27 20.93 582.11 22.88 580.17
C 25.07 577.98 329.50 577.98 331.69 580.17
C 333.64 582.11 333.64 590.27 331.69 592.22
C 329.50 594.40 25.07 594.40 22.88 592.22"/>
<path fill="#cf9e66" stroke="none" d="
M 8.47 68.90
C 3.41 66.03 12.18 59.05 21.00 58.93
C 30.16 58.83 32.34 56.92 38.01 44.05
C 41.91 35.18 45.06 30.25 50.63 24.31
C 59.36 15.00 67.22 10.78 81.15 7.95
C 92.13 5.71 95.18 5.97 128.25 11.96
C 137.58 13.64 172.11 18.45 204.95 22.63
C 306.53 35.56 306.20 35.50 285.42 36.89
C 273.64 37.69 266.27 37.03 216.89 30.78
C 154.34 22.86 136.64 20.32 110.65 15.60
C 90.06 11.87 83.58 12.34 70.55 18.49
C 61.32 22.85 49.98 34.37 47.20 42.20
C 39.47 64.02 37.91 65.76 24.52 67.76
C 19.68 68.47 14.59 69.30 13.20 69.60
C 11.82 69.90 9.69 69.59 8.47 68.90"/>
<path fill="#ef907a" stroke="none" d="
M 35.39 115.51
C 28.53 110.10 26.69 105.87 24.02 89.27
C 23.31 84.87 21.78 80.22 20.62 78.94
C 18.65 76.77 18.66 76.56 20.88 75.65
C 23.98 74.41 64.04 74.41 67.13 75.65
C 69.36 76.56 69.37 76.77 67.39 78.94
C 66.24 80.22 64.70 84.87 64.00 89.27
C 61.32 105.87 59.49 110.10 52.62 115.51
C 49.14 118.26 45.26 120.50 44.01 120.50
C 42.75 120.50 38.88 118.26 35.39 115.51"/>
<path fill="#ef907a" stroke="none" d="
M 298.18 84.13
C 291.32 78.72 289.48 74.49 286.80 57.89
C 286.10 53.49 284.60 48.88 283.50 47.66
C 280.15 43.97 283.26 43.39 306.79 43.37
C 330.24 43.34 333.46 43.93 330.09 47.66
C 328.99 48.88 327.49 53.49 326.79 57.89
C 324.11 74.49 322.27 78.72 315.41 84.13
C 311.92 86.87 308.05 89.12 306.79 89.12
C 305.54 89.12 301.66 86.87 298.18 84.13"/>
<path fill="#c57a36" stroke="none" d="
M 83.78 188.55
C 82.23 186.05 85.42 162.80 88.63 153.19
C 90.44 147.73 95.57 137.30 100.01 129.99
C 108.45 116.08 111.23 108.58 112.58 96.03
C 114.42 78.87 116.83 75.73 122.44 83.22
C 127.73 90.31 125.82 96.59 106.69 134.91
C 98.87 150.54 94.04 162.11 90.96 172.57
C 86.47 187.81 85.15 190.76 83.78 188.55
M 97.51 148.00
C 99.52 144.10 99.23 140.59 96.89 140.59
C 95.07 140.59 91.48 148.02 92.29 150.11
C 93.38 152.96 95.35 152.17 97.51 148.00"/>
<path fill="#c57a36" stroke="none" d="
M 114.42 170.18
C 114.42 158.06 114.19 156.83 111.28 153.36
C 107.65 149.07 107.50 148.19 109.83 145.02
C 111.43 142.83 111.74 143.00 114.86 147.58
C 118.02 152.21 118.19 153.28 118.19 167.86
C 118.19 180.72 117.88 183.26 116.31 183.26
C 114.75 183.26 114.42 180.98 114.42 170.18"/>
<path fill="#c55436" stroke="none" d="
M 40.24 349.58
L 40.24 126.78
L 44.01 126.78
L 47.78 126.78
L 47.78 349.58
L 47.78 572.38
L 44.01 572.38
L 40.24 572.38
L 40.24 349.58"/>
<path fill="#c55436" stroke="none" d="
M 303.34 333.58
L 303.65 94.77
L 307.11 94.37
L 310.57 93.98
L 310.57 333.18
L 310.57 572.38
L 306.79 572.38
L 303.01 572.38
L 303.34 333.58"/>
<path fill="#ae3c2a" stroke="none" d="
M 113.59 306.36
C 108.75 303.41 107.42 299.75 109.41 294.92
C 111.28 290.44 116.96 289.03 125.06 291.08
C 133.13 293.10 144.71 292.79 163.71 290.06
C 172.90 288.73 184.39 287.28 189.23 286.85
C 194.07 286.42 199.34 285.79 200.95 285.45
C 204.75 284.66 207.84 277.64 217.69 247.51
C 226.25 221.28 229.11 215.21 234.18 212.60
C 238.92 210.15 242.17 212.07 244.08 218.44
C 246.14 225.30 243.74 238.22 238.29 249.58
C 235.99 254.36 232.60 263.28 230.74 269.41
C 226.73 282.58 222.35 291.79 217.85 296.52
C 211.88 302.80 207.25 303.55 169.74 304.32
C 138.26 304.97 124.64 305.99 119.45 308.05
C 118.40 308.46 115.78 307.69 113.59 306.36"/>
<path fill="#ae3c2a" stroke="none" d="
M 111.21 266.80
C 105.87 261.45 108.38 251.05 115.02 251.05
C 121.65 251.05 125.95 263.26 120.92 267.80
C 117.71 270.69 114.82 270.39 111.21 266.80"/>
<path fill="#ae3c2a" stroke="none" d="
M 139.37 266.44
L 129.75 266.01
L 129.23 259.47
C 128.95 255.87 128.80 252.79 128.90 252.62
C 129.21 252.10 173.97 254.84 174.53 255.41
C 174.83 255.70 174.68 258.51 174.22 261.65
L 173.36 267.36
L 161.18 267.11
C 154.48 266.97 144.66 266.66 139.37 266.44"/>
<path fill="#ae3c2a" stroke="none" d="
M 209.14 175.13
C 206.78 173.49 206.56 172.39 207.14 165.25
C 208.00 154.48 205.68 151.88 195.17 151.88
C 188.40 151.88 182.32 149.59 182.32 147.03
C 182.32 146.50 184.34 145.10 186.82 143.92
C 191.92 141.50 191.92 138.58 186.80 138.95
C 184.09 139.15 183.15 138.48 182.17 135.68
C 181.49 133.73 179.50 131.50 177.75 130.69
L 174.57 129.25
L 179.29 120.80
C 181.86 116.15 184.52 111.99 185.16 111.56
C 185.80 111.15 192.83 113.26 200.79 116.27
C 216.10 122.08 219.27 122.62 224.34 120.31
C 226.79 119.21 227.95 119.25 229.43 120.48
C 231.13 121.87 230.82 122.66 227.03 126.87
C 218.33 136.48 220.02 147.88 231.23 154.95
C 235.25 157.48 235.97 158.54 235.45 161.22
C 234.71 165.08 228.89 170.27 221.92 173.28
C 213.76 176.82 211.93 177.09 209.14 175.13
M 197.15 127.78
C 199.55 125.38 198.91 120.82 195.87 118.69
C 190.50 114.93 184.83 116.92 184.83 122.56
C 184.83 127.67 193.56 131.37 197.15 127.78"/>
<path fill="#4242ed" stroke="none" d="
M 207.83 196.66
C 202.32 194.65 200.72 192.75 201.63 189.31
C 203.16 183.60 204.45 182.80 212.24 182.71
C 218.23 182.65 221.43 181.76 228.36 178.21
L 237.01 173.77
L 241.79 176.45
C 249.42 180.72 249.84 181.53 246.37 185.26
C 242.34 189.55 233.65 193.90 224.16 196.36
C 215.33 198.64 213.34 198.68 207.83 196.66"/>
<path fill="#fd7d1e" stroke="none" d="
M 101.12 569.56
C 105.43 554.81 110.24 520.93 111.85 493.93
C 112.56 482.20 113.15 437.15 113.15 393.83
C 113.16 324.65 113.39 315.06 115.05 315.06
C 116.71 315.06 116.93 324.73 116.93 394.46
C 116.95 438.13 117.52 483.18 118.24 494.56
C 119.90 521.27 124.74 555.09 128.98 569.56
C 129.80 572.37 129.76 572.38 115.05 572.38
C 100.34 572.38 100.30 572.37 101.12 569.56"/>
<path fill="#fd7d1e" stroke="none" d="
M 114.42 279.92
C 114.42 276.99 114.97 276.15 116.93 276.15
C 118.90 276.15 119.45 276.99 119.45 279.92
C 119.45 282.84 118.90 283.68 116.93 283.68
C 114.97 283.68 114.42 282.84 114.42 279.92"/>
<path fill="#fd7d1e" stroke="none" d="
M 110.75 238.43
C 109.30 231.67 106.54 225.44 103.38 221.86
C 101.56 219.79 102.21 219.67 115.05 219.67
C 127.89 219.67 128.54 219.79 126.72 221.86
C 123.56 225.44 120.79 231.67 119.35 238.43
C 118.18 243.85 117.55 244.77 115.05 244.77
C 112.55 244.77 111.92 243.85 110.75 238.43"/>
<path fill="#fd7d1e" stroke="none" d="
M 106.42 211.51
C 105.82 209.94 107.25 209.62 115.05 209.62
C 122.84 209.62 124.28 209.94 123.67 211.51
C 123.13 212.90 120.92 213.39 115.05 213.39
C 109.18 213.39 106.96 212.90 106.42 211.51"/>
<path fill="#fd7d1e" stroke="none" d="
M 106.42 201.46
C 105.82 199.90 107.25 199.58 115.05 199.58
C 122.84 199.58 124.28 199.90 123.67 201.46
C 123.13 202.86 120.92 203.35 115.05 203.35
C 109.18 203.35 106.96 202.86 106.42 201.46"/>
<path fill="#fd7d1e" stroke="none" d="
M 106.88 191.42
C 106.88 189.93 108.69 189.54 115.64 189.54
C 122.91 189.54 124.28 189.87 123.67 191.42
C 123.13 192.83 120.89 193.31 114.91 193.31
C 108.61 193.31 106.88 192.90 106.88 191.42"/>
<path fill="#ffbf53" stroke="none" d="
M 147.11 571.27
C 147.11 570.65 148.10 568.93 149.32 567.43
C 150.89 565.49 155.14 563.85 164.10 561.72
C 191.77 555.11 202.60 549.18 208.36 537.45
C 211.65 530.71 211.80 529.61 211.71 512.17
C 211.61 492.79 210.29 483.48 203.11 451.26
C 197.82 427.51 195.73 414.26 191.80 379.53
C 190.06 364.26 187.84 346.18 186.83 339.36
C 185.82 332.56 184.62 323.17 184.15 318.51
L 183.28 310.04
L 195.54 310.04
C 210.38 310.04 216.18 308.46 221.96 302.85
C 227.79 297.20 231.79 289.04 237.74 270.65
C 240.44 262.29 243.71 254.10 245.00 252.45
C 247.32 249.48 247.33 249.53 248.05 263.12
C 248.45 270.63 250.31 283.83 252.17 292.47
C 257.85 318.78 257.14 327.20 246.33 361.62
C 236.55 392.77 235.87 402.28 241.02 435.87
C 244.23 456.75 244.34 458.96 242.92 471.64
C 242.08 479.07 239.07 497.01 236.23 511.51
C 232.23 531.90 231.00 541.24 230.79 552.82
C 230.38 574.02 234.12 572.38 185.95 572.38
C 164.12 572.38 147.11 571.90 147.11 571.27"/>
<path fill="#ffbf53" stroke="none" d="
M 179.80 274.85
C 179.80 256.59 184.11 233.60 191.14 214.38
C 196.11 200.79 196.18 200.71 203.30 202.86
C 206.51 203.81 212.12 204.60 215.79 204.60
C 224.36 204.60 239.41 199.82 246.78 194.76
C 249.96 192.58 252.83 190.79 253.17 190.79
C 253.51 190.79 253.29 192.63 252.70 194.87
C 252.11 197.12 250.99 201.41 250.21 204.43
L 248.78 209.90
L 246.04 207.40
C 240.20 202.07 232.56 202.98 225.44 209.87
C 221.86 213.33 219.97 217.81 212.59 240.33
C 207.83 254.85 202.80 269.36 201.40 272.57
C 199.03 278.03 198.45 278.50 192.41 279.79
C 188.87 280.56 184.58 281.17 182.88 281.17
C 180.02 281.17 179.80 280.72 179.80 274.85"/>
</g>
</svg>
