<?xml version="1.0" encoding="UTF-8" standalone="no"?>
<!DOCTYPE svg PUBLIC "-//W3C//DTD SVG 1.1//EN"
"http://www.w3.org/Graphics/SVG/1.1/DTD/svg11.dtd">
<svg width="444px" height="600px"
xmlns="http://www.w3.org/2000/svg" version="1.1">
<g transform="translate(0000, 0000) scale(1.0000, 1.0000)">
<path fill="#000000" stroke="none" d="
M 38.80 598.77
C 33.69 596.61 31.63 588.83 34.66 583.16
C 36.62 579.51 45.05 576.10 59.68 573.10
C 66.60 571.68 74.71 569.32 77.69 567.89
C 91.14 561.36 97.22 546.43 104.26 502.58
C 108.77 474.38 110.28 467.78 117.74 443.92
C 130.96 401.60 135.96 396.63 193.53 368.57
C 225.89 352.80 232.88 348.08 232.88 341.94
C 232.88 338.29 213.25 279.85 208.21 268.50
C 206.45 264.55 204.34 260.89 203.52 260.39
C 202.68 259.87 192.56 264.87 180.33 271.83
C 151.59 288.19 138.54 294.24 131.96 294.24
C 128.29 294.24 123.60 292.61 116.14 288.69
C 95.66 277.96 83.31 269.28 55.46 246.08
C 46.73 238.80 37.30 231.68 34.51 230.25
L 29.43 227.67
L 29.43 353.07
C 29.43 476.76 29.39 478.50 26.87 481.02
C 25.28 482.61 22.61 483.58 19.83 483.58
C 17.06 483.58 14.38 482.61 12.80 481.02
C 10.27 478.50 10.24 476.76 10.24 349.41
L 10.24 220.34
L 6.94 218.17
C -1.60 212.58 -2.10 195.45 6.01 186.50
C 8.44 183.81 8.71 182.14 9.94 162.05
C 10.98 145.18 12.00 143.28 20.08 143.28
C 27.50 143.28 29.43 146.65 29.43 159.59
L 29.43 170.79
L 34.02 174.46
C 36.95 176.79 40.01 181.23 42.43 186.61
C 44.52 191.28 47.78 196.75 49.66 198.77
C 54.76 204.23 91.95 231.79 104.01 239.05
C 109.80 242.53 117.86 247.01 121.94 249.01
L 129.36 252.63
L 137.29 248.48
C 141.66 246.20 155.45 236.67 167.95 227.30
C 180.45 217.92 195.71 207.30 201.86 203.69
C 219.39 193.43 218.40 194.53 216.51 187.25
C 214.16 178.27 211.26 174.97 203.34 172.23
C 195.55 169.55 190.27 169.91 159.87 175.24
C 141.82 178.40 136.03 177.79 129.58 172.02
L 126.03 168.86
L 129.87 165.63
C 134.22 161.99 141.90 158.12 156.74 152.11
C 165.91 148.40 168.26 146.67 179.15 135.66
C 185.84 128.88 193.90 121.92 197.05 120.18
C 202.60 117.12 202.83 116.75 204.48 108.09
C 205.97 100.34 205.92 97.16 204.07 84.18
C 201.03 62.74 202.26 61.93 216.55 75.99
L 226.17 85.47
L 226.88 79.51
C 227.26 76.23 226.98 71.13 226.24 68.15
C 224.73 62.01 225.47 58.85 228.42 58.85
C 229.74 58.85 233.07 64.26 238.02 74.46
C 245.27 89.42 249.51 102.97 249.51 111.19
C 249.51 115.87 250.92 116.69 263.80 119.51
C 288.16 124.85 314.42 152.12 321.18 179.08
C 323.22 187.25 323.31 187.38 328.28 188.23
C 339.92 190.22 365.81 192.13 369.65 191.28
C 375.42 190.02 376.22 187.06 377.54 162.47
C 378.17 150.86 379.82 132.18 381.23 120.96
L 383.78 100.55
L 378.64 89.99
L 373.50 79.41
L 303.51 56.44
C 265.02 43.80 223.60 30.23 211.47 26.26
C 188.37 18.72 185.53 16.95 185.53 10.23
C 185.53 5.62 188.72 1.62 193.20 0.64
C 196.18 -0.01 217.25 6.40 288.11 29.46
C 376.96 58.41 379.28 59.08 382.68 57.07
C 387.29 54.36 391.77 54.46 395.53 57.39
C 397.21 58.70 401.46 60.19 404.97 60.70
C 414.26 62.07 418.90 64.38 422.87 69.59
C 425.51 73.05 428.15 74.72 433.28 76.22
C 437.17 77.35 440.98 79.41 442.07 80.97
C 445.05 85.23 444.50 91.73 440.87 95.37
C 437.26 98.97 433.71 99.28 426.25 96.64
C 421.03 94.81 420.97 94.82 420.97 97.78
C 420.97 99.43 418.81 103.87 416.17 107.64
C 410.60 115.59 410.81 112.49 412.60 163.38
C 413.59 191.16 413.46 195.22 411.44 202.70
C 409.68 209.21 408.11 212.00 404.32 215.42
C 398.04 221.10 392.06 222.22 362.75 223.23
C 336.13 224.15 318.43 225.97 312.60 228.38
C 309.98 229.47 307.46 232.07 305.57 235.61
C 302.83 240.75 302.62 242.58 302.74 260.98
C 302.84 278.71 303.28 282.37 306.73 295.52
C 311.59 314.03 319.74 334.99 325.64 344.14
C 328.14 348.00 331.35 354.32 332.80 358.16
C 334.23 362.00 337.63 367.56 340.37 370.52
C 349.28 380.17 359.55 405.47 359.55 417.72
C 359.55 420.82 357.72 434.17 355.48 447.39
C 352.35 465.90 351.41 475.25 351.43 488.06
C 351.43 503.72 351.67 505.34 355.64 515.96
C 360.74 529.61 367.32 539.76 376.77 548.56
C 382.36 553.75 383.86 555.98 383.86 559.02
C 383.86 564.31 379.87 568.02 374.19 568.02
C 370.45 568.02 368.37 566.81 362.58 561.35
C 352.83 552.13 347.23 544.11 342.20 532.21
C 331.86 507.67 331.37 484.62 340.15 433.05
C 342.88 417.01 342.40 413.97 334.56 396.91
C 330.10 387.22 328.55 385.96 326.31 390.14
C 324.00 394.45 309.20 404.03 295.41 410.16
C 288.13 413.39 274.70 420.37 265.61 425.69
C 256.51 431.00 244.34 437.53 238.58 440.19
C 232.81 442.85 227.73 445.97 227.28 447.13
C 225.88 450.81 226.38 457.20 230.59 489.67
C 234.27 518.09 234.69 524.74 234.74 554.81
C 234.80 586.91 234.68 588.45 232.10 591.91
C 230.61 593.90 227.28 596.33 224.69 597.31
C 220.52 598.90 218.78 598.84 209.82 596.80
C 200.21 594.60 199.01 594.59 186.90 596.60
C 166.78 599.94 160.74 599.25 156.71 593.08
C 154.21 589.28 155.13 585.34 159.14 582.72
C 160.70 581.69 167.59 579.43 174.47 577.69
C 189.59 573.85 196.70 570.13 200.18 564.18
C 202.45 560.32 202.78 557.68 202.65 544.99
C 202.47 527.40 198.51 508.20 189.83 482.94
C 186.68 473.80 182.64 461.85 180.82 456.40
L 177.55 446.48
L 171.53 446.48
L 165.52 446.48
L 163.32 458.96
C 160.31 475.91 154.53 492.60 141.70 521.37
C 124.32 560.32 123.83 561.74 122.90 577.11
C 121.94 592.94 120.15 596.87 113.28 598.16
C 110.08 598.76 106.87 598.18 101.84 596.10
L 94.84 593.19
L 88.05 596.20
C 82.04 598.85 78.95 599.25 61.42 599.58
C 50.50 599.78 40.33 599.42 38.80 598.77
M 84.69 589.13
C 94.29 585.22 95.71 585.20 103.81 588.68
C 112.78 592.54 113.93 591.13 115.34 574.48
C 116.58 559.80 118.92 553.00 134.93 517.56
C 140.31 505.64 146.67 490.26 149.08 483.38
C 152.90 472.38 157.38 453.43 157.38 448.22
C 157.38 446.72 154.57 446.47 141.72 446.76
L 126.06 447.12
L 123.90 451.60
C 120.20 459.29 116.67 474.28 112.01 502.13
C 109.55 516.91 106.70 532.17 105.68 536.05
C 98.40 563.86 88.90 574.30 66.24 579.44
C 47.48 583.69 43.65 584.85 42.10 586.72
C 41.00 588.05 41.02 588.96 42.22 590.41
C 43.49 591.93 47.21 592.32 60.32 592.32
C 74.97 592.32 77.71 591.97 84.69 589.13
M 189.76 588.38
C 199.93 586.84 201.89 586.90 209.96 588.97
C 218.15 591.08 219.15 591.11 221.99 589.25
C 226.47 586.31 227.13 581.10 227.02 549.47
C 226.94 525.88 226.26 516.04 222.83 488.70
C 220.58 470.76 218.42 453.91 218.02 451.28
L 217.29 446.48
L 202.05 446.48
C 187.91 446.48 186.81 446.66 186.81 448.93
C 186.81 450.27 189.64 459.04 193.10 468.43
C 211.28 517.92 215.81 556.95 204.93 570.55
C 200.07 576.61 190.43 581.64 177.60 584.78
C 163.58 588.20 163.47 588.24 164.51 589.91
C 165.48 591.48 171.80 591.11 189.76 588.38
M 376.18 559.34
C 376.18 558.08 372.99 553.91 369.07 550.07
C 365.17 546.22 360.84 541.28 359.49 539.09
C 355.46 532.62 348.35 513.95 346.67 505.39
C 344.40 493.91 345.90 469.43 350.57 441.45
L 354.50 417.88
L 352.01 408.06
C 349.30 397.34 340.86 379.39 336.81 375.74
C 334.34 373.51 334.24 373.54 333.46 376.63
C 332.90 378.87 333.60 381.20 335.81 384.46
C 339.87 390.43 346.27 407.09 347.38 414.54
C 347.96 418.40 347.16 426.91 344.99 440.12
C 336.54 491.49 337.08 504.03 348.88 530.65
C 353.86 541.87 356.45 545.91 363.22 552.99
C 371.37 561.51 376.18 563.86 376.18 559.34
M 22.78 476.93
C 23.95 475.75 24.31 445.20 24.31 347.19
L 24.31 219.01
L 19.83 220.38
L 15.35 221.76
L 15.35 348.58
C 15.35 477.56 15.38 478.46 19.83 478.46
C 20.61 478.46 21.93 477.77 22.78 476.93
M 228.56 436.00
C 233.26 434.46 244.35 428.97 253.22 423.80
C 262.09 418.62 278.56 409.89 289.82 404.39
C 312.85 393.13 321.05 386.89 324.44 378.01
C 327.43 370.18 326.21 362.66 320.08 351.34
C 317.36 346.32 313.53 338.41 311.54 333.74
L 307.93 325.25
L 302.94 328.86
C 293.50 335.69 282.78 338.38 264.86 338.38
C 256.06 338.38 247.00 337.96 244.71 337.45
C 240.60 336.54 240.55 336.58 240.55 341.28
C 240.54 347.05 237.16 352.91 231.26 357.43
C 228.85 359.27 214.26 366.88 198.84 374.35
C 183.43 381.81 166.86 390.27 162.02 393.13
C 151.15 399.58 140.39 409.27 136.23 416.37
C 132.41 422.89 127.72 436.12 128.68 437.68
C 129.07 438.29 149.78 438.81 174.71 438.81
C 217.89 438.81 220.43 438.68 228.56 436.00
M 282.15 332.16
C 289.93 330.09 298.99 325.98 303.10 322.67
L 306.14 320.20
L 303.43 312.03
C 295.28 287.49 291.95 254.41 296.16 239.83
C 298.70 231.03 303.03 224.72 308.47 221.91
C 314.82 218.62 325.13 217.37 359.38 215.69
C 395.47 213.93 398.03 213.35 402.35 205.97
C 405.82 200.05 406.50 179.08 404.37 143.22
C 402.66 114.33 402.91 112.50 410.09 103.10
C 411.92 100.71 413.53 97.10 413.67 95.10
C 413.93 91.50 413.87 91.47 404.97 90.75
C 394.48 89.91 391.03 88.31 387.64 82.76
C 384.19 77.10 384.45 71.37 388.38 66.72
C 392.01 62.39 390.43 59.71 386.38 63.35
C 380.04 69.11 380.53 78.90 387.70 89.42
C 392.27 96.13 392.31 97.19 388.92 122.17
C 387.48 132.73 385.82 150.86 385.22 162.47
C 383.54 194.84 381.10 198.97 363.62 198.88
C 358.21 198.86 346.31 198.09 337.16 197.17
C 309.01 194.37 290.20 193.94 287.37 196.08
C 284.98 197.88 284.99 198.24 288.51 213.30
C 290.72 222.78 291.76 230.00 291.22 232.12
C 290.21 236.16 283.85 239.31 275.98 239.65
C 271.45 239.85 270.56 239.39 268.41 235.77
C 267.07 233.51 264.81 225.75 263.38 218.49
C 260.16 202.08 258.42 199.01 252.98 200.10
C 250.79 200.53 247.68 201.76 246.06 202.82
C 243.20 204.69 243.11 205.32 243.11 223.91
C 243.11 247.43 242.69 248.19 229.68 248.19
C 216.66 248.19 216.24 247.43 216.24 223.88
C 216.24 213.33 215.88 204.69 215.45 204.69
C 213.11 204.69 192.51 218.47 173.29 232.89
C 148.85 251.22 138.16 258.06 132.27 259.18
C 122.54 261.01 92.40 243.04 54.92 213.10
C 41.69 202.53 41.02 201.76 37.76 193.22
C 32.60 179.73 24.29 173.73 16.52 177.89
C 13.14 179.69 14.61 181.66 19.33 181.66
C 25.83 181.66 30.26 184.87 32.76 191.42
C 35.01 197.32 35.00 197.54 32.15 205.22
C 27.08 218.89 26.82 217.92 36.86 223.20
C 41.80 225.80 52.36 233.42 60.33 240.15
C 85.84 261.67 101.22 272.47 119.94 282.01
C 124.87 284.52 130.42 286.57 132.29 286.57
C 137.32 286.57 149.57 280.63 177.04 264.86
C 190.56 257.09 202.51 250.75 203.59 250.75
C 209.32 250.75 214.68 261.47 226.93 297.47
C 232.20 312.93 236.91 326.60 237.38 327.83
C 237.87 329.05 240.94 330.90 244.21 331.89
C 251.81 334.23 273.78 334.39 282.15 332.16
M 233.90 238.98
C 234.95 237.93 235.44 231.74 235.44 219.43
C 235.44 198.61 236.02 197.08 245.25 193.94
C 253.30 191.21 258.72 191.37 262.68 194.48
C 266.46 197.45 267.81 201.15 270.58 216.14
C 272.99 229.10 275.29 233.33 279.34 232.12
C 280.87 231.65 282.65 230.80 283.26 230.23
C 283.90 229.62 282.94 222.82 281.03 214.43
C 276.88 196.23 276.85 193.87 280.79 189.91
C 283.75 186.97 284.79 186.78 297.81 186.78
C 317.16 186.78 317.71 186.00 309.70 169.47
C 306.19 162.22 301.86 156.03 295.55 149.28
C 280.30 132.95 273.57 128.98 254.85 125.30
C 242.79 122.92 241.73 121.62 240.46 107.88
C 239.88 101.50 238.38 93.77 237.15 90.69
L 234.91 85.09
L 232.85 96.60
C 231.71 102.92 230.07 109.42 229.20 111.02
C 227.44 114.29 218.01 121.54 215.53 121.54
C 214.64 121.54 210.55 122.81 206.44 124.36
C 200.44 126.64 196.33 129.75 185.53 140.20
C 172.17 153.13 167.17 156.42 151.63 162.49
C 131.70 170.25 136.45 171.42 167.16 166.27
C 197.66 161.17 207.04 162.10 216.73 171.17
C 224.55 178.52 225.22 182.02 224.33 210.72
C 223.46 238.36 223.84 240.51 229.57 240.51
C 231.11 240.51 233.06 239.82 233.90 238.98
M 19.27 212.33
C 22.19 210.77 26.87 202.11 26.87 198.26
C 26.87 195.21 24.62 190.44 22.52 189.04
C 19.77 187.20 15.50 188.11 11.66 191.33
C 1.60 199.80 8.28 218.21 19.27 212.33
M 22.76 170.16
C 25.44 170.14 24.31 151.00 21.53 149.25
C 20.00 148.27 18.85 148.38 17.38 149.59
C 15.84 150.87 15.35 153.74 15.35 161.50
C 15.35 171.48 15.42 171.71 18.23 170.96
C 19.82 170.53 21.85 170.17 22.76 170.16
M 221.32 106.87
C 222.75 104.57 223.92 101.57 223.92 100.21
C 223.92 97.24 217.79 87.36 213.72 83.80
L 210.80 81.24
L 211.93 85.71
C 213.34 91.37 213.38 104.26 211.99 109.66
L 210.93 113.80
L 214.83 112.44
C 216.98 111.68 219.90 109.19 221.32 106.87
M 436.83 89.35
C 439.10 86.11 438.52 84.72 434.22 83.09
C 426.74 80.24 425.34 80.32 423.82 83.67
C 422.22 87.16 422.50 87.54 428.65 90.41
C 433.33 92.60 434.68 92.42 436.83 89.35
M 413.34 84.41
C 417.60 82.13 418.73 78.52 416.52 74.25
C 414.20 69.77 411.95 68.44 404.90 67.37
C 399.31 66.51 395.24 68.41 392.78 72.99
C 388.88 80.29 404.65 89.05 413.34 84.41
M 374.65 68.49
C 375.44 66.75 375.67 65.09 375.17 64.80
C 374.67 64.50 334.01 51.16 284.81 35.16
C 199.99 7.55 195.27 6.17 193.63 8.41
C 192.20 10.36 192.19 11.04 193.61 12.46
C 195.26 14.11 367.11 71.27 371.18 71.51
C 372.29 71.59 373.86 70.22 374.65 68.49"/>
<path fill="#000000" stroke="none" d="
M 197.62 150.38
C 195.21 147.95 194.49 145.89 194.49 141.36
C 194.49 136.84 195.21 134.78 197.62 132.35
C 200.06 129.93 202.12 129.21 206.65 129.21
C 214.80 129.21 218.80 133.22 218.80 141.36
C 218.80 145.89 218.08 147.95 215.67 150.38
C 213.24 152.80 211.18 153.52 206.65 153.52
C 202.12 153.52 200.06 152.80 197.62 150.38
M 212.40 147.12
C 213.81 145.71 214.96 143.13 214.96 141.36
C 214.96 139.60 213.81 137.01 212.40 135.61
C 211.00 134.20 208.41 133.05 206.65 133.05
C 204.88 133.05 202.30 134.20 200.89 135.61
C 199.48 137.01 198.33 139.60 198.33 141.36
C 198.33 143.13 199.48 145.71 200.89 147.12
C 202.30 148.53 204.88 149.68 206.65 149.68
C 208.41 149.68 211.00 148.53 212.40 147.12"/>
<path fill="#000000" stroke="none" d="
M 202.42 145.59
C 201.58 144.74 200.89 142.85 200.89 141.36
C 200.89 139.88 201.58 137.99 202.42 137.14
C 203.27 136.30 205.16 135.61 206.65 135.61
C 208.13 135.61 210.02 136.30 210.87 137.14
C 211.71 137.99 212.40 139.88 212.40 141.36
C 212.40 142.85 211.71 144.74 210.87 145.59
C 210.02 146.43 208.13 147.12 206.65 147.12
C 205.16 147.12 203.27 146.43 202.42 145.59"/>
<path fill="#c57a36" stroke="none" d="
M 16.89 476.93
C 15.71 475.75 15.35 445.51 15.35 348.58
L 15.35 221.76
L 19.83 220.38
L 24.31 219.01
L 24.31 347.19
C 24.31 477.59 24.29 478.46 19.83 478.46
C 19.05 478.46 17.73 477.77 16.89 476.93"/>
<path fill="#c57a36" stroke="none" d="
M 15.35 161.50
C 15.35 153.74 15.84 150.87 17.38 149.59
C 18.85 148.38 20.00 148.27 21.53 149.25
C 24.31 151.00 25.44 170.14 22.76 170.16
C 21.85 170.17 19.82 170.53 18.23 170.96
C 15.42 171.71 15.35 171.48 15.35 161.50"/>
<path fill="#c57a36" stroke="none" d="
M 428.65 90.41
C 422.50 87.54 422.22 87.16 423.82 83.67
C 425.34 80.32 426.74 80.24 434.22 83.09
C 438.52 84.72 439.10 86.11 436.83 89.35
C 434.68 92.42 433.33 92.60 428.65 90.41"/>
<path fill="#c57a36" stroke="none" d="
M 282.38 42.83
C 234.67 27.12 194.82 13.60 193.85 12.79
C 191.85 11.13 192.53 8.21 195.16 7.20
C 196.42 6.72 360.33 59.08 374.25 64.43
C 375.81 65.03 375.90 65.74 374.69 68.41
C 373.88 70.18 372.29 71.59 371.18 71.51
C 370.07 71.45 330.11 58.54 282.38 42.83"/>
<path fill="#ae3c2a" stroke="none" d="
M 42.22 590.41
C 41.02 588.96 41.00 588.05 42.10 586.72
C 43.65 584.85 47.48 583.69 66.24 579.44
C 88.90 574.30 98.40 563.86 105.68 536.05
C 106.70 532.17 109.55 516.91 112.01 502.13
C 116.67 474.28 120.20 459.29 123.90 451.60
L 126.06 447.12
L 141.72 446.76
C 154.57 446.47 157.38 446.72 157.38 448.22
C 157.38 453.43 152.90 472.38 149.08 483.38
C 146.67 490.26 140.31 505.64 134.93 517.56
C 118.92 553.00 116.58 559.80 115.34 574.48
C 113.93 591.13 112.78 592.54 103.81 588.68
C 95.71 585.20 94.29 585.22 84.69 589.13
C 77.71 591.97 74.97 592.32 60.32 592.32
C 47.21 592.32 43.49 591.93 42.22 590.41"/>
<path fill="#ae3c2a" stroke="none" d="
M 164.51 589.91
C 163.47 588.24 163.58 588.20 177.60 584.78
C 190.43 581.64 200.07 576.61 204.93 570.55
C 215.81 556.95 211.28 517.92 193.10 468.43
C 189.64 459.04 186.81 450.27 186.81 448.93
C 186.81 446.66 187.91 446.48 202.05 446.48
L 217.29 446.48
L 218.02 451.28
C 218.42 453.91 220.58 470.76 222.83 488.70
C 226.26 516.04 226.94 525.88 227.02 549.47
C 227.13 581.10 226.47 586.31 221.99 589.25
C 219.15 591.11 218.15 591.08 209.96 588.97
C 201.89 586.90 199.93 586.84 189.76 588.38
C 171.80 591.11 165.48 591.48 164.51 589.91"/>
<path fill="#ae3c2a" stroke="none" d="
M 244.21 331.89
C 240.94 330.90 237.87 329.05 237.38 327.83
C 236.91 326.60 232.20 312.93 226.93 297.47
C 214.68 261.47 209.32 250.75 203.59 250.75
C 202.51 250.75 190.56 257.09 177.04 264.86
C 149.57 280.63 137.32 286.57 132.29 286.57
C 130.42 286.57 124.87 284.52 119.94 282.01
C 101.22 272.47 85.84 261.67 60.33 240.15
C 52.36 233.42 41.80 225.80 36.86 223.20
C 26.82 217.92 27.08 218.89 32.15 205.22
C 35.00 197.54 35.01 197.32 32.76 191.42
C 30.26 184.87 25.83 181.66 19.33 181.66
C 14.61 181.66 13.14 179.69 16.52 177.89
C 24.29 173.73 32.60 179.73 37.76 193.22
C 41.02 201.76 41.69 202.53 54.92 213.10
C 92.40 243.04 122.54 261.01 132.27 259.18
C 138.16 258.06 148.85 251.22 173.29 232.89
C 192.51 218.47 213.11 204.69 215.45 204.69
C 215.88 204.69 216.24 213.33 216.24 223.88
C 216.24 247.43 216.66 248.19 229.68 248.19
C 242.69 248.19 243.11 247.43 243.11 223.91
C 243.11 205.32 243.20 204.69 246.06 202.82
C 247.68 201.76 250.79 200.53 252.98 200.10
C 258.42 199.01 260.16 202.08 263.38 218.49
C 264.81 225.75 267.07 233.51 268.41 235.77
C 270.56 239.39 271.45 239.85 275.98 239.65
C 283.85 239.31 290.21 236.16 291.22 232.12
C 291.76 230.00 290.72 222.78 288.51 213.30
C 284.99 198.24 284.98 197.88 287.37 196.08
C 290.20 193.94 309.01 194.37 337.16 197.17
C 346.31 198.09 358.21 198.86 363.62 198.88
C 381.10 198.97 383.54 194.84 385.22 162.47
C 385.82 150.86 387.48 132.73 388.92 122.17
C 392.33 96.99 392.31 96.41 387.19 88.46
C 384.80 84.75 382.47 79.77 382.02 77.39
C 381.05 72.20 383.81 64.77 387.42 62.84
C 391.35 60.74 391.77 62.67 388.30 66.81
C 384.46 71.37 384.22 77.14 387.64 82.76
C 391.03 88.31 394.48 89.91 404.97 90.75
C 413.87 91.47 413.93 91.50 413.67 95.10
C 413.53 97.10 411.92 100.71 410.09 103.10
C 402.91 112.50 402.66 114.33 404.37 143.22
C 406.50 179.08 405.82 200.05 402.35 205.97
C 398.03 213.35 395.47 213.93 359.38 215.69
C 325.13 217.37 314.82 218.62 308.47 221.91
C 303.03 224.72 298.70 231.03 296.16 239.83
C 291.95 254.41 295.28 287.49 303.43 312.03
L 306.14 320.20
L 303.10 322.67
C 298.99 325.98 289.93 330.09 282.15 332.16
C 273.78 334.39 251.81 334.23 244.21 331.89"/>
<path fill="#ae3c2a" stroke="none" d="
M 11.36 212.35
C 5.12 208.71 5.28 196.70 11.66 191.33
C 17.40 186.50 22.37 187.01 25.40 192.77
C 27.51 196.78 27.23 200.26 24.31 205.98
C 20.77 212.92 16.19 215.17 11.36 212.35"/>
<path fill="#ae3c2a" stroke="none" d="
M 398.33 83.22
C 393.02 79.98 391.01 76.29 392.78 72.99
C 395.24 68.41 399.31 66.51 404.90 67.37
C 411.95 68.44 414.20 69.77 416.52 74.25
C 421.21 83.32 408.66 89.51 398.33 83.22"/>
<path fill="#61615e" stroke="none" d="
M 363.22 552.99
C 356.45 545.91 353.86 541.87 348.88 530.65
C 337.08 504.03 336.54 491.49 344.99 440.12
C 347.16 426.91 347.96 418.40 347.38 414.54
C 346.27 407.09 339.87 390.43 335.81 384.46
C 333.60 381.20 332.90 378.87 333.46 376.63
C 334.24 373.54 334.34 373.51 336.81 375.74
C 340.86 379.39 349.30 397.34 352.01 408.06
L 354.50 417.88
L 350.57 441.45
C 345.90 469.43 344.40 493.91 346.67 505.39
C 348.35 513.95 355.46 532.62 359.49 539.09
C 360.84 541.28 365.17 546.22 369.07 550.07
C 372.99 553.91 376.18 558.08 376.18 559.34
C 376.18 563.86 371.37 561.51 363.22 552.99"/>
<path fill="#61615e" stroke="none" d="
M 225.16 238.54
C 223.88 237.01 223.70 230.80 224.33 210.72
C 225.22 182.02 224.55 178.52 216.73 171.17
C 207.04 162.10 197.66 161.17 167.16 166.27
C 143.08 170.30 136.44 170.52 141.49 167.13
C 142.83 166.22 147.40 164.14 151.63 162.49
C 167.17 156.42 172.17 153.13 185.53 140.20
C 196.33 129.75 200.44 126.64 206.44 124.36
C 210.55 122.81 214.64 121.54 215.53 121.54
C 218.01 121.54 227.44 114.29 229.20 111.02
C 230.07 109.42 231.71 102.92 232.85 96.60
L 234.91 85.09
L 237.15 90.69
C 238.38 93.77 239.88 101.50 240.46 107.88
C 241.73 121.62 242.79 122.92 254.85 125.30
C 273.57 128.98 280.30 132.95 295.55 149.28
C 301.86 156.03 306.19 162.22 309.70 169.47
C 317.71 186.00 317.16 186.78 297.81 186.78
C 284.79 186.78 283.75 186.97 280.79 189.91
C 276.85 193.87 276.88 196.23 281.03 214.43
C 282.94 222.82 283.90 229.62 283.26 230.23
C 282.65 230.80 280.87 231.65 279.34 232.12
C 275.29 233.33 272.99 229.10 270.58 216.14
C 267.81 201.15 266.46 197.45 262.68 194.48
C 258.72 191.37 253.30 191.21 245.25 193.94
C 236.02 197.08 235.44 198.61 235.44 219.43
C 235.44 231.74 234.95 237.93 233.90 238.98
C 231.75 241.13 227.11 240.90 225.16 238.54
M 215.67 150.38
C 218.08 147.95 218.80 145.89 218.80 141.36
C 218.80 133.22 214.80 129.21 206.65 129.21
C 202.12 129.21 200.06 129.93 197.62 132.35
C 195.21 134.78 194.49 136.84 194.49 141.36
C 194.49 145.89 195.21 147.95 197.62 150.38
C 200.06 152.80 202.12 153.52 206.65 153.52
C 211.18 153.52 213.24 152.80 215.67 150.38"/>
<path fill="#61615e" stroke="none" d="
M 211.97 109.75
C 213.32 104.43 213.36 91.33 212.03 86.55
C 211.26 83.81 211.42 83.04 212.67 83.45
C 215.12 84.26 222.51 94.36 223.48 98.23
C 224.64 102.84 220.22 110.15 215.00 112.29
L 210.89 113.96
L 211.97 109.75"/>
<path fill="#eb2e00" stroke="none" d="
M 200.89 147.12
C 195.94 142.17 198.41 134.98 205.56 133.57
C 213.29 132.05 218.06 141.47 212.40 147.12
C 211.00 148.53 208.41 149.68 206.65 149.68
C 204.88 149.68 202.30 148.53 200.89 147.12
M 210.87 145.59
C 211.71 144.74 212.40 142.85 212.40 141.36
C 212.40 139.88 211.71 137.99 210.87 137.14
C 210.02 136.30 208.13 135.61 206.65 135.61
C 205.16 135.61 203.27 136.30 202.42 137.14
C 201.58 137.99 200.89 139.88 200.89 141.36
C 200.89 142.85 201.58 144.74 202.42 145.59
C 203.27 146.43 205.16 147.12 206.65 147.12
C 208.13 147.12 210.02 146.43 210.87 145.59"/>
<path fill="#ffbf53" stroke="none" d="
M 128.68 437.68
C 127.72 436.12 132.41 422.89 136.23 416.37
C 140.39 409.27 151.15 399.58 162.02 393.13
C 166.86 390.27 183.43 381.81 198.84 374.35
C 214.26 366.88 228.85 359.27 231.26 357.43
C 237.16 352.91 240.54 347.05 240.55 341.28
C 240.55 336.58 240.60 336.54 244.71 337.45
C 247.00 337.96 256.06 338.38 264.86 338.38
C 282.46 338.38 292.72 335.90 302.46 329.28
C 305.14 327.45 307.75 326.46 308.27 327.06
C 308.78 327.66 310.81 331.89 312.80 336.46
C 314.77 341.03 318.32 348.28 320.69 352.57
C 328.94 367.51 327.55 379.02 316.26 389.07
C 312.63 392.30 302.28 398.30 289.82 404.39
C 278.56 409.89 262.09 418.62 253.22 423.80
C 227.18 439.00 228.15 438.81 174.71 438.81
C 149.78 438.81 129.07 438.29 128.68 437.68"/>
</g>
</svg>
