<?xml version="1.0" encoding="UTF-8" standalone="no"?>
<!DOCTYPE svg PUBLIC "-//W3C//DTD SVG 1.1//EN"
"http://www.w3.org/Graphics/SVG/1.1/DTD/svg11.dtd">
<svg width="317px" height="600px"
xmlns="http://www.w3.org/2000/svg" version="1.1">
<g transform="translate(0000, 0000) scale(1.0000, 1.0000)">
<path fill="#000000" stroke="none" d="
M 23.55 597.72
C 21.97 596.44 21.02 594.63 21.41 593.64
C 21.79 592.65 34.73 585.58 50.19 577.93
C 74.05 566.11 78.40 563.53 79.09 560.80
C 79.65 558.58 77.77 551.28 72.97 536.96
C 55.23 484.00 40.29 430.66 37.41 410.00
C 36.54 403.70 34.55 397.49 31.17 390.53
C 23.16 374.02 23.15 362.68 31.13 356.79
L 34.81 354.07
L 34.81 270.72
C 34.81 196.60 34.60 187.15 32.86 185.42
C 31.77 184.35 30.68 183.47 30.39 183.47
C 28.88 183.47 25.98 192.04 23.07 205.17
C 18.26 226.91 16.51 231.68 13.07 232.55
C 8.03 233.80 5.23 231.11 2.54 222.37
C 0.41 215.54 0.00 210.82 0.00 193.51
L -0.00 172.81
L 6.09 161.10
C 15.86 142.29 17.83 134.79 17.94 115.91
C 17.99 107.05 18.47 99.10 19.03 98.24
C 20.70 95.68 24.92 96.47 31.31 100.56
C 48.46 111.53 52.46 126.74 44.21 149.57
C 42.45 154.40 41.02 158.91 41.02 159.58
C 41.02 160.26 43.19 162.31 45.82 164.13
C 48.46 165.95 51.25 168.84 52.04 170.55
C 53.06 172.80 53.47 198.84 53.48 263.80
L 53.52 353.93
L 64.54 359.94
C 73.44 364.79 78.68 368.98 91.62 381.63
C 104.56 394.29 112.62 403.90 133.35 431.40
C 147.47 450.15 160.69 467.37 162.69 469.65
C 166.22 473.67 166.41 473.71 167.71 471.29
C 168.46 469.90 169.07 464.95 169.07 460.31
C 169.07 455.67 169.89 444.05 170.88 434.50
C 172.22 421.62 175.28 365.07 175.28 353.17
C 175.28 352.56 169.41 352.07 162.23 352.07
C 144.49 352.07 144.20 351.77 144.20 333.61
C 144.20 318.31 146.59 303.87 151.26 290.89
C 154.87 280.88 165.11 260.02 170.09 252.51
L 173.39 247.52
L 148.54 223.51
C 134.88 210.30 116.00 192.68 106.60 184.38
C 97.20 176.06 89.51 168.64 89.51 167.89
C 89.51 165.51 105.98 150.55 115.02 144.73
C 128.07 136.30 146.45 127.81 155.06 126.21
L 162.71 124.80
L 155.17 120.35
C 139.89 111.35 130.03 96.57 126.00 76.62
C 123.93 66.30 123.93 65.33 126.09 53.89
C 128.99 38.50 133.90 28.71 143.51 19.12
C 152.48 10.15 163.15 4.64 176.79 1.91
C 189.59 -0.64 193.87 -0.51 206.55 2.88
C 232.53 9.81 247.93 26.69 253.07 53.89
C 255.23 65.33 255.23 66.30 253.15 76.62
C 249.14 96.53 239.27 111.35 224.06 120.30
L 216.60 124.70
L 226.09 126.16
C 244.13 128.95 269.13 144.27 281.62 160.20
C 297.27 180.14 305.94 202.38 311.48 236.78
C 313.10 246.77 313.72 261.06 314.18 298.33
C 314.90 356.98 316.52 352.07 296.49 352.07
L 283.44 352.07
L 283.44 459.82
L 283.44 567.58
L 286.58 571.31
C 288.32 573.36 295.87 579.33 303.36 584.59
C 310.86 589.83 317.00 594.78 317.00 595.57
C 317.00 600.00 317.06 600.00 170.20 600.00
C 32.28 600.00 26.27 599.90 23.55 597.72
M 300.16 591.55
C 299.51 590.99 294.92 587.58 289.96 583.98
C 274.21 572.57 275.98 590.70 275.98 440.52
C 275.98 314.81 275.89 309.53 273.55 300.83
C 267.56 278.57 257.08 263.69 242.57 256.93
C 224.97 248.71 202.27 259.50 192.66 280.64
C 185.29 296.85 183.70 310.49 181.47 376.86
C 180.70 399.71 179.57 423.12 178.96 428.93
C 178.35 434.73 177.50 446.16 177.07 454.34
C 176.65 462.52 175.74 471.05 175.06 473.29
C 173.52 478.33 168.94 481.54 164.78 480.50
C 160.81 479.50 149.66 466.15 124.28 432.02
C 98.87 397.86 82.44 380.73 71.97 377.45
C 60.64 373.92 50.94 377.31 46.59 386.32
C 42.37 395.08 43.55 408.26 51.30 438.84
C 57.92 464.89 75.07 521.58 82.20 540.89
C 84.16 546.21 86.11 553.49 86.53 557.05
C 87.67 566.60 84.63 569.57 62.95 580.04
C 53.28 584.71 44.26 589.43 42.89 590.50
C 40.61 592.31 51.27 592.49 170.87 592.52
C 242.62 592.55 300.80 592.10 300.16 591.55
M 46.53 374.62
C 48.95 372.50 53.26 370.14 56.10 369.38
C 60.45 368.21 60.99 367.74 59.53 366.33
C 57.66 364.52 45.75 360.74 41.94 360.74
C 40.65 360.74 37.89 362.44 35.80 364.51
C 32.51 367.81 32.12 368.89 32.78 373.00
C 33.19 375.60 34.45 379.88 35.55 382.54
L 37.57 387.35
L 39.85 382.91
C 41.11 380.47 44.12 376.74 46.53 374.62
M 48.48 266.44
C 48.48 203.60 48.08 177.57 47.08 175.64
C 45.01 171.63 38.54 165.97 37.07 166.87
C 36.37 167.31 34.96 169.65 33.94 172.09
C 32.22 176.18 32.26 176.63 34.39 178.09
C 35.64 178.96 37.37 180.26 38.23 181.00
C 39.44 182.03 39.78 200.95 39.78 267.73
C 39.78 361.10 39.25 353.94 46.31 354.40
C 48.36 354.53 48.48 349.57 48.48 266.44
M 175.71 325.87
C 177.41 286.83 189.44 261.43 211.06 251.28
C 218.39 247.83 220.71 247.36 229.98 247.36
C 243.32 247.35 249.92 250.29 260.44 260.89
C 269.74 270.26 276.27 282.46 280.33 298.03
C 282.93 307.98 283.44 312.81 283.44 327.29
L 283.44 344.63
L 293.75 344.63
C 300.12 344.63 304.64 344.06 305.56 343.14
C 307.48 341.23 307.63 273.33 305.77 253.51
C 301.41 206.95 288.86 175.52 266.44 155.05
C 255.60 145.13 234.24 134.27 223.24 133.07
C 216.34 132.31 215.95 132.40 216.88 134.62
C 225.01 154.10 226.40 164.95 222.70 179.80
C 219.14 194.03 212.29 207.07 198.27 226.24
C 167.86 267.83 157.44 287.76 152.97 312.93
C 151.17 323.07 151.28 341.27 153.15 343.14
C 154.07 344.06 158.55 344.63 164.77 344.63
L 174.90 344.63
L 175.71 325.87
M 188.57 227.17
C 201.36 209.71 205.39 203.29 210.54 192.11
C 215.83 180.60 218.06 170.11 217.11 161.08
C 216.28 153.14 209.66 134.86 206.73 132.43
C 205.28 131.23 200.18 130.87 187.23 131.05
C 162.17 131.39 152.60 133.39 136.09 141.68
C 122.19 148.66 102.91 161.28 105.08 161.99
C 105.75 162.20 110.19 162.79 114.98 163.31
C 121.80 164.06 123.75 164.71 124.08 166.43
C 124.59 169.07 123.56 169.44 112.65 170.48
L 104.10 171.31
L 112.65 178.91
C 117.35 183.10 133.66 198.67 148.89 213.51
C 164.11 228.35 177.07 240.50 177.68 240.50
C 178.30 240.50 183.20 234.50 188.57 227.17
M 14.28 210.12
C 18.05 191.33 22.08 179.06 29.06 165.16
C 44.04 135.37 44.68 120.68 31.46 109.81
C 28.90 107.71 26.57 105.99 26.26 105.99
C 25.96 105.99 25.60 112.13 25.46 119.63
C 25.19 135.73 22.81 144.24 13.40 162.94
C 7.52 174.63 7.16 175.90 6.53 187.52
C 5.92 198.35 7.78 219.20 9.61 222.32
C 10.83 224.38 12.08 221.08 14.28 210.12
M 201.49 119.22
C 223.29 113.54 240.75 94.71 244.99 72.30
C 248.95 51.32 234.23 25.57 212.23 15.00
C 200.27 9.25 191.12 7.95 179.94 10.43
C 156.97 15.52 138.57 34.60 134.17 57.87
C 130.52 77.24 142.66 100.87 162.44 112.82
C 169.65 117.19 182.90 121.34 189.58 121.34
C 191.63 121.34 196.99 120.38 201.49 119.22"/>
<path fill="#000000" stroke="none" d="
M 148.49 163.08
C 144.19 158.78 144.19 149.90 148.49 145.60
C 150.85 143.26 152.86 142.56 157.26 142.56
C 165.18 142.56 169.07 146.44 169.07 154.34
C 169.07 158.73 168.37 160.72 166.02 163.08
C 161.71 167.37 152.81 167.37 148.49 163.08
M 162.85 159.92
C 164.22 158.55 165.34 156.05 165.34 154.34
C 165.34 152.63 164.22 150.12 162.85 148.76
C 161.48 147.40 158.97 146.28 157.26 146.28
C 155.54 146.28 153.03 147.40 151.66 148.76
C 150.30 150.12 149.18 152.63 149.18 154.34
C 149.18 156.05 150.30 158.55 151.66 159.92
C 153.03 161.28 155.54 162.40 157.26 162.40
C 158.97 162.40 161.48 161.28 162.85 159.92"/>
<path fill="#000000" stroke="none" d="
M 13.30 180.21
C 9.58 176.50 17.43 163.10 22.86 163.88
C 26.86 164.45 26.60 167.60 21.99 174.27
C 17.94 180.14 15.15 182.05 13.30 180.21"/>
<path fill="#000000" stroke="none" d="
M 153.15 158.43
C 149.67 154.96 152.30 148.76 157.26 148.76
C 158.69 148.76 160.54 149.43 161.36 150.25
C 162.18 151.07 162.85 152.90 162.85 154.34
C 162.85 155.78 162.18 157.61 161.36 158.43
C 160.54 159.25 158.70 159.92 157.26 159.92
C 155.81 159.92 153.97 159.25 153.15 158.43"/>
<path fill="#ffbf53" stroke="none" d="
M 42.89 590.50
C 44.26 589.43 53.28 584.71 62.95 580.04
C 84.63 569.57 87.67 566.60 86.53 557.05
C 86.11 553.49 84.16 546.21 82.20 540.89
C 75.07 521.58 57.92 464.89 51.30 438.84
C 43.55 408.26 42.37 395.08 46.59 386.32
C 50.94 377.31 60.64 373.92 71.97 377.45
C 82.44 380.73 98.87 397.86 124.28 432.02
C 149.66 466.15 160.81 479.50 164.78 480.50
C 168.94 481.54 173.52 478.33 175.06 473.29
C 175.74 471.05 176.65 462.52 177.07 454.34
C 177.50 446.16 178.35 434.73 178.96 428.93
C 179.57 423.12 180.70 399.71 181.47 376.86
C 183.15 326.95 184.37 309.82 187.10 297.57
C 192.97 271.29 207.36 256.10 227.97 254.45
C 234.68 253.91 236.93 254.29 242.57 256.93
C 257.08 263.69 267.56 278.57 273.55 300.83
C 275.89 309.53 275.98 314.81 275.98 440.52
C 275.98 590.70 274.21 572.57 289.96 583.98
C 294.92 587.58 299.51 590.99 300.16 591.55
C 300.80 592.10 242.62 592.55 170.87 592.52
C 51.27 592.49 40.61 592.31 42.89 590.50"/>
<path fill="#ffbf53" stroke="none" d="
M 177.67 119.22
C 155.86 113.54 138.41 94.71 134.17 72.30
C 132.97 65.91 133.07 63.12 134.77 55.48
C 139.92 32.40 159.31 13.92 182.60 9.88
C 209.64 5.19 239.35 28.04 244.99 57.87
C 248.64 77.24 236.49 100.87 216.72 112.82
C 209.51 117.19 196.25 121.34 189.58 121.34
C 187.53 121.34 182.17 120.38 177.67 119.22"/>
<path fill="#c55436" stroke="none" d="
M 41.96 353.69
C 39.90 353.16 39.78 348.01 39.78 267.73
C 39.78 200.95 39.44 182.03 38.23 181.00
C 37.37 180.26 35.64 178.96 34.39 178.09
C 32.26 176.63 32.22 176.18 33.94 172.09
C 34.96 169.65 36.37 167.31 37.07 166.87
C 38.54 165.97 45.01 171.63 47.08 175.64
C 48.08 177.57 48.48 203.60 48.48 266.44
C 48.48 349.57 48.36 354.53 46.31 354.40
C 45.11 354.32 43.15 354.00 41.96 353.69"/>
<path fill="#c55436" stroke="none" d="
M 153.15 343.14
C 151.28 341.27 151.17 323.07 152.97 312.93
C 157.44 287.76 167.86 267.83 198.27 226.24
C 212.29 207.07 219.14 194.03 222.70 179.80
C 226.40 164.95 225.01 154.10 216.88 134.62
C 215.95 132.40 216.34 132.31 223.24 133.07
C 234.24 134.27 255.60 145.13 266.44 155.05
C 288.86 175.52 301.41 206.95 305.77 253.51
C 307.63 273.33 307.48 341.23 305.56 343.14
C 304.64 344.06 300.12 344.63 293.75 344.63
L 283.44 344.63
L 283.44 327.29
C 283.44 312.81 282.93 307.98 280.33 298.03
C 276.27 282.46 269.74 270.26 260.44 260.89
C 249.92 250.29 243.32 247.35 229.98 247.36
C 220.71 247.36 218.39 247.83 211.06 251.28
C 195.77 258.46 187.14 270.46 180.33 293.99
C 177.15 304.93 176.39 310.20 175.71 325.87
L 174.90 344.63
L 164.77 344.63
C 158.55 344.63 154.07 344.06 153.15 343.14"/>
<path fill="#c55436" stroke="none" d="
M 9.61 222.32
C 7.78 219.20 5.92 198.35 6.53 187.52
C 7.16 175.88 7.52 174.63 13.44 162.87
C 22.75 144.37 25.45 134.60 25.47 119.32
C 25.47 111.68 25.98 106.61 26.73 106.61
C 29.08 106.62 37.42 115.28 39.22 119.58
C 43.29 129.29 40.24 142.95 29.06 165.16
C 22.08 179.06 18.05 191.33 14.28 210.12
C 12.08 221.08 10.83 224.38 9.61 222.32
M 21.99 174.27
C 26.60 167.60 26.86 164.45 22.86 163.88
C 19.29 163.38 12.43 171.27 12.43 175.87
C 12.43 183.19 16.29 182.54 21.99 174.27"/>
<path fill="#219f23" stroke="none" d="
M 148.89 213.51
C 133.66 198.67 117.35 183.10 112.65 178.91
L 104.10 171.31
L 112.65 170.48
C 123.56 169.44 124.59 169.07 124.08 166.43
C 123.75 164.71 121.80 164.06 114.98 163.31
C 110.19 162.79 105.75 162.20 105.08 161.99
C 102.91 161.28 122.19 148.66 136.09 141.68
C 152.58 133.39 162.09 131.42 187.24 131.07
C 200.15 130.90 205.32 131.26 206.75 132.45
C 209.66 134.86 216.28 153.16 217.11 161.08
C 218.42 173.53 212.85 191.03 202.31 207.61
C 195.60 218.14 178.86 240.50 177.68 240.50
C 177.07 240.50 164.11 228.35 148.89 213.51
M 166.02 163.08
C 168.37 160.72 169.07 158.73 169.07 154.34
C 169.07 146.44 165.18 142.56 157.26 142.56
C 152.86 142.56 150.85 143.26 148.49 145.60
C 144.19 149.90 144.19 158.78 148.49 163.08
C 150.85 165.42 152.86 166.12 157.26 166.12
C 161.66 166.12 163.66 165.42 166.02 163.08"/>
<path fill="#eb2e00" stroke="none" d="
M 151.66 159.92
C 146.85 155.12 149.25 148.15 156.20 146.79
C 163.71 145.31 168.35 154.44 162.85 159.92
C 161.48 161.28 158.97 162.40 157.26 162.40
C 155.54 162.40 153.03 161.28 151.66 159.92
M 161.36 158.43
C 162.18 157.61 162.85 155.78 162.85 154.34
C 162.85 152.90 162.18 151.07 161.36 150.25
C 157.88 146.78 151.66 149.39 151.66 154.34
C 151.66 155.78 152.33 157.61 153.15 158.43
C 153.97 159.25 155.81 159.92 157.26 159.92
C 158.70 159.92 160.54 159.25 161.36 158.43"/>
<path fill="#ae3c2a" stroke="none" d="
M 35.62 382.70
C 32.27 374.71 31.82 369.76 34.11 366.26
C 37.46 361.18 41.71 360.24 50.61 362.63
C 61.00 365.43 62.73 367.60 56.02 369.40
C 49.91 371.05 42.98 376.83 39.85 382.91
L 37.57 387.35
L 35.62 382.70"/>
</g>
</svg>
