<?xml version="1.0" encoding="UTF-8" standalone="no"?>
<!DOCTYPE svg PUBLIC "-//W3C//DTD SVG 1.1//EN"
"http://www.w3.org/Graphics/SVG/1.1/DTD/svg11.dtd">
<svg width="318px" height="600px"
xmlns="http://www.w3.org/2000/svg" version="1.1">
<g transform="translate(0000, 0000) scale(1.0000, 1.0000)">
<path fill="#000000" stroke="none" d="
M 24.77 597.72
C 23.19 596.44 22.25 594.63 22.63 593.64
C 23.02 592.65 35.95 585.58 51.39 577.93
C 75.24 566.11 79.59 563.53 80.27 560.80
C 80.83 558.58 78.95 551.28 74.16 536.96
C 56.45 484.04 41.50 430.66 38.63 410.03
C 37.76 403.77 35.74 397.46 32.31 390.35
C 29.54 384.58 26.94 377.10 26.55 373.70
C 25.19 362.31 31.03 354.57 42.45 352.65
C 45.94 352.07 47.20 351.25 47.20 349.57
C 47.20 348.33 40.78 337.08 32.93 324.58
C 24.51 311.16 18.66 300.57 18.65 298.70
C 18.63 294.60 20.77 292.56 25.08 292.56
C 28.11 292.56 29.70 294.31 37.87 306.50
C 43.00 314.17 47.20 319.48 47.20 318.31
C 47.20 315.92 19.89 276.73 11.54 267.15
C -4.42 248.81 -3.80 230.76 13.04 223.00
C 19.91 219.84 24.52 220.09 32.38 224.07
C 47.76 231.84 48.95 251.33 34.45 257.90
C 31.55 259.20 27.68 260.29 25.84 260.31
C 22.63 260.33 22.96 260.94 33.09 273.66
C 38.93 280.98 44.22 287.52 44.83 288.16
C 45.51 288.87 45.96 267.57 45.96 235.17
L 45.96 180.99
L 26.96 180.99
C 6.57 180.99 4.97 180.53 4.97 174.79
C 4.97 169.03 6.53 168.60 27.58 168.60
L 47.20 168.60
L 47.20 163.64
L 47.20 158.68
L 27.58 158.68
C 6.98 158.68 4.97 158.18 4.97 153.10
C 4.97 148.02 6.98 147.52 27.58 147.52
L 47.20 147.52
L 47.20 140.33
C 47.20 136.38 47.87 132.47 48.69 131.65
C 50.61 129.74 54.98 129.74 56.89 131.65
C 58.03 132.79 58.38 159.48 58.38 244.23
L 58.38 355.31
L 68.01 361.03
C 85.16 371.23 104.93 392.14 134.48 431.40
C 148.60 450.15 161.81 467.37 163.81 469.65
C 167.34 473.67 167.52 473.71 168.83 471.29
C 169.57 469.90 170.18 464.95 170.18 460.31
C 170.18 455.67 171.00 444.05 171.99 434.50
C 173.33 421.62 176.39 365.07 176.39 353.17
C 176.39 352.56 170.53 352.07 163.35 352.07
C 145.62 352.07 145.34 351.77 145.34 333.61
C 145.34 318.31 147.72 303.87 152.39 290.89
C 155.99 280.88 166.23 260.02 171.20 252.51
L 174.50 247.52
L 149.67 223.51
C 136.02 210.30 117.15 192.68 107.76 184.38
C 98.37 176.06 90.68 168.64 90.68 167.89
C 90.68 165.51 107.14 150.55 116.17 144.73
C 129.21 136.30 147.58 127.81 156.18 126.21
L 163.83 124.80
L 156.29 120.35
C 141.03 111.35 131.17 96.57 127.15 76.62
C 125.08 66.30 125.08 65.33 127.24 53.89
C 130.13 38.50 135.04 28.71 144.64 19.12
C 153.61 10.15 164.27 4.64 177.89 1.91
C 190.69 -0.64 194.96 -0.51 207.63 2.88
C 233.59 9.81 248.98 26.69 254.11 53.89
C 256.28 65.33 256.28 66.30 254.20 76.62
C 250.19 96.53 240.33 111.35 225.13 120.30
L 217.68 124.70
L 227.16 126.16
C 245.18 128.95 270.16 144.27 282.65 160.20
C 298.29 180.14 306.94 202.38 312.48 236.78
C 314.10 246.77 314.72 261.06 315.18 298.33
C 315.90 356.98 317.52 352.07 297.50 352.07
L 284.46 352.07
L 284.46 459.82
L 284.46 567.58
L 287.60 571.31
C 289.34 573.36 296.88 579.33 304.37 584.59
C 311.86 589.83 318.00 594.78 318.00 595.57
C 318.00 600.00 318.06 600.00 171.31 600.00
C 33.50 600.00 27.49 599.90 24.77 597.72
M 301.17 591.55
C 300.52 590.99 295.94 587.58 290.98 583.98
C 275.24 572.57 277.01 590.70 277.01 440.52
C 277.01 314.81 276.92 309.53 274.59 300.83
C 268.60 278.57 258.13 263.69 243.63 256.93
C 226.04 248.71 203.36 259.50 193.76 280.64
C 186.39 296.85 184.80 310.49 182.58 376.86
C 181.81 399.71 180.68 423.12 180.06 428.93
C 179.45 434.73 178.60 446.43 178.18 454.96
C 177.28 472.98 176.01 478.18 172.01 479.99
C 164.73 483.31 159.67 478.09 125.42 432.02
C 100.03 397.86 83.62 380.73 73.15 377.45
C 65.39 375.02 59.97 375.52 53.94 379.19
C 47.85 382.90 45.46 389.36 45.63 401.65
C 45.86 418.66 60.06 471.57 81.44 535.18
C 85.15 546.24 88.20 557.21 88.20 559.56
C 88.20 566.71 83.56 570.64 64.15 580.04
C 54.48 584.71 45.46 589.43 44.10 590.50
C 41.82 592.31 52.47 592.49 171.98 592.52
C 243.68 592.55 301.81 592.10 301.17 591.55
M 47.00 375.16
C 49.07 373.21 53.72 370.64 57.36 369.46
L 63.97 367.30
L 59.62 364.62
C 51.86 359.85 46.69 359.08 41.20 361.88
C 33.32 365.89 32.19 371.52 36.98 383.03
L 38.78 387.35
L 41.02 383.03
C 42.25 380.67 44.94 377.12 47.00 375.16
M 55.90 243.12
C 55.90 155.28 55.60 135.17 54.26 134.07
C 51.44 131.73 49.69 135.07 49.69 142.81
L 49.69 150.00
L 30.06 150.00
C 9.96 150.00 5.83 150.89 8.88 154.56
C 9.90 155.79 15.12 156.20 29.96 156.20
L 49.69 156.20
L 49.69 163.64
L 49.69 171.07
L 29.96 171.07
C 13.95 171.07 9.95 171.42 8.70 172.93
C 7.47 174.42 7.47 175.17 8.70 176.65
C 9.95 178.15 13.88 178.51 29.35 178.51
L 48.47 178.51
L 48.15 235.75
C 47.91 278.45 47.45 293.10 46.36 293.47
C 45.55 293.73 40.56 288.48 35.28 281.79
C 29.99 275.10 22.76 266.53 19.19 262.76
C 12.33 255.46 7.45 247.23 7.45 242.96
C 7.45 238.77 10.94 233.24 14.87 231.22
C 19.59 228.78 23.71 228.84 29.17 231.43
C 36.81 235.07 38.40 247.13 31.65 250.20
C 26.97 252.33 23.86 251.98 22.35 249.16
C 21.27 247.14 20.55 246.92 18.57 247.97
C 15.38 249.67 17.14 253.30 22.50 256.07
C 26.07 257.90 26.62 257.85 32.06 255.15
C 46.11 248.16 44.57 233.11 29.07 226.03
C 22.31 222.93 22.07 222.92 16.73 224.95
C 13.74 226.09 9.61 228.93 7.58 231.25
C 0.16 239.68 1.43 248.91 11.75 261.57
C 14.81 265.33 24.62 278.63 33.56 291.15
C 48.73 312.40 49.79 314.26 49.44 318.95
C 49.24 321.72 48.41 324.20 47.59 324.47
C 46.78 324.73 41.60 318.22 36.07 309.99
C 30.56 301.77 25.55 295.04 24.97 295.04
C 24.38 295.04 23.22 295.87 22.36 296.90
C 21.08 298.44 23.24 302.63 35.25 321.79
C 43.19 334.48 49.69 345.87 49.69 347.11
C 49.69 349.33 51.24 350.53 54.35 350.73
C 55.58 350.80 55.90 328.51 55.90 243.12
M 176.81 325.87
C 178.51 286.83 190.54 261.43 212.14 251.28
C 219.47 247.83 221.78 247.36 231.05 247.36
C 244.38 247.35 250.97 250.29 261.48 260.89
C 270.77 270.26 277.31 282.46 281.36 298.03
C 283.95 307.98 284.46 312.81 284.46 327.29
L 284.46 344.63
L 294.77 344.63
C 301.13 344.63 305.65 344.06 306.57 343.14
C 308.48 341.23 308.63 273.33 306.78 253.51
C 302.42 206.95 289.88 175.52 267.48 155.05
C 256.65 145.13 235.31 134.27 224.31 133.07
C 217.42 132.31 217.02 132.40 217.95 134.62
C 226.08 154.10 227.47 164.95 223.77 179.80
C 220.22 194.03 213.37 207.07 199.36 226.24
C 174.35 260.47 165.83 274.86 158.83 294.79
C 153.78 309.10 150.90 339.77 154.28 343.14
C 155.20 344.06 159.67 344.63 165.88 344.63
L 176.01 344.63
L 176.81 325.87
M 20.45 244.21
C 22.22 244.21 24.06 245.24 24.82 246.66
C 25.94 248.73 26.60 248.89 29.14 247.72
C 32.99 245.98 33.75 243.93 32.17 239.45
C 31.35 237.09 29.30 235.13 26.19 233.71
C 21.80 231.74 21.15 231.73 17.58 233.58
C 12.31 236.29 9.48 241.86 11.32 245.88
C 12.67 248.84 12.74 248.85 15.04 246.56
C 16.33 245.27 18.77 244.21 20.45 244.21
M 189.67 227.17
C 202.45 209.71 206.48 203.29 211.62 192.11
C 216.91 180.60 219.13 170.11 218.19 161.08
C 217.36 153.14 210.74 134.86 207.82 132.43
C 206.36 131.23 201.27 130.87 188.33 131.05
C 163.29 131.39 153.72 133.39 137.22 141.68
C 123.34 148.66 104.07 161.28 106.24 161.99
C 106.92 162.20 111.35 162.79 116.13 163.31
C 122.95 164.06 124.90 164.71 125.22 166.43
C 125.73 169.07 124.70 169.44 113.81 170.48
L 105.26 171.31
L 113.81 178.91
C 118.50 183.10 134.80 198.67 150.02 213.51
C 165.22 228.35 178.18 240.50 178.79 240.50
C 179.41 240.50 184.30 234.50 189.67 227.17
M 202.58 119.22
C 224.36 113.54 241.80 94.71 246.04 72.30
C 250.00 51.32 235.30 25.57 213.31 15.00
C 201.36 9.25 192.22 7.95 181.05 10.43
C 158.09 15.52 139.71 34.60 135.31 57.87
C 131.66 77.24 143.80 100.87 163.56 112.82
C 170.76 117.19 184.01 121.34 190.68 121.34
C 192.73 121.34 198.08 120.38 202.58 119.22"/>
<path fill="#000000" stroke="none" d="
M 149.62 163.08
C 145.32 158.78 145.32 149.90 149.62 145.60
C 151.98 143.26 153.98 142.56 158.38 142.56
C 166.29 142.56 170.18 146.44 170.18 154.34
C 170.18 158.73 169.48 160.72 167.14 163.08
C 162.83 167.37 153.93 167.37 149.62 163.08
M 163.97 159.92
C 165.34 158.55 166.45 156.05 166.45 154.34
C 166.45 152.63 165.34 150.12 163.97 148.76
C 162.60 147.40 160.09 146.28 158.38 146.28
C 156.66 146.28 154.16 147.40 152.79 148.76
C 151.42 150.12 150.30 152.63 150.30 154.34
C 150.30 156.05 151.42 158.55 152.79 159.92
C 154.16 161.28 156.66 162.40 158.38 162.40
C 160.09 162.40 162.60 161.28 163.97 159.92"/>
<path fill="#000000" stroke="none" d="
M 154.28 158.43
C 150.80 154.96 153.42 148.76 158.38 148.76
C 159.82 148.76 161.66 149.43 162.48 150.25
C 163.30 151.07 163.97 152.90 163.97 154.34
C 163.97 155.78 163.30 157.61 162.48 158.43
C 161.66 159.25 159.82 159.92 158.38 159.92
C 156.94 159.92 155.10 159.25 154.28 158.43"/>
<path fill="#ffbf53" stroke="none" d="
M 44.10 590.50
C 45.46 589.43 54.48 584.71 64.15 580.04
C 83.56 570.64 88.20 566.71 88.20 559.56
C 88.20 557.21 85.15 546.24 81.44 535.18
C 60.06 471.57 45.86 418.66 45.63 401.65
C 45.46 389.36 47.85 382.90 53.94 379.19
C 59.97 375.52 65.39 375.02 73.15 377.45
C 83.62 380.73 100.03 397.86 125.42 432.02
C 159.67 478.09 164.73 483.31 172.01 479.99
C 176.01 478.18 177.28 472.98 178.18 454.96
C 178.60 446.43 179.45 434.73 180.06 428.93
C 180.68 423.12 181.81 399.71 182.58 376.86
C 184.25 326.95 185.47 309.82 188.20 297.57
C 194.07 271.29 208.44 256.10 229.03 254.45
C 235.74 253.91 237.99 254.29 243.63 256.93
C 258.13 263.69 268.60 278.57 274.59 300.83
C 276.92 309.53 277.01 314.81 277.01 440.52
C 277.01 590.70 275.24 572.57 290.98 583.98
C 295.94 587.58 300.52 590.99 301.17 591.55
C 301.81 592.10 243.68 592.55 171.98 592.52
C 52.47 592.49 41.82 592.31 44.10 590.50"/>
<path fill="#ffbf53" stroke="none" d="
M 178.78 119.22
C 156.99 113.54 139.55 94.71 135.31 72.30
C 134.11 65.91 134.21 63.12 135.91 55.48
C 141.05 32.40 160.43 13.92 183.71 9.88
C 210.72 5.19 240.41 28.04 246.04 57.87
C 249.69 77.24 237.56 100.87 217.79 112.82
C 210.59 117.19 197.35 121.34 190.68 121.34
C 188.63 121.34 183.27 120.38 178.78 119.22"/>
<path fill="#219f23" stroke="none" d="
M 150.02 213.51
C 134.80 198.67 118.50 183.10 113.81 178.91
L 105.26 171.31
L 113.81 170.48
C 124.70 169.44 125.73 169.07 125.22 166.43
C 124.90 164.71 122.95 164.06 116.13 163.31
C 111.35 162.79 106.92 162.20 106.24 161.99
C 104.07 161.28 123.34 148.66 137.22 141.68
C 153.71 133.39 163.21 131.42 188.34 131.07
C 201.23 130.90 206.40 131.26 207.83 132.45
C 210.74 134.86 217.36 153.16 218.19 161.08
C 219.49 173.53 213.93 191.03 203.40 207.61
C 196.69 218.14 179.97 240.50 178.79 240.50
C 178.18 240.50 165.22 228.35 150.02 213.51
M 167.14 163.08
C 169.48 160.72 170.18 158.73 170.18 154.34
C 170.18 146.44 166.29 142.56 158.38 142.56
C 153.98 142.56 151.98 143.26 149.62 145.60
C 145.32 149.90 145.32 158.78 149.62 163.08
C 151.98 165.42 153.98 166.12 158.38 166.12
C 162.78 166.12 164.78 165.42 167.14 163.08"/>
<path fill="#c55436" stroke="none" d="
M 51.24 350.01
C 50.38 349.66 49.69 348.36 49.69 347.11
C 49.69 345.87 43.19 334.48 35.25 321.79
C 23.24 302.63 21.08 298.44 22.36 296.90
C 23.22 295.87 24.38 295.04 24.97 295.04
C 25.55 295.04 30.56 301.77 36.07 309.99
C 41.60 318.22 46.78 324.73 47.59 324.47
C 48.41 324.20 49.24 321.72 49.44 318.95
C 49.79 314.26 48.73 312.40 33.56 291.15
C 24.62 278.63 14.81 265.33 11.75 261.57
C 1.43 248.91 0.16 239.68 7.58 231.25
C 9.61 228.93 13.74 226.09 16.73 224.95
C 22.07 222.92 22.31 222.93 29.07 226.03
C 44.57 233.11 46.11 248.16 32.06 255.15
C 26.62 257.85 26.07 257.90 22.50 256.07
C 17.14 253.30 15.38 249.67 18.57 247.97
C 20.55 246.92 21.27 247.14 22.35 249.16
C 23.86 251.98 26.97 252.33 31.65 250.20
C 38.40 247.13 36.81 235.07 29.17 231.43
C 23.71 228.84 19.59 228.78 14.87 231.22
C 10.94 233.24 7.45 238.77 7.45 242.96
C 7.45 247.23 12.33 255.46 19.19 262.76
C 22.76 266.53 29.99 275.10 35.28 281.79
C 40.56 288.48 45.55 293.73 46.36 293.47
C 47.45 293.10 47.91 278.45 48.15 235.75
L 48.47 178.51
L 29.35 178.51
C 13.88 178.51 9.95 178.15 8.70 176.65
C 7.47 175.17 7.47 174.42 8.70 172.93
C 9.95 171.42 13.95 171.07 29.96 171.07
L 49.69 171.07
L 49.69 163.64
L 49.69 156.20
L 29.96 156.20
C 15.12 156.20 9.90 155.79 8.88 154.56
C 5.83 150.89 9.96 150.00 30.00 150.00
L 49.56 150.00
L 49.94 142.25
C 50.26 135.46 50.62 134.50 52.79 134.50
C 55.25 134.50 55.28 135.43 55.60 242.67
C 55.92 354.71 56.04 351.94 51.24 350.01"/>
<path fill="#c55436" stroke="none" d="
M 154.28 343.14
C 150.90 339.77 153.78 309.10 158.83 294.79
C 165.83 274.86 174.35 260.47 199.36 226.24
C 213.37 207.07 220.22 194.03 223.77 179.80
C 227.47 164.95 226.08 154.10 217.95 134.62
C 217.02 132.40 217.42 132.31 224.31 133.07
C 235.31 134.27 256.65 145.13 267.48 155.05
C 289.88 175.52 302.42 206.95 306.78 253.51
C 308.63 273.33 308.48 341.23 306.57 343.14
C 305.65 344.06 301.13 344.63 294.77 344.63
L 284.46 344.63
L 284.46 327.29
C 284.46 312.81 283.95 307.98 281.36 298.03
C 277.31 282.46 270.77 270.26 261.48 260.89
C 250.97 250.29 244.38 247.35 231.05 247.36
C 221.78 247.36 219.47 247.83 212.14 251.28
C 196.86 258.46 188.24 270.46 181.43 293.99
C 178.25 304.93 177.50 310.20 176.81 325.87
L 176.01 344.63
L 165.88 344.63
C 159.67 344.63 155.20 344.06 154.28 343.14"/>
<path fill="#eb2e00" stroke="none" d="
M 152.79 159.92
C 147.98 155.12 150.38 148.15 157.32 146.79
C 164.83 145.31 169.46 154.44 163.97 159.92
C 162.60 161.28 160.09 162.40 158.38 162.40
C 156.66 162.40 154.16 161.28 152.79 159.92
M 162.48 158.43
C 163.30 157.61 163.97 155.78 163.97 154.34
C 163.97 152.90 163.30 151.07 162.48 150.25
C 159.00 146.78 152.79 149.39 152.79 154.34
C 152.79 155.78 153.46 157.61 154.28 158.43
C 155.10 159.25 156.94 159.92 158.38 159.92
C 159.82 159.92 161.66 159.25 162.48 158.43"/>
<path fill="#ae3c2a" stroke="none" d="
M 36.92 382.90
C 32.04 371.24 33.55 364.97 42.05 361.57
C 47.61 359.37 52.40 360.20 59.62 364.62
L 63.97 367.30
L 57.36 369.46
C 50.01 371.85 44.40 376.52 41.02 383.03
L 38.78 387.35
L 36.92 382.90"/>
</g>
</svg>
