<?xml version="1.0" encoding="UTF-8" standalone="no"?>
<!DOCTYPE svg PUBLIC "-//W3C//DTD SVG 1.1//EN"
"http://www.w3.org/Graphics/SVG/1.1/DTD/svg11.dtd">
<svg width="379px" height="600px"
xmlns="http://www.w3.org/2000/svg" version="1.1">
<g transform="translate(0000, 0000) scale(1.0000, 1.0000)">
<path fill="#000000" stroke="none" d="
M 0.47 598.06
C -0.80 594.75 0.92 592.56 6.05 590.94
C 17.05 587.44 79.12 558.04 80.37 555.74
C 81.34 553.91 80.68 550.31 77.75 541.42
C 75.61 534.88 66.80 505.95 58.18 477.16
C 49.55 448.36 39.90 416.79 36.71 407.04
C 29.22 384.09 27.22 374.29 27.19 360.63
C 27.14 334.05 33.80 321.01 49.67 316.64
C 60.25 313.73 78.02 320.13 92.11 331.95
C 100.14 338.68 125.90 369.87 153.77 406.59
C 163.45 419.34 175.49 434.15 180.54 439.50
L 189.72 449.22
L 190.60 426.01
C 191.08 413.25 192.91 386.51 194.69 366.59
C 196.45 346.68 198.28 321.80 198.75 311.31
L 199.60 292.24
L 184.68 292.24
C 164.61 292.24 163.80 291.62 163.20 275.87
C 162.89 267.50 164.04 256.03 167.51 233.00
C 170.12 215.72 171.97 200.82 171.61 199.89
C 171.26 198.97 168.42 197.56 165.29 196.78
C 157.24 194.75 149.98 189.01 145.84 181.40
C 140.49 171.56 140.14 165.61 144.07 150.87
C 148.19 135.39 152.30 125.42 166.26 97.06
C 179.49 70.16 180.69 66.28 177.78 60.16
C 175.25 54.81 166.23 48.53 157.30 45.88
C 153.77 44.83 145.88 43.97 139.79 43.98
C 115.15 43.99 89.20 54.41 69.20 72.30
C 62.80 78.03 54.68 84.18 51.16 85.98
C 43.69 89.77 36.54 90.27 35.31 87.09
C 33.06 81.22 51.52 58.95 67.38 48.41
C 80.40 39.75 95.77 33.12 125.42 23.33
C 140.04 18.50 156.64 12.50 162.34 9.97
C 184.05 0.35 199.43 -1.20 233.48 2.84
C 263.48 6.40 291.92 17.69 312.66 34.28
C 340.50 56.56 360.84 93.01 365.97 129.87
C 366.83 136.02 367.36 168.50 367.36 214.75
C 367.36 287.94 367.29 289.72 364.77 292.24
C 362.47 294.54 360.46 294.83 346.66 294.83
L 331.14 294.83
L 331.11 421.23
C 331.09 544.14 331.01 547.78 328.54 553.24
C 326.65 557.39 326.33 559.47 327.30 561.28
C 328.68 563.87 357.27 583.09 370.98 590.64
C 376.54 593.72 379.00 595.81 378.73 597.25
C 378.35 599.19 362.90 599.38 189.77 599.68
C 22.97 599.97 1.13 599.78 0.47 598.06
M 356.26 592.40
C 356.88 591.40 342.04 581.08 328.23 572.91
C 318.98 567.45 317.40 561.44 322.09 549.57
C 324.62 543.16 324.67 539.96 324.67 404.37
C 324.67 261.67 324.23 246.76 319.41 226.29
C 314.36 204.85 301.56 183.74 289.19 176.50
C 277.61 169.71 267.06 168.06 255.28 171.19
C 230.36 177.83 216.47 197.74 210.12 235.91
C 209.05 242.35 207.61 261.89 206.94 279.31
C 205.60 313.22 204.09 336.52 201.15 368.53
C 198.79 394.19 196.63 427.66 196.25 444.16
L 195.97 457.06
L 192.23 458.37
C 188.65 459.62 188.06 459.22 177.70 448.24
C 171.78 441.96 158.66 425.96 148.56 412.69
C 118.59 373.34 93.28 342.83 85.53 336.70
C 71.26 325.44 57.99 321.17 48.96 324.94
C 39.44 328.91 33.62 342.04 33.66 359.39
C 33.68 372.17 35.75 381.50 44.45 408.06
C 58.05 449.61 87.96 550.98 87.96 555.53
C 87.96 562.38 86.34 564.27 76.72 568.59
C 71.87 570.78 58.47 576.76 46.92 581.92
C 35.36 587.07 26.23 591.79 26.62 592.41
C 27.54 593.90 355.34 593.88 356.26 592.40
M 359.34 285.52
C 361.28 283.58 361.51 153.03 359.60 134.88
C 354.85 89.86 324.12 45.22 283.85 24.84
C 269.03 17.34 232.83 7.47 232.83 10.94
C 232.83 11.26 234.24 13.60 235.96 16.14
C 237.68 18.67 240.12 25.10 241.37 30.41
C 243.56 39.67 243.56 40.40 241.34 47.52
C 237.89 58.60 231.15 70.58 222.12 81.63
C 217.70 87.06 210.12 96.38 205.29 102.32
C 200.46 108.27 194.54 117.03 192.16 121.78
C 186.28 133.50 185.52 140.46 188.78 152.59
C 190.21 157.91 191.39 164.38 191.41 166.93
C 191.45 172.58 187.43 184.64 182.99 192.21
C 180.29 196.82 178.85 203.55 174.60 231.67
C 171.77 250.33 169.45 267.66 169.45 270.19
C 169.45 276.13 171.53 283.37 173.63 284.69
C 174.53 285.27 180.86 285.75 187.69 285.75
L 200.09 285.78
L 200.91 265.41
C 203.44 201.36 219.22 172.01 255.72 163.45
C 263.08 161.73 265.93 161.64 273.13 162.91
C 292.32 166.28 305.83 176.51 315.24 194.81
C 325.50 214.73 329.41 232.69 330.71 266.02
L 331.54 287.07
L 344.67 287.07
C 353.14 287.07 358.33 286.53 359.34 285.52
M 175.81 187.81
C 177.78 185.83 180.68 180.36 182.27 175.56
L 185.15 166.90
L 181.69 154.72
C 178.25 142.59 178.25 142.47 180.35 133.20
C 183.94 117.44 188.13 110.69 213.88 79.18
C 225.74 64.67 231.79 54.47 234.20 44.86
C 235.52 39.61 235.42 37.37 233.56 30.49
C 229.94 17.11 221.28 9.44 207.42 7.31
C 200.87 6.30 184.38 9.08 174.28 12.91
C 168.09 15.25 166.49 16.50 164.91 20.29
C 163.19 24.38 163.22 25.22 165.13 28.44
C 167.14 31.85 167.11 32.24 164.50 35.90
L 161.75 39.76
L 167.69 42.03
C 176.14 45.25 184.49 53.65 185.71 60.12
C 187.34 68.86 184.34 77.88 169.64 108.38
C 155.97 136.76 151.63 147.65 148.77 160.75
C 147.60 166.12 147.78 167.81 150.10 173.03
C 153.48 180.69 158.31 185.87 164.92 188.92
C 171.60 192.01 171.60 192.01 175.81 187.81
M 61.44 68.53
C 76.60 55.13 99.96 43.05 117.99 39.30
C 123.61 38.12 133.06 37.46 142.12 37.59
C 156.17 37.80 157.15 37.64 159.39 34.89
C 161.59 32.16 161.61 31.75 159.65 28.76
C 157.96 26.19 157.83 24.91 159.00 22.36
C 160.14 19.85 160.10 19.31 158.80 19.85
C 157.90 20.22 147.85 23.56 136.47 27.25
C 108.32 36.36 89.16 43.98 77.79 50.57
C 68.58 55.93 47.86 74.57 47.86 77.52
C 47.86 79.76 51.35 77.46 61.44 68.53"/>
<path fill="#000000" stroke="none" d="
M 186.85 33.04
C 184.40 30.58 183.68 28.50 183.68 23.92
C 183.68 15.69 187.73 11.64 195.97 11.64
C 204.21 11.64 208.26 15.69 208.26 23.92
C 208.26 32.16 204.21 36.21 195.97 36.21
C 191.39 36.21 189.31 35.48 186.85 33.04
M 201.79 29.74
C 206.91 24.62 203.19 15.52 195.97 15.52
C 191.82 15.52 187.56 19.77 187.56 23.92
C 187.56 25.71 188.72 28.32 190.15 29.74
C 191.57 31.16 194.18 32.33 195.97 32.33
C 197.75 32.33 200.37 31.16 201.79 29.74"/>
<path fill="#000000" stroke="none" d="
M 191.70 28.19
C 188.08 24.57 190.81 18.10 195.97 18.10
C 199.43 18.10 201.79 20.46 201.79 23.92
C 201.79 27.39 199.43 29.74 195.97 29.74
C 194.47 29.74 192.55 29.04 191.70 28.19"/>
<path fill="#69a949" stroke="none" d="
M 164.92 188.92
C 158.31 185.87 153.48 180.69 150.10 173.03
C 147.78 167.81 147.60 166.12 148.77 160.75
C 151.63 147.65 155.97 136.76 169.64 108.38
C 184.34 77.88 187.34 68.86 185.71 60.12
C 184.49 53.65 176.14 45.25 167.69 42.03
L 161.75 39.76
L 164.50 35.90
C 167.11 32.24 167.14 31.85 165.13 28.44
C 163.22 25.22 163.19 24.38 164.91 20.29
C 166.48 16.53 168.08 15.25 174.04 13.02
C 184.71 9.03 192.31 7.54 202.44 7.46
C 218.95 7.33 229.37 15.04 233.56 30.49
C 235.42 37.37 235.52 39.61 234.20 44.86
C 231.79 54.47 225.74 64.67 213.88 79.18
C 188.13 110.69 183.94 117.44 180.35 133.20
C 178.25 142.47 178.25 142.59 181.69 154.72
L 185.15 166.90
L 182.27 175.56
C 179.67 183.36 174.00 191.43 171.17 191.35
C 170.58 191.34 167.77 190.24 164.92 188.92
M 205.09 33.04
C 207.53 30.58 208.26 28.50 208.26 23.92
C 208.26 15.69 204.21 11.64 195.97 11.64
C 187.73 11.64 183.68 15.69 183.68 23.92
C 183.68 32.16 187.73 36.21 195.97 36.21
C 200.55 36.21 202.63 35.48 205.09 33.04"/>
<path fill="#c57a36" stroke="none" d="
M 330.71 266.02
C 329.41 232.69 325.50 214.73 315.24 194.81
C 305.83 176.51 292.32 166.28 273.13 162.91
C 265.93 161.64 263.08 161.73 255.72 163.45
C 219.22 172.01 203.44 201.36 200.91 265.41
L 200.09 285.78
L 187.69 285.75
C 180.86 285.75 174.53 285.27 173.63 284.69
C 171.53 283.37 169.45 276.13 169.45 270.19
C 169.45 267.66 171.77 250.33 174.60 231.67
C 178.85 203.55 180.29 196.82 182.99 192.21
C 187.43 184.64 191.45 172.58 191.41 166.93
C 191.39 164.38 190.21 157.91 188.78 152.59
C 185.52 140.46 186.28 133.50 192.16 121.78
C 194.54 117.03 200.46 108.27 205.29 102.32
C 210.12 96.38 217.70 87.06 222.12 81.63
C 231.15 70.58 237.89 58.60 241.34 47.52
C 243.56 40.40 243.56 39.67 241.37 30.41
C 240.12 25.10 237.74 18.74 236.08 16.29
C 234.41 13.85 233.39 11.51 233.80 11.09
C 236.55 8.35 268.74 17.20 283.85 24.84
C 324.12 45.22 354.85 89.86 359.60 134.88
C 361.51 153.03 361.28 283.58 359.34 285.52
C 358.33 286.53 353.14 287.07 344.67 287.07
L 331.54 287.07
L 330.71 266.02"/>
<path fill="#eb2e00" stroke="none" d="
M 190.15 29.74
C 185.14 24.74 187.64 17.47 194.87 16.05
C 202.68 14.51 207.51 24.03 201.79 29.74
C 200.37 31.16 197.75 32.33 195.97 32.33
C 194.18 32.33 191.57 31.16 190.15 29.74
M 200.24 28.19
C 203.86 24.57 201.13 18.10 195.97 18.10
C 192.50 18.10 190.15 20.46 190.15 23.92
C 190.15 27.39 192.50 29.74 195.97 29.74
C 197.47 29.74 199.38 29.04 200.24 28.19"/>
<path fill="#806f6f" stroke="none" d="
M 47.86 77.52
C 47.86 76.72 52.45 71.59 58.07 66.09
C 74.65 49.86 88.63 42.94 135.38 27.80
C 158.39 20.35 160.07 19.98 158.86 22.66
C 157.86 24.84 158.05 26.33 159.65 28.76
C 161.61 31.75 161.59 32.16 159.39 34.89
C 157.15 37.64 156.17 37.80 142.12 37.59
C 133.06 37.46 123.61 38.12 117.99 39.30
C 99.96 43.05 76.60 55.13 61.44 68.53
C 51.35 77.46 47.86 79.76 47.86 77.52"/>
<path fill="#ffbf53" stroke="none" d="
M 26.62 592.41
C 26.23 591.79 35.36 587.07 46.92 581.92
C 58.47 576.76 71.87 570.78 76.72 568.59
C 86.34 564.27 87.96 562.38 87.96 555.53
C 87.96 550.98 58.05 449.61 44.45 408.06
C 35.75 381.50 33.68 372.17 33.66 359.39
C 33.62 342.04 39.44 328.91 48.96 324.94
C 57.99 321.17 71.26 325.44 85.53 336.70
C 93.28 342.83 118.59 373.34 148.56 412.69
C 158.66 425.96 171.78 441.96 177.70 448.24
C 188.06 459.22 188.65 459.62 192.23 458.37
L 195.97 457.06
L 196.25 444.16
C 196.63 427.66 198.79 394.19 201.15 368.53
C 204.09 336.52 205.60 313.22 206.94 279.31
C 207.61 261.89 209.05 242.35 210.12 235.91
C 216.78 195.88 232.02 175.53 259.09 170.55
C 280.47 166.60 298.84 178.27 311.13 203.57
C 317.80 217.31 321.48 231.76 323.34 251.51
C 324.15 260.26 324.67 319.11 324.67 404.37
C 324.67 539.96 324.62 543.16 322.09 549.57
C 317.40 561.44 318.98 567.45 328.23 572.91
C 342.04 581.08 356.88 591.40 356.26 592.40
C 355.34 593.88 27.54 593.90 26.62 592.41"/>
</g>
</svg>
