<?xml version="1.0" encoding="UTF-8" standalone="no"?>
<!DOCTYPE svg PUBLIC "-//W3C//DTD SVG 1.1//EN"
"http://www.w3.org/Graphics/SVG/1.1/DTD/svg11.dtd">
<svg width="438px" height="600px"
xmlns="http://www.w3.org/2000/svg" version="1.1">
<g transform="translate(0000, 0000) scale(1.0000, 1.0000)">
<path fill="#000000" stroke="none" d="
M 0.47 598.05
C 0.05 596.98 0.35 595.33 1.14 594.39
C 1.91 593.45 18.32 585.20 37.60 576.06
C 58.97 565.94 73.36 558.37 74.47 556.68
C 76.10 554.19 75.84 552.86 71.93 543.73
C 69.52 538.13 65.92 530.35 63.93 526.45
C 61.94 522.55 51.16 497.29 39.99 470.32
C 28.81 443.35 17.44 416.36 14.72 410.32
C 10.06 400.01 9.73 398.45 9.28 384.41
C 7.84 340.57 28.27 321.73 60.27 337.38
C 71.81 343.03 73.87 344.95 87.30 362.58
C 93.52 370.74 105.96 386.43 114.95 397.42
C 123.94 408.41 136.75 424.39 143.40 432.90
C 150.06 441.42 159.90 453.59 165.29 459.96
L 175.07 471.52
L 176.61 452.86
C 177.45 442.59 179.90 403.72 182.06 366.45
C 184.22 329.19 186.34 294.65 186.75 289.68
L 187.50 280.65
L 177.31 280.61
C 165.04 280.57 161.03 278.50 158.80 271.10
C 154.09 255.37 177.13 202.72 207.66 159.42
C 217.09 146.05 221.29 135.28 218.25 132.25
C 216.83 130.83 215.28 130.65 211.87 131.51
C 209.40 132.14 190.21 133.01 169.26 133.42
C 130.31 134.19 114.87 135.46 108.75 138.37
C 105.73 139.82 105.25 140.89 104.90 147.07
C 104.42 155.54 103.08 157.42 97.55 157.42
C 90.71 157.42 89.56 154.80 92.17 145.06
C 95.07 134.17 93.38 130.27 84.33 127.12
C 74.15 123.59 71.82 122.06 69.25 117.32
C 63.31 106.34 70.95 96.36 95.64 82.85
C 126.21 66.14 156.87 51.65 172.90 46.35
C 194.18 39.32 197.07 37.87 194.96 35.32
C 189.88 29.20 182.09 28.45 158.62 31.87
C 140.29 34.54 132.28 33.55 116.66 26.70
C 99.55 19.17 102.88 18.95 60.73 30.43
C 46.62 34.27 39.59 34.27 29.10 30.46
C 12.98 24.63 5.18 17.12 5.17 7.47
C 5.17 2.36 7.61 0.00 12.92 0.00
C 14.43 0.00 21.24 2.99 28.05 6.67
C 43.33 14.89 45.21 14.94 68.48 7.81
C 78.06 4.85 88.56 2.12 91.79 1.72
C 99.59 0.76 109.85 3.02 123.66 8.74
C 133.48 12.81 136.41 13.45 145.35 13.46
C 151.04 13.47 161.85 12.41 169.40 11.12
C 181.07 9.12 184.24 9.01 190.72 10.35
C 201.03 12.48 209.68 17.06 216.20 23.86
L 221.64 29.52
L 226.97 23.88
C 233.37 17.12 242.11 12.48 252.45 10.35
C 258.92 9.01 262.10 9.12 273.77 11.12
C 281.31 12.41 292.13 13.47 297.81 13.46
C 306.66 13.43 309.82 12.76 319.78 8.76
C 342.14 -0.25 347.91 -0.17 380.93 9.51
C 391.07 12.49 398.13 13.90 400.31 13.39
C 402.21 12.95 409.10 9.77 415.63 6.30
C 432.00 -2.39 438.00 -2.03 438.00 7.68
C 437.99 17.32 428.93 25.61 412.46 31.08
C 402.30 34.46 393.45 33.91 376.33 28.83
C 355.62 22.68 345.72 20.57 341.29 21.34
C 338.91 21.75 332.31 24.14 326.61 26.65
C 311.45 33.32 303.43 34.30 285.01 31.77
C 265.06 29.02 258.12 29.11 252.13 32.17
C 242.40 37.12 242.68 37.99 256.08 44.23
C 279.56 55.20 297.84 68.98 306.68 82.40
C 318.75 100.71 324.37 122.49 330.04 172.90
C 332.23 192.49 335.93 250.86 335.93 266.13
C 335.93 280.21 334.69 281.29 318.49 281.29
L 306.21 281.29
L 306.21 393.06
C 306.21 512.09 306.04 515.87 299.66 543.11
C 298.27 549.07 297.47 555.05 297.89 556.37
C 298.41 557.99 310.37 564.66 333.35 576.13
C 352.42 585.65 368.41 594.08 368.88 594.85
C 369.35 595.61 369.04 597.08 368.18 598.12
C 366.83 599.75 342.30 600.00 183.92 600.00
C 22.02 600.00 1.12 599.78 0.47 598.05
M 321.37 579.26
C 286.50 561.73 287.45 562.92 292.44 543.05
C 299.61 514.48 299.75 511.50 299.75 392.67
L 299.75 283.10
L 294.13 265.74
C 287.34 244.74 283.74 237.42 275.90 228.72
C 263.33 214.76 245.33 210.80 229.58 218.52
C 217.19 224.59 207.36 239.60 201.54 261.30
C 200.02 266.98 197.66 273.19 196.29 275.11
C 194.05 278.26 193.42 285.20 189.96 344.79
C 182.05 480.90 182.01 481.29 175.76 481.29
C 172.87 481.29 159.37 466.00 135.33 435.48
C 126.37 424.13 109.97 403.52 98.87 389.68
C 87.77 375.83 75.92 361.03 72.53 356.76
C 65.87 348.36 55.92 342.06 44.95 339.32
C 39.51 337.95 38.26 338.08 33.14 340.55
C 21.80 346.04 16.15 359.57 16.15 381.29
C 16.15 395.29 16.23 395.65 21.76 407.74
C 24.85 414.49 36.05 441.08 46.66 466.85
C 57.26 492.62 68.48 518.75 71.58 524.92
C 74.68 531.08 78.83 540.67 80.79 546.22
C 86.40 561.97 86.64 561.70 52.15 577.99
C 36.62 585.33 23.35 591.83 22.68 592.44
C 21.99 593.06 93.80 593.52 185.47 593.48
L 349.50 593.41
L 321.37 579.26
M 187.95 271.75
C 190.20 270.28 192.00 266.62 194.46 258.41
C 203.91 227.17 216.60 212.46 238.19 207.66
C 244.30 206.31 247.22 206.30 253.60 207.61
C 274.89 212.00 289.26 226.80 297.34 252.62
C 299.49 259.51 302.17 267.34 303.28 270.00
L 305.31 274.84
L 315.94 274.84
C 324.12 274.84 326.96 274.36 328.29 272.76
C 332.04 268.26 324.15 166.98 317.23 130.83
C 310.89 97.70 299.05 79.23 273.58 62.66
C 250.41 47.60 235.02 42.97 212.36 44.22
C 189.50 45.48 156.98 58.21 107.74 85.16
C 82.70 98.86 78.40 101.87 76.19 107.20
C 73.49 113.69 75.92 116.81 85.98 119.83
C 94.10 122.27 95.18 122.30 105.60 120.49
C 117.27 118.45 120.16 118.72 120.16 121.85
C 120.16 124.57 116.80 126.05 108.20 127.12
C 100.31 128.10 99.05 128.81 100.65 131.41
C 101.40 132.61 102.54 132.66 105.30 131.61
C 111.32 129.33 132.78 127.66 172.49 126.40
C 193.09 125.74 212.37 124.85 215.32 124.41
C 219.79 123.75 221.17 124.10 223.56 126.49
C 226.08 129.01 226.35 130.30 225.74 137.03
C 224.89 146.41 221.47 153.19 206.44 175.28
C 183.46 209.06 162.94 255.91 165.92 267.79
C 167.56 274.32 180.48 276.65 187.95 271.75
M 238.37 32.27
C 245.68 25.95 246.99 25.26 255.47 23.28
C 261.13 21.95 264.70 22.05 277.44 23.94
C 300.99 27.42 305.86 27.05 321.72 20.49
C 340.31 12.83 347.49 12.84 373.40 20.55
C 397.06 27.61 403.21 27.86 414.94 22.19
C 422.79 18.41 431.54 10.76 431.54 7.69
C 431.54 7.01 426.75 9.02 420.88 12.15
C 415.01 15.30 406.71 18.59 402.42 19.47
C 395.13 20.94 393.83 20.81 382.39 17.42
C 356.89 9.85 346.98 7.61 342.39 8.43
C 339.90 8.86 332.08 11.55 325.00 14.39
C 308.72 20.92 300.23 21.72 279.12 18.71
C 260.09 16.00 251.70 16.63 242.86 21.43
C 236.48 24.90 227.40 33.54 227.40 36.13
C 227.40 39.01 232.76 37.11 238.37 32.27
M 214.57 33.73
C 212.69 30.22 204.89 23.68 198.61 20.34
C 191.57 16.59 175.04 16.39 157.93 19.85
C 143.74 22.71 136.32 21.75 119.51 14.92
C 102.85 8.13 98.29 7.37 88.16 9.70
C 83.38 10.80 73.06 13.78 65.25 16.31
C 46.58 22.35 41.56 21.95 24.23 13.08
C 17.30 9.54 11.63 7.15 11.63 7.79
C 11.63 10.77 20.49 18.46 28.23 22.19
C 39.96 27.86 46.11 27.61 69.77 20.55
C 95.37 12.93 102.91 12.86 120.81 20.17
C 137.55 27.01 140.88 27.41 158.09 24.79
C 183.16 20.95 193.56 22.37 203.02 30.92
C 206.67 34.22 209.93 36.04 212.27 36.08
C 215.38 36.12 215.69 35.81 214.57 33.73"/>
<path fill="#000000" stroke="none" d="
M 164.67 93.61
C 162.23 91.16 161.50 89.08 161.50 84.52
C 161.50 76.30 165.55 72.26 173.78 72.26
C 182.01 72.26 186.05 76.30 186.05 84.52
C 186.05 92.74 182.01 96.77 173.78 96.77
C 169.20 96.77 167.12 96.05 164.67 93.61
M 179.59 90.32
C 181.01 88.90 182.18 86.30 182.18 84.52
C 182.18 82.74 181.01 80.13 179.59 78.71
C 178.17 77.29 175.56 76.13 173.78 76.13
C 172.00 76.13 169.39 77.29 167.96 78.71
C 166.54 80.13 165.38 82.74 165.38 84.52
C 165.38 86.30 166.54 88.90 167.96 90.32
C 169.39 91.74 172.00 92.90 173.78 92.90
C 175.56 92.90 178.17 91.74 179.59 90.32"/>
<path fill="#000000" stroke="none" d="
M 169.52 88.77
C 165.90 85.16 168.62 78.71 173.78 78.71
C 177.24 78.71 179.59 81.06 179.59 84.52
C 179.59 86.01 178.90 87.92 178.04 88.77
C 177.19 89.63 175.28 90.32 173.78 90.32
C 172.28 90.32 170.37 89.63 169.52 88.77"/>
<path fill="#9f744e" stroke="none" d="
M 227.40 36.13
C 227.40 33.54 236.48 24.90 242.86 21.43
C 251.70 16.63 260.09 16.00 279.12 18.71
C 300.23 21.72 308.72 20.92 325.00 14.39
C 332.08 11.55 339.90 8.86 342.39 8.43
C 346.98 7.61 356.89 9.85 382.39 17.42
C 393.83 20.81 395.13 20.94 402.42 19.47
C 406.71 18.59 415.01 15.30 420.88 12.15
C 426.75 9.02 431.54 7.01 431.54 7.69
C 431.54 10.76 422.79 18.41 414.94 22.19
C 403.21 27.86 397.06 27.61 373.40 20.55
C 347.49 12.84 340.31 12.83 321.72 20.49
C 305.86 27.05 300.99 27.42 277.44 23.94
C 264.70 22.05 261.13 21.95 255.47 23.28
C 246.99 25.26 245.68 25.95 238.37 32.27
C 232.76 37.11 227.40 39.01 227.40 36.13"/>
<path fill="#9f744e" stroke="none" d="
M 203.02 30.92
C 193.56 22.37 183.16 20.95 158.09 24.79
C 140.88 27.41 137.55 27.01 120.81 20.17
C 102.91 12.86 95.37 12.93 69.77 20.55
C 46.11 27.61 39.96 27.86 28.23 22.19
C 20.39 18.43 10.49 9.73 12.15 8.08
C 12.53 7.70 18.23 10.12 24.83 13.45
C 41.56 21.90 46.84 22.27 65.25 16.31
C 73.06 13.78 83.38 10.80 88.16 9.70
C 98.29 7.37 102.85 8.13 119.51 14.92
C 136.32 21.75 143.74 22.71 157.93 19.85
C 175.04 16.39 191.57 16.59 198.61 20.34
C 204.89 23.68 212.69 30.22 214.57 33.73
C 215.69 35.81 215.38 36.12 212.27 36.08
C 209.93 36.04 206.67 34.22 203.02 30.92"/>
<path fill="#d2cdbe" stroke="none" d="
M 170.91 273.01
C 165.43 270.53 164.57 266.49 167.24 255.85
C 172.84 233.65 188.15 202.17 206.44 175.28
C 221.47 153.19 224.89 146.41 225.74 137.03
C 226.35 130.30 226.08 129.01 223.56 126.49
C 221.17 124.10 219.79 123.75 215.32 124.41
C 212.37 124.85 193.09 125.74 172.49 126.40
C 132.78 127.66 111.32 129.33 105.30 131.61
C 102.54 132.66 101.40 132.61 100.65 131.41
C 99.05 128.81 100.31 128.10 108.20 127.12
C 116.80 126.05 120.16 124.57 120.16 121.85
C 120.16 118.72 117.27 118.45 105.60 120.49
C 95.18 122.30 94.10 122.27 85.98 119.83
C 75.92 116.81 73.49 113.69 76.19 107.20
C 78.40 101.87 82.70 98.86 107.74 85.16
C 139.97 67.52 158.82 58.79 180.32 51.52
C 196.48 46.06 201.69 44.88 212.29 44.25
C 234.84 42.90 250.34 47.56 273.58 62.66
C 299.05 79.23 310.89 97.70 317.23 130.83
C 324.15 166.98 332.04 268.26 328.29 272.76
C 326.96 274.36 324.12 274.84 315.94 274.84
L 305.31 274.84
L 303.28 270.00
C 302.17 267.34 299.49 259.51 297.34 252.62
C 289.26 226.80 274.89 212.00 253.60 207.61
C 247.22 206.30 244.30 206.31 238.19 207.66
C 216.60 212.46 203.91 227.17 194.46 258.41
C 190.70 270.89 188.43 273.38 179.97 274.32
C 177.27 274.63 173.21 274.04 170.91 273.01
M 182.89 93.61
C 185.33 91.16 186.05 89.08 186.05 84.52
C 186.05 76.30 182.01 72.26 173.78 72.26
C 165.55 72.26 161.50 76.30 161.50 84.52
C 161.50 89.08 162.23 91.16 164.67 93.61
C 167.12 96.05 169.20 96.77 173.78 96.77
C 178.35 96.77 180.43 96.05 182.89 93.61"/>
<path fill="#eb2e00" stroke="none" d="
M 167.96 90.32
C 162.96 85.33 165.46 78.08 172.68 76.66
C 180.48 75.12 185.30 84.62 179.59 90.32
C 178.17 91.74 175.56 92.90 173.78 92.90
C 172.00 92.90 169.39 91.74 167.96 90.32
M 178.04 88.77
C 181.66 85.16 178.93 78.71 173.78 78.71
C 172.28 78.71 170.37 79.41 169.52 80.26
C 168.66 81.11 167.96 83.02 167.96 84.52
C 167.96 86.01 168.66 87.92 169.52 88.77
C 170.37 89.63 172.28 90.32 173.78 90.32
C 175.28 90.32 177.19 89.63 178.04 88.77"/>
<path fill="#ffbf53" stroke="none" d="
M 22.68 592.44
C 23.35 591.83 36.62 585.33 52.15 577.99
C 86.64 561.70 86.40 561.97 80.79 546.22
C 78.83 540.67 74.68 531.08 71.58 524.92
C 68.48 518.75 57.26 492.62 46.66 466.85
C 36.05 441.08 24.85 414.49 21.76 407.74
C 16.23 395.65 16.15 395.29 16.15 381.29
C 16.15 359.57 21.80 346.04 33.14 340.55
C 38.26 338.08 39.51 337.95 44.95 339.32
C 55.92 342.06 65.87 348.36 72.53 356.76
C 75.92 361.03 87.77 375.83 98.87 389.68
C 109.97 403.52 126.37 424.13 135.33 435.48
C 159.37 466.00 172.87 481.29 175.76 481.29
C 182.01 481.29 182.05 480.90 189.96 344.79
C 193.42 285.20 194.05 278.26 196.29 275.11
C 197.66 273.19 200.02 266.98 201.54 261.30
C 207.35 239.65 217.20 224.58 229.50 218.57
C 245.33 210.84 263.36 214.77 275.90 228.72
C 283.74 237.42 287.34 244.74 294.13 265.74
L 299.75 283.10
L 299.75 392.67
C 299.75 511.50 299.61 514.48 292.44 543.05
C 287.45 562.92 286.50 561.73 321.37 579.26
L 349.50 593.41
L 185.47 593.48
C 93.80 593.52 21.99 593.06 22.68 592.44"/>
</g>
</svg>
