<?xml version="1.0" encoding="UTF-8" standalone="no"?>
<!DOCTYPE svg PUBLIC "-//W3C//DTD SVG 1.1//EN"
"http://www.w3.org/Graphics/SVG/1.1/DTD/svg11.dtd">
<svg width="354px" height="600px"
xmlns="http://www.w3.org/2000/svg" version="1.1">
<g transform="translate(0000, 0000) scale(1.0000, 1.0000)">
<path fill="#000000" stroke="none" d="
M 0.47 598.05
C 0.05 596.97 0.34 595.33 1.10 594.41
C 1.87 593.50 15.68 586.72 31.78 579.36
C 48.07 571.91 61.62 564.96 62.31 563.66
C 63.23 561.96 62.48 558.45 59.56 550.60
C 51.48 528.96 16.87 425.31 16.09 420.44
C 13.98 407.30 22.34 394.78 36.84 389.38
C 50.58 384.25 59.61 386.35 72.84 397.76
C 91.60 413.92 146.96 464.47 156.25 473.91
C 167.81 485.65 173.30 489.78 175.04 488.02
C 176.00 487.03 177.79 424.89 179.33 338.47
L 179.70 318.10
L 167.65 318.10
C 157.07 318.10 155.27 317.77 152.83 315.34
C 150.22 312.74 150.09 311.68 150.81 298.85
C 152.53 268.02 164.21 242.56 190.59 212.26
C 201.62 199.56 204.13 195.89 202.97 194.04
C 202.58 193.40 199.42 191.94 195.94 190.78
C 189.97 188.81 189.11 188.83 179.44 191.39
C 165.45 195.08 159.56 197.35 132.08 209.64
C 104.68 221.88 99.11 223.07 91.94 218.19
C 87.79 215.35 86.93 215.19 84.16 216.72
C 82.44 217.67 79.15 218.47 76.83 218.48
C 68.61 218.57 65.15 210.78 69.23 201.36
C 74.40 189.43 99.59 165.53 124.82 148.64
C 144.44 135.49 157.82 129.10 179.18 122.68
C 188.66 119.82 196.55 117.35 196.74 117.18
C 198.20 115.72 208.78 31.69 208.77 21.58
C 208.77 14.42 211.27 5.66 214.03 3.16
C 217.59 -0.05 226.70 -0.62 235.16 1.82
C 244.45 4.53 246.98 7.95 245.98 16.51
C 245.21 23.29 229.36 93.49 226.27 103.84
C 225.21 107.43 224.33 111.76 224.33 113.46
C 224.33 116.30 224.76 116.50 230.48 116.12
L 236.62 115.73
L 241.99 100.86
C 244.93 92.68 250.12 79.89 253.49 72.41
C 256.86 64.94 262.26 51.27 265.47 42.03
C 273.66 18.56 277.65 10.99 282.82 9.19
C 288.80 7.12 292.39 7.41 299.68 10.53
C 308.91 14.50 311.96 21.16 308.29 29.35
C 307.41 31.34 297.52 48.30 286.33 67.01
C 266.72 99.84 257.07 118.93 258.73 121.62
C 259.17 122.33 262.84 125.30 266.89 128.25
C 289.40 144.59 299.46 155.16 307.31 170.68
C 312.58 181.12 317.52 197.77 320.35 214.66
C 323.03 230.72 328.07 290.86 328.07 306.94
C 328.07 320.66 326.63 321.98 311.75 321.98
L 300.64 321.98
L 301.44 337.82
C 301.89 346.54 303.39 384.78 304.80 422.79
C 306.92 480.17 307.10 496.44 305.92 518.48
C 304.49 545.02 304.87 554.68 307.55 560.55
C 308.37 562.34 317.26 569.15 328.75 576.75
C 350.14 590.91 354.77 594.87 353.56 598.00
C 352.86 599.79 334.61 600.00 177.00 600.00
C 21.29 600.00 1.13 599.78 0.47 598.05
M 338.44 592.90
C 338.44 592.56 330.08 586.82 319.84 580.16
C 309.63 573.49 300.89 567.08 300.43 565.90
C 298.38 560.59 298.06 545.42 299.41 518.53
C 300.69 493.05 300.47 479.08 297.65 406.03
L 294.42 322.63
L 289.33 302.47
C 286.53 291.39 282.99 279.87 281.46 276.88
C 272.01 258.40 249.62 249.47 228.66 255.81
C 203.23 263.51 190.12 284.41 186.74 322.63
C 186.04 330.45 184.86 371.42 184.09 413.66
C 183.29 458.77 182.20 491.46 181.45 492.85
C 179.66 496.16 174.48 497.16 169.52 495.13
C 167.21 494.19 158.33 486.69 149.77 478.46
C 141.21 470.22 123.13 453.62 109.58 441.56
C 96.05 429.49 80.59 415.50 75.22 410.47
C 61.98 398.04 55.68 394.05 49.31 394.05
C 42.62 394.05 30.68 399.92 27.06 404.99
C 20.97 413.51 21.56 416.66 39.56 470.81
C 48.64 498.12 58.95 527.97 62.48 537.13
C 69.81 556.20 71.38 564.76 68.38 569.33
C 67.08 571.32 59.10 575.61 45.19 581.81
C 33.53 587.00 23.43 591.78 22.76 592.40
C 22.04 593.06 88.63 593.53 179.98 593.53
C 267.13 593.53 338.44 593.25 338.44 592.90
M 320.03 313.97
C 322.18 311.82 322.00 303.65 318.91 264.63
C 312.56 184.36 303.96 164.62 262.36 134.75
C 252.27 127.53 251.11 127.03 238.46 124.82
C 219.57 121.51 204.92 122.53 184.52 128.59
C 159.16 136.10 143.56 144.05 120.00 161.44
C 96.44 178.85 70.88 206.97 74.95 211.03
C 76.97 213.05 85.39 207.74 98.87 195.94
C 110.28 185.95 114.40 184.31 115.12 189.45
C 115.37 191.29 112.48 194.61 105.08 200.97
C 94.52 210.09 93.71 212.07 99.79 214.00
C 101.17 214.42 113.34 209.74 129.83 202.46
C 173.64 183.08 191.07 179.20 204.58 185.79
C 214.36 190.56 212.88 199.37 199.94 213.49
C 174.30 241.46 159.65 270.44 157.37 297.65
C 156.25 311.08 156.78 311.64 170.67 311.64
L 181.54 311.64
L 181.54 308.06
C 181.54 302.75 186.35 286.40 190.33 278.13
C 195.58 267.25 207.43 256.03 218.49 251.51
C 226.62 248.19 229.13 247.78 242.48 247.71
C 256.19 247.64 258.03 247.93 265.18 251.25
C 280.89 258.56 289.16 270.40 294.29 292.93
C 295.74 299.30 297.59 307.00 298.41 310.02
L 299.88 315.52
L 309.17 315.52
C 314.67 315.52 319.11 314.88 320.03 313.97
M 251.81 115.41
C 257.98 100.60 266.47 84.71 281.00 60.78
C 301.59 26.84 302.48 25.14 301.42 21.79
C 300.21 18.00 290.01 13.68 286.58 15.50
C 282.95 17.46 278.53 26.68 271.65 46.73
C 268.40 56.19 262.30 71.56 258.10 80.91
C 248.21 102.87 244.03 116.21 246.53 117.79
C 249.37 119.59 250.22 119.20 251.81 115.41
M 217.86 108.94
C 218.69 104.86 220.22 98.51 221.26 94.82
C 226.72 75.61 239.46 14.68 238.44 12.71
C 237.01 9.98 225.22 6.01 221.76 7.10
C 217.73 8.38 216.60 11.73 215.19 26.60
C 214.14 37.60 208.37 86.82 205.23 111.53
L 204.61 116.38
L 210.48 116.38
L 216.37 116.38
L 217.86 108.94"/>
<path fill="#000000" stroke="none" d="
M 82.13 202.31
C 81.16 199.78 86.48 193.97 89.74 193.97
C 94.00 193.97 94.14 197.99 90.02 201.27
C 85.61 204.80 83.21 205.11 82.13 202.31"/>
<path fill="#000000" stroke="none" d="
M 145.81 168.81
C 141.33 164.33 141.33 155.07 145.81 150.58
C 148.28 148.14 150.37 147.41 154.96 147.41
C 159.55 147.41 161.63 148.14 164.10 150.58
C 168.58 155.07 168.58 164.33 164.10 168.81
C 161.63 171.26 159.55 171.98 154.96 171.98
C 150.37 171.98 148.28 171.26 145.81 168.81
M 160.79 165.52
C 162.22 164.09 163.38 161.48 163.38 159.70
C 163.38 157.91 162.22 155.30 160.79 153.88
C 159.36 152.46 156.75 151.29 154.96 151.29
C 153.17 151.29 150.55 152.46 149.12 153.88
C 147.69 155.30 146.53 157.91 146.53 159.70
C 146.53 161.48 147.69 164.09 149.12 165.52
C 150.55 166.94 153.17 168.10 154.96 168.10
C 156.75 168.10 159.36 166.94 160.79 165.52"/>
<path fill="#000000" stroke="none" d="
M 150.68 163.97
C 147.05 160.34 149.78 153.88 154.96 153.88
C 156.45 153.88 158.38 154.58 159.24 155.43
C 160.09 156.28 160.79 158.20 160.79 159.70
C 160.79 161.20 160.09 163.11 159.24 163.97
C 158.38 164.82 156.46 165.52 154.96 165.52
C 153.45 165.52 151.53 164.82 150.68 163.97"/>
<path fill="#c57a36" stroke="none" d="
M 246.53 117.79
C 244.03 116.21 248.21 102.87 258.10 80.91
C 262.30 71.56 268.40 56.19 271.65 46.73
C 278.53 26.68 282.95 17.46 286.58 15.50
C 290.01 13.68 300.21 18.00 301.42 21.79
C 302.48 25.14 301.59 26.84 281.00 60.78
C 266.47 84.71 257.98 100.60 251.81 115.41
C 250.22 119.20 249.37 119.59 246.53 117.79"/>
<path fill="#c57a36" stroke="none" d="
M 205.23 111.53
C 208.34 87.05 214.14 37.66 215.16 26.88
C 216.68 10.88 217.21 9.23 221.45 7.62
C 225.47 6.09 236.77 9.48 238.44 12.71
C 239.46 14.68 226.72 75.61 221.26 94.82
C 220.22 98.51 218.69 104.86 217.86 108.94
L 216.37 116.38
L 210.48 116.38
L 204.61 116.38
L 205.23 111.53"/>
<path fill="#aa4422" stroke="none" d="
M 298.41 310.02
C 297.59 307.00 295.74 299.30 294.29 292.93
C 289.16 270.40 280.89 258.56 265.18 251.25
C 258.03 247.93 256.19 247.64 242.48 247.71
C 229.13 247.78 226.62 248.19 218.49 251.51
C 207.43 256.03 195.58 267.25 190.33 278.13
C 186.35 286.40 181.54 302.75 181.54 308.06
L 181.54 311.64
L 170.67 311.64
C 156.78 311.64 156.25 311.08 157.37 297.65
C 159.65 270.44 174.30 241.46 199.94 213.49
C 212.88 199.37 214.36 190.56 204.58 185.79
C 191.07 179.20 173.64 183.08 129.83 202.46
C 113.34 209.74 101.17 214.42 99.79 214.00
C 93.71 212.07 94.52 210.09 105.08 200.97
C 112.48 194.61 115.37 191.29 115.12 189.45
C 114.40 184.31 110.28 185.95 98.87 195.94
C 85.39 207.74 76.97 213.05 74.95 211.03
C 70.88 206.97 96.44 178.85 120.00 161.44
C 143.55 144.05 159.21 136.07 184.39 128.64
C 204.85 122.60 219.74 121.54 238.44 124.82
C 251.12 127.05 252.26 127.51 262.36 134.75
C 289.41 154.18 299.37 166.71 307.88 192.03
C 312.95 207.13 315.89 226.53 318.91 264.63
C 322.00 303.65 322.18 311.82 320.03 313.97
C 319.11 314.88 314.67 315.52 309.17 315.52
L 299.88 315.52
L 298.41 310.02
M 90.02 201.27
C 94.14 197.99 94.00 193.97 89.74 193.97
C 86.48 193.97 81.16 199.78 82.13 202.31
C 83.21 205.11 85.61 204.80 90.02 201.27
M 164.10 168.81
C 168.58 164.33 168.58 155.07 164.10 150.58
C 161.63 148.14 159.55 147.41 154.96 147.41
C 150.37 147.41 148.28 148.14 145.81 150.58
C 141.33 155.07 141.33 164.33 145.81 168.81
C 148.28 171.26 150.37 171.98 154.96 171.98
C 159.55 171.98 161.63 171.26 164.10 168.81"/>
<path fill="#eb2e00" stroke="none" d="
M 149.12 165.52
C 144.10 160.51 146.61 153.25 153.85 151.82
C 161.69 150.28 166.52 159.80 160.79 165.52
C 159.36 166.94 156.75 168.10 154.96 168.10
C 153.17 168.10 150.55 166.94 149.12 165.52
M 159.24 163.97
C 160.09 163.11 160.79 161.20 160.79 159.70
C 160.79 158.20 160.09 156.28 159.24 155.43
C 158.38 154.58 156.45 153.88 154.96 153.88
C 149.78 153.88 147.05 160.34 150.68 163.97
C 151.53 164.82 153.45 165.52 154.96 165.52
C 156.46 165.52 158.38 164.82 159.24 163.97"/>
<path fill="#ffbf53" stroke="none" d="
M 22.76 592.40
C 23.43 591.78 33.53 587.00 45.19 581.81
C 59.10 575.61 67.08 571.32 68.38 569.33
C 71.38 564.76 69.81 556.20 62.48 537.13
C 58.95 527.97 48.64 498.12 39.56 470.81
C 21.56 416.66 20.97 413.51 27.06 404.99
C 30.68 399.92 42.62 394.05 49.31 394.05
C 55.68 394.05 61.98 398.04 75.22 410.47
C 80.59 415.50 96.05 429.49 109.58 441.56
C 123.13 453.62 141.21 470.22 149.77 478.46
C 158.33 486.69 167.21 494.19 169.52 495.13
C 174.48 497.16 179.66 496.16 181.45 492.85
C 182.20 491.46 183.29 458.77 184.09 413.66
C 185.90 313.03 186.75 303.92 196.29 283.84
C 203.52 268.64 214.68 259.41 230.83 255.28
C 251.18 250.09 272.39 259.12 281.46 276.88
C 282.99 279.87 286.53 291.39 289.33 302.47
L 294.42 322.63
L 297.65 406.03
C 300.47 479.08 300.69 493.05 299.41 518.53
C 298.06 545.42 298.38 560.59 300.43 565.90
C 300.89 567.08 309.63 573.49 319.84 580.16
C 330.08 586.82 338.44 592.56 338.44 592.90
C 338.44 593.25 267.13 593.53 179.98 593.53
C 88.63 593.53 22.04 593.06 22.76 592.40"/>
</g>
</svg>
