<?xml version="1.0" encoding="UTF-8" standalone="no"?>
<!DOCTYPE svg PUBLIC "-//W3C//DTD SVG 1.1//EN"
"http://www.w3.org/Graphics/SVG/1.1/DTD/svg11.dtd">
<svg width="600px" height="521px"
xmlns="http://www.w3.org/2000/svg" version="1.1">
<g transform="translate(0000, 0000) scale(1.0000, 1.0000)">
<path fill="#000000" stroke="none" d="
M 524.22 518.29
C 498.90 511.74 487.34 501.13 452.42 452.42
C 440.69 436.05 419.58 407.98 330.93 290.92
C 316.42 271.76 302.03 252.73 298.95 248.66
L 293.37 241.24
L 292.82 377.63
C 292.35 491.00 292.01 514.33 290.75 515.86
C 288.57 518.48 280.60 518.27 277.07 515.49
C 272.76 512.10 271.26 506.97 263.58 469.30
C 252.62 415.62 245.59 392.04 233.16 367.24
C 225.90 352.78 222.01 346.71 213.47 336.57
C 206.08 327.79 204.52 323.33 206.60 317.00
C 208.64 310.83 214.57 306.76 227.07 302.98
C 243.93 297.88 247.45 296.44 251.23 293.11
C 256.45 288.49 261.45 279.30 264.49 268.74
C 267.61 257.86 270.11 239.16 269.13 233.93
C 268.55 230.84 267.91 230.27 264.34 229.68
C 262.08 229.31 255.34 229.00 249.37 228.99
C 234.30 228.97 200.32 225.09 181.36 221.23
C 165.54 218.00 106.38 202.52 90.61 197.47
C 66.75 189.84 48.42 187.00 35.79 188.96
C 25.26 190.60 19.91 192.98 12.04 199.51
C 8.64 202.33 5.31 204.64 4.65 204.64
C 3.98 204.64 2.66 203.53 1.72 202.18
C 0.28 200.11 0.00 195.23 0.00 171.21
L 0.00 142.71
L 10.15 131.51
C 37.29 101.64 71.50 73.78 104.42 54.73
C 187.77 6.52 263.45 -9.15 344.80 4.99
C 398.69 14.35 469.14 47.00 516.02 84.34
C 531.58 96.74 554.19 117.82 566.64 131.51
L 576.80 142.71
L 576.80 171.23
C 576.80 200.70 576.54 202.43 572.25 202.43
C 571.23 202.43 568.21 200.61 565.57 198.39
C 559.16 192.99 553.34 190.54 543.22 188.96
C 530.59 187.00 512.25 189.84 488.40 197.47
C 472.52 202.56 413.41 218.01 397.65 221.22
C 377.29 225.35 355.75 227.84 331.80 228.84
C 321.34 229.28 312.44 229.98 312.02 230.39
C 311.61 230.81 313.14 233.52 315.43 236.42
C 331.30 256.60 452.97 417.98 467.43 438.04
C 499.46 482.48 511.44 494.37 531.02 501.11
C 539.07 503.89 543.16 503.87 550.77 501.01
C 562.85 496.49 576.95 482.93 581.08 471.85
C 582.86 467.10 582.95 465.74 581.75 461.20
C 578.25 447.94 566.90 433.71 554.95 427.66
C 547.68 423.97 544.41 424.02 537.55 427.97
C 528.10 433.39 520.46 441.11 517.09 448.62
C 513.87 455.83 512.55 456.84 506.54 456.84
C 498.07 456.84 496.12 449.17 501.31 436.11
C 506.50 423.08 521.45 411.31 537.67 407.49
L 545.75 405.58
L 557.05 408.55
C 569.94 411.93 576.69 415.77 583.98 423.89
C 593.28 434.24 600.00 452.41 600.00 467.17
C 600.00 475.08 596.64 486.52 592.34 493.22
C 587.78 500.35 577.04 510.33 570.21 513.79
C 562.67 517.62 548.78 521.01 540.95 520.94
C 537.27 520.91 529.73 519.73 524.22 518.29
M 551.65 514.30
C 563.25 511.33 569.51 508.06 577.39 500.87
C 585.96 493.06 591.58 484.11 593.90 474.65
C 595.64 467.53 595.65 466.33 594.02 458.31
C 590.72 442.06 581.16 427.01 569.31 419.40
C 566.41 417.53 559.94 414.91 554.95 413.57
C 546.93 411.42 545.17 411.29 539.97 412.45
C 526.10 415.56 510.63 428.24 505.76 440.49
C 502.62 448.39 502.73 450.80 506.29 451.93
C 509.07 452.82 509.57 452.23 512.67 444.37
C 515.77 436.53 525.22 427.47 535.61 422.34
C 541.55 419.42 543.35 419.02 548.10 419.59
C 568.14 421.97 590.14 449.63 587.52 469.18
C 585.33 485.53 565.73 504.10 546.67 507.88
C 538.66 509.47 529.12 507.39 517.45 501.52
C 502.99 494.24 490.77 481.00 463.01 442.46
C 449.40 423.59 386.38 339.87 333.23 270.10
C 321.03 254.08 309.56 238.79 307.73 236.10
C 304.70 231.63 304.03 231.23 299.72 231.21
C 297.14 231.20 295.04 231.56 295.06 232.02
C 295.12 233.24 303.35 244.38 337.51 289.45
C 419.71 397.85 444.80 431.18 456.85 447.99
C 491.77 496.72 503.43 507.42 528.67 513.85
C 541.19 517.04 540.92 517.04 551.65 514.30
M 286.19 369.45
L 286.19 231.43
L 282.30 230.70
C 280.17 230.30 278.00 230.24 277.48 230.56
C 276.97 230.87 276.20 236.50 275.76 243.04
C 274.23 266.15 269.44 283.19 261.35 294.20
C 256.48 300.85 252.31 303.18 237.31 307.64
C 220.66 312.59 213.26 316.98 213.26 321.88
C 213.26 323.09 215.69 326.76 218.65 330.04
C 241.94 355.80 255.56 391.91 270.73 468.27
C 276.64 498.05 278.41 504.63 281.41 507.95
C 286.27 513.31 286.19 515.57 286.19 369.45
M 307.73 220.61
C 330.08 214.67 350.01 198.32 360.27 177.54
C 366.10 165.71 368.34 156.48 368.34 144.35
C 368.34 132.23 366.10 122.99 360.27 111.17
C 344.75 79.72 308.75 60.51 277.27 66.87
C 242.52 73.88 217.09 99.87 211.29 134.29
C 209.82 143.03 209.82 145.26 211.28 154.20
C 214.15 171.70 221.05 185.47 233.15 197.86
C 253.82 219.03 281.72 227.54 307.73 220.61
M 245.30 219.37
C 227.47 208.81 214.13 192.83 207.81 174.45
C 206.70 171.20 204.88 163.24 203.78 156.75
C 201.86 145.44 201.85 144.48 203.72 132.73
C 204.80 126.00 206.61 117.76 207.76 114.42
C 214.12 95.91 226.93 80.50 245.30 69.23
C 250.75 65.89 250.82 65.89 236.24 69.04
C 224.94 71.46 188.13 83.06 174.15 88.60
C 150.92 97.82 123.03 113.69 95.03 133.65
C 80.57 143.94 38.33 177.26 35.73 180.40
C 34.64 181.73 36.24 181.97 46.23 182.04
C 59.24 182.13 64.71 183.05 85.08 188.59
C 154.71 207.53 178.69 213.68 193.08 216.29
C 206.22 218.67 235.10 222.05 243.65 222.19
L 250.28 222.32
L 245.30 219.37
M 357.85 220.13
C 390.75 216.38 397.54 214.80 493.92 188.59
C 514.30 183.05 519.77 182.13 532.77 182.04
C 542.76 181.97 544.36 181.73 543.27 180.40
C 540.67 177.26 498.43 143.94 483.98 133.65
C 455.98 113.69 428.09 97.82 404.85 88.60
C 390.87 83.06 354.07 71.46 342.76 69.04
C 328.19 65.89 328.25 65.89 333.70 69.23
C 351.18 79.94 363.90 94.70 370.27 111.66
C 372.97 118.88 376.80 138.02 376.80 144.35
C 376.80 150.69 372.97 169.83 370.27 177.05
C 363.88 194.05 350.72 209.30 333.70 219.37
L 328.73 222.32
L 333.70 222.32
C 336.44 222.32 347.30 221.33 357.85 220.13
M 36.46 168.76
C 112.87 106.20 148.45 85.99 216.57 66.49
C 253.18 56.00 298.55 53.98 338.67 61.03
C 365.68 65.77 406.06 79.33 432.30 92.47
C 465.73 109.21 492.90 128.13 546.41 171.92
L 572.93 193.62
L 573.24 173.97
C 573.41 163.16 573.29 153.24 572.97 151.93
C 572.17 148.63 542.67 118.35 525.97 103.66
C 498.31 79.34 475.72 64.48 437.57 45.50
C 399.26 26.43 368.96 16.14 334.07 10.34
C 316.76 7.48 260.03 7.48 242.73 10.34
C 207.83 16.14 177.54 26.43 139.23 45.50
C 89.89 70.04 62.31 90.32 20.17 132.98
L 3.31 150.05
L 3.31 171.63
C 3.31 183.50 3.65 193.53 4.04 193.93
C 4.44 194.34 6.81 193.00 9.29 190.98
C 11.78 188.95 24.00 178.95 36.46 168.76"/>
<path fill="#000000" stroke="none" d="
M 277.02 193.47
C 259.60 189.37 243.91 173.48 239.85 155.85
C 238.41 149.62 238.41 137.98 239.85 131.75
C 243.97 113.86 259.59 98.22 277.47 94.09
C 283.69 92.65 295.31 92.65 301.54 94.09
C 319.41 98.22 335.04 113.86 339.16 131.75
C 340.60 137.98 340.60 149.62 339.16 155.85
C 335.04 173.74 319.41 189.39 301.54 193.51
C 295.69 194.86 282.81 194.84 277.02 193.47"/>
<path fill="#0f4f9f" stroke="none" d="
M 528.67 513.85
C 503.43 507.42 491.77 496.72 456.85 447.99
C 444.80 431.18 419.71 397.85 337.51 289.45
C 303.35 244.38 295.12 233.24 295.06 232.02
C 295.04 231.56 297.14 231.20 299.72 231.21
C 304.03 231.23 304.70 231.63 307.73 236.10
C 309.56 238.79 321.03 254.08 333.23 270.10
C 386.38 339.87 449.40 423.59 463.01 442.46
C 490.77 481.00 502.99 494.24 517.45 501.52
C 529.12 507.39 538.66 509.47 546.67 507.88
C 565.73 504.10 585.33 485.53 587.52 469.18
C 590.14 449.63 568.14 421.97 548.10 419.59
C 543.35 419.02 541.55 419.42 535.61 422.34
C 525.22 427.47 515.77 436.53 512.67 444.37
C 509.57 452.23 509.07 452.82 506.29 451.93
C 502.73 450.80 502.62 448.39 505.76 440.49
C 510.63 428.24 526.10 415.56 539.97 412.45
C 545.17 411.29 546.93 411.42 554.95 413.57
C 559.94 414.91 566.41 417.53 569.31 419.40
C 581.16 427.01 590.72 442.06 594.02 458.31
C 595.65 466.33 595.64 467.53 593.90 474.65
C 591.58 484.11 585.96 493.06 577.39 500.87
C 569.51 508.06 563.25 511.33 551.65 514.30
C 540.92 517.04 541.19 517.04 528.67 513.85"/>
<path fill="#0f4f9f" stroke="none" d="
M 281.41 507.95
C 278.41 504.63 276.64 498.05 270.73 468.27
C 255.56 391.91 241.94 355.80 218.65 330.04
C 215.69 326.76 213.26 323.09 213.26 321.88
C 213.26 316.98 220.66 312.59 237.31 307.64
C 252.31 303.18 256.48 300.85 261.35 294.20
C 269.44 283.19 274.23 266.15 275.76 243.04
C 276.20 236.50 276.97 230.87 277.48 230.56
C 278.00 230.24 280.17 230.30 282.30 230.70
L 286.19 231.43
L 286.19 369.45
C 286.19 515.57 286.27 513.31 281.41 507.95"/>
<path fill="#0f4f9f" stroke="none" d="
M 4.04 193.93
C 3.65 193.53 3.31 183.50 3.31 171.63
L 3.31 150.05
L 20.17 132.98
C 62.31 90.32 89.89 70.04 139.23 45.50
C 177.56 26.42 207.97 16.09 242.73 10.35
C 260.11 7.49 316.85 7.48 334.07 10.34
C 368.99 16.15 399.26 26.43 437.57 45.50
C 475.72 64.48 498.31 79.34 525.97 103.66
C 542.67 118.35 572.17 148.63 572.97 151.93
C 573.29 153.24 573.41 163.16 573.24 173.97
L 572.93 193.62
L 546.41 171.92
C 477.35 115.41 441.64 92.94 395.03 76.69
C 377.19 70.47 351.05 63.21 338.67 61.03
C 298.55 53.98 253.18 56.00 216.57 66.49
C 148.45 85.99 112.87 106.20 36.46 168.76
C 24.00 178.95 11.78 188.95 9.29 190.98
C 6.81 193.00 4.44 194.34 4.04 193.93"/>
<path fill="#c55436" stroke="none" d="
M 275.69 221.68
C 242.13 214.20 217.14 188.27 211.35 154.92
C 204.93 117.91 232.32 78.49 271.82 67.93
C 281.45 65.35 297.80 65.34 307.18 67.90
C 330.28 74.18 349.92 90.20 360.27 111.17
C 366.10 122.99 368.34 132.23 368.34 144.35
C 368.34 156.48 366.10 165.71 360.27 177.54
C 344.59 209.32 307.36 228.75 275.69 221.68
M 301.54 193.51
C 319.41 189.39 335.04 173.74 339.16 155.85
C 340.60 149.62 340.60 137.98 339.16 131.75
C 337.15 123.00 332.41 114.70 325.49 107.77
C 318.57 100.85 310.28 96.10 301.54 94.09
C 295.31 92.65 283.69 92.65 277.47 94.09
C 259.59 98.22 243.97 113.86 239.85 131.75
C 238.41 137.98 238.41 149.62 239.85 155.85
C 243.91 173.48 259.60 189.37 277.02 193.47
C 282.81 194.84 295.69 194.86 301.54 193.51"/>
<path fill="#ffebeb" stroke="none" d="
M 220.15 220.11
C 188.59 216.42 180.27 214.48 85.08 188.59
C 64.71 183.05 59.24 182.13 46.23 182.04
C 36.24 181.97 34.64 181.73 35.73 180.40
C 38.33 177.26 80.57 143.94 95.03 133.65
C 123.03 113.69 150.92 97.82 174.15 88.60
C 188.56 82.90 225.28 71.37 236.24 69.11
C 240.92 68.15 245.99 67.10 247.51 66.77
C 249.47 66.35 248.82 67.08 245.30 69.23
C 226.92 80.51 214.12 95.91 207.76 114.42
C 206.61 117.76 204.80 126.00 203.72 132.73
C 201.85 144.48 201.86 145.44 203.78 156.75
C 204.88 163.24 206.70 171.20 207.81 174.45
C 214.13 192.83 227.47 208.81 245.30 219.37
L 250.28 222.32
L 243.65 222.19
C 240.00 222.14 229.43 221.20 220.15 220.11"/>
<path fill="#ffebeb" stroke="none" d="
M 333.70 219.37
C 350.72 209.30 363.88 194.05 370.27 177.05
C 372.97 169.83 376.80 150.69 376.80 144.35
C 376.80 138.02 372.97 118.88 370.27 111.66
C 363.90 94.70 351.18 79.94 333.70 69.23
C 328.25 65.89 328.19 65.89 342.76 69.04
C 354.07 71.46 390.87 83.06 404.85 88.60
C 428.09 97.82 455.98 113.69 483.98 133.65
C 498.43 143.94 540.67 177.26 543.27 180.40
C 544.36 181.73 542.76 181.97 532.77 182.04
C 519.77 182.13 514.30 183.05 493.92 188.59
C 425.78 207.13 400.54 213.61 386.57 216.19
C 374.96 218.32 340.57 222.30 333.70 222.32
L 328.73 222.32
L 333.70 219.37"/>
</g>
</svg>
