<?xml version="1.0" encoding="UTF-8" standalone="no"?>
<!DOCTYPE svg PUBLIC "-//W3C//DTD SVG 1.1//EN"
"http://www.w3.org/Graphics/SVG/1.1/DTD/svg11.dtd">
<svg width="171px" height="600px"
xmlns="http://www.w3.org/2000/svg" version="1.1">
<g transform="translate(0000, 0000) scale(1.0000, 1.0000)">
<path fill="#000000" stroke="none" d="
M 138.97 596.70
C 133.57 592.15 130.41 581.15 128.01 558.59
C 125.07 530.97 110.37 459.89 101.34 429.82
C 96.89 414.99 87.80 392.30 80.50 377.82
C 65.64 348.32 39.24 308.66 20.60 287.79
C 2.66 267.71 -1.95 258.28 1.12 248.00
C 3.32 240.67 6.42 238.01 13.73 237.15
C 32.62 234.93 54.44 225.79 71.20 213.10
C 94.98 195.10 110.60 163.46 118.18 117.96
C 121.68 96.98 127.02 48.84 128.02 29.22
C 128.94 11.10 130.32 4.37 133.43 2.74
C 140.68 -1.07 164.37 -0.21 168.60 4.02
C 170.94 6.36 171.00 14.98 171.00 300.64
C 171.00 593.15 170.99 594.87 168.43 597.43
C 166.24 599.61 164.15 600.00 154.39 600.00
C 143.94 600.00 142.56 599.70 138.97 596.70
M 162.00 591.01
C 164.56 588.45 164.57 586.73 164.57 301.28
C 164.57 18.59 164.53 14.09 162.08 11.64
C 157.45 7.01 143.36 6.51 139.05 10.82
C 137.67 12.19 136.83 17.43 136.08 29.18
C 133.92 63.21 128.01 112.66 123.29 136.19
C 114.89 178.01 96.90 208.39 70.64 225.17
C 53.60 236.04 38.88 241.90 23.39 243.96
C 3.56 246.59 3.86 253.89 24.78 277.72
C 59.14 316.88 90.53 369.87 105.34 413.70
C 115.65 444.24 131.77 518.92 135.57 553.66
C 137.52 571.58 140.18 583.31 143.19 587.28
C 148.04 593.67 157.46 595.54 162.00 591.01"/>
<path fill="#104cab" stroke="none" d="
M 147.82 591.39
C 146.07 590.18 143.99 588.33 143.19 587.28
C 140.18 583.31 137.52 571.58 135.57 553.66
C 131.77 518.92 115.65 444.24 105.34 413.70
C 90.53 369.87 59.14 316.88 24.78 277.72
C 3.86 253.89 3.56 246.59 23.39 243.96
C 51.45 240.22 81.73 221.87 98.36 198.50
C 109.70 182.56 118.29 161.10 123.29 136.19
C 128.01 112.70 133.92 63.20 136.08 29.32
C 136.70 19.55 137.75 12.24 138.73 11.07
C 142.74 6.24 160.42 7.49 163.26 12.81
C 164.13 14.44 164.57 110.17 164.57 301.84
C 164.57 586.73 164.56 588.45 162.00 591.01
C 158.82 594.18 152.15 594.36 147.82 591.39"/>
</g>
</svg>
