<?xml version="1.0" encoding="UTF-8" standalone="no"?>
<!DOCTYPE svg PUBLIC "-//W3C//DTD SVG 1.1//EN"
"http://www.w3.org/Graphics/SVG/1.1/DTD/svg11.dtd">
<svg width="600px" height="457px"
xmlns="http://www.w3.org/2000/svg" version="1.1">
<g transform="translate(0000, 0000) scale(1.0000, 1.0000)">
<path fill="#000000" stroke="none" d="
M 490.85 455.24
C 474.17 451.46 453.09 438.44 434.24 420.32
C 420.05 406.68 408.69 392.92 391.48 368.61
C 384.94 359.35 374.59 344.73 368.50 336.14
C 355.35 317.57 264.97 197.76 224.26 144.92
C 183.74 92.33 148.36 45.54 140.65 34.36
L 134.07 24.82
L 133.47 235.20
C 133.13 350.90 132.40 446.54 131.82 447.73
C 130.17 451.10 124.52 453.39 117.84 453.39
C 104.13 453.39 100.20 447.16 96.18 419.12
C 92.66 394.51 87.51 367.30 81.04 339.23
C 68.02 282.64 57.26 249.33 42.37 219.48
C 33.13 200.94 26.45 191.06 14.92 178.81
C 3.27 166.42 0.00 160.50 0.00 151.80
C 0.00 146.62 0.60 144.92 3.62 141.49
C 8.67 135.73 13.65 133.70 31.09 130.26
C 50.95 126.36 59.35 122.31 70.45 111.29
C 88.00 93.87 97.25 65.01 97.45 27.06
C 97.55 9.27 98.73 6.12 106.41 3.14
C 111.10 1.32 115.48 0.81 126.25 0.78
C 143.23 0.76 147.39 2.25 152.98 10.40
C 159.32 19.64 206.19 81.79 236.27 120.86
C 299.56 203.04 375.72 304.41 396.19 333.73
C 438.54 394.34 458.60 415.26 488.78 430.31
C 505.11 438.44 511.82 439.45 526.27 435.89
C 548.57 430.42 564.37 418.78 572.72 401.68
C 581.24 384.19 582.67 371.73 577.89 356.63
C 574.36 345.55 569.16 337.22 561.39 330.23
C 536.19 307.57 504.36 308.32 481.32 332.12
C 475.77 337.86 473.27 342.93 471.94 351.17
C 471.46 354.15 470.53 357.25 469.85 358.08
C 468.29 360.02 455.47 360.07 453.55 358.14
C 449.88 354.48 453.23 330.95 458.77 321.52
C 462.69 314.84 472.67 306.20 481.61 301.76
C 490.80 297.22 508.71 293.48 521.42 293.45
C 532.74 293.44 551.03 296.86 559.64 300.60
C 572.69 306.26 583.48 315.91 590.81 328.49
C 600.04 344.34 602.90 377.28 596.99 399.98
C 589.44 429.04 574.73 444.08 545.24 452.85
C 536.18 455.54 531.61 456.13 516.43 456.51
C 503.68 456.83 496.18 456.46 490.85 455.24
M 540.43 447.99
C 569.81 439.39 584.63 424.25 592.18 395.17
C 596.21 379.67 596.22 366.37 592.22 350.59
C 587.77 333.07 580.80 322.32 567.91 313.08
C 558.02 306.02 548.69 302.38 533.93 299.83
C 522.44 297.86 521.05 297.84 509.96 299.74
C 503.48 300.85 495.08 302.91 491.29 304.33
C 482.90 307.46 471.03 316.26 465.69 323.29
C 458.83 332.32 455.11 351.08 459.62 354.01
C 463.19 356.32 465.72 353.49 467.36 345.36
C 469.30 335.79 471.10 332.52 478.16 325.79
C 486.12 318.23 490.26 315.57 499.82 311.89
C 506.83 309.20 509.93 308.73 521.24 308.69
C 532.42 308.64 535.79 309.11 543.01 311.69
C 563.77 319.08 577.05 332.88 583.29 353.57
C 590.26 376.68 583.09 405.54 566.15 422.48
C 555.57 433.08 536.80 441.02 517.03 443.25
C 494.93 445.74 460.22 425.44 433.36 394.31
C 421.74 380.85 410.63 366.08 391.38 338.54
C 370.98 309.32 295.36 208.67 231.47 125.68
C 194.39 77.50 156.76 27.62 150.41 18.23
C 144.00 8.76 140.08 6.86 126.85 6.79
C 108.49 6.71 105.84 9.89 105.81 31.87
C 105.74 79.79 90.91 114.88 64.44 129.76
C 56.81 134.05 49.36 136.40 35.47 138.93
C 22.32 141.32 13.92 144.77 10.88 149.04
C 8.72 152.08 8.71 152.47 10.61 156.39
C 11.70 158.68 17.06 165.23 22.51 170.98
C 34.82 183.98 41.15 193.70 52.38 216.89
C 71.77 256.94 93.32 337.54 104.00 410.01
C 107.28 432.29 109.74 439.95 114.64 443.16
C 118.34 445.59 122.14 444.05 123.91 439.41
C 124.62 437.54 125.05 357.03 125.05 227.96
C 125.05 23.46 125.10 19.46 127.38 16.67
C 129.58 13.99 129.90 13.93 133.09 15.66
C 134.96 16.67 139.18 21.19 142.48 25.72
C 157.96 46.90 188.92 87.83 223.09 132.29
C 272.73 196.87 359.42 311.73 373.31 331.33
C 379.39 339.92 389.75 354.54 396.29 363.80
C 413.49 388.11 424.86 401.87 439.05 415.51
C 457.89 433.63 478.95 446.63 495.66 450.45
C 507.03 453.04 526.93 451.95 540.43 447.99"/>
<path fill="#104c96" stroke="none" d="
M 495.66 450.45
C 478.95 446.63 457.89 433.63 439.05 415.51
C 424.86 401.87 413.49 388.11 396.29 363.80
C 389.75 354.54 379.39 339.92 373.31 331.33
C 359.42 311.73 272.73 196.87 223.09 132.29
C 188.92 87.83 157.96 46.90 142.48 25.72
C 139.18 21.19 134.96 16.67 133.09 15.66
C 129.90 13.93 129.58 13.99 127.38 16.67
C 125.10 19.46 125.05 23.46 125.05 227.96
C 125.05 357.03 124.62 437.54 123.91 439.41
C 122.14 444.05 118.34 445.59 114.64 443.16
C 109.74 439.95 107.28 432.29 104.00 410.01
C 93.32 337.54 71.77 256.94 52.38 216.89
C 41.15 193.70 34.82 183.98 22.51 170.98
C 17.06 165.23 11.70 158.68 10.61 156.39
C 8.71 152.47 8.72 152.08 10.88 149.04
C 13.92 144.77 22.32 141.32 35.47 138.93
C 49.36 136.40 56.81 134.05 64.44 129.76
C 90.91 114.88 105.74 79.79 105.81 31.87
C 105.81 25.26 106.40 17.77 107.10 15.24
C 108.83 9.02 113.98 6.83 126.85 6.83
C 140.07 6.83 143.98 8.72 150.41 18.23
C 156.76 27.62 194.39 77.50 231.47 125.68
C 295.36 208.67 370.98 309.32 391.38 338.54
C 410.63 366.08 421.74 380.85 433.36 394.31
C 460.22 425.44 494.93 445.74 517.03 443.25
C 536.80 441.02 555.57 433.08 566.15 422.48
C 583.09 405.54 590.26 376.68 583.29 353.57
C 577.05 332.88 563.77 319.08 543.01 311.69
C 535.79 309.11 532.42 308.64 521.24 308.69
C 509.93 308.73 506.83 309.20 499.82 311.89
C 490.26 315.57 486.12 318.23 478.16 325.79
C 471.10 332.52 469.30 335.79 467.36 345.36
C 465.72 353.49 463.19 356.32 459.62 354.01
C 455.11 351.08 458.83 332.32 465.69 323.29
C 471.03 316.26 482.90 307.46 491.29 304.33
C 495.08 302.91 503.48 300.85 509.96 299.74
C 521.05 297.84 522.44 297.86 533.93 299.83
C 566.40 305.43 584.84 321.49 592.22 350.59
C 596.22 366.37 596.21 379.67 592.18 395.17
C 584.63 424.25 569.81 439.39 540.43 447.99
C 526.93 451.95 507.03 453.04 495.66 450.45"/>
</g>
</svg>
