<?xml version="1.0" encoding="UTF-8" standalone="no"?>
<!DOCTYPE svg PUBLIC "-//W3C//DTD SVG 1.1//EN"
"http://www.w3.org/Graphics/SVG/1.1/DTD/svg11.dtd">
<svg width="439px" height="600px"
xmlns="http://www.w3.org/2000/svg" version="1.1">
<g transform="translate(0000, 0000) scale(1.0000, 1.0000)">
<path fill="#000000" stroke="none" d="
M 48.47 597.38
C 7.37 588.04 -8.52 559.25 4.57 517.87
C 11.41 496.24 23.09 477.82 54.08 439.82
C 70.02 420.26 72.77 414.31 77.05 390.20
C 79.17 378.26 82.47 365.47 84.38 361.76
C 89.99 350.94 111.55 332.11 118.36 332.11
C 124.13 332.11 123.53 337.43 117.04 343.54
C 108.72 351.38 105.73 364.73 106.46 390.83
C 107.73 436.83 108.26 434.42 91.84 456.88
C 82.05 470.26 76.63 480.09 77.53 482.79
C 78.56 485.87 103.16 467.25 115.92 453.72
C 152.22 415.25 215.46 306.68 234.34 250.46
C 240.18 233.06 241.14 227.87 241.25 212.84
C 241.41 190.95 237.94 182.53 221.98 165.91
C 212.59 156.15 208.75 153.50 200.34 151.06
C 191.84 148.61 188.75 148.48 181.86 150.29
C 177.31 151.50 171.72 153.71 169.47 155.17
C 163.05 159.36 157.45 172.15 156.28 185.32
C 155.28 196.51 154.94 197.25 150.66 197.25
C 146.47 197.25 145.94 196.24 143.86 184.40
C 142.61 177.34 141.05 161.65 140.37 149.54
C 139.21 128.77 139.41 126.70 144.08 112.84
C 162.08 59.32 202.20 19.63 252.93 5.12
C 271.90 -0.31 315.75 -0.84 334.30 4.13
C 383.34 17.28 419.20 56.50 433.69 112.84
C 439.26 134.42 439.72 171.16 434.76 194.50
C 424.78 241.27 402.28 286.26 361.78 340.37
C 319.28 397.17 291.67 424.73 238.38 463.56
C 217.88 478.50 196.12 495.69 190.00 501.78
C 183.88 507.87 170.68 524.40 160.67 538.53
C 126.80 586.28 110.43 598.22 77.35 599.34
C 66.69 599.71 55.25 598.92 48.47 597.38
M 99.76 584.81
C 114.76 577.93 127.99 564.50 151.54 532.11
C 175.82 498.73 185.28 488.84 211.03 469.96
C 263.97 431.12 274.31 422.92 289.45 407.91
C 307.78 389.71 337.52 354.83 356.45 329.34
C 392.62 280.64 416.61 232.39 425.32 190.83
C 429.49 170.86 429.56 137.72 425.44 120.50
C 415.34 78.13 387.40 39.89 354.49 23.38
C 332.85 12.51 313.73 8.50 289.34 9.67
C 244.74 11.83 206.68 33.01 177.03 72.17
C 167.90 84.22 153.26 112.88 151.57 122.02
C 150.56 127.41 150.58 127.43 152.66 122.94
C 162.78 100.94 166.45 94.77 175.53 84.77
C 201.28 56.33 238.36 36.70 280.15 29.36
C 294.59 26.81 311.01 29.17 331.14 36.70
C 361.38 48.00 388.21 81.25 398.96 120.73
C 404.63 141.54 404.52 176.62 398.74 199.08
C 382.79 260.94 331.86 341.58 269.30 404.07
C 245.25 428.11 230.65 439.21 193.78 461.54
C 162.80 480.31 155.76 485.45 135.01 504.42
C 127.93 510.90 118.51 517.80 114.07 519.78
C 97.54 527.08 79.63 519.91 70.94 502.51
C 62.82 486.22 64.84 477.06 82.22 451.71
C 98.32 428.20 99.68 424.00 97.13 405.98
C 96.03 398.15 95.59 385.30 96.18 377.45
C 96.80 369.23 96.54 363.58 95.61 364.17
C 92.63 366.00 88.30 380.44 85.38 398.17
C 81.65 420.73 77.09 429.78 57.68 453.21
C 9.97 510.79 -1.32 546.18 20.52 569.85
C 38.79 589.65 74.43 596.39 99.76 584.81
M 113.88 507.38
C 117.41 505.08 127.42 496.70 136.13 488.75
C 144.83 480.81 160.81 468.94 171.65 462.39
C 211.80 438.09 234.65 421.98 251.72 405.91
C 323.41 338.39 385.48 236.83 393.21 174.33
C 396.79 145.41 388.87 111.69 372.69 86.88
C 353.68 57.72 321.59 38.53 291.87 38.53
C 273.72 38.53 243.34 48.66 220.09 62.46
C 204.79 71.52 180.78 93.78 172.70 106.37
C 165.30 117.89 157.97 136.77 157.97 144.33
L 157.97 150.35
L 164.38 146.00
C 174.39 139.21 187.25 136.79 198.84 139.52
C 213.11 142.86 220.27 147.08 231.09 158.51
C 242.64 170.72 248.87 183.41 251.86 200.94
C 253.90 212.79 253.70 215.36 249.18 234.64
C 243.23 260.07 235.24 280.64 217.77 315.60
C 194.92 361.30 152.13 429.32 130.03 455.06
C 118.42 468.59 96.76 486.57 84.92 492.51
C 78.29 495.85 78.60 498.37 86.62 505.85
C 95.81 514.44 102.48 514.81 113.88 507.38"/>
<path fill="#ae3c2a" stroke="none" d="
M 55.20 588.94
C 34.55 584.62 15.08 569.19 10.95 553.89
C 4.89 531.34 20.08 498.59 57.68 453.21
C 77.09 429.78 81.65 420.73 85.38 398.17
C 88.30 380.44 92.63 366.00 95.61 364.17
C 96.54 363.58 96.80 369.23 96.18 377.45
C 95.59 385.30 96.03 398.15 97.13 405.98
C 99.68 424.00 98.32 428.20 82.22 451.71
C 64.84 477.06 62.82 486.22 70.94 502.51
C 79.63 519.91 97.54 527.08 114.07 519.78
C 118.51 517.80 127.93 510.90 135.01 504.42
C 155.76 485.45 162.80 480.31 193.78 461.54
C 230.65 439.21 245.25 428.11 269.30 404.07
C 331.86 341.58 382.79 260.94 398.74 199.08
C 404.52 176.62 404.63 141.54 398.96 120.73
C 388.21 81.25 361.38 48.00 331.14 36.70
C 311.01 29.17 294.59 26.81 280.15 29.36
C 238.36 36.70 201.28 56.33 175.53 84.77
C 166.45 94.77 162.78 100.94 152.66 122.94
C 150.58 127.43 150.56 127.41 151.57 122.02
C 153.26 112.88 167.90 84.22 177.03 72.17
C 198.12 44.31 226.00 24.09 256.24 14.73
C 276.18 8.55 305.35 7.63 325.12 12.57
C 366.87 22.99 398.98 51.61 416.76 94.28
C 425.43 115.10 428.42 130.35 428.51 154.13
C 428.64 197.58 413.34 242.13 380.26 294.61
C 357.89 330.06 319.07 378.50 289.45 407.91
C 274.31 422.92 263.97 431.12 211.03 469.96
C 185.28 488.84 175.82 498.73 151.54 532.11
C 118.93 576.94 103.25 589.03 76.32 590.11
C 69.19 590.40 59.70 589.87 55.20 588.94"/>
<path fill="#c55436" stroke="none" d="
M 95.51 511.69
C 90.32 509.63 83.15 503.38 80.62 498.68
C 79.26 496.17 80.12 494.94 84.92 492.51
C 96.76 486.57 118.42 468.59 130.03 455.06
C 152.13 429.32 194.92 361.30 217.77 315.60
C 235.24 280.64 243.23 260.07 249.18 234.64
C 253.70 215.36 253.90 212.79 251.86 200.94
C 248.87 183.41 242.64 170.72 231.09 158.51
C 220.27 147.08 213.11 142.86 198.84 139.52
C 187.25 136.79 174.39 139.21 164.38 146.00
L 157.97 150.35
L 157.97 144.33
C 157.97 136.77 165.30 117.89 172.70 106.37
C 180.78 93.78 204.79 71.52 220.09 62.46
C 237.23 52.29 255.76 44.84 272.71 41.36
C 288.95 38.00 295.93 37.85 308.95 40.55
C 361.36 51.43 400.70 113.91 393.21 174.33
C 385.48 236.83 323.41 338.39 251.72 405.91
C 234.65 421.98 211.80 438.09 171.65 462.39
C 160.81 468.94 144.83 480.81 136.13 488.75
C 112.25 510.55 104.18 515.10 95.51 511.69"/>
</g>
</svg>
