<?xml version="1.0" encoding="UTF-8" standalone="no"?>
<!DOCTYPE svg PUBLIC "-//W3C//DTD SVG 1.1//EN"
"http://www.w3.org/Graphics/SVG/1.1/DTD/svg11.dtd">
<svg width="554px" height="600px"
xmlns="http://www.w3.org/2000/svg" version="1.1">
<g transform="translate(0000, 0000) scale(1.0000, 1.0000)">
<path fill="#000000" stroke="none" d="
M 207.44 596.75
C 205.24 594.11 205.58 590.65 209.30 578.07
C 215.03 558.53 239.57 465.59 239.57 463.32
C 239.57 462.41 234.52 460.46 228.34 459.03
C 170.91 445.75 99.81 379.86 92.83 333.48
C 91.96 327.67 90.14 323.81 87.96 323.15
C 68.49 317.08 50.87 300.83 31.51 271.07
C 3.74 228.38 -5.65 198.60 3.21 181.49
C 4.96 178.10 9.95 172.61 14.27 169.32
C 24.68 161.40 41.24 160.89 51.16 168.21
L 57.75 173.08
L 57.75 168.13
C 57.75 165.40 59.19 157.69 60.94 150.98
C 81.75 71.17 140.36 17.44 222.20 3.14
C 246.56 -1.13 310.45 -1.07 333.15 3.22
C 415.11 18.75 472.35 71.64 493.06 150.98
C 494.81 157.69 496.25 165.40 496.25 168.13
L 496.25 173.08
L 502.84 168.21
C 507.78 164.58 512.33 163.35 520.87 163.35
C 533.72 163.35 541.14 167.53 549.19 179.34
C 560.44 195.84 551.56 226.40 522.49 271.07
C 503.13 300.85 485.51 317.08 466.04 323.15
C 463.86 323.81 462.04 327.67 461.17 333.48
C 455.48 371.40 406.35 424.36 354.73 448.19
C 344.91 452.73 331.84 457.60 325.66 459.03
C 319.48 460.46 314.43 462.41 314.43 463.32
C 314.43 465.59 338.97 558.53 344.70 578.07
C 348.42 590.65 348.76 594.11 346.56 596.75
C 344.25 599.53 334.22 600.00 277.00 600.00
C 219.78 600.00 209.75 599.53 207.44 596.75
M 317.04 448.55
C 371.31 434.69 431.18 384.15 444.78 340.70
C 448.31 329.38 448.44 327.22 445.79 323.49
C 444.12 321.14 441.15 316.98 439.18 314.22
C 434.11 307.11 433.02 288.85 437.08 279.12
C 439.71 272.86 441.60 271.17 445.94 271.17
C 453.06 271.17 454.62 275.55 450.41 283.69
C 446.11 292.01 446.15 298.83 450.56 305.10
C 453.51 309.33 455.35 309.93 462.62 308.95
C 467.33 308.31 475.14 304.98 479.97 301.52
C 499.09 287.87 529.85 239.34 537.96 210.06
C 541.29 198.02 541.29 196.51 538.13 190.36
C 534.71 183.74 525.12 177.22 518.83 177.22
C 517.02 177.22 510.24 182.03 503.73 187.90
C 497.23 193.77 490.15 198.58 487.97 198.58
C 483.56 198.58 470.66 190.48 461.21 181.81
C 457.83 178.70 446.07 165.44 435.07 152.33
L 415.07 128.50
L 404.87 131.57
C 378.92 139.39 306.84 149.47 277.00 149.47
C 247.16 149.47 175.08 139.39 149.13 131.57
L 138.93 128.50
L 118.93 152.33
C 107.93 165.44 96.17 178.70 92.79 181.81
C 83.34 190.48 70.44 198.58 66.03 198.58
C 63.85 198.58 56.77 193.77 50.27 187.90
C 43.76 182.03 36.79 177.22 34.74 177.22
C 28.90 177.25 17.26 185.21 14.63 191.02
C 6.97 207.76 46.99 282.21 74.03 301.52
C 78.86 304.98 86.67 308.31 91.38 308.95
C 98.65 309.93 100.49 309.33 103.44 305.10
C 107.85 298.83 107.89 292.01 103.59 283.69
C 99.38 275.55 100.94 271.17 108.06 271.17
C 112.40 271.17 114.29 272.86 116.92 279.12
C 120.98 288.85 119.89 307.11 114.82 314.22
C 112.85 316.98 109.88 321.14 108.21 323.49
C 101.09 333.50 119.16 368.97 143.65 393.05
C 169.41 418.38 206.84 440.80 236.12 448.44
C 257.43 454.04 295.42 454.08 317.04 448.55"/>
<path fill="#000000" stroke="none" d="
M 263.10 404.37
C 246.43 401.23 211.46 389.68 208.40 386.31
C 202.39 379.67 206.35 376.31 228.23 369.46
C 270.45 356.24 283.37 356.24 325.77 369.48
C 347.95 376.40 351.95 379.92 345.21 386.52
C 336.08 395.47 280.25 407.59 263.10 404.37
M 302.75 387.29
C 310.37 385.39 316.57 383.10 316.57 382.21
C 316.57 379.47 289.64 373.67 277.00 373.67
C 264.27 373.67 237.43 379.47 237.43 382.23
C 237.43 385.09 261.43 390.32 275.48 390.53
C 282.90 390.66 295.16 389.19 302.75 387.29"/>
<path fill="#000000" stroke="none" d="
M 256.68 336.68
C 228.12 330.09 225.17 321.46 239.59 286.89
C 255.50 248.69 258.56 226.53 249.73 213.42
C 244.29 205.39 233.94 198.64 223.87 196.57
C 218.50 195.48 217.11 194.11 217.11 189.97
C 217.11 183.40 221.90 182.33 235.01 185.98
C 248.12 189.65 264.34 205.52 266.45 216.75
C 270.03 235.81 261.47 277.67 248.91 302.48
C 245.86 308.52 244.06 314.63 244.94 316.04
C 252.00 327.44 304.14 327.44 311.20 316.04
C 312.08 314.63 310.28 308.52 307.22 302.48
C 294.67 277.67 286.11 235.81 289.68 216.75
C 291.80 205.52 308.02 189.65 321.13 185.98
C 334.24 182.33 339.03 183.40 339.03 189.97
C 339.03 194.11 337.64 195.48 332.27 196.57
C 322.20 198.64 311.84 205.39 306.41 213.42
C 297.58 226.53 300.64 248.69 316.55 286.89
C 326.56 310.87 327.37 320.37 320.06 327.67
C 310.58 337.13 278.37 341.72 256.68 336.68"/>
<path fill="#000000" stroke="none" d="
M 157.67 250.87
C 150.86 249.16 143.16 246.60 140.55 245.19
C 137.94 243.78 132.45 242.07 128.34 241.39
C 121.73 240.28 120.85 239.38 120.85 233.77
C 120.85 228.36 121.82 227.25 127.27 226.33
C 130.80 225.74 139.44 221.49 146.48 216.88
C 178.78 195.69 212.08 195.52 230.50 216.47
C 241.69 229.17 240.00 240.90 225.94 248.16
C 214.41 254.09 176.45 255.61 157.67 250.87
M 210.69 241.07
C 215.85 239.77 221.60 237.01 223.48 234.92
C 226.65 231.42 226.48 230.63 221.04 224.18
C 206.37 206.78 183.31 207.57 153.75 226.51
C 141.22 234.53 141.94 235.58 163.18 240.19
C 179.76 243.80 198.46 244.14 210.69 241.07"/>
<path fill="#000000" stroke="none" d="
M 339.03 252.21
C 315.69 246.09 309.66 232.19 323.50 216.47
C 341.92 195.52 375.22 195.69 407.52 216.88
C 414.56 221.49 423.20 225.74 426.73 226.33
C 432.18 227.25 433.15 228.36 433.15 233.77
C 433.15 239.34 432.21 240.32 425.66 241.62
C 421.53 242.46 412.40 245.25 405.34 247.86
C 395.63 251.44 386.75 252.75 368.98 253.26
C 356.04 253.60 342.56 253.15 339.03 252.21
M 399.89 237.99
L 411.52 234.47
L 406.30 230.37
C 396.70 222.90 374.60 213.03 365.04 211.94
C 352.23 210.51 341.64 214.40 333.66 223.49
C 327.44 230.56 327.22 231.29 330.52 234.92
C 332.46 237.05 337.58 239.81 341.88 241.02
C 352.53 244.06 385.60 242.33 399.89 237.99"/>
<path fill="#000000" stroke="none" d="
M 183.95 237.01
C 181.60 234.66 179.68 230.35 179.68 227.40
C 179.68 224.46 181.60 220.14 183.95 217.79
C 186.31 215.44 190.63 213.52 193.58 213.52
C 196.53 213.52 200.85 215.44 203.20 217.79
C 205.56 220.14 207.48 224.46 207.48 227.40
C 207.48 230.35 205.56 234.66 203.20 237.01
C 200.85 239.36 196.53 241.28 193.58 241.28
C 190.63 241.28 186.31 239.36 183.95 237.01"/>
<path fill="#000000" stroke="none" d="
M 350.80 237.01
C 348.44 234.66 346.52 230.35 346.52 227.40
C 346.52 224.46 348.44 220.14 350.80 217.79
C 353.15 215.44 357.47 213.52 360.42 213.52
C 363.37 213.52 367.69 215.44 370.05 217.79
C 372.40 220.14 374.32 224.46 374.32 227.40
C 374.32 230.35 372.40 234.66 370.05 237.01
C 367.69 239.36 363.37 241.28 360.42 241.28
C 357.47 241.28 353.15 239.36 350.80 237.01"/>
<path fill="#ae3c2a" stroke="none" d="
M 236.12 448.44
C 182.31 434.37 122.69 383.74 109.22 340.70
C 105.69 329.38 105.56 327.22 108.21 323.49
C 109.88 321.14 112.85 316.98 114.82 314.22
C 119.89 307.11 120.98 288.85 116.92 279.12
C 114.29 272.86 112.40 271.17 108.06 271.17
C 100.94 271.17 99.38 275.55 103.59 283.69
C 107.89 292.01 107.85 298.83 103.44 305.10
C 100.49 309.33 98.65 309.93 91.38 308.95
C 86.67 308.31 78.86 304.98 74.03 301.52
C 46.99 282.21 6.97 207.76 14.63 191.02
C 17.26 185.21 28.90 177.25 34.74 177.22
C 36.79 177.22 43.76 182.03 50.27 187.90
C 56.77 193.77 63.85 198.58 66.03 198.58
C 75.74 198.58 93.67 182.86 119.27 151.94
C 135.29 132.60 138.24 129.97 143.10 130.83
C 146.16 131.36 158.29 133.79 170.05 136.23
C 225.51 147.78 271.89 151.45 311.22 147.44
C 340.89 144.41 390.00 136.10 404.87 131.59
L 415.07 128.50
L 435.07 152.33
C 446.07 165.44 457.83 178.70 461.21 181.81
C 470.66 190.48 483.56 198.58 487.97 198.58
C 490.15 198.58 497.23 193.77 503.73 187.90
C 510.24 182.03 517.02 177.22 518.83 177.22
C 525.12 177.22 534.71 183.74 538.13 190.36
C 541.29 196.51 541.29 198.02 537.96 210.06
C 529.85 239.34 499.09 287.87 479.97 301.52
C 475.14 304.98 467.33 308.31 462.62 308.95
C 455.35 309.93 453.51 309.33 450.56 305.10
C 446.15 298.83 446.11 292.01 450.41 283.69
C 454.62 275.55 453.06 271.17 445.94 271.17
C 441.60 271.17 439.71 272.86 437.08 279.12
C 433.02 288.85 434.11 307.11 439.18 314.22
C 441.15 316.98 444.12 321.14 445.79 323.49
C 448.44 327.22 448.31 329.38 444.78 340.70
C 431.18 384.15 371.31 434.69 317.04 448.55
C 295.42 454.08 257.43 454.04 236.12 448.44
M 318.90 397.02
C 341.66 390.34 350.22 385.11 347.99 379.28
C 346.56 375.57 312.04 364.19 291.16 360.56
C 274.63 357.67 258.63 359.94 228.23 369.46
C 206.35 376.31 202.39 379.67 208.40 386.31
C 211.46 389.68 246.43 401.23 263.10 404.37
C 274.11 406.44 297.36 403.39 318.90 397.02
M 306.69 335.08
C 318.33 331.81 325.13 324.41 325.13 315.03
C 325.13 310.87 321.28 298.21 316.55 286.89
C 300.64 248.69 297.58 226.53 306.41 213.42
C 311.84 205.39 322.20 198.64 332.27 196.57
C 337.64 195.48 339.03 194.11 339.03 189.97
C 339.03 183.40 334.24 182.33 321.13 185.98
C 308.02 189.65 291.80 205.52 289.68 216.75
C 286.11 235.81 294.67 277.67 307.22 302.48
C 310.28 308.52 312.08 314.63 311.20 316.04
C 304.14 327.44 252.00 327.44 244.94 316.04
C 244.06 314.63 245.86 308.52 248.91 302.48
C 261.47 277.67 270.03 235.81 266.45 216.75
C 264.34 205.52 248.12 189.65 235.01 185.98
C 221.90 182.33 217.11 183.40 217.11 189.97
C 217.11 194.11 218.50 195.48 223.87 196.57
C 233.94 198.64 244.29 205.39 249.73 213.42
C 258.56 226.53 255.50 248.69 239.59 286.89
C 225.17 321.46 228.12 330.09 256.68 336.68
C 269.41 339.63 293.23 338.86 306.69 335.08
M 225.94 248.16
C 240.00 240.90 241.69 229.17 230.50 216.47
C 212.08 195.52 178.78 195.69 146.48 216.88
C 139.44 221.49 130.80 225.74 127.27 226.33
C 121.82 227.25 120.85 228.36 120.85 233.77
C 120.85 239.38 121.73 240.28 128.34 241.39
C 132.45 242.07 137.94 243.78 140.55 245.19
C 158.63 254.97 209.28 256.74 225.94 248.16
M 405.34 247.86
C 412.40 245.25 421.53 242.46 425.66 241.62
C 432.21 240.32 433.15 239.34 433.15 233.77
C 433.15 228.36 432.18 227.25 426.73 226.33
C 423.20 225.74 414.56 221.49 407.52 216.88
C 375.22 195.69 341.92 195.52 323.50 216.47
C 313.06 228.34 314.05 240.88 325.92 247.05
C 337.13 252.88 344.46 253.94 368.98 253.26
C 386.75 252.75 395.63 251.44 405.34 247.86"/>
<path fill="#fefefe" stroke="none" d="
M 163.18 240.19
C 141.84 235.56 141.17 234.56 154.16 226.23
C 183.03 207.74 206.56 207.01 221.04 224.18
C 226.48 230.63 226.65 231.42 223.48 234.92
C 215.97 243.20 188.25 245.64 163.18 240.19
M 203.20 237.01
C 205.56 234.66 207.48 230.35 207.48 227.40
C 207.48 224.46 205.56 220.14 203.20 217.79
C 200.85 215.44 196.53 213.52 193.58 213.52
C 190.63 213.52 186.31 215.44 183.95 217.79
C 181.60 220.14 179.68 224.46 179.68 227.40
C 179.68 230.35 181.60 234.66 183.95 237.01
C 186.31 239.36 190.63 241.28 193.58 241.28
C 196.53 241.28 200.85 239.36 203.20 237.01"/>
<path fill="#fefefe" stroke="none" d="
M 341.88 241.02
C 337.58 239.81 332.46 237.05 330.52 234.92
C 327.22 231.29 327.44 230.56 333.66 223.49
C 341.64 214.40 352.23 210.51 365.04 211.94
C 374.60 213.03 396.70 222.90 406.30 230.37
L 411.52 234.47
L 399.89 237.99
C 385.60 242.33 352.53 244.06 341.88 241.02
M 370.05 237.01
C 372.40 234.66 374.32 230.35 374.32 227.40
C 374.32 224.46 372.40 220.14 370.05 217.79
C 367.69 215.44 363.37 213.52 360.42 213.52
C 357.47 213.52 353.15 215.44 350.80 217.79
C 348.44 220.14 346.52 224.46 346.52 227.40
C 346.52 230.35 348.44 234.66 350.80 237.01
C 353.15 239.36 357.47 241.28 360.42 241.28
C 363.37 241.28 367.69 239.36 370.05 237.01"/>
<path fill="#ff5b29" stroke="none" d="
M 249.73 387.10
C 242.97 385.32 237.43 383.10 237.43 382.14
C 237.43 379.54 265.60 373.67 278.05 373.67
C 289.88 373.67 316.57 379.58 316.57 382.21
C 316.57 385.17 289.11 390.75 275.48 390.53
C 268.08 390.43 256.49 388.87 249.73 387.10"/>
</g>
</svg>
