<?xml version="1.0" encoding="UTF-8" standalone="no"?>
<!DOCTYPE svg PUBLIC "-//W3C//DTD SVG 1.1//EN"
"http://www.w3.org/Graphics/SVG/1.1/DTD/svg11.dtd">
<svg width="600px" height="158px"
xmlns="http://www.w3.org/2000/svg" version="1.1">
<g transform="translate(0000, 0000) scale(1.0000, 1.0000)">
<path fill="#000000" stroke="none" d="
M 2.25 155.47
C -1.55 151.66 -0.44 142.31 4.86 133.39
C 10.58 123.73 25.40 108.31 39.02 97.83
C 52.98 87.08 84.26 66.24 100.49 56.90
C 232.33 -19.07 367.67 -19.07 499.51 56.90
C 515.74 66.24 547.02 87.08 560.98 97.83
C 574.60 108.31 589.42 123.73 595.14 133.39
C 600.44 142.31 601.55 151.66 597.75 155.47
C 592.73 160.53 585.82 158.57 569.44 147.50
C 557.21 139.23 528.46 122.81 502.98 109.51
L 485.12 100.21
L 484.52 120.82
C 483.99 139.46 483.70 141.60 481.62 143.13
C 478.14 145.68 121.86 145.68 118.38 143.13
C 116.30 141.60 116.01 139.46 115.48 120.82
L 114.88 100.21
L 97.02 109.51
C 71.54 122.81 42.79 139.23 30.56 147.50
C 14.18 158.57 7.27 160.53 2.25 155.47
M 24.94 142.58
C 46.45 127.98 105.69 96.06 126.83 87.69
C 163.42 73.22 185.80 64.66 189.88 63.60
C 200.68 60.77 235.32 54.82 255.36 52.33
C 296.02 47.29 335.12 49.20 385.71 58.66
C 396.51 60.70 407.50 62.91 410.12 63.60
C 414.20 64.66 436.58 73.22 473.17 87.69
C 494.31 96.06 553.55 127.98 575.06 142.58
C 587.58 151.09 590.95 152.53 592.89 150.18
C 597.69 144.37 575.98 117.78 551.71 99.78
C 488.33 52.75 421.33 22.12 357.14 10.86
C 300.99 0.99 244.00 5.82 186.49 25.32
C 170.62 30.69 144.38 41.68 129.74 49.09
C 106.30 60.94 71.15 82.81 48.29 99.78
C 24.02 117.78 2.31 144.37 7.11 150.18
C 9.05 152.53 12.42 151.09 24.94 142.58
M 163.10 110.28
L 163.10 81.71
L 148.51 86.95
C 140.49 89.82 131.12 93.66 127.68 95.47
L 121.44 98.75
L 121.43 117.36
C 121.43 130.25 121.87 136.42 122.86 137.41
C 123.86 138.42 130.19 138.85 143.69 138.85
L 163.10 138.85
L 163.10 110.28
M 215.48 102.23
L 215.48 65.61
L 209.23 66.46
C 199.74 67.75 186.82 71.29 177.77 75.07
L 169.64 78.47
L 169.32 108.66
L 169.01 138.85
L 192.24 138.85
L 215.48 138.85
L 215.48 102.23
M 273.81 98.15
L 273.81 57.45
L 269.94 57.47
C 260.62 57.49 231.73 61.66 223.51 64.16
C 221.58 64.74 221.43 67.60 221.43 101.83
L 221.43 138.85
L 247.62 138.85
L 273.81 138.85
L 273.81 98.15
M 320.24 97.68
C 320.24 61.25 320.02 56.43 318.36 55.79
C 315.90 54.85 284.10 54.85 281.64 55.79
C 279.98 56.43 279.76 61.25 279.76 97.68
L 279.76 138.85
L 300.00 138.85
L 320.24 138.85
L 320.24 97.68
M 378.57 101.83
C 378.57 67.60 378.42 64.74 376.49 64.16
C 368.27 61.66 339.38 57.49 330.06 57.47
L 326.19 57.45
L 326.19 98.15
L 326.19 138.85
L 352.38 138.85
L 378.57 138.85
L 378.57 101.83
M 430.68 108.66
L 430.36 78.47
L 422.23 75.07
C 413.18 71.29 400.26 67.75 390.77 66.46
L 384.52 65.61
L 384.52 102.23
L 384.52 138.85
L 407.76 138.85
L 430.99 138.85
L 430.68 108.66
M 477.14 137.41
C 478.13 136.42 478.57 130.25 478.57 117.36
L 478.56 98.75
L 472.32 95.47
C 468.88 93.66 459.51 89.82 451.49 86.95
L 436.90 81.71
L 436.90 110.28
L 436.90 138.85
L 456.31 138.85
C 469.81 138.85 476.14 138.42 477.14 137.41"/>
<path fill="#cf0f0f" stroke="none" d="
M 7.11 150.18
C 2.31 144.37 24.02 117.78 48.29 99.78
C 111.65 52.75 178.51 22.19 242.86 10.84
C 335.61 -5.53 430.83 18.48 526.71 82.40
C 549.69 97.71 560.17 105.78 571.86 117.18
C 587.33 132.30 596.19 146.19 592.89 150.18
C 590.95 152.53 587.58 151.09 575.06 142.58
C 553.55 127.98 494.31 96.06 473.17 87.69
C 436.58 73.22 414.20 64.66 410.12 63.60
C 399.32 60.77 364.68 54.82 344.64 52.33
C 303.98 47.29 264.88 49.20 214.29 58.66
C 203.49 60.70 192.50 62.91 189.88 63.60
C 185.80 64.66 163.42 73.22 126.83 87.69
C 105.69 96.06 46.45 127.98 24.94 142.58
C 12.42 151.09 9.05 152.53 7.11 150.18"/>
<path fill="#fefefe" stroke="none" d="
M 122.86 137.41
C 121.87 136.42 121.43 130.25 121.43 117.36
L 121.44 98.75
L 127.68 95.47
C 131.12 93.66 140.49 89.82 148.51 86.95
L 163.10 81.71
L 163.10 110.28
L 163.10 138.85
L 143.69 138.85
C 130.19 138.85 123.86 138.42 122.86 137.41"/>
<path fill="#fefefe" stroke="none" d="
M 169.32 108.66
L 169.64 78.47
L 177.77 75.07
C 186.82 71.29 199.74 67.75 209.23 66.46
L 215.48 65.61
L 215.48 102.23
L 215.48 138.85
L 192.24 138.85
L 169.01 138.85
L 169.32 108.66"/>
<path fill="#fefefe" stroke="none" d="
M 221.43 101.83
C 221.43 67.60 221.58 64.74 223.51 64.16
C 231.73 61.66 260.62 57.49 269.94 57.47
L 273.81 57.45
L 273.81 98.15
L 273.81 138.85
L 247.62 138.85
L 221.43 138.85
L 221.43 101.83"/>
<path fill="#fefefe" stroke="none" d="
M 279.76 97.70
L 279.76 56.53
L 282.44 55.81
C 285.94 54.87 315.92 54.85 318.36 55.79
C 320.02 56.43 320.24 61.25 320.24 97.68
L 320.24 138.85
L 300.00 138.85
L 279.76 138.85
L 279.76 97.70"/>
<path fill="#fefefe" stroke="none" d="
M 326.19 98.15
L 326.19 57.45
L 330.06 57.47
C 339.38 57.49 368.27 61.66 376.49 64.16
C 378.42 64.74 378.57 67.60 378.57 101.83
L 378.57 138.85
L 352.38 138.85
L 326.19 138.85
L 326.19 98.15"/>
<path fill="#fefefe" stroke="none" d="
M 384.52 102.23
L 384.52 65.61
L 390.77 66.46
C 400.26 67.75 413.18 71.29 422.23 75.07
L 430.36 78.47
L 430.68 108.66
L 430.99 138.85
L 407.76 138.85
L 384.52 138.85
L 384.52 102.23"/>
<path fill="#fefefe" stroke="none" d="
M 436.90 110.28
L 436.90 81.71
L 451.49 86.95
C 459.51 89.82 468.88 93.66 472.32 95.47
L 478.56 98.75
L 478.57 117.36
C 478.57 130.25 478.13 136.42 477.14 137.41
C 476.14 138.42 469.81 138.85 456.31 138.85
L 436.90 138.85
L 436.90 110.28"/>
</g>
</svg>
