<?xml version="1.0" encoding="UTF-8" standalone="no"?>
<!DOCTYPE svg PUBLIC "-//W3C//DTD SVG 1.1//EN"
"http://www.w3.org/Graphics/SVG/1.1/DTD/svg11.dtd">
<svg width="530px" height="600px"
xmlns="http://www.w3.org/2000/svg" version="1.1">
<g transform="translate(0000, 0000) scale(1.0000, 1.0000)">
<path fill="#000000" stroke="none" d="
M 14.18 597.42
C 11.83 595.07 11.61 593.16 11.64 575.21
C 11.71 548.96 13.76 538.04 21.32 523.57
C 25.42 515.73 27.05 511.22 26.55 509.21
C 26.14 507.59 20.90 498.91 14.92 489.94
C 5.84 476.33 3.66 472.04 1.78 464.06
C -0.36 454.97 -0.36 454.06 1.77 445.17
C 4.64 433.24 8.37 428.10 24.04 414.50
C 37.24 403.06 42.55 396.70 42.55 392.36
C 42.55 390.97 39.15 383.09 35.00 374.85
C 22.09 349.27 21.16 343.76 27.13 327.85
C 29.32 322.00 32.82 317.46 45.02 304.62
C 59.58 289.31 64.48 282.42 64.48 277.27
C 64.48 275.96 62.98 269.38 61.15 262.66
C 58.15 251.59 57.98 249.76 59.37 243.35
C 61.45 233.83 64.86 227.45 71.34 220.98
C 78.67 213.67 84.03 211.42 100.70 208.62
C 115.76 206.09 124.05 202.26 125.70 197.06
C 126.23 195.41 124.87 190.76 121.94 184.30
C 119.41 178.71 117.00 172.38 116.56 170.23
C 115.52 164.97 118.99 154.94 123.92 148.97
C 130.45 141.05 133.80 139.98 154.83 139.04
C 171.21 138.31 174.31 137.81 178.99 135.18
C 185.51 131.52 189.30 126.17 194.78 112.85
C 200.17 99.73 204.96 95.00 216.56 91.26
L 225.60 88.35
L 237.78 91.79
C 244.47 93.68 257.74 98.94 267.26 103.47
C 292.94 115.71 293.41 115.76 318.86 108.06
C 328.25 105.23 340.14 102.26 345.29 101.45
L 354.66 99.97
L 351.55 96.66
C 341.20 85.65 331.73 65.30 327.45 44.85
C 324.80 32.19 324.69 30.32 326.25 21.24
C 328.33 9.15 331.66 3.84 338.70 1.39
C 346.72 -1.40 350.39 0.80 370.74 20.63
C 383.10 32.67 391.48 39.71 397.29 42.93
C 409.70 49.79 432.69 56.87 464.63 63.67
C 498.90 70.97 507.30 73.48 515.34 78.88
C 525.99 86.02 529.99 94.36 529.99 109.44
C 529.99 125.27 525.90 132.70 514.14 138.22
C 506.38 141.86 487.05 146.70 464.81 150.55
C 426.17 157.25 415.77 162.54 370.29 198.73
C 347.74 216.67 338.90 220.04 332.15 213.30
C 329.09 210.24 326.25 200.37 326.25 192.75
C 326.25 187.12 329.52 170.55 332.15 162.80
C 336.97 148.60 345.03 134.11 354.83 122.02
C 356.39 120.08 357.28 118.11 356.80 117.63
C 356.33 117.14 351.42 118.03 345.93 119.58
C 340.43 121.13 326.64 124.78 315.29 127.66
L 294.66 132.91
L 283.25 130.17
C 276.10 128.46 264.63 124.00 252.63 118.31
C 242.08 113.30 231.10 108.89 228.24 108.50
C 223.44 107.86 222.63 108.22 218.14 112.93
C 215.20 116.02 211.50 122.29 208.87 128.64
C 206.47 134.46 202.60 141.44 200.28 144.14
C 193.86 151.62 187.91 153.45 166.88 154.38
C 150.48 155.10 148.27 155.47 144.14 158.30
C 141.63 160.02 138.72 162.84 137.68 164.55
C 135.94 167.41 136.14 168.44 140.08 177.50
C 145.99 191.06 146.54 195.99 143.18 204.98
C 138.47 217.55 132.50 221.18 111.61 224.18
C 99.75 225.88 91.39 229.62 85.63 235.83
C 76.08 246.09 75.82 247.73 80.67 266.85
C 84.14 280.48 84.10 281.55 79.77 293.11
C 77.63 298.82 74.10 303.40 62.37 315.68
C 48.14 330.59 42.55 338.45 42.55 343.55
C 42.55 344.90 45.95 352.89 50.09 361.30
C 63.52 388.58 64.24 393.76 56.79 408.90
C 53.49 415.58 50.38 419.12 39.72 428.38
C 14.21 450.52 13.85 452.12 29.03 474.67
C 40.78 492.12 44.18 500.52 44.36 512.58
C 44.48 520.35 43.92 522.22 37.82 534.46
C 28.99 552.22 28.31 555.01 27.44 576.68
C 26.82 592.40 26.35 595.58 24.32 597.61
C 21.21 600.71 17.41 600.64 14.18 597.42
M 21.17 589.38
C 21.51 587.78 22.05 578.95 22.40 569.74
C 23.11 550.58 24.58 544.83 32.84 528.81
C 36.27 522.15 38.69 515.76 38.69 513.27
C 38.69 505.09 34.79 496.15 24.67 481.08
C 12.74 463.30 10.51 457.21 12.88 448.76
C 14.91 441.55 20.01 435.58 35.37 422.46
C 45.37 413.92 48.24 410.60 51.66 403.70
C 56.98 392.88 56.61 390.66 45.71 368.10
C 41.02 358.39 36.87 348.14 36.49 345.31
C 35.32 336.58 40.19 328.36 57.04 310.71
C 69.20 297.98 72.45 293.74 74.74 287.63
L 77.55 280.12
L 75.00 269.78
C 69.56 247.69 70.10 242.42 78.82 232.53
C 86.03 224.36 92.31 221.45 108.68 218.68
C 116.33 217.39 124.23 215.48 126.26 214.44
C 131.38 211.79 136.34 205.55 138.17 199.43
C 139.61 194.64 139.41 193.51 135.47 184.36
C 128.12 167.27 128.90 160.04 138.87 153.23
C 143.14 150.31 145.19 149.95 161.72 149.23
C 182.75 148.30 188.70 146.47 195.12 138.99
C 197.44 136.29 201.31 129.31 203.71 123.49
C 208.53 111.85 215.17 103.74 221.14 102.24
C 227.50 100.65 238.15 103.84 258.02 113.28
C 268.47 118.24 280.99 123.23 285.84 124.36
C 294.63 126.44 294.70 126.44 310.78 122.46
C 319.65 120.26 331.75 117.01 337.68 115.24
C 343.61 113.47 349.86 112.02 351.58 112.02
C 354.87 112.02 357.06 108.79 355.10 106.83
C 353.63 105.36 341.51 107.90 322.38 113.70
C 294.75 122.09 289.44 121.65 262.27 108.70
C 252.97 104.27 241.08 99.37 235.86 97.82
C 226.69 95.09 226.13 95.07 219.54 97.15
C 210.32 100.04 205.00 105.72 199.94 118.00
C 194.46 131.32 190.67 136.67 184.15 140.33
C 179.46 142.96 176.37 143.46 159.99 144.19
C 146.29 144.80 140.10 145.61 137.13 147.17
C 131.82 149.95 125.38 157.80 123.60 163.66
C 122.34 167.86 122.67 169.35 126.95 178.83
C 132.86 191.88 133.71 196.69 131.06 201.82
C 127.82 208.07 121.31 211.17 106.03 213.76
C 98.42 215.05 90.76 216.67 88.98 217.36
C 79.16 221.21 68.46 233.34 65.64 243.80
C 64.49 248.10 64.80 251.06 67.60 262.18
C 69.43 269.48 70.92 276.93 70.92 278.73
C 70.92 285.40 65.17 294.01 50.19 309.76
C 37.89 322.71 34.48 327.13 32.23 333.14
C 28.36 343.39 29.25 347.72 39.36 368.09
C 48.83 387.14 50.03 391.49 47.75 398.39
C 45.69 404.63 41.88 408.94 28.23 420.50
C 15.00 431.72 9.63 438.82 7.52 447.95
C 5.03 458.74 7.43 465.81 20.00 484.67
C 29.92 499.56 33.50 506.95 33.52 512.63
C 33.53 513.77 30.59 520.49 27.00 527.55
C 22.39 536.63 19.96 543.33 18.67 550.55
C 16.83 560.85 16.11 586.49 17.55 590.24
C 18.67 593.18 20.49 592.74 21.17 589.38
M 346.34 204.88
C 348.52 203.55 358.39 195.98 368.27 188.06
C 392.07 168.98 410.59 156.77 422.99 152.00
C 428.56 149.86 440.85 146.61 450.29 144.81
C 497.04 135.86 506.45 133.25 513.92 127.11
C 525.86 117.27 524.93 99.59 511.91 88.45
C 504.21 81.88 496.34 79.24 462.94 72.00
C 402.18 58.83 387.83 52.60 366.07 29.91
C 354.06 17.39 344.77 9.01 342.94 9.01
C 340.08 9.01 336.69 14.47 335.24 21.44
C 331.08 41.47 342.60 72.35 362.67 94.89
C 373.88 107.50 373.70 114.75 361.82 129.22
C 348.52 145.42 339.83 163.12 336.58 180.70
C 334.56 191.58 335.56 203.37 338.68 205.66
C 341.55 207.75 341.62 207.75 346.34 204.88"/>
<path fill="#e40f0f" stroke="none" d="
M 338.68 205.66
C 335.56 203.37 334.56 191.58 336.58 180.70
C 339.83 163.12 348.52 145.42 361.82 129.22
C 373.70 114.75 373.88 107.50 362.67 94.89
C 339.91 69.32 328.88 34.58 337.19 14.68
C 340.88 5.85 345.12 8.10 366.07 29.91
C 387.83 52.60 402.18 58.83 462.94 72.00
C 496.34 79.24 504.21 81.88 511.91 88.45
C 524.93 99.59 525.86 117.27 513.92 127.11
C 506.45 133.25 497.04 135.86 450.29 144.81
C 440.85 146.61 428.56 149.86 422.99 152.00
C 410.59 156.77 392.07 168.98 368.27 188.06
C 351.72 201.32 343.48 207.28 341.65 207.30
C 341.25 207.30 339.92 206.56 338.68 205.66"/>
<path fill="#f1cba1" stroke="none" d="
M 17.55 590.24
C 16.11 586.49 16.83 560.85 18.67 550.55
C 19.96 543.33 22.39 536.63 27.00 527.55
C 30.59 520.49 33.53 513.77 33.52 512.63
C 33.50 506.95 29.92 499.56 20.00 484.67
C 7.43 465.81 5.03 458.74 7.52 447.95
C 9.63 438.82 15.00 431.72 28.23 420.50
C 41.88 408.94 45.69 404.63 47.75 398.39
C 50.03 391.49 48.83 387.14 39.36 368.09
C 29.25 347.72 28.36 343.39 32.23 333.14
C 34.48 327.13 37.89 322.71 50.19 309.76
C 65.17 294.01 70.92 285.40 70.92 278.73
C 70.92 276.93 69.43 269.48 67.60 262.18
C 64.80 251.06 64.49 248.10 65.64 243.80
C 68.46 233.34 79.16 221.21 88.98 217.36
C 90.76 216.67 98.42 215.05 106.03 213.76
C 121.31 211.17 127.82 208.07 131.06 201.82
C 133.71 196.69 132.86 191.88 126.95 178.83
C 122.67 169.35 122.34 167.86 123.60 163.66
C 125.38 157.80 131.82 149.95 137.13 147.17
C 140.10 145.61 146.29 144.80 159.99 144.19
C 176.37 143.46 179.46 142.96 184.15 140.33
C 190.67 136.67 194.46 131.32 199.94 118.00
C 205.10 105.45 210.40 99.90 219.81 97.17
C 226.49 95.23 227.28 95.27 236.09 97.89
C 241.18 99.40 252.97 104.27 262.27 108.70
C 289.44 121.65 294.75 122.09 322.38 113.70
C 341.51 107.90 353.63 105.36 355.10 106.83
C 357.06 108.79 354.87 112.02 351.58 112.02
C 349.86 112.02 343.61 113.47 337.68 115.24
C 331.75 117.01 319.65 120.26 310.78 122.46
C 294.70 126.44 294.63 126.44 285.84 124.36
C 280.99 123.23 268.47 118.24 258.02 113.28
C 238.15 103.84 227.50 100.65 221.14 102.24
C 215.17 103.74 208.53 111.85 203.71 123.49
C 201.31 129.31 197.44 136.29 195.12 138.99
C 188.70 146.47 182.75 148.30 161.72 149.23
C 145.19 149.95 143.14 150.31 138.87 153.23
C 128.90 160.04 128.12 167.27 135.47 184.36
C 139.41 193.51 139.61 194.64 138.17 199.43
C 136.34 205.55 131.38 211.79 126.26 214.44
C 124.23 215.48 116.33 217.39 108.68 218.68
C 92.31 221.45 86.03 224.36 78.82 232.53
C 70.10 242.42 69.56 247.69 75.00 269.78
L 77.55 280.12
L 74.74 287.63
C 72.45 293.74 69.20 297.98 57.04 310.71
C 40.19 328.36 35.32 336.58 36.49 345.31
C 36.87 348.14 41.02 358.39 45.71 368.10
C 56.61 390.66 56.98 392.88 51.66 403.70
C 48.24 410.60 45.37 413.92 35.37 422.46
C 20.01 435.58 14.91 441.55 12.88 448.76
C 10.51 457.21 12.74 463.30 24.67 481.08
C 34.79 496.15 38.69 505.09 38.69 513.27
C 38.69 515.76 36.27 522.15 32.84 528.81
C 24.58 544.83 23.11 550.58 22.40 569.74
C 22.05 578.95 21.51 587.78 21.17 589.38
C 20.49 592.74 18.67 593.18 17.55 590.24"/>
</g>
</svg>
