<?xml version="1.0" encoding="UTF-8" standalone="no"?>
<!DOCTYPE svg PUBLIC "-//W3C//DTD SVG 1.1//EN"
"http://www.w3.org/Graphics/SVG/1.1/DTD/svg11.dtd">
<svg width="600px" height="481px"
xmlns="http://www.w3.org/2000/svg" version="1.1">
<g transform="translate(0000, 0000) scale(1.0000, 1.0000)">
<path fill="#000000" stroke="none" d="
M 279.73 477.77
C 269.94 473.53 260.03 463.55 254.15 452.02
C 249.30 442.52 241.74 416.38 237.16 393.20
C 234.41 379.36 233.25 378.55 200.86 368.04
C 176.35 360.08 157.91 350.50 127.86 330.08
C 60.53 284.34 25.62 220.22 11.17 115.68
C 9.39 102.84 6.14 80.88 3.97 66.85
C -0.79 36.23 -1.26 10.59 2.88 4.95
C 5.70 1.10 11.37 1.01 298.80 0.49
C 638.96 -0.12 600.00 -3.27 600.00 24.74
C 600.00 33.87 598.22 52.83 596.03 66.85
C 593.86 80.88 590.61 102.84 588.83 115.68
C 574.38 220.22 539.47 284.34 472.14 330.08
C 442.09 350.50 423.65 360.08 399.14 368.04
C 366.75 378.55 365.59 379.36 362.84 393.20
C 358.26 416.38 350.70 442.52 345.85 452.02
C 339.83 463.81 329.94 473.63 319.82 477.85
C 310.28 481.83 289.01 481.79 279.73 477.77
M 320.72 463.53
C 325.26 460.30 331.52 453.09 334.64 447.51
C 340.89 436.31 349.78 407.55 351.87 391.72
L 353.23 381.55
L 300.26 381.55
L 247.30 381.55
L 247.32 386.12
C 247.34 392.82 254.47 421.53 259.40 434.69
C 271.68 467.56 297.75 479.82 320.72 463.53
M 377.11 363.25
C 452.47 340.70 514.14 291.22 546.12 227.63
C 561.49 197.09 573.79 151.32 580.58 99.45
C 582.26 86.60 585.04 66.97 586.74 55.81
C 591.00 27.97 590.80 19.20 585.81 14.21
C 581.80 10.19 579.06 10.15 300.00 10.15
C 20.94 10.15 18.20 10.19 14.19 14.21
C 9.20 19.20 9.00 27.97 13.26 55.81
C 14.96 66.97 17.74 86.60 19.42 99.45
C 31.38 190.72 54.59 245.82 100.20 291.30
C 132.41 323.41 176.07 349.14 221.96 363.10
L 248.31 371.12
L 299.07 371.26
L 349.82 371.41
L 377.11 363.25"/>
<path fill="#ae3c2a" stroke="none" d="
M 221.96 363.10
C 147.12 340.35 85.64 290.79 53.88 227.63
C 38.51 197.09 26.21 151.32 19.42 99.45
C 17.74 86.60 14.96 66.97 13.26 55.81
C 9.39 30.50 9.32 20.15 13.01 15.10
C 15.83 11.24 21.41 11.14 298.80 10.63
C 579.85 10.11 581.74 10.13 585.79 14.19
C 590.80 19.20 591.00 27.95 586.74 55.81
C 585.04 66.97 582.26 86.60 580.58 99.45
C 568.62 190.72 545.41 245.82 499.80 291.30
C 467.21 323.77 423.65 349.32 377.11 363.25
L 349.82 371.41
L 299.07 371.26
L 248.31 371.12
L 221.96 363.10"/>
<path fill="#8a2a2a" stroke="none" d="
M 284.19 466.65
C 273.75 461.33 266.78 452.65 260.33 436.90
C 254.31 422.20 246.43 388.78 248.01 384.66
C 249.04 381.98 256.44 381.55 301.22 381.55
L 353.23 381.55
L 351.87 391.72
C 349.78 407.55 340.89 436.31 334.64 447.51
C 323.27 467.87 302.25 475.84 284.19 466.65"/>
</g>
</svg>
