<?xml version="1.0" encoding="UTF-8" standalone="no"?>
<!DOCTYPE svg PUBLIC "-//W3C//DTD SVG 1.1//EN"
"http://www.w3.org/Graphics/SVG/1.1/DTD/svg11.dtd">
<svg width="429px" height="600px"
xmlns="http://www.w3.org/2000/svg" version="1.1">
<g transform="translate(0000, 0000) scale(1.0000, 1.0000)">
<path fill="#000000" stroke="none" d="
M 229.50 596.59
C 226.85 593.21 226.81 592.13 226.81 513.67
L 226.81 434.16
L 191.49 393.98
L 156.18 353.79
L 124.10 353.78
C 94.04 353.78 92.02 353.92 92.02 356.11
C 92.02 360.58 85.35 371.96 81.59 373.90
C 78.96 375.27 73.57 375.81 62.86 375.81
C 52.15 375.81 46.76 375.27 44.13 373.90
C 40.37 371.96 33.70 360.58 33.70 356.11
C 33.70 354.38 32.69 353.78 29.80 353.78
C 19.27 353.78 10.02 344.94 3.21 328.39
C -2.67 314.10 0.05 296.89 8.90 292.32
C 14.08 289.63 17.21 289.75 23.23 292.82
C 27.36 294.92 29.23 297.38 34.36 307.40
C 45.63 329.46 44.99 329.16 81.77 329.16
L 110.52 329.16
L 104.67 322.91
C 91.87 309.21 85.66 284.29 85.58 246.21
C 85.53 222.98 87.98 201.47 93.84 173.65
C 103.06 129.80 102.95 124.98 91.88 97.44
C 78.33 63.69 78.50 50.45 92.88 21.30
C 101.72 3.37 110.46 -3.59 116.53 2.48
C 118.02 3.97 119.24 6.54 119.24 8.22
C 119.24 9.87 116.52 19.93 113.20 30.57
C 107.94 47.39 107.15 51.40 107.09 61.56
C 107.03 74.29 110.05 83.83 115.91 89.33
C 121.45 94.55 124.86 90.35 131.56 70.06
C 136.72 54.43 142.78 49.45 149.05 55.72
C 151.29 57.97 151.64 60.04 151.64 71.26
C 151.64 85.65 149.68 92.66 142.94 102.49
C 131.99 118.50 130.31 128.75 134.14 156.16
C 137.57 180.63 138.23 227.59 135.47 249.94
C 133.00 269.71 133.44 277.01 137.45 283.59
C 142.41 291.76 144.95 292.11 187.93 290.42
C 227.67 288.88 237.78 289.41 246.37 293.52
C 250.75 295.62 251.27 295.62 255.29 293.53
C 263.22 289.44 273.82 288.87 313.65 290.42
C 356.63 292.11 359.17 291.76 364.13 283.59
C 368.14 277.01 368.58 269.71 366.11 249.94
C 363.35 227.59 364.01 180.63 367.44 156.16
C 371.27 128.75 369.59 118.50 358.64 102.49
C 351.90 92.66 349.94 85.65 349.94 71.26
C 349.94 60.04 350.29 57.97 352.53 55.72
C 358.80 49.45 364.86 54.43 370.02 70.06
C 376.72 90.35 380.13 94.55 385.67 89.33
C 391.53 83.83 394.55 74.29 394.49 61.56
C 394.43 51.40 393.64 47.39 388.38 30.57
C 385.06 19.93 382.34 9.87 382.34 8.22
C 382.34 4.50 386.61 0.00 390.12 0.00
C 400.51 0.00 419.97 38.49 419.91 58.94
C 419.88 68.36 416.97 79.32 409.70 97.44
C 398.63 124.98 398.52 129.80 407.74 173.65
C 413.60 201.47 416.05 222.98 416.00 246.21
C 415.92 284.29 409.71 309.21 396.91 322.91
L 391.06 329.16
L 406.24 329.16
C 421.29 329.16 421.46 329.20 425.22 332.94
C 427.47 335.21 429.00 338.10 429.00 340.13
C 429.00 344.54 425.77 350.75 422.60 352.44
C 420.95 353.33 390.73 353.78 334.48 353.78
L 248.85 353.78
L 248.85 474.30
C 248.85 593.09 248.81 594.86 246.25 597.41
C 242.21 601.45 232.97 601.00 229.50 596.59
M 240.81 591.97
C 242.00 590.77 242.37 562.39 242.37 472.10
L 242.37 353.78
L 237.83 353.78
L 233.29 353.78
L 233.29 472.10
C 233.29 592.35 233.33 593.52 237.83 593.52
C 238.61 593.52 239.95 592.82 240.81 591.97
M 221.40 407.11
C 176.71 357.55 173.08 353.78 170.16 353.78
C 167.67 353.78 172.34 359.70 196.65 387.38
C 224.00 418.51 226.19 420.69 226.58 417.15
C 226.89 414.14 225.78 411.98 221.40 407.11
M 226.37 354.21
C 226.10 353.94 216.65 353.87 205.36 354.06
L 184.85 354.43
L 205.51 377.21
L 226.16 399.99
L 226.51 377.35
C 226.71 364.90 226.64 354.48 226.37 354.21
M 77.31 367.43
C 79.97 365.57 84.24 358.03 84.24 355.21
C 84.24 354.22 77.53 353.78 62.86 353.78
C 48.19 353.78 41.47 354.22 41.47 355.21
C 41.47 358.03 45.75 365.57 48.41 367.43
C 50.31 368.76 54.64 369.33 62.86 369.33
C 71.08 369.33 75.41 368.76 77.31 367.43
M 417.27 346.04
C 420.91 344.09 421.43 341.03 418.61 338.20
C 416.08 335.68 413.60 335.64 230.74 335.64
L 45.45 335.64
L 40.72 331.48
C 37.82 328.94 33.76 322.79 30.26 315.67
C 22.01 298.83 17.54 294.57 12.71 298.92
C 8.99 302.29 6.48 307.66 6.48 312.23
C 6.48 317.48 10.47 327.72 15.70 335.86
C 23.71 348.35 3.63 347.24 222.69 347.27
C 344.76 347.29 415.77 346.85 417.27 346.04
M 388.07 321.27
C 402.37 305.83 408.08 287.79 409.21 254.51
C 410.09 228.18 408.43 212.06 400.99 175.11
C 391.62 128.59 391.84 123.15 404.27 90.97
C 412.93 68.57 414.41 60.23 411.67 49.24
C 407.91 34.19 392.05 4.81 389.74 8.66
C 389.39 9.24 391.36 16.72 394.11 25.27
C 403.79 55.32 404.50 63.49 399.03 81.17
C 395.64 92.19 389.73 98.49 382.80 98.49
C 373.96 98.49 369.51 93.20 364.88 77.12
C 360.52 61.94 356.42 58.13 356.42 69.23
C 356.42 80.22 358.88 88.22 365.61 99.21
C 369.25 105.14 373.01 112.21 373.98 114.93
C 376.34 121.54 376.26 142.42 373.81 159.40
C 370.51 182.27 369.93 225.75 372.62 247.49
C 376.15 275.96 373.61 289.79 363.86 295.11
C 359.18 297.67 348.19 297.94 296.80 296.77
C 270.22 296.16 268.59 296.27 261.43 299.04
C 252.07 302.66 249.51 302.66 240.15 299.04
C 232.99 296.27 231.36 296.16 204.78 296.77
C 153.39 297.94 142.40 297.67 137.72 295.11
C 127.97 289.79 125.43 275.96 128.96 247.49
C 131.66 225.75 131.07 182.27 127.77 159.40
C 125.32 142.42 125.24 121.54 127.60 114.93
C 128.57 112.21 132.33 105.14 135.97 99.21
C 142.70 88.22 145.16 80.22 145.16 69.23
C 145.16 58.13 141.06 61.94 136.70 77.12
C 132.07 93.20 127.62 98.49 118.79 98.49
C 111.85 98.49 105.94 92.19 102.55 81.17
C 97.08 63.49 97.79 55.32 107.47 25.27
C 110.22 16.72 112.19 9.24 111.84 8.66
C 109.53 4.81 93.67 34.19 89.91 49.24
C 87.17 60.23 88.65 68.57 97.31 90.97
C 109.74 123.15 109.96 128.59 100.59 175.11
C 93.15 212.06 91.49 228.18 92.37 254.51
C 93.50 287.79 99.21 305.83 113.51 321.27
L 120.82 329.16
L 250.79 329.16
L 380.76 329.16
L 388.07 321.27"/>
<path fill="#ae3c2a" stroke="none" d="
M 113.51 321.27
C 99.21 305.83 93.50 287.79 92.37 254.51
C 91.49 228.18 93.15 212.06 100.59 175.11
C 109.96 128.59 109.74 123.15 97.31 90.97
C 88.63 68.53 87.16 60.23 89.93 49.24
C 92.19 40.28 102.92 16.98 107.16 11.81
C 112.40 5.43 112.50 9.64 107.47 25.27
C 97.79 55.32 97.08 63.49 102.55 81.17
C 105.94 92.19 111.85 98.49 118.79 98.49
C 127.62 98.49 132.07 93.20 136.70 77.12
C 141.06 61.94 145.16 58.13 145.16 69.23
C 145.16 80.22 142.70 88.22 135.97 99.21
C 132.33 105.14 128.57 112.21 127.60 114.93
C 125.24 121.54 125.32 142.42 127.77 159.40
C 131.07 182.27 131.66 225.75 128.96 247.49
C 125.43 275.96 127.97 289.79 137.72 295.11
C 142.40 297.67 153.39 297.94 204.78 296.77
C 231.36 296.16 232.99 296.27 240.15 299.04
C 249.51 302.66 252.07 302.66 261.43 299.04
C 268.59 296.27 270.22 296.16 296.80 296.77
C 348.19 297.94 359.18 297.67 363.86 295.11
C 373.61 289.79 376.15 275.96 372.62 247.49
C 369.93 225.75 370.51 182.27 373.81 159.40
C 376.26 142.42 376.34 121.54 373.98 114.93
C 373.01 112.21 369.25 105.14 365.61 99.21
C 358.88 88.22 356.42 80.22 356.42 69.23
C 356.42 58.13 360.52 61.94 364.88 77.12
C 369.51 93.20 373.96 98.49 382.80 98.49
C 389.73 98.49 395.64 92.19 399.03 81.17
C 404.50 63.49 403.79 55.32 394.11 25.27
C 391.36 16.72 389.39 9.24 389.74 8.66
C 392.05 4.81 407.91 34.19 411.67 49.24
C 414.41 60.23 412.93 68.57 404.27 90.97
C 391.84 123.15 391.62 128.59 400.99 175.11
C 408.43 212.06 410.09 228.18 409.21 254.51
C 408.08 287.79 402.37 305.83 388.07 321.27
L 380.76 329.16
L 250.79 329.16
L 120.82 329.16
L 113.51 321.27"/>
<path fill="#c55436" stroke="none" d="
M 234.85 591.97
C 233.66 590.77 233.29 562.39 233.29 472.10
L 233.29 353.78
L 237.83 353.78
L 242.37 353.78
L 242.37 472.10
C 242.37 592.35 242.33 593.52 237.83 593.52
C 237.05 593.52 235.70 592.82 234.85 591.97"/>
<path fill="#c55436" stroke="none" d="
M 196.65 387.38
C 172.34 359.70 167.67 353.78 170.16 353.78
C 173.08 353.78 176.71 357.55 221.40 407.11
C 225.78 411.98 226.89 414.14 226.58 417.15
C 226.19 420.69 224.00 418.51 196.65 387.38"/>
<path fill="#c55436" stroke="none" d="
M 25.20 344.85
C 17.03 341.14 6.47 322.59 6.48 311.97
C 6.49 307.13 10.34 300.16 14.14 298.12
C 18.16 295.97 23.61 301.87 30.29 315.60
C 33.81 322.86 37.78 328.91 40.72 331.48
L 45.45 335.64
L 230.74 335.64
C 413.60 335.64 416.08 335.68 418.61 338.20
C 421.43 341.03 420.91 344.09 417.27 346.04
C 415.77 346.85 344.76 347.29 222.69 347.27
C 38.67 347.25 30.24 347.14 25.20 344.85"/>
<path fill="#aa4422" stroke="none" d="
M 48.41 367.43
C 45.21 365.18 40.99 356.89 42.14 355.06
C 43.28 353.21 84.24 353.35 84.24 355.21
C 84.24 358.03 79.97 365.57 77.31 367.43
C 75.41 368.76 71.08 369.33 62.86 369.33
C 54.64 369.33 50.31 368.76 48.41 367.43"/>
</g>
</svg>
