<?xml version="1.0" encoding="UTF-8" standalone="no"?>
<!DOCTYPE svg PUBLIC "-//W3C//DTD SVG 1.1//EN"
"http://www.w3.org/Graphics/SVG/1.1/DTD/svg11.dtd">
<svg width="600px" height="287px"
xmlns="http://www.w3.org/2000/svg" version="1.1">
<g transform="translate(0000, 0000) scale(1.0000, 1.0000)">
<path fill="#000000" stroke="none" d="
M 357.92 285.12
C 356.89 284.09 355.73 281.08 355.33 278.45
C 354.30 271.57 339.40 212.81 334.01 194.35
C 319.82 145.83 299.06 108.97 273.37 86.78
C 265.97 80.40 241.20 63.52 233.26 59.46
C 229.27 57.42 228.05 57.40 120.04 57.40
L 10.85 57.40
L 7.52 54.06
C 2.77 49.30 0.56 41.25 0.56 28.70
C 0.56 16.83 2.68 8.58 6.98 3.76
L 9.89 0.50
L 212.73 0.23
C 351.98 0.04 417.77 0.29 422.55 1.03
C 447.99 4.92 462.74 16.52 480.58 46.66
C 482.74 50.31 485.92 52.94 496.66 60.01
C 512.59 70.48 530.19 87.45 540.94 102.72
C 553.43 120.43 564.96 145.14 574.32 174.21
C 580.91 194.70 598.90 266.55 599.66 275.38
C 600.21 281.97 600.06 282.91 598.13 284.84
C 596.94 286.03 595.05 287.00 593.90 287.00
C 589.76 287.00 588.12 285.16 586.95 279.20
C 584.88 268.66 569.81 209.24 565.17 193.35
C 550.97 144.81 530.20 107.96 504.52 85.78
C 497.63 79.82 472.77 62.77 465.47 58.98
C 462.82 57.61 456.50 57.40 418.81 57.40
C 394.83 57.40 374.91 57.69 374.56 58.05
C 374.20 58.41 377.63 61.23 382.18 64.31
C 392.92 71.59 412.79 91.58 421.35 103.72
C 433.83 121.44 445.37 146.15 454.72 175.22
C 461.05 194.85 479.22 267.07 480.02 275.76
C 480.60 282.00 480.44 282.93 478.52 284.86
C 473.81 289.58 468.08 286.44 466.88 278.45
C 465.86 271.57 450.95 212.81 445.57 194.35
C 431.38 145.83 410.61 108.97 384.92 86.78
C 377.53 80.40 352.75 63.52 344.81 59.46
C 340.96 57.49 339.09 57.40 302.22 57.40
C 281.01 57.40 263.36 57.69 263.01 58.05
C 262.64 58.41 266.07 61.23 270.62 64.31
C 281.37 71.59 301.24 91.58 309.79 103.72
C 322.27 121.44 333.81 146.15 343.17 175.22
C 349.49 194.85 367.66 267.07 368.46 275.76
C 369.05 282.00 368.88 282.93 366.96 284.86
C 364.32 287.50 360.41 287.61 357.92 285.12
M 364.00 277.32
C 363.57 270.68 345.02 197.49 339.15 179.25
C 329.79 150.18 318.25 125.46 305.77 107.75
C 295.57 93.26 277.36 75.49 263.11 66.10
C 256.63 61.83 251.03 57.83 250.64 57.22
C 250.26 56.59 250.77 55.48 251.80 54.73
C 253.29 53.63 262.58 53.37 299.23 53.37
C 343.16 53.37 344.94 53.44 348.83 55.44
C 356.77 59.49 381.55 76.37 388.94 82.76
C 414.62 104.94 435.40 141.79 449.59 190.33
C 453.66 204.26 468.06 260.77 471.53 276.43
C 472.43 280.52 473.35 282.47 474.37 282.47
C 477.16 282.47 475.49 273.42 465.32 233.12
C 451.16 177.02 444.45 157.03 431.05 130.91
C 421.62 112.54 412.89 100.51 398.51 86.02
C 389.57 77.01 383.38 71.84 374.66 66.10
C 368.19 61.83 362.58 57.83 362.20 57.22
C 361.82 56.59 362.33 55.48 363.36 54.73
C 364.85 53.63 374.94 53.37 415.82 53.37
C 459.88 53.37 466.82 53.57 469.49 54.95
C 476.79 58.74 501.65 75.79 508.54 81.75
C 534.22 103.93 554.99 140.78 569.19 189.32
C 573.78 205.05 588.68 263.78 591.16 275.92
C 592.07 280.45 592.94 282.47 593.98 282.47
C 596.87 282.47 594.98 271.94 584.94 232.19
C 570.74 176.00 564.05 156.03 550.64 129.91
C 541.22 111.54 532.50 99.50 518.11 85.00
C 508.64 75.48 503.14 70.93 492.64 64.04
C 481.90 56.97 478.72 54.34 476.56 50.68
C 465.91 32.69 456.18 21.24 446.06 14.76
C 439.50 10.56 428.52 6.64 419.10 5.11
C 414.68 4.39 348.13 4.04 213.72 4.04
L 14.87 4.03
L 11.54 7.37
C 2.53 16.39 2.53 41.01 11.54 50.03
L 14.87 53.37
L 124.06 53.37
C 232.07 53.37 233.29 53.39 237.28 55.44
C 245.22 59.49 269.99 76.37 277.39 82.76
C 302.39 104.36 323.45 141.16 337.20 187.31
C 341.70 202.40 356.08 258.52 358.83 271.73
C 360.99 282.12 361.46 283.26 363.16 282.67
C 363.89 282.41 364.20 280.42 364.00 277.32"/>
<path fill="#443c3c" stroke="none" d="
M 361.40 282.11
C 361.07 281.57 359.91 276.90 358.83 271.73
C 356.08 258.52 341.70 202.40 337.20 187.31
C 323.45 141.16 302.39 104.36 277.39 82.76
C 269.99 76.37 245.22 59.49 237.28 55.44
C 233.29 53.39 232.07 53.37 124.06 53.37
L 14.87 53.37
L 11.54 50.03
C 2.81 41.29 2.51 17.30 11.01 7.78
L 13.91 4.53
L 212.73 4.26
C 349.16 4.07 413.75 4.32 418.53 5.06
C 443.97 8.95 458.72 20.54 476.56 50.68
C 478.72 54.34 481.90 56.97 492.64 64.04
C 503.14 70.93 508.64 75.48 518.11 85.00
C 532.50 99.50 541.22 111.54 550.64 129.91
C 564.05 156.03 570.74 176.00 584.94 232.19
C 594.98 271.94 596.87 282.47 593.98 282.47
C 592.94 282.47 592.07 280.45 591.16 275.92
C 588.68 263.78 573.78 205.05 569.19 189.32
C 554.99 140.78 534.22 103.93 508.54 81.75
C 501.65 75.79 476.79 58.74 469.49 54.95
C 466.82 53.57 459.88 53.37 415.82 53.37
C 374.94 53.37 364.85 53.63 363.36 54.73
C 362.33 55.48 361.82 56.59 362.20 57.22
C 362.58 57.83 368.19 61.83 374.66 66.10
C 383.38 71.84 389.57 77.01 398.51 86.02
C 412.89 100.51 421.62 112.54 431.05 130.91
C 444.45 157.03 451.16 177.02 465.32 233.12
C 475.49 273.42 477.16 282.47 474.37 282.47
C 473.35 282.47 472.43 280.52 471.53 276.43
C 468.06 260.77 453.66 204.26 449.59 190.33
C 435.40 141.79 414.62 104.94 388.94 82.76
C 381.55 76.37 356.77 59.49 348.83 55.44
C 344.94 53.44 343.16 53.37 299.23 53.37
C 262.58 53.37 253.29 53.63 251.80 54.73
C 250.77 55.48 250.26 56.59 250.64 57.22
C 251.03 57.83 256.63 61.83 263.11 66.10
C 277.36 75.49 295.57 93.26 305.77 107.75
C 318.25 125.46 329.79 150.18 339.15 179.25
C 345.02 197.49 363.57 270.68 364.00 277.32
C 364.30 281.97 362.90 284.55 361.40 282.11"/>
</g>
</svg>
