<?xml version="1.0" encoding="UTF-8" standalone="no"?>
<!DOCTYPE svg PUBLIC "-//W3C//DTD SVG 1.1//EN"
"http://www.w3.org/Graphics/SVG/1.1/DTD/svg11.dtd">
<svg width="600px" height="533px"
xmlns="http://www.w3.org/2000/svg" version="1.1">
<g transform="translate(0000, 0000) scale(1.0000, 1.0000)">
<path fill="#000000" stroke="none" d="
M 580.22 531.19
C 577.83 529.44 577.73 526.55 577.08 434.20
C 576.42 340.53 576.36 338.84 573.56 328.83
C 567.56 307.37 554.97 287.91 538.67 274.81
C 528.52 266.68 505.94 255.39 491.62 251.31
C 480.17 248.04 464.29 245.07 450.36 243.58
L 442.45 242.72
L 442.09 326.62
L 441.74 410.50
L 437.29 419.23
C 429.83 433.85 413.52 444.93 392.16 449.87
C 383.11 451.97 376.31 452.21 330.51 452.12
C 273.81 452.01 248.95 450.62 214.33 445.67
C 187.56 441.83 162.88 441.09 153.18 443.85
C 149.68 444.83 139.39 448.50 130.30 451.97
C 104.43 461.87 99.62 463.14 85.17 463.89
C 69.46 464.71 60.88 462.92 45.13 455.49
C 32.94 449.74 4.97 431.40 2.07 427.27
C -0.75 423.23 -0.52 419.03 2.69 415.82
C 6.65 411.86 14.10 413.34 31.73 421.58
C 60.69 435.10 82.49 437.23 108.69 429.07
C 120.88 425.28 127.88 417.00 124.74 410.12
C 122.36 404.89 113.73 401.99 96.25 400.54
C 73.32 398.63 72.47 398.43 67.78 393.73
C 64.56 390.51 63.56 388.42 63.56 384.93
C 63.56 376.38 69.56 373.62 81.89 376.48
C 85.46 377.31 89.36 377.07 95.64 375.66
C 107.39 373.00 114.53 374.52 133.41 383.67
C 141.48 387.59 151.23 391.93 155.08 393.31
C 166.17 397.32 185.67 397.70 212.92 394.42
C 246.52 390.39 263.61 389.97 320.97 391.77
C 371.64 393.36 372.76 393.34 376.07 390.90
C 377.97 389.50 380.40 385.68 381.62 382.16
C 383.54 376.60 383.80 368.95 383.85 313.90
L 383.90 251.90
L 387.27 242.13
L 390.64 232.37
L 387.24 222.08
L 383.86 211.80
L 383.82 150.11
C 383.80 95.30 383.54 87.71 381.62 82.15
C 380.40 78.63 377.97 74.81 376.07 73.41
C 372.76 70.97 371.64 70.94 320.97 72.53
C 263.61 74.34 246.52 73.92 212.92 69.89
C 185.67 66.61 166.17 66.99 155.08 70.99
C 151.23 72.38 141.48 76.72 133.41 80.64
C 114.53 89.78 107.39 91.31 95.64 88.65
C 89.36 87.24 85.46 87.00 81.89 87.82
C 69.56 90.69 63.56 87.93 63.56 79.38
C 63.56 75.89 64.56 73.79 67.78 70.57
C 72.47 65.88 73.32 65.68 96.25 63.77
C 113.73 62.32 122.36 59.42 124.74 54.19
C 127.88 47.31 120.88 39.03 108.69 35.24
C 82.49 27.08 60.69 29.21 31.73 42.73
C 14.10 50.97 6.65 52.45 2.69 48.49
C -0.52 45.27 -0.75 41.08 2.07 37.04
C 4.97 32.90 32.94 14.58 45.27 8.74
C 60.22 1.67 70.39 -0.42 85.81 0.43
C 99.55 1.18 104.86 2.61 130.30 12.34
C 139.39 15.81 149.68 19.48 153.18 20.45
C 162.88 23.22 187.56 22.48 214.33 18.64
C 248.95 13.69 273.81 12.30 330.51 12.19
C 376.31 12.10 383.11 12.34 392.16 14.44
C 413.52 19.37 429.83 30.45 437.29 45.08
L 441.74 53.81
L 442.09 136.94
L 442.45 220.07
L 448.63 220.07
C 452.03 220.07 460.74 220.67 467.97 221.40
C 513.85 226.07 549.23 242.34 570.74 268.66
C 582.76 283.37 595.08 312.57 598.70 334.98
C 599.48 339.70 599.99 379.73 599.99 435.37
C 600.00 526.22 599.95 527.96 597.46 530.46
C 594.38 533.53 584.02 533.98 580.22 531.19
M 592.12 525.11
C 593.28 523.96 593.64 501.90 593.64 433.61
C 593.64 335.37 593.76 337.11 586.03 314.02
C 573.79 277.48 551.67 253.78 516.56 239.61
C 498.92 232.48 467.50 226.43 448.14 226.43
L 442.37 226.43
L 442.37 231.39
L 442.37 236.35
L 451.59 237.19
C 522.58 243.67 566.12 273.79 579.94 326.00
C 582.64 336.21 582.72 338.72 583.16 429.91
C 583.46 494.00 584.02 523.87 584.96 525.00
C 586.68 527.06 590.12 527.11 592.12 525.11
M 96.29 456.04
C 100.67 455.01 111.83 451.22 121.08 447.62
C 150.34 436.27 151.97 435.92 174.15 435.93
C 188.66 435.93 199.89 436.81 216.74 439.26
C 253.58 444.60 272.76 445.72 328.60 445.80
C 374.54 445.85 381.76 445.60 389.54 443.60
C 408.19 438.82 425.19 427.05 431.94 414.23
L 435.38 407.70
L 435.38 232.15
L 435.38 56.61
L 431.94 50.08
C 425.19 37.26 408.19 25.49 389.54 20.71
C 381.76 18.71 374.54 18.46 328.60 18.51
C 272.76 18.59 253.58 19.70 216.74 25.05
C 199.89 27.50 188.66 28.38 174.15 28.38
C 151.97 28.39 150.34 28.04 121.07 16.68
C 98.78 8.03 89.57 5.93 77.38 6.73
C 64.39 7.58 50.45 13.28 29.86 26.18
C 12.47 37.04 7.07 41.30 8.22 43.19
C 9.15 44.70 15.72 42.42 27.38 36.56
C 32.25 34.10 41.10 30.49 47.03 28.52
C 57.03 25.21 59.38 24.93 78.18 24.87
C 95.73 24.82 99.90 25.20 108.69 27.73
C 125.73 32.64 132.20 38.95 132.20 50.69
C 132.20 64.18 123.64 68.65 94.07 70.66
C 76.83 71.83 66.84 76.34 71.39 80.89
C 72.86 82.37 74.42 82.41 80.40 81.15
C 86.52 79.86 89.03 79.96 96.62 81.79
C 105.36 83.89 105.84 83.87 113.50 81.31
C 117.85 79.87 125.49 76.45 130.50 73.72
C 153.89 60.96 174.94 58.44 215.47 63.55
C 247.09 67.53 266.25 68.01 323.94 66.17
C 383.52 64.28 381.89 64.05 386.87 74.82
C 389.54 80.62 389.63 82.51 390.27 146.92
L 390.90 213.07
L 394.00 219.43
C 398.10 227.87 398.10 236.44 394.00 244.87
L 390.90 251.24
L 390.27 317.38
C 389.63 381.80 389.54 383.68 386.87 389.48
C 381.89 400.26 383.52 400.03 323.94 398.13
C 266.25 396.30 247.09 396.77 215.47 400.75
C 174.94 405.87 153.89 403.35 130.50 390.59
C 125.49 387.86 117.85 384.43 113.50 383.00
C 105.84 380.44 105.36 380.41 96.62 382.51
C 89.03 384.35 86.52 384.45 80.40 383.16
C 74.42 381.90 72.86 381.94 71.39 383.42
C 66.84 387.97 76.83 392.47 94.07 393.64
C 116.69 395.18 127.77 398.72 130.81 405.37
C 132.84 409.86 132.52 418.11 130.09 423.21
C 127.30 429.10 121.02 433.03 108.69 436.58
C 99.90 439.11 95.73 439.49 78.18 439.44
C 59.38 439.38 57.03 439.10 47.03 435.79
C 41.10 433.82 32.25 430.20 27.38 427.75
C 15.89 421.97 9.15 419.62 8.25 421.08
C 7.09 422.95 11.30 426.34 27.94 436.89
C 58.94 456.55 75.03 461.05 96.29 456.04"/>
<path fill="#ae3c2a" stroke="none" d="
M 66.48 456.00
C 56.10 453.20 44.94 447.67 27.94 436.89
C 11.30 426.34 7.09 422.95 8.25 421.08
C 9.15 419.62 15.89 421.97 27.38 427.75
C 32.25 430.20 41.10 433.82 47.03 435.79
C 57.03 439.10 59.38 439.38 78.18 439.44
C 95.73 439.49 99.90 439.11 108.69 436.58
C 125.73 431.67 132.20 425.36 132.20 413.62
C 132.20 400.13 123.64 395.65 94.07 393.64
C 76.83 392.47 66.84 387.97 71.39 383.42
C 72.86 381.94 74.42 381.90 80.40 383.16
C 86.52 384.45 89.03 384.35 96.62 382.51
C 105.36 380.41 105.84 380.44 113.50 383.00
C 117.85 384.43 125.49 387.86 130.50 390.59
C 153.89 403.35 174.94 405.87 215.47 400.75
C 247.09 396.77 266.25 396.30 323.94 398.13
C 383.52 400.03 381.89 400.26 386.87 389.48
C 389.54 383.68 389.63 381.80 390.27 317.38
L 390.90 251.24
L 394.00 244.87
C 398.10 236.44 398.10 227.87 394.00 219.43
L 390.90 213.07
L 390.27 146.92
C 389.63 82.51 389.54 80.62 386.87 74.82
C 381.89 64.05 383.52 64.28 323.94 66.17
C 266.25 68.01 247.09 67.53 215.47 63.55
C 174.94 58.44 153.89 60.96 130.50 73.72
C 125.49 76.45 117.85 79.87 113.50 81.31
C 105.84 83.87 105.36 83.89 96.62 81.79
C 89.03 79.96 86.52 79.86 80.40 81.15
C 74.42 82.41 72.86 82.37 71.39 80.89
C 66.84 76.34 76.83 71.83 94.07 70.66
C 116.69 69.12 127.77 65.59 130.81 58.94
C 132.84 54.44 132.52 46.20 130.09 41.10
C 127.30 35.21 121.02 31.28 108.69 27.73
C 99.90 25.20 95.73 24.82 78.18 24.87
C 59.38 24.93 57.03 25.21 47.03 28.52
C 41.10 30.49 32.25 34.10 27.38 36.56
C 15.72 42.42 9.15 44.70 8.22 43.19
C 7.07 41.30 12.47 37.04 29.86 26.18
C 50.39 13.33 63.86 7.81 77.14 6.83
C 89.58 5.90 98.43 7.89 121.07 16.68
C 150.34 28.04 151.97 28.39 174.15 28.38
C 188.66 28.38 199.89 27.50 216.74 25.05
C 253.58 19.70 272.76 18.59 328.60 18.51
C 374.54 18.46 381.76 18.71 389.54 20.71
C 408.19 25.49 425.19 37.26 431.94 50.08
L 435.38 56.61
L 435.38 232.15
L 435.38 407.70
L 431.94 414.23
C 425.19 427.05 408.19 438.82 389.54 443.60
C 381.76 445.60 374.54 445.85 328.60 445.80
C 272.76 445.72 253.58 444.60 216.74 439.26
C 199.89 436.81 188.66 435.93 174.15 435.93
C 151.97 435.92 150.34 436.27 121.08 447.62
C 94.27 458.04 81.37 460.01 66.48 456.00"/>
<path fill="#cf9e66" stroke="none" d="
M 584.96 525.00
C 584.02 523.87 583.46 494.00 583.16 429.91
C 582.72 338.72 582.64 336.21 579.94 326.00
C 566.12 273.79 522.58 243.67 451.59 237.19
L 442.37 236.35
L 442.37 231.99
C 442.37 229.09 443.08 227.35 444.48 226.81
C 445.65 226.37 453.80 226.67 462.60 227.51
C 528.75 233.73 568.46 261.56 586.03 314.02
C 593.76 337.11 593.64 335.37 593.64 433.61
C 593.64 501.90 593.28 523.96 592.12 525.11
C 590.12 527.11 586.68 527.06 584.96 525.00"/>
</g>
</svg>
