<?xml version="1.0" encoding="UTF-8" standalone="no"?>
<!DOCTYPE svg PUBLIC "-//W3C//DTD SVG 1.1//EN"
"http://www.w3.org/Graphics/SVG/1.1/DTD/svg11.dtd">
<svg width="600px" height="443px"
xmlns="http://www.w3.org/2000/svg" version="1.1">
<g transform="translate(0000, 0000) scale(1.0000, 1.0000)">
<path fill="#000000" stroke="none" d="
M 4.53 440.47
C 2.12 438.05 2.04 437.23 2.74 422.50
C 3.14 414.02 4.53 392.75 5.82 375.25
C 12.66 282.71 14.24 226.34 11.76 163.60
C 9.24 99.80 6.99 70.84 2.16 39.80
C -1.55 15.89 -0.22 13.57 20.25 8.34
C 45.49 1.87 94.22 -1.11 120.00 2.24
C 154.76 6.76 169.75 10.62 174.09 16.14
C 177.12 19.99 177.13 24.21 174.14 53.95
C 172.05 74.82 165.80 155.51 164.26 181.69
L 163.65 191.96
L 166.82 191.42
C 185.27 188.28 236.53 185.74 262.55 186.68
C 292.82 187.79 292.84 187.78 304.60 158.90
C 312.87 138.61 337.60 85.47 346.56 68.71
C 361.58 40.66 377.52 20.18 388.82 14.42
C 401.19 8.13 418.94 10.00 428.47 18.60
C 447.60 35.85 518.45 120.01 547.58 160.09
C 572.46 194.32 575.55 202.80 575.74 237.41
C 575.98 279.63 571.86 341.63 567.59 360.30
C 566.65 364.39 565.88 369.20 565.88 370.98
C 565.88 373.68 570.32 388.27 573.53 396.17
C 574.24 397.91 575.98 398.23 584.84 398.23
C 597.04 398.23 600.00 399.95 600.00 407.07
C 600.00 414.16 597.02 415.90 584.98 415.90
L 574.65 415.90
L 572.39 420.12
C 567.52 429.18 557.86 433.89 549.39 431.35
C 546.79 430.57 542.94 428.41 540.84 426.56
C 537.41 423.56 536.76 423.37 534.75 424.86
C 529.28 428.85 521.01 425.66 519.32 418.88
L 518.56 415.90
L 406.78 415.90
L 294.99 415.90
L 290.48 419.98
C 283.07 426.69 266.80 433.57 258.36 433.57
C 252.46 433.57 243.33 429.04 236.60 422.75
C 232.92 419.31 228.22 415.60 226.18 414.51
C 219.56 411.00 219.56 401.95 226.18 398.44
C 228.22 397.36 232.92 393.65 236.60 390.21
C 243.33 383.91 252.46 379.38 258.36 379.38
C 267.16 379.38 283.32 386.39 291.12 393.59
L 296.14 398.23
L 407.93 398.23
L 519.72 398.23
L 521.05 394.99
C 523.73 388.50 528.44 360.77 529.09 347.61
C 529.49 339.57 528.89 320.49 527.60 300.40
C 525.75 271.40 525.65 264.20 526.88 248.94
C 527.91 236.23 527.95 229.64 527.07 225.67
C 523.74 210.79 509.35 190.07 480.00 157.88
C 474.38 151.73 458.56 133.17 444.86 116.64
C 412.06 77.11 410.60 75.40 409.64 75.40
C 407.88 75.42 401.40 87.60 374.86 140.86
C 346.60 197.55 339.41 210.17 330.45 218.79
C 317.21 231.51 308.98 232.28 214.41 229.58
C 187.71 228.82 165.58 228.49 165.21 228.85
C 164.85 229.22 165.36 244.02 166.35 261.74
C 167.35 279.46 168.73 311.71 169.44 333.43
C 170.14 355.14 171.20 379.26 171.80 387.04
C 172.40 394.81 173.25 409.45 173.68 419.55
C 174.45 437.32 174.39 438.02 171.94 440.47
L 169.41 443.00
L 88.24 443.00
L 7.06 443.00
L 4.53 440.47
M 165.92 434.13
C 167.47 432.25 167.21 422.66 164.73 388.80
C 164.13 380.70 163.06 355.79 162.35 333.43
C 161.65 311.07 160.31 279.79 159.36 263.91
C 156.40 213.97 156.14 201.56 157.53 175.55
C 159.04 147.16 164.92 71.41 167.76 43.72
C 169.58 26.06 169.56 25.51 167.34 22.52
C 166.08 20.83 162.46 18.47 159.31 17.30
C 151.14 14.24 123.64 9.80 102.94 8.19
C 86.95 6.94 83.20 7.05 62.94 9.34
C 28.45 13.27 13.12 16.99 9.26 22.39
C 7.31 25.12 7.28 25.98 8.82 34.17
C 11.48 48.18 15.08 84.45 16.42 110.75
C 22.24 224.14 21.42 262.04 9.79 422.65
C 9.29 429.62 9.51 432.87 10.58 434.14
C 11.87 435.71 21.59 435.93 88.24 435.93
C 155.27 435.93 164.60 435.72 165.92 434.13
M 273.51 420.78
C 279.85 417.80 290.59 408.80 290.59 406.48
C 290.59 404.54 280.42 395.53 275.33 392.94
C 261.11 385.73 254.29 386.23 244.82 395.22
C 241.20 398.65 236.52 402.34 234.41 403.41
C 232.31 404.48 230.59 405.86 230.59 406.49
C 230.59 407.10 232.58 408.63 235.00 409.88
C 237.42 411.14 241.53 414.39 244.12 417.12
C 252.85 426.29 259.93 427.18 273.51 420.78
M 558.66 422.29
C 562.13 420.24 566.60 414.03 567.65 409.80
C 568.06 408.15 566.45 401.39 563.58 392.75
C 558.21 376.60 557.67 369.70 560.64 355.60
C 564.98 334.90 568.89 278.68 568.76 238.58
C 568.67 209.12 565.34 199.96 543.71 169.66
C 519.29 135.47 456.02 59.26 428.55 30.97
C 419.26 21.38 412.53 17.64 404.79 17.70
C 401.00 17.73 393.01 21.31 387.73 25.34
C 376.28 34.10 356.56 65.46 339.93 101.40
C 335.29 111.40 327.66 127.80 322.95 137.85
C 318.25 147.90 312.19 161.75 309.51 168.66
C 304.39 181.81 299.55 189.70 295.04 192.28
C 292.99 193.45 282.89 193.84 252.35 193.91
C 215.65 194.00 187.32 195.60 168.06 198.69
L 163.53 199.42
L 163.53 210.32
L 163.53 221.23
L 198.53 222.25
C 217.78 222.81 249.41 223.27 268.82 223.27
C 307.73 223.27 311.12 222.77 321.04 215.57
C 329.51 209.44 337.38 195.95 367.07 136.67
C 383.14 104.59 397.89 76.12 399.87 73.40
C 402.47 69.82 404.56 68.25 407.47 67.70
C 413.28 66.60 417.39 69.24 425.36 79.16
C 441.56 99.32 474.71 138.60 489.80 155.52
C 519.41 188.71 531.53 207.23 534.16 223.34
C 535.18 229.55 535.15 235.92 534.05 249.80
C 532.80 265.60 532.88 272.28 534.69 298.66
C 537.40 338.14 536.73 359.56 532.08 382.03
L 528.74 398.23
L 532.04 398.23
C 533.85 398.23 536.31 397.62 537.51 396.86
C 538.71 396.12 540.55 395.84 541.61 396.24
C 544.01 397.17 544.12 402.16 541.76 404.12
C 539.38 406.10 539.54 408.31 542.52 414.46
C 544.89 419.40 550.48 424.14 553.94 424.15
C 554.81 424.15 556.93 423.31 558.66 422.29
M 530.32 417.30
C 530.58 416.51 529.71 415.90 528.33 415.90
C 525.89 415.90 525.15 417.14 526.69 418.67
C 527.78 419.77 529.74 419.02 530.32 417.30
M 533.38 408.54
C 533.76 407.08 534.09 405.23 534.11 404.41
C 534.12 403.25 509.64 402.94 415.59 402.94
L 297.06 402.94
L 297.06 407.07
L 297.06 411.19
L 414.86 411.19
L 532.67 411.19
L 533.38 408.54
M 593.02 409.96
C 594.27 409.30 595.29 408.00 595.29 407.07
C 595.29 404.28 591.20 402.94 582.73 402.94
L 574.71 402.94
L 574.71 407.07
L 574.71 411.19
L 582.73 411.19
C 587.13 411.19 591.76 410.64 593.02 409.96"/>
<path fill="#e8a126" stroke="none" d="
M 10.58 434.14
C 9.51 432.87 9.29 429.62 9.79 422.65
C 21.42 262.04 22.24 224.14 16.42 110.75
C 15.11 84.81 11.52 48.48 8.87 34.21
C 7.12 24.72 7.62 22.42 12.11 19.52
C 18.07 15.66 41.92 11.26 73.41 8.22
C 89.98 6.63 111.29 8.01 137.07 12.37
C 156.31 15.61 164.16 18.25 167.34 22.52
C 169.56 25.51 169.58 26.06 167.76 43.72
C 164.92 71.41 159.04 147.16 157.53 175.55
C 156.14 201.56 156.40 213.97 159.36 263.91
C 160.31 279.79 161.65 311.07 162.35 333.43
C 163.06 355.79 164.13 380.70 164.73 388.80
C 167.21 422.66 167.47 432.25 165.92 434.13
C 164.60 435.72 155.27 435.93 88.24 435.93
C 21.59 435.93 11.87 435.71 10.58 434.14"/>
<path fill="#ae3c2a" stroke="none" d="
M 548.69 421.90
C 545.14 419.73 540.00 411.18 540.00 407.43
C 540.00 406.42 540.80 404.92 541.76 404.12
C 544.12 402.16 544.01 397.17 541.61 396.24
C 540.55 395.84 538.71 396.12 537.51 396.86
C 536.31 397.62 533.85 398.23 532.04 398.23
L 528.74 398.23
L 532.08 382.03
C 536.73 359.56 537.40 338.14 534.69 298.66
C 532.88 272.28 532.80 265.60 534.05 249.80
C 535.15 235.92 535.18 229.55 534.16 223.34
C 531.53 207.23 519.41 188.71 489.80 155.52
C 474.71 138.60 441.56 99.32 425.36 79.16
C 417.39 69.24 413.28 66.60 407.47 67.70
C 404.56 68.25 402.47 69.82 399.87 73.40
C 397.89 76.12 383.14 104.59 367.07 136.67
C 337.38 195.95 329.51 209.44 321.04 215.57
C 311.12 222.77 307.73 223.27 268.82 223.27
C 249.41 223.27 217.78 222.81 198.53 222.25
L 163.53 221.23
L 163.53 210.32
L 163.53 199.42
L 168.06 198.69
C 187.32 195.60 215.65 194.00 252.35 193.91
C 282.89 193.84 292.99 193.45 295.04 192.28
C 299.55 189.70 304.39 181.81 309.51 168.66
C 312.19 161.75 318.25 147.90 322.95 137.85
C 327.66 127.80 335.29 111.40 339.93 101.40
C 357.95 62.47 377.66 32.00 390.18 23.69
C 400.29 16.98 407.12 16.39 417.28 21.31
C 428.46 26.73 509.13 121.44 543.65 169.66
C 565.46 200.12 568.67 208.95 568.76 238.58
C 568.89 278.68 564.98 334.90 560.64 355.60
C 557.67 369.70 558.21 376.60 563.58 392.75
C 566.45 401.39 568.06 408.15 567.65 409.80
C 566.04 416.29 558.52 424.16 553.94 424.15
C 553.07 424.14 550.71 423.14 548.69 421.90"/>
<path fill="#ae3c2a" stroke="none" d="
M 526.69 418.67
C 525.15 417.14 525.89 415.90 528.33 415.90
C 529.71 415.90 530.58 416.51 530.32 417.30
C 529.74 419.02 527.78 419.77 526.69 418.67"/>
<path fill="#c57a36" stroke="none" d="
M 252.35 423.71
C 250.41 422.81 246.71 419.84 244.12 417.12
C 241.53 414.39 237.42 411.14 235.00 409.88
C 232.58 408.63 230.59 407.10 230.59 406.48
C 230.59 405.85 232.58 404.32 235.00 403.06
C 237.42 401.81 241.79 398.33 244.68 395.35
C 253.29 386.49 261.34 385.85 275.20 392.88
C 280.39 395.52 290.59 404.52 290.59 406.48
C 290.59 406.97 288.34 409.65 285.59 412.41
C 276.35 421.71 259.98 427.27 252.35 423.71"/>
<path fill="#c55436" stroke="none" d="
M 297.42 407.07
L 297.91 402.94
L 416.01 402.94
C 509.72 402.94 534.12 403.25 534.11 404.41
C 534.09 405.23 533.76 407.08 533.38 408.54
L 532.67 411.19
L 414.80 411.19
L 296.94 411.19
L 297.42 407.07"/>
<path fill="#c55436" stroke="none" d="
M 574.71 407.07
L 574.71 402.94
L 582.73 402.94
C 591.20 402.94 595.29 404.28 595.29 407.07
C 595.29 409.85 591.20 411.19 582.73 411.19
L 574.71 411.19
L 574.71 407.07"/>
</g>
</svg>
