<?xml version="1.0" encoding="UTF-8" standalone="no"?>
<!DOCTYPE svg PUBLIC "-//W3C//DTD SVG 1.1//EN"
"http://www.w3.org/Graphics/SVG/1.1/DTD/svg11.dtd">
<svg width="600px" height="243px"
xmlns="http://www.w3.org/2000/svg" version="1.1">
<g transform="translate(0000, 0000) scale(1.0000, 1.0000)">
<path fill="#000000" stroke="none" d="
M 79.92 241.30
C 51.36 235.81 14.49 216.78 4.42 202.33
C 2.33 199.32 0.70 195.15 0.33 191.85
C -0.20 187.11 0.13 185.94 2.81 183.25
C 7.61 178.43 13.45 179.01 25.53 185.54
C 67.17 208.00 87.33 214.02 115.70 212.46
C 132.58 211.53 140.76 207.09 137.36 200.71
C 134.88 196.04 131.61 195.45 107.64 195.36
C 86.12 195.26 84.29 195.06 81.12 192.71
C 74.36 187.67 74.34 179.37 81.06 175.27
C 84.51 173.16 87.34 172.88 106.63 172.76
C 118.55 172.69 135.36 172.55 143.98 172.46
L 159.64 172.28
L 174.70 179.53
L 189.76 186.78
L 200.60 186.70
C 207.46 186.64 218.77 185.20 231.33 182.78
C 242.25 180.68 263.94 177.35 279.52 175.38
C 346.11 166.98 364.96 166.51 430.12 171.60
C 456.95 173.70 482.17 175.93 486.14 176.56
C 510.01 180.33 514.67 175.85 516.86 147.12
C 517.54 137.94 518.63 125.16 519.27 118.71
C 519.89 112.26 521.25 94.21 522.29 78.58
C 525.70 26.92 527.18 18.38 534.35 8.93
C 539.45 2.25 543.63 0.69 556.63 0.64
C 569.23 0.60 574.55 2.49 580.96 9.26
C 587.71 16.41 589.31 22.58 590.53 46.40
C 591.96 74.62 596.02 137.92 597.92 162.00
C 598.73 172.31 599.39 186.72 599.39 194.04
C 599.36 205.92 599.05 207.92 596.37 212.78
C 594.36 216.42 591.78 219.01 588.55 220.63
C 583.80 223.02 581.18 223.05 387.88 223.20
L 192.01 223.34
L 175.83 228.87
C 155.19 235.90 152.96 236.50 135.54 239.43
C 116.55 242.64 91.29 243.48 79.92 241.30
M 132.53 232.10
C 141.35 230.61 154.83 227.13 165.06 223.69
C 174.66 220.48 184.16 217.44 186.14 216.97
C 188.13 216.49 276.39 216.21 382.25 216.34
C 528.53 216.52 575.82 216.23 579.24 215.13
C 591.10 211.34 593.89 203.20 591.72 178.66
C 590.95 169.83 589.49 150.09 588.51 134.80
C 587.51 119.51 586.17 100.74 585.53 93.09
C 584.89 85.44 584.34 73.20 584.31 65.89
C 584.27 48.09 582.42 30.14 580.10 24.53
C 576.27 15.32 565.59 7.34 557.01 7.28
C 545.16 7.19 535.87 17.83 533.27 34.46
C 532.86 37.11 531.17 58.05 529.53 81.00
C 523.00 172.19 522.49 175.52 514.10 181.80
C 509.88 184.96 496.88 185.84 483.40 183.89
C 467.55 181.61 382.60 175.30 367.72 175.31
C 339.82 175.32 272.33 182.84 234.94 190.10
C 219.28 193.13 211.86 193.96 199.96 194.00
L 184.88 194.04
L 169.99 186.78
L 155.11 179.53
L 144.12 179.72
C 85.16 180.78 85.54 180.74 85.54 183.80
C 85.54 184.41 87.16 185.74 89.13 186.77
C 92.04 188.28 96.81 188.58 114.13 188.36
C 128.57 188.17 136.63 188.55 138.86 189.52
C 146.17 192.68 149.16 203.76 144.69 211.12
C 141.17 216.89 133.78 218.98 114.46 219.67
C 81.60 220.84 55.06 213.39 23.59 194.19
C 14.70 188.77 12.39 188.02 10.18 189.85
C 7.55 192.04 7.94 193.01 14.00 199.51
C 26.72 213.15 56.13 227.80 83.13 233.94
C 93.17 236.23 112.18 235.52 132.53 232.10"/>
<path fill="#ae3c2a" stroke="none" d="
M 83.13 233.94
C 64.30 229.67 41.17 219.87 25.99 209.75
C 19.53 205.46 8.43 194.50 8.43 192.43
C 8.43 190.37 11.90 188.39 14.19 189.12
C 15.45 189.52 19.67 191.80 23.59 194.19
C 55.06 213.39 81.60 220.84 114.46 219.67
C 133.78 218.98 141.17 216.89 144.69 211.12
C 149.16 203.76 146.17 192.68 138.86 189.52
C 136.63 188.55 128.57 188.17 114.13 188.36
C 96.81 188.58 92.04 188.28 89.13 186.77
C 85.28 184.76 84.65 183.27 87.05 181.72
C 87.88 181.17 98.59 180.56 110.84 180.33
C 123.10 180.10 138.07 179.83 144.12 179.72
L 155.11 179.53
L 169.99 186.78
L 184.88 194.04
L 199.96 194.00
C 211.86 193.96 219.28 193.13 234.94 190.10
C 272.33 182.84 339.82 175.32 367.72 175.31
C 382.60 175.30 467.55 181.61 483.40 183.89
C 496.88 185.84 509.88 184.96 514.10 181.80
C 522.49 175.52 523.00 172.19 529.53 81.00
C 531.17 58.05 532.86 37.11 533.27 34.46
C 537.19 9.37 556.31 -0.40 572.64 14.35
C 575.31 16.77 578.51 21.02 579.73 23.80
C 582.36 29.74 584.25 47.15 584.31 65.89
C 584.34 73.20 584.89 85.44 585.53 93.09
C 586.17 100.74 587.51 119.51 588.51 134.80
C 589.49 150.09 590.95 169.83 591.72 178.66
C 593.89 203.20 591.10 211.34 579.24 215.13
C 575.82 216.23 528.53 216.52 382.25 216.34
C 276.39 216.21 188.13 216.49 186.14 216.97
C 184.16 217.44 174.66 220.48 165.06 223.69
C 136.14 233.40 100.40 237.87 83.13 233.94"/>
</g>
</svg>
