<?xml version="1.0" encoding="UTF-8" standalone="no"?>
<!DOCTYPE svg PUBLIC "-//W3C//DTD SVG 1.1//EN"
"http://www.w3.org/Graphics/SVG/1.1/DTD/svg11.dtd">
<svg width="600px" height="195px"
xmlns="http://www.w3.org/2000/svg" version="1.1">
<g transform="translate(0000, 0000) scale(1.0000, 1.0000)">
<path fill="#000000" stroke="none" d="
M 285.84 194.24
C 283.98 193.93 276.40 192.68 268.99 191.47
C 228.42 184.84 180.92 174.46 118.65 158.59
C 74.75 147.39 40.27 140.18 18.82 137.72
C 10.26 136.73 2.52 135.47 1.63 134.92
C -3.16 131.95 2.62 126.91 38.06 103.13
C 110.97 54.23 173.81 23.97 227.87 11.73
C 284.17 -1.02 302.91 -2.03 342.47 5.51
C 401.39 16.76 441.67 31.82 498.71 63.94
C 540.05 87.21 600.00 127.47 600.00 131.96
C 600.00 135.09 597.61 135.82 581.18 137.72
C 559.73 140.18 525.25 147.39 481.35 158.59
C 420.19 174.19 391.90 180.40 331.07 191.66
C 319.23 193.85 292.50 195.38 285.84 194.24
M 307.81 186.93
C 312.11 186.23 321.82 184.97 329.38 184.14
C 345.91 182.35 352.99 179.39 366.30 168.70
C 391.13 148.76 404.78 120.91 402.51 94.79
C 400.60 72.76 390.43 52.00 372.93 34.41
C 363.95 25.38 359.76 22.34 349.21 17.20
C 334.64 10.09 322.84 7.84 300.00 7.84
C 277.16 7.84 265.36 10.09 250.79 17.20
C 222.03 31.23 200.25 62.93 197.49 94.79
C 195.22 120.91 208.87 148.76 233.70 168.70
C 247.98 180.17 253.59 182.30 276.40 184.90
C 287.15 186.13 296.21 187.38 296.52 187.67
C 297.33 188.47 299.10 188.36 307.81 186.93
M 227.87 175.41
C 227.87 174.31 225.98 172.02 223.67 170.33
C 217.17 165.53 204.19 148.58 199.55 138.80
C 193.25 125.56 191.06 113.14 191.88 95.40
C 193.02 70.25 201.72 49.85 219.22 31.21
C 229.28 20.52 230.02 18.25 223.05 19.57
C 208.14 22.37 162.43 40.25 135.80 53.68
C 101.76 70.85 41.68 107.78 19.73 125.03
C 14.82 128.89 14.67 129.20 17.34 130.19
C 18.90 130.77 27.90 132.52 37.33 134.05
C 60.85 137.89 91.05 144.64 134.16 155.68
C 168.03 164.36 222.32 177.11 226.18 177.31
C 227.11 177.36 227.87 176.50 227.87 175.41
M 401.70 171.19
C 416.95 167.78 445.82 160.81 465.84 155.68
C 508.95 144.64 539.15 137.89 562.67 134.05
C 572.10 132.52 581.10 130.77 582.66 130.19
C 585.33 129.20 585.18 128.89 580.27 125.03
C 558.32 107.78 498.24 70.85 464.20 53.68
C 437.57 40.25 391.86 22.37 376.95 19.57
C 369.98 18.25 370.72 20.52 380.78 31.21
C 398.28 49.85 406.98 70.25 408.12 95.40
C 408.94 113.14 406.75 125.56 400.45 138.80
C 395.81 148.58 382.83 165.53 376.33 170.33
C 372.59 173.08 370.60 177.40 373.05 177.40
C 373.56 177.40 386.45 174.61 401.70 171.19"/>
<path fill="#000000" stroke="none" d="
M 285.44 154.33
C 257.73 147.32 239.72 122.25 241.71 93.44
C 243.33 70.24 256.33 52.12 277.81 43.14
C 288.47 38.69 311.53 38.69 322.19 43.14
C 337.71 49.63 350.36 62.73 355.55 77.65
C 358.87 87.21 358.87 107.79 355.55 117.35
C 350.35 132.34 337.52 145.57 322.19 151.73
C 313.85 155.09 294.00 156.50 285.44 154.33"/>
<path fill="#c55436" stroke="none" d="
M 296.52 187.67
C 296.21 187.38 287.15 186.13 276.40 184.90
C 253.59 182.30 247.98 180.17 233.70 168.70
C 208.87 148.76 195.22 120.91 197.49 94.79
C 199.40 72.76 209.57 52.00 227.07 34.41
C 236.05 25.38 240.24 22.34 250.79 17.20
C 265.32 10.10 276.94 7.91 300.00 7.87
C 322.81 7.84 334.62 10.08 349.21 17.20
C 377.97 31.23 399.75 62.93 402.51 94.79
C 404.78 120.91 391.13 148.76 366.30 168.70
C 352.99 179.39 345.91 182.35 329.38 184.14
C 321.82 184.97 312.11 186.23 307.81 186.93
C 299.10 188.36 297.33 188.47 296.52 187.67
M 322.19 151.73
C 337.52 145.57 350.35 132.34 355.55 117.35
C 358.87 107.79 358.87 87.21 355.55 77.65
C 350.36 62.73 337.71 49.63 322.19 43.14
C 311.53 38.69 288.47 38.69 277.81 43.14
C 256.33 52.12 243.33 70.24 241.71 93.44
C 239.72 122.25 257.73 147.32 285.44 154.33
C 294.00 156.50 313.85 155.09 322.19 151.73"/>
<path fill="#ffebeb" stroke="none" d="
M 197.53 171.11
C 182.70 167.75 154.18 160.81 134.16 155.68
C 91.05 144.64 60.85 137.89 37.33 134.05
C 27.90 132.52 18.90 130.77 17.34 130.19
C 14.67 129.20 14.82 128.89 19.73 125.03
C 41.68 107.78 101.76 70.85 135.80 53.68
C 172.19 35.33 227.87 15.22 227.87 20.42
C 227.87 21.30 223.98 26.15 219.22 31.21
C 201.72 49.85 193.02 70.25 191.88 95.40
C 191.06 113.14 193.25 125.56 199.55 138.80
C 204.19 148.58 217.17 165.53 223.67 170.33
C 227.88 173.43 229.33 177.46 226.18 177.31
C 225.25 177.26 212.36 174.47 197.53 171.11"/>
<path fill="#ffebeb" stroke="none" d="
M 372.13 175.41
C 372.13 174.31 374.02 172.02 376.33 170.33
C 382.83 165.53 395.81 148.58 400.45 138.80
C 406.75 125.56 408.94 113.14 408.12 95.40
C 406.98 70.25 398.28 49.85 380.78 31.21
C 370.72 20.52 369.98 18.25 376.95 19.57
C 391.86 22.37 437.57 40.25 464.20 53.68
C 498.24 70.85 558.32 107.78 580.27 125.03
C 585.18 128.89 585.33 129.20 582.66 130.19
C 581.10 130.77 572.10 132.52 562.67 134.05
C 539.15 137.89 508.95 144.64 465.84 155.68
C 434.78 163.62 375.98 177.40 373.05 177.40
C 372.55 177.40 372.13 176.50 372.13 175.41"/>
</g>
</svg>
