<?xml version="1.0" encoding="UTF-8" standalone="no"?>
<!DOCTYPE svg PUBLIC "-//W3C//DTD SVG 1.1//EN"
"http://www.w3.org/Graphics/SVG/1.1/DTD/svg11.dtd">
<svg width="600px" height="306px"
xmlns="http://www.w3.org/2000/svg" version="1.1">
<g transform="translate(0000, 0000) scale(1.0000, 1.0000)">
<path fill="#000000" stroke="none" d="
M 92.31 304.27
C 90.83 303.24 88.37 298.42 86.15 292.20
L 82.45 281.84
L 70.69 281.84
C 49.69 281.84 39.00 278.26 27.69 267.46
C 15.78 256.11 11.43 241.18 15.41 225.46
C 16.46 221.36 18.85 215.83 20.75 213.18
L 24.17 208.37
L 16.08 204.10
C 4.01 197.76 -0.02 191.69 3.48 185.14
C 4.84 182.62 10.38 179.46 13.45 179.46
C 14.59 179.47 18.62 180.75 22.41 182.31
C 27.83 184.54 31.37 185.16 38.87 185.19
C 48.26 185.21 48.41 185.16 47.62 182.62
C 47.17 181.20 41.40 165.02 34.79 146.67
C 17.60 98.90 -0.01 45.28 0.01 40.79
C 0.08 30.46 8.18 16.31 17.57 10.12
C 53.60 -13.61 90.86 9.61 88.15 54.07
C 87.43 65.80 84.72 75.21 81.00 78.94
C 77.34 82.60 72.03 82.55 68.31 78.82
C 65.53 76.04 65.46 75.58 65.77 61.28
C 66.08 46.89 66.02 46.44 62.51 39.11
C 58.56 30.91 53.54 25.19 48.40 23.07
C 45.52 21.87 44.36 22.06 39.49 24.55
C 29.47 29.67 22.98 37.99 22.99 45.69
C 23.00 47.45 25.63 56.39 28.85 65.57
C 32.06 74.74 38.74 94.16 43.68 108.71
C 48.61 123.26 56.59 146.28 61.38 159.88
C 66.18 173.47 70.11 184.66 70.11 184.76
C 70.11 185.49 77.15 186.58 87.55 187.47
C 101.79 188.70 104.15 189.69 121.84 201.89
C 142.76 216.33 146.17 217.43 159.34 214.11
C 183.45 208.02 233.20 199.20 260.92 196.09
C 283.66 193.55 344.20 192.58 371.33 194.32
C 420.41 197.47 457.52 202.70 483.14 210.06
C 490.62 212.21 497.72 213.97 498.94 213.97
C 503.61 213.97 505.38 210.30 506.24 198.89
C 506.69 192.95 509.86 162.99 513.30 132.29
C 516.72 101.61 519.53 72.13 519.54 66.80
C 519.54 55.25 521.80 49.54 528.95 43.08
C 534.53 38.04 540.64 35.19 550.06 33.27
C 556.05 32.04 558.13 32.12 565.23 33.87
C 579.36 37.33 588.10 44.69 591.49 55.98
C 592.70 60.02 593.59 76.45 594.83 118.44
C 595.76 149.79 597.14 185.79 597.90 198.44
C 598.66 211.09 599.31 227.66 599.36 235.25
C 599.41 247.48 599.11 249.68 596.74 254.51
C 593.70 260.69 589.63 264.02 581.82 266.73
C 576.97 268.41 555.59 268.65 363.79 269.28
C 209.63 269.79 149.25 270.34 144.25 271.30
C 135.13 273.08 104.13 279.89 103.64 280.22
C 103.44 280.37 104.60 284.19 106.23 288.71
C 110.07 299.36 109.99 300.95 105.46 303.71
C 101.01 306.43 95.70 306.66 92.31 304.27
M 100.98 298.74
C 101.90 297.61 101.37 295.03 98.91 288.68
C 95.61 280.17 92.70 277.41 91.20 281.34
C 90.51 283.12 93.15 293.14 95.64 298.23
C 96.82 300.62 99.22 300.85 100.98 298.74
M 94.30 273.28
C 101.54 272.37 112.13 270.53 117.82 269.20
C 145.20 262.73 131.34 263.13 362.07 262.39
C 530.69 261.85 576.01 261.40 578.74 260.25
C 593.00 254.20 593.71 251.35 591.39 209.67
C 590.47 193.37 589.18 159.07 588.51 133.44
C 586.89 72.26 585.98 60.02 582.53 53.78
C 575.83 41.62 556.97 36.95 541.77 43.68
C 529.47 49.12 526.98 54.04 526.07 74.77
C 525.69 83.31 522.77 113.34 519.57 141.50
C 516.38 169.66 513.43 197.84 513.02 204.15
C 512.36 214.19 511.92 215.95 509.48 218.39
C 506.85 221.02 506.14 221.15 497.31 220.54
C 491.75 220.16 483.25 218.46 476.44 216.35
C 456.68 210.24 414.01 204.19 369.79 201.24
C 346.63 199.68 286.67 200.38 268.39 202.42
C 239.79 205.62 198.78 212.77 168.39 219.89
C 144.91 225.39 137.90 223.84 116.21 208.37
C 100.16 196.91 96.62 195.36 84.48 194.44
C 78.79 194.01 73.98 193.78 73.77 193.92
C 73.56 194.07 74.49 196.73 75.83 199.83
C 78.14 205.22 78.55 205.54 84.82 207.13
C 89.93 208.43 91.46 209.32 91.72 211.20
C 92.39 215.86 89.33 216.80 80.14 214.75
C 75.57 213.74 63.83 212.38 54.02 211.73
C 37.57 210.65 35.99 210.71 33.40 212.62
C 28.11 216.52 24.22 222.60 22.38 229.81
C 20.69 236.47 20.69 237.54 22.44 243.56
C 24.91 252.07 29.75 258.95 37.13 264.45
C 45.62 270.78 47.41 271.53 57.89 273.17
C 70.80 275.18 78.95 275.22 94.30 273.28
M 70.11 206.18
C 70.11 205.69 68.63 201.42 66.82 196.69
C 65.00 191.95 55.23 163.49 45.09 133.44
C 34.95 103.40 24.87 73.88 22.69 67.87
C 16.21 50.00 15.56 46.12 17.80 38.31
C 21.43 25.71 37.34 14.45 48.56 16.55
C 57.94 18.31 66.02 27.67 70.29 41.71
C 72.34 48.51 72.62 51.42 71.99 60.31
C 71.40 68.75 71.60 71.31 72.97 73.11
C 74.66 75.30 74.72 75.29 76.89 72.54
C 82.03 65.95 84.05 50.52 81.20 39.40
C 74.91 14.82 55.24 1.33 35.90 8.33
C 21.16 13.65 10.69 23.70 8.18 34.93
C 6.74 41.39 6.77 41.60 13.06 61.27
C 16.54 72.17 20.52 84.99 21.90 89.73
C 24.53 98.79 34.17 125.67 43.15 148.97
C 46.08 156.57 50.05 167.44 51.95 173.13
C 63.76 208.24 63.24 207.07 66.83 207.07
C 68.63 207.07 70.11 206.67 70.11 206.18
M 53.39 201.03
C 51.38 191.76 51.99 192.11 38.14 192.11
C 28.62 192.11 24.05 191.56 18.93 189.80
C 14.17 188.17 11.85 187.84 10.99 188.71
C 9.34 190.36 13.28 193.34 24.14 198.68
C 32.47 202.78 38.79 204.26 49.23 204.61
L 54.21 204.77
L 53.39 201.03"/>
<path fill="#c57a36" stroke="none" d="
M 95.64 298.23
C 93.15 293.14 90.51 283.12 91.20 281.34
C 92.70 277.41 95.61 280.17 98.91 288.68
C 101.37 295.03 101.90 297.61 100.98 298.74
C 99.22 300.85 96.82 300.62 95.64 298.23"/>
<path fill="#c57a36" stroke="none" d="
M 59.48 195.28
C 57.25 188.79 53.87 178.83 51.95 173.13
C 50.05 167.44 46.08 156.57 43.15 148.97
C 34.17 125.67 24.53 98.79 21.90 89.73
C 20.52 84.99 16.54 72.17 13.06 61.27
C 6.77 41.60 6.74 41.39 8.18 34.93
C 10.70 23.67 21.31 13.51 35.90 8.37
C 55.47 1.47 74.90 14.77 81.20 39.40
C 84.05 50.52 82.03 65.95 76.89 72.54
C 74.72 75.29 74.66 75.30 72.97 73.11
C 71.60 71.31 71.40 68.75 71.99 60.31
C 72.62 51.42 72.34 48.51 70.29 41.71
C 62.37 15.61 43.66 8.81 26.02 25.63
C 20.93 30.48 19.36 32.91 17.80 38.31
C 15.56 46.12 16.21 50.00 22.69 67.87
C 24.87 73.88 34.95 103.40 45.09 133.44
C 55.23 163.49 65.00 191.95 66.82 196.69
C 68.63 201.42 70.11 205.69 70.11 206.18
C 70.11 206.67 68.63 207.07 66.83 207.07
C 63.68 207.07 63.36 206.54 59.48 195.28"/>
<path fill="#ae3c2a" stroke="none" d="
M 57.89 273.17
C 47.41 271.53 45.62 270.78 37.13 264.45
C 29.75 258.95 24.91 252.07 22.44 243.56
C 20.69 237.54 20.69 236.47 22.38 229.81
C 24.22 222.60 28.11 216.52 33.40 212.62
C 35.99 210.71 37.57 210.65 54.02 211.73
C 63.83 212.38 75.57 213.74 80.14 214.75
C 89.33 216.80 92.39 215.86 91.72 211.20
C 91.46 209.32 89.93 208.43 84.82 207.13
C 78.55 205.54 78.14 205.22 75.83 199.83
C 74.49 196.73 73.56 194.07 73.77 193.92
C 73.98 193.78 78.79 194.01 84.48 194.44
C 96.62 195.36 100.16 196.91 116.21 208.37
C 137.90 223.84 144.91 225.39 168.39 219.89
C 198.78 212.77 239.79 205.62 268.39 202.42
C 286.67 200.38 346.63 199.68 369.79 201.24
C 414.01 204.19 456.68 210.24 476.44 216.35
C 483.25 218.46 491.75 220.16 497.31 220.54
C 506.14 221.15 506.85 221.02 509.48 218.39
C 511.92 215.95 512.36 214.19 513.02 204.15
C 513.43 197.84 516.38 169.66 519.57 141.50
C 522.77 113.34 525.69 83.31 526.07 74.77
C 526.98 54.17 529.49 49.11 541.48 43.81
C 556.90 36.98 575.80 41.57 582.53 53.78
C 585.98 60.02 586.89 72.26 588.51 133.44
C 589.18 159.07 590.47 193.37 591.39 209.67
C 593.71 251.35 593.00 254.20 578.74 260.25
C 576.01 261.40 530.69 261.85 362.07 262.39
C 131.34 263.13 145.20 262.73 117.82 269.20
C 104.97 272.22 83.39 274.99 74.18 274.79
C 70.37 274.70 63.03 273.97 57.89 273.17"/>
<path fill="#ae3c2a" stroke="none" d="
M 38.51 203.67
C 32.70 202.90 17.93 196.35 12.64 192.19
C 10.62 190.61 10.13 189.57 10.99 188.71
C 11.85 187.84 14.17 188.17 18.93 189.80
C 24.05 191.56 28.62 192.11 38.14 192.11
C 51.99 192.11 51.38 191.76 53.39 201.03
L 54.21 204.77
L 49.23 204.61
C 46.49 204.51 41.67 204.10 38.51 203.67"/>
</g>
</svg>
