<?xml version="1.0" encoding="UTF-8" standalone="no"?>
<!DOCTYPE svg PUBLIC "-//W3C//DTD SVG 1.1//EN"
"http://www.w3.org/Graphics/SVG/1.1/DTD/svg11.dtd">
<svg width="600px" height="282px"
xmlns="http://www.w3.org/2000/svg" version="1.1">
<g transform="translate(0000, 0000) scale(1.0000, 1.0000)">
<path fill="#000000" stroke="none" d="
M 198.31 279.91
C 197.02 278.76 194.46 273.52 192.63 268.26
C 187.12 252.41 186.89 252.13 180.38 252.12
C 173.13 252.10 163.94 247.83 158.97 242.16
C 150.42 232.40 146.53 206.43 152.42 198.46
L 155.14 194.78
L 150.32 192.85
C 144.95 190.70 139.56 185.03 139.56 181.53
C 139.56 180.28 140.70 178.10 142.09 176.70
C 144.31 174.48 145.44 174.28 151.79 175.00
C 157.48 175.64 158.83 175.49 158.33 174.23
C 157.98 173.37 145.56 141.84 130.75 104.16
C 115.92 66.50 103.31 34.81 102.73 33.77
C 101.32 31.25 101.63 28.50 91.84 131.44
C 87.24 179.75 82.82 225.72 82.01 233.61
L 80.52 247.94
L 76.94 247.94
C 73.48 247.94 73.36 247.75 73.42 242.57
C 73.44 239.62 73.88 234.76 74.40 231.80
L 75.34 226.40
L 63.63 224.41
C 57.20 223.32 51.76 222.59 51.54 222.80
C 51.33 223.02 49.98 227.69 48.54 233.18
C 46.00 242.90 45.83 243.17 42.35 243.17
C 39.28 243.17 38.79 242.74 38.92 240.18
C 39.01 238.53 40.16 233.59 41.50 229.21
C 43.23 223.50 43.53 221.08 42.54 220.71
C 41.77 220.44 35.95 219.23 29.59 218.04
C 20.50 216.33 17.67 216.17 16.31 217.31
C 15.35 218.10 12.80 223.03 10.64 228.26
C 6.73 237.79 5.19 239.15 1.20 236.63
C -0.21 235.72 -0.31 234.86 0.76 232.16
C 4.65 222.36 90.89 17.28 94.00 10.46
C 98.03 1.59 101.77 -1.11 107.36 0.82
C 110.89 2.04 110.56 1.33 136.62 67.51
C 146.97 93.80 160.87 129.01 167.50 145.78
L 179.57 176.25
L 196.84 176.88
C 217.26 177.64 219.30 178.34 239.17 191.75
L 252.29 200.60
L 267.42 197.22
C 285.55 193.16 311.92 188.62 338.77 184.93
C 355.81 182.58 363.57 182.22 396.62 182.22
C 439.36 182.22 445.65 182.89 496.46 192.85
C 512.58 196.01 523.03 197.54 524.16 196.91
C 525.16 196.35 526.47 193.89 527.09 191.45
C 527.70 189.00 530.45 162.27 533.18 132.04
C 535.90 101.81 538.39 75.32 538.71 73.16
C 540.50 60.94 560.78 52.06 576.47 56.63
C 584.68 59.02 589.73 63.14 593.31 70.36
C 595.94 75.66 596.10 77.73 597.52 124.27
C 600.95 237.86 600.97 236.96 594.76 240.52
C 592.84 241.64 551.74 242.11 419.88 242.59
L 247.51 243.20
L 233.20 246.97
C 225.33 249.03 216.33 251.10 213.22 251.57
C 210.11 252.02 207.57 252.74 207.57 253.15
C 207.58 253.57 208.65 257.32 209.95 261.50
C 212.99 271.22 212.99 276.55 209.94 279.61
C 206.99 282.56 201.45 282.70 198.31 279.91
M 206.23 274.39
C 207.27 273.15 206.70 270.34 203.83 262.44
C 200.33 252.80 199.86 252.13 196.70 252.13
L 193.32 252.13
L 197.07 262.58
C 201.96 276.28 203.27 277.96 206.23 274.39
M 233.80 239.99
L 247.51 236.03
L 417.90 235.41
L 588.29 234.80
L 590.72 231.81
C 593.09 228.91 593.13 227.93 592.32 194.17
C 591.86 175.11 591.01 148.50 590.41 135.03
C 589.81 121.55 589.31 103.66 589.30 95.26
C 589.25 73.59 586.22 67.33 574.09 63.80
C 561.60 60.16 547.43 67.33 545.82 78.09
C 544.85 84.64 535.57 180.56 534.86 191.60
C 534.31 199.97 533.67 202.67 531.77 204.57
C 528.95 207.39 530.16 207.52 498.01 200.98
C 447.84 190.78 423.13 188.26 382.41 189.17
C 341.27 190.08 312.69 193.92 268.77 204.45
C 259.34 206.71 251.83 207.90 249.98 207.45
C 248.30 207.02 241.71 203.11 235.32 198.75
C 217.71 186.69 212.86 184.79 198.31 184.22
C 191.58 183.96 186.08 184.10 186.08 184.54
C 186.08 184.97 186.88 186.88 187.87 188.78
C 189.40 191.76 190.45 192.30 195.33 192.62
C 200.43 192.94 200.99 193.27 200.99 195.89
C 200.99 200.96 193.94 201.65 170.96 198.82
C 165.44 198.15 164.48 198.38 161.80 201.07
C 156.14 206.72 156.45 219.60 162.51 231.68
C 168.05 242.74 175.49 245.16 201.59 244.44
C 218.09 243.99 221.56 243.51 233.80 239.99
M 75.71 217.18
C 76.53 214.63 93.22 38.23 92.82 36.24
C 92.61 35.21 75.98 73.56 55.85 121.44
C 35.73 169.33 19.62 208.64 20.06 208.81
C 21.18 209.23 71.81 218.43 73.69 218.56
C 74.54 218.62 75.44 218.00 75.71 217.18
M 175.91 180.13
C 172.40 173.39 164.34 154.71 157.99 138.61
C 151.65 122.51 138.72 89.71 129.27 65.72
C 103.71 0.86 105.36 4.35 102.63 9.48
C 100.68 13.14 101.13 15.64 105.38 24.53
C 107.56 29.11 121.55 64.05 136.47 102.17
C 173.94 197.90 171.10 191.89 179.12 192.24
L 182.29 192.38
L 175.91 180.13
M 164.61 187.10
C 164.61 185.44 153.03 182.08 151.74 183.37
C 151.05 184.06 160.89 188.74 163.12 188.77
C 163.94 188.78 164.61 188.03 164.61 187.10"/>
<path fill="#c57a36" stroke="none" d="
M 201.94 274.53
C 201.32 273.71 199.12 268.33 197.07 262.58
L 193.32 252.13
L 196.70 252.13
C 199.86 252.13 200.33 252.80 203.83 262.44
C 206.70 270.34 207.27 273.15 206.23 274.39
C 204.55 276.42 203.40 276.46 201.94 274.53"/>
<path fill="#c57a36" stroke="none" d="
M 174.02 191.59
C 171.44 190.90 168.02 182.79 136.47 102.17
C 121.55 64.05 107.56 29.11 105.38 24.53
C 100.95 15.28 100.49 11.83 103.26 9.05
C 104.30 8.02 105.32 7.17 105.52 7.17
C 106.08 7.17 110.25 17.48 129.27 65.72
C 138.72 89.71 151.65 122.51 157.99 138.61
C 164.34 154.71 172.40 173.39 175.91 180.13
L 182.29 192.38
L 179.12 192.24
C 177.38 192.17 175.07 191.87 174.02 191.59"/>
<path fill="#ef907a" stroke="none" d="
M 46.52 213.78
C 32.41 211.21 20.52 208.98 20.06 208.81
C 19.62 208.64 35.11 170.87 54.47 124.87
C 73.83 78.86 90.23 39.89 90.89 38.24
C 91.57 36.59 92.37 35.90 92.66 36.67
C 93.18 38.08 76.64 214.31 75.71 217.18
C 75.09 219.08 76.54 219.25 46.52 213.78"/>
<path fill="#ae3c2a" stroke="none" d="
M 177.34 243.32
C 169.57 241.13 165.73 238.11 162.51 231.68
C 156.45 219.60 156.14 206.72 161.80 201.07
C 164.48 198.38 165.44 198.15 170.96 198.82
C 193.94 201.65 200.99 200.96 200.99 195.89
C 200.99 193.27 200.43 192.94 195.33 192.62
C 190.45 192.30 189.40 191.76 187.87 188.78
C 186.88 186.88 186.08 184.97 186.08 184.54
C 186.08 184.10 191.58 183.96 198.31 184.22
C 212.86 184.79 217.71 186.69 235.32 198.75
C 241.71 203.11 248.30 207.02 249.98 207.45
C 251.83 207.90 259.34 206.71 268.77 204.45
C 312.69 193.92 341.27 190.08 382.41 189.17
C 423.13 188.26 447.84 190.78 498.01 200.98
C 530.16 207.52 528.95 207.39 531.77 204.57
C 533.67 202.67 534.31 199.97 534.86 191.60
C 535.57 180.56 544.85 84.64 545.82 78.09
C 547.43 67.32 561.89 60.15 574.47 63.90
C 586.23 67.39 589.25 73.79 589.30 95.26
C 589.31 103.66 589.81 121.55 590.41 135.03
C 591.01 148.50 591.86 175.11 592.32 194.17
C 593.13 227.93 593.09 228.91 590.72 231.81
L 588.29 234.80
L 417.90 235.41
L 247.51 236.03
L 233.80 239.99
C 221.56 243.51 218.09 243.99 201.59 244.44
C 188.25 244.81 181.49 244.49 177.34 243.32"/>
<path fill="#ae3c2a" stroke="none" d="
M 156.38 186.36
C 149.73 183.34 150.58 182.39 158.47 184.09
C 162.36 184.93 164.61 186.04 164.61 187.10
C 164.61 189.38 162.63 189.20 156.38 186.36"/>
</g>
</svg>
