<?xml version="1.0" encoding="UTF-8" standalone="no"?>
<!DOCTYPE svg PUBLIC "-//W3C//DTD SVG 1.1//EN"
"http://www.w3.org/Graphics/SVG/1.1/DTD/svg11.dtd">
<svg width="600px" height="351px"
xmlns="http://www.w3.org/2000/svg" version="1.1">
<g transform="translate(0000, 0000) scale(1.0000, 1.0000)">
<path fill="#000000" stroke="none" d="
M 108.53 349.45
C 106.47 347.87 102.99 335.94 100.29 321.23
C 99.49 316.81 98.30 311.16 97.66 308.71
L 96.49 304.24
L 85.99 303.50
C 79.44 303.03 73.26 301.77 69.60 300.15
C 49.56 291.28 39.01 261.87 48.31 240.81
L 50.86 235.03
L 47.78 232.55
C 46.08 231.19 42.42 228.53 39.64 226.65
C 31.52 221.17 30.09 214.17 35.88 208.37
C 39.82 204.41 44.16 204.04 53.07 206.90
C 57.56 208.36 64.50 209.92 68.50 210.38
C 75.23 211.16 75.70 211.06 75.08 208.86
C 74.72 207.57 73.24 201.20 71.79 194.72
C 70.34 188.25 68.86 181.92 68.49 180.68
C 68.12 179.44 59.74 173.14 49.86 166.68
L 31.91 154.94
L 25.91 160.57
C 19.00 167.04 13.05 168.12 8.66 163.72
C 3.17 158.21 6.85 147.31 17.13 138.64
C 20.75 135.59 21.03 134.78 21.03 127.48
C 21.03 107.59 14.64 69.32 7.51 46.67
C 0.14 23.19 -0.68 19.24 1.03 15.47
C 3.49 10.05 28.14 -0.01 38.92 0.00
C 44.62 0.01 50.57 4.30 53.22 10.32
C 54.51 13.23 57.06 22.02 58.89 29.83
C 63.76 50.72 78.99 85.95 91.35 104.99
L 97.11 113.86
L 105.60 115.36
C 110.64 116.25 115.04 117.81 116.42 119.20
C 119.55 122.34 119.41 128.34 116.13 131.63
C 113.84 133.93 112.49 134.19 105.74 133.64
L 97.95 133.02
L 91.76 151.15
C 83.27 175.96 83.27 175.98 88.59 187.90
C 91.03 193.36 93.82 200.34 94.80 203.41
C 97.71 212.53 98.51 213.08 111.44 214.59
C 133.53 217.17 134.78 217.62 149.69 228.21
C 157.26 233.59 165.45 238.66 167.89 239.46
C 174.06 241.51 180.31 240.65 226.39 231.44
C 288.45 219.03 322.75 215.83 368.66 218.18
C 412.65 220.42 446.78 224.93 483.71 233.37
C 504.90 238.21 507.98 238.67 508.96 237.08
C 509.39 236.37 511.14 220.55 512.85 201.93
C 514.55 183.30 517.06 158.84 518.45 147.59
C 519.84 136.33 521.41 120.43 521.95 112.25
C 523.08 95.12 525.02 90.03 533.25 82.58
C 539.76 76.67 544.96 74.49 554.70 73.59
C 565.27 72.59 574.44 75.40 581.75 81.85
C 591.30 90.27 592.71 94.72 594.52 122.02
C 595.37 135.05 596.41 159.13 596.82 175.50
C 597.23 191.87 598.19 220.36 598.97 238.80
C 599.75 257.26 600.02 273.82 599.58 275.62
C 598.42 280.27 592.80 286.51 587.69 288.85
C 583.73 290.65 563.51 290.91 379.79 291.54
L 176.29 292.24
L 154.53 297.12
L 132.77 302.01
L 136.08 309.45
C 141.08 320.68 146.21 336.94 145.76 340.11
C 145.41 342.59 143.59 343.40 130.52 346.91
C 113.83 351.37 111.43 351.66 108.53 349.45
M 126.02 340.82
C 132.40 339.29 137.83 337.47 138.09 336.76
C 138.35 336.07 135.58 327.97 131.93 318.75
L 125.29 302.01
L 115.20 302.15
C 109.65 302.21 104.82 302.54 104.49 302.88
C 104.15 303.21 105.85 312.24 108.24 322.93
C 110.62 333.64 112.58 342.65 112.58 342.98
C 112.58 343.93 113.91 343.72 126.02 340.82
M 120.00 294.64
C 129.18 293.70 144.78 291.09 154.64 288.84
L 172.58 284.73
L 376.70 284.07
C 603.49 283.33 586.11 284.07 590.60 274.86
C 592.82 270.29 592.87 268.62 591.55 242.61
C 590.78 227.53 589.82 199.83 589.41 181.08
C 588.41 134.99 586.02 102.04 583.26 96.21
C 574.90 78.55 549.33 75.76 535.93 91.05
C 531.34 96.28 529.50 102.29 529.50 111.99
C 529.48 115.94 527.85 133.52 525.87 151.05
C 523.88 168.59 521.90 187.13 521.47 192.24
C 518.52 227.23 516.73 241.37 514.96 243.38
C 511.39 247.42 505.84 247.28 487.22 242.61
C 477.46 240.17 459.74 236.51 447.84 234.48
C 372.46 221.63 309.36 222.35 239.99 236.87
C 196.34 246.00 175.58 249.50 170.20 248.63
C 162.49 247.37 155.01 243.68 145.14 236.24
C 140.20 232.50 134.03 228.34 131.43 226.98
C 126.73 224.53 108.96 221.43 104.13 222.22
L 101.59 222.63
L 104.12 228.42
C 106.23 233.32 107.32 234.39 111.14 235.29
C 114.84 236.17 115.67 236.93 115.67 239.42
C 115.67 242.39 115.44 242.48 107.01 242.28
C 102.25 242.18 90.27 240.99 80.41 239.65
C 69.92 238.22 61.65 237.64 60.47 238.25
C 56.51 240.30 53.85 248.19 53.84 257.98
C 53.79 276.16 63.95 290.31 80.16 294.69
C 87.79 296.75 99.51 296.74 120.00 294.64
M 97.76 233.48
C 97.79 232.23 84.53 196.73 81.48 189.90
C 76.58 178.96 76.71 186.49 81.80 207.77
C 88.33 235.11 88.02 234.41 93.38 234.41
C 95.78 234.41 97.74 233.99 97.76 233.48
M 78.83 225.27
L 77.59 219.86
L 69.41 219.15
C 64.92 218.75 57.71 217.25 53.39 215.81
C 47.23 213.75 45.18 213.51 43.78 214.68
C 41.36 216.70 43.92 219.47 53.06 224.71
C 59.73 228.55 66.05 230.17 75.60 230.53
L 80.07 230.69
L 78.83 225.27
M 76.34 170.85
C 77.00 169.99 80.21 161.48 83.51 151.93
C 86.80 142.38 89.75 133.79 90.10 132.85
C 91.05 130.14 68.00 131.68 59.81 134.87
C 52.60 137.67 38.09 147.43 38.65 149.11
C 39.12 150.52 71.90 172.18 73.77 172.30
C 74.54 172.35 75.70 171.70 76.34 170.85
M 27.15 149.76
C 40.79 136.74 49.32 131.18 59.95 128.42
C 68.42 126.22 89.01 125.93 101.99 127.80
C 109.19 128.84 110.88 128.74 112.47 127.15
C 114.14 125.48 114.14 125.06 112.50 123.42
C 109.72 120.63 91.91 118.71 74.98 119.35
C 58.08 120.01 51.06 122.08 38.78 130.06
C 30.47 135.45 11.13 153.98 11.13 156.54
C 11.13 158.15 13.44 161.24 14.64 161.24
C 14.92 161.24 20.56 156.08 27.15 149.76
M 41.11 120.87
C 50.36 116.03 59.86 114.11 74.49 114.11
C 81.82 114.11 87.84 113.76 87.84 113.34
C 87.84 112.93 85.95 109.99 83.65 106.83
C 74.87 94.75 57.39 53.25 52.73 33.40
C 47.63 11.75 45.20 7.43 38.13 7.44
C 35.31 7.45 15.20 14.51 9.90 17.36
C 6.57 19.15 6.94 21.93 13.18 41.30
C 19.88 62.16 27.20 105.23 27.22 123.84
L 27.22 129.24
L 31.24 126.58
C 33.45 125.12 37.89 122.55 41.11 120.87"/>
<path fill="#ffbf53" stroke="none" d="
M 112.58 342.98
C 112.58 342.65 110.62 333.64 108.24 322.93
C 105.85 312.24 104.15 303.21 104.49 302.88
C 104.82 302.54 109.65 302.21 115.20 302.15
L 125.29 302.01
L 131.93 318.75
C 135.58 327.97 138.35 336.07 138.09 336.76
C 137.83 337.47 132.40 339.29 126.02 340.82
C 113.91 343.72 112.58 343.93 112.58 342.98"/>
<path fill="#ffbf53" stroke="none" d="
M 87.92 231.62
C 85.10 224.44 76.87 186.61 77.90 185.58
C 78.59 184.89 79.99 186.60 81.48 189.90
C 84.53 196.73 97.79 232.23 97.76 233.48
C 97.74 233.99 95.78 234.41 93.38 234.41
C 90.01 234.41 88.78 233.78 87.92 231.62"/>
<path fill="#ffbf53" stroke="none" d="
M 55.69 161.21
C 46.52 155.16 38.85 149.71 38.65 149.11
C 38.09 147.43 52.60 137.67 59.81 134.87
C 68.00 131.68 91.05 130.14 90.10 132.85
C 89.75 133.79 86.80 142.38 83.51 151.93
C 77.29 169.97 76.11 172.46 73.77 172.30
C 73.00 172.25 64.86 167.25 55.69 161.21"/>
<path fill="#ffbf53" stroke="none" d="
M 12.62 159.75
C 9.86 156.98 11.11 154.85 21.34 144.79
C 32.76 133.58 42.63 126.67 53.01 122.64
C 65.74 117.70 107.34 118.25 112.50 123.42
C 114.14 125.06 114.14 125.48 112.47 127.15
C 110.88 128.74 109.19 128.84 101.99 127.80
C 89.01 125.93 68.42 126.22 59.95 128.42
C 49.32 131.18 40.79 136.74 27.15 149.76
C 20.56 156.08 14.92 161.24 14.64 161.24
C 14.34 161.24 13.44 160.57 12.62 159.75"/>
<path fill="#ffbf53" stroke="none" d="
M 27.22 123.84
C 27.20 105.23 19.88 62.16 13.18 41.30
C 10.81 33.93 8.47 25.81 8.00 23.24
L 7.15 18.59
L 13.78 15.66
C 25.66 10.41 37.74 7.02 41.34 7.93
C 45.67 9.02 48.43 15.13 52.64 33.02
C 57.39 53.22 74.78 94.63 83.65 106.83
C 85.95 109.99 87.84 112.93 87.84 113.34
C 87.84 113.76 81.82 114.11 74.49 114.11
C 56.10 114.11 45.54 117.16 31.24 126.58
L 27.22 129.24
L 27.22 123.84"/>
<path fill="#ae3c2a" stroke="none" d="
M 80.16 294.69
C 63.95 290.31 53.79 276.16 53.84 257.98
C 53.85 248.19 56.51 240.30 60.47 238.25
C 61.65 237.64 69.92 238.22 80.41 239.65
C 90.27 240.99 102.25 242.18 107.01 242.28
C 115.44 242.48 115.67 242.39 115.67 239.42
C 115.67 236.93 114.84 236.17 111.14 235.29
C 107.32 234.39 106.23 233.32 104.12 228.42
L 101.59 222.63
L 104.13 222.22
C 108.96 221.43 126.73 224.53 131.43 226.98
C 134.03 228.34 140.20 232.50 145.14 236.24
C 155.01 243.68 162.49 247.37 170.20 248.63
C 175.58 249.50 196.34 246.00 239.99 236.87
C 309.36 222.35 372.46 221.63 447.84 234.48
C 459.74 236.51 477.46 240.17 487.22 242.61
C 505.84 247.28 511.39 247.42 514.96 243.38
C 516.73 241.37 518.52 227.23 521.47 192.24
C 521.90 187.13 523.88 168.59 525.87 151.05
C 527.85 133.52 529.48 115.94 529.50 111.99
C 529.50 102.29 531.34 96.28 535.93 91.05
C 549.28 75.82 574.92 78.61 583.26 96.21
C 586.02 102.04 588.41 134.99 589.41 181.08
C 589.82 199.83 590.78 227.53 591.55 242.61
C 592.87 268.62 592.82 270.29 590.60 274.86
C 586.11 284.07 603.49 283.33 376.70 284.07
L 172.58 284.73
L 154.64 288.84
C 125.86 295.41 92.56 298.04 80.16 294.69"/>
<path fill="#ae3c2a" stroke="none" d="
M 65.57 229.53
C 59.78 228.67 47.63 222.41 44.05 218.45
C 42.27 216.48 42.24 215.97 43.78 214.68
C 45.18 213.51 47.23 213.75 53.39 215.81
C 57.71 217.25 64.92 218.75 69.41 219.15
L 77.59 219.86
L 78.83 225.27
L 80.07 230.69
L 75.60 230.53
C 73.15 230.43 68.64 229.99 65.57 229.53"/>
</g>
</svg>
