<?xml version="1.0" encoding="UTF-8" standalone="no"?>
<!DOCTYPE svg PUBLIC "-//W3C//DTD SVG 1.1//EN"
"http://www.w3.org/Graphics/SVG/1.1/DTD/svg11.dtd">
<svg width="600px" height="196px"
xmlns="http://www.w3.org/2000/svg" version="1.1">
<g transform="translate(0000, 0000) scale(1.0000, 1.0000)">
<path fill="#000000" stroke="none" d="
M 23.26 193.29
C 18.08 190.38 13.12 182.33 13.12 176.83
C 13.12 175.11 14.37 171.21 15.90 168.19
L 18.69 162.68
L 14.45 159.92
C 8.98 156.36 5.30 147.96 6.47 141.72
C 6.92 139.30 8.82 135.62 10.69 133.52
L 14.09 129.71
L 9.84 127.30
C 3.03 123.43 0.60 119.20 0.63 111.31
C 0.68 102.72 3.73 97.19 10.47 93.45
L 15.45 90.69
L 12.39 86.06
C 6.82 77.64 7.43 67.45 13.97 59.68
C 20.12 52.35 17.40 52.60 91.49 52.50
C 150.21 52.44 158.55 52.21 154.08 50.82
C 151.24 49.92 146.80 47.73 144.23 45.94
C 132.68 37.92 121.86 12.17 126.43 3.61
C 128.65 -0.56 133.71 -0.42 146.89 4.18
C 153.69 6.55 165.41 10.15 172.96 12.17
C 186.68 15.84 186.68 15.84 201.76 14.46
C 210.05 13.70 225.35 11.72 235.75 10.07
C 290.11 1.42 310.43 -0.69 328.03 0.50
C 342.76 1.49 378.18 5.61 391.85 7.92
C 416.36 12.07 440.17 22.36 469.48 41.49
C 493.09 56.90 495.69 57.82 513.52 56.92
C 535.54 55.82 568.15 49.82 585.54 43.67
C 592.43 41.24 594.75 41.35 597.61 44.22
C 599.93 46.54 600.00 48.20 600.00 102.78
C 600.00 158.35 599.98 158.98 597.48 161.47
C 594.25 164.71 589.75 164.35 557.65 158.38
C 544.53 155.93 529.50 153.85 524.25 153.75
L 514.71 153.57
L 495.63 162.75
C 464.00 177.94 447.21 184.20 424.19 189.37
C 398.10 195.22 398.05 195.22 207.55 195.61
L 28.03 195.98
L 23.26 193.29
M 392.19 186.37
C 413.58 184.05 439.83 177.09 461.63 167.99
C 465.89 166.21 477.83 160.70 488.16 155.74
C 514.72 142.98 515.81 142.88 553.48 149.26
C 569.56 151.98 583.86 154.52 585.28 154.90
C 586.97 155.35 588.69 154.74 590.35 153.08
C 592.80 150.63 592.84 149.69 592.84 103.29
C 592.84 75.46 592.38 55.13 591.70 53.88
C 590.61 51.84 590.04 51.88 580.07 54.59
C 559.65 60.15 536.33 63.51 513.52 64.18
C 487.47 64.93 487.05 64.81 462.32 48.67
C 433.03 29.54 409.22 19.24 384.69 15.09
C 363.73 11.54 329.64 8.00 317.30 8.08
C 303.71 8.17 286.60 10.18 254.08 15.50
C 242.60 17.38 227.83 19.52 221.27 20.26
C 214.71 21.00 205.17 22.18 200.08 22.90
C 194.97 23.62 187.99 23.84 184.57 23.41
C 177.10 22.46 155.55 16.82 143.24 12.60
C 138.37 10.94 134.18 9.76 133.94 10.02
C 132.97 11.00 138.61 23.63 142.65 29.52
C 147.85 37.08 155.52 42.43 163.84 44.27
C 170.41 45.73 173.81 45.46 211.13 40.56
C 226.64 38.53 234.23 38.12 246.92 38.66
C 262.90 39.33 290.37 43.05 298.03 45.56
C 302.83 47.14 304.82 51.26 307.15 64.41
C 310.28 82.15 316.75 96.40 326.03 106.07
C 329.65 109.84 330.56 111.48 329.56 112.48
C 328.54 113.50 326.03 111.90 319.69 106.22
C 306.16 94.09 297.50 81.40 293.92 68.42
L 291.85 60.95
L 158.76 60.95
C 28.93 60.96 25.55 61.02 21.83 63.29
C 19.29 64.85 17.56 67.18 16.62 70.33
C 14.71 76.73 17.74 83.14 24.45 86.91
L 29.22 89.60
L 121.16 89.61
L 213.08 89.63
L 215.15 83.06
C 216.29 79.45 217.73 76.49 218.35 76.49
C 219.77 76.49 219.79 76.17 217.68 89.04
C 215.58 101.80 215.32 135.42 217.20 148.98
C 217.91 154.11 219.79 161.50 221.38 165.40
C 224.50 173.13 224.78 174.49 223.24 174.49
C 222.69 174.49 221.26 172.34 220.08 169.71
L 217.93 164.93
L 124.35 164.93
C 41.52 164.93 30.32 165.14 26.80 166.82
C 21.76 169.22 19.68 174.45 21.55 180.10
C 24.17 188.05 11.42 187.54 204.92 187.59
C 320.41 187.62 384.58 187.20 392.19 186.37
M 214.21 156.86
C 212.76 152.21 211.13 141.59 211.13 136.67
L 211.13 131.46
L 120.18 131.48
L 29.22 131.49
L 23.06 134.37
C 12.83 139.14 10.78 145.22 17.01 152.34
C 22.56 158.69 22.90 158.70 122.65 158.83
C 209.96 158.94 214.84 158.84 214.21 156.86
M 209.94 119.69
C 209.94 116.50 210.29 109.76 210.72 104.72
L 211.49 95.53
L 116.18 95.87
L 20.87 96.21
L 15.51 99.22
C 11.30 101.57 9.76 103.32 8.37 107.33
C 6.80 111.85 6.81 112.81 8.39 115.62
C 10.52 119.43 16.65 123.22 22.56 124.38
C 24.91 124.83 68.04 125.27 118.39 125.36
L 209.94 125.49
L 209.94 119.69
M 281.51 50.74
C 277.25 49.88 266.16 48.25 256.87 47.10
C 240.13 45.06 239.77 45.06 218.70 47.76
C 206.99 49.26 194.19 50.89 190.26 51.37
C 186.32 51.86 206.98 52.26 236.18 52.27
C 282.98 52.30 288.35 52.12 281.51 50.74"/>
<path fill="#ae3c2a" stroke="none" d="
M 26.04 185.81
C 21.86 183.53 19.80 177.42 21.54 172.42
C 24.24 164.68 20.74 164.93 124.35 164.93
L 217.93 164.93
L 220.08 169.71
C 221.26 172.34 222.69 174.49 223.24 174.49
C 224.78 174.49 224.50 173.13 221.38 165.40
C 219.79 161.50 217.91 154.11 217.20 148.98
C 215.32 135.42 215.58 101.80 217.68 89.04
C 219.79 76.17 219.77 76.49 218.35 76.49
C 217.73 76.49 216.29 79.45 215.15 83.06
L 213.08 89.63
L 121.16 89.61
L 29.22 89.60
L 24.45 86.91
C 17.74 83.14 14.71 76.73 16.62 70.33
C 17.56 67.18 19.29 64.85 21.83 63.29
C 25.55 61.02 28.93 60.96 158.76 60.95
L 291.85 60.95
L 293.92 68.42
C 297.50 81.40 306.16 94.09 319.69 106.22
C 326.03 111.90 328.54 113.50 329.56 112.48
C 330.56 111.48 329.65 109.84 326.03 106.07
C 316.75 96.40 310.28 82.15 307.15 64.41
C 304.82 51.26 302.83 47.14 298.03 45.56
C 290.37 43.05 262.90 39.33 246.92 38.66
C 234.23 38.12 226.64 38.53 211.13 40.56
C 173.81 45.46 170.41 45.73 163.84 44.27
C 155.52 42.43 147.85 37.08 142.65 29.52
C 138.61 23.63 132.97 11.00 133.94 10.02
C 134.18 9.76 138.37 10.94 143.24 12.60
C 155.55 16.82 177.10 22.46 184.57 23.41
C 187.99 23.84 194.97 23.62 200.08 22.90
C 205.17 22.18 214.71 21.00 221.27 20.26
C 227.83 19.52 242.60 17.38 254.08 15.50
C 286.19 10.24 303.60 8.21 317.30 8.10
C 329.64 8.01 363.75 11.54 384.69 15.09
C 409.22 19.24 433.03 29.54 462.32 48.67
C 487.05 64.81 487.47 64.93 513.52 64.18
C 536.33 63.51 559.65 60.15 580.07 54.59
C 590.04 51.88 590.61 51.84 591.70 53.88
C 592.38 55.13 592.84 75.46 592.84 103.29
C 592.84 149.69 592.80 150.63 590.35 153.08
C 588.69 154.74 586.97 155.35 585.28 154.90
C 583.86 154.52 569.56 151.98 553.48 149.26
C 515.81 142.88 514.72 142.98 488.16 155.74
C 477.83 160.70 465.89 166.21 461.63 167.99
C 439.83 177.09 413.58 184.05 392.19 186.37
C 384.58 187.20 320.41 187.62 204.92 187.59
C 53.80 187.55 28.78 187.30 26.04 185.81"/>
<path fill="#ae3c2a" stroke="none" d="
M 25.05 157.05
C 19.28 155.27 14.78 151.06 13.60 146.34
C 12.51 142.02 15.92 137.69 23.06 134.37
L 29.22 131.49
L 120.18 131.48
L 211.13 131.46
L 211.13 136.67
C 211.13 141.59 212.76 152.21 214.21 156.86
C 214.84 158.84 209.96 158.94 122.65 158.83
C 47.59 158.74 29.42 158.40 25.05 157.05"/>
<path fill="#ae3c2a" stroke="none" d="
M 22.56 124.38
C 16.65 123.22 10.52 119.43 8.39 115.62
C 6.81 112.81 6.80 111.85 8.37 107.33
C 9.76 103.32 11.30 101.57 15.51 99.22
L 20.87 96.21
L 116.18 95.87
L 211.49 95.53
L 210.72 104.72
C 210.29 109.76 209.94 116.50 209.94 119.69
L 209.94 125.49
L 118.39 125.36
C 68.04 125.27 24.91 124.83 22.56 124.38"/>
</g>
</svg>
