<?xml version="1.0" encoding="UTF-8" standalone="no"?>
<!DOCTYPE svg PUBLIC "-//W3C//DTD SVG 1.1//EN"
"http://www.w3.org/Graphics/SVG/1.1/DTD/svg11.dtd">
<svg width="600px" height="201px"
xmlns="http://www.w3.org/2000/svg" version="1.1">
<g transform="translate(0000, 0000) scale(1.0000, 1.0000)">
<path fill="#000000" stroke="none" d="
M 47.81 198.83
C 28.78 193.85 14.25 179.74 5.69 157.93
C -1.22 140.32 -1.98 112.85 3.96 95.86
C 11.55 74.15 25.88 60.99 48.63 54.84
C 57.02 52.58 62.12 52.26 98.88 51.75
L 139.79 51.17
L 134.46 44.93
C 128.21 37.62 123.01 26.88 122.20 19.66
C 121.71 15.33 122.09 14.07 124.70 11.46
C 127.75 8.41 128.01 8.38 146.06 8.38
C 156.12 8.38 171.33 7.85 179.88 7.20
C 267.00 0.63 333.33 -0.98 360.96 2.78
C 399.74 8.06 426.22 18.02 468.57 43.24
C 488.44 55.07 493.55 56.71 510.36 56.65
C 521.00 56.62 528.30 55.74 542.63 52.80
C 552.81 50.70 563.57 48.22 566.53 47.27
C 582.82 42.07 590.81 40.55 594.27 41.98
C 596.16 42.76 598.22 44.36 598.85 45.55
C 599.55 46.84 600.00 71.12 600.00 106.40
C 600.00 163.52 599.94 165.17 597.61 167.50
C 596.29 168.82 593.96 169.89 592.43 169.89
C 586.88 169.89 564.32 166.28 547.41 162.68
C 527.14 158.37 514.88 157.83 505.78 160.85
C 502.31 162.01 493.72 166.75 486.69 171.40
C 464.04 186.37 448.98 191.93 419.74 196.15
C 388.58 200.65 373.85 200.99 212.75 200.93
C 68.83 200.87 54.92 200.69 47.81 198.83
M 402.79 191.05
C 422.09 188.45 434.55 185.91 446.41 182.19
C 458.51 178.39 464.28 175.46 479.84 165.19
C 492.94 156.54 500.47 153.15 511.72 150.83
C 519.29 149.27 524.65 149.98 561.22 157.39
C 584.92 162.19 587.24 162.33 590.44 159.12
C 592.76 156.80 592.83 155.14 592.83 104.14
C 592.83 55.25 592.69 51.45 590.74 50.42
C 589.28 49.65 585.01 50.36 576.69 52.76
C 549.42 60.65 519.60 65.30 503.19 64.22
C 488.53 63.27 479.83 60.04 458.96 47.80
C 412.65 20.63 385.90 11.86 338.33 8.22
C 315.54 6.48 262.98 8.54 181.67 14.38
C 172.79 15.02 158.68 15.54 150.30 15.54
C 136.71 15.55 134.81 15.80 132.69 17.92
C 130.72 19.90 130.53 20.85 131.57 23.61
C 134.15 30.46 138.65 36.72 146.19 43.97
L 153.98 51.45
L 180.60 51.45
L 207.23 51.45
L 218.65 45.76
C 234.06 38.11 238.95 38.07 253.98 45.52
L 264.74 50.85
L 304.78 51.45
L 344.82 52.04
L 344.82 55.04
L 344.82 58.03
L 203.19 58.66
C 46.66 59.35 57.29 58.80 39.68 67.01
C 30.76 71.16 20.06 81.45 15.20 90.55
C -4.83 128.05 14.99 181.65 52.69 191.94
C 58.28 193.47 81.57 193.67 223.51 193.38
C 369.53 193.09 389.51 192.83 402.79 191.05
M 240.84 49.60
C 238.86 48.71 236.44 47.96 235.46 47.96
C 234.48 47.96 232.05 48.71 230.08 49.60
C 226.66 51.17 226.91 51.26 235.46 51.26
C 244.00 51.26 244.25 51.17 240.84 49.60"/>
<path fill="#ae3c2a" stroke="none" d="
M 52.69 191.94
C 20.67 183.21 0.22 142.47 9.54 105.99
C 15.48 82.72 29.59 68.69 54.38 61.39
C 60.99 59.45 72.54 59.24 203.19 58.66
L 344.82 58.03
L 344.82 55.04
L 344.82 52.04
L 304.78 51.45
L 264.74 50.85
L 253.98 45.52
C 238.95 38.07 234.06 38.11 218.65 45.76
L 207.23 51.45
L 180.60 51.45
L 153.98 51.45
L 146.19 43.97
C 138.65 36.72 134.15 30.46 131.57 23.61
C 130.53 20.85 130.72 19.90 132.69 17.92
C 134.81 15.80 136.71 15.55 150.30 15.54
C 158.68 15.54 172.79 15.02 181.67 14.38
C 262.22 8.60 315.74 6.50 338.33 8.22
C 385.89 11.84 412.65 20.63 458.96 47.80
C 479.83 60.04 488.53 63.27 503.19 64.22
C 519.60 65.30 549.42 60.65 576.69 52.76
C 585.01 50.36 589.28 49.65 590.74 50.42
C 592.69 51.45 592.83 55.25 592.83 104.14
C 592.83 155.14 592.76 156.80 590.44 159.12
C 587.24 162.33 584.92 162.19 561.22 157.39
C 524.65 149.98 519.29 149.27 511.72 150.83
C 500.47 153.15 492.94 156.54 479.84 165.19
C 464.28 175.46 458.51 178.39 446.41 182.19
C 434.55 185.91 422.09 188.45 402.79 191.05
C 389.51 192.83 369.53 193.09 223.51 193.38
C 81.57 193.67 58.28 193.47 52.69 191.94"/>
</g>
</svg>
