<?xml version="1.0" encoding="UTF-8" standalone="no"?>
<!DOCTYPE svg PUBLIC "-//W3C//DTD SVG 1.1//EN"
"http://www.w3.org/Graphics/SVG/1.1/DTD/svg11.dtd">
<svg width="600px" height="180px"
xmlns="http://www.w3.org/2000/svg" version="1.1">
<g transform="translate(0000, 0000) scale(1.0000, 1.0000)">
<path fill="#000000" stroke="none" d="
M 45.33 177.62
C 13.06 165.97 -3.47 127.61 1.01 74.77
C 4.61 32.17 15.64 12.61 41.41 3.08
C 48.10 0.61 48.80 0.60 245.82 0.27
L 443.51 -0.04
L 450.18 2.44
C 459.78 6.03 465.48 9.61 484.16 23.76
C 509.03 42.60 518.20 46.28 536.84 44.85
C 548.13 43.97 559.49 41.65 573.02 37.45
C 578.10 35.87 585.12 34.25 588.61 33.83
C 594.08 33.19 595.31 33.44 597.48 35.62
C 599.98 38.12 600.00 38.69 600.00 91.79
C 600.00 143.85 599.93 145.50 597.62 147.81
C 594.26 151.19 588.86 150.88 567.66 146.13
C 519.91 135.43 513.86 135.60 488.32 148.42
C 468.56 158.33 443.37 168.23 426.29 172.81
C 399.09 180.08 402.89 179.95 219.21 179.93
C 56.86 179.92 51.48 179.85 45.33 177.62
M 396.24 171.10
C 421.53 167.46 446.15 159.12 481.19 142.33
C 512.85 127.16 517.46 126.91 566.04 137.71
C 583.58 141.60 590.15 142.64 591.30 141.68
C 593.54 139.82 593.61 43.81 591.39 42.00
C 590.35 41.15 586.50 41.84 578.61 44.28
C 565.75 48.27 538.11 53.65 530.71 53.62
C 522.68 53.58 510.18 50.45 502.02 46.42
C 497.83 44.36 487.02 37.05 477.99 30.19
C 468.97 23.34 458.91 16.21 455.64 14.34
C 442.23 6.69 455.71 7.15 247.38 7.15
C 78.93 7.15 57.16 7.35 50.66 9.02
C 29.43 14.48 15.36 31.37 10.74 56.97
C 4.93 89.09 8.22 122.57 19.24 143.28
C 25.79 155.65 37.58 165.95 50.46 170.61
C 56.11 172.65 65.16 172.76 220.40 172.79
C 356.52 172.80 386.38 172.51 396.24 171.10"/>
<path fill="#ae3c2a" stroke="none" d="
M 50.46 170.61
C 37.58 165.95 25.79 155.65 19.24 143.28
C 8.22 122.57 4.93 89.09 10.74 56.97
C 15.41 31.12 29.77 14.05 51.10 9.01
C 57.85 7.41 82.42 7.19 247.81 7.16
C 455.68 7.15 442.23 6.69 455.64 14.34
C 458.91 16.21 468.97 23.34 477.99 30.19
C 487.02 37.05 497.83 44.36 502.02 46.42
C 510.18 50.45 522.68 53.58 530.71 53.62
C 538.11 53.65 565.75 48.27 578.61 44.28
C 586.50 41.84 590.35 41.15 591.39 42.00
C 593.61 43.81 593.54 139.82 591.30 141.68
C 590.15 142.64 583.58 141.60 566.04 137.71
C 517.46 126.91 512.85 127.16 481.19 142.33
C 457.07 153.89 436.31 162.00 419.80 166.33
C 394.68 172.91 397.78 172.80 220.40 172.79
C 65.16 172.76 56.11 172.65 50.46 170.61"/>
</g>
</svg>
