<?xml version="1.0" encoding="UTF-8" standalone="no"?>
<!DOCTYPE svg PUBLIC "-//W3C//DTD SVG 1.1//EN"
"http://www.w3.org/Graphics/SVG/1.1/DTD/svg11.dtd">
<svg width="600px" height="330px"
xmlns="http://www.w3.org/2000/svg" version="1.1">
<g transform="translate(0000, 0000) scale(1.0000, 1.0000)">
<path fill="#000000" stroke="none" d="
M 190.14 328.46
C 107.24 325.12 75.93 317.17 51.96 293.39
C 34.18 275.75 25.96 254.52 24.35 222.12
C 22.75 189.41 32.11 139.15 44.00 116.67
C 51.17 103.15 65.11 93.15 80.54 90.51
L 86.62 89.47
L 80.28 85.18
C 76.79 82.82 65.38 75.72 54.93 69.38
C 24.30 50.84 12.44 39.90 4.63 22.97
C -2.17 8.18 -0.86 1.73 9.21 0.58
C 13.46 0.10 16.52 0.87 22.03 3.85
C 44.79 16.12 50.34 18.31 67.61 21.77
C 101.87 28.64 125.49 29.11 211.97 24.67
C 274.65 21.45 303.92 20.84 317.77 22.47
C 348.87 26.09 379.23 39.46 403.86 60.34
C 407.93 63.79 417.51 74.01 425.17 83.05
C 441.30 102.10 454.20 114.50 462.20 118.57
C 484.82 130.14 532.59 131.31 567.79 121.16
C 584.87 116.23 593.18 115.87 597.18 119.87
C 599.93 122.62 600.00 124.57 600.00 199.55
C 600.00 274.53 599.93 276.48 597.18 279.23
C 593.54 282.88 586.55 282.88 568.31 279.22
C 560.56 277.65 545.32 275.97 534.44 275.48
C 505.86 274.20 497.13 276.41 448.59 297.23
C 414.79 311.72 388.38 318.87 348.59 324.27
C 307.83 329.82 256.89 331.16 190.14 328.46
M 302.82 320.10
C 357.62 316.29 398.30 307.61 435.90 291.67
C 464.07 279.72 479.65 273.63 490.14 270.46
C 507.59 265.17 549.07 265.65 577.25 271.46
C 592.59 274.62 591.55 279.84 591.55 199.55
C 591.55 117.04 593.42 123.81 572.17 129.79
C 536.27 139.87 479.03 138.52 456.56 127.04
C 446.70 122.00 436.83 112.98 420.63 94.15
C 411.77 83.85 402.08 73.16 399.10 70.36
C 378.07 50.68 347.28 36.00 317.70 31.58
C 305.89 29.80 297.34 29.71 262.48 30.98
C 239.79 31.82 211.86 33.07 200.41 33.79
C 125.86 38.42 87.14 36.67 47.96 26.89
C 41.41 25.27 34.44 22.87 32.46 21.56
C 30.49 20.27 25.20 17.12 20.72 14.58
C 10.37 8.72 8.96 10.82 15.69 22.04
C 23.00 34.27 38.07 47.13 61.52 61.23
C 73.00 68.14 85.52 75.98 89.34 78.66
C 103.39 88.56 99.04 88.07 177.46 88.85
L 248.59 89.55
L 248.59 93.08
L 248.59 96.60
L 166.90 97.31
C 87.06 98.00 85.04 98.08 77.73 101.09
C 70.06 104.23 61.79 109.84 57.37 114.89
C 44.01 130.15 30.61 189.10 32.93 222.27
C 36.79 277.16 66.37 305.90 128.44 315.08
C 163.27 320.23 260.52 323.03 302.82 320.10"/>
<path fill="#ae3c2a" stroke="none" d="
M 205.63 320.58
C 132.28 317.80 103.58 313.16 78.24 299.98
C 33.15 276.51 20.75 217.98 44.68 141.73
C 52.08 118.14 60.04 108.35 77.73 101.09
C 85.04 98.08 87.06 98.00 166.90 97.31
L 248.59 96.60
L 248.59 93.08
L 248.59 89.55
L 177.46 88.85
C 99.04 88.07 103.39 88.56 89.34 78.66
C 85.52 75.98 72.93 68.13 61.37 61.22
C 45.27 51.59 37.68 46.02 28.90 37.37
C 17.96 26.58 9.48 14.00 11.68 11.80
C 12.89 10.61 20.54 14.02 29.68 19.84
C 40.94 27.02 69.77 32.97 104.93 35.40
C 127.23 36.92 158.32 36.40 200.41 33.79
C 211.86 33.07 239.79 31.82 262.48 30.98
C 297.34 29.71 305.89 29.80 317.70 31.58
C 347.28 36.00 378.07 50.68 399.10 70.36
C 402.08 73.16 411.77 83.85 420.63 94.15
C 436.83 112.98 446.70 122.00 456.56 127.04
C 479.03 138.52 536.27 139.87 572.17 129.79
C 593.42 123.81 591.55 117.04 591.55 199.55
C 591.55 279.84 592.59 274.62 577.25 271.46
C 549.07 265.65 507.59 265.17 490.14 270.46
C 479.65 273.63 464.07 279.72 435.90 291.67
C 379.14 315.71 309.24 324.50 205.63 320.58"/>
</g>
</svg>
