<?xml version="1.0" encoding="UTF-8" standalone="no"?>
<!DOCTYPE svg PUBLIC "-//W3C//DTD SVG 1.1//EN"
"http://www.w3.org/Graphics/SVG/1.1/DTD/svg11.dtd">
<svg width="226px" height="300px"
xmlns="http://www.w3.org/2000/svg" version="1.1">
<g transform="translate(0000, 0000) scale(1.0000, 1.0000)">
<path fill="#000000" stroke="none" d="
M 5.33 299.57
C 2.60 298.48 1.97 292.88 3.55 283.92
C 4.76 277.09 5.65 268.35 9.68 224.19
C 14.16 175.04 14.36 171.86 14.39 150.00
C 14.41 120.78 12.74 107.60 5.26 78.06
C 0.49 59.23 -0.26 53.86 0.16 41.52
C 0.69 25.99 3.92 16.06 10.39 10.03
C 14.81 5.92 20.44 3.34 28.93 1.55
C 37.84 -0.34 39.14 -0.36 40.80 1.29
C 42.45 2.94 42.45 5.53 40.77 11.55
C 40.05 14.15 38.87 19.66 38.15 23.79
C 36.50 33.36 36.92 43.72 39.24 50.71
C 43.61 63.83 48.78 87.49 51.09 104.84
C 53.42 122.37 53.94 132.68 53.55 153.19
C 53.07 177.68 52.21 186.57 45.61 235.48
C 41.78 263.85 40.25 276.63 39.51 286.45
C 38.85 295.25 38.06 298.40 36.24 299.37
C 35.04 300.01 6.88 300.19 5.33 299.57
M 33.26 295.31
C 34.56 294.35 35.10 291.15 36.61 275.16
C 37.18 269.13 39.22 252.43 41.13 238.06
C 48.51 182.81 49.15 176.44 49.66 152.90
C 50.10 133.34 49.49 122.86 46.90 104.65
C 44.49 87.76 39.90 66.95 36.05 55.48
L 34.64 51.29
L 30.27 50.86
C 22.52 50.10 19.52 46.97 18.05 38.14
C 17.47 34.63 17.48 32.44 18.09 28.57
C 19.27 21.08 21.25 13.74 23.04 10.23
C 23.91 8.50 24.45 7.10 24.23 7.10
C 22.89 7.10 15.59 11.66 13.16 14.02
C 7.80 19.21 4.66 28.90 4.08 42.03
C 3.63 52.15 4.55 58.01 9.75 78.39
C 19.70 117.37 20.91 146.41 15.16 208.39
C 14.29 217.79 12.71 235.06 11.65 246.77
C 9.25 273.28 8.57 279.65 7.40 286.04
C 6.20 292.63 6.23 293.30 7.77 294.84
C 8.97 296.03 9.93 296.13 20.60 296.13
C 28.92 296.13 32.44 295.90 33.26 295.31
M 32.46 46.41
C 33.69 45.75 33.74 45.30 33.32 38.50
C 32.82 30.37 33.93 20.90 36.57 10.77
C 37.43 7.51 37.90 4.61 37.62 4.33
C 37.35 4.05 35.54 4.34 33.62 4.97
C 30.40 6.04 29.97 6.41 28.34 9.68
C 27.37 11.63 26.02 14.70 25.33 16.49
C 24.02 19.88 22.02 30.20 22.02 33.52
C 22.02 37.13 23.44 41.98 25.04 43.88
C 26.39 45.48 27.42 46.03 30.97 47.04
C 31.08 47.07 31.75 46.79 32.46 46.41"/>
<path fill="#000000" stroke="none" d="
M 91.46 299.57
C 88.73 298.48 88.09 292.88 89.67 283.92
C 90.89 277.09 91.78 268.35 95.81 224.19
C 100.29 175.04 100.49 171.86 100.51 150.00
C 100.54 120.78 98.86 107.60 91.38 78.06
C 86.62 59.23 85.87 53.86 86.29 41.52
C 86.82 25.99 90.04 16.06 96.52 10.03
C 100.83 6.02 106.46 3.41 114.76 1.58
C 123.46 -0.34 125.25 -0.38 126.92 1.29
C 128.58 2.94 128.57 5.53 126.90 11.55
C 126.17 14.15 124.99 19.66 124.28 23.79
C 122.62 33.36 123.04 43.72 125.37 50.71
C 129.73 63.83 134.91 87.49 137.21 104.84
C 139.54 122.37 140.07 132.68 139.67 153.19
C 139.20 177.68 138.34 186.57 131.73 235.48
C 127.91 263.85 126.38 276.63 125.64 286.45
C 124.98 295.25 124.18 298.40 122.36 299.37
C 121.17 300.01 93.01 300.19 91.46 299.57
M 119.38 295.31
C 120.69 294.35 121.22 291.15 122.73 275.16
C 123.31 269.13 125.34 252.43 127.26 238.06
C 134.64 182.81 135.28 176.44 135.79 152.90
C 136.22 133.34 135.62 122.86 133.02 104.65
C 130.61 87.76 126.03 66.95 122.18 55.48
L 120.77 51.29
L 116.40 50.86
C 108.64 50.10 105.64 46.97 104.18 38.14
C 103.60 34.63 103.60 32.44 104.22 28.57
C 105.40 21.08 107.37 13.74 109.17 10.23
C 110.04 8.50 110.57 7.10 110.35 7.10
C 109.02 7.10 101.72 11.66 99.28 14.02
C 93.92 19.21 90.78 28.90 90.21 42.03
C 89.76 52.15 90.67 58.01 95.87 78.39
C 105.82 117.37 107.04 146.41 101.29 208.39
C 100.42 217.79 98.84 235.06 97.78 246.77
C 95.38 273.28 94.69 279.65 93.53 286.04
C 92.32 292.63 92.36 293.30 93.90 294.84
C 95.09 296.03 96.05 296.13 106.73 296.13
C 115.05 296.13 118.57 295.90 119.38 295.31
M 118.59 46.41
C 119.81 45.75 119.86 45.30 119.44 38.50
C 118.94 30.37 120.05 20.90 122.70 10.77
C 123.56 7.51 124.02 4.61 123.74 4.33
C 123.47 4.05 121.66 4.34 119.74 4.97
C 116.52 6.04 116.10 6.41 114.47 9.68
C 113.50 11.63 112.15 14.70 111.45 16.49
C 110.15 19.88 108.14 30.20 108.14 33.52
C 108.14 37.13 109.56 41.98 111.17 43.88
C 112.52 45.48 113.54 46.03 117.09 47.04
C 117.20 47.07 117.88 46.79 118.59 46.41"/>
<path fill="#000000" stroke="none" d="
M 177.58 299.57
C 174.86 298.48 174.22 292.88 175.80 283.92
C 177.01 277.09 177.91 268.35 181.93 224.19
C 186.41 175.04 186.62 171.86 186.64 150.00
C 186.67 120.78 184.99 107.60 177.51 78.06
C 172.74 59.23 171.99 53.86 172.41 41.52
C 172.95 25.99 176.17 16.06 182.65 10.03
C 186.95 6.02 192.59 3.41 200.89 1.58
C 209.59 -0.34 211.37 -0.38 213.05 1.29
C 214.71 2.94 214.70 5.53 213.02 11.55
C 212.30 14.15 211.12 19.66 210.41 23.79
C 208.75 33.36 209.17 43.72 211.49 50.71
C 215.86 63.83 221.03 87.49 223.34 104.84
C 225.67 122.37 226.19 132.68 225.80 153.19
C 225.33 177.68 224.47 186.57 217.86 235.48
C 214.03 263.85 212.50 276.63 211.77 286.45
C 211.11 295.25 210.31 298.40 208.49 299.37
C 207.29 300.01 179.14 300.19 177.58 299.57
M 205.51 295.31
C 206.81 294.35 207.35 291.15 208.86 275.16
C 209.44 269.13 211.47 252.43 213.39 238.06
C 220.76 182.81 221.40 176.44 221.91 152.90
C 222.35 133.34 221.75 122.86 219.15 104.65
C 216.74 87.76 212.16 66.95 208.30 55.48
L 206.90 51.29
L 202.53 50.86
C 194.77 50.10 191.77 46.97 190.31 38.14
C 189.72 34.63 189.73 32.44 190.35 28.57
C 191.52 21.08 193.50 13.74 195.29 10.23
C 196.17 8.50 196.70 7.10 196.48 7.10
C 195.14 7.10 187.85 11.66 185.41 14.02
C 180.05 19.21 176.91 28.90 176.33 42.03
C 175.88 52.15 176.80 58.01 182.00 78.39
C 191.95 117.37 193.16 146.41 187.41 208.39
C 186.54 217.79 184.96 235.06 183.90 246.77
C 181.51 273.28 180.82 279.65 179.65 286.04
C 178.45 292.63 178.48 293.30 180.02 294.84
C 181.22 296.03 182.18 296.13 192.85 296.13
C 201.17 296.13 204.70 295.90 205.51 295.31
M 204.71 46.41
C 205.94 45.75 205.99 45.30 205.57 38.50
C 205.07 30.37 206.18 20.90 208.83 10.77
C 209.68 7.51 210.15 4.61 209.87 4.33
C 209.60 4.05 207.79 4.34 205.87 4.97
C 202.65 6.04 202.22 6.41 200.60 9.68
C 199.62 11.63 198.27 14.70 197.58 16.49
C 196.28 19.88 194.27 30.20 194.27 33.52
C 194.27 37.13 195.69 41.98 197.29 43.88
C 198.65 45.48 199.67 46.03 203.22 47.04
C 203.33 47.07 204.00 46.79 204.71 46.41"/>
<path fill="#ef907a" stroke="none" d="
M 28.71 46.39
C 24.79 45.26 21.99 39.80 22.03 33.35
C 22.04 30.74 23.75 21.02 24.70 18.12
C 26.25 13.39 29.78 6.50 30.97 5.87
C 32.75 4.92 37.52 3.93 37.84 4.45
C 37.99 4.68 37.42 7.54 36.57 10.79
C 33.93 20.92 32.82 30.37 33.32 38.50
C 33.74 45.30 33.69 45.75 32.46 46.41
C 31.75 46.79 31.08 47.07 30.97 47.04
C 30.85 47.01 29.83 46.72 28.71 46.39"/>
<path fill="#ef907a" stroke="none" d="
M 114.83 46.39
C 112.01 45.57 109.68 42.59 108.85 38.70
C 107.92 34.35 107.96 32.70 109.17 25.68
C 110.25 19.46 111.53 15.58 114.47 9.68
C 116.10 6.41 116.52 6.04 119.74 4.97
C 121.66 4.34 123.47 4.05 123.74 4.33
C 124.02 4.61 123.56 7.51 122.70 10.77
C 120.05 20.90 118.94 30.37 119.44 38.50
C 119.86 45.30 119.81 45.75 118.59 46.41
C 117.88 46.79 117.20 47.07 117.09 47.04
C 116.98 47.01 115.96 46.72 114.83 46.39"/>
<path fill="#ef907a" stroke="none" d="
M 200.96 46.39
C 198.14 45.57 195.81 42.59 194.98 38.70
C 194.04 34.35 194.08 32.70 195.30 25.68
C 196.37 19.46 197.66 15.58 200.60 9.68
C 202.22 6.41 202.65 6.04 205.87 4.97
C 207.79 4.34 209.60 4.05 209.87 4.33
C 210.15 4.61 209.68 7.51 208.83 10.77
C 206.18 20.90 205.07 30.37 205.57 38.50
C 205.99 45.30 205.94 45.75 204.71 46.41
C 204.00 46.79 203.33 47.07 203.22 47.04
C 203.10 47.01 202.09 46.72 200.96 46.39"/>
<path fill="#ae3c2a" stroke="none" d="
M 7.77 294.84
C 6.23 293.30 6.20 292.63 7.40 286.04
C 8.57 279.65 9.25 273.28 11.65 246.77
C 12.71 235.06 14.29 217.79 15.16 208.39
C 18.29 174.63 19.19 152.39 18.18 133.59
C 16.99 111.18 15.31 100.19 9.75 78.39
C 7.67 70.23 5.50 60.81 4.93 57.46
C 2.35 42.42 5.00 24.47 11.00 16.34
C 13.10 13.50 18.27 9.68 22.20 8.07
L 24.65 7.06
L 23.05 10.21
C 21.25 13.74 19.27 21.07 18.09 28.57
C 17.48 32.44 17.47 34.63 18.05 38.14
C 19.52 46.97 22.52 50.10 30.27 50.86
L 34.64 51.29
L 36.05 55.48
C 39.90 66.95 44.49 87.76 46.90 104.65
C 49.49 122.86 50.10 133.34 49.66 152.90
C 49.15 176.44 48.51 182.81 41.13 238.06
C 39.22 252.43 37.18 269.13 36.61 275.16
C 35.10 291.15 34.56 294.35 33.26 295.31
C 32.44 295.90 28.92 296.13 20.60 296.13
C 9.93 296.13 8.97 296.03 7.77 294.84"/>
<path fill="#ae3c2a" stroke="none" d="
M 93.90 294.84
C 92.36 293.30 92.32 292.63 93.53 286.04
C 94.69 279.65 95.38 273.28 97.78 246.77
C 98.84 235.06 100.42 217.79 101.29 208.39
C 104.42 174.63 105.32 152.39 104.31 133.59
C 103.11 111.17 101.43 100.17 95.87 78.39
C 90.67 58.01 89.76 52.15 90.21 42.03
C 90.78 28.90 93.92 19.21 99.28 14.02
C 101.72 11.66 109.02 7.10 110.35 7.10
C 110.57 7.10 110.04 8.50 109.17 10.23
C 107.37 13.74 105.40 21.08 104.22 28.57
C 103.60 32.44 103.60 34.63 104.18 38.14
C 105.64 46.97 108.64 50.10 116.40 50.86
L 120.77 51.29
L 122.18 55.48
C 126.03 66.95 130.61 87.76 133.02 104.65
C 135.62 122.86 136.22 133.34 135.79 152.90
C 135.28 176.44 134.64 182.81 127.26 238.06
C 125.34 252.43 123.31 269.13 122.73 275.16
C 121.22 291.15 120.69 294.35 119.38 295.31
C 118.57 295.90 115.05 296.13 106.73 296.13
C 96.05 296.13 95.09 296.03 93.90 294.84"/>
<path fill="#ae3c2a" stroke="none" d="
M 180.02 294.84
C 178.48 293.30 178.45 292.63 179.65 286.04
C 180.82 279.65 181.51 273.28 183.90 246.77
C 184.96 235.06 186.54 217.79 187.41 208.39
C 190.55 174.63 191.45 152.39 190.44 133.59
C 189.24 111.17 187.56 100.17 182.00 78.39
C 176.80 58.01 175.88 52.15 176.33 42.03
C 176.91 28.90 180.05 19.21 185.41 14.02
C 187.85 11.66 195.14 7.10 196.48 7.10
C 196.70 7.10 196.17 8.50 195.29 10.23
C 193.50 13.74 191.52 21.08 190.35 28.57
C 189.73 32.44 189.72 34.63 190.31 38.14
C 191.77 46.97 194.77 50.10 202.53 50.86
L 206.90 51.29
L 208.30 55.48
C 212.16 66.95 216.74 87.76 219.15 104.65
C 221.75 122.86 222.35 133.34 221.91 152.90
C 221.40 176.44 220.76 182.81 213.39 238.06
C 211.47 252.43 209.44 269.13 208.86 275.16
C 207.35 291.15 206.81 294.35 205.51 295.31
C 204.70 295.90 201.17 296.13 192.85 296.13
C 182.18 296.13 181.22 296.03 180.02 294.84"/>
</g>
</svg>
