<?xml version="1.0" encoding="UTF-8" standalone="no"?>
<!DOCTYPE svg PUBLIC "-//W3C//DTD SVG 1.1//EN"
"http://www.w3.org/Graphics/SVG/1.1/DTD/svg11.dtd">
<svg width="395px" height="600px"
xmlns="http://www.w3.org/2000/svg" version="1.1">
<g transform="translate(0000, 0000) scale(1.0000, 1.0000)">
<path fill="#000000" stroke="none" d="
M 177.71 597.52
C 174.75 594.56 174.54 598.66 180.79 536.18
C 184.62 497.88 185.34 486.23 185.44 461.03
C 185.55 428.46 184.90 422.31 178.44 396.02
C 170.77 364.78 170.32 356.17 175.48 339.44
C 178.81 328.66 184.41 323.07 195.17 319.75
C 205.15 316.68 209.39 316.65 212.42 319.68
C 215.35 322.62 215.35 323.13 212.49 337.38
C 209.78 350.83 210.17 355.62 215.83 377.53
C 223.89 408.73 224.96 418.10 224.86 456.86
C 224.80 488.27 224.45 494.61 221.55 515.90
C 216.19 555.14 212.44 586.00 212.43 590.76
C 212.40 598.72 209.86 600.00 193.92 600.00
C 181.60 600.00 179.95 599.75 177.71 597.52
M 202.21 591.24
C 204.04 589.91 205.07 584.40 208.38 558.14
C 210.57 540.81 213.56 517.78 215.02 506.96
C 217.19 490.90 217.69 481.56 217.72 456.26
C 217.74 422.46 217.00 415.92 209.73 385.44
C 206.65 372.52 205.47 369.32 203.50 368.55
C 202.18 368.04 199.31 366.95 197.14 366.14
C 189.70 363.36 186.88 352.03 190.33 338.77
C 191.44 334.51 192.89 330.35 193.57 329.52
C 194.28 328.68 194.33 328.03 193.69 328.03
C 191.60 328.03 186.29 334.58 183.55 340.56
C 181.16 345.75 180.80 348.38 180.83 360.83
C 180.86 373.20 181.38 377.01 184.67 388.87
C 191.65 414.05 192.64 422.90 192.62 459.84
C 192.60 489.21 192.06 498.85 188.14 539.64
C 185.70 565.17 183.42 586.49 183.10 587.02
C 182.76 587.55 183.59 589.07 184.92 590.41
C 187.82 593.31 198.68 593.82 202.21 591.24
M 203.31 353.92
C 202.69 349.40 204.12 335.99 206.03 328.33
C 207.38 322.99 203.90 325.73 200.75 332.50
C 196.63 341.40 196.13 354.64 199.82 357.35
C 203.45 360.01 204.06 359.42 203.31 353.92"/>
<path fill="#000000" stroke="none" d="
M 61.96 596.33
C 59.00 593.37 58.78 597.47 65.04 534.99
C 68.87 496.69 69.58 485.03 69.68 459.84
C 69.80 427.26 69.14 421.12 62.69 394.83
C 55.01 363.59 54.56 354.98 59.73 338.24
C 63.06 327.47 68.65 321.88 79.42 318.56
C 89.39 315.48 93.63 315.46 96.66 318.49
C 99.60 321.42 99.60 321.94 96.73 336.19
C 94.02 349.63 94.42 354.43 100.07 376.34
C 108.13 407.53 109.20 416.91 109.11 455.67
C 109.05 487.07 108.69 493.42 105.79 514.71
C 100.43 553.94 96.69 584.80 96.67 589.56
C 96.65 597.53 94.11 598.81 78.16 598.81
C 65.85 598.81 64.19 598.56 61.96 596.33
M 86.46 590.05
C 88.28 588.72 89.31 583.20 92.63 556.95
C 94.81 539.62 97.81 516.58 99.26 505.77
C 101.44 489.71 101.94 480.37 101.96 455.07
C 101.98 421.26 101.24 414.73 93.98 384.25
C 90.90 371.33 89.72 368.12 87.75 367.36
C 86.42 366.85 83.56 365.76 81.39 364.95
C 73.94 362.17 71.12 350.84 74.57 337.57
C 75.68 333.32 77.14 329.15 77.82 328.33
C 78.52 327.48 78.57 326.84 77.94 326.84
C 75.85 326.84 70.54 333.39 67.79 339.36
C 65.41 344.55 65.05 347.19 65.07 359.64
C 65.11 372.01 65.62 375.82 68.92 387.67
C 75.90 412.85 76.89 421.71 76.86 458.65
C 76.84 488.02 76.30 497.65 72.39 538.45
C 69.94 563.98 67.66 585.29 67.34 585.83
C 67.01 586.35 67.83 587.88 69.17 589.22
C 72.07 592.12 82.93 592.63 86.46 590.05
M 87.56 352.72
C 86.94 348.20 88.37 334.80 90.28 327.14
C 91.63 321.79 88.14 324.54 84.99 331.31
C 80.87 340.21 80.37 353.45 84.06 356.16
C 87.70 358.82 88.31 358.22 87.56 352.72"/>
<path fill="#000000" stroke="none" d="
M 289.89 596.33
C 286.93 593.37 286.72 597.47 292.97 534.99
C 296.80 496.69 297.51 485.03 297.61 459.84
C 297.73 427.26 297.07 421.12 290.62 394.83
C 282.94 363.59 282.49 354.98 287.66 338.24
C 290.99 327.47 296.58 321.88 307.35 318.56
C 317.32 315.48 321.56 315.46 324.59 318.49
C 327.53 321.42 327.53 321.94 324.66 336.19
C 321.95 349.63 322.35 354.43 328.01 376.34
C 336.06 407.53 337.13 416.91 337.04 455.67
C 336.98 487.07 336.62 493.42 333.72 514.71
C 328.36 553.94 324.62 584.80 324.60 589.56
C 324.58 597.53 322.04 598.81 306.10 598.81
C 293.78 598.81 292.12 598.56 289.89 596.33
M 314.39 590.05
C 316.21 588.72 317.24 583.20 320.56 556.95
C 322.74 539.62 325.74 516.58 327.19 505.77
C 329.37 489.71 329.87 480.37 329.89 455.07
C 329.91 421.26 329.17 414.73 321.91 384.25
C 318.83 371.33 317.65 368.12 315.68 367.36
C 314.35 366.85 311.49 365.76 309.32 364.95
C 301.87 362.17 299.05 350.84 302.50 337.57
C 303.61 333.32 305.07 329.15 305.75 328.33
C 306.45 327.48 306.50 326.84 305.87 326.84
C 303.78 326.84 298.47 333.39 295.72 339.36
C 293.34 344.55 292.98 347.19 293.00 359.64
C 293.04 372.01 293.55 375.82 296.85 387.67
C 303.83 412.85 304.82 421.71 304.79 458.65
C 304.77 488.02 304.23 497.65 300.32 538.45
C 297.87 563.98 295.59 585.29 295.27 585.83
C 294.94 586.35 295.76 587.88 297.10 589.22
C 300.00 592.12 310.86 592.63 314.39 590.05
M 315.49 352.72
C 314.87 348.20 316.30 334.80 318.21 327.14
C 319.56 321.79 316.07 324.54 312.92 331.31
C 308.80 340.21 308.30 353.45 311.99 356.16
C 315.63 358.82 316.24 358.22 315.49 352.72"/>
<path fill="#000000" stroke="none" d="
M 5.87 280.22
C 2.91 277.26 2.70 281.37 8.95 218.89
C 12.78 180.58 13.50 168.93 13.59 143.74
C 13.71 111.16 13.06 105.02 6.60 78.73
C -1.07 47.49 -1.53 38.87 3.64 22.14
C 7.69 9.04 16.15 2.67 32.38 0.47
C 37.02 -0.17 38.31 0.12 40.43 2.24
C 43.52 5.33 43.53 5.76 40.65 20.09
C 37.94 33.53 38.33 38.33 43.99 60.24
C 52.04 91.43 53.12 100.81 53.02 139.56
C 52.96 170.97 52.60 177.32 49.70 198.61
C 44.35 237.84 40.60 268.70 40.59 273.46
C 40.56 281.43 38.02 282.70 22.08 282.70
C 9.76 282.70 8.10 282.45 5.87 280.22
M 30.37 273.95
C 32.20 272.61 33.22 267.10 36.54 240.85
C 38.72 223.51 41.72 200.48 43.18 189.66
C 45.35 173.61 45.85 164.27 45.87 138.97
C 45.90 105.16 45.16 98.62 37.89 68.15
C 34.81 55.23 33.63 52.02 31.66 51.26
C 30.34 50.74 27.47 49.66 25.30 48.85
C 17.85 46.07 15.04 34.74 18.49 21.47
C 19.59 17.20 21.05 13.05 21.73 12.23
C 22.44 11.38 22.48 10.74 21.85 10.74
C 19.76 10.74 14.45 17.28 11.71 23.26
C 9.32 28.45 8.96 31.09 8.99 43.54
C 9.02 55.91 9.53 59.71 12.83 71.57
C 19.81 96.75 20.80 105.60 20.78 142.54
C 20.75 171.91 20.22 181.55 16.30 222.35
C 13.85 247.87 11.58 269.19 11.25 269.73
C 10.92 270.25 11.74 271.78 13.08 273.11
C 15.98 276.01 26.84 276.52 30.37 273.95
M 31.47 36.62
C 30.85 32.10 32.28 18.69 34.19 11.03
C 35.54 5.69 32.05 8.43 28.90 15.21
C 24.79 24.11 24.28 37.35 27.97 40.06
C 31.61 42.72 32.22 42.12 31.47 36.62"/>
<path fill="#000000" stroke="none" d="
M 119.24 280.22
C 116.28 277.26 116.07 281.37 122.32 218.89
C 126.15 180.58 126.87 168.93 126.96 143.74
C 127.08 111.16 126.42 105.02 119.97 78.73
C 112.29 47.49 111.84 38.87 117.01 22.14
C 120.34 11.37 125.93 5.77 136.70 2.46
C 146.68 -0.62 150.91 -0.64 153.94 2.39
C 156.88 5.32 156.88 5.83 154.01 20.09
C 151.31 33.53 151.70 38.33 157.36 60.24
C 165.41 91.43 166.48 100.81 166.39 139.56
C 166.33 170.97 165.97 177.32 163.07 198.61
C 157.71 237.84 153.97 268.70 153.95 273.46
C 153.93 281.43 151.39 282.70 135.45 282.70
C 123.13 282.70 121.47 282.45 119.24 280.22
M 143.74 273.95
C 145.57 272.61 146.59 267.10 149.91 240.85
C 152.09 223.51 155.09 200.48 156.54 189.66
C 158.72 173.61 159.22 164.27 159.24 138.97
C 159.26 105.16 158.53 98.62 151.26 68.15
C 148.18 55.23 147.00 52.02 145.03 51.26
C 143.70 50.74 140.84 49.66 138.67 48.85
C 131.22 46.07 128.40 34.74 131.85 21.47
C 132.96 17.20 134.42 13.05 135.10 12.23
C 135.80 11.38 135.85 10.74 135.22 10.74
C 133.13 10.74 127.82 17.28 125.08 23.26
C 122.69 28.45 122.33 31.09 122.35 43.54
C 122.39 55.91 122.90 59.71 126.20 71.57
C 133.18 96.75 134.17 105.60 134.14 142.54
C 134.12 171.91 133.58 181.55 129.67 222.35
C 127.22 247.87 124.94 269.19 124.62 269.73
C 124.29 270.25 125.11 271.78 126.45 273.11
C 129.35 276.01 140.21 276.52 143.74 273.95
M 144.84 36.62
C 144.22 32.10 145.65 18.69 147.56 11.03
C 148.91 5.69 145.42 8.43 142.27 15.21
C 138.15 24.11 137.65 37.35 141.34 40.06
C 144.98 42.72 145.59 42.12 144.84 36.62"/>
<path fill="#000000" stroke="none" d="
M 232.61 280.22
C 229.65 277.26 229.43 281.37 235.69 218.89
C 239.52 180.58 240.23 168.93 240.33 143.74
C 240.45 111.16 239.79 105.02 233.34 78.73
C 225.66 47.49 225.21 38.87 230.38 22.14
C 233.71 11.37 239.30 5.77 250.07 2.46
C 260.04 -0.62 264.28 -0.64 267.31 2.39
C 270.25 5.32 270.25 5.83 267.38 20.09
C 264.67 33.53 265.07 38.33 270.72 60.24
C 278.78 91.43 279.85 100.81 279.76 139.56
C 279.70 170.97 279.34 177.32 276.44 198.61
C 271.08 237.84 267.34 268.70 267.32 273.46
C 267.30 281.43 264.76 282.70 248.81 282.70
C 236.50 282.70 234.84 282.45 232.61 280.22
M 257.11 273.95
C 258.93 272.61 259.96 267.10 263.28 240.85
C 265.46 223.51 268.46 200.48 269.91 189.66
C 272.08 173.61 272.59 164.27 272.61 138.97
C 272.63 105.16 271.89 98.62 264.63 68.15
C 261.55 55.23 260.37 52.02 258.40 51.26
C 257.07 50.74 254.21 49.66 252.04 48.85
C 244.59 46.07 241.77 34.74 245.22 21.47
C 246.33 17.20 247.79 13.05 248.47 12.23
C 249.17 11.38 249.22 10.74 248.59 10.74
C 246.50 10.74 241.19 17.28 238.44 23.26
C 236.06 28.45 235.70 31.09 235.72 43.54
C 235.76 55.91 236.27 59.71 239.57 71.57
C 246.55 96.75 247.54 105.60 247.51 142.54
C 247.49 171.91 246.95 181.55 243.04 222.35
C 240.59 247.87 238.31 269.19 237.99 269.73
C 237.66 270.25 238.48 271.78 239.82 273.11
C 242.72 276.01 253.58 276.52 257.11 273.95
M 258.21 36.62
C 257.59 32.10 259.02 18.69 260.93 11.03
C 262.28 5.69 258.79 8.43 255.64 15.21
C 251.52 24.11 251.02 37.35 254.71 40.06
C 258.35 42.72 258.96 42.12 258.21 36.62"/>
<path fill="#000000" stroke="none" d="
M 347.17 280.22
C 344.21 277.26 344.00 281.37 350.25 218.89
C 354.08 180.58 354.80 168.93 354.89 143.74
C 355.01 111.16 354.35 105.02 347.90 78.73
C 340.23 47.49 339.77 38.87 344.94 22.14
C 348.27 11.37 353.87 5.77 364.63 2.46
C 374.61 -0.62 378.84 -0.64 381.87 2.39
C 384.81 5.32 384.81 5.83 381.94 20.09
C 379.24 33.53 379.63 38.33 385.29 60.24
C 393.34 91.43 394.42 100.81 394.32 139.56
C 394.26 170.97 393.90 177.32 391.00 198.61
C 385.64 237.84 381.90 268.70 381.89 273.46
C 381.86 281.43 379.32 282.70 363.38 282.70
C 351.06 282.70 349.40 282.45 347.17 280.22
M 371.67 273.95
C 373.50 272.61 374.52 267.10 377.84 240.85
C 380.02 223.51 383.02 200.48 384.47 189.66
C 386.65 173.61 387.15 164.27 387.17 138.97
C 387.20 105.16 386.46 98.62 379.19 68.15
C 376.11 55.23 374.93 52.02 372.96 51.26
C 371.63 50.74 368.77 49.66 366.60 48.85
C 359.15 46.07 356.34 34.74 359.78 21.47
C 360.89 17.20 362.35 13.05 363.03 12.23
C 363.73 11.38 363.78 10.74 363.15 10.74
C 361.06 10.74 355.75 17.28 353.01 23.26
C 350.62 28.45 350.26 31.09 350.29 43.54
C 350.32 55.91 350.83 59.71 354.13 71.57
C 361.11 96.75 362.10 105.60 362.08 142.54
C 362.05 171.91 361.51 181.55 357.60 222.35
C 355.15 247.87 352.87 269.19 352.55 269.73
C 352.22 270.25 353.04 271.78 354.38 273.11
C 357.28 276.01 368.14 276.52 371.67 273.95
M 372.77 36.62
C 372.15 32.10 373.58 18.69 375.49 11.03
C 376.84 5.69 373.35 8.43 370.20 15.21
C 366.09 24.11 365.58 37.35 369.27 40.06
C 372.91 42.72 373.52 42.12 372.77 36.62"/>
<path fill="#ef907a" stroke="none" d="
M 199.82 357.35
C 196.13 354.64 196.63 341.40 200.75 332.50
C 203.90 325.73 207.38 322.99 206.03 328.33
C 204.12 335.99 202.69 349.40 203.31 353.92
C 204.06 359.42 203.45 360.01 199.82 357.35"/>
<path fill="#ef907a" stroke="none" d="
M 84.06 356.16
C 80.37 353.45 80.87 340.21 84.99 331.31
C 88.14 324.54 91.63 321.79 90.28 327.14
C 88.37 334.80 86.94 348.20 87.56 352.72
C 88.31 358.22 87.70 358.82 84.06 356.16"/>
<path fill="#ef907a" stroke="none" d="
M 311.99 356.16
C 308.30 353.45 308.80 340.21 312.92 331.31
C 316.07 324.54 319.56 321.79 318.21 327.14
C 316.30 334.80 314.87 348.20 315.49 352.72
C 316.24 358.22 315.63 358.82 311.99 356.16"/>
<path fill="#ef907a" stroke="none" d="
M 27.97 40.06
C 24.54 37.54 24.83 24.23 28.52 15.89
C 31.37 9.41 35.48 5.90 34.20 11.02
C 32.28 18.69 30.85 32.10 31.47 36.62
C 32.22 42.12 31.61 42.72 27.97 40.06"/>
<path fill="#ef907a" stroke="none" d="
M 141.34 40.06
C 137.65 37.35 138.15 24.11 142.27 15.21
C 145.42 8.43 148.91 5.69 147.56 11.03
C 145.65 18.69 144.22 32.10 144.84 36.62
C 145.59 42.12 144.98 42.72 141.34 40.06"/>
<path fill="#ef907a" stroke="none" d="
M 254.71 40.06
C 251.02 37.35 251.52 24.11 255.64 15.21
C 258.79 8.43 262.28 5.69 260.93 11.03
C 259.02 18.69 257.59 32.10 258.21 36.62
C 258.96 42.12 258.35 42.72 254.71 40.06"/>
<path fill="#ef907a" stroke="none" d="
M 369.27 40.06
C 365.58 37.35 366.09 24.11 370.20 15.21
C 373.35 8.43 376.84 5.69 375.49 11.03
C 373.58 18.69 372.15 32.10 372.77 36.62
C 373.52 42.12 372.91 42.72 369.27 40.06"/>
<path fill="#ae3c2a" stroke="none" d="
M 184.92 590.41
C 183.59 589.07 182.76 587.55 183.10 587.02
C 183.42 586.49 185.70 565.17 188.14 539.64
C 192.06 498.85 192.60 489.21 192.62 459.84
C 192.64 422.90 191.65 414.05 184.67 388.87
C 181.38 377.01 180.86 373.20 180.83 360.83
C 180.80 348.38 181.16 345.75 183.55 340.56
C 186.29 334.58 191.60 328.03 193.69 328.03
C 194.33 328.03 194.28 328.68 193.57 329.52
C 192.89 330.35 191.44 334.51 190.33 338.77
C 186.88 352.03 189.70 363.36 197.14 366.14
C 199.31 366.95 202.18 368.04 203.50 368.55
C 205.47 369.32 206.65 372.52 209.73 385.44
C 217.00 415.92 217.74 422.46 217.72 456.26
C 217.69 481.56 217.19 490.90 215.02 506.96
C 213.56 517.78 210.57 540.81 208.38 558.14
C 203.87 593.77 204.28 592.84 193.69 592.84
C 188.91 592.84 186.76 592.25 184.92 590.41"/>
<path fill="#ae3c2a" stroke="none" d="
M 69.17 589.22
C 67.83 587.88 67.01 586.35 67.34 585.83
C 67.66 585.29 69.94 563.98 72.39 538.45
C 76.30 497.65 76.84 488.02 76.86 458.65
C 76.89 421.71 75.90 412.85 68.92 387.67
C 65.62 375.82 65.11 372.01 65.07 359.64
C 65.05 347.19 65.41 344.55 67.79 339.36
C 70.54 333.39 75.85 326.84 77.94 326.84
C 78.57 326.84 78.52 327.48 77.82 328.33
C 77.14 329.15 75.68 333.32 74.57 337.57
C 71.12 350.84 73.94 362.17 81.39 364.95
C 83.56 365.76 86.42 366.85 87.75 367.36
C 89.72 368.12 90.90 371.33 93.98 384.25
C 101.24 414.73 101.98 421.26 101.96 455.07
C 101.94 480.37 101.44 489.71 99.26 505.77
C 97.81 516.58 94.81 539.62 92.63 556.95
C 88.12 592.58 88.52 591.65 77.94 591.65
C 73.15 591.65 71.00 591.05 69.17 589.22"/>
<path fill="#ae3c2a" stroke="none" d="
M 297.10 589.22
C 295.76 587.88 294.94 586.35 295.27 585.83
C 295.59 585.29 297.87 563.98 300.32 538.45
C 304.23 497.65 304.77 488.02 304.79 458.65
C 304.82 421.71 303.83 412.85 296.85 387.67
C 293.55 375.82 293.04 372.01 293.00 359.64
C 292.98 347.19 293.34 344.55 295.72 339.36
C 298.47 333.39 303.78 326.84 305.87 326.84
C 306.50 326.84 306.45 327.48 305.75 328.33
C 305.07 329.15 303.61 333.32 302.50 337.57
C 299.05 350.84 301.87 362.17 309.32 364.95
C 311.49 365.76 314.35 366.85 315.68 367.36
C 317.65 368.12 318.83 371.33 321.91 384.25
C 329.17 414.73 329.91 421.26 329.89 455.07
C 329.87 480.37 329.37 489.71 327.19 505.77
C 325.74 516.58 322.74 539.62 320.56 556.95
C 316.05 592.58 316.45 591.65 305.87 591.65
C 301.08 591.65 298.94 591.05 297.10 589.22"/>
<path fill="#ae3c2a" stroke="none" d="
M 13.08 273.11
C 11.74 271.78 10.92 270.25 11.25 269.73
C 11.58 269.19 13.85 247.87 16.30 222.35
C 20.22 181.55 20.75 171.91 20.78 142.54
C 20.80 105.60 19.81 96.75 12.83 71.57
C 9.53 59.71 9.02 55.91 8.99 43.54
C 8.96 31.11 9.32 28.45 11.68 23.31
C 14.69 16.80 17.22 13.56 20.87 11.62
C 22.88 10.56 23.04 10.62 21.89 12.04
C 21.12 12.95 19.59 17.20 18.49 21.47
C 15.04 34.74 17.85 46.07 25.30 48.85
C 27.47 49.66 30.34 50.74 31.66 51.26
C 33.63 52.02 34.81 55.23 37.89 68.15
C 45.16 98.62 45.90 105.16 45.87 138.97
C 45.85 164.27 45.35 173.61 43.18 189.66
C 41.72 200.48 38.72 223.51 36.54 240.85
C 32.03 276.48 32.44 275.55 21.85 275.55
C 17.06 275.55 14.92 274.95 13.08 273.11"/>
<path fill="#ae3c2a" stroke="none" d="
M 126.45 273.11
C 125.11 271.78 124.29 270.25 124.62 269.73
C 124.94 269.19 127.22 247.87 129.67 222.35
C 133.58 181.55 134.12 171.91 134.14 142.54
C 134.17 105.60 133.18 96.75 126.20 71.57
C 122.90 59.71 122.39 55.91 122.35 43.54
C 122.33 31.09 122.69 28.45 125.08 23.26
C 127.82 17.28 133.13 10.74 135.22 10.74
C 135.85 10.74 135.80 11.38 135.10 12.23
C 134.42 13.05 132.96 17.20 131.85 21.47
C 128.40 34.74 131.22 46.07 138.67 48.85
C 140.84 49.66 143.70 50.74 145.03 51.26
C 147.00 52.02 148.18 55.23 151.26 68.15
C 158.53 98.62 159.26 105.16 159.24 138.97
C 159.22 164.27 158.72 173.61 156.54 189.66
C 155.09 200.48 152.09 223.51 149.91 240.85
C 145.40 276.48 145.80 275.55 135.22 275.55
C 130.43 275.55 128.29 274.95 126.45 273.11"/>
<path fill="#ae3c2a" stroke="none" d="
M 239.82 273.11
C 238.48 271.78 237.66 270.25 237.99 269.73
C 238.31 269.19 240.59 247.87 243.04 222.35
C 246.95 181.55 247.49 171.91 247.51 142.54
C 247.54 105.60 246.55 96.75 239.57 71.57
C 236.27 59.71 235.76 55.91 235.72 43.54
C 235.70 31.09 236.06 28.45 238.44 23.26
C 241.19 17.28 246.50 10.74 248.59 10.74
C 249.22 10.74 249.17 11.38 248.47 12.23
C 247.79 13.05 246.33 17.20 245.22 21.47
C 241.77 34.74 244.59 46.07 252.04 48.85
C 254.21 49.66 257.07 50.74 258.40 51.26
C 260.37 52.02 261.55 55.23 264.63 68.15
C 271.89 98.62 272.63 105.16 272.61 138.97
C 272.59 164.27 272.08 173.61 269.91 189.66
C 268.46 200.48 265.46 223.51 263.28 240.85
C 258.77 276.48 259.17 275.55 248.59 275.55
C 243.80 275.55 241.65 274.95 239.82 273.11"/>
<path fill="#ae3c2a" stroke="none" d="
M 354.38 273.11
C 353.04 271.78 352.22 270.25 352.55 269.73
C 352.87 269.19 355.15 247.87 357.60 222.35
C 361.51 181.55 362.05 171.91 362.08 142.54
C 362.10 105.60 361.11 96.75 354.13 71.57
C 350.83 59.71 350.32 55.91 350.29 43.54
C 350.26 31.09 350.62 28.45 353.01 23.26
C 355.75 17.28 361.06 10.74 363.15 10.74
C 363.78 10.74 363.73 11.38 363.03 12.23
C 362.35 13.05 360.89 17.20 359.78 21.47
C 356.34 34.74 359.15 46.07 366.60 48.85
C 368.77 49.66 371.63 50.74 372.96 51.26
C 374.93 52.02 376.11 55.23 379.19 68.15
C 386.46 98.62 387.20 105.16 387.17 138.97
C 387.15 164.27 386.65 173.61 384.47 189.66
C 383.02 200.48 380.02 223.51 377.84 240.85
C 373.33 276.48 373.73 275.55 363.15 275.55
C 358.36 275.55 356.22 274.95 354.38 273.11"/>
</g>
</svg>
