<?xml version="1.0" encoding="UTF-8" standalone="no"?>
<!DOCTYPE svg PUBLIC "-//W3C//DTD SVG 1.1//EN"
"http://www.w3.org/Graphics/SVG/1.1/DTD/svg11.dtd">
<svg width="229px" height="600px"
xmlns="http://www.w3.org/2000/svg" version="1.1">
<g transform="translate(0000, 0000) scale(1.0000, 1.0000)">
<path fill="#000000" stroke="none" d="
M 3.85 598.38
C 1.91 596.45 1.77 599.13 5.86 558.31
C 8.37 533.29 8.84 525.68 8.90 509.22
C 8.98 487.94 8.55 483.93 4.32 466.75
C -0.70 446.35 -1.00 440.72 2.38 429.79
C 4.56 422.75 8.23 419.10 15.28 416.93
C 21.81 414.92 24.59 414.90 26.57 416.88
C 28.50 418.80 28.50 419.14 26.62 428.45
C 24.85 437.23 25.10 440.36 28.81 454.68
C 34.08 475.05 34.79 481.18 34.73 506.49
C 34.69 527.01 34.45 531.16 32.55 545.06
C 29.04 570.69 26.59 590.85 26.58 593.96
C 26.57 599.17 24.90 600.00 14.46 600.00
C 6.39 600.00 5.31 599.84 3.85 598.38
M 19.89 594.28
C 21.09 593.41 21.76 589.81 23.93 572.66
C 25.36 561.34 27.32 546.30 28.28 539.22
C 29.70 528.73 30.03 522.63 30.04 506.10
C 30.06 484.02 29.57 479.75 24.81 459.84
C 22.80 451.40 22.02 449.31 20.74 448.81
C 19.87 448.47 17.99 447.76 16.57 447.23
C 11.69 445.42 9.85 438.02 12.11 429.35
C 12.83 426.56 13.79 423.85 14.23 423.31
C 14.69 422.76 14.72 422.34 14.31 422.34
C 12.94 422.34 9.46 426.62 7.67 430.52
C 6.10 433.91 5.87 435.63 5.89 443.77
C 5.91 451.85 6.24 454.33 8.40 462.08
C 12.97 478.53 13.62 484.31 13.61 508.44
C 13.59 527.63 13.24 533.92 10.68 560.57
C 9.07 577.25 7.58 591.17 7.37 591.52
C 7.15 591.86 7.69 592.86 8.57 593.74
C 10.47 595.63 17.58 595.96 19.89 594.28
M 20.61 439.25
C 20.20 436.29 21.14 427.54 22.39 422.53
C 23.28 419.04 20.99 420.83 18.93 425.26
C 16.23 431.07 15.90 439.72 18.32 441.49
C 20.70 443.23 21.10 442.84 20.61 439.25"/>
<path fill="#000000" stroke="none" d="
M 99.98 598.38
C 98.04 596.45 97.90 599.13 101.99 558.31
C 104.50 533.29 104.97 525.68 105.04 509.22
C 105.11 487.94 104.68 483.93 100.46 466.75
C 95.43 446.35 95.13 440.72 98.52 429.79
C 100.70 422.75 104.36 419.10 111.41 416.93
C 117.95 414.92 120.72 414.90 122.71 416.88
C 124.63 418.80 124.63 419.14 122.75 428.45
C 120.98 437.23 121.24 440.36 124.94 454.68
C 130.22 475.05 130.92 481.18 130.86 506.49
C 130.82 527.01 130.58 531.16 128.69 545.06
C 125.18 570.69 122.72 590.85 122.71 593.96
C 122.70 599.17 121.03 600.00 110.59 600.00
C 102.53 600.00 101.44 599.84 99.98 598.38
M 116.02 594.28
C 117.22 593.41 117.89 589.81 120.06 572.66
C 121.50 561.34 123.46 546.30 124.41 539.22
C 125.83 528.73 126.16 522.63 126.18 506.10
C 126.19 484.02 125.71 479.75 120.95 459.84
C 118.93 451.40 118.16 449.31 116.87 448.81
C 116.00 448.47 114.12 447.76 112.70 447.23
C 107.83 445.42 105.98 438.02 108.24 429.35
C 108.97 426.56 109.92 423.85 110.37 423.31
C 110.83 422.76 110.86 422.34 110.44 422.34
C 109.08 422.34 105.60 426.62 103.80 430.52
C 102.24 433.91 102.00 435.63 102.02 443.77
C 102.04 451.85 102.38 454.33 104.53 462.08
C 109.11 478.53 109.76 484.31 109.74 508.44
C 109.72 527.63 109.37 533.92 106.81 560.57
C 105.21 577.25 103.71 591.17 103.50 591.52
C 103.28 591.86 103.82 592.86 104.70 593.74
C 106.60 595.63 113.71 595.96 116.02 594.28
M 116.74 439.25
C 116.34 436.29 117.27 427.54 118.53 422.53
C 119.41 419.04 117.13 420.83 115.06 425.26
C 112.37 431.07 112.04 439.72 114.45 441.49
C 116.84 443.23 117.24 442.84 116.74 439.25"/>
<path fill="#000000" stroke="none" d="
M 197.67 598.38
C 195.74 596.45 195.60 599.13 199.69 558.31
C 202.20 533.29 202.67 525.68 202.73 509.22
C 202.81 487.94 202.38 483.93 198.15 466.75
C 193.13 446.35 192.83 440.72 196.21 429.79
C 198.39 422.75 202.06 419.10 209.11 416.93
C 215.64 414.92 218.42 414.90 220.40 416.88
C 222.33 418.80 222.33 419.14 220.45 428.45
C 218.68 437.23 218.93 440.36 222.64 454.68
C 227.91 475.05 228.62 481.18 228.55 506.49
C 228.52 527.01 228.28 531.16 226.38 545.06
C 222.87 570.69 220.42 590.85 220.41 593.96
C 220.39 599.17 218.73 600.00 208.29 600.00
C 200.22 600.00 199.14 599.84 197.67 598.38
M 213.72 594.28
C 214.92 593.41 215.59 589.81 217.76 572.66
C 219.19 561.34 221.15 546.30 222.11 539.22
C 223.53 528.73 223.86 522.63 223.87 506.10
C 223.89 484.02 223.40 479.75 218.64 459.84
C 216.63 451.40 215.85 449.31 214.56 448.81
C 213.70 448.47 211.82 447.76 210.40 447.23
C 205.52 445.42 203.68 438.02 205.94 429.35
C 206.66 426.56 207.62 423.85 208.06 423.31
C 208.52 422.76 208.55 422.34 208.14 422.34
C 206.77 422.34 203.29 426.62 201.50 430.52
C 199.93 433.91 199.70 435.63 199.71 443.77
C 199.74 451.85 200.07 454.33 202.23 462.08
C 206.80 478.53 207.45 484.31 207.44 508.44
C 207.42 527.63 207.07 533.92 204.51 560.57
C 202.90 577.25 201.41 591.17 201.20 591.52
C 200.98 591.86 201.52 592.86 202.40 593.74
C 204.29 595.63 211.41 595.96 213.72 594.28
M 214.44 439.25
C 214.03 436.29 214.97 427.54 216.22 422.53
C 217.10 419.04 214.82 420.83 212.76 425.26
C 210.06 431.07 209.73 439.72 212.15 441.49
C 214.53 443.23 214.93 442.84 214.44 439.25"/>
<path fill="#000000" stroke="none" d="
M 3.85 390.33
C 1.91 388.39 1.77 391.08 5.86 350.26
C 8.37 325.24 8.84 317.63 8.90 301.17
C 8.98 279.89 8.55 275.88 4.32 258.70
C -0.70 238.29 -1.00 232.67 2.38 221.74
C 4.56 214.70 8.23 211.04 15.28 208.88
C 21.81 206.87 24.59 206.85 26.57 208.83
C 28.50 210.75 28.50 211.08 26.62 220.39
C 24.85 229.18 25.10 232.31 28.81 246.62
C 34.08 267.00 34.79 273.12 34.73 298.44
C 34.69 318.96 34.45 323.10 32.55 337.01
C 29.04 362.64 26.59 382.80 26.58 385.91
C 26.57 391.11 24.90 391.95 14.46 391.95
C 6.39 391.95 5.31 391.78 3.85 390.33
M 19.89 386.23
C 21.09 385.36 21.76 381.76 23.93 364.61
C 25.36 353.28 27.32 338.24 28.28 331.17
C 29.70 320.68 30.03 314.58 30.04 298.05
C 30.06 275.97 29.57 271.70 24.81 251.79
C 22.80 243.35 22.02 241.25 20.74 240.76
C 19.87 240.42 17.99 239.71 16.57 239.18
C 11.69 237.37 9.85 229.96 12.11 221.30
C 12.83 218.52 13.79 215.80 14.23 215.26
C 14.69 214.71 14.72 214.29 14.31 214.29
C 12.94 214.29 9.46 218.56 7.67 222.47
C 6.10 225.86 5.87 227.58 5.89 235.71
C 5.91 243.79 6.24 246.28 8.40 254.03
C 12.97 270.48 13.62 276.26 13.61 300.39
C 13.59 319.57 13.24 325.87 10.68 352.52
C 9.07 369.19 7.58 383.12 7.37 383.47
C 7.15 383.81 7.69 384.81 8.57 385.68
C 10.47 387.58 17.58 387.91 19.89 386.23
M 20.61 231.19
C 20.20 228.24 21.14 219.48 22.39 214.48
C 23.28 210.99 20.99 212.78 18.93 217.21
C 16.23 223.02 15.90 231.67 18.32 233.44
C 20.70 235.18 21.10 234.79 20.61 231.19"/>
<path fill="#000000" stroke="none" d="
M 99.98 390.33
C 98.04 388.39 97.90 391.08 101.99 350.26
C 104.50 325.24 104.97 317.63 105.04 301.17
C 105.11 279.89 104.68 275.88 100.46 258.70
C 95.43 238.29 95.13 232.67 98.52 221.74
C 100.70 214.70 104.36 211.04 111.41 208.88
C 117.95 206.87 120.72 206.85 122.71 208.83
C 124.63 210.75 124.63 211.08 122.75 220.39
C 120.98 229.18 121.24 232.31 124.94 246.62
C 130.22 267.00 130.92 273.12 130.86 298.44
C 130.82 318.96 130.58 323.10 128.69 337.01
C 125.18 362.64 122.72 382.80 122.71 385.91
C 122.70 391.11 121.03 391.95 110.59 391.95
C 102.53 391.95 101.44 391.78 99.98 390.33
M 116.02 386.23
C 117.22 385.36 117.89 381.76 120.06 364.61
C 121.50 353.28 123.46 338.24 124.41 331.17
C 125.83 320.68 126.16 314.58 126.18 298.05
C 126.19 275.97 125.71 271.70 120.95 251.79
C 118.93 243.35 118.16 241.25 116.87 240.76
C 116.00 240.42 114.12 239.71 112.70 239.18
C 107.83 237.37 105.98 229.96 108.24 221.30
C 108.97 218.52 109.92 215.80 110.37 215.26
C 110.83 214.71 110.86 214.29 110.44 214.29
C 109.08 214.29 105.60 218.56 103.80 222.47
C 102.24 225.86 102.00 227.58 102.02 235.71
C 102.04 243.79 102.38 246.28 104.53 254.03
C 109.11 270.48 109.76 276.26 109.74 300.39
C 109.72 319.57 109.37 325.87 106.81 352.52
C 105.21 369.19 103.71 383.12 103.50 383.47
C 103.28 383.81 103.82 384.81 104.70 385.68
C 106.60 387.58 113.71 387.91 116.02 386.23
M 116.74 231.19
C 116.34 228.24 117.27 219.48 118.53 214.48
C 119.41 210.99 117.13 212.78 115.06 217.21
C 112.37 223.02 112.04 231.67 114.45 233.44
C 116.84 235.18 117.24 234.79 116.74 231.19"/>
<path fill="#000000" stroke="none" d="
M 197.67 390.33
C 195.74 388.39 195.60 391.08 199.69 350.26
C 202.20 325.24 202.67 317.63 202.73 301.17
C 202.81 279.89 202.38 275.88 198.15 258.70
C 193.13 238.29 192.83 232.67 196.21 221.74
C 198.39 214.70 202.06 211.04 209.11 208.88
C 215.64 206.87 218.42 206.85 220.40 208.83
C 222.33 210.75 222.33 211.08 220.45 220.39
C 218.68 229.18 218.93 232.31 222.64 246.62
C 227.91 267.00 228.62 273.12 228.55 298.44
C 228.52 318.96 228.28 323.10 226.38 337.01
C 222.87 362.64 220.42 382.80 220.41 385.91
C 220.39 391.11 218.73 391.95 208.29 391.95
C 200.22 391.95 199.14 391.78 197.67 390.33
M 213.72 386.23
C 214.92 385.36 215.59 381.76 217.76 364.61
C 219.19 353.28 221.15 338.24 222.11 331.17
C 223.53 320.68 223.86 314.58 223.87 298.05
C 223.89 275.97 223.40 271.70 218.64 251.79
C 216.63 243.35 215.85 241.25 214.56 240.76
C 213.70 240.42 211.82 239.71 210.40 239.18
C 205.52 237.37 203.68 229.96 205.94 221.30
C 206.66 218.52 207.62 215.80 208.06 215.26
C 208.52 214.71 208.55 214.29 208.14 214.29
C 206.77 214.29 203.29 218.56 201.50 222.47
C 199.93 225.86 199.70 227.58 199.71 235.71
C 199.74 243.79 200.07 246.28 202.23 254.03
C 206.80 270.48 207.45 276.26 207.44 300.39
C 207.42 319.57 207.07 325.87 204.51 352.52
C 202.90 369.19 201.41 383.12 201.20 383.47
C 200.98 383.81 201.52 384.81 202.40 385.68
C 204.29 387.58 211.41 387.91 213.72 386.23
M 214.44 231.19
C 214.03 228.24 214.97 219.48 216.22 214.48
C 217.10 210.99 214.82 212.78 212.76 217.21
C 210.06 223.02 209.73 231.67 212.15 233.44
C 214.53 235.18 214.93 234.79 214.44 231.19"/>
<path fill="#000000" stroke="none" d="
M 3.85 183.05
C 1.91 181.12 1.77 183.80 5.86 142.99
C 8.37 117.97 8.84 110.35 8.90 93.90
C 8.98 72.62 8.55 68.60 4.32 51.43
C -0.70 31.02 -1.00 25.39 2.38 14.46
C 5.03 5.91 10.57 1.75 21.20 0.30
C 24.24 -0.11 25.09 0.08 26.48 1.46
C 28.50 3.48 28.51 3.76 26.62 13.12
C 24.85 21.90 25.10 25.04 28.81 39.35
C 34.08 59.73 34.79 65.85 34.73 91.17
C 34.69 111.69 34.45 115.83 32.55 129.74
C 29.04 155.37 26.59 175.53 26.58 178.64
C 26.57 183.84 24.90 184.68 14.46 184.68
C 6.39 184.68 5.31 184.51 3.85 183.05
M 19.89 178.96
C 21.09 178.08 21.76 174.48 23.93 157.33
C 25.36 146.01 27.32 130.96 28.28 123.90
C 29.70 113.41 30.03 107.31 30.04 90.78
C 30.06 68.70 29.57 64.43 24.81 44.52
C 22.80 36.08 22.02 33.98 20.74 33.48
C 19.87 33.15 17.99 32.44 16.57 31.91
C 11.69 30.09 9.85 22.69 12.11 14.03
C 12.83 11.24 13.79 8.52 14.23 7.99
C 14.69 7.43 14.72 7.01 14.31 7.01
C 12.94 7.01 9.46 11.29 7.67 15.19
C 6.10 18.58 5.87 20.31 5.89 28.44
C 5.91 36.52 6.24 39.01 8.40 46.75
C 12.97 63.20 13.62 68.98 13.61 93.12
C 13.59 112.30 13.24 118.60 10.68 145.25
C 9.07 161.92 7.58 175.85 7.37 176.20
C 7.15 176.54 7.69 177.54 8.57 178.41
C 10.47 180.30 17.58 180.64 19.89 178.96
M 20.61 23.92
C 20.20 20.97 21.14 12.21 22.39 7.21
C 23.28 3.72 20.99 5.51 18.93 9.94
C 16.23 15.75 15.90 24.40 18.32 26.17
C 20.70 27.90 21.10 27.51 20.61 23.92"/>
<path fill="#000000" stroke="none" d="
M 99.98 183.05
C 98.04 181.12 97.90 183.80 101.99 142.99
C 104.50 117.97 104.97 110.35 105.04 93.90
C 105.11 72.62 104.68 68.60 100.46 51.43
C 95.43 31.02 95.13 25.39 98.52 14.46
C 100.70 7.43 104.36 3.77 111.41 1.61
C 117.95 -0.41 120.72 -0.42 122.71 1.56
C 124.63 3.48 124.63 3.81 122.75 13.12
C 120.98 21.90 121.24 25.04 124.94 39.35
C 130.22 59.73 130.92 65.85 130.86 91.17
C 130.82 111.69 130.58 115.83 128.69 129.74
C 125.18 155.37 122.72 175.53 122.71 178.64
C 122.70 183.84 121.03 184.68 110.59 184.68
C 102.53 184.68 101.44 184.51 99.98 183.05
M 116.02 178.96
C 117.22 178.08 117.89 174.48 120.06 157.33
C 121.50 146.01 123.46 130.96 124.41 123.90
C 125.83 113.41 126.16 107.31 126.18 90.78
C 126.19 68.70 125.71 64.43 120.95 44.52
C 118.93 36.08 118.16 33.98 116.87 33.48
C 116.00 33.15 114.12 32.44 112.70 31.91
C 107.83 30.09 105.98 22.69 108.24 14.03
C 108.97 11.24 109.92 8.52 110.37 7.99
C 110.83 7.43 110.86 7.01 110.44 7.01
C 109.08 7.01 105.60 11.29 103.80 15.19
C 102.24 18.58 102.00 20.31 102.02 28.44
C 102.04 36.52 102.38 39.01 104.53 46.75
C 109.11 63.20 109.76 68.98 109.74 93.12
C 109.72 112.30 109.37 118.60 106.81 145.25
C 105.21 161.92 103.71 175.85 103.50 176.20
C 103.28 176.54 103.82 177.54 104.70 178.41
C 106.60 180.30 113.71 180.64 116.02 178.96
M 116.74 23.92
C 116.34 20.97 117.27 12.21 118.53 7.21
C 119.41 3.72 117.13 5.51 115.06 9.94
C 112.37 15.75 112.04 24.40 114.45 26.17
C 116.84 27.90 117.24 27.51 116.74 23.92"/>
<path fill="#000000" stroke="none" d="
M 197.67 183.05
C 195.74 181.12 195.60 183.80 199.69 142.99
C 202.20 117.97 202.67 110.35 202.73 93.90
C 202.81 72.62 202.38 68.60 198.15 51.43
C 193.13 31.02 192.83 25.39 196.21 14.46
C 198.39 7.43 202.06 3.77 209.11 1.61
C 215.64 -0.41 218.42 -0.42 220.40 1.56
C 222.33 3.48 222.33 3.81 220.45 13.12
C 218.68 21.90 218.93 25.04 222.64 39.35
C 227.91 59.73 228.62 65.85 228.55 91.17
C 228.52 111.69 228.28 115.83 226.38 129.74
C 222.87 155.37 220.42 175.53 220.41 178.64
C 220.39 183.84 218.73 184.68 208.29 184.68
C 200.22 184.68 199.14 184.51 197.67 183.05
M 213.72 178.96
C 214.92 178.08 215.59 174.48 217.76 157.33
C 219.19 146.01 221.15 130.96 222.11 123.90
C 223.53 113.41 223.86 107.31 223.87 90.78
C 223.89 68.70 223.40 64.43 218.64 44.52
C 216.63 36.08 215.85 33.98 214.56 33.48
C 213.70 33.15 211.82 32.44 210.40 31.91
C 205.52 30.09 203.68 22.69 205.94 14.03
C 206.66 11.24 207.62 8.52 208.06 7.99
C 208.52 7.43 208.55 7.01 208.14 7.01
C 206.77 7.01 203.29 11.29 201.50 15.19
C 199.93 18.58 199.70 20.31 199.71 28.44
C 199.74 36.52 200.07 39.01 202.23 46.75
C 206.80 63.20 207.45 68.98 207.44 93.12
C 207.42 112.30 207.07 118.60 204.51 145.25
C 202.90 161.92 201.41 175.85 201.20 176.20
C 200.98 176.54 201.52 177.54 202.40 178.41
C 204.29 180.30 211.41 180.64 213.72 178.96
M 214.44 23.92
C 214.03 20.97 214.97 12.21 216.22 7.21
C 217.10 3.72 214.82 5.51 212.76 9.94
C 210.06 15.75 209.73 24.40 212.15 26.17
C 214.53 27.90 214.93 27.51 214.44 23.92"/>
<path fill="#ef907a" stroke="none" d="
M 18.32 441.49
C 15.90 439.72 16.23 431.07 18.93 425.26
C 20.99 420.83 23.28 419.04 22.39 422.53
C 21.14 427.54 20.20 436.29 20.61 439.25
C 21.10 442.84 20.70 443.23 18.32 441.49"/>
<path fill="#ef907a" stroke="none" d="
M 114.45 441.49
C 112.04 439.72 112.37 431.07 115.06 425.26
C 117.13 420.83 119.41 419.04 118.53 422.53
C 117.27 427.54 116.34 436.29 116.74 439.25
C 117.24 442.84 116.84 443.23 114.45 441.49"/>
<path fill="#ef907a" stroke="none" d="
M 212.15 441.49
C 209.73 439.72 210.06 431.07 212.76 425.26
C 214.82 420.83 217.10 419.04 216.22 422.53
C 214.97 427.54 214.03 436.29 214.44 439.25
C 214.93 442.84 214.53 443.23 212.15 441.49"/>
<path fill="#ef907a" stroke="none" d="
M 18.32 233.44
C 15.90 231.67 16.23 223.02 18.93 217.21
C 20.99 212.78 23.28 210.99 22.39 214.48
C 21.14 219.48 20.20 228.24 20.61 231.19
C 21.10 234.79 20.70 235.18 18.32 233.44"/>
<path fill="#ef907a" stroke="none" d="
M 114.45 233.44
C 112.04 231.67 112.37 223.02 115.06 217.21
C 117.13 212.78 119.41 210.99 118.53 214.48
C 117.27 219.48 116.34 228.24 116.74 231.19
C 117.24 234.79 116.84 235.18 114.45 233.44"/>
<path fill="#ef907a" stroke="none" d="
M 212.15 233.44
C 209.73 231.67 210.06 223.02 212.76 217.21
C 214.82 212.78 217.10 210.99 216.22 214.48
C 214.97 219.48 214.03 228.24 214.44 231.19
C 214.93 234.79 214.53 235.18 212.15 233.44"/>
<path fill="#ef907a" stroke="none" d="
M 18.32 26.17
C 16.07 24.52 16.26 15.83 18.68 10.38
C 20.55 6.15 23.24 3.86 22.40 7.20
C 21.14 12.21 20.20 20.97 20.61 23.92
C 21.10 27.51 20.70 27.90 18.32 26.17"/>
<path fill="#ef907a" stroke="none" d="
M 114.45 26.17
C 112.04 24.40 112.37 15.75 115.06 9.94
C 117.13 5.51 119.41 3.72 118.53 7.21
C 117.27 12.21 116.34 20.97 116.74 23.92
C 117.24 27.51 116.84 27.90 114.45 26.17"/>
<path fill="#ef907a" stroke="none" d="
M 212.15 26.17
C 209.73 24.40 210.06 15.75 212.76 9.94
C 214.82 5.51 217.10 3.72 216.22 7.21
C 214.97 12.21 214.03 20.97 214.44 23.92
C 214.93 27.51 214.53 27.90 212.15 26.17"/>
<path fill="#ae3c2a" stroke="none" d="
M 8.57 593.74
C 7.69 592.86 7.15 591.86 7.37 591.52
C 7.58 591.17 9.07 577.25 10.68 560.57
C 13.24 533.92 13.59 527.63 13.61 508.44
C 13.62 484.31 12.97 478.53 8.40 462.08
C 6.24 454.33 5.91 451.85 5.89 443.77
C 5.87 435.63 6.10 433.91 7.67 430.52
C 9.46 426.62 12.94 422.34 14.31 422.34
C 14.72 422.34 14.69 422.76 14.23 423.31
C 13.79 423.85 12.83 426.56 12.11 429.35
C 9.85 438.02 11.69 445.42 16.57 447.23
C 17.99 447.76 19.87 448.47 20.74 448.81
C 22.02 449.31 22.80 451.40 24.81 459.84
C 29.57 479.75 30.06 484.02 30.04 506.10
C 30.03 522.63 29.70 528.73 28.28 539.22
C 27.32 546.30 25.36 561.34 23.93 572.66
C 20.98 595.93 21.24 595.32 14.31 595.32
C 11.18 595.32 9.77 594.94 8.57 593.74"/>
<path fill="#ae3c2a" stroke="none" d="
M 104.70 593.74
C 103.82 592.86 103.28 591.86 103.50 591.52
C 103.71 591.17 105.21 577.25 106.81 560.57
C 109.37 533.92 109.72 527.63 109.74 508.44
C 109.76 484.31 109.11 478.53 104.53 462.08
C 102.38 454.33 102.04 451.85 102.02 443.77
C 102.00 435.63 102.24 433.91 103.80 430.52
C 105.60 426.62 109.08 422.34 110.44 422.34
C 110.86 422.34 110.83 422.76 110.37 423.31
C 109.92 423.85 108.97 426.56 108.24 429.35
C 105.98 438.02 107.83 445.42 112.70 447.23
C 114.12 447.76 116.00 448.47 116.87 448.81
C 118.16 449.31 118.93 451.40 120.95 459.84
C 125.71 479.75 126.19 484.02 126.18 506.10
C 126.16 522.63 125.83 528.73 124.41 539.22
C 123.46 546.30 121.50 561.34 120.06 572.66
C 117.11 595.93 117.38 595.32 110.44 595.32
C 107.31 595.32 105.90 594.94 104.70 593.74"/>
<path fill="#ae3c2a" stroke="none" d="
M 202.40 593.74
C 201.52 592.86 200.98 591.86 201.20 591.52
C 201.41 591.17 202.90 577.25 204.51 560.57
C 207.07 533.92 207.42 527.63 207.44 508.44
C 207.45 484.31 206.80 478.53 202.23 462.08
C 200.07 454.33 199.74 451.85 199.71 443.77
C 199.70 435.63 199.93 433.91 201.50 430.52
C 203.29 426.62 206.77 422.34 208.14 422.34
C 208.55 422.34 208.52 422.76 208.06 423.31
C 207.62 423.85 206.66 426.56 205.94 429.35
C 203.68 438.02 205.52 445.42 210.40 447.23
C 211.82 447.76 213.70 448.47 214.56 448.81
C 215.85 449.31 216.63 451.40 218.64 459.84
C 223.40 479.75 223.89 484.02 223.87 506.10
C 223.86 522.63 223.53 528.73 222.11 539.22
C 221.15 546.30 219.19 561.34 217.76 572.66
C 214.81 595.93 215.07 595.32 208.14 595.32
C 205.01 595.32 203.60 594.94 202.40 593.74"/>
<path fill="#ae3c2a" stroke="none" d="
M 8.57 385.68
C 7.69 384.81 7.15 383.81 7.37 383.47
C 7.58 383.12 9.07 369.19 10.68 352.52
C 13.24 325.87 13.59 319.57 13.61 300.39
C 13.62 276.26 12.97 270.48 8.40 254.03
C 6.24 246.28 5.91 243.79 5.89 235.71
C 5.87 227.58 6.10 225.86 7.67 222.47
C 9.46 218.56 12.94 214.29 14.31 214.29
C 14.72 214.29 14.69 214.71 14.23 215.26
C 13.79 215.80 12.83 218.52 12.11 221.30
C 9.85 229.96 11.69 237.37 16.57 239.18
C 17.99 239.71 19.87 240.42 20.74 240.76
C 22.02 241.25 22.80 243.35 24.81 251.79
C 29.57 271.70 30.06 275.97 30.04 298.05
C 30.03 314.58 29.70 320.68 28.28 331.17
C 27.32 338.24 25.36 353.28 23.93 364.61
C 20.98 387.88 21.24 387.27 14.31 387.27
C 11.18 387.27 9.77 386.88 8.57 385.68"/>
<path fill="#ae3c2a" stroke="none" d="
M 104.70 385.68
C 103.82 384.81 103.28 383.81 103.50 383.47
C 103.71 383.12 105.21 369.19 106.81 352.52
C 109.37 325.87 109.72 319.57 109.74 300.39
C 109.76 276.26 109.11 270.48 104.53 254.03
C 102.38 246.28 102.04 243.79 102.02 235.71
C 102.00 227.58 102.24 225.86 103.80 222.47
C 105.60 218.56 109.08 214.29 110.44 214.29
C 110.86 214.29 110.83 214.71 110.37 215.26
C 109.92 215.80 108.97 218.52 108.24 221.30
C 105.98 229.96 107.83 237.37 112.70 239.18
C 114.12 239.71 116.00 240.42 116.87 240.76
C 118.16 241.25 118.93 243.35 120.95 251.79
C 125.71 271.70 126.19 275.97 126.18 298.05
C 126.16 314.58 125.83 320.68 124.41 331.17
C 123.46 338.24 121.50 353.28 120.06 364.61
C 117.11 387.88 117.38 387.27 110.44 387.27
C 107.31 387.27 105.90 386.88 104.70 385.68"/>
<path fill="#ae3c2a" stroke="none" d="
M 202.40 385.68
C 201.52 384.81 200.98 383.81 201.20 383.47
C 201.41 383.12 202.90 369.19 204.51 352.52
C 207.07 325.87 207.42 319.57 207.44 300.39
C 207.45 276.26 206.80 270.48 202.23 254.03
C 200.07 246.28 199.74 243.79 199.71 235.71
C 199.70 227.58 199.93 225.86 201.50 222.47
C 203.29 218.56 206.77 214.29 208.14 214.29
C 208.55 214.29 208.52 214.71 208.06 215.26
C 207.62 215.80 206.66 218.52 205.94 221.30
C 203.68 229.96 205.52 237.37 210.40 239.18
C 211.82 239.71 213.70 240.42 214.56 240.76
C 215.85 241.25 216.63 243.35 218.64 251.79
C 223.40 271.70 223.89 275.97 223.87 298.05
C 223.86 314.58 223.53 320.68 222.11 331.17
C 221.15 338.24 219.19 353.28 217.76 364.61
C 214.81 387.88 215.07 387.27 208.14 387.27
C 205.01 387.27 203.60 386.88 202.40 385.68"/>
<path fill="#ae3c2a" stroke="none" d="
M 8.57 178.41
C 7.69 177.54 7.15 176.54 7.37 176.20
C 7.58 175.85 9.07 161.92 10.68 145.25
C 13.24 118.60 13.59 112.30 13.61 93.12
C 13.62 68.98 12.97 63.20 8.40 46.75
C 6.24 39.01 5.91 36.52 5.89 28.44
C 5.87 20.32 6.10 18.58 7.65 15.23
C 9.62 10.97 11.28 8.86 13.67 7.59
C 14.98 6.90 15.09 6.94 14.33 7.86
C 13.83 8.46 12.83 11.24 12.11 14.03
C 9.85 22.69 11.69 30.09 16.57 31.91
C 17.99 32.44 19.87 33.15 20.74 33.48
C 22.02 33.98 22.80 36.08 24.81 44.52
C 29.57 64.43 30.06 68.70 30.04 90.78
C 30.03 107.31 29.70 113.41 28.28 123.90
C 27.32 130.96 25.36 146.01 23.93 157.33
C 20.98 180.61 21.24 180.00 14.31 180.00
C 11.18 180.00 9.77 179.61 8.57 178.41"/>
<path fill="#ae3c2a" stroke="none" d="
M 104.70 178.41
C 103.82 177.54 103.28 176.54 103.50 176.20
C 103.71 175.85 105.21 161.92 106.81 145.25
C 109.37 118.60 109.72 112.30 109.74 93.12
C 109.76 68.98 109.11 63.20 104.53 46.75
C 102.38 39.01 102.04 36.52 102.02 28.44
C 102.00 20.31 102.24 18.58 103.80 15.19
C 105.60 11.29 109.08 7.01 110.44 7.01
C 110.86 7.01 110.83 7.43 110.37 7.99
C 109.92 8.52 108.97 11.24 108.24 14.03
C 105.98 22.69 107.83 30.09 112.70 31.91
C 114.12 32.44 116.00 33.15 116.87 33.48
C 118.16 33.98 118.93 36.08 120.95 44.52
C 125.71 64.43 126.19 68.70 126.18 90.78
C 126.16 107.31 125.83 113.41 124.41 123.90
C 123.46 130.96 121.50 146.01 120.06 157.33
C 117.11 180.61 117.38 180.00 110.44 180.00
C 107.31 180.00 105.90 179.61 104.70 178.41"/>
<path fill="#ae3c2a" stroke="none" d="
M 202.40 178.41
C 201.52 177.54 200.98 176.54 201.20 176.20
C 201.41 175.85 202.90 161.92 204.51 145.25
C 207.07 118.60 207.42 112.30 207.44 93.12
C 207.45 68.98 206.80 63.20 202.23 46.75
C 200.07 39.01 199.74 36.52 199.71 28.44
C 199.70 20.31 199.93 18.58 201.50 15.19
C 203.29 11.29 206.77 7.01 208.14 7.01
C 208.55 7.01 208.52 7.43 208.06 7.99
C 207.62 8.52 206.66 11.24 205.94 14.03
C 203.68 22.69 205.52 30.09 210.40 31.91
C 211.82 32.44 213.70 33.15 214.56 33.48
C 215.85 33.98 216.63 36.08 218.64 44.52
C 223.40 64.43 223.89 68.70 223.87 90.78
C 223.86 107.31 223.53 113.41 222.11 123.90
C 221.15 130.96 219.19 146.01 217.76 157.33
C 214.81 180.61 215.07 180.00 208.14 180.00
C 205.01 180.00 203.60 179.61 202.40 178.41"/>
</g>
</svg>
