<?xml version="1.0" encoding="UTF-8" standalone="no"?>
<!DOCTYPE svg PUBLIC "-//W3C//DTD SVG 1.1//EN"
"http://www.w3.org/Graphics/SVG/1.1/DTD/svg11.dtd">
<svg width="600px" height="477px"
xmlns="http://www.w3.org/2000/svg" version="1.1">
<g transform="translate(0000, 0000) scale(1.0000, 1.0000)">
<path fill="#000000" stroke="none" d="
M 9.01 474.53
C 2.47 471.69 0.00 467.41 0.00 458.93
C 0.02 450.39 5.43 441.87 12.79 438.79
C 16.07 437.42 26.52 435.15 36.00 433.77
C 84.61 426.61 133.44 398.16 156.41 363.57
C 165.85 349.36 173.22 333.44 182.64 307.01
C 217.22 209.95 243.80 150.37 282.29 83.73
C 314.57 27.82 332.05 5.50 346.48 1.66
C 365.02 -3.26 381.65 4.65 398.74 26.59
C 404.06 33.42 419.88 58.59 433.89 82.51
C 498.79 193.34 527.97 250.80 562.01 334.91
C 569.71 353.99 579.21 376.41 583.10 384.76
C 598.16 417.07 603.33 440.90 598.21 454.47
C 595.99 460.30 588.90 468.04 582.76 471.23
C 576.20 474.67 562.56 474.18 551.37 470.10
C 530.54 462.50 531.57 462.52 516.51 469.66
L 502.82 476.15
L 436.90 475.70
C 396.57 475.41 368.84 474.53 365.48 473.45
C 359.36 471.45 356.62 467.60 356.62 460.96
C 356.62 448.90 365.53 442.81 392.37 436.52
C 450.64 422.87 481.74 408.85 493.64 390.89
C 500.99 379.77 499.83 376.05 477.84 339.99
C 471.31 329.30 455.17 303.79 441.99 283.32
C 404.28 224.85 396.68 211.39 377.05 168.30
C 371.54 156.21 366.05 146.31 364.83 146.31
C 363.57 146.31 360.02 153.55 356.52 163.23
C 341.73 204.18 320.87 248.01 303.75 274.11
C 298.60 281.97 285.62 300.97 274.90 316.31
C 254.06 346.16 243.62 364.28 238.28 379.86
C 235.47 387.98 234.93 394.17 234.90 417.65
C 234.85 448.62 233.36 454.79 223.74 463.79
C 213.33 473.50 203.37 474.16 177.62 466.83
C 160.16 461.86 159.48 461.79 150.42 464.31
C 113.86 474.45 117.13 474.09 43.94 476.05
C 21.14 476.68 13.13 476.32 9.01 474.53
M 105.67 465.14
C 114.07 464.25 126.61 461.52 133.55 459.05
C 151.15 452.85 165.25 452.83 184.95 459.02
C 206.16 465.68 215.61 462.86 222.95 447.70
C 226.07 441.24 226.48 437.32 226.48 413.35
C 226.48 393.58 227.21 383.80 229.17 377.08
C 233.88 360.98 247.89 336.79 274.65 298.55
C 308.48 250.21 333.99 200.92 349.74 153.45
C 353.88 141.00 360.27 131.94 364.92 131.94
C 369.79 131.94 374.48 138.62 382.82 157.31
C 397.44 190.11 414.17 220.98 434.75 253.10
C 496.43 349.39 504.27 362.93 506.35 376.73
C 509.48 397.62 488.69 417.14 449.19 430.38
C 442.43 432.65 423.79 437.94 407.76 442.17
C 376.73 450.33 369.57 453.15 366.85 458.24
C 363.19 465.07 367.81 465.92 416.45 467.38
C 441.65 468.12 470.32 468.41 480.15 468.02
C 496.41 467.36 499.35 466.70 512.10 460.93
C 524.28 455.43 527.29 454.72 534.76 455.53
C 539.51 456.04 548.11 458.43 553.91 460.81
C 559.71 463.20 566.62 465.16 569.29 465.16
C 579.68 465.16 591.55 451.97 591.55 440.41
C 591.55 432.18 585.45 414.18 573.82 388.20
C 567.99 375.17 558.86 353.50 553.54 340.04
C 533.78 290.12 501.50 222.58 471.25 167.81
C 449.68 128.79 406.06 54.55 396.69 40.93
C 386.30 25.83 374.28 14.75 364.04 10.83
C 356.37 7.90 356.30 7.92 347.22 12.36
C 340.06 15.88 336.12 19.52 328.78 29.47
C 308.26 57.24 279.26 107.02 255.40 155.46
C 230.89 205.19 217.76 237.21 191.12 312.08
C 177.03 351.69 162.17 377.76 144.66 393.63
C 126.02 410.52 93.19 428.83 68.25 436.25
C 61.86 438.15 49.06 440.89 39.84 442.34
C 20.87 445.30 16.07 447.20 11.39 453.54
C 8.69 457.19 8.45 458.61 10.07 461.66
C 11.17 463.69 13.64 465.94 15.58 466.65
C 20.13 468.34 85.83 467.24 105.67 465.14"/>
<path fill="#ae3c2a" stroke="none" d="
M 15.58 466.65
C 13.64 465.94 11.17 463.69 10.07 461.66
C 8.45 458.61 8.69 457.19 11.39 453.54
C 16.07 447.20 20.87 445.30 39.84 442.34
C 70.72 437.50 95.80 427.81 122.10 410.58
C 156.14 388.26 172.12 365.46 191.12 312.08
C 217.76 237.21 230.89 205.19 255.40 155.46
C 279.30 106.95 308.26 57.24 328.87 29.35
C 336.57 18.91 339.95 15.85 347.58 12.35
C 356.69 8.17 357.01 8.15 364.31 10.93
C 374.30 14.75 386.38 25.95 396.69 40.93
C 406.06 54.55 449.68 128.79 471.25 167.81
C 501.50 222.58 533.78 290.12 553.54 340.04
C 558.86 353.50 567.99 375.17 573.82 388.20
C 585.45 414.18 591.55 432.18 591.55 440.41
C 591.55 451.97 579.68 465.16 569.29 465.16
C 566.62 465.16 559.71 463.20 553.91 460.81
C 548.11 458.43 539.51 456.04 534.76 455.53
C 527.29 454.72 524.28 455.43 512.10 460.93
C 499.35 466.70 496.41 467.36 480.15 468.02
C 470.32 468.41 441.65 468.12 416.45 467.38
C 367.81 465.92 363.19 465.07 366.85 458.24
C 369.57 453.15 376.73 450.33 407.76 442.17
C 423.79 437.94 442.43 432.65 449.19 430.38
C 488.69 417.14 509.48 397.62 506.35 376.73
C 504.27 362.93 496.43 349.39 434.75 253.10
C 414.17 220.98 397.44 190.11 382.82 157.31
C 374.48 138.62 369.79 131.94 364.92 131.94
C 360.27 131.94 353.88 141.00 349.74 153.45
C 333.99 200.92 308.48 250.21 274.65 298.55
C 247.89 336.79 233.88 360.98 229.17 377.08
C 227.21 383.80 226.48 393.58 226.48 413.35
C 226.48 437.32 226.07 441.24 222.95 447.70
C 215.61 462.86 206.16 465.68 184.95 459.02
C 165.25 452.83 151.15 452.85 133.55 459.05
C 126.61 461.52 114.07 464.25 105.67 465.14
C 85.83 467.24 20.13 468.34 15.58 466.65"/>
</g>
</svg>
