<?xml version="1.0" encoding="UTF-8" standalone="no"?>
<!DOCTYPE svg PUBLIC "-//W3C//DTD SVG 1.1//EN"
"http://www.w3.org/Graphics/SVG/1.1/DTD/svg11.dtd">
<svg width="435px" height="600px"
xmlns="http://www.w3.org/2000/svg" version="1.1">
<g transform="translate(0000, 0000) scale(1.0000, 1.0000)">
<path fill="#000000" stroke="none" d="
M 18.02 598.56
C 4.39 594.90 0.00 590.56 0.00 580.74
C 0.00 567.84 7.71 561.35 25.88 558.95
C 31.12 558.26 39.79 557.11 45.17 556.41
C 65.07 553.76 99.74 541.79 130.74 526.83
C 160.04 512.71 165.06 507.62 169.14 487.89
C 171.72 475.40 171.71 459.06 169.11 429.10
C 165.79 390.91 167.32 349.25 175.07 267.40
C 177.62 240.49 178.89 219.57 178.90 204.45
C 178.90 191.99 179.50 178.03 180.22 173.45
C 181.89 162.76 188.80 148.60 196.59 139.94
C 199.95 136.21 223.55 115.80 249.03 94.60
C 304.27 48.64 327.74 28.60 341.94 15.31
C 352.05 5.85 361.23 0.00 365.98 0.00
C 372.04 0.00 376.67 4.47 414.41 46.77
C 435.51 70.42 438.05 75.44 432.45 82.55
C 427.39 88.96 338.49 160.47 310.16 180.91
C 283.99 199.80 274.82 208.55 270.02 219.21
C 266.01 228.14 265.56 248.99 268.48 289.23
C 272.79 348.44 271.31 384.98 261.76 455.46
C 253.65 515.27 254.08 509.36 256.51 529.64
C 257.72 539.72 258.70 553.22 258.70 559.64
C 258.68 570.15 258.27 572.13 254.66 579.37
C 251.64 585.39 249.19 588.33 244.93 591.03
C 231.34 599.64 216.69 599.47 193.69 590.45
C 170.04 581.18 169.98 581.18 144.41 592.23
C 129.83 598.54 114.94 599.96 64.99 599.86
C 41.63 599.81 20.50 599.23 18.02 598.56
M 116.56 590.53
C 126.19 589.26 132.31 587.58 140.37 583.99
C 146.34 581.33 155.13 577.95 159.91 576.48
C 167.73 574.06 169.35 573.94 176.36 575.40
C 180.63 576.27 190.74 579.57 198.83 582.73
C 216.56 589.66 222.57 590.63 230.28 587.86
C 248.67 581.27 253.41 568.36 249.15 536.45
C 246.23 514.56 246.55 505.68 251.54 470.24
C 260.73 405.02 264.64 358.82 263.16 332.76
C 262.71 324.64 261.51 306.42 260.52 292.29
C 258.34 261.48 258.17 233.24 260.09 222.87
C 262.97 207.33 270.92 197.70 295.99 179.47
C 318.06 163.41 341.50 145.17 376.26 116.99
C 392.44 103.88 410.24 89.47 415.84 84.98
C 421.42 80.48 425.99 76.27 425.99 75.62
C 425.99 74.98 422.66 70.83 418.59 66.41
C 414.52 61.99 404.14 50.30 395.53 40.43
C 386.92 30.57 376.67 19.36 372.76 15.53
L 365.66 8.60
L 362.04 10.93
C 360.06 12.23 354.65 16.86 350.06 21.21
C 339.17 31.52 306.93 59.01 254.18 102.98
C 230.82 122.44 208.44 141.82 204.46 146.02
C 189.96 161.32 186.66 172.75 186.64 207.89
C 186.63 223.27 185.51 242.66 183.41 263.78
C 175.43 344.52 173.61 389.45 176.83 426.53
C 181.64 482.04 177.82 507.48 162.84 519.74
C 157.11 524.42 132.82 536.90 115.83 543.88
C 87.19 555.65 61.66 562.87 40.19 565.27
C 24.75 566.99 15.37 569.51 12.60 572.69
C 4.66 581.78 7.82 587.14 23.17 590.52
C 33.26 592.74 99.75 592.74 116.56 590.53"/>
<path fill="#ae3c2a" stroke="none" d="
M 23.17 590.52
C 7.82 587.14 4.66 581.78 12.60 572.69
C 15.37 569.51 24.75 566.99 40.19 565.27
C 61.66 562.87 87.19 555.65 115.83 543.88
C 132.82 536.90 157.11 524.42 162.84 519.74
C 177.82 507.48 181.64 482.04 176.83 426.53
C 173.61 389.45 175.43 344.52 183.41 263.78
C 185.51 242.66 186.63 223.27 186.64 207.89
C 186.66 172.75 189.96 161.32 204.46 146.02
C 208.44 141.82 230.82 122.44 254.18 102.98
C 305.80 59.96 338.40 32.15 351.59 19.85
C 357.03 14.76 362.66 10.32 364.09 9.94
C 367.03 9.17 379.14 21.15 400.17 45.61
C 406.85 53.38 415.40 63.02 419.16 67.04
C 422.92 71.05 425.99 74.88 425.99 75.56
C 425.99 76.24 421.42 80.48 415.84 84.98
C 410.24 89.47 392.44 103.88 376.26 116.99
C 341.50 145.17 318.06 163.41 295.99 179.47
C 270.92 197.70 262.97 207.33 260.09 222.87
C 258.17 233.24 258.34 261.48 260.52 292.29
C 261.51 306.42 262.71 324.64 263.16 332.76
C 264.64 358.82 260.73 405.02 251.54 470.24
C 246.55 505.68 246.23 514.56 249.15 536.45
C 253.41 568.36 248.67 581.27 230.28 587.86
C 222.57 590.63 216.56 589.66 198.83 582.73
C 190.74 579.57 180.63 576.27 176.36 575.40
C 169.35 573.94 167.73 574.06 159.91 576.48
C 155.13 577.95 146.34 581.33 140.37 583.99
C 132.31 587.58 126.19 589.26 116.56 590.53
C 99.75 592.74 33.26 592.74 23.17 590.52"/>
</g>
</svg>
