<?xml version="1.0" encoding="UTF-8" standalone="no"?>
<!DOCTYPE svg PUBLIC "-//W3C//DTD SVG 1.1//EN"
"http://www.w3.org/Graphics/SVG/1.1/DTD/svg11.dtd">
<svg width="322px" height="600px"
xmlns="http://www.w3.org/2000/svg" version="1.1">
<g transform="translate(0000, 0000) scale(1.0000, 1.0000)">
<path fill="#000000" stroke="none" d="
M 109.61 599.35
C 109.10 598.82 86.67 598.25 59.77 598.11
C 18.00 597.90 10.29 597.57 6.95 595.83
C -3.08 590.65 -1.95 574.32 9.07 565.06
C 15.58 559.61 23.88 555.96 48.15 547.91
C 60.67 543.76 86.48 533.77 105.49 525.72
C 124.52 517.67 148.38 508.09 158.52 504.42
C 188.32 493.64 196.37 488.79 202.16 478.11
C 206.94 469.32 208.74 458.36 207.92 442.99
C 202.60 342.33 201.85 317.96 201.85 247.13
C 201.85 200.60 201.31 175.22 200.00 159.83
C 198.99 147.90 197.25 121.53 196.15 101.24
C 195.05 80.94 193.28 55.45 192.22 44.59
C 188.50 6.33 188.51 7.36 191.40 3.82
L 193.99 0.64
L 255.40 0.28
L 316.81 -0.08
L 319.61 2.71
C 322.40 5.49 322.40 5.55 321.57 45.11
C 321.12 66.89 319.92 98.18 318.92 114.65
C 317.64 135.73 317.31 157.96 317.81 189.81
C 318.68 245.40 317.86 260.28 308.60 358.60
C 302.87 419.40 299.92 461.58 299.89 483.44
C 299.86 503.64 300.15 506.29 304.12 522.93
C 307.61 537.52 308.42 543.44 308.49 555.41
C 308.57 568.36 308.24 570.70 305.66 575.53
C 299.69 586.66 289.71 594.15 276.40 597.50
C 267.21 599.81 258.89 597.80 238.94 588.45
C 217.26 578.27 217.34 578.28 205.03 584.82
C 185.00 595.45 183.14 596.27 176.27 597.48
C 167.35 599.06 110.82 600.64 109.61 599.35
M 161.18 591.04
C 176.42 589.54 178.28 588.94 192.94 580.61
C 198.92 577.22 206.80 573.52 210.46 572.36
C 218.79 569.75 221.91 570.54 244.32 581.03
C 263.59 590.06 270.29 591.31 278.89 587.53
C 287.26 583.83 295.65 575.62 299.01 567.83
C 302.50 559.75 302.09 551.53 297.13 530.80
C 289.21 497.62 289.70 479.17 302.18 342.04
C 310.28 252.93 310.70 244.50 310.31 181.02
C 310.09 146.38 310.54 115.48 311.47 101.83
C 314.09 63.39 315.00 11.89 313.11 9.61
C 311.68 7.90 304.39 7.64 255.56 7.64
C 207.55 7.64 199.42 7.91 198.07 9.54
C 196.84 11.02 196.79 13.68 197.85 21.32
C 199.79 35.27 201.59 58.80 203.83 99.36
C 204.89 118.62 206.60 144.71 207.64 157.32
C 208.97 173.54 209.52 199.07 209.52 244.59
C 209.50 306.47 210.64 350.34 213.57 401.91
C 216.90 460.37 216.48 470.43 210.22 482.74
C 204.66 493.69 195.22 500.47 175.69 507.54
C 151.54 516.28 144.94 518.90 110.53 533.44
C 91.55 541.45 65.87 551.35 53.45 555.45
C 28.01 563.85 21.66 566.69 15.54 572.43
C 9.07 578.51 7.35 582.42 9.69 585.75
C 12.84 590.23 19.41 591.13 43.44 590.38
C 55.74 590.00 75.87 590.20 88.17 590.83
C 120.35 592.47 146.00 592.55 161.18 591.04"/>
<path fill="#ae3c2a" stroke="none" d="
M 88.17 590.83
C 75.87 590.20 55.74 590.00 43.44 590.38
C 19.41 591.13 12.84 590.23 9.69 585.75
C 7.35 582.42 9.07 578.51 15.54 572.43
C 21.66 566.69 28.01 563.85 53.45 555.45
C 65.87 551.35 91.55 541.45 110.53 533.44
C 144.94 518.90 151.54 516.28 175.69 507.54
C 195.22 500.47 204.66 493.69 210.22 482.74
C 216.48 470.43 216.90 460.37 213.57 401.91
C 210.64 350.34 209.50 306.47 209.52 244.59
C 209.52 199.07 208.97 173.54 207.64 157.32
C 206.60 144.71 204.89 118.62 203.83 99.36
C 201.58 58.62 199.79 35.26 197.83 21.13
C 196.53 11.90 196.62 10.90 198.76 9.35
C 200.62 7.99 212.21 7.64 256.28 7.64
C 304.46 7.64 311.68 7.90 313.11 9.61
C 315.00 11.89 314.09 63.39 311.47 101.83
C 310.54 115.48 310.09 146.38 310.31 181.02
C 310.70 244.50 310.28 252.93 302.18 342.04
C 289.70 479.17 289.21 497.62 297.13 530.80
C 302.09 551.53 302.50 559.75 299.01 567.83
C 295.65 575.62 287.26 583.83 278.89 587.53
C 270.29 591.31 263.59 590.06 244.32 581.03
C 221.91 570.54 218.79 569.75 210.46 572.36
C 206.80 573.52 198.92 577.22 192.94 580.61
C 186.96 584.00 180.36 587.44 178.25 588.25
C 168.22 592.14 133.40 593.13 88.17 590.83"/>
</g>
</svg>
