<?xml version="1.0" encoding="UTF-8" standalone="no"?>
<!DOCTYPE svg PUBLIC "-//W3C//DTD SVG 1.1//EN"
"http://www.w3.org/Graphics/SVG/1.1/DTD/svg11.dtd">
<svg width="600px" height="205px"
xmlns="http://www.w3.org/2000/svg" version="1.1">
<g transform="translate(0000, 0000) scale(1.0000, 1.0000)">
<path fill="#000000" stroke="none" d="
M 260.47 203.29
C 239.53 200.19 208.69 192.97 163.94 180.69
C 147.64 176.23 127.77 170.95 119.77 168.97
C 111.77 166.99 104.44 164.93 103.49 164.40
C 100.38 162.64 86.88 159.67 77.19 158.58
C 57.56 156.41 39.23 159.98 15.08 170.71
C 2.76 176.18 0.00 176.49 0.00 172.39
C 0.00 170.56 1.70 169.26 7.27 166.90
C 18.17 162.28 43.06 149.28 58.14 140.33
C 82.48 125.89 141.24 85.90 145.27 81.04
C 146.45 79.62 145.29 76.15 138.85 61.77
C 131.34 44.98 131.09 44.16 133.20 42.62
C 134.41 41.73 152.67 35.21 173.80 28.12
C 233.64 8.03 261.38 1.60 293.60 0.35
C 331.24 -1.08 365.43 6.74 437.79 33.39
C 452.50 38.81 465.19 43.46 465.99 43.71
C 468.44 44.52 467.70 47.15 460.36 63.52
C 454.57 76.47 453.55 79.62 454.73 81.04
C 458.76 85.90 517.52 125.89 541.86 140.33
C 556.94 149.28 581.83 162.28 592.73 166.90
C 598.30 169.26 600.00 170.56 600.00 172.39
C 600.00 176.49 597.24 176.18 584.92 170.71
C 560.77 159.98 542.44 156.41 522.81 158.58
C 513.12 159.67 499.62 162.64 496.51 164.40
C 495.56 164.93 488.23 166.99 480.23 168.97
C 472.23 170.95 452.35 176.23 436.05 180.70
C 389.88 193.38 360.76 200.14 338.95 203.29
C 324.36 205.38 274.66 205.38 260.47 203.29
M 311.38 197.39
C 316.76 196.33 324.77 193.46 331.37 190.23
C 340.40 185.80 344.09 183.13 351.83 175.38
C 359.56 167.63 362.23 163.93 366.65 154.89
C 371.94 144.02 375.58 130.51 375.58 121.72
C 375.58 112.92 371.94 99.41 366.65 88.55
C 355.91 66.53 334.77 50.54 310.17 45.85
C 300.67 44.03 299.33 44.03 289.83 45.85
C 273.79 48.91 259.90 56.32 248.17 68.06
C 240.44 75.80 237.77 79.51 233.35 88.55
C 228.06 99.41 224.42 112.92 224.42 121.72
C 224.42 130.51 228.06 144.02 233.35 154.89
C 237.77 163.93 240.44 167.63 248.17 175.38
C 255.90 183.11 259.60 185.82 268.63 190.23
C 278.83 195.23 291.35 198.85 299.17 199.08
C 300.97 199.13 306.45 198.37 311.38 197.39
M 256.98 193.18
C 253.45 191.17 246.59 185.49 241.71 180.55
C 207.00 145.43 211.84 83.25 251.57 53.95
C 255.33 51.19 257.94 48.92 257.40 48.92
C 254.57 48.92 230.79 55.29 217.76 59.52
C 177.84 72.51 155.74 82.79 133.37 98.81
C 110.48 115.20 84.37 132.61 66.90 143.15
C 59.24 147.76 52.70 151.85 52.36 152.22
C 52.02 152.59 56.20 152.56 61.63 152.14
C 72.50 151.32 86.31 153.13 101.16 157.34
C 105.95 158.69 114.86 161.03 120.93 162.53
C 127.00 164.03 148.20 169.68 168.02 175.09
C 197.03 183.01 226.01 190.27 251.74 196.05
C 253.02 196.35 256.16 196.64 258.72 196.70
L 263.37 196.82
L 256.98 193.18
M 372.78 190.41
C 385.51 187.39 412.15 180.50 431.98 175.09
C 451.80 169.68 472.99 164.03 479.07 162.53
C 485.15 161.03 494.05 158.69 498.84 157.34
C 513.69 153.13 527.50 151.32 538.37 152.14
C 543.81 152.56 547.98 152.59 547.64 152.22
C 547.30 151.85 540.76 147.76 533.10 143.15
C 515.63 132.61 489.52 115.20 466.63 98.81
C 444.26 82.79 422.16 72.51 382.24 59.52
C 369.21 55.29 345.43 48.92 342.60 48.92
C 342.06 48.92 344.67 51.19 348.43 53.95
C 369.40 69.42 381.40 94.08 381.40 121.72
C 381.40 145.05 373.49 165.18 358.29 180.55
C 353.41 185.49 346.53 191.22 343.02 193.29
L 336.63 197.04
L 343.13 196.46
C 346.71 196.15 360.05 193.42 372.78 190.41
M 171.01 69.85
C 223.70 47.28 279.55 34.88 313.08 38.34
C 350.03 42.14 389.13 52.78 429.05 69.87
C 438.09 73.75 445.92 76.67 446.43 76.34
C 448.29 75.20 459.55 48.70 458.57 47.81
C 455.83 45.33 386.35 21.14 365.12 15.28
C 317.19 2.03 276.35 3.14 220.66 19.20
C 205.65 23.53 140.80 45.00 139.78 45.97
C 139.02 46.70 152.98 76.88 154.08 76.88
C 154.37 76.88 162.00 73.72 171.01 69.85"/>
<path fill="#000000" stroke="none" d="
M 286.86 174.60
C 268.53 170.29 252.02 153.55 247.74 134.99
C 246.23 128.43 246.23 116.17 247.74 109.62
C 252.08 90.77 268.52 74.30 287.34 69.96
C 293.88 68.44 306.12 68.44 312.66 69.96
C 331.48 74.30 347.92 90.77 352.26 109.62
C 353.77 116.17 353.77 128.43 352.26 134.99
C 347.92 153.83 331.48 170.30 312.66 174.65
C 306.51 176.07 292.95 176.04 286.86 174.60"/>
<path fill="#0f4f9f" stroke="none" d="
M 151.16 72.23
C 147.57 65.16 139.41 46.33 139.78 45.97
C 140.80 45.00 205.65 23.53 220.66 19.20
C 276.26 3.17 317.27 2.05 365.12 15.28
C 386.35 21.14 455.83 45.33 458.57 47.81
C 459.55 48.70 448.29 75.20 446.43 76.34
C 445.92 76.67 438.09 73.75 429.05 69.87
C 389.13 52.78 350.03 42.14 313.08 38.34
C 279.55 34.88 223.70 47.28 171.01 69.85
C 162.00 73.72 154.37 76.88 154.08 76.88
C 153.78 76.88 152.47 74.78 151.16 72.23"/>
<path fill="#c55436" stroke="none" d="
M 287.79 197.31
C 283.31 196.38 274.69 193.20 268.63 190.23
C 259.60 185.82 255.90 183.11 248.17 175.38
C 240.44 167.63 237.77 163.93 233.35 154.89
C 228.06 144.02 224.42 130.51 224.42 121.72
C 224.42 112.92 228.06 99.41 233.35 88.55
C 247.81 58.88 281.94 40.18 311.05 45.97
C 316.77 47.10 324.60 49.90 331.37 53.21
C 340.40 57.63 344.09 60.31 351.83 68.06
C 359.56 75.80 362.23 79.51 366.65 88.55
C 371.94 99.41 375.58 112.92 375.58 121.72
C 375.58 130.51 371.94 144.02 366.65 154.89
C 362.23 163.93 359.56 167.63 351.83 175.38
C 344.09 183.13 340.40 185.80 331.37 190.23
C 320.80 195.39 306.62 199.30 299.17 199.08
C 297.40 199.02 292.27 198.23 287.79 197.31
M 312.66 174.65
C 331.48 170.30 347.92 153.83 352.26 134.99
C 353.77 128.43 353.77 116.17 352.26 109.62
C 350.14 100.40 345.15 91.66 337.87 84.36
C 330.59 77.07 321.86 72.08 312.66 69.96
C 306.12 68.44 293.88 68.44 287.34 69.96
C 268.52 74.30 252.08 90.77 247.74 109.62
C 246.23 116.17 246.23 128.43 247.74 134.99
C 252.02 153.55 268.53 170.29 286.86 174.60
C 292.95 176.04 306.51 176.07 312.66 174.65"/>
<path fill="#ffebeb" stroke="none" d="
M 251.74 196.05
C 226.01 190.27 197.03 183.01 168.02 175.09
C 148.20 169.68 127.00 164.03 120.93 162.53
C 114.86 161.03 105.95 158.69 101.16 157.34
C 86.31 153.13 72.50 151.32 61.63 152.14
C 56.20 152.56 52.02 152.59 52.36 152.22
C 52.70 151.85 59.24 147.76 66.90 143.15
C 84.37 132.61 110.48 115.20 133.37 98.81
C 151.65 85.72 163.14 79.74 190.12 69.30
C 212.30 60.71 239.99 52.25 254.48 49.63
C 258.20 48.97 258.07 49.17 251.56 53.96
C 230.60 69.42 218.60 94.08 218.60 121.72
C 218.60 145.05 226.51 165.18 241.71 180.55
C 246.59 185.49 253.45 191.17 256.98 193.18
L 263.37 196.82
L 258.72 196.70
C 256.16 196.64 253.02 196.35 251.74 196.05"/>
<path fill="#ffebeb" stroke="none" d="
M 343.02 193.29
C 346.53 191.22 353.41 185.49 358.29 180.55
C 393.00 145.43 388.16 83.25 348.43 53.95
C 344.67 51.19 342.06 48.92 342.60 48.92
C 345.43 48.92 369.21 55.29 382.24 59.52
C 422.16 72.51 444.26 82.79 466.63 98.81
C 489.52 115.20 515.63 132.61 533.10 143.15
C 540.76 147.76 547.30 151.85 547.64 152.22
C 547.98 152.59 543.81 152.56 538.37 152.14
C 527.50 151.32 513.69 153.13 498.84 157.34
C 494.05 158.69 485.15 161.03 479.07 162.53
C 472.99 164.03 451.80 169.68 431.98 175.09
C 389.36 186.72 352.20 195.66 343.13 196.46
L 336.63 197.04
L 343.02 193.29"/>
</g>
</svg>
