<?xml version="1.0" encoding="UTF-8" standalone="no"?>
<!DOCTYPE svg PUBLIC "-//W3C//DTD SVG 1.1//EN"
"http://www.w3.org/Graphics/SVG/1.1/DTD/svg11.dtd">
<svg width="428px" height="600px"
xmlns="http://www.w3.org/2000/svg" version="1.1">
<g transform="translate(0000, 0000) scale(1.0000, 1.0000)">
<path fill="#000000" stroke="none" d="
M 222.94 598.65
C 214.51 598.02 195.49 597.86 180.67 598.26
C 155.52 598.97 153.33 598.85 147.91 596.45
C 142.76 594.18 141.87 593.14 139.90 587.23
C 137.37 579.63 137.83 571.10 141.02 566.22
C 143.58 562.34 151.47 559.90 169.92 557.31
C 185.99 555.05 190.44 553.57 238.91 534.28
C 279.03 518.31 287.53 514.43 295.97 508.28
C 306.67 500.49 313.08 486.56 313.27 470.77
C 313.73 433.17 309.88 297.94 307.28 259.79
C 306.90 254.17 305.43 228.03 304.03 201.70
C 302.63 175.38 300.94 147.80 300.26 140.43
C 299.60 133.05 299.03 120.82 299.00 113.23
C 298.96 100.28 299.15 99.27 302.09 96.32
C 304.54 93.88 306.59 93.18 311.35 93.15
L 317.49 93.11
L 306.83 88.07
C 300.98 85.30 293.51 80.80 290.22 78.06
C 274.39 64.86 272.82 64.65 265.56 74.74
C 262.23 79.38 260.74 80.46 258.14 80.17
C 255.09 79.81 254.78 79.09 253.06 68.30
C 252.05 61.98 251.06 56.58 250.86 56.31
C 250.65 56.04 245.01 57.33 238.33 59.18
C 219.00 64.54 214.26 63.97 190.86 53.45
C 179.38 48.28 179.19 48.24 175.77 50.48
C 173.87 51.73 169.74 57.20 166.59 62.66
C 157.02 79.25 151.18 82.98 134.83 82.98
C 126.11 82.98 119.76 85.46 116.77 90.01
C 114.60 93.32 114.63 93.74 117.54 102.14
C 120.22 109.88 120.39 111.43 119.00 116.08
C 117.12 122.32 111.25 129.37 106.36 131.25
C 104.43 132.00 97.70 134.13 91.39 136.01
C 82.37 138.68 78.94 140.40 75.24 144.09
L 70.54 148.79
L 71.21 165.43
C 72.04 185.87 71.50 187.31 56.73 203.12
C 50.93 209.32 45.82 215.57 45.37 217.00
C 44.83 218.68 46.33 223.49 49.64 230.76
C 54.81 242.08 58.77 253.91 58.77 258.05
C 58.77 259.30 57.58 263.49 56.14 267.36
C 54.09 272.81 51.22 276.63 43.32 284.32
C 33.01 294.37 28.11 300.73 28.11 304.02
C 28.11 305.02 31.21 311.26 35.01 317.91
C 49.52 343.31 49.07 354.40 32.67 375.96
C 25.40 385.52 21.72 391.90 21.72 394.97
C 21.72 396.01 25.22 402.05 29.50 408.37
C 37.10 419.60 42.19 431.94 42.14 438.94
C 42.08 444.88 37.59 452.31 28.89 460.81
C 24.25 465.36 20.44 469.70 20.44 470.46
C 20.44 471.22 23.56 476.74 27.35 482.73
C 34.24 493.56 38.33 504.05 38.33 510.82
C 38.33 516.98 33.42 527.78 27.44 534.79
C 18.18 545.63 18.22 545.31 24.40 555.52
C 30.64 565.84 33.22 574.46 33.22 584.96
C 33.22 590.64 32.63 592.93 30.66 594.89
C 25.21 600.34 18.79 596.49 17.36 586.90
C 16.86 583.56 14.35 577.70 11.40 573.01
C -3.46 549.34 -3.32 539.91 12.18 521.30
C 16.72 515.83 20.44 510.80 20.44 510.11
C 20.44 509.44 17.52 504.42 13.94 498.98
C 6.78 488.08 1.35 476.06 1.30 470.97
C 1.24 463.12 5.42 455.32 14.37 446.59
C 24.72 436.49 24.72 437.41 14.21 421.40
C 10.21 415.31 5.89 406.81 4.55 402.36
L 2.11 394.31
L 4.93 385.52
C 7.58 377.34 11.93 369.91 22.01 356.40
C 27.97 348.43 27.55 344.09 19.45 330.11
C 11.08 315.68 8.39 307.80 9.49 300.89
C 11.05 291.15 15.19 284.34 26.71 272.57
C 32.91 266.25 38.39 259.76 38.89 258.18
C 39.52 256.15 38.29 251.99 34.73 244.14
C 24.27 221.08 24.19 220.37 29.40 206.44
C 31.43 201.00 34.70 196.40 42.07 188.59
C 54.67 175.28 56.33 172.17 54.87 164.66
C 53.19 155.89 53.46 140.82 55.40 136.17
C 58.71 128.29 64.38 124.94 85.09 118.67
C 90.07 117.17 95.71 114.70 97.61 113.18
C 101.01 110.46 101.03 110.35 99.08 105.68
C 97.99 103.07 97.10 97.30 97.10 92.86
C 97.10 75.94 105.70 67.66 123.29 67.66
C 137.13 67.66 142.06 64.63 150.37 51.06
C 158.44 37.89 162.55 34.03 171.56 31.20
C 178.30 29.07 178.67 29.09 187.29 31.93
C 192.14 33.52 201.07 37.05 207.14 39.75
C 213.21 42.46 219.49 44.68 221.10 44.68
C 222.71 44.68 227.82 43.53 232.44 42.13
C 237.05 40.71 243.22 38.99 246.14 38.27
C 251.13 37.06 251.52 36.63 252.37 31.57
C 253.77 22.98 256.33 17.87 259.21 17.87
C 260.70 17.87 264.01 20.54 267.16 24.27
L 272.55 30.66
L 278.62 23.87
C 289.06 12.17 303.93 6.09 332.54 1.84
C 356.57 -1.74 381.65 1.24 400.25 9.87
C 411.81 15.23 418.87 22.10 423.96 32.96
C 426.85 39.13 427.36 41.92 427.36 51.70
C 427.36 61.91 426.98 63.84 423.87 69.13
C 419.38 76.76 411.11 83.99 400.24 89.78
L 391.59 94.39
L 396.44 94.43
C 404.16 94.49 407.56 98.80 407.56 108.52
C 407.56 112.81 407.00 120.17 406.29 124.86
C 403.83 141.63 402.26 179.08 401.17 247.02
C 400.05 317.39 399.43 328.95 390.82 440.22
C 388.68 468.06 386.62 494.87 386.26 499.79
C 385.72 507.05 386.48 512.66 390.31 529.79
C 394.31 547.71 394.94 552.56 394.49 562.34
C 393.89 575.71 391.42 581.66 383.46 588.83
C 377.94 593.82 371.56 596.16 363.48 596.16
C 356.58 596.16 350.27 594.28 336.80 588.22
C 319.45 580.42 317.96 580.46 301.08 588.94
C 293.24 592.90 283.67 596.73 279.80 597.46
C 269.70 599.37 240.79 599.97 222.94 598.65
M 275.85 589.84
C 279.64 589.10 287.12 586.01 292.46 582.96
C 303.51 576.64 312.85 573.19 318.93 573.19
C 323.26 573.19 331.04 575.86 350.54 584.03
C 358.98 587.57 362.88 588.56 365.84 587.97
C 372.16 586.71 379.00 581.43 382.89 574.81
C 386.06 569.44 386.46 567.52 386.35 558.51
C 386.27 552.06 384.94 543.13 382.75 534.26
C 378.31 516.42 377.47 504.57 379.30 486.28
C 380.69 472.46 383.88 430.85 389.79 349.67
C 391.59 325.01 392.78 291.55 393.50 245.11
C 394.60 176.02 396.12 139.43 398.70 120.42
C 400.43 107.77 399.69 105.00 393.93 102.60
C 388.02 100.12 357.69 98.95 331.72 100.17
C 307.00 101.35 306.63 101.57 306.64 114.57
C 306.64 119.31 307.20 129.51 307.88 137.23
C 308.56 144.96 310.56 178.00 312.34 210.64
C 314.11 243.28 316.17 280.91 316.90 294.26
C 318.30 319.74 321.26 453.26 320.86 472.98
C 320.34 498.52 312.06 511.71 289.38 523.09
C 280.35 527.62 212.02 554.92 197.71 559.72
C 192.27 561.55 181.63 563.89 174.07 564.92
C 148.91 568.37 142.86 573.11 148.85 584.69
C 151.78 590.36 157.41 591.29 183.67 590.44
C 196.14 590.03 213.81 590.25 222.94 590.92
C 241.78 592.30 265.60 591.82 275.85 589.84
M 27.56 587.97
C 28.96 582.36 25.62 571.38 19.13 560.36
C 15.64 554.43 12.78 548.11 12.78 546.32
C 12.78 542.97 17.03 535.90 24.88 526.23
C 34.32 514.57 33.90 506.04 23.06 489.15
C 11.03 470.39 11.08 468.88 24.19 455.21
C 36.02 442.86 37.31 439.33 33.52 429.51
C 32.20 426.04 27.86 418.47 23.92 412.71
C 19.97 406.94 16.35 400.17 15.88 397.66
C 14.67 391.15 17.85 383.80 27.43 370.95
C 36.96 358.17 40.27 350.54 39.17 343.81
C 38.42 339.13 37.40 336.92 27.03 317.49
C 24.08 311.95 21.72 305.76 21.72 303.55
C 21.72 297.74 26.68 290.41 38.16 279.24
C 45.19 272.40 49.03 267.52 50.57 263.51
C 52.69 257.97 52.69 257.36 50.52 250.44
C 49.26 246.46 46.66 240.04 44.74 236.17
C 35.68 218.00 36.34 214.37 51.55 198.08
C 57.38 191.85 63.10 184.71 64.29 182.22
C 66.78 176.97 67.02 168.87 65.02 157.40
C 62.53 143.09 68.02 136.30 86.56 130.81
C 102.71 126.03 104.38 125.25 108.49 120.56
C 113.82 114.50 114.24 112.00 111.24 103.99
C 107.93 95.14 107.92 91.12 111.19 85.77
C 114.42 80.48 120.52 77.87 129.72 77.87
C 146.08 77.87 151.91 74.14 161.52 57.49
C 167.46 47.20 173.21 42.13 178.90 42.13
C 180.51 42.13 188.21 44.94 196.00 48.36
C 217.64 57.87 218.61 58.09 227.85 55.61
C 244.38 51.15 251.69 48.14 251.69 45.75
C 251.69 43.10 248.05 43.49 236.56 47.41
C 224.08 51.65 218.59 51.75 209.43 47.87
C 204.92 45.96 196.10 42.41 189.85 39.97
C 178.62 35.60 178.41 35.58 173.12 37.60
C 166.40 40.16 163.27 43.48 155.23 56.59
C 147.22 69.66 142.11 72.75 128.45 72.79
C 117.37 72.83 109.73 75.96 106.07 81.94
C 101.89 88.79 101.58 93.63 104.76 102.13
C 109.43 114.57 106.62 118.70 90.02 123.80
C 61.45 132.61 56.78 137.91 59.84 158.02
C 62.63 176.31 62.03 178.01 47.18 193.70
C 39.82 201.50 36.53 206.12 34.47 211.57
C 31.76 218.78 31.75 219.06 33.96 225.32
C 35.20 228.83 38.42 236.27 41.10 241.85
C 48.88 258.00 48.08 261.14 31.97 277.57
C 20.57 289.17 15.41 297.42 15.36 304.10
C 15.33 307.15 17.84 312.47 30.20 335.64
C 35.72 345.97 34.15 352.29 21.97 368.69
C 17.73 374.41 13.02 382.39 11.51 386.43
C 9.08 392.92 8.94 394.39 10.35 399.37
C 11.20 402.47 15.64 410.68 20.17 417.64
C 26.28 427.00 28.59 431.76 29.08 436.01
C 29.72 441.74 29.70 441.75 20.07 451.14
C 4.64 466.16 4.38 471.34 18.10 492.33
C 29.36 509.58 29.31 511.95 17.26 526.44
C 4.20 542.12 3.79 547.49 14.35 563.94
C 19.76 572.37 22.84 579.68 22.95 584.26
C 23.07 590.86 26.20 593.37 27.56 587.97
M 375.62 90.01
C 398.63 83.91 420.19 65.59 420.31 52.07
C 420.36 45.63 415.02 34.15 408.99 27.70
C 399.20 17.25 384.84 11.36 363.25 8.96
C 344.28 6.84 314.96 11.68 299.71 19.42
C 296.97 20.82 290.53 25.93 285.41 30.77
C 274.72 40.86 271.93 41.57 265.30 35.74
C 260.94 31.91 260.93 31.91 260.16 34.79
C 259.16 38.50 259.16 58.51 260.16 62.22
L 260.93 65.08
L 264.71 61.90
C 266.79 60.15 269.96 58.35 271.75 57.91
C 276.13 56.81 284.66 61.06 295.13 69.55
C 299.69 73.25 305.85 77.50 308.80 78.98
C 330.90 90.13 358.23 94.63 375.62 90.01"/>
<path fill="#c57a36" stroke="none" d="
M 338.57 89.41
C 320.34 85.52 307.69 79.74 295.13 69.55
C 284.66 61.06 276.13 56.81 271.75 57.91
C 269.96 58.35 266.79 60.15 264.71 61.90
L 260.93 65.08
L 260.16 62.22
C 259.16 58.51 259.16 38.50 260.16 34.79
C 260.93 31.91 260.94 31.91 265.30 35.74
C 271.95 41.58 274.71 40.88 285.62 30.56
C 296.20 20.55 303.73 16.54 318.93 12.79
C 356.13 3.61 392.00 9.55 408.99 27.70
C 415.02 34.15 420.36 45.63 420.31 52.07
C 420.19 65.59 398.63 83.91 375.62 90.01
C 366.28 92.50 351.89 92.26 338.57 89.41"/>
<path fill="#0885ff" stroke="none" d="
M 23.78 589.05
C 23.34 587.94 22.97 585.78 22.95 584.26
C 22.84 579.68 19.76 572.37 14.35 563.94
C 3.79 547.49 4.20 542.12 17.26 526.44
C 29.31 511.95 29.36 509.58 18.10 492.33
C 4.38 471.34 4.64 466.16 20.07 451.14
C 29.70 441.75 29.72 441.74 29.08 436.01
C 28.59 431.76 26.28 427.00 20.17 417.64
C 15.64 410.68 11.20 402.47 10.35 399.37
C 8.94 394.39 9.08 392.92 11.51 386.43
C 13.02 382.39 17.73 374.41 21.97 368.69
C 34.15 352.29 35.72 345.97 30.20 335.64
C 17.84 312.47 15.33 307.15 15.36 304.10
C 15.41 297.42 20.57 289.17 31.97 277.57
C 48.08 261.14 48.88 258.00 41.10 241.85
C 38.42 236.27 35.20 228.83 33.96 225.32
C 31.75 219.06 31.76 218.78 34.47 211.57
C 36.53 206.12 39.82 201.50 47.18 193.70
C 62.03 178.01 62.63 176.31 59.84 158.02
C 56.78 137.91 61.45 132.61 90.02 123.80
C 106.62 118.70 109.43 114.57 104.76 102.13
C 101.58 93.63 101.89 88.79 106.07 81.94
C 109.73 75.96 117.37 72.83 128.45 72.79
C 142.24 72.75 147.19 69.70 155.49 56.17
C 163.11 43.71 167.83 39.00 174.52 37.15
C 179.47 35.78 184.59 37.37 209.43 47.87
C 218.59 51.75 224.08 51.65 236.56 47.41
C 248.05 43.49 251.69 43.10 251.69 45.75
C 251.69 48.14 244.38 51.15 227.85 55.61
C 218.61 58.09 217.64 57.87 196.00 48.36
C 188.21 44.94 180.51 42.13 178.90 42.13
C 173.21 42.13 167.46 47.20 161.52 57.49
C 151.91 74.14 146.08 77.87 129.72 77.87
C 120.52 77.87 114.42 80.48 111.19 85.77
C 107.92 91.12 107.93 95.14 111.24 103.99
C 114.24 112.00 113.82 114.50 108.49 120.56
C 104.38 125.25 102.71 126.03 86.56 130.81
C 68.02 136.30 62.53 143.09 65.02 157.40
C 67.02 168.87 66.78 176.97 64.29 182.22
C 63.10 184.71 57.38 191.85 51.55 198.08
C 36.34 214.37 35.68 218.00 44.74 236.17
C 46.66 240.04 49.26 246.46 50.52 250.44
C 52.69 257.36 52.69 257.97 50.57 263.51
C 49.03 267.52 45.19 272.40 38.16 279.24
C 26.68 290.41 21.72 297.74 21.72 303.55
C 21.72 305.76 24.08 311.95 27.03 317.49
C 37.40 336.92 38.42 339.13 39.17 343.81
C 40.27 350.54 36.96 358.17 27.43 370.95
C 17.85 383.80 14.67 391.15 15.88 397.66
C 16.35 400.17 19.97 406.94 23.92 412.71
C 27.86 418.47 32.20 426.04 33.52 429.51
C 37.31 439.33 36.02 442.86 24.19 455.21
C 11.08 468.88 11.03 470.39 23.06 489.15
C 33.90 506.04 34.32 514.57 24.88 526.23
C 17.03 535.90 12.78 542.97 12.78 546.32
C 12.78 548.11 15.64 554.43 19.13 560.36
C 25.62 571.38 28.96 582.36 27.56 587.97
C 26.66 591.51 24.91 592.01 23.78 589.05"/>
<path fill="#ae3c2a" stroke="none" d="
M 222.94 590.92
C 213.81 590.25 196.14 590.03 183.67 590.44
C 157.41 591.29 151.78 590.36 148.85 584.69
C 142.86 573.11 148.91 568.37 174.07 564.92
C 190.80 562.63 197.49 560.43 244.66 541.67
C 296.87 520.90 304.40 516.82 312.30 504.93
C 318.06 496.26 320.58 486.86 320.86 472.98
C 321.26 453.26 318.30 319.74 316.90 294.26
C 316.17 280.91 314.11 243.28 312.34 210.64
C 310.56 178.00 308.56 144.96 307.88 137.23
C 307.20 129.51 306.64 119.31 306.64 114.57
C 306.63 101.46 306.83 101.34 333.00 100.17
C 359.58 99.00 388.05 100.14 394.00 102.63
C 399.68 105.00 400.43 107.81 398.70 120.42
C 396.12 139.43 394.60 176.02 393.50 245.11
C 392.78 291.55 391.59 325.01 389.79 349.67
C 383.88 430.85 380.69 472.46 379.30 486.28
C 377.47 504.57 378.31 516.42 382.75 534.26
C 384.94 543.13 386.27 552.06 386.35 558.51
C 386.46 567.52 386.06 569.44 382.89 574.81
C 379.00 581.43 372.16 586.71 365.84 587.97
C 362.88 588.56 358.98 587.57 350.54 584.03
C 331.04 575.86 323.26 573.19 318.93 573.19
C 312.85 573.19 303.51 576.64 292.46 582.96
C 287.12 586.01 279.64 589.10 275.85 589.84
C 265.60 591.82 241.78 592.30 222.94 590.92"/>
</g>
</svg>
