<?xml version="1.0" encoding="UTF-8" standalone="no"?>
<!DOCTYPE svg PUBLIC "-//W3C//DTD SVG 1.1//EN"
"http://www.w3.org/Graphics/SVG/1.1/DTD/svg11.dtd">
<svg width="580px" height="600px"
xmlns="http://www.w3.org/2000/svg" version="1.1">
<g transform="translate(0000, 0000) scale(1.0000, 1.0000)">
<path fill="#000000" stroke="none" d="
M 541.14 598.12
C 533.34 595.69 527.17 591.56 521.21 584.81
C 512.52 574.94 511.30 569.42 509.43 531.37
C 508.27 507.63 505.92 499.79 497.96 492.80
L 493.50 488.89
L 448.38 488.89
L 403.25 488.89
L 403.25 498.04
C 403.25 505.45 402.75 507.69 400.63 509.80
C 399.19 511.24 397.12 512.42 396.05 512.42
C 394.98 512.42 392.91 511.24 391.47 509.80
C 389.35 507.69 388.85 505.45 388.85 498.04
L 388.85 488.89
L 315.53 488.89
L 242.21 488.89
L 242.21 498.04
C 242.21 505.45 241.71 507.69 239.59 509.80
C 238.15 511.24 236.08 512.42 235.01 512.42
C 233.92 512.42 231.87 511.24 230.43 509.80
C 228.31 507.69 227.81 505.45 227.81 498.04
L 227.81 488.89
L 154.49 488.89
L 81.17 488.89
L 81.17 498.04
C 81.17 505.45 80.68 507.69 78.56 509.80
C 77.12 511.24 75.05 512.42 73.97 512.42
C 72.89 512.42 70.83 511.24 69.39 509.80
C 67.27 507.69 66.77 505.45 66.77 498.04
L 66.77 488.89
L 41.20 488.89
C 13.32 488.89 9.20 488.09 4.18 481.73
C 0.18 476.65 -0.68 470.44 1.86 465.10
C 5.81 456.78 8.25 456.21 39.15 456.21
L 66.77 456.21
L 66.77 230.97
C 66.77 52.76 67.11 5.29 68.41 3.65
C 73.20 -2.44 81.17 1.29 81.17 9.63
L 81.17 14.04
L 92.88 15.54
C 141.52 21.76 182.79 52.18 204.82 98.04
C 211.55 112.01 219.69 137.87 222.22 153.19
C 224.88 169.40 223.36 182.99 217.48 195.53
C 211.30 208.71 198.84 218.30 187.90 218.30
C 180.62 218.30 168.58 212.64 161.06 205.70
C 146.90 192.60 139.47 174.27 130.17 129.41
C 124.75 103.28 120.53 89.01 114.90 77.78
C 106.98 61.93 94.78 47.48 85.18 42.52
L 81.17 40.46
L 81.17 248.33
L 81.17 456.21
L 154.49 456.21
L 227.81 456.21
L 227.81 230.72
C 227.81 6.97 227.84 5.20 230.43 2.61
C 231.87 1.18 233.92 0.00 235.01 0.00
C 238.49 0.00 242.21 4.98 242.21 9.63
L 242.21 14.04
L 253.92 15.54
C 302.56 21.76 343.82 52.18 365.86 98.04
C 372.59 112.01 380.73 137.87 383.26 153.19
C 385.92 169.40 384.40 182.99 378.52 195.53
C 372.34 208.71 359.87 218.30 348.94 218.30
C 341.66 218.30 329.62 212.64 322.10 205.70
C 307.94 192.60 300.51 174.27 291.20 129.41
C 285.78 103.28 281.57 89.01 275.94 77.78
C 268.02 61.93 255.82 47.48 246.22 42.52
L 242.21 40.46
L 242.21 248.33
L 242.21 456.21
L 315.53 456.21
L 388.85 456.21
L 388.85 230.72
C 388.85 6.97 388.87 5.20 391.47 2.61
C 392.91 1.18 394.98 0.00 396.05 0.00
C 399.53 0.00 403.25 4.98 403.25 9.63
L 403.25 14.04
L 414.96 15.54
C 463.59 21.76 504.86 52.18 526.90 98.04
C 533.63 112.01 541.77 137.87 544.30 153.19
C 546.95 169.40 545.44 182.99 539.56 195.53
C 533.38 208.71 520.91 218.30 509.98 218.30
C 502.70 218.30 490.66 212.64 483.14 205.70
C 468.98 192.60 461.55 174.27 452.24 129.41
C 446.82 103.28 442.61 89.01 436.98 77.78
C 429.06 61.93 416.85 47.48 407.26 42.52
L 403.25 40.46
L 403.25 248.33
L 403.25 456.21
L 450.76 456.21
C 488.80 456.21 499.83 456.60 506.08 458.18
C 538.51 466.38 570.36 500.10 577.92 534.25
C 582.15 553.37 579.62 576.90 572.05 588.82
C 565.70 598.82 554.35 602.24 541.14 598.12
M 556.85 592.00
C 566.61 586.99 572.07 575.61 573.07 558.17
C 573.83 545.18 571.59 533.90 565.65 520.81
C 554.97 497.29 531.56 475.02 508.31 466.24
L 500.79 463.40
L 256.40 463.05
L 12.01 462.69
L 9.28 466.17
C 5.56 470.88 5.84 474.01 10.37 478.54
L 14.21 482.35
L 256.42 482.35
L 498.63 482.35
L 502.61 485.70
C 504.81 487.54 508.46 492.82 510.73 497.42
C 514.76 505.59 514.90 506.54 516.53 534.27
C 517.72 554.82 518.83 564.56 520.52 569.25
C 523.54 577.71 533.17 587.16 542.35 590.68
C 550.38 593.76 552.94 594.00 556.85 592.00
M 77.25 495.18
C 77.25 489.35 77.01 488.89 73.97 488.89
C 70.96 488.89 70.70 489.36 70.70 494.86
C 70.70 498.14 71.37 502.07 72.18 503.59
C 73.62 506.26 73.72 506.27 75.45 503.91
C 76.43 502.56 77.25 498.63 77.25 495.18
M 238.28 495.18
C 238.28 489.35 238.05 488.89 235.01 488.89
C 232.00 488.89 231.74 489.36 231.74 494.86
C 231.74 498.14 232.41 502.07 233.22 503.59
C 234.66 506.26 234.76 506.27 236.49 503.91
C 237.47 502.56 238.28 498.63 238.28 495.18
M 399.32 495.18
C 399.32 489.35 399.09 488.89 396.05 488.89
C 393.04 488.89 392.78 489.36 392.78 494.86
C 392.78 498.14 393.44 502.07 394.26 503.59
C 395.70 506.26 395.80 506.27 397.53 503.91
C 398.51 502.56 399.32 498.63 399.32 495.18
M 77.25 233.90
C 77.25 70.95 76.85 10.85 75.77 8.82
C 74.33 6.16 74.22 6.14 72.49 8.51
C 70.99 10.56 70.70 47.28 70.70 233.58
L 70.70 456.21
L 73.97 456.21
L 77.25 456.21
L 77.25 233.90
M 238.28 233.90
C 238.28 70.95 237.89 10.85 236.80 8.82
C 235.36 6.16 235.26 6.14 233.53 8.51
C 232.03 10.56 231.74 47.28 231.74 233.58
L 231.74 456.21
L 235.01 456.21
L 238.28 456.21
L 238.28 233.90
M 399.32 233.90
C 399.32 70.95 398.93 10.85 397.84 8.82
C 396.40 6.16 396.30 6.14 394.57 8.51
C 393.06 10.56 392.78 47.28 392.78 233.58
L 392.78 456.21
L 396.05 456.21
L 399.32 456.21
L 399.32 233.90
M 199.79 205.87
C 210.08 198.03 216.58 182.54 216.49 166.01
C 216.39 150.71 207.24 119.45 196.85 98.94
C 176.66 59.15 138.31 30.27 95.73 22.84
C 80.57 20.18 81.17 20.03 81.17 26.58
C 81.17 32.12 81.32 32.30 87.98 35.40
C 101.24 41.56 116.34 60.10 124.27 79.97
C 128.69 91.01 131.54 101.79 138.09 132.34
C 140.68 144.38 144.02 158.20 145.51 163.06
C 156.82 199.66 181.93 219.46 199.79 205.87
M 360.83 205.87
C 371.12 198.03 377.62 182.54 377.52 166.01
C 377.43 150.71 368.28 119.45 357.88 98.94
C 337.70 59.15 299.35 30.27 256.77 22.84
C 241.61 20.18 242.21 20.03 242.21 26.58
C 242.21 32.12 242.36 32.30 249.02 35.40
C 262.28 41.56 277.38 60.10 285.31 79.97
C 289.73 91.01 292.58 101.79 299.13 132.34
C 301.72 144.38 305.06 158.20 306.55 163.06
C 317.86 199.66 342.97 219.46 360.83 205.87
M 521.87 205.87
C 532.16 198.03 538.65 182.54 538.56 166.01
C 538.47 150.71 529.32 119.45 518.92 98.94
C 498.73 59.15 460.39 30.27 417.81 22.84
C 402.65 20.18 403.25 20.03 403.25 26.58
C 403.25 32.12 403.39 32.30 410.06 35.40
C 423.32 41.56 438.42 60.10 446.35 79.97
C 450.76 91.01 453.62 101.79 460.16 132.34
C 462.76 144.38 466.09 158.20 467.59 163.06
C 478.90 199.66 504.01 219.46 521.87 205.87"/>
<path fill="#c57a36" stroke="none" d="
M 542.35 590.68
C 533.17 587.16 523.54 577.71 520.52 569.25
C 518.83 564.56 517.72 554.82 516.53 534.27
C 514.90 506.54 514.76 505.59 510.73 497.42
C 508.46 492.82 504.81 487.54 502.61 485.70
L 498.63 482.35
L 256.42 482.35
L 14.21 482.35
L 10.37 478.54
C 5.84 474.01 5.56 470.88 9.28 466.17
L 12.01 462.69
L 256.40 463.05
L 500.79 463.40
L 508.31 466.24
C 538.03 477.46 564.38 507.42 571.65 538.26
C 575.76 555.70 571.73 579.33 563.31 587.18
C 555.80 594.17 552.74 594.68 542.35 590.68"/>
<path fill="#c57a36" stroke="none" d="
M 72.18 503.59
C 71.37 502.07 70.70 498.14 70.70 494.86
C 70.70 489.36 70.96 488.89 73.97 488.89
C 77.01 488.89 77.25 489.35 77.25 495.18
C 77.25 498.63 76.43 502.56 75.45 503.91
C 73.72 506.27 73.62 506.26 72.18 503.59"/>
<path fill="#c57a36" stroke="none" d="
M 233.22 503.59
C 232.41 502.07 231.74 498.14 231.74 494.86
C 231.74 489.36 232.00 488.89 235.01 488.89
C 238.05 488.89 238.28 489.35 238.28 495.18
C 238.28 498.63 237.47 502.56 236.49 503.91
C 234.76 506.27 234.66 506.26 233.22 503.59"/>
<path fill="#c57a36" stroke="none" d="
M 394.26 503.59
C 393.44 502.07 392.78 498.14 392.78 494.86
C 392.78 489.36 393.04 488.89 396.05 488.89
C 399.09 488.89 399.32 489.35 399.32 495.18
C 399.32 498.63 398.51 502.56 397.53 503.91
C 395.80 506.27 395.70 506.26 394.26 503.59"/>
<path fill="#c57a36" stroke="none" d="
M 70.70 234.09
C 70.70 111.93 71.05 11.05 71.50 9.91
C 72.52 7.24 75.43 7.24 76.45 9.91
C 76.89 11.05 77.25 111.93 77.25 234.09
L 77.25 456.21
L 73.97 456.21
L 70.70 456.21
L 70.70 234.09"/>
<path fill="#c57a36" stroke="none" d="
M 231.74 233.58
C 231.74 47.28 232.03 10.56 233.53 8.51
C 235.26 6.14 235.36 6.16 236.80 8.82
C 237.89 10.85 238.28 70.95 238.28 233.90
L 238.28 456.21
L 235.01 456.21
L 231.74 456.21
L 231.74 233.58"/>
<path fill="#c57a36" stroke="none" d="
M 392.78 233.58
C 392.78 47.28 393.06 10.56 394.57 8.51
C 396.30 6.14 396.40 6.16 397.84 8.82
C 398.93 10.85 399.32 70.95 399.32 233.90
L 399.32 456.21
L 396.05 456.21
L 392.78 456.21
L 392.78 233.58"/>
<path fill="#ae3c2a" stroke="none" d="
M 180.02 208.93
C 169.06 204.82 160.02 195.35 152.19 179.74
C 146.90 169.20 143.68 158.39 138.09 132.34
C 131.54 101.79 128.69 91.01 124.27 79.97
C 116.34 60.10 101.24 41.56 87.98 35.40
C 81.54 32.41 81.17 31.96 81.17 27.31
C 81.17 24.59 81.76 22.01 82.47 21.57
C 84.47 20.34 105.58 24.37 116.38 28.04
C 149.65 39.39 180.36 66.44 196.85 98.94
C 207.24 119.45 216.39 150.71 216.49 166.01
C 216.64 194.21 198.33 215.76 180.02 208.93"/>
<path fill="#ae3c2a" stroke="none" d="
M 341.06 208.93
C 330.10 204.82 321.06 195.35 313.23 179.74
C 307.94 169.20 304.72 158.39 299.13 132.34
C 292.58 101.79 289.73 91.01 285.31 79.97
C 277.38 60.10 262.28 41.56 249.02 35.40
C 242.36 32.30 242.21 32.12 242.21 26.58
C 242.21 20.03 241.61 20.18 256.77 22.84
C 299.35 30.27 337.70 59.15 357.88 98.94
C 368.28 119.45 377.43 150.71 377.52 166.01
C 377.68 194.21 359.36 215.76 341.06 208.93"/>
<path fill="#ae3c2a" stroke="none" d="
M 502.10 208.93
C 491.14 204.82 482.09 195.35 474.26 179.74
C 468.98 169.20 465.75 158.39 460.16 132.34
C 453.62 101.79 450.76 91.01 446.35 79.97
C 438.42 60.10 423.32 41.56 410.06 35.40
C 403.39 32.30 403.25 32.12 403.25 26.58
C 403.25 20.03 402.65 20.18 417.81 22.84
C 460.39 30.27 498.73 59.15 518.92 98.94
C 529.32 119.45 538.47 150.71 538.56 166.01
C 538.72 194.21 520.40 215.76 502.10 208.93"/>
</g>
</svg>
