<?xml version="1.0" encoding="UTF-8" standalone="no"?>
<!DOCTYPE svg PUBLIC "-//W3C//DTD SVG 1.1//EN"
"http://www.w3.org/Graphics/SVG/1.1/DTD/svg11.dtd">
<svg width="577px" height="600px"
xmlns="http://www.w3.org/2000/svg" version="1.1">
<g transform="translate(0000, 0000) scale(1.0000, 1.0000)">
<path fill="#000000" stroke="none" d="
M 538.58 597.45
C 530.39 593.73 524.33 588.65 520.67 582.40
C 515.17 573.02 513.79 565.05 513.74 542.58
C 513.68 519.08 512.50 514.66 504.22 507.41
L 499.46 503.23
L 291.04 503.23
C 84.33 503.23 82.59 503.20 80.03 500.65
C 78.43 499.05 77.45 496.35 77.45 493.55
C 77.45 490.75 78.43 488.05 80.03 486.45
C 82.51 483.97 84.33 483.87 125.86 483.87
L 169.10 483.87
L 169.10 300.06
L 169.10 116.25
L 164.26 115.39
C 161.60 114.92 152.45 112.85 143.93 110.80
C 109.09 102.40 60.71 95.55 35.12 95.38
C 13.18 95.23 4.00 94.01 1.77 90.95
C 0.40 89.08 0.00 82.18 0.00 60.31
C 0.00 44.36 0.56 31.06 1.27 29.73
C 3.23 26.05 12.47 24.74 41.31 24.00
C 77.53 23.06 116.73 17.41 140.70 9.65
C 152.09 5.96 174.21 0.01 176.52 0.00
C 177.41 0.00 179.30 1.16 180.72 2.58
C 183.28 5.15 183.30 6.88 183.30 244.52
L 183.30 483.87
L 316.90 483.87
L 450.50 483.87
L 450.50 300.81
L 450.50 117.75
L 445.01 116.31
C 410.35 107.14 337.47 95.57 313.08 95.38
C 294.44 95.21 285.30 93.87 283.17 90.95
C 281.80 89.08 281.40 82.09 281.40 59.75
C 281.40 32.97 281.57 30.80 283.90 28.46
C 287.30 25.07 290.38 24.74 324.00 24.00
C 370.39 22.98 406.82 16.66 448.05 2.49
C 457.13 -0.63 458.92 -0.62 462.12 2.58
C 464.69 5.15 464.70 6.88 464.70 244.52
L 464.70 483.87
L 488.37 483.87
C 515.31 483.87 526.06 485.82 539.88 493.17
C 549.94 498.54 562.31 510.88 567.64 520.89
C 573.59 532.03 577.46 549.28 576.60 560.65
C 575.15 579.34 568.44 592.99 558.44 597.54
C 551.65 600.62 545.50 600.59 538.58 597.45
M 556.35 589.78
C 568.22 581.42 573.00 557.72 566.79 537.97
C 561.50 521.11 548.33 505.81 532.47 498.04
C 515.75 489.86 529.83 490.32 298.81 490.32
C 139.16 490.32 87.93 490.68 86.77 491.85
C 81.79 496.83 79.72 496.77 296.31 496.77
L 504.52 496.77
L 508.51 500.14
C 510.72 501.99 514.10 506.19 516.03 509.50
C 519.47 515.32 519.57 516.17 520.26 540.65
C 520.86 562.35 521.33 566.61 523.62 571.68
C 527.39 579.99 533.45 586.39 541.18 590.25
C 548.19 593.73 550.83 593.65 556.35 589.78
M 178.78 245.15
C 178.78 9.25 178.77 8.39 176.20 8.39
C 173.63 8.39 173.62 9.35 173.28 243.87
C 173.10 373.39 173.24 480.13 173.60 481.06
C 173.96 482.00 175.27 482.58 176.52 482.34
C 178.66 481.92 178.78 469.75 178.78 245.15
M 460.18 245.15
C 460.18 9.25 460.17 8.39 457.60 8.39
C 455.03 8.39 455.02 9.35 454.68 243.87
C 454.50 373.39 454.64 480.13 455.00 481.06
C 455.37 482.00 456.67 482.58 457.92 482.34
C 460.06 481.92 460.18 469.75 460.18 245.15
M 169.10 61.26
L 169.10 12.85
L 166.18 11.52
C 163.88 10.48 160.19 11.16 148.79 14.72
C 122.45 22.99 82.92 29.24 49.83 30.39
C 17.93 31.50 11.68 32.19 8.92 34.95
C 6.69 37.19 6.45 39.51 6.45 60.00
C 6.45 80.86 6.65 82.77 9.04 85.16
C 10.46 86.58 12.06 87.75 12.59 87.78
C 71.18 89.90 104.72 94.27 155.54 106.41
C 162.64 108.10 168.60 109.54 168.78 109.59
C 168.96 109.64 169.10 87.90 169.10 61.26
M 450.50 61.91
L 450.50 14.14
L 447.31 12.68
C 444.69 11.50 441.91 11.94 431.50 15.21
C 404.52 23.72 364.56 29.56 327.22 30.46
C 285.00 31.50 287.85 29.41 287.85 59.21
C 287.85 78.05 288.16 81.38 290.11 83.75
C 292.84 87.07 303.15 89.01 318.19 89.03
C 334.62 89.05 385.73 96.32 418.23 103.28
C 432.93 106.43 445.44 108.93 449.53 109.54
C 450.06 109.61 450.50 88.18 450.50 61.91"/>
<path fill="#c57a36" stroke="none" d="
M 541.18 590.25
C 533.45 586.39 527.39 579.99 523.62 571.68
C 521.33 566.61 520.86 562.35 520.26 540.65
C 519.57 516.17 519.47 515.32 516.03 509.50
C 514.10 506.19 510.72 501.99 508.51 500.14
L 504.52 496.77
L 296.31 496.77
C 79.72 496.77 81.79 496.83 86.77 491.85
C 87.93 490.68 139.16 490.32 298.81 490.32
C 529.83 490.32 515.75 489.86 532.47 498.04
C 548.33 505.81 561.50 521.11 566.79 537.97
C 574.15 561.35 566.12 588.34 550.47 592.80
C 548.91 593.25 545.13 592.21 541.18 590.25"/>
<path fill="#c57a36" stroke="none" d="
M 173.87 481.77
C 173.38 481.26 172.97 374.76 172.97 245.08
C 172.97 26.18 173.13 9.25 175.13 8.48
C 176.30 8.03 177.76 8.14 178.35 8.74
C 178.95 9.33 179.28 116.04 179.10 245.86
C 178.82 457.78 178.57 481.94 176.78 482.28
C 175.68 482.49 174.38 482.26 173.87 481.77"/>
<path fill="#c57a36" stroke="none" d="
M 455.00 481.06
C 454.64 480.13 454.50 373.39 454.68 243.87
C 455.02 9.35 455.03 8.39 457.60 8.39
C 460.17 8.39 460.18 9.25 460.18 245.15
C 460.18 469.75 460.06 481.92 457.92 482.34
C 456.67 482.58 455.37 482.00 455.00 481.06"/>
<path fill="#ae3c2a" stroke="none" d="
M 155.54 106.31
C 101.82 93.88 71.02 89.90 12.59 87.78
C 12.06 87.75 10.46 86.58 9.04 85.16
C 6.65 82.77 6.45 80.86 6.45 60.00
C 6.45 39.51 6.69 37.19 8.92 34.95
C 11.68 32.19 17.93 31.50 49.83 30.39
C 81.45 29.29 122.69 22.95 146.44 15.54
C 162.58 10.49 164.50 10.15 166.97 11.96
C 168.94 13.41 169.10 17.88 168.79 61.42
L 168.45 109.29
L 155.54 106.31"/>
<path fill="#ae3c2a" stroke="none" d="
M 442.11 108.19
C 438.56 107.55 427.82 105.33 418.23 103.28
C 385.73 96.32 334.62 89.05 318.19 89.03
C 303.15 89.01 292.84 87.07 290.11 83.75
C 288.16 81.38 287.85 78.05 287.85 59.21
C 287.85 29.41 285.00 31.50 327.22 30.46
C 364.56 29.56 404.52 23.72 431.50 15.21
C 441.91 11.94 444.69 11.50 447.31 12.68
L 450.50 14.14
L 450.50 61.91
C 450.50 88.18 450.06 109.61 449.53 109.54
C 449.00 109.46 445.66 108.85 442.11 108.19"/>
</g>
</svg>
