<?xml version="1.0" encoding="UTF-8" standalone="no"?>
<!DOCTYPE svg PUBLIC "-//W3C//DTD SVG 1.1//EN"
"http://www.w3.org/Graphics/SVG/1.1/DTD/svg11.dtd">
<svg width="561px" height="600px"
xmlns="http://www.w3.org/2000/svg" version="1.1">
<g transform="translate(0000, 0000) scale(1.0000, 1.0000)">
<path fill="#000000" stroke="none" d="
M 2.61 597.39
C -0.74 594.04 -0.68 591.37 3.17 575.01
C 4.92 567.59 8.47 548.61 11.06 532.83
C 16.61 499.06 20.43 481.55 26.15 463.70
C 44.18 407.35 74.13 358.24 113.66 320.22
C 130.70 303.82 145.39 292.85 170.26 277.93
C 196.74 262.04 209.19 256.34 227.58 251.70
C 236.14 249.55 243.43 247.50 243.77 247.15
C 244.11 246.81 244.44 241.79 244.50 236.00
C 244.65 223.33 243.30 221.74 232.53 221.74
C 226.44 221.74 224.97 221.22 221.52 217.75
C 217.89 214.13 217.60 213.21 218.27 207.64
C 218.69 204.27 220.71 197.41 222.78 192.39
C 228.08 179.54 240.66 142.46 244.45 128.48
C 256.35 84.63 263.60 62.61 269.41 52.70
C 291.56 14.91 344.82 -4.24 412.18 1.33
C 460.33 5.32 488.10 16.25 509.77 39.77
C 543.49 76.36 558.00 142.62 560.27 270.40
C 561.04 314.22 560.79 316.16 553.86 319.32
C 551.98 320.17 545.62 320.87 539.73 320.88
C 533.85 320.88 524.20 321.26 518.27 321.72
L 507.51 322.57
L 507.51 336.78
C 507.51 352.76 506.00 357.39 499.72 360.63
C 494.23 363.47 364.51 363.61 359.03 360.78
C 355.19 358.80 350.91 351.95 348.34 343.70
C 345.89 335.80 338.26 321.74 333.23 315.89
C 330.78 313.02 325.98 309.30 322.57 307.62
C 316.80 304.79 315.03 304.60 296.16 304.89
C 273.45 305.23 263.38 303.48 256.09 297.91
C 250.47 293.63 247.91 289.63 246.38 282.74
C 243.11 267.93 242.85 267.39 238.61 267.39
C 233.57 267.39 217.42 272.79 207.56 277.77
C 197.98 282.60 172.44 298.00 160.09 306.38
C 101.31 346.29 55.67 415.40 35.29 495.37
C 33.78 501.31 30.18 520.38 27.29 537.76
C 21.11 575.00 18.87 585.86 16.01 592.58
C 12.76 600.20 7.36 602.14 2.61 597.39
M 13.10 580.51
C 14.60 574.50 18.43 554.05 21.63 535.07
C 27.85 497.96 30.28 487.23 37.40 465.17
C 56.22 406.90 91.18 353.06 132.93 318.05
C 152.32 301.80 186.00 280.12 206.87 270.50
C 217.22 265.71 234.02 260.87 240.26 260.87
C 243.34 260.87 243.97 260.32 243.97 257.65
C 243.97 254.70 243.59 254.49 239.73 255.22
C 220.00 258.95 203.79 266.05 174.17 283.90
C 150.44 298.21 135.58 309.37 118.88 325.43
C 79.35 363.46 49.39 412.57 31.36 468.91
C 25.68 486.68 21.83 504.23 16.39 537.39
C 13.84 552.81 10.54 570.89 9.03 577.55
C 6.39 589.17 6.44 595.38 9.15 592.68
C 9.82 592.00 11.61 586.53 13.10 580.51
M 497.11 352.13
C 499.50 349.75 499.73 348.09 499.39 335.58
L 499.03 321.69
L 493.01 320.15
C 478.48 316.46 466.40 306.89 453.88 289.17
C 445.20 276.87 433.87 254.26 431.16 243.81
C 427.76 230.70 427.69 230.62 419.00 231.60
C 401.96 233.53 393.80 222.46 398.24 203.48
C 399.73 197.17 400.32 196.30 403.16 196.30
C 406.05 196.30 406.36 196.80 406.09 200.87
C 404.90 218.33 404.99 219.27 408.17 221.86
C 411.64 224.66 414.70 224.92 421.62 223.00
C 425.51 221.92 428.03 219.50 435.09 210.01
C 453.94 184.71 462.32 166.89 462.43 151.87
C 462.49 145.25 461.85 142.88 458.55 137.54
C 451.16 125.58 437.46 120.10 425.93 124.51
C 418.83 127.21 416.89 130.51 414.12 144.44
C 413.03 150.01 411.49 156.20 410.72 158.19
C 407.33 166.94 395.62 170.00 389.37 163.76
C 386.69 161.07 386.18 159.30 386.18 152.73
C 386.18 131.78 378.65 116.79 364.65 109.89
C 353.21 104.24 347.32 103.67 304.69 104.13
C 282.48 104.35 263.25 105.10 261.97 105.80
C 258.73 107.53 256.44 112.55 253.77 123.91
C 251.11 135.22 239.46 170.79 232.21 189.78
C 225.20 208.16 225.20 208.19 228.07 211.06
C 229.79 212.78 233.31 213.81 239.60 214.43
C 251.00 215.56 258.20 213.48 260.66 208.37
C 262.59 204.33 265.01 203.79 267.53 206.84
C 270.40 210.30 265.77 217.12 258.54 220.08
L 252.54 222.55
L 252.33 235.79
L 252.12 249.03
L 258.16 249.81
C 261.48 250.24 265.07 250.72 266.14 250.87
C 267.21 251.00 268.26 252.10 268.50 253.30
C 268.82 255.00 266.83 256.11 259.70 258.23
C 254.64 259.75 250.49 261.34 250.49 261.77
C 250.49 265.06 255.10 284.40 256.55 287.27
C 257.55 289.24 260.85 292.16 263.89 293.78
C 269.02 296.52 271.09 296.73 293.55 296.80
C 315.79 296.87 318.22 297.12 324.47 299.88
C 336.98 305.40 349.86 323.01 356.74 344.02
C 357.98 347.79 360.24 351.74 361.78 352.83
C 364.18 354.50 373.90 354.78 429.52 354.78
C 493.08 354.78 494.51 354.73 497.11 352.13"/>
<path fill="#000000" stroke="none" d="
M 288.98 157.79
C 283.96 156.48 276.26 155.39 271.89 155.32
C 264.11 155.22 255.71 153.22 255.71 151.47
C 255.71 150.99 261.44 144.95 268.43 138.04
C 280.33 126.30 287.13 121.30 291.22 121.30
C 292.18 121.30 302.60 125.40 314.38 130.42
C 336.16 139.68 339.48 140.92 349.32 143.45
C 361.08 146.48 354.60 149.56 323.29 155.82
C 310.60 158.36 299.74 160.37 299.16 160.29
C 298.58 160.20 294.00 159.08 288.98 157.79
M 302.26 150.64
C 307.65 148.38 310.43 145.29 310.43 141.52
C 310.43 137.75 307.65 134.66 302.26 132.40
C 295.59 129.61 294.49 129.95 298.18 133.63
C 300.38 135.85 301.37 138.29 301.37 141.52
C 301.37 144.76 300.38 147.20 298.18 149.41
C 294.49 153.09 295.59 153.43 302.26 150.64"/>
<path fill="#ae3c2a" stroke="none" d="
M 361.78 352.83
C 360.24 351.74 357.98 347.79 356.74 344.02
C 349.86 323.01 336.98 305.40 324.47 299.88
C 318.22 297.12 315.79 296.87 293.55 296.80
C 271.09 296.73 269.02 296.52 263.89 293.78
C 260.85 292.16 257.55 289.24 256.55 287.27
C 255.10 284.40 250.49 265.06 250.49 261.77
C 250.49 261.34 254.64 259.75 259.70 258.23
C 266.83 256.11 268.82 255.00 268.50 253.30
C 268.26 252.10 267.21 251.00 266.14 250.87
C 265.07 250.72 261.48 250.24 258.16 249.81
L 252.12 249.03
L 252.33 235.79
L 252.54 222.55
L 258.54 220.08
C 265.77 217.12 270.40 210.30 267.53 206.84
C 265.01 203.79 262.59 204.33 260.66 208.37
C 258.20 213.48 251.00 215.56 239.60 214.43
C 233.31 213.81 229.79 212.78 228.07 211.06
C 225.20 208.19 225.20 208.16 232.21 189.78
C 239.46 170.79 251.11 135.22 253.77 123.91
C 256.44 112.57 258.73 107.53 261.97 105.80
C 263.24 105.12 282.46 104.36 304.68 104.13
C 347.32 103.67 353.20 104.23 364.65 109.89
C 378.65 116.79 386.18 131.78 386.18 152.73
C 386.18 159.30 386.69 161.07 389.37 163.76
C 395.62 170.00 407.33 166.94 410.72 158.19
C 411.49 156.20 413.03 150.01 414.12 144.44
C 416.89 130.51 418.83 127.21 425.93 124.51
C 437.46 120.10 451.16 125.58 458.55 137.54
C 468.06 152.93 460.71 175.62 435.09 210.01
C 428.03 219.50 425.51 221.92 421.62 223.00
C 414.70 224.92 411.64 224.66 408.17 221.86
C 404.99 219.27 404.90 218.33 406.09 200.87
C 406.36 196.80 406.05 196.30 403.16 196.30
C 400.32 196.30 399.73 197.17 398.24 203.48
C 393.80 222.46 401.96 233.53 419.00 231.60
C 427.69 230.62 427.76 230.70 431.16 243.81
C 433.87 254.26 445.20 276.87 453.88 289.17
C 466.40 306.89 478.48 316.46 493.01 320.15
L 499.03 321.69
L 499.39 335.58
C 499.97 356.80 507.30 354.78 429.52 354.78
C 373.90 354.78 364.18 354.50 361.78 352.83
M 323.29 155.82
C 354.60 149.56 361.08 146.48 349.32 143.45
C 339.48 140.92 336.16 139.68 314.38 130.42
C 302.60 125.40 292.18 121.30 291.22 121.30
C 287.13 121.30 280.33 126.30 268.43 138.04
C 261.44 144.95 255.71 150.99 255.71 151.47
C 255.71 153.22 264.11 155.22 271.89 155.32
C 276.26 155.39 283.96 156.48 288.98 157.79
C 294.00 159.08 298.58 160.20 299.16 160.29
C 299.74 160.37 310.60 158.36 323.29 155.82"/>
<path fill="#fefefe" stroke="none" d="
M 298.18 149.41
C 302.21 145.37 302.42 138.64 298.67 133.87
C 297.19 131.99 296.33 130.43 296.76 130.43
C 299.04 130.43 307.21 134.67 308.71 136.64
C 312.57 141.74 309.96 147.42 302.26 150.64
C 295.59 153.43 294.49 153.09 298.18 149.41"/>
<path fill="#cf9e66" stroke="none" d="
M 7.10 591.80
C 6.65 590.62 7.51 584.22 9.03 577.55
C 10.54 570.89 13.84 552.81 16.39 537.39
C 21.83 504.23 25.68 486.68 31.36 468.91
C 49.39 412.57 79.35 363.46 118.88 325.43
C 135.58 309.37 150.44 298.21 174.17 283.90
C 204.06 265.88 219.14 259.23 237.77 255.82
C 243.75 254.73 243.97 254.80 243.97 257.78
C 243.97 260.31 243.29 260.87 240.26 260.87
C 234.02 260.87 217.22 265.71 206.87 270.50
C 186.00 280.12 152.32 301.80 132.93 318.05
C 91.18 353.06 56.22 406.90 37.40 465.17
C 30.28 487.23 27.85 497.96 21.63 535.07
C 13.76 581.88 9.58 598.24 7.10 591.80"/>
</g>
</svg>
