<?xml version="1.0" encoding="UTF-8" standalone="no"?>
<!DOCTYPE svg PUBLIC "-//W3C//DTD SVG 1.1//EN"
"http://www.w3.org/Graphics/SVG/1.1/DTD/svg11.dtd">
<svg width="600px" height="310px"
xmlns="http://www.w3.org/2000/svg" version="1.1">
<g transform="translate(0000, 0000) scale(1.0000, 1.0000)">
<path fill="#000000" stroke="none" d="
M 2.35 307.65
C -1.09 304.21 -0.68 298.35 3.39 292.86
C 5.26 290.34 13.47 281.15 21.64 272.42
C 35.15 257.99 48.14 241.44 48.14 238.63
C 48.14 238.02 45.24 233.62 41.71 228.85
C 34.56 219.21 33.41 215.49 34.46 205.38
C 35.37 196.74 37.56 191.43 43.41 183.67
L 48.00 177.60
L 42.32 170.55
C 39.18 166.66 36.00 162.33 35.24 160.89
C 33.24 157.16 34.68 152.83 38.24 151.94
C 43.42 150.64 49.32 152.37 64.53 159.67
C 76.36 165.35 81.46 167.12 90.00 168.50
C 95.88 169.45 101.55 170.56 102.61 170.97
C 103.87 171.45 105.53 170.55 107.44 168.34
C 113.74 161.05 134.83 135.24 139.90 128.58
C 147.53 118.59 155.47 111.55 159.12 111.55
C 162.93 111.55 167.91 116.43 167.91 120.14
C 167.91 123.32 163.71 130.07 157.94 136.21
C 151.74 142.79 120.94 179.81 120.96 180.66
C 121.02 182.85 132.33 193.07 137.01 195.14
C 142.36 197.51 143.00 197.52 201.24 196.06
C 280.18 194.09 314.68 194.83 335.81 198.92
C 355.98 202.82 369.96 203.87 376.91 202.00
C 384.56 199.96 394.56 189.29 404.45 172.59
C 412.16 159.61 435.98 122.30 456.21 91.52
C 468.47 72.89 484.97 50.68 496.88 36.78
C 511.12 20.17 521.44 11.21 532.79 5.59
C 542.25 0.89 543.22 0.67 553.46 0.66
C 564.85 0.65 569.28 1.73 580.63 7.27
C 601.87 17.65 605.30 35.05 590.86 59.30
C 588.56 63.17 582.62 71.63 577.68 78.09
C 572.74 84.55 557.14 105.94 543.04 125.64
C 515.10 164.68 497.86 187.89 483.33 206.08
C 445.44 253.50 435.43 264.33 421.98 272.42
C 416.08 275.98 413.98 276.58 406.31 276.92
C 395.52 277.38 333.49 269.82 287.67 262.44
C 193.67 247.33 165.78 245.01 124.65 248.87
C 107.15 250.51 106.06 250.48 86.77 247.75
C 69.41 245.29 66.70 245.15 65.30 246.64
C 64.41 247.59 53.27 261.03 40.53 276.53
C 27.80 292.03 15.73 305.90 13.71 307.36
C 9.18 310.62 5.41 310.72 2.35 307.65
M 35.15 273.01
C 47.46 258.81 57.36 246.66 57.15 246.00
C 56.92 245.36 56.10 244.83 55.32 244.83
C 54.52 244.83 43.10 257.23 29.94 272.39
C 11.28 293.88 6.31 300.30 7.32 301.52
C 8.94 303.48 7.24 305.21 35.15 273.01
M 417.82 266.46
C 427.48 261.63 437.93 250.97 461.67 221.72
C 486.86 190.69 504.36 167.53 537.42 121.53
C 552.27 100.87 568.81 78.16 574.17 71.07
C 599.69 37.28 598.79 21.36 570.70 10.36
C 560.75 6.46 546.42 6.66 537.44 10.84
C 524.81 16.71 512.38 28.49 491.28 54.60
C 478.12 70.89 434.41 136.69 408.68 178.94
C 389.38 210.65 380.92 213.98 338.75 206.51
L 316.44 202.56
L 268.88 202.56
C 242.72 202.56 202.58 202.82 179.65 203.14
L 137.96 203.73
L 132.68 200.96
C 129.78 199.43 123.66 194.64 119.11 190.31
C 108.95 180.67 103.55 177.98 89.45 175.56
C 76.99 173.42 71.67 171.52 56.44 163.72
C 50.10 160.48 45.22 158.63 44.59 159.25
C 42.92 160.93 52.44 172.36 57.89 175.19
C 60.60 176.59 68.89 179.42 76.32 181.47
C 87.83 184.63 89.88 185.55 90.20 187.71
C 90.42 189.23 89.80 190.53 88.64 190.98
C 87.57 191.39 79.53 189.76 70.76 187.36
C 55.02 183.06 54.77 183.03 51.89 185.19
C 46.58 189.16 42.00 198.95 41.41 207.63
C 40.92 214.99 41.13 215.84 44.81 221.33
C 50.63 230.05 56.82 235.74 61.87 237.03
C 64.33 237.65 75.45 239.38 86.58 240.86
C 105.45 243.36 107.88 243.44 122.40 242.05
C 167.06 237.74 186.72 239.31 288.26 255.40
C 310.22 258.87 342.19 263.36 359.30 265.36
C 376.40 267.36 390.94 269.20 391.59 269.44
C 392.23 269.69 396.77 269.93 401.67 269.98
C 409.39 270.06 411.56 269.58 417.82 266.46
M 129.57 158.95
C 138.21 148.49 143.15 142.56 150.89 133.41
C 161.52 120.83 161.13 121.45 159.32 119.96
C 158.09 118.94 154.77 122.17 143.75 135.16
C 136.05 144.23 125.89 156.16 121.17 161.66
C 113.98 170.05 112.84 171.93 114.08 173.42
C 115.69 175.36 117.04 174.10 129.57 158.95"/>
<path fill="#ae3c2a" stroke="none" d="
M 391.59 269.44
C 390.94 269.20 376.40 267.36 359.30 265.36
C 342.19 263.36 310.22 258.87 288.26 255.40
C 186.72 239.31 167.06 237.74 122.40 242.05
C 107.88 243.44 105.45 243.36 86.58 240.86
C 75.45 239.38 64.33 237.65 61.87 237.03
C 56.82 235.74 50.63 230.05 44.81 221.33
C 41.13 215.84 40.92 214.99 41.41 207.63
C 42.00 198.95 46.58 189.16 51.89 185.19
C 54.77 183.03 55.02 183.06 70.76 187.36
C 79.53 189.76 87.57 191.39 88.64 190.98
C 89.80 190.53 90.42 189.23 90.20 187.71
C 89.88 185.55 87.83 184.63 76.32 181.47
C 68.89 179.42 60.60 176.59 57.89 175.19
C 52.44 172.36 42.92 160.93 44.59 159.25
C 45.22 158.63 50.10 160.48 56.44 163.72
C 71.67 171.52 76.99 173.42 89.45 175.56
C 103.55 177.98 108.95 180.67 119.11 190.31
C 123.66 194.64 129.78 199.43 132.68 200.96
L 137.96 203.73
L 179.65 203.14
C 202.58 202.82 242.72 202.56 268.88 202.56
L 316.44 202.56
L 338.75 206.51
C 380.92 213.98 389.38 210.65 408.68 178.94
C 434.41 136.69 478.12 70.89 491.28 54.60
C 512.43 28.44 524.86 16.65 537.44 10.87
C 546.49 6.72 560.85 6.48 570.70 10.36
C 598.79 21.37 599.69 37.28 574.17 71.07
C 568.81 78.16 552.27 100.87 537.42 121.53
C 504.36 167.53 486.86 190.69 461.67 221.72
C 428.35 262.77 419.17 270.17 401.67 269.98
C 396.77 269.93 392.23 269.69 391.59 269.44"/>
<path fill="#c57a36" stroke="none" d="
M 7.32 301.52
C 6.31 300.30 11.28 293.88 29.94 272.39
C 43.10 257.23 54.52 244.83 55.32 244.83
C 56.10 244.83 56.92 245.36 57.15 246.00
C 57.36 246.66 47.46 258.81 35.15 273.01
C 7.24 305.21 8.94 303.48 7.32 301.52"/>
<path fill="#c57a36" stroke="none" d="
M 114.08 173.42
C 112.84 171.93 113.98 170.05 121.17 161.66
C 125.89 156.16 135.82 144.49 143.25 135.73
C 150.67 126.96 157.39 119.78 158.15 119.78
C 161.57 119.76 160.22 122.46 151.94 132.23
C 142.27 143.63 138.20 148.51 129.57 158.95
C 117.04 174.10 115.69 175.36 114.08 173.42"/>
</g>
</svg>
