<?xml version="1.0" encoding="UTF-8" standalone="no"?>
<!DOCTYPE svg PUBLIC "-//W3C//DTD SVG 1.1//EN"
"http://www.w3.org/Graphics/SVG/1.1/DTD/svg11.dtd">
<svg width="256px" height="600px"
xmlns="http://www.w3.org/2000/svg" version="1.1">
<g transform="translate(0000, 0000) scale(1.0000, 1.0000)">
<path fill="#000000" stroke="none" d="
M 99.20 596.79
C 72.02 591.79 51.58 581.06 33.83 562.49
C 16.55 544.38 8.41 527.89 3.11 500.28
C -3.56 465.51 2.37 427.94 18.75 401.06
C 30.38 382.00 53.44 362.72 74.39 354.53
C 87.06 349.57 113.73 344.68 128.00 344.68
C 142.27 344.68 168.94 349.57 181.61 354.53
C 210.84 365.96 235.78 391.47 246.89 421.28
C 261.53 460.57 256.79 513.17 235.67 545.74
C 208.45 587.72 156.20 607.28 99.20 596.79
M 147.48 588.38
C 175.17 583.11 191.70 574.98 209.86 557.74
C 229.23 539.34 239.34 519.53 244.54 489.89
C 247.21 474.62 247.21 470.06 244.54 454.79
C 239.53 426.21 231.36 409.30 213.63 390.70
C 195.43 371.66 176.17 361.74 146.37 356.09
C 94.40 346.21 38.06 377.62 18.41 427.43
C 16.38 432.55 13.25 444.53 11.43 454.02
C 4.82 488.68 16.70 527.09 42.37 553.98
C 60.12 572.55 80.55 583.28 107.73 588.28
C 127.72 591.96 128.73 591.96 147.48 588.38"/>
<path fill="#000000" stroke="none" d="
M 99.20 252.11
C 72.02 247.11 51.58 236.38 33.83 217.81
C 16.55 199.70 8.41 183.21 3.11 155.60
C -3.56 120.83 2.37 83.26 18.75 56.38
C 30.44 37.23 53.42 18.04 74.65 9.74
C 86.59 5.09 114.92 0.00 129.07 0.00
C 142.40 0.00 169.30 5.04 181.61 9.85
C 210.84 21.28 235.78 46.79 246.89 76.60
C 261.53 115.89 256.79 168.49 235.67 201.06
C 208.45 243.04 156.20 262.60 99.20 252.11
M 147.48 243.70
C 175.17 238.43 191.70 230.30 209.86 213.06
C 229.23 194.66 239.34 174.85 244.54 145.21
C 247.21 129.94 247.21 125.38 244.54 110.11
C 239.53 81.53 231.36 64.62 213.63 46.02
C 195.43 26.98 176.17 17.06 146.37 11.40
C 94.40 1.53 38.06 32.94 18.41 82.74
C 16.38 87.87 13.25 99.85 11.43 109.34
C 4.82 144.00 16.70 182.40 42.37 209.30
C 60.12 227.87 80.55 238.60 107.73 243.60
C 127.72 247.28 128.73 247.28 147.48 243.70"/>
<path fill="#000000" stroke="none" d="
M 113.07 579.55
C 91.24 575.55 66.88 562.19 50.90 545.47
C 29.57 523.13 20.63 501.53 20.63 472.34
C 20.63 456.28 21.65 449.51 25.58 439.36
C 38.29 406.55 62.12 382.79 94.93 370.17
C 113.07 363.21 142.93 363.21 161.07 370.17
C 193.88 382.79 217.71 406.55 230.42 439.36
C 237.44 457.45 237.44 487.19 230.44 505.32
C 213.91 548.06 175.87 577.30 133.67 579.68
C 125.27 580.15 116.01 580.11 113.07 579.55
M 152.53 565.51
C 192.85 551.66 226.52 509.26 226.52 472.34
C 226.52 459.68 220.35 440.66 211.69 426.60
C 193.77 397.51 156.44 374.09 128.00 374.09
C 82.05 374.09 29.48 426.51 29.48 472.34
C 29.48 509.23 62.95 551.43 103.47 565.60
C 124.59 572.98 130.84 572.98 152.53 565.51"/>
<path fill="#000000" stroke="none" d="
M 113.07 234.87
C 110.12 234.34 101.97 231.89 94.93 229.43
C 63.25 218.34 38.40 193.68 25.58 160.64
C 18.56 142.53 18.56 112.79 25.58 94.68
C 38.29 61.87 62.12 38.11 94.93 25.49
C 113.07 18.53 142.93 18.53 161.07 25.49
C 193.88 38.11 217.71 61.87 230.42 94.68
C 237.44 112.77 237.44 142.51 230.44 160.64
C 213.91 203.38 175.87 232.62 133.67 235.00
C 125.27 235.47 116.01 235.43 113.07 234.87
M 152.53 220.83
C 192.85 206.98 226.52 164.57 226.52 127.66
C 226.52 115.00 220.35 95.98 211.69 81.91
C 193.77 52.83 156.44 29.40 128.00 29.40
C 82.05 29.40 29.48 81.83 29.48 127.66
C 29.48 164.55 62.95 206.74 103.47 220.91
C 124.59 228.30 130.84 228.30 152.53 220.83"/>
<path fill="#797979" stroke="none" d="
M 107.73 588.28
C 64.73 580.36 31.89 553.60 17.71 514.89
C 9.73 493.09 7.70 473.51 11.43 454.02
C 16.92 425.34 24.90 409.02 42.37 390.70
C 60.93 371.28 82.62 360.47 113.07 355.45
C 126.55 353.21 131.78 353.32 146.37 356.09
C 176.17 361.74 195.43 371.66 213.63 390.70
C 231.36 409.30 239.53 426.21 244.54 454.79
C 250.99 491.64 237.61 531.36 209.86 557.74
C 191.70 574.98 175.17 583.11 147.48 588.38
C 128.73 591.96 127.72 591.96 107.73 588.28
M 161.41 574.17
C 193.49 562.26 217.79 538.02 230.44 505.32
C 237.44 487.19 237.44 457.45 230.42 439.36
C 217.71 406.55 193.88 382.79 161.07 370.17
C 142.93 363.21 113.07 363.21 94.93 370.17
C 62.12 382.79 38.29 406.55 25.58 439.36
C 18.56 457.47 18.56 487.21 25.58 505.32
C 38.40 538.36 63.25 563.02 94.93 574.11
C 101.97 576.57 110.12 579.02 113.07 579.55
C 123.80 581.53 149.25 578.70 161.41 574.17"/>
<path fill="#797979" stroke="none" d="
M 107.73 243.60
C 64.73 235.68 31.89 208.91 17.71 170.21
C 9.73 148.40 7.70 128.83 11.43 109.34
C 16.92 80.66 24.90 64.34 42.37 46.02
C 61.01 26.51 83.54 15.43 114.37 10.60
C 126.61 8.68 132.78 8.85 146.60 11.47
C 176.13 17.04 195.48 27.02 213.63 46.02
C 231.36 64.62 239.53 81.53 244.54 110.11
C 250.99 146.96 237.61 186.68 209.86 213.06
C 191.70 230.30 175.17 238.43 147.48 243.70
C 128.73 247.28 127.72 247.28 107.73 243.60
M 161.41 229.49
C 193.49 217.57 217.79 193.34 230.44 160.64
C 237.44 142.51 237.44 112.77 230.42 94.68
C 217.71 61.87 193.88 38.11 161.07 25.49
C 142.93 18.53 113.07 18.53 94.93 25.49
C 62.12 38.11 38.29 61.87 25.58 94.68
C 18.56 112.79 18.56 142.53 25.58 160.64
C 38.40 193.68 63.25 218.34 94.93 229.43
C 101.97 231.89 110.12 234.34 113.07 234.87
C 123.80 236.85 149.25 234.02 161.41 229.49"/>
</g>
</svg>
