<?xml version="1.0" encoding="UTF-8" standalone="no"?>
<!DOCTYPE svg PUBLIC "-//W3C//DTD SVG 1.1//EN"
"http://www.w3.org/Graphics/SVG/1.1/DTD/svg11.dtd">
<svg width="652px" height="300px"
xmlns="http://www.w3.org/2000/svg" version="1.1">
<g transform="translate(0000, 0000) scale(1.0000, 1.0000)">
<path fill="#000000" stroke="none" d="
M 136.73 298.38
C 123.07 295.86 112.79 290.46 103.87 281.11
C 95.18 271.99 91.09 263.69 88.43 249.78
C 85.07 232.27 88.05 213.35 96.29 199.82
C 102.13 190.22 113.72 180.51 124.26 176.39
C 130.63 173.89 144.03 171.43 151.20 171.43
C 158.38 171.43 171.78 173.89 178.15 176.39
C 192.84 182.14 205.38 194.99 210.97 210.00
C 218.32 229.79 215.94 256.27 205.33 272.68
C 191.64 293.82 165.38 303.66 136.73 298.38
M 160.99 294.15
C 174.91 291.49 183.22 287.40 192.35 278.72
C 202.09 269.45 207.17 259.48 209.79 244.55
C 211.13 236.86 211.13 234.57 209.79 226.88
C 207.27 212.49 203.16 203.97 194.25 194.60
C 185.10 185.01 175.42 180.02 160.44 177.17
C 134.31 172.20 105.99 188.01 96.12 213.10
C 95.10 215.68 93.52 221.71 92.61 226.49
C 89.29 243.94 95.26 263.28 108.16 276.82
C 117.08 286.18 127.35 291.58 141.02 294.10
C 151.06 295.95 151.57 295.95 160.99 294.15"/>
<path fill="#000000" stroke="none" d="
M 311.52 298.38
C 297.86 295.86 287.59 290.46 278.67 281.11
C 269.98 271.99 265.88 263.69 263.22 249.78
C 259.87 232.27 262.85 213.35 271.08 199.82
C 276.93 190.22 288.52 180.51 299.05 176.39
C 305.42 173.89 318.83 171.43 326.00 171.43
C 333.17 171.43 346.58 173.89 352.95 176.39
C 367.64 182.14 380.18 194.99 385.76 210.00
C 393.12 229.79 390.74 256.27 380.12 272.68
C 366.44 293.82 340.18 303.66 311.52 298.38
M 335.79 294.15
C 349.71 291.49 358.02 287.40 367.15 278.72
C 376.88 269.45 381.97 259.48 384.58 244.55
C 385.92 236.86 385.92 234.57 384.58 226.88
C 382.06 212.49 377.96 203.97 369.04 194.60
C 359.90 185.01 350.21 180.02 335.23 177.17
C 309.11 172.20 280.79 188.01 270.91 213.10
C 269.89 215.68 268.32 221.71 267.41 226.49
C 264.08 243.94 270.05 263.28 282.96 276.82
C 291.88 286.18 302.15 291.58 315.81 294.10
C 325.86 295.95 326.36 295.95 335.79 294.15"/>
<path fill="#000000" stroke="none" d="
M 484.17 298.46
C 470.35 295.78 460.19 290.41 451.32 281.11
C 442.63 271.99 438.53 263.69 435.87 249.78
C 432.52 232.27 435.50 213.35 443.74 199.82
C 449.58 190.22 461.17 180.51 471.70 176.39
C 478.07 173.89 491.48 171.43 498.65 171.43
C 505.83 171.43 519.23 173.89 525.60 176.39
C 540.29 182.14 552.83 194.99 558.41 210.00
C 565.76 229.75 563.40 256.08 552.83 272.68
C 545.47 284.21 532.33 293.60 518.31 297.38
C 509.63 299.71 493.31 300.22 484.17 298.46
M 508.44 294.15
C 522.36 291.49 530.67 287.40 539.80 278.72
C 549.54 269.45 554.62 259.48 557.23 244.55
C 558.58 236.86 558.58 234.57 557.23 226.88
C 554.71 212.49 550.61 203.97 541.70 194.60
C 532.55 185.01 522.87 180.02 507.88 177.17
C 481.76 172.20 453.44 188.01 443.56 213.10
C 442.55 215.68 440.97 221.71 440.06 226.49
C 436.73 243.94 442.71 263.28 455.61 276.82
C 464.53 286.18 474.80 291.58 488.46 294.10
C 498.51 295.95 499.02 295.95 508.44 294.15"/>
<path fill="#000000" stroke="none" d="
M 49.87 126.95
C 36.20 124.44 25.93 119.04 17.01 109.68
C 8.32 100.56 4.23 92.26 1.57 78.35
C -1.79 60.85 1.19 41.93 9.43 28.39
C 15.30 18.75 26.85 9.09 37.52 4.91
C 43.53 2.56 57.77 0.00 64.88 0.00
C 71.58 0.00 85.10 2.54 91.29 4.96
C 105.98 10.71 118.52 23.56 124.11 38.57
C 131.46 58.36 129.08 84.85 118.46 101.25
C 104.78 122.39 78.52 132.24 49.87 126.95
M 74.13 122.72
C 88.05 120.06 96.36 115.97 105.49 107.29
C 115.23 98.02 120.31 88.05 122.93 73.12
C 124.27 65.43 124.27 63.14 122.93 55.45
C 120.41 41.06 116.30 32.54 107.39 23.17
C 98.24 13.59 88.56 8.59 73.58 5.74
C 47.45 0.77 19.13 16.59 9.25 41.67
C 8.24 44.25 6.66 50.28 5.75 55.06
C 2.42 72.51 8.40 91.85 21.30 105.40
C 30.22 114.75 40.49 120.15 54.15 122.67
C 64.20 124.52 64.71 124.52 74.13 122.72"/>
<path fill="#000000" stroke="none" d="
M 224.66 126.95
C 211.00 124.44 200.73 119.04 191.80 109.68
C 183.12 100.56 179.02 92.26 176.36 78.35
C 173.01 60.85 175.99 41.93 184.22 28.39
C 190.07 18.79 201.66 9.09 212.19 4.96
C 218.56 2.46 231.96 0.00 239.14 0.00
C 246.31 0.00 259.72 2.46 266.09 4.96
C 280.78 10.71 293.31 23.56 298.90 38.57
C 306.26 58.36 303.88 84.85 293.26 101.25
C 279.58 122.39 253.31 132.24 224.66 126.95
M 248.93 122.72
C 262.85 120.06 271.16 115.97 280.28 107.29
C 290.02 98.02 295.11 88.05 297.72 73.12
C 299.06 65.43 299.06 63.14 297.72 55.45
C 295.20 41.06 291.09 32.54 282.18 23.17
C 273.04 13.59 263.35 8.59 248.37 5.74
C 222.25 0.77 193.93 16.59 184.05 41.67
C 183.03 44.25 181.46 50.28 180.54 55.06
C 177.22 72.51 183.19 91.85 196.09 105.40
C 205.02 114.75 215.29 120.15 228.95 122.67
C 239.00 124.52 239.50 124.52 248.93 122.72"/>
<path fill="#000000" stroke="none" d="
M 397.31 126.95
C 383.65 124.44 373.38 119.04 364.46 109.68
C 355.77 100.56 351.67 92.26 349.01 78.35
C 345.66 60.85 348.64 41.93 356.87 28.39
C 362.72 18.79 374.31 9.09 384.84 4.96
C 391.21 2.46 404.62 0.00 411.79 0.00
C 418.96 0.00 432.37 2.46 438.74 4.96
C 453.43 10.71 465.97 23.56 471.55 38.57
C 478.91 58.36 476.53 84.85 465.91 101.25
C 452.23 122.39 425.97 132.24 397.31 126.95
M 421.58 122.72
C 435.50 120.06 443.81 115.97 452.94 107.29
C 462.67 98.02 467.76 88.05 470.37 73.12
C 471.71 65.43 471.71 63.14 470.37 55.45
C 467.85 41.06 463.75 32.54 454.83 23.17
C 445.69 13.59 436.00 8.59 421.02 5.74
C 394.90 0.77 366.58 16.59 356.70 41.67
C 355.68 44.25 354.11 50.28 353.20 55.06
C 349.87 72.51 355.84 91.85 368.74 105.40
C 377.67 114.75 387.94 120.15 401.60 122.67
C 411.65 124.52 412.15 124.52 421.58 122.72"/>
<path fill="#000000" stroke="none" d="
M 573.18 126.95
C 559.52 124.44 549.25 119.04 540.32 109.68
C 531.64 100.56 527.54 92.26 524.88 78.35
C 521.52 60.85 524.51 41.93 532.74 28.39
C 538.59 18.79 550.18 9.09 560.71 4.96
C 567.08 2.46 580.48 0.00 587.66 0.00
C 594.83 0.00 608.24 2.46 614.61 4.96
C 629.30 10.71 641.83 23.56 647.42 38.57
C 654.78 58.36 652.40 84.85 641.78 101.25
C 628.10 122.39 601.83 132.24 573.18 126.95
M 597.45 122.72
C 611.37 120.06 619.68 115.97 628.80 107.29
C 638.54 98.02 643.62 88.05 646.24 73.12
C 647.58 65.43 647.58 63.14 646.24 55.45
C 643.72 41.06 639.61 32.54 630.70 23.17
C 621.56 13.59 611.87 8.59 596.89 5.74
C 570.77 0.77 542.45 16.59 532.57 41.67
C 531.55 44.25 529.98 50.28 529.06 55.06
C 525.74 72.51 531.71 91.85 544.61 105.40
C 553.54 114.75 563.81 120.15 577.47 122.67
C 587.52 124.52 588.02 124.52 597.45 122.72"/>
<path fill="#000000" stroke="none" d="
M 143.70 289.70
C 132.73 287.69 120.48 280.96 112.45 272.54
C 101.72 261.29 97.23 250.41 97.23 235.71
C 97.23 227.62 97.75 224.22 99.72 219.11
C 106.11 202.59 118.09 190.62 134.58 184.26
C 143.70 180.76 158.71 180.76 167.83 184.26
C 184.32 190.62 196.30 202.59 202.69 219.11
C 206.22 228.21 206.22 243.19 202.70 252.32
C 194.39 273.85 175.27 288.57 154.06 289.77
C 149.83 290.00 145.18 289.98 143.70 289.70
M 163.54 282.63
C 183.80 275.66 200.73 254.30 200.73 235.71
C 200.73 229.34 197.63 219.76 193.27 212.68
C 184.15 197.84 165.86 186.43 151.20 186.43
C 127.85 186.43 101.68 212.46 101.68 235.71
C 101.68 254.29 118.51 275.54 138.87 282.67
C 149.49 286.39 152.63 286.39 163.54 282.63"/>
<path fill="#000000" stroke="none" d="
M 318.49 289.70
C 307.52 287.69 295.28 280.96 287.24 272.54
C 276.52 261.29 272.03 250.41 272.03 235.71
C 272.03 227.62 272.54 224.22 274.52 219.11
C 280.91 202.59 292.89 190.62 309.38 184.26
C 318.49 180.76 333.51 180.76 342.62 184.26
C 359.11 190.62 371.09 202.59 377.48 219.11
C 381.01 228.21 381.01 243.19 377.50 252.32
C 369.18 273.85 350.06 288.57 328.85 289.77
C 324.63 290.00 319.97 289.98 318.49 289.70
M 338.33 282.63
C 358.60 275.66 375.52 254.30 375.52 235.71
C 375.52 229.34 372.42 219.76 368.07 212.68
C 358.94 197.84 340.66 186.43 326.00 186.43
C 302.64 186.43 276.48 212.46 276.48 235.71
C 276.48 254.29 293.30 275.54 313.67 282.67
C 324.28 286.39 327.43 286.39 338.33 282.63"/>
<path fill="#000000" stroke="none" d="
M 491.14 289.70
C 489.66 289.44 485.57 288.20 482.03 286.96
C 466.10 281.38 453.61 268.96 447.17 252.32
C 443.64 243.20 443.64 228.22 447.17 219.11
C 453.56 202.59 465.54 190.62 482.03 184.26
C 491.14 180.76 506.16 180.76 515.27 184.26
C 531.77 190.62 543.74 202.59 550.14 219.11
C 553.66 228.21 553.66 243.19 550.15 252.32
C 541.84 273.85 522.72 288.57 501.50 289.77
C 497.28 290.00 492.62 289.98 491.14 289.70
M 510.98 282.63
C 531.25 275.66 548.17 254.30 548.17 235.71
C 548.17 229.34 545.07 219.76 540.72 212.68
C 531.59 197.84 513.31 186.43 498.65 186.43
C 475.30 186.43 449.13 212.46 449.13 235.71
C 449.13 254.29 465.95 275.54 486.32 282.67
C 496.94 286.39 500.08 286.39 510.98 282.63"/>
<path fill="#000000" stroke="none" d="
M 56.84 118.27
C 55.36 118.01 51.26 116.77 47.72 115.53
C 31.80 109.95 19.30 97.53 12.86 80.89
C 9.33 71.77 9.33 56.80 12.86 47.68
C 19.25 31.16 31.23 19.19 47.72 12.84
C 56.84 9.33 71.85 9.33 80.96 12.84
C 97.46 19.19 109.44 31.16 115.83 47.68
C 119.35 56.79 119.35 71.76 115.84 80.89
C 107.53 102.42 88.41 117.14 67.19 118.34
C 62.97 118.58 58.32 118.55 56.84 118.27
M 76.67 111.20
C 96.94 104.23 113.86 82.87 113.86 64.29
C 113.86 57.91 110.76 48.33 106.41 41.25
C 97.40 26.60 78.64 14.81 64.34 14.81
C 41.24 14.81 14.82 41.21 14.82 64.29
C 14.82 82.86 31.65 104.11 52.01 111.25
C 62.63 114.96 65.77 114.96 76.67 111.20"/>
<path fill="#000000" stroke="none" d="
M 231.63 118.27
C 220.66 116.26 208.41 109.53 200.38 101.11
C 189.66 89.86 185.17 78.99 185.17 64.29
C 185.17 56.20 185.68 52.79 187.65 47.68
C 194.05 31.16 206.02 19.19 222.52 12.84
C 231.63 9.33 246.64 9.33 255.76 12.84
C 272.25 19.19 284.23 31.16 290.62 47.68
C 294.15 56.79 294.15 71.76 290.63 80.89
C 282.32 102.42 263.20 117.14 241.99 118.34
C 237.77 118.58 233.11 118.55 231.63 118.27
M 251.47 111.20
C 271.74 104.23 288.66 82.87 288.66 64.29
C 288.66 57.91 285.56 48.33 281.21 41.25
C 272.20 26.60 253.43 14.81 239.14 14.81
C 216.04 14.81 189.62 41.21 189.62 64.29
C 189.62 82.86 206.44 104.11 226.81 111.25
C 237.42 114.96 240.56 114.96 251.47 111.20"/>
<path fill="#000000" stroke="none" d="
M 404.28 118.27
C 402.80 118.01 398.71 116.77 395.17 115.53
C 379.24 109.95 366.75 97.53 360.31 80.89
C 356.78 71.77 356.78 56.80 360.31 47.68
C 366.70 31.16 378.67 19.19 395.17 12.84
C 404.28 9.33 419.30 9.33 428.41 12.84
C 444.90 19.19 456.88 31.16 463.27 47.68
C 466.80 56.79 466.80 71.76 463.28 80.89
C 454.97 102.42 435.85 117.14 414.64 118.34
C 410.42 118.58 405.76 118.55 404.28 118.27
M 424.12 111.20
C 444.39 104.23 461.31 82.87 461.31 64.29
C 461.31 57.91 458.21 48.33 453.86 41.25
C 444.85 26.60 426.08 14.81 411.79 14.81
C 388.69 14.81 362.27 41.21 362.27 64.29
C 362.27 82.86 379.09 104.11 399.46 111.25
C 410.07 114.96 413.22 114.96 424.12 111.20"/>
<path fill="#000000" stroke="none" d="
M 580.15 118.27
C 578.67 118.01 574.57 116.77 571.04 115.53
C 555.11 109.95 542.62 97.53 536.17 80.89
C 532.65 71.77 532.65 56.80 536.17 47.68
C 542.56 31.16 554.54 19.19 571.04 12.84
C 580.15 9.33 595.16 9.33 604.28 12.84
C 620.77 19.19 632.75 31.16 639.14 47.68
C 642.67 56.79 642.67 71.76 639.15 80.89
C 630.84 102.42 611.72 117.14 590.51 118.34
C 586.29 118.58 581.63 118.55 580.15 118.27
M 599.99 111.20
C 620.26 104.23 637.18 82.87 637.18 64.29
C 637.18 57.91 634.08 48.33 629.73 41.25
C 620.72 26.60 601.95 14.81 587.66 14.81
C 564.56 14.81 538.14 41.21 538.14 64.29
C 538.14 82.86 554.96 104.11 575.33 111.25
C 585.94 114.96 589.08 114.96 599.99 111.20"/>
<path fill="#797979" stroke="none" d="
M 141.02 294.10
C 119.40 290.11 102.89 276.63 95.76 257.14
C 91.75 246.16 90.73 236.30 92.61 226.49
C 95.37 212.05 99.38 203.83 108.16 194.60
C 117.49 184.82 128.39 179.38 143.70 176.85
C 150.47 175.72 153.10 175.78 160.44 177.17
C 175.42 180.02 185.10 185.01 194.25 194.60
C 203.16 203.97 207.27 212.49 209.79 226.88
C 213.03 245.43 206.30 265.44 192.35 278.72
C 183.22 287.40 174.91 291.49 160.99 294.15
C 151.57 295.95 151.06 295.95 141.02 294.10
M 168.00 286.99
C 184.13 280.99 196.34 268.79 202.70 252.32
C 206.22 243.19 206.22 228.21 202.69 219.11
C 196.30 202.59 184.32 190.62 167.83 184.26
C 158.71 180.76 143.70 180.76 134.58 184.26
C 118.09 190.62 106.11 202.59 99.72 219.11
C 97.75 224.22 97.23 227.62 97.23 235.71
C 97.23 250.41 101.72 261.29 112.45 272.54
C 120.48 280.96 132.73 287.69 143.70 289.70
C 149.09 290.70 161.88 289.27 168.00 286.99"/>
<path fill="#797979" stroke="none" d="
M 315.81 294.10
C 294.19 290.11 277.69 276.63 270.56 257.14
C 266.55 246.16 265.53 236.30 267.41 226.49
C 270.16 212.05 274.17 203.83 282.96 194.60
C 292.28 184.82 303.19 179.38 318.49 176.85
C 325.27 175.72 327.90 175.78 335.23 177.17
C 350.21 180.02 359.90 185.01 369.04 194.60
C 377.96 203.97 382.06 212.49 384.58 226.88
C 387.82 245.43 381.10 265.44 367.15 278.72
C 358.02 287.40 349.71 291.49 335.79 294.15
C 326.36 295.95 325.86 295.95 315.81 294.10
M 342.79 286.99
C 358.92 280.99 371.14 268.79 377.50 252.32
C 381.01 243.19 381.01 228.21 377.48 219.11
C 371.09 202.59 359.11 190.62 342.62 184.26
C 333.51 180.76 318.49 180.76 309.38 184.26
C 292.89 190.62 280.91 202.59 274.52 219.11
C 272.54 224.22 272.03 227.62 272.03 235.71
C 272.03 250.41 276.52 261.29 287.24 272.54
C 295.28 280.96 307.52 287.69 318.49 289.70
C 323.89 290.70 336.68 289.27 342.79 286.99"/>
<path fill="#797979" stroke="none" d="
M 488.46 294.10
C 466.84 290.11 450.34 276.63 443.21 257.14
C 439.20 246.16 438.18 236.30 440.06 226.49
C 442.81 212.05 446.82 203.83 455.61 194.60
C 464.94 184.82 475.84 179.38 491.14 176.85
C 497.92 175.72 500.55 175.78 507.88 177.17
C 522.87 180.02 532.55 185.01 541.70 194.60
C 550.61 203.97 554.71 212.49 557.23 226.88
C 560.47 245.43 553.75 265.44 539.80 278.72
C 530.67 287.40 522.36 291.49 508.44 294.15
C 499.02 295.95 498.51 295.95 488.46 294.10
M 515.44 286.99
C 531.57 280.99 543.79 268.79 550.15 252.32
C 553.66 243.19 553.66 228.21 550.14 219.11
C 543.74 202.59 531.77 190.62 515.27 184.26
C 506.16 180.76 491.14 180.76 482.03 184.26
C 465.54 190.62 453.56 202.59 447.17 219.11
C 443.64 228.22 443.64 243.20 447.17 252.32
C 453.61 268.96 466.10 281.38 482.03 286.96
C 485.57 288.20 489.66 289.44 491.14 289.70
C 496.54 290.70 509.33 289.27 515.44 286.99"/>
<path fill="#797979" stroke="none" d="
M 54.15 122.67
C 32.54 118.68 16.03 105.20 8.90 85.71
C 4.89 74.73 3.87 64.88 5.75 55.06
C 8.50 40.62 12.51 32.40 21.30 23.17
C 30.67 13.35 41.99 7.77 57.49 5.34
C 63.65 4.37 66.74 4.46 73.69 5.77
C 88.53 8.58 98.26 13.61 107.39 23.17
C 116.30 32.54 120.41 41.06 122.93 55.45
C 126.16 74.00 119.44 94.01 105.49 107.29
C 96.36 115.97 88.05 120.06 74.13 122.72
C 64.71 124.52 64.20 124.52 54.15 122.67
M 81.14 115.56
C 97.26 109.56 109.48 97.36 115.84 80.89
C 119.35 71.76 119.35 56.79 115.83 47.68
C 109.44 31.16 97.46 19.19 80.96 12.84
C 71.85 9.33 56.84 9.33 47.72 12.84
C 31.23 19.19 19.25 31.16 12.86 47.68
C 9.33 56.80 9.33 71.77 12.86 80.89
C 19.30 97.53 31.80 109.95 47.72 115.53
C 51.26 116.77 55.36 118.01 56.84 118.27
C 62.23 119.27 75.02 117.85 81.14 115.56"/>
<path fill="#797979" stroke="none" d="
M 228.95 122.67
C 207.33 118.68 190.83 105.20 183.70 85.71
C 179.69 74.73 178.67 64.88 180.54 55.06
C 183.30 40.62 187.31 32.40 196.09 23.17
C 205.42 13.39 216.33 7.95 231.63 5.42
C 238.41 4.30 241.04 4.35 248.37 5.74
C 263.35 8.59 273.04 13.59 282.18 23.17
C 291.09 32.54 295.20 41.06 297.72 55.45
C 300.96 74.00 294.24 94.01 280.28 107.29
C 271.16 115.97 262.85 120.06 248.93 122.72
C 239.50 124.52 239.00 124.52 228.95 122.67
M 255.93 115.56
C 272.06 109.56 284.27 97.36 290.63 80.89
C 294.15 71.76 294.15 56.79 290.62 47.68
C 284.23 31.16 272.25 19.19 255.76 12.84
C 246.64 9.33 231.63 9.33 222.52 12.84
C 206.02 19.19 194.05 31.16 187.65 47.68
C 185.68 52.79 185.17 56.20 185.17 64.29
C 185.17 78.99 189.66 89.86 200.38 101.11
C 208.41 109.53 220.66 116.26 231.63 118.27
C 237.03 119.27 249.82 117.85 255.93 115.56"/>
<path fill="#797979" stroke="none" d="
M 401.60 122.67
C 379.98 118.68 363.48 105.20 356.35 85.71
C 352.34 74.73 351.32 64.88 353.20 55.06
C 355.95 40.62 359.96 32.40 368.74 23.17
C 378.07 13.39 388.98 7.95 404.28 5.42
C 411.06 4.30 413.69 4.35 421.02 5.74
C 436.00 8.59 445.69 13.59 454.83 23.17
C 463.75 32.54 467.85 41.06 470.37 55.45
C 473.61 74.00 466.89 94.01 452.94 107.29
C 443.81 115.97 435.50 120.06 421.58 122.72
C 412.15 124.52 411.65 124.52 401.60 122.67
M 428.58 115.56
C 444.71 109.56 456.93 97.36 463.28 80.89
C 466.80 71.76 466.80 56.79 463.27 47.68
C 456.88 31.16 444.90 19.19 428.41 12.84
C 419.30 9.33 404.28 9.33 395.17 12.84
C 378.67 19.19 366.70 31.16 360.31 47.68
C 356.78 56.80 356.78 71.77 360.31 80.89
C 366.75 97.53 379.24 109.95 395.17 115.53
C 398.71 116.77 402.80 118.01 404.28 118.27
C 409.68 119.27 422.47 117.85 428.58 115.56"/>
<path fill="#797979" stroke="none" d="
M 577.47 122.67
C 555.85 118.68 539.35 105.20 532.22 85.71
C 528.21 74.73 527.19 64.88 529.06 55.06
C 531.82 40.62 535.83 32.40 544.61 23.17
C 553.94 13.39 564.85 7.95 580.15 5.42
C 586.93 4.30 589.56 4.35 596.89 5.74
C 611.87 8.59 621.56 13.59 630.70 23.17
C 639.61 32.54 643.72 41.06 646.24 55.45
C 649.48 74.00 642.76 94.01 628.80 107.29
C 619.68 115.97 611.37 120.06 597.45 122.72
C 588.02 124.52 587.52 124.52 577.47 122.67
M 604.45 115.56
C 620.58 109.56 632.79 97.36 639.15 80.89
C 642.67 71.76 642.67 56.79 639.14 47.68
C 632.75 31.16 620.77 19.19 604.28 12.84
C 595.16 9.33 580.15 9.33 571.04 12.84
C 554.54 19.19 542.56 31.16 536.17 47.68
C 532.65 56.80 532.65 71.77 536.17 80.89
C 542.62 97.53 555.11 109.95 571.04 115.53
C 574.57 116.77 578.67 118.01 580.15 118.27
C 585.55 119.27 598.34 117.85 604.45 115.56"/>
</g>
</svg>
