<?xml version="1.0" encoding="UTF-8" standalone="no"?>
<!DOCTYPE svg PUBLIC "-//W3C//DTD SVG 1.1//EN"
"http://www.w3.org/Graphics/SVG/1.1/DTD/svg11.dtd">
<svg width="644px" height="300px"
xmlns="http://www.w3.org/2000/svg" version="1.1">
<g transform="translate(0000, 0000) scale(1.0000, 1.0000)">
<path fill="#000000" stroke="none" d="
M 49.17 298.40
C 35.70 295.92 25.57 290.60 16.77 281.38
C 8.21 272.39 4.17 264.20 1.54 250.49
C -1.77 233.23 1.17 214.57 9.30 201.23
C 15.06 191.77 26.49 182.20 36.87 178.13
C 43.16 175.67 56.37 173.24 63.45 173.24
C 70.52 173.24 83.74 175.67 90.02 178.13
C 104.51 183.80 116.87 196.47 122.38 211.27
C 129.64 230.78 127.29 256.89 116.82 273.06
C 103.33 293.90 77.43 303.61 49.17 298.40
M 73.10 294.23
C 86.83 291.61 95.02 287.58 104.02 279.02
C 113.63 269.88 118.64 260.05 121.22 245.33
C 122.54 237.75 122.54 235.49 121.22 227.90
C 118.73 213.72 114.68 205.32 105.90 196.09
C 96.87 186.63 87.33 181.71 72.55 178.90
C 46.79 174.00 18.87 189.59 9.13 214.32
C 8.12 216.87 6.57 222.81 5.67 227.52
C 2.39 244.73 8.28 263.80 21.00 277.15
C 29.80 286.37 39.93 291.70 53.40 294.18
C 63.31 296.01 63.81 296.01 73.10 294.23"/>
<path fill="#000000" stroke="none" d="
M 220.48 298.40
C 207.01 295.92 196.88 290.60 188.08 281.38
C 179.52 272.39 175.48 264.20 172.85 250.49
C 169.54 233.23 172.48 214.57 180.61 201.23
C 186.37 191.77 197.80 182.20 208.18 178.13
C 214.47 175.67 227.68 173.24 234.76 173.24
C 241.83 173.24 255.05 175.67 261.33 178.13
C 275.82 183.80 288.18 196.47 293.69 211.27
C 300.95 230.78 298.60 256.89 288.13 273.06
C 274.64 293.90 248.74 303.61 220.48 298.40
M 244.41 294.23
C 258.14 291.61 266.33 287.58 275.33 279.02
C 284.94 269.88 289.95 260.05 292.53 245.33
C 293.85 237.75 293.85 235.49 292.53 227.90
C 290.04 213.72 285.99 205.32 277.21 196.09
C 268.19 186.63 258.64 181.71 243.86 178.90
C 218.10 174.00 190.18 189.59 180.44 214.32
C 179.43 216.87 177.88 222.81 176.98 227.52
C 173.70 244.73 179.59 263.80 192.31 277.15
C 201.11 286.37 211.24 291.70 224.71 294.18
C 234.62 296.01 235.12 296.01 244.41 294.23"/>
<path fill="#000000" stroke="none" d="
M 393.91 298.40
C 380.44 295.92 370.31 290.60 361.51 281.38
C 352.94 272.39 348.90 264.20 346.28 250.49
C 342.97 233.23 345.91 214.57 354.03 201.23
C 359.79 191.77 371.23 182.20 381.61 178.13
C 387.89 175.67 401.11 173.24 408.18 173.24
C 415.26 173.24 428.48 175.67 434.76 178.13
C 449.25 183.80 461.61 196.47 467.12 211.27
C 474.37 230.78 472.02 256.89 461.55 273.06
C 448.06 293.90 422.16 303.61 393.91 298.40
M 417.84 294.23
C 431.56 291.61 439.76 287.58 448.76 279.02
C 458.36 269.88 463.37 260.05 465.95 245.33
C 467.28 237.75 467.28 235.49 465.95 227.90
C 463.47 213.72 459.42 205.32 450.63 196.09
C 441.61 186.63 432.06 181.71 417.29 178.90
C 391.53 174.00 363.60 189.59 353.86 214.32
C 352.86 216.87 351.30 222.81 350.40 227.52
C 347.13 244.73 353.02 263.80 365.74 277.15
C 374.54 286.37 384.67 291.70 398.14 294.18
C 408.05 296.01 408.54 296.01 417.84 294.23"/>
<path fill="#000000" stroke="none" d="
M 566.28 298.40
C 552.80 295.92 542.67 290.60 533.87 281.38
C 525.31 272.39 521.27 264.20 518.65 250.49
C 515.34 233.23 518.28 214.57 526.40 201.23
C 532.16 191.77 543.59 182.20 553.98 178.13
C 560.26 175.67 573.48 173.24 580.55 173.24
C 587.63 173.24 600.84 175.67 607.13 178.13
C 621.61 183.80 633.98 196.47 639.48 211.27
C 646.74 230.78 644.39 256.89 633.92 273.06
C 620.43 293.90 594.53 303.61 566.28 298.40
M 590.21 294.23
C 603.93 291.61 612.13 287.58 621.13 279.02
C 630.73 269.88 635.74 260.05 638.32 245.33
C 639.64 237.75 639.64 235.49 638.32 227.90
C 635.84 213.72 631.79 205.32 623.00 196.09
C 613.98 186.63 604.43 181.71 589.66 178.90
C 563.90 174.00 535.97 189.59 526.23 214.32
C 525.22 216.87 523.67 222.81 522.77 227.52
C 519.49 244.73 525.38 263.80 538.10 277.15
C 546.90 286.37 557.03 291.70 570.51 294.18
C 580.41 296.01 580.91 296.01 590.21 294.23"/>
<path fill="#000000" stroke="none" d="
M 392.85 126.22
C 379.38 123.74 369.25 118.42 360.45 109.19
C 351.88 100.20 347.84 92.02 345.22 78.31
C 341.91 61.05 344.85 42.39 352.97 29.05
C 358.74 19.58 370.17 10.01 380.55 5.95
C 386.83 3.49 400.05 1.06 407.13 1.06
C 414.20 1.06 427.42 3.49 433.70 5.95
C 448.19 11.62 460.55 24.29 466.06 39.08
C 473.31 58.60 470.97 84.71 460.50 100.88
C 447.00 121.72 421.11 131.43 392.85 126.22
M 416.78 122.05
C 430.51 119.43 438.70 115.39 447.70 106.84
C 457.30 97.70 462.32 87.87 464.90 73.15
C 466.22 65.57 466.22 63.31 464.90 55.72
C 462.41 41.54 458.36 33.14 449.57 23.90
C 440.55 14.45 431.00 9.53 416.23 6.72
C 390.47 1.82 362.54 17.41 352.80 42.14
C 351.80 44.68 350.25 50.63 349.35 55.34
C 346.07 72.55 351.96 91.62 364.68 104.97
C 373.48 114.19 383.61 119.51 397.08 122.00
C 406.99 123.82 407.49 123.82 416.78 122.05"/>
<path fill="#000000" stroke="none" d="
M 49.17 125.17
C 35.70 122.68 25.57 117.36 16.77 108.14
C 8.21 99.15 4.17 90.96 1.54 77.25
C -1.77 59.99 1.17 41.33 9.30 27.99
C 15.09 18.49 26.48 8.96 37.00 4.84
C 42.92 2.52 56.97 0.00 63.98 0.00
C 70.59 0.00 83.92 2.50 90.02 4.89
C 104.51 10.56 116.87 23.23 122.38 38.03
C 129.64 57.54 127.29 83.65 116.82 99.82
C 103.33 120.67 77.43 130.37 49.17 125.17
M 73.10 120.99
C 86.83 118.37 95.02 114.34 104.02 105.78
C 113.63 96.64 118.64 86.81 121.22 72.10
C 122.54 64.51 122.54 62.25 121.22 54.67
C 118.73 40.48 114.68 32.08 105.90 22.85
C 96.87 13.39 87.33 8.47 72.55 5.66
C 46.79 0.76 18.87 16.35 9.13 41.08
C 8.12 43.63 6.57 49.57 5.67 54.29
C 2.39 71.49 8.28 90.56 21.00 103.91
C 29.80 113.13 39.93 118.46 53.40 120.94
C 63.31 122.77 63.81 122.77 73.10 120.99"/>
<path fill="#000000" stroke="none" d="
M 221.54 125.17
C 208.07 122.68 197.94 117.36 189.14 108.14
C 180.57 99.15 176.53 90.96 173.91 77.25
C 170.60 59.99 173.54 41.33 181.66 27.99
C 187.43 18.53 198.86 8.96 209.24 4.89
C 215.52 2.43 228.74 0.00 235.82 0.00
C 242.89 0.00 256.11 2.43 262.39 4.89
C 276.88 10.56 289.24 23.23 294.75 38.03
C 302.00 57.54 299.66 83.65 289.19 99.82
C 275.69 120.67 249.80 130.37 221.54 125.17
M 245.47 120.99
C 259.20 118.37 267.39 114.34 276.39 105.78
C 285.99 96.64 291.01 86.81 293.59 72.10
C 294.91 64.51 294.91 62.25 293.59 54.67
C 291.10 40.48 287.05 32.08 278.26 22.85
C 269.24 13.39 259.69 8.47 244.92 5.66
C 219.16 0.76 191.23 16.35 181.49 41.08
C 180.49 43.63 178.93 49.57 178.04 54.29
C 174.76 71.49 180.65 90.56 193.37 103.91
C 202.17 113.13 212.30 118.46 225.77 120.94
C 235.68 122.77 236.18 122.77 245.47 120.99"/>
<path fill="#000000" stroke="none" d="
M 564.16 125.17
C 550.69 122.68 540.56 117.36 531.76 108.14
C 523.19 99.15 519.15 90.96 516.53 77.25
C 513.22 59.99 516.16 41.33 524.28 27.99
C 530.05 18.53 541.48 8.96 551.86 4.89
C 558.14 2.43 571.36 0.00 578.44 0.00
C 585.51 0.00 598.73 2.43 605.01 4.89
C 619.50 10.56 631.86 23.23 637.37 38.03
C 644.62 57.54 642.28 83.65 631.81 99.82
C 618.31 120.67 592.42 130.37 564.16 125.17
M 588.09 120.99
C 601.82 118.37 610.01 114.34 619.01 105.78
C 628.61 96.64 633.63 86.81 636.21 72.10
C 637.53 64.51 637.53 62.25 636.21 54.67
C 633.72 40.48 629.67 32.08 620.88 22.85
C 611.86 13.39 602.31 8.47 587.54 5.66
C 561.78 0.76 533.85 16.35 524.11 41.08
C 523.11 43.63 521.56 49.57 520.66 54.29
C 517.38 71.49 523.27 90.56 535.99 103.91
C 544.79 113.13 554.92 118.46 568.39 120.94
C 578.30 122.77 578.80 122.77 588.09 120.99"/>
<path fill="#000000" stroke="none" d="
M 56.05 289.85
C 45.23 287.86 33.15 281.23 25.23 272.93
C 14.66 261.83 10.23 251.11 10.23 236.62
C 10.23 228.64 10.73 225.29 12.68 220.25
C 18.98 203.96 30.79 192.16 47.06 185.89
C 56.05 182.44 70.85 182.44 79.84 185.89
C 96.10 192.16 107.91 203.96 114.22 220.25
C 117.70 229.23 117.70 243.99 114.23 252.99
C 106.03 274.21 87.18 288.73 66.26 289.91
C 62.09 290.14 57.51 290.12 56.05 289.85
M 75.61 282.88
C 95.60 276.00 112.28 254.95 112.28 236.62
C 112.28 230.33 109.23 220.89 104.93 213.91
C 96.05 199.47 77.54 187.84 63.45 187.84
C 40.67 187.84 14.61 213.87 14.61 236.62
C 14.61 254.94 31.21 275.88 51.29 282.92
C 61.76 286.58 64.85 286.58 75.61 282.88"/>
<path fill="#000000" stroke="none" d="
M 227.36 289.85
C 216.54 287.86 204.46 281.23 196.54 272.93
C 185.97 261.83 181.54 251.11 181.54 236.62
C 181.54 228.64 182.04 225.29 183.99 220.25
C 190.29 203.96 202.10 192.16 218.37 185.89
C 227.36 182.44 242.16 182.44 251.15 185.89
C 267.41 192.16 279.23 203.96 285.53 220.25
C 289.01 229.23 289.01 243.99 285.54 252.99
C 277.34 274.21 258.49 288.73 237.57 289.91
C 233.41 290.14 228.82 290.12 227.36 289.85
M 246.92 282.88
C 266.91 276.00 283.59 254.95 283.59 236.62
C 283.59 230.33 280.54 220.89 276.24 213.91
C 267.36 199.47 248.85 187.84 234.76 187.84
C 211.98 187.84 185.92 213.87 185.92 236.62
C 185.92 254.94 202.52 275.88 222.60 282.92
C 233.07 286.58 236.17 286.58 246.92 282.88"/>
<path fill="#000000" stroke="none" d="
M 400.78 289.85
C 399.32 289.58 395.28 288.37 391.79 287.14
C 376.09 281.64 363.77 269.40 357.41 252.99
C 353.94 244.00 353.94 229.24 357.41 220.25
C 363.72 203.96 375.53 192.16 391.79 185.89
C 400.78 182.44 415.59 182.44 424.57 185.89
C 440.84 192.16 452.65 203.96 458.95 220.25
C 462.43 229.23 462.43 243.99 458.96 252.99
C 450.77 274.21 431.91 288.73 411.00 289.91
C 406.83 290.14 402.24 290.12 400.78 289.85
M 420.34 282.88
C 440.33 276.00 457.02 254.95 457.02 236.62
C 457.02 230.33 453.96 220.89 449.67 213.91
C 440.79 199.47 422.28 187.84 408.18 187.84
C 385.41 187.84 359.35 213.87 359.35 236.62
C 359.35 254.94 375.94 275.88 396.02 282.92
C 406.49 286.58 409.59 286.58 420.34 282.88"/>
<path fill="#000000" stroke="none" d="
M 573.15 289.85
C 571.69 289.58 567.65 288.37 564.16 287.14
C 548.46 281.64 536.14 269.40 529.78 252.99
C 526.30 244.00 526.30 229.24 529.78 220.25
C 536.09 203.96 547.90 192.16 564.16 185.89
C 573.15 182.44 587.95 182.44 596.94 185.89
C 613.21 192.16 625.02 203.96 631.32 220.25
C 634.80 229.23 634.80 243.99 631.33 252.99
C 623.14 274.21 604.28 288.73 583.36 289.91
C 579.20 290.14 574.61 290.12 573.15 289.85
M 592.71 282.88
C 612.89 275.94 629.20 255.25 629.20 236.62
C 629.20 218.04 613.38 197.90 592.71 190.20
C 581.24 185.93 569.38 187.83 556.76 195.98
C 542.50 205.19 531.72 222.70 531.72 236.62
C 531.72 254.94 548.31 275.88 568.39 282.92
C 578.86 286.58 581.96 286.58 592.71 282.88"/>
<path fill="#000000" stroke="none" d="
M 399.72 117.67
C 398.26 117.40 394.23 116.19 390.74 114.96
C 375.03 109.46 362.71 97.21 356.36 80.81
C 352.88 71.82 352.88 57.05 356.36 48.06
C 362.66 31.77 374.47 19.98 390.74 13.71
C 399.72 10.26 414.53 10.26 423.52 13.71
C 439.78 19.98 451.59 31.77 457.90 48.06
C 461.37 57.04 461.37 71.81 457.91 80.81
C 449.71 102.03 430.86 116.55 409.94 117.73
C 405.77 117.96 401.18 117.94 399.72 117.67
M 419.29 110.69
C 439.27 103.82 455.96 82.76 455.96 64.44
C 455.96 58.15 452.90 48.71 448.61 41.73
C 439.73 27.29 421.22 15.65 407.13 15.65
C 384.35 15.65 358.29 41.68 358.29 64.44
C 358.29 82.75 374.88 103.70 394.97 110.74
C 405.43 114.40 408.53 114.40 419.29 110.69"/>
<path fill="#000000" stroke="none" d="
M 56.05 116.61
C 54.59 116.35 50.55 115.13 47.06 113.90
C 31.35 108.40 19.03 96.16 12.68 79.75
C 9.20 70.76 9.20 56.00 12.68 47.01
C 18.98 30.72 30.79 18.92 47.06 12.65
C 56.05 9.20 70.85 9.20 79.84 12.65
C 96.10 18.92 107.91 30.72 114.22 47.01
C 117.70 55.99 117.70 70.75 114.23 79.75
C 106.03 100.98 87.18 115.49 66.26 116.67
C 62.09 116.90 57.51 116.88 56.05 116.61
M 75.61 109.64
C 95.60 102.76 112.28 81.71 112.28 63.38
C 112.28 57.10 109.23 47.65 104.93 40.67
C 96.05 26.23 77.54 14.60 63.45 14.60
C 40.67 14.60 14.61 40.63 14.61 63.38
C 14.61 81.70 31.21 102.64 51.29 109.68
C 61.76 113.35 64.85 113.35 75.61 109.64"/>
<path fill="#000000" stroke="none" d="
M 228.41 116.61
C 217.60 114.62 205.52 107.99 197.60 99.69
C 187.02 88.60 182.59 77.87 182.59 63.38
C 182.59 55.40 183.10 52.05 185.05 47.01
C 191.35 30.72 203.16 18.92 219.43 12.65
C 228.41 9.20 243.22 9.20 252.21 12.65
C 268.47 18.92 280.28 30.72 286.59 47.01
C 290.06 55.99 290.06 70.75 286.60 79.75
C 278.40 100.98 259.55 115.49 238.63 116.67
C 234.46 116.90 229.87 116.88 228.41 116.61
M 247.98 109.64
C 267.96 102.76 284.65 81.71 284.65 63.38
C 284.65 57.10 281.59 47.65 277.30 40.67
C 268.42 26.23 249.91 14.60 235.82 14.60
C 213.04 14.60 186.98 40.63 186.98 63.38
C 186.98 81.70 203.57 102.64 223.66 109.68
C 234.12 113.35 237.22 113.35 247.98 109.64"/>
<path fill="#000000" stroke="none" d="
M 571.03 116.61
C 569.58 116.35 565.54 115.13 562.05 113.90
C 546.34 108.40 534.02 96.16 527.67 79.75
C 524.19 70.76 524.19 56.00 527.67 47.01
C 533.97 30.72 545.78 18.92 562.05 12.65
C 571.03 9.20 585.84 9.20 594.83 12.65
C 611.09 18.92 622.90 30.72 629.21 47.01
C 632.69 55.99 632.69 70.75 629.22 79.75
C 621.02 100.98 602.17 115.49 581.25 116.67
C 577.08 116.90 572.49 116.88 571.03 116.61
M 590.60 109.64
C 610.58 102.76 627.27 81.71 627.27 63.38
C 627.27 57.10 624.21 47.65 619.92 40.67
C 611.04 26.23 592.53 14.60 578.44 14.60
C 555.66 14.60 529.60 40.63 529.60 63.38
C 529.60 81.70 546.19 102.64 566.28 109.68
C 576.74 113.35 579.84 113.35 590.60 109.64"/>
<path fill="#797979" stroke="none" d="
M 53.40 294.18
C 32.08 290.25 15.81 276.96 8.78 257.75
C 4.82 246.92 3.82 237.20 5.67 227.52
C 8.39 213.29 12.34 205.18 21.00 196.09
C 30.20 186.44 40.96 181.08 56.05 178.58
C 62.73 177.48 65.32 177.53 72.55 178.90
C 87.33 181.71 96.87 186.63 105.90 196.09
C 114.68 205.32 118.73 213.72 121.22 227.90
C 124.41 246.20 117.78 265.92 104.02 279.02
C 95.02 287.58 86.83 291.61 73.10 294.23
C 63.81 296.01 63.31 296.01 53.40 294.18
M 80.01 287.18
C 95.91 281.26 107.96 269.23 114.23 252.99
C 117.70 243.99 117.70 229.23 114.22 220.25
C 107.91 203.96 96.10 192.16 79.84 185.89
C 70.85 182.44 56.05 182.44 47.06 185.89
C 30.79 192.16 18.98 203.96 12.68 220.25
C 9.20 229.24 9.20 244.00 12.68 252.99
C 19.03 269.40 31.35 281.64 47.06 287.14
C 50.55 288.37 54.59 289.58 56.05 289.85
C 61.37 290.83 73.98 289.43 80.01 287.18"/>
<path fill="#797979" stroke="none" d="
M 224.71 294.18
C 203.39 290.25 187.12 276.96 180.09 257.75
C 176.13 246.92 175.13 237.20 176.98 227.52
C 179.70 213.29 183.65 205.18 192.31 196.09
C 201.51 186.44 212.27 181.08 227.36 178.58
C 234.04 177.48 236.63 177.53 243.86 178.90
C 258.64 181.71 268.19 186.63 277.21 196.09
C 285.99 205.32 290.04 213.72 292.53 227.90
C 295.72 246.20 289.09 265.92 275.33 279.02
C 266.33 287.58 258.14 291.61 244.41 294.23
C 235.12 296.01 234.62 296.01 224.71 294.18
M 251.32 287.18
C 267.22 281.26 279.27 269.23 285.54 252.99
C 289.01 243.99 289.01 229.23 285.53 220.25
C 279.23 203.96 267.41 192.16 251.15 185.89
C 242.16 182.44 227.36 182.44 218.37 185.89
C 202.10 192.16 190.29 203.96 183.99 220.25
C 182.04 225.29 181.54 228.64 181.54 236.62
C 181.54 251.11 185.97 261.83 196.54 272.93
C 204.46 281.23 216.54 287.86 227.36 289.85
C 232.68 290.83 245.29 289.43 251.32 287.18"/>
<path fill="#797979" stroke="none" d="
M 398.14 294.18
C 376.82 290.25 360.54 276.96 353.51 257.75
C 349.56 246.92 348.55 237.20 350.40 227.52
C 353.12 213.29 357.08 205.18 365.74 196.09
C 374.94 186.44 385.69 181.08 400.78 178.58
C 407.46 177.48 410.06 177.53 417.29 178.90
C 432.06 181.71 441.61 186.63 450.63 196.09
C 459.42 205.32 463.47 213.72 465.95 227.90
C 469.15 246.20 462.52 265.92 448.76 279.02
C 439.76 287.58 431.56 291.61 417.84 294.23
C 408.54 296.01 408.05 296.01 398.14 294.18
M 424.74 287.18
C 440.65 281.26 452.69 269.23 458.96 252.99
C 462.43 243.99 462.43 229.23 458.95 220.25
C 452.65 203.96 440.84 192.16 424.57 185.89
C 415.59 182.44 400.78 182.44 391.79 185.89
C 375.53 192.16 363.72 203.96 357.41 220.25
C 353.94 229.24 353.94 244.00 357.41 252.99
C 363.77 269.40 376.09 281.64 391.79 287.14
C 395.28 288.37 399.32 289.58 400.78 289.85
C 406.10 290.83 418.72 289.43 424.74 287.18"/>
<path fill="#797979" stroke="none" d="
M 570.51 294.18
C 549.19 290.25 532.91 276.96 525.88 257.75
C 521.93 246.92 520.92 237.20 522.77 227.52
C 525.49 213.29 529.44 205.18 538.10 196.09
C 547.30 186.44 558.06 181.08 573.15 178.58
C 579.83 177.48 582.42 177.53 589.66 178.90
C 604.43 181.71 613.98 186.63 623.00 196.09
C 631.79 205.32 635.84 213.72 638.32 227.90
C 641.51 246.20 634.88 265.92 621.13 279.02
C 612.13 287.58 603.93 291.61 590.21 294.23
C 580.91 296.01 580.41 296.01 570.51 294.18
M 597.11 287.18
C 613.02 281.26 625.06 269.23 631.33 252.99
C 634.80 243.99 634.80 229.23 631.32 220.25
C 625.02 203.96 613.21 192.16 596.94 185.89
C 587.95 182.44 573.15 182.44 564.16 185.89
C 547.90 192.16 536.09 203.96 529.78 220.25
C 526.30 229.24 526.30 244.00 529.78 252.99
C 536.14 269.40 548.46 281.64 564.16 287.14
C 567.65 288.37 571.69 289.58 573.15 289.85
C 578.47 290.83 591.08 289.43 597.11 287.18"/>
<path fill="#797979" stroke="none" d="
M 397.08 122.00
C 375.76 118.07 359.49 104.78 352.46 85.56
C 348.50 74.74 347.50 65.02 349.35 55.34
C 352.06 41.10 356.02 33.00 364.68 23.90
C 373.88 14.26 384.63 8.89 399.72 6.40
C 406.41 5.29 409.00 5.35 416.23 6.72
C 431.00 9.53 440.55 14.45 449.57 23.90
C 458.36 33.14 462.41 41.54 464.90 55.72
C 468.09 74.02 461.46 93.74 447.70 106.84
C 438.70 115.39 430.51 119.43 416.78 122.05
C 407.49 123.82 406.99 123.82 397.08 122.00
M 423.69 114.99
C 439.59 109.08 451.64 97.05 457.91 80.81
C 461.37 71.81 461.37 57.04 457.90 48.06
C 451.59 31.77 439.78 19.98 423.52 13.71
C 414.53 10.26 399.72 10.26 390.74 13.71
C 374.47 19.98 362.66 31.77 356.36 48.06
C 352.88 57.05 352.88 71.82 356.36 80.81
C 362.71 97.21 375.03 109.46 390.74 114.96
C 394.23 116.19 398.26 117.40 399.72 117.67
C 405.04 118.65 417.66 117.24 423.69 114.99"/>
<path fill="#797979" stroke="none" d="
M 53.40 120.94
C 32.08 117.01 15.81 103.72 8.78 84.51
C 4.82 73.68 3.82 63.96 5.67 54.29
C 8.39 40.05 12.34 31.94 21.00 22.85
C 30.24 13.16 41.41 7.66 56.69 5.26
C 62.76 4.31 65.82 4.39 72.67 5.69
C 87.30 8.46 96.90 13.42 105.90 22.85
C 114.68 32.08 118.73 40.48 121.22 54.67
C 124.41 72.96 117.78 92.68 104.02 105.78
C 95.02 114.34 86.83 118.37 73.10 120.99
C 63.81 122.77 63.31 122.77 53.40 120.94
M 80.01 113.94
C 95.91 108.02 107.96 95.99 114.23 79.75
C 117.70 70.75 117.70 55.99 114.22 47.01
C 107.91 30.72 96.10 18.92 79.84 12.65
C 70.85 9.20 56.05 9.20 47.06 12.65
C 30.79 18.92 18.98 30.72 12.68 47.01
C 9.20 56.00 9.20 70.76 12.68 79.75
C 19.03 96.16 31.35 108.40 47.06 113.90
C 50.55 115.13 54.59 116.35 56.05 116.61
C 61.37 117.59 73.98 116.19 80.01 113.94"/>
<path fill="#797979" stroke="none" d="
M 225.77 120.94
C 204.45 117.01 188.18 103.72 181.14 84.51
C 177.19 73.68 176.19 63.96 178.04 54.29
C 180.75 40.05 184.71 31.94 193.37 22.85
C 202.57 13.20 213.32 7.84 228.41 5.35
C 235.10 4.24 237.69 4.29 244.92 5.66
C 259.69 8.47 269.24 13.39 278.26 22.85
C 287.05 32.08 291.10 40.48 293.59 54.67
C 296.78 72.96 290.15 92.68 276.39 105.78
C 267.39 114.34 259.20 118.37 245.47 120.99
C 236.18 122.77 235.68 122.77 225.77 120.94
M 252.38 113.94
C 268.28 108.02 280.33 95.99 286.60 79.75
C 290.06 70.75 290.06 55.99 286.59 47.01
C 280.28 30.72 268.47 18.92 252.21 12.65
C 243.22 9.20 228.41 9.20 219.43 12.65
C 203.16 18.92 191.35 30.72 185.05 47.01
C 183.10 52.05 182.59 55.40 182.59 63.38
C 182.59 77.87 187.02 88.60 197.60 99.69
C 205.52 107.99 217.60 114.62 228.41 116.61
C 233.73 117.59 246.35 116.19 252.38 113.94"/>
<path fill="#797979" stroke="none" d="
M 568.39 120.94
C 547.07 117.01 530.80 103.72 523.77 84.51
C 519.81 73.68 518.81 63.96 520.66 54.29
C 523.37 40.05 527.33 31.94 535.99 22.85
C 545.19 13.20 555.94 7.84 571.03 5.35
C 577.72 4.24 580.31 4.29 587.54 5.66
C 602.31 8.47 611.86 13.39 620.88 22.85
C 629.67 32.08 633.72 40.48 636.21 54.67
C 639.40 72.96 632.77 92.68 619.01 105.78
C 610.01 114.34 601.82 118.37 588.09 120.99
C 578.80 122.77 578.30 122.77 568.39 120.94
M 595.00 113.94
C 610.90 108.02 622.95 95.99 629.22 79.75
C 632.69 70.75 632.69 55.99 629.21 47.01
C 622.90 30.72 611.09 18.92 594.83 12.65
C 585.84 9.20 571.03 9.20 562.05 12.65
C 545.78 18.92 533.97 30.72 527.67 47.01
C 524.19 56.00 524.19 70.76 527.67 79.75
C 534.02 96.16 546.34 108.40 562.05 113.90
C 565.54 115.13 569.58 116.35 571.03 116.61
C 576.35 117.59 588.97 116.19 595.00 113.94"/>
</g>
</svg>
