<?xml version="1.0" encoding="UTF-8" standalone="no"?>
<!DOCTYPE svg PUBLIC "-//W3C//DTD SVG 1.1//EN"
"http://www.w3.org/Graphics/SVG/1.1/DTD/svg11.dtd">
<svg width="610px" height="600px"
xmlns="http://www.w3.org/2000/svg" version="1.1">
<g transform="translate(0000, 0000) scale(1.0000, 1.0000)">
<path fill="#000000" stroke="none" d="
M 64.82 597.94
C 47.44 594.74 34.36 587.86 23.01 575.96
C 11.95 564.35 6.74 553.79 3.36 536.09
C -0.91 513.80 2.88 489.72 13.36 472.50
C 20.80 460.28 35.55 447.93 48.95 442.68
C 57.06 439.50 74.11 436.36 83.24 436.36
C 92.37 436.36 109.43 439.50 117.54 442.68
C 136.23 450.00 152.19 466.35 159.30 485.45
C 168.66 510.64 165.63 544.35 152.12 565.23
C 134.70 592.13 101.28 604.66 64.82 597.94
M 95.70 592.55
C 113.42 589.17 123.99 583.96 135.61 572.92
C 148.00 561.12 154.47 548.43 157.79 529.43
C 159.50 519.64 159.50 516.72 157.79 506.93
C 154.59 488.62 149.36 477.78 138.02 465.86
C 126.38 453.65 114.06 447.30 94.99 443.67
C 61.75 437.35 25.71 457.47 13.14 489.40
C 11.85 492.68 9.84 500.36 8.68 506.44
C 4.45 528.65 12.05 553.27 28.47 570.50
C 39.82 582.41 52.89 589.28 70.28 592.49
C 83.07 594.85 83.71 594.85 95.70 592.55"/>
<path fill="#000000" stroke="none" d="
M 285.89 597.94
C 268.51 594.74 255.44 587.86 244.08 575.96
C 233.03 564.35 227.82 553.79 224.43 536.09
C 220.16 513.80 223.95 489.72 234.43 472.50
C 241.87 460.28 256.62 447.93 270.02 442.68
C 278.13 439.50 295.19 436.36 304.32 436.36
C 313.45 436.36 330.51 439.50 338.61 442.68
C 357.31 450.00 373.26 466.35 380.37 485.45
C 389.73 510.64 386.70 544.35 373.19 565.23
C 355.78 592.13 322.36 604.66 285.89 597.94
M 316.78 592.55
C 334.49 589.17 345.07 583.96 356.68 572.92
C 369.07 561.12 375.54 548.43 378.87 529.43
C 380.57 519.64 380.57 516.72 378.87 506.93
C 375.66 488.62 370.44 477.78 359.09 465.86
C 347.45 453.65 335.13 447.30 316.07 443.67
C 282.82 437.35 246.78 457.47 234.22 489.40
C 232.92 492.68 230.91 500.36 229.75 506.44
C 225.52 528.65 233.12 553.27 249.54 570.50
C 260.89 582.41 273.97 589.28 291.35 592.49
C 304.14 594.85 304.78 594.85 316.78 592.55"/>
<path fill="#000000" stroke="none" d="
M 508.33 597.94
C 490.95 594.74 477.87 587.86 466.52 575.96
C 455.47 564.35 450.25 553.79 446.87 536.09
C 442.60 513.80 446.39 489.72 456.87 472.50
C 464.31 460.28 479.06 447.93 492.46 442.68
C 500.57 439.50 517.63 436.36 526.76 436.36
C 535.89 436.36 552.94 439.50 561.05 442.68
C 579.75 450.00 595.70 466.35 602.81 485.45
C 612.17 510.64 609.14 544.35 595.63 565.23
C 578.22 592.13 544.80 604.66 508.33 597.94
M 539.22 592.55
C 556.93 589.17 567.50 583.96 579.12 572.92
C 591.51 561.12 597.98 548.43 601.31 529.43
C 603.01 519.64 603.01 516.72 601.31 506.93
C 598.10 488.62 592.87 477.78 581.53 465.86
C 569.89 453.65 557.57 447.30 538.51 443.67
C 505.26 437.35 469.22 457.47 456.65 489.40
C 455.36 492.68 453.35 500.36 452.19 506.44
C 447.96 528.65 455.56 553.27 471.98 570.50
C 483.33 582.41 496.41 589.28 513.79 592.49
C 526.58 594.85 527.22 594.85 539.22 592.55"/>
<path fill="#000000" stroke="none" d="
M 63.46 379.76
C 46.07 376.55 33.00 369.68 21.64 357.78
C 10.59 346.17 5.38 335.60 1.99 317.90
C -2.28 295.62 1.51 271.54 12.00 254.32
C 19.43 242.10 34.18 229.75 47.59 224.50
C 55.69 221.32 72.75 218.18 81.88 218.18
C 91.01 218.18 108.07 221.32 116.17 224.50
C 134.87 231.82 150.82 248.17 157.93 267.27
C 167.29 292.46 164.26 326.17 150.75 347.05
C 133.34 373.95 99.92 386.48 63.46 379.76
M 94.34 374.37
C 112.05 370.99 122.63 365.78 134.24 354.74
C 146.63 342.94 153.10 330.25 156.43 311.25
C 158.14 301.46 158.14 298.54 156.43 288.75
C 153.22 270.44 148.00 259.60 136.66 247.68
C 125.02 235.47 112.69 229.12 93.63 225.49
C 60.39 219.16 24.35 239.29 11.78 271.21
C 10.48 274.50 8.47 282.18 7.31 288.26
C 3.08 310.47 10.69 335.09 27.10 352.32
C 38.46 364.23 51.53 371.10 68.91 374.30
C 81.70 376.66 82.34 376.66 94.34 374.37"/>
<path fill="#000000" stroke="none" d="
M 284.53 379.76
C 267.14 376.55 254.07 369.68 242.72 357.78
C 231.66 346.17 226.45 335.60 223.07 317.90
C 218.79 295.62 222.59 271.54 233.07 254.32
C 240.51 242.10 255.26 229.75 268.66 224.50
C 276.77 221.32 293.82 218.18 302.95 218.18
C 312.08 218.18 329.14 221.32 337.25 224.50
C 355.94 231.82 371.90 248.17 379.01 267.27
C 388.37 292.46 385.34 326.17 371.83 347.05
C 354.41 373.95 320.99 386.48 284.53 379.76
M 315.41 374.37
C 333.13 370.99 343.70 365.78 355.31 354.74
C 367.71 342.94 374.17 330.25 377.50 311.25
C 379.21 301.46 379.21 298.54 377.50 288.75
C 374.30 270.44 369.07 259.60 357.73 247.68
C 346.09 235.47 333.77 229.12 314.70 225.49
C 281.46 219.16 245.42 239.29 232.85 271.21
C 231.55 274.50 229.55 282.18 228.39 288.26
C 224.16 310.47 231.76 335.09 248.18 352.32
C 259.53 364.23 272.60 371.10 289.99 374.30
C 302.78 376.66 303.42 376.66 315.41 374.37"/>
<path fill="#000000" stroke="none" d="
M 506.97 379.76
C 489.58 376.55 476.51 369.68 465.16 357.78
C 454.10 346.17 448.89 335.60 445.50 317.90
C 441.23 295.62 445.03 271.54 455.51 254.32
C 462.94 242.10 477.70 229.75 491.10 224.50
C 499.20 221.32 516.26 218.18 525.39 218.18
C 534.52 218.18 551.58 221.32 559.69 224.50
C 578.38 231.82 594.33 248.17 601.44 267.27
C 610.81 292.46 607.78 326.17 594.27 347.05
C 576.85 373.95 543.43 386.48 506.97 379.76
M 537.85 374.37
C 555.56 370.99 566.14 365.78 577.75 354.74
C 590.14 342.94 596.61 330.25 599.94 311.25
C 601.65 301.46 601.65 298.54 599.94 288.75
C 596.74 270.44 591.51 259.60 580.17 247.68
C 568.53 235.47 556.21 229.12 537.14 225.49
C 503.90 219.16 467.86 239.29 455.29 271.21
C 453.99 274.50 451.99 282.18 450.83 288.26
C 446.60 310.47 454.20 335.09 470.61 352.32
C 481.97 364.23 495.04 371.10 512.43 374.30
C 525.21 376.66 525.86 376.66 537.85 374.37"/>
<path fill="#000000" stroke="none" d="
M 66.19 161.58
C 48.80 158.37 35.73 151.50 24.37 139.60
C 13.32 127.99 8.11 117.42 4.72 99.72
C 0.45 77.44 4.24 53.36 14.72 36.14
C 22.20 23.86 36.90 11.56 50.48 6.25
C 58.12 3.26 76.24 0.00 85.29 0.00
C 93.82 0.00 111.03 3.23 118.90 6.31
C 137.60 13.64 153.55 29.99 160.66 49.09
C 170.02 74.28 166.99 107.99 153.48 128.86
C 136.07 155.77 102.65 168.30 66.19 161.58
M 97.07 156.19
C 114.78 152.81 125.36 147.60 136.97 136.55
C 149.36 124.76 155.83 112.06 159.16 93.07
C 160.87 83.28 160.87 80.36 159.16 70.57
C 155.95 52.25 150.73 41.41 139.39 29.50
C 127.75 17.29 115.42 10.94 96.36 7.31
C 63.12 0.98 27.07 21.11 14.51 53.03
C 13.21 56.32 11.20 64.00 10.04 70.08
C 5.81 92.29 13.41 116.90 29.83 134.14
C 41.19 146.05 54.26 152.92 71.64 156.12
C 84.43 158.48 85.07 158.48 97.07 156.19"/>
<path fill="#000000" stroke="none" d="
M 287.26 161.58
C 269.87 158.37 256.80 151.50 245.45 139.60
C 234.39 127.99 229.18 117.42 225.80 99.72
C 221.52 77.44 225.32 53.36 235.80 36.14
C 243.24 23.92 257.99 11.56 271.39 6.31
C 279.49 3.14 296.55 0.00 305.68 0.00
C 314.81 0.00 331.87 3.14 339.98 6.31
C 358.67 13.64 374.62 29.99 381.73 49.09
C 391.10 74.28 388.07 107.99 374.56 128.86
C 357.14 155.77 323.72 168.30 287.26 161.58
M 318.14 156.19
C 335.85 152.81 346.43 147.60 358.04 136.55
C 370.44 124.76 376.90 112.06 380.23 93.07
C 381.94 83.28 381.94 80.36 380.23 70.57
C 377.03 52.25 371.80 41.41 360.46 29.50
C 348.82 17.29 336.50 10.94 317.43 7.31
C 284.19 0.98 248.15 21.11 235.58 53.03
C 234.28 56.32 232.28 64.00 231.12 70.08
C 226.89 92.29 234.49 116.90 250.91 134.14
C 262.26 146.05 275.33 152.92 292.72 156.12
C 305.50 158.48 306.15 158.48 318.14 156.19"/>
<path fill="#000000" stroke="none" d="
M 509.70 161.58
C 492.31 158.37 479.24 151.50 467.89 139.60
C 456.83 127.99 451.62 117.42 448.23 99.72
C 443.96 77.44 447.76 53.36 458.24 36.14
C 465.67 23.92 480.43 11.56 493.83 6.31
C 501.93 3.14 518.99 0.00 528.12 0.00
C 537.25 0.00 554.31 3.14 562.41 6.31
C 581.11 13.64 597.06 29.99 604.17 49.09
C 613.53 74.28 610.50 107.99 596.99 128.86
C 579.58 155.77 546.16 168.30 509.70 161.58
M 540.58 156.19
C 558.29 152.81 568.87 147.60 580.48 136.55
C 592.87 124.76 599.34 112.06 602.67 93.07
C 604.38 83.28 604.38 80.36 602.67 70.57
C 599.46 52.25 594.24 41.41 582.90 29.50
C 571.26 17.29 558.93 10.94 539.87 7.31
C 506.63 0.98 470.59 21.11 458.02 53.03
C 456.72 56.32 454.72 64.00 453.56 70.08
C 449.33 92.29 456.93 116.90 473.34 134.14
C 484.70 146.05 497.77 152.92 515.16 156.12
C 527.94 158.48 528.58 158.48 540.58 156.19"/>
<path fill="#000000" stroke="none" d="
M 73.69 586.90
C 59.73 584.33 44.15 575.77 33.93 565.05
C 20.28 550.73 14.56 536.89 14.56 518.18
C 14.56 507.89 15.22 503.55 17.73 497.05
C 25.86 476.02 41.10 460.79 62.09 452.70
C 73.69 448.24 92.80 448.24 104.40 452.70
C 125.38 460.79 140.63 476.02 148.76 497.05
C 153.25 508.64 153.25 527.70 148.77 539.32
C 138.20 566.71 113.87 585.45 86.87 586.98
C 81.50 587.28 75.57 587.25 73.69 586.90
M 98.94 577.90
C 124.73 569.02 146.26 541.84 146.26 518.18
C 146.26 510.07 142.32 497.88 136.78 488.86
C 125.32 470.22 101.43 455.21 83.24 455.21
C 53.85 455.21 20.22 488.81 20.22 518.18
C 20.22 541.83 41.64 568.87 67.55 577.95
C 81.06 582.68 85.06 582.68 98.94 577.90"/>
<path fill="#000000" stroke="none" d="
M 294.77 586.90
C 280.80 584.33 265.22 575.77 255.00 565.05
C 241.35 550.73 235.63 536.89 235.63 518.18
C 235.63 507.89 236.29 503.55 238.80 497.05
C 246.93 476.02 262.18 460.79 283.17 452.70
C 294.77 448.24 313.87 448.24 325.47 452.70
C 346.46 460.79 361.70 476.02 369.83 497.05
C 374.32 508.64 374.32 527.70 369.85 539.32
C 359.27 566.71 334.94 585.45 307.95 586.98
C 302.57 587.28 296.65 587.25 294.77 586.90
M 320.01 577.90
C 345.80 569.02 367.34 541.84 367.34 518.18
C 367.34 510.07 363.39 497.88 357.85 488.86
C 346.39 470.22 322.51 455.21 304.32 455.21
C 274.92 455.21 241.30 488.81 241.30 518.18
C 241.30 541.83 262.71 568.87 288.62 577.95
C 302.13 582.68 306.13 582.68 320.01 577.90"/>
<path fill="#000000" stroke="none" d="
M 517.20 586.90
C 515.32 586.55 510.11 584.99 505.60 583.40
C 485.34 576.30 469.44 560.50 461.24 539.32
C 456.75 527.71 456.75 508.65 461.24 497.05
C 469.37 476.02 484.62 460.79 505.60 452.70
C 517.20 448.24 536.31 448.24 547.91 452.70
C 568.90 460.79 584.14 476.02 592.27 497.05
C 596.76 508.64 596.76 527.70 592.29 539.32
C 581.71 566.71 557.38 585.45 530.39 586.98
C 525.01 587.28 519.09 587.25 517.20 586.90
M 542.45 577.90
C 568.24 569.02 589.78 541.84 589.78 518.18
C 589.78 510.07 585.83 497.88 580.29 488.86
C 568.83 470.22 544.95 455.21 526.76 455.21
C 497.36 455.21 463.74 488.81 463.74 518.18
C 463.74 541.83 485.15 568.87 511.06 577.95
C 524.57 582.68 528.57 582.68 542.45 577.90"/>
<path fill="#000000" stroke="none" d="
M 72.33 368.71
C 58.37 366.15 42.78 357.59 32.56 346.87
C 18.91 332.55 13.20 318.71 13.20 300.00
C 13.20 289.70 13.85 285.37 16.36 278.86
C 24.50 257.84 39.74 242.60 60.73 234.52
C 72.33 230.06 91.43 230.06 103.03 234.52
C 124.02 242.60 139.26 257.84 147.40 278.86
C 151.89 290.45 151.89 309.52 147.41 321.14
C 136.83 348.53 112.50 367.27 85.51 368.80
C 80.13 369.10 74.21 369.07 72.33 368.71
M 97.57 359.71
C 123.36 350.84 144.90 323.66 144.90 300.00
C 144.90 291.89 140.96 279.70 135.41 270.68
C 123.95 252.04 100.07 237.03 81.88 237.03
C 52.48 237.03 18.86 270.63 18.86 300.00
C 18.86 323.65 40.27 350.69 66.19 359.77
C 79.70 364.50 83.69 364.50 97.57 359.71"/>
<path fill="#000000" stroke="none" d="
M 293.40 368.71
C 279.44 366.15 263.86 357.59 253.63 346.87
C 239.99 332.55 234.27 318.71 234.27 300.00
C 234.27 289.70 234.93 285.37 237.44 278.86
C 245.57 257.84 260.81 242.60 281.80 234.52
C 293.40 230.06 312.51 230.06 324.11 234.52
C 345.09 242.60 360.34 257.84 368.47 278.86
C 372.96 290.45 372.96 309.52 368.48 321.14
C 357.91 348.53 333.58 367.27 306.58 368.80
C 301.21 369.10 295.28 369.07 293.40 368.71
M 318.65 359.71
C 344.44 350.84 365.97 323.66 365.97 300.00
C 365.97 291.89 362.03 279.70 356.49 270.68
C 345.03 252.04 321.14 237.03 302.95 237.03
C 273.56 237.03 239.93 270.63 239.93 300.00
C 239.93 323.65 261.34 350.69 287.26 359.77
C 300.77 364.50 304.77 364.50 318.65 359.71"/>
<path fill="#000000" stroke="none" d="
M 515.84 368.71
C 513.96 368.37 508.74 366.80 504.24 365.22
C 483.97 358.12 468.08 342.31 459.87 321.14
C 455.38 309.53 455.38 290.47 459.87 278.86
C 468.01 257.84 483.25 242.60 504.24 234.52
C 515.84 230.06 534.94 230.06 546.54 234.52
C 567.53 242.60 582.78 257.84 590.91 278.86
C 595.40 290.45 595.40 309.52 590.92 321.14
C 580.35 348.53 556.01 367.27 529.02 368.80
C 523.64 369.10 517.72 369.07 515.84 368.71
M 541.09 359.71
C 566.88 350.84 588.41 323.66 588.41 300.00
C 588.41 291.89 584.47 279.70 578.93 270.68
C 567.46 252.04 543.58 237.03 525.39 237.03
C 496.00 237.03 462.37 270.63 462.37 300.00
C 462.37 323.65 483.78 350.69 509.70 359.77
C 523.21 364.50 527.21 364.50 541.09 359.71"/>
<path fill="#000000" stroke="none" d="
M 75.06 150.53
C 73.17 150.19 67.96 148.62 63.46 147.04
C 43.19 139.94 27.29 124.13 19.09 102.95
C 14.60 91.35 14.60 72.29 19.09 60.68
C 27.22 39.65 42.47 24.42 63.46 16.34
C 75.06 11.88 94.16 11.88 105.76 16.34
C 126.75 24.42 141.99 39.65 150.13 60.68
C 154.62 72.27 154.62 91.34 150.14 102.95
C 139.56 130.35 115.23 149.09 88.24 150.61
C 82.86 150.91 76.94 150.89 75.06 150.53
M 100.30 141.53
C 126.09 132.65 147.63 105.48 147.63 81.82
C 147.63 73.70 143.68 61.51 138.14 52.50
C 126.68 33.86 102.80 18.85 84.61 18.85
C 55.21 18.85 21.59 52.45 21.59 81.82
C 21.59 105.46 43.00 132.50 68.91 141.59
C 82.43 146.32 86.42 146.32 100.30 141.53"/>
<path fill="#000000" stroke="none" d="
M 296.13 150.53
C 282.17 147.97 266.59 139.40 256.36 128.69
C 242.72 114.37 237.00 100.53 237.00 81.82
C 237.00 71.52 237.65 67.19 240.17 60.68
C 248.30 39.65 263.54 24.42 284.53 16.34
C 296.13 11.88 315.23 11.88 326.83 16.34
C 347.82 24.42 363.07 39.65 371.20 60.68
C 375.69 72.27 375.69 91.34 371.21 102.95
C 360.64 130.35 336.31 149.09 309.31 150.61
C 303.94 150.91 298.01 150.89 296.13 150.53
M 321.38 141.53
C 347.17 132.65 368.70 105.48 368.70 81.82
C 368.70 73.70 364.76 61.51 359.22 52.50
C 347.75 33.86 323.87 18.85 305.68 18.85
C 276.29 18.85 242.66 52.45 242.66 81.82
C 242.66 105.46 264.07 132.50 289.99 141.59
C 303.50 146.32 307.50 146.32 321.38 141.53"/>
<path fill="#000000" stroke="none" d="
M 518.57 150.53
C 516.69 150.19 511.47 148.62 506.97 147.04
C 486.70 139.94 470.81 124.13 462.60 102.95
C 458.11 91.35 458.11 72.29 462.60 60.68
C 470.74 39.65 485.98 24.42 506.97 16.34
C 518.57 11.88 537.67 11.88 549.27 16.34
C 570.26 24.42 585.50 39.65 593.64 60.68
C 598.13 72.27 598.13 91.34 593.65 102.95
C 583.08 130.35 558.74 149.09 531.75 150.61
C 526.37 150.91 520.45 150.89 518.57 150.53
M 543.81 141.53
C 569.61 132.65 591.14 105.48 591.14 81.82
C 591.14 73.70 587.20 61.51 581.66 52.50
C 570.19 33.86 546.31 18.85 528.12 18.85
C 498.73 18.85 465.10 52.45 465.10 81.82
C 465.10 105.46 486.51 132.50 512.43 141.59
C 525.94 146.32 529.94 146.32 543.81 141.53"/>
<path fill="#797979" stroke="none" d="
M 70.28 592.49
C 42.77 587.41 21.77 570.26 12.69 545.45
C 7.59 531.48 6.29 518.93 8.68 506.44
C 12.19 488.06 17.29 477.60 28.47 465.86
C 40.34 453.41 54.22 446.48 73.69 443.26
C 82.32 441.83 85.66 441.90 94.99 443.67
C 114.06 447.30 126.38 453.65 138.02 465.86
C 149.36 477.78 154.59 488.62 157.79 506.93
C 161.92 530.55 153.36 556.01 135.61 572.92
C 123.99 583.96 113.42 589.17 95.70 592.55
C 83.71 594.85 83.07 594.85 70.28 592.49
M 104.61 583.45
C 125.14 575.81 140.68 560.28 148.77 539.32
C 153.25 527.70 153.25 508.64 148.76 497.05
C 140.63 476.02 125.38 460.79 104.40 452.70
C 92.80 448.24 73.69 448.24 62.09 452.70
C 41.10 460.79 25.86 476.02 17.73 497.05
C 13.24 508.65 13.24 527.71 17.73 539.32
C 25.93 560.50 41.83 576.30 62.09 583.40
C 66.60 584.99 71.81 586.55 73.69 586.90
C 80.56 588.16 96.84 586.35 104.61 583.45"/>
<path fill="#797979" stroke="none" d="
M 291.35 592.49
C 263.84 587.41 242.84 570.26 233.77 545.45
C 228.66 531.48 227.36 518.93 229.75 506.44
C 233.26 488.06 238.36 477.60 249.54 465.86
C 261.41 453.41 275.29 446.48 294.77 443.26
C 303.39 441.83 306.73 441.90 316.07 443.67
C 335.13 447.30 347.45 453.65 359.09 465.86
C 370.44 477.78 375.66 488.62 378.87 506.93
C 382.99 530.55 374.43 556.01 356.68 572.92
C 345.07 583.96 334.49 589.17 316.78 592.55
C 304.78 594.85 304.14 594.85 291.35 592.49
M 325.69 583.45
C 346.21 575.81 361.76 560.28 369.85 539.32
C 374.32 527.70 374.32 508.64 369.83 497.05
C 361.70 476.02 346.46 460.79 325.47 452.70
C 313.87 448.24 294.77 448.24 283.17 452.70
C 262.18 460.79 246.93 476.02 238.80 497.05
C 236.29 503.55 235.63 507.89 235.63 518.18
C 235.63 536.89 241.35 550.73 255.00 565.05
C 265.22 575.77 280.80 584.33 294.77 586.90
C 301.63 588.16 317.91 586.35 325.69 583.45"/>
<path fill="#797979" stroke="none" d="
M 513.79 592.49
C 486.28 587.41 465.28 570.26 456.20 545.45
C 451.10 531.48 449.80 518.93 452.19 506.44
C 455.70 488.06 460.80 477.60 471.98 465.86
C 483.85 453.41 497.73 446.48 517.20 443.26
C 525.83 441.83 529.17 441.90 538.51 443.67
C 557.57 447.30 569.89 453.65 581.53 465.86
C 592.87 477.78 598.10 488.62 601.31 506.93
C 605.43 530.55 596.87 556.01 579.12 572.92
C 567.50 583.96 556.93 589.17 539.22 592.55
C 527.22 594.85 526.58 594.85 513.79 592.49
M 548.13 583.45
C 568.65 575.81 584.19 560.28 592.29 539.32
C 596.76 527.70 596.76 508.64 592.27 497.05
C 584.14 476.02 568.90 460.79 547.91 452.70
C 536.31 448.24 517.20 448.24 505.60 452.70
C 484.62 460.79 469.37 476.02 461.24 497.05
C 456.75 508.65 456.75 527.71 461.24 539.32
C 469.44 560.50 485.34 576.30 505.60 583.40
C 510.11 584.99 515.32 586.55 517.20 586.90
C 524.07 588.16 540.35 586.35 548.13 583.45"/>
<path fill="#797979" stroke="none" d="
M 68.91 374.30
C 41.40 369.23 20.40 352.08 11.33 327.27
C 6.22 313.30 4.93 300.75 7.31 288.26
C 10.82 269.88 15.93 259.42 27.10 247.68
C 38.97 235.23 52.85 228.30 72.33 225.08
C 80.95 223.65 84.29 223.72 93.63 225.49
C 112.69 229.12 125.02 235.47 136.66 247.68
C 148.00 259.60 153.22 270.44 156.43 288.75
C 160.55 312.37 152.00 337.83 134.24 354.74
C 122.63 365.78 112.05 370.99 94.34 374.37
C 82.34 376.66 81.70 376.66 68.91 374.30
M 103.25 365.26
C 123.77 357.63 139.32 342.10 147.41 321.14
C 151.89 309.52 151.89 290.45 147.40 278.86
C 139.26 257.84 124.02 242.60 103.03 234.52
C 91.43 230.06 72.33 230.06 60.73 234.52
C 39.74 242.60 24.50 257.84 16.36 278.86
C 11.87 290.47 11.87 309.53 16.36 321.14
C 24.56 342.31 40.46 358.12 60.73 365.22
C 65.23 366.80 70.44 368.37 72.33 368.71
C 79.19 369.98 95.47 368.17 103.25 365.26"/>
<path fill="#797979" stroke="none" d="
M 289.99 374.30
C 262.48 369.23 241.48 352.08 232.40 327.27
C 227.30 313.30 226.00 300.75 228.39 288.26
C 231.90 269.88 237.00 259.42 248.18 247.68
C 260.05 235.23 273.93 228.30 293.40 225.08
C 302.03 223.65 305.37 223.72 314.70 225.49
C 333.77 229.12 346.09 235.47 357.73 247.68
C 369.07 259.60 374.30 270.44 377.50 288.75
C 381.63 312.37 373.07 337.83 355.31 354.74
C 343.70 365.78 333.13 370.99 315.41 374.37
C 303.42 376.66 302.78 376.66 289.99 374.30
M 324.32 365.26
C 344.85 357.63 360.39 342.10 368.48 321.14
C 372.96 309.52 372.96 290.45 368.47 278.86
C 360.34 257.84 345.09 242.60 324.11 234.52
C 312.51 230.06 293.40 230.06 281.80 234.52
C 260.81 242.60 245.57 257.84 237.44 278.86
C 234.93 285.37 234.27 289.70 234.27 300.00
C 234.27 318.71 239.99 332.55 253.63 346.87
C 263.86 357.59 279.44 366.15 293.40 368.71
C 300.26 369.98 316.54 368.17 324.32 365.26"/>
<path fill="#797979" stroke="none" d="
M 512.43 374.30
C 484.92 369.23 463.91 352.08 454.84 327.27
C 449.74 313.30 448.44 300.75 450.83 288.26
C 454.33 269.88 459.44 259.42 470.61 247.68
C 482.49 235.23 496.37 228.30 515.84 225.08
C 524.46 223.65 527.81 223.72 537.14 225.49
C 556.21 229.12 568.53 235.47 580.17 247.68
C 591.51 259.60 596.74 270.44 599.94 288.75
C 604.06 312.37 595.51 337.83 577.75 354.74
C 566.14 365.78 555.56 370.99 537.85 374.37
C 525.86 376.66 525.21 376.66 512.43 374.30
M 546.76 365.26
C 567.29 357.63 582.83 342.10 590.92 321.14
C 595.40 309.52 595.40 290.45 590.91 278.86
C 582.78 257.84 567.53 242.60 546.54 234.52
C 534.94 230.06 515.84 230.06 504.24 234.52
C 483.25 242.60 468.01 257.84 459.87 278.86
C 455.38 290.47 455.38 309.53 459.87 321.14
C 468.08 342.31 483.97 358.12 504.24 365.22
C 508.74 366.80 513.96 368.37 515.84 368.71
C 522.70 369.98 538.98 368.17 546.76 365.26"/>
<path fill="#797979" stroke="none" d="
M 71.64 156.12
C 44.13 151.05 23.13 133.90 14.06 109.09
C 8.95 95.11 7.66 82.57 10.04 70.08
C 13.55 51.70 18.65 41.24 29.83 29.50
C 41.76 16.99 56.17 9.89 75.89 6.79
C 83.72 5.56 87.67 5.67 96.51 7.35
C 115.40 10.92 127.77 17.32 139.39 29.50
C 150.73 41.41 155.95 52.25 159.16 70.57
C 163.28 94.19 154.72 119.65 136.97 136.55
C 125.36 147.60 114.78 152.81 97.07 156.19
C 85.07 158.48 84.43 158.48 71.64 156.12
M 105.98 147.08
C 126.50 139.45 142.05 123.91 150.14 102.95
C 154.62 91.34 154.62 72.27 150.13 60.68
C 141.99 39.65 126.75 24.42 105.76 16.34
C 94.16 11.88 75.06 11.88 63.46 16.34
C 42.47 24.42 27.22 39.65 19.09 60.68
C 14.60 72.29 14.60 91.35 19.09 102.95
C 27.29 124.13 43.19 139.94 63.46 147.04
C 67.96 148.62 73.17 150.19 75.06 150.53
C 81.92 151.80 98.20 149.99 105.98 147.08"/>
<path fill="#797979" stroke="none" d="
M 292.72 156.12
C 265.21 151.05 244.20 133.90 235.13 109.09
C 230.03 95.11 228.73 82.57 231.12 70.08
C 234.62 51.70 239.73 41.24 250.91 29.50
C 262.78 17.05 276.66 10.12 296.13 6.90
C 304.75 5.47 308.10 5.54 317.43 7.31
C 336.50 10.94 348.82 17.29 360.46 29.50
C 371.80 41.41 377.03 52.25 380.23 70.57
C 384.35 94.19 375.80 119.65 358.04 136.55
C 346.43 147.60 335.85 152.81 318.14 156.19
C 306.15 158.48 305.50 158.48 292.72 156.12
M 327.05 147.08
C 347.58 139.45 363.12 123.91 371.21 102.95
C 375.69 91.34 375.69 72.27 371.20 60.68
C 363.07 39.65 347.82 24.42 326.83 16.34
C 315.23 11.88 296.13 11.88 284.53 16.34
C 263.54 24.42 248.30 39.65 240.17 60.68
C 237.65 67.19 237.00 71.52 237.00 81.82
C 237.00 100.53 242.72 114.37 256.36 128.69
C 266.59 139.40 282.17 147.97 296.13 150.53
C 302.99 151.80 319.27 149.99 327.05 147.08"/>
<path fill="#797979" stroke="none" d="
M 515.16 156.12
C 487.65 151.05 466.64 133.90 457.57 109.09
C 452.46 95.11 451.17 82.57 453.56 70.08
C 457.06 51.70 462.17 41.24 473.34 29.50
C 485.22 17.05 499.09 10.12 518.57 6.90
C 527.19 5.47 530.54 5.54 539.87 7.31
C 558.93 10.94 571.26 17.29 582.90 29.50
C 594.24 41.41 599.46 52.25 602.67 70.57
C 606.79 94.19 598.24 119.65 580.48 136.55
C 568.87 147.60 558.29 152.81 540.58 156.19
C 528.58 158.48 527.94 158.48 515.16 156.12
M 549.49 147.08
C 570.02 139.45 585.56 123.91 593.65 102.95
C 598.13 91.34 598.13 72.27 593.64 60.68
C 585.50 39.65 570.26 24.42 549.27 16.34
C 537.67 11.88 518.57 11.88 506.97 16.34
C 485.98 24.42 470.74 39.65 462.60 60.68
C 458.11 72.29 458.11 91.35 462.60 102.95
C 470.81 124.13 486.70 139.94 506.97 147.04
C 511.47 148.62 516.69 150.19 518.57 150.53
C 525.43 151.80 541.71 149.99 549.49 147.08"/>
</g>
</svg>
