<?xml version="1.0" encoding="UTF-8" standalone="no"?>
<!DOCTYPE svg PUBLIC "-//W3C//DTD SVG 1.1//EN"
"http://www.w3.org/Graphics/SVG/1.1/DTD/svg11.dtd">
<svg width="600px" height="183px"
xmlns="http://www.w3.org/2000/svg" version="1.1">
<g transform="translate(0000, 0000) scale(1.0000, 1.0000)">
<path fill="#000000" stroke="none" d="
M 49.94 181.84
C 48.23 181.33 43.00 178.89 38.33 176.42
C 21.48 167.55 7.22 147.55 2.92 126.78
C -3.02 98.14 0.78 63.80 12.50 39.91
C 22.46 19.62 39.47 5.01 57.54 1.27
C 61.98 0.35 133.99 0.05 303.58 0.28
L 543.34 0.60
L 552.29 4.04
C 575.07 12.83 588.31 27.78 595.10 52.40
C 599.94 69.99 601.05 104.33 597.48 126.19
C 593.84 148.43 582.99 167.56 568.96 176.43
C 557.94 183.42 574.65 183.01 302.47 182.89
C 165.30 182.84 51.67 182.37 49.94 181.84
M 561.63 172.32
C 570.91 167.27 578.53 158.84 583.87 147.72
C 589.48 136.04 591.47 127.55 593.07 108.48
C 595.32 81.78 592.02 58.30 583.60 40.88
C 578.17 29.67 568.74 19.97 557.52 14.08
C 540.94 5.35 559.81 5.92 296.17 6.27
L 59.05 6.58
L 51.29 10.29
C 35.68 17.75 24.54 29.76 16.23 48.03
C 6.13 70.32 3.36 102.15 9.47 125.95
C 14.87 147.05 27.32 163.05 45.29 172.08
L 55.19 177.04
L 304.63 176.73
L 554.08 176.42
L 561.63 172.32"/>
<path fill="#000000" stroke="none" d="
M 254.67 160.84
C 210.14 156.32 188.31 152.57 163.42 145.20
C 127.28 134.51 113.12 131.94 101.20 133.89
C 93.72 135.12 83.13 139.30 81.01 141.87
C 79.19 144.06 75.26 144.00 74.40 141.77
C 73.36 139.06 97.77 113.68 111.40 103.31
C 161.56 65.10 206.61 43.20 251.69 35.10
C 267.02 32.35 297.20 32.35 312.52 35.10
C 357.60 43.20 402.66 65.10 452.82 103.31
C 466.45 113.68 490.85 139.06 489.82 141.77
C 488.84 144.31 486.20 143.95 481.31 140.62
C 466.69 130.66 448.10 131.10 410.93 142.29
C 379.31 151.79 361.53 155.29 325.05 159.13
C 294.05 162.39 274.57 162.86 254.67 160.84
M 292.89 154.86
C 303.54 152.12 311.84 147.62 319.63 140.40
C 333.02 127.97 339.08 114.78 339.08 98.08
C 339.08 71.55 320.19 48.33 292.89 41.30
C 283.97 39.00 280.25 39.00 271.32 41.30
C 256.15 45.21 242.06 55.26 233.90 68.01
C 222.05 86.54 222.05 109.62 233.90 128.15
C 241.91 140.66 256.03 150.86 270.78 154.78
C 279.35 157.07 284.24 157.08 292.89 154.86
M 236.85 144.43
C 227.02 134.52 223.09 127.30 219.38 112.43
C 215.76 97.90 217.69 82.35 225.01 67.22
C 228.48 60.04 239.58 47.41 244.83 44.70
C 246.76 43.69 248.15 42.69 247.91 42.46
C 247.13 41.67 225.03 47.97 213.52 52.27
C 198.70 57.77 176.41 68.62 162.23 77.21
C 142.26 89.30 113.02 110.37 103.79 119.34
L 94.83 128.04
L 103.18 127.31
C 115.13 126.27 131.59 129.13 158.10 136.82
C 188.83 145.74 223.57 152.55 240.52 152.98
L 245.45 153.10
L 236.85 144.43
M 339.60 151.26
C 360.87 148.48 380.98 144.12 406.12 136.82
C 432.62 129.13 449.08 126.27 461.03 127.31
L 469.38 128.04
L 460.43 119.34
C 451.19 110.37 421.96 89.30 401.99 77.21
C 387.81 68.62 365.51 57.77 350.70 52.27
C 339.18 47.97 317.08 41.67 316.31 42.46
C 316.07 42.69 317.45 43.69 319.38 44.70
C 324.63 47.41 335.74 60.04 339.21 67.22
C 346.52 82.35 348.45 97.90 344.84 112.43
C 341.13 127.30 337.19 134.52 327.36 144.43
C 317.30 154.58 316.71 154.25 339.60 151.26"/>
<path fill="#000000" stroke="none" d="
M 270.51 138.34
C 261.46 135.77 252.18 128.83 246.93 120.67
C 232.85 98.83 240.79 70.68 264.27 59.11
C 270.52 56.04 272.66 55.62 282.11 55.62
C 291.55 55.62 293.69 56.04 299.94 59.11
C 308.95 63.55 315.95 70.57 320.37 79.60
C 323.44 85.87 323.86 88.01 323.86 97.48
C 323.86 106.95 323.44 109.09 320.37 115.36
C 313.28 129.85 300.51 138.52 284.91 139.43
C 279.64 139.73 273.90 139.30 270.51 138.34"/>
<path fill="#c57a36" stroke="none" d="
M 45.29 172.08
C 27.32 163.05 14.87 147.05 9.47 125.95
C 3.36 102.15 6.13 70.32 16.23 48.03
C 24.54 29.76 35.68 17.75 51.29 10.29
L 59.05 6.58
L 296.16 6.27
C 559.81 5.91 540.93 5.35 557.52 14.08
C 584.65 28.36 597.04 61.26 593.07 108.48
C 591.47 127.55 589.48 136.04 583.87 147.72
C 578.53 158.84 570.91 167.27 561.63 172.32
L 554.08 176.42
L 304.63 176.73
L 55.19 177.04
L 45.29 172.08
M 325.05 159.13
C 361.53 155.29 379.31 151.79 410.93 142.29
C 448.10 131.10 466.69 130.66 481.31 140.62
C 486.20 143.95 488.84 144.31 489.82 141.77
C 490.85 139.06 466.45 113.68 452.82 103.31
C 402.66 65.10 357.60 43.20 312.52 35.10
C 297.20 32.35 267.02 32.35 251.69 35.10
C 206.61 43.20 161.56 65.10 111.40 103.31
C 97.77 113.68 73.36 139.06 74.40 141.77
C 75.26 144.00 79.19 144.06 81.01 141.87
C 83.13 139.30 93.72 135.12 101.20 133.89
C 113.12 131.94 127.28 134.51 163.42 145.20
C 181.41 150.53 201.59 154.64 222.47 157.22
C 270.35 163.15 284.33 163.41 325.05 159.13"/>
<path fill="#c55436" stroke="none" d="
M 270.78 154.78
C 260.58 152.07 252.20 147.48 244.58 140.40
C 231.46 128.21 225.21 114.84 225.09 98.68
C 224.86 69.37 248.02 43.84 278.25 40.06
C 290.98 38.45 307.91 44.89 319.63 55.76
C 333.02 68.19 339.08 81.38 339.08 98.08
C 339.08 124.61 320.19 147.82 292.89 154.86
C 284.24 157.08 279.35 157.07 270.78 154.78
M 300.35 135.64
C 308.97 131.41 316.01 124.28 320.37 115.36
C 323.44 109.09 323.86 106.95 323.86 97.48
C 323.86 88.01 323.44 85.87 320.37 79.60
C 315.95 70.57 308.95 63.55 299.94 59.11
C 293.69 56.04 291.55 55.62 282.11 55.62
C 272.66 55.62 270.52 56.04 264.27 59.11
C 240.79 70.68 232.85 98.83 246.93 120.67
C 252.18 128.83 261.46 135.77 270.51 138.34
C 279.17 140.79 292.26 139.61 300.35 135.64"/>
<path fill="#ffebeb" stroke="none" d="
M 223.06 151.15
C 202.99 148.42 182.45 143.89 158.10 136.82
C 131.37 129.06 115.09 126.26 103.18 127.37
L 94.83 128.15
L 100.80 121.94
C 107.70 114.74 121.87 103.93 143.53 89.30
C 170.70 70.96 196.12 57.97 221.20 49.60
C 234.82 45.06 250.03 41.35 246.32 43.48
C 240.89 46.60 228.12 60.76 225.11 66.98
C 217.69 82.37 215.74 97.82 219.38 112.43
C 223.09 127.30 227.02 134.52 236.85 144.43
L 245.45 153.10
L 240.52 152.98
C 237.81 152.91 229.96 152.08 223.06 151.15"/>
<path fill="#ffebeb" stroke="none" d="
M 327.36 144.43
C 337.19 134.52 341.13 127.30 344.84 112.43
C 348.45 97.90 346.52 82.35 339.21 67.22
C 335.74 60.04 324.63 47.41 319.38 44.70
C 317.45 43.69 316.07 42.69 316.31 42.46
C 317.08 41.67 339.18 47.97 350.70 52.27
C 365.51 57.77 387.81 68.62 401.99 77.21
C 421.96 89.30 451.19 110.37 460.43 119.34
L 469.38 128.04
L 461.03 127.31
C 449.08 126.27 432.62 129.13 406.12 136.82
C 380.98 144.12 360.87 148.48 339.60 151.26
C 316.71 154.25 317.30 154.58 327.36 144.43"/>
</g>
</svg>
