<?xml version="1.0" encoding="UTF-8" standalone="no"?>
<!DOCTYPE svg PUBLIC "-//W3C//DTD SVG 1.1//EN"
"http://www.w3.org/Graphics/SVG/1.1/DTD/svg11.dtd">
<svg width="600px" height="179px"
xmlns="http://www.w3.org/2000/svg" version="1.1">
<g transform="translate(0000, 0000) scale(1.0000, 1.0000)">
<path fill="#000000" stroke="none" d="
M 35.14 175.92
C 22.90 169.79 11.41 155.17 5.56 138.27
C -2.04 116.32 -1.66 60.36 6.23 40.85
C 12.25 25.95 23.66 13.72 37.92 6.89
C 53.36 -0.52 34.16 -0.05 302.34 0.27
L 546.12 0.57
L 555.20 4.29
C 577.51 13.44 590.48 28.90 596.67 53.70
C 601.43 72.80 600.83 109.27 595.40 130.97
C 590.36 151.04 577.79 168.88 563.73 175.92
L 557.59 179.00
L 299.43 179.00
L 41.27 179.00
L 35.14 175.92
M 560.04 169.90
C 566.52 166.95 576.58 157.20 580.79 149.80
C 585.10 142.24 589.07 130.58 591.06 119.63
C 593.49 106.39 593.17 67.89 590.55 56.68
C 584.72 31.66 568.87 14.55 545.98 8.56
C 540.23 7.06 509.65 6.84 299.43 6.84
C 89.22 6.84 58.64 7.06 52.89 8.56
C 35.93 13.00 22.31 23.84 14.85 38.84
C 7.74 53.11 6.24 61.76 6.25 88.36
C 6.26 118.70 9.27 134.32 18.08 149.80
C 22.29 157.20 32.35 166.95 38.82 169.90
C 43.57 172.07 48.91 172.11 299.43 172.11
C 549.96 172.11 555.30 172.07 560.04 169.90"/>
<path fill="#000000" stroke="none" d="
M 286.96 165.75
C 284.77 165.47 276.94 164.47 269.55 163.54
C 250.28 161.11 226.65 156.08 197.35 148.19
C 156.56 137.20 146.30 135.32 126.47 135.21
C 113.64 135.13 107.26 135.62 100.54 137.20
C 95.64 138.37 91.20 138.88 90.68 138.34
C 89.51 137.16 86.90 113.35 87.79 111.91
C 88.14 111.34 94.70 108.18 102.34 104.88
C 116.67 98.71 118.75 97.46 132.90 86.46
C 137.47 82.91 148.36 75.68 157.09 70.40
C 207.75 39.79 236.51 28.01 287.81 16.82
L 299.43 14.29
L 311.06 16.82
C 362.36 28.01 391.11 39.79 441.78 70.40
C 450.51 75.68 461.40 82.91 465.97 86.46
C 480.11 97.46 482.20 98.71 496.53 104.88
C 504.17 108.18 510.73 111.34 511.08 111.91
C 511.96 113.35 509.35 137.16 508.19 138.34
C 507.66 138.88 503.23 138.37 498.33 137.20
C 491.60 135.62 485.23 135.13 472.40 135.21
C 452.56 135.32 442.31 137.20 401.51 148.19
C 372.66 155.96 349.18 160.99 329.39 163.61
C 315.10 165.51 293.60 166.60 286.96 165.75
M 318.71 157.94
C 339.39 155.72 361.77 151.47 385.63 145.22
C 431.15 133.30 440.91 131.02 454.06 129.28
C 469.42 127.24 486.99 127.71 498.48 130.45
C 502.22 131.35 505.51 131.84 505.80 131.56
C 506.09 131.26 506.53 127.80 506.78 123.85
L 507.23 116.68
L 496.06 112.02
C 480.76 105.63 480.27 105.56 470.04 108.18
C 465.10 109.44 454.68 111.54 446.88 112.85
C 439.08 114.16 421.22 118.27 407.18 121.97
C 369.99 131.80 336.44 139.67 316.73 143.20
L 299.43 146.29
L 282.14 143.20
C 262.42 139.67 228.87 131.80 191.68 121.97
C 177.64 118.27 159.79 114.16 151.98 112.84
C 144.18 111.53 134.01 109.46 129.37 108.24
C 124.73 107.02 120.07 106.03 119.01 106.03
C 117.95 106.03 111.36 108.43 104.36 111.36
L 91.63 116.69
L 92.09 123.86
C 92.34 127.80 92.78 131.26 93.06 131.56
C 93.36 131.84 96.65 131.35 100.39 130.45
C 111.88 127.71 129.45 127.24 144.81 129.28
C 157.95 131.02 167.72 133.30 213.23 145.22
C 236.31 151.26 259.22 155.70 278.45 157.84
C 296.59 159.87 300.74 159.88 318.71 157.94
M 309.54 136.20
C 331.84 130.92 350.76 111.03 355.01 88.38
C 360.20 60.67 336.61 29.32 306.47 23.91
C 273.46 17.98 237.58 54.93 243.86 88.38
C 248.05 110.74 266.97 130.83 288.81 136.14
C 297.52 138.26 300.79 138.27 309.54 136.20
M 252.17 125.04
C 244.72 116.84 239.85 107.26 237.09 95.35
C 234.20 82.90 234.20 77.86 237.09 65.41
C 239.61 54.52 244.25 44.80 250.31 37.68
C 252.48 35.14 253.78 33.06 253.21 33.06
C 252.65 33.06 245.33 35.40 236.96 38.26
C 206.59 48.63 152.14 78.70 129.97 97.36
L 126.67 100.14
L 132.68 101.93
C 135.98 102.92 144.91 104.74 152.51 105.97
C 160.11 107.22 173.18 110.05 181.55 112.26
C 189.94 114.48 203.16 117.88 210.96 119.83
C 218.77 121.77 231.78 125.06 239.89 127.15
C 248.00 129.22 255.32 130.97 256.16 131.02
C 257.00 131.07 255.21 128.38 252.17 125.04
M 358.26 127.24
C 366.77 125.11 380.10 121.77 387.90 119.82
C 395.71 117.88 408.93 114.48 417.31 112.26
C 425.68 110.05 438.76 107.22 446.36 105.97
C 453.96 104.74 462.88 102.92 466.19 101.93
L 472.20 100.14
L 468.90 97.36
C 446.72 78.70 392.28 48.63 361.91 38.26
C 353.53 35.40 346.22 33.06 345.65 33.06
C 345.09 33.06 346.39 35.14 348.56 37.68
C 354.61 44.80 359.25 54.52 361.78 65.41
C 364.63 77.67 364.63 82.23 361.83 94.97
C 359.21 106.89 354.25 116.73 346.70 125.04
C 343.66 128.38 341.53 131.11 341.99 131.11
C 342.44 131.11 349.77 129.37 358.26 127.24"/>
<path fill="#000000" stroke="none" d="
M 288.98 119.33
C 280.37 116.87 271.54 110.26 266.55 102.49
C 253.17 81.67 260.71 54.83 283.04 43.80
C 288.99 40.87 291.02 40.47 300.00 40.47
C 308.98 40.47 311.01 40.87 316.96 43.80
C 325.52 48.03 332.18 54.73 336.39 63.33
C 339.30 69.31 339.70 71.35 339.70 80.38
C 339.70 89.41 339.30 91.45 336.39 97.42
C 329.64 111.23 317.50 119.50 302.67 120.36
C 297.65 120.65 292.20 120.24 288.98 119.33"/>
<path fill="#c57a36" stroke="none" d="
M 38.82 169.90
C 32.35 166.95 22.29 157.20 18.08 149.80
C 13.77 142.24 9.80 130.58 7.80 119.63
C 5.41 106.53 5.69 67.89 8.27 56.89
C 13.64 33.85 26.44 18.44 47.07 10.15
L 53.88 7.41
L 296.51 7.11
C 509.43 6.85 539.95 7.02 545.81 8.53
C 562.81 12.91 576.52 23.78 584.02 38.84
C 591.13 53.11 592.63 61.76 592.62 88.36
C 592.60 118.70 589.60 134.32 580.79 149.80
C 576.58 157.20 566.52 166.95 560.04 169.90
C 555.30 172.07 549.96 172.11 299.43 172.11
C 48.91 172.11 43.57 172.07 38.82 169.90
M 329.39 163.61
C 349.18 160.99 372.66 155.96 401.51 148.19
C 442.31 137.20 452.56 135.32 472.40 135.21
C 485.23 135.13 491.60 135.62 498.33 137.20
C 503.23 138.37 507.66 138.88 508.19 138.34
C 509.35 137.16 511.96 113.35 511.08 111.91
C 510.73 111.34 504.17 108.18 496.53 104.88
C 482.20 98.71 480.11 97.46 465.97 86.46
C 461.40 82.91 450.51 75.68 441.78 70.40
C 391.11 39.79 362.36 28.01 311.06 16.82
L 299.43 14.29
L 287.81 16.82
C 236.51 28.01 207.75 39.79 157.09 70.40
C 148.36 75.68 137.47 82.91 132.90 86.46
C 118.75 97.46 116.67 98.71 102.34 104.88
C 94.70 108.18 88.14 111.34 87.79 111.91
C 86.90 113.35 89.51 137.16 90.68 138.34
C 91.20 138.88 95.64 138.37 100.54 137.20
C 107.26 135.62 113.64 135.13 126.47 135.21
C 146.30 135.32 156.56 137.20 197.35 148.19
C 226.65 156.08 250.28 161.11 269.55 163.54
C 276.94 164.47 284.77 165.47 286.96 165.75
C 293.60 166.60 315.10 165.51 329.39 163.61"/>
<path fill="#c55436" stroke="none" d="
M 288.81 136.14
C 266.97 130.83 248.05 110.74 243.86 88.38
C 238.64 60.54 262.46 29.06 292.60 23.94
C 325.80 18.32 361.28 54.94 355.01 88.38
C 350.76 111.03 331.84 130.92 309.54 136.20
C 300.79 138.27 297.52 138.26 288.81 136.14
M 317.34 116.75
C 325.54 112.72 332.23 105.93 336.39 97.42
C 339.30 91.45 339.70 89.41 339.70 80.38
C 339.70 71.35 339.30 69.31 336.39 63.33
C 332.18 54.73 325.52 48.03 316.96 43.80
C 311.01 40.87 308.98 40.47 300.00 40.47
C 291.02 40.47 288.99 40.87 283.04 43.80
C 260.71 54.83 253.17 81.67 266.55 102.49
C 271.54 110.26 280.37 116.87 288.98 119.33
C 297.21 121.66 309.65 120.53 317.34 116.75"/>
<path fill="#ffebeb" stroke="none" d="
M 239.89 127.15
C 231.78 125.06 218.77 121.77 210.96 119.83
C 203.16 117.88 189.94 114.48 181.55 112.26
C 173.18 110.05 160.11 107.22 152.51 105.97
C 144.91 104.74 135.98 102.92 132.68 101.93
L 126.67 100.14
L 129.97 97.36
C 152.39 78.50 207.22 48.26 237.21 38.24
C 245.72 35.39 253.03 33.06 253.46 33.06
C 253.89 33.06 252.48 35.14 250.31 37.68
C 244.25 44.80 239.61 54.52 237.09 65.41
C 234.20 77.86 234.20 82.90 237.09 95.35
C 239.85 107.26 244.72 116.84 252.17 125.04
C 255.21 128.38 257.00 131.07 256.16 131.02
C 255.32 130.97 248.00 129.22 239.89 127.15"/>
<path fill="#ffebeb" stroke="none" d="
M 346.70 125.04
C 354.25 116.73 359.21 106.89 361.83 94.97
C 364.63 82.23 364.63 77.67 361.78 65.41
C 359.25 54.52 354.61 44.80 348.56 37.68
C 346.39 35.14 345.09 33.06 345.65 33.06
C 346.22 33.06 353.53 35.40 361.91 38.26
C 392.28 48.63 446.72 78.70 468.90 97.36
L 472.20 100.14
L 466.19 101.93
C 462.88 102.92 453.96 104.74 446.36 105.97
C 438.76 107.22 425.68 110.05 417.31 112.26
C 408.93 114.48 395.71 117.88 387.90 119.82
C 380.10 121.77 366.77 125.11 358.26 127.24
C 349.77 129.37 342.44 131.11 341.99 131.11
C 341.53 131.11 343.66 128.38 346.70 125.04"/>
<path fill="#1a5eb3" stroke="none" d="
M 278.45 157.84
C 259.22 155.70 236.31 151.26 213.23 145.22
C 167.72 133.30 157.95 131.02 144.81 129.28
C 129.45 127.24 111.88 127.71 100.39 130.45
C 96.65 131.35 93.36 131.84 93.06 131.56
C 92.78 131.26 92.34 127.80 92.09 123.85
L 91.63 116.68
L 102.81 112.02
C 118.23 105.59 118.78 105.51 128.93 108.14
C 133.81 109.41 144.18 111.53 151.98 112.84
C 159.79 114.15 177.64 118.27 191.68 121.97
C 228.87 131.80 262.42 139.67 282.14 143.20
L 299.43 146.29
L 316.73 143.20
C 336.44 139.67 369.99 131.80 407.18 121.97
C 421.22 118.27 439.08 114.16 446.88 112.85
C 454.68 111.54 465.10 109.44 470.04 108.18
C 480.27 105.56 480.76 105.63 496.06 112.02
L 507.23 116.68
L 506.78 123.85
C 506.53 127.80 506.09 131.26 505.80 131.56
C 505.51 131.84 502.22 131.35 498.48 130.45
C 486.99 127.71 469.42 127.24 454.06 129.28
C 440.91 131.02 431.15 133.30 385.63 145.22
C 361.77 151.47 339.39 155.72 318.71 157.94
C 300.74 159.88 296.59 159.87 278.45 157.84"/>
</g>
</svg>
