<?xml version="1.0" encoding="UTF-8" standalone="no"?>
<!DOCTYPE svg PUBLIC "-//W3C//DTD SVG 1.1//EN"
"http://www.w3.org/Graphics/SVG/1.1/DTD/svg11.dtd">
<svg width="600px" height="425px"
xmlns="http://www.w3.org/2000/svg" version="1.1">
<g transform="translate(0000, 0000) scale(1.0000, 1.0000)">
<path fill="#000000" stroke="none" d="
M 353.50 423.21
C 351.24 420.49 354.50 414.81 362.17 408.16
C 371.39 400.17 384.26 382.70 391.79 367.95
C 400.03 351.82 419.19 304.12 419.19 299.77
C 419.19 297.94 418.54 295.54 417.73 294.45
C 416.38 292.61 415.27 292.95 403.15 298.89
C 395.94 302.43 388.96 305.17 387.64 304.99
C 384.58 304.55 383.88 301.05 386.33 298.35
C 388.12 296.37 387.86 296.20 380.96 294.84
C 376.98 294.06 361.01 293.01 345.49 292.50
C 326.55 291.89 312.67 290.83 303.24 289.28
C 290.60 287.18 288.25 287.10 279.80 288.46
C 273.63 289.45 269.69 290.70 268.34 292.12
C 266.11 294.45 259.44 310.55 255.74 322.55
C 250.63 339.14 247.49 355.13 245.84 372.91
C 243.67 396.33 242.40 399.83 234.31 404.39
C 229.38 407.18 227.70 408.97 225.33 413.99
C 221.18 422.75 219.14 423.85 207.04 423.85
C 198.28 423.85 196.61 423.53 194.49 421.41
C 190.30 417.21 191.90 409.98 200.11 396.01
C 208.09 382.42 212.04 370.90 214.65 353.59
C 217.50 334.71 219.11 309.61 217.72 305.93
C 216.58 302.94 216.23 302.82 209.34 303.14
L 202.17 303.49
L 200.06 311.55
C 198.90 315.99 195.70 323.53 192.93 328.31
C 190.17 333.10 182.22 348.65 175.26 362.86
C 162.37 389.16 157.15 397.07 147.98 404.22
C 139.76 410.64 139.35 411.12 139.35 414.14
C 139.35 415.89 137.97 418.49 135.98 420.49
C 132.70 423.76 132.30 423.85 121.01 423.85
C 110.94 423.85 109.11 423.55 107.10 421.54
C 105.83 420.28 104.80 417.93 104.80 416.32
C 104.80 412.31 108.45 405.55 112.86 401.39
C 114.88 399.49 117.31 396.44 118.26 394.61
C 119.21 392.79 122.94 387.58 126.53 383.05
C 139.31 366.96 147.10 347.03 161.50 293.41
C 163.16 287.24 161.33 283.77 151.98 275.40
C 142.31 266.74 134.72 254.85 127.42 236.93
C 120.17 219.12 112.04 198.87 108.84 190.62
L 106.16 183.71
L 95.46 184.04
C 89.57 184.22 75.49 185.65 64.15 187.21
C 31.60 191.69 25.64 191.94 19.26 189.12
C 13.96 186.78 9.22 181.20 9.21 177.28
C 9.21 176.29 7.87 174.22 6.22 172.67
C 1.65 168.40 0.00 164.29 0.00 157.12
C 0.00 148.25 2.64 144.36 14.18 136.23
C 28.04 126.46 39.36 116.19 45.92 107.45
C 52.57 98.54 52.56 98.51 42.41 93.10
C 29.55 86.23 16.91 69.24 13.05 53.64
C 10.62 43.76 11.99 35.29 18.01 23.08
C 24.46 9.99 34.70 0.18 37.38 4.53
C 37.74 5.11 36.68 9.65 35.01 14.60
C 32.35 22.47 32.05 24.86 32.59 33.45
C 33.71 50.98 40.17 61.01 58.24 73.29
L 67.85 79.83
L 75.89 78.49
C 80.31 77.77 88.65 77.17 94.40 77.17
C 106.76 77.17 110.15 75.97 118.13 68.77
C 129.48 58.53 135.43 42.07 136.69 17.46
C 137.60 -0.47 138.73 -2.20 145.31 4.24
C 151.62 10.39 153.59 17.70 153.64 35.13
C 153.67 50.72 152.10 56.33 144.16 68.70
C 141.78 72.41 138.67 77.34 137.26 79.66
L 134.68 83.86
L 141.48 83.25
C 147.41 82.71 148.58 82.95 150.81 85.17
C 152.79 87.15 153.26 88.78 152.97 92.52
L 152.59 97.32
L 160.08 99.82
C 164.19 101.19 175.59 103.72 185.40 105.42
C 195.22 107.14 216.54 112.09 232.79 116.43
C 278.68 128.72 292.81 131.36 316.70 132.12
C 341.21 132.89 354.53 131.69 396.16 124.99
C 455.00 115.52 478.38 113.63 504.99 116.19
C 549.17 120.45 569.25 129.00 577.04 146.85
C 578.78 150.83 579.12 156.73 579.62 190.62
C 580.30 237.54 581.17 243.99 590.71 273.28
C 598.09 295.98 600.92 311.17 599.52 320.58
C 598.62 326.51 595.60 330.56 592.05 330.56
C 588.88 330.56 582.84 323.10 579.04 314.47
C 570.75 295.60 570.79 295.69 569.91 298.11
C 569.45 299.35 568.19 307.55 567.13 316.33
C 565.22 332.03 565.29 355.31 567.31 383.11
C 568.13 394.46 567.27 396.40 559.74 400.21
C 553.80 403.22 553.43 403.84 552.21 412.77
C 551.71 416.40 550.48 419.34 548.72 421.12
C 546.18 423.64 545.08 423.85 533.84 423.85
C 523.22 423.85 521.40 423.56 519.39 421.54
C 518.12 420.28 517.08 418.60 517.07 417.80
C 517.07 417.01 520.83 408.90 525.42 399.78
L 533.78 383.18
L 533.78 349.06
L 533.78 314.96
L 529.96 307.19
C 525.64 298.41 521.21 294.54 503.84 284.37
C 496.07 279.82 492.32 278.29 488.87 278.28
C 482.46 278.24 475.62 279.75 475.62 281.18
C 475.62 281.85 464.82 300.09 451.62 321.73
C 438.43 343.37 423.85 367.55 419.21 375.47
C 413.03 386.02 408.71 391.88 403.02 397.36
C 395.34 404.76 392.73 409.67 392.72 416.71
C 392.71 418.16 391.44 420.62 389.88 422.18
C 387.14 424.91 386.51 425.00 371.02 425.00
C 357.95 425.00 354.71 424.67 353.50 423.21
M 131.29 416.94
C 134.19 414.04 134.22 411.59 131.37 410.07
C 128.34 408.45 128.67 408.25 124.50 414.06
L 120.78 419.24
L 124.88 419.24
C 127.45 419.24 129.85 418.38 131.29 416.94
M 213.48 417.35
C 216.76 415.79 219.96 411.82 219.96 409.32
C 219.96 409.00 218.06 408.90 215.75 409.09
C 212.00 409.42 211.30 410.00 209.46 414.35
C 207.17 419.76 207.66 420.13 213.48 417.35
M 369.92 414.98
C 374.20 410.80 375.26 408.88 373.29 408.88
C 371.37 408.88 361.58 417.10 362.23 418.16
C 363.45 420.14 365.50 419.29 369.92 414.98
M 384.64 416.94
C 387.14 414.44 387.69 410.61 385.73 409.41
C 384.35 408.55 380.89 411.36 377.53 416.07
L 375.27 419.24
L 378.81 419.24
C 380.81 419.24 383.34 418.24 384.64 416.94
M 116.88 412.19
C 119.55 408.47 120.70 405.89 120.02 405.21
C 118.68 403.87 110.06 415.20 111.12 416.91
C 112.19 418.65 112.30 418.57 116.88 412.19
M 203.79 409.16
C 203.88 406.50 201.62 407.69 199.75 411.28
C 198.74 413.24 198.25 415.71 198.67 416.75
C 199.26 418.27 199.87 417.84 201.58 414.63
C 202.77 412.41 203.77 409.96 203.79 409.16
M 530.95 411.09
C 533.99 405.06 534.20 404.13 532.42 404.48
C 528.58 405.21 523.28 418.09 526.81 418.09
C 527.15 418.09 529.00 414.93 530.95 411.09
M 542.41 416.95
C 544.83 415.65 547.57 408.47 546.59 405.95
C 545.25 402.47 542.36 404.46 538.96 411.18
C 535.61 417.82 535.57 418.09 537.87 418.09
C 539.19 418.09 541.23 417.57 542.41 416.95
M 141.92 400.21
C 150.78 393.71 157.26 384.29 167.64 362.80
C 173.00 351.72 179.22 339.27 181.46 335.16
C 189.58 320.24 194.59 309.17 194.89 305.46
C 195.20 301.68 195.19 301.67 182.35 296.11
L 169.51 290.53
L 166.03 301.61
C 164.12 307.72 160.93 318.40 158.95 325.37
C 148.46 362.32 142.38 375.53 128.12 392.39
L 123.05 398.38
L 128.61 401.27
C 131.67 402.86 134.68 404.18 135.32 404.19
C 135.95 404.20 138.92 402.41 141.92 400.21
M 224.64 402.46
C 225.47 401.46 228.16 399.62 230.63 398.36
C 236.56 395.33 238.19 391.09 239.61 375.13
C 242.15 346.31 247.47 323.62 257.62 298.31
L 262.93 285.06
L 261.57 274.12
C 260.83 268.11 259.91 261.24 259.52 258.88
C 258.97 255.48 259.23 254.42 260.78 253.83
C 264.05 252.58 265.00 254.88 266.87 268.52
C 267.86 275.72 269.09 282.08 269.61 282.67
C 270.18 283.30 274.39 283.15 280.21 282.27
C 289.08 280.96 291.41 281.09 308.94 283.82
C 324.14 286.18 332.20 286.79 348.55 286.80
C 363.70 286.80 372.54 287.40 382.19 289.06
C 393.45 290.99 395.71 291.10 398.31 289.75
C 403.09 287.30 424.72 281.29 433.59 279.98
C 438.02 279.31 450.73 277.44 461.80 275.80
C 472.88 274.17 482.60 272.62 483.40 272.36
C 484.30 272.07 482.28 268.54 478.02 262.92
C 470.69 253.27 464.26 241.41 460.63 230.85
C 457.57 221.97 457.66 219.99 461.14 219.99
C 463.47 219.99 464.23 220.95 465.90 226.03
C 468.74 234.68 475.09 247.08 480.88 255.22
C 487.96 265.20 496.57 272.59 509.68 279.88
C 524.27 288.00 533.10 296.44 536.81 305.79
C 539.48 312.55 539.54 313.51 539.54 348.98
C 539.54 383.96 539.45 385.49 536.95 391.60
C 535.52 395.08 534.36 398.06 534.36 398.22
C 534.36 398.38 537.48 398.51 541.30 398.51
C 546.46 398.51 549.74 397.76 554.02 395.58
C 561.73 391.68 562.57 389.27 560.96 375.83
C 558.18 352.65 560.37 307.96 565.02 292.89
L 566.88 286.92
L 562.03 278.08
C 553.14 261.88 551.22 255.47 551.37 242.45
C 551.46 233.49 552.28 227.98 555.04 217.68
C 562.10 191.41 563.40 184.24 562.80 174.98
C 562.17 165.17 560.15 160.34 552.79 151.03
C 547.75 144.65 547.19 141.09 551.21 141.09
C 554.33 141.09 561.41 149.46 565.34 157.79
C 568.12 163.68 568.34 165.35 568.47 181.40
C 568.65 206.49 571.04 273.55 571.87 277.28
C 573.97 286.68 585.31 313.88 589.13 318.66
L 591.72 321.92
L 593.14 318.82
C 595.34 313.99 592.91 301.35 585.19 277.36
C 575.32 246.70 573.58 232.75 573.50 183.71
C 573.45 150.74 573.12 149.26 563.99 140.87
C 552.91 130.69 538.34 125.83 509.02 122.55
C 480.20 119.31 459.82 120.81 399.62 130.59
C 363.89 136.39 346.20 138.21 325.30 138.21
C 295.67 138.21 279.14 135.44 229.64 122.16
C 213.11 117.72 191.86 112.78 182.42 111.18
C 172.99 109.57 161.70 107.18 157.35 105.88
C 149.50 103.53 149.42 103.53 146.98 105.75
C 143.31 109.12 136.08 112.42 129.21 113.89
C 120.47 115.73 119.99 115.61 118.11 111.13
C 117.18 108.90 115.49 106.78 114.36 106.42
C 113.22 106.05 111.25 105.32 109.98 104.78
C 108.71 104.25 106.51 103.47 105.07 103.07
C 97.50 100.95 92.58 91.96 95.49 85.54
L 96.85 82.58
L 87.27 83.25
C 82.01 83.63 76.16 84.50 74.27 85.22
C 69.07 87.17 60.33 96.38 56.82 103.59
C 52.84 111.77 32.97 131.85 20.00 140.81
C 14.86 144.37 9.55 148.68 8.20 150.39
C 2.55 157.58 7.13 167.10 19.00 172.80
C 22.56 174.51 26.17 175.02 34.84 175.04
L 46.07 175.07
L 46.07 178.04
L 46.07 181.02
L 32.19 180.63
C 18.91 180.26 18.41 180.34 20.75 182.23
C 24.96 185.63 30.07 185.71 52.50 182.69
C 64.48 181.08 80.17 179.18 87.36 178.48
C 94.96 177.72 102.60 176.25 105.58 174.98
C 110.86 172.72 122.04 164.76 128.73 158.51
C 131.78 155.65 132.89 155.21 134.49 156.21
C 138.32 158.64 136.60 161.56 126.79 169.23
C 121.47 173.39 116.06 178.22 114.77 179.96
L 112.41 183.13
L 116.18 191.48
C 118.25 196.08 122.99 207.77 126.73 217.45
C 130.46 227.15 136.50 240.88 140.17 247.97
C 146.03 259.32 148.15 262.16 157.77 271.59
C 169.09 282.67 175.23 286.40 194.82 294.13
C 203.98 297.73 214.93 298.40 213.73 295.28
C 213.33 294.24 208.38 285.81 202.71 276.53
C 184.28 246.33 177.52 228.89 177.03 210.20
C 176.80 201.72 176.96 200.98 179.04 200.98
C 181.02 200.98 181.49 202.28 182.72 211.52
C 185.36 231.19 190.17 242.40 210.51 276.18
C 225.63 301.30 225.65 301.38 222.91 333.16
C 220.25 364.08 216.00 382.43 208.42 395.66
L 204.89 401.84
L 208.69 402.46
C 212.51 403.09 217.82 403.77 221.26 404.10
C 222.29 404.19 223.81 403.45 224.64 402.46
M 396.91 393.61
C 403.91 386.50 408.36 380.51 414.64 369.72
C 419.25 361.79 433.09 338.81 445.38 318.65
C 457.68 298.48 467.54 281.78 467.30 281.53
C 466.58 280.82 435.25 286.36 430.13 288.10
L 425.53 289.67
L 424.84 299.46
C 424.21 308.34 423.21 311.54 414.05 334.01
C 399.74 369.09 393.07 381.84 379.04 400.96
C 377.55 402.98 377.78 403.12 382.51 403.12
C 387.33 403.12 388.03 402.66 396.91 393.61
M 564.61 246.76
C 564.41 234.89 563.93 222.32 563.53 218.83
L 562.81 212.50
L 561.25 218.26
C 560.40 221.43 558.89 228.56 557.90 234.11
C 556.31 243.07 556.30 244.93 557.82 250.81
C 559.43 257.08 563.78 268.36 564.60 268.36
C 564.81 268.36 564.82 258.64 564.61 246.76
M 135.71 104.89
C 142.65 101.33 148.72 92.89 146.69 89.62
C 144.77 86.50 130.23 91.67 122.83 98.11
L 118.41 101.97
L 120.45 105.52
C 122.38 108.89 122.73 109.03 126.99 108.07
C 129.47 107.51 133.39 106.09 135.71 104.89
M 117.69 93.38
C 121.62 90.19 126.05 85.30 127.80 82.16
C 129.51 79.09 133.87 71.95 137.47 66.27
C 141.20 60.41 145.08 52.51 146.46 47.95
C 148.68 40.67 148.79 38.93 147.69 28.74
C 147.01 22.57 145.66 16.04 144.68 14.24
C 142.93 11.00 142.89 11.08 142.85 19.17
C 142.80 28.21 139.44 46.29 136.34 54.24
C 131.34 67.03 123.41 75.56 110.25 82.24
C 99.03 87.94 96.53 93.52 103.50 97.31
C 108.32 99.94 110.26 99.40 117.69 93.38
M 58.81 87.80
L 62.40 84.60
L 55.70 80.02
C 52.02 77.50 46.05 72.99 42.44 70.00
C 31.83 61.20 26.61 47.60 26.44 28.22
L 26.38 21.31
L 23.04 27.64
C 17.63 37.93 16.77 44.19 19.53 53.12
C 23.86 67.14 36.06 82.33 47.62 88.10
C 50.81 89.69 53.84 90.99 54.33 90.99
C 54.83 90.99 56.86 89.55 58.81 87.80"/>
<path fill="#000000" stroke="none" d="
M 23.90 166.91
C 20.90 165.16 21.40 160.68 24.83 158.42
C 30.96 154.41 35.01 158.00 32.33 165.07
C 31.07 168.36 27.66 169.11 23.90 166.91"/>
<path fill="#000000" stroke="none" d="
M 66.70 132.54
C 64.21 130.05 63.34 128.09 63.34 124.97
C 63.34 119.12 68.43 114.02 74.28 114.02
C 80.13 114.02 85.22 119.12 85.22 124.97
C 85.22 128.09 84.35 130.05 81.86 132.54
C 77.21 137.19 71.36 137.19 66.70 132.54
M 79.97 129.90
C 82.38 126.46 82.24 122.92 79.57 119.62
C 76.68 116.06 75.25 117.55 77.80 121.45
C 79.53 124.10 79.59 124.89 78.22 127.60
C 77.37 129.32 76.47 131.12 76.24 131.59
C 75.25 133.63 78.35 132.22 79.97 129.90"/>
<path fill="#aba2a2" stroke="none" d="
M 103.50 97.31
C 96.53 93.52 99.03 87.94 110.25 82.24
C 119.97 77.31 125.79 72.41 130.42 65.35
C 137.49 54.51 141.31 41.14 142.65 22.46
C 143.32 13.06 143.54 12.35 144.92 14.80
C 145.77 16.29 147.01 22.55 147.67 28.72
C 148.79 38.93 148.68 40.66 146.46 47.95
C 145.08 52.51 141.20 60.41 137.47 66.27
C 133.87 71.95 129.51 79.09 127.80 82.16
C 124.42 88.19 112.01 99.09 108.61 99.01
C 107.46 98.98 105.17 98.22 103.50 97.31"/>
<path fill="#aba2a2" stroke="none" d="
M 47.62 88.10
C 36.06 82.33 23.86 67.14 19.53 53.12
C 16.77 44.19 17.63 37.93 23.04 27.64
L 26.38 21.31
L 26.44 28.22
C 26.61 47.60 31.83 61.20 42.44 70.00
C 46.05 72.99 52.02 77.50 55.70 80.02
L 62.40 84.60
L 58.81 87.80
C 56.86 89.55 54.83 90.99 54.33 90.99
C 53.84 90.99 50.81 89.69 47.62 88.10"/>
<path fill="#aa4422" stroke="none" d="
M 128.61 401.27
L 123.05 398.38
L 128.12 392.39
C 142.38 375.53 148.46 362.32 158.95 325.37
C 160.93 318.40 164.12 307.72 166.03 301.61
L 169.51 290.53
L 182.35 296.11
C 195.19 301.67 195.20 301.68 194.89 305.46
C 194.59 309.17 189.58 320.24 181.46 335.16
C 179.22 339.27 173.00 351.72 167.64 362.80
C 162.17 374.13 155.60 385.86 152.64 389.58
C 147.59 395.93 137.74 404.23 135.32 404.19
C 134.68 404.18 131.67 402.86 128.61 401.27"/>
<path fill="#aa4422" stroke="none" d="
M 215.93 403.51
C 214.03 403.28 210.77 402.81 208.69 402.46
L 204.89 401.84
L 208.42 395.66
C 216.00 382.43 220.25 364.08 222.91 333.16
C 225.65 301.38 225.63 301.30 210.51 276.18
C 190.17 242.40 185.36 231.19 182.72 211.52
C 181.49 202.28 181.02 200.98 179.04 200.98
C 176.96 200.98 176.80 201.72 177.03 210.20
C 177.52 228.89 184.28 246.33 202.71 276.53
C 208.38 285.81 213.33 294.24 213.73 295.28
C 214.93 298.40 203.98 297.73 194.82 294.13
C 175.23 286.40 169.09 282.67 157.77 271.59
C 148.15 262.16 146.03 259.32 140.17 247.97
C 136.50 240.88 130.46 227.15 126.73 217.45
C 122.99 207.77 118.25 196.08 116.18 191.48
L 112.41 183.13
L 114.77 179.96
C 116.06 178.22 121.47 173.39 126.79 169.23
C 136.60 161.56 138.32 158.64 134.49 156.21
C 132.89 155.21 131.78 155.65 128.73 158.51
C 122.04 164.76 110.86 172.72 105.58 174.98
C 102.60 176.25 94.96 177.72 87.36 178.48
C 80.17 179.18 64.48 181.08 52.50 182.69
C 30.07 185.71 24.96 185.63 20.75 182.23
C 18.41 180.34 18.91 180.26 32.19 180.63
L 46.07 181.02
L 46.07 178.04
L 46.07 175.07
L 34.84 175.04
C 26.17 175.02 22.56 174.51 19.00 172.80
C 7.13 167.10 2.55 157.58 8.20 150.39
C 9.55 148.68 14.86 144.37 20.00 140.81
C 32.97 131.85 52.84 111.77 56.82 103.59
C 60.28 96.48 69.06 87.18 74.06 85.30
C 75.85 84.63 81.70 83.74 87.07 83.33
L 96.84 82.58
L 95.49 85.54
C 92.58 91.96 97.50 100.95 105.07 103.07
C 106.51 103.47 108.71 104.25 109.98 104.78
C 111.25 105.32 113.22 106.05 114.36 106.42
C 115.49 106.78 117.18 108.90 118.11 111.13
C 119.99 115.61 120.47 115.73 129.21 113.89
C 136.08 112.42 143.31 109.12 146.98 105.75
C 149.42 103.53 149.50 103.53 157.35 105.88
C 161.70 107.18 172.99 109.57 182.42 111.18
C 191.86 112.78 213.11 117.72 229.64 122.16
C 279.14 135.44 295.67 138.21 325.30 138.21
C 346.20 138.21 363.89 136.39 399.62 130.59
C 459.82 120.81 480.20 119.31 509.02 122.55
C 538.34 125.83 552.91 130.69 563.99 140.87
C 573.12 149.26 573.45 150.74 573.50 183.71
C 573.58 232.75 575.32 246.70 585.19 277.36
C 592.91 301.35 595.34 313.99 593.14 318.82
L 591.72 321.92
L 589.13 318.66
C 585.31 313.88 573.97 286.68 571.87 277.28
C 571.04 273.55 568.65 206.49 568.47 181.40
C 568.34 165.35 568.12 163.68 565.34 157.79
C 561.41 149.46 554.33 141.09 551.21 141.09
C 547.19 141.09 547.75 144.65 552.79 151.03
C 560.15 160.34 562.17 165.17 562.80 174.98
C 563.40 184.24 562.10 191.41 555.04 217.68
C 552.28 227.98 551.46 233.49 551.37 242.45
C 551.22 255.47 553.14 261.88 562.03 278.08
L 566.88 286.92
L 565.02 292.89
C 560.37 307.96 558.18 352.65 560.96 375.83
C 562.57 389.27 561.73 391.68 554.02 395.58
C 549.74 397.76 546.46 398.51 541.30 398.51
C 537.48 398.51 534.36 398.38 534.36 398.22
C 534.36 398.06 535.52 395.08 536.95 391.60
C 539.45 385.49 539.54 383.96 539.54 348.98
C 539.54 313.51 539.48 312.55 536.81 305.79
C 533.10 296.44 524.27 288.00 509.68 279.88
C 496.57 272.59 487.96 265.20 480.88 255.22
C 475.09 247.08 468.74 234.68 465.90 226.03
C 464.23 220.95 463.47 219.99 461.14 219.99
C 457.66 219.99 457.57 221.97 460.63 230.85
C 464.26 241.41 470.69 253.27 478.02 262.92
C 482.28 268.54 484.30 272.07 483.40 272.36
C 482.60 272.62 472.88 274.17 461.80 275.80
C 450.73 277.44 438.02 279.31 433.59 279.98
C 424.72 281.29 403.09 287.30 398.31 289.75
C 395.71 291.10 393.45 290.99 382.19 289.06
C 372.54 287.40 363.70 286.80 348.55 286.80
C 332.20 286.79 324.14 286.18 308.94 283.82
C 291.41 281.09 289.08 280.96 280.21 282.27
C 274.39 283.15 270.18 283.30 269.61 282.67
C 269.09 282.08 267.86 275.72 266.87 268.52
C 265.00 254.88 264.05 252.58 260.78 253.83
C 259.23 254.42 258.97 255.48 259.52 258.88
C 259.91 261.24 260.83 268.11 261.57 274.12
L 262.93 285.06
L 257.62 298.31
C 247.47 323.62 242.15 346.31 239.61 375.13
C 238.19 391.09 236.56 395.33 230.63 398.36
C 228.16 399.62 225.47 401.46 224.64 402.46
C 223.15 404.26 222.62 404.31 215.93 403.51
M 32.33 165.07
C 35.01 158.00 30.96 154.41 24.83 158.42
C 19.46 161.95 21.79 168.03 28.53 168.12
C 30.33 168.15 31.52 167.19 32.33 165.07
M 81.86 132.54
C 84.35 130.05 85.22 128.09 85.22 124.97
C 85.22 119.12 80.13 114.02 74.28 114.02
C 68.43 114.02 63.34 119.12 63.34 124.97
C 63.34 128.09 64.21 130.05 66.70 132.54
C 71.36 137.19 77.21 137.19 81.86 132.54"/>
<path fill="#aa4422" stroke="none" d="
M 379.04 400.96
C 393.07 381.84 399.74 369.09 414.05 334.01
C 423.21 311.54 424.21 308.34 424.84 299.46
L 425.53 289.67
L 430.13 288.10
C 435.25 286.36 466.58 280.82 467.30 281.53
C 467.54 281.78 457.68 298.48 445.38 318.65
C 433.09 338.81 419.25 361.79 414.64 369.72
C 408.36 380.51 403.91 386.50 396.91 393.61
C 388.03 402.66 387.33 403.12 382.51 403.12
C 377.78 403.12 377.55 402.98 379.04 400.96"/>
<path fill="#e3a578" stroke="none" d="
M 120.45 105.52
L 118.41 101.97
L 122.83 98.11
C 128.11 93.51 134.72 90.34 141.25 89.30
C 146.81 88.40 147.93 89.47 146.19 94.06
C 143.70 100.62 136.38 105.96 126.99 108.07
C 122.73 109.03 122.38 108.89 120.45 105.52"/>
<path fill="#eb2e00" stroke="none" d="
M 76.24 131.59
C 76.47 131.12 77.37 129.32 78.22 127.60
C 79.58 124.90 79.54 124.10 77.91 121.61
C 75.56 118.02 77.49 116.50 79.96 120.03
C 82.25 123.30 82.26 126.64 79.97 129.90
C 78.35 132.22 75.25 133.63 76.24 131.59"/>
<path fill="#827373" stroke="none" d="
M 124.50 414.06
C 128.67 408.25 128.34 408.45 131.37 410.07
C 136.31 412.72 131.70 419.24 124.88 419.24
L 120.78 419.24
L 124.50 414.06"/>
<path fill="#827373" stroke="none" d="
M 209.46 414.35
C 211.30 410.00 212.00 409.42 215.75 409.09
C 220.42 408.69 220.49 408.77 218.69 412.69
C 217.57 415.18 211.21 419.24 208.46 419.24
C 207.87 419.24 208.32 417.04 209.46 414.35"/>
<path fill="#827373" stroke="none" d="
M 362.23 418.16
C 361.58 417.10 371.37 408.88 373.29 408.88
C 375.26 408.88 374.20 410.80 369.92 414.98
C 365.50 419.29 363.45 420.14 362.23 418.16"/>
<path fill="#827373" stroke="none" d="
M 377.53 416.07
C 382.69 408.85 386.95 407.18 386.95 412.40
C 386.95 415.76 382.81 419.24 378.81 419.24
L 375.27 419.24
L 377.53 416.07"/>
<path fill="#827373" stroke="none" d="
M 111.13 416.94
C 110.20 415.44 117.39 405.42 119.39 405.42
C 121.58 405.42 121.39 405.92 116.79 412.33
C 112.31 418.56 112.19 418.65 111.13 416.94"/>
<path fill="#827373" stroke="none" d="
M 198.67 416.75
C 197.84 414.65 200.94 407.72 202.72 407.72
C 204.39 407.72 204.00 410.13 201.58 414.63
C 199.87 417.84 199.26 418.27 198.67 416.75"/>
<path fill="#827373" stroke="none" d="
M 525.57 416.40
C 524.67 414.06 529.90 404.96 532.42 404.48
C 534.20 404.13 533.99 405.06 530.95 411.09
C 527.21 418.50 526.61 419.09 525.57 416.40"/>
<path fill="#827373" stroke="none" d="
M 538.96 411.18
C 542.36 404.46 545.25 402.47 546.59 405.95
C 547.57 408.47 544.83 415.65 542.41 416.95
C 541.23 417.57 539.19 418.09 537.87 418.09
C 535.57 418.09 535.61 417.82 538.96 411.18"/>
</g>
</svg>
