<?xml version="1.0" encoding="UTF-8" standalone="no"?>
<!DOCTYPE svg PUBLIC "-//W3C//DTD SVG 1.1//EN"
"http://www.w3.org/Graphics/SVG/1.1/DTD/svg11.dtd">
<svg width="579px" height="600px"
xmlns="http://www.w3.org/2000/svg" version="1.1">
<g transform="translate(0000, 0000) scale(1.0000, 1.0000)">
<path fill="#000000" stroke="none" d="
M 165.61 597.64
C 163.47 595.50 163.18 592.21 162.51 563.63
C 161.33 511.59 154.54 478.40 138.04 444.17
C 123.54 414.03 100.64 391.36 69.44 376.23
C 52.17 367.87 40.72 364.86 22.91 363.98
C 13.86 363.55 7.20 362.61 5.47 361.51
C -0.18 357.99 -2.16 337.59 2.39 330.03
C 3.70 327.84 5.42 324.04 6.21 321.57
C 8.26 315.18 14.88 307.69 20.91 304.94
C 27.79 301.82 34.80 301.94 45.35 305.38
C 58.65 309.70 71.39 309.00 105.81 302.07
C 121.45 298.92 139.13 295.74 145.07 295.00
C 158.46 293.34 161.01 291.13 159.70 282.41
C 158.52 274.53 158.07 273.74 153.91 272.01
C 147.03 269.16 134.38 253.08 126.06 236.61
C 120.18 224.95 112.78 201.78 108.15 180.51
C 105.95 170.38 102.79 159.22 101.13 155.71
C 96.37 145.70 92.77 144.20 53.99 136.03
C 27.84 130.53 22.05 128.29 13.58 120.38
C 7.56 114.78 5.56 110.16 6.87 104.91
C 8.06 100.23 11.49 99.03 30.91 96.47
C 50.81 93.86 53.93 92.57 68.40 80.89
C 73.27 76.96 80.93 72.08 85.40 70.04
C 94.54 65.91 97.02 63.65 99.87 56.83
C 101.71 52.41 105.15 25.89 105.91 10.17
C 106.17 4.96 106.74 3.18 108.16 3.18
C 110.40 3.18 119.81 20.36 123.09 30.46
C 125.24 37.09 125.37 37.23 126.15 33.64
C 126.59 31.56 127.02 23.50 127.10 15.71
C 127.28 -1.39 128.59 -2.91 136.48 4.73
C 142.90 10.93 144.38 13.88 147.71 27.14
C 150.67 38.92 150.62 39.60 144.90 67.51
C 143.02 76.70 143.58 78.62 151.84 91.07
C 159.94 103.31 165.56 116.20 175.57 145.64
C 179.64 157.58 184.20 169.77 185.71 172.72
C 192.09 185.22 211.95 191.95 242.42 191.91
C 260.27 191.90 275.32 189.84 315.59 181.94
C 354.74 174.25 371.46 172.31 390.03 173.31
C 419.20 174.88 441.92 184.47 466.70 205.70
C 506.30 239.63 548.05 326.30 572.10 424.53
C 579.71 455.63 580.07 460.37 575.11 465.33
C 572.17 468.27 565.14 468.60 560.15 466.02
C 555.32 463.53 544.49 451.79 538.78 442.87
C 531.52 431.56 526.32 418.14 515.90 383.90
C 510.68 366.76 505.14 349.60 503.58 345.76
L 500.74 338.77
L 500.00 349.58
C 498.83 366.56 496.20 368.82 475.02 371.15
C 448.95 374.01 420.54 382.60 403.09 392.91
C 367.37 414.01 346.06 446.95 336.07 496.55
C 332.02 516.70 330.86 531.81 330.86 564.36
C 330.86 593.22 330.72 595.06 328.31 597.46
C 325.82 599.95 324.07 600.00 246.87 600.00
C 171.65 600.00 167.86 599.89 165.61 597.64
M 321.66 590.78
C 322.43 589.83 323.20 575.10 323.55 554.24
C 324.05 525.62 324.67 516.39 327.00 503.39
C 330.62 483.09 337.17 461.42 344.14 446.67
C 367.48 397.31 411.56 370.14 480.16 362.87
C 490.57 361.77 492.47 359.56 492.47 348.56
C 492.47 343.53 491.83 339.28 490.94 338.39
C 488.71 336.17 11.39 336.17 9.16 338.39
C 7.15 340.40 7.20 351.08 9.23 353.63
C 10.41 355.13 14.19 355.82 24.18 356.36
C 41.62 357.31 54.62 360.78 71.85 369.11
C 111.93 388.49 138.55 418.61 153.84 461.90
C 164.41 491.81 169.12 520.33 170.12 560.59
C 170.52 576.51 171.40 589.89 172.11 590.78
C 173.09 592.02 189.59 592.37 246.87 592.37
C 304.13 592.37 320.65 592.02 321.66 590.78
M 570.18 458.73
C 572.03 455.29 571.36 451.18 564.30 422.15
C 550.78 366.56 524.46 299.67 500.74 260.58
C 469.72 209.48 432.44 182.39 389.39 179.66
C 373.44 178.65 357.94 180.56 315.59 188.77
C 275.48 196.55 261.66 198.32 241.51 198.27
C 211.37 198.18 195.36 194.08 185.15 183.81
C 179.16 177.78 178.29 176.07 172.61 158.90
C 169.25 148.77 163.65 133.19 160.16 124.31
C 153.00 106.06 141.42 86.78 139.05 89.15
C 137.05 91.14 133.62 89.57 133.62 86.66
C 133.62 83.16 129.00 77.83 123.64 75.13
C 120.95 73.79 114.95 72.52 109.49 72.14
C 100.76 71.54 99.30 71.81 91.04 75.62
C 86.11 77.90 77.41 83.47 71.71 87.99
C 58.73 98.30 54.02 100.18 34.99 102.61
C 17.03 104.90 13.65 105.94 14.24 109.00
C 14.61 110.95 16.77 111.31 31.19 111.86
C 46.66 112.46 47.72 112.67 47.72 115.04
C 47.72 117.36 46.66 117.64 35.67 118.22
C 23.85 118.84 23.68 118.89 26.90 120.99
C 31.24 123.81 40.00 126.25 62.57 130.92
C 85.40 135.62 96.57 138.99 101.03 142.49
C 106.28 146.62 109.16 153.60 113.38 172.56
C 122.76 214.64 129.95 232.59 145.90 253.79
C 155.97 267.18 158.35 267.27 159.66 254.25
C 161.05 240.42 163.24 225.58 164.30 222.78
C 165.48 219.62 168.95 218.94 170.00 221.64
C 170.35 222.60 169.81 228.47 168.76 234.67
C 165.73 252.70 164.93 269.67 166.68 278.91
C 168.48 288.43 167.01 295.11 162.45 298.07
C 160.94 299.06 154.55 300.47 148.25 301.23
C 141.95 301.98 127.35 304.55 115.80 306.95
C 83.77 313.60 79.35 314.25 64.26 314.43
C 52.48 314.57 48.90 314.12 41.62 311.57
C 34.14 308.92 32.35 308.72 28.12 309.98
C 21.54 311.95 16.99 315.75 13.86 321.88
C 11.83 325.86 11.59 327.32 12.78 328.44
C 13.93 329.50 14.47 329.45 14.91 328.23
C 16.02 325.23 21.84 319.07 23.58 319.07
C 26.72 319.07 27.03 321.76 24.22 324.75
C 22.46 326.62 21.94 328.00 22.79 328.54
C 23.53 329.00 25.93 327.33 28.11 324.85
C 30.29 322.37 32.84 320.34 33.77 320.34
C 36.95 320.34 37.18 323.06 34.27 326.15
L 31.37 329.24
L 121.02 329.24
C 219.85 329.24 214.78 329.66 217.45 321.29
C 221.43 308.85 223.20 292.26 223.26 266.95
C 223.33 241.75 223.42 240.89 225.87 240.89
C 228.27 240.89 228.46 241.94 229.05 258.69
L 229.69 276.48
L 234.78 276.85
C 240.95 277.31 280.08 267.70 303.88 259.89
C 320.78 254.34 343.77 244.31 345.33 241.81
C 345.77 241.07 345.25 236.63 344.16 231.93
C 342.03 222.76 342.35 219.92 345.48 219.92
C 347.62 219.92 348.09 220.92 352.59 235.08
C 358.05 252.29 369.59 266.66 394.23 286.97
C 402.67 293.91 407.20 298.50 406.94 299.83
C 406.27 303.31 398.70 305.87 374.76 310.73
C 343.26 317.12 329.18 317.76 312.10 313.55
C 298.53 310.21 294.55 310.36 288.27 314.48
C 284.78 316.77 280.76 324.89 281.79 327.57
C 282.36 329.08 283.76 328.17 287.72 323.67
C 290.57 320.44 293.67 317.80 294.63 317.80
C 297.82 317.80 298.05 320.50 295.12 323.63
C 293.20 325.67 292.63 327.15 293.47 327.99
C 294.30 328.82 296.19 327.72 299.04 324.79
C 301.41 322.35 304.07 320.34 304.95 320.34
C 308.02 320.34 308.19 323.10 305.32 326.15
L 302.42 329.24
L 385.84 329.24
C 465.92 329.24 469.40 329.14 472.26 326.82
C 476.99 323.01 475.96 316.98 466.61 293.62
C 462.00 282.10 457.35 269.26 456.26 265.09
C 452.31 249.88 454.67 227.95 460.17 229.03
C 462.63 229.53 488.82 285.90 495.75 305.64
C 498.19 312.60 502.42 323.22 505.14 329.28
C 510.54 341.24 510.40 340.83 521.80 378.81
C 534.32 420.56 539.20 431.82 551.37 447.04
C 557.02 454.09 565.40 461.44 567.80 461.44
C 568.31 461.44 569.38 460.22 570.18 458.73
M 275.16 321.76
C 277.68 313.19 283.30 307.31 291.05 305.16
C 298.10 303.20 301.25 303.46 315.13 307.12
C 325.72 309.90 329.37 310.31 338.49 309.69
C 349.69 308.94 393.01 300.71 394.70 299.02
C 395.22 298.50 390.74 294.08 384.76 289.18
C 371.27 278.19 361.98 268.30 354.97 257.47
C 352.02 252.89 349.46 249.15 349.30 249.15
C 349.14 249.15 343.65 251.68 337.07 254.78
C 330.50 257.87 318.22 262.70 309.78 265.51
C 290.05 272.07 249.89 282.19 239.27 283.27
L 231.04 284.11
L 227.73 303.81
C 225.91 314.66 223.99 324.80 223.47 326.38
L 222.53 329.24
L 247.74 329.24
L 272.96 329.24
L 275.16 321.76
M 494.30 328.09
C 495.81 325.64 486.96 301.50 474.44 273.97
C 462.98 248.80 461.24 245.64 460.91 249.52
C 460.36 255.76 463.52 267.01 470.33 283.07
C 481.09 308.44 484.16 320.83 481.09 326.54
C 479.70 329.14 479.92 329.24 486.63 329.24
C 490.46 329.24 493.91 328.73 494.30 328.09
M 137.43 72.31
C 137.43 69.51 137.97 64.83 138.60 61.89
C 142.09 46.08 142.78 37.93 141.26 29.95
C 140.44 25.53 138.46 19.78 136.89 17.17
L 134.02 12.43
L 133.20 25.60
C 132.36 38.94 127.44 60.50 124.08 65.63
C 122.40 68.19 122.67 68.58 128.59 72.25
C 132.05 74.40 134.89 76.79 134.89 77.57
C 134.89 78.33 135.46 78.61 136.16 78.18
C 136.86 77.75 137.43 75.10 137.43 72.31
M 115.32 64.26
C 116.77 63.25 118.96 59.78 120.19 56.57
L 122.43 50.72
L 117.53 36.66
L 112.63 22.61
L 111.68 28.16
C 111.14 31.19 110.12 38.54 109.40 44.49
C 108.67 50.43 107.49 57.14 106.77 59.40
C 106.03 61.67 105.80 64.09 106.24 64.81
C 107.40 66.69 112.28 66.39 115.32 64.26"/>
<path fill="#000000" stroke="none" d="
M 83.29 102.39
C 76.43 95.53 81.28 83.90 90.99 83.90
C 97.20 83.90 101.80 88.50 101.80 94.70
C 101.80 97.86 100.84 100.23 98.68 102.39
C 96.52 104.54 94.14 105.51 90.99 105.51
C 87.83 105.51 85.45 104.54 83.29 102.39
M 97.50 98.47
C 99.21 95.86 99.33 94.61 98.18 92.07
C 96.70 88.84 93.42 86.77 92.00 88.18
C 91.57 88.61 92.17 90.01 93.33 91.30
C 95.94 94.18 95.99 95.83 93.53 97.88
C 91.10 99.90 91.09 101.69 93.51 101.69
C 94.54 101.69 96.33 100.25 97.50 98.47"/>
<path fill="#b4b4b4" stroke="none" d="
M 134.89 77.57
C 134.89 76.79 132.05 74.40 128.59 72.25
C 122.66 68.57 122.40 68.19 124.08 65.62
C 127.23 60.84 132.27 39.22 133.32 26.06
L 134.34 13.35
L 137.04 17.62
C 138.53 19.97 140.42 25.51 141.26 29.94
C 142.78 37.93 142.10 46.07 138.60 61.89
C 137.97 64.83 137.43 69.51 137.43 72.31
C 137.43 75.10 136.86 77.75 136.16 78.18
C 135.46 78.61 134.89 78.33 134.89 77.57"/>
<path fill="#b4b4b4" stroke="none" d="
M 106.24 64.81
C 105.80 64.09 106.03 61.67 106.77 59.40
C 107.49 57.14 108.67 50.43 109.40 44.49
C 110.12 38.54 111.14 31.19 111.68 28.16
L 112.63 22.61
L 117.53 36.66
L 122.43 50.72
L 120.19 56.57
C 118.96 59.78 116.77 63.25 115.32 64.26
C 112.28 66.39 107.40 66.69 106.24 64.81"/>
<path fill="#4c4d4e" stroke="none" d="
M 562.25 458.16
C 556.93 454.37 546.67 441.94 541.65 433.18
C 536.46 424.13 530.48 407.75 521.80 378.81
C 510.40 340.83 510.54 341.24 505.14 329.28
C 502.42 323.22 498.19 312.60 495.75 305.64
C 488.82 285.90 462.63 229.53 460.17 229.03
C 454.67 227.95 452.31 249.88 456.26 265.09
C 457.35 269.26 462.00 282.10 466.61 293.62
C 475.96 316.98 476.99 323.01 472.26 326.82
C 469.40 329.14 465.92 329.24 385.84 329.24
L 302.42 329.24
L 305.32 326.15
C 308.19 323.10 308.02 320.34 304.95 320.34
C 304.07 320.34 301.41 322.35 299.04 324.79
C 296.19 327.72 294.30 328.82 293.47 327.99
C 292.63 327.15 293.20 325.67 295.12 323.63
C 298.05 320.50 297.82 317.80 294.63 317.80
C 293.67 317.80 290.57 320.44 287.72 323.67
C 283.76 328.17 282.36 329.08 281.79 327.57
C 280.76 324.89 284.78 316.77 288.27 314.48
C 294.55 310.36 298.53 310.21 312.10 313.55
C 329.18 317.76 343.26 317.12 374.76 310.73
C 398.70 305.87 406.27 303.31 406.94 299.83
C 407.20 298.50 402.67 293.91 394.23 286.97
C 369.59 266.66 358.05 252.29 352.59 235.08
C 348.09 220.92 347.62 219.92 345.48 219.92
C 342.35 219.92 342.03 222.76 344.16 231.93
C 345.25 236.63 345.77 241.07 345.33 241.81
C 343.77 244.31 320.78 254.34 303.88 259.89
C 280.08 267.70 240.95 277.31 234.78 276.85
L 229.69 276.48
L 229.05 258.69
C 228.46 241.94 228.27 240.89 225.87 240.89
C 223.42 240.89 223.33 241.75 223.26 266.95
C 223.20 292.26 221.43 308.85 217.45 321.29
C 214.78 329.66 219.85 329.24 121.02 329.24
L 31.37 329.24
L 34.27 326.15
C 37.18 323.06 36.95 320.34 33.77 320.34
C 32.84 320.34 30.29 322.37 28.11 324.85
C 25.93 327.33 23.53 329.00 22.79 328.54
C 21.94 328.00 22.46 326.62 24.22 324.75
C 27.03 321.76 26.72 319.07 23.58 319.07
C 21.84 319.07 16.02 325.23 14.91 328.23
C 14.47 329.45 13.93 329.50 12.78 328.44
C 11.59 327.32 11.83 325.86 13.86 321.88
C 16.99 315.75 21.54 311.95 28.12 309.98
C 32.35 308.72 34.14 308.92 41.62 311.57
C 48.90 314.12 52.48 314.57 64.26 314.43
C 79.35 314.25 83.77 313.60 115.80 306.95
C 127.35 304.55 141.95 301.98 148.25 301.23
C 154.55 300.47 160.94 299.06 162.45 298.07
C 167.01 295.11 168.48 288.43 166.68 278.91
C 164.93 269.67 165.73 252.70 168.76 234.67
C 169.81 228.47 170.35 222.60 170.00 221.64
C 168.95 218.94 165.48 219.62 164.30 222.78
C 163.24 225.58 161.05 240.42 159.66 254.25
C 158.35 267.27 155.97 267.18 145.90 253.79
C 129.95 232.59 122.76 214.64 113.38 172.56
C 109.16 153.60 106.28 146.62 101.03 142.49
C 96.57 138.99 85.40 135.62 62.57 130.92
C 40.00 126.25 31.24 123.81 26.90 120.99
C 23.68 118.89 23.85 118.84 35.67 118.22
C 46.66 117.64 47.72 117.36 47.72 115.04
C 47.72 112.67 46.66 112.46 31.19 111.86
C 16.77 111.31 14.61 110.95 14.24 109.00
C 13.65 105.94 17.03 104.90 34.99 102.61
C 54.02 100.18 58.74 98.30 71.71 87.99
C 77.41 83.47 85.79 78.01 90.35 75.88
C 97.68 72.43 99.77 72.03 108.66 72.29
C 115.57 72.50 120.20 73.35 123.50 75.03
C 129.00 77.83 133.62 83.14 133.62 86.66
C 133.62 89.57 137.05 91.14 139.05 89.15
C 141.42 86.78 153.00 106.06 160.16 124.31
C 163.65 133.19 169.25 148.77 172.61 158.90
C 178.29 176.07 179.16 177.78 185.15 183.81
C 195.36 194.08 211.37 198.18 241.51 198.27
C 261.66 198.32 275.48 196.55 315.59 188.77
C 357.94 180.56 373.44 178.65 389.39 179.66
C 456.21 183.90 506.95 244.54 549.20 370.67
C 557.57 395.66 568.57 436.40 570.82 450.79
C 571.59 455.73 569.98 461.44 567.80 461.44
C 567.29 461.44 564.80 459.97 562.25 458.16
M 98.68 102.39
C 105.54 95.53 100.70 83.90 90.99 83.90
C 81.28 83.90 76.43 95.53 83.29 102.39
C 85.45 104.54 87.83 105.51 90.99 105.51
C 94.14 105.51 96.52 104.54 98.68 102.39"/>
<path fill="#eb2e00" stroke="none" d="
M 91.62 100.58
C 91.62 99.97 92.47 98.75 93.53 97.88
C 95.97 95.85 95.96 93.53 93.48 91.47
C 92.04 90.29 91.89 89.48 92.93 88.46
C 93.96 87.46 95.02 87.90 96.80 90.08
C 99.78 93.71 99.86 95.19 97.27 98.87
C 95.33 101.64 91.62 102.76 91.62 100.58"/>
<path fill="#fcae76" stroke="none" d="
M 172.11 590.78
C 171.40 589.89 170.52 576.51 170.12 560.59
C 169.12 520.33 164.41 491.81 153.84 461.90
C 138.55 418.61 111.93 388.49 71.85 369.11
C 54.62 360.78 41.62 357.31 24.18 356.36
C 8.75 355.53 7.64 354.79 7.64 345.56
C 7.64 340.87 8.20 339.20 10.09 338.19
C 13.88 336.15 488.91 336.36 490.94 338.39
C 491.83 339.28 492.47 343.53 492.47 348.56
C 492.47 359.56 490.57 361.77 480.16 362.87
C 411.56 370.14 367.48 397.31 344.14 446.67
C 337.17 461.42 330.62 483.09 327.00 503.39
C 324.67 516.39 324.05 525.62 323.55 554.24
C 323.20 575.10 322.43 589.83 321.66 590.78
C 320.65 592.02 304.13 592.37 246.87 592.37
C 189.59 592.37 173.09 592.02 172.11 590.78"/>
</g>
</svg>
