<?xml version="1.0" encoding="UTF-8" standalone="no"?>
<!DOCTYPE svg PUBLIC "-//W3C//DTD SVG 1.1//EN"
"http://www.w3.org/Graphics/SVG/1.1/DTD/svg11.dtd">
<svg width="600px" height="481px"
xmlns="http://www.w3.org/2000/svg" version="1.1">
<g transform="translate(0000, 0000) scale(1.0000, 1.0000)">
<path fill="#000000" stroke="none" d="
M 449.11 479.82
C 442.42 478.41 438.94 474.09 439.86 468.36
C 441.03 461.14 443.81 458.47 457.30 451.54
C 464.39 447.88 470.79 443.79 471.49 442.46
C 473.23 439.21 473.16 410.03 471.39 395.47
C 469.91 383.39 465.16 366.31 462.10 362.13
C 460.54 359.97 460.34 360.80 460.45 369.23
C 460.59 381.40 456.86 392.59 443.79 419.32
C 438.46 430.20 432.31 443.47 430.10 448.81
C 424.72 461.85 421.04 467.15 415.07 470.52
C 406.50 475.33 391.57 478.43 376.88 478.43
C 365.06 478.43 363.30 478.13 360.87 475.70
C 358.66 473.49 358.28 471.92 358.81 467.20
C 359.95 457.09 363.34 454.35 389.13 442.65
C 398.25 438.51 398.63 438.13 402.13 430.43
C 409.85 413.38 417.56 383.39 417.56 370.42
C 417.56 353.87 404.57 330.03 382.84 306.73
C 378.89 302.49 372.60 294.84 368.88 289.72
C 359.36 276.64 355.54 273.66 349.64 274.68
C 347.07 275.13 335.72 279.15 324.41 283.60
C 288.91 297.58 268.84 302.22 243.88 302.23
C 236.33 302.23 228.66 302.80 226.82 303.49
C 222.62 305.10 223.10 307.49 230.94 323.45
L 236.61 335.03
L 235.86 353.03
C 235.45 362.94 234.77 380.02 234.35 390.97
L 233.59 410.91
L 238.84 427.37
C 241.75 436.42 244.11 445.71 244.11 448.01
C 244.11 454.34 238.34 464.77 232.66 468.69
C 223.00 475.41 215.22 477.50 197.68 478.13
C 182.45 478.69 181.28 478.56 178.73 476.00
C 175.36 472.63 175.32 467.87 178.59 460.68
C 180.85 455.69 182.16 454.65 191.88 450.15
C 203.45 444.80 208.14 440.33 208.14 434.67
C 208.14 428.57 203.18 406.39 198.36 390.97
C 189.94 364.04 174.89 325.90 173.37 327.65
C 172.91 328.17 171.55 331.71 170.35 335.50
C 169.14 339.30 165.03 349.14 161.22 357.37
C 151.88 377.48 143.24 406.23 136.79 438.56
C 133.72 453.94 131.65 458.35 124.42 464.86
C 117.58 471.02 107.90 475.29 95.96 477.40
C 89.82 478.49 87.25 478.34 81.48 476.52
C 73.94 474.15 71.95 471.87 71.95 465.61
C 71.95 455.73 77.37 449.28 92.57 441.09
C 98.30 438.01 104.11 434.07 105.46 432.35
C 109.64 427.02 112.79 412.64 117.49 377.47
C 119.28 364.03 123.04 339.04 125.83 321.94
C 128.63 304.84 131.60 284.78 132.42 277.36
L 133.95 263.87
L 125.50 249.28
C 114.39 230.15 111.35 221.65 107.34 198.60
C 103.22 174.82 100.23 165.57 93.70 156.45
C 86.76 146.76 78.04 142.60 55.25 138.19
C 36.05 134.47 24.57 130.05 20.02 124.65
C 18.37 122.68 14.71 120.46 11.90 119.70
C 3.76 117.50 0.00 113.85 0.00 108.13
C 0.00 105.14 0.86 102.51 2.25 101.27
C 4.75 99.02 16.91 96.46 25.05 96.46
C 34.38 96.46 43.23 92.78 58.75 82.44
C 67.07 76.90 77.06 71.34 80.94 70.09
C 91.84 66.58 94.84 64.65 97.49 59.46
C 99.69 55.16 103.82 32.58 106.10 12.53
C 106.56 8.45 107.47 4.78 108.13 4.37
C 111.71 2.16 118.06 14.49 122.65 32.55
C 125.34 43.19 125.61 43.66 126.90 40.27
C 130.54 30.63 131.31 26.69 131.97 14.53
C 132.54 4.31 133.13 1.25 134.70 0.66
C 138.08 -0.64 143.10 4.35 146.43 12.33
C 149.36 19.36 149.60 21.55 149.64 41.16
C 149.68 61.37 149.52 62.71 146.34 69.51
L 142.99 76.65
L 148.54 86.13
C 155.38 97.82 160.19 110.94 168.55 140.83
C 181.34 186.54 189.08 195.76 217.77 199.33
C 230.24 200.89 328.39 193.69 368.09 188.30
C 386.65 185.79 399.28 186.47 417.02 190.97
C 459.88 201.87 497.11 234.53 530.02 290.13
C 543.67 313.20 579.92 391.13 590.38 419.91
C 594.75 431.94 600.00 453.90 599.99 460.08
C 599.97 471.70 594.69 477.69 587.23 474.60
C 579.26 471.30 554.21 441.11 541.37 419.36
C 528.30 397.19 516.41 369.43 499.53 321.52
C 493.91 305.60 487.07 287.76 484.32 281.87
C 478.57 269.62 470.62 258.12 468.71 259.30
C 466.79 260.49 468.67 275.22 472.38 288.09
C 474.12 294.10 481.25 310.88 488.22 325.38
C 508.18 366.83 507.91 365.39 503.63 407.69
C 502.23 421.49 501.07 438.56 501.04 445.63
C 500.99 465.28 497.27 471.48 482.07 477.17
C 474.05 480.18 457.26 481.51 449.11 479.82
M 471.02 464.28
C 474.03 464.28 474.60 468.02 472.03 470.85
C 469.70 473.45 469.71 473.46 473.49 472.55
C 482.08 470.48 489.56 465.21 492.85 458.88
C 494.00 456.64 494.63 451.37 494.61 444.09
C 494.58 437.86 495.87 419.36 497.43 402.96
C 500.90 366.94 501.69 370.68 482.43 330.53
C 467.86 300.16 464.79 291.37 461.90 271.70
C 459.42 254.85 459.44 253.88 462.53 250.79
C 466.29 247.02 468.36 247.56 475.37 254.13
C 483.28 261.53 492.14 278.49 500.17 301.59
C 527.60 380.48 541.80 410.41 567.28 443.06
C 576.73 455.19 589.19 467.33 591.01 466.21
C 593.09 464.92 592.48 452.58 589.84 442.24
C 586.50 429.16 581.09 415.49 563.42 375.54
C 530.44 300.95 510.04 267.01 480.67 237.90
C 460.92 218.31 442.69 206.73 419.96 199.29
C 400.39 192.89 389.46 192.07 366.15 195.26
C 328.59 200.40 246.53 206.21 222.27 205.45
C 185.51 204.30 176.88 195.68 162.60 145.97
C 152.66 111.29 148.88 101.11 141.65 89.49
C 138.81 84.92 137.64 83.88 137.05 85.41
C 136.00 88.16 131.15 88.02 130.24 85.20
C 126.37 73.13 124.03 71.64 109.32 71.89
C 93.69 72.16 81.30 76.51 65.65 87.20
C 48.06 99.22 42.63 101.40 26.53 102.93
C 19.03 103.63 11.36 104.80 9.48 105.51
C 6.19 106.77 6.15 106.89 8.39 109.36
C 11.46 112.75 18.24 114.44 33.19 115.50
C 44.45 116.31 45.61 116.64 45.61 118.96
C 45.61 121.20 44.54 121.61 37.26 122.18
L 28.91 122.82
L 35.69 125.77
C 39.42 127.39 50.69 130.33 60.75 132.33
C 81.51 136.44 89.70 139.99 96.91 147.97
C 103.99 155.82 107.83 165.34 111.34 183.73
C 119.20 225.08 120.60 228.31 149.70 271.98
C 172.03 305.51 178.68 317.47 188.60 342.10
C 203.36 378.74 212.80 411.45 214.06 430.20
C 215.05 445.05 213.28 447.93 198.87 454.92
C 187.79 460.29 182.02 465.66 184.56 468.20
C 185.33 468.97 187.39 467.78 190.15 464.92
C 194.52 460.41 198.24 459.21 199.85 461.82
C 200.33 462.58 198.81 465.19 196.47 467.61
C 194.13 470.02 192.78 472.00 193.49 472.00
C 194.20 472.00 197.02 469.68 199.79 466.85
C 202.55 464.02 205.57 461.71 206.51 461.71
C 209.67 461.71 209.81 465.63 206.78 468.86
L 203.81 472.02
L 208.21 471.21
C 220.12 469.01 231.37 461.66 235.34 453.45
L 237.97 448.02
L 232.55 431.40
L 227.13 414.77
L 227.94 390.97
C 228.37 377.88 229.08 360.93 229.50 353.30
L 230.27 339.43
L 223.82 325.65
C 220.27 318.08 216.44 309.22 215.29 305.98
C 214.15 302.72 210.58 296.52 207.37 292.18
C 201.25 283.94 200.48 279.73 205.08 279.73
C 206.88 279.73 209.83 282.48 214.07 288.09
L 220.38 296.45
L 238.34 296.01
C 267.40 295.31 284.93 291.35 318.51 277.90
C 328.82 273.76 340.65 269.68 344.80 268.82
L 352.33 267.26
L 351.47 260.77
C 351.01 257.21 350.29 252.64 349.89 250.63
C 349.34 247.88 349.71 246.75 351.42 246.09
C 354.08 245.08 357.17 248.59 357.19 252.64
C 357.20 259.16 360.58 265.81 370.78 279.34
C 376.81 287.34 385.37 297.64 389.83 302.23
C 396.95 309.59 399.19 311.03 408.30 314.19
C 425.01 319.99 442.74 332.31 465.15 353.69
C 469.10 357.46 473.55 368.60 476.18 381.33
C 477.22 386.39 478.38 401.87 478.82 416.75
C 479.77 449.80 480.19 448.71 463.22 457.08
C 451.31 462.96 445.91 467.74 447.79 470.78
C 448.38 471.73 450.64 470.33 454.23 466.80
C 457.82 463.26 460.47 461.63 461.79 462.13
C 464.72 463.26 464.27 465.97 460.59 469.44
C 458.18 471.69 457.77 472.73 458.98 473.50
C 460.05 474.17 462.06 472.77 464.88 469.40
C 467.24 466.58 470.00 464.28 471.02 464.28
M 383.51 466.85
C 386.27 464.02 389.29 461.71 390.23 461.71
C 393.06 461.71 393.61 465.49 391.18 468.19
C 388.99 470.62 389.00 470.71 391.46 470.71
C 395.73 470.71 408.69 465.77 412.93 462.53
C 415.21 460.81 418.54 455.96 420.67 451.28
C 422.72 446.76 429.76 431.78 436.29 417.98
C 442.82 404.18 449.64 388.14 451.45 382.32
C 454.72 371.90 454.73 371.60 452.72 362.72
C 450.28 351.91 446.12 346.15 434.26 337.15
C 425.68 330.63 407.67 320.71 406.51 321.86
C 406.16 322.22 407.40 324.75 409.27 327.48
C 420.40 343.79 424.63 357.95 423.60 375.54
C 422.43 395.71 411.28 433.61 403.95 442.31
C 402.14 444.47 396.32 447.90 389.64 450.74
C 376.18 456.45 369.55 460.55 366.66 464.99
C 362.84 470.80 366.45 471.20 371.95 465.57
C 376.92 460.47 380.63 459.12 382.29 461.82
C 382.77 462.58 381.25 465.19 378.91 467.61
C 376.15 470.45 375.33 472.00 376.57 472.00
C 377.63 472.00 380.75 469.68 383.51 466.85
M 94.43 464.28
C 97.19 461.45 99.93 459.14 100.51 459.14
C 103.14 459.14 102.87 463.38 100.06 466.45
L 97.00 469.80
L 101.50 468.95
C 108.08 467.70 119.60 460.17 123.65 454.45
C 125.59 451.73 128.03 445.72 129.07 441.13
C 130.10 436.54 132.46 425.97 134.31 417.65
C 139.75 393.17 147.35 369.73 156.14 350.27
C 160.66 340.26 165.30 328.31 166.46 323.72
C 168.89 314.01 170.36 317.52 152.47 290.36
C 146.07 280.66 140.57 272.97 140.25 273.31
C 139.93 273.63 138.87 280.12 137.91 287.74
C 136.93 295.35 133.88 315.48 131.10 332.46
C 128.33 349.43 124.82 372.88 123.30 384.54
C 118.70 420.04 115.31 433.36 109.49 438.89
C 107.58 440.73 101.65 444.65 96.36 447.63
C 91.07 450.60 85.63 453.97 84.30 455.11
C 80.74 458.18 77.86 465.57 79.57 467.28
C 80.54 468.25 80.94 468.22 80.94 467.15
C 80.94 464.90 88.65 456.56 90.75 456.56
C 94.21 456.56 94.20 460.49 90.75 464.10
C 88.88 466.04 87.37 468.04 87.37 468.52
C 87.37 470.54 89.68 469.14 94.43 464.28
M 137.50 70.67
C 144.03 57.89 145.81 30.36 140.98 17.36
L 139.07 12.22
L 138.09 24.31
C 137.19 35.47 136.56 37.52 129.82 51.25
L 122.51 66.12
L 127.75 71.33
C 130.63 74.19 133.41 76.36 133.95 76.12
C 134.49 75.89 136.10 73.44 137.50 70.67
M 113.96 63.66
C 120.18 59.30 120.33 47.95 114.42 28.83
L 112.16 21.54
L 111.31 26.52
C 110.85 29.27 109.62 37.09 108.58 43.92
C 107.52 50.74 106.09 57.87 105.37 59.78
C 104.65 61.68 104.38 63.76 104.78 64.41
C 105.89 66.22 110.89 65.81 113.96 63.66"/>
<path fill="#000000" stroke="none" d="
M 80.24 102.31
C 75.96 98.01 75.96 91.04 80.24 86.75
C 87.17 79.82 98.93 84.72 98.93 94.53
C 98.93 97.72 97.95 100.12 95.78 102.31
C 93.60 104.48 91.19 105.46 88.01 105.46
C 84.82 105.46 82.42 104.48 80.24 102.31
M 94.59 98.33
C 96.31 95.70 96.44 94.44 95.27 91.87
C 93.78 88.60 90.46 86.50 89.04 87.93
C 88.60 88.37 89.20 89.78 90.37 91.08
C 93.01 94.00 93.06 95.67 90.58 97.74
C 88.12 99.79 88.11 101.60 90.55 101.60
C 91.59 101.60 93.40 100.14 94.59 98.33"/>
<path fill="#8f8c8c" stroke="none" d="
M 127.75 71.33
L 122.51 66.12
L 130.00 50.88
C 135.24 40.19 137.50 34.07 137.56 30.36
C 137.61 27.46 138.08 22.48 138.57 19.29
L 139.48 13.50
L 141.19 18.01
C 143.97 25.34 144.48 46.84 142.11 56.94
C 140.12 65.42 135.93 75.29 133.95 76.12
C 133.41 76.36 130.63 74.19 127.75 71.33"/>
<path fill="#8f8c8c" stroke="none" d="
M 104.78 64.41
C 104.38 63.76 104.65 61.68 105.37 59.78
C 106.09 57.87 107.52 50.74 108.58 43.92
C 109.62 37.09 110.85 29.27 111.31 26.52
L 112.16 21.54
L 114.42 28.83
C 120.33 47.95 120.18 59.30 113.96 63.66
C 110.89 65.81 105.89 66.22 104.78 64.41"/>
<path fill="#4d4a4a" stroke="none" d="
M 458.98 473.50
C 457.77 472.73 458.18 471.69 460.59 469.44
C 464.27 465.97 464.72 463.26 461.79 462.13
C 460.47 461.63 457.82 463.26 454.23 466.80
C 450.64 470.33 448.38 471.73 447.79 470.78
C 445.91 467.74 451.31 462.96 463.22 457.08
C 480.19 448.71 479.77 449.80 478.82 416.75
C 478.38 401.87 477.22 386.39 476.18 381.33
C 473.55 368.60 469.10 357.46 465.15 353.69
C 442.74 332.31 425.01 319.99 408.30 314.19
C 399.19 311.03 396.95 309.59 389.83 302.23
C 385.37 297.64 376.81 287.34 370.78 279.34
C 360.58 265.81 357.20 259.16 357.19 252.64
C 357.17 248.59 354.08 245.08 351.42 246.09
C 349.71 246.75 349.34 247.88 349.89 250.63
C 350.29 252.64 351.01 257.21 351.47 260.77
L 352.33 267.26
L 344.80 268.82
C 340.65 269.68 328.82 273.76 318.51 277.90
C 284.93 291.35 267.40 295.31 238.34 296.01
L 220.38 296.45
L 214.07 288.09
C 209.83 282.48 206.88 279.73 205.08 279.73
C 200.48 279.73 201.25 283.94 207.37 292.18
C 210.58 296.52 214.15 302.72 215.29 305.98
C 216.44 309.22 220.27 318.08 223.82 325.65
L 230.27 339.43
L 229.50 353.30
C 229.08 360.93 228.37 377.88 227.94 390.97
L 227.13 414.77
L 232.55 431.40
L 237.97 448.02
L 235.34 453.45
C 231.37 461.66 220.12 469.01 208.21 471.21
L 203.81 472.02
L 206.78 468.86
C 209.81 465.63 209.67 461.71 206.51 461.71
C 205.57 461.71 202.55 464.02 199.79 466.85
C 197.02 469.68 194.20 472.00 193.49 472.00
C 192.78 472.00 194.13 470.02 196.47 467.61
C 198.81 465.19 200.33 462.58 199.85 461.82
C 198.24 459.21 194.52 460.41 190.15 464.92
C 187.39 467.78 185.33 468.97 184.56 468.20
C 182.02 465.66 187.79 460.29 198.87 454.92
C 213.28 447.93 215.05 445.05 214.06 430.20
C 212.80 411.45 203.36 378.74 188.60 342.10
C 178.68 317.47 172.03 305.51 149.70 271.98
C 120.60 228.31 119.20 225.08 111.34 183.73
C 107.83 165.34 103.99 155.82 96.91 147.97
C 89.70 139.99 81.51 136.44 60.75 132.33
C 50.69 130.33 39.42 127.39 35.69 125.77
L 28.91 122.82
L 37.26 122.18
C 44.54 121.61 45.61 121.20 45.61 118.96
C 45.61 116.64 44.45 116.31 33.19 115.50
C 18.24 114.44 11.46 112.75 8.39 109.36
C 6.15 106.89 6.19 106.77 9.48 105.51
C 11.36 104.80 19.03 103.63 26.53 102.93
C 42.63 101.40 48.06 99.22 65.65 87.20
C 81.85 76.12 93.85 72.01 109.85 72.05
C 123.26 72.09 126.28 73.60 129.06 81.72
C 130.95 87.26 135.52 89.42 137.02 85.50
C 137.65 83.84 138.71 84.75 141.65 89.49
C 148.88 101.11 152.66 111.29 162.60 145.97
C 173.60 184.28 180.50 195.42 197.32 201.96
C 203.52 204.36 208.12 205.00 222.27 205.45
C 246.53 206.21 328.59 200.40 366.15 195.26
C 383.51 192.88 387.48 192.72 397.23 194.02
C 427.62 198.07 455.04 212.49 480.67 237.90
C 510.04 267.01 530.44 300.95 563.42 375.54
C 581.09 415.49 586.50 429.16 589.84 442.24
C 592.48 452.58 593.09 464.92 591.01 466.21
C 589.19 467.33 576.73 455.19 567.28 443.06
C 541.80 410.41 527.60 380.48 500.17 301.59
C 492.14 278.49 483.28 261.53 475.37 254.13
C 468.36 247.56 466.29 247.02 462.53 250.79
C 459.44 253.88 459.42 254.85 461.90 271.70
C 464.79 291.37 467.86 300.16 482.43 330.53
C 501.69 370.68 500.90 366.94 497.43 402.96
C 495.87 419.36 494.58 437.86 494.61 444.09
C 494.63 451.37 494.00 456.64 492.85 458.88
C 489.56 465.21 482.08 470.48 473.49 472.55
C 469.71 473.46 469.70 473.45 472.03 470.85
C 474.60 468.02 474.03 464.28 471.02 464.28
C 470.00 464.28 467.24 466.58 464.88 469.40
C 462.06 472.77 460.05 474.17 458.98 473.50
M 95.78 102.31
C 102.71 95.36 97.81 83.60 88.01 83.60
C 81.74 83.60 77.09 88.25 77.09 94.53
C 77.09 100.80 81.74 105.46 88.01 105.46
C 91.19 105.46 93.60 104.48 95.78 102.31"/>
<path fill="#4d4a4a" stroke="none" d="
M 378.91 467.61
C 381.25 465.19 382.77 462.58 382.29 461.82
C 380.63 459.12 376.92 460.47 371.95 465.57
C 366.45 471.20 362.84 470.80 366.66 464.99
C 369.55 460.55 376.18 456.45 389.64 450.74
C 396.32 447.90 402.14 444.47 403.95 442.31
C 411.28 433.61 422.43 395.71 423.60 375.54
C 424.63 357.95 420.40 343.79 409.27 327.48
C 407.40 324.75 406.16 322.22 406.51 321.86
C 407.67 320.71 425.68 330.63 434.26 337.15
C 446.12 346.15 450.28 351.91 452.72 362.72
C 454.73 371.60 454.72 371.90 451.45 382.32
C 449.64 388.14 442.82 404.18 436.29 417.98
C 429.76 431.78 422.72 446.76 420.67 451.28
C 418.54 455.96 415.21 460.81 412.93 462.53
C 408.69 465.77 395.73 470.71 391.46 470.71
C 389.00 470.71 388.99 470.62 391.18 468.19
C 393.61 465.49 393.06 461.71 390.23 461.71
C 389.29 461.71 386.27 464.02 383.51 466.85
C 380.75 469.68 377.63 472.00 376.57 472.00
C 375.33 472.00 376.15 470.45 378.91 467.61"/>
<path fill="#4d4a4a" stroke="none" d="
M 87.37 468.52
C 87.37 468.04 88.88 466.04 90.75 464.10
C 94.20 460.49 94.21 456.56 90.75 456.56
C 88.65 456.56 80.94 464.90 80.94 467.15
C 80.94 468.22 80.54 468.25 79.57 467.28
C 77.86 465.57 80.74 458.18 84.30 455.11
C 85.63 453.97 91.07 450.60 96.36 447.63
C 101.65 444.65 107.58 440.73 109.49 438.89
C 115.31 433.36 118.70 420.04 123.30 384.54
C 124.82 372.88 128.33 349.43 131.10 332.46
C 133.88 315.48 136.93 295.35 137.91 287.74
C 138.87 280.12 139.93 273.63 140.25 273.31
C 140.57 272.97 146.07 280.66 152.47 290.36
C 170.36 317.52 168.89 314.01 166.46 323.72
C 165.30 328.31 160.66 340.26 156.14 350.27
C 147.35 369.73 139.75 393.17 134.31 417.65
C 132.46 425.97 130.10 436.54 129.07 441.13
C 128.03 445.72 125.59 451.73 123.65 454.45
C 119.60 460.17 108.08 467.70 101.50 468.95
L 97.00 469.80
L 100.06 466.45
C 102.87 463.38 103.14 459.14 100.51 459.14
C 99.93 459.14 97.19 461.45 94.43 464.28
C 89.68 469.14 87.37 470.54 87.37 468.52"/>
<path fill="#eb2e00" stroke="none" d="
M 88.65 100.47
C 88.65 99.85 89.51 98.62 90.58 97.74
C 93.04 95.69 93.03 93.34 90.53 91.26
C 89.07 90.07 88.92 89.24 89.97 88.21
C 91.01 87.20 92.08 87.65 93.88 89.85
C 96.89 93.52 96.96 95.02 94.36 98.75
C 92.39 101.55 88.65 102.68 88.65 100.47"/>
</g>
</svg>
