<?xml version="1.0" encoding="UTF-8" standalone="no"?>
<!DOCTYPE svg PUBLIC "-//W3C//DTD SVG 1.1//EN"
"http://www.w3.org/Graphics/SVG/1.1/DTD/svg11.dtd">
<svg width="600px" height="483px"
xmlns="http://www.w3.org/2000/svg" version="1.1">
<g transform="translate(0000, 0000) scale(1.0000, 1.0000)">
<path fill="#000000" stroke="none" d="
M 452.40 481.86
C 442.05 480.29 438.43 472.86 443.74 464.14
C 445.46 461.32 450.03 458.15 459.20 453.44
C 466.36 449.76 472.81 445.64 473.52 444.30
C 475.26 441.04 475.20 411.74 473.42 397.12
C 471.94 384.98 467.16 367.83 464.09 363.63
C 462.52 361.46 462.32 362.30 462.43 370.76
C 462.57 382.99 458.83 394.23 445.70 421.06
C 440.35 431.99 434.17 445.32 431.95 450.68
C 426.54 463.77 422.85 469.09 416.85 472.47
C 408.25 477.30 393.25 480.42 378.50 480.42
C 366.94 480.42 364.83 480.08 362.62 477.87
C 358.97 474.22 358.25 469.84 360.41 464.62
C 362.93 458.60 368.83 454.32 383.06 448.13
C 389.55 445.32 396.27 442.09 397.99 440.95
C 405.26 436.19 419.35 390.69 419.35 371.96
C 419.35 355.34 406.31 331.40 384.49 308.01
C 380.52 303.75 374.21 296.06 370.46 290.92
C 360.90 277.79 357.07 274.79 351.15 275.83
C 348.57 276.28 337.16 280.31 325.81 284.78
C 290.15 298.81 270.00 303.48 244.93 303.49
C 237.34 303.49 229.64 304.06 227.79 304.75
C 223.57 306.37 224.06 308.77 231.94 324.80
L 237.63 336.42
L 236.88 354.50
C 236.46 364.45 235.77 381.60 235.34 392.60
L 234.55 412.62
L 239.86 428.88
C 242.77 437.81 245.16 447.14 245.16 449.60
C 245.16 456.19 239.46 466.62 233.66 470.64
C 223.96 477.38 216.14 479.49 198.53 480.12
C 183.24 480.68 182.06 480.55 179.50 477.98
C 176.12 474.59 176.08 469.81 179.35 462.60
C 181.63 457.58 182.94 456.54 192.71 452.02
C 204.32 446.65 209.03 442.16 209.03 436.48
C 209.03 430.35 204.05 408.08 199.21 392.60
C 190.76 365.56 175.64 327.25 174.12 329.01
C 173.65 329.54 172.28 333.09 171.08 336.90
C 169.87 340.71 165.74 350.59 161.91 358.85
C 152.53 379.05 143.86 407.92 137.38 440.38
C 134.30 455.83 132.22 460.26 124.95 466.79
C 118.21 472.88 108.48 477.23 96.77 479.40
C 91.03 480.47 88.26 480.30 82.26 478.53
C 74.28 476.19 72.26 473.97 72.26 467.54
C 72.26 457.62 77.70 451.15 92.97 442.93
C 98.72 439.83 104.55 435.88 105.91 434.14
C 110.12 428.80 113.28 414.36 118.00 379.04
C 119.79 365.54 123.60 340.30 126.43 322.94
C 129.26 305.57 132.23 285.23 133.01 277.74
L 134.43 264.10
L 126.03 250.09
C 115.17 231.98 111.87 222.79 107.79 199.35
C 103.66 175.55 100.66 166.25 94.10 157.10
C 87.14 147.35 78.36 143.20 55.48 138.77
C 36.81 135.16 26.19 131.16 20.00 125.41
C 17.87 123.44 13.37 120.80 10.00 119.56
C 3.34 117.11 0.00 113.51 0.00 108.75
C 0.00 100.94 4.31 98.77 23.48 96.96
C 38.35 95.55 43.03 93.63 60.77 81.67
C 68.15 76.70 77.39 71.61 81.29 70.36
C 92.21 66.88 95.25 64.92 97.90 59.70
C 99.95 55.65 106.23 21.71 107.41 8.41
C 107.63 5.91 108.54 4.39 110.03 4.11
C 113.12 3.53 119.64 17.58 123.26 32.71
C 125.86 43.53 126.10 43.99 127.42 40.50
C 131.08 30.78 131.87 26.82 132.54 14.59
C 133.05 5.36 133.78 1.23 134.98 0.76
C 138.00 -0.39 144.27 6.32 147.30 13.93
C 149.88 20.46 150.23 23.62 150.27 41.33
C 150.32 59.26 150.01 62.17 147.30 69.31
L 144.27 77.29
L 150.09 88.04
C 157.05 100.91 161.52 113.41 169.66 142.70
C 181.99 187.09 190.10 196.60 218.71 200.16
C 231.23 201.72 329.81 194.49 369.68 189.08
C 379.63 187.74 388.90 187.26 395.61 187.76
C 416.63 189.33 441.08 197.69 460.01 209.81
L 467.64 214.69
L 471.94 209.69
C 478.76 201.78 488.09 181.20 499.12 149.81
C 523.25 81.17 535.81 55.88 564.80 17.49
C 574.76 4.29 580.22 0.00 587.01 0.00
C 596.37 0.00 600.99 7.40 599.32 19.73
C 597.66 31.90 587.55 59.46 571.24 96.21
C 534.37 179.27 515.43 210.44 481.63 243.68
C 468.97 256.12 468.28 257.07 468.97 261.12
C 469.35 263.47 470.27 269.27 470.98 273.99
C 473.14 288.37 477.07 299.09 490.35 326.74
C 510.36 368.41 510.09 366.94 505.79 409.39
C 504.39 423.24 503.23 440.38 503.20 447.49
C 503.15 467.17 499.39 473.44 484.28 479.10
C 476.36 482.07 461.99 483.31 452.40 481.86
M 467.10 470.73
C 469.51 468.24 472.25 466.21 473.20 466.21
C 476.09 466.21 476.58 470.02 474.06 472.81
C 471.72 475.42 471.73 475.43 475.52 474.52
C 484.15 472.44 491.66 467.14 494.97 460.79
C 496.13 458.54 496.76 453.25 496.74 445.94
C 496.71 439.68 498.00 421.10 499.57 404.64
C 503.06 368.46 503.85 372.22 484.50 331.90
C 469.87 301.41 466.79 292.58 463.88 272.83
C 460.72 251.38 459.78 253.86 477.91 235.96
C 509.85 204.42 529.30 172.37 563.68 94.61
C 584.79 46.89 592.13 26.46 592.23 15.17
C 592.26 12.67 587.91 7.75 585.65 7.75
C 583.82 7.75 577.45 14.64 567.17 27.77
C 541.66 60.30 527.32 90.53 499.74 169.82
C 491.92 192.32 482.70 210.17 475.45 216.86
C 472.31 219.75 468.71 222.13 467.45 222.12
C 466.19 222.12 459.95 218.91 453.56 215.01
C 440.04 206.72 427.81 201.40 413.96 197.77
C 397.55 193.48 388.58 193.16 367.10 196.13
C 330.45 201.21 247.50 207.07 223.23 206.31
C 186.31 205.15 177.64 196.49 163.30 146.58
C 153.43 112.19 149.38 101.17 142.62 90.45
C 139.83 86.04 138.86 85.33 137.35 86.58
C 134.58 88.89 129.03 87.03 129.03 83.79
C 129.03 82.32 126.98 79.05 124.48 76.54
L 119.92 71.99
L 107.38 72.67
C 90.94 73.59 81.33 77.03 65.90 87.59
C 48.22 99.66 42.83 101.82 26.46 103.38
C 8.31 105.10 4.06 107.31 10.65 111.62
C 13.74 113.65 27.05 115.98 38.71 116.54
C 44.84 116.82 45.81 117.22 45.81 119.46
C 45.81 121.71 44.74 122.12 37.42 122.69
L 29.03 123.33
L 35.85 126.29
C 39.59 127.92 50.90 130.87 61.01 132.88
C 81.86 137.01 90.09 140.57 97.33 148.58
C 104.44 156.47 108.30 166.03 111.82 184.50
C 119.72 226.02 121.12 229.26 150.35 273.11
C 172.77 306.78 179.45 318.79 189.41 343.52
C 204.23 380.32 213.72 413.16 214.98 431.99
C 215.97 446.90 214.19 449.80 199.73 456.81
C 188.32 462.34 183.54 466.95 185.06 470.91
C 185.72 472.66 186.74 472.04 190.45 467.70
C 194.93 462.47 198.97 460.92 200.71 463.74
C 201.19 464.51 199.66 467.13 197.32 469.56
C 194.97 471.97 193.61 473.96 194.32 473.96
C 195.03 473.96 197.87 471.64 200.65 468.79
C 203.42 465.95 206.45 463.63 207.39 463.63
C 210.61 463.63 210.70 467.58 207.59 471.00
C 204.81 474.04 204.77 474.28 207.10 473.43
C 208.52 472.91 211.42 472.15 213.55 471.75
C 223.07 469.93 232.97 462.67 236.35 455.04
L 238.84 449.40
L 233.47 432.94
L 228.10 416.49
L 228.92 392.60
C 229.35 379.45 230.06 362.43 230.49 354.77
L 231.26 340.84
L 224.79 327.01
C 221.21 319.40 217.37 310.50 216.22 307.25
C 215.07 303.98 211.48 297.76 208.26 293.39
C 202.12 285.12 201.34 280.89 205.96 280.89
C 207.77 280.89 210.74 283.65 214.99 289.28
L 221.33 297.68
L 239.37 297.24
C 268.55 296.54 286.15 292.56 319.88 279.06
C 330.23 274.90 342.12 270.80 346.28 269.94
L 353.85 268.37
L 352.98 261.85
C 352.52 258.28 351.79 253.69 351.39 251.68
C 350.84 248.91 351.21 247.78 352.93 247.12
C 355.60 246.10 358.71 249.62 358.72 253.69
C 358.74 260.24 362.13 266.92 372.37 280.50
C 378.43 288.53 387.03 298.88 391.51 303.49
C 398.66 310.88 400.90 312.32 410.05 315.50
C 426.84 321.32 444.65 333.70 467.15 355.16
C 471.12 358.94 475.59 370.13 478.23 382.91
C 479.28 388.00 480.44 403.54 480.88 418.48
C 481.83 451.67 482.26 450.57 465.21 458.98
C 453.08 464.97 447.29 470.15 449.87 472.73
C 450.65 473.51 452.95 472.05 456.13 468.79
C 458.90 465.95 461.94 463.63 462.88 463.63
C 466.34 463.63 466.14 467.66 462.50 471.45
C 460.01 474.05 459.48 475.25 460.80 475.25
C 461.86 475.25 464.68 473.22 467.10 470.73
M 386.45 468.79
C 389.23 465.95 391.97 463.63 392.55 463.63
C 394.85 463.63 395.03 467.72 392.86 470.14
C 390.66 472.58 390.67 472.67 393.15 472.67
C 397.43 472.67 410.45 467.71 414.71 464.45
C 416.99 462.72 420.34 457.86 422.48 453.15
C 424.54 448.62 431.61 433.58 438.17 419.72
C 444.72 405.86 451.57 389.76 453.39 383.91
C 456.67 373.45 456.68 373.15 454.67 364.23
C 452.22 353.38 448.04 347.59 436.13 338.55
C 427.51 332.00 409.42 322.05 408.26 323.20
C 407.91 323.56 409.15 326.10 411.03 328.84
C 422.21 345.22 426.45 359.43 425.42 377.10
C 424.25 397.35 413.05 435.41 405.69 444.15
C 403.87 446.32 398.03 449.76 391.32 452.61
C 377.79 458.35 371.14 462.47 368.23 466.92
C 364.40 472.76 368.03 473.16 373.55 467.50
C 378.54 462.39 382.27 461.03 383.94 463.74
C 384.41 464.51 382.89 467.13 380.54 469.56
C 376.83 473.39 376.61 473.96 378.84 473.96
C 380.26 473.96 383.68 471.64 386.45 468.79
M 94.84 466.21
C 97.61 463.37 100.65 461.05 101.59 461.05
C 104.80 461.05 104.89 465.00 101.78 468.39
L 98.71 471.74
L 102.58 470.85
C 108.92 469.39 120.39 461.69 124.18 456.34
C 126.13 453.61 128.58 447.58 129.63 442.97
C 130.66 438.35 133.03 427.74 134.89 419.38
C 140.35 394.81 147.99 371.26 156.81 351.72
C 161.35 341.68 166.01 329.68 167.17 325.07
C 169.61 315.32 171.10 318.84 153.12 291.57
C 146.70 281.83 141.17 274.11 140.85 274.44
C 140.53 274.77 139.47 281.29 138.50 288.93
C 137.52 296.58 134.45 316.79 131.66 333.84
C 128.88 350.89 125.35 374.43 123.83 386.14
C 119.21 421.79 115.81 435.16 109.96 440.72
C 108.04 442.56 102.09 446.50 96.77 449.49
C 91.46 452.47 86.00 455.85 84.66 457.00
C 81.08 460.09 78.19 467.50 79.91 469.22
C 80.89 470.20 81.29 470.16 81.29 469.09
C 81.29 466.83 89.03 458.46 91.14 458.46
C 94.62 458.46 94.61 462.40 91.14 466.03
C 89.26 467.98 87.74 469.98 87.74 470.47
C 87.74 472.50 90.06 471.09 94.84 466.21
M 141.64 61.99
C 144.61 52.52 144.63 25.03 141.68 17.43
L 139.66 12.27
L 138.68 24.41
C 137.77 35.68 137.16 37.65 130.13 51.95
L 122.54 67.36
L 128.05 72.81
L 133.55 78.25
L 136.48 73.68
C 138.09 71.16 140.41 65.89 141.64 61.99
M 114.45 63.93
C 120.70 59.55 120.85 48.15 114.92 28.95
L 112.65 21.63
L 111.79 26.63
C 111.33 29.39 110.09 37.25 109.05 44.10
C 107.99 50.95 106.54 58.11 105.82 60.03
C 105.10 61.94 104.83 64.03 105.23 64.68
C 106.35 66.50 111.37 66.08 114.45 63.93"/>
<path fill="#000000" stroke="none" d="
M 80.58 102.73
C 76.28 98.42 76.28 91.42 80.58 87.11
C 87.55 80.15 99.35 85.07 99.35 94.92
C 99.35 98.12 98.37 100.54 96.19 102.73
C 94.00 104.92 91.59 105.90 88.39 105.90
C 85.19 105.90 82.77 104.92 80.58 102.73
M 94.99 98.74
C 96.72 96.10 96.85 94.83 95.68 92.25
C 94.18 88.97 90.85 86.86 89.42 88.30
C 88.98 88.74 89.59 90.16 90.76 91.46
C 93.41 94.39 93.46 96.07 90.97 98.15
C 88.50 100.20 88.49 102.02 90.94 102.02
C 91.99 102.02 93.81 100.55 94.99 98.74"/>
<path fill="#4d4a4a" stroke="none" d="
M 462.50 471.45
C 466.14 467.66 466.34 463.63 462.88 463.63
C 461.94 463.63 458.90 465.95 456.13 468.79
C 452.95 472.05 450.65 473.51 449.87 472.73
C 447.29 470.15 453.08 464.97 465.21 458.98
C 482.26 450.57 481.83 451.67 480.88 418.48
C 480.44 403.54 479.28 388.00 478.23 382.91
C 475.59 370.13 471.12 358.94 467.15 355.16
C 444.65 333.70 426.84 321.32 410.05 315.50
C 400.90 312.32 398.66 310.88 391.51 303.49
C 387.03 298.88 378.43 288.53 372.37 280.50
C 362.13 266.92 358.74 260.24 358.72 253.69
C 358.71 249.62 355.60 246.10 352.93 247.12
C 351.21 247.78 350.84 248.91 351.39 251.68
C 351.79 253.69 352.52 258.28 352.98 261.85
L 353.85 268.37
L 346.28 269.94
C 342.12 270.80 330.23 274.90 319.88 279.06
C 286.15 292.56 268.55 296.54 239.37 297.24
L 221.33 297.68
L 214.99 289.28
C 210.74 283.65 207.77 280.89 205.96 280.89
C 201.34 280.89 202.12 285.12 208.26 293.39
C 211.48 297.76 215.07 303.98 216.22 307.25
C 217.37 310.50 221.21 319.40 224.79 327.01
L 231.26 340.84
L 230.49 354.77
C 230.06 362.43 229.35 379.45 228.92 392.60
L 228.10 416.49
L 233.47 432.94
L 238.84 449.40
L 236.35 455.04
C 232.97 462.67 223.07 469.93 213.55 471.75
C 211.42 472.15 208.52 472.91 207.10 473.43
C 204.77 474.28 204.81 474.04 207.59 471.00
C 210.70 467.58 210.61 463.63 207.39 463.63
C 206.45 463.63 203.42 465.95 200.65 468.79
C 197.87 471.64 195.03 473.96 194.32 473.96
C 193.61 473.96 194.97 471.97 197.32 469.56
C 199.66 467.13 201.19 464.51 200.71 463.74
C 198.97 460.92 194.93 462.47 190.45 467.70
C 186.74 472.04 185.72 472.66 185.06 470.91
C 183.54 466.95 188.32 462.34 199.73 456.81
C 214.19 449.80 215.97 446.90 214.98 431.99
C 213.72 413.16 204.23 380.32 189.41 343.52
C 179.45 318.79 172.77 306.78 150.35 273.11
C 121.12 229.26 119.72 226.02 111.82 184.50
C 108.30 166.03 104.44 156.47 97.33 148.58
C 90.09 140.57 81.86 137.01 61.01 132.88
C 50.90 130.87 39.59 127.92 35.85 126.29
L 29.03 123.33
L 37.42 122.69
C 44.74 122.12 45.81 121.71 45.81 119.46
C 45.81 117.22 44.84 116.82 38.71 116.54
C 27.05 115.98 13.74 113.65 10.65 111.62
C 4.06 107.31 8.31 105.10 26.46 103.38
C 42.83 101.82 48.22 99.66 65.90 87.59
C 81.33 77.03 90.94 73.59 107.38 72.67
L 119.92 71.99
L 124.48 76.54
C 126.98 79.05 129.03 82.32 129.03 83.79
C 129.03 87.03 134.58 88.89 137.35 86.58
C 138.86 85.33 139.83 86.04 142.62 90.45
C 149.38 101.17 153.43 112.19 163.30 146.58
C 174.35 185.05 181.28 196.23 198.17 202.80
C 204.40 205.21 209.02 205.86 223.23 206.31
C 247.50 207.07 330.45 201.21 367.10 196.13
C 388.58 193.16 397.55 193.48 413.96 197.77
C 427.81 201.40 440.04 206.72 453.56 215.01
C 459.95 218.91 466.19 222.12 467.45 222.12
C 468.71 222.13 472.31 219.75 475.45 216.86
C 482.70 210.17 491.92 192.32 499.74 169.82
C 529.90 83.14 545.19 52.65 577.16 15.50
C 583.47 8.16 586.34 6.99 589.70 10.36
C 592.72 13.38 592.79 14.75 590.43 25.87
C 587.88 37.90 581.43 54.46 563.68 94.61
C 529.30 172.37 509.85 204.42 477.91 235.96
C 459.78 253.86 460.72 251.38 463.88 272.83
C 466.79 292.58 469.87 301.41 484.50 331.90
C 503.85 372.22 503.06 368.46 499.57 404.64
C 498.00 421.10 496.71 439.68 496.74 445.94
C 496.76 453.25 496.13 458.54 494.97 460.79
C 491.66 467.14 484.15 472.44 475.52 474.52
C 471.73 475.43 471.72 475.42 474.06 472.81
C 476.58 470.02 476.09 466.21 473.20 466.21
C 472.25 466.21 469.51 468.24 467.10 470.73
C 464.68 473.22 461.86 475.25 460.80 475.25
C 459.48 475.25 460.01 474.05 462.50 471.45
M 96.19 102.73
C 103.15 95.76 98.23 83.94 88.39 83.94
C 82.09 83.94 77.42 88.62 77.42 94.92
C 77.42 101.22 82.09 105.90 88.39 105.90
C 91.59 105.90 94.00 104.92 96.19 102.73"/>
<path fill="#4d4a4a" stroke="none" d="
M 380.54 469.56
C 382.89 467.13 384.41 464.51 383.94 463.74
C 382.27 461.03 378.54 462.39 373.55 467.50
C 368.03 473.16 364.40 472.76 368.23 466.92
C 371.14 462.47 377.79 458.35 391.32 452.61
C 398.03 449.76 403.87 446.32 405.69 444.15
C 413.05 435.41 424.25 397.35 425.42 377.10
C 426.45 359.43 422.21 345.22 411.03 328.84
C 409.15 326.10 407.91 323.56 408.26 323.20
C 409.42 322.05 427.51 332.00 436.13 338.55
C 448.04 347.59 452.22 353.38 454.67 364.23
C 456.68 373.15 456.67 373.45 453.39 383.91
C 451.57 389.76 444.72 405.86 438.17 419.72
C 431.61 433.58 424.54 448.62 422.48 453.15
C 420.34 457.86 416.99 462.72 414.71 464.45
C 410.45 467.71 397.43 472.67 393.15 472.67
C 390.67 472.67 390.66 472.58 392.86 470.14
C 395.03 467.72 394.85 463.63 392.55 463.63
C 391.97 463.63 389.23 465.95 386.45 468.79
C 383.68 471.64 380.26 473.96 378.84 473.96
C 376.61 473.96 376.83 473.39 380.54 469.56"/>
<path fill="#4d4a4a" stroke="none" d="
M 87.74 470.47
C 87.74 469.98 89.26 467.98 91.14 466.03
C 94.61 462.40 94.62 458.46 91.14 458.46
C 89.03 458.46 81.29 466.83 81.29 469.09
C 81.29 470.16 80.89 470.20 79.91 469.22
C 78.19 467.50 81.08 460.09 84.66 457.00
C 86.00 455.85 91.46 452.47 96.77 449.49
C 102.09 446.50 108.04 442.56 109.96 440.72
C 115.81 435.16 119.21 421.79 123.83 386.14
C 125.35 374.43 128.88 350.89 131.66 333.84
C 134.45 316.79 137.52 296.58 138.50 288.93
C 139.47 281.29 140.53 274.77 140.85 274.44
C 141.17 274.11 146.70 281.83 153.12 291.57
C 171.10 318.84 169.61 315.32 167.17 325.07
C 166.01 329.68 161.35 341.68 156.81 351.72
C 147.99 371.26 140.35 394.81 134.89 419.38
C 133.03 427.74 130.66 438.35 129.63 442.97
C 128.58 447.58 126.13 453.61 124.18 456.34
C 120.39 461.69 108.92 469.39 102.58 470.85
L 98.71 471.74
L 101.78 468.39
C 104.89 465.00 104.80 461.05 101.59 461.05
C 100.65 461.05 97.61 463.37 94.84 466.21
C 90.06 471.09 87.74 472.50 87.74 470.47"/>
<path fill="#8f8c8c" stroke="none" d="
M 128.05 72.81
L 122.54 67.36
L 130.31 51.58
C 135.78 40.45 138.09 34.25 138.15 30.49
C 138.21 27.57 138.67 22.57 139.19 19.37
L 140.10 13.56
L 141.99 18.73
C 143.25 22.17 143.87 29.03 143.87 39.39
C 143.87 56.10 141.91 65.17 136.48 73.68
L 133.55 78.25
L 128.05 72.81"/>
<path fill="#8f8c8c" stroke="none" d="
M 105.23 64.68
C 104.83 64.03 105.10 61.94 105.82 60.03
C 106.54 58.11 107.99 50.95 109.05 44.10
C 110.09 37.25 111.33 29.39 111.79 26.63
L 112.65 21.63
L 114.92 28.95
C 120.85 48.15 120.70 59.55 114.45 63.93
C 111.37 66.08 106.35 66.50 105.23 64.68"/>
<path fill="#eb2e00" stroke="none" d="
M 89.03 100.89
C 89.03 100.27 89.90 99.03 90.97 98.15
C 93.45 96.08 93.43 93.73 90.92 91.64
C 89.46 90.44 89.30 89.61 90.36 88.58
C 91.41 87.56 92.48 88.01 94.28 90.22
C 97.30 93.91 97.38 95.41 94.76 99.16
C 92.79 101.97 89.03 103.11 89.03 100.89"/>
</g>
</svg>
