<?xml version="1.0" encoding="UTF-8" standalone="no"?>
<!DOCTYPE svg PUBLIC "-//W3C//DTD SVG 1.1//EN"
"http://www.w3.org/Graphics/SVG/1.1/DTD/svg11.dtd">
<svg width="548px" height="600px"
xmlns="http://www.w3.org/2000/svg" version="1.1">
<g transform="translate(0000, 0000) scale(1.0000, 1.0000)">
<path fill="#000000" stroke="none" d="
M 120.77 598.85
C 108.12 598.15 106.54 597.77 104.33 595.03
C 101.14 591.10 101.17 582.99 104.36 575.96
C 107.34 569.39 110.86 567.00 119.27 565.82
C 128.37 564.55 133.98 561.98 139.68 556.48
C 146.01 550.38 149.09 544.35 152.16 532.02
C 156.13 516.00 158.38 494.70 159.86 459.01
C 161.65 415.57 162.96 402.23 167.93 376.91
C 171.29 359.88 172.05 352.79 172.08 338.63
L 172.14 321.24
L 164.01 304.36
C 157.33 290.50 154.97 283.70 150.81 266.38
C 137.68 211.76 129.33 194.69 111.50 185.97
C 97.25 179.02 84.51 180.28 57.66 191.33
C 41.74 197.88 30.74 199.69 22.77 197.06
C 18.86 195.77 17.63 195.86 15.22 197.55
C 8.06 202.55 -0.89 197.79 0.44 189.68
C 2.05 179.73 30.69 146.47 46.42 136.30
C 67.60 122.60 72.53 119.07 82.78 110.25
C 98.70 96.57 103.02 94.36 121.44 90.57
C 141.56 86.42 143.94 85.21 145.70 78.21
C 147.70 70.26 152.15 56.55 161.42 29.73
C 170.77 2.69 172.29 0.64 182.97 0.64
C 196.12 0.64 208.05 13.15 204.17 22.85
C 203.39 24.80 202.31 27.55 201.77 28.97
C 201.21 30.39 202.95 29.06 205.61 26.03
C 210.56 20.39 218.56 15.44 222.69 15.46
C 226.27 15.48 237.79 22.56 241.58 27.06
C 249.10 35.99 247.41 40.38 230.57 55.58
C 184.24 97.39 183.64 99.23 206.58 128.21
C 216.43 140.67 222.71 150.06 242.15 181.55
C 268.34 223.93 278.22 236.10 296.47 248.45
C 302.77 252.71 360.74 281.97 362.88 281.97
C 364.18 281.97 389.45 296.54 400.36 303.58
C 452.69 337.35 480.42 373.91 495.34 428.76
L 496.91 434.55
L 497.80 428.11
C 498.29 424.57 499.09 400.82 499.60 375.32
C 500.39 334.49 500.18 324.75 497.76 293.56
C 494.18 247.17 492.99 205.08 494.99 195.71
C 497.11 185.83 506.11 168.21 511.42 163.55
C 513.86 161.41 517.17 159.66 518.78 159.66
C 526.40 159.66 544.48 176.28 546.29 184.94
C 547.96 192.93 547.28 209.01 544.34 231.12
C 542.84 242.45 539.24 276.91 536.37 307.73
C 533.48 338.54 527.68 392.70 523.48 428.11
C 519.26 463.52 514.66 503.34 513.25 516.59
C 510.26 544.80 508.21 553.62 501.81 565.88
C 495.42 578.12 478.84 594.95 470.36 597.77
C 465.07 599.55 455.96 599.73 398.16 599.21
C 361.78 598.89 324.64 598.04 315.61 597.33
C 301.55 596.23 298.16 596.36 291.90 598.17
C 279.80 601.69 262.52 598.53 259.13 592.20
C 256.86 587.97 258.15 574.97 261.25 570.70
C 264.66 565.98 276.22 560.43 284.93 559.33
C 289.50 558.75 297.40 559.22 307.36 560.69
C 325.27 563.33 332.20 562.92 360.39 557.47
C 371.03 555.42 384.40 553.17 390.10 552.48
C 395.81 551.78 402.10 550.60 404.10 549.84
C 407.71 548.46 407.71 548.45 405.43 544.93
C 404.18 543.00 396.73 533.60 388.90 524.03
C 364.39 494.12 356.59 482.10 351.34 466.11
C 349.69 461.07 346.94 456.85 341.81 451.47
C 328.62 437.61 313.93 429.30 288.05 421.02
C 278.91 418.09 265.43 413.69 258.09 411.23
C 250.75 408.79 243.65 407.12 242.29 407.55
C 238.97 408.61 234.40 416.72 227.70 433.49
C 224.60 441.19 219.20 453.28 215.67 460.34
C 202.31 487.06 198.80 498.95 193.50 535.26
C 187.48 576.49 183.83 586.73 174.34 588.99
C 172.42 589.45 167.37 591.97 163.11 594.59
C 155.98 598.97 154.56 599.36 145.06 599.50
C 139.39 599.58 128.45 599.29 120.77 598.85
M 156.51 589.38
C 160.11 587.07 165.95 584.03 169.51 582.62
C 173.75 580.92 176.55 578.86 177.62 576.61
C 180.48 570.66 184.15 553.65 186.91 533.69
C 192.10 496.06 195.35 485.07 210.99 452.24
C 215.62 442.52 220.75 431.03 222.38 426.73
C 226.77 415.21 230.62 407.99 234.74 403.65
C 236.75 401.52 241.24 393.12 244.72 384.98
C 249.72 373.25 251.62 370.08 253.82 369.76
C 258.48 369.08 258.24 372.44 252.79 385.00
C 249.91 391.61 247.57 397.52 247.57 398.15
C 247.57 399.94 257.71 403.97 277.57 410.07
C 314.85 421.51 328.32 427.92 343.13 441.26
L 347.87 445.55
L 349.24 439.40
C 350.00 436.03 351.25 429.79 352.04 425.54
C 355.26 408.10 363.12 390.13 367.55 390.13
C 372.02 390.13 371.74 393.46 366.32 404.52
C 362.40 412.55 360.21 419.61 357.63 432.62
C 355.72 442.18 354.20 450.88 354.24 451.93
C 354.36 455.46 362.08 473.94 366.43 481.09
C 371.81 489.97 381.11 502.21 398.61 523.47
C 417.36 546.26 417.19 546.12 425.65 545.65
C 431.82 545.32 432.60 545.56 432.60 547.80
C 432.60 549.54 431.40 550.62 428.73 551.27
C 426.60 551.78 418.75 553.69 411.28 555.50
C 403.81 557.32 395.86 558.80 393.62 558.80
C 391.38 558.80 379.04 560.82 366.22 563.30
C 334.67 569.39 324.83 570.01 305.24 567.18
C 290.52 565.06 288.89 565.04 282.34 566.96
C 271.69 570.10 267.30 573.32 265.52 579.24
C 264.66 582.05 264.36 585.33 264.82 586.55
C 265.50 588.33 266.61 587.65 270.91 582.77
C 273.79 579.50 276.99 576.82 278.02 576.82
C 281.66 576.82 281.36 580.69 277.37 585.23
C 275.16 587.74 273.36 590.34 273.36 591.03
C 273.36 594.05 278.44 591.80 283.67 586.48
C 286.80 583.29 290.08 580.69 290.96 580.69
C 294.46 580.69 294.05 583.73 289.94 588.05
L 285.60 592.61
L 289.47 591.50
C 291.60 590.88 297.12 590.46 301.72 590.56
C 390.69 592.49 459.21 593.19 462.98 592.21
C 479.48 587.92 498.71 563.15 503.40 540.13
C 504.40 535.17 505.89 524.45 506.67 516.31
C 507.47 508.17 511.90 469.64 516.51 430.69
C 521.12 391.74 527.19 335.25 530.00 305.15
C 532.80 275.05 536.58 238.62 538.38 224.19
C 541.91 195.98 541.55 187.58 536.51 181.38
C 534.24 178.57 534.22 178.60 533.43 185.51
C 533.00 189.35 531.93 205.73 531.07 221.91
C 529.85 244.79 529.10 251.47 527.70 252.01
C 523.22 253.74 523.01 250.56 525.16 212.96
C 527.00 180.93 527.03 175.62 525.44 172.53
C 522.96 167.74 520.43 167.03 516.59 170.05
C 512.04 173.63 510.10 180.18 511.81 186.31
C 513.26 191.55 513.44 224.81 512.08 237.55
C 511.37 244.15 510.88 245.28 508.67 245.28
C 506.16 245.28 506.11 244.56 506.49 218.88
C 506.93 190.08 505.84 183.98 502.34 195.73
C 499.52 205.22 499.70 229.31 502.92 272.32
C 504.35 291.44 505.86 319.55 506.27 334.76
C 507.11 366.36 504.89 434.58 502.78 442.27
C 502.01 445.11 500.98 453.52 500.51 460.94
C 499.72 473.32 499.43 474.46 497.07 474.46
C 494.71 474.46 494.42 473.33 493.65 460.94
C 492.36 440.00 484.57 412.67 473.86 391.42
C 450.16 344.41 407.33 310.13 325.15 272.38
C 280.55 251.88 270.70 242.34 235.67 185.67
C 216.30 154.33 210.12 145.18 198.09 130.04
C 189.26 118.92 186.01 112.33 184.35 102.15
C 181.59 85.21 167.92 81.80 143.90 92.05
C 141.14 93.22 133.02 95.30 125.87 96.66
C 109.54 99.77 102.57 103.24 89.61 114.71
C 83.94 119.73 71.18 129.22 61.25 135.80
C 48.28 144.40 40.22 150.85 32.65 158.74
C 23.09 168.67 11.98 182.47 8.91 188.20
C 6.42 192.85 10.35 191.68 17.15 185.74
C 28.64 175.71 44.88 164.58 47.35 165.04
C 51.96 165.91 50.73 170.61 44.87 174.45
C 32.00 182.88 24.23 189.59 25.98 190.71
C 29.72 193.07 36.90 191.58 53.88 184.89
C 77.62 175.55 90.52 172.84 101.06 174.97
C 118.97 178.60 130.14 187.30 139.02 204.54
C 145.43 216.98 147.95 224.86 155.88 257.38
C 161.06 278.67 163.54 286.24 168.90 297.26
L 175.53 310.85
L 180.72 296.10
C 183.57 287.97 187.22 277.56 188.81 272.96
C 191.05 266.48 192.34 264.50 194.49 264.18
C 196.03 263.95 197.60 264.58 197.99 265.57
C 198.36 266.56 195.38 276.61 191.36 287.87
C 181.97 314.15 180.67 319.98 179.28 341.85
C 178.65 351.76 176.38 368.88 174.24 379.91
C 169.35 405.01 168.01 418.49 166.32 459.66
C 164.80 496.83 163.43 511.36 159.75 529.83
C 154.36 556.75 144.50 568.65 125.00 571.79
C 114.32 573.50 112.80 574.48 110.19 581.30
C 108.36 586.09 108.26 587.45 109.64 589.11
C 111.12 590.88 112.11 590.34 117.92 584.61
C 121.54 581.03 125.18 578.11 126.00 578.11
C 129.70 578.11 128.80 581.37 123.67 586.60
C 118.61 591.75 118.37 592.27 121.04 592.27
C 122.65 592.27 127.45 589.61 131.67 586.36
C 136.07 582.98 140.17 580.76 141.24 581.18
C 144.22 582.31 143.47 584.15 138.55 587.91
C 133.04 592.11 134.32 593.51 143.65 593.54
C 148.63 593.56 151.40 592.66 156.51 589.38
M 195.76 76.78
C 197.65 74.74 203.86 69.01 209.53 64.04
C 223.79 51.55 235.88 39.89 237.29 37.26
C 238.18 35.60 237.61 34.17 234.97 31.51
C 230.82 27.31 224.41 23.19 222.04 23.18
C 218.80 23.18 195.28 47.05 187.17 58.56
C 182.67 64.94 176.60 72.63 173.68 75.64
C 169.75 79.69 168.96 81.12 170.63 81.12
C 174.01 81.12 182.90 85.98 184.66 88.79
C 186.09 91.08 186.42 90.86 189.25 85.87
C 190.94 82.91 193.86 78.81 195.76 76.78
M 160.02 77.45
C 170.74 70.66 188.34 45.58 194.15 28.80
C 197.58 18.89 197.67 18.15 195.66 15.10
C 194.49 13.33 190.90 10.60 187.65 9.03
C 178.62 4.67 176.78 6.49 170.42 26.03
C 167.60 34.73 162.34 50.24 158.75 60.52
C 155.15 70.79 152.20 79.62 152.19 80.15
C 152.12 81.88 154.11 81.18 160.02 77.45"/>
<path fill="#000000" stroke="none" d="
M 97.89 137.87
C 95.11 135.08 94.13 132.89 94.13 129.40
C 94.13 122.86 99.83 117.17 106.38 117.17
C 112.93 117.17 118.63 122.86 118.63 129.40
C 118.63 132.89 117.65 135.08 114.86 137.87
C 109.65 143.06 103.10 143.06 97.89 137.87
M 112.75 134.91
C 115.49 131.01 115.27 126.70 112.18 123.61
C 109.52 120.95 103.15 120.04 103.15 122.32
C 103.15 123.03 103.84 123.61 104.66 123.61
C 107.02 123.61 110.89 127.64 110.89 130.08
C 110.89 131.30 110.03 133.03 108.96 133.91
C 107.89 134.78 107.02 136.02 107.02 136.64
C 107.02 138.85 110.77 137.72 112.75 134.91"/>
<path fill="#c57a36" stroke="none" d="
M 184.66 88.79
C 182.90 85.98 174.01 81.12 170.63 81.12
C 168.96 81.12 169.75 79.69 173.68 75.64
C 176.60 72.63 182.67 64.94 187.17 58.56
C 195.28 47.05 218.80 23.18 222.04 23.18
C 224.41 23.19 230.82 27.31 234.97 31.51
C 237.61 34.17 238.18 35.60 237.29 37.26
C 235.88 39.89 223.79 51.55 209.53 64.04
C 196.45 75.50 193.04 79.17 189.25 85.87
C 186.42 90.86 186.09 91.08 184.66 88.79"/>
<path fill="#c57a36" stroke="none" d="
M 152.19 80.15
C 152.20 79.62 155.15 70.79 158.75 60.52
C 162.34 50.24 167.53 34.92 170.29 26.46
C 173.05 18.00 176.15 10.25 177.15 9.24
C 178.17 8.23 180.50 7.40 182.35 7.40
C 186.82 7.40 195.76 13.44 196.66 17.06
C 197.69 21.26 190.41 40.06 184.15 49.36
C 174.48 63.72 165.88 73.74 160.02 77.45
C 154.11 81.18 152.12 81.88 152.19 80.15"/>
<path fill="#aa4422" stroke="none" d="
M 135.65 592.45
C 134.41 591.67 135.17 590.47 138.55 587.91
C 143.47 584.15 144.22 582.31 141.24 581.18
C 140.17 580.76 136.07 582.98 131.67 586.36
C 127.45 589.61 122.65 592.27 121.04 592.27
C 118.37 592.27 118.61 591.75 123.67 586.60
C 128.80 581.37 129.70 578.11 126.00 578.11
C 125.18 578.11 121.54 581.03 117.92 584.61
C 112.11 590.34 111.12 590.88 109.64 589.11
C 108.26 587.45 108.36 586.09 110.19 581.30
C 112.80 574.48 114.32 573.50 125.00 571.79
C 154.55 567.04 162.84 544.52 166.32 459.66
C 168.01 418.49 169.35 405.01 174.24 379.91
C 176.38 368.88 178.65 351.76 179.28 341.85
C 180.67 319.98 181.97 314.15 191.36 287.87
C 195.38 276.61 198.36 266.56 197.99 265.57
C 197.60 264.58 196.03 263.95 194.49 264.18
C 192.34 264.50 191.05 266.48 188.81 272.96
C 187.22 277.56 183.57 287.97 180.72 296.10
L 175.53 310.85
L 168.90 297.26
C 163.54 286.24 161.06 278.67 155.88 257.38
C 147.95 224.86 145.43 216.98 139.02 204.54
C 130.14 187.30 118.97 178.60 101.06 174.97
C 90.52 172.84 77.62 175.55 53.88 184.89
C 36.90 191.58 29.72 193.07 25.98 190.71
C 24.23 189.59 32.00 182.88 44.87 174.45
C 50.73 170.61 51.96 165.91 47.35 165.04
C 44.88 164.58 28.64 175.71 17.15 185.74
C -0.46 201.13 10.86 181.42 32.65 158.74
C 40.22 150.85 48.28 144.40 61.25 135.80
C 71.18 129.22 83.94 119.73 89.61 114.71
C 102.57 103.24 109.54 99.77 125.87 96.66
C 133.02 95.30 141.14 93.21 143.90 92.02
C 156.95 86.39 168.93 84.88 175.10 88.07
C 180.81 91.02 183.11 94.51 184.35 102.15
C 186.01 112.33 189.26 118.92 198.09 130.04
C 210.12 145.18 216.30 154.33 235.67 185.67
C 270.70 242.34 280.55 251.88 325.15 272.38
C 396.74 305.27 437.16 334.67 462.64 372.36
C 479.73 397.65 491.88 432.39 493.65 460.94
C 494.42 473.33 494.71 474.46 497.07 474.46
C 499.43 474.46 499.72 473.32 500.51 460.94
C 500.98 453.52 502.01 445.11 502.78 442.27
C 504.89 434.58 507.11 366.36 506.27 334.76
C 505.86 319.55 504.35 291.44 502.92 272.32
C 499.70 229.31 499.52 205.22 502.34 195.73
C 505.84 183.98 506.93 190.08 506.49 218.88
C 506.11 244.56 506.16 245.28 508.67 245.28
C 510.88 245.28 511.37 244.15 512.08 237.55
C 513.44 224.81 513.26 191.55 511.81 186.31
C 510.10 180.18 512.04 173.63 516.59 170.05
C 520.43 167.03 522.96 167.74 525.44 172.53
C 527.03 175.62 527.00 180.93 525.16 212.96
C 523.01 250.56 523.22 253.74 527.70 252.01
C 529.10 251.47 529.85 244.79 531.07 221.91
C 531.93 205.73 533.00 189.35 533.43 185.51
C 534.22 178.60 534.24 178.57 536.51 181.38
C 541.55 187.58 541.91 195.98 538.38 224.19
C 536.58 238.62 532.80 275.05 530.00 305.15
C 527.19 335.25 521.12 391.74 516.51 430.69
C 511.90 469.64 507.47 508.17 506.67 516.31
C 505.89 524.45 504.40 535.17 503.40 540.13
C 498.71 563.15 479.48 587.92 462.98 592.21
C 459.21 593.19 390.69 592.49 301.72 590.56
C 297.12 590.46 291.60 590.88 289.47 591.50
L 285.60 592.61
L 289.94 588.05
C 294.05 583.73 294.46 580.69 290.96 580.69
C 290.08 580.69 286.80 583.29 283.67 586.48
C 278.44 591.80 273.36 594.05 273.36 591.03
C 273.36 590.34 275.16 587.74 277.37 585.23
C 281.36 580.69 281.66 576.82 278.02 576.82
C 276.99 576.82 273.79 579.50 270.91 582.77
C 266.61 587.65 265.50 588.33 264.82 586.55
C 264.36 585.33 264.66 582.05 265.52 579.24
C 267.30 573.32 271.69 570.10 282.34 566.96
C 288.89 565.04 290.52 565.06 305.24 567.18
C 324.83 570.01 334.67 569.39 366.22 563.30
C 379.04 560.82 391.38 558.80 393.62 558.80
C 395.86 558.80 403.81 557.32 411.28 555.50
C 418.75 553.69 426.60 551.78 428.73 551.27
C 431.40 550.62 432.60 549.54 432.60 547.80
C 432.60 545.56 431.82 545.32 425.65 545.65
C 417.19 546.12 417.36 546.26 398.61 523.47
C 381.11 502.21 371.81 489.97 366.43 481.09
C 362.08 473.94 354.36 455.46 354.24 451.93
C 354.20 450.88 355.72 442.18 357.63 432.62
C 360.21 419.61 362.40 412.55 366.32 404.52
C 371.74 393.46 372.02 390.13 367.55 390.13
C 363.12 390.13 355.26 408.10 352.04 425.54
C 351.25 429.79 350.00 436.03 349.24 439.40
L 347.87 445.55
L 343.13 441.26
C 328.32 427.92 314.85 421.51 277.57 410.07
C 257.71 403.97 247.57 399.94 247.57 398.15
C 247.57 397.52 249.91 391.61 252.79 385.00
C 258.24 372.44 258.48 369.08 253.82 369.76
C 251.62 370.08 249.72 373.25 244.72 384.98
C 241.24 393.12 236.75 401.52 234.74 403.65
C 230.62 407.99 226.77 415.21 222.38 426.73
C 220.75 431.03 215.62 442.52 210.99 452.24
C 195.35 485.07 192.10 496.06 186.91 533.69
C 184.15 553.65 180.48 570.66 177.62 576.61
C 176.55 578.86 173.75 580.92 169.51 582.62
C 165.95 584.03 160.11 587.07 156.51 589.38
C 151.40 592.66 148.63 593.56 143.65 593.54
C 140.17 593.54 136.56 593.05 135.65 592.45
M 114.86 137.87
C 117.65 135.08 118.63 132.89 118.63 129.40
C 118.63 122.86 112.93 117.17 106.38 117.17
C 99.83 117.17 94.13 122.86 94.13 129.40
C 94.13 132.89 95.11 135.08 97.89 137.87
C 103.10 143.06 109.65 143.06 114.86 137.87"/>
<path fill="#eb2e00" stroke="none" d="
M 107.02 136.74
C 107.02 136.06 107.89 134.78 108.96 133.91
C 112.64 130.85 110.27 125.28 104.44 123.28
C 102.86 122.73 102.92 122.45 104.84 121.65
C 111.17 119.05 116.94 127.34 113.30 133.80
C 111.47 137.05 107.02 139.13 107.02 136.74"/>
</g>
</svg>
