<?xml version="1.0" encoding="UTF-8" standalone="no"?>
<!DOCTYPE svg PUBLIC "-//W3C//DTD SVG 1.1//EN"
"http://www.w3.org/Graphics/SVG/1.1/DTD/svg11.dtd">
<svg width="612px" height="600px"
xmlns="http://www.w3.org/2000/svg" version="1.1">
<g transform="translate(0000, 0000) scale(1.0000, 1.0000)">
<path fill="#000000" stroke="none" d="
M 272.80 598.97
C 196.60 592.66 126.16 568.12 64.87 526.52
C 41.22 510.46 2.13 477.48 0.43 472.14
C -1.11 467.29 -1.97 467.34 80.17 467.34
L 156.94 467.34
L 154.46 464.87
C 151.38 461.79 151.18 455.67 153.95 449.58
C 156.27 444.45 159.02 442.58 165.58 441.66
C 172.69 440.67 177.07 438.66 181.52 434.37
C 186.46 429.61 188.86 424.90 191.26 415.28
C 194.36 402.77 196.11 386.15 197.27 358.29
C 198.67 324.38 199.69 313.97 203.57 294.20
C 206.19 280.91 206.78 275.38 206.81 264.32
L 206.85 250.75
L 200.51 237.58
C 195.30 226.75 193.45 221.45 190.20 207.93
C 179.96 165.30 173.43 151.97 159.51 145.17
C 148.39 139.74 138.44 140.72 117.49 149.35
C 105.06 154.46 96.47 155.87 90.25 153.82
C 87.20 152.81 86.23 152.88 84.35 154.20
C 78.76 158.10 71.78 154.39 72.82 148.06
C 74.17 139.65 96.63 114.20 110.72 105.09
C 126.46 94.91 128.57 93.39 137.10 86.06
C 149.53 75.38 152.91 73.66 167.27 70.69
C 182.99 67.46 184.84 66.51 186.22 61.05
C 187.78 54.84 191.25 44.14 198.49 23.21
C 205.78 2.10 206.97 0.50 215.31 0.50
C 225.57 0.50 234.89 10.26 231.86 17.84
C 231.25 19.36 230.41 21.51 229.98 22.61
C 229.55 23.72 230.91 22.68 232.98 20.32
C 236.85 15.92 243.09 12.05 246.32 12.07
C 249.11 12.08 258.11 17.61 261.07 21.13
C 266.93 28.09 265.62 31.52 252.47 43.39
C 216.30 76.02 215.83 77.46 233.74 100.08
C 241.43 109.80 246.33 117.14 261.51 141.71
C 281.95 174.79 289.66 184.29 303.92 193.93
C 308.83 197.26 354.08 220.10 355.76 220.10
C 356.77 220.10 376.50 231.47 385.02 236.96
C 425.86 263.33 447.51 291.86 459.16 334.67
L 460.39 339.20
L 461.08 334.17
C 461.47 331.41 462.09 312.86 462.48 292.96
C 463.11 261.10 462.94 253.49 461.05 229.15
C 458.26 192.93 457.33 160.08 458.89 152.76
C 460.54 145.06 467.57 131.30 471.71 127.66
C 473.62 125.99 476.20 124.62 477.46 124.62
C 483.41 124.62 497.52 137.60 498.93 144.36
C 500.24 150.59 499.71 163.15 497.41 180.40
C 496.24 189.25 493.44 216.15 491.19 240.20
C 488.94 264.25 484.41 306.53 481.12 334.17
C 477.83 361.81 474.24 392.89 473.14 403.24
C 470.82 425.21 469.21 432.17 464.28 441.53
C 459.94 449.82 448.51 462.32 442.64 465.23
L 438.37 467.34
L 523.24 467.34
C 579.81 467.34 608.76 467.69 610.06 468.38
C 614.71 470.86 611.72 475.60 597.25 488.63
C 528.97 550.15 448.30 586.61 356.33 597.54
C 340.46 599.43 288.93 600.31 272.80 598.97
M 350.29 591.48
C 431.85 581.98 506.31 551.29 569.27 501.21
C 581.65 491.36 598.03 476.89 598.74 475.18
C 598.93 474.73 467.65 474.37 307.01 474.37
C 146.37 474.37 15.08 474.73 15.27 475.18
C 15.98 476.89 32.36 491.36 44.74 501.21
C 111.73 554.48 191.24 585.65 278.84 592.95
C 293.72 594.19 334.16 593.36 350.29 591.48
M 279.15 465.87
C 274.74 463.95 273.49 461.11 273.99 454.12
C 274.53 446.68 276.75 443.54 283.91 440.00
C 291.80 436.11 298.28 435.58 312.41 437.66
C 326.39 439.72 331.81 439.40 353.81 435.15
C 362.12 433.55 372.56 431.79 377.00 431.25
C 381.46 430.70 386.38 429.78 387.94 429.19
C 390.75 428.11 390.75 428.10 388.97 425.36
C 388.00 423.85 382.18 416.51 376.07 409.05
C 356.93 385.70 350.84 376.31 346.75 363.83
C 345.46 359.90 343.31 356.60 339.31 352.40
C 329.01 341.59 317.55 335.10 297.34 328.63
C 290.21 326.35 279.68 322.91 273.95 320.99
C 268.22 319.09 262.68 317.79 261.62 318.12
C 259.02 318.94 255.46 325.28 250.23 338.37
C 247.81 344.38 243.59 353.82 240.83 359.33
C 230.41 380.18 227.67 389.47 223.53 417.81
C 218.80 450.17 215.93 458.14 208.41 459.79
C 206.85 460.13 203.15 461.96 200.18 463.85
L 194.77 467.29
L 238.56 467.28
C 276.66 467.26 281.93 467.08 279.15 465.87
M 315.15 466.17
C 309.28 465.61 304.68 465.63 303.07 466.22
C 301.19 466.91 303.82 467.17 312.54 467.13
L 324.62 467.07
L 315.15 466.17
M 194.65 460.05
C 197.46 458.25 202.02 455.88 204.80 454.77
C 208.11 453.45 210.29 451.84 211.13 450.08
C 213.36 445.44 216.23 432.16 218.39 416.58
C 222.43 387.21 224.97 378.63 237.18 353.01
C 240.79 345.42 244.80 336.45 246.08 333.10
C 249.50 324.10 252.51 318.46 255.72 315.08
C 257.29 313.42 260.79 306.85 263.51 300.50
C 267.42 291.35 268.90 288.87 270.62 288.62
C 274.25 288.09 274.07 290.71 269.81 300.52
C 267.57 305.68 265.74 310.29 265.74 310.78
C 265.74 312.18 273.66 315.33 289.16 320.09
C 318.26 329.02 328.78 334.02 340.33 344.43
L 344.04 347.78
L 345.11 342.98
C 345.70 340.35 346.68 335.48 347.29 332.16
C 349.81 318.55 355.95 304.52 359.40 304.52
C 362.89 304.52 362.67 307.13 358.44 315.76
C 355.38 322.02 353.67 327.54 351.66 337.69
C 350.17 345.16 348.98 351.94 349.01 352.76
C 349.10 355.52 355.13 369.94 358.52 375.53
C 362.73 382.45 369.99 392.01 383.65 408.60
C 398.28 426.39 398.15 426.28 404.76 425.92
C 409.58 425.66 410.18 425.85 410.18 427.60
C 410.18 428.95 409.24 429.80 407.16 430.30
C 405.50 430.70 399.37 432.19 393.54 433.61
C 387.70 435.03 381.50 436.18 379.75 436.18
C 378.00 436.18 368.37 437.76 358.36 439.70
C 333.73 444.45 326.05 444.93 310.76 442.72
C 299.27 441.07 298.00 441.06 292.88 442.55
C 284.57 445.01 281.14 447.52 279.75 452.14
C 279.08 454.33 278.84 456.89 279.20 457.84
C 279.74 459.24 280.60 458.70 283.96 454.89
C 286.21 452.34 288.71 450.25 289.51 450.25
C 292.35 450.25 292.12 453.27 289.00 456.81
C 287.28 458.77 285.87 460.80 285.87 461.34
C 285.87 463.70 289.83 461.94 293.92 457.79
C 296.37 455.30 298.92 453.27 299.61 453.27
C 302.35 453.27 302.02 455.64 298.81 459.02
L 295.43 462.57
L 298.45 461.71
C 300.11 461.23 304.42 460.89 308.01 460.97
C 377.47 462.48 430.96 463.03 433.90 462.26
C 446.78 458.91 461.79 439.58 465.45 421.61
C 466.24 417.74 467.39 409.37 468.01 403.02
C 468.63 396.66 472.09 366.58 475.69 336.18
C 479.28 305.78 484.02 261.69 486.22 238.19
C 488.40 214.69 491.35 186.26 492.76 174.99
C 495.52 152.97 495.24 146.42 491.30 141.58
C 489.53 139.39 489.51 139.41 488.90 144.80
C 488.56 147.80 487.73 160.58 487.05 173.22
C 486.10 191.08 485.51 196.29 484.43 196.71
C 480.92 198.06 480.76 195.58 482.44 166.23
C 483.87 141.23 483.90 137.09 482.65 134.67
C 480.72 130.93 478.75 130.38 475.75 132.73
C 472.20 135.53 470.69 140.64 472.02 145.43
C 473.15 149.52 473.29 175.48 472.23 185.43
C 471.67 190.57 471.29 191.46 469.57 191.46
C 467.61 191.46 467.57 190.89 467.87 170.85
C 468.21 148.37 467.35 143.61 464.63 152.78
C 462.42 160.19 462.56 178.99 465.08 212.56
C 466.20 227.49 467.37 249.43 467.70 261.31
C 468.35 285.97 466.62 339.22 464.97 345.23
C 464.37 347.44 463.56 354.00 463.20 359.80
C 462.58 369.46 462.35 370.35 460.51 370.35
C 458.67 370.35 458.45 369.47 457.84 359.80
C 456.84 343.45 450.76 322.12 442.39 305.53
C 423.89 268.83 390.45 242.08 326.30 212.61
C 291.49 196.61 283.79 189.17 256.45 144.92
C 241.31 120.42 236.66 113.55 226.75 101.01
C 220.14 92.63 216.41 84.70 216.41 78.99
C 216.41 72.80 209.93 67.33 202.62 67.35
C 198.35 67.37 190.73 69.28 184.81 71.83
C 182.65 72.75 176.31 74.39 170.74 75.45
C 157.98 77.88 152.55 80.58 142.43 89.54
C 138.00 93.46 128.04 100.86 120.29 106.00
C 110.16 112.71 103.87 117.75 97.96 123.91
C 90.50 131.66 81.82 142.43 79.43 146.90
C 77.49 150.53 80.56 149.62 85.86 144.98
C 94.83 137.16 107.51 128.46 109.44 128.82
C 113.04 129.51 112.07 133.18 107.50 136.17
C 97.46 142.75 91.39 147.99 92.76 148.86
C 95.68 150.70 101.28 149.54 114.54 144.32
C 133.07 137.03 143.14 134.91 151.37 136.57
C 165.35 139.41 174.07 146.20 181.00 159.66
C 186.01 169.37 187.97 175.52 194.16 200.90
C 198.21 217.52 200.14 223.43 204.33 232.03
L 209.50 242.64
L 213.56 231.13
C 215.78 224.78 218.63 216.65 219.87 213.07
C 221.62 208.01 222.63 206.46 224.31 206.21
C 225.50 206.03 226.73 206.52 227.03 207.30
C 227.33 208.07 225.00 215.91 221.86 224.70
C 214.53 245.22 213.52 249.77 212.43 266.83
C 211.94 274.57 210.16 287.94 208.49 296.54
C 204.68 316.14 203.63 326.66 202.31 358.79
C 201.12 387.81 200.06 399.16 197.18 413.57
C 192.97 434.58 185.28 443.87 170.05 446.32
C 161.72 447.66 160.53 448.42 158.50 453.75
C 157.07 457.49 156.99 458.54 158.06 459.84
C 159.22 461.23 160.00 460.80 164.53 456.33
C 167.35 453.54 170.19 451.26 170.84 451.26
C 173.73 451.26 173.02 453.80 169.01 457.88
C 165.07 461.90 164.88 462.31 166.96 462.31
C 168.22 462.31 171.96 460.23 175.27 457.70
C 178.70 455.06 181.90 453.33 182.73 453.65
C 185.06 454.53 184.48 455.97 180.63 458.90
C 176.33 462.18 177.33 463.28 184.62 463.30
C 188.50 463.32 190.67 462.61 194.65 460.05
M 219.93 67.35
C 222.19 62.99 226.90 57.90 236.03 49.95
C 246.96 40.45 256.60 31.18 257.71 29.09
C 258.41 27.79 257.97 26.67 255.90 24.59
C 252.66 21.32 247.66 18.10 245.81 18.09
C 243.28 18.09 224.92 36.72 218.59 45.71
C 215.08 50.69 210.41 56.62 208.22 58.87
L 204.25 62.97
L 208.31 64.19
C 210.54 64.85 213.62 66.50 215.15 67.84
C 216.68 69.19 218.02 70.30 218.15 70.32
C 218.28 70.34 219.07 69.01 219.93 67.35
M 197.39 60.45
C 205.76 55.16 219.50 35.58 224.03 22.48
C 226.71 14.74 226.78 14.17 225.21 11.79
C 224.31 10.40 221.50 8.27 218.96 7.05
C 211.92 3.65 210.48 5.07 205.51 20.32
C 203.31 27.11 199.20 39.22 196.40 47.24
C 193.60 55.26 191.29 62.15 191.28 62.56
C 191.23 63.91 192.78 63.37 197.39 60.45"/>
<path fill="#000000" stroke="none" d="
M 148.89 107.62
C 146.72 105.44 145.95 103.73 145.95 101.01
C 145.95 95.90 150.40 91.46 155.52 91.46
C 160.63 91.46 165.08 95.90 165.08 101.01
C 165.08 103.73 164.31 105.44 162.14 107.62
C 158.07 111.67 152.96 111.67 148.89 107.62
M 160.92 104.44
C 162.83 101.04 161.77 97.13 158.52 95.65
C 153.02 93.16 150.99 94.82 156.03 97.69
C 159.30 99.56 159.96 102.51 157.53 104.52
C 155.50 106.21 155.62 107.76 157.75 107.36
C 158.70 107.17 160.13 105.86 160.92 104.44"/>
<path fill="#c57a36" stroke="none" d="
M 215.15 67.84
C 213.62 66.50 210.54 64.85 208.31 64.19
L 204.25 62.97
L 208.22 58.87
C 210.41 56.62 215.08 50.69 218.59 45.71
C 224.92 36.72 243.28 18.09 245.81 18.09
C 247.66 18.10 252.66 21.32 255.90 24.59
C 257.97 26.67 258.41 27.79 257.71 29.09
C 256.60 31.18 246.96 40.45 236.03 49.95
C 226.90 57.90 222.19 62.99 219.93 67.35
C 219.07 69.01 218.28 70.34 218.15 70.32
C 218.02 70.30 216.68 69.19 215.15 67.84"/>
<path fill="#c57a36" stroke="none" d="
M 191.28 62.56
C 191.29 62.15 193.60 55.26 196.40 47.24
C 199.20 39.22 203.26 27.26 205.41 20.65
C 207.57 14.05 209.98 8.00 210.77 7.22
C 211.56 6.42 213.38 5.78 214.82 5.78
C 218.32 5.78 225.29 10.49 226.00 13.32
C 226.80 16.59 221.12 31.27 216.23 38.53
C 208.68 49.74 201.97 57.56 197.39 60.45
C 192.78 63.37 191.23 63.91 191.28 62.56"/>
<path fill="#aa4422" stroke="none" d="
M 178.37 462.45
C 177.40 461.84 177.99 460.90 180.63 458.90
C 184.48 455.97 185.06 454.53 182.73 453.65
C 181.90 453.33 178.70 455.06 175.27 457.70
C 171.96 460.23 168.22 462.31 166.96 462.31
C 164.88 462.31 165.07 461.90 169.01 457.88
C 173.02 453.80 173.73 451.26 170.84 451.26
C 170.19 451.26 167.35 453.54 164.53 456.33
C 160.00 460.80 159.22 461.23 158.06 459.84
C 156.99 458.54 157.07 457.49 158.50 453.75
C 160.53 448.42 161.72 447.66 170.05 446.32
C 193.12 442.61 199.59 425.04 202.31 358.79
C 203.63 326.66 204.68 316.14 208.49 296.54
C 210.16 287.94 211.94 274.57 212.43 266.83
C 213.52 249.77 214.53 245.22 221.86 224.70
C 225.00 215.91 227.33 208.07 227.03 207.30
C 226.73 206.52 225.50 206.03 224.31 206.21
C 222.63 206.46 221.62 208.01 219.87 213.07
C 218.63 216.65 215.78 224.78 213.56 231.13
L 209.50 242.64
L 204.33 232.03
C 200.14 223.43 198.21 217.52 194.16 200.90
C 187.97 175.52 186.01 169.37 181.00 159.66
C 174.07 146.20 165.35 139.41 151.37 136.57
C 143.14 134.91 133.07 137.03 114.54 144.32
C 101.28 149.54 95.68 150.70 92.76 148.86
C 91.39 147.99 97.46 142.75 107.50 136.17
C 112.07 133.18 113.04 129.51 109.44 128.82
C 107.51 128.46 94.83 137.16 85.86 144.98
C 72.11 156.99 80.95 141.61 97.96 123.91
C 103.87 117.75 110.16 112.71 120.29 106.00
C 128.04 100.86 138.00 93.46 142.43 89.54
C 152.58 80.55 157.98 77.88 170.88 75.43
C 176.54 74.34 183.32 72.52 185.94 71.37
C 191.94 68.70 203.00 66.78 206.78 67.73
C 211.50 68.91 216.41 74.53 216.41 78.75
C 216.41 84.70 220.05 92.52 226.75 101.01
C 236.66 113.55 241.31 120.42 256.45 144.92
C 283.79 189.17 291.49 196.61 326.30 212.61
C 382.19 238.28 413.74 261.24 433.63 290.65
C 446.97 310.39 456.46 337.51 457.84 359.80
C 458.45 369.47 458.67 370.35 460.51 370.35
C 462.35 370.35 462.58 369.46 463.20 359.80
C 463.56 354.00 464.37 347.44 464.97 345.23
C 466.62 339.22 468.35 285.97 467.70 261.31
C 467.37 249.43 466.20 227.49 465.08 212.56
C 462.56 178.99 462.42 160.19 464.63 152.78
C 467.35 143.61 468.21 148.37 467.87 170.85
C 467.57 190.89 467.61 191.46 469.57 191.46
C 471.29 191.46 471.67 190.57 472.23 185.43
C 473.29 175.48 473.15 149.52 472.02 145.43
C 470.69 140.64 472.20 135.53 475.75 132.73
C 478.75 130.38 480.72 130.93 482.65 134.67
C 483.90 137.09 483.87 141.23 482.44 166.23
C 480.76 195.58 480.92 198.06 484.43 196.71
C 485.51 196.29 486.10 191.08 487.05 173.22
C 487.73 160.58 488.56 147.80 488.90 144.80
C 489.51 139.41 489.53 139.39 491.30 141.58
C 495.24 146.42 495.52 152.97 492.76 174.99
C 491.35 186.26 488.40 214.69 486.22 238.19
C 484.02 261.69 479.28 305.78 475.69 336.18
C 472.09 366.58 468.63 396.66 468.01 403.02
C 467.39 409.37 466.24 417.74 465.45 421.61
C 461.79 439.58 446.78 458.91 433.90 462.26
C 430.96 463.03 377.47 462.48 308.01 460.97
C 304.42 460.89 300.11 461.23 298.45 461.71
L 295.43 462.57
L 298.81 459.02
C 302.02 455.64 302.35 453.27 299.61 453.27
C 298.92 453.27 296.37 455.30 293.92 457.79
C 289.83 461.94 285.87 463.70 285.87 461.34
C 285.87 460.80 287.28 458.77 289.00 456.81
C 292.12 453.27 292.35 450.25 289.51 450.25
C 288.71 450.25 286.21 452.34 283.96 454.89
C 280.60 458.70 279.74 459.24 279.20 457.84
C 278.84 456.89 279.08 454.33 279.75 452.14
C 281.14 447.52 284.57 445.01 292.88 442.55
C 298.00 441.06 299.27 441.07 310.76 442.72
C 326.05 444.93 333.73 444.45 358.36 439.70
C 368.37 437.76 378.00 436.18 379.75 436.18
C 381.50 436.18 387.70 435.03 393.54 433.61
C 399.37 432.19 405.50 430.70 407.16 430.30
C 409.24 429.80 410.18 428.95 410.18 427.60
C 410.18 425.85 409.58 425.66 404.76 425.92
C 398.15 426.28 398.28 426.39 383.65 408.60
C 369.99 392.01 362.73 382.45 358.52 375.53
C 355.13 369.94 349.10 355.52 349.01 352.76
C 348.98 351.94 350.17 345.16 351.66 337.69
C 353.67 327.54 355.38 322.02 358.44 315.76
C 362.67 307.13 362.89 304.52 359.40 304.52
C 355.95 304.52 349.81 318.55 347.29 332.16
C 346.68 335.48 345.70 340.35 345.11 342.98
L 344.04 347.78
L 340.33 344.43
C 328.78 334.02 318.26 329.02 289.16 320.09
C 273.66 315.33 265.74 312.18 265.74 310.78
C 265.74 310.29 267.57 305.68 269.81 300.52
C 274.07 290.71 274.25 288.09 270.62 288.62
C 268.90 288.87 267.42 291.35 263.51 300.50
C 260.79 306.85 257.29 313.42 255.72 315.08
C 252.51 318.46 249.50 324.10 246.08 333.10
C 244.80 336.45 240.79 345.42 237.18 353.01
C 224.97 378.63 222.43 387.21 218.39 416.58
C 216.23 432.16 213.36 445.44 211.13 450.08
C 210.29 451.84 208.11 453.45 204.80 454.77
C 202.02 455.88 197.46 458.25 194.65 460.05
C 190.67 462.61 188.50 463.32 184.62 463.30
C 181.90 463.30 179.08 462.91 178.37 462.45
M 162.14 107.62
C 164.31 105.44 165.08 103.73 165.08 101.01
C 165.08 95.90 160.63 91.46 155.52 91.46
C 150.40 91.46 145.95 95.90 145.95 101.01
C 145.95 103.73 146.72 105.44 148.89 107.62
C 152.96 111.67 158.07 111.67 162.14 107.62"/>
<path fill="#eb2e00" stroke="none" d="
M 156.02 106.73
C 156.02 106.20 156.70 105.21 157.53 104.52
C 159.95 102.51 159.28 99.62 155.94 97.59
C 152.14 95.28 153.78 93.72 158.10 95.51
C 161.75 97.02 162.96 100.83 160.92 104.44
C 159.49 106.97 156.02 108.60 156.02 106.73"/>
<path fill="#fcbc96" stroke="none" d="
M 278.84 592.95
C 202.50 586.58 132.11 562.06 70.96 520.51
C 49.56 505.98 14.56 477.19 15.77 475.13
C 16.38 474.11 599.18 474.16 598.74 475.18
C 598.03 476.89 581.65 491.36 569.27 501.21
C 506.31 551.29 431.85 581.98 350.29 591.48
C 334.16 593.36 293.72 594.19 278.84 592.95"/>
</g>
</svg>
