<?xml version="1.0" encoding="UTF-8" standalone="no"?>
<!DOCTYPE svg PUBLIC "-//W3C//DTD SVG 1.1//EN"
"http://www.w3.org/Graphics/SVG/1.1/DTD/svg11.dtd">
<svg width="600px" height="243px"
xmlns="http://www.w3.org/2000/svg" version="1.1">
<g transform="translate(0000, 0000) scale(1.0000, 1.0000)">
<path fill="#000000" stroke="none" d="
M 11.21 240.03
C 5.48 237.41 5.02 236.85 2.58 229.62
C -0.81 219.61 -0.71 215.44 3.00 211.02
C 8.30 204.73 15.75 202.02 27.96 201.96
C 37.25 201.92 40.30 202.46 50.60 206.07
C 61.76 209.98 63.35 210.23 76.19 210.04
C 91.33 209.83 125.13 206.91 143.24 204.25
C 160.88 201.67 170.20 196.87 176.33 187.19
C 178.21 184.22 179.76 181.37 179.76 180.87
C 179.76 180.37 177.33 176.97 174.36 173.33
C 167.46 164.85 166.67 162.62 166.64 151.49
C 166.62 140.93 164.70 126.21 163.15 124.66
C 162.54 124.04 157.83 127.00 151.85 131.78
C 131.37 148.12 126.10 150.14 116.52 145.25
C 112.79 143.33 111.10 141.40 108.96 136.57
C 106.38 130.74 105.83 130.26 100.23 128.83
C 93.30 127.04 84.68 121.93 78.18 115.72
C 73.58 111.35 69.05 103.97 69.05 100.86
C 69.05 99.05 87.51 71.07 105.74 45.26
C 119.55 25.72 139.54 2.94 144.36 1.26
C 148.21 -0.08 152.52 1.50 156.27 5.66
C 158.37 7.97 158.44 7.96 163.92 5.18
C 166.96 3.65 170.33 2.38 171.42 2.38
C 175.51 2.38 184.71 6.33 187.83 9.41
C 190.23 11.78 193.24 13.01 199.39 14.14
C 216.17 17.19 220.96 21.06 266.08 67.93
C 284.39 86.96 291.63 92.08 307.14 96.99
C 320.30 101.15 329.75 101.85 342.10 99.52
C 355.42 97.03 377.94 90.30 406.55 80.29
L 429.17 72.36
L 435.33 59.70
C 446.86 36.07 458.15 24.53 475.27 18.92
C 487.90 14.78 508.11 15.04 523.14 19.56
C 537.38 23.84 565.56 37.77 574.40 44.93
C 589.17 56.88 594.07 73.08 584.44 78.07
C 575.27 82.81 565.49 78.39 547.90 61.62
C 538.40 52.54 532.80 48.21 527.25 45.60
C 514.76 39.74 507.15 37.65 498.12 37.62
C 491.02 37.59 488.50 38.18 482.05 41.37
C 475.31 44.69 461.77 56.33 463.17 57.59
C 463.45 57.86 467.71 57.36 472.62 56.49
C 493.49 52.76 511.89 56.00 534.52 67.36
C 565.40 82.86 590.36 110.35 598.26 137.57
C 599.95 143.37 600.19 147.92 599.68 164.30
C 598.75 194.32 593.26 211.10 579.55 225.76
C 565.12 241.20 549.83 245.16 517.26 241.88
C 511.37 241.28 482.38 240.14 452.83 239.33
L 399.12 237.87
L 391.18 240.67
L 383.24 243.48
L 374.30 239.05
L 365.35 234.61
L 357.86 238.81
C 349.31 243.60 345.87 243.91 336.69 240.75
C 322.58 235.89 319.07 232.58 321.30 226.19
C 322.32 223.24 322.14 222.27 320.19 220.32
C 317.56 217.69 317.27 215.35 319.14 211.85
C 321.07 208.24 319.95 208.12 314.17 211.30
C 305.74 215.92 287.11 222.40 276.36 224.44
C 270.88 225.48 261.64 226.32 255.82 226.32
C 246.32 226.32 245.24 226.55 245.24 228.53
C 245.24 234.34 242.68 238.10 237.35 240.14
C 232.46 242.01 227.39 242.11 177.62 241.28
C 147.69 240.78 109.39 240.20 92.50 239.97
L 61.79 239.57
L 57.63 235.92
C 52.43 231.35 50.75 231.35 47.36 235.97
C 43.12 241.73 39.49 243.01 27.74 242.90
C 19.44 242.82 16.00 242.23 11.21 240.03
M 27.80 229.12
C 31.19 225.13 34.87 223.99 36.37 226.43
C 36.81 227.13 35.40 229.54 33.25 231.77
C 26.01 239.25 32.36 238.63 41.17 231.00
C 49.56 223.74 53.86 223.50 61.18 229.94
L 65.06 233.35
L 122.71 234.30
C 213.18 235.81 234.07 235.63 236.32 233.38
C 237.36 232.34 239.76 224.89 241.67 216.82
C 243.57 208.74 245.65 201.61 246.30 200.96
C 246.93 200.33 248.37 200.15 249.49 200.58
C 251.57 201.38 251.55 202.62 249.24 216.09
L 248.44 220.74
L 262.01 220.03
C 277.99 219.19 282.68 217.89 306.95 207.62
C 334.45 195.98 363.63 188.09 392.11 184.56
C 403.67 183.13 437.07 183.64 444.43 185.35
L 447.79 186.13
L 444.13 180.19
C 428.77 155.21 420.94 124.13 423.76 99.38
C 424.43 93.53 425.51 86.90 426.15 84.66
C 426.81 82.41 427.19 80.40 427.00 80.23
C 426.81 80.04 413.02 84.39 396.37 89.91
C 358.23 102.54 344.88 106.06 332.11 106.87
C 315.26 107.93 295.93 101.82 281.52 90.90
C 278.24 88.40 267.35 77.52 257.32 66.71
C 234.45 42.05 227.58 35.52 217.79 29.11
C 210.95 24.63 197.76 19.06 194.02 19.06
C 193.17 19.06 192.99 21.33 193.49 25.91
C 194.65 36.49 190.79 56.68 187.36 57.99
C 183.79 59.37 183.11 56.55 185.26 49.29
C 186.54 44.98 187.36 38.17 187.39 31.57
C 187.45 19.34 185.56 14.32 179.80 11.34
C 172.35 7.48 165.60 9.98 157.79 19.52
C 155.31 22.55 152.52 25.01 151.61 25.01
C 149.23 25.01 148.39 22.06 149.95 19.15
C 150.68 17.80 151.12 16.68 150.94 16.69
C 150.75 16.70 147.99 17.49 144.81 18.46
C 137.08 20.81 132.74 23.66 125.39 31.20
C 119.10 37.66 75.05 99.57 75.01 102.00
C 74.99 103.94 86.67 116.39 91.07 119.12
C 93.13 120.39 97.61 122.04 101.02 122.76
C 108.54 124.38 109.27 123.99 122.73 111.12
C 128.86 105.28 132.73 102.41 133.90 102.86
C 137.40 104.20 135.62 107.09 125.30 116.74
C 119.57 122.10 114.46 127.22 113.95 128.11
C 112.45 130.76 116.15 137.84 120.08 139.88
C 126.40 143.16 122.13 145.72 164.23 113.42
C 174.70 105.38 183.89 97.68 184.63 96.29
C 185.49 94.69 185.69 90.92 185.20 85.90
C 183.73 70.68 183.71 70.88 186.31 70.88
C 189.26 70.88 191.05 75.96 192.15 87.60
C 192.87 95.13 192.67 96.41 190.23 100.03
C 187.74 103.74 182.24 108.66 171.49 116.81
C 167.61 119.75 167.52 120.00 168.92 123.95
C 169.73 126.21 170.82 135.14 171.38 143.80
C 172.19 156.46 172.87 160.33 174.85 163.54
C 177.38 167.63 181.89 172.29 182.50 171.42
C 182.69 171.15 184.06 166.65 185.54 161.40
C 189.54 147.32 193.42 139.37 196.30 139.37
C 199.93 139.37 200.31 141.23 197.73 146.31
C 196.42 148.86 193.70 157.52 191.68 165.55
C 187.10 183.67 182.89 192.20 175.01 199.28
C 167.31 206.22 159.05 209.30 144.36 210.74
C 137.96 211.36 121.76 213.03 108.33 214.45
C 78.70 217.57 71.36 217.21 47.67 211.49
C 30.36 207.31 28.83 207.13 22.08 208.47
C 13.52 210.15 8.86 212.39 7.12 215.64
C 4.69 220.18 7.29 220.40 12.52 216.12
C 17.81 211.78 21.70 211.14 22.35 214.48
C 22.56 215.59 21.06 217.09 18.55 218.29
C 13.75 220.58 10.70 224.69 10.36 229.35
C 9.99 234.40 12.50 234.08 14.57 228.79
C 16.35 224.26 22.35 219.19 25.93 219.18
C 28.99 219.18 28.95 222.94 25.88 225.55
C 21.96 228.85 19.85 233.13 20.86 235.65
C 21.58 237.45 21.80 237.43 23.04 235.38
C 23.79 234.13 25.93 231.31 27.80 229.12
M 354.76 232.88
C 358.32 230.58 362.27 228.71 363.56 228.71
C 364.83 228.71 369.52 230.39 373.96 232.43
L 382.06 236.16
L 389.79 234.22
C 398.68 231.98 419.45 231.77 467.26 233.40
C 483.63 233.96 497.14 234.32 497.29 234.17
C 497.44 234.04 493.95 231.56 489.56 228.67
C 485.17 225.79 477.43 219.46 472.37 214.63
L 463.17 205.82
L 451.63 207.80
C 418.17 213.51 377.54 212.97 349.17 206.44
C 341.00 204.57 340.35 204.58 335.73 206.67
C 329.89 209.30 324.58 213.97 325.60 215.59
C 326.02 216.29 328.75 215.54 332.32 213.72
C 337.89 210.90 341.67 210.58 341.67 212.93
C 341.67 213.48 338.96 215.98 335.67 218.50
C 329.21 223.42 326.79 226.76 328.10 228.90
C 328.62 229.74 329.52 229.08 330.55 227.13
C 332.87 222.70 342.68 216.14 344.40 217.87
C 345.39 218.85 344.29 220.55 340.13 224.36
C 337.05 227.19 334.52 230.11 334.52 230.83
C 334.52 234.22 337.57 233.24 342.56 228.25
C 348.58 222.21 351.92 220.61 353.99 222.70
C 355.02 223.75 354.44 224.87 351.61 227.29
C 347.54 230.77 344.88 235.09 346.07 236.29
C 347.30 237.52 347.99 237.25 354.76 232.88
M 553.65 235.13
C 571.71 229.78 583.89 215.79 590.56 192.77
C 592.49 186.12 593.24 179.44 593.73 164.80
C 594.29 147.55 594.10 144.72 591.86 137.40
C 588.06 124.99 579.64 111.78 567.61 99.33
C 550.67 81.81 530.96 69.76 510.12 64.18
C 496.44 60.51 477.50 60.50 465.68 64.14
C 457.06 66.80 456.92 66.91 454.06 73.16
C 450.40 81.15 448.39 96.63 449.39 109.05
L 450.18 118.63
L 455.17 113.64
C 463.58 105.22 475.45 103.91 488.49 109.98
C 496.79 113.85 504.23 120.46 503.23 123.07
C 502.00 126.25 497.80 125.42 492.61 120.96
C 487.52 116.60 479.13 113.16 473.62 113.16
C 468.48 113.16 460.92 116.66 458.54 120.14
C 455.24 124.95 453.45 134.66 454.89 139.89
C 456.95 147.35 463.94 162.77 468.55 170.00
C 480.52 188.83 499.07 202.42 520.24 207.91
C 529.49 210.30 540.08 209.72 554.05 206.04
C 563.60 203.52 566.54 203.97 565.11 207.71
C 563.80 211.12 540.18 216.09 528.76 215.34
C 513.80 214.35 488.58 202.30 474.75 189.50
C 455.33 171.54 446.44 150.66 443.95 117.15
C 442.10 92.15 443.57 81.23 450.74 66.74
C 459.38 49.27 470.77 38.40 485.81 33.31
C 495.76 29.92 504.42 30.66 520.56 36.27
C 532.01 40.25 532.71 40.35 534.87 38.40
C 540.13 33.64 539.87 32.28 533.10 29.30
C 522.06 24.44 511.00 22.20 497.62 22.12
C 475.60 21.98 462.01 28.53 450.80 44.70
C 423.99 83.38 422.12 127.11 445.40 170.34
C 462.58 202.23 493.51 229.89 517.86 235.14
C 528.73 237.48 545.73 237.47 553.65 235.13
M 442.75 203.00
C 458.75 200.62 460.05 199.94 454.70 196.69
C 446.88 191.92 434.52 190.02 411.90 190.06
C 393.90 190.10 389.05 190.54 376.19 193.30
C 368.00 195.07 359.17 197.13 356.55 197.89
L 351.79 199.27
L 355.36 200.78
C 357.32 201.61 364.01 202.88 370.24 203.61
C 376.46 204.33 383.15 205.14 385.12 205.41
C 392.42 206.40 430.64 204.80 442.75 203.00
M 147.20 11.83
C 150.88 10.45 151.61 8.65 149.02 7.27
C 147.20 6.29 146.05 6.85 142.74 10.32
C 138.42 14.85 138.77 14.98 147.20 11.83"/>
<path fill="#000000" stroke="none" d="
M 83.38 105.48
C 80.71 102.25 85.86 94.10 90.56 94.10
C 95.75 94.10 96.20 100.33 91.35 104.86
C 88.37 107.63 85.37 107.87 83.38 105.48"/>
<path fill="#000000" stroke="none" d="
M 114.29 71.47
C 112.77 69.96 111.90 67.50 111.90 64.75
C 111.90 61.14 112.89 59.43 117.69 54.63
C 122.49 49.83 124.20 48.84 127.81 48.84
C 133.67 48.84 136.90 52.20 136.90 58.27
C 136.90 69.18 121.17 78.36 114.29 71.47
M 133.08 57.30
C 132.58 53.13 129.51 51.60 125.39 53.48
L 122.02 55.01
L 125.29 56.72
C 127.07 57.66 128.89 59.84 129.33 61.56
C 130.08 64.56 130.19 64.60 131.77 62.43
C 132.69 61.18 133.27 58.87 133.08 57.30"/>
<path fill="#f1b053" stroke="none" d="
M 20.86 235.65
C 19.85 233.13 21.96 228.85 25.88 225.55
C 28.95 222.94 28.99 219.18 25.93 219.18
C 22.35 219.19 16.35 224.26 14.57 228.79
C 12.50 234.08 9.99 234.40 10.36 229.35
C 10.70 224.69 13.75 220.58 18.55 218.29
C 21.06 217.09 22.56 215.59 22.35 214.48
C 21.70 211.14 17.81 211.78 12.52 216.12
C 7.29 220.40 4.69 220.18 7.12 215.64
C 8.86 212.39 13.52 210.15 22.08 208.47
C 28.83 207.13 30.36 207.31 47.67 211.49
C 71.36 217.21 78.70 217.57 108.33 214.45
C 121.76 213.03 137.96 211.36 144.36 210.74
C 159.05 209.30 167.31 206.22 175.01 199.28
C 182.89 192.20 187.10 183.67 191.68 165.55
C 193.70 157.52 196.42 148.86 197.73 146.31
C 200.31 141.23 199.93 139.37 196.30 139.37
C 193.42 139.37 189.54 147.32 185.54 161.40
C 184.06 166.65 182.69 171.15 182.50 171.42
C 181.89 172.29 177.38 167.63 174.85 163.54
C 172.87 160.33 172.19 156.46 171.38 143.80
C 170.82 135.14 169.73 126.21 168.92 123.95
C 167.52 120.00 167.61 119.75 171.49 116.81
C 182.24 108.66 187.74 103.74 190.23 100.03
C 192.67 96.41 192.87 95.13 192.15 87.60
C 191.05 75.96 189.26 70.88 186.31 70.88
C 183.71 70.88 183.73 70.68 185.20 85.90
C 185.69 90.92 185.49 94.69 184.63 96.29
C 183.45 98.49 172.18 107.47 136.17 134.90
C 131.21 138.66 126.39 141.75 125.43 141.75
C 119.48 141.75 111.56 132.34 113.95 128.11
C 114.46 127.22 119.57 122.10 125.30 116.74
C 135.62 107.09 137.40 104.20 133.90 102.86
C 132.73 102.41 128.86 105.28 122.73 111.12
C 109.27 123.99 108.54 124.38 101.02 122.76
C 97.61 122.04 93.13 120.39 91.07 119.12
C 86.67 116.39 74.99 103.94 75.01 102.00
C 75.05 99.57 119.10 37.66 125.39 31.20
C 132.74 23.66 137.08 20.81 144.81 18.46
C 147.99 17.49 150.75 16.70 150.94 16.69
C 151.12 16.68 150.68 17.80 149.95 19.15
C 148.39 22.06 149.23 25.01 151.61 25.01
C 152.52 25.01 155.31 22.55 157.79 19.52
C 165.60 9.98 172.35 7.48 179.80 11.34
C 185.56 14.32 187.45 19.34 187.39 31.57
C 187.36 38.17 186.54 44.98 185.26 49.29
C 183.11 56.55 183.79 59.37 187.36 57.99
C 190.79 56.68 194.65 36.49 193.49 25.91
C 192.99 21.33 193.17 19.06 194.02 19.06
C 197.76 19.06 210.95 24.63 217.79 29.11
C 227.58 35.52 234.45 42.05 257.32 66.71
C 267.35 77.52 278.24 88.40 281.52 90.90
C 295.93 101.82 315.26 107.93 332.11 106.87
C 344.88 106.06 358.23 102.54 396.37 89.91
C 413.02 84.39 426.81 80.04 427.00 80.23
C 427.19 80.40 426.81 82.41 426.15 84.66
C 425.51 86.90 424.43 93.53 423.76 99.38
C 420.94 124.13 428.77 155.21 444.13 180.19
L 447.79 186.13
L 444.43 185.35
C 437.07 183.64 403.67 183.13 392.11 184.56
C 363.63 188.09 334.45 195.98 306.95 207.62
C 282.68 217.89 277.99 219.19 262.01 220.03
L 248.44 220.74
L 249.24 216.09
C 251.55 202.62 251.57 201.38 249.49 200.58
C 248.37 200.15 246.93 200.33 246.30 200.96
C 245.65 201.61 243.57 208.74 241.67 216.82
C 239.76 224.89 237.36 232.34 236.32 233.38
C 234.07 235.63 213.18 235.81 122.71 234.30
L 65.06 233.35
L 61.18 229.94
C 53.86 223.50 49.56 223.74 41.17 231.00
C 32.36 238.63 26.01 239.25 33.25 231.77
C 37.25 227.63 37.30 225.13 33.38 225.13
C 31.33 225.13 26.08 230.31 23.04 235.38
C 21.80 237.43 21.58 237.45 20.86 235.65
M 91.35 104.86
C 96.20 100.33 95.75 94.10 90.56 94.10
C 85.86 94.10 80.71 102.25 83.38 105.48
C 85.37 107.87 88.37 107.63 91.35 104.86
M 127.30 72.11
C 139.90 65.59 140.27 48.84 127.81 48.84
C 124.20 48.84 122.49 49.83 117.69 54.63
C 112.89 59.43 111.90 61.14 111.90 64.75
C 111.90 72.73 119.27 76.26 127.30 72.11"/>
<path fill="#f1b053" stroke="none" d="
M 346.07 236.29
C 344.88 235.09 347.54 230.77 351.61 227.29
C 354.44 224.87 355.02 223.75 353.99 222.70
C 351.92 220.61 348.58 222.21 342.56 228.25
C 337.57 233.24 334.52 234.22 334.52 230.83
C 334.52 230.11 337.05 227.19 340.13 224.36
C 344.29 220.55 345.39 218.85 344.40 217.87
C 342.68 216.14 332.87 222.70 330.55 227.13
C 329.52 229.08 328.62 229.74 328.10 228.90
C 326.79 226.76 329.21 223.42 335.67 218.50
C 338.96 215.98 341.67 213.48 341.67 212.93
C 341.67 210.58 337.89 210.90 332.32 213.72
C 328.75 215.54 326.02 216.29 325.60 215.59
C 324.58 213.97 329.89 209.30 335.73 206.67
C 340.35 204.58 341.00 204.57 349.17 206.44
C 377.54 212.97 418.17 213.51 451.63 207.80
L 463.17 205.82
L 472.37 214.63
C 477.43 219.46 485.17 225.79 489.56 228.67
C 493.95 231.56 497.44 234.04 497.29 234.17
C 497.14 234.32 483.63 233.96 467.26 233.40
C 419.45 231.77 398.68 231.98 389.79 234.22
L 382.06 236.16
L 373.96 232.43
C 369.52 230.39 364.83 228.71 363.56 228.71
C 362.27 228.71 358.32 230.58 354.76 232.88
C 347.99 237.25 347.30 237.52 346.07 236.29"/>
<path fill="#f1b053" stroke="none" d="
M 517.86 235.14
C 493.51 229.89 462.58 202.23 445.40 170.34
C 422.12 127.11 423.99 83.38 450.80 44.70
C 462.01 28.53 475.60 21.98 497.62 22.12
C 511.00 22.20 522.06 24.44 533.10 29.30
C 539.87 32.28 540.13 33.64 534.87 38.40
C 532.71 40.35 532.01 40.25 520.56 36.27
C 504.42 30.66 495.76 29.92 485.81 33.31
C 470.77 38.40 459.38 49.27 450.74 66.74
C 443.57 81.23 442.10 92.15 443.95 117.15
C 446.44 150.66 455.33 171.54 474.75 189.50
C 488.58 202.30 513.80 214.35 528.76 215.34
C 540.18 216.09 563.80 211.12 565.11 207.71
C 566.54 203.97 563.60 203.52 554.05 206.04
C 540.08 209.72 529.49 210.30 520.24 207.91
C 499.07 202.42 480.52 188.83 468.55 170.00
C 463.94 162.77 456.95 147.35 454.89 139.89
C 453.45 134.66 455.24 124.95 458.54 120.14
C 460.92 116.66 468.48 113.16 473.62 113.16
C 479.13 113.16 487.52 116.60 492.61 120.96
C 497.80 125.42 502.00 126.25 503.23 123.07
C 504.23 120.46 496.79 113.85 488.49 109.98
C 475.45 103.91 463.58 105.22 455.17 113.64
L 450.18 118.63
L 449.39 109.05
C 448.39 96.63 450.40 81.15 454.06 73.16
C 456.92 66.91 457.06 66.80 465.68 64.14
C 472.61 62.01 477.11 61.48 487.50 61.55
C 503.10 61.64 514.79 64.41 529.55 71.47
C 558.39 85.26 584.29 112.66 591.86 137.40
C 594.10 144.72 594.29 147.55 593.73 164.80
C 593.24 179.44 592.49 186.12 590.56 192.77
C 583.89 215.79 571.71 229.78 553.65 235.13
C 545.73 237.47 528.73 237.48 517.86 235.14"/>
<path fill="#f1b053" stroke="none" d="
M 142.24 10.82
C 144.21 8.71 146.73 7.21 147.94 7.40
C 152.75 8.17 149.51 11.42 141.67 13.71
C 138.70 14.57 138.70 14.56 142.24 10.82"/>
<path fill="#eb2e00" stroke="none" d="
M 129.33 61.56
C 128.89 59.84 127.07 57.65 125.29 56.71
L 122.02 54.98
L 125.60 53.60
C 127.87 52.73 129.82 52.63 130.95 53.33
C 133.37 54.83 133.81 59.64 131.77 62.43
C 130.19 64.60 130.08 64.56 129.33 61.56"/>
</g>
</svg>
