<?xml version="1.0" encoding="UTF-8" standalone="no"?>
<!DOCTYPE svg PUBLIC "-//W3C//DTD SVG 1.1//EN"
"http://www.w3.org/Graphics/SVG/1.1/DTD/svg11.dtd">
<svg width="600px" height="235px"
xmlns="http://www.w3.org/2000/svg" version="1.1">
<g transform="translate(0000, 0000) scale(1.0000, 1.0000)">
<path fill="#000000" stroke="none" d="
M 73.03 233.36
C 65.11 230.38 61.32 225.31 61.32 217.65
C 61.32 208.58 65.86 204.22 76.63 202.94
C 79.78 202.57 83.81 201.71 85.59 201.05
C 91.70 198.74 97.91 186.89 107.60 159.08
C 111.40 148.13 116.89 134.55 119.78 128.89
C 122.68 123.21 125.05 118.13 125.05 117.58
C 125.05 117.04 123.62 113.41 121.88 109.51
C 118.77 102.57 118.56 102.39 111.25 100.12
C 107.15 98.86 100.48 97.16 96.46 96.36
C 85.91 94.29 81.27 96.82 68.62 111.52
C 53.63 128.96 43.09 132.94 34.97 124.24
C 32.78 121.89 30.19 120.68 26.15 120.14
C 10.38 117.98 0.08 106.42 0.02 90.82
C -0.02 76.96 5.82 63.56 20.01 44.94
L 26.63 36.26
L 25.13 27.30
C 23.22 15.92 24.95 10.22 31.37 6.74
C 36.38 4.03 40.28 4.66 45.47 9.04
L 49.06 12.06
L 51.57 7.77
C 54.22 3.29 60.14 0.00 65.58 0.00
C 69.58 0.00 75.54 5.86 76.51 10.75
C 76.92 12.77 77.70 14.15 78.24 13.80
C 78.79 13.46 89.15 11.00 101.24 8.34
C 137.82 0.29 147.39 0.61 191.42 11.40
C 235.13 22.10 245.17 23.03 328.26 24.03
L 396.19 24.84
L 405.81 28.07
C 417.93 32.12 431.12 40.59 443.10 51.99
C 448.23 56.87 465.75 76.85 482.02 96.41
C 531.31 155.59 540.28 165.08 553.26 171.77
C 563.62 177.11 568.51 177.70 578.84 174.85
C 590.30 171.71 594.54 171.68 597.60 174.74
C 600.79 177.95 600.63 181.05 597.02 185.34
C 591.85 191.49 583.00 194.56 570.54 194.47
C 552.51 194.36 538.22 187.84 523.65 173.08
C 519.64 169.02 504.24 150.79 489.41 132.56
C 456.17 91.69 442.81 76.18 437.15 71.84
C 432.78 68.51 432.77 68.51 433.36 71.31
C 433.68 72.85 434.81 78.66 435.88 84.21
C 440.86 110.28 452.38 128.86 469.54 138.55
C 480.54 144.76 486.82 149.28 488.92 152.51
C 491.03 155.71 497.05 183.77 498.42 196.73
C 500.97 220.88 493.49 230.61 471.16 232.19
C 451.48 233.59 442.50 228.31 442.48 215.36
C 442.48 207.44 446.15 203.67 453.85 203.67
C 463.66 203.67 466.03 198.52 462.20 185.51
C 459.70 176.96 457.97 175.14 447.90 170.47
C 440.93 167.24 407.36 154.26 405.98 154.26
C 405.75 154.26 405.25 159.00 404.86 164.80
C 404.46 170.65 402.78 179.91 401.07 185.59
C 399.38 191.23 396.61 200.71 394.93 206.68
C 387.86 231.76 386.31 233.24 367.33 233.11
C 357.81 233.05 353.87 232.47 348.36 230.30
C 340.24 227.11 337.73 223.90 336.95 215.74
C 336.46 210.63 336.78 209.46 339.47 206.76
C 342.18 204.06 343.60 203.67 350.44 203.67
C 359.71 203.67 363.13 201.32 363.13 194.93
C 363.13 192.77 363.99 186.25 365.06 180.44
C 366.13 174.56 366.65 168.02 366.20 165.67
C 365.77 163.37 362.57 157.27 359.09 152.14
C 355.60 147.01 350.77 139.83 348.35 136.18
C 345.93 132.53 343.26 128.58 342.41 127.39
C 340.95 125.32 339.92 125.39 319.84 128.98
C 285.44 135.14 238.83 135.18 206.21 129.07
C 203.24 128.51 200.80 128.29 200.80 128.56
C 200.80 129.37 212.54 179.15 215.39 190.41
C 221.39 214.18 221.35 217.79 215.03 223.99
C 209.99 228.93 202.28 231.46 189.91 232.24
C 176.39 233.11 167.71 230.72 162.46 224.72
C 157.43 218.98 157.36 213.28 162.23 208.39
C 165.25 205.38 166.67 204.87 172.22 204.87
C 175.78 204.87 179.70 204.14 180.91 203.24
C 183.01 201.71 182.71 200.83 175.53 187.28
C 171.34 179.40 164.91 168.98 161.22 164.14
L 154.51 155.35
L 150.01 160.52
C 142.58 169.09 133.05 184.06 124.29 200.91
C 114.34 220.07 109.21 226.52 100.61 230.73
C 92.60 234.66 79.77 235.88 73.03 233.36
M 91.31 227.07
C 101.52 224.03 107.81 217.15 117.43 198.48
C 126.48 180.89 136.46 165.09 144.08 156.29
C 146.84 153.10 149.10 150.12 149.10 149.66
C 149.10 147.81 130.69 125.42 129.68 126.04
C 127.37 127.48 120.14 143.78 114.20 160.98
C 101.15 198.79 94.52 208.49 81.76 208.49
C 76.95 208.49 69.91 211.48 68.97 213.91
C 67.77 217.06 69.16 217.18 74.87 214.39
C 80.28 211.75 84.82 211.96 83.87 214.80
C 83.60 215.61 80.56 217.97 77.13 220.04
C 72.10 223.08 71.19 224.07 72.53 225.18
C 73.82 226.25 74.69 225.99 76.47 224.02
C 79.53 220.63 85.19 217.80 87.28 218.61
C 90.22 219.73 89.13 222.66 84.77 225.36
C 82.46 226.79 80.56 228.19 80.56 228.47
C 80.56 229.50 85.14 228.91 91.31 227.07
M 379.67 224.55
C 383.35 221.80 383.59 221.19 391.21 195.83
C 397.86 173.68 399.79 163.56 398.71 156.58
C 397.86 151.26 397.84 151.23 387.38 146.23
C 380.37 142.88 373.96 138.58 368.06 133.28
C 361.59 127.47 358.30 125.33 355.83 125.33
C 353.98 125.33 352.10 125.89 351.68 126.57
C 351.26 127.25 354.75 133.14 359.42 139.66
C 373.73 159.62 375.28 165.66 371.22 185.59
C 370.06 191.23 368.83 197.89 368.46 200.42
C 367.41 207.75 364.56 209.69 354.79 209.69
C 348.83 209.69 345.93 210.23 344.57 211.58
C 340.29 215.87 343.03 217.48 350.37 214.97
C 359.78 211.75 363.04 215.08 354.66 219.36
C 352.00 220.72 350.14 222.36 350.53 223.00
C 351.85 225.13 355.54 224.18 360.12 220.54
C 362.62 218.55 365.69 216.92 366.94 216.92
C 369.58 216.92 371.53 220.74 369.27 221.50
C 368.45 221.77 366.32 223.32 364.55 224.95
L 361.32 227.90
L 368.85 227.46
C 374.03 227.15 377.41 226.24 379.67 224.55
M 203.99 222.80
C 207.05 221.21 210.65 218.48 211.96 216.72
L 214.35 213.50
L 210.07 196.23
C 207.72 186.73 203.03 167.24 199.64 152.91
C 193.89 128.61 193.18 126.53 189.21 122.18
C 184.40 116.90 179.18 106.82 179.17 102.74
C 179.16 100.69 179.86 100.03 182.00 100.03
C 184.27 100.03 185.27 101.13 186.93 105.50
C 191.56 117.64 198.37 121.57 220.69 124.94
C 231.78 126.61 242.09 127.09 265.73 127.06
C 294.29 127.01 297.55 126.77 313.23 123.66
C 322.48 121.81 335.58 120.01 342.31 119.63
L 354.58 118.97
L 351.68 115.17
C 344.36 105.55 339.72 88.66 340.51 74.57
C 340.83 69.02 341.23 68.09 343.29 68.09
C 345.46 68.09 345.78 69.19 346.56 79.42
C 347.04 85.65 348.25 93.58 349.25 97.04
C 351.39 104.39 359.04 116.39 363.93 120.05
C 365.80 121.45 370.74 125.66 374.90 129.39
C 383.57 137.17 397.42 144.23 418.44 151.58
C 439.56 158.97 454.61 165.15 459.90 168.63
C 466.05 172.69 468.99 180.23 469.83 194.17
C 470.40 203.62 470.22 204.79 467.89 207.13
C 465.96 209.07 463.85 209.69 459.32 209.69
C 453.05 209.69 448.50 212.49 448.50 216.33
C 448.50 217.94 449.06 217.91 453.01 216.15
C 463.01 211.72 468.04 214.89 458.61 219.68
C 455.42 221.31 453.51 222.94 454.24 223.39
C 454.97 223.84 458.51 222.76 462.11 220.98
C 468.28 217.95 472.55 217.74 472.55 220.47
C 472.55 221.14 470.79 222.64 468.64 223.80
L 464.73 225.93
L 468.05 226.32
C 473.18 226.95 483.85 223.35 487.38 219.79
C 494.03 213.14 494.21 206.22 488.51 176.62
C 484.67 156.57 483.86 155.37 467.86 145.95
C 445.29 132.68 433.39 112.88 428.57 80.57
C 426.30 65.34 424.55 61.10 417.62 54.03
C 414.00 50.33 412.35 47.74 412.82 46.49
C 414.13 43.06 417.01 44.47 426.73 53.33
C 432.02 58.14 438.79 63.97 441.80 66.28
C 447.82 70.93 464.46 90.26 501.05 135.08
C 514.35 151.38 528.66 167.81 532.85 171.61
C 546.55 184.05 565.21 190.96 577.05 188.01
C 583.86 186.31 593.39 180.89 592.00 179.50
C 591.44 178.94 586.92 179.58 581.96 180.91
C 569.88 184.17 561.41 183.32 549.56 177.68
C 537.15 171.78 523.31 157.50 481.92 107.86
C 438.02 55.21 429.72 47.04 410.34 37.43
C 397.26 30.96 398.13 31.03 326.45 30.09
C 241.58 28.97 229.78 27.83 184.45 16.39
C 165.15 11.52 147.57 8.45 138.95 8.44
C 132.43 8.44 94.34 15.93 84.77 19.10
L 78.76 21.09
L 78.16 30.73
C 77.62 39.37 77.30 40.37 75.15 40.37
C 72.93 40.37 72.70 39.35 72.08 26.51
C 71.40 12.10 70.16 7.91 66.19 6.65
C 62.75 5.56 57.08 8.98 55.33 13.20
C 54.51 15.21 53.48 21.07 53.06 26.21
C 52.39 34.49 52.03 35.55 49.90 35.55
C 48.32 35.55 47.36 34.62 47.11 32.84
C 46.62 29.33 45.81 29.42 40.16 33.56
C 33.61 38.36 26.07 47.17 19.01 58.26
C 9.34 73.45 6.69 80.12 6.65 89.36
C 6.61 97.00 6.84 97.63 11.56 103.22
C 16.75 109.37 21.29 112.58 26.71 113.92
C 29.48 114.61 30.90 113.82 36.43 108.58
C 40.00 105.20 43.52 102.44 44.24 102.44
C 47.07 102.44 46.98 105.20 43.98 109.73
C 38.31 118.33 40.27 123.77 47.90 120.60
C 51.72 119.01 81.62 88.00 81.96 85.27
C 82.05 84.44 82.20 81.60 82.26 78.97
C 82.34 75.43 82.92 74.07 84.47 73.75
C 87.28 73.20 89.37 78.83 88.47 84.54
L 87.79 88.94
L 95.06 89.79
C 99.05 90.25 105.05 91.36 108.38 92.24
L 114.44 93.84
L 113.47 90.60
C 112.93 88.83 112.47 83.30 112.45 78.33
C 112.42 70.09 112.64 69.29 114.83 69.29
C 116.97 69.29 117.32 70.34 117.98 78.94
C 118.64 87.64 119.39 89.87 125.64 101.83
C 134.01 117.87 133.37 116.95 155.17 144.62
C 169.09 162.29 174.77 170.68 182.56 185.12
C 187.96 195.15 192.38 203.96 192.38 204.70
C 192.38 205.46 191.30 207.16 189.98 208.49
C 188.03 210.44 185.98 210.90 179.16 210.90
C 172.23 210.90 170.30 211.34 168.24 213.40
C 164.99 216.66 165.66 217.15 170.99 215.51
C 179.12 213.01 182.32 216.92 174.75 220.10
C 171.54 221.44 170.78 222.23 171.96 222.96
C 172.99 223.60 175.78 222.85 179.51 220.97
C 188.24 216.53 192.70 219.27 184.87 224.27
L 180.96 226.77
L 189.68 226.23
C 195.69 225.85 200.14 224.78 203.99 222.80
M 45.11 19.88
C 43.97 13.36 37.80 10.24 33.02 13.75
C 30.63 15.50 30.07 21.60 31.71 28.12
L 32.46 31.13
L 39.10 27.32
C 45.25 23.79 45.69 23.22 45.11 19.88"/>
<path fill="#000000" stroke="none" d="
M 12.83 95.60
C 10.00 92.78 16.87 84.94 21.40 85.79
C 23.89 86.28 24.82 92.22 22.79 94.67
C 21.33 96.43 14.31 97.09 12.83 95.60"/>
<path fill="#000000" stroke="none" d="
M 31.80 69.36
C 27.80 65.33 27.80 58.80 31.80 54.77
C 38.30 48.28 49.30 52.87 49.30 62.06
C 49.30 67.95 44.95 72.31 39.08 72.31
C 36.10 72.31 33.85 71.39 31.80 69.36
M 45.46 62.94
C 46.21 57.88 36.73 52.76 35.21 57.40
C 34.97 58.15 36.13 59.11 37.80 59.53
C 39.72 60.02 41.12 61.43 41.60 63.34
C 42.49 66.88 44.92 66.64 45.46 62.94"/>
<path fill="#bb7a52" stroke="none" d="
M 80.56 228.47
C 80.56 228.19 82.46 226.79 84.77 225.36
C 89.13 222.66 90.22 219.73 87.28 218.61
C 85.19 217.80 79.53 220.63 76.47 224.02
C 74.69 225.99 73.82 226.25 72.53 225.18
C 71.19 224.07 72.10 223.08 77.13 220.04
C 80.56 217.97 83.60 215.61 83.87 214.80
C 84.82 211.96 80.28 211.75 74.87 214.39
C 69.16 217.18 67.77 217.06 68.97 213.91
C 69.91 211.48 76.95 208.49 81.76 208.49
C 94.52 208.49 101.15 198.79 114.20 160.98
C 120.14 143.78 127.37 127.48 129.68 126.04
C 130.69 125.42 149.10 147.81 149.10 149.66
C 149.10 150.12 146.84 153.10 144.08 156.29
C 136.46 165.09 126.48 180.89 117.43 198.48
C 107.81 217.15 101.52 224.03 91.31 227.07
C 85.14 228.91 80.56 229.50 80.56 228.47"/>
<path fill="#bb7a52" stroke="none" d="
M 364.55 224.95
C 366.32 223.32 368.45 221.77 369.27 221.50
C 371.53 220.74 369.58 216.92 366.94 216.92
C 365.69 216.92 362.62 218.55 360.12 220.54
C 355.54 224.18 351.85 225.13 350.53 223.00
C 350.14 222.36 352.00 220.72 354.66 219.36
C 363.04 215.08 359.78 211.75 350.37 214.97
C 343.03 217.48 340.29 215.87 344.57 211.58
C 345.93 210.23 348.83 209.69 354.79 209.69
C 364.56 209.69 367.41 207.75 368.46 200.42
C 368.83 197.89 370.06 191.23 371.22 185.59
C 375.28 165.66 373.73 159.62 359.42 139.66
C 354.75 133.14 351.26 127.25 351.68 126.57
C 352.10 125.89 353.98 125.33 355.83 125.33
C 358.30 125.33 361.59 127.47 368.06 133.28
C 373.96 138.58 380.37 142.88 387.38 146.23
C 397.84 151.23 397.86 151.26 398.71 156.58
C 399.16 159.56 398.90 165.42 398.09 169.84
C 396.83 176.74 388.45 206.17 384.37 218.00
C 382.26 224.15 377.69 226.94 368.85 227.46
L 361.32 227.90
L 364.55 224.95"/>
<path fill="#bb7a52" stroke="none" d="
M 184.87 224.27
C 192.70 219.27 188.24 216.53 179.51 220.97
C 175.78 222.85 172.99 223.60 171.96 222.96
C 170.78 222.23 171.54 221.44 174.75 220.10
C 182.32 216.92 179.12 213.01 170.99 215.51
C 165.66 217.15 164.99 216.66 168.24 213.40
C 170.30 211.34 172.23 210.90 179.16 210.90
C 185.98 210.90 188.03 210.44 189.98 208.49
C 191.30 207.16 192.38 205.46 192.38 204.70
C 192.38 203.96 187.96 195.15 182.56 185.12
C 174.77 170.68 169.09 162.29 155.17 144.62
C 133.37 116.95 134.01 117.87 125.64 101.83
C 119.39 89.87 118.64 87.64 117.98 78.94
C 117.32 70.34 116.97 69.29 114.83 69.29
C 112.64 69.29 112.42 70.09 112.45 78.33
C 112.47 83.30 112.93 88.83 113.47 90.60
L 114.44 93.84
L 108.38 92.24
C 105.05 91.36 99.05 90.25 95.06 89.79
L 87.79 88.94
L 88.47 84.54
C 89.37 78.83 87.28 73.20 84.47 73.75
C 82.92 74.07 82.34 75.43 82.26 78.97
C 82.20 81.60 82.05 84.44 81.96 85.27
C 81.62 88.00 51.72 119.01 47.90 120.60
C 40.27 123.77 38.31 118.33 43.98 109.73
C 46.98 105.20 47.07 102.44 44.24 102.44
C 43.52 102.44 40.00 105.20 36.43 108.58
C 30.90 113.82 29.48 114.61 26.71 113.92
C 21.29 112.58 16.75 109.37 11.56 103.22
C 6.84 97.63 6.61 97.00 6.65 89.36
C 6.69 80.12 9.34 73.45 19.01 58.26
C 26.07 47.17 33.61 38.36 40.16 33.56
C 45.81 29.42 46.62 29.33 47.11 32.84
C 47.36 34.62 48.32 35.55 49.90 35.55
C 52.04 35.55 52.39 34.48 53.12 25.72
C 53.57 20.32 54.77 14.27 55.79 12.29
C 59.10 5.88 67.91 4.81 70.38 10.51
C 70.89 11.69 71.63 18.90 72.02 26.51
C 72.70 39.32 72.93 40.37 75.15 40.37
C 77.30 40.37 77.62 39.37 78.16 30.73
L 78.76 21.09
L 84.77 19.10
C 94.34 15.93 132.43 8.44 138.95 8.44
C 147.57 8.45 165.15 11.52 184.45 16.39
C 229.78 27.83 241.58 28.97 326.45 30.09
C 398.13 31.03 397.26 30.96 410.34 37.43
C 429.72 47.04 438.02 55.21 481.92 107.86
C 523.31 157.50 537.15 171.78 549.56 177.68
C 561.41 183.32 569.88 184.17 581.96 180.91
C 586.92 179.58 591.44 178.94 592.00 179.50
C 593.39 180.89 583.86 186.31 577.05 188.01
C 565.21 190.96 546.55 184.05 532.85 171.61
C 528.66 167.81 514.35 151.38 501.05 135.08
C 464.46 90.26 447.82 70.93 441.80 66.28
C 438.79 63.97 432.02 58.14 426.73 53.33
C 417.01 44.47 414.13 43.06 412.82 46.49
C 412.35 47.74 414.00 50.33 417.62 54.03
C 424.55 61.10 426.30 65.34 428.57 80.57
C 433.39 112.88 445.29 132.68 467.86 145.95
C 483.86 155.37 484.67 156.57 488.51 176.62
C 494.21 206.22 494.03 213.14 487.38 219.79
C 483.85 223.35 473.18 226.95 468.05 226.32
L 464.73 225.93
L 468.64 223.80
C 470.79 222.64 472.55 221.14 472.55 220.47
C 472.55 217.74 468.28 217.95 462.11 220.98
C 458.51 222.76 454.97 223.84 454.24 223.39
C 453.51 222.94 455.42 221.31 458.61 219.68
C 468.04 214.89 463.01 211.72 453.01 216.15
C 449.06 217.91 448.50 217.94 448.50 216.33
C 448.50 212.49 453.05 209.69 459.32 209.69
C 463.85 209.69 465.96 209.07 467.89 207.13
C 470.22 204.79 470.40 203.62 469.83 194.17
C 468.99 180.23 466.05 172.69 459.90 168.63
C 454.61 165.15 439.56 158.97 418.44 151.58
C 397.42 144.23 383.57 137.17 374.90 129.39
C 370.74 125.66 365.80 121.45 363.93 120.05
C 359.04 116.39 351.39 104.39 349.25 97.04
C 348.25 93.58 347.04 85.65 346.56 79.42
C 345.78 69.19 345.46 68.09 343.29 68.09
C 341.23 68.09 340.83 69.02 340.51 74.57
C 339.72 88.66 344.36 105.55 351.68 115.17
L 354.58 118.97
L 342.31 119.63
C 335.58 120.01 322.48 121.81 313.23 123.66
C 297.55 126.77 294.29 127.01 265.73 127.06
C 242.09 127.09 231.78 126.61 220.69 124.94
C 198.37 121.57 191.56 117.64 186.93 105.50
C 185.27 101.13 184.27 100.03 182.00 100.03
C 179.86 100.03 179.16 100.69 179.17 102.74
C 179.18 106.82 184.40 116.90 189.21 122.18
C 193.18 126.53 193.89 128.61 199.64 152.91
C 203.03 167.24 207.72 186.73 210.07 196.23
L 214.35 213.50
L 211.96 216.72
C 208.04 221.98 199.54 225.61 189.68 226.23
L 180.96 226.77
L 184.87 224.27
M 22.79 94.67
C 24.82 92.22 23.89 86.28 21.40 85.79
C 16.87 84.94 10.00 92.78 12.83 95.60
C 14.31 97.09 21.33 96.43 22.79 94.67
M 46.35 69.36
C 52.83 62.85 48.25 51.82 39.08 51.82
C 33.21 51.82 28.86 56.18 28.86 62.06
C 28.86 67.95 33.21 72.31 39.08 72.31
C 42.06 72.31 44.31 71.39 46.35 69.36"/>
<path fill="#bb7a52" stroke="none" d="
M 31.71 28.12
C 30.07 21.60 30.63 15.50 33.02 13.75
C 37.80 10.24 43.97 13.36 45.11 19.88
C 45.69 23.22 45.25 23.79 39.10 27.32
L 32.46 31.13
L 31.71 28.12"/>
<path fill="#eb2e00" stroke="none" d="
M 41.59 63.29
C 41.13 61.44 39.70 60.00 37.85 59.55
C 34.27 58.64 33.99 57.09 37.23 56.05
C 41.93 54.56 47.60 60.99 45.14 65.00
C 43.82 67.14 42.38 66.44 41.59 63.29"/>
</g>
</svg>
