<?xml version="1.0" encoding="UTF-8" standalone="no"?>
<!DOCTYPE svg PUBLIC "-//W3C//DTD SVG 1.1//EN"
"http://www.w3.org/Graphics/SVG/1.1/DTD/svg11.dtd">
<svg width="261px" height="600px"
xmlns="http://www.w3.org/2000/svg" version="1.1">
<g transform="translate(0000, 0000) scale(1.0000, 1.0000)">
<path fill="#000000" stroke="none" d="
M 54.91 596.26
C 48.55 589.91 49.81 584.55 61.91 566.21
C 71.63 551.46 72.29 548.38 72.29 516.84
C 72.29 490.81 69.37 458.44 66.53 453.03
C 65.47 451.01 62.56 469.28 58.88 501.15
C 55.92 526.72 52.79 542.01 47.95 554.58
C 46.06 559.51 43.46 567.36 42.18 572.03
C 39.73 581.00 33.90 593.60 31.50 595.18
C 30.71 595.70 24.99 596.14 18.77 596.14
C 7.98 596.16 7.32 596.00 3.74 592.43
C 1.22 589.89 0.00 587.40 0.00 584.70
C 0.00 579.94 4.98 569.67 9.02 566.10
C 12.33 563.17 23.14 540.90 26.14 530.83
C 27.24 527.10 30.48 505.02 33.32 481.75
C 36.16 458.48 39.61 431.39 40.98 421.54
C 42.35 411.68 44.06 398.16 44.79 391.47
C 45.52 384.78 47.25 374.00 48.64 367.48
C 51.51 354.13 51.43 353.50 44.33 333.08
C 36.48 310.49 34.34 295.45 37.17 282.73
C 37.87 279.57 42.45 268.62 47.35 258.42
C 58.87 234.41 59.66 229.66 56.98 200.51
C 54.54 173.90 54.53 162.24 56.92 129.85
C 57.97 115.78 58.83 102.42 58.84 100.17
L 58.85 96.06
L 47.84 101.35
C 30.16 109.83 16.18 109.41 11.82 100.26
C 10.15 96.77 9.99 94.87 11.04 90.96
C 12.99 83.65 31.17 50.52 38.89 40.17
L 45.62 31.18
L 40.72 25.66
C 31.05 14.75 30.99 4.67 40.60 1.34
C 45.41 -0.33 46.42 -0.31 50.45 1.62
C 54.39 3.51 58.97 8.60 63.41 16.07
C 64.58 18.05 65.30 17.39 68.90 11.01
C 72.52 4.59 73.48 3.72 76.50 4.08
C 81.03 4.61 81.69 8.83 78.18 14.76
C 74.72 20.62 76.38 20.37 82.52 14.07
C 87.68 8.79 90.49 7.84 93.14 10.49
C 95.65 13.00 94.92 15.91 90.83 19.84
C 84.21 26.19 88.50 26.24 100.42 19.94
C 106.54 16.72 113.25 14.07 115.34 14.07
C 120.88 14.07 126.07 17.25 127.95 21.77
C 129.36 25.16 129.30 26.42 127.56 30.08
C 125.89 33.57 122.98 35.69 112.32 41.18
L 99.15 47.97
L 98.78 55.83
C 98.57 60.14 99.61 70.50 101.11 78.86
C 103.06 89.80 104.30 105.44 105.56 134.97
C 107.51 180.83 108.15 184.58 118.33 210.61
C 126.15 230.61 138.02 253.36 146.34 264.28
C 156.38 277.48 165.13 283.75 192.41 297.33
C 218.81 310.45 227.70 316.73 235.32 327.66
C 242.47 337.92 243.89 342.72 249.45 375.19
C 256.43 416.12 259.73 441.61 260.60 461.19
C 261.28 476.71 261.15 478.04 258.68 481.02
C 256.55 483.61 255.60 483.95 253.72 482.85
C 247.90 479.42 244.84 466.55 237.32 413.87
C 231.37 372.22 231.92 374.06 228.16 383.31
C 226.48 387.44 221.16 398.62 216.32 408.14
C 207.79 424.96 207.60 425.55 209.47 429.13
C 210.53 431.16 211.91 434.60 212.55 436.77
C 214.17 442.36 219.41 473.80 223.18 500.60
C 225.21 515.00 228.52 531.08 232.17 544.43
C 235.36 556.02 237.97 567.81 237.97 570.64
C 237.97 576.58 233.99 585.22 230.37 587.17
C 229.01 587.88 222.95 588.49 216.89 588.49
C 206.89 588.49 205.58 588.19 202.72 585.35
C 197.08 579.70 199.72 567.81 208.68 558.36
L 212.40 554.44
L 207.96 538.53
C 205.51 529.77 201.30 516.13 198.62 508.22
L 193.72 493.83
L 192.00 501.19
C 190.90 505.84 189.97 521.85 189.44 544.99
C 188.73 576.22 188.27 582.23 186.27 586.93
C 184.98 589.93 182.88 592.96 181.61 593.64
C 180.33 594.32 174.33 594.88 168.27 594.88
C 158.28 594.88 156.96 594.59 154.11 591.75
C 147.91 585.54 151.15 574.02 162.29 562.53
L 168.24 556.41
L 169.06 525.43
C 170.74 462.59 170.39 445.20 166.95 421.54
C 165.22 409.57 163.79 397.34 163.78 394.35
C 163.78 391.36 163.62 388.90 163.44 388.90
C 163.27 388.89 151.35 388.04 136.96 387.02
C 122.57 386.00 110.58 385.38 110.31 385.65
C 110.03 385.92 107.56 394.68 104.81 405.12
C 100.06 423.12 99.81 425.07 99.79 443.28
C 99.79 454.12 98.96 467.49 97.89 473.99
C 95.35 489.40 95.48 498.50 98.54 524.46
L 101.12 546.36
L 94.69 565.82
C 91.15 576.52 87.67 587.71 86.95 590.66
C 84.91 599.14 83.37 600.00 70.18 600.00
C 59.15 600.00 58.49 599.83 54.91 596.26
M 79.58 587.87
C 82.57 581.72 82.55 581.53 78.68 580.35
C 76.57 579.71 75.68 580.62 73.57 585.58
C 72.16 588.90 70.82 592.06 70.59 592.61
C 70.34 593.16 71.65 593.60 73.48 593.60
C 76.14 593.60 77.34 592.48 79.58 587.87
M 64.55 585.81
C 67.11 581.13 67.71 578.92 66.70 577.91
C 63.79 575.00 55.86 587.23 58.20 591.02
C 59.68 593.42 60.99 592.36 64.55 585.81
M 29.18 583.69
L 32.18 578.26
L 28.70 576.95
C 26.79 576.22 25.15 575.78 25.06 575.97
C 21.17 584.20 19.19 588.69 19.19 589.24
C 19.19 589.62 20.76 589.75 22.70 589.54
C 25.29 589.23 26.96 587.73 29.18 583.69
M 13.37 581.97
C 15.93 577.29 16.53 575.08 15.52 574.07
C 12.61 571.16 4.68 583.39 7.02 587.18
C 8.51 589.59 9.81 588.52 13.37 581.97
M 179.30 582.63
C 182.14 576.20 182.15 576.35 178.48 575.23
C 176.37 574.59 175.47 575.50 173.36 580.46
C 171.95 583.78 170.61 586.94 170.38 587.49
C 170.14 588.04 171.47 588.49 173.32 588.49
C 176.11 588.49 177.16 587.45 179.30 582.63
M 164.34 580.70
C 166.90 576.01 167.50 573.80 166.49 572.79
C 163.59 569.88 155.65 582.12 157.99 585.90
C 159.48 588.31 160.78 587.25 164.34 580.70
M 227.99 576.36
C 230.98 570.20 230.96 570.01 227.10 568.84
C 224.98 568.20 224.09 569.10 221.98 574.07
C 220.57 577.38 219.23 580.54 219.00 581.09
C 218.75 581.64 220.06 582.09 221.89 582.09
C 224.55 582.09 225.75 580.96 227.99 576.36
M 212.96 574.30
C 215.52 569.62 216.12 567.40 215.11 566.39
C 212.20 563.49 204.27 575.72 206.61 579.51
C 208.10 581.91 209.40 580.85 212.96 574.30
M 89.03 559.37
L 94.28 544.35
L 91.98 525.80
C 89.16 503.03 89.01 486.54 91.49 471.43
C 92.58 464.85 93.38 451.56 93.40 440.43
L 93.40 420.95
L 100.66 393.74
C 107.69 367.47 107.94 365.95 108.02 349.89
C 108.11 334.14 108.25 333.26 110.67 333.26
C 113.02 333.26 113.30 334.46 114.28 348.73
C 115.11 360.93 114.93 365.73 113.45 371.44
C 112.40 375.42 111.64 378.70 111.74 378.72
C 114.07 379.23 163.15 382.27 163.50 381.93
C 163.76 381.66 164.55 378.95 165.22 375.90
C 168.40 361.68 170.30 356.93 172.85 356.93
C 176.80 356.93 176.89 359.46 173.41 372.84
C 169.41 388.26 169.41 391.78 173.35 418.98
C 176.00 437.19 176.49 445.30 176.41 468.87
C 176.26 506.19 174.56 558.97 173.37 562.58
C 172.55 565.06 173.09 565.74 177.21 567.47
C 179.86 568.57 182.48 569.00 183.06 568.43
C 183.63 567.85 184.31 552.99 184.58 535.39
C 184.95 510.10 185.60 500.29 187.73 488.46
C 189.20 480.23 190.12 471.31 189.76 468.63
C 188.83 461.73 192.23 443.58 196.42 433.04
C 198.37 428.12 205.00 414.01 211.17 401.71
C 221.02 382.00 225.65 370.16 228.30 357.89
C 228.72 355.94 229.92 354.37 230.98 354.37
C 234.70 354.37 236.37 362.19 243.79 413.86
C 246.22 430.75 249.50 451.19 251.08 459.28
C 253.76 472.98 253.99 473.54 254.39 467.59
C 255.69 447.74 241.41 356.56 234.66 341.67
C 227.48 325.84 216.94 317.37 185.51 302.19
C 160.44 290.07 153.02 284.81 142.27 271.56
C 128.73 254.88 108.02 210.17 102.86 186.49
C 101.56 180.50 100.23 162.82 99.14 136.89
C 97.93 107.99 96.70 92.43 94.79 81.88
C 93.33 73.78 92.13 63.66 92.13 59.39
C 92.12 52.23 91.90 51.62 89.34 51.71
C 87.17 51.79 85.59 49.94 82.11 43.18
C 77.80 34.80 77.72 34.45 79.96 31.98
C 82.20 29.50 82.13 29.39 76.12 26.74
C 70.85 24.41 69.29 24.22 65.17 25.46
C 55.86 28.25 40.05 49.13 25.54 77.80
C 18.60 91.50 17.75 93.94 18.97 96.63
C 21.85 102.95 30.48 102.05 46.26 93.81
C 50.95 91.36 57.14 87.34 60.00 84.88
C 68.60 77.53 71.61 80.20 67.41 91.47
C 66.17 94.81 64.71 109.07 63.22 132.56
C 61.13 165.17 61.09 170.56 62.77 190.13
C 66.35 232.03 65.45 238.71 53.02 263.64
C 49.30 271.09 45.29 280.52 44.10 284.61
C 40.52 296.93 42.89 308.92 56.03 344.78
C 68.92 379.98 73.54 402.88 72.29 425.31
C 71.62 437.09 72.06 442.98 74.87 460.55
C 77.43 476.58 78.42 488.32 78.95 509.31
C 79.72 539.65 78.71 549.42 73.49 561.80
C 71.77 565.88 70.37 569.50 70.37 569.86
C 70.37 570.38 80.82 574.02 83.16 574.31
C 83.52 574.36 86.16 567.63 89.03 559.37
M 35.85 566.42
C 43.44 554.05 48.90 531.95 53.03 496.84
C 57.02 463.07 59.31 449.40 62.54 440.09
C 68.13 423.99 67.23 407.12 59.19 376.84
L 55.80 364.12
L 54.16 373.64
C 53.25 378.87 51.89 388.34 51.14 394.67
C 50.37 401.00 48.37 416.55 46.67 429.21
C 44.98 441.88 41.54 469.22 39.03 489.98
C 33.97 531.84 32.97 536.35 24.83 553.75
C 21.74 560.39 19.19 566.02 19.19 566.25
C 19.19 566.66 30.51 570.32 32.32 570.49
C 32.87 570.54 34.45 568.71 35.85 566.42
M 228.23 560.56
C 228.59 559.98 226.90 552.06 224.47 542.97
C 222.04 533.88 218.89 518.10 217.46 507.89
C 210.55 458.26 205.72 433.38 203.46 435.76
C 200.46 438.92 196.75 455.36 196.72 465.67
C 196.70 478.03 197.95 483.44 208.58 516.42
C 212.70 529.22 216.76 543.31 217.59 547.77
C 219.70 559.06 219.67 558.99 222.91 560.29
C 226.67 561.80 227.44 561.84 228.23 560.56
M 94.08 40.81
C 94.80 40.26 100.20 37.78 106.08 35.31
C 121.12 28.96 124.91 24.92 118.86 21.68
C 116.59 20.47 114.16 21.28 103.18 26.90
C 87.28 35.04 84.91 37.05 86.88 40.73
C 88.28 43.33 90.75 43.36 94.08 40.81
M 54.31 21.81
C 56.47 19.43 56.46 19.18 54.00 15.74
C 49.26 9.08 46.57 7.30 43.60 8.90
C 42.14 9.68 40.94 11.17 40.94 12.19
C 40.94 14.14 49.49 24.31 51.13 24.31
C 51.64 24.31 53.07 23.18 54.31 21.81"/>
<path fill="#000000" stroke="none" d="
M 22.61 95.09
C 19.98 92.48 25.22 85.22 29.18 85.97
C 32.10 86.52 32.61 91.30 30.04 93.88
C 27.92 96.00 24.13 96.63 22.61 95.09"/>
<path fill="#000000" stroke="none" d="
M 56.29 71.00
C 56.29 70.66 56.59 70.36 56.93 70.36
C 57.28 70.36 57.57 70.66 57.57 71.00
C 57.57 71.35 57.28 71.64 56.93 71.64
C 56.59 71.64 56.29 71.35 56.29 71.00"/>
<path fill="#000000" stroke="none" d="
M 53.74 53.73
C 48.67 48.67 52.35 39.66 59.49 39.66
C 63.60 39.66 67.81 43.87 67.81 47.97
C 67.81 49.74 66.66 52.32 65.25 53.73
C 63.84 55.14 61.26 56.29 59.49 56.29
C 57.73 56.29 55.14 55.14 53.74 53.73
M 63.97 48.87
C 63.97 47.60 63.28 45.88 62.44 45.03
C 60.66 43.25 56.29 42.96 56.29 44.62
C 56.29 45.25 57.45 46.06 58.85 46.43
C 60.26 46.80 61.41 48.01 61.41 49.14
C 61.41 50.25 61.99 51.17 62.69 51.17
C 63.39 51.17 63.97 50.14 63.97 48.87"/>
<path fill="#aa6324" stroke="none" d="
M 86.88 40.73
C 84.91 37.05 87.28 35.04 103.18 26.90
C 114.16 21.28 116.59 20.47 118.86 21.68
C 124.91 24.92 121.12 28.96 106.08 35.31
C 100.20 37.78 94.80 40.26 94.08 40.81
C 90.75 43.36 88.28 43.33 86.88 40.73"/>
<path fill="#aa6324" stroke="none" d="
M 45.57 19.19
C 40.22 13.28 39.76 10.61 43.82 9.06
C 47.01 7.84 49.59 9.54 54.00 15.74
C 56.46 19.18 56.47 19.43 54.31 21.81
C 53.07 23.18 51.64 24.31 51.13 24.31
C 50.61 24.31 48.12 22.00 45.57 19.19"/>
<path fill="#edab53" stroke="none" d="
M 76.44 572.37
C 73.11 571.34 70.37 570.20 70.37 569.86
C 70.37 569.50 71.77 565.88 73.49 561.80
C 78.71 549.42 79.72 539.65 78.95 509.31
C 78.42 488.32 77.43 476.58 74.87 460.55
C 72.06 442.98 71.62 437.09 72.29 425.31
C 73.54 402.88 68.92 379.98 56.03 344.78
C 42.89 308.92 40.52 296.93 44.10 284.61
C 45.29 280.52 49.30 271.09 53.02 263.64
C 65.45 238.71 66.35 232.03 62.77 190.13
C 61.09 170.56 61.13 165.17 63.22 132.56
C 64.71 109.07 66.17 94.81 67.41 91.47
C 71.61 80.20 68.60 77.53 60.00 84.88
C 57.14 87.34 50.95 91.36 46.26 93.81
C 30.48 102.05 21.85 102.95 18.97 96.63
C 17.75 93.94 18.60 91.50 25.54 77.80
C 40.31 48.59 55.95 28.09 65.38 25.55
C 69.60 24.41 71.34 24.61 76.33 26.83
C 82.13 29.39 82.20 29.50 79.96 31.98
C 77.72 34.45 77.80 34.80 82.11 43.18
C 85.59 49.94 87.17 51.79 89.34 51.71
C 91.90 51.62 92.12 52.23 92.13 59.39
C 92.13 63.66 93.33 73.78 94.79 81.88
C 96.70 92.43 97.93 107.99 99.14 136.89
C 100.23 162.82 101.56 180.50 102.86 186.49
C 108.02 210.17 128.73 254.88 142.27 271.56
C 153.02 284.81 160.44 290.07 185.51 302.19
C 216.94 317.37 227.48 325.84 234.66 341.67
C 241.41 356.56 255.69 447.74 254.39 467.59
C 253.99 473.54 253.76 472.98 251.08 459.28
C 249.50 451.19 246.22 430.75 243.79 413.86
C 236.37 362.19 234.70 354.37 230.98 354.37
C 229.92 354.37 228.72 355.94 228.30 357.89
C 225.65 370.16 221.02 382.00 211.17 401.71
C 205.00 414.01 198.37 428.12 196.42 433.04
C 192.23 443.58 188.83 461.73 189.76 468.63
C 190.12 471.31 189.20 480.23 187.73 488.46
C 185.60 500.29 184.95 510.10 184.58 535.39
C 184.31 552.99 183.63 567.85 183.06 568.43
C 182.48 569.00 179.86 568.57 177.21 567.47
C 173.09 565.74 172.55 565.06 173.37 562.58
C 174.56 558.97 176.26 506.19 176.41 468.87
C 176.49 445.30 176.00 437.19 173.35 418.98
C 169.41 391.78 169.41 388.26 173.41 372.84
C 176.89 359.46 176.80 356.93 172.85 356.93
C 170.30 356.93 168.40 361.68 165.22 375.90
C 164.55 378.95 163.76 381.66 163.50 381.93
C 163.15 382.27 114.07 379.23 111.74 378.72
C 111.64 378.70 112.40 375.42 113.45 371.44
C 114.93 365.73 115.11 360.93 114.28 348.73
C 113.30 334.46 113.02 333.26 110.67 333.26
C 108.25 333.26 108.11 334.14 108.02 349.89
C 107.94 365.95 107.69 367.47 100.66 393.74
L 93.40 420.95
L 93.40 440.43
C 93.38 451.56 92.58 464.85 91.49 471.43
C 89.01 486.54 89.16 503.03 91.98 525.80
L 94.28 544.35
L 89.03 559.37
C 86.16 567.63 83.52 574.36 83.16 574.31
C 82.80 574.27 79.78 573.39 76.44 572.37
M 30.04 93.88
C 32.61 91.30 32.10 86.52 29.18 85.97
C 26.75 85.51 21.75 89.92 21.75 92.53
C 21.75 96.43 26.69 97.23 30.04 93.88
M 57.57 71.00
C 57.57 70.66 57.28 70.36 56.93 70.36
C 56.59 70.36 56.29 70.66 56.29 71.00
C 56.29 71.35 56.59 71.64 56.93 71.64
C 57.28 71.64 57.57 71.35 57.57 71.00
M 65.25 53.73
C 70.32 48.67 66.63 39.66 59.49 39.66
C 55.39 39.66 51.18 43.87 51.18 47.97
C 51.18 49.74 52.33 52.32 53.74 53.73
C 55.14 55.14 57.73 56.29 59.49 56.29
C 61.26 56.29 63.84 55.14 65.25 53.73"/>
<path fill="#edab53" stroke="none" d="
M 25.27 568.53
C 21.93 567.51 19.19 566.47 19.19 566.25
C 19.19 566.02 21.74 560.39 24.83 553.75
C 32.97 536.35 33.97 531.84 39.03 489.98
C 41.54 469.22 44.98 441.88 46.67 429.21
C 48.37 416.55 50.37 401.00 51.14 394.67
C 51.89 388.34 53.25 378.87 54.16 373.64
L 55.80 364.12
L 59.19 376.84
C 67.23 407.12 68.13 423.99 62.54 440.09
C 59.31 449.40 57.02 463.07 53.03 496.84
C 48.90 531.95 43.44 554.05 35.85 566.42
C 32.97 571.13 33.42 571.04 25.27 568.53"/>
<path fill="#edab53" stroke="none" d="
M 222.91 560.29
C 219.67 558.99 219.70 559.06 217.59 547.77
C 216.76 543.31 212.70 529.22 208.58 516.42
C 197.95 483.44 196.70 478.03 196.72 465.67
C 196.75 455.36 200.46 438.92 203.46 435.76
C 205.72 433.38 210.55 458.26 217.46 507.89
C 218.89 518.10 222.04 533.88 224.47 542.97
C 229.58 562.06 229.50 562.94 222.91 560.29"/>
<path fill="#eb2e00" stroke="none" d="
M 61.41 49.22
C 61.41 48.14 60.12 46.76 58.53 46.14
C 55.96 45.15 55.90 44.93 57.91 44.12
C 59.16 43.61 61.02 43.91 62.06 44.79
C 64.21 46.57 64.66 51.17 62.69 51.17
C 61.99 51.17 61.41 50.29 61.41 49.22"/>
<path fill="#524f4f" stroke="none" d="
M 70.59 592.61
C 70.82 592.06 72.16 588.90 73.57 585.58
C 75.68 580.62 76.57 579.71 78.68 580.35
C 82.55 581.53 82.57 581.72 79.58 587.87
C 77.34 592.48 76.14 593.60 73.48 593.60
C 71.65 593.60 70.34 593.16 70.59 592.61"/>
<path fill="#524f4f" stroke="none" d="
M 58.20 591.02
C 55.86 587.23 63.79 575.00 66.70 577.91
C 67.71 578.92 67.11 581.13 64.55 585.81
C 60.99 592.36 59.68 593.42 58.20 591.02"/>
<path fill="#524f4f" stroke="none" d="
M 19.19 589.24
C 19.19 588.69 21.17 584.20 25.06 575.97
C 25.15 575.78 26.79 576.22 28.70 576.95
L 32.18 578.26
L 29.18 583.69
C 26.96 587.73 25.29 589.23 22.70 589.54
C 20.76 589.75 19.19 589.62 19.19 589.24"/>
<path fill="#524f4f" stroke="none" d="
M 7.02 587.18
C 4.68 583.39 12.61 571.16 15.52 574.07
C 16.53 575.08 15.93 577.29 13.37 581.97
C 9.81 588.52 8.51 589.59 7.02 587.18"/>
<path fill="#524f4f" stroke="none" d="
M 170.38 587.49
C 170.61 586.94 171.95 583.78 173.36 580.46
C 175.47 575.50 176.37 574.59 178.48 575.23
C 182.15 576.35 182.14 576.20 179.30 582.63
C 177.16 587.45 176.11 588.49 173.32 588.49
C 171.47 588.49 170.14 588.04 170.38 587.49"/>
<path fill="#524f4f" stroke="none" d="
M 157.99 585.90
C 155.65 582.12 163.59 569.88 166.49 572.79
C 167.50 573.80 166.90 576.01 164.34 580.70
C 160.78 587.25 159.48 588.31 157.99 585.90"/>
<path fill="#524f4f" stroke="none" d="
M 219.00 581.09
C 219.23 580.54 220.57 577.38 221.98 574.07
C 224.09 569.10 224.98 568.20 227.10 568.84
C 230.96 570.01 230.98 570.20 227.99 576.36
C 225.75 580.96 224.55 582.09 221.89 582.09
C 220.06 582.09 218.75 581.64 219.00 581.09"/>
<path fill="#524f4f" stroke="none" d="
M 206.51 579.04
C 205.50 576.41 209.22 568.43 212.19 566.84
C 216.43 564.58 216.69 567.44 212.89 574.41
C 209.32 580.98 207.70 582.15 206.51 579.04"/>
</g>
</svg>
