<?xml version="1.0" encoding="UTF-8" standalone="no"?>
<!DOCTYPE svg PUBLIC "-//W3C//DTD SVG 1.1//EN"
"http://www.w3.org/Graphics/SVG/1.1/DTD/svg11.dtd">
<svg width="564px" height="600px"
xmlns="http://www.w3.org/2000/svg" version="1.1">
<g transform="translate(0000, 0000) scale(1.0000, 1.0000)">
<path fill="#000000" stroke="none" d="
M 2.09 597.91
C 0.05 595.88 0.00 594.44 0.00 541.04
C 0.00 487.65 0.05 486.21 2.09 484.17
C 4.03 482.23 5.57 482.09 23.50 482.09
L 42.82 482.09
L 42.80 476.09
C 42.78 465.70 40.72 439.23 39.11 428.55
C 36.75 412.79 33.61 399.30 29.14 385.67
C 24.52 371.58 24.46 371.19 26.71 368.94
C 28.16 367.50 34.24 367.30 77.81 367.30
C 121.39 367.30 127.46 367.50 128.92 368.94
C 131.16 371.19 131.10 371.58 126.48 385.67
C 122.01 399.30 118.87 412.79 116.51 428.55
C 114.90 439.23 112.84 465.70 112.82 476.09
L 112.80 482.09
L 148.81 482.09
L 184.82 482.09
L 186.95 478.17
C 188.11 476.02 191.20 470.97 193.80 466.96
C 196.40 462.94 199.45 457.72 200.56 455.36
C 203.56 449.02 207.51 427.62 209.40 407.48
C 212.70 372.18 217.24 345.53 221.79 334.64
L 223.38 330.86
L 217.97 326.61
C 205.56 316.90 193.38 300.04 176.40 269.08
C 162.13 243.07 154.37 230.94 151.02 229.42
C 146.98 227.58 141.90 229.15 126.56 236.95
C 110.09 245.33 104.30 246.64 96.63 243.71
C 94.04 242.73 90.99 240.72 89.83 239.26
C 85.30 233.50 88.14 222.81 96.85 212.87
C 99.12 210.29 106.74 200.66 113.81 191.48
C 129.50 171.08 135.94 163.53 146.32 153.39
L 154.32 145.57
L 154.94 137.22
C 155.64 127.97 161.31 105.45 165.60 94.96
C 175.33 71.08 187.48 53.63 209.91 31.30
C 223.48 17.80 243.18 1.58 247.24 0.56
C 251.11 -0.41 252.30 1.28 250.61 5.34
C 249.03 9.18 240.00 21.54 232.05 30.78
C 222.00 42.47 226.58 38.94 242.57 22.70
C 251.34 13.79 259.61 6.18 260.95 5.76
C 265.19 4.47 265.78 6.64 262.71 12.28
C 259.10 18.92 237.53 47.51 222.00 66.26
C 211.65 78.75 208.85 82.99 202.63 95.48
C 195.27 110.31 186.12 133.20 183.38 143.67
C 181.85 149.52 182.10 152.35 184.14 152.35
C 184.75 152.35 190.46 147.01 196.82 140.48
C 209.08 127.88 210.60 126.82 221.74 123.17
C 229.42 120.65 232.75 120.89 236.08 124.21
C 239.97 128.10 238.49 134.14 231.15 144.23
C 226.56 150.53 219.91 154.81 205.38 160.81
C 197.06 164.25 193.79 166.10 193.88 167.30
C 194.03 168.98 204.95 189.39 214.02 204.90
C 220.27 215.59 227.01 223.87 233.46 228.77
C 243.29 236.25 261.40 239.98 288.12 240.02
C 305.95 240.04 317.42 241.54 337.61 246.47
C 360.16 251.99 370.22 252.24 398.24 247.99
C 443.62 241.12 465.36 242.21 487.41 252.50
C 506.66 261.49 519.77 274.04 527.99 291.36
C 533.97 303.99 535.77 320.38 531.62 324.52
C 527.41 328.73 523.07 325.93 520.67 317.47
C 516.35 302.22 510.97 291.40 506.52 289.02
C 504.75 288.07 504.29 288.33 503.33 290.83
C 502.72 292.42 501.83 299.60 501.36 306.78
C 500.88 313.98 499.76 321.87 498.83 324.40
C 497.91 326.90 497.16 330.34 497.16 332.03
C 497.16 337.60 503.67 350.91 513.39 365.22
C 529.68 389.20 530.05 390.48 526.06 410.67
C 524.58 418.13 523.09 430.25 522.71 437.74
C 522.35 445.20 521.60 452.78 521.04 454.57
C 520.30 457.02 520.48 458.91 521.77 462.14
C 523.81 467.24 523.19 469.57 519.81 469.57
C 518.44 469.57 516.56 470.40 515.63 471.43
C 514.13 473.09 510.73 480.09 510.73 481.53
C 510.73 481.84 521.77 482.09 535.28 482.09
C 558.43 482.09 559.94 482.20 561.91 484.17
C 563.95 486.21 564.00 487.65 564.00 541.04
C 564.00 594.44 563.95 595.88 561.91 597.91
C 559.83 599.99 558.43 600.00 282.00 600.00
C 5.57 600.00 4.17 599.99 2.09 597.91
M 557.73 593.74
C 559.77 591.70 559.82 590.26 559.82 541.04
C 559.82 491.82 559.77 490.38 557.73 488.35
C 555.65 486.27 554.26 486.26 282.00 486.26
C 9.74 486.26 8.35 486.27 6.27 488.35
C 4.23 490.38 4.18 491.82 4.18 541.04
C 4.18 590.26 4.23 591.70 6.27 593.74
C 8.35 595.82 9.74 595.83 282.00 595.83
C 554.26 595.83 555.65 595.82 557.73 593.74
M 105.95 465.65
C 107.37 434.46 111.49 408.52 118.57 386.37
C 120.55 380.19 122.17 375.02 122.18 374.87
C 122.19 374.72 102.23 374.61 77.81 374.61
C 53.39 374.61 33.43 374.72 33.44 374.87
C 33.45 375.02 35.07 380.19 37.06 386.37
C 44.13 408.52 48.25 434.46 49.67 465.65
L 50.42 482.09
L 77.81 482.09
L 105.21 482.09
L 105.95 465.65
M 206.77 480.06
C 208.00 477.76 206.53 476.20 204.99 478.18
C 202.77 481.06 202.53 482.09 204.09 482.09
C 204.96 482.09 206.17 481.18 206.77 480.06
M 276.39 478.70
C 277.35 476.83 278.95 474.14 279.92 472.70
C 285.87 463.95 290.56 455.77 291.95 451.68
C 293.54 447.04 293.49 446.71 287.38 422.54
C 283.98 409.09 279.46 390.80 277.32 381.91
C 275.19 373.02 272.19 362.21 270.67 357.91
C 267.94 350.20 267.84 350.08 263.72 349.43
C 261.42 349.06 257.39 348.42 254.76 348.00
C 250.03 347.25 249.96 347.29 248.68 350.75
C 247.97 352.69 245.96 357.79 244.20 362.09
C 235.87 382.55 228.91 410.99 225.08 440.37
C 224.15 447.45 223.18 453.61 222.92 454.04
C 222.65 454.46 223.43 457.44 224.64 460.66
C 227.12 467.32 226.76 469.57 223.19 469.57
C 221.82 469.57 219.94 470.40 219.01 471.43
C 217.51 473.09 214.11 480.09 214.11 481.53
C 214.11 481.84 227.73 482.09 244.37 482.09
L 274.64 482.09
L 276.39 478.70
M 296.59 480.06
C 297.82 477.76 296.35 476.20 294.82 478.18
C 292.59 481.06 292.35 482.09 293.92 482.09
C 294.78 482.09 296.00 481.18 296.59 480.06
M 391.67 481.22
C 391.67 480.75 392.99 478.28 394.61 475.74
C 396.24 473.21 399.52 468.06 401.91 464.31
C 404.29 460.55 407.16 454.91 408.26 451.78
C 409.36 448.65 411.74 443.19 413.54 439.65
C 419.47 427.97 425.45 398.80 428.70 365.74
C 429.60 356.56 430.57 346.88 430.86 344.25
L 431.39 339.45
L 416.81 338.80
C 406.68 338.34 398.16 338.61 388.86 339.68
C 364.70 342.48 337.01 346.47 327.19 348.55
C 321.89 349.68 315.01 350.61 311.91 350.61
L 306.27 350.61
L 305.03 358.70
C 301.89 379.09 302.53 392.44 308.29 425.74
C 310.02 435.78 311.67 446.59 311.94 449.74
C 312.22 452.89 313.40 457.94 314.57 460.95
C 317.00 467.18 316.57 469.57 313.01 469.57
C 311.64 469.57 309.76 470.40 308.83 471.43
C 307.33 473.09 303.93 480.09 303.93 481.53
C 303.93 481.84 323.67 482.09 347.80 482.09
C 371.93 482.09 391.67 481.70 391.67 481.22
M 405.53 473.35
C 405.19 472.81 403.32 474.09 401.38 476.21
C 399.41 478.37 398.17 480.58 398.59 481.25
C 399.06 482.02 400.54 481.00 402.73 478.39
C 404.61 476.16 405.86 473.90 405.53 473.35
M 412.89 480.63
C 413.20 479.82 413.18 478.88 412.84 478.55
C 412.11 477.81 409.42 479.87 409.42 481.17
C 409.42 482.66 412.28 482.21 412.89 480.63
M 483.57 478.17
C 484.74 476.02 487.82 470.97 490.42 466.96
C 493.02 462.94 496.04 457.77 497.11 455.48
C 499.91 449.51 503.42 427.62 503.42 416.11
C 503.42 404.89 501.76 398.16 496.54 388.17
C 493.08 381.55 479.07 363.13 477.50 363.13
C 477.06 363.13 474.52 365.36 471.86 368.09
C 460.38 379.81 440.97 417.34 434.61 440.13
C 433.54 443.98 431.79 449.35 430.74 452.08
C 428.88 456.87 428.88 457.19 430.74 462.66
C 432.86 468.87 432.44 470.61 428.85 470.61
C 425.97 470.61 423.64 473.01 421.45 478.22
L 419.84 482.09
L 450.65 482.09
L 481.45 482.09
L 483.57 478.17
M 503.39 480.06
C 504.62 477.76 503.15 476.20 501.62 478.18
C 499.39 481.06 499.15 482.09 500.72 482.09
C 501.58 482.09 502.80 481.18 503.39 480.06
M 199.77 472.31
C 199.44 471.77 197.57 473.05 195.62 475.17
C 193.65 477.33 192.42 479.54 192.84 480.21
C 193.31 480.98 194.79 479.96 196.97 477.35
C 198.85 475.12 200.11 472.85 199.77 472.31
M 289.59 472.31
C 289.26 471.77 287.39 473.05 285.45 475.17
C 283.47 477.33 282.24 479.54 282.66 480.21
C 283.13 480.98 284.61 479.96 286.79 477.35
C 288.67 475.12 289.93 472.85 289.59 472.31
M 496.39 472.31
C 496.06 471.77 494.19 473.05 492.25 475.17
C 490.27 477.33 489.04 479.54 489.46 480.21
C 489.93 480.98 491.41 479.96 493.59 477.35
C 495.47 475.12 496.73 472.85 496.39 472.31
M 418.49 469.16
C 419.53 467.78 420.91 465.79 421.54 464.73
C 422.58 462.99 422.90 462.96 424.61 464.36
C 426.36 465.79 426.46 465.75 425.67 463.83
C 422.50 456.00 422.51 456.42 425.38 449.57
C 426.92 445.93 428.67 440.63 429.29 437.79
C 431.95 425.56 446.81 393.06 457.08 376.99
C 459.36 373.42 464.88 366.14 469.34 360.81
C 473.80 355.49 480.49 346.43 484.18 340.70
C 492.78 327.37 495.63 318.27 496.57 301.15
C 497.55 283.33 500.29 278.46 507.29 282.11
C 514.55 285.91 519.24 293.35 523.83 308.35
C 527.19 319.36 528.49 321.36 528.49 315.56
C 528.49 303.88 521.33 288.59 510.38 276.89
C 498.54 264.22 484.95 256.14 468.52 252.02
C 450.10 247.40 438.02 247.60 400.54 253.15
C 390.78 254.60 377.62 256.04 371.30 256.35
C 359.19 256.95 353.41 256.06 323.26 248.91
C 313.54 246.62 307.83 246.04 286.34 245.22
C 250.72 243.84 240.11 241.62 228.97 233.21
C 219.33 225.91 215.09 219.82 196.39 186.39
C 189.74 174.51 188.32 172.60 186.86 173.52
C 184.48 175.00 181.73 173.72 181.73 171.11
C 181.73 169.92 180.09 167.25 178.08 165.18
C 174.06 161.04 173.64 159.52 175.99 157.57
C 178.18 155.75 177.94 154.43 175.41 154.43
C 173.23 154.43 168.84 150.75 167.99 148.18
C 167.60 147.05 166.49 147.25 162.57 149.14
C 153.36 153.60 140.39 167.29 119.04 195.13
C 113.08 202.88 106.03 211.79 103.36 214.96
C 97.45 221.92 92.96 228.93 92.96 231.19
C 92.96 233.27 98.53 238.96 100.58 238.96
C 101.42 238.96 104.78 235.41 108.05 231.07
C 111.99 225.84 114.58 223.29 115.75 223.51
C 118.84 224.11 118.25 227.92 114.26 233.14
C 112.14 235.92 110.83 238.01 111.34 237.78
C 111.86 237.56 117.21 234.85 123.24 231.76
C 135.10 225.69 144.04 222.26 148.00 222.26
C 149.37 222.26 152.29 223.18 154.49 224.31
C 159.43 226.82 164.71 234.82 180.61 263.90
C 186.91 275.44 195.50 289.92 199.68 296.09
C 208.75 309.46 228.34 329.66 237.61 335.21
C 248.42 341.67 264.39 345.82 262.83 341.77
C 262.51 340.94 259.36 335.71 255.84 330.17
C 248.03 317.94 244.15 309.88 241.76 301.06
C 239.77 293.73 240.15 291.13 243.22 291.13
C 244.80 291.13 245.52 292.33 246.52 296.61
C 248.42 304.69 252.49 313.09 261.34 327.20
C 274.91 348.85 276.26 352.37 285.03 389.22
C 287.96 401.55 292.05 417.99 294.11 425.74
C 298.97 444.06 299.21 451.21 295.25 459.65
L 292.32 465.91
L 295.06 468.26
C 296.55 469.55 298.43 470.61 299.21 470.61
C 300.58 470.61 303.11 467.87 305.60 463.69
C 306.60 462.02 307.00 461.96 308.48 463.18
C 310.51 464.86 310.68 464.05 308.95 460.88
C 308.26 459.63 307.36 455.79 306.94 452.35
C 306.52 448.90 304.78 437.86 303.06 427.83
C 297.13 393.35 296.50 379.25 299.87 357.18
C 301.63 345.74 302.12 337.12 302.30 315.13
C 302.43 299.93 302.91 286.63 303.37 285.60
C 303.87 284.45 305.06 283.84 306.42 284.03
C 308.19 284.29 308.57 284.96 308.33 287.48
C 308.17 289.20 307.92 302.71 307.79 317.52
L 307.54 344.42
L 310.17 345.09
C 311.62 345.45 317.98 344.72 324.30 343.46
C 336.09 341.11 344.01 339.89 373.91 335.85
C 386.99 334.09 395.74 333.56 410.20 333.66
C 431.44 333.80 431.80 333.69 432.98 326.84
C 436.79 304.60 440.21 294.26 443.76 294.26
C 447.15 294.26 447.30 295.98 444.57 302.88
C 441.09 311.63 436.97 333.38 435.54 350.61
C 431.72 396.37 424.99 432.40 417.92 444.98
C 416.28 447.88 414.35 452.14 413.61 454.43
C 412.88 456.73 411.34 460.47 410.20 462.73
L 408.13 466.84
L 410.92 469.25
C 414.47 472.30 416.11 472.28 418.49 469.16
M 212.73 468.11
C 213.78 466.74 215.16 464.74 215.78 463.69
C 216.83 461.95 217.14 461.92 218.85 463.31
C 220.61 464.74 220.70 464.70 219.92 462.78
C 219.46 461.63 218.57 459.44 217.97 457.91
C 216.69 454.74 219.07 437.99 225.11 407.48
C 229.36 386.01 232.66 374.42 238.26 361.27
C 240.59 355.81 242.73 349.86 243.02 348.06
C 243.53 344.95 243.20 344.59 235.96 340.27
C 226.71 334.76 226.97 334.54 223.15 350.87
C 219.33 367.19 217.70 378.33 214.65 409.04
C 211.79 437.85 209.31 451.21 205.15 460.16
L 202.49 465.90
L 205.22 468.25
C 208.71 471.26 210.36 471.22 212.73 468.11
M 509.35 468.11
C 510.40 466.74 511.78 464.74 512.40 463.69
C 513.45 461.95 513.76 461.92 515.48 463.31
C 517.24 464.74 517.31 464.70 516.46 462.78
C 515.23 460.06 515.36 456.03 517.36 434.09
C 518.27 424.05 519.98 411.47 521.16 406.15
C 522.34 400.83 523.00 395.20 522.64 393.63
C 521.66 389.36 516.50 380.48 508.51 369.29
C 504.57 363.78 499.30 354.92 496.77 349.62
L 492.17 339.97
L 489.11 344.50
C 487.42 347.00 484.98 350.81 483.67 352.97
L 481.30 356.90
L 488.44 365.68
C 496.86 376.02 501.59 383.57 505.28 392.58
C 507.50 397.98 508.05 401.31 508.45 411.63
C 509.17 430.57 506.06 451.95 501.23 461.43
L 498.99 465.80
L 501.78 468.21
C 505.33 471.26 506.97 471.23 509.35 468.11
M 200.01 156.51
C 217.53 149.61 225.76 143.46 230.90 133.41
C 232.59 130.10 232.65 129.43 231.33 128.34
C 230.14 127.35 228.23 127.57 222.23 129.37
C 214.93 131.57 214.19 132.10 203.07 143.31
C 196.72 149.72 189.26 156.51 186.52 158.40
C 181.65 161.76 181.57 161.91 183.37 163.91
C 185.22 165.94 185.27 165.93 188.45 162.89
C 190.21 161.19 195.42 158.33 200.01 156.51
M 177.38 144.03
C 179.30 134.73 191.00 104.49 198.18 90.26
C 203.17 80.37 206.22 75.86 212.70 68.78
C 217.21 63.85 224.87 54.69 229.73 48.43
C 234.58 42.17 240.82 34.39 243.56 31.16
C 253.12 19.95 248.49 23.87 231.53 41.37
C 200.06 73.83 196.61 77.89 191.66 88.17
C 186.09 99.75 181.37 113.06 177.96 126.78
C 176.53 132.52 174.60 139.42 173.67 142.11
C 172.27 146.14 172.21 147.29 173.33 148.63
C 175.49 151.23 176.02 150.64 177.38 144.03
M 165.49 142.31
C 168.04 141.33 169.06 138.75 172.85 123.78
C 176.83 107.96 182.25 92.89 188.26 80.87
C 192.52 72.34 202.40 59.11 227.27 28.59
C 234.97 19.14 241.27 11.15 241.27 10.85
C 241.27 9.53 224.24 24.46 213.10 35.57
C 202.43 46.18 186.49 64.76 186.40 66.64
C 186.39 67.00 184.65 70.36 182.54 74.11
C 172.49 91.88 165.83 109.40 161.77 128.73
C 158.96 142.10 159.63 144.55 165.49 142.31"/>
<path fill="#000000" stroke="none" d="
M 5.22 567.13
L 5.22 545.74
L 28.20 545.74
L 51.18 545.74
L 51.18 567.13
L 51.18 588.52
L 28.20 588.52
L 5.22 588.52
L 5.22 567.13
M 47.00 567.13
L 47.00 549.91
L 28.20 549.91
L 9.40 549.91
L 9.40 567.13
L 9.40 584.35
L 28.20 584.35
L 47.00 584.35
L 47.00 567.13"/>
<path fill="#000000" stroke="none" d="
M 58.49 567.13
L 58.49 545.74
L 83.56 545.74
L 108.62 545.74
L 108.62 567.13
L 108.62 588.52
L 83.56 588.52
L 58.49 588.52
L 58.49 567.13
M 104.44 567.13
L 104.44 549.91
L 83.56 549.91
L 62.67 549.91
L 62.67 567.13
L 62.67 584.35
L 83.56 584.35
L 104.44 584.35
L 104.44 567.13"/>
<path fill="#000000" stroke="none" d="
M 115.93 567.13
L 115.93 545.74
L 141.00 545.74
L 166.07 545.74
L 166.07 567.13
L 166.07 588.52
L 141.00 588.52
L 115.93 588.52
L 115.93 567.13
M 161.89 567.13
L 161.89 549.91
L 141.00 549.91
L 120.11 549.91
L 120.11 567.13
L 120.11 584.35
L 141.00 584.35
L 161.89 584.35
L 161.89 567.13"/>
<path fill="#000000" stroke="none" d="
M 173.38 567.13
L 173.38 545.74
L 197.40 545.74
L 221.42 545.74
L 221.42 567.13
L 221.42 588.52
L 197.40 588.52
L 173.38 588.52
L 173.38 567.13
M 217.24 567.13
L 217.24 549.91
L 197.40 549.91
L 177.56 549.91
L 177.56 567.13
L 177.56 584.35
L 197.40 584.35
L 217.24 584.35
L 217.24 567.13"/>
<path fill="#000000" stroke="none" d="
M 228.73 567.13
L 228.73 545.74
L 253.28 545.74
L 277.82 545.74
L 277.82 567.13
L 277.82 588.52
L 253.28 588.52
L 228.73 588.52
L 228.73 567.13
M 273.64 567.13
L 273.64 549.91
L 253.28 549.91
L 232.91 549.91
L 232.91 567.13
L 232.91 584.35
L 253.28 584.35
L 273.64 584.35
L 273.64 567.13"/>
<path fill="#000000" stroke="none" d="
M 285.13 567.13
L 285.13 545.74
L 309.68 545.74
L 334.22 545.74
L 334.22 567.13
L 334.22 588.52
L 309.68 588.52
L 285.13 588.52
L 285.13 567.13
M 330.04 567.13
L 330.04 549.91
L 309.68 549.91
L 289.31 549.91
L 289.31 567.13
L 289.31 584.35
L 309.68 584.35
L 330.04 584.35
L 330.04 567.13"/>
<path fill="#000000" stroke="none" d="
M 341.53 567.13
L 341.53 545.74
L 366.08 545.74
L 390.62 545.74
L 390.62 567.13
L 390.62 588.52
L 366.08 588.52
L 341.53 588.52
L 341.53 567.13
M 386.44 567.13
L 386.44 549.91
L 366.08 549.91
L 345.71 549.91
L 345.71 567.13
L 345.71 584.35
L 366.08 584.35
L 386.44 584.35
L 386.44 567.13"/>
<path fill="#000000" stroke="none" d="
M 397.93 567.13
L 397.93 545.74
L 423.00 545.74
L 448.07 545.74
L 448.07 567.13
L 448.07 588.52
L 423.00 588.52
L 397.93 588.52
L 397.93 567.13
M 443.89 567.13
L 443.89 549.91
L 423.00 549.91
L 402.11 549.91
L 402.11 567.13
L 402.11 584.35
L 423.00 584.35
L 443.89 584.35
L 443.89 567.13"/>
<path fill="#000000" stroke="none" d="
M 455.38 567.13
L 455.38 545.74
L 479.40 545.74
L 503.42 545.74
L 503.42 567.13
L 503.42 588.52
L 479.40 588.52
L 455.38 588.52
L 455.38 567.13
M 499.24 567.13
L 499.24 549.91
L 479.40 549.91
L 459.56 549.91
L 459.56 567.13
L 459.56 584.35
L 479.40 584.35
L 499.24 584.35
L 499.24 567.13"/>
<path fill="#000000" stroke="none" d="
M 510.73 567.13
L 510.73 545.74
L 534.76 545.74
L 558.78 545.74
L 558.78 567.13
L 558.78 588.52
L 534.76 588.52
L 510.73 588.52
L 510.73 567.13
M 554.60 567.13
L 554.60 549.91
L 534.76 549.91
L 514.91 549.91
L 514.91 567.13
L 514.91 584.35
L 534.76 584.35
L 554.60 584.35
L 554.60 567.13"/>
<path fill="#000000" stroke="none" d="
M 5.22 516.00
L 5.22 493.57
L 28.20 493.57
L 51.18 493.57
L 51.18 516.00
L 51.18 538.43
L 28.20 538.43
L 5.22 538.43
L 5.22 516.00
M 47.00 516.00
L 47.00 497.74
L 28.20 497.74
L 9.40 497.74
L 9.40 516.00
L 9.40 534.26
L 28.20 534.26
L 47.00 534.26
L 47.00 516.00"/>
<path fill="#000000" stroke="none" d="
M 58.49 516.00
L 58.49 493.57
L 83.56 493.57
L 108.62 493.57
L 108.62 516.00
L 108.62 538.43
L 83.56 538.43
L 58.49 538.43
L 58.49 516.00
M 104.44 516.00
L 104.44 497.74
L 83.56 497.74
L 62.67 497.74
L 62.67 516.00
L 62.67 534.26
L 83.56 534.26
L 104.44 534.26
L 104.44 516.00"/>
<path fill="#000000" stroke="none" d="
M 115.93 516.00
L 115.93 493.57
L 141.00 493.57
L 166.07 493.57
L 166.07 516.00
L 166.07 538.43
L 141.00 538.43
L 115.93 538.43
L 115.93 516.00
M 161.89 516.00
L 161.89 497.74
L 141.00 497.74
L 120.11 497.74
L 120.11 516.00
L 120.11 534.26
L 141.00 534.26
L 161.89 534.26
L 161.89 516.00"/>
<path fill="#000000" stroke="none" d="
M 173.38 516.00
L 173.38 493.57
L 197.40 493.57
L 221.42 493.57
L 221.42 516.00
L 221.42 538.43
L 197.40 538.43
L 173.38 538.43
L 173.38 516.00
M 217.24 516.00
L 217.24 497.74
L 197.40 497.74
L 177.56 497.74
L 177.56 516.00
L 177.56 534.26
L 197.40 534.26
L 217.24 534.26
L 217.24 516.00"/>
<path fill="#000000" stroke="none" d="
M 228.73 516.00
L 228.73 493.57
L 253.28 493.57
L 277.82 493.57
L 277.82 516.00
L 277.82 538.43
L 253.28 538.43
L 228.73 538.43
L 228.73 516.00
M 273.64 516.00
L 273.64 497.74
L 253.28 497.74
L 232.91 497.74
L 232.91 516.00
L 232.91 534.26
L 253.28 534.26
L 273.64 534.26
L 273.64 516.00"/>
<path fill="#000000" stroke="none" d="
M 285.13 516.00
L 285.13 493.57
L 309.68 493.57
L 334.22 493.57
L 334.22 516.00
L 334.22 538.43
L 309.68 538.43
L 285.13 538.43
L 285.13 516.00
M 330.04 516.00
L 330.04 497.74
L 309.68 497.74
L 289.31 497.74
L 289.31 516.00
L 289.31 534.26
L 309.68 534.26
L 330.04 534.26
L 330.04 516.00"/>
<path fill="#000000" stroke="none" d="
M 341.53 516.00
L 341.53 493.57
L 366.08 493.57
L 390.62 493.57
L 390.62 516.00
L 390.62 538.43
L 366.08 538.43
L 341.53 538.43
L 341.53 516.00
M 386.44 516.00
L 386.44 497.74
L 366.08 497.74
L 345.71 497.74
L 345.71 516.00
L 345.71 534.26
L 366.08 534.26
L 386.44 534.26
L 386.44 516.00"/>
<path fill="#000000" stroke="none" d="
M 397.93 516.00
L 397.93 493.57
L 423.00 493.57
L 448.07 493.57
L 448.07 516.00
L 448.07 538.43
L 423.00 538.43
L 397.93 538.43
L 397.93 516.00
M 443.89 516.00
L 443.89 497.74
L 423.00 497.74
L 402.11 497.74
L 402.11 516.00
L 402.11 534.26
L 423.00 534.26
L 443.89 534.26
L 443.89 516.00"/>
<path fill="#000000" stroke="none" d="
M 455.38 516.00
L 455.38 493.57
L 479.40 493.57
L 503.42 493.57
L 503.42 516.00
L 503.42 538.43
L 479.40 538.43
L 455.38 538.43
L 455.38 516.00
M 499.24 516.00
L 499.24 497.74
L 479.40 497.74
L 459.56 497.74
L 459.56 516.00
L 459.56 534.26
L 479.40 534.26
L 499.24 534.26
L 499.24 516.00"/>
<path fill="#000000" stroke="none" d="
M 510.73 516.00
L 510.73 493.57
L 534.76 493.57
L 558.78 493.57
L 558.78 516.00
L 558.78 538.43
L 534.76 538.43
L 510.73 538.43
L 510.73 516.00
M 554.60 516.00
L 554.60 497.74
L 534.76 497.74
L 514.91 497.74
L 514.91 516.00
L 514.91 534.26
L 534.76 534.26
L 554.60 534.26
L 554.60 516.00"/>
<path fill="#000000" stroke="none" d="
M 95.49 231.54
C 94.70 230.25 100.17 225.29 101.83 225.78
C 103.43 226.25 103.72 229.48 102.31 231.18
C 100.83 232.97 96.52 233.20 95.49 231.54"/>
<path fill="#000000" stroke="none" d="
M 145.65 184.23
C 143.88 182.45 143.09 180.50 143.09 177.91
C 143.09 175.33 143.88 173.37 145.65 171.60
C 147.42 169.84 149.38 169.04 151.97 169.04
C 154.56 169.04 156.51 169.84 158.29 171.60
C 160.05 173.37 160.84 175.33 160.84 177.91
C 160.84 180.50 160.05 182.45 158.29 184.23
C 156.51 185.99 154.56 186.78 151.97 186.78
C 149.38 186.78 147.42 185.99 145.65 184.23
M 157.51 178.67
C 158.16 174.29 149.93 169.86 148.60 173.87
C 148.39 174.52 149.41 175.36 150.86 175.72
C 152.52 176.14 153.74 177.36 154.16 179.02
C 154.93 182.09 157.04 181.88 157.51 178.67"/>
<path fill="#4b3d2c" stroke="none" d="
M 173.33 148.63
C 172.21 147.29 172.27 146.14 173.67 142.11
C 174.60 139.42 176.53 132.52 177.96 126.78
C 181.37 113.06 186.09 99.75 191.66 88.17
C 196.61 77.89 200.06 73.83 231.53 41.37
C 248.49 23.87 253.12 19.95 243.56 31.16
C 240.82 34.39 234.58 42.17 229.73 48.43
C 224.87 54.69 217.21 63.85 212.70 68.78
C 206.22 75.86 203.17 80.37 198.18 90.26
C 191.00 104.49 179.30 134.73 177.38 144.03
C 176.02 150.64 175.49 151.23 173.33 148.63"/>
<path fill="#4b3d2c" stroke="none" d="
M 160.13 141.28
C 159.27 139.03 163.30 120.18 167.16 108.37
C 170.54 98.06 176.45 84.88 182.54 74.11
C 184.65 70.36 186.39 67.00 186.40 66.64
C 186.49 64.77 202.43 46.19 213.08 35.57
C 224.21 24.47 239.03 11.48 240.57 11.48
C 240.92 11.48 234.93 19.19 227.24 28.62
C 202.40 59.11 192.52 72.35 188.26 80.87
C 182.25 92.89 176.83 107.96 172.85 123.78
C 170.93 131.36 168.88 138.49 168.27 139.62
C 166.39 143.11 161.24 144.17 160.13 141.28"/>
<path fill="#c57a36" stroke="none" d="
M 183.37 163.91
C 181.57 161.91 181.65 161.76 186.58 158.40
C 189.37 156.51 196.05 150.39 201.43 144.79
C 212.63 133.16 215.52 131.13 224.00 128.92
C 232.01 126.83 233.70 127.93 230.90 133.41
C 225.76 143.46 217.53 149.61 200.01 156.51
C 195.42 158.33 190.21 161.19 188.45 162.89
C 185.27 165.93 185.22 165.94 183.37 163.91"/>
<path fill="#d7a776" stroke="none" d="
M 410.92 469.25
L 408.13 466.84
L 410.20 462.73
C 411.34 460.47 412.88 456.73 413.61 454.43
C 414.35 452.14 416.28 447.88 417.92 444.98
C 424.99 432.40 431.72 396.37 435.54 350.61
C 436.97 333.38 441.09 311.63 444.57 302.88
C 447.30 295.98 447.15 294.26 443.76 294.26
C 440.21 294.26 436.79 304.60 432.98 326.84
C 431.80 333.69 431.44 333.80 410.20 333.66
C 395.74 333.56 386.99 334.09 373.91 335.85
C 344.01 339.89 336.09 341.11 324.30 343.46
C 317.98 344.72 311.62 345.45 310.17 345.09
L 307.54 344.42
L 307.79 317.52
C 307.92 302.71 308.17 289.20 308.33 287.48
C 308.57 284.96 308.19 284.29 306.42 284.03
C 305.06 283.84 303.87 284.45 303.37 285.60
C 302.91 286.63 302.43 299.93 302.30 315.13
C 302.12 337.12 301.63 345.74 299.87 357.18
C 296.50 379.25 297.13 393.35 303.06 427.83
C 304.78 437.86 306.52 448.90 306.94 452.35
C 307.36 455.79 308.26 459.63 308.95 460.88
C 310.68 464.05 310.51 464.86 308.48 463.18
C 307.00 461.96 306.60 462.02 305.60 463.69
C 303.11 467.87 300.58 470.61 299.21 470.61
C 298.43 470.61 296.55 469.55 295.06 468.26
L 292.32 465.91
L 295.25 459.65
C 299.21 451.21 298.97 444.06 294.11 425.74
C 292.05 417.99 287.96 401.55 285.03 389.22
C 276.26 352.37 274.91 348.85 261.34 327.20
C 252.49 313.09 248.42 304.69 246.52 296.61
C 245.52 292.33 244.80 291.13 243.22 291.13
C 240.15 291.13 239.77 293.73 241.76 301.06
C 244.15 309.88 248.03 317.94 255.84 330.17
C 259.36 335.71 262.51 340.94 262.83 341.77
C 264.39 345.82 248.42 341.67 237.61 335.21
C 228.34 329.66 208.75 309.46 199.68 296.09
C 195.50 289.92 186.91 275.44 180.61 263.90
C 164.71 234.82 159.43 226.82 154.49 224.31
C 152.29 223.18 149.37 222.26 148.00 222.26
C 144.04 222.26 135.10 225.69 123.24 231.76
C 117.21 234.85 111.86 237.56 111.34 237.78
C 110.83 238.01 112.14 235.92 114.26 233.14
C 118.25 227.92 118.84 224.11 115.75 223.51
C 114.58 223.29 111.99 225.84 108.05 231.07
C 104.78 235.41 101.42 238.96 100.58 238.96
C 98.53 238.96 92.96 233.27 92.96 231.19
C 92.96 228.93 97.45 221.92 103.36 214.96
C 106.03 211.79 112.16 204.05 116.97 197.74
C 141.07 166.11 156.07 150.61 164.86 148.24
C 167.18 147.61 167.93 147.97 169.46 150.47
C 170.57 152.26 172.53 153.69 174.42 154.07
C 177.92 154.77 178.31 155.65 175.99 157.57
C 173.64 159.52 174.06 161.04 178.08 165.18
C 180.09 167.25 181.73 169.92 181.73 171.11
C 181.73 173.72 184.48 175.00 186.86 173.52
C 188.32 172.60 189.74 174.51 196.39 186.39
C 215.09 219.82 219.33 225.91 228.97 233.21
C 240.11 241.62 250.72 243.84 286.34 245.22
C 307.83 246.04 313.54 246.62 323.26 248.91
C 353.41 256.06 359.19 256.95 371.30 256.35
C 377.62 256.04 390.78 254.60 400.54 253.15
C 438.02 247.60 450.10 247.40 468.52 252.02
C 484.95 256.14 498.54 264.22 510.38 276.89
C 521.33 288.59 528.49 303.88 528.49 315.56
C 528.49 321.36 527.19 319.36 523.83 308.35
C 519.24 293.35 514.55 285.91 507.29 282.11
C 500.29 278.46 497.55 283.33 496.57 301.15
C 495.63 318.27 492.78 327.37 484.18 340.70
C 480.49 346.43 473.80 355.49 469.34 360.81
C 464.88 366.14 459.36 373.42 457.08 376.99
C 446.81 393.06 431.95 425.56 429.29 437.79
C 428.67 440.63 426.92 445.93 425.38 449.57
C 422.51 456.42 422.50 456.00 425.67 463.83
C 426.46 465.75 426.36 465.79 424.61 464.36
C 422.90 462.96 422.58 462.99 421.54 464.73
C 419.04 468.92 416.51 471.65 415.15 471.65
C 414.36 471.65 412.46 470.57 410.92 469.25
M 102.31 231.18
C 103.72 229.48 103.43 226.25 101.83 225.78
C 100.17 225.29 94.70 230.25 95.49 231.54
C 96.52 233.20 100.83 232.97 102.31 231.18
M 158.29 184.23
C 160.05 182.45 160.84 180.50 160.84 177.91
C 160.84 175.33 160.05 173.37 158.29 171.60
C 156.51 169.84 154.56 169.04 151.97 169.04
C 149.38 169.04 147.42 169.84 145.65 171.60
C 143.88 173.37 143.09 175.33 143.09 177.91
C 143.09 180.50 143.88 182.45 145.65 184.23
C 147.42 185.99 149.38 186.78 151.97 186.78
C 154.56 186.78 156.51 185.99 158.29 184.23"/>
<path fill="#d7a776" stroke="none" d="
M 205.22 468.25
L 202.49 465.90
L 205.15 460.16
C 209.31 451.21 211.79 437.85 214.65 409.04
C 217.70 378.33 219.33 367.19 223.15 350.87
C 226.97 334.54 226.71 334.76 235.96 340.27
C 243.20 344.59 243.53 344.95 243.02 348.06
C 242.73 349.86 240.59 355.81 238.26 361.27
C 232.66 374.42 229.36 386.01 225.11 407.48
C 219.07 437.99 216.69 454.74 217.97 457.91
C 218.57 459.44 219.46 461.63 219.92 462.78
C 220.70 464.70 220.61 464.74 218.85 463.31
C 217.14 461.92 216.83 461.95 215.78 463.69
C 213.29 467.87 210.76 470.61 209.39 470.61
C 208.61 470.61 206.73 469.54 205.22 468.25"/>
<path fill="#d7a776" stroke="none" d="
M 501.78 468.21
L 498.99 465.80
L 501.23 461.43
C 506.06 451.95 509.17 430.57 508.45 411.63
C 508.05 401.31 507.50 397.98 505.28 392.58
C 501.59 383.57 496.86 376.02 488.44 365.68
L 481.30 356.90
L 483.67 352.97
C 484.98 350.81 487.42 347.00 489.11 344.50
L 492.17 339.97
L 496.77 349.62
C 499.30 354.92 504.57 363.78 508.51 369.29
C 516.50 380.48 521.66 389.36 522.64 393.63
C 523.00 395.20 522.34 400.83 521.16 406.15
C 519.98 411.47 518.27 424.05 517.36 434.09
C 515.36 456.03 515.23 460.06 516.46 462.78
C 517.31 464.70 517.24 464.74 515.48 463.31
C 513.76 461.92 513.45 461.95 512.40 463.69
C 509.91 467.87 507.38 470.61 506.01 470.61
C 505.23 470.61 503.33 469.52 501.78 468.21"/>
<path fill="#eb2e00" stroke="none" d="
M 154.15 178.98
C 153.75 177.37 152.51 176.13 150.90 175.73
C 147.79 174.95 147.55 173.60 150.36 172.71
C 154.44 171.41 159.37 176.98 157.23 180.46
C 156.08 182.31 154.84 181.70 154.15 178.98"/>
<path fill="#c45a40" stroke="none" d="
M 49.67 465.65
C 48.26 434.68 44.15 408.64 37.17 386.67
C 35.26 380.65 33.94 375.47 34.26 375.17
C 34.79 374.63 122.22 374.34 122.18 374.87
C 122.17 375.02 120.55 380.19 118.57 386.37
C 111.49 408.52 107.37 434.46 105.95 465.65
L 105.21 482.09
L 77.81 482.09
L 50.42 482.09
L 49.67 465.65"/>
<path fill="#6a625b" stroke="none" d="
M 203.25 480.78
C 204.85 477.99 206.03 476.91 206.93 477.46
C 208.28 478.31 205.96 482.09 204.09 482.09
C 203.11 482.09 202.79 481.59 203.25 480.78"/>
<path fill="#6a625b" stroke="none" d="
M 293.07 480.78
C 294.67 477.99 295.85 476.91 296.75 477.46
C 298.11 478.31 295.79 482.09 293.92 482.09
C 292.94 482.09 292.61 481.59 293.07 480.78"/>
<path fill="#6a625b" stroke="none" d="
M 398.59 481.25
C 398.17 480.58 399.41 478.37 401.38 476.21
C 405.99 471.19 407.17 473.11 402.73 478.39
C 400.54 481.00 399.06 482.02 398.59 481.25"/>
<path fill="#6a625b" stroke="none" d="
M 409.42 481.17
C 409.42 479.87 412.11 477.81 412.84 478.55
C 413.85 479.55 412.44 482.09 410.87 482.09
C 410.08 482.09 409.42 481.68 409.42 481.17"/>
<path fill="#6a625b" stroke="none" d="
M 499.87 480.78
C 501.47 477.99 502.65 476.91 503.55 477.46
C 504.91 478.31 502.59 482.09 500.72 482.09
C 499.74 482.09 499.41 481.59 499.87 480.78"/>
<path fill="#6a625b" stroke="none" d="
M 192.85 480.23
C 191.95 478.79 197.61 472.24 199.27 472.81
C 199.97 473.05 199.04 474.91 197.01 477.31
C 194.84 479.89 193.30 480.97 192.85 480.23"/>
<path fill="#6a625b" stroke="none" d="
M 282.66 480.21
C 282.24 479.54 283.47 477.33 285.45 475.17
C 290.05 470.15 291.23 472.07 286.79 477.35
C 284.61 479.96 283.13 480.98 282.66 480.21"/>
<path fill="#6a625b" stroke="none" d="
M 489.46 480.21
C 489.04 479.54 490.27 477.33 492.25 475.17
C 496.85 470.15 498.03 472.07 493.59 477.35
C 491.41 479.96 489.93 480.98 489.46 480.21"/>
<path fill="#0885ff" stroke="none" d="
M 6.27 593.74
C 4.24 591.71 4.18 590.26 4.18 541.24
C 4.18 499.36 4.43 490.49 5.66 488.81
C 7.12 486.81 11.28 486.78 281.38 486.51
C 554.67 486.25 555.64 486.26 557.72 488.34
C 559.77 490.38 559.82 491.78 559.82 541.04
C 559.82 590.26 559.77 591.70 557.73 593.74
C 555.65 595.82 554.26 595.83 282.00 595.83
C 9.74 595.83 8.35 595.82 6.27 593.74
M 51.18 567.13
L 51.18 545.74
L 28.20 545.74
L 5.22 545.74
L 5.22 567.13
L 5.22 588.52
L 28.20 588.52
L 51.18 588.52
L 51.18 567.13
M 108.62 567.13
L 108.62 545.74
L 83.56 545.74
L 58.49 545.74
L 58.49 567.13
L 58.49 588.52
L 83.56 588.52
L 108.62 588.52
L 108.62 567.13
M 166.07 567.13
L 166.07 545.74
L 141.00 545.74
L 115.93 545.74
L 115.93 567.13
L 115.93 588.52
L 141.00 588.52
L 166.07 588.52
L 166.07 567.13
M 221.42 567.13
L 221.42 545.74
L 197.40 545.74
L 173.38 545.74
L 173.38 567.13
L 173.38 588.52
L 197.40 588.52
L 221.42 588.52
L 221.42 567.13
M 277.82 567.13
L 277.82 545.74
L 253.28 545.74
L 228.73 545.74
L 228.73 567.13
L 228.73 588.52
L 253.28 588.52
L 277.82 588.52
L 277.82 567.13
M 334.22 567.13
L 334.22 545.74
L 309.68 545.74
L 285.13 545.74
L 285.13 567.13
L 285.13 588.52
L 309.68 588.52
L 334.22 588.52
L 334.22 567.13
M 390.62 567.13
L 390.62 545.74
L 366.08 545.74
L 341.53 545.74
L 341.53 567.13
L 341.53 588.52
L 366.08 588.52
L 390.62 588.52
L 390.62 567.13
M 448.07 567.13
L 448.07 545.74
L 423.00 545.74
L 397.93 545.74
L 397.93 567.13
L 397.93 588.52
L 423.00 588.52
L 448.07 588.52
L 448.07 567.13
M 503.42 567.13
L 503.42 545.74
L 479.40 545.74
L 455.38 545.74
L 455.38 567.13
L 455.38 588.52
L 479.40 588.52
L 503.42 588.52
L 503.42 567.13
M 558.78 567.13
L 558.78 545.74
L 534.76 545.74
L 510.73 545.74
L 510.73 567.13
L 510.73 588.52
L 534.76 588.52
L 558.78 588.52
L 558.78 567.13
M 51.18 516.00
L 51.18 493.57
L 28.20 493.57
L 5.22 493.57
L 5.22 516.00
L 5.22 538.43
L 28.20 538.43
L 51.18 538.43
L 51.18 516.00
M 108.62 516.00
L 108.62 493.57
L 83.56 493.57
L 58.49 493.57
L 58.49 516.00
L 58.49 538.43
L 83.56 538.43
L 108.62 538.43
L 108.62 516.00
M 166.07 516.00
L 166.07 493.57
L 141.00 493.57
L 115.93 493.57
L 115.93 516.00
L 115.93 538.43
L 141.00 538.43
L 166.07 538.43
L 166.07 516.00
M 221.42 516.00
L 221.42 493.57
L 197.40 493.57
L 173.38 493.57
L 173.38 516.00
L 173.38 538.43
L 197.40 538.43
L 221.42 538.43
L 221.42 516.00
M 277.82 516.00
L 277.82 493.57
L 253.28 493.57
L 228.73 493.57
L 228.73 516.00
L 228.73 538.43
L 253.28 538.43
L 277.82 538.43
L 277.82 516.00
M 334.22 516.00
L 334.22 493.57
L 309.68 493.57
L 285.13 493.57
L 285.13 516.00
L 285.13 538.43
L 309.68 538.43
L 334.22 538.43
L 334.22 516.00
M 390.62 516.00
L 390.62 493.57
L 366.08 493.57
L 341.53 493.57
L 341.53 516.00
L 341.53 538.43
L 366.08 538.43
L 390.62 538.43
L 390.62 516.00
M 448.07 516.00
L 448.07 493.57
L 423.00 493.57
L 397.93 493.57
L 397.93 516.00
L 397.93 538.43
L 423.00 538.43
L 448.07 538.43
L 448.07 516.00
M 503.42 516.00
L 503.42 493.57
L 479.40 493.57
L 455.38 493.57
L 455.38 516.00
L 455.38 538.43
L 479.40 538.43
L 503.42 538.43
L 503.42 516.00
M 558.78 516.00
L 558.78 493.57
L 534.76 493.57
L 510.73 493.57
L 510.73 516.00
L 510.73 538.43
L 534.76 538.43
L 558.78 538.43
L 558.78 516.00"/>
<path fill="#cf6a40" stroke="none" d="
M 9.40 567.13
L 9.40 549.91
L 28.20 549.91
L 47.00 549.91
L 47.00 567.13
L 47.00 584.35
L 28.20 584.35
L 9.40 584.35
L 9.40 567.13"/>
<path fill="#cf6a40" stroke="none" d="
M 62.67 567.13
L 62.67 549.91
L 83.56 549.91
L 104.44 549.91
L 104.44 567.13
L 104.44 584.35
L 83.56 584.35
L 62.67 584.35
L 62.67 567.13"/>
<path fill="#cf6a40" stroke="none" d="
M 120.11 567.13
L 120.11 549.91
L 141.00 549.91
L 161.89 549.91
L 161.89 567.13
L 161.89 584.35
L 141.00 584.35
L 120.11 584.35
L 120.11 567.13"/>
<path fill="#cf6a40" stroke="none" d="
M 177.56 567.13
L 177.56 549.91
L 197.40 549.91
L 217.24 549.91
L 217.24 567.13
L 217.24 584.35
L 197.40 584.35
L 177.56 584.35
L 177.56 567.13"/>
<path fill="#cf6a40" stroke="none" d="
M 232.91 567.13
L 232.91 549.91
L 253.28 549.91
L 273.64 549.91
L 273.64 567.13
L 273.64 584.35
L 253.28 584.35
L 232.91 584.35
L 232.91 567.13"/>
<path fill="#cf6a40" stroke="none" d="
M 289.31 567.13
L 289.31 549.91
L 309.68 549.91
L 330.04 549.91
L 330.04 567.13
L 330.04 584.35
L 309.68 584.35
L 289.31 584.35
L 289.31 567.13"/>
<path fill="#cf6a40" stroke="none" d="
M 345.71 567.13
L 345.71 549.91
L 366.08 549.91
L 386.44 549.91
L 386.44 567.13
L 386.44 584.35
L 366.08 584.35
L 345.71 584.35
L 345.71 567.13"/>
<path fill="#cf6a40" stroke="none" d="
M 402.11 567.13
L 402.11 549.91
L 423.00 549.91
L 443.89 549.91
L 443.89 567.13
L 443.89 584.35
L 423.00 584.35
L 402.11 584.35
L 402.11 567.13"/>
<path fill="#cf6a40" stroke="none" d="
M 459.56 567.13
L 459.56 549.91
L 479.40 549.91
L 499.24 549.91
L 499.24 567.13
L 499.24 584.35
L 479.40 584.35
L 459.56 584.35
L 459.56 567.13"/>
<path fill="#cf6a40" stroke="none" d="
M 514.91 567.13
L 514.91 549.91
L 534.76 549.91
L 554.60 549.91
L 554.60 567.13
L 554.60 584.35
L 534.76 584.35
L 514.91 584.35
L 514.91 567.13"/>
<path fill="#cf6a40" stroke="none" d="
M 9.64 516.26
L 9.92 498.26
L 28.46 497.98
L 47.00 497.69
L 47.00 515.98
L 47.00 534.26
L 28.18 534.26
L 9.35 534.26
L 9.64 516.26"/>
<path fill="#cf6a40" stroke="none" d="
M 62.67 516.00
L 62.67 497.74
L 83.56 497.74
L 104.44 497.74
L 104.44 516.00
L 104.44 534.26
L 83.56 534.26
L 62.67 534.26
L 62.67 516.00"/>
<path fill="#cf6a40" stroke="none" d="
M 120.11 516.00
L 120.11 497.74
L 141.00 497.74
L 161.89 497.74
L 161.89 516.00
L 161.89 534.26
L 141.00 534.26
L 120.11 534.26
L 120.11 516.00"/>
<path fill="#cf6a40" stroke="none" d="
M 177.56 516.00
L 177.56 497.74
L 197.40 497.74
L 217.24 497.74
L 217.24 516.00
L 217.24 534.26
L 197.40 534.26
L 177.56 534.26
L 177.56 516.00"/>
<path fill="#cf6a40" stroke="none" d="
M 232.91 516.00
L 232.91 497.74
L 253.28 497.74
L 273.64 497.74
L 273.64 516.00
L 273.64 534.26
L 253.28 534.26
L 232.91 534.26
L 232.91 516.00"/>
<path fill="#cf6a40" stroke="none" d="
M 289.31 516.00
L 289.31 497.74
L 309.68 497.74
L 330.04 497.74
L 330.04 516.00
L 330.04 534.26
L 309.68 534.26
L 289.31 534.26
L 289.31 516.00"/>
<path fill="#cf6a40" stroke="none" d="
M 345.71 516.00
L 345.71 497.74
L 366.08 497.74
L 386.44 497.74
L 386.44 516.00
L 386.44 534.26
L 366.08 534.26
L 345.71 534.26
L 345.71 516.00"/>
<path fill="#cf6a40" stroke="none" d="
M 402.11 516.00
L 402.11 497.74
L 423.00 497.74
L 443.89 497.74
L 443.89 516.00
L 443.89 534.26
L 423.00 534.26
L 402.11 534.26
L 402.11 516.00"/>
<path fill="#cf6a40" stroke="none" d="
M 459.56 516.00
L 459.56 497.74
L 479.40 497.74
L 499.24 497.74
L 499.24 516.00
L 499.24 534.26
L 479.40 534.26
L 459.56 534.26
L 459.56 516.00"/>
<path fill="#cf6a40" stroke="none" d="
M 514.91 516.00
L 514.91 497.74
L 534.76 497.74
L 554.60 497.74
L 554.60 516.00
L 554.60 534.26
L 534.76 534.26
L 514.91 534.26
L 514.91 516.00"/>
</g>
</svg>
