<?xml version="1.0" encoding="UTF-8" standalone="no"?>
<!DOCTYPE svg PUBLIC "-//W3C//DTD SVG 1.1//EN"
"http://www.w3.org/Graphics/SVG/1.1/DTD/svg11.dtd">
<svg width="572px" height="600px"
xmlns="http://www.w3.org/2000/svg" version="1.1">
<g transform="translate(0000, 0000) scale(1.0000, 1.0000)">
<path fill="#0d0804" stroke="none" d="
M 251.07 598.18
C 248.62 596.39 248.62 596.26 251.46 590.76
C 253.05 587.68 256.97 581.10 260.19 576.13
C 268.70 562.98 268.88 562.30 268.21 546.45
C 267.70 534.53 266.67 529.05 261.76 512.26
C 252.67 481.12 242.03 458.66 229.86 444.84
C 224.85 439.16 224.00 438.71 218.38 438.71
C 212.70 438.71 211.86 439.17 205.08 446.13
C 188.46 463.16 157.23 505.96 145.34 528.01
C 137.01 543.45 129.95 565.30 131.90 569.59
C 133.81 573.78 132.49 576.77 128.72 576.77
C 124.83 576.77 122.26 579.61 118.83 587.74
C 117.32 591.29 115.14 594.92 113.96 595.81
C 110.88 598.15 86.50 598.00 83.23 595.60
C 80.84 593.86 81.04 593.20 88.68 577.86
C 110.02 534.99 112.92 527.90 134.09 466.45
C 140.44 448.00 147.18 428.90 149.07 424.00
L 152.48 415.11
L 149.20 408.52
C 147.39 404.90 141.58 396.76 136.29 390.44
C 125.35 377.37 121.94 370.83 112.37 344.52
C 108.63 334.22 103.80 322.32 101.63 318.06
L 97.68 310.32
L 96.59 315.48
C 94.75 324.36 86.82 328.05 81.35 322.58
C 78.03 319.26 78.07 314.36 81.53 301.56
C 83.84 292.99 83.99 291.16 82.49 290.21
C 79.18 288.12 71.91 289.07 55.84 293.70
C 49.69 295.48 49.07 296.01 49.07 299.38
C 49.07 310.04 42.51 327.61 37.54 330.27
C 29.21 334.74 25.13 329.08 25.32 313.38
L 25.46 302.15
L 20.09 300.80
C 7.64 297.66 0.00 288.00 0.00 275.39
C 0.00 267.81 2.53 263.33 13.48 251.48
C 18.04 246.55 23.38 238.05 30.21 224.85
C 36.58 212.55 43.40 201.55 48.86 194.80
C 53.58 188.94 58.28 183.02 59.29 181.66
C 60.87 179.52 60.87 176.61 59.36 160.88
C 57.25 139.03 57.24 108.65 59.32 96.13
C 63.67 70.03 73.86 50.09 92.32 31.55
C 103.01 20.80 107.23 17.55 116.90 12.59
C 123.32 9.30 132.90 5.38 138.21 3.88
C 150.77 0.31 179.04 -1.05 193.28 1.24
C 215.60 4.81 237.86 14.31 250.71 25.75
C 259.05 33.19 266.24 45.42 263.74 47.92
C 261.62 50.04 245.52 44.50 227.04 35.33
C 212.61 28.15 202.99 25.73 189.81 25.95
C 185.89 26.01 181.26 26.53 179.48 27.10
C 176.69 27.99 176.96 28.14 181.49 28.26
C 197.46 28.65 236.12 43.54 255.81 56.89
C 268.79 65.68 278.32 79.37 275.89 85.70
C 274.28 89.91 263.93 86.88 249.72 78.03
C 223.82 61.90 201.94 56.67 179.41 61.23
C 146.99 67.78 131.79 89.79 125.85 138.81
C 123.64 157.06 123.74 170.62 126.07 172.95
C 126.94 173.82 130.10 173.23 135.67 171.14
C 152.39 164.88 159.64 163.37 164.12 165.21
C 168.40 166.99 171.73 172.85 171.73 178.62
C 171.73 184.79 166.24 196.58 160.53 202.68
C 153.94 209.73 153.86 209.20 163.74 225.90
C 180.28 253.90 195.85 267.75 220.79 276.71
C 234.03 281.46 243.51 283.50 260.00 285.16
C 283.16 287.48 306.23 284.55 360.85 272.31
C 405.01 262.41 417.50 260.49 442.23 259.73
C 459.03 259.23 466.97 259.55 476.05 261.14
C 512.62 267.51 546.92 290.14 563.31 318.71
C 568.05 326.98 572.00 339.57 572.00 346.45
C 572.00 353.82 569.00 361.29 566.06 361.29
C 563.72 361.29 555.87 353.64 542.56 338.39
C 533.91 328.49 523.62 320.43 522.31 322.54
C 521.89 323.23 523.68 330.05 526.30 337.70
C 532.72 356.40 533.68 374.62 529.52 398.92
C 526.19 418.37 526.41 419.86 536.40 444.27
C 547.73 471.95 548.53 481.88 541.28 504.57
C 537.51 516.35 537.37 517.72 537.06 543.87
C 536.88 558.77 536.97 572.71 537.27 574.84
C 537.71 578.17 537.33 578.77 534.56 579.16
C 529.83 579.81 528.10 581.69 524.16 590.45
C 522.22 594.79 519.65 598.70 518.45 599.16
C 517.25 599.63 510.62 600.00 503.71 600.00
C 488.51 600.00 485.30 598.52 487.89 592.72
C 488.80 590.70 490.86 587.01 492.48 584.52
C 506.16 563.43 506.45 562.83 509.66 547.37
C 512.30 534.72 512.70 529.95 512.13 518.06
C 510.54 485.35 498.44 455.83 481.72 443.95
L 478.13 441.39
L 476.09 451.77
C 473.25 466.12 466.24 479.43 448.64 503.87
C 439.65 516.34 431.14 529.88 427.18 538.06
C 423.55 545.51 419.25 553.41 417.62 555.60
C 415.00 559.12 414.80 560.25 415.91 565.17
C 417.47 572.08 416.73 574.19 412.78 574.19
C 408.90 574.19 406.33 577.03 402.89 585.16
C 401.38 588.71 399.20 592.34 398.02 593.23
C 394.93 595.59 370.56 595.42 367.28 593.02
C 364.83 591.23 364.83 591.10 367.67 585.60
C 369.26 582.52 373.19 575.94 376.42 570.97
C 379.65 566.00 383.18 560.00 384.25 557.63
C 385.32 555.26 390.48 546.48 395.73 538.09
C 412.40 511.48 423.78 486.18 429.90 462.22
C 435.20 441.47 438.12 411.11 435.25 406.59
C 433.95 404.54 434.53 404.37 411.25 413.92
C 392.54 421.59 383.92 423.77 375.94 422.83
C 370.61 422.19 368.21 422.90 354.94 429.03
C 337.03 437.30 325.28 440.00 303.04 440.95
C 282.36 441.85 282.77 441.43 282.77 461.01
C 282.77 478.39 284.06 487.01 291.38 518.71
C 296.74 541.94 301.68 575.68 300.09 578.26
C 299.71 578.86 298.07 579.35 296.46 579.35
C 292.68 579.35 290.09 582.26 286.68 590.32
C 285.17 593.87 282.99 597.50 281.82 598.39
C 278.72 600.75 254.35 600.58 251.07 598.18
M 276.28 592.34
C 277.80 589.48 275.98 587.56 274.08 590.01
C 271.33 593.57 271.04 594.84 272.97 594.84
C 274.04 594.84 275.54 593.72 276.28 592.34
M 513.86 592.34
C 515.38 589.48 513.56 587.56 511.66 590.01
C 508.91 593.57 508.62 594.84 510.55 594.84
C 511.62 594.84 513.12 593.72 513.86 592.34
M 267.63 582.75
C 267.21 582.08 264.90 583.66 262.50 586.28
C 260.06 588.95 258.54 591.69 259.05 592.52
C 259.63 593.47 261.47 592.21 264.17 588.98
C 266.49 586.22 268.04 583.42 267.63 582.75
M 505.21 582.75
C 504.79 582.08 502.48 583.66 500.08 586.28
C 497.64 588.95 496.12 591.69 496.63 592.52
C 497.21 593.47 499.05 592.21 501.75 588.98
C 504.07 586.22 505.62 583.42 505.21 582.75
M 108.42 589.75
C 109.95 586.90 108.12 584.98 106.23 587.43
C 103.48 590.99 103.18 592.26 105.12 592.26
C 106.19 592.26 107.69 591.14 108.42 589.75
M 99.77 580.17
C 99.36 579.50 97.05 581.08 94.64 583.70
C 92.20 586.37 90.68 589.11 91.20 589.94
C 91.78 590.89 93.61 589.63 96.31 586.40
C 98.63 583.64 100.18 580.84 99.77 580.17
M 392.48 587.17
C 394.01 584.32 392.19 582.40 390.29 584.85
C 387.54 588.41 387.24 589.68 389.18 589.68
C 390.25 589.68 391.75 588.55 392.48 587.17
M 383.83 577.59
C 383.42 576.92 381.11 578.50 378.71 581.12
C 376.27 583.79 374.74 586.53 375.26 587.35
C 375.84 588.31 377.67 587.05 380.37 583.82
C 382.70 581.06 384.25 578.26 383.83 577.59
M 283.65 577.56
C 284.94 575.86 286.65 573.39 287.42 572.09
C 288.54 570.21 289.24 570.03 290.66 571.19
C 294.26 574.18 291.86 552.99 285.29 523.87
C 277.14 487.69 275.83 477.12 276.64 454.09
C 277.39 432.68 277.09 431.48 267.82 418.50
C 261.65 409.85 260.98 406.06 265.50 405.42
C 267.59 405.12 269.58 407.05 274.19 413.81
C 277.47 418.63 281.09 425.34 282.23 428.71
L 284.31 434.84
L 296.12 434.84
C 316.73 434.83 330.07 431.88 349.82 423.01
C 360.51 418.19 369.18 413.38 372.05 410.67
C 377.02 405.95 381.20 405.45 381.97 409.47
C 382.22 410.75 381.41 412.93 380.17 414.28
C 378.42 416.22 378.33 416.77 379.74 416.76
C 385.71 416.74 429.80 399.37 430.85 396.63
C 431.16 395.83 429.05 387.51 426.16 378.13
C 420.14 358.55 416.32 340.54 417.52 337.43
C 417.97 336.26 419.35 335.48 420.61 335.73
C 422.30 336.05 423.42 338.76 425.06 346.46
C 428.13 360.90 439.96 399.94 442.38 403.61
C 445.71 408.70 451.75 413.64 469.96 426.13
C 491.13 440.66 499.51 448.90 505.52 461.11
C 513.73 477.77 519.05 502.09 519.06 522.95
C 519.06 537.63 514.46 564.43 510.95 570.19
L 508.28 574.58
L 511.80 577.61
C 513.74 579.28 516.13 580.65 517.10 580.65
C 518.79 580.65 521.91 577.26 525.00 572.09
C 526.18 570.13 526.78 569.99 528.37 571.30
C 530.05 572.70 530.23 572.10 529.76 566.77
C 529.46 563.41 529.79 549.03 530.50 534.84
C 531.68 511.16 532.13 508.01 535.89 496.77
C 541.39 480.31 540.80 475.07 530.76 450.19
C 526.54 439.77 522.44 427.61 521.64 423.20
C 520.15 414.97 520.26 413.21 523.80 392.49
C 526.94 374.10 525.76 358.83 519.90 341.73
C 517.30 334.17 515.19 326.19 515.19 323.99
C 515.19 318.95 519.19 314.84 524.10 314.84
C 529.56 314.84 541.15 324.13 553.17 338.15
C 562.60 349.15 563.49 349.86 564.47 347.17
C 565.94 343.23 560.61 328.21 554.47 318.94
C 539.86 296.95 514.12 278.97 484.81 270.26
C 475.24 267.42 469.85 266.71 453.86 266.19
C 429.49 265.41 413.91 267.59 361.53 279.17
C 312.50 290.01 298.54 292.08 274.38 292.08
C 244.72 292.08 216.71 285.72 197.94 274.71
C 185.44 267.39 168.48 249.25 158.87 232.94
C 154.29 225.16 149.87 216.21 149.07 213.05
C 148.02 208.94 146.74 206.98 144.58 206.18
C 140.31 204.61 135.12 206.04 131.64 209.74
C 128.50 213.08 124.70 213.86 123.22 211.47
C 122.62 210.50 123.26 210.34 125.19 210.95
C 127.85 211.79 128.02 211.51 127.62 206.95
C 127.20 202.13 127.30 202.00 133.64 199.63
C 138.80 197.69 140.97 197.47 144.47 198.54
C 151.21 200.59 157.16 196.81 161.89 187.48
C 164.72 181.90 164.52 177.32 161.31 174.10
C 158.11 170.90 154.92 171.37 140.74 177.10
C 133.04 180.21 129.58 182.55 123.92 188.57
C 119.98 192.72 115.73 196.13 114.46 196.13
C 113.20 196.13 111.04 196.74 109.66 197.47
C 105.87 199.50 106.58 197.88 113.75 188.22
C 119.91 179.91 120.24 179.10 118.92 175.29
C 115.88 166.61 118.62 130.70 123.97 109.03
C 127.56 94.48 135.37 79.29 143.53 71.01
C 152.24 62.15 162.46 57.43 180.47 53.91
L 194.74 51.12
L 211.20 54.53
C 228.63 58.14 241.07 63.24 256.90 73.29
C 261.49 76.21 265.56 78.27 265.93 77.90
C 266.32 77.51 262.56 73.33 257.58 68.59
C 250.31 61.69 245.12 58.30 231.11 51.30
C 207.04 39.30 196.38 35.99 179.14 35.16
C 161.15 34.31 151.56 36.17 140.53 42.66
C 116.75 56.66 104.51 75.60 95.99 111.61
C 92.48 126.45 92.32 128.41 92.36 158.81
L 92.39 190.53
L 89.45 191.92
C 86.74 193.20 86.51 193.01 86.51 189.56
C 86.51 186.26 86.05 185.81 82.70 185.81
C 80.61 185.81 75.81 186.45 72.05 187.24
C 66.37 188.43 64.13 189.79 58.87 195.30
C 50.86 203.69 43.87 214.52 33.62 234.44
C 27.99 245.39 23.03 252.94 17.29 259.32
C 12.76 264.35 9.04 269.39 9.04 270.53
C 9.04 272.19 9.40 272.27 10.96 270.98
C 12.02 270.10 13.76 269.73 14.84 270.14
C 18.04 271.37 17.06 275.86 12.91 278.92
C 8.47 282.19 8.11 283.95 11.30 286.74
C 13.34 288.53 14.06 288.48 18.72 286.31
C 21.56 284.99 24.83 283.23 25.97 282.40
C 27.12 281.56 29.00 281.24 30.16 281.69
C 33.80 283.08 32.58 287.35 27.67 290.39
C 21.10 294.44 23.73 296.18 32.42 293.52
C 36.26 292.36 41.71 290.59 44.55 289.61
C 53.68 286.44 71.49 282.59 77.12 282.59
C 87.22 282.57 92.45 285.75 98.00 295.32
C 106.67 310.21 111.80 321.39 118.79 340.65
C 127.89 365.72 130.90 371.34 143.76 387.45
C 149.79 394.99 155.07 402.26 155.50 403.59
C 157.63 410.30 176.67 421.32 198.43 428.45
C 209.57 432.09 212.09 432.52 214.89 431.24
C 216.73 430.41 218.21 429.21 218.21 428.58
C 218.21 427.95 215.27 423.43 211.67 418.55
C 203.11 406.95 191.30 382.52 185.20 363.75
C 180.12 348.13 180.04 344.04 184.81 344.75
C 187.04 345.08 188.01 346.88 189.91 354.19
C 194.73 372.77 206.95 399.15 216.83 412.27
C 219.50 415.82 222.62 420.46 223.73 422.59
C 224.85 424.71 230.21 432.26 235.63 439.35
C 251.49 460.09 262.01 483.92 271.19 519.91
C 274.35 532.27 275.01 537.46 275.01 550.04
C 275.02 560.90 274.46 566.62 273.01 570.04
C 271.05 574.74 271.07 574.90 274.38 577.74
C 278.68 581.45 280.72 581.41 283.65 577.56
M 115.79 574.98
C 117.09 573.28 118.79 570.81 119.56 569.51
C 120.79 567.45 121.29 567.37 123.12 568.88
C 125.03 570.46 125.17 570.25 124.46 566.68
C 122.53 557.11 137.02 524.10 154.69 497.81
C 163.66 484.46 190.66 449.42 197.95 441.65
C 200.87 438.54 201.39 437.34 200.03 436.85
C 183.31 430.90 174.89 427.47 167.57 423.64
C 162.72 421.08 158.61 419.23 158.46 419.50
C 157.69 420.84 150.68 440.68 136.85 480.65
C 120.11 529.08 119.55 530.55 109.26 553.37
C 101.60 570.36 101.49 571.87 107.47 576.06
C 111.38 578.80 113.04 578.58 115.79 574.98
M 399.86 572.40
C 401.15 570.70 402.85 568.23 403.63 566.93
C 404.92 564.77 405.31 564.74 407.42 566.46
C 409.59 568.23 409.71 568.18 408.74 565.81
C 406.12 559.38 406.43 557.24 410.96 550.57
C 413.47 546.89 418.13 538.65 421.32 532.26
C 424.49 525.87 433.33 511.94 440.93 501.29
C 462.76 470.68 468.52 459.45 470.69 443.14
L 471.54 436.68
L 462.70 430.72
C 457.83 427.46 451.49 423.01 448.61 420.85
L 443.38 416.92
L 441.80 432.85
C 438.05 470.62 426.73 502.05 402.26 542.63
C 396.99 551.35 391.41 560.98 389.86 564.03
L 387.05 569.54
L 390.50 572.52
C 394.89 576.28 396.91 576.26 399.86 572.40
M 38.05 315.81
C 39.72 312.08 41.49 306.50 41.99 303.42
C 42.85 297.97 42.79 297.83 39.83 298.68
C 38.17 299.16 35.84 299.82 34.68 300.14
C 30.61 301.26 30.28 322.58 34.33 322.58
C 34.71 322.58 36.37 319.54 38.05 315.81
M 90.75 308.80
C 92.41 301.56 91.92 295.82 89.93 299.05
C 88.23 301.81 85.39 315.05 86.10 316.90
C 87.28 320.01 88.77 317.45 90.75 308.80
M 80.88 179.37
L 84.93 179.35
L 85.58 151.29
C 86.39 115.88 90.25 96.30 100.84 73.99
C 114.04 46.15 144.07 26.15 182.87 19.33
C 190.84 17.92 193.78 18.01 204.63 19.96
C 214.83 21.79 220.30 23.77 234.00 30.52
C 243.26 35.08 251.41 38.62 252.11 38.39
C 254.53 37.57 236.87 24.37 226.60 19.32
C 220.92 16.53 211.05 12.67 204.65 10.76
C 194.30 7.66 190.85 7.28 173.02 7.19
C 150.11 7.08 142.69 8.57 125.89 16.62
C 107.48 25.45 93.52 38.04 81.64 56.59
C 67.67 78.40 61.72 107.95 64.52 141.57
C 65.35 151.35 66.35 164.21 66.77 170.14
L 67.53 180.92
L 72.18 180.15
C 74.73 179.73 78.65 179.38 80.88 179.37"/>
<path fill="#0d0804" stroke="none" d="
M 112.33 201.94
C 112.33 201.57 112.62 201.29 112.98 201.29
C 113.34 201.29 113.63 201.57 113.63 201.94
C 113.63 202.30 113.34 202.58 112.98 202.58
C 112.62 202.58 112.33 202.30 112.33 201.94"/>
<path fill="#452f1a" stroke="none" d="
M 96.28 196.98
C 93.51 194.21 93.17 192.43 92.29 176.13
C 90.87 149.57 92.06 129.68 96.14 111.61
C 104.19 76.08 116.66 56.71 140.53 42.66
C 151.56 36.17 161.15 34.31 179.14 35.16
C 196.38 35.99 207.04 39.30 231.11 51.30
C 245.12 58.30 250.31 61.69 257.58 68.59
C 262.56 73.33 266.32 77.51 265.93 77.90
C 265.56 78.27 261.49 76.21 256.90 73.29
C 241.07 63.24 228.63 58.14 211.20 54.53
L 194.74 51.12
L 180.47 53.91
C 162.46 57.43 152.24 62.15 143.53 71.01
C 135.37 79.29 127.56 94.48 123.97 109.03
C 118.62 130.70 115.88 166.61 118.92 175.29
C 120.25 179.10 119.91 179.92 113.46 188.71
C 109.69 193.86 105.99 198.49 105.27 199.01
C 102.78 200.79 99.31 200.00 96.28 196.98"/>
<path fill="#452f1a" stroke="none" d="
M 66.77 170.14
C 66.35 164.21 65.35 151.35 64.52 141.57
C 61.72 107.95 67.67 78.40 81.64 56.59
C 93.52 38.04 107.48 25.45 125.89 16.62
C 142.68 8.58 150.11 7.08 173.02 7.19
C 190.89 7.26 194.27 7.64 204.65 10.75
C 211.05 12.67 220.92 16.53 226.60 19.32
C 236.87 24.37 254.53 37.57 252.11 38.39
C 251.41 38.62 243.26 35.08 234.00 30.52
C 220.30 23.77 214.83 21.79 204.63 19.96
C 193.78 18.01 190.84 17.92 182.87 19.33
C 144.07 26.15 114.04 46.15 100.84 73.99
C 90.25 96.30 86.39 115.88 85.58 151.29
L 84.93 179.35
L 80.88 179.37
C 78.65 179.38 74.73 179.73 72.18 180.15
L 67.53 180.92
L 66.77 170.14"/>
<path fill="#66584d" stroke="none" d="
M 121.70 198.89
L 117.51 195.30
L 124.28 188.15
C 129.57 182.58 133.17 180.15 140.74 177.12
C 154.44 171.63 158.29 171.08 161.43 174.22
C 164.52 177.32 164.69 181.96 161.89 187.48
C 157.20 196.72 150.99 200.74 144.74 198.55
C 140.90 197.23 138.70 197.64 127.83 201.75
C 126.74 202.17 124.06 200.92 121.70 198.89"/>
<path fill="#ad815c" stroke="none" d="
M 274.38 577.74
C 271.07 574.90 271.05 574.74 273.01 570.04
C 274.46 566.62 275.02 560.90 275.01 550.04
C 275.01 537.46 274.35 532.27 271.19 519.91
C 262.01 483.92 251.49 460.09 235.63 439.35
C 230.21 432.26 224.85 424.71 223.73 422.59
C 222.62 420.46 219.50 415.82 216.83 412.27
C 206.95 399.15 194.73 372.77 189.91 354.19
C 188.01 346.88 187.04 345.08 184.81 344.75
C 180.04 344.04 180.12 348.13 185.20 363.75
C 191.30 382.52 203.11 406.95 211.67 418.55
C 215.27 423.43 218.21 427.95 218.21 428.58
C 218.21 429.21 216.73 430.41 214.89 431.24
C 212.09 432.52 209.57 432.09 198.43 428.45
C 176.67 421.32 157.63 410.30 155.50 403.59
C 155.07 402.26 149.79 394.99 143.76 387.45
C 130.90 371.34 127.89 365.72 118.79 340.65
C 111.80 321.39 106.67 310.21 98.00 295.32
C 92.45 285.75 87.22 282.57 77.12 282.59
C 71.49 282.59 53.68 286.44 44.55 289.61
C 41.71 290.59 36.26 292.36 32.42 293.52
C 23.73 296.18 21.10 294.44 27.67 290.39
C 32.58 287.35 33.80 283.08 30.16 281.69
C 29.00 281.24 27.12 281.56 25.97 282.40
C 24.83 283.23 21.56 284.99 18.72 286.31
C 14.06 288.48 13.34 288.53 11.30 286.74
C 8.11 283.95 8.47 282.19 12.91 278.92
C 17.06 275.86 18.04 271.37 14.84 270.14
C 13.76 269.73 12.02 270.10 10.96 270.98
C 9.40 272.27 9.04 272.19 9.04 270.53
C 9.04 269.39 12.76 264.35 17.29 259.32
C 23.02 252.95 28.01 245.38 33.64 234.44
C 43.47 215.33 48.87 206.70 56.67 197.55
C 63.48 189.57 67.23 187.65 78.49 186.37
L 86.51 185.47
L 86.51 188.89
C 86.51 193.60 92.36 202.01 96.96 203.92
C 100.07 205.21 102.12 205.11 108.45 203.33
C 117.62 200.76 120.78 201.85 122.39 208.09
C 123.77 213.41 127.11 214.06 131.51 209.88
C 139.01 202.76 146.81 204.17 149.07 213.05
C 149.87 216.21 154.29 225.16 158.87 232.94
C 168.48 249.25 185.44 267.39 197.94 274.71
C 216.71 285.72 244.72 292.08 274.38 292.08
C 298.54 292.08 312.50 290.01 361.53 279.17
C 413.91 267.59 429.49 265.41 453.86 266.19
C 469.85 266.71 475.24 267.42 484.81 270.26
C 514.12 278.97 539.86 296.95 554.47 318.94
C 560.61 328.21 565.94 343.23 564.47 347.17
C 563.49 349.86 562.60 349.15 553.17 338.15
C 541.15 324.13 529.56 314.84 524.10 314.84
C 519.19 314.84 515.19 318.95 515.19 323.99
C 515.19 326.19 517.30 334.17 519.90 341.73
C 525.76 358.83 526.94 374.10 523.80 392.49
C 520.26 413.21 520.15 414.97 521.64 423.20
C 522.44 427.61 526.54 439.77 530.76 450.19
C 540.80 475.07 541.39 480.31 535.89 496.77
C 532.13 508.01 531.68 511.16 530.50 534.84
C 529.79 549.03 529.46 563.41 529.76 566.77
C 530.23 572.10 530.05 572.70 528.37 571.30
C 526.78 569.99 526.18 570.13 525.00 572.09
C 521.91 577.26 518.79 580.65 517.10 580.65
C 516.13 580.65 513.74 579.28 511.80 577.61
L 508.28 574.58
L 510.95 570.19
C 514.46 564.43 519.06 537.63 519.06 522.95
C 519.05 502.09 513.73 477.77 505.52 461.11
C 499.51 448.90 491.13 440.66 469.96 426.13
C 451.75 413.64 445.71 408.70 442.38 403.61
C 439.96 399.94 428.13 360.90 425.06 346.46
C 423.42 338.76 422.30 336.05 420.61 335.73
C 419.35 335.48 417.97 336.26 417.52 337.43
C 416.32 340.54 420.14 358.55 426.16 378.13
C 429.05 387.51 431.16 395.83 430.85 396.63
C 429.80 399.37 385.71 416.74 379.74 416.76
C 378.33 416.77 378.42 416.22 380.17 414.28
C 381.41 412.93 382.22 410.75 381.97 409.47
C 381.20 405.45 377.02 405.95 372.05 410.67
C 369.18 413.38 360.51 418.19 349.82 423.01
C 330.07 431.88 316.73 434.83 296.12 434.84
L 284.31 434.84
L 282.23 428.71
C 281.09 425.34 277.47 418.63 274.19 413.81
C 269.58 407.05 267.59 405.12 265.50 405.42
C 260.98 406.06 261.65 409.85 267.82 418.50
C 277.09 431.48 277.39 432.68 276.64 454.09
C 275.83 477.12 277.14 487.69 285.29 523.87
C 291.86 552.99 294.26 574.18 290.66 571.19
C 289.24 570.03 288.54 570.21 287.42 572.09
C 284.33 577.26 281.21 580.65 279.52 580.65
C 278.55 580.65 276.24 579.34 274.38 577.74
M 74.31 229.10
C 81.27 222.13 76.35 210.32 66.50 210.32
C 60.20 210.32 55.52 214.99 55.52 221.29
C 55.52 227.59 60.20 232.26 66.50 232.26
C 69.70 232.26 72.11 231.28 74.31 229.10"/>
<path fill="#ad815c" stroke="none" d="
M 107.47 576.06
C 101.49 571.87 101.60 570.36 109.26 553.37
C 119.55 530.55 120.11 529.08 136.85 480.65
C 150.68 440.68 157.69 420.84 158.46 419.50
C 158.61 419.23 162.72 421.08 167.57 423.64
C 174.89 427.47 183.31 430.90 200.03 436.85
C 201.39 437.34 200.87 438.54 197.95 441.65
C 190.66 449.42 163.66 484.46 154.69 497.81
C 137.02 524.10 122.53 557.11 124.46 566.68
C 125.17 570.25 125.03 570.46 123.12 568.88
C 121.29 567.37 120.79 567.45 119.56 569.51
C 116.60 574.49 113.38 578.06 111.88 578.06
C 111.03 578.06 109.04 577.16 107.47 576.06"/>
<path fill="#ad815c" stroke="none" d="
M 390.50 572.52
L 387.05 569.54
L 389.86 564.03
C 391.41 560.98 396.99 551.35 402.26 542.63
C 426.73 502.05 438.05 470.62 441.80 432.85
L 443.38 416.92
L 448.61 420.85
C 451.49 423.01 457.83 427.46 462.70 430.72
L 471.54 436.68
L 470.69 443.14
C 468.52 459.45 462.76 470.68 440.93 501.29
C 433.33 511.94 424.49 525.87 421.32 532.26
C 418.13 538.65 413.47 546.89 410.96 550.57
C 406.43 557.24 406.12 559.38 408.74 565.81
C 409.71 568.18 409.59 568.23 407.42 566.46
C 405.31 564.74 404.92 564.77 403.63 566.93
C 400.54 572.10 397.42 575.48 395.73 575.48
C 394.76 575.48 392.41 574.14 390.50 572.52"/>
<path fill="#000000" stroke="none" d="
M 58.68 229.10
C 51.73 222.13 56.64 210.32 66.50 210.32
C 72.80 210.32 77.47 214.99 77.47 221.29
C 77.47 227.59 72.80 232.26 66.50 232.26
C 63.29 232.26 60.88 231.28 58.68 229.10
M 73.35 222.23
C 73.87 218.72 69.07 213.92 65.55 214.44
C 61.59 215.02 61.33 217.63 65.13 218.58
C 67.18 219.10 68.69 220.61 69.21 222.66
C 70.16 226.45 72.77 226.19 73.35 222.23"/>
<path fill="#000000" stroke="none" d="
M 124.45 210.62
C 123.66 210.10 122.60 208.37 122.11 206.77
C 120.51 201.68 116.75 200.72 108.33 203.26
C 99.15 206.04 94.44 204.62 90.20 197.78
C 87.90 194.06 87.74 193.08 89.23 192.14
C 91.91 190.45 92.41 190.67 94.02 194.21
C 96.40 199.42 100.91 200.77 107.49 198.26
C 115.59 195.16 118.49 195.57 123.44 200.52
C 128.95 206.03 129.77 214.12 124.45 210.62"/>
<path fill="#eb2e00" stroke="none" d="
M 69.20 222.61
C 68.70 220.62 67.17 219.08 65.18 218.59
C 61.33 217.63 61.03 215.96 64.51 214.85
C 69.56 213.25 75.65 220.14 73.00 224.44
C 71.58 226.72 70.05 225.97 69.20 222.61"/>
<path fill="#c57a36" stroke="none" d="
M 32.23 319.91
C 31.32 318.21 31.13 314.23 31.70 308.93
C 32.51 301.30 32.86 300.55 35.99 299.88
C 37.86 299.47 40.16 298.89 41.11 298.59
C 42.45 298.18 42.65 299.26 41.96 303.55
C 41.10 308.95 35.64 322.58 34.33 322.58
C 33.96 322.58 33.02 321.38 32.23 319.91"/>
<path fill="#c57a36" stroke="none" d="
M 86.10 316.90
C 85.39 315.05 88.23 301.81 89.93 299.05
C 91.92 295.82 92.41 301.56 90.75 308.80
C 88.77 317.45 87.28 320.01 86.10 316.90"/>
<path fill="#524d4a" stroke="none" d="
M 271.93 593.23
C 273.90 589.77 275.36 588.44 276.47 589.12
C 278.15 590.17 275.28 594.84 272.97 594.84
C 271.76 594.84 271.36 594.22 271.93 593.23"/>
<path fill="#524d4a" stroke="none" d="
M 509.51 593.23
C 511.48 589.77 512.94 588.44 514.05 589.12
C 515.73 590.17 512.86 594.84 510.55 594.84
C 509.34 594.84 508.94 594.22 509.51 593.23"/>
<path fill="#524d4a" stroke="none" d="
M 259.05 592.52
C 258.54 591.69 260.06 588.95 262.50 586.28
C 268.19 580.08 269.65 582.45 264.17 588.98
C 261.47 592.21 259.63 593.47 259.05 592.52"/>
<path fill="#524d4a" stroke="none" d="
M 496.63 592.52
C 496.12 591.69 497.64 588.95 500.08 586.28
C 505.77 580.08 507.23 582.45 501.75 588.98
C 499.05 592.21 497.21 593.47 496.63 592.52"/>
<path fill="#524d4a" stroke="none" d="
M 104.07 590.65
C 106.05 587.19 107.51 585.86 108.62 586.54
C 110.29 587.59 107.43 592.26 105.12 592.26
C 103.90 592.26 103.50 591.64 104.07 590.65"/>
<path fill="#524d4a" stroke="none" d="
M 91.20 589.94
C 90.68 589.11 92.20 586.37 94.64 583.70
C 100.34 577.50 101.80 579.87 96.31 586.40
C 93.61 589.63 91.78 590.89 91.20 589.94"/>
<path fill="#524d4a" stroke="none" d="
M 388.13 588.06
C 390.11 584.61 391.57 583.28 392.68 583.96
C 394.36 585.01 391.49 589.68 389.18 589.68
C 387.97 589.68 387.57 589.06 388.13 588.06"/>
<path fill="#524d4a" stroke="none" d="
M 375.27 587.38
C 374.16 585.60 381.16 577.50 383.21 578.21
C 384.08 578.50 382.93 580.80 380.43 583.77
C 377.74 586.95 375.83 588.30 375.27 587.38"/>
</g>
</svg>
