<?xml version="1.0" encoding="UTF-8" standalone="no"?>
<!DOCTYPE svg PUBLIC "-//W3C//DTD SVG 1.1//EN"
"http://www.w3.org/Graphics/SVG/1.1/DTD/svg11.dtd">
<svg width="600px" height="458px"
xmlns="http://www.w3.org/2000/svg" version="1.1">
<g transform="translate(0000, 0000) scale(1.0000, 1.0000)">
<path fill="#000000" stroke="none" d="
M 5.50 455.25
C 2.74 452.96 2.42 452.01 3.75 449.82
C 5.03 447.73 4.80 446.50 2.68 443.87
C -0.37 440.09 -0.76 436.50 1.65 434.09
C 2.89 432.85 2.88 431.92 1.54 430.32
C -2.38 425.58 0.27 421.83 11.40 416.35
C 26.08 409.12 34.67 407.51 52.43 408.65
C 71.34 409.86 72.71 409.06 85.43 389.51
C 95.32 374.33 117.93 332.34 125.44 315.25
C 134.68 294.20 133.98 268.22 123.08 229.00
C 119.19 215.00 116.99 210.67 112.52 208.27
C 105.88 204.72 86.92 219.37 65.84 244.38
C 60.61 250.60 54.58 256.58 52.46 257.68
C 47.24 260.38 40.72 260.19 35.20 257.18
C 32.69 255.81 27.78 253.73 24.27 252.54
C 16.10 249.80 11.90 243.70 10.67 232.85
C 10.18 228.37 8.85 221.41 7.72 217.37
C 5.07 207.77 5.16 198.20 8.01 185.58
C 9.88 177.31 10.02 173.78 8.76 167.22
C 6.23 153.84 3.92 128.33 4.60 121.16
C 6.44 102.06 26.89 82.88 48.06 80.40
C 53.94 79.71 59.63 81.18 89.79 91.13
C 108.98 97.46 128.86 103.73 133.97 105.04
C 147.16 108.46 162.33 107.82 190.26 102.69
C 203.59 100.23 220.59 97.88 228.03 97.45
C 244.99 96.48 279.05 99.86 317.10 106.31
C 350.61 111.97 449.69 133.09 480.73 141.17
C 528.73 153.67 542.35 152.12 561.28 132.09
C 570.09 122.78 576.34 109.99 578.68 96.57
C 582.07 77.09 574.52 54.95 559.30 39.71
C 543.98 24.37 522.19 17.42 494.57 19.03
C 473.76 20.26 459.71 23.74 416.15 38.48
C 361.37 57.01 351.96 59.17 325.65 59.18
C 307.91 59.21 303.49 58.78 299.69 56.70
C 295.27 54.28 292.16 50.35 292.16 47.18
C 292.16 43.43 297.96 39.95 304.23 39.95
C 312.31 39.95 338.69 36.13 349.88 33.33
C 354.58 32.16 370.08 27.42 384.31 22.79
C 438.33 5.24 461.29 0.90 500.24 0.94
C 524.21 0.97 529.60 1.40 539.43 4.05
C 565.54 11.11 580.29 22.74 590.74 44.47
C 599.02 61.71 601.28 74.98 598.85 91.90
C 596.64 107.15 594.64 112.94 581.97 140.91
C 570.73 165.74 569.43 170.19 567.36 191.19
C 566.57 199.27 564.47 209.07 562.16 215.45
C 556.66 230.75 543.38 258.31 531.01 280.11
C 513.73 310.57 511.03 317.20 511.08 328.88
C 511.13 336.41 512.44 342.87 516.43 355.19
C 522.54 374.08 530.17 404.30 530.12 409.49
C 530.07 418.44 515.67 439.51 505.87 445.03
C 496.99 450.02 483.93 450.61 469.85 446.66
C 456.66 442.95 453.73 443.40 442.46 450.91
C 433.03 457.19 428.10 457.93 423.08 453.82
C 420.31 451.54 420.00 450.58 421.33 448.40
C 422.61 446.30 422.38 445.07 420.26 442.45
C 417.21 438.67 416.82 435.07 419.23 432.66
C 420.47 431.42 420.46 430.49 419.12 428.89
C 415.20 424.16 417.85 420.40 428.98 414.93
C 443.67 407.68 452.24 406.08 470.10 407.22
C 487.33 408.33 490.00 407.33 486.76 401.03
C 485.64 398.89 481.25 388.20 477.01 377.26
C 472.75 366.33 466.62 352.12 463.38 345.68
L 457.51 334.00
L 444.91 347.22
C 431.96 360.85 419.86 379.18 407.57 403.78
C 399.45 420.03 387.96 435.09 380.44 439.32
C 371.57 444.32 358.52 444.90 344.44 440.95
C 331.24 437.24 328.32 437.70 317.05 445.20
C 307.61 451.48 302.68 452.22 297.66 448.11
C 294.90 445.83 294.58 444.87 295.91 442.69
C 297.19 440.59 296.96 439.37 294.84 436.74
C 291.79 432.96 291.41 429.36 293.81 426.95
C 295.05 425.71 295.04 424.78 293.70 423.19
C 289.78 418.45 292.43 414.70 303.56 409.22
C 318.68 401.76 326.41 400.43 347.33 401.63
C 362.08 402.48 365.44 402.28 368.31 400.41
C 374.41 396.41 382.08 377.13 393.33 337.48
C 396.54 326.19 400.80 312.90 402.81 307.93
C 406.89 297.90 424.25 270.09 430.96 262.86
L 435.29 258.19
L 430.85 259.09
C 427.21 259.82 426.09 259.40 424.73 256.87
C 423.81 255.15 423.41 252.83 423.83 251.71
C 424.65 249.62 421.23 249.63 390.01 251.89
C 377.14 252.81 358.20 256.99 327.79 265.64
C 290.24 276.31 274.95 279.71 259.70 280.81
L 245.84 281.79
L 246.33 291.96
C 246.68 299.53 245.70 307.02 242.48 321.21
C 236.96 345.47 231.26 379.31 229.62 397.50
C 228.93 405.27 227.36 413.93 226.15 416.72
C 222.37 425.41 211.48 438.61 205.15 442.18
C 196.28 447.17 183.22 447.76 169.14 443.80
C 155.94 440.09 153.02 440.55 141.75 448.06
C 132.31 454.33 127.38 455.08 122.37 450.97
C 119.60 448.68 119.29 447.73 120.61 445.54
C 121.90 443.45 121.67 442.22 119.54 439.59
C 116.49 435.81 116.11 432.22 118.52 429.81
C 119.76 428.57 119.74 427.64 118.40 426.04
C 114.48 421.30 117.14 417.55 128.27 412.07
C 142.92 404.84 151.54 403.23 169.23 404.35
C 193.87 405.94 196.57 402.83 197.74 371.55
C 198.57 349.65 197.13 338.18 192.13 326.45
L 189.25 319.73
L 168.38 338.86
C 145.07 360.24 138.60 367.34 129.12 382.01
C 122.76 391.84 111.53 413.73 108.68 421.86
C 106.20 428.88 94.57 442.92 88.29 446.46
C 79.41 451.45 66.36 452.04 52.28 448.08
C 39.08 444.37 36.16 444.83 24.88 452.34
C 15.45 458.61 10.52 459.36 5.50 455.25
M 37.65 438.74
C 41.47 438.20 46.90 438.91 53.44 440.82
C 67.54 444.93 76.26 444.62 83.32 439.74
C 88.83 435.91 101.00 421.60 101.14 418.76
C 101.19 417.98 104.76 409.97 109.11 400.99
C 122.21 373.85 129.86 363.72 155.74 339.28
C 208.32 289.62 213.21 281.93 224.45 230.97
C 227.29 218.11 229.94 206.47 230.34 205.10
C 231.12 202.42 235.84 201.69 237.29 204.02
C 238.28 205.61 229.18 248.40 224.91 262.32
C 223.38 267.30 222.54 271.79 223.05 272.30
C 224.75 273.99 271.21 273.32 277.20 271.52
C 297.71 265.35 352.15 250.69 363.43 248.29
C 377.79 245.24 423.95 241.81 434.64 243.00
C 438.53 243.42 443.06 242.88 446.24 241.61
L 451.45 239.52
L 452.45 227.59
C 453.53 214.65 455.56 210.12 459.58 211.66
C 461.63 212.45 461.91 213.70 461.17 218.67
C 457.17 245.58 456.33 279.57 458.96 307.43
C 460.05 318.82 461.46 325.31 464.15 331.33
C 466.18 335.87 468.31 339.58 468.87 339.58
C 470.22 339.58 477.25 355.04 485.07 375.25
C 488.58 384.26 492.76 394.54 494.38 398.07
C 498.09 406.15 498.11 408.76 494.52 412.36
C 491.86 415.03 490.08 415.20 469.94 414.85
C 449.09 414.50 447.76 414.65 436.82 418.61
C 424.16 423.19 421.74 424.68 424.95 425.91
C 426.11 426.37 431.52 425.08 436.93 423.06
C 449.16 418.49 467.46 416.54 467.46 419.79
C 467.46 421.39 465.19 422.13 458.55 422.72
C 448.28 423.60 423.33 434.37 425.81 436.85
C 426.73 437.77 429.11 437.28 432.73 435.44
C 445.57 428.89 466.03 425.54 466.03 429.98
C 466.03 431.35 463.34 432.15 457.10 432.65
C 447.18 433.44 434.84 438.84 431.27 443.93
C 427.43 449.45 430.22 449.37 439.94 443.68
C 452.15 436.53 458.29 435.68 471.02 439.39
C 492.34 445.62 501.98 441.92 515.73 422.24
C 518.24 418.66 520.65 413.48 521.09 410.73
C 522.07 404.74 515.80 377.81 507.85 353.84
C 501.38 334.33 500.96 326.06 505.70 311.60
C 507.52 306.03 514.15 292.55 520.40 281.63
C 535.21 255.90 550.70 223.86 555.82 208.43
C 558.51 200.31 560.19 191.62 560.82 182.63
C 561.98 165.71 562.45 164.21 575.17 135.96
C 596.22 89.26 597.41 75.18 582.73 46.91
C 563.47 9.87 516.78 -1.41 445.67 13.78
C 429.41 17.25 417.49 20.69 373.05 34.71
C 357.61 39.59 346.10 42.16 329.59 44.42
C 302.15 48.15 301.97 48.20 305.70 50.32
C 307.27 51.22 314.42 52.21 321.62 52.53
C 340.46 53.38 358.42 49.31 405.46 33.50
C 464.57 13.64 480.07 10.39 508.67 11.87
C 535.68 13.25 550.79 19.02 565.20 33.43
C 578.54 46.78 587.13 67.76 587.13 87.03
C 587.13 104.85 579.06 125.87 567.28 138.78
C 548.75 159.07 526.69 161.21 474.37 147.76
C 448.72 141.15 373.38 124.64 334.92 117.18
C 289.14 108.31 246.26 103.26 228.03 104.58
C 222.16 105.01 206.11 107.45 192.40 110.01
C 163.25 115.44 144.40 116.08 129.69 112.17
C 124.59 110.82 105.04 104.63 86.22 98.43
C 49.38 86.29 48.38 86.16 37.05 92.01
C 19.50 101.09 10.19 116.03 12.17 131.94
L 13.15 139.77
L 16.23 135.19
C 21.71 127.06 27.90 123.95 37.71 124.43
C 45.24 124.79 46.32 125.20 46.32 127.70
C 46.32 130.17 45.14 130.65 37.55 131.26
C 27.75 132.06 24.16 134.43 19.81 142.95
C 17.80 146.90 17.36 149.83 18.03 154.72
C 18.58 158.84 18.37 161.23 17.43 161.23
C 16.48 161.23 16.23 164.31 16.72 169.77
C 17.23 175.32 16.57 182.84 14.88 191.22
C 12.67 202.09 12.54 205.07 14.01 210.14
C 14.98 213.45 16.36 220.50 17.10 225.79
C 18.98 239.20 22.59 245.41 28.52 245.41
C 29.17 245.41 32.78 240.57 36.53 234.65
C 41.79 226.32 43.98 223.98 46.23 224.31
C 51.08 225.00 50.42 229.39 44.02 239.23
C 38.18 248.20 38.04 248.69 40.62 250.57
C 42.09 251.66 43.98 252.54 44.81 252.54
C 45.63 252.54 50.79 247.56 56.27 241.48
C 90.46 203.47 105.52 194.14 119.22 202.50
C 124.70 205.84 127.91 213.83 133.11 237.09
C 141.26 273.42 141.05 299.81 132.47 319.99
C 125.83 335.62 101.81 380.28 91.87 395.51
C 86.21 404.17 80.76 410.70 77.34 412.97
C 72.03 416.49 71.23 416.59 51.25 416.25
C 31.65 415.92 30.09 416.11 19.24 420.03
C 6.58 424.61 4.16 426.11 7.37 427.34
C 8.54 427.79 13.94 426.51 19.35 424.48
C 31.58 419.92 49.88 417.96 49.88 421.22
C 49.88 422.82 47.62 423.56 40.97 424.14
C 30.70 425.03 5.76 435.80 8.24 438.28
C 9.15 439.19 11.53 438.71 15.15 436.87
C 27.99 430.32 48.46 426.97 48.46 431.40
C 48.46 432.77 45.76 433.57 39.52 434.07
C 29.60 434.87 17.26 440.26 13.70 445.36
C 9.85 450.88 12.64 450.79 22.36 445.10
C 27.58 442.05 34.46 439.18 37.65 438.74
M 153.46 434.50
C 156.80 433.87 162.83 434.63 171.05 436.68
C 191.39 441.78 200.11 439.00 211.80 423.76
C 219.42 413.80 220.05 411.56 224.57 378.81
C 228.24 352.12 233.00 326.21 237.22 309.90
C 239.27 301.97 238.95 283.18 236.72 281.93
C 236.25 281.66 232.02 281.05 227.32 280.55
L 218.76 279.64
L 214.23 287.84
C 211.75 292.36 206.45 300.08 202.46 305.01
L 195.22 313.95
L 198.19 319.77
C 202.90 329.02 205.18 343.03 205.14 362.40
C 205.08 388.37 203.44 400.31 199.33 404.74
C 192.88 411.63 189.85 412.33 167.91 411.97
C 148.55 411.64 146.92 411.84 136.10 415.75
C 123.45 420.33 121.03 421.83 124.23 423.06
C 125.40 423.51 130.80 422.23 136.22 420.20
C 148.45 415.64 166.75 413.68 166.75 416.94
C 166.75 418.53 164.48 419.28 157.84 419.86
C 147.56 420.75 122.62 431.52 125.10 434.00
C 126.01 434.91 128.39 434.43 132.01 432.59
C 144.86 426.04 165.32 422.69 165.32 427.12
C 165.32 428.49 162.63 429.29 156.38 429.79
C 146.47 430.59 134.12 435.98 130.56 441.08
C 126.73 446.57 129.49 446.51 139.07 440.92
C 144.20 437.91 150.68 435.03 153.46 434.50
M 329.81 431.60
C 333.63 431.06 339.06 431.78 345.61 433.69
C 357.52 437.17 364.55 437.35 371.62 434.40
C 381.53 430.25 388.10 421.82 403.20 393.82
C 417.24 367.77 426.61 353.73 438.51 341.00
C 452.07 326.49 453.46 323.54 451.74 312.98
C 450.98 308.39 450.37 293.55 450.37 280.01
C 450.36 265.93 449.80 255.40 449.05 255.40
C 446.12 255.40 438.94 263.04 434.59 270.76
C 432.07 275.26 426.78 283.70 422.88 289.51
C 412.87 304.36 407.34 317.12 400.53 341.00
C 388.40 383.55 379.11 406.96 373.67 408.69
C 372.07 409.20 359.97 409.42 346.79 409.19
C 323.40 408.79 322.52 408.88 311.40 412.90
C 298.75 417.48 296.32 418.98 299.53 420.20
C 300.70 420.66 306.10 419.38 311.52 417.35
C 323.74 412.78 342.04 410.83 342.04 414.08
C 342.04 415.68 339.78 416.42 333.14 417.01
C 322.86 417.89 297.92 428.67 300.40 431.15
C 301.31 432.06 303.69 431.58 307.31 429.74
C 320.15 423.19 340.62 419.83 340.62 424.27
C 340.62 425.64 337.92 426.44 331.68 426.94
C 321.76 427.74 309.42 433.13 305.86 438.22
C 302.01 443.75 304.80 443.66 314.52 437.97
C 319.74 434.91 326.62 432.05 329.81 431.60"/>
<path fill="#000000" stroke="none" d="
M 31.45 163.18
C 27.72 158.42 27.73 154.96 31.48 148.90
C 35.02 143.16 38.18 141.25 44.08 141.25
C 54.33 141.25 58.02 154.72 50.00 162.77
C 44.29 168.46 35.76 168.65 31.45 163.18
M 48.46 152.77
C 48.46 150.11 44.98 145.50 43.01 145.56
C 42.48 145.56 41.07 146.26 39.90 147.09
C 38.14 148.34 38.11 148.74 39.73 149.39
C 40.80 149.81 42.73 151.33 44.01 152.72
C 47.07 156.11 48.46 156.12 48.46 152.77"/>
<path fill="#000000" stroke="none" d="
M 79.92 137.19
C 77.53 132.71 68.88 128.15 60.84 127.16
L 53.44 126.23
L 53.53 119.61
C 53.63 111.39 59.24 102.23 66.21 98.91
C 70.32 96.95 71.73 96.86 75.46 98.42
C 85.95 102.77 90.98 114.34 88.95 129.48
C 87.82 137.81 87.24 139.17 84.54 139.55
C 82.59 139.84 80.86 138.96 79.92 137.19
M 80.11 115.18
C 76.26 106.48 72.80 104.68 67.68 108.71
C 64.18 111.46 59.86 119.08 59.86 122.50
C 59.86 123.22 61.94 124.20 64.49 124.69
C 67.04 125.17 71.69 127.14 74.82 129.05
L 80.52 132.53
L 81.75 127.11
C 82.72 122.85 82.36 120.31 80.11 115.18"/>
<path fill="#a6a19d" stroke="none" d="
M 12.20 449.57
C 10.85 447.38 16.06 442.16 23.23 438.52
C 27.86 436.17 33.89 434.53 39.52 434.07
C 45.76 433.57 48.46 432.77 48.46 431.40
C 48.46 426.97 27.99 430.32 15.15 436.87
C 11.53 438.71 9.15 439.19 8.24 438.28
C 5.76 435.80 30.70 425.03 40.97 424.14
C 47.62 423.56 49.88 422.82 49.88 421.22
C 49.88 417.96 31.58 419.92 19.35 424.48
C 13.94 426.51 8.54 427.79 7.37 427.34
C 4.16 426.11 6.58 424.61 19.24 420.03
C 30.09 416.11 31.65 415.92 51.25 416.25
C 71.23 416.59 72.03 416.49 77.34 412.97
C 80.76 410.70 86.21 404.17 91.87 395.51
C 101.81 380.28 125.83 335.62 132.47 319.99
C 141.05 299.81 141.26 273.42 133.11 237.09
C 127.91 213.83 124.70 205.84 119.22 202.50
C 105.52 194.14 90.46 203.47 56.27 241.48
C 50.79 247.56 45.63 252.54 44.81 252.54
C 43.98 252.54 42.09 251.66 40.62 250.57
C 38.04 248.69 38.18 248.20 44.02 239.23
C 50.42 229.39 51.08 225.00 46.23 224.31
C 43.98 223.98 41.79 226.32 36.53 234.65
C 32.78 240.57 29.17 245.41 28.52 245.41
C 22.59 245.41 18.98 239.20 17.10 225.79
C 16.36 220.50 14.98 213.45 14.01 210.14
C 12.54 205.07 12.67 202.09 14.88 191.22
C 16.57 182.84 17.23 175.32 16.72 169.77
C 16.23 164.31 16.48 161.23 17.43 161.23
C 18.37 161.23 18.58 158.84 18.03 154.72
C 17.36 149.83 17.80 146.90 19.81 142.95
C 24.16 134.43 27.75 132.06 37.55 131.26
C 45.14 130.65 46.32 130.17 46.32 127.70
C 46.32 125.20 45.24 124.79 37.71 124.43
C 27.90 123.95 21.71 127.06 16.23 135.19
L 13.15 139.77
L 12.17 131.94
C 10.19 116.03 19.50 101.09 37.05 92.01
C 48.38 86.16 49.38 86.29 86.22 98.43
C 105.04 104.63 124.59 110.82 129.69 112.17
C 144.40 116.08 163.25 115.44 192.40 110.01
C 206.11 107.45 222.16 105.01 228.03 104.58
C 246.26 103.26 289.14 108.31 334.92 117.18
C 373.38 124.64 448.72 141.15 474.37 147.76
C 526.69 161.21 548.75 159.07 567.28 138.78
C 579.06 125.87 587.13 104.85 587.13 87.03
C 587.13 67.76 578.54 46.78 565.20 33.43
C 550.79 19.02 535.68 13.25 508.67 11.87
C 480.07 10.39 464.57 13.64 405.46 33.50
C 358.42 49.31 340.46 53.38 321.62 52.53
C 314.42 52.21 307.27 51.22 305.70 50.32
C 301.97 48.20 302.15 48.15 329.59 44.42
C 346.10 42.16 357.61 39.59 373.05 34.71
C 417.45 20.70 429.41 17.25 445.67 13.77
C 516.51 -1.43 563.52 9.94 582.73 46.91
C 597.41 75.18 596.22 89.26 575.17 135.96
C 562.45 164.21 561.98 165.71 560.82 182.63
C 560.19 191.62 558.51 200.31 555.82 208.43
C 550.70 223.86 535.21 255.90 520.40 281.63
C 514.15 292.55 507.52 306.03 505.70 311.60
C 500.96 326.06 501.38 334.33 507.85 353.84
C 515.80 377.81 522.07 404.74 521.09 410.73
C 519.63 419.72 507.14 435.41 498.10 439.59
C 490.69 443.03 483.31 442.98 471.02 439.39
C 458.29 435.68 452.15 436.53 439.94 443.68
C 430.22 449.37 427.43 449.45 431.27 443.93
C 434.84 438.84 447.18 433.44 457.10 432.65
C 463.34 432.15 466.03 431.35 466.03 429.98
C 466.03 425.54 445.57 428.89 432.73 435.44
C 429.11 437.28 426.73 437.77 425.81 436.85
C 423.33 434.37 448.28 423.60 458.55 422.72
C 465.19 422.13 467.46 421.39 467.46 419.79
C 467.46 416.54 449.16 418.49 436.93 423.06
C 431.52 425.08 426.11 426.37 424.95 425.91
C 421.74 424.68 424.16 423.19 436.82 418.61
C 447.76 414.65 449.09 414.50 469.94 414.85
C 490.08 415.20 491.86 415.03 494.52 412.36
C 498.11 408.76 498.09 406.15 494.38 398.07
C 492.76 394.54 488.58 384.26 485.07 375.25
C 477.25 355.04 470.22 339.58 468.87 339.58
C 468.31 339.58 466.18 335.87 464.15 331.33
C 456.51 314.31 455.07 259.66 461.17 218.67
C 461.91 213.70 461.63 212.45 459.58 211.66
C 455.56 210.12 453.53 214.65 452.45 227.59
L 451.45 239.52
L 446.24 241.61
C 443.06 242.88 438.53 243.42 434.64 243.00
C 423.95 241.81 377.79 245.24 363.43 248.29
C 352.15 250.69 297.71 265.35 277.20 271.52
C 271.21 273.32 224.75 273.99 223.05 272.30
C 222.54 271.79 223.38 267.30 224.91 262.32
C 229.18 248.40 238.28 205.61 237.29 204.02
C 235.84 201.69 231.12 202.42 230.34 205.10
C 229.94 206.47 227.29 218.11 224.45 230.97
C 213.21 281.93 208.32 289.62 155.74 339.28
C 129.86 363.72 122.21 373.85 109.11 400.99
C 104.76 409.97 101.19 417.98 101.14 418.76
C 101.00 421.60 88.83 435.91 83.32 439.74
C 76.26 444.62 67.54 444.93 53.44 440.82
C 40.72 437.11 34.57 437.95 22.36 445.10
C 17.13 448.16 12.57 450.17 12.20 449.57
M 50.00 162.77
C 58.02 154.72 54.33 141.25 44.08 141.25
C 38.18 141.25 35.02 143.16 31.48 148.90
C 27.73 154.96 27.72 158.42 31.45 163.18
C 35.76 168.65 44.29 168.46 50.00 162.77
M 88.95 129.48
C 90.98 114.34 85.95 102.77 75.46 98.42
C 71.73 96.86 70.32 96.95 66.21 98.91
C 59.24 102.23 53.63 111.39 53.53 119.61
L 53.44 126.23
L 60.84 127.16
C 68.88 128.15 77.53 132.71 79.92 137.19
C 80.86 138.96 82.59 139.84 84.54 139.55
C 87.24 139.17 87.82 137.81 88.95 129.48"/>
<path fill="#a6a19d" stroke="none" d="
M 129.06 445.29
C 127.71 443.10 132.93 437.88 140.10 434.24
C 144.73 431.89 150.76 430.25 156.38 429.79
C 162.63 429.29 165.32 428.49 165.32 427.12
C 165.32 422.69 144.86 426.04 132.01 432.59
C 128.39 434.43 126.01 434.91 125.10 434.00
C 122.62 431.52 147.56 420.75 157.84 419.86
C 164.48 419.28 166.75 418.53 166.75 416.94
C 166.75 413.68 148.45 415.64 136.22 420.20
C 130.80 422.23 125.40 423.51 124.23 423.06
C 121.03 421.83 123.45 420.33 136.10 415.75
C 146.92 411.84 148.55 411.64 167.91 411.97
C 189.85 412.33 192.88 411.63 199.33 404.74
C 203.44 400.31 205.08 388.37 205.14 362.40
C 205.18 343.03 202.90 329.02 198.19 319.77
L 195.22 313.95
L 202.46 305.01
C 206.45 300.08 211.75 292.36 214.23 287.84
L 218.76 279.64
L 227.32 280.55
C 232.02 281.05 236.25 281.66 236.72 281.93
C 238.95 283.18 239.27 301.97 237.22 309.90
C 233.00 326.21 228.24 352.12 224.57 378.81
C 220.05 411.56 219.42 413.80 211.80 423.76
C 200.11 439.00 191.39 441.78 171.05 436.68
C 155.99 432.92 151.80 433.47 139.07 440.92
C 133.94 443.92 129.43 445.89 129.06 445.29"/>
<path fill="#a6a19d" stroke="none" d="
M 304.36 442.43
C 303.01 440.25 308.22 435.03 315.39 431.39
C 320.02 429.04 326.05 427.40 331.68 426.94
C 337.92 426.44 340.62 425.64 340.62 424.27
C 340.62 419.83 320.15 423.19 307.31 429.74
C 303.69 431.58 301.31 432.06 300.40 431.15
C 297.92 428.67 322.86 417.89 333.14 417.01
C 339.78 416.42 342.04 415.68 342.04 414.08
C 342.04 410.83 323.74 412.78 311.52 417.35
C 306.10 419.38 300.70 420.66 299.53 420.20
C 296.32 418.98 298.75 417.48 311.40 412.90
C 322.52 408.88 323.40 408.79 346.79 409.19
C 359.97 409.42 372.07 409.20 373.67 408.69
C 379.11 406.96 388.40 383.55 400.53 341.00
C 407.34 317.12 412.87 304.36 422.88 289.51
C 426.78 283.70 432.07 275.26 434.59 270.76
C 438.94 263.04 446.12 255.40 449.05 255.40
C 449.80 255.40 450.36 265.93 450.37 280.01
C 450.37 293.55 450.98 308.39 451.74 312.98
C 453.46 323.54 452.07 326.49 438.51 341.00
C 426.61 353.73 417.24 367.77 403.20 393.82
C 388.10 421.82 381.53 430.25 371.62 434.40
C 364.55 437.35 357.52 437.17 345.61 433.69
C 332.88 429.98 326.74 430.82 314.52 437.97
C 309.29 441.02 304.73 443.03 304.36 442.43"/>
<path fill="#4a494a" stroke="none" d="
M 74.82 129.05
C 71.69 127.14 67.04 125.17 64.49 124.69
C 59.27 123.70 59.06 123.06 61.80 116.60
C 66.73 104.93 74.42 104.06 79.64 114.57
C 82.46 120.26 82.82 122.38 81.78 126.97
L 80.52 132.53
L 74.82 129.05"/>
<path fill="#eb2e00" stroke="none" d="
M 45.61 154.06
C 45.61 153.27 44.01 151.87 42.04 150.98
C 40.08 150.08 38.48 148.89 38.48 148.33
C 38.48 146.19 44.32 145.88 46.35 147.90
C 48.73 150.30 49.20 155.52 47.03 155.52
C 46.25 155.52 45.61 154.86 45.61 154.06"/>
</g>
</svg>
