<?xml version="1.0" encoding="UTF-8" standalone="no"?>
<!DOCTYPE svg PUBLIC "-//W3C//DTD SVG 1.1//EN"
"http://www.w3.org/Graphics/SVG/1.1/DTD/svg11.dtd">
<svg width="600px" height="274px"
xmlns="http://www.w3.org/2000/svg" version="1.1">
<g transform="translate(0000, 0000) scale(1.0000, 1.0000)">
<path fill="#000000" stroke="none" d="
M 1.20 271.64
C -0.92 267.67 -0.19 258.19 2.68 252.52
C 7.88 242.23 7.45 242.32 52.57 241.47
C 101.64 240.54 135.48 237.51 150.30 232.75
C 155.51 231.07 155.89 230.67 155.25 227.74
C 150.58 206.51 137.27 186.22 123.52 179.37
C 115.73 175.48 113.99 175.53 100.12 179.99
C 86.69 184.32 80.57 184.16 76.80 179.43
C 75.48 177.79 72.26 175.74 69.64 174.88
C 65.98 173.68 64.33 172.23 62.50 168.57
C 61.19 165.95 59.65 163.60 59.08 163.35
C 55.87 161.98 53.57 158.05 53.60 153.98
C 53.64 143.47 67.77 116.60 80.73 102.40
C 89.77 92.48 106.52 81.04 116.30 78.11
C 138.17 71.55 135.69 73.17 141.67 61.51
C 150.98 43.32 164.50 30.81 186.31 20.20
C 215.46 6.03 254.55 0.89 313.10 3.55
C 341.86 4.86 344.24 4.80 358.33 2.47
C 388.65 -2.56 396.74 0.41 385.63 12.46
C 382.11 16.29 378.44 18.64 372.24 21.07
L 363.69 24.42
L 374.40 25.02
C 386.31 25.68 388.10 26.35 388.10 30.15
C 388.07 39.84 366.65 54.95 336.90 66.27
C 315.51 74.42 263.23 84.65 219.05 89.36
C 203.46 91.02 190.49 93.87 189.75 95.82
C 188.93 97.96 208.83 131.20 215.15 138.24
C 233.74 158.92 261.61 159.59 332.74 141.04
C 387.83 126.67 413.50 120.29 423.81 118.40
C 439.10 115.62 464.45 115.57 475.42 118.31
C 496.96 123.69 520.75 141.04 534.10 161.09
C 541.40 172.07 544.76 180.91 549.46 201.58
C 551.68 211.30 554.50 221.52 555.74 224.29
C 558.20 229.78 563.36 235.88 565.54 235.88
C 566.95 235.88 571.04 231.88 579.17 222.50
C 587.23 213.21 595.29 213.68 598.76 223.68
C 601.90 232.71 596.81 248.60 587.93 257.49
C 576.04 269.39 555.46 273.39 537.55 267.28
C 532.06 265.41 531.75 265.43 526.37 268.17
C 521.17 270.83 518.99 271.07 489.88 272.05
C 462.54 272.98 455.46 272.81 429.17 270.56
C 393.96 267.56 386.83 267.46 379.06 269.82
C 375.24 270.99 368.76 271.56 360.38 271.46
C 349.31 271.33 347.38 271.01 346.39 269.16
C 344.92 266.41 344.92 259.04 346.38 253.93
C 347.24 250.94 347.15 250.10 346.08 250.53
C 345.29 250.85 338.56 253.62 331.12 256.68
C 310.50 265.17 301.95 267.10 284.52 267.17
C 269.15 267.23 258.32 265.24 243.63 259.66
L 237.58 257.36
L 233.96 260.85
C 226.82 267.77 223.69 268.38 189.88 269.33
C 172.86 269.82 150.89 270.91 141.07 271.76
C 130.49 272.67 109.87 273.18 90.48 273.00
C 44.24 272.59 34.74 272.63 17.57 273.30
C 3.58 273.85 2.31 273.71 1.20 271.64
M 19.33 263.28
C 24.58 258.02 25.89 257.55 27.02 260.49
C 27.54 261.81 26.63 263.43 24.31 265.36
L 20.83 268.26
L 25.60 267.26
C 31.17 266.09 48.58 266.13 80.95 267.38
C 98.38 268.04 110.69 267.78 130.36 266.32
C 144.76 265.24 169.13 264.08 184.52 263.72
C 213.71 263.05 222.14 261.81 227.54 257.43
C 230.18 255.27 230.36 254.33 230.36 242.85
C 230.36 232.10 230.62 230.52 232.44 230.16
C 234.90 229.67 235.29 230.64 236.33 239.90
C 237.36 249.07 240.10 251.57 254.05 256.01
C 275.62 262.91 288.75 263.35 307.86 257.83
C 322.75 253.53 353.69 239.94 360.86 234.53
C 373.13 225.29 410.04 209.12 424.40 206.69
C 433.90 205.08 433.54 205.73 430.19 196.83
C 424.82 182.56 425.11 161.17 430.65 162.24
C 432.46 162.59 432.75 164.16 432.80 173.94
C 432.87 188.94 437.10 200.70 444.49 206.46
C 447.17 208.55 455.57 216.46 463.17 224.02
C 470.75 231.60 478.96 238.74 481.40 239.90
C 484.36 241.30 485.73 242.68 485.48 244.00
C 485.14 245.72 482.55 246.14 467.25 246.92
C 450.50 247.78 374.06 246.08 365.99 244.66
C 361.15 243.80 355.64 248.38 352.93 255.49
C 350.44 262.00 351.23 265.36 353.99 260.04
C 356.04 256.08 359.17 253.75 362.42 253.75
C 365.30 253.75 364.64 256.04 360.71 259.70
C 358.75 261.54 357.14 263.64 357.14 264.35
C 357.14 266.82 359.88 265.66 363.93 261.49
C 368.04 257.25 372.62 255.94 372.62 259.01
C 372.62 259.94 371.14 261.80 369.35 263.14
C 365.36 266.11 367.05 266.26 376.62 263.73
C 385.04 261.52 402.15 261.91 436.31 265.11
C 463.11 267.64 512.18 266.60 519.64 263.35
C 527.29 260.04 527.86 258.68 524.95 250.92
C 521.43 241.49 514.95 232.29 502.38 218.91
C 491.35 207.16 489.63 203.50 494.85 202.75
C 496.81 202.47 500.15 205.44 509.12 215.41
C 522.31 230.09 528.94 240.37 531.82 250.59
C 534.11 258.67 535.73 260.04 546.31 262.74
C 558.75 265.93 571.68 262.47 581.95 253.19
C 590.82 245.16 596.10 229.08 591.39 224.37
C 589.25 222.23 589.10 222.35 577.14 235.47
C 570.99 242.23 566.49 243.94 561.35 241.49
C 552.98 237.50 548.42 228.21 543.57 205.23
C 541.89 197.28 539.19 187.25 537.57 182.94
C 534.38 174.47 526.64 161.77 520.13 154.32
C 513.24 146.45 499.26 136.13 487.76 130.46
C 461.40 117.44 442.31 118.68 369.89 138.10
C 303.63 155.86 283.67 159.80 258.93 160.00
C 240.43 160.16 231.50 158.46 221.12 152.80
C 212.83 148.28 206.58 140.62 194.14 119.70
C 188.23 109.74 182.61 100.95 181.68 100.18
C 180.35 99.07 177.60 99.32 169.11 101.31
C 157.07 104.14 154.77 103.58 154.74 97.84
C 154.71 93.14 153.32 91.77 147.55 90.78
C 141.57 89.76 140.13 87.06 143.56 83.27
C 145.13 81.53 145.32 80.62 144.30 79.59
C 141.96 77.26 123.43 81.93 111.67 87.81
C 92.87 97.22 74.67 117.62 64.92 140.19
C 60.06 151.43 58.42 157.41 60.80 155.17
C 62.81 153.27 66.95 153.25 68.81 155.11
C 70.63 156.93 70.65 161.12 68.86 162.92
C 67.18 164.60 69.19 167.47 72.87 168.65
C 74.73 169.24 76.85 167.87 82.13 162.62
C 86.61 158.19 89.76 155.98 91.21 156.25
C 95.40 157.06 94.36 160.67 88.18 166.70
C 81.50 173.20 81.04 174.44 84.52 176.31
C 86.40 177.33 89.45 176.71 99.02 173.38
C 105.68 171.06 112.51 169.18 114.20 169.19
C 118.74 169.24 130.10 174.24 135.65 178.65
C 145.39 186.37 155.73 203.74 159.61 218.91
C 160.87 223.88 162.07 228.10 162.27 228.30
C 162.48 228.50 164.67 228.11 167.14 227.42
C 172.58 225.92 175.00 226.66 175.00 229.84
C 175.00 231.63 173.76 232.53 169.94 233.53
C 167.15 234.26 161.13 236.12 156.55 237.67
C 139.68 243.36 88.73 247.72 38.55 247.77
C 12.55 247.79 11.39 248.17 7.70 257.85
C 5.24 264.29 5.96 267.79 8.68 262.56
C 11.77 256.58 19.05 253.04 19.05 257.51
C 19.05 258.19 17.44 260.25 15.48 262.09
C 13.51 263.92 11.90 266.02 11.90 266.73
C 11.90 269.26 14.61 268.00 19.33 263.28
M 462.18 240.81
L 469.00 240.05
L 457.07 227.75
C 443.06 213.29 437.60 210.16 429.52 211.97
C 409.95 216.36 366.93 235.43 369.89 238.39
C 372.04 240.54 447.05 242.50 462.18 240.81
M 172.62 93.61
C 178.19 92.03 185.81 89.61 189.56 88.24
C 193.55 86.79 204.64 84.80 216.35 83.43
C 281.48 75.79 323.11 66.43 348.92 53.61
C 363.31 46.45 381.54 34.07 380.39 32.22
C 379.46 30.71 344.68 29.76 334.92 30.96
C 329.79 31.59 314.07 32.64 300.00 33.30
C 240.94 36.03 199.18 48.88 164.60 74.97
C 154.43 82.64 149.99 86.97 152.27 86.97
C 153.07 86.97 155.44 85.68 157.52 84.12
C 162.75 80.19 178.60 72.41 189.04 68.65
C 202.44 63.84 218.20 60.16 250.60 54.29
C 266.96 51.32 290.26 46.46 302.38 43.51
C 324.48 38.10 347.73 34.61 351.65 36.12
C 352.81 36.56 353.57 37.85 353.35 38.99
C 353.02 40.66 350.79 41.31 341.65 42.40
C 328.25 43.98 321.40 45.34 300.00 50.68
C 291.15 52.87 273.21 56.60 260.12 58.95
C 213.27 67.33 194.30 72.48 175.79 81.81
C 162.61 88.45 158.50 91.52 159.20 94.18
C 159.96 97.10 160.39 97.09 172.62 93.61
M 162.77 67.21
C 182.07 53.35 204.64 43.20 231.44 36.36
C 252.98 30.85 268.92 28.72 298.79 27.33
C 312.88 26.67 329.86 25.36 336.52 24.43
C 355.48 21.78 383.50 10.41 379.92 6.83
C 378.98 5.89 373.86 6.27 361.37 8.21
C 344.74 10.81 343.02 10.85 312.25 9.55
C 245.42 6.74 206.68 13.66 176.30 33.88
C 165.50 41.06 152.57 54.85 148.44 63.59
C 146.62 67.44 145.29 70.70 145.49 70.86
C 145.75 71.09 149.88 72.62 153.25 73.77
C 153.40 73.81 157.69 70.87 162.77 67.21"/>
<path fill="#000000" stroke="none" d="
M 96.96 124.55
C 93.32 120.89 93.15 115.50 96.54 110.03
C 99.65 104.98 102.12 103.64 108.31 103.64
C 114.77 103.64 119.05 107.68 119.05 113.79
C 119.05 119.68 117.40 122.28 111.92 125.09
C 105.55 128.33 100.57 128.15 96.96 124.55
M 113.15 117.83
C 116.35 111.86 110.31 105.39 104.17 108.19
C 100.19 110.01 100.42 111.53 104.79 112.40
C 107.60 112.97 108.54 113.91 109.11 116.72
C 109.94 120.94 111.30 121.31 113.15 117.83"/>
<path fill="#7b4640" stroke="none" d="
M 159.20 94.18
C 158.50 91.52 162.61 88.45 175.79 81.81
C 194.30 72.48 213.27 67.33 260.12 58.95
C 273.21 56.60 291.15 52.87 300.00 50.68
C 321.40 45.34 328.25 43.98 341.65 42.40
C 350.79 41.31 353.02 40.66 353.35 38.99
C 353.57 37.85 352.81 36.56 351.65 36.12
C 347.73 34.61 324.48 38.10 302.38 43.51
C 290.26 46.46 266.96 51.32 250.60 54.29
C 218.20 60.16 202.44 63.84 189.04 68.65
C 178.60 72.41 162.75 80.19 157.52 84.12
C 155.44 85.68 153.07 86.97 152.27 86.97
C 149.99 86.97 154.43 82.64 164.60 74.97
C 199.18 48.88 240.94 36.03 300.00 33.30
C 314.07 32.64 329.79 31.59 334.92 30.96
C 344.68 29.76 379.46 30.71 380.39 32.22
C 381.54 34.07 363.31 46.45 348.92 53.61
C 323.11 66.43 281.48 75.79 216.35 83.43
C 204.64 84.80 193.55 86.79 189.56 88.24
C 181.74 91.09 163.15 96.48 161.15 96.50
C 160.40 96.50 159.54 95.46 159.20 94.18"/>
<path fill="#7b4640" stroke="none" d="
M 149.40 72.41
C 147.44 71.72 145.68 71.03 145.49 70.86
C 145.29 70.70 146.62 67.44 148.44 63.59
C 152.57 54.85 165.50 41.06 176.30 33.88
C 206.67 13.68 245.42 6.74 312.17 9.54
C 342.65 10.83 344.69 10.78 361.35 8.26
C 373.50 6.41 379.08 5.99 379.96 6.87
C 383.50 10.41 355.31 21.80 336.52 24.43
C 329.86 25.36 312.88 26.67 298.79 27.33
C 268.92 28.72 252.98 30.85 231.44 36.36
C 204.64 43.20 182.07 53.35 162.77 67.21
C 157.69 70.87 153.40 73.81 153.25 73.77
C 153.11 73.72 151.37 73.11 149.40 72.41"/>
<path fill="#a67958" stroke="none" d="
M 11.90 266.73
C 11.90 266.02 13.51 263.92 15.48 262.09
C 17.44 260.25 19.05 258.19 19.05 257.51
C 19.05 253.04 11.77 256.58 8.68 262.56
C 5.96 267.79 5.24 264.29 7.70 257.85
C 11.39 248.17 12.55 247.79 38.55 247.77
C 88.73 247.72 139.68 243.36 156.55 237.67
C 161.13 236.12 167.15 234.26 169.94 233.53
C 173.76 232.53 175.00 231.63 175.00 229.84
C 175.00 226.66 172.58 225.92 167.14 227.42
C 164.67 228.11 162.48 228.50 162.27 228.30
C 162.07 228.10 160.87 223.88 159.61 218.91
C 155.73 203.74 145.39 186.37 135.65 178.65
C 130.10 174.24 118.74 169.24 114.20 169.19
C 112.51 169.18 105.68 171.06 99.02 173.38
C 89.45 176.71 86.40 177.33 84.52 176.31
C 81.04 174.44 81.50 173.20 88.18 166.70
C 94.36 160.67 95.40 157.06 91.21 156.25
C 89.76 155.98 86.61 158.19 82.13 162.62
C 76.85 167.87 74.73 169.24 72.87 168.65
C 69.19 167.47 67.18 164.60 68.86 162.92
C 70.65 161.12 70.63 156.93 68.81 155.11
C 66.95 153.25 62.81 153.27 60.80 155.17
C 55.61 160.05 66.76 134.15 75.52 120.98
C 89.73 99.62 110.93 84.65 133.14 80.31
C 144.23 78.14 147.39 79.04 143.56 83.27
C 140.13 87.06 141.57 89.76 147.55 90.78
C 153.32 91.77 154.71 93.14 154.74 97.84
C 154.77 103.58 157.07 104.14 169.11 101.31
C 177.60 99.32 180.35 99.07 181.68 100.18
C 182.61 100.95 188.23 109.74 194.14 119.70
C 206.58 140.62 212.83 148.28 221.12 152.80
C 231.50 158.46 240.43 160.16 258.93 160.00
C 283.67 159.80 303.63 155.86 369.89 138.10
C 442.31 118.68 461.40 117.44 487.76 130.46
C 499.26 136.13 513.24 146.45 520.13 154.32
C 526.64 161.77 534.38 174.47 537.57 182.94
C 539.19 187.25 541.89 197.28 543.57 205.23
C 548.42 228.21 552.98 237.50 561.35 241.49
C 566.49 243.94 570.99 242.23 577.14 235.47
C 589.10 222.35 589.25 222.23 591.39 224.37
C 596.10 229.08 590.82 245.16 581.95 253.19
C 571.68 262.47 558.75 265.93 546.31 262.74
C 535.73 260.04 534.11 258.67 531.82 250.59
C 528.94 240.37 522.31 230.09 509.12 215.41
C 500.15 205.44 496.81 202.47 494.85 202.75
C 489.63 203.50 491.35 207.16 502.38 218.91
C 514.95 232.29 521.43 241.49 524.95 250.92
C 527.86 258.68 527.29 260.04 519.64 263.35
C 512.18 266.60 463.11 267.64 436.31 265.11
C 402.15 261.91 385.04 261.52 376.62 263.73
C 367.05 266.26 365.36 266.11 369.35 263.14
C 371.14 261.80 372.62 259.94 372.62 259.01
C 372.62 255.94 368.04 257.25 363.93 261.49
C 359.88 265.66 357.14 266.82 357.14 264.35
C 357.14 263.64 358.75 261.54 360.71 259.70
C 364.64 256.04 365.30 253.75 362.42 253.75
C 359.17 253.75 356.04 256.08 353.99 260.04
C 351.23 265.36 350.44 262.00 352.93 255.49
C 355.64 248.38 361.15 243.80 365.99 244.66
C 374.06 246.08 450.50 247.78 467.25 246.92
C 482.55 246.14 485.14 245.72 485.48 244.00
C 485.73 242.68 484.36 241.30 481.40 239.90
C 478.96 238.74 470.75 231.60 463.17 224.02
C 455.57 216.46 447.17 208.55 444.49 206.46
C 437.10 200.70 432.87 188.94 432.80 173.94
C 432.75 164.16 432.46 162.59 430.65 162.24
C 425.11 161.17 424.82 182.56 430.19 196.83
C 433.54 205.73 433.90 205.08 424.40 206.69
C 410.04 209.12 373.13 225.29 360.86 234.53
C 353.69 239.94 322.75 253.53 307.86 257.83
C 288.75 263.35 275.62 262.91 254.05 256.01
C 240.10 251.57 237.36 249.07 236.33 239.90
C 235.29 230.64 234.90 229.67 232.44 230.16
C 230.62 230.52 230.36 232.10 230.36 242.85
C 230.36 254.33 230.18 255.27 227.54 257.43
C 222.14 261.81 213.71 263.05 184.52 263.72
C 169.13 264.08 144.76 265.24 130.36 266.32
C 110.69 267.78 98.38 268.04 80.95 267.38
C 48.58 266.13 31.17 266.09 25.60 267.26
L 20.83 268.26
L 24.31 265.36
C 26.63 263.43 27.54 261.81 27.02 260.49
C 25.89 257.55 24.58 258.02 19.33 263.28
C 14.61 268.00 11.90 269.26 11.90 266.73
M 111.92 125.09
C 117.40 122.28 119.05 119.68 119.05 113.79
C 119.05 107.68 114.77 103.64 108.31 103.64
C 102.12 103.64 99.65 104.98 96.54 110.03
C 93.15 115.50 93.32 120.89 96.96 124.55
C 100.57 128.15 105.55 128.33 111.92 125.09"/>
<path fill="#eb2e00" stroke="none" d="
M 109.11 116.72
C 108.54 113.91 107.60 112.97 104.79 112.40
C 100.32 111.51 100.18 109.92 104.43 108.31
C 110.83 105.87 116.33 111.89 113.15 117.83
C 111.30 121.31 109.94 120.94 109.11 116.72"/>
</g>
</svg>
