<?xml version="1.0" encoding="UTF-8" standalone="no"?>
<!DOCTYPE svg PUBLIC "-//W3C//DTD SVG 1.1//EN"
"http://www.w3.org/Graphics/SVG/1.1/DTD/svg11.dtd">
<svg width="600px" height="570px"
xmlns="http://www.w3.org/2000/svg" version="1.1">
<g transform="translate(0000, 0000) scale(1.0000, 1.0000)">
<path fill="#000000" stroke="none" d="
M 536.94 569.22
C 530.20 568.98 499.35 567.97 468.37 566.95
C 437.39 565.93 399.65 564.48 384.49 563.74
C 353.87 562.22 308.31 562.91 249.18 565.81
C 198.11 568.32 30.28 569.66 20.58 567.63
C 7.96 565.00 0.00 557.06 0.00 547.08
C 0.00 527.23 24.83 517.89 98.57 510.00
C 111.37 508.64 127.08 506.94 133.47 506.26
C 139.86 505.57 146.98 505.02 149.27 505.02
C 153.17 505.03 153.32 504.89 151.49 502.89
C 148.54 499.61 147.16 495.09 145.02 481.61
C 143.94 474.82 139.84 459.10 135.91 446.67
C 131.98 434.25 128.40 422.47 127.97 420.51
L 127.19 416.93
L 122.22 418.70
C 119.49 419.65 111.67 421.33 104.85 422.41
C 97.30 423.61 88.14 426.14 81.43 428.86
C 71.18 433.02 69.51 433.32 57.55 433.32
C 47.87 433.32 43.19 432.75 38.57 430.99
C 23.42 425.21 14.69 415.18 14.69 403.55
C 14.69 395.64 16.52 391.44 23.87 382.45
C 26.90 378.75 36.84 365.90 45.96 353.93
C 71.80 319.96 84.16 308.34 102.24 300.98
C 106.26 299.35 109.73 297.47 109.95 296.79
C 110.18 296.12 108.87 290.98 107.06 285.38
C 104.27 276.80 103.65 272.39 103.18 257.42
C 102.66 241.46 103.00 237.34 106.49 216.97
C 109.68 198.43 112.44 170.87 112.62 155.95
C 112.73 147.32 123.72 155.53 126.94 166.65
C 128.89 173.35 128.83 186.02 126.66 216.35
L 125.96 226.16
L 130.46 217.13
C 139.68 198.57 156.59 186.37 179.28 181.92
C 188.74 180.06 191.39 179.99 199.29 181.31
C 204.28 182.15 208.62 182.60 208.92 182.30
C 209.22 182.00 206.95 178.42 203.88 174.32
C 197.82 166.26 187.68 156.49 178.44 149.82
C 171.67 144.94 170.20 142.66 170.20 137.11
C 170.20 132.37 170.85 131.71 221.18 84.90
C 239.46 67.91 254.76 53.08 255.20 51.95
C 255.69 50.66 254.14 46.85 251.07 41.76
C 248.38 37.30 245.83 31.91 245.40 29.80
C 244.30 24.26 246.93 17.55 252.71 11.25
C 264.65 -1.78 284.60 -3.33 297.24 7.78
C 303.29 13.12 306.06 19.81 306.10 29.25
C 306.12 36.20 306.36 36.93 308.27 36.10
C 321.39 30.40 326.93 29.68 336.31 32.47
C 345.26 35.13 351.78 40.38 355.54 47.93
C 359.68 56.24 359.69 62.63 355.60 70.86
C 349.59 82.95 339.65 88.39 328.13 85.92
C 324.55 85.14 321.17 84.96 320.63 85.50
C 319.46 86.68 317.98 94.44 309.91 141.58
C 306.56 161.13 303.48 181.27 303.06 186.32
C 302.16 197.16 299.46 205.48 296.30 207.17
C 292.57 209.17 286.87 208.56 279.22 205.33
C 270.11 201.50 251.55 196.67 241.52 195.53
L 233.85 194.66
L 240.56 201.53
C 247.98 209.15 254.84 222.12 257.02 232.66
C 258.76 241.07 258.75 256.77 256.98 265.02
C 255.28 273.00 250.73 283.54 246.70 288.84
C 245.03 291.02 243.67 293.11 243.67 293.48
C 243.67 293.86 246.56 292.33 250.10 290.09
C 257.80 285.21 275.52 277.02 286.53 273.26
C 297.09 269.67 317.45 269.09 318.11 272.37
C 318.40 273.88 316.40 275.54 310.93 278.29
C 306.76 280.42 298.87 285.06 293.41 288.64
C 287.94 292.22 273.55 301.19 261.43 308.57
C 228.54 328.60 208.97 340.86 207.12 342.61
C 202.93 346.57 244.65 378.77 253.96 378.77
C 256.24 378.77 280.92 354.26 344.07 289.29
C 455.74 174.41 461.02 169.16 465.22 169.16
C 476.20 169.16 482.61 177.18 519.98 237.71
C 537.28 265.74 556.35 296.28 562.33 305.57
C 568.32 314.87 573.05 323.42 572.83 324.57
C 572.61 325.73 571.32 326.82 569.99 327.01
C 568.20 327.25 566.41 325.55 563.27 320.60
C 560.51 316.26 558.32 314.03 557.14 314.36
C 556.14 314.64 551.72 315.82 547.35 316.98
C 536.55 319.85 535.97 320.40 538.20 325.72
C 540.97 332.37 540.59 335.87 537.10 335.87
C 534.78 335.87 533.69 334.66 531.66 329.74
C 528.65 322.49 528.34 322.44 512.45 326.48
L 501.43 329.30
L 501.86 336.88
C 502.27 344.24 502.20 344.45 499.25 344.45
C 496.38 344.45 496.15 343.95 495.38 336.18
C 494.93 331.63 492.07 312.46 489.04 293.58
C 486.01 274.70 481.13 242.53 478.20 222.08
C 475.26 201.63 472.64 184.68 472.38 184.41
C 471.92 183.96 386.60 270.96 311.85 348.12
C 292.59 368.00 277.22 384.63 277.70 385.09
C 278.18 385.53 283.25 386.90 288.98 388.13
C 296.98 389.83 304.51 390.32 321.43 390.25
C 344.96 390.15 348.06 389.82 394.29 382.46
C 433.67 376.20 451.10 374.63 472.04 375.46
C 498.91 376.54 520.25 381.73 541.41 392.32
C 586.11 414.71 601.87 447.36 599.62 512.91
C 599.22 524.79 598.16 536.49 597.20 539.97
C 593.72 552.43 587.88 561.04 579.60 565.89
C 574.59 568.82 572.61 569.22 561.58 569.41
C 554.77 569.53 543.67 569.45 536.94 569.22
M 569.53 562.62
C 576.29 560.75 584.41 552.85 588.15 544.54
C 592.27 535.33 593.83 524.42 593.85 504.38
C 593.93 458.08 583.24 430.47 557.76 411.03
C 534.84 393.55 504.40 383.10 472.04 381.63
C 452.90 380.76 434.40 382.40 400.41 387.99
C 353.04 395.78 347.23 396.40 321.43 396.43
C 301.15 396.45 294.54 396.00 282.96 393.75
C 246.70 386.75 228.42 377.47 206.20 354.85
L 196.27 344.73
L 189.20 345.52
L 182.12 346.29
L 186.83 349.35
C 196.52 355.64 200.28 367.06 194.55 372.79
C 192.23 375.11 190.91 375.33 182.38 374.84
C 172.25 374.25 161.63 370.05 153.70 363.48
C 150.20 360.58 150.12 360.29 151.71 356.44
C 154.95 348.58 154.86 344.66 151.36 341.41
C 147.82 338.11 147.10 332.19 149.58 326.73
C 151.37 322.82 157.93 320.87 165.75 321.95
C 168.87 322.37 171.43 322.36 171.43 321.92
C 171.43 320.70 155.13 310.41 149.16 307.85
C 138.82 303.44 132.31 302.55 120.55 303.95
C 97.75 306.67 80.08 320.65 52.32 357.94
C 44.53 368.38 35.33 380.25 31.85 384.29
C 24.86 392.42 20.82 399.39 20.82 403.30
C 20.82 410.01 28.80 418.61 39.80 423.76
C 46.10 426.70 48.61 427.18 57.55 427.12
C 66.47 427.06 69.27 426.47 77.07 423.11
C 82.27 420.86 92.00 418.12 99.72 416.74
C 118.47 413.37 123.88 411.33 130.96 404.95
C 137.44 399.12 141.16 398.41 141.81 402.87
C 142.07 404.68 140.69 406.73 137.40 409.51
C 133.20 413.04 132.75 413.91 133.70 416.68
C 140.76 437.18 148.74 465.25 150.61 476.14
C 154.05 496.18 154.65 497.43 162.42 500.86
C 166.03 502.47 168.98 504.36 168.98 505.08
C 168.98 508.65 159.56 510.40 123.06 513.59
C 77.14 517.61 37.13 524.71 21.89 531.55
C 14.36 534.93 6.12 542.70 6.12 546.40
C 6.13 550.35 10.87 556.39 16.18 559.23
L 21.43 562.03
L 112.04 561.92
C 177.88 561.85 214.54 561.25 246.12 559.74
C 317.01 556.36 354.47 555.98 399.18 558.18
C 432.76 559.83 465.43 560.97 539.39 563.05
C 545.45 563.22 553.71 563.48 557.76 563.61
C 561.80 563.75 567.10 563.31 569.53 562.62
M 280.13 371.14
C 286.68 364.25 321.80 328.06 358.16 290.75
C 467.12 178.93 468.24 177.74 466.74 176.23
C 465.34 174.84 453.42 186.79 348.97 294.17
C 324.39 319.45 295.10 349.37 283.87 360.67
C 266.72 377.93 263.78 381.40 265.51 382.40
C 266.63 383.06 267.70 383.62 267.88 383.64
C 268.08 383.67 273.59 378.04 280.13 371.14
M 188.57 366.52
C 191.71 363.38 191.66 362.56 188.06 358.28
C 184.73 354.32 175.22 349.32 165.61 346.49
L 159.18 344.59
L 159.18 348.28
C 159.18 350.31 158.64 352.98 157.98 354.21
C 157.02 356.02 157.54 357.03 160.74 359.47
C 172.25 368.22 183.92 371.17 188.57 366.52
M 199.59 336.93
C 201.96 336.10 213.80 329.28 225.92 321.74
C 247.65 308.23 272.29 293.41 290.17 283.10
C 295.20 280.19 298.73 277.63 298.00 277.39
C 292.86 275.67 255.77 294.07 227.90 312.16
C 202.74 328.50 197.36 330.34 177.58 329.41
C 169.82 329.03 162.01 328.17 160.22 327.47
C 155.58 325.67 152.76 328.04 153.27 333.28
L 153.67 337.32
L 165.18 337.81
C 171.51 338.07 177.02 338.63 177.43 339.06
C 178.52 340.19 194.64 338.64 199.59 336.93
M 202.67 318.88
C 211.69 314.66 212.69 313.08 205.03 315.20
C 202.25 315.98 194.57 316.32 186.93 316.00
L 173.64 315.45
L 178.36 319.57
C 182.50 323.20 183.73 323.63 188.71 323.23
C 191.80 322.99 198.09 321.03 202.67 318.88
M 521.02 317.43
C 534.51 313.77 550.70 309.15 553.30 308.24
C 554.62 307.78 554.51 306.98 552.73 304.29
C 551.50 302.44 535.67 276.95 517.53 247.61
C 487.46 198.99 480.00 187.34 480.00 189.03
C 480.00 193.44 498.97 317.09 500.22 320.83
C 500.82 322.62 503.68 322.15 521.02 317.43
M 201.06 308.78
C 226.07 303.61 246.51 282.51 251.16 257.11
C 257.83 220.56 219.27 181.96 182.76 188.64
C 156.60 193.43 135.67 214.38 130.89 240.56
C 126.67 263.59 141.82 291.59 164.52 302.79
C 178.31 309.58 188.87 311.31 201.06 308.78
M 125.76 284.60
C 120.00 273.02 119.73 272.03 119.12 259.77
C 118.76 252.75 119.23 236.52 120.16 223.71
C 122.30 193.90 122.24 171.01 119.98 166.10
C 118.41 162.68 118.22 163.60 117.44 178.97
C 116.98 188.08 114.88 205.35 112.79 217.36
C 108.09 244.33 107.69 262.08 111.47 278.16
C 112.84 283.99 115.04 290.55 116.35 292.71
C 118.56 296.35 119.24 296.65 125.24 296.65
L 131.74 296.65
L 125.76 284.60
M 293.28 199.35
C 294.33 197.73 295.95 190.25 296.91 182.50
C 298.82 167.11 311.63 91.59 313.59 84.23
C 315.31 77.72 318.81 76.32 327.32 78.73
C 335.41 81.04 339.00 79.84 345.47 72.67
C 352.04 65.38 353.39 60.25 350.49 53.68
C 347.44 46.79 340.70 41.00 333.07 38.74
C 327.70 37.13 326.22 37.13 321.12 38.67
C 310.65 41.86 305.80 45.43 302.04 52.73
C 300.15 56.42 294.31 66.90 289.07 76.00
C 277.44 96.18 232.78 176.33 229.11 183.56
L 226.48 188.77
L 235.24 188.77
C 245.83 188.77 269.19 193.79 281.02 198.62
C 285.73 200.53 290.00 202.14 290.49 202.18
C 290.98 202.22 292.22 200.95 293.28 199.35
M 224.08 177.74
C 228.44 169.10 276.43 83.02 286.16 66.40
C 297.26 47.43 300.00 40.77 300.00 32.75
C 300.00 28.86 299.25 23.89 298.35 21.72
C 296.08 16.29 287.66 8.97 281.89 7.43
C 272.46 4.88 260.07 11.11 254.03 21.41
C 250.49 27.47 250.54 27.68 258.42 40.12
C 262.87 47.14 263.16 53.25 259.29 58.63
C 256.36 62.69 204.69 111.43 188.62 125.28
C 183.37 129.80 178.73 134.42 178.29 135.56
C 177.47 137.71 180.44 143.42 182.38 143.42
C 184.03 143.42 200.60 158.93 207.23 166.67
C 210.43 170.40 213.94 175.38 215.04 177.74
C 217.05 182.03 219.09 185.10 219.93 185.10
C 220.18 185.10 222.04 181.79 224.08 177.74"/>
<path fill="#000000" stroke="none" d="
M 39.55 409.84
C 38.56 407.24 44.36 402.06 48.27 402.06
C 51.66 402.06 57.55 406.43 57.55 408.93
C 57.55 411.64 54.20 412.36 51.98 410.15
C 49.58 407.74 48.84 407.72 45.84 410.00
C 42.70 412.37 40.51 412.32 39.55 409.84"/>
<path fill="#000000" stroke="none" d="
M 91.74 354.36
C 89.09 351.70 88.16 349.61 88.16 346.29
C 88.16 340.06 93.58 334.65 99.80 334.65
C 106.02 334.65 111.43 340.06 111.43 346.29
C 111.43 352.52 106.02 357.94 99.80 357.94
C 96.48 357.94 94.40 357.00 91.74 354.36
M 105.84 351.54
C 108.40 347.88 108.26 344.11 105.42 340.60
C 102.34 336.81 100.82 338.40 103.54 342.55
C 105.38 345.37 105.44 346.20 103.98 349.10
C 103.08 350.92 102.12 352.84 101.88 353.34
C 100.82 355.51 104.12 354.01 105.84 351.54"/>
<path fill="#ef907a" stroke="none" d="
M 281.02 198.62
C 269.19 193.79 245.83 188.77 235.24 188.77
L 226.48 188.77
L 229.11 183.56
C 232.78 176.33 277.44 96.18 289.07 76.00
C 294.31 66.90 300.15 56.42 302.04 52.73
C 305.80 45.43 310.65 41.86 321.12 38.67
C 326.22 37.13 327.70 37.13 333.07 38.74
C 340.70 41.00 347.44 46.79 350.49 53.68
C 353.39 60.25 352.04 65.38 345.47 72.67
C 339.00 79.84 335.41 81.04 327.32 78.73
C 318.81 76.32 315.31 77.72 313.59 84.23
C 311.63 91.59 298.82 167.11 296.91 182.50
C 295.35 195.07 292.96 202.39 290.49 202.18
C 290.00 202.14 285.73 200.53 281.02 198.62"/>
<path fill="#ef907a" stroke="none" d="
M 218.27 183.56
C 217.60 182.72 216.16 180.11 215.04 177.74
C 213.94 175.38 210.43 170.40 207.23 166.67
C 200.60 158.93 184.03 143.42 182.38 143.42
C 180.44 143.42 177.47 137.71 178.29 135.56
C 178.73 134.42 183.37 129.80 188.62 125.28
C 204.69 111.43 256.36 62.69 259.29 58.63
C 263.16 53.25 262.87 47.14 258.42 40.12
C 250.54 27.68 250.49 27.47 254.03 21.41
C 258.07 14.53 264.24 9.83 271.85 7.86
C 279.65 5.83 285.13 7.32 291.70 13.26
C 297.96 18.90 300.00 23.72 300.00 32.75
C 300.00 40.77 297.26 47.43 286.16 66.40
C 276.43 83.02 228.44 169.10 224.08 177.74
C 222.04 181.79 220.18 185.10 219.93 185.10
C 219.69 185.10 218.94 184.41 218.27 183.56"/>
<path fill="#9d9898" stroke="none" d="
M 177.43 339.06
C 177.02 338.63 171.51 338.07 165.18 337.81
L 153.67 337.32
L 153.27 333.28
C 152.76 328.04 155.58 325.67 160.22 327.47
C 162.01 328.17 169.82 329.03 177.58 329.41
C 197.36 330.34 202.74 328.50 227.90 312.16
C 255.77 294.07 292.86 275.67 298.00 277.39
C 298.73 277.63 295.20 280.19 290.17 283.10
C 272.29 293.41 247.65 308.23 225.92 321.74
C 213.80 329.28 201.96 336.10 199.59 336.93
C 194.64 338.64 178.52 340.19 177.43 339.06"/>
<path fill="#9d9898" stroke="none" d="
M 116.35 292.71
C 115.04 290.55 112.84 283.99 111.47 278.16
C 107.72 262.14 108.09 244.27 112.73 217.96
C 114.91 205.60 116.77 189.96 117.18 180.50
C 117.58 171.56 118.33 164.26 118.86 164.26
C 119.39 164.26 120.48 167.42 121.29 171.28
C 122.79 178.58 122.57 187.44 119.96 224.32
C 119.17 235.44 118.79 250.81 119.11 258.47
C 119.68 272.21 119.77 272.56 125.72 284.52
L 131.74 296.65
L 125.24 296.65
C 119.24 296.65 118.56 296.35 116.35 292.71"/>
<path fill="#c57a36" stroke="none" d="
M 265.51 382.40
C 263.78 381.40 266.72 377.93 283.87 360.67
C 295.10 349.37 324.39 319.45 348.97 294.17
C 449.61 190.67 465.38 174.87 466.76 176.26
C 468.24 177.74 466.78 179.29 358.16 290.75
C 321.80 328.06 286.68 364.25 280.13 371.14
C 273.59 378.04 268.08 383.67 267.88 383.64
C 267.70 383.62 266.63 383.06 265.51 382.40"/>
<path fill="#ffbf53" stroke="none" d="
M 500.22 320.83
C 498.97 317.09 480.00 193.44 480.00 189.03
C 480.00 187.34 487.46 198.99 517.53 247.61
C 535.67 276.95 551.50 302.44 552.73 304.29
C 555.27 308.13 556.13 307.53 542.45 311.47
C 508.74 321.15 500.90 322.89 500.22 320.83"/>
<path fill="#ffbf53" stroke="none" d="
M 179.11 308.36
C 148.29 300.89 125.67 269.09 130.89 240.56
C 135.72 214.07 157.00 193.02 183.31 188.66
C 213.50 183.67 245.19 207.91 251.16 240.56
C 255.45 264.09 240.01 292.01 216.56 303.15
C 202.16 310.01 191.79 311.44 179.11 308.36"/>
<path fill="#aa4422" stroke="none" d="
M 539.39 563.05
C 465.43 560.97 432.76 559.83 399.18 558.18
C 354.47 555.98 317.01 556.36 246.12 559.74
C 214.54 561.25 177.88 561.85 112.04 561.92
L 21.43 562.03
L 16.18 559.23
C 10.87 556.39 6.13 550.35 6.12 546.40
C 6.12 542.70 14.36 534.93 21.89 531.55
C 37.13 524.71 77.14 517.61 123.06 513.59
C 159.56 510.40 168.98 508.65 168.98 505.08
C 168.98 504.36 166.03 502.47 162.42 500.86
C 154.65 497.43 154.05 496.18 150.61 476.14
C 148.74 465.25 140.76 437.18 133.70 416.68
C 132.75 413.91 133.20 413.04 137.40 409.51
C 140.69 406.73 142.07 404.68 141.81 402.87
C 141.16 398.41 137.44 399.12 130.96 404.95
C 123.88 411.33 118.47 413.37 99.72 416.74
C 92.00 418.12 82.27 420.86 77.07 423.11
C 69.27 426.47 66.47 427.06 57.55 427.12
C 48.61 427.18 46.10 426.70 39.80 423.76
C 28.80 418.61 20.82 410.01 20.82 403.30
C 20.82 399.39 24.86 392.42 31.85 384.29
C 35.33 380.25 44.53 368.38 52.32 357.94
C 70.78 333.15 87.88 316.03 100.41 309.80
C 107.77 306.15 111.86 304.98 120.93 303.99
C 133.00 302.66 138.77 303.46 149.16 307.86
C 155.11 310.40 171.43 320.68 171.43 321.92
C 171.43 322.36 168.87 322.37 165.75 321.95
C 157.93 320.87 151.37 322.82 149.58 326.73
C 147.10 332.19 147.82 338.11 151.36 341.41
C 154.86 344.66 154.95 348.58 151.71 356.44
C 150.12 360.29 150.20 360.58 153.70 363.48
C 161.63 370.05 172.25 374.25 182.38 374.84
C 190.91 375.33 192.23 375.11 194.55 372.79
C 200.28 367.06 196.52 355.64 186.83 349.35
L 182.12 346.29
L 189.20 345.52
L 196.27 344.73
L 206.20 354.85
C 228.42 377.47 246.70 386.75 282.96 393.75
C 294.54 396.00 301.15 396.45 321.43 396.43
C 347.23 396.40 353.04 395.78 400.41 387.99
C 434.40 382.40 452.90 380.76 472.04 381.63
C 504.40 383.10 534.84 393.55 557.76 411.03
C 583.24 430.47 593.93 458.08 593.85 504.38
C 593.80 533.35 589.95 547.31 579.44 556.58
C 573.00 562.25 567.77 563.94 557.76 563.61
C 553.71 563.48 545.45 563.22 539.39 563.05
M 45.84 410.00
C 48.84 407.72 49.58 407.74 51.98 410.15
C 54.20 412.36 57.55 411.64 57.55 408.93
C 57.55 406.43 51.66 402.06 48.27 402.06
C 44.36 402.06 38.56 407.24 39.55 409.84
C 40.51 412.32 42.70 412.37 45.84 410.00
M 107.85 354.36
C 110.50 351.70 111.43 349.61 111.43 346.29
C 111.43 340.06 106.02 334.65 99.80 334.65
C 93.58 334.65 88.16 340.06 88.16 346.29
C 88.16 352.52 93.58 357.94 99.80 357.94
C 103.11 357.94 105.20 357.00 107.85 354.36"/>
<path fill="#eb2e00" stroke="none" d="
M 101.88 353.34
C 102.12 352.84 103.08 350.92 103.98 349.10
C 105.43 346.22 105.39 345.37 103.65 342.72
C 101.16 338.90 103.21 337.28 105.83 341.03
C 108.27 344.51 108.28 348.07 105.84 351.54
C 104.12 354.01 100.82 355.51 101.88 353.34"/>
<path fill="#e07753" stroke="none" d="
M 176.31 367.83
C 171.89 366.48 165.31 362.94 160.74 359.47
C 157.54 357.03 157.02 356.02 157.98 354.21
C 158.64 352.98 159.18 350.56 159.18 348.83
C 159.18 344.86 161.52 344.76 171.07 348.33
C 179.77 351.56 186.50 355.70 189.07 359.38
C 191.57 362.95 191.52 363.56 188.57 366.52
C 186.06 369.03 181.78 369.48 176.31 367.83"/>
</g>
</svg>
