<?xml version="1.0" encoding="UTF-8" standalone="no"?>
<!DOCTYPE svg PUBLIC "-//W3C//DTD SVG 1.1//EN"
"http://www.w3.org/Graphics/SVG/1.1/DTD/svg11.dtd">
<svg width="600px" height="560px"
xmlns="http://www.w3.org/2000/svg" version="1.1">
<g transform="translate(0000, 0000) scale(1.0000, 1.0000)">
<path fill="#000000" stroke="none" d="
M 155.04 557.47
C 152.22 554.64 151.95 546.84 154.51 541.89
C 155.48 540.00 159.88 535.30 164.29 531.43
C 173.27 523.54 175.28 520.36 177.05 511.21
C 179.14 500.41 180.70 451.53 179.33 439.39
C 177.27 421.04 173.35 409.89 169.38 411.21
C 168.82 411.41 167.05 415.31 165.45 419.89
C 162.63 427.95 160.12 432.63 146.81 454.55
C 137.96 469.12 128.55 487.84 121.24 505.36
C 112.69 525.85 108.45 532.22 100.45 536.53
C 95.19 539.37 93.24 541.39 89.70 547.70
C 87.31 551.94 84.01 556.15 82.38 557.05
C 80.48 558.10 75.30 558.72 68.18 558.74
C 58.55 558.79 56.63 558.45 54.55 556.36
C 53.21 555.03 52.12 553.38 52.12 552.69
C 52.12 549.35 60.33 535.92 69.14 524.86
C 91.68 496.56 103.20 473.96 121.64 421.82
C 132.23 391.85 133.95 385.24 132.07 381.73
C 131.36 380.40 126.70 374.84 121.71 369.36
C 101.14 346.76 90.59 326.41 81.81 292.28
C 73.28 259.18 73.16 240.30 81.25 205.90
C 83.22 197.49 84.85 190.06 84.85 189.39
C 84.85 188.73 82.04 187.82 78.59 187.36
C 67.65 185.92 64.24 183.12 64.24 175.56
C 64.24 170.24 69.47 165.72 79.41 162.46
C 84.07 160.92 88.36 159.39 88.96 159.05
C 89.54 158.72 86.24 157.48 81.61 156.30
C 58.57 150.45 33.33 135.18 12.68 114.57
C 2.41 104.34 -1.47 97.95 1.07 95.42
C 2.57 93.92 8.19 96.59 50.23 118.72
C 73.44 130.93 86.46 135.76 96.24 135.76
C 105.88 135.76 108.75 134.27 118.18 124.32
C 125.52 116.57 127.61 115.08 133.67 113.35
C 142.30 110.85 144.11 108.36 145.81 96.59
C 146.93 88.78 146.70 85.72 143.84 70.24
C 140.21 50.58 139.78 39.48 142.35 30.96
C 144.50 23.82 150.92 13.99 158.74 5.88
C 168.21 -3.95 170.28 -0.45 164.24 15.15
C 159.16 28.30 159.01 38.61 163.53 64.63
C 166.17 79.88 167.27 90.12 167.27 99.50
L 167.27 112.78
L 173.03 116.69
C 182.96 123.44 197.35 138.12 212.52 156.97
C 220.57 166.97 230.99 179.42 235.70 184.62
C 249.15 199.54 249.49 200.90 243.19 214.72
C 238.17 225.75 233.71 231.19 227.32 234.08
C 219.26 237.75 214.36 236.93 196.63 228.99
C 188.72 225.44 187.15 225.84 190.41 230.61
C 198.97 243.08 208.17 245.94 251.75 249.64
C 316.08 255.09 348.55 252.12 415.66 234.59
C 465.20 221.66 473.99 220.12 498.18 220.05
C 521.89 219.99 532.04 221.92 546.70 229.26
C 564.08 237.95 572.00 248.42 578.39 271.16
C 581.21 281.19 581.52 289.24 580.67 329.70
L 580.27 348.48
L 587.27 375.15
C 596.57 410.62 599.98 426.91 599.99 436.12
C 600.00 442.61 599.55 444.19 597.03 446.73
C 593.58 450.17 590.73 450.47 586.92 447.79
C 579.38 442.52 571.33 413.55 564.32 366.40
C 560.53 340.96 560.35 327.38 563.64 314.53
C 564.97 309.32 565.83 304.81 565.54 304.52
C 564.95 303.94 557.15 328.47 555.24 336.97
C 553.42 344.98 553.67 358.48 555.79 366.61
C 556.81 370.52 559.89 378.41 562.63 384.13
C 568.51 396.40 569.48 403.16 566.87 413.59
C 565.79 417.88 564.68 429.15 564.32 439.39
C 563.49 462.23 561.70 489.47 559.72 509.09
C 558.02 526.06 557.94 533.62 559.36 546.21
C 560.24 554.06 560.10 555.05 557.78 557.37
C 555.42 559.73 553.98 559.92 538.06 559.81
C 523.01 559.70 520.62 559.41 518.63 557.42
C 517.38 556.17 516.36 553.81 516.36 552.16
C 516.36 547.96 519.71 538.59 523.15 533.14
C 524.75 530.61 526.06 527.49 526.06 526.22
C 526.06 524.95 527.53 518.52 529.31 511.95
C 532.30 500.98 532.57 498.12 532.61 476.97
C 532.64 450.65 531.21 442.52 524.19 429.16
C 519.48 420.18 505.22 401.52 502.21 400.35
C 499.58 399.35 496.97 403.14 496.97 407.95
C 496.97 412.50 492.90 418.18 489.64 418.18
C 486.90 418.18 483.62 413.59 482.52 408.15
C 481.52 403.22 479.60 403.52 478.72 408.74
C 477.71 414.53 475.41 418.18 472.72 418.18
C 469.87 418.18 466.67 412.47 466.67 407.41
C 466.67 405.41 466.12 403.44 465.45 403.03
C 464.79 402.62 464.24 403.43 464.24 404.82
C 464.24 406.23 463.14 409.53 461.79 412.17
C 457.43 420.72 452.56 417.75 451.05 405.64
L 450.30 399.58
L 446.82 405.98
C 443.90 411.36 443.56 412.82 444.70 415.33
C 447.79 422.10 444.97 432.57 439.14 435.96
C 436.78 437.35 433.88 441.81 429.52 450.80
C 423.35 463.52 408.95 486.08 398.24 499.81
C 394.67 504.39 392.73 508.08 392.73 510.30
C 392.73 512.18 395.25 518.93 398.33 525.31
C 405.09 539.30 406.30 546.42 402.57 550.16
C 399.47 553.26 393.21 553.54 389.24 550.75
C 386.50 548.84 379.39 535.55 379.39 532.34
C 379.39 531.25 378.53 531.01 376.67 531.58
C 372.21 532.92 372.02 533.73 374.55 540.93
C 377.62 549.67 377.62 554.50 374.55 557.58
C 372.41 559.71 370.53 560.00 359.09 559.98
C 336.80 559.93 332.73 557.90 333.68 547.37
C 334.18 541.90 334.84 540.84 341.55 534.61
C 350.30 526.48 351.21 523.35 348.61 510.30
C 345.32 493.90 343.20 484.62 342.59 484.01
C 342.28 483.68 333.43 484.01 322.93 484.74
C 312.45 485.47 299.90 486.06 295.07 486.06
L 286.28 486.06
L 285.41 496.52
C 284.24 510.48 285.32 519.35 289.68 531.89
C 291.70 537.64 293.33 543.58 293.33 545.10
C 293.33 549.39 289.19 552.73 283.87 552.73
C 276.34 552.73 274.78 550.73 273.81 539.83
C 273.35 534.59 271.50 525.39 269.73 519.39
C 267.95 513.39 266.18 505.60 265.81 502.07
L 265.10 495.66
L 262.19 498.40
C 260.59 499.90 257.59 504.59 255.50 508.82
C 250.72 518.56 249.62 531.27 252.58 542.86
C 255.08 552.58 255.05 553.43 252.12 556.36
C 249.07 559.42 242.00 559.59 239.09 556.67
C 235.41 552.97 233.32 540.15 234.90 530.92
C 235.73 526.07 235.99 517.21 235.54 508.42
C 234.86 494.98 235.05 493.07 238.15 482.41
C 241.58 470.63 242.41 462.53 240.42 460.55
C 239.37 459.49 237.77 463.56 232.04 481.82
C 228.59 492.76 223.03 503.08 219.76 504.57
C 217.08 505.79 216.39 505.61 214.40 503.15
C 213.15 501.60 212.12 499.08 212.12 497.54
C 212.12 493.44 219.01 473.87 221.75 470.15
C 224.22 466.80 232.50 451.65 240.21 436.36
C 246.68 423.53 250.22 421.33 265.36 420.81
C 272.57 420.56 281.10 421.15 287.88 422.39
C 305.67 425.61 329.85 426.19 341.30 423.68
C 353.42 421.02 365.77 414.63 372.12 407.73
C 376.19 403.32 376.82 402.00 375.79 400.07
C 372.16 393.26 376.78 387.55 387.75 385.28
L 395.15 383.76
L 395.15 378.69
L 395.15 373.61
L 365.53 383.72
L 335.90 393.82
L 300.38 398.76
C 274.95 402.32 259.68 405.10 246.67 408.58
C 218.90 416.02 221.47 414.67 217.03 424.28
C 209.61 440.40 208.23 450.63 207.85 492.28
C 207.62 517.09 207.07 530.24 206.15 531.98
C 205.38 533.39 202.07 535.92 198.79 537.58
C 193.61 540.19 192.64 541.28 191.50 545.76
C 188.11 559.08 186.75 559.93 169.28 559.84
C 159.21 559.79 156.99 559.42 155.04 557.47
M 168.21 547.88
C 170.74 542.86 170.80 542.30 168.95 540.96
C 166.24 538.98 163.44 540.63 160.62 545.88
C 158.69 549.47 158.58 550.41 159.96 552.08
C 162.53 555.16 165.22 553.79 168.21 547.88
M 180.56 552.75
C 182.87 551.52 185.77 544.97 184.55 543.75
C 184.16 543.35 182.57 543.03 181.03 543.03
C 178.95 543.03 177.75 544.16 176.39 547.41
C 173.87 553.44 175.45 555.49 180.56 552.75
M 355.95 552.04
C 357.03 549.24 354.65 547.38 352.81 549.59
C 351.26 551.47 351.96 553.94 354.05 553.94
C 354.70 553.94 355.55 553.08 355.95 552.04
M 530.84 551.59
C 532.97 549.45 535.73 542.12 535.75 538.53
C 535.76 537.72 534.73 536.50 533.47 535.83
C 530.64 534.32 529.70 535.32 525.56 544.23
C 523.33 549.07 522.87 551.20 523.84 552.36
C 525.68 554.58 528.11 554.32 530.84 551.59
M 551.49 551.54
C 553.32 549.71 553.71 548.19 553.14 545.18
C 551.84 538.33 550.52 536.79 546.33 537.20
C 542.70 537.55 542.44 537.94 541.07 544.84
C 540.27 548.84 539.87 552.52 540.18 553.02
C 541.36 554.93 549.12 553.92 551.49 551.54
M 66.33 551.21
C 66.97 550.38 68.41 547.35 69.53 544.46
C 71.75 538.74 71.19 535.94 68.30 538.33
C 65.44 540.70 60.35 550.12 61.19 551.48
C 62.24 553.19 64.91 553.05 66.33 551.21
M 80.10 549.19
C 84.04 545.25 84.62 542.45 81.72 541.35
C 80.67 540.93 79.55 540.61 79.25 540.61
C 78.74 540.61 73.94 551.10 73.94 552.22
C 73.94 553.78 77.01 552.27 80.10 549.19
M 344.50 549.39
C 345.28 547.56 346.73 545.10 347.70 543.93
C 349.88 541.32 348.92 540.11 345.53 541.19
C 342.59 542.12 338.91 548.52 339.88 551.02
C 340.92 553.73 342.96 553.02 344.50 549.39
M 245.35 529.64
C 245.52 508.91 247.25 504.58 261.45 489.22
C 267.31 482.90 272.02 476.62 272.82 474.06
C 273.59 471.66 276.19 466.55 278.62 462.70
C 281.88 457.54 283.66 455.79 285.44 456.04
C 289.39 456.57 288.90 459.82 283.56 468.32
C 280.75 472.81 278.84 477.15 279.22 478.18
C 279.78 479.61 282.25 480.00 291.02 480.00
C 308.32 480.00 343.55 477.39 344.41 476.05
C 344.84 475.38 345.55 472.08 346.00 468.73
C 346.95 461.56 348.51 458.18 350.88 458.18
C 353.89 458.18 354.04 460.23 351.92 472.52
C 349.85 484.52 349.85 484.63 352.72 497.14
C 354.52 505.05 355.67 514.18 355.82 521.82
C 356.10 536.53 358.99 545.82 363.50 546.46
C 368.44 547.18 368.75 545.20 365.50 534.00
C 361.98 521.83 361.49 510.02 364.24 503.45
C 365.24 501.05 366.06 497.24 366.06 494.97
C 366.06 492.69 367.25 487.44 368.69 483.30
C 370.13 479.15 371.64 471.13 372.02 465.45
C 372.65 456.19 372.97 455.15 375.15 455.15
C 377.33 455.15 377.64 456.16 378.18 465.26
L 378.79 475.37
L 381.39 472.53
C 382.82 470.97 385.72 465.60 387.83 460.61
C 392.79 448.84 397.90 440.95 403.89 435.82
C 411.05 429.68 422.88 427.52 430.73 430.90
C 432.75 431.77 432.81 431.61 431.36 429.30
C 428.95 425.43 431.50 423.38 435.49 425.99
C 438.39 427.90 438.53 427.87 439.24 425.04
C 439.65 423.43 439.41 420.47 438.70 418.46
C 437.55 415.14 434.96 412.75 417.68 399.13
C 406.50 390.29 384.04 387.64 381.27 394.82
C 380.13 397.81 382.97 399.82 390.28 401.21
C 397.66 402.61 399.45 403.79 398.38 406.58
C 397.55 408.74 395.39 408.91 388.56 407.32
C 383.87 406.23 383.67 406.33 377.65 412.56
C 370.42 420.02 362.82 424.50 351.02 428.21
C 343.45 430.58 339.81 430.91 320.61 430.90
C 304.75 430.90 295.36 430.28 286.24 428.65
C 279.04 427.36 270.24 426.61 265.60 426.86
C 254.82 427.48 250.55 430.53 245.78 441.02
L 242.21 448.90
L 244.97 453.81
C 248.64 460.35 248.57 470.29 244.74 483.03
C 242.22 491.38 241.78 495.58 241.54 513.33
C 241.39 524.67 241.14 535.84 240.99 538.18
C 240.65 543.32 241.93 547.03 243.82 546.40
C 244.76 546.08 245.25 540.72 245.35 529.64
M 285.04 541.22
C 285.37 540.90 284.23 536.67 282.52 531.83
C 279.67 523.82 279.39 521.35 279.39 504.25
C 279.39 486.67 279.25 485.45 277.05 485.04
C 270.38 483.75 269.94 494.08 275.75 515.76
C 278.07 524.42 279.98 533.47 279.99 535.85
C 279.99 538.24 280.36 540.57 280.81 541.01
C 281.76 541.95 284.18 542.07 285.04 541.22
M 395.15 540.00
C 396.40 538.50 395.77 536.32 391.66 527.76
C 388.12 520.38 386.67 515.77 386.67 511.96
C 386.67 505.72 382.24 487.10 380.05 484.10
C 378.00 481.31 376.33 482.67 373.88 489.09
L 371.81 494.51
L 376.19 500.90
C 379.45 505.64 381.20 510.12 383.01 518.36
C 384.34 524.46 385.98 530.87 386.65 532.61
C 387.32 534.34 388.41 537.12 389.07 538.79
C 390.40 542.21 392.91 542.70 395.15 540.00
M 191.33 533.24
C 195.44 531.18 199.45 528.32 200.24 526.87
C 201.25 525.03 201.60 516.63 201.39 498.79
C 200.93 458.57 204.17 434.24 212.21 417.41
C 215.84 409.79 215.93 409.12 218.84 368.25
C 220.46 345.45 222.30 326.30 222.93 325.67
C 224.62 323.99 227.89 325.65 227.83 328.15
C 227.81 329.33 226.51 347.76 224.97 369.09
C 223.42 390.42 222.23 407.98 222.30 408.10
C 222.39 408.22 230.08 406.17 239.41 403.54
C 251.94 400.01 266.16 397.36 293.94 393.38
L 331.52 387.99
L 367.88 375.70
C 402.93 363.85 404.55 363.43 412.79 363.93
C 423.81 364.61 434.36 369.96 441.61 378.56
C 455.56 395.09 460.19 397.58 477.10 397.58
C 487.25 397.58 498.51 395.31 497.77 393.42
C 497.49 392.70 491.98 384.22 485.50 374.55
C 473.18 356.10 456.46 324.13 457.19 320.38
C 457.44 319.03 458.67 318.18 460.33 318.18
C 462.61 318.18 463.93 320.11 468.24 329.70
C 477.58 350.40 494.96 377.44 517.25 405.93
C 535.83 429.66 538.87 439.98 538.62 478.18
C 538.46 501.21 538.16 504.67 535.43 514.55
C 533.78 520.55 532.68 526.10 532.98 526.88
C 533.75 528.88 540.10 530.91 545.61 530.91
C 549.44 530.91 550.36 530.42 550.87 528.18
C 552.45 521.27 553.95 508.16 555.14 490.91
C 555.85 480.58 556.97 464.73 557.61 455.68
C 558.25 446.65 558.78 434.65 558.78 429.02
C 558.76 423.39 559.66 414.92 560.76 410.21
L 562.78 401.62
L 557.25 389.56
C 549.96 373.68 547.88 365.15 547.89 351.35
C 547.89 338.92 550.23 327.47 556.39 309.70
C 558.46 303.70 560.92 293.90 561.84 287.94
C 563.48 277.39 563.45 276.97 560.87 272.79
C 559.42 270.42 556.38 266.45 554.13 263.95
C 550.06 259.44 549.64 255.76 553.19 255.76
C 555.82 255.76 564.36 266.06 568.17 273.79
C 572.74 283.10 573.26 295.60 569.82 313.60
C 566.63 330.24 566.62 339.61 569.77 362.13
C 574.70 397.42 583.31 433.50 588.56 440.97
C 590.21 443.30 590.82 443.50 592.39 442.21
C 595.60 439.54 593.59 423.88 586.57 396.97
C 573.77 347.90 574.24 350.52 574.63 329.70
C 575.43 288.08 575.19 282.42 572.22 271.79
C 567.53 255.02 558.82 243.87 544.24 235.94
C 530.15 228.28 519.72 226.06 498.18 226.17
C 476.55 226.28 464.48 228.41 423.64 239.35
C 372.24 253.10 350.01 256.75 311.15 257.82
C 284.21 258.56 248.42 256.55 219.89 252.69
C 200.50 250.08 188.50 243.41 183.09 232.24
L 180.56 227.02
L 172.25 226.32
C 167.70 225.94 161.98 224.79 159.54 223.78
C 153.16 221.12 141.62 209.87 142.07 206.75
C 142.74 202.05 146.53 203.24 154.44 210.63
C 162.99 218.63 168.13 220.61 180.42 220.61
C 187.04 220.61 187.60 220.40 187.02 218.19
C 185.87 213.79 189.95 213.95 195.01 218.51
C 200.56 223.53 206.86 225.87 215.18 225.98
C 220.36 226.05 222.18 225.39 227.38 221.58
C 231.18 218.80 234.78 214.73 236.90 210.82
C 240.16 204.85 240.22 204.38 238.44 200.76
C 237.41 198.68 233.43 193.42 229.60 189.09
C 225.76 184.76 218.51 176.02 213.47 169.70
C 178.30 125.49 165.82 116.10 144.90 118.16
C 135.14 119.12 131.88 120.57 126.13 126.55
L 121.98 130.88
L 124.92 134.02
C 129.37 138.75 128.99 145.83 123.94 152.69
C 121.77 155.65 120.00 158.87 120.00 159.87
C 120.00 160.87 121.47 163.81 123.26 166.40
C 125.77 170.01 126.24 171.58 125.28 173.13
C 123.55 175.94 109.95 182.55 101.27 184.79
C 97.31 185.82 93.61 187.12 93.07 187.66
C 91.82 188.91 84.45 220.27 82.39 233.09
C 78.53 256.97 87.93 301.07 103.19 330.79
C 112.17 348.29 136.62 377.60 150.22 387.16
C 155.26 390.72 161.47 395.95 164.01 398.80
C 167.24 402.42 169.01 403.60 169.89 402.72
C 171.56 401.04 169.88 395.98 161.65 377.96
C 149.82 352.05 144.64 327.12 145.78 301.66
C 146.46 286.90 147.88 282.00 151.30 282.68
C 153.52 283.13 153.52 283.16 152.05 300.80
C 150.29 322.17 155.47 346.36 167.83 374.55
C 172.07 384.21 176.19 395.39 176.99 399.39
C 177.79 403.39 179.26 408.85 180.24 411.52
C 184.29 422.40 185.45 433.84 185.42 462.23
C 185.35 507.61 183.30 522.92 176.33 530.10
C 173.35 533.16 172.65 534.59 173.66 535.60
C 176.13 538.07 183.67 537.07 191.33 533.24
M 92.33 532.57
C 95.88 530.81 100.07 528.22 101.64 526.81
C 104.93 523.84 110.52 513.14 116.91 497.58
C 122.87 483.07 137.22 455.60 146.67 440.67
C 154.99 427.48 159.39 418.40 160.63 411.79
C 161.35 408.01 160.91 406.95 156.80 402.39
C 154.24 399.56 149.42 395.42 146.08 393.16
L 140.00 389.08
L 137.77 396.05
C 132.40 412.79 117.96 452.57 113.03 464.21
C 102.90 488.08 91.94 507.73 80.81 521.95
C 73.71 531.02 73.54 532.72 79.50 534.50
C 84.82 536.08 85.36 536.01 92.33 532.57
M 375.20 524.35
C 377.35 522.79 377.41 522.18 375.98 516.78
C 373.20 506.32 368.48 504.91 368.48 514.53
C 368.48 520.21 370.19 526.06 371.85 526.06
C 372.41 526.06 373.92 525.30 375.20 524.35
M 399.50 485.73
C 413.93 466.23 428.72 440.30 427.39 436.84
C 425.64 432.27 409.90 438.15 404.33 445.45
C 402.59 447.72 397.96 456.28 394.02 464.48
L 386.85 479.39
L 388.81 487.58
C 389.89 492.07 391.07 495.75 391.44 495.73
C 391.82 495.72 395.44 491.22 399.50 485.73
M 441.87 399.90
C 445.39 392.93 445.75 393.88 435.84 383.32
C 426.18 373.01 411.49 367.22 403.13 370.44
C 400.61 371.41 400.30 385.45 402.81 385.45
C 408.85 385.45 417.89 389.92 427.50 397.62
C 433.28 402.27 438.18 406.06 438.39 406.06
C 438.58 406.06 440.15 403.28 441.87 399.90
M 100.00 178.62
C 104.00 177.59 110.15 175.39 113.65 173.73
L 120.02 170.72
L 117.59 167.62
C 116.25 165.92 115.15 163.05 115.15 161.27
L 115.15 158.02
L 104.55 161.36
C 98.72 163.20 89.93 165.85 85.02 167.27
C 74.90 170.19 69.09 174.65 71.56 177.64
C 75.19 182.01 85.38 182.36 100.00 178.62
M 114.33 150.97
C 123.22 147.79 126.22 142.11 121.33 137.68
C 119.14 135.70 118.72 135.76 112.85 138.73
C 102.87 143.78 94.79 144.01 81.60 139.59
C 69.95 135.68 48.56 125.37 26.16 112.86
C 18.87 108.79 12.70 105.68 12.44 105.95
C 11.60 106.78 32.91 124.87 41.83 130.90
C 55.77 140.33 74.65 148.95 87.88 151.90
C 93.26 153.10 109.99 152.52 114.33 150.97
M 160.48 95.15
C 160.40 84.25 159.54 75.28 157.71 66.06
C 154.22 48.50 153.20 33.31 155.03 26.02
C 157.19 17.47 155.67 18.01 151.28 27.37
C 146.00 38.68 145.71 45.36 149.58 65.98
C 153.02 84.34 153.39 91.68 151.45 102.22
C 150.75 106.01 150.53 109.68 150.96 110.39
C 151.39 111.08 153.73 111.48 156.17 111.27
L 160.61 110.91
L 160.48 95.15"/>
<path fill="#000000" stroke="none" d="
M 408.48 414.55
C 407.15 413.21 406.06 410.76 406.06 409.09
C 406.06 407.42 407.15 404.97 408.48 403.64
C 409.82 402.30 412.27 401.21 413.94 401.21
C 415.61 401.21 418.06 402.30 419.39 403.64
C 420.73 404.97 421.82 407.42 421.82 409.09
C 421.82 410.76 420.73 413.21 419.39 414.55
C 418.06 415.88 415.61 416.97 413.94 416.97
C 412.27 416.97 409.82 415.88 408.48 414.55
M 412.85 409.09
C 412.85 404.47 411.70 403.65 409.85 406.93
C 409.12 408.27 409.12 409.82 409.84 411.18
C 411.65 414.56 412.85 413.72 412.85 409.09"/>
<path fill="#000000" stroke="none" d="
M 216.53 214.46
C 214.12 212.57 213.30 210.96 213.56 208.64
C 214.05 204.47 218.53 203.89 224.01 207.27
C 227.22 209.26 227.95 210.42 227.65 213.05
C 227.35 215.76 226.59 216.44 223.58 216.73
C 221.19 216.96 218.69 216.16 216.53 214.46"/>
<path fill="#000000" stroke="none" d="
M 156.91 166.73
C 154.62 164.42 153.94 162.47 153.94 158.18
C 153.94 153.89 154.62 151.94 156.91 149.64
C 163.90 142.65 176.97 148.23 176.97 158.18
C 176.97 168.13 163.90 173.71 156.91 166.73
M 162.99 163.94
C 160.78 158.75 160.95 155.33 163.52 153.73
C 166.50 151.88 166.82 150.30 164.24 150.30
C 158.79 150.30 155.64 159.48 159.58 163.84
C 162.13 166.67 164.18 166.72 162.99 163.94"/>
<path fill="#c1b6b6" stroke="none" d="
M 87.88 151.90
C 74.65 148.95 55.77 140.33 41.83 130.90
C 32.91 124.87 11.60 106.78 12.44 105.95
C 12.70 105.68 18.87 108.79 26.16 112.86
C 48.56 125.37 69.95 135.68 81.60 139.59
C 94.79 144.01 102.87 143.78 112.85 138.73
C 118.72 135.76 119.14 135.70 121.33 137.68
C 126.22 142.11 123.22 147.79 114.33 150.97
C 109.99 152.52 93.26 153.10 87.88 151.90"/>
<path fill="#c1b6b6" stroke="none" d="
M 150.96 110.39
C 150.53 109.68 150.75 106.01 151.45 102.22
C 153.39 91.68 153.02 84.34 149.58 65.98
C 145.83 46.00 146.07 38.75 150.85 28.18
C 154.33 20.48 157.18 17.87 155.48 23.94
C 153.66 30.42 154.70 51.27 157.55 65.45
C 159.55 75.36 160.39 83.95 160.48 95.15
L 160.61 110.91
L 156.17 111.27
C 153.73 111.48 151.39 111.08 150.96 110.39"/>
<path fill="#aa4422" stroke="none" d="
M 241.56 544.64
C 241.09 543.42 240.84 540.52 240.99 538.18
C 241.14 535.84 241.39 524.67 241.54 513.33
C 241.78 495.58 242.22 491.38 244.74 483.03
C 248.57 470.29 248.64 460.35 244.97 453.81
L 242.21 448.90
L 245.78 441.02
C 250.55 430.53 254.82 427.48 265.60 426.86
C 270.24 426.61 279.04 427.36 286.24 428.65
C 295.36 430.28 304.75 430.90 320.61 430.90
C 339.81 430.91 343.45 430.58 351.02 428.21
C 362.82 424.50 370.42 420.02 377.65 412.56
C 383.67 406.33 383.87 406.23 388.56 407.32
C 395.39 408.91 397.55 408.74 398.38 406.58
C 399.45 403.79 397.66 402.61 390.28 401.21
C 382.97 399.82 380.13 397.81 381.27 394.82
C 384.04 387.64 406.50 390.29 417.68 399.13
C 434.96 412.75 437.55 415.14 438.70 418.46
C 439.41 420.47 439.65 423.43 439.24 425.04
C 438.53 427.87 438.39 427.90 435.49 425.99
C 431.50 423.38 428.95 425.43 431.36 429.30
C 432.81 431.61 432.75 431.77 430.73 430.90
C 422.88 427.52 411.05 429.68 403.89 435.82
C 397.90 440.95 392.79 448.84 387.83 460.61
C 385.72 465.60 382.82 470.97 381.39 472.53
L 378.79 475.37
L 378.18 465.26
C 377.64 456.16 377.33 455.15 375.15 455.15
C 372.97 455.15 372.65 456.19 372.02 465.45
C 371.64 471.13 370.13 479.15 368.69 483.30
C 367.25 487.44 366.06 492.69 366.06 494.97
C 366.06 497.24 365.24 501.05 364.24 503.45
C 361.49 510.02 361.98 521.83 365.50 534.00
C 368.75 545.20 368.44 547.18 363.50 546.46
C 358.99 545.82 356.10 536.53 355.82 521.82
C 355.67 514.18 354.52 505.05 352.72 497.14
C 349.85 484.63 349.85 484.52 351.92 472.52
C 354.04 460.23 353.89 458.18 350.88 458.18
C 348.51 458.18 346.95 461.56 346.00 468.73
C 345.55 472.08 344.84 475.38 344.41 476.05
C 343.55 477.39 308.32 480.00 291.02 480.00
C 282.25 480.00 279.78 479.61 279.22 478.18
C 278.84 477.15 280.75 472.81 283.56 468.32
C 288.90 459.82 289.39 456.57 285.44 456.04
C 283.66 455.79 281.88 457.54 278.62 462.70
C 276.19 466.55 273.59 471.66 272.82 474.06
C 272.02 476.62 267.31 482.90 261.45 489.22
C 247.25 504.58 245.52 508.91 245.35 529.64
C 245.25 540.72 244.76 546.08 243.82 546.40
C 243.05 546.65 242.04 545.87 241.56 544.64
M 419.39 414.55
C 420.73 413.21 421.82 410.76 421.82 409.09
C 421.82 407.42 420.73 404.97 419.39 403.64
C 418.06 402.30 415.61 401.21 413.94 401.21
C 412.27 401.21 409.82 402.30 408.48 403.64
C 407.15 404.97 406.06 407.42 406.06 409.09
C 406.06 410.76 407.15 413.21 408.48 414.55
C 409.82 415.88 412.27 416.97 413.94 416.97
C 415.61 416.97 418.06 415.88 419.39 414.55"/>
<path fill="#aa4422" stroke="none" d="
M 280.81 541.01
C 280.36 540.57 279.99 538.24 279.99 535.85
C 279.98 533.47 278.07 524.42 275.75 515.76
C 269.94 494.08 270.38 483.75 277.05 485.04
C 279.25 485.45 279.39 486.67 279.39 504.25
C 279.39 521.35 279.67 523.82 282.52 531.83
C 284.23 536.67 285.37 540.90 285.04 541.22
C 284.18 542.07 281.76 541.95 280.81 541.01"/>
<path fill="#aa4422" stroke="none" d="
M 389.07 538.79
C 388.41 537.12 387.32 534.34 386.65 532.61
C 385.98 530.87 384.34 524.46 383.01 518.36
C 381.20 510.12 379.45 505.64 376.19 500.90
L 371.81 494.51
L 373.88 489.09
C 376.33 482.67 378.00 481.31 380.05 484.10
C 382.24 487.10 386.67 505.72 386.67 511.96
C 386.67 515.77 388.12 520.38 391.66 527.76
C 395.77 536.32 396.40 538.50 395.15 540.00
C 392.91 542.70 390.40 542.21 389.07 538.79"/>
<path fill="#aa4422" stroke="none" d="
M 173.66 535.60
C 172.65 534.59 173.35 533.16 176.33 530.10
C 183.30 522.92 185.35 507.61 185.42 462.23
C 185.45 433.84 184.29 422.40 180.24 411.52
C 179.26 408.85 177.79 403.39 176.99 399.39
C 176.19 395.39 172.07 384.21 167.83 374.55
C 155.47 346.36 150.29 322.17 152.05 300.80
C 153.52 283.16 153.52 283.13 151.30 282.68
C 147.88 282.00 146.46 286.90 145.78 301.66
C 144.64 327.12 149.82 352.05 161.65 377.96
C 169.88 395.98 171.56 401.04 169.89 402.72
C 169.01 403.60 167.24 402.42 164.01 398.80
C 161.47 395.95 155.26 390.72 150.22 387.16
C 136.62 377.60 112.17 348.29 103.19 330.79
C 87.93 301.07 78.53 256.97 82.39 233.09
C 84.45 220.27 91.82 188.91 93.07 187.66
C 93.61 187.12 97.31 185.82 101.27 184.79
C 109.95 182.55 123.55 175.94 125.28 173.13
C 126.24 171.58 125.77 170.01 123.26 166.40
C 121.47 163.81 120.00 160.87 120.00 159.87
C 120.00 158.87 121.77 155.65 123.94 152.69
C 128.99 145.83 129.37 138.75 124.92 134.02
L 121.98 130.88
L 126.13 126.55
C 131.87 120.59 134.99 119.20 144.92 118.22
C 165.90 116.15 178.25 125.43 213.47 169.70
C 218.51 176.02 225.76 184.76 229.60 189.09
C 233.43 193.42 237.41 198.68 238.44 200.76
C 240.22 204.38 240.16 204.85 236.90 210.82
C 234.78 214.73 231.18 218.80 227.38 221.58
C 222.18 225.39 220.36 226.05 215.18 225.98
C 206.86 225.87 200.56 223.53 195.01 218.51
C 189.95 213.95 185.87 213.79 187.02 218.19
C 187.60 220.40 187.04 220.61 180.42 220.61
C 168.13 220.61 162.99 218.63 154.44 210.63
C 146.53 203.24 142.74 202.05 142.07 206.75
C 141.62 209.87 153.16 221.12 159.54 223.78
C 161.98 224.79 167.70 225.94 172.25 226.32
L 180.56 227.02
L 183.09 232.24
C 188.50 243.41 200.50 250.08 219.89 252.69
C 248.42 256.55 284.21 258.56 311.15 257.82
C 350.01 256.75 372.24 253.10 423.64 239.35
C 464.48 228.41 476.55 226.28 498.18 226.17
C 514.35 226.10 518.33 226.47 526.67 228.86
C 559.96 238.44 575.04 259.48 575.01 296.36
C 574.99 304.36 574.84 319.37 574.63 329.70
C 574.24 350.52 573.77 347.90 586.57 396.97
C 593.59 423.88 595.60 439.54 592.39 442.21
C 590.82 443.50 590.21 443.30 588.56 440.97
C 583.31 433.50 574.70 397.42 569.77 362.13
C 566.62 339.61 566.63 330.24 569.82 313.60
C 573.26 295.60 572.74 283.10 568.17 273.79
C 564.36 266.06 555.82 255.76 553.19 255.76
C 549.64 255.76 550.06 259.44 554.13 263.95
C 556.38 266.45 559.42 270.42 560.87 272.79
C 563.45 276.97 563.48 277.39 561.84 287.94
C 560.92 293.90 558.46 303.70 556.39 309.70
C 550.23 327.47 547.89 338.92 547.89 351.35
C 547.88 365.15 549.96 373.68 557.25 389.56
L 562.78 401.62
L 560.76 410.21
C 559.66 414.92 558.76 423.39 558.78 429.02
C 558.78 434.65 558.25 446.65 557.61 455.68
C 556.97 464.73 555.85 480.58 555.14 490.91
C 553.95 508.16 552.45 521.27 550.87 528.18
C 550.36 530.42 549.44 530.91 545.61 530.91
C 540.10 530.91 533.75 528.88 532.98 526.88
C 532.68 526.10 533.78 520.55 535.43 514.55
C 538.16 504.67 538.46 501.21 538.62 478.18
C 538.87 439.98 535.83 429.66 517.25 405.93
C 494.96 377.44 477.58 350.40 468.24 329.70
C 463.93 320.11 462.61 318.18 460.33 318.18
C 458.67 318.18 457.44 319.03 457.19 320.38
C 456.46 324.13 473.18 356.10 485.50 374.55
C 491.98 384.22 497.49 392.70 497.77 393.42
C 498.51 395.31 487.25 397.58 477.10 397.58
C 460.19 397.58 455.56 395.09 441.61 378.56
C 434.36 369.96 423.81 364.61 412.79 363.93
C 404.55 363.43 402.93 363.85 367.88 375.70
L 331.52 387.99
L 293.94 393.38
C 266.16 397.36 251.94 400.01 239.41 403.54
C 230.08 406.17 222.39 408.22 222.30 408.10
C 222.23 407.98 223.42 390.42 224.97 369.09
C 226.51 347.76 227.81 329.33 227.83 328.15
C 227.89 325.65 224.62 323.99 222.93 325.67
C 222.30 326.30 220.46 345.45 218.84 368.25
C 215.93 409.12 215.84 409.79 212.21 417.41
C 204.17 434.24 200.93 458.57 201.39 498.79
C 201.60 516.63 201.25 525.03 200.24 526.87
C 196.87 533.03 177.47 539.41 173.66 535.60
M 227.65 213.05
C 227.95 210.42 227.22 209.26 224.01 207.27
C 218.53 203.89 214.05 204.47 213.56 208.64
C 213.08 212.92 218.41 217.24 223.58 216.73
C 226.59 216.44 227.35 215.76 227.65 213.05
M 173.43 166.16
C 180.96 158.63 175.71 146.67 164.88 146.67
C 157.77 146.67 153.94 150.70 153.94 158.18
C 153.94 165.66 157.77 169.70 164.88 169.70
C 168.79 169.70 170.65 168.92 173.43 166.16"/>
<path fill="#aa4422" stroke="none" d="
M 79.50 534.50
C 73.54 532.72 73.71 531.02 80.81 521.95
C 91.94 507.73 102.90 488.08 113.03 464.21
C 117.96 452.57 132.40 412.79 137.77 396.05
L 140.00 389.08
L 146.08 393.16
C 149.42 395.42 154.24 399.56 156.80 402.39
C 160.91 406.95 161.35 408.01 160.63 411.79
C 159.39 418.40 154.99 427.48 146.67 440.67
C 137.22 455.60 122.87 483.07 116.91 497.58
C 110.52 513.14 104.93 523.84 101.64 526.81
C 98.40 529.73 86.58 535.81 84.45 535.65
C 83.67 535.60 81.44 535.08 79.50 534.50"/>
<path fill="#aa4422" stroke="none" d="
M 369.67 522.95
C 369.02 521.24 368.48 517.45 368.48 514.53
C 368.48 504.91 373.20 506.32 375.98 516.78
C 377.41 522.18 377.35 522.79 375.20 524.35
C 371.94 526.74 371.02 526.51 369.67 522.95"/>
<path fill="#aa4422" stroke="none" d="
M 388.81 487.58
L 386.85 479.39
L 394.02 464.48
C 397.96 456.28 402.59 447.72 404.33 445.45
C 409.90 438.15 425.64 432.27 427.39 436.84
C 428.17 438.88 421.30 452.82 412.98 466.06
C 406.25 476.75 392.51 495.70 391.44 495.73
C 391.07 495.75 389.89 492.07 388.81 487.58"/>
<path fill="#aa4422" stroke="none" d="
M 427.50 397.62
C 417.89 389.92 408.85 385.45 402.81 385.45
C 400.30 385.45 400.61 371.41 403.13 370.44
C 411.49 367.22 426.18 373.01 435.84 383.32
C 445.75 393.88 445.39 392.93 441.87 399.90
C 440.15 403.28 438.58 406.06 438.39 406.06
C 438.18 406.06 433.28 402.27 427.50 397.62"/>
<path fill="#eb2e00" stroke="none" d="
M 409.84 411.18
C 409.12 409.82 409.12 408.27 409.85 406.93
C 411.70 403.65 412.85 404.47 412.85 409.09
C 412.85 413.72 411.65 414.56 409.84 411.18"/>
<path fill="#eb2e00" stroke="none" d="
M 159.58 163.84
C 155.67 159.53 157.68 152.63 163.33 150.95
C 166.78 149.93 166.88 151.64 163.52 153.73
C 160.95 155.33 160.78 158.75 162.99 163.94
C 164.18 166.72 162.13 166.67 159.58 163.84"/>
<path fill="#d4a173" stroke="none" d="
M 76.82 180.56
C 66.79 177.50 70.51 171.48 85.02 167.25
C 89.93 165.82 98.34 163.33 103.71 161.72
C 109.08 160.11 113.85 158.79 114.32 158.79
C 114.78 158.79 115.15 160.07 115.15 161.66
C 115.15 163.24 116.25 165.92 117.59 167.62
L 120.02 170.72
L 113.65 173.73
C 101.62 179.42 83.87 182.72 76.82 180.56"/>
<path fill="#66605e" stroke="none" d="
M 159.96 552.08
C 158.58 550.41 158.69 549.47 160.62 545.88
C 163.44 540.63 166.24 538.98 168.95 540.96
C 170.80 542.30 170.74 542.86 168.21 547.88
C 165.22 553.79 162.53 555.16 159.96 552.08"/>
<path fill="#66605e" stroke="none" d="
M 175.24 552.86
C 174.86 552.25 175.38 549.81 176.39 547.41
C 177.75 544.16 178.95 543.03 181.03 543.03
C 184.92 543.03 185.44 543.90 184.01 548.01
C 182.38 552.70 176.98 555.68 175.24 552.86"/>
<path fill="#66605e" stroke="none" d="
M 352.08 552.68
C 350.96 550.84 354.04 547.49 355.50 548.96
C 356.86 550.32 355.81 553.94 354.05 553.94
C 353.41 553.94 352.52 553.37 352.08 552.68"/>
<path fill="#66605e" stroke="none" d="
M 523.82 552.35
C 521.76 549.85 528.79 535.76 532.11 535.76
C 535.49 535.76 536.18 538.15 534.56 544.18
C 532.42 552.12 527.04 556.22 523.82 552.35"/>
<path fill="#66605e" stroke="none" d="
M 540.18 553.02
C 539.87 552.52 540.27 548.84 541.07 544.84
C 542.44 537.94 542.70 537.55 546.33 537.20
C 550.52 536.79 551.84 538.33 553.14 545.18
C 554.12 550.36 550.78 553.94 544.92 553.94
C 542.63 553.94 540.50 553.53 540.18 553.02"/>
<path fill="#66605e" stroke="none" d="
M 61.19 551.48
C 60.35 550.12 65.44 540.70 68.30 538.33
C 71.19 535.94 71.75 538.74 69.53 544.46
C 68.41 547.35 66.97 550.38 66.33 551.21
C 64.91 553.05 62.24 553.19 61.19 551.48"/>
<path fill="#66605e" stroke="none" d="
M 73.94 552.22
C 73.94 551.10 78.74 540.61 79.25 540.61
C 81.27 540.61 83.64 542.36 83.64 543.85
C 83.64 545.92 77.19 552.73 75.25 552.73
C 74.52 552.73 73.94 552.50 73.94 552.22"/>
<path fill="#66605e" stroke="none" d="
M 339.88 551.02
C 338.91 548.52 342.59 542.12 345.53 541.19
C 348.92 540.11 349.88 541.32 347.70 543.93
C 346.73 545.10 345.28 547.56 344.50 549.39
C 342.96 553.02 340.92 553.73 339.88 551.02"/>
</g>
</svg>
