<?xml version="1.0" encoding="UTF-8" standalone="no"?>
<!DOCTYPE svg PUBLIC "-//W3C//DTD SVG 1.1//EN"
"http://www.w3.org/Graphics/SVG/1.1/DTD/svg11.dtd">
<svg width="563px" height="600px"
xmlns="http://www.w3.org/2000/svg" version="1.1">
<g transform="translate(0000, 0000) scale(1.0000, 1.0000)">
<path fill="#000000" stroke="none" d="
M 204.17 598.20
C 199.99 596.38 197.11 591.55 197.11 586.38
C 197.11 580.44 201.04 573.64 209.35 565.24
C 221.84 552.61 225.42 542.11 225.43 518.24
C 225.44 509.74 224.59 497.58 223.54 491.20
C 218.85 462.71 207.54 409.47 204.88 403.34
L 201.96 396.59
L 197.54 403.93
C 195.10 407.96 188.88 416.21 183.70 422.27
C 172.43 435.45 167.68 442.75 157.86 461.99
C 153.78 470.00 146.66 481.30 142.05 487.09
C 131.73 500.06 129.01 505.80 120.36 532.91
C 108.13 571.20 101.92 588.71 99.67 591.18
C 96.37 594.82 84.48 597.86 76.67 597.05
C 65.74 595.93 60.95 593.28 59.19 587.39
C 57.10 580.40 59.25 574.43 66.88 566.01
C 84.80 546.22 96.87 521.97 115.32 468.67
C 133.78 415.35 144.60 382.39 146.29 374.36
L 148.20 365.30
L 141.87 352.29
C 134.00 336.09 132.34 329.86 127.62 298.61
C 125.53 284.86 120.96 261.44 117.43 246.57
C 113.91 231.70 110.64 217.30 110.19 214.58
L 109.35 209.64
L 90.43 210.10
L 71.50 210.55
L 58.62 216.17
C 51.53 219.24 42.15 222.40 37.79 223.15
C 30.13 224.47 29.52 224.37 21.68 220.48
C 17.20 218.25 11.39 215.59 8.79 214.55
C -0.48 210.85 -2.34 199.73 3.67 184.09
C 7.29 174.67 20.52 159.66 49.69 131.85
C 93.13 90.45 101.31 84.13 115.73 80.91
C 121.70 79.57 124.43 79.66 133.19 81.48
C 143.55 83.61 143.57 83.61 146.62 80.76
C 148.31 79.18 153.74 71.07 158.66 62.73
C 163.59 54.40 169.39 45.55 171.55 43.09
C 182.20 30.99 224.72 1.48 233.17 0.35
C 246.10 -1.38 247.23 14.48 235.74 36.23
C 233.63 40.22 231.90 43.82 231.90 44.23
C 231.90 44.63 234.14 44.16 236.87 43.20
C 239.60 42.23 246.65 40.47 252.55 39.26
C 261.79 37.38 264.33 37.30 271.06 38.74
C 289.54 42.66 289.58 55.00 271.17 69.89
C 259.86 79.02 243.82 86.51 218.05 94.66
C 205.48 98.64 190.71 103.97 185.26 106.49
L 175.34 111.08
L 177.88 116.05
C 179.27 118.79 182.41 128.55 184.86 137.74
C 191.70 163.39 199.58 176.63 218.50 194.29
C 242.99 217.16 270.50 229.30 306.61 233.21
C 317.47 234.40 333.37 234.40 375.83 233.24
C 469.02 230.69 480.97 231.19 502.23 238.58
C 529.16 247.96 546.14 266.33 554.48 295.15
C 562.09 321.35 563.57 350.88 559.04 385.70
C 557.58 396.99 556.04 416.37 555.66 428.76
C 554.97 450.32 555.12 452.16 558.97 471.50
C 561.18 482.63 563.00 494.38 563.00 497.64
C 563.00 509.05 556.51 515.24 549.40 510.59
C 544.82 507.58 541.47 501.70 538.41 491.20
C 536.95 486.24 534.84 479.59 533.69 476.39
L 531.63 470.60
L 529.86 474.93
C 526.35 483.52 524.99 506.03 526.86 524.46
C 527.80 533.79 528.85 546.85 529.17 553.51
C 529.76 565.43 529.71 565.70 524.90 575.15
C 515.60 593.46 500.54 601.51 486.52 595.65
C 476.80 591.59 477.67 578.00 488.61 563.25
C 493.44 556.75 502.63 527.60 503.40 516.35
C 504.20 504.62 501.44 489.41 495.93 475.13
C 491.59 463.89 479.83 445.34 470.61 435.23
L 464.20 428.20
L 462.07 437.65
C 460.90 442.84 459.93 451.55 459.93 456.99
C 459.93 465.86 459.42 467.92 454.93 477.10
C 452.18 482.73 444.04 496.33 436.83 507.30
C 423.18 528.09 405.82 560.51 405.82 565.20
C 405.82 571.57 400.97 577.76 392.77 581.86
C 383.56 586.45 377.84 586.82 370.10 583.31
C 356.40 577.09 356.22 563.63 369.67 552.06
C 381.45 541.94 401.97 502.16 408.43 476.95
C 410.55 468.64 410.89 462.21 411.02 428.42
L 411.14 389.48
L 401.73 389.81
C 396.53 389.97 380.12 391.67 365.24 393.57
C 342.90 396.41 333.14 397.00 309.20 396.98
C 293.25 396.97 278.83 396.72 277.15 396.44
C 274.48 395.99 273.50 397.04 269.80 404.29
C 264.51 414.71 259.68 429.73 256.79 444.85
C 254.99 454.33 254.55 464.86 254.42 502.79
L 254.25 549.14
L 250.79 560.47
C 246.43 574.74 240.89 585.77 235.25 591.42
C 227.71 598.94 213.17 602.12 204.17 598.20
M 226.50 588.44
C 232.61 584.02 236.69 578.47 234.99 576.93
C 233.42 575.51 221.68 571.67 218.89 571.67
C 215.89 571.67 209.08 577.51 206.69 582.14
C 204.68 586.04 205.68 590.07 209.02 591.41
C 213.94 593.41 221.40 592.13 226.50 588.44
M 502.04 588.30
C 508.66 585.09 517.52 575.46 515.04 574.17
C 512.23 572.73 494.63 570.30 493.21 571.16
C 492.48 571.62 491.14 573.80 490.24 576.01
C 486.83 584.33 486.76 585.61 489.50 588.35
C 492.82 591.67 495.08 591.66 502.04 588.30
M 89.26 587.27
C 92.95 585.82 98.40 575.81 97.64 571.85
C 97.40 570.62 93.98 569.07 88.35 567.66
L 79.45 565.42
L 74.00 569.87
C 67.68 575.06 64.83 580.64 66.76 584.09
C 69.57 589.09 80.60 590.67 89.26 587.27
M 387.89 575.48
C 392.77 572.99 398.52 565.93 397.71 563.43
C 397.49 562.79 392.91 561.15 387.53 559.78
C 378.19 557.41 377.57 557.39 374.32 559.52
C 366.09 564.91 365.95 572.72 374.04 576.23
C 379.62 578.67 381.90 578.54 387.89 575.48
M 241.51 564.91
C 247.37 550.91 247.87 545.79 247.95 499.57
C 248.02 462.48 248.42 453.03 250.37 442.27
C 253.20 426.79 259.75 406.47 265.83 394.40
C 272.86 380.47 274.79 370.61 274.25 351.66
C 273.80 336.12 273.89 335.41 276.35 335.41
C 280.66 335.41 281.56 350.02 279.28 383.03
C 278.94 387.97 279.12 388.22 284.08 389.91
C 291.68 392.48 329.50 391.15 363.95 387.06
C 411.74 381.41 422.97 379.89 429.66 378.21
C 437.08 376.34 437.30 375.49 433.73 362.59
C 431.04 352.85 428.72 335.36 429.25 328.87
C 429.57 324.85 430.17 323.82 432.20 323.82
C 434.46 323.82 434.89 325.30 436.32 337.98
C 438.12 354.00 444.42 376.91 448.93 383.79
C 452.67 389.51 460.54 405.10 461.88 409.44
C 463.33 414.21 469.76 423.31 477.43 431.45
C 490.29 445.11 501.69 465.91 507.20 485.78
C 508.80 491.55 509.43 498.79 509.46 511.80
C 509.50 529.76 509.48 529.88 504.02 545.28
C 501.02 553.78 498.42 561.30 498.25 561.98
C 498.08 562.66 502.86 564.22 508.89 565.43
C 519.15 567.50 519.94 567.50 521.55 565.47
C 523.46 563.09 523.19 553.92 520.46 527.90
C 518.49 509.02 519.58 486.53 523.11 473.82
C 529.09 452.25 529.04 452.99 525.28 443.33
C 520.27 430.42 519.26 424.60 519.22 408.00
C 519.20 391.38 521.03 379.08 527.62 351.68
C 530.89 338.11 532.08 330.28 532.08 322.31
C 532.08 316.34 532.72 308.88 533.51 305.77
C 534.76 300.80 534.58 299.21 532.04 293.09
C 528.94 285.61 529.27 281.97 533.06 281.97
C 536.36 281.97 548.44 310.34 550.34 322.53
C 552.24 334.78 550.90 360.44 547.06 385.62
C 545.32 396.95 543.55 410.28 543.08 415.24
C 542.62 420.19 541.27 430.62 540.07 438.41
C 537.54 454.74 537.62 465.42 540.31 473.00
C 541.36 475.93 543.39 482.43 544.85 487.45
C 546.30 492.48 548.76 498.19 550.31 500.18
C 553.02 503.60 553.21 503.65 554.91 501.35
C 557.04 498.48 556.46 492.71 551.93 471.46
C 547.69 451.52 547.72 427.40 552.05 389.61
C 555.79 357.03 556.07 341.09 553.26 322.18
C 549.15 294.58 541.65 277.38 527.58 263.28
C 513.19 248.87 492.70 240.40 467.79 238.58
C 461.84 238.15 425.90 238.55 387.92 239.46
C 312.55 241.30 299.01 240.75 276.28 234.99
C 255.37 229.70 240.17 221.99 221.19 207.08
C 199.50 190.03 185.40 168.77 179.06 143.56
C 175.91 130.96 170.34 115.88 168.86 115.88
C 168.35 115.88 166.57 117.32 164.91 119.10
C 163.24 120.86 160.96 122.29 159.86 122.27
C 157.34 122.20 146.87 112.89 146.87 110.73
C 146.87 109.85 149.29 107.01 152.24 104.38
C 155.55 101.45 157.25 99.03 156.66 98.07
C 153.36 92.73 130.52 86.73 118.96 88.17
C 106.35 89.74 94.07 99.58 45.93 146.69
C 20.02 172.04 12.29 181.38 8.99 191.28
C 6.62 198.41 6.48 199.94 7.96 203.02
C 8.90 204.97 11.25 207.44 13.17 208.52
C 16.53 210.41 17.13 210.26 27.42 204.80
C 34.37 201.10 38.95 199.40 40.43 199.97
C 44.47 201.53 42.05 205.20 33.83 209.97
C 25.87 214.60 25.83 214.64 29.12 216.13
C 33.30 218.03 38.82 216.63 55.40 209.45
L 67.64 204.13
L 92.76 203.39
C 108.35 202.93 119.33 202.04 121.68 201.05
C 123.78 200.16 128.56 196.82 132.31 193.61
C 139.38 187.57 143.39 186.76 144.01 191.21
C 144.50 194.81 132.61 204.71 124.40 207.52
L 117.88 209.76
L 118.09 215.28
C 118.19 218.33 120.96 231.89 124.22 245.43
C 127.48 258.98 131.87 281.28 133.97 295.00
C 138.43 324.04 140.40 332.05 146.20 344.61
C 153.48 360.39 162.32 368.09 181.44 375.28
C 193.95 380.00 194.90 378.99 189.62 366.70
C 182.02 349.04 181.41 340.98 186.09 320.36
C 189.56 305.07 191.12 301.29 193.98 301.29
C 197.31 301.29 197.41 304.64 194.43 316.33
C 190.20 333.00 190.36 349.56 194.87 359.99
C 196.74 364.30 198.96 370.67 199.81 374.15
C 200.66 377.63 204.11 385.75 207.49 392.20
C 214.03 404.74 214.13 405.13 223.40 452.58
C 231.22 492.57 232.27 501.73 231.62 523.84
C 231.10 541.07 230.70 543.63 227.03 553.39
C 224.20 560.94 223.47 564.24 224.56 564.64
C 239.56 570.12 239.33 570.10 241.51 564.91
M 104.99 555.26
C 106.85 551.19 110.91 539.74 114.02 529.83
C 123.91 498.15 125.02 495.77 136.45 481.57
C 140.76 476.23 148.35 463.96 153.53 453.99
C 162.96 435.86 166.84 430.12 182.35 411.37
C 192.00 399.70 196.16 392.50 195.58 388.43
C 195.26 386.20 194.02 385.48 189.38 384.80
C 181.85 383.70 166.89 378.03 160.58 373.87
C 157.83 372.06 155.18 371.07 154.66 371.67
C 154.14 372.26 152.98 376.20 152.07 380.42
C 149.92 390.48 117.78 484.79 108.62 507.94
C 100.50 528.42 91.50 547.13 86.73 553.42
C 84.94 555.76 83.78 557.97 84.14 558.35
C 85.00 559.21 96.61 562.39 99.43 562.55
C 100.85 562.62 102.74 560.15 104.99 555.26
M 409.19 539.16
C 413.17 531.19 422.30 515.69 429.46 504.72
C 436.63 493.75 444.96 479.96 447.99 474.09
C 453.00 464.37 453.49 462.57 453.49 453.95
C 453.49 448.74 454.42 439.97 455.57 434.47
C 456.70 428.96 457.33 422.20 456.97 419.46
C 456.18 413.65 448.92 397.80 443.25 389.58
C 438.96 383.36 437.93 383.18 424.88 386.43
C 417.93 388.16 417.43 391.33 417.42 433.26
C 417.41 464.46 417.07 470.72 414.91 479.73
C 410.71 497.21 398.49 524.97 387.35 542.30
C 384.12 547.35 383.11 549.93 384.14 550.56
C 386.34 551.92 392.99 553.36 397.76 553.52
C 401.83 553.65 402.13 553.26 409.19 539.16
M 536.58 413.59
C 537.61 403.87 539.72 388.11 541.27 378.54
C 545.81 350.54 544.87 310.39 539.75 313.56
C 539.08 313.97 538.52 319.15 538.52 325.06
C 538.52 333.36 537.16 341.60 532.48 361.35
C 526.79 385.45 526.44 387.98 526.36 405.58
C 526.30 420.45 526.77 425.82 528.72 431.97
L 531.14 439.70
L 532.92 435.48
C 533.90 433.16 535.53 423.31 536.58 413.59
M 163.12 110.60
C 171.71 103.75 186.58 97.15 210.64 89.50
C 244.98 78.58 261.12 70.35 272.21 58.08
C 277.58 52.12 277.71 51.70 275.16 48.21
C 272.16 44.11 255.18 45.00 239.47 50.09
C 232.65 52.29 225.69 55.15 224.01 56.42
C 222.33 57.70 217.82 60.64 213.98 62.96
C 205.91 67.85 186.82 83.37 171.99 97.11
C 166.32 102.36 160.29 107.77 158.58 109.13
C 156.80 110.54 155.87 112.24 156.40 113.10
C 157.63 115.08 157.40 115.17 163.12 110.60
M 174.92 82.73
C 192.52 69.80 206.80 58.27 216.44 49.24
C 223.37 42.75 226.08 38.99 230.34 29.92
C 236.10 17.70 237.79 8.74 234.44 8.06
C 231.35 7.42 194.92 32.14 184.18 42.17
C 176.84 49.04 172.37 54.79 165.76 65.86
C 160.96 73.89 156.15 81.75 155.05 83.32
C 153.17 86.01 153.29 86.29 157.38 88.78
C 159.75 90.23 161.99 91.40 162.38 91.42
C 162.77 91.42 168.41 87.50 174.92 82.73"/>
<path fill="#000000" stroke="none" d="
M 16.32 201.28
C 14.56 199.53 15.55 194.33 18.11 191.77
C 21.39 188.50 27.47 188.81 28.12 192.30
C 29.00 196.91 19.32 204.28 16.32 201.28"/>
<path fill="#000000" stroke="none" d="
M 84.93 146.88
C 82.14 144.09 81.16 141.90 81.16 138.41
C 81.16 131.87 86.86 126.18 93.40 126.18
C 99.95 126.18 105.64 131.87 105.64 138.41
C 105.64 141.90 104.66 144.09 101.88 146.88
C 96.68 152.07 90.13 152.07 84.93 146.88
M 101.16 141.54
C 103.31 134.78 97.58 128.88 90.56 130.64
C 86.65 131.61 86.77 133.91 90.74 133.91
C 92.45 133.91 94.77 134.82 95.89 135.93
C 97.00 137.05 97.91 139.36 97.91 141.08
C 97.91 144.90 100.00 145.20 101.16 141.54"/>
<path fill="#b1a7a7" stroke="none" d="
M 156.40 113.10
C 155.87 112.24 156.80 110.54 158.58 109.13
C 160.29 107.77 166.32 102.36 171.99 97.11
C 186.82 83.37 205.91 67.85 213.98 62.96
C 217.82 60.64 222.33 57.70 224.01 56.42
C 225.69 55.15 232.65 52.29 239.47 50.09
C 255.18 45.00 272.16 44.11 275.16 48.21
C 277.71 51.70 277.58 52.12 272.21 58.08
C 261.12 70.35 244.98 78.58 210.64 89.50
C 186.58 97.15 171.71 103.75 163.12 110.60
C 157.40 115.17 157.63 115.08 156.40 113.10"/>
<path fill="#b1a7a7" stroke="none" d="
M 157.38 88.78
C 153.29 86.29 153.17 86.01 155.05 83.32
C 156.15 81.75 160.96 73.89 165.76 65.86
C 172.37 54.77 176.82 49.06 184.18 42.18
C 194.99 32.10 228.56 9.23 233.34 8.70
C 236.16 8.39 236.38 8.77 236.03 13.52
C 235.82 16.35 233.26 23.73 230.34 29.92
C 224.56 42.21 218.18 49.11 197.29 65.67
C 184.48 75.84 163.35 91.42 162.38 91.42
C 161.99 91.40 159.75 90.23 157.38 88.78"/>
<path fill="#615e5e" stroke="none" d="
M 231.26 567.06
C 228.42 566.03 225.41 564.95 224.56 564.64
C 223.47 564.24 224.20 560.94 227.03 553.39
C 230.70 543.63 231.10 541.07 231.62 523.84
C 232.27 501.73 231.22 492.57 223.40 452.58
C 214.13 405.13 214.03 404.74 207.49 392.20
C 204.11 385.75 200.66 377.63 199.81 374.15
C 198.96 370.67 196.74 364.30 194.87 359.99
C 190.36 349.56 190.20 333.00 194.43 316.33
C 197.41 304.64 197.31 301.29 193.98 301.29
C 191.12 301.29 189.56 305.07 186.09 320.36
C 181.41 340.98 182.02 349.04 189.62 366.70
C 194.90 378.99 193.95 380.00 181.44 375.28
C 162.32 368.09 153.48 360.39 146.20 344.61
C 140.40 332.05 138.43 324.04 133.97 295.00
C 131.87 281.28 127.48 258.98 124.22 245.43
C 120.96 231.89 118.19 218.33 118.09 215.28
L 117.88 209.76
L 124.40 207.52
C 132.61 204.71 144.50 194.81 144.01 191.21
C 143.39 186.76 139.38 187.57 132.31 193.61
C 128.56 196.82 123.78 200.16 121.68 201.05
C 119.33 202.04 108.35 202.93 92.76 203.39
L 67.64 204.13
L 55.40 209.45
C 38.82 216.63 33.30 218.03 29.12 216.13
C 25.83 214.64 25.87 214.60 33.83 209.97
C 42.05 205.20 44.47 201.53 40.43 199.97
C 38.95 199.40 34.37 201.10 27.42 204.80
C 17.13 210.26 16.53 210.41 13.17 208.52
C 11.25 207.44 8.90 204.97 7.96 203.02
C 6.48 199.94 6.62 198.41 8.99 191.28
C 12.29 181.38 20.02 172.04 45.93 146.69
C 94.85 98.83 106.25 89.76 119.39 88.26
C 131.38 86.91 153.34 92.68 156.66 98.07
C 157.25 99.03 155.55 101.45 152.24 104.38
C 149.29 107.01 146.87 109.85 146.87 110.73
C 146.87 112.89 157.34 122.20 159.86 122.27
C 160.96 122.29 163.24 120.86 164.91 119.10
C 166.57 117.32 168.35 115.88 168.86 115.88
C 170.34 115.88 175.91 130.96 179.06 143.56
C 185.40 168.77 199.50 190.03 221.19 207.08
C 240.17 221.99 255.37 229.70 276.28 234.99
C 299.01 240.75 312.55 241.30 387.92 239.46
C 425.90 238.55 461.84 238.15 467.79 238.58
C 492.70 240.40 513.19 248.87 527.58 263.28
C 541.65 277.38 549.15 294.58 553.26 322.18
C 556.07 341.09 555.79 357.03 552.05 389.61
C 547.72 427.40 547.69 451.52 551.93 471.46
C 556.46 492.71 557.04 498.48 554.91 501.35
C 553.21 503.65 553.02 503.60 550.31 500.18
C 548.76 498.19 546.30 492.48 544.85 487.45
C 543.39 482.43 541.36 475.93 540.31 473.00
C 537.62 465.42 537.54 454.74 540.07 438.41
C 541.27 430.62 542.62 420.19 543.08 415.24
C 543.55 410.28 545.32 396.95 547.06 385.62
C 550.90 360.44 552.24 334.78 550.34 322.53
C 548.44 310.34 536.36 281.97 533.06 281.97
C 529.27 281.97 528.94 285.61 532.04 293.09
C 534.58 299.21 534.76 300.80 533.51 305.77
C 532.72 308.88 532.08 316.34 532.08 322.31
C 532.08 330.28 530.89 338.11 527.62 351.68
C 521.03 379.08 519.20 391.38 519.22 408.00
C 519.26 424.60 520.27 430.42 525.28 443.33
C 529.04 452.99 529.09 452.25 523.11 473.82
C 519.58 486.53 518.49 509.02 520.46 527.90
C 523.19 553.92 523.46 563.09 521.55 565.47
C 519.94 567.50 519.15 567.50 508.89 565.43
C 502.86 564.22 498.08 562.66 498.25 561.98
C 498.42 561.30 501.02 553.78 504.02 545.28
C 509.48 529.88 509.50 529.76 509.46 511.80
C 509.43 498.79 508.80 491.55 507.20 485.78
C 501.69 465.91 490.29 445.11 477.43 431.45
C 469.76 423.31 463.33 414.21 461.88 409.44
C 460.54 405.10 452.67 389.51 448.93 383.79
C 444.42 376.91 438.12 354.00 436.32 337.98
C 434.89 325.30 434.46 323.82 432.20 323.82
C 430.17 323.82 429.57 324.85 429.25 328.87
C 428.72 335.36 431.04 352.85 433.73 362.59
C 434.89 366.76 435.89 371.61 435.96 373.38
C 436.18 378.33 433.69 378.81 363.95 387.06
C 329.50 391.15 291.68 392.48 284.08 389.91
C 279.12 388.22 278.94 387.97 279.28 383.03
C 280.57 364.26 280.82 349.80 279.93 343.13
C 279.08 336.62 278.51 335.41 276.35 335.41
C 273.89 335.41 273.80 336.12 274.25 351.66
C 274.79 370.61 272.86 380.47 265.83 394.40
C 259.75 406.47 253.20 426.79 250.37 442.27
C 248.42 453.03 248.02 462.48 247.95 499.57
C 247.87 545.79 247.37 550.91 241.51 564.91
C 239.56 569.56 238.69 569.74 231.26 567.06
M 25.01 198.41
C 29.36 193.87 29.03 190.07 24.22 189.52
C 20.02 189.03 15.46 193.15 15.46 197.42
C 15.46 203.39 19.79 203.85 25.01 198.41
M 101.88 146.88
C 104.66 144.09 105.64 141.90 105.64 138.41
C 105.64 131.87 99.95 126.18 93.40 126.18
C 86.86 126.18 81.16 131.87 81.16 138.41
C 81.16 141.90 82.14 144.09 84.93 146.88
C 90.13 152.07 96.68 152.07 101.88 146.88"/>
<path fill="#615e5e" stroke="none" d="
M 91.05 560.72
C 87.62 559.78 84.51 558.71 84.14 558.35
C 83.78 557.97 84.94 555.76 86.73 553.42
C 91.50 547.13 100.50 528.42 108.62 507.94
C 117.78 484.79 149.92 390.48 152.07 380.42
C 152.98 376.20 154.14 372.26 154.66 371.67
C 155.18 371.07 157.83 372.06 160.58 373.87
C 166.89 378.03 181.85 383.70 189.38 384.80
C 194.02 385.48 195.26 386.20 195.58 388.43
C 196.16 392.50 192.00 399.70 182.35 411.37
C 166.84 430.12 162.96 435.86 153.53 453.99
C 148.35 463.96 140.76 476.23 136.45 481.57
C 125.02 495.77 123.91 498.15 114.02 529.83
C 107.01 552.26 102.36 562.70 99.43 562.55
C 98.24 562.48 94.46 561.66 91.05 560.72"/>
<path fill="#615e5e" stroke="none" d="
M 389.60 552.44
C 382.45 550.73 382.32 550.15 387.35 542.30
C 398.49 524.97 410.71 497.21 414.91 479.73
C 417.07 470.72 417.41 464.46 417.42 433.26
C 417.43 391.33 417.93 388.16 424.88 386.43
C 437.93 383.18 438.96 383.36 443.25 389.58
C 448.92 397.80 456.18 413.65 456.97 419.46
C 457.33 422.20 456.70 428.96 455.57 434.47
C 454.42 439.97 453.49 448.74 453.49 453.95
C 453.49 462.57 453.00 464.37 447.99 474.09
C 444.96 479.96 436.63 493.75 429.46 504.72
C 422.30 515.69 413.17 531.19 409.19 539.16
C 402.13 553.26 401.83 553.65 397.76 553.52
C 395.47 553.44 391.79 552.95 389.60 552.44"/>
<path fill="#eb2e00" stroke="none" d="
M 97.91 141.08
C 97.91 139.36 97.00 137.05 95.89 135.93
C 94.77 134.82 92.45 133.91 90.74 133.91
C 86.69 133.91 86.69 131.85 90.74 130.83
C 97.80 129.05 103.32 134.73 101.16 141.54
C 100.00 145.20 97.91 144.90 97.91 141.08"/>
<path fill="#524747" stroke="none" d="
M 209.02 591.41
C 205.68 590.07 204.68 586.04 206.69 582.14
C 209.08 577.51 215.89 571.67 218.89 571.67
C 221.68 571.67 233.42 575.51 234.99 576.93
C 236.69 578.47 232.61 584.02 226.50 588.44
C 221.40 592.13 213.94 593.41 209.02 591.41"/>
<path fill="#524747" stroke="none" d="
M 489.50 588.35
C 486.76 585.61 486.83 584.33 490.24 576.01
C 491.14 573.80 492.48 571.62 493.21 571.16
C 494.63 570.30 512.23 572.73 515.04 574.17
C 517.52 575.46 508.66 585.09 502.04 588.30
C 495.08 591.66 492.82 591.67 489.50 588.35"/>
<path fill="#524747" stroke="none" d="
M 72.35 588.01
C 63.63 584.73 64.26 577.85 74.00 569.87
L 79.45 565.42
L 88.35 567.66
C 93.98 569.07 97.40 570.62 97.64 571.85
C 98.40 575.81 92.95 585.82 89.26 587.27
C 83.60 589.48 77.03 589.78 72.35 588.01"/>
<path fill="#524747" stroke="none" d="
M 374.04 576.23
C 368.20 573.70 366.58 570.10 369.09 565.27
C 370.19 563.15 372.80 560.52 374.89 559.44
C 378.37 557.65 379.54 557.69 388.02 559.89
C 393.15 561.22 397.50 562.82 397.71 563.45
C 398.53 565.93 392.76 573.00 387.89 575.48
C 381.90 578.54 379.62 578.67 374.04 576.23"/>
</g>
</svg>
