<?xml version="1.0" encoding="UTF-8" standalone="no"?>
<!DOCTYPE svg PUBLIC "-//W3C//DTD SVG 1.1//EN"
"http://www.w3.org/Graphics/SVG/1.1/DTD/svg11.dtd">
<svg width="195px" height="600px"
xmlns="http://www.w3.org/2000/svg" version="1.1">
<g transform="translate(0000, 0000) scale(1.0000, 1.0000)">
<path fill="#000000" stroke="none" d="
M 78.65 596.19
C 73.09 592.26 68.45 585.10 66.99 578.25
L 66.09 574.03
L 35.65 574.03
C 6.93 574.03 5.06 573.88 2.60 571.43
C -0.85 567.99 -0.85 560.58 2.60 557.14
C 5.06 554.69 6.93 554.55 36.84 554.55
L 68.48 554.55
L 70.04 549.34
C 70.99 546.22 74.62 540.88 79.12 536.03
C 83.25 531.57 87.61 526.48 88.82 524.71
C 90.83 521.75 91.00 509.68 91.00 367.81
C 91.00 222.04 90.88 214.14 88.73 214.77
C 87.48 215.13 82.94 215.81 78.65 216.26
C 74.36 216.71 63.91 218.81 55.42 220.88
C 37.52 225.29 32.51 225.51 25.30 222.23
C 18.45 219.13 13.58 213.23 8.24 201.55
C 3.17 190.48 3.07 189.18 6.44 181.31
C 9.72 173.66 16.43 166.49 35.89 149.86
C 44.60 142.40 53.76 133.83 56.23 130.82
C 60.29 125.84 65.00 118.06 65.00 116.32
C 65.00 115.95 62.53 114.38 59.50 112.83
C 52.68 109.36 39.70 96.51 33.41 87.01
C 23.62 72.25 20.19 53.91 23.92 36.36
C 26.35 24.95 35.59 4.71 38.01 5.51
C 39.79 6.09 41.24 16.31 41.46 29.90
C 41.64 40.40 45.68 55.32 51.10 65.49
C 54.03 70.99 57.46 74.92 62.99 79.14
C 67.26 82.40 73.28 87.35 76.38 90.16
C 81.94 95.18 82.06 95.21 86.19 93.25
C 93.35 89.83 98.74 89.29 109.03 90.96
C 118.48 92.49 119.28 92.43 124.72 89.65
C 137.55 83.10 152.79 64.77 156.78 51.03
C 157.89 47.25 159.33 37.87 160.00 30.19
C 163.25 -7.09 163.57 -7.32 176.45 18.05
C 181.28 27.56 181.35 27.90 181.34 42.74
C 181.32 60.84 178.59 71.06 168.96 89.19
L 162.63 101.12
L 166.97 100.42
C 170.27 99.87 171.96 100.36 174.06 102.45
C 177.85 106.25 177.49 110.81 172.76 119.09
L 168.70 126.16
L 170.96 133.34
C 172.73 138.95 173.10 143.60 172.64 154.61
C 172.11 167.66 171.70 169.42 167.25 178.44
C 159.11 194.90 148.12 202.25 121.55 209.06
L 112.45 211.39
L 112.12 367.39
L 111.79 523.39
L 120.72 533.01
C 125.63 538.30 130.75 545.31 132.11 548.58
L 134.55 554.53
L 162.18 554.55
C 188.06 554.55 189.97 554.71 192.40 557.14
C 194.01 558.75 195.00 561.47 195.00 564.29
C 195.00 567.10 194.01 569.82 192.40 571.43
C 189.96 573.87 188.07 574.03 161.47 574.03
L 133.13 574.03
L 131.66 579.55
C 129.61 587.21 124.94 593.69 119.28 596.74
C 114.82 599.14 114.32 599.18 112.33 597.19
C 110.46 595.32 110.37 593.99 111.64 586.70
C 114.02 573.03 115.00 574.03 99.31 574.03
C 85.67 574.03 85.53 574.05 86.22 576.95
C 89.31 589.92 89.96 596.17 88.41 598.04
C 86.16 600.74 84.66 600.45 78.65 596.19
M 79.36 579.57
C 77.58 572.53 79.14 564.00 83.97 554.39
C 88.78 544.79 99.06 537.77 105.82 539.47
C 110.32 540.58 116.38 546.01 118.29 550.62
C 119.46 553.43 120.80 554.55 123.01 554.55
C 124.71 554.55 126.10 554.04 126.10 553.43
C 126.10 551.48 119.56 542.43 113.78 536.36
C 110.71 533.14 107.55 529.25 106.76 527.69
C 105.70 525.64 105.30 481.05 105.30 368.83
L 105.30 212.82
L 101.73 213.22
L 98.15 213.64
L 97.49 370.78
C 97.12 457.21 96.68 528.06 96.51 528.25
C 87.37 537.60 79.00 547.96 76.66 552.82
C 72.41 561.64 72.41 574.97 76.66 583.12
C 80.21 589.91 81.52 588.17 79.36 579.57
M 123.51 580.48
C 126.70 574.26 126.70 574.03 123.60 574.03
C 121.82 574.03 120.86 575.25 120.25 578.25
C 119.80 580.57 119.09 583.56 118.72 584.91
C 117.57 588.91 120.67 586.06 123.51 580.48
M 66.31 567.21
C 66.33 566.31 66.69 564.27 67.12 562.66
L 67.90 559.74
L 39.72 559.74
C 11.67 559.74 6.50 560.44 6.50 564.27
C 6.50 568.08 11.28 568.75 38.68 568.79
C 59.92 568.82 66.30 568.45 66.31 567.21
M 185.99 567.48
C 187.37 566.75 188.50 565.31 188.50 564.29
C 188.50 560.18 183.43 559.74 136.15 559.74
L 88.82 559.74
L 87.31 563.05
C 86.48 564.87 85.80 566.91 85.80 567.60
C 85.80 569.35 182.70 569.25 185.99 567.48
M 110.51 551.97
C 107.25 545.90 99.70 545.94 94.15 552.06
C 91.95 554.48 92.14 554.55 101.89 554.55
C 111.45 554.55 111.83 554.43 110.51 551.97
M 45.89 216.09
C 60.10 212.92 59.61 211.52 44.62 212.49
C 32.10 213.32 31.19 213.19 25.48 210.01
C 18.58 206.17 17.58 207.14 23.67 211.77
C 33.22 219.01 32.98 218.97 45.89 216.09
M 105.30 204.36
C 111.37 203.30 122.67 200.34 130.38 197.79
C 147.54 192.12 154.97 186.22 161.40 173.17
C 166.71 162.38 168.09 146.35 164.50 136.99
C 163.28 133.78 162.11 131.17 161.90 131.17
C 161.69 131.17 159.04 132.05 156.00 133.12
C 147.00 136.29 143.65 135.73 140.59 130.56
C 137.89 125.97 136.64 125.43 125.75 124.01
C 122.03 123.53 118.13 121.99 116.00 120.16
C 112.97 117.56 112.48 116.18 112.65 110.83
C 112.75 107.38 113.04 103.39 113.30 101.97
C 113.95 98.31 102.90 95.40 95.90 97.40
C 88.19 99.61 76.23 111.65 70.14 123.35
C 64.69 133.81 60.01 138.81 30.63 165.51
C 18.47 176.56 13.01 183.12 13.00 186.69
C 13.00 189.19 21.63 198.16 28.34 202.58
C 34.28 206.52 34.54 206.56 46.76 205.82
C 53.57 205.39 60.91 205.61 63.05 206.30
C 68.08 207.90 91.12 206.84 105.30 204.36
M 157.14 124.25
C 163.54 121.08 170.81 110.38 168.26 107.83
C 166.18 105.75 155.16 110.00 147.28 115.92
L 140.50 121.01
L 143.30 124.81
C 146.41 129.00 147.60 128.96 157.14 124.25
M 136.54 114.18
C 152.07 102.61 161.53 90.56 168.16 73.83
C 176.12 53.74 177.32 37.65 171.77 25.32
C 167.99 16.95 167.00 18.74 165.93 35.81
C 165.07 49.60 162.18 60.17 156.73 69.47
C 152.30 77.01 142.94 87.13 136.28 91.56
C 123.30 100.21 115.11 111.09 118.51 115.18
C 120.33 117.38 124.35 119.27 127.44 119.40
C 128.53 119.44 132.63 117.09 136.54 114.18
M 73.37 104.70
L 76.04 101.12
L 70.04 95.69
C 66.74 92.70 60.42 87.13 56.02 83.31
C 43.65 72.57 35.30 52.69 34.97 33.23
L 34.84 25.32
L 32.18 33.12
C 30.43 38.21 29.47 44.53 29.38 51.40
C 29.26 61.27 29.57 62.55 34.85 73.19
C 38.51 80.55 43.28 87.51 48.50 93.12
C 56.51 101.69 67.00 109.51 69.42 108.70
C 70.12 108.47 71.89 106.66 73.37 104.70"/>
<path fill="#000000" stroke="none" d="
M 29.47 195.23
C 27.89 193.66 28.57 187.64 30.67 184.64
C 32.36 182.22 33.73 181.75 38.14 182.08
C 42.51 182.39 43.55 182.96 43.55 185.00
C 43.55 186.65 42.39 187.82 40.30 188.31
C 38.51 188.73 36.28 190.65 35.36 192.58
C 33.72 195.96 31.29 197.06 29.47 195.23"/>
<path fill="#000000" stroke="none" d="
M 85.09 157.86
C 80.37 153.13 80.64 145.21 85.70 140.16
C 88.80 137.06 90.60 136.36 95.51 136.36
C 103.83 136.36 107.90 140.42 107.90 148.70
C 107.90 157.22 103.88 161.04 94.90 161.04
C 89.61 161.04 87.65 160.40 85.09 157.86
M 102.45 150.30
C 102.95 146.10 98.45 141.23 94.60 141.81
C 90.58 142.39 90.35 145.01 94.24 145.99
C 96.63 146.58 97.80 147.94 98.36 150.74
C 99.29 155.39 101.88 155.12 102.45 150.30"/>
<path fill="#83807f" stroke="none" d="
M 122.81 118.25
C 121.35 117.65 119.42 116.27 118.51 115.18
C 115.13 111.10 123.32 100.19 136.16 91.64
C 142.84 87.19 150.83 78.73 155.99 70.58
C 161.78 61.47 165.00 50.18 166.08 35.16
C 166.67 26.86 167.63 21.44 168.56 21.14
C 170.87 20.38 175.50 34.30 175.49 41.94
C 175.42 61.49 162.83 90.75 148.69 104.12
C 141.14 111.26 129.69 119.49 127.44 119.40
C 126.35 119.35 124.25 118.83 122.81 118.25"/>
<path fill="#83807f" stroke="none" d="
M 62.35 105.43
C 52.61 99.22 41.04 85.66 34.85 73.19
C 29.57 62.55 29.26 61.27 29.38 51.40
C 29.47 44.53 30.43 38.21 32.18 33.12
L 34.84 25.32
L 34.97 33.23
C 35.30 52.69 43.65 72.57 56.02 83.31
C 60.42 87.13 66.74 92.70 70.04 95.69
L 76.04 101.12
L 73.37 104.70
C 71.89 106.66 70.12 108.47 69.42 108.70
C 68.73 108.94 65.55 107.45 62.35 105.43"/>
<path fill="#aa4422" stroke="none" d="
M 30.50 216.51
C 25.82 213.74 19.50 208.64 19.50 207.64
C 19.50 207.10 22.19 208.18 25.48 210.01
C 31.19 213.19 32.10 213.32 44.62 212.49
C 59.61 211.52 60.10 212.92 45.89 216.09
C 34.87 218.56 33.97 218.58 30.50 216.51"/>
<path fill="#aa4422" stroke="none" d="
M 63.05 206.30
C 60.91 205.61 53.57 205.39 46.76 205.82
C 34.54 206.56 34.28 206.52 28.34 202.58
C 21.63 198.16 13.00 189.19 13.00 186.69
C 13.01 183.12 18.47 176.56 30.63 165.51
C 60.01 138.81 64.69 133.81 70.14 123.35
C 76.30 111.52 88.23 99.55 95.94 97.47
C 103.05 95.56 113.93 98.39 113.30 101.97
C 113.04 103.39 112.75 107.38 112.65 110.83
C 112.48 116.18 112.97 117.56 116.00 120.16
C 118.13 121.99 122.03 123.53 125.75 124.01
C 136.64 125.43 137.89 125.97 140.59 130.56
C 143.65 135.73 147.00 136.29 156.00 133.12
C 159.04 132.05 161.69 131.17 161.90 131.17
C 162.11 131.17 163.28 133.78 164.50 136.99
C 168.09 146.35 166.71 162.38 161.40 173.17
C 154.97 186.22 147.54 192.12 130.38 197.79
C 122.67 200.34 111.37 203.30 105.30 204.36
C 91.12 206.84 68.08 207.90 63.05 206.30
M 35.36 192.58
C 36.28 190.65 38.51 188.73 40.30 188.31
C 42.39 187.82 43.55 186.65 43.55 185.00
C 43.55 182.96 42.51 182.39 38.14 182.08
C 33.73 181.75 32.36 182.22 30.67 184.64
C 28.57 187.64 27.89 193.66 29.47 195.23
C 31.29 197.06 33.72 195.96 35.36 192.58
M 104.72 157.86
C 107.17 155.39 107.90 153.30 107.90 148.70
C 107.90 140.42 103.83 136.36 95.51 136.36
C 87.28 136.36 81.90 141.48 81.90 149.31
C 81.90 157.18 86.18 161.04 94.90 161.04
C 100.19 161.04 102.15 160.40 104.72 157.86"/>
<path fill="#c57a36" stroke="none" d="
M 76.66 583.12
C 72.41 574.97 72.41 561.64 76.66 552.82
C 79.00 547.96 87.37 537.60 96.51 528.25
C 96.68 528.06 97.12 457.21 97.49 370.78
L 98.15 213.64
L 101.73 213.22
L 105.30 212.82
L 105.30 368.83
C 105.30 481.05 105.70 525.64 106.76 527.69
C 107.55 529.25 110.71 533.14 113.78 536.36
C 119.56 542.43 126.10 551.48 126.10 553.43
C 126.10 554.04 124.71 554.55 123.01 554.55
C 120.80 554.55 119.46 553.43 118.29 550.62
C 116.38 546.01 110.32 540.58 105.82 539.47
C 92.09 536.03 74.93 562.01 79.36 579.57
C 81.52 588.17 80.21 589.91 76.66 583.12"/>
<path fill="#c57a36" stroke="none" d="
M 118.72 584.91
C 119.09 583.56 119.80 580.57 120.25 578.25
C 120.86 575.25 121.82 574.03 123.60 574.03
C 126.70 574.03 126.70 574.26 123.51 580.48
C 120.67 586.06 117.57 588.91 118.72 584.91"/>
<path fill="#c57a36" stroke="none" d="
M 143.30 124.81
L 140.50 121.01
L 147.39 115.82
C 155.55 109.68 167.40 105.51 168.52 108.40
C 168.90 109.40 167.60 112.96 165.63 116.32
C 163.07 120.68 160.54 123.08 156.75 124.71
C 147.04 128.90 146.33 128.90 143.30 124.81"/>
<path fill="#eb2e00" stroke="none" d="
M 98.36 150.69
C 97.81 147.96 96.60 146.58 94.29 146.00
C 90.36 145.01 90.03 143.34 93.55 142.22
C 98.85 140.55 104.34 147.10 102.23 152.60
C 101.02 155.74 99.19 154.84 98.36 150.69"/>
<path fill="#c55436" stroke="none" d="
M 8.78 567.43
C 5.49 565.51 5.98 562.47 9.84 561.01
C 11.67 560.31 25.48 559.74 40.53 559.74
L 67.90 559.74
L 67.12 562.66
C 66.69 564.27 66.33 566.31 66.31 567.21
C 66.30 569.27 12.30 569.48 8.78 567.43"/>
<path fill="#c55436" stroke="none" d="
M 85.80 567.60
C 85.80 566.91 86.48 564.87 87.31 563.05
L 88.82 559.74
L 136.15 559.74
C 183.43 559.74 188.50 560.18 188.50 564.29
C 188.50 565.31 187.37 566.75 185.99 567.48
C 182.70 569.25 85.80 569.35 85.80 567.60"/>
</g>
</svg>
