<?xml version="1.0" encoding="UTF-8" standalone="no"?>
<!DOCTYPE svg PUBLIC "-//W3C//DTD SVG 1.1//EN"
"http://www.w3.org/Graphics/SVG/1.1/DTD/svg11.dtd">
<svg width="211px" height="600px"
xmlns="http://www.w3.org/2000/svg" version="1.1">
<g transform="translate(0000, 0000) scale(1.0000, 1.0000)">
<path fill="#000000" stroke="none" d="
M 145.88 597.40
C 143.30 594.82 143.27 593.06 143.27 386.55
C 143.27 184.92 143.19 178.23 140.84 175.87
C 138.71 173.75 135.61 173.36 116.41 172.79
C 95.91 172.18 93.04 171.76 73.67 166.70
C 62.24 163.72 45.83 159.79 37.20 157.98
C 19.62 154.30 13.48 151.33 5.46 142.63
C -4.26 132.10 -1.06 123.67 12.70 123.62
C 23.78 123.58 45.55 120.22 54.94 117.08
C 64.38 113.93 76.83 106.78 96.41 93.23
C 103.95 88.01 114.33 82.14 119.48 80.17
C 132.15 75.33 135.14 72.78 136.03 66.01
C 141.44 24.61 142.87 17.60 147.87 7.74
C 151.54 0.48 154.54 -1.21 156.31 2.95
C 156.99 4.56 160.26 15.53 163.58 27.33
C 166.90 39.14 170.06 49.30 170.62 49.90
C 172.19 51.58 176.52 38.69 179.74 22.83
C 184.20 0.75 185.24 -0.66 191.80 6.18
C 198.46 13.13 201.00 21.36 201.62 37.94
C 202.27 55.24 200.58 67.28 195.94 78.27
C 194.20 82.43 192.77 86.39 192.77 87.08
C 192.77 87.79 195.62 91.60 199.10 95.57
C 205.97 103.43 211.00 115.80 211.00 124.85
C 211.00 132.86 206.49 145.25 200.88 152.68
C 196.95 157.89 193.21 160.85 185.03 165.25
C 179.13 168.42 173.19 172.44 171.82 174.18
C 169.39 177.28 169.32 182.33 169.32 386.07
C 169.32 593.06 169.29 594.82 166.72 597.40
C 164.68 599.43 162.38 600.00 156.30 600.00
C 150.21 600.00 147.91 599.43 145.88 597.40
M 160.20 590.89
C 162.78 588.31 162.81 586.56 162.81 384.20
L 162.81 180.10
L 156.30 180.10
L 149.78 180.10
L 149.78 384.20
C 149.78 586.56 149.81 588.31 152.39 590.89
C 153.82 592.32 155.58 593.49 156.30 593.49
C 157.01 593.49 158.77 592.32 160.20 590.89
M 160.48 174.34
C 162.13 173.58 164.40 171.38 165.50 169.46
C 166.72 167.35 171.85 163.63 178.32 160.14
C 205.23 145.68 211.27 121.42 193.20 100.39
L 189.42 95.99
L 185.81 100.71
C 183.83 103.30 181.54 105.42 180.70 105.42
C 179.87 105.42 176.78 103.05 173.83 100.18
C 170.88 97.29 165.60 93.88 162.07 92.60
C 156.52 90.61 155.66 89.82 155.70 86.80
C 155.74 83.83 155.07 83.18 151.14 82.43
C 135.99 79.51 123.33 84.34 93.76 104.29
C 82.64 111.79 69.60 119.49 64.78 121.42
C 54.50 125.54 38.54 128.52 20.58 129.71
C 13.51 130.16 7.45 131.00 7.11 131.54
C 6.76 132.09 7.93 133.68 9.70 135.07
C 12.57 137.32 16.05 137.69 42.37 138.55
C 68.33 139.38 72.10 139.25 74.11 137.43
C 76.94 134.86 80.60 134.75 81.53 137.18
C 81.93 138.20 81.38 141.55 80.32 144.66
C 78.28 150.75 74.51 152.93 73.39 148.67
C 72.78 146.33 70.97 146.08 47.31 145.22
C 33.32 144.72 21.56 144.62 21.15 145.02
C 19.82 146.36 29.25 149.40 43.63 152.26
C 51.51 153.84 66.75 157.47 77.50 160.35
C 96.04 165.29 98.25 165.59 120.92 166.24
L 144.81 166.92
L 149.21 171.31
C 153.90 176.00 155.74 176.50 160.48 174.34
M 182.68 92.08
C 184.44 89.04 186.29 84.79 186.80 82.65
C 187.30 80.50 189.18 74.99 191.01 70.43
C 195.97 57.89 196.82 36.46 192.86 23.44
C 191.28 18.23 189.51 14.49 188.92 15.12
C 188.34 15.75 186.85 21.83 185.63 28.61
C 182.92 43.63 180.29 50.79 173.57 61.46
C 170.74 65.96 167.37 72.86 166.08 76.79
C 164.79 80.72 163.47 84.64 163.17 85.47
C 162.86 86.30 165.14 88.13 168.24 89.51
C 171.34 90.90 175.00 93.28 176.35 94.82
C 177.72 96.35 178.99 97.61 179.17 97.61
C 179.35 97.61 180.93 95.13 182.68 92.08
M 161.38 66.59
L 164.50 57.18
L 158.77 36.47
C 155.62 25.08 152.62 16.18 152.12 16.69
C 148.96 19.80 140.91 71.05 143.21 73.34
C 144.48 74.62 154.33 76.67 156.95 76.22
C 157.66 76.09 159.66 71.75 161.38 66.59"/>
<path fill="#000000" stroke="none" d="
M 115.20 120.46
C 108.18 113.43 113.15 101.52 123.08 101.52
C 129.44 101.52 134.15 106.23 134.15 112.58
C 134.15 115.81 133.16 118.24 130.96 120.46
C 128.75 122.66 126.31 123.64 123.08 123.64
C 119.85 123.64 117.42 122.66 115.20 120.46
M 128.45 116.43
C 130.19 113.77 130.33 112.49 129.14 109.89
C 127.63 106.58 124.27 104.46 122.82 105.90
C 122.38 106.35 122.99 107.78 124.18 109.09
C 126.85 112.05 126.90 113.74 124.39 115.84
C 121.90 117.90 121.89 119.74 124.36 119.74
C 125.41 119.74 127.25 118.26 128.45 116.43"/>
<path fill="#939393" stroke="none" d="
M 176.35 94.82
C 175.00 93.28 171.34 90.90 168.24 89.51
C 165.14 88.13 162.86 86.30 163.17 85.47
C 163.47 84.64 164.79 80.72 166.08 76.79
C 167.37 72.86 170.74 65.96 173.57 61.46
C 180.34 50.72 183.01 43.39 185.75 28.14
C 187.07 20.67 188.56 15.74 189.38 16.01
C 190.15 16.27 191.85 19.94 193.18 24.18
C 196.74 35.52 195.64 58.70 191.02 70.37
C 189.20 74.98 187.30 80.50 186.80 82.65
C 186.01 86.02 180.09 97.61 179.17 97.61
C 178.99 97.61 177.72 96.35 176.35 94.82"/>
<path fill="#939393" stroke="none" d="
M 150.08 75.55
C 147.02 75.06 143.94 74.07 143.21 73.34
C 140.91 71.05 148.96 19.80 152.12 16.69
C 152.62 16.18 155.62 25.08 158.77 36.47
L 164.50 57.18
L 161.38 66.59
C 159.66 71.75 157.66 76.09 156.95 76.22
C 156.23 76.35 153.14 76.05 150.08 75.55"/>
<path fill="#5a5959" stroke="none" d="
M 149.21 171.31
L 144.81 166.92
L 120.92 166.24
C 98.25 165.59 96.04 165.29 77.50 160.35
C 66.75 157.47 51.51 153.84 43.63 152.26
C 29.25 149.40 19.82 146.36 21.15 145.02
C 21.56 144.62 33.32 144.72 47.31 145.22
C 70.97 146.08 72.78 146.33 73.39 148.67
C 74.51 152.93 78.28 150.75 80.32 144.66
C 81.38 141.55 81.93 138.20 81.53 137.18
C 80.60 134.75 76.94 134.86 74.11 137.43
C 72.10 139.25 68.33 139.38 42.37 138.55
C 16.05 137.69 12.57 137.32 9.70 135.07
C 7.93 133.68 6.76 132.09 7.11 131.54
C 7.45 131.00 13.51 130.16 20.58 129.71
C 38.54 128.52 54.50 125.54 64.78 121.42
C 69.60 119.49 82.64 111.79 93.76 104.29
C 123.25 84.39 136.98 79.24 151.79 82.50
C 154.99 83.22 155.74 84.03 155.70 86.84
C 155.66 89.82 156.54 90.61 162.07 92.60
C 165.60 93.88 170.88 97.29 173.83 100.18
C 176.78 103.05 179.87 105.42 180.70 105.42
C 181.54 105.42 183.83 103.30 185.81 100.71
L 189.42 95.99
L 193.20 100.39
C 211.27 121.42 205.23 145.68 178.32 160.14
C 171.85 163.63 166.72 167.35 165.50 169.46
C 163.49 172.98 159.14 175.70 155.54 175.70
C 154.47 175.70 151.62 173.73 149.21 171.31
M 130.96 120.46
C 137.98 113.43 133.02 101.52 123.08 101.52
C 113.15 101.52 108.18 113.43 115.20 120.46
C 117.42 122.66 119.85 123.64 123.08 123.64
C 126.31 123.64 128.75 122.66 130.96 120.46"/>
<path fill="#eb2e00" stroke="none" d="
M 122.43 118.59
C 122.43 117.97 123.30 116.72 124.39 115.84
C 126.89 113.75 126.87 111.38 124.33 109.28
C 122.86 108.07 122.71 107.23 123.77 106.19
C 124.83 105.16 125.91 105.62 127.73 107.84
C 130.78 111.57 130.86 113.08 128.22 116.85
C 126.22 119.69 122.43 120.83 122.43 118.59"/>
<path fill="#c57a36" stroke="none" d="
M 152.39 590.89
C 149.80 588.30 149.78 586.87 150.11 384.36
L 150.44 180.46
L 156.62 180.20
L 162.81 179.93
L 162.81 384.12
C 162.81 586.56 162.78 588.31 160.20 590.89
C 156.93 594.16 155.66 594.16 152.39 590.89"/>
</g>
</svg>
