<?xml version="1.0" encoding="UTF-8" standalone="no"?>
<!DOCTYPE svg PUBLIC "-//W3C//DTD SVG 1.1//EN"
"http://www.w3.org/Graphics/SVG/1.1/DTD/svg11.dtd">
<svg width="600px" height="475px"
xmlns="http://www.w3.org/2000/svg" version="1.1">
<g transform="translate(0000, 0000) scale(1.0000, 1.0000)">
<path fill="#000000" stroke="none" d="
M 230.46 472.47
C 228.50 470.92 226.65 467.54 225.72 463.81
C 224.88 460.43 222.13 453.33 219.60 448.04
C 211.69 431.42 196.36 418.35 160.90 397.97
C 122.76 376.06 106.71 360.73 93.64 333.76
C 82.19 310.14 77.97 290.30 67.24 209.90
C 53.60 107.61 51.71 100.75 23.37 51.77
C 2.28 15.33 -0.87 8.72 0.94 4.74
C 1.72 3.02 3.92 1.22 5.82 0.74
C 10.50 -0.44 20.40 5.65 31.73 16.64
C 63.88 47.83 79.10 85.72 98.69 183.35
C 121.24 295.76 122.36 299.79 135.81 316.82
C 155.29 341.51 186.56 355.43 257.36 370.91
C 279.36 375.71 294.31 385.89 297.63 398.31
C 298.51 401.66 299.59 404.39 300.00 404.39
C 300.41 404.39 301.49 401.66 302.37 398.31
C 305.69 385.89 320.64 375.71 342.64 370.91
C 413.44 355.43 444.71 341.51 464.19 316.82
C 477.64 299.79 478.76 295.76 501.31 183.35
C 520.90 85.72 536.12 47.83 568.27 16.64
C 584.53 0.86 595.37 -3.38 599.00 4.60
C 600.88 8.73 597.92 14.98 576.63 51.77
C 548.29 100.75 546.40 107.61 532.76 209.90
C 522.03 290.30 517.81 310.14 506.36 333.76
C 493.29 360.73 477.24 376.06 439.10 397.97
C 407.74 415.98 391.41 428.93 383.62 441.93
C 381.29 445.79 377.69 453.80 375.62 459.74
C 373.54 465.65 370.60 471.52 369.10 472.75
C 366.68 474.76 363.01 475.00 335.40 475.00
C 310.92 475.00 303.88 474.63 301.86 473.20
C 299.65 471.66 298.94 471.66 296.83 473.20
C 294.90 474.63 288.03 475.00 264.03 475.00
C 235.76 475.00 233.46 474.83 230.46 472.47
M 291.03 466.01
C 293.42 463.61 293.59 461.74 293.58 436.17
C 293.58 420.63 292.97 406.74 292.19 403.90
C 290.14 396.48 281.03 387.50 270.83 382.84
C 266.08 380.67 254.97 377.38 246.15 375.55
C 173.68 360.49 137.40 340.72 120.67 307.21
C 114.46 294.78 112.40 286.04 92.85 189.36
C 83.24 141.88 77.58 119.02 69.63 95.64
C 56.71 57.58 38.92 30.58 14.51 11.94
C 12.14 10.12 9.87 8.94 9.50 9.32
C 8.51 10.31 13.54 19.87 28.37 45.27
C 58.24 96.40 59.36 100.38 73.64 207.33
C 84.18 286.14 88.72 307.41 99.69 329.29
C 112.91 355.65 128.74 370.81 164.10 390.95
C 184.21 402.40 203.33 415.51 211.09 423.14
C 219.76 431.66 226.68 443.24 230.78 456.08
C 232.41 461.15 234.69 465.54 236.29 466.67
C 238.50 468.21 243.90 468.58 263.74 468.58
C 286.76 468.58 288.64 468.40 291.03 466.01
M 363.71 466.67
C 365.31 465.54 367.59 461.15 369.22 456.08
C 373.32 443.24 380.24 431.66 388.91 423.14
C 396.67 415.51 415.79 402.40 435.90 390.95
C 471.26 370.81 487.09 355.65 500.31 329.29
C 511.28 307.41 515.82 286.14 526.36 207.33
C 540.64 100.38 541.76 96.40 571.63 45.27
C 586.46 19.87 591.49 10.31 590.50 9.32
C 590.13 8.94 587.86 10.12 585.49 11.94
C 561.08 30.58 543.29 57.58 530.37 95.64
C 522.42 119.02 516.76 141.88 507.15 189.36
C 494.47 252.05 488.64 279.60 485.85 289.88
C 478.56 316.75 462.38 335.49 433.83 350.13
C 413.69 360.45 389.56 368.12 353.85 375.55
C 345.03 377.38 333.92 380.67 329.17 382.84
C 318.97 387.50 309.86 396.48 307.81 403.90
C 307.03 406.74 306.42 420.63 306.42 436.17
C 306.41 461.74 306.58 463.61 308.97 466.01
C 311.36 468.40 313.24 468.58 336.26 468.58
C 356.10 468.58 361.50 468.21 363.71 466.67"/>
<path fill="#8d8d8d" stroke="none" d="
M 236.29 466.67
C 234.69 465.54 232.41 461.15 230.78 456.08
C 226.68 443.24 219.76 431.66 211.09 423.14
C 203.33 415.51 184.21 402.40 164.10 390.95
C 128.74 370.81 112.91 355.65 99.69 329.29
C 88.72 307.41 84.18 286.14 73.64 207.33
C 59.36 100.38 58.24 96.40 28.37 45.27
C 12.62 18.29 8.67 10.62 10.10 9.72
C 11.97 8.56 30.44 25.29 38.47 35.43
C 52.58 53.19 61.99 71.98 71.53 101.42
C 78.86 124.01 83.41 142.83 92.90 189.64
C 105.59 252.37 111.37 279.63 114.15 289.88
C 121.44 316.75 137.62 335.49 166.17 350.13
C 186.31 360.45 210.44 368.12 246.15 375.55
C 254.97 377.38 266.08 380.67 270.83 382.84
C 281.03 387.50 290.14 396.48 292.19 403.90
C 292.97 406.74 293.58 420.63 293.58 436.17
C 293.59 461.74 293.42 463.61 291.03 466.01
C 288.64 468.40 286.76 468.58 263.74 468.58
C 243.90 468.58 238.50 468.21 236.29 466.67"/>
<path fill="#8d8d8d" stroke="none" d="
M 308.97 466.01
C 306.58 463.61 306.41 461.74 306.42 436.17
C 306.42 420.63 307.03 406.74 307.81 403.90
C 309.86 396.48 318.97 387.50 329.17 382.84
C 333.92 380.67 345.03 377.38 353.85 375.55
C 426.32 360.49 462.60 340.72 479.33 307.21
C 485.54 294.78 487.60 286.04 507.15 189.36
C 516.76 141.88 522.42 119.02 530.37 95.64
C 543.29 57.58 561.08 30.58 585.49 11.94
C 587.86 10.12 590.13 8.94 590.50 9.32
C 591.49 10.31 586.46 19.87 571.63 45.27
C 541.76 96.40 540.64 100.38 526.36 207.33
C 515.82 286.14 511.28 307.41 500.31 329.29
C 487.09 355.65 471.26 370.81 435.90 390.95
C 415.79 402.40 396.67 415.51 388.91 423.14
C 380.24 431.66 373.32 443.24 369.22 456.08
C 367.59 461.15 365.31 465.54 363.71 466.67
C 361.50 468.21 356.10 468.58 336.26 468.58
C 313.24 468.58 311.36 468.40 308.97 466.01"/>
</g>
</svg>
