<?xml version="1.0" encoding="UTF-8" standalone="no"?>
<!DOCTYPE svg PUBLIC "-//W3C//DTD SVG 1.1//EN"
"http://www.w3.org/Graphics/SVG/1.1/DTD/svg11.dtd">
<svg width="499px" height="600px"
xmlns="http://www.w3.org/2000/svg" version="1.1">
<g transform="translate(0000, 0000) scale(1.0000, 1.0000)">
<path fill="#000000" stroke="none" d="
M 194.19 597.11
C 191.12 595.04 188.93 591.75 186.40 585.52
C 179.10 567.43 166.77 555.47 131.49 532.28
C 91.26 505.82 79.35 490.95 70.21 455.76
C 68.46 449.04 63.20 419.33 58.52 389.76
C 47.89 322.61 46.25 314.43 39.05 292.74
C 33.36 275.60 14.48 235.18 4.67 219.13
C -0.72 210.31 -0.91 209.05 2.57 205.57
C 9.07 199.08 17.30 203.94 34.30 224.34
C 65.35 261.60 71.07 276.98 86.14 363.60
C 95.94 419.86 99.44 433.01 110.23 453.97
C 117.96 468.98 132.44 484.01 145.97 491.05
C 162.39 499.59 204.09 512.17 206.85 509.41
C 207.16 509.10 203.92 505.12 199.64 500.54
C 186.17 486.15 177.90 464.12 179.28 446.31
C 181.53 417.28 197.32 394.18 223.16 382.11
L 235.35 376.42
L 235.35 321.78
L 235.35 267.12
L 232.34 264.12
C 230.12 261.89 227.19 260.87 221.09 260.17
C 209.34 258.82 200.44 255.12 193.08 248.51
C 183.25 239.69 180.69 233.33 180.69 217.77
C 180.69 202.21 183.25 195.85 193.08 187.04
C 200.44 180.42 209.34 176.72 221.09 175.37
C 227.19 174.68 230.12 173.65 232.34 171.43
L 235.35 168.42
L 235.35 111.47
C 235.35 50.96 235.62 47.68 241.89 33.48
C 250.57 13.81 267.42 2.80 292.26 0.55
C 308.74 -0.94 327.50 5.70 337.25 16.48
C 345.00 25.07 344.82 35.13 336.84 39.25
C 331.44 42.04 328.59 41.60 316.49 36.06
C 310.42 33.29 303.31 30.63 300.70 30.15
C 290.01 28.21 275.58 36.94 269.06 49.28
L 265.58 55.89
L 265.58 215.79
L 265.58 375.71
L 274.58 379.03
C 288.61 384.21 296.43 389.02 304.56 397.52
C 313.43 406.78 317.86 413.99 322.06 426.05
C 329.65 447.78 329.48 455.97 321.04 476.27
C 315.99 488.40 313.08 492.94 304.97 501.39
C 299.50 507.08 299.32 507.49 302.22 507.49
C 306.54 507.49 331.62 500.27 342.07 496.03
C 377.84 481.49 393.12 462.37 404.58 417.83
C 406.99 408.44 412.43 382.72 416.67 360.66
C 432.06 280.42 439.11 259.52 459.61 233.40
C 469.86 220.33 484.66 205.99 489.03 204.89
C 495.55 203.25 500.35 209.01 498.52 216.28
C 498.11 217.94 494.85 223.76 491.28 229.22
C 478.59 248.65 467.45 273.73 461.15 297.12
C 456.82 313.22 451.20 342.41 445.01 380.94
C 442.18 398.61 438.64 420.55 437.18 429.70
C 428.51 483.44 415.10 505.62 377.29 528.73
C 331.40 556.79 322.73 564.72 314.91 585.76
C 312.92 591.12 310.05 596.52 308.54 597.75
C 306.04 599.81 301.34 600.00 252.12 600.00
C 198.57 600.00 198.43 599.99 194.19 597.11
M 250.28 585.55
C 249.85 581.13 248.91 568.60 248.20 557.70
C 246.86 536.83 246.63 536.04 239.07 527.45
C 234.00 521.68 223.91 518.52 202.00 515.87
C 190.02 514.42 181.63 512.45 168.57 508.03
C 130.92 495.30 115.91 482.92 101.30 452.57
C 93.33 435.98 88.34 416.42 80.43 370.66
C 66.57 290.51 60.24 270.81 39.57 243.47
C 27.87 228.00 10.96 209.69 9.58 211.01
C 9.04 211.54 9.49 212.99 10.58 214.23
C 13.27 217.26 33.35 257.43 39.01 271.10
C 50.03 297.73 53.14 312.04 66.84 398.93
C 79.94 482.12 85.68 492.63 136.27 526.14
C 171.63 549.55 183.00 560.42 191.68 579.03
C 198.42 593.51 198.30 593.46 227.47 593.52
L 251.08 593.58
L 250.28 585.55
M 303.13 591.65
C 304.69 590.56 307.09 586.09 308.67 581.34
C 312.56 569.69 320.31 558.69 330.39 550.55
C 335.11 546.75 348.79 537.47 360.80 529.95
C 386.89 513.58 394.15 508.15 403.19 498.15
C 419.93 479.68 425.54 461.95 436.02 394.43
C 442.54 352.38 449.28 315.48 453.38 299.25
C 460.35 271.70 471.75 244.82 485.10 224.49
C 488.70 218.99 491.26 214.11 490.78 213.64
C 489.47 212.33 471.36 230.63 463.12 241.59
C 444.71 266.08 437.82 286.90 423.71 360.59
C 407.35 446.03 399.70 466.07 375.92 485.74
C 360.17 498.77 322.85 512.70 299.35 514.32
C 284.20 515.36 266.76 524.66 262.98 533.70
C 262.00 536.03 260.61 546.54 259.87 557.07
C 259.13 567.61 258.17 580.14 257.74 584.90
L 256.96 593.58
L 278.67 593.58
C 295.88 593.58 300.94 593.18 303.13 591.65
M 256.30 527.04
L 259.74 523.46
L 252.72 523.46
L 245.69 523.46
L 249.13 527.04
C 251.00 529.01 252.63 530.62 252.72 530.62
C 252.81 530.62 254.43 529.01 256.30 527.04
M 262.36 516.44
C 301.52 510.23 328.80 467.46 316.57 431.45
C 305.24 398.12 268.70 376.18 239.12 384.94
C 208.65 393.97 187.23 420.98 187.23 450.32
C 187.23 480.41 210.97 509.33 241.02 515.87
C 250.89 518.00 252.16 518.04 262.36 516.44
M 258.50 213.89
L 259.15 53.27
L 263.40 44.62
C 273.58 23.99 295.35 17.82 318.76 28.92
C 323.96 31.39 328.74 33.40 329.37 33.40
C 330.01 33.40 331.69 32.24 333.12 30.81
C 335.53 28.41 335.58 27.96 333.76 24.45
C 330.09 17.36 317.10 10.18 303.48 7.70
C 282.89 3.97 258.84 16.20 249.49 35.15
C 241.95 50.44 241.81 51.89 241.80 114.09
C 241.78 176.22 241.72 176.79 234.45 179.63
C 232.47 180.40 227.38 181.41 223.14 181.86
C 202.33 184.10 186.48 199.62 186.48 217.77
C 186.48 235.93 202.33 251.45 223.14 253.68
C 227.38 254.13 232.47 255.15 234.45 255.92
C 241.69 258.75 241.78 259.54 241.78 318.99
C 241.78 348.94 242.20 373.86 242.70 374.36
C 243.20 374.87 246.81 375.11 250.73 374.89
L 257.86 374.52
L 258.50 213.89"/>
<path fill="#000000" stroke="none" d="
M 217.45 247.14
C 198.10 240.37 189.50 226.23 194.29 209.01
C 198.02 195.60 221.13 182.76 232.83 187.59
C 239.57 190.39 240.50 194.02 240.50 217.64
C 240.50 240.75 239.67 244.42 233.87 247.41
C 229.39 249.74 224.65 249.66 217.45 247.14
M 231.49 240.26
C 233.85 237.91 234.07 235.98 234.07 217.77
C 234.07 199.57 233.85 197.64 231.49 195.29
C 228.15 191.95 227.17 192.03 217.99 196.37
C 209.26 200.51 201.32 208.47 200.02 214.41
C 198.06 223.35 205.57 233.47 218.63 239.52
C 227.19 243.48 228.20 243.55 231.49 240.26"/>
<path fill="#2da630" stroke="none" d="
M 242.70 374.36
C 242.20 373.86 241.78 348.94 241.78 318.99
C 241.78 259.54 241.69 258.75 234.45 255.92
C 232.47 255.15 227.38 254.13 223.14 253.68
C 202.33 251.45 186.48 235.93 186.48 217.77
C 186.48 199.62 202.33 184.10 223.14 181.86
C 227.38 181.41 232.47 180.40 234.45 179.63
C 241.72 176.79 241.78 176.22 241.80 114.09
C 241.81 51.89 241.95 50.44 249.49 35.15
C 260.98 11.83 291.40 0.85 316.03 11.13
C 323.57 14.27 331.63 20.33 333.76 24.45
C 335.58 27.96 335.53 28.41 333.12 30.81
C 331.69 32.24 330.01 33.40 329.37 33.40
C 328.74 33.40 323.96 31.39 318.76 28.92
C 295.35 17.82 273.58 23.99 263.40 44.62
L 259.15 53.27
L 258.50 213.89
L 257.86 374.52
L 250.73 374.89
C 246.81 375.11 243.20 374.87 242.70 374.36
M 233.87 247.41
C 239.67 244.42 240.50 240.75 240.50 217.64
C 240.50 194.02 239.57 190.39 232.83 187.59
C 221.13 182.76 198.02 195.60 194.29 209.01
C 189.50 226.23 198.10 240.37 217.45 247.14
C 224.65 249.66 229.39 249.74 233.87 247.41"/>
<path fill="#7b7872" stroke="none" d="
M 200.20 591.51
C 197.65 590.12 195.11 586.42 191.68 579.03
C 183.00 560.42 171.63 549.55 136.27 526.14
C 85.68 492.63 79.94 482.12 66.84 398.93
C 53.14 312.04 50.03 297.73 39.01 271.10
C 33.48 257.76 13.30 217.30 10.71 214.37
C 9.58 213.10 9.34 211.94 10.10 211.46
C 11.75 210.44 27.42 227.45 39.55 243.47
C 60.24 270.77 66.57 290.48 80.43 370.66
C 88.34 416.42 93.33 435.98 101.30 452.57
C 115.91 482.92 130.92 495.30 168.57 508.03
C 181.63 512.45 190.02 514.42 202.00 515.87
C 223.91 518.52 234.00 521.68 239.07 527.45
C 246.63 536.04 246.86 536.83 248.20 557.70
C 248.91 568.60 249.85 581.13 250.28 585.55
L 251.08 593.58
L 227.47 593.52
C 208.76 593.49 203.09 593.06 200.20 591.51"/>
<path fill="#7b7872" stroke="none" d="
M 257.74 584.90
C 258.17 580.14 259.13 567.61 259.87 557.07
C 260.61 546.54 262.00 536.03 262.98 533.70
C 266.76 524.66 284.20 515.36 299.35 514.32
C 322.85 512.70 360.17 498.77 375.92 485.74
C 399.70 466.07 407.35 446.03 423.71 360.59
C 437.82 286.90 444.71 266.08 463.12 241.59
C 471.36 230.63 489.47 212.33 490.78 213.64
C 491.26 214.11 488.70 218.99 485.10 224.49
C 471.75 244.82 460.35 271.70 453.38 299.25
C 449.28 315.48 442.54 352.38 436.02 394.43
C 425.54 461.95 419.93 479.68 403.19 498.15
C 394.15 508.15 386.89 513.58 360.80 529.95
C 348.79 537.47 335.11 546.75 330.39 550.55
C 320.31 558.69 312.56 569.69 308.67 581.34
C 304.63 593.46 304.34 593.58 278.67 593.58
L 256.96 593.58
L 257.74 584.90"/>
<path fill="#ffbf53" stroke="none" d="
M 241.02 515.87
C 210.97 509.33 187.23 480.41 187.23 450.32
C 187.23 411.71 225.84 377.55 262.14 384.03
C 302.08 391.16 328.85 433.05 316.57 469.19
C 308.31 493.48 286.32 512.63 262.36 516.44
C 252.16 518.04 250.89 518.00 241.02 515.87"/>
</g>
</svg>
