<?xml version="1.0" encoding="UTF-8" standalone="no"?>
<!DOCTYPE svg PUBLIC "-//W3C//DTD SVG 1.1//EN"
"http://www.w3.org/Graphics/SVG/1.1/DTD/svg11.dtd">
<svg width="445px" height="600px"
xmlns="http://www.w3.org/2000/svg" version="1.1">
<g transform="translate(0000, 0000) scale(1.0000, 1.0000)">
<path fill="#000000" stroke="none" d="
M 208.91 598.38
C 207.97 597.43 207.20 596.00 207.20 595.18
C 207.20 594.36 210.96 583.39 215.53 570.81
C 220.11 558.22 223.86 547.79 223.88 547.64
C 223.89 547.49 220.36 547.17 216.03 546.94
C 210.74 546.67 207.73 545.82 206.80 544.33
C 205.62 542.44 212.50 520.71 221.82 496.94
C 222.61 494.92 221.61 494.53 214.77 494.17
C 209.36 493.89 206.35 493.04 205.41 491.56
C 204.23 489.67 211.11 467.93 220.43 444.18
C 221.21 442.17 220.26 441.75 214.07 441.40
C 202.92 440.75 202.85 439.86 211.76 415.17
C 216.02 403.39 219.91 392.69 220.43 391.39
C 221.22 389.36 220.22 388.97 213.38 388.61
C 207.97 388.33 204.96 387.49 204.02 386.00
C 202.84 384.11 209.72 362.38 219.04 338.62
C 219.82 336.61 218.87 336.19 212.68 335.85
C 201.53 335.19 201.46 334.31 210.37 309.61
C 214.63 297.83 218.52 287.14 219.04 285.83
C 219.83 283.81 218.83 283.42 211.99 283.06
C 206.58 282.78 203.57 281.93 202.63 280.44
C 201.45 278.56 208.33 256.82 217.65 233.07
C 218.43 231.06 217.48 230.64 211.29 230.29
C 200.14 229.64 200.07 228.75 208.98 204.06
C 213.24 192.28 217.13 181.58 217.65 180.28
C 218.44 178.25 217.44 177.86 210.60 177.50
C 205.19 177.22 202.18 176.38 201.24 174.89
C 200.22 173.26 201.90 167.06 207.61 151.28
L 215.34 129.86
L 211.63 128.94
C 203.81 127.03 192.56 125.33 191.56 125.93
C 190.99 126.28 190.52 138.10 190.52 152.21
C 190.52 174.28 190.21 177.99 188.32 178.71
C 186.44 179.43 180.32 178.03 174.18 175.49
C 172.83 174.93 172.44 180.35 172.44 199.93
C 172.44 228.68 172.49 228.54 161.23 224.54
C 157.63 223.26 154.29 222.22 153.83 222.22
C 153.36 222.22 152.97 233.81 152.97 247.96
C 152.97 270.10 152.66 273.82 150.77 274.54
C 148.89 275.26 142.78 273.86 136.63 271.32
C 135.28 270.76 134.89 276.18 134.89 295.76
C 134.89 324.51 134.95 324.38 123.68 320.37
C 120.08 319.10 116.74 318.06 116.28 318.06
C 115.81 318.06 115.42 329.94 115.42 344.49
C 115.42 367.26 115.12 371.04 113.22 371.76
C 111.35 372.49 105.23 371.08 99.08 368.54
C 97.73 367.99 97.34 373.40 97.34 392.99
C 97.34 414.60 97.04 418.26 95.15 418.99
C 93.27 419.71 87.15 418.31 81.00 415.76
C 79.66 415.21 79.27 420.58 79.27 439.99
C 79.27 468.56 78.86 469.71 69.77 467.11
C 66.96 466.32 63.57 465.19 62.23 464.62
C 59.96 463.67 59.80 465.32 59.80 488.78
C 59.80 510.43 59.49 514.10 57.60 514.82
C 55.72 515.54 49.60 514.14 43.46 511.60
C 42.11 511.04 41.72 516.46 41.72 536.04
C 41.72 564.93 41.86 564.64 30.01 560.54
C 13.79 554.94 1.08 549.43 0.42 547.69
C -0.56 545.17 3.00 539.97 15.99 524.99
C 32.58 505.83 31.86 507.62 24.43 504.35
C 17.76 501.40 16.83 499.46 20.01 495.11
C 21.74 492.76 22.39 492.67 25.92 494.29
C 28.10 495.31 34.75 497.92 40.68 500.11
L 51.45 504.10
L 51.45 482.76
L 51.45 461.43
L 43.80 457.82
C 39.61 455.83 36.16 453.42 36.17 452.44
C 36.18 449.81 39.90 444.71 52.15 430.54
C 70.28 409.57 69.31 411.75 61.94 408.50
C 58.46 406.97 55.62 404.89 55.64 403.90
C 55.65 401.19 59.31 396.17 71.62 381.94
C 88.21 362.78 87.47 364.57 80.06 361.29
C 76.57 359.75 73.70 357.65 73.70 356.64
C 73.70 353.51 81.21 343.82 99.81 322.96
L 107.20 314.67
L 100.18 311.58
C 96.33 309.88 93.17 307.68 93.19 306.68
C 93.20 303.97 96.84 298.94 109.16 284.72
C 125.75 265.56 125.02 267.35 117.61 264.07
C 114.11 262.53 111.25 260.44 111.26 259.46
C 111.28 256.75 114.92 251.74 127.24 237.49
C 145.38 216.51 144.40 218.69 137.03 215.44
C 130.16 212.40 129.50 210.74 133.07 205.51
C 136.60 200.36 154.90 178.96 159.13 175.04
L 162.83 171.62
L 155.82 168.53
C 151.95 166.83 148.80 164.60 148.80 163.58
C 148.80 160.49 156.90 150.00 174.22 130.71
C 177.92 126.58 180.43 122.74 179.82 122.17
C 179.20 121.58 172.44 118.62 164.79 115.58
C 157.14 112.53 147.67 108.62 143.75 106.89
L 136.60 103.75
L 121.79 111.65
C 113.64 116.00 106.38 119.18 105.63 118.72
C 103.85 117.62 103.84 39.33 105.62 38.24
C 106.34 37.79 113.70 40.99 121.96 45.35
L 136.98 53.26
L 150.19 47.31
C 157.45 44.03 170.59 38.93 179.39 35.96
C 188.18 32.99 195.23 29.96 195.05 29.22
C 194.87 28.49 191.27 23.01 187.05 17.07
C 178.68 5.28 177.74 1.85 182.52 0.68
C 184.24 0.26 203.80 0.10 225.98 0.31
C 273.52 0.76 271.64 -0.18 259.37 17.07
C 255.14 23.01 251.52 28.49 251.34 29.22
C 251.16 29.96 258.21 32.99 267.00 35.96
C 275.79 38.93 288.94 44.03 296.20 47.31
L 309.41 53.26
L 324.43 45.35
C 332.69 40.99 340.05 37.79 340.77 38.24
C 342.55 39.33 342.54 117.62 340.76 118.72
C 340.01 119.18 332.75 116.00 324.60 111.65
L 309.79 103.75
L 302.64 106.90
C 298.72 108.62 288.47 112.86 279.86 116.31
L 264.23 122.56
L 266.65 125.67
C 267.99 127.37 274.09 134.57 280.21 141.65
C 292.53 155.90 296.18 160.92 296.19 163.62
C 296.20 164.62 293.05 166.83 289.18 168.53
L 282.17 171.62
L 285.87 175.04
C 290.10 178.96 308.40 200.36 311.93 205.51
C 315.50 210.74 314.84 212.40 307.97 215.44
C 300.60 218.69 299.62 216.51 317.76 237.49
C 330.08 251.74 333.72 256.75 333.74 259.46
C 333.75 260.44 330.89 262.53 327.39 264.07
C 319.98 267.35 319.25 265.56 335.84 284.72
C 348.16 298.94 351.80 303.97 351.81 306.68
C 351.83 307.68 348.67 309.88 344.82 311.58
L 337.80 314.67
L 345.19 322.96
C 363.79 343.82 371.30 353.51 371.30 356.64
C 371.30 357.65 368.43 359.75 364.94 361.29
C 357.53 364.57 356.79 362.78 373.38 381.94
C 385.69 396.17 389.35 401.19 389.36 403.90
C 389.38 404.89 386.54 406.97 383.06 408.50
C 375.69 411.75 374.72 409.57 392.85 430.54
C 405.10 444.71 408.82 449.81 408.83 452.44
C 408.84 453.42 405.39 455.83 401.20 457.82
L 393.55 461.43
L 393.55 482.76
L 393.55 504.10
L 404.32 500.11
C 410.25 497.92 416.90 495.31 419.08 494.29
C 422.61 492.67 423.26 492.76 424.99 495.11
C 428.17 499.46 427.24 501.40 420.57 504.35
C 413.14 507.62 412.42 505.83 429.01 524.99
C 442.00 539.97 445.56 545.17 444.58 547.69
C 443.92 549.43 431.20 554.94 414.99 560.54
C 403.14 564.64 403.28 564.93 403.28 536.04
C 403.28 516.46 402.89 511.04 401.54 511.60
C 395.40 514.14 389.28 515.54 387.40 514.82
C 385.51 514.10 385.20 510.43 385.20 488.78
C 385.20 465.32 385.04 463.67 382.77 464.62
C 381.43 465.19 378.04 466.32 375.23 467.11
C 366.14 469.71 365.73 468.56 365.73 439.99
C 365.73 420.58 365.35 415.21 364.00 415.76
C 357.85 418.31 351.73 419.71 349.85 418.99
C 347.96 418.26 347.66 414.60 347.66 392.99
C 347.66 373.40 347.27 367.99 345.92 368.54
C 339.77 371.08 333.65 372.49 331.78 371.76
C 329.88 371.04 329.58 367.26 329.58 344.49
C 329.58 329.94 329.19 318.06 328.72 318.06
C 328.26 318.06 324.92 319.10 321.32 320.37
C 310.05 324.38 310.11 324.51 310.11 295.76
C 310.11 276.18 309.72 270.76 308.37 271.32
C 302.22 273.86 296.11 275.26 294.23 274.54
C 292.34 273.82 292.03 270.10 292.03 247.96
C 292.03 233.81 291.64 222.22 291.17 222.22
C 290.71 222.22 287.37 223.26 283.77 224.54
C 272.51 228.54 272.56 228.67 272.56 200.04
C 272.56 186.26 272.33 175.00 272.03 175.00
C 271.74 175.00 269.18 175.97 266.33 177.17
C 263.48 178.35 259.81 179.12 258.17 178.90
C 255.26 178.49 255.17 177.75 254.48 152.78
L 253.79 127.08
L 245.86 127.43
C 241.51 127.62 235.79 128.25 233.17 128.82
L 228.37 129.86
L 236.06 151.26
C 244.83 175.68 244.76 176.83 234.40 177.51
C 228.87 177.87 227.98 178.31 228.77 180.29
C 229.29 181.58 233.18 192.28 237.42 204.04
C 246.34 228.75 246.27 229.64 235.10 230.29
C 228.90 230.65 227.97 231.06 228.76 233.07
C 229.29 234.36 233.18 245.06 237.42 256.82
C 246.24 281.22 246.15 282.39 235.79 283.07
C 230.26 283.43 229.37 283.86 230.16 285.85
C 230.68 287.14 234.57 297.83 238.81 309.60
C 247.73 334.31 247.66 335.19 236.49 335.85
C 230.29 336.21 229.36 336.61 230.15 338.62
C 230.68 339.92 234.57 350.61 238.81 362.38
C 247.63 386.78 247.55 387.94 237.19 388.62
C 231.65 388.99 230.76 389.42 231.55 391.40
C 232.07 392.69 235.96 403.39 240.20 415.15
C 249.12 439.86 249.05 440.75 237.88 441.40
C 231.68 441.76 230.75 442.17 231.54 444.18
C 232.07 445.47 235.96 456.17 240.20 467.93
C 248.99 492.28 248.92 493.50 238.70 494.17
C 233.78 494.50 231.87 495.31 230.65 497.58
C 229.34 500.01 215.55 538.62 215.55 539.83
C 215.55 540.03 222.90 540.36 231.89 540.58
C 247.17 540.94 248.23 541.15 248.23 543.75
C 248.23 546.12 247.16 546.58 240.80 546.96
C 234.47 547.32 233.53 547.72 234.32 549.74
C 234.85 551.03 238.74 561.72 242.98 573.49
C 248.71 589.35 250.35 595.46 249.33 597.10
C 248.18 598.90 244.53 599.38 229.27 599.69
C 215.94 599.96 210.12 599.58 208.91 598.38
M 240.26 591.32
C 239.92 590.36 237.21 582.60 234.24 574.06
L 228.83 558.54
L 223.75 572.79
C 220.94 580.62 218.23 588.40 217.70 590.06
C 216.77 592.97 217.08 593.06 228.81 593.06
C 237.87 593.06 240.72 592.62 240.26 591.32
M 34.77 536.11
C 34.77 522.79 34.38 519.44 32.83 519.44
C 30.90 519.44 11.12 541.85 11.12 544.03
C 11.12 545.17 29.70 552.50 33.03 552.68
C 34.32 552.75 34.77 548.57 34.77 536.11
M 423.10 549.00
C 429.02 546.90 433.88 544.67 433.88 544.04
C 433.88 541.85 414.10 519.44 412.17 519.44
C 410.62 519.44 410.23 522.79 410.23 536.11
C 410.23 545.28 410.71 552.78 411.28 552.79
C 411.85 552.81 417.17 551.10 423.10 549.00
M 237.48 485.76
C 237.14 484.81 234.43 477.04 231.46 468.50
L 226.05 452.99
L 220.97 467.24
C 218.16 475.07 215.45 482.85 214.92 484.50
C 213.99 487.42 214.30 487.50 226.03 487.50
C 235.09 487.50 237.94 487.07 237.48 485.76
M 70.92 440.28
C 70.92 428.43 70.50 425.00 69.06 425.00
C 67.20 425.00 48.67 446.10 48.67 448.21
C 48.67 449.62 63.65 455.29 67.79 455.44
C 70.85 455.56 70.92 455.24 70.92 440.28
M 387.64 452.44
C 392.42 450.74 396.33 448.83 396.33 448.21
C 396.33 446.10 377.81 425.00 375.94 425.00
C 374.50 425.00 374.08 428.43 374.08 440.28
C 374.08 457.93 373.58 457.49 387.64 452.44
M 237.48 432.99
C 237.14 432.03 234.43 424.26 231.46 415.72
L 226.05 400.21
L 220.97 414.46
C 218.16 422.29 215.45 430.07 214.92 431.72
C 213.99 434.64 214.30 434.72 226.03 434.72
C 235.09 434.72 237.94 434.29 237.48 432.99
M 90.39 393.06
C 90.39 379.74 90.00 376.39 88.46 376.39
C 86.52 376.39 66.75 398.79 66.75 400.97
C 66.75 402.11 85.33 409.44 88.65 409.62
C 89.95 409.69 90.39 405.51 90.39 393.06
M 367.47 405.94
C 373.40 403.85 378.25 401.61 378.25 400.99
C 378.25 398.79 358.48 376.39 356.54 376.39
C 355.00 376.39 354.61 379.74 354.61 393.06
C 354.61 402.22 355.08 409.72 355.65 409.74
C 356.22 409.75 361.55 408.04 367.47 405.94
M 236.09 380.21
C 235.75 379.25 233.04 371.49 230.06 362.94
L 224.66 347.43
L 219.58 361.68
C 216.77 369.51 214.06 377.29 213.53 378.94
C 212.60 381.86 212.90 381.94 224.64 381.94
C 233.69 381.94 236.55 381.51 236.09 380.21
M 108.47 345.83
C 108.47 332.51 108.08 329.17 106.54 329.17
C 104.60 329.17 84.83 351.57 84.83 353.75
C 84.83 354.89 103.41 362.22 106.73 362.40
C 108.02 362.47 108.47 358.29 108.47 345.83
M 349.39 358.72
C 355.32 356.62 360.17 354.39 360.17 353.76
C 360.17 351.57 340.40 329.17 338.46 329.17
C 336.92 329.17 336.53 332.51 336.53 345.83
C 336.53 355.00 337.00 362.50 337.57 362.51
C 338.14 362.53 343.47 360.82 349.39 358.72
M 236.09 327.43
C 235.75 326.47 233.04 318.71 230.06 310.17
L 224.66 294.65
L 219.58 308.90
C 216.77 316.74 214.06 324.51 213.53 326.17
C 212.60 329.08 212.90 329.17 224.64 329.17
C 233.69 329.17 236.55 328.74 236.09 327.43
M 127.94 295.83
C 127.94 282.51 127.55 279.17 126.00 279.17
C 124.07 279.17 104.30 301.57 104.30 303.75
C 104.30 304.89 122.88 312.22 126.20 312.40
C 127.49 312.47 127.94 308.29 127.94 295.83
M 329.93 308.72
C 335.85 306.62 340.70 304.39 340.70 303.76
C 340.70 301.57 320.93 279.17 319.00 279.17
C 317.45 279.17 317.06 282.51 317.06 295.83
C 317.06 305.00 317.54 312.50 318.11 312.51
C 318.68 312.53 324.00 310.82 329.93 308.72
M 234.70 274.65
C 234.36 273.69 231.65 265.93 228.67 257.39
L 223.26 241.88
L 218.19 256.12
C 215.38 263.96 212.67 271.74 212.14 273.39
C 211.21 276.31 211.51 276.39 223.25 276.39
C 232.30 276.39 235.15 275.96 234.70 274.65
M 146.02 248.61
C 146.02 235.29 145.63 231.94 144.08 231.94
C 142.15 231.94 122.38 254.35 122.38 256.53
C 122.38 257.67 140.95 265.00 144.28 265.18
C 145.57 265.25 146.02 261.07 146.02 248.61
M 311.85 261.50
C 317.77 259.40 322.62 257.17 322.62 256.54
C 322.62 254.35 302.85 231.94 300.92 231.94
C 299.37 231.94 298.98 235.29 298.98 248.61
C 298.98 257.78 299.46 265.28 300.03 265.29
C 300.60 265.31 305.92 263.60 311.85 261.50
M 235.02 223.00
C 235.02 221.49 223.50 190.21 223.10 190.61
C 222.57 191.12 211.38 222.12 211.38 223.03
C 211.38 223.35 216.69 223.61 223.20 223.61
C 229.70 223.61 235.02 223.33 235.02 223.00
M 165.48 200.08
C 165.48 190.96 164.90 183.14 164.20 182.71
C 162.93 181.92 141.84 205.67 141.84 207.89
C 141.84 209.04 160.37 216.39 163.75 216.57
C 165.04 216.64 165.48 212.47 165.48 200.08
M 292.38 212.89
C 298.30 210.79 303.16 208.54 303.16 207.90
C 303.16 205.67 282.07 181.92 280.79 182.71
C 279.28 183.64 279.04 216.67 280.56 216.68
C 281.13 216.69 286.45 214.99 292.38 212.89
M 233.31 169.10
C 232.97 168.14 230.26 160.38 227.28 151.83
L 221.87 136.32
L 216.80 150.57
C 213.99 158.40 211.28 166.18 210.75 167.83
C 209.82 170.75 210.12 170.83 221.86 170.83
C 230.91 170.83 233.76 170.40 233.31 169.10
M 183.56 152.78
C 183.56 139.60 183.16 136.11 181.66 136.11
C 178.82 136.11 158.04 161.01 160.21 161.81
C 161.20 162.15 166.07 163.99 171.05 165.88
C 176.03 167.76 180.86 169.33 181.82 169.38
C 183.12 169.43 183.56 165.22 183.56 152.78
M 272.16 166.47
C 276.60 164.83 281.64 162.96 283.38 162.32
C 286.43 161.19 286.11 160.61 275.90 148.62
C 270.05 141.75 264.39 136.11 263.34 136.11
C 261.84 136.11 261.44 139.60 261.44 152.78
C 261.44 162.53 261.99 169.44 262.77 169.44
C 263.51 169.44 267.74 168.11 272.16 166.47
M 242.19 118.79
C 256.97 116.22 271.41 111.42 293.12 101.86
L 310.18 94.33
L 321.97 100.75
L 333.75 107.17
L 333.75 78.47
L 333.75 49.78
L 321.97 56.19
L 310.18 62.61
L 293.12 55.08
C 271.41 45.53 256.97 40.72 242.19 38.15
C 215.16 33.44 192.71 37.71 153.27 55.08
L 136.21 62.61
L 124.42 56.19
L 112.64 49.78
L 112.64 78.47
L 112.64 107.17
L 124.42 100.75
L 136.21 94.33
L 153.27 101.86
C 192.56 119.19 215.19 123.50 242.19 118.79
M 245.46 19.43
C 248.84 14.62 251.29 10.17 250.88 9.51
C 249.94 7.99 196.47 7.96 195.52 9.50
C 195.12 10.14 197.59 14.67 201.00 19.57
L 207.22 28.47
L 223.26 28.31
L 239.31 28.15
L 245.46 19.43"/>
<path fill="#c57a36" stroke="none" d="
M 200.97 19.51
C 196.44 13.01 195.20 10.25 196.44 9.47
C 198.78 7.99 249.96 8.03 250.88 9.51
C 251.29 10.17 248.84 14.62 245.46 19.43
L 239.31 28.15
L 223.26 28.31
L 207.22 28.47
L 200.97 19.51"/>
<path fill="#c55436" stroke="none" d="
M 203.28 118.74
C 189.64 116.28 173.90 110.96 153.27 101.86
L 136.21 94.33
L 124.42 100.75
L 112.64 107.17
L 112.64 78.47
L 112.64 49.78
L 124.42 56.19
L 136.21 62.61
L 153.27 55.10
C 210.10 30.14 236.45 30.12 293.12 55.08
L 310.18 62.61
L 321.97 56.19
L 333.75 49.78
L 333.75 78.47
L 333.75 107.17
L 321.97 100.75
L 310.18 94.33
L 293.12 101.86
C 253.76 119.19 230.22 123.61 203.28 118.74"/>
<path fill="#964623" stroke="none" d="
M 217.70 590.06
C 218.23 588.40 220.94 580.62 223.75 572.79
L 228.83 558.54
L 234.24 574.06
C 237.21 582.60 239.92 590.36 240.26 591.32
C 240.72 592.62 237.87 593.06 228.81 593.06
C 217.08 593.06 216.77 592.97 217.70 590.06"/>
<path fill="#964623" stroke="none" d="
M 21.21 548.88
C 15.66 546.83 11.12 544.65 11.12 544.03
C 11.12 541.85 30.90 519.44 32.83 519.44
C 34.38 519.44 34.77 522.79 34.77 536.11
C 34.77 548.57 34.32 552.75 33.03 552.68
C 32.07 552.62 26.76 550.92 21.21 548.88"/>
<path fill="#964623" stroke="none" d="
M 410.23 536.11
C 410.23 522.79 410.62 519.44 412.17 519.44
C 414.10 519.44 433.88 541.85 433.88 544.04
C 433.88 545.07 413.85 552.82 411.28 552.79
C 410.71 552.78 410.23 545.28 410.23 536.11"/>
<path fill="#964623" stroke="none" d="
M 214.92 484.50
C 215.45 482.85 218.16 475.07 220.97 467.24
L 226.05 452.99
L 231.46 468.50
C 234.43 477.04 237.14 484.81 237.48 485.76
C 237.94 487.07 235.09 487.50 226.03 487.50
C 214.30 487.50 213.99 487.42 214.92 484.50"/>
<path fill="#964623" stroke="none" d="
M 56.67 452.32
C 52.27 450.67 48.67 448.82 48.67 448.21
C 48.67 446.10 67.20 425.00 69.06 425.00
C 70.50 425.00 70.92 428.43 70.92 440.28
C 70.92 457.97 71.16 457.76 56.67 452.32"/>
<path fill="#964623" stroke="none" d="
M 374.08 440.28
C 374.08 428.43 374.50 425.00 375.94 425.00
C 377.81 425.00 396.33 446.10 396.33 448.21
C 396.33 449.53 380.06 455.56 376.51 455.56
C 374.34 455.56 374.08 453.90 374.08 440.28"/>
<path fill="#964623" stroke="none" d="
M 214.92 431.72
C 215.45 430.07 218.16 422.29 220.97 414.46
L 226.05 400.21
L 231.46 415.72
C 234.43 424.26 237.14 432.03 237.48 432.99
C 237.94 434.29 235.09 434.72 226.03 434.72
C 214.30 434.72 213.99 434.64 214.92 431.72"/>
<path fill="#964623" stroke="none" d="
M 76.83 405.82
C 71.28 403.78 66.75 401.60 66.75 400.97
C 66.75 398.79 86.52 376.39 88.46 376.39
C 90.00 376.39 90.39 379.74 90.39 393.06
C 90.39 405.51 89.95 409.69 88.65 409.62
C 87.69 409.57 82.38 407.86 76.83 405.82"/>
<path fill="#964623" stroke="none" d="
M 354.61 393.06
C 354.61 379.74 355.00 376.39 356.54 376.39
C 358.48 376.39 378.25 398.79 378.25 400.99
C 378.25 402.01 358.23 409.76 355.65 409.74
C 355.08 409.72 354.61 402.22 354.61 393.06"/>
<path fill="#964623" stroke="none" d="
M 213.53 378.94
C 214.06 377.29 216.77 369.51 219.58 361.68
L 224.66 347.43
L 230.06 362.94
C 233.04 371.49 235.75 379.25 236.09 380.21
C 236.55 381.51 233.69 381.94 224.64 381.94
C 212.90 381.94 212.60 381.86 213.53 378.94"/>
<path fill="#964623" stroke="none" d="
M 94.91 358.60
C 89.36 356.56 84.83 354.38 84.83 353.75
C 84.83 351.57 104.60 329.17 106.54 329.17
C 108.08 329.17 108.47 332.51 108.47 345.83
C 108.47 358.29 108.02 362.47 106.73 362.40
C 105.77 362.35 100.46 360.64 94.91 358.60"/>
<path fill="#964623" stroke="none" d="
M 336.53 345.83
C 336.53 332.51 336.92 329.17 338.46 329.17
C 340.40 329.17 360.17 351.57 360.17 353.76
C 360.17 354.79 340.15 362.54 337.57 362.51
C 337.00 362.50 336.53 355.00 336.53 345.83"/>
<path fill="#964623" stroke="none" d="
M 213.53 326.17
C 214.06 324.51 216.77 316.74 219.58 308.90
L 224.66 294.65
L 230.06 310.17
C 233.04 318.71 235.75 326.47 236.09 327.43
C 236.55 328.74 233.69 329.17 224.64 329.17
C 212.90 329.17 212.60 329.08 213.53 326.17"/>
<path fill="#964623" stroke="none" d="
M 114.38 308.60
C 108.83 306.56 104.30 304.38 104.30 303.75
C 104.30 301.57 124.07 279.17 126.00 279.17
C 127.55 279.17 127.94 282.51 127.94 295.83
C 127.94 308.29 127.49 312.47 126.20 312.40
C 125.24 312.35 119.93 310.64 114.38 308.60"/>
<path fill="#964623" stroke="none" d="
M 317.06 295.83
C 317.06 282.51 317.45 279.17 319.00 279.17
C 320.93 279.17 340.70 301.57 340.70 303.76
C 340.70 304.79 320.68 312.54 318.11 312.51
C 317.54 312.50 317.06 305.00 317.06 295.83"/>
<path fill="#964623" stroke="none" d="
M 212.14 273.39
C 212.67 271.74 215.38 263.96 218.19 256.12
L 223.26 241.88
L 228.67 257.39
C 231.65 265.93 234.36 273.69 234.70 274.65
C 235.15 275.96 232.30 276.39 223.25 276.39
C 211.51 276.39 211.21 276.31 212.14 273.39"/>
<path fill="#964623" stroke="none" d="
M 132.46 261.38
C 126.91 259.33 122.38 257.15 122.38 256.53
C 122.38 254.35 142.15 231.94 144.08 231.94
C 145.63 231.94 146.02 235.29 146.02 248.61
C 146.02 261.07 145.57 265.25 144.28 265.18
C 143.32 265.12 138.01 263.42 132.46 261.38"/>
<path fill="#964623" stroke="none" d="
M 298.98 248.61
C 298.98 235.29 299.37 231.94 300.92 231.94
C 302.85 231.94 322.62 254.35 322.62 256.54
C 322.62 257.57 302.60 265.32 300.03 265.29
C 299.46 265.28 298.98 257.78 298.98 248.61"/>
<path fill="#964623" stroke="none" d="
M 211.38 223.03
C 211.38 222.12 222.57 191.12 223.10 190.61
C 223.50 190.21 235.02 221.49 235.02 223.00
C 235.02 223.33 229.70 223.61 223.20 223.61
C 216.69 223.61 211.38 223.35 211.38 223.03"/>
<path fill="#964623" stroke="none" d="
M 151.93 212.76
C 146.38 210.72 141.84 208.53 141.84 207.89
C 141.84 205.67 162.93 181.92 164.20 182.71
C 166.28 183.99 165.85 216.68 163.75 216.57
C 162.79 216.51 157.47 214.81 151.93 212.76"/>
<path fill="#964623" stroke="none" d="
M 279.52 200.08
C 279.52 190.96 280.10 183.14 280.79 182.71
C 282.07 181.92 303.16 205.67 303.16 207.90
C 303.16 208.94 283.17 216.71 280.56 216.68
C 279.99 216.67 279.52 209.21 279.52 200.08"/>
<path fill="#964623" stroke="none" d="
M 210.75 167.83
C 211.28 166.18 213.99 158.40 216.80 150.57
L 221.87 136.32
L 227.28 151.83
C 230.26 160.38 232.97 168.14 233.31 169.10
C 233.76 170.40 230.91 170.83 221.86 170.83
C 210.12 170.83 209.82 170.75 210.75 167.83"/>
<path fill="#964623" stroke="none" d="
M 171.05 165.88
C 166.07 163.99 161.19 162.15 160.19 161.79
C 157.46 160.81 178.74 136.11 182.32 136.11
C 183.01 136.11 183.56 143.61 183.56 152.78
C 183.56 165.22 183.12 169.43 181.82 169.38
C 180.86 169.33 176.03 167.76 171.05 165.88"/>
<path fill="#964623" stroke="none" d="
M 261.44 152.78
C 261.44 139.60 261.84 136.11 263.34 136.11
C 264.39 136.11 270.05 141.75 275.90 148.62
C 286.11 160.61 286.43 161.19 283.38 162.32
C 281.64 162.96 276.60 164.83 272.16 166.47
C 267.74 168.11 263.51 169.44 262.77 169.44
C 261.99 169.44 261.44 162.53 261.44 152.78"/>
</g>
</svg>
