<?xml version="1.0" encoding="UTF-8" standalone="no"?>
<!DOCTYPE svg PUBLIC "-//W3C//DTD SVG 1.1//EN"
"http://www.w3.org/Graphics/SVG/1.1/DTD/svg11.dtd">
<svg width="800px" height="224px"
xmlns="http://www.w3.org/2000/svg" version="1.1">
<g transform="translate(0000, 0000) scale(1.0000, 1.0000)">
<path fill="#000000" stroke="none" d="
M 196.20 220.83
C 186.17 216.90 179.98 210.95 175.45 200.84
L 171.80 192.67
L 156.36 192.12
C 141.57 191.60 140.82 191.73 137.80 195.46
C 127.59 208.05 123.61 211.46 115.56 214.47
C 104.72 218.53 98.43 218.53 87.59 214.47
C 71.69 208.51 61.45 191.54 63.67 174.80
C 64.69 167.07 64.60 166.83 57.61 159.83
C 50.94 153.14 50.14 152.78 44.28 153.77
C 33.69 155.57 19.42 150.54 10.98 142.05
C 2.74 133.75 0.00 126.26 0.00 112.00
C 0.00 97.71 2.72 90.25 11.02 81.90
C 19.95 72.93 35.07 67.93 45.39 70.56
C 51.48 72.11 51.64 72.03 58.00 64.63
C 64.16 57.47 64.41 56.74 63.53 49.28
C 61.53 32.37 71.76 15.46 87.59 9.53
C 98.38 5.49 104.72 5.47 115.37 9.46
C 124.35 12.82 131.84 19.56 136.16 28.16
C 138.28 32.37 139.51 33.25 142.25 32.51
C 144.13 32.01 151.53 31.58 158.68 31.57
L 171.70 31.55
L 175.35 23.27
C 177.37 18.71 181.59 12.70 184.76 9.92
C 190.61 4.76 203.35 0.00 211.24 0.00
C 219.31 0.00 232.57 6.15 238.38 12.59
C 243.40 18.17 248.82 31.22 248.82 37.78
C 248.82 39.66 252.13 41.00 261.81 43.03
C 274.72 45.75 274.82 45.75 277.17 42.47
C 284.80 31.79 290.58 26.74 298.61 23.73
C 309.45 19.67 315.75 19.67 326.58 23.73
C 341.97 29.50 352.76 46.79 350.65 62.29
L 349.72 69.01
L 361.87 74.09
C 368.55 76.87 381.92 83.24 391.59 88.24
L 409.15 97.33
L 423.09 92.75
C 468.85 77.74 508.90 68.02 541.69 63.95
C 566.13 60.92 602.33 60.87 622.05 63.82
C 708.54 76.81 738.93 82.36 765.12 89.99
C 784.38 95.61 792.20 99.35 796.71 105.07
C 800.83 110.33 800.87 113.62 796.82 118.78
C 787.69 130.41 749.50 140.43 659.84 154.69
C 594.50 165.08 560.80 165.03 508.31 154.45
C 484.49 149.64 454.00 141.39 425.54 132.03
L 409.34 126.72
L 388.54 137.21
C 377.09 142.98 364.00 149.21 359.45 151.06
C 351.24 154.39 351.18 154.47 351.18 161.31
C 351.18 171.94 346.90 184.06 340.74 190.90
C 334.65 197.64 321.59 203.49 312.60 203.49
C 299.34 203.49 281.31 192.01 277.95 181.42
C 277.07 178.65 276.02 178.13 272.68 178.84
C 270.38 179.33 264.08 180.57 258.66 181.63
C 251.34 183.05 248.82 184.20 248.82 186.13
C 248.82 192.77 243.43 205.80 238.38 211.41
C 232.13 218.32 219.07 224.05 209.78 223.92
C 206.57 223.89 200.46 222.49 196.20 220.83
M 219.69 211.54
C 223.15 209.94 227.89 206.58 230.24 204.09
C 234.38 199.64 240.19 188.02 238.90 186.72
C 238.55 186.36 228.76 187.21 217.17 188.59
C 205.56 189.97 193.06 191.46 189.39 191.87
L 182.69 192.64
L 184.91 196.88
C 189.46 205.61 202.09 214.36 210.24 214.44
C 211.97 214.46 216.22 213.15 219.69 211.54
M 111.02 205.23
C 117.84 202.06 128.66 191.73 126.52 190.43
C 125.80 190.01 120.94 188.78 115.75 187.70
C 104.69 185.45 80.71 177.02 79.43 174.96
C 77.75 172.21 74.06 173.55 73.15 177.24
C 71.04 185.62 80.77 199.98 92.13 205.23
C 100.02 208.90 103.13 208.90 111.02 205.23
M 320.91 191.58
C 328.68 188.33 335.17 182.04 338.74 174.31
C 341.97 167.34 342.35 164.31 340.36 161.17
C 339.31 159.50 334.27 160.57 315.57 166.42
C 282.41 176.83 285.23 174.99 291.50 182.13
C 296.79 188.16 306.87 193.93 312.25 194.00
C 313.80 194.01 317.70 192.92 320.91 191.58
M 199.34 182.92
C 220.08 180.94 268.57 172.48 281.10 168.66
C 283.70 167.87 293.61 164.99 303.12 162.24
C 339.81 151.69 397.43 126.80 410.24 115.99
L 414.96 112.00
L 410.24 108.01
C 397.43 97.20 339.81 72.31 303.12 61.76
C 293.61 59.01 283.70 56.13 281.10 55.34
C 275.76 53.71 259.32 50.40 233.86 45.83
C 186.49 37.32 143.26 37.35 109.61 45.92
C 94.65 49.72 85.01 54.44 72.19 64.20
C 64.16 70.32 61.65 73.48 56.88 83.48
C 51.45 94.87 51.18 96.23 51.18 112.00
C 51.18 127.77 51.45 129.13 56.88 140.52
C 61.65 150.52 64.16 153.68 72.19 159.80
C 85.02 169.58 94.65 174.26 109.81 178.14
C 134.28 184.41 166.05 186.09 199.34 182.92
M 654.33 147.65
C 700.88 140.30 698.49 140.88 700.54 136.39
C 702.54 131.97 701.87 129.67 695.76 119.97
C 693.32 116.12 691.34 111.72 691.34 110.22
C 691.34 108.70 694.22 104.13 697.73 100.06
C 701.43 95.78 703.75 91.70 703.24 90.37
C 702.76 89.11 702.36 87.20 702.36 86.13
C 702.36 84.82 694.65 83.01 679.13 80.64
C 666.36 78.72 647.06 75.56 636.22 73.65
C 619.87 70.78 610.66 70.20 581.89 70.24
C 544.19 70.29 528.08 72.33 487.80 82.19
C 469.97 86.56 422.77 100.36 420.09 101.98
C 419.45 102.38 420.47 104.79 422.36 107.35
L 425.80 112.00
L 422.36 116.65
C 420.47 119.21 419.45 121.62 420.09 122.02
C 422.38 123.41 468.77 137.10 484.25 140.95
C 528.13 151.86 549.67 154.56 587.40 153.91
C 613.23 153.46 623.86 152.46 654.33 147.65
M 44.52 143.15
C 46.91 141.33 46.88 140.36 44.03 130.17
C 42.33 124.11 40.96 116.31 40.96 112.82
C 40.99 106.94 44.13 90.99 46.47 84.91
C 47.15 83.13 46.35 81.67 44.03 80.42
C 34.33 75.21 13.72 89.62 9.56 104.51
C 7.81 110.74 7.81 113.26 9.56 119.49
C 13.89 135.02 35.75 149.81 44.52 143.15
M 730.88 134.10
C 765.62 126.73 787.94 119.08 791.48 113.36
C 793.54 110.00 784.63 104.38 769.57 99.55
C 757.62 95.72 711.97 85.18 707.29 85.18
C 706.61 85.18 706.35 87.20 706.71 89.66
C 707.23 93.15 705.95 95.77 700.87 101.65
C 693.53 110.15 693.54 111.83 701.21 122.57
C 704.91 127.77 705.73 130.24 704.98 134.01
C 703.78 140.02 703.02 140.02 730.88 134.10
M 341.06 60.87
C 343.39 51.54 330.66 35.13 318.19 31.39
C 309.72 28.84 299.92 32.59 291.97 41.39
C 286.58 47.36 286.35 48.00 289.10 49.07
C 295.35 51.46 336.30 64.36 338.16 64.52
C 339.23 64.60 340.52 62.96 341.06 60.87
M 90.11 44.25
C 96.79 41.60 107.07 38.33 112.94 37.01
C 129.23 33.32 128.83 33.77 122.02 26.77
C 113.59 18.14 104.27 14.70 95.98 17.19
C 87.64 19.69 78.91 27.61 75.20 36.03
C 72.03 43.19 72.54 51.47 76.05 49.93
C 77.10 49.47 83.42 46.91 90.11 44.25
M 238.49 34.31
C 235.17 23.52 226.47 14.32 216.47 11.03
C 206.08 7.59 191.04 15.21 184.96 26.96
L 182.69 31.36
L 189.39 32.15
C 193.06 32.59 204.22 33.95 214.17 35.18
C 240.71 38.44 239.78 38.49 238.49 34.31"/>
<path fill="#000000" stroke="none" d="
M 133.95 162.49
C 127.51 161.77 116.17 159.20 108.76 156.78
C 97.76 153.22 93.76 150.98 87.06 144.64
C 73.56 131.88 69.51 116.18 74.96 97.69
C 76.91 91.08 79.51 87.12 86.38 80.32
C 93.98 72.80 97.17 70.91 108.24 67.29
C 125.01 61.84 147.02 59.55 171.65 60.70
C 196.85 61.87 208.90 63.48 250.39 71.18
C 297.56 79.91 367.04 100.71 376.76 108.99
L 380.31 112.00
L 376.76 115.01
C 367.02 123.31 297.53 144.09 250.39 152.82
C 231.78 156.26 211.21 159.81 204.72 160.71
C 187.89 163.03 147.75 164.04 133.95 162.49
M 202.36 152.07
C 243.01 147.18 286.36 137.21 339.76 120.47
C 352.11 116.59 362.20 112.79 362.20 112.00
C 362.20 110.36 328.41 99.52 293.70 90.04
C 227.67 72.00 159.45 64.55 124.19 71.54
C 111.06 74.14 95.70 81.14 90.24 87.01
C 79.01 99.08 79.01 124.92 90.24 136.99
C 94.79 141.88 109.65 149.35 119.18 151.53
C 140.14 156.33 165.57 156.48 202.36 152.07"/>
<path fill="#d47231" stroke="none" d="
M 201.57 212.03
C 195.04 209.19 187.98 202.78 184.91 196.88
L 182.69 192.64
L 189.39 191.87
C 193.06 191.46 205.56 189.97 217.17 188.59
C 228.76 187.21 238.55 186.36 238.90 186.72
C 240.19 188.02 234.38 199.64 230.24 204.09
C 225.54 209.09 215.13 214.49 210.24 214.44
C 208.50 214.42 204.61 213.34 201.57 212.03"/>
<path fill="#d47231" stroke="none" d="
M 92.13 205.23
C 80.77 199.98 71.04 185.62 73.15 177.24
C 74.06 173.55 77.75 172.21 79.43 174.96
C 80.71 177.02 104.69 185.45 115.75 187.70
C 120.94 188.78 125.80 190.01 126.52 190.43
C 128.66 191.73 117.84 202.06 111.02 205.23
C 103.13 208.90 100.02 208.90 92.13 205.23"/>
<path fill="#d47231" stroke="none" d="
M 303.13 191.09
C 299.67 189.50 294.43 185.48 291.50 182.13
C 285.23 174.99 282.41 176.83 315.57 166.42
C 339.69 158.87 341.70 158.80 341.67 165.63
C 341.65 169.89 335.92 180.54 331.31 184.88
C 326.44 189.44 316.82 194.04 312.25 194.00
C 310.71 193.98 306.61 192.67 303.13 191.09"/>
<path fill="#d47231" stroke="none" d="
M 31.50 143.06
C 28.46 142.10 22.76 138.08 18.82 134.15
C 4.82 120.16 4.82 103.86 18.82 89.84
C 27.23 81.43 38.24 77.31 44.03 80.42
C 46.35 81.67 47.15 83.13 46.47 84.91
C 44.13 90.99 40.99 106.94 40.96 112.82
C 40.96 116.31 42.33 124.11 44.03 130.17
C 46.88 140.36 46.91 141.33 44.52 143.15
C 41.48 145.46 39.01 145.44 31.50 143.06"/>
<path fill="#d47231" stroke="none" d="
M 314.17 57.29
C 302.05 53.40 290.77 49.71 289.10 49.07
C 286.35 48.00 286.58 47.36 291.97 41.39
C 299.92 32.59 309.72 28.84 318.19 31.39
C 326.54 33.88 335.26 41.80 338.98 50.23
C 342.11 57.33 341.69 64.80 338.16 64.52
C 337.09 64.42 326.30 61.17 314.17 57.29"/>
<path fill="#d47231" stroke="none" d="
M 73.17 46.82
C 70.79 37.34 83.40 20.96 95.98 17.19
C 104.27 14.70 113.59 18.14 122.02 26.77
C 128.83 33.77 129.23 33.32 112.94 37.01
C 104.31 38.95 87.87 44.71 76.05 49.93
C 74.94 50.42 73.73 49.09 73.17 46.82"/>
<path fill="#d47231" stroke="none" d="
M 214.17 35.18
C 204.22 33.95 193.06 32.59 189.39 32.15
L 182.69 31.36
L 184.96 26.96
C 190.99 15.30 206.31 7.67 216.77 11.12
C 226.49 14.34 235.20 23.65 238.49 34.31
C 239.78 38.49 240.71 38.44 214.17 35.18"/>
<path fill="#d74000" stroke="none" d="
M 133.28 182.78
C 117.94 180.79 98.46 175.57 89.48 171.01
C 85.24 168.87 77.46 163.82 72.19 159.80
C 64.16 153.68 61.65 150.52 56.88 140.52
C 51.45 129.13 51.18 127.77 51.18 112.00
C 51.18 96.23 51.45 94.87 56.88 83.48
C 61.65 73.48 64.16 70.32 72.19 64.20
C 84.99 54.45 94.65 49.74 109.64 45.90
C 142.77 37.43 186.90 37.40 233.86 45.83
C 259.32 50.40 275.76 53.71 281.10 55.34
C 283.70 56.13 293.61 59.01 303.12 61.76
C 339.81 72.31 397.43 97.20 410.24 108.01
L 414.96 112.00
L 410.24 115.99
C 397.43 126.80 339.81 151.69 303.12 162.24
C 293.61 164.99 283.70 167.87 281.10 168.66
C 268.57 172.48 220.08 180.94 199.34 182.92
C 179.32 184.83 148.76 184.77 133.28 182.78
M 204.72 160.71
C 211.21 159.81 231.78 156.26 250.39 152.82
C 297.53 144.09 367.02 123.31 376.76 115.01
L 380.31 112.00
L 376.76 108.99
C 367.04 100.71 297.56 79.91 250.39 71.18
C 208.90 63.48 196.85 61.87 171.65 60.70
C 147.02 59.55 125.01 61.84 108.24 67.29
C 97.17 70.91 93.98 72.80 86.38 80.32
C 79.51 87.12 76.91 91.08 74.96 97.69
C 69.51 116.18 73.56 131.88 87.06 144.64
C 93.76 150.98 97.76 153.22 108.76 156.78
C 116.17 159.20 127.51 161.77 133.95 162.49
C 147.75 164.04 187.89 163.03 204.72 160.71"/>
<path fill="#ff7231" stroke="none" d="
M 140.16 154.56
C 122.02 152.81 113.24 150.63 102.65 145.25
C 87.45 137.54 81.89 128.63 81.89 112.00
C 81.89 95.26 87.43 86.48 102.93 78.61
C 128.65 65.54 177.91 65.69 246.46 79.00
C 282.88 86.08 362.20 108.69 362.20 112.00
C 362.20 113.64 328.41 124.48 293.70 133.96
C 237.24 149.39 174.11 157.86 140.16 154.56"/>
<path fill="#ff981d" stroke="none" d="
M 541.39 152.26
C 511.13 147.95 483.01 141.44 444.88 129.89
C 431.89 125.94 420.74 122.40 420.09 122.02
C 419.45 121.62 420.47 119.21 422.36 116.65
L 425.80 112.00
L 422.36 107.35
C 420.47 104.79 419.45 102.38 420.09 101.98
C 422.77 100.36 469.97 86.56 487.80 82.19
C 527.70 72.42 544.17 70.34 581.89 70.26
C 610.74 70.21 619.83 70.78 636.22 73.65
C 647.06 75.56 666.36 78.72 679.13 80.64
C 694.65 83.01 702.36 84.82 702.36 86.13
C 702.36 87.20 702.76 89.11 703.24 90.37
C 703.75 91.70 701.43 95.78 697.73 100.06
C 694.22 104.13 691.34 108.70 691.34 110.22
C 691.34 111.72 693.32 116.12 695.76 119.97
C 701.87 129.67 702.54 131.97 700.54 136.39
C 698.49 140.88 700.88 140.30 654.33 147.65
C 623.86 152.46 613.23 153.46 587.40 153.91
C 566.94 154.26 551.59 153.72 541.39 152.26"/>
<path fill="#f1efd4" stroke="none" d="
M 704.98 134.01
C 705.73 130.24 704.91 127.77 701.21 122.57
C 693.57 111.86 693.53 110.14 700.72 101.81
C 705.06 96.81 707.09 92.98 707.09 89.82
C 707.09 87.27 707.42 85.18 707.81 85.18
C 708.20 85.18 718.96 87.36 731.72 90.01
C 771.32 98.26 795.07 107.54 791.48 113.36
C 787.94 119.08 765.62 126.73 730.88 134.10
C 703.02 140.02 703.78 140.02 704.98 134.01"/>
</g>
</svg>
