<?xml version="1.0" encoding="UTF-8" standalone="no"?>
<!DOCTYPE svg PUBLIC "-//W3C//DTD SVG 1.1//EN"
"http://www.w3.org/Graphics/SVG/1.1/DTD/svg11.dtd">
<svg width="370px" height="600px"
xmlns="http://www.w3.org/2000/svg" version="1.1">
<g transform="translate(0000, 0000) scale(1.0000, 1.0000)">
<path fill="#000000" stroke="none" d="
M 321.05 597.90
C 319.88 596.74 312.83 583.79 305.37 569.11
L 291.81 542.45
L 267.84 554.42
C 246.19 565.25 243.25 566.40 237.27 566.40
C 228.35 566.40 225.84 563.95 225.84 555.26
C 225.84 551.44 226.59 547.86 227.74 546.23
C 228.82 544.68 240.50 538.09 254.77 530.95
L 279.90 518.39
L 263.69 485.99
L 247.46 453.60
L 223.44 465.60
C 201.75 476.45 198.80 477.60 192.82 477.60
C 183.91 477.60 181.40 475.15 181.40 466.46
C 181.40 462.64 182.14 459.06 183.29 457.43
C 184.38 455.88 196.05 449.28 210.35 442.14
L 235.49 429.58
L 232.91 424.49
C 231.49 421.69 229.93 419.12 229.44 418.80
C 228.94 418.48 222.10 405.68 214.22 390.37
L 199.90 362.56
L 176.81 374.47
C 155.81 385.32 153.11 386.40 147.14 386.40
C 138.23 386.40 135.75 383.95 135.75 375.16
C 135.75 370.68 136.43 367.86 138.01 365.86
C 139.24 364.28 150.86 357.60 163.81 351.00
C 176.76 344.40 187.37 338.59 187.38 338.09
C 187.39 337.60 180.38 323.16 171.79 306.01
L 156.18 274.84
L 132.05 286.82
C 110.42 297.55 107.24 298.80 101.41 298.80
C 92.10 298.80 89.65 296.15 90.34 286.76
C 90.61 282.94 91.59 278.89 92.51 277.79
C 93.44 276.67 105.44 270.14 119.18 263.28
L 144.17 250.78
L 138.62 239.69
C 135.57 233.59 127.96 218.77 121.73 206.76
L 110.39 184.91
L 86.33 196.86
C 64.77 207.55 61.58 208.80 55.76 208.80
C 46.97 208.80 44.45 206.32 44.45 197.66
C 44.45 193.84 45.19 190.26 46.35 188.63
C 47.43 187.08 59.10 180.49 73.38 173.35
L 98.51 160.79
L 82.30 128.41
L 66.08 96.04
L 41.95 108.02
C 20.33 118.75 17.14 120.00 11.32 120.00
C 2.52 120.00 0.00 117.52 0.00 108.86
C 0.00 105.04 0.74 101.46 1.90 99.83
C 2.98 98.28 14.64 91.69 28.92 84.56
L 54.02 72.01
L 40.83 45.52
C 29.34 22.45 27.63 18.24 27.63 13.03
C 27.63 9.73 28.16 6.06 28.81 4.85
C 30.90 0.95 40.66 -1.14 47.82 0.78
C 50.03 1.37 53.58 7.44 64.94 30.14
L 79.27 58.76
L 103.41 46.78
C 124.69 36.22 128.29 34.80 133.81 34.80
C 142.45 34.80 144.41 36.53 145.09 44.81
C 145.50 49.81 145.14 52.36 143.66 54.60
C 142.34 56.62 133.24 61.85 116.49 70.22
L 91.30 82.81
L 107.52 115.21
L 123.75 147.60
L 147.76 135.60
C 169.46 124.75 172.40 123.60 178.38 123.60
C 187.29 123.60 189.81 126.05 189.81 134.74
C 189.81 138.56 189.06 142.14 187.91 143.77
C 186.83 145.32 175.14 151.92 160.83 159.07
L 135.66 171.65
L 152.82 205.08
L 169.98 238.51
L 193.70 226.66
C 215.12 215.95 218.06 214.80 224.03 214.80
C 232.98 214.80 235.45 217.24 235.45 226.04
C 235.45 230.56 234.77 233.33 233.17 235.34
C 231.92 236.92 220.03 243.59 206.74 250.18
C 193.47 256.76 182.60 262.57 182.60 263.09
C 182.60 263.59 189.62 278.05 198.21 295.21
L 213.84 326.40
L 237.86 314.40
C 259.55 303.55 262.50 302.40 268.48 302.40
C 277.39 302.40 279.90 304.85 279.90 313.54
C 279.90 317.36 279.16 320.94 278.00 322.57
C 276.92 324.12 265.25 330.71 250.96 337.85
L 225.83 350.42
L 231.38 361.51
C 234.43 367.61 242.04 382.44 248.28 394.46
L 259.64 416.33
L 283.58 404.36
C 305.20 393.55 308.15 392.40 314.13 392.40
C 323.04 392.40 325.55 394.85 325.55 403.54
C 325.55 407.36 324.81 410.94 323.65 412.57
C 322.57 414.12 310.90 420.71 296.62 427.85
L 271.49 440.41
L 287.71 472.81
L 303.94 505.20
L 327.95 493.20
C 349.65 482.35 352.59 481.20 358.58 481.20
C 367.49 481.20 370.00 483.65 370.00 492.34
C 370.00 496.16 369.26 499.74 368.10 501.37
C 367.02 502.92 355.36 509.51 341.08 516.64
L 315.98 529.19
L 329.17 555.68
C 340.64 578.71 342.37 582.97 342.37 588.14
C 342.37 596.70 338.87 600.00 329.82 600.00
C 325.06 600.00 322.55 599.40 321.05 597.90
M 334.69 592.18
C 336.93 589.94 337.49 588.46 336.88 586.48
C 336.41 585.01 330.14 572.00 322.92 557.58
C 314.06 539.86 309.92 530.32 310.16 528.18
C 310.50 525.34 313.25 523.62 335.76 512.23
C 362.86 498.50 366.66 495.58 364.25 490.27
C 361.52 484.30 358.78 484.99 331.59 498.58
C 314.38 507.19 305.05 511.21 302.91 510.97
C 300.04 510.64 298.04 507.29 282.63 477.00
C 270.32 452.77 265.62 442.39 265.81 439.80
C 266.08 436.38 267.36 435.55 291.31 423.43
C 318.42 409.70 322.21 406.78 319.80 401.47
C 317.07 395.50 314.33 396.19 287.29 409.72
C 262.36 422.17 257.38 423.90 254.96 420.90
C 254.30 420.07 246.09 404.44 236.72 386.14
C 224.43 362.16 219.78 351.94 220.05 349.54
C 220.40 346.49 222.66 345.07 245.67 333.43
C 272.77 319.70 276.56 316.78 274.15 311.47
C 271.42 305.50 268.68 306.19 241.50 319.78
C 224.28 328.39 214.95 332.41 212.81 332.17
C 209.94 331.84 207.94 328.49 192.54 298.20
C 181.88 277.22 175.56 263.47 175.73 261.60
C 175.95 258.97 179.11 257.02 201.22 245.83
C 228.32 232.10 232.11 229.18 229.70 223.87
C 226.97 217.90 224.23 218.59 197.19 232.12
C 183.23 239.09 170.49 244.80 168.88 244.80
C 166.25 244.80 164.07 241.15 147.77 209.38
C 134.80 184.10 129.69 173.02 129.97 170.68
C 130.30 167.71 132.73 166.19 155.57 154.63
C 182.67 140.90 186.47 137.98 184.05 132.67
C 181.32 126.70 178.59 127.39 151.40 140.98
C 134.19 149.59 124.85 153.61 122.71 153.37
C 119.84 153.04 117.85 149.69 102.43 119.40
C 90.12 95.17 85.42 84.79 85.62 82.20
C 85.88 78.78 87.17 77.95 111.12 65.83
C 137.91 52.26 141.53 49.50 139.48 44.14
C 137.09 37.88 134.70 38.47 107.01 52.18
C 89.88 60.66 80.02 64.90 78.06 64.62
C 75.49 64.26 73.09 60.25 60.55 35.50
C 44.92 4.66 43.78 3.23 37.25 6.60
C 30.73 9.96 31.10 11.46 46.23 41.90
C 55.58 60.73 60.16 71.24 59.88 73.22
C 59.52 75.78 55.88 78.01 34.24 88.97
C 19.26 96.56 8.11 102.96 6.78 104.72
C 4.04 108.41 5.02 112.40 9.15 114.29
C 11.75 115.46 15.04 114.16 38.20 102.68
C 55.43 94.16 65.34 89.90 67.30 90.18
C 69.88 90.54 72.55 95.08 87.37 124.20
C 99.68 148.43 104.38 158.81 104.19 161.40
C 103.92 164.82 102.64 165.65 78.69 177.77
C 51.69 191.44 47.79 194.44 50.18 199.66
C 52.91 205.66 55.24 205.08 82.53 191.54
C 107.84 178.99 112.65 177.34 115.04 180.30
C 115.70 181.13 123.91 196.76 133.28 215.06
C 145.57 239.04 150.22 249.26 149.95 251.66
C 149.60 254.70 147.28 256.16 123.73 268.20
C 103.44 278.57 97.57 282.11 96.34 284.68
C 95.23 287.04 95.14 288.60 96.04 290.29
C 98.83 295.50 101.44 294.78 128.44 281.42
C 145.57 272.94 155.44 268.70 157.39 268.98
C 159.98 269.34 162.64 273.88 177.46 303.00
C 188.12 323.98 194.44 337.73 194.27 339.60
C 194.05 342.22 190.86 344.23 169.43 355.31
C 142.99 368.98 139.10 372.05 141.50 377.33
C 144.22 383.29 146.95 382.57 173.18 369.08
C 186.73 362.10 199.21 356.40 200.92 356.40
C 203.75 356.40 205.28 358.86 218.68 384.90
C 226.75 400.57 233.75 413.68 234.24 414.00
C 234.73 414.32 236.60 417.48 238.37 421.00
C 244.09 432.32 244.36 432.04 215.63 446.57
C 188.53 460.30 184.74 463.22 187.15 468.53
C 189.88 474.50 192.62 473.81 219.80 460.22
C 237.02 451.61 246.35 447.59 248.49 447.83
C 251.36 448.16 253.35 451.51 268.77 481.80
C 281.08 506.03 285.78 516.41 285.58 519.00
C 285.32 522.42 284.04 523.25 260.08 535.37
C 232.98 549.10 229.18 552.02 231.60 557.33
C 234.33 563.30 237.06 562.61 264.25 549.02
C 281.46 540.41 290.80 536.39 292.94 536.63
C 295.78 536.96 297.62 539.93 310.26 564.60
C 318.04 579.78 325.31 592.87 326.42 593.70
C 329.36 595.91 331.32 595.55 334.69 592.18"/>
<path fill="#f3c198" stroke="none" d="
M 326.42 593.70
C 325.31 592.87 318.04 579.78 310.26 564.60
C 297.62 539.93 295.78 536.96 292.94 536.63
C 290.80 536.39 281.46 540.41 264.25 549.02
C 237.06 562.61 234.33 563.30 231.60 557.33
C 229.18 552.02 232.98 549.10 260.08 535.37
C 284.04 523.25 285.32 522.42 285.58 519.00
C 285.78 516.41 281.08 506.03 268.77 481.80
C 253.35 451.51 251.36 448.16 248.49 447.83
C 246.35 447.59 237.02 451.61 219.80 460.22
C 192.62 473.81 189.88 474.50 187.15 468.53
C 184.74 463.22 188.53 460.30 215.63 446.57
C 244.36 432.04 244.09 432.32 238.37 421.00
C 236.60 417.48 234.73 414.32 234.24 414.00
C 233.75 413.68 226.75 400.57 218.68 384.90
C 205.28 358.86 203.75 356.40 200.92 356.40
C 199.21 356.40 186.73 362.10 173.18 369.08
C 146.95 382.57 144.22 383.29 141.50 377.33
C 139.10 372.05 142.99 368.98 169.43 355.31
C 190.86 344.23 194.05 342.22 194.27 339.60
C 194.44 337.73 188.12 323.98 177.46 303.00
C 162.64 273.88 159.98 269.34 157.39 268.98
C 155.44 268.70 145.57 272.94 128.44 281.42
C 101.44 294.78 98.83 295.50 96.04 290.29
C 95.14 288.60 95.23 287.04 96.34 284.68
C 97.57 282.11 103.44 278.57 123.73 268.20
C 147.28 256.16 149.60 254.70 149.95 251.66
C 150.22 249.26 145.57 239.04 133.28 215.06
C 123.91 196.76 115.70 181.13 115.04 180.30
C 112.65 177.34 107.84 178.99 82.53 191.54
C 55.24 205.08 52.91 205.66 50.18 199.66
C 47.79 194.44 51.69 191.44 78.69 177.77
C 102.64 165.65 103.92 164.82 104.19 161.40
C 104.38 158.81 99.68 148.43 87.37 124.20
C 72.55 95.08 69.88 90.54 67.30 90.18
C 65.34 89.90 55.43 94.16 38.20 102.68
C 15.04 114.16 11.75 115.46 9.15 114.29
C 5.02 112.40 4.04 108.41 6.78 104.72
C 8.11 102.96 19.26 96.56 34.24 88.97
C 55.88 78.01 59.52 75.78 59.88 73.22
C 60.16 71.24 55.58 60.73 46.23 41.90
C 35.49 20.28 32.36 12.94 33.01 10.88
C 34.03 7.67 40.39 4.70 43.67 5.92
C 45.18 6.48 51.07 16.79 60.55 35.50
C 73.09 60.25 75.49 64.26 78.06 64.62
C 80.02 64.90 89.88 60.66 107.01 52.18
C 134.70 38.47 137.09 37.88 139.48 44.14
C 141.53 49.50 137.91 52.26 111.12 65.83
C 87.17 77.95 85.88 78.78 85.62 82.20
C 85.42 84.79 90.12 95.17 102.43 119.40
C 117.85 149.69 119.84 153.04 122.71 153.37
C 124.85 153.61 134.19 149.59 151.40 140.98
C 178.59 127.39 181.32 126.70 184.05 132.67
C 186.47 137.98 182.67 140.90 155.57 154.63
C 132.73 166.19 130.30 167.71 129.97 170.68
C 129.69 173.02 134.80 184.10 147.77 209.38
C 164.07 241.15 166.25 244.80 168.88 244.80
C 170.49 244.80 183.23 239.09 197.19 232.12
C 224.23 218.59 226.97 217.90 229.70 223.87
C 232.11 229.18 228.32 232.10 201.22 245.83
C 179.11 257.02 175.95 258.97 175.73 261.60
C 175.56 263.47 181.88 277.22 192.54 298.20
C 207.94 328.49 209.94 331.84 212.81 332.17
C 214.95 332.41 224.28 328.39 241.50 319.78
C 268.68 306.19 271.42 305.50 274.15 311.47
C 276.56 316.78 272.77 319.70 245.67 333.43
C 222.66 345.07 220.40 346.49 220.05 349.54
C 219.78 351.94 224.43 362.16 236.72 386.14
C 246.09 404.44 254.30 420.07 254.96 420.90
C 257.38 423.90 262.36 422.17 287.29 409.72
C 314.33 396.19 317.07 395.50 319.80 401.47
C 322.21 406.78 318.42 409.70 291.31 423.43
C 267.36 435.55 266.08 436.38 265.81 439.80
C 265.62 442.39 270.32 452.77 282.63 477.00
C 298.04 507.29 300.04 510.64 302.91 510.97
C 305.05 511.21 314.38 507.19 331.59 498.58
C 358.78 484.99 361.52 484.30 364.25 490.27
C 366.66 495.58 362.86 498.50 335.76 512.23
C 313.25 523.62 310.50 525.34 310.16 528.18
C 309.92 530.32 314.06 539.86 322.92 557.58
C 330.14 572.00 336.41 585.01 336.88 586.48
C 337.49 588.46 336.93 589.94 334.69 592.18
C 331.32 595.55 329.36 595.91 326.42 593.70"/>
</g>
</svg>
