<?xml version="1.0" encoding="UTF-8" standalone="no"?>
<!DOCTYPE svg PUBLIC "-//W3C//DTD SVG 1.1//EN"
"http://www.w3.org/Graphics/SVG/1.1/DTD/svg11.dtd">
<svg width="600px" height="558px"
xmlns="http://www.w3.org/2000/svg" version="1.1">
<g transform="translate(0000, 0000) scale(1.0000, 1.0000)">
<path fill="#000000" stroke="none" d="
M 265.51 556.35
C 226.43 551.81 185.72 524.43 159.66 485.19
C 148.92 469.03 135.50 441.16 126.12 415.53
L 118.79 395.50
L 61.50 394.76
C -3.99 393.91 0.00 394.84 0.00 380.37
C 0.00 374.47 0.74 371.75 2.96 369.53
C 5.82 366.66 7.90 366.56 59.26 366.56
C 88.59 366.56 112.59 366.05 112.59 365.45
C 112.59 364.84 110.96 357.62 108.99 349.43
C 105.24 333.94 99.66 317.56 91.47 297.94
L 86.67 286.46
L 46.30 286.44
C 7.91 286.42 5.78 286.27 2.96 283.45
C 0.71 281.20 0.00 278.51 0.00 272.32
C 0.00 266.13 0.71 263.45 2.96 261.19
C 5.81 258.34 7.90 258.22 58.52 258.22
C 107.63 258.22 111.11 258.05 111.10 255.63
C 111.07 250.70 100.89 209.49 96.25 195.48
C 93.69 187.75 90.34 179.33 88.79 176.79
L 85.97 172.15
L 45.94 172.15
C 7.90 172.15 5.78 172.00 2.96 169.18
C -1.24 164.97 -1.24 151.13 2.96 146.92
C 5.82 144.06 7.90 143.95 59.10 143.95
L 112.28 143.95
L 110.73 137.82
C 109.87 134.45 103.66 117.25 96.90 99.61
L 84.64 67.52
L 44.43 66.78
C -1.69 65.94 0.00 66.49 0.00 52.40
C 0.00 46.50 0.74 43.78 2.96 41.55
C 5.88 38.63 7.90 38.59 127.20 38.59
L 248.49 38.59
L 251.17 31.54
C 254.67 22.36 266.41 10.02 275.30 6.19
C 298.81 -3.95 324.79 0.31 340.40 16.86
C 344.37 21.06 348.83 27.66 350.31 31.54
L 352.99 38.59
L 473.54 38.59
C 592.10 38.59 594.12 38.63 597.04 41.55
C 599.26 43.78 600.00 46.50 600.00 52.40
C 600.00 66.49 601.69 65.94 555.57 66.78
L 515.36 67.52
L 503.10 99.61
C 496.34 117.25 490.13 134.45 489.27 137.82
L 487.72 143.95
L 540.90 143.95
C 592.10 143.95 594.18 144.06 597.04 146.92
C 599.29 149.18 600.00 151.86 600.00 158.05
C 600.00 164.24 599.29 166.93 597.04 169.18
C 594.22 172.00 592.10 172.15 554.06 172.15
L 514.03 172.15
L 511.21 176.79
C 509.66 179.33 506.31 187.75 503.75 195.48
C 499.11 209.49 488.93 250.70 488.90 255.63
C 488.89 258.05 492.37 258.22 541.48 258.22
C 592.10 258.22 594.19 258.34 597.04 261.19
C 599.29 263.45 600.00 266.13 600.00 272.32
C 600.00 278.51 599.29 281.20 597.04 283.45
C 594.22 286.27 592.09 286.42 553.70 286.44
L 513.33 286.46
L 508.53 297.94
C 500.34 317.56 494.76 333.94 491.01 349.43
C 489.04 357.62 487.41 364.84 487.41 365.45
C 487.41 366.05 511.41 366.56 540.74 366.56
C 592.10 366.56 594.18 366.66 597.04 369.53
C 599.26 371.75 600.00 374.47 600.00 380.37
C 600.00 394.84 603.99 393.91 538.50 394.76
L 481.21 395.50
L 473.88 415.53
C 450.70 478.86 423.59 515.96 382.96 539.87
C 369.38 547.86 349.04 554.56 332.52 556.46
C 317.10 558.22 281.08 558.18 265.51 556.35
M 342.73 543.23
C 374.99 534.92 409.84 508.31 431.27 475.64
C 442.43 458.61 461.23 418.19 467.33 398.09
L 468.34 394.76
L 300.00 394.76
L 131.66 394.76
L 132.67 398.09
C 135.82 408.51 148.07 437.69 154.95 451.15
C 175.27 491.03 197.85 515.24 230.65 532.36
C 255.27 545.21 269.01 547.80 307.41 546.83
C 324.76 546.39 334.22 545.43 342.73 543.23
M 592.30 385.55
C 594.58 383.27 594.58 378.05 592.30 375.76
C 589.70 373.16 10.30 373.16 7.70 375.76
C 5.42 378.05 5.42 383.27 7.70 385.55
C 10.30 388.15 589.70 388.15 592.30 385.55
M 477.66 357.64
C 479.01 345.74 486.06 320.94 493.33 302.55
C 496.59 294.32 499.26 287.33 499.26 287.00
C 499.26 286.69 409.60 286.42 300.00 286.42
C 190.41 286.42 100.74 286.69 100.74 287.00
C 100.74 287.33 103.41 294.32 106.67 302.55
C 113.94 320.94 120.99 345.74 122.34 357.64
L 123.35 366.56
L 300.00 366.56
L 476.65 366.56
L 477.66 357.64
M 592.30 277.22
C 594.58 274.93 594.58 269.71 592.30 267.42
C 589.70 264.83 10.30 264.83 7.70 267.42
C 6.73 268.40 5.93 270.60 5.93 272.32
C 5.93 274.04 6.73 276.24 7.70 277.22
C 10.30 279.82 589.70 279.82 592.30 277.22
M 477.78 252.66
C 479.88 239.35 489.63 199.89 494.09 186.62
L 498.96 172.15
L 300.00 172.15
L 101.04 172.15
L 105.91 186.62
C 110.37 199.89 120.12 239.35 122.22 252.66
L 123.10 258.22
L 300.00 258.22
L 476.90 258.22
L 477.78 252.66
M 592.30 162.95
C 594.58 160.66 594.58 155.44 592.30 153.15
C 589.70 150.56 10.30 150.56 7.70 153.15
C 5.42 155.44 5.42 160.66 7.70 162.95
C 10.30 165.54 589.70 165.54 592.30 162.95
M 477.08 137.64
C 477.97 134.17 479.24 129.33 479.91 126.89
C 480.84 123.41 491.59 94.85 501.53 69.38
C 502.49 66.92 492.30 66.78 300.00 66.78
C 107.70 66.78 97.51 66.92 98.47 69.38
C 108.41 94.85 119.16 123.41 120.09 126.89
C 120.76 129.33 122.03 134.17 122.92 137.64
L 124.56 143.95
L 300.00 143.95
L 475.44 143.95
L 477.08 137.64
M 592.30 57.58
C 594.58 55.30 594.58 50.07 592.30 47.79
C 589.70 45.19 10.30 45.19 7.70 47.79
C 5.42 50.07 5.42 55.30 7.70 57.58
C 10.30 60.18 589.70 60.18 592.30 57.58
M 337.78 37.01
C 337.78 36.15 334.41 31.88 330.30 27.51
C 317.07 13.49 301.67 9.54 286.37 16.24
C 278.99 19.46 263.70 33.47 263.70 37.01
C 263.70 38.08 275.64 38.59 300.74 38.59
C 325.84 38.59 337.78 38.08 337.78 37.01"/>
<path fill="#ef7a5f" stroke="none" d="
M 263.70 37.01
C 263.70 36.15 267.07 31.88 271.19 27.51
C 289.35 8.27 312.13 8.27 330.30 27.51
C 334.41 31.88 337.78 36.15 337.78 37.01
C 337.78 38.08 325.84 38.59 300.74 38.59
C 275.64 38.59 263.70 38.08 263.70 37.01"/>
<path fill="#ef907a" stroke="none" d="
M 273.19 546.20
C 257.87 544.42 247.02 540.90 230.65 532.36
C 197.85 515.24 175.27 491.03 154.95 451.15
C 148.07 437.69 135.82 408.51 132.67 398.09
L 131.66 394.76
L 300.00 394.76
L 468.34 394.76
L 467.33 398.09
C 461.23 418.19 442.43 458.61 431.27 475.64
C 409.84 508.31 374.99 534.92 342.73 543.23
C 329.50 546.65 291.11 548.29 273.19 546.20"/>
<path fill="#ef907a" stroke="none" d="
M 7.70 385.55
C 6.73 384.57 5.93 382.38 5.93 380.66
C 5.93 378.94 6.73 376.74 7.70 375.76
C 10.30 373.16 589.70 373.16 592.30 375.76
C 594.58 378.05 594.58 383.27 592.30 385.55
C 589.70 388.15 10.30 388.15 7.70 385.55"/>
<path fill="#ef907a" stroke="none" d="
M 122.34 357.64
C 120.99 345.74 113.94 320.94 106.67 302.55
C 103.41 294.32 100.74 287.33 100.74 287.00
C 100.74 286.69 190.41 286.42 300.00 286.42
C 409.60 286.42 499.26 286.69 499.26 287.00
C 499.26 287.33 496.59 294.32 493.33 302.55
C 486.06 320.94 479.01 345.74 477.66 357.64
L 476.65 366.56
L 300.00 366.56
L 123.35 366.56
L 122.34 357.64"/>
<path fill="#ef907a" stroke="none" d="
M 7.70 277.22
C 5.42 274.93 5.42 269.71 7.70 267.42
C 10.30 264.83 589.70 264.83 592.30 267.42
C 594.58 269.71 594.58 274.93 592.30 277.22
C 589.70 279.82 10.30 279.82 7.70 277.22"/>
<path fill="#ef907a" stroke="none" d="
M 122.22 252.66
C 120.12 239.35 110.37 199.89 105.91 186.62
L 101.04 172.15
L 300.00 172.15
L 498.96 172.15
L 494.09 186.62
C 489.63 199.89 479.88 239.35 477.78 252.66
L 476.90 258.22
L 300.00 258.22
L 123.10 258.22
L 122.22 252.66"/>
<path fill="#ef907a" stroke="none" d="
M 7.70 162.95
C 5.42 160.66 5.42 155.44 7.70 153.15
C 10.30 150.56 589.70 150.56 592.30 153.15
C 594.58 155.44 594.58 160.66 592.30 162.95
C 589.70 165.54 10.30 165.54 7.70 162.95"/>
<path fill="#ef907a" stroke="none" d="
M 122.92 137.64
C 122.03 134.17 120.76 129.33 120.09 126.89
C 119.16 123.41 108.41 94.85 98.47 69.38
C 97.51 66.92 107.70 66.78 300.00 66.78
C 492.30 66.78 502.49 66.92 501.53 69.38
C 491.59 94.85 480.84 123.41 479.91 126.89
C 479.24 129.33 477.97 134.17 477.08 137.64
L 475.44 143.95
L 300.00 143.95
L 124.56 143.95
L 122.92 137.64"/>
<path fill="#ef907a" stroke="none" d="
M 7.70 57.58
C 4.98 54.85 5.59 49.26 8.79 47.55
C 13.20 45.17 589.93 45.41 592.30 47.79
C 594.58 50.07 594.58 55.30 592.30 57.58
C 589.70 60.18 10.30 60.18 7.70 57.58"/>
</g>
</svg>
