<?xml version="1.0" encoding="UTF-8" standalone="no"?>
<!DOCTYPE svg PUBLIC "-//W3C//DTD SVG 1.1//EN"
"http://www.w3.org/Graphics/SVG/1.1/DTD/svg11.dtd">
<svg width="600px" height="423px"
xmlns="http://www.w3.org/2000/svg" version="1.1">
<g transform="translate(0000, 0000) scale(1.0000, 1.0000)">
<path fill="#000000" stroke="none" d="
M 517.36 420.44
C 498.66 413.77 486.30 400.37 470.92 370.11
C 463.19 354.89 454.78 341.03 450.35 336.19
L 447.71 333.32
L 441.71 338.28
C 426.47 350.91 394.32 367.83 376.99 372.37
C 332.23 384.10 257.17 365.72 194.19 327.61
C 164.61 309.71 138.29 287.82 126.57 271.37
C 105.03 241.11 103.58 206.15 122.35 169.47
C 126.48 161.39 129.87 154.48 129.87 154.12
C 129.87 151.69 118.21 149.36 100.82 148.31
C 58.09 145.71 37.79 142.06 25.25 134.72
C 8.90 125.16 -2.49 101.73 1.04 84.90
C 3.73 72.01 9.64 66.33 24.83 61.98
L 32.13 59.90
L 30.25 51.75
C 25.62 31.76 34.90 11.05 51.83 3.53
C 60.16 -0.17 74.45 -0.92 83.31 1.87
C 98.69 6.72 106.96 15.90 122.68 45.53
C 136.81 72.20 146.62 84.65 165.05 99.33
L 171.00 104.08
L 176.09 99.79
C 188.45 89.32 205.05 80.24 220.83 75.31
C 228.81 72.81 233.17 72.30 245.45 72.43
C 263.77 72.63 275.62 75.57 307.97 87.93
C 387.35 118.31 437.83 158.08 463.13 210.20
C 471.75 227.99 476.19 243.35 478.22 262.51
L 479.79 277.32
L 486.32 279.14
C 489.92 280.14 497.25 281.33 502.60 281.77
C 540.01 284.88 572.49 292.33 587.73 301.27
C 603.90 310.77 604.13 339.21 588.21 359.35
C 581.74 367.54 573.97 371.38 563.68 371.50
L 554.99 371.59
L 558.05 378.55
C 562.36 388.34 563.04 395.19 560.53 403.84
C 558.06 412.33 553.16 418.72 547.18 421.23
C 541.19 423.73 525.44 423.31 517.36 420.44
M 543.75 413.95
C 547.55 412.24 549.95 409.97 551.69 406.51
C 556.32 397.22 556.23 393.96 551.01 381.17
C 546.35 369.74 545.99 369.26 537.71 363.90
C 527.95 357.55 525.38 354.85 526.44 352.08
C 527.66 348.88 530.55 349.75 540.71 356.41
C 552.90 364.38 559.90 366.49 567.43 364.46
C 582.70 360.33 597.12 334.43 592.29 319.77
C 590.08 313.05 586.29 308.79 579.34 305.28
C 565.74 298.36 536.06 291.70 506.49 288.92
C 478.61 286.30 466.83 282.63 448.05 270.77
C 442.23 267.09 339.32 208.81 257.79 163.02
C 183.82 121.47 176.23 117.07 165.61 109.52
C 143.86 94.08 129.53 76.34 113.04 44.40
C 102.78 24.51 94.49 14.98 82.96 9.80
C 76.13 6.73 73.77 6.29 67.21 6.89
C 53.23 8.15 41.17 18.68 36.94 33.28
C 35.23 39.14 35.14 41.58 36.39 47.61
C 38.10 55.91 41.66 60.48 51.30 66.74
C 55.47 69.46 57.79 71.88 57.79 73.54
C 57.79 77.87 53.52 77.26 44.56 71.62
L 35.99 66.24
L 27.42 68.86
C 16.64 72.16 13.66 74.28 10.17 81.11
C 2.26 96.56 13.91 120.57 34.13 130.49
C 46.92 136.78 62.43 139.36 102.60 141.88
C 124.39 143.26 125.74 143.51 135.71 147.97
C 141.43 150.54 168.03 164.77 194.81 179.61
C 290.00 232.39 365.95 274.59 391.56 288.95
C 405.84 296.97 423.22 306.45 430.16 310.03
C 439.92 315.04 444.53 318.40 450.51 324.79
C 460.78 335.80 464.00 340.69 476.48 364.30
C 488.47 386.99 493.64 394.57 502.35 402.28
C 516.68 414.93 532.08 419.28 543.75 413.95
M 373.55 365.88
C 378.64 364.40 387.29 361.16 392.77 358.66
C 406.34 352.46 430.68 337.62 437.01 331.70
C 443.40 325.71 443.44 325.76 424.68 315.92
C 417.18 311.98 396.73 300.73 379.22 290.92
C 361.71 281.11 324.61 260.44 296.75 244.99
C 268.90 229.53 222.14 203.57 192.86 187.30
L 139.61 157.73
L 136.12 161.83
C 131.09 167.74 121.25 188.05 118.94 197.24
C 108.60 238.34 126.26 271.41 177.92 307.71
C 243.03 353.45 328.45 378.84 373.55 365.88
M 472.70 272.35
C 472.65 267.24 469.94 251.25 467.57 242.00
C 452.43 182.96 396.83 131.13 312.99 97.91
C 279.73 84.74 256.45 78.09 243.57 78.09
C 230.05 78.09 203.22 89.16 186.49 101.62
L 177.53 108.30
L 183.90 112.28
C 187.39 114.47 205.45 124.74 224.03 135.11
C 281.18 167.04 439.16 256.31 447.40 261.35
C 457.22 267.35 470.48 274.56 471.75 274.60
C 472.29 274.61 472.71 273.60 472.70 272.35"/>
<path fill="#efc07a" stroke="none" d="
M 524.68 415.27
C 518.17 413.28 508.30 407.52 502.35 402.28
C 493.64 394.57 488.47 386.99 476.48 364.30
C 464.00 340.69 460.78 335.80 450.51 324.79
C 444.53 318.40 439.92 315.04 430.16 310.03
C 423.22 306.45 405.84 296.97 391.56 288.95
C 365.95 274.59 290.00 232.39 194.81 179.61
C 168.03 164.77 141.43 150.54 135.71 147.97
C 125.74 143.51 124.39 143.26 102.60 141.88
C 62.43 139.36 46.92 136.78 34.13 130.49
C 24.26 125.65 16.18 117.41 11.53 107.46
C 6.69 97.08 6.26 88.75 10.17 81.11
C 13.66 74.28 16.64 72.16 27.42 68.86
L 35.99 66.24
L 44.56 71.62
C 53.52 77.26 57.79 77.87 57.79 73.54
C 57.79 71.88 55.47 69.46 51.30 66.74
C 41.66 60.48 38.10 55.91 36.39 47.61
C 32.48 28.75 47.31 9.07 67.00 7.00
C 73.91 6.29 75.95 6.64 82.96 9.79
C 94.49 14.98 102.78 24.51 113.04 44.40
C 129.53 76.34 143.86 94.08 165.61 109.52
C 176.23 117.07 183.82 121.47 257.79 163.02
C 339.32 208.81 442.23 267.09 448.05 270.77
C 466.83 282.63 478.61 286.30 506.49 288.92
C 536.06 291.70 565.74 298.36 579.34 305.28
C 586.29 308.79 590.08 313.05 592.29 319.77
C 597.12 334.43 582.70 360.33 567.43 364.46
C 559.90 366.49 552.90 364.38 540.71 356.41
C 530.55 349.75 527.66 348.88 526.44 352.08
C 525.38 354.85 527.95 357.55 537.71 363.90
C 545.99 369.26 546.35 369.74 551.01 381.17
C 556.23 393.96 556.32 397.22 551.69 406.51
C 547.68 414.53 535.32 418.54 524.68 415.27"/>
<path fill="#a52a2a" stroke="none" d="
M 323.38 367.76
C 275.78 360.89 222.05 338.71 177.92 307.71
C 118.32 265.85 102.62 225.92 126.77 177.66
C 129.99 171.22 134.19 164.10 136.12 161.83
L 139.61 157.73
L 192.86 187.30
C 222.14 203.57 268.90 229.53 296.75 244.99
C 324.61 260.44 361.71 281.11 379.22 290.92
C 396.73 300.73 417.18 311.98 424.68 315.92
C 443.44 325.76 443.40 325.71 437.01 331.70
C 430.68 337.62 406.34 352.46 392.77 358.66
C 371.00 368.60 349.09 371.47 323.38 367.76"/>
<path fill="#a52a2a" stroke="none" d="
M 462.99 270.34
C 458.70 268.01 451.69 263.97 447.40 261.35
C 439.16 256.31 281.18 167.04 224.03 135.11
C 205.45 124.74 187.39 114.47 183.90 112.28
L 177.53 108.30
L 186.49 101.66
C 203.29 89.23 222.61 80.81 239.10 78.76
C 252.78 77.04 274.55 82.69 312.99 97.91
C 406.12 134.81 461.58 191.91 471.39 260.96
C 472.95 272.02 473.03 274.64 471.75 274.60
C 471.22 274.57 467.27 272.66 462.99 270.34"/>
</g>
</svg>
