<?xml version="1.0" encoding="UTF-8" standalone="no"?>
<!DOCTYPE svg PUBLIC "-//W3C//DTD SVG 1.1//EN"
"http://www.w3.org/Graphics/SVG/1.1/DTD/svg11.dtd">
<svg width="300px" height="600px"
xmlns="http://www.w3.org/2000/svg" version="1.1">
<g transform="translate(0000, 0000) scale(1.0000, 1.0000)">
<path fill="#000000" stroke="none" d="
M 139.97 597.57
C 139.07 595.90 138.64 513.04 138.63 338.85
L 138.59 82.56
L 135.59 75.25
C 125.51 50.75 104.51 30.13 83.94 24.57
C 76.99 22.69 74.56 22.55 68.60 23.75
C 57.44 25.99 45.67 32.42 37.11 40.93
C 23.05 54.91 20.07 66.69 26.86 81.30
C 30.57 89.27 37.45 97.35 43.03 100.27
C 46.12 101.90 46.63 101.77 49.84 98.60
C 54.43 94.06 57.92 86.21 57.96 80.36
C 58.00 73.97 61.49 70.59 68.07 70.59
C 76.73 70.59 78.15 73.21 78.14 89.18
C 78.13 100.74 77.70 103.66 75.16 109.08
C 71.12 117.78 66.23 121.53 55.49 124.15
C 46.11 126.45 41.86 126.24 30.76 122.94
C 1.03 114.09 -10.15 57.43 12.01 27.96
C 23.22 13.05 40.99 4.27 66.24 1.17
C 77.63 -0.21 79.97 -0.13 91.69 2.24
C 98.80 3.68 107.58 6.23 111.23 7.92
C 124.74 14.16 138.09 26.29 147.05 40.47
L 150.72 46.29
L 155.68 37.95
C 168.44 16.54 184.60 6.78 214.44 2.47
C 225.88 0.82 236.81 1.78 253.99 5.95
C 271.24 10.12 286.97 22.36 293.70 36.84
C 303.38 57.62 300.98 91.18 288.61 108.26
C 282.86 116.21 276.33 120.24 265.07 122.81
C 255.45 125.02 254.68 125.02 244.64 122.85
C 233.05 120.34 227.74 117.37 223.45 111.03
C 220.85 107.17 220.59 105.30 220.59 91.20
C 220.59 72.71 221.68 70.59 231.30 70.59
C 239.09 70.59 242.02 73.64 242.02 81.74
C 242.02 90.44 244.08 95.32 249.10 98.41
C 254.53 101.77 257.62 101.05 263.84 95.00
C 269.72 89.26 274.00 82.05 276.40 73.74
C 277.92 68.53 277.95 66.52 276.66 62.13
C 270.18 40.26 243.89 22.29 221.41 24.33
C 209.99 25.36 195.05 33.23 186.06 42.92
C 179.16 50.38 167.42 68.85 163.36 78.62
C 161.53 83.04 161.34 107.39 161.34 339.32
C 161.34 513.24 160.93 595.90 160.03 597.57
C 158.94 599.61 157.35 600.00 150.00 600.00
C 142.65 600.00 141.06 599.61 139.97 597.57
M 154.99 592.53
C 155.89 590.86 156.30 508.20 156.30 334.27
C 156.30 102.35 156.49 78.00 158.32 73.58
C 162.37 63.82 174.11 45.35 181.00 37.90
C 189.57 28.65 203.43 21.21 216.45 18.88
C 232.95 15.93 254.66 22.92 267.88 35.43
C 275.95 43.06 282.04 54.38 283.16 63.77
C 284.95 78.86 273.82 100.02 261.28 105.40
C 255.71 107.79 252.57 107.60 246.06 104.45
C 239.58 101.31 236.97 96.47 236.97 87.57
C 236.97 80.21 235.21 76.89 231.30 76.89
C 226.94 76.89 225.63 80.32 225.63 91.75
C 225.63 100.05 226.11 102.44 228.49 105.98
C 232.53 111.95 238.06 115.31 246.96 117.20
C 265.99 121.25 282.11 111.43 290.08 90.93
C 292.40 84.97 292.85 81.18 292.92 67.44
C 292.99 51.58 292.88 50.77 288.98 42.52
C 281.82 27.26 267.04 15.67 248.32 10.60
C 236.91 7.51 212.61 7.50 202.37 10.58
C 183.23 16.31 170.32 26.71 159.53 45.06
C 151.61 58.53 149.74 58.75 142.92 47.08
C 133.01 30.09 114.91 15.13 97.74 9.73
C 84.49 5.56 63.67 5.89 49.69 10.49
C 31.25 16.56 16.01 29.96 9.73 45.66
C 5.81 55.44 5.94 79.45 9.96 89.80
C 18.52 111.79 34.42 122.60 52.32 118.59
C 65.31 115.69 73.07 104.90 73.10 89.72
C 73.11 80.72 71.61 76.89 68.07 76.89
C 65.04 76.89 63.04 80.47 63.00 85.94
C 62.94 94.37 55.00 106.26 48.30 107.94
C 41.08 109.75 28.21 99.64 22.54 87.68
C 16.68 75.33 15.59 68.19 18.15 58.92
C 23.84 38.39 41.79 23.19 66.34 18.10
C 76.02 16.08 76.51 16.11 86.75 18.89
C 109.70 25.15 130.08 44.56 140.63 70.21
L 143.63 77.52
L 143.67 333.81
C 143.68 508.00 144.11 590.86 145.01 592.53
C 145.84 594.08 147.64 594.96 150.00 594.96
C 152.36 594.96 154.16 594.08 154.99 592.53"/>
<path fill="#f47a5e" stroke="none" d="
M 145.01 592.53
C 144.11 590.86 143.68 508.00 143.67 333.81
L 143.63 77.52
L 140.63 70.21
C 130.08 44.56 109.70 25.15 86.75 18.89
C 76.51 16.11 76.02 16.08 66.34 18.10
C 41.79 23.19 23.84 38.39 18.15 58.92
C 15.59 68.19 16.68 75.33 22.54 87.68
C 28.21 99.64 41.08 109.75 48.30 107.94
C 55.00 106.26 62.94 94.37 63.00 85.94
C 63.04 80.47 65.04 76.89 68.07 76.89
C 71.61 76.89 73.11 80.72 73.10 89.72
C 73.07 104.90 65.31 115.69 52.32 118.59
C 34.42 122.60 18.52 111.79 9.96 89.80
C 5.94 79.45 5.81 55.44 9.73 45.66
C 16.02 29.94 31.27 16.53 49.69 10.51
C 63.74 5.94 84.59 5.58 97.74 9.73
C 114.91 15.13 133.01 30.09 142.92 47.08
C 149.74 58.75 151.61 58.53 159.53 45.06
C 170.32 26.71 183.23 16.31 202.37 10.58
C 212.61 7.50 236.91 7.51 248.32 10.60
C 267.04 15.67 281.82 27.26 288.98 42.52
C 292.88 50.77 292.99 51.58 292.92 67.44
C 292.85 81.18 292.40 84.97 290.08 90.93
C 282.11 111.43 265.99 121.25 246.96 117.20
C 238.06 115.31 232.53 111.95 228.49 105.98
C 226.11 102.44 225.63 100.05 225.63 91.75
C 225.63 80.32 226.94 76.89 231.30 76.89
C 235.21 76.89 236.97 80.21 236.97 87.57
C 236.97 96.47 239.58 101.31 246.06 104.45
C 252.57 107.60 255.71 107.79 261.28 105.40
C 273.82 100.02 284.95 78.86 283.16 63.77
C 280.65 42.66 261.16 24.66 235.01 19.32
C 226.70 17.62 223.85 17.56 216.45 18.88
C 203.43 21.21 189.57 28.65 181.00 37.90
C 174.11 45.35 162.37 63.82 158.32 73.58
C 156.49 78.00 156.30 102.35 156.30 334.27
C 156.30 508.20 155.89 590.86 154.99 592.53
C 154.16 594.08 152.36 594.96 150.00 594.96
C 147.64 594.96 145.84 594.08 145.01 592.53"/>
</g>
</svg>
