<?xml version="1.0" encoding="UTF-8" standalone="no"?>
<!DOCTYPE svg PUBLIC "-//W3C//DTD SVG 1.1//EN"
"http://www.w3.org/Graphics/SVG/1.1/DTD/svg11.dtd">
<svg width="600px" height="190px"
xmlns="http://www.w3.org/2000/svg" version="1.1">
<g transform="translate(0000, 0000) scale(1.0000, 1.0000)">
<path fill="#000000" stroke="none" d="
M 1.24 188.29
C -0.78 185.84 0.14 182.58 3.31 180.99
C 10.47 177.41 19.08 165.30 23.25 152.90
C 28.51 137.30 28.18 119.14 22.30 101.10
C 20.45 95.43 18.12 91.65 12.95 85.92
C 4.05 76.06 1.09 68.45 0.30 53.44
C -1.12 26.03 9.36 10.70 34.96 2.78
C 41.70 0.69 52.39 0.59 281.66 0.59
C 540.30 0.59 529.28 0.33 547.34 6.84
C 570.20 15.06 586.62 32.59 595.48 58.19
C 599.37 69.44 599.38 69.52 599.40 92.62
C 599.41 113.30 599.11 116.80 596.67 125.28
C 587.50 157.19 567.72 178.45 539.05 187.19
C 532.28 189.25 519.54 189.37 267.31 189.69
C 35.89 189.99 2.51 189.82 1.24 188.29
M 526.22 178.74
C 584.02 167.78 610.46 90.14 573.30 40.53
C 566.34 31.23 557.92 24.53 546.15 18.89
C 526.56 9.51 546.90 10.22 286.98 9.80
C 78.31 9.46 54.18 9.61 46.50 11.32
C 27.81 15.45 16.20 24.69 11.82 38.89
C 8.88 48.47 8.88 51.31 11.83 60.73
C 16.11 74.30 24.84 83.14 40.11 89.34
L 46.75 92.03
L 271.47 92.62
C 483.83 93.18 496.26 93.34 497.50 95.30
C 498.45 96.82 498.45 97.93 497.50 99.45
C 496.26 101.42 484.06 101.53 268.51 101.53
L 40.83 101.53
L 33.74 98.94
C 29.83 97.53 26.54 96.46 26.43 96.59
C 26.30 96.71 27.30 100.55 28.64 105.11
C 30.53 111.52 31.11 116.91 31.18 128.84
C 31.27 142.80 30.96 145.20 27.98 153.78
C 26.17 159.01 22.07 167.15 18.88 171.89
L 13.07 180.50
L 265.01 180.50
C 482.63 180.50 518.21 180.26 526.22 178.74"/>
<path fill="#f47a5e" stroke="none" d="
M 18.88 171.89
C 22.07 167.15 26.17 159.01 27.98 153.78
C 30.96 145.20 31.27 142.80 31.18 128.84
C 31.11 116.91 30.53 111.52 28.64 105.11
C 27.30 100.55 26.30 96.71 26.43 96.59
C 26.54 96.46 29.83 97.53 33.74 98.94
L 40.83 101.53
L 268.51 101.53
C 484.06 101.53 496.26 101.42 497.50 99.45
C 498.45 97.93 498.45 96.82 497.50 95.30
C 496.26 93.34 483.83 93.18 271.47 92.62
L 46.75 92.03
L 40.11 89.34
C 24.84 83.14 16.11 74.30 11.83 60.73
C 8.88 51.31 8.88 48.47 11.82 38.89
C 14.90 28.93 21.37 21.47 31.12 16.66
C 46.60 9.04 32.39 9.42 287.33 9.82
C 546.86 10.22 526.56 9.51 546.15 18.89
C 557.92 24.53 566.34 31.23 573.30 40.53
C 605.05 82.91 590.84 149.61 545.25 172.15
C 527.25 181.06 546.11 180.50 265.01 180.50
L 13.07 180.50
L 18.88 171.89"/>
</g>
</svg>
