<?xml version="1.0" encoding="UTF-8" standalone="no"?>
<!DOCTYPE svg PUBLIC "-//W3C//DTD SVG 1.1//EN"
"http://www.w3.org/Graphics/SVG/1.1/DTD/svg11.dtd">
<svg width="600px" height="190px"
xmlns="http://www.w3.org/2000/svg" version="1.1">
<g transform="translate(0000, 0000) scale(1.0000, 1.0000)">
<path fill="#000000" stroke="none" d="
M 81.66 189.24
C 80.02 189.00 74.70 188.21 69.82 187.48
C 38.17 182.79 15.46 163.44 4.52 131.81
C 0.63 120.55 0.62 120.48 0.60 97.38
C 0.59 76.70 0.89 73.20 3.33 64.72
C 12.50 32.81 32.30 11.54 60.95 2.81
C 67.72 0.75 80.59 0.63 332.40 0.31
C 534.17 0.04 597.15 0.28 598.44 1.37
C 600.82 3.35 599.89 7.42 596.70 9.01
C 589.54 12.58 580.93 24.69 576.75 37.10
C 571.49 52.70 571.82 70.86 577.70 88.90
C 579.55 94.57 581.88 98.35 587.05 104.08
C 595.95 113.94 598.91 121.55 599.70 136.56
C 600.92 159.96 593.37 174.54 575.63 183.03
C 560.38 190.33 574.20 189.98 318.34 189.82
C 189.80 189.74 83.29 189.48 81.66 189.24
M 555.51 178.15
C 573.64 173.51 583.89 165.00 588.18 151.11
C 591.12 141.53 591.12 138.69 588.17 129.27
C 583.89 115.70 575.16 106.86 559.89 100.66
L 553.25 97.97
L 328.53 97.38
C 116.17 96.82 103.74 96.66 102.50 94.70
C 101.55 93.18 101.55 92.07 102.50 90.55
C 103.74 88.58 115.94 88.47 331.49 88.47
L 559.17 88.47
L 566.26 91.06
C 570.17 92.47 573.46 93.54 573.57 93.41
C 573.70 93.29 572.70 89.45 571.36 84.89
C 569.47 78.48 568.89 73.09 568.82 61.16
C 568.73 47.20 569.04 44.80 572.02 36.22
C 573.83 30.99 577.93 22.85 581.12 18.11
L 586.93 9.50
L 334.99 9.50
C 117.37 9.50 81.79 9.74 73.78 11.26
C 15.98 22.22 -10.46 99.86 26.70 149.47
C 39.10 166.02 57.78 175.99 82.37 179.15
C 86.85 179.73 193.10 180.26 318.45 180.35
C 541.91 180.50 546.54 180.45 555.51 178.15"/>
<path fill="#f47a5e" stroke="none" d="
M 82.37 179.15
C 57.78 175.99 39.10 166.02 26.70 149.47
C -5.05 107.09 9.14 40.49 54.75 17.81
C 72.36 9.06 54.51 9.58 335.18 9.54
L 586.93 9.50
L 581.12 18.11
C 577.93 22.85 573.83 30.99 572.02 36.22
C 569.04 44.80 568.73 47.20 568.82 61.16
C 568.89 73.09 569.47 78.48 571.36 84.89
C 572.70 89.45 573.70 93.29 573.57 93.41
C 573.46 93.54 570.17 92.47 566.26 91.06
L 559.17 88.47
L 331.49 88.47
C 115.94 88.47 103.74 88.58 102.50 90.55
C 101.55 92.07 101.55 93.18 102.50 94.70
C 103.74 96.66 116.17 96.82 328.53 97.38
L 553.25 97.97
L 559.89 100.66
C 575.16 106.86 583.89 115.70 588.17 129.27
C 591.12 138.69 591.12 141.53 588.18 151.11
C 583.89 165.00 573.64 173.51 555.51 178.15
C 546.54 180.45 541.91 180.50 318.45 180.35
C 193.10 180.26 86.85 179.73 82.37 179.15"/>
</g>
</svg>
