<?xml version="1.0" encoding="UTF-8" standalone="no"?>
<!DOCTYPE svg PUBLIC "-//W3C//DTD SVG 1.1//EN"
"http://www.w3.org/Graphics/SVG/1.1/DTD/svg11.dtd">
<svg width="600px" height="195px"
xmlns="http://www.w3.org/2000/svg" version="1.1">
<g transform="translate(0000, 0000) scale(1.0000, 1.0000)">
<path fill="#000000" stroke="none" d="
M 37.65 193.70
C 21.01 189.78 6.50 175.19 1.75 157.63
C -1.42 145.85 -0.30 129.90 4.41 119.92
C 7.66 113.06 17.86 101.07 20.44 101.07
C 23.76 101.07 29.64 77.88 29.64 64.80
C 29.64 41.60 17.80 15.96 4.06 9.37
C -0.19 7.34 -1.14 3.07 2.24 1.26
C 3.94 0.34 86.08 0.07 284.23 0.29
C 561.09 0.59 563.89 0.62 569.38 2.98
C 582.24 8.50 591.43 17.92 596.68 30.91
C 598.91 36.43 599.32 39.77 599.36 52.32
C 599.41 66.61 599.26 67.49 595.62 75.19
C 593.04 80.66 589.41 85.59 584.18 90.73
C 577.26 97.54 576.21 99.22 573.30 108.28
C 569.23 120.90 568.67 139.09 572.02 150.35
C 576.47 165.35 586.14 180.04 594.74 184.87
C 599.73 187.66 601.08 190.48 598.77 193.28
C 597.52 194.77 561.06 194.99 319.72 194.88
C 163.36 194.81 40.15 194.30 37.65 193.70
M 582.19 179.84
C 576.12 172.94 570.04 161.12 567.28 150.90
C 564.14 139.23 564.58 120.89 568.29 108.43
C 570.77 100.08 570.92 98.70 569.31 99.51
C 568.26 100.04 451.07 100.75 308.89 101.08
C 65.93 101.65 49.97 101.82 43.36 103.79
C 22.70 110.00 10.13 124.70 10.13 142.68
C 10.13 159.77 24.76 178.04 43.03 183.76
C 47.10 185.04 98.12 185.35 317.58 185.40
L 587.16 185.49
L 582.19 179.84
M 39.13 93.73
C 43.28 92.58 102.02 92.11 302.37 91.60
L 560.28 90.96
L 566.96 87.67
C 575.13 83.65 582.57 75.80 586.74 66.80
C 595.45 48.02 584.91 23.16 564.17 13.55
L 556.72 10.11
L 284.64 9.80
L 12.56 9.49
L 16.25 13.36
C 33.21 31.22 38.55 62.30 30.06 93.77
C 29.42 96.13 29.66 96.48 31.54 95.89
C 32.79 95.51 36.19 94.54 39.13 93.73"/>
<path fill="#f47a5e" stroke="none" d="
M 43.03 183.76
C 35.35 181.36 28.35 176.78 22.11 170.09
C 10.10 157.22 6.84 141.92 13.22 128.41
C 19.26 115.63 28.17 108.36 43.36 103.79
C 49.97 101.82 65.93 101.65 308.89 101.08
C 451.07 100.75 568.26 100.04 569.31 99.51
C 570.92 98.70 570.77 100.08 568.29 108.43
C 564.58 120.89 564.14 139.23 567.28 150.90
C 570.04 161.12 576.12 172.94 582.19 179.84
L 587.16 185.49
L 317.58 185.40
C 98.12 185.35 47.10 185.04 43.03 183.76"/>
<path fill="#f47a5e" stroke="none" d="
M 30.06 93.77
C 35.37 74.10 35.45 54.85 30.32 38.52
C 27.42 29.31 20.35 16.63 16.21 13.23
C 15.12 12.33 14.23 11.13 14.23 10.55
C 14.23 9.94 128.45 9.62 285.47 9.80
L 556.72 10.11
L 564.17 13.55
C 584.91 23.16 595.45 48.02 586.74 66.80
C 582.57 75.80 575.13 83.65 566.96 87.67
L 560.28 90.96
L 302.37 91.60
C 102.02 92.11 43.28 92.58 39.13 93.73
C 36.19 94.54 32.79 95.51 31.54 95.89
C 29.66 96.48 29.42 96.13 30.06 93.77"/>
</g>
</svg>
