<?xml version="1.0" encoding="UTF-8" standalone="no"?>
<!DOCTYPE svg PUBLIC "-//W3C//DTD SVG 1.1//EN"
"http://www.w3.org/Graphics/SVG/1.1/DTD/svg11.dtd">
<svg width="445px" height="600px"
xmlns="http://www.w3.org/2000/svg" version="1.1">
<g transform="translate(0000, 0000) scale(1.0000, 1.0000)">
<path fill="#000000" stroke="none" d="
M 252.63 594.62
C 228.37 588.27 192.32 570.83 170.63 554.97
C 134.63 528.62 91.04 480.91 64.74 439.02
C -2.20 332.41 -19.01 174.13 24.37 58.93
C 41.63 13.07 54.66 -3.00 71.15 1.12
C 80.50 3.48 82.89 9.88 88.62 47.71
C 97.15 104.04 108.89 129.75 141.86 164.22
C 167.68 191.22 198.32 211.29 269.41 247.74
C 331.39 279.54 352.27 292.18 377.18 313.07
C 422.16 350.81 447.60 407.04 444.01 460.71
C 441.25 502.02 427.74 531.43 399.13 558.38
C 379.19 577.18 351.63 592.10 327.58 597.05
C 306.51 601.42 274.67 600.37 252.63 594.62
M 329.38 580.04
C 366.24 570.24 399.35 543.80 415.11 511.61
C 433.31 474.40 431.92 422.46 411.60 381.40
C 399.67 357.24 372.14 327.32 344.02 307.90
C 332.57 299.97 295.74 279.35 262.20 262.07
C 193.92 226.88 178.29 217.50 151.97 196.12
C 104.49 157.50 81.49 114.67 72.30 47.71
C 67.04 9.27 60.72 10.85 43.11 54.96
C 21.45 109.34 14.32 153.56 16.97 216.96
C 21.79 332.22 61.60 428.14 135.38 502.29
C 165.27 532.34 187.54 549.19 216.52 563.73
C 253.70 582.35 297.08 588.62 329.38 580.04"/>
<path fill="#f47a5e" stroke="none" d="
M 255.39 578.54
C 214.40 567.83 176.77 543.91 135.38 502.29
C 77.45 444.05 39.73 370.53 23.62 284.41
C 18.87 259.10 17.75 242.89 17.64 199.55
C 17.48 139.10 20.88 115.77 35.89 74.06
C 49.33 36.75 56.72 22.77 63.00 22.77
C 67.45 22.77 68.73 25.29 70.56 37.50
C 71.76 45.59 75.06 63.67 77.88 77.68
C 87.12 123.51 112.43 163.96 151.97 196.12
C 178.29 217.50 193.92 226.88 262.20 262.07
C 333.67 298.90 358.09 315.05 383.45 342.19
C 407.09 367.47 419.67 392.22 425.35 424.69
C 433.88 473.20 421.95 513.88 389.96 545.38
C 354.82 579.99 306.41 591.91 255.39 578.54"/>
</g>
</svg>
