<?xml version="1.0" encoding="UTF-8" standalone="no"?>
<!DOCTYPE svg PUBLIC "-//W3C//DTD SVG 1.1//EN"
"http://www.w3.org/Graphics/SVG/1.1/DTD/svg11.dtd">
<svg width="418px" height="600px"
xmlns="http://www.w3.org/2000/svg" version="1.1">
<g transform="translate(0000, 0000) scale(1.0000, 1.0000)">
<path fill="#000000" stroke="none" d="
M 344.85 594.24
C 222.14 563.07 94.74 456.99 34.43 335.82
C 25.44 317.76 14.42 290.90 9.97 276.12
C 2.69 251.91 1.85 244.57 1.70 201.49
C 1.49 146.12 5.28 127.07 24.60 86.57
C 46.70 40.30 84.32 10.45 130.57 2.51
C 150.63 -0.93 152.18 -0.75 188.25 10.12
C 227.63 21.97 251.61 33.22 270.15 48.48
C 289.08 64.09 306.72 90.96 315.47 117.43
C 322.73 139.40 323.53 146.18 323.65 186.57
C 323.74 218.21 321.65 246.66 316.55 283.58
C 306.63 355.25 306.51 402.81 316.25 432.48
C 326.19 462.81 345.48 490.90 384.65 532.00
C 419.37 568.42 422.48 574.36 413.43 587.28
C 404.30 600.33 378.92 602.90 344.85 594.24
M 398.23 576.18
C 400.06 574.36 390.80 562.75 372.68 544.12
C 325.74 495.94 308.54 470.33 296.69 431.19
C 289.14 406.12 289.73 346.51 298.15 285.07
C 301.77 258.81 305.53 221.85 306.54 202.99
C 310.39 130.27 289.49 80.84 241.84 50.18
C 221.66 37.19 163.74 19.58 141.61 19.70
C 90.97 20.03 43.59 66.12 25.44 132.84
C 18.63 157.79 16.24 212.60 20.75 240.48
C 39.47 356.69 147.20 486.90 276.18 549.25
C 306.66 564.00 335.47 574.72 356.79 579.22
C 370.53 582.12 394.02 580.39 398.23 576.18"/>
<path fill="#f47a5e" stroke="none" d="
M 356.79 579.22
C 335.47 574.72 306.66 564.00 276.18 549.25
C 147.20 486.90 39.47 356.69 20.75 240.48
C 16.24 212.60 18.63 157.79 25.44 132.84
C 43.59 66.15 90.17 20.72 141.22 19.91
C 163.68 19.55 221.12 36.84 241.84 50.18
C 289.49 80.84 310.39 130.27 306.54 202.99
C 305.53 221.85 301.77 258.81 298.15 285.07
C 289.73 346.51 289.14 406.12 296.69 431.19
C 308.54 470.33 325.74 495.94 372.68 544.12
C 390.80 562.75 400.06 574.36 398.23 576.18
C 394.02 580.39 370.53 582.12 356.79 579.22"/>
</g>
</svg>
