<?xml version="1.0" encoding="UTF-8" standalone="no"?>
<!DOCTYPE svg PUBLIC "-//W3C//DTD SVG 1.1//EN"
"http://www.w3.org/Graphics/SVG/1.1/DTD/svg11.dtd">
<svg width="600px" height="436px"
xmlns="http://www.w3.org/2000/svg" version="1.1">
<g transform="translate(0000, 0000) scale(1.0000, 1.0000)">
<path fill="#000000" stroke="none" d="
M 449.40 433.57
C 440.52 432.37 419.55 429.20 402.79 426.54
C 342.56 416.98 317.25 415.30 281.49 418.50
C 254.24 420.94 252.69 420.93 249.91 418.14
C 248.65 416.88 247.04 412.70 246.32 408.86
C 245.61 405.01 243.14 393.50 240.86 383.30
C 238.57 373.09 236.53 363.65 236.35 362.35
C 236.07 360.24 234.32 359.72 221.70 357.99
C 213.81 356.91 197.04 354.08 184.43 351.70
C 171.81 349.32 159.66 347.36 157.42 347.36
C 148.92 347.36 136.34 352.98 111.65 367.82
C 103.03 373.00 90.67 379.81 84.16 382.96
C 72.84 388.45 71.89 388.69 62.00 388.69
C 52.11 388.69 51.19 388.45 41.07 383.30
C 31.41 378.37 30.22 377.38 27.49 371.92
C 24.90 366.73 23.45 365.41 16.65 362.04
C 10.03 358.75 8.35 357.28 6.05 352.64
C -5.29 329.87 -0.50 306.83 21.38 279.12
C 34.61 262.35 100.98 198.10 153.39 151.32
C 168.62 137.74 182.63 125.12 184.53 123.30
L 187.98 120.00
L 182.86 117.37
C 180.02 115.94 172.55 112.90 166.25 110.64
C 134.24 99.17 100.42 82.88 79.09 68.67
C 52.10 50.69 28.84 22.27 33.23 12.61
C 36.25 5.98 56.49 3.71 87.85 6.48
C 168.18 13.58 220.71 34.76 249.79 71.77
C 254.02 77.14 258.56 81.73 259.91 81.98
C 261.25 82.22 267.47 83.00 273.71 83.70
C 287.07 85.21 310.11 91.45 322.55 96.94
C 334.33 102.14 336.45 101.62 349.43 90.47
C 370.78 72.16 407.50 44.34 422.07 35.49
C 461.88 11.27 513.71 -2.68 549.50 1.17
C 566.64 3.02 588.63 6.90 593.49 8.94
C 600.76 11.98 601.88 18.10 596.62 26.06
C 579.11 52.50 538.77 80.61 490.04 100.33
C 472.90 107.28 411.97 129.04 400.40 132.36
C 384.05 137.05 375.13 142.22 372.75 148.37
C 370.04 155.41 378.62 183.47 391.30 209.08
C 403.54 233.79 415.94 254.01 451.78 307.73
C 486.44 359.69 501.04 383.44 506.76 397.24
C 511.20 407.90 513.55 419.47 512.29 424.45
C 511.14 429.10 506.76 433.16 501.25 434.69
C 494.31 436.63 467.65 436.05 449.40 433.57
M 500.20 427.10
C 505.65 424.81 506.56 420.87 503.95 410.89
C 499.66 394.52 489.32 376.92 444.05 309.03
C 409.63 257.40 397.46 237.56 385.30 213.21
C 375.67 193.90 369.43 176.96 366.35 161.67
C 365.21 156.09 364.12 151.34 363.92 151.13
C 363.73 150.91 356.94 154.30 348.85 158.65
C 340.76 163.00 333.53 166.31 332.76 166.02
C 332.01 165.73 330.22 163.08 328.79 160.13
C 325.58 153.46 314.84 143.15 307.92 140.09
C 298.96 136.12 298.65 134.73 305.46 129.04
C 308.70 126.33 315.12 120.37 319.72 115.79
L 328.09 107.47
L 320.59 103.92
C 311.73 99.73 288.62 93.08 275.68 90.99
C 252.37 87.21 234.78 93.13 207.63 113.85
C 177.25 137.05 57.24 248.86 32.51 277.00
C 22.89 287.95 15.11 299.65 11.01 309.30
C 8.32 315.64 7.82 318.59 7.79 328.20
C 7.77 338.07 8.19 340.49 10.96 346.42
C 13.94 352.78 14.71 353.50 22.12 356.86
L 30.10 360.49
L 39.25 356.93
C 44.28 354.97 54.86 349.53 62.75 344.82
C 80.68 334.14 84.17 332.46 86.55 333.38
C 89.46 334.50 88.88 338.87 85.64 340.10
C 84.10 340.69 76.71 344.81 69.24 349.27
C 61.76 353.71 51.22 359.44 45.80 361.98
C 40.39 364.52 35.64 367.11 35.25 367.74
C 33.73 370.20 37.63 374.11 45.22 377.71
C 51.96 380.91 54.57 381.50 62.15 381.50
C 73.14 381.50 77.82 379.45 109.14 360.92
C 132.90 346.86 145.34 341.37 155.38 340.55
C 159.98 340.18 169.66 341.48 187.65 344.92
C 201.78 347.63 218.47 350.44 224.75 351.18
C 235.25 352.43 236.98 352.32 246.86 349.81
C 264.90 345.21 286.61 333.59 300.25 321.25
C 304.02 317.82 305.39 317.21 306.97 318.22
C 311.07 320.81 309.12 323.89 298.21 332.11
C 285.02 342.06 268.20 350.87 254.28 355.10
C 244.53 358.07 243.82 358.50 243.81 361.51
C 243.80 364.17 247.70 382.07 253.58 406.33
C 255.20 413.05 257.37 413.67 272.89 411.89
C 290.29 409.89 335.40 409.85 351.39 411.82
C 358.29 412.67 383.04 416.28 406.37 419.84
C 460.23 428.07 463.70 428.48 481.41 428.66
C 491.76 428.77 497.31 428.31 500.20 427.10
M 350.37 149.73
C 358.92 145.11 368.16 139.80 370.90 137.90
C 378.60 132.63 384.51 129.91 396.22 126.30
C 426.38 116.99 488.76 93.76 508.95 84.35
C 536.02 71.70 562.52 53.29 579.48 35.34
C 590.92 23.23 593.87 18.47 591.44 16.11
C 589.51 14.23 563.15 9.68 547.41 8.49
C 507.80 5.53 456.45 20.59 418.66 46.26
C 403.40 56.63 365.33 85.85 355.70 94.60
C 351.54 98.38 345.51 103.24 342.30 105.41
C 339.08 107.57 332.69 113.22 328.09 117.96
C 323.49 122.70 317.39 128.45 314.53 130.74
L 309.36 134.90
L 314.21 138.12
C 316.89 139.89 319.60 141.34 320.25 141.34
C 320.90 141.34 366.23 115.50 420.98 83.92
C 475.72 52.34 521.41 26.16 522.51 25.74
C 524.76 24.88 528.02 29.53 526.30 31.15
C 525.75 31.68 480.66 57.83 426.10 89.27
C 371.53 120.71 326.74 146.56 326.55 146.73
C 325.91 147.27 332.84 158.04 333.85 158.07
C 334.39 158.10 341.82 154.34 350.37 149.73
M 205.86 106.21
C 218.40 96.72 231.02 89.56 241.14 86.16
C 245.25 84.78 248.61 83.20 248.61 82.66
C 248.61 80.92 239.64 70.31 232.23 63.28
C 223.69 55.16 207.62 44.46 195.71 38.95
C 182.87 33.01 160.98 25.73 145.64 22.29
C 106.97 13.62 51.22 9.34 41.92 14.33
L 39.37 15.69
L 43.03 22.57
C 58.57 51.78 102.30 79.80 172.14 105.24
C 179.70 107.99 187.51 111.28 189.47 112.53
C 191.43 113.79 193.57 114.65 194.24 114.45
C 194.89 114.26 200.13 110.55 205.86 106.21"/>
<path fill="#000000" stroke="none" d="
M 28.29 335.78
C 27.85 335.35 27.49 332.89 27.49 330.34
C 27.49 323.73 31.61 319.81 38.56 319.81
C 41.43 319.81 44.76 320.54 45.98 321.44
C 48.76 323.48 47.63 327.00 44.19 327.00
C 40.37 327.00 37.27 329.08 35.24 333.02
C 33.54 336.32 30.17 337.66 28.29 335.78"/>
<path fill="#000000" stroke="none" d="
M 182.27 220.19
C 165.84 214.06 163.90 197.69 178.69 189.96
C 189.22 184.45 205.30 187.65 211.25 196.42
C 218.73 207.45 208.92 220.40 192.49 221.20
C 188.84 221.39 184.24 220.93 182.27 220.19
M 200.41 212.57
C 201.92 211.59 204.04 209.44 205.10 207.79
C 208.00 203.36 205.47 198.02 199.10 195.12
C 194.26 192.92 190.04 192.19 190.04 193.56
C 190.04 193.96 191.65 195.79 193.63 197.64
C 195.90 199.76 197.21 202.18 197.21 204.23
C 197.21 206.27 195.90 208.69 193.63 210.81
C 191.65 212.66 190.04 214.56 190.04 215.04
C 190.04 216.35 197.31 214.62 200.41 212.57"/>
<path fill="#b1a7a7" stroke="none" d="
M 329.53 152.53
C 327.71 149.50 326.35 146.90 326.55 146.73
C 326.74 146.56 371.53 120.71 426.10 89.27
C 480.66 57.83 525.75 31.68 526.30 31.15
C 528.02 29.53 524.76 24.88 522.51 25.74
C 521.41 26.16 475.72 52.34 420.98 83.92
C 366.23 115.50 320.90 141.34 320.25 141.34
C 319.60 141.34 316.89 139.89 314.21 138.12
L 309.36 134.90
L 314.53 130.74
C 317.39 128.45 323.49 122.70 328.09 117.96
C 332.69 113.22 339.08 107.57 342.30 105.41
C 345.51 103.24 351.54 98.38 355.70 94.60
C 365.33 85.85 403.40 56.63 418.66 46.26
C 456.60 20.49 507.57 5.59 547.75 8.54
C 563.10 9.67 589.52 14.24 591.44 16.11
C 593.87 18.47 590.92 23.23 579.48 35.34
C 562.52 53.29 536.02 71.70 508.95 84.35
C 488.76 93.76 426.38 116.99 396.22 126.30
C 384.51 129.91 378.60 132.63 370.90 137.90
C 365.04 141.93 335.28 158.12 333.85 158.07
C 333.31 158.05 331.36 155.56 329.53 152.53"/>
<path fill="#b1a7a7" stroke="none" d="
M 189.47 112.53
C 187.51 111.28 179.70 107.99 172.14 105.24
C 102.30 79.80 58.57 51.78 43.03 22.57
L 39.37 15.69
L 41.92 14.33
C 51.22 9.34 106.97 13.62 145.64 22.29
C 160.98 25.73 182.87 33.01 195.71 38.95
C 207.62 44.46 223.69 55.16 232.23 63.28
C 239.64 70.31 248.61 80.92 248.61 82.66
C 248.61 83.20 245.25 84.78 241.14 86.16
C 231.02 89.56 218.40 96.72 205.86 106.21
C 200.13 110.55 194.89 114.26 194.24 114.45
C 193.57 114.65 191.43 113.79 189.47 112.53"/>
<path fill="#615e5e" stroke="none" d="
M 457.77 427.41
C 452.84 426.81 429.71 423.40 406.37 419.84
C 383.04 416.28 358.29 412.67 351.39 411.82
C 335.40 409.85 290.29 409.89 272.89 411.89
C 257.37 413.67 255.20 413.05 253.58 406.33
C 247.70 382.07 243.80 364.17 243.81 361.51
C 243.82 358.50 244.53 358.07 254.28 355.10
C 268.20 350.87 285.02 342.06 298.21 332.11
C 309.12 323.89 311.07 320.81 306.97 318.22
C 305.39 317.21 304.02 317.82 300.25 321.25
C 286.61 333.59 264.90 345.21 246.86 349.81
C 236.98 352.32 235.25 352.43 224.75 351.18
C 218.47 350.44 201.78 347.63 187.65 344.92
C 169.66 341.48 159.98 340.18 155.38 340.55
C 145.34 341.37 132.90 346.86 109.14 360.92
C 77.82 379.45 73.14 381.50 62.15 381.50
C 54.57 381.50 51.96 380.91 45.22 377.71
C 37.63 374.11 33.73 370.20 35.25 367.74
C 35.64 367.11 40.39 364.52 45.80 361.98
C 51.22 359.44 61.76 353.71 69.24 349.27
C 76.71 344.81 84.10 340.69 85.64 340.10
C 88.88 338.87 89.46 334.50 86.55 333.38
C 84.17 332.46 80.68 334.14 62.75 344.82
C 54.86 349.53 44.28 354.97 39.25 356.93
L 30.10 360.49
L 22.12 356.86
C 14.71 353.50 13.94 352.78 10.96 346.42
C 8.19 340.49 7.77 338.07 7.79 328.20
C 7.82 318.59 8.32 315.64 11.01 309.30
C 15.11 299.65 22.89 287.95 32.51 277.00
C 49.83 257.29 121.24 189.31 172.37 143.87
C 235.45 87.82 249.47 82.58 299.08 96.46
C 306.79 98.62 316.47 101.98 320.59 103.92
L 328.09 107.47
L 319.72 115.79
C 315.12 120.37 308.70 126.33 305.46 129.04
C 298.65 134.73 298.96 136.12 307.92 140.09
C 314.84 143.15 325.58 153.46 328.79 160.13
C 330.22 163.08 332.01 165.73 332.76 166.02
C 333.53 166.31 340.76 163.00 348.85 158.65
C 356.94 154.30 363.73 150.91 363.92 151.13
C 364.12 151.34 365.21 156.09 366.35 161.67
C 369.43 176.96 375.67 193.90 385.30 213.21
C 397.46 237.56 409.63 257.40 444.05 309.03
C 489.32 376.92 499.66 394.52 503.95 410.89
C 507.97 426.23 504.57 428.90 481.41 428.66
C 473.34 428.57 462.69 428.01 457.77 427.41
M 35.24 333.02
C 37.27 329.08 40.37 327.00 44.19 327.00
C 47.63 327.00 48.76 323.48 45.98 321.44
C 44.76 320.54 41.43 319.81 38.56 319.81
C 31.61 319.81 27.49 323.73 27.49 330.34
C 27.49 332.89 27.85 335.35 28.29 335.78
C 30.17 337.66 33.54 336.32 35.24 333.02
M 203.84 218.43
C 222.30 208.88 213.57 187.46 191.24 187.46
C 166.59 187.46 159.91 211.84 182.27 220.19
C 187.51 222.14 198.38 221.26 203.84 218.43"/>
<path fill="#eb2e00" stroke="none" d="
M 190.04 215.04
C 190.04 214.56 191.65 212.66 193.63 210.81
C 198.38 206.36 198.35 202.06 193.51 197.53
C 188.67 192.99 191.29 191.70 198.71 194.99
C 205.47 197.98 208.09 203.23 205.10 207.79
C 204.04 209.44 201.92 211.59 200.41 212.57
C 197.31 214.62 190.04 216.35 190.04 215.04"/>
</g>
</svg>
