<?xml version="1.0" encoding="UTF-8" standalone="no"?>
<!DOCTYPE svg PUBLIC "-//W3C//DTD SVG 1.1//EN"
"http://www.w3.org/Graphics/SVG/1.1/DTD/svg11.dtd">
<svg width="600px" height="467px"
xmlns="http://www.w3.org/2000/svg" version="1.1">
<g transform="translate(0000, 0000) scale(1.0000, 1.0000)">
<path fill="#000000" stroke="none" d="
M 438.75 464.52
C 422.26 459.80 417.98 458.44 411.51 455.86
C 404.09 452.90 394.40 452.56 372.50 454.49
C 365.29 455.13 342.21 456.23 321.25 456.95
C 280.49 458.31 238.88 460.89 207.50 464.00
C 196.54 465.07 184.86 465.55 180.62 465.08
C 161.08 462.92 154.19 453.94 155.23 432.01
C 155.65 423.32 156.45 419.65 159.22 413.98
C 165.05 402.07 174.46 396.30 207.50 384.38
C 217.46 380.79 245.31 370.07 269.38 360.55
C 293.44 351.04 315.60 342.60 318.62 341.80
C 340.42 336.05 349.81 326.35 350.99 308.36
C 351.31 303.40 350.91 296.64 350.10 293.33
C 347.61 283.24 338.24 265.46 325.42 246.53
C 302.31 212.39 299.02 207.16 290.55 190.93
C 281.29 173.20 274.50 162.49 269.69 158.02
L 266.60 155.14
L 265.70 168.60
C 265.20 176.00 264.02 183.56 263.07 185.40
C 260.23 190.92 255.29 191.85 251.10 187.65
C 248.61 185.16 248.49 183.97 248.91 167.93
L 249.38 150.87
L 245.75 151.26
C 239.19 151.96 213.71 162.91 211.79 165.85
C 210.28 168.17 210.20 170.27 211.36 178.52
C 212.97 189.96 212.05 203.90 209.34 209.16
C 207.19 213.33 202.67 214.95 198.88 212.92
C 195.79 211.25 195.31 209.30 194.60 195.31
C 194.21 187.68 193.25 182.94 191.18 178.54
C 188.51 172.85 187.54 172.04 177.82 167.48
C 164.36 161.17 162.12 158.02 162.86 146.39
C 163.28 139.95 164.39 136.27 167.97 129.48
C 178.08 110.41 205.19 78.15 223.12 63.87
C 227.25 60.57 236.94 54.40 244.66 50.16
C 252.38 45.90 259.04 41.87 259.45 41.19
C 260.76 39.06 256.25 33.68 251.46 31.68
C 244.12 28.60 233.21 30.24 209.11 38.07
C 197.33 41.89 184.69 45.37 181.02 45.80
C 172.12 46.83 160.69 44.02 142.55 36.38
C 115.46 24.97 108.62 25.00 79.29 36.67
C 51.74 47.63 43.21 49.24 30.62 45.87
C 18.40 42.61 5.86 34.02 1.80 26.13
C -0.74 21.22 -0.44 15.46 2.50 12.52
C 5.74 9.28 9.51 9.38 15.20 12.86
C 17.71 14.39 22.48 17.32 25.78 19.37
C 30.26 22.15 33.69 23.20 39.42 23.56
C 47.84 24.10 54.86 21.99 82.39 10.65
C 90.24 7.42 101.15 3.64 106.64 2.25
C 116.08 -0.14 117.04 -0.16 124.61 1.70
C 129.01 2.79 138.35 6.16 145.36 9.20
C 171.88 20.66 175.01 20.71 205.97 10.18
C 231.84 1.38 240.88 -0.58 251.76 0.30
C 265.77 1.43 279.84 9.89 285.20 20.43
L 287.76 25.45
L 295.68 16.69
C 305.90 5.36 314.76 1.05 329.46 0.25
C 341.70 -0.40 352.85 2.15 376.80 11.16
C 385.85 14.55 397.69 18.24 403.12 19.37
C 415.65 21.96 420.00 21.02 441.40 11.13
C 470.80 -2.45 477.84 -2.19 511.25 13.72
C 545.35 29.97 548.09 29.97 584.52 13.76
C 595.28 8.96 601.36 12.90 599.43 23.38
C 597.51 33.75 575.16 49.13 556.69 52.77
C 549.75 54.14 547.95 54.00 538.00 51.37
C 531.94 49.77 522.17 46.52 516.30 44.17
C 478.77 29.10 474.17 28.80 441.25 39.38
C 416.89 47.20 409.93 48.27 398.56 45.91
C 393.51 44.86 382.50 41.47 374.09 38.36
C 365.68 35.27 354.86 31.78 350.05 30.60
C 335.39 27.03 324.84 29.86 321.90 38.15
C 320.75 41.37 321.16 42.03 327.82 47.85
C 331.78 51.29 338.60 56.72 343.00 59.92
C 347.41 63.11 355.42 69.14 360.83 73.31
C 366.21 77.46 375.12 83.72 380.62 87.22
C 394.46 95.99 433.36 116.64 449.72 123.87
C 471.18 133.38 477.50 138.47 477.50 146.25
C 477.50 147.57 472.20 159.57 465.74 172.92
C 447.41 210.73 436.16 243.53 429.74 277.95
C 427.40 290.45 427.04 297.04 426.96 328.03
C 426.88 361.81 426.74 364.02 424.19 369.54
C 418.89 381.02 406.38 389.91 386.88 396.01
C 376.79 399.17 362.11 402.56 317.50 412.02
C 304.10 414.87 292.39 417.60 291.48 418.10
C 289.24 419.31 311.39 418.55 351.88 415.99
C 370.44 414.82 391.25 413.84 398.12 413.83
C 409.74 413.79 411.20 414.08 418.85 417.86
C 424.83 420.81 428.79 421.93 433.35 421.93
C 444.07 421.93 452.27 429.58 458.80 445.64
C 463.14 456.31 463.44 461.05 460.00 464.50
C 456.82 467.68 449.77 467.69 438.75 464.52
M 455.89 458.71
C 456.18 457.86 455.23 457.52 453.49 457.84
C 445.75 459.26 436.08 454.15 439.69 450.54
C 440.83 449.40 442.29 449.37 445.71 450.42
C 452.71 452.58 454.15 451.41 451.34 445.90
C 448.19 439.76 441.66 431.67 438.34 429.80
C 436.85 428.96 434.01 428.25 432.05 428.24
C 428.77 428.19 428.55 428.46 429.35 431.63
C 429.83 433.52 431.00 439.54 431.96 445.01
C 432.92 450.47 434.15 455.36 434.68 455.86
C 436.44 457.55 448.10 460.63 451.78 460.36
C 453.79 460.23 455.64 459.49 455.89 458.71
M 211.88 457.00
C 239.00 454.50 282.54 451.96 320.00 450.69
C 340.96 449.97 364.04 448.87 371.25 448.23
C 393.85 446.24 406.66 446.64 414.71 449.58
C 427.56 454.27 426.71 454.43 425.71 447.47
C 424.04 435.71 422.33 431.41 417.54 426.84
C 409.76 419.41 405.76 418.90 373.60 421.16
C 358.21 422.25 337.19 423.47 326.88 423.86
C 316.56 424.26 294.15 425.72 277.07 427.10
C 259.99 428.49 245.23 429.31 244.26 428.94
C 241.20 427.76 242.25 423.58 245.94 422.24
C 252.39 419.91 296.82 409.47 332.50 401.90
C 375.39 392.79 384.23 390.43 395.62 384.96
C 406.61 379.67 412.80 374.54 417.19 367.06
L 420.62 361.21
L 420.30 333.03
C 420.11 317.53 420.56 299.23 421.30 292.34
C 425.44 253.36 439.20 209.37 460.76 166.18
C 465.85 156.00 470.00 146.90 470.00 145.95
C 470.00 143.17 462.96 138.00 453.31 133.65
C 439.64 127.53 398.25 106.30 385.62 98.96
C 373.18 91.71 358.34 81.54 346.88 72.40
C 325.26 55.16 313.50 47.24 306.15 44.95
C 296.77 42.02 283.43 41.87 274.14 44.57
C 265.62 47.05 239.24 61.02 230.00 67.95
C 206.74 85.36 168.74 134.79 168.75 147.59
C 168.76 151.78 173.12 159.01 175.66 159.01
C 178.44 159.01 186.72 154.59 197.25 147.47
C 206.64 141.14 210.62 140.29 210.62 144.62
C 210.62 146.37 207.05 149.50 198.49 155.22
C 189.16 161.46 186.79 163.59 188.26 164.41
C 191.05 165.98 195.03 164.68 212.50 156.51
C 243.58 141.98 252.14 140.58 266.65 147.59
C 273.80 151.04 276.14 153.03 281.25 160.01
C 284.60 164.58 291.42 176.22 296.41 185.89
C 301.40 195.55 314.20 216.41 324.84 232.25
C 343.89 260.59 353.34 277.88 356.10 289.45
C 358.11 297.90 357.82 313.55 355.50 321.87
C 351.91 334.66 344.77 340.61 325.62 346.77
C 320.81 348.32 297.19 357.35 273.12 366.85
C 249.06 376.34 221.21 387.06 211.25 390.68
C 189.40 398.58 177.85 404.21 171.28 410.16
C 160.21 420.16 157.85 441.91 166.74 451.78
C 170.39 455.83 173.45 457.36 180.00 458.35
C 185.85 459.24 189.04 459.10 211.88 457.00
M 205.71 196.97
C 206.44 192.23 204.34 170.45 203.05 169.15
C 202.75 168.86 201.12 169.25 199.42 170.02
C 196.36 171.43 196.35 171.49 198.26 176.80
C 199.33 179.75 200.47 186.67 200.82 192.18
C 201.18 197.69 201.71 203.03 202.04 204.04
C 202.95 206.86 204.75 203.39 205.71 196.97
M 259.44 166.34
C 260.03 158.34 259.88 154.07 259.00 153.52
C 258.26 153.07 257.31 153.28 256.88 153.98
C 255.65 155.99 254.54 177.27 255.54 179.86
C 257.11 183.98 258.50 179.21 259.44 166.34
M 570.30 40.36
C 577.41 36.85 582.71 33.12 586.66 28.90
C 595.70 19.22 594.35 17.03 582.75 22.51
C 570.90 28.13 558.04 32.46 550.68 33.33
C 541.59 34.41 530.65 30.97 506.25 19.42
C 495.60 14.37 483.69 9.55 479.79 8.70
C 470.66 6.71 465.48 7.99 446.04 17.00
C 415.11 31.34 413.14 31.24 359.68 12.60
C 334.96 3.99 322.06 4.59 307.91 15.01
C 301.81 19.51 292.77 32.09 294.46 33.74
C 295.60 34.86 312.56 39.19 313.18 38.52
C 313.35 38.34 314.36 36.08 315.41 33.52
C 317.71 27.98 323.07 24.40 332.15 22.36
C 338.12 21.02 340.01 21.23 353.41 24.71
C 361.51 26.81 375.44 31.16 384.38 34.38
C 399.55 39.84 401.25 40.19 410.00 39.64
C 416.49 39.23 424.95 37.25 437.50 33.19
C 447.48 29.96 460.40 26.73 466.25 25.99
C 479.96 24.25 489.60 26.15 512.50 35.12
C 546.60 48.45 552.86 49.03 570.30 40.36
M 53.12 38.56
C 55.88 37.89 65.72 34.33 75.00 30.67
C 84.28 27.02 96.44 23.06 102.00 21.89
C 111.51 19.88 112.70 19.88 121.38 21.85
C 126.46 23.00 138.50 27.09 148.12 30.95
C 173.35 41.04 176.80 41.12 204.38 32.20
C 236.46 21.84 244.05 20.92 256.50 25.92
C 259.86 27.26 262.30 29.51 264.52 33.33
C 266.29 36.35 268.00 38.81 268.31 38.81
C 270.40 38.81 280.90 35.73 282.15 34.76
C 283.31 33.84 282.96 32.15 280.64 27.58
C 273.82 14.11 261.69 6.84 246.25 6.97
C 238.20 7.05 233.69 8.14 214.38 14.67
C 202.00 18.86 188.85 22.97 185.16 23.83
C 172.82 26.66 162.05 24.31 135.62 13.11
C 119.50 6.26 114.91 6.17 98.12 12.34
C 90.56 15.12 78.36 19.88 71.01 22.91
C 45.58 33.39 33.88 33.40 17.57 22.95
C 7.91 16.76 4.92 16.71 8.41 22.80
C 12.29 29.56 25.82 38.15 35.42 39.96
C 40.81 40.98 44.61 40.68 53.12 38.56"/>
<path fill="#000000" stroke="none" d="
M 172.09 150.65
C 170.44 149.01 171.30 144.33 173.64 142.20
C 176.66 139.46 182.94 140.00 183.51 143.04
C 183.78 144.43 182.82 145.65 180.89 146.39
C 179.21 147.02 177.50 148.44 177.09 149.52
C 176.31 151.53 173.58 152.16 172.09 150.65"/>
<path fill="#000000" stroke="none" d="
M 281.56 134.54
C 275.05 129.97 274.89 115.11 281.20 101.71
C 283.16 97.56 288.81 88.12 293.76 80.74
C 298.70 73.37 303.54 65.42 304.51 63.09
C 306.64 57.98 309.66 57.62 313.74 61.96
C 315.73 64.08 318.59 65.33 322.67 65.87
C 331.55 67.06 332.10 68.31 329.09 80.54
C 323.22 104.34 310.81 126.29 299.56 132.74
C 292.39 136.87 285.81 137.52 281.56 134.54
M 295.26 126.55
C 301.68 122.48 309.56 111.75 315.00 99.71
C 318.48 92.04 323.75 76.15 323.75 73.41
C 323.75 71.50 310.86 66.88 310.30 68.59
C 310.06 69.29 305.39 76.74 299.90 85.14
C 288.35 102.83 285.80 107.54 283.81 114.96
C 281.80 122.46 284.10 129.43 288.81 130.11
C 289.20 130.16 292.10 128.57 295.26 126.55"/>
<path fill="#000000" stroke="none" d="
M 244.31 90.83
C 238.89 85.39 241.25 74.62 248.71 70.76
C 261.56 64.10 273.09 74.23 267.26 87.05
C 263.98 94.25 250.04 96.56 244.31 90.83
M 263.10 83.95
C 264.02 81.03 260.91 74.48 258.07 73.39
C 255.80 72.53 250.00 73.68 250.00 75.00
C 250.00 75.47 251.83 76.40 254.06 77.05
C 257.11 77.95 258.43 79.26 259.32 82.32
C 260.68 86.95 261.98 87.50 263.10 83.95"/>
<path fill="#686063" stroke="none" d="
M 536.88 44.00
C 532.75 42.74 521.79 38.75 512.50 35.12
C 489.60 26.15 479.96 24.25 466.25 25.99
C 460.40 26.73 447.48 29.96 437.50 33.19
C 424.95 37.25 416.49 39.23 410.00 39.64
C 401.25 40.19 399.55 39.84 384.38 34.38
C 375.44 31.16 361.51 26.81 353.41 24.71
C 340.01 21.23 338.12 21.02 332.15 22.36
C 323.07 24.40 317.71 27.98 315.41 33.52
C 314.36 36.08 313.35 38.34 313.18 38.52
C 312.56 39.19 295.60 34.86 294.46 33.74
C 292.77 32.09 301.81 19.51 307.91 15.01
C 322.06 4.59 334.96 3.99 359.68 12.60
C 413.14 31.24 415.11 31.34 446.04 17.00
C 465.48 7.99 470.66 6.71 479.79 8.70
C 483.69 9.55 495.60 14.37 506.25 19.42
C 530.65 30.97 541.59 34.41 550.68 33.33
C 558.04 32.46 570.90 28.13 582.75 22.51
C 594.35 17.03 595.70 19.22 586.66 28.90
C 582.71 33.12 577.41 36.85 570.30 40.36
C 557.66 46.64 548.76 47.60 536.88 44.00"/>
<path fill="#686063" stroke="none" d="
M 35.42 39.96
C 25.82 38.15 12.29 29.56 8.41 22.80
C 4.92 16.71 7.91 16.76 17.57 22.95
C 33.88 33.40 45.58 33.39 71.01 22.91
C 78.36 19.88 90.56 15.12 98.12 12.34
C 114.91 6.17 119.50 6.26 135.62 13.11
C 162.05 24.31 172.82 26.66 185.16 23.83
C 188.85 22.97 202.00 18.88 214.38 14.71
C 233.49 8.28 238.29 7.11 246.25 7.01
C 261.65 6.81 273.81 14.07 280.64 27.58
C 282.96 32.15 283.31 33.84 282.15 34.76
C 280.90 35.73 270.40 38.81 268.31 38.81
C 268.00 38.81 266.29 36.35 264.52 33.33
C 262.30 29.51 259.86 27.26 256.50 25.92
C 244.05 20.92 236.46 21.84 204.38 32.20
C 176.80 41.12 173.35 41.04 148.12 30.95
C 138.50 27.09 126.46 23.00 121.38 21.85
C 112.70 19.88 111.51 19.88 102.00 21.89
C 96.44 23.06 84.28 27.02 75.00 30.67
C 51.66 39.86 44.20 41.62 35.42 39.96"/>
<path fill="#976d37" stroke="none" d="
M 180.00 458.35
C 173.45 457.36 170.39 455.83 166.74 451.78
C 157.85 441.91 160.21 420.16 171.28 410.16
C 177.85 404.21 189.40 398.58 211.25 390.68
C 221.21 387.06 249.06 376.34 273.12 366.85
C 297.19 357.35 320.81 348.32 325.62 346.77
C 344.77 340.61 351.91 334.66 355.50 321.87
C 357.82 313.55 358.11 297.90 356.10 289.45
C 353.34 277.88 343.89 260.59 324.84 232.25
C 314.20 216.41 301.40 195.55 296.41 185.89
C 291.42 176.22 284.60 164.58 281.25 160.01
C 276.14 153.03 273.80 151.04 266.65 147.59
C 252.14 140.58 243.58 141.98 212.50 156.51
C 195.03 164.68 191.05 165.98 188.26 164.41
C 186.79 163.59 189.16 161.46 198.49 155.22
C 207.05 149.50 210.62 146.37 210.62 144.62
C 210.62 140.29 206.64 141.14 197.25 147.47
C 186.72 154.59 178.44 159.01 175.66 159.01
C 173.12 159.01 168.76 151.78 168.75 147.59
C 168.74 134.79 206.74 85.36 230.00 67.95
C 239.88 60.55 266.45 46.66 274.96 44.46
C 284.84 41.89 296.98 42.08 306.15 44.95
C 313.50 47.24 325.26 55.16 346.88 72.40
C 358.34 81.54 373.18 91.71 385.62 98.96
C 398.25 106.30 439.64 127.53 453.31 133.65
C 462.96 138.00 470.00 143.17 470.00 145.95
C 470.00 146.90 465.85 156.00 460.76 166.18
C 439.20 209.37 425.44 253.36 421.30 292.34
C 420.56 299.23 420.11 317.53 420.30 333.03
L 420.62 361.21
L 417.19 367.06
C 412.80 374.54 406.61 379.67 395.62 384.96
C 384.23 390.43 375.39 392.79 332.50 401.90
C 296.82 409.47 252.39 419.91 245.94 422.24
C 242.25 423.58 241.20 427.76 244.26 428.94
C 245.23 429.31 259.99 428.49 277.07 427.10
C 294.15 425.72 316.56 424.26 326.88 423.86
C 337.19 423.47 358.21 422.25 373.60 421.16
C 405.76 418.90 409.76 419.41 417.54 426.84
C 422.33 431.41 424.04 435.71 425.71 447.47
C 426.71 454.43 427.56 454.27 414.71 449.58
C 406.66 446.64 393.85 446.24 371.25 448.23
C 364.04 448.87 340.96 449.97 320.00 450.69
C 282.54 451.96 239.00 454.50 211.88 457.00
C 189.04 459.10 185.85 459.24 180.00 458.35
M 177.09 149.52
C 177.50 148.44 179.21 147.02 180.89 146.39
C 182.82 145.65 183.78 144.43 183.51 143.04
C 182.94 140.00 176.66 139.46 173.64 142.20
C 171.30 144.33 170.44 149.01 172.09 150.65
C 173.58 152.16 176.31 151.53 177.09 149.52
M 299.56 132.74
C 310.81 126.29 323.22 104.34 329.09 80.54
C 332.10 68.31 331.55 67.06 322.67 65.87
C 318.59 65.33 315.73 64.08 313.74 61.96
C 309.66 57.62 306.64 57.98 304.51 63.09
C 303.54 65.42 298.70 73.37 293.76 80.74
C 282.65 97.33 277.89 107.25 276.79 116.11
C 274.54 134.13 284.50 141.40 299.56 132.74
M 262.31 92.11
C 269.18 88.57 271.05 77.31 265.69 71.93
C 259.93 66.17 247.10 68.67 243.15 76.34
C 238.31 85.69 242.99 93.90 253.12 93.90
C 256.29 93.90 260.43 93.10 262.31 92.11"/>
<path fill="#6b443a" stroke="none" d="
M 286.64 129.41
C 285.81 129.07 284.51 126.89 283.75 124.58
C 282.19 119.84 283.55 112.93 287.60 104.98
C 292.75 94.86 311.52 67.50 312.91 68.08
C 313.71 68.42 316.49 69.39 319.06 70.23
C 321.64 71.08 323.75 72.45 323.75 73.31
C 323.75 76.13 318.52 91.91 315.00 99.71
C 309.56 111.75 301.68 122.48 295.26 126.55
C 289.30 130.35 289.10 130.41 286.64 129.41"/>
<path fill="#eb2e00" stroke="none" d="
M 259.32 82.32
C 258.43 79.26 257.11 77.95 254.06 77.05
C 251.83 76.40 250.00 75.47 250.00 75.01
C 250.00 73.84 256.32 72.73 258.40 73.52
C 260.96 74.51 263.98 81.19 263.10 83.95
C 261.98 87.50 260.68 86.95 259.32 82.32"/>
<path fill="#a38e74" stroke="none" d="
M 202.04 204.04
C 201.71 203.03 201.18 197.69 200.82 192.18
C 200.47 186.67 199.33 179.75 198.26 176.80
C 196.35 171.49 196.36 171.43 199.42 170.02
C 201.12 169.25 202.75 168.86 203.05 169.15
C 204.34 170.45 206.44 192.23 205.71 196.97
C 204.75 203.39 202.95 206.86 202.04 204.04"/>
<path fill="#a38e74" stroke="none" d="
M 255.86 180.74
C 254.79 179.65 254.74 167.52 255.80 159.81
C 256.34 155.83 257.19 154.00 258.46 154.00
C 260.06 154.00 260.21 155.79 259.45 166.18
C 258.56 178.25 257.54 182.42 255.86 180.74"/>
<path fill="#5c5454" stroke="none" d="
M 441.88 458.70
C 438.44 457.63 435.20 456.36 434.68 455.86
C 434.15 455.36 432.89 450.25 431.89 444.51
C 430.88 438.78 429.72 433.03 429.31 431.76
C 428.41 428.90 431.21 427.59 435.74 428.73
C 439.72 429.73 446.35 436.83 450.59 444.61
C 454.26 451.39 453.16 452.71 445.71 450.42
C 442.29 449.37 440.83 449.40 439.69 450.54
C 436.08 454.15 445.75 459.26 453.49 457.84
C 455.23 457.52 456.18 457.86 455.89 458.71
C 455.19 460.85 448.84 460.84 441.88 458.70"/>
</g>
</svg>
