<?xml version="1.0" encoding="UTF-8" standalone="no"?>
<!DOCTYPE svg PUBLIC "-//W3C//DTD SVG 1.1//EN"
"http://www.w3.org/Graphics/SVG/1.1/DTD/svg11.dtd">
<svg width="535px" height="600px"
xmlns="http://www.w3.org/2000/svg" version="1.1">
<g transform="translate(0000, 0000) scale(1.0000, 1.0000)">
<path fill="#000000" stroke="none" d="
M 299.57 598.00
C 257.97 594.86 227.32 594.47 193.09 596.67
C 175.45 597.79 153.65 598.72 144.66 598.72
C 130.00 598.72 128.03 598.45 125.73 596.15
C 124.32 594.74 123.17 593.00 123.17 592.29
C 123.17 591.58 120.89 592.49 118.11 594.33
C 113.08 597.65 113.02 597.67 101.73 596.06
C 92.05 594.71 87.94 594.78 73.60 596.59
C 47.03 599.95 38.57 599.23 33.52 593.14
C 31.88 591.17 29.82 591.49 20.95 595.01
C 17.64 596.33 16.51 596.32 14.86 594.96
C 11.70 592.35 12.43 588.91 17.27 583.55
C 25.21 574.77 26.25 574.59 93.02 569.76
C 108.54 568.63 122.50 567.22 124.05 566.60
C 131.41 563.73 141.73 530.96 148.65 488.45
C 155.28 447.76 155.86 441.54 155.82 412.18
C 155.77 382.28 154.15 366.36 146.25 317.31
C 141.27 286.36 139.60 279.78 132.97 264.74
C 117.56 229.79 106.77 194.44 103.86 169.29
C 101.21 146.44 103.75 128.71 113.02 105.53
C 120.57 86.62 119.07 70.40 109.13 63.51
C 102.82 59.14 92.66 58.10 43.99 56.87
L 10.38 56.01
L 8.07 60.09
C 6.50 62.86 4.95 64.05 3.21 63.81
C 1.09 63.53 0.56 62.33 0.24 57.08
C -0.33 48.05 2.16 40.32 6.92 36.29
C 16.60 28.12 42.03 19.50 70.56 14.76
C 77.27 13.64 94.30 10.45 108.41 7.67
C 122.52 4.88 139.27 2.03 145.62 1.31
C 167.15 -1.10 202.89 0.14 220.39 3.90
C 234.23 6.87 237.27 12.56 244.48 48.99
C 250.05 77.15 252.23 81.81 264.51 91.85
C 277.28 102.28 291.86 118.17 305.18 136.13
C 327.22 165.87 391.51 257.04 401.12 272.18
C 422.83 306.41 423.54 307.91 464.85 408.33
C 477.91 440.06 498.73 490.09 511.14 519.51
C 523.53 548.94 534.04 575.24 534.47 577.97
C 535.38 583.65 532.90 589.67 528.30 592.87
C 524.93 595.23 516.26 595.42 512.37 593.22
C 510.87 592.37 502.85 584.58 494.56 575.92
C 486.27 567.26 479.29 560.37 479.05 560.60
C 478.82 560.85 480.17 565.76 482.05 571.51
C 486.08 583.78 485.48 587.36 478.61 591.99
C 470.89 597.18 461.43 599.14 447.80 598.37
C 427.06 597.19 414.63 590.59 402.28 574.18
C 393.17 562.06 388.23 551.33 366.88 497.27
C 356.19 470.22 346.86 446.64 346.15 444.87
C 344.99 442.06 343.38 445.97 333.11 476.28
C 322.01 509.03 321.18 510.96 317.68 512.17
C 314.37 513.31 311.81 512.33 293.43 502.85
C 282.14 497.03 272.67 492.49 272.39 492.76
C 271.32 493.83 265.61 563.47 266.38 565.96
C 266.83 567.41 267.85 569.01 268.63 569.53
C 269.42 570.05 288.26 570.50 310.48 570.51
C 353.23 570.56 365.30 571.54 373.20 575.56
C 380.07 579.06 386.18 586.38 386.18 591.12
C 386.18 596.13 383.47 597.05 377.17 594.22
L 372.14 591.95
L 368.38 595.97
L 364.62 600.00
L 343.00 599.82
C 331.11 599.73 311.57 598.91 299.57 598.00
M 359.23 590.38
C 360.62 588.72 360.02 588.46 354.86 588.46
C 347.92 588.46 341.66 586.12 338.19 582.23
C 335.81 579.55 334.89 579.49 299.96 579.49
L 264.18 579.49
L 261.02 576.35
C 256.94 572.26 256.95 568.27 261.09 524.49
C 262.86 505.87 264.29 490.21 264.29 489.68
C 264.29 488.65 257.26 485.90 254.64 485.90
C 253.49 485.90 252.89 493.09 252.35 513.78
C 251.55 544.17 249.71 556.59 244.38 567.47
C 241.78 572.79 240.11 574.51 235.98 576.17
C 227.78 579.45 215.68 580.73 184.75 581.62
C 164.46 582.21 155.11 582.95 153.32 584.12
C 151.89 585.03 147.07 586.64 142.59 587.68
C 132.83 589.96 130.52 591.56 138.56 590.50
C 166.61 586.77 253.49 586.35 310.48 589.67
C 332.00 590.92 351.42 592.03 353.63 592.13
C 355.83 592.23 358.36 591.44 359.23 590.38
M 469.06 587.96
C 472.65 586.28 475.89 584.12 476.28 583.14
C 476.65 582.18 474.16 573.60 470.76 564.12
L 464.56 546.83
L 433.39 516.00
C 396.04 479.06 354.22 439.18 353.59 439.88
C 353.34 440.15 357.12 450.77 361.98 463.46
C 397.27 555.51 403.46 567.85 421.07 581.08
C 434.13 590.90 456.01 594.03 469.06 587.96
M 89.17 587.83
L 105.85 587.82
L 108.08 584.28
C 109.31 582.33 112.20 579.54 114.49 578.08
L 118.68 575.41
L 108.41 576.14
C 102.77 576.54 91.09 577.26 82.48 577.73
C 68.20 578.51 66.55 578.86 63.93 581.64
C 62.35 583.32 58.00 585.59 54.27 586.67
C 50.52 587.76 47.47 588.97 47.47 589.37
C 47.47 589.77 53.10 589.59 59.98 588.96
C 66.86 588.35 79.99 587.83 89.17 587.83
M 524.74 584.62
C 526.15 583.21 527.30 581.49 527.30 580.78
C 527.30 573.92 418.58 319.21 408.02 301.35
C 390.60 271.85 315.57 163.46 304.42 151.69
C 282.64 128.67 228.52 121.22 196.31 136.82
C 187.10 141.28 177.73 150.78 173.50 159.95
C 170.49 166.45 170.11 168.87 170.15 180.77
C 170.17 192.03 170.76 195.91 173.70 204.49
C 185.75 239.65 211.97 279.41 256.34 329.78
C 263.61 338.05 315.87 389.95 372.46 445.10
C 429.04 500.26 484.93 554.78 496.63 566.28
C 508.34 577.77 518.87 587.18 520.04 587.18
C 521.21 587.18 523.32 586.03 524.74 584.62
M 147.07 572.69
C 147.21 572.55 153.17 550.23 160.33 523.08
C 167.49 495.92 173.61 472.79 173.95 471.65
C 174.38 470.17 172.91 468.97 168.60 467.33
C 162.09 464.85 160.44 465.67 160.40 471.38
C 160.36 476.29 154.06 509.04 149.95 525.64
C 145.32 544.41 139.28 560.09 133.39 568.65
L 129.18 574.76
L 138.00 573.85
C 142.85 573.36 146.93 572.83 147.07 572.69
M 220.52 571.73
C 230.74 570.08 235.48 567.67 237.94 562.91
C 240.63 557.72 244.18 520.17 244.25 496.15
C 244.30 477.79 244.03 475.47 240.78 465.71
C 238.83 459.88 236.76 455.13 236.17 455.13
C 235.59 455.13 234.73 457.58 234.26 460.58
C 230.36 485.37 229.41 488.65 225.29 491.15
C 223.11 492.49 220.12 493.58 218.67 493.59
C 217.22 493.59 208.61 489.26 199.54 483.97
C 190.47 478.69 182.72 474.36 182.30 474.37
C 181.08 474.38 155.30 572.13 156.15 573.51
C 157.11 575.06 208.83 573.63 220.52 571.73
M 328.99 464.58
L 341.57 427.72
L 322.49 409.54
C 293.75 382.14 247.43 332.56 224.37 304.49
C 181.52 252.35 159.73 207.27 161.96 175.31
C 164.00 146.13 184.29 127.19 219.41 121.69
C 236.93 118.95 267.56 122.36 282.90 128.77
C 287.32 130.62 287.39 130.60 285.97 127.96
C 285.18 126.49 276.13 116.86 265.87 106.55
C 243.64 84.26 242.76 82.63 236.62 52.56
C 229.49 17.58 227.97 14.10 218.75 11.59
C 208.64 8.83 170.52 7.19 152.31 8.72
C 134.70 10.19 114.40 13.64 112.39 15.49
C 110.12 17.56 115.85 28.69 123.32 36.71
C 133.92 48.08 134.26 51.77 125.62 60.92
L 121.96 64.79
L 123.94 71.18
C 127.28 81.96 125.76 95.45 119.30 112.18
C 113.52 127.21 110.45 141.09 110.39 152.56
C 110.31 168.04 116.26 197.24 124.26 220.51
C 131.41 241.38 149.40 283.74 152.70 287.50
C 155.20 290.35 211.58 387.21 222.29 407.05
C 234.34 429.40 241.44 444.41 248.15 461.79
C 250.80 468.63 253.63 474.77 254.45 475.44
C 255.27 476.10 258.56 477.55 261.73 478.65
C 264.90 479.76 277.58 485.82 289.93 492.14
C 305.86 500.31 312.93 503.31 314.38 502.54
C 315.61 501.88 321.42 486.77 328.99 464.58
M 221.80 482.58
C 222.07 482.33 224.16 472.88 226.43 461.59
L 230.58 441.04
L 217.12 415.72
C 193.24 370.76 154.28 303.10 152.99 304.37
C 152.74 304.64 153.98 313.72 155.77 324.54
C 162.75 366.78 163.48 375.49 163.53 416.33
L 163.58 455.12
L 171.92 458.44
C 176.50 460.26 181.41 462.81 182.82 464.12
C 184.24 465.41 192.32 470.50 200.79 475.42
C 214.72 483.51 219.08 485.00 221.80 482.58
M 120.38 53.15
C 122.18 49.22 120.51 48.22 108.32 45.91
C 95.07 43.41 34.70 43.71 26.94 46.32
C 21.39 48.18 22.41 48.29 53.88 49.09
C 89.96 50.01 102.57 51.31 110.69 54.90
C 116.98 57.68 118.44 57.41 120.38 53.15
M 26.30 38.06
C 33.49 36.37 97.92 35.91 108.14 37.49
L 114.29 38.42
L 110.54 32.99
C 108.48 30.00 106.00 25.19 105.02 22.32
L 103.25 17.10
L 76.97 21.83
C 40.91 28.35 24.44 33.10 17.32 39.08
C 14.75 41.23 14.75 41.23 17.32 40.41
C 18.73 39.95 22.77 38.90 26.30 38.06"/>
<path fill="#000000" stroke="none" d="
M 152.76 47.82
C 140.50 41.37 139.16 24.44 150.29 16.29
C 155.14 12.74 163.85 12.14 169.26 15.00
C 181.53 21.45 182.86 38.38 171.74 46.53
C 166.89 50.08 158.18 50.68 152.76 47.82
M 169.46 39.85
C 172.23 37.06 173.20 34.88 173.20 31.41
C 173.20 24.90 167.53 19.23 161.01 19.23
C 154.50 19.23 148.82 24.90 148.82 31.41
C 148.82 37.92 154.50 43.59 161.01 43.59
C 164.49 43.59 166.67 42.62 169.46 39.85"/>
<path fill="#000000" stroke="none" d="
M 155.24 37.18
C 150.16 32.10 153.85 23.08 161.01 23.08
C 165.13 23.08 169.35 27.29 169.35 31.41
C 169.35 33.18 168.20 35.77 166.79 37.18
C 165.38 38.59 162.78 39.74 161.01 39.74
C 159.24 39.74 156.65 38.59 155.24 37.18"/>
<path fill="#e5e3cc" stroke="none" d="
M 435.36 588.37
C 413.48 581.45 401.28 564.32 380.61 511.54
C 362.72 465.85 353.13 440.38 353.59 439.88
C 354.22 439.18 396.04 479.06 433.39 516.00
L 464.56 546.83
L 470.76 564.12
C 474.16 573.60 476.65 582.18 476.28 583.14
C 475.89 584.12 472.65 586.28 469.06 587.96
C 460.68 591.86 446.89 592.03 435.36 588.37"/>
<path fill="#e5e3cc" stroke="none" d="
M 289.93 492.14
C 277.58 485.82 264.90 479.76 261.73 478.65
C 258.56 477.55 255.27 476.10 254.45 475.44
C 253.63 474.77 250.80 468.63 248.15 461.79
C 241.44 444.41 234.34 429.40 222.29 407.05
C 211.58 387.21 155.20 290.35 152.70 287.50
C 149.40 283.74 131.41 241.38 124.26 220.51
C 116.26 197.24 110.31 168.04 110.39 152.56
C 110.45 141.09 113.52 127.21 119.30 112.18
C 125.76 95.45 127.28 81.96 123.94 71.18
L 121.96 64.79
L 125.62 60.92
C 134.26 51.77 133.92 48.08 123.32 36.71
C 115.85 28.69 110.12 17.56 112.39 15.49
C 114.47 13.58 134.99 10.17 152.97 8.73
C 171.73 7.23 208.60 8.85 218.75 11.60
C 227.97 14.10 229.49 17.58 236.62 52.56
C 242.78 82.72 243.56 84.14 266.65 107.38
C 285.01 125.85 289.12 130.96 283.86 128.86
C 275.47 125.51 255.34 121.59 243.12 120.94
C 204.25 118.86 175.27 132.94 165.44 158.65
C 152.85 191.55 173.46 242.55 224.37 304.49
C 247.43 332.56 293.75 382.14 322.49 409.54
L 341.57 427.72
L 328.99 464.58
C 321.42 486.77 315.61 501.88 314.38 502.54
C 312.93 503.31 305.86 500.31 289.93 492.14
M 171.74 46.53
C 176.97 42.69 179.85 36.18 179.18 29.67
C 178.12 19.21 169.61 12.19 159.27 13.26
C 140.88 15.12 136.37 39.21 152.76 47.82
C 158.18 50.68 166.89 50.08 171.74 46.53"/>
<path fill="#e5e3cc" stroke="none" d="
M 200.79 475.42
C 192.32 470.50 184.24 465.41 182.82 464.12
C 181.41 462.81 176.50 460.26 171.92 458.44
L 163.58 455.12
L 163.53 416.33
C 163.48 375.49 162.75 366.78 155.77 324.54
C 153.98 313.72 152.74 304.64 152.99 304.37
C 154.28 303.10 193.24 370.76 217.12 415.72
L 230.58 441.04
L 226.43 461.59
C 224.16 472.88 222.07 482.33 221.80 482.58
C 219.08 485.00 214.72 483.51 200.79 475.42"/>
<path fill="#7fa2a0" stroke="none" d="
M 110.69 54.90
C 102.57 51.31 89.96 50.01 53.88 49.09
C 22.41 48.29 21.39 48.18 26.94 46.32
C 34.70 43.71 95.07 43.41 108.32 45.91
C 120.51 48.22 122.18 49.22 120.38 53.15
C 118.44 57.41 116.98 57.68 110.69 54.90"/>
<path fill="#7fa2a0" stroke="none" d="
M 17.32 39.08
C 20.91 36.06 29.74 32.36 40.36 29.40
C 50.01 26.71 96.17 17.95 100.70 17.95
C 102.66 17.95 103.87 19.26 105.13 22.76
C 106.08 25.40 108.53 30.01 110.57 33.00
L 114.29 38.42
L 108.14 37.49
C 104.75 36.96 86.41 36.54 67.36 36.55
C 35.29 36.55 27.35 37.17 17.32 40.41
C 14.75 41.23 14.75 41.23 17.32 39.08"/>
<path fill="#eb2e00" stroke="none" d="
M 152.57 39.85
C 145.05 32.33 149.18 21.08 159.99 19.63
C 164.77 18.99 165.82 19.36 169.29 22.82
C 172.23 25.74 173.20 27.90 173.20 31.41
C 173.20 37.92 167.53 43.59 161.01 43.59
C 157.54 43.59 155.36 42.62 152.57 39.85
M 166.79 37.18
C 171.87 32.10 168.17 23.08 161.01 23.08
C 156.89 23.08 152.67 27.29 152.67 31.41
C 152.67 33.18 153.83 35.77 155.24 37.18
C 156.65 38.59 159.24 39.74 161.01 39.74
C 162.78 39.74 165.38 38.59 166.79 37.18"/>
<path fill="#e1441f" stroke="none" d="
M 496.63 566.28
C 484.93 554.78 429.04 500.26 372.46 445.10
C 315.87 389.95 263.61 338.05 256.34 329.78
C 211.97 279.41 185.75 239.65 173.70 204.49
C 170.76 195.91 170.17 192.03 170.15 180.77
C 170.11 168.87 170.49 166.45 173.50 159.95
C 177.73 150.78 187.10 141.28 196.31 136.82
C 228.48 121.24 282.66 128.69 304.42 151.69
C 315.57 163.46 390.60 271.85 408.02 301.35
C 418.58 319.21 527.30 573.92 527.30 580.78
C 527.30 582.82 522.36 587.18 520.04 587.18
C 518.87 587.18 508.34 577.77 496.63 566.28"/>
<path fill="#808080" stroke="none" d="
M 310.48 589.67
C 253.49 586.35 166.61 586.77 138.56 590.50
C 130.52 591.56 132.83 589.96 142.59 587.68
C 147.07 586.64 151.89 585.03 153.32 584.12
C 155.11 582.95 164.46 582.21 184.75 581.62
C 215.68 580.73 227.78 579.45 235.98 576.17
C 240.11 574.51 241.78 572.79 244.38 567.47
C 249.71 556.59 251.55 544.17 252.35 513.78
C 252.89 493.09 253.49 485.90 254.64 485.90
C 257.26 485.90 264.29 488.65 264.29 489.68
C 264.29 490.21 262.86 505.87 261.09 524.49
C 256.95 568.27 256.94 572.26 261.02 576.35
L 264.18 579.49
L 299.96 579.49
C 334.89 579.49 335.81 579.55 338.19 582.23
C 341.66 586.12 347.92 588.46 354.86 588.46
C 360.02 588.46 360.62 588.72 359.23 590.38
C 358.36 591.44 355.83 592.23 353.63 592.13
C 351.42 592.03 332.00 590.92 310.48 589.67"/>
<path fill="#808080" stroke="none" d="
M 47.47 589.37
C 47.47 588.97 50.52 587.76 54.27 586.67
C 58.00 585.59 62.35 583.32 63.93 581.64
C 66.55 578.86 68.20 578.51 82.48 577.73
C 91.09 577.26 102.77 576.54 108.41 576.14
L 118.68 575.41
L 114.49 578.08
C 112.20 579.54 109.31 582.33 108.08 584.28
L 105.85 587.82
L 89.17 587.83
C 79.99 587.83 66.86 588.35 59.98 588.96
C 53.10 589.59 47.47 589.77 47.47 589.37"/>
<path fill="#808080" stroke="none" d="
M 133.39 568.65
C 139.28 560.09 145.32 544.41 149.95 525.64
C 154.16 508.62 160.37 476.18 160.37 471.23
C 160.37 466.27 163.07 465.14 169.16 467.53
C 172.96 469.03 174.36 470.23 173.93 471.68
C 173.61 472.79 167.49 495.92 160.33 523.08
C 153.17 550.23 147.21 572.55 147.07 572.69
C 146.93 572.83 142.85 573.36 138.00 573.85
L 129.18 574.76
L 133.39 568.65"/>
</g>
</svg>
