<?xml version="1.0" encoding="UTF-8" standalone="no"?>
<!DOCTYPE svg PUBLIC "-//W3C//DTD SVG 1.1//EN"
"http://www.w3.org/Graphics/SVG/1.1/DTD/svg11.dtd">
<svg width="580px" height="600px"
xmlns="http://www.w3.org/2000/svg" version="1.1">
<g transform="translate(0000, 0000) scale(1.0000, 1.0000)">
<path fill="#000000" stroke="none" d="
M 106.42 596.05
L 101.71 591.90
L 98.15 595.31
C 91.86 601.33 87.04 598.67 90.24 590.95
C 92.52 585.46 105.62 573.79 113.92 569.86
C 126.41 563.96 136.79 562.12 154.67 562.61
C 182.75 563.38 206.75 563.24 210.40 562.27
C 215.28 560.97 217.00 557.86 223.74 538.07
C 248.50 465.36 257.73 401.64 252.06 342.57
C 247.16 291.48 241.47 274.78 216.10 236.92
C 203.28 217.82 198.24 212.96 174.46 196.87
C 144.64 176.69 138.23 168.86 128.24 140.34
C 122.25 123.21 121.18 111.36 124.36 97.11
C 125.60 91.53 126.92 86.19 127.28 85.24
C 127.82 83.83 126.22 83.67 119.08 84.35
C 112.80 84.94 105.29 84.40 93.44 82.53
C 84.23 81.08 69.43 78.75 60.55 77.36
C 51.68 75.97 38.11 73.34 30.39 71.51
C 22.66 69.68 15.27 68.54 13.97 68.95
C 12.66 69.36 9.83 71.18 7.71 72.97
C 1.15 78.49 -0.49 76.49 0.36 64.03
C 1.26 50.92 3.93 43.09 9.89 36.15
C 18.21 26.42 26.14 23.60 66.27 16.03
C 80.18 13.42 97.05 9.26 105.57 6.36
C 124.00 0.10 129.86 -0.72 141.93 1.30
C 155.65 3.59 163.97 7.08 171.19 13.55
C 178.73 20.32 182.62 28.57 183.99 40.62
L 184.96 49.24
L 191.40 43.84
C 205.47 32.06 221.64 26.82 235.35 29.61
C 239.54 30.46 246.44 32.81 250.69 34.83
C 257.76 38.18 344.65 97.11 367.28 113.90
C 375.18 119.76 377.21 120.73 378.57 119.36
C 379.50 118.44 400.14 92.52 424.44 61.78
C 451.02 28.15 470.29 4.91 472.79 3.45
C 478.06 0.37 482.66 1.42 485.18 6.26
C 489.57 14.77 541.42 155.12 541.08 157.58
C 540.87 159.06 539.67 160.47 538.43 160.70
C 536.76 161.02 535.33 159.14 532.79 153.31
C 530.92 149.01 528.74 145.52 527.95 145.55
C 525.94 145.61 511.53 149.09 510.98 149.64
C 510.72 149.88 511.43 153.18 512.54 156.95
C 514.09 162.26 514.22 164.52 513.11 166.98
C 510.63 172.39 507.47 170.20 504.38 160.94
C 502.83 156.33 500.81 152.43 499.87 152.27
C 498.93 152.09 495.26 152.70 491.71 153.63
L 485.27 155.30
L 484.88 163.17
C 484.49 171.32 482.46 174.75 478.85 173.37
C 477.16 172.71 476.86 163.24 476.58 99.84
L 476.24 27.04
L 456.27 52.35
C 445.29 66.28 426.84 89.54 415.31 104.03
C 403.77 118.53 394.49 130.53 394.68 130.70
C 394.88 130.88 400.55 134.09 407.29 137.83
C 441.47 156.89 477.97 185.70 494.08 206.36
C 516.16 234.68 531.19 260.99 542.40 290.99
C 545.97 300.55 552.93 318.80 557.86 331.55
C 567.73 357.06 572.50 371.47 575.59 385.02
C 577.44 393.17 577.44 394.56 575.57 401.00
C 574.30 405.33 571.52 410.34 568.34 414.03
C 565.22 417.63 563.41 420.85 563.80 422.12
C 565.72 428.47 569.64 448.92 570.87 459.01
C 579.03 526.20 579.97 536.77 579.99 562.40
C 580.00 585.70 579.96 585.99 576.84 589.12
C 570.87 595.07 564.96 592.52 547.04 576.31
L 537.47 567.64
L 537.47 580.61
C 537.47 599.76 538.36 599.23 507.98 598.36
C 484.97 597.71 472.18 595.82 468.98 592.61
C 468.25 591.89 466.55 582.12 465.16 570.88
C 461.96 544.92 457.01 514.70 452.84 495.71
L 449.59 480.90
L 439.07 470.19
C 423.99 454.83 419.13 451.11 417.06 453.36
C 416.16 454.34 412.93 462.39 409.91 471.24
C 396.35 510.80 394.19 516.21 391.71 516.99
C 390.08 517.51 384.19 515.07 374.49 509.91
L 359.74 502.04
L 359.07 506.28
C 358.70 508.61 357.22 519.52 355.77 530.51
C 351.02 566.86 351.38 567.80 370.23 567.84
C 384.02 567.86 406.49 570.79 415.31 573.71
C 425.91 577.21 431.29 586.34 427.46 594.35
C 424.99 599.54 422.54 599.90 419.65 595.49
C 417.20 591.76 415.42 591.50 411.44 594.28
C 408.99 596.00 400.90 596.34 354.77 596.69
C 325.17 596.92 294.21 597.55 285.98 598.08
C 269.85 599.14 269.24 598.94 264.63 591.52
C 263.19 589.21 262.78 589.39 257.92 594.53
C 252.15 600.61 251.10 600.79 232.36 598.91
C 224.64 598.13 222.41 597.36 219.29 594.37
L 215.53 590.77
L 211.84 595.39
L 208.16 600.00
L 181.60 600.00
L 155.05 600.00
L 149.40 596.20
L 143.72 592.40
L 140.49 595.40
C 137.73 597.99 135.41 598.55 124.21 599.30
L 111.14 600.18
L 106.42 596.05
M 133.40 589.88
C 136.11 585.44 144.76 578.25 152.14 574.33
C 156.37 572.07 159.82 569.91 159.82 569.51
C 159.82 568.49 136.08 570.24 127.60 571.88
C 109.41 575.41 101.86 585.59 113.07 591.46
C 117.77 593.91 131.60 592.84 133.40 589.88
M 206.02 588.06
C 211.34 580.34 220.46 572.27 225.66 570.66
C 228.08 569.92 232.85 568.93 236.25 568.47
C 240.93 567.84 242.74 566.95 243.64 564.82
C 244.30 563.28 249.54 545.03 255.30 524.27
C 265.30 488.15 265.65 486.44 263.38 484.73
C 262.07 483.73 258.56 481.15 255.59 478.98
L 250.16 475.03
L 248.92 479.90
C 248.24 482.58 246.42 489.68 244.90 495.71
C 238.84 519.66 223.15 563.72 219.65 566.61
C 218.65 567.45 212.16 568.87 205.26 569.77
C 171.92 574.13 150.80 580.83 150.80 587.03
C 150.80 587.69 152.33 589.43 154.19 590.90
C 157.33 593.36 159.28 593.56 179.92 593.56
L 202.23 593.56
L 206.02 588.06
M 251.62 587.76
C 254.12 584.20 257.98 580.84 261.58 579.06
L 267.44 576.18
L 250.26 575.82
C 234.41 575.48 232.67 575.69 227.80 578.39
C 224.90 580.00 222.31 581.99 222.05 582.80
C 221.78 583.61 222.99 585.93 224.73 587.95
C 227.40 591.04 229.19 591.75 236.07 592.39
C 240.57 592.82 244.98 593.25 245.88 593.37
C 246.78 593.47 249.36 590.95 251.62 587.76
M 345.42 590.21
C 399.88 589.48 403.00 589.30 407.03 586.84
C 409.94 585.08 412.50 584.50 415.09 585.01
C 420.10 586.02 419.95 583.87 414.80 581.21
C 408.50 577.96 393.16 575.70 370.67 574.73
C 343.90 573.55 344.75 574.27 345.85 553.78
C 346.53 540.95 350.24 512.59 352.61 502.11
C 353.28 499.15 352.69 498.57 346.47 495.99
C 342.68 494.42 339.30 493.13 338.95 493.13
C 338.62 493.13 338.32 501.68 338.29 512.12
C 338.26 533.54 335.95 546.57 329.89 559.44
C 323.14 573.81 317.93 576.48 290.64 579.45
C 282.85 580.30 275.16 581.50 273.57 582.10
C 269.94 583.47 269.87 586.33 273.36 589.82
C 275.62 592.07 277.07 592.39 282.06 591.75
C 285.36 591.33 313.87 590.64 345.42 590.21
M 528.44 589.70
C 530.69 587.46 531.02 585.41 531.02 573.84
L 531.02 560.55
L 496.02 525.88
C 476.76 506.81 460.78 491.87 460.51 492.70
C 460.22 493.52 461.73 503.09 463.85 513.94
C 468.10 535.66 471.13 555.54 472.47 570.39
C 473.69 583.84 475.61 588.06 480.97 589.03
C 483.33 589.45 487.87 590.29 491.07 590.90
C 494.26 591.50 503.39 592.06 511.37 592.13
C 524.26 592.26 526.15 591.99 528.44 589.70
M 572.43 579.94
C 574.24 571.60 573.35 549.76 569.69 513.09
C 564.57 461.90 559.53 427.76 556.50 423.97
C 555.82 423.10 551.98 420.89 547.97 419.06
C 539.53 415.20 534.31 410.64 531.06 404.29
C 529.80 401.81 526.03 390.80 522.68 379.83
C 508.66 333.90 490.16 290.20 472.04 260.19
C 452.57 227.92 420.74 196.79 386.60 176.60
C 380.61 173.06 371.35 167.02 366.04 163.18
C 360.73 159.33 348.45 150.62 338.77 143.81
C 321.40 131.58 290.55 107.39 269.60 89.59
C 250.80 73.62 238.59 66.94 228.22 66.97
C 216.61 66.99 206.13 75.05 199.11 89.34
C 191.98 103.87 190.32 117.73 194.00 131.88
C 195.09 136.03 195.63 140.48 195.22 141.81
C 193.94 145.83 189.09 146.00 181.78 142.30
C 175.87 139.31 174.63 137.94 171.20 130.61
C 167.98 123.73 167.19 120.17 166.65 109.76
C 166.02 98.01 166.36 95.69 171.92 73.26
C 175.20 60.09 177.87 47.85 177.87 46.04
C 177.87 39.59 172.78 26.29 168.32 21.08
C 162.75 14.58 152.18 9.76 138.93 7.67
L 129.00 6.10
L 109.93 12.00
C 99.45 15.24 87.64 18.81 83.70 19.92
L 76.53 21.93
L 78.17 31.25
C 80.31 43.43 80.34 58.33 78.22 66.48
L 76.52 73.00
L 95.35 75.88
C 119.45 79.55 128.71 78.33 142.09 69.72
C 146.04 67.18 147.27 66.91 148.85 68.23
C 151.81 70.67 151.38 71.36 143.60 76.52
C 137.85 80.33 135.72 82.75 133.01 88.61
C 130.05 95.01 129.62 97.62 129.58 109.44
C 129.55 121.44 130.01 124.30 133.74 134.97
C 136.04 141.58 139.51 150.27 141.44 154.29
C 146.24 164.21 165.51 183.39 175.96 188.61
C 197.50 199.39 214.20 216.18 227.82 240.77
C 231.74 247.84 234.47 252.62 247.61 275.29
C 252.98 284.59 256.93 289.45 265.19 296.96
C 276.98 307.69 280.20 312.45 287.00 329.18
C 298.82 358.30 321.60 428.61 330.63 463.85
L 335.45 482.65
L 349.46 488.70
C 357.16 492.03 363.48 495.10 363.48 495.55
C 363.49 495.99 368.98 499.24 375.67 502.78
C 383.92 507.12 388.28 508.78 389.17 507.89
C 389.89 507.17 395.44 492.72 401.51 475.78
C 407.60 458.83 413.19 444.22 413.95 443.30
C 414.71 442.38 416.20 441.63 417.25 441.63
C 418.31 441.63 444.77 466.69 476.06 497.32
C 551.58 571.25 557.87 577.26 563.80 581.23
C 569.77 585.22 571.34 584.99 572.43 579.94
M 317.50 565.25
C 319.92 563.12 323.20 558.36 324.80 554.65
C 328.65 545.70 332.49 526.69 332.53 516.31
C 332.57 508.06 327.42 475.04 326.11 475.17
C 325.74 475.21 318.90 483.32 310.91 493.20
C 300.12 506.52 295.62 511.16 293.49 511.16
C 291.53 511.16 287.86 507.95 281.70 500.86
C 276.79 495.19 272.42 490.56 272.01 490.56
C 271.34 490.56 264.69 514.13 253.92 554.58
L 250.42 567.73
L 266.67 568.13
C 275.60 568.36 289.70 568.66 298.02 568.82
L 313.11 569.10
L 317.50 565.25
M 309.23 484.56
L 323.94 465.68
L 322.35 457.84
C 320.29 447.68 289.76 356.03 280.93 333.48
C 274.49 317.06 273.63 315.61 265.43 307.40
C 255.63 297.58 253.15 296.56 254.45 302.90
C 255.57 308.37 257.21 322.38 259.16 343.27
C 262.02 373.84 259.43 424.94 253.37 457.35
L 251.76 465.98
L 261.53 473.02
C 266.94 476.92 275.86 485.29 281.48 491.76
C 287.07 498.18 292.31 503.43 293.09 503.43
C 293.88 503.43 301.14 494.94 309.23 484.56
M 561.30 410.51
C 565.62 407.11 569.62 398.73 569.66 393.00
C 569.69 387.95 563.86 370.27 544.92 318.03
C 525.30 263.91 520.20 253.44 499.06 224.03
C 484.73 204.08 479.22 198.10 461.42 183.18
C 442.36 167.19 418.48 151.11 393.96 137.77
C 384.19 132.46 370.75 124.35 364.09 119.74
C 357.43 115.13 330.34 96.33 303.91 77.96
C 277.47 59.59 252.61 42.93 248.65 40.94
C 228.58 30.91 211.07 34.39 192.24 52.15
C 181.95 61.84 179.39 67.30 175.15 88.61
C 172.12 103.82 172.47 117.15 176.14 126.32
C 178.36 131.86 185.33 138.55 187.08 136.80
C 187.69 136.20 187.55 132.31 186.75 128.05
C 185.92 123.61 185.66 116.09 186.15 110.16
C 187.64 91.97 199.93 71.02 213.26 63.98
C 221.32 59.70 235.40 60.06 245.53 64.78
C 256.55 69.91 266.18 76.57 275.82 85.75
C 297.37 106.25 354.61 148.78 392.47 172.43
C 417.92 188.32 448.71 215.78 463.16 235.45
C 486.57 267.33 503.31 302.50 525.21 365.67
C 536.20 397.39 538.30 402.26 542.83 406.48
C 545.84 409.29 553.54 413.16 556.31 413.25
C 557.10 413.28 559.34 412.04 561.30 410.51
M 507.53 142.42
C 517.64 140.07 526.19 137.88 526.51 137.55
C 527.28 136.78 486.38 30.85 484.64 29.11
C 483.76 28.24 483.33 47.48 483.33 87.97
L 483.33 148.12
L 486.23 147.40
C 487.83 147.01 497.41 144.77 507.53 142.42
M 426.03 78.86
C 446.56 52.84 466.40 27.94 470.12 23.54
C 474.71 18.12 476.89 14.38 476.89 11.99
C 476.89 8.45 476.89 8.45 474.31 11.01
C 472.89 12.42 452.06 38.48 428.03 68.91
C 387.99 119.59 383.48 126.04 388.01 126.15
C 388.39 126.17 405.50 104.88 426.03 78.86
M 72.69 67.07
C 74.20 61.83 73.31 61.21 61.26 58.98
C 48.01 56.52 35.33 56.96 28.36 60.10
L 22.56 62.72
L 28.36 64.35
C 35.04 66.23 68.34 71.95 70.23 71.54
C 70.93 71.38 72.04 69.37 72.69 67.07
M 18.77 56.25
C 29.52 50.88 38.63 49.60 54.84 51.19
C 62.60 51.95 70.26 52.98 71.86 53.47
C 74.55 54.31 74.76 53.99 74.76 49.00
C 74.76 42.00 72.22 25.40 70.94 24.05
C 70.40 23.47 61.31 24.50 50.76 26.34
C 28.37 30.23 19.69 33.80 14.18 41.41
C 10.89 45.94 7.73 55.75 7.73 61.42
C 7.73 63.28 7.95 63.30 9.99 61.51
C 11.23 60.41 15.18 58.06 18.77 56.25"/>
<path fill="#000000" stroke="none" d="
M 113.32 37.44
C 110.54 34.65 109.56 32.46 109.56 28.97
C 109.56 22.43 115.25 16.74 121.80 16.74
C 128.35 16.74 134.04 22.43 134.04 28.97
C 134.04 35.51 128.35 41.20 121.80 41.20
C 118.31 41.20 116.12 40.22 113.32 37.44
M 127.60 34.76
C 129.02 33.35 130.18 30.75 130.18 28.97
C 130.18 25.71 126.18 20.60 123.63 20.60
C 122.86 20.60 122.44 21.04 122.70 21.57
C 122.96 22.09 123.97 24.10 124.92 26.02
C 126.44 29.05 126.40 29.94 124.56 32.73
C 123.40 34.51 122.44 36.27 122.44 36.64
C 122.44 38.19 125.18 37.18 127.60 34.76"/>
<path fill="#d8c9c2" stroke="none" d="
M 563.80 581.23
C 557.87 577.26 551.58 571.25 476.06 497.32
C 444.77 466.69 418.31 441.63 417.25 441.63
C 416.20 441.63 414.71 442.38 413.95 443.30
C 413.19 444.22 407.60 458.83 401.51 475.78
C 395.44 492.72 389.89 507.17 389.17 507.89
C 388.28 508.78 383.92 507.12 375.67 502.78
C 368.98 499.24 363.49 495.99 363.48 495.55
C 363.48 495.10 357.16 492.03 349.46 488.70
L 335.45 482.65
L 330.63 463.85
C 321.60 428.61 298.82 358.30 287.00 329.18
C 280.20 312.45 276.98 307.69 265.19 296.96
C 256.93 289.45 252.98 284.59 247.61 275.29
C 234.47 252.62 231.74 247.84 227.82 240.77
C 214.20 216.18 197.50 199.39 175.96 188.61
C 165.51 183.39 146.24 164.21 141.44 154.29
C 139.51 150.27 136.04 141.58 133.74 134.97
C 130.01 124.30 129.55 121.44 129.58 109.44
C 129.62 97.62 130.05 95.01 133.01 88.61
C 135.72 82.75 137.85 80.33 143.60 76.52
C 151.38 71.36 151.81 70.67 148.85 68.23
C 147.27 66.91 146.04 67.18 142.09 69.72
C 128.71 78.33 119.45 79.55 95.35 75.88
L 76.52 73.00
L 78.22 66.48
C 80.34 58.33 80.31 43.43 78.17 31.25
L 76.53 21.93
L 83.70 19.93
C 87.64 18.82 98.11 15.67 106.98 12.91
C 128.33 6.28 130.45 6.00 141.97 8.23
C 154.25 10.60 163.51 15.19 168.75 21.53
C 172.83 26.45 177.87 39.99 177.87 46.04
C 177.87 47.85 175.20 60.09 171.92 73.26
C 166.36 95.69 166.02 98.01 166.65 109.76
C 167.19 120.17 167.98 123.73 171.20 130.61
C 174.63 137.94 175.87 139.31 181.78 142.30
C 189.09 146.00 193.94 145.83 195.22 141.81
C 195.63 140.48 195.09 136.03 194.00 131.88
C 190.32 117.73 191.98 103.87 199.11 89.34
C 206.13 75.05 216.61 66.99 228.22 66.97
C 238.59 66.94 250.80 73.62 269.60 89.59
C 290.55 107.39 321.40 131.58 338.77 143.81
C 348.45 150.62 360.73 159.33 366.04 163.18
C 371.35 167.02 380.61 173.06 386.60 176.60
C 420.74 196.79 452.57 227.92 472.04 260.19
C 490.16 290.20 508.66 333.90 522.68 379.83
C 526.03 390.80 529.80 401.81 531.06 404.29
C 534.31 410.64 539.53 415.20 547.97 419.06
C 551.98 420.89 555.82 423.10 556.50 423.97
C 559.53 427.76 564.57 461.90 569.69 513.09
C 574.35 559.85 574.54 582.72 570.24 584.15
C 569.48 584.41 566.58 583.09 563.80 581.23
M 130.28 37.44
C 133.06 34.65 134.04 32.46 134.04 28.97
C 134.04 22.43 128.35 16.74 121.80 16.74
C 115.25 16.74 109.56 22.43 109.56 28.97
C 109.56 35.51 115.25 41.20 121.80 41.20
C 125.29 41.20 127.48 40.22 130.28 37.44"/>
<path fill="#d8c9c2" stroke="none" d="
M 281.48 491.76
C 275.86 485.29 266.94 476.92 261.53 473.02
L 251.76 465.98
L 253.37 457.35
C 259.43 424.94 262.02 373.84 259.16 343.27
C 257.21 322.38 255.57 308.37 254.45 302.90
C 253.15 296.56 255.63 297.58 265.43 307.40
C 273.63 315.61 274.49 317.06 280.93 333.48
C 289.76 356.03 320.29 447.68 322.35 457.84
L 323.94 465.68
L 309.23 484.56
C 301.14 494.94 293.88 503.43 293.09 503.43
C 292.31 503.43 287.07 498.18 281.48 491.76"/>
<path fill="#bc793e" stroke="none" d="
M 385.80 125.19
C 384.82 124.56 399.68 104.78 428.99 67.69
C 453.57 36.59 474.40 10.92 475.29 10.62
C 479.09 9.35 476.39 16.12 470.12 23.54
C 466.40 27.94 446.56 52.84 426.03 78.86
C 405.50 104.88 388.39 126.17 388.01 126.15
C 387.62 126.15 386.64 125.72 385.80 125.19"/>
<path fill="#eb2e00" stroke="none" d="
M 122.70 36.37
C 122.96 35.85 123.97 33.84 124.92 31.92
C 126.44 28.89 126.40 28.00 124.57 25.22
C 121.89 21.13 124.04 19.62 127.55 23.12
C 130.89 26.46 130.91 31.45 127.60 34.76
C 125.11 37.25 121.74 38.36 122.70 36.37"/>
<path fill="#7b8887" stroke="none" d="
M 51.56 68.90
C 41.99 67.30 31.55 65.25 28.36 64.35
L 22.56 62.72
L 28.36 60.10
C 35.33 56.96 48.01 56.52 61.26 58.98
C 73.31 61.21 74.20 61.83 72.69 67.07
C 72.04 69.37 70.93 71.38 70.23 71.54
C 69.52 71.69 61.12 70.49 51.56 68.90"/>
<path fill="#7b8887" stroke="none" d="
M 7.73 61.42
C 7.73 55.75 10.89 45.94 14.18 41.41
C 19.76 33.71 28.38 30.18 50.82 26.38
C 61.42 24.59 70.49 23.58 71.00 24.12
C 72.23 25.42 74.76 42.17 74.76 49.00
C 74.76 53.99 74.55 54.31 71.86 53.47
C 70.26 52.98 62.60 51.95 54.84 51.19
C 44.07 50.14 38.90 50.19 33.01 51.40
C 25.20 53.01 14.11 57.88 9.99 61.51
C 7.95 63.30 7.73 63.28 7.73 61.42"/>
<path fill="#ffbf53" stroke="none" d="
M 483.33 88.87
C 483.33 55.67 483.84 29.61 484.47 29.61
C 485.81 29.61 483.84 24.79 507.78 86.82
C 518.42 114.39 526.86 137.21 526.52 137.55
C 526.19 137.88 517.64 140.07 507.53 142.42
C 497.41 144.77 487.83 147.01 486.23 147.40
L 483.33 148.12
L 483.33 88.87"/>
<path fill="#877e81" stroke="none" d="
M 550.37 411.26
C 544.57 408.73 540.37 404.78 537.52 399.14
C 536.27 396.66 530.73 381.61 525.21 365.67
C 503.31 302.50 486.57 267.33 463.16 235.45
C 448.71 215.78 417.92 188.32 392.47 172.43
C 354.61 148.78 297.37 106.25 275.82 85.75
C 266.18 76.57 256.55 69.91 245.53 64.78
C 235.40 60.06 221.32 59.70 213.26 63.98
C 199.93 71.02 187.64 91.97 186.15 110.16
C 185.66 116.09 185.92 123.61 186.75 128.05
C 187.55 132.31 187.69 136.20 187.08 136.80
C 185.33 138.55 178.36 131.86 176.14 126.32
C 172.47 117.15 172.12 103.82 175.15 88.61
C 179.39 67.30 181.95 61.84 192.24 52.15
C 210.95 34.51 228.70 30.98 248.65 40.94
C 252.61 42.93 277.47 59.59 303.91 77.96
C 330.34 96.33 357.43 115.13 364.09 119.74
C 370.75 124.35 384.19 132.46 393.96 137.77
C 418.48 151.11 442.36 167.19 461.42 183.18
C 479.22 198.10 484.73 204.08 499.06 224.03
C 520.20 253.44 525.30 263.91 544.92 318.03
C 563.86 370.27 569.69 387.95 569.66 393.00
C 569.62 398.73 565.62 407.11 561.30 410.51
C 557.14 413.78 556.34 413.83 550.37 411.26"/>
<path fill="#8d8c86" stroke="none" d="
M 113.07 591.46
C 101.86 585.59 109.41 575.41 127.60 571.88
C 136.08 570.24 159.82 568.49 159.82 569.51
C 159.82 569.91 156.37 572.07 152.14 574.33
C 144.76 578.25 136.11 585.44 133.40 589.88
C 131.60 592.84 117.77 593.91 113.07 591.46"/>
<path fill="#8d8c86" stroke="none" d="
M 154.19 590.90
C 152.33 589.43 150.80 587.69 150.80 587.03
C 150.80 580.83 171.92 574.13 205.26 569.77
C 212.16 568.87 218.65 567.45 219.65 566.61
C 223.48 563.43 240.43 514.88 246.20 490.56
C 247.79 483.82 249.58 477.80 250.17 477.15
C 251.11 476.10 255.07 478.36 263.38 484.70
C 265.65 486.44 265.32 488.12 255.30 524.27
C 249.54 545.03 244.30 563.28 243.64 564.82
C 242.74 566.95 240.93 567.84 236.25 568.47
C 232.85 568.93 228.08 569.92 225.66 570.66
C 220.46 572.27 211.34 580.34 206.02 588.06
L 202.23 593.56
L 179.92 593.56
C 159.28 593.56 157.33 593.36 154.19 590.90"/>
<path fill="#8d8c86" stroke="none" d="
M 236.07 592.39
C 229.19 591.75 227.40 591.04 224.73 587.95
C 222.99 585.93 221.78 583.61 222.05 582.80
C 222.31 581.99 224.90 580.00 227.80 578.39
C 232.67 575.69 234.41 575.48 250.26 575.82
L 267.44 576.18
L 261.58 579.06
C 257.98 580.84 254.12 584.20 251.62 587.76
C 249.36 590.95 246.78 593.47 245.88 593.37
C 244.98 593.25 240.57 592.82 236.07 592.39"/>
<path fill="#8d8c86" stroke="none" d="
M 273.36 589.82
C 269.87 586.33 269.94 583.47 273.57 582.10
C 275.16 581.50 282.85 580.30 290.64 579.45
C 317.93 576.48 323.14 573.81 329.89 559.44
C 335.95 546.57 338.26 533.54 338.29 512.12
C 338.32 501.68 338.62 493.13 338.95 493.13
C 339.30 493.13 342.68 494.42 346.47 495.99
C 352.69 498.57 353.28 499.15 352.61 502.11
C 350.24 512.59 346.53 540.95 345.85 553.78
C 344.75 574.27 343.90 573.55 370.67 574.73
C 393.16 575.70 408.50 577.96 414.80 581.21
C 419.95 583.87 420.10 586.02 415.09 585.01
C 412.50 584.50 409.94 585.08 407.03 586.84
C 403.00 589.30 399.88 589.48 345.42 590.21
C 313.87 590.64 285.36 591.33 282.06 591.75
C 277.07 592.39 275.62 592.07 273.36 589.82"/>
<path fill="#3c3334" stroke="none" d="
M 491.07 590.90
C 487.87 590.29 483.33 589.45 480.97 589.03
C 475.61 588.06 473.69 583.84 472.47 570.39
C 471.13 555.55 468.10 535.64 463.92 514.38
C 461.85 503.76 460.15 494.63 460.13 494.10
C 460.12 490.88 466.53 496.57 497.05 526.85
L 531.02 560.58
L 531.02 573.85
C 531.02 592.06 530.74 592.33 511.37 592.13
C 503.39 592.06 494.26 591.50 491.07 590.90"/>
</g>
</svg>
