<?xml version="1.0" encoding="UTF-8" standalone="no"?>
<!DOCTYPE svg PUBLIC "-//W3C//DTD SVG 1.1//EN"
"http://www.w3.org/Graphics/SVG/1.1/DTD/svg11.dtd">
<svg width="589px" height="600px"
xmlns="http://www.w3.org/2000/svg" version="1.1">
<g transform="translate(0000, 0000) scale(1.0000, 1.0000)">
<path fill="#000000" stroke="none" d="
M 10.65 598.78
C 1.50 597.33 0.00 596.63 0.00 593.78
C 0.00 590.20 4.55 585.01 10.99 581.24
C 17.21 577.60 25.15 576.10 48.11 574.25
C 56.50 573.57 74.48 571.21 88.07 569.01
L 112.77 565.00
L 117.63 559.78
C 123.43 553.53 126.18 545.20 130.88 519.53
C 134.62 499.04 137.39 446.23 135.97 422.32
C 134.05 389.90 128.74 355.93 120.36 322.53
C 113.20 293.97 111.19 290.41 87.54 264.42
C 64.83 239.48 49.53 220.87 43.70 211.08
C 33.99 194.78 28.59 175.87 25.20 146.12
C 24.18 137.25 21.91 126.04 19.86 119.74
C 16.52 109.52 16.28 107.36 16.29 86.91
L 16.30 65.02
L 24.24 34.12
C 31.94 4.18 33.63 0.00 38.09 0.00
C 38.91 0.00 44.12 5.19 49.65 11.54
L 59.71 23.07
L 64.27 19.07
C 82.78 2.83 126.06 -1.82 162.16 8.55
C 174.77 12.17 181.28 15.30 187.40 20.65
L 191.84 24.57
L 200.47 12.21
C 207.12 2.69 209.68 -0.05 211.68 0.26
C 213.77 0.57 216.00 5.32 223.34 25.09
C 228.34 38.54 233.11 50.23 233.94 51.06
C 237.15 54.27 239.08 68.81 238.96 88.84
C 238.85 106.20 238.42 110.18 235.63 119.36
L 232.42 129.90
L 243.49 136.64
C 259.68 146.47 286.64 165.85 297.67 175.58
C 318.15 193.66 327.08 205.34 372.55 273.61
C 423.42 350.00 426.54 354.36 483.97 430.04
C 546.29 512.15 586.36 569.01 588.38 578.23
C 589.49 583.30 586.68 594.84 584.09 595.83
C 578.08 598.12 554.33 577.24 510.08 530.76
C 493.05 512.85 478.82 498.48 478.48 498.82
C 478.13 499.17 479.58 501.66 481.68 504.33
C 487.37 511.61 521.26 562.58 530.60 577.96
C 542.91 598.18 541.70 600.85 520.77 599.61
C 504.99 598.69 469.99 592.07 453.90 586.97
C 440.46 582.71 421.21 573.26 415.87 568.31
C 414.05 566.64 410.62 561.93 408.27 557.85
C 405.89 553.76 393.03 531.61 379.65 508.58
L 355.35 466.74
L 337.37 455.38
C 327.48 449.12 319.25 444.21 319.05 444.44
C 318.43 445.20 323.43 479.42 326.23 493.55
C 329.12 508.13 328.55 513.73 324.18 513.73
C 323.10 513.73 315.98 509.18 308.37 503.59
C 300.74 498.01 291.60 492.01 288.06 490.25
C 280.59 486.54 268.18 482.30 267.32 483.15
C 266.61 483.88 268.96 522.55 270.73 539.48
C 272.46 555.90 274.02 561.22 277.49 562.66
C 279.05 563.32 289.90 565.02 301.59 566.46
C 334.85 570.55 351.62 576.35 361.35 587.11
C 370.77 597.53 379.36 596.72 253.24 597.32
C 191.57 597.62 119.09 597.91 92.15 597.98
C 65.22 598.04 37.38 598.49 30.29 598.97
C 23.20 599.45 14.36 599.36 10.65 598.78
M 34.26 591.67
C 38.95 590.28 41.27 588.72 43.00 585.79
C 44.30 583.60 44.99 581.43 44.56 580.98
C 43.46 579.90 22.74 582.97 18.34 584.87
C 16.41 585.70 13.39 587.28 11.65 588.36
L 8.49 590.34
L 14.87 591.82
C 23.70 593.88 26.90 593.86 34.26 591.67
M 527.78 592.27
C 528.22 591.58 515.86 570.57 500.31 545.60
C 484.78 520.64 471.33 498.77 470.43 497.00
C 463.07 482.58 426.34 449.63 400.04 433.87
C 393.74 430.08 388.29 426.64 387.94 426.22
C 387.59 425.81 380.92 421.38 373.12 416.41
C 349.96 401.61 179.19 277.12 170.55 268.73
C 159.48 257.99 154.13 245.76 154.07 231.09
C 154.02 221.96 154.51 219.76 158.26 212.16
C 164.65 199.18 178.96 186.42 195.23 179.18
C 213.84 170.90 221.04 169.60 249.39 169.35
C 262.86 169.24 274.16 168.63 274.52 168.01
C 275.17 166.89 268.19 161.03 253.17 150.04
C 243.75 143.15 230.88 136.22 229.31 137.19
C 228.68 137.58 225.64 141.77 222.53 146.52
C 210.27 165.28 200.70 173.38 175.28 186.44
C 158.84 194.88 157.05 195.50 142.52 197.67
C 127.39 199.93 126.92 199.93 110.67 197.25
C 78.45 191.96 56.09 178.82 35.73 153.22
L 32.14 148.71
L 32.94 154.51
C 34.63 166.83 37.74 179.91 40.70 187.18
C 50.64 211.64 73.70 241.62 116.02 285.18
C 161.40 331.87 177.74 350.29 191.42 370.17
C 198.60 380.63 210.24 404.47 217.17 422.96
C 221.96 435.76 229.41 462.86 229.41 467.52
C 229.41 468.86 230.14 469.97 231.02 469.98
C 231.91 469.98 239.35 470.55 247.56 471.23
C 260.29 472.29 264.47 473.25 275.91 477.76
C 291.30 483.81 301.83 489.42 311.76 496.87
C 315.59 499.73 319.13 501.81 319.63 501.50
C 320.14 501.19 319.19 492.08 317.54 481.26
C 311.16 439.66 311.28 440.70 313.10 438.52
C 315.97 435.06 319.56 436.18 332.39 444.57
C 339.20 449.01 348.35 454.94 352.74 457.74
C 360.68 462.81 360.79 462.97 379.72 495.68
C 417.20 560.51 418.86 563.07 425.87 567.18
C 442.39 576.82 480.88 589.33 502.83 592.17
C 514.70 593.72 526.87 593.77 527.78 592.27
M 141.76 586.49
C 144.59 583.73 146.93 580.92 146.93 580.26
C 146.93 579.57 144.12 579.45 140.16 579.99
C 136.44 580.49 128.69 581.36 122.94 581.90
C 114.18 582.71 111.72 583.47 107.77 586.61
L 103.07 590.34
L 107.27 591.21
C 109.59 591.68 117.13 591.95 124.04 591.81
L 136.58 591.54
L 141.76 586.49
M 99.99 584.28
L 108.87 577.57
L 131.94 574.66
C 144.63 573.06 155.24 571.53 155.51 571.26
C 155.78 570.99 158.60 550.55 161.79 525.84
C 167.09 484.58 167.39 480.77 165.45 479.34
C 163.27 477.75 152.62 475.20 146.15 474.73
L 142.46 474.46
L 140.19 496.65
C 137.48 523.12 132.94 545.52 128.14 556.22
C 124.95 563.32 117.68 571.67 114.71 571.67
C 114.05 571.67 100.21 573.70 83.96 576.18
C 67.70 578.67 53.80 580.69 53.07 580.69
C 51.48 580.69 49.75 587.82 50.88 589.67
C 51.39 590.47 59.35 590.99 71.41 590.99
L 91.12 590.99
L 99.99 584.28
M 342.86 589.03
C 348.41 582.35 323.63 574.56 289.34 572.23
C 273.32 571.15 269.54 569.81 267.29 564.46
C 265.10 559.21 263.53 543.76 261.60 508.58
C 260.42 486.95 259.78 481.89 258.08 480.58
C 256.92 479.69 252.42 478.97 248.01 478.97
C 243.63 478.97 238.14 478.58 235.82 478.12
L 231.59 477.28
L 232.39 485.52
C 232.83 490.07 233.90 507.40 234.76 524.06
L 236.32 554.34
L 232.00 562.44
C 229.63 566.88 226.77 571.00 225.65 571.58
C 224.53 572.18 209.69 573.63 192.68 574.83
C 175.67 576.03 160.45 577.53 158.85 578.18
C 156.66 579.06 155.95 580.39 155.95 583.62
C 155.95 585.98 156.65 588.59 157.50 589.44
C 158.67 590.61 181.00 590.99 250.14 590.99
C 330.03 590.99 341.43 590.74 342.86 589.03
M 581.81 582.88
C 582.90 578.52 582.48 577.33 576.14 566.88
C 565.45 549.24 555.09 534.64 528.72 500.06
C 457.60 406.78 412.76 344.88 369.97 280.96
C 328.55 219.06 316.76 203.14 301.36 188.29
C 296.38 183.50 294.09 182.41 282.85 179.48
C 258.99 173.29 228.34 173.96 208.38 181.12
C 193.17 186.57 184.18 191.99 174.52 201.50
C 159.51 216.30 156.23 230.63 164.00 247.45
C 170.37 261.23 175.60 266.01 219.98 298.33
C 295.94 353.67 385.34 416.83 414.00 435.41
C 426.85 443.76 462.41 473.72 484.48 494.81
C 490.43 500.50 504.59 515.05 515.94 527.15
C 557.37 571.30 575.87 589.12 579.15 588.05
C 579.97 587.79 581.15 585.46 581.81 582.88
M 188.38 568.44
C 225.35 565.40 222.45 566.16 226.38 558.42
C 229.66 551.97 229.74 551.28 228.94 535.65
L 228.11 519.53
L 218.78 510.75
C 207.45 500.11 196.93 492.45 185.08 486.22
C 175.85 481.36 172.70 480.54 172.70 482.96
C 172.70 485.03 163.79 561.28 162.97 566.20
C 162.59 568.51 162.83 570.39 163.50 570.39
C 164.17 570.39 175.37 569.51 188.38 568.44
M 226.27 498.61
C 221.18 440.74 201.36 389.64 169.38 351.95
C 153.22 332.91 123.21 300.91 122.76 302.25
C 122.52 302.99 123.79 308.72 125.58 314.99
C 137.25 355.65 144.09 408.59 142.76 447.77
C 142.16 465.67 142.21 466.15 144.87 466.62
C 146.35 466.89 153.37 468.41 160.46 470.01
C 179.83 474.36 202.04 486.58 219.75 502.64
C 223.29 505.84 226.41 508.49 226.67 508.53
C 226.93 508.56 226.75 504.09 226.27 498.61
M 146.58 189.36
C 166.32 185.29 190.39 171.85 203.75 157.43
C 222.84 136.84 232.47 113.19 232.47 86.91
C 232.47 70.21 231.51 66.39 219.30 33.61
L 210.47 9.91
L 206.16 16.17
C 199.80 25.42 193.31 32.19 190.85 32.19
C 189.65 32.19 186.68 30.09 184.24 27.52
C 168.41 10.85 119.19 4.52 86.29 14.90
C 78.27 17.43 74.71 19.43 69.16 24.50
C 65.31 28.02 61.26 30.90 60.18 30.90
C 59.09 30.90 53.62 25.94 48.00 19.91
L 37.79 8.90
L 32.50 29.88
C 24.32 62.37 22.53 73.40 22.72 90.46
C 22.89 104.97 23.50 108.14 28.08 118.45
C 29.18 120.93 31.07 125.65 32.29 128.94
C 37.58 143.38 53.77 162.28 70.11 173.10
C 83.03 181.64 94.03 186.33 108.26 189.35
C 122.52 192.36 131.99 192.37 146.58 189.36"/>
<path fill="#000000" stroke="none" d="
M 123.19 140.02
C 122.14 138.42 115.70 125.25 108.87 110.73
C 102.02 96.21 96.04 83.92 95.57 83.42
C 95.09 82.91 92.15 84.50 89.05 86.96
C 79.01 94.91 69.47 95.83 60.43 89.74
C 48.10 81.45 45.75 66.31 55.09 55.24
C 59.09 50.47 67.26 46.40 72.82 46.40
C 77.72 46.40 86.22 50.27 89.57 54.03
C 90.99 55.61 100.00 73.43 109.58 93.62
C 119.17 113.81 127.53 130.30 128.15 130.27
C 128.78 130.25 136.81 113.82 145.97 93.76
C 155.15 73.71 163.90 55.92 165.42 54.23
C 168.97 50.30 177.41 46.40 182.37 46.40
C 187.93 46.40 196.10 50.47 200.11 55.24
C 209.44 66.31 207.09 81.45 194.76 89.74
C 185.64 95.88 175.15 94.79 166.26 86.76
L 161.26 82.25
L 159.31 85.22
C 158.24 86.86 152.07 99.79 145.59 113.95
C 139.09 128.11 133.20 140.42 132.47 141.31
C 130.34 143.90 125.25 143.19 123.19 140.02
M 76.92 86.19
C 82.00 84.27 87.33 78.86 88.94 74.01
C 92.41 63.52 79.01 50.27 68.81 54.12
C 59.92 57.48 54.09 67.16 56.76 74.18
C 58.62 79.09 62.90 83.61 67.66 85.74
C 72.45 87.86 72.48 87.86 76.92 86.19
M 186.47 86.19
C 191.55 84.27 196.88 78.86 198.49 74.01
C 201.96 63.52 188.56 50.27 178.36 54.12
C 169.47 57.48 163.64 67.16 166.31 74.18
C 168.17 79.09 172.45 83.61 177.22 85.74
C 182.00 87.86 182.04 87.86 186.47 86.19"/>
<path fill="#000000" stroke="none" d="
M 65.02 77.96
C 58.08 71.01 62.99 59.23 72.82 59.23
C 79.11 59.23 83.77 63.89 83.77 70.17
C 83.77 76.45 79.11 81.12 72.82 81.12
C 69.62 81.12 67.21 80.14 65.02 77.96"/>
<path fill="#000000" stroke="none" d="
M 174.57 77.96
C 167.63 71.01 172.54 59.23 182.37 59.23
C 188.66 59.23 193.33 63.89 193.33 70.17
C 193.33 76.45 188.66 81.12 182.37 81.12
C 179.17 81.12 176.76 80.14 174.57 77.96"/>
<path fill="#d7d6c7" stroke="none" d="
M 108.26 189.35
C 94.03 186.33 83.03 181.64 70.11 173.10
C 53.77 162.28 37.58 143.38 32.29 128.94
C 31.07 125.65 29.18 120.93 28.08 118.45
C 23.50 108.14 22.89 104.97 22.72 90.46
C 22.62 80.54 23.35 71.11 24.89 63.09
C 27.62 48.79 36.32 13.33 37.63 11.19
C 38.19 10.29 42.26 13.74 48.37 20.32
C 53.80 26.14 59.11 30.90 60.19 30.90
C 61.26 30.90 65.31 28.02 69.16 24.50
C 74.71 19.43 78.27 17.43 86.29 14.90
C 119.19 4.52 168.41 10.85 184.24 27.52
C 186.68 30.09 189.65 32.19 190.85 32.19
C 193.31 32.19 199.80 25.42 206.16 16.17
L 210.47 9.91
L 219.30 33.61
C 231.51 66.39 232.47 70.21 232.47 86.91
C 232.47 113.19 222.84 136.84 203.75 157.43
C 190.39 171.85 166.32 185.29 146.58 189.36
C 131.99 192.37 122.52 192.36 108.26 189.35
M 132.47 141.31
C 133.20 140.42 139.09 128.11 145.59 113.95
C 152.07 99.79 158.24 86.86 159.31 85.22
L 161.26 82.25
L 166.26 86.76
C 175.15 94.79 185.64 95.88 194.76 89.74
C 207.09 81.45 209.44 66.31 200.11 55.24
C 196.10 50.47 187.93 46.40 182.37 46.40
C 177.41 46.40 168.97 50.30 165.42 54.23
C 163.90 55.92 155.15 73.71 145.97 93.76
C 136.81 113.82 128.78 130.25 128.15 130.27
C 127.53 130.30 119.17 113.81 109.58 93.62
C 100.00 73.43 90.99 55.61 89.57 54.03
C 86.22 50.27 77.72 46.40 72.82 46.40
C 67.26 46.40 59.09 50.47 55.09 55.24
C 45.75 66.31 48.10 81.45 60.43 89.74
C 69.47 95.83 79.01 94.91 89.05 86.96
C 92.15 84.50 95.09 82.91 95.57 83.42
C 96.04 83.92 102.02 96.21 108.87 110.73
C 115.70 125.25 122.14 138.42 123.19 140.02
C 125.25 143.19 130.34 143.90 132.47 141.31"/>
<path fill="#eb2e00" stroke="none" d="
M 67.66 85.74
C 62.90 83.61 58.62 79.09 56.76 74.18
C 52.87 63.90 66.74 50.30 77.10 54.23
C 85.67 57.48 91.30 66.84 88.97 73.93
C 87.33 78.85 82.03 84.26 76.92 86.19
C 72.48 87.86 72.45 87.86 67.66 85.74
M 80.62 77.96
C 87.56 71.01 82.65 59.23 72.82 59.23
C 66.53 59.23 61.86 63.89 61.86 70.17
C 61.86 76.45 66.53 81.12 72.82 81.12
C 76.02 81.12 78.43 80.14 80.62 77.96"/>
<path fill="#eb2e00" stroke="none" d="
M 177.22 85.74
C 172.45 83.61 168.17 79.09 166.31 74.18
C 163.64 67.16 169.47 57.48 178.36 54.12
C 188.56 50.27 201.96 63.52 198.49 74.01
C 196.88 78.86 191.55 84.27 186.47 86.19
C 182.04 87.86 182.00 87.86 177.22 85.74
M 190.17 77.96
C 197.12 71.01 192.20 59.23 182.37 59.23
C 176.08 59.23 171.42 63.89 171.42 70.17
C 171.42 76.45 176.08 81.12 182.37 81.12
C 185.57 81.12 187.98 80.14 190.17 77.96"/>
<path fill="#f8c574" stroke="none" d="
M 502.83 592.17
C 480.88 589.33 442.39 576.82 425.87 567.18
C 418.86 563.07 417.20 560.51 379.72 495.68
C 360.79 462.97 360.68 462.81 352.74 457.74
C 348.35 454.94 339.20 449.01 332.39 444.57
C 319.56 436.18 315.97 435.06 313.10 438.52
C 311.28 440.70 311.16 439.66 317.54 481.26
C 319.19 492.08 320.14 501.19 319.63 501.50
C 319.13 501.81 315.59 499.73 311.76 496.87
C 301.83 489.42 291.30 483.81 275.91 477.76
C 264.47 473.25 260.29 472.29 247.56 471.23
C 239.35 470.55 231.91 469.98 231.02 469.98
C 230.14 469.97 229.41 468.86 229.41 467.52
C 229.41 462.86 221.96 435.76 217.17 422.96
C 210.24 404.47 198.60 380.63 191.42 370.17
C 177.74 350.29 161.40 331.87 116.02 285.18
C 73.70 241.62 50.64 211.64 40.70 187.18
C 37.74 179.91 34.63 166.83 32.94 154.51
L 32.14 148.71
L 35.73 153.22
C 49.40 170.41 66.19 183.35 84.17 190.55
C 90.18 192.94 100.77 195.63 110.67 197.25
C 126.92 199.93 127.39 199.93 142.52 197.67
C 157.05 195.50 158.84 194.88 175.28 186.44
C 200.72 173.37 210.27 165.28 222.57 146.46
C 226.80 140.00 228.99 137.77 231.14 137.77
C 234.57 137.77 249.98 147.03 260.73 155.55
C 274.77 166.67 275.93 167.70 275.19 168.42
C 274.81 168.82 263.32 169.24 249.69 169.35
C 221.00 169.60 213.90 170.87 195.23 179.18
C 178.96 186.42 164.65 199.18 158.26 212.16
C 154.51 219.76 154.02 221.96 154.07 231.09
C 154.13 245.76 159.48 257.99 170.55 268.73
C 179.19 277.12 349.96 401.61 373.12 416.41
C 380.92 421.38 387.59 425.81 387.94 426.22
C 388.29 426.64 393.74 430.08 400.04 433.87
C 426.34 449.63 463.07 482.58 470.43 497.00
C 471.33 498.77 484.78 520.64 500.31 545.60
C 515.86 570.57 528.22 591.58 527.78 592.27
C 526.87 593.77 514.70 593.72 502.83 592.17"/>
<path fill="#f8c574" stroke="none" d="
M 219.75 502.64
C 202.04 486.58 179.83 474.36 160.46 470.01
C 153.37 468.41 146.35 466.89 144.87 466.62
C 142.21 466.15 142.16 465.67 142.76 447.77
C 144.09 408.59 137.25 355.65 125.58 314.99
C 123.79 308.72 122.52 302.99 122.76 302.25
C 123.21 300.91 153.22 332.91 169.38 351.95
C 196.87 384.35 215.11 425.68 222.87 473.18
C 225.41 488.73 227.54 508.64 226.67 508.53
C 226.41 508.49 223.29 505.84 219.75 502.64"/>
<path fill="#6b8e92" stroke="none" d="
M 570.13 582.17
C 561.47 574.87 545.42 558.58 515.94 527.15
C 504.59 515.05 490.43 500.50 484.48 494.81
C 462.41 473.72 426.85 443.76 414.00 435.41
C 385.34 416.83 295.94 353.67 219.98 298.33
C 175.60 266.01 170.37 261.23 164.00 247.45
C 156.23 230.63 159.51 216.30 174.52 201.50
C 184.20 191.95 193.16 186.57 208.53 181.07
C 228.18 174.03 259.16 173.37 282.85 179.50
C 294.10 182.41 296.37 183.49 301.36 188.29
C 316.76 203.14 328.55 219.06 369.97 280.96
C 412.76 344.88 457.60 406.78 528.72 500.06
C 555.09 534.64 565.45 549.24 576.14 566.88
C 582.48 577.33 582.90 578.52 581.81 582.88
C 581.15 585.46 579.97 587.79 579.15 588.05
C 578.34 588.32 574.28 585.67 570.13 582.17"/>
<path fill="#828282" stroke="none" d="
M 50.88 589.67
C 49.75 587.82 51.48 580.69 53.07 580.69
C 53.80 580.69 67.70 578.67 83.96 576.18
C 100.21 573.70 114.05 571.67 114.71 571.67
C 115.36 571.67 117.86 569.95 120.27 567.85
C 129.58 559.67 136.14 536.37 140.01 497.64
C 141.21 485.60 142.82 475.33 143.59 474.81
C 144.36 474.30 145.86 474.12 146.93 474.40
C 148.00 474.70 152.12 475.57 156.10 476.36
C 168.83 478.88 168.35 474.75 161.79 525.84
C 158.60 550.55 155.78 570.99 155.51 571.26
C 155.24 571.53 144.63 573.06 131.94 574.66
L 108.87 577.57
L 99.99 584.28
L 91.12 590.99
L 71.41 590.99
C 59.35 590.99 51.39 590.47 50.88 589.67"/>
<path fill="#828282" stroke="none" d="
M 157.50 589.44
C 156.65 588.59 155.95 585.98 155.95 583.62
C 155.95 580.39 156.66 579.06 158.85 578.18
C 160.45 577.53 175.67 576.03 192.68 574.83
C 209.69 573.63 224.53 572.18 225.65 571.58
C 226.77 571.00 229.63 566.88 232.00 562.44
L 236.32 554.34
L 234.76 524.06
C 233.90 507.40 232.83 490.07 232.39 485.52
L 231.59 477.28
L 235.82 478.12
C 238.14 478.58 243.63 478.97 248.01 478.97
C 252.42 478.97 256.92 479.69 258.08 480.58
C 259.78 481.89 260.42 486.95 261.60 508.58
C 263.53 543.76 265.10 559.21 267.29 564.46
C 269.54 569.81 273.32 571.15 289.34 572.23
C 323.63 574.56 348.41 582.35 342.86 589.03
C 341.43 590.74 330.03 590.99 250.14 590.99
C 181.00 590.99 158.67 590.61 157.50 589.44"/>
<path fill="#e4e2cb" stroke="none" d="
M 14.87 591.82
L 8.49 590.34
L 11.65 588.36
C 13.39 587.28 16.41 585.70 18.34 584.87
C 22.74 582.97 43.46 579.90 44.56 580.98
C 44.99 581.43 44.30 583.60 43.00 585.79
C 41.27 588.72 38.95 590.28 34.26 591.67
C 26.90 593.86 23.70 593.88 14.87 591.82"/>
<path fill="#e4e2cb" stroke="none" d="
M 107.27 591.21
L 103.07 590.34
L 107.77 586.61
C 111.83 583.39 114.09 582.73 124.22 581.81
C 130.69 581.21 138.43 580.36 141.45 579.91
C 144.48 579.46 146.93 579.63 146.93 580.27
C 146.93 580.92 144.59 583.73 141.76 586.49
L 136.58 591.54
L 124.04 591.81
C 117.13 591.95 109.59 591.68 107.27 591.21"/>
</g>
</svg>
