<?xml version="1.0" encoding="UTF-8" standalone="no"?>
<!DOCTYPE svg PUBLIC "-//W3C//DTD SVG 1.1//EN"
"http://www.w3.org/Graphics/SVG/1.1/DTD/svg11.dtd">
<svg width="716px" height="600px"
xmlns="http://www.w3.org/2000/svg" version="1.1">
<g transform="translate(0000, 0000) scale(1.0000, 1.0000)">
<path fill="#000000" stroke="none" d="
M 298.33 597.87
C 276.48 596.18 264.59 596.24 236.02 598.21
C 226.53 598.85 222.92 598.62 219.98 597.17
C 216.72 595.55 212.76 595.51 190.55 596.92
C 176.43 597.82 156.66 598.59 146.60 598.64
C 129.97 598.71 128.08 598.49 125.75 596.15
C 124.34 594.74 123.18 593.00 123.18 592.29
C 123.18 591.58 120.91 592.49 118.13 594.33
C 113.10 597.65 113.03 597.67 101.74 596.06
C 92.07 594.71 87.95 594.78 73.61 596.59
C 47.04 599.95 38.57 599.23 33.53 593.14
C 31.89 591.17 29.82 591.49 20.95 595.01
C 17.64 596.33 16.51 596.32 14.86 594.96
C 11.70 592.35 12.43 588.91 17.27 583.55
C 25.21 574.77 26.25 574.59 93.03 569.76
C 108.55 568.63 122.52 567.22 124.07 566.60
C 131.43 563.73 141.75 530.96 148.67 488.45
C 155.30 447.76 155.88 441.54 155.84 412.18
C 155.79 382.28 154.17 366.36 146.27 317.31
C 141.29 286.36 139.62 279.78 132.99 264.74
C 117.58 229.79 106.78 194.44 103.87 169.29
C 101.23 146.44 103.77 128.71 113.03 105.53
C 120.59 86.62 119.09 70.40 109.15 63.51
C 102.83 59.14 92.67 58.10 44.00 56.87
L 10.38 56.01
L 8.07 60.09
C 6.51 62.86 4.95 64.05 3.21 63.81
C 1.09 63.53 0.56 62.33 0.24 57.08
C -0.33 48.05 2.16 40.32 6.92 36.29
C 16.60 28.12 42.04 19.50 70.57 14.76
C 77.28 13.64 94.31 10.45 108.43 7.67
C 122.54 4.88 139.29 2.03 145.64 1.31
C 167.32 -1.12 202.92 0.14 220.68 3.96
C 227.54 5.44 234.77 10.68 236.29 15.28
C 237.02 17.50 243.63 16.58 286.14 8.28
C 302.03 5.19 319.90 2.06 325.88 1.33
C 346.21 -1.15 383.78 0.13 401.34 3.90
C 415.19 6.87 418.23 12.56 425.44 48.99
C 431.01 77.15 433.19 81.81 445.47 91.85
C 458.24 102.28 472.83 118.17 486.15 136.13
C 508.19 165.87 572.49 257.04 582.10 272.18
C 603.81 306.41 604.52 307.91 645.84 408.33
C 658.90 440.06 679.73 490.09 692.13 519.51
C 704.53 548.94 715.04 575.24 715.47 577.97
C 716.38 583.65 713.90 589.67 709.30 592.87
C 705.93 595.23 697.25 595.42 693.37 593.22
C 691.86 592.37 683.84 584.58 675.55 575.92
C 667.27 567.26 660.29 560.37 660.04 560.60
C 659.81 560.85 661.16 565.76 663.04 571.51
C 667.07 583.78 666.47 587.36 659.61 591.99
C 651.88 597.18 642.42 599.14 628.78 598.37
C 608.05 597.19 595.61 590.59 583.26 574.18
C 574.07 561.97 569.22 551.37 547.20 495.40
C 536.13 467.26 526.70 443.82 526.23 443.31
C 525.77 442.79 520.76 456.36 515.07 473.44
L 504.74 504.49
L 518.55 536.99
C 526.13 554.87 532.68 569.82 533.07 570.22
C 533.46 570.62 537.27 571.41 541.52 571.99
C 545.76 572.58 551.45 574.18 554.14 575.55
C 561.05 579.06 567.15 586.37 567.15 591.12
C 567.15 596.13 564.45 597.05 558.15 594.22
L 553.12 591.95
L 549.16 596.18
L 545.21 600.40
L 514.16 599.33
C 497.08 598.76 472.71 598.23 460.01 598.18
C 443.77 598.10 435.41 597.55 431.85 596.29
C 425.13 593.92 375.73 595.35 367.73 598.14
C 361.03 600.47 330.40 600.35 298.33 597.87
M 540.21 590.38
C 541.59 588.72 540.99 588.46 535.83 588.46
C 528.89 588.46 522.63 586.12 519.16 582.23
C 516.78 579.55 515.87 579.49 480.93 579.49
L 445.14 579.49
L 441.98 576.35
C 437.90 572.26 437.91 568.27 442.05 524.49
C 443.82 505.87 445.25 490.21 445.25 489.68
C 445.25 488.65 438.22 485.90 435.61 485.90
C 434.45 485.90 433.85 493.09 433.31 513.78
C 432.51 544.17 430.67 556.59 425.34 567.47
C 422.74 572.79 421.07 574.51 416.94 576.17
C 408.74 579.45 396.64 580.73 365.70 581.62
C 345.41 582.21 336.06 582.95 334.26 584.12
C 332.84 585.03 328.01 586.64 323.53 587.68
C 313.77 589.96 311.46 591.56 319.51 590.50
C 347.56 586.77 434.45 586.35 491.45 589.67
C 512.97 590.92 532.39 592.03 534.60 592.13
C 536.81 592.23 539.34 591.44 540.21 590.38
M 169.33 588.47
C 192.69 587.29 194.49 587.03 197.21 584.31
L 200.12 581.41
L 178.15 581.82
C 162.17 582.12 155.45 582.71 153.48 584.00
C 151.98 584.97 147.09 586.64 142.61 587.68
C 132.84 589.96 130.54 591.56 138.58 590.50
C 141.75 590.08 155.60 589.17 169.33 588.47
M 650.05 587.96
C 653.64 586.28 656.89 584.12 657.27 583.14
C 657.64 582.18 655.15 573.60 651.75 564.12
L 645.55 546.83
L 614.37 516.00
C 577.02 479.06 535.19 439.18 534.56 439.88
C 534.32 440.15 538.09 450.77 542.95 463.46
C 578.25 555.51 584.44 567.85 602.06 581.08
C 615.12 590.90 637.00 594.03 650.05 587.96
M 89.18 587.83
L 105.86 587.82
L 108.09 584.28
C 109.32 582.33 112.21 579.54 114.51 578.08
L 118.69 575.41
L 108.43 576.14
C 102.78 576.54 91.10 577.26 82.49 577.73
C 68.21 578.51 66.56 578.86 63.94 581.64
C 62.36 583.32 58.01 585.59 54.28 586.67
C 50.53 587.76 47.48 588.97 47.48 589.37
C 47.48 589.77 53.11 589.59 59.99 588.96
C 66.87 588.35 80.00 587.83 89.18 587.83
M 270.10 587.83
L 286.78 587.82
L 289.02 584.28
C 290.25 582.33 293.14 579.54 295.43 578.08
L 299.62 575.41
L 289.35 576.14
C 283.71 576.54 272.03 577.26 263.42 577.73
C 249.14 578.51 247.48 578.86 244.86 581.64
C 243.29 583.32 238.94 585.59 235.20 586.67
C 231.46 587.76 228.40 588.97 228.40 589.37
C 228.40 589.77 234.03 589.59 240.91 588.96
C 247.79 588.35 260.93 587.83 270.10 587.83
M 705.73 584.62
C 707.15 583.21 708.30 581.49 708.30 580.78
C 708.30 573.92 599.57 319.21 589.01 301.35
C 571.58 271.85 496.54 163.46 485.39 151.69
C 463.60 128.67 409.48 121.22 377.26 136.82
C 368.05 141.28 358.68 150.78 354.46 159.95
C 351.55 166.29 351.07 169.08 351.01 180.13
C 350.96 190.92 351.52 194.67 354.59 203.85
C 362.02 226.03 374.64 249.23 393.65 275.64
C 405.45 292.04 423.20 314.10 424.58 314.10
C 425.13 314.10 426.20 315.40 426.94 316.99
C 430.20 323.94 458.88 352.99 553.78 445.47
C 609.49 499.76 664.93 553.85 677.00 565.67
C 689.09 577.50 699.91 587.18 701.06 587.18
C 702.22 587.18 704.32 586.03 705.73 584.62
M 147.09 572.69
C 147.23 572.55 153.20 550.23 160.36 523.08
C 167.52 495.92 173.64 472.79 173.97 471.65
C 174.41 470.17 172.93 468.97 168.62 467.33
C 162.11 464.85 160.46 465.67 160.42 471.38
C 160.38 476.29 154.08 509.04 149.98 525.64
C 145.34 544.41 139.30 560.09 133.41 568.65
L 129.20 574.76
L 138.02 573.85
C 142.87 573.36 146.95 572.83 147.09 572.69
M 220.55 571.73
C 230.78 570.08 235.51 567.67 237.97 562.91
C 240.67 557.72 244.21 520.17 244.29 496.15
C 244.34 477.79 244.07 475.47 240.81 465.71
C 238.86 459.88 236.79 455.13 236.20 455.13
C 235.63 455.13 234.77 457.58 234.29 460.58
C 230.39 485.37 229.44 488.65 225.32 491.15
C 223.14 492.49 220.15 493.58 218.70 493.59
C 217.25 493.59 208.64 489.26 199.57 483.97
C 190.50 478.69 182.75 474.36 182.32 474.37
C 181.10 474.38 155.33 572.13 156.17 573.51
C 157.14 575.06 208.86 573.63 220.55 571.73
M 396.21 572.31
L 400.42 571.67
L 397.98 568.21
C 393.03 561.21 386.77 547.29 373.96 514.91
L 360.84 481.73
L 358.87 488.63
C 354.79 502.87 337.47 567.92 337.47 569.00
C 337.47 569.62 343.10 570.50 349.98 570.96
C 356.86 571.42 364.22 572.29 366.34 572.88
C 370.10 573.95 387.78 573.60 396.21 572.31
M 253.91 571.00
C 257.70 570.23 257.91 569.87 257.91 564.26
C 257.93 561.00 259.36 543.10 261.12 524.49
C 262.89 505.87 264.33 490.21 264.33 489.68
C 264.33 488.65 257.30 485.90 254.68 485.90
C 253.53 485.90 252.92 493.09 252.38 513.78
C 251.63 542.77 249.88 555.49 245.22 566.01
L 242.66 571.79
L 246.28 571.79
C 248.26 571.79 251.70 571.44 253.91 571.00
M 341.34 523.08
C 348.15 497.35 354.10 474.77 354.56 472.92
C 355.33 469.86 354.88 469.37 349.49 467.31
C 343.04 464.85 341.38 465.68 341.34 471.38
C 341.31 476.31 334.99 509.06 330.90 525.62
C 326.51 543.37 321.01 558.36 316.16 565.77
L 312.97 570.64
L 320.97 570.26
L 328.96 569.87
L 341.34 523.08
M 418.90 562.92
C 420.75 559.36 424.71 525.18 424.72 512.78
C 424.72 507.35 424.21 506.46 416.43 498.77
C 408.65 491.05 407.95 490.65 404.82 492.08
C 399.46 494.53 397.79 494.01 382.53 485.18
C 374.54 480.55 367.84 476.95 367.66 477.17
C 367.47 477.38 372.17 489.97 378.07 505.13
C 389.60 534.71 400.82 558.96 406.22 566.05
C 409.49 570.33 409.67 570.40 413.28 568.54
C 415.32 567.49 417.85 564.96 418.90 562.92
M 468.90 558.73
C 465.21 548.53 463.62 545.94 457.00 539.32
L 449.36 531.69
L 448.32 543.09
C 446.69 560.90 446.90 567.86 449.10 569.26
C 450.16 569.92 456.01 570.49 462.10 570.49
L 473.18 570.51
L 468.90 558.73
M 484.42 565.41
C 481.67 562.60 479.26 560.46 479.07 560.67
C 478.86 560.86 479.36 563.17 480.16 565.77
C 481.41 569.87 482.13 570.51 485.51 570.51
L 489.41 570.51
L 484.42 565.41
M 523.18 568.91
C 522.85 568.03 517.51 554.86 511.34 539.63
C 500.83 513.73 499.92 511.99 497.12 512.53
C 495.12 512.91 487.52 509.67 474.01 502.67
C 462.94 496.94 453.67 492.45 453.42 492.71
C 453.16 492.96 452.31 499.46 451.53 507.15
L 450.12 521.15
L 475.60 545.78
L 501.07 570.42
L 512.44 570.46
C 521.01 570.50 523.66 570.12 523.18 568.91
M 305.67 566.51
C 309.23 564.62 316.46 547.97 320.65 532.05
C 324.10 518.91 329.91 491.06 329.68 488.72
C 329.64 488.22 327.77 493.00 325.51 499.35
C 319.53 516.22 319.43 516.23 293.47 502.85
C 282.18 497.03 272.71 492.49 272.43 492.76
C 271.34 493.86 265.68 563.28 266.43 566.31
L 267.26 569.54
L 285.36 568.62
C 295.32 568.10 304.45 567.15 305.67 566.51
M 326.33 472.17
C 333.41 450.88 336.29 440.32 336.89 433.27
L 337.73 423.59
L 325.83 412.76
C 303.32 392.24 247.98 333.18 224.40 304.49
C 181.54 252.36 159.75 207.27 161.99 175.31
C 164.50 139.40 195.82 118.41 243.16 120.94
C 255.37 121.59 275.51 125.51 283.90 128.86
C 289.16 130.96 285.05 125.85 266.69 107.38
C 244.18 84.74 242.80 82.45 238.08 59.94
L 237.33 56.41
L 214.20 56.41
L 191.07 56.41
L 188.88 60.28
C 187.42 62.90 185.86 64.05 184.13 63.81
C 182.02 63.53 181.49 62.33 181.17 57.08
C 180.59 48.05 183.08 40.32 187.84 36.31
C 193.40 31.63 207.43 25.09 217.79 22.38
C 222.56 21.13 226.94 19.72 227.49 19.23
C 229.31 17.67 224.03 13.03 218.78 11.59
C 208.67 8.83 170.54 7.19 152.34 8.72
C 134.72 10.19 114.42 13.64 112.40 15.49
C 110.13 17.56 115.87 28.69 123.34 36.71
C 133.94 48.08 134.28 51.77 125.63 60.92
L 121.98 64.79
L 123.95 71.18
C 127.30 81.96 125.77 95.45 119.32 112.18
C 113.53 127.21 110.47 141.09 110.40 152.56
C 110.33 168.04 116.28 197.24 124.27 220.51
C 131.43 241.38 149.42 283.74 152.72 287.50
C 155.22 290.35 211.60 387.21 222.32 407.05
C 234.37 429.40 241.48 444.41 248.19 461.79
C 250.83 468.63 253.67 474.77 254.49 475.44
C 255.31 476.10 258.59 477.55 261.76 478.65
C 264.93 479.76 277.62 485.82 289.97 492.14
C 306.33 500.53 312.95 503.32 314.49 502.50
C 315.80 501.81 320.30 490.26 326.33 472.17
M 509.87 464.83
L 522.37 428.22
L 491.78 397.77
C 394.57 300.95 352.83 243.09 343.87 192.76
C 335.83 147.55 368.93 117.91 424.08 120.96
C 437.99 121.73 455.02 125.08 463.86 128.77
C 468.29 130.62 468.35 130.60 466.94 127.96
C 466.14 126.49 457.10 116.86 446.83 106.55
C 424.60 84.26 423.72 82.63 417.58 52.56
C 410.44 17.58 408.93 14.10 399.70 11.59
C 389.59 8.83 351.47 7.19 333.26 8.72
C 315.64 10.19 295.34 13.64 293.33 15.49
C 291.06 17.56 296.79 28.69 304.26 36.71
C 314.86 48.08 315.21 51.77 306.56 60.92
L 302.90 64.79
L 304.88 71.18
C 308.23 81.96 306.70 95.45 300.25 112.18
C 294.46 127.21 291.39 141.09 291.33 152.56
C 291.25 168.04 297.20 197.24 305.20 220.51
C 312.36 241.38 330.35 283.74 333.65 287.50
C 336.15 290.35 392.53 387.21 403.24 407.05
C 415.29 429.40 422.40 444.41 429.11 461.79
C 431.76 468.63 434.59 474.77 435.41 475.44
C 436.23 476.10 439.51 477.55 442.69 478.65
C 445.87 479.76 458.55 485.82 470.89 492.14
C 486.83 500.31 493.90 503.31 495.35 502.54
C 496.58 501.88 502.37 486.86 509.87 464.83
M 425.61 486.15
C 424.85 476.23 419.12 455.13 417.19 455.13
C 416.26 455.13 411.83 477.65 411.87 482.19
C 411.89 484.15 423.61 496.15 425.51 496.15
C 425.99 496.15 426.05 491.65 425.61 486.15
M 221.83 482.58
C 222.10 482.33 224.19 472.88 226.46 461.59
L 230.61 441.04
L 217.15 415.72
C 193.27 370.76 154.30 303.10 153.02 304.37
C 152.76 304.64 154.00 313.72 155.79 324.54
C 162.77 366.78 163.50 375.49 163.55 416.33
L 163.60 455.12
L 171.94 458.44
C 176.52 460.26 181.44 462.81 182.85 464.12
C 184.26 465.41 192.34 470.50 200.81 475.42
C 214.75 483.51 219.11 485.00 221.83 482.58
M 402.76 482.58
C 403.03 482.33 405.12 472.88 407.39 461.59
L 411.53 441.04
L 398.07 415.72
C 374.19 370.76 335.22 303.10 333.94 304.37
C 333.68 304.64 334.93 313.72 336.71 324.54
C 343.69 366.78 344.42 375.49 344.48 416.33
L 344.53 455.12
L 352.87 458.44
C 357.45 460.26 362.36 462.81 363.77 464.12
C 365.19 465.41 373.27 470.50 381.74 475.42
C 395.67 483.51 400.04 485.00 402.76 482.58
M 336.98 395.85
C 335.45 370.85 326.52 307.29 321.52 285.90
C 320.44 281.32 317.03 271.79 313.91 264.74
C 293.51 218.50 282.50 175.64 283.78 147.50
L 284.22 137.85
L 276.02 134.92
C 256.82 128.08 229.52 126.60 211.08 131.41
C 193.15 136.08 179.87 146.18 173.53 159.95
C 170.62 166.29 170.15 169.08 170.08 180.13
C 170.03 190.96 170.61 194.73 173.79 204.49
C 183.47 234.09 205.79 269.56 243.18 314.74
C 254.92 328.92 334.89 410.26 337.10 410.26
C 337.52 410.26 337.46 403.77 336.98 395.85
M 294.43 104.49
C 301.53 86.47 299.77 70.23 289.99 63.46
C 285.19 60.14 283.42 59.78 266.22 58.59
C 255.99 57.87 247.33 57.59 246.97 57.95
C 245.69 59.23 249.27 72.54 252.50 78.56
C 254.48 82.23 259.18 87.47 264.24 91.63
C 268.87 95.44 276.40 102.33 280.96 106.96
C 285.51 111.58 289.62 114.94 290.07 114.41
C 290.52 113.88 292.48 109.42 294.43 104.49
M 120.40 53.15
C 122.19 49.22 120.53 48.22 108.34 45.91
C 95.08 43.41 34.71 43.71 26.95 46.32
C 21.39 48.18 22.42 48.29 53.89 49.09
C 89.97 50.01 102.59 51.31 110.71 54.90
C 117.00 57.68 118.46 57.41 120.40 53.15
M 301.32 53.15
C 303.12 49.22 301.45 48.22 289.26 45.91
C 276.01 43.41 215.63 43.71 207.87 46.32
C 202.31 48.18 203.34 48.29 234.82 49.09
C 270.90 50.01 283.51 51.31 291.64 54.90
C 297.92 57.68 299.39 57.41 301.32 53.15
M 26.30 38.06
C 33.49 36.37 97.93 35.91 108.16 37.49
L 114.30 38.42
L 110.56 32.99
C 108.49 30.00 106.01 25.19 105.04 22.32
L 103.27 17.10
L 76.98 21.83
C 40.92 28.35 24.44 33.10 17.32 39.08
C 14.76 41.23 14.76 41.23 17.32 40.41
C 18.73 39.95 22.78 38.90 26.30 38.06
M 207.23 38.06
C 214.42 36.37 278.86 35.91 289.08 37.49
L 295.23 38.42
L 291.48 32.99
C 289.42 30.00 286.94 25.19 285.96 22.32
L 284.19 17.10
L 257.90 21.83
C 221.84 28.35 205.37 33.10 198.25 39.08
C 195.68 41.23 195.68 41.23 198.25 40.41
C 199.66 39.95 203.70 38.90 207.23 38.06"/>
<path fill="#000000" stroke="none" d="
M 152.79 47.82
C 140.52 41.37 139.18 24.44 150.31 16.29
C 155.16 12.74 163.87 12.14 169.29 15.00
C 181.55 21.45 182.89 38.38 171.76 46.53
C 166.91 50.08 158.20 50.68 152.79 47.82
M 169.48 39.85
C 172.25 37.06 173.23 34.88 173.23 31.41
C 173.23 24.90 167.55 19.23 161.04 19.23
C 154.52 19.23 148.85 24.90 148.85 31.41
C 148.85 37.92 154.52 43.59 161.04 43.59
C 164.51 43.59 166.69 42.62 169.48 39.85"/>
<path fill="#000000" stroke="none" d="
M 333.71 47.82
C 321.44 41.37 320.11 24.44 331.23 16.29
C 336.08 12.74 344.80 12.14 350.21 15.00
C 362.48 21.45 363.81 38.38 352.69 46.53
C 347.84 50.08 339.12 50.68 333.71 47.82
M 350.40 39.85
C 353.18 37.06 354.15 34.88 354.15 31.41
C 354.15 24.90 348.48 19.23 341.96 19.23
C 335.44 19.23 329.77 24.90 329.77 31.41
C 329.77 37.92 335.44 43.59 341.96 43.59
C 345.44 43.59 347.62 42.62 350.40 39.85"/>
<path fill="#000000" stroke="none" d="
M 155.26 37.18
C 150.18 32.10 153.88 23.08 161.04 23.08
C 165.15 23.08 169.38 27.29 169.38 31.41
C 169.38 33.18 168.22 35.77 166.81 37.18
C 165.40 38.59 162.81 39.74 161.04 39.74
C 159.27 39.74 156.67 38.59 155.26 37.18"/>
<path fill="#000000" stroke="none" d="
M 336.19 37.18
C 331.11 32.10 334.80 23.08 341.96 23.08
C 346.08 23.08 350.30 27.29 350.30 31.41
C 350.30 35.53 346.08 39.74 341.96 39.74
C 340.19 39.74 337.60 38.59 336.19 37.18"/>
<path fill="#e5e3cc" stroke="none" d="
M 616.35 588.37
C 594.46 581.45 582.26 564.32 561.59 511.54
C 543.70 465.85 534.10 440.38 534.56 439.88
C 535.19 439.18 577.02 479.06 614.37 516.00
L 645.55 546.83
L 651.75 564.12
C 655.15 573.60 657.64 582.18 657.27 583.14
C 656.89 584.12 653.64 586.28 650.05 587.96
C 641.67 591.86 627.87 592.03 616.35 588.37"/>
<path fill="#e5e3cc" stroke="none" d="
M 406.22 566.05
C 400.82 558.96 389.60 534.71 378.07 505.13
C 372.17 489.97 367.47 477.38 367.66 477.17
C 367.84 476.95 374.54 480.55 382.53 485.18
C 397.79 494.01 399.46 494.53 404.82 492.08
C 407.95 490.65 408.65 491.05 416.43 498.77
C 426.15 508.38 425.87 506.60 422.76 538.91
C 420.66 560.82 419.16 565.50 413.28 568.54
C 409.67 570.40 409.49 570.33 406.22 566.05"/>
<path fill="#e5e3cc" stroke="none" d="
M 449.10 569.26
C 446.90 567.86 446.69 560.90 448.32 543.09
L 449.36 531.69
L 457.00 539.32
C 463.62 545.94 465.21 548.53 468.90 558.73
L 473.18 570.51
L 462.10 570.49
C 456.01 570.49 450.16 569.92 449.10 569.26"/>
<path fill="#e5e3cc" stroke="none" d="
M 289.97 492.14
C 277.62 485.82 264.93 479.76 261.76 478.65
C 258.59 477.55 255.31 476.10 254.49 475.44
C 253.67 474.77 250.83 468.63 248.19 461.79
C 241.48 444.41 234.37 429.40 222.32 407.05
C 211.60 387.21 155.22 290.35 152.72 287.50
C 149.42 283.74 131.43 241.38 124.27 220.51
C 116.28 197.24 110.33 168.04 110.40 152.56
C 110.47 141.09 113.53 127.21 119.32 112.18
C 125.77 95.45 127.30 81.96 123.95 71.18
L 121.98 64.79
L 125.63 60.92
C 134.28 51.77 133.94 48.08 123.34 36.71
C 115.87 28.69 110.13 17.56 112.40 15.49
C 114.48 13.58 135.01 10.17 152.99 8.73
C 171.75 7.23 208.63 8.85 218.78 11.60
C 224.03 13.03 229.31 17.65 227.49 19.23
C 226.94 19.72 222.56 21.13 217.79 22.38
C 207.43 25.09 193.40 31.63 187.84 36.31
C 183.08 40.32 180.59 48.05 181.17 57.08
C 181.49 62.33 182.02 63.53 184.13 63.81
C 185.86 64.05 187.42 62.90 188.88 60.28
L 191.07 56.41
L 214.20 56.41
L 237.33 56.41
L 238.08 59.94
C 242.80 82.45 244.18 84.74 266.69 107.38
C 285.05 125.85 289.16 130.96 283.90 128.86
C 275.51 125.51 255.37 121.59 243.16 120.94
C 204.28 118.86 175.29 132.94 165.46 158.65
C 152.87 191.55 173.48 242.55 224.40 304.49
C 247.98 333.18 303.32 392.24 325.83 412.76
L 337.73 423.59
L 336.89 433.27
C 335.88 445.08 317.89 500.69 314.49 502.50
C 312.95 503.32 306.33 500.53 289.97 492.14
M 171.76 46.53
C 177.00 42.69 179.87 36.18 179.21 29.67
C 178.14 19.21 169.63 12.19 159.29 13.26
C 140.90 15.12 136.39 39.21 152.79 47.82
C 158.20 50.68 166.91 50.08 171.76 46.53"/>
<path fill="#e5e3cc" stroke="none" d="
M 470.89 492.14
C 458.55 485.82 445.87 479.76 442.69 478.65
C 439.51 477.55 436.23 476.10 435.41 475.44
C 434.59 474.77 431.76 468.63 429.11 461.79
C 422.40 444.41 415.29 429.40 403.24 407.05
C 392.53 387.21 336.15 290.35 333.65 287.50
C 330.35 283.74 312.36 241.38 305.20 220.51
C 297.20 197.24 291.25 168.04 291.33 152.56
C 291.39 141.09 294.46 127.21 300.25 112.18
C 306.70 95.45 308.23 81.96 304.88 71.18
L 302.90 64.79
L 306.56 60.92
C 315.21 51.77 314.86 48.08 304.26 36.71
C 296.79 28.69 291.06 17.56 293.33 15.49
C 295.34 13.64 315.64 10.19 333.26 8.72
C 351.47 7.19 389.59 8.83 399.70 11.59
C 408.93 14.10 410.44 17.58 417.58 52.56
C 423.74 82.72 424.52 84.14 447.62 107.38
C 465.98 125.85 470.08 130.96 464.82 128.86
C 448.94 122.50 417.50 119.00 400.37 121.69
C 351.28 129.38 332.31 162.35 348.70 211.54
C 364.25 258.19 405.34 311.67 491.78 397.77
L 522.37 428.22
L 509.87 464.83
C 502.37 486.86 496.58 501.88 495.35 502.54
C 493.90 503.31 486.83 500.31 470.89 492.14
M 352.69 46.53
C 357.92 42.69 360.80 36.18 360.13 29.67
C 359.07 19.21 350.56 12.19 340.22 13.26
C 321.83 15.12 317.31 39.21 333.71 47.82
C 339.12 50.68 347.84 50.08 352.69 46.53"/>
<path fill="#e5e3cc" stroke="none" d="
M 200.81 475.42
C 192.34 470.50 184.26 465.41 182.85 464.12
C 181.44 462.81 176.52 460.26 171.94 458.44
L 163.60 455.12
L 163.55 416.33
C 163.50 375.49 162.77 366.78 155.79 324.54
C 154.00 313.72 152.76 304.64 153.02 304.37
C 154.30 303.10 193.27 370.76 217.15 415.72
L 230.61 441.04
L 226.46 461.59
C 224.19 472.88 222.10 482.33 221.83 482.58
C 219.11 485.00 214.75 483.51 200.81 475.42"/>
<path fill="#e5e3cc" stroke="none" d="
M 381.74 475.42
C 373.27 470.50 365.19 465.41 363.77 464.12
C 362.36 462.81 357.45 460.26 352.87 458.44
L 344.53 455.12
L 344.48 416.33
C 344.42 375.49 343.69 366.78 336.71 324.54
C 334.93 313.72 333.68 304.64 333.94 304.37
C 335.22 303.10 374.19 370.76 398.07 415.72
L 411.53 441.04
L 407.39 461.59
C 405.12 472.88 403.03 482.33 402.76 482.58
C 400.04 485.00 395.67 483.51 381.74 475.42"/>
<path fill="#81a5a3" stroke="none" d="
M 110.71 54.90
C 102.59 51.31 89.97 50.01 53.89 49.09
C 22.42 48.29 21.39 48.18 26.95 46.32
C 34.71 43.71 95.08 43.41 108.34 45.91
C 120.53 48.22 122.19 49.22 120.40 53.15
C 118.46 57.41 117.00 57.68 110.71 54.90"/>
<path fill="#81a5a3" stroke="none" d="
M 291.64 54.90
C 283.51 51.31 270.90 50.01 234.82 49.09
C 203.34 48.29 202.31 48.18 207.87 46.32
C 215.63 43.71 276.01 43.41 289.26 45.91
C 301.45 48.22 303.12 49.22 301.32 53.15
C 299.39 57.41 297.92 57.68 291.64 54.90"/>
<path fill="#81a5a3" stroke="none" d="
M 17.32 39.08
C 20.92 36.06 29.74 32.36 40.37 29.40
C 50.02 26.71 96.19 17.95 100.71 17.95
C 102.68 17.95 103.88 19.26 105.14 22.76
C 106.09 25.40 108.54 30.01 110.58 33.00
L 114.30 38.42
L 108.16 37.49
C 104.77 36.96 86.42 36.54 67.37 36.55
C 35.30 36.55 27.36 37.17 17.32 40.41
C 14.76 41.23 14.76 41.23 17.32 39.08"/>
<path fill="#81a5a3" stroke="none" d="
M 198.25 39.08
C 205.37 33.10 221.84 28.35 257.90 21.83
L 284.19 17.10
L 285.96 22.32
C 286.94 25.19 289.42 30.00 291.48 32.99
L 295.23 38.42
L 289.08 37.49
C 285.69 36.96 267.35 36.54 248.29 36.55
C 216.22 36.55 208.28 37.17 198.25 40.41
C 195.68 41.23 195.68 41.23 198.25 39.08"/>
<path fill="#eb2e00" stroke="none" d="
M 152.59 39.85
C 145.07 32.33 149.21 21.08 160.01 19.63
C 164.80 18.99 165.85 19.36 169.31 22.82
C 172.25 25.74 173.23 27.90 173.23 31.41
C 173.23 37.92 167.55 43.59 161.04 43.59
C 157.56 43.59 155.38 42.62 152.59 39.85
M 166.81 37.18
C 171.89 32.10 168.20 23.08 161.04 23.08
C 156.92 23.08 152.70 27.29 152.70 31.41
C 152.70 33.18 153.85 35.77 155.26 37.18
C 156.67 38.59 159.27 39.74 161.04 39.74
C 162.81 39.74 165.40 38.59 166.81 37.18"/>
<path fill="#eb2e00" stroke="none" d="
M 333.52 39.85
C 330.75 37.06 329.77 34.88 329.77 31.41
C 329.77 24.90 335.44 19.23 341.96 19.23
C 348.48 19.23 354.15 24.90 354.15 31.41
C 354.15 37.92 348.48 43.59 341.96 43.59
C 338.48 43.59 336.30 42.62 333.52 39.85
M 347.73 37.18
C 352.82 32.10 349.12 23.08 341.96 23.08
C 337.84 23.08 333.62 27.29 333.62 31.41
C 333.62 35.53 337.84 39.74 341.96 39.74
C 343.73 39.74 346.32 38.59 347.73 37.18"/>
<path fill="#e1441f" stroke="none" d="
M 677.00 565.67
C 664.93 553.85 609.49 499.76 553.78 445.47
C 458.88 352.99 430.20 323.94 426.94 316.99
C 426.20 315.40 425.13 314.10 424.58 314.10
C 423.20 314.10 405.45 292.04 393.65 275.64
C 374.64 249.23 362.02 226.03 354.59 203.85
C 351.52 194.67 350.96 190.92 351.01 180.13
C 351.07 169.08 351.55 166.29 354.46 159.95
C 358.68 150.78 368.05 141.28 377.26 136.82
C 399.21 126.19 431.73 125.74 459.04 135.71
C 471.12 140.12 478.89 144.82 485.39 151.69
C 496.54 163.46 571.58 271.85 589.01 301.35
C 599.57 319.21 708.30 573.92 708.30 580.78
C 708.30 582.81 703.36 587.18 701.06 587.18
C 699.91 587.18 689.09 577.50 677.00 565.67"/>
<path fill="#e1441f" stroke="none" d="
M 475.60 545.78
L 450.12 521.15
L 451.53 507.15
C 452.31 499.46 453.16 492.96 453.42 492.71
C 453.67 492.45 462.94 496.94 474.01 502.67
C 487.52 509.67 495.12 512.91 497.12 512.53
C 499.92 511.99 500.83 513.73 511.34 539.63
C 517.51 554.86 522.85 568.03 523.18 568.91
C 523.66 570.12 521.01 570.50 512.44 570.46
L 501.07 570.42
L 475.60 545.78"/>
<path fill="#e1441f" stroke="none" d="
M 418.26 490.21
C 414.75 486.94 411.88 483.33 411.87 482.19
C 411.83 477.65 416.26 455.13 417.19 455.13
C 419.12 455.13 424.85 476.23 425.61 486.15
C 426.05 491.65 425.99 496.15 425.51 496.15
C 425.02 496.15 421.75 493.47 418.26 490.21"/>
<path fill="#e1441f" stroke="none" d="
M 296.67 370.83
C 238.60 313.17 206.33 272.73 185.36 231.41
C 173.71 208.45 170.01 195.97 170.08 180.13
C 170.15 169.08 170.62 166.29 173.53 159.95
C 179.89 146.15 193.23 136.01 211.08 131.44
C 229.80 126.63 256.82 128.08 276.02 134.92
L 284.22 137.85
L 283.78 147.50
C 282.50 175.64 293.51 218.50 313.91 264.74
C 320.33 279.28 322.16 286.29 326.64 313.46
C 333.29 353.78 339.38 410.26 337.10 410.26
C 336.69 410.26 318.49 392.51 296.67 370.83"/>
<path fill="#3f7fbf" stroke="none" d="
M 328.59 490.28
C 328.65 488.78 328.95 488.47 329.36 489.50
C 329.73 490.42 329.69 491.54 329.26 491.96
C 328.83 492.38 328.54 491.63 328.59 490.28"/>
<path fill="#808080" stroke="none" d="
M 491.45 589.67
C 434.45 586.35 347.56 586.77 319.51 590.50
C 311.46 591.56 313.77 589.96 323.53 587.68
C 328.01 586.64 332.84 585.03 334.26 584.12
C 336.06 582.95 345.41 582.21 365.70 581.62
C 396.64 580.73 408.74 579.45 416.94 576.17
C 421.07 574.51 422.74 572.79 425.34 567.47
C 430.67 556.59 432.51 544.17 433.31 513.78
C 433.85 493.09 434.45 485.90 435.61 485.90
C 438.22 485.90 445.25 488.65 445.25 489.68
C 445.25 490.21 443.82 505.87 442.05 524.49
C 437.91 568.27 437.90 572.26 441.98 576.35
L 445.14 579.49
L 480.93 579.49
C 515.87 579.49 516.78 579.55 519.16 582.23
C 522.63 586.12 528.89 588.46 535.83 588.46
C 540.99 588.46 541.59 588.72 540.21 590.38
C 539.34 591.44 536.81 592.23 534.60 592.13
C 532.39 592.03 512.97 590.92 491.45 589.67"/>
<path fill="#808080" stroke="none" d="
M 133.64 590.42
C 134.09 589.96 138.13 588.72 142.61 587.68
C 147.09 586.64 151.98 584.97 153.48 584.00
C 155.45 582.71 162.17 582.12 178.15 581.82
L 200.12 581.41
L 197.21 584.31
C 194.49 587.03 192.69 587.29 169.33 588.47
C 155.60 589.17 141.75 590.08 138.58 590.50
C 135.41 590.92 133.18 590.88 133.64 590.42"/>
<path fill="#808080" stroke="none" d="
M 47.48 589.37
C 47.48 588.97 50.53 587.76 54.28 586.67
C 58.01 585.59 62.36 583.32 63.94 581.64
C 66.56 578.86 68.21 578.51 82.49 577.73
C 91.10 577.26 102.78 576.54 108.43 576.14
L 118.69 575.41
L 114.51 578.08
C 112.21 579.54 109.32 582.33 108.09 584.28
L 105.86 587.82
L 89.18 587.83
C 80.00 587.83 66.87 588.35 59.99 588.96
C 53.11 589.59 47.48 589.77 47.48 589.37"/>
<path fill="#808080" stroke="none" d="
M 228.40 589.37
C 228.40 588.97 231.46 587.76 235.20 586.67
C 238.94 585.59 243.29 583.32 244.86 581.64
C 247.48 578.86 249.14 578.51 263.42 577.73
C 272.03 577.26 283.71 576.54 289.35 576.14
L 299.62 575.41
L 295.43 578.08
C 293.14 579.54 290.25 582.33 289.02 584.28
L 286.78 587.82
L 270.10 587.83
C 260.93 587.83 247.79 588.35 240.91 588.96
C 234.03 589.59 228.40 589.77 228.40 589.37"/>
<path fill="#808080" stroke="none" d="
M 133.41 568.65
C 139.30 560.09 145.34 544.41 149.98 525.64
C 154.18 508.62 160.39 476.18 160.39 471.23
C 160.39 466.27 163.09 465.14 169.18 467.53
C 172.98 469.03 174.38 470.23 173.96 471.68
C 173.64 472.79 167.52 495.92 160.36 523.08
C 153.20 550.23 147.23 572.55 147.09 572.69
C 146.95 572.83 142.87 573.36 138.02 573.85
L 129.20 574.76
L 133.41 568.65"/>
<path fill="#808080" stroke="none" d="
M 245.22 566.01
C 249.88 555.49 251.63 542.77 252.38 513.78
C 252.92 493.09 253.53 485.90 254.68 485.90
C 257.30 485.90 264.33 488.65 264.33 489.68
C 264.33 490.21 262.89 505.87 261.12 524.49
C 259.36 543.10 257.93 561.00 257.91 564.26
C 257.91 569.87 257.70 570.23 253.91 571.00
C 251.70 571.44 248.26 571.79 246.28 571.79
L 242.66 571.79
L 245.22 566.01"/>
<path fill="#808080" stroke="none" d="
M 316.16 565.77
C 321.01 558.36 326.51 543.37 330.90 525.62
C 334.99 509.06 341.31 476.31 341.34 471.38
C 341.38 465.68 343.04 464.85 349.49 467.31
C 354.88 469.37 355.33 469.86 354.56 472.92
C 354.10 474.77 348.15 497.35 341.34 523.08
L 328.96 569.87
L 320.97 570.26
L 312.97 570.64
L 316.16 565.77"/>
</g>
</svg>
