<?xml version="1.0" encoding="UTF-8" standalone="no"?>
<!DOCTYPE svg PUBLIC "-//W3C//DTD SVG 1.1//EN"
"http://www.w3.org/Graphics/SVG/1.1/DTD/svg11.dtd">
<svg width="687px" height="600px"
xmlns="http://www.w3.org/2000/svg" version="1.1">
<g transform="translate(0000, 0000) scale(1.0000, 1.0000)">
<path fill="#000000" stroke="none" d="
M 108.61 598.78
C 99.45 597.33 97.96 596.63 97.96 593.78
C 97.96 590.20 102.51 585.01 108.95 581.24
C 115.17 577.60 123.11 576.10 146.07 574.25
C 154.47 573.57 172.45 571.21 186.03 569.01
L 210.74 565.00
L 215.60 559.78
C 225.29 549.35 231.52 517.40 233.46 468.03
C 234.77 434.87 234.55 425.41 231.80 396.42
L 230.38 381.46
L 221.03 380.68
C 210.38 379.78 200.97 381.82 180.54 389.47
C 161.92 396.46 146.73 399.24 123.09 400.03
C 107.23 400.56 99.65 400.22 90.23 398.59
C 73.96 395.76 54.10 389.05 36.73 380.50
C 12.84 368.74 0.00 356.03 0.00 344.11
C 0.00 336.81 1.77 333.68 7.15 331.44
C 16.59 327.50 24.22 329.32 35.87 338.28
C 44.43 344.86 66.21 354.85 80.21 358.61
C 101.57 364.35 126.99 365.10 141.36 360.42
C 153.09 356.61 148.70 351.04 132.89 349.66
C 118.59 348.41 96.99 343.34 89.23 339.41
C 78.33 333.90 75.07 327.44 79.18 319.51
C 81.24 315.52 86.05 312.88 91.26 312.88
C 93.16 312.89 102.28 314.38 111.49 316.22
C 125.86 319.08 130.30 319.44 142.63 318.80
C 159.52 317.90 169.22 319.43 191.24 326.47
C 203.44 330.39 207.09 331.07 212.02 330.32
C 215.29 329.83 218.28 328.65 218.64 327.70
C 219.63 325.13 213.24 302.30 209.55 295.21
C 204.67 285.81 202.92 283.56 185.61 264.54
C 162.80 239.48 147.51 220.88 141.67 211.08
C 131.95 194.78 126.55 175.87 123.16 146.12
C 122.14 137.25 119.87 126.04 117.82 119.74
C 114.48 109.52 114.24 107.36 114.25 86.91
L 114.26 65.02
L 122.20 34.12
C 129.90 4.18 131.59 0.00 136.05 0.00
C 136.87 0.00 142.08 5.19 147.61 11.54
L 157.67 23.07
L 162.24 19.07
C 180.75 2.83 224.03 -1.82 260.13 8.55
C 272.74 12.17 279.25 15.30 285.37 20.65
L 289.82 24.57
L 298.44 12.21
C 305.09 2.69 307.65 -0.05 309.65 0.26
C 311.74 0.57 313.97 5.32 321.32 25.09
C 326.32 38.54 331.09 50.23 331.91 51.06
C 335.12 54.27 337.06 68.81 336.94 88.84
C 336.82 106.20 336.40 110.18 333.60 119.36
L 330.39 129.90
L 341.46 136.64
C 357.65 146.47 384.62 165.85 395.65 175.58
C 415.27 192.89 425.31 205.83 464.20 263.86
C 484.86 294.71 502.18 320.41 502.66 320.96
C 503.15 321.52 512.48 322.83 523.41 323.86
C 534.34 324.90 545.68 326.11 548.61 326.55
C 558.42 328.00 558.36 328.17 561.75 281.96
C 563.40 259.66 565.81 228.09 567.13 211.80
C 568.43 195.52 569.87 173.25 570.33 162.35
C 571.20 141.26 571.96 138.37 578.29 132.36
C 585.39 125.63 593.55 122.96 607.09 122.96
C 618.12 122.96 620.10 123.35 627.06 126.82
C 641.11 133.84 642.05 137.42 645.11 195.64
C 646.18 215.78 649.13 261.46 651.67 297.15
C 654.22 332.83 655.94 363.99 655.50 366.39
C 654.43 372.05 649.32 378.03 644.10 379.71
C 641.08 380.69 571.61 383.60 549.25 383.68
C 546.76 383.69 547.16 384.24 588.80 439.06
C 644.03 511.76 684.44 569.39 686.38 578.23
C 687.49 583.30 684.68 594.84 682.09 595.83
C 676.08 598.12 652.33 577.24 608.08 530.76
C 591.04 512.85 576.81 498.48 576.47 498.82
C 576.13 499.17 577.57 501.66 579.67 504.33
C 585.37 511.61 619.25 562.58 628.60 577.96
C 640.91 598.18 639.70 600.85 618.76 599.61
C 602.99 598.69 567.98 592.07 551.89 586.97
C 538.45 582.71 519.19 573.26 513.86 568.31
C 512.04 566.64 508.61 561.93 506.25 557.85
C 503.88 553.76 491.02 531.61 477.64 508.58
L 453.33 466.74
L 435.35 455.38
C 425.46 449.12 417.23 444.21 417.03 444.44
C 416.41 445.20 421.42 479.42 424.21 493.55
C 427.10 508.13 426.53 513.73 422.16 513.73
C 421.08 513.73 413.97 509.18 406.35 503.59
C 398.72 498.01 389.58 492.01 386.03 490.25
C 378.57 486.54 366.16 482.30 365.30 483.15
C 364.59 483.88 366.93 522.55 368.71 539.48
C 370.44 555.90 372.00 561.22 375.47 562.66
C 377.03 563.32 387.88 565.02 399.57 566.46
C 432.84 570.55 449.60 576.35 459.34 587.11
C 468.76 597.53 477.34 596.72 351.22 597.32
C 289.55 597.62 217.06 597.91 190.12 597.98
C 163.18 598.04 135.34 598.49 128.25 598.97
C 121.16 599.45 112.32 599.36 108.61 598.78
M 132.22 591.67
C 136.91 590.28 139.23 588.72 140.96 585.79
C 142.26 583.60 142.96 581.43 142.52 580.98
C 141.42 579.90 120.70 582.97 116.30 584.87
C 114.37 585.70 111.35 587.28 109.61 588.36
L 106.45 590.34
L 112.83 591.82
C 121.66 593.88 124.86 593.86 132.22 591.67
M 625.78 592.27
C 626.21 591.58 613.85 570.57 598.31 545.60
C 582.78 520.64 569.32 498.77 568.42 497.00
C 561.06 482.58 524.32 449.63 498.03 433.87
C 491.73 430.08 486.27 426.64 485.93 426.22
C 485.58 425.79 479.48 421.76 472.39 417.27
C 465.30 412.78 451.68 403.44 442.10 396.54
L 424.70 383.97
L 361.21 383.51
C 319.19 383.20 297.91 383.48 298.28 384.33
C 298.59 385.04 302.11 392.78 306.11 401.52
C 314.59 420.05 322.40 442.85 325.58 458.37
C 326.83 464.39 327.90 469.43 327.99 469.58
C 328.07 469.73 335.41 470.43 344.30 471.15
C 358.45 472.30 362.14 473.12 373.89 477.76
C 389.28 483.81 399.81 489.42 409.74 496.87
C 413.57 499.73 417.11 501.81 417.61 501.50
C 418.12 501.19 417.18 492.08 415.53 481.26
C 409.15 439.66 409.26 440.70 411.08 438.52
C 413.95 435.06 417.54 436.18 430.37 444.57
C 437.18 449.01 446.33 454.94 450.73 457.74
C 458.67 462.81 458.77 462.97 477.70 495.68
C 515.19 560.51 516.85 563.07 523.86 567.18
C 540.38 576.82 578.87 589.33 600.82 592.17
C 612.69 593.72 624.86 593.77 625.78 592.27
M 239.73 586.49
C 242.56 583.73 244.90 580.92 244.90 580.26
C 244.90 579.57 242.09 579.45 238.13 579.99
C 234.40 580.49 226.66 581.36 220.91 581.90
C 212.15 582.71 209.68 583.47 205.74 586.61
L 201.03 590.34
L 205.24 591.21
C 207.56 591.68 215.10 591.95 222.01 591.81
L 234.55 591.54
L 239.73 586.49
M 197.95 584.28
L 206.83 577.57
L 229.91 574.66
C 242.60 573.06 253.21 571.53 253.48 571.26
C 253.75 570.99 256.57 550.55 259.76 525.84
C 265.06 484.58 265.37 480.77 263.42 479.34
C 261.24 477.75 250.59 475.20 244.12 474.73
L 240.42 474.46
L 238.16 496.65
C 235.45 523.12 230.91 545.52 226.10 556.22
C 222.92 563.32 215.65 571.67 212.67 571.67
C 212.02 571.67 198.17 573.70 181.92 576.18
C 165.67 578.67 151.76 580.69 151.04 580.69
C 149.44 580.69 147.71 587.82 148.85 589.67
C 149.35 590.47 157.31 590.99 169.38 590.99
L 189.09 590.99
L 197.95 584.28
M 440.84 589.03
C 446.40 582.35 421.61 574.56 387.32 572.23
C 371.30 571.15 367.51 569.81 365.27 564.46
C 363.08 559.21 361.51 543.76 359.57 508.58
C 358.40 486.95 357.76 481.89 356.05 480.58
C 354.89 479.69 350.40 478.97 345.99 478.97
C 341.61 478.97 336.11 478.58 333.79 478.12
L 329.57 477.28
L 330.37 485.52
C 330.80 490.07 331.87 507.40 332.74 524.06
L 334.30 554.34
L 329.98 562.44
C 327.61 566.88 324.75 571.00 323.62 571.58
C 322.50 572.18 307.67 573.63 290.65 574.83
C 273.64 576.03 258.42 577.53 256.82 578.18
C 254.63 579.06 253.92 580.39 253.92 583.62
C 253.92 585.98 254.62 588.59 255.47 589.44
C 256.64 590.61 278.98 590.99 348.11 590.99
C 428.02 590.99 439.41 590.74 440.84 589.03
M 679.79 582.90
C 680.90 578.56 680.44 577.35 673.35 565.64
C 662.85 548.27 652.96 534.66 592.26 453.98
L 539.42 383.74
L 488.57 383.72
C 458.47 383.70 438.22 384.17 438.95 384.85
C 442.41 388.12 488.71 420.27 502.68 429.12
C 521.01 440.70 523.02 442.26 550.37 465.99
C 577.00 489.09 589.54 501.15 614.03 527.25
C 655.38 571.31 673.87 589.12 677.15 588.05
C 677.96 587.79 679.15 585.48 679.79 582.90
M 286.35 568.44
C 323.33 565.40 320.43 566.16 324.36 558.42
C 327.63 551.97 327.71 551.28 326.91 535.65
L 326.09 519.53
L 316.75 510.75
C 305.42 500.11 294.91 492.45 283.05 486.22
C 273.82 481.36 270.68 480.54 270.68 482.96
C 270.68 485.03 261.76 561.28 260.94 566.20
C 260.56 568.51 260.80 570.39 261.47 570.39
C 262.14 570.39 273.34 569.51 286.35 568.44
M 324.24 498.61
C 321.02 462.01 311.48 426.64 296.83 397.08
L 289.75 382.79
L 263.78 382.06
C 249.50 381.66 237.68 381.46 237.52 381.62
C 237.37 381.77 237.91 387.37 238.72 394.06
C 239.53 400.75 240.24 419.72 240.30 436.21
C 240.39 465.15 240.48 466.22 242.96 466.66
C 244.38 466.91 251.34 468.41 258.43 470.01
C 277.80 474.36 300.01 486.58 317.72 502.64
C 321.27 505.84 324.39 508.49 324.64 508.53
C 324.90 508.56 324.72 504.09 324.24 498.61
M 150.80 390.79
C 156.12 389.64 170.05 385.44 181.74 381.46
C 206.77 372.97 198.84 373.43 279.05 375.64
C 348.46 377.55 533.89 377.73 593.94 375.94
C 642.25 374.50 644.52 374.09 647.82 366.21
C 649.62 361.89 649.40 356.21 645.16 297.28
C 642.62 261.97 639.67 216.41 638.60 196.07
C 636.41 154.70 635.09 142.97 632.12 138.42
C 625.07 127.69 596.77 125.81 584.71 135.28
C 578.29 140.33 577.52 143.59 576.23 171.50
C 575.56 185.87 572.96 223.71 570.44 255.58
C 567.93 287.45 565.87 316.56 565.85 320.28
C 565.84 327.76 563.37 331.47 557.40 332.96
C 555.54 333.42 545.53 332.86 535.13 331.70
C 510.35 328.93 454.90 323.58 433.73 321.90
C 363.14 316.31 287.07 320.99 224.92 334.73
C 209.14 338.20 203.20 338.00 189.22 333.44
C 166.83 326.16 162.88 325.49 141.14 325.25
C 125.10 325.07 117.42 324.35 106.63 322.03
C 98.99 320.39 91.32 319.40 89.59 319.84
C 85.33 320.91 83.25 324.93 85.13 328.44
C 88.30 334.36 111.61 341.39 134.05 343.21
C 147.35 344.29 151.77 345.85 154.05 350.25
C 158.69 359.24 154.62 364.22 139.77 367.69
C 106.76 375.37 57.10 363.55 29.18 341.36
C 20.58 334.52 10.76 334.69 7.55 341.73
C 3.71 350.14 23.12 367.00 49.88 378.50
C 64.95 384.98 80.20 389.95 91.75 392.14
C 103.99 394.45 137.41 393.70 150.80 390.79
M 240.67 324.63
C 241.71 324.05 238.57 319.84 231.39 312.19
C 225.42 305.85 220.51 301.52 220.48 302.58
C 220.46 303.63 221.31 307.40 222.39 310.94
C 223.46 314.48 224.94 319.61 225.68 322.34
L 227.02 327.31
L 233.06 326.41
C 236.38 325.91 239.81 325.11 240.67 324.63
M 270.03 320.06
C 277.12 319.03 289.88 317.54 298.39 316.71
C 306.89 315.90 317.01 314.85 320.87 314.37
L 327.87 313.52
L 300.89 293.95
C 268.54 270.49 262.03 264.23 256.28 251.07
C 252.68 242.85 252.05 239.88 252.02 231.09
C 251.99 221.97 252.49 219.75 256.23 212.16
C 262.62 199.18 276.93 186.42 293.21 179.18
C 311.87 170.87 318.97 169.60 347.69 169.35
C 361.85 169.24 372.59 168.63 372.73 167.94
C 372.95 166.73 365.46 160.51 351.14 150.04
C 341.72 143.15 328.86 136.22 327.29 137.19
C 326.65 137.58 323.61 141.77 320.51 146.52
C 308.25 165.28 298.67 173.38 273.25 186.44
C 256.81 194.88 255.01 195.50 240.49 197.67
C 225.36 199.93 224.89 199.93 208.64 197.25
C 176.42 191.96 154.05 178.82 133.69 153.22
L 130.10 148.71
L 130.90 154.51
C 133.86 176.06 137.94 188.29 147.72 204.97
C 160.82 227.29 175.20 244.49 218.25 289.40
C 246.83 319.21 251.08 323.16 253.92 322.57
C 255.69 322.21 262.94 321.08 270.03 320.06
M 493.66 319.85
C 493.66 317.39 421.91 212.90 414.30 204.27
C 396.66 184.29 395.20 183.22 380.83 179.48
C 356.97 173.29 326.32 173.96 306.35 181.12
C 291.14 186.57 282.15 191.99 272.49 201.50
C 257.48 216.30 254.20 230.63 261.98 247.45
C 268.01 260.51 274.12 266.36 306.59 290.09
L 337.60 312.73
L 377.28 313.34
C 412.50 313.87 447.71 315.98 474.97 319.20
C 486.44 320.55 493.66 320.81 493.66 319.85
M 244.55 189.36
C 264.30 185.29 288.36 171.85 301.73 157.43
C 320.81 136.84 330.44 113.19 330.44 86.91
C 330.44 70.21 329.49 66.39 317.27 33.61
L 308.44 9.91
L 304.14 16.17
C 297.77 25.42 291.29 32.19 288.82 32.19
C 287.62 32.19 284.65 30.09 282.21 27.52
C 266.38 10.85 217.16 4.52 184.25 14.90
C 176.24 17.43 172.68 19.43 167.12 24.50
C 163.27 28.02 159.22 30.90 158.14 30.90
C 157.06 30.90 151.58 25.94 145.96 19.91
L 135.75 8.90
L 130.47 29.88
C 122.28 62.37 120.49 73.40 120.68 90.46
C 120.85 104.97 121.46 108.14 126.04 118.45
C 127.14 120.93 129.03 125.65 130.25 128.94
C 135.54 143.38 151.73 162.28 168.08 173.10
C 180.99 181.64 192.00 186.33 206.23 189.35
C 220.48 192.36 229.96 192.37 244.55 189.36"/>
<path fill="#000000" stroke="none" d="
M 221.15 140.02
C 220.11 138.42 213.67 125.25 206.83 110.73
C 199.99 96.21 194.01 83.92 193.53 83.42
C 193.06 82.91 190.12 84.50 187.01 86.96
C 176.97 94.91 167.43 95.83 158.40 89.74
C 146.06 81.45 143.72 66.31 153.05 55.24
C 157.06 50.47 165.23 46.40 170.78 46.40
C 175.68 46.40 184.19 50.27 187.54 54.03
C 188.96 55.61 197.97 73.43 207.54 93.62
C 217.13 113.81 225.50 130.30 226.12 130.27
C 226.75 130.25 234.78 113.82 243.94 93.76
C 253.12 73.71 261.87 55.92 263.39 54.23
C 266.94 50.30 275.38 46.40 280.34 46.40
C 285.90 46.40 294.07 50.47 298.08 55.24
C 307.41 66.31 305.06 81.45 292.73 89.74
C 283.62 95.88 273.12 94.79 264.23 86.76
L 259.23 82.25
L 257.28 85.22
C 256.21 86.86 250.04 99.79 243.56 113.95
C 237.06 128.11 231.17 140.42 230.44 141.31
C 228.31 143.90 223.22 143.19 221.15 140.02
M 174.88 86.19
C 179.96 84.27 185.30 78.86 186.91 74.01
C 190.38 63.52 176.97 50.27 166.77 54.12
C 157.88 57.48 152.06 67.16 154.72 74.18
C 156.58 79.09 160.86 83.61 165.63 85.74
C 170.41 87.86 170.45 87.86 174.88 86.19
M 284.44 86.19
C 289.52 84.27 294.86 78.86 296.47 74.01
C 299.93 63.52 286.53 50.27 276.33 54.12
C 267.44 57.48 261.61 67.16 264.28 74.18
C 266.14 79.09 270.42 83.61 275.19 85.74
C 279.97 87.86 280.01 87.86 284.44 86.19"/>
<path fill="#000000" stroke="none" d="
M 162.99 77.96
C 156.04 71.01 160.95 59.23 170.78 59.23
C 177.07 59.23 181.74 63.89 181.74 70.17
C 181.74 73.36 180.76 75.77 178.58 77.96
C 176.39 80.14 173.98 81.12 170.78 81.12
C 167.59 81.12 165.18 80.14 162.99 77.96"/>
<path fill="#000000" stroke="none" d="
M 272.54 77.96
C 265.60 71.01 270.51 59.23 280.34 59.23
C 286.63 59.23 291.30 63.89 291.30 70.17
C 291.30 76.45 286.63 81.12 280.34 81.12
C 277.15 81.12 274.74 80.14 272.54 77.96"/>
<path fill="#d7d6c7" stroke="none" d="
M 206.23 189.35
C 192.00 186.33 180.99 181.64 168.08 173.10
C 151.73 162.28 135.54 143.38 130.25 128.94
C 129.03 125.65 127.14 120.93 126.04 118.45
C 121.46 108.14 120.85 104.97 120.68 90.46
C 120.58 80.54 121.31 71.11 122.85 63.09
C 125.58 48.79 134.28 13.33 135.60 11.19
C 136.15 10.29 140.22 13.74 146.33 20.32
C 151.76 26.14 157.07 30.90 158.15 30.90
C 159.22 30.90 163.27 28.02 167.12 24.50
C 172.68 19.43 176.24 17.43 184.25 14.90
C 217.16 4.52 266.38 10.85 282.21 27.52
C 284.65 30.09 287.62 32.19 288.82 32.19
C 291.29 32.19 297.77 25.42 304.14 16.17
L 308.44 9.91
L 317.27 33.61
C 329.49 66.39 330.44 70.21 330.44 86.91
C 330.44 113.19 320.81 136.84 301.73 157.43
C 288.36 171.85 264.30 185.29 244.55 189.36
C 229.96 192.37 220.48 192.36 206.23 189.35
M 230.44 141.31
C 231.17 140.42 237.06 128.11 243.56 113.95
C 250.04 99.79 256.21 86.86 257.28 85.22
L 259.23 82.25
L 264.23 86.76
C 273.12 94.79 283.62 95.88 292.73 89.74
C 305.06 81.45 307.41 66.31 298.08 55.24
C 294.07 50.47 285.90 46.40 280.34 46.40
C 275.38 46.40 266.94 50.30 263.39 54.23
C 261.87 55.92 253.12 73.71 243.94 93.76
C 234.78 113.82 226.75 130.25 226.12 130.27
C 225.50 130.30 217.13 113.81 207.54 93.62
C 197.97 73.43 188.96 55.61 187.54 54.03
C 184.19 50.27 175.68 46.40 170.78 46.40
C 165.23 46.40 157.06 50.47 153.05 55.24
C 143.72 66.31 146.06 81.45 158.40 89.74
C 167.43 95.83 176.97 94.91 187.01 86.96
C 190.12 84.50 193.06 82.91 193.53 83.42
C 194.01 83.92 199.99 96.21 206.83 110.73
C 213.67 125.25 220.11 138.42 221.15 140.02
C 223.22 143.19 228.31 143.90 230.44 141.31"/>
<path fill="#eb2e00" stroke="none" d="
M 165.63 85.74
C 160.86 83.61 156.58 79.09 154.72 74.18
C 150.83 63.90 164.70 50.30 175.06 54.23
C 183.63 57.48 189.27 66.84 186.93 73.93
C 185.30 78.85 180.00 84.26 174.88 86.19
C 170.45 87.86 170.41 87.86 165.63 85.74
M 178.58 77.96
C 185.53 71.01 180.62 59.23 170.78 59.23
C 164.49 59.23 159.83 63.89 159.83 70.17
C 159.83 76.45 164.49 81.12 170.78 81.12
C 173.98 81.12 176.39 80.14 178.58 77.96"/>
<path fill="#eb2e00" stroke="none" d="
M 275.19 85.74
C 270.42 83.61 266.14 79.09 264.28 74.18
C 261.61 67.16 267.44 57.48 276.33 54.12
C 286.53 50.27 299.93 63.52 296.47 74.01
C 294.86 78.86 289.52 84.27 284.44 86.19
C 280.01 87.86 279.97 87.86 275.19 85.74
M 288.14 77.96
C 295.09 71.01 290.18 59.23 280.34 59.23
C 274.05 59.23 269.39 63.89 269.39 70.17
C 269.39 76.45 274.05 81.12 280.34 81.12
C 283.54 81.12 285.95 80.14 288.14 77.96"/>
<path fill="#ae3c2a" stroke="none" d="
M 91.75 392.14
C 74.27 388.82 45.95 378.12 31.48 369.35
C 22.18 363.72 12.48 355.16 8.96 349.45
C 6.61 345.67 6.37 344.33 7.55 341.73
C 10.76 334.69 20.58 334.52 29.18 341.36
C 57.10 363.55 106.76 375.37 139.77 367.69
C 154.62 364.22 158.69 359.24 154.05 350.25
C 151.77 345.85 147.35 344.29 134.05 343.21
C 111.61 341.39 88.30 334.36 85.13 328.44
C 83.25 324.93 85.33 320.91 89.59 319.84
C 91.32 319.40 98.99 320.39 106.63 322.03
C 117.42 324.35 125.10 325.07 141.14 325.25
C 162.88 325.49 166.83 326.16 189.22 333.44
C 203.20 338.00 209.14 338.20 224.92 334.73
C 287.07 320.99 363.14 316.31 433.73 321.90
C 454.90 323.58 510.35 328.93 535.13 331.70
C 545.53 332.86 555.54 333.42 557.40 332.96
C 563.37 331.47 565.84 327.76 565.85 320.28
C 565.87 316.56 567.93 287.45 570.44 255.58
C 572.96 223.71 575.56 185.81 576.23 171.35
C 577.58 142.39 578.32 139.67 586.30 134.30
C 598.86 125.83 625.41 128.23 632.12 138.42
C 635.09 142.97 636.41 154.70 638.60 196.07
C 639.67 216.41 642.62 261.97 645.16 297.28
C 649.40 356.21 649.62 361.89 647.82 366.21
C 644.52 374.09 642.25 374.50 593.94 375.94
C 533.89 377.73 348.46 377.55 279.05 375.64
C 198.84 373.43 206.77 372.97 181.74 381.46
C 170.05 385.44 156.12 389.64 150.80 390.79
C 137.41 393.70 103.99 394.45 91.75 392.14"/>
<path fill="#f8c574" stroke="none" d="
M 600.82 592.17
C 578.87 589.33 540.38 576.82 523.86 567.18
C 516.85 563.07 515.19 560.51 477.70 495.68
C 458.77 462.97 458.67 462.81 450.73 457.74
C 446.33 454.94 437.18 449.01 430.37 444.57
C 417.54 436.18 413.95 435.06 411.08 438.52
C 409.26 440.70 409.15 439.66 415.53 481.26
C 417.18 492.08 418.12 501.19 417.61 501.50
C 417.11 501.81 413.57 499.73 409.74 496.87
C 399.81 489.42 389.28 483.81 373.89 477.76
C 362.14 473.12 358.45 472.30 344.30 471.15
C 335.41 470.43 328.07 469.73 327.99 469.58
C 327.90 469.43 326.83 464.39 325.58 458.37
C 322.40 442.85 314.59 420.05 306.11 401.52
C 302.11 392.78 298.59 385.04 298.28 384.33
C 297.91 383.48 319.19 383.20 361.21 383.51
L 424.70 383.97
L 442.10 396.54
C 451.68 403.44 465.30 412.78 472.39 417.27
C 479.48 421.76 485.58 425.79 485.93 426.22
C 486.27 426.64 491.73 430.08 498.03 433.87
C 524.32 449.63 561.06 482.58 568.42 497.00
C 569.32 498.77 582.78 520.64 598.31 545.60
C 613.85 570.57 626.21 591.58 625.78 592.27
C 624.86 593.77 612.69 593.72 600.82 592.17"/>
<path fill="#f8c574" stroke="none" d="
M 317.72 502.64
C 300.01 486.58 277.80 474.36 258.43 470.01
C 251.34 468.41 244.38 466.91 242.96 466.66
C 240.48 466.22 240.39 465.15 240.30 436.21
C 240.24 419.72 239.53 400.75 238.72 394.06
C 237.91 387.37 237.37 381.77 237.52 381.62
C 237.68 381.46 249.50 381.66 263.78 382.06
L 289.75 382.79
L 296.83 397.08
C 308.48 420.61 316.29 445.36 320.84 473.18
C 323.38 488.73 325.52 508.64 324.64 508.53
C 324.39 508.49 321.27 505.84 317.72 502.64"/>
<path fill="#f8c574" stroke="none" d="
M 225.68 322.34
C 224.94 319.61 223.46 314.48 222.39 310.94
C 221.31 307.40 220.46 303.63 220.48 302.58
C 220.51 301.52 225.42 305.85 231.39 312.19
C 238.57 319.84 241.71 324.05 240.67 324.63
C 239.81 325.11 236.38 325.91 233.06 326.41
L 227.02 327.31
L 225.68 322.34"/>
<path fill="#f8c574" stroke="none" d="
M 218.25 289.40
C 175.20 244.49 160.82 227.29 147.72 204.97
C 137.94 188.29 133.86 176.06 130.90 154.51
L 130.10 148.71
L 133.69 153.22
C 147.36 170.41 164.16 183.35 182.14 190.55
C 188.15 192.94 198.74 195.63 208.64 197.25
C 224.89 199.93 225.36 199.93 240.49 197.67
C 255.01 195.50 256.81 194.88 273.25 186.44
C 298.70 173.37 308.25 165.28 320.54 146.46
C 324.77 140.00 326.96 137.77 329.12 137.77
C 332.54 137.77 347.96 147.03 358.71 155.55
C 372.75 166.67 373.91 167.70 373.17 168.42
C 372.78 168.82 361.30 169.24 347.66 169.35
C 318.97 169.60 311.87 170.87 293.21 179.18
C 276.93 186.42 262.62 199.18 256.23 212.16
C 252.49 219.75 251.99 221.97 252.02 231.09
C 252.05 239.88 252.68 242.85 256.28 251.07
C 262.03 264.23 268.54 270.49 300.89 293.95
L 327.87 313.52
L 320.87 314.37
C 317.01 314.85 306.89 315.90 298.39 316.71
C 283.71 318.13 260.92 321.13 253.92 322.57
C 251.08 323.16 246.83 319.21 218.25 289.40"/>
<path fill="#6b8e92" stroke="none" d="
M 668.13 582.17
C 659.48 574.88 643.45 558.59 614.03 527.25
C 589.54 501.15 577.00 489.09 550.37 465.99
C 523.02 442.26 521.01 440.70 502.68 429.12
C 488.71 420.27 442.41 388.12 438.95 384.85
C 438.22 384.17 458.47 383.70 488.57 383.72
L 539.42 383.74
L 592.26 453.98
C 652.96 534.66 662.85 548.27 673.35 565.64
C 680.44 577.35 680.90 578.56 679.79 582.90
C 679.15 585.48 677.96 587.79 677.15 588.05
C 676.34 588.32 672.28 585.67 668.13 582.17"/>
<path fill="#6b8e92" stroke="none" d="
M 474.97 319.20
C 447.71 315.98 412.50 313.87 377.28 313.34
L 337.60 312.73
L 306.59 290.09
C 274.12 266.36 268.01 260.51 261.98 247.45
C 254.20 230.63 257.48 216.30 272.49 201.50
C 282.17 191.95 291.13 186.57 306.51 181.07
C 326.15 174.03 357.14 173.37 380.83 179.50
C 395.21 183.22 396.64 184.27 414.30 204.27
C 421.91 212.90 493.66 317.39 493.66 319.85
C 493.66 320.81 486.44 320.55 474.97 319.20"/>
<path fill="#828282" stroke="none" d="
M 148.85 589.67
C 147.71 587.82 149.44 580.69 151.04 580.69
C 151.76 580.69 165.67 578.67 181.92 576.18
C 198.17 573.70 212.02 571.67 212.67 571.67
C 213.33 571.67 215.83 569.95 218.24 567.85
C 227.55 559.67 234.11 536.37 237.98 497.64
C 239.17 485.60 240.79 475.33 241.56 474.81
C 242.33 474.30 243.84 474.12 244.90 474.40
C 245.95 474.70 250.09 475.57 254.07 476.36
C 266.80 478.88 266.32 474.75 259.76 525.84
C 256.57 550.55 253.75 570.99 253.48 571.26
C 253.21 571.53 242.60 573.06 229.91 574.66
L 206.83 577.57
L 197.95 584.28
L 189.09 590.99
L 169.38 590.99
C 157.31 590.99 149.35 590.47 148.85 589.67"/>
<path fill="#828282" stroke="none" d="
M 255.47 589.44
C 254.62 588.59 253.92 585.98 253.92 583.62
C 253.92 580.39 254.63 579.06 256.82 578.18
C 258.42 577.53 273.64 576.03 290.65 574.83
C 307.67 573.63 322.50 572.18 323.62 571.58
C 324.75 571.00 327.61 566.88 329.98 562.44
L 334.30 554.34
L 332.74 524.06
C 331.87 507.40 330.80 490.07 330.37 485.52
L 329.57 477.28
L 333.79 478.12
C 336.11 478.58 341.61 478.97 345.99 478.97
C 350.40 478.97 354.89 479.69 356.05 480.58
C 357.76 481.89 358.40 486.95 359.57 508.58
C 361.51 543.76 363.08 559.21 365.27 564.46
C 367.51 569.81 371.30 571.15 387.32 572.23
C 421.61 574.56 446.40 582.35 440.84 589.03
C 439.41 590.74 428.02 590.99 348.11 590.99
C 278.98 590.99 256.64 590.61 255.47 589.44"/>
<path fill="#e4e2cb" stroke="none" d="
M 112.83 591.82
L 106.45 590.34
L 109.61 588.36
C 111.35 587.28 114.37 585.70 116.30 584.87
C 120.70 582.97 141.42 579.90 142.52 580.98
C 142.96 581.43 142.26 583.60 140.96 585.79
C 139.23 588.72 136.91 590.28 132.22 591.67
C 124.86 593.86 121.66 593.88 112.83 591.82"/>
<path fill="#e4e2cb" stroke="none" d="
M 205.24 591.21
L 201.03 590.34
L 205.74 586.61
C 209.80 583.39 212.05 582.73 222.19 581.81
C 228.66 581.21 236.40 580.36 239.42 579.91
C 242.45 579.46 244.90 579.63 244.90 580.27
C 244.90 580.92 242.56 583.73 239.73 586.49
L 234.55 591.54
L 222.01 591.81
C 215.10 591.95 207.56 591.68 205.24 591.21"/>
</g>
</svg>
