<?xml version="1.0" encoding="UTF-8" standalone="no"?>
<!DOCTYPE svg PUBLIC "-//W3C//DTD SVG 1.1//EN"
"http://www.w3.org/Graphics/SVG/1.1/DTD/svg11.dtd">
<svg width="505px" height="600px"
xmlns="http://www.w3.org/2000/svg" version="1.1">
<g transform="translate(0000, 0000) scale(1.0000, 1.0000)">
<path fill="#000000" stroke="none" d="
M 48.54 598.88
C 47.43 597.07 37.04 596.15 35.18 597.69
C 33.12 599.42 27.12 597.05 27.12 594.50
C 27.12 586.36 50.00 577.15 90.41 568.99
C 100.70 566.93 111.45 564.57 114.26 563.77
C 120.83 561.90 135.23 547.57 144.02 534.19
C 153.18 520.25 165.45 495.37 169.74 482.06
C 172.99 471.92 173.34 469.37 172.64 460.13
C 171.79 448.79 167.24 428.58 161.87 412.32
C 158.76 402.93 157.54 401.10 147.26 390.39
C 119.04 360.99 100.02 332.43 78.49 287.10
C 67.72 264.43 63.21 251.42 60.08 234.03
C 56.35 213.24 56.20 213.28 48.39 237.23
C 44.29 249.86 40.37 259.56 38.66 261.39
C 37.07 263.07 33.22 265.42 30.11 266.62
C 25.25 268.46 23.44 268.55 17.46 267.21
C 13.63 266.36 9.05 264.53 7.28 263.14
C 2.56 259.42 -0.44 250.48 0.26 242.13
C 2.04 220.61 27.41 196.71 51.79 193.57
C 56.34 192.99 61.00 192.13 62.15 191.66
C 63.30 191.20 67.76 184.32 72.03 176.37
C 88.29 146.19 88.81 144.40 83.60 136.67
C 78.44 129.02 73.19 126.45 62.77 126.48
C 57.73 126.48 48.06 125.54 41.28 124.36
C 29.69 122.35 28.35 122.36 18.68 124.48
C 5.10 127.46 2.53 127.52 0.85 124.89
C -0.25 123.19 0.06 121.38 2.21 116.97
C 9.03 102.94 19.27 96.45 38.10 94.21
C 70.80 90.30 69.96 90.48 74.51 86.77
C 88.48 75.41 91.57 73.35 96.54 72.08
C 99.57 71.30 102.03 69.92 102.03 69.02
C 102.03 67.47 100.26 60.45 92.42 30.97
C 88.99 18.04 88.28 9.14 90.38 5.21
C 91.87 2.44 98.17 0.00 103.88 0.00
C 108.88 0.00 113.04 2.80 115.71 7.96
C 118.57 13.48 122.32 36.36 123.52 55.48
L 124.55 71.61
L 126.02 44.52
C 127.62 15.26 129.12 8.70 135.29 3.85
C 142.33 -1.68 149.69 1.63 154.50 12.48
C 160.44 25.91 157.75 49.95 148.06 70.01
L 143.72 79.02
L 149.54 85.57
C 162.21 99.82 166.93 119.90 162.05 138.63
C 159.75 147.47 151.35 165.19 144.38 175.90
C 140.72 181.51 139.79 183.96 140.68 185.63
C 141.46 187.08 146.66 189.07 155.85 191.45
C 163.55 193.43 175.15 197.26 181.63 199.96
C 193.53 204.90 220.38 219.66 222.78 222.58
C 223.50 223.45 226.71 225.92 229.90 228.09
C 239.98 234.90 254.72 249.47 265.57 263.35
C 281.96 284.35 319.89 337.21 329.94 353.07
C 334.94 360.97 342.30 372.28 346.29 378.23
C 350.30 384.17 359.80 399.77 367.42 412.90
C 375.04 426.04 389.21 450.05 398.90 466.28
C 423.19 506.97 429.08 512.74 477.45 543.24
C 490.12 551.23 501.53 558.66 502.79 559.77
C 506.11 562.67 505.04 566.55 499.96 569.96
C 496.19 572.49 493.94 572.90 483.82 572.89
C 473.42 572.86 461.15 570.97 454.24 568.31
C 452.15 567.51 452.20 568.00 454.81 573.37
C 457.59 579.07 457.61 579.51 455.57 583.79
C 453.01 589.15 451.09 589.77 425.57 593.48
C 403.43 596.71 397.35 596.75 390.70 593.72
C 382.22 589.86 377.99 585.42 359.54 561.05
C 349.87 548.26 337.58 532.49 332.23 526.00
C 321.70 513.23 277.47 468.45 273.02 466.08
C 270.40 464.67 270.13 465.26 265.71 482.48
C 258.52 510.45 254.64 518.67 237.45 542.18
C 219.47 566.79 217.89 569.43 220.12 571.06
C 221.23 571.87 228.68 573.83 236.68 575.41
C 253.00 578.62 255.51 579.83 259.62 586.48
C 261.85 590.08 262.21 591.78 261.24 593.96
C 260.17 596.37 258.73 596.85 251.08 597.28
C 246.17 597.56 233.73 597.57 223.44 597.32
C 204.39 596.84 200.88 596.84 134.97 597.26
C 114.37 597.39 89.08 597.32 78.79 597.08
C 65.43 596.80 59.06 597.15 56.57 598.34
C 52.53 600.27 49.52 600.46 48.54 598.88
M 112.92 591.11
C 113.31 590.49 117.43 588.63 122.07 586.99
C 131.43 583.69 132.40 581.16 124.14 581.54
C 118.31 581.81 104.06 589.02 105.33 591.07
C 106.27 592.59 111.99 592.62 112.92 591.11
M 183.40 590.39
C 201.52 590.35 221.31 590.77 227.39 591.34
C 237.47 592.26 238.69 592.13 241.47 589.73
C 243.14 588.28 245.98 587.10 247.79 587.10
C 254.51 587.10 248.20 584.83 231.84 581.35
C 214.05 577.57 209.23 575.55 209.23 571.85
C 209.23 570.59 215.77 560.79 223.76 550.05
C 236.94 532.37 249.22 513.66 251.23 508.23
C 251.80 506.68 250.61 505.59 246.60 503.99
C 243.63 502.80 241.06 502.00 240.88 502.21
C 240.71 502.41 236.79 508.68 232.20 516.13
C 216.78 541.11 196.20 571.59 193.98 572.74
C 192.78 573.35 184.82 574.28 176.31 574.79
C 161.94 575.64 160.06 576.06 150.36 580.70
C 144.62 583.43 139.18 586.55 138.30 587.63
C 135.58 590.89 137.84 592.26 144.38 591.32
C 147.73 590.84 165.28 590.43 183.40 590.39
M 55.37 589.12
C 57.35 588.10 59.71 586.36 60.64 585.25
C 62.03 583.56 61.97 583.23 60.24 583.23
C 56.44 583.23 41.38 588.72 42.08 589.85
C 43.18 591.61 51.43 591.16 55.37 589.12
M 93.35 586.41
C 96.57 584.62 99.92 582.30 100.78 581.25
C 102.08 579.68 101.83 579.32 99.28 579.15
C 94.19 578.83 89.83 579.46 88.54 580.74
C 87.86 581.39 85.82 581.94 84.02 581.95
C 80.75 581.96 67.16 587.63 67.16 588.97
C 67.16 589.35 71.73 589.68 77.33 589.68
C 85.81 589.68 88.47 589.14 93.35 586.41
M 420.40 587.08
C 446.08 583.87 446.49 583.77 448.20 580.59
C 450.41 576.48 442.51 562.95 437.24 561.82
C 424.74 559.11 394.73 543.38 374.01 528.66
C 360.85 519.32 312.69 481.02 305.07 473.83
C 298.63 467.77 237.10 421.01 190.51 386.76
C 142.86 351.75 139.86 349.25 128.43 335.06
C 111.28 313.75 98.15 289.21 93.03 268.94
C 88.54 251.12 90.06 242.88 99.61 233.30
C 107.17 225.70 112.82 223.99 139.49 221.17
C 164.85 218.52 189.77 219.46 209.88 223.85
C 213.61 224.66 213.66 224.62 211.17 222.62
C 207.14 219.37 181.43 206.53 173.29 203.69
C 169.26 202.28 159.29 199.42 151.11 197.30
C 142.94 195.20 135.65 192.68 134.93 191.70
C 133.82 190.25 131.97 190.49 124.00 193.16
C 116.01 195.83 112.60 196.28 103.39 195.86
C 92.32 195.35 87.34 193.82 79.17 188.39
L 75.04 185.64
L 71.81 192.01
C 68.04 199.45 66.99 199.99 56.40 200.03
C 30.02 200.13 1.29 229.95 7.90 250.37
C 8.89 253.42 11.25 257.06 13.16 258.46
C 18.02 262.05 27.12 262.10 31.88 258.58
C 35.89 255.60 36.68 253.64 43.96 228.39
C 48.85 211.50 51.62 206.45 56.08 206.45
C 60.46 206.45 62.07 210.13 65.66 228.39
C 70.82 254.52 73.84 263.24 86.69 289.03
C 105.91 327.61 126.29 358.72 146.28 380.00
C 157.16 391.59 173.03 403.46 195.41 416.74
L 200.31 419.64
L 199.52 416.50
C 198.63 412.93 201.99 409.02 204.13 411.16
C 207.80 414.83 235.34 472.12 239.04 483.81
C 243.15 496.76 243.37 497.12 248.52 499.33
L 253.79 501.59
L 255.88 494.79
C 257.03 491.06 258.67 484.03 259.53 479.16
C 260.39 474.30 261.57 468.88 262.15 467.10
C 267.39 451.01 269.50 448.50 272.66 454.52
C 273.51 456.12 286.83 469.91 302.26 485.16
C 329.67 512.25 334.17 517.46 370.88 564.74
C 382.79 580.05 387.13 584.70 391.55 586.84
C 394.64 588.32 397.74 589.57 398.45 589.61
C 399.16 589.64 409.04 588.50 420.40 587.08
M 127.55 573.51
C 141.68 571.30 140.60 572.13 149.89 556.31
C 153.36 550.39 161.68 538.19 168.37 529.21
C 175.06 520.25 184.14 506.08 188.54 497.73
L 196.56 482.54
L 189.30 479.34
C 185.30 477.57 181.28 476.13 180.35 476.13
C 179.40 476.13 178.03 478.95 177.15 482.75
C 173.93 496.68 157.84 526.71 142.72 547.01
C 131.78 561.69 125.80 566.98 116.92 569.77
C 113.35 570.89 109.58 572.09 108.53 572.43
C 106.85 572.97 106.85 573.19 108.53 574.25
C 111.10 575.87 112.97 575.79 127.55 573.51
M 173.71 568.32
C 181.88 567.82 189.10 566.72 190.69 565.73
C 196.55 562.06 235.06 501.57 235.06 496.04
C 235.06 489.96 220.96 455.48 218.48 455.48
C 216.28 455.48 209.35 467.66 203.52 481.75
C 196.39 498.99 188.36 512.95 175.59 530.32
C 165.02 544.67 155.52 559.06 151.81 566.31
L 149.56 570.70
L 154.54 569.94
C 157.27 569.52 165.90 568.79 173.71 568.32
M 495.38 564.63
C 497.75 562.89 497.68 562.71 493.56 560.44
C 463.71 544.00 432.12 522.08 420.70 509.87
C 412.20 500.79 399.63 481.08 371.98 433.55
C 350.74 397.01 299.50 318.72 274.02 283.87
C 263.52 269.51 247.67 251.56 237.54 242.58
C 229.50 235.43 227.62 234.41 218.60 232.28
C 199.31 227.72 188.06 226.54 164.67 226.65
C 139.81 226.76 118.18 229.32 110.23 233.08
C 87.89 243.68 98.31 285.65 134.85 332.26
C 145.35 345.65 164.18 360.65 208.59 390.94
C 238.41 411.29 259.28 427.41 304.81 465.23
C 350.93 503.55 370.10 518.50 388.11 530.23
C 403.94 540.53 425.00 551.08 436.25 554.35
C 440.32 555.54 444.99 557.38 446.65 558.45
C 455.68 564.36 489.82 568.68 495.38 564.63
M 203.12 467.08
C 205.80 461.43 209.78 454.77 211.96 452.28
L 215.95 447.75
L 212.41 441.73
C 206.87 432.30 199.40 425.75 184.19 417.03
C 176.45 412.59 169.93 409.16 169.70 409.39
C 169.47 409.63 171.31 419.26 173.79 430.81
C 176.29 442.35 178.74 455.96 179.24 461.05
L 180.17 470.30
L 188.57 473.75
C 193.18 475.66 197.25 477.25 197.61 477.29
C 197.97 477.32 200.44 472.74 203.12 467.08
M 121.59 188.41
C 129.76 185.88 129.84 185.81 137.76 173.90
C 148.68 157.47 153.46 147.55 155.79 136.49
C 159.15 120.58 155.74 102.95 147.37 92.81
C 139.97 83.86 123.05 77.42 106.92 77.42
C 98.78 77.42 90.02 81.86 82.89 89.57
C 76.74 96.23 74.91 100.12 74.91 106.45
C 74.91 113.08 76.78 116.74 85.17 126.46
C 96.91 140.09 96.88 143.20 84.78 167.54
L 78.14 180.89
L 82.01 183.99
C 90.99 191.16 106.99 192.95 121.59 188.41
M 68.21 116.75
C 66.73 113.51 66.63 113.50 54.99 114.35
C 38.99 115.52 36.09 116.72 45.20 118.40
C 49.11 119.11 56.22 119.77 61.00 119.85
L 69.69 120.00
L 68.21 116.75
M 32.37 110.31
C 37.24 109.29 46.75 108.06 53.54 107.59
L 65.86 106.72
L 67.12 102.14
C 67.82 99.63 68.26 97.45 68.09 97.29
C 67.94 97.14 59.57 97.79 49.49 98.75
C 28.69 100.74 20.38 103.50 14.19 110.53
C 12.08 112.95 10.33 115.43 10.33 116.05
C 10.33 116.67 13.30 116.04 16.93 114.67
C 20.55 113.29 27.50 111.33 32.37 110.31
M 141.67 67.55
C 150.16 52.10 153.45 29.25 149.05 16.34
C 147.91 13.01 145.77 9.63 144.28 8.84
C 142.01 7.61 141.14 7.91 138.73 10.72
C 134.63 15.48 133.35 23.28 132.31 50.13
C 131.53 69.70 131.69 74.01 133.17 74.95
C 136.04 76.76 137.15 75.79 141.67 67.55
M 116.51 53.55
C 115.75 19.63 109.12 1.28 99.51 6.41
C 96.34 8.12 94.99 12.85 96.09 18.44
C 96.74 21.74 107.26 62.43 109.28 69.45
C 109.58 70.45 111.20 70.98 113.32 70.74
L 116.89 70.32
L 116.51 53.55"/>
<path fill="#000000" stroke="none" d="
M 98.74 110.39
C 91.78 103.42 96.70 91.61 106.55 91.61
C 112.86 91.61 117.53 96.28 117.53 102.58
C 117.53 105.78 116.55 108.19 114.37 110.39
C 112.17 112.57 109.76 113.55 106.55 113.55
C 103.35 113.55 100.94 112.57 98.74 110.39
M 111.64 106.81
C 112.75 105.24 113.66 103.26 113.66 102.44
C 113.66 100.09 108.83 94.72 107.72 95.83
C 107.17 96.37 107.42 97.51 108.26 98.35
C 110.12 100.21 110.27 105.35 108.49 106.45
C 107.78 106.89 107.20 107.79 107.20 108.46
C 107.20 110.63 109.59 109.74 111.64 106.81"/>
<path fill="#c62b3f" stroke="none" d="
M 133.17 74.95
C 131.69 74.01 131.53 69.70 132.31 50.13
C 133.35 23.28 134.63 15.48 138.73 10.72
C 141.14 7.91 142.01 7.61 144.28 8.84
C 150.97 12.41 153.02 32.14 148.53 49.69
C 146.02 59.45 138.70 74.92 136.20 75.70
C 135.52 75.91 134.15 75.57 133.17 74.95"/>
<path fill="#c62b3f" stroke="none" d="
M 109.28 69.45
C 107.26 62.43 96.74 21.74 96.09 18.44
C 94.90 12.43 96.45 7.83 100.12 6.44
C 104.60 4.74 106.93 6.01 109.86 11.78
C 113.63 19.15 116.09 34.57 116.51 53.55
L 116.89 70.32
L 113.32 70.74
C 111.20 70.98 109.58 70.45 109.28 69.45"/>
<path fill="#80add2" stroke="none" d="
M 91.05 188.93
C 88.21 187.91 84.15 185.69 82.01 183.99
L 78.14 180.89
L 84.78 167.54
C 96.88 143.20 96.91 140.09 85.17 126.46
C 76.78 116.74 74.91 113.08 74.91 106.45
C 74.91 100.12 76.74 96.25 82.94 89.50
C 89.66 82.19 99.23 77.45 107.29 77.43
C 123.00 77.39 140.03 83.94 147.37 92.81
C 155.74 102.95 159.15 120.58 155.79 136.49
C 153.46 147.55 148.68 157.47 137.76 173.90
C 129.84 185.81 129.76 185.88 121.59 188.41
C 111.99 191.41 98.64 191.63 91.05 188.93
M 114.37 110.39
C 121.33 103.42 116.41 91.61 106.55 91.61
C 96.70 91.61 91.78 103.42 98.74 110.39
C 100.94 112.57 103.35 113.55 106.55 113.55
C 109.76 113.55 112.17 112.57 114.37 110.39"/>
<path fill="#eb2e00" stroke="none" d="
M 107.20 108.57
C 107.20 107.85 107.78 106.89 108.49 106.45
C 110.21 105.39 110.14 100.23 108.37 98.46
C 107.41 97.50 107.39 96.80 108.32 96.23
C 109.06 95.78 110.67 96.94 111.91 98.81
C 113.90 101.86 113.94 102.59 112.29 105.54
C 110.35 108.97 107.20 110.85 107.20 108.57"/>
<path fill="#615362" stroke="none" d="
M 45.20 118.40
C 36.09 116.72 38.99 115.52 54.99 114.35
C 66.63 113.50 66.73 113.51 68.21 116.75
L 69.69 120.00
L 61.00 119.85
C 56.22 119.77 49.11 119.11 45.20 118.40"/>
<path fill="#615362" stroke="none" d="
M 10.33 116.05
C 10.33 115.43 12.08 112.95 14.19 110.53
C 19.80 104.17 28.61 100.86 44.15 99.34
C 69.52 96.86 68.58 96.86 67.95 99.19
C 65.73 107.20 66.66 106.66 53.51 107.59
C 39.32 108.58 26.35 111.10 16.93 114.67
C 13.30 116.04 10.33 116.67 10.33 116.05"/>
<path fill="#7783c9" stroke="none" d="
M 391.55 586.84
C 387.13 584.70 382.79 580.05 370.88 564.74
C 334.17 517.46 329.67 512.25 302.26 485.16
C 286.83 469.91 273.51 456.12 272.66 454.52
C 269.50 448.50 267.39 451.01 262.15 467.10
C 261.57 468.88 260.39 474.30 259.53 479.16
C 258.67 484.03 257.03 491.06 255.88 494.79
L 253.79 501.59
L 248.52 499.33
C 243.37 497.12 243.15 496.76 239.04 483.81
C 235.34 472.12 207.80 414.83 204.13 411.16
C 201.99 409.02 198.63 412.93 199.52 416.50
L 200.31 419.64
L 195.41 416.74
C 154.07 392.21 137.37 375.34 109.02 329.54
C 95.60 307.82 76.58 270.03 72.40 256.77
C 70.73 251.46 67.70 238.67 65.66 228.39
C 62.07 210.13 60.46 206.45 56.08 206.45
C 51.62 206.45 48.85 211.50 43.96 228.39
C 36.68 253.64 35.89 255.60 31.88 258.58
C 27.12 262.10 18.02 262.05 13.16 258.46
C 11.25 257.06 8.89 253.42 7.90 250.37
C 1.27 229.86 30.02 200.13 56.60 200.03
C 66.64 199.99 68.65 198.97 71.64 192.34
C 74.30 186.44 76.12 185.95 81.41 189.70
C 91.51 196.89 109.20 198.25 124.58 193.01
C 132.07 190.45 133.81 190.23 134.92 191.70
C 135.65 192.68 142.94 195.20 151.11 197.30
C 159.29 199.42 169.26 202.28 173.29 203.69
C 181.43 206.53 207.14 219.37 211.17 222.62
C 213.66 224.62 213.61 224.66 209.88 223.85
C 189.77 219.46 164.85 218.52 139.49 221.17
C 112.82 223.99 107.17 225.70 99.61 233.30
C 90.06 242.88 88.54 251.12 93.03 268.94
C 98.15 289.21 111.28 313.75 128.43 335.06
C 139.86 349.25 142.86 351.75 190.51 386.76
C 237.10 421.01 298.63 467.77 305.07 473.83
C 312.69 481.02 360.85 519.32 374.01 528.66
C 394.73 543.38 424.74 559.11 437.24 561.82
C 440.34 562.49 442.04 564.26 445.38 570.32
C 450.01 578.74 449.59 582.57 443.94 583.85
C 440.59 584.61 400.36 589.70 398.45 589.61
C 397.74 589.57 394.64 588.32 391.55 586.84"/>
<path fill="#7783c9" stroke="none" d="
M 188.57 473.75
L 180.17 470.30
L 179.24 461.05
C 178.74 455.96 176.29 442.35 173.79 430.81
C 171.31 419.26 169.47 409.63 169.70 409.39
C 169.93 409.16 176.45 412.59 184.19 417.03
C 199.40 425.75 206.87 432.30 212.41 441.73
L 215.95 447.75
L 211.96 452.28
C 209.78 454.77 205.80 461.43 203.12 467.08
C 200.44 472.74 197.97 477.32 197.61 477.29
C 197.25 477.25 193.18 475.66 188.57 473.75"/>
<path fill="#4d5277" stroke="none" d="
M 461.50 563.34
C 454.98 561.73 448.30 559.54 446.65 558.45
C 444.99 557.38 440.32 555.54 436.25 554.35
C 425.00 551.08 403.94 540.53 388.11 530.23
C 370.10 518.50 350.93 503.55 304.81 465.23
C 259.28 427.41 238.41 411.29 208.59 390.94
C 164.18 360.65 145.35 345.65 134.85 332.26
C 98.31 285.65 87.89 243.68 110.23 233.08
C 118.09 229.35 139.81 226.80 164.67 226.67
C 188.09 226.54 199.25 227.70 218.60 232.28
C 227.62 234.41 229.50 235.43 237.54 242.58
C 247.67 251.56 263.52 269.51 274.02 283.87
C 299.50 318.72 350.74 397.01 371.98 433.55
C 399.63 481.08 412.20 500.79 420.70 509.87
C 432.12 522.08 463.71 544.00 493.56 560.44
C 497.68 562.71 497.75 562.89 495.38 564.63
C 491.59 567.39 475.35 566.77 461.50 563.34"/>
<path fill="#303741" stroke="none" d="
M 137.50 590.88
C 136.09 588.61 139.58 585.83 150.36 580.70
C 160.06 576.06 161.94 575.64 176.31 574.79
C 184.82 574.28 192.78 573.35 193.98 572.74
C 196.20 571.59 216.78 541.11 232.20 516.13
C 236.79 508.68 240.71 502.41 240.88 502.21
C 241.06 502.00 243.63 502.80 246.60 503.99
C 250.61 505.59 251.80 506.68 251.23 508.23
C 249.22 513.66 236.94 532.37 223.76 550.05
C 215.77 560.79 209.23 570.59 209.23 571.85
C 209.23 575.55 214.05 577.57 231.84 581.35
C 248.20 584.83 254.51 587.10 247.79 587.10
C 245.98 587.10 243.14 588.28 241.47 589.73
C 238.69 592.13 237.47 592.26 227.39 591.34
C 214.04 590.12 152.91 590.10 144.38 591.32
C 140.69 591.85 137.99 591.68 137.50 590.88"/>
<path fill="#303741" stroke="none" d="
M 108.53 574.25
C 106.85 573.19 106.85 572.97 108.53 572.43
C 109.58 572.09 113.35 570.89 116.92 569.77
C 120.50 568.65 125.68 565.87 128.42 563.60
C 142.76 551.79 171.95 503.65 177.03 483.43
C 177.89 480.01 179.31 476.93 180.17 476.59
C 181.03 476.27 185.07 477.47 189.15 479.28
L 196.56 482.54
L 188.54 497.73
C 184.14 506.08 175.06 520.25 168.37 529.21
C 161.68 538.19 153.36 550.39 149.89 556.31
C 140.60 572.13 141.68 571.30 127.55 573.51
C 112.97 575.79 111.10 575.87 108.53 574.25"/>
<path fill="#56667d" stroke="none" d="
M 105.33 591.07
C 104.06 589.02 118.31 581.81 124.14 581.54
C 132.40 581.16 131.43 583.69 122.07 586.99
C 117.43 588.63 113.31 590.49 112.92 591.11
C 111.99 592.62 106.27 592.59 105.33 591.07"/>
<path fill="#56667d" stroke="none" d="
M 42.08 589.85
C 41.38 588.72 56.44 583.23 60.24 583.23
C 61.97 583.23 62.03 583.56 60.64 585.25
C 56.74 589.94 44.08 593.07 42.08 589.85"/>
<path fill="#56667d" stroke="none" d="
M 67.16 588.97
C 67.16 587.63 80.75 581.96 84.02 581.95
C 85.82 581.94 87.86 581.41 88.54 580.76
C 89.80 579.55 93.87 578.95 99.28 579.21
C 101.83 579.33 102.08 579.68 100.78 581.25
C 99.92 582.30 96.57 584.62 93.35 586.41
C 88.47 589.14 85.81 589.68 77.33 589.68
C 71.73 589.68 67.16 589.35 67.16 588.97"/>
</g>
</svg>
