<?xml version="1.0" encoding="UTF-8" standalone="no"?>
<!DOCTYPE svg PUBLIC "-//W3C//DTD SVG 1.1//EN"
"http://www.w3.org/Graphics/SVG/1.1/DTD/svg11.dtd">
<svg width="638px" height="500px"
xmlns="http://www.w3.org/2000/svg" version="1.1">
<g transform="translate(0000, 0000) scale(1.0000, 1.0000)">
<path fill="#000000" stroke="none" d="
M 164.06 498.42
C 161.68 496.04 162.10 494.04 165.95 489.49
C 171.80 482.55 177.21 480.78 200.54 478.18
L 222.10 475.79
L 227.87 468.44
C 234.20 460.37 252.31 424.91 255.40 414.53
L 257.34 407.98
L 244.59 388.85
C 233.39 372.02 230.91 369.10 223.92 364.62
C 210.00 355.69 180.77 333.14 166.43 320.28
C 129.17 286.85 109.07 252.19 106.23 216.49
C 105.49 207.23 105.83 205.18 110.84 189.58
C 113.81 180.29 116.24 171.09 116.24 169.13
C 116.23 164.13 111.85 157.55 106.72 154.79
C 99.94 151.16 75.82 150.95 45.12 154.25
C 9.15 158.11 0.00 157.76 0.00 152.48
C 0.00 149.26 10.21 141.41 21.50 135.95
C 36.83 128.54 51.58 125.62 82.05 123.97
C 96.06 123.21 108.21 122.01 109.05 121.31
C 109.90 120.61 110.98 116.32 111.45 111.79
C 111.91 107.27 112.44 102.11 112.61 100.34
C 112.87 97.76 111.09 95.71 103.39 89.76
C 92.81 81.58 87.18 74.88 87.18 70.42
C 87.18 68.81 88.66 65.73 90.48 63.56
C 92.29 61.41 93.78 58.44 93.78 56.97
C 93.78 55.50 95.18 52.61 96.90 50.57
C 98.62 48.51 100.44 45.51 100.94 43.91
C 101.46 42.28 103.16 39.91 104.76 38.63
C 106.35 37.34 108.26 34.51 109.00 32.35
C 109.74 30.18 111.66 27.76 113.28 26.95
C 114.89 26.15 117.57 23.47 119.24 20.99
C 120.92 18.52 124.06 15.90 126.24 15.17
C 128.42 14.45 131.85 12.55 133.87 10.96
C 138.51 7.30 145.97 4.80 149.51 5.73
C 151.02 6.12 153.65 5.51 155.37 4.39
C 157.35 3.10 160.31 2.56 163.45 2.94
C 166.18 3.26 170.44 2.69 172.89 1.66
C 178.28 -0.57 182.09 0.21 187.33 4.62
C 189.80 6.70 192.89 7.92 195.68 7.92
C 201.04 7.93 208.15 11.99 209.34 15.74
C 209.81 17.24 211.27 18.47 212.57 18.47
C 216.01 18.47 221.48 23.18 222.43 26.94
C 222.88 28.71 224.45 30.55 225.92 31.02
C 229.88 32.27 232.93 37.68 232.07 41.93
C 231.48 44.95 232.00 45.95 235.16 47.77
C 237.43 49.06 239.31 51.48 239.77 53.67
C 240.21 55.71 241.13 58.27 241.82 59.37
C 245.91 65.84 246.20 67.37 244.04 71.04
C 242.61 73.44 242.31 75.30 243.11 76.58
C 246.61 82.11 241.65 88.67 228.82 95.40
C 213.53 103.43 199.47 120.75 197.42 134.13
C 196.49 140.29 200.24 151.83 205.82 159.93
C 214.17 172.07 225.43 181.56 254.28 200.84
C 262.99 206.66 284.70 222.56 302.49 236.15
C 344.90 268.54 366.08 283.92 386.66 297.28
C 420.02 318.97 438.08 328.07 462.98 335.78
C 480.48 341.20 484.56 343.01 491.38 348.38
C 501.54 356.37 548.10 367.10 605.39 374.64
C 635.93 378.65 640.58 381.99 636.48 396.98
C 632.28 412.35 620.81 448.35 618.15 454.58
C 614.82 462.35 609.46 469.66 607.10 469.66
C 606.18 469.66 599.22 465.73 591.65 460.91
C 533.69 424.04 480.48 400.34 431.94 389.76
C 416.63 386.42 412.30 386.09 372.50 385.20
C 338.93 384.45 328.14 383.79 323.03 382.14
C 319.42 380.99 316.34 380.18 316.17 380.36
C 316.00 380.53 317.31 385.08 319.08 390.49
C 323.60 404.26 323.33 414.93 317.82 440.40
C 309.67 478.10 309.04 475.46 327.78 481.45
C 345.39 487.07 347.99 488.47 350.04 493.42
C 352.35 498.98 350.31 501.17 344.76 499.09
C 342.57 498.26 337.45 497.92 333.15 498.30
C 328.59 498.72 319.83 498.06 311.71 496.70
C 300.11 494.75 294.58 494.58 276.12 495.54
C 264.10 496.17 250.74 496.56 246.40 496.41
C 240.55 496.20 237.90 496.72 236.05 498.39
C 233.68 500.51 233.43 500.49 231.19 497.72
C 228.91 494.92 228.36 494.85 217.49 496.09
C 211.25 496.79 198.10 497.59 188.24 497.85
C 178.39 498.10 169.95 498.69 169.49 499.16
C 168.17 500.47 165.79 500.15 164.06 498.42
M 199.80 490.70
C 223.60 489.12 230.06 487.55 237.58 481.52
C 242.00 477.97 243.55 475.40 246.36 466.97
C 248.25 461.33 254.25 448.92 259.72 439.38
C 265.19 429.84 270.51 420.00 271.55 417.49
L 273.47 412.93
L 268.41 412.93
C 263.42 412.93 263.34 413.01 261.61 419.85
C 259.12 429.68 241.52 464.27 234.25 473.61
C 227.43 482.37 229.09 481.77 204.08 484.80
C 195.36 485.86 185.26 487.90 181.63 489.34
C 173.75 492.47 173.54 492.45 199.80 490.70
M 332.31 490.94
C 331.92 490.30 329.94 489.46 327.90 489.05
C 325.88 488.64 320.88 487.06 316.78 485.53
C 310.76 483.28 308.92 481.86 307.10 478.01
C 304.39 472.32 304.87 467.24 310.35 443.27
C 312.42 434.20 314.51 423.07 314.97 418.54
L 315.83 410.29
L 311.95 410.29
C 307.73 410.29 307.59 410.71 303.84 434.70
C 299.49 462.39 296.76 471.69 291.37 477.07
C 285.98 482.45 279.60 484.16 264.67 484.16
C 256.43 484.17 251.00 484.85 247.50 486.35
C 242.55 488.46 242.49 488.55 245.69 489.43
C 247.51 489.93 255.53 489.88 263.52 489.31
C 285.03 487.80 303.29 488.06 313.72 490.04
C 324.71 492.12 333.31 492.53 332.31 490.94
M 279.23 475.74
C 289.05 471.64 293.02 462.26 297.31 432.88
C 298.72 423.17 300.19 413.97 300.56 412.43
C 301.72 407.59 296.52 401.19 288.55 397.66
C 284.55 395.91 281.14 394.46 280.97 394.46
C 280.80 394.46 280.67 399.41 280.68 405.45
C 280.69 417.63 279.45 420.74 262.58 450.53
C 258.48 457.78 254.21 466.83 253.11 470.65
L 251.12 477.57
L 262.98 477.57
C 270.11 477.57 276.59 476.85 279.23 475.74
M 608.78 456.13
C 610.29 453.77 614.26 443.25 617.62 432.72
C 620.96 422.19 625.41 408.36 627.49 401.98
C 631.18 390.58 631.21 390.32 628.75 387.86
C 625.58 384.70 619.41 383.06 603.66 381.23
C 569.37 377.24 522.39 368.13 500.89 361.27
C 488.99 357.48 488.41 357.41 482.40 359.37
C 467.15 364.33 445.54 365.25 402.03 362.78
C 328.15 358.59 276.72 347.44 231.81 325.87
C 195.35 308.36 169.20 285.26 155.83 258.76
C 143.79 234.93 145.43 220.73 161.51 209.26
C 177.85 197.63 194.03 192.64 215.73 192.57
L 227.86 192.53
L 223.89 189.63
C 209.02 178.72 196.76 163.38 192.87 150.79
C 187.74 134.23 190.34 122.28 202.54 106.46
C 206.14 101.78 206.33 100.94 205.48 93.48
C 203.25 73.71 195.28 59.55 182.29 52.24
C 176.01 48.71 173.77 48.17 165.77 48.25
C 158.55 48.31 155.07 49.08 149.90 51.74
C 136.60 58.58 123.89 76.94 122.01 92.06
C 121.58 95.49 120.40 100.83 119.40 103.93
C 118.39 107.04 117.56 112.57 117.56 116.20
C 117.56 119.84 116.61 124.67 115.43 126.93
C 112.13 133.31 113.48 144.47 118.79 154.56
C 122.77 162.16 123.10 163.65 122.49 171.49
C 122.12 176.29 119.66 186.48 116.93 194.59
C 112.67 207.14 112.12 210.11 112.86 216.57
C 116.24 246.49 134.14 278.05 163.99 306.75
C 200.32 341.69 243.29 370.41 286.56 388.68
C 301.71 395.08 304.11 396.74 306.49 402.47
C 307.73 405.47 308.93 406.33 311.89 406.33
C 316.33 406.33 316.48 405.46 313.57 395.69
C 310.56 385.55 306.91 378.73 301.42 373.02
C 297.80 369.26 297.05 367.70 298.21 366.54
C 299.38 365.37 301.89 365.99 308.71 369.13
C 327.65 377.82 325.90 377.57 374.48 378.68
C 423.55 379.80 431.28 380.82 463.38 390.45
C 502.79 402.26 564.99 432.52 598.37 456.11
C 601.65 458.42 604.70 460.33 605.18 460.37
C 605.65 460.40 607.28 458.50 608.78 456.13
M 274.13 401.39
C 273.40 395.44 272.44 393.17 269.68 390.88
C 266.18 387.97 249.41 378.63 247.71 378.63
C 247.21 378.63 250.72 384.26 255.49 391.16
C 260.27 398.05 264.18 404.88 264.18 406.33
C 264.18 408.55 265.07 408.97 269.62 408.97
L 275.05 408.97
L 274.13 401.39
M 463.80 356.29
C 467.88 355.62 473.81 354.38 476.97 353.52
C 482.42 352.06 482.58 351.87 480.11 350.08
C 478.68 349.02 469.16 345.53 458.95 342.31
C 417.49 329.20 383.54 308.22 297.87 242.72
C 249.43 205.69 247.74 204.62 234.12 202.24
C 211.89 198.36 184.66 202.30 173.44 211.00
C 171.40 212.57 167.72 215.17 165.23 216.77
C 153.67 224.20 152.33 233.27 160.29 250.03
C 166.98 264.09 174.69 274.50 187.44 286.66
C 223.59 321.13 284.79 344.29 362.59 352.89
C 399.69 356.99 449.29 358.67 463.80 356.29
M 68.69 146.27
C 85.57 145.08 94.11 145.01 100.39 146.04
C 105.12 146.82 109.20 147.26 109.46 147.01
C 109.74 146.75 109.58 145.55 109.11 144.33
C 108.33 142.28 105.82 142.16 80.87 142.92
C 51.87 143.79 33.22 145.67 31.04 147.98
C 30.12 148.96 32.10 149.16 37.65 148.64
C 42.00 148.23 55.98 147.18 68.69 146.27
M 46.89 139.18
C 54.16 138.03 70.95 136.74 84.21 136.31
L 108.31 135.49
L 108.31 132.37
L 108.31 129.25
L 91.47 129.99
C 82.21 130.40 68.75 131.33 61.57 132.08
C 48.29 133.46 26.84 138.85 24.44 141.41
C 23.02 142.92 23.10 142.90 46.89 139.18
M 235.31 83.60
C 239.15 80.13 236.68 78.88 231.40 81.60
C 228.72 82.97 223.12 85.78 218.94 87.84
C 213.14 90.70 211.35 92.27 211.35 94.49
C 211.35 97.23 211.91 97.07 222.14 91.57
C 228.07 88.38 234.00 84.79 235.31 83.60
M 117.56 86.64
C 117.56 85.67 114.73 82.86 111.29 80.38
C 107.84 77.92 102.83 73.93 100.16 71.53
C 95.57 67.39 92.29 67.53 94.71 71.77
C 95.85 73.79 114.93 88.25 116.57 88.34
C 117.11 88.36 117.56 87.60 117.56 86.64
M 232.73 73.92
C 233.96 73.89 235.90 72.56 237.02 70.95
C 238.73 68.54 238.78 67.73 237.33 66.29
C 235.54 64.50 231.16 65.32 231.16 67.43
C 231.16 68.07 230.50 68.60 229.69 68.60
C 227.73 68.60 208.70 80.49 208.70 81.72
C 208.70 84.21 210.84 83.71 220.30 79.01
C 225.92 76.23 231.50 73.93 232.73 73.92
M 121.79 75.07
C 122.05 74.27 118.09 69.55 112.98 64.58
C 105.17 56.97 103.40 55.80 101.90 57.31
C 99.29 59.88 101.26 62.59 111.09 69.97
C 120.27 76.86 121.06 77.24 121.79 75.07
M 232.27 56.29
C 233.72 55.15 233.62 54.58 231.69 53.17
C 230.39 52.23 228.89 51.45 228.36 51.45
C 226.79 51.45 204.86 70.92 205.60 71.66
C 206.21 72.27 227.90 59.76 232.27 56.29
M 124.27 59.60
C 114.54 47.57 110.05 43.13 108.55 44.05
C 105.83 45.73 106.77 47.19 116.54 56.57
C 126.54 66.17 130.99 67.92 124.27 59.60
M 225.88 40.87
C 225.88 40.33 224.98 39.16 223.88 38.25
C 222.20 36.86 220.87 37.63 215.63 43.03
C 204.21 54.76 199.91 60.05 200.45 61.68
C 200.96 63.22 225.88 42.84 225.88 40.87
M 135.23 55.67
C 135.59 55.09 133.04 51.31 129.58 47.26
C 126.12 43.19 122.04 38.18 120.51 36.09
C 118.39 33.21 117.38 32.68 116.17 33.87
C 114.97 35.04 116.73 37.88 123.68 46.02
C 132.73 56.61 133.99 57.66 135.23 55.67
M 215.12 27.37
C 214.45 26.11 213.45 25.07 212.89 25.07
C 211.76 25.07 192.84 52.15 192.89 53.72
C 192.91 54.29 198.19 49.12 204.64 42.22
C 214.08 32.10 216.10 29.23 215.12 27.37
M 137.40 34.35
C 130.86 21.33 130.53 20.94 127.80 22.76
C 126.24 23.79 124.76 25.26 124.51 26.03
C 124.24 26.79 127.93 32.08 132.69 37.77
C 137.44 43.47 141.34 48.69 141.34 49.39
C 141.34 50.11 141.95 50.05 142.75 49.25
C 143.77 48.23 142.22 43.94 137.40 34.35
M 195.76 34.01
C 205.02 20.09 205.60 17.12 199.51 15.18
C 194.32 13.54 192.17 16.48 188.27 30.58
C 186.20 38.07 184.24 44.93 183.91 45.84
C 183.59 46.75 184.13 47.45 185.11 47.40
C 186.10 47.36 190.90 41.33 195.76 34.01
M 154.82 44.13
C 156.12 42.84 149.76 15.77 147.66 13.67
C 145.83 11.83 145.22 11.85 141.51 13.76
L 137.39 15.90
L 144.65 30.37
C 151.44 43.88 152.99 45.98 154.82 44.13
M 180.70 28.73
C 184.49 15.24 184.68 13.67 182.88 10.92
C 180.69 7.57 179.35 7.27 175.59 9.29
C 173.28 10.51 173.04 12.19 173.04 27.10
C 173.04 48.64 174.98 49.06 180.70 28.73
M 166.43 27.31
C 166.43 12.53 165.55 9.23 161.60 9.23
C 160.68 9.23 159.32 10.36 158.58 11.74
C 156.73 15.21 162.10 42.22 164.64 42.22
C 166.05 42.22 166.43 38.97 166.43 27.31"/>
<path fill="#000000" stroke="none" d="
M 139.91 101.69
C 137.06 98.83 136.05 96.58 136.05 93.01
C 136.05 86.31 141.89 80.47 148.60 80.47
C 155.31 80.47 161.15 86.31 161.15 93.01
C 161.15 96.58 160.15 98.83 157.29 101.69
C 151.96 107.01 145.25 107.01 139.91 101.69
M 154.55 98.94
C 156.00 97.49 157.19 94.83 157.19 93.01
C 157.19 89.74 153.11 84.43 150.58 84.43
C 148.63 84.43 148.99 86.52 151.24 88.39
C 152.34 89.29 153.23 91.37 153.23 93.01
C 153.23 94.64 152.34 96.73 151.24 97.63
C 150.15 98.52 149.26 99.79 149.26 100.42
C 149.26 102.40 151.79 101.70 154.55 98.94"/>
<path fill="#dc9032" stroke="none" d="
M 211.35 94.49
C 211.35 92.27 213.14 90.70 218.94 87.84
C 223.12 85.78 228.72 82.97 231.40 81.60
C 236.68 78.88 239.15 80.13 235.31 83.60
C 234.00 84.79 228.07 88.38 222.14 91.57
C 211.91 97.07 211.35 97.23 211.35 94.49"/>
<path fill="#dc9032" stroke="none" d="
M 105.67 80.96
C 95.33 73.32 93.07 70.82 94.48 68.54
C 94.99 67.73 97.31 68.97 100.16 71.53
C 102.83 73.93 107.84 77.92 111.29 80.38
C 114.73 82.86 117.56 85.67 117.56 86.64
C 117.56 89.39 116.23 88.76 105.67 80.96"/>
<path fill="#dc9032" stroke="none" d="
M 209.40 83.38
C 209.02 82.99 208.70 82.24 208.70 81.72
C 208.70 80.49 227.73 68.60 229.69 68.60
C 230.50 68.60 231.16 68.07 231.16 67.43
C 231.16 65.32 235.54 64.50 237.33 66.29
C 238.78 67.73 238.73 68.54 237.02 70.95
C 235.90 72.56 233.96 73.89 232.73 73.92
C 231.50 73.93 225.92 76.23 220.30 79.01
C 214.70 81.79 209.80 83.76 209.40 83.38"/>
<path fill="#dc9032" stroke="none" d="
M 111.09 69.97
C 101.26 62.59 99.29 59.88 101.90 57.31
C 103.40 55.80 105.17 56.97 112.98 64.58
C 118.09 69.55 122.05 74.27 121.79 75.07
C 121.06 77.24 120.27 76.86 111.09 69.97"/>
<path fill="#dc9032" stroke="none" d="
M 205.60 71.66
C 204.86 70.92 226.79 51.45 228.36 51.45
C 228.89 51.45 230.39 52.23 231.69 53.17
C 233.62 54.58 233.72 55.15 232.27 56.29
C 227.90 59.76 206.21 72.27 205.60 71.66"/>
<path fill="#dc9032" stroke="none" d="
M 116.54 56.57
C 106.77 47.19 105.83 45.73 108.55 44.05
C 110.05 43.13 114.54 47.57 124.27 59.60
C 130.99 67.92 126.54 66.17 116.54 56.57"/>
<path fill="#dc9032" stroke="none" d="
M 200.45 61.68
C 199.91 60.05 204.21 54.76 215.63 43.03
C 220.87 37.63 222.20 36.86 223.88 38.25
C 224.98 39.16 225.88 40.33 225.88 40.87
C 225.88 42.84 200.96 63.22 200.45 61.68"/>
<path fill="#dc9032" stroke="none" d="
M 123.68 46.02
C 116.73 37.88 114.97 35.04 116.17 33.87
C 117.38 32.68 118.39 33.21 120.51 36.09
C 122.04 38.18 126.12 43.19 129.58 47.26
C 135.18 53.80 136.49 56.83 133.66 56.68
C 133.16 56.65 128.67 51.86 123.68 46.02"/>
<path fill="#dc9032" stroke="none" d="
M 192.89 53.72
C 192.84 52.15 211.76 25.07 212.89 25.07
C 213.45 25.07 214.45 26.11 215.12 27.37
C 216.10 29.23 214.08 32.10 204.64 42.22
C 198.19 49.12 192.91 54.29 192.89 53.72"/>
<path fill="#dc9032" stroke="none" d="
M 141.34 49.39
C 141.34 48.69 137.44 43.47 132.69 37.77
C 127.93 32.08 124.24 26.79 124.51 26.03
C 124.76 25.26 126.24 23.79 127.80 22.76
C 130.53 20.94 130.86 21.33 137.40 34.35
C 142.22 43.94 143.77 48.23 142.75 49.25
C 141.95 50.05 141.34 50.11 141.34 49.39"/>
<path fill="#dc9032" stroke="none" d="
M 183.91 45.84
C 184.24 44.93 186.20 38.07 188.27 30.58
C 192.17 16.48 194.32 13.54 199.51 15.18
C 205.60 17.12 205.02 20.09 195.76 34.01
C 190.90 41.33 186.10 47.36 185.11 47.40
C 184.13 47.45 183.59 46.75 183.91 45.84"/>
<path fill="#dc9032" stroke="none" d="
M 144.65 30.37
L 137.39 15.90
L 141.51 13.76
C 145.22 11.85 145.83 11.83 147.66 13.67
C 149.76 15.77 156.12 42.84 154.82 44.13
C 152.99 45.98 151.44 43.88 144.65 30.37"/>
<path fill="#dc9032" stroke="none" d="
M 173.04 27.02
L 173.04 10.49
L 176.66 9.12
C 179.75 7.94 180.62 8.17 182.66 10.69
C 183.96 12.31 184.82 14.27 184.53 15.05
C 184.25 15.84 182.35 22.57 180.29 30.01
C 175.01 49.10 173.04 48.30 173.04 27.02"/>
<path fill="#dc9032" stroke="none" d="
M 160.04 28.23
C 157.21 14.09 157.61 9.23 161.60 9.23
C 165.55 9.23 166.43 12.53 166.43 27.31
C 166.43 38.97 166.05 42.22 164.64 42.22
C 163.42 42.22 161.96 37.74 160.04 28.23"/>
<path fill="#dea477" stroke="none" d="
M 598.37 456.11
C 564.99 432.52 502.79 402.26 463.38 390.45
C 431.28 380.82 423.55 379.80 374.48 378.68
C 325.90 377.57 327.65 377.82 308.71 369.13
C 301.89 365.99 299.38 365.37 298.21 366.54
C 297.05 367.70 297.80 369.26 301.42 373.02
C 306.91 378.73 310.56 385.55 313.57 395.69
C 316.48 405.46 316.33 406.33 311.89 406.33
C 308.93 406.33 307.73 405.47 306.49 402.47
C 304.11 396.74 301.71 395.08 286.56 388.68
C 243.29 370.41 200.32 341.69 163.99 306.75
C 134.14 278.05 116.24 246.49 112.86 216.57
C 112.12 210.11 112.67 207.14 116.93 194.59
C 119.66 186.48 122.12 176.29 122.49 171.49
C 123.10 163.65 122.77 162.16 118.79 154.56
C 113.48 144.47 112.13 133.31 115.43 126.93
C 116.61 124.67 117.56 119.84 117.56 116.20
C 117.56 112.57 118.39 107.04 119.40 103.93
C 120.40 100.83 121.58 95.49 122.01 92.06
C 123.90 76.91 136.64 58.51 149.90 51.78
C 155.00 49.20 158.67 48.39 165.77 48.28
C 173.81 48.17 175.97 48.69 182.29 52.24
C 195.28 59.55 203.25 73.71 205.48 93.48
C 206.33 100.94 206.14 101.78 202.54 106.46
C 194.29 117.16 190.21 127.15 190.21 136.64
C 190.21 153.79 203.49 174.66 223.89 189.63
L 227.86 192.53
L 215.73 192.57
C 194.03 192.64 177.85 197.63 161.51 209.26
C 145.43 220.73 143.79 234.93 155.83 258.76
C 169.20 285.26 195.35 308.36 231.81 325.87
C 276.72 347.44 328.15 358.59 402.03 362.78
C 445.54 365.25 467.15 364.33 482.40 359.37
C 488.41 357.41 488.99 357.48 500.89 361.27
C 522.39 368.13 569.37 377.24 603.66 381.23
C 619.41 383.06 625.58 384.70 628.75 387.86
C 631.21 390.32 631.18 390.58 627.49 401.98
C 625.41 408.36 620.96 422.19 617.62 432.72
C 612.06 450.17 607.41 460.51 605.18 460.37
C 604.70 460.33 601.65 458.42 598.37 456.11
M 157.29 101.69
C 160.15 98.83 161.15 96.58 161.15 93.01
C 161.15 86.31 155.31 80.47 148.60 80.47
C 141.89 80.47 136.05 86.31 136.05 93.01
C 136.05 96.58 137.06 98.83 139.91 101.69
C 145.25 107.01 151.96 107.01 157.29 101.69"/>
<path fill="#dea477" stroke="none" d="
M 264.18 406.33
C 264.18 404.88 260.27 398.05 255.49 391.16
C 250.72 384.26 247.21 378.63 247.71 378.63
C 249.41 378.63 266.18 387.97 269.68 390.88
C 272.44 393.17 273.40 395.44 274.13 401.39
L 275.05 408.97
L 269.62 408.97
C 265.07 408.97 264.18 408.55 264.18 406.33"/>
<path fill="#eb2e00" stroke="none" d="
M 149.26 100.42
C 149.26 99.79 150.15 98.52 151.24 97.63
C 153.82 95.50 153.77 91.19 151.15 88.30
C 148.11 84.93 151.23 83.76 154.49 87.02
C 157.91 90.44 157.94 95.55 154.55 98.94
C 151.79 101.70 149.26 102.40 149.26 100.42"/>
<path fill="#586059" stroke="none" d="
M 181.63 489.34
C 185.26 487.90 195.36 485.86 204.08 484.80
C 229.09 481.77 227.43 482.37 234.25 473.61
C 241.52 464.27 259.12 429.68 261.61 419.85
C 263.34 413.01 263.42 412.93 268.41 412.93
L 273.47 412.93
L 271.55 417.49
C 270.51 420.00 265.19 429.84 259.72 439.38
C 254.25 448.92 248.25 461.33 246.36 466.97
C 243.55 475.40 242.00 477.97 237.58 481.52
C 230.06 487.55 223.60 489.12 199.80 490.70
C 173.54 492.45 173.75 492.47 181.63 489.34"/>
<path fill="#586059" stroke="none" d="
M 313.72 490.04
C 303.29 488.06 285.03 487.80 263.52 489.31
C 255.53 489.88 247.51 489.93 245.69 489.43
C 242.49 488.55 242.55 488.46 247.50 486.35
C 251.00 484.85 256.43 484.17 264.67 484.16
C 292.98 484.14 296.85 479.26 303.84 434.70
C 307.59 410.71 307.73 410.29 311.95 410.29
L 315.83 410.29
L 314.97 418.54
C 314.51 423.07 312.42 434.20 310.35 443.27
C 304.87 467.24 304.39 472.32 307.10 478.01
C 308.92 481.86 310.76 483.28 316.78 485.53
C 320.88 487.06 325.88 488.64 327.90 489.05
C 329.94 489.46 331.92 490.30 332.31 490.94
C 333.31 492.53 324.71 492.12 313.72 490.04"/>
<path fill="#586059" stroke="none" d="
M 31.04 147.98
C 33.22 145.67 51.87 143.79 80.87 142.92
C 105.82 142.16 108.33 142.28 109.11 144.33
C 109.58 145.55 109.74 146.75 109.46 147.01
C 109.20 147.26 105.12 146.82 100.39 146.04
C 92.41 144.74 69.56 145.69 37.65 148.64
C 32.10 149.16 30.12 148.96 31.04 147.98"/>
<path fill="#586059" stroke="none" d="
M 24.44 141.41
C 26.84 138.85 48.29 133.46 61.57 132.08
C 68.75 131.33 82.21 130.42 91.47 130.04
L 108.31 129.34
L 108.31 132.41
L 108.31 135.49
L 84.21 136.31
C 70.95 136.74 54.16 138.03 46.89 139.18
C 23.10 142.90 23.02 142.92 24.44 141.41"/>
<path fill="#6c4f3a" stroke="none" d="
M 398.92 356.04
C 300.98 349.99 229.13 326.41 187.44 286.66
C 174.69 274.50 166.98 264.09 160.29 250.03
C 152.33 233.27 153.67 224.20 165.23 216.77
C 167.72 215.17 171.40 212.57 173.44 211.00
C 184.56 202.37 212.11 198.39 234.12 202.24
C 247.74 204.62 249.43 205.69 297.87 242.72
C 383.54 308.22 417.49 329.20 458.95 342.31
C 469.16 345.53 478.68 349.02 480.11 350.08
C 482.58 351.87 482.42 352.06 476.97 353.52
C 461.46 357.70 438.05 358.46 398.92 356.04"/>
</g>
</svg>
