<?xml version="1.0" encoding="UTF-8" standalone="no"?>
<!DOCTYPE svg PUBLIC "-//W3C//DTD SVG 1.1//EN"
"http://www.w3.org/Graphics/SVG/1.1/DTD/svg11.dtd">
<svg width="597px" height="600px"
xmlns="http://www.w3.org/2000/svg" version="1.1">
<g transform="translate(0000, 0000) scale(1.0000, 1.0000)">
<path fill="#000000" stroke="none" d="
M 152.97 598.50
C 149.89 597.96 144.83 596.04 141.71 594.22
C 136.24 591.00 135.94 590.97 132.37 593.08
C 128.27 595.50 124.54 594.78 124.54 591.59
C 124.54 587.83 129.35 582.64 136.31 578.86
C 142.56 575.45 144.60 575.08 161.11 574.24
C 181.65 573.21 206.77 570.85 216.64 569.01
C 224.47 567.56 229.33 563.42 233.45 554.65
C 237.41 546.24 265.76 462.73 265.76 459.47
C 265.76 453.60 255.16 436.01 240.73 417.95
C 232.56 407.72 224.88 397.23 223.68 394.63
C 221.85 390.73 220.21 389.45 214.18 387.23
C 210.16 385.74 199.41 380.87 190.30 376.37
C 123.96 343.69 81.10 296.33 73.10 246.83
C 70.83 232.76 72.19 217.27 78.34 187.18
C 91.84 121.18 83.30 109.64 22.80 112.18
C -1.91 113.21 -1.66 113.33 1.93 102.58
C 7.06 87.10 17.77 81.85 53.70 77.09
C 63.46 75.81 65.49 74.76 78.92 64.13
C 82.96 60.92 87.62 58.56 91.64 57.71
C 100.27 55.86 125.07 53.90 140.03 53.87
C 171.00 53.82 177.17 50.03 198.26 18.26
C 212.13 -2.68 213.78 -3.62 217.50 7.28
C 219.90 14.33 220.25 34.12 218.16 45.60
C 215.07 62.62 202.90 80.54 187.24 91.17
C 177.16 98.00 175.29 101.81 176.99 112.00
C 177.73 116.33 178.96 125.64 179.75 132.69
C 184.54 175.40 193.09 193.33 215.84 208.44
C 229.04 217.21 256.02 229.59 282.45 239.04
C 323.39 253.67 327.70 255.28 341.24 261.10
C 358.30 268.42 377.88 279.12 405.06 295.94
C 482.72 343.99 496.76 350.77 551.13 366.59
C 565.42 370.74 580.45 375.09 584.53 376.23
C 588.62 377.37 593.10 379.44 594.48 380.82
C 597.83 384.17 597.81 391.50 594.43 394.87
C 592.03 397.27 590.16 397.44 564.83 397.44
C 545.02 397.44 538.03 397.82 538.69 398.88
C 539.19 399.69 547.88 404.28 558.01 409.10
C 568.15 413.92 578.23 419.18 580.43 420.78
C 584.62 423.87 588.01 429.22 588.01 432.73
C 588.01 435.95 559.75 485.76 556.72 487.87
C 550.37 492.33 541.04 489.41 521.89 476.99
C 468.88 442.60 440.12 427.27 421.53 423.46
C 412.97 421.71 409.36 421.63 397.22 422.88
C 389.37 423.69 380.31 424.36 377.07 424.36
C 373.84 424.36 370.86 424.90 370.44 425.56
C 370.02 426.23 371.96 431.86 374.75 438.06
C 387.05 465.51 388.55 481.59 382.07 516.67
C 380.18 526.90 377.97 540.82 377.16 547.63
L 375.69 560.01
L 381.07 571.58
C 384.02 577.94 386.45 584.87 386.45 586.99
C 386.45 595.50 377.51 597.60 369.46 590.97
L 364.73 587.09
L 359.86 591.49
C 357.17 593.91 352.67 596.46 349.84 597.18
C 342.59 599.00 265.83 598.24 262.20 596.31
C 259.87 595.06 259.23 595.24 258.02 597.50
C 257.11 599.21 255.59 600.01 253.80 599.76
C 251.55 599.44 251.04 598.56 251.18 595.33
L 251.34 591.32
L 240.37 595.14
L 229.39 598.96
L 193.97 599.23
C 174.49 599.37 156.04 599.05 152.97 598.50
M 236.23 588.81
C 241.52 586.76 247.59 584.51 249.71 583.82
C 253.49 582.60 253.55 582.44 253.17 574.90
C 252.55 562.85 255.64 551.55 268.10 520.37
C 280.22 490.01 285.39 478.79 293.17 466.03
C 295.74 461.79 297.85 458.04 297.85 457.69
C 297.85 457.35 292.07 457.05 285.02 457.05
L 272.18 457.05
L 272.18 461.31
C 272.18 465.04 254.22 519.97 242.72 551.45
C 238.17 563.88 231.93 572.19 225.61 574.23
C 223.34 574.97 215.11 576.17 207.35 576.88
C 199.58 577.60 188.88 578.76 183.59 579.44
C 178.30 580.13 169.63 580.73 164.34 580.78
C 155.66 580.86 154.28 581.23 150.41 584.55
L 146.09 588.23
L 149.12 589.86
C 154.27 592.65 160.07 593.03 193.86 592.79
L 226.60 592.56
L 236.23 588.81
M 345.00 591.18
C 347.94 591.06 351.00 589.37 355.63 585.26
C 359.21 582.08 363.03 579.49 364.11 579.49
C 366.85 579.49 371.09 581.81 375.07 585.51
C 376.93 587.26 378.77 588.18 379.14 587.56
C 379.53 586.96 377.51 581.58 374.66 575.60
L 369.50 564.74
L 370.24 551.92
C 370.64 544.87 372.76 529.29 374.94 517.31
C 380.35 487.54 380.26 462.54 374.75 463.91
C 373.76 464.15 369.63 464.97 365.53 465.74
C 359.59 466.86 358.26 467.54 358.93 469.14
C 363.10 479.35 362.24 515.01 357.07 545.63
C 351.83 576.59 349.84 577.62 288.09 581.10
C 281.80 581.46 278.90 582.42 273.35 585.96
L 266.44 590.38
L 270.91 591.03
C 274.66 591.56 331.48 591.68 345.00 591.18
M 268.05 577.49
C 271.28 576.13 280.28 575.10 295.93 574.28
C 332.96 572.36 342.51 569.24 347.18 557.58
C 350.89 548.31 354.70 518.83 354.85 498.08
C 354.99 479.49 354.87 478.60 351.41 471.56
C 349.24 467.15 344.91 461.60 340.42 457.46
C 332.59 450.26 302.99 426.55 302.99 427.49
C 302.99 427.79 303.89 432.26 305.00 437.41
C 307.65 449.82 306.61 457.68 301.03 467.35
C 288.73 488.67 266.24 540.97 261.18 560.05
C 259.19 567.53 259.75 579.49 262.08 579.49
C 262.73 579.49 265.43 578.59 268.05 577.49
M 552.91 480.45
C 555.17 477.92 572.08 448.41 578.41 435.95
L 580.66 431.50
L 575.98 427.46
C 573.40 425.24 565.10 420.64 557.51 417.26
C 549.92 413.86 539.66 408.40 534.72 405.13
C 522.51 397.06 519.27 396.15 502.76 396.13
C 478.96 396.09 423.04 392.63 408.27 390.27
L 403.78 389.56
L 411.48 397.42
C 423.46 409.65 435.76 418.37 453.10 426.94
C 467.74 434.17 501.69 454.50 527.09 471.28
C 536.09 477.22 547.31 483.22 549.60 483.31
C 550.00 483.32 551.50 482.04 552.91 480.45
M 368.46 460.14
C 376.10 458.50 376.11 459.24 368.28 442.03
C 361.65 427.49 360.90 422.95 364.50 419.35
C 366.89 416.96 368.52 416.65 377.16 416.91
C 382.62 417.06 394.16 416.71 402.80 416.09
L 418.50 414.99
L 404.92 402.05
C 397.44 394.92 390.08 388.69 388.56 388.19
C 387.05 387.68 378.01 386.06 368.47 384.58
C 290.24 372.42 217.78 346.51 167.13 312.58
C 152.11 302.51 128.49 284.28 121.48 277.35
C 114.57 270.51 109.14 260.42 109.17 254.49
C 109.19 248.12 113.62 240.22 119.62 235.86
C 137.67 222.74 164.23 214.29 190.92 213.17
L 207.88 212.46
L 202.48 208.32
C 186.35 195.96 178.11 176.23 173.98 140.06
C 172.87 130.37 171.42 119.27 170.75 115.38
C 170.10 111.50 169.65 104.00 169.78 98.71
C 169.97 90.35 169.47 87.96 166.06 80.76
C 163.90 76.18 159.61 69.62 156.54 66.17
L 150.97 59.90
L 130.36 60.78
C 95.92 62.24 91.33 63.44 78.16 74.38
C 74.13 77.74 70.18 80.71 69.38 80.96
C 67.29 81.67 64.31 90.87 64.27 96.79
C 64.22 103.97 66.62 108.01 71.86 109.51
C 78.42 111.40 85.52 119.17 87.95 127.17
C 89.09 130.91 90.33 139.17 90.71 145.51
C 91.32 155.83 90.74 160.17 85.30 186.54
C 76.03 231.40 76.61 247.10 88.48 272.47
C 111.62 321.96 163.00 361.24 241.83 389.72
C 270.09 399.94 287.20 407.47 298.62 414.76
C 310.09 422.08 339.33 445.42 347.63 453.90
C 355.67 462.10 357.19 462.55 368.46 460.14
M 297.18 451.06
C 299.19 450.15 300.26 448.79 299.93 447.54
C 299.63 446.42 298.37 440.32 297.14 433.97
C 295.89 427.63 294.38 421.78 293.78 420.99
C 289.96 416.00 231.23 391.62 233.57 395.99
C 234.20 397.17 240.56 405.33 247.68 414.13
C 255.09 423.26 262.89 434.53 265.85 440.38
C 269.32 447.22 271.99 450.92 273.86 451.47
C 278.68 452.90 293.72 452.64 297.18 451.06
M 588.63 389.28
C 590.93 387.60 590.90 387.45 587.91 385.50
C 586.20 384.40 578.15 381.69 570.04 379.49
C 497.62 359.94 482.81 353.15 398.00 300.60
C 373.52 285.44 345.82 270.69 328.67 263.69
C 322.66 261.24 305.98 255.12 291.61 250.06
C 258.67 238.50 249.74 234.95 234.77 227.47
L 222.75 221.47
L 203.49 220.87
C 181.55 220.18 165.47 222.68 147.75 229.55
C 135.83 234.17 120.67 244.28 118.32 249.17
C 114.14 257.90 119.72 266.74 139.51 282.65
C 224.60 351.10 337.53 384.92 496.86 389.68
C 553.86 391.37 585.96 391.23 588.63 389.28
M 60.05 103.90
C 59.19 99.45 35.51 98.64 22.61 102.62
C 17.94 104.05 14.12 105.35 14.12 105.50
C 14.12 105.65 24.55 105.78 37.27 105.81
C 57.34 105.85 60.37 105.59 60.05 103.90
M 17.97 97.15
C 24.01 94.72 27.51 94.31 41.98 94.27
L 58.94 94.23
L 59.70 91.03
C 60.12 89.26 60.78 86.74 61.18 85.44
C 61.83 83.23 61.29 83.12 53.73 83.94
C 43.04 85.08 25.24 89.22 20.84 91.58
C 17.15 93.55 9.17 99.87 10.27 99.95
C 10.63 99.97 14.08 98.72 17.97 97.15
M 184.29 83.79
C 198.05 74.19 207.42 60.53 211.18 44.58
C 213.16 36.24 213.62 20.32 212.02 16.26
C 211.13 14.01 211.03 14.01 209.09 16.26
C 207.97 17.54 203.85 23.49 199.94 29.49
C 196.01 35.49 190.78 42.71 188.33 45.55
C 182.66 52.14 172.64 57.59 164.46 58.55
L 158.08 59.31
L 163.05 65.87
C 167.99 72.41 174.57 85.10 174.59 88.14
C 174.61 90.47 174.94 90.32 184.29 83.79"/>
<path fill="#000000" stroke="none" d="
M 89.16 91.73
C 82.24 84.81 87.14 73.08 96.93 73.08
C 106.73 73.08 111.62 84.81 104.70 91.73
C 102.52 93.90 100.12 94.87 96.93 94.87
C 93.75 94.87 91.35 93.90 89.16 91.73
M 101.99 88.18
C 103.09 86.62 103.99 84.65 103.99 83.83
C 103.99 81.50 99.19 76.17 98.09 77.27
C 97.55 77.81 97.79 78.94 98.63 79.77
C 100.48 81.62 100.63 86.73 98.86 87.82
C 98.15 88.26 97.57 89.15 97.57 89.82
C 97.57 91.97 99.95 91.09 101.99 88.18"/>
<path fill="#343c3e" stroke="none" d="
M 14.12 105.50
C 14.12 105.35 17.94 104.05 22.61 102.62
C 35.51 98.64 59.19 99.45 60.05 103.90
C 60.37 105.59 57.34 105.85 37.27 105.81
C 24.55 105.78 14.12 105.65 14.12 105.50"/>
<path fill="#343c3e" stroke="none" d="
M 13.48 96.68
C 15.60 94.91 18.91 92.62 20.84 91.58
C 25.24 89.22 43.04 85.08 53.73 83.94
C 61.29 83.12 61.83 83.23 61.18 85.44
C 60.78 86.74 60.12 89.26 59.70 91.03
L 58.94 94.23
L 41.98 94.27
C 27.51 94.31 24.01 94.72 17.97 97.15
C 9.14 100.72 8.72 100.67 13.48 96.68"/>
<path fill="#343c3e" stroke="none" d="
M 174.59 88.14
C 174.57 85.10 167.99 72.41 163.05 65.87
L 158.08 59.31
L 164.46 58.55
C 172.64 57.59 182.66 52.14 188.33 45.55
C 190.78 42.71 196.51 34.76 201.05 27.88
C 205.59 21.01 209.81 15.38 210.44 15.38
C 212.34 15.38 213.12 19.06 213.11 27.99
C 213.06 50.91 202.71 70.94 184.29 83.79
C 174.94 90.32 174.61 90.47 174.59 88.14"/>
<path fill="#d8dce5" stroke="none" d="
M 347.63 453.90
C 339.33 445.42 310.09 422.08 298.62 414.76
C 287.20 407.47 270.09 399.94 241.83 389.72
C 163.00 361.24 111.62 321.96 88.48 272.47
C 76.61 247.10 76.03 231.40 85.30 186.54
C 90.74 160.17 91.32 155.83 90.71 145.51
C 90.33 139.17 89.09 130.91 87.95 127.17
C 85.52 119.17 78.42 111.40 71.86 109.51
C 66.62 108.01 64.22 103.97 64.27 96.79
C 64.31 90.87 67.29 81.67 69.38 80.96
C 70.18 80.71 74.13 77.74 78.16 74.38
C 91.33 63.44 95.82 62.27 130.38 60.81
L 150.98 59.92
L 156.56 66.18
C 159.62 69.62 163.90 76.18 166.06 80.76
C 169.47 87.96 169.97 90.35 169.78 98.71
C 169.65 104.00 170.10 111.50 170.75 115.38
C 171.42 119.27 172.87 130.37 173.98 140.06
C 178.11 176.23 186.35 195.96 202.48 208.32
L 207.88 212.46
L 190.92 213.17
C 164.23 214.29 137.67 222.74 119.62 235.86
C 113.62 240.22 109.19 248.12 109.17 254.49
C 109.14 260.42 114.57 270.51 121.48 277.35
C 128.49 284.28 152.11 302.51 167.13 312.58
C 217.78 346.51 290.24 372.42 368.47 384.58
C 378.01 386.06 387.05 387.68 388.56 388.19
C 390.08 388.69 397.44 394.92 404.92 402.05
L 418.50 414.99
L 402.80 416.09
C 394.16 416.71 382.62 417.06 377.16 416.91
C 368.52 416.65 366.89 416.96 364.50 419.35
C 360.90 422.95 361.65 427.49 368.28 442.03
C 376.11 459.24 376.10 458.50 368.46 460.14
C 357.19 462.55 355.67 462.10 347.63 453.90
M 104.70 91.73
C 111.62 84.81 106.73 73.08 96.93 73.08
C 87.14 73.08 82.24 84.81 89.16 91.73
C 91.35 93.90 93.75 94.87 96.93 94.87
C 100.12 94.87 102.52 93.90 104.70 91.73"/>
<path fill="#d8dce5" stroke="none" d="
M 273.86 451.47
C 271.99 450.92 269.32 447.22 265.85 440.38
C 262.83 434.45 254.98 423.12 247.16 413.46
C 234.78 398.17 232.50 394.87 234.31 394.87
C 234.67 394.87 241.46 397.24 249.39 400.13
C 264.61 405.68 291.84 418.46 293.75 420.96
C 294.37 421.77 295.89 427.63 297.14 433.97
C 298.37 440.32 299.63 446.42 299.93 447.54
C 300.26 448.79 299.19 450.15 297.18 451.06
C 293.72 452.64 278.68 452.90 273.86 451.47"/>
<path fill="#eb2e00" stroke="none" d="
M 97.57 89.92
C 97.57 89.21 98.15 88.26 98.86 87.82
C 100.57 86.77 100.50 81.64 98.74 79.88
C 97.78 78.92 97.77 78.23 98.69 77.67
C 99.42 77.22 101.03 78.37 102.26 80.23
C 104.24 83.26 104.28 83.99 102.63 86.91
C 100.71 90.32 97.57 92.19 97.57 89.92"/>
<path fill="#487966" stroke="none" d="
M 496.86 389.68
C 445.79 388.15 408.96 384.71 367.19 377.54
C 271.36 361.10 200.12 331.41 139.51 282.65
C 119.72 266.74 114.14 257.90 118.32 249.17
C 120.67 244.28 135.85 234.15 147.65 229.62
C 165.48 222.74 175.53 221.14 200.28 221.22
L 222.75 221.29
L 234.77 227.38
C 249.56 234.88 258.30 238.37 291.61 250.06
C 305.98 255.12 322.66 261.24 328.67 263.69
C 345.82 270.69 373.52 285.44 398.00 300.60
C 482.81 353.15 497.62 359.94 570.04 379.49
C 578.15 381.69 586.20 384.40 587.91 385.50
C 590.90 387.45 590.93 387.60 588.63 389.28
C 585.96 391.23 553.86 391.37 496.86 389.68"/>
<path fill="#e79756" stroke="none" d="
M 543.14 480.69
C 540.00 479.27 532.78 475.03 527.09 471.28
C 501.69 454.50 467.74 434.17 453.10 426.94
C 444.33 422.60 433.11 415.96 428.17 412.18
C 418.93 405.10 404.77 391.46 405.78 390.62
C 406.09 390.36 413.86 390.88 423.04 391.79
C 443.98 393.86 486.38 396.15 503.80 396.15
C 519.24 396.15 522.61 397.14 534.72 405.13
C 539.66 408.40 549.92 413.86 557.51 417.26
C 565.10 420.64 573.40 425.24 575.98 427.46
L 580.66 431.50
L 578.41 435.95
C 572.08 448.41 555.17 477.92 552.91 480.45
C 549.82 483.91 550.24 483.90 543.14 480.69"/>
<path fill="#cc9884" stroke="none" d="
M 156.63 592.26
C 154.17 591.85 150.78 590.77 149.12 589.86
L 146.09 588.23
L 150.41 584.55
C 154.28 581.23 155.66 580.86 164.34 580.78
C 169.63 580.73 178.30 580.13 183.59 579.44
C 188.88 578.76 199.58 577.60 207.35 576.88
C 215.11 576.17 223.32 574.97 225.58 574.24
C 230.58 572.63 236.95 565.63 240.11 558.28
C 244.95 547.00 271.19 468.69 271.99 463.13
L 272.82 457.33
L 285.34 457.19
C 292.22 457.12 297.86 457.35 297.86 457.69
C 297.86 458.04 295.74 461.79 293.17 466.03
C 285.39 478.79 280.22 490.01 268.10 520.37
C 255.64 551.55 252.55 562.85 253.17 574.90
C 253.55 582.44 253.49 582.60 249.71 583.82
C 247.59 584.51 241.52 586.76 236.23 588.81
L 226.60 592.56
L 193.86 592.79
C 175.85 592.92 159.10 592.68 156.63 592.26"/>
<path fill="#cc9884" stroke="none" d="
M 270.91 591.03
L 266.44 590.38
L 273.35 585.96
C 278.90 582.42 281.80 581.46 288.09 581.10
C 349.84 577.62 351.83 576.59 357.07 545.63
C 362.24 515.01 363.10 479.35 358.93 469.14
C 358.26 467.54 359.59 466.86 365.53 465.74
C 369.63 464.97 373.76 464.15 374.75 463.91
C 380.26 462.54 380.35 487.54 374.94 517.31
C 372.76 529.29 370.64 544.87 370.24 551.92
L 369.50 564.74
L 374.66 575.60
C 377.51 581.58 379.53 586.96 379.14 587.56
C 378.77 588.18 376.93 587.26 375.07 585.51
C 371.09 581.81 366.85 579.49 364.11 579.49
C 363.03 579.49 359.21 582.08 355.63 585.26
C 351.00 589.37 347.94 591.06 345.00 591.18
C 331.48 591.68 274.66 591.56 270.91 591.03"/>
</g>
</svg>
