<?xml version="1.0" encoding="UTF-8" standalone="no"?>
<!DOCTYPE svg PUBLIC "-//W3C//DTD SVG 1.1//EN"
"http://www.w3.org/Graphics/SVG/1.1/DTD/svg11.dtd">
<svg width="636px" height="500px"
xmlns="http://www.w3.org/2000/svg" version="1.1">
<g transform="translate(0000, 0000) scale(1.0000, 1.0000)">
<path fill="#000000" stroke="none" d="
M 59.31 498.39
C 57.03 496.11 57.31 492.61 60.25 486.88
C 65.14 477.31 71.50 472.31 82.60 469.33
C 85.61 468.53 101.17 465.43 117.22 462.47
C 133.25 459.50 153.14 454.89 161.40 452.23
C 169.68 449.56 180.07 447.08 184.49 446.73
C 188.92 446.37 207.29 447.69 225.30 449.65
C 253.45 452.72 258.32 452.96 259.94 451.34
C 261.57 449.72 260.02 447.21 248.94 433.51
C 240.11 422.56 234.13 413.55 229.87 404.79
L 223.70 392.00
L 212.85 386.02
C 197.31 377.44 163.74 354.91 146.86 341.73
C 128.42 327.35 105.22 305.20 96.59 293.74
C 88.41 282.90 78.79 263.77 75.60 252.01
C 71.64 237.41 72.38 209.26 77.69 172.92
C 82.48 140.09 82.48 131.58 77.66 120.66
C 76.20 117.35 73.72 113.27 72.13 111.58
C 65.84 104.89 50.29 103.15 22.81 106.03
C 2.23 108.20 -2.70 105.60 2.07 95.05
C 5.96 86.45 17.98 77.09 28.34 74.60
C 30.27 74.14 38.66 72.82 46.96 71.66
C 60.66 69.75 63.52 68.82 77.66 61.74
C 104.85 48.14 117.07 45.90 139.65 50.46
C 148.57 52.25 151.81 52.36 157.46 51.10
C 178.24 46.43 196.03 31.37 207.22 8.93
C 209.49 4.38 212.23 0.67 213.31 0.67
C 215.97 0.67 220.02 12.02 220.96 22.10
C 222.33 36.73 214.31 61.03 203.41 75.28
C 200.84 78.65 195.67 83.61 191.91 86.30
C 181.47 93.79 180.32 96.55 179.26 116.34
C 177.91 141.80 182.01 161.11 192.60 179.17
L 196.05 185.04
L 204.35 178.65
C 216.15 169.60 227.89 157.65 246.20 136.06
C 288.49 86.19 312.34 70.99 353.56 67.60
C 360.05 67.06 375.96 67.64 393.81 69.05
C 429.47 71.88 450.49 71.22 478.05 66.42
C 515.59 59.89 557.71 48.91 581.83 39.37
C 595.84 33.83 599.91 33.98 603.10 40.16
C 606.16 46.07 605.66 49.08 599.34 63.10
C 586.49 91.54 560.02 122.17 532.68 140.16
L 518.59 149.44
L 526.65 150.48
C 531.07 151.05 556.98 151.68 584.22 151.86
C 626.57 152.16 633.92 152.51 635.01 154.24
C 636.71 156.92 630.87 170.78 623.17 182.40
C 595.34 224.36 540.41 246.65 464.80 246.65
C 437.85 246.65 424.35 245.40 392.47 239.95
C 363.83 235.04 347.22 233.87 333.56 235.80
C 323.23 237.25 308.73 242.61 305.90 246.01
C 304.21 248.04 306.70 250.08 334.40 269.25
C 360.57 287.37 368.67 293.97 401.19 323.70
C 432.59 352.40 451.63 368.07 468.95 379.50
C 493.13 395.47 533.01 413.58 557.37 419.69
C 570.64 423.02 577.00 426.69 578.92 432.12
C 580.09 435.46 578.65 439.02 565.76 464.65
C 550.22 495.56 548.32 497.91 540.92 495.12
C 538.92 494.37 522.50 484.68 504.43 473.58
C 459.36 445.91 441.68 437.23 417.96 431.03
C 402.65 427.04 369.31 422.73 367.51 424.53
C 366.67 425.38 369.28 431.02 374.85 440.47
C 389.58 465.40 391.85 476.05 384.71 486.78
C 379.64 494.40 371.89 497.33 356.97 497.28
C 349.92 497.25 339.33 496.33 333.43 495.24
C 295.39 488.22 249.15 482.72 242.40 484.41
C 239.26 485.20 239.06 485.62 240.39 488.54
C 241.21 490.32 241.51 492.73 241.06 493.89
C 240.16 496.22 235.43 496.73 234.13 494.62
C 233.60 493.77 232.23 494.01 230.40 495.29
C 226.44 498.07 215.18 497.88 191.20 494.64
C 166.07 491.23 163.94 491.26 139.28 495.31
C 115.85 499.16 110.63 499.36 100.95 496.85
C 94.54 495.19 93.79 495.24 91.72 497.52
C 88.84 500.71 85.81 500.68 84.96 497.48
C 84.38 495.29 83.07 494.99 74.92 495.15
C 67.54 495.31 65.26 495.84 64.23 497.67
C 62.70 500.42 61.51 500.59 59.31 498.39
M 136.26 488.61
C 160.46 484.57 166.58 484.50 192.54 487.91
C 213.37 490.66 221.73 491.18 223.07 489.84
C 224.96 487.95 218.59 484.37 210.73 482.91
C 201.21 481.14 199.15 479.84 200.45 476.45
C 201.40 473.94 204.15 474.10 223.94 477.73
C 231.09 479.05 235.24 479.18 238.70 478.22
C 247.70 475.71 287.64 479.84 333.32 488.00
C 362.28 493.16 375.60 490.63 379.55 479.18
C 381.40 473.81 380.38 466.25 377.11 461.15
C 375.66 458.90 358.76 457.55 350.79 459.05
L 346.03 459.93
L 346.92 465.76
C 347.64 470.60 347.30 472.06 344.97 474.40
C 342.50 476.86 340.56 477.21 329.51 477.21
C 315.49 477.21 271.82 473.89 260.30 471.94
C 256.24 471.26 244.69 469.17 234.62 467.31
C 198.14 460.51 190.64 460.95 166.96 471.25
C 153.73 477.01 151.85 477.44 132.88 479.18
C 113.23 480.97 112.68 481.10 107.45 485.48
L 102.10 489.95
L 105.72 490.79
C 112.12 492.29 115.81 492.02 136.26 488.61
M 92.57 481.98
C 106.24 475.34 112.12 473.91 133.59 472.10
C 146.87 470.99 149.94 470.20 162.82 464.60
C 170.74 461.15 180.67 457.68 184.88 456.89
C 195.87 454.83 214.17 456.35 244.24 461.85
C 258.61 464.48 275.64 466.98 282.08 467.43
L 293.81 468.22
L 296.48 462.33
C 301.72 450.78 299.26 447.76 282.97 445.80
C 272.03 444.49 268.70 445.60 269.40 450.35
C 269.79 453.03 269.07 455.05 266.96 457.16
C 264.17 459.95 263.19 460.09 252.47 459.28
C 246.15 458.78 230.07 457.14 216.76 455.62
C 203.44 454.10 189.53 453.18 185.84 453.57
C 182.15 453.97 172.79 456.34 165.04 458.86
C 157.28 461.38 143.70 464.79 134.85 466.45
C 103.13 472.36 86.10 475.84 82.85 477.08
C 81.04 477.77 78.28 480.50 76.72 483.14
L 73.89 487.94
L 77.11 487.94
C 78.87 487.94 85.83 485.25 92.57 481.98
M 558.39 461.10
C 565.56 446.81 571.13 434.64 570.75 434.03
C 569.35 431.78 559.26 427.52 550.53 425.50
C 517.70 417.88 465.26 389.92 432.72 362.67
C 426.08 357.10 420.23 352.55 419.71 352.55
C 419.20 352.55 417.18 354.62 415.25 357.16
C 406.10 369.14 403.73 388.65 409.83 401.73
C 415.71 414.34 428.54 425.94 442.11 430.91
C 455.61 435.86 480.42 449.29 511.22 468.32
C 528.56 479.05 543.34 487.64 544.06 487.44
C 544.79 487.23 551.23 475.38 558.39 461.10
M 337.79 468.97
C 340.27 466.49 336.87 461.60 323.82 448.98
C 311.60 437.16 303.60 430.83 302.40 432.02
C 302.02 432.40 302.66 435.90 303.82 439.79
C 306.35 448.31 306.43 457.36 304.03 464.08
L 302.26 469.02
L 306.45 469.56
C 316.42 470.82 336.32 470.44 337.79 468.97
M 360.45 453.19
L 372.72 452.41
L 364.81 439.09
C 360.47 431.76 356.91 424.97 356.91 424.01
C 356.91 423.04 358.20 420.97 359.78 419.38
C 362.44 416.73 363.58 416.57 374.88 417.35
C 387.15 418.19 411.72 421.58 416.50 423.10
C 418.31 423.67 417.48 422.01 413.63 417.39
C 402.68 404.24 398.49 391.17 401.07 378.11
C 402.88 368.87 406.56 359.53 410.60 353.86
C 412.07 351.81 413.27 349.18 413.27 348.04
C 413.27 346.01 380.24 314.91 361.47 299.25
C 353.99 293.02 305.31 258.10 296.89 252.92
C 295.83 252.28 289.81 253.46 282.07 255.84
C 252.75 264.88 232.17 269.80 230.27 268.23
C 229.27 267.40 227.71 262.95 226.83 258.35
C 223.19 239.46 212.27 224.85 195.51 216.47
C 190.36 213.90 184.98 211.80 183.55 211.80
C 181.62 211.80 181.06 211.02 181.38 208.78
C 181.77 206.10 182.82 205.67 191.04 204.85
C 201.86 203.78 204.71 201.97 199.39 199.54
C 194.88 197.49 183.69 181.01 179.84 170.71
C 173.03 152.53 171.60 138.22 172.94 101.69
C 173.57 84.72 171.88 80.08 160.60 67.67
C 154.34 60.80 152.79 59.80 146.88 58.94
C 143.22 58.42 135.84 57.17 130.50 56.19
C 116.41 53.62 108.35 55.60 83.57 67.77
C 63.64 77.56 63.12 77.92 61.55 83.18
C 60.45 86.82 60.33 90.11 61.16 93.35
C 62.18 97.29 63.32 98.45 67.60 99.91
C 74.68 102.32 82.63 110.40 85.26 117.86
C 89.46 129.76 89.19 142.80 83.99 180.05
C 81.34 199.10 79.16 218.50 79.16 223.18
C 79.16 256.35 96.22 287.48 131.08 317.92
C 155.74 339.46 186.81 361.66 215.17 377.96
C 228.64 385.72 236.68 389.72 282.04 411.26
C 305.25 422.28 315.76 429.38 329.66 443.42
C 339.63 453.49 342.00 455.24 344.84 454.65
C 346.69 454.28 353.70 453.62 360.45 453.19
M 296.02 440.29
C 295.59 439.17 294.30 435.04 293.16 431.13
L 291.10 424.02
L 278.06 417.87
C 247.88 403.63 235.70 398.14 235.28 398.55
C 234.34 399.49 244.44 414.76 254.49 427.56
L 265.00 440.97
L 271.71 440.34
C 275.40 439.97 281.44 440.21 285.13 440.87
C 295.57 442.69 296.92 442.63 296.02 440.29
M 259.62 254.58
C 277.32 249.56 287.70 245.71 299.34 239.89
C 315.41 231.84 334.41 226.54 347.24 226.54
C 352.93 226.54 381.02 230.54 399.82 234.02
C 431.14 239.81 472.18 241.72 497.84 238.54
C 559.91 230.86 603.33 205.92 623.09 166.60
C 625.02 162.75 626.61 159.44 626.61 159.22
C 626.61 159.02 608.64 158.77 586.69 158.66
C 529.24 158.38 477.89 156.19 464.92 153.47
C 447.47 149.81 407.39 138.43 385.76 130.99
C 354.28 120.16 347.92 120.99 316.52 140.08
C 309.59 144.30 293.04 155.40 279.76 164.76
C 237.90 194.25 214.33 208.07 202.74 209.92
L 197.33 210.78
L 205.05 215.76
C 209.29 218.50 215.05 223.40 217.84 226.66
C 223.75 233.55 230.15 246.37 231.52 254.02
C 232.60 260.03 233.17 261.39 234.64 261.39
C 235.20 261.39 246.43 258.32 259.62 254.58
M 276.65 157.17
C 305.47 136.85 320.36 127.72 335.70 120.95
C 352.51 113.54 359.31 113.91 388.20 123.82
C 413.83 132.61 453.02 143.81 468.35 146.72
C 474.02 147.79 484.02 149.06 490.58 149.54
L 502.49 150.42
L 520.61 138.35
C 539.77 125.60 552.78 114.91 562.55 103.89
C 573.42 91.61 585.05 74.83 590.30 63.82
C 597.17 49.44 597.63 47.64 595.04 45.07
C 593.09 43.11 592.47 43.11 587.95 45.05
C 562.79 55.88 503.37 70.56 463.85 75.70
C 443.80 78.30 423.24 78.28 391.80 75.66
C 354.03 72.49 335.78 74.84 314.32 85.62
C 295.16 95.24 280.00 109.03 249.35 144.77
C 234.06 162.60 219.78 177.01 208.00 186.49
L 201.99 191.33
L 208.55 194.66
L 215.13 197.99
L 233.60 186.25
C 243.76 179.79 263.13 166.69 276.65 157.17
M 37.91 98.30
C 51.16 97.71 56.35 97.01 56.35 95.83
C 56.35 94.03 49.38 92.53 40.87 92.51
C 34.74 92.49 22.50 95.42 15.86 98.49
L 11.41 100.55
L 15.43 99.83
C 17.64 99.44 27.76 98.75 37.91 98.30
M 20.96 89.52
C 26.34 87.06 29.96 86.53 41.26 86.50
C 48.83 86.47 55.01 86.46 55.01 86.45
C 55.01 86.45 55.59 84.44 56.30 81.97
L 57.58 77.49
L 49.26 78.39
C 35.91 79.80 25.76 82.80 19.38 87.18
C 14.08 90.83 12.37 92.49 13.91 92.49
C 14.20 92.49 17.36 91.15 20.96 89.52
M 187.24 79.38
C 191.63 75.86 197.47 69.68 200.19 65.64
C 209.01 52.65 215.48 31.35 213.77 20.91
L 213.02 16.26
L 207.89 23.89
C 197.51 39.33 180.23 52.88 166.38 56.43
L 159.85 58.10
L 167.18 66.92
C 171.21 71.77 175.20 78.00 176.03 80.76
C 176.86 83.53 177.93 85.79 178.40 85.79
C 178.87 85.79 182.86 82.91 187.24 79.38"/>
<path fill="#000000" stroke="none" d="
M 92.47 87.24
C 89.58 84.33 88.56 82.05 88.56 78.42
C 88.56 71.61 94.49 65.68 101.30 65.68
C 108.12 65.68 114.05 71.61 114.05 78.42
C 114.05 85.23 108.12 91.15 101.30 91.15
C 97.67 91.15 95.39 90.13 92.47 87.24
M 107.34 84.45
C 108.82 82.98 110.03 80.27 110.03 78.42
C 110.03 75.09 105.88 69.71 103.32 69.71
C 101.33 69.71 101.69 71.82 103.99 73.73
C 105.10 74.64 106.00 76.76 106.00 78.42
C 106.00 80.08 105.10 82.20 103.99 83.11
C 102.87 84.02 101.97 85.31 101.97 85.95
C 101.97 87.96 104.54 87.25 107.34 84.45"/>
<path fill="#2c4139" stroke="none" d="
M 176.03 80.76
C 175.20 78.00 171.21 71.77 167.18 66.92
L 159.85 58.10
L 166.38 56.43
C 179.99 52.95 197.11 39.64 207.67 24.36
L 212.60 17.21
L 213.61 21.01
C 215.94 29.68 209.06 52.57 200.19 65.64
C 195.93 71.96 180.95 85.79 178.40 85.79
C 177.93 85.79 176.86 83.53 176.03 80.76"/>
<path fill="#487966" stroke="none" d="
M 233.05 260.39
C 232.74 259.84 232.05 256.97 231.52 254.02
C 230.15 246.37 223.75 233.55 217.84 226.66
C 215.05 223.40 209.29 218.50 205.05 215.76
L 197.33 210.78
L 202.74 209.92
C 214.33 208.07 237.90 194.25 279.76 164.76
C 293.04 155.40 309.59 144.30 316.52 140.08
C 347.92 120.99 354.28 120.16 385.76 130.99
C 407.39 138.43 447.47 149.81 464.92 153.47
C 477.89 156.19 529.24 158.38 586.69 158.66
C 608.64 158.77 626.61 159.02 626.61 159.22
C 626.61 159.44 625.02 162.75 623.09 166.60
C 603.33 205.92 559.91 230.86 497.84 238.54
C 472.18 241.72 431.14 239.81 399.82 234.02
C 381.02 230.54 352.93 226.54 347.24 226.54
C 334.41 226.54 315.41 231.84 299.34 239.89
C 287.70 245.71 277.32 249.56 259.62 254.58
C 233.83 261.90 233.91 261.89 233.05 260.39"/>
<path fill="#487966" stroke="none" d="
M 208.55 194.66
L 201.99 191.33
L 208.00 186.49
C 219.78 177.01 234.06 162.60 249.35 144.77
C 280.00 109.03 295.16 95.24 314.32 85.62
C 335.78 74.84 354.03 72.49 391.80 75.66
C 423.24 78.28 443.80 78.30 463.85 75.70
C 497.22 71.35 547.85 59.60 573.74 50.17
C 590.47 44.09 595.09 43.26 596.19 46.15
C 597.93 50.66 588.25 70.42 576.47 86.42
C 559.85 108.97 547.48 120.47 520.61 138.35
L 502.49 150.42
L 490.58 149.54
C 484.02 149.06 474.02 147.79 468.35 146.72
C 453.02 143.81 413.83 132.61 388.20 123.82
C 359.31 113.91 352.51 113.54 335.70 120.95
C 320.36 127.72 305.47 136.85 276.65 157.17
C 263.13 166.69 243.76 179.79 233.60 186.25
L 215.13 197.99
L 208.55 194.66"/>
<path fill="#d8dce5" stroke="none" d="
M 329.66 443.42
C 315.76 429.38 305.25 422.28 282.04 411.26
C 236.68 389.72 228.64 385.72 215.17 377.96
C 186.81 361.66 155.74 339.46 131.08 317.92
C 96.22 287.48 79.16 256.35 79.16 223.18
C 79.16 218.50 81.34 199.10 83.99 180.05
C 89.19 142.80 89.46 129.76 85.26 117.86
C 82.63 110.40 74.68 102.32 67.60 99.91
C 63.32 98.45 62.18 97.29 61.16 93.35
C 60.33 90.11 60.45 86.82 61.53 83.19
C 63.10 77.96 63.69 77.55 83.23 67.86
C 108.63 55.24 117.19 53.35 133.57 56.72
C 139.64 57.96 146.31 58.98 148.41 58.98
C 153.16 58.98 165.91 71.82 170.45 81.18
C 173.14 86.73 173.41 88.99 172.94 101.69
C 171.60 138.22 173.03 152.53 179.84 170.71
C 183.69 181.01 194.88 197.49 199.39 199.54
C 204.71 201.97 201.86 203.78 191.04 204.85
C 182.82 205.67 181.77 206.10 181.38 208.78
C 181.06 211.02 181.62 211.80 183.55 211.80
C 184.98 211.80 190.36 213.90 195.51 216.47
C 212.27 224.85 223.19 239.46 226.83 258.35
C 227.71 262.95 229.27 267.40 230.27 268.23
C 232.17 269.80 252.75 264.88 282.07 255.84
C 289.81 253.46 295.83 252.28 296.89 252.92
C 305.31 258.10 353.99 293.02 361.47 299.25
C 380.24 314.91 413.27 346.01 413.27 348.04
C 413.27 349.18 412.07 351.81 410.60 353.86
C 406.56 359.53 402.88 368.87 401.07 378.11
C 398.49 391.17 402.68 404.24 413.63 417.39
C 417.48 422.01 418.31 423.67 416.50 423.10
C 411.72 421.58 387.15 418.19 374.88 417.35
C 363.58 416.57 362.44 416.73 359.78 419.38
C 358.20 420.97 356.91 423.04 356.91 424.01
C 356.91 424.97 360.47 431.76 364.81 439.09
L 372.72 452.41
L 360.45 453.19
C 353.70 453.62 346.69 454.28 344.84 454.65
C 342.00 455.24 339.63 453.49 329.66 443.42
M 110.13 87.24
C 113.03 84.33 114.05 82.05 114.05 78.42
C 114.05 71.61 108.12 65.68 101.30 65.68
C 94.49 65.68 88.56 71.61 88.56 78.42
C 88.56 85.23 94.49 91.15 101.30 91.15
C 104.94 91.15 107.22 90.13 110.13 87.24"/>
<path fill="#d8dce5" stroke="none" d="
M 285.13 440.87
C 281.44 440.21 275.40 439.97 271.71 440.34
L 265.00 440.97
L 254.49 427.56
C 244.44 414.76 234.34 399.49 235.28 398.55
C 235.70 398.14 247.88 403.63 278.06 417.87
L 291.10 424.02
L 293.16 431.13
C 294.30 435.04 295.59 439.17 296.02 440.29
C 296.92 442.63 295.57 442.69 285.13 440.87"/>
<path fill="#eb2e00" stroke="none" d="
M 101.97 85.95
C 101.97 85.31 102.87 84.02 103.99 83.11
C 106.60 80.95 106.55 76.57 103.89 73.63
C 100.81 70.21 103.97 69.02 107.29 72.33
C 110.76 75.80 110.79 81.01 107.34 84.45
C 104.54 87.25 101.97 87.96 101.97 85.95"/>
<path fill="#573e3e" stroke="none" d="
M 15.86 98.49
C 22.50 95.42 34.74 92.49 40.87 92.51
C 49.38 92.53 56.35 94.03 56.35 95.83
C 56.35 97.01 51.16 97.71 37.91 98.30
C 27.76 98.75 17.64 99.44 15.43 99.83
L 11.41 100.55
L 15.86 98.49"/>
<path fill="#573e3e" stroke="none" d="
M 13.42 91.89
C 13.42 91.55 16.10 89.44 19.38 87.18
C 25.78 82.79 35.96 79.81 49.23 78.47
L 57.55 77.63
L 56.27 82.04
C 55.58 84.46 55.01 86.45 55.01 86.45
C 55.01 86.46 48.83 86.47 41.26 86.50
C 29.96 86.53 26.34 87.06 20.96 89.52
C 14.06 92.65 13.42 92.86 13.42 91.89"/>
<path fill="#e79756" stroke="none" d="
M 511.22 468.32
C 480.42 449.29 455.61 435.86 442.11 430.91
C 428.33 425.87 415.59 414.24 409.66 401.30
C 406.74 394.93 406.36 392.45 406.76 382.87
C 407.15 373.75 407.94 370.40 411.25 363.99
C 417.96 350.98 418.71 350.94 432.76 362.69
C 465.27 389.93 517.71 417.90 550.53 425.50
C 559.26 427.52 569.35 431.78 570.75 434.03
C 571.59 435.40 545.85 486.93 544.06 487.44
C 543.34 487.64 528.56 479.05 511.22 468.32"/>
<path fill="#cc9884" stroke="none" d="
M 105.72 490.79
L 102.10 489.95
L 107.45 485.48
C 112.68 481.10 113.23 480.97 132.88 479.18
C 151.85 477.44 153.73 477.01 166.96 471.25
C 190.64 460.95 198.14 460.51 234.62 467.31
C 244.69 469.17 256.24 471.26 260.30 471.94
C 271.82 473.89 315.49 477.21 329.51 477.21
C 340.56 477.21 342.50 476.86 344.97 474.40
C 347.30 472.06 347.64 470.60 346.92 465.76
L 346.03 459.93
L 350.79 459.05
C 358.76 457.55 375.66 458.90 377.11 461.15
C 380.38 466.25 381.40 473.81 379.55 479.18
C 375.60 490.63 362.28 493.16 333.32 488.00
C 287.64 479.84 247.70 475.71 238.70 478.22
C 235.24 479.18 231.09 479.05 223.94 477.73
C 204.15 474.10 201.40 473.94 200.45 476.45
C 199.15 479.84 201.21 481.14 210.73 482.91
C 218.59 484.37 224.96 487.95 223.07 489.84
C 221.73 491.18 213.37 490.66 192.54 487.91
C 166.58 484.50 160.46 484.57 136.26 488.61
C 115.81 492.02 112.12 492.29 105.72 490.79"/>
<path fill="#cc9884" stroke="none" d="
M 76.72 483.14
C 78.28 480.50 81.04 477.77 82.85 477.08
C 86.10 475.84 103.13 472.36 134.85 466.45
C 143.70 464.79 157.28 461.38 165.04 458.86
C 172.79 456.34 182.15 453.97 185.84 453.57
C 189.53 453.18 203.44 454.10 216.76 455.62
C 230.07 457.14 246.15 458.78 252.47 459.28
C 263.19 460.09 264.17 459.95 266.96 457.16
C 269.07 455.05 269.79 453.03 269.40 450.35
C 268.89 446.88 269.27 446.46 273.63 445.76
C 279.01 444.89 292.29 446.80 296.46 449.03
C 299.91 450.87 299.91 454.77 296.48 462.33
L 293.81 468.22
L 282.08 467.43
C 275.64 466.98 258.61 464.48 244.24 461.85
C 214.17 456.35 195.87 454.83 184.88 456.89
C 180.67 457.68 170.74 461.15 162.82 464.60
C 149.94 470.20 146.87 470.99 133.59 472.10
C 112.12 473.91 106.24 475.34 92.57 481.98
C 85.83 485.25 78.87 487.94 77.11 487.94
L 73.89 487.94
L 76.72 483.14"/>
</g>
</svg>
