<?xml version="1.0" encoding="UTF-8" standalone="no"?>
<!DOCTYPE svg PUBLIC "-//W3C//DTD SVG 1.1//EN"
"http://www.w3.org/Graphics/SVG/1.1/DTD/svg11.dtd">
<svg width="479px" height="600px"
xmlns="http://www.w3.org/2000/svg" version="1.1">
<g transform="translate(0000, 0000) scale(1.0000, 1.0000)">
<path fill="#000000" stroke="none" d="
M 86.17 598.11
C 85.14 595.41 86.45 591.08 89.81 586.08
C 93.66 580.39 104.43 574.99 115.40 573.29
C 139.30 569.58 173.22 562.07 177.23 559.59
C 185.49 554.48 189.70 544.18 195.41 515.12
C 197.47 504.61 201.77 486.69 204.95 475.30
C 213.77 443.74 216.82 429.20 217.66 414.66
C 218.85 393.82 216.44 383.00 201.58 342.63
C 196.82 329.67 192.55 316.78 192.10 313.95
C 191.36 309.33 189.92 307.69 176.99 296.79
C 157.99 280.75 143.01 264.62 136.43 253.11
C 133.48 247.93 126.03 232.40 119.88 218.60
C 113.74 204.78 104.72 184.98 99.86 174.58
C 89.66 152.79 84.46 137.99 84.46 130.83
C 84.46 119.38 90.97 113.08 125.26 91.37
C 145.15 78.79 158.85 68.71 159.73 66.01
C 160.68 63.11 156.19 60.50 150.23 60.48
C 146.99 60.45 139.50 59.34 133.62 58.01
L 122.90 55.58
L 62.59 59.42
C -0.01 63.42 -2.42 63.37 0.79 58.27
C 2.55 55.49 118.82 6.32 130.46 3.44
C 135.32 2.24 141.59 0.92 144.41 0.50
C 151.63 -0.55 167.86 2.17 178.99 6.29
C 184.19 8.22 227.02 27.15 274.16 48.37
C 367.54 90.39 368.07 90.68 368.07 100.31
C 368.07 103.68 367.14 105.74 364.53 108.21
C 361.49 111.08 361.05 112.32 361.51 116.85
C 362.19 123.83 357.90 128.57 350.92 128.57
C 347.55 128.57 327.37 120.15 278.40 98.32
C 241.08 81.68 210.00 68.07 209.35 68.07
C 208.69 68.07 206.02 70.76 203.42 74.05
C 189.26 91.97 177.47 101.65 157.75 111.53
C 151.49 114.67 146.01 117.81 145.59 118.50
C 144.02 121.03 151.86 122.27 169.52 122.27
C 188.59 122.27 201.31 124.06 215.54 128.75
C 243.75 138.05 272.80 157.31 295.52 181.76
C 315.23 202.98 318.85 208.10 408.22 340.97
C 427.81 370.08 450.02 402.95 457.58 413.99
C 474.71 439.02 479.00 446.92 479.00 453.49
C 479.00 460.27 476.86 461.80 468.29 461.08
C 464.47 460.76 461.38 460.84 461.40 461.24
C 461.42 461.65 462.25 463.39 463.24 465.13
C 465.88 469.73 465.69 478.61 462.93 480.08
C 460.08 481.60 407.97 483.37 400.24 482.22
C 392.39 481.03 386.25 475.36 377.93 461.61
C 363.08 437.02 346.83 420.66 323.50 406.76
L 313.59 400.87
L 314.35 404.95
C 317.29 420.96 318.17 432.28 318.12 453.78
C 318.07 474.95 317.60 480.73 314.77 495.38
C 307.87 531.03 307.43 546.33 313.01 557.37
C 316.48 564.20 320.68 566.99 335.46 572.21
C 351.02 577.69 357.71 584.19 356.51 592.64
C 356.04 596.04 355.57 596.05 340.97 593.23
C 308.25 586.88 302.30 586.63 277.21 590.56
C 252.86 594.39 239.32 594.37 231.85 590.50
C 225.62 587.28 216.43 587.74 206.49 591.76
C 197.02 595.59 194.03 595.55 192.29 591.59
C 190.40 587.31 181.10 586.79 164.50 590.05
C 154.20 592.08 145.28 592.84 129.83 593.02
C 110.78 593.23 108.25 593.53 99.67 596.62
C 88.88 600.52 87.17 600.71 86.17 598.11
M 103.36 588.97
C 110.37 586.58 109.92 587.02 108.71 583.75
L 107.69 581.02
L 102.19 583.92
C 96.25 587.05 90.24 593.91 95.17 591.92
C 96.56 591.37 100.25 590.04 103.36 588.97
M 157.60 584.16
C 172.16 581.75 179.35 581.13 185.95 581.72
L 194.79 582.52
L 197.83 578.39
C 200.61 574.64 200.88 573.05 200.98 559.73
C 201.08 545.65 201.29 544.54 207.58 525.97
C 211.16 515.42 217.30 494.43 221.23 479.33
C 225.17 464.24 230.68 443.67 233.46 433.61
C 236.25 423.55 238.81 414.14 239.13 412.68
C 239.64 410.42 238.87 409.80 234.10 408.61
C 231.00 407.82 227.64 406.87 226.62 406.47
C 225.09 405.88 224.61 407.95 223.96 418.11
C 222.97 433.10 220.00 447.37 211.79 476.52
C 208.35 488.70 203.61 508.27 201.26 520.02
C 196.38 544.30 193.01 554.18 187.50 560.46
C 181.97 566.76 178.31 568.25 159.71 571.75
C 150.56 573.48 140.51 575.70 137.40 576.69
C 134.28 577.68 130.88 578.41 129.83 578.33
C 125.41 577.97 117.75 578.68 116.33 579.58
C 115.49 580.12 115.12 581.77 115.51 583.29
C 116.26 586.12 115.68 586.00 134.28 587.16
C 136.39 587.28 146.89 585.95 157.60 584.16
M 210.79 583.73
C 215.79 582.05 216.62 581.32 215.99 579.20
C 215.58 577.82 215.10 576.52 214.93 576.33
C 214.14 575.39 206.97 579.10 203.89 582.04
C 199.97 585.78 199.33 588.15 202.63 586.70
C 203.84 586.16 207.52 584.82 210.79 583.73
M 274.79 584.24
C 297.50 580.61 306.45 580.36 319.09 583.02
C 329.31 585.18 330.88 584.96 331.83 581.27
C 332.39 579.15 331.53 578.38 326.79 576.77
C 311.85 571.68 306.55 565.83 303.90 551.51
C 301.38 537.86 302.58 522.87 308.84 489.71
C 311.79 474.09 313.43 448.51 312.07 439.41
L 311.16 433.37
L 302.11 434.27
C 297.14 434.76 292.93 435.28 292.76 435.44
C 292.58 435.59 293.70 440.21 295.25 445.69
C 297.99 455.39 298.06 457.13 297.74 507.98
L 297.41 560.29
L 294.45 563.26
C 291.80 565.92 289.20 566.47 269.59 568.60
C 222.56 573.69 223.11 573.61 223.11 576.09
C 223.11 579.88 224.52 582.35 226.72 582.37
C 227.85 582.38 232.19 583.49 236.35 584.82
C 246.34 588.04 251.58 587.96 274.79 584.24
M 346.25 584.21
C 342.64 581.02 339.08 580.10 339.08 582.35
C 339.08 583.05 338.94 584.03 338.77 584.55
C 338.59 585.06 340.15 585.84 342.23 586.29
C 349.24 587.79 349.92 587.43 346.25 584.21
M 221.22 567.84
C 226.08 566.91 242.53 564.92 257.78 563.39
C 273.86 561.81 286.62 559.95 288.17 558.98
C 290.75 557.36 290.84 556.21 291.71 514.06
C 292.28 486.06 292.13 467.68 291.28 461.97
C 288.07 440.24 278.21 414.84 262.47 387.74
C 257.84 379.80 257.30 379.29 256.03 381.67
C 254.08 385.30 241.04 431.29 229.98 473.47
C 224.88 492.96 217.79 517.92 214.23 528.93
C 207.47 549.86 205.81 558.81 207.27 566.58
C 207.96 570.26 208.58 571.05 210.27 570.38
C 211.44 569.92 216.37 568.78 221.22 567.84
M 457.99 474.01
C 458.55 473.46 456.98 468.95 454.48 463.99
C 450.46 456.00 448.73 454.07 439.32 447.13
C 424.86 436.45 308.64 372.30 306.33 373.73
C 305.15 374.46 306.86 381.89 308.50 383.11
C 309.03 383.50 311.09 385.98 313.04 388.61
C 315.01 391.25 319.54 395.27 323.12 397.55
C 326.70 399.84 333.59 404.22 338.41 407.27
C 354.18 417.21 370.68 435.35 384.80 458.22
C 392.57 470.80 395.07 473.53 400.39 475.26
C 404.63 476.63 456.44 475.51 457.99 474.01
M 472.70 453.43
C 472.70 450.97 462.84 434.94 448.87 414.67
C 441.97 404.63 414.05 363.25 386.83 322.69
C 311.41 210.28 304.69 201.14 280.03 177.50
L 266.11 164.17
L 250.18 158.31
C 227.95 150.11 220.01 148.49 202.94 148.56
C 191.12 148.63 185.66 149.34 173.32 152.47
C 156.19 156.81 148.31 160.39 144.46 165.55
C 140.86 170.38 141.20 180.63 145.55 198.28
C 156.94 244.50 178.83 275.84 225.00 312.00
C 250.09 331.64 275.90 347.53 331.52 377.55
C 378.03 402.66 424.46 428.22 431.73 432.73
C 435.20 434.89 442.24 439.79 447.39 443.63
C 459.31 452.56 472.70 457.73 472.70 453.43
M 307.90 429.84
C 311.27 429.83 311.36 429.67 310.61 424.47
C 307.92 406.08 304.91 389.91 302.30 380.07
L 299.31 368.75
L 286.05 361.16
C 215.13 320.58 172.57 282.15 153.04 241.08
C 144.99 224.12 136.69 196.24 133.92 176.72
C 132.37 165.79 141.56 154.61 155.81 150.09
C 160.59 148.58 167.90 146.26 172.06 144.93
C 185.97 140.51 207.94 139.71 227.53 142.93
L 232.57 143.76
L 226.24 140.77
C 207.80 132.08 191.18 128.65 167.02 128.52
C 145.52 128.42 139.96 127.16 138.14 122.00
C 135.99 115.84 138.63 112.95 153.41 105.35
C 160.89 101.50 170.88 95.45 175.58 91.89
C 190.62 80.55 207.94 57.18 207.97 48.18
C 208.00 43.03 200.86 31.03 193.84 24.39
C 173.88 5.51 141.43 1.44 120.64 15.21
C 114.38 19.36 108.41 27.87 108.41 32.63
C 108.41 44.08 124.48 52.18 150.51 53.87
C 160.10 54.49 162.32 55.06 164.76 57.50
C 169.83 62.57 167.88 69.87 159.47 77.21
C 156.72 79.61 142.40 89.29 116.41 106.31
C 107.28 112.29 97.74 119.60 95.19 122.56
C 91.07 127.34 90.64 128.48 91.33 132.82
C 92.47 140.07 99.19 156.61 111.88 183.40
C 118.12 196.58 126.73 215.37 131.01 225.16
C 135.29 234.96 141.54 247.15 144.90 252.26
C 152.98 264.54 173.93 284.74 203.58 308.81
C 237.18 336.10 249.99 349.13 258.09 364.29
C 261.61 370.88 267.66 381.93 271.53 388.87
C 277.44 399.43 283.20 411.74 290.05 428.42
C 291.19 431.21 291.76 431.37 297.85 430.64
C 301.47 430.21 305.98 429.84 307.90 429.84
M 244.23 394.98
C 245.78 388.99 248.40 381.11 250.06 377.50
L 253.09 370.89
L 249.40 364.12
C 247.37 360.40 241.62 353.18 236.61 348.08
C 225.34 336.58 201.19 316.07 200.68 317.56
C 200.46 318.16 204.05 328.78 208.64 341.16
C 217.66 365.47 222.46 382.25 223.79 394.15
L 224.65 401.67
L 231.76 403.65
C 235.67 404.75 239.44 405.69 240.14 405.76
C 240.84 405.83 242.68 400.98 244.23 394.98
M 234.46 144.33
C 234.46 143.97 234.18 143.70 233.83 143.70
C 233.47 143.70 233.20 143.97 233.20 144.33
C 233.20 144.68 233.47 144.96 233.83 144.96
C 234.18 144.96 234.46 144.68 234.46 144.33
M 353.82 118.92
C 355.30 116.67 355.23 115.97 353.30 113.60
C 350.20 109.84 215.18 50.19 214.14 52.13
C 213.72 52.93 213.02 55.03 212.60 56.82
C 211.84 60.04 212.75 60.49 280.81 91.02
C 318.75 108.04 350.31 121.87 350.94 121.74
C 351.59 121.60 352.87 120.34 353.82 118.92
M 359.22 102.38
C 361.93 100.18 361.93 100.07 359.68 97.30
C 358.23 95.52 328.92 81.66 281.79 60.47
C 240.24 41.76 206.07 26.47 205.88 26.47
C 205.68 26.47 207.21 29.13 209.27 32.39
C 211.34 35.65 213.03 38.99 213.03 39.81
C 213.03 40.64 235.86 51.40 263.77 63.74
C 291.67 76.08 323.58 90.28 334.67 95.28
C 345.76 100.29 355.20 104.45 355.64 104.51
C 356.09 104.57 357.70 103.61 359.22 102.38
M 81.93 51.59
C 96.15 50.74 108.15 49.70 108.63 49.29
C 109.10 48.87 108.15 46.88 106.53 44.86
L 103.58 41.21
L 81.10 45.73
C 68.74 48.23 56.07 50.60 52.94 51.01
C 44.56 52.11 41.74 54.58 49.79 53.77
C 53.26 53.42 67.72 52.44 81.93 51.59
M 57.45 44.08
C 59.32 43.37 68.86 41.11 78.64 39.05
C 88.43 37.01 97.58 35.05 98.99 34.73
C 100.79 34.30 102.03 32.37 103.14 28.24
C 103.99 25.00 104.51 22.16 104.27 21.92
C 103.85 21.50 50.38 43.84 49.26 44.89
C 48.18 45.91 54.18 45.33 57.45 44.08"/>
<path fill="#000000" stroke="none" d="
M 132.92 32.21
C 128.72 28.00 128.72 21.16 132.92 16.95
C 137.13 12.76 143.96 12.76 148.17 16.95
C 154.97 23.76 150.17 35.29 140.55 35.29
C 137.42 35.29 135.07 34.34 132.92 32.21
M 146.16 29.71
C 148.23 27.20 147.31 20.08 144.71 18.45
C 142.09 16.82 140.13 18.37 142.21 20.45
C 144.03 22.26 144.18 27.29 142.44 28.36
C 141.75 28.79 141.18 29.67 141.18 30.33
C 141.18 32.14 144.47 31.74 146.16 29.71"/>
<path fill="#09d10e" stroke="none" d="
M 290.05 428.42
C 283.20 411.74 277.44 399.43 271.53 388.87
C 267.66 381.93 261.61 370.88 258.09 364.29
C 249.99 349.13 237.18 336.10 203.58 308.81
C 173.93 284.74 152.98 264.54 144.90 252.26
C 141.54 247.15 135.29 234.96 131.01 225.16
C 126.73 215.37 118.12 196.58 111.88 183.40
C 99.19 156.61 92.47 140.07 91.33 132.82
C 90.64 128.48 91.07 127.34 95.19 122.56
C 97.74 119.60 107.28 112.29 116.41 106.31
C 142.40 89.29 156.72 79.61 159.47 77.21
C 167.88 69.87 169.83 62.57 164.76 57.50
C 162.32 55.06 160.10 54.49 150.51 53.87
C 124.48 52.18 108.41 44.08 108.41 32.63
C 108.41 27.87 114.38 19.36 120.64 15.21
C 141.39 1.47 173.91 5.55 193.84 24.39
C 200.86 31.03 208.00 43.03 207.97 48.18
C 207.94 57.18 190.62 80.55 175.58 91.89
C 170.88 95.45 160.89 101.50 153.41 105.35
C 138.63 112.95 135.99 115.84 138.14 122.00
C 139.96 127.16 145.52 128.42 167.02 128.52
C 191.18 128.65 207.80 132.08 226.24 140.77
L 232.57 143.76
L 227.53 142.93
C 207.94 139.71 185.97 140.51 172.06 144.93
C 167.90 146.26 160.59 148.58 155.81 150.09
C 141.56 154.61 132.37 165.79 133.92 176.72
C 135.29 186.35 141.33 210.95 144.73 220.74
C 163.04 273.50 204.04 314.24 286.05 361.16
L 299.31 368.75
L 302.30 380.07
C 304.91 389.91 307.92 406.08 310.61 424.47
C 311.36 429.67 311.27 429.83 307.90 429.84
C 305.98 429.84 301.47 430.21 297.85 430.64
C 291.76 431.37 291.19 431.21 290.05 428.42
M 148.17 32.21
C 154.97 25.40 150.17 13.87 140.55 13.87
C 134.40 13.87 129.83 18.43 129.83 24.58
C 129.83 30.73 134.40 35.29 140.55 35.29
C 143.67 35.29 146.03 34.34 148.17 32.21"/>
<path fill="#09d10e" stroke="none" d="
M 231.76 403.65
L 224.65 401.67
L 223.79 394.15
C 222.46 382.25 217.66 365.47 208.64 341.16
C 204.05 328.78 200.46 318.16 200.68 317.56
C 201.19 316.07 225.34 336.58 236.61 348.08
C 241.62 353.18 247.37 360.40 249.40 364.12
L 253.09 370.89
L 250.06 377.50
C 248.40 381.11 245.78 388.99 244.23 394.98
C 242.68 400.98 240.84 405.83 240.14 405.76
C 239.44 405.69 235.67 404.75 231.76 403.65"/>
<path fill="#eb2e00" stroke="none" d="
M 141.18 30.33
C 141.18 29.67 141.75 28.79 142.44 28.36
C 144.12 27.33 144.05 22.29 142.33 20.56
C 140.30 18.53 143.35 17.05 145.64 18.96
C 147.86 20.80 148.07 27.89 145.97 30.00
C 144.17 31.80 141.18 32.00 141.18 30.33"/>
<path fill="#fd5c43" stroke="none" d="
M 45.38 53.08
C 46.43 52.35 49.82 51.42 52.94 51.01
C 56.07 50.60 68.74 48.23 81.10 45.73
L 103.58 41.21
L 106.53 44.86
C 108.15 46.88 109.10 48.87 108.63 49.29
C 108.15 49.70 96.15 50.74 81.93 51.59
C 67.72 52.44 53.26 53.42 49.79 53.77
C 45.16 54.24 43.99 54.05 45.38 53.08"/>
<path fill="#fd5c43" stroke="none" d="
M 49.26 44.86
C 50.26 43.89 103.92 21.57 104.31 21.96
C 104.52 22.17 103.99 25.00 103.14 28.24
C 102.03 32.37 100.79 34.30 98.99 34.73
C 97.58 35.05 88.43 37.01 78.64 39.05
C 68.86 41.11 59.32 43.37 57.45 44.08
C 54.15 45.34 48.20 45.91 49.26 44.86"/>
<path fill="#febe52" stroke="none" d="
M 280.81 91.02
C 212.75 60.49 211.84 60.04 212.60 56.82
C 213.02 55.03 213.72 52.93 214.14 52.13
C 215.18 50.19 350.20 109.84 353.30 113.60
C 355.23 115.97 355.30 116.67 353.82 118.92
C 352.87 120.34 351.59 121.60 350.94 121.74
C 350.31 121.87 318.75 108.04 280.81 91.02"/>
<path fill="#febe52" stroke="none" d="
M 334.67 95.28
C 323.58 90.28 291.81 76.11 264.08 63.79
L 213.66 41.41
L 210.17 34.39
C 208.25 30.52 206.83 27.25 207.02 27.11
C 207.21 26.97 241.10 42.08 282.36 60.66
C 329.06 81.71 358.23 95.52 359.68 97.30
C 361.93 100.07 361.93 100.18 359.22 102.38
C 357.70 103.61 356.09 104.57 355.64 104.51
C 355.20 104.45 345.76 100.29 334.67 95.28"/>
<path fill="#fe6c49" stroke="none" d="
M 462.51 452.74
C 459.34 451.58 452.53 447.48 447.39 443.63
C 442.24 439.79 435.20 434.89 431.73 432.73
C 424.46 428.22 378.03 402.66 331.52 377.55
C 275.90 347.53 250.09 331.64 225.00 312.00
C 178.83 275.84 156.94 244.50 145.55 198.28
C 141.20 180.63 140.86 170.38 144.46 165.55
C 148.31 160.37 156.20 156.81 173.32 152.48
C 185.63 149.38 191.16 148.65 202.94 148.59
C 220.04 148.50 228.00 150.14 250.18 158.31
L 266.11 164.17
L 280.03 177.50
C 304.69 201.14 311.41 210.28 386.83 322.69
C 414.05 363.25 441.97 404.63 448.87 414.67
C 462.84 434.94 472.70 450.97 472.70 453.43
C 472.70 455.55 469.61 455.33 462.51 452.74"/>
<path fill="#0f76f7" stroke="none" d="
M 400.39 475.26
C 395.07 473.53 392.57 470.80 384.80 458.22
C 370.68 435.35 354.18 417.21 338.41 407.27
C 333.59 404.22 326.70 399.84 323.12 397.55
C 319.54 395.27 315.01 391.25 313.04 388.61
C 311.09 385.98 309.03 383.50 308.50 383.11
C 306.57 381.68 305.20 374.58 306.74 373.99
C 309.62 372.88 424.91 436.47 439.32 447.13
C 448.72 454.07 450.46 456.00 454.48 463.99
C 456.98 468.95 458.55 473.46 457.99 474.01
C 456.44 475.51 404.63 476.63 400.39 475.26"/>
<path fill="#ee8f79" stroke="none" d="
M 123.34 586.46
C 117.30 586.08 116.12 585.61 115.51 583.29
C 115.12 581.77 115.49 580.12 116.33 579.58
C 117.75 578.68 125.41 577.97 129.83 578.33
C 130.88 578.41 134.28 577.68 137.40 576.69
C 140.51 575.70 150.56 573.48 159.71 571.75
C 178.31 568.25 181.97 566.76 187.50 560.46
C 193.01 554.18 196.38 544.30 201.26 520.02
C 203.61 508.27 208.35 488.70 211.79 476.52
C 219.65 448.63 222.89 433.35 223.83 419.75
C 224.25 413.85 224.78 408.39 225.02 407.60
C 225.32 406.58 227.46 406.73 232.58 408.15
C 238.69 409.85 239.63 410.51 239.12 412.74
C 238.79 414.16 236.25 423.55 233.46 433.61
C 230.68 443.67 225.17 464.24 221.23 479.33
C 217.30 494.43 211.16 515.42 207.58 525.97
C 201.29 544.54 201.08 545.65 200.98 559.73
C 200.88 573.05 200.61 574.64 197.83 578.39
L 194.79 582.52
L 185.95 581.72
C 179.35 581.13 172.16 581.75 157.60 584.16
C 146.89 585.95 136.39 587.28 134.28 587.16
C 132.19 587.03 127.26 586.71 123.34 586.46"/>
<path fill="#ee8f79" stroke="none" d="
M 236.35 584.82
C 232.19 583.49 227.85 582.38 226.72 582.37
C 224.52 582.35 223.11 579.88 223.11 576.09
C 223.11 573.61 222.56 573.69 269.59 568.60
C 289.20 566.47 291.80 565.92 294.45 563.26
L 297.41 560.29
L 297.74 507.98
C 298.06 457.13 297.99 455.39 295.25 445.69
C 293.70 440.21 292.58 435.59 292.76 435.44
C 292.93 435.28 297.14 434.76 302.11 434.27
L 311.16 433.37
L 312.07 439.41
C 313.43 448.51 311.79 474.09 308.84 489.71
C 302.58 522.87 301.38 537.86 303.90 551.51
C 306.55 565.83 311.85 571.68 326.79 576.77
C 331.53 578.38 332.39 579.15 331.83 581.27
C 330.88 584.96 329.31 585.18 319.09 583.02
C 306.45 580.36 297.50 580.61 274.79 584.24
C 251.58 587.96 246.34 588.04 236.35 584.82"/>
<path fill="#595757" stroke="none" d="
M 94.68 589.89
C 95.79 588.20 99.17 585.52 102.19 583.92
L 107.69 581.02
L 108.71 583.75
C 109.92 587.02 110.37 586.58 103.36 588.97
C 100.25 590.04 96.56 591.37 95.17 591.92
C 92.76 592.90 92.74 592.80 94.68 589.89"/>
<path fill="#595757" stroke="none" d="
M 200.42 586.50
C 200.42 584.38 207.50 578.53 211.43 577.41
C 214.82 576.44 215.41 576.64 216.02 578.95
C 216.39 580.41 216.60 581.65 216.44 581.67
C 215.52 581.90 204.44 585.95 202.63 586.73
C 201.42 587.24 200.42 587.14 200.42 586.50"/>
<path fill="#595757" stroke="none" d="
M 342.23 586.29
C 340.15 585.84 338.59 585.06 338.77 584.55
C 338.94 584.03 339.08 583.05 339.08 582.35
C 339.08 580.10 342.64 581.02 346.25 584.21
C 349.92 587.43 349.24 587.79 342.23 586.29"/>
</g>
</svg>
