<?xml version="1.0" encoding="UTF-8" standalone="no"?>
<!DOCTYPE svg PUBLIC "-//W3C//DTD SVG 1.1//EN"
"http://www.w3.org/Graphics/SVG/1.1/DTD/svg11.dtd">
<svg width="450px" height="600px"
xmlns="http://www.w3.org/2000/svg" version="1.1">
<g transform="translate(0000, 0000) scale(1.0000, 1.0000)">
<path fill="#000000" stroke="none" d="
M 217.33 598.77
C 214.67 594.45 221.47 581.85 228.51 578.09
C 232.60 575.90 245.44 574.30 267.31 573.25
C 284.32 572.44 288.69 571.82 292.95 569.62
C 301.35 565.25 301.69 564.03 302.69 534.52
C 303.18 519.98 303.92 507.52 304.35 506.83
C 304.77 506.15 305.73 495.61 306.49 483.39
L 307.86 461.19
L 304.10 450.96
C 302.04 445.33 299.95 437.04 299.45 432.52
C 298.53 424.20 293.31 409.20 290.59 407.07
C 289.77 406.41 286.71 405.58 283.77 405.21
L 278.42 404.53
L 273.63 417.52
C 263.03 446.25 261.18 450.55 256.74 457.00
C 251.29 464.89 244.04 480.09 233.23 506.24
C 228.94 516.65 221.72 533.08 217.19 542.76
C 205.73 567.28 205.12 569.96 208.69 580.17
C 211.90 589.34 212.26 593.65 210.00 595.91
C 207.64 598.26 204.21 597.76 198.05 594.17
C 193.90 591.74 191.85 591.20 190.13 592.09
C 186.74 593.87 144.94 596.66 135.26 595.75
C 130.68 595.33 125.68 594.31 124.15 593.49
C 121.82 592.25 120.28 592.59 114.65 595.62
C 108.77 598.81 107.68 599.03 105.76 597.44
C 104.10 596.07 103.73 594.28 104.19 590.15
C 104.95 583.50 107.77 578.94 112.74 576.37
C 116.83 574.26 148.05 570.59 161.92 570.58
C 167.17 570.58 172.13 569.81 174.37 568.66
C 182.79 564.31 193.19 546.03 207.49 510.45
C 212.44 498.14 219.53 481.15 223.23 472.71
L 229.97 457.36
L 229.68 444.50
C 229.40 431.85 229.45 431.57 233.54 425.95
C 235.82 422.81 238.41 418.25 239.29 415.78
C 240.99 411.08 241.59 396.97 240.23 393.47
C 239.81 392.34 233.41 388.48 226.05 384.90
C 212.76 378.43 177.06 355.48 164.74 345.48
C 144.37 328.93 145.17 329.36 136.63 330.03
C 132.35 330.35 124.23 330.58 118.59 330.54
C 99.58 330.37 80.82 321.35 63.31 303.95
C 54.45 295.14 51.94 291.61 46.36 280.17
C 39.85 266.80 33.33 244.54 33.33 235.65
C 33.33 220.66 43.37 198.33 69.14 156.08
C 89.99 121.89 98.45 103.11 100.73 85.91
C 102.59 71.96 93.55 56.32 82.45 54.24
C 79.76 53.73 61.00 54.08 40.76 55.00
C 2.71 56.74 0.00 56.52 0.00 51.79
C 0.00 50.89 9.67 44.51 21.47 37.60
C 37.40 28.29 45.51 22.62 52.87 15.65
C 66.76 2.52 71.28 0.69 89.74 0.75
C 101.94 0.81 105.53 1.28 110.47 3.52
C 122.41 8.90 131.19 19.54 135.06 33.28
C 142.22 58.68 137.41 83.57 113.83 143.28
C 94.14 193.19 91.69 202.75 95.38 215.35
C 96.85 220.35 99.27 224.64 102.73 228.40
C 115.76 242.48 127.69 238.71 155.13 211.78
C 175.64 191.65 186.56 182.38 196.40 176.78
C 212.21 167.74 230.51 164.00 247.46 166.31
C 261.81 168.27 266.10 170.52 268.76 177.45
C 270.81 182.79 270.77 183.42 268.01 192.90
C 266.44 198.32 263.18 207.03 260.77 212.25
C 258.36 217.46 256.65 221.99 256.96 222.29
C 257.28 222.61 262.28 222.23 268.08 221.46
C 282.29 219.54 290.85 219.67 307.97 222.05
C 340.96 226.62 363.04 238.17 383.62 261.62
C 408.40 289.88 431.14 334.26 444.27 379.96
C 451.92 406.61 451.62 418.39 443.14 423.54
C 435.59 428.14 427.54 426.38 411.49 416.65
C 388.09 402.47 354.54 397.29 330.13 404.07
C 326.55 405.07 326.29 405.54 326.49 410.78
C 326.60 414.08 328.32 419.86 330.64 424.73
C 335.72 435.35 335.65 440.03 330.29 451.04
C 326.15 459.53 325.94 460.73 325.13 479.10
C 324.67 489.66 323.38 506.93 322.28 517.48
C 321.10 528.81 320.47 543.85 320.74 554.19
C 321.15 569.83 321.49 572.02 323.90 574.66
C 329.44 580.71 331.10 588.19 328.15 593.69
C 326.47 596.84 323.45 596.81 318.59 593.60
C 313.72 590.39 309.72 590.38 304.56 593.55
C 300.88 595.82 297.69 596.11 272.10 596.43
C 250.71 596.71 243.33 596.41 242.12 595.20
C 239.86 592.95 236.73 593.21 231.12 596.14
C 224.65 599.49 218.51 600.67 217.33 598.77
M 301.53 585.66
C 305.55 583.88 308.03 581.81 309.03 579.39
C 309.86 577.41 311.33 575.12 312.32 574.30
C 313.65 573.20 314.12 569.05 314.14 557.95
C 314.17 549.76 315.09 529.55 316.19 513.01
C 317.29 496.46 318.60 475.75 319.09 466.95
C 319.86 453.17 320.45 450.05 323.38 444.42
L 326.78 437.88
L 322.92 429.75
C 319.99 423.54 318.81 418.73 317.96 409.42
C 317.35 402.72 315.36 390.04 313.55 381.24
C 309.72 362.57 307.54 359.46 298.32 359.51
C 291.56 359.55 282.90 363.40 280.14 367.60
C 278.09 370.73 278.18 371.01 284.32 379.54
C 298.82 399.70 305.54 413.81 307.06 427.29
C 307.58 431.86 309.72 440.21 311.81 445.84
L 315.60 456.08
L 314.74 476.55
C 314.28 487.80 313.31 501.04 312.59 505.97
C 311.87 510.90 310.90 526.55 310.42 540.77
C 309.45 570.35 309.09 571.41 298.15 576.87
C 292.68 579.61 289.51 580.08 270.65 580.93
C 258.95 581.46 249.29 581.94 249.22 581.99
C 249.14 582.04 249.35 583.50 249.67 585.21
C 250.45 589.27 251.72 589.45 275.64 588.83
C 292.23 588.40 296.51 587.87 301.53 585.66
M 165.81 587.18
C 188.54 585.26 189.36 585.08 190.26 581.49
C 190.69 579.79 192.77 577.37 194.88 576.13
C 198.08 574.23 198.72 573.04 198.72 568.98
C 198.72 562.78 202.60 551.23 208.90 538.75
C 211.59 533.39 219.12 516.33 225.60 500.85
C 237.36 472.80 243.31 460.53 251.01 448.40
C 255.58 441.22 269.59 404.06 268.21 402.83
C 267.21 401.95 251.36 396.59 249.76 396.59
C 249.18 396.59 248.71 400.48 248.69 405.22
C 248.64 417.17 247.12 422.69 241.62 430.64
C 236.99 437.36 236.90 437.69 237.78 445.91
C 238.90 456.29 237.24 463.75 230.44 479.10
C 227.63 485.44 220.82 501.70 215.32 515.25
C 201.45 549.34 195.44 560.92 186.65 570.37
C 180.50 576.99 177.01 578.25 164.86 578.25
C 158.85 578.25 148.15 578.90 141.08 579.71
C 128.94 581.09 128.21 581.33 128.21 584.10
C 128.21 586.32 129.06 587.17 131.73 587.57
C 138.59 588.60 150.38 588.47 165.81 587.18
M 120.79 584.81
C 123.29 584.24 123.97 583.52 123.21 582.29
C 122.32 580.87 121.45 580.93 118.21 582.60
C 113.65 584.94 110.90 588.26 114.86 586.63
C 116.21 586.07 118.87 585.25 120.79 584.81
M 201.54 585.67
C 200.69 584.83 200.00 583.10 200.00 581.83
C 200.00 579.02 198.31 578.87 196.13 581.48
C 194.36 583.61 194.36 583.62 198.08 585.70
C 201.49 587.60 203.46 587.59 201.54 585.67
M 244.87 584.80
C 244.87 583.46 243.46 583.19 238.99 583.70
C 230.42 584.66 229.69 586.57 237.88 586.57
C 242.97 586.57 244.87 586.08 244.87 584.80
M 320.51 583.56
C 320.51 582.97 319.44 581.51 318.13 580.34
C 316.01 578.43 315.58 578.41 314.14 580.12
C 312.79 581.74 313.03 582.27 315.56 583.28
C 319.46 584.84 320.51 584.89 320.51 583.56
M 438.64 415.89
C 442.96 412.39 442.46 404.74 436.58 384.43
C 429.76 360.96 421.88 341.27 410.81 320.02
C 376.67 254.53 341.29 228.70 285.90 228.78
C 277.08 228.79 265.54 229.61 260.26 230.60
L 250.64 232.39
L 239.00 243.81
C 225.29 257.26 206.15 269.92 202.76 267.80
C 201.59 267.07 200.46 265.32 200.26 263.91
C 199.95 261.90 202.68 259.47 212.58 252.90
C 228.83 242.09 242.64 227.64 249.67 214.07
C 256.54 200.78 261.86 185.68 260.95 182.06
C 258.64 172.90 230.47 171.28 211.87 179.23
C 200.15 184.25 187.45 194.11 166.67 214.32
C 143.67 236.70 140.31 239.19 128.99 242.46
C 103.78 249.72 85.90 234.27 85.90 205.23
L 85.90 198.20
L 79.76 199.02
C 73.35 199.87 65.81 197.68 61.38 193.68
C 59.38 191.87 58.83 192.37 54.56 199.98
C 45.27 216.59 43.01 223.50 43.03 235.39
C 43.05 253.34 51.24 274.85 64.33 291.31
C 75.12 304.87 94.37 317.39 111.23 321.79
C 117.36 323.40 120.63 323.48 130.77 322.26
C 146.96 320.34 150.59 321.43 163.45 332.10
C 182.72 348.08 211.29 367.02 230.83 376.76
C 237.50 380.09 243.82 383.51 244.87 384.38
C 245.92 385.25 253.72 388.27 262.18 391.11
C 279.67 396.96 284.62 398.28 284.62 397.09
C 284.62 396.63 282.49 393.31 279.88 389.71
C 271.37 377.91 269.23 374.51 269.23 372.74
C 269.23 371.80 271.40 368.61 274.04 365.69
C 286.03 352.41 306.12 350.52 315.60 361.78
C 318.15 364.81 319.56 369.15 321.87 381.10
C 324.62 395.31 325.05 396.47 327.49 395.92
C 335.14 394.21 347.76 392.76 355.13 392.76
C 374.38 392.75 400.83 399.33 414.10 407.41
C 421.79 412.09 433.49 418.25 434.79 418.30
C 435.24 418.32 436.97 417.24 438.64 415.89
M 85.99 192.49
C 86.47 192.18 88.44 186.90 90.36 180.73
C 92.27 174.56 99.53 155.08 106.46 137.45
C 126.27 87.04 132.40 62.81 129.50 46.23
C 126.65 29.92 118.21 17.59 105.71 11.50
C 96.85 7.19 82.67 7.07 74.17 11.25
C 68.00 14.28 52.21 27.88 49.94 32.11
C 48.03 35.67 51.78 42.03 57.09 44.24
C 59.79 45.36 65.99 46.06 73.36 46.07
C 89.27 46.07 93.63 47.45 99.76 54.40
C 108.85 64.70 111.28 81.44 106.44 100.34
C 102.46 115.83 94.73 131.92 77.59 160.32
L 61.77 186.55
L 64.54 189.06
C 69.68 193.69 72.26 194.53 78.77 193.77
C 82.26 193.36 85.50 192.78 85.99 192.49
M 46.15 45.42
C 44.22 43.09 42.82 43.09 37.82 45.36
C 33.97 47.13 33.99 47.13 40.86 47.23
C 46.85 47.32 47.54 47.08 46.15 45.42
M 42.31 36.22
C 42.31 33.84 40.62 34.13 36.71 37.19
C 31.91 40.96 32.53 42.56 37.82 40.04
C 40.29 38.87 42.31 37.15 42.31 36.22"/>
<path fill="#000000" stroke="none" d="
M 70.41 34.64
C 67.64 31.87 66.67 29.69 66.67 26.23
C 66.67 19.73 72.33 14.07 78.85 14.07
C 85.36 14.07 91.03 19.73 91.03 26.23
C 91.03 32.72 85.36 38.38 78.85 38.38
C 75.37 38.38 73.19 37.41 70.41 34.64
M 84.62 31.98
C 86.03 30.58 87.18 27.99 87.18 26.23
C 87.18 23.05 83.22 17.91 80.77 17.91
C 78.87 17.91 79.22 19.93 81.41 21.75
C 82.47 22.62 83.33 24.64 83.33 26.23
C 83.33 27.81 82.47 29.83 81.41 30.70
C 80.35 31.57 79.49 32.80 79.49 33.42
C 79.49 35.33 81.94 34.66 84.62 31.98"/>
<path fill="#d8685c" stroke="none" d="
M 69.87 193.04
C 68.46 192.22 66.06 190.43 64.54 189.06
L 61.77 186.55
L 77.59 160.32
C 94.73 131.92 102.46 115.83 106.44 100.34
C 111.28 81.44 108.85 64.70 99.76 54.40
C 93.63 47.45 89.27 46.07 73.36 46.07
C 65.99 46.06 59.79 45.36 57.09 44.24
C 51.78 42.03 48.03 35.67 49.94 32.11
C 52.22 27.85 68.03 14.26 74.17 11.28
C 82.76 7.13 96.95 7.22 105.71 11.49
C 118.22 17.60 126.65 29.94 129.50 46.23
C 132.40 62.81 126.27 87.04 106.46 137.45
C 99.53 155.08 92.27 174.56 90.36 180.73
C 88.44 186.90 86.47 192.18 85.99 192.49
C 83.56 193.98 72.18 194.37 69.87 193.04
M 87.28 34.64
C 90.05 31.87 91.03 29.69 91.03 26.23
C 91.03 19.73 85.36 14.07 78.85 14.07
C 72.33 14.07 66.67 19.73 66.67 26.23
C 66.67 29.69 67.64 31.87 70.41 34.64
C 73.19 37.41 75.37 38.38 78.85 38.38
C 82.32 38.38 84.50 37.41 87.28 34.64"/>
<path fill="#d8685c" stroke="none" d="
M 37.82 45.36
C 42.82 43.09 44.22 43.09 46.15 45.42
C 47.54 47.08 46.85 47.32 40.86 47.23
C 33.99 47.13 33.97 47.13 37.82 45.36"/>
<path fill="#d8685c" stroke="none" d="
M 33.33 41.01
C 33.33 39.66 39.55 34.54 41.19 34.54
C 44.04 34.54 41.85 38.12 37.82 40.04
C 35.35 41.22 33.33 41.65 33.33 41.01"/>
<path fill="#eb2e00" stroke="none" d="
M 79.49 33.42
C 79.49 32.80 80.35 31.57 81.41 30.70
C 83.91 28.64 83.86 24.46 81.32 21.66
C 78.37 18.40 81.40 17.26 84.56 20.42
C 87.88 23.73 87.91 28.70 84.62 31.98
C 81.94 34.66 79.49 35.33 79.49 33.42"/>
<path fill="#6f5644" stroke="none" d="
M 427.56 414.99
C 424.05 413.18 417.99 409.78 414.10 407.41
C 400.83 399.33 374.38 392.75 355.13 392.76
C 347.76 392.76 335.14 394.21 327.49 395.92
C 325.05 396.47 324.62 395.31 321.87 381.10
C 319.56 369.15 318.15 364.81 315.60 361.78
C 306.12 350.52 286.03 352.41 274.04 365.69
C 271.40 368.61 269.23 371.80 269.23 372.74
C 269.23 374.51 271.37 377.91 279.88 389.71
C 282.49 393.31 284.62 396.63 284.62 397.09
C 284.62 398.28 279.67 396.96 262.18 391.11
C 253.72 388.27 245.92 385.25 244.87 384.38
C 243.82 383.51 237.50 380.09 230.83 376.76
C 211.29 367.02 182.72 348.08 163.45 332.10
C 150.59 321.43 146.96 320.34 130.77 322.26
C 120.63 323.48 117.36 323.40 111.23 321.79
C 94.37 317.39 75.12 304.87 64.33 291.31
C 51.24 274.85 43.05 253.34 43.03 235.39
C 43.01 223.50 45.27 216.59 54.56 199.98
C 58.83 192.37 59.38 191.87 61.38 193.68
C 65.81 197.68 73.35 199.87 79.76 199.02
L 85.90 198.20
L 85.90 205.23
C 85.90 227.65 96.91 242.87 114.04 244.09
C 122.32 244.70 133.81 241.92 141.03 237.59
C 143.49 236.11 155.03 225.63 166.67 214.32
C 187.51 194.05 200.15 184.25 211.99 179.18
C 230.36 171.33 258.67 172.99 260.95 182.06
C 261.86 185.68 256.54 200.78 249.67 214.07
C 242.64 227.64 228.83 242.09 212.58 252.90
C 202.68 259.47 199.95 261.90 200.26 263.91
C 200.46 265.32 201.59 267.07 202.76 267.80
C 206.15 269.92 225.29 257.26 239.00 243.81
L 250.64 232.39
L 260.26 230.60
C 265.54 229.61 277.08 228.79 285.90 228.78
C 341.29 228.70 376.67 254.53 410.81 320.02
C 421.88 341.27 429.76 360.96 436.58 384.43
C 442.46 404.74 442.96 412.39 438.64 415.89
C 434.90 418.91 435.31 418.95 427.56 414.99"/>
<path fill="#fea18c" stroke="none" d="
M 253.03 588.84
C 251.33 588.54 250.04 587.14 249.67 585.21
C 249.35 583.50 249.14 582.04 249.22 581.99
C 249.29 581.94 258.95 581.46 270.65 580.93
C 289.51 580.08 292.68 579.61 298.15 576.87
C 309.09 571.41 309.45 570.35 310.42 540.77
C 310.90 526.55 311.87 510.90 312.59 505.97
C 313.31 501.04 314.28 487.80 314.74 476.55
L 315.60 456.08
L 311.81 445.84
C 309.72 440.21 307.58 431.86 307.06 427.29
C 305.54 413.81 298.82 399.70 284.32 379.54
C 278.28 371.14 278.12 370.70 280.05 367.74
C 282.83 363.49 288.79 360.68 296.69 359.87
C 302.42 359.27 303.82 359.60 306.81 362.21
C 309.73 364.78 310.77 367.68 313.55 381.24
C 315.36 390.04 317.35 402.72 317.96 409.42
C 318.81 418.73 319.99 423.54 322.92 429.75
L 326.78 437.88
L 323.38 444.42
C 320.45 450.05 319.86 453.17 319.09 466.95
C 318.60 475.75 317.29 496.46 316.19 513.01
C 315.09 529.55 314.17 549.76 314.14 557.95
C 314.12 569.05 313.65 573.20 312.32 574.30
C 311.33 575.12 309.86 577.41 309.03 579.39
C 306.28 586.03 298.44 588.24 275.64 588.83
C 264.71 589.11 254.54 589.11 253.03 588.84"/>
<path fill="#fea18c" stroke="none" d="
M 131.73 587.57
C 129.06 587.17 128.21 586.32 128.21 584.10
C 128.21 581.33 128.94 581.09 141.08 579.71
C 148.15 578.90 158.85 578.25 164.86 578.25
C 177.01 578.25 180.50 576.99 186.65 570.37
C 195.44 560.92 201.45 549.34 215.32 515.25
C 220.82 501.70 227.63 485.44 230.44 479.10
C 237.24 463.75 238.90 456.29 237.78 445.91
C 236.90 437.69 236.99 437.36 241.62 430.64
C 247.12 422.69 248.64 417.17 248.69 405.22
C 248.71 400.48 249.18 396.59 249.76 396.59
C 251.36 396.59 267.21 401.95 268.21 402.83
C 269.59 404.06 255.58 441.22 251.01 448.40
C 243.31 460.53 237.36 472.80 225.60 500.85
C 219.12 516.33 211.59 533.39 208.90 538.75
C 202.60 551.23 198.72 562.78 198.72 568.98
C 198.72 573.04 198.08 574.23 194.88 576.13
C 192.77 577.37 190.69 579.79 190.26 581.49
C 189.36 585.08 188.54 585.26 165.81 587.18
C 150.38 588.47 138.59 588.60 131.73 587.57"/>
<path fill="#553737" stroke="none" d="
M 113.33 586.13
C 113.85 585.31 116.04 583.71 118.21 582.60
C 121.45 580.93 122.32 580.87 123.21 582.29
C 123.97 583.52 123.29 584.24 120.79 584.81
C 118.87 585.25 116.21 586.07 114.86 586.63
C 113.12 587.35 112.67 587.21 113.33 586.13"/>
<path fill="#553737" stroke="none" d="
M 198.08 585.70
C 194.36 583.62 194.36 583.61 196.13 581.48
C 198.31 578.87 200.00 579.02 200.00 581.83
C 200.00 583.10 200.69 584.83 201.54 585.67
C 203.46 587.59 201.49 587.60 198.08 585.70"/>
<path fill="#553737" stroke="none" d="
M 232.00 585.47
C 232.62 584.85 235.76 584.06 238.99 583.70
C 243.46 583.19 244.87 583.46 244.87 584.80
C 244.87 586.08 242.97 586.57 237.88 586.57
C 233.96 586.57 231.38 586.08 232.00 585.47"/>
<path fill="#553737" stroke="none" d="
M 315.49 583.25
C 313.08 582.29 312.73 581.67 313.92 580.48
C 315.60 578.80 319.29 580.36 320.22 583.14
C 320.82 584.92 319.72 584.94 315.49 583.25"/>
</g>
</svg>
