<?xml version="1.0" encoding="UTF-8" standalone="no"?>
<!DOCTYPE svg PUBLIC "-//W3C//DTD SVG 1.1//EN"
"http://www.w3.org/Graphics/SVG/1.1/DTD/svg11.dtd">
<svg width="739px" height="400px"
xmlns="http://www.w3.org/2000/svg" version="1.1">
<g transform="translate(0000, 0000) scale(1.0000, 1.0000)">
<path fill="#000000" stroke="none" d="
M 212.09 397.39
C 207.31 393.49 209.28 390.62 220.65 384.93
C 227.54 381.47 234.06 379.69 247.97 377.50
C 269.13 374.16 277.38 371.76 282.69 367.37
C 284.96 365.49 291.39 354.34 298.51 339.93
C 309.00 318.71 310.31 315.27 308.88 312.56
C 307.98 310.86 298.31 299.37 287.40 287.02
C 276.48 274.67 265.20 261.64 262.30 258.08
C 257.84 252.55 255.22 250.89 244.78 246.98
C 203.98 231.68 162.38 212.41 143.25 199.93
C 128.96 190.62 113.86 175.33 108.93 165.18
C 105.68 158.50 104.64 153.67 103.19 138.51
C 102.08 126.89 100.31 117.05 98.43 112.07
C 95.13 103.33 87.44 93.77 79.15 88.10
L 73.76 84.41
L 44.35 90.62
C 13.02 97.25 1.87 98.30 0.51 94.72
C -1.11 90.53 4.27 86.04 31.13 69.14
C 54.23 54.61 58.68 51.26 60.10 47.34
C 63.03 39.27 69.81 31.59 80.38 24.36
C 105.40 7.27 121.53 1.05 141.20 0.93
C 162.89 0.77 178.85 7.89 209.65 31.42
C 245.56 58.86 248.11 60.27 285.79 72.94
C 351.05 94.91 384.27 109.24 440.65 139.75
C 509.74 177.12 526.19 182.15 583.89 183.44
C 619.14 184.22 647.00 182.81 676.23 178.74
C 691.61 176.59 693.18 176.59 697.65 178.71
C 703.01 181.26 703.71 183.73 700.01 186.99
C 697.48 189.22 667.90 202.47 655.41 206.96
C 651.54 208.35 647.83 209.99 647.16 210.60
C 646.48 211.21 650.28 212.98 655.59 214.54
C 660.90 216.10 680.72 221.88 699.65 227.41
C 734.97 237.73 739.00 239.16 739.00 241.40
C 739.00 244.35 731.91 245.94 706.95 248.55
C 673.46 252.04 655.57 255.00 647.97 258.32
L 641.93 260.95
L 644.04 265.01
C 647.03 270.81 658.48 280.86 683.11 299.31
C 694.91 308.17 705.76 316.73 707.21 318.36
C 710.21 321.73 709.38 325.61 705.66 325.61
C 702.78 325.61 539.32 280.66 529.66 277.22
C 521.35 274.25 499.32 268.80 486.11 266.44
C 473.68 264.22 406.84 263.87 404.71 266.02
C 403.85 266.88 405.96 270.68 410.51 276.49
C 420.09 288.72 423.44 296.38 422.41 303.72
C 421.96 306.89 416.83 321.24 411.00 335.61
C 405.19 349.98 400.06 363.56 399.62 365.78
C 398.27 372.69 401.22 374.72 418.07 378.41
C 441.32 383.51 453.97 390.78 450.12 396.84
C 448.11 400.00 440.14 399.93 413.76 396.58
C 389.56 393.49 349.82 394.11 327.69 397.89
C 314.17 400.22 312.53 400.22 301.70 398.08
C 288.42 395.45 249.63 395.03 238.14 397.40
C 223.36 400.45 215.81 400.45 212.09 397.39
M 304.13 387.42
C 304.59 386.69 303.13 385.14 300.87 383.97
C 294.08 380.46 294.29 378.15 302.60 365.04
C 306.80 358.41 315.62 344.48 322.22 334.06
C 328.81 323.66 333.97 314.91 333.66 314.61
C 333.36 314.32 330.05 314.81 326.31 315.71
L 319.48 317.33
L 306.91 342.65
C 292.94 370.78 289.24 375.31 276.28 380.15
C 271.94 381.77 262.53 383.90 255.38 384.88
L 242.35 386.67
L 269.05 387.41
C 283.73 387.83 297.44 388.29 299.52 388.46
C 301.60 388.63 303.68 388.17 304.13 387.42
M 405.85 384.34
C 386.65 379.99 386.11 373.75 401.55 335.92
C 406.94 322.67 411.80 309.88 412.32 307.49
C 413.59 301.74 410.78 300.72 403.67 304.34
L 398.23 307.10
L 390.62 338.18
C 386.44 355.27 381.89 371.10 380.53 373.35
C 376.81 379.45 369.09 382.61 353.41 384.44
C 345.73 385.32 339.29 386.19 339.13 386.36
C 338.97 386.53 356.22 386.67 377.47 386.67
L 416.12 386.67
L 405.85 384.34
M 346.80 376.79
C 356.57 375.61 365.59 374.33 366.82 373.96
C 372.76 372.17 375.08 366.81 382.12 338.51
C 385.99 322.91 389.17 309.12 389.17 307.90
C 389.17 304.31 380.54 296.79 373.71 294.41
C 370.23 293.22 360.17 289.64 351.35 286.47
C 342.53 283.30 335.08 280.93 334.80 281.21
C 334.53 281.49 336.84 286.12 339.94 291.51
C 346.87 303.51 348.00 308.42 345.12 313.98
C 343.93 316.28 334.74 331.05 324.68 346.79
C 308.40 372.32 306.66 375.64 308.72 377.19
C 311.83 379.55 325.20 379.41 346.80 376.79
M 680.69 308.39
C 651.16 286.64 633.63 269.39 633.63 262.08
C 633.63 256.90 642.06 250.48 652.17 247.96
C 660.46 245.89 701.57 240.00 707.67 240.00
C 708.93 240.00 709.65 239.69 709.27 239.30
C 708.88 238.92 690.97 233.47 669.44 227.21
L 630.33 215.83
L 609.84 221.56
C 493.94 254.01 370.69 258.15 275.37 232.79
C 223.68 219.05 173.58 193.75 146.14 167.58
C 132.95 154.98 127.32 145.35 127.22 135.20
L 127.15 127.94
L 119.42 127.41
C 115.16 127.12 111.44 127.05 111.15 127.26
C 110.84 127.48 111.22 133.85 111.96 141.45
C 113.62 158.23 116.99 165.68 127.88 176.76
C 150.33 199.55 187.84 217.16 309.79 262.20
C 339.15 273.05 366.73 282.91 371.07 284.10
C 375.41 285.31 382.78 288.83 387.43 291.93
L 395.88 297.57
L 402.68 294.67
C 406.42 293.07 409.71 291.52 410.00 291.24
C 410.29 290.96 406.34 285.56 401.25 279.26
C 396.15 272.95 391.98 266.91 391.98 265.82
C 391.98 262.19 397.35 258.46 404.17 257.35
C 415.61 255.48 474.41 255.96 486.81 258.01
C 501.62 260.45 517.61 264.44 533.25 269.56
C 546.21 273.81 680.95 311.38 683.50 311.45
C 684.28 311.47 683.01 310.09 680.69 308.39
M 331.95 305.87
C 337.14 304.46 337.30 304.25 335.42 301.32
C 334.33 299.64 331.13 294.11 328.32 289.05
C 325.51 283.99 321.76 278.51 320.00 276.88
C 317.60 274.64 277.49 258.25 274.43 258.25
C 274.13 258.25 283.87 269.63 296.06 283.54
C 320.52 311.47 317.69 309.70 331.95 305.87
M 446.77 239.94
C 502.13 236.76 558.09 227.54 607.83 213.39
C 641.10 203.93 675.40 191.34 673.38 189.32
C 672.76 188.70 662.14 189.09 649.77 190.19
C 620.56 192.80 568.61 192.83 549.22 190.25
C 514.95 185.70 492.47 177.45 447.45 152.93
C 391.63 122.51 346.87 102.53 295.74 85.19
L 273.26 77.59
L 243.76 83.51
C 186.70 94.98 158.41 104.77 143.96 118.09
C 136.17 125.26 133.91 131.55 136.25 139.48
C 144.50 167.44 209.56 206.67 277.28 224.52
C 329.88 238.39 385.68 243.47 446.77 239.94
M 135.44 114.58
C 145.06 105.19 160.71 96.95 182.29 89.91
C 197.94 84.79 235.88 75.73 250.53 73.61
L 257.29 72.63
L 247.17 67.55
C 241.61 64.74 225.91 54.04 212.30 43.75
C 175.25 15.75 162.86 9.66 142.60 9.45
C 124.90 9.28 109.30 14.99 87.61 29.61
C 67.91 42.88 62.42 55.56 70.12 69.95
C 71.01 71.58 75.57 75.54 80.26 78.72
C 95.23 88.87 103.22 98.98 108.04 113.84
C 109.94 119.73 113.56 121.88 121.82 122.01
C 127.12 122.09 128.51 121.33 135.44 114.58
M 61.35 78.51
C 63.25 77.78 64.44 76.63 64.01 75.93
C 63.31 74.79 49.52 79.10 47.77 81.01
C 46.83 82.04 57.01 80.15 61.35 78.51
M 49.03 72.87
C 59.34 68.94 60.24 68.28 58.92 65.81
C 58.07 64.21 56.76 63.49 55.78 64.10
C 51.39 66.75 37.33 75.93 36.74 76.52
C 35.39 77.85 37.89 77.11 49.03 72.87"/>
<path fill="#000000" stroke="none" d="
M 98.23 60.46
C 95.20 57.42 94.13 55.03 94.13 51.23
C 94.13 44.10 100.34 37.89 107.48 37.89
C 114.62 37.89 120.83 44.10 120.83 51.23
C 120.83 58.36 114.62 64.56 107.48 64.56
C 103.67 64.56 101.28 63.49 98.23 60.46
M 113.80 57.54
C 115.35 56.00 116.61 53.16 116.61 51.23
C 116.61 47.75 112.27 42.11 109.59 42.11
C 107.51 42.11 107.89 44.32 110.29 46.32
C 111.45 47.27 112.40 49.49 112.40 51.23
C 112.40 52.97 111.45 55.19 110.29 56.14
C 109.12 57.09 108.18 58.44 108.18 59.12
C 108.18 61.22 110.86 60.48 113.80 57.54"/>
<path fill="#5fd984" stroke="none" d="
M 112.79 120.41
C 111.07 119.58 108.94 116.63 108.04 113.84
C 103.22 98.98 95.23 88.87 80.26 78.72
C 68.46 70.72 64.88 63.33 67.59 52.58
C 69.61 44.58 75.60 37.70 87.61 29.61
C 109.22 15.05 124.73 9.38 142.60 9.49
C 162.82 9.61 175.20 15.71 212.30 43.75
C 225.91 54.04 241.61 64.74 247.17 67.55
L 257.29 72.63
L 250.53 73.61
C 235.88 75.73 197.94 84.79 182.29 89.91
C 160.71 96.95 145.06 105.19 135.44 114.58
C 128.51 121.33 127.12 122.09 121.82 122.01
C 118.56 121.96 114.50 121.24 112.79 120.41
M 116.72 60.46
C 119.76 57.42 120.83 55.03 120.83 51.23
C 120.83 44.10 114.62 37.89 107.48 37.89
C 100.34 37.89 94.13 44.10 94.13 51.23
C 94.13 58.36 100.34 64.56 107.48 64.56
C 111.29 64.56 113.67 63.49 116.72 60.46"/>
<path fill="#eb2e00" stroke="none" d="
M 108.18 59.12
C 108.18 58.44 109.12 57.09 110.29 56.14
C 113.03 53.88 112.97 49.29 110.19 46.22
C 106.96 42.64 110.27 41.39 113.74 44.86
C 117.38 48.49 117.41 53.94 113.80 57.54
C 110.86 60.48 108.18 61.22 108.18 59.12"/>
<path fill="#747f85" stroke="none" d="
M 47.77 81.01
C 49.52 79.10 63.31 74.79 64.01 75.93
C 64.44 76.63 63.25 77.78 61.35 78.51
C 57.01 80.15 46.83 82.04 47.77 81.01"/>
<path fill="#747f85" stroke="none" d="
M 36.74 76.52
C 39.06 74.20 55.23 64.56 56.80 64.56
C 57.84 64.56 59.05 65.47 59.49 66.57
C 60.05 68.04 57.20 69.75 48.98 72.88
C 37.89 77.12 35.39 77.85 36.74 76.52"/>
<path fill="#6d5b4b" stroke="none" d="
M 374.77 239.92
C 312.68 236.18 257.17 222.55 209.81 199.42
C 158.94 174.58 130.15 146.95 136.18 128.72
C 140.00 117.15 159.11 105.61 189.79 96.34
C 207.24 91.06 246.82 82.19 264.21 79.65
L 274.85 78.11
L 296.53 85.46
C 346.92 102.55 391.95 122.68 447.45 152.93
C 492.47 177.45 514.95 185.70 549.22 190.25
C 568.61 192.83 620.56 192.80 649.77 190.19
C 662.14 189.09 672.76 188.70 673.38 189.32
C 675.40 191.34 641.10 203.93 607.83 213.39
C 533.32 234.57 447.83 244.29 374.77 239.92"/>
<path fill="#6f6b6d" stroke="none" d="
M 614.03 292.56
C 576.59 282.20 540.23 271.85 533.25 269.56
C 517.61 264.44 501.62 260.45 486.81 258.01
C 474.41 255.96 415.61 255.48 404.17 257.35
C 397.35 258.46 391.98 262.19 391.98 265.82
C 391.98 266.91 396.15 272.95 401.25 279.26
C 406.34 285.56 410.29 290.96 410.00 291.24
C 409.71 291.52 406.42 293.07 402.68 294.67
L 395.88 297.57
L 387.43 291.93
C 382.78 288.83 375.41 285.31 371.07 284.10
C 361.28 281.39 265.83 246.20 229.71 231.99
C 197.07 219.13 161.86 202.20 146.84 192.14
C 133.09 182.93 121.23 171.09 116.76 162.13
C 113.53 155.65 109.84 132.73 111.38 128.72
C 111.82 127.59 114.62 127.17 119.59 127.48
L 127.15 127.94
L 127.22 135.20
C 127.32 145.35 132.95 154.98 146.14 167.58
C 173.58 193.75 223.68 219.05 275.37 232.79
C 370.69 258.15 493.94 254.01 609.84 221.56
L 630.33 215.83
L 669.44 227.21
C 690.97 233.47 708.88 238.92 709.27 239.30
C 709.65 239.69 708.93 240.00 707.67 240.00
C 701.57 240.00 660.46 245.89 652.17 247.96
C 642.06 250.48 633.63 256.90 633.63 262.08
C 633.63 269.39 651.16 286.64 680.69 308.39
C 683.01 310.09 684.28 311.47 683.50 311.45
C 682.73 311.42 651.47 302.93 614.03 292.56"/>
<path fill="#6f6b6d" stroke="none" d="
M 296.06 283.54
C 283.87 269.63 274.13 258.25 274.43 258.25
C 277.49 258.25 317.60 274.64 320.00 276.88
C 321.76 278.51 325.51 283.99 328.32 289.05
C 331.13 294.11 334.33 299.64 335.42 301.32
C 337.30 304.25 337.14 304.46 331.95 305.87
C 317.69 309.70 320.52 311.47 296.06 283.54"/>
<path fill="#e05d6f" stroke="none" d="
M 269.05 387.41
L 242.35 386.67
L 255.38 384.88
C 262.53 383.90 271.94 381.77 276.28 380.15
C 289.24 375.31 292.94 370.78 306.91 342.65
L 319.48 317.33
L 326.31 315.71
C 330.05 314.81 333.36 314.32 333.66 314.61
C 333.97 314.91 328.81 323.66 322.22 334.06
C 315.62 344.48 306.80 358.41 302.60 365.04
C 294.29 378.15 294.08 380.46 300.87 383.97
C 305.67 386.44 304.93 388.90 299.52 388.46
C 297.44 388.29 283.73 387.83 269.05 387.41"/>
<path fill="#e05d6f" stroke="none" d="
M 339.13 386.36
C 339.29 386.19 345.73 385.32 353.41 384.44
C 369.09 382.61 376.81 379.45 380.53 373.35
C 381.89 371.10 386.44 355.23 390.64 338.09
L 398.27 306.91
L 404.27 304.27
C 415.75 299.19 415.54 301.60 401.55 335.92
C 386.11 373.75 386.65 379.99 405.85 384.34
L 416.12 386.67
L 377.47 386.67
C 356.22 386.67 338.97 386.53 339.13 386.36"/>
</g>
</svg>
