<?xml version="1.0" encoding="UTF-8" standalone="no"?>
<!DOCTYPE svg PUBLIC "-//W3C//DTD SVG 1.1//EN"
"http://www.w3.org/Graphics/SVG/1.1/DTD/svg11.dtd">
<svg width="639px" height="600px"
xmlns="http://www.w3.org/2000/svg" version="1.1">
<g transform="translate(0000, 0000) scale(1.0000, 1.0000)">
<path fill="#000000" stroke="none" d="
M 171.05 597.91
C 170.54 596.58 171.34 595.01 173.24 593.58
C 176.10 591.42 176.11 591.29 173.75 590.06
C 168.17 587.18 157.38 585.59 149.65 586.50
C 135.65 588.17 132.91 588.03 132.43 585.63
C 132.11 584.01 134.16 582.45 140.23 579.71
C 151.36 574.67 156.64 566.72 150.01 564.99
C 145.38 563.77 147.69 560.08 154.62 557.64
C 159.48 555.92 169.90 554.91 197.81 553.44
C 218.03 552.37 235.75 550.87 237.20 550.09
C 241.92 547.58 252.28 510.64 254.66 487.82
C 255.60 478.83 252.56 465.28 246.95 453.45
C 242.95 445.01 238.48 441.50 215.67 428.94
C 183.74 411.35 151.58 386.01 112.43 347.62
C 73.87 309.79 67.93 298.55 67.54 262.79
C 67.36 245.67 67.42 245.37 71.55 236.99
C 73.84 232.31 80.13 222.23 85.51 214.56
C 99.02 195.35 150.18 117.95 150.50 116.24
C 150.65 115.44 147.28 114.45 142.43 113.88
C 137.83 113.35 124.85 111.01 113.56 108.71
C 95.22 104.94 90.77 104.49 71.86 104.49
C 60.20 104.49 42.88 104.77 33.36 105.13
C 16.68 105.74 15.81 105.65 9.64 102.49
C 6.11 100.69 2.39 97.73 1.37 95.91
C -0.28 92.96 -0.24 92.23 1.76 89.17
C 5.90 82.86 20.48 75.36 51.48 63.59
C 58.27 61.01 66.56 57.09 69.91 54.88
C 73.24 52.67 84.43 42.26 94.77 31.76
C 121.69 4.37 129.25 0.65 157.83 0.64
C 174.38 0.64 175.49 0.81 182.85 4.40
C 211.31 18.27 226.72 61.69 216.14 98.17
C 211.69 113.51 200.99 140.21 186.55 171.91
C 179.47 187.49 174.51 200.05 174.51 202.44
C 174.51 213.50 181.06 219.23 193.73 219.23
C 201.68 219.23 233.56 223.64 250.12 227.03
C 292.03 235.60 329.87 249.74 364.01 269.59
C 373.31 275.00 402.19 292.62 428.17 308.73
C 519.23 365.26 541.46 377.06 586.39 392.85
C 602.06 398.35 605.06 399.82 605.39 402.17
C 605.65 403.97 604.83 405.47 603.02 406.44
C 601.49 407.26 587.82 409.29 572.61 410.97
C 557.42 412.65 544.78 414.23 544.54 414.46
C 544.30 414.71 564.09 423.21 588.51 433.36
C 612.93 443.51 634.28 452.88 635.96 454.21
C 639.56 457.04 639.86 460.36 636.75 463.18
C 632.69 466.85 620.60 471.71 608.56 474.49
L 596.75 477.22
L 575.20 472.40
C 563.36 469.76 548.77 466.49 542.77 465.14
C 526.84 461.58 511.73 461.67 494.01 465.42
C 481.53 468.08 475.88 468.55 457.44 468.49
C 442.53 468.42 432.77 467.77 426.64 466.38
C 421.70 465.28 417.39 464.64 417.06 464.95
C 415.45 466.47 409.26 529.26 408.50 551.63
C 408.00 566.65 407.07 577.74 406.24 578.87
C 404.88 580.72 322.67 599.92 315.93 599.97
C 311.67 600.01 310.77 596.29 314.38 593.58
C 317.24 591.42 317.25 591.29 314.89 590.05
C 309.67 587.29 297.90 585.56 290.46 586.45
C 275.72 588.21 273.95 588.08 273.95 585.26
C 273.95 583.37 275.45 582.18 279.62 580.77
C 290.28 577.15 297.89 566.74 291.16 564.99
C 286.65 563.81 288.76 559.91 295.13 557.60
C 299.29 556.10 310.00 555.09 333.61 553.94
C 372.81 552.04 375.28 551.55 377.88 545.31
C 380.31 539.51 380.32 524.51 377.91 511.00
C 374.28 490.68 364.76 477.91 347.16 469.78
C 336.94 465.06 311.99 457.42 310.26 458.49
C 306.50 460.81 291.04 485.24 287.93 493.77
C 268.62 546.85 267.01 552.23 267.76 561.19
C 268.60 571.29 266.22 578.72 261.50 580.74
C 257.64 582.40 178.24 600.00 174.63 600.00
C 173.11 600.00 171.50 599.06 171.05 597.91
M 217.31 582.09
C 234.62 577.88 250.83 573.60 253.30 572.56
C 258.36 570.46 259.82 566.91 258.17 560.90
C 257.23 557.51 256.46 557.00 251.79 556.65
C 248.52 556.42 245.30 557.05 243.37 558.31
C 240.87 559.95 232.58 560.69 201.31 562.13
C 163.87 563.83 162.29 564.00 160.10 566.71
C 158.85 568.26 157.83 570.49 157.83 571.68
C 157.83 572.87 157.13 574.54 156.29 575.38
C 154.30 577.37 152.23 577.59 184.04 572.44
C 215.30 567.37 220.43 567.03 221.55 569.96
C 221.97 571.06 221.74 572.55 221.03 573.26
C 220.01 574.28 178.57 581.56 170.66 582.12
C 169.60 582.19 170.46 582.86 172.58 583.62
C 174.70 584.36 177.87 586.03 179.64 587.32
C 181.41 588.60 183.51 589.68 184.33 589.71
C 185.14 589.73 199.99 586.31 217.31 582.09
M 361.86 581.27
L 396.74 572.78
L 398.54 568.49
C 399.53 566.12 400.34 562.45 400.34 560.33
C 400.34 556.78 400.09 556.56 397.22 557.65
C 395.50 558.31 392.13 558.53 389.70 558.13
C 387.28 557.73 384.02 558.09 382.46 558.92
C 380.73 559.86 365.04 561.10 341.58 562.17
C 305.01 563.82 303.44 564.00 301.25 566.71
C 300.00 568.26 298.97 570.49 298.97 571.68
C 298.97 572.87 298.28 574.54 297.43 575.38
C 295.44 577.37 293.38 577.59 325.18 572.44
C 356.44 567.37 361.57 567.03 362.69 569.96
C 363.11 571.06 362.88 572.55 362.18 573.26
C 361.15 574.28 319.72 581.56 311.80 582.12
C 310.75 582.19 311.61 582.86 313.73 583.62
C 315.84 584.36 319.01 586.03 320.78 587.32
C 322.55 588.60 324.66 589.68 325.49 589.71
C 326.31 589.73 342.67 585.92 361.86 581.27
M 397.07 552.36
C 400.20 550.94 400.34 550.41 400.34 539.85
C 400.34 529.86 403.21 499.51 404.80 492.78
C 405.43 490.10 405.33 490.09 400.00 491.94
C 396.83 493.04 392.01 493.59 388.47 493.26
C 385.12 492.94 382.37 492.74 382.39 492.82
C 382.40 492.88 383.34 495.83 384.48 499.36
C 386.00 504.05 386.66 511.92 386.93 528.79
C 387.28 549.69 387.53 551.91 389.65 552.74
C 392.96 554.05 393.41 554.03 397.07 552.36
M 266.83 523.72
C 272.28 508.91 277.98 494.37 279.52 491.40
C 283.29 484.05 283.07 483.33 277.12 483.33
C 274.27 483.33 270.02 482.53 267.67 481.55
L 263.40 479.77
L 262.63 491.49
C 261.89 502.91 257.56 521.36 251.11 540.68
C 249.40 545.77 248.34 550.27 248.75 550.67
C 249.15 551.08 251.16 551.23 253.20 551.03
C 256.82 550.65 257.22 549.86 266.83 523.72
M 398.05 487.13
C 404.80 485.24 406.29 483.24 407.27 474.59
C 408.33 465.19 406.66 459.92 399.12 448.82
C 394.85 442.53 393.84 440.14 394.83 438.58
C 397.13 434.95 400.09 436.38 405.10 443.55
C 411.77 453.10 416.22 455.76 429.58 458.22
C 450.35 462.03 463.67 462.23 482.01 459.03
C 503.39 455.28 503.18 455.36 498.50 452.96
C 487.49 447.31 480.83 436.77 480.65 424.68
L 480.53 416.67
L 472.19 416.65
C 446.03 416.62 385.29 408.46 346.68 399.81
C 323.64 394.64 276.31 381.76 262.25 376.81
C 245.67 370.99 225.84 361.35 213.17 352.96
C 186.72 335.47 165.06 305.09 167.31 288.65
C 169.28 274.27 181.09 259.12 197.44 250.00
C 201.86 247.53 206.31 244.74 207.34 243.79
C 209.47 241.82 229.35 233.44 232.25 233.27
C 236.97 233.01 227.91 230.94 213.63 228.99
C 204.79 227.78 195.65 227.24 192.15 227.72
C 185.05 228.69 176.47 225.97 172.17 221.41
C 168.81 217.83 165.52 208.78 165.52 203.12
L 165.52 198.86
L 159.43 201.64
C 154.95 203.68 150.78 204.42 143.71 204.45
C 131.82 204.50 123.33 200.83 118.23 193.45
C 116.37 190.76 114.49 188.54 114.06 188.51
C 113.19 188.45 85.58 229.47 80.25 238.78
C 75.94 246.29 74.83 258.74 76.82 277.56
C 77.98 288.51 78.95 291.96 83.54 301.23
C 88.36 310.92 91.06 314.22 108.94 332.10
C 137.44 360.63 190.75 404.58 213.21 418.08
C 239.19 433.68 247.66 436.54 300.25 447.47
C 317.54 451.06 335.62 455.37 340.43 457.03
C 351.96 461.03 364.27 469.18 372.58 478.36
C 381.67 488.38 386.94 490.21 398.05 487.13
M 286.78 475.32
C 287.91 473.73 291.03 468.71 293.72 464.15
L 298.62 455.87
L 285.00 453.06
C 277.52 451.53 267.94 449.36 263.74 448.26
C 259.54 447.15 255.84 446.50 255.55 446.79
C 255.25 447.10 255.98 450.10 257.18 453.47
C 258.37 456.86 259.96 462.21 260.71 465.38
C 261.45 468.56 262.71 471.96 263.52 472.95
C 265.90 475.92 272.29 478.10 278.70 478.15
C 283.53 478.19 285.14 477.63 286.78 475.32
M 608.26 466.15
C 615.62 464.40 628.25 459.31 627.32 458.46
C 626.26 457.49 566.90 433.19 544.05 424.38
L 520.31 415.23
L 503.28 416.13
C 486.92 416.97 486.24 417.13 485.52 419.97
C 484.37 424.55 487.32 435.95 490.85 440.56
C 495.69 446.90 508.62 452.68 520.68 453.90
C 533.81 455.22 558.43 459.46 579.33 464.00
C 599.24 468.32 599.24 468.32 608.26 466.15
M 548.54 405.64
C 561.24 404.62 574.75 403.35 578.56 402.85
L 585.49 401.92
L 570.87 396.29
C 552.36 389.17 526.26 377.15 511.33 368.88
C 498.38 361.72 480.29 350.71 415.09 310.28
C 390.39 294.97 365.51 279.77 359.82 276.49
C 337.81 263.86 304.06 249.83 274.71 241.12
C 262.49 237.50 261.19 237.36 250.56 238.53
C 238.73 239.83 225.38 243.44 218.58 247.15
C 216.35 248.36 210.52 251.55 205.61 254.23
C 187.14 264.31 175.78 278.32 175.80 290.96
C 175.84 306.44 194.50 331.09 217.97 346.68
C 227.78 353.21 252.11 365.13 262.40 368.47
C 308.86 383.55 360.16 395.79 402.44 401.90
C 452.57 409.13 493.08 410.17 548.54 405.64
M 160.17 195.31
L 167.45 191.67
L 177.97 170.64
C 190.52 145.53 205.24 108.94 209.19 92.95
C 217.02 61.38 203.40 23.42 180.19 12.08
C 170.98 7.58 154.55 6.41 142.79 9.42
C 128.65 13.04 119.74 18.53 107.31 31.27
C 101.03 37.69 93.67 45.74 90.94 49.15
C 86.11 55.19 85.97 55.64 85.97 65.58
C 85.97 79.54 87.93 86.46 93.54 92.24
C 98.08 96.94 98.58 97.10 121.90 101.65
C 138.37 104.87 147.46 106.06 151.58 105.56
C 156.58 104.95 157.98 105.28 160.37 107.67
C 162.00 109.29 162.93 111.49 162.59 112.82
C 162.25 114.10 152.03 130.21 139.86 148.62
C 118.60 180.77 117.80 182.21 119.27 185.76
C 124.89 199.32 143.47 203.65 160.17 195.31
M 73.54 95.33
C 82.20 94.69 83.44 94.29 82.67 92.49
C 79.22 84.40 77.86 78.96 77.31 70.90
L 76.65 61.67
L 67.67 66.19
C 62.73 68.68 49.73 74.14 38.81 78.33
C 27.88 82.51 18.00 86.49 16.85 87.17
C 15.06 88.21 15.15 88.38 17.53 88.42
C 19.04 88.45 31.44 87.27 45.06 85.82
C 69.64 83.19 75.70 83.46 75.70 87.18
C 75.70 89.56 69.07 91.28 48.12 94.35
L 27.59 97.33
L 45.55 96.71
C 55.43 96.37 68.03 95.74 73.54 95.33"/>
<path fill="#000000" stroke="none" d="
M 133.34 55.23
C 130.57 52.45 129.60 50.27 129.60 46.79
C 129.60 40.28 135.27 34.62 141.79 34.62
C 148.30 34.62 153.98 40.28 153.98 46.79
C 153.98 53.31 148.30 58.97 141.79 58.97
C 138.31 58.97 136.13 58.00 133.34 55.23
M 147.56 52.56
C 148.97 51.15 150.13 48.56 150.13 46.79
C 150.13 43.62 146.16 38.46 143.71 38.46
C 141.81 38.46 142.16 40.49 144.35 42.31
C 145.42 43.18 146.28 45.21 146.28 46.79
C 146.28 48.38 145.42 50.41 144.35 51.28
C 143.29 52.15 142.43 53.38 142.43 54.00
C 142.43 55.92 144.88 55.24 147.56 52.56"/>
<path fill="#726262" stroke="none" d="
M 132.98 198.21
C 127.07 196.00 121.38 190.83 119.27 185.76
C 117.80 182.21 118.60 180.77 139.86 148.62
C 152.03 130.21 162.25 114.10 162.59 112.82
C 162.93 111.49 162.00 109.29 160.37 107.67
C 157.98 105.28 156.58 104.95 151.58 105.56
C 147.46 106.06 138.37 104.87 121.90 101.65
C 98.58 97.10 98.08 96.94 93.54 92.24
C 87.93 86.46 85.97 79.54 85.97 65.58
C 85.97 55.64 86.11 55.19 90.94 49.15
C 93.67 45.74 101.11 37.62 107.48 31.09
C 116.75 21.59 120.91 18.36 128.49 14.76
C 145.93 6.49 166.61 5.44 180.29 12.13
C 197.58 20.58 209.27 42.62 211.27 70.51
C 211.90 79.36 211.51 83.59 209.19 92.95
C 205.24 108.94 190.52 145.53 177.97 170.64
L 167.45 191.67
L 160.17 195.31
C 151.35 199.72 140.23 200.90 132.98 198.21
M 150.23 55.23
C 153.00 52.45 153.98 50.27 153.98 46.79
C 153.98 40.28 148.30 34.62 141.79 34.62
C 135.27 34.62 129.60 40.28 129.60 46.79
C 129.60 53.31 135.27 58.97 141.79 58.97
C 145.26 58.97 147.44 58.00 150.23 55.23"/>
<path fill="#eb2e00" stroke="none" d="
M 142.43 54.00
C 142.43 53.38 143.29 52.15 144.35 51.28
C 146.85 49.22 146.80 45.03 144.26 42.22
C 141.31 38.95 144.34 37.81 147.51 40.97
C 150.83 44.29 150.86 49.27 147.56 52.56
C 144.88 55.24 142.43 55.92 142.43 54.00"/>
<path fill="#585252" stroke="none" d="
M 48.12 94.35
C 69.07 91.28 75.70 89.56 75.70 87.18
C 75.70 83.46 69.64 83.19 45.06 85.82
C 31.44 87.27 19.04 88.45 17.53 88.42
C 15.15 88.38 15.06 88.21 16.85 87.17
C 18.00 86.49 27.90 82.51 38.83 78.32
C 49.77 74.13 62.24 68.92 66.53 66.76
C 70.83 64.59 74.87 62.82 75.50 62.82
C 76.13 62.82 76.94 66.72 77.31 71.47
C 77.89 79.04 79.31 84.60 82.67 92.49
C 83.70 94.90 77.49 95.60 45.55 96.71
L 27.59 97.33
L 48.12 94.35"/>
<path fill="#c8b29a" stroke="none" d="
M 382.45 487.05
C 380.73 486.36 376.29 482.45 372.58 478.36
C 364.27 469.18 351.96 461.03 340.43 457.03
C 335.62 455.37 317.54 451.06 300.25 447.47
C 247.66 436.54 239.19 433.68 213.21 418.08
C 190.75 404.58 137.44 360.63 108.94 332.10
C 91.06 314.22 88.36 310.92 83.54 301.23
C 78.95 291.96 77.98 288.51 76.82 277.56
C 76.08 270.51 75.76 260.26 76.10 254.76
C 76.68 245.88 77.36 243.76 82.24 235.53
C 89.11 223.96 111.62 190.68 113.35 189.54
C 114.06 189.06 116.21 190.86 118.15 193.53
C 123.48 200.87 131.96 204.50 143.71 204.45
C 150.78 204.42 154.95 203.68 159.43 201.64
L 165.52 198.86
L 165.52 203.12
C 165.52 208.78 168.81 217.83 172.17 221.41
C 176.47 225.97 185.05 228.69 192.15 227.72
C 195.65 227.24 204.79 227.78 213.63 228.99
C 227.91 230.94 236.97 233.01 232.25 233.27
C 229.35 233.44 209.47 241.82 207.34 243.79
C 206.31 244.74 201.86 247.53 197.44 250.00
C 181.09 259.12 169.28 274.27 167.31 288.65
C 165.78 299.83 175.93 319.12 191.83 335.23
C 208.39 352.03 232.91 366.50 262.25 376.81
C 276.31 381.76 323.64 394.64 346.68 399.81
C 385.29 408.46 446.03 416.62 472.19 416.65
L 480.53 416.67
L 480.65 424.68
C 480.83 436.77 487.49 447.31 498.50 452.96
C 503.18 455.36 503.39 455.28 482.01 459.03
C 463.67 462.23 450.35 462.03 429.58 458.22
C 416.22 455.76 411.77 453.10 405.10 443.55
C 400.09 436.38 397.13 434.95 394.83 438.58
C 393.84 440.14 394.85 442.53 399.12 448.82
C 406.66 459.92 408.33 465.19 407.27 474.59
C 406.79 478.78 405.60 483.03 404.61 484.01
C 400.75 487.86 388.65 489.53 382.45 487.05"/>
<path fill="#c8b29a" stroke="none" d="
M 268.82 476.42
C 263.74 474.22 262.32 472.29 260.71 465.38
C 259.96 462.21 258.37 456.86 257.18 453.47
C 255.98 450.10 255.25 447.10 255.55 446.79
C 255.84 446.50 259.54 447.15 263.74 448.26
C 267.94 449.36 277.52 451.53 285.00 453.06
L 298.62 455.87
L 293.72 464.15
C 285.37 478.28 285.45 478.21 278.70 478.15
C 275.39 478.13 270.93 477.35 268.82 476.42"/>
<path fill="#8f7350" stroke="none" d="
M 445.94 407.01
C 406.61 403.56 368.02 397.13 330.71 387.81
C 313.39 383.49 276.32 372.99 262.40 368.47
C 252.11 365.13 227.78 353.21 217.97 346.68
C 194.50 331.09 175.84 306.44 175.80 290.96
C 175.78 278.32 187.14 264.31 205.61 254.23
C 210.52 251.55 216.35 248.36 218.58 247.15
C 225.61 243.31 238.91 239.77 250.80 238.59
C 261.58 237.51 263.11 237.68 274.96 241.19
C 292.93 246.53 320.44 256.91 336.08 264.26
C 353.75 272.55 362.01 277.37 415.09 310.28
C 480.29 350.71 498.38 361.72 511.33 368.88
C 526.26 377.15 552.36 389.17 570.87 396.29
L 585.49 401.92
L 578.56 402.85
C 542.71 407.60 476.43 409.68 445.94 407.01"/>
<path fill="#52586a" stroke="none" d="
M 579.33 464.00
C 558.43 459.46 533.81 455.22 520.68 453.90
C 508.62 452.68 495.69 446.90 490.85 440.56
C 487.32 435.95 484.37 424.55 485.52 419.99
C 486.23 417.15 486.94 417.01 503.31 416.15
L 520.36 415.27
L 544.07 424.40
C 566.82 433.15 626.26 457.47 627.32 458.46
C 628.25 459.31 615.62 464.40 608.26 466.15
C 599.24 468.32 599.24 468.32 579.33 464.00"/>
<path fill="#212129" stroke="none" d="
M 389.65 552.74
C 387.53 551.91 387.28 549.69 386.93 528.79
C 386.66 511.92 386.00 504.05 384.48 499.36
C 383.34 495.83 382.40 492.88 382.39 492.82
C 382.37 492.74 385.12 492.94 388.47 493.26
C 392.01 493.59 396.83 493.04 400.00 491.94
C 405.33 490.09 405.43 490.10 404.80 492.78
C 403.21 499.51 400.34 529.86 400.34 539.85
C 400.34 550.41 400.20 550.94 397.07 552.36
C 393.41 554.03 392.96 554.05 389.65 552.74"/>
<path fill="#212129" stroke="none" d="
M 248.75 550.67
C 248.34 550.27 249.67 544.91 251.71 538.76
C 257.95 519.86 261.99 502.42 262.72 491.24
C 263.38 481.12 263.56 480.62 266.12 481.41
C 267.60 481.88 271.84 482.58 275.55 482.96
C 279.26 483.33 282.29 484.18 282.29 484.82
C 282.29 485.47 281.04 488.42 279.52 491.40
C 277.98 494.37 272.28 508.91 266.83 523.72
C 257.22 549.86 256.82 550.65 253.20 551.03
C 251.16 551.23 249.15 551.08 248.75 550.67"/>
<path fill="#d54343" stroke="none" d="
M 179.64 587.32
C 177.87 586.03 174.70 584.36 172.58 583.62
C 170.46 582.86 169.60 582.19 170.66 582.12
C 178.57 581.56 220.01 574.28 221.03 573.26
C 221.74 572.55 221.97 571.06 221.55 569.96
C 220.43 567.03 215.30 567.37 184.04 572.44
C 152.23 577.59 154.30 577.37 156.29 575.38
C 157.13 574.54 157.83 572.87 157.83 571.68
C 157.83 570.49 158.85 568.26 160.10 566.71
C 162.29 564.00 163.87 563.83 201.12 562.13
C 231.50 560.74 240.72 559.92 243.83 558.32
C 246.01 557.19 249.89 556.44 252.44 556.65
C 256.38 556.99 257.27 557.64 258.17 560.90
C 259.82 566.91 258.36 570.46 253.30 572.56
C 248.77 574.46 187.11 589.78 184.33 589.71
C 183.51 589.68 181.41 588.60 179.64 587.32"/>
<path fill="#d54343" stroke="none" d="
M 320.78 587.32
C 319.01 586.03 315.84 584.36 313.73 583.62
C 311.61 582.86 310.75 582.19 311.80 582.12
C 319.72 581.56 361.15 574.28 362.18 573.26
C 362.88 572.55 363.11 571.06 362.69 569.96
C 361.57 567.03 356.44 567.37 325.18 572.44
C 293.38 577.59 295.44 577.37 297.43 575.38
C 298.28 574.54 298.97 572.87 298.97 571.68
C 298.97 570.49 300.00 568.26 301.25 566.71
C 303.44 564.00 305.01 563.82 341.58 562.17
C 365.04 561.10 380.73 559.86 382.46 558.92
C 384.02 558.09 387.28 557.73 389.70 558.13
C 392.13 558.53 395.50 558.31 397.22 557.65
C 400.09 556.56 400.34 556.78 400.34 560.33
C 400.34 562.45 399.53 566.12 398.54 568.49
L 396.74 572.78
L 361.86 581.27
C 342.67 585.92 326.31 589.73 325.49 589.71
C 324.66 589.68 322.55 588.60 320.78 587.32"/>
</g>
</svg>
