<?xml version="1.0" encoding="UTF-8" standalone="no"?>
<!DOCTYPE svg PUBLIC "-//W3C//DTD SVG 1.1//EN"
"http://www.w3.org/Graphics/SVG/1.1/DTD/svg11.dtd">
<svg width="748px" height="600px"
xmlns="http://www.w3.org/2000/svg" version="1.1">
<g transform="translate(0000, 0000) scale(1.0000, 1.0000)">
<path fill="#000000" stroke="none" d="
M 209.81 594.74
C 205.36 590.89 203.01 589.69 201.02 590.26
C 181.43 595.87 179.82 595.92 170.85 591.39
L 164.03 587.95
L 155.62 591.39
C 145.50 595.55 144.30 595.59 135.23 592.13
L 128.13 589.41
L 119.72 592.77
C 109.64 596.80 109.07 596.83 100.61 593.61
C 94.35 591.23 93.35 591.19 83.07 592.98
C 77.07 594.03 71.62 594.54 70.96 594.14
C 68.86 592.84 69.66 587.63 72.67 583.10
C 78.38 574.49 95.53 569.46 107.63 572.84
C 112.86 574.30 113.58 574.18 118.04 571.17
C 125.34 566.22 129.11 565.87 137.79 569.41
L 145.41 572.49
L 153.73 569.38
C 161.92 566.32 162.18 566.31 169.84 568.41
C 174.13 569.59 179.60 571.69 182.01 573.08
L 186.38 575.60
L 189.36 572.80
C 191.00 571.26 195.42 569.01 199.20 567.78
L 206.03 565.55
L 208.88 546.97
C 210.46 536.75 212.36 521.50 213.10 513.07
C 214.37 498.61 214.28 497.12 211.30 485.97
C 209.58 479.50 207.52 469.87 206.74 464.59
C 203.36 441.79 185.26 389.38 170.79 360.44
C 165.52 349.90 162.26 340.75 160.90 332.66
C 159.53 324.49 148.84 310.46 116.31 274.19
C 91.10 246.09 78.26 229.01 69.40 211.82
C 55.22 184.28 54.34 174.70 62.95 141.29
C 65.87 129.94 68.95 116.92 69.76 112.35
C 71.25 104.06 71.25 104.03 66.42 94.54
C 63.77 89.30 60.46 84.43 59.08 83.68
C 57.68 82.94 49.09 81.85 39.97 81.24
C 28.05 80.45 22.44 79.52 20.05 77.96
C 16.91 75.91 16.59 75.92 14.04 78.22
C 12.56 79.55 10.22 82.86 8.84 85.57
C 7.45 88.27 5.62 90.27 4.78 89.99
C 3.93 89.72 2.40 86.93 1.40 83.78
C -0.09 79.16 -0.18 75.97 0.97 66.94
C 2.53 54.58 5.48 47.68 12.56 39.86
C 18.34 33.46 22.49 31.25 32.00 29.52
C 39.20 28.22 58.70 19.57 66.53 14.23
C 72.69 10.03 96.74 2.81 109.97 1.20
C 137.77 -2.19 164.26 4.94 178.71 19.72
C 191.55 32.86 197.36 49.55 199.01 78.06
C 200.14 97.48 201.53 104.25 205.10 107.46
C 206.34 108.58 211.48 110.99 216.51 112.80
C 249.75 124.77 318.66 162.65 374.00 199.35
C 423.72 232.35 443.70 249.32 494.49 301.77
C 514.17 322.09 539.90 348.30 551.67 360.00
C 576.02 384.25 577.42 385.23 635.61 418.99
C 697.67 455.01 714.75 466.09 728.49 479.30
C 742.47 492.72 748.00 500.52 748.00 506.79
C 748.00 513.07 746.04 515.85 740.39 517.54
C 736.24 518.77 734.22 518.63 728.45 516.75
C 718.83 513.57 669.88 488.57 638.84 470.94
C 603.09 450.65 600.23 449.08 598.92 449.06
C 596.19 449.01 604.15 455.66 627.85 473.30
C 658.20 495.87 700.02 528.68 707.73 535.99
C 713.74 541.66 718.29 549.23 718.29 553.50
C 718.29 557.61 713.71 561.29 708.60 561.29
C 703.21 561.29 698.91 565.02 698.91 569.68
C 698.91 574.71 694.34 578.49 689.41 577.51
C 681.17 575.86 680.37 576.01 679.56 579.34
C 678.51 583.64 673.04 585.56 667.63 583.52
C 662.63 581.64 661.10 582.75 659.00 589.73
C 658.14 592.62 656.56 595.30 655.51 595.70
C 651.16 597.38 623.99 585.06 607.20 573.81
C 591.05 562.98 458.53 461.91 450.22 454.08
C 445.96 450.06 440.65 445.86 438.43 444.72
C 431.29 441.11 415.95 437.50 393.40 434.14
C 381.31 432.34 366.83 429.69 361.21 428.26
C 347.90 424.86 346.81 425.66 348.73 437.52
C 349.48 442.08 350.09 450.62 350.09 456.49
C 350.10 472.61 346.64 478.71 337.45 478.71
C 333.90 478.71 331.20 477.06 319.88 467.95
C 317.38 465.94 314.77 464.65 314.07 465.07
C 313.37 465.50 312.14 469.17 311.34 473.25
C 310.54 477.32 308.62 484.13 307.08 488.39
C 304.51 495.55 304.30 498.41 304.45 526.58
C 304.57 554.13 304.85 557.60 307.20 562.93
C 310.48 570.34 313.62 572.35 324.79 574.28
C 339.18 576.76 354.23 575.26 364.71 570.30
C 377.76 564.13 387.00 565.82 394.41 575.74
C 397.45 579.81 398.73 589.59 396.71 593.35
C 394.72 597.06 392.03 596.83 384.34 592.26
C 380.78 590.15 377.17 588.43 376.30 588.41
C 375.43 588.40 371.71 591.07 368.02 594.34
L 361.31 600.30
L 341.17 599.17
C 316.43 597.81 269.34 597.74 238.75 599.03
L 215.90 600.00
L 209.81 594.74
M 278.40 591.86
C 301.85 591.72 328.95 592.08 338.64 592.65
L 356.26 593.68
L 362.26 588.49
C 365.55 585.64 370.46 582.65 373.16 581.85
C 377.45 580.55 378.79 580.72 383.60 583.17
C 386.62 584.72 389.48 585.63 389.92 585.17
C 391.57 583.54 386.73 577.34 381.97 575.01
L 377.05 572.61
L 367.97 576.79
C 360.03 580.44 357.13 581.05 345.13 581.61
C 329.73 582.34 314.16 580.40 308.50 577.07
C 306.38 575.81 303.45 572.06 301.71 568.40
C 298.93 562.53 298.57 559.60 297.83 536.77
C 297.35 522.04 297.57 506.37 298.36 498.97
C 299.94 484.25 299.41 482.62 290.17 473.64
L 284.28 467.91
L 280.91 475.54
C 277.29 483.70 277.29 483.10 281.00 503.87
C 282.61 512.90 283.34 523.95 283.44 540.65
C 283.56 562.09 283.31 565.05 280.98 569.68
C 276.68 578.26 273.14 579.24 244.77 579.65
C 221.97 579.97 219.66 579.79 211.57 577.01
C 201.74 573.60 199.14 573.99 194.48 579.52
C 189.87 585.01 190.37 585.99 196.65 583.77
C 203.81 581.25 208.12 582.35 215.29 588.55
C 221.02 593.51 221.38 593.63 228.47 592.86
C 232.49 592.44 254.95 591.99 278.40 591.86
M 109.20 587.05
C 110.73 584.57 106.10 579.51 101.53 578.65
C 96.06 577.63 84.15 580.90 79.93 584.59
L 76.87 587.28
L 80.15 586.58
C 90.12 584.48 97.73 584.39 102.06 586.30
C 107.52 588.70 108.13 588.76 109.20 587.05
M 182.98 586.44
C 184.45 582.62 175.90 576.61 166.54 574.85
C 158.75 573.39 147.46 579.50 152.35 582.53
C 153.01 582.93 156.18 582.57 159.38 581.70
C 164.88 580.25 165.61 580.37 172.71 584.14
C 181.60 588.88 182.01 588.97 182.98 586.44
M 145.48 585.06
C 145.04 583.94 144.69 582.27 144.69 581.35
C 144.69 580.45 141.09 578.39 136.69 576.79
C 128.92 573.96 128.57 573.94 124.45 576.15
C 114.73 581.38 113.78 586.85 123.16 583.47
C 128.49 581.56 129.14 581.60 135.13 584.17
C 143.02 587.56 146.55 587.86 145.48 585.06
M 652.89 582.18
C 654.64 576.10 660.37 573.29 666.50 575.50
C 670.53 576.95 671.17 576.88 672.37 574.81
C 675.58 569.26 678.39 567.47 682.57 568.30
C 691.02 569.99 691.79 569.85 692.16 566.45
C 693.03 558.77 693.91 557.21 698.50 555.30
C 701.05 554.23 704.49 553.69 706.12 554.10
C 710.52 555.21 711.16 552.68 707.74 547.65
C 704.19 542.40 667.93 513.20 627.44 482.98
C 611.68 471.23 594.72 457.46 589.74 452.39
C 576.71 439.12 558.42 430.06 538.39 426.95
C 529.89 425.64 529.53 425.70 525.60 429.01
C 513.23 439.39 495.13 444.12 457.33 446.77
L 452.80 447.10
L 466.37 457.66
C 501.87 485.30 602.62 561.35 612.64 568.06
C 624.92 576.28 646.74 587.26 649.77 586.76
C 650.81 586.58 652.22 584.52 652.89 582.18
M 268.60 571.14
C 270.31 570.34 272.92 568.04 274.41 566.03
C 276.90 562.66 277.11 560.72 277.03 540.86
C 276.93 512.13 273.00 489.97 266.06 479.05
L 262.45 473.34
L 261.53 479.57
C 260.28 488.05 258.80 491.61 256.53 491.61
C 255.48 491.61 254.04 490.59 253.31 489.35
C 252.21 487.47 251.99 487.75 251.96 491.11
C 251.93 493.32 249.86 501.34 247.34 508.93
C 243.62 520.17 232.54 568.08 232.54 572.95
C 232.54 574.67 264.46 573.07 268.60 571.14
M 230.82 545.81
C 233.86 531.25 238.44 512.00 241.00 502.99
C 245.44 487.41 246.27 480.35 243.58 480.89
C 242.91 481.03 241.66 483.51 240.81 486.41
C 239.08 492.28 236.88 495.48 234.58 495.48
C 233.74 495.48 229.70 492.49 225.60 488.85
L 218.15 482.21
L 219.21 487.24
C 220.99 495.65 219.75 519.47 216.33 542.58
C 214.53 554.65 212.94 565.63 212.79 566.97
C 212.59 568.71 213.82 569.90 217.04 571.08
C 219.53 571.99 222.40 572.63 223.42 572.49
C 224.76 572.32 226.83 564.85 230.82 545.81
M 740.17 509.12
C 742.56 506.25 739.14 501.01 726.34 487.97
C 711.56 472.93 687.81 457.63 609.77 412.85
C 568.79 389.33 563.75 385.19 519.12 338.28
C 444.39 259.74 423.04 240.92 366.25 203.54
C 352.75 194.65 331.86 181.51 319.82 174.34
L 297.95 161.29
L 289.28 161.29
C 266.70 161.29 235.01 166.43 213.59 173.55
C 197.52 178.90 187.13 184.05 175.85 192.23
C 157.98 205.21 155.99 218.90 168.15 245.14
C 177.84 266.04 190.76 283.64 211.78 304.55
C 251.50 344.09 294.10 367.33 357.21 383.91
C 379.94 389.88 443.72 402.63 479.29 408.32
C 506.06 412.59 527.24 416.89 553.47 423.35
C 559.09 424.74 570.13 428.98 578.01 432.79
C 585.88 436.59 595.66 440.65 599.74 441.82
C 603.81 442.98 610.75 446.04 615.14 448.61
C 653.12 470.84 718.73 505.59 731.21 510.06
C 734.84 511.37 738.63 510.97 740.17 509.12
M 235.76 476.18
C 239.01 466.39 244.84 466.14 250.65 475.54
C 252.23 478.06 253.66 479.96 253.87 479.74
C 254.06 479.54 254.89 475.05 255.70 469.77
L 257.18 460.18
L 251.96 449.30
C 235.76 415.57 203.32 369.42 174.80 339.50
C 168.31 332.68 167.96 332.48 168.73 336.13
C 169.18 338.26 173.25 347.90 177.76 357.55
C 195.19 394.77 209.27 436.72 213.78 464.76
C 214.39 468.54 215.81 470.45 220.65 474.00
C 224.03 476.48 227.86 479.69 229.18 481.15
C 232.29 484.58 233.18 483.91 235.76 476.18
M 282.96 461.28
C 286.04 460.30 289.83 462.50 297.93 469.96
L 303.49 475.07
L 304.32 471.41
C 307.00 459.55 307.73 457.90 310.85 456.46
C 314.92 454.62 319.13 456.70 329.92 465.88
C 334.09 469.45 338.16 472.15 338.96 471.88
C 339.77 471.63 341.19 469.14 342.14 466.35
C 343.83 461.37 343.72 454.43 341.60 433.39
C 340.82 425.74 341.02 424.55 343.47 422.10
C 346.90 418.68 351.30 418.63 364.09 421.86
C 369.54 423.23 382.14 425.56 392.09 427.03
C 417.37 430.79 429.41 433.33 439.89 437.10
C 448.18 440.09 450.10 440.30 463.14 439.59
C 485.94 438.35 502.01 434.54 513.94 427.57
C 517.79 425.32 519.17 423.83 518.28 422.94
C 517.55 422.22 500.19 418.84 479.71 415.43
C 377.62 398.45 323.37 384.59 283.67 365.33
C 231.92 340.22 185.53 297.21 164.28 254.65
C 156.14 238.32 154.38 231.86 154.38 218.06
C 154.39 203.47 156.59 198.23 166.28 189.70
C 187.44 171.07 226.26 158.30 274.53 154.05
L 283.57 153.25
L 255.15 139.05
C 239.52 131.23 222.36 123.10 217.04 120.99
C 194.32 112.00 194.16 111.73 192.54 81.54
C 191.65 64.89 190.82 59.34 188.01 50.93
C 179.87 26.63 165.17 13.85 139.20 8.49
C 127.65 6.12 121.33 5.96 109.91 7.82
C 99.47 9.51 74.06 17.65 72.72 19.73
C 72.16 20.58 71.01 24.70 70.15 28.86
L 68.57 36.43
L 74.33 43.50
C 77.50 47.38 80.10 51.59 80.10 52.84
C 80.10 54.09 77.50 61.05 74.32 68.31
L 68.53 81.50
L 72.68 89.46
C 78.49 100.65 78.21 110.05 71.26 137.42
C 62.62 171.48 62.80 181.15 72.45 201.29
C 82.44 222.13 94.95 238.74 130.74 278.58
C 139.77 288.63 151.33 302.40 156.42 309.17
C 161.52 315.95 168.56 323.61 172.08 326.23
C 178.76 331.17 200.10 355.39 214.35 374.19
C 232.87 398.63 253.16 432.45 263.48 456.13
C 266.58 463.23 269.98 470.36 271.04 471.99
C 272.95 474.93 272.96 474.93 276.62 468.53
C 278.63 465.01 281.49 461.74 282.96 461.28
M 25.86 61.28
L 32.68 57.82
L 29.38 55.05
C 25.26 51.56 23.25 47.65 23.25 43.07
L 23.25 39.52
L 19.26 43.30
C 13.15 49.11 9.55 57.50 7.12 71.57
L 6.24 76.68
L 12.63 70.71
C 16.16 67.42 22.10 63.17 25.86 61.28
M 67.16 65.05
L 72.29 53.95
L 66.38 46.71
C 60.23 39.16 59.97 37.75 62.79 27.48
C 63.52 24.83 63.08 24.92 55.36 29.10
C 47.80 33.19 44.13 34.52 34.60 36.66
C 29.56 37.79 27.85 41.61 30.28 46.30
C 32.39 50.36 37.90 52.90 44.66 52.90
C 53.91 52.90 56.03 56.88 48.12 59.42
C 39.13 62.31 24.55 68.74 24.55 69.81
C 24.55 73.15 30.72 74.26 58.47 75.92
C 61.74 76.12 62.45 75.23 67.16 65.05"/>
<path fill="#000000" stroke="none" d="
M 93.60 42.00
C 91.16 39.55 90.43 37.47 90.43 32.90
C 90.43 24.68 94.48 20.65 102.70 20.65
C 110.93 20.65 114.98 24.68 114.98 32.90
C 114.98 41.12 110.93 45.16 102.70 45.16
C 98.13 45.16 96.05 44.44 93.60 42.00
M 108.52 38.71
C 113.63 33.60 109.91 24.52 102.70 24.52
C 98.56 24.52 94.31 28.76 94.31 32.90
C 94.31 34.68 95.47 37.29 96.89 38.71
C 98.31 40.13 100.92 41.29 102.70 41.29
C 104.49 41.29 107.10 40.13 108.52 38.71"/>
<path fill="#000000" stroke="none" d="
M 98.44 37.16
C 96.45 35.17 96.45 30.63 98.44 28.65
C 100.43 26.66 104.98 26.66 106.97 28.65
C 110.59 32.26 107.86 38.71 102.70 38.71
C 101.21 38.71 99.29 38.01 98.44 37.16"/>
<path fill="#e6c284" stroke="none" d="
M 229.18 481.15
C 227.86 479.69 224.03 476.48 220.65 474.00
C 215.81 470.45 214.39 468.54 213.78 464.76
C 209.27 436.72 195.19 394.77 177.76 357.55
C 173.25 347.90 169.18 338.26 168.73 336.13
C 167.96 332.48 168.31 332.68 174.80 339.50
C 203.32 369.42 235.76 415.57 251.96 449.30
L 257.18 460.18
L 255.70 469.77
C 254.89 475.05 254.06 479.54 253.87 479.74
C 253.66 479.96 252.23 478.06 250.65 475.54
C 244.84 466.14 239.01 466.39 235.76 476.18
C 233.18 483.91 232.29 484.58 229.18 481.15"/>
<path fill="#e6c284" stroke="none" d="
M 271.04 471.99
C 269.98 470.36 266.58 463.23 263.48 456.13
C 253.16 432.45 232.87 398.63 214.35 374.19
C 200.10 355.39 178.76 331.17 172.08 326.23
C 168.56 323.61 161.52 315.95 156.42 309.17
C 151.33 302.40 139.77 288.63 130.74 278.58
C 94.95 238.74 82.44 222.13 72.45 201.29
C 62.80 181.15 62.62 171.48 71.26 137.42
C 78.21 110.05 78.49 100.65 72.68 89.46
L 68.53 81.50
L 74.32 68.31
C 77.50 61.05 80.10 54.09 80.10 52.84
C 80.10 51.59 77.50 47.38 74.33 43.50
L 68.57 36.43
L 70.15 28.86
C 71.01 24.70 72.16 20.58 72.72 19.73
C 74.46 17.02 102.19 8.85 114.55 7.39
C 141.73 4.21 168.20 15.08 180.71 34.62
C 188.10 46.15 191.33 58.99 192.54 81.54
C 194.16 111.73 194.32 112.00 217.04 120.99
C 222.36 123.10 239.52 131.23 255.15 139.05
L 283.57 153.25
L 274.53 154.05
C 226.26 158.30 187.44 171.07 166.28 189.70
C 156.59 198.23 154.39 203.47 154.38 218.06
C 154.38 231.86 156.14 238.32 164.28 254.65
C 185.53 297.21 231.92 340.22 283.67 365.33
C 323.37 384.59 377.62 398.45 479.71 415.43
C 500.19 418.84 517.55 422.22 518.28 422.94
C 519.17 423.83 517.79 425.32 513.94 427.57
C 502.01 434.54 485.94 438.35 463.14 439.59
C 450.10 440.30 448.18 440.09 439.89 437.10
C 429.41 433.33 417.37 430.79 392.09 427.03
C 382.14 425.56 369.54 423.23 364.09 421.86
C 351.30 418.63 346.90 418.68 343.47 422.10
C 341.02 424.55 340.82 425.74 341.60 433.39
C 343.72 454.43 343.83 461.37 342.14 466.35
C 341.19 469.14 339.77 471.63 338.96 471.88
C 338.16 472.15 334.09 469.45 329.92 465.88
C 319.13 456.70 314.92 454.62 310.85 456.46
C 307.73 457.90 307.00 459.55 304.32 471.41
L 303.49 475.07
L 297.93 469.96
C 285.60 458.61 282.42 458.39 276.62 468.53
C 272.96 474.93 272.95 474.93 271.04 471.99
M 111.81 42.00
C 114.25 39.55 114.98 37.47 114.98 32.90
C 114.98 24.68 110.93 20.65 102.70 20.65
C 94.48 20.65 90.43 24.68 90.43 32.90
C 90.43 41.12 94.48 45.16 102.70 45.16
C 107.28 45.16 109.36 44.44 111.81 42.00"/>
<path fill="#e3d19f" stroke="none" d="
M 42.63 74.90
C 31.16 74.17 24.55 72.30 24.55 69.81
C 24.55 68.74 39.13 62.31 48.12 59.42
C 56.03 56.88 53.91 52.90 44.66 52.90
C 34.53 52.90 26.50 46.01 29.67 40.08
C 31.04 37.52 32.27 36.97 40.05 35.42
C 42.53 34.93 48.55 32.52 53.42 30.08
C 58.29 27.64 62.50 25.86 62.77 26.13
C 63.03 26.40 62.68 28.61 61.98 31.05
C 59.98 38.01 60.36 39.33 66.51 46.85
L 72.29 53.95
L 67.16 65.05
C 62.45 75.23 61.74 76.12 58.47 75.92
C 56.51 75.79 49.39 75.34 42.63 74.90"/>
<path fill="#eb2e00" stroke="none" d="
M 96.89 38.71
C 91.89 33.72 94.38 26.46 101.61 25.05
C 109.41 23.51 114.23 33.01 108.52 38.71
C 107.10 40.13 104.49 41.29 102.70 41.29
C 100.92 41.29 98.31 40.13 96.89 38.71
M 106.97 37.16
C 110.59 33.55 107.86 27.10 102.70 27.10
C 99.24 27.10 96.89 29.45 96.89 32.90
C 96.89 36.36 99.24 38.71 102.70 38.71
C 104.20 38.71 106.12 38.01 106.97 37.16"/>
<path fill="#918c76" stroke="none" d="
M 7.12 71.57
C 9.40 58.39 12.57 50.49 17.84 44.84
C 21.79 40.61 23.25 40.36 23.25 43.96
C 23.25 47.69 25.51 51.78 29.38 55.05
L 32.68 57.82
L 25.86 61.28
C 22.10 63.17 16.16 67.42 12.63 70.71
L 6.24 76.68
L 7.12 71.57"/>
<path fill="#774c15" stroke="none" d="
M 635.89 581.34
C 629.30 578.18 618.84 572.21 612.64 568.06
C 602.62 561.35 501.87 485.30 466.37 457.66
L 452.80 447.10
L 457.33 446.77
C 495.13 444.12 513.23 439.39 525.60 429.01
C 529.53 425.70 529.89 425.64 538.39 426.95
C 558.42 430.06 576.71 439.12 589.74 452.39
C 594.72 457.46 611.68 471.23 627.44 482.98
C 667.93 513.20 704.19 542.40 707.74 547.65
C 711.16 552.68 710.52 555.21 706.12 554.10
C 704.49 553.69 701.05 554.23 698.50 555.30
C 693.91 557.21 693.03 558.77 692.16 566.45
C 691.79 569.85 691.02 569.99 682.57 568.30
C 678.39 567.47 675.58 569.26 672.37 574.81
C 671.17 576.88 670.53 576.95 666.50 575.50
C 660.37 573.29 654.64 576.10 652.89 582.18
C 652.22 584.52 650.81 586.58 649.77 586.76
C 648.73 586.93 642.49 584.49 635.89 581.34"/>
<path fill="#774c15" stroke="none" d="
M 731.21 510.06
C 718.73 505.59 653.12 470.84 615.14 448.61
C 610.75 446.04 603.81 442.98 599.74 441.82
C 595.66 440.65 585.88 436.59 578.01 432.79
C 570.13 428.98 559.09 424.74 553.47 423.35
C 527.24 416.89 506.06 412.59 479.29 408.32
C 443.72 402.63 379.94 389.88 357.21 383.91
C 294.10 367.33 251.50 344.09 211.78 304.55
C 190.76 283.64 177.84 266.04 168.15 245.14
C 155.99 218.90 157.98 205.21 175.85 192.23
C 197.59 176.44 229.66 166.13 268.07 162.59
C 296.89 159.95 294.96 159.51 319.82 174.34
C 331.86 181.51 352.75 194.65 366.25 203.54
C 423.04 240.92 444.39 259.74 519.12 338.28
C 563.75 385.19 568.79 389.33 609.77 412.85
C 687.81 457.63 711.56 472.93 726.34 487.97
C 739.14 501.01 742.56 506.25 740.17 509.12
C 738.63 510.97 734.84 511.37 731.21 510.06"/>
<path fill="#4b4947" stroke="none" d="
M 215.29 588.55
C 208.12 582.35 203.81 581.25 196.65 583.77
C 190.37 585.99 189.87 585.01 194.48 579.52
C 199.14 573.99 201.74 573.60 211.57 577.01
C 219.66 579.79 221.97 579.97 244.77 579.65
C 273.16 579.24 276.71 578.26 280.96 569.68
C 285.73 560.08 285.02 524.12 279.50 495.28
C 277.38 484.21 277.39 484.04 280.29 476.89
C 281.90 472.93 283.90 469.68 284.74 469.68
C 286.58 469.68 296.27 479.54 298.27 483.46
C 299.32 485.51 299.34 489.75 298.37 498.94
C 297.57 506.37 297.35 522.03 297.83 536.77
C 298.57 559.60 298.93 562.53 301.71 568.40
C 303.45 572.06 306.38 575.81 308.50 577.07
C 314.16 580.40 329.73 582.34 345.13 581.61
C 357.13 581.05 360.03 580.44 367.97 576.79
L 377.05 572.61
L 381.97 575.01
C 386.73 577.34 391.57 583.54 389.92 585.17
C 389.48 585.63 386.62 584.72 383.60 583.17
C 378.79 580.72 377.45 580.55 373.16 581.85
C 370.46 582.65 365.55 585.64 362.26 588.49
L 356.26 593.68
L 338.64 592.65
C 319.02 591.50 239.84 591.65 228.47 592.86
C 221.38 593.63 221.02 593.51 215.29 588.55"/>
<path fill="#4b4947" stroke="none" d="
M 102.06 586.30
C 97.73 584.39 90.12 584.48 80.15 586.58
L 76.87 587.28
L 79.93 584.59
C 84.15 580.90 96.06 577.63 101.53 578.65
C 106.10 579.51 110.73 584.57 109.20 587.05
C 108.13 588.76 107.52 588.70 102.06 586.30"/>
<path fill="#4b4947" stroke="none" d="
M 172.71 584.14
C 165.61 580.37 164.88 580.25 159.38 581.70
C 156.18 582.57 153.01 582.93 152.35 582.53
C 147.46 579.50 158.75 573.39 166.54 574.85
C 175.90 576.61 184.45 582.62 182.98 586.44
C 182.01 588.97 181.60 588.88 172.71 584.14"/>
<path fill="#4b4947" stroke="none" d="
M 135.13 584.17
C 129.14 581.60 128.49 581.56 123.16 583.47
C 113.78 586.85 114.73 581.38 124.45 576.15
C 128.57 573.94 128.92 573.96 136.69 576.79
C 141.09 578.39 144.69 580.45 144.69 581.35
C 144.69 582.27 145.04 583.94 145.48 585.06
C 146.55 587.86 143.02 587.56 135.13 584.17"/>
<path fill="#4b4947" stroke="none" d="
M 217.04 571.08
C 213.82 569.90 212.59 568.71 212.79 566.97
C 212.94 565.63 214.53 554.65 216.33 542.58
C 219.75 519.47 220.99 495.65 219.21 487.24
L 218.15 482.21
L 225.60 488.85
C 229.70 492.49 233.74 495.48 234.58 495.48
C 236.88 495.48 239.08 492.28 240.81 486.41
C 241.66 483.51 242.91 481.03 243.58 480.89
C 246.27 480.35 245.44 487.41 241.00 502.99
C 238.44 512.00 233.86 531.25 230.82 545.81
C 226.83 564.85 224.76 572.32 223.42 572.49
C 222.40 572.63 219.53 571.99 217.04 571.08"/>
</g>
</svg>
