<?xml version="1.0" encoding="UTF-8" standalone="no"?>
<!DOCTYPE svg PUBLIC "-//W3C//DTD SVG 1.1//EN"
"http://www.w3.org/Graphics/SVG/1.1/DTD/svg11.dtd">
<svg width="449px" height="600px"
xmlns="http://www.w3.org/2000/svg" version="1.1">
<g transform="translate(0000, 0000) scale(1.0000, 1.0000)">
<path fill="#000000" stroke="none" d="
M 69.94 597.53
C 67.71 596.17 65.54 594.49 65.09 593.77
C 64.60 592.97 62.18 593.67 58.83 595.58
C 52.62 599.13 48.61 599.54 46.37 596.85
C 43.20 593.04 49.45 583.75 58.16 579.30
C 70.12 573.21 80.77 571.73 112.56 571.73
C 141.83 571.73 142.41 571.68 145.08 568.83
C 152.26 561.20 165.26 528.76 172.87 499.45
L 176.13 486.90
L 165.26 434.57
C 151.80 369.73 150.32 364.81 139.07 347.83
C 134.29 340.60 123.84 324.14 115.87 311.24
C 102.45 289.53 101.10 287.79 97.63 287.79
L 93.89 287.79
L 99.47 294.64
C 106.77 303.58 112.40 313.64 115.25 322.81
C 117.43 329.82 117.43 330.54 115.34 337.18
C 112.58 345.89 107.89 350.03 98.32 352.18
C 90.26 353.97 79.77 352.52 70.05 348.27
C 58.28 343.10 36.99 320.66 21.20 296.76
C 9.80 279.48 4.52 267.71 1.88 253.72
C -1.36 236.47 -0.33 226.74 6.15 213.21
C 14.36 196.07 24.93 187.48 47.90 179.23
C 58.55 175.41 59.80 174.63 59.57 171.96
C 58.54 159.96 50.75 115.09 48.82 110.02
C 45.75 101.92 40.72 94.73 35.20 90.53
C 32.78 88.69 24.11 83.96 15.94 80.04
C 7.77 76.11 0.76 72.06 0.36 71.02
C -0.76 68.12 3.23 60.99 7.96 57.46
C 10.31 55.70 17.14 52.12 23.16 49.50
C 36.34 43.76 36.59 43.58 42.19 34.69
C 53.15 17.29 70.30 5.95 91.72 1.94
C 101.80 0.05 103.68 0.05 114.08 1.93
C 137.44 6.13 154.42 18.62 175.98 47.43
C 188.17 63.71 208.01 87.08 242.96 126.35
C 272.38 159.39 276.03 164.79 280.41 181.80
C 281.53 186.15 284.39 189.28 299.25 202.36
C 327.06 226.86 340.75 241.94 355.74 264.63
C 362.98 275.60 371.64 290.02 374.97 296.67
C 382.72 312.09 394.18 332.53 409.32 357.96
C 417.96 372.44 424.66 381.80 433.36 391.54
C 445.69 405.35 449.00 410.80 449.00 417.34
C 449.00 422.07 444.65 427.63 439.17 429.92
C 433.47 432.30 418.24 432.15 402.66 429.57
L 389.88 427.45
L 374.09 432.68
C 342.27 443.23 326.17 444.31 290.76 438.27
C 279.09 436.28 269.32 434.81 269.07 435.02
C 268.82 435.22 272.46 446.39 277.17 459.82
L 285.73 484.24
L 281.85 497.47
C 279.73 504.76 273.94 523.40 269.00 538.92
C 262.81 558.35 260.41 567.61 261.28 568.66
C 262.12 569.67 270.08 570.53 284.44 571.13
C 310.12 572.24 311.78 572.92 318.61 585.22
C 323.45 593.94 323.60 594.72 321.17 598.05
C 319.47 600.37 319.18 600.36 310.56 597.73
C 293.73 592.57 249.16 592.70 175.62 598.12
C 150.99 599.95 149.77 599.92 146.68 597.65
C 143.55 595.35 143.33 595.35 139.59 597.64
C 136.13 599.74 132.51 599.99 104.85 599.99
C 76.69 599.99 73.62 599.77 69.94 597.53
M 128.88 588.32
C 129.66 586.12 132.09 583.19 134.29 581.81
L 138.30 579.28
L 108.71 579.82
C 79.78 580.34 68.83 581.82 68.83 585.17
C 68.83 585.85 70.80 587.73 73.20 589.35
C 77.38 592.16 78.65 592.29 102.54 592.29
L 127.50 592.29
L 128.88 588.32
M 176.90 589.75
C 211.22 587.09 256.07 585.60 277.25 586.41
C 296.24 587.13 299.50 586.96 302.08 585.15
C 307.92 581.04 303.79 579.88 279.60 578.92
C 267.08 578.42 255.80 577.45 254.53 576.76
C 250.08 574.39 250.49 570.01 257.13 549.08
C 266.31 520.11 275.43 489.20 274.94 488.70
C 274.29 488.06 261.60 489.73 260.09 490.66
C 259.34 491.13 256.06 501.89 252.79 514.60
C 242.33 555.30 235.67 574.00 230.66 576.67
C 229.35 577.37 215.56 578.87 200.02 579.98
C 176.83 581.65 149.68 585.01 148.31 586.37
C 148.14 586.54 148.92 587.95 150.01 589.52
C 151.58 591.76 152.88 592.23 156.10 591.71
C 158.33 591.34 167.70 590.47 176.90 589.75
M 167.30 573.57
C 168.50 573.24 170.75 568.51 172.92 561.78
C 174.93 555.60 182.01 536.72 188.66 519.83
C 195.31 502.95 200.60 488.97 200.39 488.78
C 200.20 488.57 196.41 488.74 192.00 489.13
C 186.57 489.62 183.97 490.42 183.97 491.56
C 183.97 496.21 164.96 549.74 158.99 561.88
L 152.16 575.78
L 158.73 574.95
C 162.36 574.50 166.22 573.87 167.30 573.57
M 205.19 571.68
C 214.23 570.95 222.78 569.74 224.15 569.01
C 229.90 565.94 240.99 533.96 247.17 502.70
C 249.92 488.78 249.93 488.24 247.72 482.42
C 246.46 479.14 242.04 472.30 237.88 467.24
C 226.51 453.38 206.91 433.27 207.61 436.19
C 207.94 437.60 209.25 448.38 210.50 460.14
L 212.79 481.52
L 203.58 505.10
C 192.45 533.64 178.83 570.41 178.83 571.93
C 178.83 573.37 185.21 573.30 205.19 571.68
M 200.42 480.51
L 204.92 480.51
L 204.04 471.84
C 202.64 457.81 198.19 433.22 195.82 426.36
C 194.33 422.06 188.90 414.23 178.94 402.08
C 170.86 392.21 164.14 384.28 163.97 384.46
C 163.75 384.72 178.74 457.09 183.43 478.39
C 184.22 481.99 184.44 482.08 190.09 481.31
C 193.29 480.87 197.93 480.51 200.42 480.51
M 273.04 479.36
C 273.56 478.90 270.52 468.13 266.31 455.42
C 258.50 431.90 257.28 425.69 260.28 424.55
C 261.19 424.19 268.85 425.68 277.29 427.85
C 295.89 432.64 315.55 434.80 331.93 433.85
C 344.22 433.14 358.12 429.69 379.96 421.91
L 390.04 418.33
L 398.83 420.59
C 403.65 421.84 412.84 423.19 419.23 423.60
C 431.77 424.42 437.77 422.99 440.08 418.68
C 441.77 415.53 437.02 408.19 418.52 385.35
C 406.45 370.46 402.54 364.36 391.72 343.59
C 361.52 285.60 348.51 264.68 327.67 240.57
C 316.90 228.13 299.43 211.84 287.45 203.09
L 282.20 199.26
L 280.73 210.23
C 279.92 216.27 277.70 226.11 275.79 232.10
C 272.82 241.41 271.48 243.71 266.53 248.07
C 257.26 256.21 246.72 258.89 223.81 258.89
L 205.09 258.89
L 211.09 266.33
C 217.94 274.82 224.37 286.96 226.64 295.71
C 231.28 313.63 215.03 326.94 193.82 322.61
C 181.85 320.17 176.42 317.28 165.64 307.58
C 153.47 296.63 143.10 284.24 131.84 267.21
C 120.39 249.85 115.32 238.48 111.90 222.48
C 109.38 210.71 109.24 208.30 110.62 201.28
C 113.16 188.31 120.99 173.55 129.36 165.91
C 141.94 154.42 161.25 146.84 187.56 143.06
C 200.25 141.24 204.89 141.13 217.41 142.34
C 230.74 143.64 241.74 145.80 248.94 148.55
C 251.92 149.68 248.34 145.44 210.95 103.50
C 196.43 87.21 179.01 66.94 172.23 58.46
C 165.46 49.98 154.95 37.79 148.86 31.36
C 136.36 18.15 129.17 14.09 112.02 10.55
C 102.28 8.54 101.69 8.57 91.20 11.37
C 71.08 16.74 60.31 23.72 51.90 36.86
L 47.54 43.66
L 49.97 48.49
C 54.41 57.31 56.90 66.73 56.04 71.36
C 55.59 73.77 53.25 78.31 50.86 81.46
L 46.48 87.16
L 51.59 97.22
C 57.96 109.76 61.16 124.69 67.53 171.38
C 72.78 209.95 75.82 222.17 84.76 240.90
C 91.58 255.17 152.18 353.88 162.94 368.24
C 171.17 379.23 184.80 395.04 203.23 414.99
C 223.42 436.83 234.65 449.88 243.37 461.65
C 259.39 483.22 257.95 481.97 265.48 481.03
C 269.12 480.57 272.53 479.82 273.04 479.36
M 102.96 340.64
C 112.17 331.43 108.96 321.10 88.54 294.28
C 76.90 278.98 77.13 275.58 89.59 278.71
C 92.85 279.53 95.73 280.00 95.98 279.74
C 96.23 279.48 91.87 271.01 86.30 260.92
C 71.72 234.54 66.36 220.18 63.73 200.47
C 62.56 191.65 61.37 184.20 61.07 183.91
C 59.99 182.83 40.31 190.55 33.19 194.84
C 22.71 201.15 16.75 208.54 11.73 221.42
C 7.65 231.89 7.49 232.96 8.39 243.10
C 10.29 264.67 14.50 274.10 33.46 299.20
C 52.92 324.98 66.49 338.11 78.05 342.33
C 80.76 343.34 86.65 344.18 91.13 344.24
C 98.43 344.31 99.64 343.95 102.96 340.64
M 211.99 312.77
C 215.26 310.48 218.71 304.45 218.70 301.03
C 218.68 293.27 210.58 278.83 196.09 260.69
C 185.98 248.03 187.06 244.47 199.68 248.75
C 204.91 250.52 210.52 251.05 223.86 251.04
C 238.96 251.02 242.15 250.64 248.30 248.11
C 257.71 244.24 263.22 239.87 266.26 233.92
C 269.34 227.90 274.03 205.52 274.03 196.86
C 274.03 188.71 269.97 175.98 265.49 170.12
C 243.05 140.74 158.06 144.31 131.10 175.76
C 125.36 182.47 118.31 200.42 118.39 208.14
C 118.50 219.40 122.03 234.30 126.77 243.65
C 132.04 254.02 151.39 280.27 163.27 293.18
C 172.40 303.08 181.62 310.20 188.70 312.78
C 195.55 315.30 208.39 315.29 211.99 312.77
M 44.14 76.82
C 45.50 74.98 46.24 72.85 45.75 72.08
C 45.21 71.19 39.95 70.68 31.76 70.69
L 18.65 70.73
L 26.10 73.79
C 30.19 75.47 34.83 77.73 36.40 78.82
C 39.93 81.28 41.01 80.99 44.14 76.82
M 45.80 62.44
C 46.19 61.45 45.29 58.27 43.81 55.37
L 41.12 50.11
L 28.28 56.54
C 21.21 60.08 15.44 63.26 15.44 63.61
C 15.44 63.96 22.12 64.24 30.27 64.24
C 41.81 64.24 45.26 63.84 45.80 62.44"/>
<path fill="#000000" stroke="none" d="
M 82.88 64.37
C 76.87 61.64 72.86 57.08 70.68 50.51
C 67.66 41.34 73.92 30.22 84.35 26.24
C 89.20 24.39 90.97 24.28 95.19 25.54
C 106.42 28.90 113.73 40.32 110.83 49.98
C 108.79 56.79 104.70 61.57 98.52 64.37
C 91.95 67.35 89.45 67.35 82.88 64.37
M 98.45 57.04
C 102.52 54.37 105.77 47.15 104.74 43.04
C 103.66 38.74 97.53 32.66 93.17 31.57
C 88.10 30.30 87.69 31.85 92.18 35.36
C 98.05 39.96 99.78 44.98 97.21 49.97
C 96.08 52.15 93.71 54.87 91.96 56.03
C 90.21 57.17 88.77 58.69 88.77 59.38
C 88.77 61.01 94.51 59.61 98.45 57.04"/>
<path fill="#ffd700" stroke="none" d="
M 183.43 478.39
C 178.74 457.09 163.75 384.72 163.97 384.46
C 164.14 384.28 170.86 392.21 178.94 402.08
C 188.90 414.23 194.33 422.06 195.82 426.36
C 198.19 433.22 202.64 457.81 204.04 471.84
L 204.92 480.51
L 200.42 480.51
C 197.93 480.51 193.29 480.87 190.09 481.31
C 184.44 482.08 184.22 481.99 183.43 478.39"/>
<path fill="#ffd700" stroke="none" d="
M 255.02 477.01
C 252.91 474.35 247.67 467.43 243.37 461.65
C 234.65 449.88 223.42 436.83 203.23 414.99
C 184.80 395.04 171.17 379.23 162.94 368.24
C 152.18 353.88 91.58 255.17 84.76 240.90
C 75.82 222.17 72.78 209.95 67.53 171.38
C 61.16 124.69 57.96 109.76 51.59 97.22
L 46.48 87.16
L 50.86 81.46
C 53.25 78.31 55.59 73.77 56.04 71.36
C 56.90 66.73 54.41 57.31 49.97 48.49
L 47.54 43.66
L 51.90 36.86
C 60.44 23.52 71.85 16.24 91.97 11.28
C 102.59 8.66 103.35 8.63 112.65 10.65
C 129.53 14.31 136.48 18.28 148.86 31.36
C 154.95 37.79 165.46 49.98 172.23 58.46
C 179.01 66.94 196.43 87.21 210.95 103.50
C 248.34 145.44 251.92 149.68 248.94 148.55
C 241.74 145.80 230.74 143.64 217.41 142.34
C 185.20 139.22 147.57 149.29 129.36 165.91
C 120.99 173.55 113.16 188.31 110.62 201.28
C 109.24 208.30 109.38 210.71 111.90 222.48
C 115.32 238.48 120.39 249.85 131.84 267.21
C 143.10 284.24 153.47 296.63 165.64 307.58
C 176.42 317.28 181.85 320.17 193.82 322.61
C 215.03 326.94 231.28 313.63 226.64 295.71
C 224.37 286.96 217.94 274.82 211.09 266.33
L 205.09 258.89
L 223.81 258.89
C 246.72 258.89 257.26 256.21 266.53 248.07
C 271.48 243.71 272.82 241.41 275.79 232.10
C 277.70 226.11 279.92 216.27 280.73 210.23
L 282.20 199.26
L 287.45 203.09
C 299.43 211.84 316.90 228.13 327.67 240.57
C 348.51 264.68 361.52 285.60 391.72 343.59
C 402.54 364.36 406.45 370.46 418.52 385.35
C 437.02 408.19 441.77 415.53 440.08 418.68
C 437.77 422.99 431.77 424.42 419.23 423.60
C 412.84 423.19 403.65 421.84 398.83 420.59
L 390.04 418.33
L 379.96 421.91
C 358.12 429.69 344.22 433.14 331.93 433.85
C 315.55 434.80 295.89 432.64 277.29 427.85
C 268.85 425.68 261.19 424.19 260.28 424.55
C 257.28 425.69 258.50 431.90 266.31 455.42
C 270.52 468.13 273.56 478.90 273.04 479.36
C 272.53 479.82 269.12 480.57 265.48 481.03
C 258.98 481.84 258.79 481.76 255.02 477.01
M 98.52 64.37
C 104.70 61.57 108.79 56.79 110.83 49.98
C 113.73 40.32 106.42 28.90 95.19 25.54
C 81.67 21.49 66.27 37.17 70.68 50.51
C 72.86 57.08 76.87 61.64 82.88 64.37
C 89.45 67.35 91.95 67.35 98.52 64.37"/>
<path fill="#ffd700" stroke="none" d="
M 78.05 342.33
C 66.49 338.11 52.92 324.98 33.46 299.20
C 14.50 274.10 10.29 264.67 8.39 243.10
C 7.49 232.96 7.65 231.89 11.73 221.42
C 16.75 208.54 22.71 201.15 33.19 194.84
C 40.31 190.55 59.99 182.83 61.07 183.91
C 61.37 184.20 62.56 191.65 63.73 200.47
C 66.36 220.18 71.72 234.54 86.30 260.92
C 91.87 271.01 96.23 279.48 95.98 279.74
C 95.73 280.00 92.85 279.53 89.59 278.71
C 77.13 275.58 76.90 278.98 88.54 294.28
C 108.96 321.10 112.17 331.43 102.96 340.64
C 99.64 343.95 98.43 344.31 91.13 344.24
C 86.65 344.18 80.76 343.34 78.05 342.33"/>
<path fill="#ffd700" stroke="none" d="
M 188.70 312.78
C 181.62 310.20 172.40 303.08 163.27 293.18
C 151.39 280.27 132.04 254.02 126.77 243.65
C 122.03 234.30 118.50 219.40 118.39 208.14
C 118.31 200.42 125.36 182.47 131.10 175.76
C 158.06 144.31 243.05 140.74 265.49 170.12
C 269.97 175.98 274.03 188.71 274.03 196.86
C 274.03 205.52 269.34 227.90 266.26 233.92
C 263.22 239.87 257.71 244.24 248.30 248.11
C 242.15 250.64 238.96 251.02 223.86 251.04
C 210.52 251.05 204.91 250.52 199.68 248.75
C 187.06 244.47 185.98 248.03 196.09 260.69
C 210.58 278.83 218.68 293.27 218.70 301.03
C 218.71 304.45 215.26 310.48 211.99 312.77
C 208.39 315.29 195.55 315.30 188.70 312.78"/>
<path fill="#eb2e00" stroke="none" d="
M 88.77 59.38
C 88.77 58.69 90.24 57.15 92.04 55.98
C 93.84 54.80 96.22 51.93 97.33 49.61
C 99.17 45.75 99.17 45.03 97.25 41.33
C 96.09 39.11 93.69 36.32 91.90 35.15
C 87.03 31.98 89.99 30.08 95.64 32.75
C 100.30 34.96 103.14 38.25 104.75 43.32
C 105.88 46.95 102.45 54.41 98.45 57.04
C 94.51 59.61 88.77 61.01 88.77 59.38"/>
<path fill="#fbc0c0" stroke="none" d="
M 36.40 78.82
C 34.83 77.73 30.19 75.47 26.10 73.79
L 18.65 70.73
L 31.76 70.69
C 39.95 70.68 45.21 71.19 45.75 72.08
C 46.65 73.52 42.64 79.88 40.45 80.47
C 39.78 80.65 37.97 79.91 36.40 78.82"/>
<path fill="#fbc0c0" stroke="none" d="
M 15.44 63.61
C 15.44 62.63 38.33 51.39 40.31 51.39
C 42.44 51.39 46.95 60.89 45.74 62.84
C 44.90 64.21 15.44 64.96 15.44 63.61"/>
<path fill="#ef907a" stroke="none" d="
M 73.20 589.35
C 70.80 587.73 68.83 585.85 68.83 585.17
C 68.83 581.82 79.78 580.34 108.71 579.82
L 138.30 579.28
L 134.29 581.81
C 132.09 583.19 129.66 586.12 128.88 588.32
L 127.50 592.29
L 102.54 592.29
C 78.65 592.29 77.38 592.16 73.20 589.35"/>
<path fill="#ef907a" stroke="none" d="
M 150.01 589.52
C 148.92 587.95 148.14 586.54 148.31 586.37
C 149.68 585.01 176.83 581.65 200.02 579.98
C 215.56 578.87 229.35 577.37 230.66 576.67
C 235.67 574.00 242.33 555.30 252.79 514.60
C 256.06 501.89 259.34 491.13 260.09 490.66
C 261.60 489.73 274.29 488.06 274.94 488.70
C 275.43 489.20 266.31 520.11 257.13 549.08
C 250.49 570.01 250.08 574.39 254.53 576.76
C 255.80 577.45 267.08 578.42 279.60 578.92
C 303.79 579.88 307.92 581.04 302.08 585.15
C 299.50 586.96 296.24 587.13 277.25 586.41
C 250.66 585.39 174.43 588.73 156.10 591.71
C 152.88 592.23 151.58 591.76 150.01 589.52"/>
<path fill="#ef907a" stroke="none" d="
M 158.99 561.88
C 164.97 549.70 183.97 496.21 183.97 491.54
C 183.97 490.34 186.46 489.62 192.02 489.20
C 196.44 488.87 200.21 488.71 200.40 488.85
C 200.60 489.01 195.31 502.95 188.66 519.83
C 182.01 536.72 174.93 555.60 172.92 561.78
C 169.05 573.76 169.20 573.62 158.73 574.95
L 152.16 575.78
L 158.99 561.88"/>
</g>
</svg>
