<?xml version="1.0" encoding="UTF-8" standalone="no"?>
<!DOCTYPE svg PUBLIC "-//W3C//DTD SVG 1.1//EN"
"http://www.w3.org/Graphics/SVG/1.1/DTD/svg11.dtd">
<svg width="639px" height="600px"
xmlns="http://www.w3.org/2000/svg" version="1.1">
<g transform="translate(0000, 0000) scale(1.0000, 1.0000)">
<path fill="#000000" stroke="none" d="
M 216.46 597.53
C 214.24 596.17 212.07 594.49 211.62 593.77
C 211.13 592.97 208.71 593.67 205.37 595.58
C 199.16 599.13 195.15 599.54 192.91 596.85
C 189.75 593.04 195.99 583.75 204.70 579.30
C 216.64 573.21 227.29 571.73 259.06 571.73
C 288.31 571.73 288.89 571.68 291.56 568.83
C 298.74 561.20 311.72 528.76 319.33 499.45
L 322.59 486.90
L 311.72 434.57
C 298.27 369.71 296.79 364.81 285.54 347.83
C 274.09 330.53 247.14 286.74 241.60 276.42
L 237.21 268.27
L 219.86 269.07
C 203.80 269.82 201.24 270.31 185.79 275.56
C 165.81 282.36 157.85 284.38 140.62 287.06
C 99.86 293.40 74.94 289.88 40.50 272.92
C 15.88 260.80 1.94 248.21 0.40 236.71
C -0.21 232.25 0.19 230.96 3.00 228.15
C 7.95 223.21 13.31 223.77 25.96 230.58
C 61.33 249.58 76.60 255.42 98.64 258.36
C 112.31 260.18 133.92 259.27 140.30 256.60
C 149.85 252.62 150.72 246.40 142.35 241.91
C 138.81 240.01 135.00 239.74 115.71 240.03
C 96.20 240.31 92.62 240.05 88.74 238.06
C 79.77 233.45 78.66 224.44 86.48 219.69
C 90.14 217.45 93.21 217.16 113.77 217.03
C 126.50 216.95 144.15 216.80 153.00 216.68
L 169.07 216.49
L 185.14 224.17
C 198.85 230.72 202.49 231.93 209.87 232.34
L 218.52 232.83
L 215.38 224.02
C 213.33 218.22 210.65 203.78 207.58 181.80
C 200.33 130.05 197.45 114.26 193.82 106.33
C 188.74 95.24 181.93 89.43 163.67 80.62
C 154.85 76.36 147.32 72.04 146.92 71.01
C 145.81 68.12 149.81 60.98 154.53 57.46
C 156.87 55.70 163.71 52.12 169.71 49.50
C 182.89 43.76 183.14 43.58 188.73 34.69
C 199.81 17.07 216.94 5.85 238.80 1.85
C 249.83 -0.17 250.74 -0.14 262.76 2.40
C 270.18 3.98 278.46 6.76 283.11 9.24
C 294.06 15.06 309.33 29.90 322.44 47.43
C 334.62 63.71 354.45 87.08 389.38 126.35
C 418.83 159.46 420.99 162.64 427.09 182.07
C 428.48 186.50 431.64 190.00 444.72 201.61
C 458.36 213.71 461.42 215.83 465.93 216.37
C 472.96 217.22 519.27 221.29 529.25 221.96
C 545.31 223.01 549.45 217.19 551.51 190.68
C 552.21 181.55 553.65 163.97 554.70 151.61
C 555.74 139.25 557.50 115.82 558.62 99.57
C 560.89 66.26 562.08 58.74 566.56 49.21
C 570.50 40.82 575.50 36.57 584.49 33.96
C 600.56 29.28 618.04 37.59 624.92 53.16
C 627.22 58.36 627.90 63.40 628.89 82.72
C 630.42 112.70 634.76 179.97 636.78 205.57
C 637.65 216.53 638.36 231.55 638.36 238.97
C 638.36 250.96 638.00 253.10 635.14 258.24
C 632.89 262.29 630.22 264.89 626.19 266.92
C 620.50 269.78 620.01 269.81 563.52 269.81
C 532.20 269.81 506.57 270.24 506.57 270.77
C 506.58 271.30 508.35 274.34 510.51 277.52
C 512.67 280.69 517.35 289.01 520.89 296.00
C 529.25 312.46 540.73 332.92 555.63 357.96
C 564.26 372.44 570.96 381.80 579.65 391.54
C 591.98 405.35 595.29 410.80 595.29 417.34
C 595.29 422.07 590.94 427.63 585.46 429.92
C 579.77 432.30 564.54 432.15 548.97 429.57
L 536.21 427.45
L 520.42 432.68
C 488.62 443.23 472.54 444.31 437.14 438.27
C 425.48 436.28 415.72 434.81 415.47 435.02
C 415.22 435.22 418.86 446.39 423.57 459.82
L 432.12 484.24
L 428.25 497.47
C 426.12 504.76 420.34 523.40 415.40 538.92
C 409.22 558.35 406.81 567.61 407.69 568.66
C 408.52 569.67 416.48 570.53 430.83 571.13
C 456.49 572.24 458.15 572.92 464.98 585.22
C 469.81 593.94 469.97 594.72 467.54 598.05
C 465.84 600.37 465.54 600.36 456.93 597.73
C 440.11 592.57 395.58 592.70 322.08 598.12
C 297.46 599.95 296.24 599.92 293.16 597.65
C 290.03 595.35 289.81 595.35 286.07 597.64
C 282.61 599.74 279.00 599.99 251.36 599.99
C 223.21 599.99 220.14 599.77 216.46 597.53
M 275.37 588.32
C 276.15 586.12 278.58 583.19 280.77 581.81
L 284.79 579.28
L 255.21 579.82
C 226.30 580.34 215.36 581.82 215.36 585.17
C 215.36 585.85 217.32 587.73 219.73 589.35
C 223.91 592.16 225.17 592.29 249.04 592.29
L 273.99 592.29
L 275.37 588.32
M 323.36 589.75
C 357.66 587.09 402.48 585.60 423.64 586.41
C 442.62 587.13 445.89 586.96 448.46 585.15
C 454.29 581.04 450.17 579.88 426.00 578.92
C 413.49 578.42 402.21 577.45 400.94 576.76
C 396.49 574.39 396.90 570.01 403.53 549.08
C 412.71 520.11 421.83 489.20 421.34 488.70
C 420.69 488.06 408.01 489.73 406.49 490.66
C 405.75 491.13 402.47 501.89 399.20 514.60
C 388.75 555.30 382.09 574.00 377.09 576.67
C 375.78 577.37 361.99 578.87 346.46 579.98
C 323.29 581.65 296.15 585.01 294.79 586.37
C 294.62 586.54 295.39 587.95 296.49 589.52
C 298.05 591.76 299.35 592.23 302.57 591.71
C 304.80 591.34 314.16 590.47 323.36 589.75
M 313.77 573.57
C 314.96 573.24 317.21 568.51 319.38 561.78
C 321.39 555.60 328.46 536.72 335.11 519.83
C 341.76 502.95 347.04 488.97 346.83 488.78
C 346.64 488.57 342.86 488.74 338.45 489.13
C 333.03 489.62 330.43 490.42 330.43 491.56
C 330.43 496.21 311.43 549.74 305.46 561.88
L 298.63 575.78
L 305.20 574.95
C 308.83 574.50 312.69 573.87 313.77 573.57
M 351.63 571.68
C 360.67 570.95 369.21 569.74 370.58 569.01
C 376.33 565.94 387.41 533.96 393.58 502.70
C 396.33 488.78 396.35 488.24 394.14 482.42
C 392.88 479.14 388.45 472.30 384.30 467.24
C 372.93 453.38 353.35 433.27 354.05 436.19
C 354.38 437.60 355.69 448.38 356.94 460.14
L 359.23 481.52
L 350.02 505.10
C 338.90 533.64 325.29 570.41 325.29 571.93
C 325.29 573.37 331.66 573.30 351.63 571.68
M 346.86 480.51
L 351.36 480.51
L 350.49 471.84
C 349.08 457.81 344.64 433.22 342.27 426.36
C 340.78 422.06 335.35 414.23 325.40 402.08
C 317.33 392.21 310.60 384.28 310.44 384.46
C 310.22 384.72 325.20 457.09 329.89 478.39
C 330.67 481.99 330.89 482.08 336.54 481.31
C 339.74 480.87 344.38 480.51 346.86 480.51
M 419.44 479.36
C 419.95 478.90 416.92 468.13 412.71 455.42
C 404.91 431.90 403.69 425.69 406.68 424.55
C 407.60 424.19 415.25 425.68 423.68 427.85
C 442.27 432.64 461.92 434.80 478.29 433.85
C 490.58 433.14 504.46 429.69 526.29 421.91
L 536.36 418.33
L 545.14 420.59
C 549.96 421.84 559.14 423.19 565.53 423.60
C 578.07 424.42 584.06 422.99 586.38 418.68
C 588.06 415.53 583.32 408.19 564.83 385.35
C 552.77 370.46 548.86 364.36 538.05 343.59
C 507.86 285.60 494.86 264.68 474.03 240.57
C 463.27 228.13 445.81 211.84 433.84 203.09
L 428.59 199.26
L 427.13 210.23
C 426.32 216.27 424.09 226.11 422.19 232.10
C 419.22 241.41 417.88 243.71 412.93 248.07
C 403.66 256.21 393.13 258.89 370.23 258.89
L 351.53 258.89
L 357.53 266.33
C 364.37 274.82 370.80 286.96 373.06 295.71
C 377.70 313.63 361.47 326.94 340.26 322.61
C 328.31 320.17 322.88 317.28 312.11 307.58
C 299.94 296.63 289.58 284.24 278.33 267.21
C 266.89 249.85 261.82 238.48 258.40 222.48
C 255.88 210.71 255.74 208.30 257.12 201.28
C 259.66 188.31 267.48 173.55 275.85 165.91
C 288.42 154.42 307.72 146.84 334.02 143.06
C 346.69 141.24 351.33 141.13 363.84 142.34
C 377.16 143.64 388.16 145.80 395.36 148.55
C 398.33 149.68 394.75 145.44 357.39 103.50
C 342.87 87.21 325.47 66.94 318.69 58.46
C 311.93 49.98 301.42 37.79 295.34 31.36
C 282.84 18.15 275.66 14.09 258.52 10.55
C 248.79 8.54 248.19 8.57 237.72 11.37
C 217.61 16.74 206.85 23.72 198.44 36.86
L 194.08 43.66
L 196.51 48.49
C 200.94 57.31 203.44 66.73 202.58 71.36
C 202.13 73.77 199.79 78.31 197.40 81.46
L 193.02 87.16
L 198.13 97.22
C 204.49 109.76 207.69 124.69 214.06 171.38
C 219.30 209.95 222.34 222.17 231.27 240.90
C 238.09 255.17 298.66 353.88 309.41 368.24
C 317.64 379.23 331.25 395.04 349.68 414.99
C 369.85 436.83 381.07 449.88 389.79 461.65
C 405.80 483.22 404.36 481.97 411.88 481.03
C 415.52 480.57 418.92 479.82 419.44 479.36
M 358.43 312.77
C 361.70 310.48 365.14 304.45 365.13 301.03
C 365.12 293.27 357.02 278.83 342.54 260.69
C 332.43 248.03 333.51 244.47 346.13 248.75
C 351.35 250.52 356.95 251.05 370.29 251.04
C 385.38 251.02 388.57 250.64 394.71 248.11
C 404.11 244.24 409.63 239.87 412.66 233.92
C 415.74 227.90 420.43 205.52 420.43 196.86
C 420.43 188.71 416.37 175.98 411.89 170.12
C 389.47 140.74 304.53 144.31 277.59 175.76
C 271.85 182.47 264.81 200.42 264.88 208.14
C 265.00 219.40 268.52 234.30 273.27 243.65
C 278.52 254.02 297.86 280.27 309.74 293.18
C 318.86 303.08 328.08 310.20 335.15 312.78
C 342.00 315.30 354.83 315.29 358.43 312.77
M 141.43 280.06
C 151.38 278.39 164.85 274.87 176.79 270.80
C 194.53 264.76 197.51 264.13 214.07 262.96
C 223.97 262.25 232.25 261.53 232.47 261.38
C 232.69 261.21 230.22 256.18 226.97 250.18
L 221.08 239.28
L 209.07 238.75
C 197.49 238.24 196.52 237.96 181.30 230.57
L 165.52 222.91
L 153.15 223.12
C 93.97 224.08 92.73 224.15 90.50 226.36
C 88.48 228.37 88.62 228.68 92.71 231.19
C 96.76 233.68 98.69 233.85 120.21 233.54
C 146.12 233.16 149.49 233.99 154.34 241.93
C 157.60 247.27 157.51 250.47 153.94 255.78
C 149.40 262.50 141.48 264.89 121.50 265.59
C 101.42 266.30 83.61 263.92 66.69 258.26
C 55.03 254.35 34.60 244.75 28.05 240.10
C 26.14 238.73 21.25 236.09 17.22 234.24
C 10.27 231.07 9.80 231.01 8.22 233.18
C 1.83 241.89 36.50 266.43 70.78 277.44
C 93.37 284.70 110.13 285.31 141.43 280.06
M 620.18 261.31
C 628.87 258.36 631.83 252.39 631.89 237.69
C 631.93 227.73 627.79 165.03 624.81 130.41
C 624.14 122.63 623.57 109.91 623.55 102.14
C 623.49 83.24 621.54 64.15 619.05 58.19
C 613.39 44.65 597.52 36.63 585.41 41.19
C 576.87 44.40 569.89 55.32 567.78 68.74
C 567.35 71.56 565.53 94.11 563.77 118.84
C 562.01 143.58 560.02 169.01 559.35 175.37
C 558.68 181.73 557.76 192.57 557.31 199.43
C 556.34 214.02 553.37 221.24 546.43 225.92
C 542.21 228.76 541.09 228.90 528.43 228.24
C 521.01 227.86 506.55 226.66 496.29 225.58
C 486.03 224.49 475.70 223.59 473.34 223.58
L 469.03 223.55
L 478.35 233.51
C 483.47 238.99 490.81 247.95 494.65 253.43
L 501.65 263.38
L 557.88 263.38
C 606.14 263.38 614.97 263.09 620.18 261.31
M 190.68 76.82
C 192.05 74.98 192.78 72.85 192.29 72.08
C 191.75 71.19 186.49 70.68 178.32 70.69
L 165.21 70.73
L 172.66 73.79
C 176.75 75.47 181.38 77.73 182.94 78.82
C 186.48 81.28 187.56 80.99 190.68 76.82
M 192.34 62.44
C 192.73 61.45 191.83 58.27 190.35 55.37
L 187.66 50.11
L 174.83 56.54
C 167.77 60.08 162.00 63.26 162.00 63.61
C 162.00 63.96 168.67 64.24 176.82 64.24
C 188.36 64.24 191.80 63.84 192.34 62.44"/>
<path fill="#000000" stroke="none" d="
M 229.40 64.37
C 223.39 61.64 219.38 57.08 217.21 50.51
C 214.19 41.34 220.45 30.22 230.86 26.24
C 235.71 24.39 237.48 24.28 241.70 25.54
C 252.93 28.90 260.23 40.32 257.34 49.98
C 255.29 56.79 251.20 61.57 245.03 64.37
C 238.46 67.35 235.97 67.35 229.40 64.37
M 244.95 57.04
C 249.03 54.37 252.27 47.15 251.24 43.04
C 250.16 38.74 244.04 32.66 239.68 31.57
C 234.62 30.30 234.21 31.85 238.69 35.36
C 244.56 39.96 246.29 44.98 243.72 49.97
C 242.59 52.15 240.22 54.87 238.47 56.03
C 236.73 57.17 235.29 58.69 235.29 59.38
C 235.29 61.01 241.02 59.61 244.95 57.04"/>
<path fill="#ffd700" stroke="none" d="
M 329.89 478.39
C 325.20 457.09 310.22 384.72 310.44 384.46
C 310.60 384.28 317.33 392.21 325.40 402.08
C 335.35 414.23 340.78 422.06 342.27 426.36
C 344.64 433.22 349.08 457.81 350.49 471.84
L 351.36 480.51
L 346.86 480.51
C 344.38 480.51 339.74 480.87 336.54 481.31
C 330.89 482.08 330.67 481.99 329.89 478.39"/>
<path fill="#ffd700" stroke="none" d="
M 401.43 477.01
C 399.32 474.35 394.08 467.43 389.79 461.65
C 381.07 449.88 369.85 436.83 349.68 414.99
C 331.25 395.04 317.64 379.23 309.41 368.24
C 298.66 353.88 238.09 255.17 231.27 240.90
C 222.34 222.17 219.30 209.95 214.06 171.38
C 207.69 124.69 204.49 109.76 198.13 97.22
L 193.02 87.16
L 197.40 81.46
C 199.79 78.31 202.13 73.77 202.58 71.36
C 203.44 66.73 200.94 57.31 196.51 48.49
L 194.08 43.66
L 198.44 36.86
C 206.97 23.52 218.38 16.24 238.49 11.28
C 249.09 8.66 249.85 8.63 259.15 10.65
C 276.02 14.31 282.96 18.28 295.34 31.36
C 301.42 37.79 311.93 49.98 318.69 58.46
C 325.47 66.94 342.87 87.21 357.39 103.50
C 394.75 145.44 398.33 149.68 395.36 148.55
C 388.16 145.80 377.16 143.64 363.84 142.34
C 331.65 139.22 294.04 149.29 275.85 165.91
C 267.48 173.55 259.66 188.31 257.12 201.28
C 255.74 208.30 255.88 210.71 258.40 222.48
C 261.82 238.48 266.89 249.85 278.33 267.21
C 289.58 284.24 299.94 296.63 312.11 307.58
C 322.88 317.28 328.31 320.17 340.26 322.61
C 361.47 326.94 377.70 313.63 373.06 295.71
C 370.80 286.96 364.37 274.82 357.53 266.33
L 351.53 258.89
L 370.23 258.89
C 393.13 258.89 403.66 256.21 412.93 248.07
C 417.88 243.71 419.22 241.41 422.19 232.10
C 424.09 226.11 426.32 216.27 427.13 210.23
L 428.59 199.26
L 433.84 203.09
C 445.81 211.84 463.27 228.13 474.03 240.57
C 494.86 264.68 507.86 285.60 538.05 343.59
C 548.86 364.36 552.77 370.46 564.83 385.35
C 583.32 408.19 588.06 415.53 586.38 418.68
C 584.06 422.99 578.07 424.42 565.53 423.60
C 559.14 423.19 549.96 421.84 545.14 420.59
L 536.36 418.33
L 526.29 421.91
C 504.46 429.69 490.58 433.14 478.29 433.85
C 461.92 434.80 442.27 432.64 423.68 427.85
C 415.25 425.68 407.60 424.19 406.68 424.55
C 403.69 425.69 404.91 431.90 412.71 455.42
C 416.92 468.13 419.95 478.90 419.44 479.36
C 418.92 479.82 415.52 480.57 411.88 481.03
C 405.39 481.84 405.19 481.76 401.43 477.01
M 245.03 64.37
C 251.20 61.57 255.29 56.79 257.34 49.98
C 260.23 40.32 252.93 28.90 241.70 25.54
C 228.19 21.49 212.80 37.17 217.21 50.51
C 219.38 57.08 223.39 61.64 229.40 64.37
C 235.97 67.35 238.46 67.35 245.03 64.37"/>
<path fill="#ffd700" stroke="none" d="
M 335.15 312.78
C 328.08 310.20 318.86 303.08 309.74 293.18
C 297.86 280.27 278.52 254.02 273.27 243.65
C 268.52 234.30 265.00 219.40 264.88 208.14
C 264.81 200.42 271.85 182.47 277.59 175.76
C 304.53 144.31 389.47 140.74 411.89 170.12
C 416.37 175.98 420.43 188.71 420.43 196.86
C 420.43 205.52 415.74 227.90 412.66 233.92
C 409.63 239.87 404.11 244.24 394.71 248.11
C 388.57 250.64 385.38 251.02 370.29 251.04
C 356.95 251.05 351.35 250.52 346.13 248.75
C 333.51 244.47 332.43 248.03 342.54 260.69
C 357.02 278.83 365.12 293.27 365.13 301.03
C 365.14 304.45 361.70 310.48 358.43 312.77
C 354.83 315.29 342.00 315.30 335.15 312.78"/>
<path fill="#eb2e00" stroke="none" d="
M 235.29 59.38
C 235.29 58.69 236.75 57.15 238.55 55.98
C 240.35 54.80 242.73 51.93 243.84 49.61
C 245.67 45.75 245.67 45.03 243.76 41.33
C 242.60 39.11 240.20 36.32 238.41 35.15
C 233.55 31.98 236.51 30.08 242.15 32.75
C 246.81 34.96 249.65 38.25 251.25 43.32
C 252.39 46.95 248.95 54.41 244.95 57.04
C 241.02 59.61 235.29 61.01 235.29 59.38"/>
<path fill="#ae3c2a" stroke="none" d="
M 87.49 282.03
C 60.96 275.99 31.91 262.32 17.34 249.02
C 8.40 240.85 5.84 236.42 8.22 233.18
C 9.80 231.01 10.27 231.07 17.22 234.24
C 21.25 236.09 26.14 238.73 28.05 240.10
C 34.60 244.75 55.03 254.35 66.69 258.26
C 83.61 263.92 101.42 266.30 121.50 265.59
C 141.48 264.89 149.40 262.50 153.94 255.78
C 157.51 250.47 157.60 247.27 154.34 241.93
C 149.49 233.99 146.12 233.16 120.21 233.54
C 98.69 233.85 96.76 233.68 92.71 231.19
C 88.62 228.68 88.48 228.37 90.50 226.36
C 92.73 224.15 93.97 224.08 153.15 223.12
L 165.52 222.91
L 181.30 230.57
C 196.52 237.96 197.49 238.24 209.07 238.75
L 221.08 239.28
L 226.97 250.18
C 230.22 256.18 232.69 261.21 232.47 261.38
C 232.25 261.53 223.97 262.25 214.07 262.96
C 197.51 264.13 194.53 264.76 176.79 270.80
C 145.41 281.49 106.55 286.37 87.49 282.03"/>
<path fill="#ae3c2a" stroke="none" d="
M 494.65 253.43
C 490.81 247.95 483.47 238.99 478.35 233.51
L 469.03 223.55
L 473.34 223.58
C 475.70 223.59 486.03 224.49 496.29 225.58
C 506.55 226.66 521.01 227.86 528.43 228.24
C 541.09 228.90 542.21 228.76 546.43 225.92
C 553.37 221.24 556.34 214.02 557.31 199.43
C 557.76 192.57 558.68 181.73 559.35 175.37
C 560.02 169.01 562.01 143.58 563.77 118.84
C 565.53 94.11 567.35 71.56 567.78 68.74
C 571.10 47.61 584.60 36.22 600.63 41.02
C 607.27 43.01 615.64 50.63 618.66 57.42
C 621.46 63.73 623.48 82.24 623.55 102.14
C 623.57 109.91 624.14 122.63 624.81 130.41
C 627.79 165.03 631.93 227.73 631.89 237.69
C 631.85 246.37 631.26 249.70 629.04 253.93
C 624.14 263.22 622.89 263.38 557.88 263.38
L 501.65 263.38
L 494.65 253.43"/>
<path fill="#fbc0c0" stroke="none" d="
M 182.94 78.82
C 181.38 77.73 176.75 75.47 172.66 73.79
L 165.21 70.73
L 178.32 70.69
C 186.49 70.68 191.75 71.19 192.29 72.08
C 193.19 73.52 189.18 79.88 186.99 80.47
C 186.33 80.65 184.51 79.91 182.94 78.82"/>
<path fill="#fbc0c0" stroke="none" d="
M 162.00 63.61
C 162.00 62.63 184.87 51.39 186.85 51.39
C 188.99 51.39 193.49 60.89 192.28 62.84
C 191.44 64.21 162.00 64.96 162.00 63.61"/>
<path fill="#ef907a" stroke="none" d="
M 219.73 589.35
C 217.32 587.73 215.36 585.85 215.36 585.17
C 215.36 581.82 226.30 580.34 255.21 579.82
L 284.79 579.28
L 280.77 581.81
C 278.58 583.19 276.15 586.12 275.37 588.32
L 273.99 592.29
L 249.04 592.29
C 225.17 592.29 223.91 592.16 219.73 589.35"/>
<path fill="#ef907a" stroke="none" d="
M 296.49 589.52
C 295.39 587.95 294.62 586.54 294.79 586.37
C 296.15 585.01 323.29 581.65 346.46 579.98
C 361.99 578.87 375.78 577.37 377.09 576.67
C 382.09 574.00 388.75 555.30 399.20 514.60
C 402.47 501.89 405.75 491.13 406.49 490.66
C 408.01 489.73 420.69 488.06 421.34 488.70
C 421.83 489.20 412.71 520.11 403.53 549.08
C 396.90 570.01 396.49 574.39 400.94 576.76
C 402.21 577.45 413.49 578.42 426.00 578.92
C 450.17 579.88 454.29 581.04 448.46 585.15
C 445.89 586.96 442.62 587.13 423.64 586.41
C 397.07 585.39 320.89 588.73 302.57 591.71
C 299.35 592.23 298.05 591.76 296.49 589.52"/>
<path fill="#ef907a" stroke="none" d="
M 305.46 561.88
C 311.44 549.70 330.43 496.21 330.43 491.54
C 330.43 490.34 332.91 489.62 338.46 489.20
C 342.89 488.87 346.65 488.71 346.85 488.85
C 347.04 489.01 341.76 502.95 335.11 519.83
C 328.46 536.72 321.39 555.60 319.38 561.78
C 315.51 573.76 315.67 573.62 305.20 574.95
L 298.63 575.78
L 305.46 561.88"/>
</g>
</svg>
