<?xml version="1.0" encoding="UTF-8" standalone="no"?>
<!DOCTYPE svg PUBLIC "-//W3C//DTD SVG 1.1//EN"
"http://www.w3.org/Graphics/SVG/1.1/DTD/svg11.dtd">
<svg width="645px" height="600px"
xmlns="http://www.w3.org/2000/svg" version="1.1">
<g transform="translate(0000, 0000) scale(1.0000, 1.0000)">
<path fill="#000000" stroke="none" d="
M 240.73 597.53
C 238.51 596.17 236.34 594.49 235.89 593.77
C 235.40 592.97 232.98 593.67 229.64 595.58
C 223.44 599.13 219.43 599.54 217.19 596.85
C 214.03 593.04 220.28 583.75 228.97 579.30
C 240.91 573.21 251.55 571.73 283.30 571.73
C 312.53 571.73 313.11 571.68 315.78 568.83
C 322.95 561.20 335.93 528.76 343.53 499.45
L 346.78 486.90
L 335.93 434.57
C 323.85 376.32 320.25 363.06 314.17 354.60
C 307.74 345.66 275.13 292.93 264.63 274.50
L 255.24 257.99
L 233.93 258.89
C 209.05 259.94 201.66 261.29 174.60 269.77
C 141.68 280.09 125.66 281.96 98.29 278.70
C 53.75 273.39 9.62 250.03 2.03 227.76
C -0.40 220.63 -0.49 218.31 1.54 213.88
C 3.19 210.27 11.02 205.57 15.39 205.57
C 16.91 205.57 18.59 204.33 19.31 202.68
C 20.01 201.08 33.57 158.60 49.45 108.23
C 65.32 57.88 79.21 14.96 80.30 12.84
C 83.93 5.83 87.96 8.81 91.62 21.20
C 92.66 24.73 95.31 32.11 97.50 37.58
C 99.68 43.05 105.86 61.84 111.22 79.34
C 129.50 139.00 144.01 185.64 145.95 190.99
C 148.04 196.79 150.70 198.40 160.61 199.81
C 163.78 200.27 173.61 202.84 182.45 205.52
C 205.22 212.43 207.07 212.62 221.14 209.36
C 227.77 207.83 233.69 206.12 234.28 205.57
C 235.27 204.66 229.14 159.42 223.63 127.01
C 219.18 100.81 212.94 92.69 187.98 80.62
C 179.16 76.36 171.63 72.04 171.23 71.01
C 170.13 68.12 174.12 60.98 178.84 57.46
C 181.18 55.70 188.00 52.12 194.01 49.50
C 207.18 43.76 207.43 43.58 213.02 34.69
C 224.09 17.07 241.21 5.85 263.05 1.85
C 274.07 -0.17 274.99 -0.14 287.00 2.40
C 294.41 3.98 302.69 6.76 307.34 9.24
C 318.27 15.07 333.54 29.90 346.64 47.43
C 358.26 62.98 382.59 91.70 413.70 126.55
C 437.33 153.02 441.61 158.44 445.69 167.02
C 447.54 170.92 449.35 174.37 449.70 174.73
C 450.06 175.09 454.51 180.36 459.59 186.46
L 468.83 197.55
L 478.87 198.41
C 498.00 200.06 539.01 204.32 541.86 204.96
C 547.70 206.27 549.46 202.25 550.45 185.51
C 550.94 177.11 551.89 165.25 552.55 159.15
C 554.69 139.66 559.06 74.60 559.71 52.68
C 560.06 41.02 560.61 30.17 560.94 28.55
C 562.02 23.37 570.23 15.70 577.97 12.67
C 588.89 8.36 605.82 8.56 615.45 13.07
C 632.15 20.90 633.49 24.80 635.99 73.23
C 636.75 87.73 638.49 115.76 639.85 135.55
C 646.98 238.45 646.39 247.64 632.09 255.67
L 626.37 258.89
L 574.71 259.26
L 523.05 259.63
L 531.35 272.48
C 535.93 279.55 542.31 290.60 545.55 297.04
C 553.15 312.15 564.71 332.79 579.68 357.96
C 588.30 372.44 594.99 381.80 603.68 391.54
C 616.00 405.35 619.30 410.80 619.30 417.34
C 619.30 422.07 614.96 427.63 609.49 429.92
C 603.79 432.30 588.58 432.15 573.02 429.57
L 560.26 427.45
L 544.49 432.68
C 512.71 443.23 496.64 444.31 461.26 438.27
C 449.61 436.28 439.86 434.81 439.60 435.02
C 439.36 435.22 442.99 446.39 447.70 459.82
L 456.24 484.24
L 452.37 497.47
C 450.25 504.76 444.47 523.40 439.54 538.92
C 433.36 558.35 430.96 567.61 431.83 568.66
C 432.66 569.67 440.62 570.53 454.96 571.13
C 480.60 572.24 482.26 572.92 489.08 585.22
C 493.91 593.94 494.07 594.72 491.64 598.05
C 489.94 600.37 489.65 600.36 481.04 597.73
C 464.23 592.57 419.73 592.70 346.28 598.12
C 321.68 599.95 320.46 599.92 317.37 597.65
C 314.25 595.35 314.03 595.35 310.29 597.64
C 306.84 599.74 303.23 599.99 275.60 599.99
C 247.48 599.99 244.41 599.77 240.73 597.53
M 299.60 588.32
C 300.37 586.12 302.80 583.19 305.00 581.81
L 309.01 579.28
L 279.46 579.82
C 250.56 580.34 239.63 581.82 239.63 585.17
C 239.63 585.85 241.59 587.73 244.00 589.35
C 248.17 592.16 249.43 592.29 273.29 592.29
L 298.22 592.29
L 299.60 588.32
M 347.55 589.75
C 381.83 587.09 426.63 585.60 447.77 586.41
C 466.74 587.13 470.00 586.96 472.57 585.15
C 478.40 581.04 474.28 579.88 450.13 578.92
C 437.62 578.42 426.36 577.45 425.08 576.76
C 420.64 574.39 421.05 570.01 427.68 549.08
C 436.85 520.11 445.96 489.20 445.47 488.70
C 444.82 488.06 432.15 489.73 430.63 490.66
C 429.89 491.13 426.61 501.89 423.35 514.60
C 412.90 555.30 406.25 574.00 401.25 576.67
C 399.94 577.37 386.16 578.87 370.64 579.98
C 347.49 581.65 320.37 585.01 319.01 586.37
C 318.84 586.54 319.61 587.95 320.70 589.52
C 322.27 591.76 323.57 592.23 326.78 591.71
C 329.01 591.34 338.37 590.47 347.55 589.75
M 337.97 573.57
C 339.16 573.24 341.41 568.51 343.58 561.78
C 345.59 555.60 352.66 536.72 359.30 519.83
C 365.94 502.95 371.22 488.97 371.02 488.78
C 370.82 488.57 367.05 488.74 362.64 489.13
C 357.22 489.62 354.62 490.42 354.62 491.56
C 354.62 496.21 335.63 549.74 329.67 561.88
L 322.85 575.78
L 329.41 574.95
C 333.04 574.50 336.89 573.87 337.97 573.57
M 375.81 571.68
C 384.84 570.95 393.37 569.74 394.75 569.01
C 400.49 565.94 411.57 533.96 417.73 502.70
C 420.48 488.78 420.50 488.24 418.29 482.42
C 417.03 479.14 412.61 472.30 408.46 467.24
C 397.10 453.38 377.53 433.27 378.22 436.19
C 378.56 437.60 379.87 448.38 381.12 460.14
L 383.40 481.52
L 374.20 505.10
C 363.09 533.64 349.48 570.41 349.48 571.93
C 349.48 573.37 355.85 573.30 375.81 571.68
M 371.04 480.51
L 375.54 480.51
L 374.67 471.84
C 373.26 457.81 368.82 433.22 366.46 426.36
C 364.96 422.06 359.54 414.23 349.60 402.08
C 341.53 392.21 334.81 384.28 334.64 384.46
C 334.42 384.72 349.39 457.09 354.08 478.39
C 354.87 481.99 355.08 482.08 360.72 481.31
C 363.92 480.87 368.56 480.51 371.04 480.51
M 443.57 479.36
C 444.09 478.90 441.05 468.13 436.85 455.42
C 429.05 431.90 427.83 425.69 430.83 424.55
C 431.74 424.19 439.38 425.68 447.81 427.85
C 466.39 432.64 486.02 434.80 502.38 433.85
C 514.66 433.14 528.54 429.69 550.36 421.91
L 560.42 418.33
L 569.19 420.59
C 574.01 421.84 583.19 423.19 589.57 423.60
C 602.10 424.42 608.09 422.99 610.40 418.68
C 612.08 415.53 607.34 408.19 588.86 385.35
C 576.81 370.46 572.91 364.36 562.10 343.59
C 544.34 309.47 527.81 280.05 520.15 268.97
L 513.62 259.53
L 450.36 259.53
C 415.58 259.53 384.35 259.16 380.99 258.69
L 374.87 257.86
L 381.28 265.81
C 388.50 274.77 394.91 286.79 397.23 295.71
C 401.87 313.63 385.64 326.94 364.45 322.61
C 352.50 320.17 347.08 317.28 336.31 307.58
C 324.76 297.19 313.97 284.47 304.37 269.95
L 297.47 259.53
L 281.72 259.53
C 273.06 259.53 265.97 259.80 265.97 260.12
C 265.97 261.67 327.64 360.26 333.61 368.24
C 341.82 379.22 355.43 395.02 373.86 414.99
C 394.02 436.83 405.23 449.88 413.94 461.65
C 429.94 483.22 428.50 481.97 436.02 481.03
C 439.65 480.57 443.06 479.82 443.57 479.36
M 382.61 312.77
C 384.19 311.67 386.40 308.99 387.51 306.82
C 391.57 298.96 387.42 288.40 372.21 267.87
L 366.03 259.53
L 336.48 259.53
L 306.93 259.53
L 316.62 272.16
C 334.94 296.07 348.25 308.72 359.34 312.78
C 366.19 315.30 379.01 315.29 382.61 312.77
M 138.97 270.55
C 144.16 269.55 156.79 266.13 167.03 262.95
C 191.74 255.28 199.35 253.40 210.07 252.31
C 215.02 251.81 310.14 251.34 421.43 251.28
C 612.07 251.18 624.04 251.05 627.94 248.92
C 638.36 243.22 638.73 233.24 632.19 138.12
C 630.83 118.33 629.38 94.92 628.96 86.08
C 627.63 57.57 625.42 34.12 623.75 30.84
C 619.55 22.57 609.95 17.72 597.46 17.54
C 586.60 17.38 576.86 20.72 571.99 26.26
L 568.27 30.53
L 567.54 53.49
C 566.82 76.10 562.18 147.35 560.78 157.39
C 560.38 160.21 559.30 172.90 558.37 185.56
C 556.11 216.76 558.64 215.02 521.67 210.71
C 496.44 207.76 461.93 205.04 424.00 203.00
C 409.52 202.21 386.86 200.78 373.64 199.80
C 345.94 197.76 328.09 198.64 294.23 203.74
C 262.55 208.52 246.78 211.53 232.88 215.43
C 222.86 218.26 217.80 218.96 207.50 218.89
C 196.06 218.83 192.87 218.24 178.25 213.48
C 158.73 207.15 150.92 205.59 151.99 208.27
C 156.51 219.56 159.59 231.31 158.82 234.37
C 156.12 245.10 145.34 248.44 113.07 248.53
C 90.89 248.61 88.40 248.36 75.83 244.97
C 59.09 240.46 46.55 234.73 33.70 225.73
C 28.24 221.90 21.84 217.77 19.49 216.58
C 15.57 214.57 14.97 214.56 12.10 216.44
C 8.51 218.80 8.38 219.60 10.73 225.20
C 14.60 234.37 31.98 247.76 52.11 257.06
C 79.46 269.69 114.91 275.20 138.97 270.55
M 106.34 239.29
C 98.96 211.95 86.65 171.11 86.01 171.84
C 84.20 173.88 70.36 232.75 71.45 233.79
C 73.74 235.95 94.71 241.04 102.62 241.36
C 106.16 241.52 106.84 241.13 106.34 239.29
M 139.88 238.27
C 151.06 234.94 151.36 233.36 144.48 213.83
C 141.27 204.69 131.12 172.93 121.92 143.25
C 100.81 75.06 90.54 43.45 86.95 35.46
L 84.09 29.16
L 56.17 117.69
C 40.81 166.38 28.24 206.92 28.25 207.79
C 28.27 208.65 31.16 211.64 34.69 214.45
C 42.27 220.43 60.26 231.82 60.99 231.08
C 61.27 230.80 65.59 214.11 70.59 193.98
C 75.59 173.86 80.54 155.51 81.58 153.21
C 83.97 147.96 87.90 147.67 90.39 152.57
C 91.38 154.51 97.53 174.89 104.07 197.86
C 110.60 220.83 116.24 240.12 116.61 240.73
C 117.49 242.22 131.58 240.72 139.88 238.27
M 286.20 186.45
C 294.27 167.70 306.22 157.63 329.95 149.55
C 348.83 143.11 369.51 140.54 388.02 142.34
C 401.33 143.64 412.31 145.80 419.51 148.55
C 422.47 149.68 418.90 145.44 381.57 103.50
C 367.06 87.21 349.66 66.94 342.89 58.46
C 336.13 49.98 325.64 37.79 319.56 31.36
C 307.07 18.15 299.89 14.09 282.76 10.55
C 273.03 8.54 272.44 8.57 261.97 11.37
C 241.88 16.74 231.12 23.72 222.72 36.86
L 218.36 43.66
L 220.79 48.49
C 225.22 57.31 227.72 66.73 226.85 71.36
C 226.41 73.77 224.07 78.31 221.68 81.46
L 217.31 87.16
L 222.40 97.22
C 228.71 109.70 231.22 121.04 237.04 163.17
C 239.52 181.19 241.86 197.70 242.22 199.89
L 242.88 203.83
L 262.23 200.49
L 281.59 197.14
L 286.20 186.45
M 444.56 193.53
C 444.56 188.31 439.68 174.89 436.03 170.12
C 419.75 148.78 369.00 143.31 328.55 158.52
C 310.92 165.16 299.32 175.30 294.55 188.26
C 291.57 196.36 290.96 196.00 304.51 194.02
C 329.05 190.46 349.21 189.91 376.21 192.05
C 398.28 193.81 419.91 195.26 441.03 196.38
C 443.95 196.54 444.56 196.03 444.56 193.53
M 214.97 76.82
C 216.33 74.98 217.06 72.85 216.58 72.08
C 216.04 71.19 210.78 70.68 202.61 70.69
L 189.52 70.73
L 196.96 73.79
C 201.04 75.47 205.67 77.73 207.24 78.82
C 210.77 81.28 211.85 80.99 214.97 76.82
M 216.63 62.44
C 217.01 61.45 216.11 58.27 214.64 55.37
L 211.95 50.11
L 199.13 56.54
C 192.07 60.08 186.30 63.26 186.30 63.61
C 186.30 63.96 192.97 64.24 201.12 64.24
C 212.64 64.24 216.09 63.84 216.63 62.44"/>
<path fill="#000000" stroke="none" d="
M 253.66 64.37
C 247.66 61.64 243.65 57.08 241.48 50.51
C 238.46 41.34 244.71 30.22 255.12 26.24
C 259.97 24.39 261.74 24.28 265.95 25.54
C 277.17 28.90 284.47 40.32 281.58 49.98
C 279.53 56.79 275.45 61.57 269.28 64.37
C 262.72 67.35 260.22 67.35 253.66 64.37
M 269.20 57.04
C 273.28 54.37 276.51 47.15 275.49 43.04
C 274.41 38.74 268.29 32.66 263.94 31.57
C 258.87 30.30 258.46 31.85 262.95 35.36
C 268.81 39.96 270.54 44.98 267.97 49.97
C 266.84 52.15 264.48 54.87 262.73 56.03
C 260.98 57.17 259.54 58.69 259.54 59.38
C 259.54 61.01 265.27 59.61 269.20 57.04"/>
<path fill="#ffd700" stroke="none" d="
M 354.08 478.39
C 349.39 457.09 334.42 384.72 334.64 384.46
C 334.81 384.28 341.53 392.21 349.60 402.08
C 359.54 414.23 364.96 422.06 366.46 426.36
C 368.82 433.22 373.26 457.81 374.67 471.84
L 375.54 480.51
L 371.04 480.51
C 368.56 480.51 363.92 480.87 360.72 481.31
C 355.08 482.08 354.87 481.99 354.08 478.39"/>
<path fill="#ffd700" stroke="none" d="
M 425.57 477.01
C 423.46 474.35 418.23 467.43 413.94 461.65
C 405.23 449.88 394.02 436.83 373.86 414.99
C 355.43 395.02 341.82 379.22 333.61 368.24
C 327.64 360.26 265.97 261.67 265.97 260.12
C 265.97 259.80 273.06 259.53 281.72 259.53
L 297.47 259.53
L 304.37 269.95
C 313.97 284.47 324.76 297.19 336.31 307.58
C 347.08 317.28 352.50 320.17 364.45 322.61
C 385.64 326.94 401.87 313.63 397.23 295.71
C 394.91 286.79 388.50 274.77 381.28 265.81
L 374.87 257.86
L 380.99 258.69
C 384.35 259.16 415.58 259.53 450.36 259.53
L 513.62 259.53
L 520.15 268.97
C 527.81 280.05 544.34 309.47 562.10 343.59
C 572.91 364.36 576.81 370.46 588.86 385.35
C 607.34 408.19 612.08 415.53 610.40 418.68
C 608.09 422.99 602.10 424.42 589.57 423.60
C 583.19 423.19 574.01 421.84 569.19 420.59
L 560.42 418.33
L 550.36 421.91
C 528.54 429.69 514.66 433.14 502.38 433.85
C 486.02 434.80 466.39 432.64 447.81 427.85
C 439.38 425.68 431.74 424.19 430.83 424.55
C 427.83 425.69 429.05 431.90 436.85 455.42
C 441.05 468.13 444.09 478.90 443.57 479.36
C 443.06 479.82 439.65 480.57 436.02 481.03
C 429.53 481.84 429.34 481.76 425.57 477.01"/>
<path fill="#ffd700" stroke="none" d="
M 359.34 312.78
C 348.25 308.72 334.94 296.07 316.62 272.16
L 306.93 259.53
L 336.48 259.53
L 366.03 259.53
L 372.21 267.87
C 387.42 288.40 391.57 298.96 387.51 306.82
C 386.40 308.99 384.19 311.67 382.61 312.77
C 379.01 315.29 366.19 315.30 359.34 312.78"/>
<path fill="#ffd700" stroke="none" d="
M 242.22 199.89
C 241.86 197.70 239.52 181.19 237.04 163.17
C 231.22 121.04 228.71 109.70 222.40 97.22
L 217.31 87.16
L 221.68 81.46
C 224.07 78.31 226.41 73.77 226.85 71.36
C 227.72 66.73 225.22 57.31 220.79 48.49
L 218.36 43.66
L 222.72 36.86
C 231.25 23.52 242.65 16.24 262.74 11.28
C 273.34 8.66 274.10 8.63 283.39 10.65
C 300.25 14.31 307.18 18.28 319.56 31.36
C 325.64 37.79 336.13 49.98 342.89 58.46
C 349.66 66.94 367.06 87.21 381.57 103.50
C 418.90 145.44 422.47 149.68 419.51 148.55
C 412.31 145.80 401.33 143.64 388.02 142.34
C 369.51 140.54 348.83 143.11 329.95 149.55
C 306.22 157.63 294.27 167.70 286.20 186.45
L 281.59 197.14
L 262.23 200.49
L 242.88 203.83
L 242.22 199.89
M 269.28 64.37
C 275.45 61.57 279.53 56.79 281.58 49.98
C 284.47 40.32 277.17 28.90 265.95 25.54
C 252.45 21.49 237.07 37.17 241.48 50.51
C 243.65 57.08 247.66 61.64 253.66 64.37
C 260.22 67.35 262.72 67.35 269.28 64.37"/>
<path fill="#ffd700" stroke="none" d="
M 420.15 195.19
C 410.60 194.63 390.83 193.22 376.21 192.05
C 349.21 189.91 329.05 190.46 304.51 194.02
C 290.96 196.00 291.57 196.36 294.55 188.26
C 299.32 175.30 310.92 165.16 328.55 158.52
C 369.00 143.31 419.75 148.78 436.03 170.12
C 439.68 174.89 444.56 188.31 444.56 193.53
C 444.56 196.03 443.95 196.54 441.03 196.38
C 439.09 196.28 429.70 195.74 420.15 195.19"/>
<path fill="#ae3c2a" stroke="none" d="
M 97.01 270.35
C 59.53 264.55 18.18 242.93 10.73 225.20
C 8.38 219.60 8.51 218.80 12.10 216.44
C 14.97 214.56 15.57 214.57 19.49 216.58
C 21.84 217.77 28.24 221.90 33.70 225.73
C 46.55 234.73 59.09 240.46 75.83 244.97
C 88.40 248.36 90.89 248.61 113.07 248.53
C 145.34 248.44 156.12 245.10 158.82 234.37
C 159.59 231.31 156.51 219.56 151.99 208.27
C 150.92 205.59 158.73 207.15 178.25 213.48
C 192.87 218.24 196.06 218.83 207.50 218.89
C 217.80 218.96 222.86 218.26 232.88 215.43
C 246.78 211.53 262.55 208.52 294.23 203.74
C 328.09 198.64 345.94 197.76 373.64 199.80
C 386.86 200.78 409.52 202.21 424.00 203.00
C 461.93 205.04 496.44 207.76 521.67 210.71
C 548.57 213.85 550.19 213.87 553.81 210.94
C 556.49 208.77 556.83 206.85 558.37 185.56
C 559.30 172.90 560.38 160.21 560.78 157.39
C 562.18 147.35 566.82 76.10 567.54 53.49
L 568.27 30.53
L 571.99 26.26
C 576.79 20.80 586.51 17.49 597.46 17.58
C 609.90 17.68 619.53 22.54 623.75 30.84
C 625.42 34.12 627.63 57.57 628.96 86.08
C 629.38 94.92 630.83 118.33 632.19 138.12
C 638.73 233.24 638.36 243.22 627.94 248.92
C 624.04 251.05 612.07 251.18 421.43 251.28
C 310.14 251.34 215.02 251.81 210.07 252.31
C 199.35 253.40 191.74 255.28 167.03 262.95
C 135.50 272.74 121.87 274.18 97.01 270.35"/>
<path fill="#c57a36" stroke="none" d="
M 116.61 240.73
C 116.24 240.12 110.60 220.83 104.07 197.86
C 97.53 174.89 91.38 154.51 90.39 152.57
C 87.90 147.67 83.97 147.96 81.58 153.21
C 80.54 155.51 75.59 173.86 70.59 193.98
C 65.59 214.11 61.27 230.80 60.99 231.08
C 60.26 231.82 42.27 220.43 34.69 214.45
C 31.16 211.64 28.27 208.61 28.27 207.69
C 28.27 205.67 82.08 34.86 83.57 32.12
C 85.67 28.29 92.02 46.69 121.92 143.25
C 131.12 172.93 141.27 204.69 144.48 213.83
C 151.36 233.36 151.06 234.94 139.88 238.27
C 131.58 240.72 117.49 242.22 116.61 240.73"/>
<path fill="#eb2e00" stroke="none" d="
M 259.54 59.38
C 259.54 58.69 261.01 57.15 262.81 55.98
C 264.60 54.80 266.98 51.93 268.09 49.61
C 269.92 45.75 269.92 45.03 268.01 41.33
C 266.85 39.11 264.45 36.32 262.66 35.15
C 257.81 31.98 260.76 30.08 266.40 32.75
C 271.05 34.96 273.89 38.25 275.50 43.32
C 276.63 46.95 273.20 54.41 269.20 57.04
C 265.27 59.61 259.54 61.01 259.54 59.38"/>
<path fill="#ef907a" stroke="none" d="
M 244.00 589.35
C 241.59 587.73 239.63 585.85 239.63 585.17
C 239.63 581.82 250.56 580.34 279.46 579.82
L 309.01 579.28
L 305.00 581.81
C 302.80 583.19 300.37 586.12 299.60 588.32
L 298.22 592.29
L 273.29 592.29
C 249.43 592.29 248.17 592.16 244.00 589.35"/>
<path fill="#ef907a" stroke="none" d="
M 320.70 589.52
C 319.61 587.95 318.84 586.54 319.01 586.37
C 320.37 585.01 347.49 581.65 370.64 579.98
C 386.16 578.87 399.94 577.37 401.25 576.67
C 406.25 574.00 412.90 555.30 423.35 514.60
C 426.61 501.89 429.89 491.13 430.63 490.66
C 432.15 489.73 444.82 488.06 445.47 488.70
C 445.96 489.20 436.85 520.11 427.68 549.08
C 421.05 570.01 420.64 574.39 425.08 576.76
C 426.36 577.45 437.62 578.42 450.13 578.92
C 474.28 579.88 478.40 581.04 472.57 585.15
C 470.00 586.96 466.74 587.13 447.77 586.41
C 421.22 585.39 345.09 588.73 326.78 591.71
C 323.57 592.23 322.27 591.76 320.70 589.52"/>
<path fill="#ef907a" stroke="none" d="
M 329.67 561.88
C 335.63 549.74 354.62 496.21 354.62 491.56
C 354.62 490.42 357.22 489.62 362.64 489.13
C 367.05 488.74 370.82 488.57 371.02 488.78
C 371.22 488.97 365.94 502.95 359.30 519.83
C 352.66 536.72 345.59 555.60 343.58 561.78
C 339.72 573.76 339.87 573.62 329.41 574.95
L 322.85 575.78
L 329.67 561.88"/>
<path fill="#ef907a" stroke="none" d="
M 207.24 78.82
C 205.67 77.73 201.04 75.47 196.96 73.79
L 189.52 70.73
L 202.61 70.69
C 210.78 70.68 216.04 71.19 216.58 72.08
C 217.48 73.52 213.47 79.88 211.28 80.47
C 210.61 80.65 208.80 79.91 207.24 78.82"/>
<path fill="#ef907a" stroke="none" d="
M 186.30 63.61
C 186.30 62.63 209.16 51.39 211.14 51.39
C 213.27 51.39 217.77 60.89 216.56 62.84
C 215.73 64.21 186.30 64.96 186.30 63.61"/>
<path fill="#cf9e66" stroke="none" d="
M 95.08 240.64
C 88.91 239.60 72.58 234.86 71.45 233.79
C 70.53 232.91 84.07 174.13 85.64 172.27
C 85.88 171.97 86.39 172.03 86.77 172.41
C 87.38 173.04 106.64 239.33 106.64 240.86
C 106.64 241.62 100.06 241.49 95.08 240.64"/>
</g>
</svg>
