<?xml version="1.0" encoding="UTF-8" standalone="no"?>
<!DOCTYPE svg PUBLIC "-//W3C//DTD SVG 1.1//EN"
"http://www.w3.org/Graphics/SVG/1.1/DTD/svg11.dtd">
<svg width="805px" height="400px"
xmlns="http://www.w3.org/2000/svg" version="1.1">
<g transform="translate(0000, 0000) scale(1.0000, 1.0000)">
<path fill="#000000" stroke="none" d="
M 374.59 399.64
C 339.00 397.88 313.90 395.33 285.51 390.57
C 200.27 376.27 119.54 346.62 44.97 302.22
C 36.00 296.88 35.31 296.33 27.06 287.79
C 8.66 268.75 0.02 252.28 0.01 236.21
C 0.00 231.72 0.18 230.73 1.21 229.70
C 2.91 228.00 3.95 228.18 5.54 230.45
C 12.53 240.45 24.91 249.99 43.14 259.41
L 52.36 264.18
L 60.31 262.39
C 64.67 261.41 71.93 259.55 76.44 258.25
C 88.77 254.70 94.20 254.09 102.97 255.29
C 123.01 258.02 165.10 262.57 165.62 262.05
C 165.97 261.70 164.63 258.76 162.04 254.22
C 159.76 250.24 155.16 241.84 151.82 235.57
L 145.74 224.18
L 138.54 219.44
C 130.44 214.12 122.70 206.87 114.69 197.09
C 108.95 190.08 109.73 190.21 103.51 195.26
C 94.63 202.47 70.44 217.49 45.19 231.48
C 30.84 239.42 28.46 240.45 26.43 239.53
C 23.44 238.16 21.46 227.23 22.14 215.76
C 22.89 202.82 24.90 194.83 29.18 187.87
C 30.74 185.31 58.79 154.12 74.44 137.52
L 76.49 135.35
L 74.82 130.55
C 73.37 126.42 73.14 124.84 73.15 119.09
C 73.17 110.56 75.03 103.53 82.11 85.10
C 89.73 65.27 91.74 57.73 91.21 50.91
C 90.55 42.57 89.38 41.73 77.99 41.51
C 69.25 41.33 66.10 40.55 62.44 37.61
L 60.27 35.87
L 46.36 39.54
C 38.72 41.56 31.81 43.23 31.02 43.27
C 29.06 43.36 28.00 41.65 29.14 40.27
C 29.62 39.70 34.57 37.05 40.16 34.38
C 45.75 31.71 50.17 29.29 49.99 29.01
C 49.82 28.72 46.19 28.48 41.94 28.48
C 36.18 28.48 33.90 28.26 33.03 27.62
C 30.75 25.94 32.86 25.18 40.68 24.85
L 47.94 24.55
L 38.47 20.30
C 33.26 17.97 28.86 15.72 28.69 15.30
C 28.22 14.15 29.68 12.73 31.33 12.73
C 32.12 12.73 38.82 13.82 46.21 15.16
C 53.60 16.49 59.68 17.52 59.74 17.43
C 64.89 8.68 70.71 3.79 78.81 1.40
C 83.61 -0.02 93.31 0.01 97.67 1.46
C 106.46 4.39 112.60 9.50 115.96 16.68
C 119.54 24.32 119.07 33.19 114.23 49.39
C 110.19 62.96 109.05 68.27 109.01 73.64
C 108.99 77.42 109.26 79.02 110.25 80.93
C 112.14 84.58 116.40 88.21 120.20 89.41
C 123.14 90.33 123.69 90.35 125.58 89.53
C 128.72 88.19 136.90 81.10 160.08 59.63
C 171.56 49.00 182.34 39.24 184.05 37.94
C 190.88 32.73 207.45 26.03 218.78 23.90
C 230.68 21.66 245.31 25.62 253.81 33.39
C 259.80 38.85 259.40 40.08 250.04 44.88
C 242.77 48.61 236.17 52.98 232.48 56.49
C 227.71 61.04 217.55 73.41 205.95 88.79
C 199.16 97.79 191.54 107.85 189.00 111.15
C 184.74 116.70 184.45 117.25 185.23 118.42
C 186.84 120.87 196.33 128.02 206.86 134.73
C 233.88 151.95 244.11 159.13 251.08 165.81
C 259.24 173.61 263.81 179.53 268.03 187.74
C 271.01 193.55 271.34 193.95 273.69 194.65
C 280.09 196.56 280.74 205.82 274.88 211.50
L 272.05 214.24
L 271.29 221.04
C 269.38 238.21 260.54 253.76 247.91 262.13
C 237.55 269.01 221.87 269.67 204.44 263.98
C 200.94 262.84 197.99 262.00 197.88 262.11
C 197.77 262.22 198.24 264.21 198.93 266.52
C 200.90 273.11 200.69 274.67 197.37 278.21
L 194.56 281.21
L 239.82 281.21
C 279.91 281.21 285.04 281.11 284.73 280.30
C 284.18 278.88 285.94 276.74 288.96 275.13
C 290.61 274.26 291.86 273.13 292.07 272.32
C 292.80 269.41 300.91 266.15 315.82 262.78
C 321.19 261.56 329.24 259.52 333.71 258.23
C 345.99 254.70 351.42 254.10 360.18 255.29
C 380.22 258.02 422.31 262.57 422.83 262.05
C 423.19 261.70 421.84 258.76 419.25 254.22
C 416.97 250.24 412.37 241.84 409.03 235.57
L 402.95 224.18
L 395.75 219.44
C 387.66 214.12 379.92 206.87 371.90 197.09
C 366.16 190.08 366.95 190.21 360.72 195.26
C 351.85 202.47 327.65 217.49 302.40 231.48
C 288.05 239.42 285.67 240.45 283.64 239.53
C 280.65 238.16 278.67 227.23 279.35 215.76
C 280.10 202.82 282.11 194.83 286.39 187.87
C 287.96 185.31 316.01 154.12 331.65 137.52
L 333.70 135.35
L 332.03 130.55
C 330.58 126.42 330.35 124.84 330.37 119.09
C 330.38 110.56 332.24 103.53 339.32 85.10
C 346.94 65.27 348.95 57.73 348.42 50.91
C 347.76 42.57 346.59 41.73 335.20 41.51
C 326.46 41.33 323.31 40.55 319.65 37.61
L 317.49 35.87
L 303.58 39.54
C 295.93 41.56 289.02 43.23 288.23 43.27
C 286.27 43.36 285.21 41.65 286.35 40.27
C 286.83 39.70 291.78 37.05 297.37 34.38
C 302.96 31.71 307.38 29.29 307.20 29.01
C 307.03 28.72 303.40 28.48 299.15 28.48
C 293.39 28.48 291.12 28.26 290.24 27.62
C 287.96 25.94 290.07 25.18 297.89 24.85
L 305.15 24.55
L 295.68 20.30
C 290.47 17.97 286.07 15.72 285.90 15.30
C 285.43 14.15 286.89 12.73 288.54 12.73
C 289.33 12.73 296.03 13.82 303.42 15.16
C 310.81 16.49 316.89 17.52 316.95 17.43
C 322.10 8.70 327.88 3.82 336.02 1.38
C 340.77 -0.04 350.48 -0.01 354.88 1.46
C 363.66 4.38 369.81 9.50 373.18 16.68
C 376.75 24.32 376.28 33.19 371.45 49.39
C 367.40 62.96 366.26 68.27 366.22 73.64
C 366.20 77.42 366.47 79.02 367.46 80.93
C 369.35 84.58 373.61 88.21 377.42 89.41
C 380.35 90.33 380.90 90.35 382.80 89.53
C 385.93 88.19 394.11 81.10 417.30 59.63
C 428.77 49.00 439.55 39.24 441.26 37.94
C 448.09 32.73 464.66 26.03 475.99 23.90
C 487.90 21.66 502.52 25.62 511.03 33.39
C 517.01 38.85 516.61 40.08 507.25 44.88
C 499.99 48.61 493.38 52.98 489.69 56.49
C 484.92 61.04 474.76 73.41 463.16 88.79
C 456.37 97.79 448.75 107.85 446.21 111.15
C 441.96 116.70 441.66 117.25 442.44 118.42
C 444.05 120.87 453.54 128.02 464.07 134.73
C 491.09 151.95 501.33 159.13 508.30 165.81
C 516.45 173.61 521.02 179.53 525.25 187.74
C 528.22 193.55 528.55 193.95 530.90 194.65
C 537.30 196.56 537.95 205.82 532.09 211.50
L 529.26 214.24
L 528.50 221.04
C 526.59 238.21 517.75 253.76 505.12 262.13
C 494.76 269.01 479.08 269.67 461.65 263.98
C 458.15 262.84 455.20 262.00 455.09 262.11
C 454.98 262.22 455.45 264.21 456.14 266.52
C 458.11 273.11 457.90 274.67 454.59 278.21
L 451.78 281.21
L 497.33 281.21
C 537.69 281.21 542.86 281.11 542.55 280.30
C 542.00 278.88 543.75 276.74 546.78 275.13
C 548.43 274.26 549.68 273.13 549.89 272.32
C 550.62 269.41 558.73 266.15 573.64 262.78
C 579.01 261.56 587.06 259.52 591.53 258.23
C 603.80 254.70 609.24 254.10 618.00 255.29
C 638.04 258.02 680.13 262.57 680.65 262.05
C 681.00 261.70 679.66 258.76 677.07 254.22
C 674.79 250.24 670.19 241.84 666.85 235.57
L 660.77 224.18
L 653.57 219.44
C 645.47 214.12 637.73 206.87 629.72 197.09
C 623.98 190.08 624.76 190.21 618.54 195.26
C 609.66 202.47 585.47 217.49 560.22 231.48
C 545.87 239.42 543.49 240.45 541.46 239.53
C 538.47 238.16 536.49 227.23 537.17 215.76
C 537.92 202.82 539.93 194.83 544.21 187.87
C 545.77 185.31 573.82 154.12 589.47 137.52
L 591.52 135.35
L 589.85 130.55
C 588.40 126.42 588.17 124.84 588.18 119.09
C 588.20 110.56 590.06 103.53 597.14 85.10
C 604.76 65.27 606.77 57.73 606.24 50.91
C 605.58 42.57 604.41 41.73 593.02 41.51
C 584.28 41.33 581.13 40.55 577.47 37.61
L 575.31 35.87
L 561.39 39.54
C 553.75 41.56 546.84 43.23 546.05 43.27
C 544.09 43.36 543.03 41.65 544.17 40.27
C 544.65 39.70 549.60 37.05 555.19 34.38
C 560.78 31.71 565.20 29.29 565.02 29.01
C 564.85 28.72 561.22 28.48 556.97 28.48
C 551.21 28.48 548.93 28.26 548.06 27.62
C 545.78 25.94 547.89 25.18 555.71 24.85
L 562.97 24.55
L 553.50 20.30
C 548.29 17.97 543.89 15.72 543.72 15.30
C 543.25 14.15 544.71 12.73 546.36 12.73
C 547.15 12.73 553.85 13.82 561.24 15.16
C 568.63 16.49 574.71 17.52 574.77 17.43
C 579.92 8.70 585.70 3.82 593.84 1.38
C 598.59 -0.04 608.29 -0.01 612.70 1.46
C 621.48 4.38 627.63 9.50 630.99 16.68
C 634.57 24.32 634.10 33.19 629.26 49.39
C 625.22 62.96 624.08 68.27 624.04 73.64
C 624.02 77.42 624.29 79.02 625.28 80.93
C 627.17 84.58 631.43 88.21 635.23 89.41
C 638.17 90.33 638.72 90.35 640.61 89.53
C 643.75 88.19 651.93 81.10 675.11 59.63
C 686.59 49.00 697.37 39.24 699.08 37.94
C 705.91 32.73 722.48 26.03 733.81 23.90
C 745.71 21.66 760.34 25.62 768.84 33.39
C 774.83 38.85 774.43 40.08 765.07 44.88
C 757.80 48.61 751.20 52.98 747.51 56.49
C 742.74 61.04 732.58 73.41 720.98 88.79
C 714.19 97.79 706.57 107.85 704.03 111.15
C 699.77 116.70 699.48 117.25 700.26 118.42
C 701.87 120.87 711.36 128.02 721.89 134.73
C 748.91 151.95 759.14 159.13 766.11 165.81
C 774.27 173.61 778.84 179.53 783.06 187.74
C 786.04 193.55 786.37 193.95 788.72 194.65
C 795.09 196.55 795.79 205.95 789.97 211.38
L 787.20 213.98
L 786.38 220.78
C 785.03 231.96 781.96 240.27 775.89 249.15
C 774.55 251.12 773.63 252.73 773.86 252.73
C 774.07 252.73 777.41 250.36 781.26 247.47
C 788.98 241.68 795.17 235.79 798.25 231.33
C 802.00 225.88 804.64 228.96 804.62 238.79
C 804.61 251.23 795.90 267.50 780.94 283.01
C 776.71 287.39 772.44 291.40 771.44 291.92
C 770.44 292.44 768.37 294.02 766.84 295.44
C 759.87 301.91 716.09 325.71 687.31 338.68
C 610.56 373.29 531.73 392.82 444.66 398.81
C 435.53 399.44 383.14 400.06 374.59 399.64
M 440.41 394.56
C 519.91 389.21 592.88 372.27 664.26 342.59
C 700.57 327.49 748.67 302.22 766.92 288.65
C 783.42 276.39 795.91 259.12 799.81 243.18
C 801.45 236.51 800.90 236.28 795.72 241.45
C 787.98 249.18 776.83 256.78 763.23 263.59
C 749.43 270.51 737.99 274.66 718.77 279.75
C 696.55 285.62 727.08 285.08 407.35 285.31
C 215.09 285.45 124.00 285.31 118.60 284.87
C 93.85 282.88 79.01 279.57 58.98 271.58
C 37.20 262.88 19.54 252.30 8.69 241.47
C 4.48 237.27 4.25 237.12 4.25 238.72
C 4.25 242.12 6.75 250.15 9.71 256.25
C 14.47 266.10 19.30 272.62 29.11 282.48
C 37.61 291.01 38.27 291.53 48.23 297.42
C 117.08 338.20 188.31 365.98 263.67 381.45
C 302.11 389.34 333.45 393.13 378.84 395.40
C 386.80 395.79 430.98 395.19 440.41 394.56
M 171.37 280.27
C 159.91 277.71 96.24 268.17 95.14 268.85
C 94.85 269.02 95.58 270.34 96.75 271.77
C 97.92 273.20 99.17 275.20 99.53 276.22
C 100.28 278.39 100.40 278.42 110.41 279.66
C 121.33 281.01 121.02 280.99 149.23 281.04
C 172.16 281.08 174.61 281.00 171.37 280.27
M 348.21 280.87
C 348.21 280.25 341.43 277.54 337.67 276.65
C 331.99 275.32 328.89 275.57 316.06 278.45
L 304.23 281.10
L 326.22 281.16
C 338.31 281.19 348.21 281.06 348.21 280.87
M 427.07 279.95
C 412.19 276.95 353.40 268.20 352.37 268.84
C 352.09 269.01 352.94 270.52 354.26 272.18
C 356.61 275.15 357.78 278.50 357.09 280.30
C 356.78 281.11 361.12 281.21 394.78 281.16
L 432.83 281.11
L 427.07 279.95
M 603.30 279.38
C 598.92 277.30 592.60 275.75 588.61 275.78
C 587.01 275.79 580.38 276.99 573.87 278.45
L 562.04 281.10
L 584.49 281.10
L 606.93 281.11
L 603.30 279.38
M 683.67 280.68
C 686.89 280.29 686.93 280.26 684.89 279.87
C 667.50 276.58 611.13 268.25 610.19 268.84
C 609.91 269.01 610.76 270.52 612.08 272.18
C 614.43 275.15 615.60 278.50 614.91 280.30
C 614.60 281.11 618.37 281.21 647.45 281.15
C 665.54 281.12 681.84 280.91 683.67 280.68
M 191.47 278.23
C 192.52 277.59 194.07 276.16 194.93 275.03
C 196.42 273.09 196.45 272.85 195.74 270.04
L 194.98 267.08
L 188.21 266.92
C 182.60 266.78 180.58 266.45 176.32 264.98
L 171.18 263.21
L 170.54 264.62
C 169.66 266.55 167.50 266.95 162.38 266.12
C 156.12 265.10 104.35 258.85 98.58 258.41
C 94.36 258.10 92.44 258.34 84.02 260.25
C 65.49 264.47 58.48 266.39 59.77 266.92
C 64.59 268.87 72.07 271.10 76.28 271.85
C 79.03 272.33 84.02 273.82 87.39 275.16
C 90.75 276.50 93.75 277.44 94.07 277.25
C 94.86 276.76 93.72 274.76 90.91 271.68
C 86.97 267.37 88.02 264.85 93.75 264.85
C 101.61 264.85 163.51 274.15 180.17 277.83
C 188.23 279.61 189.15 279.65 191.47 278.23
M 311.69 275.41
C 319.13 273.57 326.56 271.90 328.20 271.70
C 332.23 271.23 337.55 272.36 344.74 275.22
C 348.02 276.53 350.97 277.44 351.28 277.25
C 352.07 276.76 350.93 274.76 348.12 271.68
C 344.18 267.38 345.23 264.85 350.94 264.85
C 353.90 264.85 397.97 270.71 410.39 272.76
C 414.39 273.42 424.13 275.22 432.02 276.76
L 446.39 279.56
L 448.34 278.42
C 449.42 277.79 451.06 276.32 451.99 275.15
C 453.58 273.16 453.65 272.86 453.03 270.23
L 452.38 267.43
L 444.73 267.12
C 438.52 266.88 436.29 266.53 432.87 265.26
L 428.66 263.70
L 427.22 265.26
C 425.95 266.62 425.43 266.78 422.94 266.48
C 421.37 266.31 406.72 264.50 390.37 262.47
C 351.09 257.59 352.57 257.68 343.66 259.68
C 325.66 263.70 301.65 270.01 300.62 270.98
C 299.79 271.75 300.93 271.66 305.85 270.54
C 310.53 269.48 313.29 270.01 312.91 271.90
C 312.77 272.61 310.44 273.42 304.23 274.93
C 293.39 277.56 293.89 277.36 294.87 278.53
C 295.34 279.11 296.15 279.34 296.90 279.13
C 297.60 278.93 304.25 277.26 311.69 275.41
M 569.51 275.41
C 576.95 273.57 584.38 271.90 586.02 271.70
C 590.05 271.23 595.37 272.36 602.55 275.22
C 605.84 276.53 608.79 277.44 609.10 277.25
C 609.89 276.76 608.75 274.76 605.94 271.68
C 602.00 267.38 603.05 264.85 608.75 264.85
C 611.72 264.85 655.79 270.71 668.20 272.76
C 672.21 273.42 681.94 275.22 689.84 276.76
L 704.21 279.56
L 706.16 278.42
C 707.24 277.79 708.88 276.32 709.82 275.15
L 711.53 273.03
L 710.61 269.39
L 709.69 265.76
L 702.87 265.66
C 696.38 265.57 692.31 264.70 686.60 262.17
C 685.80 261.82 685.65 261.98 685.90 262.93
C 686.09 263.68 685.71 264.63 684.87 265.47
C 683.75 266.59 683.07 266.75 680.72 266.48
C 679.18 266.31 664.53 264.50 648.19 262.47
C 608.91 257.59 610.39 257.68 601.48 259.68
C 583.48 263.70 559.47 270.01 558.43 270.98
C 557.60 271.75 558.74 271.66 563.66 270.54
C 568.35 269.48 571.11 270.01 570.73 271.90
C 570.59 272.61 568.26 273.42 562.04 274.93
C 551.20 277.56 551.71 277.36 552.68 278.53
C 553.16 279.11 553.96 279.34 554.72 279.13
C 555.41 278.93 562.07 277.26 569.51 275.41
M 724.01 273.72
C 728.02 272.55 733.62 270.77 736.45 269.78
C 741.60 267.97 741.61 267.97 738.88 267.92
C 734.40 267.84 726.25 266.19 719.47 263.98
C 715.97 262.84 713.02 262.00 712.91 262.11
C 712.80 262.22 713.30 264.30 714.03 266.74
C 714.89 269.64 715.24 272.08 715.05 273.82
C 714.79 276.07 714.90 276.42 715.74 276.16
C 716.29 276.00 720.01 274.90 724.01 273.72
M 193.87 264.09
C 194.06 263.90 193.22 260.55 192.01 256.65
C 190.79 252.76 189.95 249.17 190.14 248.68
C 190.33 248.18 191.05 247.88 191.82 247.99
C 192.84 248.13 193.50 249.08 194.61 251.98
C 196.23 256.24 197.80 257.47 205.10 260.20
C 212.11 262.82 218.14 263.90 225.67 263.89
C 231.66 263.88 233.27 263.66 237.09 262.28
C 239.54 261.41 243.07 259.79 244.95 258.68
C 252.02 254.49 259.57 245.53 263.88 236.20
C 265.86 231.93 267.22 225.73 267.85 218.18
C 268.30 212.65 269.24 210.12 271.20 209.07
C 274.11 207.52 275.77 202.12 274.05 199.84
C 273.63 199.28 272.21 198.48 270.89 198.05
C 268.72 197.35 268.17 196.70 265.12 191.21
C 253.80 170.88 244.16 162.36 204.43 137.58
C 193.74 130.91 189.56 127.90 184.22 123.02
L 180.86 119.96
L 175.29 124.02
C 170.86 127.26 169.52 127.96 168.73 127.47
C 166.78 126.24 167.35 125.00 171.19 122.08
C 181.90 113.96 184.54 110.97 204.58 84.14
C 217.20 67.25 225.83 56.70 230.33 52.66
C 233.89 49.46 239.07 46.08 246.44 42.16
C 253.74 38.27 253.79 38.15 249.48 34.56
C 240.17 26.82 223.19 25.41 206.68 30.99
C 200.90 32.95 193.61 36.54 189.45 39.48
C 184.16 43.22 171.12 54.74 156.20 68.85
C 142.89 81.44 137.04 86.45 130.43 90.95
C 126.82 93.41 126.17 93.64 122.84 93.60
C 118.38 93.56 114.30 91.61 110.62 87.78
C 103.69 80.53 103.46 73.89 109.45 53.24
C 113.68 38.64 114.31 35.45 114.30 28.79
C 114.28 21.19 112.87 17.22 108.51 12.45
C 103.08 6.52 95.60 3.85 85.95 4.39
C 81.39 4.65 79.96 5.02 76.19 6.88
C 67.51 11.17 62.51 18.04 62.04 26.33
C 61.73 31.87 62.94 33.99 67.64 36.14
C 70.56 37.47 71.90 37.67 79.00 37.81
C 85.92 37.94 87.41 38.15 89.62 39.29
C 93.07 41.08 94.38 43.81 94.89 50.30
C 95.52 58.39 94.17 63.66 85.26 87.81
C 77.05 110.07 75.58 118.93 78.44 128.89
C 80.31 135.42 83.96 143.85 88.10 151.21
C 99.99 172.37 118.75 197.90 129.94 208.15
C 134.22 212.06 141.29 217.23 141.75 216.77
C 141.87 216.65 141.53 215.51 141.01 214.24
C 139.75 211.24 138.31 203.69 138.31 200.10
C 138.31 193.87 141.01 183.64 144.45 176.83
C 147.94 169.92 151.80 166.78 160.40 163.85
C 165.25 162.21 168.51 162.04 170.20 163.33
C 171.36 164.23 171.36 164.25 170.20 165.15
C 169.55 165.65 168.44 166.06 167.73 166.06
C 165.37 166.06 159.00 168.56 155.34 170.93
C 148.95 175.05 144.83 182.30 143.35 191.99
C 141.66 203.04 143.24 210.45 150.44 225.35
C 154.02 232.75 167.49 256.96 169.09 258.87
C 170.44 260.48 178.93 263.73 183.19 264.25
C 187.36 264.78 193.27 264.68 193.87 264.09
M 451.33 264.13
C 451.33 263.74 450.36 260.30 449.17 256.50
C 447.98 252.68 447.16 249.17 447.35 248.68
C 447.54 248.18 448.26 247.88 449.03 247.99
C 450.05 248.13 450.72 249.08 451.82 251.98
C 453.44 256.24 455.02 257.47 462.31 260.20
C 469.33 262.82 475.35 263.90 482.88 263.89
C 488.87 263.88 490.49 263.66 494.30 262.28
C 496.75 261.41 500.28 259.79 502.16 258.68
C 509.23 254.49 516.78 245.53 521.10 236.20
C 523.07 231.93 524.43 225.73 525.06 218.18
C 525.51 212.65 526.45 210.12 528.41 209.07
C 531.32 207.52 532.99 202.12 531.26 199.84
C 530.84 199.28 529.42 198.48 528.10 198.05
C 525.93 197.35 525.39 196.70 522.33 191.21
C 511.01 170.88 501.37 162.36 461.65 137.58
C 450.95 130.91 446.77 127.90 441.43 123.02
L 438.07 119.96
L 432.50 124.02
C 428.07 127.26 426.73 127.96 425.94 127.47
C 423.99 126.24 424.56 125.00 428.40 122.08
C 439.12 113.96 441.75 110.97 461.79 84.14
C 474.42 67.25 483.04 56.70 487.54 52.66
C 491.10 49.46 496.29 46.08 503.65 42.16
C 510.95 38.27 511.00 38.15 506.70 34.56
C 497.38 26.82 480.40 25.41 463.89 30.99
C 458.12 32.95 450.82 36.54 446.66 39.48
C 441.37 43.22 428.33 54.74 413.41 68.85
C 400.10 81.44 394.26 86.45 387.64 90.95
C 384.03 93.41 383.39 93.64 380.05 93.60
C 375.60 93.56 371.51 91.61 367.83 87.78
C 360.90 80.53 360.67 73.89 366.66 53.24
C 370.89 38.64 371.52 35.45 371.51 28.79
C 371.49 21.19 370.08 17.22 365.73 12.45
C 360.29 6.52 352.81 3.85 343.17 4.39
C 338.60 4.65 337.17 5.02 333.40 6.88
C 324.72 11.17 319.73 18.04 319.25 26.33
C 318.94 31.87 320.16 33.99 324.85 36.14
C 327.77 37.47 329.11 37.67 336.21 37.81
C 343.14 37.94 344.62 38.15 346.84 39.29
C 350.28 41.08 351.59 43.81 352.10 50.30
C 352.73 58.39 351.38 63.66 342.47 87.81
C 334.26 110.07 332.79 118.93 335.65 128.89
C 337.52 135.42 341.18 143.85 345.31 151.21
C 357.20 172.37 375.97 197.90 387.15 208.15
C 391.44 212.06 398.50 217.23 398.96 216.77
C 399.08 216.65 398.74 215.51 398.22 214.24
C 396.96 211.24 395.52 203.69 395.52 200.10
C 395.52 193.87 398.22 183.64 401.66 176.83
C 405.15 169.92 409.02 166.78 417.61 163.85
C 422.46 162.21 425.72 162.04 427.41 163.33
C 428.57 164.23 428.57 164.25 427.41 165.15
C 426.76 165.65 425.66 166.06 424.95 166.06
C 422.59 166.06 416.22 168.56 412.55 170.93
C 406.16 175.05 402.04 182.30 400.56 191.99
C 398.37 206.27 401.50 215.53 418.73 245.88
L 426.72 259.95
L 430.38 261.60
C 432.39 262.51 435.41 263.59 437.08 264.00
C 441.14 265.00 451.33 265.10 451.33 264.13
M 752.18 262.22
C 754.59 261.38 758.10 259.79 759.98 258.68
C 767.05 254.49 774.60 245.53 778.91 236.20
C 780.89 231.93 782.25 225.73 782.88 218.18
C 783.33 212.65 784.27 210.12 786.23 209.07
C 789.14 207.52 790.80 202.12 789.08 199.84
C 788.66 199.28 787.24 198.48 785.92 198.05
C 783.75 197.35 783.20 196.70 780.15 191.21
C 768.83 170.88 759.19 162.36 719.46 137.58
C 708.77 130.91 704.59 127.90 699.25 123.02
L 695.89 119.96
L 690.32 124.02
C 685.89 127.26 684.55 127.96 683.76 127.47
C 681.81 126.24 682.38 125.00 686.22 122.08
C 696.93 113.96 699.57 110.97 719.61 84.14
C 732.23 67.25 740.86 56.70 745.36 52.66
C 748.92 49.46 754.10 46.08 761.47 42.16
C 768.77 38.27 768.82 38.15 764.51 34.56
C 755.20 26.82 738.22 25.41 721.71 30.99
C 715.93 32.95 708.64 36.54 704.48 39.48
C 699.19 43.22 686.15 54.74 671.23 68.85
C 657.92 81.44 652.07 86.45 645.46 90.95
C 641.85 93.41 641.20 93.64 637.87 93.60
C 633.41 93.56 629.33 91.61 625.65 87.78
C 618.72 80.53 618.49 73.89 624.48 53.24
C 628.71 38.64 629.34 35.45 629.33 28.79
C 629.31 21.19 627.90 17.22 623.54 12.45
C 618.11 6.52 610.63 3.85 600.98 4.39
C 596.42 4.65 594.99 5.02 591.22 6.88
C 582.54 11.17 577.54 18.04 577.07 26.33
C 576.76 31.87 577.97 33.99 582.67 36.14
C 585.59 37.47 586.93 37.67 594.03 37.81
C 600.95 37.94 602.44 38.15 604.65 39.29
C 608.10 41.08 609.41 43.81 609.92 50.30
C 610.55 58.39 609.20 63.66 600.29 87.81
C 592.08 110.07 590.61 118.93 593.47 128.89
C 595.34 135.42 598.99 143.85 603.13 151.21
C 615.02 172.37 633.78 197.90 644.97 208.15
C 649.25 212.06 656.32 217.23 656.78 216.77
C 656.90 216.65 656.56 215.51 656.04 214.24
C 654.78 211.24 653.34 203.69 653.34 200.10
C 653.34 193.87 656.04 183.64 659.48 176.83
C 662.97 169.92 666.83 166.78 675.43 163.85
C 680.28 162.21 683.54 162.04 685.23 163.33
C 686.39 164.23 686.39 164.25 685.23 165.15
C 684.58 165.65 683.47 166.06 682.76 166.06
C 680.40 166.06 674.03 168.56 670.37 170.93
C 663.98 175.05 659.86 182.30 658.38 191.99
C 656.69 203.04 658.27 210.45 665.47 225.35
C 668.10 230.77 679.99 252.45 683.41 258.05
C 683.47 258.15 685.85 259.17 688.70 260.33
C 694.33 262.63 702.28 263.98 706.51 263.35
L 709.02 262.98
L 706.92 256.28
C 705.77 252.59 704.98 249.18 705.17 248.68
C 705.36 248.18 706.08 247.88 706.85 247.99
C 707.87 248.13 708.53 249.08 709.64 251.98
C 710.84 255.13 711.51 256.02 713.60 257.24
C 718.38 260.01 727.11 262.73 734.93 263.87
C 739.43 264.53 747.84 263.73 752.18 262.22
M 56.72 220.12
C 79.73 207.07 81.63 205.94 90.61 199.88
C 95.89 196.32 104.05 189.93 105.74 188.04
C 106.80 186.84 106.65 186.56 99.16 175.68
C 90.33 162.84 84.84 153.92 81.37 146.76
C 80.03 143.99 78.83 141.43 78.72 141.08
C 78.19 139.49 74.08 143.53 54.04 165.36
C 38.61 182.18 32.24 189.55 30.99 192.02
C 26.29 201.36 24.22 221.35 26.83 232.12
C 27.20 233.62 27.78 235.03 28.12 235.25
C 28.95 235.81 30.23 235.13 56.72 220.12
M 313.93 220.12
C 336.94 207.07 338.84 205.94 347.82 199.88
C 353.10 196.32 361.26 189.93 362.95 188.04
C 364.02 186.84 363.86 186.56 356.37 175.68
C 347.54 162.84 342.05 153.92 338.58 146.76
C 337.24 143.99 336.04 141.43 335.93 141.08
C 335.40 139.49 331.29 143.53 311.26 165.36
C 295.82 182.18 289.45 189.55 288.20 192.02
C 283.50 201.36 281.43 221.35 284.04 232.12
C 284.41 233.62 284.99 235.03 285.33 235.25
C 286.17 235.81 287.45 235.13 313.93 220.12
M 571.75 220.12
C 594.76 207.07 596.66 205.94 605.64 199.88
C 610.92 196.32 619.08 189.93 620.77 188.04
C 621.83 186.84 621.68 186.56 614.19 175.68
C 605.36 162.84 599.87 153.92 596.40 146.76
C 595.06 143.99 593.86 141.43 593.75 141.08
C 593.22 139.49 589.11 143.53 569.07 165.36
C 553.64 182.18 547.27 189.55 546.02 192.02
C 541.32 201.36 539.25 221.35 541.86 232.12
C 542.23 233.62 542.81 235.03 543.15 235.25
C 543.98 235.81 545.26 235.13 571.75 220.12
M 54.25 33.55
C 58.53 32.39 59.16 31.96 58.45 30.73
C 58.02 29.96 57.21 30.19 53.38 32.15
C 48.40 34.71 48.63 35.07 54.25 33.55
M 311.46 33.55
C 315.74 32.39 316.37 31.96 315.66 30.73
C 315.23 29.96 314.42 30.19 310.60 32.15
C 305.61 34.71 305.84 35.07 311.46 33.55
M 569.28 33.55
C 573.56 32.39 574.19 31.96 573.48 30.73
C 573.05 29.96 572.24 30.19 568.41 32.15
C 563.43 34.71 563.66 35.07 569.28 33.55
M 58.24 23.99
C 58.24 23.52 58.39 22.74 58.57 22.27
C 58.83 21.59 57.55 21.18 52.72 20.38
C 49.33 19.82 46.46 19.44 46.35 19.55
C 46.15 19.75 57.01 24.75 57.78 24.81
C 58.03 24.83 58.24 24.46 58.24 23.99
M 315.45 23.99
C 315.45 23.52 315.60 22.74 315.78 22.27
C 316.04 21.59 314.76 21.18 309.93 20.38
C 306.54 19.82 303.67 19.44 303.56 19.55
C 303.36 19.75 314.22 24.75 314.99 24.81
C 315.24 24.83 315.45 24.46 315.45 23.99
M 573.27 23.99
C 573.27 23.52 573.42 22.74 573.60 22.27
C 573.86 21.59 572.58 21.18 567.75 20.38
C 564.36 19.82 561.49 19.44 561.38 19.55
C 561.18 19.75 572.04 24.75 572.81 24.81
C 573.06 24.83 573.27 24.46 573.27 23.99"/>
<path fill="#000000" stroke="none" d="
M 75.17 24.90
C 73.86 23.58 73.40 22.55 73.40 20.91
C 73.40 17.83 76.08 15.15 79.17 15.15
C 82.25 15.15 84.93 17.83 84.93 20.91
C 84.93 23.99 82.25 26.67 79.17 26.67
C 77.52 26.67 76.49 26.21 75.17 24.90
M 81.90 23.64
C 82.56 22.97 83.11 21.75 83.11 20.91
C 83.11 19.38 81.23 16.97 80.03 16.97
C 79.66 16.97 79.47 17.18 79.59 17.42
C 79.71 17.67 80.18 18.62 80.63 19.52
C 81.35 20.95 81.33 21.36 80.46 22.68
C 79.92 23.52 79.47 24.35 79.47 24.52
C 79.47 25.25 80.75 24.78 81.90 23.64"/>
<path fill="#000000" stroke="none" d="
M 332.39 24.90
C 331.08 23.58 330.61 22.55 330.61 20.91
C 330.61 17.83 333.30 15.15 336.38 15.15
C 339.46 15.15 342.14 17.83 342.14 20.91
C 342.14 23.99 339.46 26.67 336.38 26.67
C 334.73 26.67 333.70 26.21 332.39 24.90
M 339.11 23.64
C 339.77 22.97 340.32 21.75 340.32 20.91
C 340.32 19.38 338.44 16.97 337.24 16.97
C 336.87 16.97 336.68 17.18 336.80 17.42
C 336.92 17.67 337.40 18.62 337.85 19.52
C 338.56 20.95 338.54 21.36 337.68 22.68
C 337.13 23.52 336.68 24.35 336.68 24.52
C 336.68 25.25 337.97 24.78 339.11 23.64"/>
<path fill="#000000" stroke="none" d="
M 590.20 24.90
C 588.89 23.58 588.43 22.55 588.43 20.91
C 588.43 17.83 591.11 15.15 594.20 15.15
C 597.28 15.15 599.96 17.83 599.96 20.91
C 599.96 23.99 597.28 26.67 594.20 26.67
C 592.55 26.67 591.52 26.21 590.20 24.90
M 596.93 23.64
C 597.59 22.97 598.14 21.75 598.14 20.91
C 598.14 19.38 596.26 16.97 595.06 16.97
C 594.69 16.97 594.50 17.18 594.62 17.42
C 594.74 17.67 595.21 18.62 595.66 19.52
C 596.38 20.95 596.36 21.36 595.49 22.68
C 594.95 23.52 594.50 24.35 594.50 24.52
C 594.50 25.25 595.78 24.78 596.93 23.64"/>
<path fill="#fdb000" stroke="none" d="
M 183.19 264.25
C 178.93 263.73 170.44 260.48 169.09 258.87
C 167.49 256.96 154.02 232.75 150.44 225.35
C 143.24 210.45 141.66 203.04 143.35 191.99
C 144.83 182.30 148.95 175.05 155.34 170.93
C 159.00 168.56 165.37 166.06 167.73 166.06
C 168.44 166.06 169.55 165.65 170.20 165.15
C 171.36 164.25 171.36 164.23 170.20 163.33
C 168.51 162.04 165.25 162.21 160.40 163.85
C 151.80 166.78 147.94 169.92 144.45 176.83
C 141.01 183.64 138.31 193.87 138.31 200.10
C 138.31 203.69 139.75 211.24 141.01 214.24
C 141.53 215.51 141.87 216.65 141.75 216.77
C 141.29 217.23 134.22 212.06 129.94 208.15
C 118.75 197.90 99.99 172.37 88.10 151.21
C 83.96 143.85 80.31 135.42 78.44 128.89
C 75.58 118.93 77.05 110.07 85.26 87.81
C 94.17 63.66 95.52 58.39 94.89 50.30
C 94.38 43.81 93.07 41.08 89.62 39.29
C 87.41 38.15 85.92 37.94 79.00 37.81
C 71.90 37.67 70.56 37.47 67.64 36.14
C 62.94 33.99 61.73 31.87 62.04 26.33
C 62.51 18.07 67.52 11.16 76.11 6.92
C 79.76 5.12 81.29 4.73 85.87 4.44
C 95.54 3.82 103.03 6.47 108.51 12.45
C 112.87 17.22 114.28 21.19 114.30 28.79
C 114.31 35.45 113.68 38.64 109.45 53.24
C 103.46 73.89 103.69 80.53 110.62 87.78
C 114.30 91.61 118.38 93.56 122.84 93.60
C 126.17 93.64 126.82 93.41 130.43 90.95
C 137.04 86.45 142.89 81.44 156.20 68.85
C 171.12 54.74 184.16 43.22 189.45 39.48
C 199.41 32.44 214.03 27.69 225.97 27.61
C 235.76 27.55 243.96 29.98 249.48 34.56
C 253.79 38.15 253.74 38.27 246.44 42.16
C 239.07 46.08 233.89 49.46 230.33 52.66
C 225.83 56.70 217.20 67.25 204.58 84.14
C 184.54 110.97 181.90 113.96 171.19 122.08
C 167.35 125.00 166.78 126.24 168.73 127.47
C 169.52 127.96 170.86 127.26 175.29 124.02
L 180.86 119.96
L 184.22 123.02
C 189.56 127.90 193.74 130.91 204.43 137.58
C 244.16 162.36 253.80 170.88 265.12 191.21
C 268.17 196.70 268.72 197.35 270.89 198.05
C 272.21 198.48 273.63 199.28 274.05 199.84
C 275.77 202.12 274.11 207.52 271.20 209.07
C 269.24 210.12 268.30 212.65 267.85 218.18
C 267.22 225.73 265.86 231.93 263.88 236.20
C 259.57 245.53 252.02 254.49 244.95 258.68
C 243.07 259.79 239.54 261.41 237.09 262.28
C 227.19 265.84 209.36 263.50 198.57 257.24
C 196.48 256.02 195.81 255.13 194.61 251.98
C 193.50 249.08 192.84 248.13 191.82 247.99
C 191.05 247.88 190.33 248.18 190.14 248.68
C 189.95 249.17 190.79 252.76 192.01 256.65
C 193.22 260.55 194.06 263.90 193.87 264.09
C 193.27 264.68 187.36 264.78 183.19 264.25
M 83.16 24.90
C 84.47 23.58 84.93 22.55 84.93 20.91
C 84.93 17.83 82.25 15.15 79.17 15.15
C 76.08 15.15 73.40 17.83 73.40 20.91
C 73.40 23.99 76.08 26.67 79.17 26.67
C 80.81 26.67 81.84 26.21 83.16 24.90"/>
<path fill="#fdb000" stroke="none" d="
M 437.08 264.00
C 435.41 263.59 432.39 262.51 430.38 261.60
L 426.72 259.95
L 418.73 245.88
C 401.50 215.53 398.37 206.27 400.56 191.99
C 402.04 182.30 406.16 175.05 412.55 170.93
C 416.22 168.56 422.59 166.06 424.95 166.06
C 425.66 166.06 426.76 165.65 427.41 165.15
C 428.57 164.25 428.57 164.23 427.41 163.33
C 425.72 162.04 422.46 162.21 417.61 163.85
C 409.02 166.78 405.15 169.92 401.66 176.83
C 398.22 183.64 395.52 193.87 395.52 200.10
C 395.52 203.69 396.96 211.24 398.22 214.24
C 398.74 215.51 399.08 216.65 398.96 216.77
C 398.50 217.23 391.44 212.06 387.15 208.15
C 375.97 197.90 357.20 172.37 345.31 151.21
C 341.18 143.85 337.52 135.42 335.65 128.89
C 332.79 118.93 334.26 110.07 342.47 87.81
C 351.38 63.66 352.73 58.39 352.10 50.30
C 351.59 43.81 350.28 41.08 346.84 39.29
C 344.62 38.15 343.14 37.94 336.21 37.81
C 329.11 37.67 327.77 37.47 324.85 36.14
C 320.16 33.99 318.94 31.87 319.25 26.33
C 319.73 18.04 324.72 11.17 333.40 6.88
C 337.17 5.02 338.60 4.65 343.17 4.39
C 352.81 3.85 360.29 6.52 365.73 12.45
C 370.08 17.22 371.49 21.19 371.51 28.79
C 371.52 35.45 370.89 38.64 366.66 53.24
C 360.67 73.89 360.90 80.53 367.83 87.78
C 371.51 91.61 375.60 93.56 380.05 93.60
C 383.39 93.64 384.03 93.41 387.64 90.95
C 394.26 86.45 400.10 81.44 413.41 68.85
C 428.33 54.74 441.37 43.22 446.66 39.48
C 456.62 32.44 471.24 27.69 483.18 27.61
C 492.97 27.55 501.17 29.98 506.70 34.56
C 511.00 38.15 510.95 38.27 503.65 42.16
C 496.29 46.08 491.10 49.46 487.54 52.66
C 483.04 56.70 474.42 67.25 461.79 84.14
C 441.75 110.97 439.12 113.96 428.40 122.08
C 424.56 125.00 423.99 126.24 425.94 127.47
C 426.73 127.96 428.07 127.26 432.50 124.02
L 438.07 119.96
L 441.43 123.02
C 446.77 127.90 450.95 130.91 461.65 137.58
C 501.37 162.36 511.01 170.88 522.33 191.21
C 525.39 196.70 525.93 197.35 528.10 198.05
C 529.42 198.48 530.84 199.28 531.26 199.84
C 532.99 202.12 531.32 207.52 528.41 209.07
C 526.45 210.12 525.51 212.65 525.06 218.18
C 524.43 225.73 523.07 231.93 521.10 236.20
C 516.78 245.53 509.23 254.49 502.16 258.68
C 500.28 259.79 496.75 261.41 494.30 262.28
C 484.40 265.84 466.57 263.50 455.79 257.24
C 453.69 256.02 453.02 255.13 451.82 251.98
C 450.72 249.08 450.05 248.13 449.03 247.99
C 448.26 247.88 447.54 248.18 447.35 248.68
C 447.16 249.17 447.98 252.68 449.17 256.50
C 450.36 260.30 451.33 263.74 451.33 264.13
C 451.33 265.10 441.14 265.00 437.08 264.00
M 340.37 24.90
C 341.68 23.58 342.14 22.55 342.14 20.91
C 342.14 17.83 339.46 15.15 336.38 15.15
C 333.30 15.15 330.61 17.83 330.61 20.91
C 330.61 23.99 333.30 26.67 336.38 26.67
C 338.02 26.67 339.05 26.21 340.37 24.90"/>
<path fill="#fdb000" stroke="none" d="
M 734.93 263.87
C 727.11 262.73 718.38 260.01 713.60 257.24
C 711.51 256.02 710.84 255.13 709.64 251.98
C 708.53 249.08 707.87 248.13 706.85 247.99
C 706.08 247.88 705.36 248.18 705.17 248.68
C 704.98 249.18 705.77 252.59 706.92 256.28
L 709.02 262.98
L 706.51 263.35
C 702.28 263.98 694.33 262.63 688.70 260.33
C 685.85 259.17 683.47 258.15 683.41 258.05
C 679.99 252.45 668.10 230.77 665.47 225.35
C 658.27 210.45 656.69 203.04 658.38 191.99
C 659.86 182.30 663.98 175.05 670.37 170.93
C 674.03 168.56 680.40 166.06 682.76 166.06
C 683.47 166.06 684.58 165.65 685.23 165.15
C 686.39 164.25 686.39 164.23 685.23 163.33
C 683.54 162.04 680.28 162.21 675.43 163.85
C 666.83 166.78 662.97 169.92 659.48 176.83
C 656.04 183.64 653.34 193.87 653.34 200.10
C 653.34 203.69 654.78 211.24 656.04 214.24
C 656.56 215.51 656.90 216.65 656.78 216.77
C 656.32 217.23 649.25 212.06 644.97 208.15
C 633.78 197.90 615.02 172.37 603.13 151.21
C 598.99 143.85 595.34 135.42 593.47 128.89
C 590.61 118.93 592.08 110.07 600.29 87.81
C 609.20 63.66 610.55 58.39 609.92 50.30
C 609.41 43.81 608.10 41.08 604.65 39.29
C 602.44 38.15 600.95 37.94 594.03 37.81
C 586.93 37.67 585.59 37.47 582.67 36.14
C 577.97 33.99 576.76 31.87 577.07 26.33
C 577.54 18.04 582.54 11.17 591.22 6.88
C 594.99 5.02 596.42 4.65 600.98 4.39
C 610.63 3.85 618.11 6.52 623.54 12.45
C 627.90 17.22 629.31 21.19 629.33 28.79
C 629.34 35.45 628.71 38.64 624.48 53.24
C 618.49 73.89 618.72 80.53 625.65 87.78
C 629.33 91.61 633.41 93.56 637.87 93.60
C 641.20 93.64 641.85 93.41 645.46 90.95
C 652.07 86.45 657.92 81.44 671.23 68.85
C 686.15 54.74 699.19 43.22 704.48 39.48
C 714.44 32.44 729.06 27.69 741.00 27.61
C 750.79 27.55 758.99 29.98 764.51 34.56
C 768.82 38.15 768.77 38.27 761.47 42.16
C 754.10 46.08 748.92 49.46 745.36 52.66
C 740.86 56.70 732.23 67.25 719.61 84.14
C 699.57 110.97 696.93 113.96 686.22 122.08
C 682.38 125.00 681.81 126.24 683.76 127.47
C 684.55 127.96 685.89 127.26 690.32 124.02
L 695.89 119.96
L 699.25 123.02
C 704.59 127.90 708.77 130.91 719.46 137.58
C 759.19 162.36 768.83 170.88 780.15 191.21
C 783.20 196.70 783.75 197.35 785.92 198.05
C 787.24 198.48 788.66 199.28 789.08 199.84
C 790.80 202.12 789.14 207.52 786.23 209.07
C 784.27 210.12 783.33 212.65 782.88 218.18
C 782.25 225.73 780.89 231.93 778.91 236.20
C 771.07 253.18 757.57 263.39 742.27 263.95
C 739.24 264.05 735.94 264.02 734.93 263.87
M 598.19 24.90
C 599.50 23.58 599.96 22.55 599.96 20.91
C 599.96 17.83 597.28 15.15 594.20 15.15
C 591.11 15.15 588.43 17.83 588.43 20.91
C 588.43 23.99 591.11 26.67 594.20 26.67
C 595.84 26.67 596.87 26.21 598.19 24.90"/>
<path fill="#fdb000" stroke="none" d="
M 285.33 235.25
C 284.99 235.03 284.41 233.62 284.04 232.12
C 281.43 221.35 283.50 201.36 288.20 192.02
C 289.45 189.55 295.82 182.18 311.26 165.36
C 331.29 143.53 335.40 139.49 335.93 141.08
C 336.04 141.43 337.24 143.99 338.58 146.76
C 342.05 153.92 347.54 162.84 356.37 175.68
C 365.22 188.53 365.13 186.65 357.22 192.96
C 352.94 196.38 347.67 200.09 340.02 205.08
C 336.76 207.20 292.51 232.37 288.42 234.42
C 287.06 235.11 285.67 235.48 285.33 235.25"/>
<path fill="#eb2e00" stroke="none" d="
M 79.59 24.39
C 79.71 24.15 80.18 23.20 80.63 22.30
C 81.35 20.87 81.33 20.45 80.47 19.15
C 79.21 17.22 80.22 16.51 81.87 18.16
C 83.44 19.73 83.45 22.08 81.90 23.64
C 80.72 24.81 79.14 25.33 79.59 24.39"/>
<path fill="#eb2e00" stroke="none" d="
M 336.68 24.52
C 336.68 24.35 337.13 23.52 337.68 22.68
C 338.54 21.36 338.56 20.95 337.85 19.52
C 337.40 18.62 336.92 17.67 336.80 17.42
C 336.68 17.18 336.87 16.97 337.24 16.97
C 338.44 16.97 340.32 19.38 340.32 20.91
C 340.32 21.75 339.77 22.97 339.11 23.64
C 337.97 24.78 336.68 25.25 336.68 24.52"/>
<path fill="#eb2e00" stroke="none" d="
M 594.50 24.52
C 594.50 24.35 594.95 23.52 595.49 22.68
C 596.36 21.36 596.38 20.95 595.66 19.52
C 595.21 18.62 594.74 17.67 594.62 17.42
C 594.50 17.18 594.69 16.97 595.06 16.97
C 596.26 16.97 598.14 19.38 598.14 20.91
C 598.14 21.75 597.59 22.97 596.93 23.64
C 595.78 24.78 594.50 25.25 594.50 24.52"/>
<path fill="#de8570" stroke="none" d="
M 53.38 32.15
C 57.21 30.19 58.02 29.96 58.45 30.73
C 59.16 31.96 58.53 32.39 54.25 33.55
C 48.63 35.07 48.40 34.71 53.38 32.15"/>
<path fill="#de8570" stroke="none" d="
M 310.60 32.15
C 314.42 30.19 315.23 29.96 315.66 30.73
C 316.37 31.96 315.74 32.39 311.46 33.55
C 305.84 35.07 305.61 34.71 310.60 32.15"/>
<path fill="#de8570" stroke="none" d="
M 568.41 32.15
C 572.24 30.19 573.05 29.96 573.48 30.73
C 574.19 31.96 573.56 32.39 569.28 33.55
C 563.66 35.07 563.43 34.71 568.41 32.15"/>
<path fill="#de8570" stroke="none" d="
M 52.32 22.49
C 47.01 20.05 45.43 19.01 47.92 19.56
C 48.76 19.75 51.57 20.24 54.17 20.65
C 57.85 21.22 58.83 21.58 58.57 22.26
C 58.39 22.74 58.24 23.52 58.24 23.99
C 58.24 25.16 58.02 25.11 52.32 22.49"/>
<path fill="#de8570" stroke="none" d="
M 308.96 22.25
C 305.89 20.87 303.46 19.65 303.56 19.55
C 303.67 19.44 306.54 19.82 309.93 20.38
C 314.76 21.18 316.04 21.59 315.78 22.27
C 315.60 22.74 315.45 23.52 315.45 23.99
C 315.45 25.16 315.30 25.12 308.96 22.25"/>
<path fill="#de8570" stroke="none" d="
M 566.78 22.25
C 563.71 20.87 561.28 19.65 561.38 19.55
C 561.49 19.44 564.36 19.82 567.75 20.38
C 572.58 21.18 573.86 21.59 573.60 22.27
C 573.42 22.74 573.27 23.52 573.27 23.99
C 573.27 25.16 573.12 25.12 566.78 22.25"/>
<path fill="#fbaf00" stroke="none" d="
M 28.12 235.25
C 27.78 235.03 27.20 233.62 26.83 232.12
C 24.22 221.35 26.29 201.36 30.99 192.02
C 32.24 189.55 38.61 182.17 54.03 165.36
C 65.76 152.58 76.07 141.81 76.93 141.43
C 78.50 140.75 78.55 140.81 81.09 146.15
C 84.61 153.55 90.08 162.48 99.16 175.68
C 108.00 188.53 107.91 186.65 100.01 192.96
C 95.73 196.38 90.46 200.09 82.81 205.08
C 79.55 207.20 35.29 232.37 31.21 234.42
C 29.85 235.11 28.46 235.48 28.12 235.25"/>
<path fill="#fbaf00" stroke="none" d="
M 543.15 235.25
C 542.81 235.03 542.23 233.62 541.86 232.12
C 539.25 221.35 541.32 201.36 546.02 192.02
C 547.27 189.55 553.64 182.18 569.07 165.36
C 589.11 143.53 593.22 139.49 593.75 141.08
C 593.86 141.43 595.06 143.99 596.40 146.76
C 599.87 153.92 605.36 162.84 614.19 175.68
C 623.03 188.53 622.94 186.65 615.04 192.96
C 610.76 196.38 605.49 200.09 597.84 205.08
C 594.58 207.20 550.32 232.37 546.24 234.42
C 544.88 235.11 543.49 235.48 543.15 235.25"/>
<path fill="#c57a36" stroke="none" d="
M 378.84 395.40
C 342.80 393.60 318.17 391.09 289.76 386.33
C 204.04 371.95 124.86 342.81 48.23 297.42
C 38.27 291.53 37.61 291.01 29.11 282.48
C 23.62 276.96 18.91 271.58 16.60 268.18
C 10.03 258.52 5.50 248.19 4.50 240.61
C 4.06 237.41 4.84 236.50 6.06 238.78
C 7.22 240.95 17.14 249.15 24.52 254.02
C 37.24 262.45 57.91 272.03 74.74 277.31
C 85.93 280.82 101.40 283.49 118.60 284.87
C 124.00 285.31 215.09 285.45 407.35 285.31
C 727.08 285.08 696.55 285.62 718.77 279.75
C 737.99 274.66 749.43 270.51 763.23 263.59
C 776.83 256.78 787.98 249.18 795.72 241.45
C 800.90 236.28 801.45 236.51 799.81 243.18
C 795.91 259.12 783.42 276.39 766.92 288.65
C 748.67 302.22 700.57 327.49 664.26 342.59
C 592.88 372.27 519.91 389.21 440.41 394.56
C 430.98 395.19 386.80 395.79 378.84 395.40"/>
<path fill="#e0502f" stroke="none" d="
M 180.17 277.83
C 163.51 274.15 101.61 264.85 93.75 264.85
C 88.02 264.85 86.97 267.37 90.91 271.68
C 93.72 274.76 94.86 276.76 94.07 277.25
C 93.75 277.44 90.75 276.50 87.39 275.16
C 84.02 273.82 79.03 272.33 76.28 271.85
C 71.68 271.04 62.06 268.12 59.77 266.84
C 59.10 266.46 63.16 265.25 73.23 262.83
C 92.04 258.31 94.05 257.98 99.49 258.46
C 105.98 259.04 157.18 265.27 162.38 266.12
C 167.50 266.95 169.66 266.55 170.54 264.62
L 171.18 263.21
L 176.32 264.98
C 180.58 266.45 182.60 266.78 188.21 266.92
L 194.98 267.08
L 195.74 270.04
C 196.45 272.85 196.42 273.09 194.93 275.03
C 192.99 277.58 190.05 279.41 188.06 279.32
C 187.22 279.27 183.67 278.61 180.17 277.83"/>
<path fill="#e0502f" stroke="none" d="
M 294.87 278.53
C 293.89 277.36 293.39 277.56 304.23 274.93
C 310.44 273.42 312.77 272.61 312.91 271.90
C 313.29 270.01 310.53 269.48 305.85 270.54
C 300.93 271.66 299.79 271.75 300.62 270.98
C 301.65 270.01 325.66 263.70 343.66 259.68
C 352.57 257.68 351.09 257.59 390.37 262.47
C 406.72 264.50 421.37 266.31 422.94 266.48
C 425.43 266.78 425.95 266.62 427.22 265.26
L 428.66 263.70
L 432.87 265.26
C 436.29 266.53 438.52 266.88 444.73 267.12
L 452.38 267.43
L 453.03 270.23
C 453.65 272.86 453.58 273.16 451.99 275.15
C 451.06 276.32 449.42 277.79 448.34 278.42
L 446.39 279.56
L 432.02 276.76
C 424.13 275.22 414.39 273.42 410.39 272.76
C 397.97 270.71 353.90 264.85 350.94 264.85
C 345.23 264.85 344.18 267.38 348.12 271.68
C 350.93 274.76 352.07 276.76 351.28 277.25
C 350.97 277.44 348.02 276.53 344.74 275.22
C 337.55 272.36 332.23 271.23 328.20 271.70
C 325.86 271.98 303.21 277.35 296.90 279.13
C 296.15 279.34 295.34 279.11 294.87 278.53"/>
<path fill="#e0502f" stroke="none" d="
M 552.68 278.53
C 551.71 277.36 551.20 277.56 562.04 274.93
C 568.26 273.42 570.59 272.61 570.73 271.90
C 571.11 270.01 568.35 269.48 563.66 270.54
C 558.74 271.66 557.60 271.75 558.43 270.98
C 559.47 270.01 583.48 263.70 601.48 259.68
C 610.39 257.68 608.91 257.59 648.19 262.47
C 664.53 264.50 679.18 266.31 680.72 266.48
C 683.07 266.75 683.75 266.59 684.87 265.47
C 685.71 264.63 686.09 263.68 685.90 262.93
C 685.65 261.98 685.80 261.82 686.60 262.17
C 692.31 264.70 696.38 265.57 702.87 265.66
L 709.69 265.76
L 710.61 269.39
L 711.53 273.03
L 709.82 275.15
C 708.88 276.32 707.24 277.79 706.16 278.42
L 704.21 279.56
L 689.84 276.76
C 681.94 275.22 672.21 273.42 668.20 272.76
C 655.79 270.71 611.72 264.85 608.75 264.85
C 603.05 264.85 602.00 267.38 605.94 271.68
C 608.75 274.76 609.89 276.76 609.10 277.25
C 608.79 277.44 605.84 276.53 602.55 275.22
C 595.37 272.36 590.05 271.23 586.02 271.70
C 583.68 271.98 561.02 277.35 554.72 279.13
C 553.96 279.34 553.16 279.11 552.68 278.53"/>
</g>
</svg>
