<?xml version="1.0" encoding="UTF-8" standalone="no"?>
<!DOCTYPE svg PUBLIC "-//W3C//DTD SVG 1.1//EN"
"http://www.w3.org/Graphics/SVG/1.1/DTD/svg11.dtd">
<svg width="602px" height="600px"
xmlns="http://www.w3.org/2000/svg" version="1.1">
<g transform="translate(0000, 0000) scale(1.0000, 1.0000)">
<path fill="#000000" stroke="none" d="
M 71.59 598.81
C 70.08 597.30 71.40 590.84 74.00 586.98
C 77.38 581.96 81.75 579.41 86.97 579.37
C 88.96 579.37 91.86 578.66 93.43 577.82
C 94.98 576.97 100.89 575.88 106.58 575.39
C 112.26 574.90 119.42 573.56 122.48 572.40
C 125.55 571.23 135.68 569.64 145.01 568.86
C 154.32 568.08 164.03 566.74 166.56 565.86
C 174.97 562.98 178.55 554.81 183.27 527.74
C 187.06 506.01 187.72 494.00 186.06 476.71
C 183.09 445.81 172.45 403.75 159.62 372.28
C 151.92 353.41 150.63 349.54 148.59 339.17
C 147.28 332.62 145.45 329.78 130.09 310.65
C 102.86 276.72 89.12 256.49 76.43 231.61
C 67.43 213.96 66.05 207.12 64.49 172.26
C 62.96 138.04 60.98 125.03 55.64 114.19
C 48.25 99.21 39.01 92.95 26.73 94.59
C 20.35 95.46 18.12 97.56 13.58 107.07
C 11.54 111.34 9.16 114.84 8.32 114.84
C 7.47 114.84 5.40 111.21 3.71 106.77
C -0.43 95.88 -0.40 84.15 3.79 76.15
C 7.35 69.37 19.08 56.84 31.09 47.02
C 35.78 43.19 42.42 36.41 45.86 31.96
C 64.66 7.56 71.68 4.31 112.39 1.25
C 141.75 -0.97 158.60 1.05 173.38 8.53
C 187.87 15.86 203.75 35.48 217.78 63.42
C 227.13 82.05 230.23 85.28 246.77 93.56
C 263.36 101.87 275.31 111.16 292.75 129.30
C 317.91 155.48 342.17 185.92 385.63 245.81
C 462.66 351.99 482.49 373.99 568.15 448.27
C 595.02 471.57 602.00 479.88 602.00 488.59
C 602.00 492.58 601.21 494.98 599.26 496.93
C 594.60 501.59 588.37 499.65 570.56 488.00
C 551.86 475.77 517.33 453.97 513.07 451.72
C 511.42 450.84 509.80 450.36 509.50 450.67
C 509.19 450.98 513.20 457.26 518.39 464.65
C 545.77 503.52 554.69 516.14 559.46 522.67
C 568.89 535.55 567.59 542.86 554.52 550.37
C 544.80 555.97 518.74 572.43 502.32 583.34
C 479.48 598.53 475.90 599.86 470.50 595.16
C 467.40 592.46 451.89 563.26 436.05 530.32
C 403.20 461.99 387.81 442.55 352.74 425.12
C 341.29 419.43 340.47 419.21 338.88 421.39
C 337.53 423.23 337.17 434.23 337.17 472.57
C 337.17 523.87 336.81 527.41 331.31 529.52
C 327.61 530.94 326.24 530.44 316.44 524.06
C 311.14 520.62 303.97 516.74 300.50 515.43
L 294.18 513.06
L 291.78 516.03
C 290.30 517.86 289.37 521.05 289.37 524.34
C 289.37 527.28 288.49 534.23 287.44 539.79
C 286.36 545.35 285.50 552.06 285.50 554.71
C 285.50 563.43 286.63 563.97 308.78 565.90
C 336.16 568.26 347.26 571.20 352.82 577.60
C 356.51 581.86 361.96 592.18 361.39 593.86
C 361.04 594.86 357.97 595.60 353.20 595.79
C 349.00 595.96 340.05 596.44 333.30 596.86
C 326.55 597.28 312.37 596.99 301.78 596.22
C 285.37 595.02 276.92 595.21 244.52 597.48
C 210.29 599.88 205.58 599.96 197.24 598.28
C 190.57 596.94 185.42 596.72 178.92 597.48
C 169.63 598.58 72.56 599.78 71.59 598.81
M 85.26 590.22
C 85.26 586.35 83.13 586.57 80.37 590.71
C 78.60 593.39 78.67 593.55 81.88 593.55
C 84.65 593.55 85.26 592.95 85.26 590.22
M 244.90 590.90
C 276.20 588.70 285.25 588.49 300.60 589.61
C 310.68 590.36 322.50 590.97 326.86 590.97
L 334.79 590.97
L 334.05 587.10
C 333.63 584.97 332.97 581.54 332.57 579.46
C 332.17 577.39 331.09 575.41 330.17 575.06
C 329.25 574.71 321.58 573.77 313.13 572.98
C 284.61 570.31 284.10 570.22 281.36 567.48
C 279.00 565.12 278.81 563.70 279.40 553.08
C 280.09 540.72 282.27 522.95 284.18 514.21
C 284.80 511.37 285.11 508.86 284.88 508.62
C 284.63 508.39 278.94 507.87 272.19 507.47
L 259.95 506.74
L 259.43 531.11
C 258.64 568.17 256.94 570.45 228.14 573.02
C 210.39 574.61 198.79 576.39 197.59 577.70
C 197.07 578.26 196.27 581.43 195.81 584.75
L 194.94 590.79
L 200.49 592.03
C 203.54 592.71 206.39 593.33 206.79 593.41
C 207.20 593.48 224.35 592.36 244.90 590.90
M 98.89 588.27
C 100.03 586.08 100.70 584.03 100.40 583.72
C 99.11 582.44 95.36 585.10 93.58 588.54
C 91.77 592.04 91.81 592.26 94.24 592.26
C 95.82 592.26 97.62 590.71 98.89 588.27
M 114.97 587.10
C 114.97 580.26 111.24 579.94 108.11 586.49
C 106.91 589.01 105.93 591.33 105.93 591.65
C 105.93 591.99 107.97 592.26 110.45 592.26
C 114.87 592.26 114.97 592.13 114.97 587.10
M 145.99 588.36
C 149.63 579.59 163.55 573.25 176.30 574.55
C 180.07 574.95 183.98 574.63 185.43 573.82
C 186.83 573.03 191.44 571.47 195.69 570.36
C 201.98 568.71 203.59 567.73 204.32 565.14
C 204.81 563.38 208.10 550.03 211.64 535.48
C 215.18 520.94 218.46 508.06 218.94 506.88
C 219.67 505.08 218.64 504.58 212.72 503.85
C 208.81 503.35 202.74 503.35 199.23 503.83
L 192.85 504.71
L 192.02 514.43
C 190.74 529.59 185.02 555.65 181.40 562.77
C 177.07 571.33 173.29 572.77 149.38 575.05
C 138.81 576.05 128.20 577.69 125.80 578.70
C 121.74 580.39 121.43 580.93 121.43 586.39
L 121.43 592.26
L 132.91 592.26
L 144.38 592.26
L 145.99 588.36
M 156.31 590.17
C 156.31 588.45 155.96 588.36 154.38 589.68
C 153.30 590.55 152.44 591.50 152.44 591.77
C 152.44 592.04 153.30 592.26 154.38 592.26
C 155.45 592.26 156.31 591.32 156.31 590.17
M 172.58 591.26
C 173.70 590.50 176.98 582.94 176.98 581.10
C 176.98 580.13 169.23 580.71 166.09 581.91
C 163.39 582.93 162.77 584.01 162.77 587.72
C 162.77 591.99 163.03 592.26 166.97 592.23
C 169.28 592.23 171.80 591.79 172.58 591.26
M 188.97 585.35
C 189.80 579.92 189.33 579.73 185.46 583.91
C 181.26 588.44 181.18 590.80 185.25 590.01
C 187.56 589.57 188.51 588.39 188.97 585.35
M 349.64 588.97
L 352.82 589.77
L 350.09 586.09
C 348.60 584.06 345.57 581.35 343.36 580.05
L 339.35 577.68
L 340.21 581.91
C 340.67 584.23 341.05 587.24 341.05 588.59
C 341.05 590.70 341.45 590.85 343.75 589.61
C 345.23 588.81 347.88 588.53 349.64 588.97
M 502.75 573.82
C 515.06 565.72 531.75 555.08 539.84 550.21
C 547.92 545.32 555.38 540.04 556.40 538.49
C 558.72 534.95 558.25 533.99 545.61 516.77
C 526.43 490.65 504.61 458.53 501.77 452.26
C 499.93 448.19 497.23 444.79 494.47 443.05
C 475.41 431.05 462.92 424.49 304.23 343.25
C 214.18 297.14 169.68 273.35 138.42 254.58
C 101.24 232.26 77.60 196.95 80.73 168.39
C 83.19 145.79 98.13 131.79 131.29 120.95
C 167.16 109.23 200.47 103.96 233.95 104.72
L 253.11 105.16
L 240.74 99.12
C 233.93 95.81 226.68 91.50 224.65 89.55
C 222.61 87.60 217.17 78.70 212.56 69.78
C 183.44 13.41 164.87 2.53 107.56 8.26
C 77.42 11.26 70.07 14.52 57.33 30.46
C 53.99 34.65 49.58 39.87 47.53 42.06
L 43.79 46.06
L 47.71 52.39
C 50.47 56.85 52.02 61.54 52.97 68.31
C 53.71 73.59 54.45 78.00 54.61 78.12
C 56.70 79.59 66.81 80.88 68.64 79.91
C 70.70 78.80 70.75 78.21 69.19 73.78
C 68.24 71.08 65.68 67.10 63.51 64.93
C 58.34 59.75 57.23 55.10 59.85 49.60
C 62.89 43.23 68.44 40.89 82.08 40.26
C 116.45 38.66 135.73 50.25 138.94 74.43
C 140.76 88.17 131.65 106.90 121.16 110.97
C 118.82 111.88 112.34 114.63 106.76 117.10
C 99.58 120.26 95.53 121.34 92.88 120.81
C 89.89 120.22 88.75 120.68 87.10 123.21
C 85.96 124.94 83.94 126.70 82.61 127.12
C 77.20 128.84 73.02 123.63 67.09 107.79
C 65.61 103.86 62.01 97.61 59.09 93.92
L 53.77 87.20
L 52.78 90.90
C 51.98 93.86 52.44 95.37 55.03 98.45
C 59.72 104.03 64.09 113.19 66.53 122.55
C 68.73 131.02 70.95 158.46 71.06 178.71
C 71.19 198.12 73.79 208.95 82.55 226.57
C 97.47 256.57 119.72 287.03 168.97 344.88
C 200.09 381.43 220.74 407.16 229.78 420.65
C 244.68 442.85 255.60 468.18 257.63 485.16
C 258.10 489.06 258.80 494.44 259.18 497.10
L 259.89 501.94
L 267.41 501.94
C 284.75 501.94 306.71 508.19 319.54 516.79
C 327.55 522.15 328.15 522.35 329.39 520.05
C 330.22 518.50 330.71 499.17 330.71 467.83
C 330.71 420.00 330.82 417.96 333.26 415.52
C 337.84 410.94 341.00 411.16 353.33 416.89
C 392.42 435.08 405.14 451.05 446.22 533.48
C 460.26 561.68 472.91 585.90 474.31 587.30
C 475.74 588.72 477.67 589.57 478.63 589.21
C 479.58 588.84 490.44 581.92 502.75 573.82
M 240.93 564.06
C 250.39 560.94 252.32 556.35 252.93 535.48
L 253.40 519.35
L 242.87 513.75
C 231.41 507.66 227.00 507.39 224.74 512.62
C 223.02 516.59 211.86 562.41 211.86 565.52
C 211.86 567.91 212.48 568.00 223.17 567.12
C 229.38 566.61 237.38 565.24 240.93 564.06
M 252.68 500.32
C 250.02 468.15 236.70 440.13 205.65 401.29
C 188.74 380.13 157.32 343.07 156.78 343.63
C 156.48 343.92 159.97 353.38 164.53 364.66
C 173.87 387.79 183.12 418.65 187.89 442.58
C 190.69 456.63 193.78 484.50 193.78 495.68
C 193.78 499.38 193.78 499.38 200.56 498.62
C 204.29 498.21 213.90 498.74 221.93 499.81
C 234.11 501.45 237.83 502.50 244.53 506.27
C 248.95 508.76 252.79 510.83 253.06 510.88
C 253.34 510.93 253.18 506.18 252.68 500.32
M 593.18 484.36
C 590.01 478.26 583.37 471.79 554.20 446.45
C 477.18 379.52 457.56 357.69 384.89 258.06
C 365.48 231.46 344.65 203.29 338.61 195.48
C 316.06 166.36 286.53 132.70 273.11 120.80
C 266.91 115.30 265.91 114.89 255.71 113.61
C 230.43 110.45 200.22 112.41 167.85 119.33
C 131.54 127.10 113.32 134.13 101.10 145.11
C 83.75 160.68 82.87 180.30 98.37 205.96
C 104.24 215.66 119.51 231.90 130.15 239.70
C 150.15 254.39 204.23 283.61 339.11 352.61
C 447.26 407.94 473.71 421.70 487.67 429.95
C 495.49 434.57 507.11 440.92 513.51 444.06
C 525.15 449.78 547.79 463.63 576.76 482.72
C 589.88 491.39 592.47 492.66 593.98 491.15
C 595.49 489.63 595.37 488.61 593.18 484.36
M 83.19 103.64
C 83.45 85.29 88.26 77.16 99.96 75.26
C 106.32 74.23 111.81 76.77 113.89 81.73
C 114.91 84.14 115.53 89.88 115.41 95.81
C 115.27 102.17 115.70 105.81 116.58 105.81
C 119.68 105.81 127.85 95.26 129.78 88.80
C 133.14 77.51 131.95 69.35 125.74 60.99
C 119.52 52.63 104.05 46.54 88.84 46.48
L 82.72 46.45
L 84.87 50.97
C 86.89 55.19 86.89 55.78 84.87 60.01
C 83.69 62.50 81.05 65.55 79.01 66.79
C 76.10 68.55 75.52 69.59 76.32 71.61
C 79.40 79.47 75.84 86.27 68.00 87.59
L 63.18 88.39
L 66.36 92.68
C 68.12 95.05 70.86 100.27 72.46 104.30
C 76.30 113.95 80.02 119.30 81.71 117.61
C 82.43 116.89 83.09 110.61 83.19 103.64
M 100.73 112.27
C 106.86 109.15 106.96 109.01 108.62 100.01
C 110.16 91.69 108.54 84.67 104.61 82.57
C 94.60 77.21 83.79 104.15 92.46 112.81
C 94.99 115.33 94.69 115.35 100.73 112.27
M 19.05 84.92
C 25.46 78.25 35.02 74.35 42.76 75.26
L 48.82 75.97
L 48.20 70.57
C 47.31 62.86 45.46 57.45 42.45 53.61
L 39.83 50.28
L 34.45 54.49
C 14.21 70.37 4.57 85.24 7.93 95.38
L 9.39 99.82
L 11.95 94.75
C 13.34 91.96 16.55 87.54 19.05 84.92
M 45.72 82.97
C 42.50 80.62 39.03 80.92 32.30 84.12
L 26.48 86.88
L 34.76 88.00
C 39.32 88.63 43.97 89.65 45.10 90.30
C 48.19 92.04 48.77 85.19 45.72 82.97
M 77.51 59.35
C 78.93 57.94 80.09 55.91 80.09 54.84
C 80.09 53.77 78.93 51.74 77.51 50.32
C 76.09 48.90 74.06 47.74 72.99 47.74
C 71.92 47.74 69.89 48.90 68.47 50.32
C 67.05 51.74 65.88 53.77 65.88 54.84
C 65.88 55.91 67.05 57.94 68.47 59.35
C 69.89 60.77 71.92 61.94 72.99 61.94
C 74.06 61.94 76.09 60.77 77.51 59.35"/>
<path fill="#cea381" stroke="none" d="
M 474.31 587.30
C 472.91 585.90 460.26 561.68 446.22 533.48
C 405.14 451.05 392.42 435.08 353.33 416.89
C 341.00 411.16 337.84 410.94 333.26 415.52
C 330.82 417.96 330.71 420.00 330.71 467.83
C 330.71 499.17 330.22 518.50 329.39 520.05
C 328.15 522.35 327.55 522.15 319.54 516.79
C 306.71 508.19 284.75 501.94 267.41 501.94
L 259.89 501.94
L 259.18 497.10
C 258.80 494.44 258.10 489.06 257.63 485.16
C 255.60 468.18 244.68 442.85 229.78 420.65
C 220.74 407.16 200.09 381.43 168.97 344.88
C 119.72 287.03 97.47 256.57 82.55 226.57
C 73.79 208.95 71.19 198.12 71.06 178.71
C 70.95 158.46 68.73 131.02 66.53 122.55
C 64.09 113.19 59.72 104.03 55.03 98.45
C 52.44 95.37 51.98 93.86 52.78 90.90
L 53.77 87.20
L 59.09 93.92
C 62.01 97.61 65.61 103.86 67.09 107.79
C 73.02 123.63 77.20 128.84 82.61 127.12
C 83.94 126.70 85.96 124.94 87.10 123.21
C 88.75 120.68 89.89 120.22 92.88 120.81
C 95.53 121.34 99.58 120.26 106.76 117.10
C 112.34 114.63 118.82 111.88 121.16 110.97
C 131.65 106.90 140.76 88.17 138.94 74.43
C 137.19 61.21 129.68 50.68 118.13 45.26
C 110.36 41.61 95.95 39.61 82.08 40.26
C 68.44 40.89 62.89 43.23 59.85 49.60
C 57.23 55.10 58.34 59.75 63.51 64.93
C 65.68 67.10 68.24 71.08 69.19 73.78
C 70.75 78.21 70.70 78.80 68.64 79.91
C 66.81 80.88 56.70 79.59 54.61 78.12
C 54.45 78.00 53.71 73.59 52.97 68.31
C 52.02 61.54 50.47 56.85 47.71 52.39
L 43.79 46.06
L 47.53 42.06
C 49.58 39.87 53.99 34.65 57.33 30.46
C 70.10 14.48 77.54 11.20 107.62 8.26
C 165.06 2.65 183.45 13.43 212.56 69.78
C 217.17 78.70 222.61 87.60 224.65 89.55
C 226.68 91.50 233.93 95.81 240.74 99.12
L 253.11 105.16
L 233.95 104.72
C 200.47 103.96 167.16 109.23 131.29 120.95
C 98.13 131.79 83.19 145.79 80.73 168.39
C 77.60 196.95 101.24 232.26 138.42 254.58
C 169.68 273.35 214.18 297.14 304.23 343.25
C 462.92 424.49 475.41 431.05 494.47 443.05
C 497.23 444.79 499.93 448.19 501.77 452.26
C 504.61 458.53 526.43 490.65 545.61 516.77
C 558.25 533.99 558.72 534.95 556.40 538.49
C 555.38 540.04 547.92 545.32 539.84 550.21
C 531.75 555.08 515.06 565.72 502.75 573.82
C 490.44 581.92 479.58 588.84 478.63 589.21
C 477.67 589.57 475.74 588.72 474.31 587.30"/>
<path fill="#cea381" stroke="none" d="
M 244.53 506.27
C 237.83 502.50 234.11 501.45 221.93 499.81
C 213.90 498.74 204.29 498.21 200.56 498.62
C 193.78 499.38 193.78 499.38 193.78 495.68
C 193.78 484.50 190.69 456.63 187.89 442.58
C 183.12 418.65 173.87 387.79 164.53 364.66
C 159.97 353.38 156.48 343.92 156.78 343.63
C 157.32 343.07 188.74 380.13 205.65 401.29
C 230.26 432.08 244.47 457.77 249.88 481.29
C 251.75 489.46 254.08 511.06 253.06 510.88
C 252.79 510.83 248.95 508.76 244.53 506.27"/>
<path fill="#134f9a" stroke="none" d="
M 77.89 115.26
C 76.50 113.25 74.06 108.32 72.46 104.30
C 70.86 100.27 68.12 95.05 66.36 92.68
L 63.18 88.39
L 68.00 87.59
C 75.84 86.27 79.40 79.47 76.32 71.61
C 75.52 69.59 76.10 68.55 79.01 66.79
C 84.32 63.55 87.45 56.53 85.48 52.23
C 83.13 47.08 83.57 46.45 89.46 46.48
C 104.06 46.55 119.62 52.77 125.74 60.99
C 131.95 69.35 133.14 77.51 129.78 88.80
C 127.85 95.26 119.68 105.81 116.58 105.81
C 115.70 105.81 115.27 102.17 115.41 95.81
C 115.53 89.88 114.91 84.14 113.89 81.73
C 111.81 76.77 106.32 74.23 99.96 75.26
C 88.26 77.16 83.45 85.29 83.19 103.64
C 83.00 117.94 81.70 120.77 77.89 115.26"/>
<path fill="#e75239" stroke="none" d="
M 68.47 59.35
C 65.48 56.37 65.23 54.23 67.50 51.34
C 70.29 47.79 74.51 47.33 77.45 50.26
C 80.78 53.59 80.79 56.08 77.51 59.35
C 76.09 60.77 74.06 61.94 72.99 61.94
C 71.92 61.94 69.89 60.77 68.47 59.35"/>
<path fill="#545d5c" stroke="none" d="
M 7.93 95.38
C 5.28 87.35 9.44 78.26 21.08 66.65
C 31.81 55.95 38.28 51.15 40.74 52.10
C 43.48 53.15 47.36 62.52 48.13 69.92
L 48.75 75.97
L 42.72 75.25
C 31.47 73.92 18.18 82.34 11.95 94.75
L 9.39 99.82
L 7.93 95.38"/>
<path fill="#545d5c" stroke="none" d="
M 45.10 90.30
C 43.97 89.65 39.32 88.63 34.76 88.00
L 26.48 86.88
L 32.30 84.12
C 39.03 80.92 42.50 80.62 45.72 82.97
C 48.77 85.19 48.19 92.04 45.10 90.30"/>
<path fill="#fefefe" stroke="none" d="
M 92.46 112.81
C 85.97 106.34 90.58 85.87 99.20 82.86
C 106.85 80.21 110.92 87.61 108.62 100.01
C 106.96 109.01 106.86 109.15 100.73 112.27
C 94.69 115.35 94.99 115.33 92.46 112.81"/>
<path fill="#3d3a2b" stroke="none" d="
M 576.76 482.72
C 547.79 463.63 525.15 449.78 513.51 444.06
C 507.11 440.92 495.49 434.57 487.67 429.95
C 473.71 421.70 447.26 407.94 339.11 352.61
C 204.23 283.61 150.15 254.39 130.15 239.70
C 119.51 231.90 104.24 215.66 98.37 205.96
C 82.87 180.30 83.75 160.68 101.10 145.11
C 113.35 134.12 131.54 127.10 168.04 119.29
C 199.85 112.49 230.78 110.49 255.71 113.61
C 265.91 114.89 266.91 115.30 273.11 120.80
C 286.53 132.70 316.06 166.36 338.61 195.48
C 344.65 203.29 365.48 231.46 384.89 258.06
C 457.56 357.69 477.18 379.52 554.20 446.45
C 583.37 471.79 590.01 478.26 593.18 484.36
C 595.37 488.61 595.49 489.63 593.98 491.15
C 592.47 492.66 589.88 491.39 576.76 482.72"/>
<path fill="#504d4d" stroke="none" d="
M 200.49 592.03
L 194.94 590.79
L 195.81 584.75
C 196.27 581.43 197.07 578.26 197.59 577.70
C 198.79 576.39 210.39 574.61 228.14 573.02
C 247.35 571.32 252.74 569.08 256.22 561.41
C 258.56 556.25 258.98 552.36 259.43 531.11
L 259.95 506.74
L 272.19 507.47
C 278.94 507.87 284.63 508.39 284.88 508.62
C 285.11 508.86 284.80 511.37 284.18 514.21
C 282.27 522.95 280.09 540.72 279.40 553.08
C 278.81 563.70 279.00 565.12 281.36 567.48
C 284.10 570.22 284.61 570.31 313.13 572.98
C 321.58 573.77 329.25 574.71 330.17 575.06
C 331.09 575.41 332.17 577.39 332.57 579.46
C 332.97 581.54 333.63 584.97 334.05 587.10
L 334.79 590.97
L 326.86 590.97
C 322.50 590.97 310.68 590.36 300.60 589.61
C 285.25 588.49 276.20 588.70 244.90 590.90
C 224.35 592.36 207.20 593.48 206.79 593.41
C 206.39 593.33 203.54 592.71 200.49 592.03"/>
<path fill="#504d4d" stroke="none" d="
M 121.43 586.39
C 121.43 580.93 121.74 580.39 125.80 578.70
C 128.20 577.69 138.81 576.05 149.38 575.05
C 173.29 572.77 177.07 571.33 181.40 562.77
C 185.02 555.66 190.74 529.59 192.02 514.45
L 192.85 504.77
L 199.87 503.90
C 203.75 503.41 209.81 503.41 213.35 503.90
C 218.63 504.62 219.64 505.16 218.93 506.90
C 218.46 508.08 215.18 520.94 211.64 535.48
C 208.10 550.03 204.81 563.38 204.32 565.14
C 203.59 567.73 201.98 568.71 195.69 570.36
C 191.44 571.47 186.83 573.03 185.43 573.82
C 183.98 574.63 180.07 574.95 176.30 574.55
C 163.55 573.25 149.63 579.59 145.99 588.36
L 144.38 592.26
L 132.91 592.26
L 121.43 592.26
L 121.43 586.39"/>
<path fill="#b0a7a7" stroke="none" d="
M 80.37 590.71
C 83.13 586.57 85.26 586.35 85.26 590.22
C 85.26 592.95 84.65 593.55 81.88 593.55
C 78.67 593.55 78.60 593.39 80.37 590.71"/>
<path fill="#b0a7a7" stroke="none" d="
M 93.58 588.54
C 95.36 585.10 99.11 582.44 100.40 583.72
C 101.78 585.11 96.63 592.26 94.24 592.26
C 91.81 592.26 91.77 592.04 93.58 588.54"/>
<path fill="#b0a7a7" stroke="none" d="
M 105.93 591.65
C 105.93 591.33 106.91 589.01 108.11 586.49
C 111.24 579.94 114.97 580.26 114.97 587.10
C 114.97 592.13 114.87 592.26 110.45 592.26
C 107.97 592.26 105.93 591.99 105.93 591.65"/>
<path fill="#b0a7a7" stroke="none" d="
M 152.44 591.77
C 152.44 591.50 153.30 590.55 154.38 589.68
C 155.96 588.36 156.31 588.45 156.31 590.17
C 156.31 591.32 155.45 592.26 154.38 592.26
C 153.30 592.26 152.44 592.04 152.44 591.77"/>
<path fill="#b0a7a7" stroke="none" d="
M 162.77 587.72
C 162.77 584.01 163.39 582.93 166.09 581.91
C 169.23 580.71 176.98 580.13 176.98 581.10
C 176.98 582.94 173.70 590.50 172.58 591.26
C 171.80 591.79 169.28 592.23 166.97 592.23
C 163.03 592.26 162.77 591.99 162.77 587.72"/>
<path fill="#b0a7a7" stroke="none" d="
M 182.15 589.05
C 182.15 587.39 188.45 580.03 189.18 580.83
C 189.41 581.08 189.32 583.12 188.97 585.35
C 188.51 588.39 187.56 589.57 185.25 590.01
C 183.35 590.37 182.15 590.00 182.15 589.05"/>
<path fill="#b0a7a7" stroke="none" d="
M 340.65 585.47
C 340.25 582.49 340.18 579.79 340.49 579.48
C 341.58 578.39 347.27 582.27 350.03 586.00
L 352.82 589.77
L 349.64 588.97
C 347.88 588.53 345.31 588.77 343.92 589.52
C 341.62 590.75 341.31 590.37 340.65 585.47"/>
</g>
</svg>
