<?xml version="1.0" encoding="UTF-8" standalone="no"?>
<!DOCTYPE svg PUBLIC "-//W3C//DTD SVG 1.1//EN"
"http://www.w3.org/Graphics/SVG/1.1/DTD/svg11.dtd">
<svg width="724px" height="500px"
xmlns="http://www.w3.org/2000/svg" version="1.1">
<g transform="translate(0000, 0000) scale(1.0000, 1.0000)">
<path fill="#000000" stroke="none" d="
M 192.04 495.88
C 184.04 491.30 182.78 491.18 178.35 494.65
C 175.17 497.15 172.93 497.33 142.83 497.33
C 112.45 497.33 110.47 497.18 106.14 494.49
L 101.55 491.66
L 98.35 494.67
C 94.94 497.87 91.00 497.50 91.00 493.97
C 91.00 490.24 96.07 481.80 100.85 477.62
C 107.23 472.02 111.80 470.79 131.35 469.44
C 153.93 467.87 157.07 466.32 163.05 453.88
C 170.79 437.79 188.83 390.29 192.24 377.01
C 196.72 359.60 196.20 357.55 180.08 329.55
C 176.69 323.66 173.30 316.59 172.56 313.82
C 171.38 309.48 170.08 308.25 162.89 304.63
C 136.61 291.36 95.26 257.37 81.02 237.30
C 73.14 226.20 63.54 207.98 61.01 199.29
C 56.57 184.10 58.67 172.87 70.26 149.85
C 87.12 116.32 99.85 87.26 98.32 85.75
C 97.87 85.29 93.57 83.65 88.77 82.10
C 81.93 79.88 78.74 79.52 74.06 80.39
C 43.31 86.12 8.06 87.10 2.81 82.35
C 1.27 80.95 0.00 78.73 0.00 77.43
C 0.00 70.66 16.85 58.37 45.09 44.57
C 62.03 36.30 62.88 35.67 66.65 29.00
C 74.35 15.37 88.19 5.78 105.92 1.78
C 116.91 -0.70 126.56 0.67 135.83 6.02
C 152.92 15.87 161.84 36.02 157.96 55.99
C 154.06 76.00 144.77 99.51 134.04 116.48
C 125.36 130.23 121.37 139.79 123.04 142.89
C 125.86 148.16 132.27 148.82 148.80 145.57
C 192.42 136.99 237.41 145.75 275.68 170.29
C 283.02 174.99 283.04 175.00 284.21 172.06
C 284.85 170.44 288.10 163.40 291.45 156.42
C 320.07 96.66 323.36 88.85 321.06 86.08
C 320.21 85.07 318.06 84.22 316.30 84.22
C 314.52 84.22 311.05 83.38 308.60 82.35
C 305.34 80.99 302.45 80.82 297.86 81.67
C 266.80 87.46 231.57 88.46 226.30 83.69
C 224.76 82.29 223.49 80.07 223.49 78.77
C 223.49 71.99 240.34 59.71 268.58 45.91
C 285.52 37.63 286.37 37.01 290.14 30.33
C 297.58 17.18 310.70 7.79 327.97 3.30
C 338.50 0.56 347.25 1.36 356.58 5.92
C 375.32 15.08 385.33 35.74 381.39 57.10
C 377.76 76.82 368.41 100.60 357.53 117.82
C 348.84 131.56 344.86 141.12 346.53 144.22
C 349.30 149.41 355.58 150.08 372.88 147.07
C 397.06 142.87 409.28 142.39 426.58 144.93
C 453.90 148.96 474.79 156.55 497.83 170.83
C 503.35 174.25 532.71 193.80 563.06 214.28
C 607.81 244.48 621.85 253.25 637.35 260.67
C 666.68 274.73 689.10 281.94 710.43 284.17
C 720.72 285.24 724.00 287.89 724.00 295.12
C 723.99 306.06 714.47 313.92 703.42 312.11
C 700.39 311.62 688.94 309.45 677.98 307.31
C 667.02 305.16 657.81 303.65 657.52 303.93
C 657.22 304.22 662.28 306.11 668.74 308.11
C 684.75 313.07 699.34 319.96 701.20 323.44
C 702.04 325.01 702.37 327.46 701.92 328.86
C 700.63 332.93 687.87 343.68 680.08 347.27
C 667.40 353.11 664.80 352.86 624.97 342.14
C 609.89 338.07 608.71 337.97 566.75 336.86
C 543.20 336.23 522.51 335.29 520.77 334.77
C 517.67 333.85 517.63 333.96 518.76 339.71
C 520.62 349.17 519.71 368.34 516.54 387.03
C 514.92 396.59 513.29 412.53 512.94 422.46
C 512.11 445.36 513.91 453.49 524.84 476.20
C 532.82 492.78 532.96 493.28 530.78 496.59
C 528.09 500.71 524.05 500.95 518.58 497.33
C 513.53 493.98 511.82 493.98 507.56 497.33
C 504.38 499.83 502.14 500.00 472.05 500.00
C 441.67 500.00 439.69 499.85 435.35 497.17
L 430.76 494.33
L 427.52 497.38
L 424.28 500.43
L 415.89 496.86
C 405.85 492.61 406.12 492.63 401.84 495.99
C 398.66 498.49 396.42 498.66 366.32 498.66
C 335.94 498.66 333.96 498.52 329.63 495.83
L 325.04 492.99
L 321.84 496.00
C 318.43 499.21 314.49 498.84 314.49 495.31
C 314.49 491.58 319.56 483.14 324.34 478.96
C 330.72 473.36 335.29 472.13 354.84 470.78
C 377.42 469.21 380.56 467.66 386.54 455.21
C 394.31 439.08 412.32 391.62 415.72 378.34
C 419.44 363.86 419.13 359.47 413.79 349.63
L 410.18 342.98
L 398.13 339.83
C 387.31 336.99 381.74 336.55 343.26 335.52
C 319.71 334.89 299.02 333.96 297.28 333.44
C 294.18 332.51 294.14 332.62 295.27 338.37
C 297.12 347.83 296.24 367.01 293.05 385.70
C 291.43 395.25 289.80 410.98 289.41 420.63
C 288.54 442.95 290.58 452.61 300.47 473.07
C 308.19 489.08 308.99 492.53 305.90 496.74
C 304.27 498.97 303.48 499.12 300.21 497.78
C 287.27 492.51 288.33 492.65 284.37 495.76
C 280.81 498.56 279.50 498.66 248.56 498.66
C 217.91 498.66 216.24 498.53 211.73 495.75
L 207.02 492.85
L 204.17 496.42
C 200.73 500.74 200.49 500.72 192.04 495.88
M 503.99 489.97
C 510.00 485.90 512.89 485.79 518.82 489.45
C 524.57 493.01 525.74 491.99 521.99 486.72
C 516.89 479.57 510.24 463.57 507.84 452.70
C 505.03 440.00 505.68 407.71 509.10 388.37
C 510.28 381.75 511.56 374.34 511.98 371.90
L 512.72 367.46
L 506.81 368.34
C 503.57 368.82 498.76 368.62 496.12 367.90
L 491.30 366.58
L 492.76 370.12
C 493.56 372.07 494.70 389.00 495.30 407.75
C 495.89 426.50 496.76 446.06 497.23 451.20
C 499.10 472.05 493.30 476.82 463.82 478.65
C 445.15 479.81 441.35 480.83 438.92 485.35
C 435.38 491.97 440.26 493.13 472.02 493.24
C 498.72 493.32 499.12 493.28 503.99 489.97
M 280.50 488.64
C 286.51 484.56 289.40 484.45 295.33 488.11
C 301.08 491.67 302.25 490.66 298.50 485.39
C 293.40 478.24 286.75 462.23 284.35 451.36
C 281.37 437.87 282.28 406.32 286.29 383.02
C 287.82 374.20 289.06 366.67 289.06 366.31
C 289.06 365.95 284.31 365.64 278.52 365.64
L 267.97 365.64
L 269.35 368.98
C 270.10 370.83 271.21 387.67 271.81 406.42
C 272.40 425.16 273.27 444.72 273.74 449.87
C 275.62 470.71 269.81 475.48 240.33 477.31
C 221.66 478.48 217.86 479.49 215.43 484.01
C 211.89 490.63 216.77 491.79 248.53 491.90
C 275.23 491.98 275.63 491.94 280.50 488.64
M 398.27 488.64
C 404.28 484.56 407.17 484.45 413.09 488.11
C 418.85 491.67 420.01 490.66 416.27 485.39
C 411.50 478.70 404.16 461.70 404.16 457.35
C 404.16 451.38 408.33 440.99 423.27 409.76
C 430.65 394.32 438.67 376.87 441.05 370.99
L 445.41 360.29
L 438.50 359.52
C 434.69 359.09 430.08 358.32 428.23 357.78
C 424.95 356.84 424.88 356.98 425.34 362.75
C 425.61 366.02 424.50 374.02 422.89 380.53
C 419.92 392.51 400.97 443.03 392.71 460.94
C 386.72 473.94 382.84 475.78 357.88 477.33
C 339.41 478.48 335.61 479.51 333.20 484.01
C 329.65 490.63 334.54 491.79 366.30 491.90
C 392.99 491.98 393.40 491.94 398.27 488.64
M 174.64 487.26
C 181.20 483.24 183.73 483.16 189.61 486.78
C 195.36 490.33 196.52 489.32 192.78 484.05
C 188.01 477.37 180.67 460.36 180.67 456.02
C 180.67 450.00 184.83 439.67 200.31 407.26
C 211.97 382.86 222.15 359.76 222.15 357.74
C 222.15 357.47 218.39 356.98 213.79 356.63
C 209.18 356.28 204.46 355.59 203.27 355.07
C 201.42 354.26 201.21 355.04 201.74 360.66
C 202.14 364.81 201.30 371.47 199.41 379.10
C 196.36 391.48 177.80 440.68 169.29 459.01
C 164.86 468.54 163.87 469.73 158.30 472.18
C 153.82 474.17 147.49 475.17 134.39 475.99
C 116.04 477.13 112.12 478.18 109.76 482.57
C 107.86 486.11 107.94 486.30 112.08 488.54
C 115.00 490.12 121.35 490.53 142.52 490.55
C 168.63 490.56 169.42 490.48 174.64 487.26
M 439.11 474.77
C 441.60 473.96 451.25 472.75 460.56 472.11
C 486.63 470.29 492.04 466.51 490.43 451.20
C 489.96 446.79 489.16 428.45 488.64 410.43
C 487.78 381.18 487.38 377.03 484.88 371.66
C 481.77 364.97 461.43 344.10 459.31 345.41
C 458.58 345.86 457.57 347.89 457.07 349.92
C 454.88 358.72 444.25 383.85 430.92 411.76
C 423.01 428.32 415.25 445.37 413.66 449.68
L 410.78 457.50
L 417.50 471.56
L 424.22 485.61
L 429.41 480.94
C 432.26 478.37 436.62 475.59 439.11 474.77
M 215.62 473.44
C 218.11 472.62 227.76 471.42 237.07 470.78
C 263.14 468.96 268.55 465.17 266.94 449.87
C 266.47 445.45 265.67 427.11 265.15 409.09
C 264.29 379.84 263.89 375.70 261.39 370.32
C 258.28 363.64 237.94 342.77 235.82 344.08
C 235.09 344.52 234.08 346.55 233.58 348.58
C 231.39 357.38 220.76 382.51 207.43 410.43
C 199.52 426.98 191.76 444.04 190.17 448.34
L 187.29 456.16
L 194.01 470.23
L 200.73 484.28
L 205.92 479.60
C 208.77 477.03 213.13 474.25 215.62 473.44
M 512.77 360.67
C 515.49 356.39 511.35 333.93 506.24 325.19
C 504.40 322.05 503.25 318.60 503.68 317.50
C 504.90 314.30 509.77 315.13 511.46 318.84
C 513.17 322.61 517.67 325.88 523.77 327.81
C 526.06 328.53 546.92 329.63 570.10 330.24
L 612.26 331.35
L 636.22 337.47
C 649.42 340.83 662.40 343.58 665.08 343.58
C 671.54 343.58 682.02 338.22 688.47 331.62
L 693.70 326.27
L 686.43 323.06
C 670.72 316.12 631.53 304.25 570.77 288.05
C 564.14 286.28 543.98 282.10 525.94 278.74
C 453.30 265.24 406.19 250.31 371.81 229.91
C 351.82 218.03 341.38 202.55 343.25 187.53
C 344.36 178.57 350.77 165.76 356.75 160.51
L 361.42 156.42
L 357.02 156.40
C 344.74 156.39 338.58 151.32 338.58 141.23
C 338.58 136.68 339.92 133.82 358.00 99.65
C 372.65 71.97 377.40 51.36 372.79 35.48
C 370.97 29.25 369.03 26.22 363.32 20.66
C 354.35 11.89 346.80 8.82 336.10 9.60
C 319.70 10.79 299.41 25.07 295.80 37.98
C 293.48 46.24 294.69 58.78 298.37 64.73
C 302.23 70.99 308.23 74.44 319.23 76.74
C 332.67 79.56 334.35 82.87 328.61 95.23
C 326.82 99.10 318.35 117.31 309.78 135.70
C 288.94 180.45 287.73 185.35 293.57 200.88
C 301.07 220.75 309.70 234.21 324.77 249.51
C 348.46 273.54 380.36 295.60 407.57 306.75
C 447.58 323.17 453.67 326.86 476.22 348.29
C 483.10 354.83 490.69 360.76 493.50 361.80
C 499.28 363.96 511.12 363.26 512.77 360.67
M 287.82 359.57
C 289.45 358.70 290.40 356.78 290.40 354.37
C 290.40 346.91 286.03 329.47 282.75 323.85
C 280.91 320.71 279.76 317.26 280.19 316.16
C 281.41 312.97 286.28 313.80 287.97 317.50
C 289.68 321.27 294.18 324.55 300.28 326.47
C 302.57 327.19 323.12 328.28 345.94 328.88
C 382.21 329.83 393.49 330.78 403.07 333.66
C 404.86 334.21 404.52 332.89 401.40 327.27
C 399.24 323.37 396.85 317.93 396.07 315.16
C 394.87 310.83 393.54 309.57 386.37 305.96
C 381.79 303.66 374.47 299.34 370.08 296.36
C 359.78 289.39 349.09 286.36 305.12 278.05
C 228.78 263.58 182.97 249.13 148.32 228.57
C 117.58 210.32 110.70 183.86 130.65 160.57
C 135.20 155.28 135.26 155.08 132.26 155.07
C 121.27 155.04 115.09 149.57 115.09 139.89
C 115.09 135.35 116.43 132.49 134.51 98.32
C 149.16 70.63 153.91 50.03 149.30 34.14
C 147.48 27.91 145.54 24.88 139.84 19.32
C 130.86 10.55 123.31 7.49 112.61 8.26
C 96.21 9.45 75.92 23.73 72.31 36.64
C 69.99 44.91 71.20 57.45 74.88 63.40
C 78.74 69.65 84.74 73.10 95.74 75.40
C 105.76 77.50 108.95 80.15 107.97 85.56
C 107.23 89.67 99.70 106.60 81.50 145.05
C 67.69 174.25 67.58 174.53 67.58 184.49
C 67.60 192.87 68.32 196.20 72.01 204.76
C 83.87 232.23 99.95 250.71 135.06 277.14
C 152.74 290.44 165.45 297.78 184.01 305.40
C 223.68 321.66 231.12 326.14 252.37 346.52
C 258.32 352.23 265.26 357.78 267.76 358.88
C 273.10 361.19 284.09 361.58 287.82 359.57
M 446.87 352.99
C 448.20 352.29 450.07 348.89 451.03 345.44
L 452.79 339.17
L 448.21 334.99
C 443.65 330.80 405.99 313.24 404.58 314.64
C 404.18 315.04 406.15 319.47 408.95 324.47
C 411.76 329.47 415.72 336.98 417.75 341.18
C 421.38 348.62 423.91 350.91 430.84 353.01
C 435.75 354.51 444.08 354.49 446.87 352.99
M 223.02 350.79
C 225.11 350.24 226.34 348.30 227.48 343.81
C 229.02 337.67 228.99 337.55 224.59 333.53
C 220.14 329.45 182.47 311.93 181.11 313.29
C 180.71 313.69 184.47 321.35 189.47 330.31
C 197.51 344.73 199.20 346.90 204.00 349.08
C 209.41 351.54 217.53 352.27 223.02 350.79
M 713.29 302.14
C 719.14 296.30 715.38 291.44 705.02 291.44
C 691.16 291.43 659.71 280.60 629.63 265.47
C 612.60 256.90 596.73 246.93 552.68 217.10
C 493.81 177.26 481.24 169.45 464.58 162.43
C 445.60 154.44 414.17 148.60 400.21 150.47
C 386.13 152.35 368.80 159.95 361.75 167.33
C 356.33 172.99 350.65 185.13 350.64 191.08
C 350.60 206.66 368.20 221.60 405.84 237.97
C 440.92 253.22 479.00 263.30 547.35 275.43
C 603.46 285.39 701.89 303.68 702.47 304.25
C 704.05 305.83 710.95 304.48 713.29 302.14
M 339.22 273.80
C 327.43 264.32 308.55 244.79 302.66 235.96
C 293.33 222.03 285.17 204.91 283.52 195.86
C 281.20 183.13 280.73 182.51 266.72 174.26
C 242.01 159.72 221.38 152.59 195.72 149.75
C 172.41 147.15 152.86 151.87 139.97 163.18
C 134.04 168.37 127.13 182.38 127.13 189.18
C 127.13 200.53 137.08 212.58 155.49 223.50
C 177.72 236.70 220.37 252.43 256.28 260.68
C 271.89 264.28 338.91 277.59 343.24 277.97
C 343.96 278.02 342.15 276.15 339.22 273.80
M 276.35 76.71
C 285.92 75.51 293.92 74.39 294.12 74.21
C 294.34 74.04 293.43 72.03 292.13 69.76
C 289.37 64.96 291.23 64.75 266.23 72.82
C 245.32 79.59 247.28 80.35 276.35 76.71
M 52.86 75.37
C 62.43 74.17 70.43 73.05 70.63 72.87
C 70.85 72.70 69.94 70.70 68.64 68.42
C 65.88 63.62 67.74 63.41 42.74 71.48
C 21.83 78.25 23.79 79.01 52.86 75.37
M 265.31 64.69
L 286.39 58.18
L 286.39 52.49
C 286.39 49.36 286.08 46.79 285.69 46.79
C 282.87 46.79 239.55 70.29 239.55 71.83
C 239.55 72.66 239.62 72.65 265.31 64.69
M 41.82 63.36
L 62.90 56.84
L 62.90 51.15
C 62.90 48.02 62.59 45.45 62.20 45.45
C 59.38 45.45 16.06 68.96 16.06 70.49
C 16.06 71.32 16.13 71.31 41.82 63.36"/>
<path fill="#000000" stroke="none" d="
M 318.40 46.90
C 315.51 44.00 314.49 41.72 314.49 38.10
C 314.49 31.31 320.41 25.40 327.21 25.40
C 334.00 25.40 339.92 31.31 339.92 38.10
C 339.92 44.89 334.00 50.80 327.21 50.80
C 323.58 50.80 321.30 49.79 318.40 46.90
M 333.23 44.12
C 334.70 42.65 335.90 39.95 335.90 38.10
C 335.90 34.79 331.77 29.41 329.21 29.41
C 327.23 29.41 327.59 31.52 329.88 33.42
C 330.98 34.33 331.89 36.44 331.89 38.10
C 331.89 39.76 330.98 41.87 329.88 42.78
C 328.78 43.69 327.87 44.97 327.87 45.61
C 327.87 47.62 330.43 46.91 333.23 44.12"/>
<path fill="#000000" stroke="none" d="
M 94.91 45.56
C 92.02 42.66 91.00 40.39 91.00 36.76
C 91.00 29.97 96.92 24.06 103.72 24.06
C 110.51 24.06 116.43 29.97 116.43 36.76
C 116.43 43.56 110.51 49.47 103.72 49.47
C 100.09 49.47 97.81 48.45 94.91 45.56
M 109.74 42.78
C 111.21 41.31 112.41 38.61 112.41 36.76
C 112.41 33.45 108.28 28.07 105.72 28.07
C 103.74 28.07 104.10 30.19 106.39 32.09
C 107.50 32.99 108.40 35.11 108.40 36.76
C 108.40 38.42 107.50 40.53 106.39 41.44
C 105.28 42.35 104.38 43.64 104.38 44.28
C 104.38 46.28 106.94 45.57 109.74 42.78"/>
<path fill="#dad8e3" stroke="none" d="
M 493.50 361.80
C 490.69 360.76 483.10 354.83 476.22 348.29
C 453.67 326.86 447.58 323.17 407.57 306.75
C 380.36 295.60 348.46 273.54 324.77 249.51
C 309.70 234.21 301.07 220.75 293.57 200.88
C 287.73 185.35 288.94 180.45 309.78 135.70
C 318.35 117.31 326.82 99.10 328.61 95.23
C 334.35 82.87 332.67 79.56 319.23 76.74
C 308.23 74.44 302.23 70.99 298.37 64.73
C 294.69 58.78 293.48 46.24 295.80 37.98
C 299.41 25.07 319.70 10.79 336.10 9.60
C 346.80 8.82 354.35 11.89 363.32 20.66
C 369.03 26.22 370.97 29.25 372.79 35.48
C 377.40 51.36 372.65 71.97 358.00 99.65
C 339.92 133.82 338.58 136.68 338.58 141.23
C 338.58 151.32 344.74 156.39 357.02 156.40
L 361.42 156.42
L 356.75 160.51
C 350.77 165.76 344.36 178.57 343.25 187.53
C 341.38 202.55 351.82 218.03 371.81 229.91
C 406.19 250.31 453.30 265.24 525.94 278.74
C 543.98 282.10 564.14 286.28 570.77 288.05
C 631.53 304.25 670.72 316.12 686.43 323.06
L 693.70 326.27
L 688.47 331.62
C 682.02 338.22 671.54 343.58 665.08 343.58
C 662.40 343.58 649.42 340.83 636.22 337.47
L 612.26 331.35
L 570.10 330.24
C 546.92 329.63 526.06 328.53 523.77 327.81
C 517.67 325.88 513.17 322.61 511.46 318.84
C 509.77 315.13 504.90 314.30 503.68 317.50
C 503.25 318.60 504.40 322.05 506.24 325.19
C 511.35 333.93 515.49 356.39 512.77 360.67
C 511.12 363.26 499.28 363.96 493.50 361.80
M 336.01 46.90
C 338.90 44.00 339.92 41.72 339.92 38.10
C 339.92 31.31 334.00 25.40 327.21 25.40
C 320.41 25.40 314.49 31.31 314.49 38.10
C 314.49 44.89 320.41 50.80 327.21 50.80
C 330.83 50.80 333.11 49.79 336.01 46.90"/>
<path fill="#dad8e3" stroke="none" d="
M 267.76 358.88
C 265.26 357.78 258.32 352.23 252.37 346.52
C 231.12 326.14 223.68 321.66 184.01 305.40
C 165.45 297.78 152.74 290.44 135.06 277.14
C 99.95 250.71 83.87 232.23 72.01 204.76
C 68.32 196.20 67.60 192.87 67.58 184.49
C 67.58 174.53 67.69 174.25 81.50 145.05
C 99.70 106.60 107.23 89.67 107.97 85.56
C 108.95 80.15 105.76 77.50 95.74 75.40
C 84.74 73.10 78.74 69.65 74.88 63.40
C 71.20 57.45 69.99 44.91 72.31 36.64
C 75.91 23.78 95.54 9.91 112.27 8.40
C 123.20 7.41 130.64 10.35 139.84 19.32
C 145.54 24.88 147.48 27.91 149.30 34.14
C 153.91 50.03 149.16 70.63 134.51 98.32
C 116.43 132.49 115.09 135.35 115.09 139.89
C 115.09 149.57 121.27 155.04 132.26 155.07
C 135.26 155.08 135.20 155.28 130.65 160.57
C 110.70 183.86 117.58 210.32 148.32 228.57
C 182.97 249.13 228.78 263.58 305.12 278.05
C 349.09 286.36 359.78 289.39 370.08 296.36
C 374.47 299.34 381.79 303.66 386.37 305.96
C 393.54 309.57 394.87 310.83 396.07 315.16
C 396.85 317.93 399.24 323.37 401.40 327.27
C 404.52 332.89 404.86 334.21 403.07 333.66
C 393.49 330.78 382.21 329.83 345.94 328.88
C 323.12 328.28 302.57 327.19 300.28 326.47
C 294.18 324.55 289.68 321.27 287.97 317.50
C 286.28 313.80 281.41 312.97 280.19 316.16
C 279.76 317.26 280.91 320.71 282.75 323.85
C 286.03 329.47 290.40 346.91 290.40 354.37
C 290.40 356.78 289.45 358.70 287.82 359.57
C 284.09 361.58 273.10 361.19 267.76 358.88
M 112.52 45.56
C 115.41 42.66 116.43 40.39 116.43 36.76
C 116.43 29.97 110.51 24.06 103.72 24.06
C 96.92 24.06 91.00 29.97 91.00 36.76
C 91.00 43.56 96.92 49.47 103.72 49.47
C 107.34 49.47 109.62 48.45 112.52 45.56"/>
<path fill="#dad8e3" stroke="none" d="
M 430.84 353.01
C 423.91 350.91 421.38 348.62 417.75 341.18
C 415.72 336.98 411.76 329.47 408.95 324.47
C 406.15 319.47 404.18 315.04 404.58 314.64
C 405.99 313.24 443.65 330.80 448.21 334.99
L 452.79 339.17
L 451.03 345.44
C 450.07 348.89 448.20 352.29 446.87 352.99
C 444.08 354.49 435.75 354.51 430.84 353.01"/>
<path fill="#dad8e3" stroke="none" d="
M 204.00 349.08
C 199.20 346.90 197.51 344.73 189.47 330.31
C 184.47 321.35 180.71 313.69 181.11 313.29
C 182.47 311.93 220.14 329.45 224.59 333.53
C 228.99 337.55 229.02 337.67 227.48 343.81
C 226.34 348.30 225.11 350.24 223.02 350.79
C 217.53 352.27 209.41 351.54 204.00 349.08"/>
<path fill="#eb2e00" stroke="none" d="
M 327.87 45.61
C 327.87 44.97 328.78 43.69 329.88 42.78
C 330.98 41.87 331.89 39.76 331.89 38.10
C 331.89 36.44 330.98 34.33 329.88 33.42
C 327.59 31.52 327.23 29.41 329.21 29.41
C 331.77 29.41 335.90 34.79 335.90 38.10
C 335.90 39.95 334.70 42.65 333.23 44.12
C 330.43 46.91 327.87 47.62 327.87 45.61"/>
<path fill="#eb2e00" stroke="none" d="
M 104.38 44.28
C 104.38 43.64 105.28 42.35 106.39 41.44
C 109.00 39.29 108.95 34.92 106.30 31.99
C 103.22 28.58 106.38 27.39 109.68 30.70
C 113.15 34.16 113.18 39.34 109.74 42.78
C 106.94 45.57 104.38 46.28 104.38 44.28"/>
<path fill="#e09155" stroke="none" d="
M 266.23 72.82
C 291.23 64.75 289.37 64.96 292.13 69.76
C 293.43 72.03 294.34 74.04 294.12 74.21
C 293.24 74.97 258.47 78.88 253.60 78.76
C 249.12 78.66 251.18 77.69 266.23 72.82"/>
<path fill="#e09155" stroke="none" d="
M 42.74 71.48
C 67.74 63.41 65.88 63.62 68.64 68.42
C 69.94 70.70 70.85 72.70 70.63 72.87
C 69.75 73.64 34.98 77.54 30.11 77.42
C 25.63 77.33 27.69 76.35 42.74 71.48"/>
<path fill="#e09155" stroke="none" d="
M 239.55 71.83
C 239.55 70.29 282.87 46.79 285.69 46.79
C 286.08 46.79 286.39 49.36 286.39 52.49
L 286.39 58.18
L 265.31 64.69
C 239.62 72.65 239.55 72.66 239.55 71.83"/>
<path fill="#e09155" stroke="none" d="
M 16.06 70.49
C 16.06 68.92 50.08 50.39 59.70 46.74
C 62.76 45.57 62.90 45.76 62.90 51.18
L 62.90 56.84
L 41.82 63.36
C 16.13 71.31 16.06 71.32 16.06 70.49"/>
<path fill="#917e82" stroke="none" d="
M 702.47 304.25
C 701.89 303.68 603.46 285.39 547.35 275.43
C 479.00 263.30 440.92 253.22 405.84 237.97
C 368.20 221.60 350.60 206.66 350.64 191.08
C 350.65 185.13 356.33 172.99 361.75 167.33
C 368.80 159.95 386.13 152.35 400.21 150.47
C 414.17 148.60 445.60 154.44 464.58 162.43
C 481.24 169.45 493.81 177.26 552.68 217.10
C 596.73 246.93 612.60 256.90 629.63 265.47
C 659.71 280.60 691.16 291.43 705.02 291.44
C 715.38 291.44 719.14 296.30 713.29 302.14
C 710.95 304.48 704.05 305.83 702.47 304.25"/>
<path fill="#917e82" stroke="none" d="
M 308.47 271.42
C 244.58 259.14 215.98 251.26 182.35 236.63
C 144.12 220.01 127.12 205.39 127.13 189.08
C 127.15 183.28 133.02 170.25 138.06 164.85
C 149.10 153.05 171.95 147.11 196.06 149.79
C 221.36 152.59 242.12 159.79 266.72 174.26
C 280.73 182.51 281.20 183.13 283.52 195.86
C 285.17 204.91 293.33 222.03 302.66 235.96
C 308.55 244.79 327.43 264.32 339.22 273.80
C 342.15 276.15 343.96 278.02 343.24 277.97
C 342.51 277.90 326.87 274.96 308.47 271.42"/>
<path fill="#934c5c" stroke="none" d="
M 442.10 491.99
C 438.15 490.39 437.24 488.50 438.92 485.35
C 441.35 480.83 445.15 479.81 463.82 478.65
C 493.30 476.82 499.10 472.05 497.23 451.20
C 496.76 446.06 495.87 426.50 495.24 407.75
C 494.60 389.01 493.69 372.45 493.20 370.95
C 492.37 368.40 492.88 368.24 502.45 368.24
L 512.57 368.24
L 511.90 372.29
C 511.54 374.52 510.28 381.75 509.10 388.37
C 505.68 407.71 505.03 440.00 507.84 452.70
C 510.24 463.57 516.89 479.57 521.99 486.72
C 525.74 491.99 524.57 493.01 518.82 489.45
C 512.89 485.79 510.00 485.90 503.99 489.97
C 499.12 493.28 498.72 493.32 472.02 493.24
C 457.14 493.18 443.67 492.62 442.10 491.99"/>
<path fill="#934c5c" stroke="none" d="
M 218.61 490.66
C 214.66 489.05 213.75 487.17 215.43 484.01
C 217.86 479.49 221.66 478.48 240.33 477.31
C 269.81 475.48 275.62 470.71 273.74 449.87
C 273.27 444.72 272.40 425.16 271.81 406.42
C 271.21 387.67 270.10 370.83 269.35 368.98
L 267.97 365.64
L 278.52 365.64
C 284.31 365.64 289.06 365.95 289.06 366.31
C 289.06 366.67 287.82 374.20 286.29 383.02
C 282.28 406.32 281.37 437.87 284.35 451.36
C 286.75 462.23 293.40 478.24 298.50 485.39
C 302.25 490.66 301.08 491.67 295.33 488.11
C 289.40 484.45 286.51 484.56 280.50 488.64
C 275.63 491.94 275.23 491.98 248.53 491.90
C 233.65 491.84 220.18 491.28 218.61 490.66"/>
<path fill="#934c5c" stroke="none" d="
M 336.37 490.66
C 332.42 489.05 331.51 487.17 333.20 484.01
C 335.61 479.51 339.41 478.48 357.88 477.33
C 382.84 475.78 386.72 473.94 392.71 460.94
C 400.97 443.03 419.92 392.51 422.89 380.53
C 424.50 374.02 425.61 366.02 425.34 362.75
C 424.88 356.98 424.95 356.84 428.23 357.78
C 430.08 358.32 434.69 359.09 438.50 359.52
L 445.41 360.29
L 441.05 370.99
C 438.67 376.87 430.65 394.32 423.27 409.76
C 408.33 440.99 404.16 451.38 404.16 457.35
C 404.16 461.70 411.50 478.70 416.27 485.39
C 420.01 490.66 418.85 491.67 413.09 488.11
C 407.17 484.45 404.28 484.56 398.27 488.64
C 393.40 491.94 392.99 491.98 366.30 491.90
C 351.41 491.84 337.95 491.28 336.37 490.66"/>
<path fill="#934c5c" stroke="none" d="
M 112.08 488.54
C 107.94 486.30 107.86 486.11 109.76 482.57
C 112.12 478.18 116.04 477.13 134.39 475.99
C 147.49 475.17 153.82 474.17 158.30 472.18
C 163.87 469.73 164.86 468.54 169.28 459.01
C 177.87 440.49 195.43 394.25 198.87 381.08
C 200.74 373.94 202.08 365.37 201.93 361.63
C 201.70 356.42 202.06 355.07 203.54 355.48
C 204.57 355.79 209.18 356.31 213.79 356.64
C 218.39 356.99 222.15 357.47 222.15 357.74
C 222.15 359.76 211.97 382.86 200.31 407.26
C 184.83 439.67 180.67 450.00 180.67 456.02
C 180.67 460.36 188.01 477.37 192.78 484.05
C 196.52 489.32 195.36 490.33 189.61 486.78
C 183.73 483.16 181.20 483.24 174.64 487.26
C 169.42 490.48 168.63 490.56 142.52 490.55
C 121.35 490.53 115.00 490.12 112.08 488.54"/>
</g>
</svg>
