<?xml version="1.0" encoding="UTF-8" standalone="no"?>
<!DOCTYPE svg PUBLIC "-//W3C//DTD SVG 1.1//EN"
"http://www.w3.org/Graphics/SVG/1.1/DTD/svg11.dtd">
<svg width="625px" height="600px"
xmlns="http://www.w3.org/2000/svg" version="1.1">
<g transform="translate(0000, 0000) scale(1.0000, 1.0000)">
<path fill="#000000" stroke="none" d="
M 177.84 595.48
C 161.46 589.53 149.75 582.31 137.01 570.31
C 127.49 561.36 125.43 560.03 117.95 558.10
C 102.94 554.24 87.23 550.76 84.83 550.76
C 81.59 550.76 41.27 534.35 22.86 525.54
C 11.16 519.94 7.11 517.32 5.15 514.11
C 1.91 508.79 1.95 508.02 5.72 502.46
L 8.84 497.86
L 5.82 495.02
C 0.39 489.91 -0.56 485.66 2.44 479.79
C 4.91 474.95 13.03 467.21 21.10 462.03
L 24.69 459.72
L 18.94 453.59
C 7.94 441.82 4.14 428.64 6.46 410.32
C 8.20 396.66 10.32 388.85 21.67 354.45
L 31.48 324.69
L 29.81 308.25
C 27.13 282.03 29.91 265.31 39.29 251.27
C 41.87 247.43 50.58 237.15 58.67 228.44
C 74.96 210.91 82.26 199.88 84.14 189.95
C 84.83 186.34 87.24 169.67 89.50 152.92
C 97.35 94.78 102.94 75.85 118.50 54.75
C 126.00 44.59 136.70 36.66 154.95 27.76
C 181.76 14.68 218.18 4.56 250.08 1.35
C 267.38 -0.39 303.88 -0.39 320.01 1.36
C 348.30 4.43 378.33 12.21 405.42 23.48
C 420.84 29.88 433.51 36.22 470.18 55.83
C 535.55 90.79 565.46 101.08 601.72 101.08
C 610.13 101.08 617.95 101.44 619.11 101.88
C 621.59 102.84 625.00 108.98 625.00 112.51
C 625.00 119.60 614.33 126.03 597.76 128.94
C 580.01 132.06 580.12 131.75 594.29 138.87
C 606.91 145.19 612.02 150.08 612.03 155.82
C 612.03 160.11 594.15 195.28 590.51 198.14
C 583.75 203.46 581.65 203.16 565.46 194.72
C 523.85 173.00 497.99 171.15 433.35 185.26
C 420.72 188.02 405.73 190.94 400.03 191.75
C 386.89 193.63 378.28 196.38 375.34 199.63
C 373.13 202.06 373.13 202.89 375.27 218.03
C 376.50 226.77 378.93 238.03 380.67 243.08
C 384.49 254.22 384.65 260.93 381.22 268.90
C 378.75 274.67 378.63 277.83 378.63 336.82
L 378.63 398.68
L 381.55 401.29
C 385.14 404.50 389.67 406.24 401.05 408.80
C 411.92 411.25 416.33 413.44 424.87 420.69
L 431.56 426.35
L 443.69 426.35
C 450.35 426.35 457.83 426.93 460.33 427.65
C 465.27 429.07 488.27 425.57 517.71 418.94
C 535.36 414.96 536.90 415.36 534.48 423.40
C 532.07 431.37 523.82 444.12 515.13 453.29
C 510.66 458.00 507.00 462.32 507.00 462.89
C 507.00 463.48 511.57 468.86 517.14 474.86
C 526.72 485.17 535.53 498.76 535.53 503.26
C 535.53 508.91 521.86 509.48 500.00 504.75
C 476.34 499.65 452.17 500.98 419.54 509.22
C 405.94 512.66 380.69 522.56 379.14 525.07
C 378.75 525.69 382.35 530.41 387.14 535.56
C 402.63 552.26 404.28 560.58 392.69 563.44
C 389.59 564.21 377.84 565.57 366.58 566.48
C 336.36 568.90 315.86 566.16 304.29 558.16
L 300.64 555.63
L 286.02 560.31
C 264.38 567.24 244.63 570.30 216.22 571.14
C 202.85 571.53 191.91 572.23 191.91 572.67
C 191.91 573.12 193.66 578.03 195.80 583.59
C 200.32 595.33 200.32 595.30 197.65 597.97
C 194.76 600.86 191.57 600.45 177.84 595.48
M 190.30 590.60
C 189.98 589.71 188.32 585.06 186.62 580.28
L 183.53 571.56
L 177.67 570.82
C 169.40 569.77 149.09 566.45 145.23 565.52
C 142.05 564.75 142.06 564.80 145.88 568.15
C 155.17 576.27 165.98 582.63 181.54 589.14
C 189.82 592.60 191.10 592.81 190.30 590.60
M 250.26 561.85
C 271.46 558.09 333.61 535.79 381.66 514.68
C 401.14 506.11 417.14 501.55 439.11 498.30
C 463.68 494.66 461.75 495.56 465.16 485.96
C 469.62 473.43 470.71 465.38 469.28 455.38
C 467.65 443.84 463.60 436.54 457.70 434.53
C 452.18 432.63 432.25 432.34 431.15 434.13
C 429.80 436.30 424.99 435.58 421.97 432.74
C 419.29 430.22 418.58 430.16 411.16 431.61
C 402.65 433.28 395.94 432.97 367.61 429.56
C 352.97 427.80 344.07 427.56 321.58 428.29
C 306.25 428.80 288.63 429.29 282.42 429.40
C 275.36 429.51 270.54 430.20 269.52 431.21
C 267.36 433.36 264.42 433.26 261.09 430.92
C 259.01 429.47 257.34 429.33 253.99 430.28
C 246.89 432.32 238.34 431.74 220.12 428.01
C 204.51 424.81 200.36 424.48 175.05 424.50
C 139.92 424.52 119.45 425.97 116.36 428.67
C 114.47 430.33 113.56 430.38 111.05 429.03
C 108.45 427.66 107.00 427.84 101.28 430.30
C 91.92 434.32 91.39 435.93 96.10 445.87
C 103.03 460.54 104.29 469.11 104.19 500.86
C 104.12 522.16 103.60 531.02 102.17 535.85
C 101.10 539.42 100.00 543.19 99.71 544.22
C 99.33 545.66 102.96 547.09 114.76 550.16
C 123.31 552.38 136.15 555.72 143.28 557.59
C 166.83 563.75 178.31 564.95 209.41 564.47
C 228.55 564.17 242.00 563.30 250.26 561.85
M 369.01 559.74
C 376.79 558.98 385.37 557.79 388.07 557.09
L 392.97 555.82
L 390.73 552.03
C 389.50 549.94 384.05 543.82 378.62 538.43
L 368.74 528.61
L 362.33 531.40
C 358.82 532.92 346.34 537.90 334.62 542.46
C 322.90 547.01 312.72 551.31 312.02 552.01
C 311.18 552.86 312.76 554.18 316.64 555.90
C 328.02 560.93 344.45 562.13 369.01 559.74
M 95.19 533.78
C 97.28 527.87 97.68 522.84 97.78 501.51
C 97.86 484.57 97.32 473.68 96.15 468.47
C 94.01 458.98 85.50 439.31 83.55 439.31
C 82.75 439.31 76.34 442.30 69.27 445.96
C 62.19 449.62 52.90 454.33 48.63 456.43
C 28.16 466.46 24.52 468.60 17.67 474.60
C 7.21 483.76 6.98 484.54 12.34 491.57
C 14.83 494.81 16.86 497.77 16.86 498.14
C 16.86 498.51 15.39 500.97 13.60 503.60
C 10.58 508.06 10.49 508.56 12.45 510.73
C 13.60 512.00 20.68 516.00 28.18 519.62
C 41.96 526.26 80.15 542.19 84.93 543.28
C 89.24 544.26 92.58 541.17 95.19 533.78
M 525.67 500.44
C 526.70 498.78 518.65 487.74 507.77 475.88
C 502.36 469.98 497.93 464.44 497.93 463.54
C 497.93 461.13 501.32 456.58 510.81 446.25
C 520.49 435.73 528.57 422.66 524.38 424.30
C 521.01 425.62 494.44 430.98 481.59 432.92
L 471.08 434.51
L 473.63 442.42
C 477.37 454.12 477.28 473.62 473.43 484.32
C 471.82 488.76 470.82 492.89 471.21 493.52
C 471.59 494.14 477.32 495.02 483.95 495.47
C 490.56 495.94 500.36 497.44 505.71 498.82
C 516.12 501.50 524.59 502.19 525.67 500.44
M 65.85 439.32
C 84.35 430.07 102.35 421.76 105.84 420.86
C 110.23 419.73 113.82 417.58 117.53 413.87
C 120.47 410.92 124.84 407.91 127.24 407.17
C 129.66 406.43 141.53 405.51 153.66 405.14
C 198.24 403.72 204.88 399.05 222.12 356.88
C 225.36 348.97 232.48 333.58 237.93 322.69
C 257.29 284.07 260.63 267.73 260.63 211.84
C 260.63 182.20 260.33 176.24 258.82 176.24
C 257.82 176.24 248.33 171.87 237.72 166.52
C 217.73 156.45 209.12 150.44 173.55 121.70
C 150.79 103.32 148.69 101.92 145.29 103.00
C 141.23 104.29 140.42 106.81 136.13 131.07
C 130.73 161.57 128.40 170.13 117.84 198.14
C 112.09 213.41 105.69 234.05 100.40 254.44
C 91.30 289.57 86.98 301.72 78.73 315.55
C 75.75 320.54 71.20 330.17 68.61 336.93
C 66.00 343.71 58.78 360.32 52.55 373.87
C 27.41 428.50 24.53 438.60 29.98 453.24
C 30.56 454.85 31.31 456.16 31.63 456.16
C 31.95 456.16 47.34 448.59 65.85 439.32
M 409.47 423.27
C 411.58 421.13 411.55 420.91 409.14 419.12
C 407.74 418.08 404.24 416.64 401.36 415.94
C 383.95 411.65 380.04 410.35 376.61 407.61
L 372.80 404.57
L 372.43 338.07
C 372.08 272.32 372.11 271.49 374.91 264.61
L 377.74 257.65
L 374.82 248.37
C 373.21 243.27 371.71 238.42 371.46 237.59
C 371.14 236.49 369.72 236.57 366.08 237.86
C 363.36 238.83 359.50 239.65 357.53 239.69
L 353.94 239.74
L 356.76 245.25
C 364.25 259.90 365.11 271.45 363.11 331.23
C 361.01 394.20 359.36 403.53 349.68 407.53
C 347.42 408.47 334.19 410.18 320.28 411.33
C 292.41 413.65 285.23 415.04 281.87 418.74
C 277.72 423.33 281.07 424.25 295.31 422.44
C 311.09 420.43 363.30 421.56 380.58 424.28
C 395.66 426.65 406.51 426.27 409.47 423.27
M 247.10 423.63
C 248.43 421.46 245.15 419.12 237.29 416.60
C 233.36 415.36 228.57 413.53 226.62 412.55
C 221.75 410.09 218.70 403.83 219.72 398.36
C 220.88 392.20 238.42 357.29 254.88 328.42
C 276.00 291.32 281.95 277.87 289.65 249.87
L 292.75 238.63
L 289.57 239.83
C 284.91 241.61 278.05 241.31 272.76 239.09
C 270.19 238.02 267.96 237.15 267.79 237.15
C 267.62 237.15 267.09 242.54 266.61 249.14
C 264.29 280.72 260.46 293.70 242.51 330.87
C 236.02 344.28 228.93 359.73 226.76 365.21
C 211.53 403.62 201.92 410.03 157.18 411.68
C 136.29 412.44 134.54 412.70 131.30 415.49
C 129.40 417.12 128.20 418.85 128.66 419.30
C 129.11 419.75 134.71 419.40 141.09 418.54
C 160.01 415.96 204.46 417.60 223.03 421.57
C 239.91 425.18 245.82 425.69 247.10 423.63
M 18.17 404.97
C 19.68 398.55 25.78 381.06 31.72 366.09
C 45.36 331.70 44.85 333.46 41.42 332.37
C 39.89 331.89 38.19 331.98 37.63 332.59
C 35.93 334.46 19.66 384.87 16.99 396.54
C 14.30 408.25 12.09 427.66 14.24 420.52
C 14.89 418.38 16.65 411.38 18.17 404.97
M 36.93 389.42
C 43.66 375.14 51.15 358.50 57.81 343.09
L 62.14 333.05
L 57.62 333.05
C 54.16 333.05 52.83 333.72 51.91 335.96
C 34.48 378.30 21.95 414.63 22.11 422.46
C 22.12 423.52 24.09 419.46 26.49 413.39
C 28.88 407.33 33.58 396.54 36.93 389.42
M 268.96 415.83
C 277.04 409.48 288.20 407.12 323.52 404.27
C 334.13 403.41 343.43 401.99 345.88 400.82
C 353.14 397.41 353.94 392.24 356.26 334.34
C 359.36 256.78 358.99 255.19 329.86 225.51
L 312.67 207.99
L 308.04 217.96
C 305.50 223.45 300.26 238.90 296.40 252.30
C 286.23 287.66 283.79 293.16 259.15 336.52
C 251.39 350.19 240.88 369.91 235.81 380.36
C 223.78 405.15 223.94 405.58 247.98 412.54
C 254.18 414.34 260.28 416.41 261.55 417.15
C 264.73 418.99 264.99 418.95 268.96 415.83
M 58.34 325.72
C 61.50 325.09 63.91 323.00 68.24 317.13
C 78.92 302.63 86.28 283.57 94.61 248.81
C 100.10 225.85 102.33 218.68 111.90 193.09
C 121.91 166.34 124.29 157.70 129.01 130.89
C 130.95 119.83 133.10 108.54 133.79 105.80
C 135.44 99.17 140.12 94.60 145.23 94.60
C 152.41 94.60 156.46 97.36 192.56 126.88
C 202.54 135.03 215.09 144.58 220.44 148.08
C 235.70 158.07 259.56 169.31 270.77 171.77
C 299.69 178.15 299.91 178.25 307.31 188.66
C 309.82 192.17 320.33 203.68 330.71 214.24
C 347.56 231.40 350.12 233.51 354.75 234.13
C 358.03 234.57 361.75 234.06 364.91 232.74
L 369.90 230.66
L 369.05 224.50
C 367.10 210.53 366.75 200.07 368.13 196.59
C 370.05 191.66 377.71 188.46 393.65 185.95
C 400.71 184.83 417.01 181.65 429.85 178.86
C 461.66 171.95 477.84 169.76 496.98 169.76
C 523.38 169.76 544.64 175.10 568.76 187.80
C 580.55 194.00 581.52 194.28 584.30 192.47
C 588.02 190.03 592.19 182.90 599.03 167.33
C 604.19 155.56 604.28 155.09 602.04 152.55
C 600.75 151.10 595.36 147.90 590.03 145.41
C 584.70 142.94 578.15 139.46 575.48 137.70
C 570.67 134.51 570.53 134.50 557.30 136.04
C 549.96 136.89 534.91 139.23 523.86 141.25
C 471.52 150.79 407.22 154.04 345.84 150.23
C 299.88 147.38 265.35 137.97 234.41 119.87
C 214.47 108.21 197.67 88.50 191.79 69.87
C 189.21 61.72 189.08 60.10 190.51 53.71
C 192.83 43.37 200.17 29.61 207.84 21.21
C 212.27 16.38 213.68 14.15 211.98 14.64
C 168.58 27.34 145.32 38.49 130.07 53.87
C 112.05 72.06 104.71 93.41 96.69 150.97
C 90.57 194.90 89.80 199.02 86.23 206.01
C 81.85 214.59 77.19 220.46 61.19 237.63
C 36.62 263.96 32.04 277.54 36.88 309.71
C 38.33 319.39 39.32 322.47 41.55 324.29
C 44.46 326.64 50.96 327.20 58.34 325.72
M 291.26 233.38
C 293.58 231.97 295.70 229.35 296.21 227.24
C 296.72 225.20 299.42 218.67 302.20 212.72
L 307.26 201.90
L 303.53 196.52
C 295.92 185.56 289.60 182.07 272.63 179.46
L 267.12 178.60
L 267.12 204.51
L 267.12 230.40
L 272.63 233.12
C 279.46 236.50 285.98 236.59 291.26 233.38
M 471.99 141.98
C 482.34 140.81 504.21 137.59 520.62 134.81
C 537.02 132.04 555.39 129.36 561.46 128.85
C 567.53 128.35 574.62 127.18 577.24 126.26
C 579.85 125.35 584.82 124.21 588.27 123.75
C 599.71 122.18 609.18 118.99 613.55 115.21
C 617.57 111.73 617.71 111.34 615.59 109.68
C 613.98 108.43 607.48 107.70 593.54 107.22
C 555.96 105.94 530.63 96.86 461.19 59.75
C 408.51 31.61 389.47 23.40 358.53 15.54
C 347.83 12.82 331.89 9.67 323.08 8.54
C 303.09 5.96 266.08 5.90 247.34 8.38
C 231.59 10.48 226.98 12.87 214.78 25.26
C 206.46 33.71 201.79 42.12 199.20 53.29
C 196.27 65.92 199.11 74.00 212.50 91.15
C 233.75 118.37 286.00 139.44 342.97 143.75
C 367.44 145.61 449.83 144.47 471.99 141.98"/>
<path fill="#000000" stroke="none" d="
M 58.35 483.37
C 56.74 481.76 55.76 479.05 55.76 476.24
C 55.76 470.28 59.52 466.52 65.48 466.52
C 71.45 466.52 75.21 470.28 75.21 476.24
C 75.21 479.05 74.22 481.76 72.61 483.37
C 71.01 484.98 68.30 485.96 65.48 485.96
C 62.67 485.96 59.96 484.98 58.35 483.37"/>
<path fill="#000000" stroke="none" d="
M 42.79 307.13
C 41.18 305.52 40.20 302.81 40.20 300.00
C 40.20 294.04 43.96 290.28 49.92 290.28
C 55.89 290.28 59.65 294.04 59.65 300.00
C 59.65 302.81 58.66 305.52 57.05 307.13
C 55.45 308.73 52.74 309.72 49.92 309.72
C 47.11 309.72 44.40 308.73 42.79 307.13"/>
<path fill="#76656b" stroke="none" d="
M 342.97 143.75
C 286.00 139.44 233.75 118.37 212.50 91.15
C 199.11 74.00 196.27 65.92 199.20 53.29
C 201.79 42.12 206.46 33.71 214.78 25.26
C 230.46 9.34 235.20 7.93 276.85 6.86
C 309.71 6.00 329.29 8.09 358.53 15.52
C 389.48 23.42 408.52 31.61 461.19 59.75
C 530.63 96.86 555.96 105.94 593.54 107.22
C 607.48 107.70 613.98 108.43 615.59 109.68
C 617.71 111.34 617.57 111.73 613.55 115.21
C 609.18 118.99 599.71 122.18 588.27 123.75
C 584.82 124.21 579.85 125.35 577.24 126.26
C 574.62 127.18 567.53 128.35 561.46 128.85
C 555.39 129.36 537.02 132.04 520.62 134.81
C 473.25 142.83 458.91 144.04 405.86 144.51
C 379.84 144.74 351.53 144.40 342.97 143.75"/>
<path fill="#cdcdd9" stroke="none" d="
M 41.55 324.29
C 39.32 322.47 38.33 319.39 36.88 309.71
C 32.04 277.54 36.62 263.96 61.19 237.63
C 77.19 220.46 81.85 214.59 86.23 206.01
C 89.80 199.02 90.57 194.90 96.69 150.97
C 102.33 110.46 106.76 92.05 114.80 75.54
C 125.49 53.53 140.69 41.18 173.94 27.45
C 184.85 22.92 201.97 17.27 211.06 15.16
C 213.45 14.62 212.80 15.81 207.57 21.51
C 200.14 29.64 192.80 43.50 190.51 53.71
C 189.08 60.10 189.21 61.72 191.79 69.87
C 197.67 88.50 214.47 108.21 234.41 119.87
C 265.35 137.97 299.88 147.38 345.84 150.23
C 407.22 154.04 471.52 150.79 523.86 141.25
C 534.91 139.23 549.96 136.89 557.30 136.04
C 570.53 134.50 570.67 134.51 575.48 137.70
C 578.15 139.46 584.70 142.94 590.03 145.41
C 595.36 147.90 600.75 151.10 602.04 152.55
C 604.28 155.09 604.19 155.56 599.03 167.33
C 592.19 182.90 588.02 190.03 584.30 192.47
C 581.52 194.28 580.55 194.00 568.76 187.80
C 544.64 175.10 523.38 169.76 496.98 169.76
C 477.84 169.76 461.66 171.95 429.85 178.86
C 417.01 181.65 400.71 184.83 393.65 185.95
C 377.71 188.46 370.05 191.66 368.13 196.59
C 366.75 200.07 367.10 210.53 369.05 224.50
L 369.90 230.66
L 364.91 232.74
C 361.75 234.06 358.03 234.57 354.75 234.13
C 350.12 233.51 347.56 231.40 330.71 214.24
C 320.33 203.68 309.82 192.17 307.31 188.66
C 299.91 178.25 299.69 178.15 270.77 171.77
C 259.56 169.31 235.70 158.07 220.44 148.08
C 215.09 144.58 202.54 135.03 192.56 126.88
C 156.46 97.36 152.41 94.60 145.23 94.60
C 140.12 94.60 135.44 99.17 133.79 105.80
C 133.10 108.54 130.95 119.83 129.01 130.89
C 124.29 157.70 121.91 166.34 111.90 193.09
C 102.33 218.68 100.10 225.85 94.61 248.81
C 86.28 283.57 78.92 302.63 68.24 317.13
C 63.91 323.00 61.50 325.09 58.34 325.72
C 50.96 327.20 44.46 326.64 41.55 324.29
M 57.05 307.13
C 58.66 305.52 59.65 302.81 59.65 300.00
C 59.65 294.04 55.89 290.28 49.92 290.28
C 43.96 290.28 40.20 294.04 40.20 300.00
C 40.20 302.81 41.18 305.52 42.79 307.13
C 44.40 308.73 47.11 309.72 49.92 309.72
C 52.74 309.72 55.45 308.73 57.05 307.13"/>
<path fill="#cdcdd9" stroke="none" d="
M 272.63 233.12
L 267.12 230.40
L 267.12 204.51
L 267.12 178.60
L 272.63 179.46
C 289.60 182.07 295.92 185.56 303.53 196.52
L 307.26 201.90
L 302.20 212.72
C 299.42 218.67 296.72 225.20 296.21 227.24
C 295.07 231.81 288.74 235.84 282.68 235.85
C 280.17 235.85 275.66 234.62 272.63 233.12"/>
<path fill="#ef907a" stroke="none" d="
M 380.58 424.28
C 363.30 421.56 311.09 420.43 295.31 422.44
C 281.07 424.25 277.72 423.33 281.87 418.74
C 285.23 415.04 292.41 413.65 320.28 411.33
C 334.19 410.18 347.42 408.47 349.68 407.53
C 359.36 403.53 361.01 394.20 363.11 331.23
C 365.11 271.61 364.25 259.88 356.85 245.42
L 354.11 240.06
L 358.91 239.35
C 361.55 238.96 365.61 238.24 367.93 237.73
C 371.08 237.06 372.15 237.28 372.13 238.60
C 372.12 239.59 373.38 244.28 374.92 249.02
L 377.74 257.65
L 374.91 264.61
C 372.11 271.49 372.08 272.32 372.43 338.07
L 372.80 404.57
L 376.61 407.61
C 380.04 410.35 383.95 411.65 401.36 415.94
C 404.24 416.64 407.74 418.08 409.14 419.12
C 411.55 420.91 411.58 421.13 409.47 423.27
C 406.51 426.27 395.66 426.65 380.58 424.28"/>
<path fill="#ef907a" stroke="none" d="
M 223.03 421.57
C 204.46 417.60 160.01 415.96 141.09 418.54
C 134.71 419.40 129.11 419.75 128.66 419.30
C 128.20 418.85 129.40 417.12 131.30 415.49
C 134.54 412.70 136.29 412.44 157.18 411.68
C 201.92 410.03 211.53 403.62 226.76 365.21
C 228.93 359.73 236.02 344.28 242.51 330.87
C 260.46 293.70 264.29 280.72 266.61 249.14
C 267.09 242.54 267.62 237.15 267.79 237.15
C 267.96 237.15 270.34 238.10 273.11 239.24
C 276.57 240.69 280.23 241.11 284.93 240.63
C 289.34 240.18 291.75 240.41 291.75 241.31
C 291.75 243.91 283.82 270.16 280.47 278.59
C 275.65 290.75 270.01 301.70 254.56 328.90
C 238.30 357.50 220.86 392.28 219.72 398.36
C 218.70 403.83 221.75 410.09 226.62 412.55
C 228.57 413.53 233.36 415.36 237.29 416.60
C 245.15 419.12 248.43 421.46 247.10 423.63
C 245.82 425.69 239.91 425.18 223.03 421.57"/>
<path fill="#de6246" stroke="none" d="
M 13.76 415.98
C 14.15 411.36 15.60 402.61 16.99 396.54
C 20.63 380.66 36.59 333.21 38.54 332.46
C 39.46 332.11 41.09 332.18 42.18 332.59
C 44.68 333.55 44.90 332.81 31.72 366.09
C 25.78 381.06 19.68 398.55 18.17 404.97
C 13.77 423.59 12.97 425.60 13.76 415.98"/>
<path fill="#de6246" stroke="none" d="
M 22.11 422.46
C 21.95 414.63 34.48 378.30 51.91 335.96
C 52.83 333.72 54.16 333.05 57.62 333.05
L 62.14 333.05
L 57.81 343.09
C 51.15 358.50 43.66 375.14 36.93 389.42
C 33.58 396.54 28.88 407.33 26.49 413.39
C 24.09 419.46 22.12 423.52 22.11 422.46"/>
<path fill="#797b80" stroke="none" d="
M 168.57 562.95
C 161.80 561.86 150.41 559.45 143.28 557.59
C 136.15 555.72 123.31 552.38 114.76 550.16
C 102.96 547.09 99.33 545.66 99.71 544.22
C 100.00 543.19 101.10 539.42 102.17 535.85
C 103.60 531.02 104.12 522.16 104.19 500.86
C 104.29 469.11 103.03 460.54 96.10 445.87
C 91.39 435.93 91.92 434.32 101.28 430.30
C 107.00 427.84 108.45 427.66 111.05 429.03
C 113.56 430.38 114.47 430.33 116.36 428.67
C 119.44 426.00 141.10 424.46 175.70 424.47
C 200.23 424.48 204.63 424.83 220.12 428.01
C 238.34 431.74 246.89 432.32 253.99 430.28
C 257.34 429.33 259.01 429.47 261.09 430.92
C 264.42 433.26 267.36 433.36 269.52 431.21
C 270.54 430.20 275.36 429.51 282.42 429.40
C 288.63 429.29 306.25 428.80 321.58 428.29
C 344.07 427.56 352.97 427.80 367.61 429.56
C 395.94 432.97 402.65 433.28 411.16 431.61
C 418.58 430.16 419.29 430.22 421.97 432.74
C 424.99 435.58 429.80 436.30 431.15 434.13
C 432.25 432.34 452.18 432.63 457.70 434.53
C 463.60 436.54 467.65 443.84 469.28 455.38
C 470.71 465.38 469.62 473.43 465.16 485.96
C 461.75 495.56 463.68 494.66 439.11 498.30
C 417.14 501.55 401.14 506.11 381.66 514.68
C 333.61 535.79 271.46 558.09 250.26 561.85
C 232.73 564.95 185.14 565.58 168.57 562.95"/>
<path fill="#e77d53" stroke="none" d="
M 181.54 589.14
C 165.98 582.63 155.17 576.27 145.88 568.15
C 142.06 564.80 142.05 564.75 145.23 565.52
C 149.09 566.45 169.40 569.77 177.67 570.82
L 183.53 571.56
L 186.62 580.28
C 188.32 585.06 189.98 589.71 190.30 590.60
C 191.10 592.81 189.82 592.60 181.54 589.14"/>
<path fill="#e77d53" stroke="none" d="
M 329.51 559.66
C 320.44 558.16 310.31 553.72 312.02 552.01
C 312.72 551.31 322.90 547.01 334.62 542.46
C 346.34 537.90 358.82 532.92 362.33 531.40
L 368.74 528.61
L 378.62 538.43
C 384.05 543.82 389.50 549.94 390.73 552.03
L 392.97 555.82
L 388.07 557.09
C 374.88 560.51 343.05 561.91 329.51 559.66"/>
<path fill="#e77d53" stroke="none" d="
M 505.71 498.82
C 500.36 497.44 490.56 495.94 483.95 495.47
C 477.32 495.02 471.59 494.14 471.21 493.52
C 470.82 492.89 471.82 488.76 473.43 484.32
C 477.28 473.65 477.37 454.12 473.64 442.48
L 471.12 434.63
L 488.84 431.68
C 498.59 430.04 511.02 427.67 516.48 426.40
L 526.41 424.10
L 522.86 430.55
C 520.92 434.10 515.50 441.16 510.81 446.25
C 501.32 456.58 497.93 461.13 497.93 463.54
C 497.93 464.44 502.36 469.98 507.77 475.88
C 518.65 487.74 526.70 498.78 525.67 500.44
C 524.59 502.19 516.12 501.50 505.71 498.82"/>
<path fill="#648764" stroke="none" d="
M 84.93 543.28
C 80.15 542.19 41.96 526.26 28.18 519.62
C 20.68 516.00 13.60 512.00 12.45 510.73
C 10.49 508.56 10.58 508.06 13.60 503.60
C 15.39 500.97 16.86 498.51 16.86 498.14
C 16.86 497.77 14.83 494.81 12.34 491.57
C 8.86 487.00 8.12 485.14 9.09 483.36
C 11.86 478.17 25.96 467.59 37.60 461.94
C 44.39 458.64 53.71 453.93 58.35 451.45
C 68.65 445.94 78.85 441.11 82.37 440.09
C 84.61 439.44 85.63 440.81 89.68 450.01
C 96.89 466.33 97.91 472.90 97.78 501.51
C 97.68 522.84 97.28 527.87 95.19 533.78
C 92.58 541.17 89.24 544.26 84.93 543.28
M 72.61 483.37
C 74.22 481.76 75.21 479.05 75.21 476.24
C 75.21 470.28 71.45 466.52 65.48 466.52
C 59.52 466.52 55.76 470.28 55.76 476.24
C 55.76 479.05 56.74 481.76 58.35 483.37
C 59.96 484.98 62.67 485.96 65.48 485.96
C 68.30 485.96 71.01 484.98 72.61 483.37"/>
</g>
</svg>
