<?xml version="1.0" encoding="UTF-8" standalone="no"?>
<!DOCTYPE svg PUBLIC "-//W3C//DTD SVG 1.1//EN"
"http://www.w3.org/Graphics/SVG/1.1/DTD/svg11.dtd">
<svg width="594px" height="600px"
xmlns="http://www.w3.org/2000/svg" version="1.1">
<g transform="translate(0000, 0000) scale(1.0000, 1.0000)">
<path fill="#000000" stroke="none" d="
M 270.32 599.38
C 258.37 598.42 236.29 595.70 226.53 593.98
C 145.59 579.76 72.25 541.48 13.49 482.81
C 6.79 476.11 0.98 469.60 0.56 468.32
C -1.14 462.95 -2.83 463.09 64.43 463.09
L 126.61 463.09
L 127.82 460.17
C 129.69 455.64 133.25 452.91 138.08 452.30
C 140.49 451.99 143.37 451.26 144.47 450.67
C 145.58 450.09 150.11 449.31 154.54 448.92
C 158.97 448.54 164.55 447.49 166.93 446.59
C 169.33 445.67 177.22 444.43 184.49 443.83
C 191.75 443.21 199.31 442.17 201.29 441.48
C 207.84 439.24 210.63 432.87 214.31 411.74
C 217.26 394.79 217.78 385.42 216.49 371.93
C 214.17 347.82 205.88 315.01 195.88 290.46
C 189.88 275.73 188.87 272.71 187.28 264.62
C 186.26 259.51 184.83 257.30 172.86 242.37
C 151.64 215.90 140.94 200.11 131.04 180.70
C 124.04 166.93 122.96 161.60 121.74 134.40
C 120.55 107.70 119.00 97.55 114.84 89.09
C 109.08 77.41 101.89 72.52 92.31 73.80
C 87.34 74.48 85.61 76.12 82.06 83.54
C 80.47 86.87 78.62 89.60 77.97 89.60
C 77.30 89.60 75.69 86.77 74.37 83.31
C 71.15 74.81 71.17 65.66 74.43 59.42
C 77.21 54.12 86.35 44.35 95.71 36.68
C 99.37 33.69 104.54 28.41 107.22 24.94
C 121.87 5.90 127.35 3.36 159.07 0.98
C 181.96 -0.76 195.08 0.82 206.60 6.65
C 217.90 12.37 230.27 27.68 241.20 49.48
C 248.49 64.02 250.91 66.53 263.80 73.00
C 276.72 79.48 286.04 86.73 299.63 100.88
C 319.24 121.31 338.15 145.06 372.02 191.78
C 432.11 274.70 447.15 291.40 514.51 349.97
C 534.36 367.23 540.40 374.29 541.34 381.30
C 541.78 384.58 541.46 385.76 539.63 387.58
C 535.63 391.59 530.38 390.06 516.20 380.78
C 501.59 371.20 474.67 354.19 471.33 352.43
C 470.05 351.74 468.80 351.36 468.57 351.59
C 468.34 351.83 470.04 354.69 472.33 357.97
C 474.63 361.25 482.15 372.04 489.05 381.96
C 495.95 391.88 503.39 402.27 505.58 405.05
C 516.34 418.64 515.92 424.00 503.61 431.02
C 491.85 437.74 456.44 460.66 455.52 462.17
C 455.18 462.71 481.90 463.09 522.24 463.09
C 581.51 463.09 589.79 463.28 591.76 464.66
C 592.99 465.51 594.00 467.12 594.00 468.22
C 594.00 469.43 589.14 475.10 581.67 482.61
C 517.32 547.23 437.25 586.00 344.32 597.52
C 332.25 599.01 281.71 600.28 270.32 599.38
M 338.78 592.50
C 430.44 581.47 509.04 543.85 574.87 479.51
L 585.44 469.18
L 297.50 469.18
L 9.56 469.18
L 20.14 479.51
C 79.68 537.69 151.51 574.88 231.56 588.95
C 241.30 590.67 263.30 593.38 275.35 594.34
C 285.82 595.19 326.22 594.01 338.78 592.50
M 137.93 460.49
C 137.93 457.47 136.27 457.64 134.11 460.87
C 132.73 462.97 132.79 463.09 135.29 463.09
C 137.46 463.09 137.93 462.62 137.93 460.49
M 262.34 461.02
C 286.73 459.30 293.79 459.14 305.75 460.02
C 313.60 460.60 322.81 461.07 326.22 461.07
L 332.40 461.07
L 331.81 458.05
C 331.49 456.39 330.98 453.71 330.67 452.09
C 330.35 450.48 329.51 448.93 328.79 448.66
C 328.08 448.39 322.10 447.65 315.51 447.04
C 293.28 444.96 292.89 444.89 290.76 442.75
C 288.92 440.91 288.76 439.80 289.23 431.52
C 289.76 421.87 291.46 408.01 292.95 401.18
C 293.44 398.97 293.68 397.02 293.50 396.83
C 293.31 396.64 288.87 396.24 283.61 395.93
L 274.07 395.36
L 273.66 414.37
C 273.05 443.29 271.72 445.07 249.28 447.07
C 235.45 448.31 226.40 449.70 225.47 450.72
C 225.07 451.16 224.44 453.63 224.08 456.22
L 223.40 460.93
L 227.73 461.90
C 230.11 462.43 232.32 462.92 232.64 462.98
C 232.96 463.04 246.33 462.16 262.34 461.02
M 435.94 462.49
C 435.94 462.17 432.41 455.27 428.09 447.14
C 423.78 439.03 416.23 424.01 411.31 413.76
C 385.71 360.44 373.72 345.28 346.38 331.68
C 337.46 327.24 336.82 327.07 335.58 328.77
C 334.53 330.20 334.25 338.79 334.25 368.70
C 334.25 408.72 333.97 411.48 329.68 413.13
C 326.80 414.24 325.73 413.85 318.09 408.88
C 313.96 406.19 308.38 403.16 305.67 402.14
L 300.75 400.29
L 298.87 402.60
C 297.72 404.03 297.00 406.52 297.00 409.09
C 297.00 411.38 296.32 416.81 295.49 421.15
C 294.65 425.49 293.98 430.72 293.98 432.79
C 293.98 439.61 294.83 440.01 312.47 441.54
C 337.13 443.68 343.43 445.92 349.08 454.58
C 350.87 457.32 352.90 460.36 353.58 461.33
C 354.74 462.96 357.91 463.09 395.38 463.09
C 417.68 463.09 435.94 462.83 435.94 462.49
M 148.55 458.97
C 149.44 457.26 149.96 455.66 149.73 455.42
C 148.72 454.42 145.80 456.49 144.41 459.18
C 143.00 461.91 143.03 462.08 144.93 462.08
C 146.15 462.08 147.56 460.87 148.55 458.97
M 161.08 458.05
C 161.08 452.72 158.18 452.47 155.74 457.58
C 154.80 459.54 154.04 461.36 154.04 461.61
C 154.04 461.87 155.62 462.08 157.56 462.08
C 161.00 462.08 161.08 461.98 161.08 458.05
M 185.26 459.04
C 188.10 452.19 198.94 447.25 208.88 448.27
C 211.82 448.58 214.87 448.33 215.99 447.69
C 217.08 447.08 220.68 445.86 223.99 445.00
C 228.89 443.71 230.15 442.94 230.71 440.92
C 231.10 439.55 233.66 429.13 236.42 417.79
C 239.18 406.44 241.74 396.39 242.11 395.47
C 242.67 394.07 241.88 393.67 237.26 393.10
C 234.22 392.72 229.49 392.72 226.75 393.09
L 221.77 393.78
L 221.13 401.36
C 220.13 413.18 215.67 433.52 212.85 439.08
C 209.48 445.75 206.53 446.88 187.90 448.65
C 179.66 449.44 171.39 450.71 169.52 451.50
C 166.36 452.82 166.12 453.24 166.12 457.50
L 166.12 462.08
L 175.06 462.08
L 184.00 462.08
L 185.26 459.04
M 193.30 460.45
C 193.30 459.11 193.03 459.04 191.79 460.07
C 190.97 460.75 190.28 461.49 190.28 461.70
C 190.28 461.91 190.97 462.08 191.79 462.08
C 192.62 462.08 193.30 461.35 193.30 460.45
M 205.98 461.31
C 206.85 460.71 209.41 454.81 209.41 453.37
C 209.41 452.62 203.37 453.07 200.92 454.01
C 198.82 454.80 198.34 455.65 198.34 458.54
C 198.34 461.87 198.54 462.08 201.61 462.06
C 203.41 462.06 205.37 461.72 205.98 461.31
M 218.75 456.69
C 219.40 452.46 219.03 452.31 216.01 455.57
C 212.74 459.10 212.68 460.94 215.85 460.33
C 217.66 459.99 218.39 459.06 218.75 456.69
M 343.97 459.51
L 346.44 460.14
L 344.32 457.27
C 343.16 455.69 340.79 453.57 339.07 452.56
L 335.95 450.70
L 336.62 454.01
C 336.98 455.82 337.27 458.16 337.27 459.22
C 337.27 460.86 337.58 460.98 339.38 460.02
C 340.53 459.39 342.60 459.17 343.97 459.51
M 463.29 447.69
C 472.88 441.37 485.89 433.08 492.19 429.27
C 498.50 425.46 504.31 421.34 505.10 420.13
C 506.91 417.37 506.54 416.62 496.69 403.19
C 481.74 382.80 464.74 357.74 462.52 352.85
C 461.10 349.68 458.99 347.02 456.84 345.66
C 441.99 336.30 432.25 331.19 308.58 267.81
C 238.40 231.83 203.72 213.27 179.36 198.62
C 150.38 181.21 131.96 153.66 134.40 131.38
C 136.32 113.75 147.96 102.83 173.80 94.37
C 201.76 85.22 227.71 81.11 253.81 81.70
L 268.74 82.05
L 259.09 77.34
C 253.79 74.75 248.14 71.39 246.56 69.87
C 244.97 68.35 240.73 61.40 237.14 54.44
C 214.44 10.46 199.97 1.97 155.31 6.44
C 131.82 8.79 126.09 11.33 116.16 23.77
C 113.55 27.03 110.12 31.11 108.52 32.82
L 105.61 35.94
L 108.66 40.87
C 110.82 44.36 112.02 48.01 112.76 53.30
C 113.34 57.41 113.92 60.86 114.04 60.95
C 115.67 62.09 123.55 63.10 124.97 62.35
C 126.58 61.48 126.62 61.02 125.40 57.56
C 124.66 55.46 122.67 52.35 120.97 50.66
C 116.95 46.62 116.08 42.99 118.13 38.70
C 120.49 33.72 124.82 31.90 135.45 31.41
C 162.23 30.16 177.26 39.20 179.76 58.07
C 181.18 68.79 174.08 83.41 165.91 86.58
C 164.08 87.29 159.03 89.44 154.68 91.36
C 149.08 93.83 145.93 94.67 143.87 94.26
C 141.53 93.80 140.65 94.16 139.36 96.13
C 138.47 97.48 136.90 98.85 135.86 99.18
C 131.65 100.52 128.38 96.45 123.76 84.10
C 122.62 81.03 119.81 76.16 117.53 73.28
L 113.38 68.03
L 112.62 70.92
C 111.99 73.23 112.35 74.41 114.37 76.81
C 118.02 81.16 121.43 88.31 123.33 95.62
C 125.04 102.22 126.77 123.63 126.86 139.43
C 126.96 154.57 128.99 163.03 135.81 176.77
C 147.44 200.17 164.78 223.94 203.17 269.07
C 227.42 297.59 243.51 317.67 250.56 328.19
C 262.17 345.51 270.68 365.28 272.26 378.52
C 272.63 381.56 273.17 385.76 273.47 387.84
L 274.03 391.61
L 279.88 391.61
C 293.40 391.61 310.51 396.49 320.51 403.20
C 326.75 407.39 327.22 407.54 328.19 405.74
C 328.83 404.54 329.22 389.46 329.22 365.00
C 329.22 327.68 329.30 326.09 331.20 324.19
C 334.77 320.62 337.23 320.79 346.85 325.26
C 377.31 339.45 387.22 351.91 419.23 416.22
C 430.18 438.22 440.03 457.12 441.13 458.21
C 442.24 459.32 443.75 459.99 444.49 459.70
C 445.24 459.41 453.70 454.02 463.29 447.69
M 259.25 440.08
C 266.62 437.65 268.13 434.06 268.60 417.79
L 268.96 405.20
L 260.76 400.83
C 251.83 396.08 248.39 395.87 246.63 399.95
C 245.29 403.05 236.59 438.80 236.59 441.22
C 236.59 443.08 237.08 443.15 245.40 442.47
C 250.25 442.07 256.48 441.00 259.25 440.08
M 268.41 390.35
C 266.33 365.26 255.95 343.39 231.75 313.09
C 218.57 296.58 194.09 267.66 193.66 268.10
C 193.43 268.33 196.15 275.71 199.70 284.51
C 206.98 302.56 214.19 326.63 217.91 345.30
C 220.09 356.27 222.50 378.01 222.50 386.73
C 222.50 389.62 222.50 389.62 227.78 389.02
C 230.69 388.70 238.18 389.11 244.44 389.95
C 253.93 391.23 256.83 392.05 262.05 394.99
C 265.50 396.94 268.49 398.55 268.70 398.59
C 268.92 398.63 268.79 394.92 268.41 390.35
M 533.76 377.90
C 531.30 373.14 526.12 368.09 503.39 348.32
C 443.37 296.10 428.07 279.07 371.44 201.34
C 356.31 180.58 340.08 158.61 335.37 152.52
C 317.80 129.80 294.79 103.53 284.32 94.25
C 279.49 89.96 278.72 89.64 270.76 88.64
C 251.06 86.17 227.52 87.70 202.29 93.10
C 173.99 99.16 159.80 104.65 150.27 113.21
C 136.75 125.37 136.07 140.67 148.15 160.69
C 152.72 168.26 164.62 180.93 172.91 187.02
C 188.50 198.47 230.64 221.28 335.76 275.10
C 420.05 318.27 440.66 329.01 451.54 335.45
C 457.63 339.05 466.69 344.00 471.68 346.46
C 480.75 350.92 498.40 361.72 520.97 376.62
C 531.20 383.39 533.21 384.37 534.39 383.19
C 535.57 382.01 535.48 381.21 533.76 377.90
M 136.32 80.86
C 136.52 66.54 140.26 60.20 149.39 58.72
C 154.34 57.92 158.62 59.90 160.24 63.77
C 161.03 65.65 161.52 70.13 161.43 74.75
C 161.32 79.71 161.65 82.55 162.33 82.55
C 164.75 82.55 171.12 74.33 172.62 69.28
C 175.24 60.47 174.31 54.11 169.47 47.59
C 164.63 41.06 152.57 36.31 140.72 36.26
L 135.95 36.24
L 137.63 39.77
C 139.20 43.06 139.20 43.52 137.63 46.82
C 136.70 48.77 134.65 51.14 133.06 52.11
C 130.79 53.49 130.34 54.29 130.96 55.87
C 133.36 62.00 130.59 67.31 124.48 68.34
L 120.72 68.96
L 123.20 72.31
C 124.57 74.15 126.70 78.23 127.95 81.37
C 130.94 88.90 133.84 93.08 135.16 91.76
C 135.72 91.20 136.24 86.30 136.32 80.86
M 149.98 87.59
C 154.76 85.16 154.84 85.05 156.13 78.03
C 157.33 71.54 156.07 66.06 153.01 64.42
C 145.21 60.24 136.78 81.26 143.54 88.02
C 145.51 89.98 145.28 90.00 149.98 87.59
M 86.33 66.25
C 91.32 61.05 98.78 58.01 104.81 58.72
L 109.53 59.28
L 109.04 55.06
C 108.35 49.05 106.91 44.82 104.56 41.83
L 102.52 39.23
L 98.33 42.51
C 82.56 54.91 75.05 66.50 77.66 74.42
L 78.80 77.88
L 80.79 73.92
C 81.88 71.75 84.38 68.30 86.33 66.25
M 107.11 64.73
C 104.60 62.90 101.90 63.13 96.65 65.63
L 92.12 67.78
L 98.57 68.66
C 102.13 69.15 105.75 69.95 106.63 70.45
C 109.03 71.81 109.49 66.46 107.11 64.73
M 131.89 46.31
C 133.00 45.20 133.90 43.62 133.90 42.79
C 133.90 40.83 130.32 37.25 128.36 37.25
C 126.41 37.25 122.83 40.83 122.83 42.79
C 122.83 44.74 126.41 48.32 128.36 48.32
C 129.19 48.32 130.78 47.42 131.89 46.31"/>
<path fill="#cea381" stroke="none" d="
M 441.13 458.21
C 440.03 457.12 430.18 438.22 419.23 416.22
C 387.22 351.91 377.31 339.45 346.85 325.26
C 337.23 320.79 334.77 320.62 331.20 324.19
C 329.30 326.09 329.22 327.68 329.22 365.00
C 329.22 389.46 328.83 404.54 328.19 405.74
C 327.22 407.54 326.75 407.39 320.51 403.20
C 310.51 396.49 293.40 391.61 279.88 391.61
L 274.03 391.61
L 273.47 387.84
C 273.17 385.76 272.63 381.56 272.26 378.52
C 270.68 365.28 262.17 345.51 250.56 328.19
C 243.51 317.67 227.42 297.59 203.17 269.07
C 164.78 223.94 147.44 200.17 135.81 176.77
C 128.99 163.03 126.96 154.57 126.86 139.43
C 126.77 123.63 125.04 102.22 123.33 95.62
C 121.43 88.31 118.02 81.16 114.37 76.81
C 112.35 74.41 111.99 73.23 112.62 70.92
L 113.38 68.03
L 117.53 73.28
C 119.81 76.16 122.62 81.03 123.76 84.10
C 128.38 96.45 131.65 100.52 135.86 99.18
C 136.90 98.85 138.47 97.48 139.36 96.13
C 140.65 94.16 141.53 93.80 143.87 94.26
C 145.93 94.67 149.08 93.83 154.68 91.36
C 159.03 89.44 164.08 87.29 165.91 86.58
C 174.08 83.41 181.18 68.79 179.76 58.07
C 178.40 47.76 172.54 39.54 163.54 35.32
C 157.49 32.47 146.25 30.91 135.45 31.41
C 124.82 31.90 120.49 33.72 118.13 38.70
C 116.08 42.99 116.95 46.62 120.97 50.66
C 122.67 52.35 124.66 55.46 125.40 57.56
C 126.62 61.02 126.58 61.48 124.97 62.35
C 123.55 63.10 115.67 62.09 114.04 60.95
C 113.92 60.86 113.34 57.41 112.76 53.30
C 112.02 48.01 110.82 44.36 108.66 40.87
L 105.61 35.94
L 108.52 32.82
C 110.12 31.11 113.55 27.03 116.16 23.77
C 126.11 11.30 131.91 8.74 155.36 6.44
C 200.12 2.06 214.45 10.48 237.14 54.44
C 240.73 61.40 244.97 68.35 246.56 69.87
C 248.14 71.39 253.79 74.75 259.09 77.34
L 268.74 82.05
L 253.81 81.70
C 227.71 81.11 201.76 85.22 173.80 94.37
C 147.96 102.83 136.32 113.75 134.40 131.38
C 131.96 153.66 150.38 181.21 179.36 198.62
C 203.72 213.27 238.40 231.83 308.58 267.81
C 432.25 331.19 441.99 336.30 456.84 345.66
C 458.99 347.02 461.10 349.68 462.52 352.85
C 464.74 357.74 481.74 382.80 496.69 403.19
C 506.54 416.62 506.91 417.37 505.10 420.13
C 504.31 421.34 498.50 425.46 492.19 429.27
C 485.89 433.08 472.88 441.37 463.29 447.69
C 453.70 454.02 445.24 459.41 444.49 459.70
C 443.75 459.99 442.24 459.32 441.13 458.21"/>
<path fill="#cea381" stroke="none" d="
M 262.05 394.99
C 256.83 392.05 253.93 391.23 244.44 389.95
C 238.18 389.11 230.69 388.70 227.78 389.02
C 222.50 389.62 222.50 389.62 222.50 386.73
C 222.50 378.01 220.09 356.27 217.91 345.30
C 214.19 326.63 206.98 302.56 199.70 284.51
C 196.15 275.71 193.43 268.33 193.66 268.10
C 194.09 267.66 218.57 296.58 231.75 313.09
C 250.93 337.11 262.00 357.15 266.22 375.50
C 267.68 381.88 269.49 398.73 268.70 398.59
C 268.49 398.55 265.50 396.94 262.05 394.99"/>
<path fill="#134f9a" stroke="none" d="
M 132.18 89.93
C 131.10 88.36 129.20 84.51 127.95 81.37
C 126.70 78.23 124.57 74.15 123.20 72.31
L 120.72 68.96
L 124.48 68.34
C 130.59 67.31 133.36 62.00 130.96 55.87
C 130.34 54.29 130.79 53.49 133.06 52.11
C 137.19 49.58 139.63 44.10 138.10 40.75
C 136.27 36.73 136.61 36.24 141.20 36.26
C 152.58 36.32 164.71 41.17 169.47 47.59
C 174.31 54.11 175.24 60.47 172.62 69.28
C 171.12 74.33 164.75 82.55 162.33 82.55
C 161.65 82.55 161.32 79.71 161.43 74.75
C 161.52 70.13 161.03 65.65 160.24 63.77
C 158.62 59.90 154.34 57.92 149.39 58.72
C 140.26 60.20 136.52 66.54 136.32 80.86
C 136.17 92.01 135.15 94.23 132.18 89.93"/>
<path fill="#e75239" stroke="none" d="
M 124.84 46.31
C 122.52 43.98 122.31 42.31 124.09 40.06
C 126.26 37.29 129.55 36.93 131.84 39.21
C 132.98 40.35 133.90 41.95 133.90 42.79
C 133.90 44.74 130.32 48.32 128.36 48.32
C 127.53 48.32 125.95 47.42 124.84 46.31"/>
<path fill="#545d5c" stroke="none" d="
M 77.66 74.42
C 75.60 68.15 78.84 61.06 87.91 52.00
C 96.27 43.65 101.31 39.91 103.24 40.65
C 105.37 41.47 108.39 48.78 108.99 54.55
L 109.48 59.28
L 104.78 58.71
C 96.01 57.67 85.65 64.24 80.79 73.92
L 78.80 77.88
L 77.66 74.42"/>
<path fill="#545d5c" stroke="none" d="
M 106.63 70.45
C 105.75 69.95 102.13 69.15 98.57 68.66
L 92.12 67.78
L 96.65 65.63
C 101.90 63.13 104.60 62.90 107.11 64.73
C 109.49 66.46 109.03 71.81 106.63 70.45"/>
<path fill="#fefefe" stroke="none" d="
M 143.54 88.02
C 138.48 82.96 142.08 67.00 148.79 64.65
C 154.75 62.58 157.92 68.36 156.13 78.03
C 154.84 85.05 154.76 85.16 149.98 87.59
C 145.28 90.00 145.51 89.98 143.54 88.02"/>
<path fill="#3d3a2b" stroke="none" d="
M 520.97 376.62
C 498.40 361.72 480.75 350.92 471.68 346.46
C 466.69 344.00 457.63 339.05 451.54 335.45
C 440.66 329.01 420.05 318.27 335.76 275.10
C 230.64 221.28 188.50 198.47 172.91 187.02
C 164.62 180.93 152.72 168.26 148.15 160.69
C 136.07 140.67 136.75 125.37 150.27 113.21
C 159.82 104.64 173.99 99.16 202.44 93.07
C 227.23 87.77 251.33 86.20 270.76 88.64
C 278.72 89.64 279.49 89.96 284.32 94.25
C 294.79 103.53 317.80 129.80 335.37 152.52
C 340.08 158.61 356.31 180.58 371.44 201.34
C 428.07 279.07 443.37 296.10 503.39 348.32
C 526.12 368.09 531.30 373.14 533.76 377.90
C 535.48 381.21 535.57 382.01 534.39 383.19
C 533.21 384.37 531.20 383.39 520.97 376.62"/>
<path fill="#504d4d" stroke="none" d="
M 227.73 461.90
L 223.40 460.93
L 224.08 456.22
C 224.44 453.63 225.07 451.16 225.47 450.72
C 226.40 449.70 235.45 448.31 249.28 447.07
C 264.25 445.74 268.45 444.00 271.17 438.01
C 272.99 433.98 273.31 430.95 273.66 414.37
L 274.07 395.36
L 283.61 395.93
C 288.87 396.24 293.31 396.64 293.50 396.83
C 293.68 397.02 293.44 398.97 292.95 401.18
C 291.46 408.01 289.76 421.87 289.23 431.52
C 288.76 439.80 288.92 440.91 290.76 442.75
C 292.89 444.89 293.28 444.96 315.51 447.04
C 322.10 447.65 328.08 448.39 328.79 448.66
C 329.51 448.93 330.35 450.48 330.67 452.09
C 330.98 453.71 331.49 456.39 331.81 458.05
L 332.40 461.07
L 326.22 461.07
C 322.81 461.07 313.60 460.60 305.75 460.02
C 293.79 459.14 286.73 459.30 262.34 461.02
C 246.33 462.16 232.96 463.04 232.64 462.98
C 232.32 462.92 230.11 462.43 227.73 461.90"/>
<path fill="#504d4d" stroke="none" d="
M 166.12 457.50
C 166.12 453.24 166.36 452.82 169.52 451.50
C 171.39 450.71 179.66 449.44 187.90 448.65
C 206.53 446.88 209.48 445.75 212.85 439.08
C 215.67 433.53 220.13 413.18 221.13 401.38
L 221.77 393.83
L 227.25 393.14
C 230.27 392.76 234.99 392.76 237.75 393.14
C 241.87 393.70 242.65 394.13 242.10 395.49
C 241.74 396.40 239.18 406.44 236.42 417.79
C 233.66 429.13 231.10 439.55 230.71 440.92
C 230.15 442.94 228.89 443.71 223.99 445.00
C 220.68 445.86 217.08 447.08 215.99 447.69
C 214.87 448.33 211.82 448.58 208.88 448.27
C 198.94 447.25 188.10 452.19 185.26 459.04
L 184.00 462.08
L 175.06 462.08
L 166.12 462.08
L 166.12 457.50"/>
<path fill="#b0a7a7" stroke="none" d="
M 134.11 460.87
C 136.27 457.64 137.93 457.47 137.93 460.49
C 137.93 462.62 137.46 463.09 135.29 463.09
C 132.79 463.09 132.73 462.97 134.11 460.87"/>
<path fill="#b0a7a7" stroke="none" d="
M 144.41 459.18
C 145.80 456.49 148.72 454.42 149.73 455.42
C 150.81 456.50 146.79 462.08 144.93 462.08
C 143.03 462.08 143.00 461.91 144.41 459.18"/>
<path fill="#b0a7a7" stroke="none" d="
M 154.04 461.61
C 154.04 461.36 154.80 459.54 155.74 457.58
C 158.18 452.47 161.08 452.72 161.08 458.05
C 161.08 461.98 161.00 462.08 157.56 462.08
C 155.62 462.08 154.04 461.87 154.04 461.61"/>
<path fill="#b0a7a7" stroke="none" d="
M 190.28 461.70
C 190.28 461.49 190.97 460.75 191.79 460.07
C 193.03 459.04 193.30 459.11 193.30 460.45
C 193.30 461.35 192.62 462.08 191.79 462.08
C 190.97 462.08 190.28 461.91 190.28 461.70"/>
<path fill="#b0a7a7" stroke="none" d="
M 198.34 458.54
C 198.34 455.65 198.82 454.80 200.92 454.01
C 203.37 453.07 209.41 452.62 209.41 453.37
C 209.41 454.81 206.85 460.71 205.98 461.31
C 205.37 461.72 203.41 462.06 201.61 462.06
C 198.54 462.08 198.34 461.87 198.34 458.54"/>
<path fill="#b0a7a7" stroke="none" d="
M 213.44 459.57
C 213.44 458.29 218.35 452.54 218.91 453.16
C 219.10 453.36 219.02 454.95 218.75 456.69
C 218.39 459.06 217.66 459.99 215.85 460.33
C 214.37 460.61 213.44 460.32 213.44 459.57"/>
<path fill="#b0a7a7" stroke="none" d="
M 336.96 456.79
C 336.65 454.46 336.60 452.36 336.84 452.11
C 337.68 451.26 342.12 454.29 344.27 457.20
L 346.44 460.14
L 343.97 459.51
C 342.60 459.17 340.59 459.36 339.51 459.95
C 337.71 460.90 337.47 460.61 336.96 456.79"/>
<path fill="#f9f9f9" stroke="none" d="
M 275.35 594.34
C 175.18 586.28 91.87 548.95 20.89 480.32
C 15.49 475.11 11.07 470.46 11.07 469.98
C 11.07 469.51 140.30 469.14 298.26 469.15
L 585.44 469.18
L 574.87 479.51
C 509.04 543.85 430.44 581.47 338.78 592.50
C 326.22 594.01 285.82 595.19 275.35 594.34"/>
</g>
</svg>
