<?xml version="1.0" encoding="UTF-8" standalone="no"?>
<!DOCTYPE svg PUBLIC "-//W3C//DTD SVG 1.1//EN"
"http://www.w3.org/Graphics/SVG/1.1/DTD/svg11.dtd">
<svg width="529px" height="600px"
xmlns="http://www.w3.org/2000/svg" version="1.1">
<g transform="translate(0000, 0000) scale(1.0000, 1.0000)">
<path fill="#000000" stroke="none" d="
M 178.90 596.43
C 172.67 590.21 172.47 581.82 178.04 562.01
C 192.19 511.75 209.70 481.33 268.04 405.83
C 301.14 362.98 317.11 339.85 330.91 314.69
C 356.94 267.31 359.55 249.96 342.98 235.01
C 333.25 226.23 320.02 221.82 293.07 218.32
C 280.39 216.66 249.70 210.87 224.87 205.40
C 128.38 184.20 95.44 181.86 18.17 190.66
C 9.14 191.69 7.28 191.32 3.89 187.93
C -5.05 179.01 2.41 158.83 20.64 142.75
C 50.85 116.08 89.69 103.64 187.42 89.36
C 204.76 86.82 205.98 86.01 240.34 53.69
C 267.08 28.55 282.43 18.55 305.38 11.37
C 333.36 2.61 343.44 1.09 373.25 1.07
C 402.26 1.07 416.09 3.29 436.84 11.36
C 453.94 18.00 475.40 31.64 487.44 43.53
C 514.49 70.23 526.60 99.04 528.48 141.13
C 530.75 191.65 521.96 226.90 479.73 336.81
C 435.97 450.70 418.22 510.39 413.78 558.70
C 410.98 588.87 409.43 595.09 403.86 598.05
C 401.41 599.36 364.57 600.00 291.36 600.00
C 185.98 600.00 182.37 599.89 178.90 596.43
M 397.93 587.32
C 401.51 583.75 402.65 577.62 404.71 551.23
C 408.12 507.59 428.95 438.98 475.09 319.33
C 496.73 263.19 506.49 233.74 513.52 203.37
C 517.87 184.49 518.62 177.15 518.71 152.76
C 518.84 120.74 516.71 109.77 505.94 87.42
C 488.34 50.83 448.95 21.75 404.58 12.61
C 365.80 4.62 311.41 14.02 281.35 33.96
C 271.41 40.55 215.93 90.22 213.30 94.90
C 212.43 96.40 213.41 100.49 215.67 104.94
C 219.97 113.36 226.64 138.15 226.68 145.86
C 226.70 148.66 222.12 159.74 216.50 170.48
C 210.88 181.23 206.59 190.33 206.97 190.71
C 208.25 192.00 275.98 206.12 290.56 208.12
C 315.76 211.62 331.32 214.95 338.50 218.36
C 350.01 223.80 358.89 234.13 362.41 246.09
C 365.34 256.10 365.34 257.47 362.41 268.69
C 352.51 306.66 329.57 344.32 265.03 428.54
C 222.55 483.99 203.45 516.22 191.60 552.42
C 183.68 576.66 183.07 582.18 187.80 586.91
C 191.67 590.78 192.39 590.80 293.07 590.80
C 390.04 590.80 394.59 590.65 397.93 587.32
M 203.64 171.85
C 209.50 161.02 211.64 155.37 210.35 154.09
C 207.64 151.38 159.99 151.45 119.46 154.25
C 82.52 156.79 64.62 160.51 49.29 168.85
C 31.80 178.34 32.85 178.77 71.15 177.42
C 108.09 176.12 135.38 177.94 168.65 183.90
C 196.69 188.94 193.87 189.90 203.64 171.85
M 26.45 173.10
C 32.09 164.60 50.61 154.90 70.04 150.29
C 86.39 146.43 174.57 141.18 196.43 142.79
C 216.95 144.29 217.57 143.72 212.87 127.60
C 208.74 113.37 203.62 103.71 198.42 100.31
C 193.76 97.27 195.75 97.01 127.42 109.73
C 80.33 118.49 50.39 131.19 27.94 151.95
C 13.88 164.94 9.12 173.06 12.90 177.61
C 16.77 182.26 21.40 180.72 26.45 173.10"/>
<path fill="#000000" stroke="none" d="
M 311.91 127.71
C 302.43 122.89 297.92 115.07 297.09 102.00
C 295.74 80.94 305.23 69.70 325.47 68.43
C 346.56 67.09 357.82 76.56 359.09 96.77
C 359.96 110.28 356.33 119.48 347.72 125.61
C 340.09 131.04 320.68 132.17 311.91 127.71
M 340.92 117.85
C 347.68 113.04 352.73 102.33 351.17 96.13
C 348.59 85.84 336.62 75.46 327.35 75.46
C 322.91 75.46 323.81 78.28 329.01 80.65
C 334.65 83.21 340.97 93.13 340.97 99.39
C 340.97 105.64 334.65 115.56 329.01 118.12
C 326.49 119.28 324.40 121.03 324.40 122.01
C 324.40 124.69 335.08 122.01 340.92 117.85"/>
<path fill="#616d9b" stroke="none" d="
M 187.80 586.91
C 183.07 582.18 183.68 576.66 191.60 552.42
C 203.45 516.22 222.55 483.99 265.03 428.54
C 329.57 344.32 352.51 306.66 362.41 268.69
C 365.34 257.47 365.34 256.10 362.41 246.09
C 358.89 234.13 350.01 223.80 338.50 218.36
C 331.32 214.95 315.76 211.62 290.56 208.12
C 275.98 206.12 208.25 192.00 206.97 190.71
C 206.59 190.33 210.88 181.23 216.50 170.48
C 222.12 159.74 226.70 148.66 226.68 145.86
C 226.64 138.15 219.97 113.36 215.67 104.94
C 213.41 100.49 212.43 96.40 213.30 94.90
C 215.93 90.22 271.41 40.55 281.35 33.96
C 300.88 21.02 333.60 11.71 365.88 9.94
C 393.87 8.39 416.14 12.99 441.45 25.56
C 472.32 40.91 493.20 60.92 505.94 87.42
C 516.71 109.77 518.84 120.74 518.71 152.76
C 518.62 177.15 517.87 184.49 513.52 203.37
C 506.49 233.74 496.73 263.19 475.09 319.33
C 428.95 438.98 408.12 507.59 404.71 551.23
C 402.65 577.62 401.51 583.75 397.93 587.32
C 394.59 590.65 390.04 590.80 293.07 590.80
C 192.39 590.80 191.67 590.78 187.80 586.91
M 347.72 125.61
C 356.33 119.48 359.96 110.28 359.09 96.77
C 357.82 76.56 346.56 67.09 325.47 68.43
C 305.23 69.70 295.74 80.94 297.09 102.00
C 298.38 122.23 308.83 131.21 329.97 130.23
C 338.78 129.83 343.52 128.60 347.72 125.61"/>
<path fill="#eb2e00" stroke="none" d="
M 324.40 122.01
C 324.40 121.03 326.49 119.28 329.01 118.12
C 334.50 115.62 340.97 105.70 340.99 99.75
C 340.99 93.22 335.89 84.87 329.49 80.98
C 324.85 78.17 324.29 77.23 326.69 76.31
C 334.03 73.51 348.40 85.14 351.17 96.13
C 352.73 102.33 347.68 113.04 340.92 117.85
C 335.08 122.01 324.40 124.69 324.40 122.01"/>
<path fill="#245e25" stroke="none" d="
M 168.65 183.90
C 135.38 177.94 108.09 176.12 71.15 177.42
C 32.85 178.77 31.80 178.34 49.29 168.85
C 64.62 160.51 82.52 156.79 119.46 154.25
C 159.99 151.45 207.64 151.38 210.35 154.09
C 211.64 155.37 209.50 161.02 203.64 171.85
C 193.87 189.90 196.69 188.94 168.65 183.90"/>
<path fill="#245e25" stroke="none" d="
M 12.90 177.61
C 6.62 170.06 30.06 145.64 56.73 131.94
C 82.30 118.82 101.86 113.67 170.50 101.98
C 179.62 100.42 188.98 98.76 191.32 98.28
C 200.01 96.53 213.37 118.42 214.36 136.05
L 214.73 142.64
L 197.22 142.12
C 171.55 141.37 83.96 147.00 70.04 150.29
C 50.61 154.90 32.09 164.60 26.45 173.10
C 21.40 180.72 16.77 182.26 12.90 177.61"/>
</g>
</svg>
