<?xml version="1.0" encoding="UTF-8" standalone="no"?>
<!DOCTYPE svg PUBLIC "-//W3C//DTD SVG 1.1//EN"
"http://www.w3.org/Graphics/SVG/1.1/DTD/svg11.dtd">
<svg width="158px" height="600px"
xmlns="http://www.w3.org/2000/svg" version="1.1">
<g transform="translate(0000, 0000) scale(1.0000, 1.0000)">
<path fill="#000000" stroke="none" d="
M 2.59 597.42
C 0.01 594.86 0.00 593.14 0.01 330.58
C 0.03 38.32 -0.65 61.18 8.59 42.49
C 14.75 30.01 30.60 13.79 42.40 7.88
C 69.13 -5.50 95.87 -1.64 115.90 18.52
C 125.43 28.09 131.10 38.54 134.05 51.91
C 136.49 62.88 136.19 66.99 132.03 80.38
C 128.06 93.19 120.68 100.24 106.37 104.92
C 91.92 109.65 90.09 111.55 91.17 120.68
C 91.63 124.56 95.82 142.60 100.50 160.75
C 105.17 178.92 114.17 216.08 120.48 243.35
C 133.52 299.60 149.97 369.08 154.78 388.20
C 156.56 395.28 158.01 402.98 158.01 405.32
C 158.00 410.83 153.52 415.29 146.16 417.09
C 136.07 419.56 107.22 431.41 91.19 439.65
C 56.49 457.51 29.22 479.79 23.74 494.77
C 22.68 497.65 22.18 513.62 22.12 546.89
C 22.02 593.06 21.93 594.94 19.43 597.42
C 17.60 599.24 15.11 600.00 11.01 600.00
C 6.90 600.00 4.42 599.24 2.59 597.42
M 14.25 541.40
C 14.82 497.09 15.17 490.61 17.17 486.18
C 20.79 478.22 41.59 458.68 57.45 448.31
C 80.76 433.09 113.48 417.67 137.28 410.69
C 148.64 407.36 150.33 405.81 148.91 400.06
C 143.48 378.26 124.16 297.04 113.31 250.43
C 105.89 218.56 96.92 181.48 93.39 168.03
C 89.84 154.57 85.64 137.10 84.04 129.19
C 79.43 106.51 81.02 103.70 102.52 96.68
C 109.29 94.47 112.39 92.54 116.91 87.73
C 124.08 80.11 126.23 74.11 126.21 61.80
C 126.19 53.65 125.55 50.78 122.05 43.38
C 116.22 31.02 104.59 19.29 92.08 13.13
C 83.39 8.87 81.32 8.37 72.42 8.41
C 63.32 8.43 61.52 8.91 51.03 14.07
C 31.16 23.87 15.17 43.13 9.75 63.80
C 8.00 70.45 7.77 102.21 7.77 330.95
C 7.77 473.74 8.18 590.96 8.68 591.46
C 9.18 591.95 10.49 592.20 11.59 591.98
C 13.35 591.64 13.68 585.36 14.25 541.40"/>
<path fill="#f6ab99" stroke="none" d="
M 8.68 591.46
C 8.18 590.96 7.77 473.74 7.77 330.95
C 7.77 102.21 8.00 70.45 9.75 63.80
C 15.14 43.21 31.17 23.86 50.87 14.16
C 61.14 9.10 63.07 8.59 72.25 8.48
C 81.41 8.38 83.26 8.82 92.07 13.13
C 104.59 19.29 116.22 31.02 122.05 43.38
C 125.55 50.78 126.19 53.65 126.21 61.80
C 126.23 74.11 124.08 80.11 116.91 87.73
C 112.39 92.54 109.29 94.47 102.52 96.68
C 81.02 103.70 79.43 106.51 84.04 129.19
C 85.64 137.10 89.84 154.57 93.39 168.03
C 96.92 181.48 105.89 218.56 113.31 250.43
C 124.16 297.04 143.48 378.26 148.91 400.06
C 150.33 405.81 148.64 407.36 137.28 410.69
C 113.48 417.67 80.76 433.09 57.45 448.31
C 41.59 458.68 20.79 478.22 17.17 486.18
C 15.17 490.61 14.82 497.09 14.25 541.40
C 13.68 585.36 13.35 591.64 11.59 591.98
C 10.49 592.20 9.18 591.95 8.68 591.46"/>
</g>
</svg>
