<?xml version="1.0" encoding="UTF-8" standalone="no"?>
<!DOCTYPE svg PUBLIC "-//W3C//DTD SVG 1.1//EN"
"http://www.w3.org/Graphics/SVG/1.1/DTD/svg11.dtd">
<svg width="682px" height="600px"
xmlns="http://www.w3.org/2000/svg" version="1.1">
<g transform="translate(0000, 0000) scale(1.0000, 1.0000)">
<path fill="#000000" stroke="none" d="
M 656.34 595.47
L 646.88 590.94
L 644.01 594.04
C 638.89 599.55 632.88 599.50 609.53 593.76
C 574.32 585.09 568.96 584.33 535.67 583.30
L 504.73 582.33
L 483.46 575.88
C 437.50 561.93 401.53 556.53 377.68 560.02
C 371.72 560.88 360.17 563.56 352.00 565.97
C 343.82 568.36 330.36 572.32 322.10 574.75
C 302.63 580.48 289.42 582.64 253.98 585.90
C 238.02 587.37 216.55 590.24 206.28 592.27
C 196.00 594.32 184.59 596.38 180.93 596.86
C 172.33 597.98 158.63 595.57 150.68 591.55
C 145.09 588.72 143.80 588.53 138.30 589.75
C 134.92 590.50 128.56 592.53 124.19 594.27
C 114.15 598.25 111.56 598.22 107.43 594.10
C 104.72 591.40 104.23 589.92 104.75 586.06
C 105.28 582.18 107.56 575.96 110.59 570.06
C 111.45 568.39 104.72 569.00 84.62 572.42
C 63.48 576.01 57.22 575.88 46.03 571.65
C 38.66 568.85 40.16 568.22 27.07 579.54
C 22.46 583.53 17.43 587.45 15.88 588.24
C 11.42 590.55 5.44 589.98 2.42 586.97
C -1.16 583.39 -0.39 577.44 5.25 565.24
C 11.36 552.00 20.54 543.95 40.46 534.39
C 75.64 517.47 91.32 514.51 126.55 518.11
C 181.69 523.75 250.46 521.18 297.55 511.74
C 326.46 505.94 350.00 484.93 359.19 456.71
C 362.12 447.75 362.72 443.20 363.24 426.82
C 364.05 401.24 359.53 312.82 350.64 180.90
C 348.55 149.74 345.65 105.13 344.20 81.76
C 342.74 58.39 341.00 35.79 340.32 31.55
C 338.46 19.94 338.74 6.08 340.90 3.14
C 342.62 0.79 344.83 0.62 380.81 0.27
C 418.55 -0.10 418.91 -0.09 421.72 2.72
L 424.55 5.55
L 423.63 50.73
C 423.12 75.59 422.18 99.98 421.55 104.94
C 420.93 109.89 419.82 135.09 419.11 160.94
C 417.68 212.88 414.94 291.09 411.75 370.82
C 410.61 399.49 409.60 431.95 409.50 442.92
C 409.34 460.96 409.61 463.57 412.27 470.15
C 416.92 481.64 424.61 492.41 432.24 498.18
C 446.23 508.73 460.70 512.52 498.93 515.68
C 543.09 519.33 595.78 527.21 607.57 531.94
C 611.29 533.42 616.28 535.20 618.67 535.88
C 626.50 538.11 658.94 554.73 665.83 560.05
C 672.59 565.25 677.63 572.85 680.71 582.46
C 681.95 586.31 681.96 588.59 680.81 592.42
C 678.12 601.43 670.72 602.36 656.34 595.47
M 672.96 588.66
C 672.94 584.10 666.66 573.28 661.49 568.85
C 658.52 566.32 652.68 562.43 648.52 560.21
C 640.91 556.16 630.43 552.00 630.43 553.03
C 630.43 555.01 637.48 568.87 640.94 573.67
C 644.30 578.36 647.56 580.70 657.90 585.85
C 664.96 589.36 671.22 591.91 671.84 591.53
C 672.47 591.15 672.98 589.85 672.96 588.66
M 636.39 587.83
C 636.79 586.80 635.67 584.05 633.90 581.72
C 632.13 579.37 627.93 571.79 624.57 564.86
C 617.20 549.68 611.17 543.71 599.21 539.79
C 585.00 535.13 534.90 528.04 483.46 523.40
C 458.91 521.20 449.01 519.01 436.36 513.04
C 424.41 507.40 413.98 496.61 408.10 483.81
C 401.53 469.53 400.47 462.22 401.44 437.77
C 407.07 296.23 409.79 219.91 411.38 160.30
C 412.09 133.39 413.18 107.32 413.82 102.36
C 414.45 97.40 415.38 75.62 415.89 53.95
C 416.82 14.73 416.81 14.55 414.03 11.78
C 411.37 9.12 410.23 9.01 382.26 9.01
C 345.59 9.01 346.48 8.50 349.35 28.08
C 350.05 32.82 351.52 51.48 352.63 69.53
C 353.74 87.59 356.34 127.85 358.43 159.01
C 373.01 377.33 375.15 439.35 368.80 460.93
C 361.06 487.22 342.68 507.57 318.83 516.23
C 285.03 528.53 186.41 534.08 124.50 527.16
C 108.77 525.41 103.60 525.30 96.20 526.52
C 81.48 528.94 77.21 531.46 70.62 541.65
C 67.45 546.53 61.51 553.39 57.41 556.89
L 49.96 563.24
L 53.67 564.82
C 59.02 567.12 68.24 566.86 85.09 563.95
C 93.25 562.55 103.52 561.39 107.95 561.39
C 113.43 561.37 118.74 560.32 124.71 558.06
C 129.50 556.25 140.98 553.31 150.19 551.56
C 159.41 549.81 171.02 547.26 175.98 545.90
C 180.94 544.53 192.55 542.20 201.76 540.72
C 210.98 539.24 228.68 536.07 241.09 533.70
C 281.75 525.90 296.52 525.19 296.52 531.04
C 296.52 533.95 292.95 535.29 281.00 536.87
C 275.00 537.66 257.91 540.57 243.02 543.31
C 228.13 546.06 211.59 548.99 206.28 549.81
C 184.68 553.13 174.95 556.79 168.14 564.15
C 164.14 568.49 156.00 580.78 156.00 582.48
C 156.00 582.98 158.46 584.51 161.48 585.88
C 169.18 589.36 179.05 589.07 201.76 584.61
C 212.40 582.54 234.33 579.62 250.50 578.15
C 285.87 574.91 296.48 573.14 316.59 567.18
C 367.92 551.94 376.62 550.34 402.17 551.47
C 429.21 552.67 461.65 559.20 500.22 571.22
C 510.24 574.35 513.78 574.73 541.47 575.56
C 568.23 576.39 574.04 576.97 591.11 580.52
C 601.75 582.73 614.51 585.64 619.47 587.01
C 630.60 590.05 635.45 590.28 636.39 587.83
M 133.59 582.05
C 142.23 580.45 145.02 578.19 152.01 567.05
L 157.07 558.99
L 152.35 559.66
C 139.29 561.48 126.52 566.55 121.63 571.87
C 117.81 576.03 113.07 585.46 114.03 587.02
C 114.51 587.81 117.00 587.36 120.50 585.85
C 123.62 584.51 129.52 582.81 133.59 582.05
M 18.80 573.86
C 23.00 570.10 32.23 562.35 39.32 556.62
C 51.29 546.97 62.02 536.91 60.40 536.91
C 60.03 536.91 56.34 538.07 52.23 539.48
C 42.75 542.74 30.54 549.55 23.76 555.39
C 17.12 561.09 6.46 580.69 10.00 580.69
C 10.65 580.69 14.59 577.61 18.80 573.86"/>
<path fill="#cf634a" stroke="none" d="
M 619.47 587.01
C 614.51 585.64 601.75 582.73 591.11 580.52
C 574.04 576.97 568.23 576.39 541.47 575.56
C 513.78 574.73 510.24 574.35 500.22 571.22
C 461.65 559.20 429.21 552.67 402.17 551.47
C 376.62 550.34 367.92 551.94 316.59 567.18
C 296.48 573.14 285.87 574.91 250.50 578.15
C 234.33 579.62 212.40 582.54 201.76 584.61
C 179.05 589.07 169.18 589.36 161.48 585.88
C 158.46 584.51 156.00 582.98 156.00 582.48
C 156.00 580.78 164.14 568.49 168.14 564.15
C 174.95 556.79 184.68 553.13 206.28 549.81
C 211.59 548.99 228.13 546.06 243.02 543.31
C 257.91 540.57 275.00 537.66 281.00 536.87
C 292.95 535.29 296.52 533.95 296.52 531.04
C 296.52 525.19 281.75 525.90 241.09 533.70
C 228.68 536.07 210.98 539.24 201.76 540.72
C 192.55 542.20 180.94 544.53 175.98 545.90
C 171.02 547.26 159.41 549.81 150.19 551.56
C 140.98 553.31 129.50 556.25 124.71 558.06
C 118.74 560.32 113.43 561.37 107.95 561.39
C 103.52 561.39 93.25 562.55 85.09 563.95
C 68.24 566.86 59.02 567.12 53.67 564.82
L 49.96 563.24
L 57.41 556.89
C 61.51 553.39 67.45 546.53 70.62 541.65
C 77.21 531.46 81.48 528.94 96.20 526.52
C 103.60 525.30 108.77 525.41 124.50 527.16
C 186.41 534.08 285.03 528.53 318.83 516.23
C 342.68 507.57 361.06 487.22 368.80 460.93
C 375.05 439.70 372.78 371.72 359.05 168.67
C 357.30 142.82 354.70 102.85 353.29 79.83
C 351.86 56.81 350.06 33.24 349.28 27.46
C 347.64 15.35 348.34 11.92 352.80 10.22
C 354.55 9.55 368.43 9.01 383.63 9.01
C 410.21 9.01 411.37 9.12 414.03 11.78
C 416.81 14.55 416.82 14.73 415.89 53.95
C 415.38 75.62 414.45 97.40 413.82 102.36
C 413.18 107.32 412.09 133.39 411.38 160.30
C 409.79 219.91 407.07 296.23 401.44 437.77
C 400.47 462.22 401.53 469.53 408.10 483.81
C 413.98 496.61 424.41 507.40 436.36 513.04
C 449.01 519.01 458.91 521.20 483.46 523.40
C 534.90 528.04 585.00 535.13 599.21 539.79
C 611.17 543.71 617.20 549.68 624.57 564.86
C 627.93 571.79 632.13 579.37 633.90 581.72
C 640.04 589.84 635.68 591.42 619.47 587.01"/>
<path fill="#6b6969" stroke="none" d="
M 657.90 585.85
C 647.56 580.70 644.30 578.36 640.94 573.67
C 637.48 568.87 630.43 555.01 630.43 553.03
C 630.43 552.00 640.91 556.16 648.52 560.21
C 659.39 566.00 666.44 572.50 669.92 579.97
C 673.12 586.84 673.71 590.38 671.84 591.53
C 671.22 591.91 664.96 589.36 657.90 585.85"/>
<path fill="#6b6969" stroke="none" d="
M 114.03 587.02
C 113.07 585.46 117.81 576.03 121.63 571.87
C 126.52 566.55 139.29 561.48 152.35 559.66
L 157.07 558.99
L 152.01 567.05
C 145.02 578.19 142.23 580.45 133.59 582.05
C 129.52 582.81 123.62 584.51 120.50 585.85
C 117.00 587.36 114.51 587.81 114.03 587.02"/>
<path fill="#6b6969" stroke="none" d="
M 9.75 577.79
C 12.04 570.41 17.59 561.52 23.18 556.22
C 30.25 549.55 43.89 541.93 54.08 538.94
L 61.11 536.90
L 56.66 541.55
C 54.21 544.11 46.41 550.89 39.32 556.62
C 32.23 562.35 23.00 570.10 18.80 573.86
C 10.46 581.32 8.38 582.22 9.75 577.79"/>
</g>
</svg>
