<?xml version="1.0" encoding="UTF-8" standalone="no"?>
<!DOCTYPE svg PUBLIC "-//W3C//DTD SVG 1.1//EN"
"http://www.w3.org/Graphics/SVG/1.1/DTD/svg11.dtd">
<svg width="771px" height="600px"
xmlns="http://www.w3.org/2000/svg" version="1.1">
<g transform="translate(0000, 0000) scale(1.0000, 1.0000)">
<path fill="#000000" stroke="none" d="
M 56.34 596.78
C 54.57 595.01 53.12 591.43 53.12 588.77
C 53.12 586.13 56.37 558.08 60.33 526.44
C 64.30 494.80 71.19 437.42 75.64 398.93
C 80.09 360.43 84.52 322.99 85.47 315.68
C 87.69 298.78 86.40 294.82 70.47 269.36
C 51.36 238.84 50.75 237.22 56.34 231.64
C 59.39 228.58 61.79 228.42 103.42 228.29
C 127.54 228.23 146.38 227.81 145.27 227.36
C 142.02 226.04 142.93 222.42 147.68 217.88
L 152.11 213.65
L 146.47 214.92
C 136.75 217.09 131.31 216.63 130.70 213.57
C 130.33 211.66 132.05 209.89 136.16 207.94
L 142.16 205.09
L 135.87 204.29
C 130.91 203.66 129.57 202.79 129.57 200.27
C 129.57 197.84 131.54 196.39 137.62 194.36
L 145.67 191.68
L 139.75 191.55
C 133.77 191.42 128.14 187.67 129.19 184.52
C 129.51 183.57 132.62 182.01 136.11 181.01
C 141.10 179.61 141.82 178.99 139.52 178.10
C 137.62 177.36 136.77 175.67 137.11 173.32
C 137.54 170.25 139.04 169.48 146.97 168.23
C 156.15 166.78 161.36 167.26 208.07 173.87
C 220.40 175.62 226.37 175.08 224.68 172.36
C 224.22 171.59 219.76 170.54 214.77 170.03
C 201.18 168.63 176.61 155.82 140.00 131.07
C 104.24 106.89 91.81 100.25 61.97 89.29
C 36.92 80.11 18.33 71.03 10.56 64.21
C -4.14 51.31 -3.57 14.08 11.48 4.94
C 24.32 -2.86 44.10 -1.14 82.81 11.18
C 121.43 23.47 123.42 23.66 151.30 17.68
C 183.96 10.66 190.77 12.00 220.53 31.19
C 250.92 50.80 281.66 64.20 309.04 69.78
C 345.68 77.26 380.88 76.68 462.05 67.25
C 501.81 62.64 510.79 62.12 552.09 62.14
C 591.96 62.14 600.40 62.59 616.51 65.57
C 675.78 76.50 707.95 98.19 721.25 136.18
C 729.05 158.49 729.38 162.87 730.71 264.61
C 731.68 338.78 732.59 366.14 734.67 382.84
C 739.69 423.51 748.48 459.83 763.63 502.62
C 767.68 514.09 771.00 525.84 771.00 528.76
C 771.00 538.87 760.75 543.59 750.38 538.23
C 744.01 534.93 730.41 520.01 722.21 507.30
C 703.62 478.49 686.64 436.09 674.63 388.47
C 665.86 353.68 653.72 297.12 650.44 275.77
C 646.64 250.97 637.68 221.76 631.00 212.38
C 623.91 202.42 602.73 195.60 581.94 196.54
L 570.73 197.05
L 567.13 208.94
C 565.13 215.47 561.90 222.53 559.93 224.62
L 556.36 228.42
L 592.16 228.42
C 612.26 228.42 629.24 229.11 630.88 229.98
C 637.63 233.58 637.19 234.84 611.46 286.92
C 605.97 298.05 605.21 300.95 605.23 311.05
C 605.23 317.36 606.68 330.85 608.43 341.02
C 612.34 363.64 613.53 373.09 619.63 430.29
C 622.29 455.07 627.07 497.77 630.27 525.20
C 638.61 596.38 638.38 592.58 634.36 596.61
L 630.96 600.00
L 345.26 600.00
C 61.70 600.00 59.52 599.97 56.34 596.78
M 252.71 518.77
C 252.71 447.72 252.80 445.48 255.93 442.36
C 259.07 439.22 261.29 439.14 347.67 439.14
C 434.06 439.14 436.28 439.22 439.42 442.36
C 442.54 445.48 442.64 447.72 442.64 518.77
L 442.64 591.96
L 532.78 591.96
C 622.10 591.96 622.95 591.92 626.28 588.60
C 628.52 586.36 629.34 584.06 628.73 581.76
C 628.21 579.84 626.31 564.90 624.51 548.53
C 622.72 532.15 619.81 506.82 618.07 492.23
C 616.32 477.64 612.68 444.69 609.99 419.03
C 607.30 393.38 603.31 361.96 601.12 349.21
C 598.95 336.47 597.16 320.36 597.16 313.42
L 597.16 300.80
L 347.87 300.80
C 150.39 300.80 98.23 301.22 96.95 302.82
C 95.08 305.10 92.95 321.12 83.68 402.14
C 76.92 461.15 63.35 573.28 62.00 581.13
C 61.47 584.19 62.24 586.60 64.42 588.77
C 67.52 591.88 70.08 591.96 160.16 591.96
L 252.71 591.96
L 252.71 518.77
M 434.59 522.79
C 434.59 455.76 434.50 453.52 431.37 450.40
C 428.23 447.27 426.01 447.18 347.67 447.18
C 269.33 447.18 267.11 447.27 263.97 450.40
C 260.85 453.52 260.76 455.76 260.76 522.79
L 260.76 591.96
L 347.67 591.96
L 434.59 591.96
L 434.59 522.79
M 755.98 508.13
C 747.11 483.64 740.32 460.23 735.01 435.92
C 725.50 392.33 724.16 373.80 722.74 267.02
C 721.39 165.35 721.04 160.84 712.83 138.90
C 699.82 104.17 666.30 82.81 609.23 72.88
C 596.73 70.71 583.80 70.09 551.29 70.09
C 514.48 70.09 504.08 70.71 464.87 75.27
C 370.16 86.25 323.48 85.29 280.51 71.47
C 263.40 65.97 232.91 50.78 211.95 37.32
C 187.55 21.64 182.34 20.65 153.22 26.30
C 141.10 28.65 129.15 30.58 126.69 30.56
C 118.90 30.56 98.09 25.71 78.07 19.24
C 42.27 7.66 30.70 5.97 20.96 10.86
C 14.50 14.09 8.05 22.87 8.05 28.39
C 8.05 32.70 8.53 32.90 12.68 30.31
C 16.63 27.84 20.92 29.65 20.92 33.75
C 20.92 36.55 21.36 36.76 23.93 35.15
C 28.18 32.49 32.19 34.54 32.19 39.38
C 32.19 42.97 32.56 43.22 35.20 41.58
C 39.16 39.12 43.46 40.89 43.46 44.99
C 43.46 48.42 45.79 49.38 47.48 46.65
C 49.01 44.17 54.74 44.75 55.58 47.45
C 56.00 48.77 56.67 50.98 57.11 52.31
C 57.72 54.29 58.46 54.40 60.91 52.86
C 64.87 50.40 69.21 52.12 69.21 56.16
C 69.21 60.40 71.63 61.66 75.38 59.32
C 79.39 56.82 83.70 58.55 83.70 62.69
C 83.70 66.39 85.60 66.80 89.94 64.09
C 93.82 61.67 98.19 63.39 98.19 67.35
C 98.19 69.80 99.23 70.39 103.19 70.21
C 106.68 70.04 108.76 70.95 110.03 73.19
C 111.05 74.96 112.04 76.70 112.25 77.07
C 112.48 77.44 114.07 76.44 115.83 74.86
C 120.00 71.08 123.22 72.55 126.71 79.83
C 129.43 85.48 130.76 86.24 152.11 94.20
C 174.40 102.53 178.46 105.41 174.05 109.82
C 171.52 112.34 121.03 93.49 119.75 89.53
C 118.87 86.78 118.55 86.83 114.86 90.29
C 111.77 93.20 110.32 93.62 108.18 92.27
C 106.67 91.34 105.20 89.00 104.91 87.10
C 104.32 83.10 104.00 83.00 99.99 85.51
C 95.69 88.20 91.75 86.09 91.75 81.10
C 91.75 77.68 91.22 77.10 88.93 78.10
C 87.39 78.76 84.31 79.38 82.09 79.46
C 79.05 79.59 77.94 78.71 77.53 75.88
C 77.13 73.06 76.34 72.43 74.32 73.32
C 72.83 73.96 69.82 74.56 67.60 74.64
C 64.37 74.77 63.48 73.93 63.06 70.38
C 62.50 65.36 62.26 65.24 58.14 67.82
C 53.81 70.52 49.90 68.40 49.90 63.35
C 49.90 59.18 49.79 59.12 46.79 61.82
C 42.43 65.77 37.94 64.47 37.31 59.10
C 36.76 54.34 35.49 53.65 32.63 56.51
C 29.76 59.37 26.16 57.01 24.95 51.47
C 23.87 46.54 23.76 46.49 20.64 49.34
C 17.53 52.13 17.34 52.13 15.15 49.14
C 13.89 47.44 12.88 45.09 12.88 43.93
C 12.88 42.77 12.15 41.82 11.27 41.82
C 8.98 41.82 9.27 44.54 12.18 50.70
C 16.47 59.68 32.66 68.70 68.41 81.99
C 103.13 94.89 108.29 97.74 157.74 131.37
C 177.01 144.48 206.46 160.05 215.33 161.84
C 222.04 163.17 227.53 159.59 229.56 152.56
C 231.77 144.87 237.21 145.03 237.95 152.82
C 238.74 161.08 234.92 177.02 231.28 180.66
C 228.47 183.47 226.74 183.68 215.09 182.72
C 207.91 182.12 192.40 180.21 180.60 178.49
C 155.29 174.77 153.96 174.72 159.75 177.86
C 164.65 180.51 165.11 181.80 162.25 184.66
C 160.75 186.16 160.93 186.60 163.10 186.60
C 166.74 186.60 168.30 190.81 165.77 193.85
C 164.16 195.80 164.26 196.25 166.30 196.25
C 169.76 196.25 171.26 199.16 169.12 201.75
C 167.74 203.40 168.07 204.10 170.59 204.74
C 174.66 205.80 174.84 210.19 170.88 211.45
C 169.25 211.96 166.16 214.29 164.03 216.63
L 160.16 220.86
L 164.18 219.75
C 189.34 212.83 201.17 212.53 232.75 217.96
C 259.93 222.64 264.12 222.82 270.37 219.60
C 275.74 216.82 277.43 212.40 280.80 192.23
C 283.21 177.80 287.54 163.38 295.64 142.76
C 298.79 134.73 300.67 131.90 302.91 131.90
C 308.24 131.90 307.92 136.34 301.33 154.02
C 292.55 177.65 291.98 180.80 295.93 184.75
C 297.66 186.48 302.96 188.65 307.69 189.55
C 344.68 196.60 375.92 201.39 390.04 202.20
C 405.93 203.10 406.78 202.97 407.60 199.83
C 408.20 197.58 410.93 195.78 416.29 194.16
L 424.13 191.76
L 418.21 191.58
C 412.22 191.42 406.60 187.66 407.65 184.52
C 407.97 183.57 411.08 182.01 414.57 181.01
C 419.56 179.61 420.28 178.99 417.98 178.10
C 416.08 177.36 415.23 175.67 415.57 173.32
C 416.40 167.40 430.04 166.10 455.20 169.53
C 485.67 173.69 493.47 174.90 497.11 176.06
C 501.49 177.44 504.27 172.21 502.94 165.09
C 502.10 160.62 506.14 135.55 509.65 123.46
C 510.52 120.43 515.85 119.61 517.49 122.24
C 518.02 123.12 516.92 130.91 515.04 139.53
C 512.40 151.58 511.85 157.91 512.66 166.76
C 513.62 177.27 513.40 178.62 510.18 181.83
C 506.09 185.92 506.37 185.94 465.18 179.52
C 434.53 174.74 432.21 174.61 438.21 177.86
C 443.11 180.51 443.57 181.80 440.71 184.66
C 439.21 186.16 439.39 186.60 441.56 186.60
C 445.20 186.60 446.76 190.81 444.23 193.85
C 442.61 195.81 442.74 196.25 444.91 196.25
C 448.34 196.25 449.96 200.48 447.61 203.31
C 446.20 205.03 446.50 205.69 449.05 206.35
C 453.62 207.55 453.09 210.23 447.76 212.99
C 445.25 214.28 442.17 216.60 440.92 218.14
C 438.81 220.70 438.97 220.83 442.64 219.78
C 467.17 212.80 478.68 212.54 512.67 218.20
C 541.70 223.03 548.92 222.66 553.19 216.13
C 555.30 212.93 566.90 170.06 575.26 134.72
C 576.37 130.01 582.06 128.43 583.58 132.40
C 584.03 133.56 581.84 144.95 578.73 157.74
C 575.63 170.51 572.71 182.49 572.26 184.36
C 571.49 187.64 572.13 187.80 590.35 188.59
C 612.57 189.57 624.90 193.46 634.55 202.50
C 643.86 211.24 652.47 236.08 658.30 271.05
C 663.01 299.31 677.85 367.25 685.14 394.10
C 701.59 454.50 730.49 512.09 752.26 527.86
C 757.79 531.84 759.06 532.20 760.96 530.30
C 762.87 528.39 762.13 525.14 755.98 508.13
M 610.78 266.73
C 622.51 242.33 623.11 240.58 620.39 238.58
C 617.99 236.85 568.00 236.46 342.73 236.46
C 103.38 236.46 67.75 236.77 66.04 238.83
C 64.43 240.76 66.25 244.62 76.09 260.14
C 82.69 270.56 89.64 282.16 91.55 285.92
L 95.03 292.76
L 346.66 292.76
L 598.27 292.76
L 610.78 266.73
M 234.10 226.87
C 220.87 221.52 188.45 220.83 179.42 225.70
C 174.90 228.16 176.28 228.29 206.03 228.26
C 224.36 228.23 236.05 227.66 234.10 226.87
M 422.23 225.39
C 421.73 223.46 423.08 220.78 426.00 217.96
L 430.57 213.55
L 426.54 214.55
C 413.83 217.71 410.29 217.67 409.42 214.41
C 408.66 211.50 406.76 211.11 388.99 210.24
C 378.22 209.73 359.63 207.47 347.67 205.27
C 335.71 203.05 319.20 200.17 310.94 198.85
C 302.70 197.53 294.96 195.65 293.75 194.64
C 290.82 192.21 288.12 197.20 288.12 205.05
C 288.12 211.46 284.56 221.13 280.57 225.54
C 278.08 228.31 280.96 228.42 350.49 228.42
C 420.69 228.42 423.00 228.32 422.23 225.39
M 511.85 226.92
C 507.28 224.28 484.51 221.55 473.61 222.34
C 467.59 222.76 460.52 224.28 457.88 225.70
C 453.34 228.16 454.66 228.29 483.69 228.31
C 501.71 228.32 513.27 227.74 511.85 226.92"/>
<path fill="#000000" stroke="none" d="
M 156.00 75.73
C 152.53 72.24 151.30 69.51 151.30 65.15
C 151.30 56.98 158.42 49.87 166.59 49.87
C 174.77 49.87 181.89 56.98 181.89 65.15
C 181.89 73.32 174.77 80.43 166.59 80.43
C 162.23 80.43 159.50 79.21 156.00 75.73
M 173.84 72.39
C 175.61 70.62 177.06 67.37 177.06 65.15
C 177.06 61.08 172.07 54.69 168.88 54.69
C 167.91 54.69 167.40 55.24 167.72 55.90
C 168.04 56.56 169.30 59.07 170.49 61.46
C 172.39 65.24 172.34 66.35 170.04 69.84
C 168.59 72.06 167.40 74.27 167.40 74.73
C 167.40 76.66 170.81 75.41 173.84 72.39"/>
<path fill="#000000" stroke="none" d="
M 185.83 56.20
C 181.34 51.25 174.85 48.26 163.58 45.97
C 155.65 44.35 153.72 43.35 153.72 40.87
C 153.72 38.36 155.07 37.72 161.09 37.32
C 175.12 36.42 197.13 47.73 196.05 55.30
C 195.39 59.97 189.69 60.47 185.83 56.20"/>
<path fill="#000000" stroke="none" d="
M 38.23 25.34
C 37.79 24.06 34.38 23.32 28.86 23.32
C 21.99 23.32 20.07 22.76 19.64 20.61
C 19.06 17.57 26.67 12.87 32.19 12.87
C 40.19 12.87 48.82 20.98 45.89 25.72
C 44.46 28.02 39.03 27.75 38.23 25.34"/>
<path fill="#28722a" stroke="none" d="
M 752.26 527.86
C 730.49 512.09 701.59 454.50 685.14 394.10
C 677.85 367.25 663.01 299.31 658.30 271.05
C 652.47 236.08 643.86 211.24 634.55 202.50
C 624.90 193.46 612.57 189.57 590.35 188.59
C 572.13 187.80 571.49 187.64 572.26 184.36
C 572.71 182.49 575.63 170.51 578.73 157.74
C 581.84 144.95 584.03 133.56 583.58 132.40
C 582.06 128.43 576.37 130.01 575.26 134.72
C 566.90 170.06 555.30 212.93 553.19 216.13
C 548.92 222.66 541.70 223.03 512.67 218.20
C 478.68 212.54 467.17 212.80 442.64 219.78
C 438.97 220.83 438.81 220.70 440.92 218.14
C 442.17 216.60 445.25 214.28 447.76 212.99
C 453.09 210.23 453.62 207.55 449.05 206.35
C 446.50 205.69 446.20 205.03 447.61 203.31
C 449.96 200.48 448.34 196.25 444.91 196.25
C 442.74 196.25 442.61 195.81 444.23 193.85
C 446.76 190.81 445.20 186.60 441.56 186.60
C 439.39 186.60 439.21 186.16 440.71 184.66
C 443.57 181.80 443.11 180.51 438.21 177.86
C 432.21 174.61 434.53 174.74 465.18 179.52
C 506.37 185.94 506.09 185.92 510.18 181.83
C 513.40 178.62 513.62 177.27 512.66 166.76
C 511.85 157.91 512.40 151.58 515.04 139.53
C 516.92 130.91 518.02 123.12 517.49 122.24
C 515.85 119.61 510.52 120.43 509.65 123.46
C 506.14 135.55 502.10 160.62 502.94 165.09
C 504.27 172.21 501.49 177.44 497.11 176.06
C 493.47 174.90 485.67 173.69 455.20 169.53
C 430.04 166.10 416.40 167.40 415.57 173.32
C 415.23 175.67 416.08 177.36 417.98 178.10
C 420.28 178.99 419.56 179.61 414.57 181.01
C 411.08 182.01 407.97 183.57 407.65 184.52
C 406.60 187.66 412.22 191.42 418.21 191.58
L 424.13 191.76
L 416.29 194.16
C 410.93 195.78 408.20 197.58 407.60 199.83
C 406.78 202.97 405.93 203.10 390.04 202.20
C 375.92 201.39 344.68 196.60 307.69 189.55
C 302.96 188.65 297.66 186.48 295.93 184.75
C 291.98 180.80 292.55 177.65 301.33 154.02
C 307.92 136.34 308.24 131.90 302.91 131.90
C 300.67 131.90 298.79 134.73 295.64 142.76
C 287.54 163.38 283.21 177.80 280.80 192.23
C 277.43 212.40 275.74 216.82 270.37 219.60
C 264.12 222.82 259.93 222.64 232.75 217.96
C 201.17 212.53 189.34 212.83 164.18 219.75
L 160.16 220.86
L 164.03 216.63
C 166.16 214.29 169.25 211.96 170.88 211.45
C 174.84 210.19 174.66 205.80 170.59 204.74
C 168.07 204.10 167.74 203.40 169.12 201.75
C 171.26 199.16 169.76 196.25 166.30 196.25
C 164.26 196.25 164.16 195.80 165.77 193.85
C 168.30 190.81 166.74 186.60 163.10 186.60
C 160.93 186.60 160.75 186.16 162.25 184.66
C 165.11 181.80 164.65 180.51 159.75 177.86
C 153.96 174.72 155.29 174.77 180.60 178.49
C 192.40 180.21 207.91 182.12 215.09 182.72
C 226.74 183.68 228.47 183.47 231.28 180.66
C 234.92 177.02 238.74 161.08 237.95 152.82
C 237.21 145.03 231.77 144.87 229.56 152.56
C 227.53 159.59 222.04 163.17 215.33 161.84
C 206.46 160.05 177.01 144.48 157.74 131.37
C 108.29 97.74 103.13 94.89 68.41 81.99
C 32.66 68.70 16.47 59.68 12.18 50.70
C 9.27 44.54 8.98 41.82 11.27 41.82
C 12.15 41.82 12.88 42.77 12.88 43.93
C 12.88 45.09 13.89 47.44 15.15 49.14
C 17.34 52.13 17.53 52.13 20.64 49.34
C 23.76 46.49 23.87 46.54 24.95 51.47
C 26.16 57.01 29.76 59.37 32.63 56.51
C 35.49 53.65 36.76 54.34 37.31 59.10
C 37.94 64.47 42.43 65.77 46.79 61.82
C 49.79 59.12 49.90 59.18 49.90 63.35
C 49.90 68.40 53.81 70.52 58.14 67.82
C 62.26 65.24 62.50 65.36 63.06 70.38
C 63.48 73.93 64.37 74.77 67.60 74.64
C 69.82 74.56 72.83 73.96 74.32 73.32
C 76.34 72.43 77.13 73.06 77.53 75.88
C 77.94 78.71 79.05 79.59 82.09 79.46
C 84.31 79.38 87.39 78.76 88.93 78.10
C 91.22 77.10 91.75 77.68 91.75 81.10
C 91.75 86.09 95.69 88.20 99.99 85.51
C 104.00 83.00 104.32 83.10 104.91 87.10
C 105.20 89.00 106.67 91.34 108.18 92.27
C 110.32 93.62 111.77 93.20 114.86 90.29
C 118.55 86.83 118.87 86.78 119.75 89.53
C 121.03 93.49 171.52 112.34 174.05 109.82
C 178.46 105.41 174.40 102.53 152.11 94.20
C 130.76 86.24 129.43 85.48 126.71 79.83
C 123.22 72.55 120.00 71.08 115.83 74.86
C 114.07 76.44 112.48 77.44 112.25 77.07
C 112.04 76.70 111.05 74.96 110.03 73.19
C 108.76 70.95 106.68 70.04 103.19 70.21
C 99.23 70.39 98.19 69.80 98.19 67.35
C 98.19 63.39 93.82 61.67 89.94 64.09
C 85.60 66.80 83.70 66.39 83.70 62.69
C 83.70 58.55 79.39 56.82 75.38 59.32
C 71.63 61.66 69.21 60.40 69.21 56.16
C 69.21 52.12 64.87 50.40 60.91 52.86
C 58.46 54.40 57.72 54.29 57.11 52.31
C 56.67 50.98 56.00 48.77 55.58 47.45
C 54.74 44.75 49.01 44.17 47.48 46.65
C 45.79 49.38 43.46 48.42 43.46 44.99
C 43.46 40.89 39.16 39.12 35.20 41.58
C 32.56 43.22 32.19 42.97 32.19 39.38
C 32.19 34.54 28.18 32.49 23.93 35.15
C 21.36 36.76 20.92 36.55 20.92 33.75
C 20.92 29.65 16.63 27.84 12.68 30.31
C 8.61 32.86 8.05 32.69 8.05 28.87
C 8.05 24.13 12.15 16.89 16.98 13.09
C 26.40 5.69 39.10 6.87 75.65 18.53
C 98.02 25.66 118.80 30.56 126.69 30.56
C 129.15 30.58 141.10 28.65 153.22 26.30
C 182.34 20.65 187.55 21.64 211.95 37.32
C 232.91 50.78 263.40 65.97 280.51 71.47
C 323.48 85.29 370.16 86.25 464.87 75.27
C 504.08 70.71 514.48 70.09 551.29 70.09
C 607.54 70.09 633.89 74.57 663.96 89.26
C 696.19 104.99 710.54 123.38 718.75 159.39
C 721.04 169.46 721.67 186.19 722.74 267.02
C 724.16 373.80 725.50 392.33 735.01 435.92
C 740.32 460.23 747.11 483.64 755.98 508.13
C 762.13 525.14 762.87 528.39 760.96 530.30
C 759.06 532.20 757.79 531.84 752.26 527.86
M 177.19 75.73
C 180.66 72.24 181.89 69.51 181.89 65.15
C 181.89 56.98 174.77 49.87 166.59 49.87
C 158.42 49.87 151.30 56.98 151.30 65.15
C 151.30 73.32 158.42 80.43 166.59 80.43
C 170.96 80.43 173.69 79.21 177.19 75.73
M 196.05 55.30
C 197.13 47.73 175.12 36.42 161.09 37.32
C 155.07 37.72 153.72 38.36 153.72 40.87
C 153.72 43.35 155.65 44.35 163.58 45.97
C 174.85 48.26 181.34 51.25 185.83 56.20
C 189.69 60.47 195.39 59.97 196.05 55.30
M 45.89 25.72
C 48.82 20.98 40.19 12.87 32.19 12.87
C 26.67 12.87 19.06 17.57 19.64 20.61
C 20.07 22.76 21.99 23.32 28.86 23.32
C 34.38 23.32 37.79 24.06 38.23 25.34
C 39.03 27.75 44.46 28.02 45.89 25.72"/>
<path fill="#eb2e00" stroke="none" d="
M 167.72 74.40
C 168.04 73.74 169.30 71.23 170.49 68.83
C 172.39 65.05 172.34 63.94 170.05 60.47
C 166.71 55.35 169.39 53.47 173.77 57.84
C 177.94 62.01 177.97 68.25 173.84 72.39
C 170.73 75.49 166.51 76.87 167.72 74.40"/>
<path fill="#c57a36" stroke="none" d="
M 64.42 588.77
C 62.24 586.60 61.47 584.19 62.00 581.13
C 63.35 573.28 76.92 461.15 83.68 402.14
C 92.95 321.12 95.08 305.10 96.95 302.82
C 98.23 301.22 150.39 300.80 347.87 300.80
L 597.16 300.80
L 597.16 313.42
C 597.16 320.36 598.95 336.47 601.12 349.21
C 603.31 361.96 607.30 393.38 609.99 419.03
C 612.68 444.69 616.32 477.64 618.07 492.23
C 619.81 506.82 622.72 532.15 624.51 548.53
C 626.31 564.90 628.21 579.84 628.73 581.76
C 629.34 584.06 628.52 586.36 626.28 588.60
C 622.95 591.92 622.10 591.96 532.78 591.96
L 442.64 591.96
L 442.64 518.77
C 442.64 447.72 442.54 445.48 439.42 442.36
C 436.28 439.22 434.06 439.14 347.67 439.14
C 261.29 439.14 259.07 439.22 255.93 442.36
C 252.80 445.48 252.71 447.72 252.71 518.77
L 252.71 591.96
L 160.16 591.96
C 70.08 591.96 67.52 591.88 64.42 588.77"/>
<path fill="#c57a36" stroke="none" d="
M 91.55 285.92
C 89.64 282.16 82.64 270.48 75.97 259.96
C 64.56 241.93 64.03 240.69 66.85 238.65
C 71.22 235.43 616.00 235.38 620.39 238.58
C 623.11 240.58 622.51 242.33 610.78 266.73
L 598.27 292.76
L 346.66 292.76
L 95.03 292.76
L 91.55 285.92"/>
<path fill="#c55436" stroke="none" d="
M 260.76 523.09
C 260.76 466.17 261.16 453.70 263.04 451.11
C 265.25 448.10 268.27 447.97 346.69 447.54
C 426.58 447.10 428.12 447.15 431.33 450.35
C 434.51 453.54 434.59 455.45 434.59 522.79
L 434.59 591.96
L 347.67 591.96
L 260.76 591.96
L 260.76 523.09"/>
</g>
</svg>
