<?xml version="1.0" encoding="UTF-8" standalone="no"?>
<!DOCTYPE svg PUBLIC "-//W3C//DTD SVG 1.1//EN"
"http://www.w3.org/Graphics/SVG/1.1/DTD/svg11.dtd">
<svg width="732px" height="500px"
xmlns="http://www.w3.org/2000/svg" version="1.1">
<g transform="translate(0000, 0000) scale(1.0000, 1.0000)">
<path fill="#000000" stroke="none" d="
M 4.26 495.74
C 1.92 493.40 0.00 489.98 0.00 488.15
C 0.00 483.26 21.43 461.53 44.79 442.70
C 71.37 421.30 102.67 400.62 127.10 388.34
C 137.91 382.89 147.19 377.74 147.72 376.87
C 148.25 376.00 126.01 374.06 98.29 372.55
C 43.43 369.55 35.11 367.74 32.77 358.43
C 29.34 344.81 39.13 335.77 91.18 304.40
C 114.48 290.38 178.53 258.11 195.34 251.91
C 213.45 245.26 211.73 244.11 179.81 241.51
C 144.25 238.64 96.39 233.62 91.52 232.26
C 84.84 230.38 83.58 224.40 88.65 218.66
C 101.31 204.36 154.68 175.00 209.24 152.34
C 246.92 136.68 263.67 131.13 283.82 127.55
C 292.76 125.96 297.31 124.32 295.52 123.34
C 293.91 122.45 276.78 120.57 257.48 119.17
C 238.16 117.77 220.20 115.77 217.56 114.72
C 214.90 113.68 211.62 110.40 210.26 107.43
C 205.94 97.91 212.15 89.36 235.09 73.38
C 274.76 45.74 317.97 27.91 373.81 16.17
C 433.07 3.70 489.59 0.11 626.14 0.04
C 720.68 0.00 723.62 0.13 727.74 4.26
C 731.96 8.47 732.00 11.34 732.00 250.00
C 732.00 488.66 731.96 491.53 727.74 495.74
C 723.53 499.96 720.66 500.00 366.00 500.00
C 11.34 500.00 8.47 499.96 4.26 495.74
M 717.10 485.11
C 721.32 480.89 721.36 478.02 721.36 250.00
C 721.36 21.98 721.32 19.11 717.10 14.89
C 712.98 10.77 710.06 10.64 624.01 10.70
C 490.93 10.81 436.01 14.38 379.83 26.62
C 323.53 38.87 285.80 54.28 246.90 80.91
C 226.32 95.02 219.90 101.00 223.15 103.02
C 225.37 104.38 246.79 106.70 295.78 110.83
C 330.38 113.77 334.93 114.89 335.80 120.79
C 336.72 126.91 329.38 130.36 303.23 136.02
C 256.18 146.23 209.96 162.96 161.87 187.19
C 135.04 200.72 104.46 220.72 108.57 222.06
C 114.27 223.91 145.23 227.47 175.55 229.77
C 209.09 232.28 233.26 235.68 238.99 238.70
C 241.30 239.91 242.58 242.53 242.18 245.28
C 241.67 248.85 238.26 250.96 226.62 254.89
C 195.62 265.43 172.40 275.32 141.51 291.23
C 109.82 307.53 63.31 335.77 50.77 346.34
C 44.96 351.19 44.60 352.13 47.62 354.34
C 49.73 355.87 70.45 357.87 101.59 359.55
C 160.40 362.70 181.60 365.57 182.55 370.49
C 183.00 372.89 174.02 378.49 150.63 390.38
C 105.35 413.40 80.29 429.98 40.20 463.30
C 25.02 475.94 17.77 485.15 20.70 488.09
C 21.41 488.79 177.42 489.36 367.43 489.36
C 710.02 489.36 712.89 489.32 717.10 485.11"/>
<path fill="#127015" stroke="none" d="
M 20.70 488.09
C 17.77 485.15 25.02 475.94 40.20 463.30
C 80.29 429.98 105.35 413.40 150.63 390.38
C 174.02 378.49 183.00 372.89 182.55 370.49
C 181.60 365.57 160.40 362.70 101.59 359.55
C 70.45 357.87 49.73 355.87 47.62 354.34
C 44.60 352.13 44.96 351.19 50.77 346.34
C 63.31 335.77 109.82 307.53 141.51 291.23
C 172.40 275.32 195.62 265.43 226.62 254.89
C 238.26 250.96 241.67 248.85 242.18 245.28
C 242.58 242.53 241.30 239.91 238.99 238.70
C 233.26 235.68 209.09 232.28 175.55 229.77
C 145.23 227.47 114.27 223.91 108.57 222.06
C 104.46 220.72 135.04 200.72 161.87 187.19
C 209.96 162.96 256.18 146.23 303.23 136.02
C 329.38 130.36 336.72 126.91 335.80 120.79
C 334.93 114.89 330.38 113.77 295.78 110.83
C 246.79 106.70 225.37 104.38 223.15 103.02
C 215.71 98.43 279.12 57.85 312.93 45.62
C 389.11 18.00 452.90 10.87 625.07 10.72
C 710.06 10.64 712.98 10.77 717.10 14.89
C 721.32 19.11 721.36 21.98 721.36 250.00
C 721.36 478.02 721.32 480.89 717.10 485.11
C 712.89 489.32 710.02 489.36 367.43 489.36
C 177.42 489.36 21.41 488.79 20.70 488.09"/>
</g>
</svg>
