<?xml version="1.0" encoding="UTF-8" standalone="no"?>
<!DOCTYPE svg PUBLIC "-//W3C//DTD SVG 1.1//EN"
"http://www.w3.org/Graphics/SVG/1.1/DTD/svg11.dtd">
<svg width="670px" height="600px"
xmlns="http://www.w3.org/2000/svg" version="1.1">
<g transform="translate(0000, 0000) scale(1.0000, 1.0000)">
<path fill="#000000" stroke="none" d="
M 385.30 597.82
C 383.22 596.70 380.55 593.94 379.40 591.71
C 375.35 583.88 376.46 581.11 388.39 569.36
C 394.50 563.35 399.30 558.43 399.07 558.43
C 398.85 558.43 393.37 560.77 386.88 563.65
C 380.07 566.66 372.95 571.00 370.04 573.91
C 363.83 580.13 358.26 581.58 352.38 578.54
C 343.89 574.16 340.44 563.90 344.68 555.70
C 346.89 551.46 351.27 549.56 362.45 548.05
C 370.91 546.91 379.47 543.41 377.81 541.75
C 377.13 541.07 370.96 539.17 364.10 537.52
C 357.25 535.88 350.24 534.00 348.52 533.35
C 344.46 531.80 339.70 524.02 340.17 519.73
C 340.52 516.65 339.36 515.90 327.37 511.33
C 305.54 503.00 287.46 492.11 276.74 480.82
C 270.22 473.94 255.56 461.43 254.03 461.43
C 253.45 461.43 251.51 465.02 249.72 469.40
C 241.66 489.15 215.01 540.07 209.46 546.35
C 200.45 556.55 198.82 557.04 174.51 557.06
C 137.26 557.07 103.83 564.91 96.46 575.38
C 95.26 577.11 93.61 580.93 92.82 583.87
C 92.01 586.82 89.87 590.72 88.06 592.53
C 79.76 600.82 63.81 592.45 63.81 579.82
C 63.81 577.04 66.56 573.42 74.89 565.21
C 81.00 559.19 85.80 554.27 85.57 554.27
C 85.35 554.27 79.87 556.61 73.38 559.50
C 66.57 562.50 59.45 566.84 56.54 569.75
C 50.33 575.97 44.76 577.43 38.88 574.38
C 30.39 570.00 26.94 559.75 31.18 551.54
C 33.39 547.30 37.77 545.40 48.95 543.89
C 57.41 542.76 65.97 539.25 64.31 537.59
C 63.63 536.91 57.46 535.03 50.60 533.40
C 34.82 529.66 31.96 528.26 28.71 522.71
C 25.45 517.14 26.38 512.45 31.86 506.98
C 35.00 503.85 37.11 503.00 41.73 503.00
C 46.75 503.00 48.34 503.79 52.75 508.42
C 55.58 511.40 59.70 514.74 61.90 515.85
C 67.19 518.51 74.62 519.84 75.56 518.30
C 76.42 516.91 71.83 508.43 67.01 502.55
C 59.65 493.54 66.36 482.22 79.07 482.22
C 86.43 482.22 91.32 485.68 92.23 491.57
C 94.97 509.36 107.51 516.28 143.34 519.81
C 166.04 522.06 168.71 521.96 173.09 518.69
C 177.24 515.60 177.65 514.67 190.78 479.02
C 200.61 452.30 206.01 429.87 204.91 420.19
C 204.32 414.82 202.91 412.81 192.32 402.11
C 177.77 387.39 151.16 355.44 140.20 339.49
C 119.42 309.24 105.85 277.23 94.22 230.94
C 87.97 206.12 83.34 193.32 77.61 184.99
C 75.52 181.94 66.58 172.71 57.76 164.49
C 38.79 146.81 31.96 137.11 14.14 102.51
C 0.80 76.61 -1.21 70.57 1.25 63.55
C 2.39 60.30 2.37 57.08 1.23 51.39
C -0.14 44.54 0.01 42.76 2.62 35.93
C 6.35 26.13 15.40 16.97 27.73 10.49
C 48.37 -0.33 66.88 -1.01 108.89 7.55
C 125.27 10.89 135.68 12.36 139.16 11.83
C 142.07 11.39 148.90 8.70 154.34 5.86
C 162.81 1.43 165.49 0.69 173.31 0.69
C 190.42 0.69 203.52 11.72 208.12 29.97
L 210.43 39.15
L 235.26 52.75
C 267.22 70.27 283.18 77.00 315.58 86.62
C 380.86 105.99 397.03 111.94 423.08 126.14
C 477.06 155.56 528.05 203.60 595.88 288.91
C 610.84 307.72 618.61 319.66 627.58 337.64
C 652.84 388.24 667.48 440.85 669.56 488.45
C 670.50 510.32 668.25 525.81 662.32 538.30
C 655.32 553.00 647.35 559.51 621.45 571.68
L 606.88 578.52
L 591.63 578.44
C 580.46 578.37 563.91 576.42 529.90 571.12
C 504.33 567.16 480.26 563.22 476.39 562.39
C 464.94 559.91 433.04 565.83 418.73 573.08
C 411.29 576.85 408.39 580.34 406.31 588.03
C 403.40 598.75 394.59 602.87 385.30 597.82
M 397.66 588.90
C 398.60 587.00 399.77 583.58 400.25 581.29
C 400.74 578.97 403.79 574.57 407.20 571.32
C 414.32 564.50 421.53 561.96 449.76 556.35
L 468.79 552.55
L 484.44 555.52
C 522.35 562.71 587.84 572.40 595.33 571.93
C 603.74 571.40 620.58 564.03 622.78 559.91
C 625.33 555.15 625.87 545.10 623.82 540.22
C 620.23 531.62 610.74 525.48 563.05 500.99
C 517.20 477.45 506.63 471.30 490.64 458.87
C 484.81 454.32 482.72 451.83 483.01 449.76
C 483.75 444.73 487.98 445.82 497.60 453.53
C 512.02 465.08 521.89 470.77 571.08 496.00
C 621.39 521.82 628.25 526.56 631.19 537.64
C 632.13 541.21 632.48 547.00 631.99 551.15
C 631.52 555.16 631.34 558.43 631.59 558.43
C 633.77 558.43 647.86 546.01 651.51 540.87
C 656.81 533.43 656.92 532.74 653.90 526.67
C 652.66 524.22 650.79 516.47 649.71 509.49
C 642.31 461.39 631.71 431.00 610.07 395.70
C 592.98 367.82 578.82 349.59 544.05 310.68
C 521.64 285.63 518.51 280.60 525.30 280.60
C 528.36 280.60 538.29 290.79 564.51 320.79
C 594.19 354.75 615.12 384.97 629.77 415.01
C 643.32 442.79 651.38 468.58 654.70 494.69
C 658.22 522.48 661.34 526.23 662.65 504.22
C 665.12 462.21 648.53 397.65 621.34 343.44
C 608.95 318.73 602.24 309.39 562.73 261.89
C 505.62 193.21 461.30 154.63 409.31 128.31
C 387.98 117.52 372.73 111.77 338.88 101.78
C 278.42 83.92 265.02 78.65 227.49 58.02
C 217.19 52.35 205.20 46.27 200.85 44.51
C 191.22 40.60 188.95 38.33 191.53 35.21
C 192.76 33.74 194.63 33.27 197.24 33.80
C 199.45 34.24 201.14 33.96 201.14 33.17
C 201.14 30.26 197.24 22.68 193.43 18.17
C 189.46 13.45 177.65 6.97 173.02 6.94
C 171.68 6.93 165.20 9.53 158.65 12.72
C 142.07 20.77 138.51 20.84 101.96 13.83
C 67.58 7.23 57.11 7.00 42.53 12.48
C 31.49 16.64 18.20 25.98 13.18 33.13
C 9.72 38.04 9.02 40.39 9.02 47.03
C 9.02 54.44 9.60 55.90 17.15 67.34
C 44.89 109.40 45.71 111.05 39.40 111.96
C 36.52 112.38 35.10 110.44 14.25 77.82
C 5.04 63.41 7.92 72.46 20.03 96.01
C 39.66 134.15 46.98 144.46 66.21 160.93
C 86.64 178.45 90.64 186.08 101.22 227.78
C 111.97 270.10 125.23 301.84 143.82 329.79
C 154.00 345.10 181.84 379.21 197.53 395.61
L 206.81 405.31
L 205.73 392.84
C 205.12 385.98 204.63 375.38 204.62 369.28
C 204.61 359.11 204.84 358.20 207.38 358.20
C 210.39 358.20 210.28 357.41 212.94 397.00
C 214.12 414.53 212.17 436.49 207.99 452.40
C 206.48 458.16 201.49 473.00 196.89 485.38
C 192.30 497.74 187.53 510.65 186.28 514.09
C 180.93 528.78 173.46 531.09 143.57 527.40
C 117.34 524.16 107.12 521.68 98.31 516.43
C 90.35 511.68 86.71 506.26 85.28 497.04
C 84.28 490.59 79.69 487.79 74.21 490.28
C 69.43 492.46 69.84 494.87 76.34 502.35
C 84.52 511.80 88.02 519.23 86.18 523.26
C 84.15 527.74 79.87 528.42 69.23 525.95
C 55.53 522.78 50.40 520.27 49.40 516.25
C 47.70 509.56 39.16 508.30 35.97 514.27
C 33.44 518.98 37.55 523.44 45.40 524.52
C 63.91 527.07 78.56 534.17 77.43 540.03
C 76.50 544.85 68.79 547.54 42.00 552.36
C 35.44 553.55 34.73 563.52 40.92 567.56
C 45.04 570.26 50.34 567.96 54.14 561.82
C 56.30 558.32 60.01 556.05 71.79 550.97
C 79.98 547.44 88.10 544.56 89.82 544.56
C 93.31 544.57 98.49 549.06 98.49 552.08
C 98.49 554.69 80.21 573.13 76.45 574.32
C 71.83 575.78 70.13 580.16 72.69 584.05
C 75.95 589.03 80.46 589.90 83.49 586.17
C 84.87 584.47 86.00 581.74 86.00 580.10
C 86.02 575.90 90.51 569.06 96.03 564.86
C 102.26 560.12 109.14 557.79 129.46 553.59
C 143.35 550.73 150.22 550.12 168.40 550.12
C 201.68 550.12 201.10 550.64 227.30 497.38
C 252.14 446.90 254.91 436.63 256.40 388.68
C 257.28 360.82 257.43 359.58 260.09 359.58
C 262.71 359.58 262.90 360.65 263.30 378.29
C 263.78 399.08 261.77 426.67 258.72 441.09
L 256.72 450.54
L 269.97 463.19
C 294.49 486.61 305.44 494.02 331.02 504.51
C 342.96 509.42 345.25 509.94 348.97 508.64
C 356.86 505.88 360.72 506.77 366.25 512.58
C 369.08 515.56 373.20 518.90 375.39 520.00
C 380.69 522.67 388.11 524.00 389.06 522.46
C 389.92 521.07 385.33 512.59 380.51 506.70
C 373.15 497.70 379.86 486.37 392.57 486.37
C 399.91 486.37 404.82 489.85 405.79 495.73
C 407.81 507.92 412.51 513.31 425.43 518.20
C 435.65 522.08 484.02 527.57 497.30 526.36
C 502.61 525.89 502.14 525.59 485.92 519.12
C 453.96 506.40 434.36 492.36 425.65 475.97
C 420.77 466.77 416.98 449.20 417.92 440.13
C 420.57 414.94 436.37 399.37 460.70 397.97
C 488.00 396.39 511.06 406.61 574.60 448.55
C 591.71 459.82 607.05 469.84 608.72 470.80
C 612.16 472.78 612.75 477.76 609.70 478.92
C 607.20 479.89 598.94 474.93 559.03 448.53
C 513.86 418.66 484.02 404.62 465.71 404.62
C 455.71 404.62 445.64 408.39 438.80 414.69
C 431.98 420.97 429.41 425.17 426.46 434.90
C 423.82 443.58 424.01 449.49 427.29 459.24
C 432.78 475.65 443.73 488.15 462.27 499.15
C 478.61 508.85 541.06 532.34 568.39 539.07
C 572.87 540.18 574.29 541.19 574.29 543.28
C 574.29 544.81 573.40 546.39 572.32 546.80
C 570.10 547.65 550.62 542.58 532.30 536.37
C 520.16 532.27 520.03 532.25 496.23 533.04
C 476.28 533.70 468.86 533.33 451.38 530.87
C 426.68 527.39 419.15 525.34 410.24 519.70
C 403.33 515.32 400.29 510.40 398.81 501.20
C 397.77 494.74 393.18 491.94 387.71 494.44
C 382.93 496.61 383.34 499.03 389.83 506.51
C 398.02 515.96 401.51 523.39 399.68 527.42
C 397.64 531.89 393.37 532.57 382.73 530.11
C 370.48 527.27 363.44 524.19 363.44 521.70
C 363.44 518.73 358.37 514.09 355.14 514.09
C 353.64 514.09 351.38 515.64 350.13 517.55
C 348.05 520.73 348.04 521.29 350.08 524.40
C 351.70 526.88 354.03 528.00 358.90 528.68
C 377.41 531.23 392.05 538.32 390.93 544.18
C 390.00 549.01 382.29 551.70 355.50 556.52
C 348.94 557.71 348.23 567.67 354.42 571.72
C 358.54 574.42 363.84 572.12 367.64 565.98
C 369.80 562.48 373.51 560.20 385.28 555.13
C 393.48 551.60 401.60 548.72 403.32 548.72
C 406.81 548.73 411.99 553.22 411.99 556.24
C 411.99 558.85 393.70 577.29 389.95 578.48
C 383.62 580.48 383.36 588.00 389.46 591.60
C 393.01 593.70 395.72 592.81 397.66 588.90"/>
<path fill="#000000" stroke="none" d="
M 158.26 178.20
L 120.24 136.05
L 114.79 139.65
C 107.48 144.48 96.06 145.34 85.06 141.89
C 78.93 139.97 75.10 137.52 69.14 131.70
C 60.91 123.64 58.29 117.84 58.27 107.67
C 58.26 100.20 55.65 96.06 45.14 86.80
C 38.37 80.84 36.02 77.89 36.34 75.73
C 36.88 71.94 41.59 71.02 43.95 74.23
C 44.94 75.60 49.27 79.57 53.59 83.06
L 61.42 89.40
L 69.21 85.55
C 80.40 80.01 89.03 79.33 101.24 83.04
C 108.96 85.39 112.53 87.39 117.15 92.01
C 124.87 99.73 126.83 105.78 125.75 118.60
L 124.90 128.65
L 163.37 171.16
C 201.60 213.41 205.77 219.12 199.06 219.99
C 196.98 220.27 186.75 209.78 158.26 178.20
M 105.88 135.30
C 115.26 131.38 120.89 119.86 118.56 109.30
C 116.34 99.17 99.46 87.30 87.28 87.30
C 77.17 87.30 65.20 97.64 65.20 106.36
C 65.20 117.31 73.26 127.65 86.70 133.93
C 94.65 137.63 99.46 137.97 105.88 135.30"/>
<path fill="#000000" stroke="none" d="
M 90.86 120.19
C 83.94 116.26 77.51 105.33 79.90 101.52
C 82.27 97.73 90.12 97.70 95.76 101.46
C 102.07 105.67 108.12 116.77 105.98 120.19
C 103.73 123.78 97.18 123.80 90.86 120.19"/>
<path fill="#0d9d10" stroke="none" d="
M 389.46 591.60
C 383.36 588.00 383.62 580.48 389.95 578.48
C 393.70 577.29 411.99 558.85 411.99 556.24
C 411.99 553.22 406.81 548.73 403.32 548.72
C 401.60 548.72 393.48 551.60 385.28 555.13
C 373.51 560.20 369.80 562.48 367.64 565.98
C 363.84 572.12 358.54 574.42 354.42 571.72
C 348.23 567.67 348.94 557.71 355.50 556.52
C 382.29 551.70 390.00 549.01 390.93 544.18
C 392.05 538.32 377.41 531.23 358.90 528.68
C 354.03 528.00 351.70 526.88 350.08 524.40
C 348.04 521.29 348.05 520.73 350.13 517.55
C 351.38 515.64 353.64 514.09 355.14 514.09
C 358.37 514.09 363.44 518.73 363.44 521.70
C 363.44 524.19 370.48 527.27 382.73 530.11
C 393.37 532.57 397.64 531.89 399.68 527.42
C 401.51 523.39 398.02 515.96 389.83 506.51
C 383.34 499.03 382.93 496.61 387.71 494.44
C 393.18 491.94 397.77 494.74 398.81 501.20
C 400.29 510.40 403.33 515.32 410.24 519.70
C 419.15 525.34 426.68 527.39 451.38 530.87
C 468.86 533.33 476.28 533.70 496.23 533.04
C 520.03 532.25 520.16 532.27 532.30 536.37
C 550.62 542.58 570.10 547.65 572.32 546.80
C 573.40 546.39 574.29 544.81 574.29 543.28
C 574.29 541.19 572.87 540.18 568.39 539.07
C 541.06 532.34 478.61 508.85 462.27 499.15
C 443.73 488.15 432.78 475.65 427.29 459.24
C 424.01 449.49 423.82 443.58 426.46 434.90
C 429.41 425.17 431.98 420.97 438.80 414.69
C 445.64 408.39 455.71 404.62 465.71 404.62
C 484.02 404.62 513.86 418.66 559.03 448.53
C 598.94 474.93 607.20 479.89 609.70 478.92
C 612.75 477.76 612.16 472.78 608.72 470.80
C 607.05 469.84 591.71 459.82 574.60 448.55
C 525.24 415.97 500.27 402.86 480.32 399.01
C 445.96 392.37 421.23 408.68 417.92 440.13
C 416.98 449.20 420.77 466.77 425.65 475.97
C 434.36 492.36 453.96 506.40 485.92 519.12
C 502.14 525.59 502.61 525.89 497.30 526.36
C 484.02 527.57 435.65 522.08 425.43 518.20
C 412.51 513.31 407.81 507.92 405.79 495.73
C 403.36 481.12 377.31 484.42 377.31 499.34
C 377.31 501.24 378.75 504.55 380.51 506.70
C 385.33 512.59 389.92 521.07 389.06 522.46
C 388.11 524.00 380.69 522.67 375.39 520.00
C 373.20 518.90 369.08 515.56 366.25 512.58
C 360.72 506.77 356.86 505.88 348.97 508.64
C 345.25 509.94 342.96 509.42 331.02 504.51
C 305.44 494.02 294.49 486.61 269.97 463.19
L 256.72 450.54
L 258.72 441.09
C 261.77 426.67 263.78 399.08 263.30 378.29
C 262.90 360.65 262.71 359.58 260.09 359.58
C 257.43 359.58 257.28 360.82 256.40 388.68
C 254.91 436.63 252.14 446.90 227.30 497.38
C 208.73 535.12 204.43 541.95 196.17 546.79
C 190.82 549.92 189.22 550.12 168.40 550.12
C 150.22 550.12 143.35 550.73 129.46 553.59
C 109.14 557.79 102.26 560.12 96.03 564.86
C 90.51 569.06 86.02 575.90 86.00 580.10
C 86.00 581.74 84.87 584.47 83.49 586.17
C 80.46 589.90 75.95 589.03 72.69 584.05
C 70.13 580.16 71.83 575.78 76.45 574.32
C 80.21 573.13 98.49 554.69 98.49 552.08
C 98.49 549.06 93.31 544.57 89.82 544.56
C 88.10 544.56 79.98 547.44 71.79 550.97
C 60.01 556.05 56.30 558.32 54.14 561.82
C 50.34 567.96 45.04 570.26 40.92 567.56
C 34.73 563.52 35.44 553.55 42.00 552.36
C 68.79 547.54 76.50 544.85 77.43 540.03
C 78.56 534.17 63.91 527.07 45.40 524.52
C 37.55 523.44 33.44 518.98 35.97 514.27
C 39.16 508.30 47.70 509.56 49.40 516.25
C 50.40 520.27 55.53 522.78 69.23 525.95
C 79.87 528.42 84.15 527.74 86.18 523.26
C 88.02 519.23 84.52 511.80 76.34 502.35
C 69.84 494.87 69.43 492.46 74.21 490.28
C 79.69 487.79 84.28 490.59 85.28 497.04
C 86.71 506.26 90.35 511.68 98.31 516.43
C 107.12 521.68 117.34 524.16 143.57 527.40
C 173.46 531.09 180.93 528.78 186.28 514.09
C 187.53 510.65 192.30 497.74 196.89 485.38
C 201.49 473.00 206.48 458.16 207.99 452.40
C 212.17 436.49 214.12 414.53 212.94 397.00
C 210.28 357.41 210.39 358.20 207.38 358.20
C 204.84 358.20 204.61 359.11 204.62 369.28
C 204.63 375.38 205.12 385.98 205.73 392.84
L 206.81 405.31
L 197.53 395.61
C 181.84 379.21 154.00 345.10 143.82 329.79
C 125.23 301.84 111.97 270.10 101.22 227.78
C 90.64 186.08 86.64 178.45 66.21 160.93
C 46.98 144.46 39.66 134.15 20.03 96.01
C 7.92 72.46 5.04 63.41 14.25 77.82
C 35.10 110.44 36.52 112.38 39.40 111.96
C 45.71 111.05 44.89 109.40 17.15 67.34
C 9.60 55.90 9.02 54.44 9.02 47.03
C 9.02 40.39 9.72 38.04 13.18 33.13
C 18.20 25.98 31.49 16.64 42.53 12.48
C 57.11 7.00 67.58 7.23 101.96 13.83
C 137.79 20.70 142.31 20.67 157.01 13.51
C 171.43 6.48 173.28 6.21 181.57 9.77
C 189.22 13.05 196.19 19.93 199.24 27.23
C 201.96 33.73 201.67 34.68 197.24 33.80
C 194.63 33.27 192.76 33.74 191.53 35.21
C 188.95 38.33 191.22 40.60 200.85 44.51
C 205.20 46.27 217.19 52.35 227.49 58.02
C 265.02 78.65 278.42 83.92 338.88 101.78
C 372.73 111.77 387.98 117.52 409.31 128.31
C 461.30 154.63 505.62 193.21 562.73 261.89
C 602.24 309.39 608.95 318.73 621.34 343.44
C 648.53 397.65 665.12 462.21 662.65 504.22
C 661.34 526.23 658.22 522.48 654.70 494.69
C 647.57 438.47 618.69 382.78 564.51 320.79
C 538.29 290.79 528.36 280.60 525.30 280.60
C 518.51 280.60 521.64 285.63 544.05 310.68
C 578.82 349.59 592.98 367.82 610.07 395.70
C 631.71 431.00 642.31 461.39 649.71 509.49
C 650.79 516.47 652.66 524.22 653.90 526.67
C 656.92 532.74 656.81 533.43 651.51 540.87
C 647.86 546.01 633.77 558.43 631.59 558.43
C 631.34 558.43 631.52 555.16 631.99 551.15
C 632.48 547.00 632.13 541.21 631.19 537.64
C 628.25 526.56 621.39 521.82 571.08 496.00
C 521.89 470.77 512.02 465.08 497.60 453.53
C 487.98 445.82 483.75 444.73 483.01 449.76
C 482.72 451.83 484.81 454.32 490.64 458.87
C 506.63 471.30 517.20 477.45 563.05 500.99
C 610.74 525.48 620.23 531.62 623.82 540.22
C 625.87 545.10 625.33 555.15 622.78 559.91
C 620.58 564.03 603.74 571.40 595.33 571.93
C 587.84 572.40 522.35 562.71 484.44 555.52
L 468.79 552.55
L 449.76 556.35
C 421.53 561.96 414.32 564.50 407.20 571.32
C 403.79 574.57 400.74 578.97 400.25 581.29
C 398.21 591.05 394.51 594.58 389.46 591.60
M 201.83 216.65
C 201.83 214.70 188.61 199.07 163.37 171.16
L 124.90 128.65
L 125.75 118.60
C 126.83 105.78 124.87 99.73 117.15 92.01
C 112.53 87.39 108.96 85.39 101.24 83.04
C 89.03 79.33 80.40 80.01 69.21 85.55
L 61.42 89.40
L 53.59 83.06
C 49.27 79.57 44.94 75.60 43.95 74.23
C 41.59 71.02 36.88 71.94 36.34 75.73
C 36.02 77.89 38.37 80.84 45.14 86.80
C 55.65 96.06 58.26 100.20 58.27 107.67
C 58.29 117.84 60.91 123.64 69.14 131.70
C 75.10 137.52 78.93 139.97 85.06 141.89
C 96.06 145.34 107.48 144.48 114.79 139.65
L 120.24 136.05
L 158.26 178.20
C 186.75 209.78 196.98 220.27 199.06 219.99
C 200.86 219.76 201.83 218.59 201.83 216.65"/>
<path fill="#ff5d44" stroke="none" d="
M 86.70 133.93
C 73.26 127.65 65.20 117.31 65.20 106.36
C 65.20 97.58 77.20 87.41 87.68 87.33
C 99.39 87.23 116.37 99.33 118.56 109.30
C 120.89 119.86 115.26 131.38 105.88 135.30
C 99.46 137.97 94.65 137.63 86.70 133.93
M 105.98 120.19
C 107.17 118.27 106.77 116.36 104.04 111.21
C 99.70 103.03 92.69 98.11 86.18 98.66
C 78.89 99.30 77.67 102.62 81.84 110.51
C 87.52 121.22 101.76 126.93 105.98 120.19"/>
</g>
</svg>
