<?xml version="1.0" encoding="UTF-8" standalone="no"?>
<!DOCTYPE svg PUBLIC "-//W3C//DTD SVG 1.1//EN"
"http://www.w3.org/Graphics/SVG/1.1/DTD/svg11.dtd">
<svg width="266px" height="600px"
xmlns="http://www.w3.org/2000/svg" version="1.1">
<g transform="translate(0000, 0000) scale(1.0000, 1.0000)">
<path fill="#000000" stroke="none" d="
M 177.47 598.17
C 173.16 594.99 174.40 581.56 182.56 543.23
C 189.98 508.40 198.75 457.99 201.66 433.55
C 203.23 420.23 203.48 346.50 201.97 341.61
C 200.64 337.33 197.23 336.80 187.13 339.32
C 181.86 340.62 168.83 342.65 158.18 343.82
C 147.53 344.98 133.80 347.03 127.67 348.36
C 115.85 350.93 95.49 360.22 91.16 365.02
C 89.81 366.52 88.12 367.74 87.41 367.74
C 86.70 367.74 84.16 369.23 81.78 371.05
C 78.55 373.51 76.22 374.25 72.62 373.95
C 68.39 373.60 67.74 373.10 67.38 369.88
C 67.13 367.78 67.86 365.23 69.08 363.87
C 71.06 361.69 71.05 361.43 68.89 360.23
C 67.25 359.30 65.53 359.48 62.90 360.84
C 54.85 364.99 49.55 359.26 55.54 352.89
C 59.84 348.31 58.51 345.16 52.27 345.16
C 47.27 345.16 47.13 345.05 47.13 340.70
C 47.13 336.75 47.62 336.08 51.38 335.01
C 56.83 333.45 56.36 330.49 50.36 328.55
C 46.58 327.33 45.78 326.41 45.44 322.89
C 45.16 320.05 45.66 318.45 46.98 317.95
C 48.06 317.54 58.46 318.41 70.09 319.88
C 81.74 321.37 94.69 322.58 98.90 322.57
L 106.53 322.55
L 102.01 319.05
C 91.95 311.25 83.51 302.26 78.11 293.60
C 65.58 273.52 54.80 245.91 48.60 218.06
C 41.67 186.95 41.24 170.31 46.56 139.35
C 50.08 118.90 50.26 106.08 47.14 96.77
C 45.18 90.89 43.01 88.03 34.45 80.00
C 10.58 57.64 9.36 56.30 7.61 50.32
C 6.66 47.12 4.57 42.54 2.94 40.14
C -0.65 34.80 -0.75 31.57 2.51 26.23
C 6.06 20.41 13.51 16.59 34.59 9.77
C 79.31 -4.72 102.37 -2.67 121.21 17.45
C 130.49 27.35 137.66 39.20 154.11 71.81
C 164.13 91.65 170.77 102.45 190.20 130.48
C 219.14 172.22 227.48 185.64 237.42 206.50
C 249.34 231.48 257.87 258.83 262.98 288.39
C 266.14 306.70 266.17 350.08 263.02 370.32
C 256.10 414.88 236.38 493.12 222.73 530.21
C 214.32 553.07 196.19 592.44 192.23 596.45
C 188.27 600.46 181.65 601.23 177.47 598.17
M 198.29 569.03
C 217.29 527.34 224.43 506.48 238.34 451.99
C 261.45 361.34 264.52 321.90 252.36 270.97
C 242.10 227.92 226.66 196.17 191.82 146.45
C 165.28 108.58 158.84 98.21 145.37 71.65
C 120.93 23.47 110.21 11.48 88.09 7.59
C 78.32 5.87 68.01 7.35 46.67 13.55
C 21.53 20.85 12.11 25.23 8.99 31.06
C 6.25 36.18 12.41 41.24 27.75 46.43
C 32.53 48.05 34.32 49.35 34.63 51.41
C 35.23 55.46 32.53 55.87 24.17 53.01
C 20.10 51.60 16.79 50.92 16.79 51.48
C 16.79 52.04 20.71 56.17 25.50 60.66
C 52.24 85.70 53.11 86.93 55.60 103.08
C 57.22 113.54 56.92 117.32 52.09 147.74
C 48.23 172.06 48.51 183.45 53.55 208.34
C 62.66 253.33 81.74 292.71 102.31 309.06
C 107.47 313.16 113.73 318.43 116.21 320.76
C 124.48 328.53 131.71 329.12 131.71 322.04
C 131.71 320.49 129.38 312.32 126.54 303.87
C 123.70 295.42 121.38 287.32 121.39 285.87
C 121.43 278.04 134.25 260.66 138.72 262.37
C 141.87 263.57 141.13 266.83 136.40 272.68
C 127.60 283.55 127.59 283.63 133.15 300.50
C 138.93 318.01 139.66 327.54 135.58 331.61
C 132.35 334.84 127.78 334.88 118.05 331.73
C 112.00 329.78 105.92 329.20 89.10 328.97
C 77.37 328.80 66.49 328.75 64.89 328.85
C 60.72 329.11 61.26 332.65 65.53 333.14
C 70.35 333.69 71.23 339.46 66.95 342.44
C 62.79 345.35 65.32 347.56 70.55 345.59
C 72.74 344.76 75.47 344.46 76.64 344.92
C 79.63 346.05 79.34 351.88 76.18 353.85
C 73.61 355.46 73.61 355.48 76.40 357.59
C 79.08 359.60 79.90 359.37 94.06 352.72
C 110.83 344.85 121.91 341.70 143.25 338.76
C 151.37 337.64 158.30 336.44 158.63 336.10
C 158.98 335.77 157.99 329.54 156.45 322.26
C 151.87 300.70 152.99 285.81 159.15 286.68
C 161.39 287.01 161.98 287.83 161.70 290.32
C 161.51 292.10 161.05 296.45 160.67 300.00
C 160.23 304.23 161.06 311.34 163.06 320.65
C 166.08 334.74 166.13 334.84 170.02 335.23
C 172.18 335.45 178.49 334.43 184.06 332.97
C 197.55 329.45 202.07 329.55 206.02 333.48
C 209.15 336.62 209.18 337.01 209.51 362.19
C 209.97 398.99 209.51 420.68 207.91 436.13
C 205.76 456.95 196.83 509.63 189.84 542.58
C 180.83 585.20 180.40 587.86 182.15 591.11
L 183.62 593.87
L 186.69 590.81
C 188.37 589.12 193.59 579.33 198.29 569.03"/>
<path fill="#000000" stroke="none" d="
M 43.19 38.13
C 36.23 31.16 41.15 19.35 51.00 19.35
C 57.31 19.35 61.98 24.03 61.98 30.32
C 61.98 36.62 57.31 41.29 51.00 41.29
C 47.80 41.29 45.39 40.31 43.19 38.13
M 56.08 35.39
C 59.68 31.78 57.41 23.23 52.85 23.23
C 51.02 23.23 51.42 25.30 53.59 27.10
C 54.66 27.97 55.52 29.43 55.52 30.32
C 55.52 31.21 54.66 32.67 53.59 33.55
C 52.52 34.43 51.65 35.66 51.65 36.28
C 51.65 38.06 53.85 37.61 56.08 35.39"/>
<path fill="#608561" stroke="none" d="
M 182.15 591.11
C 180.40 587.86 180.83 585.20 189.84 542.58
C 196.83 509.63 205.76 456.95 207.91 436.13
C 209.51 420.68 209.97 398.99 209.51 362.19
C 209.18 337.01 209.15 336.62 206.02 333.48
C 202.07 329.55 197.55 329.45 184.06 332.97
C 178.49 334.43 172.18 335.45 170.02 335.23
C 166.13 334.84 166.08 334.74 163.06 320.65
C 161.06 311.34 160.23 304.23 160.67 300.00
C 161.05 296.45 161.51 292.10 161.70 290.32
C 161.98 287.83 161.39 287.01 159.15 286.68
C 152.99 285.81 151.87 300.70 156.45 322.26
C 157.99 329.54 158.98 335.77 158.63 336.10
C 158.30 336.44 151.37 337.64 143.25 338.76
C 121.91 341.70 110.83 344.85 94.06 352.72
C 79.90 359.37 79.08 359.60 76.40 357.59
C 73.61 355.48 73.61 355.46 76.18 353.85
C 79.34 351.88 79.63 346.05 76.64 344.92
C 75.47 344.46 72.74 344.76 70.55 345.59
C 65.32 347.56 62.79 345.35 66.95 342.44
C 71.23 339.46 70.35 333.69 65.53 333.14
C 61.26 332.65 60.72 329.11 64.89 328.85
C 66.49 328.75 77.37 328.80 89.10 328.97
C 105.92 329.20 112.00 329.78 118.05 331.73
C 127.78 334.88 132.35 334.84 135.58 331.61
C 139.66 327.54 138.93 318.01 133.15 300.50
C 127.59 283.63 127.60 283.55 136.40 272.68
C 141.13 266.83 141.87 263.57 138.72 262.37
C 134.25 260.66 121.43 278.04 121.39 285.87
C 121.38 287.32 123.70 295.42 126.54 303.87
C 129.38 312.32 131.71 320.49 131.71 322.04
C 131.71 329.12 124.48 328.53 116.21 320.76
C 113.73 318.43 107.47 313.16 102.31 309.06
C 81.74 292.71 62.66 253.33 53.55 208.34
C 48.51 183.45 48.23 172.06 52.09 147.74
C 56.92 117.32 57.22 113.54 55.60 103.08
C 53.11 86.93 52.24 85.70 25.50 60.66
C 20.71 56.17 16.79 52.04 16.79 51.48
C 16.79 50.92 20.10 51.60 24.17 53.01
C 32.53 55.87 35.23 55.46 34.63 51.41
C 34.32 49.35 32.53 48.05 27.75 46.43
C 12.41 41.24 6.25 36.18 8.99 31.06
C 12.12 25.21 21.51 20.85 46.81 13.51
C 67.31 7.55 79.12 5.91 88.68 7.68
C 110.34 11.68 121.11 23.83 145.37 71.65
C 158.84 98.21 165.28 108.58 191.82 146.45
C 219.86 186.46 233.73 211.90 243.89 241.94
C 258.01 283.65 262.16 318.92 257.58 358.08
C 252.33 402.99 228.62 496.84 212.61 536.13
C 202.41 561.16 189.84 587.65 186.69 590.81
L 183.62 593.87
L 182.15 591.11
M 58.82 38.13
C 65.78 31.16 60.86 19.35 51.00 19.35
C 44.70 19.35 40.03 24.03 40.03 30.32
C 40.03 36.62 44.70 41.29 51.00 41.29
C 54.21 41.29 56.62 40.31 58.82 38.13"/>
<path fill="#eb2e00" stroke="none" d="
M 51.65 36.28
C 51.65 35.66 52.52 34.43 53.59 33.55
C 56.05 31.50 56.04 29.79 53.50 27.01
C 50.89 24.13 53.29 22.48 56.07 25.24
C 58.67 27.86 58.69 32.79 56.08 35.39
C 53.85 37.61 51.65 38.06 51.65 36.28"/>
</g>
</svg>
