<?xml version="1.0" encoding="UTF-8" standalone="no"?>
<!DOCTYPE svg PUBLIC "-//W3C//DTD SVG 1.1//EN"
"http://www.w3.org/Graphics/SVG/1.1/DTD/svg11.dtd">
<svg width="800px" height="200px"
xmlns="http://www.w3.org/2000/svg" version="1.1">
<g transform="translate(0000, 0000) scale(1.0000, 1.0000)">
<path fill="#000000" stroke="none" d="
M 215.01 198.28
C 201.67 196.47 183.63 191.27 174.49 186.60
C 163.12 180.78 155.73 173.66 139.44 152.73
C 121.90 130.21 111.38 119.64 103.04 116.16
C 98.58 114.28 95.11 114.20 84.19 115.67
C 67.68 117.89 40.96 116.67 29.78 113.15
C 16.29 108.93 6.26 101.24 2.58 92.28
C -0.47 84.86 -0.49 84.23 2.17 75.77
C 5.79 64.28 13.92 56.94 33.30 47.74
C 41.53 43.84 49.04 40.65 50.00 40.65
C 54.99 40.65 52.95 36.08 43.86 26.88
C 36.20 19.14 33.93 15.77 34.34 12.83
C 34.71 10.24 36.12 8.76 38.56 8.42
C 41.31 8.03 46.22 11.59 58.03 22.63
C 77.29 40.59 79.76 41.14 88.80 29.45
C 110.44 1.43 114.24 -1.97 120.89 0.59
C 125.57 2.39 123.26 8.57 113.93 19.30
C 108.75 25.22 103.30 32.02 101.83 34.39
L 99.12 38.72
L 116.01 46.93
C 136.08 56.67 141.31 61.54 158.39 86.42
C 165.37 96.57 175.12 109.19 180.06 114.46
C 201.61 137.43 221.01 137.56 281.36 115.15
C 367.16 83.30 399.89 85.02 509.53 127.19
C 559.82 146.52 581.76 153.64 605.73 158.42
C 635.29 164.33 648.49 164.81 695.20 161.77
C 746.82 158.41 786.99 158.94 794.73 163.11
C 803.57 167.85 801.31 173.33 787.70 180.20
C 779.23 184.46 761.38 187.95 732.66 190.94
C 681.15 196.34 655.76 195.97 572.01 188.59
C 515.89 183.63 447.64 178.68 421.70 177.71
C 394.99 176.70 386.82 177.61 338.08 187.14
C 320.08 190.65 298.17 194.63 289.40 195.98
C 269.23 199.09 229.86 200.29 215.01 198.28
M 272.63 189.48
C 283.78 188.16 309.70 183.82 330.22 179.84
C 384.45 169.32 391.03 168.57 420.84 169.56
C 447.58 170.46 538.79 177.01 584.18 181.30
C 652.11 187.74 694.10 187.72 744.02 181.24
C 765.48 178.44 774.10 176.49 781.18 172.83
C 784.81 170.94 785.36 170.08 783.61 168.96
C 779.99 166.68 734.02 167.25 694.43 170.08
C 623.50 175.17 598.65 170.81 512.78 138.23
C 392.73 92.68 375.17 91.50 286.56 123.06
C 245.23 137.77 233.43 140.41 212.71 139.54
C 199.29 138.99 195.98 138.26 188.49 134.16
C 177.46 128.11 167.32 116.94 150.67 92.54
C 143.38 81.84 134.56 70.49 131.05 67.32
C 127.55 64.15 117.63 58.23 109.00 54.15
C 95.51 47.77 91.47 46.62 80.32 45.95
C 69.86 45.33 65.30 45.87 56.80 48.73
C 20.59 60.88 2.39 78.36 12.67 91.07
C 15.53 94.62 15.76 94.63 20.93 91.95
C 23.85 90.44 27.28 89.59 28.54 90.08
C 32.23 91.50 31.17 95.64 26.50 98.10
L 22.18 100.37
L 31.77 104.05
C 44.11 108.76 60.87 109.90 81.82 107.41
C 109.83 104.08 116.59 107.87 143.43 142.02
C 168.13 173.41 174.12 178.23 197.18 185.22
C 219.78 192.07 240.67 193.25 272.63 189.48"/>
<path fill="#000000" stroke="none" d="
M 230.43 172.36
C 228.64 170.57 227.18 167.28 227.18 165.04
C 227.18 162.80 228.64 159.51 230.43 157.72
C 232.21 155.93 235.49 154.47 237.73 154.47
C 239.97 154.47 243.25 155.93 245.03 157.72
C 246.82 159.51 248.28 162.80 248.28 165.04
C 248.28 167.28 246.82 170.57 245.03 172.36
C 243.25 174.15 239.97 175.61 237.73 175.61
C 235.49 175.61 232.21 174.15 230.43 172.36
M 242.40 167.11
C 243.75 164.94 243.54 163.67 241.48 161.59
C 236.61 156.73 229.37 163.09 233.75 168.39
C 236.27 171.43 240.03 170.88 242.40 167.11"/>
<path fill="#000000" stroke="none" d="
M 184.99 167.48
C 183.20 165.69 181.74 162.41 181.74 160.16
C 181.74 157.92 183.20 154.63 184.99 152.85
C 186.77 151.06 190.05 149.59 192.29 149.59
C 194.53 149.59 197.81 151.06 199.59 152.85
C 201.38 154.63 202.84 157.92 202.84 160.16
C 202.84 162.41 201.38 165.69 199.59 167.48
C 197.81 169.27 194.53 170.73 192.29 170.73
C 190.05 170.73 186.77 169.27 184.99 167.48
M 196.97 162.23
C 198.31 160.07 198.10 158.80 196.04 156.72
C 191.17 151.85 183.94 158.21 188.32 163.51
C 190.83 166.55 194.60 166.00 196.97 162.23"/>
<path fill="#000000" stroke="none" d="
M 511.16 164.23
C 504.73 157.79 509.40 146.34 518.46 146.34
C 523.67 146.34 529.01 151.69 529.01 156.91
C 529.01 162.13 523.67 167.48 518.46 167.48
C 516.22 167.48 512.94 166.02 511.16 164.23
M 523.13 158.98
C 524.48 156.81 524.27 155.54 522.21 153.46
C 517.34 148.60 510.10 154.96 514.48 160.26
C 517.00 163.30 520.76 162.75 523.13 158.98"/>
<path fill="#000000" stroke="none" d="
M 274.24 160.98
C 272.45 159.19 270.99 155.90 270.99 153.66
C 270.99 151.41 272.45 148.13 274.24 146.34
C 276.02 144.55 279.30 143.09 281.54 143.09
C 283.78 143.09 287.06 144.55 288.84 146.34
C 290.63 148.13 292.09 151.41 292.09 153.66
C 292.09 155.90 290.63 159.19 288.84 160.98
C 287.06 162.76 283.78 164.23 281.54 164.23
C 279.30 164.23 276.02 162.76 274.24 160.98
M 286.22 155.72
C 287.56 153.56 287.35 152.29 285.29 150.21
C 280.42 145.35 273.18 151.71 277.57 157.01
C 280.08 160.05 283.85 159.50 286.22 155.72"/>
<path fill="#000000" stroke="none" d="
M 467.34 154.47
C 460.92 148.03 465.59 136.59 474.65 136.59
C 479.85 136.59 485.19 141.93 485.19 147.15
C 485.19 152.37 479.85 157.72 474.65 157.72
C 472.41 157.72 469.13 156.26 467.34 154.47
M 479.32 149.22
C 480.67 147.06 480.45 145.79 478.39 143.71
C 473.53 138.85 466.29 145.20 470.67 150.50
C 473.18 153.54 476.95 152.99 479.32 149.22"/>
<path fill="#000000" stroke="none" d="
M 321.30 146.34
C 319.51 144.55 318.05 141.27 318.05 139.02
C 318.05 136.78 319.51 133.50 321.30 131.71
C 323.08 129.92 326.36 128.46 328.60 128.46
C 330.84 128.46 334.12 129.92 335.90 131.71
C 337.69 133.50 339.15 136.78 339.15 139.02
C 339.15 141.27 337.69 144.55 335.90 146.34
C 334.12 148.13 330.84 149.59 328.60 149.59
C 326.36 149.59 323.08 148.13 321.30 146.34
M 333.27 141.09
C 334.62 138.93 334.41 137.66 332.35 135.58
C 327.48 130.72 320.24 137.07 324.62 142.37
C 327.14 145.41 330.90 144.86 333.27 141.09"/>
<path fill="#000000" stroke="none" d="
M 417.04 144.72
C 410.61 138.28 415.29 126.83 424.34 126.83
C 429.55 126.83 434.89 132.18 434.89 137.40
C 434.89 142.62 429.55 147.97 424.34 147.97
C 422.10 147.97 418.82 146.50 417.04 144.72
M 429.01 139.46
C 430.36 137.30 430.15 136.03 428.09 133.95
C 423.22 129.09 415.98 135.45 420.37 140.75
C 422.88 143.79 426.65 143.24 429.01 139.46"/>
<path fill="#000000" stroke="none" d="
M 371.60 139.84
C 369.82 138.05 368.36 134.76 368.36 132.52
C 368.36 130.28 369.82 126.99 371.60 125.20
C 373.39 123.41 376.67 121.95 378.90 121.95
C 381.14 121.95 384.42 123.41 386.21 125.20
C 387.99 126.99 389.45 130.28 389.45 132.52
C 389.45 134.76 387.99 138.05 386.21 139.84
C 384.42 141.63 381.14 143.09 378.90 143.09
C 376.67 143.09 373.39 141.63 371.60 139.84
M 383.58 134.59
C 384.92 132.42 384.71 131.15 382.65 129.07
C 377.78 124.21 370.55 130.57 374.93 135.87
C 377.44 138.91 381.21 138.36 383.58 134.59"/>
<path fill="#000000" stroke="none" d="
M 147.67 138.21
C 145.88 136.42 144.42 133.14 144.42 130.89
C 144.42 128.65 145.88 125.37 147.67 123.58
C 149.45 121.79 152.73 120.33 154.97 120.33
C 157.21 120.33 160.49 121.79 162.27 123.58
C 164.06 125.37 165.52 128.65 165.52 130.89
C 165.52 133.14 164.06 136.42 162.27 138.21
C 160.49 140.00 157.21 141.46 154.97 141.46
C 152.73 141.46 149.45 140.00 147.67 138.21
M 159.64 132.96
C 160.99 130.80 160.78 129.53 158.72 127.45
C 153.85 122.59 146.61 128.94 150.99 134.24
C 153.51 137.28 157.27 136.73 159.64 132.96"/>
<path fill="#000000" stroke="none" d="
M 123.33 107.32
C 121.54 105.53 120.08 102.24 120.08 100.00
C 120.08 97.76 121.54 94.47 123.33 92.68
C 125.11 90.89 128.39 89.43 130.63 89.43
C 132.87 89.43 136.15 90.89 137.93 92.68
C 139.72 94.47 141.18 97.76 141.18 100.00
C 141.18 102.24 139.72 105.53 137.93 107.32
C 136.15 109.11 132.87 110.57 130.63 110.57
C 128.39 110.57 125.11 109.11 123.33 107.32
M 135.30 102.07
C 136.65 99.90 136.44 98.63 134.38 96.55
C 129.51 91.69 122.27 98.05 126.65 103.35
C 129.17 106.39 132.93 105.84 135.30 102.07"/>
<path fill="#000000" stroke="none" d="
M 42.92 80.57
C 37.52 75.14 37.52 66.33 42.92 60.89
C 51.68 52.13 66.53 58.33 66.53 70.73
C 66.53 78.67 60.66 84.55 52.74 84.55
C 48.71 84.55 45.68 83.32 42.92 80.57
M 59.12 77.12
C 60.51 75.71 61.66 72.85 61.66 70.73
C 61.66 66.94 57.90 61.79 55.14 61.79
C 54.34 61.79 54.91 63.89 56.37 66.47
C 58.87 70.83 58.87 71.43 56.26 75.41
C 53.21 80.08 55.06 81.19 59.12 77.12"/>
<path fill="#fca022" stroke="none" d="
M 218.26 190.07
C 206.41 188.36 188.04 182.91 179.67 178.63
C 170.03 173.71 161.87 165.46 143.43 142.02
C 116.59 107.87 109.83 104.08 81.82 107.41
C 60.87 109.90 44.11 108.76 31.77 104.05
L 22.18 100.37
L 26.50 98.10
C 31.17 95.64 32.23 91.50 28.54 90.08
C 27.28 89.59 23.85 90.44 20.93 91.95
C 15.76 94.63 15.53 94.62 12.67 91.07
C 4.12 80.50 16.15 65.28 41.43 54.68
C 70.18 42.62 84.19 42.50 109.00 54.18
C 117.63 58.24 127.55 64.15 131.05 67.32
C 134.56 70.49 143.38 81.84 150.67 92.54
C 167.32 116.94 177.46 128.11 188.49 134.16
C 195.98 138.26 199.29 138.99 212.71 139.54
C 233.43 140.41 245.23 137.77 286.56 123.06
C 375.17 91.50 392.73 92.68 512.78 138.23
C 598.65 170.81 623.50 175.17 694.43 170.08
C 734.02 167.25 779.99 166.68 783.61 168.96
C 785.36 170.08 784.81 170.94 781.18 172.83
C 774.10 176.49 765.48 178.44 744.02 181.24
C 694.10 187.72 652.11 187.74 584.18 181.30
C 538.79 177.01 447.58 170.46 420.84 169.56
C 391.03 168.57 384.45 169.32 330.22 179.84
C 272.37 191.07 243.46 193.71 218.26 190.07
M 245.03 172.36
C 246.82 170.57 248.28 167.28 248.28 165.04
C 248.28 162.80 246.82 159.51 245.03 157.72
C 243.25 155.93 239.97 154.47 237.73 154.47
C 235.49 154.47 232.21 155.93 230.43 157.72
C 228.64 159.51 227.18 162.80 227.18 165.04
C 227.18 167.28 228.64 170.57 230.43 172.36
C 232.21 174.15 235.49 175.61 237.73 175.61
C 239.97 175.61 243.25 174.15 245.03 172.36
M 199.59 167.48
C 201.38 165.69 202.84 162.41 202.84 160.16
C 202.84 157.92 201.38 154.63 199.59 152.85
C 197.81 151.06 194.53 149.59 192.29 149.59
C 190.05 149.59 186.77 151.06 184.99 152.85
C 183.20 154.63 181.74 157.92 181.74 160.16
C 181.74 162.41 183.20 165.69 184.99 167.48
C 186.77 169.27 190.05 170.73 192.29 170.73
C 194.53 170.73 197.81 169.27 199.59 167.48
M 525.76 164.23
C 532.19 157.79 527.51 146.34 518.46 146.34
C 513.25 146.34 507.91 151.69 507.91 156.91
C 507.91 162.13 513.25 167.48 518.46 167.48
C 520.70 167.48 523.98 166.02 525.76 164.23
M 288.84 160.98
C 290.63 159.19 292.09 155.90 292.09 153.66
C 292.09 151.41 290.63 148.13 288.84 146.34
C 287.06 144.55 283.78 143.09 281.54 143.09
C 279.30 143.09 276.02 144.55 274.24 146.34
C 272.45 148.13 270.99 151.41 270.99 153.66
C 270.99 155.90 272.45 159.19 274.24 160.98
C 276.02 162.76 279.30 164.23 281.54 164.23
C 283.78 164.23 287.06 162.76 288.84 160.98
M 481.95 154.47
C 488.37 148.03 483.70 136.59 474.65 136.59
C 469.44 136.59 464.10 141.93 464.10 147.15
C 464.10 152.37 469.44 157.72 474.65 157.72
C 476.88 157.72 480.16 156.26 481.95 154.47
M 335.90 146.34
C 337.69 144.55 339.15 141.27 339.15 139.02
C 339.15 136.78 337.69 133.50 335.90 131.71
C 334.12 129.92 330.84 128.46 328.60 128.46
C 326.36 128.46 323.08 129.92 321.30 131.71
C 319.51 133.50 318.05 136.78 318.05 139.02
C 318.05 141.27 319.51 144.55 321.30 146.34
C 323.08 148.13 326.36 149.59 328.60 149.59
C 330.84 149.59 334.12 148.13 335.90 146.34
M 431.64 144.72
C 438.07 138.28 433.40 126.83 424.34 126.83
C 419.13 126.83 413.79 132.18 413.79 137.40
C 413.79 142.62 419.13 147.97 424.34 147.97
C 426.58 147.97 429.86 146.50 431.64 144.72
M 386.21 139.84
C 387.99 138.05 389.45 134.76 389.45 132.52
C 389.45 130.28 387.99 126.99 386.21 125.20
C 384.42 123.41 381.14 121.95 378.90 121.95
C 376.67 121.95 373.39 123.41 371.60 125.20
C 369.82 126.99 368.36 130.28 368.36 132.52
C 368.36 134.76 369.82 138.05 371.60 139.84
C 373.39 141.63 376.67 143.09 378.90 143.09
C 381.14 143.09 384.42 141.63 386.21 139.84
M 162.27 138.21
C 164.06 136.42 165.52 133.14 165.52 130.89
C 165.52 128.65 164.06 125.37 162.27 123.58
C 160.49 121.79 157.21 120.33 154.97 120.33
C 152.73 120.33 149.45 121.79 147.67 123.58
C 145.88 125.37 144.42 128.65 144.42 130.89
C 144.42 133.14 145.88 136.42 147.67 138.21
C 149.45 140.00 152.73 141.46 154.97 141.46
C 157.21 141.46 160.49 140.00 162.27 138.21
M 137.93 107.32
C 139.72 105.53 141.18 102.24 141.18 100.00
C 141.18 97.76 139.72 94.47 137.93 92.68
C 136.15 90.89 132.87 89.43 130.63 89.43
C 128.39 89.43 125.11 90.89 123.33 92.68
C 121.54 94.47 120.08 97.76 120.08 100.00
C 120.08 102.24 121.54 105.53 123.33 107.32
C 125.11 109.11 128.39 110.57 130.63 110.57
C 132.87 110.57 136.15 109.11 137.93 107.32
M 62.56 80.57
C 71.30 71.79 65.12 56.91 52.74 56.91
C 44.82 56.91 38.95 62.80 38.95 70.73
C 38.95 78.67 44.82 84.55 52.74 84.55
C 56.76 84.55 59.80 83.32 62.56 80.57"/>
<path fill="#eb2e00" stroke="none" d="
M 56.18 75.54
C 58.40 72.15 58.53 70.65 56.96 67.20
C 54.62 62.03 55.53 60.75 59.03 64.26
C 62.38 67.61 62.41 73.82 59.12 77.12
C 55.11 81.14 53.19 80.11 56.18 75.54"/>
<path fill="#762b17" stroke="none" d="
M 233.75 168.39
C 229.37 163.09 236.61 156.73 241.48 161.59
C 243.54 163.67 243.75 164.94 242.40 167.11
C 240.03 170.88 236.27 171.43 233.75 168.39"/>
<path fill="#762b17" stroke="none" d="
M 188.32 163.51
C 183.94 158.21 191.17 151.85 196.04 156.72
C 198.10 158.80 198.31 160.07 196.97 162.23
C 194.60 166.00 190.83 166.55 188.32 163.51"/>
<path fill="#762b17" stroke="none" d="
M 514.48 160.26
C 510.10 154.96 517.34 148.60 522.21 153.46
C 524.27 155.54 524.48 156.81 523.13 158.98
C 520.76 162.75 517.00 163.30 514.48 160.26"/>
<path fill="#762b17" stroke="none" d="
M 277.57 157.01
C 273.18 151.71 280.42 145.35 285.29 150.21
C 287.35 152.29 287.56 153.56 286.22 155.72
C 283.85 159.50 280.08 160.05 277.57 157.01"/>
<path fill="#762b17" stroke="none" d="
M 470.67 150.50
C 466.29 145.20 473.53 138.85 478.39 143.71
C 480.45 145.79 480.67 147.06 479.32 149.22
C 476.95 152.99 473.18 153.54 470.67 150.50"/>
<path fill="#762b17" stroke="none" d="
M 324.62 142.37
C 320.24 137.07 327.48 130.72 332.35 135.58
C 334.41 137.66 334.62 138.93 333.27 141.09
C 330.90 144.86 327.14 145.41 324.62 142.37"/>
<path fill="#762b17" stroke="none" d="
M 420.37 140.75
C 415.98 135.45 423.22 129.09 428.09 133.95
C 430.15 136.03 430.36 137.30 429.01 139.46
C 426.65 143.24 422.88 143.79 420.37 140.75"/>
<path fill="#762b17" stroke="none" d="
M 374.93 135.87
C 370.55 130.57 377.78 124.21 382.65 129.07
C 384.71 131.15 384.92 132.42 383.58 134.59
C 381.21 138.36 377.44 138.91 374.93 135.87"/>
<path fill="#762b17" stroke="none" d="
M 150.99 134.24
C 146.61 128.94 153.85 122.59 158.72 127.45
C 160.78 129.53 160.99 130.80 159.64 132.96
C 157.27 136.73 153.51 137.28 150.99 134.24"/>
<path fill="#762b17" stroke="none" d="
M 126.95 103.79
C 123.99 100.83 124.51 97.90 128.39 95.84
C 133.08 93.32 138.00 97.76 135.30 102.07
C 133.05 105.63 129.51 106.36 126.95 103.79"/>
</g>
</svg>
