<?xml version="1.0" encoding="UTF-8" standalone="no"?>
<!DOCTYPE svg PUBLIC "-//W3C//DTD SVG 1.1//EN"
"http://www.w3.org/Graphics/SVG/1.1/DTD/svg11.dtd">
<svg width="800px" height="164px"
xmlns="http://www.w3.org/2000/svg" version="1.1">
<g transform="translate(0000, 0000) scale(1.0000, 1.0000)">
<path fill="#000000" stroke="none" d="
M 215.01 162.28
C 201.67 160.48 183.63 155.28 174.49 150.62
C 163.12 144.81 155.73 137.70 139.44 116.80
C 121.90 94.31 111.38 83.75 103.04 80.28
C 98.58 78.40 95.11 78.31 84.19 79.79
C 67.68 82.00 40.96 80.78 29.78 77.27
C 16.29 73.05 6.26 65.37 2.58 56.43
C -0.47 49.02 -0.49 48.39 2.17 39.94
C 5.79 28.43 13.92 21.14 33.46 11.87
C 64.84 -3.00 86.10 -3.12 116.35 11.38
C 136.06 20.85 141.31 25.74 158.39 50.58
C 165.37 60.71 175.12 73.31 180.06 78.57
C 201.61 101.52 221.01 101.65 281.36 79.27
C 367.16 47.46 399.89 49.18 509.53 91.29
C 559.82 110.59 581.76 117.71 605.73 122.48
C 635.29 128.37 648.49 128.86 695.20 125.83
C 746.82 122.46 786.99 123.00 794.73 127.16
C 803.57 131.90 801.31 137.37 787.70 144.22
C 779.23 148.48 761.38 151.97 732.66 154.96
C 681.15 160.35 655.76 159.97 572.01 152.60
C 515.89 147.65 447.64 142.71 421.70 141.74
C 394.99 140.73 386.82 141.64 338.08 151.16
C 320.08 154.66 298.17 158.64 289.40 159.99
C 269.23 163.09 229.86 164.29 215.01 162.28
M 272.63 153.49
C 283.78 152.18 309.70 147.84 330.22 143.87
C 384.45 133.36 391.03 132.61 420.84 133.60
C 447.58 134.50 538.79 141.04 584.18 145.33
C 652.11 151.76 694.10 151.74 744.02 145.26
C 765.48 142.47 774.10 140.52 781.18 136.87
C 784.81 134.98 785.36 134.12 783.61 133.00
C 779.99 130.73 734.02 131.30 694.43 134.12
C 623.50 139.21 598.65 134.85 512.78 102.31
C 392.73 56.83 375.17 55.65 286.56 87.16
C 245.23 101.86 233.43 104.49 212.71 103.63
C 199.29 103.08 195.98 102.35 188.49 98.25
C 177.46 92.21 167.32 81.06 150.67 56.69
C 143.38 46.00 134.56 34.67 131.05 31.50
C 127.55 28.33 117.63 22.42 109.00 18.35
C 95.51 11.98 91.47 10.83 80.32 10.16
C 69.86 9.55 65.30 10.08 56.80 12.94
C 20.59 25.07 2.39 42.53 12.67 55.22
C 15.53 58.76 15.76 58.78 20.93 56.10
C 23.85 54.59 27.28 53.75 28.54 54.23
C 32.23 55.65 31.17 59.79 26.50 62.24
L 22.18 64.51
L 31.77 68.18
C 44.11 72.89 60.87 74.03 81.82 71.54
C 109.83 68.21 116.59 72.00 143.43 106.10
C 168.13 137.45 174.12 142.26 197.18 149.24
C 219.78 156.08 240.67 157.26 272.63 153.49"/>
<path fill="#000000" stroke="none" d="
M 230.43 136.40
C 228.64 134.61 227.18 131.33 227.18 129.09
C 227.18 126.85 228.64 123.57 230.43 121.78
C 232.21 120.00 235.49 118.53 237.73 118.53
C 239.97 118.53 243.25 120.00 245.03 121.78
C 246.82 123.57 248.28 126.85 248.28 129.09
C 248.28 131.33 246.82 134.61 245.03 136.40
C 243.25 138.18 239.97 139.64 237.73 139.64
C 235.49 139.64 232.21 138.18 230.43 136.40
M 242.40 131.15
C 243.75 128.99 243.54 127.73 241.48 125.65
C 236.61 120.79 229.37 127.14 233.75 132.43
C 236.27 135.47 240.03 134.92 242.40 131.15"/>
<path fill="#000000" stroke="none" d="
M 184.99 131.52
C 183.20 129.74 181.74 126.46 181.74 124.22
C 181.74 121.98 183.20 118.70 184.99 116.91
C 186.77 115.12 190.05 113.66 192.29 113.66
C 194.53 113.66 197.81 115.12 199.59 116.91
C 201.38 118.70 202.84 121.98 202.84 124.22
C 202.84 126.46 201.38 129.74 199.59 131.52
C 197.81 133.31 194.53 134.77 192.29 134.77
C 190.05 134.77 186.77 133.31 184.99 131.52
M 196.97 126.28
C 198.31 124.12 198.10 122.85 196.04 120.78
C 191.17 115.92 183.94 122.27 188.32 127.56
C 190.83 130.60 194.60 130.05 196.97 126.28"/>
<path fill="#000000" stroke="none" d="
M 511.16 128.28
C 504.73 121.85 509.40 110.42 518.46 110.42
C 523.67 110.42 529.01 115.76 529.01 120.97
C 529.01 126.18 523.67 131.52 518.46 131.52
C 516.22 131.52 512.94 130.06 511.16 128.28
M 523.13 123.03
C 524.48 120.87 524.27 119.61 522.21 117.53
C 517.34 112.67 510.10 119.02 514.48 124.32
C 517.00 127.35 520.76 126.80 523.13 123.03"/>
<path fill="#000000" stroke="none" d="
M 274.24 125.03
C 272.45 123.24 270.99 119.96 270.99 117.72
C 270.99 115.48 272.45 112.20 274.24 110.42
C 276.02 108.63 279.30 107.17 281.54 107.17
C 283.78 107.17 287.06 108.63 288.84 110.42
C 290.63 112.20 292.09 115.48 292.09 117.72
C 292.09 119.96 290.63 123.24 288.84 125.03
C 287.06 126.82 283.78 128.28 281.54 128.28
C 279.30 128.28 276.02 126.82 274.24 125.03
M 286.22 119.78
C 287.56 117.63 287.35 116.36 285.29 114.28
C 280.42 109.43 273.18 115.77 277.57 121.07
C 280.08 124.10 283.85 123.55 286.22 119.78"/>
<path fill="#000000" stroke="none" d="
M 467.34 118.53
C 460.92 112.10 465.59 100.67 474.65 100.67
C 479.85 100.67 485.19 106.02 485.19 111.23
C 485.19 116.44 479.85 121.78 474.65 121.78
C 472.41 121.78 469.13 120.32 467.34 118.53
M 479.32 113.29
C 480.67 111.13 480.45 109.86 478.39 107.79
C 473.53 102.93 466.29 109.28 470.67 114.57
C 473.18 117.61 476.95 117.06 479.32 113.29"/>
<path fill="#000000" stroke="none" d="
M 321.30 110.42
C 319.51 108.63 318.05 105.35 318.05 103.11
C 318.05 100.87 319.51 97.59 321.30 95.80
C 323.08 94.02 326.36 92.55 328.60 92.55
C 330.84 92.55 334.12 94.02 335.90 95.80
C 337.69 97.59 339.15 100.87 339.15 103.11
C 339.15 105.35 337.69 108.63 335.90 110.42
C 334.12 112.20 330.84 113.66 328.60 113.66
C 326.36 113.66 323.08 112.20 321.30 110.42
M 333.27 105.17
C 334.62 103.01 334.41 101.74 332.35 99.67
C 327.48 94.81 320.24 101.16 324.62 106.45
C 327.14 109.49 330.90 108.94 333.27 105.17"/>
<path fill="#000000" stroke="none" d="
M 417.04 108.79
C 410.61 102.36 415.29 90.93 424.34 90.93
C 429.55 90.93 434.89 96.27 434.89 101.49
C 434.89 106.70 429.55 112.04 424.34 112.04
C 422.10 112.04 418.82 110.58 417.04 108.79
M 429.01 103.55
C 430.36 101.39 430.15 100.12 428.09 98.04
C 423.22 93.19 415.98 99.54 420.37 104.83
C 422.88 107.87 426.65 107.31 429.01 103.55"/>
<path fill="#000000" stroke="none" d="
M 371.60 103.92
C 369.82 102.13 368.36 98.85 368.36 96.61
C 368.36 94.37 369.82 91.09 371.60 89.31
C 373.39 87.52 376.67 86.06 378.90 86.06
C 381.14 86.06 384.42 87.52 386.21 89.31
C 387.99 91.09 389.45 94.37 389.45 96.61
C 389.45 98.85 387.99 102.13 386.21 103.92
C 384.42 105.71 381.14 107.17 378.90 107.17
C 376.67 107.17 373.39 105.71 371.60 103.92
M 383.58 98.68
C 384.92 96.52 384.71 95.25 382.65 93.17
C 377.78 88.32 370.55 94.67 374.93 99.96
C 377.44 103.00 381.21 102.44 383.58 98.68"/>
<path fill="#000000" stroke="none" d="
M 147.67 102.30
C 145.88 100.51 144.42 97.23 144.42 94.99
C 144.42 92.75 145.88 89.47 147.67 87.68
C 149.45 85.90 152.73 84.44 154.97 84.44
C 157.21 84.44 160.49 85.90 162.27 87.68
C 164.06 89.47 165.52 92.75 165.52 94.99
C 165.52 97.23 164.06 100.51 162.27 102.30
C 160.49 104.08 157.21 105.54 154.97 105.54
C 152.73 105.54 149.45 104.08 147.67 102.30
M 159.64 97.05
C 160.99 94.89 160.78 93.63 158.72 91.55
C 153.85 86.69 146.61 93.04 150.99 98.34
C 153.51 101.37 157.27 100.82 159.64 97.05"/>
<path fill="#000000" stroke="none" d="
M 123.33 71.45
C 121.54 69.66 120.08 66.38 120.08 64.14
C 120.08 61.90 121.54 58.62 123.33 56.83
C 125.11 55.05 128.39 53.58 130.63 53.58
C 132.87 53.58 136.15 55.05 137.93 56.83
C 139.72 58.62 141.18 61.90 141.18 64.14
C 141.18 66.38 139.72 69.66 137.93 71.45
C 136.15 73.23 132.87 74.69 130.63 74.69
C 128.39 74.69 125.11 73.23 123.33 71.45
M 135.30 66.20
C 136.65 64.04 136.44 62.77 134.38 60.70
C 129.51 55.84 122.27 62.19 126.65 67.48
C 129.17 70.52 132.93 69.97 135.30 66.20"/>
<path fill="#000000" stroke="none" d="
M 42.92 44.73
C 34.17 35.97 40.36 21.11 52.74 21.11
C 60.66 21.11 66.53 26.99 66.53 34.91
C 66.53 42.83 60.66 48.71 52.74 48.71
C 48.71 48.71 45.68 47.48 42.92 44.73
M 59.12 41.29
C 60.51 39.88 61.66 37.02 61.66 34.91
C 61.66 31.13 57.90 25.98 55.14 25.98
C 54.34 25.98 54.91 28.07 56.37 30.66
C 58.87 35.01 58.87 35.61 56.26 39.59
C 53.21 44.25 55.06 45.35 59.12 41.29"/>
<path fill="#fca022" stroke="none" d="
M 218.26 154.08
C 206.41 152.37 188.04 146.93 179.67 142.66
C 170.03 137.74 161.87 129.51 143.43 106.10
C 116.59 72.00 109.83 68.21 81.82 71.54
C 60.87 74.03 44.11 72.89 31.77 68.18
L 22.18 64.51
L 26.50 62.24
C 31.17 59.79 32.23 55.65 28.54 54.23
C 27.28 53.75 23.85 54.59 20.93 56.10
C 15.76 58.78 15.53 58.76 12.67 55.22
C 4.12 44.67 16.15 29.47 41.43 18.88
C 70.18 6.84 84.19 6.72 109.00 18.38
C 117.63 22.44 127.55 28.33 131.05 31.50
C 134.56 34.67 143.38 46.00 150.67 56.69
C 167.32 81.06 177.46 92.21 188.49 98.25
C 195.98 102.35 199.29 103.08 212.71 103.63
C 233.43 104.49 245.23 101.86 286.56 87.16
C 375.17 55.65 392.73 56.83 512.78 102.31
C 598.65 134.85 623.50 139.21 694.43 134.12
C 734.02 131.30 779.99 130.73 783.61 133.00
C 785.36 134.12 784.81 134.98 781.18 136.87
C 774.10 140.52 765.48 142.47 744.02 145.26
C 694.10 151.74 652.11 151.76 584.18 145.33
C 538.79 141.04 447.58 134.50 420.84 133.60
C 391.03 132.61 384.45 133.36 330.22 143.87
C 272.37 155.09 243.46 157.72 218.26 154.08
M 245.03 136.40
C 246.82 134.61 248.28 131.33 248.28 129.09
C 248.28 126.85 246.82 123.57 245.03 121.78
C 243.25 120.00 239.97 118.53 237.73 118.53
C 235.49 118.53 232.21 120.00 230.43 121.78
C 228.64 123.57 227.18 126.85 227.18 129.09
C 227.18 131.33 228.64 134.61 230.43 136.40
C 232.21 138.18 235.49 139.64 237.73 139.64
C 239.97 139.64 243.25 138.18 245.03 136.40
M 199.59 131.52
C 201.38 129.74 202.84 126.46 202.84 124.22
C 202.84 121.98 201.38 118.70 199.59 116.91
C 197.81 115.12 194.53 113.66 192.29 113.66
C 190.05 113.66 186.77 115.12 184.99 116.91
C 183.20 118.70 181.74 121.98 181.74 124.22
C 181.74 126.46 183.20 129.74 184.99 131.52
C 186.77 133.31 190.05 134.77 192.29 134.77
C 194.53 134.77 197.81 133.31 199.59 131.52
M 525.76 128.28
C 532.19 121.85 527.51 110.42 518.46 110.42
C 513.25 110.42 507.91 115.76 507.91 120.97
C 507.91 126.18 513.25 131.52 518.46 131.52
C 520.70 131.52 523.98 130.06 525.76 128.28
M 288.84 125.03
C 290.63 123.24 292.09 119.96 292.09 117.72
C 292.09 115.48 290.63 112.20 288.84 110.42
C 287.06 108.63 283.78 107.17 281.54 107.17
C 279.30 107.17 276.02 108.63 274.24 110.42
C 272.45 112.20 270.99 115.48 270.99 117.72
C 270.99 119.96 272.45 123.24 274.24 125.03
C 276.02 126.82 279.30 128.28 281.54 128.28
C 283.78 128.28 287.06 126.82 288.84 125.03
M 481.95 118.53
C 488.37 112.10 483.70 100.67 474.65 100.67
C 469.44 100.67 464.10 106.02 464.10 111.23
C 464.10 116.44 469.44 121.78 474.65 121.78
C 476.88 121.78 480.16 120.32 481.95 118.53
M 335.90 110.42
C 337.69 108.63 339.15 105.35 339.15 103.11
C 339.15 100.87 337.69 97.59 335.90 95.80
C 334.12 94.02 330.84 92.55 328.60 92.55
C 326.36 92.55 323.08 94.02 321.30 95.80
C 319.51 97.59 318.05 100.87 318.05 103.11
C 318.05 105.35 319.51 108.63 321.30 110.42
C 323.08 112.20 326.36 113.66 328.60 113.66
C 330.84 113.66 334.12 112.20 335.90 110.42
M 431.64 108.79
C 438.07 102.36 433.40 90.93 424.34 90.93
C 419.13 90.93 413.79 96.27 413.79 101.49
C 413.79 106.70 419.13 112.04 424.34 112.04
C 426.58 112.04 429.86 110.58 431.64 108.79
M 386.21 103.92
C 387.99 102.13 389.45 98.85 389.45 96.61
C 389.45 94.37 387.99 91.09 386.21 89.31
C 384.42 87.52 381.14 86.06 378.90 86.06
C 376.67 86.06 373.39 87.52 371.60 89.31
C 369.82 91.09 368.36 94.37 368.36 96.61
C 368.36 98.85 369.82 102.13 371.60 103.92
C 373.39 105.71 376.67 107.17 378.90 107.17
C 381.14 107.17 384.42 105.71 386.21 103.92
M 162.27 102.30
C 164.06 100.51 165.52 97.23 165.52 94.99
C 165.52 92.75 164.06 89.47 162.27 87.68
C 160.49 85.90 157.21 84.44 154.97 84.44
C 152.73 84.44 149.45 85.90 147.67 87.68
C 145.88 89.47 144.42 92.75 144.42 94.99
C 144.42 97.23 145.88 100.51 147.67 102.30
C 149.45 104.08 152.73 105.54 154.97 105.54
C 157.21 105.54 160.49 104.08 162.27 102.30
M 137.93 71.45
C 139.72 69.66 141.18 66.38 141.18 64.14
C 141.18 61.90 139.72 58.62 137.93 56.83
C 136.15 55.05 132.87 53.58 130.63 53.58
C 128.39 53.58 125.11 55.05 123.33 56.83
C 121.54 58.62 120.08 61.90 120.08 64.14
C 120.08 66.38 121.54 69.66 123.33 71.45
C 125.11 73.23 128.39 74.69 130.63 74.69
C 132.87 74.69 136.15 73.23 137.93 71.45
M 62.56 44.73
C 71.30 35.97 65.12 21.11 52.74 21.11
C 44.82 21.11 38.95 26.99 38.95 34.91
C 38.95 42.83 44.82 48.71 52.74 48.71
C 56.76 48.71 59.80 47.48 62.56 44.73"/>
<path fill="#eb2e00" stroke="none" d="
M 56.18 39.72
C 58.40 36.32 58.53 34.83 56.96 31.39
C 54.62 26.22 55.53 24.94 59.03 28.45
C 62.38 31.79 62.41 38.00 59.12 41.29
C 55.11 45.30 53.19 44.28 56.18 39.72"/>
<path fill="#762b17" stroke="none" d="
M 233.75 132.43
C 229.37 127.14 236.61 120.79 241.48 125.65
C 243.54 127.73 243.75 128.99 242.40 131.15
C 240.03 134.92 236.27 135.47 233.75 132.43"/>
<path fill="#762b17" stroke="none" d="
M 188.32 127.56
C 183.94 122.27 191.17 115.92 196.04 120.78
C 198.10 122.85 198.31 124.12 196.97 126.28
C 194.60 130.05 190.83 130.60 188.32 127.56"/>
<path fill="#762b17" stroke="none" d="
M 514.48 124.32
C 510.10 119.02 517.34 112.67 522.21 117.53
C 524.27 119.61 524.48 120.87 523.13 123.03
C 520.76 126.80 517.00 127.35 514.48 124.32"/>
<path fill="#762b17" stroke="none" d="
M 277.57 121.07
C 273.18 115.77 280.42 109.43 285.29 114.28
C 287.35 116.36 287.56 117.63 286.22 119.78
C 283.85 123.55 280.08 124.10 277.57 121.07"/>
<path fill="#762b17" stroke="none" d="
M 470.67 114.57
C 466.29 109.28 473.53 102.93 478.39 107.79
C 480.45 109.86 480.67 111.13 479.32 113.29
C 476.95 117.06 473.18 117.61 470.67 114.57"/>
<path fill="#762b17" stroke="none" d="
M 324.62 106.45
C 320.24 101.16 327.48 94.81 332.35 99.67
C 334.41 101.74 334.62 103.01 333.27 105.17
C 330.90 108.94 327.14 109.49 324.62 106.45"/>
<path fill="#762b17" stroke="none" d="
M 420.37 104.83
C 415.98 99.54 423.22 93.19 428.09 98.04
C 430.15 100.12 430.36 101.39 429.01 103.55
C 426.65 107.31 422.88 107.87 420.37 104.83"/>
<path fill="#762b17" stroke="none" d="
M 374.93 99.96
C 370.55 94.67 377.78 88.32 382.65 93.17
C 384.71 95.25 384.92 96.52 383.58 98.68
C 381.21 102.44 377.44 103.00 374.93 99.96"/>
<path fill="#762b17" stroke="none" d="
M 150.99 98.34
C 146.61 93.04 153.85 86.69 158.72 91.55
C 160.78 93.63 160.99 94.89 159.64 97.05
C 157.27 100.82 153.51 101.37 150.99 98.34"/>
<path fill="#762b17" stroke="none" d="
M 126.95 67.92
C 123.99 64.97 124.51 62.04 128.39 59.98
C 133.08 57.46 138.00 61.90 135.30 66.20
C 133.05 69.76 129.51 70.49 126.95 67.92"/>
</g>
</svg>
