<?xml version="1.0" encoding="UTF-8" standalone="no"?>
<!DOCTYPE svg PUBLIC "-//W3C//DTD SVG 1.1//EN"
"http://www.w3.org/Graphics/SVG/1.1/DTD/svg11.dtd">
<svg width="600px" height="600px"
xmlns="http://www.w3.org/2000/svg" version="1.1">
<g transform="translate(0000, 0000) scale(1.0000, 1.0000)">
<path fill="#000000" stroke="none" d="
M 251.49 597.17
C 157.51 583.63 72.18 521.23 30.66 435.68
C -27.91 315.01 -2.17 168.69 93.37 79.48
C 149.90 26.68 219.80 0.00 301.66 0.00
C 419.31 0.00 523.05 64.90 571.84 169.00
C 610.77 252.13 609.86 352.24 569.34 435.68
C 527.23 522.43 442.34 583.89 346.14 597.27
C 323.36 600.43 273.75 600.38 251.49 597.17
M 333.37 584.50
C 396.26 575.74 459.14 543.93 504.18 498.08
L 519.42 482.55
L 300.00 482.55
L 80.58 482.55
L 95.82 498.08
C 148.60 551.82 224.99 585.63 296.63 586.93
C 306.00 587.11 322.52 586.01 333.37 584.50
M 535.86 459.60
C 547.71 443.26 563.41 411.24 571.69 386.66
L 579.34 363.83
L 440.50 363.17
C 364.14 362.81 238.44 362.81 161.16 363.17
L 20.66 363.83
L 28.31 386.66
C 36.59 411.24 52.29 443.26 64.14 459.60
L 71.51 469.79
L 300.00 469.79
L 528.49 469.79
L 535.86 459.60
M 583.84 340.21
C 586.47 327.37 586.47 278.04 583.86 259.79
L 581.77 245.11
L 300.00 245.11
L 18.23 245.11
L 16.14 259.79
C 13.53 278.04 13.53 327.37 16.16 340.21
L 18.10 349.79
L 300.00 349.79
L 581.90 349.79
L 583.84 340.21
M 577.02 229.94
C 577.02 225.29 563.54 190.06 555.96 174.89
C 551.74 166.47 543.60 152.40 537.86 143.62
L 527.44 127.66
L 300.00 127.66
L 72.56 127.66
L 62.14 143.62
C 56.40 152.40 48.26 166.47 44.04 174.89
C 36.46 190.06 22.98 225.29 22.98 229.94
C 22.98 231.42 128.73 232.34 300.00 232.34
C 471.27 232.34 577.02 231.42 577.02 229.94
M 501.60 99.37
C 457.53 54.26 391.48 22.42 325.97 14.73
C 249.09 5.69 156.10 40.29 98.40 99.37
L 85.74 112.34
L 300.00 112.34
L 514.26 112.34
L 501.60 99.37"/>
<path fill="#c6493d" stroke="none" d="
M 264.26 584.40
C 203.87 575.69 139.81 542.86 95.82 498.08
L 80.58 482.55
L 300.00 482.55
L 519.42 482.55
L 504.18 498.08
C 440.76 562.65 347.13 596.35 264.26 584.40"/>
<path fill="#c6493d" stroke="none" d="
M 64.14 459.60
C 52.29 443.26 36.59 411.24 28.31 386.66
L 20.66 363.83
L 161.16 363.17
C 238.44 362.81 364.14 362.81 440.50 363.17
L 579.34 363.83
L 571.69 386.66
C 563.41 411.24 547.71 443.26 535.86 459.60
L 528.49 469.79
L 300.00 469.79
L 71.51 469.79
L 64.14 459.60"/>
<path fill="#c6493d" stroke="none" d="
M 16.16 340.21
C 13.53 327.37 13.53 278.04 16.14 259.79
L 18.23 245.11
L 300.00 245.11
L 581.77 245.11
L 583.86 259.79
C 586.47 278.04 586.47 327.37 583.84 340.21
L 581.90 349.79
L 300.00 349.79
L 18.10 349.79
L 16.16 340.21"/>
<path fill="#c6493d" stroke="none" d="
M 22.98 229.94
C 22.98 225.29 36.46 190.06 44.04 174.89
C 48.26 166.47 56.40 152.40 62.14 143.62
L 72.56 127.66
L 300.00 127.66
L 527.44 127.66
L 537.86 143.62
C 543.60 152.40 551.74 166.47 555.96 174.89
C 563.54 190.06 577.02 225.29 577.02 229.94
C 577.02 231.42 471.27 232.34 300.00 232.34
C 128.73 232.34 22.98 231.42 22.98 229.94"/>
<path fill="#c6493d" stroke="none" d="
M 98.40 99.37
C 156.13 40.26 249.22 5.72 326.37 14.78
C 391.46 22.42 457.66 54.36 501.60 99.37
L 514.26 112.34
L 300.00 112.34
L 85.74 112.34
L 98.40 99.37"/>
</g>
</svg>
