<?xml version="1.0" encoding="UTF-8" standalone="no"?>
<!DOCTYPE svg PUBLIC "-//W3C//DTD SVG 1.1//EN"
"http://www.w3.org/Graphics/SVG/1.1/DTD/svg11.dtd">
<svg width="800px" height="159px"
xmlns="http://www.w3.org/2000/svg" version="1.1">
<g transform="translate(0000, 0000) scale(1.0000, 1.0000)">
<path fill="#000000" stroke="none" d="
M 759.68 157.13
C 732.11 154.98 194.90 121.02 95.97 115.18
C 48.95 112.40 8.87 109.81 6.90 109.40
C -0.50 107.88 -0.61 104.92 4.85 55.42
C 7.68 29.85 10.60 7.32 11.37 5.35
C 12.26 3.05 14.63 1.46 18.06 0.84
C 21.63 0.21 90.89 12.80 226.61 38.78
C 338.39 60.16 511.48 93.08 611.29 111.92
C 711.10 130.75 794.42 146.86 796.48 147.72
C 799.32 148.92 800.10 150.35 799.71 153.74
C 799.21 158.06 798.89 158.19 788.71 158.38
C 782.95 158.50 769.87 157.93 759.68 157.13
M 702.42 140.72
C 641.58 128.06 22.98 12.12 21.85 13.17
C 21.02 13.95 18.29 32.61 15.77 54.66
C 11.87 88.89 11.53 95.04 13.45 96.97
C 15.21 98.74 89.00 103.92 353.42 120.81
C 539.16 132.67 695.48 142.37 700.81 142.39
L 710.48 142.39
L 702.42 140.72"/>
<path fill="#f8ae2e" stroke="none" d="
M 353.42 120.81
C 88.58 103.89 15.23 98.74 13.45 96.97
C 11.53 95.04 11.79 89.33 15.34 57.50
C 20.50 10.97 20.06 12.98 25.15 12.98
C 28.56 12.98 684.06 136.59 704.03 141.01
C 710.26 142.39 710.16 142.43 700.81 142.40
C 695.48 142.39 539.16 132.67 353.42 120.81"/>
</g>
</svg>
