<?xml version="1.0" encoding="UTF-8" standalone="no"?>
<!DOCTYPE svg PUBLIC "-//W3C//DTD SVG 1.1//EN"
"http://www.w3.org/Graphics/SVG/1.1/DTD/svg11.dtd">
<svg width="800px" height="151px"
xmlns="http://www.w3.org/2000/svg" version="1.1">
<g transform="translate(0000, 0000) scale(1.0000, 1.0000)">
<path fill="#000000" stroke="none" d="
M 3.95 147.03
C 0.16 143.21 0.00 140.41 0.00 75.88
C 0.00 21.00 0.51 8.01 2.80 4.85
C 5.57 1.05 12.17 0.99 398.83 0.48
C 790.26 -0.02 792.08 -0.02 796.03 3.95
C 799.84 7.79 800.00 10.51 800.00 75.50
C 800.00 140.41 799.84 143.21 796.05 147.03
C 792.12 150.98 789.47 151.00 400.00 151.00
C 10.53 151.00 7.88 150.98 3.95 147.03
M 785.78 136.69
C 789.16 133.30 789.16 15.72 785.78 12.32
C 782.32 8.84 17.68 8.84 14.22 12.32
C 10.84 15.72 10.84 133.30 14.22 136.69
C 17.68 140.17 782.32 140.17 785.78 136.69"/>
<path fill="#c57a36" stroke="none" d="
M 14.22 136.69
C 12.48 134.95 11.85 118.30 11.85 74.19
C 11.85 16.77 12.03 13.95 15.66 12.00
C 21.55 8.82 782.62 9.14 785.78 12.32
C 789.16 15.72 789.16 133.30 785.78 136.69
C 782.32 140.17 17.68 140.17 14.22 136.69"/>
</g>
</svg>
