<?xml version="1.0" encoding="UTF-8" standalone="no"?>
<!DOCTYPE svg PUBLIC "-//W3C//DTD SVG 1.1//EN"
"http://www.w3.org/Graphics/SVG/1.1/DTD/svg11.dtd">
<svg width="600px" height="324px"
xmlns="http://www.w3.org/2000/svg" version="1.1">
<g transform="translate(0000, 0000) scale(1.0000, 1.0000)">
<path fill="#000000" stroke="none" d="
M 2.26 321.73
C 0.07 319.54 0.00 317.96 0.00 265.66
C 0.00 213.35 0.07 211.78 2.26 209.58
C 4.50 207.34 6.02 207.31 137.76 207.31
L 271.01 207.31
L 276.01 197.97
C 284.66 181.85 288.41 175.08 289.71 173.33
C 291.03 171.54 291.69 170.37 296.56 161.35
C 298.23 158.28 300.62 153.99 301.89 151.80
C 303.14 149.62 305.25 145.80 306.58 143.31
C 307.89 140.82 309.55 138.02 310.26 137.08
C 310.96 136.14 313.34 132.05 315.55 127.97
C 317.75 123.90 321.13 117.89 323.05 114.61
C 324.98 111.34 326.55 108.42 326.55 108.11
C 326.55 107.81 327.86 105.59 329.46 103.17
L 332.36 98.77
L 330.20 94.42
C 329.03 92.02 327.13 84.85 325.99 78.47
C 324.17 68.27 324.10 65.91 325.39 58.66
C 328.67 40.26 334.06 29.00 345.31 17.04
C 354.03 7.76 360.45 4.19 372.88 1.68
C 392.31 -2.25 406.58 2.08 412.49 13.71
C 415.15 18.94 418.08 32.23 418.08 39.07
C 418.08 47.08 413.65 64.52 409.36 73.36
C 405.11 82.13 393.74 95.52 386.99 99.70
C 378.95 104.69 369.14 107.84 360.47 108.21
C 351.10 108.62 349.83 109.51 344.75 119.37
C 343.41 121.94 341.10 126.09 339.59 128.58
C 338.10 131.07 335.48 135.66 333.77 138.78
C 328.28 148.84 327.60 150.04 324.81 154.64
C 323.30 157.13 321.21 160.95 320.16 163.13
C 319.12 165.32 317.66 167.87 316.92 168.80
C 316.18 169.73 313.66 174.07 311.32 178.43
C 308.98 182.79 306.66 186.88 306.15 187.51
C 305.65 188.16 303.76 191.48 301.97 194.90
C 300.17 198.32 297.80 202.51 296.68 204.21
L 294.66 207.31
L 445.06 207.31
C 593.98 207.31 595.50 207.34 597.74 209.58
C 599.93 211.78 600.00 213.35 600.00 265.66
C 600.00 317.96 599.93 319.54 597.74 321.73
C 595.49 323.99 593.98 324.00 300.00 324.00
C 6.02 324.00 4.51 323.99 2.26 321.73
M 590.73 315.84
C 592.69 313.88 592.69 218.56 590.73 216.60
C 588.76 214.62 11.24 214.62 9.27 216.60
C 7.31 218.56 7.31 313.88 9.27 315.84
C 11.24 317.83 588.76 317.83 590.73 315.84
M 291.79 200.23
C 293.83 196.96 296.24 192.76 297.14 190.89
C 298.05 189.02 299.63 186.22 300.66 184.66
C 301.68 183.09 304.44 178.26 306.79 173.90
C 309.13 169.53 311.66 165.19 312.40 164.27
C 313.14 163.34 314.60 160.79 315.64 158.60
C 316.69 156.41 318.78 152.60 320.29 150.10
C 323.08 145.51 323.76 144.30 329.25 134.24
C 330.96 131.13 333.58 126.54 335.07 124.05
C 336.58 121.56 338.96 117.27 340.37 114.52
C 341.79 111.78 344.28 108.09 345.93 106.31
C 348.62 103.42 349.66 103.09 356.20 103.09
C 364.12 103.09 373.64 100.33 381.41 95.75
C 388.77 91.43 400.29 78.19 404.85 68.83
C 414.84 48.31 414.54 23.90 404.18 12.61
C 396.63 4.38 376.14 3.66 362.32 11.11
C 354.38 15.41 342.38 28.80 337.56 38.73
C 333.10 47.94 329.94 59.46 329.94 66.56
C 329.94 73.22 332.92 86.51 335.58 91.74
C 338.66 97.78 338.45 100.58 334.46 106.87
C 332.60 109.82 331.07 112.45 331.07 112.71
C 331.07 112.97 329.50 115.87 327.57 119.14
C 325.65 122.42 322.27 128.43 320.07 132.50
C 317.86 136.58 315.50 140.67 314.81 141.61
C 313.49 143.40 312.82 144.57 307.95 153.58
C 306.29 156.65 303.90 160.95 302.63 163.13
C 301.38 165.32 299.27 169.14 297.94 171.63
C 296.63 174.12 294.97 176.93 294.26 177.86
C 293.56 178.79 291.18 182.88 288.97 186.92
C 286.78 190.97 283.66 196.59 282.05 199.38
C 280.44 202.18 279.12 204.87 279.11 205.33
C 279.11 205.80 281.12 206.18 283.58 206.18
C 287.76 206.18 288.32 205.79 291.79 200.23"/>
<path fill="#000000" stroke="none" d="
M 351.98 93.34
C 344.56 89.29 340.73 83.89 337.95 73.61
C 336.76 69.15 336.88 67.38 338.90 60.02
C 342.33 47.52 347.56 38.12 356.23 28.80
C 373.97 9.77 392.63 8.34 401.33 25.35
C 408.54 39.45 402.31 61.47 386.19 78.77
C 374.20 91.64 359.97 97.71 351.98 93.34
M 366.99 86.04
C 376.35 81.35 388.08 68.71 393.75 57.20
C 399.39 45.77 400.24 36.89 396.41 29.47
C 393.46 23.74 387.62 19.26 383.11 19.26
C 377.72 19.26 368.76 24.79 361.28 32.74
C 352.86 41.69 348.06 49.64 344.66 60.23
C 341.92 68.77 342.52 73.56 347.20 80.52
C 349.83 84.44 356.34 89.50 358.75 89.50
C 359.48 89.50 363.20 87.94 366.99 86.04"/>
<path fill="#f1aa2f" stroke="none" d="
M 279.11 205.33
C 279.12 204.87 280.44 202.18 282.05 199.38
C 283.66 196.59 286.78 190.97 288.97 186.92
C 291.18 182.88 293.56 178.79 294.26 177.86
C 294.97 176.93 296.63 174.12 297.94 171.63
C 299.27 169.14 301.38 165.32 302.63 163.13
C 303.90 160.95 306.29 156.65 307.95 153.58
C 312.82 144.57 313.49 143.40 314.81 141.61
C 315.50 140.67 317.86 136.58 320.07 132.50
C 322.27 128.43 325.65 122.42 327.57 119.14
C 329.50 115.87 331.07 112.97 331.07 112.71
C 331.07 112.45 332.60 109.82 334.46 106.87
C 338.45 100.58 338.66 97.78 335.58 91.74
C 332.92 86.51 329.94 73.22 329.94 66.56
C 329.94 59.46 333.10 47.94 337.56 38.73
C 342.37 28.81 354.36 15.42 362.32 11.10
C 372.37 5.63 388.82 4.43 398.31 8.46
C 413.64 14.99 416.81 44.24 404.85 68.83
C 400.29 78.19 388.77 91.43 381.41 95.75
C 373.64 100.33 364.12 103.09 356.20 103.09
C 349.66 103.09 348.62 103.42 345.93 106.31
C 344.28 108.09 341.79 111.78 340.37 114.52
C 338.96 117.27 336.58 121.56 335.07 124.05
C 333.58 126.54 330.96 131.13 329.25 134.24
C 323.76 144.30 323.08 145.51 320.29 150.10
C 318.78 152.60 316.69 156.41 315.64 158.60
C 314.60 160.79 313.14 163.34 312.40 164.27
C 311.66 165.19 309.13 169.53 306.79 173.90
C 304.44 178.26 301.68 183.09 300.66 184.66
C 299.63 186.22 298.05 189.02 297.14 190.89
C 296.24 192.76 293.83 196.96 291.79 200.23
C 288.32 205.79 287.76 206.18 283.58 206.18
C 281.12 206.18 279.11 205.80 279.11 205.33
M 371.23 90.69
C 385.11 83.84 399.57 64.54 403.41 47.73
C 406.70 33.37 401.02 18.76 390.60 14.81
C 380.49 10.95 368.19 15.96 356.23 28.80
C 347.56 38.12 342.33 47.52 338.90 60.02
C 336.88 67.38 336.76 69.15 337.95 73.61
C 340.73 83.89 344.56 89.29 351.98 93.34
C 356.54 95.84 362.45 95.02 371.23 90.69"/>
<path fill="#c57a36" stroke="none" d="
M 9.27 315.84
C 8.25 314.82 7.91 302.20 7.91 266.04
C 7.91 219.30 7.99 217.54 10.09 216.42
C 13.47 214.61 588.93 214.79 590.73 216.60
C 592.69 218.56 592.69 313.88 590.73 315.84
C 588.76 317.83 11.24 317.83 9.27 315.84"/>
</g>
</svg>
