<?xml version="1.0" encoding="UTF-8" standalone="no"?>
<!DOCTYPE svg PUBLIC "-//W3C//DTD SVG 1.1//EN"
"http://www.w3.org/Graphics/SVG/1.1/DTD/svg11.dtd">
<svg width="487px" height="600px"
xmlns="http://www.w3.org/2000/svg" version="1.1">
<g transform="translate(0000, 0000) scale(1.0000, 1.0000)">
<path fill="#000000" stroke="none" d="
M 56.63 596.77
C 53.44 593.58 53.39 591.38 53.39 450.52
L 53.39 307.50
L 44.54 305.68
C 31.03 302.86 16.70 295.02 11.18 287.42
C 1.70 274.33 -1.80 254.02 2.28 235.71
C 7.28 213.28 17.85 202.12 40.14 195.67
L 52.91 191.98
L 53.93 169.99
C 54.59 155.48 56.32 141.91 59.01 130.19
C 77.81 48.15 155.26 -4.43 249.97 0.55
C 325.37 4.51 385.96 43.47 415.83 107.19
C 424.69 126.11 427.15 137.74 428.25 165.91
L 429.21 190.30
L 445.24 197.27
C 454.06 201.11 464.45 206.68 468.35 209.64
C 476.35 215.76 482.45 227.00 485.51 241.29
C 487.21 249.22 487.08 251.92 484.62 260.70
C 480.67 274.80 477.21 280.96 468.22 289.92
C 462.00 296.09 457.28 298.85 444.61 303.67
L 428.75 309.70
L 428.75 451.62
C 428.75 591.38 428.71 593.58 425.52 596.77
C 422.31 599.97 420.13 600.00 241.07 600.00
C 62.02 600.00 59.83 599.97 56.63 596.77
M 415.86 591.87
C 419.14 588.58 419.16 587.98 418.63 367.47
C 418.04 118.69 419.21 141.04 405.31 112.40
C 360.17 19.28 241.98 -17.63 149.14 32.43
C 101.80 57.93 72.50 100.90 64.83 156.02
C 63.68 164.30 63.10 238.40 63.10 378.55
C 63.10 586.53 63.13 588.71 66.34 591.91
C 69.52 595.10 71.72 595.15 241.07 595.15
C 411.36 595.15 412.59 595.13 415.86 591.87
M 453.54 290.47
C 465.22 282.24 471.84 273.27 475.66 260.41
L 479.04 249.06
L 475.64 237.64
C 470.64 220.87 461.74 212.77 438.66 204.00
L 430.37 200.85
L 430.37 206.86
C 430.37 212.62 430.76 213.04 439.06 216.49
C 455.06 223.12 467.46 237.30 467.55 249.14
C 467.60 255.56 460.00 269.26 452.73 275.81
C 449.12 279.07 442.62 283.21 438.27 285.02
C 431.10 288.00 430.37 288.79 430.37 293.60
L 430.37 298.90
L 440.19 295.92
C 445.58 294.29 451.60 291.83 453.54 290.47
M 51.77 293.01
C 51.77 289.04 50.67 288.02 42.96 284.81
C 31.78 280.17 23.74 271.36 20.05 259.70
C 17.33 251.08 17.33 250.27 20.08 241.58
C 23.62 230.33 32.54 220.32 43.60 215.13
C 50.64 211.84 51.77 210.66 51.77 206.65
C 51.77 202.17 51.55 202.04 45.71 203.06
C 19.80 207.51 4.29 232.58 9.61 261.38
C 13.38 281.82 28.43 295.57 48.94 297.33
C 51.03 297.51 51.77 296.38 51.77 293.01
M 53.39 250.56
L 53.39 221.35
L 49.75 222.47
C 38.65 225.90 29.17 236.20 26.68 247.54
C 25.40 253.36 30.26 264.50 36.60 270.29
C 41.10 274.40 49.67 279.59 52.18 279.72
C 52.84 279.75 53.39 266.64 53.39 250.56
M 437.30 275.98
C 443.14 273.54 453.09 263.22 457.10 255.44
C 460.42 249.04 459.30 244.33 452.72 236.83
C 448.19 231.67 433.19 221.61 429.97 221.58
C 429.30 221.56 428.75 234.31 428.75 249.87
C 428.75 268.24 429.34 278.17 430.42 278.17
C 431.34 278.17 434.43 277.18 437.30 275.98"/>
<path fill="#e5af48" stroke="none" d="
M 66.34 591.91
C 63.13 588.71 63.10 586.53 63.10 378.55
C 63.10 238.40 63.68 164.30 64.83 156.02
C 71.29 109.54 91.64 73.91 127.46 46.37
C 198.25 -8.09 307.46 -0.03 371.07 64.32
C 386.61 80.02 396.06 93.30 405.31 112.40
C 419.21 141.04 418.04 118.69 418.63 367.47
C 419.16 587.98 419.14 588.58 415.86 591.87
C 412.59 595.13 411.36 595.15 241.07 595.15
C 71.72 595.15 69.52 595.10 66.34 591.91"/>
<path fill="#ea9808" stroke="none" d="
M 430.37 293.60
C 430.37 288.79 431.10 288.00 438.27 285.02
C 442.62 283.21 449.12 279.07 452.73 275.81
C 460.00 269.26 467.60 255.56 467.55 249.14
C 467.46 237.30 455.06 223.12 439.06 216.49
C 430.95 213.12 430.37 212.52 430.37 207.35
C 430.37 202.12 430.63 201.87 434.82 202.88
C 444.22 205.15 459.45 213.43 465.71 219.69
C 470.67 224.65 473.07 228.97 475.64 237.64
L 479.04 249.06
L 475.66 260.41
C 470.19 278.77 458.62 290.35 440.19 295.92
L 430.37 298.90
L 430.37 293.60"/>
<path fill="#ea9808" stroke="none" d="
M 41.84 296.43
C 39.49 296.07 33.70 293.45 28.96 290.60
C 18.48 284.33 12.05 274.63 9.61 261.38
C 4.29 232.58 19.80 207.51 45.71 203.06
C 51.55 202.04 51.77 202.17 51.77 206.65
C 51.77 210.66 50.64 211.84 43.60 215.13
C 32.54 220.32 23.62 230.33 20.08 241.58
C 17.33 250.27 17.33 251.08 20.05 259.70
C 23.74 271.36 31.78 280.17 42.96 284.81
C 50.67 288.02 51.77 289.04 51.77 293.01
C 51.77 297.75 51.37 297.90 41.84 296.43"/>
<path fill="#fefefe" stroke="none" d="
M 52.96 596.64
C 53.55 594.34 54.23 593.89 55.04 595.20
C 55.71 596.26 57.24 597.78 58.46 598.54
C 60.03 599.55 59.43 599.95 56.37 599.97
C 52.81 600.00 52.23 599.42 52.96 596.64"/>
<path fill="#fefefe" stroke="none" d="
M 52.44 252.29
C 52.44 236.73 52.68 230.36 52.97 238.14
C 53.28 245.92 53.28 258.66 52.97 266.44
C 52.68 274.22 52.44 267.85 52.44 252.29"/>
<path fill="#fefefe" stroke="none" d="
M 429.42 250.67
C 429.42 235.12 429.66 228.74 429.95 236.52
C 430.26 244.30 430.26 257.05 429.95 264.82
C 429.66 272.60 429.42 266.23 429.42 250.67"/>
</g>
</svg>
