<?xml version="1.0" encoding="UTF-8" standalone="no"?>
<!DOCTYPE svg PUBLIC "-//W3C//DTD SVG 1.1//EN"
"http://www.w3.org/Graphics/SVG/1.1/DTD/svg11.dtd">
<svg width="248px" height="600px"
xmlns="http://www.w3.org/2000/svg" version="1.1">
<g transform="translate(0000, 0000) scale(1.0000, 1.0000)">
<path fill="#000000" stroke="none" d="
M 29.40 597.45
C 26.87 594.92 26.85 593.20 26.85 421.60
C 26.85 247.75 27.20 231.47 31.47 210.64
C 35.42 191.36 53.59 147.92 66.42 127.02
C 73.98 114.73 85.88 99.89 99.51 85.76
L 110.99 73.88
L 107.32 69.70
C 101.83 63.46 61.19 36.66 47.25 30.09
C 35.95 24.77 21.53 20.30 9.83 18.49
C 3.84 17.55 0.00 13.93 0.00 9.18
C 0.00 3.38 2.66 1.02 9.95 0.32
C 24.81 -1.11 47.50 4.57 68.16 14.91
C 78.50 20.08 109.08 39.88 120.40 48.74
L 125.11 52.42
L 135.74 43.85
C 163.35 21.59 192.24 7.23 220.02 1.97
C 239.86 -1.80 248.00 0.08 248.00 8.39
C 248.00 15.52 244.82 17.76 230.74 20.50
C 214.48 23.68 193.47 32.96 173.86 45.61
C 161.72 53.45 139.80 70.75 139.00 73.14
C 138.71 73.99 143.80 80.43 150.31 87.45
C 164.88 103.19 171.47 111.29 180.80 124.98
C 192.98 142.84 206.36 173.00 213.98 199.79
C 221.41 225.88 221.15 218.18 221.15 414.42
C 221.15 593.20 221.13 594.92 218.60 597.45
C 216.09 599.95 214.34 600.00 124.00 600.00
C 33.66 600.00 31.91 599.95 29.40 597.45
M 211.95 590.81
C 213.13 589.63 213.48 558.69 213.48 459.32
L 213.48 329.36
L 124.00 329.36
L 34.52 329.36
L 34.52 459.32
C 34.52 558.69 34.87 589.63 36.05 590.81
C 38.27 593.03 209.73 593.03 211.95 590.81
M 213.48 312.13
L 213.48 302.55
L 124.00 302.55
L 34.52 302.55
L 34.52 312.13
L 34.52 321.70
L 124.00 321.70
L 213.48 321.70
L 213.48 312.13
M 213.15 261.38
C 212.51 224.29 211.52 218.17 201.35 189.11
C 191.32 160.43 181.07 140.74 165.12 119.59
C 154.16 105.05 126.95 76.58 124.00 76.56
C 121.34 76.53 93.50 105.57 83.69 118.60
C 69.63 137.26 55.28 166.01 44.36 197.32
C 37.51 216.98 35.64 230.18 34.86 264.57
L 34.17 294.89
L 123.95 294.89
L 213.73 294.89
L 213.15 261.38
M 143.55 58.94
C 172.97 35.18 199.87 21.04 226.77 15.15
C 242.92 11.62 246.44 9.23 239.90 6.24
C 236.16 4.54 219.54 7.44 204.91 12.32
C 184.06 19.29 158.35 34.28 137.56 51.60
C 132.02 56.22 126.48 60.00 125.27 60.00
C 124.05 60.00 120.24 57.79 116.82 55.09
C 104.48 45.34 74.12 25.54 63.05 20.02
C 42.30 9.64 15.49 2.89 8.21 6.19
C 1.71 9.15 5.45 11.95 18.66 14.07
C 31.03 16.03 44.68 20.83 58.38 28.02
C 68.57 33.36 100.07 54.27 113.94 64.89
C 117.65 67.72 119.93 68.45 125.18 68.45
C 131.47 68.45 132.30 68.02 143.55 58.94"/>
<path fill="#c4720b" stroke="none" d="
M 113.94 64.89
C 100.07 54.27 68.57 33.36 58.38 28.02
C 44.68 20.83 31.03 16.03 18.66 14.07
C 5.27 11.92 1.48 8.97 8.63 6.26
C 16.72 3.17 42.31 9.64 63.05 20.02
C 74.12 25.54 104.48 45.34 116.82 55.09
C 120.24 57.79 124.05 60.00 125.27 60.00
C 126.48 60.00 132.02 56.22 137.56 51.60
C 158.35 34.28 184.06 19.29 204.91 12.32
C 219.54 7.44 236.16 4.54 239.90 6.24
C 246.44 9.23 242.92 11.62 226.77 15.15
C 199.87 21.04 172.97 35.18 143.55 58.94
C 132.30 68.02 131.47 68.45 125.18 68.45
C 119.93 68.45 117.65 67.72 113.94 64.89"/>
<path fill="#ebaf5a" stroke="none" d="
M 34.86 264.57
C 35.64 230.18 37.51 216.98 44.36 197.32
C 55.06 166.61 69.57 137.40 83.03 119.45
C 93.13 105.98 119.35 78.40 122.98 77.41
C 128.88 75.82 166.11 117.51 180.00 141.29
C 190.84 159.84 202.78 189.94 209.28 215.11
C 212.31 226.84 212.63 230.59 213.15 261.38
L 213.73 294.89
L 123.95 294.89
L 34.17 294.89
L 34.86 264.57"/>
<path fill="#c57a36" stroke="none" d="
M 34.78 312.45
L 35.15 303.19
L 124.32 302.86
L 213.48 302.54
L 213.48 312.11
L 213.48 321.70
L 123.95 321.70
L 34.40 321.70
L 34.78 312.45"/>
<path fill="#aa4422" stroke="none" d="
M 35.95 590.60
C 34.89 589.34 34.59 554.02 34.84 459.43
L 35.15 330.00
L 124.32 329.67
L 213.48 329.35
L 213.48 459.31
C 213.48 558.69 213.13 589.63 211.95 590.81
C 209.56 593.20 37.94 593.00 35.95 590.60"/>
</g>
</svg>
