<?xml version="1.0" encoding="UTF-8" standalone="no"?>
<!DOCTYPE svg PUBLIC "-//W3C//DTD SVG 1.1//EN"
"http://www.w3.org/Graphics/SVG/1.1/DTD/svg11.dtd">
<svg width="592px" height="600px"
xmlns="http://www.w3.org/2000/svg" version="1.1">
<g transform="translate(0000, 0000) scale(1.0000, 1.0000)">
<path fill="#000000" stroke="none" d="
M 181.64 599.15
C 181.16 598.69 180.78 558.65 180.78 510.17
C 180.78 423.72 180.83 421.98 183.33 419.49
C 185.66 417.17 187.57 416.95 206.13 416.95
L 226.39 416.95
L 235.21 405.83
C 240.07 399.71 253.30 382.45 264.60 367.47
L 285.18 340.25
L 285.18 329.83
L 285.18 319.41
L 247.94 318.55
C 201.78 317.48 191.58 318.38 171.23 325.35
C 132.72 338.56 96.69 341.02 67.16 332.47
C 47.31 326.73 20.96 312.83 10.25 302.45
C -0.18 292.35 -2.99 279.92 3.65 273.27
C 10.83 266.11 17.24 267.11 36.28 278.42
C 57.89 291.23 75.59 298.46 92.62 301.42
C 107.82 304.07 135.80 300.66 139.95 295.67
C 142.70 292.35 138.63 291.74 113.94 291.74
C 86.65 291.74 81.44 290.75 74.53 284.24
C 70.76 280.69 70.02 279.11 70.02 274.69
C 70.02 266.75 74.49 262.72 82.50 263.43
C 85.78 263.72 91.23 264.76 94.59 265.74
C 100.12 267.34 102.36 267.24 117.51 264.69
C 143.60 260.30 148.31 260.85 169.78 270.75
C 184.98 277.77 189.90 278.71 199.52 276.47
C 203.83 275.47 217.55 272.95 230.03 270.88
C 250.16 267.52 260.77 265.98 279.77 263.64
L 285.18 262.98
L 285.18 134.28
C 285.18 31.45 285.51 5.12 286.82 3.33
C 287.71 2.11 290.79 0.79 293.67 0.41
C 297.87 -0.17 299.41 0.23 301.58 2.39
L 304.28 5.08
L 304.28 133.47
C 304.28 223.75 304.68 261.86 305.64 261.86
C 306.39 261.86 320.85 260.94 337.78 259.82
C 373.05 257.47 395.16 257.92 430.95 261.75
C 444.25 263.16 464.31 265.23 475.51 266.35
C 486.71 267.46 496.85 268.65 498.03 269.00
C 499.42 269.39 501.01 268.37 502.45 266.19
C 504.35 263.29 504.86 258.34 505.63 234.78
C 506.56 207.04 509.59 163.96 511.83 146.82
C 512.47 141.93 513.00 130.60 513.03 121.65
C 513.07 103.51 514.10 100.08 521.02 94.94
C 535.02 84.57 564.08 86.25 575.03 98.07
C 580.73 104.24 581.56 109.37 582.31 143.64
C 583.16 182.33 584.82 208.93 588.28 238.98
C 589.68 251.21 591.17 272.95 591.59 287.29
C 592.31 311.99 592.22 313.51 589.82 316.42
L 587.30 319.50
L 445.78 319.18
L 304.28 318.88
L 304.28 329.45
L 304.29 340.04
L 330.51 373.73
C 344.94 392.25 357.84 409.56 359.18 412.18
L 361.62 416.95
L 383.23 416.95
C 403.18 416.95 405.06 417.15 407.41 419.50
C 409.92 422.01 409.96 423.42 409.64 510.69
C 409.35 590.28 409.10 599.36 407.30 599.72
C 406.19 599.92 380.38 581.89 349.95 559.63
L 294.63 519.17
L 240.59 559.58
C 210.88 581.81 185.65 600.00 184.53 600.00
C 183.39 600.00 182.09 599.62 181.64 599.15
M 245.25 543.64
C 271.25 524.30 293.59 508.50 294.91 508.54
C 296.20 508.58 320.47 525.62 348.83 546.43
L 400.40 584.25
L 400.73 506.78
C 400.96 450.62 400.65 428.83 399.62 427.58
C 397.62 425.19 193.62 424.98 191.22 427.37
C 190.06 428.53 189.69 447.94 189.69 506.97
L 189.69 585.05
L 193.83 581.92
C 196.11 580.19 219.24 562.97 245.25 543.64
M 316.84 392.48
C 306.26 379.02 296.90 367.26 296.05 366.36
C 294.80 365.02 292.30 367.65 283.27 379.70
C 277.09 387.95 268.11 399.71 263.29 405.83
L 254.56 416.95
L 295.33 416.95
L 336.09 416.95
L 316.84 392.48
M 269.16 386.54
C 281.13 370.87 291.86 357.46 293.03 356.75
C 294.56 355.81 295.76 355.94 297.36 357.28
C 298.58 358.28 309.58 371.83 321.81 387.39
C 342.97 414.33 344.24 415.68 348.34 415.68
C 350.72 415.68 352.65 415.25 352.65 414.72
C 352.64 414.20 340.62 398.33 325.92 379.45
L 299.20 345.13
L 299.18 178.19
C 299.18 65.58 298.75 10.47 297.86 8.81
C 296.18 5.67 293.28 5.67 291.60 8.81
C 290.70 10.47 290.27 65.59 290.27 178.28
L 290.27 345.29
L 275.45 364.91
C 267.30 375.70 255.55 391.18 249.35 399.32
C 243.15 407.44 238.07 414.48 238.07 414.97
C 238.07 415.44 240.17 415.65 242.75 415.44
C 247.23 415.06 248.36 413.82 269.16 386.54
M 118.46 328.64
C 138.30 326.33 148.14 324.09 166.78 317.64
C 186.59 310.81 199.14 309.75 247.30 310.86
L 285.18 311.72
L 285.18 291.48
L 285.18 271.25
L 275.85 272.25
C 263.79 273.53 223.42 280.17 206.25 283.68
C 189.06 287.19 181.25 286.04 161.75 277.14
C 154.12 273.67 145.70 270.48 143.01 270.06
C 140.20 269.63 132.00 270.42 123.59 271.94
C 106.42 275.05 95.67 275.28 87.11 272.71
C 81.54 271.03 80.66 271.04 78.95 272.78
C 77.23 274.53 77.41 275.06 80.58 277.82
C 87.44 283.77 95.81 285.09 120.74 284.12
C 147.08 283.11 147.67 283.30 148.62 293.20
C 149.18 299.06 148.94 299.78 145.31 302.83
C 140.30 307.04 131.77 308.86 112.63 309.79
C 84.40 311.16 62.26 304.67 29.28 285.38
C 14.86 276.94 11.67 275.91 9.45 278.94
C 2.18 288.88 35.86 313.73 71.55 324.75
C 80.89 327.65 92.28 329.89 99.95 330.36
C 101.35 330.44 109.68 329.67 118.46 328.64
M 582.01 309.98
C 584.67 307.32 584.72 306.60 583.94 285.51
C 583.50 273.55 582.02 254.33 580.66 242.80
C 577.70 217.78 575.60 183.66 574.38 140.83
C 573.55 112.12 573.25 109.12 570.89 105.88
C 563.85 96.19 543.15 92.77 530.25 99.18
C 522.17 103.18 520.87 106.69 520.78 124.75
C 520.74 132.20 519.85 146.35 518.81 156.20
C 515.84 184.28 513.09 226.61 513.08 244.32
C 513.07 264.23 511.46 272.63 507.15 275.45
C 504.22 277.37 502.12 277.31 478.30 274.74
C 386.10 264.78 382.98 264.62 338.01 267.57
C 322.61 268.59 308.72 269.44 307.14 269.45
C 304.29 269.49 304.28 269.57 304.28 290.47
L 304.28 311.43
L 433.82 311.76
C 505.06 311.94 566.93 312.23 571.31 312.39
C 578.01 312.66 579.70 312.28 582.01 309.98"/>
<path fill="#c55436" stroke="none" d="
M 238.07 414.97
C 238.07 414.48 243.15 407.44 249.35 399.32
C 255.55 391.18 267.30 375.70 275.45 364.91
L 290.27 345.29
L 290.27 177.83
C 290.27 27.27 290.47 10.14 292.27 8.35
C 294.91 5.72 296.27 5.83 297.86 8.81
C 298.75 10.47 299.18 65.58 299.18 178.19
L 299.20 345.13
L 325.92 379.45
C 340.62 398.33 352.64 414.20 352.65 414.72
C 352.65 415.25 350.72 415.68 348.34 415.68
C 344.24 415.68 342.97 414.33 321.81 387.39
C 309.58 371.83 298.58 358.28 297.36 357.28
C 295.76 355.94 294.56 355.81 293.03 356.75
C 291.86 357.46 281.13 370.87 269.16 386.54
C 248.36 413.82 247.23 415.06 242.75 415.44
C 240.17 415.65 238.07 415.44 238.07 414.97"/>
<path fill="#ae3c2a" stroke="none" d="
M 89.75 329.11
C 52.45 323.80 0.42 291.28 9.45 278.94
C 11.67 275.91 14.86 276.94 29.28 285.38
C 62.26 304.67 84.40 311.16 112.63 309.79
C 131.77 308.86 140.30 307.04 145.31 302.83
C 148.94 299.78 149.18 299.06 148.62 293.20
C 147.67 283.30 147.08 283.11 120.74 284.12
C 95.81 285.09 87.44 283.77 80.58 277.82
C 77.41 275.06 77.23 274.53 78.95 272.78
C 80.66 271.04 81.54 271.03 87.11 272.71
C 95.67 275.28 106.42 275.05 123.59 271.94
C 132.00 270.42 140.20 269.63 143.01 270.06
C 145.70 270.48 154.12 273.67 161.75 277.14
C 181.25 286.04 189.06 287.19 206.25 283.68
C 223.42 280.17 263.79 273.53 275.85 272.25
L 285.18 271.25
L 285.18 291.48
L 285.18 311.72
L 247.30 310.86
C 199.14 309.75 186.59 310.81 166.78 317.64
C 148.14 324.09 138.30 326.33 118.46 328.64
C 101.00 330.69 100.82 330.69 89.75 329.11"/>
<path fill="#ae3c2a" stroke="none" d="
M 433.82 311.76
L 304.28 311.43
L 304.28 290.47
C 304.28 269.57 304.29 269.49 307.14 269.45
C 308.72 269.44 322.61 268.59 338.01 267.57
C 382.98 264.62 386.10 264.78 478.30 274.74
C 502.12 277.31 504.22 277.37 507.15 275.45
C 511.46 272.63 513.07 264.23 513.08 244.32
C 513.09 226.61 515.84 184.28 518.81 156.20
C 519.85 146.35 520.74 132.20 520.78 124.75
C 520.87 106.75 522.18 103.17 530.14 99.24
C 543.10 92.82 563.86 96.20 570.89 105.88
C 573.25 109.12 573.55 112.12 574.38 140.83
C 575.60 183.66 577.70 217.78 580.66 242.80
C 582.02 254.33 583.50 273.55 583.94 285.51
C 584.72 306.60 584.67 307.32 582.01 309.98
C 579.70 312.28 578.01 312.66 571.31 312.39
C 566.93 312.23 505.06 311.94 433.82 311.76"/>
<path fill="#fefefe" stroke="none" d="
M 2.04 272.81
C 2.42 271.79 3.64 270.61 4.74 270.19
C 7.84 269.01 7.68 269.91 4.35 272.39
C 2.08 274.09 1.50 274.21 2.04 272.81"/>
<path fill="#fefefe" stroke="none" d="
M 70.02 268.86
C 70.02 268.50 70.31 268.22 70.66 268.22
C 71.00 268.22 71.29 268.50 71.29 268.86
C 71.29 269.21 71.00 269.49 70.66 269.49
C 70.31 269.49 70.02 269.21 70.02 268.86"/>
<path fill="#fefefe" stroke="none" d="
M 72.57 264.37
C 72.57 263.69 73.42 263.14 74.48 263.14
C 75.53 263.14 76.39 263.36 76.39 263.63
C 76.39 263.91 75.53 264.47 74.48 264.86
C 73.42 265.27 72.57 265.04 72.57 264.37"/>
<path fill="#c57a36" stroke="none" d="
M 189.69 506.76
C 189.69 430.67 189.76 428.44 192.15 427.17
C 193.79 426.29 228.68 425.85 296.39 425.85
C 380.73 425.85 398.42 426.14 399.62 427.58
C 400.65 428.83 400.96 450.62 400.73 506.78
L 400.40 584.25
L 348.83 546.43
C 320.47 525.62 296.20 508.58 294.91 508.54
C 293.07 508.49 240.03 546.99 193.83 581.92
L 189.69 585.05
L 189.69 506.76"/>
</g>
</svg>
