<?xml version="1.0" encoding="UTF-8" standalone="no"?>
<!DOCTYPE svg PUBLIC "-//W3C//DTD SVG 1.1//EN"
"http://www.w3.org/Graphics/SVG/1.1/DTD/svg11.dtd">
<svg width="216px" height="600px"
xmlns="http://www.w3.org/2000/svg" version="1.1">
<g transform="translate(0000, 0000) scale(1.0000, 1.0000)">
<path fill="#000000" stroke="none" d="
M 160.71 597.43
C 157.64 594.36 157.72 599.73 159.43 508.14
C 163.68 278.80 163.62 288.63 160.91 286.42
C 159.54 285.30 153.46 283.43 147.41 282.23
C 93.97 271.75 52.65 240.01 28.89 191.22
C 17.29 167.41 6.56 127.44 2.38 92.51
C 0.13 73.70 0.15 34.69 2.43 25.70
C 5.05 15.28 9.80 6.68 14.52 3.82
C 24.12 -2.04 31.96 -0.24 38.25 9.25
C 42.15 15.13 41.97 11.67 41.07 60.39
C 40.80 75.57 41.25 81.51 43.55 92.51
C 51.84 132.06 69.02 166.15 92.96 190.57
C 109.66 207.61 125.38 216.62 148.44 222.40
C 158.01 224.80 159.88 224.94 161.42 223.40
C 162.90 221.92 163.45 204.32 164.58 122.04
C 165.37 64.99 166.54 18.72 167.32 13.67
C 169.29 1.16 170.78 0.00 185.00 0.00
C 194.34 0.00 196.98 0.45 199.47 2.45
L 202.50 4.91
L 203.31 63.80
C 203.76 96.19 204.79 138.01 205.57 156.75
C 207.85 210.12 210.86 349.44 210.88 402.32
C 210.91 444.40 212.57 506.17 215.49 573.79
C 216.69 601.75 218.60 600.00 187.07 600.00
C 165.00 600.00 163.11 599.82 160.71 597.43
M 206.95 590.43
C 208.48 588.59 208.36 584.13 205.05 514.56
C 204.67 506.79 203.82 454.75 203.16 398.93
C 201.96 298.01 199.12 176.15 196.71 122.51
C 196.03 107.06 195.45 76.33 195.44 54.19
C 195.43 28.33 194.94 13.05 194.07 11.42
C 190.70 5.11 178.64 5.94 175.86 12.66
C 174.52 15.89 173.89 40.01 171.49 180.99
C 170.58 234.59 171.05 232.55 159.60 232.55
C 151.82 232.55 131.72 227.52 121.69 223.07
C 103.15 214.84 80.90 194.88 67.09 174.09
C 42.30 136.81 28.72 85.21 33.17 45.24
C 35.29 26.15 35.16 23.94 31.53 16.75
C 26.25 6.37 20.43 6.86 14.68 18.18
C 8.04 31.31 6.42 47.92 9.00 76.45
C 17.67 171.87 51.69 232.87 112.18 261.46
C 123.90 267.01 145.58 273.88 156.86 275.64
C 164.70 276.86 169.52 279.52 170.43 283.14
C 170.85 284.80 170.56 318.46 169.80 357.96
C 166.13 549.39 165.70 588.63 167.23 590.47
C 169.46 593.15 204.72 593.11 206.95 590.43"/>
<path fill="#c57a36" stroke="none" d="
M 167.23 590.47
C 165.70 588.63 166.13 549.39 169.80 357.96
C 170.56 318.46 170.85 284.80 170.43 283.14
C 169.52 279.52 164.70 276.86 156.86 275.64
C 145.58 273.88 123.90 267.01 112.18 261.46
C 51.69 232.87 17.67 171.87 9.00 76.45
C 6.42 47.92 8.04 31.31 14.68 18.18
C 20.43 6.86 26.25 6.37 31.53 16.75
C 35.16 23.94 35.29 26.15 33.17 45.24
C 29.65 76.86 37.72 117.91 53.95 150.96
C 70.46 184.59 95.81 211.58 121.69 223.07
C 131.72 227.52 151.82 232.55 159.60 232.55
C 171.05 232.55 170.58 234.59 171.49 180.99
C 173.91 39.30 174.51 15.89 175.87 12.60
C 178.57 6.09 190.79 5.29 194.07 11.42
C 194.94 13.05 195.43 28.33 195.44 54.19
C 195.45 76.33 196.03 107.06 196.71 122.51
C 199.12 176.15 201.96 298.01 203.16 398.93
C 203.82 454.75 204.67 506.79 205.05 514.56
C 208.36 584.13 208.48 588.59 206.95 590.43
C 204.72 593.11 169.46 593.15 167.23 590.47"/>
</g>
</svg>
