<?xml version="1.0" encoding="UTF-8" standalone="no"?>
<!DOCTYPE svg PUBLIC "-//W3C//DTD SVG 1.1//EN"
"http://www.w3.org/Graphics/SVG/1.1/DTD/svg11.dtd">
<svg width="195px" height="600px"
xmlns="http://www.w3.org/2000/svg" version="1.1">
<g transform="translate(0000, 0000) scale(1.0000, 1.0000)">
<path fill="#000000" stroke="none" d="
M 85.52 596.36
C 80.00 594.03 77.17 592.04 76.70 590.20
C 76.32 588.71 78.97 497.45 82.58 387.41
C 88.77 199.39 89.04 187.26 86.96 186.05
C 76.17 179.76 67.22 165.59 62.57 147.42
C 61.30 142.47 60.14 138.24 59.99 138.04
C 59.66 137.56 26.00 145.88 13.26 149.58
C 5.66 151.79 3.56 151.98 1.96 150.67
C -0.94 148.26 -0.98 74.52 1.92 72.12
C 3.46 70.84 6.26 71.29 16.45 74.47
C 44.14 83.12 60.05 87.42 60.98 86.50
C 61.51 85.97 64.04 82.08 66.58 77.86
L 71.22 70.20
L 63.23 40.57
C 53.19 3.32 53.76 6.24 55.99 3.22
C 57.82 0.76 59.62 0.63 96.70 0.27
C 134.86 -0.10 135.53 -0.06 138.26 2.65
C 140.00 4.39 140.79 6.42 140.39 8.18
C 140.04 9.70 136.16 24.27 131.77 40.57
L 123.78 70.20
L 128.42 77.86
C 130.96 82.08 133.49 85.97 134.02 86.50
C 134.95 87.42 150.86 83.12 178.55 74.47
C 188.74 71.29 191.54 70.84 193.08 72.12
C 195.98 74.52 195.94 148.26 193.04 150.67
C 191.44 151.98 189.34 151.79 181.74 149.58
C 169.00 145.88 135.34 137.56 135.01 138.04
C 134.86 138.24 133.70 142.47 132.43 147.42
C 127.78 165.59 118.83 179.76 108.04 186.05
C 105.96 187.26 106.23 199.39 112.42 387.41
C 116.03 497.45 118.69 588.72 118.30 590.23
C 117.81 592.20 115.08 593.95 108.55 596.48
C 97.58 600.73 95.85 600.73 85.52 596.36
M 110.61 571.75
C 110.18 563.56 107.46 481.84 104.55 390.13
C 101.65 298.43 98.82 221.65 98.25 219.53
L 97.24 215.67
L 96.48 220.17
C 96.07 222.66 93.34 299.42 90.45 390.77
C 87.54 482.12 84.82 563.58 84.39 571.78
L 83.60 586.67
L 90.55 589.18
C 97.45 591.68 97.55 591.68 104.45 589.17
L 111.40 586.64
L 110.61 571.75
M 105.87 177.70
C 126.50 167.20 136.51 112.02 122.68 84.99
C 116.88 73.65 106.51 65.72 97.50 65.72
C 91.75 65.72 83.82 69.79 79.10 75.15
C 69.05 86.55 65.25 100.58 66.29 122.32
C 67.59 149.42 76.44 171.09 88.85 177.63
C 94.99 180.86 99.60 180.89 105.87 177.70
M 33.34 135.93
C 45.65 132.82 55.89 130.09 56.12 129.85
C 56.46 129.48 57.79 95.28 57.47 95.28
C 57.42 95.28 47.51 92.33 35.46 88.74
C 23.41 85.13 12.68 82.09 11.62 81.98
C 9.96 81.79 9.63 85.80 9.34 110.06
C 9.03 135.09 9.30 141.72 10.62 141.61
C 10.81 141.58 21.04 139.03 33.34 135.93
M 185.66 112.58
C 185.86 97.08 185.75 83.72 185.43 82.88
C 185.02 81.81 179.72 82.87 167.65 86.43
C 158.18 89.23 147.52 92.37 143.94 93.41
L 137.44 95.30
L 137.96 112.35
C 138.23 121.73 138.66 129.61 138.89 129.85
C 139.65 130.69 182.71 141.39 184.02 141.08
C 184.82 140.88 185.44 130.03 185.66 112.58
M 88.98 58.13
C 97.06 55.40 106.37 56.82 113.69 61.89
L 116.97 64.16
L 124.15 36.91
C 128.11 21.93 131.10 9.22 130.80 8.69
C 130.12 7.43 64.88 7.43 64.20 8.69
C 63.90 9.22 66.89 21.93 70.85 36.91
L 78.03 64.16
L 81.31 61.89
C 83.11 60.64 86.56 58.96 88.98 58.13"/>
<path fill="#ffbf53" stroke="none" d="
M 9.62 140.00
C 9.27 139.09 9.14 125.61 9.34 110.06
C 9.63 85.80 9.96 81.79 11.62 81.98
C 12.68 82.09 23.41 85.13 35.46 88.74
C 47.51 92.33 57.42 95.28 57.47 95.28
C 57.79 95.28 56.46 129.48 56.12 129.85
C 55.80 130.20 12.16 141.46 10.62 141.61
C 10.41 141.62 9.97 140.90 9.62 140.00"/>
<path fill="#ffbf53" stroke="none" d="
M 161.02 135.85
C 149.08 132.80 139.12 130.11 138.89 129.85
C 138.66 129.61 138.23 121.73 137.96 112.35
L 137.44 95.30
L 143.94 93.41
C 147.52 92.37 158.18 89.23 167.65 86.43
C 179.72 82.87 185.02 81.81 185.43 82.88
C 186.63 86.00 185.30 140.78 184.02 141.08
C 183.31 141.24 172.96 138.89 161.02 135.85"/>
<path fill="#ffbf53" stroke="none" d="
M 70.87 36.91
C 66.00 18.36 64.16 9.36 65.11 8.72
C 66.96 7.47 130.12 7.44 130.80 8.69
C 131.10 9.22 128.11 21.93 124.15 36.91
L 116.97 64.16
L 113.69 61.89
C 103.91 55.11 91.09 55.11 81.31 61.89
L 78.03 64.16
L 70.87 36.91"/>
<path fill="#787a36" stroke="none" d="
M 88.85 177.63
C 76.44 171.09 67.59 149.42 66.29 122.32
C 65.47 105.35 67.53 93.89 73.23 83.42
C 79.14 72.61 89.21 65.63 98.79 65.70
C 103.39 65.74 111.61 70.29 115.90 75.15
C 125.95 86.55 129.75 100.58 128.71 122.32
C 127.40 149.70 118.50 171.27 105.87 177.70
C 99.60 180.89 94.99 180.86 88.85 177.63"/>
<path fill="#c57a36" stroke="none" d="
M 90.54 589.18
L 83.59 586.67
L 84.35 572.42
C 84.78 564.57 87.53 482.54 90.47 390.13
C 93.41 297.71 96.27 220.94 96.83 219.53
C 97.78 217.12 97.90 217.16 98.55 220.17
C 98.92 221.95 101.62 298.43 104.53 390.13
C 107.44 481.84 110.18 563.56 110.61 571.75
L 111.40 586.64
L 104.45 589.17
C 97.55 591.68 97.45 591.68 90.54 589.18"/>
</g>
</svg>
