<?xml version="1.0" encoding="UTF-8" standalone="no"?>
<!DOCTYPE svg PUBLIC "-//W3C//DTD SVG 1.1//EN"
"http://www.w3.org/Graphics/SVG/1.1/DTD/svg11.dtd">
<svg width="178px" height="600px"
xmlns="http://www.w3.org/2000/svg" version="1.1">
<g transform="translate(0000, 0000) scale(1.0000, 1.0000)">
<path fill="#000000" stroke="none" d="
M 21.93 597.43
C 20.51 596.02 19.35 593.41 19.35 591.62
C 19.35 587.96 34.39 531.28 36.30 527.70
C 36.98 526.43 38.61 521.25 39.90 516.19
L 42.23 507.01
L 37.04 500.51
C 30.11 491.81 26.36 483.03 23.71 469.23
C 21.62 458.39 21.62 457.16 23.73 446.57
C 26.22 434.09 29.58 425.38 34.27 419.25
C 36.00 417.01 37.41 414.64 37.41 414.01
C 37.41 413.38 34.74 409.44 31.47 405.25
C 11.44 379.58 1.82 350.93 0.40 312.85
C -0.86 278.35 2.23 260.78 17.85 213.92
C 22.80 199.08 34.46 162.37 43.78 132.33
C 65.15 63.39 82.11 10.95 84.91 5.15
C 87.90 -1.07 90.69 -1.21 93.15 4.77
C 96.35 12.49 115.80 72.91 134.22 132.33
C 143.54 162.37 155.20 199.08 160.15 213.92
C 175.77 260.78 178.86 278.35 177.60 312.85
C 176.18 350.93 166.56 379.58 146.53 405.25
C 143.26 409.44 140.59 413.38 140.59 414.01
C 140.59 414.64 142.00 417.01 143.73 419.25
C 148.49 425.47 151.91 434.40 154.32 446.94
C 156.38 457.67 156.38 458.92 154.24 469.61
C 151.51 483.33 147.83 491.90 140.96 500.51
L 135.77 507.01
L 138.10 516.19
C 139.39 521.25 141.02 526.43 141.70 527.70
C 143.61 531.28 158.65 587.96 158.65 591.62
C 158.65 593.41 157.49 596.02 156.07 597.43
C 153.56 599.94 151.78 600.00 89.00 600.00
C 26.22 600.00 24.44 599.94 21.93 597.43
M 149.09 590.53
C 149.88 588.50 139.95 550.54 133.25 529.98
C 130.73 522.21 128.47 515.15 128.24 514.29
C 127.95 513.24 126.04 513.74 122.23 515.86
C 113.93 520.48 101.38 523.28 89.00 523.28
C 76.62 523.28 64.07 520.48 55.77 515.86
C 51.96 513.74 50.05 513.24 49.76 514.29
C 49.53 515.15 47.27 522.21 44.75 529.98
C 38.05 550.54 28.12 588.50 28.91 590.53
C 29.91 593.14 148.09 593.14 149.09 590.53
M 101.21 513.24
C 123.83 507.37 141.26 488.74 145.78 465.61
C 152.33 432.01 115.22 395.55 80.94 401.90
C 56.74 406.38 37.24 425.72 32.25 450.19
C 27.06 475.55 48.06 505.62 76.23 513.17
C 85.38 515.61 91.95 515.64 101.21 513.24
M 62.48 397.14
C 83.47 389.32 111.73 392.06 127.50 403.44
L 132.74 407.22
L 137.14 401.78
C 157.92 376.10 168.34 347.59 169.90 312.04
C 171.20 282.46 168.02 265.95 151.04 214.33
C 139.77 180.04 121.70 122.76 108.36 79.01
C 101.01 54.89 90.01 23.14 89.00 23.14
C 87.99 23.14 76.99 54.89 69.64 79.01
C 56.30 122.76 38.23 180.04 26.96 214.33
C 9.98 265.95 6.80 282.46 8.10 312.04
C 9.66 347.59 20.08 376.10 40.86 401.78
L 45.26 407.22
L 50.50 403.44
C 53.37 401.36 58.77 398.52 62.48 397.14"/>
<path fill="#eea397" stroke="none" d="
M 40.86 401.78
C 20.08 376.10 9.66 347.59 8.10 312.04
C 6.80 282.46 9.98 265.95 26.96 214.33
C 38.33 179.72 56.65 121.66 69.63 79.01
C 76.09 57.75 83.47 36.09 87.34 26.98
L 89.25 22.48
L 95.05 38.54
C 98.24 47.38 104.04 65.01 107.94 77.73
C 122.50 125.29 139.86 180.32 151.04 214.33
C 168.02 265.95 171.20 282.46 169.90 312.04
C 168.34 347.59 157.92 376.10 137.14 401.78
L 132.74 407.22
L 127.50 403.44
C 107.68 389.13 70.32 389.13 50.50 403.44
L 45.26 407.22
L 40.86 401.78"/>
<path fill="#f3a3b4" stroke="none" d="
M 76.23 513.17
C 48.06 505.62 27.06 475.55 32.25 450.19
C 37.30 425.38 57.19 405.94 81.61 401.91
C 109.96 397.23 139.48 419.45 145.75 450.19
C 148.81 465.15 142.04 484.24 129.15 497.02
C 113.80 512.24 94.61 518.09 76.23 513.17"/>
<path fill="#a94321" stroke="none" d="
M 28.91 590.54
C 28.14 588.55 40.77 541.08 45.71 527.41
C 47.49 522.46 48.98 517.34 48.99 516.01
C 49.01 513.28 49.63 513.39 61.27 518.22
C 80.32 526.12 107.12 524.81 123.53 515.18
C 126.60 513.37 127.91 513.11 128.22 514.25
C 128.47 515.13 130.73 522.21 133.25 529.98
C 139.95 550.54 149.88 588.50 149.09 590.53
C 148.09 593.14 29.91 593.15 28.91 590.54"/>
</g>
</svg>
