<?xml version="1.0" encoding="UTF-8" standalone="no"?>
<!DOCTYPE svg PUBLIC "-//W3C//DTD SVG 1.1//EN"
"http://www.w3.org/Graphics/SVG/1.1/DTD/svg11.dtd">
<svg width="152px" height="600px"
xmlns="http://www.w3.org/2000/svg" version="1.1">
<g transform="translate(0000, 0000) scale(1.0000, 1.0000)">
<path fill="#000000" stroke="none" d="
M 60.83 597.48
C 38.75 591.53 22.37 578.79 13.14 560.38
C 4.82 543.80 3.21 534.45 3.32 503.64
C 3.41 481.18 4.03 473.23 7.48 449.68
C 19.44 368.16 22.47 336.42 22.45 292.93
C 22.44 252.23 22.17 249.47 11.62 183.08
C 1.58 119.92 0.91 114.18 0.90 91.22
C 0.90 60.21 5.11 44.58 17.79 28.69
C 31.01 12.12 57.76 0.00 81.15 0.00
C 91.91 0.00 107.13 3.61 117.21 8.56
C 135.05 17.32 144.99 30.68 149.09 51.39
C 150.85 60.35 150.94 63.42 149.63 71.14
C 146.82 87.67 137.39 101.02 124.54 106.65
C 115.17 110.76 94.56 111.13 75.55 107.56
C 72.99 107.07 74.52 117.61 80.55 141.97
C 94.50 198.37 103.05 257.47 103.05 297.40
C 103.05 335.91 93.04 402.23 79.19 455.46
C 72.83 479.96 71.35 494.02 74.92 496.32
C 76.48 497.33 81.01 497.06 91.78 495.31
C 104.16 493.31 107.71 493.17 114.05 494.44
C 146.56 500.94 160.94 533.58 145.66 566.13
C 139.09 580.14 127.11 590.65 111.32 596.29
C 99.96 600.33 73.68 600.96 60.83 597.48
M 100.31 590.43
C 111.33 587.50 120.57 582.14 128.01 574.36
C 135.94 566.08 139.65 559.48 142.38 548.85
C 147.47 529.04 134.85 509.36 113.00 503.02
C 106.27 501.07 105.19 501.11 92.57 503.68
C 78.46 506.56 69.83 506.30 66.43 502.91
C 61.39 497.88 63.02 482.49 72.17 448.39
C 81.06 415.27 91.06 358.09 94.16 322.48
C 97.80 281.01 90.27 217.57 73.93 151.61
C 67.56 125.95 64.73 108.06 66.13 102.48
C 67.40 97.48 70.92 97.08 86.37 100.25
C 108.11 104.71 119.20 102.12 130.69 89.86
C 140.78 79.10 144.01 67.66 141.01 53.37
C 136.37 31.22 118.33 14.81 92.84 9.56
C 81.58 7.23 72.95 7.94 59.90 12.23
C 46.81 16.55 39.11 21.25 29.49 30.77
C 14.22 45.89 8.75 61.61 8.64 90.58
C 8.58 110.36 8.66 111.08 18.73 174.87
C 29.88 245.56 30.17 248.52 30.13 293.58
C 30.09 340.70 27.09 372.85 15.20 453.53
C 11.86 476.16 11.12 485.34 11.04 504.28
C 10.94 530.06 12.74 539.47 20.78 555.38
C 28.94 571.50 47.87 585.73 67.47 590.48
C 76.50 592.66 91.97 592.64 100.31 590.43"/>
<path fill="#cf9e66" stroke="none" d="
M 67.47 590.48
C 47.87 585.73 28.94 571.50 20.78 555.38
C 12.74 539.47 10.94 530.06 11.04 504.28
C 11.12 485.34 11.86 476.16 15.20 453.53
C 27.09 372.85 30.09 340.70 30.13 293.58
C 30.17 248.52 29.88 245.56 18.73 174.87
C 8.66 111.08 8.58 110.36 8.64 90.58
C 8.75 61.61 14.22 45.89 29.49 30.77
C 47.12 13.31 71.53 5.15 92.93 9.57
C 118.33 14.81 136.37 31.25 141.01 53.37
C 144.01 67.66 140.78 79.10 130.69 89.86
C 119.20 102.12 108.11 104.71 86.37 100.25
C 70.92 97.08 67.40 97.48 66.13 102.48
C 64.73 108.06 67.56 125.95 73.93 151.61
C 90.27 217.57 97.80 281.01 94.16 322.48
C 91.06 358.09 81.06 415.27 72.17 448.39
C 63.02 482.49 61.39 497.88 66.43 502.91
C 69.83 506.30 78.46 506.56 92.57 503.68
C 105.19 501.11 106.27 501.07 113.00 503.02
C 134.85 509.36 147.47 529.04 142.38 548.85
C 137.10 569.43 121.56 584.79 100.31 590.43
C 91.97 592.64 76.50 592.66 67.47 590.48"/>
</g>
</svg>
