<?xml version="1.0" encoding="UTF-8" standalone="no"?>
<!DOCTYPE svg PUBLIC "-//W3C//DTD SVG 1.1//EN"
"http://www.w3.org/Graphics/SVG/1.1/DTD/svg11.dtd">
<svg width="733px" height="400px"
xmlns="http://www.w3.org/2000/svg" version="1.1">
<g transform="translate(0000, 0000) scale(1.0000, 1.0000)">
<path fill="#000000" stroke="none" d="
M 301.77 397.05
C 299.76 395.05 299.03 392.91 299.46 390.39
C 299.81 388.34 306.51 365.09 314.35 338.72
C 322.18 312.35 328.59 289.68 328.59 288.35
C 328.59 287.02 326.66 282.81 324.32 278.99
C 320.72 273.15 156.95 39.42 152.64 33.96
C 151.61 32.66 143.20 80.06 123.58 197.81
C 108.39 288.94 95.57 363.90 95.08 364.38
C 94.59 364.87 72.96 358.76 47.00 350.82
C 8.61 339.07 -0.08 335.96 0.41 334.15
C 1.59 329.91 144.89 10.51 147.58 6.11
C 151.01 0.55 156.78 -1.16 160.15 2.37
C 161.48 3.78 204.43 64.60 255.58 137.54
C 306.74 210.48 349.57 271.28 350.74 272.63
C 353.90 276.25 379.10 276.25 382.26 272.63
C 383.43 271.28 426.26 210.48 477.42 137.54
C 528.57 64.60 571.56 3.72 572.95 2.27
C 576.44 -1.38 581.79 0.22 585.32 5.96
C 588.09 10.46 731.40 329.82 732.59 334.15
C 733.08 335.96 724.39 339.07 686.00 350.82
C 660.04 358.76 638.41 364.87 637.92 364.38
C 637.43 363.90 624.61 288.94 609.42 197.81
C 589.80 80.06 581.39 32.66 580.36 33.96
C 576.05 39.42 412.28 273.15 408.68 278.99
C 406.34 282.81 404.41 287.02 404.41 288.35
C 404.41 289.68 410.82 312.35 418.65 338.72
C 426.49 365.09 433.19 388.34 433.54 390.39
C 433.97 392.91 433.24 395.05 431.23 397.05
C 428.33 399.96 427.39 400.00 366.50 400.00
C 305.61 400.00 304.67 399.96 301.77 397.05
M 421.64 389.82
C 423.75 388.22 422.77 384.13 410.86 344.56
C 403.66 320.63 396.72 297.42 395.43 292.98
L 393.10 284.91
L 366.50 284.91
L 339.90 284.91
L 337.57 292.98
C 336.28 297.42 329.34 320.63 322.14 344.56
C 310.23 384.13 309.25 388.22 311.36 389.82
C 313.11 391.16 326.41 391.58 366.50 391.58
C 406.59 391.58 419.89 391.16 421.64 389.82
M 138.95 46.32
C 138.95 44.15 14.55 322.65 13.26 327.72
C 12.60 330.27 15.94 331.59 50.83 342.57
L 89.14 354.61
L 114.05 201.52
C 127.74 117.32 138.95 47.48 138.95 46.32
M 696.20 338.15
C 718.09 331.27 720.40 330.25 719.74 327.72
C 718.06 321.12 593.87 44.60 594.32 48.42
C 594.59 50.74 605.83 120.58 619.31 203.62
L 643.83 354.61
L 657.87 350.19
C 665.60 347.75 682.84 342.33 696.20 338.15
M 339.53 270.53
C 337.63 268.01 297.33 210.69 249.96 143.16
C 202.59 75.62 161.98 17.98 159.73 15.09
C 155.14 9.19 153.71 9.28 152.33 15.56
C 151.61 18.79 152.06 20.65 154.11 22.92
C 155.62 24.59 196.18 82.02 244.28 150.53
L 331.72 275.09
L 337.33 275.09
L 342.97 275.09
L 339.53 270.53
M 488.72 150.53
C 536.82 82.02 577.38 24.59 578.89 22.92
C 580.94 20.65 581.39 18.79 580.67 15.56
C 579.29 9.28 577.86 9.19 573.27 15.09
C 571.02 17.98 530.41 75.62 483.04 143.16
C 435.67 210.69 395.37 268.01 393.47 270.53
L 390.03 275.09
L 395.67 275.09
L 401.28 275.09
L 488.72 150.53"/>
<path fill="#c57a36" stroke="none" d="
M 244.28 150.53
C 196.18 82.02 155.62 24.59 154.11 22.92
C 150.77 19.20 151.82 10.78 155.54 11.49
C 156.77 11.73 197.31 68.22 245.64 137.04
C 293.96 205.85 335.59 265.07 338.15 268.62
L 342.80 275.09
L 337.26 275.09
L 331.72 275.09
L 244.28 150.53"/>
<path fill="#c57a36" stroke="none" d="
M 393.47 270.53
C 395.37 268.01 435.67 210.69 483.04 143.16
C 530.41 75.62 571.02 17.98 573.27 15.09
C 577.86 9.19 579.29 9.28 580.67 15.56
C 581.39 18.79 580.94 20.65 578.89 22.92
C 577.38 24.59 536.82 82.02 488.72 150.53
L 401.28 275.09
L 395.67 275.09
L 390.03 275.09
L 393.47 270.53"/>
<path fill="#ef907a" stroke="none" d="
M 50.90 342.57
C 29.85 335.94 12.65 329.98 12.64 329.29
C 12.64 327.07 138.15 45.80 138.55 47.12
C 138.76 47.83 127.74 117.32 114.05 201.52
L 89.14 354.61
L 50.90 342.57"/>
<path fill="#ef907a" stroke="none" d="
M 619.31 203.62
C 605.83 120.58 594.59 50.74 594.32 48.42
C 593.87 44.60 718.06 321.12 719.74 327.72
C 720.40 330.25 718.09 331.27 696.20 338.15
C 682.84 342.33 665.60 347.75 657.87 350.19
L 643.83 354.61
L 619.31 203.62"/>
<path fill="#c55436" stroke="none" d="
M 311.37 389.82
C 309.29 388.24 310.47 383.41 324.09 338.25
C 332.36 310.84 339.62 287.64 340.26 286.67
C 341.10 285.36 348.10 284.91 367.24 284.91
L 393.10 284.91
L 395.43 292.98
C 396.72 297.42 403.66 320.63 410.86 344.56
C 422.77 384.13 423.75 388.22 421.64 389.82
C 419.89 391.16 406.59 391.58 366.50 391.58
C 326.41 391.58 313.13 391.16 311.37 389.82"/>
</g>
</svg>
