<?xml version="1.0" encoding="UTF-8" standalone="no"?>
<!DOCTYPE svg PUBLIC "-//W3C//DTD SVG 1.1//EN"
"http://www.w3.org/Graphics/SVG/1.1/DTD/svg11.dtd">
<svg width="633px" height="500px"
xmlns="http://www.w3.org/2000/svg" version="1.1">
<g transform="translate(0000, 0000) scale(1.0000, 1.0000)">
<path fill="#000000" stroke="none" d="
M 153.63 498.43
C 152.56 497.56 149.54 493.26 146.93 488.87
C 137.89 473.69 131.40 472.80 111.47 483.98
C 85.66 498.46 72.80 499.69 15.42 493.10
C -0.33 491.30 -3.72 481.70 5.07 463.87
C 15.26 443.19 34.20 438.59 81.96 445.21
C 118.59 450.30 131.72 448.59 160.14 435.00
C 192.31 419.62 228.66 391.02 264.03 353.26
C 310.50 303.68 344.08 261.65 417.99 160.58
C 479.30 76.75 489.55 64.22 510.21 47.82
C 540.92 23.44 600.68 -3.31 615.89 0.49
C 621.40 1.88 627.43 8.72 629.95 16.44
C 631.84 22.27 632.26 29.42 632.70 64.04
C 633.04 90.76 632.72 107.68 631.80 113.16
C 628.03 135.39 619.87 149.35 597.78 171.28
C 533.79 234.84 438.36 323.65 382.70 371.49
C 375.07 378.04 365.53 386.41 361.48 390.09
C 342.82 407.08 335.40 405.00 330.26 381.36
C 328.86 374.91 326.95 368.87 326.01 367.92
C 323.64 365.52 313.55 370.28 295.69 382.22
C 271.66 398.29 255.81 411.95 200.23 464.48
C 163.77 498.94 158.78 502.58 153.63 498.43
M 184.10 469.16
C 243.07 412.25 277.49 383.31 304.52 367.87
C 328.01 354.46 332.98 356.08 337.29 378.61
C 338.31 383.93 340.04 389.65 341.15 391.32
C 343.09 394.28 343.26 394.32 346.41 392.25
C 354.18 387.17 424.26 325.21 470.95 282.15
C 518.61 238.20 601.73 157.44 609.04 147.98
C 616.22 138.70 621.21 127.76 623.56 116.17
C 625.32 107.47 625.56 99.52 625.11 64.60
C 624.54 20.68 624.05 16.80 618.18 10.49
C 615.54 7.63 614.43 7.32 608.65 7.81
C 600.66 8.49 570.73 20.18 552.44 29.77
C 532.16 40.40 513.97 53.41 499.87 67.38
C 486.49 80.63 474.06 96.65 423.66 165.62
C 353.48 261.62 326.15 296.22 282.29 344.46
C 234.27 397.27 194.36 429.04 155.29 445.60
C 141.05 451.62 123.22 455.88 112.05 455.91
C 108.13 455.91 94.23 454.45 81.16 452.64
C 54.21 448.93 35.87 448.93 27.11 452.64
C 19.72 455.78 12.98 462.97 10.00 470.92
C 5.27 483.55 7.05 484.86 32.15 487.29
C 59.79 489.96 67.54 490.23 76.58 488.82
C 89.15 486.85 95.47 484.51 109.46 476.64
C 122.64 469.23 129.97 467.38 137.41 469.61
C 142.85 471.25 151.04 479.46 155.06 487.34
L 157.73 492.57
L 163.04 488.46
C 165.95 486.21 175.42 477.52 184.10 469.16"/>
<path fill="#edac3a" stroke="none" d="
M 155.06 487.34
C 151.04 479.46 142.85 471.25 137.41 469.61
C 129.97 467.38 122.64 469.23 109.46 476.64
C 85.06 490.38 76.43 491.56 32.15 487.29
C 7.05 484.86 5.27 483.55 10.00 470.92
C 12.98 462.97 19.72 455.78 27.11 452.64
C 35.87 448.93 54.21 448.93 81.16 452.64
C 94.23 454.45 108.13 455.91 112.05 455.91
C 123.22 455.88 141.05 451.62 155.29 445.60
C 194.36 429.04 234.27 397.27 282.29 344.46
C 326.15 296.22 353.48 261.62 423.66 165.62
C 474.06 96.65 486.49 80.63 499.87 67.38
C 513.97 53.41 532.16 40.40 552.44 29.77
C 570.42 20.34 599.99 8.79 608.34 7.92
C 614.51 7.29 615.45 7.53 618.17 10.48
C 624.05 16.80 624.54 20.65 625.11 64.60
C 625.56 99.52 625.32 107.47 623.56 116.17
C 621.21 127.76 616.22 138.70 609.04 147.98
C 601.73 157.44 518.61 238.20 470.95 282.15
C 424.26 325.21 354.18 387.17 346.41 392.25
C 343.26 394.32 343.09 394.28 341.15 391.32
C 340.04 389.65 338.31 383.93 337.29 378.61
C 332.98 356.08 328.01 354.46 304.52 367.87
C 277.49 383.31 243.07 412.25 184.10 469.16
C 175.42 477.52 165.95 486.21 163.04 488.46
L 157.73 492.57
L 155.06 487.34"/>
</g>
</svg>
