<?xml version="1.0" encoding="UTF-8" standalone="no"?>
<!DOCTYPE svg PUBLIC "-//W3C//DTD SVG 1.1//EN"
"http://www.w3.org/Graphics/SVG/1.1/DTD/svg11.dtd">
<svg width="600px" height="302px"
xmlns="http://www.w3.org/2000/svg" version="1.1">
<g transform="translate(0000, 0000) scale(1.0000, 1.0000)">
<path fill="#000000" stroke="none" d="
M 244.35 300.68
C 229.73 297.20 208.20 287.39 193.65 277.57
C 180.26 268.52 162.22 259.37 148.29 254.55
C 136.38 250.43 135.81 250.35 128.83 252.03
C 114.46 255.48 83.67 251.44 60.73 243.10
C 56.53 241.56 46.55 237.40 38.57 233.83
L 24.06 227.36
L 15.99 228.96
C 6.72 230.81 2.56 229.53 2.56 224.82
C 2.56 221.10 5.17 217.27 13.71 208.46
L 20.65 201.29
L 10.96 195.25
C 0.75 188.88 -1.51 185.41 0.97 179.96
C 2.35 176.91 54.77 132.46 74.07 117.96
C 80.51 113.12 89.49 106.99 94.03 104.34
C 98.57 101.68 102.82 98.87 103.48 98.06
C 104.14 97.27 113.95 77.15 125.27 53.36
C 136.59 29.57 146.84 8.62 148.03 6.81
C 152.69 -0.31 144.22 0.00 333.86 0.00
C 506.71 0.00 509.21 0.04 511.69 2.52
C 515.58 6.41 516.14 10.92 513.58 17.65
C 509.46 28.51 492.14 61.45 472.41 95.97
C 461.76 114.63 452.67 130.83 452.23 132.00
C 451.60 133.66 453.02 134.72 458.87 136.94
C 472.96 142.27 472.58 142.35 500.21 128.31
C 513.94 121.34 535.42 109.99 547.94 103.08
C 568.14 91.94 571.09 90.68 573.81 91.92
C 579.81 94.66 591.21 122.11 596.37 146.28
C 598.57 156.57 599.16 163.64 599.17 179.79
C 599.18 198.03 598.75 202.30 595.14 218.87
C 592.91 229.10 589.50 242.34 587.55 248.29
C 584.57 257.40 583.47 259.31 580.59 260.30
C 577.68 261.29 575.95 260.69 569.08 256.24
C 554.41 246.73 513.79 223.30 505.88 219.78
C 494.62 214.77 482.81 212.01 476.74 212.99
C 470.88 213.92 445.60 223.54 444.55 225.23
C 444.17 225.85 446.61 227.91 449.97 229.80
C 482.46 248.11 493.68 257.17 496.34 267.23
C 499.23 278.12 494.74 286.78 484.70 289.78
C 470.89 293.87 462.54 292.06 402.83 272.04
L 363.25 258.76
L 357.21 260.60
C 344.66 264.42 313.43 269.91 296.80 271.21
C 287.30 271.97 275.94 272.91 271.55 273.31
L 263.58 274.05
L 265.61 277.99
C 266.74 280.17 267.95 285.22 268.32 289.24
C 269.23 299.31 266.60 302.05 256.18 301.87
C 252.14 301.80 246.82 301.26 244.35 300.68
M 259.73 292.99
C 261.16 290.32 260.88 288.51 257.58 279.48
L 255.66 274.23
L 237.53 273.41
C 227.57 272.96 213.65 271.44 206.61 270.02
C 199.57 268.61 192.95 267.46 191.90 267.47
C 189.77 267.50 204.64 277.52 213.65 282.13
C 221.54 286.16 236.90 291.47 246.91 293.62
C 258.01 296.00 258.13 295.99 259.73 292.99
M 484.27 282.25
C 488.41 279.54 490.66 272.17 488.75 267.56
C 485.50 259.73 469.27 247.59 445.06 234.91
L 435.47 229.88
L 416.99 237.70
C 406.82 242.00 393.70 247.42 387.81 249.76
C 381.94 252.09 377.04 254.58 376.94 255.25
C 376.61 257.57 438.83 278.53 460.55 283.43
C 470.02 285.56 479.97 285.07 484.27 282.25
M 280.39 266.13
C 306.95 264.35 325.30 261.77 342.86 257.33
C 359.97 252.99 364.49 251.26 418.67 228.24
C 460.73 210.36 473.31 206.00 482.61 206.05
C 489.29 206.09 498.03 208.03 503.76 210.75
C 508.66 213.08 509.21 212.69 512.30 204.75
C 515.30 197.07 516.22 182.11 514.48 169.25
C 513.04 158.51 506.60 139.56 503.51 137.01
C 502.20 135.91 498.99 137.01 489.81 141.67
C 480.74 146.29 476.43 147.76 472.07 147.76
C 465.86 147.74 438.99 137.31 388.91 115.46
C 352.14 99.43 341.90 95.46 323.72 90.23
C 288.51 80.09 259.70 76.05 230.92 77.19
C 186.13 78.97 138.56 89.95 107.05 105.78
C 90.75 113.97 79.19 122.05 61.04 137.96
C 52.45 145.48 39.52 156.43 32.30 162.26
C 25.09 168.11 19.19 173.34 19.19 173.92
C 19.19 174.48 21.20 177.48 23.65 180.57
C 31.24 190.11 33.56 200.77 31.69 217.40
C 31.37 220.24 32.44 220.84 46.02 225.40
C 70.58 233.67 83.80 236.10 104.29 236.10
C 122.02 236.10 122.33 236.05 130.84 231.86
C 143.82 225.46 150.52 214.97 154.22 195.25
C 155.73 187.18 163.97 184.18 169.75 189.61
C 173.48 193.11 173.45 194.56 169.41 208.97
C 165.11 224.29 161.12 232.13 153.76 239.69
C 148.06 245.55 147.88 245.94 150.18 247.65
C 156.47 252.31 190.14 261.08 213.65 264.16
C 240.51 267.69 252.00 268.04 280.39 266.13
M 582.56 242.12
C 587.18 227.52 592.34 200.66 593.19 186.83
C 594.12 171.96 591.97 151.83 587.74 135.72
C 584.62 123.82 574.80 100.99 572.07 99.30
C 570.36 98.25 563.91 101.45 533.31 118.53
L 509.48 131.84
L 512.64 139.65
C 514.38 143.95 517.22 153.01 518.97 159.79
C 521.72 170.44 522.08 174.11 521.58 186.83
C 521.17 197.25 520.23 203.67 518.38 208.83
C 516.10 215.14 516.00 216.31 517.61 217.64
C 522.06 221.34 577.45 253.23 578.41 252.64
C 578.98 252.29 580.85 247.55 582.56 242.12
M 137.94 241.91
C 142.39 239.51 147.75 235.50 149.85 232.99
C 156.37 225.17 162.23 211.62 166.48 194.51
C 166.80 193.20 165.97 192.59 163.84 192.59
C 160.98 192.59 160.61 193.32 159.20 201.64
C 156.12 219.95 148.36 231.52 134.64 238.27
C 126.27 242.39 125.67 242.50 109.41 242.50
C 100.25 242.50 90.75 242.05 88.31 241.51
C 85.51 240.90 84.33 240.97 85.11 241.74
C 87.80 244.38 104.47 246.90 117.06 246.58
C 128.84 246.27 130.49 245.90 137.94 241.91
M 22.06 219.91
C 24.56 218.59 26.01 214.15 25.37 209.67
C 24.97 206.86 24.49 207.10 17.62 213.55
C 13.59 217.32 10.62 220.96 11.01 221.62
C 11.80 222.88 18.31 221.87 22.06 219.91
M 21.67 189.21
C 18.86 183.91 13.82 177.87 12.20 177.87
C 9.58 177.87 6.27 182.44 7.16 184.80
C 8.26 187.65 20.74 194.75 22.16 193.33
C 22.78 192.70 22.55 190.89 21.67 189.21
M 465.67 94.69
C 483.56 63.28 505.45 21.04 507.25 14.46
C 507.76 12.57 507.16 10.79 505.39 9.02
C 502.77 6.40 502.49 6.40 330.73 6.40
L 158.67 6.40
L 154.80 9.92
C 152.10 12.37 145.34 25.36 132.40 53.00
C 122.20 74.76 114.06 92.76 114.32 93.02
C 114.58 93.27 119.31 91.66 124.86 89.45
C 162.56 74.35 226.86 66.86 271.86 72.35
C 314.44 77.55 328.67 82.10 404.26 114.76
C 422.90 122.82 439.32 129.89 440.72 130.47
C 442.31 131.13 443.87 130.97 444.82 130.06
C 445.68 129.26 455.05 113.35 465.67 94.69"/>
<path fill="#000000" stroke="none" d="
M 228.36 235.94
C 222.73 234.92 214.32 232.96 209.69 231.58
C 198.18 228.15 172.41 215.38 172.96 213.37
C 177.02 198.82 183.52 181.51 185.25 180.61
C 189.03 178.68 218.70 176.38 228.84 177.23
C 257.42 179.65 275.78 186.25 286.86 198.10
C 294.23 206.00 295.45 209.99 292.26 215.92
C 287.36 225.00 274.38 232.31 256.68 235.96
C 244.84 238.39 241.91 238.39 228.36 235.94
M 265.75 226.50
C 275.04 223.26 280.80 219.62 284.52 214.59
L 287.18 210.98
L 284.49 206.27
C 278.15 195.14 259.11 187.18 231.95 184.31
C 217.39 182.77 195.58 184.17 190.35 186.97
C 189.13 187.62 187.54 190.59 186.78 193.57
C 186.04 196.56 184.55 201.29 183.49 204.11
C 181.60 209.08 181.64 209.29 184.66 211.60
C 190.35 215.96 206.55 222.52 221.36 226.49
C 233.81 229.80 237.68 230.31 246.91 229.84
C 253.39 229.49 261.01 228.15 265.75 226.50"/>
<path fill="#000000" stroke="none" d="
M 67.70 170.30
C 64.94 167.52 63.97 165.34 63.97 161.88
C 63.97 155.38 69.62 149.72 76.12 149.72
C 82.62 149.72 88.27 155.38 88.27 161.88
C 88.27 168.38 82.62 174.03 76.12 174.03
C 72.65 174.03 70.48 173.06 67.70 170.30
M 81.88 167.64
C 83.28 166.23 84.43 163.64 84.43 161.88
C 84.43 158.65 80.47 153.56 77.96 153.56
C 77.21 153.56 77.49 154.81 78.60 156.40
C 79.70 157.96 80.60 160.43 80.60 161.88
C 80.60 163.32 79.70 165.79 78.60 167.35
C 76.12 170.90 78.41 171.10 81.88 167.64"/>
<path fill="#db4c3d" stroke="none" d="
M 246.91 293.62
C 236.90 291.47 221.54 286.16 213.65 282.13
C 204.64 277.52 189.77 267.50 191.90 267.47
C 192.95 267.46 199.57 268.61 206.61 270.02
C 213.65 271.44 227.57 272.96 237.53 273.41
L 255.66 274.23
L 257.58 279.48
C 260.88 288.51 261.16 290.32 259.73 292.99
C 258.13 295.99 258.01 296.00 246.91 293.62"/>
<path fill="#db4c3d" stroke="none" d="
M 460.55 283.43
C 438.83 278.53 376.61 257.57 376.94 255.25
C 377.04 254.58 381.94 252.09 387.81 249.76
C 393.70 247.42 406.82 242.00 416.99 237.70
L 435.47 229.88
L 445.06 234.91
C 469.27 247.59 485.50 259.73 488.75 267.56
C 490.66 272.17 488.41 279.54 484.27 282.25
C 479.97 285.07 470.02 285.56 460.55 283.43"/>
<path fill="#db4c3d" stroke="none" d="
M 548.41 236.24
C 532.49 226.86 518.64 218.49 517.61 217.64
C 516.00 216.31 516.10 215.14 518.38 208.83
C 520.23 203.67 521.17 197.25 521.58 186.83
C 522.08 174.11 521.72 170.44 518.97 159.79
C 517.22 153.01 514.38 143.95 512.64 139.65
L 509.48 131.84
L 533.31 118.53
C 563.91 101.45 570.36 98.25 572.07 99.30
C 574.80 100.99 584.62 123.82 587.74 135.72
C 591.97 151.83 594.12 171.96 593.19 186.83
C 592.00 206.10 582.05 250.39 578.41 252.64
C 577.82 253.00 564.32 245.62 548.41 236.24"/>
<path fill="#db4c3d" stroke="none" d="
M 221.36 226.49
C 206.55 222.52 190.35 215.96 184.66 211.60
C 181.64 209.29 181.60 209.08 183.49 204.11
C 184.55 201.29 186.04 196.56 186.78 193.57
C 187.54 190.59 189.13 187.62 190.35 186.97
C 195.58 184.17 217.39 182.77 231.95 184.31
C 259.11 187.18 278.15 195.14 284.49 206.27
L 287.18 210.98
L 284.52 214.59
C 278.23 223.08 263.72 228.96 246.91 229.84
C 237.68 230.31 233.81 229.80 221.36 226.49"/>
<path fill="#db4c3d" stroke="none" d="
M 78.60 167.35
C 79.70 165.79 80.60 163.32 80.60 161.88
C 80.60 160.43 79.70 157.96 78.60 156.40
C 77.49 154.81 77.21 153.56 77.96 153.56
C 80.47 153.56 84.43 158.65 84.43 161.88
C 84.43 165.10 80.47 170.19 77.96 170.19
C 77.21 170.19 77.49 168.94 78.60 167.35"/>
<path fill="#db4c3d" stroke="none" d="
M 440.72 130.47
C 439.32 129.89 422.90 122.82 404.26 114.76
C 328.67 82.10 314.44 77.55 271.86 72.35
C 226.86 66.86 162.56 74.35 124.86 89.45
C 119.31 91.66 114.58 93.27 114.32 93.02
C 113.28 91.98 151.23 13.22 154.20 10.25
L 157.42 7.04
L 330.08 6.71
L 502.75 6.37
L 505.38 9.01
C 508.80 12.43 508.68 12.82 495.72 39.03
C 485.09 60.55 447.80 127.25 444.82 130.06
C 443.87 130.97 442.31 131.13 440.72 130.47"/>
<path fill="#cdcdc1" stroke="none" d="
M 233.48 266.55
C 201.97 263.73 158.60 253.88 150.18 247.65
C 147.88 245.94 148.06 245.55 153.76 239.69
C 161.12 232.13 165.11 224.29 169.41 208.97
C 173.45 194.56 173.48 193.11 169.75 189.61
C 163.97 184.18 155.73 187.18 154.22 195.25
C 150.52 214.97 143.82 225.46 130.84 231.86
C 122.33 236.05 122.02 236.10 104.29 236.10
C 83.80 236.10 70.58 233.67 46.02 225.40
C 32.44 220.84 31.37 220.24 31.69 217.40
C 33.56 200.77 31.24 190.11 23.65 180.57
C 21.20 177.48 19.19 174.48 19.19 173.92
C 19.19 173.34 25.09 168.11 32.30 162.26
C 39.52 156.43 52.45 145.48 61.04 137.96
C 79.19 122.05 90.75 113.97 107.05 105.78
C 138.58 89.95 185.74 79.06 230.92 77.21
C 259.64 76.02 288.43 80.07 323.72 90.23
C 341.90 95.46 352.14 99.43 388.91 115.46
C 438.99 137.31 465.86 147.74 472.07 147.76
C 476.43 147.76 480.74 146.29 489.81 141.67
C 498.99 137.01 502.20 135.91 503.51 137.01
C 506.60 139.56 513.04 158.51 514.48 169.25
C 516.22 182.11 515.30 197.07 512.30 204.75
C 509.21 212.69 508.66 213.08 503.76 210.75
C 498.03 208.03 489.29 206.09 482.61 206.05
C 473.31 206.00 460.73 210.36 418.67 228.24
C 364.49 251.26 359.97 252.99 342.86 257.33
C 313.74 264.69 261.62 269.09 233.48 266.55
M 256.68 235.96
C 274.38 232.31 287.36 225.00 292.26 215.92
C 295.45 209.99 294.23 206.00 286.86 198.10
C 275.78 186.25 257.42 179.65 228.84 177.23
C 218.70 176.38 189.03 178.68 185.25 180.61
C 183.52 181.51 177.02 198.82 172.96 213.37
C 172.41 215.38 198.18 228.15 209.69 231.58
C 219.13 234.40 236.49 237.72 242.61 237.90
C 244.82 237.97 251.16 237.08 256.68 235.96
M 84.54 170.30
C 87.30 167.52 88.27 165.34 88.27 161.88
C 88.27 155.38 82.62 149.72 76.12 149.72
C 69.62 149.72 63.97 155.38 63.97 161.88
C 63.97 168.38 69.62 174.03 76.12 174.03
C 79.59 174.03 81.76 173.06 84.54 170.30"/>
<path fill="#f18276" stroke="none" d="
M 95.31 244.93
C 90.38 243.84 85.79 242.41 85.11 241.74
C 84.33 240.97 85.51 240.90 88.31 241.51
C 90.75 242.05 100.25 242.50 109.41 242.50
C 125.67 242.50 126.27 242.39 134.64 238.27
C 148.36 231.52 156.12 219.95 159.20 201.64
C 160.61 193.32 160.98 192.59 163.84 192.59
C 165.97 192.59 166.80 193.20 166.48 194.51
C 162.23 211.62 156.37 225.17 149.85 232.99
C 147.75 235.50 142.39 239.51 137.94 241.91
C 130.49 245.90 128.84 246.27 117.06 246.58
C 109.06 246.78 100.91 246.16 95.31 244.93"/>
<path fill="#f18276" stroke="none" d="
M 11.01 221.62
C 10.62 220.96 13.59 217.32 17.62 213.55
C 24.49 207.10 24.97 206.86 25.37 209.67
C 26.01 214.15 24.56 218.59 22.06 219.91
C 18.31 221.87 11.80 222.88 11.01 221.62"/>
<path fill="#f18276" stroke="none" d="
M 14.53 190.70
C 6.67 186.20 5.13 183.27 9.02 180.13
C 12.75 177.09 13.28 177.22 16.93 182.03
C 25.22 192.99 24.32 196.29 14.53 190.70"/>
</g>
</svg>
