<?xml version="1.0" encoding="UTF-8" standalone="no"?>
<!DOCTYPE svg PUBLIC "-//W3C//DTD SVG 1.1//EN"
"http://www.w3.org/Graphics/SVG/1.1/DTD/svg11.dtd">
<svg width="379px" height="600px"
xmlns="http://www.w3.org/2000/svg" version="1.1">
<g transform="translate(0000, 0000) scale(1.0000, 1.0000)">
<path fill="#000000" stroke="none" d="
M 35.79 599.14
C 33.55 596.90 36.05 592.86 50.42 575.55
C 58.92 565.29 65.63 556.65 65.32 556.34
C 65.01 556.04 62.96 556.53 60.77 557.43
C 54.56 560.00 54.00 558.40 55.62 542.62
C 56.40 534.98 56.72 528.41 56.33 528.03
C 55.96 527.64 54.57 528.30 53.27 529.47
C 50.62 531.86 48.39 532.22 47.28 530.43
C 46.88 529.77 47.72 524.23 49.14 518.12
C 52.30 504.65 52.31 505.77 49.01 506.14
C 44.16 506.70 43.29 503.25 44.96 490.03
C 48.16 464.81 57.92 440.06 69.95 426.66
L 76.72 419.14
L 75.01 398.27
C 74.05 386.80 73.24 370.59 73.19 362.26
C 73.14 353.92 72.76 347.10 72.37 347.10
C 71.34 347.10 63.12 356.03 59.10 361.54
C 52.57 370.45 42.76 392.27 37.46 409.68
C 34.74 418.55 32.03 420.34 29.52 414.84
C 27.56 410.57 26.52 410.77 24.54 415.81
C 21.56 423.42 15.37 432.14 11.06 434.80
C 6.08 437.87 1.51 438.19 0.49 435.54
C 0.09 434.50 3.30 426.88 7.61 418.58
C 11.93 410.30 15.15 403.01 14.76 402.40
C 14.38 401.79 12.99 401.29 11.64 401.29
C 10.30 401.29 8.83 400.68 8.37 399.94
C 7.54 398.59 8.74 396.88 18.64 385.20
C 22.46 380.70 23.32 378.88 22.20 377.75
C 19.73 375.29 20.37 373.79 27.71 364.93
C 32.58 359.03 34.30 356.03 33.37 355.10
C 30.04 351.77 44.50 338.68 68.56 323.28
C 76.03 318.49 85.46 311.70 89.52 308.21
C 98.94 300.09 106.97 295.52 111.82 295.50
L 115.63 295.48
L 111.57 291.29
C 107.05 286.65 99.60 271.37 99.61 266.80
C 99.61 265.19 100.78 260.09 102.19 255.48
C 103.60 250.88 104.76 246.37 104.76 245.48
C 104.77 244.25 97.82 243.87 74.29 243.87
C 57.25 243.87 42.79 243.33 41.48 242.63
C 37.85 240.68 35.78 234.21 36.61 227.30
C 37.01 223.91 40.94 211.30 45.36 199.28
C 49.77 187.25 57.87 164.36 63.36 148.39
C 73.82 117.94 75.58 115.05 79.37 122.18
C 81.74 126.65 81.63 126.90 86.64 104.72
C 88.79 95.26 90.87 86.98 91.26 86.34
C 92.71 84.01 94.43 85.25 97.14 90.58
C 99.68 95.55 100.05 95.79 101.62 93.66
C 103.12 91.61 109.79 77.05 115.72 62.90
C 118.18 57.02 120.83 56.75 124.05 62.04
C 126.79 66.53 126.87 66.46 129.99 56.93
C 133.41 46.46 132.20 34.43 126.31 20.31
C 119.53 4.06 120.04 0.00 128.83 0.00
C 133.03 0.00 142.21 8.55 146.45 16.40
C 151.48 25.72 154.43 40.92 153.35 51.91
C 152.62 59.20 152.78 60.85 154.16 60.30
C 155.09 59.91 156.88 59.20 158.12 58.70
C 161.79 57.23 162.26 61.39 158.93 66.08
C 157.28 68.41 150.09 77.57 142.93 86.45
C 122.52 111.78 97.48 150.19 84.21 176.52
C 75.01 194.76 67.13 215.70 68.74 217.64
C 69.82 218.94 75.27 219.35 91.31 219.35
L 112.46 219.35
L 117.17 204.45
C 121.54 190.61 122.12 189.51 125.54 188.83
C 129.57 188.03 129.53 188.13 132.04 170.97
C 135.96 144.23 142.79 128.71 157.16 113.97
C 164.17 106.77 167.30 104.49 171.05 103.81
C 177.52 102.65 179.36 103.55 181.64 108.97
C 185.37 117.90 193.65 117.85 197.42 108.88
C 199.64 103.55 201.50 102.66 207.95 103.81
C 211.70 104.49 214.83 106.77 221.84 113.97
C 236.21 128.71 243.04 144.23 246.96 170.97
C 249.47 188.13 249.43 188.03 253.46 188.83
C 256.88 189.51 257.46 190.61 261.83 204.45
L 266.54 219.35
L 287.69 219.35
C 303.73 219.35 309.18 218.94 310.26 217.64
C 311.87 215.70 303.99 194.76 294.79 176.52
C 281.52 150.19 256.48 111.78 236.07 86.45
C 228.91 77.57 221.72 68.41 220.07 66.08
C 216.74 61.39 217.21 57.23 220.88 58.70
C 222.12 59.20 223.91 59.91 224.84 60.30
C 226.22 60.85 226.38 59.20 225.65 51.91
C 223.92 34.34 230.38 15.29 241.53 5.03
C 246.32 0.63 247.89 -0.09 251.96 0.25
C 256.28 0.61 256.80 1.05 257.15 4.66
C 257.40 7.11 255.68 13.14 252.75 20.14
C 246.79 34.44 245.57 46.41 249.01 56.93
C 252.13 66.46 252.21 66.53 254.95 62.04
C 258.17 56.75 260.82 57.02 263.28 62.90
C 269.21 77.05 275.88 91.61 277.38 93.66
C 278.95 95.79 279.32 95.55 281.86 90.58
C 284.57 85.25 286.29 84.01 287.74 86.34
C 288.13 86.98 290.21 95.26 292.36 104.72
C 297.37 126.90 297.26 126.65 299.63 122.18
C 303.42 115.05 305.18 117.94 315.64 148.39
C 321.13 164.36 329.23 187.25 333.64 199.28
C 338.06 211.30 341.99 223.91 342.39 227.30
C 343.22 234.21 341.15 240.68 337.52 242.63
C 336.21 243.33 321.75 243.87 304.71 243.87
C 281.18 243.87 274.23 244.25 274.24 245.48
C 274.24 246.37 275.40 250.88 276.81 255.48
C 278.22 260.09 279.39 265.19 279.39 266.80
C 279.40 271.37 271.95 286.65 267.43 291.29
L 263.37 295.48
L 267.18 295.50
C 272.03 295.52 280.06 300.09 289.48 308.21
C 293.54 311.70 302.97 318.49 310.44 323.28
C 334.50 338.68 348.96 351.77 345.63 355.10
C 344.70 356.03 346.42 359.03 351.29 364.93
C 358.63 373.79 359.27 375.29 356.80 377.75
C 355.68 378.88 356.54 380.70 360.36 385.20
C 370.26 396.88 371.46 398.59 370.63 399.94
C 370.17 400.68 368.70 401.29 367.36 401.29
C 366.01 401.29 364.62 401.79 364.24 402.40
C 363.85 403.01 367.07 410.30 371.39 418.58
C 375.70 426.88 378.91 434.50 378.51 435.54
C 377.49 438.19 372.92 437.87 367.94 434.80
C 363.63 432.14 357.44 423.42 354.46 415.81
C 352.48 410.77 351.44 410.57 349.48 414.84
C 346.97 420.34 344.26 418.55 341.54 409.68
C 336.24 392.27 326.43 370.45 319.90 361.54
C 315.88 356.03 307.66 347.10 306.63 347.10
C 306.24 347.10 305.86 353.92 305.81 362.26
C 305.76 370.59 304.95 386.80 303.99 398.27
L 302.28 419.14
L 309.05 426.66
C 321.08 440.06 330.84 464.81 334.04 490.03
C 335.71 503.25 334.84 506.70 329.99 506.14
C 326.69 505.77 326.70 504.65 329.86 518.12
C 331.28 524.23 332.12 529.77 331.72 530.43
C 330.61 532.22 328.38 531.86 325.73 529.47
C 324.43 528.30 323.04 527.64 322.67 528.03
C 322.28 528.41 322.60 534.98 323.38 542.62
C 325.00 558.40 324.44 560.00 318.23 557.43
C 316.04 556.53 313.99 556.04 313.68 556.34
C 313.37 556.65 320.09 565.29 328.62 575.55
C 344.86 595.11 346.68 598.98 339.92 599.75
C 331.81 600.70 304.73 578.06 294.08 561.47
C 293.91 561.23 290.45 562.81 286.36 565.02
C 275.17 571.07 272.32 570.06 276.66 561.59
C 282.70 549.78 293.96 521.68 296.28 512.65
C 300.51 496.14 299.36 471.17 293.68 456.27
L 292.26 452.54
L 287.77 459.97
C 278.93 474.62 266.40 488.09 252.31 498.12
C 249.87 499.87 241.47 504.49 233.66 508.39
C 220.00 515.21 219.32 515.75 215.82 522.52
C 211.89 530.10 202.00 541.01 196.36 543.97
C 188.85 547.91 182.71 545.77 172.98 535.85
C 169.59 532.37 165.18 526.39 163.18 522.52
C 159.68 515.75 159.00 515.21 145.34 508.39
C 137.53 504.49 129.13 499.87 126.69 498.12
C 112.60 488.09 100.07 474.62 91.23 459.97
L 86.74 452.54
L 85.32 456.27
C 79.64 471.17 78.49 496.14 82.72 512.65
C 85.04 521.68 96.30 549.78 102.34 561.59
C 106.68 570.06 103.83 571.07 92.64 565.02
C 88.55 562.81 85.09 561.23 84.92 561.47
C 72.24 581.23 41.48 604.81 35.79 599.14
M 52.54 586.89
C 59.29 581.83 68.66 572.39 75.36 563.87
C 78.98 559.26 82.40 554.97 82.95 554.32
C 83.52 553.66 85.41 554.13 87.36 555.39
C 89.24 556.62 91.06 557.34 91.41 556.98
C 91.76 556.63 90.79 553.54 89.24 550.10
C 86.51 544.08 85.28 540.83 77.87 520.00
C 74.67 511.01 74.43 508.81 74.43 489.03
C 74.44 468.44 74.57 467.35 78.56 455.88
C 82.63 444.19 82.66 443.95 80.62 437.82
C 79.49 434.41 78.13 431.14 77.61 430.55
C 76.16 428.95 69.13 438.17 63.49 449.03
C 57.15 461.25 53.25 473.86 52.19 485.64
L 51.35 494.84
L 54.09 492.43
C 55.60 491.10 57.72 490.35 58.80 490.77
C 61.51 491.81 61.31 496.71 58.12 507.41
C 55.34 516.71 55.50 518.90 58.76 516.21
C 62.68 512.95 63.63 515.95 62.80 528.85
C 62.35 535.69 61.70 543.17 61.34 545.48
C 60.56 550.43 62.15 550.84 69.18 547.50
C 76.29 544.12 77.31 546.50 72.66 555.65
C 67.86 565.08 63.29 571.35 53.75 581.64
C 46.20 589.77 45.69 592.01 52.54 586.89
M 325.25 581.64
C 315.71 571.35 311.14 565.08 306.34 555.65
C 301.69 546.50 302.71 544.12 309.82 547.50
C 316.85 550.84 318.44 550.43 317.66 545.48
C 317.30 543.17 316.65 535.69 316.20 528.85
C 315.37 515.95 316.32 512.95 320.24 516.21
C 323.50 518.90 323.66 516.71 320.88 507.41
C 317.69 496.71 317.49 491.81 320.20 490.77
C 321.28 490.35 323.40 491.10 324.91 492.43
L 327.65 494.84
L 326.81 485.64
C 325.75 473.86 321.85 461.25 315.51 449.03
C 309.87 438.17 302.84 428.95 301.39 430.55
C 300.87 431.14 299.51 434.41 298.38 437.82
C 296.34 443.95 296.37 444.19 300.44 455.88
C 304.43 467.35 304.56 468.44 304.57 489.03
C 304.57 508.81 304.33 511.01 301.13 520.00
C 293.72 540.83 292.49 544.08 289.76 550.10
C 288.21 553.54 287.24 556.63 287.59 556.98
C 287.94 557.34 289.76 556.62 291.64 555.39
C 293.59 554.13 295.48 553.66 296.05 554.32
C 296.60 554.97 300.02 559.26 303.64 563.87
C 312.93 575.68 328.01 589.68 331.45 589.68
C 332.15 589.68 329.35 586.06 325.25 581.64
M 193.83 537.52
C 200.65 534.00 212.74 518.88 210.51 516.66
C 210.09 516.25 205.28 516.63 199.81 517.51
C 191.93 518.77 187.70 518.79 179.53 517.54
C 173.84 516.67 168.87 516.28 168.47 516.68
C 166.33 518.80 177.08 532.55 184.33 536.98
C 189.00 539.83 189.32 539.85 193.83 537.52
M 186.27 422.77
L 186.27 334.57
L 179.48 328.19
C 166.55 316.05 153.02 308.41 137.42 304.43
C 124.28 301.07 112.68 301.15 105.84 304.63
C 94.28 310.52 84.73 323.43 81.36 337.69
C 78.23 351.01 80.62 411.92 84.98 429.45
C 86.10 433.94 89.17 442.06 91.84 447.51
C 109.47 483.65 146.50 509.82 181.42 510.83
L 186.27 510.97
L 186.27 422.77
M 210.79 509.05
C 247.32 502.63 284.74 466.84 294.02 429.45
C 298.38 411.92 300.77 351.01 297.64 337.69
C 294.27 323.43 284.72 310.52 273.16 304.63
C 266.32 301.15 254.72 301.07 241.58 304.43
C 225.98 308.41 212.45 316.05 199.52 328.19
L 192.73 334.57
L 192.73 422.77
L 192.73 510.97
L 196.29 510.97
C 198.24 510.97 204.78 510.10 210.79 509.05
M 19.33 413.97
C 24.10 405.48 25.95 403.25 28.17 403.33
C 30.38 403.41 31.47 402.14 33.15 397.52
C 42.80 371.08 49.61 359.29 62.31 346.92
C 68.62 340.77 72.44 336.03 72.44 334.34
C 72.44 332.84 71.89 331.61 71.22 331.61
C 69.28 331.61 52.83 343.10 47.54 348.14
C 44.87 350.70 42.69 353.54 42.69 354.45
C 42.69 355.37 40.78 358.30 38.44 360.97
C 30.41 370.15 30.38 370.21 33.05 372.15
C 35.30 373.79 34.95 374.49 27.42 383.33
C 19.47 392.68 18.20 395.24 20.70 396.77
C 23.24 398.35 21.91 405.10 17.33 413.77
C 14.77 418.62 11.58 423.78 10.22 425.24
C 6.83 428.92 7.10 430.90 10.53 427.48
C 12.06 425.96 16.01 419.88 19.33 413.97
M 369.00 425.48
C 367.53 423.88 364.23 418.62 361.67 413.77
C 357.09 405.10 355.76 398.35 358.30 396.77
C 360.80 395.24 359.53 392.68 351.58 383.33
C 344.05 374.49 343.70 373.79 345.95 372.15
C 348.62 370.21 348.59 370.15 340.56 360.97
C 338.22 358.30 336.31 355.37 336.31 354.45
C 336.31 353.54 334.13 350.70 331.46 348.14
C 326.17 343.10 309.72 331.61 307.78 331.61
C 307.11 331.61 306.56 332.84 306.56 334.34
C 306.56 336.03 310.38 340.77 316.69 346.92
C 329.39 359.29 336.20 371.08 345.85 397.52
C 347.53 402.14 348.62 403.41 350.83 403.33
C 353.05 403.25 354.89 405.45 359.55 413.75
C 365.59 424.53 369.85 430.21 371.02 429.03
C 371.38 428.67 370.48 427.07 369.00 425.48
M 210.34 310.75
L 216.96 306.43
L 189.49 306.43
L 162.01 306.43
L 169.28 311.20
C 173.29 313.83 179.46 318.54 183.02 321.69
L 189.46 327.39
L 196.60 321.23
C 200.52 317.85 206.70 313.12 210.34 310.75
M 228.80 297.32
C 238.34 296.18 247.36 294.32 251.14 292.70
C 258.64 289.47 267.43 280.19 270.64 272.09
L 272.88 266.45
L 262.86 232.26
C 251.41 193.24 254.14 196.65 237.36 200.48
C 230.14 202.12 220.43 202.54 189.50 202.54
C 158.57 202.54 148.86 202.12 141.64 200.48
C 124.86 196.65 127.59 193.24 116.14 232.26
L 106.12 266.45
L 108.36 272.09
C 111.58 280.21 120.36 289.47 127.88 292.71
C 133.76 295.23 155.22 298.50 174.62 299.83
C 185.74 300.58 211.21 299.41 228.80 297.32
M 108.53 232.06
C 109.31 229.83 109.95 227.51 109.95 226.90
C 109.95 226.30 100.01 225.81 87.87 225.81
C 75.13 225.81 64.74 225.24 63.29 224.46
C 57.74 221.51 61.16 209.88 77.47 176.13
C 95.56 138.72 108.63 117.95 131.63 90.04
L 146.81 71.61
L 146.75 52.90
C 146.68 35.34 146.45 33.65 142.99 25.33
C 139.31 16.48 129.52 4.36 128.46 7.33
C 128.15 8.15 129.04 11.07 130.44 13.79
C 139.51 31.52 140.81 52.06 133.79 66.45
C 129.55 75.12 126.32 76.81 122.83 72.18
C 120.13 68.61 120.67 67.73 111.24 90.32
C 107.54 99.20 103.92 107.17 103.20 108.06
C 101.06 110.66 98.53 109.94 96.46 106.13
C 95.40 104.18 94.45 102.86 94.35 103.23
C 94.26 103.59 92.34 111.12 90.09 120.00
C 86.78 133.14 85.55 136.22 83.52 136.59
C 82.14 136.85 80.25 136.01 79.33 134.75
C 78.40 133.48 77.27 132.81 76.82 133.26
C 76.37 133.72 73.81 140.35 71.13 148.01
C 68.47 155.66 62.05 172.97 56.90 186.45
C 44.98 217.59 42.47 225.68 43.42 229.66
C 44.96 236.13 44.96 236.13 76.99 236.13
L 107.10 236.13
L 108.53 232.06
M 334.81 231.81
C 337.10 227.03 336.24 223.86 323.00 189.03
C 317.35 174.13 310.53 155.66 307.86 148.01
C 305.19 140.35 302.63 133.72 302.18 133.26
C 301.73 132.81 300.60 133.48 299.67 134.75
C 298.75 136.01 296.86 136.85 295.48 136.59
C 293.45 136.22 292.22 133.14 288.91 120.00
C 286.66 111.12 284.74 103.59 284.65 103.23
C 284.55 102.86 283.60 104.18 282.54 106.13
C 280.47 109.94 277.94 110.66 275.80 108.06
C 275.08 107.17 271.46 99.20 267.76 90.32
C 258.33 67.73 258.87 68.61 256.17 72.18
C 252.68 76.81 249.45 75.12 245.21 66.45
C 238.19 52.06 239.49 31.52 248.56 13.79
C 249.96 11.07 250.85 8.15 250.54 7.33
C 249.48 4.36 239.69 16.48 236.01 25.33
C 232.55 33.65 232.32 35.34 232.25 52.90
L 232.19 71.61
L 247.37 90.04
C 270.37 117.95 283.44 138.72 301.53 176.13
C 317.84 209.88 321.26 221.51 315.71 224.46
C 314.26 225.24 303.87 225.81 291.13 225.81
C 278.99 225.81 269.05 226.30 269.05 226.90
C 269.05 227.51 269.70 229.85 270.47 232.09
L 271.91 236.18
L 302.48 235.83
L 333.04 235.48
L 334.81 231.81
M 237.11 194.09
C 239.00 192.98 239.13 192.45 237.76 191.38
C 235.95 189.95 221.76 186.25 201.76 181.97
L 189.44 179.34
L 177.19 181.97
C 144.94 188.90 134.80 192.43 142.40 194.06
C 144.12 194.44 146.68 195.01 148.11 195.33
C 153.64 196.59 234.79 195.47 237.11 194.09
M 163.63 178.04
C 170.03 176.70 178.57 174.88 182.59 174.00
C 189.24 172.57 191.34 172.74 205.23 175.86
C 241.29 183.96 242.87 183.77 240.62 171.55
C 238.32 159.08 236.16 153.25 233.09 151.25
C 230.40 149.48 229.19 149.56 220.16 152.18
C 214.68 153.77 205.49 156.27 199.73 157.74
L 189.28 160.43
L 179.04 157.73
C 173.41 156.25 164.32 153.74 158.84 152.17
C 149.81 149.56 148.60 149.48 145.91 151.25
C 142.86 153.25 140.68 159.08 138.39 171.48
C 136.22 183.23 137.38 183.54 163.63 178.04
M 200.16 152.17
C 210.39 149.46 230.09 143.34 231.89 142.31
C 235.10 140.50 216.83 115.37 209.59 111.63
C 205.53 109.54 204.85 109.92 202.38 115.82
C 200.46 120.41 196.33 122.58 189.50 122.58
C 182.67 122.58 178.54 120.41 176.62 115.82
C 175.65 113.51 174.43 111.20 173.93 110.70
C 170.89 107.69 156.88 121.60 150.02 134.44
L 146.01 141.94
L 149.18 143.15
C 155.40 145.50 185.99 154.49 188.52 154.71
C 189.40 154.77 194.64 153.64 200.16 152.17"/>
<path fill="#000000" stroke="none" d="
M 148.77 173.29
C 139.45 168.49 140.66 158.49 150.98 154.90
C 155.67 153.28 157.11 153.28 162.56 154.97
C 169.71 157.19 172.93 161.43 171.57 166.85
C 169.75 174.09 157.19 177.64 148.77 173.29
M 162.89 166.88
L 165.97 164.74
L 163.03 162.36
C 161.43 161.07 158.78 160.00 157.16 160.00
C 155.55 160.00 152.89 161.07 151.29 162.36
L 148.35 164.74
L 151.43 166.88
C 153.13 168.06 155.70 169.03 157.16 169.03
C 158.62 169.03 161.20 168.06 162.89 166.88"/>
<path fill="#000000" stroke="none" d="
M 213.44 173.29
C 203.70 168.27 205.32 158.41 216.44 154.97
C 221.89 153.28 223.33 153.28 228.02 154.90
C 234.32 157.10 237.53 161.75 236.25 166.85
C 234.42 174.09 221.86 177.64 213.44 173.29
M 227.57 166.88
L 230.65 164.74
L 227.71 162.36
C 226.11 161.07 223.45 160.00 221.84 160.00
C 220.22 160.00 217.57 161.07 215.97 162.36
L 213.03 164.74
L 216.11 166.88
C 217.80 168.06 220.38 169.03 221.84 169.03
C 223.30 169.03 225.87 168.06 227.57 166.88"/>
<path fill="#050000" stroke="none" d="
M 53.75 581.64
C 63.29 571.35 67.86 565.08 72.66 555.65
C 77.31 546.50 76.29 544.12 69.18 547.50
C 62.15 550.84 60.56 550.43 61.34 545.48
C 61.70 543.17 62.35 535.69 62.80 528.85
C 63.63 515.95 62.68 512.95 58.76 516.21
C 55.50 518.90 55.34 516.71 58.12 507.41
C 61.31 496.71 61.51 491.81 58.80 490.77
C 57.72 490.35 55.60 491.10 54.09 492.43
L 51.35 494.84
L 52.19 485.64
C 53.25 473.86 57.15 461.25 63.49 449.03
C 69.13 438.17 76.16 428.95 77.61 430.55
C 78.13 431.14 79.49 434.41 80.62 437.82
C 82.66 443.95 82.63 444.19 78.56 455.88
C 74.57 467.35 74.44 468.44 74.43 489.03
C 74.43 508.81 74.67 511.01 77.87 520.00
C 85.28 540.83 86.51 544.08 89.24 550.10
C 90.79 553.54 91.76 556.63 91.41 556.98
C 91.06 557.34 89.24 556.62 87.36 555.39
C 85.41 554.13 83.52 553.66 82.95 554.32
C 82.40 554.97 78.98 559.26 75.36 563.87
C 66.07 575.68 50.99 589.68 47.55 589.68
C 46.85 589.68 49.65 586.06 53.75 581.64"/>
<path fill="#050000" stroke="none" d="
M 326.46 586.89
C 319.71 581.83 310.34 572.39 303.64 563.87
C 300.02 559.26 296.60 554.97 296.05 554.32
C 295.48 553.66 293.59 554.13 291.64 555.39
C 289.76 556.62 287.94 557.34 287.59 556.98
C 287.24 556.63 288.21 553.54 289.76 550.10
C 292.49 544.08 293.72 540.83 301.13 520.00
C 304.33 511.01 304.57 508.81 304.57 489.03
C 304.56 468.44 304.43 467.35 300.44 455.88
C 296.37 444.19 296.34 443.95 298.38 437.82
C 299.51 434.41 300.87 431.14 301.39 430.55
C 302.84 428.95 309.87 438.17 315.51 449.03
C 321.85 461.25 325.75 473.86 326.81 485.64
L 327.65 494.84
L 324.91 492.43
C 323.40 491.10 321.28 490.35 320.20 490.77
C 317.49 491.81 317.69 496.71 320.88 507.41
C 323.66 516.71 323.50 518.90 320.24 516.21
C 316.32 512.95 315.37 515.95 316.20 528.85
C 316.65 535.69 317.30 543.17 317.66 545.48
C 318.44 550.43 316.85 550.84 309.82 547.50
C 302.71 544.12 301.69 546.50 306.34 555.65
C 311.14 565.08 315.71 571.35 325.25 581.64
C 332.80 589.77 333.31 592.01 326.46 586.89"/>
<path fill="#050000" stroke="none" d="
M 7.76 429.08
C 7.76 428.44 8.87 426.71 10.22 425.24
C 11.58 423.78 14.77 418.62 17.33 413.77
C 21.91 405.10 23.24 398.35 20.70 396.77
C 18.20 395.24 19.47 392.68 27.42 383.33
C 34.95 374.49 35.30 373.79 33.05 372.15
C 30.38 370.21 30.41 370.15 38.44 360.97
C 40.78 358.30 42.69 355.37 42.69 354.45
C 42.69 353.54 44.87 350.70 47.54 348.14
C 52.83 343.10 69.28 331.61 71.22 331.61
C 71.89 331.61 72.44 332.84 72.44 334.34
C 72.44 336.03 68.62 340.77 62.31 346.92
C 49.61 359.29 42.80 371.08 33.15 397.52
C 31.47 402.14 30.38 403.41 28.17 403.33
C 25.95 403.25 24.10 405.48 19.33 413.97
C 13.71 424.00 7.76 431.77 7.76 429.08"/>
<path fill="#050000" stroke="none" d="
M 367.90 426.99
C 366.56 425.50 362.79 419.55 359.55 413.75
C 354.89 405.45 353.05 403.25 350.83 403.33
C 348.62 403.41 347.53 402.14 345.85 397.52
C 336.20 371.08 329.39 359.29 316.69 346.92
C 310.38 340.77 306.56 336.03 306.56 334.34
C 306.56 332.84 307.11 331.61 307.78 331.61
C 309.72 331.61 326.17 343.10 331.46 348.14
C 334.13 350.70 336.31 353.54 336.31 354.45
C 336.31 355.37 338.22 358.30 340.56 360.97
C 348.59 370.15 348.62 370.21 345.95 372.15
C 343.70 373.79 344.05 374.49 351.58 383.33
C 359.53 392.68 360.80 395.24 358.30 396.77
C 355.76 398.35 357.09 405.10 361.67 413.77
C 364.23 418.62 367.53 423.88 369.00 425.48
C 370.48 427.07 371.38 428.67 371.02 429.03
C 370.66 429.39 369.26 428.48 367.90 426.99"/>
<path fill="#050000" stroke="none" d="
M 45.53 234.50
C 41.19 229.28 42.26 224.70 56.90 186.45
C 62.05 172.97 68.47 155.66 71.13 148.01
C 73.81 140.35 76.37 133.72 76.82 133.26
C 77.27 132.81 78.40 133.48 79.33 134.75
C 80.25 136.01 82.14 136.85 83.52 136.59
C 85.55 136.22 86.78 133.14 90.09 120.00
C 92.34 111.12 94.26 103.59 94.35 103.23
C 94.45 102.86 95.40 104.18 96.46 106.13
C 98.53 109.94 101.06 110.66 103.20 108.06
C 103.92 107.17 107.54 99.20 111.24 90.32
C 120.67 67.73 120.13 68.61 122.83 72.18
C 126.32 76.81 129.55 75.12 133.79 66.45
C 140.79 52.12 139.51 31.52 130.52 13.94
C 127.57 8.18 127.53 7.74 129.91 7.74
C 132.84 7.74 139.31 16.53 143.15 25.73
C 146.43 33.59 146.68 35.55 146.75 52.90
L 146.81 71.61
L 131.63 90.04
C 108.63 117.95 95.56 138.72 77.47 176.13
C 61.16 209.88 57.74 221.51 63.29 224.46
C 64.74 225.24 75.13 225.81 87.87 225.81
C 100.01 225.81 109.95 226.30 109.95 226.90
C 109.95 227.51 109.31 229.83 108.53 232.06
L 107.10 236.13
L 76.99 236.13
C 54.42 236.13 46.54 235.73 45.53 234.50"/>
<path fill="#050000" stroke="none" d="
M 270.47 232.09
C 269.70 229.85 269.05 227.51 269.05 226.90
C 269.05 226.30 278.99 225.81 291.13 225.81
C 303.87 225.81 314.26 225.24 315.71 224.46
C 321.26 221.51 317.84 209.88 301.53 176.13
C 283.44 138.72 270.37 117.95 247.37 90.04
L 232.19 71.61
L 232.25 52.90
C 232.32 35.34 232.55 33.65 236.01 25.33
C 239.69 16.48 249.48 4.36 250.54 7.33
C 250.85 8.15 249.96 11.07 248.56 13.79
C 239.49 31.52 238.19 52.06 245.21 66.45
C 249.45 75.12 252.68 76.81 256.17 72.18
C 258.87 68.61 258.33 67.73 267.76 90.32
C 271.46 99.20 275.08 107.17 275.80 108.06
C 277.94 110.66 280.47 109.94 282.54 106.13
C 283.60 104.18 284.55 102.86 284.65 103.23
C 284.74 103.59 286.66 111.12 288.91 120.00
C 292.22 133.14 293.45 136.22 295.48 136.59
C 296.86 136.85 298.75 136.01 299.67 134.75
C 300.60 133.48 301.73 132.81 302.18 133.26
C 302.63 133.72 305.19 140.35 307.86 148.01
C 310.53 155.66 317.35 174.13 323.00 189.03
C 336.24 223.86 337.10 227.03 334.81 231.81
L 333.04 235.48
L 302.48 235.83
L 271.91 236.18
L 270.47 232.09"/>
<path fill="#764444" stroke="none" d="
M 148.11 195.33
C 146.68 195.01 144.12 194.44 142.40 194.06
C 134.80 192.43 144.94 188.90 177.19 181.97
L 189.44 179.34
L 201.76 181.97
C 221.76 186.25 235.95 189.95 237.76 191.38
C 242.04 194.74 234.23 195.48 192.73 195.70
C 169.61 195.82 149.53 195.65 148.11 195.33"/>
<path fill="#764444" stroke="none" d="
M 138.65 180.30
C 135.68 176.72 141.29 154.27 145.91 151.25
C 148.60 149.48 149.81 149.56 158.84 152.17
C 164.32 153.74 173.41 156.25 179.04 157.73
L 189.28 160.43
L 199.73 157.74
C 205.49 156.27 214.68 153.77 220.16 152.18
C 229.19 149.56 230.40 149.48 233.09 151.25
C 236.16 153.25 238.32 159.08 240.62 171.55
C 242.87 183.77 241.29 183.96 205.23 175.86
C 191.34 172.74 189.24 172.57 182.59 174.00
C 145.64 182.01 140.67 182.72 138.65 180.30
M 167.47 172.40
C 175.22 167.34 172.62 158.08 162.56 154.97
C 157.11 153.28 155.67 153.28 150.98 154.90
C 140.66 158.49 139.45 168.49 148.77 173.29
C 154.07 176.03 162.54 175.63 167.47 172.40
M 232.15 172.40
C 239.51 167.59 237.28 158.13 228.02 154.90
C 223.33 153.28 221.89 153.28 216.44 154.97
C 208.86 157.32 205.72 161.74 207.66 167.33
C 210.29 174.85 224.04 177.70 232.15 172.40"/>
<path fill="#764444" stroke="none" d="
M 180.45 152.71
C 168.04 149.15 152.32 144.34 149.18 143.15
L 146.01 141.94
L 150.27 133.97
C 155.57 124.05 167.78 110.97 171.73 110.97
C 173.77 110.97 175.13 112.26 176.49 115.50
C 180.52 125.12 198.39 125.34 202.38 115.82
C 204.85 109.92 205.53 109.54 209.59 111.63
C 216.83 115.37 235.10 140.50 231.89 142.31
C 228.07 144.48 191.41 154.94 188.52 154.71
C 187.64 154.63 184.00 153.73 180.45 152.71"/>
<path fill="#eb2e00" stroke="none" d="
M 151.56 166.98
C 149.31 165.41 148.96 164.53 150.07 163.19
C 152.61 160.14 158.87 159.55 162.62 162.00
L 166.05 164.25
L 163.07 166.63
C 159.44 169.57 155.45 169.69 151.56 166.98"/>
<path fill="#eb2e00" stroke="none" d="
M 216.11 166.88
L 213.03 164.74
L 215.97 162.36
C 217.57 161.07 220.22 160.00 221.84 160.00
C 223.45 160.00 226.11 161.07 227.71 162.36
L 230.65 164.74
L 227.57 166.88
C 225.87 168.06 223.30 169.03 221.84 169.03
C 220.38 169.03 217.80 168.06 216.11 166.88"/>
<path fill="#a96645" stroke="none" d="
M 174.62 299.83
C 155.33 298.50 133.76 295.23 127.95 292.74
C 120.41 289.50 112.54 281.35 108.81 272.94
L 106.08 266.81
L 115.99 232.79
C 122.94 208.92 126.51 198.55 127.94 198.10
C 129.07 197.75 132.91 198.44 136.47 199.63
C 146.43 202.95 222.89 203.68 236.71 200.58
C 254.27 196.65 251.38 193.16 262.86 232.26
L 272.88 266.45
L 270.64 272.09
C 267.43 280.19 258.64 289.47 251.14 292.70
C 240.81 297.12 196.08 301.29 174.62 299.83"/>
<path fill="#9b4f31" stroke="none" d="
M 184.33 536.98
C 177.08 532.55 166.33 518.80 168.47 516.68
C 168.87 516.28 173.84 516.67 179.53 517.54
C 187.70 518.79 191.93 518.77 199.81 517.51
C 205.28 516.63 210.09 516.25 210.51 516.66
C 213.65 519.79 195.28 539.38 189.24 539.35
C 188.67 539.34 186.46 538.28 184.33 536.98"/>
<path fill="#9b4f31" stroke="none" d="
M 167.01 508.94
C 131.60 502.50 94.09 466.15 84.98 429.45
C 80.62 411.92 78.23 351.01 81.36 337.69
C 84.79 323.16 94.96 309.65 106.39 304.48
C 113.56 301.24 124.84 301.23 137.42 304.43
C 153.02 308.41 166.55 316.05 179.48 328.19
L 186.27 334.57
L 186.27 422.77
L 186.27 510.97
L 181.42 510.83
C 178.75 510.75 172.26 509.91 167.01 508.94"/>
<path fill="#9b4f31" stroke="none" d="
M 192.73 422.77
L 192.73 334.57
L 199.52 328.19
C 212.45 316.05 225.98 308.41 241.58 304.43
C 254.72 301.07 266.32 301.15 273.16 304.63
C 284.72 310.52 294.27 323.43 297.64 337.69
C 300.77 351.01 298.38 411.92 294.02 429.45
C 284.74 466.84 247.32 502.63 210.79 509.05
C 204.78 510.10 198.24 510.97 196.29 510.97
L 192.73 510.97
L 192.73 422.77"/>
<path fill="#070000" stroke="none" d="
M 183.02 321.69
C 179.46 318.57 173.51 313.97 169.77 311.48
C 166.04 308.99 162.98 306.84 162.98 306.71
C 162.98 306.57 175.14 306.44 189.99 306.43
L 217.00 306.40
L 210.36 310.74
C 206.72 313.12 200.52 317.85 196.60 321.23
L 189.46 327.39
L 183.02 321.69"/>
</g>
</svg>
