<?xml version="1.0" encoding="UTF-8" standalone="no"?>
<!DOCTYPE svg PUBLIC "-//W3C//DTD SVG 1.1//EN"
"http://www.w3.org/Graphics/SVG/1.1/DTD/svg11.dtd">
<svg width="355px" height="600px"
xmlns="http://www.w3.org/2000/svg" version="1.1">
<g transform="translate(0000, 0000) scale(1.0000, 1.0000)">
<path fill="#000000" stroke="none" d="
M 329.91 597.05
C 321.73 595.58 308.35 592.16 300.17 589.49
C 283.11 583.89 242.39 565.28 219.51 552.63
C 116.33 495.55 46.65 401.05 13.98 273.99
C 3.09 231.64 0.97 213.94 1.08 166.25
C 1.17 117.86 4.59 89.55 15.63 45.81
C 23.34 15.14 27.90 4.48 34.51 1.45
C 39.16 -0.65 39.92 -0.35 44.98 5.63
C 47.97 9.18 53.49 18.76 57.26 26.93
C 70.65 56.06 94.72 103.37 104.72 120.19
C 118.95 144.09 133.67 163.24 154.25 184.59
C 176.79 207.98 194.97 222.84 215.29 234.46
C 224.15 239.55 232.65 244.77 234.19 246.09
C 235.73 247.41 240.62 250.31 245.06 252.56
C 253.93 257.00 253.72 255.59 248.30 274.61
C 242.92 293.48 240.95 320.99 243.33 343.97
C 252.57 433.13 291.42 524.01 343.38 578.01
C 352.30 587.28 355.15 591.49 354.68 594.72
C 353.90 600.22 349.61 600.61 329.91 597.05
M 328.98 584.02
C 328.98 583.43 325.54 579.03 321.36 574.27
C 310.00 561.42 290.17 530.99 279.19 509.61
C 259.15 470.56 243.95 424.24 235.90 377.70
C 231.10 349.97 230.14 299.98 234.04 281.74
C 235.32 275.78 235.90 268.98 235.30 266.64
C 234.26 262.50 222.55 254.08 201.66 242.41
C 170.60 225.10 129.12 183.05 101.85 141.23
C 89.46 122.23 58.99 64.22 49.51 41.55
C 46.89 35.31 42.88 27.01 40.59 23.15
C 36.54 16.27 36.41 16.22 35.13 20.60
C 1.41 134.69 3.88 222.30 43.70 326.01
C 65.55 382.92 98.34 434.21 138.62 474.46
C 160.08 495.92 193.06 521.68 216.53 535.37
C 240.56 549.38 287.83 571.78 307.73 578.58
C 327.55 585.36 328.98 585.73 328.98 584.02"/>
<path fill="#f1ddd8" stroke="none" d="
M 307.73 578.58
C 287.83 571.78 240.56 549.38 216.53 535.37
C 193.06 521.68 160.08 495.92 138.62 474.46
C 98.34 434.21 65.55 382.92 43.70 326.01
C 16.28 254.64 6.43 188.10 13.83 124.46
C 17.17 95.74 24.11 58.87 29.66 40.18
C 31.54 33.92 33.59 26.49 34.22 23.68
C 34.87 20.88 36.11 18.58 37.01 18.58
C 37.90 18.58 41.43 24.63 44.87 32.04
C 63.05 71.26 90.55 123.98 101.78 141.18
C 129.19 183.12 170.60 225.10 201.66 242.41
C 222.55 254.08 234.26 262.50 235.30 266.64
C 235.90 268.98 235.32 275.78 234.04 281.74
C 230.14 299.98 231.10 349.97 235.90 377.70
C 243.95 424.24 259.15 470.56 279.19 509.61
C 290.17 530.99 310.00 561.42 321.36 574.27
C 332.88 587.35 333.12 587.28 307.73 578.58"/>
</g>
</svg>
