<?xml version="1.0" encoding="UTF-8" standalone="no"?>
<!DOCTYPE svg PUBLIC "-//W3C//DTD SVG 1.1//EN"
"http://www.w3.org/Graphics/SVG/1.1/DTD/svg11.dtd">
<svg width="355px" height="600px"
xmlns="http://www.w3.org/2000/svg" version="1.1">
<g transform="translate(0000, 0000) scale(1.0000, 1.0000)">
<path fill="#000000" stroke="none" d="
M 1.25 598.76
C -2.14 595.39 0.76 588.89 9.44 580.42
C 20.91 569.24 41.00 542.79 52.45 523.78
C 83.81 471.75 105.14 406.96 111.67 343.97
C 114.05 320.99 112.08 293.48 106.70 274.61
C 101.28 255.59 101.07 257.00 109.94 252.56
C 114.38 250.31 119.27 247.41 120.81 246.09
C 122.35 244.77 130.85 239.55 139.71 234.46
C 178.78 212.10 222.65 166.74 250.25 120.19
C 262.53 99.46 283.20 59.07 293.57 35.48
C 315.62 -14.54 325.39 -11.68 340.28 49.17
C 350.60 91.37 353.83 119.00 353.92 166.25
C 354.03 213.94 351.91 231.64 341.02 273.99
C 320.00 355.80 283.89 423.83 233.15 477.25
C 194.93 517.47 155.70 544.61 94.79 572.93
C 64.94 586.83 45.80 593.33 23.46 597.16
C 4.81 600.37 2.97 600.50 1.25 598.76
M 44.76 579.42
C 65.37 572.69 122.58 545.29 144.62 531.60
C 195.32 500.14 242.33 452.92 274.56 401.11
C 304.07 353.67 329.03 285.55 339.20 224.75
C 347.88 172.85 343.03 106.01 325.97 42.72
C 317.90 12.84 319.20 15.03 314.41 23.15
C 312.12 27.01 308.11 35.31 305.49 41.55
C 296.01 64.22 265.54 122.23 253.15 141.23
C 225.88 183.05 184.40 225.10 153.34 242.41
C 132.45 254.08 120.74 262.50 119.70 266.64
C 119.10 268.98 119.68 275.78 120.96 281.74
C 124.86 299.98 123.90 349.97 119.10 377.70
C 111.05 424.24 95.85 470.56 75.81 509.61
C 64.83 530.99 45.00 561.42 33.64 574.27
C 26.82 582.02 24.79 585.14 26.63 585.14
C 26.97 585.14 35.11 582.56 44.76 579.42"/>
<path fill="#f1ddd8" stroke="none" d="
M 26.02 584.02
C 26.02 583.43 29.46 579.03 33.64 574.27
C 45.00 561.42 64.83 530.99 75.81 509.61
C 95.85 470.56 111.05 424.24 119.10 377.70
C 123.90 349.97 124.86 299.98 120.96 281.74
C 119.68 275.78 119.10 268.98 119.70 266.64
C 120.74 262.50 132.45 254.08 153.34 242.41
C 184.40 225.10 225.81 183.12 253.22 141.18
C 264.45 123.98 291.95 71.26 310.13 32.04
C 313.57 24.63 317.10 18.58 317.99 18.58
C 318.89 18.58 320.13 20.88 320.78 23.68
C 321.41 26.49 323.46 33.92 325.34 40.18
C 330.89 58.87 337.83 95.74 341.17 124.46
C 348.57 188.10 338.72 254.64 311.30 326.01
C 302.47 349.02 285.91 382.85 274.56 401.11
C 242.33 452.92 195.32 500.14 144.62 531.60
C 122.58 545.29 65.37 572.69 44.76 579.42
C 25.41 585.73 26.02 585.59 26.02 584.02"/>
</g>
</svg>
