<?xml version="1.0" encoding="UTF-8" standalone="no"?>
<!DOCTYPE svg PUBLIC "-//W3C//DTD SVG 1.1//EN"
"http://www.w3.org/Graphics/SVG/1.1/DTD/svg11.dtd">
<svg width="600px" height="338px"
xmlns="http://www.w3.org/2000/svg" version="1.1">
<g transform="translate(0000, 0000) scale(1.0000, 1.0000)">
<path fill="#000000" stroke="none" d="
M 6.43 335.85
C -3.05 329.19 -0.62 316.35 12.38 304.45
C 20.89 296.66 47.20 282.44 68.55 274.12
C 95.54 263.60 169.24 237.81 182.80 234.15
C 224.71 222.84 259.11 223.09 296.26 234.95
C 303.98 237.43 323.91 244.61 340.54 250.95
C 393.23 271.01 408.72 274.53 444.10 274.53
C 516.04 274.53 557.28 252.22 559.87 211.88
C 560.46 202.71 560.05 199.88 557.32 194.24
C 549.69 178.46 531.74 167.89 487.67 153.25
C 456.10 142.77 455.35 142.79 448.50 154.39
C 437.84 172.44 424.75 184.69 405.41 194.68
C 392.58 201.32 380.40 204.34 356.76 206.74
C 334.25 209.01 316.36 207.69 286.44 201.52
C 220.61 187.95 168.29 169.84 114.44 142.00
C 54.57 111.05 5.78 71.48 9.43 56.87
C 12.35 45.25 48.03 31.73 106.88 19.96
C 175.70 6.17 224.31 0.99 286.00 0.87
C 333.24 0.77 332.96 0.74 363.45 10.35
C 383.54 16.68 417.15 33.52 428.99 43.20
C 442.92 54.58 451.53 66.64 454.66 79.11
C 458.51 94.48 461.84 101.06 466.76 102.98
C 469.09 103.88 478.60 106.03 487.89 107.76
C 516.99 113.18 543.24 122.79 560.00 134.18
C 587.78 153.06 604.53 192.90 597.92 224.35
C 594.44 240.90 588.13 252.44 575.81 264.70
C 561.77 278.68 544.48 288.78 521.54 296.41
C 491.73 306.33 473.25 309.14 437.84 309.19
C 401.81 309.22 394.23 307.90 357.49 295.21
C 259.40 261.32 261.76 261.94 229.24 262.09
C 204.59 262.21 191.51 264.58 163.64 273.99
C 142.44 281.13 86.48 305.09 60.01 318.31
C 35.40 330.63 17.72 338.00 12.83 338.00
C 11.00 338.00 8.12 337.03 6.43 335.85
M 27.39 323.98
C 34.25 321.13 49.18 314.13 60.57 308.41
C 71.97 302.69 93.02 292.98 107.35 286.83
C 171.80 259.14 203.23 251.02 238.70 252.88
C 265.71 254.30 277.46 257.38 335.87 278.47
C 387.26 297.01 399.15 299.83 429.73 300.72
C 448.54 301.26 458.93 300.83 471.41 299.00
C 502.82 294.38 529.96 285.93 549.04 274.81
C 561.38 267.64 579.38 249.31 584.18 239.04
C 601.40 202.24 582.62 154.48 543.10 134.62
C 529.21 127.64 508.07 120.68 490.88 117.40
C 457.98 111.16 454.84 109.24 449.59 92.25
C 442.53 69.31 442.41 69.12 429.86 56.83
C 423.24 50.33 413.62 42.57 408.47 39.57
C 395.84 32.21 380.98 26.01 378.35 27.01
C 375.51 28.12 359.66 49.05 349.86 64.71
C 331.14 94.57 328.04 130.93 341.43 163.91
C 348.99 182.56 356.46 195.32 360.80 196.97
C 365.26 198.70 392.24 191.83 402.75 186.30
C 416.51 179.05 432.87 163.69 440.18 151.13
C 446.42 140.41 452.18 135.81 459.35 135.79
C 465.48 135.79 517.55 153.52 530.33 159.95
C 547.39 168.56 558.66 178.21 565.03 189.66
C 567.80 194.65 568.29 197.72 568.20 209.59
C 568.05 229.44 564.52 238.02 550.75 251.80
C 529.42 273.19 495.32 283.30 444.47 283.36
C 408.09 283.39 390.59 279.49 339.18 259.88
C 322.50 253.50 302.39 246.24 294.49 243.71
C 256.86 231.70 225.48 231.64 182.64 243.49
C 167.38 247.71 109.86 267.86 74.45 281.40
C 32.68 297.35 5.16 316.54 10.29 326.13
C 11.17 327.79 12.57 329.14 13.40 329.14
C 14.23 329.14 20.52 326.81 27.39 323.98
M 347.01 198.06
C 347.41 197.40 344.51 190.55 340.54 182.86
C 336.57 175.15 331.53 162.92 329.32 155.64
C 325.86 144.22 325.30 139.73 325.19 122.51
C 325.09 107.88 325.74 100.03 327.63 92.99
C 331.40 78.88 341.96 58.98 355.34 40.71
C 361.84 31.85 366.93 23.88 366.63 23.00
C 365.84 20.55 360.00 18.13 344.06 13.67
C 329.60 9.62 329.13 9.59 286.00 9.68
C 239.78 9.79 212.42 11.79 166.02 18.51
C 135.74 22.89 80.74 33.86 62.65 39.13
C 46.35 43.87 23.28 53.83 19.86 57.61
C 17.44 60.28 17.73 60.81 26.73 70.23
C 66.06 111.39 146.17 154.23 229.44 178.59
C 249.82 184.57 305.53 197.15 316.22 198.18
C 327.77 199.32 346.28 199.24 347.01 198.06"/>
<path fill="#ff5d44" stroke="none" d="
M 316.22 198.18
C 305.53 197.15 249.82 184.57 229.44 178.59
C 146.17 154.23 66.06 111.39 26.73 70.23
C 17.73 60.81 17.44 60.28 19.86 57.61
C 23.28 53.83 46.35 43.87 62.65 39.13
C 80.74 33.86 135.74 22.89 166.02 18.51
C 212.02 11.85 239.76 9.82 286.00 9.70
C 329.14 9.59 329.60 9.62 344.06 13.67
C 360.00 18.13 365.84 20.55 366.63 23.00
C 366.93 23.88 361.84 31.85 355.34 40.71
C 341.96 58.98 331.40 78.88 327.63 92.99
C 325.74 100.03 325.09 107.88 325.19 122.51
C 325.30 139.73 325.86 144.22 329.32 155.64
C 331.53 162.92 336.57 175.15 340.54 182.86
C 344.51 190.55 347.41 197.40 347.01 198.06
C 346.28 199.24 327.77 199.32 316.22 198.18"/>
<path fill="#21be23" stroke="none" d="
M 10.29 326.13
C 5.16 316.54 32.68 297.35 74.45 281.40
C 109.86 267.86 167.38 247.71 182.64 243.49
C 225.48 231.64 256.86 231.70 294.49 243.71
C 302.39 246.24 322.50 253.50 339.18 259.88
C 390.59 279.49 408.09 283.39 444.47 283.36
C 495.32 283.30 529.42 273.19 550.75 251.80
C 564.52 238.02 568.05 229.44 568.20 209.59
C 568.29 197.72 567.80 194.65 565.03 189.66
C 558.66 178.21 547.39 168.56 530.33 159.95
C 517.55 153.52 465.48 135.79 459.35 135.79
C 452.18 135.81 446.42 140.41 440.18 151.13
C 432.87 163.69 416.51 179.05 402.75 186.30
C 392.24 191.83 365.26 198.70 360.80 196.97
C 356.46 195.32 348.99 182.56 341.43 163.91
C 328.04 130.93 331.14 94.57 349.86 64.71
C 360.91 47.07 375.36 28.43 378.83 27.32
C 382.63 26.11 404.18 36.19 416.23 44.81
C 429.14 54.05 441.30 67.36 444.07 75.28
C 445.36 78.94 447.85 86.57 449.59 92.25
C 454.84 109.24 457.98 111.16 490.88 117.40
C 508.07 120.68 529.21 127.64 543.10 134.62
C 582.62 154.48 601.40 202.24 584.18 239.04
C 579.38 249.31 561.38 267.64 549.04 274.81
C 529.96 285.93 502.82 294.38 471.41 299.00
C 458.93 300.83 448.54 301.26 429.73 300.72
C 399.15 299.83 387.26 297.01 335.87 278.47
C 277.46 257.38 265.71 254.30 238.70 252.88
C 203.23 251.02 171.80 259.14 107.35 286.83
C 93.02 292.98 71.97 302.69 60.57 308.41
C 40.05 318.71 16.30 329.14 13.40 329.14
C 12.57 329.14 11.17 327.79 10.29 326.13"/>
</g>
</svg>
