<?xml version="1.0" encoding="UTF-8" standalone="no"?>
<!DOCTYPE svg PUBLIC "-//W3C//DTD SVG 1.1//EN"
"http://www.w3.org/Graphics/SVG/1.1/DTD/svg11.dtd">
<svg width="328px" height="300px"
xmlns="http://www.w3.org/2000/svg" version="1.1">
<g transform="translate(0000, 0000) scale(1.0000, 1.0000)">
<path fill="#000000" stroke="none" d="
M 1.24 298.76
C -0.37 297.15 -0.35 294.43 1.31 289.07
C 5.06 276.90 11.67 268.25 25.29 257.63
L 30.42 253.64
L 19.53 247.30
C 13.54 243.81 8.37 240.45 8.04 239.84
C 7.11 238.09 7.33 235.71 8.67 233.08
C 10.09 230.30 12.05 228.72 14.09 228.72
C 14.87 228.72 21.40 231.65 28.61 235.23
C 35.81 238.80 41.95 241.74 42.24 241.74
C 42.55 241.74 42.78 203.77 42.78 155.18
C 42.78 73.49 42.72 68.58 41.70 67.77
C 39.63 66.13 34.83 63.88 25.97 60.39
C 14.07 55.70 11.55 54.36 7.65 50.68
C 2.64 45.94 1.05 42.11 0.74 34.01
C 0.45 26.53 1.36 22.30 4.41 16.93
C 8.18 10.32 16.93 4.31 26.48 1.79
C 33.40 -0.05 47.36 -0.50 55.29 0.85
C 71.41 3.60 84.02 8.24 84.02 11.44
C 84.02 12.21 81.65 14.32 77.01 17.68
C 66.15 25.56 64.48 27.49 64.48 32.28
C 64.48 37.06 66.98 39.67 76.57 44.93
C 82.86 48.37 86.19 50.75 86.19 51.82
C 86.19 52.37 84.46 53.54 82.00 54.67
C 67.29 61.40 57.71 66.32 57.11 67.45
C 56.61 68.37 56.46 93.14 56.58 155.27
L 56.73 241.81
L 69.37 235.57
C 85.04 227.85 87.36 227.58 89.94 233.26
C 91.51 236.71 91.46 239.01 89.75 240.68
C 88.98 241.43 83.83 244.66 78.30 247.85
L 68.25 253.65
L 72.72 257.09
C 86.88 267.98 93.11 275.87 97.00 287.84
C 98.94 293.81 99.04 297.06 97.35 298.76
C 96.13 299.98 95.28 300.00 49.29 300.00
C 3.30 300.00 2.46 299.98 1.24 298.76
M 93.76 293.81
C 93.52 290.93 90.15 283.23 87.10 278.62
C 83.81 273.63 77.36 267.26 69.33 261.06
C 65.68 258.25 62.51 255.37 62.28 254.66
C 61.56 252.37 63.99 250.30 74.90 243.90
C 80.73 240.50 85.69 237.51 85.92 237.26
C 86.16 237.02 85.90 236.13 85.35 235.28
L 84.34 233.75
L 70.54 240.52
C 62.95 244.25 56.39 247.30 55.96 247.31
C 55.53 247.31 54.63 246.76 53.94 246.07
C 52.72 244.85 52.70 244.01 52.70 157.28
L 52.70 69.73
L 49.60 69.73
L 46.50 69.73
L 46.50 157.28
C 46.50 244.01 46.49 244.85 45.26 246.07
C 44.58 246.76 43.57 247.31 43.02 247.31
C 42.47 247.31 36.02 244.38 28.67 240.81
C 21.33 237.23 14.96 234.30 14.50 234.30
C 13.60 234.30 12.10 236.68 12.65 237.24
C 12.85 237.43 17.80 240.40 23.66 243.84
C 34.62 250.28 37.03 252.35 36.30 254.67
C 36.07 255.38 32.91 258.32 29.26 261.20
C 17.80 270.24 12.43 276.19 8.50 284.19
C 5.89 289.51 4.12 294.79 4.64 295.65
C 4.91 296.08 19.52 296.24 49.49 296.13
L 93.94 295.97
L 93.76 293.81
M 58.72 60.56
C 63.76 58.07 70.19 55.07 73.00 53.89
C 75.81 52.72 78.11 51.56 78.12 51.32
C 78.12 51.09 75.89 49.73 73.16 48.30
C 66.02 44.60 63.53 42.60 61.41 38.90
C 59.11 34.90 58.90 30.81 60.80 26.89
C 62.24 23.91 68.91 17.35 73.33 14.56
C 74.94 13.54 76.26 12.50 76.26 12.25
C 76.26 10.58 63.83 6.59 54.62 5.31
C 44.88 3.95 38.73 4.08 30.23 5.85
C 17.94 8.39 11.35 12.78 7.58 20.94
C 6.23 23.85 5.89 25.61 5.69 30.84
C 5.31 40.61 7.40 45.58 13.54 49.52
C 17.57 52.10 46.86 65.02 48.80 65.06
C 49.21 65.08 53.68 63.04 58.72 60.56"/>
<path fill="#000000" stroke="none" d="
M 115.95 298.76
C 114.34 297.15 114.36 294.43 116.02 289.07
C 119.77 276.90 126.38 268.25 139.99 257.63
L 145.13 253.64
L 134.24 247.30
C 128.25 243.81 123.08 240.45 122.75 239.84
C 121.81 238.09 122.04 235.71 123.38 233.08
C 124.80 230.30 126.76 228.72 128.80 228.72
C 129.58 228.72 136.11 231.65 143.32 235.23
C 150.52 238.80 156.65 241.74 156.95 241.74
C 157.25 241.74 157.49 203.77 157.49 155.18
C 157.49 73.49 157.43 68.58 156.40 67.77
C 154.33 66.13 149.54 63.88 140.67 60.39
C 128.78 55.70 126.25 54.36 122.36 50.68
C 117.35 45.94 115.75 42.11 115.44 34.01
C 115.05 23.61 117.68 16.71 124.37 10.59
C 136.33 -0.33 157.14 -2.95 181.84 3.37
C 192.38 6.06 198.72 9.10 198.72 11.44
C 198.72 12.21 196.35 14.32 191.72 17.68
C 180.85 25.56 179.19 27.49 179.19 32.28
C 179.19 37.06 181.69 39.67 191.28 44.93
C 197.57 48.37 200.89 50.75 200.89 51.82
C 200.89 52.37 199.17 53.54 196.71 54.67
C 181.99 61.40 172.41 66.32 171.81 67.45
C 171.32 68.37 171.17 93.14 171.29 155.27
L 171.44 241.81
L 184.08 235.57
C 199.75 227.85 202.07 227.58 204.65 233.26
C 206.22 236.71 206.16 239.01 204.46 240.68
C 203.69 241.43 198.54 244.66 193.01 247.85
L 182.95 253.65
L 187.43 257.09
C 201.59 267.98 207.82 275.87 211.71 287.84
C 213.65 293.81 213.75 297.06 212.05 298.76
C 210.84 299.98 209.99 300.00 164.00 300.00
C 118.01 300.00 117.16 299.98 115.95 298.76
M 208.46 293.81
C 208.23 290.93 204.85 283.23 201.81 278.62
C 198.52 273.63 192.07 267.26 184.03 261.06
C 180.39 258.25 177.22 255.37 176.99 254.66
C 176.26 252.37 178.69 250.30 189.61 243.90
C 195.44 240.50 200.40 237.51 200.63 237.26
C 200.87 237.02 200.61 236.13 200.06 235.28
L 199.04 233.75
L 185.24 240.52
C 177.65 244.25 171.09 247.30 170.67 247.31
C 170.24 247.31 169.33 246.76 168.65 246.07
C 167.42 244.85 167.41 244.01 167.41 157.28
L 167.41 69.73
L 164.31 69.73
L 161.21 69.73
L 161.21 157.28
C 161.21 244.01 161.20 244.85 159.97 246.07
C 159.29 246.76 158.28 247.31 157.73 247.31
C 157.18 247.31 150.72 244.38 143.38 240.81
C 136.04 237.23 129.66 234.30 129.21 234.30
C 128.30 234.30 126.80 236.68 127.36 237.24
C 127.55 237.43 132.51 240.40 138.37 243.84
C 149.32 250.28 151.74 252.35 151.00 254.67
C 150.78 255.38 147.61 258.32 143.97 261.20
C 132.51 270.24 127.13 276.19 123.21 284.19
C 120.60 289.51 118.82 294.79 119.35 295.65
C 119.62 296.08 134.23 296.24 164.19 296.13
L 208.64 295.97
L 208.46 293.81
M 173.42 60.56
C 178.47 58.07 184.90 55.07 187.71 53.89
C 190.52 52.72 192.82 51.56 192.83 51.32
C 192.83 51.09 190.59 49.73 187.87 48.30
C 180.73 44.60 178.24 42.60 176.12 38.90
C 173.82 34.90 173.61 30.81 175.51 26.89
C 176.95 23.91 183.62 17.35 188.03 14.56
C 189.64 13.54 190.97 12.50 190.97 12.25
C 190.97 10.58 178.54 6.59 169.33 5.31
C 159.59 3.95 153.43 4.08 144.93 5.85
C 132.64 8.39 126.05 12.78 122.28 20.94
C 120.93 23.85 120.60 25.61 120.39 30.84
C 120.01 40.61 122.10 45.58 128.25 49.52
C 132.27 52.10 161.57 65.02 163.50 65.06
C 163.92 65.08 168.38 63.04 173.42 60.56"/>
<path fill="#000000" stroke="none" d="
M 230.65 298.76
C 229.05 297.15 229.07 294.43 230.72 289.07
C 234.47 276.90 241.08 268.25 254.70 257.63
L 259.83 253.64
L 248.95 247.30
C 242.96 243.81 237.78 240.45 237.46 239.84
C 236.52 238.09 236.74 235.71 238.09 233.08
C 239.50 230.30 241.47 228.72 243.51 228.72
C 244.29 228.72 250.82 231.65 258.02 235.23
C 265.23 238.80 271.36 241.74 271.66 241.74
C 271.96 241.74 272.20 203.77 272.20 155.18
C 272.20 73.49 272.13 68.58 271.11 67.77
C 269.04 66.13 264.25 63.88 255.38 60.39
C 243.49 55.70 240.96 54.36 237.07 50.68
C 232.06 45.94 230.46 42.11 230.15 34.01
C 229.76 23.61 232.39 16.71 239.08 10.59
C 251.04 -0.33 271.84 -2.95 296.55 3.37
C 307.09 6.06 313.43 9.10 313.43 11.44
C 313.43 12.21 311.06 14.32 306.43 17.68
C 295.56 25.56 293.90 27.49 293.90 32.28
C 293.90 37.06 296.40 39.67 305.99 44.93
C 312.28 48.37 315.60 50.75 315.60 51.82
C 315.60 52.37 313.88 53.54 311.41 54.67
C 296.70 61.40 287.12 66.32 286.52 67.45
C 286.02 68.37 285.87 93.14 285.99 155.27
L 286.15 241.81
L 298.78 235.57
C 314.45 227.85 316.78 227.58 319.36 233.26
C 320.93 236.71 320.87 239.01 319.16 240.68
C 318.40 241.43 313.24 244.66 307.72 247.85
L 297.66 253.65
L 302.14 257.09
C 316.29 267.98 322.53 275.87 326.41 287.84
C 328.35 293.81 328.46 297.06 326.76 298.76
C 325.54 299.98 324.70 300.00 278.71 300.00
C 232.72 300.00 231.87 299.98 230.65 298.76
M 323.17 293.81
C 322.93 290.93 319.56 283.23 316.52 278.62
C 313.22 273.63 306.78 267.26 298.74 261.06
C 295.09 258.25 291.93 255.37 291.70 254.66
C 290.97 252.37 293.40 250.30 304.31 243.90
C 310.14 240.50 315.10 237.51 315.34 237.26
C 315.57 237.02 315.31 236.13 314.76 235.28
L 313.75 233.75
L 299.95 240.52
C 292.36 244.25 285.80 247.30 285.37 247.31
C 284.94 247.31 284.04 246.76 283.36 246.07
C 282.13 244.85 282.12 244.01 282.12 157.28
L 282.12 69.73
L 279.02 69.73
L 275.92 69.73
L 275.92 157.28
C 275.92 244.01 275.90 244.85 274.68 246.07
C 273.99 246.76 272.98 247.31 272.44 247.31
C 271.89 247.31 265.43 244.38 258.08 240.81
C 250.74 237.23 244.37 234.30 243.92 234.30
C 243.01 234.30 241.51 236.68 242.07 237.24
C 242.26 237.43 247.22 240.40 253.07 243.84
C 264.03 250.28 266.45 252.35 265.71 254.67
C 265.49 255.38 262.32 258.32 258.67 261.20
C 247.22 270.24 241.84 276.19 237.91 284.19
C 235.30 289.51 233.53 294.79 234.06 295.65
C 234.32 296.08 248.93 296.24 278.90 296.13
L 323.35 295.97
L 323.17 293.81
M 288.13 60.56
C 293.18 58.07 299.61 55.07 302.42 53.89
C 305.23 52.72 307.53 51.56 307.53 51.32
C 307.53 51.09 305.30 49.73 302.57 48.30
C 295.44 44.60 292.94 42.60 290.82 38.90
C 288.52 34.90 288.32 30.81 290.21 26.89
C 291.65 23.91 298.32 17.35 302.74 14.56
C 304.35 13.54 305.68 12.50 305.68 12.25
C 305.68 10.58 293.25 6.59 284.03 5.31
C 274.29 3.95 268.14 4.08 259.64 5.85
C 247.35 8.39 240.76 12.78 236.99 20.94
C 235.64 23.85 235.30 25.61 235.10 30.84
C 234.72 40.61 236.81 45.58 242.96 49.52
C 246.98 52.10 276.28 65.02 278.21 65.06
C 278.63 65.08 283.09 63.04 288.13 60.56"/>
<path fill="#fe929f" stroke="none" d="
M 38.75 61.12
C 11.51 49.62 8.97 47.99 6.49 40.39
C 4.86 35.43 5.41 25.62 7.58 20.94
C 11.36 12.76 18.06 8.31 30.30 5.83
C 38.80 4.12 45.14 3.99 54.62 5.31
C 63.83 6.59 76.26 10.58 76.26 12.25
C 76.26 12.50 74.94 13.54 73.33 14.56
C 68.91 17.35 62.24 23.91 60.80 26.89
C 58.90 30.81 59.11 34.90 61.41 38.90
C 63.53 42.60 66.02 44.60 73.16 48.30
C 75.89 49.73 78.12 51.09 78.12 51.32
C 78.11 51.56 75.81 52.72 73.00 53.89
C 70.19 55.07 63.76 58.07 58.72 60.56
C 53.68 63.04 49.21 65.08 48.80 65.06
C 48.39 65.06 43.87 63.28 38.75 61.12"/>
<path fill="#fe929f" stroke="none" d="
M 153.46 61.12
C 126.21 49.62 123.68 47.99 121.19 40.39
C 119.57 35.43 120.12 25.62 122.28 20.94
C 126.05 12.78 132.64 8.39 144.93 5.85
C 153.43 4.08 159.59 3.95 169.33 5.31
C 178.54 6.59 190.97 10.58 190.97 12.25
C 190.97 12.50 189.64 13.54 188.03 14.56
C 183.62 17.35 176.95 23.91 175.51 26.89
C 173.61 30.81 173.82 34.90 176.12 38.90
C 178.24 42.60 180.73 44.60 187.87 48.30
C 190.59 49.73 192.83 51.09 192.83 51.32
C 192.82 51.56 190.52 52.72 187.71 53.89
C 184.90 55.07 178.47 58.07 173.42 60.56
C 168.38 63.04 163.92 65.08 163.50 65.06
C 163.09 65.06 158.57 63.28 153.46 61.12"/>
<path fill="#fe929f" stroke="none" d="
M 268.17 61.12
C 240.92 49.62 238.39 47.99 235.90 40.39
C 234.28 35.43 234.83 25.62 236.99 20.94
C 240.76 12.78 247.35 8.39 259.64 5.85
C 268.14 4.08 274.29 3.95 284.03 5.31
C 293.25 6.59 305.68 10.58 305.68 12.25
C 305.68 12.50 304.35 13.54 302.74 14.56
C 298.32 17.35 291.65 23.91 290.21 26.89
C 288.32 30.81 288.52 34.90 290.82 38.90
C 292.94 42.60 295.44 44.60 302.57 48.30
C 305.30 49.73 307.53 51.09 307.53 51.32
C 307.53 51.56 305.23 52.72 302.42 53.89
C 299.61 55.07 293.18 58.07 288.13 60.56
C 283.09 63.04 278.63 65.08 278.21 65.06
C 277.80 65.06 273.28 63.28 268.17 61.12"/>
<path fill="#21be23" stroke="none" d="
M 4.64 295.65
C 4.12 294.79 5.89 289.51 8.50 284.19
C 12.43 276.19 17.80 270.24 29.26 261.20
C 32.91 258.32 36.07 255.38 36.30 254.67
C 37.03 252.35 34.62 250.28 23.66 243.84
C 17.80 240.40 12.85 237.43 12.65 237.24
C 12.10 236.68 13.60 234.30 14.50 234.30
C 14.96 234.30 21.33 237.23 28.67 240.81
C 36.02 244.38 42.42 247.31 42.91 247.31
C 43.39 247.31 44.33 246.92 44.99 246.43
C 46.17 245.57 46.20 243.76 46.50 157.74
L 46.81 69.92
L 49.76 69.80
L 52.70 69.68
L 52.70 157.26
C 52.70 244.01 52.72 244.85 53.94 246.07
C 54.63 246.76 55.53 247.31 55.96 247.31
C 56.39 247.30 62.95 244.25 70.54 240.52
L 84.34 233.75
L 85.35 235.28
C 85.90 236.13 86.16 237.02 85.92 237.26
C 85.69 237.51 80.73 240.50 74.90 243.90
C 63.99 250.30 61.56 252.37 62.28 254.66
C 62.51 255.37 65.68 258.25 69.33 261.06
C 77.36 267.26 83.81 273.63 87.10 278.62
C 90.15 283.23 93.52 290.93 93.76 293.81
L 93.94 295.97
L 49.49 296.13
C 19.52 296.24 4.91 296.08 4.64 295.65"/>
<path fill="#21be23" stroke="none" d="
M 119.35 295.65
C 118.82 294.79 120.60 289.51 123.21 284.19
C 127.13 276.19 132.51 270.24 143.97 261.20
C 147.61 258.32 150.78 255.38 151.00 254.67
C 151.74 252.35 149.32 250.28 138.37 243.84
C 132.51 240.40 127.55 237.43 127.36 237.24
C 126.80 236.68 128.30 234.30 129.21 234.30
C 129.66 234.30 136.04 237.23 143.38 240.81
C 150.72 244.38 157.18 247.31 157.73 247.31
C 158.28 247.31 159.29 246.76 159.97 246.07
C 161.20 244.85 161.21 244.01 161.21 157.28
L 161.21 69.73
L 164.31 69.73
L 167.41 69.73
L 167.41 157.28
C 167.41 244.01 167.42 244.85 168.65 246.07
C 169.33 246.76 170.24 247.31 170.67 247.31
C 171.09 247.30 177.65 244.25 185.24 240.52
L 199.04 233.75
L 200.06 235.28
C 200.61 236.13 200.87 237.02 200.63 237.26
C 200.40 237.51 195.44 240.50 189.61 243.90
C 178.69 250.30 176.26 252.37 176.99 254.66
C 177.22 255.37 180.39 258.25 184.03 261.06
C 192.07 267.26 198.52 273.63 201.81 278.62
C 204.85 283.23 208.23 290.93 208.46 293.81
L 208.64 295.97
L 164.19 296.13
C 134.23 296.24 119.62 296.08 119.35 295.65"/>
<path fill="#21be23" stroke="none" d="
M 234.06 295.65
C 233.53 294.79 235.30 289.51 237.91 284.19
C 241.84 276.19 247.22 270.24 258.67 261.20
C 262.32 258.32 265.49 255.38 265.71 254.67
C 266.45 252.35 264.03 250.28 253.07 243.84
C 247.22 240.40 242.26 237.43 242.07 237.24
C 241.51 236.68 243.01 234.30 243.92 234.30
C 244.37 234.30 250.74 237.23 258.08 240.81
C 265.43 244.38 271.89 247.31 272.44 247.31
C 272.98 247.31 273.99 246.76 274.68 246.07
C 275.90 244.85 275.92 244.01 275.92 157.28
L 275.92 69.73
L 279.02 69.73
L 282.12 69.73
L 282.12 157.28
C 282.12 244.01 282.13 244.85 283.36 246.07
C 284.04 246.76 284.94 247.31 285.37 247.31
C 285.80 247.30 292.36 244.25 299.95 240.52
L 313.75 233.75
L 314.76 235.28
C 315.31 236.13 315.57 237.02 315.34 237.26
C 315.10 237.51 310.14 240.50 304.31 243.90
C 293.40 250.30 290.97 252.37 291.70 254.66
C 291.93 255.37 295.09 258.25 298.74 261.06
C 306.78 267.26 313.22 273.63 316.52 278.62
C 319.56 283.23 322.93 290.93 323.17 293.81
L 323.35 295.97
L 278.90 296.13
C 248.93 296.24 234.32 296.08 234.06 295.65"/>
</g>
</svg>
