<?xml version="1.0" encoding="UTF-8" standalone="no"?>
<!DOCTYPE svg PUBLIC "-//W3C//DTD SVG 1.1//EN"
"http://www.w3.org/Graphics/SVG/1.1/DTD/svg11.dtd">
<svg width="508px" height="600px"
xmlns="http://www.w3.org/2000/svg" version="1.1">
<g transform="translate(0000, 0000) scale(1.0000, 1.0000)">
<path fill="#000000" stroke="none" d="
M 493.44 597.80
C 489.22 595.14 476.53 582.14 469.15 572.90
C 453.51 553.34 441.90 528.07 436.12 500.97
C 432.59 484.42 433.16 437.72 437.37 398.45
C 443.87 337.82 441.00 303.69 426.89 273.82
C 414.33 247.22 396.64 232.29 365.46 221.97
C 345.95 215.51 319.43 210.92 290.99 209.08
C 279.61 208.33 278.47 208.45 278.47 210.27
C 278.47 211.37 281.32 229.92 284.81 251.48
C 296.40 323.20 298.17 338.64 299.07 376.31
C 300.16 422.06 296.68 460.57 288.34 494.96
C 279.25 532.45 269.92 545.24 251.67 545.24
C 233.42 545.24 224.09 532.45 215.00 494.96
C 206.67 460.60 203.19 422.10 204.26 376.31
C 205.13 338.99 207.23 320.90 219.20 247.21
C 222.45 227.15 224.93 210.57 224.71 210.37
C 224.03 209.80 195.44 212.71 157.70 217.19
C 115.21 222.23 102.17 222.52 93.75 218.60
C 85.70 214.86 78.62 206.54 75.85 197.59
C 71.13 182.31 71.71 160.45 77.41 139.12
C 81.50 123.81 79.38 121.67 64.41 125.95
C 57.66 127.89 52.07 128.57 42.53 128.64
C 27.57 128.75 19.99 126.77 11.31 120.47
C 1.40 113.27 -1.65 105.25 1.60 94.93
C 7.84 75.13 44.10 61.71 77.56 66.83
C 91.67 68.97 101.31 72.40 106.76 77.18
C 113.02 82.67 114.65 86.74 114.63 96.70
C 114.61 104.17 113.72 108.05 108.44 123.48
C 102.85 139.82 102.31 142.24 102.80 149.13
C 103.38 157.28 106.87 166.58 111.04 171.11
C 115.00 175.42 122.16 178.19 129.38 178.23
C 137.94 178.26 156.97 175.72 195.16 169.44
C 212.46 166.60 227.71 164.28 229.05 164.27
C 231.21 164.27 231.66 163.14 233.00 154.49
C 233.84 149.10 234.20 143.86 233.81 142.82
C 232.97 140.62 229.54 139.07 223.29 138.06
C 217.12 137.04 208.72 128.97 203.55 119.08
C 201.30 114.78 197.01 104.18 194.02 95.53
C 187.89 77.83 182.03 65.29 177.29 59.74
C 175.25 57.36 169.50 53.85 161.55 50.13
C 146.71 43.18 143.31 40.24 143.31 34.37
C 143.31 18.57 164.98 8.95 212.64 3.60
C 249.34 -0.52 252.97 -0.56 283.71 2.83
C 314.20 6.21 328.02 8.95 340.60 14.13
C 354.52 19.88 360.03 25.62 360.03 34.37
C 360.03 40.24 356.63 43.18 341.79 50.13
C 333.84 53.85 328.09 57.36 326.05 59.74
C 321.31 65.29 315.45 77.83 309.32 95.53
C 306.33 104.18 302.04 114.78 299.79 119.08
C 294.62 128.97 286.22 137.04 280.05 138.06
C 269.60 139.76 268.28 141.46 269.85 151.28
L 270.89 157.86
L 300.61 157.97
C 339.73 158.11 361.65 160.67 389.82 168.40
C 418.77 176.33 438.09 185.70 451.65 198.38
C 465.06 210.93 476.24 230.76 482.01 252.23
C 484.99 263.31 485.14 265.25 485.17 291.84
C 485.21 316.85 484.87 321.96 481.98 340.19
C 472.08 402.66 470.05 423.80 471.07 453.79
C 471.85 476.63 474.23 491.87 481.70 521.64
C 488.39 548.26 492.59 560.10 501.13 576.49
C 508.55 590.74 509.27 594.07 505.67 597.67
C 502.75 600.59 497.97 600.64 493.44 597.80
M 500.37 591.94
C 500.74 591.34 498.19 585.45 494.71 578.83
C 486.53 563.25 482.43 551.31 475.42 522.63
C 466.46 485.99 465.51 478.35 465.51 443.30
C 465.50 414.08 466.38 401.65 470.14 377.48
C 478.49 323.88 480.04 310.32 480.04 291.16
C 480.04 265.72 476.02 248.43 465.51 228.69
C 452.13 203.55 435.09 190.21 401.97 179.00
C 376.25 170.28 354.20 166.11 324.97 164.40
C 311.63 163.62 276.28 164.26 272.93 165.34
C 272.36 165.53 272.65 172.28 273.32 173.99
C 273.81 175.26 275.07 175.57 277.85 175.12
C 280.77 174.64 282.29 175.08 284.17 176.96
C 289.06 181.85 285.61 189.90 278.63 189.90
C 275.65 189.90 275.35 190.24 275.79 193.11
C 277.14 201.93 276.76 201.55 284.32 201.55
C 288.15 201.55 291.28 202.00 291.28 202.54
C 291.28 203.08 296.74 203.86 303.40 204.27
C 343.90 206.75 380.09 216.89 401.97 231.90
C 434.39 254.12 450.66 303.11 446.33 365.39
C 445.57 376.21 443.84 395.01 442.47 407.18
C 439.05 437.63 438.80 484.04 442.01 498.61
C 446.69 519.95 455.21 540.19 467.00 558.00
C 472.95 567.02 496.55 593.01 498.76 593.01
C 499.28 593.01 500.01 592.52 500.37 591.94
M 258.64 535.93
C 266.60 531.88 272.64 521.55 278.37 502.25
C 286.68 474.30 291.10 441.75 292.09 401.36
C 292.85 370.18 291.62 349.29 287.10 315.73
C 284.58 297.09 272.78 221.49 270.81 211.46
C 270.44 209.53 269.40 202.46 268.52 195.73
C 267.63 188.99 266.09 178.25 265.12 171.84
C 264.14 165.44 263.01 155.21 262.60 149.13
C 261.69 135.47 262.92 133.26 272.27 131.80
C 285.75 129.69 291.84 121.03 304.12 86.53
C 310.88 67.55 316.11 57.05 321.32 52.07
C 322.79 50.67 329.84 46.63 337.00 43.11
C 344.16 39.59 350.54 35.80 351.20 34.71
C 354.13 29.78 338.86 20.53 319.83 15.70
C 306.37 12.29 267.48 7.76 251.67 7.76
C 235.86 7.76 196.97 12.29 183.51 15.70
C 164.48 20.53 149.21 29.78 152.14 34.71
C 152.80 35.80 159.18 39.59 166.34 43.11
C 173.50 46.63 180.55 50.67 182.02 52.07
C 187.23 57.05 192.46 67.55 199.22 86.53
C 206.58 107.22 209.82 114.33 215.42 121.99
C 220.08 128.39 223.68 130.65 231.07 131.80
C 239.20 133.07 241.18 135.63 241.18 144.89
C 241.18 148.82 240.41 156.23 239.47 161.36
C 238.53 166.49 236.39 180.91 234.74 193.40
C 233.09 205.89 228.90 233.67 225.44 255.15
C 212.53 335.18 210.23 359.02 211.25 401.36
C 212.24 441.75 216.66 474.30 224.96 502.25
C 230.62 521.28 236.70 531.79 244.45 535.88
C 249.97 538.79 253.01 538.80 258.64 535.93
M 159.62 210.84
C 181.10 208.32 203.77 205.92 210.02 205.49
C 216.26 205.06 221.38 204.26 221.38 203.71
C 221.38 203.16 222.40 202.72 223.65 202.72
C 226.16 202.72 226.07 203.06 228.95 183.01
C 229.90 176.33 230.50 170.67 230.25 170.42
C 230.01 170.18 215.46 172.33 197.92 175.21
C 136.39 185.30 123.55 186.20 113.31 181.10
C 102.03 175.47 95.82 160.95 97.02 143.03
C 97.52 135.58 98.90 129.98 103.14 118.25
C 109.57 100.43 110.25 93.62 106.21 87.11
C 103.13 82.11 98.40 78.94 88.96 75.58
C 79.24 72.12 55.95 71.22 44.14 73.85
C 16.52 80.00 -0.48 98.43 10.59 110.20
L 13.12 112.89
L 18.91 109.96
C 22.09 108.35 25.43 107.31 26.33 107.65
C 29.07 108.70 28.16 111.68 24.54 113.56
C 19.11 116.37 19.24 117.54 25.26 120.28
C 33.78 124.16 48.31 123.86 63.41 119.49
C 74.18 116.37 75.29 116.25 79.72 117.77
C 86.88 120.26 87.62 124.74 83.51 140.80
C 77.49 164.20 76.89 180.83 81.56 194.20
C 86.83 209.31 99.15 217.06 115.88 215.77
C 118.47 215.57 138.15 213.36 159.62 210.84
M 281.91 184.73
C 283.71 182.55 281.44 177.95 278.81 178.47
C 275.80 179.07 274.29 182.42 276.06 184.57
C 277.96 186.85 280.09 186.92 281.91 184.73"/>
<path fill="#000000" stroke="none" d="
M 455.06 336.44
C 451.29 331.07 454.59 323.88 460.81 323.88
C 462.42 323.88 464.77 324.93 466.06 326.21
C 467.34 327.50 468.39 329.85 468.39 331.46
C 468.39 338.14 458.77 341.74 455.06 336.44
M 463.67 333.86
C 465.47 331.68 463.20 327.08 460.57 327.60
C 457.56 328.19 456.05 331.55 457.82 333.69
C 459.72 335.98 461.85 336.05 463.67 333.86"/>
<path fill="#000000" stroke="none" d="
M 457.39 306.15
C 454.90 302.62 455.10 298.72 457.90 295.92
C 462.51 291.31 470.72 294.66 470.72 301.17
C 470.72 307.85 461.10 311.45 457.39 306.15
M 466.00 303.57
C 467.80 301.39 465.53 296.78 462.90 297.31
C 459.89 297.90 458.38 301.26 460.15 303.40
C 462.05 305.69 464.18 305.76 466.00 303.57"/>
<path fill="#000000" stroke="none" d="
M 449.23 272.37
C 446.75 268.83 446.95 264.93 449.74 262.14
C 454.36 257.52 462.56 260.88 462.56 267.38
C 462.56 274.07 452.95 277.67 449.23 272.37
M 457.84 269.78
C 459.65 267.60 457.37 263.00 454.74 263.52
C 451.74 264.12 450.22 267.47 451.99 269.62
C 453.89 271.90 456.02 271.97 457.84 269.78"/>
<path fill="#000000" stroke="none" d="
M 434.08 239.74
C 431.60 236.21 431.80 232.31 434.60 229.51
C 439.21 224.90 447.41 228.26 447.41 234.76
C 447.41 241.44 437.80 245.04 434.08 239.74
M 442.69 237.16
C 444.50 234.98 442.23 230.38 439.59 230.90
C 436.59 231.50 435.07 234.85 436.85 236.99
C 438.74 239.28 440.88 239.35 442.69 237.16"/>
<path fill="#000000" stroke="none" d="
M 410.78 217.61
C 408.30 214.08 408.50 210.17 411.29 207.38
C 415.91 202.77 424.11 206.12 424.11 212.62
C 424.11 219.31 414.50 222.91 410.78 217.61
M 419.39 215.02
C 421.20 212.84 418.93 208.24 416.29 208.77
C 413.29 209.36 411.77 212.71 413.54 214.86
C 415.44 217.14 417.57 217.21 419.39 215.02"/>
<path fill="#000000" stroke="none" d="
M 379.32 203.63
C 376.84 200.10 377.04 196.19 379.83 193.40
C 384.45 188.78 392.65 192.14 392.65 198.64
C 392.65 205.33 383.04 208.93 379.32 203.63
M 387.93 201.04
C 389.74 198.86 387.47 194.26 384.83 194.78
C 381.83 195.38 380.31 198.73 382.08 200.88
C 383.98 203.16 386.11 203.23 387.93 201.04"/>
<path fill="#000000" stroke="none" d="
M 345.53 194.31
C 343.05 190.78 343.25 186.87 346.05 184.08
C 350.66 179.46 358.86 182.82 358.86 189.32
C 358.86 196.01 349.25 199.61 345.53 194.31
M 354.14 191.72
C 355.95 189.54 353.68 184.94 351.04 185.46
C 348.04 186.06 346.52 189.41 348.29 191.56
C 350.19 193.84 352.33 193.91 354.14 191.72"/>
<path fill="#000000" stroke="none" d="
M 308.25 188.48
C 305.77 184.95 305.97 181.05 308.76 178.25
C 313.38 173.64 321.58 176.99 321.58 183.50
C 321.58 190.18 311.97 193.78 308.25 188.48
M 316.86 185.90
C 318.67 183.72 316.39 179.11 313.76 179.64
C 310.75 180.23 309.24 183.59 311.01 185.73
C 312.91 188.02 315.04 188.09 316.86 185.90"/>
<path fill="#000000" stroke="none" d="
M 128.82 203.63
C 125.05 198.26 128.35 191.07 134.57 191.07
C 136.18 191.07 138.53 192.12 139.82 193.40
C 141.10 194.68 142.15 197.03 142.15 198.64
C 142.15 205.33 132.53 208.93 128.82 203.63
M 137.43 201.04
C 139.23 198.86 136.96 194.26 134.33 194.78
C 131.32 195.38 129.81 198.73 131.58 200.88
C 133.48 203.16 135.61 203.23 137.43 201.04"/>
<path fill="#000000" stroke="none" d="
M 164.94 200.13
C 161.17 194.76 164.47 187.57 170.69 187.57
C 172.30 187.57 174.65 188.62 175.94 189.90
C 177.22 191.18 178.27 193.54 178.27 195.15
C 178.27 201.83 168.65 205.43 164.94 200.13
M 173.55 197.55
C 175.35 195.37 173.08 190.77 170.45 191.29
C 167.44 191.88 165.93 195.24 167.70 197.38
C 169.60 199.67 171.73 199.74 173.55 197.55"/>
<path fill="#000000" stroke="none" d="
M 97.36 198.97
C 93.60 193.60 96.89 186.41 103.11 186.41
C 104.72 186.41 107.08 187.46 108.36 188.74
C 109.64 190.02 110.69 192.37 110.69 193.98
C 110.69 200.67 101.08 204.27 97.36 198.97
M 105.97 196.38
C 107.78 194.20 105.50 189.60 102.87 190.12
C 99.86 190.72 98.35 194.07 100.12 196.22
C 102.02 198.50 104.15 198.57 105.97 196.38"/>
<path fill="#000000" stroke="none" d="
M 202.22 194.31
C 198.46 188.94 201.76 181.75 207.98 181.75
C 209.58 181.75 211.94 182.80 213.22 184.08
C 214.50 185.36 215.55 187.71 215.55 189.32
C 215.55 196.01 205.94 199.61 202.22 194.31
M 210.83 191.72
C 212.64 189.54 210.37 184.94 207.73 185.46
C 204.73 186.06 203.21 189.41 204.98 191.56
C 206.88 193.84 209.01 193.91 210.83 191.72"/>
<path fill="#000000" stroke="none" d="
M 31.37 99.12
C 26.67 94.42 26.67 88.50 31.37 83.79
C 33.89 81.27 35.87 80.39 39.03 80.39
C 44.95 80.39 50.10 85.54 50.10 91.46
C 50.10 94.61 49.22 96.59 46.70 99.12
C 41.99 103.82 36.07 103.82 31.37 99.12
M 44.28 96.70
C 45.56 95.42 46.61 93.06 46.61 91.46
C 46.61 88.52 42.99 83.88 40.71 83.88
C 40.02 83.88 40.28 85.03 41.29 86.47
C 42.29 87.89 43.11 90.14 43.11 91.46
C 43.11 92.77 42.29 95.02 41.29 96.44
C 39.03 99.67 41.12 99.86 44.28 96.70"/>
<path fill="#21be23" stroke="none" d="
M 244.45 535.88
C 236.70 531.79 230.62 521.28 224.96 502.25
C 216.66 474.30 212.24 441.75 211.25 401.36
C 210.23 359.02 212.53 335.18 225.44 255.15
C 228.90 233.67 233.09 205.89 234.74 193.40
C 236.39 180.91 238.53 166.49 239.47 161.36
C 240.41 156.23 241.18 148.82 241.18 144.89
C 241.18 135.63 239.20 133.07 231.07 131.80
C 217.59 129.69 211.50 121.03 199.22 86.53
C 192.46 67.55 187.23 57.05 182.02 52.07
C 180.55 50.67 173.50 46.63 166.34 43.11
C 159.18 39.59 152.80 35.80 152.14 34.71
C 149.21 29.78 164.48 20.53 183.51 15.70
C 196.78 12.34 235.63 7.83 251.67 7.78
C 267.35 7.75 306.26 12.27 319.83 15.70
C 338.86 20.53 354.13 29.78 351.20 34.71
C 350.54 35.80 344.16 39.59 337.00 43.11
C 329.84 46.63 322.79 50.67 321.32 52.07
C 316.11 57.05 310.88 67.55 304.12 86.53
C 296.76 107.22 293.52 114.33 287.92 121.99
C 283.26 128.39 279.66 130.65 272.27 131.80
C 262.92 133.26 261.69 135.47 262.60 149.13
C 263.01 155.21 264.14 165.44 265.12 171.84
C 266.09 178.25 267.63 188.99 268.52 195.73
C 269.40 202.46 270.44 209.53 270.81 211.46
C 272.78 221.49 284.58 297.09 287.10 315.73
C 291.62 349.29 292.85 370.18 292.09 401.36
C 291.10 441.75 286.68 474.30 278.37 502.25
C 272.64 521.55 266.60 531.88 258.64 535.93
C 253.01 538.80 249.97 538.79 244.45 535.88"/>
<path fill="#ffbb1c" stroke="none" d="
M 485.66 580.43
C 463.05 557.02 449.10 530.88 442.01 498.61
C 438.80 484.04 439.05 437.63 442.47 407.18
C 448.16 356.63 448.33 330.97 443.16 303.58
C 437.08 271.37 422.48 245.97 401.97 231.90
C 380.09 216.89 343.90 206.75 303.40 204.27
C 296.74 203.86 291.28 203.08 291.28 202.54
C 291.28 202.00 288.15 201.55 284.32 201.55
C 276.76 201.55 277.14 201.93 275.79 193.11
C 275.35 190.24 275.65 189.90 278.63 189.90
C 285.61 189.90 289.06 181.85 284.17 176.96
C 282.29 175.08 280.77 174.64 277.85 175.12
C 275.07 175.57 273.81 175.26 273.32 173.99
C 272.65 172.28 272.36 165.53 272.93 165.34
C 276.28 164.26 311.63 163.62 324.97 164.40
C 354.20 166.11 376.25 170.28 401.97 179.00
C 435.09 190.21 452.13 203.55 465.51 228.69
C 476.02 248.43 480.04 265.72 480.04 291.16
C 480.04 310.32 478.49 323.88 470.14 377.48
C 466.38 401.65 465.50 414.08 465.51 443.30
C 465.51 478.35 466.46 485.99 475.42 522.63
C 482.43 551.31 486.53 563.25 494.71 578.83
C 500.48 589.81 501.39 593.01 498.76 593.01
C 498.25 593.01 492.35 587.35 485.66 580.43
M 466.06 336.70
C 467.34 335.42 468.39 333.06 468.39 331.46
C 468.39 329.85 467.34 327.50 466.06 326.21
C 459.32 319.48 449.53 328.57 455.06 336.44
C 457.36 339.74 462.89 339.87 466.06 336.70
M 468.39 306.41
C 473.00 301.79 469.64 293.59 463.14 293.59
C 459.51 293.59 455.57 297.39 455.57 300.91
C 455.57 307.91 463.48 311.31 468.39 306.41
M 460.23 272.62
C 464.84 268.01 461.49 259.81 454.99 259.81
C 451.35 259.81 447.41 263.60 447.41 267.12
C 447.41 274.12 455.32 277.53 460.23 272.62
M 445.08 240.00
C 449.70 235.39 446.34 227.18 439.84 227.18
C 436.20 227.18 432.27 230.98 432.27 234.50
C 432.27 241.50 440.18 244.90 445.08 240.00
M 421.78 217.86
C 426.39 213.25 423.04 205.05 416.54 205.05
C 412.90 205.05 408.96 208.85 408.96 212.37
C 408.96 219.37 416.87 222.77 421.78 217.86
M 390.32 203.88
C 394.94 199.27 391.58 191.07 385.08 191.07
C 381.44 191.07 377.50 194.87 377.50 198.38
C 377.50 205.39 385.42 208.79 390.32 203.88
M 356.53 194.56
C 361.15 189.95 357.79 181.75 351.29 181.75
C 347.65 181.75 343.72 185.55 343.72 189.06
C 343.72 196.07 351.63 199.47 356.53 194.56
M 319.25 188.74
C 323.86 184.12 320.51 175.92 314.00 175.92
C 310.37 175.92 306.43 179.72 306.43 183.24
C 306.43 190.24 314.34 193.64 319.25 188.74"/>
<path fill="#ffbb1c" stroke="none" d="
M 105.65 215.35
C 94.53 213.75 85.66 205.98 81.56 194.20
C 76.89 180.83 77.49 164.20 83.51 140.80
C 87.62 124.74 86.88 120.26 79.72 117.77
C 75.29 116.25 74.18 116.37 63.41 119.49
C 48.31 123.86 33.78 124.16 25.26 120.28
C 19.24 117.54 19.11 116.37 24.54 113.56
C 28.16 111.68 29.07 108.70 26.33 107.65
C 25.43 107.31 22.09 108.35 18.91 109.96
L 13.12 112.89
L 10.59 110.20
C -0.54 98.37 16.86 79.70 44.47 73.83
C 56.38 71.29 79.50 72.21 88.96 75.58
C 98.40 78.94 103.13 82.11 106.21 87.11
C 110.25 93.62 109.57 100.43 103.14 118.25
C 98.90 129.98 97.52 135.58 97.02 143.03
C 95.82 160.95 102.03 175.47 113.31 181.10
C 123.55 186.20 136.39 185.30 197.92 175.21
C 215.46 172.33 230.01 170.18 230.25 170.42
C 230.50 170.67 229.90 176.33 228.95 183.01
C 226.07 203.06 226.16 202.72 223.65 202.72
C 222.40 202.72 221.38 203.16 221.38 203.71
C 221.38 204.26 216.26 205.06 210.02 205.49
C 203.77 205.92 181.10 208.32 159.62 210.84
C 112.72 216.33 112.61 216.34 105.65 215.35
M 139.82 203.88
C 141.10 202.60 142.15 200.25 142.15 198.64
C 142.15 197.03 141.10 194.68 139.82 193.40
C 133.08 186.66 123.29 195.75 128.82 203.63
C 131.12 206.92 136.65 207.05 139.82 203.88
M 175.94 200.39
C 177.22 199.11 178.27 196.75 178.27 195.15
C 178.27 193.54 177.22 191.18 175.94 189.90
C 169.20 183.17 159.41 192.26 164.94 200.13
C 167.24 203.43 172.77 203.56 175.94 200.39
M 108.36 199.22
C 109.64 197.94 110.69 195.59 110.69 193.98
C 110.69 192.37 109.64 190.02 108.36 188.74
C 101.62 182.00 91.84 191.09 97.36 198.97
C 99.67 202.26 105.19 202.39 108.36 199.22
M 213.22 194.56
C 214.50 193.28 215.55 190.93 215.55 189.32
C 215.55 187.71 214.50 185.36 213.22 184.08
C 206.49 177.34 196.70 186.43 202.22 194.31
C 204.53 197.60 210.05 197.73 213.22 194.56
M 46.70 99.12
C 49.22 96.59 50.10 94.61 50.10 91.46
C 50.10 85.54 44.95 80.39 39.03 80.39
C 35.87 80.39 33.89 81.27 31.37 83.79
C 26.67 88.50 26.67 94.42 31.37 99.12
C 36.07 103.82 41.99 103.82 46.70 99.12"/>
<path fill="#eb2e00" stroke="none" d="
M 41.70 95.59
C 43.35 92.69 43.45 91.57 42.25 88.39
C 40.47 83.69 41.05 82.99 44.18 86.12
C 47.25 89.18 47.29 93.68 44.28 96.70
C 40.84 100.14 39.44 99.53 41.70 95.59"/>
<path fill="#c55436" stroke="none" d="
M 457.82 333.69
C 456.05 331.55 457.56 328.19 460.57 327.60
C 463.20 327.08 465.47 331.68 463.67 333.86
C 461.85 336.05 459.72 335.98 457.82 333.69"/>
<path fill="#c55436" stroke="none" d="
M 460.15 303.40
C 458.38 301.26 459.89 297.90 462.90 297.31
C 465.53 296.78 467.80 301.39 466.00 303.57
C 464.18 305.76 462.05 305.69 460.15 303.40"/>
<path fill="#c55436" stroke="none" d="
M 451.99 269.62
C 450.22 267.47 451.74 264.12 454.74 263.52
C 457.37 263.00 459.65 267.60 457.84 269.78
C 456.02 271.97 453.89 271.90 451.99 269.62"/>
<path fill="#c55436" stroke="none" d="
M 436.85 236.99
C 435.07 234.85 436.59 231.50 439.59 230.90
C 442.23 230.38 444.50 234.98 442.69 237.16
C 440.88 239.35 438.74 239.28 436.85 236.99"/>
<path fill="#c55436" stroke="none" d="
M 413.54 214.86
C 411.77 212.71 413.29 209.36 416.29 208.77
C 418.93 208.24 421.20 212.84 419.39 215.02
C 417.57 217.21 415.44 217.14 413.54 214.86"/>
<path fill="#c55436" stroke="none" d="
M 131.58 200.88
C 129.81 198.73 131.32 195.38 134.33 194.78
C 136.96 194.26 139.23 198.86 137.43 201.04
C 135.61 203.23 133.48 203.16 131.58 200.88"/>
<path fill="#c55436" stroke="none" d="
M 382.08 200.88
C 380.31 198.73 381.83 195.38 384.83 194.78
C 387.47 194.26 389.74 198.86 387.93 201.04
C 386.11 203.23 383.98 203.16 382.08 200.88"/>
<path fill="#c55436" stroke="none" d="
M 167.70 197.38
C 165.93 195.24 167.44 191.88 170.45 191.29
C 173.08 190.77 175.35 195.37 173.55 197.55
C 171.73 199.74 169.60 199.67 167.70 197.38"/>
<path fill="#c55436" stroke="none" d="
M 100.12 196.22
C 98.35 194.07 99.86 190.72 102.87 190.12
C 105.50 189.60 107.78 194.20 105.97 196.38
C 104.15 198.57 102.02 198.50 100.12 196.22"/>
<path fill="#c55436" stroke="none" d="
M 204.98 191.56
C 203.21 189.41 204.73 186.06 207.73 185.46
C 210.37 184.94 212.64 189.54 210.83 191.72
C 209.01 193.91 206.88 193.84 204.98 191.56"/>
<path fill="#c55436" stroke="none" d="
M 348.29 191.56
C 346.52 189.41 348.04 186.06 351.04 185.46
C 353.68 184.94 355.95 189.54 354.14 191.72
C 352.33 193.91 350.19 193.84 348.29 191.56"/>
<path fill="#c55436" stroke="none" d="
M 311.01 185.73
C 309.24 183.59 310.75 180.23 313.76 179.64
C 316.39 179.11 318.67 183.72 316.86 185.90
C 315.04 188.09 312.91 188.02 311.01 185.73"/>
<path fill="#c55436" stroke="none" d="
M 276.37 185.01
C 274.33 182.97 274.66 180.83 277.22 179.46
C 280.27 177.83 280.52 177.89 282.00 180.65
C 284.20 184.77 279.64 188.28 276.37 185.01"/>
</g>
</svg>
