<?xml version="1.0" encoding="UTF-8" standalone="no"?>
<!DOCTYPE svg PUBLIC "-//W3C//DTD SVG 1.1//EN"
"http://www.w3.org/Graphics/SVG/1.1/DTD/svg11.dtd">
<svg width="324px" height="600px"
xmlns="http://www.w3.org/2000/svg" version="1.1">
<g transform="translate(0000, 0000) scale(1.0000, 1.0000)">
<path fill="#000000" stroke="none" d="
M 96.49 598.61
C 95.25 597.89 94.23 596.55 94.23 595.64
C 94.23 594.71 100.62 573.15 108.43 547.74
C 122.05 503.36 123.95 498.63 128.97 496.78
C 130.21 496.31 75.57 246.03 73.93 244.60
C 73.38 244.12 70.20 243.00 66.85 242.10
C 53.74 238.58 44.96 225.71 38.17 200.10
C 36.31 193.08 33.76 185.90 32.48 184.12
C 29.12 179.47 22.22 176.39 15.13 176.39
C 7.89 176.39 0.00 173.47 0.00 170.78
C 0.00 163.57 38.84 145.70 67.21 139.85
C 89.48 135.27 122.46 133.74 131.65 136.88
C 137.64 138.93 138.16 142.30 132.93 145.17
C 124.02 150.06 112.82 159.30 110.44 163.71
C 107.99 168.24 107.99 168.79 110.12 186.22
C 112.92 209.02 112.95 221.63 110.22 226.88
C 109.09 229.08 105.62 233.59 102.51 236.90
L 96.86 242.92
L 123.97 368.34
C 138.88 437.33 151.31 494.36 151.60 495.06
C 151.88 495.77 152.16 408.22 152.22 300.52
L 152.32 104.68
L 146.07 100.80
C 135.58 94.29 133.27 90.09 129.47 70.60
C 122.95 37.02 117.56 27.45 101.96 21.77
C 93.48 18.70 91.62 16.66 94.32 13.40
C 99.54 7.13 115.01 3.26 143.54 1.06
C 181.01 -1.83 221.87 4.03 229.68 13.40
C 232.38 16.66 230.52 18.70 222.04 21.77
C 206.44 27.45 201.05 37.02 194.53 70.60
C 190.73 90.09 188.42 94.29 177.93 100.80
L 171.68 104.68
L 171.78 300.52
C 171.84 408.22 172.12 495.77 172.40 495.06
C 172.69 494.36 185.12 437.33 200.03 368.34
L 227.14 242.92
L 221.49 236.90
C 218.38 233.59 214.91 229.08 213.78 226.88
C 211.05 221.63 211.08 209.02 213.88 186.22
C 216.01 168.79 216.01 168.24 213.56 163.71
C 211.18 159.30 199.98 150.06 191.07 145.17
C 185.84 142.30 186.36 138.93 192.35 136.88
C 197.96 134.96 220.20 134.78 235.53 136.53
C 260.80 139.43 280.02 144.85 301.51 155.16
C 316.42 162.32 324.00 167.58 324.00 170.78
C 324.00 173.47 316.11 176.39 308.87 176.39
C 301.78 176.39 294.88 179.47 291.52 184.12
C 290.24 185.90 287.69 193.08 285.83 200.10
C 279.04 225.71 270.26 238.58 257.15 242.10
C 253.80 243.00 250.62 244.12 250.07 244.60
C 248.43 246.03 193.79 496.31 195.03 496.78
C 200.05 498.63 201.95 503.36 215.57 547.74
C 223.38 573.15 229.77 594.72 229.77 595.65
C 229.77 596.58 228.65 597.94 227.28 598.66
C 223.87 600.48 99.61 600.42 96.49 598.61
M 219.25 591.86
C 220.31 590.60 217.74 580.64 209.08 552.27
C 195.76 508.73 195.36 507.62 192.24 505.96
C 189.21 504.35 134.79 504.35 131.76 505.96
C 128.64 507.62 128.24 508.73 114.92 552.27
C 106.26 580.64 103.69 590.60 104.75 591.86
C 106.83 594.36 217.17 594.36 219.25 591.86
M 142.84 492.17
C 139.40 476.00 91.35 255.50 90.27 250.89
C 89.12 245.94 88.46 245.03 86.40 245.58
C 85.03 245.94 83.90 246.88 83.90 247.67
C 83.90 249.94 135.46 486.79 136.97 491.52
C 137.91 494.45 139.11 495.71 140.96 495.71
C 143.17 495.71 143.48 495.13 142.84 492.17
M 163.94 300.64
C 163.94 128.11 163.72 105.58 162.00 105.58
C 160.28 105.58 160.06 128.11 160.06 300.64
C 160.06 473.18 160.28 495.71 162.00 495.71
C 163.72 495.71 163.94 473.18 163.94 300.64
M 187.03 491.52
C 188.54 486.79 240.10 249.94 240.10 247.67
C 240.10 246.88 238.97 245.94 237.60 245.58
C 235.54 245.03 234.88 245.94 233.73 250.89
C 232.65 255.50 184.60 476.00 181.16 492.17
C 180.52 495.13 180.83 495.71 183.04 495.71
C 184.89 495.71 186.09 494.45 187.03 491.52
M 92.66 232.55
C 98.63 229.43 101.95 224.78 103.54 217.27
C 104.83 211.12 104.62 207.18 102.07 189.97
C 99.17 170.45 99.15 169.67 101.36 163.91
C 103.87 157.34 110.86 148.93 116.82 145.29
L 120.69 142.93
L 114.88 142.94
C 92.50 143.02 46.22 153.52 25.95 163.11
L 16.14 167.76
L 21.94 168.84
C 34.63 171.22 42.84 180.95 45.98 197.34
C 49.39 215.19 59.78 231.12 70.05 234.26
C 75.36 235.89 88.06 234.93 92.66 232.55
M 253.34 234.26
C 264.13 231.27 274.51 215.74 278.02 197.34
C 281.16 180.95 289.37 171.22 302.06 168.84
L 307.86 167.76
L 298.05 163.11
C 277.78 153.52 231.50 143.02 209.12 142.94
L 203.31 142.93
L 207.18 145.34
C 213.30 149.15 219.07 155.90 222.13 162.80
L 224.94 169.15
L 221.95 189.95
C 219.31 208.18 219.15 211.66 220.57 217.98
C 222.35 225.91 228.07 232.34 234.64 233.78
C 236.57 234.21 238.74 234.76 239.45 234.99
C 242.17 235.89 248.68 235.56 253.34 234.26
M 172.97 93.61
C 180.77 89.81 183.70 84.06 187.83 64.58
C 194.08 35.03 198.94 24.70 209.74 18.05
C 212.24 16.49 213.99 14.76 213.63 14.16
C 209.83 8.02 114.17 8.02 110.37 14.16
C 110.01 14.76 111.76 16.49 114.26 18.05
C 125.03 24.68 129.92 35.06 136.13 64.39
C 139.40 79.83 142.56 88.15 146.34 91.27
C 149.92 94.24 160.66 97.80 163.94 97.11
C 165.72 96.75 169.78 95.16 172.97 93.61"/>
<path fill="#21942f" stroke="none" d="
M 136.97 491.52
C 135.46 486.79 83.90 249.94 83.90 247.67
C 83.90 246.88 85.03 245.94 86.40 245.58
C 88.46 245.03 89.12 245.94 90.27 250.89
C 91.35 255.50 139.40 476.00 142.84 492.17
C 143.48 495.13 143.17 495.71 140.96 495.71
C 139.11 495.71 137.91 494.45 136.97 491.52"/>
<path fill="#21942f" stroke="none" d="
M 160.06 300.64
C 160.06 128.11 160.28 105.58 162.00 105.58
C 163.72 105.58 163.94 128.11 163.94 300.64
C 163.94 473.18 163.72 495.71 162.00 495.71
C 160.28 495.71 160.06 473.18 160.06 300.64"/>
<path fill="#21942f" stroke="none" d="
M 181.16 492.17
C 184.60 476.00 232.65 255.50 233.73 250.89
C 234.88 245.94 235.54 245.03 237.60 245.58
C 238.97 245.94 240.10 246.88 240.10 247.67
C 240.10 249.94 188.54 486.79 187.03 491.52
C 186.09 494.45 184.89 495.71 183.04 495.71
C 180.83 495.71 180.52 495.13 181.16 492.17"/>
<path fill="#21942f" stroke="none" d="
M 70.05 234.26
C 59.78 231.12 49.39 215.19 45.98 197.34
C 42.84 180.95 34.63 171.22 21.94 168.84
L 16.14 167.76
L 25.95 163.11
C 46.22 153.52 92.50 143.02 114.88 142.94
L 120.69 142.93
L 116.82 145.29
C 110.86 148.93 103.87 157.34 101.36 163.91
C 99.15 169.67 99.17 170.45 102.07 189.97
C 104.62 207.18 104.83 211.12 103.54 217.27
C 101.14 228.70 94.67 233.94 81.68 234.95
C 77.58 235.27 72.34 234.97 70.05 234.26"/>
<path fill="#21942f" stroke="none" d="
M 239.45 234.99
C 238.74 234.76 236.57 234.21 234.64 233.78
C 228.07 232.34 222.35 225.91 220.57 217.98
C 219.15 211.66 219.31 208.18 221.95 189.95
L 224.94 169.15
L 222.13 162.80
C 219.07 155.90 213.30 149.15 207.18 145.34
L 203.31 142.93
L 209.12 142.94
C 231.50 143.02 277.78 153.52 298.05 163.11
L 307.86 167.76
L 302.06 168.84
C 289.37 171.22 281.16 180.95 278.02 197.34
C 274.51 215.74 264.13 231.27 253.34 234.26
C 248.68 235.56 242.17 235.89 239.45 234.99"/>
<path fill="#21942f" stroke="none" d="
M 154.50 95.34
C 151.09 94.00 147.41 92.16 146.34 91.27
C 142.56 88.15 139.40 79.83 136.13 64.39
C 129.92 35.06 125.03 24.68 114.26 18.05
C 111.76 16.49 110.01 14.76 110.37 14.16
C 114.16 8.05 209.84 8.05 213.63 14.16
C 213.99 14.76 212.24 16.49 209.74 18.05
C 198.94 24.70 194.08 35.03 187.83 64.58
C 183.70 84.06 180.77 89.81 172.97 93.61
C 164.43 97.78 161.38 98.06 154.50 95.34"/>
<path fill="#c57a36" stroke="none" d="
M 104.75 591.86
C 103.69 590.60 106.26 580.64 114.92 552.27
C 128.70 507.24 128.63 507.40 132.59 505.91
C 136.74 504.33 189.29 504.39 192.24 505.96
C 195.36 507.62 195.76 508.73 209.08 552.27
C 217.74 580.64 220.31 590.60 219.25 591.86
C 217.17 594.36 106.83 594.36 104.75 591.86"/>
</g>
</svg>
