<?xml version="1.0" encoding="UTF-8" standalone="no"?>
<!DOCTYPE svg PUBLIC "-//W3C//DTD SVG 1.1//EN"
"http://www.w3.org/Graphics/SVG/1.1/DTD/svg11.dtd">
<svg width="329px" height="600px"
xmlns="http://www.w3.org/2000/svg" version="1.1">
<g transform="translate(0000, 0000) scale(1.0000, 1.0000)">
<path fill="#000000" stroke="none" d="
M 39.28 598.00
C 37.23 595.52 38.85 589.39 45.23 575.52
C 53.56 557.41 67.88 539.61 84.22 527.04
C 93.76 519.71 110.76 510.76 122.23 507.03
C 127.71 505.24 131.08 503.44 131.08 502.27
C 131.08 498.64 76.06 249.73 75.07 248.87
C 74.52 248.38 71.28 247.24 67.88 246.33
C 54.57 242.75 45.65 229.65 38.76 203.59
C 36.87 196.45 34.28 189.14 32.98 187.34
C 29.57 182.61 22.56 179.48 15.36 179.48
C 8.01 179.48 0.00 176.50 0.00 173.76
C 0.00 166.43 39.44 148.24 68.25 142.30
C 90.86 137.63 124.35 136.07 133.68 139.27
C 139.77 141.35 140.29 144.79 134.98 147.71
C 125.94 152.69 114.56 162.08 112.15 166.57
C 109.66 171.18 109.66 171.73 111.82 189.47
C 114.67 212.67 114.69 225.50 111.93 230.84
C 110.77 233.08 107.25 237.67 104.09 241.03
L 98.36 247.17
L 125.41 372.81
C 140.29 441.93 152.97 499.03 153.57 499.72
C 154.17 500.40 154.67 412.21 154.67 303.73
L 154.67 106.51
L 148.33 102.56
C 137.67 95.93 135.32 91.66 131.47 71.83
C 124.85 37.66 119.37 27.93 103.54 22.15
C 94.93 19.02 93.04 16.95 95.78 13.64
C 101.07 7.26 116.79 3.31 145.76 1.07
C 183.81 -1.86 225.29 4.10 233.22 13.64
C 235.96 16.95 234.07 19.02 225.46 22.15
C 209.63 27.93 204.15 37.66 197.53 71.83
C 193.68 91.66 191.33 95.93 180.67 102.56
L 174.33 106.51
L 174.33 303.73
C 174.33 412.21 174.83 500.40 175.43 499.72
C 176.03 499.03 188.71 441.93 203.59 372.81
L 230.64 247.17
L 224.91 241.03
C 221.75 237.67 218.23 233.08 217.07 230.84
C 214.31 225.50 214.33 212.67 217.18 189.47
C 219.34 171.73 219.34 171.18 216.85 166.57
C 214.44 162.08 203.06 152.69 194.02 147.71
C 188.71 144.79 189.23 141.35 195.32 139.27
C 201.02 137.32 223.60 137.14 239.16 138.92
C 264.83 141.86 284.34 147.38 306.17 157.87
C 321.31 165.16 329.00 170.50 329.00 173.76
C 329.00 176.50 320.99 179.48 313.64 179.48
C 306.44 179.48 299.43 182.61 296.02 187.34
C 294.72 189.14 292.13 196.45 290.24 203.59
C 283.35 229.65 274.43 242.75 261.12 246.33
C 257.72 247.24 254.48 248.38 253.93 248.87
C 252.98 249.71 197.92 498.56 197.92 502.07
C 197.92 503.02 201.76 504.83 206.77 506.24
C 239.83 515.59 271.50 543.14 286.39 575.52
C 288.77 580.69 291.46 587.42 292.36 590.46
C 295.42 600.80 305.97 600.00 165.81 600.00
C 55.27 600.00 40.76 599.76 39.28 598.00
M 282.49 590.79
C 282.95 590.04 281.55 585.62 279.36 580.95
C 263.71 547.53 231.28 521.17 194.49 511.97
C 178.01 507.85 152.13 507.90 136.32 512.10
C 108.43 519.50 82.29 536.88 65.24 559.39
C 57.78 569.24 47.78 588.60 49.07 590.71
C 50.29 592.66 281.29 592.74 282.49 590.79
M 143.83 502.00
C 145.00 501.26 145.10 499.73 144.21 496.45
C 143.54 493.97 131.43 438.56 117.30 373.36
C 103.17 308.15 91.31 253.55 90.93 252.00
C 90.43 250.02 89.50 249.39 87.72 249.86
C 86.33 250.23 85.20 251.20 85.20 252.03
C 85.20 254.54 138.76 500.40 139.61 501.77
C 140.57 503.31 141.67 503.37 143.83 502.00
M 216.94 377.23
C 231.72 309.18 243.80 252.84 243.80 252.03
C 243.80 251.20 242.66 250.23 241.27 249.86
C 239.17 249.31 238.51 250.23 237.34 255.28
C 236.55 258.62 224.43 314.36 210.39 379.14
C 196.35 443.92 184.53 497.96 184.12 499.23
C 183.37 501.59 187.06 503.46 189.09 501.77
C 189.64 501.30 202.17 445.26 216.94 377.23
M 166.47 303.93
C 166.47 130.13 166.24 107.42 164.50 107.42
C 162.76 107.42 162.53 130.13 162.53 303.93
C 162.53 477.73 162.76 500.44 164.50 500.44
C 166.24 500.44 166.47 477.73 166.47 303.93
M 94.09 236.61
C 100.15 233.44 103.52 228.71 105.14 221.07
C 106.45 214.81 106.24 210.80 103.64 193.28
C 100.71 173.42 100.68 172.64 102.92 166.77
C 105.48 160.09 112.57 151.53 118.62 147.83
L 122.56 145.43
L 116.66 145.44
C 93.93 145.52 46.94 156.20 26.35 165.96
L 16.38 170.69
L 22.28 171.79
C 35.17 174.21 43.50 184.11 46.69 200.79
C 50.15 218.95 60.70 235.15 71.13 238.35
C 76.52 240.01 89.42 239.03 94.09 236.61
M 257.25 238.35
C 268.21 235.31 278.75 219.51 282.31 200.79
C 285.50 184.11 293.83 174.21 306.72 171.79
L 312.62 170.69
L 302.65 165.96
C 282.06 156.20 235.07 145.52 212.34 145.44
L 206.44 145.43
L 210.38 147.88
C 216.59 151.76 222.45 158.62 225.56 165.64
L 228.41 172.10
L 225.37 193.27
C 222.70 211.82 222.53 215.36 223.97 221.79
C 225.78 229.86 231.58 236.40 238.26 237.86
C 240.22 238.30 242.42 238.86 243.15 239.10
C 245.91 240.01 252.52 239.67 257.25 238.35
M 175.64 95.24
C 183.56 91.38 186.53 85.53 190.73 65.71
C 197.07 35.65 202.01 25.13 212.97 18.37
C 215.51 16.78 217.30 15.01 216.93 14.41
C 213.06 8.16 115.94 8.16 112.07 14.41
C 111.70 15.01 113.49 16.78 116.03 18.37
C 126.96 25.11 131.93 35.67 138.23 65.52
C 141.55 81.22 144.76 89.69 148.60 92.87
C 152.23 95.88 163.14 99.51 166.47 98.80
C 168.27 98.44 172.40 96.83 175.64 95.24"/>
<path fill="#21942f" stroke="none" d="
M 139.61 501.77
C 138.76 500.40 85.20 254.54 85.20 252.03
C 85.20 251.20 86.33 250.23 87.72 249.86
C 89.50 249.39 90.43 250.02 90.93 252.00
C 91.31 253.55 103.17 308.15 117.30 373.36
C 131.43 438.56 143.54 493.97 144.21 496.45
C 145.10 499.73 145.00 501.26 143.83 502.00
C 141.67 503.37 140.57 503.31 139.61 501.77"/>
<path fill="#21942f" stroke="none" d="
M 185.75 502.07
C 184.19 501.72 183.65 500.75 184.12 499.23
C 184.53 497.96 196.35 443.92 210.39 379.14
C 224.43 314.36 236.55 258.62 237.34 255.28
C 238.51 250.23 239.17 249.31 241.27 249.86
C 242.66 250.23 243.80 251.20 243.80 252.03
C 243.80 255.43 190.01 501.00 189.09 501.77
C 188.54 502.23 187.03 502.36 185.75 502.07"/>
<path fill="#21942f" stroke="none" d="
M 162.53 303.93
C 162.53 130.13 162.76 107.42 164.50 107.42
C 166.24 107.42 166.47 130.13 166.47 303.93
C 166.47 477.73 166.24 500.44 164.50 500.44
C 162.76 500.44 162.53 477.73 162.53 303.93"/>
<path fill="#21942f" stroke="none" d="
M 71.13 238.35
C 60.70 235.15 50.15 218.95 46.69 200.79
C 43.50 184.11 35.17 174.21 22.28 171.79
L 16.38 170.69
L 26.35 165.96
C 46.94 156.20 93.93 145.52 116.66 145.44
L 122.56 145.43
L 118.62 147.83
C 112.57 151.53 105.48 160.09 102.92 166.77
C 100.68 172.64 100.71 173.42 103.64 193.28
C 106.24 210.80 106.45 214.81 105.14 221.07
C 102.70 232.69 96.13 238.02 82.94 239.06
C 78.78 239.38 73.45 239.07 71.13 238.35"/>
<path fill="#21942f" stroke="none" d="
M 243.15 239.10
C 242.42 238.86 240.22 238.30 238.26 237.86
C 231.58 236.40 225.78 229.86 223.97 221.79
C 222.53 215.36 222.70 211.82 225.37 193.27
L 228.41 172.10
L 225.56 165.64
C 222.45 158.62 216.59 151.76 210.38 147.88
L 206.44 145.43
L 212.34 145.44
C 235.07 145.52 282.06 156.20 302.65 165.96
L 312.62 170.69
L 306.72 171.79
C 293.83 174.21 285.50 184.11 282.31 200.79
C 278.75 219.51 268.21 235.31 257.25 238.35
C 252.52 239.67 245.91 240.01 243.15 239.10"/>
<path fill="#21942f" stroke="none" d="
M 156.88 97.01
C 153.42 95.65 149.69 93.77 148.60 92.87
C 144.76 89.69 141.55 81.22 138.23 65.52
C 131.93 35.67 126.96 25.11 116.03 18.37
C 113.49 16.78 111.70 15.01 112.07 14.41
C 115.92 8.19 213.08 8.19 216.93 14.41
C 217.30 15.01 215.51 16.78 212.97 18.37
C 202.01 25.13 197.07 35.65 190.73 65.71
C 186.53 85.53 183.56 91.38 175.64 95.24
C 166.96 99.48 163.87 99.77 156.88 97.01"/>
<path fill="#c57a36" stroke="none" d="
M 49.07 590.71
C 47.78 588.60 57.78 569.24 65.24 559.39
C 82.30 536.86 108.52 519.43 136.32 512.12
C 152.24 507.94 178.14 507.86 194.49 511.97
C 231.30 521.19 263.71 547.53 279.36 580.95
C 281.55 585.62 282.95 590.04 282.49 590.79
C 281.29 592.74 50.29 592.66 49.07 590.71"/>
</g>
</svg>
