<?xml version="1.0" encoding="UTF-8" standalone="no"?>
<!DOCTYPE svg PUBLIC "-//W3C//DTD SVG 1.1//EN"
"http://www.w3.org/Graphics/SVG/1.1/DTD/svg11.dtd">
<svg width="133px" height="600px"
xmlns="http://www.w3.org/2000/svg" version="1.1">
<g transform="translate(0000, 0000) scale(1.0000, 1.0000)">
<path fill="#000000" stroke="none" d="
M 102.01 597.42
C 100.59 596.01 99.43 594.41 99.43 593.88
C 99.43 593.36 100.27 585.03 101.29 575.38
C 105.83 532.44 105.08 504.53 99.05 491.48
C 88.94 469.62 58.97 451.35 10.02 437.21
C 1.50 434.76 0.00 432.77 0.00 424.02
C -0.01 414.32 47.54 12.86 49.38 7.12
C 51.64 0.04 56.26 -1.21 69.07 1.80
C 94.09 7.69 116.76 25.73 128.22 48.90
L 132.35 57.24
L 132.69 326.03
C 133.01 593.65 133.01 594.84 130.43 597.41
C 128.22 599.61 126.13 600.00 116.21 600.00
C 106.31 600.00 104.20 599.61 102.01 597.42
M 122.67 590.99
C 125.19 588.48 125.25 586.70 125.25 523.62
L 125.25 458.83
L 121.70 454.09
C 108.65 436.73 67.69 416.24 19.82 403.18
L 10.60 400.66
L 9.77 407.95
C 9.34 411.95 8.65 417.36 8.26 419.96
C 7.33 426.13 10.50 429.39 18.57 430.60
C 40.71 433.91 81.74 455.52 96.25 471.54
C 108.50 485.06 112.25 498.37 112.28 528.54
C 112.28 543.40 110.70 569.65 109.05 582.19
C 108.39 587.21 108.70 588.64 110.95 590.88
C 114.34 594.27 119.34 594.31 122.67 590.99
M 122.92 414.63
C 116.91 406.52 97.53 394.74 73.60 384.62
C 61.43 379.47 26.52 367.31 17.96 365.24
L 14.62 364.43
L 13.12 378.24
C 10.86 399.01 10.82 398.70 16.28 399.72
C 25.02 401.37 57.44 412.31 72.10 418.58
C 91.85 427.04 105.99 435.53 116.15 445.06
L 124.61 452.97
L 124.97 435.42
C 125.29 419.96 125.05 417.50 122.92 414.63
M 122.39 372.41
C 112.65 361.97 80.64 346.69 38.43 332.34
L 19.56 325.93
L 18.80 330.67
C 17.66 337.76 15.42 360.86 15.83 361.27
C 16.02 361.47 25.89 364.84 37.74 368.76
C 74.82 380.99 102.71 393.91 117.03 405.50
L 124.61 411.64
L 124.97 393.61
C 125.30 376.36 125.20 375.42 122.39 372.41
M 122.75 332.91
C 118.33 328.22 100.78 318.37 83.93 311.11
C 68.14 304.30 24.46 288.01 23.86 288.71
C 22.97 289.76 19.73 322.66 20.44 323.33
C 20.92 323.76 26.21 325.66 32.19 327.57
C 65.69 338.15 105.69 355.71 118.15 365.32
L 124.61 370.29
L 124.97 352.97
C 125.29 337.15 125.11 335.42 122.75 332.91
M 121.57 290.81
C 112.84 282.98 90.98 272.29 63.27 262.33
C 40.34 254.09 28.38 250.85 27.79 252.76
C 26.42 257.12 24.35 284.87 25.33 285.72
C 25.97 286.26 32.86 288.90 40.67 291.58
C 73.38 302.78 105.29 317.07 118.15 326.29
L 124.61 330.91
L 124.98 312.55
L 125.36 294.21
L 121.57 290.81
M 120.76 248.97
C 112.47 241.74 81.67 227.87 45.48 215.06
C 38.88 212.72 33.26 211.03 32.99 211.31
C 32.62 211.69 28.41 245.03 28.41 247.66
C 28.41 247.97 36.10 250.66 45.52 253.64
C 77.17 263.65 103.87 275.16 118.15 284.94
L 124.61 289.35
L 124.99 271.18
L 125.38 253.00
L 120.76 248.97
M 123.46 212.25
C 118.58 205.31 95.27 191.70 72.96 182.79
C 63.03 178.82 37.46 169.88 37.43 170.37
C 37.43 170.50 36.56 177.53 35.50 186.00
C 32.49 210.06 31.34 207.45 47.45 213.06
C 78.20 223.76 109.15 237.40 120.09 245.03
L 124.61 248.19
L 124.97 231.55
C 125.25 218.67 124.90 214.33 123.46 212.25
M 118.91 167.19
C 110.82 159.71 87.87 147.94 64.56 139.33
C 54.98 135.79 45.90 132.53 44.41 132.08
C 41.79 131.30 41.60 131.95 39.89 147.72
C 38.89 156.76 38.09 164.96 38.09 165.93
C 38.09 167.02 44.60 169.93 55.52 173.72
C 86.54 184.47 113.00 197.69 121.38 206.64
L 124.61 210.09
L 124.99 191.63
L 125.38 173.18
L 118.91 167.19
M 123.92 135.13
C 121.75 131.07 108.62 122.01 94.65 114.91
C 78.84 106.88 49.31 94.91 47.25 95.70
C 45.36 96.42 41.80 127.24 43.44 128.68
C 44.04 129.21 50.94 131.82 58.75 134.47
C 85.39 143.51 114.96 158.30 122.08 166.16
C 124.61 168.95 124.61 168.94 124.97 153.35
C 125.19 143.83 124.79 136.73 123.92 135.13
M 122.39 96.84
C 115.41 89.24 92.23 76.73 64.47 65.58
C 54.92 61.73 51.04 60.70 50.36 61.82
C 49.83 62.65 49.00 67.78 48.53 73.20
C 48.05 78.62 47.32 85.22 46.91 87.88
C 46.40 91.20 46.64 92.70 47.71 92.70
C 50.69 92.70 79.45 104.48 93.59 111.50
C 101.43 115.38 111.60 121.33 116.21 124.70
L 124.61 130.85
L 124.97 115.44
C 125.32 100.94 125.16 99.85 122.39 96.84
M 120.73 60.68
C 114.95 54.45 97.72 44.96 73.73 34.78
C 60.73 29.25 54.85 27.33 54.19 28.38
C 53.69 29.20 52.89 34.30 52.43 39.72
C 51.95 45.14 51.26 51.31 50.89 53.43
C 50.23 57.24 50.37 57.36 61.59 61.62
C 78.84 68.20 113.62 85.61 119.44 90.61
L 124.61 95.02
L 124.97 80.33
L 125.33 65.64
L 120.73 60.68
M 118.34 49.25
C 106.74 30.19 88.45 15.70 68.62 9.82
C 58.69 6.89 56.83 8.16 54.87 19.31
L 54.08 23.82
L 69.33 30.13
C 88.61 38.11 110.16 48.84 116.86 53.78
C 119.70 55.88 122.23 57.41 122.49 57.19
C 122.73 56.99 120.88 53.41 118.34 49.25"/>
<path fill="#21af28" stroke="none" d="
M 110.95 590.88
C 108.70 588.64 108.39 587.21 109.05 582.19
C 110.70 569.65 112.28 543.40 112.28 528.54
C 112.25 498.37 108.50 485.06 96.25 471.54
C 81.74 455.52 40.71 433.91 18.57 430.60
C 10.50 429.39 7.33 426.13 8.26 419.96
C 8.65 417.36 9.34 411.95 9.77 407.95
L 10.60 400.66
L 19.82 403.18
C 67.69 416.24 108.65 436.73 121.70 454.09
L 125.25 458.83
L 125.25 523.62
C 125.25 586.70 125.19 588.48 122.67 590.99
C 119.34 594.31 114.34 594.27 110.95 590.88"/>
<path fill="#21af28" stroke="none" d="
M 116.15 445.06
C 105.99 435.53 91.85 427.04 72.10 418.58
C 57.44 412.31 25.02 401.37 16.28 399.72
C 10.82 398.70 10.86 399.01 13.12 378.24
L 14.62 364.43
L 17.96 365.24
C 26.52 367.31 61.43 379.47 73.60 384.62
C 97.53 394.74 116.91 406.52 122.92 414.63
C 125.05 417.50 125.29 419.96 124.97 435.42
L 124.61 452.97
L 116.15 445.06"/>
<path fill="#21af28" stroke="none" d="
M 117.03 405.50
C 102.71 393.91 74.82 380.99 37.74 368.76
C 25.89 364.84 16.02 361.47 15.83 361.27
C 15.42 360.86 17.66 337.76 18.80 330.67
L 19.56 325.93
L 38.43 332.34
C 80.64 346.69 112.65 361.97 122.39 372.41
C 125.20 375.42 125.30 376.36 124.97 393.61
L 124.61 411.64
L 117.03 405.50"/>
<path fill="#21af28" stroke="none" d="
M 118.15 365.32
C 105.69 355.71 65.69 338.15 32.19 327.57
C 26.21 325.66 20.92 323.76 20.44 323.33
C 19.73 322.66 22.97 289.76 23.86 288.71
C 24.46 288.01 68.14 304.30 83.93 311.11
C 100.78 318.37 118.33 328.22 122.75 332.91
C 125.11 335.42 125.29 337.15 124.97 352.97
L 124.61 370.29
L 118.15 365.32"/>
<path fill="#21af28" stroke="none" d="
M 118.15 326.29
C 105.29 317.07 73.38 302.78 40.67 291.58
C 32.86 288.90 25.97 286.26 25.33 285.72
C 24.35 284.87 26.42 257.12 27.79 252.76
C 28.38 250.85 40.34 254.09 63.27 262.33
C 90.98 272.29 112.84 282.98 121.57 290.81
L 125.36 294.21
L 124.98 312.55
L 124.61 330.91
L 118.15 326.29"/>
<path fill="#21af28" stroke="none" d="
M 118.15 284.94
C 103.87 275.16 77.17 263.65 45.52 253.64
C 36.10 250.66 28.41 247.97 28.41 247.66
C 28.41 245.03 32.62 211.69 32.99 211.31
C 33.26 211.03 38.88 212.72 45.48 215.06
C 81.67 227.87 112.47 241.74 120.76 248.97
L 125.38 253.00
L 124.99 271.18
L 124.61 289.35
L 118.15 284.94"/>
<path fill="#21af28" stroke="none" d="
M 120.09 245.03
C 109.15 237.40 78.20 223.76 47.45 213.06
C 31.34 207.45 32.49 210.06 35.50 186.00
C 36.56 177.53 37.43 170.50 37.43 170.37
C 37.46 169.88 63.03 178.82 72.96 182.79
C 95.27 191.70 118.58 205.31 123.46 212.25
C 124.90 214.33 125.25 218.67 124.97 231.55
L 124.61 248.19
L 120.09 245.03"/>
<path fill="#21af28" stroke="none" d="
M 121.38 206.64
C 113.00 197.69 86.54 184.47 55.52 173.72
C 44.60 169.93 38.09 167.02 38.09 165.93
C 38.09 164.96 38.89 156.76 39.89 147.72
C 41.60 131.95 41.79 131.30 44.41 132.08
C 45.90 132.53 54.98 135.79 64.56 139.33
C 87.87 147.94 110.82 159.71 118.91 167.19
L 125.38 173.18
L 124.99 191.63
L 124.61 210.09
L 121.38 206.64"/>
<path fill="#21af28" stroke="none" d="
M 122.08 166.16
C 114.96 158.30 85.39 143.51 58.75 134.47
C 50.94 131.82 44.04 129.21 43.44 128.68
C 41.80 127.24 45.36 96.42 47.25 95.70
C 49.31 94.91 78.84 106.88 94.65 114.91
C 108.62 122.01 121.75 131.07 123.92 135.13
C 124.79 136.73 125.19 143.83 124.97 153.35
C 124.61 168.94 124.61 168.95 122.08 166.16"/>
<path fill="#21af28" stroke="none" d="
M 116.21 124.70
C 111.60 121.33 101.43 115.38 93.59 111.50
C 79.45 104.48 50.69 92.70 47.71 92.70
C 46.64 92.70 46.40 91.20 46.91 87.88
C 47.32 85.22 48.05 78.62 48.53 73.20
C 49.00 67.78 49.83 62.65 50.36 61.82
C 52.08 59.05 95.66 78.04 111.69 88.55
C 125.32 97.48 125.39 97.62 124.97 115.44
L 124.61 130.85
L 116.21 124.70"/>
<path fill="#21af28" stroke="none" d="
M 119.44 90.61
C 113.62 85.61 78.84 68.20 61.59 61.62
C 50.37 57.36 50.23 57.24 50.89 53.43
C 51.26 51.31 51.95 45.14 52.43 39.72
C 52.89 34.30 53.69 29.20 54.19 28.38
C 54.85 27.33 60.73 29.25 73.73 34.78
C 97.72 44.96 114.95 54.45 120.73 60.68
L 125.33 65.64
L 124.97 80.33
L 124.61 95.02
L 119.44 90.61"/>
<path fill="#21af28" stroke="none" d="
M 116.86 53.78
C 110.16 48.84 88.61 38.11 69.33 30.13
L 54.08 23.82
L 54.87 19.31
C 55.30 16.83 55.98 13.75 56.35 12.48
C 59.44 2.01 91.19 16.13 108.39 35.63
C 113.71 41.64 123.37 56.45 122.49 57.19
C 122.23 57.41 119.70 55.88 116.86 53.78"/>
</g>
</svg>
