<?xml version="1.0" encoding="UTF-8" standalone="no"?>
<!DOCTYPE svg PUBLIC "-//W3C//DTD SVG 1.1//EN"
"http://www.w3.org/Graphics/SVG/1.1/DTD/svg11.dtd">
<svg width="293px" height="600px"
xmlns="http://www.w3.org/2000/svg" version="1.1">
<g transform="translate(0000, 0000) scale(1.0000, 1.0000)">
<path fill="#000000" stroke="none" d="
M 101.97 597.42
C 100.55 596.01 99.39 594.41 99.39 593.88
C 99.39 593.36 100.23 585.03 101.25 575.38
C 105.79 532.44 105.04 504.53 99.01 491.48
C 88.91 469.62 58.95 451.35 10.02 437.21
C 1.50 434.76 0.00 432.77 0.00 424.02
C -0.01 414.32 47.53 12.86 49.36 7.12
C 51.62 0.04 56.24 -1.21 69.04 1.80
C 94.06 7.69 116.71 25.73 128.17 48.90
L 132.30 57.24
L 132.64 326.03
C 132.96 593.65 132.96 594.84 130.38 597.41
C 128.17 599.61 126.08 600.00 116.17 600.00
C 106.27 600.00 104.16 599.61 101.97 597.42
M 122.62 590.99
C 125.14 588.48 125.20 586.70 125.20 523.62
L 125.20 458.83
L 121.65 454.09
C 108.60 436.73 67.66 416.24 19.81 403.18
L 10.60 400.66
L 9.77 407.95
C 9.33 411.95 8.65 417.36 8.26 419.96
C 7.33 426.13 10.49 429.39 18.56 430.60
C 40.70 433.91 81.70 455.52 96.21 471.54
C 108.46 485.06 112.20 498.37 112.23 528.54
C 112.23 543.40 110.66 569.65 109.00 582.19
C 108.35 587.21 108.66 588.64 110.90 590.88
C 114.30 594.27 119.29 594.31 122.62 590.99
M 122.87 414.63
C 116.86 406.52 97.49 394.74 73.57 384.62
C 61.40 379.47 26.51 367.31 17.95 365.24
L 14.61 364.43
L 13.11 378.24
C 10.86 399.01 10.82 398.70 16.28 399.72
C 25.01 401.37 57.41 412.31 72.08 418.58
C 91.81 427.04 105.94 435.53 116.10 445.06
L 124.56 452.97
L 124.92 435.42
C 125.24 419.96 125.00 417.50 122.87 414.63
M 122.34 372.41
C 112.60 361.97 80.61 346.69 38.41 332.34
L 19.55 325.93
L 18.79 330.67
C 17.66 337.76 15.41 360.86 15.82 361.27
C 16.02 361.47 25.88 364.84 37.73 368.76
C 74.79 380.99 102.67 393.91 116.98 405.50
L 124.56 411.64
L 124.92 393.61
C 125.25 376.36 125.15 375.42 122.34 372.41
M 122.70 332.91
C 118.28 328.22 100.74 318.37 83.90 311.11
C 68.11 304.30 24.45 288.01 23.85 288.71
C 22.96 289.76 19.72 322.66 20.43 323.33
C 20.91 323.76 26.20 325.66 32.18 327.57
C 65.66 338.15 105.65 355.71 118.10 365.32
L 124.56 370.29
L 124.92 352.97
C 125.24 337.15 125.06 335.42 122.70 332.91
M 121.52 290.81
C 112.80 282.98 90.95 272.29 63.25 262.33
C 40.32 254.09 28.37 250.85 27.78 252.76
C 26.41 257.12 24.34 284.87 25.32 285.72
C 25.96 286.26 32.85 288.90 40.66 291.58
C 73.35 302.78 105.25 317.07 118.10 326.29
L 124.56 330.91
L 124.93 312.55
L 125.31 294.21
L 121.52 290.81
M 120.71 248.97
C 112.42 241.74 81.64 227.87 45.46 215.06
C 38.86 212.72 33.25 211.03 32.98 211.31
C 32.60 211.69 28.40 245.03 28.40 247.66
C 28.40 247.97 36.09 250.66 45.50 253.64
C 77.14 263.65 103.83 275.16 118.10 284.94
L 124.56 289.35
L 124.94 271.18
L 125.33 253.00
L 120.71 248.97
M 123.41 212.25
C 118.53 205.31 95.23 191.70 72.93 182.79
C 63.00 178.82 37.44 169.88 37.42 170.37
C 37.42 170.50 36.54 177.53 35.48 186.00
C 32.48 210.06 31.33 207.45 47.44 213.06
C 78.17 223.76 109.11 237.40 120.04 245.03
L 124.56 248.19
L 124.92 231.55
C 125.20 218.67 124.85 214.33 123.41 212.25
M 118.87 167.19
C 110.77 159.71 87.84 147.94 64.54 139.33
C 54.96 135.79 45.89 132.53 44.39 132.08
C 41.77 131.30 41.59 131.95 39.87 147.72
C 38.88 156.76 38.08 164.96 38.08 165.93
C 38.08 167.02 44.58 169.93 55.50 173.72
C 86.51 184.47 112.95 197.69 121.33 206.64
L 124.56 210.09
L 124.94 191.63
L 125.33 173.18
L 118.87 167.19
M 123.87 135.13
C 121.70 131.07 108.58 122.01 94.61 114.91
C 78.81 106.88 49.29 94.91 47.23 95.70
C 45.34 96.42 41.78 127.24 43.42 128.68
C 44.03 129.21 50.92 131.82 58.73 134.47
C 85.36 143.51 114.92 158.30 122.03 166.16
C 124.56 168.95 124.56 168.94 124.92 153.35
C 125.14 143.83 124.74 136.73 123.87 135.13
M 122.34 96.84
C 115.37 89.24 92.20 76.73 64.45 65.58
C 54.90 61.73 51.02 60.70 50.34 61.82
C 49.81 62.65 48.98 67.78 48.51 73.20
C 48.03 78.62 47.31 85.22 46.89 87.88
C 46.38 91.20 46.62 92.70 47.69 92.70
C 50.67 92.70 79.42 104.48 93.55 111.50
C 101.39 115.38 111.56 121.33 116.17 124.70
L 124.56 130.85
L 124.92 115.44
C 125.27 100.94 125.11 99.85 122.34 96.84
M 120.69 60.68
C 114.90 54.45 97.68 44.96 73.70 34.78
C 60.70 29.25 54.83 27.33 54.17 28.38
C 53.67 29.20 52.87 34.30 52.40 39.72
C 51.93 45.14 51.24 51.31 50.87 53.43
C 50.21 57.24 50.35 57.36 61.57 61.62
C 78.81 68.20 113.57 85.61 119.39 90.61
L 124.56 95.02
L 124.92 80.33
L 125.28 65.64
L 120.69 60.68
M 118.30 49.25
C 106.69 30.19 88.42 15.70 68.59 9.82
C 58.66 6.89 56.81 8.16 54.84 19.31
L 54.06 23.82
L 69.30 30.13
C 88.57 38.11 110.11 48.84 116.81 53.78
C 119.65 55.88 122.18 57.41 122.44 57.19
C 122.69 56.99 120.83 53.41 118.30 49.25"/>
<path fill="#000000" stroke="none" d="
M 262.02 597.42
C 260.60 596.01 259.44 594.41 259.44 593.88
C 259.44 593.36 260.28 585.03 261.30 575.38
C 265.84 532.44 265.09 504.53 259.07 491.48
C 248.96 469.62 219.00 451.35 170.07 437.21
C 161.54 434.74 160.05 432.77 160.05 423.93
C 160.05 418.48 206.55 20.63 208.51 9.26
C 210.15 -0.21 215.99 -1.85 232.14 2.61
C 256.20 9.26 277.18 26.58 288.22 48.90
L 292.35 57.24
L 292.69 326.03
C 293.01 593.65 293.01 594.84 290.43 597.41
C 288.22 599.61 286.13 600.00 276.22 600.00
C 266.32 600.00 264.22 599.61 262.02 597.42
M 282.67 590.99
C 285.19 588.48 285.26 586.70 285.26 523.62
L 285.26 458.83
L 281.71 454.09
C 268.66 436.73 227.71 416.24 179.87 403.18
L 170.65 400.66
L 169.82 407.95
C 169.38 411.95 168.70 417.36 168.31 419.96
C 167.38 426.13 170.55 429.39 178.61 430.60
C 200.75 433.91 241.76 455.52 256.27 471.54
C 268.51 485.06 272.26 498.37 272.28 528.54
C 272.28 543.40 270.71 569.65 269.06 582.19
C 268.40 587.21 268.71 588.64 270.95 590.88
C 274.35 594.27 279.34 594.31 282.67 590.99
M 282.92 414.63
C 276.92 406.52 257.54 394.74 233.63 384.62
C 221.45 379.47 186.56 367.31 178.01 365.24
L 174.66 364.43
L 173.17 378.24
C 170.91 399.01 170.87 398.70 176.33 399.72
C 185.07 401.37 217.47 412.31 232.13 418.58
C 251.86 427.04 266.00 435.53 276.16 445.06
L 284.61 452.97
L 284.97 435.42
C 285.29 419.96 285.05 417.50 282.92 414.63
M 282.39 372.41
C 272.66 361.97 240.66 346.69 198.47 332.34
L 179.61 325.93
L 178.85 330.67
C 177.71 337.76 175.46 360.86 175.88 361.27
C 176.07 361.47 185.93 364.84 197.78 368.76
C 234.84 380.99 262.72 393.91 277.03 405.50
L 284.61 411.64
L 284.97 393.61
C 285.31 376.36 285.20 375.42 282.39 372.41
M 282.75 332.91
C 278.34 328.22 260.80 318.37 243.95 311.11
C 228.17 304.30 184.50 288.01 183.91 288.71
C 183.02 289.76 179.78 322.66 180.49 323.33
C 180.96 323.76 186.26 325.66 192.23 327.57
C 225.71 338.15 265.70 355.71 278.16 365.32
L 284.61 370.29
L 284.97 352.97
C 285.29 337.15 285.11 335.42 282.75 332.91
M 281.58 290.81
C 272.85 282.98 251.00 272.29 223.30 262.33
C 200.38 254.09 188.42 250.85 187.83 252.76
C 186.46 257.12 184.40 284.87 185.38 285.72
C 186.01 286.26 192.90 288.90 200.71 291.58
C 233.41 302.78 265.30 317.07 278.16 326.29
L 284.61 330.91
L 284.98 312.55
L 285.36 294.21
L 281.58 290.81
M 280.76 248.97
C 272.48 241.74 241.69 227.87 205.51 215.06
C 198.92 212.72 193.30 211.03 193.03 211.31
C 192.66 211.69 188.45 245.03 188.45 247.66
C 188.45 247.97 196.14 250.66 205.55 253.64
C 237.19 263.65 263.88 275.16 278.16 284.94
L 284.61 289.35
L 285.00 271.18
L 285.38 253.00
L 280.76 248.97
M 283.46 212.25
C 278.58 205.31 255.28 191.70 232.98 182.79
C 223.05 178.82 197.50 169.88 197.47 170.37
C 197.47 170.50 196.59 177.53 195.54 186.00
C 192.53 210.06 191.38 207.45 207.49 213.06
C 238.22 223.76 269.16 237.40 280.09 245.03
L 284.61 248.19
L 284.97 231.55
C 285.26 218.67 284.91 214.33 283.46 212.25
M 278.92 167.19
C 270.82 159.71 247.89 147.94 224.59 139.33
C 215.00 135.79 205.94 132.53 204.44 132.08
C 201.82 131.30 201.64 131.95 199.92 147.72
C 198.93 156.76 198.13 164.96 198.13 165.93
C 198.13 167.02 204.64 169.93 215.56 173.72
C 246.56 184.47 273.01 197.69 281.38 206.64
L 284.61 210.09
L 285.00 191.63
L 285.38 173.18
L 278.92 167.19
M 283.93 135.13
C 281.76 131.07 268.63 122.01 254.66 114.91
C 238.87 106.88 209.35 94.91 207.28 95.70
C 205.40 96.42 201.83 127.24 203.47 128.68
C 204.08 129.21 210.97 131.82 218.78 134.47
C 245.41 143.51 274.97 158.30 282.08 166.16
C 284.61 168.95 284.61 168.94 284.97 153.35
C 285.19 143.83 284.79 136.73 283.93 135.13
M 282.39 96.84
C 275.42 89.24 252.25 76.73 224.50 65.58
C 214.95 61.73 211.08 60.70 210.39 61.82
C 209.86 62.65 209.04 67.78 208.56 73.20
C 208.08 78.62 207.36 85.22 206.95 87.88
C 206.43 91.20 206.67 92.70 207.75 92.70
C 210.73 92.70 239.47 104.48 253.61 111.50
C 261.44 115.38 271.61 121.33 276.22 124.70
L 284.61 130.85
L 284.97 115.44
C 285.32 100.94 285.17 99.85 282.39 96.84
M 280.74 60.68
C 274.96 54.45 257.74 44.96 233.75 34.78
C 220.76 29.25 214.88 27.33 214.23 28.38
C 213.72 29.20 212.92 34.30 212.46 39.72
C 211.98 45.14 211.30 51.31 210.92 53.43
C 210.26 57.24 210.40 57.36 221.62 61.62
C 238.87 68.20 273.63 85.61 279.45 90.61
L 284.61 95.02
L 284.97 80.33
L 285.33 65.64
L 280.74 60.68
M 278.35 49.25
C 266.75 30.19 248.47 15.70 228.64 9.82
C 218.72 6.89 216.86 8.16 214.90 19.31
L 214.11 23.82
L 229.35 30.13
C 248.62 38.11 270.17 48.84 276.87 53.78
C 279.71 55.88 282.24 57.41 282.49 57.19
C 282.74 56.99 280.88 53.41 278.35 49.25"/>
<path fill="#21af28" stroke="none" d="
M 110.90 590.88
C 108.66 588.64 108.35 587.21 109.00 582.19
C 110.66 569.65 112.23 543.40 112.23 528.54
C 112.20 498.37 108.46 485.06 96.21 471.54
C 81.70 455.52 40.70 433.91 18.56 430.60
C 10.49 429.39 7.33 426.13 8.26 419.96
C 8.65 417.36 9.33 411.95 9.77 407.95
L 10.60 400.66
L 19.81 403.18
C 67.66 416.24 108.60 436.73 121.65 454.09
L 125.20 458.83
L 125.20 523.62
C 125.20 586.70 125.14 588.48 122.62 590.99
C 119.29 594.31 114.30 594.27 110.90 590.88"/>
<path fill="#21af28" stroke="none" d="
M 270.95 590.88
C 268.71 588.64 268.40 587.21 269.06 582.19
C 270.71 569.65 272.28 543.40 272.28 528.54
C 272.26 498.37 268.51 485.06 256.27 471.54
C 241.76 455.52 200.75 433.91 178.61 430.60
C 170.55 429.39 167.38 426.13 168.31 419.96
C 168.70 417.36 169.38 411.95 169.82 407.95
L 170.65 400.66
L 179.87 403.18
C 227.71 416.24 268.66 436.73 281.71 454.09
L 285.26 458.83
L 285.26 523.62
C 285.26 586.70 285.19 588.48 282.67 590.99
C 279.34 594.31 274.35 594.27 270.95 590.88"/>
<path fill="#21af28" stroke="none" d="
M 116.10 445.06
C 105.94 435.53 91.81 427.04 72.08 418.58
C 57.41 412.31 25.01 401.37 16.28 399.72
C 10.82 398.70 10.86 399.01 13.11 378.24
L 14.61 364.43
L 17.95 365.24
C 26.51 367.31 61.40 379.47 73.57 384.62
C 97.49 394.74 116.86 406.52 122.87 414.63
C 125.00 417.50 125.24 419.96 124.92 435.42
L 124.56 452.97
L 116.10 445.06"/>
<path fill="#21af28" stroke="none" d="
M 276.16 445.06
C 266.00 435.53 251.86 427.04 232.13 418.58
C 217.47 412.31 185.07 401.37 176.33 399.72
C 170.87 398.70 170.91 399.01 173.17 378.24
L 174.66 364.43
L 178.01 365.24
C 186.56 367.31 221.45 379.47 233.63 384.62
C 257.54 394.74 276.92 406.52 282.92 414.63
C 285.05 417.50 285.29 419.96 284.97 435.42
L 284.61 452.97
L 276.16 445.06"/>
<path fill="#21af28" stroke="none" d="
M 116.98 405.50
C 102.67 393.91 74.79 380.99 37.73 368.76
C 25.88 364.84 16.02 361.47 15.82 361.27
C 15.41 360.86 17.66 337.76 18.79 330.67
L 19.55 325.93
L 38.41 332.34
C 80.61 346.69 112.60 361.97 122.34 372.41
C 125.15 375.42 125.25 376.36 124.92 393.61
L 124.56 411.64
L 116.98 405.50"/>
<path fill="#21af28" stroke="none" d="
M 277.03 405.50
C 262.72 393.91 234.84 380.99 197.78 368.76
C 185.93 364.84 176.07 361.47 175.88 361.27
C 175.46 360.86 177.71 337.76 178.85 330.67
L 179.61 325.93
L 198.47 332.34
C 240.66 346.69 272.66 361.97 282.39 372.41
C 285.20 375.42 285.31 376.36 284.97 393.61
L 284.61 411.64
L 277.03 405.50"/>
<path fill="#21af28" stroke="none" d="
M 118.10 365.32
C 105.65 355.71 65.66 338.15 32.18 327.57
C 26.20 325.66 20.91 323.76 20.43 323.33
C 19.72 322.66 22.96 289.76 23.85 288.71
C 24.45 288.01 68.11 304.30 83.90 311.11
C 100.74 318.37 118.28 328.22 122.70 332.91
C 125.06 335.42 125.24 337.15 124.92 352.97
L 124.56 370.29
L 118.10 365.32"/>
<path fill="#21af28" stroke="none" d="
M 278.16 365.32
C 265.70 355.71 225.71 338.15 192.23 327.57
C 186.26 325.66 180.96 323.76 180.49 323.33
C 179.78 322.66 183.02 289.76 183.91 288.71
C 184.50 288.01 228.17 304.30 243.95 311.11
C 260.80 318.37 278.34 328.22 282.75 332.91
C 285.11 335.42 285.29 337.15 284.97 352.97
L 284.61 370.29
L 278.16 365.32"/>
<path fill="#21af28" stroke="none" d="
M 118.10 326.29
C 105.25 317.07 73.35 302.78 40.66 291.58
C 32.85 288.90 25.96 286.26 25.32 285.72
C 24.34 284.87 26.41 257.12 27.78 252.76
C 28.37 250.85 40.32 254.09 63.25 262.33
C 90.95 272.29 112.80 282.98 121.52 290.81
L 125.31 294.21
L 124.93 312.55
L 124.56 330.91
L 118.10 326.29"/>
<path fill="#21af28" stroke="none" d="
M 278.16 326.29
C 265.30 317.07 233.41 302.78 200.71 291.58
C 192.90 288.90 186.01 286.26 185.38 285.72
C 184.40 284.87 186.46 257.12 187.83 252.76
C 188.42 250.85 200.38 254.09 223.30 262.33
C 251.00 272.29 272.85 282.98 281.58 290.81
L 285.36 294.21
L 284.98 312.55
L 284.61 330.91
L 278.16 326.29"/>
<path fill="#21af28" stroke="none" d="
M 118.10 284.94
C 103.83 275.16 77.14 263.65 45.50 253.64
C 36.09 250.66 28.40 247.97 28.40 247.66
C 28.40 245.03 32.60 211.69 32.98 211.31
C 33.25 211.03 38.86 212.72 45.46 215.06
C 81.64 227.87 112.42 241.74 120.71 248.97
L 125.33 253.00
L 124.94 271.18
L 124.56 289.35
L 118.10 284.94"/>
<path fill="#21af28" stroke="none" d="
M 278.16 284.94
C 263.88 275.16 237.19 263.65 205.55 253.64
C 196.14 250.66 188.45 247.97 188.45 247.66
C 188.45 245.03 192.66 211.69 193.03 211.31
C 193.30 211.03 198.92 212.72 205.51 215.06
C 241.69 227.87 272.48 241.74 280.76 248.97
L 285.38 253.00
L 285.00 271.18
L 284.61 289.35
L 278.16 284.94"/>
<path fill="#21af28" stroke="none" d="
M 120.04 245.03
C 109.11 237.40 78.17 223.76 47.44 213.06
C 31.33 207.45 32.48 210.06 35.48 186.00
C 36.54 177.53 37.42 170.50 37.42 170.37
C 37.44 169.88 63.00 178.82 72.93 182.79
C 95.23 191.70 118.53 205.31 123.41 212.25
C 124.85 214.33 125.20 218.67 124.92 231.55
L 124.56 248.19
L 120.04 245.03"/>
<path fill="#21af28" stroke="none" d="
M 280.09 245.03
C 269.16 237.40 238.22 223.76 207.49 213.06
C 191.38 207.45 192.53 210.06 195.54 186.00
C 196.59 177.53 197.47 170.50 197.47 170.37
C 197.50 169.88 223.05 178.82 232.98 182.79
C 255.28 191.70 278.58 205.31 283.46 212.25
C 284.91 214.33 285.26 218.67 284.97 231.55
L 284.61 248.19
L 280.09 245.03"/>
<path fill="#21af28" stroke="none" d="
M 121.33 206.64
C 112.95 197.69 86.51 184.47 55.50 173.72
C 44.58 169.93 38.08 167.02 38.08 165.93
C 38.08 164.96 38.88 156.76 39.87 147.72
C 41.59 131.95 41.77 131.30 44.39 132.08
C 45.89 132.53 54.96 135.79 64.54 139.33
C 87.84 147.94 110.77 159.71 118.87 167.19
L 125.33 173.18
L 124.94 191.63
L 124.56 210.09
L 121.33 206.64"/>
<path fill="#21af28" stroke="none" d="
M 281.38 206.64
C 273.01 197.69 246.56 184.47 215.56 173.72
C 204.64 169.93 198.13 167.02 198.13 165.93
C 198.13 164.96 198.93 156.76 199.92 147.72
C 201.64 131.95 201.82 131.30 204.44 132.08
C 205.94 132.53 215.00 135.79 224.59 139.33
C 247.89 147.94 270.82 159.71 278.92 167.19
L 285.38 173.18
L 285.00 191.63
L 284.61 210.09
L 281.38 206.64"/>
<path fill="#21af28" stroke="none" d="
M 122.03 166.16
C 114.92 158.30 85.36 143.51 58.73 134.47
C 50.92 131.82 44.03 129.21 43.42 128.68
C 41.78 127.24 45.34 96.42 47.23 95.70
C 49.29 94.91 78.81 106.88 94.61 114.91
C 108.58 122.01 121.70 131.07 123.87 135.13
C 124.74 136.73 125.14 143.83 124.92 153.35
C 124.56 168.94 124.56 168.95 122.03 166.16"/>
<path fill="#21af28" stroke="none" d="
M 282.08 166.16
C 274.97 158.30 245.41 143.51 218.78 134.47
C 210.97 131.82 204.08 129.21 203.47 128.68
C 201.83 127.24 205.40 96.42 207.28 95.70
C 209.35 94.91 238.87 106.88 254.66 114.91
C 268.63 122.01 281.76 131.07 283.93 135.13
C 284.79 136.73 285.19 143.83 284.97 153.35
C 284.61 168.94 284.61 168.95 282.08 166.16"/>
<path fill="#21af28" stroke="none" d="
M 116.17 124.70
C 111.56 121.33 101.39 115.38 93.55 111.50
C 79.42 104.48 50.67 92.70 47.69 92.70
C 46.62 92.70 46.38 91.20 46.89 87.88
C 47.31 85.22 48.03 78.62 48.51 73.20
C 48.98 67.78 49.81 62.65 50.34 61.82
C 52.06 59.05 95.62 78.04 111.65 88.55
C 125.27 97.48 125.34 97.62 124.92 115.44
L 124.56 130.85
L 116.17 124.70"/>
<path fill="#21af28" stroke="none" d="
M 276.22 124.70
C 271.61 121.33 261.44 115.38 253.61 111.50
C 239.47 104.48 210.73 92.70 207.75 92.70
C 206.67 92.70 206.43 91.20 206.95 87.88
C 207.36 85.22 208.08 78.62 208.56 73.20
C 209.04 67.78 209.86 62.65 210.39 61.82
C 212.11 59.05 255.67 78.04 271.70 88.55
C 285.32 97.48 285.40 97.62 284.97 115.44
L 284.61 130.85
L 276.22 124.70"/>
<path fill="#21af28" stroke="none" d="
M 119.39 90.61
C 113.57 85.61 78.81 68.20 61.57 61.62
C 50.35 57.36 50.21 57.24 50.87 53.43
C 51.24 51.31 51.93 45.14 52.40 39.72
C 52.87 34.30 53.67 29.20 54.17 28.38
C 54.83 27.33 60.70 29.25 73.70 34.78
C 97.68 44.96 114.90 54.45 120.69 60.68
L 125.28 65.64
L 124.92 80.33
L 124.56 95.02
L 119.39 90.61"/>
<path fill="#21af28" stroke="none" d="
M 279.45 90.61
C 273.63 85.61 238.87 68.20 221.62 61.62
C 210.40 57.36 210.26 57.24 210.92 53.43
C 211.30 51.31 211.98 45.14 212.46 39.72
C 212.92 34.30 213.72 29.20 214.23 28.38
C 214.88 27.33 220.76 29.25 233.75 34.78
C 257.74 44.96 274.96 54.45 280.74 60.68
L 285.33 65.64
L 284.97 80.33
L 284.61 95.02
L 279.45 90.61"/>
<path fill="#21af28" stroke="none" d="
M 116.81 53.78
C 110.11 48.84 88.57 38.11 69.30 30.13
L 54.06 23.82
L 54.84 19.31
C 55.28 16.83 55.95 13.75 56.33 12.48
C 59.41 2.01 91.15 16.13 108.35 35.63
C 113.66 41.64 123.32 56.45 122.44 57.19
C 122.18 57.41 119.65 55.88 116.81 53.78"/>
<path fill="#21af28" stroke="none" d="
M 276.87 53.78
C 270.17 48.84 248.62 38.11 229.35 30.13
L 214.11 23.82
L 214.90 19.31
C 216.86 8.16 218.72 6.89 228.64 9.82
C 248.47 15.70 266.75 30.19 278.35 49.25
C 280.88 53.41 282.74 56.99 282.49 57.19
C 282.24 57.41 279.71 55.88 276.87 53.78"/>
</g>
</svg>
