<?xml version="1.0" encoding="UTF-8" standalone="no"?>
<!DOCTYPE svg PUBLIC "-//W3C//DTD SVG 1.1//EN"
"http://www.w3.org/Graphics/SVG/1.1/DTD/svg11.dtd">
<svg width="643px" height="600px"
xmlns="http://www.w3.org/2000/svg" version="1.1">
<g transform="translate(0000, 0000) scale(1.0000, 1.0000)">
<path fill="#000000" stroke="none" d="
M 30.51 598.11
C 19.70 595.37 12.14 591.39 7.08 585.80
C 1.49 579.61 1.10 574.48 5.88 569.71
C 9.15 566.44 9.36 566.42 20.93 567.45
C 41.23 569.28 66.21 568.76 77.08 566.29
C 87.34 563.95 93.86 560.19 92.74 557.26
C 92.36 556.31 86.36 551.10 79.38 545.67
C 65.76 535.06 41.47 510.73 29.56 495.76
C 14.83 477.24 0.00 447.47 0.00 436.40
C 0.00 431.55 0.67 429.19 2.56 427.29
C 8.16 421.70 15.95 425.81 22.36 437.74
C 35.75 462.61 60.15 492.82 86.06 516.55
C 106.38 535.15 114.52 541.02 125.01 544.59
C 135.56 548.17 161.31 541.61 204.94 524.20
C 228.61 514.75 247.06 506.02 252.27 501.80
L 255.41 499.27
L 251.63 497.35
C 249.55 496.29 239.49 492.40 229.28 488.70
C 199.27 477.83 185.18 469.61 174.20 456.59
C 162.72 442.96 160.06 433.62 165.98 427.71
C 170.92 422.78 177.72 424.06 195.17 433.22
C 220.12 446.30 226.72 449.48 227.47 448.71
C 227.88 448.30 221.98 443.78 214.35 438.68
C 194.73 425.53 188.74 419.62 186.20 410.92
C 183.77 402.58 184.10 399.44 190.24 372.28
C 205.85 303.16 249.75 100.41 255.68 69.98
C 262.34 35.83 268.37 21.54 280.55 11.13
C 296.82 -2.78 323.13 -2.78 339.39 11.13
C 351.57 21.54 357.61 35.83 364.27 69.98
C 370.26 100.73 414.56 305.28 429.84 372.82
C 435.40 397.39 436.29 405.02 434.32 411.01
C 431.85 418.48 423.71 426.33 405.74 438.58
C 386.45 451.71 371.75 463.88 364.35 472.81
C 358.63 479.69 354.83 485.10 354.82 486.33
C 354.79 488.44 397.08 494.38 426.25 496.38
C 447.01 497.80 477.02 496.89 511.07 493.82
C 518.46 493.15 534.89 491.72 547.57 490.64
C 560.26 489.56 580.38 487.46 592.29 485.97
C 610.18 483.74 615.40 483.51 622.34 484.66
C 637.02 487.09 642.36 493.65 642.36 509.22
C 642.36 530.56 635.89 532.58 560.38 534.81
C 537.84 535.48 512.48 536.58 504.02 537.28
C 495.57 537.97 475.78 538.54 460.04 538.57
C 436.51 538.59 429.17 539.05 418.80 541.16
C 405.13 543.94 382.38 551.50 358.00 561.36
C 340.62 568.39 342.11 566.05 343.98 583.52
C 344.79 591.13 344.61 592.27 342.16 594.72
C 339.53 597.34 338.31 597.44 309.97 597.44
C 271.15 597.44 272.20 598.45 278.60 567.38
C 280.54 557.99 281.77 547.69 281.78 540.86
L 281.79 529.68
L 261.62 539.78
C 203.56 568.86 152.14 586.66 99.99 595.73
C 76.56 599.80 41.86 600.99 30.51 598.11
M 94.67 589.82
C 145.20 581.31 191.76 565.28 254.89 534.67
C 273.56 525.61 292.49 517.27 296.96 516.14
C 304.08 514.34 309.75 514.22 343.13 515.27
C 382.82 516.51 388.20 517.34 389.17 522.38
C 389.41 523.66 388.63 525.80 387.43 527.13
C 384.94 529.86 382.20 530.80 365.05 534.78
C 350.60 538.14 332.41 546.36 323.20 553.69
C 315.85 559.55 313.83 563.46 316.68 566.32
C 318.82 568.45 325.10 566.48 361.27 552.28
C 406.54 534.51 417.67 532.21 458.40 532.17
C 474.33 532.14 494.57 531.56 503.38 530.85
C 512.20 530.14 537.56 529.04 559.74 528.38
C 603.81 527.08 620.29 525.54 628.51 521.96
C 633.01 519.99 634.11 518.78 635.29 514.39
C 638.27 503.30 632.01 493.52 620.52 491.37
C 614.86 490.31 597.86 491.28 589.81 493.13
C 585.57 494.10 500.96 501.24 474.56 502.85
C 443.61 504.74 414.86 503.33 379.14 498.17
C 347.69 493.61 284.67 479.26 258.89 470.78
C 244.61 466.07 212.57 451.52 195.26 441.85
C 178.71 432.63 173.00 430.50 170.77 432.73
C 168.04 435.45 173.53 444.64 184.39 455.48
C 195.94 466.98 206.12 472.59 233.12 482.34
C 256.96 490.95 266.42 495.63 266.42 498.84
C 266.42 504.08 244.12 516.59 211.88 529.43
C 171.60 545.49 149.84 551.63 132.46 551.88
C 122.78 552.01 121.44 551.69 111.96 546.91
C 104.08 542.94 97.69 537.99 83.26 524.72
C 73.04 515.33 62.19 504.96 59.14 501.68
C 51.62 493.62 28.49 462.95 23.00 453.76
C 12.46 436.11 8.88 431.03 7.52 431.87
C 4.91 433.48 7.30 441.94 14.54 456.56
C 25.09 477.86 33.83 490.11 52.45 509.69
C 69.58 527.69 80.84 537.86 90.94 544.49
C 94.11 546.56 97.85 550.36 99.23 552.93
C 101.64 557.37 101.65 557.81 99.60 562.11
C 96.95 567.66 92.58 570.00 79.75 572.78
C 68.73 575.16 36.17 575.83 21.77 573.99
C 15.40 573.16 12.91 573.33 11.13 574.67
C 8.90 576.35 8.91 576.56 11.57 579.94
C 14.82 584.06 24.16 589.05 33.64 591.72
C 42.83 594.32 73.68 593.35 94.67 589.82
M 335.38 588.10
C 336.72 586.49 336.61 585.39 334.18 575.58
L 333.04 571.00
L 325.65 572.92
C 316.93 575.19 312.09 574.30 309.20 569.92
C 304.69 563.04 311.97 550.45 324.80 542.94
C 330.13 539.82 330.17 539.74 330.75 531.20
C 331.11 525.83 330.80 522.24 329.93 521.67
C 326.96 519.65 306.48 520.66 298.11 523.24
L 289.82 525.80
L 289.09 545.31
C 288.61 558.01 287.45 568.61 285.79 575.65
C 283.96 583.42 283.61 586.95 284.59 588.13
C 286.56 590.51 333.40 590.48 335.38 588.10
M 349.68 531.48
C 350.73 531.24 357.07 529.83 363.77 528.37
C 370.47 526.90 376.81 525.34 377.86 524.90
C 381.50 523.42 372.41 522.27 355.76 522.12
C 341.01 521.97 339.43 522.18 339.42 524.20
C 339.41 525.43 339.04 528.64 338.60 531.33
L 337.78 536.23
L 342.78 534.06
C 345.52 532.89 348.63 531.72 349.68 531.48
M 350.06 475.59
C 360.23 461.88 377.92 445.82 397.25 432.73
C 415.87 420.12 422.80 413.78 425.75 406.72
C 427.86 401.67 428.16 403.78 420.36 369.08
C 404.60 299.01 361.95 101.95 356.24 72.75
C 350.14 41.67 345.63 30.68 334.78 20.43
C 318.25 4.81 301.70 4.81 285.16 20.43
C 274.31 30.68 269.80 41.67 263.71 72.75
C 257.99 101.95 215.34 299.01 199.59 369.08
C 191.79 403.78 192.08 401.67 194.19 406.72
C 197.14 413.78 204.07 420.12 222.63 432.68
C 232.01 439.04 244.40 448.70 250.19 454.17
C 259.49 462.96 261.73 464.42 269.65 466.76
C 278.19 469.30 337.18 483.89 342.26 484.71
C 342.76 484.80 346.27 480.69 350.06 475.59"/>
<path fill="#14ac4d" stroke="none" d="
M 338.79 483.99
C 324.88 480.86 276.63 468.84 269.65 466.76
C 261.73 464.42 259.49 462.96 250.19 454.17
C 244.40 448.70 232.01 439.04 222.63 432.68
C 204.07 420.12 197.14 413.78 194.19 406.72
C 192.08 401.67 191.79 403.78 199.59 369.08
C 215.34 299.01 257.99 101.95 263.71 72.75
C 269.80 41.67 274.31 30.68 285.16 20.43
C 301.62 4.87 318.32 4.87 334.78 20.43
C 345.63 30.68 350.14 41.67 356.24 72.75
C 361.95 101.95 404.60 299.01 420.36 369.08
C 428.16 403.78 427.86 401.67 425.75 406.72
C 422.80 413.78 415.87 420.12 397.25 432.73
C 377.92 445.82 360.23 461.88 350.06 475.59
C 346.27 480.69 342.76 484.80 342.26 484.71
C 341.76 484.63 340.20 484.31 338.79 483.99"/>
<path fill="#c55436" stroke="none" d="
M 33.64 591.72
C 24.16 589.05 14.82 584.06 11.57 579.94
C 8.91 576.56 8.90 576.35 11.13 574.67
C 12.91 573.33 15.40 573.16 21.77 573.99
C 36.17 575.83 68.73 575.16 79.75 572.78
C 92.58 570.00 96.95 567.66 99.60 562.11
C 101.65 557.81 101.64 557.37 99.23 552.93
C 97.85 550.36 94.11 546.56 90.94 544.49
C 74.75 533.88 40.51 499.27 28.74 481.61
C 19.80 468.19 7.56 443.53 6.71 437.23
C 5.74 429.93 9.25 430.99 14.33 439.54
C 23.67 455.23 31.62 467.00 42.37 481.02
C 56.65 499.68 60.56 503.86 83.26 524.72
C 97.69 537.99 104.08 542.94 111.96 546.91
C 121.44 551.69 122.78 552.01 132.46 551.88
C 149.84 551.63 171.60 545.49 211.88 529.43
C 244.12 516.59 266.42 504.08 266.42 498.84
C 266.42 495.63 256.96 490.95 233.12 482.34
C 206.12 472.59 195.94 466.98 184.39 455.48
C 173.53 444.64 168.04 435.45 170.77 432.73
C 173.00 430.50 178.71 432.63 195.26 441.85
C 212.57 451.52 244.61 466.07 258.89 470.78
C 284.67 479.26 347.69 493.61 379.14 498.17
C 414.86 503.33 443.61 504.74 474.56 502.85
C 500.96 501.24 585.57 494.10 589.81 493.13
C 597.86 491.28 614.86 490.31 620.52 491.37
C 632.01 493.52 638.27 503.30 635.29 514.39
C 634.11 518.78 633.01 519.99 628.51 521.96
C 620.29 525.54 603.81 527.08 559.74 528.38
C 537.56 529.04 512.20 530.14 503.38 530.85
C 494.57 531.56 474.33 532.14 458.40 532.17
C 417.67 532.21 406.54 534.51 361.27 552.28
C 325.10 566.48 318.82 568.45 316.68 566.32
C 313.83 563.46 315.85 559.55 323.20 553.69
C 332.41 546.36 350.60 538.14 365.05 534.78
C 382.20 530.80 384.94 529.86 387.43 527.13
C 388.63 525.80 389.41 523.66 389.17 522.38
C 388.20 517.34 382.82 516.51 343.13 515.27
C 309.75 514.22 304.08 514.34 296.96 516.14
C 292.49 517.27 273.56 525.61 254.89 534.67
C 191.76 565.28 145.20 581.31 94.67 589.82
C 73.68 593.35 42.83 594.32 33.64 591.72"/>
<path fill="#c46640" stroke="none" d="
M 284.59 588.13
C 283.61 586.95 283.96 583.42 285.79 575.65
C 287.45 568.62 288.61 558.01 289.08 545.37
L 289.81 525.93
L 295.73 523.80
C 302.13 521.50 327.60 519.85 329.93 521.58
C 330.80 522.22 331.11 525.86 330.75 531.20
C 330.17 539.74 330.13 539.82 324.80 542.94
C 311.97 550.45 304.69 563.04 309.20 569.92
C 312.09 574.30 316.93 575.19 325.65 572.92
L 333.04 571.00
L 334.18 575.58
C 336.61 585.39 336.72 586.49 335.38 588.10
C 333.40 590.48 286.56 590.51 284.59 588.13"/>
</g>
</svg>
