<?xml version="1.0" encoding="UTF-8" standalone="no"?>
<!DOCTYPE svg PUBLIC "-//W3C//DTD SVG 1.1//EN"
"http://www.w3.org/Graphics/SVG/1.1/DTD/svg11.dtd">
<svg width="590px" height="600px"
xmlns="http://www.w3.org/2000/svg" version="1.1">
<g transform="translate(0000, 0000) scale(1.0000, 1.0000)">
<path fill="#000000" stroke="none" d="
M 2.58 597.42
C 0.31 595.16 0.00 593.14 0.00 580.69
C 0.00 560.72 -0.91 561.37 26.79 561.37
C 41.91 561.37 48.90 560.91 49.98 559.83
C 51.09 558.72 51.55 549.46 51.61 526.67
C 51.68 491.39 52.30 487.78 59.13 483.19
C 64.67 479.47 69.31 479.47 74.84 483.19
C 81.67 487.78 82.29 491.39 82.37 526.67
C 82.42 549.46 82.88 558.72 83.99 559.83
C 85.11 560.95 94.03 561.37 116.00 561.37
C 144.68 561.37 146.59 561.23 148.76 558.84
C 151.29 556.03 152.67 543.01 154.12 507.94
C 155.05 485.37 153.88 477.90 147.35 464.86
C 137.31 444.80 109.88 427.18 77.94 420.28
C 57.22 415.80 54.92 413.51 55.74 398.25
C 56.33 387.24 65.44 308.00 76.66 216.31
C 80.60 184.08 86.10 135.42 88.87 108.15
C 96.54 32.91 99.30 10.06 101.20 5.54
C 108.53 -11.74 159.87 14.59 173.56 42.66
C 182.89 61.76 182.17 40.12 182.59 312.77
C 182.87 489.00 183.38 558.44 184.39 559.66
C 186.33 561.99 230.59 562.15 232.91 559.83
C 234.03 558.71 234.48 549.31 234.53 526.03
C 234.57 504.58 235.11 492.28 236.14 489.31
C 237.92 484.15 244.81 478.97 249.91 478.97
C 255.01 478.97 261.91 484.15 263.68 489.31
C 264.71 492.28 265.26 504.58 265.29 526.03
C 265.35 549.31 265.80 558.71 266.92 559.83
C 268.04 560.95 276.95 561.37 298.93 561.37
C 327.60 561.37 329.51 561.23 331.69 558.84
C 334.21 556.03 335.59 543.01 337.05 507.94
C 337.97 485.37 336.80 477.90 330.27 464.86
C 320.24 444.80 292.81 427.18 260.86 420.28
C 240.15 415.80 237.84 413.51 238.67 398.25
C 239.25 387.32 246.50 324.24 259.57 216.31
C 264.16 178.42 269.38 132.36 271.17 113.95
C 274.43 80.33 281.83 13.49 282.90 8.01
C 283.88 2.96 288.01 0.00 294.03 0.01
C 302.36 0.01 308.66 2.14 321.99 9.44
C 343.80 21.36 356.87 37.33 362.90 59.39
C 364.98 67.03 365.16 84.71 365.52 312.77
C 365.80 489.00 366.30 558.44 367.32 559.66
C 369.25 561.99 413.52 562.15 415.83 559.83
C 416.95 558.71 417.41 549.31 417.46 526.03
C 417.53 490.06 418.14 486.50 424.98 481.91
C 430.52 478.18 435.16 478.18 440.70 481.91
C 447.54 486.50 448.14 490.06 448.22 526.03
C 448.27 549.31 448.72 558.71 449.84 559.83
C 450.96 560.95 459.88 561.37 481.85 561.37
C 510.53 561.37 512.44 561.23 514.61 558.84
C 517.14 556.03 518.52 543.01 519.97 507.94
C 520.90 485.37 519.73 477.90 513.20 464.86
C 503.16 444.80 475.74 427.18 443.79 420.28
C 423.07 415.80 420.77 413.51 421.59 398.25
C 422.17 387.32 429.42 324.24 442.50 216.31
C 447.09 178.42 452.30 132.36 454.09 113.95
C 457.35 80.33 464.76 13.49 465.83 8.01
C 466.81 2.96 470.93 0.00 476.96 0.01
C 485.28 0.01 491.58 2.14 504.91 9.44
C 526.72 21.36 539.80 37.33 545.83 59.39
C 547.90 67.03 548.08 84.71 548.44 312.77
C 548.73 489.00 549.23 558.44 550.25 559.66
C 551.29 560.92 556.04 561.37 568.26 561.37
C 590.17 561.37 590.00 561.22 590.00 580.69
C 590.00 593.14 589.69 595.16 587.42 597.42
C 584.86 599.99 583.13 600.00 295.00 600.00
C 6.87 600.00 5.14 599.99 2.58 597.42
M 580.72 590.73
C 582.76 588.70 582.76 572.68 580.72 570.64
C 578.47 568.39 11.53 568.39 9.28 570.64
C 7.24 572.68 7.24 588.70 9.28 590.73
C 11.53 592.98 578.47 592.98 580.72 590.73
M 74.69 530.79
C 74.33 511.85 73.53 495.32 72.93 494.06
C 72.33 492.80 70.75 491.19 69.41 490.48
C 66.55 488.95 62.70 490.60 61.05 494.06
C 60.44 495.32 59.64 511.85 59.28 530.79
L 58.61 565.24
L 66.99 565.24
L 75.36 565.24
L 74.69 530.79
M 175.18 318.35
C 174.46 45.66 175.16 67.38 166.59 49.15
C 159.88 34.85 138.97 17.65 119.04 10.03
L 111.73 7.24
L 109.46 10.03
C 108.02 11.81 106.87 16.25 106.33 22.18
C 105.85 27.33 104.36 40.52 103.01 51.50
C 101.65 62.48 98.79 89.20 96.67 110.90
C 92.87 149.48 91.08 165.04 79.32 262.02
C 76.15 288.22 72.06 323.56 70.25 340.56
C 68.44 357.55 66.03 378.00 64.91 386.00
C 63.79 393.99 63.20 401.86 63.61 403.49
C 64.55 407.21 70.54 409.91 85.54 413.33
C 117.50 420.63 144.33 438.05 154.43 458.05
C 161.50 472.08 162.70 480.18 161.77 507.94
C 160.79 537.42 159.20 559.92 157.87 562.98
C 156.98 565.02 157.82 565.24 166.36 565.24
L 175.84 565.24
L 175.18 318.35
M 257.62 530.15
C 257.26 510.85 256.46 494.03 255.85 492.77
C 253.26 487.35 246.56 487.35 243.97 492.77
C 243.37 494.03 242.57 510.85 242.21 530.15
L 241.54 565.24
L 249.91 565.24
L 258.29 565.24
L 257.62 530.15
M 358.11 318.35
C 357.39 45.66 358.08 67.38 349.52 49.15
C 342.81 34.85 321.90 17.65 301.97 10.03
L 294.65 7.24
L 292.38 10.03
C 290.94 11.81 289.80 16.25 289.25 22.18
C 288.78 27.33 287.28 40.52 285.93 51.50
C 284.58 62.48 281.72 89.20 279.59 110.90
C 275.79 149.48 274.00 165.04 262.24 262.02
C 259.07 288.22 254.99 323.56 253.17 340.56
C 251.37 357.55 248.96 378.00 247.84 386.00
C 246.72 393.99 246.13 401.86 246.54 403.49
C 247.48 407.21 253.47 409.91 268.46 413.33
C 300.42 420.63 327.26 438.05 337.36 458.05
C 344.43 472.08 345.63 480.18 344.70 507.94
C 343.72 537.42 342.12 559.92 340.80 562.98
C 339.91 565.02 340.74 565.24 349.29 565.24
L 358.77 565.24
L 358.11 318.35
M 440.54 530.15
C 440.18 510.85 439.38 494.03 438.78 492.77
C 436.19 487.35 429.49 487.35 426.90 492.77
C 426.29 494.03 425.50 510.85 425.13 530.15
L 424.47 565.24
L 432.84 565.24
L 441.21 565.24
L 440.54 530.15
M 541.04 318.35
C 540.31 45.66 541.01 67.38 532.44 49.15
C 525.73 34.85 504.82 17.65 484.89 10.03
L 477.58 7.24
L 475.31 10.03
C 473.87 11.81 472.72 16.25 472.18 22.18
C 471.70 27.33 470.21 40.52 468.86 51.50
C 467.50 62.48 464.64 89.20 462.52 110.90
C 458.72 149.48 456.93 165.04 445.17 262.02
C 442.00 288.22 437.91 323.56 436.10 340.56
C 434.29 357.55 431.89 378.00 430.76 386.00
C 429.64 393.99 429.05 401.86 429.46 403.49
C 430.40 407.21 436.39 409.91 451.39 413.33
C 483.35 420.63 510.18 438.05 520.28 458.05
C 527.35 472.08 528.55 480.18 527.62 507.94
C 526.65 537.42 525.05 559.92 523.72 562.98
C 522.83 565.02 523.67 565.24 532.21 565.24
L 541.69 565.24
L 541.04 318.35"/>
<path fill="#21be23" stroke="none" d="
M 59.28 530.79
C 59.64 511.85 60.44 495.32 61.05 494.06
C 62.70 490.60 66.55 488.95 69.41 490.48
C 70.75 491.19 72.33 492.80 72.93 494.06
C 73.53 495.32 74.33 511.85 74.69 530.79
L 75.36 565.24
L 66.99 565.24
L 58.61 565.24
L 59.28 530.79"/>
<path fill="#21be23" stroke="none" d="
M 157.87 562.98
C 159.20 559.92 160.79 537.42 161.77 507.94
C 162.70 480.18 161.50 472.08 154.43 458.05
C 144.33 438.05 117.50 420.63 85.54 413.33
C 70.54 409.91 64.55 407.21 63.61 403.49
C 63.20 401.86 63.79 393.99 64.91 386.00
C 66.03 378.00 68.44 357.55 70.25 340.56
C 72.06 323.56 76.15 288.22 79.32 262.02
C 91.08 165.04 92.87 149.48 96.67 110.90
C 98.79 89.20 101.65 62.48 103.01 51.50
C 104.36 40.52 105.85 27.28 106.34 22.07
C 106.97 15.24 107.91 11.88 109.70 10.09
C 112.58 7.22 114.05 7.49 125.76 13.00
C 150.72 24.75 165.29 40.70 172.27 63.95
C 174.38 70.96 174.58 88.06 175.18 318.35
L 175.84 565.24
L 166.36 565.24
C 157.82 565.24 156.98 565.02 157.87 562.98"/>
<path fill="#21be23" stroke="none" d="
M 242.21 530.15
C 242.57 510.85 243.37 494.03 243.97 492.77
C 246.56 487.35 253.26 487.35 255.85 492.77
C 256.46 494.03 257.26 510.85 257.62 530.15
L 258.29 565.24
L 249.91 565.24
L 241.54 565.24
L 242.21 530.15"/>
<path fill="#21be23" stroke="none" d="
M 340.80 562.98
C 342.12 559.92 343.72 537.42 344.70 507.94
C 345.63 480.18 344.43 472.08 337.36 458.05
C 327.26 438.05 300.42 420.63 268.46 413.33
C 253.47 409.91 247.48 407.21 246.54 403.49
C 246.13 401.86 246.72 393.99 247.84 386.00
C 248.96 378.00 251.37 357.55 253.17 340.56
C 254.99 323.56 259.07 288.22 262.24 262.02
C 274.00 165.04 275.79 149.48 279.59 110.90
C 281.72 89.20 284.58 62.48 285.93 51.50
C 287.28 40.52 288.78 27.33 289.25 22.18
C 289.80 16.25 290.94 11.81 292.38 10.03
L 294.65 7.24
L 301.97 10.03
C 321.90 17.65 342.81 34.85 349.52 49.15
C 358.08 67.38 357.39 45.66 358.11 318.35
L 358.77 565.24
L 349.29 565.24
C 340.74 565.24 339.91 565.02 340.80 562.98"/>
<path fill="#21be23" stroke="none" d="
M 425.13 530.15
C 425.50 510.85 426.29 494.03 426.90 492.77
C 429.49 487.35 436.19 487.35 438.78 492.77
C 439.38 494.03 440.18 510.85 440.54 530.15
L 441.21 565.24
L 432.84 565.24
L 424.47 565.24
L 425.13 530.15"/>
<path fill="#21be23" stroke="none" d="
M 523.72 562.98
C 525.05 559.92 526.65 537.42 527.62 507.94
C 528.55 480.18 527.35 472.08 520.28 458.05
C 510.18 438.05 483.35 420.63 451.39 413.33
C 436.39 409.91 430.40 407.21 429.46 403.49
C 429.05 401.86 429.64 393.99 430.76 386.00
C 431.89 378.00 434.29 357.55 436.10 340.56
C 437.91 323.56 442.00 288.22 445.17 262.02
C 456.93 165.04 458.72 149.48 462.52 110.90
C 464.64 89.20 467.50 62.48 468.86 51.50
C 470.21 40.52 471.70 27.33 472.18 22.18
C 472.72 16.25 473.87 11.81 475.31 10.03
L 477.58 7.24
L 484.89 10.03
C 504.82 17.65 525.73 34.85 532.44 49.15
C 541.01 67.38 540.31 45.66 541.04 318.35
L 541.69 565.24
L 532.21 565.24
C 523.67 565.24 522.83 565.02 523.72 562.98"/>
<path fill="#0071ff" stroke="none" d="
M 9.28 590.73
C 8.37 589.83 7.73 585.53 7.73 580.48
C 7.73 573.18 8.13 571.55 10.22 570.44
C 14.07 568.38 578.66 568.58 580.72 570.64
C 582.76 572.68 582.76 588.70 580.72 590.73
C 578.47 592.98 11.53 592.98 9.28 590.73"/>
</g>
</svg>
