<?xml version="1.0" encoding="UTF-8" standalone="no"?>
<!DOCTYPE svg PUBLIC "-//W3C//DTD SVG 1.1//EN"
"http://www.w3.org/Graphics/SVG/1.1/DTD/svg11.dtd">
<svg width="333px" height="600px"
xmlns="http://www.w3.org/2000/svg" version="1.1">
<g transform="translate(0000, 0000) scale(1.0000, 1.0000)">
<path fill="#000000" stroke="none" d="
M 151.61 596.26
L 147.86 592.50
L 147.86 527.65
L 147.86 462.81
L 144.87 456.73
C 139.55 445.86 132.89 436.71 124.51 428.69
C 114.99 419.62 107.91 415.72 92.24 410.96
L 81.00 407.54
L 69.75 410.96
C 63.57 412.83 56.76 415.24 54.64 416.31
C 46.72 420.29 37.36 428.58 29.46 438.60
C 24.98 444.28 19.74 449.74 17.79 450.74
C 9.05 455.26 0.00 450.63 0.00 441.65
C 0.00 435.35 3.65 427.86 12.57 415.88
C 27.08 396.42 39.24 387.97 62.18 381.45
C 75.59 377.63 77.54 377.55 90.82 380.28
C 111.93 384.62 122.62 390.94 141.11 410.00
L 154.29 423.59
L 154.29 238.13
C 154.29 55.59 154.25 52.55 151.71 46.14
C 148.28 37.46 144.55 32.65 137.79 28.19
C 124.29 19.27 108.46 20.76 97.59 31.96
C 91.12 38.63 85.83 50.50 80.42 70.59
C 75.54 88.68 71.52 93.76 63.66 91.78
C 59.62 90.77 55.35 82.51 55.32 75.64
C 55.30 69.05 62.50 42.76 66.56 34.67
C 72.03 23.77 83.55 12.32 94.33 7.06
C 112.56 -1.81 131.31 -1.82 147.23 7.03
C 155.78 11.78 168.61 24.35 174.73 33.99
L 178.71 40.24
L 178.71 231.92
L 178.71 423.59
L 191.89 410.00
C 210.64 390.67 220.05 385.12 241.53 380.69
C 256.76 377.55 257.14 377.55 270.82 381.45
C 293.76 387.97 305.92 396.42 320.43 415.88
C 329.35 427.86 333.00 435.35 333.00 441.65
C 333.00 450.63 323.95 455.26 315.21 450.74
C 313.26 449.74 308.02 444.28 303.54 438.60
C 295.64 428.58 286.28 420.29 278.36 416.31
C 276.24 415.24 269.43 412.83 263.25 410.96
L 252.00 407.54
L 240.76 410.96
C 225.09 415.72 218.01 419.62 208.49 428.69
C 200.11 436.71 193.45 445.86 188.13 456.73
L 185.14 462.81
L 185.14 527.65
L 185.14 592.50
L 181.39 596.26
C 177.81 599.82 177.08 600.00 166.50 600.00
C 155.92 600.00 155.19 599.82 151.61 596.26
M 172.20 590.44
C 174.19 589.40 176.19 587.63 176.63 586.49
C 177.07 585.33 177.43 556.33 177.44 522.01
L 177.45 459.62
L 180.45 453.21
C 185.90 441.59 192.39 432.83 203.34 422.37
C 215.06 411.14 221.08 408.01 241.37 402.58
C 251.65 399.81 252.22 399.79 261.42 401.83
C 281.06 406.19 296.16 415.96 309.21 432.74
C 313.46 438.19 318.19 443.49 319.73 444.50
C 322.29 446.19 322.70 446.08 324.63 443.14
C 326.58 440.17 326.58 439.64 324.54 435.68
C 319.67 426.23 309.70 413.03 301.73 405.42
C 291.77 395.91 281.56 390.82 266.49 387.83
C 256.35 385.82 255.39 385.85 243.62 388.33
C 226.57 391.95 215.55 397.97 202.51 410.87
C 196.79 416.53 188.63 425.77 184.37 431.41
C 179.36 438.08 175.77 441.67 174.15 441.67
C 171.68 441.67 171.63 438.73 171.00 242.95
L 170.36 44.23
L 166.95 37.82
C 162.96 30.31 149.39 16.87 141.97 13.09
C 139.11 11.64 133.16 9.51 128.74 8.37
C 121.04 6.38 120.28 6.41 110.82 9.00
C 98.49 12.36 92.21 15.97 84.60 24.08
C 75.70 33.56 69.06 47.81 64.89 66.29
C 63.14 74.10 63.08 76.09 64.52 78.97
C 67.04 84.06 68.45 83.41 70.44 76.28
C 79.24 44.86 85.18 31.51 94.01 23.46
C 103.29 14.99 120.70 12.35 134.99 17.23
C 143.40 20.10 154.81 30.77 159.18 39.83
L 162.01 45.69
L 161.68 243.68
C 161.36 438.85 161.32 441.67 158.85 441.67
C 157.23 441.67 153.64 438.08 148.63 431.41
C 144.37 425.77 136.12 416.44 130.27 410.65
C 117.49 398.03 104.30 390.88 87.71 387.62
C 77.70 385.64 76.40 385.65 66.14 387.79
C 51.04 390.96 41.21 395.94 31.24 405.45
C 23.28 413.03 13.33 426.24 8.46 435.68
C 6.42 439.64 6.42 440.17 8.37 443.14
C 10.30 446.08 10.71 446.19 13.27 444.50
C 14.81 443.49 19.54 438.19 23.79 432.74
C 36.73 416.09 47.12 409.17 68.26 403.10
C 79.47 399.88 80.91 399.74 87.99 401.19
C 92.19 402.06 100.85 404.85 107.25 407.40
C 117.42 411.46 120.21 413.32 129.66 422.37
C 140.61 432.83 147.10 441.59 152.55 453.21
L 155.55 459.62
L 155.56 522.51
C 155.57 588.67 155.48 587.63 161.36 590.83
C 164.89 592.76 167.90 592.64 172.20 590.44"/>
<path fill="#21be23" stroke="none" d="
M 161.36 590.83
C 155.48 587.63 155.57 588.67 155.56 522.51
L 155.55 459.62
L 152.55 453.21
C 147.10 441.59 140.61 432.83 129.66 422.37
C 120.21 413.32 117.42 411.46 107.25 407.40
C 100.85 404.85 92.19 402.06 87.99 401.19
C 80.91 399.74 79.47 399.88 68.26 403.10
C 47.12 409.17 36.73 416.09 23.79 432.74
C 19.54 438.19 14.81 443.49 13.27 444.50
C 10.71 446.19 10.30 446.08 8.37 443.14
C 6.42 440.17 6.42 439.64 8.46 435.68
C 13.33 426.24 23.28 413.03 31.24 405.45
C 41.21 395.94 51.04 390.96 66.14 387.79
C 76.40 385.65 77.70 385.64 87.71 387.62
C 104.30 390.88 117.49 398.03 130.27 410.65
C 136.12 416.44 144.37 425.77 148.63 431.41
C 153.64 438.08 157.23 441.67 158.85 441.67
C 161.32 441.67 161.36 438.85 161.68 243.68
L 162.01 45.69
L 159.18 39.83
C 154.81 30.77 143.40 20.10 134.99 17.23
C 124.92 13.78 111.74 13.99 103.51 17.73
C 88.14 24.71 81.66 36.19 70.44 76.28
C 68.45 83.41 67.04 84.06 64.52 78.97
C 63.08 76.09 63.14 74.10 64.89 66.29
C 69.06 47.81 75.70 33.56 84.60 24.08
C 92.34 15.83 98.87 12.13 111.18 8.99
C 120.61 6.58 121.65 6.55 128.98 8.44
C 133.26 9.55 139.11 11.64 141.97 13.09
C 149.39 16.87 162.96 30.31 166.95 37.82
L 170.36 44.23
L 171.00 242.95
C 171.63 438.73 171.68 441.67 174.15 441.67
C 175.77 441.67 179.36 438.08 184.37 431.41
C 188.63 425.77 196.79 416.53 202.51 410.87
C 215.55 397.97 226.57 391.95 243.62 388.33
C 255.39 385.85 256.35 385.82 266.49 387.83
C 281.56 390.82 291.77 395.91 301.73 405.42
C 309.70 413.03 319.67 426.23 324.54 435.68
C 326.58 439.64 326.58 440.17 324.63 443.14
C 322.70 446.08 322.29 446.19 319.73 444.50
C 318.19 443.49 313.46 438.19 309.21 432.74
C 296.16 415.96 281.06 406.19 261.42 401.83
C 252.22 399.79 251.65 399.81 241.37 402.58
C 221.08 408.01 215.06 411.14 203.34 422.37
C 192.39 432.83 185.90 441.59 180.45 453.21
L 177.45 459.62
L 177.44 522.01
C 177.43 556.33 177.07 585.33 176.63 586.49
C 175.69 588.91 169.57 592.32 166.24 592.27
C 164.97 592.24 162.77 591.60 161.36 590.83"/>
</g>
</svg>
