<?xml version="1.0" encoding="UTF-8" standalone="no"?>
<!DOCTYPE svg PUBLIC "-//W3C//DTD SVG 1.1//EN"
"http://www.w3.org/Graphics/SVG/1.1/DTD/svg11.dtd">
<svg width="332px" height="600px"
xmlns="http://www.w3.org/2000/svg" version="1.1">
<g transform="translate(0000, 0000) scale(1.0000, 1.0000)">
<path fill="#000000" stroke="none" d="
M 153.78 598.52
C 147.89 595.30 147.98 596.45 147.98 528.58
L 147.98 464.07
L 142.04 452.22
C 130.74 429.69 112.65 414.90 90.86 410.40
C 82.79 408.73 79.78 408.64 73.68 409.90
C 54.50 413.83 40.97 422.26 28.21 438.24
C 23.16 444.57 17.98 450.30 16.68 450.99
C 9.11 455.04 0.00 449.72 0.00 441.26
C 0.00 426.94 23.55 397.91 42.47 388.92
C 52.66 384.09 68.11 380.30 77.69 380.30
C 102.83 380.30 130.06 394.88 149.64 418.84
L 154.37 424.63
L 154.39 396.55
L 154.42 368.49
L 148.96 358.01
C 141.72 344.11 129.06 330.77 117.20 324.55
C 104.99 318.14 91.20 315.39 81.40 317.40
C 62.22 321.33 48.69 329.76 35.93 345.74
C 30.88 352.06 25.70 357.79 24.40 358.48
C 16.83 362.53 7.72 357.21 7.72 348.76
C 7.72 334.43 31.26 305.42 50.19 296.42
C 75.27 284.48 103.20 285.61 126.29 299.51
C 134.85 304.65 149.62 316.46 152.30 320.27
C 154.10 322.86 154.29 310.30 154.35 186.77
L 154.42 50.43
L 151.27 43.31
C 139.30 16.29 105.08 13.16 90.76 37.76
C 89.07 40.66 85.12 51.44 81.98 61.70
C 73.93 88.07 71.10 92.54 63.59 90.67
C 57.68 89.18 56.18 84.75 56.94 70.93
C 58.98 34.07 80.85 6.53 112.30 1.22
C 124.26 -0.78 132.61 0.33 142.82 5.33
C 152.81 10.20 168.43 24.68 173.85 34.05
L 177.56 40.47
L 177.57 181.36
L 177.58 322.27
L 184.80 315.34
C 206.01 294.99 231.18 285.55 255.51 288.80
C 276.22 291.56 289.72 298.42 304.15 313.49
C 314.83 324.64 324.28 341.19 324.28 348.76
C 324.28 357.21 315.17 362.53 307.60 358.48
C 306.30 357.79 301.12 352.06 296.07 345.74
C 283.31 329.76 269.78 321.33 250.60 317.40
C 240.80 315.39 227.01 318.14 214.80 324.55
C 202.94 330.77 190.28 344.11 183.04 358.01
L 177.58 368.49
L 177.61 396.55
L 177.63 424.63
L 182.36 418.84
C 204.77 391.43 234.77 377.50 263.23 381.30
C 283.94 384.06 297.44 390.93 311.87 406.00
C 322.55 417.15 332.00 433.70 332.00 441.26
C 332.00 449.72 322.89 455.04 315.32 450.99
C 314.02 450.30 308.84 444.57 303.79 438.24
C 291.03 422.26 277.50 413.83 258.32 409.90
C 248.52 407.90 234.73 410.65 222.52 417.06
C 210.67 423.28 198.00 436.61 190.76 450.51
L 185.30 461.00
L 185.30 526.54
C 185.30 562.59 184.94 593.01 184.50 594.17
C 183.01 598.03 176.86 600.00 166.39 599.96
C 160.87 599.94 155.19 599.29 153.78 598.52
M 173.63 591.70
C 175.63 590.66 177.63 588.89 178.07 587.74
C 178.51 586.59 178.87 556.78 178.87 521.47
C 178.87 459.29 178.95 457.13 181.51 452.12
C 190.45 434.61 206.41 416.99 219.52 410.16
C 228.59 405.42 241.05 402.19 250.31 402.15
C 258.61 402.14 274.03 406.41 283.15 411.26
C 292.12 416.04 305.27 427.81 313.95 438.82
C 317.60 443.47 321.23 447.06 322.00 446.80
C 322.77 446.54 324.19 445.16 325.14 443.74
C 326.66 441.44 326.21 439.91 321.19 430.32
C 306.53 402.32 283.28 387.35 254.83 387.61
C 223.91 387.89 204.59 400.91 177.20 439.94
C 176.10 441.51 174.66 442.11 173.30 441.60
C 171.35 440.84 171.15 437.11 171.15 402.77
C 171.15 367.00 171.30 364.48 173.79 359.61
C 182.79 342.00 198.69 324.50 211.98 317.55
C 220.61 313.04 233.88 309.70 243.24 309.66
C 251.10 309.62 266.62 314.07 275.89 319.01
C 283.08 322.83 299.15 337.45 308.34 348.50
C 312.75 353.81 315.79 354.59 317.77 350.90
C 318.78 349.00 317.86 346.20 313.43 337.73
C 303.05 317.90 287.41 304.00 268.77 298.01
C 250.34 292.10 224.51 295.31 208.47 305.52
C 200.47 310.60 189.33 321.01 182.72 329.56
C 178.65 334.82 176.45 336.64 174.48 336.36
L 171.79 335.97
L 171.15 189.51
L 170.50 43.04
L 167.09 36.62
C 162.50 27.93 148.60 14.88 139.38 10.57
C 132.86 7.54 130.39 7.10 120.32 7.23
C 104.97 7.43 96.46 10.65 86.17 20.17
C 80.45 25.45 77.16 29.96 73.37 37.73
C 64.77 55.35 60.60 77.09 64.73 82.74
C 67.35 86.31 68.88 83.36 73.26 66.31
C 80.54 37.90 90.81 22.45 106.16 16.74
C 124.47 9.94 146.12 18.94 156.94 37.81
L 160.87 44.66
L 160.53 190.32
L 160.21 335.97
L 157.52 336.36
C 155.55 336.64 153.35 334.82 149.28 329.56
C 131.50 306.55 110.55 295.35 84.89 295.10
C 56.44 294.85 33.19 309.82 18.53 337.81
C 13.51 347.41 13.06 348.94 14.58 351.24
C 15.53 352.65 16.95 354.04 17.72 354.30
C 18.49 354.55 22.12 350.97 25.78 346.32
C 34.45 335.31 47.60 323.54 56.57 318.76
C 65.43 314.04 81.04 309.62 88.76 309.66
C 98.12 309.70 111.39 313.04 120.02 317.55
C 133.31 324.50 149.21 342.00 158.21 359.61
C 160.70 364.48 160.85 367.00 160.85 402.77
C 160.85 437.11 160.65 440.84 158.70 441.60
C 157.34 442.11 155.90 441.51 154.80 439.94
C 140.48 419.54 127.34 405.31 116.46 398.42
C 99.72 387.82 74.24 384.51 55.51 390.51
C 36.84 396.51 21.23 410.40 10.81 430.32
C 5.79 439.91 5.34 441.44 6.86 443.74
C 7.81 445.16 9.23 446.54 10.00 446.80
C 10.77 447.06 14.40 443.47 18.05 438.82
C 26.73 427.81 39.88 416.04 48.85 411.26
C 57.71 406.55 73.32 402.13 81.04 402.17
C 90.39 402.21 103.67 405.55 112.30 410.04
C 126.76 417.57 146.85 441.02 152.59 457.08
C 153.93 460.83 154.32 475.63 154.37 524.27
C 154.41 572.18 154.79 587.13 156.03 588.67
C 160.02 593.67 167.36 594.93 173.63 591.70"/>
<path fill="#21af28" stroke="none" d="
M 160.21 592.10
C 154.34 588.89 154.42 589.88 154.37 524.27
C 154.32 475.63 153.93 460.83 152.59 457.08
C 146.85 441.02 126.76 417.57 112.30 410.04
C 103.67 405.55 90.39 402.21 81.04 402.17
C 73.32 402.13 57.71 406.55 48.85 411.26
C 39.88 416.04 26.73 427.81 18.05 438.82
C 14.40 443.47 10.77 447.06 10.00 446.80
C 9.23 446.54 7.81 445.16 6.86 443.74
C 5.34 441.44 5.79 439.91 10.81 430.32
C 25.47 402.32 48.72 387.35 77.17 387.61
C 108.09 387.89 127.41 400.91 154.80 439.94
C 155.90 441.51 157.34 442.11 158.70 441.60
C 160.65 440.84 160.85 437.11 160.85 402.77
C 160.85 367.00 160.70 364.48 158.21 359.61
C 149.21 342.00 133.31 324.50 120.02 317.55
C 111.39 313.04 98.12 309.70 88.76 309.66
C 81.04 309.62 65.43 314.04 56.57 318.76
C 47.60 323.54 34.45 335.31 25.78 346.32
C 22.12 350.97 18.49 354.55 17.72 354.30
C 16.95 354.04 15.53 352.65 14.58 351.24
C 13.06 348.94 13.51 347.41 18.53 337.81
C 28.95 317.90 44.56 304.01 63.23 298.01
C 81.66 292.10 107.49 295.31 123.53 305.52
C 131.53 310.60 142.67 321.01 149.28 329.56
C 153.35 334.82 155.55 336.64 157.52 336.36
L 160.21 335.97
L 160.53 190.32
L 160.87 44.66
L 156.94 37.81
C 146.12 18.94 124.47 9.94 106.16 16.74
C 90.81 22.45 80.54 37.90 73.26 66.31
C 68.88 83.36 67.35 86.31 64.73 82.74
C 60.60 77.09 64.77 55.35 73.37 37.73
C 77.16 29.96 80.45 25.45 86.17 20.17
C 96.40 10.72 104.89 7.50 120.32 7.27
C 130.43 7.12 132.85 7.53 139.38 10.57
C 148.60 14.88 162.50 27.93 167.09 36.62
L 170.50 43.04
L 171.15 189.51
L 171.79 335.97
L 174.48 336.36
C 176.45 336.64 178.65 334.82 182.72 329.56
C 200.50 306.55 221.45 295.35 247.11 295.10
C 268.56 294.91 285.47 302.42 300.29 318.72
C 309.73 329.10 319.65 347.38 317.77 350.90
C 315.79 354.59 312.75 353.81 308.34 348.50
C 299.15 337.45 283.08 322.83 275.89 319.01
C 266.62 314.07 251.10 309.62 243.24 309.66
C 233.88 309.70 220.61 313.04 211.98 317.55
C 198.69 324.50 182.79 342.00 173.79 359.61
C 171.30 364.48 171.15 367.00 171.15 402.77
C 171.15 437.11 171.35 440.84 173.30 441.60
C 174.66 442.11 176.10 441.51 177.20 439.94
C 191.52 419.54 204.66 405.31 215.54 398.42
C 232.28 387.82 257.76 384.51 276.49 390.51
C 295.16 396.51 310.77 410.40 321.19 430.32
C 326.21 439.91 326.66 441.44 325.14 443.74
C 324.19 445.16 322.77 446.54 322.00 446.80
C 321.23 447.06 317.60 443.47 313.95 438.82
C 305.27 427.81 292.12 416.04 283.15 411.26
C 254.70 396.13 225.36 400.55 202.51 423.42
C 193.64 432.31 186.99 441.38 181.51 452.12
C 178.95 457.13 178.87 459.29 178.87 521.47
C 178.87 556.78 178.51 586.59 178.07 587.74
C 176.23 592.52 165.70 595.09 160.21 592.10"/>
</g>
</svg>
