<?xml version="1.0" encoding="UTF-8" standalone="no"?>
<!DOCTYPE svg PUBLIC "-//W3C//DTD SVG 1.1//EN"
"http://www.w3.org/Graphics/SVG/1.1/DTD/svg11.dtd">
<svg width="401px" height="600px"
xmlns="http://www.w3.org/2000/svg" version="1.1">
<g transform="translate(0000, 0000) scale(1.0000, 1.0000)">
<path fill="#000000" stroke="none" d="
M 155.71 598.87
C 75.18 594.32 13.57 576.70 2.82 555.14
C -0.74 548.00 -0.74 543.29 2.82 536.15
C 13.88 513.98 75.54 496.79 159.97 492.35
C 172.00 491.72 182.43 491.00 183.17 490.75
C 184.21 490.40 184.50 478.91 184.50 438.15
L 184.50 386.00
L 179.58 376.18
C 170.29 357.62 155.30 345.29 137.50 341.54
C 128.64 339.69 122.50 340.45 111.78 344.77
C 101.46 348.94 94.42 354.42 86.30 364.58
C 77.77 375.27 76.52 376.20 70.62 376.20
C 65.34 376.20 62.85 373.59 62.14 367.32
C 61.69 363.30 62.26 361.36 66.02 354.14
C 76.26 334.47 92.44 321.66 112.73 317.16
C 138.91 311.35 167.07 322.69 186.43 346.87
L 189.84 351.11
L 189.84 328.91
L 189.84 306.72
L 185.31 298.03
C 179.32 286.52 168.81 275.44 159.02 270.30
C 149.02 265.04 137.98 262.79 130.17 264.38
C 114.50 267.59 103.24 274.66 92.70 287.85
C 84.17 298.54 82.92 299.47 77.02 299.47
C 71.74 299.47 69.25 296.86 68.54 290.59
C 68.08 286.57 68.66 284.63 72.41 277.41
C 82.66 257.73 98.84 244.92 119.13 240.43
C 141.85 235.39 164.38 242.45 184.24 260.83
L 189.84 266.02
L 189.84 154.45
L 189.84 42.90
L 187.22 36.99
C 180.61 22.06 167.18 16.05 147.18 19.08
C 134.87 20.94 127.64 25.06 114.56 37.63
L 103.28 48.49
L 106.17 54.76
C 108.66 60.16 108.98 61.92 108.44 67.55
C 108.10 71.14 106.34 78.86 104.52 84.72
C 100.12 98.92 99.63 103.02 101.73 108.06
C 108.45 124.12 94.05 127.82 80.10 113.62
L 75.46 108.90
L 70.22 112.66
C 63.75 117.29 50.91 122.47 45.73 122.53
C 40.15 122.58 36.55 119.34 35.67 113.48
C 35.04 109.29 37.43 90.06 39.13 85.64
C 39.47 84.76 38.96 84.19 37.83 84.19
C 34.62 84.19 26.60 79.61 23.37 75.92
C 21.06 73.30 20.26 71.31 20.26 68.20
C 20.26 63.06 22.28 61.49 31.75 59.29
C 39.77 57.42 45.17 54.35 54.39 46.42
C 58.21 43.15 63.77 39.26 66.75 37.78
C 71.70 35.33 72.92 35.15 80.78 35.81
L 89.38 36.52
L 101.02 25.43
C 117.86 9.36 125.32 5.82 151.38 1.56
C 165.33 -0.71 172.10 -0.07 181.22 4.38
C 189.57 8.47 202.49 20.43 207.01 28.24
L 210.08 33.57
L 210.09 149.80
L 210.10 266.02
L 215.70 260.83
C 235.92 242.10 259.86 234.93 282.52 240.81
C 302.57 246.01 317.48 258.15 327.52 277.41
C 331.27 284.63 331.85 286.57 331.39 290.59
C 330.69 296.86 328.19 299.47 322.91 299.47
C 317.01 299.47 315.77 298.54 307.23 287.85
C 296.70 274.66 285.44 267.59 269.77 264.38
C 261.95 262.79 250.91 265.04 240.91 270.30
C 231.12 275.44 220.61 286.52 214.62 298.03
L 210.10 306.72
L 210.10 328.91
L 210.10 351.11
L 213.50 346.87
C 232.87 322.69 261.02 311.35 287.21 317.16
C 307.49 321.66 323.67 334.47 333.92 354.14
C 337.67 361.36 338.25 363.30 337.79 367.32
C 337.09 373.59 334.59 376.20 329.31 376.20
C 323.41 376.20 322.17 375.27 313.63 364.58
C 303.10 351.39 291.83 344.32 276.17 341.12
C 268.35 339.52 257.31 341.78 247.31 347.03
C 237.52 352.17 227.01 363.25 221.02 374.76
L 216.50 383.46
L 216.50 436.87
C 216.50 478.66 216.79 490.40 217.83 490.75
C 218.57 491.00 229.00 491.72 241.03 492.35
C 325.46 496.79 387.12 513.98 398.18 536.15
C 401.74 543.29 401.74 548.00 398.18 555.14
C 387.26 577.03 326.38 594.22 243.16 598.91
C 222.02 600.11 177.23 600.09 155.71 598.87
M 236.76 592.52
C 317.47 587.98 378.74 571.21 390.99 550.34
L 393.74 545.65
L 390.99 540.96
C 378.74 520.08 317.47 503.32 236.76 498.78
C 133.49 492.96 26.49 512.86 10.01 540.96
L 7.26 545.65
L 10.01 550.34
C 26.47 578.40 133.63 598.34 236.76 592.52
M 210.10 434.28
C 210.59 382.13 210.78 377.52 212.58 374.22
C 221.36 358.15 233.39 345.40 245.31 339.56
C 256.68 333.98 269.54 332.37 281.04 335.07
C 285.51 336.12 292.37 338.59 296.29 340.55
C 304.40 344.62 316.78 355.44 322.76 363.69
C 324.99 366.76 327.28 369.60 327.87 370.01
C 329.33 371.02 331.68 368.90 331.68 366.55
C 331.68 362.90 322.77 348.17 316.53 341.50
C 308.87 333.31 302.15 328.89 291.96 325.33
C 278.12 320.48 259.47 322.11 245.10 329.41
C 235.79 334.15 221.32 348.70 212.57 362.14
C 209.73 366.52 208.36 367.73 206.56 367.47
C 204.23 367.14 204.23 367.12 203.96 334.89
C 203.68 304.10 203.76 302.44 205.88 298.33
C 213.95 282.51 226.68 268.82 238.91 262.83
C 250.28 257.24 263.15 255.63 274.64 258.34
C 279.11 259.39 285.97 261.86 289.89 263.82
C 298.00 267.89 310.38 278.71 316.36 286.96
C 318.59 290.02 320.89 292.87 321.47 293.28
C 322.93 294.29 325.28 292.17 325.28 289.82
C 325.28 286.17 316.37 271.44 310.14 264.77
C 302.47 256.58 295.75 252.16 285.56 248.60
C 270.58 243.36 249.23 245.88 235.69 254.49
C 229.07 258.70 219.84 267.34 214.35 274.43
C 210.59 279.30 209.26 280.34 206.99 280.07
L 204.23 279.75
L 203.70 158.26
L 203.17 36.77
L 200.34 31.44
C 197.00 25.12 185.75 14.01 179.45 10.80
C 171.93 6.96 165.01 5.98 155.81 7.43
C 125.84 12.15 121.80 14.06 102.15 32.80
L 92.84 41.68
L 82.83 41.44
C 71.33 41.16 70.31 41.60 57.38 52.39
C 48.37 59.93 44.34 62.11 35.13 64.49
C 25.59 66.96 24.81 67.80 28.49 71.67
C 36.21 79.79 47.53 81.41 59.89 76.15
C 63.62 74.56 68.54 73.03 70.84 72.74
C 77.14 71.95 77.85 73.61 77.85 89.02
L 77.85 101.97
L 84.52 108.36
C 95.48 118.87 99.47 119.69 96.37 110.82
C 94.14 104.43 95.05 94.94 99.19 81.50
C 104.07 65.66 104.12 64.54 100.25 56.07
C 98.28 51.76 97.13 47.79 97.47 46.45
C 97.78 45.21 103.69 38.96 110.61 32.58
C 119.91 23.99 125.12 20.05 130.64 17.44
C 143.23 11.47 161.83 10.18 174.09 14.43
C 180.55 16.67 188.82 24.09 192.99 31.36
L 196.24 37.04
L 195.97 158.40
L 195.70 279.75
L 192.94 280.07
C 190.68 280.34 189.34 279.30 185.58 274.43
C 170.81 255.30 153.37 245.98 132.24 245.91
C 115.26 245.87 101.98 251.77 89.80 264.77
C 83.56 271.44 74.65 286.17 74.65 289.82
C 74.65 292.17 77.00 294.29 78.46 293.28
C 79.05 292.87 81.34 290.02 83.57 286.96
C 89.07 279.37 101.38 268.33 108.68 264.45
C 132.60 251.70 157.57 255.39 176.64 274.49
C 184.00 281.86 189.50 289.39 194.06 298.33
C 196.17 302.44 196.26 304.10 195.98 334.89
C 195.70 367.12 195.70 367.14 193.38 367.47
C 191.57 367.73 190.21 366.52 187.36 362.14
C 178.62 348.70 164.14 334.15 154.83 329.41
C 140.47 322.11 121.81 320.48 107.97 325.33
C 97.79 328.89 91.07 333.31 83.40 341.50
C 77.16 348.17 68.26 362.90 68.26 366.55
C 68.26 368.90 70.60 371.02 72.06 370.01
C 72.65 369.60 74.94 366.76 77.17 363.69
C 82.67 356.10 94.98 345.06 102.28 341.18
C 110.10 337.00 122.71 333.57 130.09 333.58
C 138.26 333.61 148.44 336.20 156.14 340.21
C 167.98 346.37 184.66 365.90 189.39 379.14
C 190.50 382.25 190.82 394.81 190.86 436.50
C 190.88 465.86 191.24 490.21 191.65 490.63
C 192.06 491.04 196.27 491.24 200.98 491.07
L 209.57 490.76
L 210.10 434.28
M 52.63 114.66
C 60.31 111.77 66.69 108.00 69.86 104.47
C 71.61 102.50 72.05 100.25 72.35 91.51
C 72.85 77.19 72.89 77.25 65.47 80.65
C 61.60 82.42 56.77 83.63 52.19 83.95
L 45.01 84.46
L 43.11 94.19
C 40.78 106.10 40.59 113.14 42.52 115.46
C 44.40 117.72 44.53 117.71 52.63 114.66"/>
<path fill="#000000" stroke="none" d="
M 159.87 572.26
C 114.38 569.09 79.33 560.77 74.64 552.02
C 74.06 550.93 73.59 548.06 73.59 545.62
C 73.59 538.01 80.50 533.55 100.11 528.51
C 125.91 521.87 151.33 519.63 201.03 519.63
C 233.39 519.63 246.30 520.05 259.16 521.48
C 295.15 525.50 317.80 531.21 325.23 538.15
C 327.96 540.69 328.48 541.97 328.48 546.18
C 328.48 550.39 327.96 551.67 325.23 554.22
C 317.87 561.09 294.83 566.94 260.22 570.72
C 241.93 572.72 180.09 573.67 159.87 572.26
M 234.09 566.94
C 265.62 564.96 290.43 561.09 306.33 555.69
C 315.09 552.71 322.08 548.49 322.08 546.18
C 322.08 542.16 306.94 535.78 288.23 531.90
C 232.24 520.32 136.92 522.68 95.74 536.67
C 86.97 539.65 79.99 543.87 79.99 546.18
C 79.99 548.49 86.97 552.71 95.74 555.69
C 124.10 565.33 183.32 570.15 234.09 566.94"/>
<path fill="#21af28" stroke="none" d="
M 191.65 490.63
C 191.24 490.21 190.88 465.86 190.86 436.50
C 190.82 394.81 190.50 382.25 189.39 379.14
C 184.66 365.90 167.98 346.37 156.14 340.21
C 148.44 336.20 138.26 333.61 130.09 333.58
C 122.71 333.57 110.10 337.00 102.28 341.18
C 94.98 345.06 82.67 356.10 77.17 363.69
C 74.94 366.76 72.65 369.60 72.06 370.01
C 70.60 371.02 68.26 368.90 68.26 366.55
C 68.26 362.90 77.16 348.17 83.40 341.50
C 91.07 333.31 97.79 328.89 107.97 325.33
C 121.81 320.48 140.47 322.11 154.83 329.41
C 164.14 334.15 178.62 348.70 187.36 362.14
C 190.21 366.52 191.57 367.73 193.38 367.47
C 195.70 367.14 195.70 367.12 195.98 334.89
C 196.26 304.10 196.17 302.44 194.06 298.33
C 186.66 283.82 173.40 269.15 162.64 263.54
C 154.58 259.34 144.94 256.84 136.87 256.84
C 129.12 256.84 116.62 260.21 108.68 264.45
C 101.38 268.33 89.07 279.37 83.57 286.96
C 81.34 290.02 79.05 292.87 78.46 293.28
C 77.00 294.29 74.65 292.17 74.65 289.82
C 74.65 286.17 83.56 271.44 89.80 264.77
C 97.47 256.58 104.19 252.16 114.37 248.60
C 129.35 243.36 150.71 245.88 164.24 254.49
C 170.86 258.70 180.10 267.34 185.58 274.43
C 189.34 279.30 190.68 280.34 192.94 280.07
L 195.70 279.75
L 195.97 158.40
L 196.24 37.04
L 192.99 31.36
C 188.82 24.09 180.55 16.67 174.09 14.43
C 161.83 10.18 143.23 11.47 130.64 17.44
C 125.12 20.05 119.91 23.99 110.61 32.58
C 103.69 38.96 97.78 45.21 97.47 46.45
C 97.13 47.79 98.28 51.76 100.25 56.07
C 104.12 64.54 104.07 65.66 99.19 81.50
C 95.05 94.94 94.14 104.43 96.37 110.82
C 99.47 119.69 95.48 118.87 84.52 108.36
L 77.85 101.97
L 77.85 89.02
C 77.85 73.61 77.14 71.95 70.84 72.74
C 68.54 73.03 63.62 74.56 59.89 76.15
C 47.53 81.41 36.21 79.79 28.49 71.67
C 24.81 67.80 25.59 66.96 35.13 64.49
C 44.34 62.11 48.37 59.93 57.38 52.39
C 70.31 41.60 71.33 41.16 82.83 41.44
L 92.84 41.68
L 102.15 32.80
C 121.58 14.26 126.59 11.81 152.90 7.96
C 165.74 6.09 171.38 6.69 179.45 10.80
C 185.75 14.01 197.00 25.12 200.34 31.44
L 203.17 36.77
L 203.70 158.26
L 204.23 279.75
L 206.99 280.07
C 209.26 280.34 210.59 279.30 214.35 274.43
C 229.12 255.30 246.56 245.98 267.69 245.91
C 284.68 245.87 297.96 251.77 310.14 264.77
C 316.37 271.44 325.28 286.17 325.28 289.82
C 325.28 292.17 322.93 294.29 321.47 293.28
C 320.89 292.87 318.59 290.02 316.36 286.96
C 310.38 278.71 298.00 267.89 289.89 263.82
C 285.97 261.86 279.11 259.39 274.64 258.34
C 263.15 255.63 250.28 257.24 238.91 262.83
C 226.68 268.82 213.95 282.51 205.88 298.33
C 203.76 302.44 203.68 304.10 203.96 334.89
C 204.23 367.12 204.23 367.14 206.56 367.47
C 208.36 367.73 209.73 366.52 212.57 362.14
C 221.32 348.70 235.79 334.15 245.10 329.41
C 259.47 322.11 278.12 320.48 291.96 325.33
C 302.15 328.89 308.87 333.31 316.53 341.50
C 322.77 348.17 331.68 362.90 331.68 366.55
C 331.68 368.90 329.33 371.02 327.87 370.01
C 327.28 369.60 324.99 366.76 322.76 363.69
C 316.78 355.44 304.40 344.62 296.29 340.55
C 292.37 338.59 285.51 336.12 281.04 335.07
C 269.54 332.37 256.68 333.98 245.31 339.56
C 233.39 345.40 221.36 358.15 212.58 374.22
C 210.78 377.52 210.59 382.13 210.10 434.28
L 209.57 490.76
L 200.98 491.07
C 196.27 491.24 192.06 491.04 191.65 490.63"/>
<path fill="#21af28" stroke="none" d="
M 42.52 115.46
C 40.59 113.14 40.78 106.10 43.11 94.19
L 45.01 84.46
L 52.19 83.95
C 56.77 83.63 61.60 82.42 65.47 80.65
C 72.89 77.25 72.85 77.19 72.35 91.51
C 71.95 103.26 71.31 104.58 63.58 109.47
C 59.73 111.92 46.94 117.23 44.90 117.23
C 44.40 117.23 43.33 116.44 42.52 115.46"/>
<path fill="#e03500" stroke="none" d="
M 162.11 592.48
C 84.09 588.06 22.07 570.88 10.01 550.34
L 7.26 545.65
L 10.01 540.96
C 22.29 520.02 84.21 503.14 164.77 498.78
C 268.70 493.14 374.51 512.87 390.99 540.96
L 393.74 545.65
L 390.99 550.34
C 374.42 578.59 266.86 598.39 162.11 592.48
M 260.22 570.72
C 294.83 566.94 317.87 561.09 325.23 554.22
C 327.96 551.67 328.48 550.39 328.48 546.18
C 328.48 541.97 327.96 540.69 325.23 538.15
C 317.80 531.21 295.15 525.50 259.16 521.48
C 246.30 520.05 233.39 519.63 201.03 519.63
C 151.33 519.63 125.91 521.87 100.11 528.51
C 80.50 533.55 73.59 538.01 73.59 545.62
C 73.59 548.06 74.06 550.93 74.64 552.02
C 79.33 560.77 114.38 569.09 159.87 572.26
C 180.09 573.67 241.93 572.72 260.22 570.72"/>
<path fill="#ff836a" stroke="none" d="
M 165.20 566.86
C 127.48 564.45 95.42 557.95 84.01 550.41
C 81.80 548.94 79.99 547.04 79.99 546.18
C 79.99 543.87 86.97 539.65 95.74 536.67
C 136.87 522.69 232.29 520.33 288.23 531.90
C 306.94 535.78 322.08 542.16 322.08 546.18
C 322.08 548.49 315.09 552.71 306.33 555.69
C 277.74 565.41 217.29 570.19 165.20 566.86"/>
</g>
</svg>
