<?xml version="1.0" encoding="UTF-8" standalone="no"?>
<!DOCTYPE svg PUBLIC "-//W3C//DTD SVG 1.1//EN"
"http://www.w3.org/Graphics/SVG/1.1/DTD/svg11.dtd">
<svg width="136px" height="600px"
xmlns="http://www.w3.org/2000/svg" version="1.1">
<g transform="translate(0000, 0000) scale(1.0000, 1.0000)">
<path fill="#000000" stroke="none" d="
M 109.23 597.50
C 97.35 592.15 86.00 576.37 65.15 536.27
C 49.88 506.88 46.94 502.18 32.99 484.76
C 18.92 467.20 14.86 461.16 9.13 449.29
C -0.08 430.21 -1.87 413.41 2.55 387.44
C 5.30 371.23 8.77 359.69 16.15 342.10
L 20.92 330.77
L 14.51 313.13
C 4.79 286.40 3.38 279.88 3.33 261.37
C 3.28 242.88 4.60 236.88 13.81 213.97
C 22.14 193.24 22.08 189.00 13.19 166.43
C 4.20 143.65 3.46 139.61 4.21 117.27
C 5.19 88.12 11.37 73.26 26.01 64.84
C 39.65 56.99 38.92 59.03 37.99 31.17
C 37.19 7.62 37.25 6.75 39.88 4.13
C 45.23 -1.18 57.75 -0.64 60.81 5.05
C 61.45 6.21 62.56 17.42 63.30 29.96
C 64.05 42.50 65.25 53.87 65.99 55.24
C 66.85 56.83 69.76 58.24 74.14 59.15
C 100.72 64.73 112.61 83.11 112.66 118.71
C 112.69 133.55 110.11 144.33 102.47 161.28
C 100.47 165.70 97.87 172.27 96.65 175.89
L 94.46 182.47
L 103.59 201.53
C 119.58 234.91 123.48 249.85 120.44 266.11
C 118.71 275.45 111.43 301.76 105.07 321.73
L 101.22 333.81
L 106.44 348.13
C 113.75 368.19 116.01 376.40 118.60 392.06
C 122.36 414.81 119.02 430.42 102.85 465.64
C 97.61 477.08 92.62 489.03 91.77 492.21
C 90.23 497.91 90.32 498.21 97.48 512.63
C 101.48 520.67 111.56 538.16 119.90 551.48
C 137.80 580.12 138.90 583.75 132.06 591.49
C 124.38 600.19 118.57 601.73 109.23 597.50
M 122.01 586.24
C 124.01 584.34 125.64 582.33 125.64 581.78
C 125.64 581.23 119.19 570.48 111.30 557.88
C 93.63 529.65 83.12 508.84 82.07 500.05
C 81.02 491.30 83.62 482.94 95.19 457.71
C 108.27 429.23 110.74 420.84 110.56 405.58
C 110.41 391.47 108.20 382.29 98.53 355.49
C 94.92 345.49 91.96 335.82 91.96 334.03
C 91.96 332.23 94.92 321.37 98.53 309.90
C 109.47 275.21 113.00 260.39 112.14 252.75
C 111.12 243.72 106.87 232.45 95.25 207.98
C 89.49 195.84 85.49 185.74 85.49 183.33
C 85.49 178.21 89.59 164.85 94.54 153.89
C 100.30 141.13 104.91 125.43 104.89 118.71
C 104.86 109.49 101.56 95.95 97.57 88.66
C 91.31 77.23 82.27 70.94 66.38 66.95
C 57.75 64.79 56.99 62.64 55.58 37.11
C 54.30 14.03 53.27 9.01 49.87 9.01
C 45.63 9.01 44.98 14.32 46.33 38.18
C 47.86 65.07 47.96 64.73 36.16 70.97
C 23.37 77.76 16.28 89.28 12.84 108.91
C 10.35 123.10 11.85 135.09 18.16 151.31
C 25.92 171.32 29.79 184.75 29.78 191.67
C 29.76 198.36 27.37 206.59 19.47 227.10
C 8.48 255.57 8.51 265.35 19.69 297.42
C 30.00 327.03 30.63 329.78 28.74 336.79
C 27.86 340.08 24.75 348.33 21.84 355.13
C 11.02 380.41 6.52 409.25 10.80 425.82
C 14.71 440.91 22.73 454.61 40.83 477.05
C 53.44 492.72 60.23 503.43 70.60 524.03
C 88.19 558.97 101.08 578.81 110.98 586.16
C 116.86 590.54 117.49 590.54 122.01 586.24"/>
<path fill="#009200" stroke="none" d="
M 110.98 586.16
C 101.08 578.81 88.19 558.97 70.60 524.03
C 60.23 503.43 53.44 492.72 40.83 477.05
C 22.73 454.61 14.71 440.91 10.80 425.82
C 6.52 409.25 11.02 380.41 21.84 355.13
C 24.75 348.33 27.86 340.08 28.74 336.79
C 30.63 329.78 30.00 327.03 19.69 297.42
C 8.51 265.35 8.48 255.57 19.47 227.10
C 27.37 206.59 29.76 198.36 29.78 191.67
C 29.79 184.60 25.76 170.78 18.00 151.29
C 12.52 137.50 12.37 136.73 12.34 122.32
C 12.29 97.52 19.52 80.76 33.78 72.59
C 37.64 70.38 42.46 67.03 44.47 65.15
C 47.60 62.25 48.04 61.04 47.44 56.95
C 47.06 54.31 46.36 43.42 45.90 32.74
C 45.16 15.59 45.32 13.08 47.24 11.18
C 52.73 5.70 54.06 9.84 55.58 37.11
C 56.99 62.64 57.75 64.79 66.38 66.95
C 82.27 70.94 91.31 77.23 97.57 88.66
C 101.56 95.95 104.86 109.49 104.89 118.71
C 104.91 125.43 100.30 141.13 94.54 153.89
C 89.59 164.85 85.49 178.21 85.49 183.33
C 85.49 185.74 89.49 195.84 95.25 207.98
C 106.87 232.45 111.12 243.72 112.14 252.75
C 113.00 260.39 109.47 275.21 98.53 309.90
C 94.92 321.37 91.96 332.23 91.96 334.03
C 91.96 335.82 94.92 345.49 98.53 355.49
C 108.20 382.29 110.41 391.47 110.56 405.58
C 110.74 420.84 108.27 429.23 95.19 457.71
C 83.62 482.94 81.02 491.30 82.07 500.05
C 83.12 508.84 93.63 529.65 111.30 557.88
C 119.19 570.48 125.64 581.23 125.64 581.78
C 125.64 583.22 118.62 589.70 117.05 589.70
C 116.33 589.70 113.59 588.10 110.98 586.16"/>
</g>
</svg>
