<?xml version="1.0" encoding="UTF-8" standalone="no"?>
<!DOCTYPE svg PUBLIC "-//W3C//DTD SVG 1.1//EN"
"http://www.w3.org/Graphics/SVG/1.1/DTD/svg11.dtd">
<svg width="171px" height="600px"
xmlns="http://www.w3.org/2000/svg" version="1.1">
<g transform="translate(0000, 0000) scale(1.0000, 1.0000)">
<path fill="#000000" stroke="none" d="
M 146.46 594.71
C 141.61 591.61 128.62 579.80 114.98 566.12
C 83.47 534.53 68.46 516.17 59.72 498.50
C 54.06 487.08 55.16 486.99 40.04 500.16
C 19.72 517.85 18.09 519.06 14.55 519.06
C 10.75 519.06 2.58 511.50 2.55 507.94
C 2.53 506.56 10.53 497.78 21.83 486.80
C 32.45 476.48 41.14 467.65 41.14 467.19
C 41.14 466.74 38.19 459.34 34.57 450.75
C 20.29 416.80 11.60 388.59 6.54 359.74
C 0.87 327.40 -0.33 312.87 0.57 287.79
C 2.49 233.88 9.76 195.80 29.02 138.67
C 39.21 108.42 42.98 94.79 44.29 83.47
C 45.10 76.46 45.03 76.24 37.85 65.52
C 33.87 59.56 23.94 46.42 15.81 36.32
C 7.44 25.93 1.31 17.19 1.70 16.20
C 2.62 13.80 22.46 6.72 37.29 3.52
C 47.08 1.39 54.32 0.85 73.93 0.78
C 95.49 0.71 99.68 1.04 109.67 3.66
C 127.50 8.33 141.43 15.35 141.43 19.67
C 141.43 20.35 135.21 27.34 127.61 35.19
C 114.40 48.82 107.01 58.23 98.10 72.77
C 94.10 79.30 94.06 79.52 95.10 90.12
C 95.68 96.03 98.79 111.43 102.03 124.34
C 114.25 173.10 120.77 213.20 123.51 256.32
C 125.64 290.16 123.24 319.40 115.52 353.32
C 109.59 379.40 103.18 397.54 86.81 434.49
L 71.95 468.01
L 76.02 475.22
C 95.80 510.28 116.87 536.13 151.43 567.73
C 164.82 579.96 171.00 587.91 171.00 592.88
C 171.00 596.78 166.14 600.00 160.28 600.00
C 155.92 600.00 152.87 598.83 146.46 594.71
M 161.31 591.08
C 162.40 589.31 156.18 582.71 137.74 566.06
C 110.29 541.27 86.00 510.21 66.18 474.54
L 62.50 467.92
L 70.39 450.77
C 97.19 392.60 109.07 355.73 114.66 313.49
C 116.64 298.54 116.56 259.17 114.52 238.33
C 111.28 205.28 104.84 169.21 94.47 126.14
C 90.12 107.99 89.58 106.63 87.60 108.41
C 83.94 111.71 74.15 115.58 69.43 115.58
C 64.71 115.58 54.91 111.71 51.27 108.42
C 49.33 106.66 48.79 107.47 45.00 117.82
C 21.99 180.54 13.59 219.22 10.20 278.16
C 6.58 340.81 17.47 393.93 47.26 459.04
L 51.90 469.21
L 31.55 488.69
C 14.25 505.23 11.48 508.39 13.11 509.74
C 14.72 511.08 17.04 509.73 27.13 501.56
C 33.78 496.19 42.22 488.96 45.89 485.51
C 49.55 482.06 53.36 479.23 54.32 479.23
C 57.42 479.23 59.84 482.15 68.12 495.93
C 79.33 514.60 87.17 524.75 105.17 543.89
C 123.15 563.01 139.55 578.26 150.84 586.37
C 159.48 592.56 160.19 592.88 161.31 591.08
M 76.50 104.99
C 79.88 103.09 82.74 100.02 84.86 96.01
L 88.07 89.94
L 84.86 83.83
C 82.48 79.31 80.06 76.90 75.54 74.52
L 69.43 71.31
L 63.32 74.52
C 58.80 76.90 56.38 79.31 54.00 83.83
L 50.79 89.94
L 54.00 96.01
C 56.12 100.02 58.98 103.09 62.36 104.99
C 68.76 108.59 70.10 108.59 76.50 104.99
M 69.43 64.27
C 71.90 64.27 77.03 65.70 80.81 67.46
C 84.59 69.22 88.19 70.34 88.82 69.96
C 89.45 69.57 93.83 63.70 98.56 56.92
C 103.29 50.13 112.37 39.16 118.72 32.52
C 125.20 25.73 129.75 19.99 129.10 19.41
C 126.59 17.18 116.63 14.13 102.68 11.32
C 76.22 6.00 38.15 8.24 20.74 16.14
C 15.65 18.45 14.16 19.70 15.07 20.88
C 15.74 21.76 20.15 27.26 24.84 33.10
C 29.55 38.94 37.45 49.76 42.40 57.13
L 51.42 70.55
L 58.17 67.41
C 61.88 65.68 66.96 64.27 69.43 64.27"/>
<path fill="#009200" stroke="none" d="
M 42.40 57.13
C 37.45 49.76 29.55 38.94 24.84 33.10
C 20.15 27.26 15.74 21.76 15.07 20.88
C 14.16 19.70 15.65 18.45 20.74 16.14
C 38.06 8.27 76.35 6.03 102.68 11.33
C 116.63 14.13 126.59 17.18 129.10 19.41
C 129.75 19.99 125.20 25.73 118.72 32.52
C 112.37 39.16 103.29 50.13 98.56 56.92
C 93.83 63.70 89.45 69.57 88.82 69.96
C 88.19 70.34 84.59 69.22 80.81 67.46
C 72.15 63.44 66.73 63.43 58.17 67.41
L 51.42 70.55
L 42.40 57.13"/>
<path fill="#cf9e66" stroke="none" d="
M 62.36 104.99
C 58.98 103.09 56.12 100.02 54.00 96.01
L 50.79 89.94
L 54.00 83.83
C 56.47 79.14 58.67 77.01 63.51 74.61
L 69.81 71.49
L 75.73 74.61
C 80.05 76.88 82.52 79.37 84.86 83.83
L 88.07 89.94
L 84.86 96.01
C 82.74 100.02 79.88 103.09 76.50 104.99
C 70.10 108.59 68.76 108.59 62.36 104.99"/>
<path fill="#c57a36" stroke="none" d="
M 150.84 586.37
C 139.55 578.26 123.15 563.01 105.17 543.89
C 87.17 524.75 79.33 514.60 68.12 495.93
C 59.84 482.15 57.42 479.23 54.32 479.23
C 53.36 479.23 49.55 482.06 45.89 485.51
C 42.22 488.96 33.78 496.19 27.13 501.56
C 17.04 509.73 14.72 511.08 13.11 509.74
C 11.48 508.39 14.25 505.23 31.55 488.69
L 51.90 469.21
L 47.26 459.04
C 17.43 393.85 6.66 341.25 10.22 278.33
C 13.46 221.38 20.92 185.36 41.41 127.84
C 44.94 117.94 48.20 109.44 48.68 108.94
C 49.15 108.42 52.93 109.73 57.10 111.83
C 61.38 113.99 66.65 115.62 69.29 115.61
C 74.15 115.58 83.93 111.73 87.60 108.41
C 89.58 106.63 90.12 107.99 94.47 126.14
C 109.70 189.43 115.93 232.92 116.15 277.52
C 116.43 332.30 104.97 375.70 70.39 450.77
L 62.50 467.92
L 66.18 474.54
C 86.00 510.21 110.29 541.27 137.74 566.06
C 156.18 582.71 162.40 589.31 161.31 591.08
C 160.19 592.88 159.48 592.56 150.84 586.37"/>
</g>
</svg>
