<?xml version="1.0" encoding="UTF-8" standalone="no"?>
<!DOCTYPE svg PUBLIC "-//W3C//DTD SVG 1.1//EN"
"http://www.w3.org/Graphics/SVG/1.1/DTD/svg11.dtd">
<svg width="360px" height="600px"
xmlns="http://www.w3.org/2000/svg" version="1.1">
<g transform="translate(0000, 0000) scale(1.0000, 1.0000)">
<path fill="#000000" stroke="none" d="
M 103.57 598.50
C 92.23 595.07 75.29 577.41 57.73 550.71
C 8.94 476.54 -12.51 369.31 7.30 298.70
C 13.11 278.03 25.81 253.21 41.34 232.23
C 49.99 220.56 50.03 221.71 39.91 196.43
C 28.94 168.99 10.77 113.76 11.83 111.03
C 12.66 108.86 15.29 108.57 34.96 108.57
L 57.14 108.57
L 57.14 57.41
C 57.14 15.99 57.51 5.74 59.13 3.54
C 60.67 1.44 63.37 0.70 71.11 0.26
C 79.83 -0.23 81.51 0.09 84.13 2.70
C 87.09 5.66 87.14 6.74 87.14 57.14
L 87.14 108.57
L 107.86 108.57
L 128.57 108.57
L 128.57 57.14
C 128.57 -3.30 127.70 0.00 143.57 0.00
C 159.44 0.00 158.57 -3.30 158.57 57.14
L 158.57 108.57
L 180.00 108.57
L 201.43 108.57
L 201.43 57.14
C 201.43 -3.30 200.56 0.00 216.43 0.00
C 232.30 0.00 231.43 -3.30 231.43 57.14
L 231.43 108.57
L 252.14 108.57
L 272.86 108.57
L 272.86 57.14
C 272.86 -3.30 271.99 0.00 287.86 0.00
C 303.73 0.00 302.86 -3.30 302.86 57.14
L 302.86 108.57
L 325.04 108.57
C 344.71 108.57 347.34 108.86 348.17 111.03
C 349.23 113.76 331.06 168.99 320.09 196.43
C 309.97 221.71 310.01 220.56 318.66 232.23
C 347.83 271.66 359.97 308.63 359.99 358.14
C 360.01 424.04 337.71 497.36 300.76 552.86
C 286.77 573.84 276.16 585.96 264.93 593.69
L 256.80 599.29
L 182.33 599.54
C 141.10 599.69 105.94 599.21 103.57 598.50
M 255.11 587.24
C 271.56 577.81 294.31 547.70 312.94 510.73
C 335.27 466.41 349.13 414.37 351.01 367.70
C 353.03 318.09 340.01 277.97 308.27 235.91
C 303.93 230.17 303.59 228.91 303.70 219.49
C 303.81 210.80 304.79 206.96 310.34 193.57
C 315.84 180.31 337.14 120.14 337.14 117.87
C 337.14 117.47 266.43 117.14 180.00 117.14
C 93.57 117.14 22.86 117.47 22.86 117.87
C 22.86 120.14 44.16 180.31 49.66 193.57
C 55.21 206.96 56.19 210.80 56.30 219.49
C 56.41 228.91 56.07 230.17 51.73 235.91
C 19.99 277.97 6.97 318.09 8.99 367.70
C 10.87 414.37 24.73 466.41 47.06 510.73
C 65.69 547.70 88.44 577.81 104.89 587.24
L 112.14 591.40
L 180.00 591.40
L 247.86 591.40
L 255.11 587.24
M 78.57 60.29
C 78.57 9.53 78.46 8.57 72.14 8.57
C 65.83 8.57 65.71 9.53 65.71 60.29
L 65.71 108.57
L 72.14 108.57
L 78.57 108.57
L 78.57 60.29
M 150.00 60.29
C 150.00 9.53 149.89 8.57 143.57 8.57
C 137.26 8.57 137.14 9.53 137.14 60.29
L 137.14 108.57
L 143.57 108.57
L 150.00 108.57
L 150.00 60.29
M 222.86 60.29
C 222.86 9.53 222.74 8.57 216.43 8.57
C 210.11 8.57 210.00 9.53 210.00 60.29
L 210.00 108.57
L 216.43 108.57
L 222.86 108.57
L 222.86 60.29
M 294.29 60.29
C 294.29 9.53 294.17 8.57 287.86 8.57
C 281.54 8.57 281.43 9.53 281.43 60.29
L 281.43 108.57
L 287.86 108.57
L 294.29 108.57
L 294.29 60.29"/>
<path fill="#21be23" stroke="none" d="
M 65.71 59.97
L 65.71 11.37
L 69.40 9.69
C 72.01 8.50 73.77 8.44 75.47 9.51
C 77.61 10.87 77.90 16.01 78.23 59.80
L 78.61 108.57
L 72.16 108.57
L 65.71 108.57
L 65.71 59.97"/>
<path fill="#21be23" stroke="none" d="
M 137.14 60.29
C 137.14 9.53 137.26 8.57 143.57 8.57
C 149.89 8.57 150.00 9.53 150.00 60.29
L 150.00 108.57
L 143.57 108.57
L 137.14 108.57
L 137.14 60.29"/>
<path fill="#21be23" stroke="none" d="
M 210.00 60.29
C 210.00 9.53 210.11 8.57 216.43 8.57
C 222.74 8.57 222.86 9.53 222.86 60.29
L 222.86 108.57
L 216.43 108.57
L 210.00 108.57
L 210.00 60.29"/>
<path fill="#21be23" stroke="none" d="
M 281.43 60.29
C 281.43 9.53 281.54 8.57 287.86 8.57
C 294.17 8.57 294.29 9.53 294.29 60.29
L 294.29 108.57
L 287.86 108.57
L 281.43 108.57
L 281.43 60.29"/>
<path fill="#baac36" stroke="none" d="
M 104.89 587.24
C 88.44 577.81 65.69 547.70 47.06 510.73
C 24.73 466.41 10.87 414.37 8.99 367.70
C 6.97 318.09 19.99 277.97 51.73 235.91
C 56.07 230.17 56.41 228.91 56.30 219.49
C 56.20 211.04 55.24 207.06 50.74 196.43
C 43.44 179.14 22.91 119.64 23.77 118.26
C 24.51 117.04 337.14 116.67 337.14 117.87
C 337.14 120.14 315.84 180.31 310.34 193.57
C 304.79 206.96 303.81 210.80 303.70 219.49
C 303.59 228.91 303.93 230.17 308.27 235.91
C 340.01 277.97 353.03 318.09 351.01 367.70
C 349.13 414.37 335.27 466.41 312.94 510.73
C 294.31 547.70 271.56 577.81 255.11 587.24
L 247.86 591.40
L 180.00 591.40
L 112.14 591.40
L 104.89 587.24"/>
</g>
</svg>
