<?xml version="1.0" encoding="UTF-8" standalone="no"?>
<!DOCTYPE svg PUBLIC "-//W3C//DTD SVG 1.1//EN"
"http://www.w3.org/Graphics/SVG/1.1/DTD/svg11.dtd">
<svg width="145px" height="600px"
xmlns="http://www.w3.org/2000/svg" version="1.1">
<g transform="translate(0000, 0000) scale(1.0000, 1.0000)">
<path fill="#000000" stroke="none" d="
M 132.12 596.50
C 125.00 592.59 105.20 577.40 90.31 564.42
C 49.36 528.75 15.51 468.88 3.10 410.24
C -0.98 390.92 -1.01 384.38 3.00 381.76
C 6.84 379.24 12.49 380.25 18.95 384.59
C 38.38 397.66 69.32 426.96 87.41 449.40
C 106.95 473.67 123.21 501.90 131.76 526.37
C 138.41 545.44 143.99 569.76 144.68 582.75
C 145.64 600.76 143.71 602.87 132.12 596.50
M 138.65 582.36
C 137.85 572.00 131.59 546.47 125.83 530.08
C 113.11 493.90 87.12 455.92 51.39 421.28
C 37.02 407.37 17.46 391.29 10.53 387.72
C 4.34 384.53 4.47 388.42 11.52 417.04
C 23.97 467.68 52.81 518.35 88.81 552.86
C 103.96 567.37 134.85 591.63 138.18 591.63
C 138.91 591.63 139.09 588.12 138.65 582.36"/>
<path fill="#000000" stroke="none" d="
M 132.12 405.26
C 125.00 401.35 105.20 386.16 90.31 373.18
C 49.36 337.52 15.51 277.65 3.10 219.00
C -0.98 199.69 -1.01 193.15 3.00 190.53
C 6.84 188.01 12.49 189.01 18.95 193.35
C 38.38 206.43 69.32 235.72 87.41 258.17
C 106.95 282.43 123.21 310.66 131.76 335.14
C 138.41 354.20 143.99 378.53 144.68 391.52
C 145.64 409.53 143.71 411.63 132.12 405.26
M 138.65 391.12
C 137.85 380.76 131.59 355.23 125.83 338.84
C 113.11 302.67 87.12 264.68 51.39 230.04
C 37.02 216.13 17.46 200.06 10.53 196.48
C 4.34 193.29 4.47 197.19 11.52 225.80
C 23.97 276.44 52.81 327.12 88.81 361.63
C 103.96 376.14 134.85 400.40 138.18 400.40
C 138.91 400.40 139.09 396.88 138.65 391.12"/>
<path fill="#000000" stroke="none" d="
M 132.12 216.42
C 125.00 212.51 105.20 197.32 90.31 184.34
C 56.73 155.08 27.38 109.02 11.31 60.35
C 5.02 41.28 -0.28 16.67 0.23 8.84
C 0.55 3.75 1.04 2.80 4.05 1.36
C 9.16 -1.06 14.61 1.03 26.47 9.97
C 74.33 46.04 115.28 99.06 131.76 146.29
C 138.41 165.36 143.99 189.68 144.68 202.67
C 145.64 220.69 143.71 222.79 132.12 216.42
M 138.65 202.28
C 137.85 191.92 131.59 166.39 125.83 150.00
C 113.11 113.82 87.12 75.84 51.39 41.20
C 37.02 27.29 17.46 11.21 10.53 7.64
C 4.34 4.45 4.47 8.34 11.52 36.96
C 23.97 87.60 52.81 138.27 88.81 172.78
C 103.96 187.29 134.85 211.55 138.18 211.55
C 138.91 211.55 139.09 208.04 138.65 202.28"/>
<path fill="#ffb00f" stroke="none" d="
M 130.02 586.76
C 118.37 578.62 99.45 563.04 88.81 552.86
C 52.81 518.35 23.97 467.68 11.52 417.04
C 6.55 396.88 5.43 390.43 6.42 387.85
C 7.07 386.18 7.53 386.16 10.53 387.72
C 17.46 391.29 37.02 407.37 51.39 421.28
C 87.12 455.92 113.11 493.90 125.83 530.08
C 134.42 554.53 141.87 591.63 138.18 591.63
C 137.53 591.63 133.87 589.43 130.02 586.76"/>
<path fill="#ffb00f" stroke="none" d="
M 130.02 395.52
C 118.37 387.38 99.45 371.81 88.81 361.63
C 52.81 327.12 23.97 276.44 11.52 225.80
C 6.55 205.65 5.43 199.20 6.42 196.61
C 7.07 194.94 7.53 194.93 10.53 196.48
C 17.46 200.06 37.02 216.13 51.39 230.04
C 87.12 264.68 113.11 302.67 125.83 338.84
C 134.42 363.30 141.87 400.40 138.18 400.40
C 137.53 400.40 133.87 398.20 130.02 395.52"/>
<path fill="#ffb00f" stroke="none" d="
M 130.02 206.68
C 118.37 198.54 99.45 182.96 88.81 172.78
C 60.72 145.85 37.77 110.56 21.82 69.74
C 15.84 54.43 7.75 24.80 6.36 13.14
C 5.72 7.65 5.86 7.17 8.17 7.17
C 12.10 7.17 33.61 24.07 50.70 40.57
C 86.99 75.62 113.00 113.52 125.83 150.00
C 134.42 174.45 141.87 211.55 138.18 211.55
C 137.53 211.55 133.87 209.35 130.02 206.68"/>
</g>
</svg>
