<?xml version="1.0" encoding="UTF-8" standalone="no"?>
<!DOCTYPE svg PUBLIC "-//W3C//DTD SVG 1.1//EN"
"http://www.w3.org/Graphics/SVG/1.1/DTD/svg11.dtd">
<svg width="600px" height="346px"
xmlns="http://www.w3.org/2000/svg" version="1.1">
<g transform="translate(0000, 0000) scale(1.0000, 1.0000)">
<path fill="#000000" stroke="none" d="
M 30.37 343.68
C 22.46 338.77 18.58 332.25 18.61 323.90
C 18.61 321.40 19.98 313.30 21.66 305.93
C 25.34 289.67 28.46 269.45 33.36 230.05
C 39.47 180.79 39.86 174.51 38.96 137.71
C 38.10 101.36 38.38 103.32 30.20 77.93
C 28.50 72.66 23.24 61.88 18.40 53.75
C 0.57 23.81 -2.91 13.94 1.80 6.73
C 6.46 -0.37 -5.53 0.00 219.45 0.00
C 445.19 0.00 430.41 -0.47 436.17 6.86
C 441.26 13.33 440.88 15.53 430.82 37.06
C 421.46 57.08 407.57 90.00 406.31 95.08
C 405.72 97.52 406.35 97.88 413.37 99.11
C 417.61 99.84 422.78 100.45 424.86 100.45
C 429.17 100.45 447.48 104.09 462.67 107.95
C 509.90 120.00 550.62 155.82 574.76 206.57
C 585.33 228.81 595.18 261.46 598.82 286.40
C 601.13 302.14 599.96 319.08 596.01 327.67
C 589.07 342.71 574.25 345.12 562.28 333.13
C 555.67 326.50 554.13 320.99 554.13 303.88
C 554.13 287.20 551.16 271.29 544.09 250.12
C 535.26 223.75 525.87 208.55 507.67 191.29
C 485.07 169.85 455.31 155.56 420.57 149.49
C 406.18 146.97 400.55 147.01 399.55 149.64
C 398.57 152.20 401.02 190.96 403.57 213.30
C 406.21 236.25 412.13 274.11 415.87 292.05
C 422.55 323.98 418.66 340.51 403.51 344.64
C 400.04 345.58 344.01 345.99 216.32 345.99
C 40.71 345.99 33.95 345.90 30.37 343.68
M 70.87 308.80
C 81.24 239.69 84.01 211.80 84.58 171.14
L 84.92 146.96
L 65.70 146.96
L 46.49 146.96
L 46.20 158.74
C 45.40 192.72 35.28 275.19 27.69 309.59
C 23.81 327.21 24.37 330.25 32.68 336.26
C 37.59 339.81 37.88 339.87 51.99 339.53
L 66.32 339.18
L 70.87 308.80
M 120.50 335.46
C 122.43 328.61 127.60 293.49 129.51 274.22
C 132.19 247.26 134.10 199.55 133.65 171.14
L 133.26 146.96
L 112.81 146.96
L 92.36 146.96
L 91.49 167.42
C 89.10 224.30 87.24 243.03 77.57 308.00
C 75.15 324.29 73.49 338.11 73.86 338.73
C 74.26 339.35 84.47 339.70 97.00 339.51
L 119.45 339.18
L 120.50 335.46
M 166.75 338.53
C 167.98 336.55 174.84 148.37 173.73 147.25
C 173.18 146.71 165.52 146.41 156.72 146.61
L 140.70 146.96
L 139.92 190.36
C 139.14 233.99 137.76 258.48 134.40 288.33
C 132.37 306.41 128.00 334.57 126.97 336.23
C 126.61 336.82 126.64 337.88 127.07 338.56
C 128.11 340.25 165.71 340.22 166.75 338.53
M 218.80 243.07
L 218.80 146.96
L 200.93 146.61
C 191.10 146.42 182.55 146.76 181.95 147.37
C 180.77 148.54 173.28 337.12 174.35 338.84
C 174.69 339.40 184.83 339.70 196.88 339.51
L 218.80 339.18
L 218.80 243.07
M 264.57 338.71
C 265.28 337.58 260.94 191.61 259.36 163.08
L 258.47 146.96
L 242.36 146.96
L 226.24 146.96
L 225.92 241.83
C 225.74 294.00 225.87 337.39 226.19 338.25
C 226.88 340.08 263.45 340.52 264.57 338.71
M 309.00 336.70
C 308.85 335.33 307.90 325.00 306.90 313.76
C 305.90 302.51 304.43 286.60 303.61 278.41
C 302.00 262.19 301.51 217.21 302.48 174.24
L 303.09 146.96
L 284.50 146.96
L 265.91 146.96
L 266.21 162.46
C 266.88 198.55 271.67 337.85 272.27 338.82
C 272.63 339.39 281.10 339.71 291.11 339.53
C 308.47 339.19 309.29 339.07 309.00 336.70
M 361.62 337.70
C 362.07 336.56 359.76 310.18 356.52 279.11
C 350.62 222.64 350.62 222.58 351.02 184.78
L 351.45 146.96
L 330.99 146.96
L 310.54 146.96
L 309.63 153.78
C 309.14 157.54 308.59 183.76 308.43 212.06
C 308.19 253.08 308.55 267.44 310.19 282.75
C 311.33 293.33 312.58 306.71 312.99 312.52
C 313.66 322.04 315.45 334.19 316.77 338.25
C 317.14 339.41 322.72 339.80 339.05 339.80
C 358.33 339.80 360.92 339.56 361.62 337.70
M 402.41 337.43
C 412.61 332.79 415.14 320.27 410.33 298.25
C 403.24 265.84 396.20 211.88 393.82 171.76
L 392.36 146.96
L 375.62 146.96
L 358.88 146.96
L 357.92 185.40
L 356.96 223.85
L 363.01 280.41
C 366.33 311.51 369.45 337.60 369.93 338.39
C 370.50 339.30 375.45 339.79 384.06 339.77
C 394.30 339.75 398.47 339.22 402.41 337.43
M 584.37 331.01
C 586.19 329.57 588.92 326.08 590.43 323.26
C 594.68 315.28 594.35 293.60 589.62 272.83
C 578.43 223.47 559.09 185.09 531.20 156.84
C 506.83 132.15 482.79 119.18 446.03 110.88
C 416.54 104.22 416.57 104.22 223.41 104.20
L 44.57 104.17
L 44.90 121.84
L 45.25 139.52
L 229.34 140.24
C 428.13 141.02 415.23 140.57 442.35 147.52
C 477.57 156.53 508.51 176.34 528.20 202.48
C 538.14 215.67 544.00 227.69 550.75 248.65
C 557.47 269.57 560.33 285.32 560.33 301.42
C 560.33 318.11 561.05 320.66 567.73 327.61
C 574.33 334.44 578.83 335.36 584.37 331.01
M 76.62 92.69
C 77.10 87.01 71.75 61.91 66.67 45.89
C 62.34 32.24 53.68 10.01 51.81 7.75
C 50.89 6.65 45.57 6.20 33.29 6.20
C 14.57 6.20 8.33 7.65 6.84 12.33
C 5.79 15.63 10.75 26.44 21.53 44.43
C 32.76 63.17 35.63 69.27 39.84 83.49
C 41.89 90.38 43.85 96.47 44.19 97.03
C 44.54 97.59 51.89 97.88 60.53 97.70
L 76.24 97.35
L 76.62 92.69
M 123.71 84.53
C 123.97 74.77 122.99 64.56 119.60 41.74
C 117.15 25.26 114.63 10.53 114.00 8.99
C 112.87 6.23 112.66 6.20 86.80 6.20
C 65.64 6.20 60.74 6.52 60.74 7.89
C 60.74 8.82 62.40 13.60 64.43 18.53
C 72.63 38.42 80.59 67.94 83.67 89.91
C 84.15 93.32 84.81 96.55 85.13 97.08
C 85.45 97.60 94.19 97.88 104.53 97.70
L 123.35 97.35
L 123.71 84.53
M 173.83 91.77
C 172.34 67.39 167.39 8.51 166.76 7.48
C 166.26 6.67 157.71 6.20 143.73 6.20
L 121.49 6.20
L 121.50 8.99
C 121.51 10.53 123.47 24.60 125.84 40.28
C 128.81 59.84 130.17 73.08 130.17 82.54
C 130.17 90.12 130.55 96.71 131.02 97.18
C 131.49 97.65 141.40 97.87 153.02 97.69
L 174.17 97.35
L 173.83 91.77
M 218.80 52.09
L 218.80 6.82
L 197.19 6.49
C 185.32 6.29 175.19 6.57 174.68 7.11
C 173.29 8.54 180.06 94.23 181.79 97.00
C 182.13 97.57 190.60 97.88 200.62 97.70
L 218.80 97.35
L 218.80 52.09
M 264.69 96.69
C 265.93 94.70 271.41 8.17 270.37 7.11
C 269.86 6.57 259.72 6.29 247.85 6.49
L 226.24 6.82
L 225.92 50.83
C 225.73 75.05 225.86 95.55 226.19 96.41
C 226.95 98.41 263.48 98.67 264.69 96.69
M 311.58 97.04
C 311.89 96.53 312.78 90.80 313.56 84.33
C 315.31 69.78 320.91 44.91 326.67 26.19
C 329.05 18.43 330.99 10.76 330.99 9.14
L 330.99 6.20
L 305.03 6.20
C 288.56 6.20 278.79 6.67 278.28 7.48
C 277.29 9.08 271.49 95.74 272.29 97.03
C 273.05 98.26 310.83 98.27 311.58 97.04
M 359.79 91.77
C 363.35 71.49 365.26 63.43 369.55 50.33
C 372.21 42.19 376.62 30.71 379.34 24.82
C 382.05 18.92 384.63 12.30 385.07 10.12
L 385.86 6.14
L 362.48 6.49
L 339.11 6.82
L 336.48 16.74
C 335.03 22.20 332.43 31.40 330.69 37.20
C 324.21 58.82 317.47 93.90 319.24 96.77
C 319.74 97.56 327.22 97.91 339.41 97.70
L 358.81 97.35
L 359.79 91.77
M 399.62 92.08
C 401.70 85.17 417.30 48.59 426.35 29.39
C 432.33 16.67 432.56 15.84 430.85 12.53
C 428.10 7.21 423.77 6.08 407.80 6.47
L 393.60 6.82
L 391.00 14.88
C 389.58 19.32 387.12 25.45 385.55 28.52
C 376.97 45.28 363.76 92.56 366.43 96.92
C 366.79 97.50 374.01 97.97 382.46 97.97
L 397.83 97.97
L 399.62 92.08"/>
<path fill="#ddb136" stroke="none" d="
M 32.68 336.26
C 24.37 330.25 23.81 327.21 27.69 309.59
C 35.28 275.19 45.40 192.72 46.20 158.74
L 46.49 146.96
L 65.70 146.96
L 84.92 146.96
L 84.58 171.14
C 84.01 211.80 81.24 239.69 70.87 308.80
L 66.32 339.18
L 51.99 339.53
C 37.88 339.87 37.59 339.81 32.68 336.26"/>
<path fill="#ddb136" stroke="none" d="
M 127.07 338.56
C 126.64 337.88 126.61 336.82 126.97 336.23
C 128.00 334.57 132.37 306.41 134.40 288.33
C 137.76 258.48 139.14 233.99 139.92 190.36
L 140.70 146.96
L 156.72 146.61
C 165.52 146.41 173.18 146.71 173.73 147.25
C 174.84 148.37 167.98 336.55 166.75 338.53
C 165.71 340.22 128.11 340.25 127.07 338.56"/>
<path fill="#ddb136" stroke="none" d="
M 226.19 338.25
C 225.87 337.39 225.74 294.00 225.92 241.83
L 226.24 146.96
L 242.36 146.96
L 258.47 146.96
L 259.36 163.08
C 260.94 191.61 265.28 337.58 264.57 338.71
C 263.45 340.52 226.88 340.08 226.19 338.25"/>
<path fill="#ddb136" stroke="none" d="
M 316.77 338.25
C 315.45 334.19 313.66 322.04 312.99 312.52
C 312.58 306.71 311.33 293.33 310.19 282.75
C 308.55 267.44 308.19 253.08 308.43 212.06
C 308.59 183.76 309.14 157.54 309.63 153.78
L 310.54 146.96
L 330.99 146.96
L 351.45 146.96
L 351.02 184.78
C 350.62 222.58 350.62 222.64 356.52 279.11
C 359.76 310.18 362.07 336.56 361.62 337.70
C 360.92 339.56 358.33 339.80 339.05 339.80
C 322.72 339.80 317.14 339.41 316.77 338.25"/>
<path fill="#ddb136" stroke="none" d="
M 44.19 97.03
C 43.85 96.47 41.89 90.38 39.84 83.49
C 35.63 69.27 32.76 63.17 21.53 44.43
C 17.17 37.17 11.86 27.49 9.74 22.96
C 3.09 8.72 6.74 6.23 34.25 6.21
C 45.77 6.20 50.90 6.66 51.81 7.75
C 53.68 10.01 62.34 32.24 66.67 45.89
C 71.75 61.91 77.10 87.01 76.62 92.69
L 76.24 97.35
L 60.53 97.70
C 51.89 97.88 44.54 97.59 44.19 97.03"/>
<path fill="#ddb136" stroke="none" d="
M 131.02 97.18
C 130.55 96.71 130.17 90.12 130.17 82.54
C 130.17 73.08 128.81 59.84 125.84 40.28
C 123.47 24.60 121.51 10.53 121.50 8.99
L 121.49 6.20
L 143.73 6.20
C 157.71 6.20 166.26 6.67 166.76 7.48
C 167.39 8.51 172.34 67.39 173.83 91.77
L 174.17 97.35
L 153.02 97.69
C 141.40 97.87 131.49 97.65 131.02 97.18"/>
<path fill="#ddb136" stroke="none" d="
M 226.19 96.41
C 225.86 95.55 225.73 75.05 225.92 50.83
L 226.24 6.82
L 247.85 6.49
C 259.72 6.29 269.86 6.57 270.37 7.11
C 271.41 8.17 265.93 94.70 264.69 96.69
C 263.48 98.67 226.95 98.41 226.19 96.41"/>
<path fill="#ddb136" stroke="none" d="
M 319.24 96.77
C 317.47 93.90 324.21 58.82 330.69 37.20
C 332.43 31.40 335.03 22.20 336.48 16.74
L 339.11 6.82
L 362.48 6.49
L 385.86 6.14
L 385.07 10.12
C 384.63 12.30 382.05 18.92 379.34 24.82
C 376.62 30.71 372.21 42.19 369.55 50.33
C 365.26 63.43 363.35 71.49 359.79 91.77
L 358.81 97.35
L 339.41 97.70
C 327.22 97.91 319.74 97.56 319.24 96.77"/>
<path fill="#c57a36" stroke="none" d="
M 73.86 338.73
C 73.49 338.11 75.15 324.29 77.57 308.00
C 87.24 243.03 89.10 224.30 91.49 167.42
L 92.36 146.96
L 112.81 146.96
L 133.26 146.96
L 133.65 171.14
C 134.10 199.55 132.19 247.26 129.51 274.22
C 127.60 293.49 122.43 328.61 120.50 335.46
L 119.45 339.18
L 97.00 339.51
C 84.47 339.70 74.26 339.35 73.86 338.73"/>
<path fill="#c57a36" stroke="none" d="
M 174.35 338.84
C 173.28 337.12 180.77 148.54 181.95 147.37
C 182.55 146.76 191.10 146.42 200.93 146.61
L 218.80 146.96
L 218.80 243.07
L 218.80 339.18
L 196.88 339.51
C 184.83 339.70 174.69 339.40 174.35 338.84"/>
<path fill="#c57a36" stroke="none" d="
M 272.27 338.82
C 271.67 337.85 266.88 198.55 266.21 162.46
L 265.91 146.96
L 284.50 146.96
L 303.09 146.96
L 302.48 174.24
C 301.51 217.21 302.00 262.19 303.61 278.41
C 304.43 286.60 305.90 302.51 306.90 313.76
C 307.90 325.00 308.85 335.33 309.00 336.70
C 309.29 339.07 308.47 339.19 291.11 339.53
C 281.10 339.71 272.63 339.39 272.27 338.82"/>
<path fill="#c57a36" stroke="none" d="
M 369.93 338.39
C 369.45 337.60 366.33 311.51 363.01 280.41
L 356.96 223.85
L 357.92 185.40
L 358.88 146.96
L 375.62 146.96
L 392.36 146.96
L 393.82 171.76
C 396.20 211.88 403.24 265.84 410.33 298.25
C 413.59 313.17 413.54 322.64 410.16 329.63
C 406.26 337.67 400.95 339.74 384.06 339.77
C 375.45 339.79 370.50 339.30 369.93 338.39"/>
<path fill="#c57a36" stroke="none" d="
M 85.13 97.08
C 84.81 96.55 84.15 93.32 83.67 89.91
C 80.58 67.90 72.63 38.42 64.40 18.44
C 62.34 13.47 60.95 8.69 61.29 7.80
C 61.76 6.56 67.67 6.20 87.38 6.20
C 112.65 6.20 112.87 6.23 114.00 8.99
C 114.63 10.53 117.15 25.26 119.60 41.74
C 122.99 64.56 123.97 74.77 123.71 84.53
L 123.35 97.35
L 104.53 97.70
C 94.19 97.88 85.45 97.60 85.13 97.08"/>
<path fill="#c57a36" stroke="none" d="
M 181.79 97.00
C 180.06 94.23 173.29 8.54 174.68 7.11
C 175.19 6.57 185.32 6.29 197.19 6.49
L 218.80 6.82
L 218.80 52.09
L 218.80 97.35
L 200.62 97.70
C 190.60 97.88 182.13 97.57 181.79 97.00"/>
<path fill="#c57a36" stroke="none" d="
M 272.29 97.03
C 271.49 95.74 277.29 9.08 278.28 7.48
C 278.79 6.67 288.56 6.20 305.03 6.20
L 330.99 6.20
L 330.99 9.14
C 330.99 10.76 329.05 18.43 326.67 26.19
C 320.91 44.91 315.31 69.78 313.56 84.33
C 312.78 90.80 311.89 96.53 311.58 97.04
C 310.83 98.27 273.05 98.26 272.29 97.03"/>
<path fill="#c57a36" stroke="none" d="
M 366.43 96.92
C 363.76 92.56 376.97 45.28 385.55 28.52
C 387.12 25.45 389.58 19.32 391.00 14.88
L 393.60 6.82
L 407.80 6.47
C 423.77 6.08 428.10 7.21 430.85 12.53
C 432.56 15.84 432.33 16.67 426.35 29.39
C 417.30 48.59 401.70 85.17 399.62 92.08
L 397.83 97.97
L 382.46 97.97
C 374.01 97.97 366.79 97.50 366.43 96.92"/>
<path fill="#e7e5aa" stroke="none" d="
M 567.73 327.61
C 561.05 320.66 560.33 318.11 560.33 301.42
C 560.33 285.32 557.47 269.57 550.75 248.65
C 544.00 227.69 538.14 215.67 528.20 202.48
C 508.51 176.34 477.57 156.53 442.35 147.52
C 415.23 140.57 428.13 141.02 229.34 140.24
L 45.25 139.52
L 45.25 122.15
L 45.25 104.79
L 220.66 104.38
C 407.45 103.96 413.75 104.11 441.32 109.91
C 462.60 114.39 474.73 118.43 489.43 125.94
C 506.19 134.49 517.10 142.57 531.20 156.84
C 559.09 185.09 578.43 223.47 589.62 272.83
C 594.35 293.60 594.68 315.28 590.43 323.26
C 586.92 329.80 582.11 333.60 577.29 333.60
C 574.40 333.60 572.16 332.20 567.73 327.61"/>
</g>
</svg>
