<?xml version="1.0" encoding="UTF-8" standalone="no"?>
<!DOCTYPE svg PUBLIC "-//W3C//DTD SVG 1.1//EN"
"http://www.w3.org/Graphics/SVG/1.1/DTD/svg11.dtd">
<svg width="600px" height="145px"
xmlns="http://www.w3.org/2000/svg" version="1.1">
<g transform="translate(0000, 0000) scale(1.0000, 1.0000)">
<path fill="#000000" stroke="none" d="
M 111.69 142.82
C 109.19 141.73 83.01 126.99 53.52 110.06
C 15.57 88.27 0.00 78.68 0.27 77.27
C 0.70 75.00 107.26 13.21 115.40 10.52
C 120.01 8.97 121.06 9.03 123.95 10.93
C 132.65 16.67 128.22 27.51 108.99 47.60
C 100.27 56.69 96.40 61.59 97.58 62.05
C 98.56 62.42 203.48 62.57 330.75 62.39
L 562.14 62.05
L 565.82 59.36
C 567.83 57.87 570.55 54.50 571.86 51.85
C 574.74 46.02 573.36 40.23 567.83 34.90
C 561.82 29.12 555.90 27.43 541.53 27.43
C 527.00 27.43 522.27 25.88 519.73 20.29
C 516.13 12.33 519.31 3.74 526.77 1.25
C 534.31 -1.24 560.00 0.27 568.97 3.75
C 585.01 9.98 595.44 20.67 598.79 34.33
C 600.99 43.25 599.77 59.35 596.30 67.17
C 592.21 76.43 585.13 84.50 577.84 88.21
L 571.52 91.44
L 334.03 91.44
C 203.40 91.44 96.16 91.82 95.69 92.29
C 95.23 92.76 100.68 99.21 107.79 106.65
C 120.26 119.68 127.27 130.19 127.27 135.87
C 127.27 139.25 121.69 145.04 118.57 144.90
C 117.29 144.83 114.18 143.90 111.69 142.82
M 118.81 135.90
C 120.32 133.43 115.08 125.90 103.27 113.65
C 96.70 106.83 90.35 99.79 89.17 98.01
C 86.29 93.69 86.45 89.39 89.61 86.22
C 92.19 83.62 93.94 83.60 329.56 83.60
C 481.21 83.60 568.51 83.15 571.35 82.32
C 577.62 80.51 584.10 73.83 588.47 64.66
C 595.88 49.12 592.70 30.14 580.90 19.42
C 572.94 12.20 562.83 8.83 547.10 8.14
C 539.79 7.81 532.35 7.92 530.58 8.36
C 526.14 9.48 524.26 13.30 526.57 16.47
C 528.10 18.59 530.66 19.05 544.55 19.65
C 559.66 20.30 561.17 20.60 567.03 24.25
C 581.16 33.04 585.35 47.34 577.22 58.99
C 575.05 62.10 570.96 65.96 568.13 67.58
L 562.99 70.50
L 328.25 70.51
C 95.22 70.54 93.49 70.53 90.91 67.93
C 87.75 64.75 87.58 60.46 90.47 56.13
C 91.65 54.36 98.00 47.33 104.57 40.50
C 116.83 27.77 121.95 20.25 119.82 18.11
C 118.75 17.03 20.43 72.16 15.84 76.39
C 14.51 77.63 24.70 84.05 65.19 107.43
C 93.26 123.65 116.64 136.97 117.13 137.04
C 117.62 137.11 118.38 136.59 118.81 135.90"/>
<path fill="#c57a36" stroke="none" d="
M 65.19 107.43
C 24.70 84.05 14.51 77.63 15.84 76.39
C 20.43 72.16 118.75 17.03 119.82 18.11
C 121.95 20.25 116.83 27.77 104.57 40.50
C 98.00 47.33 91.65 54.36 90.47 56.13
C 87.58 60.46 87.75 64.75 90.91 67.93
C 93.49 70.53 95.22 70.54 328.25 70.51
L 562.99 70.50
L 568.13 67.58
C 570.96 65.96 575.05 62.10 577.22 58.99
C 585.35 47.34 581.16 33.04 567.03 24.25
C 561.17 20.60 559.66 20.30 544.55 19.65
C 530.66 19.05 528.10 18.59 526.57 16.47
C 524.00 12.95 526.30 9.44 531.88 8.40
C 534.39 7.92 541.84 7.80 548.42 8.14
C 576.61 9.58 592.17 23.40 592.19 47.03
C 592.21 55.15 591.57 58.17 588.47 64.66
C 584.10 73.83 577.62 80.51 571.35 82.32
C 568.51 83.15 481.21 83.60 329.56 83.60
C 93.94 83.60 92.19 83.62 89.61 86.22
C 86.45 89.39 86.29 93.69 89.17 98.01
C 90.35 99.79 96.70 106.83 103.27 113.65
C 115.08 125.90 120.32 133.43 118.81 135.90
C 118.38 136.59 117.62 137.11 117.13 137.04
C 116.64 136.97 93.26 123.65 65.19 107.43"/>
</g>
</svg>
