<?xml version="1.0" encoding="UTF-8" standalone="no"?>
<!DOCTYPE svg PUBLIC "-//W3C//DTD SVG 1.1//EN"
"http://www.w3.org/Graphics/SVG/1.1/DTD/svg11.dtd">
<svg width="110px" height="600px"
xmlns="http://www.w3.org/2000/svg" version="1.1">
<g transform="translate(0000, 0000) scale(1.0000, 1.0000)">
<path fill="#000000" stroke="none" d="
M 32.35 597.43
C 29.82 594.91 29.76 593.15 29.76 498.55
L 29.76 402.26
L 16.90 398.31
C 7.23 395.34 3.83 393.73 3.21 391.80
C 2.73 390.27 7.17 372.04 14.13 346.96
C 20.60 323.72 25.88 304.15 25.88 303.48
C 25.88 302.80 23.54 301.89 20.69 301.43
C 17.30 300.90 13.67 298.97 10.25 295.89
C 2.74 289.17 0.00 283.13 0.00 273.33
C 0.00 258.04 8.89 246.37 23.33 242.69
L 29.76 241.05
L 29.76 123.34
C 29.76 23.76 30.05 5.24 31.60 3.13
C 33.32 0.78 35.52 0.62 69.07 0.27
C 103.50 -0.10 104.80 -0.03 107.36 2.52
L 110.00 5.14
L 110.00 300.00
C 110.00 593.15 109.99 594.87 107.41 597.43
C 104.95 599.87 103.10 600.00 69.88 600.00
C 36.66 600.00 34.81 599.87 32.35 597.43
M 100.68 590.75
C 101.87 589.57 102.24 555.71 102.24 446.21
L 102.24 303.21
L 69.88 303.21
L 37.53 303.21
L 37.53 446.21
C 37.53 555.71 37.89 589.57 39.08 590.75
C 41.28 592.93 98.48 592.93 100.68 590.75
M 29.66 357.49
L 29.56 321.84
L 21.26 352.03
C 16.69 368.65 12.81 383.63 12.63 385.35
C 12.33 388.10 13.15 388.74 19.41 390.68
C 23.32 391.90 27.25 392.96 28.15 393.02
C 29.40 393.12 29.74 385.27 29.66 357.49
M 102.24 291.01
L 102.24 287.79
L 62.40 287.79
C 18.82 287.79 18.91 287.81 14.87 280.07
C 10.53 271.75 14.52 262.18 24.23 257.60
C 28.20 255.73 29.69 254.25 29.71 252.14
C 29.78 248.65 28.17 248.57 21.22 251.69
C 14.87 254.56 10.79 260.60 8.83 270.04
C 6.99 278.93 9.34 284.84 16.91 290.29
L 22.39 294.22
L 62.31 294.22
L 102.24 294.22
L 102.24 291.01
M 29.51 271.14
C 29.84 264.10 29.62 263.16 27.78 263.86
C 26.62 264.31 25.44 264.67 25.16 264.67
C 24.39 264.67 20.71 272.06 20.71 273.60
C 20.71 275.69 25.87 280.30 27.58 279.74
C 28.50 279.44 29.27 275.95 29.51 271.14
M 102.24 145.44
C 102.24 42.42 101.87 10.43 100.68 9.25
C 98.48 7.07 41.28 7.07 39.08 9.25
C 37.89 10.43 37.53 42.42 37.53 145.44
L 37.53 280.09
L 69.88 280.09
L 102.24 280.09
L 102.24 145.44"/>
<path fill="#ecc278" stroke="none" d="
M 39.08 590.75
C 37.89 589.57 37.53 555.71 37.53 446.21
L 37.53 303.21
L 69.88 303.21
L 102.24 303.21
L 102.24 446.21
C 102.24 555.71 101.87 589.57 100.68 590.75
C 98.48 592.93 41.28 592.93 39.08 590.75"/>
<path fill="#ecc278" stroke="none" d="
M 37.53 145.23
C 37.53 13.21 37.58 10.34 40.03 9.04
C 43.74 7.07 98.68 7.26 100.68 9.25
C 101.87 10.43 102.24 42.42 102.24 145.44
L 102.24 280.09
L 69.88 280.09
L 37.53 280.09
L 37.53 145.23"/>
<path fill="#ed715d" stroke="none" d="
M 19.41 390.68
C 13.15 388.74 12.33 388.10 12.63 385.35
C 12.81 383.63 16.69 368.65 21.26 352.03
L 29.56 321.84
L 29.66 357.49
C 29.74 385.27 29.40 393.12 28.15 393.02
C 27.25 392.96 23.32 391.90 19.41 390.68"/>
<path fill="#ed715d" stroke="none" d="
M 16.91 290.29
C 9.34 284.84 6.99 278.93 8.83 270.04
C 11.30 258.21 16.34 252.40 26.21 250.05
C 29.30 249.31 29.76 249.58 29.71 252.12
C 29.69 254.26 28.22 255.71 24.23 257.60
C 14.52 262.18 10.53 271.75 14.87 280.07
C 18.91 287.81 18.82 287.79 62.40 287.79
L 102.24 287.79
L 102.24 291.01
L 102.24 294.22
L 62.31 294.22
L 22.39 294.22
L 16.91 290.29"/>
</g>
</svg>
