<?xml version="1.0" encoding="UTF-8" standalone="no"?>
<!DOCTYPE svg PUBLIC "-//W3C//DTD SVG 1.1//EN"
"http://www.w3.org/Graphics/SVG/1.1/DTD/svg11.dtd">
<svg width="110px" height="600px"
xmlns="http://www.w3.org/2000/svg" version="1.1">
<g transform="translate(0000, 0000) scale(1.0000, 1.0000)">
<path fill="#000000" stroke="none" d="
M 2.59 597.42
C 0.01 594.86 0.00 593.14 0.00 335.34
C 0.00 112.47 0.26 75.35 1.85 72.36
C 4.50 67.40 71.25 1.70 74.66 0.71
C 76.72 0.10 77.87 0.58 78.86 2.43
C 79.80 4.17 80.24 42.15 80.24 122.64
L 80.24 240.28
L 86.67 241.92
C 101.11 245.61 110.00 257.30 110.00 272.63
C 110.00 282.45 107.26 288.50 99.75 295.24
C 96.33 298.33 92.70 300.26 89.31 300.79
C 86.46 301.25 84.12 302.16 84.12 302.85
C 84.12 303.52 89.40 323.12 95.87 346.42
C 102.83 371.55 107.27 389.82 106.79 391.35
C 106.17 393.28 102.77 394.91 93.10 397.88
L 80.24 401.83
L 80.24 498.33
C 80.24 593.14 80.18 594.90 77.65 597.42
C 75.19 599.87 73.34 600.00 40.12 600.00
C 6.90 600.00 5.05 599.87 2.59 597.42
M 70.92 590.73
C 72.11 589.55 72.47 555.62 72.47 445.88
L 72.47 302.58
L 40.12 302.58
L 7.76 302.58
L 7.76 445.88
C 7.76 555.62 8.13 589.55 9.32 590.73
C 11.52 592.92 68.72 592.92 70.92 590.73
M 89.94 390.33
C 96.84 388.25 97.67 387.64 97.37 384.88
C 97.19 383.16 93.31 368.15 88.74 351.50
L 80.44 321.24
L 80.34 356.97
C 80.29 376.62 80.68 392.69 81.21 392.69
C 81.74 392.68 85.67 391.61 89.94 390.33
M 93.09 289.62
C 100.66 284.16 103.01 278.24 101.17 269.33
C 99.21 259.87 95.13 253.82 88.78 250.94
C 81.83 247.82 80.22 247.89 80.29 251.39
C 80.31 253.51 81.80 254.99 85.77 256.87
C 95.48 261.45 99.47 271.04 95.13 279.39
C 91.09 287.14 91.18 287.12 47.60 287.12
L 7.76 287.12
L 7.76 290.34
L 7.76 293.56
L 47.69 293.56
L 87.61 293.56
L 93.09 289.62
M 72.47 145.83
L 72.47 12.26
L 41.97 42.50
C 25.20 59.14 10.64 74.32 9.62 76.22
C 8.05 79.16 7.76 95.33 7.76 179.55
L 7.76 279.40
L 40.12 279.40
L 72.47 279.40
L 72.47 145.83
M 86.71 276.82
C 89.80 273.75 89.88 272.68 87.40 267.90
C 85.81 264.84 83.06 262.66 80.78 262.66
C 79.87 262.66 80.17 277.62 81.10 278.54
C 82.54 279.97 83.99 279.53 86.71 276.82"/>
<path fill="#ecc278" stroke="none" d="
M 9.32 590.73
C 8.13 589.55 7.76 555.62 7.76 445.88
L 7.76 302.58
L 40.12 302.58
L 72.47 302.58
L 72.47 445.88
C 72.47 555.62 72.11 589.55 70.92 590.73
C 68.72 592.92 11.52 592.92 9.32 590.73"/>
<path fill="#ecc278" stroke="none" d="
M 7.76 179.52
C 7.76 109.13 8.19 78.82 9.20 76.84
C 10.81 73.69 69.96 14.16 71.49 14.16
C 72.03 14.16 72.47 73.84 72.47 146.78
L 72.47 279.40
L 40.12 279.40
L 7.76 279.40
L 7.76 179.52"/>
<path fill="#ed715d" stroke="none" d="
M 80.34 356.97
L 80.44 321.24
L 88.74 351.50
C 93.31 368.15 97.19 383.16 97.37 384.88
C 97.67 387.64 96.84 388.25 89.94 390.33
C 85.67 391.61 81.74 392.68 81.21 392.69
C 80.68 392.69 80.29 376.62 80.34 356.97"/>
<path fill="#ed715d" stroke="none" d="
M 7.76 290.34
L 7.76 287.12
L 47.60 287.12
C 91.18 287.12 91.09 287.14 95.13 279.39
C 99.47 271.04 95.48 261.45 85.77 256.87
C 80.57 254.41 78.64 250.92 81.52 249.15
C 82.22 248.72 85.33 249.48 88.43 250.84
C 95.13 253.79 99.16 259.62 101.17 269.33
C 103.01 278.24 100.66 284.16 93.09 289.62
L 87.61 293.56
L 47.69 293.56
L 7.76 293.56
L 7.76 290.34"/>
</g>
</svg>
