<?xml version="1.0" encoding="UTF-8" standalone="no"?>
<!DOCTYPE svg PUBLIC "-//W3C//DTD SVG 1.1//EN"
"http://www.w3.org/Graphics/SVG/1.1/DTD/svg11.dtd">
<svg width="177px" height="600px"
xmlns="http://www.w3.org/2000/svg" version="1.1">
<g transform="translate(0000, 0000) scale(1.0000, 1.0000)">
<path fill="#000000" stroke="none" d="
M 2.58 597.42
C -5.49 589.38 5.80 555.00 22.31 537.36
C 31.64 527.41 40.00 521.72 51.36 517.60
L 59.43 514.67
L 59.43 401.63
C 59.43 335.63 58.94 287.28 58.24 285.45
C 56.72 281.47 54.93 280.80 40.32 278.72
C 26.64 276.76 19.22 273.64 12.27 266.91
C -0.84 254.23 -3.51 230.01 6.20 212.03
C 12.56 200.27 22.17 194.97 41.85 192.39
C 48.88 191.46 55.27 190.07 56.06 189.28
C 57.05 188.29 57.73 167.50 58.25 121.93
C 59.08 49.35 59.31 47.09 67.43 31.92
C 79.74 8.90 111.41 -4.44 139.79 1.42
C 148.11 3.13 163.67 10.33 169.33 15.06
C 179.73 23.79 179.30 38.97 168.55 42.50
C 162.65 44.45 158.93 43.48 148.58 37.34
C 137.96 31.03 134.44 30.19 126.88 32.24
C 112.21 36.21 100.40 44.85 94.53 55.93
L 91.08 62.45
L 90.75 288.53
L 90.41 514.61
L 95.92 516.24
C 114.04 521.65 130.59 535.71 138.74 552.61
C 147.01 569.76 149.98 592.16 144.70 597.42
C 142.18 599.94 140.40 600.00 73.64 600.00
C 6.89 600.00 5.10 599.94 2.58 597.42
M 136.95 590.99
C 140.00 587.95 140.13 584.37 137.66 572.76
C 131.04 541.64 106.63 521.46 75.58 521.46
C 44.37 521.46 18.45 543.13 9.78 576.48
C 7.17 586.52 7.22 587.88 10.34 590.99
C 12.84 593.48 14.64 593.56 73.64 593.56
C 132.65 593.56 134.44 593.48 136.95 590.99
M 84.29 286.16
L 84.62 58.58
L 89.06 50.43
C 95.99 37.67 107.39 29.59 123.82 25.76
C 135.33 23.07 144.11 25.20 158.54 34.17
L 163.99 37.55
L 167.26 34.29
C 169.07 32.48 170.54 30.41 170.54 29.68
C 170.54 26.39 160.71 17.95 151.77 13.55
C 139.29 7.39 128.19 5.42 116.90 7.35
C 98.19 10.55 80.04 23.52 72.25 39.28
C 65.36 53.23 64.69 61.09 64.64 128.97
C 64.62 162.73 64.24 191.28 63.80 192.42
C 62.52 195.73 58.82 197.03 46.81 198.40
C 29.17 200.39 17.12 206.97 11.65 217.60
C 7.82 225.06 6.16 235.64 7.73 242.61
C 11.73 260.38 22.62 269.21 44.55 272.47
C 58.76 274.58 62.54 276.05 64.43 280.18
C 65.48 282.49 65.89 315.70 65.89 398.56
L 65.89 513.73
L 74.92 513.73
L 83.94 513.73
L 84.29 286.16"/>
<path fill="#000000" stroke="none" d="
M 34.88 262.56
C 22.54 256.98 16.25 247.47 16.24 234.33
C 16.23 216.76 28.69 205.38 49.68 203.79
C 58.09 203.16 59.38 203.38 61.85 205.84
C 64.47 208.45 64.60 209.76 64.60 234.33
C 64.60 265.66 64.79 265.25 50.06 265.21
C 43.45 265.18 38.99 264.41 34.88 262.56
M 55.55 254.94
C 57.89 252.61 58.14 250.65 58.14 234.33
C 58.14 217.69 57.93 216.10 55.40 213.58
C 53.14 211.33 51.68 210.98 47.00 211.62
C 27.20 214.33 17.54 232.03 27.62 247.21
C 33.66 256.30 49.73 260.74 55.55 254.94"/>
<path fill="#09b109" stroke="none" d="
M 65.89 398.56
C 65.89 315.70 65.48 282.49 64.43 280.18
C 62.54 276.05 58.76 274.58 44.55 272.47
C 22.62 269.21 11.73 260.38 7.73 242.61
C 6.16 235.64 7.82 225.06 11.65 217.60
C 17.12 206.97 29.17 200.39 46.81 198.40
C 58.82 197.03 62.52 195.73 63.80 192.42
C 64.24 191.28 64.62 162.73 64.64 128.97
C 64.69 61.09 65.36 53.23 72.25 39.28
C 82.96 17.60 111.24 3.13 134.47 7.44
C 145.02 9.40 160.39 17.14 165.99 23.32
C 168.50 26.07 170.54 28.93 170.54 29.68
C 170.54 30.41 169.07 32.48 167.26 34.29
L 163.99 37.55
L 158.54 34.17
C 144.11 25.20 135.33 23.07 123.82 25.76
C 107.39 29.59 95.99 37.67 89.06 50.43
L 84.62 58.58
L 84.29 286.16
L 83.94 513.73
L 74.92 513.73
L 65.89 513.73
L 65.89 398.56
M 62.01 262.66
C 64.43 260.25 64.60 258.37 64.60 234.33
C 64.60 209.76 64.47 208.45 61.85 205.84
C 59.38 203.38 58.09 203.16 49.68 203.79
C 28.69 205.38 16.23 216.76 16.24 234.33
C 16.25 252.95 29.61 265.15 50.06 265.21
C 57.74 265.24 59.90 264.77 62.01 262.66"/>
<path fill="#c57a36" stroke="none" d="
M 10.34 590.99
C 7.22 587.88 7.17 586.52 9.78 576.48
C 15.97 552.70 32.58 532.91 52.84 525.18
C 63.95 520.94 82.44 520.35 94.02 523.85
C 116.38 530.63 132.56 548.74 137.66 572.76
C 140.13 584.37 140.00 587.95 136.95 590.99
C 134.44 593.48 132.65 593.56 73.64 593.56
C 14.64 593.56 12.84 593.48 10.34 590.99"/>
</g>
</svg>
