<?xml version="1.0" encoding="UTF-8" standalone="no"?>
<!DOCTYPE svg PUBLIC "-//W3C//DTD SVG 1.1//EN"
"http://www.w3.org/Graphics/SVG/1.1/DTD/svg11.dtd">
<svg width="600px" height="600px"
xmlns="http://www.w3.org/2000/svg" version="1.1">
<g transform="translate(0000, 0000) scale(1.0000, 1.0000)">
<path fill="#000000" stroke="none" d="
M 250.84 597.20
C 191.57 588.66 130.01 557.75 86.77 514.79
C 19.99 448.44 -10.87 353.32 2.70 255.71
C 11.37 193.49 41.45 133.11 86.02 88.54
C 134.50 40.06 192.35 12.98 267.96 3.40
C 298.97 -0.53 302.97 -0.50 332.24 3.53
C 406.46 13.82 463.26 40.61 510.71 87.73
C 555.40 132.15 581.27 183.00 594.78 253.08
C 601.97 290.24 601.61 320.80 593.67 356.24
C 585.23 393.73 578.77 412.89 565.84 438.66
C 522.88 524.24 439.34 584.07 344.29 597.30
C 321.81 600.43 272.82 600.38 250.84 597.20
M 331.69 584.70
C 461.02 566.70 564.18 463.51 582.18 334.13
L 584.90 314.60
L 572.14 298.56
C 522.93 236.75 449.09 192.13 365.24 173.57
C 328.18 165.38 274.34 165.38 237.28 173.57
C 151.99 192.45 79.71 236.55 28.94 300.66
L 13.46 320.19
L 15.68 336.73
C 21.08 376.92 40.87 426.68 65.87 462.83
C 124.56 547.74 234.61 598.18 331.69 584.70
M 93.28 216.43
C 164.24 169.41 259.61 144.45 332.85 153.71
C 428.12 165.76 496.76 197.34 557.55 257.14
C 583.84 283.01 584.42 283.41 583.21 274.79
C 568.54 170.45 509.45 87.93 418.06 44.19
C 354.68 13.84 290.29 7.89 225.63 26.42
C 110.37 59.45 30.18 154.69 13.89 277.89
L 12.30 289.79
L 42.08 260.19
C 59.32 243.08 80.87 224.65 93.28 216.43"/>
<path fill="#f8f3f3" stroke="none" d="
M 13.89 277.89
C 27.91 171.88 87.03 88.41 179.42 44.19
C 258.00 6.55 339.48 6.55 418.06 44.19
C 509.45 87.93 568.54 170.45 583.21 274.79
C 584.42 283.41 583.84 283.01 557.55 257.14
C 496.76 197.34 428.12 165.76 332.85 153.71
C 275.87 146.50 194.82 162.25 134.87 192.15
C 100.13 209.50 73.29 229.18 42.08 260.19
L 12.30 289.79
L 13.89 277.89"/>
<path fill="#bfbdb7" stroke="none" d="
M 263.45 584.60
C 203.72 576.00 142.16 544.92 98.62 501.38
C 54.86 457.59 23.55 395.47 15.68 336.73
L 13.46 320.19
L 28.94 300.66
C 79.36 237.00 151.18 192.96 235.87 173.80
C 271.89 165.66 331.08 165.63 366.66 173.75
C 450.25 192.83 523.34 237.23 572.14 298.56
L 584.90 314.60
L 582.18 334.13
C 573.50 396.43 543.43 456.78 498.86 501.38
C 436.26 563.95 344.75 596.32 263.45 584.60"/>
</g>
</svg>
