<?xml version="1.0" encoding="UTF-8" standalone="no"?>
<!DOCTYPE svg PUBLIC "-//W3C//DTD SVG 1.1//EN"
"http://www.w3.org/Graphics/SVG/1.1/DTD/svg11.dtd">
<svg width="600px" height="227px"
xmlns="http://www.w3.org/2000/svg" version="1.1">
<g transform="translate(0000, 0000) scale(1.0000, 1.0000)">
<path fill="#000000" stroke="none" d="
M 2.80 223.90
C -0.13 220.97 -0.26 220.32 0.29 210.99
C 1.33 193.48 11.12 168.28 24.35 149.14
C 40.20 126.20 78.17 86.60 99.60 70.66
C 143.03 38.36 194.03 17.07 255.60 5.51
C 294.43 -1.77 305.29 -1.77 344.40 5.54
C 405.78 16.98 456.96 38.35 500.40 70.66
C 521.83 86.60 559.80 126.20 575.65 149.14
C 588.88 168.28 598.67 193.48 599.71 210.99
C 600.26 220.32 600.13 220.97 597.20 223.90
C 593.21 227.90 586.97 228.07 582.60 224.30
C 580.88 222.81 576.94 217.43 573.84 212.32
C 558.56 187.21 519.52 151.73 479.40 126.52
C 461.78 115.46 431.35 100.44 412.81 93.68
C 351.77 71.43 281.24 68.20 216.59 84.67
C 174.73 95.35 130.44 117.25 92.20 146.16
C 62.41 168.68 37.56 193.59 26.16 212.32
C 23.06 217.43 19.12 222.81 17.40 224.30
C 13.03 228.07 6.79 227.90 2.80 223.90
M 15.32 213.01
C 23.36 199.30 28.90 192.13 41.89 178.61
C 90.88 127.61 158.70 88.82 223.80 74.57
C 249.26 69.00 261.70 67.92 300.00 67.92
C 344.72 67.92 364.40 70.36 397.80 80.09
C 471.42 101.51 553.56 159.96 584.72 213.09
C 589.28 220.87 592.26 220.33 592.04 211.78
C 591.73 199.33 581.39 173.64 569.74 156.34
C 555.05 134.55 513.72 91.33 493.20 76.27
C 457.06 49.76 413.72 30.18 364.43 18.06
C 309.35 4.54 290.65 4.54 235.57 18.06
C 186.28 30.18 142.94 49.76 106.80 76.27
C 86.28 91.33 44.95 134.57 30.26 156.34
C 22.26 168.23 17.22 178.48 12.49 192.51
C 8.26 205.07 6.50 213.84 7.63 216.78
C 8.92 220.15 12.04 218.63 15.32 213.01"/>
<path fill="#f8f3f3" stroke="none" d="
M 7.63 216.78
C 6.50 213.84 8.26 205.07 12.49 192.51
C 17.22 178.48 22.26 168.23 30.26 156.34
C 44.95 134.57 86.28 91.33 106.80 76.27
C 142.94 49.76 186.28 30.18 235.57 18.06
C 290.52 4.56 309.48 4.56 364.43 18.06
C 413.72 30.18 457.06 49.76 493.20 76.27
C 513.72 91.33 555.05 134.55 569.74 156.34
C 581.39 173.64 591.73 199.33 592.04 211.78
C 592.26 220.33 589.28 220.87 584.72 213.09
C 576.62 199.28 571.12 192.16 558.11 178.61
C 509.12 127.61 441.30 88.82 376.20 74.57
C 350.74 69.00 338.30 67.92 300.00 67.92
C 255.28 67.92 235.60 70.36 202.20 80.09
C 128.64 101.49 46.42 159.97 15.32 213.01
C 12.04 218.63 8.92 220.15 7.63 216.78"/>
</g>
</svg>
