<?xml version="1.0" encoding="UTF-8" standalone="no"?>
<!DOCTYPE svg PUBLIC "-//W3C//DTD SVG 1.1//EN"
"http://www.w3.org/Graphics/SVG/1.1/DTD/svg11.dtd">
<svg width="600px" height="207px"
xmlns="http://www.w3.org/2000/svg" version="1.1">
<g transform="translate(0000, 0000) scale(1.0000, 1.0000)">
<path fill="#000000" stroke="none" d="
M 2.36 204.56
C -0.04 202.15 -0.06 201.10 0.26 119.41
L 0.60 36.71
L 3.85 29.75
C 8.40 20.01 18.66 9.62 28.55 4.72
C 35.82 1.12 37.66 0.72 47.48 0.66
C 57.91 0.60 58.79 0.81 68.57 5.67
C 86.18 14.42 92.05 21.33 121.20 67.62
C 130.69 82.69 144.30 96.89 153.66 101.49
C 179.65 114.22 202.74 103.10 229.73 64.86
C 256.75 26.56 262.84 19.46 275.94 10.96
C 293.21 -0.23 306.79 -0.23 324.06 10.96
C 337.16 19.46 343.25 26.56 370.27 64.86
C 397.26 103.10 420.35 114.22 446.34 101.49
C 455.70 96.89 469.31 82.69 478.80 67.62
C 507.95 21.33 513.82 14.42 531.43 5.67
C 541.18 0.83 542.11 0.60 552.52 0.63
C 562.43 0.66 564.12 1.02 571.45 4.68
C 581.35 9.63 591.62 20.05 596.15 29.75
L 599.40 36.71
L 599.74 119.41
C 600.06 201.10 600.04 202.15 597.64 204.56
C 595.20 207.00 594.89 207.00 300.00 207.00
C 5.11 207.00 4.80 207.00 2.36 204.56
M 591.49 198.11
C 592.50 196.88 592.78 175.59 592.54 117.17
L 592.20 37.91
L 588.88 31.12
C 584.99 23.19 577.62 15.96 568.61 11.23
C 563.17 8.38 560.75 7.87 552.60 7.85
C 544.21 7.82 541.96 8.32 534.67 11.78
C 523.84 16.92 509.60 31.34 500.47 46.39
C 471.10 94.87 457.50 108.45 433.48 113.30
C 424.39 115.14 416.20 113.75 405.11 108.52
C 389.76 101.27 378.91 89.91 356.47 57.61
C 332.84 23.59 316.92 10.23 300.00 10.23
C 283.08 10.23 267.16 23.59 243.53 57.61
C 221.09 89.91 210.24 101.27 194.89 108.52
C 183.80 113.75 175.61 115.14 166.52 113.30
C 142.50 108.45 128.90 94.87 99.53 46.39
C 90.40 31.34 76.16 16.92 65.33 11.78
C 58.04 8.32 55.79 7.82 47.40 7.85
C 39.25 7.87 36.83 8.38 31.39 11.23
C 22.38 15.96 15.01 23.19 11.12 31.12
L 7.80 37.91
L 7.46 117.17
C 7.22 175.59 7.50 196.88 8.51 198.11
C 10.58 200.61 589.42 200.61 591.49 198.11"/>
<path fill="#c57a36" stroke="none" d="
M 8.51 198.11
C 7.50 196.88 7.22 175.59 7.46 117.17
L 7.80 37.91
L 11.12 31.12
C 15.02 23.17 22.42 15.92 31.39 11.28
C 36.77 8.48 39.35 7.94 47.40 7.88
C 55.84 7.83 58.01 8.30 65.33 11.78
C 76.16 16.92 90.40 31.34 99.53 46.39
C 128.90 94.87 142.50 108.45 166.52 113.30
C 175.61 115.14 183.80 113.75 194.89 108.52
C 210.24 101.27 221.09 89.91 243.53 57.61
C 267.16 23.59 283.08 10.23 300.00 10.23
C 316.92 10.23 332.84 23.59 356.47 57.61
C 378.91 89.91 389.76 101.27 405.11 108.52
C 416.20 113.75 424.39 115.14 433.48 113.30
C 457.50 108.45 471.10 94.87 500.47 46.39
C 509.60 31.34 523.84 16.92 534.67 11.78
C 541.96 8.32 544.21 7.82 552.60 7.85
C 560.75 7.87 563.17 8.38 568.61 11.23
C 577.62 15.96 584.99 23.19 588.88 31.12
L 592.20 37.91
L 592.54 117.17
C 592.78 175.59 592.50 196.88 591.49 198.11
C 589.42 200.61 10.58 200.61 8.51 198.11"/>
</g>
</svg>
