<?xml version="1.0" encoding="UTF-8" standalone="no"?>
<!DOCTYPE svg PUBLIC "-//W3C//DTD SVG 1.1//EN"
"http://www.w3.org/Graphics/SVG/1.1/DTD/svg11.dtd">
<svg width="600px" height="302px"
xmlns="http://www.w3.org/2000/svg" version="1.1">
<g transform="translate(0000, 0000) scale(1.0000, 1.0000)">
<path fill="#000000" stroke="none" d="
M 2.54 299.46
C 0.04 296.96 0.00 295.24 0.00 165.68
L 0.00 34.45
L 4.50 25.78
C 12.77 9.87 23.12 2.44 39.67 0.52
C 51.83 -0.90 72.66 6.86 81.44 16.08
C 88.06 23.03 95.42 42.53 111.53 95.80
C 116.28 111.51 121.38 120.23 137.85 140.81
C 164.97 174.69 183.74 190.23 217.55 206.81
C 251.26 223.32 279.67 229.20 310.15 225.97
C 351.30 221.60 375.22 213.02 409.60 190.26
C 435.48 173.14 451.97 155.09 471.54 122.45
C 488.40 94.33 492.95 83.00 498.49 55.20
C 500.73 44.03 503.56 32.57 504.80 29.73
C 508.20 21.95 521.64 8.27 529.85 4.26
C 542.11 -1.74 561.97 -1.26 575.12 5.37
C 582.88 9.26 592.00 18.63 596.17 27.00
L 600.00 34.67
L 600.00 165.80
C 600.00 295.24 599.96 296.96 597.46 299.46
C 594.94 301.99 593.24 302.00 300.00 302.00
C 6.76 302.00 5.06 301.99 2.54 299.46
M 590.87 292.86
C 592.03 291.70 592.39 261.92 592.39 166.57
L 592.39 41.79
L 589.12 35.31
C 582.55 22.36 570.58 12.66 556.49 8.88
C 549.50 7.00 543.41 8.26 534.55 13.37
C 527.77 17.28 515.23 30.90 512.38 37.41
C 511.17 40.21 508.34 51.64 506.11 62.81
C 500.56 90.61 496.01 101.94 479.15 130.06
C 459.58 162.70 443.09 180.76 417.21 197.87
C 379.14 223.07 354.06 231.06 298.73 235.56
C 287.92 236.45 264.04 233.35 247.71 228.95
C 213.87 219.84 177.29 199.21 155.15 176.73
C 140.97 162.34 119.30 135.63 112.55 124.20
C 109.92 119.75 106.03 110.39 103.92 103.42
C 86.64 46.29 79.80 28.85 72.00 22.02
C 65.76 16.55 52.02 9.99 45.22 9.21
C 32.35 7.77 19.88 15.72 12.24 30.26
L 7.61 39.07
L 7.61 165.21
C 7.61 261.62 7.97 291.70 9.13 292.86
C 11.35 295.08 588.65 295.08 590.87 292.86"/>
<path fill="#c57a36" stroke="none" d="
M 9.13 292.86
C 7.97 291.70 7.61 261.62 7.61 165.21
L 7.61 39.07
L 12.24 30.26
C 19.88 15.72 32.35 7.77 45.22 9.21
C 52.02 9.99 65.76 16.55 72.00 22.02
C 79.80 28.85 86.64 46.29 103.92 103.42
C 106.03 110.39 109.92 119.75 112.55 124.20
C 119.30 135.63 140.97 162.34 155.15 176.73
C 177.29 199.21 213.87 219.84 247.71 228.95
C 264.04 233.35 287.92 236.45 298.73 235.56
C 354.06 231.06 379.14 223.07 417.21 197.87
C 443.09 180.76 459.58 162.70 479.15 130.06
C 496.01 101.94 500.56 90.61 506.11 62.81
C 508.34 51.64 511.17 40.21 512.38 37.41
C 515.21 30.92 527.76 17.31 534.55 13.35
C 537.41 11.69 542.37 9.67 545.58 8.86
C 559.86 5.30 580.16 17.66 589.14 35.38
L 592.39 41.79
L 592.39 166.57
C 592.39 261.92 592.03 291.70 590.87 292.86
C 588.65 295.08 11.35 295.08 9.13 292.86"/>
</g>
</svg>
