<?xml version="1.0" encoding="UTF-8" standalone="no"?>
<!DOCTYPE svg PUBLIC "-//W3C//DTD SVG 1.1//EN"
"http://www.w3.org/Graphics/SVG/1.1/DTD/svg11.dtd">
<svg width="733px" height="600px"
xmlns="http://www.w3.org/2000/svg" version="1.1">
<g transform="translate(0000, 0000) scale(1.0000, 1.0000)">
<path fill="#000000" stroke="none" d="
M 3.20 596.80
C 0.05 593.65 0.00 591.47 0.02 434.80
L 0.03 276.00
L 4.11 267.20
C 11.38 251.50 25.77 239.17 42.44 234.32
C 62.71 228.43 83.03 236.86 98.20 257.47
L 105.15 266.90
L 106.17 245.06
C 111.23 137.92 179.39 47.52 280.88 13.33
C 310.29 3.42 327.67 0.90 366.50 0.85
C 395.82 0.83 403.52 1.34 418.51 4.38
C 488.21 18.48 545.78 56.67 584.40 114.40
C 610.10 152.83 624.57 197.41 626.83 245.06
L 627.85 266.90
L 634.80 257.47
C 649.97 236.86 670.29 228.43 690.56 234.32
C 707.23 239.17 721.62 251.50 728.89 267.20
L 732.97 276.00
L 732.98 434.80
C 733.00 591.47 732.95 593.65 729.80 596.80
C 726.61 599.98 724.47 600.00 366.50 600.00
C 8.53 600.00 6.39 599.98 3.20 596.80
M 719.88 588.48
C 721.35 587.01 721.80 550.26 721.80 432.80
L 721.80 279.02
L 717.70 270.82
C 706.88 249.10 681.48 238.30 663.22 247.65
C 647.10 255.92 630.27 282.61 623.98 309.86
C 608.71 376.00 580.80 424.21 536.45 460.99
C 500.82 490.54 460.61 509.42 415.31 517.82
C 392.68 522.03 340.32 522.03 317.69 517.82
C 258.01 506.75 203.21 475.22 166.25 430.70
C 137.11 395.60 120.93 361.42 109.02 309.86
C 102.73 282.61 85.90 255.92 69.78 247.65
C 51.52 238.30 26.12 249.10 15.30 270.82
L 11.20 279.02
L 11.20 432.80
C 11.20 550.26 11.65 587.01 13.12 588.48
C 15.92 591.28 717.08 591.28 719.88 588.48
M 410.43 507.23
C 467.97 495.74 521.07 464.56 557.14 421.10
C 586.29 386.00 604.39 348.00 613.34 303.20
C 618.26 278.54 618.26 243.06 613.34 218.40
C 592.16 112.29 511.85 33.01 405.71 13.39
C 384.04 9.38 348.96 9.38 327.29 13.39
C 267.71 24.40 212.81 55.98 175.86 100.50
C 146.71 135.60 128.61 173.60 119.66 218.40
C 114.74 243.06 114.74 278.54 119.66 303.20
C 133.51 372.56 171.89 430.42 229.66 469.04
C 263.18 491.44 298.56 504.18 346.49 511.06
C 356.96 512.56 395.20 510.27 410.43 507.23"/>
<path fill="#ffbf53" stroke="none" d="
M 346.49 511.06
C 311.41 506.02 285.47 498.61 260.07 486.37
C 197.77 456.37 150.91 403.07 128.56 336.80
C 116.05 299.68 112.48 256.69 119.01 221.60
C 130.08 161.94 161.63 107.15 206.15 70.21
C 241.30 41.06 279.44 22.90 324.09 14.06
C 348.93 9.15 384.44 9.14 408.91 14.03
C 515.10 35.25 594.26 115.38 613.99 221.60
C 618.26 244.58 617.98 279.82 613.32 303.20
C 592.56 407.58 514.08 486.53 410.43 507.23
C 395.20 510.27 356.96 512.56 346.49 511.06"/>
<path fill="#c57a36" stroke="none" d="
M 13.12 588.48
C 11.65 587.01 11.20 550.26 11.20 432.80
L 11.20 279.02
L 15.30 270.82
C 26.09 249.18 51.57 238.35 69.78 247.66
C 85.88 255.90 102.73 282.61 109.02 309.86
C 110.83 317.63 114.83 332.26 117.94 342.35
C 145.86 433.09 222.12 500.08 317.69 517.82
C 340.32 522.03 392.68 522.03 415.31 517.82
C 485.51 504.80 545.28 465.68 584.40 407.20
C 602.29 380.43 614.76 349.79 623.98 309.86
C 630.27 282.61 647.10 255.92 663.22 247.65
C 681.48 238.30 706.88 249.10 717.70 270.82
L 721.80 279.02
L 721.80 432.80
C 721.80 550.26 721.35 587.01 719.88 588.48
C 717.08 591.28 15.92 591.28 13.12 588.48"/>
</g>
</svg>
