<?xml version="1.0" encoding="UTF-8" standalone="no"?>
<!DOCTYPE svg PUBLIC "-//W3C//DTD SVG 1.1//EN"
"http://www.w3.org/Graphics/SVG/1.1/DTD/svg11.dtd">
<svg width="600px" height="354px"
xmlns="http://www.w3.org/2000/svg" version="1.1">
<g transform="translate(0000, 0000) scale(1.0000, 1.0000)">
<path fill="#000000" stroke="none" d="
M 32.37 351.51
C 28.95 348.09 29.23 344.40 33.77 332.46
C 43.23 307.64 58.61 279.56 73.05 260.75
L 80.99 250.41
L 67.61 234.57
C 38.48 200.12 24.00 183.44 15.45 174.51
C 2.71 161.21 0.00 156.78 0.00 149.32
C 0.00 139.33 4.11 133.67 24.11 116.10
C 44.33 98.33 55.67 89.61 75.26 76.72
C 135.37 37.18 199.56 10.98 255.42 3.14
C 331.26 -7.48 415.10 11.41 493.68 56.80
C 524.20 74.44 544.99 90.22 580.38 122.60
C 604.29 144.48 605.68 152.26 588.83 170.14
C 584.96 174.26 571.51 189.40 558.93 203.80
C 546.36 218.20 531.77 234.46 526.52 239.95
C 513.14 253.93 513.17 253.82 519.35 261.24
C 536.64 282.00 565.15 334.82 565.15 346.10
C 565.15 347.71 564.02 350.14 562.66 351.51
C 560.18 353.99 558.51 354.00 297.51 354.00
C 36.51 354.00 34.84 353.99 32.37 351.51
M 556.00 344.63
C 556.80 342.51 541.32 311.36 530.93 294.19
C 524.53 283.62 522.15 280.22 510.83 265.38
C 504.40 256.92 478.59 231.73 468.67 224.22
C 427.43 192.94 382.98 174.32 331.74 166.85
C 315.00 164.41 275.25 164.76 257.05 167.51
C 216.07 173.71 172.80 189.09 143.96 207.71
C 113.05 227.68 82.01 259.53 64.97 288.78
C 53.04 309.25 37.76 342.91 39.26 345.36
C 39.70 346.07 139.79 346.52 297.62 346.52
C 527.19 346.52 555.35 346.31 556.00 344.63
M 550.82 198.81
C 561.65 186.47 574.58 172.08 579.56 166.82
C 584.55 161.57 589.49 155.60 590.54 153.55
C 592.37 150.00 592.31 149.63 588.86 144.88
C 584.56 138.94 556.78 113.18 540.96 100.45
C 463.46 38.15 360.15 1.86 279.25 8.51
C 230.66 12.50 189.41 25.19 134.44 53.05
C 89.12 76.02 54.02 100.29 22.10 130.73
C 10.78 141.53 6.92 147.12 8.14 150.97
C 8.61 152.46 13.32 158.22 18.60 163.77
C 27.54 173.17 76.12 229.56 83.65 239.27
L 86.99 243.59
L 99.82 231.13
C 128.90 202.93 158.27 185.81 201.16 172.06
C 256.03 154.49 315.12 152.51 370.33 166.39
C 417.77 178.31 462.66 203.14 495.27 235.48
L 506.84 246.96
L 518.99 234.10
C 525.66 227.03 539.99 211.15 550.82 198.81"/>
<path fill="#ffbf53" stroke="none" d="
M 495.27 235.48
C 476.13 216.50 451.48 199.25 425.15 186.41
C 347.84 148.70 255.10 147.50 171.29 183.08
C 145.02 194.23 121.68 209.92 99.82 231.13
L 86.99 243.59
L 83.65 239.27
C 76.12 229.56 27.54 173.17 18.60 163.77
C 13.32 158.22 8.61 152.46 8.14 150.97
C 6.92 147.12 10.78 141.53 22.10 130.73
C 54.02 100.29 89.12 76.02 134.44 53.05
C 189.77 25.00 231.11 12.35 279.87 8.53
C 316.88 5.62 361.02 11.82 403.94 25.96
C 452.12 41.83 501.26 68.56 540.96 100.45
C 556.78 113.18 584.56 138.94 588.86 144.88
C 592.31 149.63 592.37 150.00 590.54 153.55
C 589.49 155.60 584.55 161.57 579.56 166.82
C 574.58 172.08 561.65 186.47 550.82 198.81
C 539.99 211.15 525.66 227.03 518.99 234.10
L 506.84 246.96
L 495.27 235.48"/>
<path fill="#fd8383" stroke="none" d="
M 39.26 345.36
C 37.76 342.91 53.04 309.25 64.97 288.78
C 82.01 259.53 113.05 227.68 143.96 207.71
C 172.83 189.08 216.24 173.65 257.05 167.53
C 275.37 164.78 315.17 164.42 331.74 166.84
C 383.05 174.36 427.43 192.94 468.67 224.22
C 478.59 231.73 504.40 256.92 510.83 265.38
C 522.15 280.22 524.53 283.62 530.93 294.19
C 541.32 311.36 556.80 342.51 556.00 344.63
C 555.35 346.31 527.19 346.52 297.62 346.52
C 139.79 346.52 39.70 346.07 39.26 345.36"/>
</g>
</svg>
