<?xml version="1.0" encoding="UTF-8" standalone="no"?>
<!DOCTYPE svg PUBLIC "-//W3C//DTD SVG 1.1//EN"
"http://www.w3.org/Graphics/SVG/1.1/DTD/svg11.dtd">
<svg width="679px" height="200px"
xmlns="http://www.w3.org/2000/svg" version="1.1">
<g transform="translate(0000, 0000) scale(1.0000, 1.0000)">
<path fill="#000000" stroke="none" d="
M 75.13 195.84
C 55.71 190.83 42.42 183.37 29.12 170.08
C 15.86 156.83 7.21 139.74 2.63 117.76
C -0.63 102.14 -0.63 100.12 2.59 83.41
C 6.97 60.69 15.46 43.58 29.12 29.92
C 42.66 16.36 55.71 9.19 76.08 4.06
C 95.97 -0.95 104.09 -0.95 123.98 4.06
C 144.19 9.15 157.38 16.36 170.54 29.52
C 183.69 42.67 190.91 55.86 196.00 76.06
C 201.01 95.94 201.01 104.06 196.00 123.94
C 190.91 144.14 183.69 157.33 170.54 170.48
C 157.58 183.43 144.99 190.40 124.81 195.82
C 105.95 200.87 94.66 200.87 75.13 195.84
M 118.16 184.79
C 152.67 175.80 179.75 146.77 186.26 111.82
C 194.14 69.49 158.41 22.44 111.85 13.80
C 60.04 4.16 4.16 60.02 13.80 111.82
C 20.21 146.30 47.25 175.60 81.04 184.69
C 95.32 188.53 103.69 188.55 118.16 184.79"/>
<path fill="#000000" stroke="none" d="
M 313.59 195.84
C 294.17 190.83 280.88 183.37 267.58 170.08
C 254.32 156.83 245.67 139.74 241.09 117.76
C 237.83 102.14 237.83 100.12 241.05 83.41
C 245.43 60.69 253.92 43.58 267.58 29.92
C 280.92 16.59 293.36 9.64 313.71 4.18
C 333.07 -1.01 342.25 -1.03 362.44 4.06
C 382.64 9.15 395.84 16.36 409.00 29.52
C 422.15 42.67 429.37 55.86 434.46 76.06
C 439.47 95.94 439.47 104.06 434.46 123.94
C 429.37 144.14 422.15 157.33 409.00 170.48
C 396.04 183.43 383.45 190.40 363.26 195.82
C 344.41 200.87 333.11 200.87 313.59 195.84
M 356.62 184.79
C 391.13 175.80 418.21 146.77 424.72 111.82
C 432.60 69.49 396.87 22.44 350.31 13.80
C 298.50 4.16 242.62 60.02 252.26 111.82
C 258.67 146.30 285.71 175.60 319.49 184.69
C 333.78 188.53 342.15 188.55 356.62 184.79"/>
<path fill="#000000" stroke="none" d="
M 554.07 195.84
C 534.65 190.83 521.35 183.37 508.06 170.08
C 494.80 156.83 486.15 139.74 481.56 117.76
C 478.31 102.14 478.31 100.12 481.52 83.41
C 483.40 73.64 487.71 60.06 491.08 53.21
C 498.24 38.67 514.79 21.31 528.75 13.72
C 540.82 7.15 566.80 -0.02 578.42 0.04
C 590.77 0.08 617.08 7.13 628.90 13.56
C 641.86 20.61 658.39 37.13 665.44 50.08
C 671.79 61.72 678.94 88.20 678.94 100.00
C 678.94 111.80 671.79 138.28 665.44 149.92
C 658.45 162.77 641.90 179.37 629.19 186.28
C 616.52 193.19 590.81 200.04 578.50 199.82
C 573.21 199.74 562.22 197.94 554.07 195.84
M 597.10 184.79
C 631.61 175.80 658.69 146.77 665.20 111.82
C 673.08 69.49 637.35 22.44 590.79 13.80
C 538.98 4.16 483.10 60.02 492.74 111.82
C 499.15 146.30 526.18 175.60 559.97 184.69
C 574.26 188.53 582.63 188.55 597.10 184.79"/>
<path fill="#e4a825" stroke="none" d="
M 81.04 184.69
C 37.77 173.05 5.98 127.13 13.82 87.58
C 21.20 50.48 51.77 20.34 88.57 13.88
C 140.73 4.73 195.90 60.04 186.26 111.82
C 179.75 146.77 152.67 175.80 118.16 184.79
C 103.69 188.55 95.32 188.53 81.04 184.69"/>
<path fill="#e4a825" stroke="none" d="
M 319.49 184.69
C 285.71 175.60 258.67 146.30 252.26 111.82
C 242.62 60.02 298.50 4.16 350.31 13.80
C 396.87 22.44 432.60 69.49 424.72 111.82
C 418.21 146.77 391.13 175.80 356.62 184.79
C 342.15 188.55 333.78 188.53 319.49 184.69"/>
<path fill="#e4a825" stroke="none" d="
M 559.97 184.69
C 526.18 175.60 499.15 146.30 492.74 111.82
C 483.10 60.02 538.98 4.16 590.79 13.80
C 637.35 22.44 673.08 69.49 665.20 111.82
C 658.69 146.77 631.61 175.80 597.10 184.79
C 582.63 188.55 574.26 188.53 559.97 184.69"/>
</g>
</svg>
