<?xml version="1.0" encoding="UTF-8" standalone="no"?>
<!DOCTYPE svg PUBLIC "-//W3C//DTD SVG 1.1//EN"
"http://www.w3.org/Graphics/SVG/1.1/DTD/svg11.dtd">
<svg width="600px" height="091px"
xmlns="http://www.w3.org/2000/svg" version="1.1">
<g transform="translate(0000, 0000) scale(1.0000, 1.0000)">
<path fill="#000000" stroke="none" d="
M 1.96 89.79
C 0.88 89.16 0.00 88.03 0.00 87.29
C 0.00 85.20 84.00 1.45 86.97 0.56
C 89.26 -0.12 92.17 2.36 109.89 20.09
L 130.18 40.38
L 150.35 20.19
C 162.18 8.35 171.39 0.00 172.61 0.00
C 173.85 0.00 183.07 8.36 194.91 20.19
L 215.09 40.38
L 235.26 20.19
C 247.14 8.30 256.30 0.00 257.54 0.00
C 258.78 0.00 267.94 8.30 279.82 20.19
L 299.99 40.38
L 320.18 20.19
C 331.97 8.40 341.23 0.00 342.46 0.00
C 343.69 0.00 352.95 8.40 364.74 20.19
L 384.93 40.38
L 405.09 20.19
C 416.97 8.30 426.13 0.00 427.37 0.00
C 428.61 0.00 437.78 8.30 449.65 20.19
L 469.82 40.38
L 490.01 20.19
C 502.03 8.17 511.05 0.00 512.32 0.00
C 514.68 0.00 600.00 84.94 600.00 87.29
C 600.00 90.08 595.37 91.00 581.41 91.00
L 567.14 91.00
L 539.71 63.50
L 512.29 36.01
L 492.11 56.20
C 480.28 68.05 471.07 76.40 469.84 76.40
C 468.60 76.40 459.37 68.04 447.53 56.18
L 427.33 35.97
L 407.25 56.18
C 394.47 69.06 386.36 76.40 384.92 76.40
C 383.47 76.40 375.36 69.06 362.58 56.18
L 342.50 35.97
L 322.30 56.18
C 310.50 67.99 301.23 76.40 300.00 76.40
C 298.77 76.40 289.51 67.99 277.72 56.21
L 257.53 36.02
L 237.36 56.21
C 225.53 68.05 216.32 76.40 215.09 76.40
C 213.85 76.40 204.64 68.04 192.80 56.21
L 172.61 36.02
L 152.45 56.21
C 140.57 68.09 131.41 76.40 130.17 76.40
C 128.93 76.40 119.77 68.09 107.89 56.20
L 87.71 36.01
L 60.29 63.50
L 32.86 91.00
L 18.38 90.97
C 10.42 90.94 3.03 90.42 1.96 89.79
M 56.98 56.73
C 74.08 39.62 86.46 28.09 87.72 28.09
C 88.95 28.09 98.17 36.43 109.99 48.27
L 130.16 68.46
L 150.35 48.27
C 162.18 36.44 171.40 28.09 172.64 28.09
C 173.87 28.09 183.07 36.43 194.91 48.27
L 215.07 68.46
L 235.26 48.27
C 247.09 36.44 256.31 28.09 257.55 28.09
C 258.78 28.09 267.99 36.43 279.82 48.27
L 299.99 68.46
L 320.18 48.27
C 332.01 36.44 341.23 28.09 342.47 28.09
C 343.70 28.09 352.91 36.43 364.74 48.27
L 384.91 68.46
L 405.09 48.27
C 416.93 36.44 426.15 28.09 427.39 28.09
C 428.61 28.09 437.82 36.43 449.65 48.27
L 469.82 68.46
L 490.01 48.27
C 501.79 36.49 511.06 28.09 512.29 28.09
C 513.54 28.09 525.99 39.69 543.02 56.73
L 571.64 85.38
L 578.94 85.38
C 582.94 85.38 586.57 85.02 587.01 84.59
C 587.44 84.16 570.82 66.72 550.07 45.85
L 512.34 7.90
L 492.13 28.10
C 480.29 39.95 471.06 48.31 469.82 48.31
C 468.59 48.31 459.39 39.96 447.55 28.12
L 427.39 7.93
L 407.20 28.12
C 395.36 39.95 386.15 48.31 384.91 48.31
C 383.68 48.31 374.47 39.96 362.64 28.12
L 342.47 7.93
L 322.28 28.12
C 310.45 39.95 301.23 48.31 299.99 48.31
C 298.76 48.31 289.55 39.96 277.72 28.12
L 257.55 7.93
L 237.36 28.12
C 225.53 39.95 216.31 48.31 215.07 48.31
C 213.84 48.31 204.64 39.96 192.80 28.12
L 172.64 7.93
L 152.45 28.12
C 140.66 39.91 131.40 48.31 130.17 48.31
C 128.94 48.31 119.66 39.91 107.87 28.10
L 87.66 7.90
L 49.93 45.85
C 29.18 66.72 12.56 84.16 12.99 84.59
C 13.43 85.02 17.06 85.38 21.06 85.38
L 28.36 85.38
L 56.98 56.73"/>
<path fill="#0885ff" stroke="none" d="
M 12.99 84.59
C 12.12 83.71 85.93 8.99 87.66 8.99
C 88.26 8.99 97.60 17.83 108.41 28.65
C 119.87 40.10 128.95 48.31 130.17 48.31
C 131.40 48.31 140.67 39.89 152.45 28.12
L 172.64 7.93
L 192.80 28.12
C 204.64 39.96 213.84 48.31 215.07 48.31
C 216.31 48.31 225.53 39.95 237.36 28.12
L 257.55 7.93
L 277.72 28.12
C 289.55 39.96 298.76 48.31 299.99 48.31
C 301.23 48.31 310.45 39.95 322.28 28.12
L 342.47 7.93
L 362.64 28.12
C 374.47 39.96 383.68 48.31 384.91 48.31
C 386.15 48.31 395.36 39.95 407.20 28.12
L 427.39 7.93
L 447.55 28.12
C 459.39 39.96 468.59 48.31 469.82 48.31
C 471.06 48.31 480.29 39.95 492.13 28.10
L 512.34 7.90
L 550.07 45.85
C 570.82 66.72 587.44 84.16 587.01 84.59
C 586.57 85.02 582.94 85.38 578.94 85.38
L 571.64 85.38
L 543.02 56.73
C 525.99 39.69 513.54 28.09 512.29 28.09
C 511.06 28.09 501.79 36.49 490.01 48.27
L 469.82 68.46
L 449.65 48.27
C 437.82 36.43 428.61 28.09 427.39 28.09
C 426.15 28.09 416.93 36.44 405.09 48.27
L 384.91 68.46
L 364.74 48.27
C 352.91 36.43 343.70 28.09 342.47 28.09
C 341.23 28.09 332.01 36.44 320.18 48.27
L 299.99 68.46
L 279.82 48.27
C 267.99 36.43 258.78 28.09 257.55 28.09
C 256.31 28.09 247.09 36.44 235.26 48.27
L 215.07 68.46
L 194.91 48.27
C 183.07 36.43 173.87 28.09 172.64 28.09
C 171.40 28.09 162.18 36.44 150.35 48.27
L 130.16 68.46
L 109.99 48.27
C 98.17 36.43 88.95 28.09 87.72 28.09
C 86.46 28.09 74.08 39.62 56.98 56.73
L 28.36 85.38
L 21.06 85.38
C 17.06 85.38 13.43 85.02 12.99 84.59"/>
</g>
</svg>
