<?xml version="1.0" encoding="UTF-8" standalone="no"?>
<!DOCTYPE svg PUBLIC "-//W3C//DTD SVG 1.1//EN"
"http://www.w3.org/Graphics/SVG/1.1/DTD/svg11.dtd">
<svg width="600px" height="300px"
xmlns="http://www.w3.org/2000/svg" version="1.1">
<g transform="translate(0000, 0000) scale(1.0000, 1.0000)">
<path fill="#000000" stroke="none" d="
M 2.34 297.66
C 0.02 295.34 0.00 293.75 0.00 150.22
C 0.00 26.77 0.25 4.79 1.66 2.86
C 3.30 0.62 7.85 0.59 299.31 0.28
C 594.22 -0.01 595.31 0.00 597.64 2.33
C 599.98 4.66 600.00 6.11 600.00 150.00
C 600.00 293.75 599.98 295.34 597.66 297.66
C 595.32 299.99 593.75 300.00 300.00 300.00
C 6.25 300.00 4.68 299.99 2.34 297.66
M 591.56 291.56
C 593.60 289.52 593.60 10.48 591.56 8.44
C 589.51 6.39 10.49 6.39 8.44 8.44
C 6.40 10.48 6.40 289.52 8.44 291.56
C 10.49 293.61 589.51 293.61 591.56 291.56"/>
<path fill="#000000" stroke="none" d="
M 16.41 283.59
C 14.09 281.27 14.06 279.69 14.06 150.00
C 14.06 20.31 14.09 18.73 16.41 16.41
C 18.74 14.07 20.31 14.06 300.00 14.06
C 579.69 14.06 581.26 14.07 583.59 16.41
C 585.91 18.73 585.94 20.31 585.94 150.00
C 585.94 279.69 585.91 281.27 583.59 283.59
C 581.26 285.93 579.69 285.94 300.00 285.94
C 20.31 285.94 18.74 285.93 16.41 283.59
M 66.28 275.24
C 68.18 273.22 74.64 267.93 80.62 263.47
C 92.68 254.51 103.12 244.92 103.12 242.82
C 103.12 241.18 94.69 234.41 80.77 224.87
C 60.34 210.88 55.56 201.66 60.36 185.50
C 62.59 178.01 68.11 172.37 84.38 160.99
C 102.47 148.36 102.67 148.17 101.03 146.20
C 100.27 145.28 92.74 139.58 84.32 133.55
C 75.89 127.51 67.22 120.61 65.04 118.21
C 58.66 111.15 57.15 102.55 60.36 91.72
C 62.43 84.79 68.88 78.28 84.62 67.32
C 89.96 63.59 96.60 58.70 99.36 56.45
L 104.40 52.37
L 100.54 48.34
C 98.41 46.14 91.66 40.97 85.55 36.88
C 79.43 32.79 72.60 27.56 70.37 25.27
L 66.34 21.09
L 45.12 21.09
C 30.19 21.09 23.48 21.52 22.50 22.50
C 20.64 24.36 20.45 273.16 22.31 276.64
C 23.44 278.74 24.94 278.91 43.18 278.91
L 62.85 278.91
L 66.28 275.24
M 99.49 274.62
C 115.41 261.95 123.04 251.55 123.01 242.58
C 122.98 232.82 116.86 225.54 97.09 211.77
C 78.12 198.56 76.01 195.69 80.79 189.62
C 82.03 188.03 89.81 181.93 98.07 176.07
C 106.32 170.20 114.76 163.65 116.82 161.51
C 123.38 154.68 124.57 148.21 120.81 139.92
C 117.98 133.70 115.20 131.16 95.88 117.13
C 87.06 110.72 79.51 104.43 79.10 103.14
C 77.41 97.80 79.88 95.24 101.37 80.02
C 115.24 70.20 120.33 65.16 121.90 59.70
C 125.40 47.47 119.84 36.61 104.21 25.14
C 98.82 21.18 98.46 21.09 87.29 21.09
C 73.62 21.09 73.62 21.11 90.09 32.07
C 101.93 39.95 111.33 48.91 111.33 52.30
C 111.33 55.09 103.89 61.82 90.56 71.09
C 68.62 86.36 62.37 95.04 65.57 105.74
C 67.54 112.31 71.92 116.64 89.10 128.93
C 97.59 135.01 105.55 141.27 106.77 142.82
C 111.55 148.89 109.41 151.69 89.24 165.67
C 73.02 176.92 68.67 181.28 66.18 188.77
C 62.32 200.38 66.89 207.40 87.55 221.64
C 94.45 226.38 102.09 232.17 104.53 234.49
C 113.85 243.32 109.54 250.41 83.03 269.84
C 78.09 273.45 73.71 276.97 73.29 277.65
C 72.76 278.51 75.96 278.91 83.31 278.91
C 93.96 278.91 94.16 278.86 99.49 274.62
M 149.48 275.24
C 151.38 273.22 157.84 267.93 163.83 263.47
C 175.89 254.51 186.33 244.92 186.33 242.82
C 186.33 241.18 177.89 234.41 163.97 224.87
C 143.54 210.88 138.76 201.66 143.57 185.50
C 145.79 178.01 151.31 172.37 167.58 160.99
C 185.67 148.36 185.87 148.17 184.23 146.20
C 183.47 145.28 175.95 139.58 167.52 133.55
C 159.09 127.51 150.42 120.61 148.24 118.21
C 141.87 111.15 140.36 102.55 143.57 91.72
C 145.63 84.79 152.09 78.28 167.82 67.32
C 173.17 63.59 179.80 58.70 182.57 56.45
L 187.61 52.37
L 183.74 48.34
C 181.62 46.14 174.87 40.97 168.75 36.88
C 162.63 32.79 155.80 27.56 153.57 25.27
L 149.54 21.09
L 130.25 21.09
L 110.95 21.09
L 118.07 28.50
C 128.31 39.16 131.09 49.66 127.15 62.91
C 125.24 69.33 119.21 75.84 108.40 83.17
C 98.23 90.06 85.55 99.79 85.55 100.70
C 85.55 101.18 92.53 106.62 101.07 112.78
C 109.62 118.95 118.58 125.98 121.02 128.41
C 125.88 133.30 128.91 141.41 128.91 149.55
C 128.91 160.23 124.89 165.04 102.88 180.67
C 94.69 186.48 87.33 192.04 86.53 193.00
C 84.83 195.04 84.96 195.15 101.95 207.11
C 118.99 219.08 125.07 225.29 127.31 233.00
C 131.26 246.57 127.03 258.55 113.98 270.74
L 105.23 278.91
L 125.64 278.91
L 146.05 278.91
L 149.48 275.24
M 182.70 274.62
C 198.61 261.95 206.24 251.55 206.21 242.58
C 206.18 232.82 200.06 225.54 180.29 211.77
C 161.32 198.56 159.21 195.69 163.99 189.62
C 165.23 188.03 173.02 181.93 181.28 176.07
C 189.53 170.20 197.96 163.65 200.03 161.51
C 206.58 154.68 207.77 148.21 204.01 139.92
C 201.19 133.70 198.40 131.16 179.09 117.13
C 170.26 110.72 162.71 104.43 162.30 103.14
C 160.62 97.80 163.08 95.24 184.57 80.02
C 198.45 70.20 203.53 65.16 205.10 59.70
C 208.61 47.47 203.04 36.61 187.42 25.14
C 182.03 21.18 181.66 21.09 170.50 21.09
C 156.82 21.09 156.82 21.11 173.30 32.07
C 185.13 39.95 194.53 48.91 194.53 52.30
C 194.53 55.09 187.09 61.82 173.77 71.09
C 151.83 86.36 145.57 95.04 148.77 105.74
C 150.74 112.31 155.12 116.64 172.30 128.93
C 180.80 135.01 188.75 141.27 189.97 142.82
C 194.75 148.89 192.61 151.69 172.44 165.67
C 156.22 176.92 151.88 181.28 149.38 188.77
C 145.52 200.38 150.09 207.40 170.75 221.64
C 177.66 226.38 185.30 232.17 187.73 234.49
C 197.05 243.32 192.74 250.41 166.23 269.84
C 161.30 273.45 156.91 276.97 156.49 277.65
C 155.96 278.51 159.16 278.91 166.51 278.91
C 177.16 278.91 177.36 278.86 182.70 274.62
M 230.34 275.24
C 232.24 273.22 238.70 267.93 244.69 263.47
C 256.75 254.51 267.19 244.92 267.19 242.82
C 267.19 241.18 258.75 234.41 244.83 224.87
C 224.40 210.88 219.62 201.66 224.43 185.50
C 226.65 178.01 232.17 172.37 248.44 160.99
C 266.53 148.36 266.73 148.17 265.09 146.20
C 264.33 145.28 256.80 139.58 248.38 133.55
C 239.95 127.51 231.28 120.61 229.10 118.21
C 222.73 111.15 221.21 102.55 224.43 91.72
C 226.49 84.79 232.95 78.28 248.68 67.32
C 254.03 63.59 260.66 58.70 263.43 56.45
L 268.46 52.37
L 264.60 48.34
C 262.48 46.14 255.73 40.97 249.61 36.88
C 243.49 32.79 236.66 27.56 234.43 25.27
L 230.40 21.09
L 212.29 21.09
L 194.16 21.09
L 201.27 28.50
C 211.51 39.16 214.29 49.66 210.35 62.91
C 208.44 69.33 202.42 75.84 191.60 83.17
C 181.43 90.06 168.75 99.79 168.75 100.70
C 168.75 101.18 175.73 106.62 184.28 112.78
C 192.82 118.95 201.79 125.98 204.22 128.41
C 209.09 133.30 212.11 141.41 212.11 149.55
C 212.11 160.23 208.09 165.04 186.08 180.67
C 177.89 186.48 170.53 192.04 169.73 193.00
C 168.04 195.04 168.16 195.15 185.16 207.11
C 202.20 219.08 208.28 225.29 210.52 233.00
C 214.46 246.57 210.23 258.55 197.18 270.74
L 188.44 278.91
L 207.67 278.91
L 226.91 278.91
L 230.34 275.24
M 263.55 274.62
C 279.47 261.95 287.10 251.55 287.07 242.58
C 287.04 232.82 280.92 225.54 261.15 211.77
C 242.18 198.56 240.07 195.69 244.85 189.62
C 246.09 188.03 253.87 181.93 262.14 176.07
C 270.39 170.20 278.82 163.65 280.89 161.51
C 287.44 154.68 288.63 148.21 284.87 139.92
C 282.05 133.70 279.26 131.16 259.95 117.13
C 251.12 110.72 243.57 104.43 243.16 103.14
C 241.48 97.80 243.94 95.24 265.43 80.02
C 279.30 70.20 284.39 65.16 285.96 59.70
C 289.46 47.47 283.90 36.61 268.28 25.14
C 262.89 21.18 262.52 21.09 251.36 21.09
C 237.68 21.09 237.68 21.11 254.16 32.07
C 265.99 39.95 275.39 48.91 275.39 52.30
C 275.39 55.09 267.95 61.82 254.62 71.09
C 232.69 86.36 226.43 95.04 229.63 105.74
C 231.60 112.31 235.98 116.64 253.16 128.93
C 261.66 135.01 269.61 141.27 270.83 142.82
C 275.61 148.89 273.47 151.69 253.30 165.67
C 237.08 176.92 232.73 181.28 230.24 188.77
C 226.38 200.38 230.95 207.40 251.61 221.64
C 258.52 226.38 266.16 232.17 268.59 234.49
C 277.91 243.32 273.60 250.41 247.09 269.84
C 242.16 273.45 237.77 276.97 237.35 277.65
C 236.82 278.51 240.02 278.91 247.37 278.91
C 258.02 278.91 258.22 278.86 263.55 274.62
M 311.20 275.24
C 313.10 273.22 319.56 267.93 325.55 263.47
C 337.61 254.51 348.05 244.92 348.05 242.82
C 348.05 241.18 339.61 234.41 325.69 224.87
C 305.26 210.88 300.48 201.66 305.29 185.50
C 307.51 178.01 313.03 172.37 329.30 160.99
C 347.39 148.36 347.59 148.17 345.95 146.20
C 345.19 145.28 337.66 139.58 329.24 133.55
C 320.81 127.51 312.14 120.61 309.96 118.21
C 303.59 111.15 302.07 102.55 305.29 91.72
C 307.35 84.79 313.80 78.28 329.54 67.32
C 334.89 63.59 341.52 58.70 344.29 56.45
L 349.32 52.37
L 345.46 48.34
C 343.34 46.14 336.60 40.97 330.47 36.88
C 324.34 32.79 317.52 27.56 315.29 25.27
L 311.26 21.09
L 293.14 21.09
L 275.02 21.09
L 282.13 28.50
C 292.37 39.16 295.15 49.66 291.21 62.91
C 289.30 69.33 283.28 75.84 272.46 83.17
C 262.29 90.06 249.61 99.79 249.61 100.70
C 249.61 101.18 256.59 106.62 265.14 112.78
C 273.68 118.95 282.64 125.98 285.08 128.41
C 289.95 133.30 292.97 141.41 292.97 149.55
C 292.97 160.23 288.95 165.04 266.94 180.67
C 258.75 186.48 251.39 192.04 250.59 193.00
C 248.89 195.04 249.02 195.15 266.02 207.11
C 283.05 219.08 289.14 225.29 291.38 233.00
C 295.32 246.57 291.09 258.55 278.04 270.74
L 269.30 278.91
L 288.53 278.91
L 307.77 278.91
L 311.20 275.24
M 344.41 274.62
C 360.33 261.95 367.96 251.55 367.93 242.58
C 367.90 232.82 361.78 225.54 342.01 211.77
C 323.04 198.56 320.93 195.69 325.71 189.62
C 326.95 188.03 334.73 181.93 343.00 176.07
C 351.25 170.20 359.68 163.65 361.75 161.51
C 368.30 154.68 369.49 148.21 365.73 139.92
C 362.91 133.70 360.12 131.16 340.80 117.13
C 331.98 110.72 324.43 104.43 324.02 103.14
C 322.34 97.80 324.80 95.24 346.29 80.02
C 360.16 70.20 365.25 65.16 366.82 59.70
C 370.32 47.47 364.76 36.61 349.14 25.14
C 343.75 21.18 343.38 21.09 332.21 21.09
C 318.54 21.09 318.54 21.11 335.02 32.07
C 346.85 39.95 356.25 48.91 356.25 52.30
C 356.25 55.09 348.81 61.82 335.48 71.09
C 313.55 86.36 307.29 95.04 310.49 105.74
C 312.46 112.31 316.84 116.64 334.02 128.93
C 342.52 135.01 350.47 141.27 351.69 142.82
C 356.47 148.89 354.33 151.69 334.16 165.67
C 317.94 176.92 313.59 181.28 311.10 188.77
C 307.24 200.38 311.81 207.40 332.47 221.64
C 339.38 226.38 347.02 232.17 349.45 234.49
C 358.77 243.32 354.46 250.41 327.95 269.84
C 323.02 273.45 318.63 276.97 318.21 277.65
C 317.68 278.51 320.88 278.91 328.23 278.91
C 338.88 278.91 339.08 278.86 344.41 274.62
M 396.34 277.91
C 393.74 277.17 393.82 276.97 398.68 272.33
C 401.45 269.68 407.82 264.53 412.85 260.86
C 417.87 257.19 424.72 251.54 428.09 248.29
L 434.18 242.38
L 429.56 238.35
C 427.02 236.13 420.16 231.06 414.33 227.06
C 402.00 218.62 394.25 211.79 391.92 207.29
C 389.12 201.87 388.57 192.12 390.67 184.91
C 393.02 176.81 398.14 171.50 414.84 159.82
C 421.61 155.10 428.40 150.23 429.93 149.04
L 432.71 146.85
L 425.82 141.62
C 422.04 138.76 415.25 133.80 410.74 130.63
C 400.21 123.21 394.02 117.60 391.93 113.57
C 389.12 108.12 388.57 98.38 390.68 91.14
C 392.91 83.50 398.78 77.54 416.31 65.20
C 422.27 61.00 428.73 56.25 430.66 54.66
L 434.18 51.75
L 430.66 48.04
C 428.73 46.00 422.40 41.14 416.60 37.25
C 410.80 33.38 404.30 28.15 402.15 25.64
L 398.25 21.09
L 377.06 21.09
L 355.88 21.09
L 362.99 28.50
C 373.23 39.16 376.01 49.66 372.07 62.91
C 370.16 69.33 364.14 75.84 353.32 83.17
C 343.15 90.06 330.47 99.79 330.47 100.70
C 330.47 101.18 337.45 106.62 346.00 112.78
C 354.54 118.95 363.50 125.98 365.94 128.41
C 370.80 133.30 373.83 141.41 373.83 149.55
C 373.83 160.23 369.81 165.04 347.80 180.67
C 339.61 186.48 332.25 192.04 331.45 193.00
C 329.75 195.04 329.88 195.15 346.88 207.11
C 363.91 219.08 370.00 225.29 372.23 233.00
C 376.18 246.57 371.95 258.55 358.90 270.74
L 350.16 278.91
L 374.59 278.79
C 388.03 278.73 397.82 278.33 396.34 277.91
M 475.27 275.24
C 477.16 273.22 483.62 267.93 489.61 263.47
C 501.67 254.51 512.11 244.92 512.11 242.82
C 512.11 241.18 503.67 234.41 489.75 224.87
C 469.32 210.88 464.54 201.66 469.35 185.50
C 471.57 178.01 477.09 172.37 493.36 160.99
C 511.45 148.36 511.65 148.17 510.01 146.20
C 509.25 145.28 501.73 139.58 493.30 133.55
C 484.88 127.51 476.20 120.61 474.02 118.21
C 467.65 111.15 466.14 102.55 469.35 91.72
C 471.41 84.79 477.87 78.28 493.61 67.32
C 498.95 63.59 505.58 58.70 508.35 56.45
L 513.39 52.37
L 509.52 48.34
C 507.40 46.14 500.66 40.97 494.53 36.88
C 488.40 32.79 481.58 27.56 479.36 25.27
L 475.32 21.09
L 458.96 21.09
L 442.62 21.09
L 449.13 27.93
C 458.50 37.75 461.05 47.17 458.07 61.02
C 456.38 68.98 451.65 74.10 435.36 85.65
C 428.26 90.69 420.96 96.04 419.13 97.54
L 415.80 100.25
L 431.44 111.54
C 451.04 125.68 455.40 130.01 457.64 137.53
C 462.64 154.39 458.58 162.87 438.87 176.68
C 433.71 180.30 426.40 185.61 422.61 188.48
L 415.72 193.72
L 418.51 195.91
C 420.04 197.12 426.29 201.62 432.42 205.93
C 449.46 217.91 455.54 224.12 457.78 231.83
C 461.85 245.85 457.50 258.55 444.45 270.74
L 435.70 278.91
L 453.76 278.91
L 471.83 278.91
L 475.27 275.24
M 508.48 274.62
C 524.39 261.95 532.02 251.55 532.00 242.58
C 531.96 232.82 525.84 225.54 506.07 211.77
C 487.10 198.56 484.99 195.69 489.77 189.62
C 491.02 188.03 498.80 181.93 507.06 176.07
C 515.31 170.20 523.75 163.65 525.81 161.51
C 532.36 154.68 533.55 148.21 529.79 139.92
C 526.97 133.70 524.18 131.16 504.87 117.13
C 496.04 110.72 488.50 104.43 488.09 103.14
C 486.40 97.80 488.86 95.24 510.35 80.02
C 524.23 70.20 529.31 65.16 530.88 59.70
C 534.39 47.47 528.82 36.61 513.20 25.14
C 507.81 21.18 507.45 21.09 496.28 21.09
C 482.60 21.09 482.60 21.11 499.08 32.07
C 510.91 39.95 520.31 48.91 520.31 52.30
C 520.31 55.09 512.87 61.82 499.55 71.09
C 477.61 86.36 471.35 95.04 474.55 105.74
C 476.52 112.31 480.90 116.64 498.08 128.93
C 506.58 135.01 514.54 141.27 515.75 142.82
C 520.54 148.89 518.39 151.69 498.22 165.67
C 482.00 176.92 477.66 181.28 475.16 188.77
C 471.30 200.38 475.88 207.40 496.54 221.64
C 503.44 226.38 511.08 232.17 513.52 234.49
C 522.83 243.32 518.52 250.41 492.01 269.84
C 487.08 273.45 482.70 276.97 482.27 277.65
C 481.75 278.51 484.95 278.91 492.29 278.91
C 502.95 278.91 503.14 278.86 508.48 274.62
M 577.50 277.50
C 579.54 275.46 579.54 24.54 577.50 22.50
C 576.48 21.48 568.29 21.09 548.02 21.09
L 519.94 21.09
L 527.05 28.50
C 537.29 39.16 540.07 49.66 536.13 62.91
C 534.22 69.33 528.20 75.84 517.38 83.17
C 507.21 90.06 494.53 99.79 494.53 100.70
C 494.53 101.18 501.52 106.62 510.06 112.78
C 518.60 118.95 527.57 125.98 530.00 128.41
C 534.87 133.30 537.89 141.41 537.89 149.55
C 537.89 160.23 533.87 165.04 511.86 180.67
C 503.67 186.48 496.31 192.04 495.52 193.00
C 493.82 195.04 493.95 195.15 510.94 207.11
C 527.98 219.08 534.06 225.29 536.30 233.00
C 540.25 246.57 536.02 258.55 522.96 270.74
L 514.22 278.91
L 545.16 278.91
C 567.66 278.91 576.48 278.52 577.50 277.50
M 429.96 273.45
C 445.88 260.78 453.50 250.38 453.48 241.41
C 453.45 231.64 447.33 224.37 427.56 210.60
C 408.59 197.39 406.48 194.52 411.26 188.45
C 412.50 186.86 420.28 180.76 428.54 174.90
C 436.79 169.03 445.23 162.48 447.29 160.34
C 453.84 153.50 455.04 147.04 451.28 138.75
C 448.45 132.53 445.66 129.98 426.35 115.96
C 417.53 109.55 409.98 103.25 409.57 101.96
C 407.88 96.63 410.34 94.07 431.84 78.84
C 445.71 69.02 450.80 63.98 452.37 58.52
C 455.87 46.30 450.30 35.44 434.68 23.96
C 429.29 20.00 428.93 19.92 417.76 19.92
C 404.09 19.92 404.09 19.93 420.56 30.90
C 432.40 38.78 441.80 47.74 441.80 51.13
C 441.80 53.92 434.36 60.64 421.03 69.91
C 399.09 85.18 392.84 93.87 396.04 104.57
C 398.00 111.14 402.39 115.46 419.57 127.76
C 428.06 133.84 436.02 140.10 437.24 141.64
C 442.02 147.71 439.88 150.52 419.71 164.50
C 403.49 175.75 399.14 180.11 396.64 187.59
C 392.79 199.21 397.36 206.23 418.02 220.46
C 424.92 225.21 432.56 231.00 435.00 233.32
C 444.32 242.14 440.00 249.23 413.50 268.66
C 408.56 272.27 404.18 275.80 403.76 276.48
C 403.23 277.34 406.43 277.73 413.78 277.73
C 424.43 277.73 424.63 277.69 429.96 273.45"/>
<path fill="#c57a36" stroke="none" d="
M 8.44 291.56
C 7.36 290.48 7.03 257.40 7.03 149.81
C 7.03 12.25 7.08 9.43 9.29 8.25
C 12.80 6.38 589.69 6.56 591.56 8.44
C 593.60 10.48 593.60 289.52 591.56 291.56
C 589.51 293.61 10.49 293.61 8.44 291.56
M 583.59 283.59
C 585.91 281.27 585.94 279.69 585.94 150.00
C 585.94 20.31 585.91 18.73 583.59 16.41
C 581.26 14.07 579.69 14.06 300.00 14.06
C 20.31 14.06 18.74 14.07 16.41 16.41
C 14.09 18.73 14.06 20.31 14.06 150.00
C 14.06 279.69 14.09 281.27 16.41 283.59
C 18.74 285.93 20.31 285.94 300.00 285.94
C 579.69 285.94 581.26 285.93 583.59 283.59"/>
<path fill="#fefefe" stroke="none" d="
M 73.29 277.65
C 73.71 276.97 78.09 273.45 83.03 269.84
C 109.54 250.41 113.85 243.32 104.53 234.49
C 102.09 232.17 94.45 226.38 87.55 221.64
C 66.89 207.40 62.32 200.38 66.18 188.77
C 68.67 181.28 73.02 176.92 89.24 165.67
C 109.41 151.69 111.55 148.89 106.77 142.82
C 105.55 141.27 97.59 135.01 89.10 128.93
C 71.92 116.64 67.54 112.31 65.57 105.74
C 62.37 95.04 68.62 86.36 90.56 71.09
C 103.89 61.82 111.33 55.09 111.33 52.30
C 111.33 48.91 101.93 39.95 90.09 32.07
C 73.62 21.11 73.62 21.09 87.29 21.09
C 98.46 21.09 98.82 21.18 104.21 25.14
C 119.84 36.61 125.40 47.47 121.90 59.70
C 120.33 65.16 115.24 70.20 101.37 80.02
C 79.88 95.24 77.41 97.80 79.10 103.14
C 79.51 104.43 87.06 110.72 95.88 117.13
C 115.20 131.16 117.98 133.70 120.81 139.92
C 124.57 148.21 123.38 154.68 116.82 161.51
C 114.76 163.65 106.32 170.20 98.07 176.07
C 89.81 181.93 82.03 188.03 80.79 189.62
C 76.01 195.69 78.12 198.56 97.09 211.77
C 111.68 221.94 118.20 227.98 120.86 233.79
C 126.55 246.27 120.45 257.94 99.49 274.62
C 94.16 278.86 93.96 278.91 83.31 278.91
C 75.96 278.91 72.76 278.51 73.29 277.65"/>
<path fill="#fefefe" stroke="none" d="
M 156.49 277.65
C 156.91 276.97 161.30 273.45 166.23 269.84
C 192.74 250.41 197.05 243.32 187.73 234.49
C 185.30 232.17 177.66 226.38 170.75 221.64
C 150.09 207.40 145.52 200.38 149.38 188.77
C 151.88 181.28 156.22 176.92 172.44 165.67
C 192.61 151.69 194.75 148.89 189.97 142.82
C 188.75 141.27 180.80 135.01 172.30 128.93
C 155.12 116.64 150.74 112.31 148.77 105.74
C 145.57 95.04 151.83 86.36 173.77 71.09
C 187.09 61.82 194.53 55.09 194.53 52.30
C 194.53 48.91 185.13 39.95 173.30 32.07
C 156.82 21.11 156.82 21.09 170.50 21.09
C 181.66 21.09 182.03 21.18 187.42 25.14
C 203.04 36.61 208.61 47.47 205.10 59.70
C 203.53 65.16 198.45 70.20 184.57 80.02
C 163.08 95.24 160.62 97.80 162.30 103.14
C 162.71 104.43 170.26 110.72 179.09 117.13
C 198.40 131.16 201.19 133.70 204.01 139.92
C 207.77 148.21 206.58 154.68 200.03 161.51
C 197.96 163.65 189.53 170.20 181.28 176.07
C 173.02 181.93 165.23 188.03 163.99 189.62
C 159.21 195.69 161.32 198.56 180.29 211.77
C 194.88 221.94 201.40 227.98 204.06 233.79
C 209.75 246.27 203.65 257.94 182.70 274.62
C 177.36 278.86 177.16 278.91 166.51 278.91
C 159.16 278.91 155.96 278.51 156.49 277.65"/>
<path fill="#fefefe" stroke="none" d="
M 237.35 277.65
C 237.77 276.97 242.16 273.45 247.09 269.84
C 273.60 250.41 277.91 243.32 268.59 234.49
C 266.16 232.17 258.52 226.38 251.61 221.64
C 230.95 207.40 226.38 200.38 230.24 188.77
C 232.73 181.28 237.08 176.92 253.30 165.67
C 273.47 151.69 275.61 148.89 270.83 142.82
C 269.61 141.27 261.66 135.01 253.16 128.93
C 235.98 116.64 231.60 112.31 229.63 105.74
C 226.43 95.04 232.69 86.36 254.62 71.09
C 267.95 61.82 275.39 55.09 275.39 52.30
C 275.39 48.91 265.99 39.95 254.16 32.07
C 237.68 21.11 237.68 21.09 251.36 21.09
C 262.52 21.09 262.89 21.18 268.28 25.14
C 283.90 36.61 289.46 47.47 285.96 59.70
C 284.39 65.16 279.30 70.20 265.43 80.02
C 243.94 95.24 241.48 97.80 243.16 103.14
C 243.57 104.43 251.12 110.72 259.95 117.13
C 279.26 131.16 282.05 133.70 284.87 139.92
C 288.63 148.21 287.44 154.68 280.89 161.51
C 278.82 163.65 270.39 170.20 262.14 176.07
C 253.87 181.93 246.09 188.03 244.85 189.62
C 240.07 195.69 242.18 198.56 261.15 211.77
C 275.74 221.94 282.26 227.98 284.92 233.79
C 290.61 246.27 284.51 257.94 263.55 274.62
C 258.22 278.86 258.02 278.91 247.37 278.91
C 240.02 278.91 236.82 278.51 237.35 277.65"/>
<path fill="#fefefe" stroke="none" d="
M 318.21 277.65
C 318.63 276.97 323.02 273.45 327.95 269.84
C 354.46 250.41 358.77 243.32 349.45 234.49
C 347.02 232.17 339.38 226.38 332.47 221.64
C 311.81 207.40 307.24 200.38 311.10 188.77
C 313.59 181.28 317.94 176.92 334.16 165.67
C 354.33 151.69 356.47 148.89 351.69 142.82
C 350.47 141.27 342.52 135.01 334.02 128.93
C 316.84 116.64 312.46 112.31 310.49 105.74
C 307.29 95.04 313.55 86.36 335.48 71.09
C 348.81 61.82 356.25 55.09 356.25 52.30
C 356.25 48.91 346.85 39.95 335.02 32.07
C 318.54 21.11 318.54 21.09 332.21 21.09
C 343.38 21.09 343.75 21.18 349.14 25.14
C 364.76 36.61 370.32 47.47 366.82 59.70
C 365.25 65.16 360.16 70.20 346.29 80.02
C 324.80 95.24 322.34 97.80 324.02 103.14
C 324.43 104.43 331.98 110.72 340.80 117.13
C 360.12 131.16 362.91 133.70 365.73 139.92
C 369.49 148.21 368.30 154.68 361.75 161.51
C 359.68 163.65 351.25 170.20 343.00 176.07
C 334.73 181.93 326.95 188.03 325.71 189.62
C 320.93 195.69 323.04 198.56 342.01 211.77
C 356.60 221.94 363.12 227.98 365.78 233.79
C 371.47 246.27 365.37 257.94 344.41 274.62
C 339.08 278.86 338.88 278.91 328.23 278.91
C 320.88 278.91 317.68 278.51 318.21 277.65"/>
<path fill="#fefefe" stroke="none" d="
M 482.27 277.65
C 482.70 276.97 487.08 273.45 492.01 269.84
C 518.52 250.41 522.83 243.32 513.52 234.49
C 511.08 232.17 503.44 226.38 496.54 221.64
C 475.88 207.40 471.30 200.38 475.16 188.77
C 477.66 181.28 482.00 176.92 498.22 165.67
C 518.39 151.69 520.54 148.89 515.75 142.82
C 514.54 141.27 506.58 135.01 498.08 128.93
C 480.90 116.64 476.52 112.31 474.55 105.74
C 471.35 95.04 477.61 86.36 499.55 71.09
C 512.87 61.82 520.31 55.09 520.31 52.30
C 520.31 48.91 510.91 39.95 499.08 32.07
C 482.60 21.11 482.60 21.09 496.28 21.09
C 507.45 21.09 507.81 21.18 513.20 25.14
C 528.82 36.61 534.39 47.47 530.88 59.70
C 529.31 65.16 524.23 70.20 510.35 80.02
C 488.86 95.24 486.40 97.80 488.09 103.14
C 488.50 104.43 496.04 110.72 504.87 117.13
C 524.18 131.16 526.97 133.70 529.79 139.92
C 533.55 148.21 532.36 154.68 525.81 161.51
C 523.75 163.65 515.31 170.20 507.06 176.07
C 498.80 181.93 491.02 188.03 489.77 189.62
C 484.99 195.69 487.10 198.56 506.07 211.77
C 520.66 221.94 527.18 227.98 529.84 233.79
C 535.54 246.27 529.43 257.94 508.48 274.62
C 503.14 278.86 502.95 278.91 492.29 278.91
C 484.95 278.91 481.75 278.51 482.27 277.65"/>
<path fill="#fefefe" stroke="none" d="
M 403.76 276.48
C 404.18 275.80 408.56 272.27 413.50 268.66
C 440.00 249.23 444.32 242.14 435.00 233.32
C 432.56 231.00 424.92 225.21 418.02 220.46
C 397.36 206.23 392.79 199.21 396.64 187.59
C 399.14 180.11 403.49 175.75 419.71 164.50
C 439.88 150.52 442.02 147.71 437.24 141.64
C 436.02 140.10 428.06 133.84 419.57 127.76
C 402.39 115.46 398.00 111.14 396.04 104.57
C 392.84 93.87 399.09 85.18 421.03 69.91
C 434.45 60.59 441.80 53.92 441.80 51.07
C 441.80 47.80 431.52 38.13 419.62 30.19
C 413.55 26.13 408.36 22.17 408.11 21.37
C 407.74 20.29 410.36 19.92 418.39 19.92
C 428.85 19.92 429.35 20.05 434.68 23.96
C 450.30 35.44 455.87 46.30 452.37 58.52
C 450.80 63.98 445.71 69.02 431.84 78.84
C 410.34 94.07 407.88 96.63 409.57 101.96
C 409.98 103.25 417.53 109.55 426.35 115.96
C 445.66 129.98 448.45 132.53 451.28 138.75
C 455.04 147.04 453.84 153.50 447.29 160.34
C 445.23 162.48 436.79 169.03 428.54 174.90
C 420.28 180.76 412.50 186.86 411.26 188.45
C 406.48 194.52 408.59 197.39 427.56 210.60
C 442.15 220.77 448.66 226.80 451.32 232.62
C 457.02 245.10 450.91 256.77 429.96 273.45
C 424.63 277.69 424.43 277.73 413.78 277.73
C 406.43 277.73 403.23 277.34 403.76 276.48"/>
<path fill="#0885ff" stroke="none" d="
M 22.31 276.64
C 21.49 275.12 21.09 233.17 21.09 148.95
C 21.09 26.14 21.14 23.50 23.36 22.31
C 24.67 21.61 34.20 21.09 45.98 21.09
L 66.34 21.09
L 70.37 25.27
C 72.60 27.56 79.43 32.79 85.55 36.88
C 91.66 40.97 98.41 46.14 100.54 48.34
L 104.40 52.37
L 99.36 56.45
C 96.60 58.70 89.96 63.59 84.62 67.32
C 68.88 78.28 62.43 84.79 60.36 91.72
C 57.15 102.55 58.66 111.15 65.04 118.21
C 67.22 120.61 75.89 127.51 84.32 133.55
C 92.74 139.58 100.27 145.28 101.03 146.20
C 102.67 148.17 102.47 148.36 84.38 160.99
C 68.11 172.37 62.59 178.01 60.36 185.50
C 55.56 201.66 60.34 210.88 80.77 224.87
C 94.69 234.41 103.12 241.18 103.12 242.82
C 103.12 244.92 92.68 254.51 80.62 263.47
C 74.64 267.93 68.18 273.22 66.28 275.24
L 62.85 278.91
L 43.18 278.91
C 24.94 278.91 23.44 278.74 22.31 276.64"/>
<path fill="#0885ff" stroke="none" d="
M 113.98 270.74
C 127.03 258.55 131.26 246.57 127.31 233.00
C 125.07 225.29 118.99 219.08 101.95 207.11
C 84.96 195.15 84.83 195.04 86.53 193.00
C 87.33 192.04 94.69 186.48 102.88 180.67
C 124.89 165.04 128.91 160.23 128.91 149.55
C 128.91 141.41 125.88 133.30 121.02 128.41
C 118.58 125.98 109.62 118.95 101.07 112.78
C 92.53 106.62 85.55 101.18 85.55 100.70
C 85.55 99.79 98.23 90.06 108.40 83.17
C 119.21 75.84 125.24 69.33 127.15 62.91
C 131.09 49.66 128.31 39.16 118.07 28.50
L 110.95 21.09
L 130.25 21.09
L 149.54 21.09
L 153.57 25.27
C 155.80 27.56 162.63 32.79 168.75 36.88
C 174.87 40.97 181.62 46.14 183.74 48.34
L 187.61 52.37
L 182.57 56.45
C 179.80 58.70 173.17 63.59 167.82 67.32
C 152.09 78.28 145.63 84.79 143.57 91.72
C 140.36 102.55 141.87 111.15 148.24 118.21
C 150.42 120.61 159.09 127.51 167.52 133.55
C 175.95 139.58 183.47 145.28 184.23 146.20
C 185.87 148.17 185.67 148.36 167.58 160.99
C 151.31 172.37 145.79 178.01 143.57 185.50
C 138.76 201.66 143.54 210.88 163.97 224.87
C 177.89 234.41 186.33 241.18 186.33 242.82
C 186.33 244.92 175.89 254.51 163.83 263.47
C 157.84 267.93 151.38 273.22 149.48 275.24
L 146.05 278.91
L 125.64 278.91
L 105.23 278.91
L 113.98 270.74"/>
<path fill="#0885ff" stroke="none" d="
M 197.18 270.74
C 210.23 258.55 214.46 246.57 210.52 233.00
C 208.28 225.29 202.20 219.08 185.16 207.11
C 168.16 195.15 168.04 195.04 169.73 193.00
C 170.53 192.04 177.89 186.48 186.08 180.67
C 208.09 165.04 212.11 160.23 212.11 149.55
C 212.11 141.41 209.09 133.30 204.22 128.41
C 201.79 125.98 192.82 118.95 184.28 112.78
C 175.73 106.62 168.75 101.18 168.75 100.70
C 168.75 99.79 181.43 90.06 191.60 83.17
C 202.42 75.84 208.44 69.33 210.35 62.91
C 214.29 49.66 211.51 39.16 201.27 28.50
L 194.16 21.09
L 212.29 21.09
L 230.40 21.09
L 234.43 25.27
C 236.66 27.56 243.49 32.79 249.61 36.88
C 255.73 40.97 262.48 46.14 264.60 48.34
L 268.46 52.37
L 263.43 56.45
C 260.66 58.70 254.03 63.59 248.68 67.32
C 232.95 78.28 226.49 84.79 224.43 91.72
C 221.21 102.55 222.73 111.15 229.10 118.21
C 231.28 120.61 239.95 127.51 248.38 133.55
C 256.80 139.58 264.33 145.28 265.09 146.20
C 266.73 148.17 266.53 148.36 248.44 160.99
C 232.17 172.37 226.65 178.01 224.43 185.50
C 219.62 201.66 224.40 210.88 244.83 224.87
C 258.75 234.41 267.19 241.18 267.19 242.82
C 267.19 244.92 256.75 254.51 244.69 263.47
C 238.70 267.93 232.24 273.22 230.34 275.24
L 226.91 278.91
L 207.67 278.91
L 188.44 278.91
L 197.18 270.74"/>
<path fill="#0885ff" stroke="none" d="
M 278.04 270.74
C 291.09 258.55 295.32 246.57 291.38 233.00
C 289.14 225.29 283.05 219.08 266.02 207.11
C 249.02 195.15 248.89 195.04 250.59 193.00
C 251.39 192.04 258.75 186.48 266.94 180.67
C 288.95 165.04 292.97 160.23 292.97 149.55
C 292.97 141.41 289.95 133.30 285.08 128.41
C 282.64 125.98 273.68 118.95 265.14 112.78
C 256.59 106.62 249.61 101.18 249.61 100.70
C 249.61 99.79 262.29 90.06 272.46 83.17
C 283.28 75.84 289.30 69.33 291.21 62.91
C 295.15 49.66 292.37 39.16 282.13 28.50
L 275.02 21.09
L 293.14 21.09
L 311.26 21.09
L 315.29 25.27
C 317.52 27.56 324.34 32.79 330.47 36.88
C 336.60 40.97 343.34 46.14 345.46 48.34
L 349.32 52.37
L 344.29 56.45
C 341.52 58.70 334.89 63.59 329.54 67.32
C 313.80 78.28 307.35 84.79 305.29 91.72
C 302.07 102.55 303.59 111.15 309.96 118.21
C 312.14 120.61 320.81 127.51 329.24 133.55
C 337.66 139.58 345.19 145.28 345.95 146.20
C 347.59 148.17 347.39 148.36 329.30 160.99
C 313.03 172.37 307.51 178.01 305.29 185.50
C 300.48 201.66 305.26 210.88 325.69 224.87
C 339.61 234.41 348.05 241.18 348.05 242.82
C 348.05 244.92 337.61 254.51 325.55 263.47
C 319.56 267.93 313.10 273.22 311.20 275.24
L 307.77 278.91
L 288.53 278.91
L 269.30 278.91
L 278.04 270.74"/>
<path fill="#0885ff" stroke="none" d="
M 358.90 270.74
C 371.95 258.55 376.18 246.57 372.23 233.00
C 370.00 225.29 363.91 219.08 346.88 207.11
C 329.88 195.15 329.75 195.04 331.45 193.00
C 332.25 192.04 339.61 186.48 347.80 180.67
C 369.81 165.04 373.83 160.23 373.83 149.55
C 373.83 141.41 370.80 133.30 365.94 128.41
C 363.50 125.98 354.54 118.95 346.00 112.78
C 337.45 106.62 330.47 101.18 330.47 100.70
C 330.47 99.79 343.15 90.06 353.32 83.17
C 364.14 75.84 370.16 69.33 372.07 62.91
C 376.01 49.66 373.23 39.16 362.99 28.50
L 355.88 21.09
L 377.06 21.09
L 398.25 21.09
L 402.15 25.64
C 404.30 28.15 410.80 33.38 416.60 37.25
C 422.40 41.14 428.73 46.00 430.66 48.04
L 434.18 51.75
L 430.66 54.66
C 428.73 56.25 422.27 61.00 416.31 65.20
C 398.78 77.54 392.91 83.50 390.68 91.14
C 388.57 98.38 389.12 108.12 391.93 113.57
C 394.02 117.60 400.21 123.21 410.74 130.63
C 415.25 133.80 422.04 138.76 425.82 141.62
L 432.71 146.85
L 429.93 149.04
C 428.40 150.23 421.61 155.10 414.84 159.82
C 398.14 171.50 393.02 176.81 390.67 184.91
C 388.57 192.12 389.12 201.87 391.92 207.29
C 394.25 211.79 402.00 218.62 414.33 227.06
C 420.16 231.06 427.02 236.13 429.56 238.35
L 434.18 242.38
L 428.09 248.29
C 424.72 251.54 417.87 257.19 412.85 260.86
C 407.82 264.53 401.45 269.68 398.68 272.33
C 393.82 276.97 393.74 277.17 396.34 277.91
C 397.82 278.33 388.03 278.73 374.59 278.79
L 350.16 278.91
L 358.90 270.74"/>
<path fill="#0885ff" stroke="none" d="
M 444.45 270.74
C 457.50 258.55 461.85 245.85 457.78 231.83
C 455.54 224.12 449.46 217.91 432.42 205.93
C 426.29 201.62 420.04 197.12 418.51 195.91
L 415.72 193.72
L 422.61 188.48
C 426.40 185.61 433.71 180.30 438.87 176.68
C 458.58 162.87 462.64 154.39 457.64 137.53
C 455.40 130.01 451.04 125.68 431.44 111.54
L 415.80 100.25
L 419.13 97.54
C 420.96 96.04 428.26 90.69 435.36 85.65
C 451.65 74.10 456.38 68.98 458.07 61.02
C 461.05 47.17 458.50 37.75 449.13 27.93
L 442.62 21.09
L 458.96 21.09
L 475.32 21.09
L 479.36 25.27
C 481.58 27.56 488.40 32.79 494.53 36.88
C 500.66 40.97 507.40 46.14 509.52 48.34
L 513.39 52.37
L 508.35 56.45
C 505.58 58.70 498.95 63.59 493.61 67.32
C 477.87 78.28 471.41 84.79 469.35 91.72
C 466.14 102.55 467.65 111.15 474.02 118.21
C 476.20 120.61 484.88 127.51 493.30 133.55
C 501.73 139.58 509.25 145.28 510.01 146.20
C 511.65 148.17 511.45 148.36 493.36 160.99
C 477.09 172.37 471.57 178.01 469.35 185.50
C 464.54 201.66 469.32 210.88 489.75 224.87
C 503.67 234.41 512.11 241.18 512.11 242.82
C 512.11 244.92 501.67 254.51 489.61 263.47
C 483.62 267.93 477.16 273.22 475.27 275.24
L 471.83 278.91
L 453.76 278.91
L 435.70 278.91
L 444.45 270.74"/>
<path fill="#0885ff" stroke="none" d="
M 522.96 270.74
C 536.02 258.55 540.25 246.57 536.30 233.00
C 534.06 225.29 527.98 219.08 510.94 207.11
C 493.95 195.15 493.82 195.04 495.52 193.00
C 496.31 192.04 503.67 186.48 511.86 180.67
C 533.87 165.04 537.89 160.23 537.89 149.55
C 537.89 141.41 534.87 133.30 530.00 128.41
C 527.57 125.98 518.60 118.95 510.06 112.78
C 501.52 106.62 494.53 101.18 494.53 100.70
C 494.53 99.79 507.21 90.06 517.38 83.17
C 528.20 75.84 534.22 69.33 536.13 62.91
C 540.07 49.66 537.29 39.16 527.05 28.50
L 519.94 21.09
L 548.02 21.09
C 568.29 21.09 576.48 21.48 577.50 22.50
C 579.54 24.54 579.54 275.46 577.50 277.50
C 576.48 278.52 567.66 278.91 545.16 278.91
L 514.22 278.91
L 522.96 270.74"/>
</g>
</svg>
