<?xml version="1.0" encoding="UTF-8" standalone="no"?>
<!DOCTYPE svg PUBLIC "-//W3C//DTD SVG 1.1//EN"
"http://www.w3.org/Graphics/SVG/1.1/DTD/svg11.dtd">
<svg width="600px" height="404px"
xmlns="http://www.w3.org/2000/svg" version="1.1">
<g transform="translate(0000, 0000) scale(1.0000, 1.0000)">
<path fill="#000000" stroke="none" d="
M 296.83 402.27
C 292.13 400.72 287.75 394.29 288.92 390.63
C 290.12 386.82 294.39 382.01 298.40 379.93
C 300.44 378.88 313.78 375.01 328.05 371.35
C 363.37 362.27 376.76 355.74 384.27 343.89
C 391.47 332.53 389.20 327.55 350.23 268.92
C 329.88 238.30 317.33 216.63 307.89 195.81
L 302.63 184.19
L 295.62 184.19
L 288.63 184.19
L 287.79 189.77
C 285.15 207.33 274.32 227.43 233.52 290.41
C 217.18 315.62 206.45 335.11 204.77 342.59
C 204.02 345.93 203.85 355.20 204.34 365.93
C 205.14 383.28 205.09 383.85 202.27 387.93
C 193.61 400.48 184.10 402.78 165.99 396.73
C 159.77 394.66 153.68 392.95 152.47 392.95
C 151.25 392.95 143.91 394.58 136.17 396.58
C 118.65 401.10 101.52 402.77 72.66 402.77
C 46.80 402.77 42.99 401.86 39.66 394.86
C 37.72 390.79 37.72 390.21 39.61 386.24
C 42.63 379.90 49.18 376.33 66.87 371.40
C 119.21 356.78 130.15 350.84 147.28 327.72
C 159.79 310.82 167.44 294.21 182.80 250.50
C 187.67 236.65 194.16 219.25 197.21 211.82
C 200.27 204.39 204.04 195.14 205.58 191.26
L 208.40 184.19
L 106.66 184.19
C 6.54 184.19 4.87 184.16 2.45 181.74
C 0.05 179.33 0.00 177.65 0.00 92.33
C 0.00 19.18 0.28 5.00 1.74 3.00
C 3.46 0.65 8.07 0.61 299.28 0.29
C 593.95 -0.01 595.09 0.00 597.53 2.44
C 599.95 4.86 600.00 6.46 600.00 92.10
C 600.00 177.65 599.95 179.33 597.55 181.74
C 595.13 184.16 593.46 184.19 485.79 184.19
L 376.49 184.19
L 386.69 203.53
C 407.96 243.90 422.34 275.84 437.44 316.20
C 441.99 328.36 448.32 343.55 451.53 349.97
C 454.74 356.39 458.63 365.60 460.18 370.46
C 462.69 378.27 462.83 379.87 461.50 384.35
C 459.48 391.08 452.44 398.72 446.81 400.28
C 439.68 402.27 435.78 401.85 422.25 397.64
L 409.52 393.67
L 400.77 398.52
L 392.02 403.37
L 346.47 403.48
C 316.61 403.57 299.50 403.14 296.83 402.27
M 396.13 392.54
C 406.71 386.01 409.39 385.86 424.26 391.03
C 431.18 393.44 437.69 395.40 438.72 395.40
C 443.14 395.40 450.34 390.32 452.83 385.45
C 456.28 378.68 455.42 374.52 447.04 357.24
C 443.30 349.53 436.79 334.09 432.58 322.95
C 418.43 285.50 409.36 264.80 392.79 232.09
C 383.72 214.19 374.59 196.11 372.50 191.89
L 368.71 184.24
L 340.18 184.22
C 324.49 184.21 311.66 184.45 311.66 184.76
C 311.66 185.08 312.80 188.26 314.20 191.82
C 319.63 205.71 335.23 232.79 354.92 262.53
C 387.17 311.26 395.12 325.59 395.08 334.98
C 395.06 340.51 389.67 350.26 383.50 355.94
C 374.47 364.24 360.28 370.16 332.91 377.03
C 319.64 380.37 306.39 384.27 303.45 385.69
C 295.29 389.65 294.07 393.97 300.44 396.33
C 302.00 396.90 322.47 397.34 345.93 397.30
L 388.58 397.21
L 396.13 392.54
M 107.36 395.36
C 113.44 394.66 125.01 392.46 133.07 390.44
C 141.13 388.44 149.75 386.81 152.23 386.81
C 154.72 386.81 162.21 388.49 168.87 390.54
C 175.53 392.60 182.21 393.97 183.72 393.60
C 186.94 392.79 194.55 386.35 196.66 382.65
C 197.66 380.93 198.17 373.08 198.23 359.18
C 198.29 342.87 198.75 337.16 200.33 333.07
C 203.55 324.76 215.99 303.76 236.16 272.61
C 264.85 228.32 274.75 210.57 279.61 194.80
C 281.04 190.17 282.21 185.90 282.21 185.29
C 282.21 184.67 267.83 184.19 249.26 184.19
L 216.32 184.19
L 214.37 188.80
C 204.15 212.82 197.69 229.37 189.60 252.35
C 174.49 295.19 167.37 311.36 156.66 327.25
C 139.10 353.30 125.01 362.24 83.36 373.72
C 56.88 381.01 51.41 383.17 47.82 387.75
C 45.14 391.16 46.07 393.51 50.88 395.47
C 54.47 396.91 94.32 396.84 107.36 395.36
M 592.39 176.58
C 594.53 174.44 594.53 9.75 592.39 7.61
C 590.25 5.46 9.75 5.46 7.61 7.61
C 5.47 9.75 5.47 174.44 7.61 176.58
C 9.75 178.73 590.25 178.73 592.39 176.58"/>
<path fill="#000000" stroke="none" d="
M 22.09 162.09
C 19.69 159.70 19.63 158.00 19.63 92.10
C 19.63 26.19 19.69 24.50 22.09 22.10
C 24.53 19.66 26.17 19.65 300.00 19.65
C 573.83 19.65 575.47 19.66 577.91 22.10
C 580.31 24.50 580.37 26.19 580.37 92.10
C 580.37 158.00 580.31 159.70 577.91 162.09
C 575.47 164.53 573.83 164.55 300.00 164.55
C 26.17 164.55 24.53 164.53 22.09 162.09
M 572.76 156.93
C 574.88 154.81 574.88 29.39 572.76 27.26
C 570.61 25.11 29.39 25.11 27.24 27.26
C 25.12 29.39 25.12 154.81 27.24 156.93
C 29.39 159.08 570.61 159.08 572.76 156.93"/>
<path fill="#c57a36" stroke="none" d="
M 7.61 176.58
C 6.49 175.46 6.13 154.98 6.13 91.90
C 6.13 10.88 6.20 8.64 8.50 7.42
C 12.17 5.45 590.43 5.65 592.39 7.61
C 594.53 9.75 594.53 174.44 592.39 176.58
C 590.25 178.73 9.75 178.73 7.61 176.58
M 577.91 162.09
C 580.31 159.70 580.37 158.00 580.37 92.10
C 580.37 26.19 580.31 24.50 577.91 22.10
C 575.47 19.66 573.83 19.65 300.00 19.65
C 26.17 19.65 24.53 19.66 22.09 22.10
C 19.69 24.50 19.63 26.19 19.63 92.10
C 19.63 158.00 19.69 159.70 22.09 162.09
C 24.53 164.53 26.17 164.55 300.00 164.55
C 573.83 164.55 575.47 164.53 577.91 162.09"/>
<path fill="#0885ff" stroke="none" d="
M 27.24 156.93
C 26.13 155.83 25.77 139.69 25.77 91.90
C 25.77 30.31 25.84 28.29 28.13 27.06
C 31.80 25.10 570.80 25.30 572.76 27.26
C 574.88 29.39 574.88 154.81 572.76 156.93
C 570.61 159.08 29.39 159.08 27.24 156.93"/>
<path fill="#ae3c2a" stroke="none" d="
M 300.44 396.33
C 294.07 393.97 295.29 389.65 303.45 385.69
C 306.39 384.27 319.64 380.37 332.91 377.03
C 360.28 370.16 374.47 364.24 383.50 355.94
C 389.67 350.26 395.06 340.51 395.08 334.98
C 395.12 325.59 387.17 311.26 354.92 262.53
C 335.23 232.79 319.63 205.71 314.20 191.82
C 312.80 188.26 311.66 185.08 311.66 184.76
C 311.66 184.45 324.49 184.21 340.18 184.22
L 368.71 184.24
L 372.50 191.89
C 374.59 196.11 383.72 214.19 392.79 232.09
C 409.36 264.80 418.43 285.50 432.58 322.95
C 436.79 334.09 443.30 349.53 447.04 357.24
C 455.42 374.52 456.28 378.68 452.83 385.45
C 450.34 390.32 443.14 395.40 438.72 395.40
C 437.69 395.40 431.18 393.44 424.26 391.03
C 409.39 385.86 406.71 386.01 396.13 392.54
L 388.58 397.21
L 345.93 397.30
C 322.47 397.34 302.00 396.90 300.44 396.33"/>
<path fill="#ae3c2a" stroke="none" d="
M 50.88 395.47
C 46.07 393.51 45.14 391.16 47.82 387.75
C 51.41 383.17 56.88 381.01 83.36 373.72
C 125.01 362.24 139.10 353.30 156.66 327.25
C 167.37 311.36 174.49 295.19 189.60 252.35
C 198.48 227.14 209.52 199.07 214.44 189.11
L 216.56 184.81
L 249.39 184.48
C 268.55 184.29 282.21 184.62 282.21 185.28
C 282.21 185.89 281.04 190.17 279.61 194.80
C 274.75 210.57 264.85 228.32 236.16 272.61
C 215.99 303.76 203.55 324.76 200.33 333.07
C 198.75 337.16 198.29 342.87 198.23 359.18
C 198.17 373.08 197.66 380.93 196.66 382.65
C 194.55 386.35 186.94 392.79 183.72 393.60
C 182.21 393.97 175.53 392.60 168.87 390.54
C 162.21 388.49 154.72 386.81 152.23 386.81
C 149.75 386.81 141.13 388.44 133.07 390.44
C 125.01 392.46 113.44 394.66 107.36 395.36
C 94.32 396.84 54.47 396.91 50.88 395.47"/>
</g>
</svg>
