<?xml version="1.0" encoding="UTF-8" standalone="no"?>
<!DOCTYPE svg PUBLIC "-//W3C//DTD SVG 1.1//EN"
"http://www.w3.org/Graphics/SVG/1.1/DTD/svg11.dtd">
<svg width="679px" height="400px"
xmlns="http://www.w3.org/2000/svg" version="1.1">
<g transform="translate(0000, 0000) scale(1.0000, 1.0000)">
<path fill="#000000" stroke="none" d="
M 1.62 398.38
C 0.39 397.16 0.00 376.03 0.00 311.52
C 0.00 228.05 0.05 226.21 2.69 223.57
C 5.25 221.01 7.33 220.86 43.45 220.67
C 64.38 220.57 79.73 220.20 77.55 219.89
C 71.11 218.94 54.72 211.95 46.29 206.55
C 33.25 198.22 19.97 183.41 12.84 169.25
C 9.42 162.45 6.33 155.08 5.97 152.86
C 5.60 150.64 5.03 148.00 4.66 147.00
C 2.98 142.25 0.00 125.35 0.00 120.54
C 0.00 115.78 0.98 109.90 5.46 88.05
C 8.23 74.51 20.63 54.64 33.72 42.77
L 42.84 34.51
L 40.28 29.74
C 37.80 25.12 36.95 15.78 38.49 10.10
C 38.88 8.62 41.45 5.90 44.19 4.04
L 49.17 0.67
L 101.66 0.27
C 147.70 -0.09 154.86 0.12 159.93 2.06
C 163.11 3.27 166.62 5.56 167.73 7.15
C 170.77 11.49 170.40 25.27 167.10 30.26
L 164.46 34.28
L 173.60 42.63
C 189.92 57.51 200.61 76.73 204.60 98.32
C 214.85 153.80 185.23 204.65 134.72 218.28
C 126.15 220.59 128.03 220.63 221.62 220.61
C 301.40 220.58 316.15 220.30 310.53 218.87
C 274.77 209.83 247.09 180.86 239.77 144.78
C 238.86 140.34 237.60 134.57 236.95 131.99
C 235.04 124.30 235.58 115.56 239.01 98.67
C 243.90 74.56 253.18 57.54 269.47 42.79
L 278.58 34.53
L 275.87 29.35
C 271.99 21.91 272.95 8.88 277.62 5.25
C 283.79 0.48 289.50 0.01 340.85 0.04
C 387.51 0.05 391.80 0.26 396.99 2.61
C 404.07 5.83 405.51 8.57 405.51 18.90
C 405.51 25.19 404.85 28.03 402.78 30.65
L 400.06 34.13
L 409.29 42.55
C 425.68 57.51 436.38 76.70 440.37 98.32
C 448.36 141.55 432.09 183.35 398.76 205.31
C 387.93 212.44 382.09 215.11 370.49 218.26
C 361.90 220.59 363.59 220.63 457.38 220.63
C 551.18 220.63 552.86 220.59 544.28 218.26
C 532.68 215.11 526.83 212.44 516.00 205.31
C 493.99 190.80 480.39 169.36 474.28 139.46
C 470.77 122.36 470.83 118.09 474.77 98.67
C 479.67 74.56 488.95 57.54 505.24 42.79
L 514.34 34.53
L 511.62 29.31
C 509.41 25.08 509.03 22.49 509.64 15.82
C 511.03 0.46 512.89 0.01 576.31 0.01
C 629.68 0.00 632.10 0.26 638.46 6.61
C 642.36 10.51 642.45 24.46 638.62 30.26
L 635.98 34.28
L 645.13 42.63
C 654.86 51.49 664.68 64.98 669.52 76.09
C 673.13 84.40 679.00 111.50 679.00 119.87
C 679.00 128.35 673.10 155.42 669.45 163.64
C 661.88 180.73 648.32 196.59 632.86 206.46
C 623.13 212.69 617.30 215.27 606.25 218.26
L 597.49 220.63
L 635.55 220.75
C 671.73 220.88 673.75 221.01 676.31 223.57
C 678.95 226.21 679.00 228.05 679.00 311.52
C 679.00 397.64 678.88 400.05 674.35 399.97
C 673.57 399.97 652.93 380.88 628.48 357.56
L 584.02 315.18
L 339.00 315.16
L 93.98 315.15
L 50.53 357.58
C 26.63 380.90 6.21 400.00 5.16 400.00
C 4.10 400.00 2.51 399.27 1.62 398.38
M 66.78 329.62
L 89.77 307.07
L 338.66 307.07
L 587.55 307.07
L 595.15 314.14
C 599.31 318.03 618.23 335.97 637.17 354.02
L 671.59 386.83
L 671.94 309.72
C 672.20 253.90 671.86 232.12 670.77 230.79
C 668.64 228.24 12.25 228.03 9.70 230.57
C 8.47 231.80 8.08 251.21 8.08 309.68
L 8.08 387.16
L 25.93 369.66
C 35.76 360.03 54.13 342.01 66.78 329.62
M 125.56 210.13
C 137.86 206.75 147.48 202.05 157.62 194.45
C 164.66 189.20 177.91 175.78 181.54 170.25
C 185.36 164.43 193.16 147.11 194.23 142.09
C 198.03 124.28 198.42 119.74 196.91 111.45
C 193.74 94.02 192.83 91.12 186.67 78.87
C 181.35 68.30 178.40 64.40 167.97 54.25
C 158.06 44.57 153.26 41.04 143.78 36.39
C 137.27 33.21 129.68 30.14 126.94 29.58
C 108.94 25.87 105.03 25.40 98.81 26.13
C 74.46 28.96 52.91 39.65 37.01 56.78
C 24.47 70.29 20.22 77.74 14.04 97.13
C 9.03 112.86 8.58 121.35 12.04 134.75
C 13.66 141.01 15.22 147.22 15.51 148.55
C 16.13 151.42 23.08 166.02 24.28 167.00
C 24.73 167.38 26.98 170.41 29.28 173.74
C 33.99 180.59 44.16 190.61 51.19 195.35
C 53.78 197.09 56.22 198.88 56.58 199.33
C 58.55 201.67 74.50 208.11 85.31 210.92
C 99.82 214.69 109.69 214.51 125.56 210.13
M 361.32 210.13
C 400.33 199.41 428.47 166.02 433.27 124.79
C 433.99 118.59 433.50 114.48 429.86 96.89
C 429.00 92.73 422.93 79.45 416.95 68.62
C 415.91 66.73 409.73 60.03 403.21 53.72
C 393.97 44.78 388.77 40.98 379.54 36.43
C 373.03 33.23 365.45 30.14 362.70 29.58
C 344.70 25.87 340.79 25.40 334.57 26.13
C 310.22 28.96 288.67 39.65 272.77 56.78
C 256.89 73.87 250.21 87.95 246.25 112.61
C 244.87 121.20 245.03 123.54 247.85 135.50
C 251.28 150.07 256.93 163.34 263.26 171.72
C 269.93 180.54 279.16 189.86 285.61 194.30
C 288.94 196.59 291.97 198.84 292.35 199.30
C 294.93 202.48 312.87 209.17 328.72 212.89
C 335.73 214.53 349.60 213.36 361.32 210.13
M 596.55 210.28
C 618.81 204.09 636.31 191.81 651.50 171.72
C 656.26 165.43 663.75 150.22 664.72 144.90
C 665.08 142.87 666.15 138.98 667.08 136.26
C 671.36 123.69 668.11 99.57 659.79 82.15
C 648.01 57.52 620.42 34.13 597.55 29.37
C 575.68 24.84 574.46 24.84 553.03 29.40
C 548.01 30.46 530.68 38.26 524.86 42.09
C 519.33 45.71 505.91 58.96 500.65 65.99
C 486.52 84.86 478.65 111.80 482.17 129.29
C 487.07 153.80 493.42 166.69 508.54 182.95
C 523.07 198.57 538.43 206.79 564.49 212.89
C 571.41 214.52 585.34 213.37 596.55 210.28
M 63.99 24.47
C 78.22 19.07 98.52 15.52 108.69 16.63
C 124.93 18.41 137.07 21.21 146.82 25.43
C 156.20 29.47 157.01 29.60 158.58 27.45
C 163.01 21.40 161.75 11.72 156.28 9.68
C 154.89 9.17 130.33 9.05 101.69 9.43
C 52.12 10.07 49.54 10.22 47.72 12.71
C 46.67 14.15 45.81 16.35 45.81 17.60
C 45.81 21.64 49.91 29.89 51.60 29.21
C 52.49 28.85 58.07 26.72 63.99 24.47
M 296.39 25.49
C 322.67 14.32 356.58 14.30 382.58 25.45
C 391.96 29.47 392.77 29.60 394.35 27.45
C 397.38 23.31 397.93 16.44 395.53 12.79
L 393.32 9.43
L 339.54 9.43
L 285.76 9.43
L 283.67 12.42
C 282.51 14.06 281.57 16.42 281.57 17.64
C 281.57 19.97 285.27 29.63 286.16 29.63
C 286.45 29.63 291.05 27.77 296.39 25.49
M 532.15 25.49
C 558.36 14.34 592.35 14.30 618.17 25.37
C 623.62 27.72 628.51 29.35 629.05 29.02
C 629.58 28.69 630.85 25.90 631.87 22.81
C 633.46 17.99 633.45 16.73 631.73 13.66
L 629.72 10.10
L 575.88 9.74
C 522.35 9.37 522.04 9.39 519.69 12.24
C 518.40 13.82 517.33 16.19 517.33 17.49
C 517.33 19.93 521.00 29.63 521.93 29.63
C 522.21 29.63 526.82 27.77 532.15 25.49"/>
<path fill="#c55436" stroke="none" d="
M 47.89 24.88
C 45.12 18.24 45.27 15.35 48.50 12.12
C 51.10 9.52 52.99 9.43 104.38 9.43
L 157.56 9.43
L 159.77 12.79
C 162.17 16.44 161.61 23.31 158.58 27.45
C 157.01 29.60 156.20 29.47 146.82 25.43
C 137.07 21.21 124.93 18.41 108.69 16.63
C 95.57 15.19 74.89 19.74 51.60 29.21
C 50.68 29.59 49.08 27.72 47.89 24.88"/>
<path fill="#c55436" stroke="none" d="
M 283.60 24.75
C 281.03 18.59 281.04 16.16 283.67 12.42
L 285.76 9.43
L 339.54 9.43
L 393.32 9.43
L 395.53 12.79
C 397.93 16.44 397.38 23.31 394.35 27.45
C 392.77 29.60 391.96 29.47 382.58 25.45
C 356.58 14.30 322.67 14.32 296.39 25.49
C 291.05 27.77 286.45 29.63 286.16 29.63
C 285.88 29.63 284.74 27.43 283.60 24.75"/>
<path fill="#c55436" stroke="none" d="
M 519.37 24.75
C 516.73 18.44 516.79 15.76 519.69 12.24
C 522.04 9.39 522.35 9.37 575.88 9.74
L 629.72 10.10
L 631.73 13.66
C 633.45 16.73 633.46 17.99 631.87 22.81
C 630.85 25.90 629.58 28.69 629.05 29.02
C 628.51 29.35 623.62 27.72 618.17 25.37
C 592.35 14.30 558.36 14.34 532.15 25.49
C 526.82 27.77 522.21 29.63 521.93 29.63
C 521.64 29.63 520.50 27.43 519.37 24.75"/>
<path fill="#c57a36" stroke="none" d="
M 85.31 210.92
C 74.50 208.11 58.55 201.67 56.58 199.33
C 56.22 198.88 53.78 197.09 51.19 195.35
C 44.16 190.61 33.99 180.59 29.28 173.74
C 26.98 170.41 24.73 167.38 24.28 167.00
C 23.08 166.02 16.13 151.42 15.51 148.55
C 15.22 147.22 13.66 141.01 12.04 134.75
C 8.58 121.35 9.03 112.86 14.04 97.13
C 20.22 77.74 24.47 70.29 37.01 56.78
C 52.96 39.60 73.64 29.32 98.40 26.26
C 105.20 25.43 108.79 25.85 126.94 29.58
C 129.68 30.14 137.27 33.21 143.78 36.39
C 153.26 41.04 158.06 44.57 167.97 54.25
C 178.40 64.40 181.35 68.30 186.67 78.87
C 192.83 91.12 193.74 94.02 196.91 111.45
C 198.42 119.74 198.03 124.28 194.23 142.09
C 193.16 147.11 185.36 164.43 181.54 170.25
C 177.91 175.78 164.66 189.20 157.62 194.45
C 147.48 202.05 137.86 206.75 125.56 210.13
C 109.69 214.51 99.82 214.69 85.31 210.92"/>
<path fill="#c57a36" stroke="none" d="
M 328.72 212.89
C 312.87 209.17 294.93 202.48 292.35 199.30
C 291.97 198.84 288.94 196.59 285.61 194.30
C 279.16 189.86 269.93 180.54 263.26 171.72
C 256.93 163.34 251.28 150.07 247.85 135.50
C 245.03 123.54 244.87 121.20 246.25 112.61
C 250.21 87.95 256.89 73.87 272.77 56.78
C 288.67 39.65 310.22 28.96 334.57 26.13
C 340.79 25.40 344.70 25.87 362.70 29.58
C 365.45 30.14 373.03 33.23 379.54 36.43
C 388.77 40.98 393.97 44.78 403.21 53.72
C 409.73 60.03 415.91 66.73 416.95 68.62
C 422.93 79.45 429.00 92.73 429.86 96.89
C 433.50 114.48 433.99 118.59 433.27 124.79
C 428.47 166.02 400.33 199.41 361.32 210.13
C 349.60 213.36 335.73 214.53 328.72 212.89"/>
<path fill="#c57a36" stroke="none" d="
M 564.49 212.89
C 538.43 206.79 523.07 198.57 508.54 182.95
C 493.42 166.69 487.07 153.80 482.17 129.29
C 478.65 111.80 486.52 84.86 500.65 65.99
C 505.91 58.96 519.33 45.71 524.86 42.09
C 530.68 38.26 548.01 30.46 553.03 29.40
C 574.46 24.84 575.68 24.84 597.55 29.37
C 620.42 34.13 648.01 57.52 659.79 82.15
C 668.11 99.57 671.36 123.69 667.08 136.26
C 666.15 138.98 665.08 142.87 664.72 144.90
C 663.75 150.22 656.26 165.43 651.50 171.72
C 640.83 185.83 627.44 197.31 614.06 203.81
C 598.48 211.38 575.78 215.54 564.49 212.89"/>
<path fill="#27d5ff" stroke="none" d="
M 8.08 309.45
C 8.08 234.01 8.16 231.70 10.68 230.36
C 12.46 229.40 117.76 228.96 341.26 228.96
C 616.44 228.96 669.49 229.25 670.77 230.79
C 671.86 232.12 672.20 253.90 671.94 309.72
L 671.59 386.83
L 637.17 354.02
C 618.23 335.97 599.31 318.03 595.15 314.14
L 587.55 307.07
L 338.66 307.07
L 89.77 307.07
L 66.78 329.62
C 54.13 342.01 35.76 360.03 25.93 369.66
L 8.08 387.16
L 8.08 309.45"/>
</g>
</svg>
