<?xml version="1.0" encoding="UTF-8" standalone="no"?>
<!DOCTYPE svg PUBLIC "-//W3C//DTD SVG 1.1//EN"
"http://www.w3.org/Graphics/SVG/1.1/DTD/svg11.dtd">
<svg width="600px" height="600px"
xmlns="http://www.w3.org/2000/svg" version="1.1">
<g transform="translate(0000, 0000) scale(1.0000, 1.0000)">
<path fill="#000000" stroke="none" d="
M 263.16 598.67
C 227.14 594.13 193.33 584.08 163.16 568.97
C 81.16 527.87 23.12 451.52 4.88 360.72
C -0.38 334.42 -0.38 265.58 4.88 239.28
C 28.78 120.29 120.55 28.55 239.28 4.93
C 265.77 -0.34 334.65 -0.36 360.72 4.88
C 479.79 28.86 571.22 120.29 595.12 239.28
C 600.38 265.58 600.38 334.42 595.12 360.72
C 571.52 478.19 482.17 568.91 365.26 594.06
C 346.72 598.06 281.54 601.01 263.16 598.67
M 349.22 582.06
C 465.83 559.68 559.12 466.08 582.42 348.08
C 587.37 322.99 587.37 277.01 582.42 251.92
C 559.03 133.41 466.59 40.97 348.08 17.58
C 322.99 12.63 277.01 12.63 251.92 17.58
C 133.41 40.97 40.97 133.41 17.58 251.92
C 12.63 277.01 12.63 322.99 17.58 348.08
C 28.95 405.68 57.75 459.79 98.99 501.01
C 146.21 548.25 206.53 577.24 275.79 586.06
C 289.33 587.77 331.37 585.49 349.22 582.06"/>
<path fill="#000000" stroke="none" d="
M 275.12 348.53
C 244.61 339.79 227.12 310.69 233.43 279.26
C 240.32 244.93 269.64 224.84 303.64 231.18
C 329.26 235.94 346.17 252.44 351.60 277.96
C 358.04 308.32 341.12 339.52 313.92 347.45
C 301.16 351.16 285.79 351.60 275.12 348.53
M 313.24 329.18
C 330.53 319.14 341.16 298.15 336.93 282.42
C 332.44 265.75 315.39 249.41 298.34 245.45
C 277.01 240.51 247.62 266.63 247.62 290.53
C 247.62 314.08 274.97 339.14 296.84 335.60
C 300.91 334.95 308.27 332.06 313.24 329.18"/>
<path fill="#ffda53" stroke="none" d="
M 275.79 586.06
C 206.53 577.24 146.21 548.25 98.99 501.01
C 57.75 459.79 28.95 405.68 17.58 348.08
C 12.63 322.99 12.63 277.01 17.58 251.92
C 40.97 133.41 133.71 40.69 251.92 17.62
C 277.22 12.69 323.26 12.67 348.08 17.58
C 466.65 41.03 559.03 133.41 582.42 251.92
C 587.37 277.01 587.37 322.99 582.42 348.08
C 559.12 466.08 465.83 559.68 349.22 582.06
C 331.37 585.49 289.33 587.77 275.79 586.06
M 313.92 347.45
C 341.12 339.52 358.04 308.32 351.60 277.96
C 346.17 252.44 329.26 235.94 303.64 231.18
C 269.64 224.84 240.32 244.93 233.43 279.26
C 224.00 326.13 265.77 361.49 313.92 347.45"/>
<path fill="#ffda53" stroke="none" d="
M 281.58 333.92
C 262.29 326.86 247.62 308.11 247.62 290.53
C 247.62 266.63 277.01 240.51 298.34 245.45
C 315.39 249.41 332.44 265.75 336.93 282.42
C 344.46 310.38 308.55 343.77 281.58 333.92"/>
</g>
</svg>
