<?xml version="1.0" encoding="UTF-8" standalone="no"?>
<!DOCTYPE svg PUBLIC "-//W3C//DTD SVG 1.1//EN"
"http://www.w3.org/Graphics/SVG/1.1/DTD/svg11.dtd">
<svg width="754px" height="500px"
xmlns="http://www.w3.org/2000/svg" version="1.1">
<g transform="translate(0000, 0000) scale(1.0000, 1.0000)">
<path fill="#000000" stroke="none" d="
M 408.71 498.89
C 351.68 491.69 301.32 467.75 261.96 429.15
C 249.52 416.95 245.67 414.10 243.80 415.67
C 242.48 416.74 236.44 426.02 230.36 436.27
C 209.48 471.53 190.19 486.60 159.73 491.48
C 131.12 496.06 99.13 484.60 75.58 461.30
C 46.28 432.34 39.87 403.84 46.90 333.86
C 48.71 315.69 49.36 298.80 48.69 286.97
C 47.55 266.57 39.32 214.26 32.47 183.63
C 28.17 164.45 28.13 163.59 30.90 152.89
C 34.35 139.56 36.87 134.44 47.00 120.14
C 55.32 108.42 55.69 104.65 48.27 107.46
C 36.68 111.87 12.21 105.77 4.44 96.55
C -9.74 79.70 14.59 48.49 48.69 39.74
C 63.03 36.07 70.56 36.25 86.34 40.62
C 112.59 47.89 133.43 62.82 156.93 91.16
C 173.12 110.70 180.45 124.51 183.30 140.85
C 187.53 165.07 179.67 192.62 145.88 272.01
C 115.95 342.32 106.58 377.68 110.60 405.19
C 114.12 429.38 123.44 443.57 139.91 449.86
L 147.98 452.94
L 159.26 447.39
C 172.63 440.83 188.13 425.09 197.31 408.75
C 200.69 402.71 206.87 391.92 211.05 384.75
L 218.62 371.74
L 212.58 359.72
C 198.82 332.41 186.74 281.39 186.74 250.62
C 186.74 231.36 193.98 189.70 200.92 169.01
C 229.35 84.26 300.74 21.60 388.73 4.12
C 410.82 -0.26 466.85 -0.28 488.58 4.08
C 606.44 27.78 689.42 129.37 689.42 250.00
C 689.42 266.65 688.29 279.88 685.66 294.21
L 681.91 314.65
L 687.95 341.37
C 699.93 394.38 704.39 405.00 727.56 435.74
C 759.32 477.89 761.91 493.49 735.77 485.04
C 706.01 475.42 685.91 448.40 668.07 393.98
L 660.16 369.84
L 654.22 379.70
C 629.54 420.65 594.80 452.80 552.29 474.01
C 516.74 491.76 489.43 498.17 445.71 499.05
C 428.76 499.40 412.11 499.33 408.71 498.89
M 480.73 486.78
C 578.38 467.98 656.70 389.42 675.82 291.09
C 679.90 270.09 679.90 229.91 675.82 208.91
C 656.61 110.16 578.98 32.55 479.78 12.94
C 458.67 8.77 418.65 8.77 397.54 12.94
C 298.32 32.55 221.07 109.75 201.45 208.91
C 197.27 230.00 197.27 270.00 201.45 291.09
C 210.98 339.30 235.08 384.51 269.57 418.98
C 309.09 458.49 359.56 482.73 417.52 490.11
C 429.06 491.57 465.91 489.63 480.73 486.78
M 168.73 479.70
C 181.49 475.92 197.94 464.24 206.70 452.75
C 210.89 447.27 219.66 433.84 226.22 422.92
L 238.13 403.06
L 232.51 394.31
C 229.42 389.51 226.22 385.56 225.41 385.56
C 223.08 385.56 216.04 395.79 208.99 409.35
C 193.20 439.82 167.38 461.30 146.62 461.25
C 137.46 461.23 123.53 454.30 116.45 446.23
C 108.75 437.46 104.61 427.96 102.30 413.71
C 96.45 377.66 104.26 344.74 137.24 266.34
C 173.54 180.05 178.58 161.06 171.80 135.63
C 165.39 111.51 126.75 69.58 97.28 54.74
C 93.14 52.64 84.31 49.70 77.65 48.20
C 66.63 45.72 64.57 45.72 54.42 48.33
C 48.29 49.89 39.69 53.49 35.29 56.30
C 25.07 62.87 13.07 75.18 10.68 81.51
C 9.07 85.79 9.39 86.99 13.09 90.40
C 15.43 92.57 21.63 95.69 26.87 97.34
C 36.31 100.32 36.57 100.30 60.90 94.84
C 96.01 86.99 119.79 87.11 119.79 95.16
C 119.79 100.00 116.61 100.83 106.56 98.59
C 99.69 97.04 95.31 97.25 84.14 99.67
C 71.82 102.32 69.96 103.26 67.51 108.01
C 65.99 110.95 59.77 120.62 53.71 129.51
C 38.05 152.41 37.51 156.00 44.15 192.15
C 58.40 269.77 59.91 289.40 55.49 337.98
C 50.95 387.87 52.92 407.31 64.83 430.67
C 76.76 454.01 105.24 475.42 132.57 481.57
C 144.62 484.28 155.15 483.73 168.73 479.70
M 737.97 468.84
C 735.71 465.16 726.76 452.64 718.10 441.02
C 709.43 429.40 699.99 414.74 697.12 408.45
C 694.24 402.17 688.36 383.13 684.03 366.20
C 679.71 349.26 675.99 335.21 675.76 334.98
C 675.55 334.75 673.39 339.65 670.94 345.85
L 666.51 357.13
L 675.69 385.19
C 687.94 422.61 698.51 442.96 713.39 457.83
C 723.22 467.66 739.31 478.17 741.42 476.14
C 741.77 475.81 740.22 472.52 737.97 468.84"/>
<path fill="#000000" stroke="none" d="
M 419.63 297.83
C 399.62 290.69 386.72 273.05 386.78 252.82
C 386.81 230.97 395.43 215.90 413.01 206.92
C 437.39 194.45 467.64 203.73 479.74 227.36
C 492.85 252.96 483.65 282.87 458.99 294.95
C 446.22 301.18 431.96 302.22 419.63 297.83
M 454.14 284.12
C 467.85 276.09 477.12 258.71 474.67 245.62
C 471.94 231.07 455.84 214.98 441.28 212.25
C 421.24 208.50 397.38 229.47 397.38 250.88
C 397.38 271.78 419.72 292.25 439.54 289.52
C 443.42 289.00 449.99 286.55 454.14 284.12"/>
<path fill="#000000" stroke="none" d="
M 40.52 77.46
C 33.54 70.49 38.62 58.10 48.45 58.10
C 58.28 58.10 63.35 70.49 56.37 77.46
C 54.44 79.40 50.88 80.99 48.45 80.99
C 46.02 80.99 42.46 79.40 40.52 77.46"/>
<path fill="#ffda53" stroke="none" d="
M 417.52 490.11
C 359.56 482.73 309.09 458.49 269.57 418.98
C 235.08 384.51 210.98 339.30 201.45 291.09
C 197.27 270.00 197.27 230.00 201.45 208.91
C 221.07 109.77 298.59 32.31 397.54 12.98
C 418.82 8.82 458.90 8.80 479.78 12.94
C 579.03 32.61 656.61 110.16 675.82 208.91
C 679.90 229.91 679.90 270.09 675.82 291.09
C 656.70 389.42 578.38 467.98 480.73 486.78
C 465.91 489.63 429.06 491.57 417.52 490.11
M 458.99 294.95
C 483.65 282.87 492.85 252.96 479.74 227.36
C 471.04 210.35 455.69 201.71 434.08 201.67
C 413.96 201.62 394.58 215.81 389.00 234.67
C 375.96 278.61 418.14 314.91 458.99 294.95"/>
<path fill="#ffda53" stroke="none" d="
M 425.89 288.06
C 409.33 281.95 397.38 266.37 397.38 250.88
C 397.38 229.47 421.24 208.50 441.28 212.25
C 455.84 214.98 471.94 231.07 474.67 245.62
C 479.25 270.04 448.81 296.51 425.89 288.06"/>
<path fill="#169d19" stroke="none" d="
M 132.57 481.57
C 105.24 475.42 76.76 454.01 64.83 430.67
C 52.92 407.31 50.95 387.87 55.49 337.98
C 59.91 289.40 58.40 269.77 44.15 192.15
C 37.51 156.00 38.05 152.41 53.71 129.51
C 59.77 120.62 65.99 110.95 67.51 108.01
C 69.96 103.26 71.82 102.32 84.14 99.67
C 95.31 97.25 99.69 97.04 106.56 98.59
C 116.61 100.83 119.79 100.00 119.79 95.16
C 119.79 87.11 96.01 86.99 60.90 94.84
C 36.57 100.30 36.31 100.32 26.87 97.34
C 21.63 95.69 15.45 92.59 13.12 90.44
C 9.42 87.01 9.13 85.86 10.78 81.16
C 13.12 74.40 30.72 57.98 40.87 53.06
C 64.13 41.81 86.82 45.79 115.53 66.11
C 138.27 82.22 167.04 117.76 171.80 135.63
C 178.58 161.06 173.54 180.05 137.24 266.34
C 104.26 344.74 96.45 377.66 102.30 413.71
C 104.61 427.96 108.75 437.46 116.45 446.23
C 123.53 454.30 137.46 461.23 146.62 461.25
C 167.38 461.30 193.20 439.82 208.99 409.35
C 216.04 395.79 223.08 385.56 225.41 385.56
C 226.22 385.56 229.42 389.51 232.51 394.31
L 238.13 403.06
L 226.22 422.92
C 209.53 450.72 200.76 461.60 188.34 469.89
C 170.50 481.81 151.40 485.81 132.57 481.57
M 56.37 77.46
C 63.35 70.49 58.28 58.10 48.45 58.10
C 42.79 58.10 37.00 63.89 37.00 69.54
C 37.00 71.97 38.58 75.53 40.52 77.46
C 42.46 79.40 46.02 80.99 48.45 80.99
C 50.88 80.99 54.44 79.40 56.37 77.46"/>
<path fill="#169d19" stroke="none" d="
M 732.86 473.06
C 728.49 471.04 719.74 464.19 713.39 457.83
C 698.51 442.96 687.94 422.61 675.69 385.19
L 666.51 357.13
L 670.94 345.85
C 673.39 339.65 675.55 334.75 675.76 334.98
C 675.99 335.21 679.71 349.26 684.03 366.20
C 688.36 383.13 694.24 402.17 697.12 408.45
C 699.99 414.74 709.43 429.40 718.10 441.02
C 734.46 462.96 742.53 475.11 741.42 476.14
C 741.07 476.48 737.23 475.11 732.86 473.06"/>
</g>
</svg>
