<?xml version="1.0" encoding="UTF-8" standalone="no"?>
<!DOCTYPE svg PUBLIC "-//W3C//DTD SVG 1.1//EN"
"http://www.w3.org/Graphics/SVG/1.1/DTD/svg11.dtd">
<svg width="420px" height="600px"
xmlns="http://www.w3.org/2000/svg" version="1.1">
<g transform="translate(0000, 0000) scale(1.0000, 1.0000)">
<path fill="#000000" stroke="none" d="
M 198.02 596.81
C 194.88 593.66 194.83 591.49 194.83 443.89
L 194.83 294.16
L 178.67 291.49
C 169.71 290.03 156.55 286.45 149.12 283.48
C 137.48 278.81 135.74 278.47 135.74 280.85
C 135.74 282.37 133.54 288.91 130.84 295.39
C 122.77 314.84 98.52 383.94 71.80 463.66
C 44.92 543.86 27.53 589.48 22.13 594.02
C 20.22 595.63 16.18 596.81 12.60 596.81
C -0.21 596.81 -3.32 586.53 4.10 568.88
C 18.35 535.07 26.64 512.46 45.05 457.18
C 76.45 362.90 109.55 270.19 113.24 266.11
C 113.82 265.47 108.11 258.64 100.54 250.95
C 78.33 228.37 66.70 205.40 60.75 172.31
C 56.69 149.79 56.69 144.70 60.75 121.71
C 66.85 87.14 78.23 65.01 102.05 41.49
C 131.09 12.77 163.54 0.00 207.51 0.00
C 248.47 0.00 282.47 13.88 310.75 42.14
C 333.64 65.01 345.18 87.59 351.27 121.31
C 355.36 144.02 355.36 151.95 351.20 173.46
C 345.12 205.02 333.65 227.97 313.39 249.16
C 305.23 257.70 301.68 262.55 302.22 264.48
C 302.66 266.03 329.32 337.13 361.50 422.49
C 402.66 531.72 420.00 579.59 420.00 584.06
C 420.00 592.44 415.72 596.81 407.53 596.81
C 404.19 596.81 400.25 595.91 398.79 594.81
C 397.34 593.71 369.54 522.14 337.01 435.78
C 304.49 349.40 277.68 278.54 277.42 278.28
C 277.18 278.03 270.80 280.31 263.24 283.34
C 255.50 286.45 242.47 290.01 233.35 291.49
L 217.19 294.16
L 217.19 443.89
C 217.19 591.49 217.14 593.66 213.99 596.81
C 212.22 598.58 208.67 600.00 206.01 600.00
C 203.34 600.00 199.80 598.58 198.02 596.81
M 209.14 590.54
C 210.26 588.46 210.80 538.76 210.80 440.54
L 210.80 293.62
L 206.01 293.62
L 201.22 293.62
L 201.22 440.54
C 201.22 583.63 201.54 593.62 206.01 593.62
C 206.82 593.62 208.24 592.23 209.14 590.54
M 28.47 561.51
C 34.03 548.01 50.29 502.15 64.58 459.57
C 92.34 376.96 116.47 308.23 124.45 289.01
C 127.15 282.53 129.35 276.72 129.35 276.10
C 129.35 274.24 120.97 271.02 119.72 272.39
C 115.94 276.54 83.25 368.06 51.44 463.56
C 32.51 520.37 21.51 550.29 10.62 574.66
C 6.93 582.89 6.80 583.93 9.05 587.12
C 13.49 593.47 17.47 588.22 28.47 561.51
M 412.65 586.26
C 413.15 584.98 387.25 514.12 355.08 428.81
C 322.94 343.48 296.17 272.07 295.63 270.14
L 294.64 266.62
L 289.56 269.84
L 284.47 273.05
L 288.52 283.74
C 290.74 289.61 317.30 360.11 347.55 440.43
C 377.78 520.74 403.65 587.28 405.02 588.32
C 407.94 590.52 411.38 589.58 412.65 586.26
M 225.94 281.62
C 255.75 276.41 279.36 263.82 301.83 241.12
C 325.25 217.45 337.93 191.70 341.97 159.51
C 343.59 146.65 343.47 142.12 341.22 128.79
C 335.89 97.40 323.61 74.01 300.39 51.06
C 276.70 27.65 250.93 14.98 218.72 10.95
C 205.85 9.34 201.31 9.45 187.98 11.70
C 156.57 17.03 133.15 29.30 110.19 52.50
C 86.76 76.16 74.08 101.92 70.04 134.11
C 65.35 171.45 80.57 211.64 110.84 241.90
C 132.32 263.36 156.74 276.45 184.77 281.51
C 201.33 284.49 209.27 284.52 225.94 281.62"/>
<path fill="#000000" stroke="none" d="
M 196.63 174.73
C 187.16 171.78 180.95 165.38 177.77 155.35
C 172.49 138.61 180.57 121.07 195.96 115.82
C 205.26 112.66 209.92 112.64 219.07 115.76
C 227.97 118.79 233.86 124.71 237.08 133.87
C 240.18 142.64 240.18 147.56 237.08 156.67
C 234.05 165.56 228.13 171.45 218.96 174.67
C 210.61 177.62 205.91 177.62 196.63 174.73
M 212.41 164.36
C 215.29 164.36 224.12 155.47 226.21 150.48
C 228.08 145.99 228.08 144.43 226.19 140.03
C 221.80 129.72 211.04 123.24 203.21 126.21
C 192.80 130.15 185.57 141.65 188.55 149.52
C 191.81 158.11 203.45 167.01 208.93 165.10
C 210.10 164.70 211.66 164.36 212.41 164.36"/>
<path fill="#ffe753" stroke="none" d="
M 202.88 590.54
C 201.76 588.46 201.22 538.76 201.22 440.54
L 201.22 293.62
L 206.01 293.62
L 210.80 293.62
L 210.80 440.54
C 210.80 583.63 210.48 593.62 206.01 593.62
C 205.19 593.62 203.77 592.23 202.88 590.54"/>
<path fill="#ffe753" stroke="none" d="
M 9.05 587.12
C 6.80 583.93 6.93 582.89 10.62 574.66
C 21.51 550.29 32.51 520.37 51.44 463.56
C 83.25 368.06 115.94 276.54 119.72 272.39
C 120.97 271.02 129.35 274.24 129.35 276.10
C 129.35 276.72 127.15 282.53 124.45 289.01
C 116.47 308.23 92.34 376.96 64.58 459.57
C 36.44 543.34 20.50 584.63 14.93 588.34
C 11.82 590.39 11.26 590.27 9.05 587.12"/>
<path fill="#ffe753" stroke="none" d="
M 405.02 588.32
C 403.65 587.28 377.78 520.74 347.55 440.43
C 317.30 360.11 290.74 289.61 288.52 283.74
L 284.47 273.05
L 289.56 269.84
L 294.64 266.62
L 295.63 270.14
C 296.17 272.07 322.94 343.48 355.08 428.81
C 387.25 514.12 413.15 584.98 412.65 586.26
C 411.38 589.58 407.94 590.52 405.02 588.32"/>
<path fill="#ffe753" stroke="none" d="
M 184.77 281.51
C 156.20 276.35 132.20 263.36 110.19 241.12
C 86.76 217.45 74.08 191.70 70.04 159.51
C 68.43 146.65 68.54 142.12 70.79 128.79
C 76.13 97.40 88.41 74.01 111.63 51.06
C 135.39 27.57 161.12 14.97 193.39 11.01
C 231.53 6.32 271.12 21.46 301.83 52.50
C 325.25 76.16 337.93 101.92 341.97 134.11
C 346.67 171.45 331.45 211.64 301.17 241.90
C 279.23 263.82 255.21 276.51 225.94 281.62
C 209.27 284.52 201.33 284.49 184.77 281.51
M 218.96 174.67
C 228.13 171.45 234.05 165.56 237.08 156.67
C 240.18 147.56 240.18 142.64 237.08 133.87
C 233.86 124.71 227.97 118.79 219.07 115.76
C 209.92 112.64 205.26 112.66 195.96 115.82
C 186.05 119.20 179.66 126.73 177.13 138.00
C 173.38 154.72 181.51 170.03 196.63 174.73
C 205.91 177.62 210.61 177.62 218.96 174.67"/>
<path fill="#ffe753" stroke="none" d="
M 202.02 163.71
C 196.15 161.11 190.82 155.47 188.55 149.52
C 185.57 141.65 192.80 130.15 203.21 126.21
C 211.04 123.24 221.80 129.72 226.19 140.03
C 228.08 144.43 228.08 145.99 226.21 150.48
C 224.12 155.47 215.29 164.36 212.41 164.36
C 211.66 164.36 210.10 164.70 208.93 165.10
C 207.76 165.51 204.65 164.89 202.02 163.71"/>
</g>
</svg>
