<?xml version="1.0" encoding="UTF-8" standalone="no"?>
<!DOCTYPE svg PUBLIC "-//W3C//DTD SVG 1.1//EN"
"http://www.w3.org/Graphics/SVG/1.1/DTD/svg11.dtd">
<svg width="600px" height="600px"
xmlns="http://www.w3.org/2000/svg" version="1.1">
<g transform="translate(0000, 0000) scale(1.0000, 1.0000)">
<path fill="#000000" stroke="none" d="
M 252.50 597.39
C 203.52 589.71 151.86 567.92 115.18 539.47
C 61.26 497.70 27.14 445.05 8.08 374.28
C 2.13 352.19 1.61 346.07 1.61 300.00
C 1.61 253.93 2.13 247.81 8.08 225.72
C 38.61 112.34 112.57 38.38 225.72 8.13
C 247.71 2.26 254.13 1.68 300.00 1.63
C 346.19 1.58 352.14 2.11 374.28 8.08
C 421.76 20.89 456.23 37.83 490.07 65.02
C 541.71 106.49 573.21 156.23 591.92 225.72
C 597.87 247.81 598.39 253.93 598.39 300.00
C 598.39 346.07 597.87 352.19 591.92 374.28
C 561.39 487.68 486.53 562.47 374.28 591.69
C 354.45 596.86 342.90 598.12 308.79 598.85
C 285.99 599.32 260.69 598.67 252.50 597.39
M 361.73 579.04
C 443.25 558.20 506.74 511.23 547.36 441.72
C 566.38 409.13 582.20 360.75 586.09 323.22
L 587.85 306.28
L 300.00 306.28
L 12.15 306.28
L 13.91 323.22
C 14.89 332.54 18.25 350.44 21.39 362.99
C 51.09 481.26 143.85 565.73 265.05 584.84
C 289.43 588.68 334.52 585.97 361.73 579.04
M 585.99 275.52
C 583.63 253.76 574.37 217.91 565.10 194.79
C 536.38 123.04 476.96 63.62 405.21 34.90
C 365.50 19.00 341.52 14.31 300.00 14.31
C 267.59 14.31 259.00 15.19 238.27 20.71
C 155.40 42.78 93.16 88.90 52.64 158.28
C 33.94 190.32 18.00 238.69 14.01 275.52
L 12.30 291.21
L 300.00 291.21
L 587.70 291.21
L 585.99 275.52"/>
<path fill="#bfbdb7" stroke="none" d="
M 265.05 584.84
C 143.85 565.73 51.09 481.26 21.39 362.99
C 18.25 350.44 14.89 332.54 13.91 323.22
L 12.15 306.28
L 300.00 306.28
L 587.85 306.28
L 586.09 323.22
C 574.97 430.39 503.75 525.64 405.21 565.10
C 360.35 583.05 304.04 590.99 265.05 584.84"/>
<path fill="#bfbdb7" stroke="none" d="
M 14.01 275.52
C 18.00 238.69 33.94 190.32 52.64 158.28
C 93.19 88.87 155.65 42.60 238.27 20.76
C 258.85 15.31 267.82 14.38 300.00 14.33
C 341.55 14.28 365.35 18.93 405.21 34.90
C 476.96 63.62 536.38 123.04 565.10 194.79
C 574.37 217.91 583.63 253.76 585.99 275.52
L 587.70 291.21
L 300.00 291.21
L 12.30 291.21
L 14.01 275.52"/>
</g>
</svg>
