<?xml version="1.0" encoding="UTF-8" standalone="no"?>
<!DOCTYPE svg PUBLIC "-//W3C//DTD SVG 1.1//EN"
"http://www.w3.org/Graphics/SVG/1.1/DTD/svg11.dtd">
<svg width="484px" height="600px"
xmlns="http://www.w3.org/2000/svg" version="1.1">
<g transform="translate(0000, 0000) scale(1.0000, 1.0000)">
<path fill="#000000" stroke="none" d="
M 1.55 598.45
C 0.03 596.93 0.00 595.87 0.00 548.52
C 0.00 501.16 0.03 500.10 1.55 498.58
C 3.08 497.05 4.13 497.03 118.49 497.03
L 233.88 497.03
L 233.68 465.61
L 233.48 434.18
L 225.20 429.41
C 220.65 426.79 214.03 422.56 210.49 420.02
C 201.61 413.63 186.44 398.25 180.86 390.00
L 176.28 383.23
L 139.09 383.23
L 101.90 383.23
L 99.15 385.87
C 95.14 389.76 81.88 398.38 74.57 401.88
C 71.07 403.55 64.45 405.83 59.85 406.95
C 52.19 408.81 51.06 408.91 46.13 408.09
C 32.47 405.79 25.12 401.55 12.59 388.71
C 2.99 378.87 0.96 375.18 1.80 369.01
C 4.75 347.30 9.53 332.93 16.25 325.65
C 19.94 321.65 25.96 318.96 31.20 318.98
C 36.08 318.99 46.42 322.92 53.90 327.59
C 61.88 332.58 74.90 342.85 87.48 354.07
L 96.72 362.32
L 102.57 362.32
L 108.42 362.32
L 106.87 360.77
C 105.38 359.29 105.32 358.20 105.32 334.06
C 105.32 303.26 104.20 305.81 117.71 305.81
L 127.00 305.81
L 127.00 297.68
L 127.00 289.55
L 117.71 289.55
C 105.60 289.55 105.32 289.32 105.32 279.48
C 105.32 269.64 105.60 269.42 117.71 269.42
L 127.00 269.42
L 127.00 258.19
L 127.00 246.97
L 117.71 246.97
C 105.67 246.97 105.32 246.69 105.32 237.29
C 105.32 227.89 105.67 227.61 117.71 227.61
L 127.00 227.61
L 127.00 213.29
L 127.00 198.97
L 117.71 198.97
C 105.77 198.97 105.32 198.63 105.32 189.68
C 105.32 180.72 105.77 180.39 117.71 180.39
L 127.00 180.39
L 127.00 166.06
L 127.00 151.74
L 117.71 151.74
C 105.67 151.74 105.32 151.46 105.32 142.06
C 105.32 132.67 105.67 132.39 117.71 132.39
L 127.00 132.39
L 127.00 121.16
L 127.00 109.94
L 117.71 109.94
C 105.60 109.94 105.32 109.71 105.32 99.87
C 105.32 90.03 105.60 89.81 117.71 89.81
L 127.00 89.81
L 127.00 81.68
L 127.00 73.55
L 117.71 73.55
C 104.20 73.55 105.32 76.10 105.32 45.29
C 105.32 21.16 105.38 20.07 106.87 18.58
C 108.36 17.09 109.45 17.03 138.62 17.03
C 174.47 17.03 171.92 16.32 171.92 26.32
L 171.92 32.52
L 179.27 32.52
L 186.63 32.52
L 186.63 26.32
C 186.63 16.32 184.07 17.03 219.93 17.03
C 249.10 17.03 250.19 17.09 251.68 18.58
C 253.17 20.07 253.23 21.16 253.23 45.29
C 253.23 76.10 254.34 73.55 240.84 73.55
L 231.55 73.55
L 231.55 81.68
L 231.55 89.81
L 240.84 89.81
C 252.95 89.81 253.23 90.03 253.23 99.87
C 253.23 109.71 252.95 109.94 240.84 109.94
L 231.55 109.94
L 231.55 121.16
L 231.55 132.39
L 240.84 132.39
C 252.87 132.39 253.23 132.67 253.23 142.06
C 253.23 151.46 252.87 151.74 240.84 151.74
L 231.55 151.74
L 231.55 166.06
L 231.55 180.39
L 240.84 180.39
C 252.78 180.39 253.23 180.72 253.23 189.68
C 253.23 198.63 252.78 198.97 240.84 198.97
L 231.55 198.97
L 231.55 213.29
L 231.55 227.61
L 240.84 227.61
C 252.87 227.61 253.23 227.89 253.23 237.29
C 253.23 246.69 252.87 246.97 240.84 246.97
L 231.55 246.97
L 231.55 258.19
L 231.55 269.42
L 240.84 269.42
C 252.95 269.42 253.23 269.64 253.23 279.48
C 253.23 289.32 252.95 289.55 240.84 289.55
L 231.55 289.55
L 231.55 297.68
L 231.55 305.81
L 240.84 305.81
C 254.34 305.81 253.23 303.26 253.23 334.06
C 253.23 358.20 253.17 359.29 251.68 360.77
C 250.13 362.32 250.13 362.32 304.11 362.32
L 358.10 362.32
L 354.66 360.58
C 352.69 359.59 350.25 357.45 348.97 355.61
C 344.73 349.52 344.73 349.97 349.13 235.35
C 351.33 178.09 353.32 128.90 353.55 126.05
L 353.99 120.88
L 351.29 119.61
C 342.64 115.50 331.04 97.02 324.00 76.12
C 321.04 67.32 319.89 60.14 319.85 50.27
C 319.79 33.08 328.31 20.80 343.81 15.78
C 348.52 14.25 348.90 13.97 349.30 11.52
C 350.27 5.74 354.09 2.10 360.63 0.74
C 370.47 -1.30 378.81 3.30 380.18 11.52
C 380.59 13.97 380.97 14.25 385.67 15.78
C 401.17 20.80 409.70 33.08 409.63 50.27
C 409.60 60.14 408.44 67.32 405.48 76.12
C 398.44 97.02 386.84 115.50 378.19 119.61
L 375.50 120.88
L 375.93 126.05
C 376.16 128.90 378.16 178.09 380.35 235.35
C 384.75 349.97 384.75 349.52 380.52 355.61
C 379.24 357.45 376.79 359.59 374.83 360.58
L 371.39 362.32
L 424.21 362.32
C 486.48 362.32 480.13 361.14 480.13 372.77
C 480.13 384.58 492.39 383.23 385.60 383.23
L 294.19 383.23
L 296.23 386.52
C 299.99 392.57 305.81 405.24 307.16 410.32
C 311.15 425.36 306.70 437.19 295.15 442.33
C 289.70 444.74 279.86 446.25 273.75 445.63
C 269.43 445.18 257.41 442.81 253.42 441.62
L 251.68 441.11
L 251.68 469.07
L 251.68 497.03
L 366.29 497.03
C 479.87 497.03 480.92 497.05 482.45 498.58
C 483.97 500.10 484.00 501.16 484.00 548.52
C 484.00 595.87 483.97 596.93 482.45 598.45
C 480.91 599.99 479.87 600.00 242.00 600.00
C 4.13 600.00 3.09 599.99 1.55 598.45
M 479.35 595.35
C 480.86 593.85 480.90 592.78 480.90 548.52
C 480.90 504.26 480.86 503.19 479.35 501.68
C 477.81 500.14 476.77 500.13 242.00 500.13
C 7.23 500.13 6.19 500.14 4.65 501.68
C 3.14 503.19 3.10 504.26 3.10 548.52
C 3.10 592.78 3.14 593.85 4.65 595.35
C 6.19 596.90 7.23 596.90 242.00 596.90
C 476.77 596.90 477.81 596.90 479.35 595.35
M 246.26 468.54
L 246.26 440.05
L 242.77 438.36
L 239.29 436.67
L 239.29 466.85
L 239.29 497.03
L 242.77 497.03
L 246.26 497.03
L 246.26 468.54
M 283.62 439.73
C 286.50 439.32 289.98 438.50 291.37 437.93
C 293.65 436.99 293.16 436.92 286.08 437.25
C 257.94 438.56 216.55 416.65 197.09 390.15
L 192.01 383.23
L 187.34 383.23
L 182.66 383.23
L 185.98 388.06
C 187.81 390.73 193.67 397.26 199.01 402.60
C 212.54 416.13 226.06 425.13 243.59 432.26
C 252.32 435.81 261.78 438.47 269.89 439.66
C 276.30 440.59 277.65 440.59 283.62 439.73
M 294.02 430.50
C 295.79 429.69 297.62 428.33 298.08 427.47
C 301.61 420.88 294.38 407.45 278.52 391.16
L 270.80 383.23
L 261.24 383.23
L 251.68 383.23
L 251.68 403.77
L 251.68 424.31
L 255.19 425.81
C 258.54 427.25 270.85 430.78 274.91 431.47
C 275.98 431.64 279.98 431.83 283.82 431.88
C 289.15 431.95 291.55 431.62 294.02 430.50
M 246.26 402.97
L 246.26 383.23
L 242.77 383.23
L 239.29 383.23
L 239.29 400.95
L 239.29 418.68
L 242.58 420.67
C 244.39 421.76 245.96 422.66 246.07 422.68
C 246.17 422.69 246.26 413.82 246.26 402.97
M 233.61 383.48
C 233.45 383.33 225.57 383.29 216.11 383.40
L 198.90 383.61
L 202.72 388.65
C 207.97 395.55 217.41 404.38 226.16 410.57
L 233.48 415.75
L 233.69 399.76
C 233.81 390.97 233.77 383.64 233.61 383.48
M 300.86 408.21
C 298.88 402.89 292.25 390.08 289.58 386.38
C 287.37 383.34 287.14 383.23 282.96 383.23
L 278.62 383.23
L 284.42 389.39
C 291.02 396.39 296.63 403.61 299.59 408.91
C 302.12 413.40 302.68 413.09 300.86 408.21
M 57.14 403.68
C 60.43 403.01 65.73 401.33 68.92 399.94
C 75.78 396.98 87.40 389.90 91.77 386.04
L 94.86 383.29
L 87.24 383.26
L 79.62 383.23
L 76.20 386.23
C 69.07 392.51 56.10 397.70 49.56 396.89
C 41.65 395.91 32.04 391.18 25.47 385.04
C 23.70 383.37 22.86 383.17 18.55 383.38
L 13.64 383.61
L 16.30 386.66
C 20.27 391.18 29.50 398.27 34.51 400.64
C 38.53 402.53 46.35 404.69 49.79 404.84
C 50.55 404.87 53.86 404.35 57.14 403.68
M 63.10 389.47
C 66.51 387.75 70.18 385.66 71.24 384.81
L 73.18 383.26
L 52.03 383.24
C 39.66 383.23 31.06 383.51 31.32 383.92
C 31.56 384.31 33.75 385.96 36.20 387.58
C 46.22 394.25 52.69 394.70 63.10 389.47
M 473.00 376.88
C 474.20 375.68 474.20 369.87 473.00 368.67
C 472.28 367.95 420.14 367.74 243.01 367.74
C 14.97 367.74 13.93 367.75 12.39 369.29
C 11.54 370.14 10.84 371.71 10.84 372.77
C 10.84 373.84 11.54 375.41 12.39 376.26
C 13.93 377.80 14.97 377.81 243.01 377.81
C 420.14 377.81 472.28 377.60 473.00 376.88
M 16.63 355.16
C 19.62 339.23 21.97 334.53 28.43 331.56
L 32.70 329.61
L 37.39 331.04
C 45.37 333.45 50.51 337.22 69.31 354.50
L 77.83 362.31
L 83.64 362.30
L 89.44 362.28
L 84.02 357.06
C 64.35 338.15 40.87 322.91 31.36 322.89
C 21.43 322.85 13.39 333.14 8.91 351.62
C 6.23 362.69 6.15 362.32 11.14 362.32
L 15.29 362.32
L 16.63 355.16
M 64.28 355.96
C 45.05 337.55 35.99 332.21 29.58 335.54
C 25.55 337.62 21.85 345.41 20.54 354.58
C 20.27 356.50 19.87 359.02 19.65 360.19
L 19.24 362.32
L 45.05 362.29
L 70.86 362.26
L 64.28 355.96
M 188.18 360.77
C 186.89 359.48 186.63 358.20 186.63 353.03
L 186.63 346.84
L 179.27 346.84
L 171.92 346.84
L 171.92 353.03
C 171.92 358.20 171.66 359.48 170.37 360.77
C 168.82 362.32 168.82 362.32 179.27 362.32
C 189.73 362.32 189.73 362.32 188.18 360.77
M 166.34 356.75
C 166.85 356.24 167.27 353.80 167.27 351.33
L 167.27 346.84
L 148.68 346.84
C 131.13 346.84 130.01 346.75 128.55 345.29
C 127.09 343.83 127.00 342.71 127.00 327.10
L 127.00 310.45
L 119.41 310.45
C 114.54 310.45 111.49 310.78 110.89 311.38
C 109.57 312.70 109.57 355.42 110.89 356.75
C 112.23 358.08 165.01 358.08 166.34 356.75
M 247.65 356.75
C 248.98 355.42 248.98 312.70 247.65 311.38
C 247.06 310.78 244.01 310.45 239.13 310.45
L 231.55 310.45
L 231.55 327.10
C 231.55 342.71 231.45 343.83 230.00 345.29
C 228.53 346.75 227.42 346.84 209.86 346.84
L 191.28 346.84
L 191.28 351.33
C 191.28 353.80 191.69 356.24 192.21 356.75
C 193.54 358.08 246.32 358.08 247.65 356.75
M 372.01 356.60
C 375.89 354.98 377.96 351.48 378.83 345.05
C 379.39 340.85 378.63 315.17 375.67 240.00
C 373.52 185.28 371.53 136.25 371.26 131.03
L 370.75 121.55
L 364.74 121.55
L 358.73 121.55
L 358.23 131.03
C 357.96 136.25 355.97 185.28 353.82 240.00
C 350.86 315.17 350.09 340.85 350.66 345.05
C 351.51 351.38 353.58 354.94 357.31 356.57
C 360.46 357.94 368.76 357.96 372.01 356.60
M 225.97 341.26
C 227.33 339.91 227.33 39.45 225.97 38.09
C 224.63 36.75 133.92 36.75 132.58 38.09
C 131.22 39.45 131.22 339.91 132.58 341.26
C 133.92 342.60 224.63 342.60 225.97 341.26
M 127.00 279.48
L 127.00 274.06
L 119.41 274.06
C 114.54 274.06 111.49 274.40 110.89 274.99
C 110.38 275.50 109.96 277.53 109.96 279.48
C 109.96 281.44 110.38 283.46 110.89 283.97
C 111.49 284.57 114.54 284.90 119.41 284.90
L 127.00 284.90
L 127.00 279.48
M 247.65 283.97
C 248.16 283.46 248.58 281.44 248.58 279.48
C 248.58 277.53 248.16 275.50 247.65 274.99
C 247.06 274.40 244.01 274.06 239.13 274.06
L 231.55 274.06
L 231.55 279.48
L 231.55 284.90
L 239.13 284.90
C 244.01 284.90 247.06 284.57 247.65 283.97
M 127.00 237.29
L 127.00 232.26
L 119.41 232.26
C 114.54 232.26 111.49 232.59 110.89 233.19
C 110.38 233.70 109.96 235.55 109.96 237.29
C 109.96 239.03 110.38 240.88 110.89 241.39
C 111.49 241.99 114.54 242.32 119.41 242.32
L 127.00 242.32
L 127.00 237.29
M 247.65 241.39
C 248.16 240.88 248.58 239.04 248.58 237.29
C 248.58 235.54 248.16 233.70 247.65 233.19
C 247.06 232.59 244.01 232.26 239.13 232.26
L 231.55 232.26
L 231.55 237.29
L 231.55 242.32
L 239.13 242.32
C 244.01 242.32 247.06 241.99 247.65 241.39
M 127.00 189.68
L 127.00 185.03
L 119.41 185.03
C 110.88 185.03 109.96 185.48 109.96 189.68
C 109.96 193.87 110.88 194.32 119.41 194.32
L 127.00 194.32
L 127.00 189.68
M 247.65 193.39
C 248.16 192.88 248.58 191.21 248.58 189.68
C 248.58 185.48 247.67 185.03 239.13 185.03
L 231.55 185.03
L 231.55 189.68
L 231.55 194.32
L 239.13 194.32
C 244.01 194.32 247.06 193.99 247.65 193.39
M 127.00 142.06
L 127.00 137.03
L 119.41 137.03
C 114.54 137.03 111.49 137.37 110.89 137.96
C 110.38 138.47 109.96 140.31 109.96 142.06
C 109.96 143.81 110.38 145.66 110.89 146.17
C 111.49 146.76 114.54 147.10 119.41 147.10
L 127.00 147.10
L 127.00 142.06
M 247.65 146.17
C 248.16 145.66 248.58 143.81 248.58 142.06
C 248.58 140.31 248.16 138.47 247.65 137.96
C 247.06 137.37 244.01 137.03 239.13 137.03
L 231.55 137.03
L 231.55 142.06
L 231.55 147.10
L 239.13 147.10
C 244.01 147.10 247.06 146.76 247.65 146.17
M 377.85 113.08
C 386.56 106.17 392.88 95.72 399.19 77.81
C 404.79 61.88 406.22 50.66 403.83 41.44
C 399.57 25.12 388.39 18.58 364.74 18.58
C 341.09 18.58 329.92 25.12 325.66 41.44
C 323.26 50.66 324.70 61.90 330.30 77.81
C 334.81 90.57 338.21 97.65 342.70 103.61
C 346.40 108.55 352.41 114.28 355.06 115.42
C 355.91 115.80 360.63 116.01 365.55 115.92
C 374.46 115.74 374.50 115.73 377.85 113.08
M 127.00 99.87
L 127.00 94.45
L 119.41 94.45
C 114.54 94.45 111.49 94.78 110.89 95.38
C 110.38 95.89 109.96 97.91 109.96 99.87
C 109.96 101.83 110.38 103.85 110.89 104.36
C 111.49 104.96 114.54 105.29 119.41 105.29
L 127.00 105.29
L 127.00 99.87
M 247.65 104.36
C 248.16 103.85 248.58 101.83 248.58 99.87
C 248.58 97.91 248.16 95.89 247.65 95.38
C 247.06 94.78 244.01 94.45 239.13 94.45
L 231.55 94.45
L 231.55 99.87
L 231.55 105.29
L 239.13 105.29
C 244.01 105.29 247.06 104.96 247.65 104.36
M 127.00 52.26
C 127.00 36.64 127.09 35.52 128.55 34.06
C 130.01 32.60 131.13 32.52 148.68 32.52
L 167.27 32.52
L 167.27 28.03
C 167.27 25.56 166.85 23.12 166.34 22.61
C 165.01 21.27 112.23 21.27 110.89 22.61
C 109.57 23.93 109.57 66.65 110.89 67.97
C 111.49 68.57 114.54 68.90 119.41 68.90
L 127.00 68.90
L 127.00 52.26
M 247.65 67.97
C 248.98 66.65 248.98 23.93 247.65 22.61
C 246.32 21.27 193.54 21.27 192.21 22.61
C 191.69 23.12 191.28 25.56 191.28 28.03
L 191.28 32.52
L 209.86 32.52
C 227.42 32.52 228.53 32.60 230.00 34.06
C 231.45 35.52 231.55 36.64 231.55 52.26
L 231.55 68.90
L 239.13 68.90
C 244.01 68.90 247.06 68.57 247.65 67.97
M 375.58 12.40
C 375.58 11.55 374.62 9.79 373.45 8.49
C 369.28 3.82 360.20 3.82 356.03 8.49
C 354.86 9.79 353.90 11.55 353.90 12.40
C 353.90 13.86 354.44 13.94 364.74 13.94
C 375.04 13.94 375.58 13.86 375.58 12.40"/>
<path fill="#000000" stroke="none" d="
M 5.42 570.97
L 5.42 552.00
L 24.39 552.00
L 43.37 552.00
L 43.37 570.97
L 43.37 589.94
L 24.39 589.94
L 5.42 589.94
L 5.42 570.97
M 40.27 570.97
L 40.27 555.10
L 24.39 555.10
L 8.52 555.10
L 8.52 570.97
L 8.52 586.84
L 24.39 586.84
L 40.27 586.84
L 40.27 570.97"/>
<path fill="#000000" stroke="none" d="
M 50.34 570.97
L 50.34 552.00
L 70.86 552.00
L 91.38 552.00
L 91.38 570.97
L 91.38 589.94
L 70.86 589.94
L 50.34 589.94
L 50.34 570.97
M 88.28 570.97
L 88.28 555.10
L 70.86 555.10
L 53.43 555.10
L 53.43 570.97
L 53.43 586.84
L 70.86 586.84
L 88.28 586.84
L 88.28 570.97"/>
<path fill="#000000" stroke="none" d="
M 98.35 570.97
L 98.35 552.00
L 119.64 552.00
L 140.94 552.00
L 140.94 570.97
L 140.94 589.94
L 119.64 589.94
L 98.35 589.94
L 98.35 570.97
M 137.84 570.97
L 137.84 555.10
L 119.64 555.10
L 101.45 555.10
L 101.45 570.97
L 101.45 586.84
L 119.64 586.84
L 137.84 586.84
L 137.84 570.97"/>
<path fill="#000000" stroke="none" d="
M 147.91 570.97
L 147.91 552.00
L 168.82 552.00
L 189.73 552.00
L 189.73 570.97
L 189.73 589.94
L 168.82 589.94
L 147.91 589.94
L 147.91 570.97
M 186.63 570.97
L 186.63 555.10
L 168.82 555.10
L 151.01 555.10
L 151.01 570.97
L 151.01 586.84
L 168.82 586.84
L 186.63 586.84
L 186.63 570.97"/>
<path fill="#000000" stroke="none" d="
M 196.70 570.97
L 196.70 552.00
L 217.99 552.00
L 239.29 552.00
L 239.29 570.97
L 239.29 589.94
L 217.99 589.94
L 196.70 589.94
L 196.70 570.97
M 236.19 570.97
L 236.19 555.10
L 217.99 555.10
L 199.80 555.10
L 199.80 570.97
L 199.80 586.84
L 217.99 586.84
L 236.19 586.84
L 236.19 570.97"/>
<path fill="#000000" stroke="none" d="
M 246.26 570.97
L 246.26 552.00
L 266.78 552.00
L 287.30 552.00
L 287.30 570.97
L 287.30 589.94
L 266.78 589.94
L 246.26 589.94
L 246.26 570.97
M 284.20 570.97
L 284.20 555.10
L 266.78 555.10
L 249.36 555.10
L 249.36 570.97
L 249.36 586.84
L 266.78 586.84
L 284.20 586.84
L 284.20 570.97"/>
<path fill="#000000" stroke="none" d="
M 294.27 570.97
L 294.27 552.00
L 315.18 552.00
L 336.09 552.00
L 336.09 570.97
L 336.09 589.94
L 315.18 589.94
L 294.27 589.94
L 294.27 570.97
M 332.99 570.97
L 332.99 555.10
L 315.18 555.10
L 297.37 555.10
L 297.37 570.97
L 297.37 586.84
L 315.18 586.84
L 332.99 586.84
L 332.99 570.97"/>
<path fill="#000000" stroke="none" d="
M 343.06 570.97
L 343.06 552.00
L 364.36 552.00
L 385.65 552.00
L 385.65 570.97
L 385.65 589.94
L 364.36 589.94
L 343.06 589.94
L 343.06 570.97
M 382.55 570.97
L 382.55 555.10
L 364.36 555.10
L 346.16 555.10
L 346.16 570.97
L 346.16 586.84
L 364.36 586.84
L 382.55 586.84
L 382.55 570.97"/>
<path fill="#000000" stroke="none" d="
M 392.62 570.97
L 392.62 552.00
L 413.14 552.00
L 433.66 552.00
L 433.66 570.97
L 433.66 589.94
L 413.14 589.94
L 392.62 589.94
L 392.62 570.97
M 430.57 570.97
L 430.57 555.10
L 413.14 555.10
L 395.72 555.10
L 395.72 570.97
L 395.72 586.84
L 413.14 586.84
L 430.57 586.84
L 430.57 570.97"/>
<path fill="#000000" stroke="none" d="
M 440.63 570.97
L 440.63 552.00
L 459.61 552.00
L 478.58 552.00
L 478.58 570.97
L 478.58 589.94
L 459.61 589.94
L 440.63 589.94
L 440.63 570.97
M 475.48 570.97
L 475.48 555.10
L 459.61 555.10
L 443.73 555.10
L 443.73 570.97
L 443.73 586.84
L 459.61 586.84
L 475.48 586.84
L 475.48 570.97"/>
<path fill="#000000" stroke="none" d="
M 5.42 526.06
L 5.42 507.10
L 24.39 507.10
L 43.37 507.10
L 43.37 526.06
L 43.37 545.03
L 24.39 545.03
L 5.42 545.03
L 5.42 526.06
M 40.27 526.06
L 40.27 510.19
L 24.39 510.19
L 8.52 510.19
L 8.52 526.06
L 8.52 541.94
L 24.39 541.94
L 40.27 541.94
L 40.27 526.06"/>
<path fill="#000000" stroke="none" d="
M 50.34 526.06
L 50.34 507.10
L 70.86 507.10
L 91.38 507.10
L 91.38 526.06
L 91.38 545.03
L 70.86 545.03
L 50.34 545.03
L 50.34 526.06
M 88.28 526.06
L 88.28 510.19
L 70.86 510.19
L 53.43 510.19
L 53.43 526.06
L 53.43 541.94
L 70.86 541.94
L 88.28 541.94
L 88.28 526.06"/>
<path fill="#000000" stroke="none" d="
M 98.35 526.06
L 98.35 507.10
L 119.64 507.10
L 140.94 507.10
L 140.94 526.06
L 140.94 545.03
L 119.64 545.03
L 98.35 545.03
L 98.35 526.06
M 137.84 526.06
L 137.84 510.19
L 119.64 510.19
L 101.45 510.19
L 101.45 526.06
L 101.45 541.94
L 119.64 541.94
L 137.84 541.94
L 137.84 526.06"/>
<path fill="#000000" stroke="none" d="
M 147.91 526.06
L 147.91 507.10
L 168.82 507.10
L 189.73 507.10
L 189.73 526.06
L 189.73 545.03
L 168.82 545.03
L 147.91 545.03
L 147.91 526.06
M 186.63 526.06
L 186.63 510.19
L 168.82 510.19
L 151.01 510.19
L 151.01 526.06
L 151.01 541.94
L 168.82 541.94
L 186.63 541.94
L 186.63 526.06"/>
<path fill="#000000" stroke="none" d="
M 196.70 526.06
L 196.70 507.10
L 217.99 507.10
L 239.29 507.10
L 239.29 526.06
L 239.29 545.03
L 217.99 545.03
L 196.70 545.03
L 196.70 526.06
M 236.19 526.06
L 236.19 510.19
L 217.99 510.19
L 199.80 510.19
L 199.80 526.06
L 199.80 541.94
L 217.99 541.94
L 236.19 541.94
L 236.19 526.06"/>
<path fill="#000000" stroke="none" d="
M 246.26 526.06
L 246.26 507.10
L 266.78 507.10
L 287.30 507.10
L 287.30 526.06
L 287.30 545.03
L 266.78 545.03
L 246.26 545.03
L 246.26 526.06
M 284.20 526.06
L 284.20 510.19
L 266.78 510.19
L 249.36 510.19
L 249.36 526.06
L 249.36 541.94
L 266.78 541.94
L 284.20 541.94
L 284.20 526.06"/>
<path fill="#000000" stroke="none" d="
M 294.27 526.06
L 294.27 507.10
L 315.18 507.10
L 336.09 507.10
L 336.09 526.06
L 336.09 545.03
L 315.18 545.03
L 294.27 545.03
L 294.27 526.06
M 332.99 526.06
L 332.99 510.19
L 315.18 510.19
L 297.37 510.19
L 297.37 526.06
L 297.37 541.94
L 315.18 541.94
L 332.99 541.94
L 332.99 526.06"/>
<path fill="#000000" stroke="none" d="
M 343.06 526.06
L 343.06 507.10
L 364.36 507.10
L 385.65 507.10
L 385.65 526.06
L 385.65 545.03
L 364.36 545.03
L 343.06 545.03
L 343.06 526.06
M 382.55 526.06
L 382.55 510.19
L 364.36 510.19
L 346.16 510.19
L 346.16 526.06
L 346.16 541.94
L 364.36 541.94
L 382.55 541.94
L 382.55 526.06"/>
<path fill="#000000" stroke="none" d="
M 392.62 526.06
L 392.62 507.10
L 413.14 507.10
L 433.66 507.10
L 433.66 526.06
L 433.66 545.03
L 413.14 545.03
L 392.62 545.03
L 392.62 526.06
M 430.57 526.06
L 430.57 510.19
L 413.14 510.19
L 395.72 510.19
L 395.72 526.06
L 395.72 541.94
L 413.14 541.94
L 430.57 541.94
L 430.57 526.06"/>
<path fill="#000000" stroke="none" d="
M 440.63 526.06
L 440.63 507.10
L 459.61 507.10
L 478.58 507.10
L 478.58 526.06
L 478.58 545.03
L 459.61 545.03
L 440.63 545.03
L 440.63 526.06
M 475.48 526.06
L 475.48 510.19
L 459.61 510.19
L 443.73 510.19
L 443.73 526.06
L 443.73 541.94
L 459.61 541.94
L 475.48 541.94
L 475.48 526.06"/>
<path fill="#000000" stroke="none" d="
M 144.04 330.58
C 142.50 329.04 142.49 328.00 142.49 189.68
C 142.49 51.35 142.50 50.31 144.04 48.77
C 145.54 47.27 146.62 47.23 179.27 47.23
C 211.93 47.23 213.01 47.27 214.51 48.77
C 216.05 50.31 216.06 51.35 216.06 189.68
C 216.06 328.00 216.05 329.04 214.51 330.58
C 213.01 332.08 211.93 332.13 179.27 332.13
C 146.62 332.13 145.54 332.08 144.04 330.58
M 210.48 326.55
C 211.84 325.20 211.84 54.15 210.48 52.80
C 209.15 51.47 149.40 51.47 148.07 52.80
C 146.71 54.15 146.71 325.20 148.07 326.55
C 149.40 327.89 209.15 327.89 210.48 326.55"/>
<path fill="#c55436" stroke="none" d="
M 239.29 466.85
L 239.29 436.67
L 242.77 438.36
L 246.26 440.05
L 246.26 468.54
L 246.26 497.03
L 242.77 497.03
L 239.29 497.03
L 239.29 466.85"/>
<path fill="#c55436" stroke="none" d="
M 242.58 420.67
L 239.29 418.68
L 239.29 400.95
L 239.29 383.23
L 242.77 383.23
L 246.26 383.23
L 246.26 402.97
C 246.26 413.82 246.17 422.69 246.07 422.68
C 245.96 422.66 244.39 421.76 242.58 420.67"/>
<path fill="#c55436" stroke="none" d="
M 12.39 376.26
C 11.54 375.41 10.84 373.84 10.84 372.77
C 10.84 371.71 11.54 370.14 12.39 369.29
C 13.93 367.75 14.97 367.74 243.01 367.74
C 420.14 367.74 472.28 367.95 473.00 368.67
C 474.20 369.87 474.20 375.68 473.00 376.88
C 472.28 377.60 420.14 377.81 243.01 377.81
C 14.97 377.81 13.93 377.80 12.39 376.26"/>
<path fill="#c55436" stroke="none" d="
M 357.31 356.57
C 353.58 354.94 351.51 351.38 350.66 345.05
C 350.09 340.85 350.86 315.17 353.82 240.00
C 355.97 185.28 357.96 136.25 358.23 131.03
L 358.73 121.55
L 364.74 121.55
L 370.75 121.55
L 371.26 131.03
C 371.53 136.25 373.52 185.28 375.67 240.00
C 378.63 315.17 379.39 340.85 378.83 345.05
C 377.96 351.48 375.89 354.98 372.01 356.60
C 368.76 357.96 360.46 357.94 357.31 356.57"/>
<path fill="#c55436" stroke="none" d="
M 353.90 12.40
C 353.90 11.55 354.87 9.79 356.05 8.46
C 358.59 5.63 363.60 4.38 368.28 5.43
C 371.66 6.19 375.58 9.93 375.58 12.40
C 375.58 13.86 375.04 13.94 364.74 13.94
C 354.44 13.94 353.90 13.86 353.90 12.40"/>
<path fill="#ffaa43" stroke="none" d="
M 355.06 115.42
C 352.41 114.28 346.40 108.55 342.70 103.61
C 338.21 97.65 334.81 90.57 330.30 77.81
C 324.70 61.90 323.26 50.66 325.66 41.44
C 329.93 25.08 341.15 18.58 365.14 18.58
C 388.35 18.58 399.60 25.22 403.83 41.44
C 406.22 50.66 404.79 61.88 399.19 77.81
C 392.88 95.72 386.56 106.17 377.85 113.08
C 374.50 115.73 374.46 115.74 365.55 115.92
C 360.63 116.01 355.91 115.80 355.06 115.42"/>
<path fill="#cf9e66" stroke="none" d="
M 110.89 356.75
C 109.57 355.42 109.57 312.70 110.89 311.38
C 111.49 310.78 114.54 310.45 119.41 310.45
L 127.00 310.45
L 127.00 327.10
C 127.00 342.71 127.09 343.83 128.55 345.29
C 130.01 346.75 131.13 346.84 148.68 346.84
L 167.27 346.84
L 167.27 351.33
C 167.27 353.80 166.85 356.24 166.34 356.75
C 165.01 358.08 112.23 358.08 110.89 356.75"/>
<path fill="#cf9e66" stroke="none" d="
M 192.21 356.75
C 191.69 356.24 191.28 353.80 191.28 351.33
L 191.28 346.84
L 209.86 346.84
C 227.42 346.84 228.53 346.75 230.00 345.29
C 231.45 343.83 231.55 342.71 231.55 327.10
L 231.55 310.45
L 239.13 310.45
C 244.01 310.45 247.06 310.78 247.65 311.38
C 248.98 312.70 248.98 355.42 247.65 356.75
C 246.32 358.08 193.54 358.08 192.21 356.75"/>
<path fill="#cf9e66" stroke="none" d="
M 110.89 283.97
C 110.38 283.46 109.96 281.44 109.96 279.48
C 109.96 277.53 110.38 275.50 110.89 274.99
C 111.49 274.40 114.54 274.06 119.41 274.06
L 127.00 274.06
L 127.00 279.48
L 127.00 284.90
L 119.41 284.90
C 114.54 284.90 111.49 284.57 110.89 283.97"/>
<path fill="#cf9e66" stroke="none" d="
M 231.55 279.48
L 231.55 274.06
L 239.13 274.06
C 244.01 274.06 247.06 274.40 247.65 274.99
C 248.16 275.50 248.58 277.53 248.58 279.48
C 248.58 281.44 248.16 283.46 247.65 283.97
C 247.06 284.57 244.01 284.90 239.13 284.90
L 231.55 284.90
L 231.55 279.48"/>
<path fill="#cf9e66" stroke="none" d="
M 110.89 241.39
C 110.38 240.88 109.96 239.03 109.96 237.29
C 109.96 235.55 110.38 233.70 110.89 233.19
C 111.49 232.59 114.54 232.26 119.41 232.26
L 127.00 232.26
L 127.00 237.29
L 127.00 242.32
L 119.41 242.32
C 114.54 242.32 111.49 241.99 110.89 241.39"/>
<path fill="#cf9e66" stroke="none" d="
M 231.55 237.29
L 231.55 232.26
L 239.13 232.26
C 244.01 232.26 247.06 232.59 247.65 233.19
C 248.16 233.70 248.58 235.54 248.58 237.29
C 248.58 239.04 248.16 240.88 247.65 241.39
C 247.06 241.99 244.01 242.32 239.13 242.32
L 231.55 242.32
L 231.55 237.29"/>
<path fill="#cf9e66" stroke="none" d="
M 110.89 193.39
C 110.38 192.88 109.96 191.21 109.96 189.68
C 109.96 185.48 110.88 185.03 119.41 185.03
L 127.00 185.03
L 127.00 189.68
L 127.00 194.32
L 119.41 194.32
C 114.54 194.32 111.49 193.99 110.89 193.39"/>
<path fill="#cf9e66" stroke="none" d="
M 231.55 189.68
L 231.55 185.03
L 239.13 185.03
C 247.67 185.03 248.58 185.48 248.58 189.68
C 248.58 193.87 247.67 194.32 239.13 194.32
L 231.55 194.32
L 231.55 189.68"/>
<path fill="#cf9e66" stroke="none" d="
M 110.89 146.17
C 110.38 145.66 109.96 143.81 109.96 142.06
C 109.96 140.31 110.38 138.47 110.89 137.96
C 111.49 137.37 114.54 137.03 119.41 137.03
L 127.00 137.03
L 127.00 142.06
L 127.00 147.10
L 119.41 147.10
C 114.54 147.10 111.49 146.76 110.89 146.17"/>
<path fill="#cf9e66" stroke="none" d="
M 231.55 142.06
L 231.55 137.03
L 239.13 137.03
C 244.01 137.03 247.06 137.37 247.65 137.96
C 248.16 138.47 248.58 140.31 248.58 142.06
C 248.58 143.81 248.16 145.66 247.65 146.17
C 247.06 146.76 244.01 147.10 239.13 147.10
L 231.55 147.10
L 231.55 142.06"/>
<path fill="#cf9e66" stroke="none" d="
M 110.89 104.36
C 110.38 103.85 109.96 101.83 109.96 99.87
C 109.96 97.91 110.38 95.89 110.89 95.38
C 111.49 94.78 114.54 94.45 119.41 94.45
L 127.00 94.45
L 127.00 99.87
L 127.00 105.29
L 119.41 105.29
C 114.54 105.29 111.49 104.96 110.89 104.36"/>
<path fill="#cf9e66" stroke="none" d="
M 231.55 99.87
L 231.55 94.45
L 239.13 94.45
C 244.01 94.45 247.06 94.78 247.65 95.38
C 248.16 95.89 248.58 97.91 248.58 99.87
C 248.58 101.83 248.16 103.85 247.65 104.36
C 247.06 104.96 244.01 105.29 239.13 105.29
L 231.55 105.29
L 231.55 99.87"/>
<path fill="#cf9e66" stroke="none" d="
M 110.89 67.97
C 110.21 67.29 109.96 61.15 109.96 45.17
C 109.96 24.32 110.03 23.24 111.46 22.48
C 113.72 21.27 165.13 21.39 166.34 22.61
C 166.85 23.12 167.27 25.56 167.27 28.03
L 167.27 32.52
L 148.68 32.52
C 131.13 32.52 130.01 32.60 128.55 34.06
C 127.09 35.52 127.00 36.64 127.00 52.26
L 127.00 68.90
L 119.41 68.90
C 114.54 68.90 111.49 68.57 110.89 67.97"/>
<path fill="#cf9e66" stroke="none" d="
M 231.55 52.26
C 231.55 36.64 231.45 35.52 230.00 34.06
C 228.53 32.60 227.42 32.52 209.86 32.52
L 191.28 32.52
L 191.28 28.03
C 191.28 25.56 191.69 23.12 192.21 22.61
C 193.54 21.27 246.32 21.27 247.65 22.61
C 248.98 23.93 248.98 66.65 247.65 67.97
C 247.06 68.57 244.01 68.90 239.13 68.90
L 231.55 68.90
L 231.55 52.26"/>
<path fill="#c57a36" stroke="none" d="
M 8.52 570.97
L 8.52 555.10
L 24.39 555.10
L 40.27 555.10
L 40.27 570.97
L 40.27 586.84
L 24.39 586.84
L 8.52 586.84
L 8.52 570.97"/>
<path fill="#c57a36" stroke="none" d="
M 53.43 570.97
L 53.43 555.10
L 70.86 555.10
L 88.28 555.10
L 88.28 570.97
L 88.28 586.84
L 70.86 586.84
L 53.43 586.84
L 53.43 570.97"/>
<path fill="#c57a36" stroke="none" d="
M 101.45 570.97
L 101.45 555.10
L 119.64 555.10
L 137.84 555.10
L 137.84 570.97
L 137.84 586.84
L 119.64 586.84
L 101.45 586.84
L 101.45 570.97"/>
<path fill="#c57a36" stroke="none" d="
M 151.01 570.97
L 151.01 555.10
L 168.82 555.10
L 186.63 555.10
L 186.63 570.97
L 186.63 586.84
L 168.82 586.84
L 151.01 586.84
L 151.01 570.97"/>
<path fill="#c57a36" stroke="none" d="
M 199.80 570.97
L 199.80 555.10
L 217.99 555.10
L 236.19 555.10
L 236.19 570.97
L 236.19 586.84
L 217.99 586.84
L 199.80 586.84
L 199.80 570.97"/>
<path fill="#c57a36" stroke="none" d="
M 249.36 570.97
L 249.36 555.10
L 266.78 555.10
L 284.20 555.10
L 284.20 570.97
L 284.20 586.84
L 266.78 586.84
L 249.36 586.84
L 249.36 570.97"/>
<path fill="#c57a36" stroke="none" d="
M 297.37 570.97
L 297.37 555.10
L 315.18 555.10
L 332.99 555.10
L 332.99 570.97
L 332.99 586.84
L 315.18 586.84
L 297.37 586.84
L 297.37 570.97"/>
<path fill="#c57a36" stroke="none" d="
M 346.16 570.97
L 346.16 555.10
L 364.36 555.10
L 382.55 555.10
L 382.55 570.97
L 382.55 586.84
L 364.36 586.84
L 346.16 586.84
L 346.16 570.97"/>
<path fill="#c57a36" stroke="none" d="
M 395.72 570.97
L 395.72 555.10
L 413.14 555.10
L 430.57 555.10
L 430.57 570.97
L 430.57 586.84
L 413.14 586.84
L 395.72 586.84
L 395.72 570.97"/>
<path fill="#c57a36" stroke="none" d="
M 443.73 570.97
L 443.73 555.10
L 459.61 555.10
L 475.48 555.10
L 475.48 570.97
L 475.48 586.84
L 459.61 586.84
L 443.73 586.84
L 443.73 570.97"/>
<path fill="#c57a36" stroke="none" d="
M 8.52 526.06
L 8.52 510.19
L 24.39 510.19
L 40.27 510.19
L 40.27 526.06
L 40.27 541.94
L 24.39 541.94
L 8.52 541.94
L 8.52 526.06"/>
<path fill="#c57a36" stroke="none" d="
M 53.43 526.06
L 53.43 510.19
L 70.86 510.19
L 88.28 510.19
L 88.28 526.06
L 88.28 541.94
L 70.86 541.94
L 53.43 541.94
L 53.43 526.06"/>
<path fill="#c57a36" stroke="none" d="
M 101.45 526.06
L 101.45 510.19
L 119.64 510.19
L 137.84 510.19
L 137.84 526.06
L 137.84 541.94
L 119.64 541.94
L 101.45 541.94
L 101.45 526.06"/>
<path fill="#c57a36" stroke="none" d="
M 151.01 526.06
L 151.01 510.19
L 168.82 510.19
L 186.63 510.19
L 186.63 526.06
L 186.63 541.94
L 168.82 541.94
L 151.01 541.94
L 151.01 526.06"/>
<path fill="#c57a36" stroke="none" d="
M 199.80 526.06
L 199.80 510.19
L 217.99 510.19
L 236.19 510.19
L 236.19 526.06
L 236.19 541.94
L 217.99 541.94
L 199.80 541.94
L 199.80 526.06"/>
<path fill="#c57a36" stroke="none" d="
M 249.36 526.06
L 249.36 510.19
L 266.78 510.19
L 284.20 510.19
L 284.20 526.06
L 284.20 541.94
L 266.78 541.94
L 249.36 541.94
L 249.36 526.06"/>
<path fill="#c57a36" stroke="none" d="
M 297.37 526.06
L 297.37 510.19
L 315.18 510.19
L 332.99 510.19
L 332.99 526.06
L 332.99 541.94
L 315.18 541.94
L 297.37 541.94
L 297.37 526.06"/>
<path fill="#c57a36" stroke="none" d="
M 346.16 526.06
L 346.16 510.19
L 364.36 510.19
L 382.55 510.19
L 382.55 526.06
L 382.55 541.94
L 364.36 541.94
L 346.16 541.94
L 346.16 526.06"/>
<path fill="#c57a36" stroke="none" d="
M 395.72 526.06
L 395.72 510.19
L 413.14 510.19
L 430.57 510.19
L 430.57 526.06
L 430.57 541.94
L 413.14 541.94
L 395.72 541.94
L 395.72 526.06"/>
<path fill="#c57a36" stroke="none" d="
M 443.73 526.06
L 443.73 510.19
L 459.61 510.19
L 475.48 510.19
L 475.48 526.06
L 475.48 541.94
L 459.61 541.94
L 443.73 541.94
L 443.73 526.06"/>
<path fill="#c57a36" stroke="none" d="
M 132.58 341.26
C 131.86 340.54 131.65 305.80 131.65 189.55
C 131.65 41.26 131.67 38.75 133.14 37.97
C 135.43 36.74 224.75 36.87 225.97 38.09
C 227.33 39.45 227.33 339.91 225.97 341.26
C 224.63 342.60 133.92 342.60 132.58 341.26
M 214.51 330.58
C 216.05 329.04 216.06 328.00 216.06 189.68
C 216.06 51.35 216.05 50.31 214.51 48.77
C 213.01 47.27 211.93 47.23 179.27 47.23
C 146.62 47.23 145.54 47.27 144.04 48.77
C 142.50 50.31 142.49 51.35 142.49 189.68
C 142.49 328.00 142.50 329.04 144.04 330.58
C 145.54 332.08 146.62 332.13 179.27 332.13
C 211.93 332.13 213.01 332.08 214.51 330.58"/>
<path fill="#eb8122" stroke="none" d="
M 148.07 326.55
C 147.35 325.84 147.14 294.36 147.14 189.55
C 147.14 55.81 147.16 53.46 148.63 52.68
C 150.90 51.46 209.27 51.58 210.48 52.80
C 211.84 54.15 211.84 325.20 210.48 326.55
C 209.15 327.89 149.40 327.89 148.07 326.55"/>
<path fill="#ffa153" stroke="none" d="
M 43.65 403.75
C 41.05 403.18 36.93 401.78 34.51 400.64
C 29.50 398.27 20.27 391.18 16.30 386.66
L 13.64 383.61
L 18.55 383.38
C 22.86 383.17 23.70 383.37 25.47 385.04
C 32.04 391.18 41.65 395.91 49.56 396.89
C 56.10 397.70 69.07 392.51 76.20 386.23
L 79.62 383.23
L 87.24 383.26
L 94.86 383.29
L 91.77 386.04
C 87.40 389.90 75.78 396.98 68.92 399.94
C 63.52 402.29 52.97 404.98 49.79 404.84
C 49.03 404.81 46.26 404.31 43.65 403.75"/>
<path fill="#ffa153" stroke="none" d="
M 6.97 360.97
C 6.97 357.31 11.25 342.64 13.92 337.11
C 18.55 327.55 24.63 322.80 32.14 322.87
C 40.93 322.95 65.13 338.90 84.02 357.06
L 89.44 362.28
L 83.64 362.30
L 77.83 362.31
L 69.31 354.50
C 50.51 337.22 45.37 333.45 37.39 331.04
L 32.70 329.61
L 28.43 331.56
C 21.97 334.53 19.62 339.23 16.63 355.16
L 15.29 362.32
L 11.14 362.32
C 7.68 362.32 6.97 362.09 6.97 360.97"/>
<path fill="#ef907a" stroke="none" d="
M 269.89 439.66
C 246.06 436.18 220.11 423.03 200.89 404.70
C 193.51 397.65 183.53 385.73 183.53 383.95
C 183.53 383.55 185.44 383.23 187.77 383.23
L 192.01 383.23
L 197.09 390.15
C 212.92 411.70 243.56 430.65 271.75 436.30
C 276.37 437.23 280.57 437.50 286.08 437.25
C 293.16 436.92 293.65 436.99 291.37 437.93
C 288.68 439.05 279.68 440.54 276.46 440.41
C 275.39 440.36 272.44 440.02 269.89 439.66"/>
<path fill="#ef907a" stroke="none" d="
M 299.59 408.91
C 296.63 403.61 291.02 396.39 284.42 389.39
L 278.62 383.23
L 282.96 383.23
C 287.14 383.23 287.37 383.34 289.58 386.38
C 293.71 392.08 302.88 411.27 301.93 412.21
C 301.76 412.38 300.72 410.90 299.59 408.91"/>
<path fill="#0885ff" stroke="none" d="
M 4.65 595.35
C 3.14 593.85 3.10 592.78 3.10 548.66
C 3.10 510.90 3.28 503.28 4.20 502.02
C 5.28 500.54 8.70 500.52 241.54 500.32
C 477.08 500.12 477.80 500.13 479.35 501.68
C 480.87 503.19 480.90 504.22 480.90 548.52
C 480.90 592.78 480.86 593.85 479.35 595.35
C 477.81 596.90 476.77 596.90 242.00 596.90
C 7.23 596.90 6.19 596.90 4.65 595.35
M 43.37 570.97
L 43.37 552.00
L 24.39 552.00
L 5.42 552.00
L 5.42 570.97
L 5.42 589.94
L 24.39 589.94
L 43.37 589.94
L 43.37 570.97
M 91.38 570.97
L 91.38 552.00
L 70.86 552.00
L 50.34 552.00
L 50.34 570.97
L 50.34 589.94
L 70.86 589.94
L 91.38 589.94
L 91.38 570.97
M 140.94 570.97
L 140.94 552.00
L 119.64 552.00
L 98.35 552.00
L 98.35 570.97
L 98.35 589.94
L 119.64 589.94
L 140.94 589.94
L 140.94 570.97
M 189.73 570.97
L 189.73 552.00
L 168.82 552.00
L 147.91 552.00
L 147.91 570.97
L 147.91 589.94
L 168.82 589.94
L 189.73 589.94
L 189.73 570.97
M 239.29 570.97
L 239.29 552.00
L 217.99 552.00
L 196.70 552.00
L 196.70 570.97
L 196.70 589.94
L 217.99 589.94
L 239.29 589.94
L 239.29 570.97
M 287.30 570.97
L 287.30 552.00
L 266.78 552.00
L 246.26 552.00
L 246.26 570.97
L 246.26 589.94
L 266.78 589.94
L 287.30 589.94
L 287.30 570.97
M 336.09 570.97
L 336.09 552.00
L 315.18 552.00
L 294.27 552.00
L 294.27 570.97
L 294.27 589.94
L 315.18 589.94
L 336.09 589.94
L 336.09 570.97
M 385.65 570.97
L 385.65 552.00
L 364.36 552.00
L 343.06 552.00
L 343.06 570.97
L 343.06 589.94
L 364.36 589.94
L 385.65 589.94
L 385.65 570.97
M 433.66 570.97
L 433.66 552.00
L 413.14 552.00
L 392.62 552.00
L 392.62 570.97
L 392.62 589.94
L 413.14 589.94
L 433.66 589.94
L 433.66 570.97
M 478.58 570.97
L 478.58 552.00
L 459.61 552.00
L 440.63 552.00
L 440.63 570.97
L 440.63 589.94
L 459.61 589.94
L 478.58 589.94
L 478.58 570.97
M 43.37 526.06
L 43.37 507.10
L 24.39 507.10
L 5.42 507.10
L 5.42 526.06
L 5.42 545.03
L 24.39 545.03
L 43.37 545.03
L 43.37 526.06
M 91.38 526.06
L 91.38 507.10
L 70.86 507.10
L 50.34 507.10
L 50.34 526.06
L 50.34 545.03
L 70.86 545.03
L 91.38 545.03
L 91.38 526.06
M 140.94 526.06
L 140.94 507.10
L 119.64 507.10
L 98.35 507.10
L 98.35 526.06
L 98.35 545.03
L 119.64 545.03
L 140.94 545.03
L 140.94 526.06
M 189.73 526.06
L 189.73 507.10
L 168.82 507.10
L 147.91 507.10
L 147.91 526.06
L 147.91 545.03
L 168.82 545.03
L 189.73 545.03
L 189.73 526.06
M 239.29 526.06
L 239.29 507.10
L 217.99 507.10
L 196.70 507.10
L 196.70 526.06
L 196.70 545.03
L 217.99 545.03
L 239.29 545.03
L 239.29 526.06
M 287.30 526.06
L 287.30 507.10
L 266.78 507.10
L 246.26 507.10
L 246.26 526.06
L 246.26 545.03
L 266.78 545.03
L 287.30 545.03
L 287.30 526.06
M 336.09 526.06
L 336.09 507.10
L 315.18 507.10
L 294.27 507.10
L 294.27 526.06
L 294.27 545.03
L 315.18 545.03
L 336.09 545.03
L 336.09 526.06
M 385.65 526.06
L 385.65 507.10
L 364.36 507.10
L 343.06 507.10
L 343.06 526.06
L 343.06 545.03
L 364.36 545.03
L 385.65 545.03
L 385.65 526.06
M 433.66 526.06
L 433.66 507.10
L 413.14 507.10
L 392.62 507.10
L 392.62 526.06
L 392.62 545.03
L 413.14 545.03
L 433.66 545.03
L 433.66 526.06
M 478.58 526.06
L 478.58 507.10
L 459.61 507.10
L 440.63 507.10
L 440.63 526.06
L 440.63 545.03
L 459.61 545.03
L 478.58 545.03
L 478.58 526.06"/>
</g>
</svg>
