<?xml version="1.0" encoding="UTF-8" standalone="no"?>
<!DOCTYPE svg PUBLIC "-//W3C//DTD SVG 1.1//EN"
"http://www.w3.org/Graphics/SVG/1.1/DTD/svg11.dtd">
<svg width="632px" height="600px"
xmlns="http://www.w3.org/2000/svg" version="1.1">
<g transform="translate(0000, 0000) scale(1.0000, 1.0000)">
<path fill="#000000" stroke="none" d="
M 2.02 597.98
C 0.04 596.00 0.00 594.62 0.00 532.83
C 0.00 471.04 0.04 469.66 2.02 467.68
C 4.02 465.68 5.39 465.66 154.72 465.66
L 305.40 465.66
L 305.14 424.66
L 304.88 383.65
L 294.07 377.42
C 288.12 374.01 279.48 368.49 274.85 365.17
C 263.26 356.84 243.45 336.78 236.17 326.01
L 230.19 317.17
L 181.62 317.17
L 133.05 317.17
L 129.47 320.63
C 124.23 325.70 106.91 336.95 97.37 341.52
C 92.80 343.69 84.15 346.67 78.16 348.13
C 68.14 350.56 66.67 350.69 60.24 349.61
C 42.40 346.62 32.80 341.08 16.44 324.33
C 3.90 311.49 1.25 306.68 2.36 298.63
C 6.20 270.29 12.45 251.56 21.21 242.05
C 26.04 236.83 33.90 233.32 40.74 233.34
C 47.11 233.36 60.61 238.48 70.38 244.59
C 80.80 251.09 97.80 264.49 114.23 279.13
L 126.30 289.90
L 147.58 289.90
L 168.87 289.90
L 168.89 213.89
C 168.90 151.05 169.16 136.67 170.39 130.90
C 174.48 111.57 186.54 98.02 207.30 89.39
C 210.91 87.89 215.80 85.08 218.17 83.16
L 222.46 79.67
L 222.46 50.43
C 222.46 22.56 222.56 21.12 224.49 19.19
C 226.45 17.23 227.85 17.17 273.02 17.17
C 318.19 17.17 319.60 17.23 321.56 19.19
C 323.49 21.12 323.58 22.56 323.58 50.43
L 323.58 79.67
L 327.88 83.16
C 330.25 85.08 335.14 87.89 338.75 89.39
C 359.51 98.02 371.57 111.57 375.66 130.90
C 376.88 136.67 377.15 151.05 377.16 213.89
L 377.18 289.90
L 458.90 289.90
L 540.64 289.90
L 538.03 282.58
C 535.46 275.35 535.43 274.86 535.43 245.96
C 535.43 229.85 535.03 216.05 534.54 215.28
C 534.05 214.53 530.27 212.36 526.14 210.48
C 519.30 207.37 518.44 206.65 516.55 202.36
C 512.85 194.01 513.04 191.89 519.22 172.73
C 525.17 154.27 526.93 144.35 524.92 140.62
C 523.28 137.53 518.55 136.66 499.03 135.85
C 489.57 135.44 479.33 134.84 476.28 134.48
C 471.18 133.89 470.68 133.62 470.40 131.11
C 470.23 129.61 470.55 127.52 471.12 126.46
C 471.88 125.04 471.58 122.81 469.99 117.90
C 467.83 111.27 467.82 111.24 469.75 104.90
C 472.38 96.20 475.83 92.57 484.03 89.84
C 490.63 87.65 490.72 87.65 496.84 89.49
C 505.66 92.16 509.18 95.64 511.80 104.25
C 513.66 110.35 513.78 111.87 512.73 115.37
C 511.94 118.01 511.86 119.79 512.50 120.42
C 513.91 121.84 527.93 124.38 530.67 123.73
C 534.01 122.93 532.78 121.81 525.69 119.22
C 517.64 116.29 514.71 113.40 514.67 108.38
C 514.63 102.17 518.65 63.61 521.41 43.94
C 524.75 19.94 527.36 8.81 530.53 5.05
C 536.46 -1.99 553.27 -1.74 558.95 5.47
C 561.70 8.97 564.51 21.37 567.66 43.94
C 570.41 63.61 574.43 102.17 574.39 108.38
C 574.35 113.40 571.42 116.29 563.37 119.22
C 556.28 121.81 555.05 122.93 558.39 123.73
C 561.11 124.38 575.14 121.85 576.55 120.44
C 577.14 119.85 577.07 117.78 576.33 114.86
C 575.31 110.83 575.44 109.38 577.35 103.65
C 580.05 95.57 583.73 92.07 592.22 89.49
C 598.35 87.65 598.43 87.65 605.03 89.84
C 613.23 92.57 616.68 96.20 619.31 104.90
C 621.24 111.24 621.23 111.27 619.08 117.90
C 617.48 122.81 617.19 125.04 617.94 126.46
C 618.51 127.52 618.83 129.61 618.66 131.11
C 618.38 133.62 617.88 133.89 612.79 134.48
C 609.73 134.84 599.49 135.44 590.04 135.85
C 570.51 136.66 565.79 137.53 564.14 140.62
C 562.14 144.35 563.90 154.27 569.84 172.73
C 576.02 191.89 576.21 194.01 572.51 202.36
C 570.62 206.65 569.76 207.37 562.92 210.48
C 558.79 212.36 555.02 214.53 554.52 215.28
C 554.04 216.05 553.63 229.85 553.63 245.96
C 553.63 274.86 553.60 275.35 551.03 282.58
L 548.42 289.90
L 585.67 289.90
C 630.40 289.90 626.94 288.76 626.94 303.54
C 626.94 318.94 642.96 317.17 503.52 317.17
L 384.14 317.17
L 386.81 321.46
C 391.73 329.36 399.32 345.89 401.08 352.53
C 406.29 372.14 400.49 387.59 385.40 394.28
C 378.29 397.42 365.44 399.40 357.46 398.59
C 351.82 398.00 336.12 394.91 330.92 393.36
L 328.64 392.70
L 328.64 429.17
L 328.64 465.66
L 478.30 465.66
C 626.61 465.66 627.98 465.68 629.98 467.68
C 631.96 469.66 632.00 471.04 632.00 532.83
C 632.00 594.62 631.96 596.00 629.98 597.98
C 627.97 599.99 626.61 600.00 316.00 600.00
C 5.39 600.00 4.03 599.99 2.02 597.98
M 625.93 593.94
C 627.90 591.97 627.96 590.58 627.96 532.83
C 627.96 475.08 627.90 473.69 625.93 471.72
C 623.92 469.71 622.57 469.70 316.00 469.70
C 9.43 469.70 8.08 469.71 6.07 471.72
C 4.10 473.69 4.04 475.08 4.04 532.83
C 4.04 590.58 4.10 591.97 6.07 593.94
C 8.08 595.95 9.43 595.96 316.00 595.96
C 622.57 595.96 623.92 595.95 625.93 593.94
M 321.56 428.48
L 321.56 391.31
L 317.01 389.10
L 312.46 386.90
L 312.46 426.27
L 312.46 465.66
L 317.01 465.66
L 321.56 465.66
L 321.56 428.48
M 370.35 390.89
C 374.10 390.35 378.65 389.29 380.46 388.55
C 383.45 387.31 382.81 387.23 373.56 387.66
C 336.82 389.36 282.76 360.78 257.36 326.20
L 250.73 317.17
L 244.62 317.17
L 238.51 317.17
L 242.85 323.48
C 245.24 326.96 252.89 335.48 259.86 342.44
C 277.53 360.10 295.18 371.84 318.07 381.14
C 329.47 385.78 341.83 389.25 352.42 390.80
C 360.79 392.01 362.56 392.02 370.35 390.89
M 383.92 378.85
C 386.24 377.80 388.62 376.02 389.23 374.90
C 393.84 366.30 384.40 348.78 363.69 327.53
L 353.61 317.17
L 341.13 317.17
L 328.64 317.17
L 328.64 343.98
L 328.64 370.78
L 333.22 372.74
C 337.60 374.62 353.68 379.21 358.98 380.11
C 360.37 380.34 365.60 380.59 370.60 380.65
C 377.56 380.74 380.70 380.31 383.92 378.85
M 321.56 342.93
L 321.56 317.17
L 317.01 317.17
L 312.46 317.17
L 312.46 340.30
L 312.46 363.43
L 316.76 366.02
C 319.12 367.44 321.17 368.63 321.31 368.65
C 321.45 368.67 321.56 357.09 321.56 342.93
M 305.05 317.51
C 304.84 317.30 294.55 317.25 282.20 317.40
L 259.73 317.68
L 264.71 324.24
C 271.56 333.25 283.89 344.78 295.32 352.85
L 304.88 359.61
L 305.15 338.75
C 305.30 327.27 305.25 317.72 305.05 317.51
M 392.86 349.77
C 390.27 342.83 381.62 326.11 378.13 321.29
C 375.25 317.32 374.94 317.17 369.48 317.17
L 363.82 317.17
L 371.39 325.21
C 380.01 334.35 387.33 343.77 391.20 350.68
C 394.50 356.54 395.24 356.13 392.86 349.77
M 74.62 343.86
C 78.90 342.98 85.83 340.79 90.00 338.98
C 98.96 335.11 114.12 325.88 119.83 320.84
L 123.87 317.25
L 113.91 317.21
L 103.96 317.17
L 99.50 321.09
C 90.19 329.28 73.25 336.06 64.72 335.00
C 54.39 333.73 41.83 327.56 33.26 319.54
C 30.94 317.36 29.85 317.10 24.22 317.37
L 17.81 317.68
L 21.29 321.65
C 26.47 327.55 38.53 336.80 45.06 339.89
C 50.31 342.36 60.52 345.17 65.01 345.37
C 66.01 345.41 70.33 344.74 74.62 343.86
M 82.39 325.32
C 86.85 323.08 91.63 320.34 93.03 319.23
L 95.56 317.21
L 67.94 317.19
C 51.79 317.18 40.56 317.55 40.89 318.08
C 41.21 318.59 44.07 320.74 47.27 322.86
C 60.35 331.56 68.80 332.14 82.39 325.32
M 617.64 308.89
C 619.21 307.32 619.21 299.75 617.64 298.18
C 616.70 297.24 548.61 296.97 317.31 296.97
C 19.55 296.97 18.19 296.98 16.18 298.99
C 15.07 300.10 14.16 302.14 14.16 303.54
C 14.16 304.93 15.07 306.97 16.18 308.08
C 18.19 310.09 19.55 310.10 317.31 310.10
C 548.61 310.10 616.70 309.83 617.64 308.89
M 21.72 280.56
C 25.61 259.77 28.69 253.64 37.12 249.77
L 42.69 247.22
L 48.82 249.08
C 59.25 252.23 65.95 257.15 90.50 279.69
L 101.63 289.89
L 109.21 289.87
L 116.79 289.84
L 109.72 283.03
C 84.03 258.36 53.37 238.47 40.95 238.44
C 27.98 238.40 17.48 251.83 11.63 275.94
C 8.13 290.38 8.03 289.90 14.54 289.90
L 19.97 289.90
L 21.72 280.56
M 83.93 281.60
C 58.83 257.58 47.00 250.62 38.63 254.95
C 33.36 257.67 28.53 267.84 26.83 279.80
C 26.47 282.30 25.95 285.60 25.65 287.12
L 25.12 289.90
L 58.82 289.86
L 92.52 289.82
L 83.93 281.60
M 221.45 194.11
C 221.45 141.42 221.19 98.05 220.87 97.74
C 220.04 96.90 206.71 102.55 201.27 106.04
C 195.28 109.88 188.78 116.65 186.19 121.72
C 181.04 131.81 181.00 132.29 181.00 213.85
L 181.00 289.90
L 201.23 289.90
L 221.45 289.90
L 221.45 194.11
M 266.96 158.59
L 266.96 27.27
L 251.49 27.27
C 240.80 27.27 235.64 27.65 234.80 28.48
C 233.87 29.41 233.59 59.96 233.59 159.80
L 233.59 289.90
L 250.27 289.90
L 266.96 289.90
L 266.96 158.59
M 312.46 159.80
C 312.46 59.96 312.18 29.41 311.25 28.48
C 310.41 27.65 305.25 27.27 294.56 27.27
L 279.09 27.27
L 279.09 158.59
L 279.09 289.90
L 295.78 289.90
L 312.46 289.90
L 312.46 159.80
M 365.04 213.85
C 365.04 132.29 365.01 131.81 359.86 121.72
C 357.27 116.65 350.77 109.88 344.78 106.04
C 339.34 102.55 326.01 96.90 325.18 97.74
C 324.86 98.05 324.60 141.42 324.60 194.11
L 324.60 289.90
L 344.82 289.90
L 365.04 289.90
L 365.04 213.85
M 548.77 271.21
C 549.99 265.47 550.13 259.46 549.56 239.29
C 549.03 220.72 549.16 213.87 550.06 212.17
C 550.77 210.86 554.45 208.46 558.82 206.47
C 565.47 203.44 566.60 202.53 568.32 198.74
C 569.40 196.37 570.29 193.60 570.30 192.55
C 570.31 191.51 567.99 183.56 565.15 174.87
C 560.97 162.12 559.88 157.31 559.46 149.84
C 558.83 138.93 559.44 135.84 562.49 134.19
C 563.78 133.49 571.61 132.65 580.71 132.23
C 589.49 131.82 600.48 131.17 605.14 130.79
L 613.62 130.08
L 612.61 127.18
C 611.82 124.93 612.08 122.84 613.80 117.69
C 615.89 111.39 615.92 110.85 614.38 106.34
C 612.29 100.20 608.55 96.39 602.70 94.45
C 598.44 93.04 597.56 93.04 593.52 94.46
C 587.55 96.57 583.86 100.30 581.88 106.25
C 580.60 110.10 580.49 111.84 581.35 114.31
C 584.14 122.31 582.24 124.95 572.30 126.85
C 561.45 128.91 555.60 128.74 553.13 126.26
C 549.41 122.55 551.09 117.98 556.91 116.10
C 563.03 114.13 568.15 111.25 569.27 109.16
C 571.13 105.70 563.56 40.51 559.04 20.93
C 556.72 10.89 554.02 6.85 548.41 5.00
C 545.66 4.09 543.84 4.08 540.94 4.95
C 535.15 6.68 532.38 10.73 530.02 20.93
C 525.50 40.51 517.94 105.70 519.80 109.16
C 520.91 111.25 526.04 114.13 532.15 116.10
C 537.97 117.98 539.66 122.55 535.94 126.26
C 533.46 128.74 527.61 128.91 516.76 126.85
C 506.82 124.95 504.92 122.31 507.71 114.31
C 508.57 111.84 508.46 110.10 507.18 106.25
C 505.21 100.30 501.51 96.57 495.54 94.46
C 491.50 93.04 490.62 93.04 486.37 94.45
C 480.51 96.39 476.77 100.20 474.68 106.34
C 473.14 110.86 473.17 111.38 475.32 117.86
C 477.09 123.16 477.36 125.22 476.55 127.36
L 475.52 130.08
L 483.95 130.79
C 488.59 131.17 499.57 131.82 508.35 132.23
C 517.45 132.65 525.28 133.49 526.57 134.19
C 529.63 135.84 530.23 138.93 529.61 149.84
C 529.18 157.31 528.09 162.12 523.91 174.87
C 521.07 183.56 518.76 191.51 518.77 192.55
C 518.78 193.60 519.67 196.37 520.74 198.74
C 522.47 202.53 523.59 203.44 530.24 206.47
C 534.39 208.36 538.28 210.84 538.90 211.99
C 539.65 213.39 539.92 223.13 539.75 242.13
C 539.49 269.32 539.55 270.44 541.89 277.78
L 544.31 285.35
L 545.79 281.82
C 546.60 279.87 547.95 275.10 548.77 271.21"/>
<path fill="#000000" stroke="none" d="
M 7.08 562.12
L 7.08 537.37
L 31.85 537.37
L 56.63 537.37
L 56.63 562.12
L 56.63 586.87
L 31.85 586.87
L 7.08 586.87
L 7.08 562.12
M 52.58 562.12
L 52.58 541.41
L 31.85 541.41
L 11.12 541.41
L 11.12 562.12
L 11.12 582.83
L 31.85 582.83
L 52.58 582.83
L 52.58 562.12"/>
<path fill="#000000" stroke="none" d="
M 65.73 562.12
L 65.73 537.37
L 92.52 537.37
L 119.32 537.37
L 119.32 562.12
L 119.32 586.87
L 92.52 586.87
L 65.73 586.87
L 65.73 562.12
M 115.28 562.12
L 115.28 541.41
L 92.52 541.41
L 69.77 541.41
L 69.77 562.12
L 69.77 582.83
L 92.52 582.83
L 115.28 582.83
L 115.28 562.12"/>
<path fill="#000000" stroke="none" d="
M 128.42 562.12
L 128.42 537.37
L 156.23 537.37
L 184.04 537.37
L 184.04 562.12
L 184.04 586.87
L 156.23 586.87
L 128.42 586.87
L 128.42 562.12
M 179.99 562.12
L 179.99 541.41
L 156.23 541.41
L 132.47 541.41
L 132.47 562.12
L 132.47 582.83
L 156.23 582.83
L 179.99 582.83
L 179.99 562.12"/>
<path fill="#000000" stroke="none" d="
M 193.14 562.12
L 193.14 537.37
L 220.44 537.37
L 247.74 537.37
L 247.74 562.12
L 247.74 586.87
L 220.44 586.87
L 193.14 586.87
L 193.14 562.12
M 243.70 562.12
L 243.70 541.41
L 220.44 541.41
L 197.18 541.41
L 197.18 562.12
L 197.18 582.83
L 220.44 582.83
L 243.70 582.83
L 243.70 562.12"/>
<path fill="#000000" stroke="none" d="
M 256.84 562.12
L 256.84 537.37
L 284.65 537.37
L 312.46 537.37
L 312.46 562.12
L 312.46 586.87
L 284.65 586.87
L 256.84 586.87
L 256.84 562.12
M 308.42 562.12
L 308.42 541.41
L 284.65 541.41
L 260.89 541.41
L 260.89 562.12
L 260.89 582.83
L 284.65 582.83
L 308.42 582.83
L 308.42 562.12"/>
<path fill="#000000" stroke="none" d="
M 321.56 562.12
L 321.56 537.37
L 348.36 537.37
L 375.16 537.37
L 375.16 562.12
L 375.16 586.87
L 348.36 586.87
L 321.56 586.87
L 321.56 562.12
M 371.11 562.12
L 371.11 541.41
L 348.36 541.41
L 325.61 541.41
L 325.61 562.12
L 325.61 582.83
L 348.36 582.83
L 371.11 582.83
L 371.11 562.12"/>
<path fill="#000000" stroke="none" d="
M 384.26 562.12
L 384.26 537.37
L 411.56 537.37
L 438.86 537.37
L 438.86 562.12
L 438.86 586.87
L 411.56 586.87
L 384.26 586.87
L 384.26 562.12
M 434.82 562.12
L 434.82 541.41
L 411.56 541.41
L 388.30 541.41
L 388.30 562.12
L 388.30 582.83
L 411.56 582.83
L 434.82 582.83
L 434.82 562.12"/>
<path fill="#000000" stroke="none" d="
M 447.96 562.12
L 447.96 537.37
L 475.77 537.37
L 503.58 537.37
L 503.58 562.12
L 503.58 586.87
L 475.77 586.87
L 447.96 586.87
L 447.96 562.12
M 499.53 562.12
L 499.53 541.41
L 475.77 541.41
L 452.01 541.41
L 452.01 562.12
L 452.01 582.83
L 475.77 582.83
L 499.53 582.83
L 499.53 562.12"/>
<path fill="#000000" stroke="none" d="
M 512.68 562.12
L 512.68 537.37
L 539.48 537.37
L 566.27 537.37
L 566.27 562.12
L 566.27 586.87
L 539.48 586.87
L 512.68 586.87
L 512.68 562.12
M 562.23 562.12
L 562.23 541.41
L 539.48 541.41
L 516.72 541.41
L 516.72 562.12
L 516.72 582.83
L 539.48 582.83
L 562.23 582.83
L 562.23 562.12"/>
<path fill="#000000" stroke="none" d="
M 575.37 562.12
L 575.37 537.37
L 600.15 537.37
L 624.92 537.37
L 624.92 562.12
L 624.92 586.87
L 600.15 586.87
L 575.37 586.87
L 575.37 562.12
M 620.88 562.12
L 620.88 541.41
L 600.15 541.41
L 579.42 541.41
L 579.42 562.12
L 579.42 582.83
L 600.15 582.83
L 620.88 582.83
L 620.88 562.12"/>
<path fill="#000000" stroke="none" d="
M 7.08 503.54
L 7.08 478.79
L 31.85 478.79
L 56.63 478.79
L 56.63 503.54
L 56.63 528.28
L 31.85 528.28
L 7.08 528.28
L 7.08 503.54
M 52.58 503.54
L 52.58 482.83
L 31.85 482.83
L 11.12 482.83
L 11.12 503.54
L 11.12 524.24
L 31.85 524.24
L 52.58 524.24
L 52.58 503.54"/>
<path fill="#000000" stroke="none" d="
M 65.73 503.54
L 65.73 478.79
L 92.52 478.79
L 119.32 478.79
L 119.32 503.54
L 119.32 528.28
L 92.52 528.28
L 65.73 528.28
L 65.73 503.54
M 115.28 503.54
L 115.28 482.83
L 92.52 482.83
L 69.77 482.83
L 69.77 503.54
L 69.77 524.24
L 92.52 524.24
L 115.28 524.24
L 115.28 503.54"/>
<path fill="#000000" stroke="none" d="
M 128.42 503.54
L 128.42 478.79
L 156.23 478.79
L 184.04 478.79
L 184.04 503.54
L 184.04 528.28
L 156.23 528.28
L 128.42 528.28
L 128.42 503.54
M 179.99 503.54
L 179.99 482.83
L 156.23 482.83
L 132.47 482.83
L 132.47 503.54
L 132.47 524.24
L 156.23 524.24
L 179.99 524.24
L 179.99 503.54"/>
<path fill="#000000" stroke="none" d="
M 193.14 503.54
L 193.14 478.79
L 220.44 478.79
L 247.74 478.79
L 247.74 503.54
L 247.74 528.28
L 220.44 528.28
L 193.14 528.28
L 193.14 503.54
M 243.70 503.54
L 243.70 482.83
L 220.44 482.83
L 197.18 482.83
L 197.18 503.54
L 197.18 524.24
L 220.44 524.24
L 243.70 524.24
L 243.70 503.54"/>
<path fill="#000000" stroke="none" d="
M 256.84 503.54
L 256.84 478.79
L 284.65 478.79
L 312.46 478.79
L 312.46 503.54
L 312.46 528.28
L 284.65 528.28
L 256.84 528.28
L 256.84 503.54
M 308.42 503.54
L 308.42 482.83
L 284.65 482.83
L 260.89 482.83
L 260.89 503.54
L 260.89 524.24
L 284.65 524.24
L 308.42 524.24
L 308.42 503.54"/>
<path fill="#000000" stroke="none" d="
M 321.56 503.54
L 321.56 478.79
L 348.36 478.79
L 375.16 478.79
L 375.16 503.54
L 375.16 528.28
L 348.36 528.28
L 321.56 528.28
L 321.56 503.54
M 371.11 503.54
L 371.11 482.83
L 348.36 482.83
L 325.61 482.83
L 325.61 503.54
L 325.61 524.24
L 348.36 524.24
L 371.11 524.24
L 371.11 503.54"/>
<path fill="#000000" stroke="none" d="
M 384.26 503.54
L 384.26 478.79
L 411.56 478.79
L 438.86 478.79
L 438.86 503.54
L 438.86 528.28
L 411.56 528.28
L 384.26 528.28
L 384.26 503.54
M 434.82 503.54
L 434.82 482.83
L 411.56 482.83
L 388.30 482.83
L 388.30 503.54
L 388.30 524.24
L 411.56 524.24
L 434.82 524.24
L 434.82 503.54"/>
<path fill="#000000" stroke="none" d="
M 447.96 503.54
L 447.96 478.79
L 475.77 478.79
L 503.58 478.79
L 503.58 503.54
L 503.58 528.28
L 475.77 528.28
L 447.96 528.28
L 447.96 503.54
M 499.53 503.54
L 499.53 482.83
L 475.77 482.83
L 452.01 482.83
L 452.01 503.54
L 452.01 524.24
L 475.77 524.24
L 499.53 524.24
L 499.53 503.54"/>
<path fill="#000000" stroke="none" d="
M 512.68 503.54
L 512.68 478.79
L 539.48 478.79
L 566.27 478.79
L 566.27 503.54
L 566.27 528.28
L 539.48 528.28
L 512.68 528.28
L 512.68 503.54
M 562.23 503.54
L 562.23 482.83
L 539.48 482.83
L 516.72 482.83
L 516.72 503.54
L 516.72 524.24
L 539.48 524.24
L 562.23 524.24
L 562.23 503.54"/>
<path fill="#000000" stroke="none" d="
M 575.37 503.54
L 575.37 478.79
L 600.15 478.79
L 624.92 478.79
L 624.92 503.54
L 624.92 528.28
L 600.15 528.28
L 575.37 528.28
L 575.37 503.54
M 620.88 503.54
L 620.88 482.83
L 600.15 482.83
L 579.42 482.83
L 579.42 503.54
L 579.42 524.24
L 600.15 524.24
L 620.88 524.24
L 620.88 503.54"/>
<path fill="#000000" stroke="none" d="
M 528.13 199.52
C 523.80 197.64 523.26 194.79 525.37 185.18
C 527.27 176.56 532.50 160.86 534.15 158.84
C 535.68 156.95 538.76 157.31 539.94 159.53
C 540.56 160.67 540.99 168.93 540.99 179.22
C 540.99 195.63 540.84 197.12 538.97 198.99
C 536.62 201.33 532.75 201.53 528.13 199.52
M 535.84 194.56
C 536.62 193.62 536.92 188.75 536.72 179.66
L 536.44 166.16
L 533.27 175.76
C 528.82 189.18 528.21 193.46 530.56 194.83
C 533.06 196.28 534.46 196.21 535.84 194.56"/>
<path fill="#000000" stroke="none" d="
M 550.09 198.99
C 548.22 197.12 548.07 195.63 548.07 179.22
C 548.07 160.97 548.69 157.58 552.02 157.58
C 554.67 157.58 555.57 159.01 558.95 168.69
C 562.86 179.89 565.59 192.45 564.81 195.61
C 563.60 200.40 553.77 202.67 550.09 198.99
M 558.32 194.87
C 560.88 193.51 560.36 189.53 555.80 175.76
L 552.62 166.16
L 552.34 179.66
C 552.00 195.52 552.89 197.78 558.32 194.87"/>
<path fill="#000000" stroke="none" d="
M 485.83 124.84
C 478.87 121.82 474.97 113.57 477.25 106.69
C 478.66 102.39 484.07 97.41 488.33 96.48
C 494.89 95.04 503.53 100.94 505.06 107.92
C 506.53 114.62 501.94 122.64 495.16 125.19
C 491.51 126.57 489.63 126.49 485.83 124.84
M 496.62 117.29
C 498.84 115.07 500.54 112.38 500.54 111.11
C 500.54 108.43 493.49 101.01 490.94 101.01
C 488.39 101.01 481.33 108.43 481.33 111.11
C 481.33 113.79 488.39 121.21 490.94 121.21
C 491.90 121.21 494.46 119.44 496.62 117.29"/>
<path fill="#000000" stroke="none" d="
M 593.02 124.84
C 582.80 120.39 580.69 107.44 589.01 100.15
C 595.38 94.56 602.97 95.10 608.64 101.56
C 614.03 107.69 613.75 115.97 607.96 121.48
C 603.10 126.12 598.39 127.18 593.02 124.84
M 603.81 117.29
C 606.02 115.07 607.73 112.38 607.73 111.11
C 607.73 108.43 600.67 101.01 598.12 101.01
C 595.58 101.01 588.52 108.43 588.52 111.11
C 588.52 113.79 595.58 121.21 598.12 121.21
C 599.09 121.21 601.64 119.44 603.81 117.29"/>
<path fill="#000000" stroke="none" d="
M 534.42 110.65
C 531.64 109.84 529.03 109.16 528.64 109.13
C 528.23 109.11 527.15 107.64 526.22 105.85
C 524.75 103.02 524.61 99.83 525.11 80.34
C 525.86 50.42 528.98 29.87 535.11 14.36
C 537.45 8.39 540.05 6.06 544.32 6.06
C 550.22 6.06 552.23 8.45 556.04 20.06
C 560.93 34.96 564.22 61.70 564.24 86.67
C 564.25 105.70 563.58 107.99 557.49 109.95
C 551.27 111.96 540.10 112.29 534.42 110.65
M 553.45 105.80
C 559.23 104.14 560.20 101.39 560.19 86.67
C 560.17 63.79 556.46 37.31 551.05 21.38
C 547.83 11.91 545.94 9.55 542.87 11.18
C 541.84 11.74 540.99 12.29 540.99 12.41
C 540.99 12.55 539.65 16.58 538.01 21.39
C 536.37 26.20 534.31 33.93 533.42 38.56
C 529.08 61.22 527.41 96.29 530.40 102.07
C 531.24 103.71 532.28 105.07 532.68 105.09
C 533.07 105.12 535.68 105.78 538.46 106.56
C 543.55 107.97 546.32 107.83 553.45 105.80"/>
<path fill="#f3b345" stroke="none" d="
M 541.89 277.78
C 539.55 270.44 539.49 269.32 539.75 242.13
C 539.92 223.13 539.65 213.39 538.90 211.99
C 538.28 210.84 534.39 208.36 530.24 206.47
C 523.59 203.44 522.47 202.53 520.74 198.74
C 519.67 196.37 518.78 193.60 518.77 192.55
C 518.76 191.51 521.07 183.56 523.91 174.87
C 528.09 162.12 529.18 157.31 529.61 149.84
C 530.23 138.93 529.63 135.84 526.57 134.19
C 525.28 133.49 517.45 132.65 508.35 132.23
C 499.57 131.82 488.59 131.17 483.95 130.79
L 475.52 130.08
L 476.55 127.36
C 477.36 125.22 477.09 123.16 475.32 117.86
C 473.17 111.38 473.14 110.86 474.68 106.34
C 476.77 100.20 480.51 96.39 486.37 94.45
C 490.62 93.04 491.50 93.04 495.54 94.46
C 501.51 96.57 505.21 100.30 507.18 106.25
C 508.46 110.10 508.57 111.84 507.71 114.31
C 504.92 122.31 506.82 124.95 516.76 126.85
C 527.61 128.91 533.46 128.74 535.94 126.26
C 539.66 122.55 537.97 117.98 532.15 116.10
C 526.04 114.13 520.91 111.25 519.80 109.16
C 517.94 105.70 525.50 40.51 530.02 20.93
C 532.42 10.57 535.18 6.62 541.13 5.01
C 550.35 2.54 555.94 7.51 559.04 20.93
C 563.56 40.51 571.13 105.70 569.27 109.16
C 568.15 111.25 563.03 114.13 556.91 116.10
C 551.09 117.98 549.41 122.55 553.13 126.26
C 555.60 128.74 561.45 128.91 572.30 126.85
C 582.24 124.95 584.14 122.31 581.35 114.31
C 580.49 111.84 580.60 110.10 581.88 106.25
C 583.86 100.30 587.55 96.57 593.52 94.46
C 597.56 93.04 598.44 93.04 602.70 94.45
C 608.55 96.39 612.29 100.20 614.38 106.34
C 615.92 110.85 615.89 111.39 613.80 117.69
C 612.08 122.84 611.82 124.93 612.61 127.18
L 613.62 130.08
L 605.14 130.79
C 600.48 131.17 589.49 131.82 580.71 132.23
C 571.61 132.65 563.78 133.49 562.49 134.19
C 559.44 135.84 558.83 138.93 559.46 149.84
C 559.88 157.31 560.97 162.12 565.15 174.87
C 567.99 183.56 570.31 191.51 570.30 192.55
C 570.29 193.60 569.40 196.37 568.32 198.74
C 566.60 202.53 565.47 203.44 558.82 206.47
C 554.45 208.46 550.77 210.86 550.06 212.17
C 549.16 213.87 549.03 220.72 549.56 239.29
C 550.30 265.07 549.63 272.68 545.79 281.82
L 544.31 285.35
L 541.89 277.78
M 538.97 198.99
C 540.84 197.12 540.99 195.63 540.99 179.22
C 540.99 160.97 540.38 157.58 537.04 157.58
C 534.39 157.58 533.49 159.01 530.11 168.69
C 526.20 179.89 523.47 192.45 524.26 195.61
C 525.46 200.40 535.29 202.67 538.97 198.99
M 560.71 199.57
C 565.28 197.66 565.85 194.95 563.69 185.18
C 561.79 176.56 556.56 160.86 554.92 158.84
C 553.38 156.95 550.31 157.31 549.12 159.53
C 548.51 160.67 548.07 168.93 548.07 179.22
C 548.07 195.63 548.22 197.12 550.09 198.99
C 552.48 201.37 555.92 201.56 560.71 199.57
M 495.16 125.19
C 501.94 122.64 506.53 114.62 505.06 107.92
C 504.14 103.77 499.13 98.33 494.93 96.95
C 485.41 93.81 474.82 103.54 476.72 113.68
C 477.52 117.91 481.72 123.05 485.83 124.84
C 489.63 126.49 491.51 126.57 495.16 125.19
M 602.35 125.19
C 609.13 122.64 613.59 115.17 612.33 108.49
C 611.48 103.99 606.56 98.41 602.12 96.95
C 592.59 93.81 582.01 103.54 583.91 113.68
C 584.71 117.91 588.90 123.05 593.02 124.84
C 596.82 126.49 598.70 126.57 602.35 125.19
M 557.49 109.95
C 563.58 107.99 564.25 105.70 564.24 86.67
C 564.22 61.70 560.93 34.96 556.04 20.06
C 552.23 8.45 550.22 6.06 544.32 6.06
C 540.05 6.06 537.45 8.39 535.11 14.36
C 528.98 29.87 525.86 50.42 525.11 80.34
C 524.61 99.83 524.75 103.02 526.22 105.85
C 527.15 107.64 528.23 109.11 528.64 109.13
C 529.03 109.16 531.64 109.84 534.42 110.65
C 540.10 112.29 551.27 111.96 557.49 109.95"/>
<path fill="#139b26" stroke="none" d="
M 538.46 106.56
C 535.68 105.78 533.07 105.12 532.68 105.09
C 532.28 105.07 531.24 103.71 530.40 102.07
C 527.41 96.30 529.07 61.22 533.41 38.64
C 534.91 30.76 539.13 16.75 541.15 12.88
C 541.66 11.91 543.18 11.11 544.53 11.11
C 547.40 11.11 547.97 12.04 551.45 22.47
C 556.51 37.65 560.17 64.54 560.19 86.67
C 560.20 101.39 559.23 104.14 553.45 105.80
C 546.32 107.83 543.55 107.97 538.46 106.56"/>
<path fill="#f9ab98" stroke="none" d="
M 181.00 213.85
C 181.00 132.29 181.04 131.81 186.19 121.72
C 188.78 116.65 195.28 109.88 201.27 106.04
C 206.71 102.55 220.04 96.90 220.87 97.74
C 221.19 98.05 221.45 141.42 221.45 194.11
L 221.45 289.90
L 201.23 289.90
L 181.00 289.90
L 181.00 213.85"/>
<path fill="#f9ab98" stroke="none" d="
M 233.59 159.64
C 233.59 31.87 233.63 29.34 235.54 28.32
C 236.63 27.74 244.01 27.27 252.22 27.27
L 266.96 27.27
L 266.96 158.59
L 266.96 289.90
L 250.27 289.90
L 233.59 289.90
L 233.59 159.64"/>
<path fill="#f9ab98" stroke="none" d="
M 279.09 158.59
L 279.09 27.27
L 294.56 27.27
C 305.25 27.27 310.41 27.65 311.25 28.48
C 312.18 29.41 312.46 59.96 312.46 159.80
L 312.46 289.90
L 295.78 289.90
L 279.09 289.90
L 279.09 158.59"/>
<path fill="#f9ab98" stroke="none" d="
M 324.60 194.11
C 324.60 141.42 324.86 98.05 325.18 97.74
C 326.01 96.90 339.34 102.55 344.78 106.04
C 350.77 109.88 357.27 116.65 359.86 121.72
C 365.01 131.81 365.04 132.29 365.04 213.85
L 365.04 289.90
L 344.82 289.90
L 324.60 289.90
L 324.60 194.11"/>
<path fill="#f94d36" stroke="none" d="
M 485.25 117.29
C 480.47 112.52 480.34 110.10 484.62 105.62
C 489.72 100.27 491.82 100.14 496.54 104.85
C 498.81 107.13 500.54 109.83 500.54 111.11
C 500.54 113.79 493.49 121.21 490.94 121.21
C 489.98 121.21 487.42 119.44 485.25 117.29"/>
<path fill="#f94d36" stroke="none" d="
M 592.44 117.29
C 590.23 115.07 588.52 112.38 588.52 111.11
C 588.52 108.43 595.58 101.01 598.12 101.01
C 600.67 101.01 607.73 108.43 607.73 111.11
C 607.73 113.79 600.67 121.21 598.12 121.21
C 597.16 121.21 594.61 119.44 592.44 117.29"/>
<path fill="#116dc3" stroke="none" d="
M 530.56 194.83
C 529.04 193.95 528.84 193.01 529.40 189.56
C 530.30 184.11 534.85 169.47 536.04 168.23
C 536.58 167.66 536.95 172.56 536.95 180.40
C 536.95 195.62 535.92 197.94 530.56 194.83"/>
<path fill="#116dc3" stroke="none" d="
M 553.22 194.56
C 552.44 193.62 552.15 188.75 552.34 179.66
L 552.62 166.16
L 555.80 175.76
C 560.36 189.53 560.88 193.51 558.32 194.87
C 555.64 196.30 554.62 196.24 553.22 194.56"/>
<path fill="#ffa153" stroke="none" d="
M 57.00 343.95
C 53.60 343.21 48.22 341.38 45.06 339.89
C 38.53 336.80 26.47 327.55 21.29 321.65
L 17.81 317.68
L 24.22 317.37
C 29.85 317.10 30.94 317.36 33.26 319.54
C 41.83 327.56 54.39 333.73 64.72 335.00
C 73.25 336.06 90.19 329.28 99.50 321.09
L 103.96 317.17
L 113.91 317.21
L 123.87 317.25
L 119.83 320.84
C 114.12 325.88 98.96 335.11 90.00 338.98
C 82.94 342.04 69.17 345.56 65.01 345.37
C 64.02 345.33 60.41 344.69 57.00 343.95"/>
<path fill="#ffa153" stroke="none" d="
M 9.10 288.13
C 9.10 283.36 14.69 264.22 18.18 257.00
C 24.22 244.54 32.16 238.33 41.96 238.42
C 53.45 238.54 85.05 259.34 109.72 283.03
L 116.79 289.84
L 109.21 289.87
L 101.63 289.89
L 90.50 279.69
C 65.95 257.15 59.25 252.23 48.82 249.08
L 42.69 247.22
L 37.12 249.77
C 28.69 253.64 25.61 259.77 21.72 280.56
L 19.97 289.90
L 14.54 289.90
C 10.03 289.90 9.10 289.60 9.10 288.13"/>
<path fill="#c55436" stroke="none" d="
M 312.46 426.27
L 312.46 386.90
L 317.01 389.10
L 321.56 391.31
L 321.56 428.48
L 321.56 465.66
L 317.01 465.66
L 312.46 465.66
L 312.46 426.27"/>
<path fill="#c55436" stroke="none" d="
M 316.76 366.02
L 312.46 363.43
L 312.46 340.30
L 312.46 317.17
L 317.01 317.17
L 321.56 317.17
L 321.56 342.93
C 321.56 357.09 321.45 368.67 321.31 368.65
C 321.17 368.63 319.12 367.44 316.76 366.02"/>
<path fill="#c55436" stroke="none" d="
M 16.18 308.08
C 13.81 305.72 13.57 302.20 15.59 299.43
C 17.01 297.51 21.38 297.47 316.57 297.22
C 537.69 297.03 616.47 297.26 617.48 298.10
C 619.18 299.51 619.29 307.24 617.64 308.89
C 616.70 309.83 548.61 310.10 317.31 310.10
C 19.55 310.10 18.19 310.09 16.18 308.08"/>
<path fill="#ef907a" stroke="none" d="
M 352.42 390.80
C 321.30 386.26 287.41 369.11 262.33 345.19
C 252.68 335.99 239.65 320.43 239.65 318.12
C 239.65 317.60 242.14 317.17 245.19 317.17
L 250.73 317.17
L 257.36 326.20
C 278.03 354.32 318.03 379.04 354.85 386.42
C 360.88 387.64 366.36 387.99 373.56 387.66
C 382.81 387.23 383.45 387.31 380.46 388.55
C 376.96 390.00 365.20 391.95 361.00 391.78
C 359.60 391.72 355.75 391.27 352.42 390.80"/>
<path fill="#ef907a" stroke="none" d="
M 391.20 350.68
C 387.33 343.77 380.01 334.35 371.39 325.21
L 363.82 317.17
L 369.48 317.17
C 374.94 317.17 375.25 317.32 378.13 321.29
C 383.52 328.73 395.50 353.76 394.26 354.99
C 394.03 355.21 392.67 353.27 391.20 350.68"/>
<path fill="#0885ff" stroke="none" d="
M 6.07 593.94
C 4.10 591.97 4.04 590.58 4.04 533.02
C 4.04 483.75 4.28 473.81 5.48 472.16
C 6.90 470.23 11.36 470.20 315.40 469.95
C 622.97 469.69 623.91 469.70 625.93 471.72
C 627.91 473.70 627.96 475.04 627.96 532.83
C 627.96 590.58 627.90 591.97 625.93 593.94
C 623.92 595.95 622.57 595.96 316.00 595.96
C 9.43 595.96 8.08 595.95 6.07 593.94
M 56.63 562.12
L 56.63 537.37
L 31.85 537.37
L 7.08 537.37
L 7.08 562.12
L 7.08 586.87
L 31.85 586.87
L 56.63 586.87
L 56.63 562.12
M 119.32 562.12
L 119.32 537.37
L 92.52 537.37
L 65.73 537.37
L 65.73 562.12
L 65.73 586.87
L 92.52 586.87
L 119.32 586.87
L 119.32 562.12
M 184.04 562.12
L 184.04 537.37
L 156.23 537.37
L 128.42 537.37
L 128.42 562.12
L 128.42 586.87
L 156.23 586.87
L 184.04 586.87
L 184.04 562.12
M 247.74 562.12
L 247.74 537.37
L 220.44 537.37
L 193.14 537.37
L 193.14 562.12
L 193.14 586.87
L 220.44 586.87
L 247.74 586.87
L 247.74 562.12
M 312.46 562.12
L 312.46 537.37
L 284.65 537.37
L 256.84 537.37
L 256.84 562.12
L 256.84 586.87
L 284.65 586.87
L 312.46 586.87
L 312.46 562.12
M 375.16 562.12
L 375.16 537.37
L 348.36 537.37
L 321.56 537.37
L 321.56 562.12
L 321.56 586.87
L 348.36 586.87
L 375.16 586.87
L 375.16 562.12
M 438.86 562.12
L 438.86 537.37
L 411.56 537.37
L 384.26 537.37
L 384.26 562.12
L 384.26 586.87
L 411.56 586.87
L 438.86 586.87
L 438.86 562.12
M 503.58 562.12
L 503.58 537.37
L 475.77 537.37
L 447.96 537.37
L 447.96 562.12
L 447.96 586.87
L 475.77 586.87
L 503.58 586.87
L 503.58 562.12
M 566.27 562.12
L 566.27 537.37
L 539.48 537.37
L 512.68 537.37
L 512.68 562.12
L 512.68 586.87
L 539.48 586.87
L 566.27 586.87
L 566.27 562.12
M 624.92 562.12
L 624.92 537.37
L 600.15 537.37
L 575.37 537.37
L 575.37 562.12
L 575.37 586.87
L 600.15 586.87
L 624.92 586.87
L 624.92 562.12
M 56.63 503.54
L 56.63 478.79
L 31.85 478.79
L 7.08 478.79
L 7.08 503.54
L 7.08 528.28
L 31.85 528.28
L 56.63 528.28
L 56.63 503.54
M 119.32 503.54
L 119.32 478.79
L 92.52 478.79
L 65.73 478.79
L 65.73 503.54
L 65.73 528.28
L 92.52 528.28
L 119.32 528.28
L 119.32 503.54
M 184.04 503.54
L 184.04 478.79
L 156.23 478.79
L 128.42 478.79
L 128.42 503.54
L 128.42 528.28
L 156.23 528.28
L 184.04 528.28
L 184.04 503.54
M 247.74 503.54
L 247.74 478.79
L 220.44 478.79
L 193.14 478.79
L 193.14 503.54
L 193.14 528.28
L 220.44 528.28
L 247.74 528.28
L 247.74 503.54
M 312.46 503.54
L 312.46 478.79
L 284.65 478.79
L 256.84 478.79
L 256.84 503.54
L 256.84 528.28
L 284.65 528.28
L 312.46 528.28
L 312.46 503.54
M 375.16 503.54
L 375.16 478.79
L 348.36 478.79
L 321.56 478.79
L 321.56 503.54
L 321.56 528.28
L 348.36 528.28
L 375.16 528.28
L 375.16 503.54
M 438.86 503.54
L 438.86 478.79
L 411.56 478.79
L 384.26 478.79
L 384.26 503.54
L 384.26 528.28
L 411.56 528.28
L 438.86 528.28
L 438.86 503.54
M 503.58 503.54
L 503.58 478.79
L 475.77 478.79
L 447.96 478.79
L 447.96 503.54
L 447.96 528.28
L 475.77 528.28
L 503.58 528.28
L 503.58 503.54
M 566.27 503.54
L 566.27 478.79
L 539.48 478.79
L 512.68 478.79
L 512.68 503.54
L 512.68 528.28
L 539.48 528.28
L 566.27 528.28
L 566.27 503.54
M 624.92 503.54
L 624.92 478.79
L 600.15 478.79
L 575.37 478.79
L 575.37 503.54
L 575.37 528.28
L 600.15 528.28
L 624.92 528.28
L 624.92 503.54"/>
<path fill="#c57a36" stroke="none" d="
M 11.12 562.12
L 11.12 541.41
L 31.85 541.41
L 52.58 541.41
L 52.58 562.12
L 52.58 582.83
L 31.85 582.83
L 11.12 582.83
L 11.12 562.12"/>
<path fill="#c57a36" stroke="none" d="
M 69.77 562.12
L 69.77 541.41
L 92.52 541.41
L 115.28 541.41
L 115.28 562.12
L 115.28 582.83
L 92.52 582.83
L 69.77 582.83
L 69.77 562.12"/>
<path fill="#c57a36" stroke="none" d="
M 132.47 562.12
L 132.47 541.41
L 156.23 541.41
L 179.99 541.41
L 179.99 562.12
L 179.99 582.83
L 156.23 582.83
L 132.47 582.83
L 132.47 562.12"/>
<path fill="#c57a36" stroke="none" d="
M 197.18 562.12
L 197.18 541.41
L 220.44 541.41
L 243.70 541.41
L 243.70 562.12
L 243.70 582.83
L 220.44 582.83
L 197.18 582.83
L 197.18 562.12"/>
<path fill="#c57a36" stroke="none" d="
M 260.89 562.12
L 260.89 541.41
L 284.65 541.41
L 308.42 541.41
L 308.42 562.12
L 308.42 582.83
L 284.65 582.83
L 260.89 582.83
L 260.89 562.12"/>
<path fill="#c57a36" stroke="none" d="
M 325.61 562.12
L 325.61 541.41
L 348.36 541.41
L 371.11 541.41
L 371.11 562.12
L 371.11 582.83
L 348.36 582.83
L 325.61 582.83
L 325.61 562.12"/>
<path fill="#c57a36" stroke="none" d="
M 388.30 562.12
L 388.30 541.41
L 411.56 541.41
L 434.82 541.41
L 434.82 562.12
L 434.82 582.83
L 411.56 582.83
L 388.30 582.83
L 388.30 562.12"/>
<path fill="#c57a36" stroke="none" d="
M 452.01 562.12
L 452.01 541.41
L 475.77 541.41
L 499.53 541.41
L 499.53 562.12
L 499.53 582.83
L 475.77 582.83
L 452.01 582.83
L 452.01 562.12"/>
<path fill="#c57a36" stroke="none" d="
M 516.72 562.12
L 516.72 541.41
L 539.48 541.41
L 562.23 541.41
L 562.23 562.12
L 562.23 582.83
L 539.48 582.83
L 516.72 582.83
L 516.72 562.12"/>
<path fill="#c57a36" stroke="none" d="
M 579.42 562.12
L 579.42 541.41
L 600.15 541.41
L 620.88 541.41
L 620.88 562.12
L 620.88 582.83
L 600.15 582.83
L 579.42 582.83
L 579.42 562.12"/>
<path fill="#c57a36" stroke="none" d="
M 11.36 503.79
L 11.63 483.33
L 32.11 483.06
L 52.58 482.79
L 52.58 503.52
L 52.58 524.24
L 31.83 524.24
L 11.08 524.24
L 11.36 503.79"/>
<path fill="#c57a36" stroke="none" d="
M 69.77 503.54
L 69.77 482.83
L 92.52 482.83
L 115.28 482.83
L 115.28 503.54
L 115.28 524.24
L 92.52 524.24
L 69.77 524.24
L 69.77 503.54"/>
<path fill="#c57a36" stroke="none" d="
M 132.47 503.54
L 132.47 482.83
L 156.23 482.83
L 179.99 482.83
L 179.99 503.54
L 179.99 524.24
L 156.23 524.24
L 132.47 524.24
L 132.47 503.54"/>
<path fill="#c57a36" stroke="none" d="
M 197.18 503.54
L 197.18 482.83
L 220.44 482.83
L 243.70 482.83
L 243.70 503.54
L 243.70 524.24
L 220.44 524.24
L 197.18 524.24
L 197.18 503.54"/>
<path fill="#c57a36" stroke="none" d="
M 260.89 503.54
L 260.89 482.83
L 284.65 482.83
L 308.42 482.83
L 308.42 503.54
L 308.42 524.24
L 284.65 524.24
L 260.89 524.24
L 260.89 503.54"/>
<path fill="#c57a36" stroke="none" d="
M 325.61 503.54
L 325.61 482.83
L 348.36 482.83
L 371.11 482.83
L 371.11 503.54
L 371.11 524.24
L 348.36 524.24
L 325.61 524.24
L 325.61 503.54"/>
<path fill="#c57a36" stroke="none" d="
M 388.30 503.54
L 388.30 482.83
L 411.56 482.83
L 434.82 482.83
L 434.82 503.54
L 434.82 524.24
L 411.56 524.24
L 388.30 524.24
L 388.30 503.54"/>
<path fill="#c57a36" stroke="none" d="
M 452.01 503.54
L 452.01 482.83
L 475.77 482.83
L 499.53 482.83
L 499.53 503.54
L 499.53 524.24
L 475.77 524.24
L 452.01 524.24
L 452.01 503.54"/>
<path fill="#c57a36" stroke="none" d="
M 516.72 503.54
L 516.72 482.83
L 539.48 482.83
L 562.23 482.83
L 562.23 503.54
L 562.23 524.24
L 539.48 524.24
L 516.72 524.24
L 516.72 503.54"/>
<path fill="#c57a36" stroke="none" d="
M 579.42 503.54
L 579.42 482.83
L 600.15 482.83
L 620.88 482.83
L 620.88 503.54
L 620.88 524.24
L 600.15 524.24
L 579.42 524.24
L 579.42 503.54"/>
</g>
</svg>
