<?xml version="1.0" encoding="UTF-8" standalone="no"?>
<!DOCTYPE svg PUBLIC "-//W3C//DTD SVG 1.1//EN"
"http://www.w3.org/Graphics/SVG/1.1/DTD/svg11.dtd">
<svg width="491px" height="600px"
xmlns="http://www.w3.org/2000/svg" version="1.1">
<g transform="translate(0000, 0000) scale(1.0000, 1.0000)">
<path fill="#000000" stroke="none" d="
M 1.57 598.43
C 0.03 596.89 0.00 595.82 0.00 547.84
C 0.00 499.87 0.03 498.79 1.57 497.25
C 3.13 495.70 4.19 495.69 120.20 495.69
L 237.27 495.69
L 237.06 463.85
L 236.86 432.01
L 228.46 427.18
C 223.84 424.53 217.12 420.24 213.53 417.66
C 204.52 411.19 189.13 395.62 183.48 387.25
L 178.83 380.39
L 141.10 380.39
L 103.37 380.39
L 100.59 383.07
C 96.51 387.01 83.06 395.75 75.65 399.29
C 72.09 400.98 65.38 403.29 60.72 404.43
C 52.94 406.31 51.79 406.42 46.80 405.58
C 32.94 403.25 25.48 398.96 12.77 385.95
C 3.03 375.98 0.97 372.24 1.83 365.99
C 4.82 343.99 9.67 329.44 16.48 322.06
C 20.23 318.01 26.33 315.29 31.65 315.30
C 36.60 315.32 47.09 319.29 54.68 324.03
C 62.78 329.08 75.98 339.49 88.74 350.85
L 98.12 359.22
L 114.71 359.22
L 131.30 359.22
L 133.32 356.82
C 135.89 353.77 142.92 350.23 148.48 349.17
C 150.86 348.72 157.33 348.13 162.88 347.86
C 179.21 347.07 185.46 344.29 189.97 335.83
C 191.31 333.34 194.32 325.84 196.67 319.18
C 199.02 312.51 203.53 300.00 206.68 291.37
C 214.24 270.66 214.25 270.04 207.44 250.53
C 203.08 238.04 201.77 233.84 198.72 222.59
C 197.88 219.48 198.36 219.84 167.73 199.87
C 154.96 191.55 147.48 185.55 139.43 177.15
C 129.03 166.32 123.66 157.22 119.85 144.03
C 117.35 135.40 117.35 133.40 119.80 125.66
C 122.02 118.64 125.40 113.10 133.28 103.53
C 140.65 94.59 145.82 87.38 151.21 78.48
C 156.11 70.40 163.40 56.35 163.40 55.00
C 163.40 53.55 160.07 51.92 155.12 50.97
C 150.72 50.13 149.82 50.21 143.33 52.18
C 120.09 59.23 99.30 76.63 84.01 101.84
C 82.04 105.09 79.51 108.43 78.39 109.27
C 74.26 112.34 69.92 108.71 69.92 102.20
C 69.93 97.25 73.63 84.76 77.32 77.25
C 86.28 59.03 101.96 45.21 129.01 31.68
C 135.66 28.35 140.87 25.25 141.13 24.49
C 141.37 23.75 142.60 20.96 143.87 18.29
C 149.42 6.59 164.71 -1.07 179.83 0.25
C 187.37 0.91 191.95 2.78 196.74 7.15
C 201.43 11.43 203.67 15.54 205.10 22.42
C 205.91 26.37 205.85 27.93 204.70 32.94
C 203.97 36.17 202.45 41.11 201.33 43.92
C 199.44 48.69 188.14 70.13 180.04 84.31
C 174.13 94.66 169.69 103.58 169.69 105.11
C 169.69 110.15 171.93 110.95 180.85 109.08
C 204.99 104.05 216.63 105.02 241.18 114.13
C 254.10 118.93 277.18 130.16 291.43 138.60
C 297.71 142.31 316.81 154.53 333.88 165.74
C 371.05 190.17 383.22 197.56 398.30 204.82
C 420.55 215.52 421.40 216.13 418.06 218.86
C 415.83 220.68 412.29 221.64 404.98 222.38
L 399.48 222.94
L 405.06 225.49
C 412.97 229.11 415.06 232.75 411.69 237.04
C 409.64 239.64 404.67 241.68 392.80 244.82
C 384.24 247.07 381.72 247.41 373.16 247.43
C 363.79 247.45 362.74 247.28 349.98 243.69
C 332.40 238.75 329.80 238.55 316.36 241.07
C 302.83 243.62 294.44 244.31 289.91 243.25
C 287.98 242.81 286.30 242.53 286.19 242.64
C 286.09 242.75 286.56 247.05 287.25 252.20
C 288.68 263.00 288.40 273.38 285.96 299.22
C 283.78 322.22 283.21 336.16 284.28 340.00
C 284.76 341.73 287.10 345.55 289.46 348.51
C 291.91 351.57 293.99 355.04 294.27 356.55
L 294.77 359.22
L 389.35 359.22
C 499.79 359.22 487.07 357.84 487.07 369.80
C 487.07 381.76 499.52 380.39 391.18 380.39
L 298.44 380.39
L 300.52 383.73
C 304.33 389.86 310.23 402.69 311.60 407.84
C 315.65 423.07 311.14 435.07 299.42 440.27
C 293.89 442.71 283.91 444.24 277.71 443.61
C 273.33 443.15 261.13 440.75 257.09 439.55
L 255.32 439.04
L 255.32 467.36
L 255.32 495.69
L 371.59 495.69
C 486.81 495.69 487.87 495.70 489.43 497.25
C 490.97 498.79 491.00 499.87 491.00 547.84
C 491.00 595.82 490.97 596.89 489.43 598.43
C 487.87 599.99 486.81 600.00 245.50 600.00
C 4.19 600.00 3.13 599.99 1.57 598.43
M 486.29 595.29
C 487.82 593.76 487.86 592.68 487.86 547.84
C 487.86 503.00 487.82 501.92 486.29 500.39
C 484.72 498.83 483.67 498.82 245.50 498.82
C 7.33 498.82 6.28 498.83 4.71 500.39
C 3.18 501.92 3.14 503.00 3.14 547.84
C 3.14 592.68 3.18 593.76 4.71 595.29
C 6.28 596.85 7.33 596.86 245.50 596.86
C 483.67 596.86 484.72 596.85 486.29 595.29
M 249.82 466.82
L 249.82 437.96
L 246.29 436.24
L 242.75 434.53
L 242.75 465.11
L 242.75 495.69
L 246.29 495.69
L 249.82 495.69
L 249.82 466.82
M 287.73 437.63
C 290.64 437.22 294.18 436.39 295.58 435.81
C 297.90 434.85 297.40 434.79 290.22 435.12
C 261.68 436.45 219.68 414.25 199.94 387.40
L 194.79 380.39
L 190.04 380.39
L 185.30 380.39
L 188.67 385.29
C 190.52 387.99 196.47 394.61 201.88 400.02
C 215.62 413.73 229.32 422.84 247.11 430.06
C 255.96 433.66 265.56 436.36 273.80 437.56
C 280.29 438.50 281.67 438.51 287.73 437.63
M 298.27 428.28
C 300.07 427.47 301.92 426.09 302.39 425.22
C 305.98 418.54 298.64 404.93 282.55 388.43
L 274.72 380.39
L 265.02 380.39
L 255.32 380.39
L 255.32 401.21
L 255.32 422.02
L 258.88 423.54
C 262.28 425.00 274.77 428.56 278.89 429.26
C 279.97 429.44 284.03 429.63 287.92 429.68
C 293.33 429.75 295.76 429.42 298.27 428.28
M 249.82 400.39
L 249.82 380.39
L 246.29 380.39
L 242.75 380.39
L 242.75 398.35
L 242.75 416.31
L 246.09 418.32
C 247.93 419.43 249.51 420.35 249.62 420.36
C 249.73 420.38 249.82 411.39 249.82 400.39
M 236.99 380.65
C 236.83 380.49 228.84 380.45 219.24 380.57
L 201.78 380.78
L 205.65 385.88
C 210.97 392.88 220.56 401.83 229.43 408.09
L 236.86 413.34
L 237.07 397.15
C 237.19 388.24 237.15 380.82 236.99 380.65
M 305.21 405.70
C 303.20 400.31 296.48 387.33 293.77 383.59
C 291.53 380.51 291.29 380.39 287.05 380.39
L 282.65 380.39
L 288.54 386.64
C 295.23 393.73 300.92 401.04 303.93 406.41
C 306.49 410.96 307.06 410.64 305.21 405.70
M 57.97 401.11
C 61.30 400.43 66.68 398.73 69.92 397.33
C 76.88 394.32 88.66 387.15 93.09 383.24
L 96.24 380.45
L 88.50 380.42
L 80.77 380.39
L 77.30 383.44
C 70.07 389.80 56.91 395.06 50.28 394.24
C 42.26 393.25 32.50 388.45 25.84 382.23
C 24.04 380.54 23.19 380.34 18.82 380.55
L 13.83 380.78
L 16.54 383.87
C 20.57 388.45 29.93 395.63 35.01 398.03
C 39.08 399.95 47.02 402.13 50.51 402.29
C 51.28 402.32 54.64 401.80 57.97 401.11
M 64.01 386.72
C 67.48 384.98 71.19 382.85 72.28 381.99
L 74.24 380.42
L 52.78 380.41
C 40.24 380.40 31.51 380.68 31.77 381.10
C 32.01 381.49 34.24 383.16 36.73 384.81
C 46.88 391.56 53.45 392.02 64.01 386.72
M 479.84 373.96
C 481.06 372.75 481.06 366.86 479.84 365.65
C 479.11 364.92 426.21 364.71 246.52 364.71
C 15.19 364.71 14.13 364.71 12.57 366.27
C 11.71 367.14 11.00 368.72 11.00 369.80
C 11.00 370.89 11.71 372.47 12.57 373.33
C 14.13 374.89 15.19 374.90 246.52 374.90
C 426.21 374.90 479.11 374.69 479.84 373.96
M 191.69 358.04
C 195.48 354.88 197.85 354.61 201.61 356.93
C 205.36 359.24 205.65 357.66 202.72 350.78
C 201.40 347.70 200.33 344.27 200.33 343.15
C 200.33 339.21 206.07 325.67 217.13 303.53
C 228.25 281.29 231.32 273.87 230.83 270.45
C 230.61 268.89 229.87 268.53 225.07 267.71
C 216.50 266.24 217.08 265.91 216.63 272.35
C 216.31 276.89 214.92 281.62 209.80 295.69
C 206.26 305.40 201.78 317.89 199.83 323.46
C 195.21 336.67 192.49 341.94 188.47 345.37
C 183.70 349.45 179.39 350.55 163.55 351.73
C 149.19 352.81 146.78 353.38 145.34 356.06
C 143.59 359.33 147.97 359.86 163.96 358.28
C 172.85 357.41 174.07 357.46 180.46 358.96
C 184.25 359.86 187.59 360.63 187.88 360.68
C 188.17 360.74 189.88 359.55 191.69 358.04
M 244.82 359.17
C 250.46 358.26 252.53 358.31 262.44 359.62
L 273.66 361.09
L 277.45 358.98
C 281.51 356.71 284.30 356.35 286.88 357.72
C 287.99 358.31 288.73 358.33 289.31 357.76
C 289.88 357.18 288.89 355.44 286.05 352.00
C 280.12 344.79 279.32 341.43 279.96 326.27
C 280.24 319.59 281.17 306.71 282.03 297.65
C 282.89 288.59 283.59 279.68 283.59 277.84
C 283.60 274.86 283.41 274.51 281.76 274.51
C 280.73 274.51 277.68 274.27 274.95 273.99
L 270.00 273.47
L 270.57 275.36
C 270.88 276.41 271.46 286.26 271.86 297.25
C 272.27 308.25 272.82 321.15 273.08 325.90
C 273.92 340.57 271.64 346.64 263.99 350.07
C 261.09 351.36 258.00 351.77 247.46 352.21
C 240.34 352.52 233.94 353.00 233.24 353.28
C 232.55 353.57 231.23 354.83 230.30 356.09
L 228.60 358.38
L 230.77 359.58
C 233.06 360.86 234.53 360.82 244.82 359.17
M 16.87 351.96
C 19.90 335.82 22.29 331.06 28.84 328.05
L 33.17 326.08
L 37.93 327.52
C 46.03 329.97 51.24 333.79 70.31 351.29
L 78.95 359.21
L 84.84 359.19
L 90.74 359.17
L 85.24 353.88
C 65.28 334.73 41.46 319.29 31.82 319.26
C 21.74 319.23 13.58 329.65 9.03 348.38
C 6.32 359.59 6.24 359.22 11.30 359.22
L 15.52 359.22
L 16.87 351.96
M 65.20 352.77
C 45.71 334.12 36.51 328.71 30.01 332.08
C 25.92 334.19 22.16 342.09 20.84 351.37
C 20.57 353.32 20.16 355.87 19.93 357.06
L 19.51 359.22
L 45.70 359.18
L 71.88 359.15
L 65.20 352.77
M 219.26 356.66
C 220.38 355.25 223.20 353.07 225.51 351.82
C 229.47 349.66 230.54 349.48 244.42 348.60
C 257.95 347.74 259.41 347.51 262.62 345.62
C 267.86 342.56 269.07 339.49 268.99 329.41
C 268.83 308.24 267.25 279.51 266.04 275.69
C 263.70 268.29 258.07 260.98 249.40 254.10
C 246.70 251.95 244.34 250.20 244.15 250.20
C 242.92 250.20 236.21 266.57 234.97 272.60
C 233.11 281.64 232.42 283.28 219.43 309.41
C 213.43 321.49 207.66 333.94 206.60 337.07
L 204.68 342.76
L 206.83 348.83
C 208.02 352.17 208.99 355.87 208.98 357.06
C 208.97 359.14 209.12 359.22 213.09 359.22
C 216.81 359.22 217.42 358.96 219.26 356.66
M 284.36 266.86
C 284.32 258.16 281.66 239.91 280.05 237.19
C 277.34 232.62 280.54 230.21 283.61 234.53
C 287.69 240.24 295.35 240.93 314.24 237.30
C 327.74 234.71 334.15 234.85 345.66 237.98
C 368.47 244.17 368.39 244.16 375.47 243.68
C 381.82 243.25 400.00 238.85 404.02 236.78
C 407.29 235.09 408.57 233.57 407.67 232.48
C 407.21 231.93 402.88 229.54 398.05 227.16
C 389.33 222.88 389.16 222.83 374.34 220.78
C 310.09 211.90 259.39 198.53 211.87 177.96
C 196.97 171.51 185.71 165.74 177.70 160.45
C 166.20 152.86 156.36 141.16 156.34 135.07
C 156.33 130.12 161.29 123.62 169.95 117.23
L 172.96 115.01
L 170.25 113.93
C 166.83 112.57 164.54 108.05 165.28 104.10
C 165.82 101.23 171.19 89.69 173.54 86.36
C 175.09 84.16 189.33 57.67 189.33 56.99
C 189.33 56.76 188.18 56.91 186.78 57.31
C 183.12 58.36 174.51 58.15 171.06 56.92
C 168.97 56.17 168.12 56.13 168.12 56.76
C 168.11 58.37 156.33 79.43 150.51 88.24
C 147.37 92.98 141.48 101.02 137.41 106.10
C 124.00 122.86 121.45 128.75 123.19 138.89
C 126.58 158.67 142.60 177.91 171.21 196.59
C 176.64 200.13 185.23 205.73 190.30 209.04
C 195.37 212.35 204.21 217.52 209.94 220.53
C 222.12 226.94 233.84 234.53 239.74 239.85
C 242.04 241.93 246.50 245.65 249.65 248.13
C 257.81 254.58 264.27 261.47 267.08 266.74
L 269.52 271.29
L 274.00 271.58
C 276.48 271.73 279.82 271.93 281.44 272.01
L 284.39 272.16
L 284.36 266.86
M 233.84 260.78
C 234.94 258.20 236.73 253.98 237.82 251.41
C 239.22 248.12 239.58 246.39 239.04 245.53
C 236.89 242.07 205.05 221.69 203.78 222.96
C 203.12 223.62 205.69 232.52 209.43 242.53
C 211.37 247.74 213.64 254.46 214.48 257.48
C 215.32 260.50 216.19 263.15 216.41 263.38
C 217.07 264.04 227.22 265.76 229.64 265.62
C 231.55 265.51 232.11 264.86 233.84 260.78
M 404.25 218.40
C 413.04 217.62 413.04 217.01 404.18 212.95
C 384.99 204.14 369.66 195.10 337.25 173.49
C 290.73 142.46 265.38 128.12 240.13 118.56
C 219.65 110.81 208.99 108.82 197.13 110.55
C 184.62 112.38 167.93 122.29 162.88 130.89
C 161.07 133.96 160.95 134.64 161.75 137.27
C 162.93 141.20 171.07 149.87 178.82 155.43
C 193.96 166.30 230.93 182.42 264.97 192.99
C 289.05 200.47 319.92 207.76 348.02 212.57
C 368.20 216.04 393.29 219.51 395.94 219.20
C 397.46 219.03 401.19 218.67 404.25 218.40
M 78.18 94.90
C 82.58 81.22 87.74 73.28 99.97 61.43
C 111.17 50.56 122.55 43.12 135.76 38.02
C 141.17 35.92 141.48 35.68 141.00 33.78
C 140.72 32.67 140.37 31.64 140.21 31.48
C 139.67 30.95 118.32 42.42 112.01 46.63
C 93.45 59.04 82.26 73.04 76.67 90.82
C 75.55 94.41 74.66 99.00 74.69 101.02
C 74.75 105.28 74.95 104.91 78.18 94.90
M 86.86 89.22
C 97.41 72.46 121.19 53.98 138.49 49.07
C 140.99 48.36 143.92 47.44 145.01 47.04
L 146.99 46.28
L 144.90 43.53
C 143.74 42.02 142.34 40.78 141.79 40.78
C 141.24 40.78 138.27 41.86 135.18 43.17
C 119.72 49.73 99.86 64.91 91.44 76.60
C 87.33 82.29 80.56 96.47 81.94 96.47
C 82.13 96.47 84.34 93.21 86.86 89.22
M 188.95 53.05
C 192.61 51.36 193.12 50.76 195.81 45.02
C 199.75 36.64 201.45 29.49 200.78 24.14
C 199.80 16.31 194.31 9.36 186.19 5.69
C 184.34 4.85 181.12 4.43 176.37 4.42
C 166.93 4.40 160.57 6.93 153.58 13.46
C 145.42 21.07 142.98 29.90 146.88 37.65
C 149.82 43.51 152.05 45.29 159.19 47.47
C 162.78 48.55 165.98 49.95 166.33 50.56
C 166.67 51.17 168.53 52.39 170.48 53.27
C 175.57 55.58 183.74 55.48 188.95 53.05"/>
<path fill="#000000" stroke="none" d="
M 5.50 570.59
L 5.50 551.37
L 24.75 551.37
L 43.99 551.37
L 43.99 570.59
L 43.99 589.80
L 24.75 589.80
L 5.50 589.80
L 5.50 570.59
M 40.85 570.59
L 40.85 554.51
L 24.75 554.51
L 8.64 554.51
L 8.64 570.59
L 8.64 586.67
L 24.75 586.67
L 40.85 586.67
L 40.85 570.59"/>
<path fill="#000000" stroke="none" d="
M 51.06 570.59
L 51.06 551.37
L 71.88 551.37
L 92.70 551.37
L 92.70 570.59
L 92.70 589.80
L 71.88 589.80
L 51.06 589.80
L 51.06 570.59
M 89.56 570.59
L 89.56 554.51
L 71.88 554.51
L 54.21 554.51
L 54.21 570.59
L 54.21 586.67
L 71.88 586.67
L 89.56 586.67
L 89.56 570.59"/>
<path fill="#000000" stroke="none" d="
M 99.77 570.59
L 99.77 551.37
L 121.38 551.37
L 142.98 551.37
L 142.98 570.59
L 142.98 589.80
L 121.38 589.80
L 99.77 589.80
L 99.77 570.59
M 139.84 570.59
L 139.84 554.51
L 121.38 554.51
L 102.91 554.51
L 102.91 570.59
L 102.91 586.67
L 121.38 586.67
L 139.84 586.67
L 139.84 570.59"/>
<path fill="#000000" stroke="none" d="
M 150.05 570.59
L 150.05 551.37
L 171.26 551.37
L 192.47 551.37
L 192.47 570.59
L 192.47 589.80
L 171.26 589.80
L 150.05 589.80
L 150.05 570.59
M 189.33 570.59
L 189.33 554.51
L 171.26 554.51
L 153.19 554.51
L 153.19 570.59
L 153.19 586.67
L 171.26 586.67
L 189.33 586.67
L 189.33 570.59"/>
<path fill="#000000" stroke="none" d="
M 199.54 570.59
L 199.54 551.37
L 221.15 551.37
L 242.75 551.37
L 242.75 570.59
L 242.75 589.80
L 221.15 589.80
L 199.54 589.80
L 199.54 570.59
M 239.61 570.59
L 239.61 554.51
L 221.15 554.51
L 202.68 554.51
L 202.68 570.59
L 202.68 586.67
L 221.15 586.67
L 239.61 586.67
L 239.61 570.59"/>
<path fill="#000000" stroke="none" d="
M 249.82 570.59
L 249.82 551.37
L 270.64 551.37
L 291.46 551.37
L 291.46 570.59
L 291.46 589.80
L 270.64 589.80
L 249.82 589.80
L 249.82 570.59
M 288.32 570.59
L 288.32 554.51
L 270.64 554.51
L 252.96 554.51
L 252.96 570.59
L 252.96 586.67
L 270.64 586.67
L 288.32 586.67
L 288.32 570.59"/>
<path fill="#000000" stroke="none" d="
M 298.53 570.59
L 298.53 551.37
L 319.74 551.37
L 340.95 551.37
L 340.95 570.59
L 340.95 589.80
L 319.74 589.80
L 298.53 589.80
L 298.53 570.59
M 337.81 570.59
L 337.81 554.51
L 319.74 554.51
L 301.67 554.51
L 301.67 570.59
L 301.67 586.67
L 319.74 586.67
L 337.81 586.67
L 337.81 570.59"/>
<path fill="#000000" stroke="none" d="
M 348.02 570.59
L 348.02 551.37
L 369.62 551.37
L 391.23 551.37
L 391.23 570.59
L 391.23 589.80
L 369.62 589.80
L 348.02 589.80
L 348.02 570.59
M 388.09 570.59
L 388.09 554.51
L 369.62 554.51
L 351.16 554.51
L 351.16 570.59
L 351.16 586.67
L 369.62 586.67
L 388.09 586.67
L 388.09 570.59"/>
<path fill="#000000" stroke="none" d="
M 398.30 570.59
L 398.30 551.37
L 419.12 551.37
L 439.94 551.37
L 439.94 570.59
L 439.94 589.80
L 419.12 589.80
L 398.30 589.80
L 398.30 570.59
M 436.79 570.59
L 436.79 554.51
L 419.12 554.51
L 401.44 554.51
L 401.44 570.59
L 401.44 586.67
L 419.12 586.67
L 436.79 586.67
L 436.79 570.59"/>
<path fill="#000000" stroke="none" d="
M 447.01 570.59
L 447.01 551.37
L 466.25 551.37
L 485.50 551.37
L 485.50 570.59
L 485.50 589.80
L 466.25 589.80
L 447.01 589.80
L 447.01 570.59
M 482.36 570.59
L 482.36 554.51
L 466.25 554.51
L 450.15 554.51
L 450.15 570.59
L 450.15 586.67
L 466.25 586.67
L 482.36 586.67
L 482.36 570.59"/>
<path fill="#000000" stroke="none" d="
M 5.50 525.10
L 5.50 505.88
L 24.75 505.88
L 43.99 505.88
L 43.99 525.10
L 43.99 544.31
L 24.75 544.31
L 5.50 544.31
L 5.50 525.10
M 40.85 525.10
L 40.85 509.02
L 24.75 509.02
L 8.64 509.02
L 8.64 525.10
L 8.64 541.18
L 24.75 541.18
L 40.85 541.18
L 40.85 525.10"/>
<path fill="#000000" stroke="none" d="
M 51.06 525.10
L 51.06 505.88
L 71.88 505.88
L 92.70 505.88
L 92.70 525.10
L 92.70 544.31
L 71.88 544.31
L 51.06 544.31
L 51.06 525.10
M 89.56 525.10
L 89.56 509.02
L 71.88 509.02
L 54.21 509.02
L 54.21 525.10
L 54.21 541.18
L 71.88 541.18
L 89.56 541.18
L 89.56 525.10"/>
<path fill="#000000" stroke="none" d="
M 99.77 525.10
L 99.77 505.88
L 121.38 505.88
L 142.98 505.88
L 142.98 525.10
L 142.98 544.31
L 121.38 544.31
L 99.77 544.31
L 99.77 525.10
M 139.84 525.10
L 139.84 509.02
L 121.38 509.02
L 102.91 509.02
L 102.91 525.10
L 102.91 541.18
L 121.38 541.18
L 139.84 541.18
L 139.84 525.10"/>
<path fill="#000000" stroke="none" d="
M 150.05 525.10
L 150.05 505.88
L 171.26 505.88
L 192.47 505.88
L 192.47 525.10
L 192.47 544.31
L 171.26 544.31
L 150.05 544.31
L 150.05 525.10
M 189.33 525.10
L 189.33 509.02
L 171.26 509.02
L 153.19 509.02
L 153.19 525.10
L 153.19 541.18
L 171.26 541.18
L 189.33 541.18
L 189.33 525.10"/>
<path fill="#000000" stroke="none" d="
M 199.54 525.10
L 199.54 505.88
L 221.15 505.88
L 242.75 505.88
L 242.75 525.10
L 242.75 544.31
L 221.15 544.31
L 199.54 544.31
L 199.54 525.10
M 239.61 525.10
L 239.61 509.02
L 221.15 509.02
L 202.68 509.02
L 202.68 525.10
L 202.68 541.18
L 221.15 541.18
L 239.61 541.18
L 239.61 525.10"/>
<path fill="#000000" stroke="none" d="
M 249.82 525.10
L 249.82 505.88
L 270.64 505.88
L 291.46 505.88
L 291.46 525.10
L 291.46 544.31
L 270.64 544.31
L 249.82 544.31
L 249.82 525.10
M 288.32 525.10
L 288.32 509.02
L 270.64 509.02
L 252.96 509.02
L 252.96 525.10
L 252.96 541.18
L 270.64 541.18
L 288.32 541.18
L 288.32 525.10"/>
<path fill="#000000" stroke="none" d="
M 298.53 525.10
L 298.53 505.88
L 319.74 505.88
L 340.95 505.88
L 340.95 525.10
L 340.95 544.31
L 319.74 544.31
L 298.53 544.31
L 298.53 525.10
M 337.81 525.10
L 337.81 509.02
L 319.74 509.02
L 301.67 509.02
L 301.67 525.10
L 301.67 541.18
L 319.74 541.18
L 337.81 541.18
L 337.81 525.10"/>
<path fill="#000000" stroke="none" d="
M 348.02 525.10
L 348.02 505.88
L 369.62 505.88
L 391.23 505.88
L 391.23 525.10
L 391.23 544.31
L 369.62 544.31
L 348.02 544.31
L 348.02 525.10
M 388.09 525.10
L 388.09 509.02
L 369.62 509.02
L 351.16 509.02
L 351.16 525.10
L 351.16 541.18
L 369.62 541.18
L 388.09 541.18
L 388.09 525.10"/>
<path fill="#000000" stroke="none" d="
M 398.30 525.10
L 398.30 505.88
L 419.12 505.88
L 439.94 505.88
L 439.94 525.10
L 439.94 544.31
L 419.12 544.31
L 398.30 544.31
L 398.30 525.10
M 436.79 525.10
L 436.79 509.02
L 419.12 509.02
L 401.44 509.02
L 401.44 525.10
L 401.44 541.18
L 419.12 541.18
L 436.79 541.18
L 436.79 525.10"/>
<path fill="#000000" stroke="none" d="
M 447.01 525.10
L 447.01 505.88
L 466.25 505.88
L 485.50 505.88
L 485.50 525.10
L 485.50 544.31
L 466.25 544.31
L 447.01 544.31
L 447.01 525.10
M 482.36 525.10
L 482.36 509.02
L 466.25 509.02
L 450.15 509.02
L 450.15 525.10
L 450.15 541.18
L 466.25 541.18
L 482.36 541.18
L 482.36 525.10"/>
<path fill="#000000" stroke="none" d="
M 160.99 27.51
C 159.29 25.81 158.69 24.48 158.69 22.35
C 158.69 18.37 162.16 14.90 166.15 14.90
C 170.15 14.90 173.62 18.37 173.62 22.35
C 173.62 26.34 170.15 29.80 166.15 29.80
C 164.03 29.80 162.69 29.21 160.99 27.51
M 169.69 25.88
C 170.55 25.02 171.26 23.44 171.26 22.35
C 171.26 20.37 168.83 17.25 167.27 17.25
C 166.80 17.25 166.55 17.52 166.70 17.84
C 166.86 18.16 167.47 19.39 168.06 20.56
C 168.98 22.40 168.96 22.94 167.84 24.64
C 167.13 25.73 166.55 26.80 166.55 27.03
C 166.55 27.97 168.21 27.36 169.69 25.88"/>
<path fill="#466674" stroke="none" d="
M 170.48 53.27
C 168.53 52.39 166.67 51.17 166.33 50.56
C 165.98 49.95 162.78 48.55 159.19 47.47
C 152.05 45.29 149.82 43.51 146.88 37.65
C 142.98 29.90 145.42 21.07 153.58 13.46
C 160.51 6.97 166.89 4.45 176.37 4.44
C 181.18 4.43 184.32 4.82 186.19 5.68
C 194.33 9.38 199.80 16.31 200.78 24.14
C 201.45 29.49 199.75 36.64 195.81 45.02
C 193.12 50.76 192.61 51.36 188.95 53.05
C 183.74 55.48 175.57 55.58 170.48 53.27
M 171.32 27.51
C 173.02 25.81 173.62 24.48 173.62 22.35
C 173.62 18.37 170.15 14.90 166.15 14.90
C 162.16 14.90 158.69 18.37 158.69 22.35
C 158.69 26.34 162.16 29.80 166.15 29.80
C 168.28 29.80 169.62 29.21 171.32 27.51"/>
<path fill="#eb2e00" stroke="none" d="
M 166.70 26.86
C 166.86 26.54 167.47 25.32 168.06 24.15
C 168.98 22.31 168.96 21.76 167.84 20.07
C 166.21 17.58 167.52 16.66 169.66 18.79
C 171.69 20.82 171.71 23.87 169.69 25.88
C 168.17 27.40 166.12 28.07 166.70 26.86"/>
<path fill="#464658" stroke="none" d="
M 74.69 101.02
C 74.66 99.00 75.55 94.41 76.67 90.82
C 83.82 68.09 99.53 51.96 129.42 36.68
C 139.15 31.71 140.20 31.33 140.72 32.66
C 141.80 35.40 141.40 35.84 135.71 38.03
C 122.55 43.12 111.15 50.58 99.97 61.43
C 87.74 73.28 82.58 81.22 78.18 94.90
C 74.95 104.91 74.75 105.28 74.69 101.02"/>
<path fill="#464658" stroke="none" d="
M 82.13 94.71
C 83.47 90.32 88.25 81.00 91.44 76.60
C 99.86 64.91 119.72 49.73 135.18 43.17
C 138.27 41.86 141.24 40.78 141.79 40.78
C 142.34 40.78 143.74 42.02 144.90 43.53
L 146.99 46.28
L 145.01 47.04
C 143.92 47.44 140.99 48.36 138.49 49.07
C 121.19 53.98 97.41 72.46 86.86 89.22
C 84.34 93.21 82.13 96.47 81.94 96.47
C 81.75 96.47 81.84 95.68 82.13 94.71"/>
<path fill="#d4b7d1" stroke="none" d="
M 274.00 271.58
L 269.52 271.29
L 267.08 266.74
C 264.27 261.47 257.81 254.58 249.65 248.13
C 246.50 245.65 242.04 241.93 239.74 239.85
C 233.84 234.53 222.12 226.94 209.94 220.53
C 204.21 217.52 195.37 212.35 190.30 209.04
C 185.23 205.73 176.64 200.13 171.21 196.59
C 142.60 177.91 126.58 158.67 123.19 138.89
C 121.45 128.81 124.07 122.71 137.09 106.53
C 146.61 94.70 155.53 81.10 162.63 67.62
C 167.72 57.96 168.72 56.51 170.08 56.92
C 173.34 57.87 183.56 58.19 186.39 57.40
C 188.01 56.96 189.33 56.78 189.33 57.00
C 189.33 57.67 175.08 84.18 173.54 86.36
C 171.19 89.69 165.82 101.23 165.28 104.10
C 164.54 108.05 166.83 112.57 170.25 113.93
L 172.96 115.01
L 169.95 117.23
C 161.29 123.62 156.33 130.12 156.34 135.07
C 156.36 141.16 166.20 152.86 177.70 160.45
C 185.71 165.74 196.97 171.51 211.87 177.96
C 259.39 198.53 310.09 211.90 374.34 220.78
C 389.16 222.83 389.33 222.88 398.05 227.16
C 402.88 229.54 407.21 231.93 407.67 232.48
C 408.57 233.57 407.29 235.09 404.02 236.78
C 400.00 238.85 381.82 243.25 375.47 243.68
C 368.39 244.16 368.47 244.17 345.66 237.98
C 334.15 234.85 327.74 234.71 314.24 237.30
C 295.35 240.93 287.69 240.24 283.61 234.53
C 280.54 230.21 277.34 232.62 280.05 237.19
C 281.66 239.91 284.32 258.16 284.36 266.86
L 284.39 272.16
L 281.44 272.01
C 279.82 271.93 276.48 271.73 274.00 271.58"/>
<path fill="#d4b7d1" stroke="none" d="
M 222.13 264.77
C 219.21 264.23 216.64 263.61 216.41 263.38
C 216.19 263.15 215.32 260.50 214.48 257.48
C 213.64 254.46 211.37 247.74 209.43 242.53
C 205.69 232.52 203.12 223.62 203.78 222.96
C 205.05 221.69 236.89 242.07 239.04 245.53
C 239.58 246.39 239.22 248.12 237.82 251.41
C 231.50 266.33 231.99 265.48 229.64 265.62
C 228.42 265.69 225.04 265.30 222.13 264.77"/>
<path fill="#668e91" stroke="none" d="
M 375.52 216.89
C 330.23 210.16 297.26 203.03 264.97 192.99
C 230.93 182.42 193.96 166.30 178.82 155.43
C 171.07 149.87 162.93 141.20 161.75 137.27
C 160.95 134.64 161.07 133.96 162.88 130.89
C 168.07 122.05 184.84 112.24 197.63 110.53
C 209.68 108.93 219.72 110.83 240.13 118.56
C 265.38 128.12 290.73 142.46 337.25 173.49
C 369.66 195.10 384.99 204.14 404.18 212.95
C 413.04 217.01 413.04 217.62 404.25 218.40
C 401.19 218.67 397.46 219.03 395.94 219.20
C 394.43 219.37 385.24 218.34 375.52 216.89"/>
<path fill="#3a4839" stroke="none" d="
M 180.46 358.96
C 174.07 357.46 172.85 357.41 163.96 358.28
C 147.97 359.86 143.59 359.33 145.34 356.06
C 146.78 353.38 149.19 352.81 163.55 351.73
C 179.39 350.55 183.70 349.45 188.47 345.37
C 192.49 341.94 195.21 336.67 199.83 323.46
C 201.78 317.89 206.26 305.40 209.79 295.69
C 214.66 282.33 216.31 276.74 216.63 272.67
C 216.86 269.73 217.44 267.18 217.92 267.00
C 218.40 266.82 221.44 267.13 224.68 267.67
C 229.86 268.55 230.61 268.89 230.83 270.45
C 231.32 273.87 228.24 281.30 217.13 303.53
C 206.07 325.67 200.33 339.21 200.33 343.15
C 200.33 344.27 201.40 347.70 202.72 350.78
C 205.65 357.66 205.36 359.24 201.61 356.93
C 197.85 354.61 195.48 354.88 191.69 358.04
C 189.88 359.55 188.17 360.74 187.88 360.68
C 187.59 360.63 184.25 359.86 180.46 358.96"/>
<path fill="#3a4839" stroke="none" d="
M 230.77 359.58
L 228.60 358.38
L 230.30 356.09
C 231.23 354.83 232.55 353.57 233.24 353.28
C 233.94 353.00 240.34 352.52 247.46 352.21
C 258.00 351.77 261.09 351.36 263.99 350.07
C 271.64 346.64 273.92 340.57 273.08 325.90
C 272.82 321.15 272.27 308.25 271.86 297.25
C 271.46 286.26 270.88 276.41 270.57 275.36
L 270.00 273.47
L 274.95 273.99
C 277.68 274.27 280.73 274.51 281.76 274.51
C 283.41 274.51 283.60 274.86 283.59 277.84
C 283.59 279.68 282.89 288.59 282.03 297.65
C 281.17 306.71 280.24 319.59 279.96 326.27
C 279.32 341.43 280.12 344.79 286.05 352.00
C 288.89 355.44 289.88 357.18 289.31 357.76
C 288.73 358.33 287.99 358.31 286.88 357.72
C 284.30 356.35 281.51 356.71 277.45 358.98
L 273.66 361.09
L 262.44 359.62
C 252.53 358.31 250.46 358.26 244.82 359.17
C 234.53 360.82 233.06 360.86 230.77 359.58"/>
<path fill="#ffa153" stroke="none" d="
M 44.28 401.18
C 41.64 400.61 37.47 399.19 35.01 398.03
C 29.93 395.63 20.57 388.45 16.54 383.87
L 13.83 380.78
L 18.82 380.55
C 23.19 380.34 24.04 380.54 25.84 382.23
C 32.50 388.45 42.26 393.25 50.28 394.24
C 56.91 395.06 70.07 389.80 77.30 383.44
L 80.77 380.39
L 88.50 380.42
L 96.24 380.45
L 93.09 383.24
C 88.66 387.15 76.88 394.32 69.92 397.33
C 64.43 399.70 53.74 402.43 50.51 402.29
C 49.74 402.26 46.93 401.76 44.28 401.18"/>
<path fill="#ffa153" stroke="none" d="
M 7.07 357.84
C 7.07 354.14 11.41 339.28 14.13 333.67
C 18.82 323.99 24.98 319.18 32.60 319.25
C 41.53 319.33 66.08 335.49 85.24 353.88
L 90.74 359.17
L 84.84 359.19
L 78.95 359.21
L 70.31 351.29
C 51.24 333.79 46.03 329.97 37.93 327.52
L 33.17 326.08
L 28.84 328.05
C 22.29 331.06 19.90 335.82 16.87 351.96
L 15.52 359.22
L 11.30 359.22
C 7.79 359.22 7.07 358.98 7.07 357.84"/>
<path fill="#c55436" stroke="none" d="
M 242.75 465.11
L 242.75 434.53
L 246.29 436.24
L 249.82 437.96
L 249.82 466.82
L 249.82 495.69
L 246.29 495.69
L 242.75 495.69
L 242.75 465.11"/>
<path fill="#c55436" stroke="none" d="
M 246.09 418.32
L 242.75 416.31
L 242.75 398.35
L 242.75 380.39
L 246.29 380.39
L 249.82 380.39
L 249.82 400.39
C 249.82 411.39 249.73 420.38 249.62 420.36
C 249.51 420.35 247.93 419.43 246.09 418.32"/>
<path fill="#c55436" stroke="none" d="
M 12.57 373.33
C 10.73 371.50 10.54 368.77 12.11 366.62
C 13.21 365.12 16.61 365.10 245.94 364.90
C 417.73 364.75 478.93 364.93 479.72 365.58
C 481.04 366.67 481.13 372.68 479.84 373.96
C 479.11 374.69 426.21 374.90 246.52 374.90
C 15.19 374.90 14.13 374.89 12.57 373.33"/>
<path fill="#ef907a" stroke="none" d="
M 273.80 437.56
C 249.62 434.04 223.29 420.72 203.80 402.15
C 196.31 395.00 186.19 382.93 186.19 381.13
C 186.19 380.72 188.12 380.39 190.48 380.39
L 194.79 380.39
L 199.94 387.40
C 216.00 409.24 247.08 428.43 275.68 434.16
C 280.36 435.11 284.62 435.38 290.22 435.12
C 297.40 434.79 297.90 434.85 295.58 435.81
C 292.86 436.94 283.73 438.45 280.46 438.32
C 279.38 438.27 276.38 437.93 273.80 437.56"/>
<path fill="#ef907a" stroke="none" d="
M 303.93 406.41
C 300.92 401.04 295.23 393.73 288.54 386.64
L 282.65 380.39
L 287.05 380.39
C 291.29 380.39 291.53 380.51 293.77 383.59
C 297.95 389.36 307.26 408.80 306.30 409.76
C 306.12 409.93 305.06 408.42 303.93 406.41"/>
<path fill="#0885ff" stroke="none" d="
M 4.71 595.29
C 3.18 593.76 3.14 592.68 3.14 547.99
C 3.14 509.73 3.32 502.02 4.26 500.74
C 5.36 499.24 8.82 499.22 245.04 499.02
C 483.98 498.82 484.72 498.82 486.29 500.39
C 487.83 501.93 487.86 502.97 487.86 547.84
C 487.86 592.68 487.82 593.76 486.29 595.29
C 484.72 596.85 483.67 596.86 245.50 596.86
C 7.33 596.86 6.28 596.85 4.71 595.29
M 43.99 570.59
L 43.99 551.37
L 24.75 551.37
L 5.50 551.37
L 5.50 570.59
L 5.50 589.80
L 24.75 589.80
L 43.99 589.80
L 43.99 570.59
M 92.70 570.59
L 92.70 551.37
L 71.88 551.37
L 51.06 551.37
L 51.06 570.59
L 51.06 589.80
L 71.88 589.80
L 92.70 589.80
L 92.70 570.59
M 142.98 570.59
L 142.98 551.37
L 121.38 551.37
L 99.77 551.37
L 99.77 570.59
L 99.77 589.80
L 121.38 589.80
L 142.98 589.80
L 142.98 570.59
M 192.47 570.59
L 192.47 551.37
L 171.26 551.37
L 150.05 551.37
L 150.05 570.59
L 150.05 589.80
L 171.26 589.80
L 192.47 589.80
L 192.47 570.59
M 242.75 570.59
L 242.75 551.37
L 221.15 551.37
L 199.54 551.37
L 199.54 570.59
L 199.54 589.80
L 221.15 589.80
L 242.75 589.80
L 242.75 570.59
M 291.46 570.59
L 291.46 551.37
L 270.64 551.37
L 249.82 551.37
L 249.82 570.59
L 249.82 589.80
L 270.64 589.80
L 291.46 589.80
L 291.46 570.59
M 340.95 570.59
L 340.95 551.37
L 319.74 551.37
L 298.53 551.37
L 298.53 570.59
L 298.53 589.80
L 319.74 589.80
L 340.95 589.80
L 340.95 570.59
M 391.23 570.59
L 391.23 551.37
L 369.62 551.37
L 348.02 551.37
L 348.02 570.59
L 348.02 589.80
L 369.62 589.80
L 391.23 589.80
L 391.23 570.59
M 439.94 570.59
L 439.94 551.37
L 419.12 551.37
L 398.30 551.37
L 398.30 570.59
L 398.30 589.80
L 419.12 589.80
L 439.94 589.80
L 439.94 570.59
M 485.50 570.59
L 485.50 551.37
L 466.25 551.37
L 447.01 551.37
L 447.01 570.59
L 447.01 589.80
L 466.25 589.80
L 485.50 589.80
L 485.50 570.59
M 43.99 525.10
L 43.99 505.88
L 24.75 505.88
L 5.50 505.88
L 5.50 525.10
L 5.50 544.31
L 24.75 544.31
L 43.99 544.31
L 43.99 525.10
M 92.70 525.10
L 92.70 505.88
L 71.88 505.88
L 51.06 505.88
L 51.06 525.10
L 51.06 544.31
L 71.88 544.31
L 92.70 544.31
L 92.70 525.10
M 142.98 525.10
L 142.98 505.88
L 121.38 505.88
L 99.77 505.88
L 99.77 525.10
L 99.77 544.31
L 121.38 544.31
L 142.98 544.31
L 142.98 525.10
M 192.47 525.10
L 192.47 505.88
L 171.26 505.88
L 150.05 505.88
L 150.05 525.10
L 150.05 544.31
L 171.26 544.31
L 192.47 544.31
L 192.47 525.10
M 242.75 525.10
L 242.75 505.88
L 221.15 505.88
L 199.54 505.88
L 199.54 525.10
L 199.54 544.31
L 221.15 544.31
L 242.75 544.31
L 242.75 525.10
M 291.46 525.10
L 291.46 505.88
L 270.64 505.88
L 249.82 505.88
L 249.82 525.10
L 249.82 544.31
L 270.64 544.31
L 291.46 544.31
L 291.46 525.10
M 340.95 525.10
L 340.95 505.88
L 319.74 505.88
L 298.53 505.88
L 298.53 525.10
L 298.53 544.31
L 319.74 544.31
L 340.95 544.31
L 340.95 525.10
M 391.23 525.10
L 391.23 505.88
L 369.62 505.88
L 348.02 505.88
L 348.02 525.10
L 348.02 544.31
L 369.62 544.31
L 391.23 544.31
L 391.23 525.10
M 439.94 525.10
L 439.94 505.88
L 419.12 505.88
L 398.30 505.88
L 398.30 525.10
L 398.30 544.31
L 419.12 544.31
L 439.94 544.31
L 439.94 525.10
M 485.50 525.10
L 485.50 505.88
L 466.25 505.88
L 447.01 505.88
L 447.01 525.10
L 447.01 544.31
L 466.25 544.31
L 485.50 544.31
L 485.50 525.10"/>
<path fill="#c57a36" stroke="none" d="
M 8.64 570.59
L 8.64 554.51
L 24.75 554.51
L 40.85 554.51
L 40.85 570.59
L 40.85 586.67
L 24.75 586.67
L 8.64 586.67
L 8.64 570.59"/>
<path fill="#c57a36" stroke="none" d="
M 54.21 570.59
L 54.21 554.51
L 71.88 554.51
L 89.56 554.51
L 89.56 570.59
L 89.56 586.67
L 71.88 586.67
L 54.21 586.67
L 54.21 570.59"/>
<path fill="#c57a36" stroke="none" d="
M 102.91 570.59
L 102.91 554.51
L 121.38 554.51
L 139.84 554.51
L 139.84 570.59
L 139.84 586.67
L 121.38 586.67
L 102.91 586.67
L 102.91 570.59"/>
<path fill="#c57a36" stroke="none" d="
M 153.19 570.59
L 153.19 554.51
L 171.26 554.51
L 189.33 554.51
L 189.33 570.59
L 189.33 586.67
L 171.26 586.67
L 153.19 586.67
L 153.19 570.59"/>
<path fill="#c57a36" stroke="none" d="
M 202.68 570.59
L 202.68 554.51
L 221.15 554.51
L 239.61 554.51
L 239.61 570.59
L 239.61 586.67
L 221.15 586.67
L 202.68 586.67
L 202.68 570.59"/>
<path fill="#c57a36" stroke="none" d="
M 252.96 570.59
L 252.96 554.51
L 270.64 554.51
L 288.32 554.51
L 288.32 570.59
L 288.32 586.67
L 270.64 586.67
L 252.96 586.67
L 252.96 570.59"/>
<path fill="#c57a36" stroke="none" d="
M 301.67 570.59
L 301.67 554.51
L 319.74 554.51
L 337.81 554.51
L 337.81 570.59
L 337.81 586.67
L 319.74 586.67
L 301.67 586.67
L 301.67 570.59"/>
<path fill="#c57a36" stroke="none" d="
M 351.16 570.59
L 351.16 554.51
L 369.62 554.51
L 388.09 554.51
L 388.09 570.59
L 388.09 586.67
L 369.62 586.67
L 351.16 586.67
L 351.16 570.59"/>
<path fill="#c57a36" stroke="none" d="
M 401.44 570.59
L 401.44 554.51
L 419.12 554.51
L 436.79 554.51
L 436.79 570.59
L 436.79 586.67
L 419.12 586.67
L 401.44 586.67
L 401.44 570.59"/>
<path fill="#c57a36" stroke="none" d="
M 450.15 570.59
L 450.15 554.51
L 466.25 554.51
L 482.36 554.51
L 482.36 570.59
L 482.36 586.67
L 466.25 586.67
L 450.15 586.67
L 450.15 570.59"/>
<path fill="#c57a36" stroke="none" d="
M 8.82 525.29
L 9.03 509.41
L 24.94 509.20
L 40.85 508.99
L 40.85 525.08
L 40.85 541.18
L 24.73 541.18
L 8.61 541.18
L 8.82 525.29"/>
<path fill="#c57a36" stroke="none" d="
M 54.21 525.10
L 54.21 509.02
L 71.88 509.02
L 89.56 509.02
L 89.56 525.10
L 89.56 541.18
L 71.88 541.18
L 54.21 541.18
L 54.21 525.10"/>
<path fill="#c57a36" stroke="none" d="
M 102.91 525.10
L 102.91 509.02
L 121.38 509.02
L 139.84 509.02
L 139.84 525.10
L 139.84 541.18
L 121.38 541.18
L 102.91 541.18
L 102.91 525.10"/>
<path fill="#c57a36" stroke="none" d="
M 153.19 525.10
L 153.19 509.02
L 171.26 509.02
L 189.33 509.02
L 189.33 525.10
L 189.33 541.18
L 171.26 541.18
L 153.19 541.18
L 153.19 525.10"/>
<path fill="#c57a36" stroke="none" d="
M 202.68 525.10
L 202.68 509.02
L 221.15 509.02
L 239.61 509.02
L 239.61 525.10
L 239.61 541.18
L 221.15 541.18
L 202.68 541.18
L 202.68 525.10"/>
<path fill="#c57a36" stroke="none" d="
M 252.96 525.10
L 252.96 509.02
L 270.64 509.02
L 288.32 509.02
L 288.32 525.10
L 288.32 541.18
L 270.64 541.18
L 252.96 541.18
L 252.96 525.10"/>
<path fill="#c57a36" stroke="none" d="
M 301.67 525.10
L 301.67 509.02
L 319.74 509.02
L 337.81 509.02
L 337.81 525.10
L 337.81 541.18
L 319.74 541.18
L 301.67 541.18
L 301.67 525.10"/>
<path fill="#c57a36" stroke="none" d="
M 351.16 525.10
L 351.16 509.02
L 369.62 509.02
L 388.09 509.02
L 388.09 525.10
L 388.09 541.18
L 369.62 541.18
L 351.16 541.18
L 351.16 525.10"/>
<path fill="#c57a36" stroke="none" d="
M 401.44 525.10
L 401.44 509.02
L 419.12 509.02
L 436.79 509.02
L 436.79 525.10
L 436.79 541.18
L 419.12 541.18
L 401.44 541.18
L 401.44 525.10"/>
<path fill="#c57a36" stroke="none" d="
M 450.15 525.10
L 450.15 509.02
L 466.25 509.02
L 482.36 509.02
L 482.36 525.10
L 482.36 541.18
L 466.25 541.18
L 450.15 541.18
L 450.15 525.10"/>
</g>
</svg>
