<?xml version="1.0" encoding="UTF-8" standalone="no"?>
<!DOCTYPE svg PUBLIC "-//W3C//DTD SVG 1.1//EN"
"http://www.w3.org/Graphics/SVG/1.1/DTD/svg11.dtd">
<svg width="964px" height="600px"
xmlns="http://www.w3.org/2000/svg" version="1.1">
<g transform="translate(0000, 0000) scale(1.0000, 1.0000)">
<path fill="#000000" stroke="none" d="
M 2.64 597.36
C 0.05 594.78 0.00 592.97 0.00 512.31
C 0.00 431.64 0.05 429.84 2.64 427.25
C 5.25 424.64 7.03 424.62 201.78 424.62
L 398.29 424.62
L 397.94 371.09
L 397.60 317.55
L 383.50 309.43
C 375.75 304.97 364.47 297.77 358.45 293.43
C 343.32 282.55 317.49 256.36 307.99 242.31
L 300.20 230.77
L 236.86 230.77
L 173.52 230.77
L 168.85 235.28
C 162.01 241.90 139.43 256.59 126.98 262.55
C 121.02 265.38 109.75 269.27 101.93 271.19
C 88.87 274.35 86.94 274.52 78.56 273.11
C 55.29 269.21 42.78 261.98 21.44 240.12
C 5.09 223.36 1.64 217.07 3.07 206.56
C 8.08 169.57 16.23 145.11 27.67 132.70
C 33.96 125.88 44.20 121.31 53.13 121.33
C 61.44 121.36 79.05 128.04 91.78 136.01
C 105.38 144.50 127.55 162.00 148.97 181.11
L 164.71 195.16
L 488.53 195.16
C 810.59 195.16 812.36 195.18 814.98 197.80
C 817.25 200.07 817.62 202.19 817.62 212.97
C 817.62 233.08 838.51 230.77 656.65 230.77
L 500.98 230.77
L 504.46 236.37
C 510.87 246.69 520.77 268.26 523.07 276.92
C 529.86 302.53 522.29 322.69 502.61 331.44
C 493.34 335.54 476.58 338.12 466.18 337.05
C 458.82 336.29 438.35 332.25 431.56 330.24
L 428.59 329.37
L 428.59 376.98
L 428.59 424.62
L 623.76 424.62
C 817.18 424.62 818.96 424.64 821.58 427.25
C 824.16 429.84 824.21 431.64 824.21 512.31
C 824.21 592.97 824.16 594.78 821.58 597.36
C 818.95 599.99 817.18 600.00 412.11 600.00
C 7.03 600.00 5.26 599.99 2.64 597.36
M 816.30 592.09
C 818.87 589.52 818.94 587.70 818.94 512.31
C 818.94 436.92 818.87 435.10 816.30 432.53
C 813.68 429.90 811.91 429.89 412.11 429.89
C 12.30 429.89 10.54 429.90 7.91 432.53
C 5.34 435.10 5.27 436.92 5.27 512.31
C 5.27 587.70 5.34 589.52 7.91 592.09
C 10.54 594.71 12.30 594.73 412.11 594.73
C 811.91 594.73 813.68 594.71 816.30 592.09
M 419.36 376.09
L 419.36 327.56
L 413.43 324.67
L 407.49 321.80
L 407.49 373.20
L 407.49 424.62
L 413.43 424.62
L 419.36 424.62
L 419.36 376.09
M 482.99 327.01
C 487.88 326.31 493.82 324.92 496.18 323.95
C 500.07 322.34 499.24 322.23 487.17 322.79
C 439.26 325.02 368.76 287.70 335.63 242.56
L 326.98 230.77
L 319.02 230.77
L 311.05 230.77
L 316.71 239.01
C 319.82 243.55 329.80 254.68 338.89 263.76
C 361.94 286.81 384.95 302.14 414.81 314.28
C 429.67 320.33 445.79 324.87 459.61 326.89
C 470.51 328.47 472.82 328.48 482.99 327.01
M 500.69 311.29
C 503.71 309.92 506.82 307.60 507.61 306.13
C 513.62 294.91 501.31 272.03 474.30 244.29
L 461.15 230.77
L 444.88 230.77
L 428.59 230.77
L 428.59 265.77
L 428.59 300.75
L 434.56 303.31
C 440.28 305.76 461.24 311.76 468.15 312.94
C 469.97 313.24 476.79 313.56 483.32 313.64
C 492.39 313.75 496.48 313.20 500.69 311.29
M 419.36 264.40
L 419.36 230.77
L 413.43 230.77
L 407.49 230.77
L 407.49 260.97
L 407.49 291.16
L 413.10 294.54
C 416.18 296.40 418.85 297.94 419.03 297.97
C 419.21 298.00 419.36 282.90 419.36 264.40
M 397.82 231.20
C 397.55 230.94 384.14 230.87 368.02 231.07
L 338.72 231.43
L 345.22 240.00
C 354.15 251.76 370.24 266.81 385.14 277.35
L 397.60 286.17
L 397.96 258.94
C 398.15 243.96 398.09 231.48 397.82 231.20
M 512.34 273.32
C 508.97 264.26 497.68 242.44 493.13 236.15
C 489.37 230.97 488.98 230.77 481.85 230.77
L 474.47 230.77
L 484.35 241.27
C 495.58 253.20 505.13 265.49 510.18 274.51
C 514.48 282.16 515.44 281.63 512.34 273.32
M 97.31 265.61
C 102.90 264.46 111.93 261.60 117.37 259.24
C 129.05 254.19 148.83 242.14 156.27 235.56
L 161.55 230.87
L 148.56 230.82
L 135.58 230.77
L 129.76 235.89
C 117.62 246.58 95.53 255.43 84.40 254.04
C 70.94 252.38 54.56 244.33 43.37 233.85
C 40.35 231.02 38.93 230.68 31.58 231.03
L 23.22 231.43
L 27.76 236.61
C 34.52 244.31 50.24 256.39 58.76 260.43
C 65.61 263.66 78.93 267.32 84.78 267.59
C 86.09 267.64 91.72 266.76 97.31 265.61
M 107.45 241.41
C 113.27 238.48 119.50 234.91 121.32 233.46
L 124.62 230.82
L 88.61 230.80
C 67.55 230.78 52.89 231.26 53.33 231.96
C 53.74 232.62 57.47 235.42 61.65 238.19
C 78.70 249.55 89.73 250.31 107.45 241.41
M 805.49 219.96
C 807.53 217.91 807.53 208.02 805.49 205.98
C 804.26 204.75 715.46 204.40 413.82 204.40
C 25.49 204.40 23.72 204.41 21.10 207.03
C 19.65 208.48 18.46 211.15 18.46 212.97
C 18.46 214.79 19.65 217.45 21.10 218.90
C 23.72 221.53 25.49 221.54 413.82 221.54
C 715.46 221.54 804.26 221.18 805.49 219.96
M 28.33 182.97
C 33.40 155.83 37.41 147.82 48.41 142.77
L 55.68 139.45
L 63.67 141.88
C 77.27 145.99 86.01 152.41 118.03 181.83
L 132.53 195.15
L 142.42 195.13
L 152.31 195.09
L 143.08 186.20
C 109.59 154.00 69.60 128.03 53.41 127.99
C 36.49 127.94 22.80 145.46 15.17 176.94
C 10.60 195.80 10.47 195.16 18.96 195.16
L 26.05 195.16
L 28.33 182.97
M 109.46 184.33
C 76.72 152.97 61.30 143.88 50.38 149.54
C 43.51 153.09 37.20 166.36 34.99 181.98
C 34.52 185.24 33.84 189.55 33.46 191.54
L 32.76 195.16
L 76.71 195.11
L 120.66 195.06
L 109.46 184.33"/>
<path fill="#000000" stroke="none" d="
M 830.78 483.27
C 829.40 481.60 829.34 479.21 830.56 471.03
C 832.86 455.51 838.31 403.45 840.87 372.53
C 844.07 333.65 844.14 264.66 840.99 239.34
C 835.62 196.30 824.58 164.65 809.50 148.98
C 804.37 143.66 788.63 131.63 780.29 126.65
L 775.25 123.64
L 775.67 130.06
C 776.08 136.48 776.08 136.48 772.12 136.09
C 769.95 135.88 760.15 135.65 750.36 135.59
C 729.53 135.44 717.25 138.16 693.13 148.26
C 685.23 151.57 678.24 154.29 677.60 154.29
C 676.95 154.29 675.27 151.61 673.86 148.34
C 669.64 138.49 667.34 138.42 647.73 147.57
C 638.53 151.86 627.79 156.41 623.84 157.70
C 615.59 160.38 614.67 159.75 637.15 166.79
C 645.59 169.44 653.59 172.39 654.93 173.37
C 657.29 175.09 657.29 175.23 654.86 177.90
C 650.59 182.64 639.38 187.25 630.09 188.11
C 614.35 189.59 566.81 181.25 559.32 175.71
C 555.97 173.25 554.79 173.13 544.56 174.29
C 538.44 174.98 514.44 175.54 491.23 175.54
C 451.81 175.54 448.44 175.36 439.97 172.72
C 426.57 168.55 421.75 162.15 426.01 154.18
C 427.07 152.19 426.93 151.44 425.36 150.83
C 424.25 150.41 422.68 147.85 421.87 145.15
C 420.57 140.82 420.78 139.48 423.71 133.75
C 429.09 123.19 434.01 119.64 471.45 99.22
C 480.83 94.10 490.59 87.56 495.41 83.14
C 504.27 75.05 523.96 64.11 538.05 59.46
C 546.30 56.74 546.84 56.28 552.55 47.29
C 564.59 28.34 581.56 15.94 605.33 8.76
C 619.56 4.44 639.80 -0.03 641.17 0.82
C 642.93 1.91 642.36 12.96 640.29 17.91
C 639.22 20.45 635.07 27.85 631.04 34.35
L 623.75 46.15
L 639.01 46.15
C 760.56 46.15 832.26 85.12 871.49 172.51
C 883.90 200.14 892.83 229.24 905.33 282.86
C 924.41 364.67 938.24 407.49 958.88 448.65
C 961.71 454.26 964.00 459.76 964.00 460.89
C 964.00 465.53 959.82 464.31 951.79 457.31
C 930.11 438.44 909.96 426.55 897.10 425.06
C 878.23 422.86 863.58 434.91 844.51 468.36
C 839.46 477.19 834.71 484.63 833.93 484.89
C 833.15 485.16 831.74 484.42 830.78 483.27
M 847.08 448.65
C 854.66 437.25 868.47 423.98 876.41 420.47
C 893.74 412.81 912.66 417.55 937.39 435.76
C 941.87 439.05 945.79 441.76 946.08 441.76
C 946.37 441.76 943.92 435.68 940.65 428.24
C 937.37 420.80 930.60 402.58 925.59 387.73
C 920.57 372.88 916.00 360.26 915.40 359.67
C 914.81 359.08 909.93 360.67 904.55 363.22
C 890.53 369.82 881.22 371.87 865.08 371.87
C 855.98 371.87 850.56 372.42 849.53 373.45
C 848.66 374.32 847.95 377.29 847.95 380.04
C 847.95 385.85 841.66 450.18 840.66 454.62
C 840.29 456.25 840.25 457.58 840.57 457.58
C 840.90 457.58 843.82 453.57 847.08 448.65
M 889.75 360.70
C 900.36 357.36 912.57 350.60 912.57 348.08
C 912.57 347.30 910.83 339.72 908.71 331.24
C 906.58 322.76 901.49 301.36 897.39 283.67
C 883.75 224.91 874.97 197.68 859.74 166.81
C 827.40 101.27 775.84 67.21 693.91 57.27
C 670.45 54.42 616.31 53.29 597.36 55.25
C 553.38 59.82 518.00 72.50 499.80 90.25
C 495.82 94.14 488.69 99.24 483.98 101.59
C 458.10 114.46 440.59 126.67 434.72 135.94
C 430.93 141.94 432.45 143.70 440.75 142.84
C 446.43 142.25 448.16 142.55 449.70 144.41
C 451.83 146.97 452.59 146.11 440.55 154.52
C 435.15 158.29 434.89 158.73 437.11 160.35
C 441.45 163.52 459.16 166.79 472.07 166.80
L 484.57 166.81
L 487.87 160.88
C 490.66 155.83 491.26 152.70 491.85 139.78
C 492.55 124.67 492.56 124.62 495.85 124.62
C 499.12 124.62 499.14 124.72 499.53 137.80
C 499.84 148.50 499.39 152.57 497.11 159.34
C 495.56 163.93 494.54 167.92 494.83 168.21
C 495.83 169.21 551.21 166.10 554.46 164.86
C 556.25 164.19 558.65 161.80 559.81 159.56
C 564.74 150.04 575.20 148.11 592.34 153.60
L 602.45 156.83
L 613.72 153.02
C 619.90 150.92 634.93 144.66 647.12 139.09
C 729.62 101.35 755.98 99.40 796.52 127.99
C 817.55 142.83 829.38 159.20 837.86 185.27
C 849.82 222.03 854.36 277.49 850.64 341.49
C 849.98 352.69 849.74 362.33 850.10 362.91
C 850.46 363.48 857.21 363.96 865.11 363.96
C 876.70 363.96 881.45 363.34 889.75 360.70
M 636.24 179.20
C 640.88 177.90 641.21 177.55 639.21 176.08
C 637.97 175.17 627.91 171.94 616.84 168.90
C 605.78 165.85 592.79 162.20 587.95 160.80
C 576.42 157.44 572.89 157.57 568.97 161.47
C 562.52 167.93 564.78 170.29 580.98 174.11
C 606.63 180.13 626.35 181.94 636.24 179.20
M 715.73 131.87
C 730.23 128.07 747.09 126.16 757.93 127.07
C 768.71 127.98 769.58 127.13 763.79 121.35
C 760.73 118.29 758.45 117.45 751.13 116.66
C 735.16 114.95 718.05 118.40 691.10 128.76
L 675.26 134.84
L 677.87 138.15
C 679.30 139.96 680.47 142.22 680.47 143.14
C 680.47 144.28 684.68 143.12 693.18 139.64
C 700.19 136.77 710.33 133.28 715.73 131.87
M 584.64 48.82
C 587.62 48.79 592.08 45.24 606.66 31.32
C 616.72 21.72 624.50 13.40 623.94 12.83
C 622.43 11.33 600.84 17.91 589.62 23.29
C 579.56 28.11 564.91 41.21 560.23 49.57
L 558.00 53.51
L 569.46 51.18
C 575.75 49.89 582.58 48.83 584.64 48.82
M 615.85 45.06
C 615.85 44.45 618.85 39.03 622.50 33.02
C 626.15 26.99 628.97 21.93 628.76 21.75
C 628.55 21.55 622.46 26.97 615.23 33.77
L 602.08 46.15
L 608.97 46.15
C 612.75 46.15 615.85 45.65 615.85 45.06"/>
<path fill="#000000" stroke="none" d="
M 9.23 550.55
L 9.23 518.24
L 41.54 518.24
L 73.85 518.24
L 73.85 550.55
L 73.85 582.86
L 41.54 582.86
L 9.23 582.86
L 9.23 550.55
M 68.57 550.55
L 68.57 523.52
L 41.54 523.52
L 14.51 523.52
L 14.51 550.55
L 14.51 577.58
L 41.54 577.58
L 68.57 577.58
L 68.57 550.55"/>
<path fill="#000000" stroke="none" d="
M 85.72 550.55
L 85.72 518.24
L 120.66 518.24
L 155.61 518.24
L 155.61 550.55
L 155.61 582.86
L 120.66 582.86
L 85.72 582.86
L 85.72 550.55
M 150.34 550.55
L 150.34 523.52
L 120.66 523.52
L 90.99 523.52
L 90.99 550.55
L 90.99 577.58
L 120.66 577.58
L 150.34 577.58
L 150.34 550.55"/>
<path fill="#000000" stroke="none" d="
M 167.48 550.55
L 167.48 518.24
L 203.75 518.24
L 240.01 518.24
L 240.01 550.55
L 240.01 582.86
L 203.75 582.86
L 167.48 582.86
L 167.48 550.55
M 234.74 550.55
L 234.74 523.52
L 203.75 523.52
L 172.76 523.52
L 172.76 550.55
L 172.76 577.58
L 203.75 577.58
L 234.74 577.58
L 234.74 550.55"/>
<path fill="#000000" stroke="none" d="
M 251.88 550.55
L 251.88 518.24
L 287.49 518.24
L 323.09 518.24
L 323.09 550.55
L 323.09 582.86
L 287.49 582.86
L 251.88 582.86
L 251.88 550.55
M 317.82 550.55
L 317.82 523.52
L 287.49 523.52
L 257.15 523.52
L 257.15 550.55
L 257.15 577.58
L 287.49 577.58
L 317.82 577.58
L 317.82 550.55"/>
<path fill="#000000" stroke="none" d="
M 334.96 550.55
L 334.96 518.24
L 371.23 518.24
L 407.49 518.24
L 407.49 550.55
L 407.49 582.86
L 371.23 582.86
L 334.96 582.86
L 334.96 550.55
M 402.22 550.55
L 402.22 523.52
L 371.23 523.52
L 340.24 523.52
L 340.24 550.55
L 340.24 577.58
L 371.23 577.58
L 402.22 577.58
L 402.22 550.55"/>
<path fill="#000000" stroke="none" d="
M 419.36 550.55
L 419.36 518.24
L 454.31 518.24
L 489.25 518.24
L 489.25 550.55
L 489.25 582.86
L 454.31 582.86
L 419.36 582.86
L 419.36 550.55
M 483.98 550.55
L 483.98 523.52
L 454.31 523.52
L 424.63 523.52
L 424.63 550.55
L 424.63 577.58
L 454.31 577.58
L 483.98 577.58
L 483.98 550.55"/>
<path fill="#000000" stroke="none" d="
M 501.12 550.55
L 501.12 518.24
L 536.73 518.24
L 572.33 518.24
L 572.33 550.55
L 572.33 582.86
L 536.73 582.86
L 501.12 582.86
L 501.12 550.55
M 567.06 550.55
L 567.06 523.52
L 536.73 523.52
L 506.40 523.52
L 506.40 550.55
L 506.40 577.58
L 536.73 577.58
L 567.06 577.58
L 567.06 550.55"/>
<path fill="#000000" stroke="none" d="
M 584.20 550.55
L 584.20 518.24
L 620.47 518.24
L 656.73 518.24
L 656.73 550.55
L 656.73 582.86
L 620.47 582.86
L 584.20 582.86
L 584.20 550.55
M 651.46 550.55
L 651.46 523.52
L 620.47 523.52
L 589.48 523.52
L 589.48 550.55
L 589.48 577.58
L 620.47 577.58
L 651.46 577.58
L 651.46 550.55"/>
<path fill="#000000" stroke="none" d="
M 668.60 550.55
L 668.60 518.24
L 703.55 518.24
L 738.50 518.24
L 738.50 550.55
L 738.50 582.86
L 703.55 582.86
L 668.60 582.86
L 668.60 550.55
M 733.22 550.55
L 733.22 523.52
L 703.55 523.52
L 673.88 523.52
L 673.88 550.55
L 673.88 577.58
L 703.55 577.58
L 733.22 577.58
L 733.22 550.55"/>
<path fill="#000000" stroke="none" d="
M 750.36 550.55
L 750.36 518.24
L 782.67 518.24
L 814.98 518.24
L 814.98 550.55
L 814.98 582.86
L 782.67 582.86
L 750.36 582.86
L 750.36 550.55
M 809.71 550.55
L 809.71 523.52
L 782.67 523.52
L 755.64 523.52
L 755.64 550.55
L 755.64 577.58
L 782.67 577.58
L 809.71 577.58
L 809.71 550.55"/>
<path fill="#000000" stroke="none" d="
M 9.23 474.07
L 9.23 441.76
L 41.54 441.76
L 73.85 441.76
L 73.85 474.07
L 73.85 506.37
L 41.54 506.37
L 9.23 506.37
L 9.23 474.07
M 68.57 474.07
L 68.57 447.03
L 41.54 447.03
L 14.51 447.03
L 14.51 474.07
L 14.51 501.10
L 41.54 501.10
L 68.57 501.10
L 68.57 474.07"/>
<path fill="#000000" stroke="none" d="
M 85.72 474.07
L 85.72 441.76
L 120.66 441.76
L 155.61 441.76
L 155.61 474.07
L 155.61 506.37
L 120.66 506.37
L 85.72 506.37
L 85.72 474.07
M 150.34 474.07
L 150.34 447.03
L 120.66 447.03
L 90.99 447.03
L 90.99 474.07
L 90.99 501.10
L 120.66 501.10
L 150.34 501.10
L 150.34 474.07"/>
<path fill="#000000" stroke="none" d="
M 167.48 474.07
L 167.48 441.76
L 203.75 441.76
L 240.01 441.76
L 240.01 474.07
L 240.01 506.37
L 203.75 506.37
L 167.48 506.37
L 167.48 474.07
M 234.74 474.07
L 234.74 447.03
L 203.75 447.03
L 172.76 447.03
L 172.76 474.07
L 172.76 501.10
L 203.75 501.10
L 234.74 501.10
L 234.74 474.07"/>
<path fill="#000000" stroke="none" d="
M 251.88 474.07
L 251.88 441.76
L 287.49 441.76
L 323.09 441.76
L 323.09 474.07
L 323.09 506.37
L 287.49 506.37
L 251.88 506.37
L 251.88 474.07
M 317.82 474.07
L 317.82 447.03
L 287.49 447.03
L 257.15 447.03
L 257.15 474.07
L 257.15 501.10
L 287.49 501.10
L 317.82 501.10
L 317.82 474.07"/>
<path fill="#000000" stroke="none" d="
M 334.96 474.07
L 334.96 441.76
L 371.23 441.76
L 407.49 441.76
L 407.49 474.07
L 407.49 506.37
L 371.23 506.37
L 334.96 506.37
L 334.96 474.07
M 402.22 474.07
L 402.22 447.03
L 371.23 447.03
L 340.24 447.03
L 340.24 474.07
L 340.24 501.10
L 371.23 501.10
L 402.22 501.10
L 402.22 474.07"/>
<path fill="#000000" stroke="none" d="
M 419.36 474.07
L 419.36 441.76
L 454.31 441.76
L 489.25 441.76
L 489.25 474.07
L 489.25 506.37
L 454.31 506.37
L 419.36 506.37
L 419.36 474.07
M 483.98 474.07
L 483.98 447.03
L 454.31 447.03
L 424.63 447.03
L 424.63 474.07
L 424.63 501.10
L 454.31 501.10
L 483.98 501.10
L 483.98 474.07"/>
<path fill="#000000" stroke="none" d="
M 501.12 474.07
L 501.12 441.76
L 536.73 441.76
L 572.33 441.76
L 572.33 474.07
L 572.33 506.37
L 536.73 506.37
L 501.12 506.37
L 501.12 474.07
M 567.06 474.07
L 567.06 447.03
L 536.73 447.03
L 506.40 447.03
L 506.40 474.07
L 506.40 501.10
L 536.73 501.10
L 567.06 501.10
L 567.06 474.07"/>
<path fill="#000000" stroke="none" d="
M 584.20 474.07
L 584.20 441.76
L 620.47 441.76
L 656.73 441.76
L 656.73 474.07
L 656.73 506.37
L 620.47 506.37
L 584.20 506.37
L 584.20 474.07
M 651.46 474.07
L 651.46 447.03
L 620.47 447.03
L 589.48 447.03
L 589.48 474.07
L 589.48 501.10
L 620.47 501.10
L 651.46 501.10
L 651.46 474.07"/>
<path fill="#000000" stroke="none" d="
M 668.60 474.07
L 668.60 441.76
L 703.55 441.76
L 738.50 441.76
L 738.50 474.07
L 738.50 506.37
L 703.55 506.37
L 668.60 506.37
L 668.60 474.07
M 733.22 474.07
L 733.22 447.03
L 703.55 447.03
L 673.88 447.03
L 673.88 474.07
L 673.88 501.10
L 703.55 501.10
L 733.22 501.10
L 733.22 474.07"/>
<path fill="#000000" stroke="none" d="
M 750.36 474.07
L 750.36 441.76
L 782.67 441.76
L 814.98 441.76
L 814.98 474.07
L 814.98 506.37
L 782.67 506.37
L 750.36 506.37
L 750.36 474.07
M 809.71 474.07
L 809.71 447.03
L 782.67 447.03
L 755.64 447.03
L 755.64 474.07
L 755.64 501.10
L 782.67 501.10
L 809.71 501.10
L 809.71 474.07"/>
<path fill="#000000" stroke="none" d="
M 518.27 149.56
C 512.63 147.44 509.96 145.46 508.26 142.21
C 499.38 125.02 525.00 112.17 564.98 113.76
C 583.23 114.49 593.24 116.73 599.18 121.41
C 601.10 122.91 602.66 125.18 602.66 126.46
C 602.66 135.78 565.50 148.65 535.41 149.75
C 527.07 150.07 519.35 149.97 518.27 149.56
M 562.61 137.95
C 577.94 134.14 593.74 128.15 592.75 126.54
C 592.37 125.93 587.55 124.44 582.04 123.22
C 574.29 121.49 568.11 121.13 554.70 121.66
C 525.52 122.81 513.79 128.97 519.73 140.04
C 521.10 142.63 521.98 142.73 535.22 142.02
C 543.33 141.59 554.89 139.87 562.61 137.95"/>
<path fill="#000000" stroke="none" d="
M 458.20 136.55
C 451.09 129.43 456.11 117.36 466.18 117.36
C 472.61 117.36 477.38 122.14 477.38 128.57
C 477.38 135.01 472.61 139.78 466.18 139.78
C 462.90 139.78 460.44 138.78 458.20 136.55
M 472.04 133.94
C 474.21 131.31 473.24 123.86 470.53 122.16
C 467.78 120.45 465.74 122.07 467.92 124.25
C 469.81 126.15 469.97 131.41 468.15 132.53
C 467.43 132.98 466.83 133.90 466.83 134.58
C 466.83 136.48 470.28 136.06 472.04 133.94"/>
<path fill="#ecca55" stroke="none" d="
M 840.66 454.62
C 841.66 450.18 847.95 385.85 847.95 380.04
C 847.95 377.29 848.66 374.32 849.53 373.45
C 850.56 372.42 855.98 371.87 865.08 371.87
C 881.22 371.87 890.53 369.82 904.55 363.22
C 909.93 360.67 914.81 359.08 915.40 359.67
C 916.00 360.26 920.57 372.88 925.59 387.73
C 930.60 402.58 937.37 420.80 940.65 428.24
C 943.92 435.68 946.37 441.76 946.08 441.76
C 945.79 441.76 941.87 439.05 937.39 435.76
C 912.66 417.55 893.74 412.81 876.41 420.47
C 868.47 423.98 854.66 437.25 847.08 448.65
C 843.82 453.57 840.90 457.58 840.57 457.58
C 840.25 457.58 840.29 456.25 840.66 454.62"/>
<path fill="#ecca55" stroke="none" d="
M 603.98 178.64
C 588.74 176.23 569.58 171.65 567.47 169.90
C 564.88 167.76 565.37 165.09 568.97 161.47
C 572.89 157.57 576.42 157.44 587.95 160.80
C 592.79 162.20 605.78 165.85 616.84 168.90
C 627.91 171.94 637.97 175.17 639.21 176.08
C 641.21 177.55 640.88 177.90 636.24 179.20
C 629.53 181.05 618.11 180.86 603.98 178.64"/>
<path fill="#ecca55" stroke="none" d="
M 680.47 143.14
C 680.47 142.22 679.30 139.96 677.87 138.15
L 675.26 134.84
L 691.10 128.76
C 718.05 118.40 735.16 114.95 751.13 116.66
C 758.45 117.45 760.73 118.29 763.79 121.35
C 769.58 127.13 768.71 127.98 757.93 127.07
C 740.26 125.58 716.16 130.26 693.18 139.64
C 684.68 143.12 680.47 144.28 680.47 143.14"/>
<path fill="#ecca55" stroke="none" d="
M 519.73 140.04
C 513.79 128.97 525.52 122.81 554.70 121.66
C 568.11 121.13 574.29 121.49 582.04 123.22
C 587.55 124.44 592.37 125.93 592.75 126.54
C 593.12 127.15 589.49 129.20 584.69 131.13
C 570.58 136.79 550.47 141.20 535.22 142.02
C 521.98 142.73 521.10 142.63 519.73 140.04"/>
<path fill="#ecca55" stroke="none" d="
M 559.15 51.90
C 559.15 51.28 561.84 47.34 565.13 43.15
C 573.01 33.11 584.47 24.84 597.42 19.85
C 609.40 15.23 623.47 11.66 624.33 13.03
C 624.64 13.53 616.81 21.64 606.95 31.04
L 589.00 48.13
L 579.02 49.62
C 573.53 50.43 566.81 51.53 564.09 52.07
C 561.38 52.60 559.15 52.54 559.15 51.90"/>
<path fill="#ecca55" stroke="none" d="
M 615.23 33.77
C 622.46 26.97 628.55 21.55 628.76 21.75
C 628.97 21.93 626.15 26.99 622.50 33.02
C 618.85 39.03 615.85 44.45 615.85 45.06
C 615.85 45.65 612.75 46.15 608.97 46.15
L 602.08 46.15
L 615.23 33.77"/>
<path fill="#bac0be" stroke="none" d="
M 850.10 362.91
C 849.74 362.33 849.98 352.69 850.64 341.49
C 854.36 277.49 849.82 222.03 837.86 185.27
C 829.38 159.20 817.55 142.83 796.52 127.99
C 755.98 99.40 729.62 101.35 647.12 139.09
C 634.93 144.66 619.90 150.92 613.72 153.02
L 602.45 156.83
L 592.34 153.60
C 575.20 148.11 564.74 150.04 559.81 159.56
C 558.65 161.80 556.25 164.19 554.46 164.86
C 551.21 166.10 495.83 169.21 494.83 168.21
C 494.54 167.92 495.56 163.93 497.11 159.34
C 499.39 152.57 499.84 148.50 499.53 137.80
C 499.14 124.72 499.12 124.62 495.85 124.62
C 492.56 124.62 492.55 124.67 491.85 139.78
C 491.26 152.70 490.66 155.83 487.87 160.88
L 484.57 166.81
L 472.07 166.80
C 459.16 166.79 441.45 163.52 437.11 160.35
C 434.89 158.73 435.15 158.29 440.55 154.52
C 452.59 146.11 451.83 146.97 449.70 144.41
C 448.16 142.55 446.43 142.25 440.75 142.84
C 432.45 143.70 430.93 141.94 434.72 135.94
C 440.59 126.67 458.10 114.46 483.98 101.59
C 488.69 99.24 495.82 94.14 499.80 90.25
C 518.16 72.36 554.07 59.56 598.05 55.25
C 617.75 53.33 670.51 54.44 693.91 57.27
C 762.02 65.53 809.15 90.71 842.10 136.48
C 851.62 149.72 866.41 178.65 873.51 197.92
C 880.39 216.62 888.98 247.45 897.39 283.67
C 901.49 301.36 906.58 322.76 908.71 331.24
C 910.83 339.72 912.57 347.30 912.57 348.08
C 912.57 350.60 900.36 357.36 889.75 360.70
C 881.45 363.34 876.70 363.96 865.11 363.96
C 857.21 363.96 850.46 363.48 850.10 362.91
M 566.10 145.24
C 589.24 139.32 602.66 132.42 602.66 126.46
C 602.66 125.18 601.10 122.91 599.18 121.41
C 593.24 116.73 583.23 114.49 564.98 113.76
C 525.00 112.17 499.38 125.02 508.26 142.21
C 509.96 145.46 512.63 147.44 518.27 149.56
C 523.58 151.57 551.04 149.08 566.10 145.24
M 474.15 136.55
C 481.26 129.43 476.24 117.36 466.18 117.36
C 459.74 117.36 454.97 122.14 454.97 128.57
C 454.97 135.01 459.74 139.78 466.18 139.78
C 469.45 139.78 471.91 138.78 474.15 136.55"/>
<path fill="#eb2e00" stroke="none" d="
M 466.83 134.58
C 466.83 133.90 467.43 132.98 468.15 132.53
C 469.91 131.45 469.84 126.17 468.03 124.36
C 465.91 122.24 469.10 120.70 471.50 122.69
C 473.82 124.62 474.05 132.04 471.85 134.24
C 469.96 136.13 466.83 136.34 466.83 134.58"/>
<path fill="#ffa153" stroke="none" d="
M 74.34 265.73
C 69.91 264.76 62.89 262.38 58.76 260.43
C 50.24 256.39 34.52 244.31 27.76 236.61
L 23.22 231.43
L 31.58 231.03
C 38.93 230.68 40.35 231.02 43.37 233.85
C 54.56 244.33 70.94 252.38 84.40 254.04
C 95.53 255.43 117.62 246.58 129.76 235.89
L 135.58 230.77
L 148.56 230.82
L 161.55 230.87
L 156.27 235.56
C 148.83 242.14 129.05 254.19 117.37 259.24
C 108.16 263.24 90.20 267.82 84.78 267.59
C 83.49 267.53 78.78 266.69 74.34 265.73"/>
<path fill="#ffa153" stroke="none" d="
M 11.87 192.86
C 11.87 186.63 19.16 161.64 23.71 152.22
C 31.58 135.94 41.94 127.85 54.73 127.96
C 69.71 128.11 110.92 155.27 143.08 186.20
L 152.31 195.09
L 142.42 195.13
L 132.53 195.15
L 118.03 181.83
C 86.01 152.41 77.27 145.99 63.67 141.88
L 55.68 139.45
L 48.41 142.77
C 37.41 147.82 33.40 155.83 28.33 182.97
L 26.05 195.16
L 18.96 195.16
C 13.08 195.16 11.87 194.77 11.87 192.86"/>
<path fill="#c55436" stroke="none" d="
M 407.49 373.20
L 407.49 321.80
L 413.43 324.67
L 419.36 327.56
L 419.36 376.09
L 419.36 424.62
L 413.43 424.62
L 407.49 424.62
L 407.49 373.20"/>
<path fill="#c55436" stroke="none" d="
M 413.10 294.54
L 407.49 291.16
L 407.49 260.97
L 407.49 230.77
L 413.43 230.77
L 419.36 230.77
L 419.36 264.40
C 419.36 282.90 419.21 298.00 419.03 297.97
C 418.85 297.94 416.18 296.40 413.10 294.54"/>
<path fill="#c55436" stroke="none" d="
M 21.10 218.90
C 18.01 215.82 17.70 211.23 20.33 207.61
C 22.18 205.09 27.88 205.05 412.85 204.73
C 701.21 204.47 803.96 204.78 805.28 205.87
C 807.49 207.71 807.64 217.81 805.49 219.96
C 804.26 221.18 715.46 221.54 413.82 221.54
C 25.49 221.54 23.72 221.53 21.10 218.90"/>
<path fill="#ef907a" stroke="none" d="
M 459.61 326.89
C 419.02 320.97 374.83 298.58 342.11 267.35
C 329.53 255.34 312.54 235.03 312.54 232.01
C 312.54 231.32 315.79 230.77 319.76 230.77
L 326.98 230.77
L 335.63 242.56
C 362.59 279.27 414.76 311.54 462.77 321.18
C 470.63 322.76 477.78 323.22 487.17 322.79
C 499.24 322.23 500.07 322.34 496.18 323.95
C 491.60 325.85 476.28 328.39 470.79 328.17
C 468.97 328.09 463.95 327.51 459.61 326.89"/>
<path fill="#ef907a" stroke="none" d="
M 510.18 274.51
C 505.13 265.49 495.58 253.20 484.35 241.27
L 474.47 230.77
L 481.85 230.77
C 488.98 230.77 489.37 230.97 493.13 236.15
C 500.16 245.85 515.79 278.53 514.16 280.14
C 513.87 280.43 512.09 277.90 510.18 274.51"/>
<path fill="#0885ff" stroke="none" d="
M 7.91 592.09
C 5.34 589.52 5.27 587.70 5.27 512.56
C 5.27 448.23 5.58 435.26 7.15 433.11
C 8.99 430.59 14.81 430.55 411.33 430.22
C 812.44 429.88 813.66 429.89 816.30 432.53
C 818.89 435.11 818.94 436.87 818.94 512.31
C 818.94 587.70 818.87 589.52 816.30 592.09
C 813.68 594.71 811.91 594.73 412.11 594.73
C 12.30 594.73 10.54 594.71 7.91 592.09
M 73.85 550.55
L 73.85 518.24
L 41.54 518.24
L 9.23 518.24
L 9.23 550.55
L 9.23 582.86
L 41.54 582.86
L 73.85 582.86
L 73.85 550.55
M 155.61 550.55
L 155.61 518.24
L 120.66 518.24
L 85.72 518.24
L 85.72 550.55
L 85.72 582.86
L 120.66 582.86
L 155.61 582.86
L 155.61 550.55
M 240.01 550.55
L 240.01 518.24
L 203.75 518.24
L 167.48 518.24
L 167.48 550.55
L 167.48 582.86
L 203.75 582.86
L 240.01 582.86
L 240.01 550.55
M 323.09 550.55
L 323.09 518.24
L 287.49 518.24
L 251.88 518.24
L 251.88 550.55
L 251.88 582.86
L 287.49 582.86
L 323.09 582.86
L 323.09 550.55
M 407.49 550.55
L 407.49 518.24
L 371.23 518.24
L 334.96 518.24
L 334.96 550.55
L 334.96 582.86
L 371.23 582.86
L 407.49 582.86
L 407.49 550.55
M 489.25 550.55
L 489.25 518.24
L 454.31 518.24
L 419.36 518.24
L 419.36 550.55
L 419.36 582.86
L 454.31 582.86
L 489.25 582.86
L 489.25 550.55
M 572.33 550.55
L 572.33 518.24
L 536.73 518.24
L 501.12 518.24
L 501.12 550.55
L 501.12 582.86
L 536.73 582.86
L 572.33 582.86
L 572.33 550.55
M 656.73 550.55
L 656.73 518.24
L 620.47 518.24
L 584.20 518.24
L 584.20 550.55
L 584.20 582.86
L 620.47 582.86
L 656.73 582.86
L 656.73 550.55
M 738.50 550.55
L 738.50 518.24
L 703.55 518.24
L 668.60 518.24
L 668.60 550.55
L 668.60 582.86
L 703.55 582.86
L 738.50 582.86
L 738.50 550.55
M 814.98 550.55
L 814.98 518.24
L 782.67 518.24
L 750.36 518.24
L 750.36 550.55
L 750.36 582.86
L 782.67 582.86
L 814.98 582.86
L 814.98 550.55
M 73.85 474.07
L 73.85 441.76
L 41.54 441.76
L 9.23 441.76
L 9.23 474.07
L 9.23 506.37
L 41.54 506.37
L 73.85 506.37
L 73.85 474.07
M 155.61 474.07
L 155.61 441.76
L 120.66 441.76
L 85.72 441.76
L 85.72 474.07
L 85.72 506.37
L 120.66 506.37
L 155.61 506.37
L 155.61 474.07
M 240.01 474.07
L 240.01 441.76
L 203.75 441.76
L 167.48 441.76
L 167.48 474.07
L 167.48 506.37
L 203.75 506.37
L 240.01 506.37
L 240.01 474.07
M 323.09 474.07
L 323.09 441.76
L 287.49 441.76
L 251.88 441.76
L 251.88 474.07
L 251.88 506.37
L 287.49 506.37
L 323.09 506.37
L 323.09 474.07
M 407.49 474.07
L 407.49 441.76
L 371.23 441.76
L 334.96 441.76
L 334.96 474.07
L 334.96 506.37
L 371.23 506.37
L 407.49 506.37
L 407.49 474.07
M 489.25 474.07
L 489.25 441.76
L 454.31 441.76
L 419.36 441.76
L 419.36 474.07
L 419.36 506.37
L 454.31 506.37
L 489.25 506.37
L 489.25 474.07
M 572.33 474.07
L 572.33 441.76
L 536.73 441.76
L 501.12 441.76
L 501.12 474.07
L 501.12 506.37
L 536.73 506.37
L 572.33 506.37
L 572.33 474.07
M 656.73 474.07
L 656.73 441.76
L 620.47 441.76
L 584.20 441.76
L 584.20 474.07
L 584.20 506.37
L 620.47 506.37
L 656.73 506.37
L 656.73 474.07
M 738.50 474.07
L 738.50 441.76
L 703.55 441.76
L 668.60 441.76
L 668.60 474.07
L 668.60 506.37
L 703.55 506.37
L 738.50 506.37
L 738.50 474.07
M 814.98 474.07
L 814.98 441.76
L 782.67 441.76
L 750.36 441.76
L 750.36 474.07
L 750.36 506.37
L 782.67 506.37
L 814.98 506.37
L 814.98 474.07"/>
<path fill="#c57a36" stroke="none" d="
M 14.51 550.55
L 14.51 523.52
L 41.54 523.52
L 68.57 523.52
L 68.57 550.55
L 68.57 577.58
L 41.54 577.58
L 14.51 577.58
L 14.51 550.55"/>
<path fill="#c57a36" stroke="none" d="
M 90.99 550.55
L 90.99 523.52
L 120.66 523.52
L 150.34 523.52
L 150.34 550.55
L 150.34 577.58
L 120.66 577.58
L 90.99 577.58
L 90.99 550.55"/>
<path fill="#c57a36" stroke="none" d="
M 172.76 550.55
L 172.76 523.52
L 203.75 523.52
L 234.74 523.52
L 234.74 550.55
L 234.74 577.58
L 203.75 577.58
L 172.76 577.58
L 172.76 550.55"/>
<path fill="#c57a36" stroke="none" d="
M 257.15 550.55
L 257.15 523.52
L 287.49 523.52
L 317.82 523.52
L 317.82 550.55
L 317.82 577.58
L 287.49 577.58
L 257.15 577.58
L 257.15 550.55"/>
<path fill="#c57a36" stroke="none" d="
M 340.24 550.55
L 340.24 523.52
L 371.23 523.52
L 402.22 523.52
L 402.22 550.55
L 402.22 577.58
L 371.23 577.58
L 340.24 577.58
L 340.24 550.55"/>
<path fill="#c57a36" stroke="none" d="
M 424.63 550.55
L 424.63 523.52
L 454.31 523.52
L 483.98 523.52
L 483.98 550.55
L 483.98 577.58
L 454.31 577.58
L 424.63 577.58
L 424.63 550.55"/>
<path fill="#c57a36" stroke="none" d="
M 506.40 550.55
L 506.40 523.52
L 536.73 523.52
L 567.06 523.52
L 567.06 550.55
L 567.06 577.58
L 536.73 577.58
L 506.40 577.58
L 506.40 550.55"/>
<path fill="#c57a36" stroke="none" d="
M 589.48 550.55
L 589.48 523.52
L 620.47 523.52
L 651.46 523.52
L 651.46 550.55
L 651.46 577.58
L 620.47 577.58
L 589.48 577.58
L 589.48 550.55"/>
<path fill="#c57a36" stroke="none" d="
M 673.88 550.55
L 673.88 523.52
L 703.55 523.52
L 733.22 523.52
L 733.22 550.55
L 733.22 577.58
L 703.55 577.58
L 673.88 577.58
L 673.88 550.55"/>
<path fill="#c57a36" stroke="none" d="
M 755.64 550.55
L 755.64 523.52
L 782.67 523.52
L 809.71 523.52
L 809.71 550.55
L 809.71 577.58
L 782.67 577.58
L 755.64 577.58
L 755.64 550.55"/>
<path fill="#c57a36" stroke="none" d="
M 14.81 474.40
L 15.17 447.69
L 41.87 447.34
L 68.57 446.98
L 68.57 474.04
L 68.57 501.10
L 41.51 501.10
L 14.45 501.10
L 14.81 474.40"/>
<path fill="#c57a36" stroke="none" d="
M 90.99 474.07
L 90.99 447.03
L 120.66 447.03
L 150.34 447.03
L 150.34 474.07
L 150.34 501.10
L 120.66 501.10
L 90.99 501.10
L 90.99 474.07"/>
<path fill="#c57a36" stroke="none" d="
M 172.76 474.07
L 172.76 447.03
L 203.75 447.03
L 234.74 447.03
L 234.74 474.07
L 234.74 501.10
L 203.75 501.10
L 172.76 501.10
L 172.76 474.07"/>
<path fill="#c57a36" stroke="none" d="
M 257.15 474.07
L 257.15 447.03
L 287.49 447.03
L 317.82 447.03
L 317.82 474.07
L 317.82 501.10
L 287.49 501.10
L 257.15 501.10
L 257.15 474.07"/>
<path fill="#c57a36" stroke="none" d="
M 340.24 474.07
L 340.24 447.03
L 371.23 447.03
L 402.22 447.03
L 402.22 474.07
L 402.22 501.10
L 371.23 501.10
L 340.24 501.10
L 340.24 474.07"/>
<path fill="#c57a36" stroke="none" d="
M 424.63 474.07
L 424.63 447.03
L 454.31 447.03
L 483.98 447.03
L 483.98 474.07
L 483.98 501.10
L 454.31 501.10
L 424.63 501.10
L 424.63 474.07"/>
<path fill="#c57a36" stroke="none" d="
M 506.40 474.07
L 506.40 447.03
L 536.73 447.03
L 567.06 447.03
L 567.06 474.07
L 567.06 501.10
L 536.73 501.10
L 506.40 501.10
L 506.40 474.07"/>
<path fill="#c57a36" stroke="none" d="
M 589.48 474.07
L 589.48 447.03
L 620.47 447.03
L 651.46 447.03
L 651.46 474.07
L 651.46 501.10
L 620.47 501.10
L 589.48 501.10
L 589.48 474.07"/>
<path fill="#c57a36" stroke="none" d="
M 673.88 474.07
L 673.88 447.03
L 703.55 447.03
L 733.22 447.03
L 733.22 474.07
L 733.22 501.10
L 703.55 501.10
L 673.88 501.10
L 673.88 474.07"/>
<path fill="#c57a36" stroke="none" d="
M 755.64 474.07
L 755.64 447.03
L 782.67 447.03
L 809.71 447.03
L 809.71 474.07
L 809.71 501.10
L 782.67 501.10
L 755.64 501.10
L 755.64 474.07"/>
</g>
</svg>
