<?xml version="1.0" encoding="UTF-8" standalone="no"?>
<!DOCTYPE svg PUBLIC "-//W3C//DTD SVG 1.1//EN"
"http://www.w3.org/Graphics/SVG/1.1/DTD/svg11.dtd">
<svg width="451px" height="600px"
xmlns="http://www.w3.org/2000/svg" version="1.1">
<g transform="translate(0000, 0000) scale(1.0000, 1.0000)">
<path fill="#000000" stroke="none" d="
M 1.44 598.56
C 0.03 597.14 0.00 596.16 0.00 552.04
C 0.00 507.93 0.03 506.94 1.44 505.53
C 2.87 504.10 3.85 504.09 110.41 504.09
L 217.94 504.09
L 217.75 474.81
L 217.56 445.54
L 209.85 441.09
C 205.61 438.66 199.44 434.72 196.14 432.35
C 187.86 426.40 173.73 412.07 168.53 404.39
L 164.27 398.08
L 129.61 398.08
L 94.95 398.08
L 92.39 400.54
C 88.65 404.16 76.29 412.20 69.48 415.46
C 66.22 417.01 60.05 419.13 55.77 420.18
C 48.63 421.91 47.58 422.00 42.99 421.23
C 30.26 419.10 23.41 415.15 11.73 403.19
C 2.79 394.02 0.89 390.58 1.68 384.84
C 4.42 364.61 8.88 351.23 15.14 344.44
C 18.62 340.67 24.19 338.22 29.27 338.22
C 33.97 338.22 44.62 342.63 52.68 347.91
C 60.22 352.85 71.45 361.85 82.75 372.01
L 90.10 378.61
L 267.30 378.61
C 443.55 378.61 444.51 378.61 445.95 380.05
C 447.19 381.29 447.39 382.45 447.39 388.34
C 447.39 399.34 458.82 398.08 359.31 398.08
L 274.13 398.08
L 276.03 401.14
C 279.54 406.78 284.96 418.58 286.22 423.32
C 289.93 437.32 285.79 448.35 275.02 453.13
C 269.95 455.37 260.78 456.79 255.09 456.20
C 251.06 455.78 239.86 453.58 236.14 452.47
L 234.52 452.00
L 234.52 478.04
L 234.52 504.09
L 341.32 504.09
C 447.15 504.09 448.13 504.10 449.56 505.53
C 450.97 506.94 451.00 507.93 451.00 552.04
C 451.00 596.16 450.97 597.14 449.56 598.56
C 448.12 599.99 447.15 600.00 225.50 600.00
C 3.85 600.00 2.88 599.99 1.44 598.56
M 446.67 595.67
C 448.08 594.27 448.11 593.27 448.11 552.04
C 448.11 510.81 448.08 509.82 446.67 508.41
C 445.23 506.98 444.27 506.97 225.50 506.97
C 6.73 506.97 5.77 506.98 4.33 508.41
C 2.92 509.82 2.89 510.81 2.89 552.04
C 2.89 593.27 2.92 594.27 4.33 595.67
C 5.77 597.11 6.73 597.12 225.50 597.12
C 444.27 597.12 445.23 597.11 446.67 595.67
M 229.47 477.55
L 229.47 451.01
L 226.22 449.43
L 222.97 447.86
L 222.97 475.97
L 222.97 504.09
L 226.22 504.09
L 229.47 504.09
L 229.47 477.55
M 264.29 450.71
C 266.96 450.32 270.21 449.57 271.50 449.03
C 273.63 448.15 273.18 448.10 266.57 448.40
C 240.36 449.62 201.78 429.21 183.65 404.52
L 178.92 398.08
L 174.56 398.08
L 170.20 398.08
L 173.30 402.58
C 175.00 405.06 180.46 411.15 185.44 416.12
C 198.05 428.73 210.64 437.11 226.98 443.75
C 235.11 447.06 243.93 449.54 251.49 450.64
C 257.46 451.51 258.72 451.51 264.29 450.71
M 273.97 442.11
C 275.62 441.36 277.33 440.09 277.76 439.29
C 281.05 433.15 274.31 420.64 259.53 405.47
L 252.34 398.08
L 243.43 398.08
L 234.52 398.08
L 234.52 417.22
L 234.52 436.35
L 237.79 437.75
C 240.91 439.09 252.39 442.37 256.17 443.01
C 257.16 443.18 260.89 443.35 264.47 443.39
C 269.43 443.46 271.67 443.16 273.97 442.11
M 229.47 416.47
L 229.47 398.08
L 226.22 398.08
L 222.97 398.08
L 222.97 414.59
L 222.97 431.11
L 226.04 432.95
C 227.73 433.97 229.19 434.81 229.29 434.83
C 229.39 434.84 229.47 426.58 229.47 416.47
M 217.69 398.31
C 217.53 398.17 210.19 398.13 201.38 398.24
L 185.34 398.44
L 188.90 403.12
C 193.79 409.56 202.59 417.79 210.74 423.55
L 217.56 428.37
L 217.76 413.48
C 217.87 405.29 217.83 398.47 217.69 398.31
M 280.35 421.35
C 278.50 416.39 272.32 404.46 269.84 401.02
C 267.78 398.19 267.56 398.08 263.67 398.08
L 259.62 398.08
L 265.03 403.82
C 271.18 410.34 276.40 417.06 279.17 422.00
C 281.52 426.18 282.04 425.89 280.35 421.35
M 53.25 417.13
C 56.31 416.50 61.25 414.94 64.22 413.65
C 70.62 410.88 81.44 404.29 85.51 400.69
L 88.40 398.13
L 81.29 398.11
L 74.19 398.08
L 71.01 400.88
C 64.36 406.72 52.27 411.56 46.18 410.81
C 38.81 409.90 29.85 405.49 23.73 399.76
C 22.08 398.21 21.30 398.03 17.28 398.22
L 12.71 398.44
L 15.19 401.27
C 18.89 405.48 27.49 412.09 32.15 414.30
C 35.90 416.06 43.19 418.07 46.39 418.21
C 47.11 418.24 50.19 417.76 53.25 417.13
M 58.80 403.90
C 61.98 402.30 65.39 400.34 66.39 399.55
L 68.19 398.11
L 48.48 398.09
C 36.96 398.08 28.94 398.34 29.18 398.73
C 29.41 399.09 31.45 400.62 33.73 402.14
C 43.07 408.35 49.10 408.76 58.80 403.90
M 440.75 392.16
C 441.87 391.05 441.87 385.64 440.75 384.52
C 440.08 383.85 391.49 383.65 226.44 383.65
C 13.95 383.65 12.98 383.66 11.55 385.10
C 10.75 385.89 10.10 387.35 10.10 388.34
C 10.10 389.34 10.75 390.79 11.55 391.59
C 12.98 393.02 13.95 393.03 226.44 393.03
C 391.49 393.03 440.08 392.83 440.75 392.16
M 15.50 371.94
C 18.28 357.09 20.47 352.72 26.49 349.95
L 30.47 348.14
L 34.84 349.46
C 42.28 351.71 47.06 355.23 64.58 371.31
L 72.52 378.60
L 77.93 378.58
L 83.34 378.56
L 78.29 373.70
C 59.96 356.09 38.09 341.89 29.22 341.87
C 19.97 341.84 12.48 351.43 8.30 368.64
C 5.80 378.95 5.73 378.61 10.38 378.61
L 14.25 378.61
L 15.50 371.94
M 59.89 372.68
C 41.98 355.53 33.54 350.56 27.57 353.65
C 23.81 355.59 20.36 362.86 19.14 371.39
C 18.89 373.18 18.52 375.53 18.31 376.62
L 17.92 378.61
L 41.98 378.58
L 66.03 378.55
L 59.89 372.68"/>
<path fill="#000000" stroke="none" d="
M 337.71 369.63
C 329.82 367.94 325.07 366.55 321.80 364.97
C 320.08 364.14 318.36 363.46 317.98 363.46
C 317.59 363.46 316.21 362.65 314.91 361.66
C 313.61 360.66 312.32 359.86 312.03 359.86
C 311.00 359.86 303.38 353.79 299.40 349.82
C 295.43 345.85 289.36 338.23 289.36 337.20
C 289.36 336.92 288.55 335.62 287.56 334.32
C 286.56 333.02 285.75 331.64 285.75 331.25
C 285.75 330.87 285.05 329.12 284.20 327.36
C 281.13 320.99 279.11 311.11 278.73 300.53
C 278.40 291.46 278.54 289.85 280.38 282.14
C 281.48 277.49 283.14 272.08 284.07 270.12
C 285.00 268.16 285.75 266.24 285.75 265.86
C 285.75 265.47 286.56 264.09 287.56 262.80
C 288.55 261.50 289.36 260.20 289.36 259.91
C 289.36 258.89 295.43 251.26 299.40 247.29
C 303.38 243.32 311.00 237.26 312.03 237.26
C 312.32 237.26 313.61 236.45 314.91 235.46
C 316.21 234.46 317.59 233.65 317.98 233.65
C 318.36 233.65 320.12 232.95 321.88 232.10
C 323.64 231.25 328.16 229.74 331.94 228.74
C 337.95 227.13 340.25 226.91 350.70 226.91
C 361.15 226.91 363.45 227.13 369.46 228.74
C 373.23 229.74 377.76 231.25 379.52 232.10
C 381.28 232.95 383.03 233.65 383.41 233.65
C 383.80 233.65 385.18 234.46 386.48 235.46
C 387.78 236.45 389.08 237.26 389.37 237.26
C 390.39 237.26 398.02 243.32 402.00 247.29
C 405.96 251.26 412.03 258.89 412.03 259.91
C 412.03 260.20 412.84 261.50 413.84 262.80
C 414.83 264.09 415.64 265.47 415.64 265.86
C 415.64 266.24 416.34 268.00 417.19 269.75
C 418.04 271.51 419.56 276.04 420.56 279.81
C 422.15 285.83 422.37 288.10 422.36 298.56
C 422.35 308.90 422.11 311.35 420.54 317.31
C 419.55 321.08 418.04 325.60 417.19 327.36
C 416.34 329.12 415.64 330.87 415.64 331.25
C 415.64 331.64 414.83 333.02 413.84 334.32
C 412.84 335.62 412.03 336.92 412.03 337.20
C 412.03 338.23 405.96 345.85 402.00 349.82
C 398.02 353.79 390.39 359.86 389.37 359.86
C 389.08 359.86 387.81 360.61 386.55 361.53
C 383.44 363.79 376.17 366.64 368.74 368.51
C 360.77 370.51 344.53 371.10 337.71 369.63
M 364.41 363.22
C 370.71 361.63 374.51 360.22 380.88 357.07
C 382.21 356.42 383.47 355.62 383.67 355.28
C 383.88 354.95 376.39 347.00 367.03 337.62
L 350.00 320.55
L 333.08 337.44
C 316.28 354.22 316.18 354.33 317.74 355.56
C 320.04 357.37 328.80 361.26 333.38 362.50
C 346.37 366.03 352.66 366.17 364.41 363.22
M 349.98 312.98
C 350.58 312.98 359.67 321.58 370.18 332.09
C 380.69 342.60 389.48 351.20 389.71 351.20
C 390.51 351.20 398.94 343.25 401.27 340.30
L 403.60 337.37
L 384.36 318.14
C 373.78 307.56 365.13 298.43 365.13 297.84
C 365.13 297.25 373.77 288.13 384.32 277.57
L 403.52 258.38
L 397.36 252.14
C 393.98 248.72 390.78 245.91 390.25 245.91
C 389.72 245.91 380.85 254.35 370.54 264.66
C 360.23 274.98 351.30 283.41 350.70 283.41
C 350.10 283.41 341.03 274.83 330.54 264.35
C 314.36 248.17 311.27 245.39 310.16 245.99
C 308.45 246.89 299.00 256.33 298.09 258.04
C 297.49 259.15 300.28 262.24 316.46 278.41
C 326.96 288.89 335.54 297.96 335.54 298.56
C 335.54 299.16 327.10 308.08 316.78 318.39
C 306.46 328.69 298.02 337.56 298.02 338.08
C 298.02 338.61 300.83 341.81 304.26 345.19
L 310.50 351.35
L 329.70 332.16
C 340.26 321.61 349.39 312.98 349.98 312.98
M 311.02 281.62
C 291.73 262.33 293.49 263.10 289.52 272.24
C 284.79 283.15 283.94 287.15 284.01 298.56
C 284.06 307.33 284.32 309.74 285.63 313.50
C 286.49 315.97 287.20 318.31 287.20 318.71
C 287.20 319.73 292.18 330.27 293.21 331.42
C 293.88 332.18 297.50 328.93 311.00 315.46
L 327.96 298.56
L 311.02 281.62
M 410.94 325.02
C 419.27 306.89 419.33 289.62 411.12 271.86
C 406.90 262.73 408.53 262.04 389.44 281.12
L 372.71 297.83
L 389.60 314.72
C 398.89 324.00 406.87 331.45 407.35 331.27
C 407.83 331.08 409.44 328.28 410.94 325.02
M 367.77 258.78
C 381.10 245.47 384.31 241.90 383.60 241.18
C 382.48 240.07 373.48 235.82 370.54 235.00
C 369.35 234.68 365.94 233.73 362.96 232.90
C 358.43 231.63 356.10 231.45 348.53 231.69
C 338.89 232.01 334.36 233.09 324.36 237.44
C 315.21 241.41 314.41 239.56 333.52 258.68
C 342.76 267.92 350.49 275.48 350.68 275.48
C 350.89 275.48 358.57 267.97 367.77 258.78"/>
<path fill="#000000" stroke="none" d="
M 78.65 341.11
C 74.99 337.44 79.12 319.20 86.97 304.46
C 99.20 281.50 115.49 266.21 135.54 258.89
C 146.11 255.04 154.83 253.62 168.13 253.58
C 180.65 253.54 184.51 254.08 194.71 257.24
C 216.93 264.12 238.45 282.68 248.92 303.97
C 252.50 311.24 253.21 313.44 256.52 327.58
C 258.72 336.94 258.77 339.22 256.89 341.11
C 255.46 342.53 254.49 342.55 167.77 342.55
C 81.06 342.55 80.08 342.53 78.65 341.11
M 250.68 331.73
C 250.48 321.93 244.13 306.01 236.14 295.26
C 230.88 288.20 219.94 277.72 213.02 273.09
C 192.94 259.68 170.38 255.97 146.20 262.10
C 123.32 267.90 103.86 285.05 90.94 310.79
C 85.63 321.36 82.59 332.76 84.47 335.03
C 85.21 335.92 96.73 336.04 168.05 335.88
L 250.76 335.70
L 250.68 331.73"/>
<path fill="#000000" stroke="none" d="
M 42.21 336.87
C 38.94 336.00 34.46 333.52 32.75 331.62
C 29.09 327.58 27.28 323.54 24.09 312.25
C 21.12 301.73 19.84 298.62 13.01 285.22
C 4.32 268.16 3.25 264.66 3.75 254.79
C 4.46 240.73 12.29 232.90 25.57 232.95
C 30.76 232.97 35.16 233.87 39.94 235.88
C 41.86 236.70 43.51 237.26 43.59 237.13
C 43.68 237.00 40.91 188.39 37.43 129.09
C 33.96 69.79 31.09 20.70 31.07 20.01
C 31.04 18.87 30.02 18.75 20.20 18.75
C 6.48 18.75 6.49 18.76 6.49 9.51
C 6.49 -0.61 2.24 0.40 46.10 0.16
C 90.62 -0.07 86.59 -0.99 86.59 9.38
C 86.59 18.78 86.64 18.75 72.88 18.75
C 63.07 18.75 62.05 18.87 62.01 20.01
C 61.99 20.70 59.13 69.79 55.66 129.09
C 52.18 188.39 49.41 237.00 49.49 237.13
C 49.58 237.26 51.23 236.70 53.15 235.88
C 57.93 233.87 62.32 232.97 67.52 232.95
C 80.80 232.90 88.63 240.73 89.33 254.79
C 89.84 264.66 88.77 268.16 80.08 285.22
C 73.25 298.60 71.97 301.74 69.01 312.20
C 64.79 327.13 61.76 332.12 54.78 335.73
C 52.29 337.02 45.21 337.66 42.21 336.87
M 44.01 287.92
L 44.00 244.11
L 37.70 241.49
C 29.73 238.18 26.10 237.56 21.76 238.77
C 16.86 240.14 11.53 245.68 9.80 251.22
C 7.37 258.97 9.19 265.48 18.47 282.33
C 24.16 292.65 25.76 296.65 29.20 309.01
C 32.10 319.46 33.69 323.02 37.05 326.59
C 38.90 328.57 43.07 331.72 43.84 331.73
C 43.94 331.73 44.02 312.01 44.01 287.92
M 55.68 326.92
C 59.39 323.04 60.90 319.75 63.88 309.01
C 67.33 296.65 68.93 292.65 74.61 282.33
C 83.90 265.48 85.71 258.97 83.29 251.22
C 81.56 245.68 76.23 240.14 71.32 238.77
C 66.99 237.56 63.36 238.18 55.39 241.49
L 49.08 244.11
L 49.08 287.94
L 49.07 331.77
L 51.05 330.73
C 52.14 330.15 54.23 328.44 55.68 326.92
M 51.59 107.09
C 54.15 62.27 56.36 24.06 56.52 22.18
L 56.80 18.75
L 46.46 18.75
L 36.12 18.75
L 36.43 20.73
C 36.61 21.82 38.95 61.50 41.64 108.89
C 44.34 156.29 46.64 193.62 46.75 191.83
C 46.85 190.04 49.04 151.91 51.59 107.09
M 80.67 12.84
C 81.79 11.72 81.79 7.03 80.67 5.91
C 79.43 4.67 13.66 4.67 12.41 5.91
C 11.29 7.03 11.29 11.72 12.41 12.84
C 13.66 14.08 79.43 14.08 80.67 12.84"/>
<path fill="#000000" stroke="none" d="
M 208.54 232.15
C 198.71 231.32 187.45 229.54 171.80 226.36
C 159.03 223.76 127.88 211.30 121.32 206.16
C 120.36 205.41 119.14 204.81 118.58 204.81
C 117.41 204.81 115.98 203.96 107.40 198.19
C 103.95 195.88 100.95 193.99 100.72 193.99
C 100.08 193.99 90.79 187.25 88.46 185.10
C 87.31 184.04 86.01 183.17 85.57 183.17
C 84.58 183.17 79.70 178.60 74.14 172.45
C 61.52 158.52 60.74 140.11 72.48 133.65
C 75.62 131.92 76.93 131.65 81.90 131.65
C 88.04 131.67 94.26 133.29 97.33 135.69
C 98.28 136.42 99.35 137.02 99.71 137.02
C 100.54 137.02 110.04 143.44 112.93 145.95
C 114.12 146.99 115.45 147.84 115.88 147.84
C 116.31 147.84 120.37 150.30 124.90 153.31
C 129.43 156.32 133.78 159.05 134.58 159.37
C 135.37 159.69 139.92 162.25 144.68 165.07
C 149.44 167.88 153.71 170.19 154.16 170.19
C 154.60 170.19 157.38 171.30 160.33 172.64
C 167.17 175.75 180.10 179.89 186.17 180.90
C 202.59 183.65 238.98 184.51 256.53 182.58
C 270.22 181.07 284.97 176.04 287.64 171.97
C 288.74 170.29 288.74 169.95 287.63 167.11
C 286.17 163.40 284.66 161.60 281.50 159.82
C 279.19 158.52 278.78 158.52 271.42 159.65
C 238.89 164.62 206.62 163.93 192.23 157.95
C 189.27 156.71 184.46 154.26 181.54 152.49
C 178.63 150.72 175.96 149.28 175.62 149.28
C 174.63 149.28 170.36 142.65 169.57 139.89
C 167.43 132.43 171.19 124.82 178.15 122.51
C 181.92 121.26 191.73 122.05 195.29 123.89
C 200.66 126.66 212.18 128.69 222.61 128.70
C 232.38 128.73 240.55 127.71 260.86 123.96
C 281.86 120.08 298.21 119.86 311.01 123.29
C 313.98 124.08 317.88 125.11 319.67 125.57
C 325.45 127.05 332.16 129.85 338.60 133.48
C 342.07 135.43 345.08 137.02 345.31 137.02
C 345.52 137.02 346.59 137.86 347.66 138.87
C 348.73 139.90 351.66 142.20 354.15 144.01
L 358.69 147.28
L 370.03 146.47
C 387.15 145.25 402.67 145.40 404.66 146.80
L 406.26 147.92
L 406.26 177.64
C 406.26 212.81 406.77 210.58 398.82 210.56
C 395.97 210.56 389.74 209.73 384.97 208.73
C 372.24 206.07 365.04 204.81 362.60 204.82
C 360.27 204.83 351.16 207.79 337.35 213.04
C 332.59 214.85 328.31 216.33 327.84 216.34
C 327.37 216.34 322.98 217.67 318.10 219.29
C 306.69 223.06 293.98 226.32 287.56 227.13
C 284.78 227.48 279.75 228.25 276.37 228.84
C 255.16 232.56 228.67 233.86 208.54 232.15
M 256.60 225.79
C 268.49 224.91 283.56 222.23 297.30 218.56
C 300.27 217.77 304.83 216.58 307.40 215.93
C 311.95 214.77 319.13 212.39 336.27 206.38
C 353.85 200.21 356.77 199.56 365.13 199.94
C 369.29 200.13 376.12 200.96 380.28 201.78
C 390.93 203.88 398.91 204.98 399.76 204.45
C 400.23 204.17 400.49 194.75 400.49 178.17
C 400.49 155.91 400.34 152.21 399.39 151.43
C 398.29 150.51 386.55 150.67 364.40 151.89
C 356.74 152.31 355.78 152.21 352.13 150.68
C 349.95 149.76 346.37 147.36 344.16 145.34
C 341.96 143.33 338.06 140.67 335.50 139.42
C 318.20 131.01 311.08 128.65 298.92 127.29
C 287.62 126.02 273.72 127.16 255.45 130.84
C 239.09 134.13 229.20 135.14 217.99 134.67
C 207.85 134.23 200.61 132.79 193.06 129.72
C 186.77 127.15 180.82 126.90 178.06 129.06
C 175.48 131.10 174.47 135.61 175.83 139.03
C 177.10 142.19 181.41 145.15 192.31 150.32
C 203.01 155.41 210.89 157.23 224.42 157.72
C 236.92 158.17 248.09 157.31 264.11 154.64
C 280.70 151.87 285.11 152.32 289.70 157.28
C 292.81 160.64 293.68 163.51 293.60 170.19
C 293.53 176.99 292.99 178.24 289.38 180.24
C 283.81 183.31 266.54 187.52 253.85 188.90
C 244.93 189.87 213.52 189.89 203.13 188.93
C 189.59 187.68 175.02 184.92 164.52 181.62
C 159.46 180.02 134.35 168.04 132.70 166.44
C 131.04 164.83 124.17 160.82 123.06 160.82
C 122.50 160.82 121.85 160.51 121.62 160.14
C 121.14 159.37 107.40 150.13 104.56 148.67
C 103.53 148.15 101.76 146.91 100.62 145.94
C 99.49 144.96 96.84 143.18 94.74 141.98
C 92.64 140.78 90.92 139.54 90.92 139.23
C 90.92 138.93 88.82 138.32 86.25 137.90
C 79.17 136.73 73.95 138.38 71.34 142.59
C 70.09 144.61 69.89 145.91 70.10 150.63
C 70.33 155.68 70.62 156.66 72.96 160.16
C 74.39 162.30 77.15 165.72 79.09 167.75
C 83.47 172.33 94.41 181.73 95.37 181.73
C 96.10 181.73 100.83 185.08 102.11 186.50
C 103.11 187.61 109.21 191.66 111.25 192.57
C 112.17 192.98 115.20 194.76 117.98 196.53
C 127.67 202.70 147.75 211.98 160.20 216.06
C 170.99 219.58 184.79 223.28 192.31 224.65
C 204.59 226.90 234.58 227.43 256.60 225.79"/>
<path fill="#000000" stroke="none" d="
M 150.63 91.37
C 149.54 90.94 148.65 90.35 148.65 90.06
C 148.65 89.78 147.68 89.32 146.48 89.06
C 145.29 88.80 144.32 88.29 144.32 87.92
C 144.32 87.56 143.82 87.26 143.22 87.26
C 142.61 87.26 141.93 86.79 141.72 86.22
C 141.49 85.65 140.37 84.97 139.21 84.72
C 138.05 84.47 137.10 83.99 137.10 83.65
C 137.10 83.31 135.97 82.67 134.58 82.21
C 133.19 81.75 132.05 81.09 132.05 80.73
C 132.05 80.37 131.24 79.88 130.25 79.62
C 129.25 79.38 128.44 78.87 128.44 78.50
C 128.44 78.14 127.87 77.62 127.18 77.36
C 126.49 77.09 125.59 76.61 125.20 76.28
C 124.80 75.96 123.50 74.89 122.31 73.90
C 121.12 72.92 119.89 72.12 119.58 72.12
C 118.95 72.12 117.90 71.31 114.67 68.33
C 113.49 67.24 112.26 66.35 111.93 66.35
C 110.18 66.35 97.60 54.01 97.03 51.73
C 96.76 50.65 96.28 49.76 95.95 49.76
C 95.63 49.76 95.15 48.79 94.89 47.60
C 94.63 46.41 94.17 45.43 93.87 45.43
C 93.22 45.43 91.64 40.49 91.65 38.50
C 91.66 35.42 93.34 31.46 95.79 28.75
C 99.00 25.19 101.61 23.80 105.05 23.80
C 108.10 23.80 113.29 25.20 113.29 26.02
C 113.29 26.32 114.24 26.78 115.40 27.03
C 116.55 27.28 117.68 27.96 117.90 28.53
C 118.12 29.10 118.65 29.57 119.07 29.57
C 119.50 29.57 120.24 29.90 120.72 30.30
C 124.53 33.52 126.00 34.62 126.50 34.62
C 126.83 34.62 127.97 35.42 129.03 36.40
C 130.10 37.37 132.04 39.16 133.34 40.36
C 134.64 41.57 136.00 42.55 136.35 42.55
C 136.69 42.55 137.74 43.20 138.67 43.99
C 142.97 47.67 143.88 48.32 144.72 48.32
C 145.21 48.32 145.80 48.80 146.02 49.40
C 146.25 50.00 146.94 50.48 147.55 50.48
C 148.15 50.48 148.65 50.73 148.65 51.04
C 148.65 51.36 150.68 52.56 153.16 53.73
C 155.64 54.89 157.83 56.01 158.03 56.22
C 158.23 56.44 159.69 57.26 161.28 58.05
C 164.12 59.47 165.98 59.50 284.91 59.86
C 403.39 60.21 405.68 60.25 406.68 61.62
C 407.47 62.70 407.70 65.96 407.70 76.22
C 407.70 88.46 407.60 89.53 406.26 90.87
C 404.82 92.30 403.91 92.31 278.72 92.23
C 189.82 92.18 152.03 91.93 150.63 91.37
M 401.07 84.95
C 402.26 83.76 402.26 68.40 401.07 67.21
C 400.40 66.55 373.06 66.35 282.41 66.35
L 164.60 66.35
L 159.34 64.41
C 156.44 63.35 153.90 62.26 153.70 62.01
C 153.40 61.61 150.31 59.69 141.79 54.59
C 141.00 54.12 140.09 53.32 139.77 52.82
C 139.46 52.33 138.72 51.92 138.14 51.92
C 137.57 51.92 136.53 51.27 135.86 50.48
C 135.18 49.69 134.28 49.02 133.88 49.01
C 133.47 48.99 132.34 48.01 131.37 46.85
C 130.39 45.67 129.17 44.71 128.66 44.71
C 128.14 44.71 127.72 44.44 127.72 44.11
C 127.72 43.78 126.84 43.05 125.75 42.49
C 124.66 41.93 123.08 40.74 122.23 39.84
C 121.39 38.95 120.33 38.22 119.86 38.22
C 119.40 38.22 118.83 37.73 118.60 37.14
C 118.38 36.54 117.73 36.06 117.16 36.06
C 116.60 36.06 115.95 35.57 115.72 34.98
C 115.49 34.39 114.04 33.53 112.50 33.06
C 110.95 32.60 109.68 31.97 109.68 31.65
C 109.68 30.65 105.06 30.16 103.00 30.94
C 99.98 32.09 96.16 39.14 97.94 40.28
C 98.34 40.54 98.90 41.47 99.17 42.37
C 99.45 43.26 99.96 43.99 100.30 43.99
C 100.63 43.99 101.13 44.96 101.38 46.15
C 101.64 47.34 102.16 48.32 102.52 48.32
C 102.89 48.32 103.19 48.76 103.19 49.29
C 103.19 50.36 109.32 56.97 110.31 56.97
C 110.84 56.97 113.59 59.26 117.68 63.11
C 118.31 63.70 119.14 64.18 119.52 64.18
C 120.33 64.18 123.06 66.17 124.72 67.97
C 125.36 68.66 126.29 69.23 126.80 69.23
C 127.31 69.23 127.72 69.55 127.72 69.94
C 127.72 70.33 128.53 70.85 129.53 71.10
C 130.52 71.34 131.33 71.85 131.33 72.21
C 131.33 72.58 132.14 73.18 133.14 73.56
C 134.13 73.93 134.94 74.54 134.94 74.91
C 134.94 75.27 135.75 75.77 136.74 76.02
C 137.74 76.27 138.55 76.79 138.55 77.18
C 138.55 77.57 138.99 77.88 139.52 77.88
C 140.06 77.88 141.24 78.53 142.16 79.33
C 143.07 80.12 144.26 80.77 144.79 80.77
C 145.32 80.77 145.76 81.04 145.76 81.38
C 145.76 81.71 147.06 82.37 148.65 82.85
C 150.24 83.32 151.54 84.00 151.54 84.35
C 151.54 84.71 152.26 85.14 153.16 85.31
C 154.05 85.48 210.00 85.67 277.49 85.72
C 372.08 85.80 400.40 85.62 401.07 84.95"/>
<path fill="#000000" stroke="none" d="
M 5.05 572.96
L 5.05 555.29
L 22.73 555.29
L 40.41 555.29
L 40.41 572.96
L 40.41 590.62
L 22.73 590.62
L 5.05 590.62
L 5.05 572.96
M 37.52 572.96
L 37.52 558.17
L 22.73 558.17
L 7.94 558.17
L 7.94 572.96
L 7.94 587.74
L 22.73 587.74
L 37.52 587.74
L 37.52 572.96"/>
<path fill="#000000" stroke="none" d="
M 46.90 572.96
L 46.90 555.29
L 66.03 555.29
L 85.15 555.29
L 85.15 572.96
L 85.15 590.62
L 66.03 590.62
L 46.90 590.62
L 46.90 572.96
M 82.26 572.96
L 82.26 558.17
L 66.03 558.17
L 49.79 558.17
L 49.79 572.96
L 49.79 587.74
L 66.03 587.74
L 82.26 587.74
L 82.26 572.96"/>
<path fill="#000000" stroke="none" d="
M 91.64 572.96
L 91.64 555.29
L 111.49 555.29
L 131.33 555.29
L 131.33 572.96
L 131.33 590.62
L 111.49 590.62
L 91.64 590.62
L 91.64 572.96
M 128.44 572.96
L 128.44 558.17
L 111.49 558.17
L 94.53 558.17
L 94.53 572.96
L 94.53 587.74
L 111.49 587.74
L 128.44 587.74
L 128.44 572.96"/>
<path fill="#000000" stroke="none" d="
M 137.83 572.96
L 137.83 555.29
L 157.31 555.29
L 176.79 555.29
L 176.79 572.96
L 176.79 590.62
L 157.31 590.62
L 137.83 590.62
L 137.83 572.96
M 173.91 572.96
L 173.91 558.17
L 157.31 558.17
L 140.71 558.17
L 140.71 572.96
L 140.71 587.74
L 157.31 587.74
L 173.91 587.74
L 173.91 572.96"/>
<path fill="#000000" stroke="none" d="
M 183.29 572.96
L 183.29 555.29
L 203.13 555.29
L 222.97 555.29
L 222.97 572.96
L 222.97 590.62
L 203.13 590.62
L 183.29 590.62
L 183.29 572.96
M 220.09 572.96
L 220.09 558.17
L 203.13 558.17
L 186.17 558.17
L 186.17 572.96
L 186.17 587.74
L 203.13 587.74
L 220.09 587.74
L 220.09 572.96"/>
<path fill="#000000" stroke="none" d="
M 229.47 572.96
L 229.47 555.29
L 248.59 555.29
L 267.71 555.29
L 267.71 572.96
L 267.71 590.62
L 248.59 590.62
L 229.47 590.62
L 229.47 572.96
M 264.83 572.96
L 264.83 558.17
L 248.59 558.17
L 232.36 558.17
L 232.36 572.96
L 232.36 587.74
L 248.59 587.74
L 264.83 587.74
L 264.83 572.96"/>
<path fill="#000000" stroke="none" d="
M 274.21 572.96
L 274.21 555.29
L 293.69 555.29
L 313.17 555.29
L 313.17 572.96
L 313.17 590.62
L 293.69 590.62
L 274.21 590.62
L 274.21 572.96
M 310.29 572.96
L 310.29 558.17
L 293.69 558.17
L 277.09 558.17
L 277.09 572.96
L 277.09 587.74
L 293.69 587.74
L 310.29 587.74
L 310.29 572.96"/>
<path fill="#000000" stroke="none" d="
M 319.67 572.96
L 319.67 555.29
L 339.51 555.29
L 359.36 555.29
L 359.36 572.96
L 359.36 590.62
L 339.51 590.62
L 319.67 590.62
L 319.67 572.96
M 356.47 572.96
L 356.47 558.17
L 339.51 558.17
L 322.56 558.17
L 322.56 572.96
L 322.56 587.74
L 339.51 587.74
L 356.47 587.74
L 356.47 572.96"/>
<path fill="#000000" stroke="none" d="
M 365.85 572.96
L 365.85 555.29
L 384.97 555.29
L 404.10 555.29
L 404.10 572.96
L 404.10 590.62
L 384.97 590.62
L 365.85 590.62
L 365.85 572.96
M 401.21 572.96
L 401.21 558.17
L 384.97 558.17
L 368.74 558.17
L 368.74 572.96
L 368.74 587.74
L 384.97 587.74
L 401.21 587.74
L 401.21 572.96"/>
<path fill="#000000" stroke="none" d="
M 410.59 572.96
L 410.59 555.29
L 428.27 555.29
L 445.95 555.29
L 445.95 572.96
L 445.95 590.62
L 428.27 590.62
L 410.59 590.62
L 410.59 572.96
M 443.06 572.96
L 443.06 558.17
L 428.27 558.17
L 413.48 558.17
L 413.48 572.96
L 413.48 587.74
L 428.27 587.74
L 443.06 587.74
L 443.06 572.96"/>
<path fill="#000000" stroke="none" d="
M 5.05 531.13
L 5.05 513.46
L 22.73 513.46
L 40.41 513.46
L 40.41 531.13
L 40.41 548.80
L 22.73 548.80
L 5.05 548.80
L 5.05 531.13
M 37.52 531.13
L 37.52 516.35
L 22.73 516.35
L 7.94 516.35
L 7.94 531.13
L 7.94 545.91
L 22.73 545.91
L 37.52 545.91
L 37.52 531.13"/>
<path fill="#000000" stroke="none" d="
M 46.90 531.13
L 46.90 513.46
L 66.03 513.46
L 85.15 513.46
L 85.15 531.13
L 85.15 548.80
L 66.03 548.80
L 46.90 548.80
L 46.90 531.13
M 82.26 531.13
L 82.26 516.35
L 66.03 516.35
L 49.79 516.35
L 49.79 531.13
L 49.79 545.91
L 66.03 545.91
L 82.26 545.91
L 82.26 531.13"/>
<path fill="#000000" stroke="none" d="
M 91.64 531.13
L 91.64 513.46
L 111.49 513.46
L 131.33 513.46
L 131.33 531.13
L 131.33 548.80
L 111.49 548.80
L 91.64 548.80
L 91.64 531.13
M 128.44 531.13
L 128.44 516.35
L 111.49 516.35
L 94.53 516.35
L 94.53 531.13
L 94.53 545.91
L 111.49 545.91
L 128.44 545.91
L 128.44 531.13"/>
<path fill="#000000" stroke="none" d="
M 137.83 531.13
L 137.83 513.46
L 157.31 513.46
L 176.79 513.46
L 176.79 531.13
L 176.79 548.80
L 157.31 548.80
L 137.83 548.80
L 137.83 531.13
M 173.91 531.13
L 173.91 516.35
L 157.31 516.35
L 140.71 516.35
L 140.71 531.13
L 140.71 545.91
L 157.31 545.91
L 173.91 545.91
L 173.91 531.13"/>
<path fill="#000000" stroke="none" d="
M 183.29 531.13
L 183.29 513.46
L 203.13 513.46
L 222.97 513.46
L 222.97 531.13
L 222.97 548.80
L 203.13 548.80
L 183.29 548.80
L 183.29 531.13
M 220.09 531.13
L 220.09 516.35
L 203.13 516.35
L 186.17 516.35
L 186.17 531.13
L 186.17 545.91
L 203.13 545.91
L 220.09 545.91
L 220.09 531.13"/>
<path fill="#000000" stroke="none" d="
M 229.47 531.13
L 229.47 513.46
L 248.59 513.46
L 267.71 513.46
L 267.71 531.13
L 267.71 548.80
L 248.59 548.80
L 229.47 548.80
L 229.47 531.13
M 264.83 531.13
L 264.83 516.35
L 248.59 516.35
L 232.36 516.35
L 232.36 531.13
L 232.36 545.91
L 248.59 545.91
L 264.83 545.91
L 264.83 531.13"/>
<path fill="#000000" stroke="none" d="
M 274.21 531.13
L 274.21 513.46
L 293.69 513.46
L 313.17 513.46
L 313.17 531.13
L 313.17 548.80
L 293.69 548.80
L 274.21 548.80
L 274.21 531.13
M 310.29 531.13
L 310.29 516.35
L 293.69 516.35
L 277.09 516.35
L 277.09 531.13
L 277.09 545.91
L 293.69 545.91
L 310.29 545.91
L 310.29 531.13"/>
<path fill="#000000" stroke="none" d="
M 319.67 531.13
L 319.67 513.46
L 339.51 513.46
L 359.36 513.46
L 359.36 531.13
L 359.36 548.80
L 339.51 548.80
L 319.67 548.80
L 319.67 531.13
M 356.47 531.13
L 356.47 516.35
L 339.51 516.35
L 322.56 516.35
L 322.56 531.13
L 322.56 545.91
L 339.51 545.91
L 356.47 545.91
L 356.47 531.13"/>
<path fill="#000000" stroke="none" d="
M 365.85 531.13
L 365.85 513.46
L 384.97 513.46
L 404.10 513.46
L 404.10 531.13
L 404.10 548.80
L 384.97 548.80
L 365.85 548.80
L 365.85 531.13
M 401.21 531.13
L 401.21 516.35
L 384.97 516.35
L 368.74 516.35
L 368.74 531.13
L 368.74 545.91
L 384.97 545.91
L 401.21 545.91
L 401.21 531.13"/>
<path fill="#000000" stroke="none" d="
M 410.59 531.13
L 410.59 513.46
L 428.27 513.46
L 445.95 513.46
L 445.95 531.13
L 445.95 548.80
L 428.27 548.80
L 410.59 548.80
L 410.59 531.13
M 443.06 531.13
L 443.06 516.35
L 428.27 516.35
L 413.48 516.35
L 413.48 531.13
L 413.48 545.91
L 428.27 545.91
L 443.06 545.91
L 443.06 531.13"/>
<path fill="#d04d4d" stroke="none" d="
M 41.49 330.38
C 38.46 328.49 35.03 324.67 33.29 321.27
C 32.47 319.69 30.63 314.17 29.20 309.01
C 25.76 296.65 24.16 292.65 18.47 282.33
C 9.19 265.48 7.37 258.97 9.80 251.22
C 11.53 245.68 16.86 240.14 21.76 238.77
C 26.10 237.56 29.73 238.18 37.70 241.49
L 44.00 244.11
L 44.01 287.92
C 44.02 312.01 43.94 331.73 43.84 331.73
C 43.74 331.72 42.68 331.12 41.49 330.38"/>
<path fill="#d04d4d" stroke="none" d="
M 49.08 287.94
L 49.08 244.11
L 55.39 241.49
C 63.36 238.18 66.99 237.56 71.32 238.77
C 76.23 240.14 81.56 245.68 83.29 251.22
C 85.71 258.97 83.90 265.48 74.61 282.33
C 68.93 292.65 67.33 296.65 63.88 309.01
C 62.45 314.17 60.61 319.69 59.81 321.27
C 58.05 324.71 53.82 329.28 51.05 330.73
L 49.07 331.77
L 49.08 287.94"/>
<path fill="#d04d4d" stroke="none" d="
M 41.64 108.89
C 38.95 61.50 36.61 21.82 36.43 20.73
L 36.12 18.75
L 46.46 18.75
L 56.80 18.75
L 56.52 22.18
C 56.36 24.06 54.15 62.27 51.59 107.09
C 49.04 151.91 46.85 190.04 46.75 191.83
C 46.64 193.62 44.34 156.29 41.64 108.89"/>
<path fill="#d04d4d" stroke="none" d="
M 12.41 12.84
C 10.98 11.40 11.33 6.66 12.94 5.80
C 15.06 4.67 79.53 4.77 80.67 5.91
C 81.79 7.03 81.79 11.72 80.67 12.84
C 79.43 14.08 13.66 14.08 12.41 12.84"/>
<path fill="#c55436" stroke="none" d="
M 222.97 475.97
L 222.97 447.86
L 226.22 449.43
L 229.47 451.01
L 229.47 477.55
L 229.47 504.09
L 226.22 504.09
L 222.97 504.09
L 222.97 475.97"/>
<path fill="#c55436" stroke="none" d="
M 226.04 432.95
L 222.97 431.11
L 222.97 414.59
L 222.97 398.08
L 226.22 398.08
L 229.47 398.08
L 229.47 416.47
C 229.47 426.58 229.39 434.84 229.29 434.83
C 229.19 434.81 227.73 433.97 226.04 432.95"/>
<path fill="#c55436" stroke="none" d="
M 11.55 391.59
C 10.75 390.79 10.10 389.34 10.10 388.34
C 10.10 387.35 10.75 385.89 11.55 385.10
C 12.98 383.66 13.95 383.65 226.44 383.65
C 391.49 383.65 440.08 383.85 440.75 384.52
C 441.87 385.64 441.87 391.05 440.75 392.16
C 440.08 392.83 391.49 393.03 226.44 393.03
C 13.95 393.03 12.98 393.02 11.55 391.59"/>
<path fill="#c55436" stroke="none" d="
M 153.16 85.31
C 152.26 85.14 151.54 84.71 151.54 84.35
C 151.54 84.00 150.24 83.32 148.65 82.85
C 147.06 82.37 145.76 81.71 145.76 81.38
C 145.76 81.04 145.32 80.77 144.79 80.77
C 144.26 80.77 143.07 80.12 142.16 79.33
C 141.24 78.53 140.06 77.88 139.52 77.88
C 138.99 77.88 138.55 77.57 138.55 77.18
C 138.55 76.79 137.74 76.27 136.74 76.02
C 135.75 75.77 134.94 75.27 134.94 74.91
C 134.94 74.54 134.13 73.93 133.14 73.56
C 132.14 73.18 131.33 72.58 131.33 72.21
C 131.33 71.85 130.52 71.34 129.53 71.10
C 128.53 70.85 127.72 70.33 127.72 69.94
C 127.72 69.55 127.31 69.23 126.80 69.23
C 126.29 69.23 125.36 68.66 124.72 67.97
C 123.06 66.17 120.33 64.18 119.52 64.18
C 119.14 64.18 118.31 63.70 117.68 63.11
C 113.59 59.26 110.84 56.97 110.31 56.97
C 109.32 56.97 103.19 50.36 103.19 49.29
C 103.19 48.76 102.89 48.32 102.52 48.32
C 102.16 48.32 101.64 47.34 101.38 46.15
C 101.13 44.96 100.62 43.99 100.26 43.99
C 99.90 43.99 99.41 43.18 99.16 42.19
C 98.91 41.19 98.41 40.38 98.06 40.38
C 96.40 40.38 98.92 33.77 101.36 31.75
C 102.78 30.57 108.82 30.35 109.53 31.45
C 109.81 31.88 111.23 32.63 112.69 33.10
C 114.14 33.58 115.51 34.44 115.73 35.01
C 115.95 35.59 116.60 36.06 117.16 36.06
C 117.73 36.06 118.38 36.54 118.60 37.14
C 118.83 37.73 119.40 38.22 119.86 38.22
C 120.33 38.22 121.39 38.95 122.23 39.84
C 123.08 40.74 124.66 41.93 125.75 42.49
C 126.84 43.05 127.72 43.78 127.72 44.11
C 127.72 44.44 128.14 44.71 128.66 44.71
C 129.17 44.71 130.39 45.67 131.37 46.85
C 132.34 48.01 133.47 48.99 133.88 49.01
C 134.28 49.02 135.18 49.69 135.86 50.48
C 136.53 51.27 137.57 51.92 138.14 51.92
C 138.72 51.92 139.46 52.33 139.77 52.82
C 140.09 53.32 141.00 54.12 141.79 54.59
C 150.31 59.69 153.40 61.61 153.70 62.01
C 153.90 62.26 156.44 63.35 159.34 64.41
L 164.60 66.35
L 282.41 66.35
C 373.06 66.35 400.40 66.55 401.07 67.21
C 402.26 68.40 402.26 83.76 401.07 84.95
C 400.40 85.62 372.08 85.80 277.49 85.72
C 210.00 85.67 154.05 85.48 153.16 85.31"/>
<path fill="#ae3c2a" stroke="none" d="
M 206.38 226.12
C 193.61 225.05 192.55 224.88 180.76 222.04
C 159.21 216.84 133.41 206.35 117.98 196.53
C 115.20 194.76 112.17 192.98 111.25 192.57
C 109.21 191.66 103.11 187.61 102.11 186.50
C 100.83 185.08 96.10 181.73 95.37 181.73
C 94.41 181.73 83.47 172.33 79.09 167.75
C 77.15 165.72 74.39 162.30 72.96 160.16
C 70.62 156.66 70.33 155.68 70.10 150.63
C 69.73 142.51 71.67 139.68 78.85 137.83
C 81.72 137.09 90.92 138.17 90.92 139.23
C 90.92 139.54 92.64 140.78 94.74 141.98
C 96.84 143.18 99.49 144.96 100.62 145.94
C 101.76 146.91 103.53 148.15 104.56 148.67
C 107.40 150.13 121.14 159.37 121.62 160.14
C 121.85 160.51 122.50 160.82 123.06 160.82
C 124.17 160.82 131.04 164.83 132.70 166.44
C 134.35 168.04 159.46 180.02 164.52 181.62
C 175.02 184.92 189.59 187.68 203.13 188.93
C 213.52 189.89 244.93 189.87 253.85 188.90
C 266.54 187.52 283.81 183.31 289.38 180.24
C 292.99 178.24 293.53 176.99 293.60 170.19
C 293.68 163.51 292.81 160.64 289.70 157.28
C 285.11 152.32 280.70 151.87 264.11 154.64
C 248.09 157.31 236.92 158.17 224.42 157.72
C 210.89 157.23 203.01 155.41 192.31 150.32
C 181.41 145.15 177.10 142.19 175.83 139.03
C 174.47 135.61 175.48 131.10 178.06 129.06
C 180.82 126.90 186.77 127.15 193.06 129.72
C 200.61 132.79 207.85 134.23 217.99 134.67
C 229.22 135.14 239.11 134.13 255.45 130.83
C 273.30 127.23 287.88 126.05 299.10 127.31
C 311.07 128.65 318.28 131.06 335.50 139.42
C 338.06 140.67 341.96 143.33 344.16 145.34
C 346.37 147.36 349.95 149.76 352.13 150.68
C 355.78 152.21 356.74 152.31 364.40 151.89
C 386.55 150.67 398.29 150.51 399.39 151.43
C 400.34 152.21 400.49 155.91 400.49 178.17
C 400.49 194.75 400.23 204.17 399.76 204.45
C 398.91 204.98 390.93 203.88 380.28 201.78
C 376.12 200.96 369.29 200.13 365.13 199.94
C 356.77 199.56 353.85 200.21 336.27 206.38
C 319.13 212.39 311.95 214.77 307.40 215.93
C 304.83 216.58 300.27 217.77 297.30 218.56
C 291.04 220.23 281.64 222.26 272.48 223.93
C 258.08 226.54 224.65 227.64 206.38 226.12"/>
<path fill="#bd5628" stroke="none" d="
M 342.04 364.58
C 333.94 362.85 329.58 361.50 324.36 359.11
C 314.59 354.63 313.73 356.76 333.08 337.44
L 350.00 320.55
L 367.03 337.62
C 376.39 347.00 383.88 354.95 383.67 355.28
C 383.26 355.93 380.72 357.26 374.87 359.88
C 369.63 362.23 358.38 364.89 352.14 365.26
C 348.97 365.45 344.78 365.17 342.04 364.58"/>
<path fill="#bd5628" stroke="none" d="
M 293.21 331.42
C 292.18 330.27 287.20 319.73 287.20 318.71
C 287.20 318.31 286.49 315.97 285.63 313.50
C 284.32 309.74 284.06 307.33 284.01 298.56
C 283.94 287.15 284.79 283.15 289.52 272.24
C 293.49 263.10 291.73 262.33 311.02 281.62
L 327.96 298.56
L 311.00 315.46
C 297.50 328.93 293.88 332.18 293.21 331.42"/>
<path fill="#bd5628" stroke="none" d="
M 389.60 314.72
L 372.71 297.83
L 389.44 281.12
C 408.53 262.04 406.90 262.73 411.12 271.86
C 417.42 285.49 418.90 299.23 415.46 312.26
C 413.53 319.60 408.78 330.72 407.35 331.27
C 406.87 331.45 398.89 324.00 389.60 314.72"/>
<path fill="#bd5628" stroke="none" d="
M 333.52 258.68
C 314.41 239.56 315.21 241.41 324.36 237.44
C 334.18 233.17 338.89 232.05 348.53 231.71
C 356.15 231.43 358.39 231.62 362.96 232.90
C 365.94 233.73 369.35 234.68 370.54 235.00
C 373.48 235.82 382.48 240.07 383.60 241.18
C 384.31 241.90 381.10 245.47 367.77 258.78
C 358.57 267.97 350.89 275.48 350.68 275.48
C 350.49 275.48 342.76 267.92 333.52 258.68"/>
<path fill="#eae4a2" stroke="none" d="
M 304.26 345.19
C 300.83 341.81 298.02 338.61 298.02 338.08
C 298.02 337.56 306.46 328.69 316.78 318.39
C 327.10 308.08 335.54 299.16 335.54 298.56
C 335.54 297.96 326.96 288.89 316.46 278.41
C 300.05 262.01 297.49 259.17 298.11 258.01
C 299.39 255.62 309.65 245.91 310.89 245.91
C 311.56 245.91 320.54 254.35 330.85 264.66
C 341.17 274.98 350.10 283.41 350.70 283.41
C 351.30 283.41 360.23 274.98 370.54 264.66
C 380.85 254.35 389.72 245.91 390.25 245.91
C 390.78 245.91 393.98 248.72 397.36 252.14
L 403.52 258.38
L 384.32 277.57
C 373.77 288.13 365.13 297.25 365.13 297.84
C 365.13 298.43 373.78 307.56 384.36 318.14
L 403.60 337.37
L 401.27 340.30
C 398.94 343.25 390.51 351.20 389.71 351.20
C 389.48 351.20 380.69 342.60 370.18 332.09
C 359.67 321.58 350.58 312.98 349.98 312.98
C 349.39 312.98 340.26 321.61 329.70 332.16
L 310.50 351.35
L 304.26 345.19"/>
<path fill="#ca7c2f" stroke="none" d="
M 84.47 335.03
C 82.59 332.76 85.63 321.36 90.94 310.79
C 103.87 285.02 123.31 267.90 146.25 262.09
C 170.32 255.99 193.01 259.73 213.02 273.09
C 219.94 277.72 230.88 288.20 236.14 295.26
C 244.13 306.01 250.48 321.93 250.68 331.73
L 250.76 335.70
L 168.05 335.88
C 96.73 336.04 85.21 335.92 84.47 335.03"/>
<path fill="#ffa153" stroke="none" d="
M 40.68 417.19
C 38.25 416.67 34.41 415.36 32.15 414.30
C 27.49 412.09 18.89 405.48 15.19 401.27
L 12.71 398.44
L 17.28 398.22
C 21.30 398.03 22.08 398.21 23.73 399.76
C 29.85 405.49 38.81 409.90 46.18 410.81
C 52.27 411.56 64.36 406.72 71.01 400.88
L 74.19 398.08
L 81.29 398.11
L 88.40 398.13
L 85.51 400.69
C 81.44 404.29 70.62 410.88 64.22 413.65
C 59.19 415.83 49.36 418.34 46.39 418.21
C 45.68 418.18 43.11 417.72 40.68 417.19"/>
<path fill="#ffa153" stroke="none" d="
M 6.49 377.34
C 6.49 373.94 10.48 360.27 12.97 355.12
C 17.28 346.22 22.95 341.79 29.95 341.86
C 38.14 341.94 60.69 356.79 78.29 373.70
L 83.34 378.56
L 77.93 378.58
L 72.52 378.60
L 64.58 371.31
C 47.06 355.23 42.28 351.71 34.84 349.46
L 30.47 348.14
L 26.49 349.95
C 20.47 352.72 18.28 357.09 15.50 371.94
L 14.25 378.61
L 10.38 378.61
C 7.16 378.61 6.49 378.39 6.49 377.34"/>
<path fill="#ef907a" stroke="none" d="
M 251.49 450.64
C 229.28 447.40 205.10 435.16 187.20 418.08
C 180.31 411.51 171.02 400.41 171.02 398.75
C 171.02 398.38 172.79 398.08 174.97 398.08
L 178.92 398.08
L 183.65 404.52
C 198.40 424.60 226.95 442.25 253.22 447.52
C 257.52 448.38 261.44 448.64 266.57 448.40
C 273.18 448.10 273.63 448.15 271.50 449.03
C 269.00 450.07 260.61 451.46 257.61 451.34
C 256.62 451.30 253.87 450.98 251.49 450.64"/>
<path fill="#ef907a" stroke="none" d="
M 279.17 422.00
C 276.40 417.06 271.18 410.34 265.03 403.82
L 259.62 398.08
L 263.67 398.08
C 267.56 398.08 267.78 398.19 269.84 401.02
C 273.68 406.33 282.23 424.20 281.34 425.08
C 281.19 425.24 280.21 423.85 279.17 422.00"/>
<path fill="#0885ff" stroke="none" d="
M 4.33 595.67
C 2.92 594.27 2.89 593.27 2.89 552.18
C 2.89 517.00 3.05 509.91 3.91 508.73
C 4.92 507.35 8.10 507.33 225.07 507.15
C 444.56 506.96 445.23 506.97 446.67 508.41
C 448.08 509.83 448.11 510.79 448.11 552.04
C 448.11 593.27 448.08 594.27 446.67 595.67
C 445.23 597.11 444.27 597.12 225.50 597.12
C 6.73 597.12 5.77 597.11 4.33 595.67
M 40.41 572.96
L 40.41 555.29
L 22.73 555.29
L 5.05 555.29
L 5.05 572.96
L 5.05 590.62
L 22.73 590.62
L 40.41 590.62
L 40.41 572.96
M 85.15 572.96
L 85.15 555.29
L 66.03 555.29
L 46.90 555.29
L 46.90 572.96
L 46.90 590.62
L 66.03 590.62
L 85.15 590.62
L 85.15 572.96
M 131.33 572.96
L 131.33 555.29
L 111.49 555.29
L 91.64 555.29
L 91.64 572.96
L 91.64 590.62
L 111.49 590.62
L 131.33 590.62
L 131.33 572.96
M 176.79 572.96
L 176.79 555.29
L 157.31 555.29
L 137.83 555.29
L 137.83 572.96
L 137.83 590.62
L 157.31 590.62
L 176.79 590.62
L 176.79 572.96
M 222.97 572.96
L 222.97 555.29
L 203.13 555.29
L 183.29 555.29
L 183.29 572.96
L 183.29 590.62
L 203.13 590.62
L 222.97 590.62
L 222.97 572.96
M 267.71 572.96
L 267.71 555.29
L 248.59 555.29
L 229.47 555.29
L 229.47 572.96
L 229.47 590.62
L 248.59 590.62
L 267.71 590.62
L 267.71 572.96
M 313.17 572.96
L 313.17 555.29
L 293.69 555.29
L 274.21 555.29
L 274.21 572.96
L 274.21 590.62
L 293.69 590.62
L 313.17 590.62
L 313.17 572.96
M 359.36 572.96
L 359.36 555.29
L 339.51 555.29
L 319.67 555.29
L 319.67 572.96
L 319.67 590.62
L 339.51 590.62
L 359.36 590.62
L 359.36 572.96
M 404.10 572.96
L 404.10 555.29
L 384.97 555.29
L 365.85 555.29
L 365.85 572.96
L 365.85 590.62
L 384.97 590.62
L 404.10 590.62
L 404.10 572.96
M 445.95 572.96
L 445.95 555.29
L 428.27 555.29
L 410.59 555.29
L 410.59 572.96
L 410.59 590.62
L 428.27 590.62
L 445.95 590.62
L 445.95 572.96
M 40.41 531.13
L 40.41 513.46
L 22.73 513.46
L 5.05 513.46
L 5.05 531.13
L 5.05 548.80
L 22.73 548.80
L 40.41 548.80
L 40.41 531.13
M 85.15 531.13
L 85.15 513.46
L 66.03 513.46
L 46.90 513.46
L 46.90 531.13
L 46.90 548.80
L 66.03 548.80
L 85.15 548.80
L 85.15 531.13
M 131.33 531.13
L 131.33 513.46
L 111.49 513.46
L 91.64 513.46
L 91.64 531.13
L 91.64 548.80
L 111.49 548.80
L 131.33 548.80
L 131.33 531.13
M 176.79 531.13
L 176.79 513.46
L 157.31 513.46
L 137.83 513.46
L 137.83 531.13
L 137.83 548.80
L 157.31 548.80
L 176.79 548.80
L 176.79 531.13
M 222.97 531.13
L 222.97 513.46
L 203.13 513.46
L 183.29 513.46
L 183.29 531.13
L 183.29 548.80
L 203.13 548.80
L 222.97 548.80
L 222.97 531.13
M 267.71 531.13
L 267.71 513.46
L 248.59 513.46
L 229.47 513.46
L 229.47 531.13
L 229.47 548.80
L 248.59 548.80
L 267.71 548.80
L 267.71 531.13
M 313.17 531.13
L 313.17 513.46
L 293.69 513.46
L 274.21 513.46
L 274.21 531.13
L 274.21 548.80
L 293.69 548.80
L 313.17 548.80
L 313.17 531.13
M 359.36 531.13
L 359.36 513.46
L 339.51 513.46
L 319.67 513.46
L 319.67 531.13
L 319.67 548.80
L 339.51 548.80
L 359.36 548.80
L 359.36 531.13
M 404.10 531.13
L 404.10 513.46
L 384.97 513.46
L 365.85 513.46
L 365.85 531.13
L 365.85 548.80
L 384.97 548.80
L 404.10 548.80
L 404.10 531.13
M 445.95 531.13
L 445.95 513.46
L 428.27 513.46
L 410.59 513.46
L 410.59 531.13
L 410.59 548.80
L 428.27 548.80
L 445.95 548.80
L 445.95 531.13"/>
<path fill="#c57a36" stroke="none" d="
M 7.94 572.96
L 7.94 558.17
L 22.73 558.17
L 37.52 558.17
L 37.52 572.96
L 37.52 587.74
L 22.73 587.74
L 7.94 587.74
L 7.94 572.96"/>
<path fill="#c57a36" stroke="none" d="
M 49.79 572.96
L 49.79 558.17
L 66.03 558.17
L 82.26 558.17
L 82.26 572.96
L 82.26 587.74
L 66.03 587.74
L 49.79 587.74
L 49.79 572.96"/>
<path fill="#c57a36" stroke="none" d="
M 94.53 572.96
L 94.53 558.17
L 111.49 558.17
L 128.44 558.17
L 128.44 572.96
L 128.44 587.74
L 111.49 587.74
L 94.53 587.74
L 94.53 572.96"/>
<path fill="#c57a36" stroke="none" d="
M 140.71 572.96
L 140.71 558.17
L 157.31 558.17
L 173.91 558.17
L 173.91 572.96
L 173.91 587.74
L 157.31 587.74
L 140.71 587.74
L 140.71 572.96"/>
<path fill="#c57a36" stroke="none" d="
M 186.17 572.96
L 186.17 558.17
L 203.13 558.17
L 220.09 558.17
L 220.09 572.96
L 220.09 587.74
L 203.13 587.74
L 186.17 587.74
L 186.17 572.96"/>
<path fill="#c57a36" stroke="none" d="
M 232.36 572.96
L 232.36 558.17
L 248.59 558.17
L 264.83 558.17
L 264.83 572.96
L 264.83 587.74
L 248.59 587.74
L 232.36 587.74
L 232.36 572.96"/>
<path fill="#c57a36" stroke="none" d="
M 277.09 572.96
L 277.09 558.17
L 293.69 558.17
L 310.29 558.17
L 310.29 572.96
L 310.29 587.74
L 293.69 587.74
L 277.09 587.74
L 277.09 572.96"/>
<path fill="#c57a36" stroke="none" d="
M 322.56 572.96
L 322.56 558.17
L 339.51 558.17
L 356.47 558.17
L 356.47 572.96
L 356.47 587.74
L 339.51 587.74
L 322.56 587.74
L 322.56 572.96"/>
<path fill="#c57a36" stroke="none" d="
M 368.74 572.96
L 368.74 558.17
L 384.97 558.17
L 401.21 558.17
L 401.21 572.96
L 401.21 587.74
L 384.97 587.74
L 368.74 587.74
L 368.74 572.96"/>
<path fill="#c57a36" stroke="none" d="
M 413.48 572.96
L 413.48 558.17
L 428.27 558.17
L 443.06 558.17
L 443.06 572.96
L 443.06 587.74
L 428.27 587.74
L 413.48 587.74
L 413.48 572.96"/>
<path fill="#c57a36" stroke="none" d="
M 8.10 531.31
L 8.30 516.71
L 22.91 516.51
L 37.52 516.32
L 37.52 531.12
L 37.52 545.91
L 22.72 545.91
L 7.91 545.91
L 8.10 531.31"/>
<path fill="#c57a36" stroke="none" d="
M 49.79 531.13
L 49.79 516.35
L 66.03 516.35
L 82.26 516.35
L 82.26 531.13
L 82.26 545.91
L 66.03 545.91
L 49.79 545.91
L 49.79 531.13"/>
<path fill="#c57a36" stroke="none" d="
M 94.53 531.13
L 94.53 516.35
L 111.49 516.35
L 128.44 516.35
L 128.44 531.13
L 128.44 545.91
L 111.49 545.91
L 94.53 545.91
L 94.53 531.13"/>
<path fill="#c57a36" stroke="none" d="
M 140.71 531.13
L 140.71 516.35
L 157.31 516.35
L 173.91 516.35
L 173.91 531.13
L 173.91 545.91
L 157.31 545.91
L 140.71 545.91
L 140.71 531.13"/>
<path fill="#c57a36" stroke="none" d="
M 186.17 531.13
L 186.17 516.35
L 203.13 516.35
L 220.09 516.35
L 220.09 531.13
L 220.09 545.91
L 203.13 545.91
L 186.17 545.91
L 186.17 531.13"/>
<path fill="#c57a36" stroke="none" d="
M 232.36 531.13
L 232.36 516.35
L 248.59 516.35
L 264.83 516.35
L 264.83 531.13
L 264.83 545.91
L 248.59 545.91
L 232.36 545.91
L 232.36 531.13"/>
<path fill="#c57a36" stroke="none" d="
M 277.09 531.13
L 277.09 516.35
L 293.69 516.35
L 310.29 516.35
L 310.29 531.13
L 310.29 545.91
L 293.69 545.91
L 277.09 545.91
L 277.09 531.13"/>
<path fill="#c57a36" stroke="none" d="
M 322.56 531.13
L 322.56 516.35
L 339.51 516.35
L 356.47 516.35
L 356.47 531.13
L 356.47 545.91
L 339.51 545.91
L 322.56 545.91
L 322.56 531.13"/>
<path fill="#c57a36" stroke="none" d="
M 368.74 531.13
L 368.74 516.35
L 384.97 516.35
L 401.21 516.35
L 401.21 531.13
L 401.21 545.91
L 384.97 545.91
L 368.74 545.91
L 368.74 531.13"/>
<path fill="#c57a36" stroke="none" d="
M 413.48 531.13
L 413.48 516.35
L 428.27 516.35
L 443.06 516.35
L 443.06 531.13
L 443.06 545.91
L 428.27 545.91
L 413.48 545.91
L 413.48 531.13"/>
</g>
</svg>
