<?xml version="1.0" encoding="UTF-8" standalone="no"?>
<!DOCTYPE svg PUBLIC "-//W3C//DTD SVG 1.1//EN"
"http://www.w3.org/Graphics/SVG/1.1/DTD/svg11.dtd">
<svg width="750px" height="600px"
xmlns="http://www.w3.org/2000/svg" version="1.1">
<g transform="translate(0000, 0000) scale(1.0000, 1.0000)">
<path fill="#000000" stroke="none" d="
M 2.40 597.60
C 0.05 595.25 0.00 593.60 0.00 520.20
C 0.00 446.80 0.05 445.15 2.40 442.80
C 4.78 440.42 6.40 440.40 183.61 440.40
L 362.42 440.40
L 362.11 391.69
L 361.80 342.97
L 348.97 335.58
C 341.92 331.52 331.66 324.97 326.17 321.02
C 312.41 311.12 288.90 287.29 280.26 274.50
L 273.17 264.00
L 215.53 264.00
L 157.90 264.00
L 153.65 268.10
C 147.42 274.13 126.88 287.50 115.55 292.92
C 110.12 295.50 99.86 299.04 92.75 300.78
C 80.87 303.66 79.12 303.82 71.48 302.53
C 50.32 298.98 38.93 292.40 19.51 272.51
C 4.63 257.26 1.49 251.53 2.80 241.97
C 7.36 208.31 14.77 186.05 25.18 174.76
C 30.90 168.55 40.22 164.39 48.35 164.41
C 55.91 164.44 71.93 170.52 83.52 177.77
C 95.89 185.50 116.06 201.42 135.55 218.81
L 149.88 231.60
L 444.54 231.60
C 737.60 231.60 739.21 231.61 741.60 234.00
C 743.66 236.06 744.00 238.00 744.00 247.80
C 744.00 266.10 763.01 264.00 597.53 264.00
L 455.87 264.00
L 459.04 269.10
C 464.87 278.48 473.88 298.12 475.97 306.00
C 482.15 329.30 475.26 347.65 457.36 355.61
C 448.92 359.34 433.67 361.69 424.20 360.72
C 417.50 360.02 398.88 356.35 392.70 354.52
L 390.00 353.72
L 390.00 397.06
L 390.00 440.40
L 567.60 440.40
C 743.60 440.40 745.22 440.42 747.60 442.80
C 749.95 445.15 750.00 446.80 750.00 520.20
C 750.00 593.60 749.95 595.25 747.60 597.60
C 745.21 599.99 743.60 600.00 375.00 600.00
C 6.40 600.00 4.79 599.99 2.40 597.60
M 742.80 592.80
C 745.14 590.46 745.20 588.80 745.20 520.20
C 745.20 451.60 745.14 449.94 742.80 447.60
C 740.41 445.21 738.80 445.20 375.00 445.20
C 11.20 445.20 9.59 445.21 7.20 447.60
C 4.86 449.94 4.80 451.60 4.80 520.20
C 4.80 588.80 4.86 590.46 7.20 592.80
C 9.59 595.19 11.20 595.20 375.00 595.20
C 738.80 595.20 740.41 595.19 742.80 592.80
M 381.60 396.24
L 381.60 352.08
L 376.20 349.45
L 370.80 346.84
L 370.80 393.61
L 370.80 440.40
L 376.20 440.40
L 381.60 440.40
L 381.60 396.24
M 439.50 351.58
C 443.95 350.94 449.35 349.68 451.50 348.79
C 455.04 347.33 454.28 347.23 443.30 347.74
C 399.71 349.76 335.56 315.80 305.41 274.73
L 297.54 264.00
L 290.29 264.00
L 283.04 264.00
L 288.19 271.50
C 291.02 275.63 300.11 285.76 308.38 294.02
C 329.35 315.00 350.29 328.94 377.46 340.00
C 390.98 345.50 405.65 349.63 418.22 351.47
C 428.15 352.91 430.25 352.92 439.50 351.58
M 455.60 337.27
C 458.35 336.02 461.18 333.91 461.90 332.58
C 467.38 322.37 456.17 301.55 431.59 276.30
L 419.63 264.00
L 404.82 264.00
L 390.00 264.00
L 390.00 295.85
L 390.00 327.68
L 395.44 330.01
C 400.63 332.24 419.71 337.70 426.00 338.77
C 427.66 339.05 433.86 339.34 439.80 339.41
C 448.06 339.52 451.78 339.01 455.60 337.27
M 381.60 294.60
L 381.60 264.00
L 376.20 264.00
L 370.80 264.00
L 370.80 291.48
L 370.80 318.96
L 375.90 322.03
C 378.71 323.72 381.13 325.13 381.30 325.15
C 381.47 325.18 381.60 311.42 381.60 294.60
M 362.00 264.40
C 361.75 264.16 349.55 264.10 334.88 264.28
L 308.22 264.60
L 314.14 272.40
C 322.26 283.10 336.90 296.80 350.46 306.38
L 361.80 314.41
L 362.12 289.63
C 362.30 276.00 362.24 264.65 362.00 264.40
M 466.21 302.72
C 463.14 294.48 452.87 274.62 448.73 268.90
C 445.31 264.18 444.95 264.00 438.47 264.00
L 431.75 264.00
L 440.74 273.55
C 450.96 284.41 459.65 295.60 464.24 303.80
C 468.16 310.76 469.03 310.28 466.21 302.72
M 88.55 295.70
C 93.64 294.66 101.86 292.06 106.80 289.91
C 117.43 285.31 135.43 274.34 142.20 268.36
L 147.00 264.10
L 135.18 264.05
L 123.37 264.00
L 118.08 268.66
C 107.03 278.39 86.93 286.44 76.80 285.18
C 64.55 283.67 49.64 276.34 39.47 266.81
C 36.72 264.23 35.42 263.92 28.74 264.24
L 21.13 264.60
L 25.26 269.32
C 31.42 276.32 45.72 287.32 53.47 290.99
C 59.70 293.93 71.82 297.26 77.15 297.50
C 78.34 297.55 83.46 296.75 88.55 295.70
M 97.78 273.68
C 103.07 271.02 108.74 267.77 110.40 266.45
L 113.40 264.05
L 80.63 264.02
C 61.46 264.01 48.13 264.44 48.53 265.08
C 48.90 265.68 52.30 268.24 56.10 270.76
C 71.62 281.09 81.65 281.78 97.78 273.68
M 732.96 254.16
C 734.82 252.30 734.82 243.30 732.96 241.44
C 731.84 240.32 651.04 240.00 376.56 240.00
C 23.20 240.00 21.59 240.01 19.20 242.40
C 17.88 243.72 16.80 246.14 16.80 247.80
C 16.80 249.46 17.88 251.88 19.20 253.20
C 21.59 255.59 23.20 255.60 376.56 255.60
C 651.04 255.60 731.84 255.28 732.96 254.16
M 25.78 220.50
C 30.40 195.80 34.04 188.52 44.05 183.92
L 50.66 180.90
L 57.94 183.11
C 70.31 186.85 78.26 192.70 107.40 219.47
L 120.60 231.59
L 129.60 231.56
L 138.60 231.53
L 130.20 223.44
C 99.72 194.14 63.34 170.51 48.60 170.47
C 33.20 170.42 20.75 186.37 13.80 215.02
C 9.65 232.18 9.53 231.60 17.26 231.60
L 23.70 231.60
L 25.78 220.50
M 99.60 221.74
C 69.82 193.20 55.78 184.93 45.84 190.08
C 39.59 193.31 33.85 205.39 31.84 219.60
C 31.42 222.56 30.79 226.49 30.44 228.30
L 29.81 231.60
L 69.80 231.55
L 109.80 231.50
L 99.60 221.74"/>
<path fill="#000000" stroke="none" d="
M 545.40 193.86
C 538.14 192.34 523.56 188.84 513.00 186.11
C 489.54 180.01 447.07 171.37 423.60 167.90
C 407.04 165.47 403.96 165.38 360.00 166.37
C 292.18 167.87 247.12 167.65 236.40 165.79
C 220.24 162.97 208.39 159.44 197.30 154.15
C 183.16 147.40 173.50 137.60 169.02 125.47
L 166.03 117.40
L 155.32 112.68
C 144.34 107.84 138.00 102.61 138.00 98.40
C 138.00 94.19 144.34 88.96 155.32 84.12
L 166.03 79.40
L 169.02 71.33
C 176.68 50.59 198.29 37.67 236.40 31.01
C 247.12 29.15 292.18 28.93 360.00 30.43
C 403.99 31.42 407.03 31.33 423.60 28.88
C 449.06 25.12 485.05 17.72 517.74 9.53
C 548.34 1.87 565.36 -0.94 572.77 0.47
C 578.34 1.52 585.50 8.32 589.62 16.46
C 600.31 37.63 606.66 81.77 603.86 115.50
C 600.82 152.16 594.56 175.45 584.26 188.56
C 577.24 197.47 568.33 198.70 545.40 193.86
M 548.40 169.80
C 553.30 167.27 554.08 162.01 550.84 153.38
C 549.44 149.66 547.12 144.96 545.65 142.92
C 544.20 140.89 538.26 132.77 532.46 124.87
C 526.67 116.98 521.14 108.62 520.16 106.30
C 516.43 97.38 518.33 90.65 528.18 77.77
C 531.05 74.00 535.56 67.91 538.20 64.21
C 540.84 60.52 544.20 55.85 545.65 53.83
C 549.92 47.96 553.48 37.22 552.62 32.74
C 551.62 27.35 547.08 25.20 536.72 25.20
C 525.92 25.20 499.66 29.88 473.84 36.41
C 449.28 42.61 448.91 42.68 429.58 44.98
C 409.40 47.36 357.65 47.32 312.98 44.87
C 254.99 41.69 226.39 43.82 209.17 52.61
C 198.41 58.10 187.09 74.11 181.70 91.50
C 179.65 98.12 179.65 98.68 181.70 105.30
C 187.09 122.69 198.41 138.70 209.17 144.19
C 226.39 152.98 254.99 155.11 312.98 151.93
C 357.53 149.48 409.38 149.44 429.60 151.81
C 448.12 153.98 447.11 153.79 473.62 160.39
C 514.87 170.66 540.50 173.88 548.40 169.80
M 581.29 144.90
C 582.40 143.20 583.82 134.30 585.14 120.83
C 587.14 100.52 587.14 98.35 585.14 77.03
C 583.10 55.00 581.63 49.20 578.06 49.20
C 569.90 49.20 530.40 89.15 530.40 97.39
C 530.40 105.59 553.85 132.80 569.98 143.32
C 577.67 148.33 578.95 148.51 581.29 144.90"/>
<path fill="#000000" stroke="none" d="
M 8.40 555.00
L 8.40 525.60
L 37.80 525.60
L 67.20 525.60
L 67.20 555.00
L 67.20 584.40
L 37.80 584.40
L 8.40 584.40
L 8.40 555.00
M 62.40 555.00
L 62.40 530.40
L 37.80 530.40
L 13.20 530.40
L 13.20 555.00
L 13.20 579.60
L 37.80 579.60
L 62.40 579.60
L 62.40 555.00"/>
<path fill="#000000" stroke="none" d="
M 78.00 555.00
L 78.00 525.60
L 109.80 525.60
L 141.60 525.60
L 141.60 555.00
L 141.60 584.40
L 109.80 584.40
L 78.00 584.40
L 78.00 555.00
M 136.80 555.00
L 136.80 530.40
L 109.80 530.40
L 82.80 530.40
L 82.80 555.00
L 82.80 579.60
L 109.80 579.60
L 136.80 579.60
L 136.80 555.00"/>
<path fill="#000000" stroke="none" d="
M 152.40 555.00
L 152.40 525.60
L 185.40 525.60
L 218.40 525.60
L 218.40 555.00
L 218.40 584.40
L 185.40 584.40
L 152.40 584.40
L 152.40 555.00
M 213.60 555.00
L 213.60 530.40
L 185.40 530.40
L 157.20 530.40
L 157.20 555.00
L 157.20 579.60
L 185.40 579.60
L 213.60 579.60
L 213.60 555.00"/>
<path fill="#000000" stroke="none" d="
M 229.20 555.00
L 229.20 525.60
L 261.60 525.60
L 294.00 525.60
L 294.00 555.00
L 294.00 584.40
L 261.60 584.40
L 229.20 584.40
L 229.20 555.00
M 289.20 555.00
L 289.20 530.40
L 261.60 530.40
L 234.00 530.40
L 234.00 555.00
L 234.00 579.60
L 261.60 579.60
L 289.20 579.60
L 289.20 555.00"/>
<path fill="#000000" stroke="none" d="
M 304.80 555.00
L 304.80 525.60
L 337.80 525.60
L 370.80 525.60
L 370.80 555.00
L 370.80 584.40
L 337.80 584.40
L 304.80 584.40
L 304.80 555.00
M 366.00 555.00
L 366.00 530.40
L 337.80 530.40
L 309.60 530.40
L 309.60 555.00
L 309.60 579.60
L 337.80 579.60
L 366.00 579.60
L 366.00 555.00"/>
<path fill="#000000" stroke="none" d="
M 381.60 555.00
L 381.60 525.60
L 413.40 525.60
L 445.20 525.60
L 445.20 555.00
L 445.20 584.40
L 413.40 584.40
L 381.60 584.40
L 381.60 555.00
M 440.40 555.00
L 440.40 530.40
L 413.40 530.40
L 386.40 530.40
L 386.40 555.00
L 386.40 579.60
L 413.40 579.60
L 440.40 579.60
L 440.40 555.00"/>
<path fill="#000000" stroke="none" d="
M 456.00 555.00
L 456.00 525.60
L 488.40 525.60
L 520.80 525.60
L 520.80 555.00
L 520.80 584.40
L 488.40 584.40
L 456.00 584.40
L 456.00 555.00
M 516.00 555.00
L 516.00 530.40
L 488.40 530.40
L 460.80 530.40
L 460.80 555.00
L 460.80 579.60
L 488.40 579.60
L 516.00 579.60
L 516.00 555.00"/>
<path fill="#000000" stroke="none" d="
M 531.60 555.00
L 531.60 525.60
L 564.60 525.60
L 597.60 525.60
L 597.60 555.00
L 597.60 584.40
L 564.60 584.40
L 531.60 584.40
L 531.60 555.00
M 592.80 555.00
L 592.80 530.40
L 564.60 530.40
L 536.40 530.40
L 536.40 555.00
L 536.40 579.60
L 564.60 579.60
L 592.80 579.60
L 592.80 555.00"/>
<path fill="#000000" stroke="none" d="
M 608.40 555.00
L 608.40 525.60
L 640.20 525.60
L 672.00 525.60
L 672.00 555.00
L 672.00 584.40
L 640.20 584.40
L 608.40 584.40
L 608.40 555.00
M 667.20 555.00
L 667.20 530.40
L 640.20 530.40
L 613.20 530.40
L 613.20 555.00
L 613.20 579.60
L 640.20 579.60
L 667.20 579.60
L 667.20 555.00"/>
<path fill="#000000" stroke="none" d="
M 682.80 555.00
L 682.80 525.60
L 712.20 525.60
L 741.60 525.60
L 741.60 555.00
L 741.60 584.40
L 712.20 584.40
L 682.80 584.40
L 682.80 555.00
M 736.80 555.00
L 736.80 530.40
L 712.20 530.40
L 687.60 530.40
L 687.60 555.00
L 687.60 579.60
L 712.20 579.60
L 736.80 579.60
L 736.80 555.00"/>
<path fill="#000000" stroke="none" d="
M 8.40 485.40
L 8.40 456.00
L 37.80 456.00
L 67.20 456.00
L 67.20 485.40
L 67.20 514.80
L 37.80 514.80
L 8.40 514.80
L 8.40 485.40
M 62.40 485.40
L 62.40 460.80
L 37.80 460.80
L 13.20 460.80
L 13.20 485.40
L 13.20 510.00
L 37.80 510.00
L 62.40 510.00
L 62.40 485.40"/>
<path fill="#000000" stroke="none" d="
M 78.00 485.40
L 78.00 456.00
L 109.80 456.00
L 141.60 456.00
L 141.60 485.40
L 141.60 514.80
L 109.80 514.80
L 78.00 514.80
L 78.00 485.40
M 136.80 485.40
L 136.80 460.80
L 109.80 460.80
L 82.80 460.80
L 82.80 485.40
L 82.80 510.00
L 109.80 510.00
L 136.80 510.00
L 136.80 485.40"/>
<path fill="#000000" stroke="none" d="
M 152.40 485.40
L 152.40 456.00
L 185.40 456.00
L 218.40 456.00
L 218.40 485.40
L 218.40 514.80
L 185.40 514.80
L 152.40 514.80
L 152.40 485.40
M 213.60 485.40
L 213.60 460.80
L 185.40 460.80
L 157.20 460.80
L 157.20 485.40
L 157.20 510.00
L 185.40 510.00
L 213.60 510.00
L 213.60 485.40"/>
<path fill="#000000" stroke="none" d="
M 229.20 485.40
L 229.20 456.00
L 261.60 456.00
L 294.00 456.00
L 294.00 485.40
L 294.00 514.80
L 261.60 514.80
L 229.20 514.80
L 229.20 485.40
M 289.20 485.40
L 289.20 460.80
L 261.60 460.80
L 234.00 460.80
L 234.00 485.40
L 234.00 510.00
L 261.60 510.00
L 289.20 510.00
L 289.20 485.40"/>
<path fill="#000000" stroke="none" d="
M 304.80 485.40
L 304.80 456.00
L 337.80 456.00
L 370.80 456.00
L 370.80 485.40
L 370.80 514.80
L 337.80 514.80
L 304.80 514.80
L 304.80 485.40
M 366.00 485.40
L 366.00 460.80
L 337.80 460.80
L 309.60 460.80
L 309.60 485.40
L 309.60 510.00
L 337.80 510.00
L 366.00 510.00
L 366.00 485.40"/>
<path fill="#000000" stroke="none" d="
M 381.60 485.40
L 381.60 456.00
L 413.40 456.00
L 445.20 456.00
L 445.20 485.40
L 445.20 514.80
L 413.40 514.80
L 381.60 514.80
L 381.60 485.40
M 440.40 485.40
L 440.40 460.80
L 413.40 460.80
L 386.40 460.80
L 386.40 485.40
L 386.40 510.00
L 413.40 510.00
L 440.40 510.00
L 440.40 485.40"/>
<path fill="#000000" stroke="none" d="
M 456.00 485.40
L 456.00 456.00
L 488.40 456.00
L 520.80 456.00
L 520.80 485.40
L 520.80 514.80
L 488.40 514.80
L 456.00 514.80
L 456.00 485.40
M 516.00 485.40
L 516.00 460.80
L 488.40 460.80
L 460.80 460.80
L 460.80 485.40
L 460.80 510.00
L 488.40 510.00
L 516.00 510.00
L 516.00 485.40"/>
<path fill="#000000" stroke="none" d="
M 531.60 485.40
L 531.60 456.00
L 564.60 456.00
L 597.60 456.00
L 597.60 485.40
L 597.60 514.80
L 564.60 514.80
L 531.60 514.80
L 531.60 485.40
M 592.80 485.40
L 592.80 460.80
L 564.60 460.80
L 536.40 460.80
L 536.40 485.40
L 536.40 510.00
L 564.60 510.00
L 592.80 510.00
L 592.80 485.40"/>
<path fill="#000000" stroke="none" d="
M 608.40 485.40
L 608.40 456.00
L 640.20 456.00
L 672.00 456.00
L 672.00 485.40
L 672.00 514.80
L 640.20 514.80
L 608.40 514.80
L 608.40 485.40
M 667.20 485.40
L 667.20 460.80
L 640.20 460.80
L 613.20 460.80
L 613.20 485.40
L 613.20 510.00
L 640.20 510.00
L 667.20 510.00
L 667.20 485.40"/>
<path fill="#000000" stroke="none" d="
M 682.80 485.40
L 682.80 456.00
L 712.20 456.00
L 741.60 456.00
L 741.60 485.40
L 741.60 514.80
L 712.20 514.80
L 682.80 514.80
L 682.80 485.40
M 736.80 485.40
L 736.80 460.80
L 712.20 460.80
L 687.60 460.80
L 687.60 485.40
L 687.60 510.00
L 712.20 510.00
L 736.80 510.00
L 736.80 485.40"/>
<path fill="#c45a40" stroke="none" d="
M 510.82 168.60
C 502.36 167.08 485.62 163.38 473.62 160.39
C 447.11 153.79 448.12 153.98 429.60 151.81
C 409.38 149.44 357.53 149.48 312.98 151.93
C 254.99 155.11 226.39 152.98 209.17 144.19
C 198.41 138.70 187.09 122.69 181.70 105.30
C 179.65 98.68 179.65 98.12 181.70 91.50
C 187.09 74.11 198.41 58.10 209.17 52.61
C 226.39 43.82 254.99 41.69 312.98 44.87
C 357.65 47.32 409.40 47.36 429.58 44.98
C 448.93 42.68 449.28 42.62 474.00 36.36
C 498.92 30.05 526.36 25.20 537.16 25.20
C 551.76 25.20 555.70 30.43 550.84 43.42
C 549.44 47.14 547.12 51.83 545.65 53.83
C 544.20 55.85 540.84 60.52 538.20 64.21
C 535.56 67.91 531.05 74.00 528.18 77.77
C 518.33 90.65 516.43 97.38 520.16 106.30
C 521.14 108.62 526.67 116.98 532.46 124.87
C 538.26 132.77 544.20 140.89 545.65 142.92
C 547.12 144.96 549.44 149.66 550.84 153.38
C 554.08 162.01 553.30 167.27 548.40 169.80
C 543.43 172.37 529.22 171.91 510.82 168.60"/>
<path fill="#c45a40" stroke="none" d="
M 569.98 143.32
C 553.85 132.80 530.40 105.59 530.40 97.39
C 530.40 89.15 569.90 49.20 578.06 49.20
C 581.63 49.20 583.10 55.00 585.14 77.03
C 587.14 98.35 587.14 100.52 585.14 120.83
C 583.09 141.77 581.54 147.60 578.04 147.60
C 577.22 147.60 573.59 145.67 569.98 143.32"/>
<path fill="#ffa153" stroke="none" d="
M 67.64 295.81
C 63.61 294.94 57.23 292.76 53.47 290.99
C 45.72 287.32 31.42 276.32 25.26 269.32
L 21.13 264.60
L 28.74 264.24
C 35.42 263.92 36.72 264.23 39.47 266.81
C 49.64 276.34 64.55 283.67 76.80 285.18
C 86.93 286.44 107.03 278.39 118.08 268.66
L 123.37 264.00
L 135.18 264.05
L 147.00 264.10
L 142.20 268.36
C 135.43 274.34 117.43 285.31 106.80 289.91
C 98.42 293.54 82.08 297.72 77.15 297.50
C 75.97 297.46 71.69 296.69 67.64 295.81"/>
<path fill="#ffa153" stroke="none" d="
M 10.80 229.50
C 10.80 223.84 17.44 201.10 21.58 192.52
C 28.74 177.71 38.16 170.34 49.80 170.45
C 63.43 170.58 100.93 195.30 130.20 223.44
L 138.60 231.53
L 129.60 231.56
L 120.60 231.59
L 107.40 219.47
C 78.26 192.70 70.31 186.85 57.94 183.11
L 50.66 180.90
L 44.05 183.92
C 34.04 188.52 30.40 195.80 25.78 220.50
L 23.70 231.60
L 17.26 231.60
C 11.90 231.60 10.80 231.24 10.80 229.50"/>
<path fill="#c55436" stroke="none" d="
M 370.80 393.61
L 370.80 346.84
L 376.20 349.45
L 381.60 352.08
L 381.60 396.24
L 381.60 440.40
L 376.20 440.40
L 370.80 440.40
L 370.80 393.61"/>
<path fill="#c55436" stroke="none" d="
M 375.90 322.03
L 370.80 318.96
L 370.80 291.48
L 370.80 264.00
L 376.20 264.00
L 381.60 264.00
L 381.60 294.60
C 381.60 311.42 381.47 325.18 381.30 325.15
C 381.13 325.13 378.71 323.72 375.90 322.03"/>
<path fill="#c55436" stroke="none" d="
M 19.20 253.20
C 16.39 250.39 16.10 246.22 18.50 242.93
C 20.18 240.64 25.37 240.60 375.67 240.30
C 638.08 240.07 731.57 240.35 732.77 241.34
C 734.78 243.01 734.92 252.20 732.96 254.16
C 731.84 255.28 651.04 255.60 376.56 255.60
C 23.20 255.60 21.59 255.59 19.20 253.20"/>
<path fill="#ef907a" stroke="none" d="
M 418.22 351.47
C 381.29 346.08 341.08 325.70 311.30 297.29
C 299.86 286.36 284.40 267.88 284.40 265.13
C 284.40 264.50 287.35 264.00 290.96 264.00
L 297.54 264.00
L 305.41 274.73
C 329.94 308.14 377.41 337.50 421.10 346.27
C 428.26 347.71 434.76 348.13 443.30 347.74
C 454.28 347.23 455.04 347.33 451.50 348.79
C 447.34 350.52 433.39 352.84 428.40 352.63
C 426.74 352.56 422.17 352.03 418.22 351.47"/>
<path fill="#ef907a" stroke="none" d="
M 464.24 303.80
C 459.65 295.60 450.96 284.41 440.74 273.55
L 431.75 264.00
L 438.47 264.00
C 444.95 264.00 445.31 264.18 448.73 268.90
C 455.12 277.73 469.34 307.46 467.87 308.93
C 467.60 309.19 465.98 306.89 464.24 303.80"/>
<path fill="#0885ff" stroke="none" d="
M 7.20 592.80
C 4.86 590.46 4.80 588.80 4.80 520.43
C 4.80 461.89 5.08 450.08 6.50 448.13
C 8.18 445.84 13.48 445.80 374.29 445.50
C 739.28 445.19 740.40 445.20 742.80 447.60
C 745.15 449.95 745.20 451.55 745.20 520.20
C 745.20 588.80 745.14 590.46 742.80 592.80
C 740.41 595.19 738.80 595.20 375.00 595.20
C 11.20 595.20 9.59 595.19 7.20 592.80
M 67.20 555.00
L 67.20 525.60
L 37.80 525.60
L 8.40 525.60
L 8.40 555.00
L 8.40 584.40
L 37.80 584.40
L 67.20 584.40
L 67.20 555.00
M 141.60 555.00
L 141.60 525.60
L 109.80 525.60
L 78.00 525.60
L 78.00 555.00
L 78.00 584.40
L 109.80 584.40
L 141.60 584.40
L 141.60 555.00
M 218.40 555.00
L 218.40 525.60
L 185.40 525.60
L 152.40 525.60
L 152.40 555.00
L 152.40 584.40
L 185.40 584.40
L 218.40 584.40
L 218.40 555.00
M 294.00 555.00
L 294.00 525.60
L 261.60 525.60
L 229.20 525.60
L 229.20 555.00
L 229.20 584.40
L 261.60 584.40
L 294.00 584.40
L 294.00 555.00
M 370.80 555.00
L 370.80 525.60
L 337.80 525.60
L 304.80 525.60
L 304.80 555.00
L 304.80 584.40
L 337.80 584.40
L 370.80 584.40
L 370.80 555.00
M 445.20 555.00
L 445.20 525.60
L 413.40 525.60
L 381.60 525.60
L 381.60 555.00
L 381.60 584.40
L 413.40 584.40
L 445.20 584.40
L 445.20 555.00
M 520.80 555.00
L 520.80 525.60
L 488.40 525.60
L 456.00 525.60
L 456.00 555.00
L 456.00 584.40
L 488.40 584.40
L 520.80 584.40
L 520.80 555.00
M 597.60 555.00
L 597.60 525.60
L 564.60 525.60
L 531.60 525.60
L 531.60 555.00
L 531.60 584.40
L 564.60 584.40
L 597.60 584.40
L 597.60 555.00
M 672.00 555.00
L 672.00 525.60
L 640.20 525.60
L 608.40 525.60
L 608.40 555.00
L 608.40 584.40
L 640.20 584.40
L 672.00 584.40
L 672.00 555.00
M 741.60 555.00
L 741.60 525.60
L 712.20 525.60
L 682.80 525.60
L 682.80 555.00
L 682.80 584.40
L 712.20 584.40
L 741.60 584.40
L 741.60 555.00
M 67.20 485.40
L 67.20 456.00
L 37.80 456.00
L 8.40 456.00
L 8.40 485.40
L 8.40 514.80
L 37.80 514.80
L 67.20 514.80
L 67.20 485.40
M 141.60 485.40
L 141.60 456.00
L 109.80 456.00
L 78.00 456.00
L 78.00 485.40
L 78.00 514.80
L 109.80 514.80
L 141.60 514.80
L 141.60 485.40
M 218.40 485.40
L 218.40 456.00
L 185.40 456.00
L 152.40 456.00
L 152.40 485.40
L 152.40 514.80
L 185.40 514.80
L 218.40 514.80
L 218.40 485.40
M 294.00 485.40
L 294.00 456.00
L 261.60 456.00
L 229.20 456.00
L 229.20 485.40
L 229.20 514.80
L 261.60 514.80
L 294.00 514.80
L 294.00 485.40
M 370.80 485.40
L 370.80 456.00
L 337.80 456.00
L 304.80 456.00
L 304.80 485.40
L 304.80 514.80
L 337.80 514.80
L 370.80 514.80
L 370.80 485.40
M 445.20 485.40
L 445.20 456.00
L 413.40 456.00
L 381.60 456.00
L 381.60 485.40
L 381.60 514.80
L 413.40 514.80
L 445.20 514.80
L 445.20 485.40
M 520.80 485.40
L 520.80 456.00
L 488.40 456.00
L 456.00 456.00
L 456.00 485.40
L 456.00 514.80
L 488.40 514.80
L 520.80 514.80
L 520.80 485.40
M 597.60 485.40
L 597.60 456.00
L 564.60 456.00
L 531.60 456.00
L 531.60 485.40
L 531.60 514.80
L 564.60 514.80
L 597.60 514.80
L 597.60 485.40
M 672.00 485.40
L 672.00 456.00
L 640.20 456.00
L 608.40 456.00
L 608.40 485.40
L 608.40 514.80
L 640.20 514.80
L 672.00 514.80
L 672.00 485.40
M 741.60 485.40
L 741.60 456.00
L 712.20 456.00
L 682.80 456.00
L 682.80 485.40
L 682.80 514.80
L 712.20 514.80
L 741.60 514.80
L 741.60 485.40"/>
<path fill="#c57a36" stroke="none" d="
M 13.20 555.00
L 13.20 530.40
L 37.80 530.40
L 62.40 530.40
L 62.40 555.00
L 62.40 579.60
L 37.80 579.60
L 13.20 579.60
L 13.20 555.00"/>
<path fill="#c57a36" stroke="none" d="
M 82.80 555.00
L 82.80 530.40
L 109.80 530.40
L 136.80 530.40
L 136.80 555.00
L 136.80 579.60
L 109.80 579.60
L 82.80 579.60
L 82.80 555.00"/>
<path fill="#c57a36" stroke="none" d="
M 157.20 555.00
L 157.20 530.40
L 185.40 530.40
L 213.60 530.40
L 213.60 555.00
L 213.60 579.60
L 185.40 579.60
L 157.20 579.60
L 157.20 555.00"/>
<path fill="#c57a36" stroke="none" d="
M 234.00 555.00
L 234.00 530.40
L 261.60 530.40
L 289.20 530.40
L 289.20 555.00
L 289.20 579.60
L 261.60 579.60
L 234.00 579.60
L 234.00 555.00"/>
<path fill="#c57a36" stroke="none" d="
M 309.60 555.00
L 309.60 530.40
L 337.80 530.40
L 366.00 530.40
L 366.00 555.00
L 366.00 579.60
L 337.80 579.60
L 309.60 579.60
L 309.60 555.00"/>
<path fill="#c57a36" stroke="none" d="
M 386.40 555.00
L 386.40 530.40
L 413.40 530.40
L 440.40 530.40
L 440.40 555.00
L 440.40 579.60
L 413.40 579.60
L 386.40 579.60
L 386.40 555.00"/>
<path fill="#c57a36" stroke="none" d="
M 460.80 555.00
L 460.80 530.40
L 488.40 530.40
L 516.00 530.40
L 516.00 555.00
L 516.00 579.60
L 488.40 579.60
L 460.80 579.60
L 460.80 555.00"/>
<path fill="#c57a36" stroke="none" d="
M 536.40 555.00
L 536.40 530.40
L 564.60 530.40
L 592.80 530.40
L 592.80 555.00
L 592.80 579.60
L 564.60 579.60
L 536.40 579.60
L 536.40 555.00"/>
<path fill="#c57a36" stroke="none" d="
M 613.20 555.00
L 613.20 530.40
L 640.20 530.40
L 667.20 530.40
L 667.20 555.00
L 667.20 579.60
L 640.20 579.60
L 613.20 579.60
L 613.20 555.00"/>
<path fill="#c57a36" stroke="none" d="
M 687.60 555.00
L 687.60 530.40
L 712.20 530.40
L 736.80 530.40
L 736.80 555.00
L 736.80 579.60
L 712.20 579.60
L 687.60 579.60
L 687.60 555.00"/>
<path fill="#c57a36" stroke="none" d="
M 13.48 485.70
L 13.80 461.40
L 38.10 461.08
L 62.40 460.75
L 62.40 485.38
L 62.40 510.00
L 37.78 510.00
L 13.15 510.00
L 13.48 485.70"/>
<path fill="#c57a36" stroke="none" d="
M 82.80 485.40
L 82.80 460.80
L 109.80 460.80
L 136.80 460.80
L 136.80 485.40
L 136.80 510.00
L 109.80 510.00
L 82.80 510.00
L 82.80 485.40"/>
<path fill="#c57a36" stroke="none" d="
M 157.20 485.40
L 157.20 460.80
L 185.40 460.80
L 213.60 460.80
L 213.60 485.40
L 213.60 510.00
L 185.40 510.00
L 157.20 510.00
L 157.20 485.40"/>
<path fill="#c57a36" stroke="none" d="
M 234.00 485.40
L 234.00 460.80
L 261.60 460.80
L 289.20 460.80
L 289.20 485.40
L 289.20 510.00
L 261.60 510.00
L 234.00 510.00
L 234.00 485.40"/>
<path fill="#c57a36" stroke="none" d="
M 309.60 485.40
L 309.60 460.80
L 337.80 460.80
L 366.00 460.80
L 366.00 485.40
L 366.00 510.00
L 337.80 510.00
L 309.60 510.00
L 309.60 485.40"/>
<path fill="#c57a36" stroke="none" d="
M 386.40 485.40
L 386.40 460.80
L 413.40 460.80
L 440.40 460.80
L 440.40 485.40
L 440.40 510.00
L 413.40 510.00
L 386.40 510.00
L 386.40 485.40"/>
<path fill="#c57a36" stroke="none" d="
M 460.80 485.40
L 460.80 460.80
L 488.40 460.80
L 516.00 460.80
L 516.00 485.40
L 516.00 510.00
L 488.40 510.00
L 460.80 510.00
L 460.80 485.40"/>
<path fill="#c57a36" stroke="none" d="
M 536.40 485.40
L 536.40 460.80
L 564.60 460.80
L 592.80 460.80
L 592.80 485.40
L 592.80 510.00
L 564.60 510.00
L 536.40 510.00
L 536.40 485.40"/>
<path fill="#c57a36" stroke="none" d="
M 613.20 485.40
L 613.20 460.80
L 640.20 460.80
L 667.20 460.80
L 667.20 485.40
L 667.20 510.00
L 640.20 510.00
L 613.20 510.00
L 613.20 485.40"/>
<path fill="#c57a36" stroke="none" d="
M 687.60 485.40
L 687.60 460.80
L 712.20 460.80
L 736.80 460.80
L 736.80 485.40
L 736.80 510.00
L 712.20 510.00
L 687.60 510.00
L 687.60 485.40"/>
</g>
</svg>
