<?xml version="1.0" encoding="UTF-8" standalone="no"?>
<!DOCTYPE svg PUBLIC "-//W3C//DTD SVG 1.1//EN"
"http://www.w3.org/Graphics/SVG/1.1/DTD/svg11.dtd">
<svg width="591px" height="600px"
xmlns="http://www.w3.org/2000/svg" version="1.1">
<g transform="translate(0000, 0000) scale(1.0000, 1.0000)">
<path fill="#000000" stroke="none" d="
M 1.89 598.11
C 0.04 596.26 0.00 594.96 0.00 537.17
C 0.00 479.37 0.04 478.07 1.89 476.22
C 3.76 474.35 5.04 474.33 144.69 474.33
L 285.59 474.33
L 285.34 435.98
L 285.10 397.62
L 274.99 391.80
C 269.43 388.60 261.34 383.44 257.02 380.33
C 246.18 372.54 227.65 353.77 220.84 343.70
L 215.26 335.43
L 169.84 335.43
L 124.42 335.43
L 121.07 338.66
C 116.17 343.41 99.98 353.93 91.05 358.20
C 86.78 360.24 78.69 363.02 73.09 364.39
C 63.72 366.66 62.34 366.78 56.33 365.77
C 39.65 362.98 30.68 357.80 15.38 342.13
C 3.65 330.12 1.17 325.62 2.20 318.09
C 5.80 291.58 11.64 274.05 19.84 265.16
C 24.35 260.28 31.70 257.00 38.10 257.02
C 44.06 257.04 56.68 261.83 65.80 267.53
C 74.99 273.28 88.82 284.01 102.54 296.05
C 107.68 300.56 112.01 304.14 112.14 304.01
C 112.40 303.74 122.79 261.17 139.03 193.70
C 144.36 171.61 152.91 136.11 158.05 114.80
C 163.19 93.50 171.24 60.11 175.93 40.63
C 180.63 21.15 184.86 4.28 185.32 3.16
C 186.43 0.47 189.86 -0.61 191.63 1.15
C 192.36 1.90 196.95 18.84 201.80 38.81
C 210.03 72.64 214.63 91.73 239.44 194.65
C 244.63 216.21 253.01 250.87 258.05 271.65
L 267.23 309.45
L 292.93 309.70
L 318.63 309.95
L 317.70 307.51
C 316.31 303.86 316.59 293.90 318.23 288.36
C 319.97 282.51 322.53 280.89 334.83 277.82
C 344.63 275.38 348.32 273.96 347.33 273.02
C 346.90 272.63 343.58 270.72 339.94 268.79
C 336.30 266.86 332.65 264.70 331.83 263.98
C 331.01 263.26 330.00 262.68 329.58 262.68
C 327.88 262.68 311.07 249.51 303.69 242.40
C 295.66 234.66 287.28 223.24 283.50 214.88
C 281.53 210.53 281.42 209.09 281.64 191.95
C 281.91 170.37 281.17 167.71 273.74 163.23
C 268.41 160.03 266.63 159.99 263.05 162.99
C 261.51 164.30 259.58 165.35 258.77 165.35
C 256.48 165.35 254.37 161.51 254.39 157.35
C 254.42 151.37 257.65 145.63 265.06 138.39
C 278.30 125.43 279.76 123.52 280.69 118.00
C 287.18 79.48 296.35 29.21 297.87 23.76
C 301.49 10.85 305.82 5.38 314.76 2.40
C 319.32 0.89 319.71 0.90 323.59 2.66
C 327.77 4.54 331.12 7.28 332.69 10.06
C 333.47 11.45 333.96 11.23 336.55 8.27
C 339.64 4.75 346.14 1.89 351.03 1.89
C 354.68 1.89 360.45 4.95 363.40 8.47
C 368.86 14.95 368.08 22.70 356.39 77.95
C 346.32 125.54 346.33 125.25 354.24 143.29
C 354.96 144.93 355.55 146.79 355.55 147.42
C 355.55 148.04 356.64 150.59 357.99 153.06
C 360.53 157.71 364.07 159.95 373.04 162.59
C 375.12 163.19 378.22 164.28 379.92 165.00
C 381.63 165.71 383.53 166.30 384.13 166.30
C 385.31 166.30 399.21 172.86 399.99 173.78
C 400.24 174.09 402.06 175.18 404.01 176.21
C 405.96 177.23 407.55 178.39 407.55 178.80
C 407.55 179.20 408.00 179.53 408.54 179.53
C 409.50 179.53 419.38 186.56 421.26 188.58
C 421.78 189.14 424.12 191.03 426.47 192.77
C 428.81 194.52 431.42 196.62 432.27 197.42
C 433.12 198.24 436.30 201.02 439.33 203.62
C 442.35 206.22 445.59 209.09 446.52 210.00
C 447.45 210.91 448.49 211.65 448.82 211.65
C 449.14 211.65 450.40 212.71 451.61 214.02
C 452.81 215.31 454.09 216.38 454.45 216.38
C 454.81 216.38 455.57 216.94 456.15 217.64
C 458.97 221.03 484.31 240.00 486.02 240.00
C 486.55 240.00 486.98 240.34 486.98 240.75
C 486.98 241.16 489.22 242.66 491.95 244.09
C 494.68 245.52 497.55 247.09 498.33 247.56
C 500.31 248.78 509.75 252.90 512.04 253.54
C 513.08 253.83 516.40 254.93 519.43 255.98
C 522.44 257.03 527.77 258.58 531.25 259.41
C 551.03 264.16 567.97 271.87 575.87 279.72
C 580.68 284.49 581.24 285.50 582.29 291.17
C 583.54 297.93 583.63 303.39 582.57 307.09
C 582.05 308.89 582.40 309.94 584.08 311.53
C 586.07 313.43 586.27 314.42 586.27 322.63
C 586.27 337.10 601.27 335.43 470.85 335.43
L 359.22 335.43
L 361.72 339.45
C 366.32 346.84 373.42 362.30 375.06 368.50
C 379.93 386.85 374.50 401.30 360.40 407.57
C 353.75 410.50 341.73 412.36 334.27 411.59
C 328.99 411.04 314.32 408.15 309.45 406.71
L 307.32 406.08
L 307.32 440.20
L 307.32 474.33
L 447.27 474.33
C 585.96 474.33 587.24 474.35 589.11 476.22
C 590.96 478.07 591.00 479.37 591.00 537.17
C 591.00 594.96 590.96 596.26 589.11 598.11
C 587.23 599.99 585.96 600.00 295.50 600.00
C 5.04 600.00 3.77 599.99 1.89 598.11
M 585.33 594.33
C 587.17 592.49 587.22 591.18 587.22 537.17
C 587.22 483.15 587.17 481.84 585.33 480.00
C 583.44 478.12 582.18 478.11 295.50 478.11
C 8.82 478.11 7.56 478.12 5.67 480.00
C 3.83 481.84 3.78 483.15 3.78 537.17
C 3.78 591.18 3.83 592.49 5.67 594.33
C 7.56 596.21 8.82 596.22 295.50 596.22
C 582.18 596.22 583.44 596.21 585.33 594.33
M 300.70 439.56
L 300.70 404.79
L 296.45 402.72
L 292.19 400.66
L 292.19 437.49
L 292.19 474.33
L 296.45 474.33
L 300.70 474.33
L 300.70 439.56
M 346.33 404.39
C 349.83 403.89 354.09 402.90 355.78 402.20
C 358.57 401.05 357.98 400.97 349.32 401.37
C 314.97 402.96 264.42 376.22 240.66 343.88
L 234.46 335.43
L 228.75 335.43
L 223.04 335.43
L 227.10 341.34
C 229.33 344.59 236.49 352.56 243.00 359.07
C 259.53 375.59 276.03 386.57 297.44 395.27
C 308.10 399.61 319.65 402.86 329.56 404.31
C 337.38 405.44 339.04 405.45 346.33 404.39
M 359.02 393.13
C 361.18 392.14 363.41 390.48 363.98 389.43
C 368.29 381.39 359.46 365.00 340.09 345.12
L 330.67 335.43
L 319.00 335.43
L 307.32 335.43
L 307.32 360.51
L 307.32 385.58
L 311.60 387.41
C 315.70 389.17 330.73 393.47 335.69 394.31
C 336.99 394.53 341.88 394.75 346.56 394.81
C 353.07 394.89 356.00 394.50 359.02 393.13
M 300.70 359.53
L 300.70 335.43
L 296.45 335.43
L 292.19 335.43
L 292.19 357.07
L 292.19 378.71
L 296.21 381.13
C 298.42 382.46 300.33 383.57 300.46 383.58
C 300.60 383.60 300.70 372.77 300.70 359.53
M 285.26 335.74
C 285.06 335.56 275.44 335.51 263.89 335.65
L 242.88 335.91
L 247.54 342.05
C 253.94 350.48 265.48 361.26 276.16 368.81
L 285.10 375.13
L 285.35 355.62
C 285.50 344.88 285.45 335.94 285.26 335.74
M 367.38 365.92
C 364.95 359.43 356.86 343.80 353.60 339.29
C 350.90 335.57 350.62 335.43 345.51 335.43
L 340.22 335.43
L 347.30 342.95
C 355.36 351.51 362.20 360.31 365.82 366.77
C 368.91 372.26 369.60 371.88 367.38 365.92
M 69.78 360.40
C 73.79 359.57 80.26 357.52 84.16 355.83
C 92.54 352.21 106.72 343.58 112.05 338.86
L 115.84 335.51
L 106.52 335.47
L 97.22 335.43
L 93.05 339.10
C 84.34 346.76 68.50 353.10 60.52 352.11
C 50.86 350.92 39.12 345.15 31.10 337.64
C 28.94 335.61 27.91 335.37 22.65 335.62
L 16.65 335.91
L 19.90 339.62
C 24.76 345.14 36.03 353.79 42.14 356.68
C 47.04 359.00 56.59 361.63 60.79 361.81
C 61.73 361.85 65.77 361.22 69.78 360.40
M 77.05 343.06
C 81.22 340.96 85.69 338.40 87.00 337.36
L 89.36 335.47
L 63.53 335.45
C 48.43 335.44 37.93 335.78 38.24 336.28
C 38.53 336.76 41.21 338.77 44.21 340.75
C 56.43 348.89 64.34 349.44 77.05 343.06
M 577.57 327.69
C 579.04 326.22 579.04 319.13 577.57 317.67
C 576.69 316.79 513.02 316.54 296.73 316.54
C 18.28 316.54 17.01 316.54 15.13 318.43
C 14.09 319.46 13.24 321.37 13.24 322.68
C 13.24 323.98 14.09 325.89 15.13 326.93
C 17.01 328.81 18.28 328.82 296.73 328.82
C 513.02 328.82 576.69 328.56 577.57 327.69
M 257.63 306.85
C 256.88 304.64 241.62 242.88 223.72 169.61
C 205.81 96.33 190.69 35.14 190.10 33.63
C 189.47 31.96 188.70 31.22 188.18 31.74
C 187.70 32.22 172.82 92.34 155.10 165.35
C 125.24 288.36 121.03 305.43 119.50 309.41
C 119.00 310.71 126.36 310.87 188.96 310.87
L 258.98 310.87
L 257.63 306.85
M 20.31 301.18
C 23.95 281.74 26.83 276.00 34.71 272.38
L 39.92 270.00
L 45.65 271.74
C 55.40 274.69 61.67 279.29 84.63 300.37
L 95.03 309.91
L 102.12 309.89
L 109.22 309.86
L 102.60 303.50
C 78.58 280.42 49.91 261.82 38.30 261.79
C 26.16 261.75 16.35 274.31 10.87 296.86
C 7.60 310.37 7.51 309.92 13.60 309.92
L 18.68 309.92
L 20.31 301.18
M 78.48 302.15
C 55.02 279.69 43.95 273.17 36.12 277.23
C 31.20 279.77 26.68 289.29 25.09 300.47
C 24.76 302.82 24.26 305.90 23.99 307.32
L 23.49 309.92
L 55.01 309.88
L 86.52 309.85
L 78.48 302.15
M 576.64 305.20
C 577.90 299.73 577.16 292.30 575.27 291.58
C 574.57 291.31 573.98 290.31 573.98 289.37
C 573.98 287.54 569.01 281.57 567.49 281.57
C 566.98 281.57 566.43 281.25 566.25 280.87
C 565.88 280.02 560.12 275.91 559.30 275.91
C 558.99 275.91 556.52 274.91 553.83 273.69
C 546.72 270.48 542.05 268.75 536.16 267.17
C 533.30 266.39 528.19 265.01 524.81 264.09
C 513.12 260.93 504.45 257.82 496.44 253.94
C 488.25 249.97 478.26 243.93 477.69 242.62
C 477.51 242.22 476.80 241.89 476.11 241.89
C 475.42 241.89 474.71 241.55 474.53 241.14
C 474.36 240.73 472.62 239.41 470.67 238.23
C 468.72 237.04 467.13 235.67 467.13 235.20
C 467.13 234.72 466.52 234.33 465.78 234.33
C 465.05 234.33 464.31 234.01 464.13 233.62
C 463.96 233.23 461.69 231.22 459.09 229.15
C 456.49 227.08 454.22 225.06 454.05 224.66
C 453.87 224.27 453.32 223.94 452.82 223.94
C 452.32 223.94 450.97 222.97 449.82 221.80
C 448.68 220.63 445.19 217.57 442.07 215.00
C 438.95 212.44 435.65 209.59 434.74 208.68
C 433.84 207.76 430.01 204.56 426.23 201.54
C 422.46 198.53 418.81 195.52 418.11 194.86
C 417.42 194.21 415.29 192.54 413.38 191.14
C 411.48 189.75 407.75 186.99 405.10 185.02
C 402.46 183.03 399.79 181.42 399.19 181.42
C 398.59 181.42 398.10 181.02 398.10 180.54
C 398.10 180.05 397.14 179.36 395.97 178.99
C 394.80 178.63 393.62 178.06 393.37 177.75
C 392.10 176.19 378.22 170.54 371.12 168.69
C 368.15 167.92 365.24 166.91 364.65 166.45
C 364.07 165.99 362.49 165.35 361.14 165.03
C 357.23 164.11 350.82 156.70 350.82 153.11
C 350.82 150.56 342.79 135.73 339.62 132.43
C 331.09 123.53 324.13 120.66 311.13 120.66
C 304.27 120.66 300.61 121.15 296.11 122.71
C 288.27 125.42 286.02 126.89 280.27 133.00
L 275.43 138.14
L 279.16 143.72
C 282.55 148.79 284.37 150.18 285.76 148.79
C 286.03 148.51 284.83 146.85 283.08 145.11
C 279.27 141.30 279.00 138.15 282.16 134.49
C 284.67 131.57 288.47 131.20 297.44 133.03
C 308.08 135.19 310.62 136.25 314.18 139.98
C 317.36 143.33 317.72 144.21 317.72 148.74
C 317.72 155.64 315.74 159.83 309.40 166.32
C 300.98 174.94 297.11 174.98 288.29 166.58
C 282.19 160.77 281.51 160.64 285.13 165.96
C 287.51 169.46 287.52 169.55 287.39 189.40
C 287.24 212.07 287.32 212.49 294.67 222.02
C 302.51 232.18 319.17 248.28 324.44 250.77
C 325.42 251.24 326.23 251.99 326.23 252.43
C 326.23 252.87 326.84 253.23 327.57 253.23
C 328.31 253.23 329.05 253.56 329.23 253.96
C 329.83 255.35 338.25 260.35 350.28 266.46
C 356.94 269.83 362.61 273.17 362.87 273.86
C 363.15 274.54 362.78 275.66 362.06 276.34
C 360.80 277.53 358.29 278.31 337.16 284.09
C 331.99 285.51 327.03 287.40 326.14 288.28
C 324.31 290.11 322.78 300.83 323.86 304.23
C 324.24 305.42 326.20 307.08 328.45 308.10
C 332.24 309.82 336.87 309.88 453.96 309.90
L 575.55 309.92
L 576.64 305.20
M 303.13 161.29
C 303.72 159.52 301.31 154.96 299.78 154.96
C 298.44 154.96 295.97 158.94 295.97 161.10
C 295.97 162.17 296.67 164.04 297.53 165.27
L 299.09 167.49
L 300.82 165.24
C 301.78 164.00 302.82 162.23 303.13 161.29
M 296.33 149.17
C 299.45 147.75 302.82 148.71 306.75 152.17
C 310.19 155.19 310.47 155.11 311.49 150.84
C 312.39 147.10 310.21 144.16 304.37 141.20
C 298.88 138.42 297.22 138.69 295.86 142.59
C 295.33 144.11 294.29 145.60 293.54 145.88
C 292.79 146.17 292.19 147.65 292.19 149.26
C 292.19 152.02 290.04 155.09 287.35 156.20
C 286.33 156.61 286.43 157.05 287.84 158.18
C 289.53 159.54 289.77 159.35 291.82 154.93
C 293.09 152.18 294.96 149.79 296.33 149.17
M 264.88 152.30
C 267.63 150.20 271.92 148.52 275.44 148.15
L 278.09 147.87
L 275.28 144.57
L 272.48 141.26
L 268.55 145.04
C 261.48 151.82 258.96 156.80 264.88 152.30
M 290.34 140.27
C 291.34 139.06 291.28 138.53 289.98 137.23
C 288.51 135.76 288.30 135.76 286.84 137.23
C 285.53 138.53 285.48 139.06 286.48 140.27
C 287.15 141.07 288.01 141.73 288.41 141.73
C 288.81 141.73 289.67 141.07 290.34 140.27
M 341.33 116.93
C 342.44 114.23 356.91 44.11 358.83 32.13
C 361.28 16.85 360.60 12.83 355.11 9.87
C 349.21 6.70 342.21 9.85 338.74 17.23
C 335.11 24.95 329.37 57.48 330.53 63.70
C 330.99 66.10 332.02 67.52 334.28 68.85
C 338.22 71.18 342.04 77.64 343.45 84.36
C 345.50 94.14 340.61 106.58 333.20 110.38
L 329.66 112.20
L 333.54 114.64
C 335.67 115.98 337.69 117.53 338.02 118.07
C 339.02 119.68 340.40 119.20 341.33 116.93
M 295.03 111.02
C 297.24 110.24 300.03 109.61 301.23 109.61
C 303.38 109.61 303.36 109.53 300.24 104.89
C 293.92 95.52 293.67 84.19 299.55 74.67
C 302.81 69.41 307.94 66.43 316.49 64.86
L 322.89 63.68
L 325.45 44.83
C 329.31 16.41 328.99 12.78 322.48 9.46
C 319.42 7.91 318.78 7.87 315.84 9.11
C 306.12 13.19 304.83 17.18 295.52 71.81
C 292.11 91.82 289.15 108.67 288.94 109.26
C 288.73 109.84 289.03 110.80 289.62 111.38
C 290.90 112.67 290.24 112.71 295.03 111.02
M 326.67 103.60
C 331.22 101.13 336.07 93.76 336.07 89.29
C 336.07 83.91 331.30 77.41 325.05 74.30
L 319.61 71.57
L 314.18 74.30
C 307.93 77.41 303.16 83.91 303.16 89.29
C 303.16 94.54 307.93 101.17 313.89 104.18
C 319.40 106.98 320.51 106.92 326.67 103.60"/>
<path fill="#000000" stroke="none" d="
M 6.62 564.57
L 6.62 541.42
L 29.79 541.42
L 52.95 541.42
L 52.95 564.57
L 52.95 587.72
L 29.79 587.72
L 6.62 587.72
L 6.62 564.57
M 49.17 564.57
L 49.17 545.20
L 29.79 545.20
L 10.40 545.20
L 10.40 564.57
L 10.40 583.94
L 29.79 583.94
L 49.17 583.94
L 49.17 564.57"/>
<path fill="#000000" stroke="none" d="
M 61.46 564.57
L 61.46 541.42
L 86.52 541.42
L 111.58 541.42
L 111.58 564.57
L 111.58 587.72
L 86.52 587.72
L 61.46 587.72
L 61.46 564.57
M 107.80 564.57
L 107.80 545.20
L 86.52 545.20
L 65.25 545.20
L 65.25 564.57
L 65.25 583.94
L 86.52 583.94
L 107.80 583.94
L 107.80 564.57"/>
<path fill="#000000" stroke="none" d="
M 120.09 564.57
L 120.09 541.42
L 146.10 541.42
L 172.10 541.42
L 172.10 564.57
L 172.10 587.72
L 146.10 587.72
L 120.09 587.72
L 120.09 564.57
M 168.32 564.57
L 168.32 545.20
L 146.10 545.20
L 123.87 545.20
L 123.87 564.57
L 123.87 583.94
L 146.10 583.94
L 168.32 583.94
L 168.32 564.57"/>
<path fill="#000000" stroke="none" d="
M 180.61 564.57
L 180.61 541.42
L 206.14 541.42
L 231.67 541.42
L 231.67 564.57
L 231.67 587.72
L 206.14 587.72
L 180.61 587.72
L 180.61 564.57
M 227.89 564.57
L 227.89 545.20
L 206.14 545.20
L 184.39 545.20
L 184.39 564.57
L 184.39 583.94
L 206.14 583.94
L 227.89 583.94
L 227.89 564.57"/>
<path fill="#000000" stroke="none" d="
M 240.18 564.57
L 240.18 541.42
L 266.19 541.42
L 292.19 541.42
L 292.19 564.57
L 292.19 587.72
L 266.19 587.72
L 240.18 587.72
L 240.18 564.57
M 288.41 564.57
L 288.41 545.20
L 266.19 545.20
L 243.96 545.20
L 243.96 564.57
L 243.96 583.94
L 266.19 583.94
L 288.41 583.94
L 288.41 564.57"/>
<path fill="#000000" stroke="none" d="
M 300.70 564.57
L 300.70 541.42
L 325.76 541.42
L 350.82 541.42
L 350.82 564.57
L 350.82 587.72
L 325.76 587.72
L 300.70 587.72
L 300.70 564.57
M 347.04 564.57
L 347.04 545.20
L 325.76 545.20
L 304.48 545.20
L 304.48 564.57
L 304.48 583.94
L 325.76 583.94
L 347.04 583.94
L 347.04 564.57"/>
<path fill="#000000" stroke="none" d="
M 359.33 564.57
L 359.33 541.42
L 384.86 541.42
L 410.39 541.42
L 410.39 564.57
L 410.39 587.72
L 384.86 587.72
L 359.33 587.72
L 359.33 564.57
M 406.61 564.57
L 406.61 545.20
L 384.86 545.20
L 363.11 545.20
L 363.11 564.57
L 363.11 583.94
L 384.86 583.94
L 406.61 583.94
L 406.61 564.57"/>
<path fill="#000000" stroke="none" d="
M 418.90 564.57
L 418.90 541.42
L 444.90 541.42
L 470.91 541.42
L 470.91 564.57
L 470.91 587.72
L 444.90 587.72
L 418.90 587.72
L 418.90 564.57
M 467.13 564.57
L 467.13 545.20
L 444.90 545.20
L 422.68 545.20
L 422.68 564.57
L 422.68 583.94
L 444.90 583.94
L 467.13 583.94
L 467.13 564.57"/>
<path fill="#000000" stroke="none" d="
M 479.42 564.57
L 479.42 541.42
L 504.48 541.42
L 529.54 541.42
L 529.54 564.57
L 529.54 587.72
L 504.48 587.72
L 479.42 587.72
L 479.42 564.57
M 525.75 564.57
L 525.75 545.20
L 504.48 545.20
L 483.20 545.20
L 483.20 564.57
L 483.20 583.94
L 504.48 583.94
L 525.75 583.94
L 525.75 564.57"/>
<path fill="#000000" stroke="none" d="
M 538.05 564.57
L 538.05 541.42
L 561.21 541.42
L 584.38 541.42
L 584.38 564.57
L 584.38 587.72
L 561.21 587.72
L 538.05 587.72
L 538.05 564.57
M 580.60 564.57
L 580.60 545.20
L 561.21 545.20
L 541.83 545.20
L 541.83 564.57
L 541.83 583.94
L 561.21 583.94
L 580.60 583.94
L 580.60 564.57"/>
<path fill="#000000" stroke="none" d="
M 6.62 509.76
L 6.62 486.61
L 29.79 486.61
L 52.95 486.61
L 52.95 509.76
L 52.95 532.91
L 29.79 532.91
L 6.62 532.91
L 6.62 509.76
M 49.17 509.76
L 49.17 490.39
L 29.79 490.39
L 10.40 490.39
L 10.40 509.76
L 10.40 529.13
L 29.79 529.13
L 49.17 529.13
L 49.17 509.76"/>
<path fill="#000000" stroke="none" d="
M 61.46 509.76
L 61.46 486.61
L 86.52 486.61
L 111.58 486.61
L 111.58 509.76
L 111.58 532.91
L 86.52 532.91
L 61.46 532.91
L 61.46 509.76
M 107.80 509.76
L 107.80 490.39
L 86.52 490.39
L 65.25 490.39
L 65.25 509.76
L 65.25 529.13
L 86.52 529.13
L 107.80 529.13
L 107.80 509.76"/>
<path fill="#000000" stroke="none" d="
M 120.09 509.76
L 120.09 486.61
L 146.10 486.61
L 172.10 486.61
L 172.10 509.76
L 172.10 532.91
L 146.10 532.91
L 120.09 532.91
L 120.09 509.76
M 168.32 509.76
L 168.32 490.39
L 146.10 490.39
L 123.87 490.39
L 123.87 509.76
L 123.87 529.13
L 146.10 529.13
L 168.32 529.13
L 168.32 509.76"/>
<path fill="#000000" stroke="none" d="
M 180.61 509.76
L 180.61 486.61
L 206.14 486.61
L 231.67 486.61
L 231.67 509.76
L 231.67 532.91
L 206.14 532.91
L 180.61 532.91
L 180.61 509.76
M 227.89 509.76
L 227.89 490.39
L 206.14 490.39
L 184.39 490.39
L 184.39 509.76
L 184.39 529.13
L 206.14 529.13
L 227.89 529.13
L 227.89 509.76"/>
<path fill="#000000" stroke="none" d="
M 240.18 509.76
L 240.18 486.61
L 266.19 486.61
L 292.19 486.61
L 292.19 509.76
L 292.19 532.91
L 266.19 532.91
L 240.18 532.91
L 240.18 509.76
M 288.41 509.76
L 288.41 490.39
L 266.19 490.39
L 243.96 490.39
L 243.96 509.76
L 243.96 529.13
L 266.19 529.13
L 288.41 529.13
L 288.41 509.76"/>
<path fill="#000000" stroke="none" d="
M 300.70 509.76
L 300.70 486.61
L 325.76 486.61
L 350.82 486.61
L 350.82 509.76
L 350.82 532.91
L 325.76 532.91
L 300.70 532.91
L 300.70 509.76
M 347.04 509.76
L 347.04 490.39
L 325.76 490.39
L 304.48 490.39
L 304.48 509.76
L 304.48 529.13
L 325.76 529.13
L 347.04 529.13
L 347.04 509.76"/>
<path fill="#000000" stroke="none" d="
M 359.33 509.76
L 359.33 486.61
L 384.86 486.61
L 410.39 486.61
L 410.39 509.76
L 410.39 532.91
L 384.86 532.91
L 359.33 532.91
L 359.33 509.76
M 406.61 509.76
L 406.61 490.39
L 384.86 490.39
L 363.11 490.39
L 363.11 509.76
L 363.11 529.13
L 384.86 529.13
L 406.61 529.13
L 406.61 509.76"/>
<path fill="#000000" stroke="none" d="
M 418.90 509.76
L 418.90 486.61
L 444.90 486.61
L 470.91 486.61
L 470.91 509.76
L 470.91 532.91
L 444.90 532.91
L 418.90 532.91
L 418.90 509.76
M 467.13 509.76
L 467.13 490.39
L 444.90 490.39
L 422.68 490.39
L 422.68 509.76
L 422.68 529.13
L 444.90 529.13
L 467.13 529.13
L 467.13 509.76"/>
<path fill="#000000" stroke="none" d="
M 479.42 509.76
L 479.42 486.61
L 504.48 486.61
L 529.54 486.61
L 529.54 509.76
L 529.54 532.91
L 504.48 532.91
L 479.42 532.91
L 479.42 509.76
M 525.75 509.76
L 525.75 490.39
L 504.48 490.39
L 483.20 490.39
L 483.20 509.76
L 483.20 529.13
L 504.48 529.13
L 525.75 529.13
L 525.75 509.76"/>
<path fill="#000000" stroke="none" d="
M 538.05 509.76
L 538.05 486.61
L 561.21 486.61
L 584.38 486.61
L 584.38 509.76
L 584.38 532.91
L 561.21 532.91
L 538.05 532.91
L 538.05 509.76
M 580.60 509.76
L 580.60 490.39
L 561.21 490.39
L 541.83 490.39
L 541.83 509.76
L 541.83 529.13
L 561.21 529.13
L 580.60 529.13
L 580.60 509.76"/>
<path fill="#ffbf53" stroke="none" d="
M 338.02 118.07
C 337.69 117.53 335.67 115.98 333.54 114.64
L 329.66 112.20
L 333.20 110.38
C 340.61 106.58 345.50 94.14 343.45 84.36
C 342.04 77.64 338.22 71.18 334.28 68.85
C 332.02 67.52 330.99 66.10 330.53 63.70
C 329.37 57.48 335.11 24.95 338.74 17.23
C 342.21 9.85 349.21 6.70 355.11 9.87
C 360.60 12.83 361.28 16.85 358.83 32.13
C 356.91 44.11 342.44 114.23 341.33 116.93
C 340.40 119.20 339.02 119.68 338.02 118.07"/>
<path fill="#ffbf53" stroke="none" d="
M 289.62 111.38
C 289.03 110.80 288.73 109.84 288.94 109.26
C 289.15 108.67 292.11 91.82 295.52 71.81
C 304.15 21.15 305.77 15.47 312.90 10.67
C 316.60 8.17 319.57 7.95 323.25 9.86
C 328.92 12.77 329.19 17.22 325.45 44.83
L 322.89 63.68
L 316.49 64.86
C 307.94 66.43 302.81 69.41 299.55 74.67
C 293.67 84.19 293.92 95.52 300.24 104.89
C 303.36 109.53 303.38 109.61 301.23 109.61
C 300.03 109.61 297.24 110.24 295.03 111.02
C 290.24 112.71 290.90 112.67 289.62 111.38"/>
<path fill="#c45a40" stroke="none" d="
M 119.50 309.41
C 119.81 308.62 120.70 305.74 121.47 303.03
C 122.83 298.29 187.23 33.39 187.23 32.54
C 187.23 32.31 187.80 32.13 188.50 32.13
C 189.20 32.13 190.25 33.72 190.82 35.67
C 191.41 37.62 206.37 98.53 224.08 171.02
C 241.78 243.52 256.88 304.64 257.63 306.85
L 258.98 310.87
L 188.96 310.87
C 126.36 310.87 119.00 310.71 119.50 309.41"/>
<path fill="#3cca58" stroke="none" d="
M 313.89 104.18
C 307.93 101.17 303.16 94.54 303.16 89.29
C 303.16 85.25 307.86 77.63 311.75 75.35
C 317.70 71.88 320.07 71.74 325.49 74.49
C 331.28 77.41 336.07 84.11 336.07 89.29
C 336.07 93.76 331.22 101.13 326.67 103.60
C 320.51 106.92 319.40 106.98 313.89 104.18"/>
<path fill="#cea381" stroke="none" d="
M 328.45 308.10
C 326.20 307.08 324.24 305.42 323.86 304.23
C 322.78 300.83 324.31 290.11 326.14 288.28
C 327.03 287.40 331.99 285.51 337.16 284.09
C 358.29 278.31 360.80 277.53 362.06 276.34
C 362.78 275.66 363.15 274.54 362.87 273.86
C 362.61 273.17 356.94 269.83 350.28 266.46
C 338.25 260.35 329.83 255.35 329.23 253.96
C 329.05 253.56 328.31 253.23 327.57 253.23
C 326.84 253.23 326.23 252.87 326.23 252.43
C 326.23 251.99 325.42 251.24 324.44 250.77
C 319.17 248.28 302.51 232.18 294.67 222.02
C 287.32 212.49 287.24 212.07 287.39 189.40
C 287.52 169.55 287.51 169.46 285.13 165.96
C 281.51 160.64 282.19 160.77 288.29 166.58
C 297.11 174.98 300.98 174.94 309.40 166.32
C 315.74 159.83 317.72 155.64 317.72 148.74
C 317.72 144.21 317.36 143.33 314.18 139.98
C 310.62 136.25 308.08 135.19 297.44 133.03
C 288.47 131.20 284.67 131.57 282.16 134.49
C 279.00 138.15 279.27 141.30 283.08 145.11
C 284.83 146.85 286.03 148.51 285.76 148.79
C 284.37 150.18 282.55 148.79 279.16 143.72
L 275.43 138.14
L 280.27 133.00
C 286.01 126.90 288.27 125.42 296.00 122.75
C 303.76 120.07 318.11 119.88 324.89 122.38
C 334.57 125.94 341.47 132.71 346.95 144.02
C 349.08 148.42 350.82 152.50 350.82 153.11
C 350.82 156.70 357.23 164.11 361.14 165.03
C 362.49 165.35 364.07 165.99 364.65 166.45
C 365.24 166.91 368.15 167.92 371.12 168.69
C 378.22 170.54 392.10 176.19 393.37 177.75
C 393.62 178.06 394.80 178.63 395.97 178.99
C 397.14 179.36 398.10 180.05 398.10 180.54
C 398.10 181.02 398.59 181.42 399.19 181.42
C 399.79 181.42 402.46 183.03 405.10 185.02
C 407.75 186.99 411.48 189.75 413.38 191.14
C 415.29 192.54 417.42 194.21 418.11 194.86
C 418.81 195.52 422.46 198.53 426.23 201.54
C 430.01 204.56 433.84 207.76 434.74 208.68
C 435.65 209.59 438.95 212.44 442.07 215.00
C 445.19 217.57 448.68 220.63 449.82 221.80
C 450.97 222.97 452.32 223.94 452.82 223.94
C 453.32 223.94 453.87 224.27 454.05 224.66
C 454.22 225.06 456.49 227.08 459.09 229.15
C 461.69 231.22 463.96 233.23 464.13 233.62
C 464.31 234.01 465.05 234.33 465.78 234.33
C 466.52 234.33 467.13 234.72 467.13 235.20
C 467.13 235.67 468.72 237.04 470.67 238.23
C 472.62 239.41 474.36 240.73 474.53 241.14
C 474.71 241.55 475.42 241.89 476.11 241.89
C 476.80 241.89 477.51 242.22 477.69 242.62
C 478.26 243.93 488.25 249.97 496.44 253.94
C 504.45 257.82 513.12 260.93 524.81 264.09
C 528.19 265.01 533.30 266.39 536.16 267.17
C 542.05 268.75 546.72 270.48 553.83 273.69
C 556.52 274.91 558.99 275.91 559.30 275.91
C 560.12 275.91 565.88 280.02 566.25 280.87
C 566.43 281.25 566.98 281.57 567.49 281.57
C 569.01 281.57 573.98 287.54 573.98 289.37
C 573.98 290.31 574.57 291.31 575.27 291.58
C 577.16 292.30 577.90 299.73 576.64 305.20
L 575.55 309.92
L 453.96 309.90
C 336.87 309.88 332.24 309.82 328.45 308.10"/>
<path fill="#eb2e00" stroke="none" d="
M 286.43 140.21
C 285.36 138.92 285.44 138.49 286.98 137.37
C 288.54 136.23 288.98 136.23 290.18 137.42
C 291.31 138.56 291.34 139.07 290.34 140.27
C 288.80 142.12 288.01 142.11 286.43 140.21"/>
<path fill="#216cc9" stroke="none" d="
M 287.84 158.18
C 286.43 157.05 286.33 156.61 287.35 156.20
C 289.97 155.13 292.19 152.06 292.19 149.50
C 292.19 148.04 293.03 146.15 294.08 145.26
C 295.12 144.37 295.97 143.02 295.97 142.24
C 295.97 141.48 296.81 140.40 297.85 139.85
C 299.32 139.06 300.73 139.36 304.45 141.24
C 310.21 144.16 312.38 147.12 311.49 150.84
C 310.47 155.11 310.19 155.19 306.75 152.17
C 300.27 146.48 295.31 147.39 291.82 154.93
C 289.77 159.35 289.53 159.54 287.84 158.18"/>
<path fill="#555151" stroke="none" d="
M 262.77 151.32
C 263.83 149.85 266.49 147.01 268.68 145.03
L 272.68 141.43
L 275.39 144.65
L 278.09 147.87
L 275.44 148.15
C 271.92 148.52 267.63 150.20 264.88 152.30
C 261.55 154.83 260.59 154.38 262.77 151.32"/>
<path fill="#fefefe" stroke="none" d="
M 297.45 165.15
C 295.42 162.26 295.60 159.11 297.93 156.78
C 300.08 154.64 302.01 155.40 303.09 158.84
C 303.58 160.37 300.45 167.24 299.26 167.24
C 299.07 167.24 298.25 166.30 297.45 165.15"/>
<path fill="#ffa153" stroke="none" d="
M 53.30 360.48
C 50.13 359.79 45.10 358.08 42.14 356.68
C 36.03 353.79 24.76 345.14 19.90 339.62
L 16.65 335.91
L 22.65 335.62
C 27.91 335.37 28.94 335.61 31.10 337.64
C 39.12 345.15 50.86 350.92 60.52 352.11
C 68.50 353.10 84.34 346.76 93.05 339.10
L 97.22 335.43
L 106.52 335.47
L 115.84 335.51
L 112.05 338.86
C 106.72 343.58 92.54 352.21 84.16 355.83
C 77.56 358.70 64.68 361.98 60.79 361.81
C 59.87 361.78 56.49 361.17 53.30 360.48"/>
<path fill="#ffa153" stroke="none" d="
M 8.51 308.27
C 8.51 303.81 13.74 285.90 17.00 279.15
C 22.65 267.49 30.07 261.69 39.24 261.77
C 49.98 261.87 79.53 281.34 102.60 303.50
L 109.22 309.86
L 102.12 309.89
L 95.03 309.91
L 84.63 300.37
C 61.67 279.29 55.40 274.69 45.65 271.74
L 39.92 270.00
L 34.71 272.38
C 26.83 276.00 23.95 281.74 20.31 301.18
L 18.68 309.92
L 13.60 309.92
C 9.38 309.92 8.51 309.64 8.51 308.27"/>
<path fill="#c55436" stroke="none" d="
M 292.19 437.49
L 292.19 400.66
L 296.45 402.72
L 300.70 404.79
L 300.70 439.56
L 300.70 474.33
L 296.45 474.33
L 292.19 474.33
L 292.19 437.49"/>
<path fill="#c55436" stroke="none" d="
M 296.21 381.13
L 292.19 378.71
L 292.19 357.07
L 292.19 335.43
L 296.45 335.43
L 300.70 335.43
L 300.70 359.53
C 300.70 372.77 300.60 383.60 300.46 383.58
C 300.33 383.57 298.42 382.46 296.21 381.13"/>
<path fill="#c55436" stroke="none" d="
M 15.13 326.93
C 12.92 324.72 12.69 321.43 14.58 318.84
C 15.90 317.04 19.99 317.01 296.03 316.77
C 502.80 316.59 576.48 316.81 577.42 317.59
C 579.01 318.91 579.11 326.14 577.57 327.69
C 576.69 328.56 513.02 328.82 296.73 328.82
C 18.28 328.82 17.01 328.81 15.13 326.93"/>
<path fill="#ef907a" stroke="none" d="
M 329.56 404.31
C 300.45 400.06 268.77 384.02 245.31 361.64
C 236.29 353.04 224.11 338.49 224.11 336.32
C 224.11 335.83 226.43 335.43 229.28 335.43
L 234.46 335.43
L 240.66 343.88
C 259.99 370.19 297.40 393.31 331.83 400.21
C 337.47 401.35 342.59 401.68 349.32 401.37
C 357.98 400.97 358.57 401.05 355.78 402.20
C 352.50 403.56 341.51 405.38 337.58 405.22
C 336.27 405.17 332.67 404.75 329.56 404.31"/>
<path fill="#ef907a" stroke="none" d="
M 365.82 366.77
C 362.20 360.31 355.36 351.51 347.30 342.95
L 340.22 335.43
L 345.51 335.43
C 350.62 335.43 350.90 335.57 353.60 339.29
C 358.64 346.24 369.84 369.66 368.68 370.81
C 368.47 371.02 367.20 369.20 365.82 366.77"/>
<path fill="#0885ff" stroke="none" d="
M 5.67 594.33
C 3.83 592.49 3.78 591.18 3.78 537.34
C 3.78 491.25 4.00 481.96 5.13 480.42
C 6.45 478.61 10.62 478.58 294.94 478.35
C 582.56 478.10 583.44 478.11 585.33 480.00
C 587.18 481.85 587.22 483.11 587.22 537.17
C 587.22 591.18 587.17 592.49 585.33 594.33
C 583.44 596.21 582.18 596.22 295.50 596.22
C 8.82 596.22 7.56 596.21 5.67 594.33
M 52.95 564.57
L 52.95 541.42
L 29.79 541.42
L 6.62 541.42
L 6.62 564.57
L 6.62 587.72
L 29.79 587.72
L 52.95 587.72
L 52.95 564.57
M 111.58 564.57
L 111.58 541.42
L 86.52 541.42
L 61.46 541.42
L 61.46 564.57
L 61.46 587.72
L 86.52 587.72
L 111.58 587.72
L 111.58 564.57
M 172.10 564.57
L 172.10 541.42
L 146.10 541.42
L 120.09 541.42
L 120.09 564.57
L 120.09 587.72
L 146.10 587.72
L 172.10 587.72
L 172.10 564.57
M 231.67 564.57
L 231.67 541.42
L 206.14 541.42
L 180.61 541.42
L 180.61 564.57
L 180.61 587.72
L 206.14 587.72
L 231.67 587.72
L 231.67 564.57
M 292.19 564.57
L 292.19 541.42
L 266.19 541.42
L 240.18 541.42
L 240.18 564.57
L 240.18 587.72
L 266.19 587.72
L 292.19 587.72
L 292.19 564.57
M 350.82 564.57
L 350.82 541.42
L 325.76 541.42
L 300.70 541.42
L 300.70 564.57
L 300.70 587.72
L 325.76 587.72
L 350.82 587.72
L 350.82 564.57
M 410.39 564.57
L 410.39 541.42
L 384.86 541.42
L 359.33 541.42
L 359.33 564.57
L 359.33 587.72
L 384.86 587.72
L 410.39 587.72
L 410.39 564.57
M 470.91 564.57
L 470.91 541.42
L 444.90 541.42
L 418.90 541.42
L 418.90 564.57
L 418.90 587.72
L 444.90 587.72
L 470.91 587.72
L 470.91 564.57
M 529.54 564.57
L 529.54 541.42
L 504.48 541.42
L 479.42 541.42
L 479.42 564.57
L 479.42 587.72
L 504.48 587.72
L 529.54 587.72
L 529.54 564.57
M 584.38 564.57
L 584.38 541.42
L 561.21 541.42
L 538.05 541.42
L 538.05 564.57
L 538.05 587.72
L 561.21 587.72
L 584.38 587.72
L 584.38 564.57
M 52.95 509.76
L 52.95 486.61
L 29.79 486.61
L 6.62 486.61
L 6.62 509.76
L 6.62 532.91
L 29.79 532.91
L 52.95 532.91
L 52.95 509.76
M 111.58 509.76
L 111.58 486.61
L 86.52 486.61
L 61.46 486.61
L 61.46 509.76
L 61.46 532.91
L 86.52 532.91
L 111.58 532.91
L 111.58 509.76
M 172.10 509.76
L 172.10 486.61
L 146.10 486.61
L 120.09 486.61
L 120.09 509.76
L 120.09 532.91
L 146.10 532.91
L 172.10 532.91
L 172.10 509.76
M 231.67 509.76
L 231.67 486.61
L 206.14 486.61
L 180.61 486.61
L 180.61 509.76
L 180.61 532.91
L 206.14 532.91
L 231.67 532.91
L 231.67 509.76
M 292.19 509.76
L 292.19 486.61
L 266.19 486.61
L 240.18 486.61
L 240.18 509.76
L 240.18 532.91
L 266.19 532.91
L 292.19 532.91
L 292.19 509.76
M 350.82 509.76
L 350.82 486.61
L 325.76 486.61
L 300.70 486.61
L 300.70 509.76
L 300.70 532.91
L 325.76 532.91
L 350.82 532.91
L 350.82 509.76
M 410.39 509.76
L 410.39 486.61
L 384.86 486.61
L 359.33 486.61
L 359.33 509.76
L 359.33 532.91
L 384.86 532.91
L 410.39 532.91
L 410.39 509.76
M 470.91 509.76
L 470.91 486.61
L 444.90 486.61
L 418.90 486.61
L 418.90 509.76
L 418.90 532.91
L 444.90 532.91
L 470.91 532.91
L 470.91 509.76
M 529.54 509.76
L 529.54 486.61
L 504.48 486.61
L 479.42 486.61
L 479.42 509.76
L 479.42 532.91
L 504.48 532.91
L 529.54 532.91
L 529.54 509.76
M 584.38 509.76
L 584.38 486.61
L 561.21 486.61
L 538.05 486.61
L 538.05 509.76
L 538.05 532.91
L 561.21 532.91
L 584.38 532.91
L 584.38 509.76"/>
<path fill="#c57a36" stroke="none" d="
M 10.40 564.57
L 10.40 545.20
L 29.79 545.20
L 49.17 545.20
L 49.17 564.57
L 49.17 583.94
L 29.79 583.94
L 10.40 583.94
L 10.40 564.57"/>
<path fill="#c57a36" stroke="none" d="
M 65.25 564.57
L 65.25 545.20
L 86.52 545.20
L 107.80 545.20
L 107.80 564.57
L 107.80 583.94
L 86.52 583.94
L 65.25 583.94
L 65.25 564.57"/>
<path fill="#c57a36" stroke="none" d="
M 123.87 564.57
L 123.87 545.20
L 146.10 545.20
L 168.32 545.20
L 168.32 564.57
L 168.32 583.94
L 146.10 583.94
L 123.87 583.94
L 123.87 564.57"/>
<path fill="#c57a36" stroke="none" d="
M 184.39 564.57
L 184.39 545.20
L 206.14 545.20
L 227.89 545.20
L 227.89 564.57
L 227.89 583.94
L 206.14 583.94
L 184.39 583.94
L 184.39 564.57"/>
<path fill="#c57a36" stroke="none" d="
M 243.96 564.57
L 243.96 545.20
L 266.19 545.20
L 288.41 545.20
L 288.41 564.57
L 288.41 583.94
L 266.19 583.94
L 243.96 583.94
L 243.96 564.57"/>
<path fill="#c57a36" stroke="none" d="
M 304.48 564.57
L 304.48 545.20
L 325.76 545.20
L 347.04 545.20
L 347.04 564.57
L 347.04 583.94
L 325.76 583.94
L 304.48 583.94
L 304.48 564.57"/>
<path fill="#c57a36" stroke="none" d="
M 363.11 564.57
L 363.11 545.20
L 384.86 545.20
L 406.61 545.20
L 406.61 564.57
L 406.61 583.94
L 384.86 583.94
L 363.11 583.94
L 363.11 564.57"/>
<path fill="#c57a36" stroke="none" d="
M 422.68 564.57
L 422.68 545.20
L 444.90 545.20
L 467.13 545.20
L 467.13 564.57
L 467.13 583.94
L 444.90 583.94
L 422.68 583.94
L 422.68 564.57"/>
<path fill="#c57a36" stroke="none" d="
M 483.20 564.57
L 483.20 545.20
L 504.48 545.20
L 525.75 545.20
L 525.75 564.57
L 525.75 583.94
L 504.48 583.94
L 483.20 583.94
L 483.20 564.57"/>
<path fill="#c57a36" stroke="none" d="
M 541.83 564.57
L 541.83 545.20
L 561.21 545.20
L 580.60 545.20
L 580.60 564.57
L 580.60 583.94
L 561.21 583.94
L 541.83 583.94
L 541.83 564.57"/>
<path fill="#c57a36" stroke="none" d="
M 10.62 510.00
L 10.87 490.87
L 30.02 490.61
L 49.17 490.36
L 49.17 509.74
L 49.17 529.13
L 29.77 529.13
L 10.36 529.13
L 10.62 510.00"/>
<path fill="#c57a36" stroke="none" d="
M 65.25 509.76
L 65.25 490.39
L 86.52 490.39
L 107.80 490.39
L 107.80 509.76
L 107.80 529.13
L 86.52 529.13
L 65.25 529.13
L 65.25 509.76"/>
<path fill="#c57a36" stroke="none" d="
M 123.87 509.76
L 123.87 490.39
L 146.10 490.39
L 168.32 490.39
L 168.32 509.76
L 168.32 529.13
L 146.10 529.13
L 123.87 529.13
L 123.87 509.76"/>
<path fill="#c57a36" stroke="none" d="
M 184.39 509.76
L 184.39 490.39
L 206.14 490.39
L 227.89 490.39
L 227.89 509.76
L 227.89 529.13
L 206.14 529.13
L 184.39 529.13
L 184.39 509.76"/>
<path fill="#c57a36" stroke="none" d="
M 243.96 509.76
L 243.96 490.39
L 266.19 490.39
L 288.41 490.39
L 288.41 509.76
L 288.41 529.13
L 266.19 529.13
L 243.96 529.13
L 243.96 509.76"/>
<path fill="#c57a36" stroke="none" d="
M 304.48 509.76
L 304.48 490.39
L 325.76 490.39
L 347.04 490.39
L 347.04 509.76
L 347.04 529.13
L 325.76 529.13
L 304.48 529.13
L 304.48 509.76"/>
<path fill="#c57a36" stroke="none" d="
M 363.11 509.76
L 363.11 490.39
L 384.86 490.39
L 406.61 490.39
L 406.61 509.76
L 406.61 529.13
L 384.86 529.13
L 363.11 529.13
L 363.11 509.76"/>
<path fill="#c57a36" stroke="none" d="
M 422.68 509.76
L 422.68 490.39
L 444.90 490.39
L 467.13 490.39
L 467.13 509.76
L 467.13 529.13
L 444.90 529.13
L 422.68 529.13
L 422.68 509.76"/>
<path fill="#c57a36" stroke="none" d="
M 483.20 509.76
L 483.20 490.39
L 504.48 490.39
L 525.75 490.39
L 525.75 509.76
L 525.75 529.13
L 504.48 529.13
L 483.20 529.13
L 483.20 509.76"/>
<path fill="#c57a36" stroke="none" d="
M 541.83 509.76
L 541.83 490.39
L 561.21 490.39
L 580.60 490.39
L 580.60 509.76
L 580.60 529.13
L 561.21 529.13
L 541.83 529.13
L 541.83 509.76"/>
</g>
</svg>
