<?xml version="1.0" encoding="UTF-8" standalone="no"?>
<!DOCTYPE svg PUBLIC "-//W3C//DTD SVG 1.1//EN"
"http://www.w3.org/Graphics/SVG/1.1/DTD/svg11.dtd">
<svg width="627px" height="600px"
xmlns="http://www.w3.org/2000/svg" version="1.1">
<g transform="translate(0000, 0000) scale(1.0000, 1.0000)">
<path fill="#000000" stroke="none" d="
M 2.01 598.00
C 0.04 596.03 0.00 594.66 0.00 533.39
C 0.00 472.12 0.04 470.74 2.01 468.78
C 3.99 466.80 5.35 466.78 153.50 466.78
L 302.99 466.78
L 302.73 426.12
L 302.46 385.45
L 291.74 379.28
C 285.84 375.90 277.26 370.43 272.68 367.13
C 261.17 358.87 241.52 338.97 234.30 328.30
L 228.37 319.53
L 180.18 319.53
L 132.00 319.53
L 128.45 322.96
C 123.24 327.99 106.07 339.15 96.60 343.67
C 92.06 345.83 83.49 348.78 77.54 350.23
C 67.61 352.64 66.14 352.77 59.76 351.70
C 42.06 348.73 32.54 343.24 16.31 326.63
C 3.87 313.90 1.24 309.13 2.34 301.14
C 6.15 273.05 12.35 254.46 21.05 245.04
C 25.83 239.86 33.63 236.38 40.42 236.40
C 46.74 236.42 60.13 241.50 69.82 247.55
C 80.17 254.00 97.03 267.30 113.32 281.81
L 125.30 292.49
L 144.41 292.49
L 163.52 292.49
L 163.49 197.08
L 163.47 101.67
L 156.16 89.16
L 148.84 76.65
L 141.16 72.91
C 132.97 68.93 131.59 67.02 132.74 61.23
C 133.26 58.72 132.86 58.23 128.88 56.29
C 124.12 53.98 122.71 51.24 123.71 46.21
C 124.23 43.69 123.84 43.20 119.85 41.27
C 115.09 38.95 113.68 36.21 114.69 31.18
C 115.20 28.67 114.81 28.18 110.82 26.24
C 105.94 23.87 104.38 20.63 105.96 16.16
C 107.71 11.17 112.09 11.00 122.64 15.50
C 124.12 16.12 124.40 15.70 124.42 12.88
C 124.45 9.42 125.87 2.20 126.69 1.38
C 126.94 1.12 128.71 0.66 130.62 0.35
C 135.72 -0.47 137.44 1.72 137.44 9.09
C 137.44 14.98 137.46 15.03 140.38 15.03
C 144.94 15.03 146.47 17.31 146.47 24.11
C 146.47 30.01 146.49 30.05 149.41 30.05
C 153.97 30.05 155.50 32.33 155.50 39.14
C 155.50 45.04 155.52 45.08 158.44 45.08
C 163.93 45.08 164.88 47.26 164.16 58.25
C 163.58 67.11 163.72 68.33 165.70 71.68
L 167.88 75.38
L 169.93 72.49
C 171.06 70.91 174.69 66.78 177.99 63.31
C 185.52 55.40 194.53 50.77 207.66 48.07
C 219.49 45.63 221.91 45.63 233.55 48.03
C 249.60 51.34 259.23 57.16 268.99 69.43
L 272.82 74.24
L 274.85 70.93
C 276.63 67.99 276.79 66.54 276.23 58.06
C 275.53 47.27 276.49 45.08 281.97 45.08
C 284.89 45.08 284.91 45.04 284.91 39.14
C 284.91 32.33 286.43 30.05 291.00 30.05
C 293.92 30.05 293.94 30.01 293.94 24.11
C 293.94 17.31 295.46 15.03 300.03 15.03
C 302.95 15.03 302.97 14.98 302.97 9.09
C 302.97 5.03 303.47 2.65 304.54 1.57
C 306.24 -0.12 310.66 -0.49 312.82 0.87
C 314.32 1.82 315.95 7.92 315.99 12.77
C 316.00 14.56 316.25 16.03 316.55 16.03
C 316.85 16.03 318.86 15.13 321.02 14.02
C 329.04 9.94 335.47 12.64 334.88 19.84
C 334.61 23.11 334.02 23.83 329.87 26.01
C 325.67 28.23 325.24 28.78 325.73 31.24
C 326.72 36.21 325.31 38.96 320.55 41.27
C 316.57 43.20 316.18 43.69 316.69 46.21
C 317.69 51.24 316.29 53.98 311.52 56.29
C 307.54 58.23 307.15 58.72 307.66 61.23
C 308.82 67.02 307.43 68.93 299.24 72.91
L 291.56 76.65
L 284.25 89.16
L 276.93 101.67
L 276.91 197.08
L 276.88 292.49
L 350.87 292.33
C 391.56 292.24 423.28 292.02 421.34 291.83
C 384.64 288.32 361.20 281.26 356.57 272.32
C 353.39 266.17 355.48 258.64 361.51 254.58
C 372.70 247.05 389.24 243.10 422.85 239.92
C 431.68 239.09 439.24 238.41 439.65 238.40
C 440.06 238.40 440.40 228.53 440.40 216.48
C 440.40 192.69 440.17 191.40 434.52 183.63
C 430.04 177.48 423.22 173.81 416.34 173.86
C 409.41 173.90 405.39 175.96 398.68 182.94
C 392.96 188.88 389.69 189.77 386.23 186.31
C 383.71 183.80 383.69 181.24 386.15 176.50
C 390.45 168.20 402.11 160.17 412.02 158.68
C 419.26 157.60 430.35 161.11 438.15 166.95
L 441.41 169.38
L 441.41 161.47
C 441.41 154.35 441.12 153.17 438.55 149.65
C 434.65 144.32 432.62 142.68 426.92 140.15
C 418.09 136.26 409.43 139.06 400.64 148.65
C 395.06 154.73 392.52 155.53 389.24 152.25
C 386.78 149.80 386.61 144.61 388.89 141.21
C 391.67 137.05 397.57 131.13 401.38 128.69
C 405.85 125.82 414.46 123.21 419.43 123.21
C 424.34 123.21 434.40 126.37 438.31 129.15
L 441.41 131.36
L 441.41 83.28
L 441.41 35.21
L 438.92 32.26
C 437.56 30.64 435.04 28.74 433.34 28.03
C 430.49 26.85 429.91 26.98 426.06 29.70
C 421.35 32.99 418.09 38.10 415.87 45.66
C 414.33 50.84 411.73 53.09 407.25 53.09
C 398.17 53.09 400.12 34.87 410.39 23.64
C 418.34 14.95 428.77 11.54 438.62 14.39
C 444.97 16.25 448.50 18.76 452.55 24.35
L 455.45 28.35
L 455.45 79.85
L 455.45 131.36
L 458.55 129.15
C 462.47 126.37 472.52 123.21 477.43 123.21
C 482.40 123.21 491.01 125.82 495.48 128.69
C 499.29 131.13 505.19 137.05 507.97 141.21
C 511.43 146.39 508.80 154.26 503.61 154.26
C 502.45 154.26 498.91 151.51 495.33 147.84
C 490.07 142.45 488.10 141.14 483.11 139.69
C 477.55 138.10 476.80 138.09 471.94 139.62
C 465.79 141.56 462.31 144.10 458.35 149.56
C 455.73 153.17 455.45 154.33 455.45 161.47
L 455.45 169.38
L 458.71 166.95
C 466.51 161.11 477.60 157.60 484.84 158.68
C 494.75 160.17 506.42 168.20 510.71 176.50
C 513.17 181.24 513.15 183.80 510.63 186.31
C 507.17 189.77 503.90 188.88 498.18 182.94
C 492.54 177.09 488.89 174.82 483.41 173.79
C 475.39 172.29 465.56 177.77 460.51 186.55
L 457.48 191.82
L 457.47 215.04
L 457.46 238.26
L 462.73 238.84
C 465.63 239.16 472.96 239.88 479.03 240.44
C 507.21 243.04 524.73 247.44 535.35 254.58
C 541.38 258.64 543.47 266.17 540.29 272.32
C 535.66 281.26 512.22 288.32 475.52 291.83
C 473.58 292.02 505.07 292.24 545.49 292.33
C 631.97 292.52 622.99 290.92 622.99 306.01
C 622.99 321.29 638.88 319.53 500.54 319.53
L 382.11 319.53
L 384.76 323.79
C 389.63 331.62 397.17 348.01 398.91 354.59
C 404.08 374.03 398.32 389.34 383.35 396.00
C 376.32 399.13 362.95 401.13 354.79 400.28
C 348.26 399.60 331.77 396.34 328.80 395.15
C 327.14 394.49 327.04 396.56 327.04 430.61
L 327.04 466.78
L 475.02 466.78
C 621.65 466.78 623.01 466.80 624.99 468.78
C 626.96 470.74 627.00 472.12 627.00 533.39
C 627.00 594.66 626.96 596.03 624.99 598.00
C 623.00 599.99 621.65 600.00 313.50 600.00
C 5.35 600.00 4.00 599.99 2.01 598.00
M 620.98 593.99
C 622.94 592.04 622.99 590.65 622.99 533.39
C 622.99 476.12 622.94 474.74 620.98 472.79
C 618.98 470.79 617.64 470.78 313.50 470.78
C 9.36 470.78 8.02 470.79 6.02 472.79
C 4.06 474.74 4.01 476.12 4.01 533.39
C 4.01 590.65 4.06 592.04 6.02 593.99
C 8.02 595.98 9.36 595.99 313.50 595.99
C 617.64 595.99 618.98 595.98 620.98 593.99
M 319.02 429.92
L 319.02 393.06
L 314.50 390.86
L 309.99 388.68
L 309.99 427.72
L 309.99 466.78
L 314.50 466.78
L 319.02 466.78
L 319.02 429.92
M 367.42 392.63
C 371.14 392.10 375.66 391.05 377.45 390.31
C 380.41 389.09 379.78 389.01 370.60 389.43
C 334.16 391.12 280.52 362.77 255.32 328.49
L 248.74 319.53
L 242.68 319.53
L 236.62 319.53
L 240.93 325.79
C 243.30 329.24 250.89 337.69 257.80 344.59
C 275.34 362.10 292.84 373.74 315.56 382.97
C 326.86 387.57 339.12 391.01 349.64 392.54
C 357.93 393.75 359.69 393.76 367.42 392.63
M 380.88 380.69
C 383.18 379.65 385.55 377.89 386.15 376.78
C 390.73 368.25 381.36 350.87 360.81 329.80
L 350.81 319.53
L 338.43 319.53
L 326.04 319.53
L 326.04 346.12
L 326.04 372.69
L 330.58 374.63
C 334.93 376.50 350.88 381.06 356.14 381.95
C 357.52 382.18 362.71 382.42 367.67 382.48
C 374.57 382.57 377.68 382.15 380.88 380.69
M 319.02 345.08
L 319.02 319.53
L 314.50 319.53
L 309.99 319.53
L 309.99 342.47
L 309.99 365.41
L 314.25 367.97
C 316.60 369.39 318.63 370.56 318.77 370.58
C 318.91 370.60 319.02 359.12 319.02 345.08
M 302.64 319.86
C 302.42 319.66 292.22 319.61 279.96 319.76
L 257.67 320.03
L 262.62 326.54
C 269.41 335.48 281.65 346.91 292.98 354.91
L 302.46 361.61
L 302.74 340.93
C 302.89 329.55 302.84 320.07 302.64 319.86
M 389.75 351.86
C 387.19 344.97 378.60 328.40 375.14 323.62
C 372.28 319.68 371.98 319.53 366.56 319.53
L 360.94 319.53
L 368.46 327.51
C 377.00 336.57 384.27 345.91 388.11 352.76
C 391.38 358.57 392.11 358.17 389.75 351.86
M 74.03 346.00
C 78.28 345.13 85.15 342.95 89.28 341.16
C 98.17 337.32 113.22 328.17 118.88 323.17
L 122.89 319.61
L 113.01 319.57
L 103.14 319.53
L 98.71 323.42
C 89.48 331.54 72.67 338.26 64.20 337.21
C 53.96 335.95 41.50 329.83 33.00 321.88
C 30.70 319.72 29.61 319.46 24.03 319.73
L 17.67 320.03
L 21.12 323.97
C 26.26 329.82 38.22 338.99 44.70 342.06
C 49.91 344.51 60.04 347.30 64.50 347.50
C 65.49 347.54 69.77 346.87 74.03 346.00
M 81.74 327.62
C 86.16 325.39 90.91 322.68 92.29 321.58
L 94.80 319.57
L 67.41 319.55
C 51.38 319.54 40.24 319.90 40.57 320.43
C 40.88 320.93 43.72 323.07 46.90 325.17
C 59.87 333.80 68.26 334.38 81.74 327.62
M 612.75 311.32
C 614.31 309.77 614.31 302.25 612.75 300.70
C 611.82 299.77 544.27 299.50 314.80 299.50
C 19.39 299.50 18.05 299.51 16.05 301.50
C 14.95 302.60 14.04 304.63 14.04 306.01
C 14.04 307.39 14.95 309.42 16.05 310.52
C 18.05 312.51 19.39 312.52 314.80 312.52
C 544.27 312.52 611.82 312.25 612.75 311.32
M 21.55 283.22
C 25.41 262.61 28.46 256.53 36.83 252.69
L 42.36 250.17
L 48.43 252.01
C 58.78 255.14 65.43 260.01 89.79 282.36
L 100.82 292.48
L 108.35 292.46
L 115.87 292.43
L 108.85 285.68
C 83.37 261.22 52.95 241.49 40.63 241.46
C 27.76 241.42 17.35 254.73 11.54 278.64
C 8.07 292.97 7.97 292.49 14.43 292.49
L 19.81 292.49
L 21.55 283.22
M 83.27 284.25
C 58.37 260.43 46.63 253.53 38.32 257.83
C 33.10 260.52 28.30 270.61 26.61 282.47
C 26.26 284.95 25.74 288.22 25.45 289.73
L 24.92 292.49
L 58.36 292.45
L 91.79 292.41
L 83.27 284.25
M 254.50 284.38
C 240.60 277.37 238.67 276.11 238.95 274.17
C 239.22 272.21 239.96 271.91 245.03 271.65
C 248.20 271.49 250.80 271.15 250.80 270.90
C 250.80 270.66 243.92 256.71 235.51 239.90
L 220.21 209.34
L 204.96 239.65
C 196.58 256.32 189.69 270.27 189.65 270.65
C 189.62 271.04 192.42 271.49 195.87 271.65
C 201.37 271.91 202.14 272.20 202.14 273.96
C 202.14 275.53 198.73 277.70 186.09 284.18
L 170.04 292.40
L 220.20 292.39
L 270.36 292.38
L 254.50 284.38
M 184.59 280.47
L 196.13 274.56
L 189.48 274.51
C 184.27 274.47 181.84 273.90 178.20 271.87
C 175.65 270.44 173.12 268.53 172.58 267.62
C 171.91 266.45 171.60 269.07 171.58 276.21
C 171.56 281.86 171.89 286.46 172.30 286.43
C 172.71 286.40 178.25 283.71 184.59 280.47
M 268.79 276.21
C 268.74 267.89 268.51 266.38 267.60 268.27
C 265.73 272.15 259.84 274.45 251.59 274.51
L 244.28 274.56
L 255.82 280.47
C 262.16 283.71 267.69 286.40 268.11 286.43
C 268.52 286.46 268.83 281.86 268.79 276.21
M 490.56 282.58
C 498.02 281.45 505.91 280.04 508.12 279.43
C 521.03 275.91 533.70 269.25 533.70 265.98
C 533.70 262.19 521.78 256.08 507.18 252.40
C 489.27 247.89 472.78 246.13 448.43 246.13
C 410.19 246.13 379.86 252.04 366.42 262.11
C 364.62 263.45 363.16 265.19 363.16 265.98
C 363.16 268.17 370.47 273.02 378.02 275.84
C 389.49 280.15 396.53 281.49 425.36 284.87
C 427.29 285.10 439.70 285.14 452.94 284.95
C 470.74 284.71 480.55 284.09 490.56 282.58
M 259.83 267.41
C 259.83 266.94 251.70 250.26 241.77 230.30
C 231.84 210.35 223.71 192.99 223.71 191.74
C 223.71 189.75 258.96 121.52 265.59 110.68
C 266.93 108.48 272.42 99.02 277.78 89.65
L 287.52 72.62
L 293.49 69.79
C 302.44 65.54 304.39 64.13 303.07 62.80
C 302.45 62.19 300.71 61.67 299.19 61.64
C 297.21 61.61 296.37 61.03 296.15 59.55
C 295.91 57.92 296.94 57.06 301.17 55.29
C 309.59 51.80 313.47 49.15 312.13 47.81
C 311.49 47.18 309.74 46.65 308.22 46.62
C 306.24 46.59 305.39 46.01 305.18 44.52
C 304.94 42.89 305.97 42.03 310.20 40.27
C 319.04 36.60 322.40 34.21 321.03 32.57
C 320.14 31.48 319.33 31.41 317.50 32.24
C 314.51 33.60 312.00 32.68 312.00 30.23
C 312.00 28.87 313.74 27.61 318.27 25.68
C 328.24 21.45 331.46 19.22 330.04 17.52
C 329.04 16.31 327.97 16.55 322.85 19.12
C 313.64 23.77 312.70 23.26 311.49 13.02
C 310.73 6.57 310.13 4.51 308.99 4.51
C 307.73 4.51 307.48 6.45 307.48 16.03
L 307.48 27.55
L 304.97 27.55
C 302.80 27.55 302.39 27.02 301.96 23.54
C 301.63 20.86 300.96 19.53 299.96 19.53
C 298.70 19.53 298.45 21.48 298.45 31.05
L 298.45 42.57
L 295.94 42.57
C 293.77 42.57 293.37 42.04 292.93 38.56
C 292.60 35.89 291.93 34.56 290.93 34.56
C 289.67 34.56 289.42 36.50 289.42 46.08
L 289.42 57.60
L 286.92 57.60
C 284.74 57.60 284.34 57.07 283.91 53.59
C 283.57 50.91 282.90 49.58 281.90 49.58
C 280.64 49.58 280.43 51.36 280.66 60.60
L 280.92 71.62
L 275.64 81.94
C 272.74 87.61 266.78 98.87 262.40 106.98
C 258.02 115.07 247.42 134.96 238.82 151.17
C 230.23 167.38 222.43 181.11 221.47 181.70
C 220.11 182.54 219.31 182.34 217.84 180.79
C 216.25 179.11 195.79 140.85 166.25 84.32
L 159.28 70.98
L 159.65 60.28
C 159.95 51.28 159.77 49.58 158.51 49.58
C 157.50 49.58 156.83 50.91 156.50 53.59
C 156.07 57.07 155.67 57.60 153.49 57.60
L 150.98 57.60
L 150.98 46.08
C 150.98 36.50 150.73 34.56 149.48 34.56
C 148.47 34.56 147.80 35.89 147.47 38.56
C 147.04 42.04 146.64 42.57 144.46 42.57
L 141.95 42.57
L 141.95 31.05
C 141.95 21.48 141.70 19.53 140.45 19.53
C 139.44 19.53 138.77 20.86 138.44 23.54
C 138.01 27.02 137.61 27.55 135.43 27.55
L 132.92 27.55
L 132.92 16.03
C 132.92 6.45 132.67 4.51 131.42 4.51
C 130.28 4.51 129.67 6.57 128.91 13.02
C 127.71 23.26 126.76 23.77 117.55 19.12
C 112.44 16.55 111.37 16.31 110.36 17.52
C 108.95 19.22 112.17 21.45 122.14 25.68
C 126.66 27.61 128.41 28.87 128.41 30.23
C 128.41 32.68 125.89 33.60 122.90 32.24
C 121.08 31.41 120.26 31.48 119.37 32.57
C 118.01 34.21 121.37 36.60 130.21 40.27
C 134.44 42.03 135.46 42.89 135.22 44.52
C 135.01 46.01 134.17 46.59 132.18 46.62
C 130.67 46.65 128.91 47.18 128.28 47.81
C 126.93 49.15 130.82 51.80 139.23 55.29
C 143.47 57.06 144.49 57.92 144.25 59.55
C 144.04 61.03 143.20 61.61 141.21 61.64
C 139.70 61.67 137.95 62.19 137.34 62.80
C 136.02 64.12 137.95 65.53 146.90 69.79
C 152.64 72.51 153.10 73.03 159.31 83.64
C 176.82 113.53 216.69 188.64 216.69 191.76
C 216.69 193.00 208.59 210.31 198.67 230.22
C 181.86 263.99 180.79 266.48 182.60 267.46
C 184.38 268.41 185.92 265.76 201.37 235.16
C 215.04 208.11 218.58 201.84 220.20 201.84
C 221.83 201.84 225.18 207.73 237.89 232.89
C 257.12 270.96 256.33 269.57 258.27 268.83
C 259.13 268.50 259.83 267.86 259.83 267.41
M 195.03 225.38
L 211.80 191.82
L 191.78 153.92
C 180.77 133.06 171.27 115.51 170.65 114.90
C 169.84 114.09 169.54 132.79 169.54 184.49
C 169.54 242.49 169.78 255.39 170.90 256.30
C 171.64 256.92 173.06 259.24 174.07 261.47
L 175.89 265.51
L 177.07 262.22
C 177.73 260.41 185.80 243.84 195.03 225.38
M 269.84 255.94
C 270.52 255.52 270.86 231.38 270.86 184.55
C 270.86 132.81 270.56 114.09 269.75 114.90
C 269.14 115.51 259.64 133.06 248.62 153.92
L 228.61 191.82
L 246.23 227.18
C 255.92 246.63 263.86 263.31 263.89 264.24
C 263.91 265.18 265.04 263.83 266.38 261.26
C 267.72 258.67 269.29 256.29 269.84 255.94
M 452.44 216.54
C 452.44 188.59 452.91 186.65 461.89 177.79
C 468.19 171.58 474.84 168.26 481.03 168.28
C 486.10 168.29 495.76 173.55 500.42 178.84
C 504.39 183.35 504.79 183.56 506.35 181.99
C 507.91 180.44 507.82 180.04 505.03 176.05
C 498.47 166.69 486.93 162.11 475.50 164.35
C 468.51 165.73 459.25 171.19 455.25 176.28
C 451.26 181.38 450.44 179.66 450.44 166.18
C 450.44 156.00 450.76 153.56 452.52 150.10
C 455.63 144.00 462.73 137.65 469.07 135.29
C 475.92 132.73 478.17 132.71 484.67 135.18
C 491.64 137.82 496.87 141.60 500.19 146.37
C 502.67 149.96 503.08 150.19 504.50 148.79
C 505.91 147.38 505.87 146.88 504.15 143.68
C 499.55 135.18 487.18 127.78 477.52 127.78
C 471.27 127.78 462.85 131.17 456.39 136.28
C 454.24 137.98 452.02 139.09 451.46 138.74
C 450.79 138.33 450.44 119.56 450.44 83.81
L 450.44 29.51
L 447.99 25.92
C 442.02 17.15 427.47 15.82 417.38 23.12
C 410.19 28.32 404.05 42.66 407.32 46.60
C 408.27 47.74 408.89 47.83 409.94 46.97
C 410.69 46.35 411.31 45.25 411.31 44.53
C 411.31 41.72 415.38 34.00 418.94 30.07
C 423.27 25.28 427.11 23.04 430.98 23.04
C 434.86 23.04 441.87 27.44 444.33 31.41
C 446.38 34.73 446.42 35.82 446.42 86.45
C 446.42 120.41 446.07 138.33 445.40 138.74
C 444.84 139.09 442.70 138.05 440.64 136.43
C 435.70 132.55 430.01 129.77 423.85 128.22
C 419.59 127.16 418.02 127.21 413.43 128.58
C 406.31 130.70 400.30 134.30 396.32 138.81
C 391.63 144.16 390.54 146.95 392.40 148.83
C 393.76 150.18 394.23 149.90 396.73 146.29
C 400.08 141.48 406.62 136.95 413.56 134.64
C 417.83 133.22 419.44 133.15 423.90 134.14
C 430.04 135.52 437.16 139.92 440.67 144.52
C 445.87 151.36 446.42 153.45 446.42 166.17
C 446.42 179.66 445.60 181.38 441.61 176.28
C 437.31 170.81 428.20 165.61 420.51 164.23
C 414.71 163.20 412.88 163.26 408.18 164.62
C 401.35 166.61 395.15 170.99 391.60 176.33
C 389.11 180.09 389.03 180.52 390.55 182.03
C 392.06 183.55 392.50 183.31 396.44 178.84
C 400.97 173.70 410.73 168.28 415.47 168.28
C 424.92 168.28 436.54 176.47 442.24 187.15
L 445.42 193.10
L 445.42 216.25
L 445.42 239.40
L 448.93 239.40
L 452.44 239.40
L 452.44 216.54
M 242.73 132.22
C 254.46 109.90 265.22 89.92 266.65 87.81
L 269.26 83.96
L 266.80 79.30
C 263.33 72.74 253.33 63.05 246.79 59.92
C 224.64 49.32 198.77 52.85 183.08 68.60
C 179.77 71.93 175.95 76.76 174.59 79.33
L 172.12 84.02
L 176.82 92.84
C 179.41 97.69 190.24 118.20 200.87 138.39
C 211.50 158.58 220.48 174.59 220.81 173.95
C 221.16 173.31 231.02 154.54 242.73 132.22"/>
<path fill="#000000" stroke="none" d="
M 7.02 562.44
L 7.02 537.90
L 31.60 537.90
L 56.18 537.90
L 56.18 562.44
L 56.18 586.98
L 31.60 586.98
L 7.02 586.98
L 7.02 562.44
M 52.17 562.44
L 52.17 541.90
L 31.60 541.90
L 11.04 541.90
L 11.04 562.44
L 11.04 582.97
L 31.60 582.97
L 52.17 582.97
L 52.17 562.44"/>
<path fill="#000000" stroke="none" d="
M 65.21 562.44
L 65.21 537.90
L 91.79 537.90
L 118.38 537.90
L 118.38 562.44
L 118.38 586.98
L 91.79 586.98
L 65.21 586.98
L 65.21 562.44
M 114.36 562.44
L 114.36 541.90
L 91.79 541.90
L 69.22 541.90
L 69.22 562.44
L 69.22 582.97
L 91.79 582.97
L 114.36 582.97
L 114.36 562.44"/>
<path fill="#000000" stroke="none" d="
M 127.41 562.44
L 127.41 537.90
L 154.99 537.90
L 182.58 537.90
L 182.58 562.44
L 182.58 586.98
L 154.99 586.98
L 127.41 586.98
L 127.41 562.44
M 178.57 562.44
L 178.57 541.90
L 154.99 541.90
L 131.42 541.90
L 131.42 562.44
L 131.42 582.97
L 154.99 582.97
L 178.57 582.97
L 178.57 562.44"/>
<path fill="#000000" stroke="none" d="
M 191.61 562.44
L 191.61 537.90
L 218.70 537.90
L 245.78 537.90
L 245.78 562.44
L 245.78 586.98
L 218.70 586.98
L 191.61 586.98
L 191.61 562.44
M 241.77 562.44
L 241.77 541.90
L 218.70 541.90
L 195.62 541.90
L 195.62 562.44
L 195.62 582.97
L 218.70 582.97
L 241.77 582.97
L 241.77 562.44"/>
<path fill="#000000" stroke="none" d="
M 254.81 562.44
L 254.81 537.90
L 282.40 537.90
L 309.99 537.90
L 309.99 562.44
L 309.99 586.98
L 282.40 586.98
L 254.81 586.98
L 254.81 562.44
M 305.98 562.44
L 305.98 541.90
L 282.40 541.90
L 258.83 541.90
L 258.83 562.44
L 258.83 582.97
L 282.40 582.97
L 305.98 582.97
L 305.98 562.44"/>
<path fill="#000000" stroke="none" d="
M 319.02 562.44
L 319.02 537.90
L 345.60 537.90
L 372.19 537.90
L 372.19 562.44
L 372.19 586.98
L 345.60 586.98
L 319.02 586.98
L 319.02 562.44
M 368.17 562.44
L 368.17 541.90
L 345.60 541.90
L 323.03 541.90
L 323.03 562.44
L 323.03 582.97
L 345.60 582.97
L 368.17 582.97
L 368.17 562.44"/>
<path fill="#000000" stroke="none" d="
M 381.22 562.44
L 381.22 537.90
L 408.30 537.90
L 435.39 537.90
L 435.39 562.44
L 435.39 586.98
L 408.30 586.98
L 381.22 586.98
L 381.22 562.44
M 431.38 562.44
L 431.38 541.90
L 408.30 541.90
L 385.23 541.90
L 385.23 562.44
L 385.23 582.97
L 408.30 582.97
L 431.38 582.97
L 431.38 562.44"/>
<path fill="#000000" stroke="none" d="
M 444.42 562.44
L 444.42 537.90
L 472.01 537.90
L 499.59 537.90
L 499.59 562.44
L 499.59 586.98
L 472.01 586.98
L 444.42 586.98
L 444.42 562.44
M 495.58 562.44
L 495.58 541.90
L 472.01 541.90
L 448.43 541.90
L 448.43 562.44
L 448.43 582.97
L 472.01 582.97
L 495.58 582.97
L 495.58 562.44"/>
<path fill="#000000" stroke="none" d="
M 508.62 562.44
L 508.62 537.90
L 535.21 537.90
L 561.79 537.90
L 561.79 562.44
L 561.79 586.98
L 535.21 586.98
L 508.62 586.98
L 508.62 562.44
M 557.78 562.44
L 557.78 541.90
L 535.21 541.90
L 512.64 541.90
L 512.64 562.44
L 512.64 582.97
L 535.21 582.97
L 557.78 582.97
L 557.78 562.44"/>
<path fill="#000000" stroke="none" d="
M 570.82 562.44
L 570.82 537.90
L 595.40 537.90
L 619.98 537.90
L 619.98 562.44
L 619.98 586.98
L 595.40 586.98
L 570.82 586.98
L 570.82 562.44
M 615.96 562.44
L 615.96 541.90
L 595.40 541.90
L 574.83 541.90
L 574.83 562.44
L 574.83 582.97
L 595.40 582.97
L 615.96 582.97
L 615.96 562.44"/>
<path fill="#000000" stroke="none" d="
M 7.02 504.34
L 7.02 479.80
L 31.60 479.80
L 56.18 479.80
L 56.18 504.34
L 56.18 528.88
L 31.60 528.88
L 7.02 528.88
L 7.02 504.34
M 52.17 504.34
L 52.17 483.81
L 31.60 483.81
L 11.04 483.81
L 11.04 504.34
L 11.04 524.87
L 31.60 524.87
L 52.17 524.87
L 52.17 504.34"/>
<path fill="#000000" stroke="none" d="
M 65.21 504.34
L 65.21 479.80
L 91.79 479.80
L 118.38 479.80
L 118.38 504.34
L 118.38 528.88
L 91.79 528.88
L 65.21 528.88
L 65.21 504.34
M 114.36 504.34
L 114.36 483.81
L 91.79 483.81
L 69.22 483.81
L 69.22 504.34
L 69.22 524.87
L 91.79 524.87
L 114.36 524.87
L 114.36 504.34"/>
<path fill="#000000" stroke="none" d="
M 127.41 504.34
L 127.41 479.80
L 154.99 479.80
L 182.58 479.80
L 182.58 504.34
L 182.58 528.88
L 154.99 528.88
L 127.41 528.88
L 127.41 504.34
M 178.57 504.34
L 178.57 483.81
L 154.99 483.81
L 131.42 483.81
L 131.42 504.34
L 131.42 524.87
L 154.99 524.87
L 178.57 524.87
L 178.57 504.34"/>
<path fill="#000000" stroke="none" d="
M 191.61 504.34
L 191.61 479.80
L 218.70 479.80
L 245.78 479.80
L 245.78 504.34
L 245.78 528.88
L 218.70 528.88
L 191.61 528.88
L 191.61 504.34
M 241.77 504.34
L 241.77 483.81
L 218.70 483.81
L 195.62 483.81
L 195.62 504.34
L 195.62 524.87
L 218.70 524.87
L 241.77 524.87
L 241.77 504.34"/>
<path fill="#000000" stroke="none" d="
M 254.81 504.34
L 254.81 479.80
L 282.40 479.80
L 309.99 479.80
L 309.99 504.34
L 309.99 528.88
L 282.40 528.88
L 254.81 528.88
L 254.81 504.34
M 305.98 504.34
L 305.98 483.81
L 282.40 483.81
L 258.83 483.81
L 258.83 504.34
L 258.83 524.87
L 282.40 524.87
L 305.98 524.87
L 305.98 504.34"/>
<path fill="#000000" stroke="none" d="
M 319.02 504.34
L 319.02 479.80
L 345.60 479.80
L 372.19 479.80
L 372.19 504.34
L 372.19 528.88
L 345.60 528.88
L 319.02 528.88
L 319.02 504.34
M 368.17 504.34
L 368.17 483.81
L 345.60 483.81
L 323.03 483.81
L 323.03 504.34
L 323.03 524.87
L 345.60 524.87
L 368.17 524.87
L 368.17 504.34"/>
<path fill="#000000" stroke="none" d="
M 381.22 504.34
L 381.22 479.80
L 408.30 479.80
L 435.39 479.80
L 435.39 504.34
L 435.39 528.88
L 408.30 528.88
L 381.22 528.88
L 381.22 504.34
M 431.38 504.34
L 431.38 483.81
L 408.30 483.81
L 385.23 483.81
L 385.23 504.34
L 385.23 524.87
L 408.30 524.87
L 431.38 524.87
L 431.38 504.34"/>
<path fill="#000000" stroke="none" d="
M 444.42 504.34
L 444.42 479.80
L 472.01 479.80
L 499.59 479.80
L 499.59 504.34
L 499.59 528.88
L 472.01 528.88
L 444.42 528.88
L 444.42 504.34
M 495.58 504.34
L 495.58 483.81
L 472.01 483.81
L 448.43 483.81
L 448.43 504.34
L 448.43 524.87
L 472.01 524.87
L 495.58 524.87
L 495.58 504.34"/>
<path fill="#000000" stroke="none" d="
M 508.62 504.34
L 508.62 479.80
L 535.21 479.80
L 561.79 479.80
L 561.79 504.34
L 561.79 528.88
L 535.21 528.88
L 508.62 528.88
L 508.62 504.34
M 557.78 504.34
L 557.78 483.81
L 535.21 483.81
L 512.64 483.81
L 512.64 504.34
L 512.64 524.87
L 535.21 524.87
L 557.78 524.87
L 557.78 504.34"/>
<path fill="#000000" stroke="none" d="
M 570.82 504.34
L 570.82 479.80
L 595.40 479.80
L 619.98 479.80
L 619.98 504.34
L 619.98 528.88
L 595.40 528.88
L 570.82 528.88
L 570.82 504.34
M 615.96 504.34
L 615.96 483.81
L 595.40 483.81
L 574.83 483.81
L 574.83 504.34
L 574.83 524.87
L 595.40 524.87
L 615.96 524.87
L 615.96 504.34"/>
<path fill="#000000" stroke="none" d="
M 422.40 280.45
C 411.77 279.35 399.24 276.83 394.13 274.79
C 382.36 270.09 384.19 258.91 397.36 254.98
C 410.70 251.00 421.03 250.02 449.43 250.02
C 477.83 250.02 488.17 251.00 501.51 254.98
C 508.28 257.00 512.64 261.10 512.64 265.44
C 512.64 275.59 494.76 280.36 454.45 280.97
C 441.48 281.17 427.06 280.94 422.40 280.45
M 469.00 274.42
C 475.07 273.84 483.42 272.67 487.56 271.82
C 495.36 270.22 504.61 266.75 504.61 265.44
C 504.61 265.03 502.46 263.77 499.84 262.65
C 487.09 257.19 458.01 254.34 434.13 256.23
C 425.72 256.89 415.45 258.14 411.31 259.02
C 403.46 260.67 394.26 264.14 394.26 265.44
C 394.26 266.80 403.64 270.26 411.86 271.92
C 428.40 275.27 450.02 276.21 469.00 274.42"/>
<path fill="#c45a40" stroke="none" d="
M 255.14 266.68
C 254.28 265.17 246.52 249.97 237.89 232.89
C 225.18 207.73 221.83 201.84 220.20 201.84
C 218.58 201.84 215.04 208.11 201.37 235.16
C 185.92 265.76 184.38 268.41 182.60 267.46
C 180.79 266.48 181.86 263.99 198.67 230.22
C 208.59 210.31 216.69 193.00 216.69 191.76
C 216.69 188.64 176.82 113.53 159.31 83.64
C 153.10 73.03 152.64 72.51 146.90 69.79
C 137.95 65.53 136.02 64.12 137.34 62.80
C 137.95 62.19 139.70 61.67 141.21 61.64
C 143.20 61.61 144.04 61.03 144.25 59.55
C 144.49 57.92 143.47 57.06 139.23 55.29
C 130.82 51.80 126.93 49.15 128.28 47.81
C 128.91 47.18 130.67 46.65 132.18 46.62
C 134.17 46.59 135.01 46.01 135.22 44.52
C 135.46 42.89 134.44 42.03 130.21 40.27
C 121.37 36.60 118.01 34.21 119.37 32.57
C 120.26 31.48 121.08 31.41 122.90 32.24
C 125.89 33.60 128.41 32.68 128.41 30.23
C 128.41 28.87 126.66 27.61 122.14 25.68
C 112.17 21.45 108.95 19.22 110.36 17.52
C 111.37 16.31 112.44 16.55 117.55 19.12
C 120.87 20.79 124.55 22.02 125.74 21.85
C 127.68 21.57 128.00 20.66 128.76 13.27
C 129.23 8.72 130.02 5.01 130.52 5.01
C 131.02 5.01 131.76 5.02 132.17 5.02
C 132.58 5.03 132.92 10.10 132.92 16.29
L 132.92 27.55
L 135.43 27.55
C 137.61 27.55 138.01 27.02 138.44 23.54
C 138.77 20.86 139.44 19.53 140.45 19.53
C 141.70 19.53 141.95 21.48 141.95 31.05
L 141.95 42.57
L 144.46 42.57
C 146.64 42.57 147.04 42.04 147.47 38.56
C 147.80 35.89 148.47 34.56 149.48 34.56
C 150.73 34.56 150.98 36.50 150.98 46.08
L 150.98 57.60
L 153.49 57.60
C 155.67 57.60 156.07 57.07 156.50 53.59
C 156.83 50.91 157.50 49.58 158.51 49.58
C 159.77 49.58 159.95 51.28 159.65 60.28
L 159.28 70.98
L 166.25 84.32
C 195.79 140.85 216.25 179.11 217.84 180.79
C 219.31 182.34 220.11 182.54 221.47 181.70
C 222.43 181.11 230.23 167.38 238.82 151.17
C 247.42 134.96 258.02 115.07 262.40 106.98
C 266.78 98.87 272.74 87.61 275.64 81.94
L 280.92 71.62
L 280.66 60.60
C 280.43 51.36 280.64 49.58 281.90 49.58
C 282.90 49.58 283.57 50.91 283.91 53.59
C 284.34 57.07 284.74 57.60 286.92 57.60
L 289.42 57.60
L 289.42 46.08
C 289.42 36.50 289.67 34.56 290.93 34.56
C 291.93 34.56 292.60 35.89 292.93 38.56
C 293.37 42.04 293.77 42.57 295.94 42.57
L 298.45 42.57
L 298.45 31.05
C 298.45 21.48 298.70 19.53 299.96 19.53
C 300.96 19.53 301.63 20.86 301.96 23.54
C 302.39 27.02 302.80 27.55 304.97 27.55
L 307.48 27.55
L 307.48 16.03
C 307.48 6.45 307.73 4.51 308.99 4.51
C 310.13 4.51 310.73 6.57 311.49 13.02
C 312.70 23.26 313.64 23.77 322.85 19.12
C 327.97 16.55 329.04 16.31 330.04 17.52
C 331.46 19.22 328.24 21.45 318.27 25.68
C 313.74 27.61 312.00 28.87 312.00 30.23
C 312.00 32.68 314.51 33.60 317.50 32.24
C 319.33 31.41 320.14 31.48 321.03 32.57
C 322.40 34.21 319.04 36.60 310.20 40.27
C 305.97 42.03 304.94 42.89 305.18 44.52
C 305.39 46.01 306.24 46.59 308.22 46.62
C 309.74 46.65 311.49 47.18 312.13 47.81
C 313.47 49.15 309.59 51.80 301.17 55.29
C 296.94 57.06 295.91 57.92 296.15 59.55
C 296.37 61.03 297.21 61.61 299.19 61.64
C 300.71 61.67 302.45 62.19 303.07 62.80
C 304.39 64.13 302.44 65.54 293.49 69.79
L 287.52 72.62
L 277.78 89.65
C 272.42 99.02 266.93 108.48 265.59 110.68
C 258.96 121.52 223.71 189.75 223.71 191.74
C 223.71 192.99 231.84 210.35 241.77 230.30
C 251.70 250.26 259.83 266.94 259.83 267.41
C 259.83 267.86 259.13 268.50 258.27 268.83
C 257.25 269.22 256.18 268.49 255.14 266.68"/>
<path fill="#3aa00d" stroke="none" d="
M 445.42 216.25
L 445.42 193.10
L 442.24 187.15
C 436.54 176.47 424.92 168.28 415.47 168.28
C 410.73 168.28 400.97 173.70 396.44 178.84
C 392.50 183.31 392.06 183.55 390.55 182.03
C 389.03 180.52 389.11 180.09 391.60 176.33
C 395.15 170.99 401.35 166.61 408.18 164.62
C 412.88 163.26 414.71 163.20 420.51 164.23
C 428.20 165.61 437.31 170.81 441.61 176.28
C 445.60 181.38 446.42 179.66 446.42 166.17
C 446.42 153.45 445.87 151.36 440.67 144.52
C 437.16 139.92 430.04 135.52 423.90 134.14
C 419.44 133.15 417.83 133.22 413.56 134.64
C 406.62 136.95 400.08 141.48 396.73 146.29
C 394.23 149.90 393.76 150.18 392.40 148.83
C 390.54 146.95 391.63 144.16 396.32 138.81
C 400.30 134.30 406.31 130.70 413.43 128.58
C 418.02 127.21 419.59 127.16 423.85 128.22
C 430.01 129.77 435.70 132.55 440.64 136.43
C 442.70 138.05 444.84 139.09 445.40 138.74
C 446.07 138.33 446.42 120.41 446.42 86.45
C 446.42 35.82 446.38 34.73 444.33 31.41
C 441.87 27.44 434.86 23.04 430.98 23.04
C 427.11 23.04 423.27 25.28 418.94 30.07
C 415.38 34.00 411.31 41.72 411.31 44.53
C 411.31 45.25 410.69 46.35 409.94 46.97
C 408.89 47.83 408.27 47.74 407.32 46.60
C 404.03 42.65 410.20 28.32 417.43 23.08
C 427.68 15.67 442.73 17.33 448.41 26.51
C 450.38 29.69 450.44 31.37 450.44 83.95
C 450.44 119.61 450.79 138.33 451.46 138.74
C 452.02 139.09 454.24 137.98 456.39 136.28
C 462.85 131.17 471.27 127.78 477.52 127.78
C 487.18 127.78 499.55 135.18 504.15 143.68
C 505.87 146.88 505.91 147.38 504.50 148.79
C 503.08 150.19 502.67 149.96 500.19 146.37
C 496.87 141.60 491.64 137.82 484.67 135.18
C 478.17 132.71 475.92 132.73 469.07 135.29
C 462.73 137.65 455.63 144.00 452.52 150.10
C 450.76 153.56 450.44 156.00 450.44 166.18
C 450.44 179.66 451.26 181.38 455.25 176.28
C 459.25 171.19 468.51 165.73 475.50 164.35
C 486.93 162.11 498.47 166.69 505.03 176.05
C 507.82 180.04 507.91 180.44 506.35 181.99
C 504.79 183.56 504.39 183.35 500.42 178.84
C 495.76 173.55 486.10 168.29 481.03 168.28
C 474.84 168.26 468.19 171.58 461.89 177.79
C 452.91 186.65 452.44 188.59 452.44 216.54
L 452.44 239.40
L 448.93 239.40
L 445.42 239.40
L 445.42 216.25"/>
<path fill="#c5892a" stroke="none" d="
M 186.09 284.18
C 198.73 277.70 202.14 275.53 202.14 273.96
C 202.14 272.20 201.37 271.91 195.87 271.65
C 192.42 271.49 189.62 271.04 189.65 270.65
C 189.69 270.27 196.58 256.32 204.96 239.65
L 220.21 209.34
L 235.51 239.90
C 243.92 256.71 250.80 270.66 250.80 270.90
C 250.80 271.15 248.20 271.49 245.03 271.65
C 239.96 271.91 239.22 272.21 238.95 274.17
C 238.67 276.11 240.60 277.37 254.50 284.38
L 270.36 292.38
L 220.20 292.39
L 170.04 292.40
L 186.09 284.18"/>
<path fill="#c5892a" stroke="none" d="
M 174.07 261.47
C 173.06 259.24 171.64 256.92 170.90 256.30
C 169.78 255.39 169.54 242.49 169.54 184.49
C 169.54 132.79 169.84 114.09 170.65 114.90
C 171.27 115.51 180.77 133.06 191.78 153.92
L 211.80 191.82
L 195.03 225.38
C 185.80 243.84 177.73 260.41 177.07 262.22
L 175.89 265.51
L 174.07 261.47"/>
<path fill="#c5892a" stroke="none" d="
M 263.89 264.24
C 263.86 263.31 255.92 246.63 246.23 227.18
L 228.61 191.82
L 248.62 153.92
C 259.64 133.06 269.14 115.51 269.75 114.90
C 270.56 114.09 270.86 132.81 270.86 184.55
C 270.86 231.38 270.52 255.52 269.84 255.94
C 269.29 256.29 267.72 258.67 266.38 261.26
C 265.04 263.83 263.91 265.18 263.89 264.24"/>
<path fill="#c5892a" stroke="none" d="
M 200.87 138.39
C 190.24 118.20 179.41 97.69 176.82 92.84
L 172.12 84.02
L 174.59 79.33
C 178.08 72.74 188.07 63.06 194.62 59.92
C 211.40 51.89 230.00 51.89 246.79 59.92
C 253.33 63.05 263.33 72.74 266.80 79.30
L 269.26 83.96
L 266.65 87.81
C 265.22 89.92 254.46 109.90 242.73 132.22
C 231.02 154.54 221.16 173.31 220.81 173.95
C 220.48 174.59 211.50 158.58 200.87 138.39"/>
<path fill="#ffa153" stroke="none" d="
M 56.55 346.09
C 53.18 345.36 47.84 343.54 44.70 342.06
C 38.22 338.99 26.26 329.82 21.12 323.97
L 17.67 320.03
L 24.03 319.73
C 29.61 319.46 30.70 319.72 33.00 321.88
C 41.50 329.83 53.96 335.95 64.20 337.21
C 72.67 338.26 89.48 331.54 98.71 323.42
L 103.14 319.53
L 113.01 319.57
L 122.89 319.61
L 118.88 323.17
C 113.22 328.17 98.17 337.32 89.28 341.16
C 82.28 344.19 68.62 347.68 64.50 347.50
C 63.51 347.46 59.93 346.82 56.55 346.09"/>
<path fill="#ffa153" stroke="none" d="
M 9.03 290.73
C 9.03 286.01 14.58 267.03 18.04 259.86
C 24.03 247.50 31.90 241.35 41.63 241.44
C 53.03 241.55 84.38 262.19 108.85 285.68
L 115.87 292.43
L 108.35 292.46
L 100.82 292.48
L 89.79 282.36
C 65.43 260.01 58.78 255.14 48.43 252.01
L 42.36 250.17
L 36.83 252.69
C 28.46 256.53 25.41 262.61 21.55 283.22
L 19.81 292.49
L 14.43 292.49
C 9.95 292.49 9.03 292.19 9.03 290.73"/>
<path fill="#e03500" stroke="none" d="
M 425.36 284.87
C 396.53 281.49 389.49 280.15 378.02 275.84
C 370.47 273.02 363.16 268.17 363.16 265.98
C 363.16 262.19 375.08 256.08 389.68 252.40
C 407.46 247.92 424.06 246.15 448.43 246.14
C 472.78 246.13 489.23 247.88 507.18 252.40
C 521.78 256.08 533.70 262.19 533.70 265.98
C 533.70 269.25 521.03 275.91 508.12 279.43
C 496.37 282.63 476.37 284.63 452.94 284.95
C 439.70 285.14 427.29 285.10 425.36 284.87
M 487.05 279.07
C 500.12 276.83 506.56 274.67 509.79 271.44
C 515.72 265.52 511.99 258.11 501.51 254.98
C 488.17 251.00 477.83 250.02 449.43 250.02
C 421.03 250.02 410.70 251.00 397.36 254.98
C 384.19 258.91 382.36 270.09 394.13 274.79
C 399.24 276.83 411.77 279.35 422.40 280.45
C 435.17 281.78 476.35 280.90 487.05 279.07"/>
<path fill="#ff836a" stroke="none" d="
M 428.42 274.37
C 412.79 272.86 394.26 268.03 394.26 265.44
C 394.26 264.14 403.46 260.67 411.31 259.02
C 437.79 253.42 482.57 255.26 499.84 262.65
C 502.46 263.77 504.61 265.03 504.61 265.44
C 504.61 265.85 502.46 267.12 499.84 268.24
C 486.19 274.09 454.10 276.84 428.42 274.37"/>
<path fill="#ff9753" stroke="none" d="
M 171.55 276.81
C 171.55 267.70 171.65 267.23 173.30 268.62
C 178.24 272.80 182.77 274.46 189.41 274.51
L 196.13 274.56
L 184.59 280.47
C 178.25 283.71 172.71 286.40 172.30 286.43
C 171.89 286.46 171.55 282.13 171.55 276.81"/>
<path fill="#ff9753" stroke="none" d="
M 255.82 280.47
L 244.28 274.56
L 251.59 274.51
C 259.84 274.45 265.73 272.15 267.60 268.27
C 268.51 266.38 268.74 267.89 268.79 276.21
C 268.83 281.86 268.52 286.46 268.11 286.43
C 267.69 286.40 262.16 283.71 255.82 280.47"/>
<path fill="#c55436" stroke="none" d="
M 309.99 427.72
L 309.99 388.68
L 314.50 390.86
L 319.02 393.06
L 319.02 429.92
L 319.02 466.78
L 314.50 466.78
L 309.99 466.78
L 309.99 427.72"/>
<path fill="#c55436" stroke="none" d="
M 314.25 367.97
L 309.99 365.41
L 309.99 342.47
L 309.99 319.53
L 314.50 319.53
L 319.02 319.53
L 319.02 345.08
C 319.02 359.12 318.91 370.60 318.77 370.58
C 318.63 370.56 316.60 369.39 314.25 367.97"/>
<path fill="#c55436" stroke="none" d="
M 16.05 310.52
C 13.70 308.17 13.46 304.69 15.47 301.94
C 16.87 300.03 21.21 300.00 314.06 299.75
C 533.43 299.56 611.59 299.79 612.59 300.62
C 614.28 302.01 614.39 309.69 612.75 311.32
C 611.82 312.25 544.27 312.52 314.80 312.52
C 19.39 312.52 18.05 312.51 16.05 310.52"/>
<path fill="#ef907a" stroke="none" d="
M 349.64 392.54
C 318.76 388.05 285.14 371.04 260.25 347.32
C 250.68 338.19 237.76 322.77 237.76 320.47
C 237.76 319.95 240.23 319.53 243.25 319.53
L 248.74 319.53
L 255.32 328.49
C 275.83 356.37 315.52 380.88 352.04 388.21
C 358.02 389.41 363.46 389.76 370.60 389.43
C 379.78 389.01 380.41 389.09 377.45 390.31
C 373.97 391.75 362.32 393.69 358.14 393.52
C 356.76 393.46 352.94 393.02 349.64 392.54"/>
<path fill="#ef907a" stroke="none" d="
M 388.11 352.76
C 384.27 345.91 377.00 336.57 368.46 327.51
L 360.94 319.53
L 366.56 319.53
C 371.98 319.53 372.28 319.68 375.14 323.62
C 380.48 330.99 392.37 355.81 391.14 357.04
C 390.92 357.26 389.56 355.33 388.11 352.76"/>
<path fill="#0885ff" stroke="none" d="
M 6.02 593.99
C 4.06 592.04 4.01 590.65 4.01 533.58
C 4.01 484.72 4.24 474.86 5.44 473.23
C 6.84 471.32 11.27 471.29 312.91 471.04
C 618.04 470.77 618.97 470.78 620.98 472.79
C 622.95 474.75 622.99 476.08 622.99 533.39
C 622.99 590.65 622.94 592.04 620.98 593.99
C 618.98 595.98 617.64 595.99 313.50 595.99
C 9.36 595.99 8.02 595.98 6.02 593.99
M 56.18 562.44
L 56.18 537.90
L 31.60 537.90
L 7.02 537.90
L 7.02 562.44
L 7.02 586.98
L 31.60 586.98
L 56.18 586.98
L 56.18 562.44
M 118.38 562.44
L 118.38 537.90
L 91.79 537.90
L 65.21 537.90
L 65.21 562.44
L 65.21 586.98
L 91.79 586.98
L 118.38 586.98
L 118.38 562.44
M 182.58 562.44
L 182.58 537.90
L 154.99 537.90
L 127.41 537.90
L 127.41 562.44
L 127.41 586.98
L 154.99 586.98
L 182.58 586.98
L 182.58 562.44
M 245.78 562.44
L 245.78 537.90
L 218.70 537.90
L 191.61 537.90
L 191.61 562.44
L 191.61 586.98
L 218.70 586.98
L 245.78 586.98
L 245.78 562.44
M 309.99 562.44
L 309.99 537.90
L 282.40 537.90
L 254.81 537.90
L 254.81 562.44
L 254.81 586.98
L 282.40 586.98
L 309.99 586.98
L 309.99 562.44
M 372.19 562.44
L 372.19 537.90
L 345.60 537.90
L 319.02 537.90
L 319.02 562.44
L 319.02 586.98
L 345.60 586.98
L 372.19 586.98
L 372.19 562.44
M 435.39 562.44
L 435.39 537.90
L 408.30 537.90
L 381.22 537.90
L 381.22 562.44
L 381.22 586.98
L 408.30 586.98
L 435.39 586.98
L 435.39 562.44
M 499.59 562.44
L 499.59 537.90
L 472.01 537.90
L 444.42 537.90
L 444.42 562.44
L 444.42 586.98
L 472.01 586.98
L 499.59 586.98
L 499.59 562.44
M 561.79 562.44
L 561.79 537.90
L 535.21 537.90
L 508.62 537.90
L 508.62 562.44
L 508.62 586.98
L 535.21 586.98
L 561.79 586.98
L 561.79 562.44
M 619.98 562.44
L 619.98 537.90
L 595.40 537.90
L 570.82 537.90
L 570.82 562.44
L 570.82 586.98
L 595.40 586.98
L 619.98 586.98
L 619.98 562.44
M 56.18 504.34
L 56.18 479.80
L 31.60 479.80
L 7.02 479.80
L 7.02 504.34
L 7.02 528.88
L 31.60 528.88
L 56.18 528.88
L 56.18 504.34
M 118.38 504.34
L 118.38 479.80
L 91.79 479.80
L 65.21 479.80
L 65.21 504.34
L 65.21 528.88
L 91.79 528.88
L 118.38 528.88
L 118.38 504.34
M 182.58 504.34
L 182.58 479.80
L 154.99 479.80
L 127.41 479.80
L 127.41 504.34
L 127.41 528.88
L 154.99 528.88
L 182.58 528.88
L 182.58 504.34
M 245.78 504.34
L 245.78 479.80
L 218.70 479.80
L 191.61 479.80
L 191.61 504.34
L 191.61 528.88
L 218.70 528.88
L 245.78 528.88
L 245.78 504.34
M 309.99 504.34
L 309.99 479.80
L 282.40 479.80
L 254.81 479.80
L 254.81 504.34
L 254.81 528.88
L 282.40 528.88
L 309.99 528.88
L 309.99 504.34
M 372.19 504.34
L 372.19 479.80
L 345.60 479.80
L 319.02 479.80
L 319.02 504.34
L 319.02 528.88
L 345.60 528.88
L 372.19 528.88
L 372.19 504.34
M 435.39 504.34
L 435.39 479.80
L 408.30 479.80
L 381.22 479.80
L 381.22 504.34
L 381.22 528.88
L 408.30 528.88
L 435.39 528.88
L 435.39 504.34
M 499.59 504.34
L 499.59 479.80
L 472.01 479.80
L 444.42 479.80
L 444.42 504.34
L 444.42 528.88
L 472.01 528.88
L 499.59 528.88
L 499.59 504.34
M 561.79 504.34
L 561.79 479.80
L 535.21 479.80
L 508.62 479.80
L 508.62 504.34
L 508.62 528.88
L 535.21 528.88
L 561.79 528.88
L 561.79 504.34
M 619.98 504.34
L 619.98 479.80
L 595.40 479.80
L 570.82 479.80
L 570.82 504.34
L 570.82 528.88
L 595.40 528.88
L 619.98 528.88
L 619.98 504.34"/>
<path fill="#c57a36" stroke="none" d="
M 11.04 562.44
L 11.04 541.90
L 31.60 541.90
L 52.17 541.90
L 52.17 562.44
L 52.17 582.97
L 31.60 582.97
L 11.04 582.97
L 11.04 562.44"/>
<path fill="#c57a36" stroke="none" d="
M 69.22 562.44
L 69.22 541.90
L 91.79 541.90
L 114.36 541.90
L 114.36 562.44
L 114.36 582.97
L 91.79 582.97
L 69.22 582.97
L 69.22 562.44"/>
<path fill="#c57a36" stroke="none" d="
M 131.42 562.44
L 131.42 541.90
L 154.99 541.90
L 178.57 541.90
L 178.57 562.44
L 178.57 582.97
L 154.99 582.97
L 131.42 582.97
L 131.42 562.44"/>
<path fill="#c57a36" stroke="none" d="
M 195.62 562.44
L 195.62 541.90
L 218.70 541.90
L 241.77 541.90
L 241.77 562.44
L 241.77 582.97
L 218.70 582.97
L 195.62 582.97
L 195.62 562.44"/>
<path fill="#c57a36" stroke="none" d="
M 258.83 562.44
L 258.83 541.90
L 282.40 541.90
L 305.98 541.90
L 305.98 562.44
L 305.98 582.97
L 282.40 582.97
L 258.83 582.97
L 258.83 562.44"/>
<path fill="#c57a36" stroke="none" d="
M 323.03 562.44
L 323.03 541.90
L 345.60 541.90
L 368.17 541.90
L 368.17 562.44
L 368.17 582.97
L 345.60 582.97
L 323.03 582.97
L 323.03 562.44"/>
<path fill="#c57a36" stroke="none" d="
M 385.23 562.44
L 385.23 541.90
L 408.30 541.90
L 431.38 541.90
L 431.38 562.44
L 431.38 582.97
L 408.30 582.97
L 385.23 582.97
L 385.23 562.44"/>
<path fill="#c57a36" stroke="none" d="
M 448.43 562.44
L 448.43 541.90
L 472.01 541.90
L 495.58 541.90
L 495.58 562.44
L 495.58 582.97
L 472.01 582.97
L 448.43 582.97
L 448.43 562.44"/>
<path fill="#c57a36" stroke="none" d="
M 512.64 562.44
L 512.64 541.90
L 535.21 541.90
L 557.78 541.90
L 557.78 562.44
L 557.78 582.97
L 535.21 582.97
L 512.64 582.97
L 512.64 562.44"/>
<path fill="#c57a36" stroke="none" d="
M 574.83 562.44
L 574.83 541.90
L 595.40 541.90
L 615.96 541.90
L 615.96 562.44
L 615.96 582.97
L 595.40 582.97
L 574.83 582.97
L 574.83 562.44"/>
<path fill="#c57a36" stroke="none" d="
M 11.27 504.59
L 11.54 484.31
L 31.85 484.04
L 52.17 483.77
L 52.17 504.32
L 52.17 524.87
L 31.58 524.87
L 11.00 524.87
L 11.27 504.59"/>
<path fill="#c57a36" stroke="none" d="
M 69.22 504.34
L 69.22 483.81
L 91.79 483.81
L 114.36 483.81
L 114.36 504.34
L 114.36 524.87
L 91.79 524.87
L 69.22 524.87
L 69.22 504.34"/>
<path fill="#c57a36" stroke="none" d="
M 131.42 504.34
L 131.42 483.81
L 154.99 483.81
L 178.57 483.81
L 178.57 504.34
L 178.57 524.87
L 154.99 524.87
L 131.42 524.87
L 131.42 504.34"/>
<path fill="#c57a36" stroke="none" d="
M 195.62 504.34
L 195.62 483.81
L 218.70 483.81
L 241.77 483.81
L 241.77 504.34
L 241.77 524.87
L 218.70 524.87
L 195.62 524.87
L 195.62 504.34"/>
<path fill="#c57a36" stroke="none" d="
M 258.83 504.34
L 258.83 483.81
L 282.40 483.81
L 305.98 483.81
L 305.98 504.34
L 305.98 524.87
L 282.40 524.87
L 258.83 524.87
L 258.83 504.34"/>
<path fill="#c57a36" stroke="none" d="
M 323.03 504.34
L 323.03 483.81
L 345.60 483.81
L 368.17 483.81
L 368.17 504.34
L 368.17 524.87
L 345.60 524.87
L 323.03 524.87
L 323.03 504.34"/>
<path fill="#c57a36" stroke="none" d="
M 385.23 504.34
L 385.23 483.81
L 408.30 483.81
L 431.38 483.81
L 431.38 504.34
L 431.38 524.87
L 408.30 524.87
L 385.23 524.87
L 385.23 504.34"/>
<path fill="#c57a36" stroke="none" d="
M 448.43 504.34
L 448.43 483.81
L 472.01 483.81
L 495.58 483.81
L 495.58 504.34
L 495.58 524.87
L 472.01 524.87
L 448.43 524.87
L 448.43 504.34"/>
<path fill="#c57a36" stroke="none" d="
M 512.64 504.34
L 512.64 483.81
L 535.21 483.81
L 557.78 483.81
L 557.78 504.34
L 557.78 524.87
L 535.21 524.87
L 512.64 524.87
L 512.64 504.34"/>
<path fill="#c57a36" stroke="none" d="
M 574.83 504.34
L 574.83 483.81
L 595.40 483.81
L 615.96 483.81
L 615.96 504.34
L 615.96 524.87
L 595.40 524.87
L 574.83 524.87
L 574.83 504.34"/>
</g>
</svg>
