<?xml version="1.0" encoding="UTF-8" standalone="no"?>
<!DOCTYPE svg PUBLIC "-//W3C//DTD SVG 1.1//EN"
"http://www.w3.org/Graphics/SVG/1.1/DTD/svg11.dtd">
<svg width="556px" height="600px"
xmlns="http://www.w3.org/2000/svg" version="1.1">
<g transform="translate(0000, 0000) scale(1.0000, 1.0000)">
<path fill="#000000" stroke="none" d="
M 1.78 598.22
C 0.04 596.48 0.00 595.26 0.00 540.89
C 0.00 486.52 0.04 485.30 1.78 483.56
C 3.54 481.80 4.74 481.78 136.12 481.78
L 268.68 481.78
L 268.45 445.70
L 268.21 409.61
L 258.70 404.13
C 253.47 401.13 245.87 396.28 241.80 393.35
C 231.60 386.02 214.17 368.36 207.77 358.89
L 202.51 351.11
L 159.78 351.11
L 117.05 351.11
L 113.90 354.15
C 109.29 358.61 94.06 368.52 85.66 372.53
C 81.64 374.44 74.03 377.07 68.76 378.36
C 59.95 380.49 58.65 380.60 52.99 379.65
C 37.30 377.02 28.86 372.15 14.46 357.41
C 3.43 346.12 1.10 341.88 2.07 334.79
C 5.45 309.86 10.95 293.37 18.66 285.00
C 22.91 280.41 29.82 277.32 35.84 277.34
C 41.45 277.36 53.32 281.87 61.92 287.24
C 71.09 292.96 86.04 304.76 100.49 317.64
L 111.11 327.11
L 138.73 327.11
C 166.36 327.11 166.36 327.11 164.58 325.33
C 163.60 324.36 162.80 322.54 162.80 321.30
C 162.80 318.20 165.62 312.99 169.02 309.78
C 170.58 308.31 172.46 305.96 173.20 304.54
C 173.93 303.14 176.81 299.12 179.58 295.63
C 189.46 283.21 195.47 267.82 206.60 226.44
C 207.88 221.68 206.47 219.00 199.24 212.54
C 191.77 205.86 185.91 196.68 180.27 182.85
C 174.67 169.11 168.39 153.48 165.92 147.11
L 163.85 141.78
L 155.58 142.04
C 151.04 142.18 140.16 143.28 131.39 144.48
C 106.25 147.94 101.65 148.13 96.72 145.96
C 92.63 144.15 88.97 139.84 88.96 136.82
C 88.96 136.05 87.92 134.45 86.65 133.26
C 83.12 129.96 81.84 126.79 81.84 121.26
C 81.84 114.42 83.88 111.41 92.79 105.14
C 103.50 97.60 112.25 89.67 117.31 82.92
C 122.45 76.05 122.44 76.03 114.61 71.85
C 104.67 66.55 94.90 53.44 91.92 41.40
C 90.05 33.77 91.10 27.24 95.76 17.81
C 100.74 7.71 108.65 0.14 110.72 3.49
C 111.00 3.95 110.18 7.45 108.89 11.27
C 106.83 17.34 106.60 19.18 107.02 25.81
C 107.88 39.34 112.87 47.08 126.83 56.56
L 134.26 61.61
L 140.47 60.58
C 143.88 60.02 150.32 59.56 154.76 59.56
C 164.31 59.56 166.93 58.63 173.10 53.08
C 181.86 45.17 186.46 32.47 187.43 13.48
C 188.13 -0.36 189.00 -1.70 194.09 3.27
C 198.97 8.02 200.49 13.66 200.52 27.11
C 200.55 39.15 199.33 43.48 193.20 53.02
C 191.36 55.88 188.96 59.69 187.87 61.48
L 185.88 64.72
L 191.13 64.25
C 195.71 63.83 196.62 64.02 198.34 65.73
C 199.87 67.26 200.23 68.52 200.01 71.40
L 199.72 75.11
L 205.50 77.04
C 208.67 78.10 217.48 80.04 225.06 81.36
C 232.65 82.68 249.11 86.51 261.67 89.86
C 297.12 99.34 308.03 101.38 326.48 101.96
C 345.41 102.56 355.71 101.64 387.87 96.46
C 433.32 89.16 451.37 87.70 471.93 89.67
C 506.06 92.96 521.57 99.56 527.59 113.33
C 528.93 116.41 529.20 120.96 529.58 147.11
C 530.10 183.32 530.78 188.30 538.15 210.91
C 543.85 228.43 546.04 240.15 544.95 247.41
C 544.26 251.99 541.93 255.11 539.19 255.11
C 536.73 255.11 532.07 249.36 529.13 242.69
C 522.73 228.13 522.76 228.20 522.08 230.07
C 521.72 231.03 520.75 237.36 519.94 244.13
C 518.46 256.25 518.51 274.21 520.07 295.67
C 520.71 304.43 520.04 305.93 514.22 308.87
C 509.63 311.19 509.35 311.67 508.41 318.56
C 508.02 321.36 507.07 323.64 505.71 325.00
L 503.59 327.11
L 525.80 327.11
C 553.00 327.11 551.55 326.44 551.55 339.11
C 551.55 352.67 565.64 351.11 442.97 351.11
L 337.95 351.11
L 340.30 354.89
C 344.62 361.84 351.30 376.38 352.85 382.22
C 357.43 399.48 352.33 413.08 339.05 418.97
C 332.80 421.73 321.49 423.48 314.47 422.76
C 309.51 422.24 295.70 419.52 291.12 418.16
L 289.12 417.57
L 289.12 449.67
L 289.12 481.78
L 420.78 481.78
C 551.26 481.78 552.46 481.80 554.22 483.56
C 555.96 485.30 556.00 486.52 556.00 540.89
C 556.00 595.26 555.96 596.48 554.22 598.22
C 552.45 599.99 551.26 600.00 278.00 600.00
C 4.74 600.00 3.55 599.99 1.78 598.22
M 550.66 594.67
C 552.40 592.93 552.44 591.71 552.44 540.89
C 552.44 490.07 552.40 488.84 550.66 487.11
C 548.89 485.34 547.70 485.33 278.00 485.33
C 8.30 485.33 7.11 485.34 5.34 487.11
C 3.60 488.84 3.56 490.07 3.56 540.89
C 3.56 591.71 3.60 592.93 5.34 594.67
C 7.11 596.44 8.30 596.44 278.00 596.44
C 547.70 596.44 548.89 596.44 550.66 594.67
M 282.89 449.07
L 282.89 416.36
L 278.89 414.41
L 274.89 412.47
L 274.89 447.12
L 274.89 481.78
L 278.89 481.78
L 282.89 481.78
L 282.89 449.07
M 325.82 415.98
C 329.12 415.51 333.12 414.58 334.71 413.92
C 337.34 412.84 336.78 412.76 328.64 413.14
C 296.32 414.64 248.76 389.48 226.41 359.06
L 220.58 351.11
L 215.20 351.11
L 209.83 351.11
L 213.65 356.67
C 215.75 359.72 222.48 367.23 228.61 373.35
C 244.16 388.89 259.68 399.22 279.82 407.40
C 289.85 411.48 300.72 414.54 310.04 415.90
C 317.40 416.97 318.96 416.98 325.82 415.98
M 337.75 405.39
C 339.79 404.46 341.89 402.90 342.42 401.91
C 346.48 394.35 338.17 378.92 319.95 360.22
L 311.08 351.11
L 300.11 351.11
L 289.12 351.11
L 289.12 374.70
L 289.12 398.28
L 293.15 400.01
C 297.00 401.66 311.15 405.71 315.81 406.50
C 317.04 406.70 321.63 406.92 326.04 406.97
C 332.16 407.05 334.92 406.68 337.75 405.39
M 282.89 373.78
L 282.89 351.11
L 278.89 351.11
L 274.89 351.11
L 274.89 371.47
L 274.89 391.82
L 278.67 394.10
C 280.75 395.35 282.55 396.39 282.67 396.41
C 282.79 396.43 282.89 386.24 282.89 373.78
M 268.37 351.40
C 268.18 351.23 259.13 351.18 248.26 351.32
L 228.49 351.56
L 232.88 357.33
C 238.90 365.26 249.76 375.40 259.81 382.51
L 268.21 388.45
L 268.45 370.10
C 268.59 360.00 268.54 351.59 268.37 351.40
M 345.62 379.80
C 343.34 373.69 335.73 358.98 332.66 354.74
C 330.12 351.24 329.85 351.11 325.05 351.11
L 320.07 351.11
L 326.73 358.19
C 334.31 366.23 340.75 374.52 344.16 380.60
C 347.06 385.75 347.71 385.40 345.62 379.80
M 65.64 374.60
C 69.42 373.82 75.51 371.89 79.17 370.30
C 87.06 366.90 100.40 358.77 105.42 354.34
L 108.98 351.18
L 100.21 351.15
L 91.46 351.11
L 87.54 354.56
C 79.34 361.77 64.44 367.73 56.93 366.80
C 47.85 365.68 36.80 360.25 29.26 353.19
C 27.22 351.28 26.26 351.05 21.31 351.29
L 15.67 351.56
L 18.73 355.05
C 23.29 360.24 33.89 368.38 39.64 371.10
C 44.26 373.28 53.24 375.75 57.19 375.93
C 58.07 375.96 61.87 375.37 65.64 374.60
M 72.48 358.28
C 76.41 356.31 80.62 353.90 81.84 352.92
L 84.07 351.15
L 59.77 351.13
C 45.57 351.12 35.68 351.44 35.98 351.91
C 36.25 352.36 38.77 354.25 41.59 356.12
C 53.09 363.77 60.53 364.28 72.48 358.28
M 543.37 343.82
C 544.75 342.44 544.75 335.78 543.37 334.40
C 542.54 333.57 482.63 333.33 279.16 333.33
C 17.20 333.33 16.00 333.34 14.23 335.11
C 13.26 336.09 12.45 337.88 12.45 339.11
C 12.45 340.34 13.26 342.13 14.23 343.11
C 16.00 344.88 17.20 344.89 279.16 344.89
C 482.63 344.89 542.54 344.65 543.37 343.82
M 19.11 318.89
C 22.53 300.60 25.24 295.20 32.66 291.80
L 37.56 289.56
L 42.95 291.19
C 52.12 293.96 58.02 298.29 79.62 318.12
L 89.40 327.10
L 96.08 327.08
L 102.75 327.06
L 96.52 321.07
C 73.93 299.36 46.95 281.86 36.03 281.83
C 24.62 281.80 15.38 293.61 10.23 314.83
C 7.15 327.54 7.06 327.11 12.79 327.11
L 17.57 327.11
L 19.11 318.89
M 73.84 319.80
C 51.76 298.67 41.35 292.54 33.98 296.36
C 29.35 298.75 25.10 307.70 23.60 318.22
C 23.29 320.43 22.83 323.32 22.57 324.67
L 22.10 327.11
L 51.75 327.08
L 81.40 327.04
L 73.84 319.80
M 232.08 325.23
C 228.84 321.99 230.08 316.41 236.42 305.63
C 242.59 295.14 245.64 286.25 247.66 272.89
C 249.85 258.32 251.10 238.94 250.02 236.11
C 249.14 233.80 248.87 233.71 243.55 233.96
L 238.01 234.22
L 236.38 240.44
C 235.49 243.87 233.01 249.69 230.88 253.38
C 228.74 257.08 222.60 269.08 217.22 280.04
C 207.27 300.34 203.24 306.44 196.16 311.96
C 189.81 316.92 189.48 317.29 189.48 319.62
C 189.48 320.97 188.42 322.98 186.89 324.52
L 184.28 327.11
L 209.13 327.11
L 233.96 327.11
L 232.08 325.23
M 354.42 325.86
C 353.61 323.75 356.45 319.46 361.66 314.95
C 368.73 308.84 378.69 295.32 384.49 283.97
C 390.85 271.52 405.66 234.71 405.66 231.35
C 405.66 229.94 405.15 228.09 404.53 227.24
C 403.49 225.82 402.62 226.09 393.27 230.68
C 387.70 233.40 382.31 235.52 381.28 235.38
C 378.92 235.04 378.38 232.34 380.27 230.26
C 381.66 228.73 381.45 228.60 376.12 227.55
C 373.04 226.94 360.72 226.13 348.72 225.74
C 334.09 225.27 323.37 224.45 316.08 223.25
C 306.32 221.64 304.51 221.57 297.98 222.62
C 293.21 223.39 290.17 224.36 289.13 225.45
C 287.40 227.24 282.25 239.67 279.40 248.93
C 275.45 261.73 273.02 274.08 271.75 287.80
C 270.07 305.88 269.09 308.58 262.84 312.10
C 259.03 314.25 257.73 315.63 255.90 319.50
C 254.66 322.12 252.73 324.91 251.61 325.69
C 249.75 327.00 253.74 327.11 302.24 327.11
C 347.18 327.11 354.83 326.92 354.42 325.86
M 483.05 325.33
C 482.07 324.36 481.27 323.06 481.26 322.44
C 481.26 321.83 484.16 315.57 487.71 308.53
L 494.17 295.72
L 494.17 269.40
L 494.17 243.08
L 491.22 237.08
C 487.88 230.30 484.46 227.32 471.04 219.47
C 465.04 215.96 462.15 214.77 459.48 214.76
C 454.53 214.74 449.25 215.90 449.25 217.00
C 449.25 217.52 440.90 231.60 430.71 248.30
C 420.51 265.00 409.25 283.66 405.67 289.78
C 400.90 297.92 397.56 302.44 393.17 306.67
C 387.31 312.30 385.21 316.18 385.21 321.36
C 385.20 322.35 384.57 324.05 383.81 325.14
L 382.43 327.11
L 433.63 327.11
C 484.83 327.11 484.83 327.11 483.05 325.33
M 183.26 321.78
C 185.50 319.54 185.53 317.65 183.32 316.48
C 180.98 315.23 181.24 315.08 178.02 319.56
L 175.14 323.56
L 178.31 323.56
C 180.30 323.56 182.15 322.89 183.26 321.78
M 246.75 322.10
C 249.28 320.89 251.76 317.83 251.76 315.90
C 251.76 315.65 250.29 315.57 248.50 315.72
C 245.61 315.97 245.07 316.43 243.64 319.78
C 241.87 323.96 242.26 324.24 246.75 322.10
M 367.59 320.27
C 370.90 317.04 371.72 315.56 370.20 315.56
C 368.71 315.56 361.15 321.90 361.66 322.72
C 362.60 324.25 364.18 323.59 367.59 320.27
M 378.97 321.78
C 380.90 319.85 381.32 316.90 379.81 315.96
C 378.74 315.31 376.07 317.48 373.47 321.11
L 371.73 323.56
L 374.46 323.56
C 376.01 323.56 377.96 322.78 378.97 321.78
M 172.13 318.12
C 174.19 315.24 175.08 313.25 174.56 312.73
C 173.52 311.69 166.86 320.44 167.68 321.76
C 168.51 323.10 168.59 323.04 172.13 318.12
M 239.27 315.78
C 239.34 313.72 237.59 314.64 236.14 317.41
C 235.36 318.92 234.99 320.83 235.31 321.64
C 235.76 322.81 236.23 322.47 237.56 320.00
C 238.48 318.28 239.25 316.39 239.27 315.78
M 491.98 317.26
C 494.33 312.61 494.49 311.89 493.12 312.16
C 490.15 312.73 486.06 322.67 488.79 322.67
C 489.05 322.67 490.48 320.23 491.98 317.26
M 500.84 321.79
C 502.70 320.78 504.82 315.24 504.07 313.30
C 503.03 310.61 500.80 312.15 498.18 317.33
C 495.59 322.46 495.55 322.67 497.33 322.67
C 498.35 322.67 499.93 322.27 500.84 321.79
M 191.47 308.87
C 198.32 303.85 203.32 296.58 211.34 280.00
C 215.48 271.45 220.28 261.84 222.02 258.67
C 228.29 247.15 232.16 238.60 232.39 235.74
C 232.63 232.83 232.62 232.82 222.70 228.52
L 212.78 224.22
L 210.10 232.77
C 208.62 237.48 206.16 245.73 204.63 251.11
C 196.52 279.63 191.82 289.82 180.81 302.84
L 176.90 307.46
L 181.19 309.69
C 183.55 310.92 185.88 311.93 186.37 311.94
C 186.86 311.95 189.16 310.57 191.47 308.87
M 255.37 310.60
C 256.01 309.83 258.09 308.41 259.99 307.44
C 264.58 305.10 265.84 301.83 266.93 289.51
C 268.90 267.27 273.01 249.76 280.85 230.22
L 284.95 220.00
L 283.90 211.56
C 283.33 206.92 282.62 201.62 282.31 199.80
C 281.89 197.17 282.09 196.36 283.28 195.89
C 285.81 194.93 286.55 196.71 287.99 207.24
C 288.76 212.79 289.71 217.70 290.11 218.15
C 290.55 218.64 293.80 218.52 298.30 217.85
C 305.15 216.84 306.95 216.93 320.49 219.04
C 332.23 220.86 338.46 221.33 351.09 221.34
C 362.79 221.34 369.62 221.80 377.07 223.08
C 385.78 224.58 387.52 224.66 389.53 223.62
C 393.22 221.72 409.93 217.09 416.78 216.08
C 420.20 215.56 430.01 214.12 438.57 212.85
C 447.13 211.59 454.64 210.40 455.25 210.20
C 455.95 209.97 454.39 207.25 451.10 202.92
C 445.44 195.47 440.47 186.31 437.67 178.16
C 435.30 171.31 435.37 169.78 438.06 169.78
C 439.86 169.78 440.45 170.52 441.74 174.44
C 443.93 181.12 448.84 190.68 453.30 196.97
C 458.78 204.68 465.43 210.37 475.55 216.00
C 486.82 222.27 493.65 228.78 496.51 236.00
C 498.58 241.22 498.62 241.96 498.62 269.33
C 498.62 296.33 498.55 297.51 496.62 302.22
C 495.52 304.91 494.62 307.21 494.62 307.33
C 494.62 307.46 497.03 307.56 499.98 307.56
C 503.97 307.56 506.50 306.98 509.80 305.30
C 515.76 302.28 516.41 300.43 515.17 290.05
C 513.02 272.16 514.71 237.67 518.31 226.04
L 519.74 221.43
L 515.99 214.61
C 509.13 202.11 507.64 197.16 507.76 187.11
C 507.83 180.20 508.46 175.95 510.59 168.00
C 516.05 147.72 517.05 142.19 516.59 135.04
C 516.10 127.48 514.54 123.74 508.86 116.56
C 504.96 111.64 504.53 108.89 507.63 108.89
C 510.04 108.89 515.51 115.35 518.55 121.78
C 520.70 126.32 520.87 127.61 520.97 140.00
C 521.11 159.36 522.95 211.12 523.59 213.99
C 525.22 221.25 533.97 242.24 536.93 245.93
L 538.93 248.44
L 540.02 246.05
C 541.72 242.33 539.84 232.57 533.88 214.05
C 526.26 190.39 524.92 179.63 524.86 141.78
C 524.82 116.34 524.56 115.19 517.51 108.72
C 508.95 100.86 497.70 97.11 475.05 94.58
C 452.78 92.08 437.04 93.24 390.53 100.78
C 362.94 105.26 349.27 106.67 333.13 106.67
C 310.24 106.67 297.47 104.52 259.23 94.28
C 246.46 90.85 230.05 87.04 222.76 85.80
C 215.47 84.56 206.75 82.72 203.39 81.72
C 197.33 79.90 197.27 79.90 195.38 81.62
C 192.55 84.21 186.96 86.76 181.66 87.89
C 174.90 89.32 174.53 89.23 173.08 85.77
C 172.36 84.04 171.05 82.41 170.18 82.13
C 169.30 81.85 167.78 81.28 166.80 80.86
C 165.82 80.45 164.12 79.86 163.01 79.55
C 157.16 77.91 153.36 70.97 155.61 66.02
L 156.66 63.73
L 149.26 64.25
C 145.19 64.54 140.67 65.22 139.21 65.77
C 135.20 67.27 128.45 74.38 125.74 79.95
C 122.66 86.26 107.31 101.76 97.30 108.68
C 93.32 111.42 89.22 114.75 88.18 116.06
C 83.81 121.62 87.35 128.96 96.52 133.36
C 99.27 134.68 102.05 135.08 108.75 135.09
L 117.43 135.11
L 117.43 137.40
L 117.43 139.71
L 106.71 139.40
C 96.45 139.12 96.07 139.18 97.87 140.64
C 101.12 143.26 105.07 143.32 122.40 141.00
C 131.65 139.75 143.77 138.28 149.33 137.74
C 155.20 137.16 161.10 136.03 163.40 135.04
C 167.48 133.30 176.11 127.16 181.28 122.33
C 183.64 120.12 184.49 119.79 185.73 120.56
C 188.69 122.44 187.36 124.68 179.79 130.60
C 175.68 133.81 171.50 137.55 170.50 138.89
L 168.68 141.33
L 171.59 147.78
C 173.19 151.32 176.85 160.35 179.73 167.82
C 182.62 175.31 187.29 185.90 190.12 191.38
C 194.64 200.13 196.28 202.33 203.72 209.60
C 212.46 218.15 217.20 221.03 232.34 227.00
C 239.41 229.78 247.87 230.29 246.94 227.88
C 246.63 227.08 242.81 220.58 238.43 213.41
C 224.20 190.11 218.98 176.65 218.59 162.22
C 218.41 155.68 218.54 155.11 220.15 155.11
C 221.68 155.11 222.04 156.12 222.99 163.24
C 225.02 178.43 228.74 187.08 244.45 213.15
C 256.13 232.53 256.15 232.60 254.03 257.12
C 251.98 280.99 248.70 295.15 242.84 305.36
L 240.11 310.12
L 243.05 310.60
C 246.00 311.09 250.10 311.62 252.76 311.87
C 253.55 311.94 254.73 311.37 255.37 310.60
M 388.44 303.78
C 393.85 298.28 397.29 293.66 402.14 285.33
C 405.70 279.22 416.40 261.48 425.89 245.92
C 435.39 230.36 443.00 217.47 442.82 217.27
C 442.26 216.73 418.06 221.00 414.11 222.35
L 410.55 223.56
L 410.02 231.11
C 409.54 237.96 408.76 240.44 401.68 257.78
C 390.63 284.85 385.48 294.69 374.64 309.45
C 373.49 311.00 373.67 311.11 377.32 311.11
C 381.04 311.11 381.59 310.76 388.44 303.78
M 517.99 190.44
C 517.84 181.28 517.46 171.58 517.15 168.89
L 516.60 164.00
L 515.39 168.44
C 514.73 170.89 513.57 176.39 512.80 180.68
C 511.57 187.59 511.56 189.03 512.74 193.56
C 513.98 198.41 517.35 207.11 517.98 207.11
C 518.14 207.11 518.15 199.61 517.99 190.44
M 186.67 80.95
C 192.04 78.20 196.73 71.69 195.16 69.16
C 193.67 66.76 182.44 70.75 176.73 75.72
L 173.31 78.69
L 174.89 81.44
C 176.38 84.04 176.65 84.14 179.94 83.40
C 181.85 82.97 184.89 81.88 186.67 80.95
M 172.75 72.07
C 175.79 69.61 179.21 65.83 180.56 63.40
C 181.89 61.04 185.25 55.53 188.03 51.15
C 190.92 46.62 193.92 40.52 194.98 37.00
C 196.69 31.39 196.78 30.04 195.93 22.18
C 195.40 17.42 194.36 12.38 193.60 10.99
C 192.25 8.49 192.22 8.55 192.19 14.79
C 192.15 21.77 189.56 35.72 187.16 41.86
C 183.30 51.73 177.17 58.31 167.00 63.47
C 158.34 67.87 156.41 72.18 161.79 75.10
C 165.52 77.13 167.01 76.71 172.75 72.07
M 127.28 67.76
L 130.04 65.29
L 124.87 61.76
C 122.03 59.81 117.42 56.33 114.62 54.03
C 106.43 47.24 102.40 36.74 102.27 21.78
L 102.22 16.44
L 99.64 21.33
C 95.46 29.27 94.80 34.11 96.93 41.00
C 100.28 51.81 109.70 63.54 118.63 67.99
C 121.09 69.22 123.43 70.22 123.81 70.22
C 124.20 70.22 125.76 69.11 127.28 67.76"/>
<path fill="#000000" stroke="none" d="
M 49.82 265.78
C 48.13 264.09 48.04 262.82 48.04 239.51
L 48.04 215.03
L 50.22 212.84
C 52.72 210.36 55.67 210.06 58.48 212.03
C 59.55 212.77 63.28 217.16 66.76 221.76
C 74.53 232.05 83.26 240.97 88.67 244.13
C 93.54 246.99 98.54 247.24 103.64 244.86
C 108.67 242.52 118.65 232.23 126.26 221.54
C 129.83 216.51 133.48 212.01 134.37 211.54
C 136.98 210.13 140.42 210.53 142.34 212.44
C 144.03 214.13 144.12 215.40 144.12 239.11
C 144.12 262.82 144.03 264.09 142.34 265.78
C 140.60 267.51 139.37 267.56 96.08 267.56
C 52.78 267.56 51.55 267.51 49.82 265.78
M 136.82 260.27
C 138.02 259.07 138.41 217.78 137.22 217.78
C 136.86 217.78 135.35 219.68 133.88 222.00
C 129.97 228.20 121.98 238.00 116.48 243.38
C 106.60 253.01 96.34 255.35 86.29 250.26
C 80.34 247.24 69.40 236.38 61.42 225.56
C 58.26 221.28 55.36 217.78 54.97 217.78
C 53.76 217.78 54.11 259.04 55.33 260.27
C 56.87 261.80 135.28 261.80 136.82 260.27"/>
<path fill="#000000" stroke="none" d="
M 6.23 566.67
L 6.23 544.89
L 28.02 544.89
L 49.82 544.89
L 49.82 566.67
L 49.82 588.44
L 28.02 588.44
L 6.23 588.44
L 6.23 566.67
M 46.26 566.67
L 46.26 548.44
L 28.02 548.44
L 9.79 548.44
L 9.79 566.67
L 9.79 584.89
L 28.02 584.89
L 46.26 584.89
L 46.26 566.67"/>
<path fill="#000000" stroke="none" d="
M 57.82 566.67
L 57.82 544.89
L 81.40 544.89
L 104.97 544.89
L 104.97 566.67
L 104.97 588.44
L 81.40 588.44
L 57.82 588.44
L 57.82 566.67
M 101.41 566.67
L 101.41 548.44
L 81.40 548.44
L 61.38 548.44
L 61.38 566.67
L 61.38 584.89
L 81.40 584.89
L 101.41 584.89
L 101.41 566.67"/>
<path fill="#000000" stroke="none" d="
M 112.98 566.67
L 112.98 544.89
L 137.44 544.89
L 161.91 544.89
L 161.91 566.67
L 161.91 588.44
L 137.44 588.44
L 112.98 588.44
L 112.98 566.67
M 158.35 566.67
L 158.35 548.44
L 137.44 548.44
L 116.54 548.44
L 116.54 566.67
L 116.54 584.89
L 137.44 584.89
L 158.35 584.89
L 158.35 566.67"/>
<path fill="#000000" stroke="none" d="
M 169.91 566.67
L 169.91 544.89
L 193.93 544.89
L 217.95 544.89
L 217.95 566.67
L 217.95 588.44
L 193.93 588.44
L 169.91 588.44
L 169.91 566.67
M 214.39 566.67
L 214.39 548.44
L 193.93 548.44
L 173.47 548.44
L 173.47 566.67
L 173.47 584.89
L 193.93 584.89
L 214.39 584.89
L 214.39 566.67"/>
<path fill="#000000" stroke="none" d="
M 225.96 566.67
L 225.96 544.89
L 250.42 544.89
L 274.89 544.89
L 274.89 566.67
L 274.89 588.44
L 250.42 588.44
L 225.96 588.44
L 225.96 566.67
M 271.33 566.67
L 271.33 548.44
L 250.42 548.44
L 229.52 548.44
L 229.52 566.67
L 229.52 584.89
L 250.42 584.89
L 271.33 584.89
L 271.33 566.67"/>
<path fill="#000000" stroke="none" d="
M 282.89 566.67
L 282.89 544.89
L 306.47 544.89
L 330.04 544.89
L 330.04 566.67
L 330.04 588.44
L 306.47 588.44
L 282.89 588.44
L 282.89 566.67
M 326.48 566.67
L 326.48 548.44
L 306.47 548.44
L 286.45 548.44
L 286.45 566.67
L 286.45 584.89
L 306.47 584.89
L 326.48 584.89
L 326.48 566.67"/>
<path fill="#000000" stroke="none" d="
M 338.05 566.67
L 338.05 544.89
L 362.07 544.89
L 386.09 544.89
L 386.09 566.67
L 386.09 588.44
L 362.07 588.44
L 338.05 588.44
L 338.05 566.67
M 382.53 566.67
L 382.53 548.44
L 362.07 548.44
L 341.61 548.44
L 341.61 566.67
L 341.61 584.89
L 362.07 584.89
L 382.53 584.89
L 382.53 566.67"/>
<path fill="#000000" stroke="none" d="
M 394.09 566.67
L 394.09 544.89
L 418.56 544.89
L 443.02 544.89
L 443.02 566.67
L 443.02 588.44
L 418.56 588.44
L 394.09 588.44
L 394.09 566.67
M 439.46 566.67
L 439.46 548.44
L 418.56 548.44
L 397.65 548.44
L 397.65 566.67
L 397.65 584.89
L 418.56 584.89
L 439.46 584.89
L 439.46 566.67"/>
<path fill="#000000" stroke="none" d="
M 451.03 566.67
L 451.03 544.89
L 474.60 544.89
L 498.18 544.89
L 498.18 566.67
L 498.18 588.44
L 474.60 588.44
L 451.03 588.44
L 451.03 566.67
M 494.62 566.67
L 494.62 548.44
L 474.60 548.44
L 454.59 548.44
L 454.59 566.67
L 454.59 584.89
L 474.60 584.89
L 494.62 584.89
L 494.62 566.67"/>
<path fill="#000000" stroke="none" d="
M 506.18 566.67
L 506.18 544.89
L 527.98 544.89
L 549.77 544.89
L 549.77 566.67
L 549.77 588.44
L 527.98 588.44
L 506.18 588.44
L 506.18 566.67
M 546.21 566.67
L 546.21 548.44
L 527.98 548.44
L 509.74 548.44
L 509.74 566.67
L 509.74 584.89
L 527.98 584.89
L 546.21 584.89
L 546.21 566.67"/>
<path fill="#000000" stroke="none" d="
M 6.23 515.11
L 6.23 493.33
L 28.02 493.33
L 49.82 493.33
L 49.82 515.11
L 49.82 536.89
L 28.02 536.89
L 6.23 536.89
L 6.23 515.11
M 46.26 515.11
L 46.26 496.89
L 28.02 496.89
L 9.79 496.89
L 9.79 515.11
L 9.79 533.33
L 28.02 533.33
L 46.26 533.33
L 46.26 515.11"/>
<path fill="#000000" stroke="none" d="
M 57.82 515.11
L 57.82 493.33
L 81.40 493.33
L 104.97 493.33
L 104.97 515.11
L 104.97 536.89
L 81.40 536.89
L 57.82 536.89
L 57.82 515.11
M 101.41 515.11
L 101.41 496.89
L 81.40 496.89
L 61.38 496.89
L 61.38 515.11
L 61.38 533.33
L 81.40 533.33
L 101.41 533.33
L 101.41 515.11"/>
<path fill="#000000" stroke="none" d="
M 112.98 515.11
L 112.98 493.33
L 137.44 493.33
L 161.91 493.33
L 161.91 515.11
L 161.91 536.89
L 137.44 536.89
L 112.98 536.89
L 112.98 515.11
M 158.35 515.11
L 158.35 496.89
L 137.44 496.89
L 116.54 496.89
L 116.54 515.11
L 116.54 533.33
L 137.44 533.33
L 158.35 533.33
L 158.35 515.11"/>
<path fill="#000000" stroke="none" d="
M 169.91 515.11
L 169.91 493.33
L 193.93 493.33
L 217.95 493.33
L 217.95 515.11
L 217.95 536.89
L 193.93 536.89
L 169.91 536.89
L 169.91 515.11
M 214.39 515.11
L 214.39 496.89
L 193.93 496.89
L 173.47 496.89
L 173.47 515.11
L 173.47 533.33
L 193.93 533.33
L 214.39 533.33
L 214.39 515.11"/>
<path fill="#000000" stroke="none" d="
M 225.96 515.11
L 225.96 493.33
L 250.42 493.33
L 274.89 493.33
L 274.89 515.11
L 274.89 536.89
L 250.42 536.89
L 225.96 536.89
L 225.96 515.11
M 271.33 515.11
L 271.33 496.89
L 250.42 496.89
L 229.52 496.89
L 229.52 515.11
L 229.52 533.33
L 250.42 533.33
L 271.33 533.33
L 271.33 515.11"/>
<path fill="#000000" stroke="none" d="
M 282.89 515.11
L 282.89 493.33
L 306.47 493.33
L 330.04 493.33
L 330.04 515.11
L 330.04 536.89
L 306.47 536.89
L 282.89 536.89
L 282.89 515.11
M 326.48 515.11
L 326.48 496.89
L 306.47 496.89
L 286.45 496.89
L 286.45 515.11
L 286.45 533.33
L 306.47 533.33
L 326.48 533.33
L 326.48 515.11"/>
<path fill="#000000" stroke="none" d="
M 338.05 515.11
L 338.05 493.33
L 362.07 493.33
L 386.09 493.33
L 386.09 515.11
L 386.09 536.89
L 362.07 536.89
L 338.05 536.89
L 338.05 515.11
M 382.53 515.11
L 382.53 496.89
L 362.07 496.89
L 341.61 496.89
L 341.61 515.11
L 341.61 533.33
L 362.07 533.33
L 382.53 533.33
L 382.53 515.11"/>
<path fill="#000000" stroke="none" d="
M 394.09 515.11
L 394.09 493.33
L 418.56 493.33
L 443.02 493.33
L 443.02 515.11
L 443.02 536.89
L 418.56 536.89
L 394.09 536.89
L 394.09 515.11
M 439.46 515.11
L 439.46 496.89
L 418.56 496.89
L 397.65 496.89
L 397.65 515.11
L 397.65 533.33
L 418.56 533.33
L 439.46 533.33
L 439.46 515.11"/>
<path fill="#000000" stroke="none" d="
M 451.03 515.11
L 451.03 493.33
L 474.60 493.33
L 498.18 493.33
L 498.18 515.11
L 498.18 536.89
L 474.60 536.89
L 451.03 536.89
L 451.03 515.11
M 494.62 515.11
L 494.62 496.89
L 474.60 496.89
L 454.59 496.89
L 454.59 515.11
L 454.59 533.33
L 474.60 533.33
L 494.62 533.33
L 494.62 515.11"/>
<path fill="#000000" stroke="none" d="
M 506.18 515.11
L 506.18 493.33
L 527.98 493.33
L 549.77 493.33
L 549.77 515.11
L 549.77 536.89
L 527.98 536.89
L 506.18 536.89
L 506.18 515.11
M 546.21 515.11
L 546.21 496.89
L 527.98 496.89
L 509.74 496.89
L 509.74 515.11
L 509.74 533.33
L 527.98 533.33
L 546.21 533.33
L 546.21 515.11"/>
<path fill="#000000" stroke="none" d="
M 100.30 128.82
C 97.99 127.47 98.37 124.01 101.02 122.27
C 105.76 119.16 108.89 121.94 106.81 127.40
C 105.84 129.94 103.21 130.52 100.30 128.82"/>
<path fill="#000000" stroke="none" d="
M 133.37 102.29
C 131.45 100.36 130.77 98.85 130.77 96.44
C 130.77 91.93 134.70 88.00 139.22 88.00
C 143.74 88.00 147.67 91.93 147.67 96.44
C 147.67 98.85 147.00 100.36 145.08 102.29
C 141.48 105.88 136.96 105.88 133.37 102.29
M 143.62 100.25
C 145.48 97.60 145.37 94.86 143.31 92.32
C 141.07 89.57 139.97 90.72 141.94 93.73
C 143.28 95.78 143.32 96.38 142.26 98.48
C 141.61 99.80 140.91 101.19 140.73 101.56
C 139.97 103.13 142.36 102.04 143.62 100.25"/>
<path fill="#aba2a2" stroke="none" d="
M 161.79 75.10
C 156.41 72.18 158.34 67.87 167.00 63.47
C 174.51 59.66 179.01 55.88 182.59 50.44
C 188.05 42.07 191.00 31.75 192.04 17.33
C 192.55 10.08 192.72 9.53 193.79 11.42
C 194.45 12.57 195.40 17.40 195.92 22.17
C 196.78 30.04 196.69 31.38 194.98 37.00
C 193.92 40.52 190.92 46.62 188.03 51.15
C 185.25 55.53 181.89 61.04 180.56 63.40
C 177.96 68.06 168.37 76.47 165.74 76.41
C 164.85 76.39 163.08 75.80 161.79 75.10"/>
<path fill="#aba2a2" stroke="none" d="
M 118.63 67.99
C 109.70 63.54 100.28 51.81 96.93 41.00
C 94.80 34.11 95.46 29.27 99.64 21.33
L 102.22 16.44
L 102.27 21.78
C 102.40 36.74 106.43 47.24 114.62 54.03
C 117.42 56.33 122.03 59.81 124.87 61.76
L 130.04 65.29
L 127.28 67.76
C 125.76 69.11 124.20 70.22 123.81 70.22
C 123.43 70.22 121.09 69.22 118.63 67.99"/>
<path fill="#aa4422" stroke="none" d="
M 181.19 309.69
L 176.90 307.46
L 180.81 302.84
C 191.82 289.82 196.52 279.63 204.63 251.11
C 206.16 245.73 208.62 237.48 210.10 232.77
L 212.78 224.22
L 222.70 228.52
C 232.62 232.82 232.63 232.83 232.39 235.74
C 232.16 238.60 228.29 247.15 222.02 258.67
C 220.28 261.84 215.48 271.45 211.34 280.00
C 207.12 288.74 202.04 297.80 199.75 300.67
C 195.85 305.56 188.24 311.97 186.37 311.94
C 185.88 311.93 183.55 310.92 181.19 309.69"/>
<path fill="#aa4422" stroke="none" d="
M 248.64 311.41
C 247.18 311.24 244.66 310.87 243.05 310.60
L 240.11 310.12
L 242.84 305.36
C 248.70 295.15 251.98 280.99 254.03 257.12
C 256.15 232.60 256.13 232.53 244.45 213.15
C 228.74 187.08 225.02 178.43 222.99 163.24
C 222.04 156.12 221.68 155.11 220.15 155.11
C 218.54 155.11 218.41 155.68 218.59 162.22
C 218.98 176.65 224.20 190.11 238.43 213.41
C 242.81 220.58 246.63 227.08 246.94 227.88
C 247.87 230.29 239.41 229.78 232.34 227.00
C 217.20 221.03 212.46 218.15 203.72 209.60
C 196.28 202.33 194.64 200.13 190.12 191.38
C 187.29 185.90 182.62 175.31 179.73 167.82
C 176.85 160.35 173.19 151.32 171.59 147.78
L 168.68 141.33
L 170.50 138.89
C 171.50 137.55 175.68 133.81 179.79 130.60
C 187.36 124.68 188.69 122.44 185.73 120.56
C 184.49 119.79 183.64 120.12 181.28 122.33
C 176.11 127.16 167.48 133.30 163.40 135.04
C 161.10 136.03 155.20 137.16 149.33 137.74
C 143.77 138.28 131.65 139.75 122.40 141.00
C 105.07 143.32 101.12 143.26 97.87 140.64
C 96.07 139.18 96.45 139.12 106.71 139.40
L 117.43 139.71
L 117.43 137.40
L 117.43 135.11
L 108.75 135.09
C 102.05 135.08 99.27 134.68 96.52 133.36
C 87.35 128.96 83.81 121.62 88.18 116.06
C 89.22 114.75 93.32 111.42 97.30 108.68
C 107.31 101.76 122.66 86.26 125.74 79.95
C 128.40 74.46 135.19 67.28 139.05 65.83
C 140.43 65.32 144.95 64.63 149.11 64.31
L 156.65 63.73
L 155.61 66.02
C 153.36 70.97 157.16 77.91 163.01 79.55
C 164.12 79.86 165.82 80.45 166.80 80.86
C 167.78 81.28 169.30 81.85 170.18 82.13
C 171.05 82.41 172.36 84.04 173.08 85.77
C 174.53 89.23 174.90 89.32 181.66 87.89
C 186.96 86.76 192.55 84.21 195.38 81.62
C 197.27 79.90 197.33 79.90 203.39 81.72
C 206.75 82.72 215.47 84.56 222.76 85.80
C 230.05 87.04 246.46 90.85 259.23 94.28
C 297.47 104.52 310.24 106.67 333.13 106.67
C 349.27 106.67 362.94 105.26 390.53 100.78
C 437.04 93.24 452.78 92.08 475.05 94.58
C 497.70 97.11 508.95 100.86 517.51 108.72
C 524.56 115.19 524.82 116.34 524.86 141.78
C 524.92 179.63 526.26 190.39 533.88 214.05
C 539.84 232.57 541.72 242.33 540.02 246.05
L 538.93 248.44
L 536.93 245.93
C 533.97 242.24 525.22 221.25 523.59 213.99
C 522.95 211.12 521.11 159.36 520.97 140.00
C 520.87 127.61 520.70 126.32 518.55 121.78
C 515.51 115.35 510.04 108.89 507.63 108.89
C 504.53 108.89 504.96 111.64 508.86 116.56
C 514.54 123.74 516.10 127.48 516.59 135.04
C 517.05 142.19 516.05 147.72 510.59 168.00
C 508.46 175.95 507.83 180.20 507.76 187.11
C 507.64 197.16 509.13 202.11 515.99 214.61
L 519.74 221.43
L 518.31 226.04
C 514.71 237.67 513.02 272.16 515.17 290.05
C 516.41 300.43 515.76 302.28 509.80 305.30
C 506.50 306.98 503.97 307.56 499.98 307.56
C 497.03 307.56 494.62 307.46 494.62 307.33
C 494.62 307.21 495.52 304.91 496.62 302.22
C 498.55 297.51 498.62 296.33 498.62 269.33
C 498.62 241.96 498.58 241.22 496.51 236.00
C 493.65 228.78 486.82 222.27 475.55 216.00
C 465.43 210.37 458.78 204.68 453.30 196.97
C 448.84 190.68 443.93 181.12 441.74 174.44
C 440.45 170.52 439.86 169.78 438.06 169.78
C 435.37 169.78 435.30 171.31 437.67 178.16
C 440.47 186.31 445.44 195.47 451.10 202.92
C 454.39 207.25 455.95 209.97 455.25 210.20
C 454.64 210.40 447.13 211.59 438.57 212.85
C 430.01 214.12 420.20 215.56 416.78 216.08
C 409.93 217.09 393.22 221.72 389.53 223.62
C 387.52 224.66 385.78 224.58 377.07 223.08
C 369.62 221.80 362.79 221.34 351.09 221.34
C 338.46 221.33 332.23 220.86 320.49 219.04
C 306.95 216.93 305.15 216.84 298.30 217.85
C 293.80 218.52 290.55 218.64 290.11 218.15
C 289.71 217.70 288.76 212.79 287.99 207.24
C 286.55 196.71 285.81 194.93 283.28 195.89
C 282.09 196.36 281.89 197.17 282.31 199.80
C 282.62 201.62 283.33 206.92 283.90 211.56
L 284.95 220.00
L 280.85 230.22
C 273.01 249.76 268.90 267.27 266.93 289.51
C 265.84 301.83 264.58 305.10 259.99 307.44
C 258.09 308.41 256.01 309.83 255.37 310.60
C 254.22 311.99 253.81 312.04 248.64 311.41
M 106.81 127.40
C 108.89 121.94 105.76 119.16 101.02 122.27
C 96.88 124.99 98.67 129.68 103.88 129.75
C 105.28 129.77 106.19 129.03 106.81 127.40
M 145.08 102.29
C 147.00 100.36 147.67 98.85 147.67 96.44
C 147.67 91.93 143.74 88.00 139.22 88.00
C 134.70 88.00 130.77 91.93 130.77 96.44
C 130.77 98.85 131.45 100.36 133.37 102.29
C 136.96 105.88 141.48 105.88 145.08 102.29"/>
<path fill="#aa4422" stroke="none" d="
M 374.64 309.45
C 385.48 294.69 390.63 284.85 401.68 257.78
C 408.76 240.44 409.54 237.96 410.02 231.11
L 410.55 223.56
L 414.11 222.35
C 418.06 221.00 442.26 216.73 442.82 217.27
C 443.00 217.47 435.39 230.36 425.89 245.92
C 416.40 261.48 405.70 279.22 402.14 285.33
C 397.29 293.66 393.85 298.28 388.44 303.78
C 381.59 310.76 381.04 311.11 377.32 311.11
C 373.67 311.11 373.49 311.00 374.64 309.45"/>
<path fill="#e3a578" stroke="none" d="
M 174.89 81.44
L 173.31 78.69
L 176.73 75.72
C 180.80 72.17 185.91 69.72 190.95 68.92
C 195.25 68.22 196.11 69.05 194.77 72.60
C 192.85 77.65 187.19 81.78 179.94 83.40
C 176.65 84.14 176.38 84.04 174.89 81.44"/>
<path fill="#eb2e00" stroke="none" d="
M 140.73 101.56
C 140.91 101.19 141.61 99.80 142.26 98.48
C 143.31 96.39 143.29 95.78 142.02 93.86
C 140.21 91.08 141.70 89.91 143.61 92.63
C 145.38 95.16 145.39 97.73 143.62 100.25
C 142.36 102.04 139.97 103.13 140.73 101.56"/>
<path fill="#c55436" stroke="none" d="
M 274.89 447.12
L 274.89 412.47
L 278.89 414.41
L 282.89 416.36
L 282.89 449.07
L 282.89 481.78
L 278.89 481.78
L 274.89 481.78
L 274.89 447.12"/>
<path fill="#c55436" stroke="none" d="
M 278.67 394.10
L 274.89 391.82
L 274.89 371.47
L 274.89 351.11
L 278.89 351.11
L 282.89 351.11
L 282.89 373.78
C 282.89 386.24 282.79 396.43 282.67 396.41
C 282.55 396.39 280.75 395.35 278.67 394.10"/>
<path fill="#c55436" stroke="none" d="
M 14.23 343.11
C 13.26 342.13 12.45 340.34 12.45 339.11
C 12.45 337.88 13.26 336.09 14.23 335.11
C 16.00 333.34 17.20 333.33 279.16 333.33
C 482.63 333.33 542.54 333.57 543.37 334.40
C 544.75 335.78 544.75 342.44 543.37 343.82
C 542.54 344.65 482.63 344.89 279.16 344.89
C 17.20 344.89 16.00 344.88 14.23 343.11"/>
<path fill="#c55436" stroke="none" d="
M 55.33 260.27
C 54.09 259.02 53.78 219.08 55.00 218.32
C 55.40 218.06 58.30 221.34 61.44 225.60
C 69.41 236.38 80.35 247.24 86.29 250.26
C 96.34 255.35 106.60 253.01 116.48 243.38
C 121.98 238.00 129.97 228.20 133.88 222.00
C 135.35 219.68 136.86 217.78 137.22 217.78
C 138.41 217.78 138.02 259.07 136.82 260.27
C 135.28 261.80 56.87 261.80 55.33 260.27"/>
<path fill="#ffa153" stroke="none" d="
M 50.15 374.68
C 47.16 374.03 42.43 372.42 39.64 371.10
C 33.89 368.38 23.29 360.24 18.73 355.05
L 15.67 351.56
L 21.31 351.29
C 26.26 351.05 27.22 351.28 29.26 353.19
C 36.80 360.25 47.85 365.68 56.93 366.80
C 64.44 367.73 79.34 361.77 87.54 354.56
L 91.46 351.11
L 100.21 351.15
L 108.98 351.18
L 105.42 354.34
C 100.40 358.77 87.06 366.90 79.17 370.30
C 72.96 373.00 60.85 376.09 57.19 375.93
C 56.32 375.89 53.14 375.32 50.15 374.68"/>
<path fill="#ffa153" stroke="none" d="
M 8.01 325.56
C 8.01 321.36 12.93 304.52 16.00 298.16
C 21.31 287.19 28.29 281.73 36.92 281.81
C 47.02 281.91 74.82 300.22 96.52 321.07
L 102.75 327.06
L 96.08 327.08
L 89.40 327.10
L 79.62 318.12
C 58.02 298.29 52.12 293.96 42.95 291.19
L 37.56 289.56
L 32.66 291.80
C 25.24 295.20 22.53 300.60 19.11 318.89
L 17.57 327.11
L 12.79 327.11
C 8.82 327.11 8.01 326.84 8.01 325.56"/>
<path fill="#827373" stroke="none" d="
M 178.02 319.56
C 181.24 315.08 180.98 315.23 183.32 316.48
C 187.14 318.52 183.58 323.56 178.31 323.56
L 175.14 323.56
L 178.02 319.56"/>
<path fill="#827373" stroke="none" d="
M 243.64 319.78
C 245.07 316.43 245.61 315.97 248.50 315.72
C 252.11 315.41 252.17 315.48 250.78 318.50
C 249.91 320.42 245.00 323.56 242.87 323.56
C 242.42 323.56 242.76 321.86 243.64 319.78"/>
<path fill="#827373" stroke="none" d="
M 361.66 322.72
C 361.15 321.90 368.71 315.56 370.20 315.56
C 371.72 315.56 370.90 317.04 367.59 320.27
C 364.18 323.59 362.60 324.25 361.66 322.72"/>
<path fill="#827373" stroke="none" d="
M 373.47 321.11
C 377.46 315.54 380.75 314.25 380.75 318.28
C 380.75 320.87 377.56 323.56 374.46 323.56
L 371.73 323.56
L 373.47 321.11"/>
<path fill="#827373" stroke="none" d="
M 167.69 321.78
C 166.97 320.62 172.52 312.89 174.07 312.89
C 175.76 312.89 175.62 313.27 172.06 318.22
C 168.60 323.03 168.51 323.10 167.69 321.78"/>
<path fill="#827373" stroke="none" d="
M 235.31 321.64
C 234.67 320.01 237.06 314.67 238.44 314.67
C 239.73 314.67 239.43 316.52 237.56 320.00
C 236.23 322.47 235.76 322.81 235.31 321.64"/>
<path fill="#827373" stroke="none" d="
M 487.83 321.36
C 487.14 319.56 491.17 312.53 493.12 312.16
C 494.49 311.89 494.33 312.61 491.98 317.26
C 489.09 322.99 488.63 323.44 487.83 321.36"/>
<path fill="#827373" stroke="none" d="
M 498.18 317.33
C 500.80 312.15 503.03 310.61 504.07 313.30
C 504.82 315.24 502.70 320.78 500.84 321.79
C 499.93 322.27 498.35 322.67 497.33 322.67
C 495.55 322.67 495.59 322.46 498.18 317.33"/>
<path fill="#ef907a" stroke="none" d="
M 310.04 415.90
C 282.66 411.91 252.85 396.82 230.78 375.77
C 222.29 367.67 210.84 353.98 210.84 351.95
C 210.84 351.48 213.02 351.11 215.70 351.11
L 220.58 351.11
L 226.41 359.06
C 244.60 383.80 279.79 405.56 312.18 412.05
C 317.48 413.12 322.30 413.43 328.64 413.14
C 336.78 412.76 337.34 412.84 334.71 413.92
C 331.63 415.20 321.29 416.92 317.59 416.76
C 316.36 416.71 312.97 416.32 310.04 415.90"/>
<path fill="#ef907a" stroke="none" d="
M 344.16 380.60
C 340.75 374.52 334.31 366.23 326.73 358.19
L 320.07 351.11
L 325.05 351.11
C 329.85 351.11 330.12 351.24 332.66 354.74
C 337.40 361.28 347.94 383.31 346.85 384.39
C 346.65 384.59 345.45 382.88 344.16 380.60"/>
<path fill="#0885ff" stroke="none" d="
M 5.34 594.67
C 3.60 592.93 3.56 591.71 3.56 541.06
C 3.56 497.70 3.76 488.95 4.82 487.50
C 6.07 485.80 9.99 485.78 277.48 485.56
C 548.06 485.32 548.88 485.33 550.66 487.11
C 552.41 488.85 552.44 490.04 552.44 540.89
C 552.44 591.71 552.40 592.93 550.66 594.67
C 548.89 596.44 547.70 596.44 278.00 596.44
C 8.30 596.44 7.11 596.44 5.34 594.67
M 49.82 566.67
L 49.82 544.89
L 28.02 544.89
L 6.23 544.89
L 6.23 566.67
L 6.23 588.44
L 28.02 588.44
L 49.82 588.44
L 49.82 566.67
M 104.97 566.67
L 104.97 544.89
L 81.40 544.89
L 57.82 544.89
L 57.82 566.67
L 57.82 588.44
L 81.40 588.44
L 104.97 588.44
L 104.97 566.67
M 161.91 566.67
L 161.91 544.89
L 137.44 544.89
L 112.98 544.89
L 112.98 566.67
L 112.98 588.44
L 137.44 588.44
L 161.91 588.44
L 161.91 566.67
M 217.95 566.67
L 217.95 544.89
L 193.93 544.89
L 169.91 544.89
L 169.91 566.67
L 169.91 588.44
L 193.93 588.44
L 217.95 588.44
L 217.95 566.67
M 274.89 566.67
L 274.89 544.89
L 250.42 544.89
L 225.96 544.89
L 225.96 566.67
L 225.96 588.44
L 250.42 588.44
L 274.89 588.44
L 274.89 566.67
M 330.04 566.67
L 330.04 544.89
L 306.47 544.89
L 282.89 544.89
L 282.89 566.67
L 282.89 588.44
L 306.47 588.44
L 330.04 588.44
L 330.04 566.67
M 386.09 566.67
L 386.09 544.89
L 362.07 544.89
L 338.05 544.89
L 338.05 566.67
L 338.05 588.44
L 362.07 588.44
L 386.09 588.44
L 386.09 566.67
M 443.02 566.67
L 443.02 544.89
L 418.56 544.89
L 394.09 544.89
L 394.09 566.67
L 394.09 588.44
L 418.56 588.44
L 443.02 588.44
L 443.02 566.67
M 498.18 566.67
L 498.18 544.89
L 474.60 544.89
L 451.03 544.89
L 451.03 566.67
L 451.03 588.44
L 474.60 588.44
L 498.18 588.44
L 498.18 566.67
M 549.77 566.67
L 549.77 544.89
L 527.98 544.89
L 506.18 544.89
L 506.18 566.67
L 506.18 588.44
L 527.98 588.44
L 549.77 588.44
L 549.77 566.67
M 49.82 515.11
L 49.82 493.33
L 28.02 493.33
L 6.23 493.33
L 6.23 515.11
L 6.23 536.89
L 28.02 536.89
L 49.82 536.89
L 49.82 515.11
M 104.97 515.11
L 104.97 493.33
L 81.40 493.33
L 57.82 493.33
L 57.82 515.11
L 57.82 536.89
L 81.40 536.89
L 104.97 536.89
L 104.97 515.11
M 161.91 515.11
L 161.91 493.33
L 137.44 493.33
L 112.98 493.33
L 112.98 515.11
L 112.98 536.89
L 137.44 536.89
L 161.91 536.89
L 161.91 515.11
M 217.95 515.11
L 217.95 493.33
L 193.93 493.33
L 169.91 493.33
L 169.91 515.11
L 169.91 536.89
L 193.93 536.89
L 217.95 536.89
L 217.95 515.11
M 274.89 515.11
L 274.89 493.33
L 250.42 493.33
L 225.96 493.33
L 225.96 515.11
L 225.96 536.89
L 250.42 536.89
L 274.89 536.89
L 274.89 515.11
M 330.04 515.11
L 330.04 493.33
L 306.47 493.33
L 282.89 493.33
L 282.89 515.11
L 282.89 536.89
L 306.47 536.89
L 330.04 536.89
L 330.04 515.11
M 386.09 515.11
L 386.09 493.33
L 362.07 493.33
L 338.05 493.33
L 338.05 515.11
L 338.05 536.89
L 362.07 536.89
L 386.09 536.89
L 386.09 515.11
M 443.02 515.11
L 443.02 493.33
L 418.56 493.33
L 394.09 493.33
L 394.09 515.11
L 394.09 536.89
L 418.56 536.89
L 443.02 536.89
L 443.02 515.11
M 498.18 515.11
L 498.18 493.33
L 474.60 493.33
L 451.03 493.33
L 451.03 515.11
L 451.03 536.89
L 474.60 536.89
L 498.18 536.89
L 498.18 515.11
M 549.77 515.11
L 549.77 493.33
L 527.98 493.33
L 506.18 493.33
L 506.18 515.11
L 506.18 536.89
L 527.98 536.89
L 549.77 536.89
L 549.77 515.11"/>
<path fill="#c57a36" stroke="none" d="
M 9.79 566.67
L 9.79 548.44
L 28.02 548.44
L 46.26 548.44
L 46.26 566.67
L 46.26 584.89
L 28.02 584.89
L 9.79 584.89
L 9.79 566.67"/>
<path fill="#c57a36" stroke="none" d="
M 61.38 566.67
L 61.38 548.44
L 81.40 548.44
L 101.41 548.44
L 101.41 566.67
L 101.41 584.89
L 81.40 584.89
L 61.38 584.89
L 61.38 566.67"/>
<path fill="#c57a36" stroke="none" d="
M 116.54 566.67
L 116.54 548.44
L 137.44 548.44
L 158.35 548.44
L 158.35 566.67
L 158.35 584.89
L 137.44 584.89
L 116.54 584.89
L 116.54 566.67"/>
<path fill="#c57a36" stroke="none" d="
M 173.47 566.67
L 173.47 548.44
L 193.93 548.44
L 214.39 548.44
L 214.39 566.67
L 214.39 584.89
L 193.93 584.89
L 173.47 584.89
L 173.47 566.67"/>
<path fill="#c57a36" stroke="none" d="
M 229.52 566.67
L 229.52 548.44
L 250.42 548.44
L 271.33 548.44
L 271.33 566.67
L 271.33 584.89
L 250.42 584.89
L 229.52 584.89
L 229.52 566.67"/>
<path fill="#c57a36" stroke="none" d="
M 286.45 566.67
L 286.45 548.44
L 306.47 548.44
L 326.48 548.44
L 326.48 566.67
L 326.48 584.89
L 306.47 584.89
L 286.45 584.89
L 286.45 566.67"/>
<path fill="#c57a36" stroke="none" d="
M 341.61 566.67
L 341.61 548.44
L 362.07 548.44
L 382.53 548.44
L 382.53 566.67
L 382.53 584.89
L 362.07 584.89
L 341.61 584.89
L 341.61 566.67"/>
<path fill="#c57a36" stroke="none" d="
M 397.65 566.67
L 397.65 548.44
L 418.56 548.44
L 439.46 548.44
L 439.46 566.67
L 439.46 584.89
L 418.56 584.89
L 397.65 584.89
L 397.65 566.67"/>
<path fill="#c57a36" stroke="none" d="
M 454.59 566.67
L 454.59 548.44
L 474.60 548.44
L 494.62 548.44
L 494.62 566.67
L 494.62 584.89
L 474.60 584.89
L 454.59 584.89
L 454.59 566.67"/>
<path fill="#c57a36" stroke="none" d="
M 509.74 566.67
L 509.74 548.44
L 527.98 548.44
L 546.21 548.44
L 546.21 566.67
L 546.21 584.89
L 527.98 584.89
L 509.74 584.89
L 509.74 566.67"/>
<path fill="#c57a36" stroke="none" d="
M 9.99 515.33
L 10.23 497.33
L 28.24 497.09
L 46.26 496.85
L 46.26 515.09
L 46.26 533.33
L 28.00 533.33
L 9.75 533.33
L 9.99 515.33"/>
<path fill="#c57a36" stroke="none" d="
M 61.38 515.11
L 61.38 496.89
L 81.40 496.89
L 101.41 496.89
L 101.41 515.11
L 101.41 533.33
L 81.40 533.33
L 61.38 533.33
L 61.38 515.11"/>
<path fill="#c57a36" stroke="none" d="
M 116.54 515.11
L 116.54 496.89
L 137.44 496.89
L 158.35 496.89
L 158.35 515.11
L 158.35 533.33
L 137.44 533.33
L 116.54 533.33
L 116.54 515.11"/>
<path fill="#c57a36" stroke="none" d="
M 173.47 515.11
L 173.47 496.89
L 193.93 496.89
L 214.39 496.89
L 214.39 515.11
L 214.39 533.33
L 193.93 533.33
L 173.47 533.33
L 173.47 515.11"/>
<path fill="#c57a36" stroke="none" d="
M 229.52 515.11
L 229.52 496.89
L 250.42 496.89
L 271.33 496.89
L 271.33 515.11
L 271.33 533.33
L 250.42 533.33
L 229.52 533.33
L 229.52 515.11"/>
<path fill="#c57a36" stroke="none" d="
M 286.45 515.11
L 286.45 496.89
L 306.47 496.89
L 326.48 496.89
L 326.48 515.11
L 326.48 533.33
L 306.47 533.33
L 286.45 533.33
L 286.45 515.11"/>
<path fill="#c57a36" stroke="none" d="
M 341.61 515.11
L 341.61 496.89
L 362.07 496.89
L 382.53 496.89
L 382.53 515.11
L 382.53 533.33
L 362.07 533.33
L 341.61 533.33
L 341.61 515.11"/>
<path fill="#c57a36" stroke="none" d="
M 397.65 515.11
L 397.65 496.89
L 418.56 496.89
L 439.46 496.89
L 439.46 515.11
L 439.46 533.33
L 418.56 533.33
L 397.65 533.33
L 397.65 515.11"/>
<path fill="#c57a36" stroke="none" d="
M 454.59 515.11
L 454.59 496.89
L 474.60 496.89
L 494.62 496.89
L 494.62 515.11
L 494.62 533.33
L 474.60 533.33
L 454.59 533.33
L 454.59 515.11"/>
<path fill="#c57a36" stroke="none" d="
M 509.74 515.11
L 509.74 496.89
L 527.98 496.89
L 546.21 496.89
L 546.21 515.11
L 546.21 533.33
L 527.98 533.33
L 509.74 533.33
L 509.74 515.11"/>
</g>
</svg>
