<?xml version="1.0" encoding="UTF-8" standalone="no"?>
<!DOCTYPE svg PUBLIC "-//W3C//DTD SVG 1.1//EN"
"http://www.w3.org/Graphics/SVG/1.1/DTD/svg11.dtd">
<svg width="439px" height="600px"
xmlns="http://www.w3.org/2000/svg" version="1.1">
<g transform="translate(0000, 0000) scale(1.0000, 1.0000)">
<path fill="#000000" stroke="none" d="
M 1.40 598.60
C 0.03 597.22 0.00 596.26 0.00 553.39
C 0.00 510.51 0.03 509.55 1.40 508.18
C 2.80 506.79 3.74 506.78 107.47 506.78
L 212.14 506.78
L 211.96 478.32
L 211.77 449.87
L 204.26 445.55
C 200.13 443.18 194.13 439.35 190.92 437.05
C 182.86 431.26 169.10 417.34 164.05 409.87
L 159.89 403.74
L 126.16 403.74
L 92.42 403.74
L 89.94 406.14
C 86.29 409.65 74.26 417.46 67.63 420.63
C 64.46 422.14 58.45 424.21 54.29 425.22
C 47.33 426.90 46.31 427.00 41.84 426.25
C 29.45 424.17 22.79 420.33 11.42 408.71
C 2.71 399.80 0.87 396.46 1.64 390.87
C 4.31 371.21 8.65 358.21 14.74 351.61
C 18.09 347.99 23.54 345.55 28.30 345.57
C 32.72 345.58 42.10 349.14 48.89 353.37
C 56.13 357.88 67.94 367.18 79.34 377.34
L 87.73 384.81
L 260.20 384.81
C 431.74 384.81 432.69 384.82 434.08 386.21
C 435.29 387.42 435.49 388.55 435.49 394.28
C 435.49 404.96 446.61 403.74 349.75 403.74
L 266.83 403.74
L 268.69 406.72
C 272.10 412.20 277.38 423.67 278.60 428.27
C 282.22 441.88 278.19 452.60 267.71 457.25
C 262.77 459.43 253.84 460.80 248.30 460.23
C 244.38 459.83 233.48 457.68 229.86 456.61
L 228.28 456.15
L 228.28 481.46
L 228.28 506.78
L 332.24 506.78
C 435.26 506.78 436.20 506.79 437.60 508.18
C 438.97 509.55 439.00 510.51 439.00 553.39
C 439.00 596.26 438.97 597.22 437.60 598.60
C 436.20 599.99 435.26 600.00 219.50 600.00
C 3.74 600.00 2.80 599.99 1.40 598.60
M 434.79 595.79
C 436.16 594.43 436.19 593.46 436.19 553.39
C 436.19 513.32 436.16 512.35 434.79 510.98
C 433.39 509.59 432.45 509.58 219.50 509.58
C 6.55 509.58 5.61 509.59 4.21 510.98
C 2.84 512.35 2.81 513.32 2.81 553.39
C 2.81 593.46 2.84 594.43 4.21 595.79
C 5.61 597.19 6.55 597.20 219.50 597.20
C 432.45 597.20 433.39 597.19 434.79 595.79
M 223.36 480.98
L 223.36 455.19
L 220.20 453.65
L 217.04 452.12
L 217.04 479.45
L 217.04 506.78
L 220.20 506.78
L 223.36 506.78
L 223.36 480.98
M 257.25 454.89
C 259.86 454.52 263.02 453.79 264.28 453.27
C 266.35 452.41 265.91 452.36 259.48 452.65
C 233.96 453.83 196.41 434.00 178.77 410.00
L 174.16 403.74
L 169.92 403.74
L 165.68 403.74
L 168.69 408.12
C 170.35 410.53 175.66 416.45 180.50 421.28
C 192.78 433.53 205.04 441.67 220.94 448.13
C 228.86 451.35 237.44 453.76 244.80 454.83
C 250.61 455.67 251.84 455.68 257.25 454.89
M 266.68 446.54
C 268.29 445.81 269.95 444.57 270.37 443.80
C 273.57 437.83 267.01 425.67 252.63 410.92
L 245.62 403.74
L 236.95 403.74
L 228.28 403.74
L 228.28 422.34
L 228.28 440.94
L 231.46 442.30
C 234.50 443.60 245.67 446.79 249.35 447.41
C 250.32 447.57 253.95 447.74 257.43 447.79
C 262.26 447.85 264.44 447.55 266.68 446.54
M 223.36 421.61
L 223.36 403.74
L 220.20 403.74
L 217.04 403.74
L 217.04 419.79
L 217.04 435.84
L 220.03 437.64
C 221.67 438.62 223.09 439.44 223.19 439.46
C 223.29 439.47 223.36 431.44 223.36 421.61
M 211.89 403.97
C 211.75 403.83 204.60 403.79 196.02 403.90
L 180.41 404.09
L 183.87 408.64
C 188.63 414.90 197.20 422.89 205.14 428.50
L 211.77 433.18
L 211.96 418.71
C 212.07 410.75 212.03 404.12 211.89 403.97
M 272.89 426.36
C 271.09 421.54 265.08 409.94 262.66 406.60
C 260.65 403.84 260.44 403.74 256.65 403.74
L 252.72 403.74
L 257.98 409.32
C 263.96 415.66 269.05 422.19 271.74 426.99
C 274.03 431.05 274.54 430.77 272.89 426.36
M 51.83 422.26
C 54.81 421.65 59.62 420.13 62.51 418.87
C 68.74 416.19 79.27 409.78 83.23 406.28
L 86.04 403.79
L 79.13 403.77
L 72.21 403.74
L 69.12 406.46
C 62.65 412.14 50.88 416.85 44.95 416.11
C 37.78 415.23 29.06 410.94 23.10 405.38
C 21.49 403.87 20.73 403.69 16.82 403.88
L 12.37 404.09
L 14.79 406.84
C 18.39 410.94 26.76 417.36 31.30 419.50
C 34.94 421.22 42.04 423.17 45.16 423.31
C 45.85 423.34 48.85 422.87 51.83 422.26
M 57.23 409.39
C 60.33 407.84 63.65 405.94 64.62 405.17
L 66.38 403.77
L 47.19 403.75
C 35.98 403.75 28.17 404.00 28.41 404.37
C 28.62 404.72 30.61 406.21 32.84 407.68
C 41.92 413.72 47.79 414.13 57.23 409.39
M 429.03 397.99
C 430.11 396.90 430.11 391.65 429.03 390.56
C 428.37 389.91 381.07 389.72 220.41 389.72
C 13.58 389.72 12.64 389.73 11.24 391.12
C 10.47 391.89 9.83 393.31 9.83 394.28
C 9.83 395.24 10.47 396.66 11.24 397.43
C 12.64 398.82 13.58 398.83 220.41 398.83
C 381.07 398.83 428.37 398.64 429.03 397.99
M 15.09 378.33
C 17.79 363.90 19.93 359.65 25.79 356.96
L 29.66 355.20
L 33.91 356.49
C 41.15 358.68 45.81 362.09 62.86 377.73
L 70.59 384.81
L 75.86 384.79
L 81.13 384.77
L 76.21 380.05
C 58.37 362.93 37.07 349.13 28.45 349.11
C 19.44 349.08 12.14 358.39 8.08 375.13
C 5.65 385.15 5.58 384.81 10.10 384.81
L 13.87 384.81
L 15.09 378.33
M 58.30 379.05
C 40.87 362.38 32.65 357.55 26.83 360.56
C 23.17 362.45 19.81 369.50 18.63 377.80
C 18.39 379.54 18.02 381.83 17.82 382.89
L 17.45 384.81
L 40.86 384.79
L 64.27 384.76
L 58.30 379.05"/>
<path fill="#000000" stroke="none" d="
M 76.21 371.57
C 69.05 368.25 65.06 360.62 60.44 341.36
C 55.73 321.69 53.68 298.11 54.31 270.91
C 54.84 248.00 55.86 239.01 62.87 195.56
C 67.48 167.00 71.88 136.62 71.95 132.86
C 72.00 129.74 70.67 128.66 65.77 127.90
C 62.06 127.32 57.00 122.47 53.87 116.50
C 52.52 113.92 49.93 107.54 48.13 102.34
C 44.43 91.68 40.90 84.14 38.04 80.80
C 36.81 79.37 33.35 77.26 28.55 75.02
C 19.36 70.72 17.56 69.11 17.56 65.19
C 17.56 59.55 20.71 56.19 29.27 52.66
C 36.81 49.56 45.17 47.89 62.98 45.94
C 83.04 43.75 84.13 43.75 104.19 45.94
C 122.00 47.89 130.36 49.56 137.90 52.66
C 146.46 56.19 149.61 59.55 149.61 65.19
C 149.61 69.11 147.81 70.72 138.62 75.02
C 133.82 77.26 130.36 79.37 129.13 80.80
C 126.27 84.14 122.74 91.68 119.04 102.34
C 117.24 107.54 114.65 113.92 113.30 116.50
C 110.17 122.47 105.11 127.32 101.40 127.90
C 96.50 128.66 95.17 129.74 95.22 132.86
C 95.29 136.62 99.69 167.00 104.30 195.56
C 111.31 239.01 112.33 248.00 112.86 270.91
C 113.51 298.85 111.44 321.88 106.39 342.64
C 101.90 361.13 97.72 368.78 90.46 371.81
C 86.85 373.31 79.72 373.19 76.21 371.57
M 87.79 366.60
C 92.58 364.16 96.23 357.94 99.68 346.33
C 104.66 329.63 107.35 310.00 107.94 285.98
C 108.56 261.43 107.01 245.10 100.04 202.57
C 95.24 173.31 90.45 139.84 90.10 133.16
C 89.70 125.71 90.55 124.30 96.00 123.46
C 104.12 122.19 107.81 116.96 115.19 96.29
C 121.70 78.02 123.53 75.57 134.53 70.39
C 144.27 65.80 144.89 65.15 142.19 62.33
C 137.16 57.09 125.13 53.50 104.66 51.12
C 87.46 49.12 79.71 49.12 62.51 51.12
C 42.05 53.50 30.01 57.09 24.98 62.33
C 22.28 65.15 22.91 65.80 32.64 70.39
C 43.64 75.57 45.47 78.02 51.98 96.29
C 56.40 108.67 58.36 112.94 61.73 117.55
C 64.54 121.40 66.71 122.76 71.17 123.46
C 76.62 124.30 77.47 125.71 77.07 133.16
C 76.72 139.84 71.93 173.31 67.14 202.57
C 60.16 245.10 58.61 261.43 59.23 285.98
C 59.82 310.00 62.51 329.63 67.49 346.33
C 70.89 357.78 74.56 364.10 79.23 366.56
C 82.56 368.31 84.39 368.32 87.79 366.60"/>
<path fill="#000000" stroke="none" d="
M 421.47 326.59
C 418.04 325.04 408.36 315.65 403.08 308.76
C 393.02 295.63 386.02 279.91 383.09 263.90
C 381.11 253.06 381.40 230.93 383.83 208.53
C 386.07 187.91 386.90 163.88 385.69 154.79
C 383.38 137.45 376.80 123.06 366.32 112.46
C 353.03 99.02 325.31 91.72 287.63 91.76
C 270.67 91.77 255.87 92.85 227.58 96.10
C 217.34 97.28 203.40 98.42 196.60 98.64
C 181.30 99.12 178.00 98.36 172.77 93.13
C 165.64 86.03 162.84 75.32 164.24 60.51
C 164.73 55.26 165.72 49.89 166.81 46.56
C 167.79 43.58 168.42 40.97 168.22 40.76
C 168.01 40.56 165.56 40.96 162.77 41.65
C 156.23 43.28 144.76 43.86 139.77 42.83
C 124.47 39.65 116.54 28.46 121.92 17.67
C 124.35 12.83 128.94 8.93 136.68 5.17
C 145.60 0.84 151.11 -0.18 163.66 0.16
C 173.11 0.42 174.25 0.60 179.52 2.68
C 188.64 6.27 192.91 10.73 194.61 18.40
C 195.67 23.25 195.19 25.86 190.57 40.30
C 186.97 51.55 186.92 54.57 190.21 60.61
C 192.39 64.62 195.41 66.91 199.36 67.54
C 202.57 68.05 221.02 65.75 245.84 61.75
C 278.85 56.43 295.53 54.97 316.43 55.61
C 336.63 56.24 349.72 58.27 365.04 63.17
C 392.03 71.79 405.68 83.77 413.79 105.93
C 417.87 117.09 418.88 123.60 418.89 138.79
C 418.90 153.01 418.46 157.18 414.42 181.54
C 411.46 199.40 410.83 204.57 410.23 215.89
C 409.28 234.00 411.43 258.35 415.48 275.28
C 417.66 284.41 420.96 293.25 427.49 307.45
C 433.80 321.18 434.22 324.74 429.82 327.01
C 427.16 328.38 425.21 328.28 421.47 326.59
M 422.97 312.13
C 417.97 301.59 413.76 291.15 411.67 284.12
C 406.28 265.96 403.36 237.23 404.60 214.50
C 405.25 202.61 405.60 199.85 409.79 173.73
C 413.26 152.15 414.16 140.27 413.14 129.90
C 411.56 113.83 405.95 99.29 397.40 89.14
C 383.85 73.02 353.03 62.38 316.43 61.21
C 296.50 60.56 281.54 61.95 243.38 68.00
C 214.64 72.55 201.86 73.92 197.28 72.94
C 192.46 71.92 190.20 70.61 187.28 67.21
C 183.69 63.02 182.26 58.36 182.35 51.17
C 182.42 46.11 182.87 43.93 185.35 36.80
C 189.68 24.32 189.86 18.55 186.07 13.73
C 184.34 11.56 178.29 8.36 172.84 6.74
C 167.80 5.25 155.18 5.23 149.36 6.70
C 142.22 8.51 134.02 12.93 130.06 17.12
C 123.97 23.54 124.54 27.95 132.09 33.11
C 137.35 36.70 143.37 38.14 151.02 37.63
C 154.30 37.41 158.57 36.74 160.50 36.15
C 162.43 35.55 165.67 35.06 167.70 35.05
C 174.43 35.04 175.59 38.21 172.48 48.15
C 170.02 56.03 168.94 66.53 169.95 72.98
C 171.52 83.11 176.79 90.75 183.44 92.57
C 187.44 93.66 203.67 93.03 219.50 91.16
C 240.91 88.65 259.97 86.94 274.47 86.23
C 306.35 84.67 335.13 88.62 354.66 97.24
C 374.33 105.92 387.94 126.71 391.27 153.17
C 392.56 163.33 391.74 188.96 389.47 209.93
C 387.09 231.86 386.78 251.93 388.66 262.12
C 392.08 280.64 401.07 298.16 414.31 312.06
C 421.26 319.37 425.58 322.79 426.57 321.79
C 427.00 321.37 425.68 317.82 422.97 312.13"/>
<path fill="#000000" stroke="none" d="
M 178.41 307.01
C 176.70 305.30 176.63 302.80 178.11 295.06
C 182.71 270.87 202.09 244.09 223.45 232.42
C 235.54 225.81 248.85 222.69 265.16 222.64
C 276.97 222.61 280.83 223.14 290.67 226.19
C 312.30 232.89 333.25 250.92 343.45 271.61
C 346.92 278.68 347.62 280.82 350.84 294.56
C 352.97 303.64 353.02 305.19 351.20 307.01
C 349.81 308.40 348.86 308.41 264.80 308.41
C 180.75 308.41 179.80 308.40 178.41 307.01
M 346.03 302.07
C 347.82 300.29 343.89 284.54 339.28 275.07
C 334.87 266.00 329.23 258.48 320.91 250.58
C 298.98 229.77 272.62 222.84 243.49 230.21
C 221.19 235.86 202.25 252.50 189.66 277.54
C 184.40 288.01 181.42 299.45 183.34 301.77
C 184.09 302.67 194.73 302.80 264.75 302.80
C 319.68 302.80 345.53 302.57 346.03 302.07"/>
<path fill="#000000" stroke="none" d="
M 4.92 573.71
L 4.92 556.54
L 22.13 556.54
L 39.33 556.54
L 39.33 573.71
L 39.33 590.89
L 22.13 590.89
L 4.92 590.89
L 4.92 573.71
M 36.52 573.71
L 36.52 559.35
L 22.13 559.35
L 7.73 559.35
L 7.73 573.71
L 7.73 588.08
L 22.13 588.08
L 36.52 588.08
L 36.52 573.71"/>
<path fill="#000000" stroke="none" d="
M 45.66 573.71
L 45.66 556.54
L 64.27 556.54
L 82.88 556.54
L 82.88 573.71
L 82.88 590.89
L 64.27 590.89
L 45.66 590.89
L 45.66 573.71
M 80.07 573.71
L 80.07 559.35
L 64.27 559.35
L 48.47 559.35
L 48.47 573.71
L 48.47 588.08
L 64.27 588.08
L 80.07 588.08
L 80.07 573.71"/>
<path fill="#000000" stroke="none" d="
M 89.20 573.71
L 89.20 556.54
L 108.52 556.54
L 127.84 556.54
L 127.84 573.71
L 127.84 590.89
L 108.52 590.89
L 89.20 590.89
L 89.20 573.71
M 125.03 573.71
L 125.03 559.35
L 108.52 559.35
L 92.01 559.35
L 92.01 573.71
L 92.01 588.08
L 108.52 588.08
L 125.03 588.08
L 125.03 573.71"/>
<path fill="#000000" stroke="none" d="
M 134.16 573.71
L 134.16 556.54
L 153.12 556.54
L 172.09 556.54
L 172.09 573.71
L 172.09 590.89
L 153.12 590.89
L 134.16 590.89
L 134.16 573.71
M 169.28 573.71
L 169.28 559.35
L 153.12 559.35
L 136.97 559.35
L 136.97 573.71
L 136.97 588.08
L 153.12 588.08
L 169.28 588.08
L 169.28 573.71"/>
<path fill="#000000" stroke="none" d="
M 178.41 573.71
L 178.41 556.54
L 197.73 556.54
L 217.04 556.54
L 217.04 573.71
L 217.04 590.89
L 197.73 590.89
L 178.41 590.89
L 178.41 573.71
M 214.23 573.71
L 214.23 559.35
L 197.73 559.35
L 181.22 559.35
L 181.22 573.71
L 181.22 588.08
L 197.73 588.08
L 214.23 588.08
L 214.23 573.71"/>
<path fill="#000000" stroke="none" d="
M 223.36 573.71
L 223.36 556.54
L 241.98 556.54
L 260.59 556.54
L 260.59 573.71
L 260.59 590.89
L 241.98 590.89
L 223.36 590.89
L 223.36 573.71
M 257.78 573.71
L 257.78 559.35
L 241.98 559.35
L 226.17 559.35
L 226.17 573.71
L 226.17 588.08
L 241.98 588.08
L 257.78 588.08
L 257.78 573.71"/>
<path fill="#000000" stroke="none" d="
M 266.91 573.71
L 266.91 556.54
L 285.88 556.54
L 304.84 556.54
L 304.84 573.71
L 304.84 590.89
L 285.88 590.89
L 266.91 590.89
L 266.91 573.71
M 302.03 573.71
L 302.03 559.35
L 285.88 559.35
L 269.72 559.35
L 269.72 573.71
L 269.72 588.08
L 285.88 588.08
L 302.03 588.08
L 302.03 573.71"/>
<path fill="#000000" stroke="none" d="
M 311.16 573.71
L 311.16 556.54
L 330.48 556.54
L 349.80 556.54
L 349.80 573.71
L 349.80 590.89
L 330.48 590.89
L 311.16 590.89
L 311.16 573.71
M 346.99 573.71
L 346.99 559.35
L 330.48 559.35
L 313.97 559.35
L 313.97 573.71
L 313.97 588.08
L 330.48 588.08
L 346.99 588.08
L 346.99 573.71"/>
<path fill="#000000" stroke="none" d="
M 356.12 573.71
L 356.12 556.54
L 374.73 556.54
L 393.34 556.54
L 393.34 573.71
L 393.34 590.89
L 374.73 590.89
L 356.12 590.89
L 356.12 573.71
M 390.53 573.71
L 390.53 559.35
L 374.73 559.35
L 358.93 559.35
L 358.93 573.71
L 358.93 588.08
L 374.73 588.08
L 390.53 588.08
L 390.53 573.71"/>
<path fill="#000000" stroke="none" d="
M 399.67 573.71
L 399.67 556.54
L 416.87 556.54
L 434.08 556.54
L 434.08 573.71
L 434.08 590.89
L 416.87 590.89
L 399.67 590.89
L 399.67 573.71
M 431.27 573.71
L 431.27 559.35
L 416.87 559.35
L 402.48 559.35
L 402.48 573.71
L 402.48 588.08
L 416.87 588.08
L 431.27 588.08
L 431.27 573.71"/>
<path fill="#000000" stroke="none" d="
M 4.92 533.06
L 4.92 515.89
L 22.13 515.89
L 39.33 515.89
L 39.33 533.06
L 39.33 550.23
L 22.13 550.23
L 4.92 550.23
L 4.92 533.06
M 36.52 533.06
L 36.52 518.69
L 22.13 518.69
L 7.73 518.69
L 7.73 533.06
L 7.73 547.43
L 22.13 547.43
L 36.52 547.43
L 36.52 533.06"/>
<path fill="#000000" stroke="none" d="
M 45.66 533.06
L 45.66 515.89
L 64.27 515.89
L 82.88 515.89
L 82.88 533.06
L 82.88 550.23
L 64.27 550.23
L 45.66 550.23
L 45.66 533.06
M 80.07 533.06
L 80.07 518.69
L 64.27 518.69
L 48.47 518.69
L 48.47 533.06
L 48.47 547.43
L 64.27 547.43
L 80.07 547.43
L 80.07 533.06"/>
<path fill="#000000" stroke="none" d="
M 89.20 533.06
L 89.20 515.89
L 108.52 515.89
L 127.84 515.89
L 127.84 533.06
L 127.84 550.23
L 108.52 550.23
L 89.20 550.23
L 89.20 533.06
M 125.03 533.06
L 125.03 518.69
L 108.52 518.69
L 92.01 518.69
L 92.01 533.06
L 92.01 547.43
L 108.52 547.43
L 125.03 547.43
L 125.03 533.06"/>
<path fill="#000000" stroke="none" d="
M 134.16 533.06
L 134.16 515.89
L 153.12 515.89
L 172.09 515.89
L 172.09 533.06
L 172.09 550.23
L 153.12 550.23
L 134.16 550.23
L 134.16 533.06
M 169.28 533.06
L 169.28 518.69
L 153.12 518.69
L 136.97 518.69
L 136.97 533.06
L 136.97 547.43
L 153.12 547.43
L 169.28 547.43
L 169.28 533.06"/>
<path fill="#000000" stroke="none" d="
M 178.41 533.06
L 178.41 515.89
L 197.73 515.89
L 217.04 515.89
L 217.04 533.06
L 217.04 550.23
L 197.73 550.23
L 178.41 550.23
L 178.41 533.06
M 214.23 533.06
L 214.23 518.69
L 197.73 518.69
L 181.22 518.69
L 181.22 533.06
L 181.22 547.43
L 197.73 547.43
L 214.23 547.43
L 214.23 533.06"/>
<path fill="#000000" stroke="none" d="
M 223.36 533.06
L 223.36 515.89
L 241.98 515.89
L 260.59 515.89
L 260.59 533.06
L 260.59 550.23
L 241.98 550.23
L 223.36 550.23
L 223.36 533.06
M 257.78 533.06
L 257.78 518.69
L 241.98 518.69
L 226.17 518.69
L 226.17 533.06
L 226.17 547.43
L 241.98 547.43
L 257.78 547.43
L 257.78 533.06"/>
<path fill="#000000" stroke="none" d="
M 266.91 533.06
L 266.91 515.89
L 285.88 515.89
L 304.84 515.89
L 304.84 533.06
L 304.84 550.23
L 285.88 550.23
L 266.91 550.23
L 266.91 533.06
M 302.03 533.06
L 302.03 518.69
L 285.88 518.69
L 269.72 518.69
L 269.72 533.06
L 269.72 547.43
L 285.88 547.43
L 302.03 547.43
L 302.03 533.06"/>
<path fill="#000000" stroke="none" d="
M 311.16 533.06
L 311.16 515.89
L 330.48 515.89
L 349.80 515.89
L 349.80 533.06
L 349.80 550.23
L 330.48 550.23
L 311.16 550.23
L 311.16 533.06
M 346.99 533.06
L 346.99 518.69
L 330.48 518.69
L 313.97 518.69
L 313.97 533.06
L 313.97 547.43
L 330.48 547.43
L 346.99 547.43
L 346.99 533.06"/>
<path fill="#000000" stroke="none" d="
M 356.12 533.06
L 356.12 515.89
L 374.73 515.89
L 393.34 515.89
L 393.34 533.06
L 393.34 550.23
L 374.73 550.23
L 356.12 550.23
L 356.12 533.06
M 390.53 533.06
L 390.53 518.69
L 374.73 518.69
L 358.93 518.69
L 358.93 533.06
L 358.93 547.43
L 374.73 547.43
L 390.53 547.43
L 390.53 533.06"/>
<path fill="#000000" stroke="none" d="
M 399.67 533.06
L 399.67 515.89
L 416.87 515.89
L 434.08 515.89
L 434.08 533.06
L 434.08 550.23
L 416.87 550.23
L 399.67 550.23
L 399.67 533.06
M 431.27 533.06
L 431.27 518.69
L 416.87 518.69
L 402.48 518.69
L 402.48 533.06
L 402.48 547.43
L 416.87 547.43
L 431.27 547.43
L 431.27 533.06"/>
<path fill="#000000" stroke="none" d="
M 143.94 23.19
C 142.42 21.67 141.88 20.47 141.88 18.57
C 141.88 16.68 142.42 15.48 143.94 13.96
C 146.63 11.28 150.05 11.19 153.07 13.73
C 154.87 15.24 155.23 16.05 155.23 18.57
C 155.23 21.10 154.87 21.91 153.07 23.42
C 150.05 25.96 146.63 25.87 143.94 23.19
M 151.72 21.73
C 152.49 20.96 153.12 19.54 153.12 18.57
C 153.12 16.84 150.95 14.02 149.61 14.02
C 148.57 14.02 148.76 15.13 149.96 16.12
C 150.54 16.60 151.02 17.71 151.02 18.57
C 151.02 19.44 150.54 20.55 149.96 21.03
C 149.39 21.50 148.91 22.18 148.91 22.51
C 148.91 23.57 150.25 23.19 151.72 21.73"/>
<path fill="#fca022" stroke="none" d="
M 423.15 320.45
C 418.48 317.07 408.46 306.01 403.94 299.28
C 396.34 287.94 391.05 275.07 388.66 262.12
C 386.78 251.93 387.09 231.86 389.47 209.93
C 391.74 188.96 392.56 163.33 391.27 153.17
C 387.94 126.71 374.33 105.92 354.66 97.24
C 335.13 88.62 306.35 84.67 274.47 86.23
C 259.97 86.94 240.91 88.65 219.50 91.16
C 203.67 93.03 187.44 93.66 183.44 92.57
C 176.79 90.75 171.52 83.11 169.95 72.98
C 168.94 66.53 170.02 56.03 172.48 48.15
C 175.59 38.21 174.43 35.04 167.70 35.05
C 165.67 35.06 162.43 35.55 160.50 36.15
C 158.57 36.74 154.30 37.41 151.02 37.63
C 143.37 38.14 137.35 36.70 132.09 33.11
C 124.54 27.95 123.97 23.54 130.06 17.12
C 134.15 12.80 142.49 8.36 149.61 6.69
C 155.76 5.26 167.92 5.29 172.84 6.74
C 178.29 8.36 184.34 11.56 186.07 13.73
C 189.86 18.55 189.68 24.32 185.35 36.80
C 182.87 43.93 182.42 46.11 182.35 51.17
C 182.26 58.36 183.69 63.02 187.28 67.21
C 190.20 70.61 192.46 71.92 197.28 72.94
C 201.86 73.92 214.64 72.55 243.38 68.00
C 281.54 61.95 296.50 60.56 316.43 61.21
C 353.03 62.38 383.85 73.02 397.40 89.14
C 405.95 99.29 411.56 113.83 413.14 129.90
C 414.16 140.27 413.26 152.15 409.79 173.73
C 405.60 199.85 405.25 202.61 404.60 214.50
C 403.36 237.23 406.28 265.96 411.67 284.12
C 413.76 291.15 417.97 301.59 422.97 312.13
C 427.67 322.03 427.71 323.77 423.15 320.45
M 153.07 23.42
C 154.87 21.91 155.23 21.10 155.23 18.57
C 155.23 16.05 154.87 15.24 153.07 13.73
C 150.05 11.19 146.63 11.28 143.94 13.96
C 142.42 15.48 141.88 16.68 141.88 18.57
C 141.88 20.47 142.42 21.67 143.94 23.19
C 146.63 25.87 150.05 25.96 153.07 23.42"/>
<path fill="#eb2e00" stroke="none" d="
M 148.91 22.51
C 148.91 22.18 149.39 21.50 149.96 21.03
C 151.33 19.90 151.30 17.61 149.91 16.07
C 148.30 14.29 149.96 13.66 151.69 15.39
C 153.51 17.21 153.52 19.93 151.72 21.73
C 150.25 23.19 148.91 23.57 148.91 22.51"/>
<path fill="#53c834" stroke="none" d="
M 79.23 366.56
C 74.56 364.10 70.89 357.78 67.49 346.33
C 62.51 329.63 59.82 310.00 59.23 285.98
C 58.61 261.43 60.16 245.10 67.14 202.57
C 71.93 173.31 76.72 139.84 77.07 133.16
C 77.47 125.71 76.62 124.30 71.17 123.46
C 63.05 122.19 59.36 116.96 51.98 96.29
C 45.47 78.02 43.64 75.57 32.64 70.39
C 22.91 65.80 22.28 65.15 24.98 62.33
C 30.03 57.08 42.09 53.48 62.51 51.13
C 79.88 49.14 87.63 49.14 104.66 51.12
C 125.13 53.50 137.16 57.09 142.19 62.33
C 144.89 65.15 144.27 65.80 134.53 70.39
C 123.53 75.57 121.70 78.02 115.19 96.29
C 110.77 108.67 108.81 112.94 105.44 117.55
C 102.63 121.40 100.46 122.76 96.00 123.46
C 90.55 124.30 89.70 125.71 90.10 133.16
C 90.45 139.84 95.24 173.31 100.04 202.57
C 107.01 245.10 108.56 261.43 107.94 285.98
C 107.35 310.00 104.66 329.63 99.68 346.33
C 96.23 357.94 92.58 364.16 87.79 366.60
C 84.39 368.32 82.56 368.31 79.23 366.56"/>
<path fill="#c57a36" stroke="none" d="
M 7.73 573.71
L 7.73 559.35
L 22.13 559.35
L 36.52 559.35
L 36.52 573.71
L 36.52 588.08
L 22.13 588.08
L 7.73 588.08
L 7.73 573.71"/>
<path fill="#c57a36" stroke="none" d="
M 48.47 573.71
L 48.47 559.35
L 64.27 559.35
L 80.07 559.35
L 80.07 573.71
L 80.07 588.08
L 64.27 588.08
L 48.47 588.08
L 48.47 573.71"/>
<path fill="#c57a36" stroke="none" d="
M 92.01 573.71
L 92.01 559.35
L 108.52 559.35
L 125.03 559.35
L 125.03 573.71
L 125.03 588.08
L 108.52 588.08
L 92.01 588.08
L 92.01 573.71"/>
<path fill="#c57a36" stroke="none" d="
M 136.97 573.71
L 136.97 559.35
L 153.12 559.35
L 169.28 559.35
L 169.28 573.71
L 169.28 588.08
L 153.12 588.08
L 136.97 588.08
L 136.97 573.71"/>
<path fill="#c57a36" stroke="none" d="
M 181.22 573.71
L 181.22 559.35
L 197.73 559.35
L 214.23 559.35
L 214.23 573.71
L 214.23 588.08
L 197.73 588.08
L 181.22 588.08
L 181.22 573.71"/>
<path fill="#c57a36" stroke="none" d="
M 226.17 573.71
L 226.17 559.35
L 241.98 559.35
L 257.78 559.35
L 257.78 573.71
L 257.78 588.08
L 241.98 588.08
L 226.17 588.08
L 226.17 573.71"/>
<path fill="#c57a36" stroke="none" d="
M 269.72 573.71
L 269.72 559.35
L 285.88 559.35
L 302.03 559.35
L 302.03 573.71
L 302.03 588.08
L 285.88 588.08
L 269.72 588.08
L 269.72 573.71"/>
<path fill="#c57a36" stroke="none" d="
M 313.97 573.71
L 313.97 559.35
L 330.48 559.35
L 346.99 559.35
L 346.99 573.71
L 346.99 588.08
L 330.48 588.08
L 313.97 588.08
L 313.97 573.71"/>
<path fill="#c57a36" stroke="none" d="
M 358.93 573.71
L 358.93 559.35
L 374.73 559.35
L 390.53 559.35
L 390.53 573.71
L 390.53 588.08
L 374.73 588.08
L 358.93 588.08
L 358.93 573.71"/>
<path fill="#c57a36" stroke="none" d="
M 402.48 573.71
L 402.48 559.35
L 416.87 559.35
L 431.27 559.35
L 431.27 573.71
L 431.27 588.08
L 416.87 588.08
L 402.48 588.08
L 402.48 573.71"/>
<path fill="#c57a36" stroke="none" d="
M 7.73 533.06
L 7.73 518.69
L 22.13 518.69
L 36.52 518.69
L 36.52 533.06
L 36.52 547.43
L 22.13 547.43
L 7.73 547.43
L 7.73 533.06"/>
<path fill="#c57a36" stroke="none" d="
M 48.47 533.06
L 48.47 518.69
L 64.27 518.69
L 80.07 518.69
L 80.07 533.06
L 80.07 547.43
L 64.27 547.43
L 48.47 547.43
L 48.47 533.06"/>
<path fill="#c57a36" stroke="none" d="
M 92.01 533.06
L 92.01 518.69
L 108.52 518.69
L 125.03 518.69
L 125.03 533.06
L 125.03 547.43
L 108.52 547.43
L 92.01 547.43
L 92.01 533.06"/>
<path fill="#c57a36" stroke="none" d="
M 136.97 533.06
L 136.97 518.69
L 153.12 518.69
L 169.28 518.69
L 169.28 533.06
L 169.28 547.43
L 153.12 547.43
L 136.97 547.43
L 136.97 533.06"/>
<path fill="#c57a36" stroke="none" d="
M 181.22 533.06
L 181.22 518.69
L 197.73 518.69
L 214.23 518.69
L 214.23 533.06
L 214.23 547.43
L 197.73 547.43
L 181.22 547.43
L 181.22 533.06"/>
<path fill="#c57a36" stroke="none" d="
M 226.17 533.06
L 226.17 518.69
L 241.98 518.69
L 257.78 518.69
L 257.78 533.06
L 257.78 547.43
L 241.98 547.43
L 226.17 547.43
L 226.17 533.06"/>
<path fill="#c57a36" stroke="none" d="
M 269.72 533.06
L 269.72 518.69
L 285.88 518.69
L 302.03 518.69
L 302.03 533.06
L 302.03 547.43
L 285.88 547.43
L 269.72 547.43
L 269.72 533.06"/>
<path fill="#c57a36" stroke="none" d="
M 313.97 533.06
L 313.97 518.69
L 330.48 518.69
L 346.99 518.69
L 346.99 533.06
L 346.99 547.43
L 330.48 547.43
L 313.97 547.43
L 313.97 533.06"/>
<path fill="#c57a36" stroke="none" d="
M 358.93 533.06
L 358.93 518.69
L 374.73 518.69
L 390.53 518.69
L 390.53 533.06
L 390.53 547.43
L 374.73 547.43
L 358.93 547.43
L 358.93 533.06"/>
<path fill="#c57a36" stroke="none" d="
M 402.48 533.06
L 402.48 518.69
L 416.87 518.69
L 431.27 518.69
L 431.27 533.06
L 431.27 547.43
L 416.87 547.43
L 402.48 547.43
L 402.48 533.06"/>
<path fill="#c57a36" stroke="none" d="
M 183.34 301.77
C 181.42 299.45 184.40 288.01 189.66 277.54
C 205.04 246.95 227.70 230.55 258.48 227.75
C 281.76 225.63 302.67 233.28 320.91 250.58
C 335.28 264.22 343.40 279.26 346.16 297.34
C 346.56 299.98 346.51 301.59 346.03 302.07
C 345.53 302.57 319.68 302.80 264.75 302.80
C 194.73 302.80 184.09 302.67 183.34 301.77"/>
<path fill="#ffa153" stroke="none" d="
M 39.59 422.32
C 37.23 421.81 33.50 420.54 31.30 419.50
C 26.76 417.36 18.39 410.94 14.79 406.84
L 12.37 404.09
L 16.82 403.88
C 20.73 403.69 21.49 403.87 23.10 405.38
C 29.06 410.94 37.78 415.23 44.95 416.11
C 50.88 416.85 62.65 412.14 69.12 406.46
L 72.21 403.74
L 79.13 403.77
L 86.04 403.79
L 83.23 406.28
C 79.27 409.78 68.74 416.19 62.51 418.87
C 57.61 421.00 48.04 423.43 45.16 423.31
C 44.47 423.28 41.96 422.83 39.59 422.32"/>
<path fill="#ffa153" stroke="none" d="
M 6.32 383.59
C 6.32 380.28 10.21 367.00 12.63 361.98
C 16.82 353.33 22.34 349.03 29.15 349.09
C 37.13 349.17 59.08 363.61 76.21 380.05
L 81.13 384.77
L 75.86 384.79
L 70.59 384.81
L 62.86 377.73
C 45.81 362.09 41.15 358.68 33.91 356.49
L 29.66 355.20
L 25.79 356.96
C 19.93 359.65 17.79 363.90 15.09 378.33
L 13.87 384.81
L 10.10 384.81
C 6.97 384.81 6.32 384.60 6.32 383.59"/>
<path fill="#c55436" stroke="none" d="
M 217.04 479.45
L 217.04 452.12
L 220.20 453.65
L 223.36 455.19
L 223.36 480.98
L 223.36 506.78
L 220.20 506.78
L 217.04 506.78
L 217.04 479.45"/>
<path fill="#c55436" stroke="none" d="
M 220.03 437.64
L 217.04 435.84
L 217.04 419.79
L 217.04 403.74
L 220.20 403.74
L 223.36 403.74
L 223.36 421.61
C 223.36 431.44 223.29 439.47 223.19 439.46
C 223.09 439.44 221.67 438.62 220.03 437.64"/>
<path fill="#c55436" stroke="none" d="
M 11.24 397.43
C 9.59 395.79 9.43 393.35 10.83 391.43
C 11.81 390.09 14.85 390.07 219.89 389.89
C 373.49 389.76 428.21 389.92 428.91 390.50
C 430.09 391.48 430.17 396.85 429.03 397.99
C 428.37 398.64 381.07 398.83 220.41 398.83
C 13.58 398.83 12.64 398.82 11.24 397.43"/>
<path fill="#ef907a" stroke="none" d="
M 244.80 454.83
C 223.18 451.68 199.64 439.78 182.22 423.18
C 175.52 416.80 166.47 406.00 166.47 404.40
C 166.47 404.03 168.20 403.74 170.31 403.74
L 174.16 403.74
L 178.77 410.00
C 193.12 429.52 220.91 446.67 246.49 451.79
C 250.67 452.64 254.48 452.88 259.48 452.65
C 265.91 452.36 266.35 452.41 264.28 453.27
C 261.84 454.28 253.68 455.63 250.76 455.51
C 249.79 455.47 247.11 455.16 244.80 454.83"/>
<path fill="#ef907a" stroke="none" d="
M 271.74 426.99
C 269.05 422.19 263.96 415.66 257.98 409.32
L 252.72 403.74
L 256.65 403.74
C 260.44 403.74 260.65 403.84 262.66 406.60
C 266.40 411.76 274.72 429.13 273.86 429.98
C 273.70 430.14 272.76 428.79 271.74 426.99"/>
<path fill="#0885ff" stroke="none" d="
M 4.21 595.79
C 2.84 594.43 2.81 593.46 2.81 553.52
C 2.81 519.33 2.97 512.43 3.81 511.29
C 4.79 509.95 7.89 509.93 219.09 509.75
C 432.73 509.57 433.38 509.58 434.79 510.98
C 436.16 512.36 436.19 513.29 436.19 553.39
C 436.19 593.46 436.16 594.43 434.79 595.79
C 433.39 597.19 432.45 597.20 219.50 597.20
C 6.55 597.20 5.61 597.19 4.21 595.79
M 39.33 573.71
L 39.33 556.54
L 22.13 556.54
L 4.92 556.54
L 4.92 573.71
L 4.92 590.89
L 22.13 590.89
L 39.33 590.89
L 39.33 573.71
M 82.88 573.71
L 82.88 556.54
L 64.27 556.54
L 45.66 556.54
L 45.66 573.71
L 45.66 590.89
L 64.27 590.89
L 82.88 590.89
L 82.88 573.71
M 127.84 573.71
L 127.84 556.54
L 108.52 556.54
L 89.20 556.54
L 89.20 573.71
L 89.20 590.89
L 108.52 590.89
L 127.84 590.89
L 127.84 573.71
M 172.09 573.71
L 172.09 556.54
L 153.12 556.54
L 134.16 556.54
L 134.16 573.71
L 134.16 590.89
L 153.12 590.89
L 172.09 590.89
L 172.09 573.71
M 217.04 573.71
L 217.04 556.54
L 197.73 556.54
L 178.41 556.54
L 178.41 573.71
L 178.41 590.89
L 197.73 590.89
L 217.04 590.89
L 217.04 573.71
M 260.59 573.71
L 260.59 556.54
L 241.98 556.54
L 223.36 556.54
L 223.36 573.71
L 223.36 590.89
L 241.98 590.89
L 260.59 590.89
L 260.59 573.71
M 304.84 573.71
L 304.84 556.54
L 285.88 556.54
L 266.91 556.54
L 266.91 573.71
L 266.91 590.89
L 285.88 590.89
L 304.84 590.89
L 304.84 573.71
M 349.80 573.71
L 349.80 556.54
L 330.48 556.54
L 311.16 556.54
L 311.16 573.71
L 311.16 590.89
L 330.48 590.89
L 349.80 590.89
L 349.80 573.71
M 393.34 573.71
L 393.34 556.54
L 374.73 556.54
L 356.12 556.54
L 356.12 573.71
L 356.12 590.89
L 374.73 590.89
L 393.34 590.89
L 393.34 573.71
M 434.08 573.71
L 434.08 556.54
L 416.87 556.54
L 399.67 556.54
L 399.67 573.71
L 399.67 590.89
L 416.87 590.89
L 434.08 590.89
L 434.08 573.71
M 39.33 533.06
L 39.33 515.89
L 22.13 515.89
L 4.92 515.89
L 4.92 533.06
L 4.92 550.23
L 22.13 550.23
L 39.33 550.23
L 39.33 533.06
M 82.88 533.06
L 82.88 515.89
L 64.27 515.89
L 45.66 515.89
L 45.66 533.06
L 45.66 550.23
L 64.27 550.23
L 82.88 550.23
L 82.88 533.06
M 127.84 533.06
L 127.84 515.89
L 108.52 515.89
L 89.20 515.89
L 89.20 533.06
L 89.20 550.23
L 108.52 550.23
L 127.84 550.23
L 127.84 533.06
M 172.09 533.06
L 172.09 515.89
L 153.12 515.89
L 134.16 515.89
L 134.16 533.06
L 134.16 550.23
L 153.12 550.23
L 172.09 550.23
L 172.09 533.06
M 217.04 533.06
L 217.04 515.89
L 197.73 515.89
L 178.41 515.89
L 178.41 533.06
L 178.41 550.23
L 197.73 550.23
L 217.04 550.23
L 217.04 533.06
M 260.59 533.06
L 260.59 515.89
L 241.98 515.89
L 223.36 515.89
L 223.36 533.06
L 223.36 550.23
L 241.98 550.23
L 260.59 550.23
L 260.59 533.06
M 304.84 533.06
L 304.84 515.89
L 285.88 515.89
L 266.91 515.89
L 266.91 533.06
L 266.91 550.23
L 285.88 550.23
L 304.84 550.23
L 304.84 533.06
M 349.80 533.06
L 349.80 515.89
L 330.48 515.89
L 311.16 515.89
L 311.16 533.06
L 311.16 550.23
L 330.48 550.23
L 349.80 550.23
L 349.80 533.06
M 393.34 533.06
L 393.34 515.89
L 374.73 515.89
L 356.12 515.89
L 356.12 533.06
L 356.12 550.23
L 374.73 550.23
L 393.34 550.23
L 393.34 533.06
M 434.08 533.06
L 434.08 515.89
L 416.87 515.89
L 399.67 515.89
L 399.67 533.06
L 399.67 550.23
L 416.87 550.23
L 434.08 550.23
L 434.08 533.06"/>
</g>
</svg>
