<?xml version="1.0" encoding="UTF-8" standalone="no"?>
<!DOCTYPE svg PUBLIC "-//W3C//DTD SVG 1.1//EN"
"http://www.w3.org/Graphics/SVG/1.1/DTD/svg11.dtd">
<svg width="440px" height="600px"
xmlns="http://www.w3.org/2000/svg" version="1.1">
<g transform="translate(0000, 0000) scale(1.0000, 1.0000)">
<path fill="#000000" stroke="none" d="
M 1.41 598.59
C 0.03 597.21 0.00 596.25 0.00 553.22
C 0.00 510.20 0.03 509.23 1.41 507.85
C 2.80 506.46 3.75 506.45 107.72 506.45
L 212.62 506.45
L 212.44 477.90
L 212.26 449.34
L 204.73 445.01
C 200.59 442.63 194.57 438.79 191.35 436.47
C 183.28 430.67 169.49 416.70 164.42 409.20
L 160.26 403.05
L 126.45 403.05
L 92.63 403.05
L 90.14 405.45
C 86.49 408.98 74.43 416.82 67.79 420.00
C 64.61 421.51 58.59 423.59 54.41 424.61
C 47.44 426.30 46.41 426.39 41.94 425.63
C 29.52 423.55 22.84 419.70 11.45 408.04
C 2.72 399.09 0.87 395.74 1.64 390.13
C 4.32 370.40 8.67 357.36 14.77 350.74
C 18.13 347.10 23.60 344.66 28.36 344.67
C 32.80 344.69 42.20 348.25 49.00 352.50
C 56.26 357.03 68.09 366.37 79.52 376.56
L 87.93 384.06
L 224.29 384.06
L 360.65 384.06
L 354.37 377.55
C 350.91 373.97 346.92 369.14 345.52 366.82
C 339.41 356.75 337.41 344.72 338.60 325.19
C 339.50 310.19 339.51 289.51 338.60 283.12
C 336.21 266.34 329.53 251.96 319.29 241.58
C 305.97 228.09 278.18 220.77 240.42 220.80
C 223.41 220.82 208.58 221.89 180.22 225.16
C 169.97 226.34 155.99 227.49 149.18 227.70
C 133.84 228.19 130.54 227.43 125.29 222.18
C 118.15 215.05 115.34 204.30 116.74 189.45
C 117.24 184.18 118.23 178.79 119.32 175.44
C 120.30 172.45 120.93 169.84 120.73 169.62
C 120.52 169.42 118.06 169.82 115.27 170.52
C 108.72 172.15 97.22 172.74 92.22 171.70
C 76.88 168.51 68.93 157.29 74.33 146.45
C 76.76 141.58 81.37 137.68 89.18 133.89
C 103.46 126.94 119.12 126.26 133.41 131.96
C 139.98 134.58 145.15 139.62 146.73 144.92
C 148.57 151.11 148.18 153.56 142.80 170.22
C 139.58 180.19 139.55 183.27 142.57 189.24
C 144.57 193.18 146.99 195.26 150.74 196.27
C 154.06 197.16 167.90 195.57 196.42 191.01
C 207.06 189.31 219.73 187.42 224.58 186.82
C 258.22 182.69 285.27 183.59 309.62 189.67
C 313.61 190.67 316.95 191.37 317.06 191.23
C 317.16 191.09 319.59 187.33 322.47 182.88
L 327.71 174.79
L 327.55 170.22
C 327.29 162.51 324.95 155.23 318.52 142.14
C 313.27 131.42 311.84 129.13 307.19 124.02
C 304.27 120.79 302.03 117.76 302.23 117.28
C 302.42 116.81 313.42 103.43 326.66 87.57
C 339.91 71.71 354.56 54.14 359.24 48.53
C 363.91 42.92 368.52 37.67 369.49 36.87
L 371.25 35.40
L 369.45 33.00
C 365.14 27.26 364.33 24.76 364.33 17.13
C 364.32 10.19 364.38 9.90 366.50 7.28
C 371.66 0.88 382.33 -1.62 391.99 1.32
C 397.97 3.13 403.86 8.07 406.72 13.65
C 408.86 17.82 409.68 26.20 408.44 31.10
C 408.02 32.76 401.46 46.78 393.84 62.25
C 368.08 114.63 334.61 181.79 330.97 188.45
C 328.98 192.09 327.44 195.16 327.55 195.26
C 327.66 195.37 329.89 196.42 332.51 197.59
C 352.84 206.72 364.98 222.69 370.49 247.60
C 371.71 253.11 371.97 256.68 371.98 268.00
C 371.99 282.79 370.92 292.18 366.64 315.12
C 363.73 330.68 363.67 342.06 366.39 361.60
C 368.48 376.61 368.30 379.77 365.21 382.65
L 363.70 384.06
L 398.68 384.06
C 440.26 384.06 436.48 383.11 436.48 393.55
C 436.48 404.28 447.63 403.05 350.55 403.05
L 267.44 403.05
L 269.30 406.04
C 272.72 411.54 278.01 423.05 279.23 427.67
C 282.86 441.33 278.82 452.08 268.32 456.75
C 263.37 458.93 254.42 460.31 248.86 459.74
C 244.94 459.33 234.01 457.18 230.38 456.11
L 228.80 455.64
L 228.80 481.04
L 228.80 506.45
L 332.99 506.45
C 436.25 506.45 437.20 506.46 438.59 507.85
C 439.97 509.23 440.00 510.20 440.00 553.22
C 440.00 596.25 439.97 597.21 438.59 598.59
C 437.19 599.99 436.25 600.00 220.00 600.00
C 3.75 600.00 2.81 599.99 1.41 598.59
M 435.78 595.78
C 437.15 594.41 437.18 593.44 437.18 553.22
C 437.18 513.01 437.15 512.04 435.78 510.67
C 434.38 509.27 433.43 509.26 220.00 509.26
C 6.57 509.26 5.62 509.27 4.22 510.67
C 2.85 512.04 2.82 513.01 2.82 553.22
C 2.82 593.44 2.85 594.41 4.22 595.78
C 5.62 597.18 6.57 597.19 220.00 597.19
C 433.43 597.19 434.38 597.18 435.78 595.78
M 223.87 480.56
L 223.87 454.68
L 220.70 453.14
L 217.54 451.60
L 217.54 479.02
L 217.54 506.45
L 220.70 506.45
L 223.87 506.45
L 223.87 480.56
M 257.84 454.38
C 260.45 454.01 263.62 453.27 264.88 452.75
C 266.96 451.89 266.51 451.84 260.07 452.13
C 234.50 453.32 196.86 433.41 179.18 409.34
L 174.56 403.05
L 170.30 403.05
L 166.05 403.05
L 169.07 407.44
C 170.73 409.86 176.06 415.80 180.91 420.65
C 193.22 432.94 205.50 441.12 221.44 447.59
C 229.38 450.82 237.98 453.24 245.36 454.32
C 251.18 455.16 252.41 455.17 257.84 454.38
M 267.29 446.00
C 268.90 445.27 270.56 444.03 270.98 443.25
C 274.19 437.26 267.62 425.06 253.20 410.26
L 246.18 403.05
L 237.49 403.05
L 228.80 403.05
L 228.80 421.72
L 228.80 440.38
L 231.99 441.74
C 235.04 443.05 246.23 446.25 249.92 446.88
C 250.89 447.04 254.53 447.21 258.02 447.25
C 262.86 447.31 265.04 447.02 267.29 446.00
M 223.87 420.98
L 223.87 403.05
L 220.70 403.05
L 217.54 403.05
L 217.54 419.16
L 217.54 435.26
L 220.53 437.06
C 222.18 438.06 223.60 438.88 223.70 438.89
C 223.79 438.91 223.87 430.85 223.87 420.98
M 212.38 403.28
C 212.23 403.14 205.07 403.10 196.47 403.21
L 180.82 403.40
L 184.29 407.97
C 189.06 414.25 197.65 422.27 205.60 427.89
L 212.26 432.60
L 212.45 418.07
C 212.55 410.08 212.52 403.43 212.38 403.28
M 273.51 425.75
C 271.71 420.91 265.68 409.27 263.25 405.92
C 261.25 403.15 261.04 403.05 257.23 403.05
L 253.29 403.05
L 258.57 408.65
C 264.56 415.01 269.66 421.57 272.36 426.38
C 274.65 430.46 275.17 430.18 273.51 425.75
M 51.95 421.63
C 54.93 421.02 59.76 419.49 62.66 418.23
C 68.89 415.54 79.45 409.11 83.42 405.60
L 86.24 403.10
L 79.31 403.08
L 72.38 403.05
L 69.27 405.78
C 62.79 411.48 51.00 416.20 45.06 415.46
C 37.87 414.58 29.12 410.28 23.15 404.69
C 21.54 403.18 20.78 403.00 16.86 403.19
L 12.40 403.40
L 14.82 406.16
C 18.43 410.27 26.82 416.72 31.37 418.87
C 35.02 420.59 42.13 422.55 45.26 422.69
C 45.96 422.72 48.96 422.24 51.95 421.63
M 57.36 408.72
C 60.47 407.16 63.80 405.26 64.77 404.48
L 66.53 403.08
L 47.30 403.06
C 36.06 403.06 28.24 403.31 28.47 403.68
C 28.69 404.03 30.68 405.53 32.91 407.01
C 42.01 413.06 47.90 413.47 57.36 408.72
M 430.00 397.28
C 431.09 396.19 431.09 390.91 430.00 389.82
C 429.35 389.17 381.94 388.98 220.92 388.98
C 13.61 388.98 12.66 388.99 11.26 390.39
C 10.49 391.16 9.86 392.58 9.86 393.55
C 9.86 394.52 10.49 395.94 11.26 396.72
C 12.66 398.12 13.61 398.12 220.92 398.12
C 381.94 398.12 429.35 397.93 430.00 397.28
M 15.12 377.55
C 17.83 363.07 19.97 358.80 25.84 356.11
L 29.72 354.34
L 33.99 355.63
C 41.25 357.83 45.91 361.25 63.01 376.94
L 70.75 384.05
L 76.03 384.04
L 81.31 384.01
L 76.38 379.27
C 58.50 362.10 37.16 348.25 28.51 348.23
C 19.48 348.20 12.17 357.55 8.10 374.34
C 5.66 384.39 5.59 384.06 10.12 384.06
L 13.90 384.06
L 15.12 377.55
M 58.43 378.27
C 40.96 361.55 32.72 356.70 26.89 359.72
C 23.22 361.61 19.86 368.69 18.68 377.02
C 18.43 378.77 18.06 381.06 17.86 382.12
L 17.49 384.06
L 40.95 384.03
L 64.42 384.00
L 58.43 378.27
M 362.22 372.63
C 361.95 370.21 361.30 365.38 360.76 361.90
C 359.17 351.46 358.23 337.74 358.72 331.70
C 358.96 328.58 360.41 318.43 361.93 309.14
C 366.12 283.57 367.25 270.63 366.23 259.67
C 365.02 246.57 361.81 236.18 355.75 225.71
C 348.47 213.17 336.53 204.62 317.52 198.33
C 301.15 192.93 288.10 190.72 268.93 190.12
C 249.31 189.50 234.08 190.93 196.06 196.95
C 151.48 204.01 146.50 203.94 139.84 196.17
C 136.24 191.96 134.80 187.29 134.89 180.07
C 134.96 175.00 135.41 172.81 137.90 165.65
C 142.24 153.13 142.42 147.33 138.62 142.50
C 136.86 140.27 130.74 137.06 124.92 135.33
C 119.31 133.65 108.25 133.64 102.08 135.31
C 94.50 137.35 86.45 141.71 82.48 145.91
C 76.38 152.34 76.95 156.77 84.52 161.94
C 89.80 165.55 95.83 166.99 103.49 166.48
C 106.78 166.26 111.06 165.59 112.99 165.00
C 114.93 164.40 118.17 163.91 120.21 163.90
C 126.96 163.89 128.12 167.07 125.00 177.05
C 122.53 184.94 121.45 195.49 122.46 201.96
C 124.04 212.12 129.32 219.79 135.98 221.61
C 139.99 222.71 156.27 222.08 172.13 220.21
C 229.51 213.46 259.61 213.27 286.53 219.51
C 313.75 225.82 327.66 236.22 337.60 257.73
C 344.47 272.57 346.29 291.15 344.23 325.20
C 342.75 349.55 345.88 360.78 357.51 372.98
C 359.63 375.20 361.67 377.02 362.03 377.02
C 362.43 377.02 362.50 375.26 362.22 372.63
M 338.46 158.79
C 338.85 158.31 353.54 129.27 371.11 94.26
L 403.04 30.60
L 403.02 24.97
C 403.00 20.57 402.64 18.62 401.37 16.00
C 397.98 9.02 390.49 5.11 381.83 5.81
C 374.21 6.42 370.51 9.68 369.82 16.39
C 369.31 21.27 370.56 24.94 374.55 30.27
C 376.08 32.34 377.34 34.57 377.34 35.23
C 377.34 36.29 369.31 46.40 358.90 58.42
C 357.08 60.53 350.91 67.95 345.19 74.91
C 339.46 81.88 329.04 94.40 322.03 102.75
L 309.28 117.92
L 313.41 122.45
C 323.40 133.39 330.55 144.30 335.13 155.63
C 336.84 159.84 337.27 160.26 338.46 158.79"/>
<path fill="#000000" stroke="none" d="
M 4.93 573.62
L 4.93 556.39
L 22.18 556.39
L 39.42 556.39
L 39.42 573.62
L 39.42 590.86
L 22.18 590.86
L 4.93 590.86
L 4.93 573.62
M 36.61 573.62
L 36.61 559.20
L 22.18 559.20
L 7.74 559.20
L 7.74 573.62
L 7.74 588.04
L 22.18 588.04
L 36.61 588.04
L 36.61 573.62"/>
<path fill="#000000" stroke="none" d="
M 45.76 573.62
L 45.76 556.39
L 64.42 556.39
L 83.07 556.39
L 83.07 573.62
L 83.07 590.86
L 64.42 590.86
L 45.76 590.86
L 45.76 573.62
M 80.26 573.62
L 80.26 559.20
L 64.42 559.20
L 48.58 559.20
L 48.58 573.62
L 48.58 588.04
L 64.42 588.04
L 80.26 588.04
L 80.26 573.62"/>
<path fill="#000000" stroke="none" d="
M 89.41 573.62
L 89.41 556.39
L 108.77 556.39
L 128.13 556.39
L 128.13 573.62
L 128.13 590.86
L 108.77 590.86
L 89.41 590.86
L 89.41 573.62
M 125.31 573.62
L 125.31 559.20
L 108.77 559.20
L 92.22 559.20
L 92.22 573.62
L 92.22 588.04
L 108.77 588.04
L 125.31 588.04
L 125.31 573.62"/>
<path fill="#000000" stroke="none" d="
M 134.46 573.62
L 134.46 556.39
L 153.47 556.39
L 172.48 556.39
L 172.48 573.62
L 172.48 590.86
L 153.47 590.86
L 134.46 590.86
L 134.46 573.62
M 169.66 573.62
L 169.66 559.20
L 153.47 559.20
L 137.28 559.20
L 137.28 573.62
L 137.28 588.04
L 153.47 588.04
L 169.66 588.04
L 169.66 573.62"/>
<path fill="#000000" stroke="none" d="
M 178.82 573.62
L 178.82 556.39
L 198.18 556.39
L 217.54 556.39
L 217.54 573.62
L 217.54 590.86
L 198.18 590.86
L 178.82 590.86
L 178.82 573.62
M 214.72 573.62
L 214.72 559.20
L 198.18 559.20
L 181.63 559.20
L 181.63 573.62
L 181.63 588.04
L 198.18 588.04
L 214.72 588.04
L 214.72 573.62"/>
<path fill="#000000" stroke="none" d="
M 223.87 573.62
L 223.87 556.39
L 242.53 556.39
L 261.18 556.39
L 261.18 573.62
L 261.18 590.86
L 242.53 590.86
L 223.87 590.86
L 223.87 573.62
M 258.37 573.62
L 258.37 559.20
L 242.53 559.20
L 226.69 559.20
L 226.69 573.62
L 226.69 588.04
L 242.53 588.04
L 258.37 588.04
L 258.37 573.62"/>
<path fill="#000000" stroke="none" d="
M 267.52 573.62
L 267.52 556.39
L 286.53 556.39
L 305.54 556.39
L 305.54 573.62
L 305.54 590.86
L 286.53 590.86
L 267.52 590.86
L 267.52 573.62
M 302.72 573.62
L 302.72 559.20
L 286.53 559.20
L 270.34 559.20
L 270.34 573.62
L 270.34 588.04
L 286.53 588.04
L 302.72 588.04
L 302.72 573.62"/>
<path fill="#000000" stroke="none" d="
M 311.87 573.62
L 311.87 556.39
L 331.23 556.39
L 350.59 556.39
L 350.59 573.62
L 350.59 590.86
L 331.23 590.86
L 311.87 590.86
L 311.87 573.62
M 347.78 573.62
L 347.78 559.20
L 331.23 559.20
L 314.69 559.20
L 314.69 573.62
L 314.69 588.04
L 331.23 588.04
L 347.78 588.04
L 347.78 573.62"/>
<path fill="#000000" stroke="none" d="
M 356.93 573.62
L 356.93 556.39
L 375.58 556.39
L 394.24 556.39
L 394.24 573.62
L 394.24 590.86
L 375.58 590.86
L 356.93 590.86
L 356.93 573.62
M 391.42 573.62
L 391.42 559.20
L 375.58 559.20
L 359.74 559.20
L 359.74 573.62
L 359.74 588.04
L 375.58 588.04
L 391.42 588.04
L 391.42 573.62"/>
<path fill="#000000" stroke="none" d="
M 400.58 573.62
L 400.58 556.39
L 417.82 556.39
L 435.07 556.39
L 435.07 573.62
L 435.07 590.86
L 417.82 590.86
L 400.58 590.86
L 400.58 573.62
M 432.26 573.62
L 432.26 559.20
L 417.82 559.20
L 403.39 559.20
L 403.39 573.62
L 403.39 588.04
L 417.82 588.04
L 432.26 588.04
L 432.26 573.62"/>
<path fill="#000000" stroke="none" d="
M 4.93 532.83
L 4.93 515.59
L 22.18 515.59
L 39.42 515.59
L 39.42 532.83
L 39.42 550.06
L 22.18 550.06
L 4.93 550.06
L 4.93 532.83
M 36.61 532.83
L 36.61 518.41
L 22.18 518.41
L 7.74 518.41
L 7.74 532.83
L 7.74 547.25
L 22.18 547.25
L 36.61 547.25
L 36.61 532.83"/>
<path fill="#000000" stroke="none" d="
M 45.76 532.83
L 45.76 515.59
L 64.42 515.59
L 83.07 515.59
L 83.07 532.83
L 83.07 550.06
L 64.42 550.06
L 45.76 550.06
L 45.76 532.83
M 80.26 532.83
L 80.26 518.41
L 64.42 518.41
L 48.58 518.41
L 48.58 532.83
L 48.58 547.25
L 64.42 547.25
L 80.26 547.25
L 80.26 532.83"/>
<path fill="#000000" stroke="none" d="
M 89.41 532.83
L 89.41 515.59
L 108.77 515.59
L 128.13 515.59
L 128.13 532.83
L 128.13 550.06
L 108.77 550.06
L 89.41 550.06
L 89.41 532.83
M 125.31 532.83
L 125.31 518.41
L 108.77 518.41
L 92.22 518.41
L 92.22 532.83
L 92.22 547.25
L 108.77 547.25
L 125.31 547.25
L 125.31 532.83"/>
<path fill="#000000" stroke="none" d="
M 134.46 532.83
L 134.46 515.59
L 153.47 515.59
L 172.48 515.59
L 172.48 532.83
L 172.48 550.06
L 153.47 550.06
L 134.46 550.06
L 134.46 532.83
M 169.66 532.83
L 169.66 518.41
L 153.47 518.41
L 137.28 518.41
L 137.28 532.83
L 137.28 547.25
L 153.47 547.25
L 169.66 547.25
L 169.66 532.83"/>
<path fill="#000000" stroke="none" d="
M 178.82 532.83
L 178.82 515.59
L 198.18 515.59
L 217.54 515.59
L 217.54 532.83
L 217.54 550.06
L 198.18 550.06
L 178.82 550.06
L 178.82 532.83
M 214.72 532.83
L 214.72 518.41
L 198.18 518.41
L 181.63 518.41
L 181.63 532.83
L 181.63 547.25
L 198.18 547.25
L 214.72 547.25
L 214.72 532.83"/>
<path fill="#000000" stroke="none" d="
M 223.87 532.83
L 223.87 515.59
L 242.53 515.59
L 261.18 515.59
L 261.18 532.83
L 261.18 550.06
L 242.53 550.06
L 223.87 550.06
L 223.87 532.83
M 258.37 532.83
L 258.37 518.41
L 242.53 518.41
L 226.69 518.41
L 226.69 532.83
L 226.69 547.25
L 242.53 547.25
L 258.37 547.25
L 258.37 532.83"/>
<path fill="#000000" stroke="none" d="
M 267.52 532.83
L 267.52 515.59
L 286.53 515.59
L 305.54 515.59
L 305.54 532.83
L 305.54 550.06
L 286.53 550.06
L 267.52 550.06
L 267.52 532.83
M 302.72 532.83
L 302.72 518.41
L 286.53 518.41
L 270.34 518.41
L 270.34 532.83
L 270.34 547.25
L 286.53 547.25
L 302.72 547.25
L 302.72 532.83"/>
<path fill="#000000" stroke="none" d="
M 311.87 532.83
L 311.87 515.59
L 331.23 515.59
L 350.59 515.59
L 350.59 532.83
L 350.59 550.06
L 331.23 550.06
L 311.87 550.06
L 311.87 532.83
M 347.78 532.83
L 347.78 518.41
L 331.23 518.41
L 314.69 518.41
L 314.69 532.83
L 314.69 547.25
L 331.23 547.25
L 347.78 547.25
L 347.78 532.83"/>
<path fill="#000000" stroke="none" d="
M 356.93 532.83
L 356.93 515.59
L 375.58 515.59
L 394.24 515.59
L 394.24 532.83
L 394.24 550.06
L 375.58 550.06
L 356.93 550.06
L 356.93 532.83
M 391.42 532.83
L 391.42 518.41
L 375.58 518.41
L 359.74 518.41
L 359.74 532.83
L 359.74 547.25
L 375.58 547.25
L 391.42 547.25
L 391.42 532.83"/>
<path fill="#000000" stroke="none" d="
M 400.58 532.83
L 400.58 515.59
L 417.82 515.59
L 435.07 515.59
L 435.07 532.83
L 435.07 550.06
L 417.82 550.06
L 400.58 550.06
L 400.58 532.83
M 432.26 532.83
L 432.26 518.41
L 417.82 518.41
L 403.39 518.41
L 403.39 532.83
L 403.39 547.25
L 417.82 547.25
L 432.26 547.25
L 432.26 532.83"/>
<path fill="#000000" stroke="none" d="
M 94.98 151.99
C 93.46 150.46 92.93 149.27 92.93 147.36
C 92.93 145.46 93.46 144.26 94.98 142.73
C 96.51 141.21 97.71 140.68 99.62 140.68
C 101.52 140.68 102.72 141.21 104.25 142.73
C 105.77 144.26 106.30 145.46 106.30 147.36
C 106.30 149.27 105.77 150.46 104.25 151.99
C 102.72 153.51 101.52 154.04 99.62 154.04
C 97.71 154.04 96.51 153.51 94.98 151.99
M 102.78 150.53
C 103.56 149.75 104.19 148.33 104.19 147.36
C 104.19 145.62 102.02 142.79 100.67 142.79
C 99.63 142.79 99.82 143.90 101.02 144.90
C 101.60 145.38 102.08 146.49 102.08 147.36
C 102.08 148.23 101.60 149.35 101.02 149.82
C 100.45 150.30 99.97 150.98 99.97 151.32
C 99.97 152.37 101.31 152.00 102.78 150.53"/>
<path fill="#ef907a" stroke="none" d="
M 245.36 454.32
C 222.45 450.98 199.03 438.75 180.91 420.65
C 176.06 415.80 170.73 409.86 169.07 407.44
L 166.05 403.05
L 170.30 403.05
L 174.56 403.05
L 179.18 409.34
C 193.56 428.92 221.42 446.13 247.05 451.27
C 251.24 452.12 255.06 452.36 260.07 452.13
C 266.51 451.84 266.96 451.89 264.88 452.75
C 262.44 453.76 254.26 455.12 251.33 455.00
C 250.36 454.96 247.67 454.65 245.36 454.32"/>
<path fill="#ef907a" stroke="none" d="
M 272.36 426.38
C 269.66 421.57 264.56 415.01 258.57 408.65
L 253.29 403.05
L 257.23 403.05
C 261.04 403.05 261.25 403.15 263.25 405.92
C 267.01 411.09 275.35 428.53 274.48 429.38
C 274.33 429.54 273.38 428.19 272.36 426.38"/>
<path fill="#ef907a" stroke="none" d="
M 335.13 155.63
C 330.55 144.30 323.40 133.39 313.41 122.45
L 309.28 117.92
L 322.03 102.75
C 329.04 94.40 339.46 81.88 345.19 74.91
C 350.91 67.95 357.08 60.53 358.90 58.42
C 369.31 46.40 377.34 36.29 377.34 35.23
C 377.34 34.57 376.08 32.34 374.55 30.27
C 370.56 24.94 369.31 21.27 369.82 16.39
C 370.51 9.69 374.01 6.59 381.71 5.87
C 390.41 5.06 397.94 8.94 401.37 16.00
C 402.64 18.62 403.00 20.57 403.02 24.97
L 403.04 30.60
L 371.11 94.26
C 353.54 129.27 338.85 158.31 338.46 158.79
C 337.27 160.26 336.84 159.84 335.13 155.63"/>
<path fill="#fca022" stroke="none" d="
M 357.51 372.98
C 345.88 360.78 342.75 349.55 344.23 325.20
C 346.29 291.15 344.47 272.57 337.60 257.73
C 327.66 236.22 313.75 225.82 286.53 219.51
C 259.61 213.27 229.51 213.46 172.13 220.21
C 156.27 222.08 139.99 222.71 135.98 221.61
C 129.32 219.79 124.04 212.12 122.46 201.96
C 121.45 195.49 122.53 184.94 125.00 177.05
C 128.12 167.07 126.96 163.89 120.21 163.90
C 118.17 163.91 114.93 164.40 112.99 165.00
C 111.06 165.59 106.78 166.26 103.49 166.48
C 95.83 166.99 89.80 165.55 84.52 161.94
C 76.95 156.77 76.38 152.34 82.48 145.91
C 86.47 141.69 94.55 137.32 102.08 135.32
C 108.31 133.67 119.38 133.67 124.92 135.33
C 130.75 137.07 136.86 140.28 138.62 142.50
C 142.42 147.33 142.24 153.13 137.90 165.65
C 135.41 172.81 134.96 175.00 134.89 180.07
C 134.80 187.29 136.24 191.96 139.84 196.17
C 146.50 203.94 151.48 204.01 196.06 196.95
C 234.08 190.93 249.31 189.50 268.93 190.12
C 305.76 191.28 336.83 201.97 350.44 218.18
C 359.15 228.55 364.71 243.15 366.23 259.67
C 367.25 270.63 366.12 283.57 361.93 309.14
C 360.41 318.43 358.96 328.58 358.72 331.70
C 358.23 337.74 359.17 351.46 360.76 361.90
C 362.36 372.25 362.76 377.02 362.03 377.02
C 361.67 377.02 359.63 375.20 357.51 372.98
M 104.25 151.99
C 105.77 150.46 106.30 149.27 106.30 147.36
C 106.30 145.46 105.77 144.26 104.25 142.73
C 102.72 141.21 101.52 140.68 99.62 140.68
C 97.71 140.68 96.51 141.21 94.98 142.73
C 93.46 144.26 92.93 145.46 92.93 147.36
C 92.93 149.27 93.46 150.46 94.98 151.99
C 96.51 153.51 97.71 154.04 99.62 154.04
C 101.52 154.04 102.72 153.51 104.25 151.99"/>
<path fill="#eb2e00" stroke="none" d="
M 99.97 151.32
C 99.97 150.98 100.45 150.30 101.02 149.82
C 102.40 148.69 102.37 146.39 100.97 144.85
C 99.36 143.06 101.02 142.43 102.76 144.17
C 104.58 145.99 104.59 148.72 102.78 150.53
C 101.31 152.00 99.97 152.37 99.97 151.32"/>
<path fill="#ffa153" stroke="none" d="
M 39.68 421.70
C 37.32 421.18 33.57 419.91 31.37 418.87
C 26.82 416.72 18.43 410.27 14.82 406.16
L 12.40 403.40
L 16.86 403.19
C 20.78 403.00 21.54 403.18 23.15 404.69
C 29.12 410.28 37.87 414.58 45.06 415.46
C 51.00 416.20 62.79 411.48 69.27 405.78
L 72.38 403.05
L 79.31 403.08
L 86.24 403.10
L 83.42 405.60
C 79.45 409.11 68.89 415.54 62.66 418.23
C 57.74 420.37 48.15 422.81 45.26 422.69
C 44.57 422.66 42.06 422.21 39.68 421.70"/>
<path fill="#ffa153" stroke="none" d="
M 6.34 382.83
C 6.34 379.51 10.23 366.18 12.66 361.15
C 16.86 352.47 22.39 348.15 29.22 348.21
C 37.21 348.29 59.21 362.78 76.38 379.27
L 81.31 384.01
L 76.03 384.04
L 70.75 384.05
L 63.01 376.94
C 45.91 361.25 41.25 357.83 33.99 355.63
L 29.72 354.34
L 25.84 356.11
C 19.97 358.80 17.83 363.07 15.12 377.55
L 13.90 384.06
L 10.12 384.06
C 6.98 384.06 6.34 383.85 6.34 382.83"/>
<path fill="#c55436" stroke="none" d="
M 217.54 479.02
L 217.54 451.60
L 220.70 453.14
L 223.87 454.68
L 223.87 480.56
L 223.87 506.45
L 220.70 506.45
L 217.54 506.45
L 217.54 479.02"/>
<path fill="#c55436" stroke="none" d="
M 220.53 437.06
L 217.54 435.26
L 217.54 419.16
L 217.54 403.05
L 220.70 403.05
L 223.87 403.05
L 223.87 420.98
C 223.87 430.85 223.79 438.91 223.70 438.89
C 223.60 438.88 222.18 438.06 220.53 437.06"/>
<path fill="#c55436" stroke="none" d="
M 11.26 396.72
C 9.62 395.07 9.45 392.62 10.86 390.70
C 11.84 389.35 14.88 389.33 220.39 389.16
C 374.34 389.02 429.19 389.18 429.89 389.77
C 431.07 390.75 431.15 396.13 430.00 397.28
C 429.35 397.93 381.94 398.12 220.92 398.12
C 13.61 398.12 12.66 398.12 11.26 396.72"/>
<path fill="#0885ff" stroke="none" d="
M 4.22 595.78
C 2.85 594.41 2.82 593.44 2.82 553.36
C 2.82 519.05 2.98 512.12 3.82 510.98
C 4.80 509.63 7.91 509.61 219.58 509.44
C 433.71 509.25 434.37 509.26 435.78 510.67
C 437.16 512.05 437.18 512.98 437.18 553.22
C 437.18 593.44 437.15 594.41 435.78 595.78
C 434.38 597.18 433.43 597.19 220.00 597.19
C 6.57 597.19 5.62 597.18 4.22 595.78
M 39.42 573.62
L 39.42 556.39
L 22.18 556.39
L 4.93 556.39
L 4.93 573.62
L 4.93 590.86
L 22.18 590.86
L 39.42 590.86
L 39.42 573.62
M 83.07 573.62
L 83.07 556.39
L 64.42 556.39
L 45.76 556.39
L 45.76 573.62
L 45.76 590.86
L 64.42 590.86
L 83.07 590.86
L 83.07 573.62
M 128.13 573.62
L 128.13 556.39
L 108.77 556.39
L 89.41 556.39
L 89.41 573.62
L 89.41 590.86
L 108.77 590.86
L 128.13 590.86
L 128.13 573.62
M 172.48 573.62
L 172.48 556.39
L 153.47 556.39
L 134.46 556.39
L 134.46 573.62
L 134.46 590.86
L 153.47 590.86
L 172.48 590.86
L 172.48 573.62
M 217.54 573.62
L 217.54 556.39
L 198.18 556.39
L 178.82 556.39
L 178.82 573.62
L 178.82 590.86
L 198.18 590.86
L 217.54 590.86
L 217.54 573.62
M 261.18 573.62
L 261.18 556.39
L 242.53 556.39
L 223.87 556.39
L 223.87 573.62
L 223.87 590.86
L 242.53 590.86
L 261.18 590.86
L 261.18 573.62
M 305.54 573.62
L 305.54 556.39
L 286.53 556.39
L 267.52 556.39
L 267.52 573.62
L 267.52 590.86
L 286.53 590.86
L 305.54 590.86
L 305.54 573.62
M 350.59 573.62
L 350.59 556.39
L 331.23 556.39
L 311.87 556.39
L 311.87 573.62
L 311.87 590.86
L 331.23 590.86
L 350.59 590.86
L 350.59 573.62
M 394.24 573.62
L 394.24 556.39
L 375.58 556.39
L 356.93 556.39
L 356.93 573.62
L 356.93 590.86
L 375.58 590.86
L 394.24 590.86
L 394.24 573.62
M 435.07 573.62
L 435.07 556.39
L 417.82 556.39
L 400.58 556.39
L 400.58 573.62
L 400.58 590.86
L 417.82 590.86
L 435.07 590.86
L 435.07 573.62
M 39.42 532.83
L 39.42 515.59
L 22.18 515.59
L 4.93 515.59
L 4.93 532.83
L 4.93 550.06
L 22.18 550.06
L 39.42 550.06
L 39.42 532.83
M 83.07 532.83
L 83.07 515.59
L 64.42 515.59
L 45.76 515.59
L 45.76 532.83
L 45.76 550.06
L 64.42 550.06
L 83.07 550.06
L 83.07 532.83
M 128.13 532.83
L 128.13 515.59
L 108.77 515.59
L 89.41 515.59
L 89.41 532.83
L 89.41 550.06
L 108.77 550.06
L 128.13 550.06
L 128.13 532.83
M 172.48 532.83
L 172.48 515.59
L 153.47 515.59
L 134.46 515.59
L 134.46 532.83
L 134.46 550.06
L 153.47 550.06
L 172.48 550.06
L 172.48 532.83
M 217.54 532.83
L 217.54 515.59
L 198.18 515.59
L 178.82 515.59
L 178.82 532.83
L 178.82 550.06
L 198.18 550.06
L 217.54 550.06
L 217.54 532.83
M 261.18 532.83
L 261.18 515.59
L 242.53 515.59
L 223.87 515.59
L 223.87 532.83
L 223.87 550.06
L 242.53 550.06
L 261.18 550.06
L 261.18 532.83
M 305.54 532.83
L 305.54 515.59
L 286.53 515.59
L 267.52 515.59
L 267.52 532.83
L 267.52 550.06
L 286.53 550.06
L 305.54 550.06
L 305.54 532.83
M 350.59 532.83
L 350.59 515.59
L 331.23 515.59
L 311.87 515.59
L 311.87 532.83
L 311.87 550.06
L 331.23 550.06
L 350.59 550.06
L 350.59 532.83
M 394.24 532.83
L 394.24 515.59
L 375.58 515.59
L 356.93 515.59
L 356.93 532.83
L 356.93 550.06
L 375.58 550.06
L 394.24 550.06
L 394.24 532.83
M 435.07 532.83
L 435.07 515.59
L 417.82 515.59
L 400.58 515.59
L 400.58 532.83
L 400.58 550.06
L 417.82 550.06
L 435.07 550.06
L 435.07 532.83"/>
<path fill="#c57a36" stroke="none" d="
M 7.74 573.62
L 7.74 559.20
L 22.18 559.20
L 36.61 559.20
L 36.61 573.62
L 36.61 588.04
L 22.18 588.04
L 7.74 588.04
L 7.74 573.62"/>
<path fill="#c57a36" stroke="none" d="
M 48.58 573.62
L 48.58 559.20
L 64.42 559.20
L 80.26 559.20
L 80.26 573.62
L 80.26 588.04
L 64.42 588.04
L 48.58 588.04
L 48.58 573.62"/>
<path fill="#c57a36" stroke="none" d="
M 92.22 573.62
L 92.22 559.20
L 108.77 559.20
L 125.31 559.20
L 125.31 573.62
L 125.31 588.04
L 108.77 588.04
L 92.22 588.04
L 92.22 573.62"/>
<path fill="#c57a36" stroke="none" d="
M 137.28 573.62
L 137.28 559.20
L 153.47 559.20
L 169.66 559.20
L 169.66 573.62
L 169.66 588.04
L 153.47 588.04
L 137.28 588.04
L 137.28 573.62"/>
<path fill="#c57a36" stroke="none" d="
M 181.63 573.62
L 181.63 559.20
L 198.18 559.20
L 214.72 559.20
L 214.72 573.62
L 214.72 588.04
L 198.18 588.04
L 181.63 588.04
L 181.63 573.62"/>
<path fill="#c57a36" stroke="none" d="
M 226.69 573.62
L 226.69 559.20
L 242.53 559.20
L 258.37 559.20
L 258.37 573.62
L 258.37 588.04
L 242.53 588.04
L 226.69 588.04
L 226.69 573.62"/>
<path fill="#c57a36" stroke="none" d="
M 270.34 573.62
L 270.34 559.20
L 286.53 559.20
L 302.72 559.20
L 302.72 573.62
L 302.72 588.04
L 286.53 588.04
L 270.34 588.04
L 270.34 573.62"/>
<path fill="#c57a36" stroke="none" d="
M 314.69 573.62
L 314.69 559.20
L 331.23 559.20
L 347.78 559.20
L 347.78 573.62
L 347.78 588.04
L 331.23 588.04
L 314.69 588.04
L 314.69 573.62"/>
<path fill="#c57a36" stroke="none" d="
M 359.74 573.62
L 359.74 559.20
L 375.58 559.20
L 391.42 559.20
L 391.42 573.62
L 391.42 588.04
L 375.58 588.04
L 359.74 588.04
L 359.74 573.62"/>
<path fill="#c57a36" stroke="none" d="
M 403.39 573.62
L 403.39 559.20
L 417.82 559.20
L 432.26 559.20
L 432.26 573.62
L 432.26 588.04
L 417.82 588.04
L 403.39 588.04
L 403.39 573.62"/>
<path fill="#c57a36" stroke="none" d="
M 7.91 533.00
L 8.10 518.76
L 22.35 518.57
L 36.61 518.38
L 36.61 532.81
L 36.61 547.25
L 22.16 547.25
L 7.72 547.25
L 7.91 533.00"/>
<path fill="#c57a36" stroke="none" d="
M 48.58 532.83
L 48.58 518.41
L 64.42 518.41
L 80.26 518.41
L 80.26 532.83
L 80.26 547.25
L 64.42 547.25
L 48.58 547.25
L 48.58 532.83"/>
<path fill="#c57a36" stroke="none" d="
M 92.22 532.83
L 92.22 518.41
L 108.77 518.41
L 125.31 518.41
L 125.31 532.83
L 125.31 547.25
L 108.77 547.25
L 92.22 547.25
L 92.22 532.83"/>
<path fill="#c57a36" stroke="none" d="
M 137.28 532.83
L 137.28 518.41
L 153.47 518.41
L 169.66 518.41
L 169.66 532.83
L 169.66 547.25
L 153.47 547.25
L 137.28 547.25
L 137.28 532.83"/>
<path fill="#c57a36" stroke="none" d="
M 181.63 532.83
L 181.63 518.41
L 198.18 518.41
L 214.72 518.41
L 214.72 532.83
L 214.72 547.25
L 198.18 547.25
L 181.63 547.25
L 181.63 532.83"/>
<path fill="#c57a36" stroke="none" d="
M 226.69 532.83
L 226.69 518.41
L 242.53 518.41
L 258.37 518.41
L 258.37 532.83
L 258.37 547.25
L 242.53 547.25
L 226.69 547.25
L 226.69 532.83"/>
<path fill="#c57a36" stroke="none" d="
M 270.34 532.83
L 270.34 518.41
L 286.53 518.41
L 302.72 518.41
L 302.72 532.83
L 302.72 547.25
L 286.53 547.25
L 270.34 547.25
L 270.34 532.83"/>
<path fill="#c57a36" stroke="none" d="
M 314.69 532.83
L 314.69 518.41
L 331.23 518.41
L 347.78 518.41
L 347.78 532.83
L 347.78 547.25
L 331.23 547.25
L 314.69 547.25
L 314.69 532.83"/>
<path fill="#c57a36" stroke="none" d="
M 359.74 532.83
L 359.74 518.41
L 375.58 518.41
L 391.42 518.41
L 391.42 532.83
L 391.42 547.25
L 375.58 547.25
L 359.74 547.25
L 359.74 532.83"/>
<path fill="#c57a36" stroke="none" d="
M 403.39 532.83
L 403.39 518.41
L 417.82 518.41
L 432.26 518.41
L 432.26 532.83
L 432.26 547.25
L 417.82 547.25
L 403.39 547.25
L 403.39 532.83"/>
</g>
</svg>
