<?xml version="1.0" encoding="UTF-8" standalone="no"?>
<!DOCTYPE svg PUBLIC "-//W3C//DTD SVG 1.1//EN"
"http://www.w3.org/Graphics/SVG/1.1/DTD/svg11.dtd">
<svg width="488px" height="600px"
xmlns="http://www.w3.org/2000/svg" version="1.1">
<g transform="translate(0000, 0000) scale(1.0000, 1.0000)">
<path fill="#000000" stroke="none" d="
M 1.56 598.44
C 0.03 596.91 0.00 595.85 0.00 548.18
C 0.00 500.52 0.03 499.45 1.56 497.92
C 3.11 496.38 4.16 496.36 119.47 496.36
L 235.82 496.36
L 235.61 464.74
L 235.41 433.10
L 227.06 428.30
C 222.47 425.66 215.80 421.41 212.23 418.85
C 203.27 412.42 187.98 396.94 182.36 388.64
L 177.74 381.82
L 140.24 381.82
L 102.74 381.82
L 99.97 384.48
C 95.92 388.39 82.55 397.08 75.18 400.60
C 71.65 402.27 64.98 404.57 60.35 405.70
C 52.62 407.57 51.48 407.67 46.51 406.84
C 32.74 404.53 25.33 400.26 12.70 387.34
C 3.01 377.44 0.97 373.72 1.82 367.51
C 4.79 345.65 9.61 331.20 16.38 323.87
C 20.11 319.84 26.17 317.14 31.46 317.15
C 36.38 317.17 46.80 321.12 54.34 325.82
C 62.39 330.84 75.52 341.18 88.20 352.47
L 97.52 360.78
L 289.25 360.78
C 479.93 360.78 480.98 360.79 482.53 362.34
C 483.88 363.68 484.10 364.93 484.10 371.30
C 484.10 383.18 496.46 381.82 388.79 381.82
L 296.62 381.82
L 298.68 385.13
C 302.47 391.22 308.34 403.97 309.70 409.09
C 313.72 424.22 309.24 436.14 297.59 441.30
C 292.10 443.73 282.17 445.25 276.01 444.62
C 271.66 444.17 259.54 441.79 255.52 440.59
L 253.76 440.08
L 253.76 468.22
L 253.76 496.36
L 369.32 496.36
C 483.84 496.36 484.89 496.38 486.44 497.92
C 487.97 499.45 488.00 500.52 488.00 548.18
C 488.00 595.85 487.97 596.91 486.44 598.44
C 484.88 599.99 483.84 600.00 244.00 600.00
C 4.16 600.00 3.12 599.99 1.56 598.44
M 484.10 596.10
C 485.63 594.58 485.66 593.51 485.66 548.18
C 485.66 502.85 485.63 501.79 484.10 500.26
C 482.54 498.71 481.50 498.70 244.00 498.70
C 6.50 498.70 5.46 498.71 3.90 500.26
C 2.37 501.79 2.34 502.85 2.34 548.18
C 2.34 593.51 2.37 594.58 3.90 596.10
C 5.46 597.65 6.50 597.66 244.00 597.66
C 481.50 597.66 482.54 597.65 484.10 596.10
M 248.29 467.69
L 248.29 439.01
L 244.78 437.31
L 241.27 435.61
L 241.27 465.98
L 241.27 496.36
L 244.78 496.36
L 248.29 496.36
L 248.29 467.69
M 285.97 438.69
C 288.86 438.27 292.38 437.45 293.78 436.88
C 296.08 435.93 295.59 435.86 288.44 436.19
C 260.08 437.51 218.34 415.46 198.72 388.78
L 193.60 381.82
L 188.88 381.82
L 184.17 381.82
L 187.52 386.69
C 189.36 389.37 195.27 395.95 200.65 401.31
C 214.30 414.94 227.92 423.99 245.60 431.17
C 254.40 434.74 263.94 437.42 272.12 438.62
C 278.58 439.55 279.95 439.56 285.97 438.69
M 296.45 429.40
C 298.23 428.59 300.08 427.22 300.55 426.35
C 304.11 419.72 296.81 406.20 280.82 389.81
L 273.04 381.82
L 263.40 381.82
L 253.76 381.82
L 253.76 402.50
L 253.76 423.17
L 257.30 424.68
C 260.68 426.13 273.09 429.68 277.18 430.37
C 278.26 430.55 282.30 430.74 286.16 430.78
C 291.54 430.85 293.96 430.53 296.45 429.40
M 248.29 401.69
L 248.29 381.82
L 244.78 381.82
L 241.27 381.82
L 241.27 399.66
L 241.27 417.51
L 244.59 419.50
C 246.41 420.60 247.99 421.51 248.10 421.53
C 248.21 421.54 248.29 412.61 248.29 401.69
M 235.54 382.08
C 235.38 381.92 227.44 381.88 217.90 382.00
L 200.55 382.21
L 204.40 387.27
C 209.68 394.22 219.21 403.11 228.03 409.34
L 235.41 414.55
L 235.62 398.46
C 235.74 389.61 235.70 382.24 235.54 382.08
M 303.35 406.96
C 301.35 401.61 294.67 388.71 291.97 385.00
C 289.75 381.94 289.51 381.82 285.30 381.82
L 280.92 381.82
L 286.77 388.02
C 293.42 395.07 299.08 402.34 302.07 407.66
C 304.61 412.18 305.18 411.87 303.35 406.96
M 57.62 402.41
C 60.93 401.73 66.27 400.04 69.49 398.64
C 76.41 395.66 88.12 388.54 92.52 384.65
L 95.65 381.88
L 87.96 381.85
L 80.27 381.82
L 76.83 384.84
C 69.64 391.16 56.56 396.39 49.97 395.57
C 42.00 394.59 32.30 389.83 25.68 383.64
C 23.89 381.97 23.05 381.76 18.70 381.97
L 13.75 382.21
L 16.44 385.27
C 20.44 389.82 29.75 396.96 34.79 399.34
C 38.84 401.25 46.73 403.42 50.20 403.57
C 50.97 403.61 54.30 403.08 57.62 402.41
M 63.62 388.11
C 67.06 386.38 70.76 384.26 71.83 383.41
L 73.79 381.85
L 52.46 381.83
C 39.99 381.83 31.32 382.11 31.58 382.52
C 31.82 382.91 34.03 384.57 36.50 386.21
C 46.60 392.91 53.13 393.37 63.62 388.11
M 476.91 375.43
C 478.12 374.22 478.12 368.38 476.91 367.17
C 476.19 366.44 423.61 366.23 245.02 366.23
C 15.09 366.23 14.05 366.24 12.49 367.79
C 11.63 368.65 10.93 370.22 10.93 371.30
C 10.93 372.37 11.63 373.95 12.49 374.81
C 14.05 376.36 15.09 376.36 245.02 376.36
C 423.61 376.36 476.19 376.15 476.91 375.43
M 16.77 353.57
C 19.78 337.54 22.15 332.81 28.66 329.82
L 32.97 327.86
L 37.70 329.29
C 45.75 331.72 50.92 335.52 69.88 352.90
L 78.47 360.77
L 84.33 360.76
L 90.18 360.73
L 84.72 355.48
C 64.88 336.45 41.21 321.11 31.62 321.09
C 21.60 321.05 13.50 331.41 8.98 350.01
C 6.28 361.15 6.20 360.78 11.23 360.78
L 15.42 360.78
L 16.77 353.57
M 64.81 354.37
C 45.43 335.84 36.29 330.48 29.83 333.82
C 25.76 335.91 22.03 343.76 20.71 352.99
C 20.44 354.92 20.04 357.46 19.81 358.64
L 19.40 360.78
L 45.42 360.75
L 71.44 360.72
L 64.81 354.37"/>
<path fill="#000000" stroke="none" d="
M 247.36 323.14
C 244.59 321.92 240.94 316.77 238.84 311.14
C 233.38 296.48 229.61 283.33 228.38 274.68
C 226.64 262.30 225.39 258.54 222.08 255.63
C 218.72 252.69 216.15 252.01 213.14 253.25
C 207.25 255.69 203.79 263.23 203.79 273.65
C 203.79 282.67 203.51 282.86 189.82 282.86
C 176.39 282.86 176.30 282.80 173.76 273.32
C 171.29 264.09 166.63 256.89 159.94 251.98
C 152.40 246.46 139.06 243.90 117.85 243.90
C 110.62 243.90 107.65 243.61 106.53 242.79
C 105.20 241.82 104.96 240.36 104.55 230.91
C 104.28 224.98 103.16 214.52 102.04 207.66
C 98.59 186.51 98.21 183.72 97.83 176.77
C 97.23 165.97 94.60 166.75 131.37 166.75
C 163.20 166.74 171.67 166.20 193.25 162.81
C 198.83 161.94 205.33 160.92 207.69 160.54
C 212.62 159.77 216.28 158.51 216.28 157.59
C 216.28 156.56 201.03 139.54 187.00 124.91
C 183.57 121.32 178.65 116.07 176.07 113.23
C 173.49 110.39 169.98 106.63 168.26 104.87
C 164.07 100.57 153.79 89.17 146.79 81.04
C 140.77 74.05 139.35 72.47 134.55 67.32
C 132.91 65.57 130.51 62.88 129.22 61.36
C 127.93 59.84 126.04 57.59 125.00 56.37
C 122.40 53.30 118.91 45.72 117.78 40.67
C 115.93 32.39 120.21 18.51 126.27 13.20
C 129.72 10.18 132.38 9.02 139.79 7.34
C 146.33 5.86 150.51 6.15 157.76 8.59
C 164.01 10.69 167.24 14.10 169.42 20.93
C 171.34 26.95 171.37 28.57 169.68 34.61
C 168.63 38.30 167.51 40.16 164.41 43.31
C 160.95 46.80 159.84 47.43 155.54 48.31
C 151.56 49.13 149.77 49.13 146.24 48.34
C 140.84 47.14 138.76 45.14 136.96 39.46
C 135.64 35.28 135.64 34.85 136.92 30.81
C 138.47 25.91 141.26 23.45 145.99 22.82
C 148.51 22.47 149.35 22.75 151.02 24.41
C 153.51 26.90 153.70 30.90 151.46 33.74
C 150.44 35.03 150.18 35.91 150.72 36.25
C 152.04 37.06 155.23 34.51 156.85 31.35
C 158.32 28.48 158.32 28.38 156.85 25.54
C 154.77 21.48 149.29 18.37 145.20 18.92
C 139.01 19.75 131.48 26.73 130.07 32.95
C 129.39 35.90 130.81 40.74 133.15 43.52
C 134.21 44.78 135.08 46.12 135.08 46.50
C 135.08 46.88 136.05 48.10 137.23 49.22
C 140.29 52.11 143.17 55.30 151.87 65.45
C 156.11 70.39 160.72 75.65 162.13 77.14
C 163.54 78.64 166.72 82.13 169.21 84.89
C 174.86 91.17 177.99 94.51 183.68 100.35
C 186.15 102.87 188.17 105.11 188.17 105.30
C 188.17 105.50 191.20 108.80 194.90 112.64
C 204.10 122.17 219.27 138.78 228.32 149.22
L 230.34 151.56
L 232.18 149.35
C 233.90 147.27 239.71 132.98 239.71 130.82
C 239.71 130.27 240.81 126.30 242.15 121.99
C 244.98 112.89 247.96 102.86 251.41 90.78
C 252.75 86.06 254.90 78.87 256.17 74.81
C 257.45 70.74 258.48 66.96 258.47 66.41
C 258.45 65.86 259.16 63.41 260.05 60.96
C 260.93 58.50 262.30 54.04 263.09 51.04
C 263.88 48.04 265.41 42.95 266.49 39.74
C 268.15 34.80 271.13 24.95 274.23 14.22
C 275.18 10.94 277.54 9.35 281.48 9.35
C 288.97 9.35 291.23 15.72 288.13 28.05
C 287.54 30.40 284.96 41.89 281.92 55.71
C 281.09 59.49 275.57 83.71 274.11 90.00
C 269.58 109.43 268.63 113.70 268.35 115.71
C 268.18 117.00 266.91 122.61 265.53 128.18
C 260.33 149.17 259.74 151.66 259.04 155.45
C 258.65 157.60 257.44 162.51 256.35 166.36
C 255.27 170.22 254.10 175.13 253.76 177.27
C 253.42 179.42 252.27 185.21 251.18 190.13
C 248.61 201.79 247.48 216.74 247.51 238.44
C 247.56 263.95 249.27 275.95 256.08 298.44
C 261.09 314.99 261.00 320.84 255.69 323.05
C 252.50 324.38 250.18 324.41 247.36 323.14
M 251.03 308.94
C 246.74 295.10 245.15 289.17 244.01 282.86
C 240.76 264.88 240.49 261.53 240.51 238.44
C 240.53 203.34 241.78 193.68 251.41 154.29
C 252.61 149.36 254.70 140.42 256.06 134.42
C 257.41 128.42 259.44 119.83 260.55 115.32
C 261.67 110.82 262.72 106.09 262.89 104.81
C 263.16 102.71 265.24 93.64 270.20 72.86
C 271.97 65.45 273.99 56.52 277.51 40.52
C 278.69 35.16 280.32 28.45 281.15 25.59
C 282.76 20.03 283.05 17.14 281.99 17.14
C 281.29 17.14 280.63 19.29 270.85 52.99
C 268.45 61.26 265.18 72.02 260.83 85.93
C 259.51 90.12 258.44 94.10 258.44 94.76
C 258.44 95.42 257.39 98.95 256.10 102.59
C 254.81 106.23 253.77 109.80 253.78 110.52
C 253.79 111.23 252.74 115.15 251.45 119.22
C 248.58 128.22 244.73 141.36 244.03 144.55
C 243.06 148.90 238.79 156.65 236.32 158.52
C 233.01 161.04 222.78 165.88 219.83 166.32
C 218.52 166.52 210.61 167.73 202.23 169.00
C 181.09 172.21 167.80 173.12 136.64 173.50
C 121.83 173.68 108.92 174.00 107.97 174.19
C 104.39 174.95 104.33 176.69 107.27 193.49
C 109.06 203.80 110.23 213.62 110.68 221.98
C 111.22 232.32 111.58 234.90 112.61 235.66
C 113.34 236.18 119.87 237.01 127.80 237.57
C 152.31 239.31 154.49 239.64 160.45 242.39
C 170.46 247.01 178.66 257.97 181.15 270.04
C 181.67 272.59 182.45 275.11 182.89 275.65
C 183.37 276.24 185.62 276.62 188.66 276.62
C 195.55 276.62 196.76 275.35 196.76 268.14
C 196.76 258.19 200.84 250.51 207.94 247.08
C 212.40 244.92 219.33 244.92 224.09 247.08
C 231.59 250.46 233.53 254.26 234.99 268.44
C 235.43 272.73 236.68 279.04 237.75 282.47
C 238.82 285.90 239.71 289.30 239.71 290.04
C 239.71 290.78 240.56 293.24 241.60 295.51
C 242.63 297.78 243.75 300.68 244.07 301.96
C 244.89 305.23 248.68 313.08 250.32 314.88
C 252.74 317.56 253.00 315.32 251.03 308.94
M 223.63 154.96
C 225.51 154.10 225.54 153.99 224.37 151.74
C 223.71 150.46 222.36 148.67 221.36 147.76
C 220.38 146.85 215.34 141.37 210.18 135.58
C 205.01 129.79 197.24 121.39 192.91 116.91
C 188.59 112.43 185.05 108.61 185.05 108.41
C 185.05 108.22 183.03 105.99 180.56 103.46
C 174.87 97.63 171.74 94.29 166.09 88.01
C 163.60 85.25 160.42 81.76 159.00 80.26
C 157.60 78.76 152.98 73.50 148.75 68.57
C 140.04 58.42 137.17 55.23 134.10 52.33
C 132.92 51.22 131.96 49.99 131.96 49.61
C 131.96 49.24 131.08 47.89 130.01 46.62
C 128.94 45.35 127.49 42.34 126.79 39.93
C 125.72 36.29 125.66 34.87 126.41 31.61
C 128.25 23.58 134.81 16.99 142.60 15.36
C 155.32 12.70 165.47 23.71 160.06 34.31
C 157.28 39.73 150.82 42.20 147.66 39.05
C 145.52 36.91 145.52 33.24 147.67 31.24
C 149.44 29.60 149.23 27.56 147.23 26.79
C 145.31 26.06 141.44 29.42 140.47 32.65
C 139.72 35.19 139.82 36.13 141.21 39.26
C 143.30 43.99 146.67 45.58 152.99 44.81
C 156.90 44.33 157.72 43.88 161.26 40.25
C 166.47 34.91 167.93 29.70 166.00 23.31
C 162.59 12.05 150.34 7.44 136.25 12.15
C 131.06 13.88 126.86 17.98 123.96 24.16
C 122.00 28.32 121.57 30.26 121.52 35.06
C 121.46 40.04 121.80 41.66 123.84 45.97
C 125.16 48.76 127.08 52.04 128.12 53.25
C 129.16 54.48 131.06 56.72 132.35 58.25
C 133.63 59.77 136.03 62.45 137.67 64.21
C 142.47 69.35 143.89 70.93 149.91 77.92
C 156.92 86.05 167.19 97.45 171.39 101.75
C 173.10 103.51 176.62 107.28 179.19 110.11
C 181.77 112.96 186.81 118.36 190.39 122.12
C 193.97 125.88 198.74 130.89 200.97 133.25
C 203.21 135.61 208.68 141.65 213.12 146.69
C 217.56 151.72 221.31 155.84 221.43 155.84
C 221.57 155.84 222.55 155.45 223.63 154.96"/>
<path fill="#000000" stroke="none" d="
M 84.72 316.11
C 82.36 315.02 78.99 310.85 75.78 305.06
C 74.83 303.35 72.86 299.84 71.40 297.27
C 69.93 294.70 67.51 290.26 66.01 287.39
C 64.51 284.53 62.92 281.97 62.48 281.70
C 62.04 281.43 61.68 280.57 61.68 279.79
C 61.68 279.01 61.25 278.01 60.71 277.57
C 60.17 277.11 58.54 274.44 57.08 271.61
C 54.97 267.49 54.23 266.65 53.38 267.36
C 52.79 267.84 52.31 268.62 52.31 269.08
C 52.31 269.54 51.49 271.16 50.50 272.69
C 48.05 276.42 43.94 283.25 41.56 287.53
C 40.49 289.46 39.13 291.59 38.55 292.27
C 37.96 292.95 37.48 293.82 37.48 294.22
C 37.47 294.62 36.42 296.51 35.14 298.44
C 33.85 300.37 32.80 302.45 32.79 303.06
C 32.79 305.13 27.75 311.52 24.52 313.56
C 20.80 315.90 14.62 316.32 11.00 314.45
C 5.85 311.79 3.79 299.62 7.09 291.27
C 7.98 289.01 8.96 286.98 9.28 286.76
C 9.58 286.54 10.70 285.14 11.75 283.64
C 13.66 280.92 14.33 279.79 17.87 273.38
C 18.90 271.52 20.57 268.92 21.58 267.59
C 22.60 266.26 23.42 264.91 23.42 264.58
C 23.42 264.26 24.48 262.43 25.77 260.52
C 27.05 258.62 28.11 256.78 28.11 256.43
C 28.11 256.08 28.77 254.95 29.58 253.92
C 30.40 252.89 32.03 250.30 33.22 248.17
C 34.40 246.03 35.61 244.11 35.90 243.90
C 37.07 243.03 38.87 238.43 38.20 238.01
C 37.80 237.77 37.48 237.09 37.48 236.49
C 37.48 235.89 36.42 233.84 35.14 231.94
C 33.85 230.03 32.79 228.23 32.79 227.93
C 32.79 227.63 32.13 226.45 31.32 225.31
C 29.55 222.83 25.19 215.29 24.28 213.12
C 22.28 208.39 19.53 198.26 18.70 192.55
C 17.23 182.47 18.82 170.80 22.37 165.61
C 22.95 164.76 23.42 163.58 23.42 162.99
C 23.42 161.79 27.00 156.92 31.01 152.66
L 33.64 149.86
L 28.95 145.00
C 26.37 142.32 23.16 138.15 21.82 135.72
C 18.47 129.62 14.84 118.05 14.84 113.43
C 14.84 109.53 16.86 100.75 18.08 99.39
C 18.44 98.98 18.74 98.00 18.74 97.21
C 18.74 95.64 25.14 85.41 26.76 84.39
C 27.30 84.05 29.24 82.04 31.08 79.92
L 34.40 76.09
L 30.37 72.57
C 24.43 67.39 19.68 59.54 18.12 52.31
C 15.82 41.70 16.90 26.66 20.41 20.49
C 21.21 19.08 22.55 16.71 23.39 15.23
C 24.24 13.75 25.64 11.81 26.52 10.94
C 27.39 10.07 28.11 9.06 28.11 8.70
C 28.11 7.66 35.18 3.46 39.43 1.97
C 41.83 1.13 46.65 0.46 51.92 0.23
C 61.64 -0.19 69.01 1.33 75.62 5.16
C 79.64 7.48 85.54 13.27 86.29 15.62
C 86.56 16.46 87.04 17.14 87.38 17.14
C 88.16 17.14 89.53 20.11 91.84 26.83
C 94.27 33.87 94.25 40.46 91.79 50.14
C 89.57 58.91 85.89 65.68 80.21 71.47
L 76.22 75.55
L 78.71 78.63
C 80.08 80.34 81.20 82.08 81.20 82.51
C 81.20 82.95 81.67 83.58 82.25 83.92
C 82.83 84.26 83.96 85.60 84.77 86.88
C 85.58 88.17 86.47 89.39 86.74 89.61
C 87.73 90.39 89.76 94.98 92.10 101.70
C 95.20 110.63 95.32 117.18 92.52 124.04
C 91.46 126.69 90.57 129.25 90.57 129.76
C 90.57 130.25 89.70 131.69 88.62 132.93
C 87.55 134.17 86.67 135.45 86.67 135.77
C 86.67 136.28 80.02 144.41 76.34 148.41
C 74.97 149.89 75.01 150.01 77.96 152.70
C 81.43 155.84 85.89 161.50 85.89 162.75
C 85.89 163.21 86.61 164.97 87.49 166.65
C 89.49 170.49 92.13 183.38 92.13 189.23
C 92.10 198.28 87.55 211.03 80.40 222.08
C 79.16 224.01 77.37 226.98 76.44 228.68
C 75.51 230.38 74.04 232.73 73.17 233.91
L 71.58 236.05
L 73.55 238.99
C 75.73 242.26 79.03 248.07 81.42 252.86
C 82.27 254.57 83.63 256.81 84.44 257.83
C 85.23 258.86 85.89 260.23 85.89 260.89
C 85.89 261.55 86.37 262.64 86.97 263.31
C 87.57 263.99 89.20 266.65 90.60 269.22
C 91.99 271.79 94.13 275.65 95.33 277.79
C 96.53 279.94 98.15 282.91 98.93 284.42
C 99.70 285.92 100.60 287.34 100.93 287.59
C 102.17 288.51 104.63 296.99 104.63 300.37
C 104.63 304.24 101.04 312.79 98.42 315.16
C 96.38 317.00 87.93 317.58 84.72 316.11
M 96.08 302.57
C 97.12 298.85 96.34 294.83 94.05 292.21
C 93.49 291.57 91.92 288.94 90.57 286.36
C 89.22 283.79 87.14 279.94 85.94 277.79
C 84.75 275.65 82.62 271.79 81.23 269.22
C 79.83 266.65 78.20 263.99 77.60 263.31
C 77.00 262.64 76.52 261.55 76.52 260.89
C 76.52 260.23 75.86 258.86 75.07 257.83
C 74.27 256.81 72.39 253.69 70.88 250.91
C 66.10 242.08 64.82 239.95 63.23 238.25
C 62.38 237.34 61.68 236.32 61.68 235.99
C 61.68 235.32 54.87 225.37 53.31 223.78
C 52.77 223.21 52.31 222.37 52.31 221.91
C 52.31 221.46 51.52 220.30 50.56 219.35
C 44.58 213.42 42.09 208.88 38.60 197.44
L 36.56 190.77
L 37.85 183.63
C 39.34 175.42 41.32 170.81 45.20 166.52
L 47.95 163.49
L 44.08 160.08
C 41.95 158.21 40.03 156.67 39.82 156.66
C 38.96 156.61 33.39 162.69 31.19 166.08
C 28.01 171.02 24.99 179.96 24.99 184.46
C 24.99 186.51 25.88 191.82 26.98 196.26
C 28.92 204.08 31.15 209.07 37.50 219.74
C 39.16 222.52 41.23 226.21 42.12 227.92
C 43.00 229.64 44.60 232.06 45.68 233.31
C 46.75 234.55 47.63 236.14 47.63 236.85
C 47.63 237.55 47.93 238.46 48.31 238.87
C 48.68 239.28 50.49 242.42 52.32 245.84
C 54.15 249.27 56.53 253.65 57.61 255.58
C 59.56 259.10 61.59 262.81 66.34 271.56
C 67.74 274.13 69.37 276.79 69.97 277.46
C 70.57 278.14 71.05 279.16 71.05 279.74
C 71.05 280.32 71.54 281.34 72.13 282.02
C 72.72 282.69 74.43 285.53 75.92 288.31
C 83.26 301.93 86.59 307.10 89.22 308.95
C 90.77 310.02 91.06 309.96 92.99 308.10
C 94.15 307.01 95.54 304.51 96.08 302.57
M 23.42 302.66
C 23.42 302.06 23.73 301.56 24.10 301.56
C 24.47 301.56 25.69 299.52 26.81 297.02
C 27.94 294.51 29.71 291.22 30.75 289.69
C 31.79 288.16 32.87 286.18 33.16 285.28
C 33.44 284.38 34.14 283.18 34.71 282.61
C 35.28 282.05 36.75 279.73 37.98 277.47
C 41.61 270.79 42.43 269.42 45.20 265.32
C 48.57 260.35 48.67 257.00 45.59 252.13
C 44.35 250.18 43.12 248.57 42.87 248.57
C 42.62 248.57 42.01 249.46 41.51 250.55
C 41.02 251.63 40.23 252.95 39.77 253.47
C 39.31 253.99 37.82 256.31 36.45 258.63
C 35.08 260.95 33.20 264.11 32.26 265.64
C 31.33 267.18 29.79 269.84 28.85 271.56
C 27.91 273.27 26.31 275.79 25.29 277.15
C 24.26 278.52 23.42 280.18 23.42 280.85
C 23.42 281.52 23.15 282.08 22.82 282.08
C 22.49 282.08 21.07 284.17 19.65 286.74
C 18.24 289.30 16.51 291.72 15.80 292.12
C 15.09 292.52 14.09 294.69 13.59 296.94
C 12.53 301.59 13.27 305.00 15.79 307.21
C 17.29 308.52 17.47 308.48 20.39 306.16
C 22.06 304.85 23.42 303.26 23.42 302.66
M 71.03 221.10
C 71.04 220.36 71.37 219.74 71.74 219.74
C 72.11 219.74 72.86 218.69 73.40 217.40
C 73.93 216.12 74.62 215.06 74.93 215.06
C 75.25 215.06 76.06 213.75 76.74 212.14
C 77.42 210.54 78.67 208.00 79.51 206.49
C 85.32 196.22 86.25 186.96 82.59 175.93
C 79.07 165.29 73.84 159.22 54.66 143.51
C 42.26 133.36 38.24 128.92 35.71 122.64
C 34.46 119.52 33.57 115.81 33.57 113.77
C 33.61 106.56 37.42 97.78 43.08 91.89
L 47.00 87.79
L 44.14 85.09
C 41.52 82.62 41.11 82.48 39.38 83.41
C 38.33 83.96 37.48 84.83 37.48 85.33
C 37.48 85.83 36.34 87.30 34.94 88.59
C 25.57 97.25 21.10 108.25 23.06 117.77
C 23.56 120.19 24.91 123.83 26.04 125.86
C 27.18 127.89 28.11 129.90 28.11 130.32
C 28.11 131.88 35.66 140.04 44.16 147.66
C 62.30 163.91 65.41 167.03 67.77 171.43
C 70.06 175.69 72.61 185.31 72.61 189.70
C 72.61 196.79 68.92 206.48 63.55 213.44
C 62.10 215.33 60.90 217.32 60.90 217.86
C 60.90 218.40 62.14 220.45 63.64 222.41
C 65.13 224.38 66.38 226.43 66.39 226.96
C 66.42 228.44 71.01 222.65 71.03 221.10
M 57.12 207.86
C 58.10 206.46 59.50 204.69 60.21 203.91
C 60.93 203.13 62.45 199.65 63.60 196.18
C 65.51 190.42 65.60 189.55 64.74 185.92
C 63.37 180.14 60.44 174.37 57.37 171.41
L 54.68 168.81
L 51.49 172.15
C 47.86 175.97 47.11 177.55 45.58 184.81
C 44.49 189.88 44.52 190.18 46.72 196.99
C 48.75 203.30 52.99 210.39 54.73 210.39
C 55.06 210.39 56.13 209.25 57.12 207.86
M 72.59 139.57
C 74.75 137.49 76.52 135.47 76.52 135.09
C 76.52 134.72 77.57 133.42 78.86 132.20
C 80.15 130.99 81.20 129.69 81.20 129.33
C 81.20 128.95 82.19 127.15 83.40 125.30
C 86.68 120.28 87.83 114.72 86.62 109.67
C 85.65 105.62 81.03 95.21 79.84 94.34
C 79.49 94.10 77.11 90.96 74.54 87.36
C 71.98 83.77 69.09 80.31 68.12 79.68
C 67.16 79.04 66.37 78.14 66.37 77.68
C 66.37 77.22 65.27 75.77 63.93 74.46
C 62.59 73.15 58.81 69.27 55.53 65.84
C 52.25 62.42 48.24 58.56 46.61 57.27
C 42.14 53.73 37.48 43.43 37.48 37.08
C 37.48 33.57 39.41 27.67 42.27 22.45
C 44.64 18.13 49.42 15.58 55.15 15.58
C 60.07 15.58 66.02 17.95 66.74 20.21
C 67.02 21.09 67.53 21.82 67.87 21.82
C 68.62 21.82 70.71 26.59 71.79 30.78
C 73.82 38.54 71.62 47.70 65.97 55.16
L 62.62 59.58
L 66.56 64.11
L 70.49 68.64
L 72.53 66.88
C 77.42 62.66 80.13 58.86 83.43 51.60
C 85.90 46.18 86.17 44.89 86.19 38.57
C 86.22 31.86 86.09 31.34 83.29 26.49
C 78.42 18.09 74.51 13.06 71.73 11.64
C 65.56 8.48 57.91 6.81 51.28 7.18
C 42.83 7.64 38.29 9.83 33.72 15.58
C 31.85 17.94 29.82 20.49 29.22 21.24
C 28.61 22.00 28.11 22.82 28.11 23.08
C 28.11 23.34 27.02 25.82 25.70 28.60
C 23.43 33.32 23.30 34.11 23.57 40.78
C 23.83 46.93 24.23 48.68 26.48 53.38
C 27.92 56.38 29.84 59.67 30.76 60.70
C 34.09 64.47 40.23 70.11 41.04 70.11
C 41.50 70.12 42.65 71.18 43.60 72.47
C 44.55 73.75 45.63 74.81 45.99 74.81
C 46.35 74.81 48.71 76.78 51.24 79.19
C 70.27 97.37 70.71 98.01 72.36 109.74
C 72.88 113.48 71.58 120.52 69.60 124.58
C 68.90 126.02 66.88 128.70 65.12 130.53
C 60.36 135.45 60.34 135.98 64.61 139.91
C 66.65 141.78 68.40 143.33 68.49 143.35
C 68.59 143.36 70.43 141.67 72.59 139.57
M 57.40 126.58
C 62.07 121.61 65.85 114.73 65.76 111.39
C 65.66 108.00 61.84 101.42 57.47 97.10
L 53.61 93.30
L 50.03 97.15
C 44.72 102.87 43.51 104.52 42.43 107.53
C 40.52 112.87 41.51 118.31 45.29 123.25
C 47.20 125.74 52.40 130.90 53.02 130.91
C 53.19 130.91 55.16 128.96 57.40 126.58
M 60.07 49.51
C 61.50 48.63 65.69 39.72 65.76 37.43
C 65.92 31.76 57.32 20.74 54.10 22.49
C 51.05 24.15 47.59 28.71 46.10 33.02
L 44.54 37.57
L 46.24 41.58
C 48.82 47.63 50.24 49.69 53.54 52.15
L 56.56 54.40
L 57.89 52.22
C 58.61 51.02 59.60 49.80 60.07 49.51"/>
<path fill="#000000" stroke="none" d="
M 285.30 289.56
C 283.84 288.10 282.65 286.11 282.65 285.15
C 282.65 282.73 299.93 265.28 303.48 264.11
C 307.40 262.82 310.62 263.94 315.06 268.12
L 319.07 271.91
L 322.48 268.43
C 328.72 262.08 333.55 262.00 340.05 268.12
L 344.05 271.91
L 347.46 268.43
C 353.71 262.08 358.54 262.00 365.03 268.12
L 369.04 271.91
L 372.45 268.43
C 378.70 262.08 383.52 262.00 390.02 268.12
L 394.02 271.91
L 397.40 268.46
C 403.82 261.94 408.34 261.84 414.96 268.08
L 419.01 271.91
L 422.42 268.43
C 428.71 262.04 434.06 262.03 440.32 268.39
L 443.78 271.91
L 447.78 268.12
C 452.22 263.94 455.44 262.82 459.36 264.11
C 462.91 265.28 479.41 281.96 479.41 284.38
C 479.41 286.64 474.62 291.43 472.36 291.43
C 471.21 291.43 468.15 289.02 463.45 284.42
L 456.30 277.42
L 452.86 280.91
C 446.61 287.27 441.78 287.35 435.29 281.23
L 431.28 277.44
L 427.87 280.92
C 421.62 287.27 416.80 287.35 410.30 281.23
L 406.30 277.44
L 402.92 280.89
C 396.50 287.42 391.98 287.51 385.36 281.27
L 381.31 277.44
L 377.86 280.96
C 371.60 287.32 366.25 287.31 359.96 280.92
L 356.54 277.44
L 352.54 281.23
C 346.04 287.35 341.22 287.27 334.97 280.92
L 331.56 277.44
L 327.55 281.23
C 321.06 287.35 316.23 287.27 309.98 280.91
L 306.54 277.42
L 299.00 284.81
C 294.00 289.71 290.86 292.21 289.71 292.21
C 288.75 292.21 286.76 291.02 285.30 289.56
M 297.53 280.13
C 305.89 271.96 306.63 271.85 313.10 277.79
C 315.67 280.15 318.31 282.08 318.96 282.08
C 319.60 282.08 322.24 280.15 324.81 277.79
C 327.89 274.96 330.15 273.51 331.45 273.51
C 332.75 273.51 335.01 274.96 338.09 277.79
C 340.66 280.15 343.29 282.08 343.94 282.08
C 344.59 282.08 347.23 280.15 349.80 277.79
C 352.87 274.96 355.14 273.51 356.44 273.51
C 357.73 273.51 360.00 274.96 363.07 277.79
C 365.64 280.15 368.28 282.08 368.93 282.08
C 369.58 282.08 372.22 280.15 374.78 277.79
C 377.86 274.96 380.12 273.51 381.42 273.51
C 382.72 273.51 384.98 274.96 388.06 277.79
C 390.63 280.15 393.27 282.08 393.91 282.08
C 394.56 282.08 397.20 280.15 399.77 277.79
C 402.85 274.96 405.11 273.51 406.41 273.51
C 407.70 273.51 409.97 274.96 413.04 277.79
C 415.61 280.15 418.25 282.08 418.90 282.08
C 419.55 282.08 422.19 280.15 424.76 277.79
C 427.83 274.96 430.10 273.51 431.39 273.51
C 432.69 273.51 434.95 274.96 438.03 277.79
C 440.60 280.15 443.24 282.08 443.88 282.08
C 444.53 282.08 447.17 280.15 449.74 277.79
C 456.23 271.84 456.93 271.95 465.47 280.29
C 472.06 286.71 472.48 286.99 473.77 285.71
C 475.05 284.43 474.67 283.92 466.46 275.81
C 461.69 271.11 457.19 267.27 456.44 267.27
C 455.68 267.27 452.88 269.38 450.19 271.95
C 447.51 274.52 444.67 276.62 443.88 276.62
C 443.10 276.62 440.26 274.52 437.58 271.95
C 434.89 269.38 432.11 267.27 431.39 267.27
C 430.67 267.27 427.89 269.38 425.21 271.95
C 422.52 274.52 419.69 276.62 418.90 276.62
C 418.11 276.62 415.28 274.52 412.59 271.95
C 409.90 269.38 407.12 267.27 406.41 267.27
C 405.69 267.27 402.91 269.38 400.22 271.95
C 397.54 274.52 394.70 276.62 393.91 276.62
C 393.12 276.62 390.29 274.52 387.60 271.95
C 384.92 269.38 382.14 267.27 381.42 267.27
C 380.70 267.27 377.92 269.38 375.24 271.95
C 372.55 274.52 369.72 276.62 368.93 276.62
C 368.14 276.62 365.31 274.52 362.62 271.95
C 359.93 269.38 357.15 267.27 356.44 267.27
C 355.72 267.27 352.94 269.38 350.25 271.95
C 347.57 274.52 344.73 276.62 343.94 276.62
C 343.15 276.62 340.32 274.52 337.63 271.95
C 334.95 269.38 332.17 267.27 331.45 267.27
C 330.73 267.27 327.95 269.38 325.27 271.95
C 322.58 274.52 319.75 276.62 318.96 276.62
C 318.17 276.62 315.33 274.52 312.65 271.95
C 309.96 269.38 307.16 267.27 306.40 267.27
C 305.65 267.27 301.16 271.10 296.42 275.77
C 288.94 283.17 287.94 284.44 288.84 285.51
C 289.40 286.20 290.07 286.75 290.31 286.75
C 290.55 286.75 293.80 283.78 297.53 280.13"/>
<path fill="#000000" stroke="none" d="
M 285.30 193.71
C 283.84 192.26 282.65 190.27 282.65 189.30
C 282.65 186.89 299.93 169.43 303.48 168.26
C 307.40 166.97 310.62 168.09 315.06 172.28
L 319.07 176.06
L 322.48 172.59
C 328.72 166.24 333.55 166.15 340.05 172.28
L 344.05 176.06
L 347.46 172.59
C 353.71 166.24 358.54 166.15 365.03 172.28
L 369.04 176.06
L 372.45 172.59
C 378.70 166.24 383.52 166.15 390.02 172.28
L 394.02 176.06
L 397.40 172.62
C 403.82 166.09 408.34 166.00 414.96 172.24
L 419.01 176.06
L 422.42 172.59
C 428.71 166.19 434.06 166.18 440.32 172.55
L 443.78 176.06
L 447.78 172.28
C 452.22 168.09 455.44 166.97 459.36 168.26
C 462.91 169.43 479.41 186.12 479.41 188.53
C 479.41 190.79 474.62 195.58 472.36 195.58
C 471.21 195.58 468.15 193.18 463.45 188.58
L 456.30 181.57
L 452.86 185.06
C 446.61 191.42 441.78 191.51 435.29 185.38
L 431.28 181.60
L 427.87 185.07
C 421.62 191.42 416.80 191.51 410.30 185.38
L 406.30 181.60
L 402.92 185.04
C 396.50 191.57 391.98 191.66 385.36 185.42
L 381.31 181.60
L 377.86 185.11
C 371.60 191.48 366.25 191.47 359.96 185.07
L 356.54 181.60
L 352.54 185.38
C 346.04 191.51 341.22 191.42 334.97 185.07
L 331.56 181.60
L 327.55 185.38
C 321.06 191.51 316.23 191.42 309.98 185.06
L 306.54 181.57
L 299.00 188.97
C 294.00 193.87 290.86 196.36 289.71 196.36
C 288.75 196.36 286.76 195.17 285.30 193.71
M 297.53 184.29
C 305.89 176.12 306.63 176.01 313.10 181.95
C 315.67 184.31 318.31 186.23 318.96 186.23
C 319.60 186.23 322.24 184.31 324.81 181.95
C 327.89 179.12 330.15 177.66 331.45 177.66
C 332.75 177.66 335.01 179.12 338.09 181.95
C 340.66 184.31 343.29 186.23 343.94 186.23
C 344.59 186.23 347.23 184.31 349.80 181.95
C 352.87 179.12 355.14 177.66 356.44 177.66
C 357.73 177.66 360.00 179.12 363.07 181.95
C 365.64 184.31 368.28 186.23 368.93 186.23
C 369.58 186.23 372.22 184.31 374.78 181.95
C 377.86 179.12 380.12 177.66 381.42 177.66
C 382.72 177.66 384.98 179.12 388.06 181.95
C 390.63 184.31 393.27 186.23 393.91 186.23
C 394.56 186.23 397.20 184.31 399.77 181.95
C 402.85 179.12 405.11 177.66 406.41 177.66
C 407.70 177.66 409.97 179.12 413.04 181.95
C 415.61 184.31 418.25 186.23 418.90 186.23
C 419.55 186.23 422.19 184.31 424.76 181.95
C 427.83 179.12 430.10 177.66 431.39 177.66
C 432.69 177.66 434.95 179.12 438.03 181.95
C 440.60 184.31 443.24 186.23 443.88 186.23
C 444.53 186.23 447.17 184.31 449.74 181.95
C 456.23 175.99 456.93 176.10 465.47 184.44
C 472.06 190.87 472.48 191.15 473.77 189.86
C 475.05 188.59 474.67 188.08 466.46 179.97
C 461.69 175.27 457.19 171.43 456.44 171.43
C 455.68 171.43 452.88 173.53 450.19 176.10
C 447.51 178.68 444.67 180.78 443.88 180.78
C 443.10 180.78 440.26 178.68 437.58 176.10
C 434.89 173.53 432.11 171.43 431.39 171.43
C 430.67 171.43 427.89 173.53 425.21 176.10
C 422.52 178.68 419.69 180.78 418.90 180.78
C 418.11 180.78 415.28 178.68 412.59 176.10
C 409.90 173.53 407.12 171.43 406.41 171.43
C 405.69 171.43 402.91 173.53 400.22 176.10
C 397.54 178.68 394.70 180.78 393.91 180.78
C 393.12 180.78 390.29 178.68 387.60 176.10
C 384.92 173.53 382.14 171.43 381.42 171.43
C 380.70 171.43 377.92 173.53 375.24 176.10
C 372.55 178.68 369.72 180.78 368.93 180.78
C 368.14 180.78 365.31 178.68 362.62 176.10
C 359.93 173.53 357.15 171.43 356.44 171.43
C 355.72 171.43 352.94 173.53 350.25 176.10
C 347.57 178.68 344.73 180.78 343.94 180.78
C 343.15 180.78 340.32 178.68 337.63 176.10
C 334.95 173.53 332.17 171.43 331.45 171.43
C 330.73 171.43 327.95 173.53 325.27 176.10
C 322.58 178.68 319.75 180.78 318.96 180.78
C 318.17 180.78 315.33 178.68 312.65 176.10
C 309.96 173.53 307.16 171.43 306.40 171.43
C 305.65 171.43 301.16 175.25 296.42 179.93
C 288.94 187.32 287.94 188.59 288.84 189.67
C 289.40 190.36 290.07 190.91 290.31 190.91
C 290.55 190.91 293.80 187.93 297.53 184.29"/>
<path fill="#000000" stroke="none" d="
M 285.30 92.42
C 283.84 90.96 282.65 88.97 282.65 88.01
C 282.65 85.59 299.93 68.14 303.48 66.97
C 307.40 65.67 310.62 66.79 315.06 70.98
L 319.07 74.77
L 322.48 71.29
C 328.72 64.94 333.55 64.85 340.05 70.98
L 344.05 74.77
L 347.46 71.29
C 353.71 64.94 358.54 64.85 365.03 70.98
L 369.04 74.77
L 372.45 71.29
C 378.70 64.94 383.52 64.85 390.02 70.98
L 394.02 74.77
L 397.40 71.32
C 403.82 64.79 408.34 64.70 414.96 70.94
L 419.01 74.77
L 422.42 71.29
C 428.71 64.89 434.06 64.89 440.32 71.25
L 443.78 74.77
L 447.78 70.98
C 452.22 66.79 455.44 65.67 459.36 66.97
C 462.91 68.14 479.41 84.82 479.41 87.23
C 479.41 89.49 474.62 94.29 472.36 94.29
C 471.21 94.29 468.15 91.88 463.45 87.28
L 456.30 80.28
L 452.86 83.77
C 446.61 90.12 441.78 90.21 435.29 84.09
L 431.28 80.30
L 427.87 83.77
C 421.62 90.12 416.80 90.21 410.30 84.09
L 406.30 80.30
L 402.92 83.74
C 396.50 90.27 391.98 90.37 385.36 84.12
L 381.31 80.30
L 377.86 83.81
C 371.60 90.18 366.25 90.17 359.96 83.77
L 356.54 80.30
L 352.54 84.09
C 346.04 90.21 341.22 90.12 334.97 83.77
L 331.56 80.30
L 327.55 84.09
C 321.06 90.21 316.23 90.12 309.98 83.77
L 306.54 80.28
L 299.00 87.67
C 294.00 92.57 290.86 95.06 289.71 95.06
C 288.75 95.06 286.76 93.87 285.30 92.42
M 297.53 82.99
C 305.89 74.82 306.63 74.71 313.10 80.65
C 315.67 83.01 318.31 84.94 318.96 84.94
C 319.60 84.94 322.24 83.01 324.81 80.65
C 327.89 77.82 330.15 76.36 331.45 76.36
C 332.75 76.36 335.01 77.82 338.09 80.65
C 340.66 83.01 343.29 84.94 343.94 84.94
C 344.59 84.94 347.23 83.01 349.80 80.65
C 352.87 77.82 355.14 76.36 356.44 76.36
C 357.73 76.36 360.00 77.82 363.07 80.65
C 365.64 83.01 368.28 84.94 368.93 84.94
C 369.58 84.94 372.22 83.01 374.78 80.65
C 377.86 77.82 380.12 76.36 381.42 76.36
C 382.72 76.36 384.98 77.82 388.06 80.65
C 390.63 83.01 393.27 84.94 393.91 84.94
C 394.56 84.94 397.20 83.01 399.77 80.65
C 405.79 75.12 407.02 75.12 413.04 80.65
C 415.61 83.01 418.25 84.94 418.90 84.94
C 419.55 84.94 422.19 83.01 424.76 80.65
C 427.83 77.82 430.10 76.36 431.39 76.36
C 432.69 76.36 434.95 77.82 438.03 80.65
C 440.60 83.01 443.24 84.94 443.88 84.94
C 444.53 84.94 447.17 83.00 449.74 80.65
C 456.23 74.70 456.93 74.81 465.47 83.14
C 472.06 89.57 472.48 89.85 473.77 88.57
C 475.05 87.29 474.67 86.78 466.46 78.67
C 461.69 73.97 457.19 70.13 456.44 70.13
C 455.68 70.13 452.88 72.23 450.19 74.81
C 447.51 77.38 444.67 79.48 443.88 79.48
C 443.10 79.48 440.26 77.38 437.58 74.81
C 434.89 72.23 432.11 70.13 431.39 70.13
C 430.67 70.13 427.89 72.23 425.21 74.81
C 422.52 77.38 419.69 79.48 418.90 79.48
C 418.11 79.48 415.28 77.38 412.59 74.81
C 409.90 72.23 407.12 70.13 406.41 70.13
C 405.69 70.13 402.91 72.23 400.22 74.81
C 397.54 77.38 394.70 79.48 393.91 79.48
C 393.12 79.48 390.29 77.38 387.60 74.81
C 384.92 72.23 382.14 70.13 381.42 70.13
C 380.70 70.13 377.92 72.23 375.24 74.81
C 372.55 77.38 369.72 79.48 368.93 79.48
C 368.14 79.48 365.31 77.38 362.62 74.81
C 359.93 72.23 357.15 70.13 356.44 70.13
C 355.72 70.13 352.94 72.23 350.25 74.81
C 347.57 77.38 344.73 79.48 343.94 79.48
C 343.15 79.48 340.32 77.38 337.63 74.81
C 334.95 72.23 332.17 70.13 331.45 70.13
C 330.73 70.13 327.95 72.23 325.27 74.81
C 322.58 77.38 319.75 79.48 318.96 79.48
C 318.17 79.48 315.33 77.38 312.65 74.81
C 309.96 72.23 307.16 70.13 306.40 70.13
C 305.65 70.13 301.16 73.96 296.42 78.63
C 288.94 86.03 287.94 87.30 288.84 88.37
C 289.40 89.06 290.07 89.61 290.31 89.61
C 290.55 89.61 293.80 86.63 297.53 82.99"/>
<path fill="#000000" stroke="none" d="
M 6.25 570.78
L 6.25 552.47
L 24.60 552.47
L 42.94 552.47
L 42.94 570.78
L 42.94 589.09
L 24.60 589.09
L 6.25 589.09
L 6.25 570.78
M 40.60 570.78
L 40.60 554.81
L 24.60 554.81
L 8.59 554.81
L 8.59 570.78
L 8.59 586.75
L 24.60 586.75
L 40.60 586.75
L 40.60 570.78"/>
<path fill="#000000" stroke="none" d="
M 51.53 570.78
L 51.53 552.47
L 71.44 552.47
L 91.35 552.47
L 91.35 570.78
L 91.35 589.09
L 71.44 589.09
L 51.53 589.09
L 51.53 570.78
M 89.01 570.78
L 89.01 554.81
L 71.44 554.81
L 53.88 554.81
L 53.88 570.78
L 53.88 586.75
L 71.44 586.75
L 89.01 586.75
L 89.01 570.78"/>
<path fill="#000000" stroke="none" d="
M 99.94 570.78
L 99.94 552.47
L 120.63 552.47
L 141.32 552.47
L 141.32 570.78
L 141.32 589.09
L 120.63 589.09
L 99.94 589.09
L 99.94 570.78
M 138.98 570.78
L 138.98 554.81
L 120.63 554.81
L 102.28 554.81
L 102.28 570.78
L 102.28 586.75
L 120.63 586.75
L 138.98 586.75
L 138.98 570.78"/>
<path fill="#000000" stroke="none" d="
M 149.91 570.78
L 149.91 552.47
L 170.21 552.47
L 190.52 552.47
L 190.52 570.78
L 190.52 589.09
L 170.21 589.09
L 149.91 589.09
L 149.91 570.78
M 188.17 570.78
L 188.17 554.81
L 170.21 554.81
L 152.26 554.81
L 152.26 570.78
L 152.26 586.75
L 170.21 586.75
L 188.17 586.75
L 188.17 570.78"/>
<path fill="#000000" stroke="none" d="
M 199.10 570.78
L 199.10 552.47
L 219.80 552.47
L 240.49 552.47
L 240.49 570.78
L 240.49 589.09
L 219.80 589.09
L 199.10 589.09
L 199.10 570.78
M 238.14 570.78
L 238.14 554.81
L 219.80 554.81
L 201.45 554.81
L 201.45 570.78
L 201.45 586.75
L 219.80 586.75
L 238.14 586.75
L 238.14 570.78"/>
<path fill="#000000" stroke="none" d="
M 249.08 570.78
L 249.08 552.47
L 268.99 552.47
L 288.90 552.47
L 288.90 570.78
L 288.90 589.09
L 268.99 589.09
L 249.08 589.09
L 249.08 570.78
M 286.55 570.78
L 286.55 554.81
L 268.99 554.81
L 251.42 554.81
L 251.42 570.78
L 251.42 586.75
L 268.99 586.75
L 286.55 586.75
L 286.55 570.78"/>
<path fill="#000000" stroke="none" d="
M 297.48 570.78
L 297.48 552.47
L 317.79 552.47
L 338.09 552.47
L 338.09 570.78
L 338.09 589.09
L 317.79 589.09
L 297.48 589.09
L 297.48 570.78
M 335.74 570.78
L 335.74 554.81
L 317.79 554.81
L 299.83 554.81
L 299.83 570.78
L 299.83 586.75
L 317.79 586.75
L 335.74 586.75
L 335.74 570.78"/>
<path fill="#000000" stroke="none" d="
M 346.68 570.78
L 346.68 552.47
L 367.37 552.47
L 388.06 552.47
L 388.06 570.78
L 388.06 589.09
L 367.37 589.09
L 346.68 589.09
L 346.68 570.78
M 385.72 570.78
L 385.72 554.81
L 367.37 554.81
L 349.02 554.81
L 349.02 570.78
L 349.02 586.75
L 367.37 586.75
L 385.72 586.75
L 385.72 570.78"/>
<path fill="#000000" stroke="none" d="
M 396.65 570.78
L 396.65 552.47
L 416.56 552.47
L 436.47 552.47
L 436.47 570.78
L 436.47 589.09
L 416.56 589.09
L 396.65 589.09
L 396.65 570.78
M 434.12 570.78
L 434.12 554.81
L 416.56 554.81
L 398.99 554.81
L 398.99 570.78
L 398.99 586.75
L 416.56 586.75
L 434.12 586.75
L 434.12 570.78"/>
<path fill="#000000" stroke="none" d="
M 445.06 570.78
L 445.06 552.47
L 463.40 552.47
L 481.75 552.47
L 481.75 570.78
L 481.75 589.09
L 463.40 589.09
L 445.06 589.09
L 445.06 570.78
M 479.41 570.78
L 479.41 554.81
L 463.40 554.81
L 447.40 554.81
L 447.40 570.78
L 447.40 586.75
L 463.40 586.75
L 479.41 586.75
L 479.41 570.78"/>
<path fill="#000000" stroke="none" d="
M 6.25 525.58
L 6.25 507.27
L 24.60 507.27
L 42.94 507.27
L 42.94 525.58
L 42.94 543.90
L 24.60 543.90
L 6.25 543.90
L 6.25 525.58
M 40.60 525.58
L 40.60 509.61
L 24.60 509.61
L 8.59 509.61
L 8.59 525.58
L 8.59 541.56
L 24.60 541.56
L 40.60 541.56
L 40.60 525.58"/>
<path fill="#000000" stroke="none" d="
M 51.53 525.58
L 51.53 507.27
L 71.44 507.27
L 91.35 507.27
L 91.35 525.58
L 91.35 543.90
L 71.44 543.90
L 51.53 543.90
L 51.53 525.58
M 89.01 525.58
L 89.01 509.61
L 71.44 509.61
L 53.88 509.61
L 53.88 525.58
L 53.88 541.56
L 71.44 541.56
L 89.01 541.56
L 89.01 525.58"/>
<path fill="#000000" stroke="none" d="
M 99.94 525.58
L 99.94 507.27
L 120.63 507.27
L 141.32 507.27
L 141.32 525.58
L 141.32 543.90
L 120.63 543.90
L 99.94 543.90
L 99.94 525.58
M 138.98 525.58
L 138.98 509.61
L 120.63 509.61
L 102.28 509.61
L 102.28 525.58
L 102.28 541.56
L 120.63 541.56
L 138.98 541.56
L 138.98 525.58"/>
<path fill="#000000" stroke="none" d="
M 149.91 525.58
L 149.91 507.27
L 170.21 507.27
L 190.52 507.27
L 190.52 525.58
L 190.52 543.90
L 170.21 543.90
L 149.91 543.90
L 149.91 525.58
M 188.17 525.58
L 188.17 509.61
L 170.21 509.61
L 152.26 509.61
L 152.26 525.58
L 152.26 541.56
L 170.21 541.56
L 188.17 541.56
L 188.17 525.58"/>
<path fill="#000000" stroke="none" d="
M 199.10 525.58
L 199.10 507.27
L 219.80 507.27
L 240.49 507.27
L 240.49 525.58
L 240.49 543.90
L 219.80 543.90
L 199.10 543.90
L 199.10 525.58
M 238.14 525.58
L 238.14 509.61
L 219.80 509.61
L 201.45 509.61
L 201.45 525.58
L 201.45 541.56
L 219.80 541.56
L 238.14 541.56
L 238.14 525.58"/>
<path fill="#000000" stroke="none" d="
M 249.08 525.58
L 249.08 507.27
L 268.99 507.27
L 288.90 507.27
L 288.90 525.58
L 288.90 543.90
L 268.99 543.90
L 249.08 543.90
L 249.08 525.58
M 286.55 525.58
L 286.55 509.61
L 268.99 509.61
L 251.42 509.61
L 251.42 525.58
L 251.42 541.56
L 268.99 541.56
L 286.55 541.56
L 286.55 525.58"/>
<path fill="#000000" stroke="none" d="
M 297.48 525.58
L 297.48 507.27
L 317.79 507.27
L 338.09 507.27
L 338.09 525.58
L 338.09 543.90
L 317.79 543.90
L 297.48 543.90
L 297.48 525.58
M 335.74 525.58
L 335.74 509.61
L 317.79 509.61
L 299.83 509.61
L 299.83 525.58
L 299.83 541.56
L 317.79 541.56
L 335.74 541.56
L 335.74 525.58"/>
<path fill="#000000" stroke="none" d="
M 346.68 525.58
L 346.68 507.27
L 367.37 507.27
L 388.06 507.27
L 388.06 525.58
L 388.06 543.90
L 367.37 543.90
L 346.68 543.90
L 346.68 525.58
M 385.72 525.58
L 385.72 509.61
L 367.37 509.61
L 349.02 509.61
L 349.02 525.58
L 349.02 541.56
L 367.37 541.56
L 385.72 541.56
L 385.72 525.58"/>
<path fill="#000000" stroke="none" d="
M 396.65 525.58
L 396.65 507.27
L 416.56 507.27
L 436.47 507.27
L 436.47 525.58
L 436.47 543.90
L 416.56 543.90
L 396.65 543.90
L 396.65 525.58
M 434.12 525.58
L 434.12 509.61
L 416.56 509.61
L 398.99 509.61
L 398.99 525.58
L 398.99 541.56
L 416.56 541.56
L 434.12 541.56
L 434.12 525.58"/>
<path fill="#000000" stroke="none" d="
M 445.06 525.58
L 445.06 507.27
L 463.40 507.27
L 481.75 507.27
L 481.75 525.58
L 481.75 543.90
L 463.40 543.90
L 445.06 543.90
L 445.06 525.58
M 479.41 525.58
L 479.41 509.61
L 463.40 509.61
L 447.40 509.61
L 447.40 525.58
L 447.40 541.56
L 463.40 541.56
L 479.41 541.56
L 479.41 525.58"/>
<path fill="#f7c076" stroke="none" d="
M 89.22 308.95
C 86.59 307.10 83.26 301.93 75.92 288.31
C 74.43 285.53 72.72 282.69 72.13 282.02
C 71.54 281.34 71.05 280.32 71.05 279.74
C 71.05 279.16 70.57 278.14 69.97 277.46
C 69.37 276.79 67.74 274.13 66.34 271.56
C 61.59 262.81 59.56 259.10 57.61 255.58
C 56.53 253.65 54.15 249.27 52.32 245.84
C 50.49 242.42 48.68 239.28 48.31 238.87
C 47.93 238.46 47.63 237.55 47.63 236.85
C 47.63 236.14 46.75 234.55 45.68 233.31
C 44.60 232.06 43.00 229.64 42.12 227.92
C 41.23 226.21 39.16 222.52 37.50 219.74
C 31.15 209.07 28.92 204.08 26.98 196.26
C 25.88 191.82 24.99 186.51 24.99 184.46
C 24.99 179.96 28.01 171.02 31.19 166.08
C 33.39 162.69 38.96 156.61 39.82 156.66
C 40.03 156.67 41.95 158.21 44.08 160.08
L 47.95 163.49
L 45.20 166.52
C 41.32 170.81 39.34 175.42 37.85 183.63
L 36.56 190.77
L 38.60 197.44
C 42.09 208.88 44.58 213.42 50.56 219.35
C 51.52 220.30 52.31 221.46 52.31 221.91
C 52.31 222.37 52.77 223.21 53.31 223.78
C 54.87 225.37 61.68 235.32 61.68 235.99
C 61.68 236.32 62.38 237.34 63.23 238.25
C 64.82 239.95 66.10 242.08 70.88 250.91
C 72.39 253.69 74.27 256.81 75.07 257.83
C 75.86 258.86 76.52 260.23 76.52 260.89
C 76.52 261.55 77.00 262.64 77.60 263.31
C 78.20 263.99 79.83 266.65 81.23 269.22
C 82.62 271.79 84.75 275.65 85.94 277.79
C 87.14 279.94 89.22 283.79 90.57 286.36
C 91.92 288.94 93.49 291.57 94.05 292.21
C 94.61 292.85 95.52 294.65 96.07 296.21
C 97.37 299.89 95.98 305.25 92.99 308.10
C 91.06 309.96 90.77 310.02 89.22 308.95"/>
<path fill="#f7c076" stroke="none" d="
M 15.79 307.21
C 13.27 305.00 12.53 301.59 13.59 296.94
C 14.09 294.69 15.09 292.52 15.80 292.12
C 16.51 291.72 18.24 289.30 19.65 286.74
C 21.07 284.17 22.49 282.08 22.82 282.08
C 23.15 282.08 23.42 281.52 23.42 280.85
C 23.42 280.18 24.26 278.52 25.29 277.15
C 26.31 275.79 27.91 273.27 28.85 271.56
C 29.79 269.84 31.33 267.18 32.26 265.64
C 33.20 264.11 35.08 260.95 36.45 258.63
C 37.82 256.31 39.31 253.99 39.77 253.47
C 40.23 252.95 41.02 251.63 41.51 250.55
C 42.01 249.46 42.62 248.57 42.87 248.57
C 43.12 248.57 44.35 250.18 45.59 252.13
C 48.67 257.00 48.57 260.35 45.20 265.32
C 42.43 269.42 41.61 270.79 37.98 277.47
C 36.75 279.73 35.28 282.05 34.71 282.61
C 34.14 283.18 33.44 284.38 33.16 285.28
C 32.87 286.18 31.79 288.16 30.75 289.69
C 29.71 291.22 27.94 294.51 26.81 297.02
C 25.69 299.52 24.47 301.56 24.10 301.56
C 23.73 301.56 23.42 302.06 23.42 302.66
C 23.42 303.26 22.06 304.85 20.39 306.16
C 17.47 308.48 17.29 308.52 15.79 307.21"/>
<path fill="#f7c076" stroke="none" d="
M 66.39 226.96
C 66.38 226.43 65.13 224.38 63.64 222.41
C 62.14 220.45 60.90 218.40 60.90 217.86
C 60.90 217.32 62.10 215.33 63.55 213.44
C 68.92 206.48 72.61 196.79 72.61 189.70
C 72.61 185.31 70.06 175.69 67.77 171.43
C 65.41 167.03 62.30 163.91 44.16 147.66
C 35.66 140.04 28.11 131.88 28.11 130.32
C 28.11 129.90 27.18 127.89 26.04 125.86
C 19.38 113.96 22.74 99.87 34.94 88.59
C 36.34 87.30 37.48 85.83 37.48 85.33
C 37.48 84.83 38.33 83.96 39.38 83.41
C 41.11 82.48 41.52 82.62 44.14 85.09
L 47.00 87.79
L 43.08 91.89
C 37.42 97.78 33.61 106.56 33.57 113.77
C 33.57 115.81 34.46 119.52 35.71 122.64
C 38.24 128.92 42.26 133.36 54.66 143.51
C 73.84 159.22 79.07 165.29 82.59 175.93
C 86.25 186.96 85.32 196.22 79.51 206.49
C 78.67 208.00 77.42 210.54 76.74 212.14
C 76.06 213.75 75.25 215.06 74.93 215.06
C 74.62 215.06 73.93 216.12 73.40 217.40
C 72.86 218.69 72.11 219.74 71.74 219.74
C 71.37 219.74 71.04 220.36 71.03 221.10
C 71.01 222.65 66.42 228.44 66.39 226.96"/>
<path fill="#f7c076" stroke="none" d="
M 64.61 139.91
C 60.34 135.98 60.36 135.45 65.12 130.53
C 72.01 123.39 73.79 115.35 71.21 103.18
C 70.06 97.78 67.55 94.77 51.24 79.19
C 48.71 76.78 46.35 74.81 45.99 74.81
C 45.63 74.81 44.55 73.75 43.60 72.47
C 42.65 71.18 41.50 70.12 41.04 70.11
C 40.23 70.11 34.09 64.47 30.76 60.70
C 29.84 59.67 27.92 56.38 26.48 53.38
C 24.23 48.68 23.83 46.93 23.57 40.78
C 23.30 34.11 23.43 33.32 25.70 28.60
C 27.02 25.82 28.11 23.34 28.11 23.08
C 28.11 22.82 28.61 22.00 29.22 21.24
C 29.82 20.49 31.85 17.94 33.72 15.58
C 38.23 9.90 42.76 7.73 51.23 7.20
C 57.86 6.79 65.48 8.44 71.73 11.64
C 74.51 13.06 78.42 18.09 83.29 26.49
C 86.09 31.34 86.22 31.86 86.19 38.57
C 86.17 44.89 85.90 46.18 83.43 51.60
C 80.13 58.86 77.42 62.66 72.53 66.88
L 70.49 68.64
L 66.56 64.11
L 62.62 59.58
L 65.97 55.16
C 71.62 47.70 73.82 38.54 71.79 30.78
C 70.71 26.59 68.62 21.82 67.87 21.82
C 67.53 21.82 67.02 21.09 66.74 20.21
C 66.02 17.95 60.07 15.58 55.15 15.58
C 49.42 15.58 44.64 18.13 42.27 22.45
C 39.41 27.67 37.48 33.57 37.48 37.08
C 37.48 43.43 42.14 53.73 46.61 57.27
C 48.24 58.56 52.25 62.42 55.53 65.84
C 58.81 69.27 62.59 73.15 63.93 74.46
C 65.27 75.77 66.37 77.22 66.37 77.68
C 66.37 78.14 67.16 79.04 68.12 79.68
C 69.09 80.31 71.98 83.77 74.54 87.36
C 77.11 90.96 79.49 94.10 79.84 94.34
C 81.03 95.21 85.65 105.62 86.62 109.67
C 87.83 114.72 86.68 120.28 83.40 125.30
C 82.19 127.15 81.20 128.95 81.20 129.33
C 81.20 129.69 80.15 130.99 78.86 132.20
C 77.57 133.42 76.52 134.72 76.52 135.09
C 76.52 135.68 68.98 143.43 68.49 143.35
C 68.40 143.33 66.65 141.78 64.61 139.91"/>
<path fill="#ffbf53" stroke="none" d="
M 213.12 146.69
C 208.68 141.65 203.21 135.61 200.97 133.25
C 198.74 130.89 193.97 125.88 190.39 122.12
C 186.81 118.36 181.77 112.96 179.19 110.11
C 176.62 107.28 173.10 103.51 171.39 101.75
C 167.19 97.45 156.92 86.05 149.91 77.92
C 143.89 70.93 142.47 69.35 137.67 64.21
C 136.03 62.45 133.63 59.77 132.35 58.25
C 131.06 56.72 129.16 54.48 128.12 53.25
C 127.08 52.04 125.16 48.76 123.84 45.97
C 121.80 41.66 121.46 40.04 121.52 35.06
C 121.63 24.56 127.78 14.95 136.16 12.19
C 143.03 9.92 148.90 9.76 154.57 11.67
C 160.73 13.75 164.17 17.26 166.00 23.31
C 167.93 29.70 166.47 34.91 161.26 40.25
C 157.72 43.88 156.90 44.33 152.99 44.81
C 146.67 45.58 143.30 43.99 141.21 39.26
C 139.82 36.13 139.72 35.19 140.47 32.65
C 141.44 29.42 145.31 26.06 147.23 26.79
C 149.23 27.56 149.44 29.60 147.67 31.24
C 145.52 33.24 145.52 36.91 147.66 39.05
C 150.82 42.20 157.28 39.73 160.06 34.31
C 165.47 23.71 155.32 12.70 142.60 15.36
C 134.81 16.99 128.25 23.58 126.41 31.61
C 125.66 34.87 125.72 36.29 126.79 39.93
C 127.49 42.34 128.94 45.35 130.01 46.62
C 131.08 47.89 131.96 49.24 131.96 49.61
C 131.96 49.99 132.92 51.22 134.10 52.33
C 137.17 55.23 140.04 58.42 148.75 68.57
C 152.98 73.50 157.60 78.76 159.00 80.26
C 160.42 81.76 163.60 85.25 166.09 88.01
C 171.74 94.29 174.87 97.63 180.56 103.46
C 183.03 105.99 185.05 108.22 185.05 108.41
C 185.05 108.61 188.59 112.43 192.91 116.91
C 197.24 121.39 205.01 129.79 210.18 135.58
C 215.34 141.37 220.38 146.85 221.36 147.76
C 222.36 148.67 223.71 150.46 224.37 151.74
C 225.54 153.99 225.51 154.10 223.63 154.96
C 222.55 155.45 221.57 155.84 221.43 155.84
C 221.31 155.84 217.56 151.72 213.12 146.69"/>
<path fill="#ff0000" stroke="none" d="
M 250.32 314.88
C 248.68 313.08 244.89 305.23 244.07 301.96
C 243.75 300.68 242.63 297.78 241.60 295.51
C 240.56 293.24 239.71 290.78 239.71 290.04
C 239.71 289.30 238.82 285.90 237.75 282.47
C 236.68 279.04 235.43 272.73 234.99 268.44
C 233.53 254.26 231.59 250.46 224.09 247.08
C 219.33 244.92 212.40 244.92 207.94 247.08
C 200.84 250.51 196.76 258.19 196.76 268.14
C 196.76 275.35 195.55 276.62 188.66 276.62
C 185.62 276.62 183.37 276.24 182.89 275.65
C 182.45 275.11 181.67 272.59 181.15 270.04
C 178.66 257.97 170.46 247.01 160.45 242.39
C 154.49 239.64 152.31 239.31 127.80 237.57
C 119.87 237.01 113.34 236.18 112.61 235.66
C 111.58 234.90 111.22 232.32 110.68 221.98
C 110.23 213.62 109.06 203.80 107.27 193.49
C 104.33 176.69 104.39 174.95 107.97 174.19
C 108.92 174.00 121.83 173.68 136.64 173.50
C 167.80 173.12 181.09 172.21 202.23 169.00
C 210.61 167.73 218.52 166.52 219.83 166.32
C 222.78 165.88 233.01 161.04 236.32 158.52
C 238.79 156.65 243.06 148.90 244.03 144.55
C 244.73 141.36 248.58 128.22 251.45 119.22
C 252.74 115.15 253.79 111.23 253.78 110.52
C 253.77 109.80 254.81 106.23 256.10 102.59
C 257.39 98.95 258.44 95.42 258.44 94.76
C 258.44 94.10 259.51 90.12 260.83 85.93
C 265.18 72.02 268.45 61.26 270.85 52.99
C 276.30 34.19 277.28 30.86 279.15 24.58
C 281.09 18.08 282.65 15.47 282.65 18.73
C 282.65 19.65 281.98 22.74 281.15 25.59
C 280.32 28.45 278.69 35.16 277.51 40.52
C 273.99 56.52 271.97 65.45 270.20 72.86
C 265.24 93.64 263.16 102.71 262.89 104.81
C 262.72 106.09 261.67 110.82 260.55 115.32
C 259.44 119.83 257.41 128.42 256.06 134.42
C 254.70 140.42 252.61 149.36 251.41 154.29
C 241.78 193.68 240.53 203.34 240.51 238.44
C 240.49 261.53 240.76 264.88 244.01 282.86
C 245.15 289.17 246.74 295.10 251.03 308.94
C 253.00 315.32 252.74 317.56 250.32 314.88"/>
<path fill="#0885ff" stroke="none" d="
M 3.90 596.10
C 2.37 594.58 2.34 593.51 2.34 548.18
C 2.34 502.85 2.37 501.79 3.90 500.26
C 5.46 498.71 6.50 498.70 244.00 498.70
C 481.50 498.70 482.54 498.71 484.10 500.26
C 485.63 501.79 485.66 502.85 485.66 548.18
C 485.66 593.51 485.63 594.58 484.10 596.10
C 482.54 597.65 481.50 597.66 244.00 597.66
C 6.50 597.66 5.46 597.65 3.90 596.10
M 42.94 570.78
L 42.94 552.47
L 24.60 552.47
L 6.25 552.47
L 6.25 570.78
L 6.25 589.09
L 24.60 589.09
L 42.94 589.09
L 42.94 570.78
M 91.35 570.78
L 91.35 552.47
L 71.44 552.47
L 51.53 552.47
L 51.53 570.78
L 51.53 589.09
L 71.44 589.09
L 91.35 589.09
L 91.35 570.78
M 141.32 570.78
L 141.32 552.47
L 120.63 552.47
L 99.94 552.47
L 99.94 570.78
L 99.94 589.09
L 120.63 589.09
L 141.32 589.09
L 141.32 570.78
M 190.52 570.78
L 190.52 552.47
L 170.21 552.47
L 149.91 552.47
L 149.91 570.78
L 149.91 589.09
L 170.21 589.09
L 190.52 589.09
L 190.52 570.78
M 240.49 570.78
L 240.49 552.47
L 219.80 552.47
L 199.10 552.47
L 199.10 570.78
L 199.10 589.09
L 219.80 589.09
L 240.49 589.09
L 240.49 570.78
M 288.90 570.78
L 288.90 552.47
L 268.99 552.47
L 249.08 552.47
L 249.08 570.78
L 249.08 589.09
L 268.99 589.09
L 288.90 589.09
L 288.90 570.78
M 338.09 570.78
L 338.09 552.47
L 317.79 552.47
L 297.48 552.47
L 297.48 570.78
L 297.48 589.09
L 317.79 589.09
L 338.09 589.09
L 338.09 570.78
M 388.06 570.78
L 388.06 552.47
L 367.37 552.47
L 346.68 552.47
L 346.68 570.78
L 346.68 589.09
L 367.37 589.09
L 388.06 589.09
L 388.06 570.78
M 436.47 570.78
L 436.47 552.47
L 416.56 552.47
L 396.65 552.47
L 396.65 570.78
L 396.65 589.09
L 416.56 589.09
L 436.47 589.09
L 436.47 570.78
M 481.75 570.78
L 481.75 552.47
L 463.40 552.47
L 445.06 552.47
L 445.06 570.78
L 445.06 589.09
L 463.40 589.09
L 481.75 589.09
L 481.75 570.78
M 42.94 525.58
L 42.94 507.27
L 24.60 507.27
L 6.25 507.27
L 6.25 525.58
L 6.25 543.90
L 24.60 543.90
L 42.94 543.90
L 42.94 525.58
M 91.35 525.58
L 91.35 507.27
L 71.44 507.27
L 51.53 507.27
L 51.53 525.58
L 51.53 543.90
L 71.44 543.90
L 91.35 543.90
L 91.35 525.58
M 141.32 525.58
L 141.32 507.27
L 120.63 507.27
L 99.94 507.27
L 99.94 525.58
L 99.94 543.90
L 120.63 543.90
L 141.32 543.90
L 141.32 525.58
M 190.52 525.58
L 190.52 507.27
L 170.21 507.27
L 149.91 507.27
L 149.91 525.58
L 149.91 543.90
L 170.21 543.90
L 190.52 543.90
L 190.52 525.58
M 240.49 525.58
L 240.49 507.27
L 219.80 507.27
L 199.10 507.27
L 199.10 525.58
L 199.10 543.90
L 219.80 543.90
L 240.49 543.90
L 240.49 525.58
M 288.90 525.58
L 288.90 507.27
L 268.99 507.27
L 249.08 507.27
L 249.08 525.58
L 249.08 543.90
L 268.99 543.90
L 288.90 543.90
L 288.90 525.58
M 338.09 525.58
L 338.09 507.27
L 317.79 507.27
L 297.48 507.27
L 297.48 525.58
L 297.48 543.90
L 317.79 543.90
L 338.09 543.90
L 338.09 525.58
M 388.06 525.58
L 388.06 507.27
L 367.37 507.27
L 346.68 507.27
L 346.68 525.58
L 346.68 543.90
L 367.37 543.90
L 388.06 543.90
L 388.06 525.58
M 436.47 525.58
L 436.47 507.27
L 416.56 507.27
L 396.65 507.27
L 396.65 525.58
L 396.65 543.90
L 416.56 543.90
L 436.47 543.90
L 436.47 525.58
M 481.75 525.58
L 481.75 507.27
L 463.40 507.27
L 445.06 507.27
L 445.06 525.58
L 445.06 543.90
L 463.40 543.90
L 481.75 543.90
L 481.75 525.58"/>
<path fill="#0885ff" stroke="none" d="
M 288.84 285.51
C 287.94 284.44 288.94 283.17 296.42 275.77
C 301.16 271.10 305.65 267.27 306.40 267.27
C 307.16 267.27 309.96 269.38 312.65 271.95
C 315.33 274.52 318.17 276.62 318.96 276.62
C 319.75 276.62 322.58 274.52 325.27 271.95
C 327.95 269.38 330.73 267.27 331.45 267.27
C 332.17 267.27 334.95 269.38 337.63 271.95
C 340.32 274.52 343.15 276.62 343.94 276.62
C 344.73 276.62 347.57 274.52 350.25 271.95
C 352.94 269.38 355.72 267.27 356.44 267.27
C 357.15 267.27 359.93 269.38 362.62 271.95
C 365.31 274.52 368.14 276.62 368.93 276.62
C 369.72 276.62 372.55 274.52 375.24 271.95
C 377.92 269.38 380.70 267.27 381.42 267.27
C 382.14 267.27 384.92 269.38 387.60 271.95
C 390.29 274.52 393.12 276.62 393.91 276.62
C 394.70 276.62 397.54 274.52 400.22 271.95
C 402.91 269.38 405.69 267.27 406.41 267.27
C 407.12 267.27 409.90 269.38 412.59 271.95
C 415.28 274.52 418.11 276.62 418.90 276.62
C 419.69 276.62 422.52 274.52 425.21 271.95
C 427.89 269.38 430.67 267.27 431.39 267.27
C 432.11 267.27 434.89 269.38 437.58 271.95
C 440.26 274.52 443.10 276.62 443.88 276.62
C 444.67 276.62 447.51 274.52 450.19 271.95
C 452.88 269.38 455.68 267.27 456.44 267.27
C 457.19 267.27 461.69 271.11 466.46 275.81
C 474.67 283.92 475.05 284.43 473.77 285.71
C 472.48 286.99 472.06 286.71 465.47 280.29
C 456.93 271.95 456.23 271.84 449.74 277.79
C 447.17 280.15 444.53 282.08 443.88 282.08
C 443.24 282.08 440.60 280.15 438.03 277.79
C 434.95 274.96 432.69 273.51 431.39 273.51
C 430.10 273.51 427.83 274.96 424.76 277.79
C 422.19 280.15 419.55 282.08 418.90 282.08
C 418.25 282.08 415.61 280.15 413.04 277.79
C 409.97 274.96 407.70 273.51 406.41 273.51
C 405.11 273.51 402.85 274.96 399.77 277.79
C 397.20 280.15 394.56 282.08 393.91 282.08
C 393.27 282.08 390.63 280.15 388.06 277.79
C 384.98 274.96 382.72 273.51 381.42 273.51
C 380.12 273.51 377.86 274.96 374.78 277.79
C 372.22 280.15 369.58 282.08 368.93 282.08
C 368.28 282.08 365.64 280.15 363.07 277.79
C 360.00 274.96 357.73 273.51 356.44 273.51
C 355.14 273.51 352.87 274.96 349.80 277.79
C 347.23 280.15 344.59 282.08 343.94 282.08
C 343.29 282.08 340.66 280.15 338.09 277.79
C 335.01 274.96 332.75 273.51 331.45 273.51
C 330.15 273.51 327.89 274.96 324.81 277.79
C 322.24 280.15 319.60 282.08 318.96 282.08
C 318.31 282.08 315.67 280.15 313.10 277.79
C 306.63 271.85 305.89 271.96 297.53 280.13
C 293.80 283.78 290.55 286.75 290.31 286.75
C 290.07 286.75 289.40 286.20 288.84 285.51"/>
<path fill="#0885ff" stroke="none" d="
M 288.84 189.67
C 287.94 188.59 288.94 187.32 296.42 179.93
C 301.16 175.25 305.65 171.43 306.40 171.43
C 307.16 171.43 309.96 173.53 312.65 176.10
C 315.33 178.68 318.17 180.78 318.96 180.78
C 319.75 180.78 322.58 178.68 325.27 176.10
C 327.95 173.53 330.73 171.43 331.45 171.43
C 332.17 171.43 334.95 173.53 337.63 176.10
C 340.32 178.68 343.15 180.78 343.94 180.78
C 344.73 180.78 347.57 178.68 350.25 176.10
C 352.94 173.53 355.72 171.43 356.44 171.43
C 357.15 171.43 359.93 173.53 362.62 176.10
C 365.31 178.68 368.14 180.78 368.93 180.78
C 369.72 180.78 372.55 178.68 375.24 176.10
C 377.92 173.53 380.70 171.43 381.42 171.43
C 382.14 171.43 384.92 173.53 387.60 176.10
C 390.29 178.68 393.12 180.78 393.91 180.78
C 394.70 180.78 397.54 178.68 400.22 176.10
C 402.91 173.53 405.69 171.43 406.41 171.43
C 407.12 171.43 409.90 173.53 412.59 176.10
C 415.28 178.68 418.11 180.78 418.90 180.78
C 419.69 180.78 422.52 178.68 425.21 176.10
C 427.89 173.53 430.67 171.43 431.39 171.43
C 432.11 171.43 434.89 173.53 437.58 176.10
C 440.26 178.68 443.10 180.78 443.88 180.78
C 444.67 180.78 447.51 178.68 450.19 176.10
C 452.88 173.53 455.68 171.43 456.44 171.43
C 457.19 171.43 461.69 175.27 466.46 179.97
C 474.67 188.08 475.05 188.59 473.77 189.86
C 472.48 191.15 472.06 190.87 465.47 184.44
C 456.93 176.10 456.23 175.99 449.74 181.95
C 447.17 184.31 444.53 186.23 443.88 186.23
C 443.24 186.23 440.60 184.31 438.03 181.95
C 434.95 179.12 432.69 177.66 431.39 177.66
C 430.10 177.66 427.83 179.12 424.76 181.95
C 422.19 184.31 419.55 186.23 418.90 186.23
C 418.25 186.23 415.61 184.31 413.04 181.95
C 409.97 179.12 407.70 177.66 406.41 177.66
C 405.11 177.66 402.85 179.12 399.77 181.95
C 397.20 184.31 394.56 186.23 393.91 186.23
C 393.27 186.23 390.63 184.31 388.06 181.95
C 384.98 179.12 382.72 177.66 381.42 177.66
C 380.12 177.66 377.86 179.12 374.78 181.95
C 372.22 184.31 369.58 186.23 368.93 186.23
C 368.28 186.23 365.64 184.31 363.07 181.95
C 360.00 179.12 357.73 177.66 356.44 177.66
C 355.14 177.66 352.87 179.12 349.80 181.95
C 347.23 184.31 344.59 186.23 343.94 186.23
C 343.29 186.23 340.66 184.31 338.09 181.95
C 335.01 179.12 332.75 177.66 331.45 177.66
C 330.15 177.66 327.89 179.12 324.81 181.95
C 322.24 184.31 319.60 186.23 318.96 186.23
C 318.31 186.23 315.67 184.31 313.10 181.95
C 306.63 176.01 305.89 176.12 297.53 184.29
C 293.80 187.93 290.55 190.91 290.31 190.91
C 290.07 190.91 289.40 190.36 288.84 189.67"/>
<path fill="#0885ff" stroke="none" d="
M 288.85 88.39
C 287.97 87.34 288.96 86.06 295.98 79.11
C 300.46 74.68 304.92 70.82 305.89 70.54
C 307.32 70.11 308.57 70.90 312.59 74.75
C 315.30 77.35 318.17 79.48 318.96 79.48
C 319.75 79.48 322.58 77.38 325.27 74.81
C 327.95 72.23 330.73 70.13 331.45 70.13
C 332.17 70.13 334.95 72.23 337.63 74.81
C 340.32 77.38 343.15 79.48 343.94 79.48
C 344.73 79.48 347.57 77.38 350.25 74.81
C 352.94 72.23 355.72 70.13 356.44 70.13
C 357.15 70.13 359.93 72.23 362.62 74.81
C 365.31 77.38 368.14 79.48 368.93 79.48
C 369.72 79.48 372.55 77.38 375.24 74.81
C 377.92 72.23 380.70 70.13 381.42 70.13
C 382.14 70.13 384.92 72.23 387.60 74.81
C 390.29 77.38 393.12 79.48 393.91 79.48
C 394.70 79.48 397.54 77.38 400.22 74.81
C 402.91 72.23 405.69 70.13 406.41 70.13
C 407.12 70.13 409.90 72.23 412.59 74.81
C 415.28 77.38 418.11 79.48 418.90 79.48
C 419.69 79.48 422.52 77.38 425.21 74.81
C 427.89 72.23 430.67 70.13 431.39 70.13
C 432.11 70.13 434.89 72.23 437.58 74.81
C 440.26 77.38 443.10 79.48 443.88 79.48
C 444.67 79.48 447.51 77.38 450.19 74.81
C 452.88 72.23 455.68 70.13 456.44 70.13
C 457.19 70.13 461.69 73.97 466.46 78.67
C 474.67 86.78 475.05 87.29 473.77 88.57
C 472.48 89.85 472.06 89.57 465.47 83.14
C 456.93 74.81 456.23 74.70 449.74 80.65
C 447.17 83.00 444.53 84.94 443.88 84.94
C 443.24 84.94 440.60 83.01 438.03 80.65
C 434.95 77.82 432.69 76.36 431.39 76.36
C 430.10 76.36 427.83 77.82 424.76 80.65
C 422.19 83.01 419.55 84.94 418.90 84.94
C 418.25 84.94 415.61 83.01 413.04 80.65
C 407.02 75.12 405.79 75.12 399.77 80.65
C 397.20 83.01 394.56 84.94 393.91 84.94
C 393.27 84.94 390.63 83.01 388.06 80.65
C 384.98 77.82 382.72 76.36 381.42 76.36
C 380.12 76.36 377.86 77.82 374.78 80.65
C 372.22 83.01 369.58 84.94 368.93 84.94
C 368.28 84.94 365.64 83.01 363.07 80.65
C 360.00 77.82 357.73 76.36 356.44 76.36
C 355.14 76.36 352.87 77.82 349.80 80.65
C 347.23 83.01 344.59 84.94 343.94 84.94
C 343.29 84.94 340.66 83.01 338.09 80.65
C 335.01 77.82 332.75 76.36 331.45 76.36
C 330.15 76.36 327.89 77.82 324.81 80.65
C 322.24 83.01 319.60 84.94 318.96 84.94
C 318.31 84.94 315.67 83.01 313.10 80.65
C 306.63 74.71 305.89 74.82 297.53 82.99
C 293.80 86.63 290.55 89.61 290.31 89.61
C 290.07 89.61 289.41 89.06 288.85 88.39"/>
<path fill="#ffa153" stroke="none" d="
M 44.01 402.48
C 41.39 401.91 37.24 400.50 34.79 399.34
C 29.75 396.96 20.44 389.82 16.44 385.27
L 13.75 382.21
L 18.70 381.97
C 23.05 381.76 23.89 381.97 25.68 383.64
C 32.30 389.83 42.00 394.59 49.97 395.57
C 56.56 396.39 69.64 391.16 76.83 384.84
L 80.27 381.82
L 87.96 381.85
L 95.65 381.88
L 92.52 384.65
C 88.12 388.54 76.41 395.66 69.49 398.64
C 64.04 401.00 53.41 403.71 50.20 403.57
C 49.43 403.54 46.64 403.04 44.01 402.48"/>
<path fill="#ffa153" stroke="none" d="
M 7.03 359.42
C 7.03 355.74 11.35 340.97 14.04 335.40
C 18.70 325.78 24.83 321.00 32.40 321.07
C 41.27 321.16 65.67 337.21 84.72 355.48
L 90.18 360.73
L 84.33 360.76
L 78.47 360.77
L 69.88 352.90
C 50.92 335.52 45.75 331.72 37.70 329.29
L 32.97 327.86
L 28.66 329.82
C 22.15 332.81 19.78 337.54 16.77 353.57
L 15.42 360.78
L 11.23 360.78
C 7.75 360.78 7.03 360.55 7.03 359.42"/>
<path fill="#c55436" stroke="none" d="
M 241.27 465.98
L 241.27 435.61
L 244.78 437.31
L 248.29 439.01
L 248.29 467.69
L 248.29 496.36
L 244.78 496.36
L 241.27 496.36
L 241.27 465.98"/>
<path fill="#c55436" stroke="none" d="
M 244.59 419.50
L 241.27 417.51
L 241.27 399.66
L 241.27 381.82
L 244.78 381.82
L 248.29 381.82
L 248.29 401.69
C 248.29 412.61 248.21 421.54 248.10 421.53
C 247.99 421.51 246.41 420.60 244.59 419.50"/>
<path fill="#c55436" stroke="none" d="
M 12.49 374.81
C 10.67 372.98 10.48 370.27 12.04 368.14
C 13.13 366.65 16.51 366.62 244.44 366.43
C 415.17 366.28 476.01 366.46 476.79 367.11
C 478.10 368.19 478.19 374.16 476.91 375.43
C 476.19 376.15 423.61 376.36 245.02 376.36
C 15.09 376.36 14.05 376.36 12.49 374.81"/>
<path fill="#ef907a" stroke="none" d="
M 272.12 438.62
C 248.09 435.12 221.93 421.89 202.56 403.43
C 195.11 396.34 185.05 384.34 185.05 382.55
C 185.05 382.15 186.97 381.82 189.32 381.82
L 193.60 381.82
L 198.72 388.78
C 214.68 410.48 245.57 429.55 274.00 435.24
C 278.65 436.18 282.88 436.45 288.44 436.19
C 295.59 435.86 296.08 435.93 293.78 436.88
C 291.07 438.00 281.99 439.50 278.75 439.37
C 277.67 439.32 274.69 438.98 272.12 438.62"/>
<path fill="#ef907a" stroke="none" d="
M 302.07 407.66
C 299.08 402.34 293.42 395.07 286.77 388.02
L 280.92 381.82
L 285.30 381.82
C 289.51 381.82 289.75 381.94 291.97 385.00
C 296.13 390.73 305.39 410.04 304.43 410.99
C 304.25 411.16 303.20 409.67 302.07 407.66"/>
<path fill="#c57a36" stroke="none" d="
M 8.59 570.78
L 8.59 554.81
L 24.60 554.81
L 40.60 554.81
L 40.60 570.78
L 40.60 586.75
L 24.60 586.75
L 8.59 586.75
L 8.59 570.78"/>
<path fill="#c57a36" stroke="none" d="
M 53.88 570.78
L 53.88 554.81
L 71.44 554.81
L 89.01 554.81
L 89.01 570.78
L 89.01 586.75
L 71.44 586.75
L 53.88 586.75
L 53.88 570.78"/>
<path fill="#c57a36" stroke="none" d="
M 102.28 570.78
L 102.28 554.81
L 120.63 554.81
L 138.98 554.81
L 138.98 570.78
L 138.98 586.75
L 120.63 586.75
L 102.28 586.75
L 102.28 570.78"/>
<path fill="#c57a36" stroke="none" d="
M 152.26 570.78
L 152.26 554.81
L 170.21 554.81
L 188.17 554.81
L 188.17 570.78
L 188.17 586.75
L 170.21 586.75
L 152.26 586.75
L 152.26 570.78"/>
<path fill="#c57a36" stroke="none" d="
M 201.45 570.78
L 201.45 554.81
L 219.80 554.81
L 238.14 554.81
L 238.14 570.78
L 238.14 586.75
L 219.80 586.75
L 201.45 586.75
L 201.45 570.78"/>
<path fill="#c57a36" stroke="none" d="
M 251.42 570.78
L 251.42 554.81
L 268.99 554.81
L 286.55 554.81
L 286.55 570.78
L 286.55 586.75
L 268.99 586.75
L 251.42 586.75
L 251.42 570.78"/>
<path fill="#c57a36" stroke="none" d="
M 299.83 570.78
L 299.83 554.81
L 317.79 554.81
L 335.74 554.81
L 335.74 570.78
L 335.74 586.75
L 317.79 586.75
L 299.83 586.75
L 299.83 570.78"/>
<path fill="#c57a36" stroke="none" d="
M 349.02 570.78
L 349.02 554.81
L 367.37 554.81
L 385.72 554.81
L 385.72 570.78
L 385.72 586.75
L 367.37 586.75
L 349.02 586.75
L 349.02 570.78"/>
<path fill="#c57a36" stroke="none" d="
M 398.99 570.78
L 398.99 554.81
L 416.56 554.81
L 434.12 554.81
L 434.12 570.78
L 434.12 586.75
L 416.56 586.75
L 398.99 586.75
L 398.99 570.78"/>
<path fill="#c57a36" stroke="none" d="
M 447.40 570.78
L 447.40 554.81
L 463.40 554.81
L 479.41 554.81
L 479.41 570.78
L 479.41 586.75
L 463.40 586.75
L 447.40 586.75
L 447.40 570.78"/>
<path fill="#c57a36" stroke="none" d="
M 8.77 525.78
L 8.98 510.00
L 24.79 509.79
L 40.60 509.58
L 40.60 525.57
L 40.60 541.56
L 24.58 541.56
L 8.56 541.56
L 8.77 525.78"/>
<path fill="#c57a36" stroke="none" d="
M 53.88 525.58
L 53.88 509.61
L 71.44 509.61
L 89.01 509.61
L 89.01 525.58
L 89.01 541.56
L 71.44 541.56
L 53.88 541.56
L 53.88 525.58"/>
<path fill="#c57a36" stroke="none" d="
M 102.28 525.58
L 102.28 509.61
L 120.63 509.61
L 138.98 509.61
L 138.98 525.58
L 138.98 541.56
L 120.63 541.56
L 102.28 541.56
L 102.28 525.58"/>
<path fill="#c57a36" stroke="none" d="
M 152.26 525.58
L 152.26 509.61
L 170.21 509.61
L 188.17 509.61
L 188.17 525.58
L 188.17 541.56
L 170.21 541.56
L 152.26 541.56
L 152.26 525.58"/>
<path fill="#c57a36" stroke="none" d="
M 201.45 525.58
L 201.45 509.61
L 219.80 509.61
L 238.14 509.61
L 238.14 525.58
L 238.14 541.56
L 219.80 541.56
L 201.45 541.56
L 201.45 525.58"/>
<path fill="#c57a36" stroke="none" d="
M 251.42 525.58
L 251.42 509.61
L 268.99 509.61
L 286.55 509.61
L 286.55 525.58
L 286.55 541.56
L 268.99 541.56
L 251.42 541.56
L 251.42 525.58"/>
<path fill="#c57a36" stroke="none" d="
M 299.83 525.58
L 299.83 509.61
L 317.79 509.61
L 335.74 509.61
L 335.74 525.58
L 335.74 541.56
L 317.79 541.56
L 299.83 541.56
L 299.83 525.58"/>
<path fill="#c57a36" stroke="none" d="
M 349.02 525.58
L 349.02 509.61
L 367.37 509.61
L 385.72 509.61
L 385.72 525.58
L 385.72 541.56
L 367.37 541.56
L 349.02 541.56
L 349.02 525.58"/>
<path fill="#c57a36" stroke="none" d="
M 398.99 525.58
L 398.99 509.61
L 416.56 509.61
L 434.12 509.61
L 434.12 525.58
L 434.12 541.56
L 416.56 541.56
L 398.99 541.56
L 398.99 525.58"/>
<path fill="#c57a36" stroke="none" d="
M 447.40 525.58
L 447.40 509.61
L 463.40 509.61
L 479.41 509.61
L 479.41 525.58
L 479.41 541.56
L 463.40 541.56
L 447.40 541.56
L 447.40 525.58"/>
</g>
</svg>
