<?xml version="1.0" encoding="UTF-8" standalone="no"?>
<!DOCTYPE svg PUBLIC "-//W3C//DTD SVG 1.1//EN"
"http://www.w3.org/Graphics/SVG/1.1/DTD/svg11.dtd">
<svg width="590px" height="600px"
xmlns="http://www.w3.org/2000/svg" version="1.1">
<g transform="translate(0000, 0000) scale(1.0000, 1.0000)">
<path fill="#000000" stroke="none" d="
M 1.89 598.11
C 0.04 596.26 0.00 594.97 0.00 537.26
C 0.00 479.56 0.04 478.26 1.89 476.42
C 3.76 474.55 5.03 474.53 144.44 474.53
L 285.11 474.53
L 284.86 436.24
L 284.62 397.93
L 274.52 392.12
C 268.97 388.93 260.90 383.78 256.59 380.68
C 245.76 372.90 227.27 354.16 220.47 344.10
L 214.89 335.85
L 169.55 335.85
L 124.21 335.85
L 120.87 339.08
C 115.97 343.81 99.81 354.32 90.90 358.58
C 86.63 360.61 78.56 363.40 72.96 364.76
C 63.62 367.03 62.24 367.15 56.23 366.14
C 39.58 363.35 30.62 358.18 15.35 342.54
C 3.64 330.55 1.17 326.05 2.20 318.53
C 5.79 292.07 11.62 274.57 19.81 265.69
C 24.31 260.81 31.64 257.54 38.03 257.56
C 43.98 257.58 56.58 262.36 65.70 268.06
C 70.16 270.84 78.93 277.20 85.21 282.19
L 96.61 291.26
L 98.57 287.38
C 101.03 282.52 106.72 279.50 116.17 278.04
C 121.63 277.19 125.87 277.32 138.83 278.73
C 156.35 280.62 159.72 280.48 181.25 276.89
C 188.77 275.63 198.76 274.16 203.43 273.62
C 208.10 273.08 213.79 272.14 216.06 271.54
C 223.93 269.45 228.60 262.14 231.80 246.94
C 233.97 236.64 233.64 234.07 228.99 224.82
C 223.71 214.35 215.52 189.78 210.95 170.75
C 204.33 143.17 204.06 142.62 194.90 138.15
C 186.25 133.92 179.17 134.69 151.04 142.91
C 137.42 146.88 133.29 147.53 126.80 146.72
C 119.98 145.87 118.00 143.88 118.00 137.89
C 118.00 127.75 128.12 114.32 143.75 103.68
C 148.54 100.42 156.70 93.65 161.90 88.64
C 171.53 79.33 175.10 76.97 183.84 74.11
C 186.57 73.22 188.80 72.20 188.80 71.83
C 188.80 70.25 184.90 65.71 173.67 54.25
C 167.07 47.50 160.97 40.62 160.13 38.96
C 157.04 32.90 158.57 27.32 164.91 21.60
C 172.59 14.66 179.43 14.62 184.96 21.49
C 190.16 27.94 210.04 55.12 213.22 60.14
C 214.96 62.87 216.76 65.09 217.23 65.09
C 217.71 65.09 219.47 63.12 221.15 60.72
C 222.83 58.30 230.17 48.01 237.46 37.84
C 252.75 16.53 254.78 14.76 261.56 17.01
C 267.27 18.89 273.87 24.41 276.62 29.58
L 278.95 33.96
L 276.64 38.31
C 275.27 40.89 270.86 45.77 265.78 50.33
C 251.89 62.81 246.36 68.69 244.42 73.07
L 242.60 77.18
L 245.86 84.92
C 250.84 96.72 256.56 106.19 288.10 154.89
C 299.70 172.79 312.45 179.20 336.54 179.22
C 349.01 179.23 368.70 177.09 413.47 170.87
C 431.90 168.31 450.38 165.93 454.54 165.59
C 464.42 164.78 480.26 166.37 492.57 169.39
L 502.43 171.81
L 507.48 169.34
C 520.47 162.99 529.03 145.17 536.65 108.55
C 539.51 94.80 546.21 51.74 547.07 41.51
C 548.89 19.88 552.92 9.38 560.48 6.59
C 562.68 5.78 565.02 4.42 565.67 3.55
C 568.53 -0.22 576.98 -1.12 580.85 1.92
C 582.19 2.97 584.80 6.85 586.65 10.53
C 592.44 22.10 591.87 25.99 578.25 68.23
C 555.52 138.72 538.48 175.10 522.98 186.24
C 516.31 191.02 515.81 192.85 518.62 202.24
C 519.89 206.45 522.03 215.21 523.39 221.70
C 527.98 243.54 531.80 253.96 541.39 270.75
C 544.21 275.69 547.25 282.53 548.14 285.97
C 549.61 291.56 549.64 292.66 548.43 296.33
C 546.76 301.39 541.18 306.96 535.91 308.83
C 532.21 310.13 533.60 310.24 556.72 310.30
C 587.00 310.40 585.28 309.62 585.28 323.11
C 585.28 337.50 600.23 335.85 470.06 335.85
L 358.62 335.85
L 361.11 339.86
C 365.70 347.24 372.79 362.67 374.43 368.87
C 379.29 387.19 373.87 401.61 359.79 407.87
C 353.15 410.80 341.15 412.65 333.70 411.89
C 328.44 411.34 313.79 408.45 308.92 407.01
L 306.80 406.39
L 306.80 440.45
L 306.80 474.53
L 446.51 474.53
C 584.97 474.53 586.24 474.55 588.11 476.42
C 589.96 478.26 590.00 479.56 590.00 537.26
C 590.00 594.97 589.96 596.26 588.11 598.11
C 586.23 599.99 584.97 600.00 295.00 600.00
C 5.03 600.00 3.77 599.99 1.89 598.11
M 584.34 594.34
C 586.18 592.50 586.22 591.20 586.22 537.26
C 586.22 483.33 586.18 482.03 584.34 480.19
C 582.46 478.31 581.19 478.30 295.00 478.30
C 8.81 478.30 7.54 478.31 5.66 480.19
C 3.82 482.03 3.78 483.33 3.78 537.26
C 3.78 591.20 3.82 592.50 5.66 594.34
C 7.54 596.22 8.81 596.23 295.00 596.23
C 581.19 596.23 582.46 596.22 584.34 594.34
M 300.19 439.81
L 300.19 405.09
L 295.94 403.03
L 291.70 400.97
L 291.70 437.75
L 291.70 474.53
L 295.94 474.53
L 300.19 474.53
L 300.19 439.81
M 345.74 404.70
C 349.24 404.20 353.49 403.21 355.18 402.51
C 357.96 401.36 357.37 401.28 348.73 401.68
C 314.44 403.27 263.97 376.58 240.26 344.28
L 234.06 335.85
L 228.36 335.85
L 222.66 335.85
L 226.71 341.75
C 228.94 344.99 236.08 352.95 242.59 359.45
C 259.09 375.94 275.56 386.91 296.94 395.59
C 307.57 399.92 319.11 403.17 329.00 404.61
C 336.81 405.75 338.46 405.75 345.74 404.70
M 358.41 393.45
C 360.57 392.47 362.80 390.81 363.36 389.76
C 367.67 381.74 358.85 365.37 339.52 345.52
L 330.11 335.85
L 318.46 335.85
L 306.80 335.85
L 306.80 360.89
L 306.80 385.92
L 311.08 387.75
C 315.16 389.50 330.17 393.79 335.12 394.63
C 336.42 394.85 341.30 395.08 345.98 395.13
C 352.47 395.22 355.40 394.82 358.41 393.45
M 300.19 359.91
L 300.19 335.85
L 295.94 335.85
L 291.70 335.85
L 291.70 357.45
L 291.70 379.06
L 295.71 381.47
C 297.92 382.80 299.82 383.91 299.96 383.92
C 300.09 383.94 300.19 373.13 300.19 359.91
M 284.78 336.16
C 284.58 335.97 274.98 335.92 263.44 336.07
L 242.47 336.32
L 247.12 342.45
C 253.51 350.87 265.03 361.63 275.70 369.17
L 284.62 375.48
L 284.87 356.00
C 285.01 345.28 284.97 336.36 284.78 336.16
M 366.75 366.29
C 364.34 359.81 356.26 344.20 353.00 339.70
C 350.31 335.99 350.03 335.85 344.93 335.85
L 339.64 335.85
L 346.71 343.36
C 354.76 351.90 361.59 360.69 365.21 367.14
C 368.28 372.61 368.97 372.24 366.75 366.29
M 69.66 360.77
C 73.66 359.95 80.13 357.91 84.02 356.22
C 92.38 352.60 106.54 343.98 111.86 339.27
L 115.64 335.92
L 106.34 335.89
L 97.05 335.85
L 92.89 339.51
C 84.20 347.16 68.38 353.49 60.42 352.50
C 50.78 351.31 39.05 345.55 31.05 338.06
C 28.89 336.03 27.87 335.78 22.61 336.04
L 16.62 336.32
L 19.87 340.03
C 24.71 345.54 35.97 354.18 42.06 357.07
C 46.96 359.38 56.50 362.00 60.69 362.19
C 61.62 362.23 65.66 361.59 69.66 360.77
M 76.92 343.46
C 81.08 341.37 85.55 338.81 86.85 337.77
L 89.21 335.89
L 63.43 335.87
C 48.35 335.86 37.86 336.20 38.18 336.70
C 38.47 337.17 41.14 339.18 44.13 341.16
C 56.34 349.28 64.23 349.83 76.92 343.46
M 576.60 328.11
C 578.06 326.65 578.06 319.58 576.60 318.11
C 575.72 317.24 512.15 316.98 296.23 316.98
C 18.25 316.98 16.98 316.99 15.10 318.87
C 14.07 319.91 13.22 321.81 13.22 323.11
C 13.22 324.42 14.07 326.32 15.10 327.36
C 16.98 329.24 18.25 329.25 296.23 329.25
C 512.15 329.25 575.72 328.99 576.60 328.11
M 20.28 301.65
C 23.91 282.24 26.78 276.51 34.65 272.90
L 39.86 270.52
L 45.58 272.25
C 55.31 275.20 61.57 279.79 84.49 300.84
L 94.87 310.37
L 101.95 310.35
L 109.03 310.32
L 102.42 303.96
C 78.45 280.92 49.82 262.35 38.23 262.32
C 26.12 262.28 16.32 274.82 10.86 297.34
C 7.59 310.83 7.50 310.38 13.57 310.38
L 18.64 310.38
L 20.28 301.65
M 78.35 302.62
C 54.92 280.19 43.88 273.69 36.06 277.74
C 31.14 280.27 26.63 289.77 25.04 300.94
C 24.71 303.28 24.22 306.36 23.95 307.78
L 23.45 310.38
L 54.91 310.34
L 86.38 310.30
L 78.35 302.62
M 219.83 309.94
C 218.79 308.91 200.91 306.64 185.04 305.53
C 168.15 304.36 167.66 304.38 156.85 306.62
C 145.07 309.08 138.00 309.35 123.47 307.92
C 114.71 307.06 114.38 307.09 115.83 308.70
C 117.25 310.27 120.66 310.38 168.81 310.38
C 197.11 310.38 220.07 310.18 219.83 309.94
M 495.13 309.36
C 490.64 308.60 468.21 306.45 451.58 305.19
C 445.78 304.75 441.43 305.08 433.83 306.55
C 421.91 308.85 417.61 308.94 410.64 307.08
C 407.75 306.30 401.34 305.68 396.20 305.67
C 386.40 305.66 382.31 304.44 380.46 301.00
C 377.66 295.76 381.26 287.10 387.84 283.25
C 392.01 280.78 392.84 280.66 404.50 280.66
C 411.25 280.66 421.30 281.21 426.82 281.87
C 437.29 283.13 438.93 283.05 471.02 279.69
C 479.04 278.86 486.01 277.92 486.49 277.63
C 487.64 276.92 482.83 274.02 466.81 265.78
C 455.59 260.02 452.54 257.95 446.70 252.14
L 439.82 245.28
L 420.27 251.44
C 374.65 265.83 353.02 269.81 320.32 269.81
C 304.87 269.81 293.74 268.68 286.98 266.43
L 282.73 265.01
L 280.08 268.12
C 278.61 269.83 273.85 276.53 269.49 283.02
C 260.58 296.28 255.09 302.12 246.91 307.02
L 241.31 310.38
L 370.58 310.26
C 444.33 310.21 497.82 309.81 495.13 309.36
M 240.89 300.71
C 248.88 296.54 254.04 291.09 264.08 276.27
C 268.79 269.35 274.04 262.13 275.79 260.25
C 279.52 256.19 296.00 242.30 298.96 240.72
C 301.83 239.18 304.86 239.36 305.54 241.09
C 306.55 243.73 304.19 246.96 296.88 252.95
C 288.62 259.74 288.65 259.82 300.04 261.85
C 315.92 264.68 346.63 262.93 368.99 257.92
C 385.20 254.28 434.18 239.85 435.99 238.17
C 436.18 238.00 435.45 235.18 434.39 231.90
C 429.68 217.42 429.74 209.87 434.54 210.56
C 436.29 210.80 436.90 212.09 438.63 219.20
C 443.66 239.92 451.37 248.71 475.53 261.22
C 491.76 269.62 501.17 276.62 500.07 279.49
C 498.79 282.80 493.58 284.14 473.50 286.34
C 445.42 289.41 437.04 289.81 425.74 288.66
C 420.30 288.11 412.01 287.42 407.34 287.13
C 399.30 286.63 398.57 286.75 393.72 289.30
C 390.91 290.78 388.43 292.53 388.21 293.18
C 387.99 293.83 389.94 293.05 392.53 291.43
C 395.13 289.82 398.03 288.66 398.97 288.84
C 401.96 289.42 401.36 291.89 397.67 294.30
C 394.93 296.09 394.50 296.70 395.79 296.97
C 396.71 297.16 398.76 296.22 400.34 294.89
C 401.94 293.55 404.06 292.45 405.08 292.45
C 407.56 292.45 408.38 294.97 406.55 297.00
C 405.16 298.54 405.46 298.73 411.39 299.96
C 419.66 301.68 421.61 301.65 432.72 299.66
C 439.68 298.41 444.48 298.12 451.60 298.56
C 468.13 299.56 484.31 300.94 497.39 302.51
C 513.80 304.46 526.48 303.91 532.66 300.97
C 537.19 298.82 541.86 294.28 541.86 292.03
C 541.86 289.43 539.08 283.17 534.50 275.42
C 525.85 260.78 521.31 247.77 515.92 222.09
C 514.61 215.83 512.47 207.58 511.18 203.77
C 507.08 191.74 508.33 186.47 516.77 180.24
C 519.69 178.08 524.01 173.91 526.37 170.94
C 531.59 164.42 545.41 136.64 552.77 117.92
C 562.10 94.20 583.39 28.39 583.39 23.29
C 583.39 20.42 581.29 25.43 576.83 38.91
C 574.12 47.07 571.15 54.70 570.21 55.85
C 568.70 57.72 568.32 57.80 566.87 56.60
C 564.40 54.55 565.47 48.87 572.11 28.72
C 577.92 11.09 577.92 11.09 576.03 9.21
C 572.15 5.33 570.17 9.63 567.44 27.83
C 563.97 50.99 563.45 53.65 562.08 54.78
C 561.05 55.63 560.41 55.62 559.32 54.72
C 557.38 53.10 557.51 47.15 559.84 30.55
C 560.91 22.96 561.58 16.56 561.32 16.31
C 560.57 15.56 557.07 23.13 556.03 27.80
C 555.48 30.22 554.42 38.00 553.67 45.10
C 552.91 52.21 550.81 67.68 548.99 79.48
C 539.17 143.29 529.84 167.73 512.12 176.07
C 506.01 178.93 500.51 178.92 488.39 175.98
C 475.62 172.90 463.35 171.44 456.42 172.20
C 453.31 172.54 435.89 174.87 417.72 177.38
C 360.81 185.24 359.86 185.33 337.48 185.36
C 315.07 185.38 311.08 184.75 300.85 179.58
C 291.24 174.71 289.33 172.29 264.93 134.34
C 249.02 109.58 241.63 96.36 237.86 85.93
C 234.19 75.75 232.88 73.76 228.77 72.05
C 225.84 70.82 224.99 70.83 221.52 72.10
C 219.36 72.89 213.14 74.39 207.68 75.43
C 195.81 77.70 181.65 82.72 176.76 86.40
C 174.82 87.86 170.03 92.29 166.14 96.26
C 162.25 100.23 154.47 106.57 148.85 110.36
C 143.23 114.15 137.07 119.11 135.16 121.39
C 130.60 126.80 124.32 137.17 125.38 137.52
C 125.84 137.67 128.33 136.38 130.90 134.64
C 136.81 130.67 152.87 124.25 155.86 124.68
C 157.51 124.92 158.20 125.69 158.41 127.54
C 158.74 130.42 156.98 131.62 148.21 134.42
C 143.30 135.99 140.08 137.74 142.12 137.74
C 142.61 137.74 147.91 136.23 153.87 134.40
C 178.66 126.77 192.67 126.64 204.13 133.91
C 209.74 137.45 211.55 141.08 214.63 154.81
C 219.89 178.34 233.17 219.34 235.53 219.34
C 236.05 219.34 238.07 214.67 240.01 208.96
C 245.94 191.57 246.39 190.57 248.27 190.57
C 251.16 190.57 252.99 191.62 252.99 193.29
C 252.99 194.16 250.46 202.44 247.36 211.70
C 244.20 221.14 241.27 231.90 240.67 236.20
C 235.88 270.98 231.19 277.85 210.98 279.76
C 207.35 280.10 196.94 281.62 187.86 283.14
C 165.19 286.92 152.82 287.47 136.28 285.42
C 123.92 283.89 122.61 283.89 116.98 285.32
C 111.23 286.79 106.04 289.30 106.92 290.18
C 107.14 290.41 109.73 289.50 112.66 288.15
C 118.51 285.48 122.06 285.42 122.55 287.99
C 122.79 289.24 121.30 290.39 116.61 292.58
C 113.17 294.19 110.55 295.71 110.80 295.95
C 111.04 296.20 113.82 295.25 116.95 293.84
C 123.04 291.10 125.55 291.24 125.55 294.29
C 125.55 295.57 124.23 296.89 121.54 298.30
L 117.53 300.42
L 126.89 301.11
C 132.04 301.49 136.85 302.04 137.58 302.31
C 138.31 302.59 144.04 301.76 150.29 300.47
C 157.54 298.96 164.77 298.11 170.22 298.11
C 182.72 298.11 203.99 299.93 214.29 301.89
C 228.53 304.58 233.92 304.35 240.89 300.71
M 237.92 67.69
C 238.61 65.90 245.64 58.23 254.79 49.25
L 270.46 33.89
L 265.11 28.74
C 262.17 25.91 259.35 23.58 258.83 23.58
C 257.75 23.58 229.16 63.09 229.01 64.77
C 228.93 65.75 234.62 70.47 236.12 70.67
C 236.44 70.72 237.26 69.38 237.92 67.69
M 206.02 67.76
C 207.54 66.99 207.48 66.63 205.28 63.14
C 200.35 55.33 178.19 26.36 176.42 25.42
C 175.00 24.65 173.97 24.88 171.80 26.42
C 168.97 28.43 166.14 31.86 166.14 33.27
C 166.14 33.70 170.93 39.02 176.78 45.09
C 182.64 51.16 190.12 59.21 193.43 62.96
C 199.72 70.11 200.70 70.48 206.02 67.76"/>
<path fill="#000000" stroke="none" d="
M 6.61 564.62
L 6.61 541.51
L 29.74 541.51
L 52.86 541.51
L 52.86 564.62
L 52.86 587.74
L 29.74 587.74
L 6.61 587.74
L 6.61 564.62
M 49.09 564.62
L 49.09 545.28
L 29.74 545.28
L 10.38 545.28
L 10.38 564.62
L 10.38 583.96
L 29.74 583.96
L 49.09 583.96
L 49.09 564.62"/>
<path fill="#000000" stroke="none" d="
M 61.36 564.62
L 61.36 541.51
L 86.38 541.51
L 111.39 541.51
L 111.39 564.62
L 111.39 587.74
L 86.38 587.74
L 61.36 587.74
L 61.36 564.62
M 107.62 564.62
L 107.62 545.28
L 86.38 545.28
L 65.14 545.28
L 65.14 564.62
L 65.14 583.96
L 86.38 583.96
L 107.62 583.96
L 107.62 564.62"/>
<path fill="#000000" stroke="none" d="
M 119.89 564.62
L 119.89 541.51
L 145.85 541.51
L 171.81 541.51
L 171.81 564.62
L 171.81 587.74
L 145.85 587.74
L 119.89 587.74
L 119.89 564.62
M 168.03 564.62
L 168.03 545.28
L 145.85 545.28
L 123.66 545.28
L 123.66 564.62
L 123.66 583.96
L 145.85 583.96
L 168.03 583.96
L 168.03 564.62"/>
<path fill="#000000" stroke="none" d="
M 180.30 564.62
L 180.30 541.51
L 205.79 541.51
L 231.28 541.51
L 231.28 564.62
L 231.28 587.74
L 205.79 587.74
L 180.30 587.74
L 180.30 564.62
M 227.50 564.62
L 227.50 545.28
L 205.79 545.28
L 184.08 545.28
L 184.08 564.62
L 184.08 583.96
L 205.79 583.96
L 227.50 583.96
L 227.50 564.62"/>
<path fill="#000000" stroke="none" d="
M 239.78 564.62
L 239.78 541.51
L 265.74 541.51
L 291.70 541.51
L 291.70 564.62
L 291.70 587.74
L 265.74 587.74
L 239.78 587.74
L 239.78 564.62
M 287.92 564.62
L 287.92 545.28
L 265.74 545.28
L 243.55 545.28
L 243.55 564.62
L 243.55 583.96
L 265.74 583.96
L 287.92 583.96
L 287.92 564.62"/>
<path fill="#000000" stroke="none" d="
M 300.19 564.62
L 300.19 541.51
L 325.21 541.51
L 350.22 541.51
L 350.22 564.62
L 350.22 587.74
L 325.21 587.74
L 300.19 587.74
L 300.19 564.62
M 346.45 564.62
L 346.45 545.28
L 325.21 545.28
L 303.97 545.28
L 303.97 564.62
L 303.97 583.96
L 325.21 583.96
L 346.45 583.96
L 346.45 564.62"/>
<path fill="#000000" stroke="none" d="
M 358.72 564.62
L 358.72 541.51
L 384.21 541.51
L 409.70 541.51
L 409.70 564.62
L 409.70 587.74
L 384.21 587.74
L 358.72 587.74
L 358.72 564.62
M 405.92 564.62
L 405.92 545.28
L 384.21 545.28
L 362.50 545.28
L 362.50 564.62
L 362.50 583.96
L 384.21 583.96
L 405.92 583.96
L 405.92 564.62"/>
<path fill="#000000" stroke="none" d="
M 418.19 564.62
L 418.19 541.51
L 444.15 541.51
L 470.11 541.51
L 470.11 564.62
L 470.11 587.74
L 444.15 587.74
L 418.19 587.74
L 418.19 564.62
M 466.34 564.62
L 466.34 545.28
L 444.15 545.28
L 421.97 545.28
L 421.97 564.62
L 421.97 583.96
L 444.15 583.96
L 466.34 583.96
L 466.34 564.62"/>
<path fill="#000000" stroke="none" d="
M 478.61 564.62
L 478.61 541.51
L 503.62 541.51
L 528.64 541.51
L 528.64 564.62
L 528.64 587.74
L 503.62 587.74
L 478.61 587.74
L 478.61 564.62
M 524.86 564.62
L 524.86 545.28
L 503.62 545.28
L 482.38 545.28
L 482.38 564.62
L 482.38 583.96
L 503.62 583.96
L 524.86 583.96
L 524.86 564.62"/>
<path fill="#000000" stroke="none" d="
M 537.14 564.62
L 537.14 541.51
L 560.26 541.51
L 583.39 541.51
L 583.39 564.62
L 583.39 587.74
L 560.26 587.74
L 537.14 587.74
L 537.14 564.62
M 579.62 564.62
L 579.62 545.28
L 560.26 545.28
L 540.91 545.28
L 540.91 564.62
L 540.91 583.96
L 560.26 583.96
L 579.62 583.96
L 579.62 564.62"/>
<path fill="#000000" stroke="none" d="
M 6.61 509.91
L 6.61 486.79
L 29.74 486.79
L 52.86 486.79
L 52.86 509.91
L 52.86 533.02
L 29.74 533.02
L 6.61 533.02
L 6.61 509.91
M 49.09 509.91
L 49.09 490.57
L 29.74 490.57
L 10.38 490.57
L 10.38 509.91
L 10.38 529.25
L 29.74 529.25
L 49.09 529.25
L 49.09 509.91"/>
<path fill="#000000" stroke="none" d="
M 61.36 509.91
L 61.36 486.79
L 86.38 486.79
L 111.39 486.79
L 111.39 509.91
L 111.39 533.02
L 86.38 533.02
L 61.36 533.02
L 61.36 509.91
M 107.62 509.91
L 107.62 490.57
L 86.38 490.57
L 65.14 490.57
L 65.14 509.91
L 65.14 529.25
L 86.38 529.25
L 107.62 529.25
L 107.62 509.91"/>
<path fill="#000000" stroke="none" d="
M 119.89 509.91
L 119.89 486.79
L 145.85 486.79
L 171.81 486.79
L 171.81 509.91
L 171.81 533.02
L 145.85 533.02
L 119.89 533.02
L 119.89 509.91
M 168.03 509.91
L 168.03 490.57
L 145.85 490.57
L 123.66 490.57
L 123.66 509.91
L 123.66 529.25
L 145.85 529.25
L 168.03 529.25
L 168.03 509.91"/>
<path fill="#000000" stroke="none" d="
M 180.30 509.91
L 180.30 486.79
L 205.79 486.79
L 231.28 486.79
L 231.28 509.91
L 231.28 533.02
L 205.79 533.02
L 180.30 533.02
L 180.30 509.91
M 227.50 509.91
L 227.50 490.57
L 205.79 490.57
L 184.08 490.57
L 184.08 509.91
L 184.08 529.25
L 205.79 529.25
L 227.50 529.25
L 227.50 509.91"/>
<path fill="#000000" stroke="none" d="
M 239.78 509.91
L 239.78 486.79
L 265.74 486.79
L 291.70 486.79
L 291.70 509.91
L 291.70 533.02
L 265.74 533.02
L 239.78 533.02
L 239.78 509.91
M 287.92 509.91
L 287.92 490.57
L 265.74 490.57
L 243.55 490.57
L 243.55 509.91
L 243.55 529.25
L 265.74 529.25
L 287.92 529.25
L 287.92 509.91"/>
<path fill="#000000" stroke="none" d="
M 300.19 509.91
L 300.19 486.79
L 325.21 486.79
L 350.22 486.79
L 350.22 509.91
L 350.22 533.02
L 325.21 533.02
L 300.19 533.02
L 300.19 509.91
M 346.45 509.91
L 346.45 490.57
L 325.21 490.57
L 303.97 490.57
L 303.97 509.91
L 303.97 529.25
L 325.21 529.25
L 346.45 529.25
L 346.45 509.91"/>
<path fill="#000000" stroke="none" d="
M 358.72 509.91
L 358.72 486.79
L 384.21 486.79
L 409.70 486.79
L 409.70 509.91
L 409.70 533.02
L 384.21 533.02
L 358.72 533.02
L 358.72 509.91
M 405.92 509.91
L 405.92 490.57
L 384.21 490.57
L 362.50 490.57
L 362.50 509.91
L 362.50 529.25
L 384.21 529.25
L 405.92 529.25
L 405.92 509.91"/>
<path fill="#000000" stroke="none" d="
M 418.19 509.91
L 418.19 486.79
L 444.15 486.79
L 470.11 486.79
L 470.11 509.91
L 470.11 533.02
L 444.15 533.02
L 418.19 533.02
L 418.19 509.91
M 466.34 509.91
L 466.34 490.57
L 444.15 490.57
L 421.97 490.57
L 421.97 509.91
L 421.97 529.25
L 444.15 529.25
L 466.34 529.25
L 466.34 509.91"/>
<path fill="#000000" stroke="none" d="
M 478.61 509.91
L 478.61 486.79
L 503.62 486.79
L 528.64 486.79
L 528.64 509.91
L 528.64 533.02
L 503.62 533.02
L 478.61 533.02
L 478.61 509.91
M 524.86 509.91
L 524.86 490.57
L 503.62 490.57
L 482.38 490.57
L 482.38 509.91
L 482.38 529.25
L 503.62 529.25
L 524.86 529.25
L 524.86 509.91"/>
<path fill="#000000" stroke="none" d="
M 537.14 509.91
L 537.14 486.79
L 560.26 486.79
L 583.39 486.79
L 583.39 509.91
L 583.39 533.02
L 560.26 533.02
L 537.14 533.02
L 537.14 509.91
M 579.62 509.91
L 579.62 490.57
L 560.26 490.57
L 540.91 490.57
L 540.91 509.91
L 540.91 529.25
L 560.26 529.25
L 579.62 529.25
L 579.62 509.91"/>
<path fill="#000000" stroke="none" d="
M 182.66 106.46
C 179.58 104.76 178.42 102.68 178.42 98.80
C 178.42 93.78 182.48 89.62 187.38 89.62
C 192.18 89.62 196.35 93.79 196.35 98.58
C 196.35 105.28 188.64 109.73 182.66 106.46
M 191.63 102.83
C 192.67 101.79 193.52 99.89 193.52 98.58
C 193.52 96.25 190.60 92.45 188.80 92.45
C 187.40 92.45 187.66 93.94 189.27 95.28
C 190.05 95.92 190.69 97.42 190.69 98.58
C 190.69 99.75 190.05 101.25 189.27 101.89
C 188.50 102.53 187.86 103.43 187.86 103.89
C 187.86 105.30 189.66 104.80 191.63 102.83"/>
<path fill="#aa4422" stroke="none" d="
M 214.29 301.89
C 203.99 299.93 182.72 298.11 170.22 298.11
C 164.77 298.11 157.54 298.96 150.29 300.47
C 144.04 301.76 138.31 302.59 137.58 302.31
C 136.85 302.04 132.04 301.49 126.89 301.11
L 117.53 300.42
L 121.54 298.30
C 124.23 296.89 125.55 295.57 125.55 294.29
C 125.55 291.24 123.04 291.10 116.95 293.84
C 113.82 295.25 111.04 296.20 110.80 295.95
C 110.55 295.71 113.17 294.19 116.61 292.58
C 121.30 290.39 122.79 289.24 122.55 287.99
C 122.06 285.42 118.51 285.48 112.66 288.15
C 109.73 289.50 107.14 290.41 106.92 290.18
C 106.04 289.30 111.23 286.79 116.98 285.32
C 122.61 283.89 123.92 283.89 136.28 285.42
C 152.82 287.47 165.19 286.92 187.86 283.14
C 196.94 281.62 207.35 280.10 210.98 279.76
C 231.19 277.85 235.88 270.98 240.67 236.20
C 241.27 231.90 244.20 221.14 247.36 211.70
C 250.46 202.44 252.99 194.16 252.99 193.29
C 252.99 191.62 251.16 190.57 248.27 190.57
C 246.39 190.57 245.94 191.57 240.01 208.96
C 238.07 214.67 236.05 219.34 235.53 219.34
C 233.17 219.34 219.89 178.34 214.63 154.81
C 211.55 141.08 209.74 137.45 204.13 133.91
C 192.67 126.64 178.66 126.77 153.87 134.40
C 147.91 136.23 142.61 137.74 142.12 137.74
C 140.08 137.74 143.30 135.99 148.21 134.42
C 156.98 131.62 158.74 130.42 158.41 127.54
C 158.20 125.69 157.51 124.92 155.86 124.68
C 152.87 124.25 136.81 130.67 130.90 134.64
C 128.33 136.38 125.84 137.67 125.38 137.52
C 124.32 137.17 130.60 126.80 135.16 121.39
C 137.07 119.11 143.23 114.15 148.85 110.36
C 154.47 106.57 162.25 100.23 166.14 96.26
C 170.03 92.29 174.82 87.86 176.76 86.40
C 181.65 82.72 195.81 77.70 207.68 75.43
C 213.14 74.39 219.36 72.89 221.52 72.10
C 224.99 70.83 225.84 70.82 228.77 72.05
C 232.88 73.76 234.19 75.75 237.86 85.93
C 241.63 96.36 249.02 109.58 264.93 134.34
C 289.33 172.29 291.24 174.71 300.85 179.58
C 311.08 184.75 315.07 185.38 337.48 185.36
C 359.86 185.33 360.81 185.24 417.72 177.38
C 435.89 174.87 453.31 172.54 456.42 172.20
C 463.35 171.44 475.62 172.90 488.39 175.98
C 500.51 178.92 506.01 178.93 512.12 176.07
C 529.84 167.73 539.17 143.29 548.99 79.48
C 550.81 67.68 552.91 52.21 553.67 45.10
C 554.42 38.00 555.48 30.22 556.03 27.80
C 557.07 23.13 560.57 15.56 561.32 16.31
C 561.58 16.56 560.91 22.96 559.84 30.55
C 557.51 47.15 557.38 53.10 559.32 54.72
C 560.41 55.62 561.05 55.63 562.08 54.78
C 563.44 53.65 563.96 50.99 567.36 28.30
C 569.58 13.48 570.64 9.75 572.96 8.51
C 574.23 7.84 575.07 8.06 576.27 9.40
C 577.81 11.08 577.61 12.04 572.09 28.76
C 565.47 48.87 564.40 54.56 566.87 56.60
C 568.32 57.80 568.70 57.72 570.21 55.85
C 571.15 54.70 574.12 47.07 576.83 38.91
C 581.29 25.43 583.39 20.42 583.39 23.29
C 583.39 28.39 562.10 94.20 552.77 117.92
C 545.41 136.64 531.59 164.42 526.37 170.94
C 524.01 173.91 519.69 178.08 516.77 180.24
C 508.33 186.47 507.08 191.74 511.18 203.77
C 512.47 207.58 514.61 215.83 515.92 222.09
C 521.31 247.77 525.85 260.78 534.50 275.42
C 539.08 283.17 541.86 289.43 541.86 292.03
C 541.86 294.28 537.19 298.82 532.66 300.97
C 526.48 303.91 513.80 304.46 497.39 302.51
C 484.31 300.94 468.13 299.56 451.60 298.56
C 444.48 298.12 439.68 298.41 432.72 299.66
C 421.61 301.65 419.66 301.68 411.39 299.96
C 405.46 298.73 405.16 298.54 406.55 297.00
C 408.38 294.97 407.56 292.45 405.08 292.45
C 404.06 292.45 401.94 293.55 400.34 294.89
C 398.76 296.22 396.71 297.16 395.79 296.97
C 394.50 296.70 394.93 296.09 397.67 294.30
C 401.36 291.89 401.96 289.42 398.97 288.84
C 398.03 288.66 395.13 289.82 392.53 291.43
C 389.94 293.05 387.99 293.83 388.21 293.18
C 388.43 292.53 390.91 290.78 393.72 289.30
C 398.57 286.75 399.30 286.63 407.34 287.13
C 412.01 287.42 420.30 288.11 425.74 288.66
C 437.04 289.81 445.42 289.41 473.50 286.34
C 493.58 284.14 498.79 282.80 500.07 279.49
C 501.17 276.62 491.76 269.62 475.53 261.22
C 451.37 248.71 443.66 239.92 438.63 219.20
C 436.90 212.09 436.29 210.80 434.54 210.56
C 429.74 209.87 429.68 217.42 434.39 231.90
C 435.45 235.18 436.18 238.00 435.99 238.17
C 434.18 239.85 385.20 254.28 368.99 257.92
C 346.63 262.93 315.92 264.68 300.04 261.85
C 288.65 259.82 288.62 259.74 296.88 252.95
C 304.19 246.96 306.55 243.73 305.54 241.09
C 304.86 239.36 301.83 239.18 298.96 240.72
C 296.00 242.30 279.52 256.19 275.79 260.25
C 274.04 262.13 268.79 269.35 264.08 276.27
C 254.04 291.09 248.88 296.54 240.89 300.71
C 233.92 304.35 228.53 304.58 214.29 301.89
M 193.60 104.79
C 195.63 102.75 196.35 101.14 196.35 98.58
C 196.35 93.79 192.18 89.62 187.38 89.62
C 178.38 89.62 174.85 102.19 182.66 106.46
C 186.24 108.42 190.63 107.75 193.60 104.79"/>
<path fill="#885526" stroke="none" d="
M 232.22 68.23
C 230.40 66.92 228.96 65.38 229.01 64.77
C 229.15 63.21 256.57 25.19 258.24 24.25
C 259.25 23.69 261.16 24.92 265.05 28.68
L 270.46 33.89
L 254.79 49.25
C 245.64 58.23 238.61 65.90 237.92 67.69
C 237.26 69.38 236.44 70.72 236.12 70.67
C 235.79 70.63 234.05 69.53 232.22 68.23"/>
<path fill="#885526" stroke="none" d="
M 193.43 62.96
C 190.12 59.21 182.64 51.16 176.78 45.09
C 170.93 39.02 166.14 33.70 166.14 33.27
C 166.14 31.86 168.97 28.43 171.80 26.42
C 173.97 24.88 175.00 24.65 176.42 25.42
C 178.19 26.36 200.35 55.33 205.28 63.14
C 207.48 66.63 207.54 66.99 206.02 67.76
C 200.70 70.48 199.72 70.11 193.43 62.96"/>
<path fill="#eb2e00" stroke="none" d="
M 187.86 103.89
C 187.86 103.43 188.50 102.53 189.27 101.89
C 191.11 100.37 191.08 97.28 189.21 95.22
C 187.03 92.81 189.26 91.97 191.59 94.30
C 194.04 96.75 194.06 100.41 191.63 102.83
C 189.66 104.80 187.86 105.30 187.86 103.89"/>
<path fill="#ffa153" stroke="none" d="
M 53.21 360.86
C 50.04 360.17 45.02 358.46 42.06 357.07
C 35.97 354.18 24.71 345.54 19.87 340.03
L 16.62 336.32
L 22.61 336.04
C 27.87 335.78 28.89 336.03 31.05 338.06
C 39.05 345.55 50.78 351.31 60.42 352.50
C 68.38 353.49 84.20 347.16 92.89 339.51
L 97.05 335.85
L 106.34 335.89
L 115.64 335.92
L 111.86 339.27
C 106.54 343.98 92.38 352.60 84.02 356.22
C 77.43 359.08 64.57 362.36 60.69 362.19
C 59.76 362.15 56.39 361.55 53.21 360.86"/>
<path fill="#ffa153" stroke="none" d="
M 8.50 308.73
C 8.50 304.27 13.72 286.40 16.97 279.65
C 22.61 268.01 30.02 262.22 39.18 262.30
C 49.90 262.41 79.40 281.84 102.42 303.96
L 109.03 310.32
L 101.95 310.35
L 94.87 310.37
L 84.49 300.84
C 61.57 279.79 55.31 275.20 45.58 272.25
L 39.86 270.52
L 34.65 272.90
C 26.78 276.51 23.91 282.24 20.28 301.65
L 18.64 310.38
L 13.57 310.38
C 9.36 310.38 8.50 310.09 8.50 308.73"/>
<path fill="#c55436" stroke="none" d="
M 291.70 437.75
L 291.70 400.97
L 295.94 403.03
L 300.19 405.09
L 300.19 439.81
L 300.19 474.53
L 295.94 474.53
L 291.70 474.53
L 291.70 437.75"/>
<path fill="#c55436" stroke="none" d="
M 295.71 381.47
L 291.70 379.06
L 291.70 357.45
L 291.70 335.85
L 295.94 335.85
L 300.19 335.85
L 300.19 359.91
C 300.19 373.13 300.09 383.94 299.96 383.92
C 299.82 383.91 297.92 382.80 295.71 381.47"/>
<path fill="#c55436" stroke="none" d="
M 15.10 327.36
C 12.90 325.15 12.67 321.87 14.56 319.28
C 15.88 317.48 19.96 317.45 295.53 317.22
C 501.95 317.04 575.50 317.25 576.44 318.04
C 578.03 319.35 578.13 326.58 576.60 328.11
C 575.72 328.99 512.15 329.25 296.23 329.25
C 18.25 329.25 16.98 329.24 15.10 327.36"/>
<path fill="#ef907a" stroke="none" d="
M 329.00 404.61
C 299.95 400.38 268.31 384.36 244.89 362.02
C 235.89 353.42 223.73 338.90 223.73 336.74
C 223.73 336.25 226.05 335.85 228.89 335.85
L 234.06 335.85
L 240.26 344.28
C 259.55 370.55 296.90 393.63 331.27 400.53
C 336.89 401.66 342.01 401.99 348.73 401.68
C 357.37 401.28 357.96 401.36 355.18 402.51
C 351.90 403.87 340.94 405.69 337.01 405.53
C 335.71 405.47 332.11 405.06 329.00 404.61"/>
<path fill="#ef907a" stroke="none" d="
M 365.21 367.14
C 361.59 360.69 354.76 351.90 346.71 343.36
L 339.64 335.85
L 344.93 335.85
C 350.03 335.85 350.31 335.99 353.00 339.70
C 358.03 346.64 369.22 370.02 368.06 371.17
C 367.85 371.38 366.57 369.57 365.21 367.14"/>
<path fill="#0885ff" stroke="none" d="
M 5.66 594.34
C 3.82 592.50 3.78 591.20 3.78 537.44
C 3.78 491.42 3.99 482.14 5.12 480.60
C 6.44 478.80 10.60 478.77 294.44 478.54
C 581.57 478.29 582.45 478.30 584.34 480.19
C 586.19 482.04 586.22 483.29 586.22 537.26
C 586.22 591.20 586.18 592.50 584.34 594.34
C 582.46 596.22 581.19 596.23 295.00 596.23
C 8.81 596.23 7.54 596.22 5.66 594.34
M 52.86 564.62
L 52.86 541.51
L 29.74 541.51
L 6.61 541.51
L 6.61 564.62
L 6.61 587.74
L 29.74 587.74
L 52.86 587.74
L 52.86 564.62
M 111.39 564.62
L 111.39 541.51
L 86.38 541.51
L 61.36 541.51
L 61.36 564.62
L 61.36 587.74
L 86.38 587.74
L 111.39 587.74
L 111.39 564.62
M 171.81 564.62
L 171.81 541.51
L 145.85 541.51
L 119.89 541.51
L 119.89 564.62
L 119.89 587.74
L 145.85 587.74
L 171.81 587.74
L 171.81 564.62
M 231.28 564.62
L 231.28 541.51
L 205.79 541.51
L 180.30 541.51
L 180.30 564.62
L 180.30 587.74
L 205.79 587.74
L 231.28 587.74
L 231.28 564.62
M 291.70 564.62
L 291.70 541.51
L 265.74 541.51
L 239.78 541.51
L 239.78 564.62
L 239.78 587.74
L 265.74 587.74
L 291.70 587.74
L 291.70 564.62
M 350.22 564.62
L 350.22 541.51
L 325.21 541.51
L 300.19 541.51
L 300.19 564.62
L 300.19 587.74
L 325.21 587.74
L 350.22 587.74
L 350.22 564.62
M 409.70 564.62
L 409.70 541.51
L 384.21 541.51
L 358.72 541.51
L 358.72 564.62
L 358.72 587.74
L 384.21 587.74
L 409.70 587.74
L 409.70 564.62
M 470.11 564.62
L 470.11 541.51
L 444.15 541.51
L 418.19 541.51
L 418.19 564.62
L 418.19 587.74
L 444.15 587.74
L 470.11 587.74
L 470.11 564.62
M 528.64 564.62
L 528.64 541.51
L 503.62 541.51
L 478.61 541.51
L 478.61 564.62
L 478.61 587.74
L 503.62 587.74
L 528.64 587.74
L 528.64 564.62
M 583.39 564.62
L 583.39 541.51
L 560.26 541.51
L 537.14 541.51
L 537.14 564.62
L 537.14 587.74
L 560.26 587.74
L 583.39 587.74
L 583.39 564.62
M 52.86 509.91
L 52.86 486.79
L 29.74 486.79
L 6.61 486.79
L 6.61 509.91
L 6.61 533.02
L 29.74 533.02
L 52.86 533.02
L 52.86 509.91
M 111.39 509.91
L 111.39 486.79
L 86.38 486.79
L 61.36 486.79
L 61.36 509.91
L 61.36 533.02
L 86.38 533.02
L 111.39 533.02
L 111.39 509.91
M 171.81 509.91
L 171.81 486.79
L 145.85 486.79
L 119.89 486.79
L 119.89 509.91
L 119.89 533.02
L 145.85 533.02
L 171.81 533.02
L 171.81 509.91
M 231.28 509.91
L 231.28 486.79
L 205.79 486.79
L 180.30 486.79
L 180.30 509.91
L 180.30 533.02
L 205.79 533.02
L 231.28 533.02
L 231.28 509.91
M 291.70 509.91
L 291.70 486.79
L 265.74 486.79
L 239.78 486.79
L 239.78 509.91
L 239.78 533.02
L 265.74 533.02
L 291.70 533.02
L 291.70 509.91
M 350.22 509.91
L 350.22 486.79
L 325.21 486.79
L 300.19 486.79
L 300.19 509.91
L 300.19 533.02
L 325.21 533.02
L 350.22 533.02
L 350.22 509.91
M 409.70 509.91
L 409.70 486.79
L 384.21 486.79
L 358.72 486.79
L 358.72 509.91
L 358.72 533.02
L 384.21 533.02
L 409.70 533.02
L 409.70 509.91
M 470.11 509.91
L 470.11 486.79
L 444.15 486.79
L 418.19 486.79
L 418.19 509.91
L 418.19 533.02
L 444.15 533.02
L 470.11 533.02
L 470.11 509.91
M 528.64 509.91
L 528.64 486.79
L 503.62 486.79
L 478.61 486.79
L 478.61 509.91
L 478.61 533.02
L 503.62 533.02
L 528.64 533.02
L 528.64 509.91
M 583.39 509.91
L 583.39 486.79
L 560.26 486.79
L 537.14 486.79
L 537.14 509.91
L 537.14 533.02
L 560.26 533.02
L 583.39 533.02
L 583.39 509.91"/>
<path fill="#c57a36" stroke="none" d="
M 10.38 564.62
L 10.38 545.28
L 29.74 545.28
L 49.09 545.28
L 49.09 564.62
L 49.09 583.96
L 29.74 583.96
L 10.38 583.96
L 10.38 564.62"/>
<path fill="#c57a36" stroke="none" d="
M 65.14 564.62
L 65.14 545.28
L 86.38 545.28
L 107.62 545.28
L 107.62 564.62
L 107.62 583.96
L 86.38 583.96
L 65.14 583.96
L 65.14 564.62"/>
<path fill="#c57a36" stroke="none" d="
M 123.66 564.62
L 123.66 545.28
L 145.85 545.28
L 168.03 545.28
L 168.03 564.62
L 168.03 583.96
L 145.85 583.96
L 123.66 583.96
L 123.66 564.62"/>
<path fill="#c57a36" stroke="none" d="
M 184.08 564.62
L 184.08 545.28
L 205.79 545.28
L 227.50 545.28
L 227.50 564.62
L 227.50 583.96
L 205.79 583.96
L 184.08 583.96
L 184.08 564.62"/>
<path fill="#c57a36" stroke="none" d="
M 243.55 564.62
L 243.55 545.28
L 265.74 545.28
L 287.92 545.28
L 287.92 564.62
L 287.92 583.96
L 265.74 583.96
L 243.55 583.96
L 243.55 564.62"/>
<path fill="#c57a36" stroke="none" d="
M 303.97 564.62
L 303.97 545.28
L 325.21 545.28
L 346.45 545.28
L 346.45 564.62
L 346.45 583.96
L 325.21 583.96
L 303.97 583.96
L 303.97 564.62"/>
<path fill="#c57a36" stroke="none" d="
M 362.50 564.62
L 362.50 545.28
L 384.21 545.28
L 405.92 545.28
L 405.92 564.62
L 405.92 583.96
L 384.21 583.96
L 362.50 583.96
L 362.50 564.62"/>
<path fill="#c57a36" stroke="none" d="
M 421.97 564.62
L 421.97 545.28
L 444.15 545.28
L 466.34 545.28
L 466.34 564.62
L 466.34 583.96
L 444.15 583.96
L 421.97 583.96
L 421.97 564.62"/>
<path fill="#c57a36" stroke="none" d="
M 482.38 564.62
L 482.38 545.28
L 503.62 545.28
L 524.86 545.28
L 524.86 564.62
L 524.86 583.96
L 503.62 583.96
L 482.38 583.96
L 482.38 564.62"/>
<path fill="#c57a36" stroke="none" d="
M 540.91 564.62
L 540.91 545.28
L 560.26 545.28
L 579.62 545.28
L 579.62 564.62
L 579.62 583.96
L 560.26 583.96
L 540.91 583.96
L 540.91 564.62"/>
<path fill="#c57a36" stroke="none" d="
M 10.60 510.14
L 10.86 491.04
L 29.97 490.78
L 49.09 490.53
L 49.09 509.89
L 49.09 529.25
L 29.72 529.25
L 10.35 529.25
L 10.60 510.14"/>
<path fill="#c57a36" stroke="none" d="
M 65.14 509.91
L 65.14 490.57
L 86.38 490.57
L 107.62 490.57
L 107.62 509.91
L 107.62 529.25
L 86.38 529.25
L 65.14 529.25
L 65.14 509.91"/>
<path fill="#c57a36" stroke="none" d="
M 123.66 509.91
L 123.66 490.57
L 145.85 490.57
L 168.03 490.57
L 168.03 509.91
L 168.03 529.25
L 145.85 529.25
L 123.66 529.25
L 123.66 509.91"/>
<path fill="#c57a36" stroke="none" d="
M 184.08 509.91
L 184.08 490.57
L 205.79 490.57
L 227.50 490.57
L 227.50 509.91
L 227.50 529.25
L 205.79 529.25
L 184.08 529.25
L 184.08 509.91"/>
<path fill="#c57a36" stroke="none" d="
M 243.55 509.91
L 243.55 490.57
L 265.74 490.57
L 287.92 490.57
L 287.92 509.91
L 287.92 529.25
L 265.74 529.25
L 243.55 529.25
L 243.55 509.91"/>
<path fill="#c57a36" stroke="none" d="
M 303.97 509.91
L 303.97 490.57
L 325.21 490.57
L 346.45 490.57
L 346.45 509.91
L 346.45 529.25
L 325.21 529.25
L 303.97 529.25
L 303.97 509.91"/>
<path fill="#c57a36" stroke="none" d="
M 362.50 509.91
L 362.50 490.57
L 384.21 490.57
L 405.92 490.57
L 405.92 509.91
L 405.92 529.25
L 384.21 529.25
L 362.50 529.25
L 362.50 509.91"/>
<path fill="#c57a36" stroke="none" d="
M 421.97 509.91
L 421.97 490.57
L 444.15 490.57
L 466.34 490.57
L 466.34 509.91
L 466.34 529.25
L 444.15 529.25
L 421.97 529.25
L 421.97 509.91"/>
<path fill="#c57a36" stroke="none" d="
M 482.38 509.91
L 482.38 490.57
L 503.62 490.57
L 524.86 490.57
L 524.86 509.91
L 524.86 529.25
L 503.62 529.25
L 482.38 529.25
L 482.38 509.91"/>
<path fill="#c57a36" stroke="none" d="
M 540.91 509.91
L 540.91 490.57
L 560.26 490.57
L 579.62 490.57
L 579.62 509.91
L 579.62 529.25
L 560.26 529.25
L 540.91 529.25
L 540.91 509.91"/>
</g>
</svg>
