<?xml version="1.0" encoding="UTF-8" standalone="no"?>
<!DOCTYPE svg PUBLIC "-//W3C//DTD SVG 1.1//EN"
"http://www.w3.org/Graphics/SVG/1.1/DTD/svg11.dtd">
<svg width="611px" height="600px"
xmlns="http://www.w3.org/2000/svg" version="1.1">
<g transform="translate(0000, 0000) scale(1.0000, 1.0000)">
<path fill="#000000" stroke="none" d="
M 1.96 598.05
C 0.04 596.13 0.00 594.79 0.00 535.02
C 0.00 475.24 0.04 473.90 1.96 471.99
C 3.89 470.05 5.21 470.03 149.58 470.03
L 295.25 470.03
L 295.00 430.37
L 294.75 390.69
L 284.30 384.67
C 278.55 381.37 270.19 376.04 265.72 372.82
C 254.51 364.76 235.36 345.35 228.32 334.93
L 222.54 326.38
L 175.59 326.38
L 128.63 326.38
L 125.17 329.73
C 120.10 334.63 103.36 345.52 94.13 349.93
C 89.71 352.04 81.36 354.92 75.56 356.34
C 65.88 358.68 64.45 358.81 58.24 357.76
C 40.99 354.87 31.71 349.51 15.90 333.31
C 3.77 320.89 1.21 316.23 2.28 308.44
C 5.99 281.03 12.03 262.91 20.51 253.71
C 25.17 248.66 32.77 245.27 39.39 245.29
C 45.55 245.31 58.60 250.26 68.04 256.16
C 78.12 262.46 94.55 275.42 110.43 289.58
L 122.10 300.00
L 362.15 300.00
C 600.90 300.00 602.21 300.01 604.16 301.95
C 605.84 303.64 606.11 305.21 606.11 313.19
C 606.11 328.09 621.60 326.38 486.79 326.38
L 371.38 326.38
L 373.96 330.54
C 378.71 338.18 386.05 354.17 387.76 360.59
C 392.79 379.56 387.18 394.50 372.59 400.98
C 365.72 404.02 353.29 405.94 345.58 405.15
C 340.13 404.58 324.95 401.59 319.92 400.09
L 317.72 399.45
L 317.72 434.74
L 317.72 470.03
L 462.40 470.03
C 605.79 470.03 607.11 470.05 609.04 471.99
C 610.96 473.90 611.00 475.24 611.00 535.02
C 611.00 594.79 610.96 596.13 609.04 598.05
C 607.10 599.99 605.79 600.00 305.50 600.00
C 5.21 600.00 3.90 599.99 1.96 598.05
M 605.13 594.14
C 607.04 592.23 607.09 590.88 607.09 535.02
C 607.09 479.15 607.04 477.80 605.13 475.90
C 603.19 473.95 601.88 473.94 305.50 473.94
C 9.12 473.94 7.81 473.95 5.87 475.90
C 3.96 477.80 3.91 479.15 3.91 535.02
C 3.91 590.88 3.96 592.23 5.87 594.14
C 7.81 596.08 9.12 596.09 305.50 596.09
C 601.88 596.09 603.19 596.08 605.13 594.14
M 310.88 434.07
L 310.88 398.11
L 306.48 395.97
L 302.08 393.84
L 302.08 431.93
L 302.08 470.03
L 306.48 470.03
L 310.88 470.03
L 310.88 434.07
M 358.05 397.70
C 361.67 397.18 366.07 396.16 367.82 395.43
C 370.71 394.24 370.09 394.16 361.14 394.57
C 325.63 396.22 273.37 368.57 248.81 335.12
L 242.40 326.38
L 236.49 326.38
L 230.59 326.38
L 234.78 332.49
C 237.09 335.85 244.49 344.10 251.22 350.83
C 268.31 367.92 285.37 379.27 307.50 388.27
C 318.52 392.76 330.47 396.12 340.71 397.61
C 348.80 398.79 350.51 398.79 358.05 397.70
M 371.17 386.05
C 373.40 385.04 375.71 383.32 376.30 382.23
C 380.76 373.92 371.62 356.96 351.60 336.40
L 341.86 326.38
L 329.79 326.38
L 317.72 326.38
L 317.72 352.32
L 317.72 378.24
L 322.15 380.14
C 326.38 381.96 341.93 386.40 347.05 387.27
C 348.40 387.50 353.45 387.73 358.29 387.79
C 365.02 387.88 368.05 387.47 371.17 386.05
M 310.88 351.30
L 310.88 326.38
L 306.48 326.38
L 302.08 326.38
L 302.08 348.76
L 302.08 371.14
L 306.23 373.64
C 308.52 375.02 310.50 376.16 310.63 376.18
C 310.77 376.20 310.88 365.00 310.88 351.30
M 294.91 326.71
C 294.71 326.51 284.77 326.46 272.82 326.61
L 251.10 326.87
L 255.92 333.22
C 262.53 341.94 274.46 353.09 285.51 360.90
L 294.75 367.44
L 295.01 347.26
C 295.16 336.16 295.11 326.91 294.91 326.71
M 379.81 357.92
C 377.30 351.21 368.94 335.03 365.56 330.37
C 362.78 326.53 362.48 326.38 357.21 326.38
L 351.73 326.38
L 359.05 334.16
C 367.38 343.01 374.46 352.11 378.20 358.80
C 381.39 364.47 382.10 364.07 379.81 357.92
M 72.14 352.20
C 76.28 351.35 82.98 349.23 87.01 347.48
C 95.67 343.74 110.33 334.81 115.85 329.93
L 119.76 326.46
L 110.13 326.42
L 100.51 326.38
L 96.20 330.18
C 87.19 338.10 70.82 344.66 62.57 343.63
C 52.59 342.40 40.44 336.43 32.15 328.67
C 29.91 326.57 28.86 326.32 23.41 326.58
L 17.22 326.87
L 20.58 330.71
C 25.59 336.42 37.25 345.37 43.56 348.36
C 48.64 350.76 58.51 353.47 62.85 353.67
C 63.82 353.71 67.99 353.05 72.14 352.20
M 79.65 334.27
C 83.97 332.10 88.59 329.45 89.94 328.38
L 92.38 326.42
L 65.68 326.40
C 50.07 326.39 39.21 326.75 39.53 327.26
C 39.84 327.75 42.60 329.83 45.70 331.89
C 58.34 340.30 66.52 340.87 79.65 334.27
M 597.12 318.37
C 598.63 316.86 598.63 309.53 597.12 308.01
C 596.21 307.10 530.38 306.84 306.77 306.84
C 18.90 306.84 17.59 306.85 15.64 308.79
C 14.57 309.87 13.69 311.84 13.69 313.19
C 13.69 314.54 14.57 316.51 15.64 317.59
C 17.59 319.53 18.90 319.54 306.77 319.54
C 530.38 319.54 596.21 319.28 597.12 318.37
M 21.00 290.96
C 24.76 270.85 27.73 264.92 35.89 261.18
L 41.27 258.71
L 47.20 260.51
C 57.28 263.56 63.76 268.32 87.50 290.12
L 98.25 299.99
L 105.58 299.97
L 112.91 299.94
L 106.07 293.36
C 81.24 269.49 51.60 250.25 39.59 250.22
C 27.05 250.18 16.90 263.17 11.24 286.50
C 7.86 300.47 7.76 300.00 14.06 300.00
L 19.31 300.00
L 21.00 290.96
M 81.14 291.97
C 56.88 268.73 45.44 262.00 37.34 266.19
C 32.25 268.82 27.58 278.66 25.94 290.23
C 25.59 292.65 25.09 295.84 24.80 297.31
L 24.28 300.00
L 56.87 299.96
L 89.45 299.92
L 81.14 291.97"/>
<path fill="#000000" stroke="none" d="
M 238.05 280.40
C 230.01 279.31 219.14 276.19 213.63 273.38
C 206.78 269.88 202.33 265.60 192.52 253.03
C 181.95 239.49 175.62 233.14 170.59 231.05
C 167.90 229.92 165.81 229.87 159.23 230.76
C 149.29 232.08 133.19 231.35 126.45 229.24
C 118.33 226.70 112.29 222.08 110.07 216.69
C 108.23 212.24 108.22 211.86 109.82 206.78
C 112.00 199.87 116.90 195.46 128.57 189.93
C 133.53 187.58 138.06 185.67 138.63 185.67
C 141.64 185.67 140.41 182.92 134.94 177.39
C 130.32 172.74 128.96 170.72 129.20 168.95
C 129.42 167.39 130.27 166.50 131.74 166.30
C 133.40 166.07 136.36 168.21 143.47 174.84
C 155.09 185.63 156.56 185.96 162.01 178.93
C 174.61 162.63 176.09 161.12 179.27 161.43
C 184.44 161.93 183.86 165.16 177.22 172.75
C 174.07 176.36 170.75 180.48 169.86 181.91
L 168.23 184.50
L 178.40 189.44
C 190.50 195.29 193.64 198.22 203.94 213.18
C 208.14 219.27 214.02 226.86 216.99 230.02
C 229.97 243.83 241.66 243.91 278.02 230.44
C 329.71 211.30 349.42 212.34 415.48 237.67
C 445.78 249.29 458.99 253.57 473.43 256.45
C 491.24 259.99 499.19 260.29 527.34 258.46
C 558.43 256.44 582.63 256.76 587.29 259.26
C 592.62 262.11 591.26 265.41 583.06 269.53
C 577.96 272.09 567.20 274.19 549.90 275.99
C 518.87 279.23 503.57 279.01 453.12 274.57
C 419.31 271.59 378.19 268.62 362.56 268.04
C 346.47 267.43 341.55 267.98 312.19 273.70
C 301.35 275.81 288.15 278.21 282.86 279.02
C 270.71 280.89 246.99 281.61 238.05 280.40
M 272.76 275.11
C 279.48 274.32 295.09 271.71 307.46 269.32
C 340.13 262.99 344.09 262.54 362.04 263.14
C 378.16 263.68 433.11 267.62 460.45 270.20
C 501.37 274.07 526.67 274.06 556.74 270.16
C 569.68 268.48 574.87 267.30 579.13 265.10
C 581.32 263.97 581.65 263.45 580.60 262.78
C 578.42 261.41 550.72 261.75 526.87 263.45
C 484.14 266.51 469.17 263.89 417.44 244.31
C 345.11 216.94 334.53 216.22 281.15 235.19
C 256.25 244.04 249.14 245.62 236.66 245.10
C 228.57 244.77 226.58 244.33 222.07 241.87
C 215.42 238.23 209.31 231.52 199.28 216.85
C 194.89 210.42 189.58 203.60 187.46 201.69
C 185.35 199.79 179.38 196.23 174.18 193.78
C 166.06 189.95 163.62 189.25 156.90 188.85
C 150.60 188.48 147.85 188.80 142.73 190.52
C 120.92 197.82 109.95 208.33 116.15 215.97
C 117.87 218.10 118.01 218.11 121.12 216.50
C 122.88 215.59 124.95 215.08 125.71 215.37
C 127.93 216.22 127.29 218.72 124.48 220.19
L 121.88 221.56
L 127.66 223.77
C 135.08 226.60 145.18 227.29 157.80 225.79
C 174.68 223.79 178.75 226.07 194.92 246.59
C 209.80 265.46 213.41 268.35 227.30 272.55
C 240.92 276.66 253.50 277.38 272.76 275.11"/>
<path fill="#000000" stroke="none" d="
M 189.65 148.53
C 187.74 146.62 187.70 145.28 187.70 82.54
C 187.70 13.13 187.51 15.68 193.11 8.36
C 194.52 6.50 197.92 3.86 200.68 2.49
C 209.55 -1.93 218.19 -0.41 226.29 6.99
C 232.23 12.41 236.45 19.87 240.05 31.25
C 252.70 71.26 276.38 96.67 309.41 105.71
C 320.74 108.81 345.00 108.81 356.34 105.71
C 389.37 96.67 413.05 71.26 425.70 31.25
C 429.29 19.87 433.52 12.41 439.46 6.99
C 447.66 -0.51 456.88 -2.06 465.45 2.60
C 468.08 4.03 471.35 6.67 472.73 8.46
C 478.22 15.66 478.05 13.26 478.05 82.54
C 478.05 145.28 478.01 146.62 476.09 148.53
C 474.16 150.47 472.84 150.49 332.87 150.49
C 192.91 150.49 191.59 150.47 189.65 148.53
M 469.05 140.52
C 469.94 139.63 470.23 124.72 470.23 79.40
C 470.23 13.87 470.50 17.05 464.38 11.24
C 461.68 8.67 460.60 8.31 455.59 8.31
C 450.66 8.31 449.35 8.73 446.12 11.33
C 440.36 15.96 437.60 20.82 432.60 35.18
C 420.50 69.84 403.98 91.64 380.00 104.57
C 341.69 125.23 292.26 117.95 262.83 87.30
C 250.85 74.84 240.86 57.29 233.15 35.18
C 228.14 20.82 225.39 15.96 219.63 11.33
C 216.39 8.73 215.08 8.31 210.15 8.31
C 205.15 8.31 204.06 8.67 201.37 11.24
C 195.25 17.05 195.52 13.87 195.52 79.40
C 195.52 124.72 195.80 139.63 196.69 140.52
C 198.39 142.22 467.35 142.22 469.05 140.52"/>
<path fill="#000000" stroke="none" d="
M 6.84 563.36
L 6.84 539.41
L 30.79 539.41
L 54.75 539.41
L 54.75 563.36
L 54.75 587.30
L 30.79 587.30
L 6.84 587.30
L 6.84 563.36
M 50.84 563.36
L 50.84 543.32
L 30.79 543.32
L 10.75 543.32
L 10.75 563.36
L 10.75 583.39
L 30.79 583.39
L 50.84 583.39
L 50.84 563.36"/>
<path fill="#000000" stroke="none" d="
M 63.54 563.36
L 63.54 539.41
L 89.45 539.41
L 115.36 539.41
L 115.36 563.36
L 115.36 587.30
L 89.45 587.30
L 63.54 587.30
L 63.54 563.36
M 111.45 563.36
L 111.45 543.32
L 89.45 543.32
L 67.45 543.32
L 67.45 563.36
L 67.45 583.39
L 89.45 583.39
L 111.45 583.39
L 111.45 563.36"/>
<path fill="#000000" stroke="none" d="
M 124.16 563.36
L 124.16 539.41
L 151.04 539.41
L 177.92 539.41
L 177.92 563.36
L 177.92 587.30
L 151.04 587.30
L 124.16 587.30
L 124.16 563.36
M 174.01 563.36
L 174.01 543.32
L 151.04 543.32
L 128.07 543.32
L 128.07 563.36
L 128.07 583.39
L 151.04 583.39
L 174.01 583.39
L 174.01 563.36"/>
<path fill="#000000" stroke="none" d="
M 186.72 563.36
L 186.72 539.41
L 213.12 539.41
L 239.51 539.41
L 239.51 563.36
L 239.51 587.30
L 213.12 587.30
L 186.72 587.30
L 186.72 563.36
M 235.60 563.36
L 235.60 543.32
L 213.12 543.32
L 190.63 543.32
L 190.63 563.36
L 190.63 583.39
L 213.12 583.39
L 235.60 583.39
L 235.60 563.36"/>
<path fill="#000000" stroke="none" d="
M 248.31 563.36
L 248.31 539.41
L 275.19 539.41
L 302.08 539.41
L 302.08 563.36
L 302.08 587.30
L 275.19 587.30
L 248.31 587.30
L 248.31 563.36
M 298.17 563.36
L 298.17 543.32
L 275.19 543.32
L 252.22 543.32
L 252.22 563.36
L 252.22 583.39
L 275.19 583.39
L 298.17 583.39
L 298.17 563.36"/>
<path fill="#000000" stroke="none" d="
M 310.88 563.36
L 310.88 539.41
L 336.78 539.41
L 362.69 539.41
L 362.69 563.36
L 362.69 587.30
L 336.78 587.30
L 310.88 587.30
L 310.88 563.36
M 358.78 563.36
L 358.78 543.32
L 336.78 543.32
L 314.79 543.32
L 314.79 563.36
L 314.79 583.39
L 336.78 583.39
L 358.78 583.39
L 358.78 563.36"/>
<path fill="#000000" stroke="none" d="
M 371.49 563.36
L 371.49 539.41
L 397.88 539.41
L 424.28 539.41
L 424.28 563.36
L 424.28 587.30
L 397.88 587.30
L 371.49 587.30
L 371.49 563.36
M 420.37 563.36
L 420.37 543.32
L 397.88 543.32
L 375.40 543.32
L 375.40 563.36
L 375.40 583.39
L 397.88 583.39
L 420.37 583.39
L 420.37 563.36"/>
<path fill="#000000" stroke="none" d="
M 433.08 563.36
L 433.08 539.41
L 459.96 539.41
L 486.84 539.41
L 486.84 563.36
L 486.84 587.30
L 459.96 587.30
L 433.08 587.30
L 433.08 563.36
M 482.93 563.36
L 482.93 543.32
L 459.96 543.32
L 436.99 543.32
L 436.99 563.36
L 436.99 583.39
L 459.96 583.39
L 482.93 583.39
L 482.93 563.36"/>
<path fill="#000000" stroke="none" d="
M 495.64 563.36
L 495.64 539.41
L 521.55 539.41
L 547.46 539.41
L 547.46 563.36
L 547.46 587.30
L 521.55 587.30
L 495.64 587.30
L 495.64 563.36
M 543.55 563.36
L 543.55 543.32
L 521.55 543.32
L 499.55 543.32
L 499.55 563.36
L 499.55 583.39
L 521.55 583.39
L 543.55 583.39
L 543.55 563.36"/>
<path fill="#000000" stroke="none" d="
M 556.25 563.36
L 556.25 539.41
L 580.21 539.41
L 604.16 539.41
L 604.16 563.36
L 604.16 587.30
L 580.21 587.30
L 556.25 587.30
L 556.25 563.36
M 600.25 563.36
L 600.25 543.32
L 580.21 543.32
L 560.16 543.32
L 560.16 563.36
L 560.16 583.39
L 580.21 583.39
L 600.25 583.39
L 600.25 563.36"/>
<path fill="#000000" stroke="none" d="
M 6.84 506.68
L 6.84 482.74
L 30.79 482.74
L 54.75 482.74
L 54.75 506.68
L 54.75 530.62
L 30.79 530.62
L 6.84 530.62
L 6.84 506.68
M 50.84 506.68
L 50.84 486.64
L 30.79 486.64
L 10.75 486.64
L 10.75 506.68
L 10.75 526.71
L 30.79 526.71
L 50.84 526.71
L 50.84 506.68"/>
<path fill="#000000" stroke="none" d="
M 63.54 506.68
L 63.54 482.74
L 89.45 482.74
L 115.36 482.74
L 115.36 506.68
L 115.36 530.62
L 89.45 530.62
L 63.54 530.62
L 63.54 506.68
M 111.45 506.68
L 111.45 486.64
L 89.45 486.64
L 67.45 486.64
L 67.45 506.68
L 67.45 526.71
L 89.45 526.71
L 111.45 526.71
L 111.45 506.68"/>
<path fill="#000000" stroke="none" d="
M 124.16 506.68
L 124.16 482.74
L 151.04 482.74
L 177.92 482.74
L 177.92 506.68
L 177.92 530.62
L 151.04 530.62
L 124.16 530.62
L 124.16 506.68
M 174.01 506.68
L 174.01 486.64
L 151.04 486.64
L 128.07 486.64
L 128.07 506.68
L 128.07 526.71
L 151.04 526.71
L 174.01 526.71
L 174.01 506.68"/>
<path fill="#000000" stroke="none" d="
M 186.72 506.68
L 186.72 482.74
L 213.12 482.74
L 239.51 482.74
L 239.51 506.68
L 239.51 530.62
L 213.12 530.62
L 186.72 530.62
L 186.72 506.68
M 235.60 506.68
L 235.60 486.64
L 213.12 486.64
L 190.63 486.64
L 190.63 506.68
L 190.63 526.71
L 213.12 526.71
L 235.60 526.71
L 235.60 506.68"/>
<path fill="#000000" stroke="none" d="
M 248.31 506.68
L 248.31 482.74
L 275.19 482.74
L 302.08 482.74
L 302.08 506.68
L 302.08 530.62
L 275.19 530.62
L 248.31 530.62
L 248.31 506.68
M 298.17 506.68
L 298.17 486.64
L 275.19 486.64
L 252.22 486.64
L 252.22 506.68
L 252.22 526.71
L 275.19 526.71
L 298.17 526.71
L 298.17 506.68"/>
<path fill="#000000" stroke="none" d="
M 310.88 506.68
L 310.88 482.74
L 336.78 482.74
L 362.69 482.74
L 362.69 506.68
L 362.69 530.62
L 336.78 530.62
L 310.88 530.62
L 310.88 506.68
M 358.78 506.68
L 358.78 486.64
L 336.78 486.64
L 314.79 486.64
L 314.79 506.68
L 314.79 526.71
L 336.78 526.71
L 358.78 526.71
L 358.78 506.68"/>
<path fill="#000000" stroke="none" d="
M 371.49 506.68
L 371.49 482.74
L 397.88 482.74
L 424.28 482.74
L 424.28 506.68
L 424.28 530.62
L 397.88 530.62
L 371.49 530.62
L 371.49 506.68
M 420.37 506.68
L 420.37 486.64
L 397.88 486.64
L 375.40 486.64
L 375.40 506.68
L 375.40 526.71
L 397.88 526.71
L 420.37 526.71
L 420.37 506.68"/>
<path fill="#000000" stroke="none" d="
M 433.08 506.68
L 433.08 482.74
L 459.96 482.74
L 486.84 482.74
L 486.84 506.68
L 486.84 530.62
L 459.96 530.62
L 433.08 530.62
L 433.08 506.68
M 482.93 506.68
L 482.93 486.64
L 459.96 486.64
L 436.99 486.64
L 436.99 506.68
L 436.99 526.71
L 459.96 526.71
L 482.93 526.71
L 482.93 506.68"/>
<path fill="#000000" stroke="none" d="
M 495.64 506.68
L 495.64 482.74
L 521.55 482.74
L 547.46 482.74
L 547.46 506.68
L 547.46 530.62
L 521.55 530.62
L 495.64 530.62
L 495.64 506.68
M 543.55 506.68
L 543.55 486.64
L 521.55 486.64
L 499.55 486.64
L 499.55 506.68
L 499.55 526.71
L 521.55 526.71
L 543.55 526.71
L 543.55 506.68"/>
<path fill="#000000" stroke="none" d="
M 556.25 506.68
L 556.25 482.74
L 580.21 482.74
L 604.16 482.74
L 604.16 506.68
L 604.16 530.62
L 580.21 530.62
L 556.25 530.62
L 556.25 506.68
M 600.25 506.68
L 600.25 486.64
L 580.21 486.64
L 560.16 486.64
L 560.16 506.68
L 560.16 526.71
L 580.21 526.71
L 600.25 526.71
L 600.25 506.68"/>
<path fill="#000000" stroke="none" d="
M 247.33 264.82
C 243.46 260.95 246.28 254.07 251.73 254.07
C 253.08 254.07 255.06 254.95 256.13 256.03
C 257.21 257.10 258.09 259.07 258.09 260.42
C 258.09 261.77 257.21 263.75 256.13 264.82
C 255.06 265.90 253.08 266.78 251.73 266.78
C 250.38 266.78 248.41 265.90 247.33 264.82
M 254.55 261.66
C 255.36 260.36 255.23 259.60 253.99 258.35
C 251.06 255.43 246.70 259.25 249.34 262.44
C 250.85 264.26 253.12 263.93 254.55 261.66"/>
<path fill="#000000" stroke="none" d="
M 219.96 261.89
C 216.09 258.02 218.90 251.14 224.36 251.14
C 227.50 251.14 230.71 254.36 230.71 257.49
C 230.71 260.63 227.50 263.84 224.36 263.84
C 223.01 263.84 221.04 262.96 219.96 261.89
M 227.17 258.73
C 227.99 257.43 227.86 256.67 226.62 255.42
C 223.68 252.50 219.32 256.32 221.96 259.50
C 223.48 261.33 225.75 261.00 227.17 258.73"/>
<path fill="#000000" stroke="none" d="
M 416.46 259.93
C 415.38 258.86 414.50 256.89 414.50 255.54
C 414.50 254.19 415.38 252.21 416.46 251.14
C 417.53 250.07 419.51 249.19 420.86 249.19
C 422.21 249.19 424.18 250.07 425.26 251.14
C 426.33 252.21 427.21 254.19 427.21 255.54
C 427.21 256.89 426.33 258.86 425.26 259.93
C 424.18 261.01 422.21 261.89 420.86 261.89
C 419.51 261.89 417.53 261.01 416.46 259.93
M 423.67 256.78
C 424.48 255.48 424.36 254.72 423.12 253.47
C 420.18 250.54 415.82 254.36 418.46 257.55
C 419.98 259.38 422.24 259.05 423.67 256.78"/>
<path fill="#000000" stroke="none" d="
M 273.73 257.98
C 272.65 256.91 271.77 254.93 271.77 253.58
C 271.77 252.23 272.65 250.26 273.73 249.19
C 274.80 248.11 276.78 247.23 278.13 247.23
C 279.48 247.23 281.45 248.11 282.53 249.19
C 283.60 250.26 284.48 252.23 284.48 253.58
C 284.48 254.93 283.60 256.91 282.53 257.98
C 281.45 259.06 279.48 259.93 278.13 259.93
C 276.78 259.93 274.80 259.06 273.73 257.98
M 280.94 254.82
C 281.75 253.52 281.63 252.76 280.39 251.51
C 277.45 248.59 273.09 252.41 275.73 255.60
C 277.25 257.42 279.52 257.09 280.94 254.82"/>
<path fill="#000000" stroke="none" d="
M 390.06 254.07
C 386.19 250.20 389.01 243.32 394.46 243.32
C 397.60 243.32 400.82 246.54 400.82 249.67
C 400.82 251.02 399.94 253.00 398.86 254.07
C 397.79 255.15 395.81 256.03 394.46 256.03
C 393.11 256.03 391.14 255.15 390.06 254.07
M 397.28 250.92
C 398.09 249.62 397.96 248.85 396.72 247.60
C 393.79 244.68 389.43 248.50 392.07 251.69
C 393.58 253.51 395.85 253.18 397.28 250.92"/>
<path fill="#000000" stroke="none" d="
M 302.08 249.19
C 298.21 245.32 301.02 238.44 306.48 238.44
C 309.62 238.44 312.83 241.65 312.83 244.79
C 312.83 247.93 309.62 251.14 306.48 251.14
C 305.13 251.14 303.15 250.26 302.08 249.19
M 309.29 246.03
C 310.10 244.73 309.98 243.97 308.74 242.72
C 305.80 239.79 301.44 243.62 304.08 246.80
C 305.60 248.63 307.87 248.30 309.29 246.03"/>
<path fill="#000000" stroke="none" d="
M 359.76 248.21
C 355.89 244.34 358.70 237.46 364.16 237.46
C 367.29 237.46 370.51 240.67 370.51 243.81
C 370.51 246.95 367.29 250.16 364.16 250.16
C 362.81 250.16 360.83 249.28 359.76 248.21
M 366.97 245.05
C 367.78 243.75 367.66 242.99 366.41 241.74
C 363.48 238.82 359.12 242.64 361.76 245.82
C 363.28 247.65 365.54 247.32 366.97 245.05"/>
<path fill="#000000" stroke="none" d="
M 332.38 245.28
C 328.51 241.41 331.33 234.53 336.78 234.53
C 339.92 234.53 343.14 237.74 343.14 240.88
C 343.14 244.02 339.92 247.23 336.78 247.23
C 335.43 247.23 333.46 246.35 332.38 245.28
M 339.60 242.12
C 340.41 240.82 340.28 240.06 339.04 238.81
C 336.11 235.89 331.75 239.71 334.39 242.89
C 335.90 244.72 338.17 244.39 339.60 242.12"/>
<path fill="#000000" stroke="none" d="
M 197.48 244.30
C 196.40 243.22 195.52 241.25 195.52 239.90
C 195.52 238.55 196.40 236.58 197.48 235.50
C 198.55 234.43 200.53 233.55 201.87 233.55
C 203.22 233.55 205.20 234.43 206.27 235.50
C 207.35 236.58 208.23 238.55 208.23 239.90
C 208.23 241.25 207.35 243.22 206.27 244.30
C 205.20 245.37 203.22 246.25 201.87 246.25
C 200.53 246.25 198.55 245.37 197.48 244.30
M 204.69 241.14
C 205.50 239.84 205.37 239.08 204.13 237.83
C 201.20 234.91 196.84 238.73 199.48 241.92
C 200.99 243.74 203.26 243.41 204.69 241.14"/>
<path fill="#000000" stroke="none" d="
M 182.81 225.73
C 181.74 224.66 180.86 222.68 180.86 221.34
C 180.86 219.99 181.74 218.01 182.81 216.94
C 183.89 215.86 185.86 214.98 187.21 214.98
C 188.56 214.98 190.53 215.86 191.61 216.94
C 192.68 218.01 193.56 219.99 193.56 221.34
C 193.56 222.68 192.68 224.66 191.61 225.73
C 190.53 226.81 188.56 227.69 187.21 227.69
C 185.86 227.69 183.89 226.81 182.81 225.73
M 190.03 222.58
C 190.84 221.28 190.71 220.51 189.47 219.26
C 186.54 216.34 182.18 220.16 184.82 223.35
C 186.33 225.18 188.60 224.84 190.03 222.58"/>
<path fill="#000000" stroke="none" d="
M 134.37 209.66
C 132.72 208.00 131.98 206.17 131.98 203.75
C 131.98 201.32 132.72 199.50 134.37 197.83
C 136.03 196.18 137.86 195.44 140.29 195.44
C 142.71 195.44 144.54 196.18 146.20 197.83
C 147.85 199.50 148.60 201.32 148.60 203.75
C 148.60 206.17 147.85 208.00 146.20 209.66
C 144.54 211.31 142.71 212.05 140.29 212.05
C 137.86 212.05 136.03 211.31 134.37 209.66
M 144.13 207.59
C 146.86 204.85 145.13 198.37 141.68 198.37
C 140.30 198.37 140.60 199.94 142.24 201.30
C 143.04 201.97 143.71 203.07 143.71 203.75
C 143.71 204.42 143.04 205.52 142.24 206.19
C 141.44 206.85 140.77 207.79 140.77 208.26
C 140.77 209.61 142.44 209.27 144.13 207.59"/>
<path fill="#c45a40" stroke="none" d="
M 196.69 140.52
C 195.80 139.63 195.52 124.72 195.52 79.40
C 195.52 13.91 195.26 17.04 201.33 11.27
C 203.99 8.75 205.11 8.36 210.12 8.34
C 215.10 8.31 216.36 8.71 219.62 11.33
C 225.39 15.96 228.14 20.82 233.15 35.18
C 240.86 57.29 250.85 74.84 262.83 87.30
C 292.26 117.95 341.69 125.23 380.00 104.57
C 403.98 91.64 420.50 69.84 432.60 35.18
C 437.60 20.82 440.36 15.96 446.12 11.33
C 449.35 8.73 450.66 8.31 455.59 8.31
C 460.60 8.31 461.68 8.67 464.38 11.24
C 470.50 17.05 470.23 13.87 470.23 79.40
C 470.23 124.72 469.94 139.63 469.05 140.52
C 467.35 142.22 198.39 142.22 196.69 140.52"/>
<path fill="#fca022" stroke="none" d="
M 240.00 275.46
C 232.86 274.44 221.80 271.16 216.75 268.59
C 210.95 265.63 206.03 260.68 194.92 246.59
C 178.75 226.07 174.68 223.79 157.80 225.79
C 145.18 227.29 135.08 226.60 127.66 223.77
L 121.88 221.56
L 124.48 220.19
C 127.29 218.72 127.93 216.22 125.71 215.37
C 124.95 215.08 122.88 215.59 121.12 216.50
C 118.01 218.11 117.87 218.10 116.15 215.97
C 111.00 209.62 118.24 200.47 133.47 194.10
C 150.79 186.85 159.23 186.78 174.18 193.80
C 179.38 196.24 185.35 199.79 187.46 201.69
C 189.58 203.60 194.89 210.42 199.28 216.85
C 209.31 231.52 215.42 238.23 222.07 241.87
C 226.58 244.33 228.57 244.77 236.66 245.10
C 249.14 245.62 256.25 244.04 281.15 235.19
C 334.53 216.22 345.11 216.94 417.44 244.31
C 469.17 263.89 484.14 266.51 526.87 263.45
C 550.72 261.75 578.42 261.41 580.60 262.78
C 581.65 263.45 581.32 263.97 579.13 265.10
C 574.87 267.30 569.68 268.48 556.74 270.16
C 526.67 274.06 501.37 274.07 460.45 270.20
C 433.11 267.62 378.16 263.68 362.04 263.14
C 344.09 262.54 340.13 262.99 307.46 269.32
C 272.60 276.07 255.18 277.65 240.00 275.46
M 256.13 264.82
C 257.21 263.75 258.09 261.77 258.09 260.42
C 258.09 259.07 257.21 257.10 256.13 256.03
C 252.26 252.16 245.38 254.97 245.38 260.42
C 245.38 263.56 248.59 266.78 251.73 266.78
C 253.08 266.78 255.06 265.90 256.13 264.82
M 228.76 261.89
C 232.63 258.02 229.81 251.14 224.36 251.14
C 221.22 251.14 218.00 254.36 218.00 257.49
C 218.00 260.63 221.22 263.84 224.36 263.84
C 225.71 263.84 227.68 262.96 228.76 261.89
M 425.26 259.93
C 426.33 258.86 427.21 256.89 427.21 255.54
C 427.21 254.19 426.33 252.21 425.26 251.14
C 424.18 250.07 422.21 249.19 420.86 249.19
C 419.51 249.19 417.53 250.07 416.46 251.14
C 415.38 252.21 414.50 254.19 414.50 255.54
C 414.50 256.89 415.38 258.86 416.46 259.93
C 417.53 261.01 419.51 261.89 420.86 261.89
C 422.21 261.89 424.18 261.01 425.26 259.93
M 282.53 257.98
C 283.60 256.91 284.48 254.93 284.48 253.58
C 284.48 252.23 283.60 250.26 282.53 249.19
C 281.45 248.11 279.48 247.23 278.13 247.23
C 276.78 247.23 274.80 248.11 273.73 249.19
C 272.65 250.26 271.77 252.23 271.77 253.58
C 271.77 254.93 272.65 256.91 273.73 257.98
C 274.80 259.06 276.78 259.93 278.13 259.93
C 279.48 259.93 281.45 259.06 282.53 257.98
M 398.86 254.07
C 402.73 250.20 399.92 243.32 394.46 243.32
C 391.32 243.32 388.11 246.54 388.11 249.67
C 388.11 251.02 388.99 253.00 390.06 254.07
C 391.14 255.15 393.11 256.03 394.46 256.03
C 395.81 256.03 397.79 255.15 398.86 254.07
M 310.88 249.19
C 314.75 245.32 311.93 238.44 306.48 238.44
C 303.34 238.44 300.12 241.65 300.12 244.79
C 300.12 247.93 303.34 251.14 306.48 251.14
C 307.83 251.14 309.80 250.26 310.88 249.19
M 368.56 248.21
C 372.43 244.34 369.61 237.46 364.16 237.46
C 361.02 237.46 357.80 240.67 357.80 243.81
C 357.80 246.95 361.02 250.16 364.16 250.16
C 365.51 250.16 367.48 249.28 368.56 248.21
M 341.18 245.28
C 345.05 241.41 342.24 234.53 336.78 234.53
C 333.65 234.53 330.43 237.74 330.43 240.88
C 330.43 244.02 333.65 247.23 336.78 247.23
C 338.13 247.23 340.11 246.35 341.18 245.28
M 206.27 244.30
C 207.35 243.22 208.23 241.25 208.23 239.90
C 208.23 238.55 207.35 236.58 206.27 235.50
C 205.20 234.43 203.22 233.55 201.87 233.55
C 200.53 233.55 198.55 234.43 197.48 235.50
C 196.40 236.58 195.52 238.55 195.52 239.90
C 195.52 241.25 196.40 243.22 197.48 244.30
C 198.55 245.37 200.53 246.25 201.87 246.25
C 203.22 246.25 205.20 245.37 206.27 244.30
M 191.61 225.73
C 192.68 224.66 193.56 222.68 193.56 221.34
C 193.56 219.99 192.68 218.01 191.61 216.94
C 190.53 215.86 188.56 214.98 187.21 214.98
C 185.86 214.98 183.89 215.86 182.81 216.94
C 181.74 218.01 180.86 219.99 180.86 221.34
C 180.86 222.68 181.74 224.66 182.81 225.73
C 183.89 226.81 185.86 227.69 187.21 227.69
C 188.56 227.69 190.53 226.81 191.61 225.73
M 146.20 209.66
C 147.85 208.00 148.60 206.17 148.60 203.75
C 148.60 201.32 147.85 199.50 146.20 197.83
C 144.54 196.18 142.71 195.44 140.29 195.44
C 137.86 195.44 136.03 196.18 134.37 197.83
C 132.72 199.50 131.98 201.32 131.98 203.75
C 131.98 206.17 132.72 208.00 134.37 209.66
C 136.03 211.31 137.86 212.05 140.29 212.05
C 142.71 212.05 144.54 211.31 146.20 209.66"/>
<path fill="#eb2e00" stroke="none" d="
M 140.77 208.26
C 140.77 207.79 141.44 206.85 142.24 206.19
C 144.11 204.64 144.10 203.35 142.17 201.23
C 140.20 199.06 142.02 197.80 144.12 199.90
C 146.09 201.88 146.10 205.61 144.13 207.59
C 142.44 209.27 140.77 209.61 140.77 208.26"/>
<path fill="#762b17" stroke="none" d="
M 249.34 262.44
C 246.70 259.25 251.06 255.43 253.99 258.35
C 255.23 259.60 255.36 260.36 254.55 261.66
C 253.12 263.93 250.85 264.26 249.34 262.44"/>
<path fill="#762b17" stroke="none" d="
M 221.96 259.50
C 219.32 256.32 223.68 252.50 226.62 255.42
C 227.86 256.67 227.99 257.43 227.17 258.73
C 225.75 261.00 223.48 261.33 221.96 259.50"/>
<path fill="#762b17" stroke="none" d="
M 418.46 257.55
C 415.82 254.36 420.18 250.54 423.12 253.47
C 424.36 254.72 424.48 255.48 423.67 256.78
C 422.24 259.05 419.98 259.38 418.46 257.55"/>
<path fill="#762b17" stroke="none" d="
M 275.73 255.60
C 273.09 252.41 277.45 248.59 280.39 251.51
C 281.63 252.76 281.75 253.52 280.94 254.82
C 279.52 257.09 277.25 257.42 275.73 255.60"/>
<path fill="#762b17" stroke="none" d="
M 392.07 251.69
C 389.43 248.50 393.79 244.68 396.72 247.60
C 397.96 248.85 398.09 249.62 397.28 250.92
C 395.85 253.18 393.58 253.51 392.07 251.69"/>
<path fill="#762b17" stroke="none" d="
M 304.08 246.80
C 301.44 243.62 305.80 239.79 308.74 242.72
C 309.98 243.97 310.10 244.73 309.29 246.03
C 307.87 248.30 305.60 248.63 304.08 246.80"/>
<path fill="#762b17" stroke="none" d="
M 361.76 245.82
C 359.12 242.64 363.48 238.82 366.41 241.74
C 367.66 242.99 367.78 243.75 366.97 245.05
C 365.54 247.32 363.28 247.65 361.76 245.82"/>
<path fill="#762b17" stroke="none" d="
M 334.39 242.89
C 331.75 239.71 336.11 235.89 339.04 238.81
C 340.28 240.06 340.41 240.82 339.60 242.12
C 338.17 244.39 335.90 244.72 334.39 242.89"/>
<path fill="#762b17" stroke="none" d="
M 199.48 241.92
C 196.84 238.73 201.20 234.91 204.13 237.83
C 205.37 239.08 205.50 239.84 204.69 241.14
C 203.26 243.41 200.99 243.74 199.48 241.92"/>
<path fill="#762b17" stroke="none" d="
M 184.99 223.61
C 183.21 221.83 183.52 220.07 185.86 218.83
C 188.69 217.32 191.65 219.99 190.03 222.58
C 188.67 224.72 186.54 225.16 184.99 223.61"/>
<path fill="#ffa153" stroke="none" d="
M 55.11 352.29
C 51.82 351.58 46.62 349.81 43.56 348.36
C 37.25 345.37 25.59 336.42 20.58 330.71
L 17.22 326.87
L 23.41 326.58
C 28.86 326.32 29.91 326.57 32.15 328.67
C 40.44 336.43 52.59 342.40 62.57 343.63
C 70.82 344.66 87.19 338.10 96.20 330.18
L 100.51 326.38
L 110.13 326.42
L 119.76 326.46
L 115.85 329.93
C 110.33 334.81 95.67 343.74 87.01 347.48
C 80.18 350.44 66.87 353.84 62.85 353.67
C 61.89 353.63 58.40 353.00 55.11 352.29"/>
<path fill="#ffa153" stroke="none" d="
M 8.80 298.29
C 8.80 293.68 14.20 275.16 17.58 268.17
C 23.41 256.11 31.09 250.11 40.57 250.20
C 51.68 250.31 82.23 270.44 106.07 293.36
L 112.91 299.94
L 105.58 299.97
L 98.25 299.99
L 87.50 290.12
C 63.76 268.32 57.28 263.56 47.20 260.51
L 41.27 258.71
L 35.89 261.18
C 27.73 264.92 24.76 270.85 21.00 290.96
L 19.31 300.00
L 14.06 300.00
C 9.70 300.00 8.80 299.71 8.80 298.29"/>
<path fill="#c55436" stroke="none" d="
M 302.08 431.93
L 302.08 393.84
L 306.48 395.97
L 310.88 398.11
L 310.88 434.07
L 310.88 470.03
L 306.48 470.03
L 302.08 470.03
L 302.08 431.93"/>
<path fill="#c55436" stroke="none" d="
M 306.23 373.64
L 302.08 371.14
L 302.08 348.76
L 302.08 326.38
L 306.48 326.38
L 310.88 326.38
L 310.88 351.30
C 310.88 365.00 310.77 376.20 310.63 376.18
C 310.50 376.16 308.52 375.02 306.23 373.64"/>
<path fill="#c55436" stroke="none" d="
M 15.64 317.59
C 13.35 315.30 13.12 311.90 15.07 309.22
C 16.44 307.36 20.67 307.33 306.05 307.08
C 519.82 306.90 595.98 307.12 596.96 307.93
C 598.60 309.29 598.71 316.78 597.12 318.37
C 596.21 319.28 530.38 319.54 306.77 319.54
C 18.90 319.54 17.59 319.53 15.64 317.59"/>
<path fill="#ef907a" stroke="none" d="
M 340.71 397.61
C 310.62 393.22 277.86 376.63 253.61 353.49
C 244.28 344.59 231.69 329.54 231.69 327.30
C 231.69 326.79 234.10 326.38 237.04 326.38
L 242.40 326.38
L 248.81 335.12
C 268.79 362.33 307.46 386.24 343.06 393.38
C 348.89 394.55 354.18 394.90 361.14 394.57
C 370.09 394.16 370.71 394.24 367.82 395.43
C 364.43 396.84 353.07 398.73 349.00 398.56
C 347.65 398.50 343.93 398.07 340.71 397.61"/>
<path fill="#ef907a" stroke="none" d="
M 378.20 358.80
C 374.46 352.11 367.38 343.01 359.05 334.16
L 351.73 326.38
L 357.21 326.38
C 362.48 326.38 362.78 326.53 365.56 330.37
C 370.77 337.56 382.36 361.78 381.16 362.97
C 380.94 363.19 379.62 361.31 378.20 358.80"/>
<path fill="#0885ff" stroke="none" d="
M 5.87 594.14
C 3.96 592.23 3.91 590.88 3.91 535.20
C 3.91 487.53 4.14 477.92 5.30 476.33
C 6.67 474.46 10.98 474.43 304.92 474.19
C 602.27 473.93 603.18 473.94 605.13 475.90
C 607.05 477.81 607.09 479.11 607.09 535.02
C 607.09 590.88 607.04 592.23 605.13 594.14
C 603.19 596.08 601.88 596.09 305.50 596.09
C 9.12 596.09 7.81 596.08 5.87 594.14
M 54.75 563.36
L 54.75 539.41
L 30.79 539.41
L 6.84 539.41
L 6.84 563.36
L 6.84 587.30
L 30.79 587.30
L 54.75 587.30
L 54.75 563.36
M 115.36 563.36
L 115.36 539.41
L 89.45 539.41
L 63.54 539.41
L 63.54 563.36
L 63.54 587.30
L 89.45 587.30
L 115.36 587.30
L 115.36 563.36
M 177.92 563.36
L 177.92 539.41
L 151.04 539.41
L 124.16 539.41
L 124.16 563.36
L 124.16 587.30
L 151.04 587.30
L 177.92 587.30
L 177.92 563.36
M 239.51 563.36
L 239.51 539.41
L 213.12 539.41
L 186.72 539.41
L 186.72 563.36
L 186.72 587.30
L 213.12 587.30
L 239.51 587.30
L 239.51 563.36
M 302.08 563.36
L 302.08 539.41
L 275.19 539.41
L 248.31 539.41
L 248.31 563.36
L 248.31 587.30
L 275.19 587.30
L 302.08 587.30
L 302.08 563.36
M 362.69 563.36
L 362.69 539.41
L 336.78 539.41
L 310.88 539.41
L 310.88 563.36
L 310.88 587.30
L 336.78 587.30
L 362.69 587.30
L 362.69 563.36
M 424.28 563.36
L 424.28 539.41
L 397.88 539.41
L 371.49 539.41
L 371.49 563.36
L 371.49 587.30
L 397.88 587.30
L 424.28 587.30
L 424.28 563.36
M 486.84 563.36
L 486.84 539.41
L 459.96 539.41
L 433.08 539.41
L 433.08 563.36
L 433.08 587.30
L 459.96 587.30
L 486.84 587.30
L 486.84 563.36
M 547.46 563.36
L 547.46 539.41
L 521.55 539.41
L 495.64 539.41
L 495.64 563.36
L 495.64 587.30
L 521.55 587.30
L 547.46 587.30
L 547.46 563.36
M 604.16 563.36
L 604.16 539.41
L 580.21 539.41
L 556.25 539.41
L 556.25 563.36
L 556.25 587.30
L 580.21 587.30
L 604.16 587.30
L 604.16 563.36
M 54.75 506.68
L 54.75 482.74
L 30.79 482.74
L 6.84 482.74
L 6.84 506.68
L 6.84 530.62
L 30.79 530.62
L 54.75 530.62
L 54.75 506.68
M 115.36 506.68
L 115.36 482.74
L 89.45 482.74
L 63.54 482.74
L 63.54 506.68
L 63.54 530.62
L 89.45 530.62
L 115.36 530.62
L 115.36 506.68
M 177.92 506.68
L 177.92 482.74
L 151.04 482.74
L 124.16 482.74
L 124.16 506.68
L 124.16 530.62
L 151.04 530.62
L 177.92 530.62
L 177.92 506.68
M 239.51 506.68
L 239.51 482.74
L 213.12 482.74
L 186.72 482.74
L 186.72 506.68
L 186.72 530.62
L 213.12 530.62
L 239.51 530.62
L 239.51 506.68
M 302.08 506.68
L 302.08 482.74
L 275.19 482.74
L 248.31 482.74
L 248.31 506.68
L 248.31 530.62
L 275.19 530.62
L 302.08 530.62
L 302.08 506.68
M 362.69 506.68
L 362.69 482.74
L 336.78 482.74
L 310.88 482.74
L 310.88 506.68
L 310.88 530.62
L 336.78 530.62
L 362.69 530.62
L 362.69 506.68
M 424.28 506.68
L 424.28 482.74
L 397.88 482.74
L 371.49 482.74
L 371.49 506.68
L 371.49 530.62
L 397.88 530.62
L 424.28 530.62
L 424.28 506.68
M 486.84 506.68
L 486.84 482.74
L 459.96 482.74
L 433.08 482.74
L 433.08 506.68
L 433.08 530.62
L 459.96 530.62
L 486.84 530.62
L 486.84 506.68
M 547.46 506.68
L 547.46 482.74
L 521.55 482.74
L 495.64 482.74
L 495.64 506.68
L 495.64 530.62
L 521.55 530.62
L 547.46 530.62
L 547.46 506.68
M 604.16 506.68
L 604.16 482.74
L 580.21 482.74
L 556.25 482.74
L 556.25 506.68
L 556.25 530.62
L 580.21 530.62
L 604.16 530.62
L 604.16 506.68"/>
<path fill="#c57a36" stroke="none" d="
M 10.75 563.36
L 10.75 543.32
L 30.79 543.32
L 50.84 543.32
L 50.84 563.36
L 50.84 583.39
L 30.79 583.39
L 10.75 583.39
L 10.75 563.36"/>
<path fill="#c57a36" stroke="none" d="
M 67.45 563.36
L 67.45 543.32
L 89.45 543.32
L 111.45 543.32
L 111.45 563.36
L 111.45 583.39
L 89.45 583.39
L 67.45 583.39
L 67.45 563.36"/>
<path fill="#c57a36" stroke="none" d="
M 128.07 563.36
L 128.07 543.32
L 151.04 543.32
L 174.01 543.32
L 174.01 563.36
L 174.01 583.39
L 151.04 583.39
L 128.07 583.39
L 128.07 563.36"/>
<path fill="#c57a36" stroke="none" d="
M 190.63 563.36
L 190.63 543.32
L 213.12 543.32
L 235.60 543.32
L 235.60 563.36
L 235.60 583.39
L 213.12 583.39
L 190.63 583.39
L 190.63 563.36"/>
<path fill="#c57a36" stroke="none" d="
M 252.22 563.36
L 252.22 543.32
L 275.19 543.32
L 298.17 543.32
L 298.17 563.36
L 298.17 583.39
L 275.19 583.39
L 252.22 583.39
L 252.22 563.36"/>
<path fill="#c57a36" stroke="none" d="
M 314.79 563.36
L 314.79 543.32
L 336.78 543.32
L 358.78 543.32
L 358.78 563.36
L 358.78 583.39
L 336.78 583.39
L 314.79 583.39
L 314.79 563.36"/>
<path fill="#c57a36" stroke="none" d="
M 375.40 563.36
L 375.40 543.32
L 397.88 543.32
L 420.37 543.32
L 420.37 563.36
L 420.37 583.39
L 397.88 583.39
L 375.40 583.39
L 375.40 563.36"/>
<path fill="#c57a36" stroke="none" d="
M 436.99 563.36
L 436.99 543.32
L 459.96 543.32
L 482.93 543.32
L 482.93 563.36
L 482.93 583.39
L 459.96 583.39
L 436.99 583.39
L 436.99 563.36"/>
<path fill="#c57a36" stroke="none" d="
M 499.55 563.36
L 499.55 543.32
L 521.55 543.32
L 543.55 543.32
L 543.55 563.36
L 543.55 583.39
L 521.55 583.39
L 499.55 583.39
L 499.55 563.36"/>
<path fill="#c57a36" stroke="none" d="
M 560.16 563.36
L 560.16 543.32
L 580.21 543.32
L 600.25 543.32
L 600.25 563.36
L 600.25 583.39
L 580.21 583.39
L 560.16 583.39
L 560.16 563.36"/>
<path fill="#c57a36" stroke="none" d="
M 10.98 506.92
L 11.24 487.13
L 31.04 486.87
L 50.84 486.61
L 50.84 506.66
L 50.84 526.71
L 30.77 526.71
L 10.71 526.71
L 10.98 506.92"/>
<path fill="#c57a36" stroke="none" d="
M 67.45 506.68
L 67.45 486.64
L 89.45 486.64
L 111.45 486.64
L 111.45 506.68
L 111.45 526.71
L 89.45 526.71
L 67.45 526.71
L 67.45 506.68"/>
<path fill="#c57a36" stroke="none" d="
M 128.07 506.68
L 128.07 486.64
L 151.04 486.64
L 174.01 486.64
L 174.01 506.68
L 174.01 526.71
L 151.04 526.71
L 128.07 526.71
L 128.07 506.68"/>
<path fill="#c57a36" stroke="none" d="
M 190.63 506.68
L 190.63 486.64
L 213.12 486.64
L 235.60 486.64
L 235.60 506.68
L 235.60 526.71
L 213.12 526.71
L 190.63 526.71
L 190.63 506.68"/>
<path fill="#c57a36" stroke="none" d="
M 252.22 506.68
L 252.22 486.64
L 275.19 486.64
L 298.17 486.64
L 298.17 506.68
L 298.17 526.71
L 275.19 526.71
L 252.22 526.71
L 252.22 506.68"/>
<path fill="#c57a36" stroke="none" d="
M 314.79 506.68
L 314.79 486.64
L 336.78 486.64
L 358.78 486.64
L 358.78 506.68
L 358.78 526.71
L 336.78 526.71
L 314.79 526.71
L 314.79 506.68"/>
<path fill="#c57a36" stroke="none" d="
M 375.40 506.68
L 375.40 486.64
L 397.88 486.64
L 420.37 486.64
L 420.37 506.68
L 420.37 526.71
L 397.88 526.71
L 375.40 526.71
L 375.40 506.68"/>
<path fill="#c57a36" stroke="none" d="
M 436.99 506.68
L 436.99 486.64
L 459.96 486.64
L 482.93 486.64
L 482.93 506.68
L 482.93 526.71
L 459.96 526.71
L 436.99 526.71
L 436.99 506.68"/>
<path fill="#c57a36" stroke="none" d="
M 499.55 506.68
L 499.55 486.64
L 521.55 486.64
L 543.55 486.64
L 543.55 506.68
L 543.55 526.71
L 521.55 526.71
L 499.55 526.71
L 499.55 506.68"/>
<path fill="#c57a36" stroke="none" d="
M 560.16 506.68
L 560.16 486.64
L 580.21 486.64
L 600.25 486.64
L 600.25 506.68
L 600.25 526.71
L 580.21 526.71
L 560.16 526.71
L 560.16 506.68"/>
</g>
</svg>
