<?xml version="1.0" encoding="UTF-8" standalone="no"?>
<!DOCTYPE svg PUBLIC "-//W3C//DTD SVG 1.1//EN"
"http://www.w3.org/Graphics/SVG/1.1/DTD/svg11.dtd">
<svg width="639px" height="600px"
xmlns="http://www.w3.org/2000/svg" version="1.1">
<g transform="translate(0000, 0000) scale(1.0000, 1.0000)">
<path fill="#000000" stroke="none" d="
M 2.04 597.96
C 0.04 595.95 0.00 594.55 0.00 532.03
C 0.00 469.50 0.04 468.10 2.04 466.10
C 4.07 464.07 5.45 464.05 156.44 464.05
L 308.79 464.05
L 308.52 422.57
L 308.25 381.07
L 297.32 374.77
C 291.31 371.32 282.57 365.73 277.90 362.37
C 266.17 353.94 246.14 333.64 238.78 322.74
L 232.74 313.80
L 183.63 313.80
L 134.53 313.80
L 130.91 317.29
C 125.60 322.43 108.10 333.81 98.45 338.43
C 93.83 340.63 85.08 343.65 79.02 345.13
C 68.90 347.58 67.41 347.71 60.90 346.62
C 42.87 343.59 33.17 337.99 16.62 321.05
C 3.95 308.05 1.27 303.18 2.38 295.03
C 6.27 266.36 12.59 247.40 21.45 237.78
C 26.33 232.50 34.27 228.95 41.19 228.97
C 47.63 228.99 61.28 234.17 71.16 240.35
C 81.70 246.93 98.89 260.49 115.49 275.30
L 127.70 286.20
L 152.62 286.20
L 177.55 286.20
L 177.21 280.83
C 177.03 277.88 176.40 267.22 175.84 257.14
C 175.28 247.07 174.64 238.65 174.42 238.44
C 174.21 238.21 167.45 239.04 159.40 240.26
C 143.97 242.59 138.14 242.47 127.06 239.60
C 119.05 237.52 115.47 234.88 108.68 226.06
C 100.56 215.51 100.02 215.24 86.50 215.18
C 76.90 215.14 74.50 214.79 71.01 212.93
C 60.80 207.51 62.73 196.23 74.82 190.64
L 79.70 188.38
L 77.16 186.01
C 74.44 183.45 73.89 180.03 75.86 178.06
C 78.05 175.87 80.09 176.73 85.59 182.16
C 88.79 185.32 91.32 187.08 91.82 186.50
C 92.28 185.96 94.62 183.11 97.04 180.15
C 101.47 174.72 104.57 173.44 107.15 176.01
C 109.21 178.08 108.54 180.36 104.80 183.99
C 102.82 185.90 101.22 187.71 101.22 188.02
C 101.22 188.33 103.72 189.89 106.78 191.49
C 111.17 193.78 113.41 195.96 117.48 201.83
C 126.91 215.48 132.12 218.25 142.91 215.37
C 153.20 212.63 167.89 207.09 168.40 205.78
C 168.99 204.22 163.44 194.22 158.79 188.47
C 156.93 186.16 151.64 181.56 147.04 178.25
C 135.08 169.63 134.96 169.47 134.96 163.47
C 134.96 155.33 139.87 118.84 143.69 98.64
C 154.80 39.90 167.40 8.68 182.72 1.85
C 186.97 -0.04 187.11 -0.03 190.95 1.92
C 206.18 9.69 218.52 40.66 229.49 98.64
C 233.30 118.84 238.22 155.33 238.22 163.47
C 238.22 169.47 238.10 169.63 226.13 178.25
C 221.53 181.56 216.25 186.16 214.39 188.47
C 209.58 194.41 204.19 204.25 204.83 205.90
C 205.12 206.67 206.89 207.63 208.75 208.03
C 210.62 208.43 219.97 211.64 229.53 215.16
C 239.09 218.69 250.22 222.09 254.26 222.72
C 258.31 223.34 273.03 223.85 286.98 223.86
C 312.91 223.86 318.03 224.45 322.23 227.90
C 324.13 229.46 324.40 230.23 323.53 231.71
C 319.69 238.29 298.13 241.83 271.26 240.29
C 251.19 239.14 206.82 235.31 204.22 234.49
C 202.84 234.06 202.44 234.52 202.44 236.52
C 202.44 238.90 200.86 268.18 200.05 280.83
L 199.72 286.20
L 414.76 286.20
C 628.44 286.20 629.81 286.21 631.84 288.25
C 633.60 290.00 633.89 291.65 633.89 300.00
C 633.89 315.59 650.08 313.80 509.09 313.80
L 388.40 313.80
L 391.10 318.14
C 396.07 326.14 403.75 342.86 405.52 349.57
C 410.79 369.42 404.92 385.05 389.67 391.83
C 382.48 395.01 369.49 397.01 361.42 396.18
C 355.71 395.59 339.85 392.46 334.58 390.90
L 332.28 390.22
L 332.28 427.13
L 332.28 464.05
L 483.60 464.05
C 633.55 464.05 634.93 464.07 636.96 466.10
C 638.96 468.10 639.00 469.50 639.00 532.03
C 639.00 594.55 638.96 595.95 636.96 597.96
C 634.92 599.99 633.55 600.00 319.50 600.00
C 5.45 600.00 4.08 599.99 2.04 597.96
M 632.87 593.87
C 634.86 591.87 634.91 590.46 634.91 532.03
C 634.91 473.59 634.86 472.18 632.87 470.19
C 630.83 468.15 629.46 468.14 319.50 468.14
C 9.54 468.14 8.17 468.15 6.13 470.19
C 4.14 472.18 4.09 473.59 4.09 532.03
C 4.09 590.46 4.14 591.87 6.13 593.87
C 8.17 595.90 9.54 595.91 319.50 595.91
C 629.46 595.91 630.83 595.90 632.87 593.87
M 325.12 426.44
L 325.12 388.82
L 320.52 386.59
L 315.92 384.36
L 315.92 424.20
L 315.92 464.05
L 320.52 464.05
L 325.12 464.05
L 325.12 426.44
M 374.45 388.40
C 378.25 387.85 382.85 386.78 384.68 386.02
C 387.69 384.78 387.05 384.70 377.70 385.12
C 340.55 386.85 285.89 357.93 260.21 322.94
L 253.50 313.80
L 247.33 313.80
L 241.15 313.80
L 245.54 320.19
C 247.95 323.70 255.69 332.33 262.74 339.37
C 280.61 357.24 298.45 369.12 321.60 378.53
C 333.12 383.22 345.61 386.74 356.33 388.30
C 364.78 389.53 366.57 389.54 374.45 388.40
M 388.17 376.21
C 390.52 375.15 392.93 373.35 393.54 372.21
C 398.20 363.52 388.66 345.78 367.72 324.28
L 357.52 313.80
L 344.91 313.80
L 332.28 313.80
L 332.28 340.93
L 332.28 368.04
L 336.91 370.03
C 341.34 371.93 357.59 376.58 362.95 377.49
C 364.36 377.72 369.65 377.97 374.71 378.03
C 381.74 378.12 384.91 377.69 388.17 376.21
M 325.12 339.86
L 325.12 313.80
L 320.52 313.80
L 315.92 313.80
L 315.92 337.21
L 315.92 360.61
L 320.27 363.23
C 322.66 364.67 324.72 365.87 324.87 365.89
C 325.01 365.91 325.12 354.19 325.12 339.86
M 308.43 314.14
C 308.21 313.93 297.81 313.88 285.32 314.03
L 262.60 314.31
L 267.64 320.95
C 274.57 330.07 287.04 341.73 298.59 349.90
L 308.25 356.74
L 308.53 335.63
C 308.68 324.02 308.63 314.35 308.43 314.14
M 397.21 346.78
C 394.60 339.76 385.84 322.84 382.32 317.97
C 379.40 313.95 379.10 313.80 373.57 313.80
L 367.85 313.80
L 375.51 321.94
C 384.22 331.19 391.62 340.71 395.54 347.70
C 398.87 353.63 399.62 353.22 397.21 346.78
M 75.44 340.80
C 79.78 339.91 86.78 337.70 90.99 335.87
C 100.05 331.95 115.39 322.61 121.15 317.51
L 125.24 313.88
L 115.17 313.84
L 105.11 313.80
L 100.60 317.76
C 91.19 326.05 74.06 332.91 65.43 331.84
C 54.99 330.55 42.30 324.31 33.63 316.19
C 31.29 313.99 30.18 313.73 24.49 314.00
L 18.00 314.31
L 21.52 318.33
C 26.77 324.30 38.95 333.66 45.56 336.79
C 50.86 339.29 61.19 342.13 65.73 342.34
C 66.74 342.38 71.11 341.69 75.44 340.80
M 83.31 322.05
C 87.81 319.78 92.65 317.01 94.06 315.88
L 96.62 313.84
L 68.70 313.82
C 52.37 313.81 41.01 314.18 41.35 314.72
C 41.66 315.23 44.56 317.41 47.80 319.55
C 61.02 328.35 69.56 328.95 83.31 322.05
M 624.48 305.42
C 626.07 303.83 626.07 296.17 624.48 294.58
C 623.53 293.63 554.68 293.36 320.83 293.36
C 19.76 293.36 18.39 293.37 16.36 295.40
C 15.23 296.52 14.31 298.59 14.31 300.00
C 14.31 301.41 15.23 303.48 16.36 304.60
C 18.39 306.63 19.76 306.64 320.83 306.64
C 554.68 306.64 623.53 306.37 624.48 305.42
M 21.96 276.75
C 25.90 255.71 29.01 249.51 37.53 245.59
L 43.17 243.02
L 49.36 244.90
C 59.90 248.09 66.68 253.06 91.50 275.87
L 102.75 286.19
L 110.42 286.17
L 118.09 286.14
L 110.93 279.25
C 84.96 254.29 53.96 234.16 41.41 234.13
C 28.29 234.09 17.68 247.68 11.76 272.07
C 8.22 286.69 8.12 286.20 14.70 286.20
L 20.19 286.20
L 21.96 276.75
M 84.86 277.80
C 59.48 253.49 47.52 246.45 39.06 250.83
C 33.73 253.58 28.84 263.88 27.12 275.98
C 26.77 278.51 26.23 281.85 25.94 283.39
L 25.40 286.20
L 59.47 286.16
L 93.55 286.12
L 84.86 277.80
M 192.26 285.95
C 192.56 284.39 195.14 234.61 194.93 234.40
C 194.60 234.08 182.89 235.90 182.45 236.34
C 182.24 236.56 184.71 284.50 185.00 285.95
C 185.03 286.09 186.66 286.20 188.63 286.20
C 190.61 286.20 192.23 286.09 192.26 285.95
M 169.72 232.05
C 192.12 227.91 196.77 227.53 209.81 228.85
C 249.55 232.87 267.26 234.20 282.18 234.29
C 297.94 234.39 314.87 232.68 313.35 231.16
C 312.99 230.79 298.81 230.20 281.85 229.83
C 246.87 229.08 246.57 229.04 223.46 220.28
C 203.59 212.75 192.71 210.17 183.91 210.89
C 179.80 211.23 170.77 213.54 160.91 216.78
C 133.54 225.78 125.13 224.96 116.09 212.43
C 113.52 208.88 110.00 204.21 108.25 202.07
C 104.65 197.64 95.67 193.19 90.33 193.19
C 86.42 193.19 74.85 198.09 72.75 200.64
C 70.92 202.87 72.16 204.57 75.10 203.84
C 77.88 203.14 79.41 204.93 77.74 206.93
C 76.11 208.91 82.99 209.94 91.89 209.04
C 101.70 208.06 104.39 209.46 113.58 220.35
C 122.26 230.64 125.04 232.56 134.11 234.59
C 142.07 236.38 148.90 235.89 169.72 232.05
M 196.30 203.71
C 196.30 203.04 198.17 198.90 200.46 194.51
C 205.07 185.70 215.76 173.90 222.10 170.61
C 228.68 167.20 229.41 164.46 228.01 148.33
C 224.38 106.41 209.38 41.26 198.31 19.37
C 195.01 12.81 190.16 8.18 186.59 8.18
C 183.02 8.18 178.16 12.81 174.86 19.37
C 163.80 41.26 148.80 106.41 145.17 148.33
C 143.77 164.46 144.50 167.20 151.08 170.61
C 157.42 173.90 168.10 185.70 172.71 194.51
C 175.00 198.90 176.88 203.04 176.88 203.71
C 176.88 204.58 179.71 204.94 186.59 204.94
C 193.47 204.94 196.30 204.58 196.30 203.71"/>
<path fill="#000000" stroke="none" d="
M 411.95 254.43
C 409.63 252.12 409.75 249.63 412.71 238.16
C 417.06 221.34 430.80 204.18 445.77 196.92
C 461.48 189.27 476.45 187.38 491.36 191.14
C 504.87 194.56 513.63 199.48 522.98 208.93
C 533.97 220.02 539.51 231.23 542.33 248.04
C 542.93 251.59 542.69 252.67 540.93 254.43
C 538.83 256.54 538.19 256.56 476.44 256.56
C 414.69 256.56 414.05 256.54 411.95 254.43
M 532.33 247.79
C 533.20 245.52 528.92 230.45 525.68 224.39
C 522.11 217.73 512.04 207.67 505.39 204.13
C 499.51 201.01 483.77 197.27 476.44 197.27
C 469.11 197.27 453.36 201.01 447.48 204.13
C 440.84 207.67 430.77 217.73 427.20 224.39
C 423.96 230.45 419.67 245.52 420.54 247.79
C 421.10 249.23 427.07 249.40 476.44 249.40
C 525.81 249.40 531.78 249.23 532.33 247.79"/>
<path fill="#000000" stroke="none" d="
M 380.57 151.65
C 378.75 150.87 376.24 145.73 376.24 142.79
C 376.24 137.74 378.44 133.90 382.74 131.41
C 390.40 126.98 394.16 126.53 412.36 127.91
C 421.52 128.60 429.80 128.86 430.76 128.49
C 432.25 127.92 430.23 123.26 416.79 96.37
C 396.70 56.14 395.34 52.75 395.84 44.00
C 397.06 22.33 417.17 10.57 437.14 19.82
C 446.12 23.98 470.21 45.30 485.25 62.41
C 502.93 82.53 511.98 97.21 516.59 113.22
C 519.36 122.87 520.70 124.91 522.30 121.91
C 524.54 117.71 519.39 103.90 505.41 76.66
C 495.72 57.76 490.70 45.27 488.70 35.10
C 486.14 22.13 491.75 10.22 500.41 10.22
C 507.23 10.22 510.23 15.55 514.20 34.75
C 517.43 50.36 518.83 53.78 526.92 65.79
C 539.03 83.75 544.67 96.18 547.58 111.25
C 550.99 128.93 547.84 140.98 538.54 145.79
C 536.63 146.78 530.56 147.74 522.56 148.32
C 515.47 148.83 507.60 149.78 505.07 150.41
C 500.32 151.60 383.18 152.77 380.57 151.65
M 498.93 144.27
C 501.47 143.63 509.34 142.70 516.42 142.19
C 530.41 141.18 533.84 140.02 538.13 134.93
C 546.78 124.66 540.19 100.70 520.79 71.92
C 512.58 59.73 511.44 56.88 507.66 39.17
C 505.14 27.31 501.87 18.40 500.04 18.40
C 498.42 18.40 495.83 22.88 495.21 26.76
C 494.31 32.32 500.32 48.48 511.39 70.20
C 529.64 106.00 534.10 122.25 527.50 128.85
C 525.19 131.16 517.69 131.59 515.01 129.56
C 514.08 128.85 511.72 123.33 509.75 117.28
C 504.27 100.47 495.25 86.42 476.76 65.93
C 462.81 50.47 440.43 30.64 432.15 26.40
C 420.92 20.65 408.51 27.20 403.47 41.52
C 402.04 45.58 402.11 46.04 405.31 53.79
C 409.37 63.61 435.41 115.79 440.32 123.93
C 444.27 130.48 444.18 133.39 439.97 134.98
C 437.62 135.88 408.06 134.69 400.46 133.40
C 396.63 132.75 385.85 138.14 384.88 141.21
C 383.28 146.28 383.77 146.32 441.17 145.85
C 475.64 145.57 495.95 145.01 498.93 144.27"/>
<path fill="#000000" stroke="none" d="
M 7.16 561.67
L 7.16 536.63
L 32.21 536.63
L 57.25 536.63
L 57.25 561.67
L 57.25 586.71
L 32.21 586.71
L 7.16 586.71
L 7.16 561.67
M 53.16 561.67
L 53.16 540.72
L 32.21 540.72
L 11.25 540.72
L 11.25 561.67
L 11.25 582.62
L 32.21 582.62
L 53.16 582.62
L 53.16 561.67"/>
<path fill="#000000" stroke="none" d="
M 66.46 561.67
L 66.46 536.63
L 93.55 536.63
L 120.64 536.63
L 120.64 561.67
L 120.64 586.71
L 93.55 586.71
L 66.46 586.71
L 66.46 561.67
M 116.55 561.67
L 116.55 540.72
L 93.55 540.72
L 70.55 540.72
L 70.55 561.67
L 70.55 582.62
L 93.55 582.62
L 116.55 582.62
L 116.55 561.67"/>
<path fill="#000000" stroke="none" d="
M 129.84 561.67
L 129.84 536.63
L 157.96 536.63
L 186.08 536.63
L 186.08 561.67
L 186.08 586.71
L 157.96 586.71
L 129.84 586.71
L 129.84 561.67
M 181.99 561.67
L 181.99 540.72
L 157.96 540.72
L 133.93 540.72
L 133.93 561.67
L 133.93 582.62
L 157.96 582.62
L 181.99 582.62
L 181.99 561.67"/>
<path fill="#000000" stroke="none" d="
M 195.28 561.67
L 195.28 536.63
L 222.88 536.63
L 250.49 536.63
L 250.49 561.67
L 250.49 586.71
L 222.88 586.71
L 195.28 586.71
L 195.28 561.67
M 246.40 561.67
L 246.40 540.72
L 222.88 540.72
L 199.37 540.72
L 199.37 561.67
L 199.37 582.62
L 222.88 582.62
L 246.40 582.62
L 246.40 561.67"/>
<path fill="#000000" stroke="none" d="
M 259.69 561.67
L 259.69 536.63
L 287.81 536.63
L 315.92 536.63
L 315.92 561.67
L 315.92 586.71
L 287.81 586.71
L 259.69 586.71
L 259.69 561.67
M 311.83 561.67
L 311.83 540.72
L 287.81 540.72
L 263.78 540.72
L 263.78 561.67
L 263.78 582.62
L 287.81 582.62
L 311.83 582.62
L 311.83 561.67"/>
<path fill="#000000" stroke="none" d="
M 325.12 561.67
L 325.12 536.63
L 352.22 536.63
L 379.31 536.63
L 379.31 561.67
L 379.31 586.71
L 352.22 586.71
L 325.12 586.71
L 325.12 561.67
M 375.22 561.67
L 375.22 540.72
L 352.22 540.72
L 329.21 540.72
L 329.21 561.67
L 329.21 582.62
L 352.22 582.62
L 375.22 582.62
L 375.22 561.67"/>
<path fill="#000000" stroke="none" d="
M 388.51 561.67
L 388.51 536.63
L 416.12 536.63
L 443.72 536.63
L 443.72 561.67
L 443.72 586.71
L 416.12 586.71
L 388.51 586.71
L 388.51 561.67
M 439.63 561.67
L 439.63 540.72
L 416.12 540.72
L 392.60 540.72
L 392.60 561.67
L 392.60 582.62
L 416.12 582.62
L 439.63 582.62
L 439.63 561.67"/>
<path fill="#000000" stroke="none" d="
M 452.92 561.67
L 452.92 536.63
L 481.04 536.63
L 509.16 536.63
L 509.16 561.67
L 509.16 586.71
L 481.04 586.71
L 452.92 586.71
L 452.92 561.67
M 505.07 561.67
L 505.07 540.72
L 481.04 540.72
L 457.01 540.72
L 457.01 561.67
L 457.01 582.62
L 481.04 582.62
L 505.07 582.62
L 505.07 561.67"/>
<path fill="#000000" stroke="none" d="
M 518.36 561.67
L 518.36 536.63
L 545.45 536.63
L 572.54 536.63
L 572.54 561.67
L 572.54 586.71
L 545.45 586.71
L 518.36 586.71
L 518.36 561.67
M 568.45 561.67
L 568.45 540.72
L 545.45 540.72
L 522.45 540.72
L 522.45 561.67
L 522.45 582.62
L 545.45 582.62
L 568.45 582.62
L 568.45 561.67"/>
<path fill="#000000" stroke="none" d="
M 581.75 561.67
L 581.75 536.63
L 606.79 536.63
L 631.84 536.63
L 631.84 561.67
L 631.84 586.71
L 606.79 586.71
L 581.75 586.71
L 581.75 561.67
M 627.75 561.67
L 627.75 540.72
L 606.79 540.72
L 585.84 540.72
L 585.84 561.67
L 585.84 582.62
L 606.79 582.62
L 627.75 582.62
L 627.75 561.67"/>
<path fill="#000000" stroke="none" d="
M 7.16 502.39
L 7.16 477.34
L 32.21 477.34
L 57.25 477.34
L 57.25 502.39
L 57.25 527.43
L 32.21 527.43
L 7.16 527.43
L 7.16 502.39
M 53.16 502.39
L 53.16 481.43
L 32.21 481.43
L 11.25 481.43
L 11.25 502.39
L 11.25 523.34
L 32.21 523.34
L 53.16 523.34
L 53.16 502.39"/>
<path fill="#000000" stroke="none" d="
M 66.46 502.39
L 66.46 477.34
L 93.55 477.34
L 120.64 477.34
L 120.64 502.39
L 120.64 527.43
L 93.55 527.43
L 66.46 527.43
L 66.46 502.39
M 116.55 502.39
L 116.55 481.43
L 93.55 481.43
L 70.55 481.43
L 70.55 502.39
L 70.55 523.34
L 93.55 523.34
L 116.55 523.34
L 116.55 502.39"/>
<path fill="#000000" stroke="none" d="
M 129.84 502.39
L 129.84 477.34
L 157.96 477.34
L 186.08 477.34
L 186.08 502.39
L 186.08 527.43
L 157.96 527.43
L 129.84 527.43
L 129.84 502.39
M 181.99 502.39
L 181.99 481.43
L 157.96 481.43
L 133.93 481.43
L 133.93 502.39
L 133.93 523.34
L 157.96 523.34
L 181.99 523.34
L 181.99 502.39"/>
<path fill="#000000" stroke="none" d="
M 195.28 502.39
L 195.28 477.34
L 222.88 477.34
L 250.49 477.34
L 250.49 502.39
L 250.49 527.43
L 222.88 527.43
L 195.28 527.43
L 195.28 502.39
M 246.40 502.39
L 246.40 481.43
L 222.88 481.43
L 199.37 481.43
L 199.37 502.39
L 199.37 523.34
L 222.88 523.34
L 246.40 523.34
L 246.40 502.39"/>
<path fill="#000000" stroke="none" d="
M 259.69 502.39
L 259.69 477.34
L 287.81 477.34
L 315.92 477.34
L 315.92 502.39
L 315.92 527.43
L 287.81 527.43
L 259.69 527.43
L 259.69 502.39
M 311.83 502.39
L 311.83 481.43
L 287.81 481.43
L 263.78 481.43
L 263.78 502.39
L 263.78 523.34
L 287.81 523.34
L 311.83 523.34
L 311.83 502.39"/>
<path fill="#000000" stroke="none" d="
M 325.12 502.39
L 325.12 477.34
L 352.22 477.34
L 379.31 477.34
L 379.31 502.39
L 379.31 527.43
L 352.22 527.43
L 325.12 527.43
L 325.12 502.39
M 375.22 502.39
L 375.22 481.43
L 352.22 481.43
L 329.21 481.43
L 329.21 502.39
L 329.21 523.34
L 352.22 523.34
L 375.22 523.34
L 375.22 502.39"/>
<path fill="#000000" stroke="none" d="
M 388.51 502.39
L 388.51 477.34
L 416.12 477.34
L 443.72 477.34
L 443.72 502.39
L 443.72 527.43
L 416.12 527.43
L 388.51 527.43
L 388.51 502.39
M 439.63 502.39
L 439.63 481.43
L 416.12 481.43
L 392.60 481.43
L 392.60 502.39
L 392.60 523.34
L 416.12 523.34
L 439.63 523.34
L 439.63 502.39"/>
<path fill="#000000" stroke="none" d="
M 452.92 502.39
L 452.92 477.34
L 481.04 477.34
L 509.16 477.34
L 509.16 502.39
L 509.16 527.43
L 481.04 527.43
L 452.92 527.43
L 452.92 502.39
M 505.07 502.39
L 505.07 481.43
L 481.04 481.43
L 457.01 481.43
L 457.01 502.39
L 457.01 523.34
L 481.04 523.34
L 505.07 523.34
L 505.07 502.39"/>
<path fill="#000000" stroke="none" d="
M 518.36 502.39
L 518.36 477.34
L 545.45 477.34
L 572.54 477.34
L 572.54 502.39
L 572.54 527.43
L 545.45 527.43
L 518.36 527.43
L 518.36 502.39
M 568.45 502.39
L 568.45 481.43
L 545.45 481.43
L 522.45 481.43
L 522.45 502.39
L 522.45 523.34
L 545.45 523.34
L 568.45 523.34
L 568.45 502.39"/>
<path fill="#000000" stroke="none" d="
M 581.75 502.39
L 581.75 477.34
L 606.79 477.34
L 631.84 477.34
L 631.84 502.39
L 631.84 527.43
L 606.79 527.43
L 581.75 527.43
L 581.75 502.39
M 627.75 502.39
L 627.75 481.43
L 606.79 481.43
L 585.84 481.43
L 585.84 502.39
L 585.84 523.34
L 606.79 523.34
L 627.75 523.34
L 627.75 502.39"/>
<path fill="#000000" stroke="none" d="
M 81.19 203.03
C 79.96 199.83 81.20 197.79 84.36 197.79
C 87.08 197.79 87.42 198.13 87.42 200.85
C 87.42 203.44 86.98 203.97 84.59 204.25
C 82.80 204.45 81.57 204.01 81.19 203.03"/>
<path fill="#23a023" stroke="none" d="
M 176.88 203.71
C 176.88 203.04 175.00 198.90 172.71 194.51
C 168.10 185.70 157.42 173.90 151.08 170.61
C 144.50 167.20 143.77 164.46 145.17 148.33
C 147.96 116.11 159.01 62.33 168.40 35.34
C 174.77 17.00 179.37 9.87 185.69 8.62
C 192.07 7.34 197.88 15.47 204.78 35.34
C 214.16 62.33 225.21 116.11 228.01 148.33
C 229.41 164.46 228.68 167.20 222.10 170.61
C 215.76 173.90 205.07 185.70 200.46 194.51
C 198.17 198.90 196.30 203.04 196.30 203.71
C 196.30 204.58 193.47 204.94 186.59 204.94
C 179.71 204.94 176.88 204.58 176.88 203.71"/>
<path fill="#f38112" stroke="none" d="
M 386.09 144.87
C 382.91 142.52 384.87 139.33 391.60 135.94
C 395.59 133.92 398.56 133.07 400.46 133.40
C 408.06 134.69 437.62 135.88 439.97 134.98
C 444.18 133.39 444.27 130.48 440.32 123.93
C 435.41 115.79 409.37 63.61 405.31 53.79
C 402.11 46.04 402.04 45.58 403.47 41.52
C 405.82 34.82 409.56 29.97 414.69 26.97
C 423.37 21.88 430.38 23.61 442.88 33.91
C 468.40 54.95 490.31 79.14 502.07 99.27
C 504.32 103.12 507.77 111.23 509.75 117.28
C 511.72 123.33 514.08 128.85 515.01 129.56
C 515.94 130.26 518.68 130.83 521.11 130.83
C 535.73 130.83 533.03 112.07 512.81 73.08
C 504.00 56.13 497.91 41.90 495.79 33.40
C 494.32 27.50 495.78 21.11 499.00 19.38
C 500.82 18.41 501.27 18.81 503.13 23.02
C 504.29 25.61 506.32 32.88 507.66 39.17
C 511.44 56.88 512.58 59.73 520.79 71.92
C 540.19 100.70 546.78 124.66 538.13 134.93
C 533.84 140.02 530.41 141.18 516.42 142.19
C 509.34 142.70 501.47 143.63 498.93 144.27
C 495.95 145.01 475.64 145.57 441.17 145.85
C 396.96 146.22 387.67 146.05 386.09 144.87"/>
<path fill="#fca022" stroke="none" d="
M 134.11 234.59
C 125.04 232.56 122.26 230.64 113.58 220.35
C 104.39 209.46 101.70 208.06 91.89 209.04
C 82.99 209.94 76.11 208.91 77.74 206.93
C 79.41 204.93 77.88 203.14 75.10 203.84
C 71.52 204.74 70.83 202.40 73.91 199.76
C 77.16 196.96 86.92 193.19 90.90 193.19
C 92.50 193.19 96.34 194.31 99.45 195.68
C 105.24 198.24 107.47 200.49 116.09 212.43
C 125.13 224.96 133.54 225.78 160.91 216.78
C 170.77 213.54 179.80 211.23 183.91 210.89
C 192.71 210.17 203.59 212.75 223.46 220.28
C 246.57 229.04 246.87 229.08 281.85 229.83
C 298.81 230.20 312.99 230.79 313.35 231.16
C 314.87 232.68 297.94 234.39 282.18 234.29
C 267.26 234.20 249.55 232.87 209.81 228.85
C 196.77 227.53 192.12 227.91 169.72 232.05
C 148.90 235.89 142.07 236.38 134.11 234.59
M 87.42 200.85
C 87.42 198.13 87.08 197.79 84.36 197.79
C 82.23 197.79 81.20 198.35 80.95 199.64
C 80.31 202.95 81.61 204.58 84.59 204.25
C 86.98 203.97 87.42 203.44 87.42 200.85"/>
<path fill="#d58c46" stroke="none" d="
M 420.54 247.79
C 419.67 245.52 423.96 230.45 427.20 224.39
C 430.79 217.69 440.85 207.66 447.58 204.08
C 453.25 201.06 469.54 197.27 476.87 197.27
C 483.82 197.27 499.67 201.09 505.39 204.13
C 512.04 207.67 522.11 217.73 525.68 224.39
C 528.92 230.45 533.20 245.52 532.33 247.79
C 531.78 249.23 525.81 249.40 476.44 249.40
C 427.07 249.40 421.10 249.23 420.54 247.79"/>
<path fill="#ffa153" stroke="none" d="
M 57.63 340.90
C 54.20 340.15 48.76 338.30 45.56 336.79
C 38.95 333.66 26.77 324.30 21.52 318.33
L 18.00 314.31
L 24.49 314.00
C 30.18 313.73 31.29 313.99 33.63 316.19
C 42.30 324.31 54.99 330.55 65.43 331.84
C 74.06 332.91 91.19 326.05 100.60 317.76
L 105.11 313.80
L 115.17 313.84
L 125.24 313.88
L 121.15 317.51
C 115.39 322.61 100.05 331.95 90.99 335.87
C 83.86 338.96 69.93 342.52 65.73 342.34
C 64.73 342.30 61.08 341.64 57.63 340.90"/>
<path fill="#ffa153" stroke="none" d="
M 9.20 284.41
C 9.20 279.59 14.86 260.22 18.38 252.91
C 24.49 240.30 32.51 234.02 42.43 234.11
C 54.04 234.22 85.99 255.28 110.93 279.25
L 118.09 286.14
L 110.42 286.17
L 102.75 286.19
L 91.50 275.87
C 66.68 253.06 59.90 248.09 49.36 244.90
L 43.17 243.02
L 37.53 245.59
C 29.01 249.51 25.90 255.71 21.96 276.75
L 20.19 286.20
L 14.70 286.20
C 10.14 286.20 9.20 285.89 9.20 284.41"/>
<path fill="#c57a36" stroke="none" d="
M 11.25 561.67
L 11.25 540.72
L 32.21 540.72
L 53.16 540.72
L 53.16 561.67
L 53.16 582.62
L 32.21 582.62
L 11.25 582.62
L 11.25 561.67"/>
<path fill="#c57a36" stroke="none" d="
M 70.55 561.67
L 70.55 540.72
L 93.55 540.72
L 116.55 540.72
L 116.55 561.67
L 116.55 582.62
L 93.55 582.62
L 70.55 582.62
L 70.55 561.67"/>
<path fill="#c57a36" stroke="none" d="
M 133.93 561.67
L 133.93 540.72
L 157.96 540.72
L 181.99 540.72
L 181.99 561.67
L 181.99 582.62
L 157.96 582.62
L 133.93 582.62
L 133.93 561.67"/>
<path fill="#c57a36" stroke="none" d="
M 199.37 561.67
L 199.37 540.72
L 222.88 540.72
L 246.40 540.72
L 246.40 561.67
L 246.40 582.62
L 222.88 582.62
L 199.37 582.62
L 199.37 561.67"/>
<path fill="#c57a36" stroke="none" d="
M 263.78 561.67
L 263.78 540.72
L 287.81 540.72
L 311.83 540.72
L 311.83 561.67
L 311.83 582.62
L 287.81 582.62
L 263.78 582.62
L 263.78 561.67"/>
<path fill="#c57a36" stroke="none" d="
M 329.21 561.67
L 329.21 540.72
L 352.22 540.72
L 375.22 540.72
L 375.22 561.67
L 375.22 582.62
L 352.22 582.62
L 329.21 582.62
L 329.21 561.67"/>
<path fill="#c57a36" stroke="none" d="
M 392.60 561.67
L 392.60 540.72
L 416.12 540.72
L 439.63 540.72
L 439.63 561.67
L 439.63 582.62
L 416.12 582.62
L 392.60 582.62
L 392.60 561.67"/>
<path fill="#c57a36" stroke="none" d="
M 457.01 561.67
L 457.01 540.72
L 481.04 540.72
L 505.07 540.72
L 505.07 561.67
L 505.07 582.62
L 481.04 582.62
L 457.01 582.62
L 457.01 561.67"/>
<path fill="#c57a36" stroke="none" d="
M 522.45 561.67
L 522.45 540.72
L 545.45 540.72
L 568.45 540.72
L 568.45 561.67
L 568.45 582.62
L 545.45 582.62
L 522.45 582.62
L 522.45 561.67"/>
<path fill="#c57a36" stroke="none" d="
M 585.84 561.67
L 585.84 540.72
L 606.79 540.72
L 627.75 540.72
L 627.75 561.67
L 627.75 582.62
L 606.79 582.62
L 585.84 582.62
L 585.84 561.67"/>
<path fill="#c57a36" stroke="none" d="
M 11.25 502.39
L 11.25 481.43
L 32.21 481.43
L 53.16 481.43
L 53.16 502.39
L 53.16 523.34
L 32.21 523.34
L 11.25 523.34
L 11.25 502.39"/>
<path fill="#c57a36" stroke="none" d="
M 70.55 502.39
L 70.55 481.43
L 93.55 481.43
L 116.55 481.43
L 116.55 502.39
L 116.55 523.34
L 93.55 523.34
L 70.55 523.34
L 70.55 502.39"/>
<path fill="#c57a36" stroke="none" d="
M 133.93 502.39
L 133.93 481.43
L 157.96 481.43
L 181.99 481.43
L 181.99 502.39
L 181.99 523.34
L 157.96 523.34
L 133.93 523.34
L 133.93 502.39"/>
<path fill="#c57a36" stroke="none" d="
M 199.37 502.39
L 199.37 481.43
L 222.88 481.43
L 246.40 481.43
L 246.40 502.39
L 246.40 523.34
L 222.88 523.34
L 199.37 523.34
L 199.37 502.39"/>
<path fill="#c57a36" stroke="none" d="
M 263.78 502.39
L 263.78 481.43
L 287.81 481.43
L 311.83 481.43
L 311.83 502.39
L 311.83 523.34
L 287.81 523.34
L 263.78 523.34
L 263.78 502.39"/>
<path fill="#c57a36" stroke="none" d="
M 329.21 502.39
L 329.21 481.43
L 352.22 481.43
L 375.22 481.43
L 375.22 502.39
L 375.22 523.34
L 352.22 523.34
L 329.21 523.34
L 329.21 502.39"/>
<path fill="#c57a36" stroke="none" d="
M 392.60 502.39
L 392.60 481.43
L 416.12 481.43
L 439.63 481.43
L 439.63 502.39
L 439.63 523.34
L 416.12 523.34
L 392.60 523.34
L 392.60 502.39"/>
<path fill="#c57a36" stroke="none" d="
M 457.01 502.39
L 457.01 481.43
L 481.04 481.43
L 505.07 481.43
L 505.07 502.39
L 505.07 523.34
L 481.04 523.34
L 457.01 523.34
L 457.01 502.39"/>
<path fill="#c57a36" stroke="none" d="
M 522.45 502.39
L 522.45 481.43
L 545.45 481.43
L 568.45 481.43
L 568.45 502.39
L 568.45 523.34
L 545.45 523.34
L 522.45 523.34
L 522.45 502.39"/>
<path fill="#c57a36" stroke="none" d="
M 585.84 502.39
L 585.84 481.43
L 606.79 481.43
L 627.75 481.43
L 627.75 502.39
L 627.75 523.34
L 606.79 523.34
L 585.84 523.34
L 585.84 502.39"/>
<path fill="#c57a36" stroke="none" d="
M 185.00 285.95
C 184.67 284.32 182.25 236.53 182.50 236.30
C 182.88 235.91 194.65 234.21 194.99 234.50
C 195.17 234.64 192.51 284.70 192.26 285.95
C 192.23 286.09 190.61 286.20 188.63 286.20
C 186.66 286.20 185.03 286.09 185.00 285.95"/>
<path fill="#c55436" stroke="none" d="
M 315.92 424.20
L 315.92 384.36
L 320.52 386.59
L 325.12 388.82
L 325.12 426.44
L 325.12 464.05
L 320.52 464.05
L 315.92 464.05
L 315.92 424.20"/>
<path fill="#c55436" stroke="none" d="
M 320.27 363.23
L 315.92 360.61
L 315.92 337.21
L 315.92 313.80
L 320.52 313.80
L 325.12 313.80
L 325.12 339.86
C 325.12 354.19 325.01 365.91 324.87 365.89
C 324.72 365.87 322.66 364.67 320.27 363.23"/>
<path fill="#c55436" stroke="none" d="
M 16.36 304.60
C 13.97 302.21 13.72 298.65 15.77 295.85
C 17.20 293.90 21.61 293.87 320.07 293.61
C 543.64 293.42 623.30 293.65 624.32 294.50
C 626.04 295.92 626.15 303.75 624.48 305.42
C 623.53 306.37 554.68 306.64 320.83 306.64
C 19.76 306.64 18.39 306.63 16.36 304.60"/>
<path fill="#ef907a" stroke="none" d="
M 356.33 388.30
C 324.86 383.71 290.60 366.36 265.23 342.15
C 255.48 332.84 242.31 317.10 242.31 314.76
C 242.31 314.23 244.82 313.80 247.90 313.80
L 253.50 313.80
L 260.21 322.94
C 281.11 351.39 321.56 376.41 358.78 383.88
C 364.87 385.10 370.42 385.46 377.70 385.12
C 387.05 384.70 387.69 384.78 384.68 386.02
C 381.13 387.50 369.25 389.47 365.00 389.29
C 363.59 389.23 359.69 388.78 356.33 388.30"/>
<path fill="#ef907a" stroke="none" d="
M 395.54 347.70
C 391.62 340.71 384.22 331.19 375.51 321.94
L 367.85 313.80
L 373.57 313.80
C 379.10 313.80 379.40 313.95 382.32 317.97
C 387.77 325.49 399.88 350.82 398.62 352.07
C 398.40 352.29 397.02 350.33 395.54 347.70"/>
<path fill="#0885ff" stroke="none" d="
M 6.13 593.87
C 4.14 591.87 4.09 590.46 4.09 532.22
C 4.09 482.36 4.32 472.30 5.54 470.64
C 6.97 468.68 11.48 468.65 318.90 468.40
C 629.87 468.13 630.82 468.14 632.87 470.19
C 634.87 472.19 634.91 473.55 634.91 532.03
C 634.91 590.46 634.86 591.87 632.87 593.87
C 630.83 595.90 629.46 595.91 319.50 595.91
C 9.54 595.91 8.17 595.90 6.13 593.87
M 57.25 561.67
L 57.25 536.63
L 32.21 536.63
L 7.16 536.63
L 7.16 561.67
L 7.16 586.71
L 32.21 586.71
L 57.25 586.71
L 57.25 561.67
M 120.64 561.67
L 120.64 536.63
L 93.55 536.63
L 66.46 536.63
L 66.46 561.67
L 66.46 586.71
L 93.55 586.71
L 120.64 586.71
L 120.64 561.67
M 186.08 561.67
L 186.08 536.63
L 157.96 536.63
L 129.84 536.63
L 129.84 561.67
L 129.84 586.71
L 157.96 586.71
L 186.08 586.71
L 186.08 561.67
M 250.49 561.67
L 250.49 536.63
L 222.88 536.63
L 195.28 536.63
L 195.28 561.67
L 195.28 586.71
L 222.88 586.71
L 250.49 586.71
L 250.49 561.67
M 315.92 561.67
L 315.92 536.63
L 287.81 536.63
L 259.69 536.63
L 259.69 561.67
L 259.69 586.71
L 287.81 586.71
L 315.92 586.71
L 315.92 561.67
M 379.31 561.67
L 379.31 536.63
L 352.22 536.63
L 325.12 536.63
L 325.12 561.67
L 325.12 586.71
L 352.22 586.71
L 379.31 586.71
L 379.31 561.67
M 443.72 561.67
L 443.72 536.63
L 416.12 536.63
L 388.51 536.63
L 388.51 561.67
L 388.51 586.71
L 416.12 586.71
L 443.72 586.71
L 443.72 561.67
M 509.16 561.67
L 509.16 536.63
L 481.04 536.63
L 452.92 536.63
L 452.92 561.67
L 452.92 586.71
L 481.04 586.71
L 509.16 586.71
L 509.16 561.67
M 572.54 561.67
L 572.54 536.63
L 545.45 536.63
L 518.36 536.63
L 518.36 561.67
L 518.36 586.71
L 545.45 586.71
L 572.54 586.71
L 572.54 561.67
M 631.84 561.67
L 631.84 536.63
L 606.79 536.63
L 581.75 536.63
L 581.75 561.67
L 581.75 586.71
L 606.79 586.71
L 631.84 586.71
L 631.84 561.67
M 57.25 502.39
L 57.25 477.34
L 32.21 477.34
L 7.16 477.34
L 7.16 502.39
L 7.16 527.43
L 32.21 527.43
L 57.25 527.43
L 57.25 502.39
M 120.64 502.39
L 120.64 477.34
L 93.55 477.34
L 66.46 477.34
L 66.46 502.39
L 66.46 527.43
L 93.55 527.43
L 120.64 527.43
L 120.64 502.39
M 186.08 502.39
L 186.08 477.34
L 157.96 477.34
L 129.84 477.34
L 129.84 502.39
L 129.84 527.43
L 157.96 527.43
L 186.08 527.43
L 186.08 502.39
M 250.49 502.39
L 250.49 477.34
L 222.88 477.34
L 195.28 477.34
L 195.28 502.39
L 195.28 527.43
L 222.88 527.43
L 250.49 527.43
L 250.49 502.39
M 315.92 502.39
L 315.92 477.34
L 287.81 477.34
L 259.69 477.34
L 259.69 502.39
L 259.69 527.43
L 287.81 527.43
L 315.92 527.43
L 315.92 502.39
M 379.31 502.39
L 379.31 477.34
L 352.22 477.34
L 325.12 477.34
L 325.12 502.39
L 325.12 527.43
L 352.22 527.43
L 379.31 527.43
L 379.31 502.39
M 443.72 502.39
L 443.72 477.34
L 416.12 477.34
L 388.51 477.34
L 388.51 502.39
L 388.51 527.43
L 416.12 527.43
L 443.72 527.43
L 443.72 502.39
M 509.16 502.39
L 509.16 477.34
L 481.04 477.34
L 452.92 477.34
L 452.92 502.39
L 452.92 527.43
L 481.04 527.43
L 509.16 527.43
L 509.16 502.39
M 572.54 502.39
L 572.54 477.34
L 545.45 477.34
L 518.36 477.34
L 518.36 502.39
L 518.36 527.43
L 545.45 527.43
L 572.54 527.43
L 572.54 502.39
M 631.84 502.39
L 631.84 477.34
L 606.79 477.34
L 581.75 477.34
L 581.75 502.39
L 581.75 527.43
L 606.79 527.43
L 631.84 527.43
L 631.84 502.39"/>
</g>
</svg>
