<?xml version="1.0" encoding="UTF-8" standalone="no"?>
<!DOCTYPE svg PUBLIC "-//W3C//DTD SVG 1.1//EN"
"http://www.w3.org/Graphics/SVG/1.1/DTD/svg11.dtd">
<svg width="478px" height="600px"
xmlns="http://www.w3.org/2000/svg" version="1.1">
<g transform="translate(0000, 0000) scale(1.0000, 1.0000)">
<path fill="#000000" stroke="none" d="
M 1.53 598.47
C 0.03 596.97 0.00 595.93 0.00 549.17
C 0.00 502.42 0.03 501.37 1.53 499.87
C 3.04 498.36 4.08 498.34 117.02 498.34
L 230.98 498.34
L 230.79 467.32
L 230.59 436.29
L 222.41 431.58
C 217.91 429.00 211.38 424.82 207.88 422.31
C 199.11 416.00 184.13 400.82 178.62 392.68
L 174.10 385.99
L 137.37 385.99
L 100.63 385.99
L 97.92 388.60
C 93.96 392.44 80.86 400.95 73.64 404.41
C 70.19 406.05 63.65 408.31 59.11 409.41
C 51.54 411.25 50.42 411.35 45.56 410.53
C 32.07 408.27 24.81 404.08 12.44 391.41
C 2.95 381.69 0.95 378.05 1.78 371.95
C 4.69 350.51 9.41 336.34 16.05 329.14
C 19.69 325.19 25.64 322.54 30.81 322.56
C 35.63 322.57 45.84 326.45 53.23 331.06
C 61.12 335.98 73.97 346.13 86.39 357.20
L 95.52 365.35
L 283.32 365.35
C 470.10 365.35 471.12 365.36 472.65 366.88
C 473.96 368.19 474.18 369.42 474.18 375.67
C 474.18 387.32 486.29 385.99 380.82 385.99
L 290.54 385.99
L 292.56 389.24
C 296.28 395.21 302.02 407.72 303.35 412.74
C 307.29 427.58 302.90 439.27 291.49 444.34
C 286.11 446.71 276.39 448.21 270.36 447.59
C 266.09 447.15 254.22 444.81 250.28 443.64
L 248.56 443.14
L 248.56 470.74
L 248.56 498.34
L 361.75 498.34
C 473.92 498.34 474.96 498.36 476.47 499.87
C 477.97 501.37 478.00 502.42 478.00 549.17
C 478.00 595.93 477.97 596.97 476.47 598.47
C 474.95 599.99 473.92 600.00 239.00 600.00
C 4.08 600.00 3.05 599.99 1.53 598.47
M 473.41 595.41
C 474.90 593.92 474.94 592.87 474.94 549.17
C 474.94 505.48 474.90 504.42 473.41 502.93
C 471.89 501.41 470.86 501.40 239.00 501.40
C 7.14 501.40 6.11 501.41 4.59 502.93
C 3.10 504.42 3.06 505.48 3.06 549.17
C 3.06 592.87 3.10 593.92 4.59 595.41
C 6.11 596.94 7.14 596.94 239.00 596.94
C 470.86 596.94 471.89 596.94 473.41 595.41
M 243.21 470.22
L 243.21 442.09
L 239.76 440.42
L 236.32 438.75
L 236.32 468.54
L 236.32 498.34
L 239.76 498.34
L 243.21 498.34
L 243.21 470.22
M 280.11 441.77
C 282.95 441.36 286.39 440.56 287.76 439.99
C 290.01 439.06 289.53 439.00 282.53 439.32
C 254.75 440.61 213.86 418.98 194.65 392.82
L 189.63 385.99
L 185.01 385.99
L 180.39 385.99
L 183.67 390.76
C 185.48 393.39 191.27 399.84 196.54 405.11
C 209.91 418.47 223.25 427.35 240.57 434.39
C 249.19 437.90 258.53 440.53 266.55 441.70
C 272.87 442.62 274.21 442.62 280.11 441.77
M 290.37 432.66
C 292.12 431.86 293.93 430.52 294.39 429.67
C 297.87 423.16 290.73 409.90 275.07 393.82
L 267.44 385.99
L 258.01 385.99
L 248.56 385.99
L 248.56 406.27
L 248.56 426.55
L 252.02 428.03
C 255.34 429.45 267.50 432.93 271.50 433.61
C 272.56 433.79 276.51 433.97 280.30 434.02
C 285.56 434.09 287.93 433.77 290.37 432.66
M 243.21 405.48
L 243.21 385.99
L 239.76 385.99
L 236.32 385.99
L 236.32 403.49
L 236.32 420.99
L 239.57 422.95
C 241.36 424.03 242.91 424.92 243.02 424.94
C 243.12 424.95 243.21 416.19 243.21 405.48
M 230.72 386.24
C 230.56 386.09 222.78 386.05 213.43 386.16
L 196.44 386.37
L 200.21 391.34
C 205.39 398.16 214.72 406.88 223.36 412.98
L 230.59 418.10
L 230.79 402.31
C 230.91 393.63 230.87 386.40 230.72 386.24
M 297.13 410.65
C 295.17 405.40 288.63 392.75 285.99 389.11
C 283.81 386.10 283.58 385.99 279.45 385.99
L 275.17 385.99
L 280.90 392.07
C 287.41 398.99 292.95 406.11 295.88 411.34
C 298.37 415.77 298.93 415.47 297.13 410.65
M 56.43 406.18
C 59.68 405.52 64.92 403.86 68.07 402.49
C 74.84 399.56 86.32 392.58 90.63 388.76
L 93.69 386.05
L 86.15 386.02
L 78.63 385.99
L 75.26 388.95
C 68.21 395.15 55.40 400.28 48.95 399.48
C 41.14 398.51 31.64 393.84 25.15 387.78
C 23.40 386.13 22.58 385.93 18.32 386.14
L 13.47 386.37
L 16.10 389.37
C 20.02 393.84 29.14 400.84 34.08 403.18
C 38.05 405.05 45.77 407.17 49.17 407.33
C 49.93 407.36 53.19 406.85 56.43 406.18
M 62.32 392.16
C 65.69 390.46 69.31 388.39 70.36 387.55
L 72.27 386.02
L 51.39 386.00
C 39.17 385.99 30.68 386.27 30.93 386.68
C 31.17 387.06 33.33 388.69 35.75 390.29
C 45.64 396.87 52.04 397.31 62.32 392.16
M 467.14 379.72
C 468.33 378.54 468.33 372.80 467.14 371.62
C 466.43 370.91 414.93 370.70 239.99 370.70
C 14.78 370.70 13.76 370.71 12.24 372.23
C 11.40 373.07 10.71 374.61 10.71 375.67
C 10.71 376.72 11.40 378.27 12.24 379.11
C 13.76 380.63 14.78 380.64 239.99 380.64
C 414.93 380.64 466.43 380.43 467.14 379.72
M 16.43 358.28
C 19.37 342.55 21.70 337.91 28.08 334.98
L 32.29 333.06
L 36.92 334.46
C 44.81 336.85 49.88 340.57 68.45 357.62
L 76.86 365.34
L 82.60 365.33
L 88.33 365.30
L 82.98 360.15
C 63.55 341.49 40.37 326.44 30.97 326.42
C 21.16 326.38 13.22 336.54 8.80 354.79
C 6.15 365.72 6.07 365.35 11.00 365.35
L 15.10 365.35
L 16.43 358.28
M 63.48 359.07
C 44.50 340.89 35.55 335.63 29.22 338.90
C 25.23 340.96 21.58 348.66 20.29 357.71
C 20.02 359.60 19.62 362.09 19.40 363.25
L 19.00 365.35
L 44.49 365.32
L 69.98 365.29
L 63.48 359.07"/>
<path fill="#000000" stroke="none" d="
M 205.35 362.93
C 198.62 362.56 186.40 362.45 178.20 362.69
C 156.32 363.32 152.43 362.22 151.64 355.16
C 151.06 350.01 151.91 346.85 154.83 343.44
C 158.48 339.17 164.26 336.35 180.11 331.09
C 187.68 328.57 203.19 322.56 214.57 317.72
C 225.96 312.89 240.24 307.15 246.31 304.95
C 264.18 298.46 268.95 295.57 272.48 289.09
C 275.87 282.86 276.54 276.49 275.40 261.28
C 273.77 239.34 272.97 212.46 272.28 155.54
C 271.92 125.69 271.27 98.18 270.85 94.39
C 270.42 90.61 269.52 77.37 268.85 64.97
C 268.18 52.57 267.11 37.09 266.47 30.57
C 264.15 6.89 264.15 6.52 266.40 4.27
L 268.38 2.29
L 305.50 2.29
C 342.51 2.29 342.64 2.30 344.28 3.94
C 345.93 5.59 345.93 5.68 345.41 30.50
C 345.14 44.20 344.43 63.22 343.85 72.76
C 343.13 84.67 342.92 98.67 343.20 117.47
C 343.69 151.12 343.20 160.13 337.67 218.98
C 334.31 254.68 332.49 280.67 332.47 293.12
C 332.45 304.38 332.65 306.20 335.01 316.05
C 337.16 325.09 337.57 328.23 337.61 336.31
C 337.67 347.17 336.78 349.80 331.16 355.41
C 325.73 360.84 322.78 361.91 313.19 361.91
L 304.77 361.91
L 294.80 357.13
C 288.43 354.08 283.86 352.36 282.15 352.36
C 280.32 352.36 277.29 353.61 272.64 356.28
C 268.87 358.43 264.49 360.65 262.91 361.22
C 256.07 363.62 231.67 364.35 205.35 362.93
M 248.24 356.87
C 257.00 355.99 258.01 355.64 269.33 349.41
C 279.32 343.91 285.58 344.29 300.03 351.26
C 310.46 356.28 313.64 356.89 318.39 354.79
C 323.36 352.59 328.40 347.65 330.40 343.00
C 332.43 338.29 332.24 334.91 329.25 322.27
C 324.47 302.07 324.79 290.19 332.30 207.52
C 337.14 154.12 337.39 149.13 337.15 110.97
C 337.02 90.15 337.29 71.59 337.84 63.44
C 339.43 40.25 339.96 10.95 338.83 9.58
C 337.98 8.56 333.67 8.41 305.16 8.41
C 278.23 8.41 272.30 8.59 271.58 9.46
C 270.94 10.23 270.91 11.95 271.46 15.77
C 272.53 23.14 273.61 37.48 274.96 61.91
C 275.60 73.47 276.62 89.12 277.24 96.69
C 278.04 106.42 278.36 121.74 278.36 149.04
C 278.36 186.24 279.04 212.69 280.80 243.44
C 282.82 278.87 282.53 286.08 278.78 293.46
C 277.79 295.43 275.66 298.23 274.05 299.68
C 268.86 304.36 267.85 304.84 247.41 312.31
C 243.21 313.85 230.47 319.05 219.12 323.86
C 207.76 328.69 192.39 334.63 184.97 337.09
C 168.94 342.39 164.89 344.32 161.14 348.48
C 157.92 352.03 157.70 353.10 159.80 354.99
C 161.14 356.20 163.88 356.35 189.67 356.55
C 205.29 356.68 218.27 356.99 218.53 357.24
C 219.29 358.01 239.31 357.76 248.24 356.87"/>
<path fill="#000000" stroke="none" d="
M 98.05 356.79
C 96.60 355.35 96.96 352.82 99.04 349.76
C 100.63 347.41 100.95 346.04 100.95 341.59
C 100.95 335.14 102.09 332.29 106.22 328.32
L 109.37 325.29
L 109.37 209.66
L 109.37 94.04
L 107.13 91.54
C 105.91 90.17 104.75 89.22 104.56 89.43
C 103.93 90.11 98.53 102.68 97.00 107.01
C 96.18 109.32 94.85 114.43 94.03 118.36
C 92.49 125.76 90.11 132.12 88.50 133.15
C 87.04 134.07 81.47 133.86 80.46 132.84
C 79.13 131.51 79.33 126.06 81.05 117.26
C 81.86 113.01 83.61 100.63 84.92 89.74
C 86.22 78.85 87.73 69.08 88.27 68.03
C 88.80 66.97 92.69 59.92 96.92 52.34
C 110.84 27.34 112.39 23.84 114.45 12.62
C 116.36 2.25 117.13 0.76 120.60 0.76
C 123.20 0.76 128.05 5.56 130.08 10.14
C 131.52 13.38 131.91 15.84 132.17 23.11
C 132.72 39.15 128.69 50.63 115.03 71.91
C 113.78 73.85 113.80 73.92 117.56 77.66
C 124.46 84.56 123.90 73.20 123.90 207.12
L 123.90 325.29
L 127.05 328.32
C 131.18 332.29 132.31 335.14 132.31 341.59
C 132.31 346.04 132.63 347.41 134.22 349.76
C 138.10 355.46 136.56 357.71 128.78 357.71
C 123.94 357.71 122.96 357.45 120.90 355.73
C 118.62 353.81 118.54 353.55 118.54 347.41
C 118.54 343.09 118.22 340.82 117.53 340.24
C 115.61 338.64 114.72 340.91 114.72 347.47
C 114.72 353.54 114.64 353.82 112.36 355.73
C 110.31 357.45 109.32 357.71 104.49 357.71
C 101.21 357.71 98.59 357.33 98.05 356.79
M 107.60 350.70
C 109.14 349.25 109.37 348.30 109.37 343.38
C 109.37 338.14 109.53 337.55 111.60 335.48
C 113.26 333.83 114.56 333.25 116.63 333.25
C 118.70 333.25 120.00 333.83 121.66 335.48
C 123.72 337.54 123.90 338.16 123.90 343.27
C 123.90 347.92 124.17 349.11 125.56 350.59
C 126.47 351.56 127.58 352.36 128.00 352.36
C 128.47 352.36 128.42 351.98 127.87 351.44
C 127.31 350.87 126.96 348.08 126.96 344.12
L 126.96 337.72
L 122.75 333.32
L 118.54 328.91
L 118.54 210.50
C 118.54 126.92 118.29 91.22 117.70 89.08
C 116.78 85.79 112.56 81.02 110.57 81.02
C 108.02 81.02 108.43 83.33 111.58 86.74
L 114.72 90.16
L 114.72 209.53
L 114.72 328.91
L 110.51 333.32
L 106.31 337.72
L 106.31 344.12
C 106.31 348.08 105.96 350.87 105.39 351.44
C 103.74 353.09 105.78 352.40 107.60 350.70
M 86.42 122.68
C 86.42 122.46 86.25 122.29 86.04 122.29
C 85.83 122.29 85.66 122.46 85.66 122.68
C 85.66 122.89 85.83 123.06 86.04 123.06
C 86.25 123.06 86.42 122.89 86.42 122.68
M 89.45 111.97
C 93.45 98.08 98.69 86.91 109.52 69.17
C 122.73 47.54 126.96 36.83 126.96 24.99
C 126.96 20.98 126.47 16.23 125.86 14.19
C 124.82 10.74 122.79 7.64 121.56 7.64
C 121.26 7.64 120.39 11.69 119.65 16.62
L 118.31 25.61
L 109.15 42.42
C 104.11 51.67 98.66 61.53 97.03 64.33
C 93.46 70.49 92.66 74.06 89.12 99.72
C 85.61 125.21 85.61 125.30 89.45 111.97"/>
<path fill="#000000" stroke="none" d="
M 399.38 356.03
C 397.93 354.58 398.29 352.05 400.37 348.99
C 401.96 346.65 402.28 345.27 402.28 340.83
C 402.28 334.37 403.42 331.52 407.55 327.55
L 410.70 324.53
L 410.70 208.90
L 410.70 93.27
L 408.46 90.78
C 407.24 89.40 406.08 88.46 405.89 88.66
C 405.26 89.34 399.86 101.92 398.33 106.24
C 397.51 108.56 396.18 113.66 395.36 117.59
C 393.83 124.99 391.44 131.36 389.83 132.38
C 388.37 133.31 382.81 133.09 381.79 132.08
C 380.46 130.75 380.66 125.30 382.38 116.49
C 383.20 112.25 384.94 99.87 386.25 88.98
C 387.55 78.08 389.06 68.32 389.60 67.26
C 390.13 66.21 394.02 59.15 398.25 51.58
C 412.16 26.61 413.72 23.07 415.79 11.87
C 416.80 6.41 417.89 1.68 418.20 1.37
C 418.51 1.05 419.84 0.58 421.15 0.32
C 423.15 -0.08 424.01 0.28 426.57 2.61
C 431.47 7.02 433.13 11.76 433.50 22.34
C 434.05 38.38 430.02 49.86 416.36 71.14
C 415.11 73.09 415.13 73.15 418.89 76.90
C 425.79 83.79 425.23 72.44 425.23 206.35
L 425.23 324.53
L 428.38 327.55
C 432.51 331.52 433.64 334.37 433.64 340.83
C 433.64 345.27 433.96 346.65 435.55 348.99
C 439.43 354.70 437.89 356.94 430.11 356.94
C 425.27 356.94 424.29 356.69 422.23 354.96
C 419.95 353.04 419.88 352.78 419.88 346.65
C 419.88 342.33 419.55 340.05 418.87 339.48
C 416.94 337.87 416.05 340.15 416.05 346.71
C 416.05 352.78 415.97 353.05 413.70 354.96
C 411.64 356.69 410.65 356.94 405.82 356.94
C 402.54 356.94 399.92 356.57 399.38 356.03
M 408.93 349.93
C 410.47 348.48 410.70 347.53 410.70 342.61
C 410.70 337.38 410.87 336.79 412.93 334.72
C 414.59 333.06 415.89 332.48 417.96 332.48
C 420.04 332.48 421.34 333.06 423.00 334.72
C 425.05 336.78 425.23 337.39 425.23 342.50
C 425.23 347.15 425.50 348.34 426.89 349.83
C 427.81 350.80 428.91 351.59 429.34 351.59
C 429.80 351.59 429.75 351.22 429.21 350.68
C 428.64 350.11 428.29 347.32 428.29 343.36
L 428.29 336.96
L 424.08 332.55
L 419.88 328.14
L 419.87 209.74
C 419.87 126.15 419.62 90.45 419.03 88.32
C 418.12 85.02 413.89 80.25 411.90 80.25
C 409.35 80.25 409.76 82.56 412.91 85.98
L 416.05 89.40
L 416.05 208.77
L 416.05 328.14
L 411.84 332.55
L 407.64 336.96
L 407.64 343.36
C 407.64 347.32 407.29 350.11 406.72 350.68
C 405.07 352.33 407.11 351.64 408.93 349.93
M 387.75 121.91
C 387.75 121.70 387.58 121.53 387.37 121.53
C 387.16 121.53 386.99 121.70 386.99 121.91
C 386.99 122.12 387.16 122.29 387.37 122.29
C 387.58 122.29 387.75 122.12 387.75 121.91
M 390.78 111.21
C 394.78 97.31 400.02 86.15 410.85 68.41
C 424.06 46.78 428.29 36.06 428.29 24.23
C 428.29 20.22 427.81 15.46 427.19 13.42
C 426.15 9.97 424.12 6.88 422.90 6.88
C 422.59 6.88 421.73 10.92 420.98 15.86
L 419.64 24.84
L 410.48 41.66
C 405.44 50.90 399.99 60.76 398.36 63.57
C 394.79 69.73 393.99 73.29 390.45 98.96
C 386.94 124.44 386.94 124.54 390.78 111.21"/>
<path fill="#000000" stroke="none" d="
M 5.35 571.34
L 5.35 552.61
L 24.09 552.61
L 42.83 552.61
L 42.83 571.34
L 42.83 590.06
L 24.09 590.06
L 5.35 590.06
L 5.35 571.34
M 39.77 571.34
L 39.77 555.67
L 24.09 555.67
L 8.41 555.67
L 8.41 571.34
L 8.41 587.01
L 24.09 587.01
L 39.77 587.01
L 39.77 571.34"/>
<path fill="#000000" stroke="none" d="
M 49.71 571.34
L 49.71 552.61
L 69.98 552.61
L 90.25 552.61
L 90.25 571.34
L 90.25 590.06
L 69.98 590.06
L 49.71 590.06
L 49.71 571.34
M 87.19 571.34
L 87.19 555.67
L 69.98 555.67
L 52.77 555.67
L 52.77 571.34
L 52.77 587.01
L 69.98 587.01
L 87.19 587.01
L 87.19 571.34"/>
<path fill="#000000" stroke="none" d="
M 97.13 571.34
L 97.13 552.61
L 118.16 552.61
L 139.19 552.61
L 139.19 571.34
L 139.19 590.06
L 118.16 590.06
L 97.13 590.06
L 97.13 571.34
M 136.13 571.34
L 136.13 555.67
L 118.16 555.67
L 100.19 555.67
L 100.19 571.34
L 100.19 587.01
L 118.16 587.01
L 136.13 587.01
L 136.13 571.34"/>
<path fill="#000000" stroke="none" d="
M 146.08 571.34
L 146.08 552.61
L 166.73 552.61
L 187.38 552.61
L 187.38 571.34
L 187.38 590.06
L 166.73 590.06
L 146.08 590.06
L 146.08 571.34
M 184.32 571.34
L 184.32 555.67
L 166.73 555.67
L 149.14 555.67
L 149.14 571.34
L 149.14 587.01
L 166.73 587.01
L 184.32 587.01
L 184.32 571.34"/>
<path fill="#000000" stroke="none" d="
M 194.26 571.34
L 194.26 552.61
L 215.29 552.61
L 236.32 552.61
L 236.32 571.34
L 236.32 590.06
L 215.29 590.06
L 194.26 590.06
L 194.26 571.34
M 233.26 571.34
L 233.26 555.67
L 215.29 555.67
L 197.32 555.67
L 197.32 571.34
L 197.32 587.01
L 215.29 587.01
L 233.26 587.01
L 233.26 571.34"/>
<path fill="#000000" stroke="none" d="
M 243.21 571.34
L 243.21 552.61
L 263.47 552.61
L 283.74 552.61
L 283.74 571.34
L 283.74 590.06
L 263.47 590.06
L 243.21 590.06
L 243.21 571.34
M 280.68 571.34
L 280.68 555.67
L 263.47 555.67
L 246.27 555.67
L 246.27 571.34
L 246.27 587.01
L 263.47 587.01
L 280.68 587.01
L 280.68 571.34"/>
<path fill="#000000" stroke="none" d="
M 290.62 571.34
L 290.62 552.61
L 311.27 552.61
L 331.92 552.61
L 331.92 571.34
L 331.92 590.06
L 311.27 590.06
L 290.62 590.06
L 290.62 571.34
M 328.86 571.34
L 328.86 555.67
L 311.27 555.67
L 293.68 555.67
L 293.68 571.34
L 293.68 587.01
L 311.27 587.01
L 328.86 587.01
L 328.86 571.34"/>
<path fill="#000000" stroke="none" d="
M 338.81 571.34
L 338.81 552.61
L 359.84 552.61
L 380.87 552.61
L 380.87 571.34
L 380.87 590.06
L 359.84 590.06
L 338.81 590.06
L 338.81 571.34
M 377.81 571.34
L 377.81 555.67
L 359.84 555.67
L 341.87 555.67
L 341.87 571.34
L 341.87 587.01
L 359.84 587.01
L 377.81 587.01
L 377.81 571.34"/>
<path fill="#000000" stroke="none" d="
M 387.75 571.34
L 387.75 552.61
L 408.02 552.61
L 428.29 552.61
L 428.29 571.34
L 428.29 590.06
L 408.02 590.06
L 387.75 590.06
L 387.75 571.34
M 425.23 571.34
L 425.23 555.67
L 408.02 555.67
L 390.81 555.67
L 390.81 571.34
L 390.81 587.01
L 408.02 587.01
L 425.23 587.01
L 425.23 571.34"/>
<path fill="#000000" stroke="none" d="
M 435.17 571.34
L 435.17 552.61
L 453.91 552.61
L 472.65 552.61
L 472.65 571.34
L 472.65 590.06
L 453.91 590.06
L 435.17 590.06
L 435.17 571.34
M 469.59 571.34
L 469.59 555.67
L 453.91 555.67
L 438.23 555.67
L 438.23 571.34
L 438.23 587.01
L 453.91 587.01
L 469.59 587.01
L 469.59 571.34"/>
<path fill="#000000" stroke="none" d="
M 5.35 527.01
L 5.35 508.28
L 24.09 508.28
L 42.83 508.28
L 42.83 527.01
L 42.83 545.73
L 24.09 545.73
L 5.35 545.73
L 5.35 527.01
M 39.77 527.01
L 39.77 511.34
L 24.09 511.34
L 8.41 511.34
L 8.41 527.01
L 8.41 542.68
L 24.09 542.68
L 39.77 542.68
L 39.77 527.01"/>
<path fill="#000000" stroke="none" d="
M 49.71 527.01
L 49.71 508.28
L 69.98 508.28
L 90.25 508.28
L 90.25 527.01
L 90.25 545.73
L 69.98 545.73
L 49.71 545.73
L 49.71 527.01
M 87.19 527.01
L 87.19 511.34
L 69.98 511.34
L 52.77 511.34
L 52.77 527.01
L 52.77 542.68
L 69.98 542.68
L 87.19 542.68
L 87.19 527.01"/>
<path fill="#000000" stroke="none" d="
M 97.13 527.01
L 97.13 508.28
L 118.16 508.28
L 139.19 508.28
L 139.19 527.01
L 139.19 545.73
L 118.16 545.73
L 97.13 545.73
L 97.13 527.01
M 136.13 527.01
L 136.13 511.34
L 118.16 511.34
L 100.19 511.34
L 100.19 527.01
L 100.19 542.68
L 118.16 542.68
L 136.13 542.68
L 136.13 527.01"/>
<path fill="#000000" stroke="none" d="
M 146.08 527.01
L 146.08 508.28
L 166.73 508.28
L 187.38 508.28
L 187.38 527.01
L 187.38 545.73
L 166.73 545.73
L 146.08 545.73
L 146.08 527.01
M 184.32 527.01
L 184.32 511.34
L 166.73 511.34
L 149.14 511.34
L 149.14 527.01
L 149.14 542.68
L 166.73 542.68
L 184.32 542.68
L 184.32 527.01"/>
<path fill="#000000" stroke="none" d="
M 194.26 527.01
L 194.26 508.28
L 215.29 508.28
L 236.32 508.28
L 236.32 527.01
L 236.32 545.73
L 215.29 545.73
L 194.26 545.73
L 194.26 527.01
M 233.26 527.01
L 233.26 511.34
L 215.29 511.34
L 197.32 511.34
L 197.32 527.01
L 197.32 542.68
L 215.29 542.68
L 233.26 542.68
L 233.26 527.01"/>
<path fill="#000000" stroke="none" d="
M 243.21 527.01
L 243.21 508.28
L 263.47 508.28
L 283.74 508.28
L 283.74 527.01
L 283.74 545.73
L 263.47 545.73
L 243.21 545.73
L 243.21 527.01
M 280.68 527.01
L 280.68 511.34
L 263.47 511.34
L 246.27 511.34
L 246.27 527.01
L 246.27 542.68
L 263.47 542.68
L 280.68 542.68
L 280.68 527.01"/>
<path fill="#000000" stroke="none" d="
M 290.62 527.01
L 290.62 508.28
L 311.27 508.28
L 331.92 508.28
L 331.92 527.01
L 331.92 545.73
L 311.27 545.73
L 290.62 545.73
L 290.62 527.01
M 328.86 527.01
L 328.86 511.34
L 311.27 511.34
L 293.68 511.34
L 293.68 527.01
L 293.68 542.68
L 311.27 542.68
L 328.86 542.68
L 328.86 527.01"/>
<path fill="#000000" stroke="none" d="
M 338.81 527.01
L 338.81 508.28
L 359.84 508.28
L 380.87 508.28
L 380.87 527.01
L 380.87 545.73
L 359.84 545.73
L 338.81 545.73
L 338.81 527.01
M 377.81 527.01
L 377.81 511.34
L 359.84 511.34
L 341.87 511.34
L 341.87 527.01
L 341.87 542.68
L 359.84 542.68
L 377.81 542.68
L 377.81 527.01"/>
<path fill="#000000" stroke="none" d="
M 387.75 527.01
L 387.75 508.28
L 408.02 508.28
L 428.29 508.28
L 428.29 527.01
L 428.29 545.73
L 408.02 545.73
L 387.75 545.73
L 387.75 527.01
M 425.23 527.01
L 425.23 511.34
L 408.02 511.34
L 390.81 511.34
L 390.81 527.01
L 390.81 542.68
L 408.02 542.68
L 425.23 542.68
L 425.23 527.01"/>
<path fill="#000000" stroke="none" d="
M 435.17 527.01
L 435.17 508.28
L 453.91 508.28
L 472.65 508.28
L 472.65 527.01
L 472.65 545.73
L 453.91 545.73
L 435.17 545.73
L 435.17 527.01
M 469.59 527.01
L 469.59 511.34
L 453.91 511.34
L 438.23 511.34
L 438.23 527.01
L 438.23 542.68
L 453.91 542.68
L 469.59 542.68
L 469.59 527.01"/>
<path fill="#000000" stroke="none" d="
M 94.08 85.99
C 91.97 83.46 95.15 76.15 98.16 76.58
C 99.55 76.78 99.80 77.30 99.75 80.00
C 99.65 85.34 96.39 88.78 94.08 85.99"/>
<path fill="#000000" stroke="none" d="
M 395.41 85.23
C 393.31 82.70 396.48 75.39 399.49 75.81
C 400.89 76.01 401.13 76.53 401.08 79.24
C 400.98 84.57 397.72 88.01 395.41 85.23"/>
<path fill="#c57a36" stroke="none" d="
M 8.41 571.34
L 8.41 555.67
L 24.09 555.67
L 39.77 555.67
L 39.77 571.34
L 39.77 587.01
L 24.09 587.01
L 8.41 587.01
L 8.41 571.34"/>
<path fill="#c57a36" stroke="none" d="
M 52.77 571.34
L 52.77 555.67
L 69.98 555.67
L 87.19 555.67
L 87.19 571.34
L 87.19 587.01
L 69.98 587.01
L 52.77 587.01
L 52.77 571.34"/>
<path fill="#c57a36" stroke="none" d="
M 100.19 571.34
L 100.19 555.67
L 118.16 555.67
L 136.13 555.67
L 136.13 571.34
L 136.13 587.01
L 118.16 587.01
L 100.19 587.01
L 100.19 571.34"/>
<path fill="#c57a36" stroke="none" d="
M 149.14 571.34
L 149.14 555.67
L 166.73 555.67
L 184.32 555.67
L 184.32 571.34
L 184.32 587.01
L 166.73 587.01
L 149.14 587.01
L 149.14 571.34"/>
<path fill="#c57a36" stroke="none" d="
M 197.32 571.34
L 197.32 555.67
L 215.29 555.67
L 233.26 555.67
L 233.26 571.34
L 233.26 587.01
L 215.29 587.01
L 197.32 587.01
L 197.32 571.34"/>
<path fill="#c57a36" stroke="none" d="
M 246.27 571.34
L 246.27 555.67
L 263.47 555.67
L 280.68 555.67
L 280.68 571.34
L 280.68 587.01
L 263.47 587.01
L 246.27 587.01
L 246.27 571.34"/>
<path fill="#c57a36" stroke="none" d="
M 293.68 571.34
L 293.68 555.67
L 311.27 555.67
L 328.86 555.67
L 328.86 571.34
L 328.86 587.01
L 311.27 587.01
L 293.68 587.01
L 293.68 571.34"/>
<path fill="#c57a36" stroke="none" d="
M 341.87 571.34
L 341.87 555.67
L 359.84 555.67
L 377.81 555.67
L 377.81 571.34
L 377.81 587.01
L 359.84 587.01
L 341.87 587.01
L 341.87 571.34"/>
<path fill="#c57a36" stroke="none" d="
M 390.81 571.34
L 390.81 555.67
L 408.02 555.67
L 425.23 555.67
L 425.23 571.34
L 425.23 587.01
L 408.02 587.01
L 390.81 587.01
L 390.81 571.34"/>
<path fill="#c57a36" stroke="none" d="
M 438.23 571.34
L 438.23 555.67
L 453.91 555.67
L 469.59 555.67
L 469.59 571.34
L 469.59 587.01
L 453.91 587.01
L 438.23 587.01
L 438.23 571.34"/>
<path fill="#c57a36" stroke="none" d="
M 8.41 527.01
L 8.41 511.34
L 24.09 511.34
L 39.77 511.34
L 39.77 527.01
L 39.77 542.68
L 24.09 542.68
L 8.41 542.68
L 8.41 527.01"/>
<path fill="#c57a36" stroke="none" d="
M 52.77 527.01
L 52.77 511.34
L 69.98 511.34
L 87.19 511.34
L 87.19 527.01
L 87.19 542.68
L 69.98 542.68
L 52.77 542.68
L 52.77 527.01"/>
<path fill="#c57a36" stroke="none" d="
M 100.19 527.01
L 100.19 511.34
L 118.16 511.34
L 136.13 511.34
L 136.13 527.01
L 136.13 542.68
L 118.16 542.68
L 100.19 542.68
L 100.19 527.01"/>
<path fill="#c57a36" stroke="none" d="
M 149.14 527.01
L 149.14 511.34
L 166.73 511.34
L 184.32 511.34
L 184.32 527.01
L 184.32 542.68
L 166.73 542.68
L 149.14 542.68
L 149.14 527.01"/>
<path fill="#c57a36" stroke="none" d="
M 197.32 527.01
L 197.32 511.34
L 215.29 511.34
L 233.26 511.34
L 233.26 527.01
L 233.26 542.68
L 215.29 542.68
L 197.32 542.68
L 197.32 527.01"/>
<path fill="#c57a36" stroke="none" d="
M 246.27 527.01
L 246.27 511.34
L 263.47 511.34
L 280.68 511.34
L 280.68 527.01
L 280.68 542.68
L 263.47 542.68
L 246.27 542.68
L 246.27 527.01"/>
<path fill="#c57a36" stroke="none" d="
M 293.68 527.01
L 293.68 511.34
L 311.27 511.34
L 328.86 511.34
L 328.86 527.01
L 328.86 542.68
L 311.27 542.68
L 293.68 542.68
L 293.68 527.01"/>
<path fill="#c57a36" stroke="none" d="
M 341.87 527.01
L 341.87 511.34
L 359.84 511.34
L 377.81 511.34
L 377.81 527.01
L 377.81 542.68
L 359.84 542.68
L 341.87 542.68
L 341.87 527.01"/>
<path fill="#c57a36" stroke="none" d="
M 390.81 527.01
L 390.81 511.34
L 408.02 511.34
L 425.23 511.34
L 425.23 527.01
L 425.23 542.68
L 408.02 542.68
L 390.81 542.68
L 390.81 527.01"/>
<path fill="#c57a36" stroke="none" d="
M 438.23 527.01
L 438.23 511.34
L 453.91 511.34
L 469.59 511.34
L 469.59 527.01
L 469.59 542.68
L 453.91 542.68
L 438.23 542.68
L 438.23 527.01"/>
<path fill="#c57a36" stroke="none" d="
M 105.39 351.44
C 105.96 350.87 106.31 348.08 106.31 344.12
L 106.31 337.72
L 110.51 333.32
L 114.72 328.91
L 114.72 209.53
L 114.72 90.16
L 111.58 86.74
C 108.43 83.33 108.02 81.02 110.57 81.02
C 112.56 81.02 116.78 85.79 117.70 89.08
C 118.29 91.22 118.54 126.92 118.54 210.50
L 118.54 328.91
L 122.75 333.32
L 126.96 337.72
L 126.96 344.12
C 126.96 348.08 127.31 350.87 127.87 351.44
C 128.42 351.98 128.47 352.36 128.00 352.36
C 127.58 352.36 126.47 351.56 125.56 350.59
C 124.17 349.11 123.90 347.92 123.90 343.27
C 123.90 338.16 123.72 337.54 121.66 335.48
C 120.00 333.83 118.70 333.25 116.63 333.25
C 114.56 333.25 113.26 333.83 111.60 335.48
C 109.53 337.55 109.37 338.14 109.37 343.38
C 109.37 348.30 109.14 349.25 107.60 350.70
C 105.78 352.40 103.74 353.09 105.39 351.44"/>
<path fill="#c57a36" stroke="none" d="
M 406.72 350.68
C 407.29 350.11 407.64 347.32 407.64 343.36
L 407.64 336.96
L 411.84 332.55
L 416.05 328.14
L 416.05 208.77
L 416.05 89.40
L 412.91 85.98
C 409.76 82.56 409.35 80.25 411.90 80.25
C 413.89 80.25 418.12 85.02 419.03 88.32
C 419.62 90.45 419.87 126.15 419.87 209.74
L 419.88 328.14
L 424.08 332.55
L 428.29 336.96
L 428.29 343.36
C 428.29 347.32 428.64 350.11 429.21 350.68
C 429.75 351.22 429.80 351.59 429.34 351.59
C 428.91 351.59 427.81 350.80 426.89 349.83
C 425.50 348.34 425.23 347.15 425.23 342.50
C 425.23 337.39 425.05 336.78 423.00 334.72
C 421.34 333.06 420.04 332.48 417.96 332.48
C 415.89 332.48 414.59 333.06 412.93 334.72
C 410.87 336.79 410.70 337.38 410.70 342.61
C 410.70 347.53 410.47 348.48 408.93 349.93
C 407.11 351.64 405.07 352.33 406.72 350.68"/>
<path fill="#c57a36" stroke="none" d="
M 86.42 120.18
C 86.42 117.99 91.96 79.48 92.95 74.77
C 93.63 71.58 95.26 67.38 97.03 64.33
C 98.66 61.53 104.11 51.67 109.15 42.42
L 118.31 25.61
L 119.65 16.62
C 120.39 11.69 121.26 7.64 121.56 7.64
C 122.79 7.64 124.82 10.74 125.86 14.19
C 126.47 16.23 126.96 20.98 126.96 24.99
C 126.96 36.83 122.73 47.54 109.52 69.17
C 98.69 86.91 93.45 98.08 89.45 111.97
C 87.12 120.09 86.42 121.96 86.42 120.18
M 98.39 85.16
C 99.10 84.08 99.71 81.75 99.75 80.00
C 99.80 77.30 99.55 76.78 98.16 76.58
C 96.20 76.30 94.28 78.71 93.60 82.34
C 92.76 86.84 96.03 88.76 98.39 85.16"/>
<path fill="#c57a36" stroke="none" d="
M 387.75 119.41
C 387.75 117.23 393.29 78.72 394.28 74.00
C 394.96 70.82 396.59 66.61 398.36 63.57
C 399.99 60.76 405.44 50.90 410.48 41.66
L 419.63 24.84
L 420.89 16.56
C 421.59 12.00 422.37 7.94 422.62 7.53
C 423.47 6.16 425.99 9.34 427.15 13.26
C 427.81 15.46 428.29 20.13 428.29 24.25
C 428.29 36.06 424.05 46.79 410.85 68.41
C 400.02 86.15 394.78 97.31 390.78 111.21
C 388.45 119.33 387.75 121.20 387.75 119.41
M 399.72 84.40
C 400.43 83.31 401.05 80.99 401.08 79.24
C 401.13 76.53 400.89 76.01 399.49 75.81
C 397.53 75.54 395.62 77.95 394.94 81.58
C 394.09 86.07 397.36 88.00 399.72 84.40"/>
<path fill="#ae3c2a" stroke="none" d="
M 218.53 357.24
C 218.27 356.99 205.29 356.68 189.67 356.55
C 163.88 356.35 161.14 356.20 159.80 354.99
C 157.70 353.10 157.92 352.03 161.14 348.48
C 164.89 344.32 168.94 342.39 184.97 337.09
C 192.39 334.63 207.76 328.69 219.12 323.86
C 230.47 319.05 243.21 313.85 247.41 312.31
C 267.85 304.84 268.86 304.36 274.05 299.68
C 275.66 298.23 277.79 295.43 278.78 293.46
C 282.53 286.08 282.82 278.87 280.80 243.44
C 279.04 212.69 278.36 186.24 278.36 149.04
C 278.36 121.74 278.04 106.42 277.24 96.69
C 276.62 89.12 275.60 73.47 274.96 61.91
C 273.61 37.38 272.53 23.14 271.44 15.68
C 270.75 10.95 270.82 10.24 272.00 9.38
C 273.02 8.63 280.72 8.41 305.59 8.41
C 333.72 8.41 337.98 8.56 338.83 9.58
C 339.96 10.95 339.43 40.25 337.84 63.44
C 337.29 71.59 337.02 90.15 337.15 110.97
C 337.39 149.13 337.14 154.12 332.30 207.52
C 324.79 290.19 324.47 302.07 329.25 322.27
C 332.24 334.91 332.43 338.29 330.40 343.00
C 328.40 347.65 323.36 352.59 318.39 354.79
C 313.64 356.89 310.46 356.28 300.03 351.26
C 285.58 344.29 279.32 343.91 269.33 349.41
C 258.01 355.64 257.00 355.99 248.24 356.87
C 239.31 357.76 219.29 358.01 218.53 357.24"/>
<path fill="#3f7fbf" stroke="none" d="
M 85.66 122.68
C 85.66 122.46 85.83 122.29 86.04 122.29
C 86.25 122.29 86.42 122.46 86.42 122.68
C 86.42 122.89 86.25 123.06 86.04 123.06
C 85.83 123.06 85.66 122.89 85.66 122.68"/>
<path fill="#ffa153" stroke="none" d="
M 43.11 406.25
C 40.54 405.69 36.47 404.31 34.08 403.18
C 29.14 400.84 20.02 393.84 16.10 389.37
L 13.47 386.37
L 18.32 386.14
C 22.58 385.93 23.40 386.13 25.15 387.78
C 31.64 393.84 41.14 398.51 48.95 399.48
C 55.40 400.28 68.21 395.15 75.26 388.95
L 78.63 385.99
L 86.15 386.02
L 93.69 386.05
L 90.63 388.76
C 86.32 392.58 74.84 399.56 68.07 402.49
C 62.73 404.81 52.31 407.46 49.17 407.33
C 48.42 407.30 45.69 406.81 43.11 406.25"/>
<path fill="#ffa153" stroke="none" d="
M 6.88 364.01
C 6.88 360.41 11.11 345.92 13.75 340.46
C 18.32 331.02 24.32 326.33 31.74 326.40
C 40.43 326.48 64.33 342.23 82.98 360.15
L 88.33 365.30
L 82.60 365.33
L 76.86 365.34
L 68.45 357.62
C 49.88 340.57 44.81 336.85 36.92 334.46
L 32.29 333.06
L 28.08 334.98
C 21.70 337.91 19.37 342.55 16.43 358.28
L 15.10 365.35
L 11.00 365.35
C 7.59 365.35 6.88 365.12 6.88 364.01"/>
<path fill="#c55436" stroke="none" d="
M 236.32 468.54
L 236.32 438.75
L 239.76 440.42
L 243.21 442.09
L 243.21 470.22
L 243.21 498.34
L 239.76 498.34
L 236.32 498.34
L 236.32 468.54"/>
<path fill="#c55436" stroke="none" d="
M 239.57 422.95
L 236.32 420.99
L 236.32 403.49
L 236.32 385.99
L 239.76 385.99
L 243.21 385.99
L 243.21 405.48
C 243.21 416.19 243.12 424.95 243.02 424.94
C 242.91 424.92 241.36 424.03 239.57 422.95"/>
<path fill="#c55436" stroke="none" d="
M 12.24 379.11
C 10.45 377.32 10.26 374.66 11.79 372.57
C 12.86 371.11 16.17 371.08 239.43 370.89
C 406.67 370.75 466.25 370.92 467.02 371.56
C 468.30 372.62 468.39 378.47 467.14 379.72
C 466.43 380.43 414.93 380.64 239.99 380.64
C 14.78 380.64 13.76 380.63 12.24 379.11"/>
<path fill="#ef907a" stroke="none" d="
M 266.55 441.70
C 243.01 438.27 217.38 425.29 198.40 407.19
C 191.11 400.23 181.26 388.46 181.26 386.71
C 181.26 386.31 183.14 385.99 185.44 385.99
L 189.63 385.99
L 194.65 392.82
C 210.28 414.10 240.54 432.80 268.38 438.39
C 272.94 439.31 277.09 439.57 282.53 439.32
C 289.53 439.00 290.01 439.06 287.76 439.99
C 285.10 441.10 276.22 442.57 273.03 442.44
C 271.98 442.39 269.06 442.06 266.55 441.70"/>
<path fill="#ef907a" stroke="none" d="
M 295.88 411.34
C 292.95 406.11 287.41 398.99 280.90 392.07
L 275.17 385.99
L 279.45 385.99
C 283.58 385.99 283.81 386.10 285.99 389.11
C 290.07 394.73 299.13 413.67 298.19 414.60
C 298.02 414.77 296.99 413.30 295.88 411.34"/>
<path fill="#0885ff" stroke="none" d="
M 4.59 595.41
C 3.10 593.92 3.06 592.87 3.06 549.32
C 3.06 512.03 3.24 504.51 4.15 503.27
C 5.22 501.81 8.59 501.78 238.55 501.59
C 471.17 501.39 471.88 501.40 473.41 502.93
C 474.91 504.43 474.94 505.44 474.94 549.17
C 474.94 592.87 474.90 593.92 473.41 595.41
C 471.89 596.94 470.86 596.94 239.00 596.94
C 7.14 596.94 6.11 596.94 4.59 595.41
M 42.83 571.34
L 42.83 552.61
L 24.09 552.61
L 5.35 552.61
L 5.35 571.34
L 5.35 590.06
L 24.09 590.06
L 42.83 590.06
L 42.83 571.34
M 90.25 571.34
L 90.25 552.61
L 69.98 552.61
L 49.71 552.61
L 49.71 571.34
L 49.71 590.06
L 69.98 590.06
L 90.25 590.06
L 90.25 571.34
M 139.19 571.34
L 139.19 552.61
L 118.16 552.61
L 97.13 552.61
L 97.13 571.34
L 97.13 590.06
L 118.16 590.06
L 139.19 590.06
L 139.19 571.34
M 187.38 571.34
L 187.38 552.61
L 166.73 552.61
L 146.08 552.61
L 146.08 571.34
L 146.08 590.06
L 166.73 590.06
L 187.38 590.06
L 187.38 571.34
M 236.32 571.34
L 236.32 552.61
L 215.29 552.61
L 194.26 552.61
L 194.26 571.34
L 194.26 590.06
L 215.29 590.06
L 236.32 590.06
L 236.32 571.34
M 283.74 571.34
L 283.74 552.61
L 263.47 552.61
L 243.21 552.61
L 243.21 571.34
L 243.21 590.06
L 263.47 590.06
L 283.74 590.06
L 283.74 571.34
M 331.92 571.34
L 331.92 552.61
L 311.27 552.61
L 290.62 552.61
L 290.62 571.34
L 290.62 590.06
L 311.27 590.06
L 331.92 590.06
L 331.92 571.34
M 380.87 571.34
L 380.87 552.61
L 359.84 552.61
L 338.81 552.61
L 338.81 571.34
L 338.81 590.06
L 359.84 590.06
L 380.87 590.06
L 380.87 571.34
M 428.29 571.34
L 428.29 552.61
L 408.02 552.61
L 387.75 552.61
L 387.75 571.34
L 387.75 590.06
L 408.02 590.06
L 428.29 590.06
L 428.29 571.34
M 472.65 571.34
L 472.65 552.61
L 453.91 552.61
L 435.17 552.61
L 435.17 571.34
L 435.17 590.06
L 453.91 590.06
L 472.65 590.06
L 472.65 571.34
M 42.83 527.01
L 42.83 508.28
L 24.09 508.28
L 5.35 508.28
L 5.35 527.01
L 5.35 545.73
L 24.09 545.73
L 42.83 545.73
L 42.83 527.01
M 90.25 527.01
L 90.25 508.28
L 69.98 508.28
L 49.71 508.28
L 49.71 527.01
L 49.71 545.73
L 69.98 545.73
L 90.25 545.73
L 90.25 527.01
M 139.19 527.01
L 139.19 508.28
L 118.16 508.28
L 97.13 508.28
L 97.13 527.01
L 97.13 545.73
L 118.16 545.73
L 139.19 545.73
L 139.19 527.01
M 187.38 527.01
L 187.38 508.28
L 166.73 508.28
L 146.08 508.28
L 146.08 527.01
L 146.08 545.73
L 166.73 545.73
L 187.38 545.73
L 187.38 527.01
M 236.32 527.01
L 236.32 508.28
L 215.29 508.28
L 194.26 508.28
L 194.26 527.01
L 194.26 545.73
L 215.29 545.73
L 236.32 545.73
L 236.32 527.01
M 283.74 527.01
L 283.74 508.28
L 263.47 508.28
L 243.21 508.28
L 243.21 527.01
L 243.21 545.73
L 263.47 545.73
L 283.74 545.73
L 283.74 527.01
M 331.92 527.01
L 331.92 508.28
L 311.27 508.28
L 290.62 508.28
L 290.62 527.01
L 290.62 545.73
L 311.27 545.73
L 331.92 545.73
L 331.92 527.01
M 380.87 527.01
L 380.87 508.28
L 359.84 508.28
L 338.81 508.28
L 338.81 527.01
L 338.81 545.73
L 359.84 545.73
L 380.87 545.73
L 380.87 527.01
M 428.29 527.01
L 428.29 508.28
L 408.02 508.28
L 387.75 508.28
L 387.75 527.01
L 387.75 545.73
L 408.02 545.73
L 428.29 545.73
L 428.29 527.01
M 472.65 527.01
L 472.65 508.28
L 453.91 508.28
L 435.17 508.28
L 435.17 527.01
L 435.17 545.73
L 453.91 545.73
L 472.65 545.73
L 472.65 527.01"/>
</g>
</svg>
