<?xml version="1.0" encoding="UTF-8" standalone="no"?>
<!DOCTYPE svg PUBLIC "-//W3C//DTD SVG 1.1//EN"
"http://www.w3.org/Graphics/SVG/1.1/DTD/svg11.dtd">
<svg width="632px" height="600px"
xmlns="http://www.w3.org/2000/svg" version="1.1">
<g transform="translate(0000, 0000) scale(1.0000, 1.0000)">
<path fill="#000000" stroke="none" d="
M 2.02 597.98
C 0.04 596.00 0.00 594.62 0.00 532.83
C 0.00 471.04 0.04 469.66 2.02 467.68
C 4.02 465.68 5.39 465.66 154.72 465.66
L 305.40 465.66
L 305.14 424.66
L 304.88 383.65
L 294.07 377.42
C 288.12 374.01 279.48 368.49 274.85 365.17
C 263.26 356.84 243.45 336.78 236.17 326.01
L 230.19 317.17
L 181.62 317.17
L 133.05 317.17
L 129.47 320.63
C 124.23 325.70 106.91 336.95 97.37 341.52
C 92.80 343.69 84.15 346.67 78.16 348.13
C 68.14 350.56 66.67 350.69 60.24 349.61
C 42.40 346.62 32.80 341.08 16.44 324.33
C 3.90 311.49 1.25 306.68 2.36 298.63
C 6.20 270.29 12.45 251.56 21.21 242.05
C 26.04 236.83 33.90 233.32 40.74 233.34
C 47.11 233.36 60.61 238.48 70.38 244.59
C 80.80 251.09 97.80 264.49 114.23 279.13
L 126.30 289.90
L 158.96 289.86
C 188.43 289.82 191.35 289.67 188.85 288.31
C 185.43 286.46 185.45 286.57 184.15 263.13
C 183.56 252.58 182.38 241.03 181.51 237.47
C 178.18 223.74 171.90 215.30 160.90 209.80
C 157.35 208.02 152.49 204.68 150.10 202.37
C 144.32 196.82 143.03 192.09 144.50 181.87
C 145.10 177.68 146.30 167.65 147.17 159.60
C 151.24 121.62 162.90 68.58 174.50 35.27
C 182.78 11.54 191.87 0.11 202.53 0.02
C 209.51 -0.03 217.68 7.56 223.79 19.75
C 235.49 43.11 252.39 113.59 257.31 159.60
C 258.18 167.65 259.38 177.68 259.98 181.87
C 261.45 192.09 260.16 196.82 254.38 202.37
C 251.99 204.68 247.13 208.02 243.58 209.80
C 232.58 215.30 226.30 223.74 222.97 237.47
C 222.10 241.03 220.92 252.58 220.33 263.13
C 219.03 286.57 219.05 286.46 215.63 288.31
C 213.16 289.66 221.30 289.82 290.97 289.86
L 369.09 289.90
L 369.09 207.55
C 369.09 126.78 369.13 125.07 371.19 118.91
C 377.41 100.38 394.52 83.18 410.21 79.67
L 415.60 78.46
L 415.60 48.32
C 415.60 19.53 415.69 18.09 417.63 16.16
C 419.59 14.20 420.99 14.14 466.16 14.14
C 511.33 14.14 512.74 14.20 514.70 16.16
C 516.63 18.09 516.72 19.53 516.72 48.32
L 516.72 78.46
L 522.11 79.67
C 537.81 83.18 554.92 100.38 561.14 118.91
C 563.20 125.07 563.24 126.78 563.24 207.55
L 563.24 289.90
L 593.07 289.90
C 629.28 289.90 626.94 288.96 626.94 303.54
C 626.94 318.94 642.96 317.17 503.52 317.17
L 384.14 317.17
L 386.81 321.46
C 391.73 329.36 399.32 345.89 401.08 352.53
C 406.29 372.14 400.49 387.59 385.40 394.28
C 378.29 397.42 365.44 399.40 357.46 398.59
C 351.82 398.00 336.12 394.91 330.92 393.36
L 328.64 392.70
L 328.64 429.17
L 328.64 465.66
L 478.30 465.66
C 626.61 465.66 627.98 465.68 629.98 467.68
C 631.96 469.66 632.00 471.04 632.00 532.83
C 632.00 594.62 631.96 596.00 629.98 597.98
C 627.97 599.99 626.61 600.00 316.00 600.00
C 5.39 600.00 4.03 599.99 2.02 597.98
M 625.93 593.94
C 627.90 591.97 627.96 590.58 627.96 532.83
C 627.96 475.08 627.90 473.69 625.93 471.72
C 623.92 469.71 622.57 469.70 316.00 469.70
C 9.43 469.70 8.08 469.71 6.07 471.72
C 4.10 473.69 4.04 475.08 4.04 532.83
C 4.04 590.58 4.10 591.97 6.07 593.94
C 8.08 595.95 9.43 595.96 316.00 595.96
C 622.57 595.96 623.92 595.95 625.93 593.94
M 321.56 428.48
L 321.56 391.31
L 317.01 389.10
L 312.46 386.90
L 312.46 426.27
L 312.46 465.66
L 317.01 465.66
L 321.56 465.66
L 321.56 428.48
M 370.35 390.89
C 374.10 390.35 378.65 389.29 380.46 388.55
C 383.45 387.31 382.81 387.23 373.56 387.66
C 336.82 389.36 282.76 360.78 257.36 326.20
L 250.73 317.17
L 244.62 317.17
L 238.51 317.17
L 242.85 323.48
C 245.24 326.96 252.89 335.48 259.86 342.44
C 277.53 360.10 295.18 371.84 318.07 381.14
C 329.47 385.78 341.83 389.25 352.42 390.80
C 360.79 392.01 362.56 392.02 370.35 390.89
M 383.92 378.85
C 386.24 377.80 388.62 376.02 389.23 374.90
C 393.84 366.30 384.40 348.78 363.69 327.53
L 353.61 317.17
L 341.13 317.17
L 328.64 317.17
L 328.64 343.98
L 328.64 370.78
L 333.22 372.74
C 337.60 374.62 353.68 379.21 358.98 380.11
C 360.37 380.34 365.60 380.59 370.60 380.65
C 377.56 380.74 380.70 380.31 383.92 378.85
M 321.56 342.93
L 321.56 317.17
L 317.01 317.17
L 312.46 317.17
L 312.46 340.30
L 312.46 363.43
L 316.76 366.02
C 319.12 367.44 321.17 368.63 321.31 368.65
C 321.45 368.67 321.56 357.09 321.56 342.93
M 305.05 317.51
C 304.84 317.30 294.55 317.25 282.20 317.40
L 259.73 317.68
L 264.71 324.24
C 271.56 333.25 283.89 344.78 295.32 352.85
L 304.88 359.61
L 305.15 338.75
C 305.30 327.27 305.25 317.72 305.05 317.51
M 392.86 349.77
C 390.27 342.83 381.62 326.11 378.13 321.29
C 375.25 317.32 374.94 317.17 369.48 317.17
L 363.82 317.17
L 371.39 325.21
C 380.01 334.35 387.33 343.77 391.20 350.68
C 394.50 356.54 395.24 356.13 392.86 349.77
M 74.62 343.86
C 78.90 342.98 85.83 340.79 90.00 338.98
C 98.96 335.11 114.12 325.88 119.83 320.84
L 123.87 317.25
L 113.91 317.21
L 103.96 317.17
L 99.50 321.09
C 90.19 329.28 73.25 336.06 64.72 335.00
C 54.39 333.73 41.83 327.56 33.26 319.54
C 30.94 317.36 29.85 317.10 24.22 317.37
L 17.81 317.68
L 21.29 321.65
C 26.47 327.55 38.53 336.80 45.06 339.89
C 50.31 342.36 60.52 345.17 65.01 345.37
C 66.01 345.41 70.33 344.74 74.62 343.86
M 82.39 325.32
C 86.85 323.08 91.63 320.34 93.03 319.23
L 95.56 317.21
L 67.94 317.19
C 51.79 317.18 40.56 317.55 40.89 318.08
C 41.21 318.59 44.07 320.74 47.27 322.86
C 60.35 331.56 68.80 332.14 82.39 325.32
M 617.64 308.89
C 619.21 307.32 619.21 299.75 617.64 298.18
C 616.70 297.24 548.61 296.97 317.31 296.97
C 19.55 296.97 18.19 296.98 16.18 298.99
C 15.07 300.10 14.16 302.14 14.16 303.54
C 14.16 304.93 15.07 306.97 16.18 308.08
C 18.19 310.09 19.55 310.10 317.31 310.10
C 548.61 310.10 616.70 309.83 617.64 308.89
M 21.72 280.56
C 25.61 259.77 28.69 253.64 37.12 249.77
L 42.69 247.22
L 48.82 249.08
C 59.25 252.23 65.95 257.15 90.50 279.69
L 101.63 289.89
L 109.21 289.87
L 116.79 289.84
L 109.72 283.03
C 84.03 258.36 53.37 238.47 40.95 238.44
C 27.98 238.40 17.48 251.83 11.63 275.94
C 8.13 290.38 8.03 289.90 14.54 289.90
L 19.97 289.90
L 21.72 280.56
M 83.93 281.60
C 58.83 257.58 47.00 250.62 38.63 254.95
C 33.36 257.67 28.53 267.84 26.83 279.80
C 26.47 282.30 25.95 285.60 25.65 287.12
L 25.12 289.90
L 58.82 289.86
L 92.52 289.82
L 83.93 281.60
M 415.60 189.28
L 415.60 88.67
L 412.82 89.35
C 402.34 91.94 389.84 103.09 383.90 115.15
C 381.85 119.31 379.73 125.45 379.19 128.79
C 378.60 132.34 378.20 166.87 378.20 212.37
L 378.19 289.90
L 396.90 289.90
L 415.60 289.90
L 415.60 189.28
M 461.11 156.57
L 461.11 23.23
L 444.12 23.23
C 432.26 23.23 426.77 23.60 425.92 24.44
C 424.99 25.37 424.70 56.36 424.70 157.78
L 424.70 289.90
L 442.91 289.90
L 461.11 289.90
L 461.11 156.57
M 507.62 157.78
C 507.62 56.36 507.34 25.37 506.41 24.44
C 505.56 23.60 500.07 23.23 488.21 23.23
L 471.22 23.23
L 471.22 156.57
L 471.22 289.90
L 489.42 289.90
L 507.62 289.90
L 507.62 157.78
M 554.13 212.37
C 554.13 166.87 553.72 132.34 553.14 128.79
C 550.38 111.77 534.38 93.02 519.50 89.35
L 516.72 88.67
L 516.72 189.28
L 516.72 289.90
L 535.43 289.90
L 554.14 289.90
L 554.13 212.37
M 210.10 279.55
C 210.66 278.85 211.44 272.37 211.83 265.15
C 212.50 252.40 213.79 240.59 215.00 235.72
L 215.61 233.33
L 202.24 233.33
L 188.87 233.33
L 189.48 235.72
C 190.69 240.59 191.98 252.40 192.65 265.15
C 193.04 272.37 193.82 278.85 194.38 279.55
C 195.02 280.33 198.00 280.81 202.24 280.81
C 206.48 280.81 209.46 280.33 210.10 279.55
M 220.20 221.90
C 224.46 213.68 230.09 208.07 239.05 203.13
C 246.24 199.17 250.92 195.04 252.14 191.60
C 252.50 190.59 252.12 184.22 251.30 177.45
C 250.49 170.69 249.10 159.02 248.21 151.52
C 243.10 108.62 226.54 42.64 215.69 21.98
C 211.83 14.64 205.49 8.08 202.24 8.08
C 198.99 8.08 192.65 14.64 188.79 21.98
C 177.94 42.64 161.38 108.62 156.27 151.52
C 155.38 159.02 153.99 170.69 153.18 177.45
C 152.36 184.22 151.98 190.59 152.34 191.60
C 153.56 195.04 158.24 199.17 165.43 203.13
C 174.39 208.07 180.02 213.68 184.28 221.90
L 187.58 228.27
L 202.24 228.27
L 216.90 228.27
L 220.20 221.90"/>
<path fill="#000000" stroke="none" d="
M 7.08 562.12
L 7.08 537.37
L 31.85 537.37
L 56.63 537.37
L 56.63 562.12
L 56.63 586.87
L 31.85 586.87
L 7.08 586.87
L 7.08 562.12
M 52.58 562.12
L 52.58 541.41
L 31.85 541.41
L 11.12 541.41
L 11.12 562.12
L 11.12 582.83
L 31.85 582.83
L 52.58 582.83
L 52.58 562.12"/>
<path fill="#000000" stroke="none" d="
M 65.73 562.12
L 65.73 537.37
L 92.52 537.37
L 119.32 537.37
L 119.32 562.12
L 119.32 586.87
L 92.52 586.87
L 65.73 586.87
L 65.73 562.12
M 115.28 562.12
L 115.28 541.41
L 92.52 541.41
L 69.77 541.41
L 69.77 562.12
L 69.77 582.83
L 92.52 582.83
L 115.28 582.83
L 115.28 562.12"/>
<path fill="#000000" stroke="none" d="
M 128.42 562.12
L 128.42 537.37
L 156.23 537.37
L 184.04 537.37
L 184.04 562.12
L 184.04 586.87
L 156.23 586.87
L 128.42 586.87
L 128.42 562.12
M 179.99 562.12
L 179.99 541.41
L 156.23 541.41
L 132.47 541.41
L 132.47 562.12
L 132.47 582.83
L 156.23 582.83
L 179.99 582.83
L 179.99 562.12"/>
<path fill="#000000" stroke="none" d="
M 193.14 562.12
L 193.14 537.37
L 220.44 537.37
L 247.74 537.37
L 247.74 562.12
L 247.74 586.87
L 220.44 586.87
L 193.14 586.87
L 193.14 562.12
M 243.70 562.12
L 243.70 541.41
L 220.44 541.41
L 197.18 541.41
L 197.18 562.12
L 197.18 582.83
L 220.44 582.83
L 243.70 582.83
L 243.70 562.12"/>
<path fill="#000000" stroke="none" d="
M 256.84 562.12
L 256.84 537.37
L 284.65 537.37
L 312.46 537.37
L 312.46 562.12
L 312.46 586.87
L 284.65 586.87
L 256.84 586.87
L 256.84 562.12
M 308.42 562.12
L 308.42 541.41
L 284.65 541.41
L 260.89 541.41
L 260.89 562.12
L 260.89 582.83
L 284.65 582.83
L 308.42 582.83
L 308.42 562.12"/>
<path fill="#000000" stroke="none" d="
M 321.56 562.12
L 321.56 537.37
L 348.36 537.37
L 375.16 537.37
L 375.16 562.12
L 375.16 586.87
L 348.36 586.87
L 321.56 586.87
L 321.56 562.12
M 371.11 562.12
L 371.11 541.41
L 348.36 541.41
L 325.61 541.41
L 325.61 562.12
L 325.61 582.83
L 348.36 582.83
L 371.11 582.83
L 371.11 562.12"/>
<path fill="#000000" stroke="none" d="
M 384.26 562.12
L 384.26 537.37
L 411.56 537.37
L 438.86 537.37
L 438.86 562.12
L 438.86 586.87
L 411.56 586.87
L 384.26 586.87
L 384.26 562.12
M 434.82 562.12
L 434.82 541.41
L 411.56 541.41
L 388.30 541.41
L 388.30 562.12
L 388.30 582.83
L 411.56 582.83
L 434.82 582.83
L 434.82 562.12"/>
<path fill="#000000" stroke="none" d="
M 447.96 562.12
L 447.96 537.37
L 475.77 537.37
L 503.58 537.37
L 503.58 562.12
L 503.58 586.87
L 475.77 586.87
L 447.96 586.87
L 447.96 562.12
M 499.53 562.12
L 499.53 541.41
L 475.77 541.41
L 452.01 541.41
L 452.01 562.12
L 452.01 582.83
L 475.77 582.83
L 499.53 582.83
L 499.53 562.12"/>
<path fill="#000000" stroke="none" d="
M 512.68 562.12
L 512.68 537.37
L 539.48 537.37
L 566.27 537.37
L 566.27 562.12
L 566.27 586.87
L 539.48 586.87
L 512.68 586.87
L 512.68 562.12
M 562.23 562.12
L 562.23 541.41
L 539.48 541.41
L 516.72 541.41
L 516.72 562.12
L 516.72 582.83
L 539.48 582.83
L 562.23 582.83
L 562.23 562.12"/>
<path fill="#000000" stroke="none" d="
M 575.37 562.12
L 575.37 537.37
L 600.15 537.37
L 624.92 537.37
L 624.92 562.12
L 624.92 586.87
L 600.15 586.87
L 575.37 586.87
L 575.37 562.12
M 620.88 562.12
L 620.88 541.41
L 600.15 541.41
L 579.42 541.41
L 579.42 562.12
L 579.42 582.83
L 600.15 582.83
L 620.88 582.83
L 620.88 562.12"/>
<path fill="#000000" stroke="none" d="
M 7.08 503.54
L 7.08 478.79
L 31.85 478.79
L 56.63 478.79
L 56.63 503.54
L 56.63 528.28
L 31.85 528.28
L 7.08 528.28
L 7.08 503.54
M 52.58 503.54
L 52.58 482.83
L 31.85 482.83
L 11.12 482.83
L 11.12 503.54
L 11.12 524.24
L 31.85 524.24
L 52.58 524.24
L 52.58 503.54"/>
<path fill="#000000" stroke="none" d="
M 65.73 503.54
L 65.73 478.79
L 92.52 478.79
L 119.32 478.79
L 119.32 503.54
L 119.32 528.28
L 92.52 528.28
L 65.73 528.28
L 65.73 503.54
M 115.28 503.54
L 115.28 482.83
L 92.52 482.83
L 69.77 482.83
L 69.77 503.54
L 69.77 524.24
L 92.52 524.24
L 115.28 524.24
L 115.28 503.54"/>
<path fill="#000000" stroke="none" d="
M 128.42 503.54
L 128.42 478.79
L 156.23 478.79
L 184.04 478.79
L 184.04 503.54
L 184.04 528.28
L 156.23 528.28
L 128.42 528.28
L 128.42 503.54
M 179.99 503.54
L 179.99 482.83
L 156.23 482.83
L 132.47 482.83
L 132.47 503.54
L 132.47 524.24
L 156.23 524.24
L 179.99 524.24
L 179.99 503.54"/>
<path fill="#000000" stroke="none" d="
M 193.14 503.54
L 193.14 478.79
L 220.44 478.79
L 247.74 478.79
L 247.74 503.54
L 247.74 528.28
L 220.44 528.28
L 193.14 528.28
L 193.14 503.54
M 243.70 503.54
L 243.70 482.83
L 220.44 482.83
L 197.18 482.83
L 197.18 503.54
L 197.18 524.24
L 220.44 524.24
L 243.70 524.24
L 243.70 503.54"/>
<path fill="#000000" stroke="none" d="
M 256.84 503.54
L 256.84 478.79
L 284.65 478.79
L 312.46 478.79
L 312.46 503.54
L 312.46 528.28
L 284.65 528.28
L 256.84 528.28
L 256.84 503.54
M 308.42 503.54
L 308.42 482.83
L 284.65 482.83
L 260.89 482.83
L 260.89 503.54
L 260.89 524.24
L 284.65 524.24
L 308.42 524.24
L 308.42 503.54"/>
<path fill="#000000" stroke="none" d="
M 321.56 503.54
L 321.56 478.79
L 348.36 478.79
L 375.16 478.79
L 375.16 503.54
L 375.16 528.28
L 348.36 528.28
L 321.56 528.28
L 321.56 503.54
M 371.11 503.54
L 371.11 482.83
L 348.36 482.83
L 325.61 482.83
L 325.61 503.54
L 325.61 524.24
L 348.36 524.24
L 371.11 524.24
L 371.11 503.54"/>
<path fill="#000000" stroke="none" d="
M 384.26 503.54
L 384.26 478.79
L 411.56 478.79
L 438.86 478.79
L 438.86 503.54
L 438.86 528.28
L 411.56 528.28
L 384.26 528.28
L 384.26 503.54
M 434.82 503.54
L 434.82 482.83
L 411.56 482.83
L 388.30 482.83
L 388.30 503.54
L 388.30 524.24
L 411.56 524.24
L 434.82 524.24
L 434.82 503.54"/>
<path fill="#000000" stroke="none" d="
M 447.96 503.54
L 447.96 478.79
L 475.77 478.79
L 503.58 478.79
L 503.58 503.54
L 503.58 528.28
L 475.77 528.28
L 447.96 528.28
L 447.96 503.54
M 499.53 503.54
L 499.53 482.83
L 475.77 482.83
L 452.01 482.83
L 452.01 503.54
L 452.01 524.24
L 475.77 524.24
L 499.53 524.24
L 499.53 503.54"/>
<path fill="#000000" stroke="none" d="
M 512.68 503.54
L 512.68 478.79
L 539.48 478.79
L 566.27 478.79
L 566.27 503.54
L 566.27 528.28
L 539.48 528.28
L 512.68 528.28
L 512.68 503.54
M 562.23 503.54
L 562.23 482.83
L 539.48 482.83
L 516.72 482.83
L 516.72 503.54
L 516.72 524.24
L 539.48 524.24
L 562.23 524.24
L 562.23 503.54"/>
<path fill="#000000" stroke="none" d="
M 575.37 503.54
L 575.37 478.79
L 600.15 478.79
L 624.92 478.79
L 624.92 503.54
L 624.92 528.28
L 600.15 528.28
L 575.37 528.28
L 575.37 503.54
M 620.88 503.54
L 620.88 482.83
L 600.15 482.83
L 579.42 482.83
L 579.42 503.54
L 579.42 524.24
L 600.15 524.24
L 620.88 524.24
L 620.88 503.54"/>
<path fill="#13ac29" stroke="none" d="
M 184.28 221.90
C 180.02 213.68 174.39 208.07 165.43 203.13
C 158.24 199.17 153.56 195.04 152.34 191.60
C 151.98 190.59 152.36 184.22 153.18 177.45
C 153.99 170.69 155.38 159.02 156.27 151.52
C 160.18 118.66 170.17 74.28 181.09 41.28
C 187.73 21.18 194.50 10.26 201.38 8.57
C 205.14 7.65 211.08 13.21 215.69 21.98
C 226.54 42.64 243.10 108.62 248.21 151.52
C 249.10 159.02 250.49 170.69 251.30 177.45
C 252.12 184.22 252.50 190.59 252.14 191.60
C 250.92 195.04 246.24 199.17 239.05 203.13
C 230.09 208.07 224.46 213.68 220.20 221.90
L 216.90 228.27
L 202.24 228.27
L 187.58 228.27
L 184.28 221.90"/>
<path fill="#f9ab98" stroke="none" d="
M 378.20 212.37
C 378.20 166.87 378.60 132.34 379.19 128.79
C 381.95 111.77 397.95 93.02 412.82 89.35
L 415.60 88.67
L 415.60 189.28
L 415.60 289.90
L 396.90 289.90
L 378.19 289.90
L 378.20 212.37"/>
<path fill="#f9ab98" stroke="none" d="
M 424.70 157.62
C 424.70 27.86 424.74 25.30 426.66 24.28
C 427.78 23.68 435.59 23.23 444.86 23.23
L 461.11 23.23
L 461.11 156.57
L 461.11 289.90
L 442.91 289.90
L 424.70 289.90
L 424.70 157.62"/>
<path fill="#f9ab98" stroke="none" d="
M 471.22 156.57
L 471.22 23.23
L 488.21 23.23
C 500.07 23.23 505.56 23.60 506.41 24.44
C 507.34 25.37 507.62 56.36 507.62 157.78
L 507.62 289.90
L 489.42 289.90
L 471.22 289.90
L 471.22 156.57"/>
<path fill="#f9ab98" stroke="none" d="
M 516.72 189.28
L 516.72 88.67
L 519.50 89.35
C 529.99 91.94 542.49 103.09 548.42 115.15
C 550.48 119.31 552.60 125.45 553.14 128.79
C 553.72 132.34 554.13 166.87 554.13 212.37
L 554.14 289.90
L 535.43 289.90
L 516.72 289.90
L 516.72 189.28"/>
<path fill="#c55436" stroke="none" d="
M 312.46 426.27
L 312.46 386.90
L 317.01 389.10
L 321.56 391.31
L 321.56 428.48
L 321.56 465.66
L 317.01 465.66
L 312.46 465.66
L 312.46 426.27"/>
<path fill="#c55436" stroke="none" d="
M 316.76 366.02
L 312.46 363.43
L 312.46 340.30
L 312.46 317.17
L 317.01 317.17
L 321.56 317.17
L 321.56 342.93
C 321.56 357.09 321.45 368.67 321.31 368.65
C 321.17 368.63 319.12 367.44 316.76 366.02"/>
<path fill="#c55436" stroke="none" d="
M 16.18 308.08
C 15.07 306.97 14.16 304.93 14.16 303.54
C 14.16 302.14 15.07 300.10 16.18 298.99
C 18.19 296.98 19.55 296.97 317.31 296.97
C 548.61 296.97 616.70 297.24 617.64 298.18
C 619.21 299.75 619.21 307.32 617.64 308.89
C 616.70 309.83 548.61 310.10 317.31 310.10
C 19.55 310.10 18.19 310.09 16.18 308.08"/>
<path fill="#c55436" stroke="none" d="
M 194.40 279.55
C 193.86 278.85 192.88 270.32 192.24 260.61
C 191.60 250.89 190.66 241.13 190.16 238.95
C 189.64 236.76 189.45 234.60 189.72 234.15
C 189.99 233.70 195.94 233.33 202.92 233.33
L 215.61 233.33
L 215.00 235.72
C 213.79 240.59 212.50 252.40 211.83 265.15
C 211.44 272.37 210.66 278.85 210.10 279.55
C 209.46 280.33 206.48 280.81 202.24 280.81
C 197.98 280.81 195.03 280.33 194.40 279.55"/>
<path fill="#ffa153" stroke="none" d="
M 57.00 343.95
C 53.60 343.21 48.22 341.38 45.06 339.89
C 38.53 336.80 26.47 327.55 21.29 321.65
L 17.81 317.68
L 24.22 317.37
C 29.85 317.10 30.94 317.36 33.26 319.54
C 41.83 327.56 54.39 333.73 64.72 335.00
C 73.25 336.06 90.19 329.28 99.50 321.09
L 103.96 317.17
L 113.91 317.21
L 123.87 317.25
L 119.83 320.84
C 114.12 325.88 98.96 335.11 90.00 338.98
C 82.94 342.04 69.17 345.56 65.01 345.37
C 64.02 345.33 60.41 344.69 57.00 343.95"/>
<path fill="#ffa153" stroke="none" d="
M 9.10 288.13
C 9.10 283.36 14.69 264.22 18.18 257.00
C 24.22 244.54 32.16 238.33 41.96 238.42
C 53.45 238.54 85.05 259.34 109.72 283.03
L 116.79 289.84
L 109.21 289.87
L 101.63 289.89
L 90.50 279.69
C 65.95 257.15 59.25 252.23 48.82 249.08
L 42.69 247.22
L 37.12 249.77
C 28.69 253.64 25.61 259.77 21.72 280.56
L 19.97 289.90
L 14.54 289.90
C 10.03 289.90 9.10 289.60 9.10 288.13"/>
<path fill="#ef907a" stroke="none" d="
M 352.42 390.80
C 321.30 386.26 287.41 369.11 262.33 345.19
C 252.68 335.99 239.65 320.43 239.65 318.12
C 239.65 317.60 242.14 317.17 245.19 317.17
L 250.73 317.17
L 257.36 326.20
C 278.03 354.32 318.03 379.04 354.85 386.42
C 360.88 387.64 366.36 387.99 373.56 387.66
C 382.81 387.23 383.45 387.31 380.46 388.55
C 376.96 390.00 365.20 391.95 361.00 391.78
C 359.60 391.72 355.75 391.27 352.42 390.80"/>
<path fill="#ef907a" stroke="none" d="
M 391.20 350.68
C 387.33 343.77 380.01 334.35 371.39 325.21
L 363.82 317.17
L 369.48 317.17
C 374.94 317.17 375.25 317.32 378.13 321.29
C 383.52 328.73 395.50 353.76 394.26 354.99
C 394.03 355.21 392.67 353.27 391.20 350.68"/>
<path fill="#0885ff" stroke="none" d="
M 6.07 593.94
C 4.10 591.97 4.04 590.58 4.04 533.02
C 4.04 483.75 4.28 473.81 5.48 472.16
C 6.90 470.23 11.36 470.20 315.40 469.95
C 622.97 469.69 623.91 469.70 625.93 471.72
C 627.91 473.70 627.96 475.04 627.96 532.83
C 627.96 590.58 627.90 591.97 625.93 593.94
C 623.92 595.95 622.57 595.96 316.00 595.96
C 9.43 595.96 8.08 595.95 6.07 593.94
M 56.63 562.12
L 56.63 537.37
L 31.85 537.37
L 7.08 537.37
L 7.08 562.12
L 7.08 586.87
L 31.85 586.87
L 56.63 586.87
L 56.63 562.12
M 119.32 562.12
L 119.32 537.37
L 92.52 537.37
L 65.73 537.37
L 65.73 562.12
L 65.73 586.87
L 92.52 586.87
L 119.32 586.87
L 119.32 562.12
M 184.04 562.12
L 184.04 537.37
L 156.23 537.37
L 128.42 537.37
L 128.42 562.12
L 128.42 586.87
L 156.23 586.87
L 184.04 586.87
L 184.04 562.12
M 247.74 562.12
L 247.74 537.37
L 220.44 537.37
L 193.14 537.37
L 193.14 562.12
L 193.14 586.87
L 220.44 586.87
L 247.74 586.87
L 247.74 562.12
M 312.46 562.12
L 312.46 537.37
L 284.65 537.37
L 256.84 537.37
L 256.84 562.12
L 256.84 586.87
L 284.65 586.87
L 312.46 586.87
L 312.46 562.12
M 375.16 562.12
L 375.16 537.37
L 348.36 537.37
L 321.56 537.37
L 321.56 562.12
L 321.56 586.87
L 348.36 586.87
L 375.16 586.87
L 375.16 562.12
M 438.86 562.12
L 438.86 537.37
L 411.56 537.37
L 384.26 537.37
L 384.26 562.12
L 384.26 586.87
L 411.56 586.87
L 438.86 586.87
L 438.86 562.12
M 503.58 562.12
L 503.58 537.37
L 475.77 537.37
L 447.96 537.37
L 447.96 562.12
L 447.96 586.87
L 475.77 586.87
L 503.58 586.87
L 503.58 562.12
M 566.27 562.12
L 566.27 537.37
L 539.48 537.37
L 512.68 537.37
L 512.68 562.12
L 512.68 586.87
L 539.48 586.87
L 566.27 586.87
L 566.27 562.12
M 624.92 562.12
L 624.92 537.37
L 600.15 537.37
L 575.37 537.37
L 575.37 562.12
L 575.37 586.87
L 600.15 586.87
L 624.92 586.87
L 624.92 562.12
M 56.63 503.54
L 56.63 478.79
L 31.85 478.79
L 7.08 478.79
L 7.08 503.54
L 7.08 528.28
L 31.85 528.28
L 56.63 528.28
L 56.63 503.54
M 119.32 503.54
L 119.32 478.79
L 92.52 478.79
L 65.73 478.79
L 65.73 503.54
L 65.73 528.28
L 92.52 528.28
L 119.32 528.28
L 119.32 503.54
M 184.04 503.54
L 184.04 478.79
L 156.23 478.79
L 128.42 478.79
L 128.42 503.54
L 128.42 528.28
L 156.23 528.28
L 184.04 528.28
L 184.04 503.54
M 247.74 503.54
L 247.74 478.79
L 220.44 478.79
L 193.14 478.79
L 193.14 503.54
L 193.14 528.28
L 220.44 528.28
L 247.74 528.28
L 247.74 503.54
M 312.46 503.54
L 312.46 478.79
L 284.65 478.79
L 256.84 478.79
L 256.84 503.54
L 256.84 528.28
L 284.65 528.28
L 312.46 528.28
L 312.46 503.54
M 375.16 503.54
L 375.16 478.79
L 348.36 478.79
L 321.56 478.79
L 321.56 503.54
L 321.56 528.28
L 348.36 528.28
L 375.16 528.28
L 375.16 503.54
M 438.86 503.54
L 438.86 478.79
L 411.56 478.79
L 384.26 478.79
L 384.26 503.54
L 384.26 528.28
L 411.56 528.28
L 438.86 528.28
L 438.86 503.54
M 503.58 503.54
L 503.58 478.79
L 475.77 478.79
L 447.96 478.79
L 447.96 503.54
L 447.96 528.28
L 475.77 528.28
L 503.58 528.28
L 503.58 503.54
M 566.27 503.54
L 566.27 478.79
L 539.48 478.79
L 512.68 478.79
L 512.68 503.54
L 512.68 528.28
L 539.48 528.28
L 566.27 528.28
L 566.27 503.54
M 624.92 503.54
L 624.92 478.79
L 600.15 478.79
L 575.37 478.79
L 575.37 503.54
L 575.37 528.28
L 600.15 528.28
L 624.92 528.28
L 624.92 503.54"/>
<path fill="#c57a36" stroke="none" d="
M 11.12 562.12
L 11.12 541.41
L 31.85 541.41
L 52.58 541.41
L 52.58 562.12
L 52.58 582.83
L 31.85 582.83
L 11.12 582.83
L 11.12 562.12"/>
<path fill="#c57a36" stroke="none" d="
M 69.77 562.12
L 69.77 541.41
L 92.52 541.41
L 115.28 541.41
L 115.28 562.12
L 115.28 582.83
L 92.52 582.83
L 69.77 582.83
L 69.77 562.12"/>
<path fill="#c57a36" stroke="none" d="
M 132.47 562.12
L 132.47 541.41
L 156.23 541.41
L 179.99 541.41
L 179.99 562.12
L 179.99 582.83
L 156.23 582.83
L 132.47 582.83
L 132.47 562.12"/>
<path fill="#c57a36" stroke="none" d="
M 197.18 562.12
L 197.18 541.41
L 220.44 541.41
L 243.70 541.41
L 243.70 562.12
L 243.70 582.83
L 220.44 582.83
L 197.18 582.83
L 197.18 562.12"/>
<path fill="#c57a36" stroke="none" d="
M 260.89 562.12
L 260.89 541.41
L 284.65 541.41
L 308.42 541.41
L 308.42 562.12
L 308.42 582.83
L 284.65 582.83
L 260.89 582.83
L 260.89 562.12"/>
<path fill="#c57a36" stroke="none" d="
M 325.61 562.12
L 325.61 541.41
L 348.36 541.41
L 371.11 541.41
L 371.11 562.12
L 371.11 582.83
L 348.36 582.83
L 325.61 582.83
L 325.61 562.12"/>
<path fill="#c57a36" stroke="none" d="
M 388.30 562.12
L 388.30 541.41
L 411.56 541.41
L 434.82 541.41
L 434.82 562.12
L 434.82 582.83
L 411.56 582.83
L 388.30 582.83
L 388.30 562.12"/>
<path fill="#c57a36" stroke="none" d="
M 452.01 562.12
L 452.01 541.41
L 475.77 541.41
L 499.53 541.41
L 499.53 562.12
L 499.53 582.83
L 475.77 582.83
L 452.01 582.83
L 452.01 562.12"/>
<path fill="#c57a36" stroke="none" d="
M 516.72 562.12
L 516.72 541.41
L 539.48 541.41
L 562.23 541.41
L 562.23 562.12
L 562.23 582.83
L 539.48 582.83
L 516.72 582.83
L 516.72 562.12"/>
<path fill="#c57a36" stroke="none" d="
M 579.42 562.12
L 579.42 541.41
L 600.15 541.41
L 620.88 541.41
L 620.88 562.12
L 620.88 582.83
L 600.15 582.83
L 579.42 582.83
L 579.42 562.12"/>
<path fill="#c57a36" stroke="none" d="
M 11.36 503.79
L 11.63 483.33
L 32.11 483.06
L 52.58 482.79
L 52.58 503.52
L 52.58 524.24
L 31.83 524.24
L 11.08 524.24
L 11.36 503.79"/>
<path fill="#c57a36" stroke="none" d="
M 69.77 503.54
L 69.77 482.83
L 92.52 482.83
L 115.28 482.83
L 115.28 503.54
L 115.28 524.24
L 92.52 524.24
L 69.77 524.24
L 69.77 503.54"/>
<path fill="#c57a36" stroke="none" d="
M 132.47 503.54
L 132.47 482.83
L 156.23 482.83
L 179.99 482.83
L 179.99 503.54
L 179.99 524.24
L 156.23 524.24
L 132.47 524.24
L 132.47 503.54"/>
<path fill="#c57a36" stroke="none" d="
M 197.18 503.54
L 197.18 482.83
L 220.44 482.83
L 243.70 482.83
L 243.70 503.54
L 243.70 524.24
L 220.44 524.24
L 197.18 524.24
L 197.18 503.54"/>
<path fill="#c57a36" stroke="none" d="
M 260.89 503.54
L 260.89 482.83
L 284.65 482.83
L 308.42 482.83
L 308.42 503.54
L 308.42 524.24
L 284.65 524.24
L 260.89 524.24
L 260.89 503.54"/>
<path fill="#c57a36" stroke="none" d="
M 325.61 503.54
L 325.61 482.83
L 348.36 482.83
L 371.11 482.83
L 371.11 503.54
L 371.11 524.24
L 348.36 524.24
L 325.61 524.24
L 325.61 503.54"/>
<path fill="#c57a36" stroke="none" d="
M 388.30 503.54
L 388.30 482.83
L 411.56 482.83
L 434.82 482.83
L 434.82 503.54
L 434.82 524.24
L 411.56 524.24
L 388.30 524.24
L 388.30 503.54"/>
<path fill="#c57a36" stroke="none" d="
M 452.01 503.54
L 452.01 482.83
L 475.77 482.83
L 499.53 482.83
L 499.53 503.54
L 499.53 524.24
L 475.77 524.24
L 452.01 524.24
L 452.01 503.54"/>
<path fill="#c57a36" stroke="none" d="
M 516.72 503.54
L 516.72 482.83
L 539.48 482.83
L 562.23 482.83
L 562.23 503.54
L 562.23 524.24
L 539.48 524.24
L 516.72 524.24
L 516.72 503.54"/>
<path fill="#c57a36" stroke="none" d="
M 579.42 503.54
L 579.42 482.83
L 600.15 482.83
L 620.88 482.83
L 620.88 503.54
L 620.88 524.24
L 600.15 524.24
L 579.42 524.24
L 579.42 503.54"/>
</g>
</svg>
