<?xml version="1.0" encoding="UTF-8" standalone="no"?>
<!DOCTYPE svg PUBLIC "-//W3C//DTD SVG 1.1//EN"
"http://www.w3.org/Graphics/SVG/1.1/DTD/svg11.dtd">
<svg width="639px" height="600px"
xmlns="http://www.w3.org/2000/svg" version="1.1">
<g transform="translate(0000, 0000) scale(1.0000, 1.0000)">
<path fill="#000000" stroke="none" d="
M 2.04 597.96
C 0.04 595.95 0.00 594.55 0.00 532.03
C 0.00 469.50 0.04 468.10 2.04 466.10
C 4.07 464.07 5.45 464.05 156.44 464.05
L 308.79 464.05
L 308.52 422.57
L 308.25 381.07
L 297.32 374.77
C 291.31 371.32 282.57 365.73 277.90 362.37
C 266.17 353.94 246.14 333.64 238.78 322.74
L 232.74 313.80
L 183.63 313.80
L 134.53 313.80
L 130.91 317.29
C 125.60 322.43 108.10 333.81 98.45 338.43
C 93.83 340.63 85.08 343.65 79.02 345.13
C 68.90 347.58 67.41 347.71 60.90 346.62
C 42.87 343.59 33.17 337.99 16.62 321.05
C 3.95 308.05 1.27 303.18 2.38 295.03
C 6.27 266.36 12.59 247.40 21.45 237.78
C 26.33 232.50 34.27 228.95 41.19 228.97
C 47.63 228.99 61.28 234.17 71.16 240.35
C 81.70 246.93 98.89 260.49 115.49 275.30
L 127.70 286.20
L 150.63 286.20
L 173.55 286.20
L 173.18 281.86
C 172.80 277.28 171.25 247.06 170.11 221.36
C 169.44 206.50 169.33 205.91 165.88 199.43
C 160.85 189.94 156.56 185.12 147.04 178.25
C 135.08 169.63 134.96 169.47 134.96 163.47
C 134.96 155.33 139.87 118.84 143.69 98.64
C 154.80 39.90 167.40 8.68 182.72 1.85
C 186.97 -0.04 187.11 -0.03 190.95 1.92
C 206.18 9.69 218.52 40.66 229.49 98.64
C 233.30 118.84 238.22 155.33 238.22 163.47
C 238.22 169.47 238.10 169.63 226.13 178.25
C 216.62 185.12 212.32 189.94 207.29 199.43
C 203.85 205.91 203.73 206.50 203.07 221.36
C 201.92 247.06 200.38 277.28 199.99 281.86
L 199.62 286.20
L 414.71 286.20
C 628.44 286.20 629.81 286.21 631.84 288.25
C 633.60 290.00 633.89 291.65 633.89 300.00
C 633.89 315.59 650.08 313.80 509.09 313.80
L 388.40 313.80
L 391.10 318.14
C 396.07 326.14 403.75 342.86 405.52 349.57
C 410.79 369.42 404.92 385.05 389.67 391.83
C 382.48 395.01 369.49 397.01 361.42 396.18
C 355.71 395.59 339.85 392.46 334.58 390.90
L 332.28 390.22
L 332.28 427.13
L 332.28 464.05
L 483.60 464.05
C 633.55 464.05 634.93 464.07 636.96 466.10
C 638.96 468.10 639.00 469.50 639.00 532.03
C 639.00 594.55 638.96 595.95 636.96 597.96
C 634.92 599.99 633.55 600.00 319.50 600.00
C 5.45 600.00 4.08 599.99 2.04 597.96
M 632.87 593.87
C 634.86 591.87 634.91 590.46 634.91 532.03
C 634.91 473.59 634.86 472.18 632.87 470.19
C 630.83 468.15 629.46 468.14 319.50 468.14
C 9.54 468.14 8.17 468.15 6.13 470.19
C 4.14 472.18 4.09 473.59 4.09 532.03
C 4.09 590.46 4.14 591.87 6.13 593.87
C 8.17 595.90 9.54 595.91 319.50 595.91
C 629.46 595.91 630.83 595.90 632.87 593.87
M 325.12 426.44
L 325.12 388.82
L 320.52 386.59
L 315.92 384.36
L 315.92 424.20
L 315.92 464.05
L 320.52 464.05
L 325.12 464.05
L 325.12 426.44
M 374.45 388.40
C 378.25 387.85 382.85 386.78 384.68 386.02
C 387.69 384.78 387.05 384.70 377.70 385.12
C 340.55 386.85 285.89 357.93 260.21 322.94
L 253.50 313.80
L 247.33 313.80
L 241.15 313.80
L 245.54 320.19
C 247.95 323.70 255.69 332.33 262.74 339.37
C 280.61 357.24 298.45 369.12 321.60 378.53
C 333.12 383.22 345.61 386.74 356.33 388.30
C 364.78 389.53 366.57 389.54 374.45 388.40
M 388.17 376.21
C 390.52 375.15 392.93 373.35 393.54 372.21
C 398.20 363.52 388.66 345.78 367.72 324.28
L 357.52 313.80
L 344.91 313.80
L 332.28 313.80
L 332.28 340.93
L 332.28 368.04
L 336.91 370.03
C 341.34 371.93 357.59 376.58 362.95 377.49
C 364.36 377.72 369.65 377.97 374.71 378.03
C 381.74 378.12 384.91 377.69 388.17 376.21
M 325.12 339.86
L 325.12 313.80
L 320.52 313.80
L 315.92 313.80
L 315.92 337.21
L 315.92 360.61
L 320.27 363.23
C 322.66 364.67 324.72 365.87 324.87 365.89
C 325.01 365.91 325.12 354.19 325.12 339.86
M 308.43 314.14
C 308.21 313.93 297.81 313.88 285.32 314.03
L 262.60 314.31
L 267.64 320.95
C 274.57 330.07 287.04 341.73 298.59 349.90
L 308.25 356.74
L 308.53 335.63
C 308.68 324.02 308.63 314.35 308.43 314.14
M 397.21 346.78
C 394.60 339.76 385.84 322.84 382.32 317.97
C 379.40 313.95 379.10 313.80 373.57 313.80
L 367.85 313.80
L 375.51 321.94
C 384.22 331.19 391.62 340.71 395.54 347.70
C 398.87 353.63 399.62 353.22 397.21 346.78
M 75.44 340.80
C 79.78 339.91 86.78 337.70 90.99 335.87
C 100.05 331.95 115.39 322.61 121.15 317.51
L 125.24 313.88
L 115.17 313.84
L 105.11 313.80
L 100.60 317.76
C 91.19 326.05 74.06 332.91 65.43 331.84
C 54.99 330.55 42.30 324.31 33.63 316.19
C 31.29 313.99 30.18 313.73 24.49 314.00
L 18.00 314.31
L 21.52 318.33
C 26.77 324.30 38.95 333.66 45.56 336.79
C 50.86 339.29 61.19 342.13 65.73 342.34
C 66.74 342.38 71.11 341.69 75.44 340.80
M 83.31 322.05
C 87.81 319.78 92.65 317.01 94.06 315.88
L 96.62 313.84
L 68.70 313.82
C 52.37 313.81 41.01 314.18 41.35 314.72
C 41.66 315.23 44.56 317.41 47.80 319.55
C 61.02 328.35 69.56 328.95 83.31 322.05
M 624.48 305.42
C 626.07 303.83 626.07 296.17 624.48 294.58
C 623.53 293.63 554.68 293.36 320.83 293.36
C 19.76 293.36 18.39 293.37 16.36 295.40
C 15.23 296.52 14.31 298.59 14.31 300.00
C 14.31 301.41 15.23 303.48 16.36 304.60
C 18.39 306.63 19.76 306.64 320.83 306.64
C 554.68 306.64 623.53 306.37 624.48 305.42
M 21.96 276.75
C 25.90 255.71 29.01 249.51 37.53 245.59
L 43.17 243.02
L 49.36 244.90
C 59.90 248.09 66.68 253.06 91.50 275.87
L 102.75 286.19
L 110.42 286.17
L 118.09 286.14
L 110.93 279.25
C 84.96 254.29 53.96 234.16 41.41 234.13
C 28.29 234.09 17.68 247.68 11.76 272.07
C 8.22 286.69 8.12 286.20 14.70 286.20
L 20.19 286.20
L 21.96 276.75
M 84.86 277.80
C 59.48 253.49 47.52 246.45 39.06 250.83
C 33.73 253.58 28.84 263.88 27.12 275.98
C 26.77 278.51 26.23 281.85 25.94 283.39
L 25.40 286.20
L 59.47 286.16
L 93.55 286.12
L 84.86 277.80
M 192.62 280.83
C 192.93 277.88 193.65 264.66 194.24 251.45
C 194.83 238.23 195.54 224.10 195.84 220.02
L 196.38 212.61
L 186.59 212.61
L 176.79 212.61
L 177.34 220.02
C 177.63 224.10 178.35 238.23 178.94 251.45
C 179.52 264.66 180.25 277.88 180.56 280.83
L 181.11 286.20
L 186.59 286.20
L 192.07 286.20
L 192.62 280.83
M 196.30 204.99
C 196.30 203.61 198.17 198.90 200.46 194.51
C 205.07 185.70 215.76 173.90 222.10 170.61
C 228.68 167.20 229.41 164.46 228.01 148.33
C 224.38 106.41 209.38 41.26 198.31 19.37
C 195.01 12.81 190.16 8.18 186.59 8.18
C 183.02 8.18 178.16 12.81 174.86 19.37
C 163.80 41.26 148.80 106.41 145.17 148.33
C 143.77 164.46 144.50 167.20 151.08 170.61
C 157.42 173.90 168.10 185.70 172.71 194.51
C 175.00 198.90 176.88 203.61 176.88 204.99
C 176.88 207.48 176.96 207.50 186.59 207.50
C 196.22 207.50 196.30 207.48 196.30 204.99"/>
<path fill="#000000" stroke="none" d="
M 412.03 254.51
C 409.24 251.72 409.45 248.15 413.08 237.05
C 417.31 224.10 421.27 217.53 430.36 208.43
C 446.41 192.34 469.82 185.70 491.36 191.14
C 504.51 194.46 513.64 199.53 522.52 208.43
C 531.61 217.53 535.56 224.10 539.80 237.05
C 543.43 248.15 543.64 251.72 540.85 254.51
C 538.85 256.52 537.45 256.56 476.44 256.56
C 415.43 256.56 414.03 256.52 412.03 254.51
M 532.33 247.79
C 533.20 245.52 528.92 230.45 525.68 224.39
C 522.11 217.73 512.04 207.67 505.39 204.13
C 499.51 201.01 483.77 197.27 476.44 197.27
C 469.11 197.27 453.36 201.01 447.48 204.13
C 440.84 207.67 430.77 217.73 427.20 224.39
C 423.96 230.45 419.67 245.52 420.54 247.79
C 421.10 249.23 427.07 249.40 476.44 249.40
C 525.81 249.40 531.78 249.23 532.33 247.79"/>
<path fill="#000000" stroke="none" d="
M 380.57 151.65
C 378.71 150.85 376.24 145.71 376.24 142.61
C 376.24 137.03 378.78 133.45 385.11 130.08
C 392.37 126.20 397.89 125.15 403.38 126.58
C 405.61 127.17 413.21 127.96 420.28 128.34
L 433.12 129.05
L 416.02 94.78
C 406.62 75.94 397.88 57.29 396.61 53.35
C 394.32 46.24 394.32 46.09 396.11 39.48
C 399.65 26.41 406.08 20.00 418.28 17.34
C 428.23 15.17 437.57 18.35 449.02 27.78
C 474.50 48.78 496.45 73.01 508.15 93.05
C 512.19 99.97 518.36 116.51 518.36 120.45
C 518.36 121.59 518.89 122.86 519.53 123.26
C 521.19 124.29 523.59 120.63 522.91 118.11
C 519.88 106.94 516.40 98.58 506.99 79.89
C 490.50 47.18 486.24 33.81 488.65 22.28
C 490.15 15.02 494.88 10.22 500.55 10.22
C 507.21 10.22 510.25 15.68 514.20 34.75
C 517.43 50.36 518.83 53.78 526.92 65.79
C 535.41 78.39 541.68 90.32 544.72 99.68
C 550.53 117.56 550.06 134.97 543.59 141.93
C 539.57 146.24 535.92 147.35 522.56 148.32
C 515.47 148.83 507.60 149.78 505.07 150.41
C 500.32 151.60 383.18 152.77 380.57 151.65
M 498.93 144.27
C 501.47 143.63 509.34 142.70 516.42 142.19
C 530.41 141.18 533.84 140.02 538.13 134.93
C 546.78 124.66 540.19 100.70 520.79 71.92
C 512.58 59.73 511.44 56.88 507.66 39.17
C 505.14 27.31 501.87 18.40 500.04 18.40
C 498.42 18.40 495.83 22.88 495.21 26.76
C 494.29 32.42 500.20 48.01 512.66 72.83
C 525.91 99.21 528.67 106.72 529.36 118.19
C 529.80 125.66 529.62 126.73 527.68 128.67
C 525.35 131.00 520.31 131.53 516.03 129.89
C 514.00 129.13 512.90 126.93 509.88 117.66
C 504.31 100.52 495.36 86.55 476.76 65.93
C 462.81 50.47 440.43 30.64 432.15 26.40
C 420.92 20.65 408.51 27.20 403.47 41.52
C 402.04 45.58 402.11 46.04 405.31 53.79
C 409.37 63.61 435.41 115.79 440.32 123.93
C 444.10 130.19 444.17 133.04 440.58 134.96
C 438.71 135.97 406.07 134.65 399.96 133.33
C 397.16 132.72 385.90 138.39 384.94 140.89
C 384.53 141.96 385.15 143.25 386.61 144.44
C 388.80 146.21 391.70 146.29 441.63 145.86
C 475.69 145.57 495.96 145.01 498.93 144.27"/>
<path fill="#000000" stroke="none" d="
M 7.16 561.67
L 7.16 536.63
L 32.21 536.63
L 57.25 536.63
L 57.25 561.67
L 57.25 586.71
L 32.21 586.71
L 7.16 586.71
L 7.16 561.67
M 53.16 561.67
L 53.16 540.72
L 32.21 540.72
L 11.25 540.72
L 11.25 561.67
L 11.25 582.62
L 32.21 582.62
L 53.16 582.62
L 53.16 561.67"/>
<path fill="#000000" stroke="none" d="
M 66.46 561.67
L 66.46 536.63
L 93.55 536.63
L 120.64 536.63
L 120.64 561.67
L 120.64 586.71
L 93.55 586.71
L 66.46 586.71
L 66.46 561.67
M 116.55 561.67
L 116.55 540.72
L 93.55 540.72
L 70.55 540.72
L 70.55 561.67
L 70.55 582.62
L 93.55 582.62
L 116.55 582.62
L 116.55 561.67"/>
<path fill="#000000" stroke="none" d="
M 129.84 561.67
L 129.84 536.63
L 157.96 536.63
L 186.08 536.63
L 186.08 561.67
L 186.08 586.71
L 157.96 586.71
L 129.84 586.71
L 129.84 561.67
M 181.99 561.67
L 181.99 540.72
L 157.96 540.72
L 133.93 540.72
L 133.93 561.67
L 133.93 582.62
L 157.96 582.62
L 181.99 582.62
L 181.99 561.67"/>
<path fill="#000000" stroke="none" d="
M 195.28 561.67
L 195.28 536.63
L 222.88 536.63
L 250.49 536.63
L 250.49 561.67
L 250.49 586.71
L 222.88 586.71
L 195.28 586.71
L 195.28 561.67
M 246.40 561.67
L 246.40 540.72
L 222.88 540.72
L 199.37 540.72
L 199.37 561.67
L 199.37 582.62
L 222.88 582.62
L 246.40 582.62
L 246.40 561.67"/>
<path fill="#000000" stroke="none" d="
M 259.69 561.67
L 259.69 536.63
L 287.81 536.63
L 315.92 536.63
L 315.92 561.67
L 315.92 586.71
L 287.81 586.71
L 259.69 586.71
L 259.69 561.67
M 311.83 561.67
L 311.83 540.72
L 287.81 540.72
L 263.78 540.72
L 263.78 561.67
L 263.78 582.62
L 287.81 582.62
L 311.83 582.62
L 311.83 561.67"/>
<path fill="#000000" stroke="none" d="
M 325.12 561.67
L 325.12 536.63
L 352.22 536.63
L 379.31 536.63
L 379.31 561.67
L 379.31 586.71
L 352.22 586.71
L 325.12 586.71
L 325.12 561.67
M 375.22 561.67
L 375.22 540.72
L 352.22 540.72
L 329.21 540.72
L 329.21 561.67
L 329.21 582.62
L 352.22 582.62
L 375.22 582.62
L 375.22 561.67"/>
<path fill="#000000" stroke="none" d="
M 388.51 561.67
L 388.51 536.63
L 416.12 536.63
L 443.72 536.63
L 443.72 561.67
L 443.72 586.71
L 416.12 586.71
L 388.51 586.71
L 388.51 561.67
M 439.63 561.67
L 439.63 540.72
L 416.12 540.72
L 392.60 540.72
L 392.60 561.67
L 392.60 582.62
L 416.12 582.62
L 439.63 582.62
L 439.63 561.67"/>
<path fill="#000000" stroke="none" d="
M 452.92 561.67
L 452.92 536.63
L 481.04 536.63
L 509.16 536.63
L 509.16 561.67
L 509.16 586.71
L 481.04 586.71
L 452.92 586.71
L 452.92 561.67
M 505.07 561.67
L 505.07 540.72
L 481.04 540.72
L 457.01 540.72
L 457.01 561.67
L 457.01 582.62
L 481.04 582.62
L 505.07 582.62
L 505.07 561.67"/>
<path fill="#000000" stroke="none" d="
M 518.36 561.67
L 518.36 536.63
L 545.45 536.63
L 572.54 536.63
L 572.54 561.67
L 572.54 586.71
L 545.45 586.71
L 518.36 586.71
L 518.36 561.67
M 568.45 561.67
L 568.45 540.72
L 545.45 540.72
L 522.45 540.72
L 522.45 561.67
L 522.45 582.62
L 545.45 582.62
L 568.45 582.62
L 568.45 561.67"/>
<path fill="#000000" stroke="none" d="
M 581.75 561.67
L 581.75 536.63
L 606.79 536.63
L 631.84 536.63
L 631.84 561.67
L 631.84 586.71
L 606.79 586.71
L 581.75 586.71
L 581.75 561.67
M 627.75 561.67
L 627.75 540.72
L 606.79 540.72
L 585.84 540.72
L 585.84 561.67
L 585.84 582.62
L 606.79 582.62
L 627.75 582.62
L 627.75 561.67"/>
<path fill="#000000" stroke="none" d="
M 7.16 502.39
L 7.16 477.34
L 32.21 477.34
L 57.25 477.34
L 57.25 502.39
L 57.25 527.43
L 32.21 527.43
L 7.16 527.43
L 7.16 502.39
M 53.16 502.39
L 53.16 481.43
L 32.21 481.43
L 11.25 481.43
L 11.25 502.39
L 11.25 523.34
L 32.21 523.34
L 53.16 523.34
L 53.16 502.39"/>
<path fill="#000000" stroke="none" d="
M 66.46 502.39
L 66.46 477.34
L 93.55 477.34
L 120.64 477.34
L 120.64 502.39
L 120.64 527.43
L 93.55 527.43
L 66.46 527.43
L 66.46 502.39
M 116.55 502.39
L 116.55 481.43
L 93.55 481.43
L 70.55 481.43
L 70.55 502.39
L 70.55 523.34
L 93.55 523.34
L 116.55 523.34
L 116.55 502.39"/>
<path fill="#000000" stroke="none" d="
M 129.84 502.39
L 129.84 477.34
L 157.96 477.34
L 186.08 477.34
L 186.08 502.39
L 186.08 527.43
L 157.96 527.43
L 129.84 527.43
L 129.84 502.39
M 181.99 502.39
L 181.99 481.43
L 157.96 481.43
L 133.93 481.43
L 133.93 502.39
L 133.93 523.34
L 157.96 523.34
L 181.99 523.34
L 181.99 502.39"/>
<path fill="#000000" stroke="none" d="
M 195.28 502.39
L 195.28 477.34
L 222.88 477.34
L 250.49 477.34
L 250.49 502.39
L 250.49 527.43
L 222.88 527.43
L 195.28 527.43
L 195.28 502.39
M 246.40 502.39
L 246.40 481.43
L 222.88 481.43
L 199.37 481.43
L 199.37 502.39
L 199.37 523.34
L 222.88 523.34
L 246.40 523.34
L 246.40 502.39"/>
<path fill="#000000" stroke="none" d="
M 259.69 502.39
L 259.69 477.34
L 287.81 477.34
L 315.92 477.34
L 315.92 502.39
L 315.92 527.43
L 287.81 527.43
L 259.69 527.43
L 259.69 502.39
M 311.83 502.39
L 311.83 481.43
L 287.81 481.43
L 263.78 481.43
L 263.78 502.39
L 263.78 523.34
L 287.81 523.34
L 311.83 523.34
L 311.83 502.39"/>
<path fill="#000000" stroke="none" d="
M 325.12 502.39
L 325.12 477.34
L 352.22 477.34
L 379.31 477.34
L 379.31 502.39
L 379.31 527.43
L 352.22 527.43
L 325.12 527.43
L 325.12 502.39
M 375.22 502.39
L 375.22 481.43
L 352.22 481.43
L 329.21 481.43
L 329.21 502.39
L 329.21 523.34
L 352.22 523.34
L 375.22 523.34
L 375.22 502.39"/>
<path fill="#000000" stroke="none" d="
M 388.51 502.39
L 388.51 477.34
L 416.12 477.34
L 443.72 477.34
L 443.72 502.39
L 443.72 527.43
L 416.12 527.43
L 388.51 527.43
L 388.51 502.39
M 439.63 502.39
L 439.63 481.43
L 416.12 481.43
L 392.60 481.43
L 392.60 502.39
L 392.60 523.34
L 416.12 523.34
L 439.63 523.34
L 439.63 502.39"/>
<path fill="#000000" stroke="none" d="
M 452.92 502.39
L 452.92 477.34
L 481.04 477.34
L 509.16 477.34
L 509.16 502.39
L 509.16 527.43
L 481.04 527.43
L 452.92 527.43
L 452.92 502.39
M 505.07 502.39
L 505.07 481.43
L 481.04 481.43
L 457.01 481.43
L 457.01 502.39
L 457.01 523.34
L 481.04 523.34
L 505.07 523.34
L 505.07 502.39"/>
<path fill="#000000" stroke="none" d="
M 518.36 502.39
L 518.36 477.34
L 545.45 477.34
L 572.54 477.34
L 572.54 502.39
L 572.54 527.43
L 545.45 527.43
L 518.36 527.43
L 518.36 502.39
M 568.45 502.39
L 568.45 481.43
L 545.45 481.43
L 522.45 481.43
L 522.45 502.39
L 522.45 523.34
L 545.45 523.34
L 568.45 523.34
L 568.45 502.39"/>
<path fill="#000000" stroke="none" d="
M 581.75 502.39
L 581.75 477.34
L 606.79 477.34
L 631.84 477.34
L 631.84 502.39
L 631.84 527.43
L 606.79 527.43
L 581.75 527.43
L 581.75 502.39
M 627.75 502.39
L 627.75 481.43
L 606.79 481.43
L 585.84 481.43
L 585.84 502.39
L 585.84 523.34
L 606.79 523.34
L 627.75 523.34
L 627.75 502.39"/>
<path fill="#1cb042" stroke="none" d="
M 176.88 204.99
C 176.88 203.61 175.00 198.90 172.71 194.51
C 168.10 185.70 157.42 173.90 151.08 170.61
C 144.50 167.20 143.77 164.46 145.17 148.33
C 147.96 116.11 159.01 62.33 168.40 35.34
C 174.77 17.00 179.37 9.87 185.69 8.62
C 192.07 7.34 197.88 15.47 204.78 35.34
C 214.16 62.33 225.21 116.11 228.01 148.33
C 229.41 164.46 228.68 167.20 222.10 170.61
C 215.76 173.90 205.07 185.70 200.46 194.51
C 198.17 198.90 196.30 203.61 196.30 204.99
C 196.30 207.48 196.22 207.50 186.59 207.50
C 176.96 207.50 176.88 207.48 176.88 204.99"/>
<path fill="#ffa453" stroke="none" d="
M 386.61 144.44
C 385.15 143.25 384.53 141.96 384.94 140.89
C 385.90 138.39 397.16 132.72 399.96 133.33
C 406.07 134.65 438.71 135.97 440.58 134.96
C 444.17 133.04 444.10 130.19 440.32 123.93
C 435.41 115.79 409.37 63.61 405.31 53.79
C 402.11 46.04 402.04 45.58 403.47 41.52
C 405.82 34.82 409.56 29.97 414.69 26.97
C 423.37 21.88 430.38 23.61 442.88 33.91
C 468.42 54.97 490.31 79.14 502.09 99.30
C 504.35 103.19 507.86 111.44 509.88 117.66
C 512.90 126.93 514.00 129.13 516.03 129.89
C 520.31 131.53 525.35 131.00 527.68 128.67
C 529.62 126.73 529.80 125.66 529.36 118.19
C 528.68 106.86 525.84 98.96 514.10 75.82
C 503.72 55.34 497.90 41.87 495.79 33.40
C 494.32 27.50 495.78 21.11 499.00 19.38
C 500.82 18.41 501.27 18.81 503.13 23.02
C 504.29 25.61 506.32 32.88 507.66 39.17
C 511.44 56.88 512.58 59.73 520.79 71.92
C 540.19 100.70 546.78 124.66 538.13 134.93
C 533.84 140.02 530.41 141.18 516.42 142.19
C 509.34 142.70 501.47 143.63 498.93 144.27
C 495.96 145.01 475.69 145.57 441.63 145.86
C 391.70 146.29 388.80 146.21 386.61 144.44"/>
<path fill="#d78840" stroke="none" d="
M 420.54 247.79
C 419.67 245.52 423.96 230.45 427.20 224.39
C 430.79 217.69 440.85 207.66 447.58 204.08
C 453.25 201.06 469.54 197.27 476.87 197.27
C 483.82 197.27 499.67 201.09 505.39 204.13
C 512.04 207.67 522.11 217.73 525.68 224.39
C 528.92 230.45 533.20 245.52 532.33 247.79
C 531.78 249.23 525.81 249.40 476.44 249.40
C 427.07 249.40 421.10 249.23 420.54 247.79"/>
<path fill="#c55436" stroke="none" d="
M 315.92 424.20
L 315.92 384.36
L 320.52 386.59
L 325.12 388.82
L 325.12 426.44
L 325.12 464.05
L 320.52 464.05
L 315.92 464.05
L 315.92 424.20"/>
<path fill="#c55436" stroke="none" d="
M 320.27 363.23
L 315.92 360.61
L 315.92 337.21
L 315.92 313.80
L 320.52 313.80
L 325.12 313.80
L 325.12 339.86
C 325.12 354.19 325.01 365.91 324.87 365.89
C 324.72 365.87 322.66 364.67 320.27 363.23"/>
<path fill="#c55436" stroke="none" d="
M 16.36 304.60
C 15.23 303.48 14.31 301.41 14.31 300.00
C 14.31 298.59 15.23 296.52 16.36 295.40
C 18.39 293.37 19.76 293.36 320.83 293.36
C 554.68 293.36 623.53 293.63 624.48 294.58
C 626.07 296.17 626.07 303.83 624.48 305.42
C 623.53 306.37 554.68 306.64 320.83 306.64
C 19.76 306.64 18.39 306.63 16.36 304.60"/>
<path fill="#c55436" stroke="none" d="
M 180.56 280.83
C 180.02 275.64 178.11 236.42 177.62 220.78
L 177.39 213.12
L 186.89 212.82
L 196.39 212.52
L 195.85 219.98
C 195.55 224.07 194.83 238.23 194.24 251.45
C 193.65 264.66 192.93 277.88 192.62 280.83
L 192.07 286.20
L 186.59 286.20
L 181.11 286.20
L 180.56 280.83"/>
<path fill="#ffa153" stroke="none" d="
M 57.63 340.90
C 54.20 340.15 48.76 338.30 45.56 336.79
C 38.95 333.66 26.77 324.30 21.52 318.33
L 18.00 314.31
L 24.49 314.00
C 30.18 313.73 31.29 313.99 33.63 316.19
C 42.30 324.31 54.99 330.55 65.43 331.84
C 74.06 332.91 91.19 326.05 100.60 317.76
L 105.11 313.80
L 115.17 313.84
L 125.24 313.88
L 121.15 317.51
C 115.39 322.61 100.05 331.95 90.99 335.87
C 83.86 338.96 69.93 342.52 65.73 342.34
C 64.73 342.30 61.08 341.64 57.63 340.90"/>
<path fill="#ffa153" stroke="none" d="
M 9.20 284.41
C 9.20 279.59 14.86 260.22 18.38 252.91
C 24.49 240.30 32.51 234.02 42.43 234.11
C 54.04 234.22 85.99 255.28 110.93 279.25
L 118.09 286.14
L 110.42 286.17
L 102.75 286.19
L 91.50 275.87
C 66.68 253.06 59.90 248.09 49.36 244.90
L 43.17 243.02
L 37.53 245.59
C 29.01 249.51 25.90 255.71 21.96 276.75
L 20.19 286.20
L 14.70 286.20
C 10.14 286.20 9.20 285.89 9.20 284.41"/>
<path fill="#ef907a" stroke="none" d="
M 356.33 388.30
C 324.86 383.71 290.60 366.36 265.23 342.15
C 255.48 332.84 242.31 317.10 242.31 314.76
C 242.31 314.23 244.82 313.80 247.90 313.80
L 253.50 313.80
L 260.21 322.94
C 281.11 351.39 321.56 376.41 358.78 383.88
C 364.87 385.10 370.42 385.46 377.70 385.12
C 387.05 384.70 387.69 384.78 384.68 386.02
C 381.13 387.50 369.25 389.47 365.00 389.29
C 363.59 389.23 359.69 388.78 356.33 388.30"/>
<path fill="#ef907a" stroke="none" d="
M 395.54 347.70
C 391.62 340.71 384.22 331.19 375.51 321.94
L 367.85 313.80
L 373.57 313.80
C 379.10 313.80 379.40 313.95 382.32 317.97
C 387.77 325.49 399.88 350.82 398.62 352.07
C 398.40 352.29 397.02 350.33 395.54 347.70"/>
<path fill="#0885ff" stroke="none" d="
M 6.13 593.87
C 4.14 591.87 4.09 590.46 4.09 532.22
C 4.09 482.36 4.32 472.30 5.54 470.64
C 6.97 468.68 11.48 468.65 318.90 468.40
C 629.87 468.13 630.82 468.14 632.87 470.19
C 634.87 472.19 634.91 473.55 634.91 532.03
C 634.91 590.46 634.86 591.87 632.87 593.87
C 630.83 595.90 629.46 595.91 319.50 595.91
C 9.54 595.91 8.17 595.90 6.13 593.87
M 57.25 561.67
L 57.25 536.63
L 32.21 536.63
L 7.16 536.63
L 7.16 561.67
L 7.16 586.71
L 32.21 586.71
L 57.25 586.71
L 57.25 561.67
M 120.64 561.67
L 120.64 536.63
L 93.55 536.63
L 66.46 536.63
L 66.46 561.67
L 66.46 586.71
L 93.55 586.71
L 120.64 586.71
L 120.64 561.67
M 186.08 561.67
L 186.08 536.63
L 157.96 536.63
L 129.84 536.63
L 129.84 561.67
L 129.84 586.71
L 157.96 586.71
L 186.08 586.71
L 186.08 561.67
M 250.49 561.67
L 250.49 536.63
L 222.88 536.63
L 195.28 536.63
L 195.28 561.67
L 195.28 586.71
L 222.88 586.71
L 250.49 586.71
L 250.49 561.67
M 315.92 561.67
L 315.92 536.63
L 287.81 536.63
L 259.69 536.63
L 259.69 561.67
L 259.69 586.71
L 287.81 586.71
L 315.92 586.71
L 315.92 561.67
M 379.31 561.67
L 379.31 536.63
L 352.22 536.63
L 325.12 536.63
L 325.12 561.67
L 325.12 586.71
L 352.22 586.71
L 379.31 586.71
L 379.31 561.67
M 443.72 561.67
L 443.72 536.63
L 416.12 536.63
L 388.51 536.63
L 388.51 561.67
L 388.51 586.71
L 416.12 586.71
L 443.72 586.71
L 443.72 561.67
M 509.16 561.67
L 509.16 536.63
L 481.04 536.63
L 452.92 536.63
L 452.92 561.67
L 452.92 586.71
L 481.04 586.71
L 509.16 586.71
L 509.16 561.67
M 572.54 561.67
L 572.54 536.63
L 545.45 536.63
L 518.36 536.63
L 518.36 561.67
L 518.36 586.71
L 545.45 586.71
L 572.54 586.71
L 572.54 561.67
M 631.84 561.67
L 631.84 536.63
L 606.79 536.63
L 581.75 536.63
L 581.75 561.67
L 581.75 586.71
L 606.79 586.71
L 631.84 586.71
L 631.84 561.67
M 57.25 502.39
L 57.25 477.34
L 32.21 477.34
L 7.16 477.34
L 7.16 502.39
L 7.16 527.43
L 32.21 527.43
L 57.25 527.43
L 57.25 502.39
M 120.64 502.39
L 120.64 477.34
L 93.55 477.34
L 66.46 477.34
L 66.46 502.39
L 66.46 527.43
L 93.55 527.43
L 120.64 527.43
L 120.64 502.39
M 186.08 502.39
L 186.08 477.34
L 157.96 477.34
L 129.84 477.34
L 129.84 502.39
L 129.84 527.43
L 157.96 527.43
L 186.08 527.43
L 186.08 502.39
M 250.49 502.39
L 250.49 477.34
L 222.88 477.34
L 195.28 477.34
L 195.28 502.39
L 195.28 527.43
L 222.88 527.43
L 250.49 527.43
L 250.49 502.39
M 315.92 502.39
L 315.92 477.34
L 287.81 477.34
L 259.69 477.34
L 259.69 502.39
L 259.69 527.43
L 287.81 527.43
L 315.92 527.43
L 315.92 502.39
M 379.31 502.39
L 379.31 477.34
L 352.22 477.34
L 325.12 477.34
L 325.12 502.39
L 325.12 527.43
L 352.22 527.43
L 379.31 527.43
L 379.31 502.39
M 443.72 502.39
L 443.72 477.34
L 416.12 477.34
L 388.51 477.34
L 388.51 502.39
L 388.51 527.43
L 416.12 527.43
L 443.72 527.43
L 443.72 502.39
M 509.16 502.39
L 509.16 477.34
L 481.04 477.34
L 452.92 477.34
L 452.92 502.39
L 452.92 527.43
L 481.04 527.43
L 509.16 527.43
L 509.16 502.39
M 572.54 502.39
L 572.54 477.34
L 545.45 477.34
L 518.36 477.34
L 518.36 502.39
L 518.36 527.43
L 545.45 527.43
L 572.54 527.43
L 572.54 502.39
M 631.84 502.39
L 631.84 477.34
L 606.79 477.34
L 581.75 477.34
L 581.75 502.39
L 581.75 527.43
L 606.79 527.43
L 631.84 527.43
L 631.84 502.39"/>
<path fill="#c57a36" stroke="none" d="
M 11.25 561.67
L 11.25 540.72
L 32.21 540.72
L 53.16 540.72
L 53.16 561.67
L 53.16 582.62
L 32.21 582.62
L 11.25 582.62
L 11.25 561.67"/>
<path fill="#c57a36" stroke="none" d="
M 70.55 561.67
L 70.55 540.72
L 93.55 540.72
L 116.55 540.72
L 116.55 561.67
L 116.55 582.62
L 93.55 582.62
L 70.55 582.62
L 70.55 561.67"/>
<path fill="#c57a36" stroke="none" d="
M 133.93 561.67
L 133.93 540.72
L 157.96 540.72
L 181.99 540.72
L 181.99 561.67
L 181.99 582.62
L 157.96 582.62
L 133.93 582.62
L 133.93 561.67"/>
<path fill="#c57a36" stroke="none" d="
M 199.37 561.67
L 199.37 540.72
L 222.88 540.72
L 246.40 540.72
L 246.40 561.67
L 246.40 582.62
L 222.88 582.62
L 199.37 582.62
L 199.37 561.67"/>
<path fill="#c57a36" stroke="none" d="
M 263.78 561.67
L 263.78 540.72
L 287.81 540.72
L 311.83 540.72
L 311.83 561.67
L 311.83 582.62
L 287.81 582.62
L 263.78 582.62
L 263.78 561.67"/>
<path fill="#c57a36" stroke="none" d="
M 329.21 561.67
L 329.21 540.72
L 352.22 540.72
L 375.22 540.72
L 375.22 561.67
L 375.22 582.62
L 352.22 582.62
L 329.21 582.62
L 329.21 561.67"/>
<path fill="#c57a36" stroke="none" d="
M 392.60 561.67
L 392.60 540.72
L 416.12 540.72
L 439.63 540.72
L 439.63 561.67
L 439.63 582.62
L 416.12 582.62
L 392.60 582.62
L 392.60 561.67"/>
<path fill="#c57a36" stroke="none" d="
M 457.01 561.67
L 457.01 540.72
L 481.04 540.72
L 505.07 540.72
L 505.07 561.67
L 505.07 582.62
L 481.04 582.62
L 457.01 582.62
L 457.01 561.67"/>
<path fill="#c57a36" stroke="none" d="
M 522.45 561.67
L 522.45 540.72
L 545.45 540.72
L 568.45 540.72
L 568.45 561.67
L 568.45 582.62
L 545.45 582.62
L 522.45 582.62
L 522.45 561.67"/>
<path fill="#c57a36" stroke="none" d="
M 585.84 561.67
L 585.84 540.72
L 606.79 540.72
L 627.75 540.72
L 627.75 561.67
L 627.75 582.62
L 606.79 582.62
L 585.84 582.62
L 585.84 561.67"/>
<path fill="#c57a36" stroke="none" d="
M 11.48 502.64
L 11.76 481.94
L 32.46 481.67
L 53.16 481.39
L 53.16 502.36
L 53.16 523.34
L 32.19 523.34
L 11.21 523.34
L 11.48 502.64"/>
<path fill="#c57a36" stroke="none" d="
M 70.55 502.39
L 70.55 481.43
L 93.55 481.43
L 116.55 481.43
L 116.55 502.39
L 116.55 523.34
L 93.55 523.34
L 70.55 523.34
L 70.55 502.39"/>
<path fill="#c57a36" stroke="none" d="
M 133.93 502.39
L 133.93 481.43
L 157.96 481.43
L 181.99 481.43
L 181.99 502.39
L 181.99 523.34
L 157.96 523.34
L 133.93 523.34
L 133.93 502.39"/>
<path fill="#c57a36" stroke="none" d="
M 199.37 502.39
L 199.37 481.43
L 222.88 481.43
L 246.40 481.43
L 246.40 502.39
L 246.40 523.34
L 222.88 523.34
L 199.37 523.34
L 199.37 502.39"/>
<path fill="#c57a36" stroke="none" d="
M 263.78 502.39
L 263.78 481.43
L 287.81 481.43
L 311.83 481.43
L 311.83 502.39
L 311.83 523.34
L 287.81 523.34
L 263.78 523.34
L 263.78 502.39"/>
<path fill="#c57a36" stroke="none" d="
M 329.21 502.39
L 329.21 481.43
L 352.22 481.43
L 375.22 481.43
L 375.22 502.39
L 375.22 523.34
L 352.22 523.34
L 329.21 523.34
L 329.21 502.39"/>
<path fill="#c57a36" stroke="none" d="
M 392.60 502.39
L 392.60 481.43
L 416.12 481.43
L 439.63 481.43
L 439.63 502.39
L 439.63 523.34
L 416.12 523.34
L 392.60 523.34
L 392.60 502.39"/>
<path fill="#c57a36" stroke="none" d="
M 457.01 502.39
L 457.01 481.43
L 481.04 481.43
L 505.07 481.43
L 505.07 502.39
L 505.07 523.34
L 481.04 523.34
L 457.01 523.34
L 457.01 502.39"/>
<path fill="#c57a36" stroke="none" d="
M 522.45 502.39
L 522.45 481.43
L 545.45 481.43
L 568.45 481.43
L 568.45 502.39
L 568.45 523.34
L 545.45 523.34
L 522.45 523.34
L 522.45 502.39"/>
<path fill="#c57a36" stroke="none" d="
M 585.84 502.39
L 585.84 481.43
L 606.79 481.43
L 627.75 481.43
L 627.75 502.39
L 627.75 523.34
L 606.79 523.34
L 585.84 523.34
L 585.84 502.39"/>
</g>
</svg>
