<?xml version="1.0" encoding="UTF-8" standalone="no"?>
<!DOCTYPE svg PUBLIC "-//W3C//DTD SVG 1.1//EN"
"http://www.w3.org/Graphics/SVG/1.1/DTD/svg11.dtd">
<svg width="648px" height="600px"
xmlns="http://www.w3.org/2000/svg" version="1.1">
<g transform="translate(0000, 0000) scale(1.0000, 1.0000)">
<path fill="#000000" stroke="none" d="
M 2.07 597.93
C 0.04 595.90 0.00 594.48 0.00 531.09
C 0.00 467.70 0.04 466.28 2.07 464.25
C 4.13 462.20 5.53 462.18 158.64 462.18
L 313.13 462.18
L 312.86 420.11
L 312.60 378.04
L 301.51 371.66
C 295.42 368.16 286.55 362.50 281.81 359.09
C 269.92 350.54 249.61 329.96 242.14 318.91
L 236.02 309.84
L 186.22 309.84
L 136.42 309.84
L 132.75 313.39
C 127.37 318.59 109.62 330.13 99.83 334.82
C 95.15 337.05 86.28 340.10 80.13 341.61
C 69.87 344.09 68.36 344.23 61.76 343.12
C 43.47 340.05 33.63 334.37 16.86 317.19
C 4.00 304.02 1.29 299.08 2.42 290.82
C 6.36 261.75 12.76 242.53 21.75 232.78
C 26.70 227.42 34.75 223.82 41.77 223.84
C 48.30 223.87 62.15 229.12 72.16 235.38
C 82.85 242.05 100.28 255.80 117.12 270.82
L 129.50 281.87
L 384.08 281.87
C 637.29 281.87 638.68 281.88 640.74 283.94
C 642.53 285.72 642.82 287.39 642.82 295.85
C 642.82 311.66 659.24 309.84 516.26 309.84
L 393.87 309.84
L 396.61 314.25
C 401.65 322.35 409.43 339.31 411.24 346.11
C 416.58 366.24 410.62 382.08 395.16 388.95
C 387.87 392.18 374.69 394.21 366.51 393.37
C 360.72 392.77 344.63 389.60 339.29 388.01
L 336.96 387.33
L 336.96 424.75
L 336.96 462.18
L 490.41 462.18
C 642.47 462.18 643.87 462.20 645.93 464.25
C 647.96 466.28 648.00 467.70 648.00 531.09
C 648.00 594.48 647.96 595.90 645.93 597.93
C 643.86 599.99 642.47 600.00 324.00 600.00
C 5.53 600.00 4.14 599.99 2.07 597.93
M 641.78 593.78
C 643.80 591.76 643.85 590.33 643.85 531.09
C 643.85 471.84 643.80 470.41 641.78 468.39
C 639.72 466.33 638.33 466.32 324.00 466.32
C 9.67 466.32 8.28 466.33 6.22 468.39
C 4.20 470.41 4.15 471.84 4.15 531.09
C 4.15 590.33 4.20 591.76 6.22 593.78
C 8.28 595.84 9.67 595.85 324.00 595.85
C 638.33 595.85 639.72 595.84 641.78 593.78
M 329.70 424.04
L 329.70 385.91
L 325.04 383.64
L 320.37 381.38
L 320.37 421.77
L 320.37 462.18
L 325.04 462.18
L 329.70 462.18
L 329.70 424.04
M 379.73 385.47
C 383.57 384.92 388.24 383.83 390.10 383.07
C 393.15 381.80 392.50 381.72 383.01 382.16
C 345.35 383.91 289.92 354.58 263.88 319.11
L 257.07 309.84
L 250.81 309.84
L 244.55 309.84
L 249.00 316.32
C 251.44 319.89 259.29 328.63 266.44 335.77
C 284.56 353.89 302.65 365.93 326.13 375.47
C 337.81 380.23 350.48 383.79 361.35 385.38
C 369.92 386.62 371.73 386.63 379.73 385.47
M 393.64 373.12
C 396.02 372.04 398.46 370.22 399.09 369.07
C 403.81 360.25 394.13 342.27 372.90 320.47
L 362.56 309.84
L 349.76 309.84
L 336.96 309.84
L 336.96 337.35
L 336.96 364.84
L 341.66 366.85
C 346.15 368.78 362.63 373.49 368.06 374.41
C 369.49 374.65 374.86 374.90 379.99 374.96
C 387.12 375.06 390.33 374.62 393.64 373.12
M 329.70 336.27
L 329.70 309.84
L 325.04 309.84
L 320.37 309.84
L 320.37 333.58
L 320.37 357.31
L 324.78 359.96
C 327.20 361.42 329.30 362.63 329.44 362.65
C 329.59 362.67 329.70 350.80 329.70 336.27
M 312.77 310.19
C 312.55 309.98 302.01 309.93 289.34 310.08
L 266.30 310.36
L 271.41 317.10
C 278.43 326.34 291.08 338.17 302.80 346.45
L 312.60 353.38
L 312.88 331.98
C 313.03 320.21 312.98 310.40 312.77 310.19
M 402.81 343.28
C 400.15 336.17 391.28 319.02 387.70 314.07
C 384.75 310.00 384.44 309.84 378.84 309.84
L 373.03 309.84
L 380.80 318.09
C 389.63 327.47 397.14 337.13 401.11 344.22
C 404.49 350.23 405.24 349.81 402.81 343.28
M 76.51 337.22
C 80.90 336.32 88.00 334.07 92.28 332.22
C 101.46 328.25 117.01 318.78 122.86 313.61
L 127.01 309.93
L 116.80 309.89
L 106.59 309.84
L 102.02 313.87
C 92.47 322.27 75.11 329.22 66.36 328.13
C 55.77 326.83 42.89 320.50 34.10 312.27
C 31.73 310.04 30.61 309.77 24.83 310.05
L 18.26 310.36
L 21.82 314.44
C 27.14 320.49 39.50 329.98 46.20 333.15
C 51.58 335.69 62.05 338.57 66.66 338.78
C 67.68 338.82 72.11 338.12 76.51 337.22
M 84.48 318.21
C 89.05 315.91 93.95 313.10 95.39 311.96
L 97.98 309.89
L 69.66 309.87
C 53.10 309.85 41.59 310.23 41.93 310.78
C 42.25 311.30 45.18 313.50 48.47 315.68
C 61.88 324.60 70.54 325.20 84.48 318.21
M 633.28 301.35
C 634.88 299.74 634.88 291.97 633.28 290.36
C 632.31 289.40 562.50 289.12 325.35 289.12
C 20.04 289.12 18.65 289.13 16.59 291.19
C 15.45 292.33 14.52 294.42 14.52 295.85
C 14.52 297.28 15.45 299.38 16.59 300.52
C 18.65 302.58 20.04 302.59 325.35 302.59
C 562.50 302.59 632.31 302.31 633.28 301.35
M 22.27 272.28
C 26.26 250.95 29.41 244.66 38.06 240.69
L 43.77 238.08
L 50.06 239.99
C 60.75 243.22 67.62 248.27 92.79 271.39
L 104.20 281.85
L 111.97 281.83
L 119.75 281.80
L 112.49 274.82
C 86.16 249.51 54.72 229.11 41.99 229.08
C 28.69 229.04 17.93 242.81 11.92 267.54
C 8.34 282.36 8.23 281.87 14.91 281.87
L 20.48 281.87
L 22.27 272.28
M 86.05 273.35
C 60.32 248.70 48.19 241.56 39.61 246.01
C 34.20 248.80 29.25 259.23 27.51 271.50
C 27.14 274.07 26.60 277.45 26.30 279.02
L 25.75 281.87
L 60.31 281.82
L 94.87 281.78
L 86.05 273.35"/>
<path fill="#000000" stroke="none" d="
M 478.43 258.76
C 469.34 253.46 446.90 240.18 428.58 229.22
C 410.25 218.28 394.63 209.33 393.85 209.33
C 393.07 209.33 387.52 212.29 381.54 215.90
C 375.56 219.51 360.53 228.61 348.14 236.10
C 335.76 243.61 324.84 249.74 323.88 249.74
C 321.57 249.74 322.46 250.70 261.02 181.60
C 162.03 70.24 104.72 4.61 104.72 2.63
C 104.72 0.60 109.42 -0.55 112.31 0.78
C 113.55 1.35 171.49 35.98 241.06 77.74
C 310.63 119.51 400.30 173.32 440.33 197.31
C 500.09 233.13 513.34 241.47 514.39 243.94
C 515.54 246.64 515.33 247.60 512.28 253.47
C 508.42 260.92 500.96 268.39 497.38 268.39
C 496.06 268.39 487.53 264.06 478.43 258.76
M 498.69 252.69
C 500.41 250.33 501.79 247.88 501.77 247.25
C 501.74 246.62 452.87 216.74 393.19 180.83
C 333.49 144.92 252.99 96.50 214.31 73.21
C 175.63 49.93 143.71 31.14 143.39 31.47
C 143.07 31.79 143.63 33.33 144.64 34.87
C 145.65 36.41 185.72 81.77 233.68 135.67
C 281.65 189.56 321.82 234.75 322.96 236.07
L 325.05 238.48
L 358.14 218.21
C 379.19 205.32 392.21 197.94 393.91 197.97
C 395.52 197.99 415.95 209.70 445.31 227.42
C 472.11 243.59 494.38 256.86 494.80 256.91
C 495.23 256.95 496.98 255.06 498.69 252.69"/>
<path fill="#000000" stroke="none" d="
M 7.26 561.14
L 7.26 535.75
L 32.66 535.75
L 58.06 535.75
L 58.06 561.14
L 58.06 586.53
L 32.66 586.53
L 7.26 586.53
L 7.26 561.14
M 53.91 561.14
L 53.91 539.90
L 32.66 539.90
L 11.40 539.90
L 11.40 561.14
L 11.40 582.38
L 32.66 582.38
L 53.91 582.38
L 53.91 561.14"/>
<path fill="#000000" stroke="none" d="
M 67.39 561.14
L 67.39 535.75
L 94.87 535.75
L 122.34 535.75
L 122.34 561.14
L 122.34 586.53
L 94.87 586.53
L 67.39 586.53
L 67.39 561.14
M 118.20 561.14
L 118.20 539.90
L 94.87 539.90
L 71.54 539.90
L 71.54 561.14
L 71.54 582.38
L 94.87 582.38
L 118.20 582.38
L 118.20 561.14"/>
<path fill="#000000" stroke="none" d="
M 131.67 561.14
L 131.67 535.75
L 160.19 535.75
L 188.70 535.75
L 188.70 561.14
L 188.70 586.53
L 160.19 586.53
L 131.67 586.53
L 131.67 561.14
M 184.55 561.14
L 184.55 539.90
L 160.19 539.90
L 135.82 539.90
L 135.82 561.14
L 135.82 582.38
L 160.19 582.38
L 184.55 582.38
L 184.55 561.14"/>
<path fill="#000000" stroke="none" d="
M 198.03 561.14
L 198.03 535.75
L 226.02 535.75
L 254.02 535.75
L 254.02 561.14
L 254.02 586.53
L 226.02 586.53
L 198.03 586.53
L 198.03 561.14
M 249.87 561.14
L 249.87 539.90
L 226.02 539.90
L 202.18 539.90
L 202.18 561.14
L 202.18 582.38
L 226.02 582.38
L 249.87 582.38
L 249.87 561.14"/>
<path fill="#000000" stroke="none" d="
M 263.35 561.14
L 263.35 535.75
L 291.86 535.75
L 320.37 535.75
L 320.37 561.14
L 320.37 586.53
L 291.86 586.53
L 263.35 586.53
L 263.35 561.14
M 316.22 561.14
L 316.22 539.90
L 291.86 539.90
L 267.49 539.90
L 267.49 561.14
L 267.49 582.38
L 291.86 582.38
L 316.22 582.38
L 316.22 561.14"/>
<path fill="#000000" stroke="none" d="
M 329.70 561.14
L 329.70 535.75
L 357.18 535.75
L 384.65 535.75
L 384.65 561.14
L 384.65 586.53
L 357.18 586.53
L 329.70 586.53
L 329.70 561.14
M 380.51 561.14
L 380.51 539.90
L 357.18 539.90
L 333.85 539.90
L 333.85 561.14
L 333.85 582.38
L 357.18 582.38
L 380.51 582.38
L 380.51 561.14"/>
<path fill="#000000" stroke="none" d="
M 393.98 561.14
L 393.98 535.75
L 421.98 535.75
L 449.97 535.75
L 449.97 561.14
L 449.97 586.53
L 421.98 586.53
L 393.98 586.53
L 393.98 561.14
M 445.82 561.14
L 445.82 539.90
L 421.98 539.90
L 398.13 539.90
L 398.13 561.14
L 398.13 582.38
L 421.98 582.38
L 445.82 582.38
L 445.82 561.14"/>
<path fill="#000000" stroke="none" d="
M 459.30 561.14
L 459.30 535.75
L 487.81 535.75
L 516.33 535.75
L 516.33 561.14
L 516.33 586.53
L 487.81 586.53
L 459.30 586.53
L 459.30 561.14
M 512.18 561.14
L 512.18 539.90
L 487.81 539.90
L 463.45 539.90
L 463.45 561.14
L 463.45 582.38
L 487.81 582.38
L 512.18 582.38
L 512.18 561.14"/>
<path fill="#000000" stroke="none" d="
M 525.66 561.14
L 525.66 535.75
L 553.13 535.75
L 580.61 535.75
L 580.61 561.14
L 580.61 586.53
L 553.13 586.53
L 525.66 586.53
L 525.66 561.14
M 576.46 561.14
L 576.46 539.90
L 553.13 539.90
L 529.80 539.90
L 529.80 561.14
L 529.80 582.38
L 553.13 582.38
L 576.46 582.38
L 576.46 561.14"/>
<path fill="#000000" stroke="none" d="
M 589.94 561.14
L 589.94 535.75
L 615.34 535.75
L 640.74 535.75
L 640.74 561.14
L 640.74 586.53
L 615.34 586.53
L 589.94 586.53
L 589.94 561.14
M 636.60 561.14
L 636.60 539.90
L 615.34 539.90
L 594.09 539.90
L 594.09 561.14
L 594.09 582.38
L 615.34 582.38
L 636.60 582.38
L 636.60 561.14"/>
<path fill="#000000" stroke="none" d="
M 7.26 501.04
L 7.26 475.65
L 32.66 475.65
L 58.06 475.65
L 58.06 501.04
L 58.06 526.42
L 32.66 526.42
L 7.26 526.42
L 7.26 501.04
M 53.91 501.04
L 53.91 479.79
L 32.66 479.79
L 11.40 479.79
L 11.40 501.04
L 11.40 522.28
L 32.66 522.28
L 53.91 522.28
L 53.91 501.04"/>
<path fill="#000000" stroke="none" d="
M 67.39 501.04
L 67.39 475.65
L 94.87 475.65
L 122.34 475.65
L 122.34 501.04
L 122.34 526.42
L 94.87 526.42
L 67.39 526.42
L 67.39 501.04
M 118.20 501.04
L 118.20 479.79
L 94.87 479.79
L 71.54 479.79
L 71.54 501.04
L 71.54 522.28
L 94.87 522.28
L 118.20 522.28
L 118.20 501.04"/>
<path fill="#000000" stroke="none" d="
M 131.67 501.04
L 131.67 475.65
L 160.19 475.65
L 188.70 475.65
L 188.70 501.04
L 188.70 526.42
L 160.19 526.42
L 131.67 526.42
L 131.67 501.04
M 184.55 501.04
L 184.55 479.79
L 160.19 479.79
L 135.82 479.79
L 135.82 501.04
L 135.82 522.28
L 160.19 522.28
L 184.55 522.28
L 184.55 501.04"/>
<path fill="#000000" stroke="none" d="
M 198.03 501.04
L 198.03 475.65
L 226.02 475.65
L 254.02 475.65
L 254.02 501.04
L 254.02 526.42
L 226.02 526.42
L 198.03 526.42
L 198.03 501.04
M 249.87 501.04
L 249.87 479.79
L 226.02 479.79
L 202.18 479.79
L 202.18 501.04
L 202.18 522.28
L 226.02 522.28
L 249.87 522.28
L 249.87 501.04"/>
<path fill="#000000" stroke="none" d="
M 263.35 501.04
L 263.35 475.65
L 291.86 475.65
L 320.37 475.65
L 320.37 501.04
L 320.37 526.42
L 291.86 526.42
L 263.35 526.42
L 263.35 501.04
M 316.22 501.04
L 316.22 479.79
L 291.86 479.79
L 267.49 479.79
L 267.49 501.04
L 267.49 522.28
L 291.86 522.28
L 316.22 522.28
L 316.22 501.04"/>
<path fill="#000000" stroke="none" d="
M 329.70 501.04
L 329.70 475.65
L 357.18 475.65
L 384.65 475.65
L 384.65 501.04
L 384.65 526.42
L 357.18 526.42
L 329.70 526.42
L 329.70 501.04
M 380.51 501.04
L 380.51 479.79
L 357.18 479.79
L 333.85 479.79
L 333.85 501.04
L 333.85 522.28
L 357.18 522.28
L 380.51 522.28
L 380.51 501.04"/>
<path fill="#000000" stroke="none" d="
M 393.98 501.04
L 393.98 475.65
L 421.98 475.65
L 449.97 475.65
L 449.97 501.04
L 449.97 526.42
L 421.98 526.42
L 393.98 526.42
L 393.98 501.04
M 445.82 501.04
L 445.82 479.79
L 421.98 479.79
L 398.13 479.79
L 398.13 501.04
L 398.13 522.28
L 421.98 522.28
L 445.82 522.28
L 445.82 501.04"/>
<path fill="#000000" stroke="none" d="
M 459.30 501.04
L 459.30 475.65
L 487.81 475.65
L 516.33 475.65
L 516.33 501.04
L 516.33 526.42
L 487.81 526.42
L 459.30 526.42
L 459.30 501.04
M 512.18 501.04
L 512.18 479.79
L 487.81 479.79
L 463.45 479.79
L 463.45 501.04
L 463.45 522.28
L 487.81 522.28
L 512.18 522.28
L 512.18 501.04"/>
<path fill="#000000" stroke="none" d="
M 525.66 501.04
L 525.66 475.65
L 553.13 475.65
L 580.61 475.65
L 580.61 501.04
L 580.61 526.42
L 553.13 526.42
L 525.66 526.42
L 525.66 501.04
M 576.46 501.04
L 576.46 479.79
L 553.13 479.79
L 529.80 479.79
L 529.80 501.04
L 529.80 522.28
L 553.13 522.28
L 576.46 522.28
L 576.46 501.04"/>
<path fill="#000000" stroke="none" d="
M 589.94 501.04
L 589.94 475.65
L 615.34 475.65
L 640.74 475.65
L 640.74 501.04
L 640.74 526.42
L 615.34 526.42
L 589.94 526.42
L 589.94 501.04
M 636.60 501.04
L 636.60 479.79
L 615.34 479.79
L 594.09 479.79
L 594.09 501.04
L 594.09 522.28
L 615.34 522.28
L 636.60 522.28
L 636.60 501.04"/>
<path fill="#ffb853" stroke="none" d="
M 445.31 227.42
C 415.95 209.70 395.52 197.99 393.91 197.97
C 392.21 197.94 379.19 205.32 358.14 218.21
L 325.05 238.48
L 322.96 236.07
C 321.82 234.75 281.65 189.56 233.68 135.67
C 185.72 81.77 145.69 36.48 144.73 34.99
C 143.75 33.52 143.35 32.08 143.80 31.79
C 144.27 31.51 176.92 50.70 216.36 74.45
C 255.81 98.19 336.14 146.53 394.90 181.87
C 453.65 217.20 501.74 246.62 501.77 247.25
C 501.82 248.70 495.83 257.03 494.80 256.91
C 494.38 256.86 472.11 243.59 445.31 227.42"/>
<path fill="#ffa153" stroke="none" d="
M 58.44 337.32
C 54.96 336.56 49.44 334.68 46.20 333.15
C 39.50 329.98 27.14 320.49 21.82 314.44
L 18.26 310.36
L 24.83 310.05
C 30.61 309.77 31.73 310.04 34.10 312.27
C 42.89 320.50 55.77 326.83 66.36 328.13
C 75.11 329.22 92.47 322.27 102.02 313.87
L 106.59 309.84
L 116.80 309.89
L 127.01 309.93
L 122.86 313.61
C 117.01 318.78 101.46 328.25 92.28 332.22
C 85.04 335.36 70.92 338.96 66.66 338.78
C 65.64 338.74 61.94 338.07 58.44 337.32"/>
<path fill="#ffa153" stroke="none" d="
M 9.33 280.05
C 9.33 275.16 15.06 255.52 18.64 248.11
C 24.83 235.33 32.97 228.96 43.03 229.06
C 54.81 229.17 87.21 250.52 112.49 274.82
L 119.75 281.80
L 111.97 281.83
L 104.20 281.85
L 92.79 271.39
C 67.62 248.27 60.75 243.22 50.06 239.99
L 43.77 238.08
L 38.06 240.69
C 29.41 244.66 26.26 250.95 22.27 272.28
L 20.48 281.87
L 14.91 281.87
C 10.29 281.87 9.33 281.55 9.33 280.05"/>
<path fill="#c55436" stroke="none" d="
M 320.37 421.77
L 320.37 381.38
L 325.04 383.64
L 329.70 385.91
L 329.70 424.04
L 329.70 462.18
L 325.04 462.18
L 320.37 462.18
L 320.37 421.77"/>
<path fill="#c55436" stroke="none" d="
M 324.78 359.96
L 320.37 357.31
L 320.37 333.58
L 320.37 309.84
L 325.04 309.84
L 329.70 309.84
L 329.70 336.27
C 329.70 350.80 329.59 362.67 329.44 362.65
C 329.30 362.63 327.20 361.42 324.78 359.96"/>
<path fill="#c55436" stroke="none" d="
M 16.59 300.52
C 14.16 298.09 13.91 294.49 15.99 291.65
C 17.44 289.67 21.92 289.64 324.58 289.38
C 551.30 289.18 632.07 289.42 633.11 290.28
C 634.85 291.72 634.97 299.66 633.28 301.35
C 632.31 302.31 562.50 302.59 325.35 302.59
C 20.04 302.59 18.65 302.58 16.59 300.52"/>
<path fill="#ef907a" stroke="none" d="
M 361.35 385.38
C 329.43 380.73 294.69 363.13 268.97 338.59
C 259.08 329.15 245.72 313.19 245.72 310.82
C 245.72 310.28 248.27 309.84 251.39 309.84
L 257.07 309.84
L 263.88 319.11
C 285.07 347.96 326.08 373.32 363.83 380.89
C 370.01 382.13 375.63 382.50 383.01 382.16
C 392.50 381.72 393.15 381.80 390.10 383.07
C 386.50 384.56 374.45 386.56 370.14 386.38
C 368.71 386.32 364.76 385.87 361.35 385.38"/>
<path fill="#ef907a" stroke="none" d="
M 401.11 344.22
C 397.14 337.13 389.63 327.47 380.80 318.09
L 373.03 309.84
L 378.84 309.84
C 384.44 309.84 384.75 310.00 387.70 314.07
C 393.23 321.70 405.51 347.38 404.24 348.64
C 404.01 348.87 402.61 346.88 401.11 344.22"/>
<path fill="#0885ff" stroke="none" d="
M 6.22 593.78
C 4.20 591.76 4.15 590.33 4.15 531.28
C 4.15 480.74 4.39 470.54 5.62 468.85
C 7.07 466.87 11.64 466.84 323.39 466.58
C 638.74 466.31 639.71 466.32 641.78 468.39
C 643.81 470.42 643.85 471.80 643.85 531.09
C 643.85 590.33 643.80 591.76 641.78 593.78
C 639.72 595.84 638.33 595.85 324.00 595.85
C 9.67 595.85 8.28 595.84 6.22 593.78
M 58.06 561.14
L 58.06 535.75
L 32.66 535.75
L 7.26 535.75
L 7.26 561.14
L 7.26 586.53
L 32.66 586.53
L 58.06 586.53
L 58.06 561.14
M 122.34 561.14
L 122.34 535.75
L 94.87 535.75
L 67.39 535.75
L 67.39 561.14
L 67.39 586.53
L 94.87 586.53
L 122.34 586.53
L 122.34 561.14
M 188.70 561.14
L 188.70 535.75
L 160.19 535.75
L 131.67 535.75
L 131.67 561.14
L 131.67 586.53
L 160.19 586.53
L 188.70 586.53
L 188.70 561.14
M 254.02 561.14
L 254.02 535.75
L 226.02 535.75
L 198.03 535.75
L 198.03 561.14
L 198.03 586.53
L 226.02 586.53
L 254.02 586.53
L 254.02 561.14
M 320.37 561.14
L 320.37 535.75
L 291.86 535.75
L 263.35 535.75
L 263.35 561.14
L 263.35 586.53
L 291.86 586.53
L 320.37 586.53
L 320.37 561.14
M 384.65 561.14
L 384.65 535.75
L 357.18 535.75
L 329.70 535.75
L 329.70 561.14
L 329.70 586.53
L 357.18 586.53
L 384.65 586.53
L 384.65 561.14
M 449.97 561.14
L 449.97 535.75
L 421.98 535.75
L 393.98 535.75
L 393.98 561.14
L 393.98 586.53
L 421.98 586.53
L 449.97 586.53
L 449.97 561.14
M 516.33 561.14
L 516.33 535.75
L 487.81 535.75
L 459.30 535.75
L 459.30 561.14
L 459.30 586.53
L 487.81 586.53
L 516.33 586.53
L 516.33 561.14
M 580.61 561.14
L 580.61 535.75
L 553.13 535.75
L 525.66 535.75
L 525.66 561.14
L 525.66 586.53
L 553.13 586.53
L 580.61 586.53
L 580.61 561.14
M 640.74 561.14
L 640.74 535.75
L 615.34 535.75
L 589.94 535.75
L 589.94 561.14
L 589.94 586.53
L 615.34 586.53
L 640.74 586.53
L 640.74 561.14
M 58.06 501.04
L 58.06 475.65
L 32.66 475.65
L 7.26 475.65
L 7.26 501.04
L 7.26 526.42
L 32.66 526.42
L 58.06 526.42
L 58.06 501.04
M 122.34 501.04
L 122.34 475.65
L 94.87 475.65
L 67.39 475.65
L 67.39 501.04
L 67.39 526.42
L 94.87 526.42
L 122.34 526.42
L 122.34 501.04
M 188.70 501.04
L 188.70 475.65
L 160.19 475.65
L 131.67 475.65
L 131.67 501.04
L 131.67 526.42
L 160.19 526.42
L 188.70 526.42
L 188.70 501.04
M 254.02 501.04
L 254.02 475.65
L 226.02 475.65
L 198.03 475.65
L 198.03 501.04
L 198.03 526.42
L 226.02 526.42
L 254.02 526.42
L 254.02 501.04
M 320.37 501.04
L 320.37 475.65
L 291.86 475.65
L 263.35 475.65
L 263.35 501.04
L 263.35 526.42
L 291.86 526.42
L 320.37 526.42
L 320.37 501.04
M 384.65 501.04
L 384.65 475.65
L 357.18 475.65
L 329.70 475.65
L 329.70 501.04
L 329.70 526.42
L 357.18 526.42
L 384.65 526.42
L 384.65 501.04
M 449.97 501.04
L 449.97 475.65
L 421.98 475.65
L 393.98 475.65
L 393.98 501.04
L 393.98 526.42
L 421.98 526.42
L 449.97 526.42
L 449.97 501.04
M 516.33 501.04
L 516.33 475.65
L 487.81 475.65
L 459.30 475.65
L 459.30 501.04
L 459.30 526.42
L 487.81 526.42
L 516.33 526.42
L 516.33 501.04
M 580.61 501.04
L 580.61 475.65
L 553.13 475.65
L 525.66 475.65
L 525.66 501.04
L 525.66 526.42
L 553.13 526.42
L 580.61 526.42
L 580.61 501.04
M 640.74 501.04
L 640.74 475.65
L 615.34 475.65
L 589.94 475.65
L 589.94 501.04
L 589.94 526.42
L 615.34 526.42
L 640.74 526.42
L 640.74 501.04"/>
<path fill="#c57a36" stroke="none" d="
M 11.40 561.14
L 11.40 539.90
L 32.66 539.90
L 53.91 539.90
L 53.91 561.14
L 53.91 582.38
L 32.66 582.38
L 11.40 582.38
L 11.40 561.14"/>
<path fill="#c57a36" stroke="none" d="
M 71.54 561.14
L 71.54 539.90
L 94.87 539.90
L 118.20 539.90
L 118.20 561.14
L 118.20 582.38
L 94.87 582.38
L 71.54 582.38
L 71.54 561.14"/>
<path fill="#c57a36" stroke="none" d="
M 135.82 561.14
L 135.82 539.90
L 160.19 539.90
L 184.55 539.90
L 184.55 561.14
L 184.55 582.38
L 160.19 582.38
L 135.82 582.38
L 135.82 561.14"/>
<path fill="#c57a36" stroke="none" d="
M 202.18 561.14
L 202.18 539.90
L 226.02 539.90
L 249.87 539.90
L 249.87 561.14
L 249.87 582.38
L 226.02 582.38
L 202.18 582.38
L 202.18 561.14"/>
<path fill="#c57a36" stroke="none" d="
M 267.49 561.14
L 267.49 539.90
L 291.86 539.90
L 316.22 539.90
L 316.22 561.14
L 316.22 582.38
L 291.86 582.38
L 267.49 582.38
L 267.49 561.14"/>
<path fill="#c57a36" stroke="none" d="
M 333.85 561.14
L 333.85 539.90
L 357.18 539.90
L 380.51 539.90
L 380.51 561.14
L 380.51 582.38
L 357.18 582.38
L 333.85 582.38
L 333.85 561.14"/>
<path fill="#c57a36" stroke="none" d="
M 398.13 561.14
L 398.13 539.90
L 421.98 539.90
L 445.82 539.90
L 445.82 561.14
L 445.82 582.38
L 421.98 582.38
L 398.13 582.38
L 398.13 561.14"/>
<path fill="#c57a36" stroke="none" d="
M 463.45 561.14
L 463.45 539.90
L 487.81 539.90
L 512.18 539.90
L 512.18 561.14
L 512.18 582.38
L 487.81 582.38
L 463.45 582.38
L 463.45 561.14"/>
<path fill="#c57a36" stroke="none" d="
M 529.80 561.14
L 529.80 539.90
L 553.13 539.90
L 576.46 539.90
L 576.46 561.14
L 576.46 582.38
L 553.13 582.38
L 529.80 582.38
L 529.80 561.14"/>
<path fill="#c57a36" stroke="none" d="
M 594.09 561.14
L 594.09 539.90
L 615.34 539.90
L 636.60 539.90
L 636.60 561.14
L 636.60 582.38
L 615.34 582.38
L 594.09 582.38
L 594.09 561.14"/>
<path fill="#c57a36" stroke="none" d="
M 11.64 501.30
L 11.92 480.31
L 32.92 480.03
L 53.91 479.75
L 53.91 501.02
L 53.91 522.28
L 32.64 522.28
L 11.36 522.28
L 11.64 501.30"/>
<path fill="#c57a36" stroke="none" d="
M 71.54 501.04
L 71.54 479.79
L 94.87 479.79
L 118.20 479.79
L 118.20 501.04
L 118.20 522.28
L 94.87 522.28
L 71.54 522.28
L 71.54 501.04"/>
<path fill="#c57a36" stroke="none" d="
M 135.82 501.04
L 135.82 479.79
L 160.19 479.79
L 184.55 479.79
L 184.55 501.04
L 184.55 522.28
L 160.19 522.28
L 135.82 522.28
L 135.82 501.04"/>
<path fill="#c57a36" stroke="none" d="
M 202.18 501.04
L 202.18 479.79
L 226.02 479.79
L 249.87 479.79
L 249.87 501.04
L 249.87 522.28
L 226.02 522.28
L 202.18 522.28
L 202.18 501.04"/>
<path fill="#c57a36" stroke="none" d="
M 267.49 501.04
L 267.49 479.79
L 291.86 479.79
L 316.22 479.79
L 316.22 501.04
L 316.22 522.28
L 291.86 522.28
L 267.49 522.28
L 267.49 501.04"/>
<path fill="#c57a36" stroke="none" d="
M 333.85 501.04
L 333.85 479.79
L 357.18 479.79
L 380.51 479.79
L 380.51 501.04
L 380.51 522.28
L 357.18 522.28
L 333.85 522.28
L 333.85 501.04"/>
<path fill="#c57a36" stroke="none" d="
M 398.13 501.04
L 398.13 479.79
L 421.98 479.79
L 445.82 479.79
L 445.82 501.04
L 445.82 522.28
L 421.98 522.28
L 398.13 522.28
L 398.13 501.04"/>
<path fill="#c57a36" stroke="none" d="
M 463.45 501.04
L 463.45 479.79
L 487.81 479.79
L 512.18 479.79
L 512.18 501.04
L 512.18 522.28
L 487.81 522.28
L 463.45 522.28
L 463.45 501.04"/>
<path fill="#c57a36" stroke="none" d="
M 529.80 501.04
L 529.80 479.79
L 553.13 479.79
L 576.46 479.79
L 576.46 501.04
L 576.46 522.28
L 553.13 522.28
L 529.80 522.28
L 529.80 501.04"/>
<path fill="#c57a36" stroke="none" d="
M 594.09 501.04
L 594.09 479.79
L 615.34 479.79
L 636.60 479.79
L 636.60 501.04
L 636.60 522.28
L 615.34 522.28
L 594.09 522.28
L 594.09 501.04"/>
</g>
</svg>
