<?xml version="1.0" encoding="UTF-8" standalone="no"?>
<!DOCTYPE svg PUBLIC "-//W3C//DTD SVG 1.1//EN"
"http://www.w3.org/Graphics/SVG/1.1/DTD/svg11.dtd">
<svg width="585px" height="600px"
xmlns="http://www.w3.org/2000/svg" version="1.1">
<g transform="translate(0000, 0000) scale(1.0000, 1.0000)">
<path fill="#000000" stroke="none" d="
M 1.87 598.13
C 0.04 596.30 0.00 595.02 0.00 537.85
C 0.00 480.68 0.04 479.40 1.87 477.57
C 3.73 475.72 4.99 475.70 143.22 475.70
L 282.69 475.70
L 282.45 437.77
L 282.20 399.82
L 272.20 394.07
C 266.69 390.91 258.69 385.80 254.41 382.73
C 243.68 375.02 225.34 356.46 218.60 346.50
L 213.07 338.32
L 168.11 338.32
L 123.16 338.32
L 119.85 341.51
C 114.99 346.21 98.96 356.62 90.13 360.84
C 85.90 362.85 77.89 365.61 72.34 366.96
C 63.08 369.21 61.71 369.33 55.76 368.33
C 39.25 365.56 30.36 360.44 15.22 344.94
C 3.61 333.07 1.16 328.61 2.18 321.16
C 5.74 294.94 11.52 277.61 19.64 268.81
C 24.10 263.98 31.37 260.74 37.71 260.76
C 43.61 260.78 56.10 265.51 65.15 271.16
C 74.80 277.18 90.53 289.58 105.73 303.12
L 116.91 313.08
L 346.74 313.08
C 575.33 313.08 576.59 313.09 578.45 314.95
C 580.06 316.56 580.32 318.07 580.32 325.70
C 580.32 339.95 595.15 338.32 466.07 338.32
L 355.58 338.32
L 358.05 342.29
C 362.60 349.60 369.63 364.89 371.26 371.03
C 376.08 389.18 370.70 403.47 356.74 409.66
C 350.16 412.57 338.26 414.40 330.88 413.64
C 325.65 413.10 311.13 410.24 306.31 408.81
L 304.20 408.20
L 304.20 441.94
L 304.20 475.70
L 442.73 475.70
C 580.01 475.70 581.27 475.72 583.13 477.57
C 584.96 479.40 585.00 480.68 585.00 537.85
C 585.00 595.02 584.96 596.30 583.13 598.13
C 581.27 599.99 580.01 600.00 292.50 600.00
C 4.99 600.00 3.73 599.99 1.87 598.13
M 579.38 594.39
C 581.21 592.57 581.26 591.28 581.26 537.85
C 581.26 484.42 581.21 483.13 579.38 481.31
C 577.52 479.45 576.27 479.44 292.50 479.44
C 8.73 479.44 7.48 479.45 5.62 481.31
C 3.79 483.13 3.74 484.42 3.74 537.85
C 3.74 591.28 3.79 592.57 5.62 594.39
C 7.48 596.25 8.73 596.26 292.50 596.26
C 576.27 596.26 577.52 596.25 579.38 594.39
M 297.65 441.31
L 297.65 406.92
L 293.44 404.87
L 289.22 402.83
L 289.22 439.26
L 289.22 475.70
L 293.44 475.70
L 297.65 475.70
L 297.65 441.31
M 342.81 406.52
C 346.28 406.03 350.49 405.05 352.17 404.36
C 354.93 403.21 354.34 403.14 345.78 403.53
C 311.77 405.11 261.73 378.66 238.22 346.67
L 232.08 338.32
L 226.43 338.32
L 220.77 338.32
L 224.79 344.16
C 227.00 347.37 234.08 355.26 240.53 361.70
C 256.89 378.04 273.23 388.90 294.42 397.50
C 304.97 401.79 316.41 405.01 326.21 406.44
C 333.96 407.56 335.59 407.57 342.81 406.52
M 355.37 395.38
C 357.51 394.41 359.72 392.77 360.29 391.73
C 364.55 383.78 355.81 367.56 336.64 347.90
L 327.31 338.32
L 315.76 338.32
L 304.20 338.32
L 304.20 363.12
L 304.20 387.92
L 308.44 389.73
C 312.49 391.47 327.38 395.72 332.28 396.55
C 333.57 396.77 338.41 396.99 343.04 397.05
C 349.48 397.13 352.39 396.74 355.37 395.38
M 297.65 362.15
L 297.65 338.32
L 293.44 338.32
L 289.22 338.32
L 289.22 359.72
L 289.22 381.12
L 293.20 383.51
C 295.39 384.83 297.28 385.93 297.41 385.94
C 297.55 385.96 297.65 375.25 297.65 362.15
M 282.36 338.63
C 282.17 338.44 272.65 338.39 261.21 338.53
L 240.41 338.79
L 245.03 344.86
C 251.36 353.20 262.78 363.86 273.36 371.33
L 282.20 377.58
L 282.46 358.28
C 282.60 347.66 282.55 338.82 282.36 338.63
M 363.65 368.48
C 361.25 362.06 353.24 346.59 350.01 342.13
C 347.34 338.46 347.06 338.32 342.01 338.32
L 336.76 338.32
L 343.77 345.76
C 351.75 354.21 358.53 362.93 362.11 369.32
C 365.16 374.74 365.84 374.36 363.65 368.48
M 69.07 363.01
C 73.04 362.20 79.45 360.17 83.30 358.50
C 91.60 354.92 105.64 346.37 110.92 341.71
L 114.66 338.39
L 105.44 338.36
L 96.23 338.32
L 92.10 341.94
C 83.48 349.52 67.80 355.79 59.90 354.81
C 50.35 353.64 38.72 347.93 30.79 340.50
C 28.64 338.50 27.63 338.25 22.42 338.50
L 16.48 338.79
L 19.70 342.46
C 24.50 347.92 35.66 356.48 41.71 359.34
C 46.57 361.63 56.02 364.22 60.18 364.41
C 61.10 364.45 65.10 363.82 69.07 363.01
M 76.27 345.86
C 80.39 343.79 84.82 341.25 86.11 340.22
L 88.45 338.36
L 62.89 338.34
C 47.94 338.33 37.54 338.66 37.85 339.16
C 38.14 339.63 40.79 341.62 43.76 343.58
C 55.86 351.63 63.69 352.17 76.27 345.86
M 571.71 330.65
C 573.16 329.21 573.16 322.20 571.71 320.75
C 570.84 319.88 507.81 319.63 293.72 319.63
C 18.09 319.63 16.84 319.64 14.98 321.50
C 13.95 322.52 13.10 324.41 13.10 325.70
C 13.10 326.99 13.95 328.88 14.98 329.91
C 16.84 331.77 18.09 331.78 293.72 331.78
C 507.81 331.78 570.84 331.52 571.71 330.65
M 20.11 304.44
C 23.71 285.21 26.55 279.53 34.36 275.95
L 39.52 273.60
L 45.19 275.32
C 54.84 278.23 61.05 282.79 83.77 303.64
L 94.07 313.07
L 101.09 313.06
L 108.11 313.03
L 101.56 306.73
C 77.78 283.91 49.40 265.50 37.91 265.48
C 25.90 265.44 16.18 277.86 10.76 300.17
C 7.53 313.53 7.43 313.08 13.46 313.08
L 18.49 313.08
L 20.11 304.44
M 77.69 305.40
C 54.46 283.18 43.51 276.74 35.76 280.75
C 30.88 283.26 26.40 292.67 24.83 303.74
C 24.50 306.06 24.02 309.10 23.75 310.51
L 23.25 313.08
L 54.45 313.05
L 85.64 313.01
L 77.69 305.40"/>
<path fill="#000000" stroke="none" d="
M 281.27 310.66
C 272.76 308.64 270.09 307.69 263.76 304.46
C 258.42 301.73 254.84 298.97 249.98 293.87
C 238.75 282.07 234.00 269.44 234.00 251.40
C 234.00 233.36 238.75 220.74 249.98 208.93
C 264.43 193.75 287.03 187.39 308.00 192.63
C 325.47 196.98 339.96 208.22 346.87 222.77
C 350.52 230.44 353.77 243.92 353.77 251.40
C 353.77 258.89 350.52 272.36 346.87 280.04
C 340.77 292.87 327.34 304.32 312.89 309.00
C 308.50 310.42 285.35 311.64 281.27 310.66
M 305.40 301.42
C 324.81 295.58 339.97 278.72 344.18 258.31
C 345.59 251.45 345.58 250.44 344.10 243.83
C 339.52 223.43 324.67 207.27 304.90 201.20
C 279.54 193.39 249.44 214.05 242.77 243.83
C 241.29 250.44 241.28 251.45 242.70 258.31
C 246.13 274.99 256.98 289.68 271.24 296.98
C 277.57 300.21 280.57 301.27 288.76 303.18
C 291.62 303.85 300.41 302.92 305.40 301.42"/>
<path fill="#000000" stroke="none" d="
M 267.67 183.12
C 267.10 182.07 266.24 177.34 265.75 172.61
C 264.44 159.81 264.10 158.64 260.34 153.65
C 256.50 148.57 250.83 145.06 241.49 141.94
C 238.15 140.84 233.42 138.93 231.00 137.72
C 224.72 134.59 224.11 131.82 225.53 113.08
C 226.14 105.11 227.21 96.05 227.93 92.93
C 229.78 84.79 232.49 50.58 231.71 45.33
C 231.29 42.54 230.29 40.26 229.01 39.18
C 219.20 30.83 218.35 29.66 217.65 23.62
C 216.61 14.69 217.76 8.74 221.23 4.96
C 224.71 1.20 228.74 0.06 238.74 0.02
C 245.17 0.00 246.32 0.30 251.37 3.28
C 257.77 7.06 264.76 14.09 267.19 19.21
C 269.33 23.72 273.05 45.59 274.25 60.67
C 274.75 67.07 275.61 84.93 276.15 100.39
C 276.68 115.86 277.52 134.18 278.02 141.12
C 279.31 159.39 279.20 182.53 277.80 183.93
C 277.19 184.54 274.88 185.05 272.69 185.05
C 269.61 185.05 268.46 184.61 267.67 183.12
M 268.81 126.17
C 268.53 109.21 267.75 92.39 265.85 61.68
C 263.95 31.09 262.05 24.32 252.66 14.80
C 247.35 9.40 245.95 8.50 242.13 7.93
C 231.23 6.29 224.64 10.15 224.64 18.16
C 224.64 22.87 228.66 29.14 233.28 31.63
C 239.57 35.01 239.62 35.15 239.60 49.77
C 239.59 57.09 239.18 65.81 238.68 69.16
C 235.62 89.78 232.68 122.45 233.49 126.79
C 234.05 129.70 234.74 130.32 240.37 132.87
C 243.82 134.44 248.76 136.46 251.35 137.36
C 253.95 138.27 258.16 140.11 260.71 141.45
C 269.24 145.91 269.15 146.09 268.81 126.17"/>
<path fill="#000000" stroke="none" d="
M 305.32 183.93
C 303.93 182.53 303.82 159.39 305.11 141.12
C 305.60 134.18 306.45 115.86 306.98 100.39
C 307.52 84.93 308.37 67.07 308.88 60.67
C 310.08 45.59 313.79 23.72 315.94 19.21
C 318.37 14.09 325.35 7.06 331.76 3.28
C 336.89 0.26 337.91 0.00 344.86 0.01
C 354.64 0.01 358.64 1.20 362.05 5.08
C 365.37 8.85 366.49 14.92 365.48 23.62
C 364.78 29.66 363.93 30.83 354.12 39.18
C 352.83 40.26 351.83 42.54 351.42 45.33
C 350.63 50.58 353.35 84.79 355.20 92.93
C 355.91 96.05 356.99 105.11 357.60 113.08
C 359.02 131.82 358.40 134.59 352.13 137.72
C 349.71 138.93 344.98 140.84 341.64 141.94
C 332.30 145.06 326.63 148.57 322.79 153.65
C 319.03 158.64 318.69 159.81 317.38 172.61
C 316.23 183.80 315.53 185.05 310.43 185.05
C 308.24 185.05 305.94 184.54 305.32 183.93
M 322.71 141.25
C 325.66 139.78 329.72 138.04 331.73 137.39
C 333.75 136.74 338.47 134.80 342.21 133.10
C 348.39 130.29 349.08 129.70 349.63 126.78
C 350.45 122.45 347.50 89.74 344.45 69.16
C 343.95 65.81 343.54 57.09 343.53 49.77
C 343.51 35.15 343.56 35.01 349.85 31.63
C 354.46 29.14 358.49 22.87 358.49 18.16
C 358.49 10.15 351.90 6.29 340.99 7.93
C 337.18 8.50 335.78 9.40 330.46 14.80
C 321.02 24.38 319.17 31.01 317.34 61.68
C 316.81 70.67 316.13 80.56 315.84 83.64
C 315.12 91.36 313.73 142.36 314.22 143.22
C 314.94 144.50 317.30 143.95 322.71 141.25"/>
<path fill="#000000" stroke="none" d="
M 6.55 564.95
L 6.55 542.06
L 29.48 542.06
L 52.42 542.06
L 52.42 564.95
L 52.42 587.85
L 29.48 587.85
L 6.55 587.85
L 6.55 564.95
M 48.67 564.95
L 48.67 545.79
L 29.48 545.79
L 10.30 545.79
L 10.30 564.95
L 10.30 584.11
L 29.48 584.11
L 48.67 584.11
L 48.67 564.95"/>
<path fill="#000000" stroke="none" d="
M 60.84 564.95
L 60.84 542.06
L 85.64 542.06
L 110.45 542.06
L 110.45 564.95
L 110.45 587.85
L 85.64 587.85
L 60.84 587.85
L 60.84 564.95
M 106.70 564.95
L 106.70 545.79
L 85.64 545.79
L 64.58 545.79
L 64.58 564.95
L 64.58 584.11
L 85.64 584.11
L 106.70 584.11
L 106.70 564.95"/>
<path fill="#000000" stroke="none" d="
M 118.87 564.95
L 118.87 542.06
L 144.61 542.06
L 170.35 542.06
L 170.35 564.95
L 170.35 587.85
L 144.61 587.85
L 118.87 587.85
L 118.87 564.95
M 166.61 564.95
L 166.61 545.79
L 144.61 545.79
L 122.62 545.79
L 122.62 564.95
L 122.62 584.11
L 144.61 584.11
L 166.61 584.11
L 166.61 564.95"/>
<path fill="#000000" stroke="none" d="
M 178.78 564.95
L 178.78 542.06
L 204.05 542.06
L 229.32 542.06
L 229.32 564.95
L 229.32 587.85
L 204.05 587.85
L 178.78 587.85
L 178.78 564.95
M 225.58 564.95
L 225.58 545.79
L 204.05 545.79
L 182.52 545.79
L 182.52 564.95
L 182.52 584.11
L 204.05 584.11
L 225.58 584.11
L 225.58 564.95"/>
<path fill="#000000" stroke="none" d="
M 237.74 564.95
L 237.74 542.06
L 263.48 542.06
L 289.22 542.06
L 289.22 564.95
L 289.22 587.85
L 263.48 587.85
L 237.74 587.85
L 237.74 564.95
M 285.48 564.95
L 285.48 545.79
L 263.48 545.79
L 241.49 545.79
L 241.49 564.95
L 241.49 584.11
L 263.48 584.11
L 285.48 584.11
L 285.48 564.95"/>
<path fill="#000000" stroke="none" d="
M 297.65 564.95
L 297.65 542.06
L 322.45 542.06
L 347.26 542.06
L 347.26 564.95
L 347.26 587.85
L 322.45 587.85
L 297.65 587.85
L 297.65 564.95
M 343.51 564.95
L 343.51 545.79
L 322.45 545.79
L 301.39 545.79
L 301.39 564.95
L 301.39 584.11
L 322.45 584.11
L 343.51 584.11
L 343.51 564.95"/>
<path fill="#000000" stroke="none" d="
M 355.68 564.95
L 355.68 542.06
L 380.95 542.06
L 406.22 542.06
L 406.22 564.95
L 406.22 587.85
L 380.95 587.85
L 355.68 587.85
L 355.68 564.95
M 402.48 564.95
L 402.48 545.79
L 380.95 545.79
L 359.42 545.79
L 359.42 564.95
L 359.42 584.11
L 380.95 584.11
L 402.48 584.11
L 402.48 564.95"/>
<path fill="#000000" stroke="none" d="
M 414.65 564.95
L 414.65 542.06
L 440.39 542.06
L 466.13 542.06
L 466.13 564.95
L 466.13 587.85
L 440.39 587.85
L 414.65 587.85
L 414.65 564.95
M 462.38 564.95
L 462.38 545.79
L 440.39 545.79
L 418.39 545.79
L 418.39 564.95
L 418.39 584.11
L 440.39 584.11
L 462.38 584.11
L 462.38 564.95"/>
<path fill="#000000" stroke="none" d="
M 474.55 564.95
L 474.55 542.06
L 499.36 542.06
L 524.16 542.06
L 524.16 564.95
L 524.16 587.85
L 499.36 587.85
L 474.55 587.85
L 474.55 564.95
M 520.42 564.95
L 520.42 545.79
L 499.36 545.79
L 478.30 545.79
L 478.30 564.95
L 478.30 584.11
L 499.36 584.11
L 520.42 584.11
L 520.42 564.95"/>
<path fill="#000000" stroke="none" d="
M 532.58 564.95
L 532.58 542.06
L 555.52 542.06
L 578.45 542.06
L 578.45 564.95
L 578.45 587.85
L 555.52 587.85
L 532.58 587.85
L 532.58 564.95
M 574.70 564.95
L 574.70 545.79
L 555.52 545.79
L 536.33 545.79
L 536.33 564.95
L 536.33 584.11
L 555.52 584.11
L 574.70 584.11
L 574.70 564.95"/>
<path fill="#000000" stroke="none" d="
M 6.55 510.75
L 6.55 487.85
L 29.48 487.85
L 52.42 487.85
L 52.42 510.75
L 52.42 533.64
L 29.48 533.64
L 6.55 533.64
L 6.55 510.75
M 48.67 510.75
L 48.67 491.59
L 29.48 491.59
L 10.30 491.59
L 10.30 510.75
L 10.30 529.91
L 29.48 529.91
L 48.67 529.91
L 48.67 510.75"/>
<path fill="#000000" stroke="none" d="
M 60.84 510.75
L 60.84 487.85
L 85.64 487.85
L 110.45 487.85
L 110.45 510.75
L 110.45 533.64
L 85.64 533.64
L 60.84 533.64
L 60.84 510.75
M 106.70 510.75
L 106.70 491.59
L 85.64 491.59
L 64.58 491.59
L 64.58 510.75
L 64.58 529.91
L 85.64 529.91
L 106.70 529.91
L 106.70 510.75"/>
<path fill="#000000" stroke="none" d="
M 118.87 510.75
L 118.87 487.85
L 144.61 487.85
L 170.35 487.85
L 170.35 510.75
L 170.35 533.64
L 144.61 533.64
L 118.87 533.64
L 118.87 510.75
M 166.61 510.75
L 166.61 491.59
L 144.61 491.59
L 122.62 491.59
L 122.62 510.75
L 122.62 529.91
L 144.61 529.91
L 166.61 529.91
L 166.61 510.75"/>
<path fill="#000000" stroke="none" d="
M 178.78 510.75
L 178.78 487.85
L 204.05 487.85
L 229.32 487.85
L 229.32 510.75
L 229.32 533.64
L 204.05 533.64
L 178.78 533.64
L 178.78 510.75
M 225.58 510.75
L 225.58 491.59
L 204.05 491.59
L 182.52 491.59
L 182.52 510.75
L 182.52 529.91
L 204.05 529.91
L 225.58 529.91
L 225.58 510.75"/>
<path fill="#000000" stroke="none" d="
M 237.74 510.75
L 237.74 487.85
L 263.48 487.85
L 289.22 487.85
L 289.22 510.75
L 289.22 533.64
L 263.48 533.64
L 237.74 533.64
L 237.74 510.75
M 285.48 510.75
L 285.48 491.59
L 263.48 491.59
L 241.49 491.59
L 241.49 510.75
L 241.49 529.91
L 263.48 529.91
L 285.48 529.91
L 285.48 510.75"/>
<path fill="#000000" stroke="none" d="
M 297.65 510.75
L 297.65 487.85
L 322.45 487.85
L 347.26 487.85
L 347.26 510.75
L 347.26 533.64
L 322.45 533.64
L 297.65 533.64
L 297.65 510.75
M 343.51 510.75
L 343.51 491.59
L 322.45 491.59
L 301.39 491.59
L 301.39 510.75
L 301.39 529.91
L 322.45 529.91
L 343.51 529.91
L 343.51 510.75"/>
<path fill="#000000" stroke="none" d="
M 355.68 510.75
L 355.68 487.85
L 380.95 487.85
L 406.22 487.85
L 406.22 510.75
L 406.22 533.64
L 380.95 533.64
L 355.68 533.64
L 355.68 510.75
M 402.48 510.75
L 402.48 491.59
L 380.95 491.59
L 359.42 491.59
L 359.42 510.75
L 359.42 529.91
L 380.95 529.91
L 402.48 529.91
L 402.48 510.75"/>
<path fill="#000000" stroke="none" d="
M 414.65 510.75
L 414.65 487.85
L 440.39 487.85
L 466.13 487.85
L 466.13 510.75
L 466.13 533.64
L 440.39 533.64
L 414.65 533.64
L 414.65 510.75
M 462.38 510.75
L 462.38 491.59
L 440.39 491.59
L 418.39 491.59
L 418.39 510.75
L 418.39 529.91
L 440.39 529.91
L 462.38 529.91
L 462.38 510.75"/>
<path fill="#000000" stroke="none" d="
M 474.55 510.75
L 474.55 487.85
L 499.36 487.85
L 524.16 487.85
L 524.16 510.75
L 524.16 533.64
L 499.36 533.64
L 474.55 533.64
L 474.55 510.75
M 520.42 510.75
L 520.42 491.59
L 499.36 491.59
L 478.30 491.59
L 478.30 510.75
L 478.30 529.91
L 499.36 529.91
L 520.42 529.91
L 520.42 510.75"/>
<path fill="#000000" stroke="none" d="
M 532.58 510.75
L 532.58 487.85
L 555.52 487.85
L 578.45 487.85
L 578.45 510.75
L 578.45 533.64
L 555.52 533.64
L 532.58 533.64
L 532.58 510.75
M 574.70 510.75
L 574.70 491.59
L 555.52 491.59
L 536.33 491.59
L 536.33 510.75
L 536.33 529.91
L 555.52 529.91
L 574.70 529.91
L 574.70 510.75"/>
<path fill="#000000" stroke="none" d="
M 275.37 282.99
C 273.76 281.38 273.76 221.42 275.37 219.81
C 275.99 219.20 277.38 218.69 278.46 218.69
C 282.59 218.69 282.67 219.37 282.67 251.40
C 282.67 283.43 282.59 284.11 278.46 284.11
C 277.37 284.11 275.99 283.61 275.37 282.99"/>
<path fill="#000000" stroke="none" d="
M 302.52 282.99
C 300.91 281.38 300.91 221.42 302.52 219.81
C 303.13 219.20 304.53 218.69 305.60 218.69
C 309.73 218.69 309.82 219.37 309.82 251.40
C 309.82 283.43 309.73 284.11 305.60 284.11
C 304.52 284.11 303.13 283.61 302.52 282.99"/>
<path fill="#ef907a" stroke="none" d="
M 326.21 406.44
C 295.76 402.01 264.62 385.75 240.53 361.70
C 234.08 355.26 227.00 347.37 224.79 344.16
L 220.77 338.32
L 226.43 338.32
L 232.08 338.32
L 238.22 346.67
C 257.35 372.69 294.38 395.56 328.46 402.39
C 334.04 403.51 339.11 403.84 345.78 403.53
C 354.34 403.14 354.93 403.21 352.17 404.36
C 348.92 405.70 338.05 407.50 334.15 407.35
C 332.86 407.29 329.29 406.88 326.21 406.44"/>
<path fill="#ef907a" stroke="none" d="
M 362.11 369.32
C 358.53 362.93 351.75 354.21 343.77 345.76
L 336.76 338.32
L 342.01 338.32
C 347.06 338.32 347.34 338.46 350.01 342.13
C 355.00 349.01 366.09 372.17 364.94 373.31
C 364.73 373.51 363.47 371.72 362.11 369.32"/>
<path fill="#ef907a" stroke="none" d="
M 260.71 141.45
C 258.16 140.11 253.95 138.27 251.35 137.36
C 248.76 136.46 243.82 134.44 240.37 132.87
C 234.74 130.32 234.05 129.70 233.49 126.79
C 232.68 122.45 235.62 89.78 238.68 69.16
C 239.18 65.81 239.59 57.09 239.60 49.77
C 239.62 35.15 239.57 35.01 233.28 31.63
C 228.66 29.14 224.64 22.87 224.64 18.16
C 224.64 12.34 227.90 8.79 233.99 7.94
C 242.67 6.76 245.91 7.94 252.70 14.84
C 262.04 24.32 263.95 31.12 265.85 61.68
C 267.75 92.39 268.53 109.21 268.81 126.17
C 269.15 146.09 269.24 145.91 260.71 141.45"/>
<path fill="#ef907a" stroke="none" d="
M 314.22 143.22
C 313.73 142.36 315.12 91.36 315.84 83.64
C 316.13 80.56 316.81 70.67 317.34 61.68
C 319.17 31.01 321.02 24.38 330.46 14.80
C 335.78 9.40 337.18 8.50 340.99 7.93
C 351.90 6.29 358.49 10.15 358.49 18.16
C 358.49 22.87 354.46 29.14 349.85 31.63
C 343.56 35.01 343.51 35.15 343.53 49.77
C 343.54 57.09 343.95 65.81 344.45 69.16
C 347.50 89.74 350.45 122.45 349.63 126.78
C 349.08 129.70 348.39 130.29 342.21 133.10
C 338.47 134.80 333.75 136.74 331.73 137.39
C 329.72 138.04 325.66 139.78 322.71 141.25
C 317.30 143.95 314.94 144.50 314.22 143.22"/>
<path fill="#ffbf53" stroke="none" d="
M 288.76 303.18
C 280.57 301.27 277.57 300.21 271.24 296.98
C 256.98 289.68 246.13 274.99 242.70 258.31
C 241.28 251.45 241.29 250.44 242.77 243.83
C 247.35 223.42 262.31 207.15 281.97 201.22
C 307.53 193.51 337.42 214.01 344.10 243.83
C 345.58 250.44 345.59 251.45 344.18 258.31
C 339.97 278.72 324.81 295.58 305.40 301.42
C 300.41 302.92 291.62 303.85 288.76 303.18
M 281.55 282.99
C 283.16 281.38 283.16 221.42 281.55 219.81
C 280.93 219.20 279.54 218.69 278.46 218.69
C 274.33 218.69 274.25 219.37 274.25 251.40
C 274.25 283.43 274.33 284.11 278.46 284.11
C 279.55 284.11 280.93 283.61 281.55 282.99
M 308.69 282.99
C 310.30 281.38 310.30 221.42 308.69 219.81
C 308.08 219.20 306.68 218.69 305.60 218.69
C 301.48 218.69 301.39 219.37 301.39 251.40
C 301.39 283.43 301.48 284.11 305.60 284.11
C 306.69 284.11 308.08 283.61 308.69 282.99"/>
<path fill="#ffa153" stroke="none" d="
M 52.76 363.09
C 49.62 362.41 44.64 360.72 41.71 359.34
C 35.66 356.48 24.50 347.92 19.70 342.46
L 16.48 338.79
L 22.42 338.50
C 27.63 338.25 28.64 338.50 30.79 340.50
C 38.72 347.93 50.35 353.64 59.90 354.81
C 67.80 355.79 83.48 349.52 92.10 341.94
L 96.23 338.32
L 105.44 338.36
L 114.66 338.39
L 110.92 341.71
C 105.64 346.37 91.60 354.92 83.30 358.50
C 76.77 361.33 64.02 364.58 60.18 364.41
C 59.26 364.37 55.92 363.78 52.76 363.09"/>
<path fill="#ffa153" stroke="none" d="
M 8.42 311.45
C 8.42 307.04 13.60 289.33 16.83 282.64
C 22.42 271.11 29.76 265.37 38.84 265.46
C 49.48 265.56 78.73 284.81 101.56 306.73
L 108.11 313.03
L 101.09 313.06
L 94.07 313.07
L 83.77 303.64
C 61.05 282.79 54.84 278.23 45.19 275.32
L 39.52 273.60
L 34.36 275.95
C 26.55 279.53 23.71 285.21 20.11 304.44
L 18.49 313.08
L 13.46 313.08
C 9.29 313.08 8.42 312.80 8.42 311.45"/>
<path fill="#c55436" stroke="none" d="
M 289.22 439.26
L 289.22 402.83
L 293.44 404.87
L 297.65 406.92
L 297.65 441.31
L 297.65 475.70
L 293.44 475.70
L 289.22 475.70
L 289.22 439.26"/>
<path fill="#c55436" stroke="none" d="
M 293.20 383.51
L 289.22 381.12
L 289.22 359.72
L 289.22 338.32
L 293.44 338.32
L 297.65 338.32
L 297.65 362.15
C 297.65 375.25 297.55 385.96 297.41 385.94
C 297.28 385.93 295.39 384.83 293.20 383.51"/>
<path fill="#c55436" stroke="none" d="
M 14.98 329.91
C 12.79 327.72 12.56 324.47 14.43 321.91
C 15.74 320.12 19.79 320.09 293.02 319.86
C 497.70 319.68 570.62 319.90 571.56 320.67
C 573.13 321.97 573.23 329.13 571.71 330.65
C 570.84 331.52 507.81 331.78 293.72 331.78
C 18.09 331.78 16.84 331.77 14.98 329.91"/>
<path fill="#0885ff" stroke="none" d="
M 5.62 594.39
C 3.79 592.57 3.74 591.28 3.74 538.03
C 3.74 492.44 3.96 483.24 5.07 481.72
C 6.38 479.93 10.51 479.91 291.95 479.67
C 576.64 479.43 577.51 479.44 579.38 481.31
C 581.22 483.14 581.26 484.38 581.26 537.85
C 581.26 591.28 581.21 592.57 579.38 594.39
C 577.52 596.25 576.27 596.26 292.50 596.26
C 8.73 596.26 7.48 596.25 5.62 594.39
M 52.42 564.95
L 52.42 542.06
L 29.48 542.06
L 6.55 542.06
L 6.55 564.95
L 6.55 587.85
L 29.48 587.85
L 52.42 587.85
L 52.42 564.95
M 110.45 564.95
L 110.45 542.06
L 85.64 542.06
L 60.84 542.06
L 60.84 564.95
L 60.84 587.85
L 85.64 587.85
L 110.45 587.85
L 110.45 564.95
M 170.35 564.95
L 170.35 542.06
L 144.61 542.06
L 118.87 542.06
L 118.87 564.95
L 118.87 587.85
L 144.61 587.85
L 170.35 587.85
L 170.35 564.95
M 229.32 564.95
L 229.32 542.06
L 204.05 542.06
L 178.78 542.06
L 178.78 564.95
L 178.78 587.85
L 204.05 587.85
L 229.32 587.85
L 229.32 564.95
M 289.22 564.95
L 289.22 542.06
L 263.48 542.06
L 237.74 542.06
L 237.74 564.95
L 237.74 587.85
L 263.48 587.85
L 289.22 587.85
L 289.22 564.95
M 347.26 564.95
L 347.26 542.06
L 322.45 542.06
L 297.65 542.06
L 297.65 564.95
L 297.65 587.85
L 322.45 587.85
L 347.26 587.85
L 347.26 564.95
M 406.22 564.95
L 406.22 542.06
L 380.95 542.06
L 355.68 542.06
L 355.68 564.95
L 355.68 587.85
L 380.95 587.85
L 406.22 587.85
L 406.22 564.95
M 466.13 564.95
L 466.13 542.06
L 440.39 542.06
L 414.65 542.06
L 414.65 564.95
L 414.65 587.85
L 440.39 587.85
L 466.13 587.85
L 466.13 564.95
M 524.16 564.95
L 524.16 542.06
L 499.36 542.06
L 474.55 542.06
L 474.55 564.95
L 474.55 587.85
L 499.36 587.85
L 524.16 587.85
L 524.16 564.95
M 578.45 564.95
L 578.45 542.06
L 555.52 542.06
L 532.58 542.06
L 532.58 564.95
L 532.58 587.85
L 555.52 587.85
L 578.45 587.85
L 578.45 564.95
M 52.42 510.75
L 52.42 487.85
L 29.48 487.85
L 6.55 487.85
L 6.55 510.75
L 6.55 533.64
L 29.48 533.64
L 52.42 533.64
L 52.42 510.75
M 110.45 510.75
L 110.45 487.85
L 85.64 487.85
L 60.84 487.85
L 60.84 510.75
L 60.84 533.64
L 85.64 533.64
L 110.45 533.64
L 110.45 510.75
M 170.35 510.75
L 170.35 487.85
L 144.61 487.85
L 118.87 487.85
L 118.87 510.75
L 118.87 533.64
L 144.61 533.64
L 170.35 533.64
L 170.35 510.75
M 229.32 510.75
L 229.32 487.85
L 204.05 487.85
L 178.78 487.85
L 178.78 510.75
L 178.78 533.64
L 204.05 533.64
L 229.32 533.64
L 229.32 510.75
M 289.22 510.75
L 289.22 487.85
L 263.48 487.85
L 237.74 487.85
L 237.74 510.75
L 237.74 533.64
L 263.48 533.64
L 289.22 533.64
L 289.22 510.75
M 347.26 510.75
L 347.26 487.85
L 322.45 487.85
L 297.65 487.85
L 297.65 510.75
L 297.65 533.64
L 322.45 533.64
L 347.26 533.64
L 347.26 510.75
M 406.22 510.75
L 406.22 487.85
L 380.95 487.85
L 355.68 487.85
L 355.68 510.75
L 355.68 533.64
L 380.95 533.64
L 406.22 533.64
L 406.22 510.75
M 466.13 510.75
L 466.13 487.85
L 440.39 487.85
L 414.65 487.85
L 414.65 510.75
L 414.65 533.64
L 440.39 533.64
L 466.13 533.64
L 466.13 510.75
M 524.16 510.75
L 524.16 487.85
L 499.36 487.85
L 474.55 487.85
L 474.55 510.75
L 474.55 533.64
L 499.36 533.64
L 524.16 533.64
L 524.16 510.75
M 578.45 510.75
L 578.45 487.85
L 555.52 487.85
L 532.58 487.85
L 532.58 510.75
L 532.58 533.64
L 555.52 533.64
L 578.45 533.64
L 578.45 510.75"/>
<path fill="#c57a36" stroke="none" d="
M 10.30 564.95
L 10.30 545.79
L 29.48 545.79
L 48.67 545.79
L 48.67 564.95
L 48.67 584.11
L 29.48 584.11
L 10.30 584.11
L 10.30 564.95"/>
<path fill="#c57a36" stroke="none" d="
M 64.58 564.95
L 64.58 545.79
L 85.64 545.79
L 106.70 545.79
L 106.70 564.95
L 106.70 584.11
L 85.64 584.11
L 64.58 584.11
L 64.58 564.95"/>
<path fill="#c57a36" stroke="none" d="
M 122.62 564.95
L 122.62 545.79
L 144.61 545.79
L 166.61 545.79
L 166.61 564.95
L 166.61 584.11
L 144.61 584.11
L 122.62 584.11
L 122.62 564.95"/>
<path fill="#c57a36" stroke="none" d="
M 182.52 564.95
L 182.52 545.79
L 204.05 545.79
L 225.58 545.79
L 225.58 564.95
L 225.58 584.11
L 204.05 584.11
L 182.52 584.11
L 182.52 564.95"/>
<path fill="#c57a36" stroke="none" d="
M 241.49 564.95
L 241.49 545.79
L 263.48 545.79
L 285.48 545.79
L 285.48 564.95
L 285.48 584.11
L 263.48 584.11
L 241.49 584.11
L 241.49 564.95"/>
<path fill="#c57a36" stroke="none" d="
M 301.39 564.95
L 301.39 545.79
L 322.45 545.79
L 343.51 545.79
L 343.51 564.95
L 343.51 584.11
L 322.45 584.11
L 301.39 584.11
L 301.39 564.95"/>
<path fill="#c57a36" stroke="none" d="
M 359.42 564.95
L 359.42 545.79
L 380.95 545.79
L 402.48 545.79
L 402.48 564.95
L 402.48 584.11
L 380.95 584.11
L 359.42 584.11
L 359.42 564.95"/>
<path fill="#c57a36" stroke="none" d="
M 418.39 564.95
L 418.39 545.79
L 440.39 545.79
L 462.38 545.79
L 462.38 564.95
L 462.38 584.11
L 440.39 584.11
L 418.39 584.11
L 418.39 564.95"/>
<path fill="#c57a36" stroke="none" d="
M 478.30 564.95
L 478.30 545.79
L 499.36 545.79
L 520.42 545.79
L 520.42 564.95
L 520.42 584.11
L 499.36 584.11
L 478.30 584.11
L 478.30 564.95"/>
<path fill="#c57a36" stroke="none" d="
M 536.33 564.95
L 536.33 545.79
L 555.52 545.79
L 574.70 545.79
L 574.70 564.95
L 574.70 584.11
L 555.52 584.11
L 536.33 584.11
L 536.33 564.95"/>
<path fill="#c57a36" stroke="none" d="
M 10.51 510.98
L 10.76 492.06
L 29.72 491.80
L 48.67 491.55
L 48.67 510.73
L 48.67 529.91
L 29.47 529.91
L 10.26 529.91
L 10.51 510.98"/>
<path fill="#c57a36" stroke="none" d="
M 64.58 510.75
L 64.58 491.59
L 85.64 491.59
L 106.70 491.59
L 106.70 510.75
L 106.70 529.91
L 85.64 529.91
L 64.58 529.91
L 64.58 510.75"/>
<path fill="#c57a36" stroke="none" d="
M 122.62 510.75
L 122.62 491.59
L 144.61 491.59
L 166.61 491.59
L 166.61 510.75
L 166.61 529.91
L 144.61 529.91
L 122.62 529.91
L 122.62 510.75"/>
<path fill="#c57a36" stroke="none" d="
M 182.52 510.75
L 182.52 491.59
L 204.05 491.59
L 225.58 491.59
L 225.58 510.75
L 225.58 529.91
L 204.05 529.91
L 182.52 529.91
L 182.52 510.75"/>
<path fill="#c57a36" stroke="none" d="
M 241.49 510.75
L 241.49 491.59
L 263.48 491.59
L 285.48 491.59
L 285.48 510.75
L 285.48 529.91
L 263.48 529.91
L 241.49 529.91
L 241.49 510.75"/>
<path fill="#c57a36" stroke="none" d="
M 301.39 510.75
L 301.39 491.59
L 322.45 491.59
L 343.51 491.59
L 343.51 510.75
L 343.51 529.91
L 322.45 529.91
L 301.39 529.91
L 301.39 510.75"/>
<path fill="#c57a36" stroke="none" d="
M 359.42 510.75
L 359.42 491.59
L 380.95 491.59
L 402.48 491.59
L 402.48 510.75
L 402.48 529.91
L 380.95 529.91
L 359.42 529.91
L 359.42 510.75"/>
<path fill="#c57a36" stroke="none" d="
M 418.39 510.75
L 418.39 491.59
L 440.39 491.59
L 462.38 491.59
L 462.38 510.75
L 462.38 529.91
L 440.39 529.91
L 418.39 529.91
L 418.39 510.75"/>
<path fill="#c57a36" stroke="none" d="
M 478.30 510.75
L 478.30 491.59
L 499.36 491.59
L 520.42 491.59
L 520.42 510.75
L 520.42 529.91
L 499.36 529.91
L 478.30 529.91
L 478.30 510.75"/>
<path fill="#c57a36" stroke="none" d="
M 536.33 510.75
L 536.33 491.59
L 555.52 491.59
L 574.70 491.59
L 574.70 510.75
L 574.70 529.91
L 555.52 529.91
L 536.33 529.91
L 536.33 510.75"/>
</g>
</svg>
