<?xml version="1.0" encoding="UTF-8" standalone="no"?>
<!DOCTYPE svg PUBLIC "-//W3C//DTD SVG 1.1//EN"
"http://www.w3.org/Graphics/SVG/1.1/DTD/svg11.dtd">
<svg width="607px" height="600px"
xmlns="http://www.w3.org/2000/svg" version="1.1">
<g transform="translate(0000, 0000) scale(1.0000, 1.0000)">
<path fill="#000000" stroke="none" d="
M 1.94 598.06
C 0.04 596.16 0.00 594.83 0.00 535.44
C 0.00 476.05 0.04 474.72 1.94 472.82
C 3.87 470.89 5.18 470.87 148.60 470.87
L 293.32 470.87
L 293.07 431.47
L 292.82 392.05
L 282.43 386.07
C 276.72 382.79 268.42 377.49 263.98 374.29
C 252.84 366.28 233.82 347.00 226.82 336.65
L 221.08 328.16
L 174.44 328.16
L 127.79 328.16
L 124.35 331.48
C 119.31 336.35 102.68 347.17 93.52 351.55
C 89.13 353.64 80.82 356.50 75.06 357.91
C 65.45 360.24 64.03 360.37 57.85 359.33
C 40.72 356.46 31.51 351.14 15.79 335.04
C 3.75 322.70 1.20 318.07 2.26 310.33
C 5.95 283.10 11.96 265.09 20.38 255.95
C 25.01 250.93 32.55 247.56 39.13 247.58
C 45.25 247.60 58.20 252.52 67.61 258.39
C 76.45 263.91 95.13 278.55 108.75 290.63
C 113.95 295.24 117.36 297.62 118.01 297.08
C 119.54 295.82 132.43 293.16 141.47 292.24
C 145.84 291.81 150.62 290.85 152.10 290.14
C 156.57 287.97 159.00 281.51 160.63 267.59
C 161.90 256.62 161.90 253.81 160.61 242.89
C 159.81 236.13 158.31 228.07 157.28 225.00
C 156.24 221.92 155.39 218.48 155.39 217.33
C 155.39 215.01 151.64 203.91 150.38 202.48
C 149.93 201.97 149.56 200.82 149.56 199.92
C 149.56 199.03 148.43 195.81 147.04 192.77
C 145.64 189.73 143.88 184.58 143.13 181.33
C 141.76 175.48 138.04 169.35 129.70 159.20
C 121.51 149.25 115.59 141.39 115.58 140.44
C 115.57 139.99 114.59 138.24 113.39 136.55
C 110.96 133.15 108.76 129.36 106.27 124.27
C 105.36 122.41 103.47 118.69 102.09 116.02
C 99.71 111.44 99.54 110.12 98.97 92.23
C 98.35 72.99 97.96 70.45 94.41 63.50
C 92.66 60.08 85.45 52.43 83.96 52.43
C 81.73 52.43 77.45 55.98 76.27 58.83
C 75.04 61.75 74.42 62.22 72.13 61.96
C 70.05 61.72 68.95 60.67 67.26 57.32
C 64.65 52.17 64.51 47.42 66.80 42.56
C 67.71 40.61 75.52 31.78 84.13 22.92
C 96.15 10.57 100.88 6.37 104.48 4.83
C 109.39 2.72 126.97 -0.01 135.42 0.02
C 141.56 0.04 152.59 2.90 158.15 5.93
C 162.22 8.14 172.87 18.58 172.87 20.35
C 172.87 20.83 173.51 21.86 174.29 22.64
C 175.08 23.43 177.70 28.11 180.13 33.06
C 185.43 43.86 185.90 44.47 190.84 46.85
C 195.86 49.27 203.00 53.36 206.53 55.83
C 208.96 57.53 220.46 68.90 225.18 74.27
C 232.65 82.78 239.12 90.57 242.10 94.66
C 247.35 101.86 248.95 103.93 250.66 105.79
C 251.51 106.71 253.84 109.93 255.85 112.95
C 257.85 115.97 259.89 118.45 260.38 118.45
C 260.85 118.45 261.25 119.10 261.25 119.90
C 261.25 120.71 262.15 122.25 263.24 123.35
C 264.34 124.45 268.11 129.58 271.63 134.76
C 275.13 139.94 279.05 145.49 280.35 147.09
C 287.18 155.57 290.14 159.42 292.33 162.67
C 293.67 164.65 295.88 167.42 297.25 168.82
C 298.61 170.21 301.65 173.76 304.01 176.70
C 313.29 188.27 326.44 201.45 347.11 219.90
C 350.69 223.11 355.25 227.20 357.22 229.00
C 359.19 230.81 362.71 233.85 365.05 235.78
C 372.21 241.67 377.80 249.21 377.80 253.00
C 377.80 261.33 368.22 262.69 359.82 255.54
C 356.91 253.07 353.54 250.87 347.74 247.65
C 346.38 246.90 343.13 244.83 340.54 243.04
C 334.80 239.11 333.26 238.91 336.02 242.48
C 341.26 249.24 344.78 254.33 344.78 255.17
C 344.78 255.66 345.46 256.64 346.29 257.33
C 347.13 258.02 349.34 260.81 351.22 263.51
C 353.09 266.23 355.68 269.93 356.98 271.75
C 358.29 273.56 359.34 276.19 359.34 277.60
C 359.34 280.15 354.58 286.41 352.63 286.41
C 351.82 286.41 344.57 290.88 329.56 300.67
C 328.09 301.62 328.98 301.83 334.70 301.88
C 341.49 301.94 341.65 301.88 342.82 299.05
C 343.75 296.82 344.82 296.03 347.55 295.56
C 349.50 295.23 352.61 294.55 354.49 294.04
C 356.36 293.53 361.68 292.74 366.33 292.27
C 370.97 291.81 375.97 290.84 377.44 290.13
C 381.88 287.97 384.32 281.50 385.95 267.59
C 387.22 256.62 387.22 253.81 385.93 242.89
C 385.13 236.13 383.62 228.07 382.59 225.00
C 381.56 221.92 380.71 218.48 380.71 217.33
C 380.71 215.01 376.96 203.91 375.70 202.48
C 375.25 201.97 374.88 200.82 374.88 199.92
C 374.88 199.03 373.75 195.81 372.36 192.77
C 370.96 189.73 369.20 184.58 368.44 181.33
C 367.07 175.48 363.36 169.35 355.02 159.20
C 346.83 149.25 340.91 141.39 340.90 140.44
C 340.89 139.99 339.91 138.24 338.71 136.55
C 336.28 133.15 334.08 129.36 331.59 124.27
C 330.67 122.41 328.79 118.69 327.41 116.02
C 325.03 111.44 324.86 110.12 324.28 92.23
C 323.67 72.99 323.27 70.45 319.73 63.50
C 317.98 60.08 310.76 52.43 309.28 52.43
C 307.04 52.43 302.77 55.98 301.59 58.83
C 300.36 61.75 299.74 62.22 297.45 61.96
C 295.37 61.72 294.26 60.67 292.57 57.32
C 289.97 52.17 289.83 47.42 292.12 42.56
C 293.03 40.61 300.84 31.78 309.44 22.92
C 321.35 10.69 326.22 6.36 329.72 4.85
C 334.81 2.68 351.75 -0.01 360.24 0.02
C 366.82 0.04 377.75 2.82 383.47 5.93
C 387.54 8.14 398.19 18.58 398.19 20.35
C 398.19 20.83 398.83 21.86 399.61 22.64
C 400.40 23.43 403.02 28.11 405.45 33.06
C 410.75 43.86 411.22 44.47 416.16 46.85
C 421.18 49.27 428.32 53.36 431.84 55.83
C 434.28 57.53 445.78 68.90 450.50 74.27
C 457.97 82.78 464.44 90.57 467.42 94.66
C 472.67 101.86 474.27 103.93 475.98 105.79
C 476.83 106.71 479.16 109.93 481.17 112.95
C 483.17 115.97 485.21 118.45 485.70 118.45
C 486.17 118.45 486.57 119.11 486.57 119.90
C 486.57 120.71 487.46 122.25 488.56 123.35
C 489.66 124.45 493.43 129.58 496.94 134.76
C 500.45 139.94 504.37 145.49 505.66 147.09
C 512.50 155.57 515.45 159.42 517.65 162.67
C 518.99 164.65 521.19 167.42 522.56 168.82
C 523.92 170.21 526.97 173.76 529.33 176.70
C 538.61 188.27 551.76 201.45 572.43 219.90
C 576.01 223.11 580.56 227.20 582.54 229.00
C 584.51 230.81 588.03 233.85 590.37 235.78
C 597.53 241.67 603.12 249.21 603.12 253.00
C 603.12 261.33 593.54 262.69 585.14 255.54
C 582.22 253.07 578.85 250.87 573.06 247.65
C 571.70 246.90 568.45 244.83 565.86 243.04
C 560.12 239.11 558.58 238.91 561.33 242.48
C 566.58 249.24 570.09 254.33 570.09 255.17
C 570.09 255.66 570.77 256.64 571.61 257.33
C 572.44 258.02 574.66 260.81 576.53 263.51
C 578.41 266.23 581.00 269.93 582.30 271.75
C 583.60 273.56 584.66 276.19 584.66 277.60
C 584.66 280.15 579.89 286.41 577.95 286.41
C 577.14 286.41 569.89 290.88 554.88 300.67
C 553.47 301.58 557.85 301.83 575.68 301.88
C 603.48 301.95 602.14 301.29 602.14 315.05
C 602.14 329.85 617.53 328.16 483.60 328.16
L 368.95 328.16
L 371.51 332.28
C 376.23 339.87 383.53 355.76 385.22 362.14
C 390.22 380.99 384.64 395.83 370.15 402.27
C 363.33 405.29 350.98 407.19 343.32 406.41
C 337.90 405.84 322.83 402.87 317.83 401.39
L 315.64 400.75
L 315.64 435.81
L 315.64 470.87
L 459.38 470.87
C 601.82 470.87 603.13 470.89 605.06 472.82
C 606.96 474.72 607.00 476.05 607.00 535.44
C 607.00 594.83 606.96 596.16 605.06 598.06
C 603.12 599.99 601.82 600.00 303.50 600.00
C 5.18 600.00 3.88 599.99 1.94 598.06
M 601.17 594.17
C 603.07 592.28 603.12 590.94 603.12 535.44
C 603.12 479.93 603.07 478.59 601.17 476.70
C 599.24 474.77 597.94 474.76 303.50 474.76
C 9.06 474.76 7.76 474.77 5.83 476.70
C 3.93 478.59 3.88 479.93 3.88 535.44
C 3.88 590.94 3.93 592.28 5.83 594.17
C 7.76 596.11 9.06 596.12 303.50 596.12
C 597.94 596.12 599.24 596.11 601.17 594.17
M 308.84 435.15
L 308.84 399.42
L 304.47 397.29
L 300.10 395.17
L 300.10 433.02
L 300.10 470.87
L 304.47 470.87
L 308.84 470.87
L 308.84 435.15
M 355.70 399.01
C 359.31 398.50 363.68 397.48 365.41 396.76
C 368.28 395.57 367.67 395.50 358.78 395.90
C 323.50 397.54 271.58 370.07 247.18 336.83
L 240.81 328.16
L 234.94 328.16
L 229.08 328.16
L 233.24 334.22
C 235.54 337.56 242.89 345.76 249.58 352.45
C 266.56 369.42 283.50 380.70 305.49 389.64
C 316.44 394.10 328.30 397.44 338.48 398.92
C 346.51 400.09 348.21 400.10 355.70 399.01
M 368.74 387.44
C 370.96 386.43 373.25 384.72 373.83 383.64
C 378.26 375.38 369.19 358.53 349.30 338.11
L 339.62 328.16
L 327.63 328.16
L 315.64 328.16
L 315.64 353.92
L 315.64 379.68
L 320.04 381.56
C 324.24 383.37 339.69 387.79 344.78 388.65
C 346.12 388.87 351.14 389.11 355.94 389.17
C 362.63 389.25 365.64 388.84 368.74 387.44
M 308.84 352.91
L 308.84 328.16
L 304.47 328.16
L 300.10 328.16
L 300.10 350.39
L 300.10 372.62
L 304.23 375.11
C 306.50 376.48 308.46 377.61 308.60 377.63
C 308.73 377.65 308.84 366.52 308.84 352.91
M 292.98 328.48
C 292.78 328.28 282.90 328.23 271.03 328.38
L 249.45 328.64
L 254.24 334.95
C 260.82 343.61 272.66 354.69 283.64 362.45
L 292.82 368.94
L 293.08 348.89
C 293.22 337.86 293.18 328.68 292.98 328.48
M 377.32 359.49
C 374.83 352.82 366.52 336.75 363.17 332.12
C 360.40 328.30 360.11 328.16 354.87 328.16
L 349.43 328.16
L 356.70 335.88
C 364.98 344.67 372.01 353.72 375.73 360.36
C 378.89 365.99 379.60 365.60 377.32 359.49
M 71.66 353.81
C 75.78 352.96 82.44 350.85 86.44 349.12
C 95.04 345.40 109.61 336.52 115.09 331.68
L 118.97 328.23
L 109.41 328.19
L 99.85 328.16
L 95.57 331.92
C 86.62 339.80 70.35 346.31 62.16 345.29
C 52.24 344.07 40.18 338.14 31.94 330.43
C 29.72 328.34 28.67 328.09 23.26 328.35
L 17.10 328.64
L 20.44 332.46
C 25.43 338.13 37.00 347.02 43.28 349.99
C 48.32 352.37 58.13 355.07 62.44 355.26
C 63.40 355.30 67.55 354.65 71.66 353.81
M 79.13 335.99
C 83.42 333.83 88.01 331.20 89.35 330.14
L 91.78 328.19
L 65.25 328.17
C 49.74 328.17 38.95 328.51 39.28 329.03
C 39.58 329.51 42.32 331.58 45.40 333.62
C 57.96 341.98 66.08 342.54 79.13 335.99
M 593.21 320.19
C 594.71 318.69 594.71 311.41 593.21 309.90
C 592.31 309.00 526.91 308.74 304.76 308.74
C 18.77 308.74 17.47 308.75 15.54 310.68
C 14.47 311.75 13.60 313.71 13.60 315.05
C 13.60 316.39 14.47 318.35 15.54 319.42
C 17.47 321.35 18.77 321.36 304.76 321.36
C 526.91 321.36 592.31 321.10 593.21 320.19
M 20.86 292.96
C 24.60 272.98 27.55 267.09 35.65 263.37
L 41.00 260.92
L 46.89 262.71
C 56.90 265.74 63.34 270.47 86.92 292.13
L 97.61 301.93
L 104.89 301.91
L 112.17 301.88
L 105.38 295.34
C 80.71 271.63 51.26 252.51 39.33 252.49
C 26.87 252.45 16.79 265.35 11.17 288.52
C 7.81 302.41 7.71 301.94 13.97 301.94
L 19.18 301.94
L 20.86 292.96
M 80.61 293.96
C 56.50 270.87 45.14 264.18 37.10 268.35
C 32.04 270.96 27.40 280.74 25.77 292.23
C 25.43 294.64 24.92 297.81 24.64 299.27
L 24.12 301.94
L 56.49 301.90
L 88.86 301.86
L 80.61 293.96
M 141.92 300.33
C 143.14 298.86 142.91 298.79 139.37 299.45
C 133.33 300.58 131.86 301.87 136.58 301.91
C 139.15 301.93 141.07 301.37 141.92 300.33
M 236.66 300.25
C 235.34 298.92 232.70 298.45 224.56 298.06
C 218.83 297.78 213.17 297.00 211.97 296.32
C 209.14 294.71 208.42 291.52 209.17 283.89
C 209.51 280.48 210.05 274.89 210.39 271.50
C 210.72 268.10 210.60 265.08 210.14 264.79
C 209.66 264.50 207.69 263.96 205.76 263.59
L 202.23 262.93
L 201.83 276.85
C 201.43 291.39 200.73 294.15 196.89 296.33
C 195.69 297.02 189.91 297.78 183.84 298.05
C 175.21 298.44 172.59 298.89 171.24 300.24
C 169.62 301.86 171.18 301.94 203.95 301.94
C 236.68 301.94 238.27 301.85 236.66 300.25
M 300.55 298.60
C 299.78 296.77 298.06 293.65 296.71 291.67
C 295.37 289.70 294.27 287.63 294.27 287.09
C 294.27 286.12 284.33 265.01 282.52 262.14
C 282.02 261.34 280.61 258.72 279.39 256.31
C 277.43 252.43 273.35 246.01 268.29 238.85
C 267.36 237.53 265.12 235.13 263.30 233.51
C 258.67 229.38 244.51 220.30 243.31 220.70
C 242.67 220.91 242.14 230.65 241.83 247.49
C 241.37 272.25 241.23 274.03 239.46 275.32
C 236.78 277.28 234.82 277.04 231.05 274.29
C 229.23 272.96 225.81 270.98 223.45 269.88
C 219.96 268.26 218.93 268.12 217.98 269.14
C 216.61 270.59 215.48 287.55 216.64 289.41
C 217.48 290.79 225.54 292.02 234.48 292.16
C 241.29 292.25 247.75 295.01 250.80 299.15
L 252.88 301.94
L 277.41 301.94
L 301.95 301.94
L 300.55 298.60
M 367.24 300.33
C 368.45 298.86 368.23 298.79 364.69 299.45
C 358.64 300.58 357.18 301.87 361.90 301.91
C 364.47 301.93 366.39 301.37 367.24 300.33
M 461.98 300.25
C 460.66 298.92 458.02 298.45 449.88 298.06
C 444.15 297.78 438.49 297.00 437.29 296.32
C 434.46 294.71 433.74 291.52 434.49 283.89
C 434.83 280.48 435.37 274.89 435.71 271.50
L 436.31 265.32
L 433.52 264.65
C 431.98 264.28 430.01 263.78 429.13 263.51
C 427.73 263.10 427.50 264.63 427.15 276.91
C 426.75 291.39 426.05 294.15 422.21 296.33
C 421.01 297.02 415.23 297.78 409.16 298.05
C 400.53 298.44 397.91 298.89 396.56 300.24
C 394.94 301.86 396.50 301.94 429.27 301.94
C 462.00 301.94 463.59 301.85 461.98 300.25
M 525.87 298.60
C 525.10 296.77 523.38 293.65 522.03 291.67
C 520.69 289.70 519.59 287.63 519.59 287.09
C 519.59 286.12 509.65 265.01 507.84 262.14
C 507.34 261.34 505.93 258.72 504.71 256.31
C 502.75 252.43 498.67 246.01 493.61 238.85
C 492.68 237.53 490.44 235.13 488.62 233.51
C 483.99 229.38 469.83 220.30 468.63 220.70
C 467.99 220.91 467.46 230.65 467.15 247.49
C 466.69 272.25 466.55 274.03 464.78 275.32
C 462.10 277.28 460.14 277.04 456.37 274.29
C 454.55 272.96 451.13 270.98 448.77 269.88
C 445.28 268.26 444.25 268.12 443.29 269.14
C 441.93 270.59 440.80 287.55 441.95 289.41
C 442.80 290.79 450.86 292.02 459.80 292.16
C 466.61 292.25 473.07 295.01 476.12 299.15
L 478.20 301.94
L 502.73 301.94
L 527.26 301.94
L 525.87 298.60
M 321.37 296.60
C 324.95 294.19 328.29 292.22 328.80 292.21
C 329.30 292.21 331.20 290.90 333.01 289.30
C 334.82 287.71 336.86 286.41 337.54 286.41
C 338.23 286.41 338.93 286.06 339.11 285.62
C 339.29 285.19 341.95 283.41 345.02 281.67
C 348.09 279.92 350.60 277.93 350.60 277.24
C 350.60 276.56 349.29 274.35 347.69 272.33
C 346.09 270.31 344.78 268.40 344.78 268.07
C 344.78 267.75 343.68 266.20 342.35 264.65
C 341.01 263.11 339.92 261.50 339.92 261.09
C 339.92 260.67 339.36 259.76 338.66 259.05
C 337.97 258.34 335.92 255.58 334.11 252.91
C 332.31 250.24 330.53 247.84 330.17 247.57
C 329.80 247.30 328.78 245.67 327.89 243.93
C 327.00 242.19 325.90 240.78 325.43 240.78
C 324.97 240.78 323.90 239.06 323.07 236.97
C 322.22 234.87 320.54 232.46 319.32 231.59
C 313.96 227.83 309.65 225.24 308.73 225.24
C 308.18 225.24 305.83 223.93 303.50 222.33
C 301.17 220.73 298.82 219.42 298.27 219.42
C 297.73 219.42 295.34 218.11 292.97 216.50
C 290.59 214.90 288.11 213.59 287.45 213.59
C 286.78 213.59 284.11 212.28 281.50 210.68
C 278.89 209.08 276.27 207.77 275.68 207.77
C 275.07 207.77 272.45 206.46 269.85 204.85
C 267.24 203.25 264.55 201.94 263.86 201.94
C 263.18 201.94 262.19 201.54 261.69 201.05
C 261.18 200.56 252.46 195.89 242.31 190.68
C 232.17 185.47 217.43 177.89 209.57 173.85
C 201.70 169.82 192.42 164.98 188.94 163.11
C 185.46 161.23 179.00 157.85 174.58 155.58
C 170.17 153.31 163.72 149.84 160.25 147.89
C 156.78 145.93 151.92 143.20 149.47 141.83
C 124.05 127.57 113.93 117.51 108.93 101.53
C 106.33 93.21 106.30 89.81 108.77 82.78
C 111.38 75.38 116.93 69.90 126.69 65.11
C 143.90 56.65 163.89 53.99 188.41 56.89
L 192.78 57.41
L 186.47 53.69
C 180.46 50.16 179.93 49.54 175.59 40.94
C 165.96 21.85 158.63 13.47 148.54 9.97
C 139.40 6.80 135.11 6.41 124.56 7.77
C 108.72 9.82 108.39 10.01 91.88 26.55
C 76.27 42.20 71.46 47.80 72.05 49.59
C 72.26 50.20 73.69 48.87 75.24 46.64
C 79.89 39.93 85.97 37.89 94.59 40.15
C 101.03 41.83 102.12 40.93 98.64 36.80
C 94.51 31.88 95.94 25.19 101.64 22.82
C 107.76 20.25 112.79 20.13 121.91 22.31
C 134.19 25.23 139.07 29.92 140.47 40.16
C 141.14 45.09 138.76 53.66 135.79 56.92
C 133.82 59.09 123.21 64.56 115.30 67.50
C 108.91 69.86 107.02 68.78 102.18 59.97
C 98.08 52.50 91.56 45.61 88.62 45.66
C 87.15 45.69 87.17 45.83 88.86 46.76
C 93.19 49.15 96.55 53.33 100.62 61.39
L 104.89 69.86
L 104.89 84.24
C 104.89 101.41 106.23 107.91 112.03 118.93
C 117.50 129.32 123.30 138.67 125.53 140.66
C 126.46 141.50 127.23 142.66 127.23 143.25
C 127.23 143.83 128.31 145.35 129.66 146.60
C 130.99 147.85 132.08 149.48 132.08 150.20
C 132.08 150.92 132.74 151.77 133.54 152.08
C 134.35 152.39 137.70 156.19 140.99 160.54
C 144.29 164.89 147.56 168.80 148.27 169.22
C 148.98 169.65 149.56 170.59 149.56 171.33
C 149.56 172.06 150.62 173.46 151.92 174.44
C 153.95 175.97 158.15 180.87 174.15 200.38
C 175.86 202.46 178.45 205.57 179.91 207.30
C 181.38 209.03 182.59 210.91 182.59 211.49
C 182.59 212.06 183.19 212.87 183.92 213.30
C 184.64 213.73 186.64 216.48 188.33 219.42
C 190.02 222.36 191.83 225.42 192.34 226.21
C 196.00 231.97 199.90 242.98 200.53 249.29
C 201.04 254.36 201.69 256.58 202.84 257.17
C 203.72 257.62 208.15 258.55 212.69 259.23
C 220.98 260.48 230.06 263.77 233.30 266.70
C 234.95 268.19 235.03 267.16 235.03 242.38
C 235.03 217.29 235.09 216.45 237.09 214.45
C 241.76 209.78 255.76 215.37 267.19 226.46
C 273.32 232.41 283.76 246.90 285.03 251.21
C 285.38 252.42 286.09 253.40 286.59 253.40
C 287.11 253.40 287.95 254.51 288.47 255.88
C 290.52 261.26 302.24 285.68 303.12 286.41
C 303.44 286.67 304.67 289.07 305.84 291.74
C 308.21 297.14 311.39 300.97 313.47 300.97
C 314.23 300.97 317.79 299.01 321.37 296.60
M 546.69 296.60
C 550.27 294.19 553.61 292.22 554.12 292.21
C 554.62 292.21 556.52 290.90 558.33 289.30
C 560.14 287.71 562.18 286.41 562.86 286.41
C 563.55 286.41 564.25 286.06 564.43 285.62
C 564.61 285.19 567.27 283.41 570.34 281.67
C 573.41 279.92 575.92 277.93 575.92 277.24
C 575.92 276.56 574.61 274.35 573.01 272.33
C 571.41 270.31 570.09 268.40 570.09 268.07
C 570.09 267.75 569.00 266.20 567.67 264.65
C 566.33 263.11 565.24 261.50 565.24 261.09
C 565.24 260.67 564.68 259.76 563.98 259.05
C 563.29 258.34 561.24 255.58 559.43 252.91
C 557.62 250.24 555.85 247.84 555.49 247.57
C 555.12 247.30 554.10 245.67 553.21 243.93
C 552.32 242.19 551.21 240.78 550.75 240.78
C 550.29 240.78 549.22 239.06 548.39 236.97
C 547.54 234.87 545.86 232.46 544.64 231.59
C 539.28 227.83 534.97 225.24 534.05 225.24
C 533.50 225.24 531.15 223.93 528.82 222.33
C 526.49 220.73 524.14 219.42 523.59 219.42
C 523.05 219.42 520.66 218.11 518.29 216.50
C 515.91 214.90 513.42 213.59 512.76 213.59
C 512.09 213.59 509.42 212.28 506.82 210.68
C 504.21 209.08 501.59 207.77 500.99 207.77
C 500.39 207.77 497.77 206.46 495.17 204.85
C 492.55 203.25 489.86 201.94 489.17 201.94
C 488.49 201.94 487.51 201.54 487.01 201.05
C 486.50 200.56 477.78 195.89 467.63 190.68
C 457.48 185.47 442.75 177.89 434.88 173.85
C 427.02 169.82 417.74 164.98 414.26 163.11
C 410.78 161.23 404.32 157.85 399.90 155.58
C 395.49 153.31 389.03 149.84 385.57 147.89
C 382.10 145.93 377.24 143.20 374.79 141.83
C 349.37 127.57 339.25 117.51 334.25 101.53
C 331.65 93.21 331.62 89.81 334.09 82.78
C 336.70 75.38 342.25 69.90 352.01 65.11
C 369.22 56.65 389.21 53.99 413.73 56.89
L 418.10 57.41
L 411.79 53.69
C 405.78 50.16 405.25 49.54 400.91 40.94
C 391.28 21.85 383.94 13.47 373.85 9.97
C 364.71 6.80 360.43 6.41 349.87 7.77
C 334.03 9.82 333.70 10.01 317.19 26.55
C 301.59 42.20 296.78 47.80 297.37 49.59
C 297.58 50.20 299.01 48.87 300.56 46.64
C 305.21 39.93 311.29 37.89 319.91 40.15
C 326.35 41.83 327.44 40.93 323.96 36.80
C 319.83 31.88 321.25 25.19 326.95 22.82
C 333.08 20.25 338.10 20.13 347.23 22.31
C 359.51 25.23 364.38 29.92 365.79 40.16
C 366.46 45.09 364.07 53.66 361.11 56.92
C 359.14 59.09 348.52 64.56 340.62 67.50
C 334.23 69.86 332.33 68.78 327.50 59.97
C 323.40 52.50 316.87 45.61 313.94 45.66
C 312.46 45.69 312.49 45.83 314.18 46.76
C 318.51 49.15 321.87 53.33 325.93 61.39
L 330.21 69.86
L 330.21 84.24
C 330.21 101.41 331.55 107.91 337.35 118.93
C 342.81 129.32 348.62 138.67 350.85 140.66
C 351.78 141.50 352.55 142.66 352.55 143.25
C 352.55 143.83 353.63 145.35 354.97 146.60
C 356.31 147.85 357.40 149.48 357.40 150.20
C 357.40 150.92 358.06 151.77 358.86 152.08
C 359.66 152.39 363.02 156.19 366.31 160.54
C 369.61 164.89 372.88 168.80 373.59 169.22
C 374.30 169.65 374.88 170.59 374.88 171.33
C 374.88 172.06 375.94 173.46 377.23 174.44
C 379.27 175.97 383.47 180.87 399.46 200.38
C 401.17 202.46 403.77 205.57 405.23 207.30
C 406.70 209.03 407.90 210.91 407.90 211.49
C 407.90 212.06 408.51 212.87 409.23 213.30
C 409.96 213.73 411.95 216.48 413.64 219.42
C 415.34 222.36 417.15 225.42 417.65 226.21
C 421.30 231.94 425.22 242.99 425.84 249.23
C 426.23 253.08 427.05 256.61 427.67 257.07
C 429.22 258.24 438.45 260.19 442.43 260.19
C 445.98 260.19 455.78 264.14 458.62 266.70
C 460.27 268.19 460.35 267.16 460.35 242.38
C 460.35 217.29 460.41 216.45 462.41 214.45
C 467.08 209.78 481.07 215.37 492.51 226.46
C 498.63 232.41 509.07 246.90 510.35 251.21
C 510.70 252.42 511.40 253.40 511.91 253.40
C 512.42 253.40 513.27 254.51 513.78 255.88
C 515.83 261.26 527.56 285.68 528.44 286.41
C 528.76 286.67 529.98 289.07 531.16 291.74
C 533.53 297.14 536.70 300.97 538.79 300.97
C 539.55 300.97 543.10 299.01 546.69 296.60
M 167.66 292.70
C 170.31 291.61 170.82 290.79 171.66 286.26
C 172.19 283.41 173.82 277.02 175.27 272.07
C 176.73 267.12 177.70 262.49 177.43 261.78
C 176.94 260.52 170.04 258.82 169.13 259.72
C 168.89 259.96 167.92 265.22 166.96 271.40
C 165.19 282.84 162.76 291.77 161.14 292.77
C 160.66 293.07 160.25 293.76 160.25 294.30
C 160.25 295.32 162.37 294.86 167.66 292.70
M 392.97 292.70
C 395.66 291.61 396.13 290.81 397.09 285.78
C 397.69 282.65 399.44 275.95 400.96 270.87
C 402.49 265.80 403.49 261.36 403.15 261.00
C 401.83 259.54 395.64 259.08 394.64 260.36
C 394.08 261.07 393.10 265.58 392.45 270.39
C 391.15 280.01 388.02 291.81 386.53 292.73
C 385.99 293.05 385.57 293.76 385.57 294.30
C 385.57 295.32 387.68 294.86 392.97 292.70
M 189.65 290.39
C 193.81 288.60 193.97 288.38 194.57 283.35
C 195.91 272.18 195.66 271.15 190.76 267.70
C 185.27 263.83 184.30 263.80 183.38 267.48
C 178.95 284.97 177.76 290.52 178.24 291.31
C 179.19 292.83 185.05 292.36 189.65 290.39
M 414.96 290.39
C 419.13 288.60 419.29 288.38 419.89 283.35
C 421.23 272.18 420.98 271.15 416.08 267.70
C 410.58 263.83 409.62 263.80 408.70 267.48
C 404.27 284.97 403.08 290.52 403.56 291.31
C 404.50 292.83 410.37 292.36 414.96 290.39
M 194.20 253.59
C 193.20 245.60 188.67 234.44 182.93 225.76
C 175.99 215.31 175.08 214.05 173.49 212.73
C 172.61 212.00 171.90 210.91 171.90 210.29
C 171.90 209.67 171.14 208.49 170.20 207.65
C 169.27 206.82 165.23 202.17 161.23 197.31
C 157.22 192.47 153.85 188.60 153.71 188.73
C 153.59 188.85 154.30 191.12 155.31 193.75
C 159.13 203.75 160.05 206.43 160.98 210.19
C 161.49 212.33 162.80 217.36 163.89 221.36
C 164.98 225.36 166.15 231.49 166.50 234.95
C 166.85 238.42 167.63 243.95 168.22 247.23
L 169.29 253.21
L 179.25 255.64
C 184.74 256.98 190.46 258.69 191.98 259.45
C 193.48 260.20 194.80 260.78 194.91 260.73
C 195.01 260.68 194.69 257.47 194.20 253.59
M 419.52 253.59
C 418.52 245.60 413.98 234.44 408.24 225.76
C 401.31 215.31 400.40 214.05 398.80 212.73
C 397.93 212.00 397.22 210.91 397.22 210.29
C 397.22 209.67 396.45 208.49 395.52 207.65
C 394.59 206.82 390.55 202.17 386.55 197.31
C 382.54 192.47 379.17 188.60 379.03 188.73
C 378.90 188.85 379.62 191.12 380.63 193.75
C 384.51 203.90 385.38 206.47 386.56 211.17
C 387.23 213.83 388.40 218.20 389.16 220.87
C 389.93 223.54 391.18 230.53 391.95 236.41
C 394.16 253.47 393.57 252.48 403.11 254.94
C 412.55 257.40 417.71 259.14 419.00 260.31
C 420.42 261.59 420.46 261.10 419.52 253.59
M 362.26 244.64
C 357.71 240.40 352.69 235.68 351.09 234.15
C 349.49 232.62 343.58 227.43 337.98 222.60
C 314.33 202.26 286.80 170.77 266.12 140.41
C 264.26 137.67 262.40 135.29 261.99 135.12
C 261.58 134.93 261.25 134.30 261.25 133.71
C 261.25 133.12 260.11 131.44 258.70 129.97
C 257.30 128.50 255.66 126.47 255.06 125.45
C 253.59 122.94 248.15 115.46 246.27 113.35
C 245.43 112.42 244.74 111.29 244.74 110.86
C 244.74 110.43 243.43 108.82 241.83 107.28
C 240.23 105.75 238.92 104.17 238.92 103.79
C 238.92 103.06 238.07 101.98 230.96 93.64
C 228.66 90.94 225.25 86.82 223.38 84.48
C 221.50 82.14 218.17 78.39 215.96 76.16
C 213.74 73.92 211.47 71.25 210.92 70.20
C 208.75 66.17 175.70 62.16 160.00 64.04
C 150.08 65.22 140.10 67.49 135.54 69.58
C 118.04 77.60 112.49 84.51 114.71 95.54
C 115.73 100.65 118.41 106.80 119.61 106.80
C 119.99 106.80 120.56 107.56 120.87 108.50
C 121.45 110.26 134.25 124.27 135.29 124.27
C 135.61 124.27 137.75 125.52 140.05 127.06
C 142.34 128.59 147.70 131.71 151.94 133.98
C 156.20 136.26 160.27 138.72 161.00 139.45
C 161.73 140.17 163.13 140.78 164.12 140.78
C 165.10 140.78 166.06 141.16 166.24 141.61
C 166.62 142.61 173.59 146.45 194.95 157.43
C 203.62 161.88 212.39 166.41 214.45 167.48
C 219.27 169.99 220.89 170.81 227.30 173.99
C 230.21 175.45 233.69 177.26 235.03 178.03
C 236.37 178.80 241.39 181.33 246.20 183.65
C 251.01 185.97 255.16 188.14 255.43 188.47
C 255.69 188.79 258.32 190.24 261.25 191.69
C 264.19 193.15 267.91 195.02 269.51 195.86
C 273.11 197.77 275.59 199.03 278.73 200.55
C 280.07 201.20 282.91 202.67 285.05 203.82
C 287.18 204.96 291.55 207.19 294.76 208.78
C 300.50 211.60 301.60 212.18 305.44 214.41
C 306.51 215.03 308.33 215.95 309.47 216.45
C 310.63 216.95 311.85 217.82 312.20 218.39
C 312.55 218.95 313.65 219.42 314.65 219.42
C 315.64 219.42 316.59 219.82 316.78 220.31
C 316.95 220.80 321.69 223.54 327.30 226.40
C 332.92 229.26 338.60 232.36 339.93 233.29
C 345.14 236.94 352.77 241.75 353.38 241.75
C 353.73 241.75 357.29 244.12 361.30 247.01
C 365.30 249.91 369.01 252.29 369.54 252.32
C 370.08 252.34 366.80 248.88 362.26 244.64
M 587.58 244.64
C 583.04 240.40 578.01 235.68 576.41 234.15
C 574.80 232.62 568.90 227.43 563.30 222.60
C 539.65 202.26 512.11 170.77 491.44 140.41
C 489.58 137.67 487.72 135.29 487.31 135.12
C 486.90 134.93 486.57 134.30 486.57 133.71
C 486.57 133.12 485.43 131.44 484.02 129.97
C 482.62 128.50 480.98 126.47 480.37 125.45
C 478.91 122.94 473.47 115.46 471.59 113.35
C 470.75 112.42 470.06 111.29 470.06 110.86
C 470.06 110.43 468.75 108.82 467.15 107.28
C 465.54 105.75 464.23 104.17 464.23 103.79
C 464.23 103.06 463.39 101.98 456.28 93.64
C 453.98 90.94 450.57 86.82 448.69 84.48
C 446.82 82.14 443.49 78.39 441.27 76.16
C 439.06 73.92 436.79 71.25 436.23 70.20
C 434.07 66.17 401.02 62.16 385.31 64.04
C 375.40 65.22 365.41 67.49 360.86 69.58
C 343.36 77.60 337.81 84.51 340.03 95.54
C 341.05 100.65 343.73 106.80 344.93 106.80
C 345.31 106.80 345.87 107.56 346.18 108.50
C 346.77 110.26 359.57 124.27 360.61 124.27
C 360.93 124.27 363.06 125.52 365.37 127.06
C 367.66 128.59 373.02 131.71 377.26 133.98
C 381.52 136.26 385.59 138.72 386.31 139.45
C 387.05 140.17 388.45 140.78 389.44 140.78
C 390.42 140.78 391.37 141.16 391.56 141.61
C 391.94 142.61 398.91 146.45 420.27 157.43
C 428.94 161.88 437.71 166.41 439.77 167.48
C 444.59 169.99 446.21 170.81 452.62 173.99
C 455.53 175.45 459.01 177.26 460.35 178.03
C 461.69 178.80 466.71 181.33 471.52 183.65
C 476.33 185.97 480.48 188.14 480.74 188.47
C 481.01 188.79 483.64 190.24 486.57 191.69
C 489.50 193.15 493.22 195.02 494.83 195.86
C 498.43 197.77 500.91 199.03 504.05 200.55
C 505.39 201.20 508.23 202.67 510.37 203.82
C 512.50 204.96 516.87 207.19 520.08 208.78
C 525.82 211.60 526.91 212.18 530.76 214.41
C 531.83 215.03 533.65 215.95 534.79 216.45
C 535.95 216.95 537.17 217.82 537.52 218.39
C 537.87 218.95 538.97 219.42 539.97 219.42
C 540.96 219.42 541.91 219.82 542.09 220.31
C 542.27 220.80 547.01 223.54 552.62 226.40
C 558.24 229.26 563.92 232.36 565.25 233.29
C 570.45 236.94 578.09 241.75 578.70 241.75
C 579.05 241.75 582.60 244.12 586.61 247.01
C 590.62 249.91 594.33 252.29 594.86 252.32
C 595.39 252.34 592.11 248.88 587.58 244.64
M 108.41 56.17
C 108.04 54.32 108.46 51.00 109.48 47.77
C 111.99 39.81 117.75 36.89 124.28 40.27
C 127.54 41.96 129.56 47.04 128.61 51.12
L 127.97 53.88
L 130.20 51.75
C 132.06 49.95 132.44 48.55 132.50 43.23
C 132.57 37.26 132.37 36.69 129.41 33.92
C 125.43 30.19 120.58 28.16 115.74 28.16
C 112.25 28.16 111.99 28.34 112.41 30.53
C 112.69 31.99 112.08 34.01 110.82 35.78
C 109.70 37.36 108.77 40.00 108.77 41.65
C 108.77 44.50 105.98 48.54 104.01 48.54
C 103.19 48.54 107.82 59.17 108.66 59.20
C 108.85 59.21 108.75 57.84 108.41 56.17
M 121.45 54.73
C 122.70 51.45 122.61 49.24 121.15 47.24
C 119.37 44.81 116.67 47.07 115.58 51.90
C 114.46 56.88 115.80 59.69 118.57 58.20
C 119.64 57.63 120.93 56.07 121.45 54.73
M 333.72 56.17
C 333.35 54.32 333.78 51.00 334.80 47.77
C 337.31 39.81 343.07 36.89 349.60 40.27
C 352.86 41.96 354.88 47.04 353.92 51.12
L 353.28 53.88
L 355.52 51.75
C 357.38 49.95 357.76 48.55 357.82 43.23
C 357.89 37.26 357.69 36.69 354.73 33.92
C 350.75 30.19 345.90 28.16 341.06 28.16
C 337.57 28.16 337.31 28.34 337.73 30.53
C 338.01 31.99 337.39 34.01 336.14 35.78
C 335.02 37.36 334.09 40.00 334.09 41.65
C 334.09 44.50 331.30 48.54 329.32 48.54
C 328.51 48.54 333.14 59.17 333.98 59.20
C 334.17 59.21 334.06 57.84 333.72 56.17
M 346.77 54.73
C 348.02 51.45 347.93 49.24 346.47 47.24
C 344.69 44.81 341.99 47.07 340.90 51.90
C 339.77 56.88 341.11 59.69 343.89 58.20
C 344.96 57.63 346.25 56.07 346.77 54.73
M 106.31 31.14
C 107.03 29.97 105.20 28.83 103.90 29.62
C 102.82 30.29 103.53 32.04 104.89 32.04
C 105.37 32.04 106.00 31.63 106.31 31.14
M 331.63 31.14
C 332.34 29.97 330.52 28.83 329.22 29.62
C 328.14 30.29 328.85 32.04 330.21 32.04
C 330.68 32.04 331.32 31.63 331.63 31.14"/>
<path fill="#000000" stroke="none" d="
M 6.80 563.59
L 6.80 539.81
L 30.59 539.81
L 54.39 539.81
L 54.39 563.59
L 54.39 587.38
L 30.59 587.38
L 6.80 587.38
L 6.80 563.59
M 50.50 563.59
L 50.50 543.69
L 30.59 543.69
L 10.68 543.69
L 10.68 563.59
L 10.68 583.50
L 30.59 583.50
L 50.50 583.50
L 50.50 563.59"/>
<path fill="#000000" stroke="none" d="
M 63.13 563.59
L 63.13 539.81
L 88.86 539.81
L 114.60 539.81
L 114.60 563.59
L 114.60 587.38
L 88.86 587.38
L 63.13 587.38
L 63.13 563.59
M 110.72 563.59
L 110.72 543.69
L 88.86 543.69
L 67.01 543.69
L 67.01 563.59
L 67.01 583.50
L 88.86 583.50
L 110.72 583.50
L 110.72 563.59"/>
<path fill="#000000" stroke="none" d="
M 123.34 563.59
L 123.34 539.81
L 150.05 539.81
L 176.76 539.81
L 176.76 563.59
L 176.76 587.38
L 150.05 587.38
L 123.34 587.38
L 123.34 563.59
M 172.87 563.59
L 172.87 543.69
L 150.05 543.69
L 127.23 543.69
L 127.23 563.59
L 127.23 583.50
L 150.05 583.50
L 172.87 583.50
L 172.87 563.59"/>
<path fill="#000000" stroke="none" d="
M 185.50 563.59
L 185.50 539.81
L 211.72 539.81
L 237.94 539.81
L 237.94 563.59
L 237.94 587.38
L 211.72 587.38
L 185.50 587.38
L 185.50 563.59
M 234.06 563.59
L 234.06 543.69
L 211.72 543.69
L 189.38 543.69
L 189.38 563.59
L 189.38 583.50
L 211.72 583.50
L 234.06 583.50
L 234.06 563.59"/>
<path fill="#000000" stroke="none" d="
M 246.68 563.59
L 246.68 539.81
L 273.39 539.81
L 300.10 539.81
L 300.10 563.59
L 300.10 587.38
L 273.39 587.38
L 246.68 587.38
L 246.68 563.59
M 296.22 563.59
L 296.22 543.69
L 273.39 543.69
L 250.57 543.69
L 250.57 563.59
L 250.57 583.50
L 273.39 583.50
L 296.22 583.50
L 296.22 563.59"/>
<path fill="#000000" stroke="none" d="
M 308.84 563.59
L 308.84 539.81
L 334.58 539.81
L 360.32 539.81
L 360.32 563.59
L 360.32 587.38
L 334.58 587.38
L 308.84 587.38
L 308.84 563.59
M 356.43 563.59
L 356.43 543.69
L 334.58 543.69
L 312.73 543.69
L 312.73 563.59
L 312.73 583.50
L 334.58 583.50
L 356.43 583.50
L 356.43 563.59"/>
<path fill="#000000" stroke="none" d="
M 369.06 563.59
L 369.06 539.81
L 395.28 539.81
L 421.50 539.81
L 421.50 563.59
L 421.50 587.38
L 395.28 587.38
L 369.06 587.38
L 369.06 563.59
M 417.62 563.59
L 417.62 543.69
L 395.28 543.69
L 372.94 543.69
L 372.94 563.59
L 372.94 583.50
L 395.28 583.50
L 417.62 583.50
L 417.62 563.59"/>
<path fill="#000000" stroke="none" d="
M 430.24 563.59
L 430.24 539.81
L 456.95 539.81
L 483.66 539.81
L 483.66 563.59
L 483.66 587.38
L 456.95 587.38
L 430.24 587.38
L 430.24 563.59
M 479.77 563.59
L 479.77 543.69
L 456.95 543.69
L 434.13 543.69
L 434.13 563.59
L 434.13 583.50
L 456.95 583.50
L 479.77 583.50
L 479.77 563.59"/>
<path fill="#000000" stroke="none" d="
M 492.40 563.59
L 492.40 539.81
L 518.14 539.81
L 543.87 539.81
L 543.87 563.59
L 543.87 587.38
L 518.14 587.38
L 492.40 587.38
L 492.40 563.59
M 539.99 563.59
L 539.99 543.69
L 518.14 543.69
L 496.28 543.69
L 496.28 563.59
L 496.28 583.50
L 518.14 583.50
L 539.99 583.50
L 539.99 563.59"/>
<path fill="#000000" stroke="none" d="
M 552.61 563.59
L 552.61 539.81
L 576.41 539.81
L 600.20 539.81
L 600.20 563.59
L 600.20 587.38
L 576.41 587.38
L 552.61 587.38
L 552.61 563.59
M 596.32 563.59
L 596.32 543.69
L 576.41 543.69
L 556.50 543.69
L 556.50 563.59
L 556.50 583.50
L 576.41 583.50
L 596.32 583.50
L 596.32 563.59"/>
<path fill="#000000" stroke="none" d="
M 6.80 507.28
L 6.80 483.50
L 30.59 483.50
L 54.39 483.50
L 54.39 507.28
L 54.39 531.07
L 30.59 531.07
L 6.80 531.07
L 6.80 507.28
M 50.50 507.28
L 50.50 487.38
L 30.59 487.38
L 10.68 487.38
L 10.68 507.28
L 10.68 527.18
L 30.59 527.18
L 50.50 527.18
L 50.50 507.28"/>
<path fill="#000000" stroke="none" d="
M 63.13 507.28
L 63.13 483.50
L 88.86 483.50
L 114.60 483.50
L 114.60 507.28
L 114.60 531.07
L 88.86 531.07
L 63.13 531.07
L 63.13 507.28
M 110.72 507.28
L 110.72 487.38
L 88.86 487.38
L 67.01 487.38
L 67.01 507.28
L 67.01 527.18
L 88.86 527.18
L 110.72 527.18
L 110.72 507.28"/>
<path fill="#000000" stroke="none" d="
M 123.34 507.28
L 123.34 483.50
L 150.05 483.50
L 176.76 483.50
L 176.76 507.28
L 176.76 531.07
L 150.05 531.07
L 123.34 531.07
L 123.34 507.28
M 172.87 507.28
L 172.87 487.38
L 150.05 487.38
L 127.23 487.38
L 127.23 507.28
L 127.23 527.18
L 150.05 527.18
L 172.87 527.18
L 172.87 507.28"/>
<path fill="#000000" stroke="none" d="
M 185.50 507.28
L 185.50 483.50
L 211.72 483.50
L 237.94 483.50
L 237.94 507.28
L 237.94 531.07
L 211.72 531.07
L 185.50 531.07
L 185.50 507.28
M 234.06 507.28
L 234.06 487.38
L 211.72 487.38
L 189.38 487.38
L 189.38 507.28
L 189.38 527.18
L 211.72 527.18
L 234.06 527.18
L 234.06 507.28"/>
<path fill="#000000" stroke="none" d="
M 246.68 507.28
L 246.68 483.50
L 273.39 483.50
L 300.10 483.50
L 300.10 507.28
L 300.10 531.07
L 273.39 531.07
L 246.68 531.07
L 246.68 507.28
M 296.22 507.28
L 296.22 487.38
L 273.39 487.38
L 250.57 487.38
L 250.57 507.28
L 250.57 527.18
L 273.39 527.18
L 296.22 527.18
L 296.22 507.28"/>
<path fill="#000000" stroke="none" d="
M 308.84 507.28
L 308.84 483.50
L 334.58 483.50
L 360.32 483.50
L 360.32 507.28
L 360.32 531.07
L 334.58 531.07
L 308.84 531.07
L 308.84 507.28
M 356.43 507.28
L 356.43 487.38
L 334.58 487.38
L 312.73 487.38
L 312.73 507.28
L 312.73 527.18
L 334.58 527.18
L 356.43 527.18
L 356.43 507.28"/>
<path fill="#000000" stroke="none" d="
M 369.06 507.28
L 369.06 483.50
L 395.28 483.50
L 421.50 483.50
L 421.50 507.28
L 421.50 531.07
L 395.28 531.07
L 369.06 531.07
L 369.06 507.28
M 417.62 507.28
L 417.62 487.38
L 395.28 487.38
L 372.94 487.38
L 372.94 507.28
L 372.94 527.18
L 395.28 527.18
L 417.62 527.18
L 417.62 507.28"/>
<path fill="#000000" stroke="none" d="
M 430.24 507.28
L 430.24 483.50
L 456.95 483.50
L 483.66 483.50
L 483.66 507.28
L 483.66 531.07
L 456.95 531.07
L 430.24 531.07
L 430.24 507.28
M 479.77 507.28
L 479.77 487.38
L 456.95 487.38
L 434.13 487.38
L 434.13 507.28
L 434.13 527.18
L 456.95 527.18
L 479.77 527.18
L 479.77 507.28"/>
<path fill="#000000" stroke="none" d="
M 492.40 507.28
L 492.40 483.50
L 518.14 483.50
L 543.87 483.50
L 543.87 507.28
L 543.87 531.07
L 518.14 531.07
L 492.40 531.07
L 492.40 507.28
M 539.99 507.28
L 539.99 487.38
L 518.14 487.38
L 496.28 487.38
L 496.28 507.28
L 496.28 527.18
L 518.14 527.18
L 539.99 527.18
L 539.99 507.28"/>
<path fill="#000000" stroke="none" d="
M 552.61 507.28
L 552.61 483.50
L 576.41 483.50
L 600.20 483.50
L 600.20 507.28
L 600.20 531.07
L 576.41 531.07
L 552.61 531.07
L 552.61 507.28
M 596.32 507.28
L 596.32 487.38
L 576.41 487.38
L 556.50 487.38
L 556.50 507.28
L 556.50 527.18
L 576.41 527.18
L 596.32 527.18
L 596.32 507.28"/>
<path fill="#d7ae8c" stroke="none" d="
M 310.03 298.78
C 308.89 297.56 307.01 294.40 305.84 291.74
C 304.67 289.07 303.44 286.67 303.12 286.41
C 302.24 285.68 290.52 261.26 288.47 255.88
C 287.95 254.51 287.11 253.40 286.59 253.40
C 286.09 253.40 285.38 252.42 285.03 251.21
C 283.76 246.90 273.32 232.41 267.19 226.46
C 255.76 215.37 241.76 209.78 237.09 214.45
C 235.09 216.45 235.03 217.29 235.03 242.38
C 235.03 267.16 234.95 268.19 233.30 266.70
C 230.06 263.77 220.98 260.48 212.69 259.23
C 208.15 258.55 203.72 257.62 202.84 257.17
C 201.69 256.58 201.04 254.36 200.53 249.29
C 199.90 242.98 196.00 231.97 192.34 226.21
C 191.83 225.42 190.02 222.36 188.33 219.42
C 186.64 216.48 184.64 213.73 183.92 213.30
C 183.19 212.87 182.59 212.06 182.59 211.49
C 182.59 210.91 181.38 209.03 179.91 207.30
C 178.45 205.57 175.86 202.46 174.15 200.38
C 158.15 180.87 153.95 175.97 151.92 174.44
C 150.62 173.46 149.56 172.06 149.56 171.33
C 149.56 170.59 148.98 169.65 148.27 169.22
C 147.56 168.80 144.29 164.89 140.99 160.54
C 137.70 156.19 134.35 152.39 133.54 152.08
C 132.74 151.77 132.08 150.92 132.08 150.20
C 132.08 149.48 130.99 147.85 129.66 146.60
C 128.31 145.35 127.23 143.83 127.23 143.25
C 127.23 142.66 126.46 141.50 125.53 140.66
C 123.30 138.67 117.50 129.32 112.03 118.93
C 106.23 107.91 104.89 101.41 104.89 84.24
L 104.89 69.86
L 100.62 61.39
C 96.55 53.33 93.19 49.15 88.86 46.76
C 87.17 45.83 87.15 45.69 88.62 45.66
C 91.56 45.61 98.08 52.50 102.18 59.97
C 107.02 68.78 108.91 69.86 115.30 67.50
C 123.21 64.56 133.82 59.09 135.79 56.92
C 138.76 53.66 141.14 45.09 140.47 40.16
C 139.07 29.92 134.19 25.23 121.91 22.31
C 112.79 20.13 107.76 20.25 101.64 22.82
C 95.94 25.19 94.51 31.88 98.64 36.80
C 102.12 40.93 101.03 41.83 94.59 40.15
C 85.97 37.89 79.89 39.93 75.24 46.64
C 73.69 48.87 72.26 50.20 72.05 49.59
C 71.46 47.80 76.27 42.20 91.88 26.55
C 108.48 9.90 108.79 9.73 125.04 7.78
C 135.93 6.47 139.16 6.77 148.54 9.99
C 158.62 13.46 165.95 21.83 175.59 40.94
C 179.93 49.54 180.46 50.16 186.47 53.69
L 192.78 57.41
L 188.41 56.89
C 163.89 53.99 143.90 56.65 126.69 65.11
C 116.93 69.90 111.38 75.38 108.77 82.78
C 106.30 89.81 106.33 93.21 108.93 101.53
C 113.93 117.51 124.05 127.57 149.47 141.83
C 151.92 143.20 156.78 145.93 160.25 147.89
C 163.72 149.84 170.17 153.31 174.58 155.58
C 179.00 157.85 185.46 161.23 188.94 163.11
C 192.42 164.98 201.70 169.82 209.57 173.85
C 217.43 177.89 232.17 185.47 242.31 190.68
C 252.46 195.89 261.18 200.56 261.69 201.05
C 262.19 201.54 263.18 201.94 263.86 201.94
C 264.55 201.94 267.24 203.25 269.85 204.85
C 272.45 206.46 275.07 207.77 275.68 207.77
C 276.27 207.77 278.89 209.08 281.50 210.68
C 284.11 212.28 286.78 213.59 287.45 213.59
C 288.11 213.59 290.59 214.90 292.97 216.50
C 295.34 218.11 297.73 219.42 298.27 219.42
C 298.82 219.42 301.17 220.73 303.50 222.33
C 305.83 223.93 308.18 225.24 308.73 225.24
C 309.65 225.24 313.96 227.83 319.32 231.59
C 320.54 232.46 322.22 234.87 323.07 236.97
C 323.90 239.06 324.97 240.78 325.43 240.78
C 325.90 240.78 327.00 242.19 327.89 243.93
C 328.78 245.67 329.80 247.30 330.17 247.57
C 330.53 247.84 332.31 250.24 334.11 252.91
C 335.92 255.58 337.97 258.34 338.66 259.05
C 339.36 259.76 339.92 260.67 339.92 261.09
C 339.92 261.50 341.01 263.11 342.35 264.65
C 343.68 266.20 344.78 267.75 344.78 268.07
C 344.78 268.40 346.09 270.31 347.69 272.33
C 349.29 274.35 350.60 276.56 350.60 277.24
C 350.60 277.93 348.09 279.92 345.02 281.67
C 341.95 283.41 339.29 285.19 339.11 285.62
C 338.93 286.06 338.23 286.41 337.54 286.41
C 336.86 286.41 334.82 287.71 333.01 289.30
C 331.20 290.90 329.30 292.21 328.80 292.21
C 328.29 292.22 324.95 294.19 321.37 296.60
C 317.79 299.01 314.23 300.97 313.47 300.97
C 312.72 300.97 311.16 299.98 310.03 298.78"/>
<path fill="#d7ae8c" stroke="none" d="
M 535.34 298.78
C 534.21 297.56 532.32 294.40 531.16 291.74
C 529.98 289.07 528.76 286.67 528.44 286.41
C 527.56 285.68 515.83 261.26 513.78 255.88
C 513.27 254.51 512.42 253.40 511.91 253.40
C 511.40 253.40 510.70 252.42 510.35 251.21
C 509.07 246.90 498.63 232.41 492.51 226.46
C 481.07 215.37 467.08 209.78 462.41 214.45
C 460.41 216.45 460.35 217.29 460.35 242.38
C 460.35 267.16 460.27 268.19 458.62 266.70
C 455.78 264.14 445.98 260.19 442.43 260.19
C 438.45 260.19 429.22 258.24 427.67 257.07
C 427.05 256.61 426.23 253.08 425.84 249.23
C 425.22 242.99 421.30 231.94 417.65 226.21
C 417.15 225.42 415.34 222.36 413.64 219.42
C 411.95 216.48 409.96 213.73 409.23 213.30
C 408.51 212.87 407.90 212.06 407.90 211.49
C 407.90 210.91 406.70 209.03 405.23 207.30
C 403.77 205.57 401.17 202.46 399.46 200.38
C 383.47 180.87 379.27 175.97 377.23 174.44
C 375.94 173.46 374.88 172.06 374.88 171.33
C 374.88 170.59 374.30 169.65 373.59 169.22
C 372.88 168.80 369.61 164.89 366.31 160.54
C 363.02 156.19 359.66 152.39 358.86 152.08
C 358.06 151.77 357.40 150.92 357.40 150.20
C 357.40 149.48 356.31 147.85 354.97 146.60
C 353.63 145.35 352.55 143.83 352.55 143.25
C 352.55 142.66 351.78 141.50 350.85 140.66
C 348.62 138.67 342.81 129.32 337.35 118.93
C 331.55 107.91 330.21 101.41 330.21 84.24
L 330.21 69.86
L 325.93 61.39
C 321.87 53.33 318.51 49.15 314.18 46.76
C 312.49 45.83 312.46 45.69 313.94 45.66
C 316.87 45.61 323.40 52.50 327.50 59.97
C 332.33 68.78 334.23 69.86 340.62 67.50
C 348.52 64.56 359.14 59.09 361.11 56.92
C 364.07 53.66 366.46 45.09 365.79 40.16
C 364.38 29.92 359.51 25.23 347.23 22.31
C 338.10 20.13 333.08 20.25 326.95 22.82
C 321.25 25.19 319.83 31.88 323.96 36.80
C 327.44 40.93 326.35 41.83 319.91 40.15
C 311.29 37.89 305.21 39.93 300.56 46.64
C 299.01 48.87 297.58 50.20 297.37 49.59
C 296.78 47.80 301.59 42.20 317.19 26.55
C 333.70 10.01 334.03 9.82 349.87 7.77
C 360.43 6.41 364.71 6.80 373.85 9.97
C 383.94 13.47 391.28 21.85 400.91 40.94
C 405.25 49.54 405.78 50.16 411.79 53.69
L 418.10 57.41
L 413.73 56.89
C 389.21 53.99 369.22 56.65 352.01 65.11
C 342.25 69.90 336.70 75.38 334.09 82.78
C 331.62 89.81 331.65 93.21 334.25 101.53
C 339.25 117.51 349.37 127.57 374.79 141.83
C 377.24 143.20 382.10 145.93 385.57 147.89
C 389.03 149.84 395.49 153.31 399.90 155.58
C 404.32 157.85 410.78 161.23 414.26 163.11
C 417.74 164.98 427.02 169.82 434.88 173.85
C 442.75 177.89 457.48 185.47 467.63 190.68
C 477.78 195.89 486.50 200.56 487.01 201.05
C 487.51 201.54 488.49 201.94 489.17 201.94
C 489.86 201.94 492.55 203.25 495.17 204.85
C 497.77 206.46 500.39 207.77 500.99 207.77
C 501.59 207.77 504.21 209.08 506.82 210.68
C 509.42 212.28 512.09 213.59 512.76 213.59
C 513.42 213.59 515.91 214.90 518.29 216.50
C 520.66 218.11 523.05 219.42 523.59 219.42
C 524.14 219.42 526.49 220.73 528.82 222.33
C 531.15 223.93 533.50 225.24 534.05 225.24
C 534.97 225.24 539.28 227.83 544.64 231.59
C 545.86 232.46 547.54 234.87 548.39 236.97
C 549.22 239.06 550.29 240.78 550.75 240.78
C 551.21 240.78 552.32 242.19 553.21 243.93
C 554.10 245.67 555.12 247.30 555.49 247.57
C 555.85 247.84 557.62 250.24 559.43 252.91
C 561.24 255.58 563.29 258.34 563.98 259.05
C 564.68 259.76 565.24 260.67 565.24 261.09
C 565.24 261.50 566.33 263.11 567.67 264.65
C 569.00 266.20 570.09 267.75 570.09 268.07
C 570.09 268.40 571.41 270.31 573.01 272.33
C 574.61 274.35 575.92 276.56 575.92 277.24
C 575.92 277.93 573.41 279.92 570.34 281.67
C 567.27 283.41 564.61 285.19 564.43 285.62
C 564.25 286.06 563.55 286.41 562.86 286.41
C 562.18 286.41 560.14 287.71 558.33 289.30
C 556.52 290.90 554.62 292.21 554.12 292.21
C 553.61 292.22 550.27 294.19 546.69 296.60
C 543.10 299.01 539.55 300.97 538.79 300.97
C 538.04 300.97 536.48 299.98 535.34 298.78"/>
<path fill="#d7ae8c" stroke="none" d="
M 191.98 259.45
C 190.46 258.69 184.74 256.98 179.25 255.64
L 169.29 253.21
L 168.22 247.23
C 167.63 243.95 166.85 238.42 166.50 234.95
C 166.15 231.49 164.98 225.36 163.89 221.36
C 162.80 217.36 161.49 212.33 160.98 210.19
C 160.05 206.43 159.13 203.75 155.31 193.75
C 154.30 191.12 153.59 188.85 153.71 188.73
C 153.85 188.60 157.22 192.47 161.23 197.31
C 165.23 202.17 169.27 206.82 170.20 207.65
C 171.14 208.49 171.90 209.67 171.90 210.29
C 171.90 210.91 172.61 212.00 173.49 212.73
C 175.08 214.05 175.99 215.31 182.93 225.76
C 188.67 234.44 193.20 245.60 194.20 253.59
C 194.69 257.47 195.01 260.68 194.91 260.73
C 194.80 260.78 193.48 260.20 191.98 259.45"/>
<path fill="#d7ae8c" stroke="none" d="
M 419.00 260.31
C 417.71 259.14 412.55 257.40 403.11 254.94
C 393.57 252.48 394.16 253.47 391.95 236.41
C 391.18 230.53 389.93 223.54 389.16 220.87
C 388.40 218.20 387.23 213.83 386.56 211.17
C 385.38 206.47 384.51 203.90 380.63 193.75
C 379.62 191.12 378.90 188.85 379.03 188.73
C 379.17 188.60 382.54 192.47 386.55 197.31
C 390.55 202.17 394.59 206.82 395.52 207.65
C 396.45 208.49 397.22 209.67 397.22 210.29
C 397.22 210.91 397.93 212.00 398.80 212.73
C 400.40 214.05 401.31 215.31 408.24 225.76
C 413.98 234.44 418.52 245.60 419.52 253.59
C 420.46 261.10 420.42 261.59 419.00 260.31"/>
<path fill="#12498e" stroke="none" d="
M 105.71 53.86
C 104.28 50.94 103.52 48.54 104.01 48.54
C 106.02 48.54 108.77 44.50 108.79 41.50
C 108.80 39.77 109.67 37.26 110.72 35.92
C 111.77 34.58 112.63 32.29 112.64 30.83
C 112.66 28.42 113.00 28.16 116.09 28.16
C 120.60 28.16 125.52 30.28 129.41 33.92
C 132.37 36.69 132.57 37.26 132.50 43.23
C 132.44 48.55 132.06 49.95 130.20 51.75
L 127.97 53.88
L 128.61 51.12
C 129.56 47.04 127.54 41.96 124.28 40.27
C 117.75 36.89 111.99 39.81 109.48 47.77
C 108.46 51.00 108.04 54.32 108.41 56.17
C 108.75 57.84 108.85 59.21 108.66 59.20
C 108.45 59.19 107.12 56.80 105.71 53.86"/>
<path fill="#12498e" stroke="none" d="
M 331.02 53.86
C 329.60 50.94 328.84 48.54 329.32 48.54
C 331.30 48.54 334.09 44.50 334.09 41.65
C 334.09 40.00 335.02 37.36 336.14 35.78
C 337.39 34.01 338.01 31.99 337.73 30.53
C 337.31 28.34 337.57 28.16 341.06 28.16
C 345.90 28.16 350.75 30.19 354.73 33.92
C 357.69 36.69 357.89 37.26 357.82 43.23
C 357.76 48.55 357.38 49.95 355.52 51.75
L 353.28 53.88
L 353.92 51.12
C 354.88 47.04 352.86 41.96 349.60 40.27
C 343.07 36.89 337.31 39.81 334.80 47.77
C 333.78 51.00 333.35 54.32 333.72 56.17
C 334.06 57.84 334.17 59.21 333.98 59.20
C 333.77 59.19 332.44 56.80 331.02 53.86"/>
<path fill="#eb2e00" stroke="none" d="
M 103.49 31.17
C 103.20 30.69 103.60 30.06 104.37 29.76
C 105.90 29.17 107.19 30.39 106.16 31.42
C 105.28 32.29 104.12 32.18 103.49 31.17"/>
<path fill="#eb2e00" stroke="none" d="
M 328.79 31.14
C 328.07 29.97 329.90 28.83 331.20 29.62
C 332.28 30.29 331.57 32.04 330.21 32.04
C 329.73 32.04 329.10 31.63 328.79 31.14"/>
<path fill="#fefefe" stroke="none" d="
M 115.71 57.53
C 115.12 56.44 115.04 54.30 115.50 52.23
C 116.54 47.63 117.27 46.60 119.50 46.60
C 123.45 46.60 122.89 55.25 118.75 58.00
C 116.91 59.21 116.58 59.17 115.71 57.53"/>
<path fill="#fefefe" stroke="none" d="
M 341.00 57.48
C 339.72 55.09 341.27 48.47 343.49 46.83
C 344.97 45.76 345.43 45.83 346.47 47.24
C 348.73 50.34 347.31 56.38 343.89 58.20
C 342.33 59.05 341.76 58.90 341.00 57.48"/>
<path fill="#474333" stroke="none" d="
M 361.30 247.01
C 357.29 244.12 353.73 241.75 353.38 241.75
C 352.77 241.75 345.14 236.94 339.93 233.29
C 338.60 232.36 332.92 229.26 327.30 226.40
C 321.69 223.54 316.95 220.80 316.78 220.31
C 316.59 219.82 315.64 219.42 314.65 219.42
C 313.65 219.42 312.55 218.95 312.20 218.39
C 311.85 217.82 310.63 216.95 309.47 216.45
C 308.33 215.95 306.51 215.03 305.44 214.41
C 301.60 212.18 300.50 211.60 294.76 208.78
C 291.55 207.19 287.18 204.96 285.05 203.82
C 282.91 202.67 280.07 201.20 278.73 200.55
C 275.59 199.03 273.11 197.77 269.51 195.86
C 267.91 195.02 264.19 193.15 261.25 191.69
C 258.32 190.24 255.69 188.79 255.43 188.47
C 255.16 188.14 251.01 185.97 246.20 183.65
C 241.39 181.33 236.37 178.80 235.03 178.03
C 233.69 177.26 230.21 175.45 227.30 173.99
C 220.89 170.81 219.27 169.99 214.45 167.48
C 212.39 166.41 203.62 161.88 194.95 157.43
C 173.59 146.45 166.62 142.61 166.24 141.61
C 166.06 141.16 165.10 140.78 164.12 140.78
C 163.13 140.78 161.73 140.17 161.00 139.45
C 160.27 138.72 156.20 136.26 151.94 133.98
C 147.70 131.71 142.34 128.59 140.05 127.06
C 137.75 125.52 135.61 124.27 135.29 124.27
C 134.25 124.27 121.45 110.26 120.87 108.50
C 120.56 107.56 119.99 106.80 119.61 106.80
C 118.41 106.80 115.73 100.65 114.71 95.54
C 112.49 84.51 118.04 77.60 135.54 69.58
C 140.30 67.40 150.30 65.17 160.42 64.06
C 176.62 62.26 208.76 66.17 210.92 70.20
C 211.47 71.25 213.74 73.92 215.96 76.16
C 218.17 78.39 221.50 82.14 223.38 84.48
C 225.25 86.82 228.66 90.94 230.96 93.64
C 238.07 101.98 238.92 103.06 238.92 103.79
C 238.92 104.17 240.23 105.75 241.83 107.28
C 243.43 108.82 244.74 110.43 244.74 110.86
C 244.74 111.29 245.43 112.42 246.27 113.35
C 248.15 115.46 253.59 122.94 255.06 125.45
C 255.66 126.47 257.30 128.50 258.70 129.97
C 260.11 131.44 261.25 133.12 261.25 133.71
C 261.25 134.30 261.58 134.93 261.99 135.12
C 262.40 135.29 264.26 137.67 266.12 140.41
C 286.80 170.77 314.33 202.26 337.98 222.60
C 343.58 227.43 349.49 232.62 351.09 234.15
C 352.69 235.68 357.71 240.40 362.26 244.64
C 366.80 248.88 370.08 252.34 369.54 252.32
C 369.01 252.29 365.30 249.91 361.30 247.01"/>
<path fill="#474333" stroke="none" d="
M 586.61 247.01
C 582.60 244.12 579.05 241.75 578.70 241.75
C 578.09 241.75 570.45 236.94 565.25 233.29
C 563.92 232.36 558.24 229.26 552.62 226.40
C 547.01 223.54 542.27 220.80 542.09 220.31
C 541.91 219.82 540.96 219.42 539.97 219.42
C 538.97 219.42 537.87 218.95 537.52 218.39
C 537.17 217.82 535.95 216.95 534.79 216.45
C 533.65 215.95 531.83 215.03 530.76 214.41
C 526.91 212.18 525.82 211.60 520.08 208.78
C 516.87 207.19 512.50 204.96 510.37 203.82
C 508.23 202.67 505.39 201.20 504.05 200.55
C 500.91 199.03 498.43 197.77 494.83 195.86
C 493.22 195.02 489.50 193.15 486.57 191.69
C 483.64 190.24 481.01 188.79 480.74 188.47
C 480.48 188.14 476.33 185.97 471.52 183.65
C 466.71 181.33 461.69 178.80 460.35 178.03
C 459.01 177.26 455.53 175.45 452.62 173.99
C 446.21 170.81 444.59 169.99 439.77 167.48
C 437.71 166.41 428.94 161.88 420.27 157.43
C 398.91 146.45 391.94 142.61 391.56 141.61
C 391.37 141.16 390.42 140.78 389.44 140.78
C 388.45 140.78 387.05 140.17 386.31 139.45
C 385.59 138.72 381.52 136.26 377.26 133.98
C 373.02 131.71 367.66 128.59 365.37 127.06
C 363.06 125.52 360.93 124.27 360.61 124.27
C 359.57 124.27 346.77 110.26 346.18 108.50
C 345.87 107.56 345.31 106.80 344.93 106.80
C 343.73 106.80 341.05 100.65 340.03 95.54
C 337.81 84.51 343.36 77.60 360.86 69.58
C 365.41 67.49 375.40 65.22 385.31 64.04
C 401.02 62.16 434.07 66.17 436.23 70.20
C 436.79 71.25 439.06 73.92 441.27 76.16
C 443.49 78.39 446.82 82.14 448.69 84.48
C 450.57 86.82 453.98 90.94 456.28 93.64
C 463.39 101.98 464.23 103.06 464.23 103.79
C 464.23 104.17 465.54 105.75 467.15 107.28
C 468.75 108.82 470.06 110.43 470.06 110.86
C 470.06 111.29 470.75 112.42 471.59 113.35
C 473.47 115.46 478.91 122.94 480.37 125.45
C 480.98 126.47 482.62 128.50 484.02 129.97
C 485.43 131.44 486.57 133.12 486.57 133.71
C 486.57 134.30 486.90 134.93 487.31 135.12
C 487.72 135.29 489.58 137.67 491.44 140.41
C 512.11 170.77 539.65 202.26 563.30 222.60
C 568.90 227.43 574.80 232.62 576.41 234.15
C 578.01 235.68 583.04 240.40 587.58 244.64
C 592.11 248.88 595.39 252.34 594.86 252.32
C 594.33 252.29 590.62 249.91 586.61 247.01"/>
<path fill="#ffa153" stroke="none" d="
M 54.75 353.89
C 51.48 353.18 46.32 351.43 43.28 349.99
C 37.00 347.02 25.43 338.13 20.44 332.46
L 17.10 328.64
L 23.26 328.35
C 28.67 328.09 29.72 328.34 31.94 330.43
C 40.18 338.14 52.24 344.07 62.16 345.29
C 70.35 346.31 86.62 339.80 95.57 331.92
L 99.85 328.16
L 109.41 328.19
L 118.97 328.23
L 115.09 331.68
C 109.61 336.52 95.04 345.40 86.44 349.12
C 79.66 352.06 66.43 355.44 62.44 355.26
C 61.49 355.22 58.02 354.60 54.75 353.89"/>
<path fill="#ffa153" stroke="none" d="
M 8.74 300.24
C 8.74 295.66 14.11 277.26 17.46 270.32
C 23.26 258.34 30.88 252.38 40.30 252.47
C 51.34 252.57 81.69 272.57 105.38 295.34
L 112.17 301.88
L 104.89 301.91
L 97.61 301.93
L 86.92 292.13
C 63.34 270.47 56.90 265.74 46.89 262.71
L 41.00 260.92
L 35.65 263.37
C 27.55 267.09 24.60 272.98 20.86 292.96
L 19.18 301.94
L 13.97 301.94
C 9.63 301.94 8.74 301.65 8.74 300.24"/>
<path fill="#524646" stroke="none" d="
M 134.03 301.03
C 134.82 300.56 137.23 299.85 139.37 299.45
C 142.91 298.79 143.14 298.86 141.92 300.33
C 141.07 301.37 139.15 301.93 136.58 301.91
C 133.81 301.89 133.02 301.62 134.03 301.03"/>
<path fill="#524646" stroke="none" d="
M 171.24 300.24
C 172.59 298.89 175.21 298.44 183.84 298.05
C 189.91 297.78 195.69 297.02 196.89 296.33
C 200.73 294.15 201.43 291.39 201.83 276.85
L 202.23 262.93
L 205.76 263.59
C 207.69 263.96 209.66 264.50 210.14 264.79
C 210.60 265.08 210.72 268.10 210.39 271.50
C 210.05 274.89 209.51 280.48 209.17 283.89
C 208.42 291.52 209.14 294.71 211.97 296.32
C 213.17 297.00 218.83 297.78 224.56 298.06
C 232.70 298.45 235.34 298.92 236.66 300.25
C 238.27 301.85 236.68 301.94 203.95 301.94
C 171.18 301.94 169.62 301.86 171.24 300.24"/>
<path fill="#524646" stroke="none" d="
M 359.34 301.03
C 360.14 300.56 362.55 299.85 364.69 299.45
C 368.23 298.79 368.45 298.86 367.24 300.33
C 366.39 301.37 364.47 301.93 361.90 301.91
C 359.13 301.89 358.33 301.62 359.34 301.03"/>
<path fill="#524646" stroke="none" d="
M 396.56 300.24
C 397.91 298.89 400.53 298.44 409.16 298.05
C 415.23 297.78 421.01 297.02 422.21 296.33
C 426.05 294.15 426.75 291.39 427.15 276.91
C 427.50 264.63 427.73 263.10 429.13 263.51
C 430.01 263.78 431.98 264.28 433.52 264.65
L 436.31 265.32
L 435.71 271.50
C 435.37 274.89 434.83 280.48 434.49 283.89
C 433.74 291.52 434.46 294.71 437.29 296.32
C 438.49 297.00 444.15 297.78 449.88 298.06
C 458.02 298.45 460.66 298.92 461.98 300.25
C 463.59 301.85 462.00 301.94 429.27 301.94
C 396.50 301.94 394.94 301.86 396.56 300.24"/>
<path fill="#524646" stroke="none" d="
M 160.25 294.30
C 160.25 293.76 160.68 293.06 161.19 292.74
C 162.77 291.76 165.74 280.64 167.09 270.60
C 167.79 265.38 168.83 260.74 169.41 260.28
C 170.89 259.10 176.82 260.18 177.42 261.76
C 177.70 262.48 176.73 267.12 175.27 272.07
C 173.82 277.02 172.19 283.41 171.66 286.26
C 170.82 290.79 170.31 291.61 167.66 292.70
C 162.37 294.86 160.25 295.32 160.25 294.30"/>
<path fill="#524646" stroke="none" d="
M 385.57 294.30
C 385.57 293.76 385.99 293.05 386.53 292.73
C 388.02 291.81 391.15 280.01 392.45 270.39
C 393.10 265.58 394.08 261.07 394.64 260.36
C 395.64 259.08 401.83 259.54 403.15 261.00
C 403.49 261.36 402.49 265.80 400.96 270.87
C 399.44 275.95 397.69 282.65 397.09 285.78
C 396.13 290.81 395.66 291.61 392.97 292.70
C 387.68 294.86 385.57 295.32 385.57 294.30"/>
<path fill="#c55436" stroke="none" d="
M 300.10 433.02
L 300.10 395.17
L 304.47 397.29
L 308.84 399.42
L 308.84 435.15
L 308.84 470.87
L 304.47 470.87
L 300.10 470.87
L 300.10 433.02"/>
<path fill="#c55436" stroke="none" d="
M 304.23 375.11
L 300.10 372.62
L 300.10 350.39
L 300.10 328.16
L 304.47 328.16
L 308.84 328.16
L 308.84 352.91
C 308.84 366.52 308.73 377.65 308.60 377.63
C 308.46 377.61 306.50 376.48 304.23 375.11"/>
<path fill="#c55436" stroke="none" d="
M 15.54 319.42
C 13.27 317.15 13.03 313.77 14.98 311.11
C 16.34 309.25 20.53 309.22 304.04 308.98
C 516.42 308.80 592.08 309.02 593.05 309.83
C 594.69 311.17 594.79 318.61 593.21 320.19
C 592.31 321.10 526.91 321.36 304.76 321.36
C 18.77 321.36 17.47 321.35 15.54 319.42"/>
<path fill="#ef907a" stroke="none" d="
M 338.48 398.92
C 308.59 394.56 276.04 378.08 251.95 355.09
C 242.68 346.24 230.17 331.29 230.17 329.07
C 230.17 328.56 232.56 328.16 235.49 328.16
L 240.81 328.16
L 247.18 336.83
C 267.03 363.86 305.45 387.62 340.81 394.72
C 346.60 395.88 351.87 396.22 358.78 395.90
C 367.67 395.50 368.28 395.57 365.41 396.76
C 362.04 398.16 350.76 400.03 346.72 399.86
C 345.38 399.81 341.68 399.38 338.48 398.92"/>
<path fill="#ef907a" stroke="none" d="
M 375.73 360.36
C 372.01 353.72 364.98 344.67 356.70 335.88
L 349.43 328.16
L 354.87 328.16
C 360.11 328.16 360.40 328.30 363.17 332.12
C 368.35 339.26 379.86 363.32 378.66 364.50
C 378.45 364.72 377.14 362.85 375.73 360.36"/>
<path fill="#0885ff" stroke="none" d="
M 5.83 594.17
C 3.93 592.28 3.88 590.94 3.88 535.62
C 3.88 488.26 4.11 478.71 5.26 477.13
C 6.62 475.27 10.91 475.24 302.93 475.00
C 598.33 474.75 599.23 474.76 601.17 476.70
C 603.08 478.60 603.12 479.89 603.12 535.44
C 603.12 590.94 603.07 592.28 601.17 594.17
C 599.24 596.11 597.94 596.12 303.50 596.12
C 9.06 596.12 7.76 596.11 5.83 594.17
M 54.39 563.59
L 54.39 539.81
L 30.59 539.81
L 6.80 539.81
L 6.80 563.59
L 6.80 587.38
L 30.59 587.38
L 54.39 587.38
L 54.39 563.59
M 114.60 563.59
L 114.60 539.81
L 88.86 539.81
L 63.13 539.81
L 63.13 563.59
L 63.13 587.38
L 88.86 587.38
L 114.60 587.38
L 114.60 563.59
M 176.76 563.59
L 176.76 539.81
L 150.05 539.81
L 123.34 539.81
L 123.34 563.59
L 123.34 587.38
L 150.05 587.38
L 176.76 587.38
L 176.76 563.59
M 237.94 563.59
L 237.94 539.81
L 211.72 539.81
L 185.50 539.81
L 185.50 563.59
L 185.50 587.38
L 211.72 587.38
L 237.94 587.38
L 237.94 563.59
M 300.10 563.59
L 300.10 539.81
L 273.39 539.81
L 246.68 539.81
L 246.68 563.59
L 246.68 587.38
L 273.39 587.38
L 300.10 587.38
L 300.10 563.59
M 360.32 563.59
L 360.32 539.81
L 334.58 539.81
L 308.84 539.81
L 308.84 563.59
L 308.84 587.38
L 334.58 587.38
L 360.32 587.38
L 360.32 563.59
M 421.50 563.59
L 421.50 539.81
L 395.28 539.81
L 369.06 539.81
L 369.06 563.59
L 369.06 587.38
L 395.28 587.38
L 421.50 587.38
L 421.50 563.59
M 483.66 563.59
L 483.66 539.81
L 456.95 539.81
L 430.24 539.81
L 430.24 563.59
L 430.24 587.38
L 456.95 587.38
L 483.66 587.38
L 483.66 563.59
M 543.87 563.59
L 543.87 539.81
L 518.14 539.81
L 492.40 539.81
L 492.40 563.59
L 492.40 587.38
L 518.14 587.38
L 543.87 587.38
L 543.87 563.59
M 600.20 563.59
L 600.20 539.81
L 576.41 539.81
L 552.61 539.81
L 552.61 563.59
L 552.61 587.38
L 576.41 587.38
L 600.20 587.38
L 600.20 563.59
M 54.39 507.28
L 54.39 483.50
L 30.59 483.50
L 6.80 483.50
L 6.80 507.28
L 6.80 531.07
L 30.59 531.07
L 54.39 531.07
L 54.39 507.28
M 114.60 507.28
L 114.60 483.50
L 88.86 483.50
L 63.13 483.50
L 63.13 507.28
L 63.13 531.07
L 88.86 531.07
L 114.60 531.07
L 114.60 507.28
M 176.76 507.28
L 176.76 483.50
L 150.05 483.50
L 123.34 483.50
L 123.34 507.28
L 123.34 531.07
L 150.05 531.07
L 176.76 531.07
L 176.76 507.28
M 237.94 507.28
L 237.94 483.50
L 211.72 483.50
L 185.50 483.50
L 185.50 507.28
L 185.50 531.07
L 211.72 531.07
L 237.94 531.07
L 237.94 507.28
M 300.10 507.28
L 300.10 483.50
L 273.39 483.50
L 246.68 483.50
L 246.68 507.28
L 246.68 531.07
L 273.39 531.07
L 300.10 531.07
L 300.10 507.28
M 360.32 507.28
L 360.32 483.50
L 334.58 483.50
L 308.84 483.50
L 308.84 507.28
L 308.84 531.07
L 334.58 531.07
L 360.32 531.07
L 360.32 507.28
M 421.50 507.28
L 421.50 483.50
L 395.28 483.50
L 369.06 483.50
L 369.06 507.28
L 369.06 531.07
L 395.28 531.07
L 421.50 531.07
L 421.50 507.28
M 483.66 507.28
L 483.66 483.50
L 456.95 483.50
L 430.24 483.50
L 430.24 507.28
L 430.24 531.07
L 456.95 531.07
L 483.66 531.07
L 483.66 507.28
M 543.87 507.28
L 543.87 483.50
L 518.14 483.50
L 492.40 483.50
L 492.40 507.28
L 492.40 531.07
L 518.14 531.07
L 543.87 531.07
L 543.87 507.28
M 600.20 507.28
L 600.20 483.50
L 576.41 483.50
L 552.61 483.50
L 552.61 507.28
L 552.61 531.07
L 576.41 531.07
L 600.20 531.07
L 600.20 507.28"/>
<path fill="#c57a36" stroke="none" d="
M 10.68 563.59
L 10.68 543.69
L 30.59 543.69
L 50.50 543.69
L 50.50 563.59
L 50.50 583.50
L 30.59 583.50
L 10.68 583.50
L 10.68 563.59"/>
<path fill="#c57a36" stroke="none" d="
M 67.01 563.59
L 67.01 543.69
L 88.86 543.69
L 110.72 543.69
L 110.72 563.59
L 110.72 583.50
L 88.86 583.50
L 67.01 583.50
L 67.01 563.59"/>
<path fill="#c57a36" stroke="none" d="
M 127.23 563.59
L 127.23 543.69
L 150.05 543.69
L 172.87 543.69
L 172.87 563.59
L 172.87 583.50
L 150.05 583.50
L 127.23 583.50
L 127.23 563.59"/>
<path fill="#c57a36" stroke="none" d="
M 189.38 563.59
L 189.38 543.69
L 211.72 543.69
L 234.06 543.69
L 234.06 563.59
L 234.06 583.50
L 211.72 583.50
L 189.38 583.50
L 189.38 563.59"/>
<path fill="#c57a36" stroke="none" d="
M 250.57 563.59
L 250.57 543.69
L 273.39 543.69
L 296.22 543.69
L 296.22 563.59
L 296.22 583.50
L 273.39 583.50
L 250.57 583.50
L 250.57 563.59"/>
<path fill="#c57a36" stroke="none" d="
M 312.73 563.59
L 312.73 543.69
L 334.58 543.69
L 356.43 543.69
L 356.43 563.59
L 356.43 583.50
L 334.58 583.50
L 312.73 583.50
L 312.73 563.59"/>
<path fill="#c57a36" stroke="none" d="
M 372.94 563.59
L 372.94 543.69
L 395.28 543.69
L 417.62 543.69
L 417.62 563.59
L 417.62 583.50
L 395.28 583.50
L 372.94 583.50
L 372.94 563.59"/>
<path fill="#c57a36" stroke="none" d="
M 434.13 563.59
L 434.13 543.69
L 456.95 543.69
L 479.77 543.69
L 479.77 563.59
L 479.77 583.50
L 456.95 583.50
L 434.13 583.50
L 434.13 563.59"/>
<path fill="#c57a36" stroke="none" d="
M 496.28 563.59
L 496.28 543.69
L 518.14 543.69
L 539.99 543.69
L 539.99 563.59
L 539.99 583.50
L 518.14 583.50
L 496.28 583.50
L 496.28 563.59"/>
<path fill="#c57a36" stroke="none" d="
M 556.50 563.59
L 556.50 543.69
L 576.41 543.69
L 596.32 543.69
L 596.32 563.59
L 596.32 583.50
L 576.41 583.50
L 556.50 583.50
L 556.50 563.59"/>
<path fill="#c57a36" stroke="none" d="
M 10.91 507.52
L 11.17 487.86
L 30.84 487.60
L 50.50 487.34
L 50.50 507.26
L 50.50 527.18
L 30.57 527.18
L 10.64 527.18
L 10.91 507.52"/>
<path fill="#c57a36" stroke="none" d="
M 67.01 507.28
L 67.01 487.38
L 88.86 487.38
L 110.72 487.38
L 110.72 507.28
L 110.72 527.18
L 88.86 527.18
L 67.01 527.18
L 67.01 507.28"/>
<path fill="#c57a36" stroke="none" d="
M 127.23 507.28
L 127.23 487.38
L 150.05 487.38
L 172.87 487.38
L 172.87 507.28
L 172.87 527.18
L 150.05 527.18
L 127.23 527.18
L 127.23 507.28"/>
<path fill="#c57a36" stroke="none" d="
M 189.38 507.28
L 189.38 487.38
L 211.72 487.38
L 234.06 487.38
L 234.06 507.28
L 234.06 527.18
L 211.72 527.18
L 189.38 527.18
L 189.38 507.28"/>
<path fill="#c57a36" stroke="none" d="
M 250.57 507.28
L 250.57 487.38
L 273.39 487.38
L 296.22 487.38
L 296.22 507.28
L 296.22 527.18
L 273.39 527.18
L 250.57 527.18
L 250.57 507.28"/>
<path fill="#c57a36" stroke="none" d="
M 312.73 507.28
L 312.73 487.38
L 334.58 487.38
L 356.43 487.38
L 356.43 507.28
L 356.43 527.18
L 334.58 527.18
L 312.73 527.18
L 312.73 507.28"/>
<path fill="#c57a36" stroke="none" d="
M 372.94 507.28
L 372.94 487.38
L 395.28 487.38
L 417.62 487.38
L 417.62 507.28
L 417.62 527.18
L 395.28 527.18
L 372.94 527.18
L 372.94 507.28"/>
<path fill="#c57a36" stroke="none" d="
M 434.13 507.28
L 434.13 487.38
L 456.95 487.38
L 479.77 487.38
L 479.77 507.28
L 479.77 527.18
L 456.95 527.18
L 434.13 527.18
L 434.13 507.28"/>
<path fill="#c57a36" stroke="none" d="
M 496.28 507.28
L 496.28 487.38
L 518.14 487.38
L 539.99 487.38
L 539.99 507.28
L 539.99 527.18
L 518.14 527.18
L 496.28 527.18
L 496.28 507.28"/>
<path fill="#c57a36" stroke="none" d="
M 556.50 507.28
L 556.50 487.38
L 576.41 487.38
L 596.32 487.38
L 596.32 507.28
L 596.32 527.18
L 576.41 527.18
L 556.50 527.18
L 556.50 507.28"/>
</g>
</svg>
