<?xml version="1.0" encoding="UTF-8" standalone="no"?>
<!DOCTYPE svg PUBLIC "-//W3C//DTD SVG 1.1//EN"
"http://www.w3.org/Graphics/SVG/1.1/DTD/svg11.dtd">
<svg width="634px" height="600px"
xmlns="http://www.w3.org/2000/svg" version="1.1">
<g transform="translate(0000, 0000) scale(1.0000, 1.0000)">
<path fill="#000000" stroke="none" d="
M 2.58 597.42
C 0.01 594.85 0.00 593.12 0.00 300.25
C 0.00 47.86 0.26 5.29 1.83 3.15
C 3.64 0.68 8.51 0.65 316.24 0.31
C 627.63 -0.01 628.84 0.00 631.40 2.57
C 633.99 5.15 634.00 6.58 634.00 300.00
C 634.00 593.12 633.99 594.85 631.42 597.42
C 628.85 599.99 627.12 600.00 317.00 600.00
C 6.88 600.00 5.15 599.99 2.58 597.42
M 624.70 590.71
C 626.96 588.45 626.96 11.55 624.70 9.29
C 622.44 7.03 11.56 7.03 9.30 9.29
C 7.04 11.55 7.04 588.45 9.30 590.71
C 11.56 592.97 622.44 592.97 624.70 590.71"/>
<path fill="#000000" stroke="none" d="
M 33.57 569.03
C 31.00 566.46 30.99 564.74 30.99 299.35
C 30.99 33.97 31.00 32.25 33.57 29.68
C 36.13 27.12 37.87 27.10 244.04 27.10
C 450.22 27.10 451.96 27.12 454.52 29.68
C 457.02 32.18 457.10 33.97 457.10 93.29
C 457.10 139.05 457.49 154.71 458.65 155.87
C 459.81 157.03 477.50 157.42 530.31 157.42
C 598.71 157.42 600.49 157.48 603.01 160.00
C 605.57 162.55 605.59 164.30 605.59 364.52
C 605.59 564.74 605.57 566.48 603.01 569.03
C 600.44 571.60 598.71 571.61 318.29 571.61
C 37.87 571.61 36.14 571.60 33.57 569.03
M 596.30 562.32
C 598.54 560.08 598.54 167.66 596.30 165.42
C 595.13 164.26 577.44 163.87 524.63 163.87
C 456.23 163.87 454.45 163.81 451.93 161.29
C 449.43 158.79 449.35 156.99 449.35 98.32
C 449.35 53.07 448.96 37.55 447.80 36.39
C 445.56 34.14 42.53 34.14 40.29 36.39
C 38.03 38.65 38.03 560.06 40.29 562.32
C 42.55 564.58 594.04 564.58 596.30 562.32"/>
<path fill="#000000" stroke="none" d="
M 479.05 134.19
C 476.56 131.70 476.47 129.90 476.47 81.94
C 476.47 33.97 476.56 32.17 479.05 29.68
C 481.56 27.17 483.35 27.10 540.38 27.10
C 597.42 27.10 599.21 27.17 601.72 29.68
C 604.21 32.17 604.30 33.97 604.30 81.94
C 604.30 129.90 604.21 131.70 601.72 134.19
C 599.21 136.70 597.42 136.77 540.38 136.77
C 483.35 136.77 481.56 136.70 479.05 134.19
M 595.00 127.48
C 597.23 125.26 597.23 38.61 595.00 36.39
C 592.78 34.17 487.99 34.17 485.77 36.39
C 483.54 38.61 483.54 125.26 485.77 127.48
C 487.99 129.70 592.78 129.70 595.00 127.48"/>
<path fill="#000000" stroke="none" d="
M 116.32 558.19
C 112.25 553.29 118.96 543.85 127.83 542.00
C 131.02 541.33 135.97 540.19 138.81 539.47
C 146.87 537.43 173.99 533.07 184.00 532.22
C 196.84 531.12 203.11 528.54 205.23 523.47
C 210.63 510.58 211.22 507.70 214.46 478.71
C 215.64 468.30 215.44 463.26 213.18 445.35
C 211.71 433.75 209.04 418.95 207.22 412.45
C 201.05 390.35 196.08 374.85 193.03 368.22
C 189.68 360.93 184.76 346.80 181.41 334.84
C 180.21 330.58 178.77 326.81 178.22 326.45
C 177.30 325.86 166.53 312.80 159.75 304.05
C 158.18 302.03 155.14 298.15 153.01 295.46
C 150.88 292.76 147.10 287.60 144.62 283.97
C 142.14 280.36 138.50 275.29 136.55 272.72
C 134.60 270.14 133.00 267.56 133.00 266.98
C 133.00 266.41 131.25 263.35 129.12 260.21
C 126.99 257.05 125.25 254.08 125.25 253.59
C 125.25 253.11 123.65 250.00 121.70 246.68
C 112.83 231.61 110.97 222.74 109.82 189.68
C 108.65 156.19 107.11 149.35 97.71 135.88
C 93.87 130.39 86.84 126.45 80.84 126.45
C 76.70 126.45 71.92 130.48 67.87 137.42
C 63.94 144.09 61.51 144.71 58.93 139.68
C 52.88 127.94 53.15 117.75 59.77 107.60
C 64.05 101.05 80.48 84.40 83.93 83.14
C 85.00 82.75 87.91 79.87 90.39 76.75
C 101.72 62.48 110.84 52.90 113.09 52.90
C 113.87 52.90 116.41 51.96 118.70 50.81
C 128.01 46.18 167.68 42.62 183.18 45.05
C 198.90 47.48 208.11 52.13 219.03 63.14
C 224.26 68.40 228.55 73.25 228.55 73.91
C 228.55 74.57 230.18 77.23 232.18 79.82
C 234.17 82.40 238.67 90.32 242.19 97.42
C 248.56 110.34 258.53 122.58 262.65 122.58
C 263.72 122.58 267.55 124.32 271.16 126.45
C 274.78 128.58 278.16 130.32 278.69 130.32
C 280.72 130.32 289.26 138.10 306.33 155.48
C 316.10 165.42 325.54 175.02 327.32 176.83
C 329.10 178.62 330.56 180.59 330.56 181.19
C 330.56 181.79 331.86 183.55 333.46 185.11
C 336.99 188.53 344.34 197.57 348.36 203.45
C 349.98 205.81 351.88 207.74 352.56 207.74
C 353.25 207.74 353.80 208.48 353.80 209.39
C 353.80 210.30 355.54 212.94 357.67 215.28
C 359.80 217.61 361.55 219.97 361.55 220.54
C 361.55 221.10 362.85 223.01 364.45 224.79
C 366.05 226.57 369.68 231.37 372.52 235.47
C 375.36 239.56 379.29 244.80 381.24 247.11
C 383.19 249.42 384.79 251.66 384.79 252.09
C 384.79 252.53 386.68 255.41 388.99 258.49
C 391.30 261.57 394.93 266.57 397.06 269.59
C 399.19 272.61 402.53 276.99 404.48 279.33
C 406.43 281.66 408.03 284.17 408.03 284.90
C 408.03 285.64 408.52 286.43 409.13 286.67
C 409.72 286.90 412.46 290.28 415.22 294.19
C 417.98 298.10 420.97 301.75 421.87 302.32
C 422.78 302.89 423.53 304.09 423.53 304.98
C 423.53 305.88 425.27 308.28 427.40 310.32
C 429.53 312.36 431.27 314.79 431.27 315.73
C 431.27 316.66 431.75 317.42 432.35 317.42
C 432.94 317.42 435.21 319.88 437.41 322.90
C 441.93 329.10 447.67 335.86 452.52 340.70
C 454.32 342.49 455.81 344.43 455.81 344.97
C 455.81 345.52 457.69 347.87 460.01 350.18
C 462.32 352.49 471.59 361.88 480.63 371.06
C 489.66 380.23 500.94 391.23 505.68 395.48
C 510.42 399.74 516.07 405.11 518.21 407.42
C 520.37 409.73 522.90 411.61 523.83 411.61
C 524.77 411.61 525.54 412.12 525.54 412.74
C 525.54 413.35 532.95 420.15 542.00 427.83
C 567.71 449.66 574.77 458.52 572.80 466.40
C 571.67 470.88 567.51 474.84 563.95 474.84
C 561.52 474.84 551.12 468.95 536.56 459.35
C 533.83 457.55 517.57 447.41 512.78 444.52
C 511.59 443.81 508.90 442.00 506.79 440.49
C 504.67 438.99 500.99 436.77 498.61 435.56
L 494.27 433.34
L 496.68 437.46
C 497.99 439.73 499.79 441.87 500.68 442.22
C 501.57 442.57 502.29 443.64 502.29 444.59
C 502.29 445.54 503.80 447.95 505.66 449.94
C 507.52 451.92 509.55 454.71 510.18 456.13
C 510.82 457.55 513.68 461.91 516.55 465.81
C 519.42 469.70 522.75 474.35 523.96 476.13
C 525.16 477.91 529.50 483.91 533.59 489.47
C 539.75 497.85 541.03 500.48 541.03 504.80
C 541.03 509.12 540.23 510.77 536.34 514.44
C 533.76 516.86 529.18 520.03 526.14 521.45
C 523.11 522.88 519.60 525.16 518.36 526.53
C 517.12 527.91 515.26 529.03 514.24 529.03
C 513.22 529.03 510.84 530.23 508.96 531.70
C 507.07 533.17 502.65 536.23 499.16 538.48
C 495.66 540.74 491.92 543.16 490.87 543.87
C 460.04 564.40 460.84 564.53 447.45 536.97
C 445.62 533.17 442.68 527.96 440.92 525.38
C 439.16 522.80 437.73 519.87 437.73 518.88
C 437.73 517.87 435.99 514.23 433.86 510.77
C 431.73 507.30 429.98 503.82 429.98 503.03
C 429.98 502.23 428.24 498.75 426.11 495.29
C 423.98 491.82 422.24 488.06 422.24 486.94
C 422.24 485.82 420.49 482.31 418.36 479.15
C 416.23 476.00 414.49 472.84 414.49 472.13
C 414.49 470.53 405.17 454.72 401.63 450.32
C 400.19 448.54 399.02 446.66 399.01 446.12
C 398.99 445.12 395.88 441.33 386.73 431.19
C 380.63 424.43 369.35 416.48 357.67 410.71
C 350.02 406.93 349.14 406.75 347.67 408.68
C 346.45 410.28 346.05 421.28 346.05 453.15
C 346.05 493.77 345.95 495.59 343.47 498.06
C 339.71 501.82 335.80 501.26 327.21 495.77
C 323.02 493.08 316.96 489.88 313.77 488.65
C 308.30 486.53 307.87 486.53 306.35 488.61
C 305.46 489.82 304.73 492.86 304.73 495.38
C 304.73 497.88 303.78 504.37 302.62 509.79
C 300.21 520.95 300.92 526.04 305.09 527.65
C 306.67 528.27 314.99 529.39 323.56 530.17
C 341.34 531.75 354.67 535.38 358.53 539.65
C 362.79 544.37 367.14 553.17 366.29 555.37
C 365.73 556.83 363.77 557.41 359.33 557.39
C 355.93 557.39 348.25 557.74 342.26 558.15
C 336.25 558.58 323.74 558.28 314.43 557.51
C 300.65 556.36 293.07 556.49 273.68 558.18
C 258.57 559.50 244.19 559.97 234.36 559.50
C 225.84 559.08 217.99 558.76 216.93 558.79
C 215.87 558.81 193.17 559.15 166.49 559.52
C 123.46 560.14 117.81 559.99 116.32 558.19
M 127.83 550.97
C 127.83 549.55 127.56 548.39 127.24 548.39
C 126.90 548.39 126.01 549.55 125.25 550.97
C 124.15 553.03 124.27 553.55 125.84 553.55
C 126.97 553.55 127.83 552.43 127.83 550.97
M 271.16 551.08
C 285.00 550.48 306.45 550.28 318.81 550.66
L 341.29 551.34
L 340.49 546.40
C 339.20 538.46 337.96 537.92 318.77 536.90
C 309.28 536.40 300.20 535.28 298.61 534.41
C 294.73 532.28 293.87 528.04 294.97 516.31
C 295.49 510.89 296.29 501.52 296.77 495.48
C 297.26 489.45 298.07 483.86 298.57 483.07
C 299.65 481.43 293.18 480.04 284.40 480.01
L 278.91 480.00
L 278.91 499.12
C 278.91 532.41 276.56 535.73 251.79 537.30
C 244.33 537.78 235.19 538.76 231.46 539.50
C 225.58 540.65 224.68 541.23 224.68 543.86
C 224.68 545.52 224.35 547.74 223.95 548.77
C 222.93 551.41 231.29 553.56 239.53 552.79
C 243.08 552.45 257.32 551.68 271.16 551.08
M 139.20 550.71
C 141.07 548.84 141.21 547.10 139.51 547.10
C 138.81 547.10 137.63 548.26 136.87 549.68
C 135.35 552.52 136.76 553.15 139.20 550.71
M 153.66 548.39
C 153.66 543.65 151.46 543.33 149.76 547.83
C 148.08 552.22 148.09 552.26 151.08 552.26
C 153.09 552.26 153.66 551.39 153.66 548.39
M 180.01 549.02
C 180.50 547.06 183.24 544.23 186.93 541.87
L 193.04 537.96
L 187.23 538.61
C 184.04 538.95 178.28 539.59 174.43 540.01
C 164.43 541.12 160.11 543.65 160.11 548.43
L 160.11 552.26
L 169.66 552.26
C 178.77 552.26 179.24 552.12 180.01 549.02
M 204.66 548.39
C 206.66 544.53 206.65 544.52 203.00 544.52
C 200.61 544.52 198.04 545.87 195.62 548.39
L 191.92 552.26
L 197.29 552.26
C 201.95 552.26 202.92 551.74 204.66 548.39
M 216.89 547.42
C 216.85 544.03 216.76 543.97 214.95 546.37
C 212.54 549.56 212.55 550.97 214.99 550.97
C 216.26 550.97 216.92 549.73 216.89 547.42
M 353.06 549.82
C 355.47 548.86 355.45 548.75 352.74 546.04
C 349.46 542.76 346.72 542.32 347.85 545.26
C 348.29 546.39 348.64 548.13 348.64 549.14
C 348.64 551.15 349.36 551.26 353.06 549.82
M 469.59 547.99
C 471.60 546.35 476.00 543.30 479.37 541.21
C 482.74 539.12 485.51 536.98 485.51 536.45
C 485.51 535.92 486.14 535.48 486.93 535.48
C 487.70 535.48 493.37 532.15 499.52 528.09
C 511.24 520.35 513.44 519.01 524.18 513.17
C 532.78 508.50 534.79 504.46 530.91 499.64
C 529.34 497.70 526.32 493.81 524.18 490.97
C 522.04 488.13 519.43 484.79 518.40 483.54
C 517.35 482.28 516.50 480.83 516.50 480.31
C 516.50 479.78 514.75 477.33 512.62 474.84
C 510.49 472.35 508.75 469.60 508.75 468.71
C 508.75 467.82 508.30 467.10 507.73 467.10
C 507.17 467.10 504.81 463.96 502.49 460.13
C 500.16 456.30 497.13 452.14 495.76 450.89
C 494.38 449.65 493.25 448.08 493.25 447.41
C 493.25 446.74 491.82 444.48 490.07 442.39
C 488.31 440.30 486.24 436.30 485.49 433.48
C 484.73 430.68 483.34 428.39 482.38 428.39
C 481.44 428.39 479.94 427.52 479.06 426.48
C 478.20 425.42 474.20 422.74 470.19 420.50
C 466.19 418.27 460.30 414.99 457.10 413.21
C 450.60 409.61 434.34 400.95 430.53 399.08
C 429.16 398.41 425.44 396.49 422.24 394.83
C 416.71 391.94 411.45 389.29 406.37 386.83
C 405.09 386.22 400.72 383.94 396.68 381.75
C 392.63 379.59 387.13 376.71 384.47 375.35
C 381.81 374.01 377.44 371.79 374.78 370.45
C 372.12 369.10 366.62 366.22 362.57 364.05
C 358.53 361.87 354.16 359.59 352.88 358.98
C 351.62 358.36 348.55 356.83 346.05 355.59
C 343.56 354.34 340.09 352.59 338.31 351.72
C 330.36 347.81 320.15 342.58 315.06 339.82
C 313.28 338.85 301.80 332.98 289.55 326.77
C 263.61 313.64 254.83 309.08 236.30 299.14
C 228.83 295.14 219.25 290.00 214.99 287.72
C 210.73 285.45 206.33 282.77 205.20 281.79
C 204.08 280.80 202.23 280.00 201.10 280.00
C 199.96 280.00 198.22 279.19 197.22 278.19
C 196.24 277.20 191.98 274.55 187.77 272.31
C 183.58 270.06 177.80 266.83 174.96 265.11
C 172.12 263.39 168.49 261.30 166.89 260.46
C 165.29 259.63 163.99 258.45 163.99 257.86
C 163.99 257.26 163.26 256.77 162.39 256.77
C 161.51 256.77 159.13 255.17 157.11 253.23
C 142.31 238.98 136.72 231.86 129.67 218.28
C 124.84 208.99 124.76 208.61 124.76 194.36
L 124.76 179.90
L 129.63 172.55
C 134.30 165.52 148.92 153.55 152.83 153.55
C 153.74 153.55 156.76 152.45 159.55 151.11
C 165.43 148.28 168.92 147.29 191.75 142.03
C 213.96 136.89 234.10 134.98 255.67 135.97
L 273.10 136.77
L 268.88 134.19
C 266.55 132.77 263.65 131.59 262.42 131.57
C 261.19 131.55 256.75 129.07 252.57 126.09
C 244.87 120.59 242.95 117.66 228.27 89.03
C 226.11 84.81 216.81 72.37 212.18 67.50
C 200.37 55.07 181.66 50.18 155.59 52.71
C 147.07 53.54 137.78 54.22 134.93 54.22
C 125.61 54.23 108.86 64.86 103.74 74.01
C 103.03 75.29 99.34 79.48 95.55 83.34
L 88.66 90.37
L 92.29 94.15
C 94.29 96.25 96.62 100.70 97.48 104.05
C 98.93 109.82 99.39 110.28 105.51 112.36
C 109.07 113.57 112.73 114.10 113.63 113.55
C 116.06 112.05 114.31 106.90 109.78 102.17
C 104.42 96.57 104.32 89.11 109.51 83.91
C 120.21 73.21 155.26 77.46 167.72 90.95
C 175.23 99.11 177.71 113.41 173.66 125.25
C 171.75 130.80 163.83 140.65 161.26 140.65
C 160.57 140.65 155.54 142.72 150.11 145.28
C 143.34 148.44 138.90 149.74 136.05 149.41
C 132.69 149.02 131.62 149.51 130.53 151.88
C 129.51 154.12 128.12 154.84 124.79 154.84
C 119.44 154.84 119.03 154.32 113.51 140.90
C 110.81 134.32 107.15 128.10 104.05 124.80
C 97.66 118.01 96.33 120.55 102.36 128.05
C 107.96 135.01 110.25 139.48 112.75 148.39
C 115.50 158.13 116.01 162.97 117.57 194.84
L 118.94 222.58
L 125.91 236.77
C 129.74 244.58 134.93 254.06 137.45 257.86
C 139.97 261.64 142.04 265.12 142.04 265.60
C 142.04 266.06 143.78 268.48 145.91 270.97
C 148.04 273.46 149.78 276.17 149.78 276.99
C 149.78 277.82 150.22 278.68 150.77 278.93
C 151.31 279.16 153.99 282.50 156.74 286.36
C 162.66 294.66 162.80 294.85 167.75 300.65
C 172.23 305.88 186.51 323.06 188.86 326.03
C 189.74 327.15 192.06 329.66 194.01 331.64
C 195.96 333.61 197.56 335.83 197.56 336.55
C 197.56 337.29 199.30 339.14 201.43 340.65
C 203.56 342.15 205.31 344.00 205.31 344.74
C 205.31 345.46 206.91 347.70 208.86 349.70
C 213.27 354.22 214.45 355.60 224.75 368.39
C 229.32 374.06 233.79 379.17 234.68 379.74
C 235.57 380.31 236.30 381.47 236.30 382.32
C 236.30 383.17 238.04 385.52 240.17 387.54
C 242.30 389.55 244.04 391.97 244.04 392.95
C 244.04 393.92 244.83 395.17 245.80 395.74
C 247.82 396.93 259.54 413.78 259.54 415.50
C 259.54 416.13 261.28 419.23 263.41 422.37
C 265.54 425.54 267.29 428.71 267.29 429.43
C 267.29 430.17 268.75 433.66 270.54 437.23
C 273.32 442.76 275.60 452.49 278.34 470.46
C 278.95 474.44 279.04 474.48 288.30 475.19
C 296.80 475.85 312.33 479.33 320.41 482.40
C 322.18 483.07 326.44 485.41 329.86 487.57
C 333.30 489.75 336.60 491.23 337.21 490.85
C 337.81 490.48 338.31 470.72 338.31 446.97
L 338.31 403.75
L 341.47 400.58
C 345.67 396.40 347.80 396.57 359.11 401.99
C 373.56 408.92 382.81 414.92 389.83 421.92
C 396.81 428.90 408.03 443.02 408.03 444.83
C 408.03 445.45 409.14 447.16 410.51 448.62
C 411.87 450.08 414.54 454.36 416.45 458.13
C 418.36 461.90 420.74 465.78 421.73 466.77
C 422.71 467.77 423.53 469.39 423.53 470.40
C 423.53 471.39 425.27 475.05 427.40 478.52
C 429.53 481.97 431.27 485.46 431.27 486.25
C 431.27 487.05 437.32 499.47 444.70 513.85
C 460.93 545.46 463.94 550.94 465.07 550.95
C 465.54 550.97 467.58 549.63 469.59 547.99
M 222.29 534.27
L 229.58 532.77
L 232.37 520.26
C 237.46 497.41 242.55 478.58 244.17 476.62
C 245.59 474.90 239.05 473.59 229.03 473.56
C 221.27 473.55 220.84 474.27 220.83 487.74
C 220.82 500.25 213.60 528.18 209.16 532.93
C 205.79 536.53 205.76 536.66 208.41 537.10
C 209.89 537.35 212.00 537.16 213.05 536.67
C 214.11 536.17 218.27 535.10 222.29 534.27
M 261.13 528.44
C 269.46 525.99 271.50 521.55 272.21 504.32
C 272.76 491.01 272.66 490.32 270.21 490.32
C 268.80 490.32 266.25 489.24 264.55 487.92
C 258.34 483.08 253.04 481.01 251.07 482.65
C 249.11 484.27 244.04 499.81 244.04 504.19
C 244.04 505.64 242.93 510.52 241.58 515.02
C 240.21 519.54 238.70 525.17 238.21 527.56
L 237.32 531.90
L 246.47 530.98
C 251.50 530.48 258.09 529.34 261.13 528.44
M 271.86 473.87
C 270.27 460.63 265.08 443.47 259.33 432.53
C 251.28 417.15 250.27 415.41 246.06 409.68
C 243.97 406.84 239.94 401.32 237.09 397.42
C 234.24 393.52 231.08 389.61 230.06 388.76
C 229.03 387.90 227.54 386.06 226.76 384.68
C 225.23 382.01 204.02 356.32 199.20 351.32
C 197.62 349.68 195.69 347.14 194.90 345.66
C 194.11 344.21 193.18 343.30 192.81 343.66
C 192.10 344.39 197.03 357.61 202.17 368.75
C 203.90 372.49 205.31 376.49 205.31 377.64
C 205.31 378.77 207.00 385.01 209.07 391.47
C 215.20 410.71 220.80 437.37 220.80 447.34
C 220.80 452.34 221.18 459.11 221.63 462.40
L 222.44 468.39
L 230.99 468.41
C 239.81 468.44 254.50 472.74 265.35 478.45
C 268.19 479.95 271.02 481.20 271.64 481.24
C 272.25 481.26 272.35 477.95 271.86 473.87
M 564.65 464.99
C 567.02 462.62 558.17 452.86 538.45 436.13
C 526.70 426.17 522.69 422.57 517.26 417.10
C 514.96 414.79 512.74 412.90 512.33 412.90
C 509.19 412.90 446.77 350.14 446.77 346.98
C 446.77 346.44 445.28 344.83 443.46 343.39
C 441.64 341.96 438.88 339.06 437.33 336.93
C 429.64 326.39 417.68 311.50 416.18 310.58
C 415.25 310.01 414.49 308.93 414.49 308.18
C 414.49 307.42 412.99 304.98 411.16 302.76
C 404.93 295.19 391.25 276.00 391.25 274.84
C 391.25 274.19 390.46 273.21 389.50 272.65
C 388.55 272.08 385.55 268.27 382.87 264.19
C 380.17 260.12 377.47 256.77 376.86 256.77
C 376.26 256.77 375.75 256.04 375.75 255.12
C 375.75 254.22 374.01 251.57 371.88 249.24
C 369.75 246.90 368.00 244.17 368.00 243.15
C 368.00 242.13 367.47 241.29 366.84 241.29
C 366.20 241.29 363.55 238.25 360.97 234.52
C 352.99 223.03 349.86 218.81 347.25 216.05
C 345.89 214.58 344.76 212.90 344.76 212.32
C 344.76 211.74 343.46 209.99 341.86 208.41
C 340.26 206.84 336.08 201.85 332.59 197.30
C 325.30 187.86 322.58 184.70 316.68 178.83
C 314.37 176.53 312.48 174.28 312.48 173.83
C 312.48 173.37 308.98 169.35 304.69 164.89
C 300.41 160.43 296.48 156.32 295.98 155.78
C 290.59 150.03 284.46 145.75 280.48 144.99
C 270.45 143.07 222.02 143.88 209.83 146.17
C 188.16 150.25 169.82 155.11 162.00 158.85
C 157.71 160.90 153.59 162.58 152.84 162.58
C 152.10 162.58 147.71 166.21 143.10 170.65
C 135.01 178.40 134.24 179.77 131.10 191.68
C 129.96 195.99 134.82 211.66 139.84 219.91
C 148.20 233.65 165.34 250.57 176.90 256.49
C 178.67 257.41 183.91 260.41 188.52 263.17
C 193.13 265.94 200.54 270.09 204.98 272.41
C 209.43 274.72 213.05 277.10 213.05 277.66
C 213.05 278.25 214.14 278.71 215.47 278.71
C 216.79 278.71 219.34 279.87 221.14 281.28
C 222.93 282.70 226.94 285.06 230.03 286.53
C 233.12 288.01 239.58 291.35 244.38 293.96
C 267.96 306.77 319.17 332.90 320.68 332.90
C 321.30 332.90 324.37 334.65 327.54 336.77
C 330.69 338.90 333.80 340.65 334.44 340.65
C 335.08 340.65 338.56 342.39 342.18 344.52
C 345.79 346.65 349.28 348.39 349.93 348.39
C 350.57 348.39 354.06 350.13 357.67 352.26
C 361.29 354.39 364.76 356.13 365.41 356.13
C 367.00 356.13 376.29 361.61 376.82 362.86
C 377.07 363.42 378.17 363.87 379.26 363.87
C 380.37 363.87 384.11 365.61 387.57 367.74
C 391.04 369.87 394.60 371.61 395.49 371.61
C 396.40 371.61 398.57 372.62 400.32 373.85
C 402.87 375.64 420.14 384.67 439.69 394.44
C 441.10 395.14 443.99 396.67 446.12 397.83
C 448.25 399.01 452.90 401.46 456.45 403.26
C 460.01 405.08 466.69 408.84 471.30 411.60
C 475.91 414.36 485.21 419.38 491.96 422.76
C 498.72 426.13 505.96 430.08 508.08 431.54
C 510.20 432.99 512.88 434.77 514.07 435.48
C 515.24 436.19 520.31 439.25 525.33 442.28
C 530.34 445.30 534.79 448.35 535.23 449.06
C 535.66 449.75 537.14 450.32 538.53 450.32
C 539.91 450.32 541.03 450.76 541.03 451.29
C 541.03 451.82 543.79 453.96 547.16 456.05
C 550.53 458.14 554.94 461.19 556.95 462.83
C 560.59 465.81 563.12 466.52 564.65 464.99
M 125.44 135.41
C 124.98 124.17 129.19 113.63 135.40 110.41
C 140.38 107.83 147.11 107.82 150.75 110.37
C 154.37 112.90 156.73 121.60 155.75 128.76
L 154.97 134.32
L 158.75 132.10
C 163.05 129.56 167.86 118.65 167.86 111.45
C 167.86 106.52 164.30 98.62 160.54 95.23
C 156.14 91.25 143.90 86.46 135.97 85.64
L 128.18 84.83
L 128.81 91.42
C 129.40 97.46 129.12 98.32 125.62 101.59
C 122.38 104.62 121.89 105.91 122.40 110.08
C 122.85 113.94 122.33 115.68 120.01 118.14
C 118.38 119.87 115.72 121.29 114.09 121.29
L 111.14 121.29
L 114.78 126.77
C 116.79 129.79 118.83 133.91 119.31 135.94
C 120.38 140.37 124.01 146.18 125.06 145.14
C 125.47 144.72 125.65 140.35 125.44 135.41
M 146.23 136.50
C 149.00 133.33 149.32 121.63 146.76 118.12
C 144.36 114.85 138.76 116.40 136.37 121.01
C 133.13 127.28 132.42 136.34 134.88 140.09
C 136.99 143.32 137.14 143.34 140.51 141.25
C 142.41 140.06 144.99 137.92 146.23 136.50
M 77.94 112.46
C 80.44 110.81 84.89 109.14 87.82 108.74
C 92.78 108.08 93.10 107.79 92.34 104.74
C 91.28 100.53 86.78 94.19 84.86 94.19
C 83.40 94.19 81.66 95.64 74.48 102.81
C 66.62 110.67 65.67 112.03 63.85 118.08
C 62.81 121.54 62.30 125.43 62.72 126.75
C 63.35 128.74 64.36 127.95 68.45 122.32
C 71.17 118.55 75.45 114.13 77.94 112.46
M 92.97 120.75
C 92.97 120.45 93.32 119.29 93.76 118.17
C 94.73 115.64 92.05 115.52 84.73 117.74
L 79.41 119.35
L 83.93 120.15
C 89.91 121.21 92.97 121.41 92.97 120.75
M 122.73 94.08
C 124.58 90.63 119.78 85.83 116.33 87.68
C 112.66 89.64 112.12 92.68 114.92 95.48
C 117.72 98.28 120.77 97.74 122.73 94.08"/>
<path fill="#c55436" stroke="none" d="
M 9.30 590.71
C 8.10 589.51 7.75 523.14 7.75 299.79
C 7.75 15.01 7.79 10.39 10.24 9.08
C 14.10 7.02 622.64 7.23 624.70 9.29
C 626.96 11.55 626.96 588.45 624.70 590.71
C 622.44 592.97 11.56 592.97 9.30 590.71
M 603.01 569.03
C 605.57 566.48 605.59 564.74 605.59 364.52
C 605.59 164.30 605.57 162.55 603.01 160.00
C 600.49 157.48 598.71 157.42 530.31 157.42
C 477.50 157.42 459.81 157.03 458.65 155.87
C 457.49 154.71 457.10 139.05 457.10 93.29
C 457.10 33.97 457.02 32.18 454.52 29.68
C 451.96 27.12 450.22 27.10 244.04 27.10
C 37.87 27.10 36.13 27.12 33.57 29.68
C 31.00 32.25 30.99 33.97 30.99 299.35
C 30.99 564.74 31.00 566.46 33.57 569.03
C 36.14 571.60 37.87 571.61 318.29 571.61
C 598.71 571.61 600.44 571.60 603.01 569.03
M 601.72 134.19
C 604.21 131.70 604.30 129.90 604.30 81.94
C 604.30 33.97 604.21 32.17 601.72 29.68
C 599.21 27.17 597.42 27.10 540.38 27.10
C 483.35 27.10 481.56 27.17 479.05 29.68
C 476.56 32.17 476.47 33.97 476.47 81.94
C 476.47 129.90 476.56 131.70 479.05 134.19
C 481.56 136.70 483.35 136.77 540.38 136.77
C 597.42 136.77 599.21 136.70 601.72 134.19"/>
<path fill="#efcd84" stroke="none" d="
M 40.29 562.32
C 39.09 561.12 38.74 500.92 38.74 299.15
C 38.74 41.79 38.78 37.48 41.23 36.18
C 45.08 34.12 445.74 34.32 447.80 36.39
C 448.96 37.55 449.35 53.07 449.35 98.32
C 449.35 156.99 449.43 158.79 451.93 161.29
C 454.45 163.81 456.23 163.87 524.63 163.87
C 577.44 163.87 595.13 164.26 596.30 165.42
C 598.54 167.66 598.54 560.08 596.30 562.32
C 594.04 564.58 42.55 564.58 40.29 562.32
M 216.93 558.79
C 217.99 558.76 225.84 559.08 234.36 559.50
C 244.19 559.97 258.57 559.50 273.68 558.18
C 293.07 556.49 300.65 556.36 314.43 557.51
C 323.74 558.28 336.25 558.58 342.26 558.15
C 348.25 557.74 355.93 557.39 359.33 557.39
C 363.77 557.41 365.73 556.83 366.29 555.37
C 367.14 553.17 362.79 544.37 358.53 539.65
C 354.67 535.38 341.34 531.75 323.56 530.17
C 314.99 529.39 306.67 528.27 305.09 527.65
C 300.92 526.04 300.21 520.95 302.62 509.79
C 303.78 504.37 304.73 497.88 304.73 495.38
C 304.73 492.86 305.46 489.82 306.35 488.61
C 307.87 486.53 308.30 486.53 313.77 488.65
C 316.96 489.88 323.02 493.08 327.21 495.77
C 335.80 501.26 339.71 501.82 343.47 498.06
C 345.95 495.59 346.05 493.77 346.05 453.15
C 346.05 421.28 346.45 410.28 347.67 408.68
C 349.14 406.75 350.02 406.93 357.67 410.71
C 369.35 416.48 380.63 424.43 386.73 431.19
C 395.88 441.33 398.99 445.12 399.01 446.12
C 399.02 446.66 400.19 448.54 401.63 450.32
C 405.17 454.72 414.49 470.53 414.49 472.13
C 414.49 472.84 416.23 476.00 418.36 479.15
C 420.49 482.31 422.24 485.82 422.24 486.94
C 422.24 488.06 423.98 491.82 426.11 495.29
C 428.24 498.75 429.98 502.23 429.98 503.03
C 429.98 503.82 431.73 507.30 433.86 510.77
C 435.99 514.23 437.73 517.87 437.73 518.88
C 437.73 519.87 439.16 522.80 440.92 525.38
C 442.68 527.96 445.62 533.17 447.45 536.97
C 460.84 564.53 460.04 564.40 490.87 543.87
C 491.92 543.16 495.66 540.74 499.16 538.48
C 502.65 536.23 507.07 533.17 508.96 531.70
C 510.84 530.23 513.22 529.03 514.24 529.03
C 515.26 529.03 517.12 527.91 518.36 526.53
C 519.60 525.16 523.11 522.88 526.14 521.45
C 529.18 520.03 533.76 516.86 536.34 514.44
C 540.23 510.77 541.03 509.12 541.03 504.80
C 541.03 500.48 539.75 497.85 533.59 489.47
C 529.50 483.91 525.16 477.91 523.96 476.13
C 522.75 474.35 519.42 469.70 516.55 465.81
C 513.68 461.91 510.82 457.55 510.18 456.13
C 509.55 454.71 507.52 451.92 505.66 449.94
C 503.80 447.95 502.29 445.48 502.29 444.45
C 502.29 443.42 501.78 442.58 501.16 442.58
C 499.66 442.58 495.42 436.12 496.31 435.21
C 496.93 434.59 503.95 438.48 511.98 443.87
C 513.57 444.93 519.08 448.41 524.24 451.61
C 529.41 454.81 534.95 458.30 536.56 459.35
C 551.12 468.95 561.52 474.84 563.95 474.84
C 567.51 474.84 571.67 470.88 572.80 466.40
C 574.77 458.52 567.71 449.66 542.00 427.83
C 532.95 420.15 525.54 413.35 525.54 412.74
C 525.54 412.12 524.77 411.61 523.83 411.61
C 522.90 411.61 520.37 409.73 518.21 407.42
C 516.07 405.11 510.42 399.74 505.68 395.48
C 500.94 391.23 489.66 380.23 480.63 371.06
C 471.59 361.88 462.32 352.49 460.01 350.18
C 457.69 347.87 455.81 345.52 455.81 344.97
C 455.81 344.43 454.32 342.49 452.52 340.70
C 447.67 335.86 441.93 329.10 437.41 322.90
C 435.21 319.88 432.94 317.42 432.35 317.42
C 431.75 317.42 431.27 316.66 431.27 315.73
C 431.27 314.79 429.53 312.36 427.40 310.32
C 425.27 308.28 423.53 305.88 423.53 304.98
C 423.53 304.09 422.78 302.89 421.87 302.32
C 420.97 301.75 417.98 298.10 415.22 294.19
C 412.46 290.28 409.72 286.90 409.13 286.67
C 408.52 286.43 408.03 285.64 408.03 284.90
C 408.03 284.17 406.43 281.66 404.48 279.33
C 402.53 276.99 399.19 272.61 397.06 269.59
C 394.93 266.57 391.30 261.57 388.99 258.49
C 386.68 255.41 384.79 252.53 384.79 252.09
C 384.79 251.66 383.19 249.42 381.24 247.11
C 379.29 244.80 375.36 239.56 372.52 235.47
C 369.68 231.37 366.05 226.57 364.45 224.79
C 362.85 223.01 361.55 221.10 361.55 220.54
C 361.55 219.97 359.80 217.61 357.67 215.28
C 355.54 212.94 353.80 210.30 353.80 209.39
C 353.80 208.48 353.25 207.74 352.56 207.74
C 351.88 207.74 349.98 205.81 348.36 203.45
C 344.34 197.57 336.99 188.53 333.46 185.11
C 331.86 183.55 330.56 181.79 330.56 181.19
C 330.56 180.59 329.10 178.62 327.32 176.83
C 325.54 175.02 316.10 165.42 306.33 155.48
C 289.26 138.10 280.72 130.32 278.69 130.32
C 278.16 130.32 274.78 128.58 271.16 126.45
C 267.55 124.32 263.72 122.58 262.65 122.58
C 258.53 122.58 248.56 110.34 242.19 97.42
C 238.67 90.32 234.17 82.40 232.18 79.82
C 230.18 77.23 228.55 74.57 228.55 73.91
C 228.55 73.25 224.26 68.40 219.03 63.14
C 208.11 52.13 198.90 47.48 183.18 45.05
C 167.68 42.62 128.01 46.18 118.70 50.81
C 116.41 51.96 113.87 52.90 113.09 52.90
C 110.84 52.90 101.72 62.48 90.39 76.75
C 87.91 79.87 85.00 82.75 83.93 83.14
C 80.48 84.40 64.05 101.05 59.77 107.60
C 53.15 117.75 52.88 127.94 58.93 139.68
C 61.51 144.71 63.94 144.09 67.87 137.42
C 71.92 130.48 76.70 126.45 80.84 126.45
C 86.84 126.45 93.87 130.39 97.71 135.88
C 107.11 149.35 108.65 156.19 109.82 189.68
C 110.97 222.74 112.83 231.61 121.70 246.68
C 123.65 250.00 125.25 253.11 125.25 253.59
C 125.25 254.08 126.99 257.05 129.12 260.21
C 131.25 263.35 133.00 266.41 133.00 266.98
C 133.00 267.56 134.60 270.14 136.55 272.72
C 138.50 275.29 142.14 280.36 144.62 283.97
C 147.10 287.60 150.88 292.76 153.01 295.46
C 155.14 298.15 158.18 302.03 159.75 304.05
C 166.53 312.80 177.30 325.86 178.22 326.45
C 178.77 326.81 180.21 330.58 181.41 334.84
C 184.76 346.80 189.68 360.93 193.03 368.22
C 196.08 374.85 201.05 390.35 207.22 412.45
C 209.04 418.95 211.71 433.75 213.18 445.35
C 215.44 463.26 215.64 468.30 214.46 478.71
C 211.22 507.70 210.63 510.58 205.23 523.47
C 203.11 528.54 196.84 531.12 184.00 532.22
C 173.99 533.07 146.87 537.43 138.81 539.47
C 135.97 540.19 131.02 541.33 127.83 542.00
C 118.96 543.85 112.25 553.29 116.32 558.19
C 117.81 559.99 123.46 560.14 166.49 559.52
C 193.17 559.15 215.87 558.81 216.93 558.79"/>
<path fill="#efcd84" stroke="none" d="
M 485.77 127.48
C 483.54 125.26 483.54 38.61 485.77 36.39
C 487.99 34.17 592.78 34.17 595.00 36.39
C 597.23 38.61 597.23 125.26 595.00 127.48
C 592.78 129.70 487.99 129.70 485.77 127.48"/>
<path fill="#efcd84" stroke="none" d="
M 238.21 527.56
C 238.70 525.17 240.21 519.54 241.58 515.02
C 242.93 510.52 244.04 505.64 244.04 504.19
C 244.04 499.81 249.11 484.27 251.07 482.65
C 253.04 481.01 258.34 483.08 264.55 487.92
C 266.25 489.24 268.80 490.32 270.21 490.32
C 272.66 490.32 272.76 491.01 272.21 504.32
C 271.32 525.97 268.63 528.76 246.47 530.98
L 237.32 531.90
L 238.21 527.56"/>
<path fill="#cfa482" stroke="none" d="
M 461.17 545.47
C 453.82 532.22 431.27 487.56 431.27 486.25
C 431.27 485.46 429.53 481.97 427.40 478.52
C 425.27 475.05 423.53 471.39 423.53 470.40
C 423.53 469.39 422.71 467.77 421.73 466.77
C 420.74 465.78 418.36 461.90 416.45 458.13
C 414.54 454.36 411.87 450.08 410.51 448.62
C 409.14 447.16 408.03 445.45 408.03 444.83
C 408.03 443.02 396.81 428.90 389.83 421.92
C 382.81 414.92 373.56 408.92 359.11 401.99
C 347.80 396.57 345.67 396.40 341.47 400.58
L 338.31 403.75
L 338.31 446.97
C 338.31 470.72 337.81 490.48 337.21 490.85
C 336.60 491.23 333.30 489.75 329.86 487.57
C 326.44 485.41 322.18 483.07 320.41 482.40
C 312.33 479.33 296.80 475.85 288.30 475.19
C 279.04 474.48 278.95 474.44 278.34 470.46
C 275.60 452.49 273.32 442.76 270.54 437.23
C 268.75 433.66 267.29 430.17 267.29 429.43
C 267.29 428.71 265.54 425.54 263.41 422.37
C 261.28 419.23 259.54 416.13 259.54 415.50
C 259.54 413.78 247.82 396.93 245.80 395.74
C 244.83 395.17 244.04 393.92 244.04 392.95
C 244.04 391.97 242.30 389.55 240.17 387.54
C 238.04 385.52 236.30 383.17 236.30 382.32
C 236.30 381.47 235.57 380.31 234.68 379.74
C 233.79 379.17 229.32 374.06 224.75 368.39
C 214.45 355.60 213.27 354.22 208.86 349.70
C 206.91 347.70 205.31 345.46 205.31 344.74
C 205.31 344.00 203.56 342.15 201.43 340.65
C 199.30 339.14 197.56 337.29 197.56 336.55
C 197.56 335.83 195.96 333.61 194.01 331.64
C 192.06 329.66 189.74 327.15 188.86 326.03
C 186.51 323.06 172.23 305.88 167.75 300.65
C 162.80 294.85 162.66 294.66 156.74 286.36
C 153.99 282.50 151.31 279.16 150.77 278.93
C 150.22 278.68 149.78 277.82 149.78 276.99
C 149.78 276.17 148.04 273.46 145.91 270.97
C 143.78 268.48 142.04 266.06 142.04 265.60
C 142.04 265.12 139.97 261.64 137.45 257.86
C 134.93 254.06 129.74 244.58 125.91 236.77
L 118.94 222.58
L 117.57 194.84
C 116.01 162.97 115.50 158.13 112.75 148.39
C 110.25 139.48 107.96 135.01 102.36 128.05
C 96.33 120.55 97.66 118.01 104.05 124.80
C 107.15 128.10 110.81 134.32 113.51 140.90
C 119.03 154.32 119.44 154.84 124.79 154.84
C 128.12 154.84 129.51 154.12 130.53 151.88
C 131.62 149.51 132.69 149.02 136.05 149.41
C 138.90 149.74 143.34 148.44 150.11 145.28
C 155.54 142.72 160.57 140.65 161.26 140.65
C 163.83 140.65 171.75 130.80 173.66 125.25
C 177.71 113.41 175.23 99.11 167.72 90.95
C 155.26 77.46 120.21 73.21 109.51 83.91
C 104.32 89.11 104.42 96.57 109.78 102.17
C 114.31 106.90 116.06 112.05 113.63 113.55
C 112.73 114.10 109.07 113.57 105.51 112.36
C 99.39 110.28 98.93 109.82 97.48 104.05
C 96.62 100.70 94.29 96.25 92.29 94.15
L 88.66 90.37
L 95.55 83.34
C 99.34 79.48 103.03 75.29 103.74 74.01
C 108.86 64.85 125.62 54.23 134.93 54.22
C 137.78 54.22 147.07 53.55 155.61 52.74
C 181.77 50.22 200.40 55.08 212.18 67.50
C 216.81 72.37 226.11 84.81 228.27 89.03
C 242.95 117.66 244.87 120.59 252.57 126.09
C 256.75 129.07 261.19 131.55 262.42 131.57
C 263.65 131.59 266.55 132.77 268.88 134.19
L 273.10 136.77
L 255.67 135.97
C 234.10 134.98 213.96 136.89 191.75 142.03
C 168.92 147.29 165.43 148.28 159.55 151.11
C 156.76 152.45 153.74 153.55 152.83 153.55
C 148.92 153.55 134.30 165.52 129.63 172.55
L 124.76 179.90
L 124.76 194.36
C 124.76 208.61 124.84 208.99 129.67 218.28
C 136.72 231.86 142.31 238.98 157.11 253.23
C 159.13 255.17 161.51 256.77 162.39 256.77
C 163.26 256.77 163.99 257.26 163.99 257.86
C 163.99 258.45 165.29 259.63 166.89 260.46
C 168.49 261.30 172.12 263.39 174.96 265.11
C 177.80 266.83 183.58 270.06 187.77 272.31
C 191.98 274.55 196.24 277.20 197.22 278.19
C 198.22 279.19 199.96 280.00 201.10 280.00
C 202.23 280.00 204.08 280.80 205.20 281.79
C 206.33 282.77 210.73 285.45 214.99 287.72
C 219.25 290.00 228.83 295.14 236.30 299.14
C 254.83 309.08 263.61 313.64 289.55 326.77
C 301.80 332.98 313.28 338.85 315.06 339.82
C 320.15 342.58 330.36 347.81 338.31 351.72
C 340.09 352.59 343.56 354.34 346.05 355.59
C 348.55 356.83 351.62 358.36 352.88 358.98
C 354.16 359.59 358.53 361.87 362.57 364.05
C 366.62 366.22 372.12 369.10 374.78 370.45
C 377.44 371.79 381.81 374.01 384.47 375.35
C 387.13 376.71 392.63 379.59 396.68 381.75
C 400.72 383.94 405.09 386.22 406.37 386.83
C 411.45 389.29 416.71 391.94 422.24 394.83
C 425.44 396.49 429.16 398.41 430.53 399.08
C 434.34 400.95 450.60 409.61 457.10 413.21
C 460.30 414.99 466.19 418.27 470.19 420.50
C 474.20 422.74 478.20 425.42 479.06 426.48
C 479.94 427.52 481.44 428.39 482.38 428.39
C 483.34 428.39 484.73 430.68 485.49 433.48
C 486.24 436.30 488.31 440.30 490.07 442.39
C 491.82 444.48 493.25 446.74 493.25 447.41
C 493.25 448.08 494.38 449.65 495.76 450.89
C 497.13 452.14 500.16 456.30 502.49 460.13
C 504.81 463.96 507.17 467.10 507.73 467.10
C 508.30 467.10 508.75 467.82 508.75 468.71
C 508.75 469.60 510.49 472.35 512.62 474.84
C 514.75 477.33 516.50 479.78 516.50 480.31
C 516.50 480.83 517.35 482.28 518.40 483.54
C 519.43 484.79 522.04 488.13 524.18 490.97
C 526.32 493.81 529.34 497.70 530.91 499.64
C 534.79 504.46 532.78 508.50 524.18 513.17
C 513.44 519.01 511.24 520.35 499.52 528.09
C 493.37 532.15 487.70 535.48 486.93 535.48
C 486.14 535.48 485.51 535.92 485.51 536.45
C 485.51 536.98 482.74 539.12 479.37 541.21
C 476.00 543.30 471.60 546.35 469.59 547.99
C 467.58 549.63 465.54 550.97 465.07 550.95
C 464.59 550.95 462.83 548.48 461.17 545.47"/>
<path fill="#cfa482" stroke="none" d="
M 265.35 478.45
C 254.50 472.74 239.81 468.44 230.99 468.41
L 222.44 468.39
L 221.63 462.40
C 221.18 459.11 220.80 452.34 220.80 447.34
C 220.80 437.37 215.20 410.71 209.07 391.47
C 207.00 385.01 205.31 378.77 205.31 377.64
C 205.31 376.49 203.90 372.49 202.17 368.75
C 197.03 357.61 192.10 344.39 192.81 343.66
C 193.18 343.30 194.11 344.21 194.90 345.66
C 195.69 347.14 197.62 349.68 199.20 351.32
C 204.02 356.32 225.23 382.01 226.76 384.68
C 227.54 386.06 229.03 387.90 230.06 388.76
C 231.08 389.61 234.24 393.52 237.09 397.42
C 239.94 401.32 243.97 406.84 246.06 409.68
C 250.27 415.41 251.28 417.15 259.33 432.53
C 265.08 443.47 270.27 460.63 271.86 473.87
C 272.35 477.95 272.25 481.26 271.64 481.24
C 271.02 481.20 268.19 479.95 265.35 478.45"/>
<path fill="#296bbc" stroke="none" d="
M 122.25 142.76
C 121.13 141.03 119.80 137.96 119.31 135.94
C 118.83 133.91 116.79 129.79 114.78 126.77
L 111.14 121.29
L 114.09 121.29
C 115.72 121.29 118.38 119.87 120.01 118.14
C 122.33 115.68 122.85 113.94 122.40 110.08
C 121.91 105.92 122.38 104.62 125.57 101.65
C 128.84 98.58 129.28 97.34 128.97 91.97
L 128.62 85.81
L 136.03 86.06
C 143.62 86.32 155.69 90.83 160.54 95.23
C 164.30 98.62 167.86 106.52 167.86 111.45
C 167.86 118.65 163.05 129.56 158.75 132.10
L 154.97 134.32
L 155.75 128.76
C 156.73 121.60 154.37 112.90 150.75 110.37
C 147.11 107.82 140.38 107.83 135.40 110.41
C 129.19 113.63 124.98 124.17 125.44 135.41
C 125.65 140.35 125.47 144.72 125.06 145.14
C 124.64 145.55 123.39 144.48 122.25 142.76"/>
<path fill="#eb2e00" stroke="none" d="
M 114.92 95.48
C 111.58 92.14 113.41 87.74 118.15 87.74
C 123.70 87.74 125.01 94.14 120.01 96.81
C 118.11 97.83 116.97 97.54 114.92 95.48"/>
<path fill="#474f4e" stroke="none" d="
M 62.72 126.75
C 61.68 123.47 65.17 112.41 68.28 109.14
C 77.59 99.35 83.44 94.19 85.25 94.19
C 86.85 94.19 91.38 100.93 92.34 104.74
C 93.10 107.79 92.78 108.08 87.82 108.74
C 80.66 109.69 74.44 114.06 68.45 122.32
C 64.36 127.95 63.35 128.74 62.72 126.75"/>
<path fill="#474f4e" stroke="none" d="
M 83.93 120.15
L 79.41 119.35
L 84.73 117.74
C 92.05 115.52 94.73 115.64 93.76 118.17
C 93.32 119.29 92.97 120.45 92.97 120.75
C 92.97 121.41 89.91 121.21 83.93 120.15"/>
<path fill="#fefefe" stroke="none" d="
M 134.88 140.09
C 130.67 133.69 135.09 118.46 141.62 116.84
C 146.44 115.63 148.49 118.71 148.49 127.20
C 148.49 134.36 146.80 137.33 140.51 141.25
C 137.14 143.34 136.99 143.32 134.88 140.09"/>
<path fill="#57533f" stroke="none" d="
M 556.95 462.83
C 554.94 461.19 550.53 458.14 547.16 456.05
C 543.79 453.96 541.03 451.82 541.03 451.29
C 541.03 450.76 539.91 450.32 538.53 450.32
C 537.14 450.32 535.66 449.75 535.23 449.06
C 534.79 448.35 530.34 445.30 525.33 442.28
C 520.31 439.25 515.24 436.19 514.07 435.48
C 512.88 434.77 510.20 432.99 508.08 431.54
C 505.96 430.08 498.72 426.13 491.96 422.76
C 485.21 419.38 475.91 414.36 471.30 411.60
C 466.69 408.84 460.01 405.08 456.45 403.26
C 452.90 401.46 448.25 399.01 446.12 397.83
C 443.99 396.67 441.10 395.14 439.69 394.44
C 420.14 384.67 402.87 375.64 400.32 373.85
C 398.57 372.62 396.40 371.61 395.49 371.61
C 394.60 371.61 391.04 369.87 387.57 367.74
C 384.11 365.61 380.37 363.87 379.26 363.87
C 378.17 363.87 377.07 363.42 376.82 362.86
C 376.29 361.61 367.00 356.13 365.41 356.13
C 364.76 356.13 361.29 354.39 357.67 352.26
C 354.06 350.13 350.57 348.39 349.93 348.39
C 349.28 348.39 345.79 346.65 342.18 344.52
C 338.56 342.39 335.08 340.65 334.44 340.65
C 333.80 340.65 330.69 338.90 327.54 336.77
C 324.37 334.65 321.30 332.90 320.68 332.90
C 319.17 332.90 267.96 306.77 244.38 293.96
C 239.58 291.35 233.12 288.01 230.03 286.53
C 226.94 285.06 222.93 282.70 221.14 281.28
C 219.34 279.87 216.79 278.71 215.47 278.71
C 214.14 278.71 213.05 278.25 213.05 277.66
C 213.05 277.10 209.43 274.72 204.98 272.41
C 200.54 270.09 193.13 265.94 188.52 263.17
C 183.91 260.41 178.67 257.41 176.90 256.49
C 165.34 250.57 148.20 233.65 139.84 219.91
C 134.82 211.66 129.96 195.99 131.10 191.68
C 134.24 179.77 135.01 178.40 143.10 170.65
C 147.71 166.21 152.10 162.58 152.84 162.58
C 153.59 162.58 157.71 160.90 162.00 158.85
C 169.86 155.08 188.38 150.18 209.83 146.19
C 222.05 143.91 270.62 143.08 280.48 144.98
C 284.46 145.75 290.59 150.03 295.98 155.78
C 296.48 156.32 300.41 160.43 304.69 164.89
C 308.98 169.35 312.48 173.37 312.48 173.83
C 312.48 174.28 314.37 176.53 316.68 178.83
C 322.58 184.70 325.30 187.86 332.59 197.30
C 336.08 201.85 340.26 206.84 341.86 208.41
C 343.46 209.99 344.76 211.74 344.76 212.32
C 344.76 212.90 345.89 214.58 347.25 216.05
C 349.86 218.81 352.99 223.03 360.97 234.52
C 363.55 238.25 366.20 241.29 366.84 241.29
C 367.47 241.29 368.00 242.13 368.00 243.15
C 368.00 244.17 369.75 246.90 371.88 249.24
C 374.01 251.57 375.75 254.22 375.75 255.12
C 375.75 256.04 376.26 256.77 376.86 256.77
C 377.47 256.77 380.17 260.12 382.87 264.19
C 385.55 268.27 388.55 272.08 389.50 272.65
C 390.46 273.21 391.25 274.19 391.25 274.84
C 391.25 276.00 404.93 295.19 411.16 302.76
C 412.99 304.98 414.49 307.42 414.49 308.18
C 414.49 308.93 415.25 310.01 416.18 310.58
C 417.68 311.50 429.64 326.39 437.33 336.93
C 438.88 339.06 441.64 341.96 443.46 343.39
C 445.28 344.83 446.77 346.44 446.77 346.98
C 446.77 350.14 509.19 412.90 512.33 412.90
C 512.74 412.90 514.96 414.79 517.26 417.10
C 522.69 422.57 526.70 426.17 538.45 436.13
C 552.72 448.25 561.66 456.98 563.68 460.80
C 566.69 466.50 562.87 467.65 556.95 462.83"/>
<path fill="#555252" stroke="none" d="
M 228.15 552.03
C 224.64 551.06 223.44 550.13 223.95 548.77
C 224.35 547.74 224.68 545.52 224.68 543.86
C 224.68 541.23 225.58 540.65 231.46 539.50
C 235.19 538.76 244.33 537.78 251.79 537.30
C 276.56 535.73 278.91 532.41 278.91 499.12
L 278.91 480.00
L 284.40 480.01
C 293.18 480.04 299.65 481.43 298.57 483.07
C 298.07 483.86 297.26 489.45 296.77 495.48
C 296.29 501.52 295.49 510.89 294.97 516.31
C 293.87 528.04 294.73 532.28 298.61 534.41
C 300.20 535.28 309.28 536.40 318.77 536.90
C 337.96 537.92 339.20 538.46 340.49 546.40
L 341.29 551.34
L 318.81 550.66
C 298.66 550.05 256.60 551.17 239.53 552.79
C 235.97 553.12 230.85 552.77 228.15 552.03"/>
<path fill="#555252" stroke="none" d="
M 160.11 548.43
C 160.11 543.65 164.43 541.12 174.43 540.01
C 178.28 539.59 184.04 538.95 187.23 538.61
L 193.04 537.96
L 186.93 541.87
C 183.24 544.23 180.50 547.06 180.01 549.02
C 179.24 552.12 178.77 552.26 169.66 552.26
L 160.11 552.26
L 160.11 548.43"/>
<path fill="#555252" stroke="none" d="
M 208.41 537.10
C 205.76 536.66 205.79 536.53 209.16 532.93
C 213.70 528.06 220.82 500.23 220.82 487.33
C 220.80 475.35 221.95 473.55 229.57 473.56
C 239.10 473.59 245.57 474.94 244.17 476.62
C 242.55 478.58 237.46 497.41 232.37 520.26
L 229.58 532.77
L 222.29 534.27
C 218.27 535.10 214.11 536.17 213.05 536.67
C 212.00 537.16 209.89 537.35 208.41 537.10"/>
<path fill="#5a4f4f" stroke="none" d="
M 125.25 550.97
C 126.01 549.55 126.90 548.39 127.24 548.39
C 127.56 548.39 127.83 549.55 127.83 550.97
C 127.83 552.43 126.97 553.55 125.84 553.55
C 124.27 553.55 124.15 553.03 125.25 550.97"/>
<path fill="#5a4f4f" stroke="none" d="
M 136.87 549.68
C 138.24 547.14 140.75 546.13 140.75 548.13
C 140.75 549.48 137.94 552.26 136.56 552.26
C 135.98 552.26 136.11 551.10 136.87 549.68"/>
<path fill="#5a4f4f" stroke="none" d="
M 148.49 551.70
C 148.49 551.39 149.06 549.65 149.76 547.83
C 151.46 543.33 153.66 543.65 153.66 548.39
C 153.66 551.39 153.09 552.26 151.08 552.26
C 149.65 552.26 148.49 552.00 148.49 551.70"/>
<path fill="#5a4f4f" stroke="none" d="
M 195.62 548.39
C 198.04 545.87 200.61 544.52 203.00 544.52
C 206.65 544.52 206.66 544.53 204.66 548.39
C 202.92 551.74 201.95 552.26 197.29 552.26
L 191.92 552.26
L 195.62 548.39"/>
<path fill="#5a4f4f" stroke="none" d="
M 213.05 549.92
C 213.05 549.35 213.91 547.75 214.95 546.37
C 216.76 543.97 216.85 544.03 216.89 547.42
C 216.92 549.73 216.26 550.97 214.99 550.97
C 213.93 550.97 213.05 550.50 213.05 549.92"/>
<path fill="#5a4f4f" stroke="none" d="
M 348.31 547.72
C 347.46 543.26 349.26 542.55 352.69 545.99
C 355.45 548.75 355.47 548.88 353.06 549.82
C 349.24 551.30 348.98 551.20 348.31 547.72"/>
</g>
</svg>
