<?xml version="1.0" encoding="UTF-8" standalone="no"?>
<!DOCTYPE svg PUBLIC "-//W3C//DTD SVG 1.1//EN"
"http://www.w3.org/Graphics/SVG/1.1/DTD/svg11.dtd">
<svg width="567px" height="600px"
xmlns="http://www.w3.org/2000/svg" version="1.1">
<g transform="translate(0000, 0000) scale(1.0000, 1.0000)">
<path fill="#000000" stroke="none" d="
M 66.86 597.43
C 64.66 595.23 64.29 593.15 64.29 582.91
C 64.29 575.33 63.72 570.40 62.74 569.42
C 61.64 568.32 53.25 567.88 33.17 567.88
C -0.63 567.88 0.00 568.15 0.00 553.75
C 0.00 539.34 -0.63 539.61 33.17 539.61
C 53.25 539.61 61.64 539.18 62.74 538.07
C 64.90 535.91 64.90 495.78 62.74 493.62
C 61.64 492.51 53.25 492.08 33.17 492.08
C -0.18 492.08 0.00 492.14 0.00 479.23
C 0.00 466.32 -0.18 466.38 33.17 466.38
C 53.25 466.38 61.64 465.94 62.74 464.84
C 63.81 463.77 64.29 457.08 64.29 443.00
L 64.29 422.70
L 34.71 422.70
C -0.39 422.70 0.00 422.84 0.00 409.85
C 0.00 396.94 -0.18 397.00 33.17 397.00
C 53.25 397.00 61.64 396.57 62.74 395.46
C 64.90 393.30 64.90 355.73 62.74 353.58
C 61.64 352.47 53.25 352.03 33.17 352.03
C -0.41 352.03 0.00 352.20 0.00 338.54
C 0.00 324.89 -0.41 325.05 33.17 325.05
C 53.25 325.05 61.64 324.62 62.74 323.51
C 64.90 321.35 64.90 283.79 62.74 281.63
C 61.64 280.52 53.25 280.09 33.17 280.09
C 6.85 280.09 4.99 279.93 2.57 277.52
C -1.08 273.87 -1.08 261.89 2.57 258.24
C 4.99 255.83 6.85 255.67 33.17 255.67
C 53.25 255.67 61.64 255.24 62.74 254.13
C 64.90 251.97 64.90 214.41 62.74 212.25
C 61.64 211.14 53.25 210.71 33.17 210.71
C -0.84 210.71 0.00 211.08 0.00 195.93
C 0.00 180.78 -0.84 181.16 33.17 181.16
C 53.25 181.16 61.64 180.72 62.74 179.61
C 64.89 177.47 64.89 142.45 62.74 140.30
C 61.64 139.19 53.25 138.76 33.17 138.76
C -0.41 138.76 0.00 138.93 0.00 125.27
C 0.00 111.64 -0.32 111.78 32.53 111.78
C 52.11 111.78 60.35 111.34 61.46 110.24
C 62.54 109.16 63.00 102.04 63.00 86.47
C 63.00 57.65 61.82 59.10 85.24 59.10
C 96.83 59.10 102.84 58.60 103.89 57.56
C 104.98 56.47 105.43 48.80 105.43 31.22
C 105.43 1.31 105.44 1.28 118.93 1.28
C 132.42 1.28 132.43 1.31 132.43 31.22
C 132.43 48.80 132.88 56.47 133.97 57.56
C 136.09 59.68 163.48 59.68 165.60 57.56
C 166.69 56.47 167.14 48.71 167.14 30.82
C 167.14 11.24 167.54 5.09 168.94 3.17
C 170.37 1.21 172.74 0.60 180.39 0.22
C 188.83 -0.21 190.35 0.06 192.73 2.44
C 195.29 5.00 195.43 6.44 195.43 30.58
C 195.43 48.66 195.88 56.47 196.97 57.56
C 198.00 58.59 203.68 59.10 214.07 59.10
C 224.46 59.10 230.14 58.59 231.17 57.56
C 232.26 56.47 232.71 48.66 232.71 30.58
C 232.71 -0.06 232.69 0.00 246.21 0.00
C 259.74 0.00 259.71 -0.06 259.71 30.58
C 259.71 48.66 260.16 56.47 261.26 57.56
C 263.38 59.68 292.05 59.68 294.17 57.56
C 295.26 56.47 295.71 48.66 295.71 30.58
C 295.71 -0.06 295.69 0.00 309.21 0.00
C 322.74 0.00 322.71 -0.06 322.71 30.58
C 322.71 48.66 323.16 56.47 324.26 57.56
C 326.38 59.68 353.76 59.68 355.89 57.56
C 356.98 56.47 357.43 48.66 357.43 30.58
C 357.43 -0.48 357.20 0.00 372.21 0.00
C 387.23 0.00 387.00 -0.48 387.00 30.58
C 387.00 48.66 387.45 56.47 388.54 57.56
C 390.68 59.69 421.89 59.69 424.03 57.56
C 425.12 56.47 425.57 48.66 425.57 30.58
C 425.57 -0.06 425.55 0.00 439.07 0.00
C 452.60 0.00 452.57 -0.06 452.57 30.58
C 452.57 48.66 453.02 56.47 454.11 57.56
C 456.25 59.69 486.18 59.69 488.31 57.56
C 489.41 56.47 489.86 48.66 489.86 30.58
C 489.86 -0.66 489.52 0.00 505.29 0.00
C 521.05 0.00 520.71 -0.66 520.71 30.58
C 520.71 48.66 521.16 56.47 522.26 57.56
C 523.32 58.63 529.74 59.10 542.83 59.10
C 560.15 59.10 562.09 59.33 564.43 61.67
C 566.99 64.23 567.00 65.64 566.68 331.80
L 566.36 599.36
L 317.89 599.68
C 70.83 600.00 69.42 599.99 66.86 597.43
M 563.14 344.65
L 563.14 93.15
L 331.23 93.48
C 139.17 93.75 99.05 94.10 97.87 95.52
C 96.84 96.77 96.35 165.85 96.12 346.70
L 95.79 596.15
L 329.46 596.15
L 563.14 596.15
L 563.14 344.65
M 87.17 592.03
C 88.37 590.84 88.71 533.31 88.71 340.86
C 88.71 92.93 88.73 91.21 91.29 88.65
C 93.84 86.09 95.57 86.08 325.03 86.08
C 503.11 86.08 556.56 85.72 557.74 84.54
C 559.75 82.54 559.75 70.36 557.74 68.35
C 556.68 67.28 550.26 66.81 537.17 66.81
C 511.17 66.81 513.00 69.24 513.00 34.69
L 513.00 7.71
L 505.29 7.71
L 497.57 7.71
L 497.57 34.69
C 497.57 69.47 499.76 66.81 471.21 66.81
C 442.77 66.81 444.86 69.22 444.86 36.23
C 444.86 9.53 444.48 7.71 439.07 7.71
C 433.66 7.71 433.29 9.53 433.29 36.23
C 433.29 69.29 435.47 66.81 406.29 66.81
C 377.10 66.81 379.29 69.29 379.29 36.23
C 379.29 8.57 379.07 7.71 372.21 7.71
C 365.36 7.71 365.14 8.57 365.14 36.23
C 365.14 69.10 367.02 66.81 340.07 66.81
C 313.12 66.81 315.00 69.10 315.00 36.23
C 315.00 9.53 314.63 7.71 309.21 7.71
C 303.80 7.71 303.43 9.53 303.43 36.23
C 303.43 69.16 305.41 66.81 277.71 66.81
C 250.02 66.81 252.00 69.16 252.00 36.23
C 252.00 9.53 251.63 7.71 246.21 7.71
C 240.80 7.71 240.43 9.53 240.43 36.23
C 240.43 69.22 242.51 66.81 214.07 66.81
C 185.63 66.81 187.71 69.22 187.71 36.23
C 187.71 9.01 187.42 7.71 181.29 7.71
C 175.15 7.71 174.86 9.01 174.86 36.23
C 174.86 69.02 176.63 66.81 150.43 66.81
C 124.23 66.81 126.00 69.02 126.00 36.23
C 126.00 9.01 125.70 7.71 119.57 7.71
C 113.44 7.71 113.14 9.01 113.14 36.23
C 113.14 68.75 114.56 66.81 90.90 66.81
C 79.32 66.81 73.30 67.31 72.26 68.35
C 71.18 69.43 70.71 76.55 70.71 92.12
C 70.71 112.64 70.52 114.54 68.14 116.92
C 65.74 119.32 63.86 119.49 38.19 119.49
C 9.44 119.49 7.71 119.81 7.71 125.27
C 7.71 130.73 9.44 131.05 38.19 131.05
C 63.86 131.05 65.74 131.22 68.14 133.62
C 70.53 136.01 70.71 137.90 70.71 159.96
C 70.71 182.02 70.53 183.91 68.14 186.30
C 65.74 188.70 63.86 188.87 38.19 188.87
C 18.60 188.87 10.36 189.30 9.26 190.41
C 7.26 192.40 7.26 200.75 9.26 202.74
C 10.36 203.85 18.60 204.28 38.19 204.28
C 63.86 204.28 65.74 204.45 68.14 206.85
C 70.53 209.24 70.71 211.13 70.71 233.19
C 70.71 255.25 70.53 257.14 68.14 259.53
C 65.74 261.93 63.86 262.10 38.19 262.10
C 9.44 262.10 7.71 262.42 7.71 267.88
C 7.71 273.34 9.44 273.66 38.19 273.66
C 63.86 273.66 65.74 273.83 68.14 276.23
C 70.53 278.62 70.71 280.51 70.71 302.57
C 70.71 324.63 70.53 326.52 68.14 328.91
C 65.74 331.31 63.86 331.48 38.19 331.48
C 8.90 331.48 7.71 331.72 7.71 337.90
C 7.71 344.08 8.90 344.33 38.19 344.33
C 63.86 344.33 65.74 344.49 68.14 346.90
C 70.53 349.28 70.71 351.17 70.71 374.27
C 70.71 393.65 70.32 399.62 68.89 401.58
C 67.20 403.88 64.89 404.12 38.49 404.71
C 13.10 405.28 9.76 405.60 8.50 407.60
C 7.47 409.23 7.47 410.47 8.50 412.10
C 9.76 414.10 13.10 414.42 38.49 414.99
C 64.89 415.58 67.20 415.82 68.89 418.12
C 70.32 420.06 70.71 425.96 70.71 444.78
C 70.71 467.24 70.53 469.13 68.14 471.52
C 65.74 473.92 63.86 474.09 38.19 474.09
C 9.44 474.09 7.71 474.41 7.71 479.87
C 7.71 485.33 9.44 485.65 38.19 485.65
C 63.86 485.65 65.74 485.82 68.14 488.22
C 70.53 490.61 70.71 492.50 70.71 515.85
C 70.71 539.19 70.53 541.08 68.14 543.47
C 65.74 545.87 63.86 546.04 38.19 546.04
C 8.43 546.04 7.71 546.21 7.71 553.10
C 7.71 560.00 8.43 560.17 38.19 560.17
C 72.19 560.17 70.71 559.36 70.71 577.90
C 70.71 585.98 71.27 591.04 72.26 592.03
C 74.26 594.04 85.17 594.04 87.17 592.03"/>
<path fill="#c55436" stroke="none" d="
M 72.26 592.03
C 71.27 591.04 70.71 585.98 70.71 577.90
C 70.71 559.36 72.19 560.17 38.19 560.17
C 8.43 560.17 7.71 560.00 7.71 553.10
C 7.71 546.21 8.43 546.04 38.19 546.04
C 63.86 546.04 65.74 545.87 68.14 543.47
C 70.53 541.08 70.71 539.19 70.71 515.85
C 70.71 492.50 70.53 490.61 68.14 488.22
C 65.74 485.82 63.86 485.65 38.19 485.65
C 9.44 485.65 7.71 485.33 7.71 479.87
C 7.71 474.41 9.44 474.09 38.19 474.09
C 63.86 474.09 65.74 473.92 68.14 471.52
C 70.53 469.13 70.71 467.24 70.71 444.78
C 70.71 425.96 70.32 420.06 68.89 418.12
C 67.20 415.82 64.89 415.58 38.49 414.99
C 13.10 414.42 9.76 414.10 8.50 412.10
C 7.47 410.47 7.47 409.23 8.50 407.60
C 9.76 405.60 13.10 405.28 38.49 404.71
C 64.89 404.12 67.20 403.88 68.89 401.58
C 70.32 399.62 70.71 393.65 70.71 374.27
C 70.71 351.17 70.53 349.28 68.14 346.90
C 65.74 344.49 63.86 344.33 38.19 344.33
C 8.90 344.33 7.71 344.08 7.71 337.90
C 7.71 331.72 8.90 331.48 38.19 331.48
C 63.86 331.48 65.74 331.31 68.14 328.91
C 70.53 326.52 70.71 324.63 70.71 302.57
C 70.71 280.51 70.53 278.62 68.14 276.23
C 65.74 273.83 63.86 273.66 38.19 273.66
C 9.44 273.66 7.71 273.34 7.71 267.88
C 7.71 262.42 9.44 262.10 38.19 262.10
C 63.86 262.10 65.74 261.93 68.14 259.53
C 70.53 257.14 70.71 255.25 70.71 233.19
C 70.71 211.13 70.53 209.24 68.14 206.85
C 65.74 204.45 63.86 204.28 38.19 204.28
C 18.60 204.28 10.36 203.85 9.26 202.74
C 7.26 200.75 7.26 192.40 9.26 190.41
C 10.36 189.30 18.60 188.87 38.19 188.87
C 63.86 188.87 65.74 188.70 68.14 186.30
C 70.53 183.91 70.71 182.02 70.71 159.96
C 70.71 137.90 70.53 136.01 68.14 133.62
C 65.74 131.22 63.86 131.05 38.19 131.05
C 9.44 131.05 7.71 130.73 7.71 125.27
C 7.71 119.81 9.44 119.49 38.19 119.49
C 63.86 119.49 65.74 119.32 68.14 116.92
C 70.52 114.54 70.71 112.64 70.71 92.12
C 70.71 76.55 71.18 69.43 72.26 68.35
C 73.30 67.31 79.26 66.81 90.66 66.81
C 103.17 66.81 108.15 66.33 110.01 64.99
C 112.29 63.31 112.55 61.00 113.14 36.44
L 113.79 9.69
L 117.39 8.43
C 119.83 7.57 121.69 7.61 123.17 8.54
C 125.07 9.74 125.43 13.32 126.00 36.54
C 126.59 61.00 126.85 63.31 129.14 64.99
C 131.03 66.36 136.27 66.81 150.67 66.81
C 176.58 66.81 174.86 68.99 174.86 36.23
C 174.86 9.01 175.15 7.71 181.29 7.71
C 187.42 7.71 187.71 9.01 187.71 36.23
C 187.71 69.22 185.63 66.81 214.07 66.81
C 242.51 66.81 240.43 69.22 240.43 36.23
C 240.43 9.53 240.80 7.71 246.21 7.71
C 251.63 7.71 252.00 9.53 252.00 36.23
C 252.00 69.16 250.02 66.81 277.71 66.81
C 305.41 66.81 303.43 69.16 303.43 36.23
C 303.43 9.53 303.80 7.71 309.21 7.71
C 314.63 7.71 315.00 9.53 315.00 36.23
C 315.00 69.10 313.12 66.81 340.07 66.81
C 367.02 66.81 365.14 69.10 365.14 36.23
C 365.14 8.57 365.36 7.71 372.21 7.71
C 379.07 7.71 379.29 8.57 379.29 36.23
C 379.29 69.29 377.10 66.81 406.29 66.81
C 435.47 66.81 433.29 69.29 433.29 36.23
C 433.29 9.53 433.66 7.71 439.07 7.71
C 444.48 7.71 444.86 9.53 444.86 36.23
C 444.86 69.22 442.77 66.81 471.21 66.81
C 499.76 66.81 497.57 69.47 497.57 34.69
L 497.57 7.71
L 505.29 7.71
L 513.00 7.71
L 513.00 34.69
C 513.00 69.24 511.17 66.81 537.17 66.81
C 550.26 66.81 556.68 67.28 557.74 68.35
C 559.75 70.36 559.75 82.54 557.74 84.54
C 556.56 85.72 503.11 86.08 325.03 86.08
C 95.57 86.08 93.84 86.09 91.29 88.65
C 88.73 91.21 88.71 92.93 88.71 340.86
C 88.71 533.31 88.37 590.84 87.17 592.03
C 85.17 594.04 74.26 594.04 72.26 592.03"/>
<path fill="#efcd84" stroke="none" d="
M 96.12 346.70
C 96.35 165.25 96.83 96.78 97.88 95.52
C 99.08 94.09 138.41 93.79 331.23 93.79
L 563.14 93.79
L 563.14 344.97
L 563.14 596.15
L 329.46 596.15
L 95.79 596.15
L 96.12 346.70"/>
</g>
</svg>
