<?xml version="1.0" encoding="UTF-8" standalone="no"?>
<!DOCTYPE svg PUBLIC "-//W3C//DTD SVG 1.1//EN"
"http://www.w3.org/Graphics/SVG/1.1/DTD/svg11.dtd">
<svg width="458px" height="600px"
xmlns="http://www.w3.org/2000/svg" version="1.1">
<g transform="translate(0000, 0000) scale(1.0000, 1.0000)">
<path fill="#000000" stroke="none" d="
M 222.30 598.11
C 216.95 595.79 210.74 587.14 208.22 578.46
C 206.72 573.33 206.36 567.84 206.80 557.12
C 207.12 549.19 208.32 519.82 209.47 491.85
C 210.62 463.87 212.42 423.31 213.49 401.72
C 215.93 352.83 218.01 296.91 218.02 280.39
L 218.03 267.85
L 211.91 264.75
C 208.54 263.05 202.59 258.40 198.69 254.43
L 191.61 247.21
L 98.39 247.21
C 6.88 247.21 5.11 247.16 2.58 244.64
C 0.04 242.10 0.00 240.35 0.00 123.85
C 0.00 23.79 0.28 5.25 1.83 3.14
C 3.63 0.68 7.62 0.64 228.24 0.31
C 451.63 -0.03 452.83 -0.01 455.41 2.56
C 457.96 5.11 458.00 6.71 458.00 123.61
C 458.00 240.35 457.96 242.10 455.42 244.64
C 452.89 247.16 451.12 247.21 363.48 247.21
L 274.13 247.21
L 267.05 254.43
C 263.15 258.40 257.20 263.05 253.84 264.75
L 247.71 267.85
L 247.72 280.39
C 247.73 297.41 249.90 355.44 252.25 402.36
C 253.32 423.61 255.14 463.87 256.27 491.85
C 257.42 519.82 258.62 549.19 258.94 557.12
C 259.40 567.94 259.02 573.31 257.49 578.61
C 254.84 587.69 248.26 596.33 242.49 598.31
C 236.48 600.39 227.34 600.30 222.30 598.11
M 242.87 588.79
C 250.47 581.58 252.20 576.37 252.16 560.73
C 252.12 543.31 249.98 490.20 245.81 403.00
C 244.07 366.54 242.25 321.63 241.77 303.22
L 240.90 269.74
L 232.87 269.74
L 224.86 269.74
L 223.98 302.58
C 223.50 320.64 221.68 365.54 219.94 402.36
C 215.71 491.74 213.62 543.55 213.58 560.73
C 213.56 572.79 213.96 575.65 216.32 580.04
C 219.14 585.31 224.88 591.35 228.35 592.71
C 232.16 594.22 239.13 592.33 242.87 588.79
M 247.04 259.80
C 263.58 251.50 276.54 232.79 284.10 206.38
C 288.20 192.00 288.18 167.37 284.04 156.90
C 278.17 142.03 272.13 136.61 256.36 132.09
C 246.80 129.35 243.84 126.41 243.84 119.74
C 243.84 112.64 240.44 109.44 232.87 109.44
C 225.30 109.44 221.90 112.64 221.90 119.74
C 221.90 126.41 218.94 129.35 209.38 132.09
C 193.61 136.61 187.57 142.03 181.70 156.90
C 177.56 167.37 177.54 192.00 181.64 206.38
C 190.35 236.83 207.03 257.85 226.42 262.79
C 231.88 264.18 240.93 262.87 247.04 259.80
M 183.73 232.38
C 170.23 204.88 167.80 168.62 177.97 147.12
C 183.24 136.02 189.42 130.60 200.50 127.35
C 214.12 123.36 215.45 122.21 215.45 114.57
C 215.45 104.54 217.76 103.00 232.87 103.00
C 247.98 103.00 250.29 104.54 250.29 114.57
C 250.29 122.21 251.62 123.36 265.24 127.35
C 276.32 130.60 282.50 136.02 287.77 147.12
C 297.95 168.62 295.51 204.88 282.01 232.38
L 276.63 243.35
L 293.46 243.35
L 310.28 243.35
L 309.87 231.85
C 309.21 213.59 304.25 215.02 368.34 215.02
C 420.16 215.02 421.95 214.94 424.46 212.45
C 426.99 209.92 427.04 208.16 427.04 124.89
C 427.04 41.63 426.99 39.86 424.46 37.34
C 421.90 34.79 420.16 34.76 229.00 34.76
C 37.84 34.76 36.10 34.79 33.54 37.34
C 31.01 39.86 30.96 41.63 30.96 124.89
C 30.96 208.16 31.01 209.92 33.54 212.45
C 36.03 214.93 37.84 215.02 88.37 215.02
C 150.97 215.02 146.21 213.62 145.55 231.85
L 145.14 243.35
L 167.12 243.35
L 189.11 243.35
L 183.73 232.38
M 136.75 238.20
C 138.35 236.60 139.34 233.91 139.34 231.12
C 139.34 228.32 138.35 225.63 136.75 224.03
C 134.26 221.55 132.46 221.46 81.92 221.46
C 31.39 221.46 29.58 221.37 27.09 218.88
C 24.56 216.36 24.51 214.60 24.51 124.89
C 24.51 35.19 24.56 33.42 27.09 30.90
C 29.65 28.35 31.39 28.33 229.00 28.33
C 426.61 28.33 428.35 28.35 430.91 30.90
C 433.44 33.42 433.49 35.19 433.49 124.89
C 433.49 214.60 433.44 216.36 430.91 218.88
C 428.40 221.38 426.61 221.46 374.79 221.46
C 322.96 221.46 321.17 221.54 318.66 224.03
C 317.07 225.63 316.08 228.32 316.08 231.12
C 316.08 233.91 317.07 236.60 318.66 238.20
C 321.18 240.71 322.96 240.77 383.82 240.77
C 444.67 240.77 446.45 240.71 448.97 238.20
C 451.51 235.66 451.55 233.91 451.55 123.61
C 451.55 13.30 451.51 11.55 448.97 9.01
C 446.41 6.46 444.67 6.44 229.00 6.44
C 13.33 6.44 11.59 6.46 9.03 9.01
C 6.49 11.55 6.45 13.30 6.45 123.61
C 6.45 233.91 6.49 235.66 9.03 238.20
C 11.53 240.70 13.33 240.77 72.89 240.77
C 132.46 240.77 134.25 240.70 136.75 238.20"/>
<path fill="#c55436" stroke="none" d="
M 9.03 238.20
C 6.49 235.66 6.45 233.91 6.45 123.85
C 6.45 29.36 6.73 11.69 8.28 9.58
C 10.08 7.12 14.01 7.08 228.24 6.75
C 445.18 6.41 446.38 6.42 448.96 9.00
C 451.51 11.55 451.55 13.15 451.55 123.61
C 451.55 233.91 451.51 235.66 448.97 238.20
C 446.45 240.71 444.67 240.77 383.82 240.77
C 322.96 240.77 321.18 240.71 318.66 238.20
C 317.07 236.60 316.08 233.91 316.08 231.12
C 316.08 228.32 317.07 225.63 318.66 224.03
C 321.17 221.54 322.96 221.46 374.79 221.46
C 426.61 221.46 428.40 221.38 430.91 218.88
C 433.44 216.36 433.49 214.60 433.49 124.89
C 433.49 35.19 433.44 33.42 430.91 30.90
C 428.35 28.35 426.61 28.33 229.00 28.33
C 31.39 28.33 29.65 28.35 27.09 30.90
C 24.56 33.42 24.51 35.19 24.51 124.89
C 24.51 214.60 24.56 216.36 27.09 218.88
C 29.58 221.37 31.39 221.46 81.92 221.46
C 132.46 221.46 134.26 221.55 136.75 224.03
C 138.35 225.63 139.34 228.32 139.34 231.12
C 139.34 233.91 138.35 236.60 136.75 238.20
C 134.25 240.70 132.46 240.77 72.89 240.77
C 13.33 240.77 11.53 240.70 9.03 238.20"/>
<path fill="#efcd84" stroke="none" d="
M 145.55 231.85
C 146.21 213.62 150.97 215.02 88.37 215.02
C 37.84 215.02 36.03 214.93 33.54 212.45
C 31.01 209.92 30.96 208.16 30.96 125.14
C 30.96 54.00 31.26 40.00 32.80 37.91
C 34.59 35.46 38.28 35.41 228.24 35.07
C 420.66 34.74 421.86 34.75 424.44 37.33
C 426.99 39.86 427.04 41.50 427.04 124.89
C 427.04 208.16 426.99 209.92 424.46 212.45
C 421.95 214.94 420.16 215.02 368.34 215.02
C 304.25 215.02 309.21 213.59 309.87 231.85
L 310.28 243.35
L 293.46 243.35
L 276.63 243.35
L 282.01 232.38
C 295.51 204.88 297.95 168.62 287.77 147.12
C 282.50 136.02 276.32 130.60 265.24 127.35
C 251.62 123.36 250.29 122.21 250.29 114.57
C 250.29 104.54 247.98 103.00 232.87 103.00
C 217.76 103.00 215.45 104.54 215.45 114.57
C 215.45 122.21 214.12 123.36 200.50 127.35
C 189.42 130.60 183.24 136.02 177.97 147.12
C 167.80 168.62 170.23 204.88 183.73 232.38
L 189.11 243.35
L 167.12 243.35
L 145.14 243.35
L 145.55 231.85"/>
<path fill="#ecaa37" stroke="none" d="
M 226.42 262.79
C 207.03 257.85 190.35 236.83 181.64 206.38
C 177.54 192.00 177.56 167.37 181.70 156.90
C 187.57 142.03 193.61 136.61 209.38 132.09
C 218.82 129.37 221.90 126.39 221.90 119.99
C 221.90 112.87 224.20 110.50 231.86 109.76
C 240.21 108.97 243.84 111.98 243.84 119.74
C 243.84 126.41 246.80 129.35 256.36 132.09
C 272.13 136.61 278.17 142.03 284.04 156.90
C 288.18 167.37 288.20 192.00 284.10 206.38
C 274.83 238.84 256.30 260.70 236.07 263.10
C 232.88 263.47 228.55 263.33 226.42 262.79"/>
<path fill="#c57a36" stroke="none" d="
M 228.35 592.71
C 224.88 591.35 219.14 585.31 216.32 580.04
C 213.96 575.65 213.56 572.79 213.58 560.73
C 213.62 543.94 215.53 496.11 219.97 401.07
C 221.75 362.83 223.65 317.70 224.17 300.79
L 225.13 270.01
L 233.01 269.82
L 240.90 269.61
L 241.77 303.15
C 242.25 321.61 244.07 366.54 245.81 403.00
C 249.98 490.20 252.12 543.31 252.16 560.73
C 252.20 576.37 250.47 581.58 242.87 588.79
C 239.13 592.33 232.16 594.22 228.35 592.71"/>
</g>
</svg>
