<?xml version="1.0" encoding="UTF-8" standalone="no"?>
<!DOCTYPE svg PUBLIC "-//W3C//DTD SVG 1.1//EN"
"http://www.w3.org/Graphics/SVG/1.1/DTD/svg11.dtd">
<svg width="626px" height="500px"
xmlns="http://www.w3.org/2000/svg" version="1.1">
<g transform="translate(0000, 0000) scale(1.0000, 1.0000)">
<path fill="#000000" stroke="none" d="
M 1.29 498.71
C 0.58 498.00 0.00 495.67 0.00 493.51
C 0.00 489.59 1.02 487.82 21.85 455.58
C 27.40 447.00 31.85 443.14 36.24 443.13
L 38.66 443.13
L 38.66 277.04
L 38.66 110.93
L 34.41 102.17
C 27.35 87.59 27.26 86.86 31.06 75.28
C 32.88 69.76 34.36 64.58 34.36 63.74
C 34.36 62.56 32.45 62.23 25.77 62.23
C 14.79 62.23 12.89 60.73 12.89 52.04
C 12.89 42.62 13.63 42.24 33.94 41.57
C 57.38 40.77 63.05 39.12 115.54 17.79
C 170.25 -4.44 200.34 -5.59 238.06 13.14
C 249.38 18.76 257.56 24.27 267.90 33.21
C 280.65 44.23 279.65 43.99 313.00 43.99
C 346.35 43.99 345.35 44.23 358.10 33.21
C 382.56 12.05 411.98 -0.01 439.04 0.01
C 458.93 0.02 479.07 5.04 510.57 17.84
C 562.97 39.12 568.63 40.77 592.06 41.57
C 612.37 42.24 613.11 42.62 613.11 52.04
C 613.11 60.73 611.21 62.23 600.23 62.23
C 593.55 62.23 591.64 62.56 591.64 63.74
C 591.64 64.58 593.12 69.76 594.94 75.28
C 598.74 86.86 598.65 87.59 591.59 102.17
L 587.34 110.93
L 587.34 277.04
L 587.34 443.13
L 589.76 443.13
C 594.15 443.14 598.60 447.00 604.15 455.58
C 624.98 487.82 626.00 489.59 626.00 493.51
C 626.00 495.67 625.42 498.00 624.71 498.71
C 622.83 500.59 3.17 500.59 1.29 498.71
M 620.02 493.68
C 620.34 493.15 618.04 488.94 614.91 484.29
C 611.77 479.66 606.65 471.60 603.52 466.38
C 600.39 461.18 596.03 455.02 593.83 452.70
L 589.83 448.50
L 313.00 448.50
L 36.17 448.50
L 32.17 452.70
C 29.97 455.02 25.61 461.18 22.48 466.38
C 19.35 471.60 14.23 479.66 11.09 484.29
C 7.96 488.94 5.66 493.15 5.98 493.68
C 6.76 494.95 619.24 494.95 620.02 493.68
M 55.84 275.41
L 55.84 107.67
L 60.67 97.76
C 63.33 92.30 65.52 87.26 65.54 86.57
C 65.57 85.87 64.01 80.12 62.05 73.79
L 58.52 62.26
L 49.93 62.26
L 41.34 62.26
L 37.81 73.79
C 35.85 80.12 34.29 85.87 34.32 86.57
C 34.34 87.26 36.53 92.30 39.19 97.76
L 44.02 107.67
L 44.02 275.41
L 44.02 443.13
L 49.93 443.13
L 55.84 443.13
L 55.84 275.41
M 104.61 433.74
C 106.01 416.00 110.62 403.58 118.85 395.34
C 122.58 391.62 128.28 388.25 142.68 381.23
C 160.04 372.77 162.22 371.37 169.16 364.38
C 173.32 360.19 181.05 350.49 186.34 342.83
C 206.38 313.84 217.05 306.92 241.79 306.89
C 249.82 306.87 252.56 307.25 253.87 308.55
C 255.32 310.01 255.55 314.43 255.55 340.62
C 255.55 376.44 255.81 375.54 245.27 376.37
C 241.77 376.64 238.31 377.35 237.57 377.94
C 236.55 378.76 236.23 386.72 236.23 411.07
L 236.23 443.13
L 253.94 443.13
L 271.66 443.13
L 271.66 280.26
L 271.66 117.37
L 267.54 108.85
C 260.24 93.76 260.24 93.72 264.17 81.49
C 266.35 74.71 267.34 69.82 266.91 68.10
C 265.83 63.77 259.07 57.12 247.10 48.66
C 222.54 31.27 201.29 22.53 183.57 22.53
C 165.39 22.53 131.67 33.08 95.01 50.25
C 86.15 54.40 75.87 58.63 72.19 59.65
C 67.25 61.02 65.50 62.00 65.50 63.38
C 65.50 64.41 66.98 69.76 68.80 75.28
C 72.60 86.86 72.51 87.59 65.45 102.17
L 61.20 110.93
L 61.20 277.04
L 61.20 443.13
L 82.53 443.13
L 103.85 443.13
L 104.61 433.74
M 230.86 409.33
C 230.86 376.96 230.94 375.45 233.01 373.39
C 234.66 371.74 236.58 371.24 241.38 371.24
C 244.81 371.24 248.19 370.67 248.90 369.96
C 249.83 369.02 250.19 361.34 250.19 342.14
C 250.19 309.96 250.96 311.71 237.11 312.50
C 229.71 312.92 226.34 313.68 221.48 316.03
C 212.83 320.23 201.15 332.38 189.57 349.25
C 174.84 370.72 170.23 374.73 147.49 385.82
C 132.90 392.93 127.38 396.21 123.55 400.05
C 115.63 407.97 111.43 418.81 109.95 435.17
L 109.22 443.13
L 170.04 443.13
L 230.86 443.13
L 230.86 409.33
M 284.55 278.63
L 284.55 114.11
L 289.38 104.20
C 292.04 98.73 294.23 93.70 294.25 93.00
C 294.28 92.31 292.72 86.56 290.76 80.23
L 287.23 68.70
L 280.79 68.70
L 274.34 68.70
L 270.81 80.23
C 268.86 86.56 267.29 92.31 267.32 93.00
C 267.34 93.70 269.55 98.73 272.20 104.20
L 277.03 114.11
L 277.03 278.63
L 277.03 443.13
L 280.79 443.13
L 284.55 443.13
L 284.55 278.63
M 336.09 280.26
L 336.09 117.37
L 331.84 108.61
C 324.78 94.02 324.69 93.29 328.49 81.72
C 330.31 76.20 331.79 71.02 331.79 70.18
C 331.79 68.94 328.45 68.67 313.00 68.67
C 297.55 68.67 294.21 68.94 294.21 70.18
C 294.21 71.02 295.69 76.20 297.51 81.72
C 301.31 93.29 301.22 94.02 294.16 108.61
L 289.91 117.37
L 289.91 280.26
L 289.91 443.13
L 313.00 443.13
L 336.09 443.13
L 336.09 280.26
M 348.97 278.63
L 348.97 114.11
L 353.80 104.20
C 356.47 98.73 358.66 93.70 358.68 93.00
C 358.71 92.31 357.14 86.56 355.19 80.23
L 351.66 68.70
L 345.21 68.70
L 338.77 68.70
L 335.24 80.23
C 333.28 86.56 331.72 92.31 331.75 93.00
C 331.77 93.70 333.96 98.73 336.62 104.20
L 341.45 114.11
L 341.45 278.63
L 341.45 443.13
L 345.21 443.13
L 348.97 443.13
L 348.97 278.63
M 389.77 411.07
C 389.77 386.72 389.45 378.76 388.43 377.94
C 387.69 377.35 384.23 376.64 380.73 376.37
C 370.19 375.54 370.45 376.44 370.45 340.62
C 370.45 314.43 370.68 310.01 372.13 308.55
C 373.44 307.25 376.18 306.87 384.21 306.89
C 408.95 306.92 419.62 313.84 439.66 342.83
C 444.95 350.49 452.68 360.19 456.84 364.38
C 463.78 371.37 465.96 372.77 483.32 381.23
C 497.72 388.25 503.42 391.62 507.15 395.34
C 515.38 403.58 519.99 416.00 521.39 433.74
L 522.15 443.13
L 543.47 443.13
L 564.80 443.13
L 564.80 277.04
L 564.80 110.93
L 560.55 102.17
C 553.49 87.59 553.40 86.86 557.20 75.28
C 559.02 69.76 560.50 64.41 560.50 63.38
C 560.50 62.00 558.75 61.02 553.81 59.65
C 550.13 58.63 539.85 54.40 530.99 50.25
C 494.33 33.08 460.61 22.53 442.43 22.53
C 424.71 22.53 403.46 31.27 378.90 48.66
C 366.93 57.12 360.17 63.77 359.09 68.10
C 358.66 69.82 359.65 74.71 361.83 81.49
C 365.76 93.72 365.76 93.76 358.46 108.85
L 354.34 117.37
L 354.34 280.26
L 354.34 443.13
L 372.06 443.13
L 389.77 443.13
L 389.77 411.07
M 516.05 435.17
C 514.57 418.81 510.37 407.97 502.45 400.05
C 498.62 396.21 493.10 392.93 478.51 385.82
C 455.77 374.73 451.16 370.72 436.43 349.25
C 424.85 332.38 413.17 320.23 404.52 316.03
C 399.66 313.68 396.29 312.92 388.89 312.50
C 375.04 311.71 375.81 309.96 375.81 342.14
C 375.81 361.34 376.17 369.02 377.10 369.96
C 377.81 370.67 381.19 371.24 384.62 371.24
C 389.42 371.24 391.34 371.74 392.99 373.39
C 395.06 375.45 395.14 376.96 395.14 409.33
L 395.14 443.13
L 455.96 443.13
L 516.78 443.13
L 516.05 435.17
M 581.98 275.41
L 581.98 107.67
L 586.81 97.76
C 589.47 92.30 591.66 87.26 591.68 86.57
C 591.71 85.87 590.15 80.12 588.19 73.79
L 584.66 62.26
L 576.07 62.26
L 567.48 62.26
L 563.95 73.79
C 561.99 80.12 560.43 85.87 560.46 86.57
C 560.48 87.26 562.67 92.30 565.33 97.76
L 570.16 107.67
L 570.16 275.41
L 570.16 443.13
L 576.07 443.13
L 581.98 443.13
L 581.98 275.41
M 358.56 57.09
C 374.32 40.73 405.57 23.09 426.80 18.56
C 449.96 13.62 486.69 22.56 533.66 44.57
C 558.22 56.08 561.50 56.87 585.37 56.87
C 599.34 56.87 605.54 56.49 606.46 55.58
C 608.14 53.89 608.11 49.91 606.40 48.54
C 605.66 47.95 597.81 47.22 588.96 46.91
C 567.59 46.17 559.91 44.06 518.09 27.38
C 482.47 13.19 471.07 9.44 455.81 6.95
C 438.76 4.16 427.26 5.04 410.71 10.40
C 393.83 15.86 377.20 25.30 364.00 36.90
C 359.58 40.79 353.56 45.19 350.64 46.66
L 345.33 49.36
L 313.00 49.36
L 280.67 49.36
L 275.36 46.66
C 272.44 45.19 266.42 40.79 262.00 36.90
C 240.52 18.03 210.35 5.35 186.91 5.36
C 168.04 5.38 151.65 9.95 107.91 27.38
C 66.09 44.06 58.41 46.17 37.04 46.91
C 28.19 47.22 20.34 47.95 19.60 48.54
C 17.89 49.91 17.86 53.89 19.54 55.58
C 20.46 56.49 26.66 56.87 40.63 56.87
C 64.50 56.87 67.78 56.08 92.34 44.57
C 101.50 40.28 116.47 33.99 125.63 30.60
C 174.80 12.35 199.41 12.78 233.84 32.48
C 247.17 40.11 264.25 52.79 269.02 58.59
L 272.87 63.30
L 312.72 63.30
L 352.57 63.30
L 358.56 57.09"/>
<path fill="#ef907a" stroke="none" d="
M 44.02 275.41
L 44.02 107.67
L 39.19 97.76
C 36.53 92.30 34.34 87.26 34.32 86.57
C 34.29 85.87 35.85 80.12 37.81 73.79
L 41.34 62.26
L 49.93 62.26
L 58.52 62.26
L 62.05 73.79
C 64.01 80.12 65.57 85.87 65.54 86.57
C 65.52 87.26 63.33 92.30 60.67 97.76
L 55.84 107.67
L 55.84 275.41
L 55.84 443.13
L 49.93 443.13
L 44.02 443.13
L 44.02 275.41"/>
<path fill="#ef907a" stroke="none" d="
M 277.03 278.63
L 277.03 114.11
L 272.20 104.20
C 269.55 98.73 267.34 93.70 267.32 93.00
C 267.29 92.31 268.86 86.56 270.81 80.23
L 274.34 68.70
L 280.79 68.70
L 287.23 68.70
L 290.76 80.23
C 292.72 86.56 294.28 92.31 294.25 93.00
C 294.23 93.70 292.04 98.73 289.38 104.20
L 284.55 114.11
L 284.55 278.63
L 284.55 443.13
L 280.79 443.13
L 277.03 443.13
L 277.03 278.63"/>
<path fill="#ef907a" stroke="none" d="
M 341.45 278.63
L 341.45 114.11
L 336.62 104.20
C 333.96 98.73 331.77 93.70 331.75 93.00
C 331.72 92.31 333.28 86.56 335.24 80.23
L 338.77 68.70
L 345.21 68.70
L 351.66 68.70
L 355.19 80.23
C 357.14 86.56 358.71 92.31 358.68 93.00
C 358.66 93.70 356.47 98.73 353.80 104.20
L 348.97 114.11
L 348.97 278.63
L 348.97 443.13
L 345.21 443.13
L 341.45 443.13
L 341.45 278.63"/>
<path fill="#ef907a" stroke="none" d="
M 570.16 275.41
L 570.16 107.67
L 565.33 97.76
C 562.67 92.30 560.48 87.26 560.46 86.57
C 560.43 85.87 561.99 80.12 563.95 73.79
L 567.48 62.26
L 576.07 62.26
L 584.66 62.26
L 588.19 73.79
C 590.15 80.12 591.71 85.87 591.68 86.57
C 591.66 87.26 589.47 92.30 586.81 97.76
L 581.98 107.67
L 581.98 275.41
L 581.98 443.13
L 576.07 443.13
L 570.16 443.13
L 570.16 275.41"/>
<path fill="#ef907a" stroke="none" d="
M 269.02 58.59
C 264.25 52.79 247.17 40.11 233.84 32.48
C 199.41 12.78 174.80 12.35 125.63 30.60
C 116.47 33.99 101.50 40.28 92.34 44.57
C 67.78 56.08 64.50 56.87 40.63 56.87
C 26.66 56.87 20.46 56.49 19.54 55.58
C 17.86 53.89 17.89 49.91 19.60 48.54
C 20.34 47.95 28.19 47.22 37.04 46.91
C 58.41 46.17 66.09 44.06 107.91 27.38
C 144.28 12.89 155.29 9.30 170.73 6.94
C 188.35 4.24 198.75 5.04 215.29 10.40
C 232.17 15.86 248.80 25.30 262.00 36.90
C 266.42 40.79 272.44 45.19 275.36 46.66
L 280.67 49.36
L 313.00 49.36
L 345.33 49.36
L 350.64 46.66
C 353.56 45.19 359.58 40.79 364.00 36.90
C 385.48 18.03 415.65 5.35 439.09 5.36
C 457.96 5.38 474.35 9.95 518.09 27.38
C 559.91 44.06 567.59 46.17 588.96 46.91
C 597.81 47.22 605.66 47.95 606.40 48.54
C 608.11 49.91 608.14 53.89 606.46 55.58
C 605.54 56.49 599.34 56.87 585.37 56.87
C 561.50 56.87 558.22 56.08 533.66 44.57
C 486.69 22.56 449.96 13.62 426.80 18.56
C 405.57 23.09 374.32 40.73 358.56 57.09
L 352.57 63.30
L 312.72 63.30
L 272.87 63.30
L 269.02 58.59"/>
<path fill="#f3b447" stroke="none" d="
M 109.95 435.17
C 111.43 418.81 115.63 407.97 123.55 400.05
C 127.38 396.21 132.90 392.93 147.49 385.82
C 170.23 374.73 174.84 370.72 189.57 349.25
C 201.06 332.52 212.84 320.21 221.33 316.11
C 225.97 313.86 229.59 313.04 236.95 312.56
C 250.98 311.65 250.19 309.88 250.19 342.14
C 250.19 361.34 249.83 369.02 248.90 369.96
C 248.19 370.67 244.81 371.24 241.38 371.24
C 236.58 371.24 234.66 371.74 233.01 373.39
C 230.94 375.45 230.86 376.96 230.86 409.33
L 230.86 443.13
L 170.04 443.13
L 109.22 443.13
L 109.95 435.17"/>
<path fill="#f3b447" stroke="none" d="
M 395.14 409.33
C 395.14 376.96 395.06 375.45 392.99 373.39
C 391.34 371.74 389.42 371.24 384.62 371.24
C 381.19 371.24 377.81 370.67 377.10 369.96
C 376.17 369.02 375.81 361.34 375.81 342.14
C 375.81 309.96 375.04 311.71 388.89 312.50
C 396.29 312.92 399.66 313.68 404.52 316.03
C 413.17 320.23 424.85 332.38 436.43 349.25
C 451.16 370.72 455.77 374.73 478.51 385.82
C 493.10 392.93 498.62 396.21 502.45 400.05
C 510.37 407.97 514.57 418.81 516.05 435.17
L 516.78 443.13
L 455.96 443.13
L 395.14 443.13
L 395.14 409.33"/>
<path fill="#c55436" stroke="none" d="
M 5.98 493.68
C 5.66 493.15 7.96 488.94 11.09 484.29
C 14.23 479.66 19.26 471.76 22.27 466.74
C 25.29 461.72 29.42 455.69 31.47 453.33
L 35.19 449.03
L 312.51 448.76
L 589.81 448.49
L 593.83 452.70
C 596.03 455.02 600.39 461.18 603.52 466.38
C 606.65 471.60 611.77 479.66 614.91 484.29
C 618.04 488.94 620.34 493.15 620.02 493.68
C 619.24 494.95 6.76 494.95 5.98 493.68"/>
</g>
</svg>
