<?xml version="1.0" encoding="UTF-8" standalone="no"?>
<!DOCTYPE svg PUBLIC "-//W3C//DTD SVG 1.1//EN"
"http://www.w3.org/Graphics/SVG/1.1/DTD/svg11.dtd">
<svg width="600px" height="335px"
xmlns="http://www.w3.org/2000/svg" version="1.1">
<g transform="translate(0000, 0000) scale(1.0000, 1.0000)">
<path fill="#000000" stroke="none" d="
M 2.68 332.31
C 0.12 329.74 0.00 327.83 0.00 290.60
C 0.00 253.38 0.12 251.47 2.68 248.90
C 5.19 246.38 7.15 246.20 33.93 246.20
C 56.71 246.20 63.05 245.81 65.28 244.25
C 67.05 243.00 87.42 198.75 121.61 121.89
C 163.09 28.64 175.77 1.33 177.85 0.77
C 179.33 0.36 231.92 0.03 294.71 0.01
C 383.99 0.00 409.37 0.36 411.11 1.68
C 412.34 2.61 438.08 55.43 468.32 119.07
C 498.56 182.70 524.23 236.44 525.36 238.47
L 527.40 242.17
L 561.01 242.17
C 592.85 242.17 594.78 242.32 597.32 244.86
C 599.88 247.43 600.00 249.34 600.00 288.58
C 600.00 327.83 599.88 329.74 597.32 332.31
C 594.64 334.99 592.85 335.00 300.00 335.00
C 7.15 335.00 5.36 334.99 2.68 332.31
M 587.65 322.62
C 589.95 320.32 589.95 256.85 587.65 254.55
C 586.48 253.38 577.05 252.93 553.76 252.90
C 536.00 252.90 520.79 252.45 519.97 251.90
C 519.14 251.36 493.28 197.93 462.48 133.19
C 431.70 68.45 405.64 14.11 404.56 12.44
L 402.62 9.42
L 294.60 9.42
C 193.34 9.42 186.43 9.57 184.23 11.79
C 182.94 13.08 158.09 68.02 129.02 133.88
C 99.95 199.72 75.21 254.36 74.07 255.29
C 72.54 256.51 64.16 256.97 42.97 256.97
C 22.20 256.97 13.50 257.43 12.35 258.58
C 10.07 260.87 10.07 320.34 12.35 322.62
C 14.70 324.98 585.30 324.98 587.65 322.62"/>
<path fill="#fbb4a3" stroke="none" d="
M 12.35 322.62
C 10.07 320.34 10.07 260.87 12.35 258.58
C 13.50 257.43 22.20 256.97 42.97 256.97
C 64.16 256.97 72.54 256.51 74.07 255.29
C 75.21 254.36 99.89 199.84 128.91 134.15
C 157.93 68.44 182.42 13.66 183.34 12.39
C 184.90 10.27 193.03 10.06 293.80 9.73
L 402.59 9.38
L 404.55 12.42
C 405.62 14.10 431.70 68.45 462.48 133.19
C 493.28 197.93 519.14 251.36 519.97 251.90
C 520.79 252.45 536.00 252.90 553.76 252.90
C 577.05 252.93 586.48 253.38 587.65 254.55
C 589.95 256.85 589.95 320.32 587.65 322.62
C 585.30 324.98 14.70 324.98 12.35 322.62"/>
</g>
</svg>
