<?xml version="1.0" encoding="UTF-8" standalone="no"?>
<!DOCTYPE svg PUBLIC "-//W3C//DTD SVG 1.1//EN"
"http://www.w3.org/Graphics/SVG/1.1/DTD/svg11.dtd">
<svg width="162px" height="600px"
xmlns="http://www.w3.org/2000/svg" version="1.1">
<g transform="translate(0000, 0000) scale(1.0000, 1.0000)">
<path fill="#000000" stroke="none" d="
M 2.57 597.44
C 0.17 595.04 0.00 593.17 0.00 568.59
C 0.00 536.78 -0.18 537.18 14.14 537.18
L 23.14 537.18
L 23.14 330.44
L 23.14 123.68
L 50.75 62.90
C 65.93 29.47 79.08 1.67 79.98 1.12
C 80.88 0.56 82.00 0.51 82.48 1.01
C 82.94 1.51 86.80 9.71 91.03 19.23
C 95.26 28.76 107.76 56.13 118.79 80.06
L 138.86 123.59
L 138.86 330.38
L 138.86 537.18
L 147.86 537.18
C 162.18 537.18 162.00 536.78 162.00 568.59
C 162.00 593.17 161.83 595.04 159.43 597.44
C 156.92 599.94 155.15 600.00 81.00 600.00
C 6.85 600.00 5.08 599.94 2.57 597.44
M 152.74 590.77
C 154.90 588.62 154.90 548.56 152.74 546.41
C 150.52 544.19 11.48 544.19 9.26 546.41
C 7.10 548.56 7.10 588.62 9.26 590.77
C 11.48 592.99 150.52 592.99 152.74 590.77
M 131.14 333.33
L 131.14 129.49
L 81.00 129.49
L 30.86 129.49
L 30.86 333.33
L 30.86 537.18
L 81.00 537.18
L 131.14 537.18
L 131.14 333.33
M 128.83 119.55
C 128.21 118.32 117.36 94.37 104.71 66.35
C 92.06 38.32 81.37 15.38 80.96 15.38
C 80.38 15.38 34.51 114.71 32.36 120.62
C 32.10 121.32 51.80 121.79 80.94 121.79
C 127.18 121.79 129.88 121.67 128.83 119.55"/>
<path fill="#ef907a" stroke="none" d="
M 30.86 333.33
L 30.86 129.49
L 81.00 129.49
L 131.14 129.49
L 131.14 333.33
L 131.14 537.18
L 81.00 537.18
L 30.86 537.18
L 30.86 333.33"/>
<path fill="#ef907a" stroke="none" d="
M 32.52 120.19
C 36.39 110.54 79.06 18.18 80.20 17.00
C 81.39 15.74 86.77 26.60 104.72 66.36
C 117.36 94.37 128.21 118.32 128.83 119.55
C 129.88 121.67 127.18 121.79 80.91 121.79
C 42.18 121.79 32.00 121.46 32.52 120.19"/>
<path fill="#c55436" stroke="none" d="
M 9.26 590.77
C 8.19 589.71 7.71 582.88 7.71 568.38
C 7.71 549.08 7.89 547.42 10.20 546.21
C 13.99 544.18 150.71 544.38 152.74 546.41
C 154.90 548.56 154.90 588.62 152.74 590.77
C 150.52 592.99 11.48 592.99 9.26 590.77"/>
</g>
</svg>
