<?xml version="1.0" encoding="UTF-8" standalone="no"?>
<!DOCTYPE svg PUBLIC "-//W3C//DTD SVG 1.1//EN"
"http://www.w3.org/Graphics/SVG/1.1/DTD/svg11.dtd">
<svg width="418px" height="600px"
xmlns="http://www.w3.org/2000/svg" version="1.1">
<g transform="translate(0000, 0000) scale(1.0000, 1.0000)">
<path fill="#000000" stroke="none" d="
M 3.40 596.32
L -0.00 592.75
L -0.00 572.14
C 0.00 551.62 0.01 551.51 3.15 548.59
C 6.01 545.96 7.43 545.68 17.91 545.68
L 29.51 545.68
L 31.35 539.20
C 32.38 535.63 45.29 487.43 60.07 432.10
C 74.84 376.77 87.12 331.26 87.36 330.98
C 87.58 330.70 95.03 329.26 103.88 327.78
C 112.74 326.30 120.34 324.72 120.77 324.28
C 121.21 323.85 131.48 267.23 143.62 198.48
C 159.64 107.57 166.71 70.26 169.49 61.73
C 174.88 45.25 187.87 19.11 194.22 11.93
C 201.67 3.52 212.71 -2.99 212.71 1.04
C 212.71 1.60 214.02 2.67 215.62 3.40
C 223.38 6.93 240.40 37.11 248.49 61.73
C 251.32 70.35 258.21 106.67 274.38 198.48
C 286.52 267.23 296.79 323.85 297.23 324.28
C 297.66 324.72 305.26 326.30 314.12 327.78
C 322.97 329.26 330.42 330.70 330.64 330.98
C 330.88 331.26 343.16 376.77 357.93 432.10
C 372.71 487.43 385.62 535.63 386.65 539.20
L 388.49 545.68
L 400.09 545.68
C 410.57 545.68 411.99 545.96 414.85 548.59
C 417.99 551.51 418.00 551.62 418.00 572.15
L 418.00 592.78
L 414.39 596.40
L 410.77 600.00
L 208.79 599.94
L 6.80 599.88
L 3.40 596.32
M 400.44 587.41
C 402.47 585.38 402.47 561.53 400.44 559.51
C 398.29 557.36 19.71 557.36 17.56 559.51
C 15.53 561.53 15.53 585.38 17.56 587.41
C 19.71 589.56 398.29 589.56 400.44 587.41
M 366.08 541.67
C 366.10 539.46 355.94 493.91 343.51 440.44
L 320.92 343.22
L 209.00 343.22
L 97.08 343.22
L 74.49 440.44
C 62.06 493.91 51.90 539.46 51.92 541.67
L 51.94 545.68
L 209.00 545.68
L 366.06 545.68
L 366.08 541.67
M 283.20 324.09
C 283.20 319.73 245.85 88.77 242.92 75.00
L 242.19 71.60
L 209.00 71.60
L 175.81 71.60
L 175.08 75.00
C 172.15 88.77 134.80 319.73 134.80 324.09
L 134.80 329.63
L 209.00 329.63
L 283.20 329.63
L 283.20 324.09
M 225.87 54.01
C 224.77 49.70 209.77 23.57 208.38 23.54
C 207.07 23.52 190.45 53.07 190.45 55.42
C 190.45 56.36 196.13 56.79 208.52 56.79
L 226.59 56.79
L 225.87 54.01"/>
<path fill="#ef907a" stroke="none" d="
M 134.80 324.09
C 134.80 319.73 172.15 88.77 175.08 75.00
L 175.81 71.60
L 209.00 71.60
L 242.19 71.60
L 242.92 75.00
C 245.85 88.77 283.20 319.73 283.20 324.09
L 283.20 329.63
L 209.00 329.63
L 134.80 329.63
L 134.80 324.09"/>
<path fill="#ef907a" stroke="none" d="
M 190.46 55.25
C 190.49 53.02 206.91 24.31 208.38 23.91
C 209.69 23.56 224.68 49.33 225.87 54.01
L 226.59 56.79
L 208.52 56.79
C 194.88 56.79 190.45 56.41 190.46 55.25"/>
<path fill="#fcf0ca" stroke="none" d="
M 51.94 541.41
C 51.94 537.62 95.88 346.46 97.28 344.14
C 97.59 343.63 148.03 343.21 209.38 343.22
L 320.92 343.22
L 343.51 440.44
C 355.94 493.91 366.10 539.46 366.08 541.67
L 366.06 545.68
L 209.00 545.68
L 51.94 545.68
L 51.94 541.41"/>
<path fill="#c55436" stroke="none" d="
M 17.56 587.41
C 16.60 586.44 16.08 581.47 16.08 573.26
C 16.08 561.99 16.34 560.44 18.46 559.31
C 22.15 557.33 398.46 557.53 400.44 559.51
C 402.47 561.53 402.47 585.38 400.44 587.41
C 398.29 589.56 19.71 589.56 17.56 587.41"/>
</g>
</svg>
