<?xml version="1.0" encoding="UTF-8" standalone="no"?>
<!DOCTYPE svg PUBLIC "-//W3C//DTD SVG 1.1//EN"
"http://www.w3.org/Graphics/SVG/1.1/DTD/svg11.dtd">
<svg width="124px" height="600px"
xmlns="http://www.w3.org/2000/svg" version="1.1">
<g transform="translate(0000, 0000) scale(1.0000, 1.0000)">
<path fill="#000000" stroke="none" d="
M 47.12 596.07
C 36.45 587.68 27.48 572.44 21.02 551.74
L 17.73 541.19
L 18.38 491.26
L 19.03 441.32
L 29.37 330.54
C 35.07 269.60 40.51 211.40 41.46 201.20
C 43.20 182.69 43.20 182.57 40.23 170.06
C 38.32 161.95 35.08 153.05 31.16 145.02
C 25.59 133.65 23.92 131.45 12.52 120.38
C 5.63 113.70 0.00 107.80 0.00 107.27
C 0.00 106.75 2.09 103.82 4.66 100.77
C 15.58 87.72 25.46 69.08 36.16 41.26
C 49.80 5.81 53.57 0.00 62.90 0.00
C 71.70 0.00 75.44 5.90 89.04 41.26
C 99.49 68.41 109.42 87.31 119.95 100.12
C 122.18 102.83 124.00 106.01 124.00 107.20
C 124.00 108.40 118.63 114.59 112.07 120.97
C 101.33 131.41 99.54 133.81 94.05 145.03
C 90.13 153.02 86.88 161.96 84.99 169.98
L 82.04 182.46
L 94.07 311.29
L 106.10 440.12
L 106.78 490.65
L 107.48 541.16
L 104.18 551.72
C 97.72 572.44 88.75 587.68 78.08 596.07
C 73.32 599.83 72.64 600.00 62.60 600.00
C 52.56 600.00 51.89 599.83 47.12 596.07
M 70.46 591.04
C 79.35 587.44 89.93 570.92 96.92 549.78
L 100.27 539.68
L 99.61 494.10
L 98.95 448.50
L 86.64 315.80
L 74.34 183.10
L 77.64 169.19
C 83.06 146.40 89.50 133.51 102.93 118.62
L 109.90 110.89
L 105.22 106.79
C 95.99 98.72 75.23 91.05 62.60 91.05
C 49.97 91.05 29.22 98.72 19.98 106.79
L 15.30 110.89
L 22.27 118.62
C 35.65 133.44 42.04 146.18 47.52 168.89
C 50.27 180.35 50.70 184.13 50.05 191.62
C 49.61 196.55 44.10 256.11 37.79 323.95
L 26.33 447.31
L 25.63 493.49
L 24.93 539.66
L 28.27 549.77
C 33.38 565.23 39.57 576.93 46.63 584.53
C 55.23 593.77 60.33 595.16 70.46 591.04
M 50.91 85.27
C 61.78 83.44 63.42 83.44 74.29 85.27
C 83.01 86.75 88.63 88.56 96.42 92.43
C 106.36 97.37 108.24 97.32 104.12 92.22
C 100.66 87.93 88.83 62.60 82.36 45.58
C 74.34 24.53 67.78 10.96 64.71 9.09
C 63.20 8.17 62.00 8.17 60.50 9.09
C 57.43 10.96 50.86 24.53 42.85 45.58
C 36.37 62.60 24.55 87.93 21.08 92.22
C 16.96 97.32 18.84 97.37 28.78 92.43
C 36.57 88.56 42.20 86.75 50.91 85.27"/>
<path fill="#fbc6ba" stroke="none" d="
M 57.51 592.56
C 47.69 590.00 35.84 572.65 28.27 549.77
L 24.93 539.66
L 25.63 493.49
L 26.33 447.31
L 37.79 323.95
C 44.10 256.11 49.61 196.55 50.05 191.62
C 50.70 184.13 50.27 180.35 47.52 168.89
C 42.04 146.18 35.65 133.44 22.27 118.62
L 15.30 110.89
L 19.98 106.79
C 29.22 98.72 49.97 91.05 62.60 91.05
C 75.23 91.05 95.99 98.72 105.22 106.79
L 109.90 110.89
L 102.93 118.62
C 89.50 133.51 83.06 146.40 77.64 169.19
L 74.34 183.10
L 86.64 315.80
L 98.95 448.50
L 99.61 494.10
L 100.27 539.68
L 96.92 549.78
C 86.66 580.86 72.31 596.43 57.51 592.56"/>
<path fill="#fbc6ba" stroke="none" d="
M 19.26 95.22
C 19.26 94.31 19.79 93.23 20.43 92.84
C 22.78 91.39 35.44 64.77 42.38 46.71
C 55.98 11.27 60.88 4.00 66.54 10.83
C 69.80 14.75 74.64 25.47 83.02 47.25
C 89.80 64.89 102.46 91.41 104.77 92.84
C 105.41 93.23 105.94 94.31 105.94 95.22
C 105.94 96.41 102.94 95.46 95.78 92.05
C 88.64 88.63 82.18 86.61 74.11 85.25
C 63.48 83.45 61.72 83.45 51.09 85.25
C 43.03 86.61 36.56 88.63 29.42 92.05
C 22.26 95.46 19.26 96.41 19.26 95.22"/>
<path fill="#3f7fbf" stroke="none" d="
M 105.94 97.60
C 105.94 97.27 106.21 97.01 106.54 97.01
C 106.88 97.01 107.15 97.27 107.15 97.60
C 107.15 97.94 106.88 98.20 106.54 98.20
C 106.21 98.20 105.94 97.94 105.94 97.60"/>
</g>
</svg>
