<?xml version="1.0" encoding="UTF-8" standalone="no"?>
<!DOCTYPE svg PUBLIC "-//W3C//DTD SVG 1.1//EN"
"http://www.w3.org/Graphics/SVG/1.1/DTD/svg11.dtd">
<svg width="637px" height="500px"
xmlns="http://www.w3.org/2000/svg" version="1.1">
<g transform="translate(0000, 0000) scale(1.0000, 1.0000)">
<path fill="#000000" stroke="none" d="
M 66.04 497.87
C 63.93 495.77 63.91 494.33 63.91 312.69
L 63.91 129.63
L 31.96 67.11
C 14.38 32.72 0.00 4.05 0.00 3.39
C 0.00 0.98 4.39 0.00 15.25 0.00
C 24.30 0.00 26.81 0.35 28.63 1.86
C 29.86 2.88 41.30 23.55 54.05 47.80
C 66.80 72.03 77.81 92.05 78.53 92.29
C 79.33 92.54 88.50 75.36 102.47 47.45
C 120.88 10.66 125.63 1.97 127.85 1.05
C 129.39 0.41 135.83 0.05 142.66 0.23
C 152.45 0.48 154.97 0.86 155.85 2.27
C 156.70 3.62 150.24 17.55 125.88 66.84
L 94.80 129.69
L 94.80 312.72
C 94.80 494.33 94.78 495.77 92.67 497.87
C 90.81 499.73 89.13 500.00 79.36 500.00
C 69.59 500.00 67.91 499.73 66.04 497.87
M 86.07 492.34
C 87.05 491.36 87.35 449.41 87.35 310.03
L 87.35 129.01
L 116.65 69.15
C 139.51 22.46 145.69 8.97 144.75 7.83
C 143.41 6.21 134.56 5.86 132.24 7.33
C 131.44 7.84 119.37 30.69 105.42 58.12
C 91.47 85.54 79.49 107.98 78.79 107.98
C 78.09 107.98 65.64 85.54 51.12 58.11
C 36.60 30.68 24.07 7.83 23.29 7.33
C 20.98 5.87 13.17 6.23 11.82 7.85
C 10.87 9.01 17.04 22.01 40.99 69.12
L 71.37 128.91
L 71.37 309.99
C 71.37 449.40 71.67 491.36 72.65 492.34
C 74.31 494.00 84.41 494.00 86.07 492.34"/>
<path fill="#000000" stroke="none" d="
M 225.83 497.87
C 223.72 495.77 223.70 494.33 223.70 312.69
L 223.70 129.63
L 191.58 66.79
C 166.55 17.82 159.70 3.57 160.53 2.24
C 161.40 0.86 163.99 0.48 173.85 0.23
C 184.31 -0.02 186.42 0.21 188.37 1.83
C 189.62 2.87 201.08 23.55 213.83 47.80
C 226.58 72.03 237.60 92.05 238.31 92.29
C 239.11 92.54 248.28 75.36 262.26 47.45
C 280.66 10.66 285.41 1.97 287.63 1.05
C 289.17 0.41 295.61 0.05 302.45 0.23
C 312.24 0.48 314.75 0.86 315.63 2.27
C 316.49 3.62 310.02 17.55 285.66 66.84
L 254.59 129.69
L 254.59 312.72
C 254.59 494.33 254.57 495.77 252.46 497.87
C 250.59 499.73 248.91 500.00 239.14 500.00
C 229.37 500.00 227.69 499.73 225.83 497.87
M 245.85 492.34
C 246.83 491.36 247.13 449.41 247.13 310.03
L 247.13 129.01
L 276.43 69.15
C 299.29 22.46 305.47 8.97 304.54 7.83
C 303.19 6.21 294.34 5.86 292.02 7.33
C 291.22 7.84 279.15 30.69 265.21 58.12
C 251.25 85.54 239.27 107.98 238.58 107.98
C 237.87 107.98 225.42 85.54 210.90 58.11
C 196.38 30.68 183.86 7.83 183.07 7.33
C 180.77 5.87 172.95 6.23 171.61 7.85
C 170.65 9.01 176.83 22.01 200.77 69.12
L 231.15 128.91
L 231.15 309.99
C 231.15 449.40 231.45 491.36 232.43 492.34
C 234.09 494.00 244.19 494.00 245.85 492.34"/>
<path fill="#000000" stroke="none" d="
M 386.67 497.87
C 384.56 495.77 384.54 494.33 384.54 312.69
L 384.54 129.63
L 352.43 66.79
C 327.39 17.82 320.55 3.57 321.38 2.24
C 322.25 0.86 324.84 0.48 334.70 0.23
C 345.16 -0.02 347.27 0.21 349.22 1.83
C 350.47 2.87 361.93 23.55 374.68 47.80
C 387.43 72.03 398.44 92.05 399.16 92.29
C 399.96 92.54 409.13 75.36 423.10 47.45
C 441.51 10.66 446.26 1.97 448.48 1.05
C 450.02 0.41 456.46 0.05 463.30 0.23
C 473.08 0.48 475.60 0.86 476.48 2.27
C 477.33 3.62 470.87 17.55 446.51 66.84
L 415.43 129.69
L 415.43 312.72
C 415.43 494.33 415.41 495.77 413.30 497.87
C 411.44 499.73 409.76 500.00 399.99 500.00
C 390.22 500.00 388.54 499.73 386.67 497.87
M 406.70 492.34
C 407.68 491.36 407.98 449.41 407.98 310.03
L 407.98 129.01
L 437.28 69.15
C 460.14 22.46 466.32 8.97 465.38 7.83
C 464.04 6.21 455.19 5.86 452.87 7.33
C 452.07 7.84 440.00 30.69 426.06 58.12
C 412.10 85.54 400.12 107.98 399.42 107.98
C 398.72 107.98 386.27 85.54 371.75 58.11
C 357.23 30.68 344.70 7.83 343.92 7.33
C 341.62 5.87 333.80 6.23 332.45 7.85
C 331.50 9.01 337.67 22.01 361.62 69.12
L 392.00 128.91
L 392.00 309.99
C 392.00 449.40 392.30 491.36 393.28 492.34
C 394.94 494.00 405.04 494.00 406.70 492.34"/>
<path fill="#000000" stroke="none" d="
M 546.46 497.87
C 544.35 495.77 544.33 494.33 544.33 312.69
L 544.33 129.63
L 512.21 66.79
C 487.18 17.82 480.33 3.57 481.16 2.24
C 482.03 0.86 484.62 0.48 494.48 0.23
C 504.94 -0.02 507.05 0.21 509.00 1.83
C 510.25 2.87 521.71 23.55 534.46 47.80
C 547.21 72.03 558.23 92.05 558.94 92.29
C 559.74 92.54 568.91 75.36 582.89 47.45
C 601.29 10.66 606.04 1.97 608.26 1.05
C 609.81 0.41 616.24 0.05 623.08 0.23
C 632.87 0.48 635.38 0.86 636.26 2.27
C 637.12 3.62 630.65 17.55 606.29 66.84
L 575.22 129.69
L 575.22 312.72
C 575.22 494.33 575.20 495.77 573.09 497.87
C 571.22 499.73 569.54 500.00 559.77 500.00
C 550.00 500.00 548.32 499.73 546.46 497.87
M 566.48 492.34
C 567.46 491.36 567.76 449.41 567.76 310.03
L 567.76 129.01
L 597.07 69.15
C 619.92 22.46 626.10 8.97 625.17 7.83
C 623.82 6.21 614.97 5.86 612.65 7.33
C 611.85 7.84 599.78 30.69 585.84 58.12
C 571.88 85.54 559.90 107.98 559.21 107.98
C 558.50 107.98 546.05 85.54 531.53 58.11
C 517.01 30.68 504.49 7.83 503.70 7.33
C 501.40 5.87 493.58 6.23 492.24 7.85
C 491.28 9.01 497.46 22.01 521.40 69.12
L 551.78 128.91
L 551.78 309.99
C 551.78 449.40 552.08 491.36 553.06 492.34
C 554.72 494.00 564.82 494.00 566.48 492.34"/>
<path fill="#c57a36" stroke="none" d="
M 72.65 492.34
C 71.67 491.36 71.37 449.40 71.37 309.99
L 71.37 128.91
L 40.94 69.02
C 12.94 13.94 10.65 9.01 12.38 7.76
C 14.50 6.20 21.10 5.95 23.29 7.33
C 24.07 7.83 36.60 30.68 51.12 58.11
C 65.64 85.54 78.09 107.98 78.79 107.98
C 79.49 107.98 91.47 85.54 105.42 58.12
C 119.37 30.69 131.44 7.84 132.24 7.33
C 134.56 5.86 143.41 6.21 144.75 7.83
C 145.69 8.97 139.51 22.46 116.65 69.15
L 87.35 129.01
L 87.35 310.03
C 87.35 449.41 87.05 491.36 86.07 492.34
C 84.41 494.00 74.31 494.00 72.65 492.34"/>
<path fill="#c57a36" stroke="none" d="
M 232.43 492.34
C 231.45 491.36 231.15 449.40 231.15 309.99
L 231.15 128.91
L 200.77 69.12
C 176.83 22.01 170.65 9.01 171.61 7.85
C 172.95 6.23 180.77 5.87 183.07 7.33
C 183.86 7.83 196.38 30.68 210.90 58.11
C 225.42 85.54 237.87 107.98 238.58 107.98
C 239.27 107.98 251.25 85.54 265.21 58.12
C 279.15 30.69 291.22 7.84 292.02 7.33
C 294.34 5.86 303.19 6.21 304.54 7.83
C 305.47 8.97 299.29 22.46 276.43 69.15
L 247.13 129.01
L 247.13 310.03
C 247.13 449.41 246.83 491.36 245.85 492.34
C 244.19 494.00 234.09 494.00 232.43 492.34"/>
<path fill="#c57a36" stroke="none" d="
M 393.28 492.34
C 392.30 491.36 392.00 449.40 392.00 309.99
L 392.00 128.91
L 361.62 69.12
C 337.67 22.01 331.50 9.01 332.45 7.85
C 333.80 6.23 341.62 5.87 343.92 7.33
C 344.70 7.83 357.23 30.68 371.75 58.11
C 386.27 85.54 398.72 107.98 399.42 107.98
C 400.12 107.98 412.10 85.54 426.06 58.12
C 440.00 30.69 452.07 7.84 452.87 7.33
C 455.19 5.86 464.04 6.21 465.38 7.83
C 466.32 8.97 460.14 22.46 437.28 69.15
L 407.98 129.01
L 407.98 310.03
C 407.98 449.41 407.68 491.36 406.70 492.34
C 405.04 494.00 394.94 494.00 393.28 492.34"/>
<path fill="#c57a36" stroke="none" d="
M 553.06 492.34
C 552.08 491.36 551.78 449.40 551.78 309.99
L 551.78 128.91
L 521.40 69.12
C 497.46 22.01 491.28 9.01 492.24 7.85
C 493.58 6.23 501.40 5.87 503.70 7.33
C 504.49 7.83 517.01 30.68 531.53 58.11
C 546.05 85.54 558.50 107.98 559.21 107.98
C 559.90 107.98 571.88 85.54 585.84 58.12
C 599.78 30.69 611.85 7.84 612.65 7.33
C 614.97 5.86 623.82 6.21 625.17 7.83
C 626.10 8.97 619.92 22.46 597.07 69.15
L 567.76 129.01
L 567.76 310.03
C 567.76 449.41 567.46 491.36 566.48 492.34
C 564.82 494.00 554.72 494.00 553.06 492.34"/>
</g>
</svg>
