<?xml version="1.0" encoding="UTF-8" standalone="no"?>
<!DOCTYPE svg PUBLIC "-//W3C//DTD SVG 1.1//EN"
"http://www.w3.org/Graphics/SVG/1.1/DTD/svg11.dtd">
<svg width="415px" height="600px"
xmlns="http://www.w3.org/2000/svg" version="1.1">
<g transform="translate(0000, 0000) scale(1.0000, 1.0000)">
<path fill="#000000" stroke="none" d="
M 70.89 597.42
C 68.33 594.88 68.31 593.14 68.31 450.00
L 68.31 305.15
L 36.73 305.15
C 6.87 305.15 5.01 305.01 2.58 302.58
C 0.03 300.03 0.00 298.29 0.00 152.82
C 0.00 27.75 0.27 5.27 1.83 3.14
C 3.62 0.70 7.40 0.64 206.74 0.31
C 408.63 -0.03 409.83 -0.01 412.41 2.56
C 414.97 5.12 415.00 6.64 415.00 152.58
C 415.00 298.29 414.97 300.03 412.42 302.58
C 409.99 305.01 408.13 305.15 379.56 305.15
L 349.27 305.15
L 349.27 450.00
C 349.27 593.14 349.24 594.88 346.69 597.42
C 344.21 599.91 342.40 600.00 291.92 600.00
C 241.43 600.00 239.63 599.91 237.14 597.42
C 234.77 595.06 234.57 593.14 234.57 573.61
C 234.57 545.32 232.55 547.21 262.66 547.21
C 278.78 547.21 286.07 546.75 287.15 545.67
C 289.39 543.42 289.39 138.98 287.15 136.74
C 284.92 134.51 130.08 134.51 127.85 136.74
C 125.61 138.98 125.61 544.71 127.85 546.95
C 128.93 548.03 136.22 548.50 152.34 548.50
C 182.38 548.50 180.43 546.71 180.43 574.25
C 180.43 593.14 180.22 595.07 177.86 597.42
C 175.37 599.91 173.57 600.00 124.37 600.00
C 75.18 600.00 73.37 599.91 70.89 597.42
M 171.16 590.73
C 173.28 588.61 173.28 559.89 171.16 557.77
C 170.06 556.67 162.56 556.22 145.64 556.22
C 128.71 556.22 121.21 555.77 120.12 554.68
C 118.93 553.49 118.57 504.70 118.57 342.88
C 118.57 134.33 118.60 132.59 121.15 130.04
C 123.68 127.52 125.44 127.47 207.50 127.47
C 289.56 127.47 291.32 127.52 293.85 130.04
C 296.40 132.59 296.43 134.33 296.43 341.20
C 296.43 548.07 296.40 549.81 293.85 552.36
C 291.47 554.74 289.56 554.94 268.33 554.94
C 252.21 554.94 244.93 555.40 243.84 556.48
C 241.71 558.62 241.71 588.59 243.84 590.73
C 246.06 592.94 337.77 592.94 339.99 590.73
C 342.25 588.48 342.25 91.35 339.99 89.10
C 337.75 86.86 79.83 86.86 77.59 89.10
C 75.33 91.35 75.33 588.48 77.59 590.73
C 79.80 592.94 168.94 592.94 171.16 590.73
M 68.31 191.20
C 68.31 86.69 68.35 84.94 70.89 82.40
C 73.42 79.87 75.18 79.83 208.79 79.83
C 342.40 79.83 344.15 79.87 346.69 82.40
C 349.23 84.94 349.27 86.69 349.27 191.20
L 349.27 297.42
L 376.72 297.42
C 396.35 297.42 404.61 296.99 405.72 295.88
C 407.96 293.64 407.96 11.51 405.72 9.27
C 403.48 7.03 11.52 7.03 9.28 9.27
C 7.04 11.51 7.04 293.64 9.28 295.88
C 10.39 296.99 18.93 297.42 39.57 297.42
L 68.31 297.42
L 68.31 191.20"/>
<path fill="#de924f" stroke="none" d="
M 9.28 295.88
C 8.09 294.70 7.73 261.06 7.73 152.37
C 7.73 13.31 7.78 10.36 10.22 9.06
C 14.06 7.00 403.66 7.21 405.72 9.27
C 407.96 11.51 407.96 293.64 405.72 295.88
C 404.61 296.99 396.35 297.42 376.72 297.42
L 349.27 297.42
L 349.27 191.20
C 349.27 86.69 349.23 84.94 346.69 82.40
C 344.15 79.87 342.40 79.83 208.79 79.83
C 75.18 79.83 73.42 79.87 70.89 82.40
C 68.35 84.94 68.31 86.69 68.31 191.20
L 68.31 297.42
L 39.57 297.42
C 18.93 297.42 10.39 296.99 9.28 295.88"/>
<path fill="#e8ad78" stroke="none" d="
M 77.59 590.73
C 76.39 589.53 76.04 532.03 76.04 339.71
C 76.04 94.36 76.08 90.19 78.53 88.89
C 82.36 86.85 337.94 87.05 339.99 89.10
C 342.25 91.35 342.25 588.48 339.99 590.73
C 337.77 592.94 246.06 592.94 243.84 590.73
C 241.71 588.59 241.71 558.62 243.84 556.48
C 244.93 555.40 252.21 554.94 268.33 554.94
C 289.56 554.94 291.47 554.74 293.85 552.36
C 296.40 549.81 296.43 548.07 296.43 341.20
C 296.43 134.33 296.40 132.59 293.85 130.04
C 291.32 127.52 289.56 127.47 207.50 127.47
C 125.44 127.47 123.68 127.52 121.15 130.04
C 118.60 132.59 118.57 134.33 118.57 342.88
C 118.57 504.70 118.93 553.49 120.12 554.68
C 121.21 555.77 128.71 556.22 145.64 556.22
C 162.56 556.22 170.06 556.67 171.16 557.77
C 173.28 559.89 173.28 588.61 171.16 590.73
C 168.94 592.94 79.80 592.94 77.59 590.73"/>
</g>
</svg>
