<?xml version="1.0" encoding="UTF-8" standalone="no"?>
<!DOCTYPE svg PUBLIC "-//W3C//DTD SVG 1.1//EN"
"http://www.w3.org/Graphics/SVG/1.1/DTD/svg11.dtd">
<svg width="706px" height="600px"
xmlns="http://www.w3.org/2000/svg" version="1.1">
<g transform="translate(0000, 0000) scale(1.0000, 1.0000)">
<path fill="#000000" stroke="none" d="
M 2.92 597.08
C 0.01 594.18 0.00 592.22 0.00 300.28
C 0.00 48.77 0.29 5.99 2.08 3.56
C 4.12 0.77 9.57 0.73 352.14 0.35
C 698.79 -0.01 700.15 0.00 703.06 2.91
C 705.99 5.82 706.00 7.49 706.00 300.00
C 706.00 592.22 705.99 594.18 703.08 597.08
C 700.17 599.99 698.21 600.00 353.00 600.00
C 7.79 600.00 5.83 599.99 2.92 597.08
M 42.39 346.72
L 42.39 102.19
L 25.58 102.19
L 8.77 102.19
L 8.77 344.96
C 8.77 531.84 9.18 588.15 10.52 589.49
C 11.66 590.63 17.57 591.24 27.33 591.24
L 42.39 591.24
L 42.39 346.72
M 83.32 346.72
L 83.32 102.19
L 67.24 102.19
L 51.16 102.19
L 51.16 346.72
L 51.16 591.24
L 67.24 591.24
L 83.32 591.24
L 83.32 346.72
M 127.17 346.72
L 127.17 102.19
L 109.63 102.19
L 92.09 102.19
L 92.09 346.72
L 92.09 591.24
L 109.63 591.24
L 127.17 591.24
L 127.17 346.72
M 168.10 346.72
L 168.10 102.19
L 152.02 102.19
L 135.94 102.19
L 135.94 346.72
L 135.94 591.24
L 152.02 591.24
L 168.10 591.24
L 168.10 346.72
M 206.10 346.72
L 206.10 102.19
L 191.48 102.19
L 176.87 102.19
L 176.87 346.72
L 176.87 591.24
L 191.48 591.24
L 206.10 591.24
L 206.10 346.72
M 496.98 432.12
L 496.98 272.99
L 355.92 272.99
L 214.87 272.99
L 214.87 432.12
L 214.87 591.24
L 355.92 591.24
L 496.98 591.24
L 496.98 432.12
M 539.37 346.72
L 539.37 102.19
L 522.56 102.19
L 505.75 102.19
L 505.75 346.72
L 505.75 591.24
L 522.56 591.24
L 539.37 591.24
L 539.37 346.72
M 583.22 346.72
L 583.22 102.19
L 565.68 102.19
L 548.14 102.19
L 548.14 346.72
L 548.14 591.24
L 565.68 591.24
L 583.22 591.24
L 583.22 346.72
M 621.22 346.72
L 621.22 102.19
L 606.60 102.19
L 591.99 102.19
L 591.99 346.72
L 591.99 591.24
L 606.60 591.24
L 621.22 591.24
L 621.22 346.72
M 663.61 346.72
L 663.61 102.19
L 646.80 102.19
L 629.99 102.19
L 629.99 346.72
L 629.99 591.24
L 646.80 591.24
L 663.61 591.24
L 663.61 346.72
M 695.48 589.49
C 696.82 588.15 697.23 531.84 697.23 344.96
L 697.23 102.19
L 684.81 102.19
L 672.38 102.19
L 672.38 346.72
L 672.38 591.24
L 683.05 591.24
C 689.40 591.24 694.44 590.53 695.48 589.49
M 496.98 246.72
L 496.98 229.20
L 355.92 229.20
L 214.87 229.20
L 214.87 246.72
L 214.87 264.23
L 355.92 264.23
L 496.98 264.23
L 496.98 246.72
M 496.98 201.46
L 496.98 182.48
L 355.92 182.48
L 214.87 182.48
L 214.87 201.46
L 214.87 220.44
L 355.92 220.44
L 496.98 220.44
L 496.98 201.46
M 496.98 156.93
L 496.98 140.15
L 355.92 140.15
L 214.87 140.15
L 214.87 156.93
L 214.87 173.72
L 355.92 173.72
L 496.98 173.72
L 496.98 156.93
M 496.98 116.79
L 496.98 102.19
L 355.92 102.19
L 214.87 102.19
L 214.87 116.79
L 214.87 131.39
L 355.92 131.39
L 496.98 131.39
L 496.98 116.79
M 697.23 74.45
L 697.23 55.47
L 353.00 55.47
L 8.77 55.47
L 8.77 74.45
L 8.77 93.43
L 353.00 93.43
L 697.23 93.43
L 697.23 74.45
M 697.23 29.49
C 697.23 18.04 696.65 11.68 695.48 10.51
C 692.92 7.96 13.08 7.96 10.52 10.51
C 9.35 11.68 8.77 18.04 8.77 29.49
L 8.77 46.72
L 353.00 46.72
L 697.23 46.72
L 697.23 29.49"/>
<path fill="#f3bfb3" stroke="none" d="
M 51.16 346.72
L 51.16 102.19
L 67.24 102.19
L 83.32 102.19
L 83.32 346.72
L 83.32 591.24
L 67.24 591.24
L 51.16 591.24
L 51.16 346.72"/>
<path fill="#f3bfb3" stroke="none" d="
M 135.94 346.72
L 135.94 102.19
L 152.02 102.19
L 168.10 102.19
L 168.10 346.72
L 168.10 591.24
L 152.02 591.24
L 135.94 591.24
L 135.94 346.72"/>
<path fill="#f3bfb3" stroke="none" d="
M 548.14 346.72
L 548.14 102.19
L 565.68 102.19
L 583.22 102.19
L 583.22 346.72
L 583.22 591.24
L 565.68 591.24
L 548.14 591.24
L 548.14 346.72"/>
<path fill="#f3bfb3" stroke="none" d="
M 629.99 346.72
L 629.99 102.19
L 646.80 102.19
L 663.61 102.19
L 663.61 346.72
L 663.61 591.24
L 646.80 591.24
L 629.99 591.24
L 629.99 346.72"/>
<path fill="#f3bfb3" stroke="none" d="
M 214.87 201.46
L 214.87 182.48
L 355.92 182.48
L 496.98 182.48
L 496.98 201.46
L 496.98 220.44
L 355.92 220.44
L 214.87 220.44
L 214.87 201.46"/>
<path fill="#f3bfb3" stroke="none" d="
M 214.87 116.79
L 214.87 102.19
L 355.92 102.19
L 496.98 102.19
L 496.98 116.79
L 496.98 131.39
L 355.92 131.39
L 214.87 131.39
L 214.87 116.79"/>
<path fill="#f3bfb3" stroke="none" d="
M 8.77 29.26
C 8.77 13.47 9.05 11.64 11.59 10.28
C 15.96 7.94 693.14 8.18 695.48 10.51
C 696.65 11.68 697.23 18.04 697.23 29.49
L 697.23 46.72
L 353.00 46.72
L 8.77 46.72
L 8.77 29.26"/>
<path fill="#eef18a" stroke="none" d="
M 10.52 589.49
C 9.18 588.15 8.77 531.84 8.77 344.96
L 8.77 102.19
L 25.58 102.19
L 42.39 102.19
L 42.39 346.72
L 42.39 591.24
L 27.33 591.24
C 17.57 591.24 11.66 590.63 10.52 589.49"/>
<path fill="#eef18a" stroke="none" d="
M 92.09 346.72
L 92.09 102.19
L 109.63 102.19
L 127.17 102.19
L 127.17 346.72
L 127.17 591.24
L 109.63 591.24
L 92.09 591.24
L 92.09 346.72"/>
<path fill="#eef18a" stroke="none" d="
M 176.87 346.72
L 176.87 102.19
L 191.48 102.19
L 206.10 102.19
L 206.10 346.72
L 206.10 591.24
L 191.48 591.24
L 176.87 591.24
L 176.87 346.72"/>
<path fill="#eef18a" stroke="none" d="
M 505.75 346.72
L 505.75 102.19
L 522.56 102.19
L 539.37 102.19
L 539.37 346.72
L 539.37 591.24
L 522.56 591.24
L 505.75 591.24
L 505.75 346.72"/>
<path fill="#eef18a" stroke="none" d="
M 591.99 346.72
L 591.99 102.19
L 606.60 102.19
L 621.22 102.19
L 621.22 346.72
L 621.22 591.24
L 606.60 591.24
L 591.99 591.24
L 591.99 346.72"/>
<path fill="#eef18a" stroke="none" d="
M 672.38 346.72
L 672.38 102.19
L 684.81 102.19
L 697.23 102.19
L 697.23 344.96
C 697.23 531.84 696.82 588.15 695.48 589.49
C 694.44 590.53 689.40 591.24 683.05 591.24
L 672.38 591.24
L 672.38 346.72"/>
<path fill="#eef18a" stroke="none" d="
M 214.87 246.72
L 214.87 229.20
L 355.92 229.20
L 496.98 229.20
L 496.98 246.72
L 496.98 264.23
L 355.92 264.23
L 214.87 264.23
L 214.87 246.72"/>
<path fill="#eef18a" stroke="none" d="
M 214.87 156.93
L 214.87 140.15
L 355.92 140.15
L 496.98 140.15
L 496.98 156.93
L 496.98 173.72
L 355.92 173.72
L 214.87 173.72
L 214.87 156.93"/>
<path fill="#eef18a" stroke="none" d="
M 9.09 74.82
L 9.50 56.20
L 353.37 55.84
L 697.23 55.47
L 697.23 74.45
L 697.23 93.43
L 352.96 93.43
L 8.68 93.43
L 9.09 74.82"/>
</g>
</svg>
