<?xml version="1.0" encoding="UTF-8" standalone="no"?>
<svg
   width="631px"
   height="400px"
   version="1.1"
   id="svg142"
   sodipodi:docname="O35.svg"
   inkscape:version="1.2.2 (732a01da63, 2022-12-09)"
   inkscape:export-filename="..\png\O35.png"
   inkscape:export-xdpi="300"
   inkscape:export-ydpi="300"
   xmlns:inkscape="http://www.inkscape.org/namespaces/inkscape"
   xmlns:sodipodi="http://sodipodi.sourceforge.net/DTD/sodipodi-0.dtd"
   xmlns="http://www.w3.org/2000/svg"
   xmlns:svg="http://www.w3.org/2000/svg">
  <defs
     id="defs146" />
  <sodipodi:namedview
     id="namedview144"
     pagecolor="#505050"
     bordercolor="#ffffff"
     borderopacity="1"
     inkscape:showpageshadow="0"
     inkscape:pageopacity="0"
     inkscape:pagecheckerboard="1"
     inkscape:deskcolor="#505050"
     showgrid="false"
     inkscape:zoom="1.9175911"
     inkscape:cx="267.00166"
     inkscape:cy="200.77273"
     inkscape:window-width="1920"
     inkscape:window-height="1009"
     inkscape:window-x="-8"
     inkscape:window-y="-8"
     inkscape:window-maximized="1"
     inkscape:current-layer="svg142" />
  <g
     transform="translate(0000, 0000) scale(1.0000, 1.0000)"
     id="g140">
    <path
       fill="#000000"
       stroke="none"
       d=" M 315.87 398.49 C 308.30 396.18 304.59 385.71 309.09 379.29 C 312.26 374.77 320.56 371.49 353.70 361.72 C 376.08 355.11 388.21 350.69 399.60 344.92 C 417.38 335.94 422.94 330.40 424.02 320.59 C 425.02 311.42 417.85 298.54 381.51 244.27 C 347.67 193.70 333.98 169.06 317.71 129.43 C 316.24 125.84 314.95 124.37 314.06 125.26 C 313.31 126.01 307.90 139.32 302.06 154.83 C 285.65 198.40 284.63 200.23 237.62 269.96 C 227.92 284.35 217.13 301.84 213.63 308.83 L 207.27 321.55 L 206.56 349.12 C 205.90 375.24 205.67 377.00 202.32 382.91 C 197.17 391.99 192.61 394.81 182.01 395.49 C 175.21 395.93 169.75 395.12 159.19 392.13 C 146.29 388.47 144.76 388.31 137.39 389.98 C 133.02 390.97 125.42 392.66 120.48 393.77 C 106.22 396.95 82.33 398.56 49.16 398.57 C 20.56 398.59 18.19 398.39 15.65 395.84 C 9.48 389.68 11.12 377.44 18.77 372.58 C 20.51 371.48 33.36 367.32 47.35 363.34 C 88.68 351.59 104.44 343.69 122.46 325.70 C 135.20 312.98 146.28 297.20 156.69 276.90 C 165.72 259.32 170.68 247.34 187.31 203.12 C 201.79 164.61 205.10 157.19 222.52 124.27 C 231.23 107.80 239.10 89.98 239.10 86.71 C 239.10 85.51 204.93 69.30 198.14 67.29 C 191.45 65.30 178.82 65.02 98.07 65.02 C -10.72 65.02 0.00 67.02 0.00 46.64 C 0.00 26.26 -10.72 28.27 98.07 28.27 C 177.71 28.27 191.51 27.96 197.92 26.06 C 202.02 24.85 214.20 19.49 225.01 14.15 C 249.13 2.25 262.46 -1.24 273.98 1.34 C 289.00 4.69 311.07 18.56 314.59 26.86 C 315.40 28.73 315.60 28.73 316.41 26.86 C 319.96 18.49 342.01 4.69 357.29 1.27 C 368.72 -1.27 381.67 2.15 406.09 14.20 C 436.78 29.34 427.03 28.27 532.93 28.27 C 641.72 28.27 631.00 26.26 631.00 46.64 C 631.00 67.02 641.71 65.02 533.03 65.03 C 473.96 65.03 438.67 65.55 435.05 66.50 C 431.94 67.31 419.20 72.85 406.75 78.83 C 394.30 84.81 383.95 89.78 383.72 89.88 C 383.51 89.98 385.65 93.50 388.48 97.68 C 391.30 101.87 396.44 110.91 399.91 117.77 C 403.36 124.64 412.44 141.81 420.08 155.93 C 439.59 191.96 458.48 232.55 477.75 279.86 C 482.02 290.36 490.24 308.86 496.00 320.98 C 514.24 359.34 515.95 375.36 503.13 388.17 C 497.40 393.91 489.86 397.17 482.45 397.13 C 480.49 397.13 473.53 395.22 466.95 392.90 C 460.38 390.59 453.56 388.69 451.82 388.69 C 450.06 388.69 444.06 391.08 438.47 393.99 L 428.32 399.29 L 374.38 399.59 C 342.11 399.77 318.61 399.32 315.87 398.49 M 436.18 386.18 C 442.25 382.90 448.65 380.21 450.40 380.21 C 452.16 380.21 460.49 382.47 468.91 385.23 L 484.21 390.23 L 490.77 387.00 C 498.48 383.17 503.61 375.21 503.64 367.04 C 503.68 359.52 497.99 343.38 489.00 325.43 C 484.81 317.07 477.18 299.97 472.06 287.41 C 450.32 234.08 436.39 204.89 396.98 129.95 C 390.20 117.07 382.31 103.48 379.43 99.72 C 374.21 92.89 374.21 92.89 365.02 92.55 C 359.74 92.35 352.33 90.88 347.63 89.09 C 336.76 84.96 322.57 75.31 319.04 69.67 C 317.48 67.17 315.90 65.13 315.50 65.13 C 315.10 65.13 313.52 67.17 311.96 69.67 C 308.45 75.28 294.28 84.93 283.37 89.13 C 274.63 92.48 263.52 93.30 253.57 91.31 L 247.53 90.09 L 245.09 96.25 C 243.74 99.63 234.64 118.33 224.87 137.78 C 211.71 163.94 203.65 182.35 193.88 208.48 C 166.61 281.55 153.10 307.04 128.58 331.75 C 110.07 350.37 93.84 358.42 49.15 371.07 C 22.40 378.66 16.45 382.06 20.20 387.69 C 22.20 390.70 23.26 390.83 48.27 391.25 C 80.22 391.77 106.07 389.68 124.16 385.10 C 141.41 380.73 148.02 380.73 163.27 385.16 C 182.78 390.80 188.99 389.53 195.26 378.59 C 198.60 372.76 198.82 371.00 199.49 344.82 L 200.19 317.20 L 207.71 302.29 C 211.84 294.09 222.56 276.62 231.53 263.48 C 275.55 198.97 279.55 191.83 295.00 150.53 C 305.92 121.33 307.46 117.98 310.60 116.78 C 317.44 114.16 322.09 117.98 326.82 130.04 C 332.93 145.65 355.09 189.07 364.08 203.10 C 369.16 211.01 379.11 225.77 386.18 235.89 C 414.14 275.92 428.34 300.23 431.44 313.39 C 435.04 328.62 426.34 341.37 405.34 351.62 C 391.16 358.54 383.24 361.34 352.28 370.43 C 325.84 378.19 317.81 381.51 316.36 385.27 C 315.23 388.20 317.54 391.14 321.61 392.01 C 323.31 392.37 347.29 392.55 374.92 392.41 L 425.15 392.14 L 436.18 386.18 M 283.57 80.11 C 301.58 71.82 309.78 61.34 309.78 46.64 C 309.78 31.93 301.55 21.43 283.57 13.20 C 266.69 5.48 258.02 6.86 227.40 22.13 C 217.45 27.10 205.70 32.08 201.28 33.24 C 194.58 34.98 178.00 35.34 101.85 35.34 C 32.67 35.34 10.06 35.75 8.77 37.03 C 6.56 39.24 6.56 54.05 8.77 56.25 C 10.06 57.54 32.67 57.95 101.85 57.95 C 178.02 57.95 194.58 58.30 201.28 60.04 C 205.71 61.20 217.14 66.05 226.69 70.84 C 236.24 75.63 247.24 80.72 251.13 82.15 C 261.02 85.78 272.86 85.03 283.57 80.11 M 377.81 82.53 C 382.02 81.29 393.61 76.18 403.57 71.21 C 413.53 66.22 425.30 61.20 429.72 60.04 C 436.42 58.30 453.00 57.95 529.15 57.95 C 598.33 57.95 620.94 57.54 622.23 56.25 C 624.44 54.05 624.44 39.24 622.23 37.03 C 620.94 35.75 598.33 35.34 529.15 35.34 C 453.00 35.34 436.42 34.98 429.72 33.24 C 425.30 32.08 413.55 27.10 403.60 22.13 C 372.98 6.86 364.31 5.48 347.43 13.20 C 329.45 21.43 321.22 31.93 321.22 46.64 C 321.22 56.83 324.92 64.71 332.66 70.97 C 348.07 83.45 362.39 87.11 377.81 82.53"
       id="path132" />
    <path
       fill="#eaa937"
       stroke="none"
       d=" M 251.13 82.15 C 247.24 80.72 236.24 75.63 226.69 70.84 C 217.14 66.05 205.71 61.20 201.28 60.04 C 194.58 58.30 178.02 57.95 101.85 57.95 C 32.67 57.95 10.06 57.54 8.77 56.25 C 6.56 54.05 6.56 39.24 8.77 37.03 C 10.06 35.75 32.67 35.34 101.85 35.34 C 178.00 35.34 194.58 34.98 201.28 33.24 C 205.70 32.08 217.51 27.05 227.51 22.05 C 257.25 7.15 267.00 5.63 283.64 13.23 C 301.54 21.43 309.78 31.94 309.78 46.64 C 309.78 56.85 306.08 64.68 298.24 71.10 C 283.48 83.19 265.46 87.42 251.13 82.15"
       id="path134"
       style="fill:#d40000" />
    <path
       fill="#eaa937"
       stroke="none"
       d=" M 354.41 82.83 C 340.67 78.49 327.84 68.99 323.85 60.18 C 322.31 56.81 321.22 51.19 321.22 46.64 C 321.22 31.93 329.45 21.43 347.43 13.20 C 364.31 5.48 372.98 6.86 403.60 22.13 C 413.55 27.10 425.30 32.08 429.72 33.24 C 436.42 34.98 453.00 35.34 529.15 35.34 C 598.33 35.34 620.94 35.75 622.23 37.03 C 624.44 39.24 624.44 54.05 622.23 56.25 C 620.94 57.54 598.33 57.95 529.15 57.95 C 453.00 57.95 436.42 58.30 429.72 60.04 C 425.30 61.20 413.53 66.22 403.57 71.21 C 376.85 84.58 367.18 86.87 354.41 82.83"
       id="path136"
       style="fill:#d40000" />
    <path
       fill="#ae3c2a"
       stroke="none"
       d=" M 321.61 392.01 C 317.54 391.14 315.23 388.20 316.36 385.27 C 317.81 381.51 325.84 378.19 352.28 370.43 C 383.24 361.34 391.16 358.54 405.34 351.62 C 426.34 341.37 435.04 328.62 431.44 313.39 C 428.34 300.23 414.14 275.92 386.18 235.89 C 379.11 225.77 369.16 211.01 364.08 203.10 C 355.09 189.07 332.93 145.65 326.82 130.04 C 322.09 117.98 317.44 114.16 310.60 116.78 C 307.46 117.98 305.92 121.33 295.00 150.53 C 279.55 191.83 275.55 198.97 231.53 263.48 C 222.56 276.62 211.84 294.09 207.71 302.29 L 200.19 317.20 L 199.49 344.82 C 198.82 371.00 198.60 372.76 195.26 378.59 C 188.99 389.53 182.78 390.80 163.27 385.16 C 148.02 380.73 141.41 380.73 124.16 385.10 C 106.07 389.68 80.22 391.77 48.27 391.25 C 23.26 390.83 22.20 390.70 20.20 387.69 C 16.45 382.06 22.40 378.66 49.15 371.07 C 93.84 358.42 110.07 350.37 128.58 331.75 C 153.11 307.02 166.65 281.47 193.88 208.48 C 203.75 182.01 211.27 164.86 223.85 140.16 C 233.09 122.01 241.93 103.75 243.50 99.55 C 245.07 95.35 247.01 91.52 247.82 91.02 C 248.61 90.53 253.06 90.94 257.71 91.92 C 264.40 93.34 267.71 93.34 273.86 91.97 C 285.80 89.30 301.15 80.96 309.16 72.81 L 316.25 65.57 L 319.07 69.88 C 322.64 75.38 337.03 85.06 347.63 89.09 C 352.33 90.88 359.74 92.35 365.02 92.55 C 374.21 92.89 374.21 92.89 379.43 99.72 C 382.31 103.48 390.20 117.07 396.98 129.95 C 436.39 204.89 450.32 234.08 472.06 287.41 C 477.18 299.97 484.81 317.07 489.00 325.43 C 497.99 343.38 503.68 359.52 503.64 367.04 C 503.61 375.21 498.48 383.17 490.77 387.00 L 484.21 390.23 L 468.91 385.23 C 460.49 382.47 452.16 380.21 450.40 380.21 C 448.65 380.21 442.25 382.90 436.18 386.18 L 425.15 392.14 L 374.92 392.41 C 347.29 392.55 323.31 392.37 321.61 392.01"
       id="path138" />
  </g>
</svg>
