<?xml version="1.0" encoding="UTF-8" standalone="no"?>
<!DOCTYPE svg PUBLIC "-//W3C//DTD SVG 1.1//EN"
"http://www.w3.org/Graphics/SVG/1.1/DTD/svg11.dtd">
<svg width="324px" height="600px"
xmlns="http://www.w3.org/2000/svg" version="1.1">
<g transform="translate(0000, 0000) scale(1.0000, 1.0000)">
<path fill="#000000" stroke="none" d="
M 201.28 598.41
C 200.30 597.44 199.69 592.65 199.69 585.94
C 199.69 578.75 199.13 574.70 198.06 574.04
C 196.42 573.03 172.94 569.79 166.39 569.67
C 163.32 569.62 162.11 570.95 157.33 579.59
C 153.40 586.70 151.17 589.45 149.57 589.18
C 146.18 588.56 67.44 541.41 67.44 539.99
C 67.44 539.31 71.32 534.75 76.04 529.86
C 80.78 524.96 84.64 519.98 84.64 518.76
C 84.64 516.22 66.22 491.63 64.31 491.63
C 63.60 491.63 58.94 493.51 53.94 495.81
C 48.63 498.26 44.42 499.49 43.79 498.78
C 42.23 497.04 6.61 407.39 6.61 405.20
C 6.61 404.04 10.96 402.03 18.51 399.71
C 27.12 397.07 30.39 395.47 30.32 393.95
C 30.27 392.80 28.64 382.33 26.69 370.70
L 23.14 349.56
L 13.28 349.16
C 7.86 348.95 2.66 348.13 1.71 347.35
C -0.67 345.37 -0.79 255.07 1.59 252.69
C 2.53 251.75 7.09 251.10 12.83 251.10
C 18.14 251.10 22.48 250.89 22.48 250.63
C 22.48 250.36 24.29 240.15 26.50 227.92
C 28.71 215.70 30.26 205.00 29.93 204.17
C 29.61 203.33 24.47 201.25 18.51 199.56
C 12.56 197.87 7.38 195.69 7.01 194.71
C 6.41 193.19 41.04 101.29 42.90 99.42
C 43.27 99.04 48.02 100.67 53.44 103.03
C 58.86 105.40 63.87 107.11 64.59 106.86
C 66.60 106.12 84.64 81.12 84.64 79.07
C 84.64 78.07 80.76 73.40 76.04 68.72
C 71.31 64.04 67.44 59.59 67.46 58.85
C 67.47 57.04 149.09 8.88 150.59 9.81
C 151.24 10.20 154.32 15.00 157.45 20.46
C 163.40 30.86 164.43 31.48 171.65 28.97
C 173.90 28.19 180.99 27.15 187.39 26.66
L 199.03 25.77
L 199.40 14.54
C 199.68 5.91 200.27 2.92 201.96 1.65
C 205.22 -0.79 295.30 -0.73 297.33 1.72
C 298.11 2.66 298.93 8.15 299.14 13.94
L 299.53 24.45
L 310.05 24.85
C 315.84 25.06 321.34 25.88 322.28 26.66
C 324.65 28.61 324.66 49.35 322.29 51.30
C 321.14 52.26 296.08 52.88 245.26 53.21
C 177.90 53.64 169.10 53.93 162.05 56.04
C 102.95 73.60 66.03 134.27 52.21 236.56
C 51.07 244.92 49.79 266.63 49.35 284.80
C 46.84 388.76 66.93 463.22 109.54 507.78
C 122.41 521.23 133.91 529.89 148.78 537.30
C 168.14 546.95 169.56 547.08 250.01 547.11
C 303.30 547.14 321.22 547.53 322.41 548.72
C 324.52 550.82 324.52 568.56 322.41 570.66
C 321.43 571.64 316.62 572.25 309.85 572.25
L 298.87 572.25
L 298.87 584.54
C 298.87 592.33 298.29 597.41 297.29 598.41
C 295.01 600.69 203.55 600.69 201.28 598.41
M 289.34 577.60
C 289.56 571.45 290.36 565.68 291.11 564.77
C 291.97 563.74 296.65 562.96 303.29 562.72
C 313.08 562.37 314.08 562.08 314.08 559.69
C 314.08 557.09 312.98 557.04 242.01 556.39
L 169.93 555.73
L 158.36 551.59
C 140.58 545.22 126.11 535.53 108.36 518.06
C 87.12 497.14 75.14 478.64 62.94 447.87
C 52.16 420.69 44.30 383.58 41.02 344.27
C 39.04 320.54 39.38 267.83 41.67 243.71
C 48.55 171.25 68.37 118.90 102.32 83.56
C 120.44 64.72 137.31 53.92 159.01 47.31
C 168.28 44.48 171.14 44.37 241.35 43.67
L 314.08 42.95
L 314.08 39.65
C 314.08 36.41 313.84 36.33 302.91 35.96
C 296.76 35.74 290.98 34.94 290.07 34.19
C 289.02 33.32 288.25 28.53 288.02 21.36
L 287.63 9.91
L 248.62 9.91
L 209.61 9.91
L 209.22 21.08
C 209.00 27.22 208.26 32.93 207.56 33.78
C 206.86 34.61 200.50 35.71 193.41 36.20
C 186.32 36.69 176.35 37.96 171.26 39.03
C 166.17 40.10 161.54 40.97 160.98 40.97
C 160.43 40.97 157.24 36.77 153.92 31.64
C 149.77 25.22 147.19 22.44 145.63 22.72
C 144.38 22.94 129.85 31.14 113.33 40.93
C 91.47 53.88 83.31 59.38 83.31 61.16
C 83.31 62.50 86.29 66.74 89.93 70.59
C 93.56 74.42 96.54 78.25 96.54 79.07
C 96.54 79.90 92.77 85.49 88.17 91.49
C 83.55 97.51 77.28 106.14 74.23 110.68
C 71.17 115.23 68.40 118.94 68.07 118.94
C 67.74 118.94 63.28 117.08 58.17 114.79
C 53.06 112.51 48.55 110.96 48.15 111.36
C 47.03 112.48 18.51 186.40 18.51 188.18
C 18.51 189.05 23.58 191.41 29.76 193.43
C 37.87 196.06 41.00 197.70 41.00 199.27
C 41.00 203.17 30.28 258.34 29.35 259.30
C 28.84 259.80 24.27 260.39 19.18 260.62
L 9.92 261.01
L 9.92 300.00
L 9.92 338.99
L 19.78 339.38
C 25.21 339.59 30.40 340.41 31.36 341.19
C 32.29 341.97 33.06 344.87 33.06 347.63
C 33.06 350.39 34.89 363.49 37.11 376.73
C 39.34 389.97 40.68 401.25 40.08 401.79
C 39.50 402.33 34.67 404.26 29.37 406.07
C 24.07 407.88 19.40 409.69 18.99 410.09
C 18.59 410.50 24.99 427.81 33.21 448.59
C 49.75 490.37 48.10 488.15 59.63 484.07
L 66.04 481.78
L 70.84 486.38
C 73.48 488.91 80.72 497.42 86.92 505.30
L 98.22 519.62
L 89.79 528.11
C 83.33 534.62 81.67 537.05 82.67 538.53
C 84.57 541.35 143.54 576.21 146.40 576.21
C 147.90 576.21 150.43 573.57 153.06 569.27
C 155.39 565.45 157.81 561.56 158.44 560.60
C 159.39 559.20 163.98 559.41 183.28 561.79
C 196.30 563.39 207.70 565.28 208.62 566.00
C 209.69 566.83 210.27 570.90 210.27 577.48
C 210.27 583.08 210.68 588.07 211.17 588.57
C 211.67 589.06 229.37 589.31 250.51 589.11
L 288.96 588.77
L 289.34 577.60"/>
<path fill="#c57a36" stroke="none" d="
M 211.17 588.57
C 210.68 588.07 210.27 583.08 210.27 577.48
C 210.27 570.90 209.69 566.83 208.62 566.00
C 207.70 565.28 196.30 563.39 183.28 561.79
C 163.98 559.41 159.39 559.20 158.44 560.60
C 157.81 561.56 155.39 565.45 153.06 569.27
C 150.43 573.57 147.90 576.21 146.40 576.21
C 143.54 576.21 84.57 541.35 82.67 538.53
C 81.67 537.05 83.33 534.62 89.79 528.11
L 98.22 519.62
L 86.92 505.30
C 80.72 497.42 73.48 488.91 70.84 486.38
L 66.04 481.78
L 59.63 484.07
C 48.10 488.15 49.75 490.37 33.21 448.59
C 24.99 427.81 18.59 410.50 18.99 410.09
C 19.40 409.69 24.07 407.88 29.37 406.07
C 34.67 404.26 39.50 402.33 40.08 401.79
C 40.68 401.25 39.34 389.97 37.11 376.73
C 34.89 363.49 33.06 350.39 33.06 347.63
C 33.06 344.87 32.29 341.97 31.36 341.19
C 30.40 340.41 25.21 339.59 19.78 339.38
L 9.92 338.99
L 9.92 300.00
L 9.92 261.01
L 19.18 260.62
C 24.27 260.39 28.84 259.80 29.35 259.30
C 30.28 258.34 41.00 203.17 41.00 199.27
C 41.00 197.70 37.87 196.06 29.76 193.43
C 23.58 191.41 18.51 189.05 18.51 188.18
C 18.51 186.40 47.03 112.48 48.15 111.36
C 48.55 110.96 53.06 112.51 58.17 114.79
C 63.28 117.08 67.74 118.94 68.07 118.94
C 68.40 118.94 71.17 115.23 74.23 110.68
C 77.28 106.14 83.55 97.51 88.17 91.49
C 92.77 85.49 96.54 79.90 96.54 79.07
C 96.54 78.25 93.56 74.42 89.93 70.59
C 86.29 66.74 83.31 62.50 83.31 61.16
C 83.31 59.38 91.47 53.88 113.33 40.93
C 129.85 31.14 144.38 22.94 145.63 22.72
C 147.19 22.44 149.77 25.22 153.92 31.64
C 157.24 36.77 160.43 40.97 160.98 40.97
C 161.54 40.97 166.14 40.11 171.19 39.05
C 176.26 38.00 186.07 36.73 193.01 36.24
C 199.95 35.75 206.38 34.74 207.29 34.03
C 208.38 33.17 208.95 28.93 208.95 21.67
C 208.95 11.31 209.13 10.57 211.92 9.90
C 213.56 9.50 231.27 9.33 251.27 9.54
L 287.63 9.91
L 288.02 21.36
C 288.25 28.53 289.02 33.32 290.07 34.19
C 290.98 34.94 296.76 35.74 302.91 35.96
C 313.84 36.33 314.08 36.41 314.08 39.65
L 314.08 42.95
L 241.35 43.67
C 171.14 44.37 168.28 44.48 159.01 47.31
C 137.31 53.92 120.44 64.72 102.32 83.56
C 68.37 118.90 48.55 171.25 41.67 243.71
C 39.38 267.83 39.04 320.54 41.02 344.27
C 44.30 383.58 52.16 420.69 62.94 447.87
C 75.14 478.64 87.12 497.14 108.36 518.06
C 126.11 535.53 140.58 545.22 158.36 551.59
L 169.93 555.73
L 242.01 556.39
C 312.98 557.04 314.08 557.09 314.08 559.69
C 314.08 562.08 313.08 562.37 303.29 562.72
C 296.65 562.96 291.97 563.74 291.11 564.77
C 290.36 565.68 289.56 571.45 289.34 577.60
L 288.96 588.77
L 250.51 589.11
C 229.37 589.31 211.67 589.06 211.17 588.57"/>
</g>
</svg>
