<?xml version="1.0" encoding="UTF-8" standalone="no"?>
<!DOCTYPE svg PUBLIC "-//W3C//DTD SVG 1.1//EN"
"http://www.w3.org/Graphics/SVG/1.1/DTD/svg11.dtd">
<svg width="707px" height="600px"
xmlns="http://www.w3.org/2000/svg" version="1.1">
<g transform="translate(0000, 0000) scale(1.0000, 1.0000)">
<path fill="#000000" stroke="none" d="
M 3.66 596.34
C 0.04 592.72 0.00 590.25 0.00 300.35
C 0.00 50.76 0.38 7.50 2.60 4.46
C 5.15 0.97 11.10 0.91 352.42 0.44
C 697.97 -0.02 699.66 -0.02 703.32 3.64
C 706.98 7.30 707.00 9.38 707.00 300.00
C 707.00 590.25 706.96 592.72 703.34 596.34
C 699.69 599.98 697.24 600.00 353.50 600.00
C 9.76 600.00 7.31 599.98 3.66 596.34
M 349.84 397.87
C 349.84 203.65 349.87 201.18 353.50 197.56
C 356.83 194.23 359.60 193.90 384.64 193.90
C 409.68 193.90 412.44 194.23 415.77 197.56
C 419.38 201.16 419.44 203.65 419.44 363.66
C 419.44 487.55 419.95 526.61 421.64 528.29
C 424.80 531.46 632.03 531.46 635.20 528.29
C 638.39 525.11 638.39 74.89 635.20 71.71
C 632.01 68.52 78.65 68.52 75.46 71.71
C 73.78 73.39 73.26 134.20 73.26 334.21
L 73.26 594.51
L 211.55 594.51
L 349.84 594.51
L 349.84 397.87
M 58.25 586.83
C 59.93 585.15 60.44 524.56 60.44 325.24
C 60.44 68.29 60.48 65.82 64.11 62.20
C 67.73 58.57 70.21 58.54 354.42 58.54
C 638.63 58.54 641.10 58.57 644.73 62.20
C 648.35 65.82 648.39 68.29 648.39 300.00
C 648.39 531.71 648.35 534.18 644.73 537.80
C 641.14 541.39 638.63 541.46 528.42 541.46
C 418.21 541.46 415.70 541.39 412.11 537.80
C 408.50 534.20 408.45 531.71 408.45 371.71
C 408.45 247.81 407.94 208.76 406.25 207.07
C 403.23 204.05 366.05 204.05 363.02 207.07
C 359.84 210.26 359.84 583.65 363.02 586.83
C 366.21 590.01 690.63 590.01 693.81 586.83
C 697.00 583.65 697.00 16.35 693.81 13.17
C 690.61 9.97 18.22 9.97 15.02 13.17
C 11.83 16.35 11.83 583.65 15.02 586.83
C 16.45 588.26 23.98 589.02 36.63 589.02
C 49.29 589.02 56.82 588.26 58.25 586.83"/>
<path fill="#c55436" stroke="none" d="
M 15.02 586.83
C 13.33 585.15 12.82 518.87 12.82 299.71
C 12.82 19.87 12.88 14.73 16.36 12.88
C 21.81 9.95 690.88 10.24 693.81 13.17
C 697.00 16.35 697.00 583.65 693.81 586.83
C 690.63 590.01 366.21 590.01 363.02 586.83
C 359.84 583.65 359.84 210.26 363.02 207.07
C 366.05 204.05 403.23 204.05 406.25 207.07
C 407.94 208.76 408.45 247.81 408.45 371.71
C 408.45 531.71 408.50 534.20 412.11 537.80
C 415.70 541.39 418.21 541.46 528.42 541.46
C 638.63 541.46 641.14 541.39 644.73 537.80
C 648.35 534.18 648.39 531.71 648.39 300.00
C 648.39 68.29 648.35 65.82 644.73 62.20
C 641.10 58.57 638.63 58.54 354.42 58.54
C 70.21 58.54 67.73 58.57 64.11 62.20
C 60.48 65.82 60.44 68.29 60.44 325.24
C 60.44 524.56 59.93 585.15 58.25 586.83
C 56.82 588.26 49.29 589.02 36.63 589.02
C 23.98 589.02 16.45 588.26 15.02 586.83"/>
<path fill="#efcd84" stroke="none" d="
M 73.26 333.91
C 73.26 78.13 73.34 73.26 76.80 71.41
C 82.26 68.49 632.27 68.78 635.20 71.71
C 638.39 74.89 638.39 525.11 635.20 528.29
C 632.03 531.46 424.80 531.46 421.64 528.29
C 419.95 526.61 419.44 487.55 419.44 363.66
C 419.44 203.65 419.38 201.16 415.77 197.56
C 412.44 194.23 409.68 193.90 384.64 193.90
C 359.60 193.90 356.83 194.23 353.50 197.56
C 349.87 201.18 349.84 203.65 349.84 397.87
L 349.84 594.51
L 211.55 594.51
L 73.26 594.51
L 73.26 333.91"/>
</g>
</svg>
