<?xml version="1.0" encoding="UTF-8" standalone="no"?>
<!DOCTYPE svg PUBLIC "-//W3C//DTD SVG 1.1//EN"
"http://www.w3.org/Graphics/SVG/1.1/DTD/svg11.dtd">
<svg width="274px" height="600px"
xmlns="http://www.w3.org/2000/svg" version="1.1">
<g transform="translate(0000, 0000) scale(1.0000, 1.0000)">
<path fill="#000000" stroke="none" d="
M 111.63 597.52
C 102.58 592.03 95.37 577.19 90.52 554.15
C 87.07 537.78 85.77 504.58 87.71 482.58
C 91.87 435.41 96.09 393.38 99.53 365.16
C 103.50 332.45 105.96 307.35 105.97 299.14
C 105.98 294.84 105.54 294.25 101.37 292.88
C 94.01 290.45 88.71 283.90 79.28 265.55
C 73.36 254.06 68.73 246.81 65.27 243.61
C 48.61 228.23 47.82 227.35 47.82 224.22
C 47.82 219.61 52.07 214.84 58.43 212.30
C 64.38 209.92 94.05 203.88 99.84 203.88
C 103.10 203.87 103.40 203.46 103.40 198.89
L 103.40 193.92
L 95.00 191.85
C 75.61 187.07 60.44 178.89 47.72 166.34
C 34.12 152.93 28.95 139.64 25.14 108.39
C 24.07 99.51 22.37 85.59 21.39 77.42
C 19.48 61.63 16.39 50.85 7.95 30.67
C 1.27 14.70 -1.37 2.94 1.34 1.24
C 4.51 -0.77 7.13 -0.17 12.69 3.86
C 23.32 11.54 28.83 25.38 37.40 65.82
C 44.99 101.64 48.39 113.60 54.58 126.26
C 65.10 147.75 81.59 159.74 107.92 165.01
C 118.01 167.03 122.24 167.33 127.20 166.37
C 130.69 165.70 133.74 164.98 133.96 164.75
C 134.18 164.53 126.67 160.52 117.26 155.82
C 90.96 142.70 82.86 133.29 77.38 109.54
C 74.74 98.13 74.73 97.45 76.82 86.63
C 81.76 61.20 93.75 48.46 117.29 43.70
C 126.89 41.75 137.01 43.34 149.03 48.70
C 160.04 53.59 165.76 60.68 169.34 73.90
C 172.14 84.22 172.15 84.76 170.09 93.46
C 167.24 105.30 164.05 110.14 156.66 113.78
C 148.88 117.61 133.48 117.96 127.00 114.46
C 122.80 112.19 117.61 104.05 117.61 99.73
C 117.63 96.18 122.28 89.37 125.37 88.39
C 129.21 87.17 134.80 89.75 138.16 94.30
C 140.53 97.48 141.39 97.88 143.53 96.74
C 144.94 95.99 147.61 93.06 149.49 90.23
C 152.44 85.78 152.69 84.66 151.38 81.78
C 148.14 74.70 142.92 69.57 134.88 65.63
C 127.32 61.91 126.16 61.68 121.66 63.02
C 110.48 66.36 100.01 77.33 96.06 89.86
C 94.03 96.32 94.01 97.23 96.03 103.57
C 101.51 120.93 110.44 128.86 141.33 143.82
L 163.11 154.36
L 168.77 150.05
C 176.21 144.37 182.66 135.77 188.18 124.17
C 193.45 113.07 197.02 100.15 204.29 65.82
C 210.49 36.57 214.29 23.94 219.74 14.50
C 226.02 3.63 238.99 -3.87 241.26 2.05
C 242.49 5.25 239.28 17.43 233.65 30.90
C 225.31 50.84 222.20 61.66 220.30 77.42
C 219.32 85.59 217.62 99.51 216.55 108.39
C 213.15 136.30 208.83 149.07 198.55 161.66
L 192.49 169.10
L 196.54 171.33
C 198.78 172.54 205.85 176.74 212.27 180.65
C 233.55 193.57 257.64 220.13 269.20 243.41
C 274.12 253.26 274.32 254.15 272.72 258.04
C 270.67 262.99 264.14 266.53 259.28 265.32
C 256.85 264.71 254.87 262.43 252.16 257.07
C 243.29 239.69 222.56 215.26 206.26 203.03
C 202.00 199.83 192.24 194.13 184.56 190.36
L 170.62 183.52
L 162.86 186.65
C 158.58 188.37 151.32 190.71 146.69 191.85
L 138.29 193.92
L 138.29 198.89
C 138.29 203.46 138.59 203.87 141.85 203.88
C 147.64 203.88 177.31 209.92 183.26 212.30
C 189.62 214.84 193.87 219.61 193.87 224.22
C 193.87 227.35 193.08 228.23 176.42 243.61
C 172.96 246.81 168.33 254.06 162.41 265.55
C 152.97 283.90 147.68 290.45 140.32 292.88
C 136.15 294.25 135.71 294.84 135.72 299.14
C 135.73 307.35 138.19 332.45 142.16 365.16
C 145.59 393.38 149.82 435.41 153.98 482.58
C 155.92 504.58 154.62 537.78 151.17 554.15
C 144.74 584.70 134.62 599.99 120.84 599.99
C 118.00 599.99 113.85 598.88 111.63 597.52
M 127.01 590.97
C 138.89 581.64 148.65 545.39 148.63 510.61
C 148.62 502.65 147.78 487.12 146.73 476.13
C 139.65 400.85 137.93 384.08 135.01 361.48
C 133.20 347.54 131.07 326.70 130.25 315.16
L 128.78 294.19
L 120.84 294.19
L 112.91 294.19
L 111.44 315.16
C 110.62 326.70 108.49 347.54 106.68 361.48
C 103.76 384.08 102.04 400.85 94.96 476.13
C 93.91 487.12 93.07 502.65 93.06 510.61
C 93.04 552.58 106.77 593.55 120.84 593.55
C 122.43 593.55 125.20 592.39 127.01 590.97
M 138.20 285.86
C 143.79 282.97 148.17 277.02 155.71 262.04
C 165.18 243.29 168.72 238.46 178.05 231.54
C 182.48 228.25 186.11 225.07 186.11 224.48
C 186.11 221.96 179.00 218.19 170.60 216.27
C 165.63 215.12 157.34 213.17 152.19 211.94
C 145.16 210.25 137.34 209.68 120.84 209.68
C 104.35 209.68 96.53 210.25 89.50 211.94
C 84.35 213.17 76.06 215.12 71.08 216.27
C 62.68 218.19 55.58 221.96 55.58 224.48
C 55.58 225.07 59.21 228.25 63.64 231.54
C 72.91 238.41 76.56 243.37 85.56 261.29
C 97.81 285.68 100.53 287.73 120.59 287.74
C 130.32 287.74 135.66 287.17 138.20 285.86
M 265.88 256.45
C 269.94 253.33 250.01 223.47 231.89 205.51
C 218.30 192.04 204.48 183.06 177.32 170.06
C 165.45 164.37 155.46 159.26 155.09 158.70
C 154.73 158.13 145.44 153.35 134.42 148.08
C 104.90 133.94 96.68 126.36 90.37 107.43
C 87.25 98.08 87.54 93.52 91.97 81.66
C 95.76 71.56 105.40 62.01 115.71 58.15
C 124.94 54.70 129.21 55.12 140.44 60.66
C 149.55 65.12 155.16 71.64 157.69 80.70
C 159.19 86.01 159.06 86.94 156.15 92.59
C 152.68 99.33 146.15 104.52 141.14 104.52
C 138.99 104.52 136.21 102.70 132.89 99.11
C 128.22 94.05 127.75 93.85 125.73 95.86
C 123.71 97.87 123.71 98.32 125.78 102.63
C 127.38 105.99 129.65 107.99 134.01 109.92
C 139.83 112.49 140.30 112.50 146.87 110.44
C 155.55 107.70 160.96 102.31 163.47 93.88
C 165.91 85.66 165.91 85.08 163.31 75.87
C 158.88 60.09 143.86 49.73 125.37 49.70
C 117.55 49.69 114.30 50.35 108.57 53.08
C 95.11 59.51 86.75 70.45 83.23 86.17
C 80.62 97.91 82.07 108.85 87.82 120.84
C 94.53 134.84 101.90 140.54 132.99 155.73
C 148.21 163.16 163.03 170.76 165.95 172.61
C 168.86 174.45 178.57 179.60 187.52 184.05
C 196.47 188.50 207.26 194.74 211.50 197.92
C 227.76 210.13 248.47 234.55 257.35 251.99
C 261.09 259.32 261.73 259.65 265.88 256.45
M 131.83 198.90
L 131.83 195.23
L 120.84 195.23
L 109.86 195.23
L 109.86 198.90
L 109.86 202.58
L 120.84 202.58
L 131.83 202.58
L 131.83 198.90
M 132.14 187.81
C 137.65 186.83 146.89 184.45 152.69 182.52
L 163.22 179.02
L 155.60 174.68
C 146.76 169.65 147.53 169.73 132.55 172.35
C 122.10 174.17 119.90 174.18 109.21 172.36
C 86.31 168.46 73.61 162.41 61.64 149.73
C 47.96 135.24 41.99 120.85 34.13 83.42
C 24.01 35.19 19.22 20.54 11.08 12.97
L 7.69 9.81
L 9.49 14.90
C 10.48 17.70 13.64 25.51 16.50 32.26
C 24.40 50.85 25.68 56.36 29.18 87.10
C 33.06 121.06 35.96 134.13 42.19 145.97
C 52.96 166.45 77.81 182.06 108.57 187.68
C 120.86 189.92 120.29 189.92 132.14 187.81
M 190.35 158.88
C 203.12 145.25 207.48 131.14 212.51 87.10
C 216.01 56.36 217.29 50.85 225.18 32.26
C 228.05 25.51 231.21 17.70 232.20 14.90
L 234.00 9.81
L 230.61 12.97
C 222.47 20.54 217.67 35.19 207.56 83.42
C 199.57 121.42 193.74 135.29 179.31 150.48
L 170.59 159.68
L 176.73 162.31
C 180.12 163.77 183.24 164.99 183.67 165.06
C 184.11 165.11 187.12 162.34 190.35 158.88"/>
<path fill="#3f7fbf" stroke="none" d="
M 232.64 10.97
C 232.64 10.61 232.93 10.32 233.29 10.32
C 233.65 10.32 233.93 10.61 233.93 10.97
C 233.93 11.33 233.65 11.61 233.29 11.61
C 232.93 11.61 232.64 11.33 232.64 10.97"/>
<path fill="#666463" stroke="none" d="
M 108.57 187.68
C 77.81 182.06 52.96 166.45 42.19 145.97
C 35.96 134.13 33.06 121.06 29.18 87.10
C 25.60 55.66 24.56 51.32 15.26 29.24
C 8.93 14.18 8.28 10.89 12.36 14.26
C 18.88 19.66 24.50 37.52 34.13 83.42
C 41.99 120.85 47.96 135.24 61.64 149.73
C 73.61 162.41 86.31 168.46 109.21 172.36
C 119.90 174.18 122.10 174.17 132.55 172.35
C 147.53 169.73 146.76 169.65 155.60 174.68
L 163.22 179.02
L 152.69 182.52
C 142.95 185.77 124.73 189.68 120.20 189.52
C 119.13 189.48 113.89 188.65 108.57 187.68"/>
<path fill="#666463" stroke="none" d="
M 176.73 162.31
L 170.59 159.68
L 179.31 150.48
C 193.74 135.29 199.57 121.42 207.56 83.42
C 217.44 36.31 222.57 20.28 229.91 13.68
C 234.00 9.99 233.38 12.71 226.32 29.48
C 217.14 51.29 216.09 55.73 212.51 87.10
C 208.74 119.97 205.85 133.60 200.25 144.66
C 196.65 151.81 185.66 165.32 183.67 165.06
C 183.24 164.99 180.12 163.77 176.73 162.31"/>
<path fill="#ffbf53" stroke="none" d="
M 257.35 251.99
C 248.47 234.55 227.76 210.13 211.50 197.92
C 207.26 194.74 196.47 188.50 187.52 184.05
C 178.57 179.60 168.86 174.45 165.95 172.61
C 163.03 170.76 148.21 163.16 132.99 155.73
C 101.90 140.54 94.53 134.84 87.82 120.84
C 82.07 108.85 80.62 97.91 83.23 86.17
C 88.26 63.65 104.24 49.83 125.37 49.74
C 143.79 49.66 158.87 60.05 163.31 75.87
C 165.91 85.08 165.91 85.66 163.47 93.88
C 160.96 102.31 155.55 107.70 146.87 110.44
C 140.30 112.50 139.83 112.49 134.01 109.92
C 129.65 107.99 127.38 105.99 125.78 102.63
C 123.71 98.32 123.71 97.87 125.73 95.86
C 127.75 93.85 128.22 94.05 132.89 99.11
C 136.21 102.70 138.99 104.52 141.14 104.52
C 146.15 104.52 152.68 99.33 156.15 92.59
C 159.06 86.94 159.19 86.01 157.69 80.70
C 155.16 71.64 149.55 65.12 140.44 60.66
C 129.21 55.12 124.94 54.70 115.71 58.15
C 105.40 62.01 95.76 71.56 91.97 81.66
C 87.54 93.52 87.25 98.08 90.37 107.43
C 96.68 126.36 104.90 133.94 134.42 148.08
C 145.44 153.35 154.73 158.13 155.09 158.70
C 155.46 159.26 165.45 164.37 177.32 170.06
C 204.48 183.06 218.30 192.04 231.89 205.51
C 250.01 223.47 269.94 253.33 265.88 256.45
C 261.73 259.65 261.09 259.32 257.35 251.99"/>
<path fill="#f4a693" stroke="none" d="
M 114.68 590.97
C 102.80 581.64 93.04 545.39 93.06 510.61
C 93.07 502.65 93.91 487.12 94.96 476.13
C 102.04 400.85 103.76 384.08 106.68 361.48
C 108.49 347.54 110.62 326.70 111.44 315.16
L 112.91 294.19
L 120.84 294.19
L 128.78 294.19
L 130.25 315.16
C 131.07 326.70 133.20 347.54 135.01 361.48
C 137.93 384.08 139.65 400.85 146.73 476.13
C 147.78 487.12 148.62 502.65 148.63 510.61
C 148.65 552.58 134.92 593.55 120.84 593.55
C 119.25 593.55 116.49 592.39 114.68 590.97"/>
<path fill="#f4a693" stroke="none" d="
M 102.58 285.26
C 97.04 281.90 93.17 276.44 85.56 261.29
C 76.56 243.37 72.91 238.41 63.64 231.54
C 59.21 228.25 55.58 225.07 55.58 224.48
C 55.58 221.96 62.68 218.19 71.08 216.27
C 76.06 215.12 84.35 213.17 89.50 211.94
C 96.53 210.25 104.35 209.68 120.84 209.68
C 137.34 209.68 145.16 210.25 152.19 211.94
C 157.34 213.17 165.63 215.12 170.60 216.27
C 179.00 218.19 186.11 221.96 186.11 224.48
C 186.11 225.07 182.48 228.25 178.05 231.54
C 168.72 238.46 165.18 243.29 155.71 262.04
C 143.76 285.74 141.02 287.74 120.59 287.74
C 109.12 287.73 105.90 287.29 102.58 285.26"/>
<path fill="#f4a693" stroke="none" d="
M 110.09 199.03
C 110.50 195.50 110.54 195.48 121.17 195.30
L 131.83 195.11
L 131.83 198.85
L 131.83 202.58
L 120.75 202.58
L 109.69 202.58
L 110.09 199.03"/>
</g>
</svg>
