<?xml version="1.0" encoding="UTF-8" standalone="no"?>
<!DOCTYPE svg PUBLIC "-//W3C//DTD SVG 1.1//EN"
"http://www.w3.org/Graphics/SVG/1.1/DTD/svg11.dtd">
<svg width="616px" height="600px"
xmlns="http://www.w3.org/2000/svg" version="1.1">
<g transform="translate(0000, 0000) scale(1.0000, 1.0000)">
<path fill="#000000" stroke="none" d="
M 8.25 598.30
C 0.41 595.14 -0.05 587.69 5.19 549.92
C 8.07 529.22 13.34 499.25 16.88 483.33
C 63.69 273.13 225.48 86.42 415.47 23.31
C 459.73 8.62 497.61 2.54 556.44 0.74
C 603.78 -0.71 605.21 -0.61 610.53 4.70
L 616.00 10.17
L 616.00 300.00
C 616.00 586.45 615.95 589.88 610.91 594.92
C 605.87 599.95 602.56 600.00 308.64 599.80
C 145.19 599.69 10.00 599.01 8.25 598.30
M 254.55 579.03
C 254.55 566.24 270.35 497.26 278.88 472.78
C 309.88 383.82 368.81 317.72 450.70 280.07
C 497.61 258.51 558.78 241.53 589.60 241.53
L 600.73 241.53
L 600.73 131.44
C 600.73 49.22 599.96 20.59 597.67 18.31
C 593.27 13.91 536.53 14.39 502.52 19.12
C 394.70 34.14 300.97 82.25 212.88 167.77
C 136.39 242.03 81.68 328.14 48.92 425.87
C 40.93 449.67 25.51 519.89 20.26 556.17
C 17.87 572.72 17.89 577.96 20.39 580.96
C 23.09 584.21 39.73 584.75 139.03 584.75
L 254.55 584.75
L 254.55 579.03
M 597.67 581.69
C 599.99 579.38 600.73 539.49 600.73 417.71
L 600.73 256.78
L 590.21 256.78
C 584.44 256.78 566.52 259.73 550.43 263.34
C 449.30 285.99 375.35 332.59 329.84 402.33
C 311.95 429.74 303.57 448.02 291.76 485.29
C 284.20 509.16 269.82 572.72 269.82 582.23
C 269.82 586.17 593.73 585.64 597.67 581.69"/>
<path fill="#c55436" stroke="none" d="
M 20.39 580.96
C 16.44 576.20 19.47 553.55 32.28 491.95
C 49.31 410.01 76.13 346.12 124.17 273.10
C 171.13 201.71 246.12 128.87 316.93 85.81
C 375.91 49.96 438.23 27.69 503.47 19.14
C 539.64 14.39 593.29 13.93 597.67 18.31
C 599.96 20.59 600.73 49.22 600.73 131.44
L 600.73 241.53
L 589.60 241.53
C 558.78 241.53 497.61 258.51 450.70 280.07
C 368.81 317.72 309.88 383.82 278.88 472.78
C 270.35 497.26 254.55 566.24 254.55 579.03
L 254.55 584.75
L 139.03 584.75
C 39.73 584.75 23.09 584.21 20.39 580.96"/>
<path fill="#c57a36" stroke="none" d="
M 269.82 582.23
C 269.82 572.72 284.20 509.16 291.76 485.29
C 303.57 448.02 311.95 429.74 329.84 402.33
C 367.46 344.64 425.35 302.26 500.69 277.22
C 532.51 266.64 576.34 256.78 591.59 256.78
L 600.73 256.78
L 600.73 417.71
C 600.73 539.49 599.99 579.38 597.67 581.69
C 593.73 585.64 269.82 586.17 269.82 582.23"/>
</g>
</svg>
