<?xml version="1.0" encoding="UTF-8" standalone="no"?>
<!DOCTYPE svg PUBLIC "-//W3C//DTD SVG 1.1//EN"
"http://www.w3.org/Graphics/SVG/1.1/DTD/svg11.dtd">
<svg width="600px" height="405px"
xmlns="http://www.w3.org/2000/svg" version="1.1">
<g transform="translate(0000, 0000) scale(1.0000, 1.0000)">
<path fill="#000000" stroke="none" d="
M 2.46 402.53
C 0.06 400.12 0.00 398.42 0.00 327.21
C 0.00 256.00 0.06 254.30 2.46 251.89
C 3.82 250.53 6.17 249.42 7.70 249.42
C 12.07 249.43 39.59 263.37 51.84 271.78
C 57.97 275.98 67.20 283.36 72.34 288.19
C 81.55 296.81 96.97 315.60 100.60 322.63
C 101.61 324.59 102.80 325.85 103.23 325.41
C 103.68 324.98 120.18 252.12 139.92 163.52
C 159.66 74.91 176.22 2.01 176.72 1.52
C 177.75 0.49 418.07 -0.42 422.18 0.58
C 423.83 0.99 425.36 2.78 426.16 5.25
C 426.86 7.46 443.27 79.83 462.60 166.07
C 481.93 252.32 498.18 323.90 498.70 325.14
C 499.48 326.99 501.40 325.11 509.47 314.68
C 531.20 286.57 556.64 264.77 578.18 255.78
C 591.46 250.24 594.26 249.84 597.41 253.00
C 599.99 255.58 600.00 256.05 600.00 327.83
C 600.00 398.42 599.94 400.12 597.54 402.53
C 595.08 404.99 593.43 405.00 300.00 405.00
C 6.57 405.00 4.92 404.99 2.46 402.53
M 591.13 396.11
C 593.47 393.76 593.24 262.60 590.90 260.64
C 589.58 259.56 587.67 259.83 582.58 261.83
C 561.97 269.97 536.77 291.79 513.66 321.48
C 508.31 328.37 502.60 335.53 500.97 337.40
L 498.02 340.79
L 301.33 340.79
L 104.64 340.79
L 102.09 338.01
C 100.69 336.48 96.32 330.24 92.38 324.12
C 75.09 297.30 54.25 279.05 23.70 264.00
C 13.34 258.90 10.73 258.05 9.23 259.31
C 7.64 260.63 7.39 269.95 7.39 327.73
C 7.39 378.12 7.76 395.00 8.87 396.11
C 11.03 398.27 588.97 398.27 591.13 396.11
M 490.77 332.46
C 491.41 331.40 420.73 14.42 418.90 10.19
L 417.71 7.41
L 301.20 7.41
L 184.68 7.41
L 183.02 11.42
C 182.11 13.63 165.56 86.00 146.23 172.25
C 126.91 258.50 110.71 330.04 110.24 331.22
C 109.43 333.27 118.95 333.38 299.79 333.38
C 404.53 333.38 490.46 332.96 490.77 332.46"/>
<path fill="#000000" stroke="none" d="
M 269.83 294.08
C 267.24 293.59 265.38 292.44 265.13 291.19
C 264.41 287.35 271.36 276.01 279.01 268.56
C 293.53 254.42 313.20 245.84 333.55 244.75
C 343.16 244.25 345.03 244.44 345.67 246.11
C 348.15 252.59 326.22 277.55 311.09 285.45
C 297.19 292.70 280.67 296.16 269.83 294.08
M 294.46 285.64
C 304.26 282.94 314.23 277.26 322.78 269.51
C 329.53 263.39 337.58 253.42 337.58 251.19
C 337.58 249.51 322.64 251.88 313.21 255.05
C 297.25 260.42 283.28 270.25 276.05 281.18
C 272.54 286.49 272.39 287.09 274.39 287.91
C 277.16 289.02 285.67 288.06 294.46 285.64"/>
<path fill="#000000" stroke="none" d="
M 272.29 221.23
C 269.70 220.74 267.84 219.59 267.60 218.34
C 266.87 214.50 273.82 203.15 281.47 195.71
C 296.00 181.57 315.66 172.99 336.01 171.90
C 345.62 171.40 347.49 171.59 348.14 173.26
C 350.61 179.74 328.68 204.70 313.55 212.60
C 299.66 219.85 283.13 223.31 272.29 221.23
M 296.92 212.79
C 306.73 210.09 316.69 204.41 325.24 196.66
C 332.00 190.54 340.04 180.57 340.04 178.34
C 340.04 176.66 325.11 179.03 315.67 182.20
C 299.72 187.57 285.75 197.40 278.51 208.33
C 275.00 213.64 274.85 214.24 276.85 215.06
C 279.62 216.17 288.14 215.21 296.92 212.79"/>
<path fill="#000000" stroke="none" d="
M 267.36 149.62
C 264.78 149.12 262.92 147.97 262.67 146.73
C 261.94 142.89 268.89 131.54 276.54 124.09
C 291.07 109.96 310.73 101.37 331.08 100.29
C 340.69 99.78 342.57 99.98 343.21 101.65
C 345.68 108.13 323.75 133.08 308.62 140.98
C 294.73 148.23 278.21 151.69 267.36 149.62
M 291.99 141.17
C 301.80 138.48 311.77 132.80 320.32 125.04
C 327.07 118.92 335.11 108.95 335.11 106.72
C 335.11 105.04 320.18 107.41 310.74 110.58
C 294.79 115.96 280.82 125.78 273.59 136.71
C 270.07 142.02 269.93 142.63 271.92 143.44
C 274.69 144.55 283.21 143.59 291.99 141.17"/>
<path fill="#000000" stroke="none" d="
M 267.36 78.00
C 264.78 77.51 262.92 76.36 262.67 75.11
C 261.94 71.27 268.89 59.92 276.54 52.48
C 291.07 38.34 310.73 29.76 331.08 28.67
C 340.69 28.16 342.57 28.36 343.21 30.03
C 345.68 36.51 323.75 61.47 308.62 69.37
C 294.73 76.62 278.21 80.07 267.36 78.00
M 291.99 69.55
C 301.80 66.86 311.77 61.18 320.32 53.43
C 327.07 47.30 335.11 37.34 335.11 35.10
C 335.11 33.42 320.18 35.80 310.74 38.97
C 294.79 44.34 280.82 54.17 273.59 65.10
C 270.07 70.41 269.93 71.01 271.92 71.83
C 274.69 72.94 283.21 71.97 291.99 69.55"/>
<path fill="#e19c23" stroke="none" d="
M 110.24 331.22
C 110.71 330.04 126.04 262.39 144.30 180.89
C 184.69 0.61 182.16 11.47 184.39 9.24
C 185.98 7.64 201.25 7.41 301.96 7.41
L 417.71 7.41
L 418.90 10.19
C 420.73 14.42 491.41 331.40 490.77 332.46
C 490.46 332.96 404.53 333.38 299.79 333.38
C 118.95 333.38 109.43 333.27 110.24 331.22
M 295.69 291.86
C 313.23 286.91 334.93 269.81 342.96 254.61
C 348.10 244.90 347.26 244.02 333.55 244.75
C 313.20 245.84 293.53 254.42 279.01 268.56
C 271.36 276.01 264.41 287.35 265.13 291.19
C 265.93 295.34 282.10 295.70 295.69 291.86
M 298.15 219.01
C 315.70 214.06 337.39 196.96 345.43 181.76
C 350.56 172.05 349.72 171.17 336.01 171.90
C 315.66 172.99 296.00 181.57 281.47 195.71
C 273.82 203.15 266.87 214.50 267.60 218.34
C 268.40 222.49 284.56 222.85 298.15 219.01
M 293.22 147.39
C 310.77 142.44 332.46 125.34 340.50 110.14
C 345.63 100.44 344.80 99.56 331.08 100.29
C 310.73 101.37 291.07 109.96 276.54 124.09
C 268.89 131.54 261.94 142.89 262.67 146.73
C 263.47 150.87 279.63 151.23 293.22 147.39
M 293.22 75.78
C 310.77 70.83 332.46 53.72 340.50 38.52
C 345.63 28.82 344.80 27.94 331.08 28.67
C 310.73 29.76 291.07 38.34 276.54 52.48
C 268.89 59.92 261.94 71.27 262.67 75.11
C 263.47 79.26 279.63 79.62 293.22 75.78"/>
<path fill="#f8ba4f" stroke="none" d="
M 274.39 287.91
C 272.39 287.09 272.54 286.49 276.05 281.18
C 283.28 270.25 297.25 260.42 313.21 255.05
C 322.64 251.88 337.58 249.51 337.58 251.19
C 337.58 251.67 335.93 254.47 333.92 257.40
C 328.80 264.84 316.63 275.59 308.27 280.03
C 297.30 285.87 279.56 289.98 274.39 287.91"/>
<path fill="#f8ba4f" stroke="none" d="
M 276.85 215.06
C 274.85 214.24 275.00 213.64 278.51 208.33
C 285.75 197.40 299.72 187.57 315.67 182.20
C 325.11 179.03 340.04 176.66 340.04 178.34
C 340.04 178.82 338.39 181.62 336.38 184.55
C 331.27 191.99 319.10 202.73 310.73 207.18
C 299.77 213.02 282.02 217.13 276.85 215.06"/>
<path fill="#f8ba4f" stroke="none" d="
M 271.92 143.44
C 269.93 142.63 270.07 142.02 273.59 136.71
C 280.82 125.78 294.79 115.96 310.74 110.58
C 320.18 107.41 335.11 105.04 335.11 106.72
C 335.11 107.20 333.46 110.00 331.45 112.93
C 326.34 120.38 314.17 131.12 305.80 135.56
C 294.84 141.40 277.10 145.52 271.92 143.44"/>
<path fill="#f8ba4f" stroke="none" d="
M 271.92 71.83
C 269.93 71.01 270.07 70.41 273.59 65.10
C 280.78 54.22 294.81 44.33 310.48 39.07
C 319.74 35.97 335.11 33.50 335.11 35.12
C 335.11 35.60 333.46 38.39 331.45 41.31
C 326.34 48.76 314.17 59.50 305.80 63.95
C 294.84 69.79 277.10 73.90 271.92 71.83"/>
<path fill="#c57a36" stroke="none" d="
M 8.87 396.11
C 7.76 395.00 7.39 378.09 7.39 327.63
C 7.39 263.71 7.50 260.56 9.67 259.40
C 11.45 258.45 14.64 259.51 24.15 264.21
C 54.33 279.14 75.20 297.47 92.38 324.12
C 96.32 330.24 100.69 336.48 102.09 338.01
L 104.64 340.79
L 301.33 340.79
L 498.02 340.79
L 500.97 337.40
C 502.60 335.53 508.31 328.37 513.66 321.48
C 536.77 291.79 561.97 269.97 582.58 261.83
C 587.67 259.83 589.58 259.56 590.90 260.64
C 593.24 262.60 593.47 393.76 591.13 396.11
C 588.97 398.27 11.03 398.27 8.87 396.11"/>
</g>
</svg>
