<?xml version="1.0" encoding="UTF-8" standalone="no"?>
<!DOCTYPE svg PUBLIC "-//W3C//DTD SVG 1.1//EN"
"http://www.w3.org/Graphics/SVG/1.1/DTD/svg11.dtd">
<svg width="751px" height="600px"
xmlns="http://www.w3.org/2000/svg" version="1.1">
<g transform="translate(0000, 0000) scale(1.0000, 1.0000)">
<path fill="#000000" stroke="none" d="
M 3.21 596.79
C 0.02 593.60 0.00 591.45 0.00 300.30
C 0.00 49.56 0.34 6.58 2.28 3.91
C 4.53 0.85 10.40 0.80 374.55 0.39
C 743.09 -0.02 744.58 0.00 747.77 3.19
C 750.98 6.40 751.00 8.25 751.00 300.00
C 751.00 591.45 750.98 593.60 747.79 596.79
C 744.60 599.98 742.45 600.00 375.50 600.00
C 8.55 600.00 6.40 599.98 3.21 596.79
M 343.79 327.83
C 343.50 133.88 342.89 59.87 341.59 58.32
C 338.93 55.11 65.46 55.11 62.79 58.32
C 61.49 59.87 60.88 133.88 60.59 327.83
L 60.18 595.19
L 202.19 595.19
L 344.21 595.19
L 343.79 327.83
M 49.42 588.45
C 50.90 586.97 51.35 525.10 51.35 319.73
C 51.35 55.07 51.38 52.91 54.56 49.73
C 57.72 46.57 59.90 46.52 202.19 46.52
C 344.48 46.52 346.66 46.57 349.82 49.73
C 353.00 52.91 353.03 55.07 353.03 319.73
C 353.03 525.10 353.48 586.97 354.96 588.45
C 357.75 591.24 736.65 591.24 739.45 588.45
C 742.25 585.64 742.25 14.36 739.45 11.55
C 736.81 8.92 705.81 8.92 703.18 11.55
C 701.70 13.03 701.25 74.90 701.25 280.27
C 701.25 544.93 701.22 547.09 698.04 550.27
C 694.88 553.43 692.70 553.48 547.20 553.48
C 401.70 553.48 399.52 553.43 396.36 550.27
C 393.18 547.09 393.15 544.93 393.15 280.27
C 393.15 74.90 392.70 13.03 391.23 11.55
C 388.43 8.76 14.35 8.76 11.55 11.55
C 8.75 14.36 8.75 585.64 11.55 588.45
C 12.81 589.70 19.40 590.37 30.49 590.37
C 41.58 590.37 48.17 589.70 49.42 588.45
M 689.81 541.68
C 691.11 540.13 691.72 466.12 692.01 272.17
L 692.43 4.81
L 547.20 4.81
L 401.98 4.81
L 402.39 272.17
C 402.68 466.12 403.29 540.13 404.59 541.68
C 406.07 543.47 431.18 543.85 547.20 543.85
C 663.22 543.85 688.34 543.47 689.81 541.68"/>
<path fill="#efcd84" stroke="none" d="
M 60.59 327.83
C 60.88 133.88 61.49 59.87 62.79 58.32
C 65.46 55.11 338.93 55.11 341.59 58.32
C 342.89 59.87 343.50 133.88 343.79 327.83
L 344.21 595.19
L 202.19 595.19
L 60.18 595.19
L 60.59 327.83"/>
<path fill="#efcd84" stroke="none" d="
M 404.71 541.93
C 403.23 540.45 402.78 478.40 402.78 272.41
L 402.78 4.81
L 547.60 4.81
L 692.43 4.81
L 692.01 272.17
C 691.72 466.12 691.11 540.13 689.81 541.68
C 687.33 544.70 407.71 544.93 404.71 541.93"/>
<path fill="#c55436" stroke="none" d="
M 11.55 588.45
C 10.08 586.97 9.63 520.65 9.63 299.74
C 9.63 17.84 9.68 12.91 12.73 11.29
C 17.49 8.74 388.67 9.00 391.23 11.55
C 392.70 13.03 393.15 74.90 393.15 280.27
C 393.15 544.93 393.18 547.09 396.36 550.27
C 399.52 553.43 401.70 553.48 547.20 553.48
C 692.70 553.48 694.88 553.43 698.04 550.27
C 701.22 547.09 701.25 544.93 701.25 280.27
C 701.25 74.90 701.70 13.03 703.18 11.55
C 705.81 8.92 736.81 8.92 739.45 11.55
C 742.25 14.36 742.25 585.64 739.45 588.45
C 736.65 591.24 357.75 591.24 354.96 588.45
C 353.48 586.97 353.03 525.10 353.03 319.73
C 353.03 55.07 353.00 52.91 349.82 49.73
C 346.66 46.57 344.48 46.52 202.19 46.52
C 59.90 46.52 57.72 46.57 54.56 49.73
C 51.38 52.91 51.35 55.07 51.35 319.73
C 51.35 525.10 50.90 586.97 49.42 588.45
C 48.17 589.70 41.58 590.37 30.49 590.37
C 19.40 590.37 12.81 589.70 11.55 588.45"/>
</g>
</svg>
