<?xml version="1.0" encoding="UTF-8" standalone="no"?>
<!DOCTYPE svg PUBLIC "-//W3C//DTD SVG 1.1//EN"
"http://www.w3.org/Graphics/SVG/1.1/DTD/svg11.dtd">
<svg width="214px" height="600px"
xmlns="http://www.w3.org/2000/svg" version="1.1">
<g transform="translate(0000, 0000) scale(1.0000, 1.0000)">
<path fill="#000000" stroke="none" d="
M 2.58 597.42
C 0.01 594.86 0.00 593.14 0.00 300.24
C 0.00 47.87 0.26 5.28 1.83 3.14
C 3.61 0.71 6.39 0.63 106.23 0.30
C 207.61 -0.04 208.83 -0.01 211.40 2.55
C 213.99 5.14 214.00 6.01 214.00 300.00
C 214.00 593.14 213.99 594.86 211.42 597.42
C 208.88 599.96 207.13 600.00 107.00 600.00
C 6.87 600.00 5.12 599.96 2.58 597.42
M 204.72 590.73
C 206.73 588.72 206.73 576.52 204.72 574.51
C 203.61 573.40 195.06 572.96 174.42 572.96
C 147.39 572.96 145.52 572.81 143.10 570.39
C 140.56 567.85 140.52 566.10 140.52 460.56
C 140.52 378.85 140.14 352.93 138.97 351.76
C 137.81 350.60 123.73 350.21 83.54 350.21
C 31.37 350.21 29.57 350.14 27.07 347.64
C 24.52 345.09 24.49 343.35 24.49 188.63
C 24.49 33.90 24.52 32.16 27.07 29.61
C 29.60 27.09 31.37 27.04 116.41 27.04
C 182.17 27.04 203.54 26.67 204.72 25.49
C 205.57 24.64 206.27 20.99 206.27 17.38
C 206.27 13.78 205.57 10.12 204.72 9.27
C 202.47 7.03 11.53 7.03 9.28 9.27
C 7.03 11.52 7.03 588.48 9.28 590.73
C 11.53 592.97 202.47 592.97 204.72 590.73
M 210.13 300.32
L 210.13 34.12
L 122.91 34.45
C 61.42 34.70 35.17 35.21 33.96 36.23
C 31.55 38.21 31.38 338.55 33.78 340.94
C 34.94 342.10 49.01 342.49 89.21 342.49
C 141.38 342.49 143.17 342.57 145.67 345.06
C 148.21 347.60 148.25 349.35 148.25 455.00
C 148.25 542.70 148.56 562.61 149.97 563.77
C 151.08 564.68 161.94 565.31 180.59 565.56
C 196.48 565.76 209.63 566.06 209.81 566.23
C 209.99 566.39 210.13 446.73 210.13 300.32"/>
<path fill="#000000" stroke="none" d="
M 27.07 570.39
C 24.55 567.86 24.49 566.10 24.49 471.24
C 24.49 376.39 24.55 374.63 27.07 372.10
C 29.55 369.63 31.37 369.53 73.48 369.53
C 115.60 369.53 117.42 369.63 119.89 372.10
C 122.42 374.63 122.47 376.39 122.47 471.24
C 122.47 566.10 122.42 567.86 119.89 570.39
C 117.42 572.86 115.60 572.96 73.48 572.96
C 31.37 572.96 29.55 572.86 27.07 570.39
M 113.19 563.69
C 115.43 561.45 115.43 381.04 113.19 378.80
C 110.98 376.60 35.98 376.60 33.78 378.80
C 31.53 381.04 31.53 561.45 33.78 563.69
C 35.98 565.89 110.98 565.89 113.19 563.69"/>
<path fill="#c55436" stroke="none" d="
M 9.28 590.73
C 8.08 589.53 7.73 523.16 7.73 299.79
C 7.73 14.99 7.77 10.36 10.22 9.06
C 14.04 7.02 202.67 7.22 204.72 9.27
C 205.57 10.12 206.27 13.78 206.27 17.38
C 206.27 20.99 205.57 24.64 204.72 25.49
C 203.54 26.67 182.17 27.04 116.41 27.04
C 31.37 27.04 29.60 27.09 27.07 29.61
C 24.52 32.16 24.49 33.90 24.49 188.63
C 24.49 343.35 24.52 345.09 27.07 347.64
C 29.57 350.14 31.37 350.21 83.54 350.21
C 123.73 350.21 137.81 350.60 138.97 351.76
C 140.14 352.93 140.52 378.85 140.52 460.56
C 140.52 566.10 140.56 567.85 143.10 570.39
C 145.52 572.81 147.39 572.96 174.42 572.96
C 195.06 572.96 203.61 573.40 204.72 574.51
C 206.73 576.52 206.73 588.72 204.72 590.73
C 202.47 592.97 11.53 592.97 9.28 590.73
M 119.89 570.39
C 122.42 567.86 122.47 566.10 122.47 471.24
C 122.47 376.39 122.42 374.63 119.89 372.10
C 117.42 369.63 115.60 369.53 73.48 369.53
C 31.37 369.53 29.55 369.63 27.07 372.10
C 24.55 374.63 24.49 376.39 24.49 471.24
C 24.49 566.10 24.55 567.86 27.07 570.39
C 29.55 572.86 31.37 572.96 73.48 572.96
C 115.60 572.96 117.42 572.86 119.89 570.39"/>
<path fill="#efcd84" stroke="none" d="
M 180.59 565.56
C 161.94 565.31 151.08 564.68 149.97 563.77
C 148.56 562.61 148.25 542.70 148.25 455.00
C 148.25 349.35 148.21 347.60 145.67 345.06
C 143.17 342.57 141.38 342.49 89.21 342.49
C 49.01 342.49 34.94 342.10 33.78 340.94
C 31.53 338.70 31.53 38.55 33.78 36.31
C 34.95 35.14 56.47 34.76 122.73 34.76
L 210.13 34.76
L 210.13 300.64
C 210.13 446.87 209.99 566.39 209.81 566.23
C 209.63 566.06 196.48 565.76 180.59 565.56"/>
<path fill="#efcd84" stroke="none" d="
M 33.78 563.69
C 31.53 561.45 31.53 381.04 33.78 378.80
C 35.98 376.60 110.98 376.60 113.19 378.80
C 115.43 381.04 115.43 561.45 113.19 563.69
C 110.98 565.89 35.98 565.89 33.78 563.69"/>
</g>
</svg>
