<?xml version="1.0" encoding="UTF-8" standalone="no"?>
<!DOCTYPE svg PUBLIC "-//W3C//DTD SVG 1.1//EN"
"http://www.w3.org/Graphics/SVG/1.1/DTD/svg11.dtd">
<svg width="214px" height="600px"
xmlns="http://www.w3.org/2000/svg" version="1.1">
<g transform="translate(0000, 0000) scale(1.0000, 1.0000)">
<path fill="#000000" stroke="none" d="
M 2.58 597.42
C 0.01 594.86 0.00 593.14 0.00 300.24
C 0.00 47.87 0.26 5.28 1.83 3.14
C 3.61 0.71 6.39 0.63 106.23 0.30
C 207.61 -0.04 208.83 -0.01 211.40 2.55
C 213.99 5.14 214.00 6.01 214.00 300.00
C 214.00 593.14 213.99 594.86 211.42 597.42
C 208.88 599.96 207.13 600.00 107.00 600.00
C 6.87 600.00 5.12 599.96 2.58 597.42
M 204.72 590.73
C 206.97 588.48 206.97 11.52 204.72 9.27
C 202.47 7.03 11.53 7.03 9.28 9.27
C 7.27 11.28 7.27 23.48 9.28 25.49
C 10.39 26.60 18.94 27.04 39.58 27.04
C 66.61 27.04 68.48 27.19 70.90 29.61
C 73.44 32.15 73.48 33.90 73.48 139.44
C 73.48 221.15 73.86 247.07 75.03 248.24
C 76.19 249.40 90.27 249.79 130.46 249.79
C 182.63 249.79 184.43 249.86 186.93 252.36
C 189.48 254.91 189.51 256.65 189.51 411.37
C 189.51 566.10 189.48 567.84 186.93 570.39
C 184.40 572.91 182.63 572.96 97.59 572.96
C 31.83 572.96 10.46 573.33 9.28 574.51
C 7.27 576.52 7.27 588.72 9.28 590.73
C 11.53 592.97 202.47 592.97 204.72 590.73
M 180.04 563.77
C 182.45 561.79 182.62 261.45 180.22 259.06
C 179.06 257.90 164.99 257.51 124.79 257.51
C 72.62 257.51 70.83 257.43 68.33 254.94
C 65.79 252.40 65.75 250.65 65.75 145.00
C 65.75 58.18 65.42 37.39 64.06 36.26
C 62.99 35.37 51.72 34.73 33.12 34.49
L 3.87 34.12
L 3.87 300.00
L 3.87 565.88
L 91.09 565.55
C 152.58 565.30 178.83 564.79 180.04 563.77"/>
<path fill="#000000" stroke="none" d="
M 94.11 227.90
C 91.58 225.37 91.53 223.61 91.53 128.76
C 91.53 33.90 91.58 32.14 94.11 29.61
C 96.58 27.14 98.40 27.04 140.52 27.04
C 182.63 27.04 184.45 27.14 186.93 29.61
C 189.45 32.14 189.51 33.90 189.51 128.76
C 189.51 223.61 189.45 225.37 186.93 227.90
C 184.45 230.37 182.63 230.47 140.52 230.47
C 98.40 230.47 96.58 230.37 94.11 227.90
M 180.22 221.20
C 182.47 218.96 182.47 38.55 180.22 36.31
C 178.02 34.11 103.02 34.11 100.81 36.31
C 98.57 38.55 98.57 218.96 100.81 221.20
C 103.02 223.40 178.02 223.40 180.22 221.20"/>
<path fill="#c55436" stroke="none" d="
M 9.28 590.73
C 7.27 588.72 7.27 576.52 9.28 574.51
C 10.46 573.33 31.83 572.96 97.59 572.96
C 182.63 572.96 184.40 572.91 186.93 570.39
C 189.48 567.84 189.51 566.10 189.51 411.37
C 189.51 256.65 189.48 254.91 186.93 252.36
C 184.43 249.86 182.63 249.79 130.46 249.79
C 90.27 249.79 76.19 249.40 75.03 248.24
C 73.86 247.07 73.48 221.15 73.48 139.44
C 73.48 33.90 73.44 32.15 70.90 29.61
C 68.48 27.19 66.61 27.04 39.58 27.04
C 18.94 27.04 10.39 26.60 9.28 25.49
C 8.43 24.64 7.73 20.90 7.73 17.18
C 7.73 11.78 8.25 10.12 10.22 9.06
C 14.04 7.02 202.67 7.22 204.72 9.27
C 206.97 11.52 206.97 588.48 204.72 590.73
C 202.47 592.97 11.53 592.97 9.28 590.73
M 186.93 227.90
C 189.45 225.37 189.51 223.61 189.51 128.76
C 189.51 33.90 189.45 32.14 186.93 29.61
C 184.45 27.14 182.63 27.04 140.52 27.04
C 98.40 27.04 96.58 27.14 94.11 29.61
C 91.58 32.14 91.53 33.90 91.53 128.76
C 91.53 223.61 91.58 225.37 94.11 227.90
C 96.58 230.37 98.40 230.47 140.52 230.47
C 182.63 230.47 184.45 230.37 186.93 227.90"/>
<path fill="#efcd84" stroke="none" d="
M 3.87 300.32
L 3.87 34.76
L 33.26 34.76
C 54.40 34.76 63.09 35.20 64.20 36.31
C 65.37 37.48 65.75 63.40 65.75 145.11
C 65.75 250.65 65.79 252.40 68.33 254.94
C 70.83 257.43 72.62 257.51 124.79 257.51
C 164.99 257.51 179.06 257.90 180.22 259.06
C 182.62 261.45 182.45 561.79 180.04 563.77
C 178.83 564.79 152.58 565.30 91.09 565.55
L 3.87 565.88
L 3.87 300.32"/>
<path fill="#efcd84" stroke="none" d="
M 100.81 221.20
C 98.57 218.96 98.57 38.55 100.81 36.31
C 103.02 34.11 178.02 34.11 180.22 36.31
C 182.47 38.55 182.47 218.96 180.22 221.20
C 178.02 223.40 103.02 223.40 100.81 221.20"/>
</g>
</svg>
