<?xml version="1.0" encoding="UTF-8" standalone="no"?>
<!DOCTYPE svg PUBLIC "-//W3C//DTD SVG 1.1//EN"
"http://www.w3.org/Graphics/SVG/1.1/DTD/svg11.dtd">
<svg width="598px" height="600px"
xmlns="http://www.w3.org/2000/svg" version="1.1">
<g transform="translate(0000, 0000) scale(1.0000, 1.0000)">
<path fill="#000000" stroke="none" d="
M 139.19 597.42
C 136.64 594.88 136.61 593.14 136.61 442.22
L 136.61 289.61
L 133.71 291.14
C 132.11 291.98 126.60 295.91 121.43 299.87
C 106.94 311.01 104.15 312.89 100.74 313.74
C 96.05 314.92 85.94 309.27 74.80 299.25
C 64.18 289.71 55.95 285.41 26.52 274.08
C 5.44 265.96 0.00 261.90 0.00 254.29
C 0.00 246.68 5.44 242.63 26.52 234.50
C 55.95 223.17 64.18 218.87 74.80 209.33
C 85.94 199.31 96.05 193.66 100.74 194.85
C 104.15 195.70 106.94 197.58 121.43 208.71
C 126.60 212.68 132.11 216.61 133.71 217.44
L 136.61 218.97
L 136.61 112.31
C 136.61 22.22 136.90 5.25 138.44 3.14
C 140.23 0.70 143.73 0.63 314.99 0.31
C 488.53 -0.03 489.73 -0.01 492.31 2.56
C 494.86 5.11 494.90 6.71 494.90 98.38
L 494.90 191.61
L 506.17 192.45
C 521.91 193.62 546.13 197.72 560.59 201.64
C 588.18 209.14 597.97 222.93 597.97 254.29
C 597.97 285.66 588.18 299.45 560.59 306.94
C 546.13 310.87 521.91 314.96 506.17 316.13
L 494.90 316.97
L 494.90 455.91
C 494.90 593.14 494.87 594.88 492.32 597.42
C 489.77 599.97 488.03 600.00 315.75 600.00
C 143.48 600.00 141.74 599.97 139.19 597.42
M 485.62 590.73
C 486.80 589.55 487.16 557.20 487.16 452.96
L 487.16 316.74
L 482.33 316.73
C 479.68 316.71 475.32 316.35 472.66 315.91
L 467.83 315.12
L 467.83 441.46
C 467.83 566.10 467.79 567.85 465.25 570.39
C 462.73 572.91 460.96 572.96 372.46 572.96
C 283.96 572.96 282.19 572.91 279.67 570.39
C 277.13 567.85 277.09 566.10 277.09 460.56
C 277.09 378.85 276.72 352.93 275.54 351.76
C 274.38 350.60 260.31 350.21 220.13 350.21
C 167.97 350.21 166.18 350.14 163.68 347.64
C 161.24 345.21 161.10 343.35 161.10 312.79
C 161.10 281.91 161.00 280.55 158.70 281.28
C 157.39 281.69 153.75 282.77 150.65 283.67
L 144.99 285.31
L 144.67 437.05
C 144.42 548.10 144.72 589.25 145.79 590.52
C 147.80 592.96 483.19 593.15 485.62 590.73
M 458.55 563.69
C 459.74 562.51 460.10 533.03 460.10 438.86
L 460.10 315.57
L 455.91 314.94
C 453.60 314.59 443.32 313.12 433.03 311.67
C 422.75 310.21 407.85 307.87 399.91 306.48
C 391.97 305.07 365.59 301.30 341.27 298.08
C 278.69 289.82 245.15 285.00 218.45 280.45
C 195.68 276.58 181.53 276.10 171.73 278.88
L 168.83 279.70
L 168.83 309.55
C 168.83 331.04 169.27 339.84 170.38 340.94
C 171.54 342.10 185.61 342.49 225.80 342.49
C 277.95 342.49 279.75 342.57 282.25 345.06
C 284.78 347.60 284.82 349.35 284.82 454.89
C 284.82 536.60 285.20 562.52 286.37 563.69
C 288.60 565.92 456.32 565.92 458.55 563.69
M 529.09 305.82
C 548.32 302.87 569.23 296.91 575.34 292.65
C 578.24 290.63 582.42 286.27 584.65 282.97
C 588.02 277.96 588.85 275.20 589.62 266.47
C 590.14 260.70 590.15 250.52 589.65 243.84
C 588.84 233.14 588.24 230.96 584.66 225.64
C 578.67 216.75 572.11 212.81 556.04 208.51
C 518.57 198.46 480.38 197.32 431.10 204.75
C 421.89 206.14 411.74 207.59 408.55 207.97
C 405.35 208.34 399.55 209.19 395.66 209.87
C 391.77 210.54 366.25 214.03 338.95 217.64
C 272.59 226.38 231.52 232.42 212.03 236.28
C 192.52 240.17 188.99 240.21 168.68 236.85
C 150.32 233.79 142.21 231.45 134.03 226.85
C 126.16 222.41 111.11 211.70 106.04 206.92
C 102.99 204.04 101.75 203.48 101.32 204.82
C 100.38 207.81 95.11 249.80 95.11 254.29
C 95.11 258.79 100.38 300.77 101.32 303.76
C 101.75 305.10 102.99 304.55 106.04 301.66
C 122.10 286.53 143.91 276.18 169.09 271.74
C 188.28 268.36 192.51 268.42 212.03 272.30
C 231.52 276.17 272.59 282.21 338.95 290.95
C 366.25 294.55 391.77 298.04 395.66 298.71
C 399.55 299.39 405.35 300.24 408.55 300.63
C 411.74 301.00 422.17 302.48 431.75 303.93
C 441.32 305.36 454.94 307.06 462.03 307.69
C 479.21 309.22 513.08 308.28 529.09 305.82
M 94.08 302.25
C 94.07 301.36 92.65 290.21 90.92 277.47
L 87.77 254.29
L 90.92 231.12
C 94.46 205.16 94.48 204.72 93.05 204.72
C 92.50 204.72 87.42 208.84 81.77 213.88
C 70.23 224.19 61.73 228.86 38.60 237.58
C 20.52 244.40 8.24 250.48 7.23 253.09
C 5.74 257.00 13.78 261.58 38.60 270.98
C 61.77 279.75 70.24 284.41 81.77 294.71
C 92.16 303.98 94.08 305.16 94.08 302.25
M 219.33 227.97
C 245.17 223.58 279.13 218.72 341.27 210.50
C 365.59 207.28 391.97 203.51 399.91 202.11
C 407.85 200.72 422.75 198.37 433.03 196.92
C 443.32 195.46 453.60 194.00 455.91 193.65
L 460.10 193.02
L 460.10 114.79
C 460.10 55.66 459.73 36.19 458.55 35.02
C 456.31 32.78 172.62 32.78 170.38 35.02
C 169.21 36.19 168.83 59.68 168.83 132.81
L 168.83 229.07
L 173.66 229.88
C 176.32 230.32 179.08 230.88 179.79 231.12
C 183.98 232.55 199.85 231.27 219.33 227.97
M 161.10 129.40
C 161.10 32.61 161.14 30.86 163.68 28.33
C 166.23 25.78 167.97 25.75 314.47 25.75
C 460.96 25.75 462.70 25.78 465.25 28.33
C 467.78 30.85 467.83 32.61 467.83 112.18
L 467.83 193.47
L 472.66 192.67
C 475.32 192.23 479.68 191.87 482.33 191.86
L 487.16 191.85
L 487.16 100.69
C 487.16 31.51 486.79 9.15 485.62 7.98
C 483.37 5.74 148.13 5.74 145.89 7.98
C 144.72 9.15 144.34 35.07 144.34 116.73
L 144.34 223.93
L 149.82 225.35
C 152.84 226.12 155.88 226.96 156.59 227.21
C 161.16 228.90 161.10 230.25 161.10 129.40"/>
<path fill="#000000" stroke="none" d="
M 163.68 570.39
C 161.15 567.86 161.10 566.10 161.10 471.24
C 161.10 376.39 161.15 374.63 163.68 372.10
C 166.15 369.63 167.97 369.53 210.07 369.53
C 252.18 369.53 254.00 369.63 256.47 372.10
C 259.00 374.63 259.05 376.39 259.05 471.24
C 259.05 566.10 259.00 567.86 256.47 570.39
C 254.00 572.86 252.18 572.96 210.07 572.96
C 167.97 572.96 166.15 572.86 163.68 570.39
M 249.77 563.69
C 252.01 561.45 252.01 381.04 249.77 378.80
C 247.56 376.60 172.58 376.60 170.38 378.80
C 168.14 381.04 168.14 561.45 170.38 563.69
C 172.58 565.89 247.56 565.89 249.77 563.69"/>
<path fill="#000000" stroke="none" d="
M 243.56 161.56
C 241.21 158.74 242.76 145.03 246.69 133.75
C 254.27 111.95 271.96 94.66 294.06 87.42
C 307.70 82.96 331.54 82.96 345.18 87.42
C 367.28 94.66 384.98 111.95 392.55 133.75
C 396.48 145.03 398.03 158.74 395.69 161.56
C 394.25 163.27 384.73 163.52 319.62 163.52
C 254.51 163.52 244.99 163.27 243.56 161.56
M 389.27 153.80
C 392.86 149.47 384.81 128.36 375.17 116.78
C 364.08 103.48 349.98 94.66 333.68 90.82
C 318.91 87.35 304.79 89.16 289.45 96.54
C 270.30 105.75 254.47 125.20 249.83 145.26
C 247.23 156.57 242.14 155.79 319.62 155.79
C 379.39 155.79 387.81 155.55 389.27 153.80"/>
<path fill="#c55436" stroke="none" d="
M 145.79 590.52
C 144.72 589.25 144.42 548.10 144.67 437.05
L 144.99 285.31
L 150.65 283.67
C 153.75 282.77 157.39 281.69 158.70 281.28
C 161.00 280.55 161.10 281.91 161.10 312.79
C 161.10 343.35 161.24 345.21 163.68 347.64
C 166.18 350.14 167.97 350.21 220.13 350.21
C 260.31 350.21 274.38 350.60 275.54 351.76
C 276.72 352.93 277.09 378.85 277.09 460.56
C 277.09 566.10 277.13 567.85 279.67 570.39
C 282.19 572.91 283.96 572.96 372.46 572.96
C 460.96 572.96 462.73 572.91 465.25 570.39
C 467.79 567.85 467.83 566.10 467.83 441.46
L 467.83 315.12
L 472.66 315.91
C 475.32 316.35 479.68 316.71 482.33 316.73
L 487.16 316.74
L 487.16 452.96
C 487.16 557.20 486.80 589.55 485.62 590.73
C 483.19 593.15 147.80 592.96 145.79 590.52
M 256.47 570.39
C 259.00 567.86 259.05 566.10 259.05 471.24
C 259.05 376.39 259.00 374.63 256.47 372.10
C 254.00 369.63 252.18 369.53 210.07 369.53
C 167.97 369.53 166.15 369.63 163.68 372.10
C 161.15 374.63 161.10 376.39 161.10 471.24
C 161.10 566.10 161.15 567.86 163.68 570.39
C 166.15 572.86 167.97 572.96 210.07 572.96
C 252.18 572.96 254.00 572.86 256.47 570.39"/>
<path fill="#c55436" stroke="none" d="
M 156.59 227.21
C 155.88 226.96 152.84 226.12 149.82 225.35
L 144.34 223.93
L 144.34 116.52
C 144.34 11.64 144.41 9.08 146.83 7.78
C 150.67 5.72 483.57 5.94 485.62 7.98
C 486.79 9.15 487.16 31.51 487.16 100.69
L 487.16 191.85
L 482.33 191.86
C 479.68 191.87 475.32 192.23 472.66 192.67
L 467.83 193.47
L 467.83 112.18
C 467.83 32.61 467.78 30.85 465.25 28.33
C 462.70 25.78 460.96 25.75 314.47 25.75
C 167.97 25.75 166.23 25.78 163.68 28.33
C 161.14 30.86 161.10 32.61 161.10 129.40
C 161.10 230.25 161.16 228.90 156.59 227.21"/>
<path fill="#efcd84" stroke="none" d="
M 170.38 563.69
C 168.14 561.45 168.14 381.04 170.38 378.80
C 172.58 376.60 247.56 376.60 249.77 378.80
C 252.01 381.04 252.01 561.45 249.77 563.69
C 247.56 565.89 172.58 565.89 170.38 563.69"/>
<path fill="#efcd84" stroke="none" d="
M 286.37 563.69
C 285.20 562.52 284.82 536.60 284.82 454.89
C 284.82 349.35 284.78 347.60 282.25 345.06
C 279.75 342.57 277.95 342.49 225.80 342.49
C 185.61 342.49 171.54 342.10 170.38 340.94
C 169.27 339.84 168.83 331.04 168.83 309.55
L 168.83 279.70
L 171.73 278.88
C 181.53 276.10 195.68 276.58 218.45 280.45
C 245.15 285.00 278.69 289.82 341.27 298.08
C 365.59 301.30 391.97 305.07 399.91 306.48
C 407.85 307.87 422.75 310.21 433.03 311.67
C 443.32 313.12 453.60 314.59 455.91 314.94
L 460.10 315.57
L 460.10 438.86
C 460.10 533.03 459.74 562.51 458.55 563.69
C 456.32 565.92 288.60 565.92 286.37 563.69"/>
<path fill="#efcd84" stroke="none" d="
M 179.79 231.12
C 179.08 230.88 176.32 230.32 173.66 229.88
L 168.83 229.07
L 168.83 132.61
C 168.83 38.55 168.90 36.10 171.32 34.82
C 175.15 32.77 456.50 32.97 458.55 35.02
C 459.73 36.19 460.10 55.66 460.10 114.79
L 460.10 193.02
L 455.91 193.65
C 453.60 194.00 443.32 195.46 433.03 196.92
C 422.75 198.37 407.85 200.72 399.91 202.11
C 391.97 203.51 365.59 207.28 341.27 210.50
C 279.13 218.72 245.17 223.58 219.33 227.97
C 199.85 231.27 183.98 232.55 179.79 231.12
M 395.69 161.56
C 398.03 158.74 396.48 145.03 392.55 133.75
C 384.98 111.95 367.28 94.66 345.18 87.42
C 331.54 82.96 307.70 82.96 294.06 87.42
C 271.96 94.66 254.27 111.95 246.69 133.75
C 242.76 145.03 241.21 158.74 243.56 161.56
C 244.99 163.27 254.51 163.52 319.62 163.52
C 384.73 163.52 394.25 163.27 395.69 161.56"/>
<path fill="#c57a36" stroke="none" d="
M 249.97 153.80
C 246.38 149.47 254.43 128.36 264.07 116.78
C 275.40 103.20 290.03 94.20 306.41 90.72
C 317.49 88.38 323.40 88.40 333.68 90.82
C 360.87 97.22 383.39 119.21 389.41 145.26
C 392.01 156.57 397.10 155.79 319.62 155.79
C 259.85 155.79 251.43 155.55 249.97 153.80"/>
<path fill="#ed9835" stroke="none" d="
M 462.03 307.69
C 454.94 307.06 441.32 305.36 431.75 303.93
C 422.17 302.48 411.74 301.00 408.55 300.63
C 405.35 300.24 399.55 299.39 395.66 298.71
C 391.77 298.04 366.25 294.55 338.95 290.95
C 272.59 282.21 231.52 276.17 212.03 272.30
C 192.51 268.42 188.28 268.36 169.09 271.74
C 143.91 276.18 122.10 286.53 106.04 301.66
C 102.99 304.55 101.75 305.10 101.32 303.76
C 100.38 300.77 95.11 258.79 95.11 254.29
C 95.11 249.80 100.38 207.81 101.32 204.82
C 101.75 203.48 102.99 204.04 106.04 206.92
C 111.11 211.70 126.16 222.41 134.03 226.85
C 142.21 231.45 150.32 233.79 168.68 236.85
C 188.99 240.21 192.52 240.17 212.03 236.28
C 231.52 232.42 272.59 226.38 338.95 217.64
C 366.25 214.03 391.77 210.54 395.66 209.87
C 399.55 209.19 405.35 208.34 408.55 207.97
C 411.74 207.59 421.91 206.14 431.15 204.73
C 480.05 197.34 518.76 198.52 556.04 208.51
C 572.11 212.81 578.67 216.75 584.66 225.64
C 588.24 230.96 588.84 233.14 589.65 243.84
C 590.15 250.52 590.14 260.70 589.62 266.47
C 588.85 275.20 588.02 277.96 584.65 282.97
C 582.42 286.27 578.24 290.63 575.34 292.65
C 569.23 296.91 548.32 302.87 529.09 305.82
C 513.08 308.28 479.21 309.22 462.03 307.69"/>
<path fill="#ed9835" stroke="none" d="
M 81.77 294.71
C 70.24 284.41 61.77 279.75 38.60 270.98
C 13.78 261.58 5.74 257.00 7.23 253.09
C 8.24 250.48 20.52 244.40 38.60 237.58
C 61.73 228.86 70.23 224.19 81.77 213.88
C 87.42 208.84 92.50 204.72 93.05 204.72
C 94.48 204.72 94.46 205.16 90.92 231.12
L 87.77 254.29
L 90.92 277.47
C 94.46 303.41 94.48 303.86 93.05 303.86
C 92.50 303.86 87.42 299.74 81.77 294.71"/>
</g>
</svg>
