<?xml version="1.0" encoding="UTF-8" standalone="no"?>
<!DOCTYPE svg PUBLIC "-//W3C//DTD SVG 1.1//EN"
"http://www.w3.org/Graphics/SVG/1.1/DTD/svg11.dtd">
<svg width="604px" height="500px"
xmlns="http://www.w3.org/2000/svg" version="1.1">
<g transform="translate(0000, 0000) scale(1.0000, 1.0000)">
<path fill="#000000" stroke="none" d="
M 553.44 498.60
C 499.09 494.15 456.57 474.25 426.47 439.19
C 406.68 416.15 381.96 376.16 371.25 349.88
C 368.11 342.17 363.40 333.24 360.77 330.04
C 358.15 326.84 347.65 317.88 337.44 310.13
C 327.24 302.39 286.89 270.07 247.77 238.31
C 170.92 175.91 166.87 172.69 166.05 173.51
C 165.76 173.80 164.23 178.53 162.64 184.01
C 158.19 199.48 157.64 222.28 161.28 239.95
C 166.61 265.76 182.24 301.73 199.80 328.60
C 213.52 349.59 218.12 363.53 214.73 373.81
C 210.55 386.49 197.31 387.47 182.97 376.13
C 172.47 367.83 162.76 352.55 151.97 327.33
C 122.53 258.52 117.03 207.09 133.84 157.80
L 137.08 148.27
L 133.55 145.01
C 131.60 143.24 123.11 136.44 114.67 129.93
C 62.00 89.25 19.73 55.36 13.80 49.07
C 4.52 39.21 0.00 30.03 0.00 21.04
C 0.01 8.64 6.39 1.72 19.00 0.41
C 27.89 -0.51 34.97 2.35 44.85 10.80
C 56.95 21.16 122.29 78.32 156.67 108.63
C 175.00 124.77 216.69 161.17 249.33 189.48
C 281.97 217.80 316.76 248.65 326.67 258.05
C 347.69 278.01 365.57 293.15 376.29 300.08
C 384.93 305.67 391.99 307.28 416.67 309.32
C 465.67 313.36 514.63 337.45 550.05 374.95
C 578.69 405.27 602.04 451.68 603.68 481.57
C 604.29 492.63 604.16 493.29 600.88 496.57
C 597.56 499.89 596.96 500.00 581.73 499.81
C 573.08 499.71 560.35 499.16 553.44 498.60
M 593.49 489.17
C 597.16 485.51 596.39 479.27 589.84 460.09
C 574.69 415.64 545.47 377.24 507.41 351.76
C 476.91 331.33 444.92 320.17 406.81 316.65
C 395.53 315.61 383.36 313.79 379.76 312.59
C 368.89 308.97 352.64 296.13 319.29 264.83
C 308.27 254.47 274.36 224.43 243.96 198.05
C 213.55 171.68 168.84 132.68 144.61 111.39
C 33.32 13.59 29.79 10.60 23.23 8.75
C 19.76 7.77 12.19 12.67 9.37 17.69
C 7.45 21.12 7.56 21.77 11.15 28.64
C 17.79 41.35 23.63 46.43 99.33 105.41
C 117.67 119.71 135.96 133.77 139.99 136.69
C 144.01 139.61 153.91 147.63 161.99 154.52
C 190.55 178.87 198.35 185.35 231.33 212.11
C 307.31 273.76 326.68 289.32 340.00 299.33
C 365.95 318.85 372.49 326.40 379.28 344.67
C 388.51 369.45 418.72 416.61 439.47 438.61
C 472.08 473.19 518.45 490.69 580.33 491.81
C 589.23 491.97 591.05 491.61 593.49 489.17
M 205.37 371.93
C 209.03 365.11 205.85 356.29 191.85 334.39
C 170.89 301.59 156.85 267.31 151.97 237.04
C 148.77 217.16 151.69 184.05 158.00 168.95
C 158.76 167.12 157.45 165.13 152.60 160.67
C 149.08 157.44 145.75 155.08 145.19 155.43
C 143.27 156.61 138.73 170.60 135.81 184.29
C 127.88 221.63 134.93 262.97 158.77 319.00
C 171.52 348.97 180.97 363.09 194.11 371.80
C 200.45 376.00 203.17 376.03 205.37 371.93"/>
<path fill="#c57a36" stroke="none" d="
M 556.93 490.55
C 508.37 486.55 467.73 468.57 439.47 438.61
C 418.72 416.61 388.51 369.45 379.28 344.67
C 372.49 326.40 365.95 318.85 340.00 299.33
C 326.68 289.32 307.31 273.76 231.33 212.11
C 198.35 185.35 190.55 178.87 161.99 154.52
C 153.91 147.63 144.01 139.61 139.99 136.69
C 135.96 133.77 117.67 119.71 99.33 105.41
C 23.63 46.43 17.79 41.35 11.15 28.64
C 7.59 21.83 7.47 21.11 9.33 17.80
C 12.11 12.89 17.72 9.00 22.01 9.00
C 28.15 9.00 27.19 8.20 144.61 111.39
C 168.84 132.68 213.55 171.68 243.96 198.05
C 274.36 224.43 308.27 254.47 319.29 264.83
C 352.64 296.13 368.89 308.97 379.76 312.59
C 383.36 313.79 395.53 315.61 406.81 316.65
C 444.92 320.17 476.91 331.33 507.41 351.76
C 545.47 377.24 574.69 415.64 589.84 460.09
C 596.39 479.27 597.16 485.51 593.49 489.17
C 591.05 491.61 589.23 491.97 580.33 491.81
C 574.65 491.71 564.12 491.15 556.93 490.55"/>
<path fill="#c55436" stroke="none" d="
M 194.11 371.80
C 180.97 363.09 171.52 348.97 158.77 319.00
C 134.93 262.97 127.88 221.63 135.81 184.29
C 139.28 167.99 143.55 156.00 145.88 156.00
C 146.80 156.00 150.13 158.37 153.28 161.28
C 157.57 165.24 158.75 167.15 158.00 168.95
C 151.69 184.05 148.77 217.17 151.97 237.04
C 156.85 267.31 170.89 301.59 191.85 334.39
C 205.85 356.29 209.03 365.11 205.37 371.93
C 203.17 376.03 200.45 376.00 194.11 371.80"/>
</g>
</svg>
