<?xml version="1.0" encoding="UTF-8" standalone="no"?>
<!DOCTYPE svg PUBLIC "-//W3C//DTD SVG 1.1//EN"
"http://www.w3.org/Graphics/SVG/1.1/DTD/svg11.dtd">
<svg width="640px" height="500px"
xmlns="http://www.w3.org/2000/svg" version="1.1">
<g transform="translate(0000, 0000) scale(1.0000, 1.0000)">
<path fill="#000000" stroke="none" d="
M 2.37 497.63
C 0.12 495.38 0.00 493.68 0.00 464.60
C 0.00 437.54 0.23 433.74 1.96 432.31
C 3.50 431.04 12.04 430.56 41.33 430.09
L 78.74 429.50
L 87.87 415.28
C 92.89 407.46 97.04 400.53 97.07 399.88
C 97.10 399.23 92.24 396.03 86.27 392.77
C 45.44 370.49 15.04 339.60 4.29 309.47
C 1.00 300.24 0.62 297.76 0.60 285.55
C 0.59 270.13 2.12 264.08 8.98 252.37
C 17.33 238.13 33.73 223.65 51.56 214.77
C 60.75 210.19 67.83 207.94 82.19 205.00
C 95.47 202.29 102.54 199.45 106.30 195.37
C 107.72 193.80 111.81 187.46 115.37 181.28
C 123.08 167.86 126.02 165.24 132.05 166.37
C 141.03 168.06 148.92 180.44 154.90 202.16
C 157.62 212.03 158.13 216.28 158.17 229.27
C 158.22 245.97 157.11 250.98 150.27 264.66
C 145.54 274.10 142.20 277.25 136.89 277.25
C 129.91 277.25 126.19 274.32 117.42 261.95
C 112.83 255.51 107.31 249.12 105.13 247.78
C 93.23 240.43 69.43 245.71 54.65 258.99
C 38.55 273.46 38.42 293.46 54.32 310.68
C 62.67 319.72 70.70 324.96 87.24 332.23
C 94.34 335.34 101.77 338.61 103.75 339.50
C 109.12 341.90 126.81 348.34 128.04 348.34
C 129.33 348.34 141.76 329.88 159.16 302.13
C 174.25 278.08 174.90 277.25 178.47 277.25
C 181.32 277.25 188.44 282.54 188.44 284.66
C 188.44 285.36 181.58 297.17 173.20 310.91
C 164.81 324.66 156.79 338.03 155.37 340.64
C 153.94 343.25 151.87 346.82 150.78 348.59
C 149.46 350.70 149.18 352.20 149.94 352.94
C 150.59 353.55 161.78 355.46 174.81 357.17
C 187.85 358.87 204.11 361.32 210.96 362.57
C 236.61 367.31 274.54 370.55 317.33 371.65
L 347.26 372.42
L 347.26 329.85
L 347.26 287.29
L 272.30 282.81
C 231.06 280.34 194.80 278.35 191.70 278.39
C 184.69 278.45 181.33 275.59 181.33 269.55
C 181.33 262.39 184.31 260.66 196.65 260.66
L 207.22 260.66
L 212.42 254.72
C 219.38 246.77 227.82 232.62 233.61 219.19
C 251.16 178.50 250.73 131.48 232.49 96.55
C 230.10 91.98 224.43 83.18 219.88 77.00
L 211.60 65.76
L 200.13 66.16
C 189.77 66.53 188.42 66.33 186.18 64.09
C 182.99 60.90 182.87 54.15 185.96 51.07
C 188.53 48.50 192.32 48.19 245.93 46.10
C 264.18 45.40 283.91 44.40 289.78 43.87
L 300.44 42.91
L 315.26 28.41
C 337.00 7.13 342.45 2.83 349.62 1.30
C 357.49 -0.39 360.76 -0.32 368.26 1.67
C 375.83 3.68 376.69 4.36 398.99 25.56
L 416.95 42.63
L 442.77 43.90
C 456.98 44.60 468.98 45.39 469.42 45.68
C 469.87 45.95 481.36 46.71 494.97 47.36
C 541.75 49.61 542.81 49.86 542.81 58.65
C 542.81 65.47 539.67 67.54 529.32 67.54
L 520.56 67.54
L 529.15 84.69
C 544.33 115.00 548.16 130.39 548.14 161.14
C 548.11 197.31 541.07 219.66 519.75 251.18
L 510.95 264.22
L 521.55 264.22
C 530.57 264.22 532.50 264.57 534.52 266.59
C 538.47 270.53 537.26 279.50 532.54 281.32
C 530.74 282.00 396.68 286.66 377.19 286.71
L 369.78 286.73
L 369.78 328.79
L 369.78 370.85
L 373.63 370.84
C 380.17 370.83 432.39 366.18 447.41 364.28
C 466.92 361.80 499.41 355.11 518.41 349.64
C 539.99 343.44 587.15 326.24 593.74 322.17
C 596.69 320.34 599.79 317.75 600.60 316.42
C 601.42 315.08 603.18 306.39 604.50 297.10
C 605.83 287.81 607.92 274.08 609.15 266.59
C 610.38 259.10 612.01 247.10 612.74 239.93
C 614.42 223.58 616.94 217.43 622.96 214.92
C 628.18 212.73 634.36 213.55 637.70 216.90
C 639.92 219.11 640.00 221.34 640.00 277.80
C 640.00 344.86 640.13 343.84 629.57 355.62
C 617.37 369.19 587.89 390.34 565.46 401.59
C 551.25 408.72 521.48 420.53 503.70 426.09
L 491.26 429.99
L 563.26 430.04
C 633.65 430.09 635.31 430.14 637.63 432.46
C 639.88 434.72 640.00 436.41 640.00 465.05
C 640.00 493.68 639.88 495.38 637.63 497.63
C 635.27 499.99 633.68 500.00 320.00 500.00
C 6.32 500.00 4.73 499.99 2.37 497.63
M 632.65 492.65
C 634.67 490.64 634.67 439.45 632.65 437.44
C 630.58 435.37 9.42 435.37 7.35 437.44
C 5.33 439.45 5.33 490.64 7.35 492.65
C 9.42 494.73 630.58 494.73 632.65 492.65
M 100.99 418.25
C 107.86 406.82 109.20 402.84 106.17 402.84
C 104.84 402.84 96.69 414.69 88.38 428.71
C 87.68 429.89 88.28 430.18 90.83 429.89
C 93.69 429.56 95.25 427.78 100.99 418.25
M 175.41 428.93
C 173.77 428.40 167.64 426.52 161.78 424.76
C 155.91 423.00 144.18 419.02 135.70 415.90
C 127.23 412.78 119.17 409.89 117.78 409.47
C 115.64 408.82 114.57 409.89 110.54 416.73
C 107.93 421.15 105.19 425.96 104.41 427.43
L 103.03 430.09
L 140.69 430.00
C 162.15 429.95 177.09 429.49 175.41 428.93
M 472.30 426.85
C 485.53 424.24 509.24 417.63 511.41 415.94
C 512.06 415.43 515.53 414.06 519.11 412.91
C 529.77 409.49 561.78 395.94 570.07 391.33
C 596.05 376.90 625.02 353.06 630.78 341.39
C 633.46 335.95 633.48 335.45 633.81 280.50
C 634.04 243.00 633.73 224.32 632.88 222.74
C 632.19 221.43 630.64 220.38 629.43 220.38
C 623.29 220.38 619.65 228.74 618.06 246.45
C 617.62 251.33 615.76 264.93 613.91 276.66
C 612.07 288.39 610.23 300.91 609.83 304.50
C 608.02 320.63 603.96 326.48 591.02 331.61
C 581.01 335.58 543.00 349.02 532.15 352.44
C 487.31 366.54 438.64 373.64 363.85 376.97
C 320.07 378.91 259.02 376.10 218.67 370.27
C 212.15 369.34 196.22 367.19 183.25 365.51
C 138.28 359.67 125.59 356.43 91.85 342.18
C 64.58 330.66 52.30 322.17 43.70 308.86
C 38.35 300.59 34.88 286.95 36.01 278.71
C 39.54 252.94 72.14 233.29 101.33 239.32
C 107.33 240.57 109.29 241.66 113.78 246.30
C 116.71 249.32 121.60 255.36 124.65 259.70
C 127.69 264.04 131.58 268.51 133.27 269.62
C 136.20 271.54 136.49 271.53 138.83 269.41
C 142.57 266.04 149.13 252.17 151.25 243.18
C 154.64 228.82 151.40 207.07 143.03 188.16
C 139.70 180.63 133.36 172.99 130.45 172.99
C 129.19 172.99 126.85 175.71 124.35 180.12
C 110.67 204.21 108.87 205.64 85.65 210.88
C 67.07 215.06 60.11 217.59 48.59 224.40
C 38.19 230.53 29.30 237.95 21.82 246.69
C 3.09 268.63 1.22 289.69 15.48 317.90
C 22.97 332.73 39.15 350.98 57.30 365.07
C 89.33 389.95 143.86 414.50 190.04 424.86
C 199.75 427.03 208.00 429.11 208.36 429.47
C 208.71 429.82 265.32 429.96 334.14 429.76
C 456.90 429.42 459.51 429.37 472.30 426.85
M 363.85 190.73
L 363.85 10.62
L 361.04 9.34
C 358.99 8.40 357.53 8.42 355.71 9.40
L 353.19 10.75
L 353.19 190.81
L 353.19 370.85
L 358.52 370.85
L 363.85 370.85
L 363.85 190.73
M 161.68 318.12
C 177.15 294.09 181.95 285.76 181.01 284.60
C 179.27 282.46 179.63 281.99 158.80 314.57
C 148.80 330.21 139.88 344.18 138.95 345.63
C 137.28 348.25 137.91 351.16 139.99 350.46
C 140.61 350.26 150.36 335.70 161.68 318.12
M 346.07 277.84
C 346.07 275.56 345.94 273.70 345.78 273.70
C 345.61 273.68 316.42 272.05 280.89 270.04
C 188.05 264.80 190.64 264.88 187.85 267.00
C 185.67 268.66 185.64 268.97 187.38 270.73
C 188.99 272.37 200.33 273.36 260.86 277.18
C 300.23 279.66 335.51 281.75 339.26 281.84
L 346.07 281.99
L 346.07 277.84
M 453.06 279.63
C 498.48 278.21 528.38 276.81 529.80 276.05
C 532.82 274.44 532.80 271.75 529.77 270.13
C 527.41 268.87 488.94 269.62 408.89 272.50
C 391.62 273.13 376.01 273.65 374.22 273.66
C 371.29 273.70 370.96 274.11 370.96 277.84
C 370.96 281.73 371.20 281.99 374.81 281.98
C 376.94 281.98 412.15 280.92 453.06 279.63
M 347.26 163.55
L 347.26 58.15
L 339.85 58.73
C 335.77 59.06 307.41 60.65 276.81 62.27
C 246.22 63.89 221.07 65.33 220.93 65.49
C 220.79 65.64 223.61 69.76 227.20 74.64
C 239.69 91.65 248.40 113.74 251.37 135.92
C 253.27 150.24 252.07 180.09 249.04 193.13
C 244.05 214.62 235.27 234.95 223.48 252.26
L 216.95 261.85
L 220.78 261.93
C 222.87 261.98 250.73 263.50 282.67 265.32
C 314.61 267.14 342.21 268.71 344.00 268.80
L 347.26 268.96
L 347.26 163.55
M 436.99 266.52
C 452.78 265.90 473.37 265.40 482.79 265.40
L 499.88 265.40
L 506.39 257.41
C 540.73 215.24 551.44 164.09 535.75 117.25
C 531.82 105.51 521.23 83.09 514.95 73.16
C 511.32 67.44 510.08 66.35 507.21 66.35
C 502.34 66.35 389.97 60.66 378.96 59.86
L 369.78 59.18
L 369.78 164.11
L 369.78 269.03
L 389.04 268.33
C 399.63 267.95 421.21 267.13 436.99 266.52
M 535.79 61.56
C 538.67 60.02 538.73 57.31 535.92 55.79
C 534.72 55.17 523.39 54.06 510.73 53.36
C 498.06 52.67 477.04 51.29 464.00 50.32
C 442.18 48.70 389.31 46.21 376.43 46.21
C 370.97 46.21 370.96 46.22 370.96 50.36
C 370.96 53.84 371.39 54.51 373.63 54.59
C 375.10 54.63 409.10 56.43 449.19 58.58
C 535.48 63.21 532.87 63.13 535.79 61.56
M 261.89 58.07
C 298.74 56.13 332.75 54.22 337.48 53.83
L 346.07 53.12
L 346.07 49.21
L 346.07 45.28
L 335.70 45.81
C 330.00 46.08 315.20 47.10 302.81 48.06
C 290.43 49.00 260.67 50.58 236.68 51.54
C 212.31 52.52 192.05 53.84 190.76 54.54
C 187.89 56.07 187.78 58.73 190.52 60.33
C 193.16 61.87 185.10 62.13 261.89 58.07
M 332.16 27.16
C 341.75 18.06 347.26 11.97 347.26 10.45
C 347.26 8.41 346.47 8.76 341.63 12.89
C 338.54 15.55 330.39 23.03 323.56 29.54
C 312.83 39.74 311.53 41.37 314.09 41.42
C 316.29 41.46 320.92 37.80 332.16 27.16
M 347.02 39.70
C 347.21 39.53 347.21 35.65 347.02 31.10
L 346.67 22.81
L 336.59 32.27
L 326.52 41.75
L 336.59 40.89
C 342.14 40.40 346.82 39.88 347.02 39.70
M 388.11 39.31
C 386.83 38.13 382.17 33.78 377.78 29.64
L 369.78 22.13
L 369.78 31.80
L 369.78 41.47
L 380.11 41.47
C 390.17 41.47 390.39 41.41 388.11 39.31
M 392.30 28.35
C 384.81 21.20 376.66 13.72 374.22 11.72
C 370.19 8.44 369.78 8.32 369.78 10.46
C 369.78 14.08 399.15 41.46 402.96 41.41
C 405.49 41.37 403.93 39.47 392.30 28.35"/>
<path fill="#e7bd8b" stroke="none" d="
M 311.70 41.00
C 311.70 40.06 345.20 9.48 346.22 9.48
C 349.52 9.48 345.60 14.41 332.16 27.16
C 322.01 36.77 316.17 41.47 314.38 41.47
C 312.91 41.47 311.70 41.26 311.70 41.00"/>
<path fill="#e7bd8b" stroke="none" d="
M 384.89 27.14
C 375.34 18.09 369.78 11.97 369.78 10.46
C 369.78 8.32 370.19 8.44 374.22 11.72
C 376.66 13.72 384.81 21.20 392.30 28.35
C 403.93 39.47 405.49 41.37 402.96 41.41
C 400.77 41.43 396.05 37.71 384.89 27.14"/>
<path fill="#c55436" stroke="none" d="
M 88.38 428.71
C 96.69 414.69 104.84 402.84 106.17 402.84
C 109.20 402.84 107.86 406.82 100.99 418.25
C 95.25 427.78 93.69 429.56 90.83 429.89
C 88.28 430.18 87.68 429.89 88.38 428.71"/>
<path fill="#c55436" stroke="none" d="
M 353.19 190.73
L 353.19 10.60
L 356.23 9.45
C 358.25 8.68 360.04 8.71 361.56 9.53
C 363.82 10.72 363.85 13.99 363.85 190.81
L 363.85 370.85
L 358.52 370.85
L 353.19 370.85
L 353.19 190.73"/>
<path fill="#c55436" stroke="none" d="
M 138.09 349.54
C 137.64 348.83 138.03 347.06 138.95 345.63
C 139.88 344.18 148.80 330.21 158.80 314.57
C 179.63 281.99 179.27 282.46 181.01 284.60
C 181.95 285.76 177.15 294.09 161.68 318.12
C 150.36 335.70 140.61 350.26 139.99 350.46
C 139.39 350.66 138.52 350.25 138.09 349.54"/>
<path fill="#c55436" stroke="none" d="
M 260.86 277.18
C 200.33 273.36 188.99 272.37 187.38 270.73
C 185.64 268.97 185.67 268.66 187.85 267.00
C 190.64 264.88 188.05 264.80 280.89 270.04
C 316.42 272.05 345.61 273.68 345.78 273.70
C 345.94 273.70 346.07 275.56 346.07 277.84
L 346.07 281.99
L 339.26 281.84
C 335.51 281.75 300.23 279.66 260.86 277.18"/>
<path fill="#c55436" stroke="none" d="
M 370.96 277.84
C 370.96 274.11 371.29 273.70 374.22 273.66
C 376.01 273.65 391.62 273.13 408.89 272.50
C 488.94 269.62 527.41 268.87 529.77 270.13
C 532.80 271.75 532.82 274.44 529.80 276.05
C 528.00 277.03 399.88 281.92 374.81 281.98
C 371.20 281.99 370.96 281.73 370.96 277.84"/>
<path fill="#c55436" stroke="none" d="
M 449.19 58.58
C 409.10 56.43 375.10 54.63 373.63 54.59
C 371.39 54.51 370.96 53.84 370.96 50.36
C 370.96 46.22 370.97 46.21 376.43 46.21
C 389.31 46.21 442.18 48.70 464.00 50.32
C 477.04 51.29 498.06 52.67 510.73 53.36
C 523.39 54.06 534.72 55.17 535.92 55.79
C 538.73 57.31 538.67 60.02 535.79 61.56
C 532.87 63.13 535.48 63.21 449.19 58.58"/>
<path fill="#c55436" stroke="none" d="
M 190.52 60.33
C 187.78 58.73 187.89 56.07 190.76 54.54
C 192.05 53.84 212.31 52.52 236.68 51.54
C 260.67 50.58 290.43 49.00 302.81 48.06
C 315.20 47.10 330.00 46.08 335.70 45.81
L 346.07 45.28
L 346.07 49.21
L 346.07 53.12
L 337.48 53.83
C 329.59 54.48 196.39 61.66 193.74 61.58
C 193.11 61.55 191.66 61.00 190.52 60.33"/>
<path fill="#fefefe" stroke="none" d="
M 282.67 265.32
C 250.73 263.50 222.87 261.98 220.78 261.93
L 216.95 261.85
L 223.48 252.26
C 235.27 234.95 244.05 214.62 249.04 193.13
C 252.07 180.09 253.27 150.24 251.37 135.92
C 248.40 113.74 239.69 91.65 227.20 74.64
C 223.61 69.76 220.79 65.64 220.93 65.49
C 221.07 65.33 246.22 63.89 276.81 62.26
C 307.41 60.65 335.77 59.10 339.85 58.83
L 347.26 58.33
L 347.26 163.65
L 347.26 268.96
L 344.00 268.80
C 342.21 268.71 314.61 267.14 282.67 265.32"/>
<path fill="#fefefe" stroke="none" d="
M 369.78 164.11
L 369.78 59.18
L 378.96 59.86
C 389.97 60.66 502.34 66.35 507.21 66.35
C 510.08 66.35 511.32 67.44 514.95 73.16
C 521.23 83.09 531.82 105.51 535.75 117.25
C 551.44 164.09 540.73 215.24 506.39 257.41
L 499.88 265.40
L 482.79 265.40
C 473.37 265.40 452.78 265.90 436.99 266.52
C 421.21 267.13 399.63 267.95 389.04 268.33
L 369.78 269.03
L 369.78 164.11"/>
<path fill="#c57a36" stroke="none" d="
M 208.36 429.47
C 208.00 429.11 199.75 427.03 190.04 424.86
C 143.86 414.50 89.33 389.95 57.30 365.07
C 39.15 350.98 22.97 332.73 15.48 317.90
C 1.22 289.69 3.09 268.63 21.82 246.69
C 29.30 237.95 38.19 230.53 48.59 224.40
C 60.11 217.59 67.07 215.06 85.65 210.88
C 108.72 205.68 110.38 204.37 123.85 181.09
C 128.88 172.42 130.61 171.64 135.15 175.98
C 142.81 183.32 151.37 207.55 152.50 225.12
C 152.95 232.19 152.58 237.57 151.25 243.18
C 149.13 252.17 142.57 266.04 138.83 269.41
C 136.49 271.53 136.20 271.54 133.27 269.62
C 131.58 268.51 127.69 264.04 124.65 259.70
C 121.60 255.36 116.71 249.32 113.78 246.30
C 109.29 241.66 107.33 240.57 101.33 239.32
C 72.14 233.29 39.54 252.94 36.01 278.71
C 34.88 286.95 38.35 300.59 43.70 308.86
C 52.30 322.17 64.58 330.66 91.85 342.18
C 125.59 356.43 138.28 359.67 183.25 365.51
C 196.22 367.19 212.15 369.34 218.67 370.27
C 259.02 376.10 320.07 378.91 363.85 376.97
C 426.31 374.19 468.82 369.00 506.07 359.63
C 525.77 354.68 536.23 351.41 563.56 341.66
C 606.57 326.30 607.48 325.58 609.83 304.50
C 610.23 300.91 612.07 288.39 613.91 276.66
C 615.76 264.93 617.62 251.33 618.06 246.45
C 619.65 228.74 623.29 220.38 629.43 220.38
C 630.64 220.38 632.19 221.43 632.88 222.74
C 633.73 224.32 634.04 243.00 633.81 280.50
C 633.48 335.45 633.46 335.95 630.78 341.39
C 625.02 353.06 596.05 376.90 570.07 391.33
C 561.78 395.94 529.77 409.49 519.11 412.91
C 515.53 414.06 512.06 415.43 511.41 415.94
C 509.24 417.63 485.53 424.24 472.30 426.85
C 459.51 429.37 456.90 429.42 334.14 429.76
C 265.32 429.96 208.71 429.82 208.36 429.47"/>
<path fill="#0071ff" stroke="none" d="
M 7.35 492.65
C 6.33 491.64 5.93 483.79 5.93 464.86
C 5.93 439.99 6.06 438.40 8.21 437.25
C 11.76 435.36 630.76 435.55 632.65 437.44
C 634.67 439.45 634.67 490.64 632.65 492.65
C 630.58 494.73 9.42 494.73 7.35 492.65"/>
</g>
</svg>
