<?xml version="1.0" encoding="UTF-8" standalone="no"?>
<!DOCTYPE svg PUBLIC "-//W3C//DTD SVG 1.1//EN"
"http://www.w3.org/Graphics/SVG/1.1/DTD/svg11.dtd">
<svg width="633px" height="500px"
xmlns="http://www.w3.org/2000/svg" version="1.1">
<g transform="translate(0000, 0000) scale(1.0000, 1.0000)">
<path fill="#000000" stroke="none" d="
M 15.16 497.47
C 12.81 495.13 12.63 493.27 12.63 471.59
C 12.63 449.91 12.81 448.06 15.16 445.71
C 17.64 443.23 19.37 443.18 96.07 443.18
L 174.47 443.18
L 151.35 431.45
C 123.92 417.53 107.76 407.63 86.12 391.45
C 58.32 370.67 23.61 333.43 13.72 313.80
C 9.03 304.47 8.67 303.02 9.12 295.45
C 9.48 289.53 10.89 284.41 14.15 277.06
C 19.67 264.67 22.11 250.82 21.09 237.63
C 19.74 220.25 10.98 195.13 2.96 185.59
C 1.19 183.50 0.05 181.00 0.42 180.04
C 1.58 177.01 15.25 171.49 26.46 169.53
C 43.62 166.53 68.23 169.26 68.23 174.15
C 68.23 174.87 66.14 178.71 63.59 182.70
C 61.04 186.69 57.05 194.34 54.71 199.72
L 50.48 209.49
L 50.83 236.38
L 51.17 263.26
L 47.06 273.64
C 44.80 279.34 42.96 285.34 42.96 286.96
C 42.96 294.20 56.82 308.66 95.71 341.99
C 123.19 365.54 157.28 384.26 194.74 396.35
C 220.02 404.52 257.28 412.37 282.15 414.79
L 290.75 415.62
L 290.36 381.67
L 289.97 347.71
L 285.23 338.14
C 277.89 323.31 263.31 310.80 247.32 305.63
C 237.99 302.61 225.57 309.22 206.36 327.42
C 200.22 333.24 193.97 338.66 192.45 339.46
C 188.21 341.69 182.23 341.20 179.41 338.38
C 176.18 335.15 176.22 330.21 179.56 321.07
C 181.71 315.16 184.33 311.68 193.15 302.94
C 206.09 290.10 213.64 286.01 229.70 283.17
C 240.19 281.31 241.88 281.31 251.62 283.26
C 265.13 285.95 275.42 291.02 285.10 299.77
C 289.34 303.60 293.15 306.38 293.59 305.93
C 296.74 302.78 291.76 286.10 284.21 274.52
C 273.45 258.01 253.12 243.14 241.27 243.12
C 231.52 243.11 218.67 252.36 200.72 272.34
C 192.70 281.25 188.78 282.88 182.47 279.87
C 172.01 274.89 176.99 260.39 195.69 241.34
C 207.01 229.81 213.77 225.68 225.80 222.94
C 235.74 220.67 235.94 220.67 247.74 223.42
C 263.93 227.18 276.21 233.30 286.00 242.45
C 290.41 246.58 294.39 249.58 294.83 249.13
C 295.29 248.69 295.65 201.79 295.65 144.94
C 295.65 44.90 295.58 41.41 293.19 36.73
C 289.54 29.60 284.58 24.19 279.11 21.41
C 265.18 14.31 252.40 23.67 243.13 47.80
C 239.43 57.42 234.21 64.39 230.71 64.39
C 226.98 64.39 223.63 59.66 223.63 54.38
C 223.63 47.61 226.95 32.39 229.83 25.87
C 232.86 19.04 240.29 10.82 246.97 6.89
C 253.35 3.16 270.36 -0.53 276.57 0.47
C 293.71 3.22 303.92 10.44 310.33 24.33
L 313.97 32.20
L 314.30 139.52
C 314.48 198.55 314.91 247.61 315.26 248.56
C 315.69 249.71 318.56 247.77 324.08 242.61
C 333.77 233.55 345.80 227.44 361.91 223.40
C 372.12 220.83 373.94 220.71 380.86 222.13
C 385.07 223.01 390.53 224.41 392.99 225.25
C 399.78 227.59 411.37 236.92 419.80 246.82
C 431.21 260.21 435.62 271.22 432.16 277.69
C 430.53 280.72 424.03 283.30 420.34 282.37
C 418.71 281.96 412.73 276.30 407.04 269.80
C 392.43 253.11 381.42 244.96 370.70 242.95
C 360.19 240.97 337.41 257.07 326.05 274.52
C 318.50 286.10 313.52 302.78 316.66 305.93
C 317.11 306.38 320.92 303.60 325.15 299.77
C 334.83 291.02 345.13 285.95 358.64 283.26
C 368.38 281.31 370.07 281.31 380.56 283.17
C 396.62 286.01 404.17 290.10 417.11 302.94
C 425.93 311.68 428.54 315.16 430.69 321.07
C 434.04 330.21 434.08 335.15 430.84 338.38
C 428.03 341.20 422.05 341.69 417.81 339.46
C 416.29 338.66 410.03 333.24 403.89 327.42
C 384.69 309.22 372.27 302.61 362.93 305.63
C 346.95 310.80 332.37 323.31 325.03 338.14
L 320.29 347.71
L 319.90 381.55
C 319.63 404.08 319.94 415.40 320.81 415.40
C 323.68 415.40 359.38 407.41 377.15 402.79
C 412.07 393.71 446.79 380.42 466.25 368.67
L 475.07 363.35
L 475.07 316.91
L 475.07 270.45
L 458.44 246.02
C 449.29 232.59 440.06 218.35 437.91 214.38
C 434.21 207.55 434.10 206.98 435.94 203.66
C 437.00 201.74 439.33 199.65 441.13 199.02
C 447.86 196.64 450.33 198.65 462.68 216.52
L 474.43 233.51
L 475.07 215.77
C 475.62 200.08 475.99 197.82 478.15 196.24
C 481.72 193.62 488.52 194.00 491.49 196.97
C 493.88 199.36 494.02 201.17 494.02 230.92
L 494.02 262.35
L 498.20 268.48
C 500.49 271.86 508.54 283.71 516.07 294.82
C 523.60 305.93 530.22 315.53 530.76 316.14
C 532.12 317.68 549.99 301.24 553.26 295.44
C 557.07 288.66 556.64 281.48 551.40 264.94
C 545.71 246.88 545.06 240.62 547.59 227.45
C 550.43 212.63 550.18 208.50 545.98 200.62
C 543.99 196.88 540.78 189.87 538.86 185.06
L 535.36 176.31
L 538.18 174.04
C 543.12 170.04 550.89 168.61 567.30 168.66
C 583.31 168.71 594.05 170.71 599.44 174.66
C 601.84 176.41 601.79 176.69 597.40 186.40
C 594.91 191.87 590.47 203.95 587.53 213.24
C 582.36 229.60 582.17 230.76 582.01 247.97
L 581.83 265.78
L 587.83 277.63
C 591.44 284.76 593.83 291.15 593.83 293.71
C 593.83 301.45 589.40 309.76 573.12 332.50
L 557.00 355.03
L 560.46 360.01
C 565.39 367.11 571.91 372.47 575.63 372.47
C 587.96 372.47 596.03 378.40 615.44 401.67
C 624.46 412.47 627.60 417.31 629.94 423.96
C 633.34 433.57 633.87 444.17 631.22 449.24
C 628.77 453.90 621.76 460.42 617.43 462.05
C 609.37 465.09 595.70 462.82 589.78 457.46
C 587.62 455.51 587.51 456.29 587.51 475.19
C 587.51 493.27 587.30 495.16 584.99 497.47
C 582.47 499.99 580.78 500.00 300.07 500.00
C 19.37 500.00 17.68 499.99 15.16 497.47
M 578.42 490.91
C 580.53 488.80 580.53 454.38 578.42 452.27
C 576.21 450.06 23.94 450.06 21.73 452.27
C 19.62 454.38 19.62 488.80 21.73 490.91
C 23.94 493.12 576.21 493.12 578.42 490.91
M 616.59 454.23
C 622.61 450.13 625.61 445.51 626.30 439.22
C 627.28 430.48 623.07 421.92 610.19 406.49
C 595.41 388.76 586.16 380.34 580.52 379.47
C 578.11 379.09 574.01 378.46 571.41 378.07
C 567.69 377.50 565.09 375.67 559.36 369.62
C 552.91 362.78 551.86 362.11 550.19 363.78
C 548.52 365.44 548.97 366.59 554.00 373.80
C 559.58 381.78 559.69 382.15 559.73 392.05
C 559.78 404.04 561.02 407.17 572.99 425.59
C 584.04 442.63 589.01 448.57 596.07 453.24
C 603.30 458.03 610.50 458.37 616.59 454.23
M 410.72 441.16
C 420.18 438.37 473.99 411.01 490.51 400.59
C 519.06 382.59 538.42 365.98 553.55 346.52
C 562.02 335.63 580.76 308.80 583.26 303.99
C 586.90 296.97 586.10 290.95 579.88 278.45
L 574.25 267.11
L 574.46 248.14
C 574.68 229.71 574.83 228.69 579.96 212.12
C 582.88 202.74 586.66 191.73 588.36 187.65
C 590.08 183.56 591.01 179.76 590.45 179.20
C 588.96 177.73 574.22 175.53 565.78 175.52
C 558.05 175.51 546.22 177.63 545.25 179.19
C 544.92 179.72 547.48 186.06 550.92 193.30
C 557.99 208.11 558.18 209.71 555.07 228.19
C 552.67 242.46 552.82 243.56 560.35 268.76
C 564.27 281.87 564.34 290.49 560.60 297.58
C 557.73 303.04 533.78 327.99 520.92 338.91
C 511.67 346.77 491.25 362.26 486.01 365.39
C 483.81 366.69 479.10 369.63 475.55 371.92
C 452.25 386.88 417.41 400.27 370.20 412.42
C 325.00 424.05 312.71 425.45 282.77 422.44
C 219.53 416.04 159.63 395.98 115.61 366.49
C 98.30 354.89 85.31 344.04 59.76 319.89
C 33.55 295.09 31.95 290.91 40.48 269.43
L 44.30 259.85
L 43.94 232.49
L 43.59 205.13
L 50.61 191.01
L 57.65 176.89
L 50.80 176.04
C 38.66 174.52 14.28 178.14 12.02 181.79
C 11.61 182.45 13.23 186.83 15.60 191.55
C 24.88 209.99 29.89 232.54 28.61 250.00
C 27.66 262.69 25.71 270.27 20.37 281.99
C 12.39 299.49 15.91 309.43 39.91 337.17
C 69.62 371.49 101.76 396.81 145.30 420.15
C 157.50 426.69 186.31 440.13 192.05 441.96
C 193.79 442.51 242.16 443.02 299.53 443.07
C 391.71 443.17 404.65 442.94 410.72 441.16
M 566.59 428.50
C 556.12 412.12 553.40 404.84 553.40 393.03
C 553.40 385.62 553.01 384.46 548.27 378.06
C 542.38 370.09 544.37 369.65 529.42 382.32
C 514.57 394.91 485.03 413.30 455.52 428.30
L 426.42 443.09
L 501.21 443.13
L 575.98 443.18
L 566.59 428.50
M 310.81 412.88
C 313.19 410.51 313.34 408.67 313.34 381.81
C 313.34 350.13 314.39 343.32 321.23 330.45
C 325.75 321.93 338.55 309.43 347.19 305.08
C 350.46 303.42 356.39 301.06 360.36 299.81
C 367.33 297.63 367.83 297.63 375.42 299.92
C 385.85 303.08 394.82 309.12 409.71 322.98
C 417.14 329.91 422.77 334.22 423.83 333.81
C 430.15 331.39 424.84 320.00 411.39 307.08
C 399.60 295.77 390.86 290.92 378.59 288.90
C 360.87 285.96 344.08 291.93 328.10 306.86
C 322.91 311.69 317.75 315.66 316.64 315.66
C 315.51 315.66 313.47 314.52 312.08 313.13
C 306.38 307.44 310.92 284.91 320.85 269.68
C 331.18 253.84 344.85 243.19 361.62 237.94
C 367.85 236.00 369.58 235.90 374.25 237.29
C 388.45 241.46 397.68 248.13 411.82 264.42
C 416.98 270.38 421.89 275.25 422.72 275.25
C 423.54 275.25 424.96 274.37 425.85 273.28
C 428.12 270.57 424.39 263.31 415.00 252.13
C 404.37 239.48 393.64 231.82 382.82 229.17
C 374.48 227.12 373.48 227.12 364.83 229.18
C 349.39 232.84 338.32 238.90 326.63 250.13
C 320.91 255.61 315.58 260.10 314.78 260.10
C 313.99 260.10 312.20 258.96 310.81 257.58
C 308.33 255.09 308.29 253.37 308.29 145.52
L 308.29 35.98
L 304.69 28.41
C 297.50 13.27 283.50 5.04 267.97 6.82
C 247.86 9.13 233.06 25.28 230.52 47.64
C 229.26 58.76 231.53 58.52 236.29 47.03
C 238.52 41.65 241.06 35.54 241.94 33.46
C 249.36 15.95 267.68 8.02 282.89 15.72
C 290.04 19.34 294.89 24.68 299.00 33.46
L 301.94 39.77
L 301.96 147.41
C 301.97 253.37 301.93 255.09 299.44 257.58
C 298.05 258.96 296.27 260.10 295.48 260.10
C 294.68 260.10 289.35 255.61 283.62 250.13
C 272.42 239.37 261.05 232.87 247.06 229.23
C 237.66 226.79 233.36 226.77 225.33 229.15
C 213.43 232.69 192.82 251.60 185.49 265.71
L 182.90 270.69
L 185.81 273.04
L 188.72 275.40
L 195.66 267.44
C 207.21 254.18 216.86 245.58 224.54 241.73
C 230.63 238.66 233.41 238.06 241.32 238.03
C 249.41 238.01 252.06 238.60 259.40 242.08
C 275.79 249.84 291.77 268.70 297.67 287.25
C 302.79 303.38 301.05 315.66 293.62 315.66
C 292.51 315.66 287.35 311.69 282.16 306.86
C 266.18 291.93 249.38 285.96 231.67 288.90
C 219.40 290.92 210.66 295.77 198.87 307.08
C 185.41 320.00 180.11 331.39 186.43 333.81
C 187.49 334.22 193.12 329.91 200.55 322.98
C 215.35 309.19 224.41 303.08 234.60 300.00
C 241.84 297.80 242.57 297.80 249.61 299.84
C 253.68 301.02 259.71 303.36 263.02 305.03
C 271.71 309.43 284.50 321.93 289.03 330.45
C 295.87 343.32 296.92 350.13 296.92 381.81
C 296.92 408.67 297.07 410.51 299.44 412.88
C 300.83 414.27 303.39 415.40 305.13 415.40
C 306.87 415.40 309.42 414.27 310.81 412.88
M 487.70 323.55
C 487.70 293.12 487.55 291.10 485.07 287.08
C 483.62 284.75 482.20 282.83 481.91 282.83
C 481.62 282.83 481.38 300.18 481.38 321.36
L 481.38 359.91
L 484.54 357.84
L 487.70 355.77
L 487.70 323.55
M 502.86 343.66
C 506.00 341.22 510.35 337.54 512.57 335.48
L 516.58 331.74
L 506.40 316.44
C 500.80 308.02 495.72 300.59 495.12 299.94
C 494.49 299.26 494.02 309.72 494.02 324.32
C 494.02 344.42 494.36 349.71 495.60 348.99
C 496.47 348.50 499.73 346.10 502.86 343.66
M 525.55 325.19
C 526.81 323.69 523.91 318.78 509.60 298.07
C 485.57 263.30 469.38 239.60 456.94 220.96
C 446.97 206.02 443.38 202.60 442.49 207.17
C 442.15 208.98 457.05 231.84 486.73 275.09
C 492.63 283.67 502.95 298.88 509.67 308.86
C 516.39 318.85 522.37 327.02 522.96 327.02
C 523.55 327.02 524.72 326.20 525.55 325.19
M 486.30 203.75
C 485.20 202.41 484.42 202.34 483.11 203.42
C 481.79 204.52 481.38 209.39 481.38 224.32
C 481.38 242.53 481.57 244.04 484.23 247.64
L 487.07 251.48
L 487.41 228.50
C 487.65 212.50 487.31 204.97 486.30 203.75"/>
<path fill="#39bd1b" stroke="none" d="
M 299.44 412.88
C 297.07 410.51 296.92 408.67 296.92 381.81
C 296.92 350.13 295.87 343.32 289.03 330.45
C 284.50 321.93 271.71 309.43 263.02 305.03
C 259.71 303.36 253.68 301.02 249.61 299.84
C 242.57 297.80 241.84 297.80 234.60 300.00
C 224.41 303.08 215.35 309.19 200.55 322.98
C 193.12 329.91 187.49 334.22 186.43 333.81
C 180.11 331.39 185.41 320.00 198.87 307.08
C 210.66 295.77 219.40 290.92 231.67 288.90
C 249.38 285.96 266.18 291.93 282.16 306.86
C 287.35 311.69 292.51 315.66 293.62 315.66
C 301.05 315.66 302.79 303.38 297.67 287.25
C 291.77 268.70 275.79 249.84 259.40 242.08
C 252.06 238.60 249.41 238.01 241.32 238.03
C 233.41 238.06 230.63 238.66 224.54 241.73
C 216.86 245.58 207.21 254.18 195.66 267.44
L 188.72 275.40
L 185.81 273.04
L 182.90 270.69
L 185.49 265.71
C 192.82 251.60 213.43 232.69 225.33 229.15
C 233.36 226.77 237.66 226.79 247.06 229.23
C 261.05 232.87 272.42 239.37 283.62 250.13
C 289.35 255.61 294.68 260.10 295.48 260.10
C 296.27 260.10 298.05 258.96 299.44 257.58
C 301.93 255.09 301.97 253.37 301.96 147.41
L 301.94 39.77
L 299.00 33.46
C 294.89 24.68 290.04 19.34 282.89 15.72
C 267.68 8.02 249.36 15.95 241.94 33.46
C 241.06 35.54 238.52 41.65 236.29 47.03
C 231.53 58.52 229.26 58.76 230.52 47.64
C 233.06 25.20 247.73 9.27 268.03 6.89
C 283.56 5.08 297.48 13.24 304.69 28.41
L 308.29 35.98
L 308.29 145.52
C 308.29 253.37 308.33 255.09 310.81 257.58
C 312.20 258.96 313.99 260.10 314.78 260.10
C 315.58 260.10 320.91 255.61 326.63 250.13
C 338.32 238.90 349.39 232.84 364.83 229.18
C 373.48 227.12 374.48 227.12 382.82 229.17
C 393.64 231.82 404.37 239.48 415.00 252.13
C 424.39 263.31 428.12 270.57 425.85 273.28
C 424.96 274.37 423.54 275.25 422.72 275.25
C 421.89 275.25 416.98 270.38 411.82 264.42
C 397.68 248.13 388.45 241.46 374.25 237.29
C 369.58 235.90 367.85 236.00 361.62 237.94
C 344.85 243.19 331.18 253.84 320.85 269.68
C 310.92 284.91 306.38 307.44 312.08 313.13
C 313.47 314.52 315.51 315.66 316.64 315.66
C 317.75 315.66 322.91 311.69 328.10 306.86
C 344.08 291.93 360.87 285.96 378.59 288.90
C 390.86 290.92 399.60 295.77 411.39 307.08
C 424.84 320.00 430.15 331.39 423.83 333.81
C 422.77 334.22 417.14 329.91 409.71 322.98
C 394.82 309.12 385.85 303.08 375.42 299.92
C 367.83 297.63 367.33 297.63 360.36 299.81
C 356.39 301.06 350.46 303.42 347.19 305.08
C 338.55 309.43 325.75 321.93 321.23 330.45
C 314.39 343.32 313.34 350.13 313.34 381.81
C 313.34 408.67 313.19 410.51 310.81 412.88
C 309.42 414.27 306.87 415.40 305.13 415.40
C 303.39 415.40 300.83 414.27 299.44 412.88"/>
<path fill="#c55436" stroke="none" d="
M 192.05 441.96
C 186.31 440.13 157.50 426.69 145.30 420.15
C 101.76 396.81 69.62 371.49 39.91 337.17
C 15.91 309.43 12.39 299.49 20.37 281.99
C 25.71 270.27 27.66 262.69 28.61 250.00
C 29.89 232.54 24.88 209.99 15.60 191.55
C 13.23 186.83 11.62 182.44 12.03 181.78
C 14.23 178.22 38.99 174.56 50.85 176.05
L 57.65 176.89
L 50.61 191.01
L 43.59 205.13
L 43.94 232.49
L 44.30 259.85
L 40.48 269.43
C 31.95 290.91 33.55 295.09 59.76 319.89
C 85.31 344.04 98.30 354.89 115.61 366.49
C 159.63 395.98 219.53 416.04 282.77 422.44
C 312.71 425.45 325.00 424.05 370.20 412.42
C 417.41 400.27 452.25 386.88 475.55 371.92
C 479.10 369.63 483.81 366.69 486.01 365.39
C 491.25 362.26 511.67 346.77 520.92 338.91
C 533.78 327.99 557.73 303.04 560.60 297.58
C 564.34 290.49 564.27 281.87 560.35 268.76
C 552.82 243.56 552.67 242.46 555.07 228.19
C 558.18 209.71 557.99 208.11 550.92 193.30
C 547.48 186.06 544.92 179.72 545.25 179.19
C 546.22 177.63 558.05 175.51 565.78 175.52
C 574.22 175.53 588.96 177.73 590.45 179.20
C 591.01 179.76 590.08 183.56 588.36 187.65
C 586.66 191.73 582.88 202.74 579.96 212.12
C 574.83 228.69 574.68 229.71 574.46 248.14
L 574.25 267.11
L 579.88 278.45
C 586.10 290.95 586.90 296.97 583.26 303.99
C 582.08 306.26 576.23 315.06 570.26 323.56
C 542.84 362.56 527.84 377.05 490.51 400.59
C 473.99 411.01 420.18 438.37 410.72 441.16
C 404.65 442.94 391.71 443.17 299.53 443.07
C 242.16 443.02 193.79 442.51 192.05 441.96"/>
<path fill="#c57a36" stroke="none" d="
M 596.07 453.24
C 589.01 448.57 584.04 442.63 572.99 425.59
C 561.02 407.17 559.78 404.04 559.73 392.05
C 559.69 382.15 559.58 381.78 554.00 373.80
C 548.97 366.59 548.52 365.44 550.19 363.78
C 551.86 362.11 552.91 362.78 559.36 369.62
C 565.09 375.67 567.69 377.50 571.41 378.07
C 574.01 378.46 578.11 379.09 580.52 379.47
C 586.16 380.34 595.41 388.76 610.19 406.49
C 623.07 421.92 627.28 430.48 626.30 439.22
C 625.61 445.51 622.61 450.13 616.59 454.23
C 610.50 458.37 603.30 458.03 596.07 453.24"/>
<path fill="#c57a36" stroke="none" d="
M 481.38 321.36
C 481.38 300.18 481.62 282.83 481.91 282.83
C 482.20 282.83 483.62 284.75 485.07 287.08
C 487.55 291.10 487.70 293.12 487.70 323.55
L 487.70 355.77
L 484.54 357.84
L 481.38 359.91
L 481.38 321.36"/>
<path fill="#c57a36" stroke="none" d="
M 509.67 308.86
C 502.95 298.88 492.63 283.67 486.73 275.09
C 457.05 231.84 442.15 208.98 442.49 207.17
C 443.38 202.60 446.97 206.02 456.94 220.96
C 469.38 239.60 485.57 263.30 509.60 298.07
C 523.91 318.78 526.81 323.69 525.55 325.19
C 524.72 326.20 523.55 327.02 522.96 327.02
C 522.37 327.02 516.39 318.85 509.67 308.86"/>
<path fill="#c57a36" stroke="none" d="
M 484.23 247.64
C 481.56 244.04 481.38 242.54 481.38 224.13
C 481.38 207.44 481.69 204.36 483.37 203.71
C 484.45 203.30 485.88 203.48 486.55 204.15
C 487.26 204.86 487.61 214.94 487.41 228.42
L 487.07 251.48
L 484.23 247.64"/>
<path fill="#0071ff" stroke="none" d="
M 21.73 490.91
C 20.70 489.87 20.22 483.71 20.22 471.39
C 20.22 454.87 20.42 453.26 22.65 452.07
C 26.43 450.05 576.40 450.25 578.42 452.27
C 580.53 454.38 580.53 488.80 578.42 490.91
C 576.21 493.12 23.94 493.12 21.73 490.91"/>
</g>
</svg>
