<?xml version="1.0" encoding="UTF-8" standalone="no"?>
<!DOCTYPE svg PUBLIC "-//W3C//DTD SVG 1.1//EN"
"http://www.w3.org/Graphics/SVG/1.1/DTD/svg11.dtd">
<svg width="630px" height="600px"
xmlns="http://www.w3.org/2000/svg" version="1.1">
<g transform="translate(0000, 0000) scale(1.0000, 1.0000)">
<path fill="#000000" stroke="none" d="
M 327.65 597.47
C 324.37 594.20 324.36 595.04 329.02 529.50
C 331.15 499.38 332.72 474.54 332.50 474.30
C 332.26 474.08 302.75 473.71 266.93 473.48
L 201.78 473.08
L 184.70 479.00
C 164.57 485.99 156.93 487.96 139.43 490.67
C 98.99 496.96 73.78 493.43 39.85 476.74
C 15.00 464.53 1.67 452.27 0.34 440.45
C -0.22 435.50 0.14 434.27 2.95 431.47
C 8.00 426.43 14.12 427.04 26.81 433.86
C 70.53 457.33 91.69 463.62 121.48 461.99
C 139.21 461.01 147.80 456.38 144.23 449.71
C 141.62 444.83 138.20 444.21 113.02 444.11
C 90.43 444.01 88.50 443.81 85.18 441.35
C 78.08 436.08 78.05 427.41 85.11 423.13
C 88.73 420.92 91.70 420.63 111.96 420.51
C 124.48 420.43 142.13 420.29 151.17 420.19
L 167.62 420.00
L 183.43 427.58
L 199.25 435.16
L 210.63 435.07
C 217.83 435.01 229.70 433.50 242.89 430.98
C 254.37 428.78 277.72 425.27 294.76 423.17
C 311.80 421.07 328.16 419.04 331.09 418.66
C 335.94 418.03 336.49 417.59 337.21 413.72
C 337.66 411.39 337.64 408.33 337.19 406.91
C 336.75 405.50 321.31 390.33 302.89 373.20
C 284.47 356.06 268.57 340.84 267.53 339.37
C 266.23 337.52 265.66 333.40 265.66 325.93
C 265.65 315.51 289.15 11.17 290.41 5.32
C 291.27 1.38 295.67 0.00 307.50 0.00
C 321.95 0.00 322.59 0.83 322.59 19.58
C 322.59 40.59 319.82 39.16 360.54 39.16
C 401.26 39.16 398.49 40.59 398.49 19.58
C 398.49 0.54 398.95 0.00 414.94 0.00
C 427.70 0.00 431.39 1.91 431.39 8.53
C 431.39 10.43 436.80 80.13 443.40 163.40
C 450.02 246.68 455.42 319.74 455.42 325.76
C 455.42 333.39 454.85 337.52 453.55 339.37
C 452.51 340.84 436.57 356.10 418.12 373.26
C 399.11 390.93 384.24 405.75 383.82 407.41
C 382.19 413.94 383.31 414.92 392.81 415.28
C 408.17 415.86 502.52 423.23 510.45 424.47
C 535.26 428.37 540.40 423.63 542.65 394.74
C 543.34 385.71 544.76 368.36 545.78 356.21
C 546.81 344.06 548.54 321.03 549.64 305.05
C 551.88 272.30 553.05 264.91 557.46 255.54
C 563.09 243.56 571.60 239.25 587.62 240.29
C 601.85 241.21 610.71 247.15 616.15 259.43
C 618.41 264.54 619.07 269.48 620.06 288.48
C 621.56 317.96 625.83 384.10 627.81 409.26
C 628.67 420.03 629.35 435.09 629.35 442.74
C 629.33 455.15 629.00 457.24 626.19 462.32
C 624.08 466.12 621.37 468.83 617.98 470.53
C 613.05 472.99 610.04 473.07 500.65 473.39
C 395.08 473.71 388.37 473.86 388.39 475.92
C 388.39 477.12 390.09 501.97 392.18 531.13
C 396.72 594.75 396.71 594.20 393.43 597.47
C 391.04 599.86 389.22 600.00 360.54 600.00
C 331.86 600.00 330.04 599.86 327.65 597.47
M 387.23 591.03
C 389.37 588.90 389.75 587.37 389.20 583.14
C 387.39 569.37 376.66 404.43 377.39 401.52
C 377.94 399.36 390.32 386.93 413.02 365.79
C 436.13 344.25 448.10 332.24 448.65 329.99
C 449.45 326.87 425.71 18.08 424.19 11.65
C 422.81 5.85 412.02 4.18 407.17 9.02
C 404.62 11.57 404.52 12.49 405.33 26.02
C 406.59 47.10 410.33 45.47 360.54 45.47
C 310.75 45.47 314.49 47.10 315.76 26.02
C 316.57 12.49 316.47 11.57 313.91 9.02
C 309.07 4.18 298.28 5.85 296.90 11.65
C 295.38 18.08 271.63 326.87 272.43 329.99
C 272.99 332.24 284.95 344.25 308.07 365.79
C 330.76 386.93 343.15 399.36 343.69 401.52
C 344.43 404.43 333.70 569.37 331.89 583.14
C 331.33 587.37 331.71 588.90 333.85 591.03
C 336.37 593.55 337.82 593.68 360.54 593.68
C 383.26 593.68 384.72 593.55 387.23 591.03
M 139.16 482.50
C 148.86 480.87 162.18 477.41 173.64 473.51
C 187.47 468.82 195.35 466.89 204.00 466.08
C 210.43 465.47 242.22 465.32 274.64 465.74
L 333.61 466.51
L 334.47 451.47
C 334.94 443.19 335.63 434.11 336.03 431.29
L 336.72 426.16
L 331.86 426.64
C 310.46 428.75 263.79 435.31 246.69 438.62
C 230.24 441.79 222.45 442.66 209.96 442.70
L 194.12 442.74
L 178.49 435.16
L 162.86 427.58
L 151.33 427.78
C 89.41 428.88 89.82 428.84 89.82 432.04
C 89.82 432.68 91.51 434.07 93.59 435.15
C 96.64 436.72 101.65 437.04 119.84 436.80
C 134.99 436.61 143.46 437.00 145.80 438.01
C 153.48 441.32 156.61 452.89 151.92 460.59
C 148.23 466.61 140.47 468.80 120.18 469.52
C 85.68 470.74 57.81 462.96 24.77 442.90
C 15.43 437.23 13.00 436.45 10.69 438.37
C 7.93 440.65 8.34 441.66 14.70 448.46
C 28.06 462.71 58.94 478.02 87.29 484.43
C 97.83 486.82 117.79 486.08 139.16 482.50
M 608.62 464.67
C 620.69 460.65 623.56 452.05 621.31 426.67
C 620.50 417.45 618.97 396.82 617.93 380.84
C 616.88 364.86 615.48 345.25 614.81 337.26
C 614.14 329.28 613.55 316.48 613.53 308.84
C 613.48 290.25 611.54 271.49 609.10 265.63
C 605.08 256.00 593.87 247.67 584.86 247.60
C 572.41 247.52 562.66 258.63 559.93 276.00
C 559.50 278.78 557.73 300.67 556.01 324.63
C 549.15 419.91 548.62 423.39 539.80 429.95
C 535.37 433.25 521.72 434.17 507.57 432.14
C 494.78 430.29 403.34 423.16 392.59 423.16
L 384.25 423.16
L 385.02 430.42
C 385.44 434.41 386.16 444.08 386.63 451.89
L 387.46 466.11
L 495.89 466.11
C 573.46 466.11 605.55 465.70 608.62 464.67"/>
<path fill="#000000" stroke="none" d="
M 352.05 374.84
C 329.93 355.86 301.43 330.08 300.19 327.92
C 299.29 326.37 298.63 320.36 298.60 313.58
C 298.53 295.28 292.73 296.84 360.54 296.84
C 428.35 296.84 422.56 295.28 422.48 313.58
C 422.45 320.36 421.80 326.37 420.90 327.92
C 420.06 329.38 409.12 339.61 396.60 350.65
C 363.27 380.03 364.65 378.95 360.54 378.95
C 358.19 378.95 355.09 377.46 352.05 374.84
M 387.11 347.19
C 401.37 334.61 413.74 323.10 414.57 321.63
C 417.08 317.27 416.58 308.59 413.67 305.68
C 411.23 303.25 409.46 303.16 360.54 303.16
C 311.62 303.16 309.85 303.25 307.41 305.68
C 304.50 308.59 304.01 317.27 306.51 321.63
C 307.95 324.14 359.18 370.09 360.54 370.09
C 360.88 370.09 372.85 359.79 387.11 347.19"/>
<path fill="#000000" stroke="none" d="
M 302.35 289.26
C 299.35 286.27 299.41 289.59 301.73 252.00
C 302.75 235.33 303.59 220.98 303.60 220.11
C 303.61 219.23 304.75 217.39 306.14 216.00
C 308.59 213.56 310.36 213.47 360.54 213.47
C 410.73 213.47 412.50 213.56 414.94 216.00
C 416.33 217.39 417.47 219.23 417.48 220.11
C 417.50 220.98 418.33 235.33 419.35 252.00
C 421.67 289.59 421.73 286.27 418.73 289.26
C 416.28 291.71 414.52 291.79 360.54 291.79
C 306.56 291.79 304.80 291.71 302.35 289.26
M 411.32 282.77
C 413.92 280.18 413.99 279.36 413.18 261.61
C 411.79 231.06 411.03 224.73 408.42 222.13
C 406.24 219.94 403.15 219.79 360.54 219.79
C 317.93 219.79 314.85 219.94 312.66 222.13
C 310.05 224.73 309.29 231.06 307.90 261.61
C 306.70 288.00 301.12 285.47 360.54 285.47
C 407.96 285.47 408.65 285.44 411.32 282.77"/>
<path fill="#000000" stroke="none" d="
M 307.33 205.82
C 305.06 203.55 304.83 202.18 305.46 194.77
C 306.59 181.57 308.67 148.05 308.67 143.27
C 308.67 140.63 309.66 137.96 311.20 136.42
C 313.65 133.98 315.42 133.89 360.54 133.89
C 405.67 133.89 407.44 133.98 409.88 136.42
C 411.42 137.96 412.41 140.63 412.41 143.27
C 412.41 148.05 414.50 181.57 415.62 194.77
C 416.26 202.18 416.03 203.55 413.75 205.82
C 411.21 208.36 409.90 208.42 360.54 208.42
C 311.18 208.42 309.88 208.36 307.33 205.82
M 406.25 199.41
C 408.77 196.90 408.89 195.85 408.16 184.57
C 407.73 177.89 407.00 166.22 406.53 158.64
C 405.86 147.70 405.21 144.39 403.35 142.53
C 401.19 140.37 398.19 140.21 360.54 140.21
C 322.89 140.21 319.90 140.37 317.73 142.53
C 315.87 144.39 315.23 147.70 314.56 158.64
C 314.09 166.22 313.36 177.89 312.93 184.57
C 311.70 203.41 308.17 202.11 360.54 202.11
C 402.77 202.11 403.60 202.05 406.25 199.41"/>
<path fill="#000000" stroke="none" d="
M 312.32 126.16
C 310.02 123.87 309.75 122.53 310.40 116.37
C 310.80 112.47 311.74 99.60 312.47 87.79
C 314.24 59.28 314.75 55.83 317.62 52.96
C 319.93 50.65 322.25 50.53 360.54 50.53
C 398.84 50.53 401.15 50.65 403.47 52.96
C 406.34 55.83 406.84 59.28 408.61 87.79
C 409.35 99.60 410.28 112.47 410.69 116.37
C 411.33 122.53 411.07 123.87 408.77 126.16
C 406.13 128.79 405.22 128.84 360.54 128.84
C 315.86 128.84 314.95 128.79 312.32 126.16
M 401.02 120.00
C 403.98 117.04 403.92 118.56 402.25 92.84
C 400.49 65.52 399.97 62.11 397.14 59.28
C 394.85 56.99 392.59 56.84 360.54 56.84
C 328.50 56.84 326.23 56.99 323.94 59.28
C 321.11 62.11 320.59 65.52 318.83 92.84
C 317.16 118.56 317.10 117.04 320.06 120.00
C 322.48 122.41 324.27 122.53 360.54 122.53
C 396.81 122.53 398.61 122.41 401.02 120.00"/>
<path fill="#c57a36" stroke="none" d="
M 333.85 591.03
C 331.71 588.90 331.33 587.37 331.89 583.14
C 333.70 569.37 344.43 404.43 343.69 401.52
C 343.15 399.36 330.76 386.93 308.07 365.79
C 284.95 344.25 272.99 332.24 272.43 329.99
C 271.63 326.84 295.39 18.04 296.91 11.60
C 298.23 6.08 309.29 4.41 313.91 9.02
C 316.47 11.57 316.57 12.49 315.76 26.02
C 314.49 47.10 310.75 45.47 360.54 45.47
C 410.33 45.47 406.59 47.10 405.33 26.02
C 404.52 12.49 404.62 11.57 407.17 9.02
C 412.02 4.18 422.81 5.85 424.19 11.65
C 425.71 18.08 449.45 326.87 448.65 329.99
C 448.10 332.24 436.13 344.25 413.02 365.79
C 390.32 386.93 377.94 399.36 377.39 401.52
C 376.66 404.43 387.39 569.37 389.20 583.14
C 389.75 587.37 389.37 588.90 387.23 591.03
C 384.72 593.55 383.26 593.68 360.54 593.68
C 337.82 593.68 336.37 593.55 333.85 591.03
M 369.03 374.84
C 391.16 355.86 419.66 330.08 420.90 327.92
C 421.80 326.37 422.45 320.36 422.48 313.58
C 422.56 295.28 428.35 296.84 360.54 296.84
C 292.73 296.84 298.53 295.28 298.60 313.58
C 298.63 320.36 299.29 326.37 300.19 327.92
C 301.02 329.38 311.96 339.61 324.49 350.65
C 357.81 380.03 356.43 378.95 360.54 378.95
C 362.90 378.95 365.99 377.46 369.03 374.84
M 418.73 289.26
C 421.73 286.27 421.67 289.59 419.35 252.00
C 418.33 235.33 417.50 220.98 417.48 220.11
C 417.47 219.23 416.33 217.39 414.94 216.00
C 412.50 213.56 410.73 213.47 360.54 213.47
C 310.36 213.47 308.59 213.56 306.14 216.00
C 304.75 217.39 303.61 219.23 303.60 220.11
C 303.59 220.98 302.75 235.33 301.73 252.00
C 299.41 289.59 299.35 286.27 302.35 289.26
C 304.80 291.71 306.56 291.79 360.54 291.79
C 414.52 291.79 416.28 291.71 418.73 289.26
M 413.75 205.82
C 416.03 203.55 416.26 202.18 415.62 194.77
C 414.50 181.57 412.41 148.05 412.41 143.27
C 412.41 140.63 411.42 137.96 409.88 136.42
C 407.44 133.98 405.67 133.89 360.54 133.89
C 315.42 133.89 313.65 133.98 311.20 136.42
C 309.66 137.96 308.67 140.63 308.67 143.27
C 308.67 148.05 306.59 181.57 305.46 194.77
C 304.83 202.18 305.06 203.55 307.33 205.82
C 309.88 208.36 311.18 208.42 360.54 208.42
C 409.90 208.42 411.21 208.36 413.75 205.82
M 408.77 126.16
C 411.07 123.87 411.33 122.53 410.69 116.37
C 410.28 112.47 409.35 99.60 408.61 87.79
C 406.84 59.28 406.34 55.83 403.47 52.96
C 401.15 50.65 398.84 50.53 360.54 50.53
C 322.25 50.53 319.93 50.65 317.62 52.96
C 314.75 55.83 314.24 59.28 312.47 87.79
C 311.74 99.60 310.80 112.47 310.40 116.37
C 309.75 122.53 310.02 123.87 312.32 126.16
C 314.95 128.79 315.86 128.84 360.54 128.84
C 405.22 128.84 406.13 128.79 408.77 126.16"/>
<path fill="#ae3c2a" stroke="none" d="
M 87.29 484.43
C 67.52 479.96 43.23 469.73 27.29 459.16
C 20.51 454.67 8.86 443.22 8.86 441.06
C 8.86 438.91 12.50 436.84 14.90 437.60
C 16.22 438.01 20.66 440.40 24.77 442.90
C 57.81 462.96 85.68 470.74 120.18 469.52
C 140.47 468.80 148.23 466.61 151.92 460.59
C 156.61 452.89 153.48 441.32 145.80 438.01
C 143.46 437.00 134.99 436.61 119.84 436.80
C 101.65 437.04 96.64 436.72 93.59 435.15
C 89.54 433.05 88.88 431.48 91.40 429.87
C 92.27 429.30 103.52 428.65 116.39 428.41
C 129.25 428.17 144.98 427.89 151.33 427.78
L 162.86 427.58
L 178.49 435.16
L 194.12 442.74
L 209.96 442.70
C 222.45 442.66 230.24 441.79 246.69 438.62
C 263.79 435.31 310.46 428.75 331.86 426.64
L 336.72 426.16
L 336.03 431.29
C 335.63 434.11 334.94 443.19 334.47 451.47
L 333.61 466.51
L 274.64 465.74
C 242.22 465.32 210.43 465.47 204.00 466.08
C 195.35 466.89 187.47 468.82 173.64 473.51
C 143.19 483.85 105.68 488.60 87.29 484.43"/>
<path fill="#ae3c2a" stroke="none" d="
M 386.63 451.89
C 386.16 444.08 385.44 434.41 385.02 430.42
L 384.25 423.16
L 392.59 423.16
C 403.34 423.16 494.78 430.29 507.57 432.14
C 521.72 434.17 535.37 433.25 539.80 429.95
C 548.62 423.39 549.15 419.91 556.01 324.63
C 557.73 300.67 559.50 278.78 559.93 276.00
C 564.05 249.79 584.13 239.58 601.27 254.99
C 604.08 257.52 607.43 261.97 608.72 264.87
C 611.48 271.07 613.47 289.26 613.53 308.84
C 613.55 316.48 614.14 329.28 614.81 337.26
C 615.48 345.25 616.88 364.86 617.93 380.84
C 618.97 396.82 620.50 417.45 621.31 426.67
C 623.56 452.05 620.69 460.65 608.62 464.67
C 605.55 465.70 573.46 466.11 495.89 466.11
L 387.46 466.11
L 386.63 451.89"/>
</g>
</svg>
