<?xml version="1.0" encoding="UTF-8" standalone="no"?>
<!DOCTYPE svg PUBLIC "-//W3C//DTD SVG 1.1//EN"
"http://www.w3.org/Graphics/SVG/1.1/DTD/svg11.dtd">
<svg width="634px" height="600px"
xmlns="http://www.w3.org/2000/svg" version="1.1">
<g transform="translate(0000, 0000) scale(1.0000, 1.0000)">
<path fill="#000000" stroke="none" d="
M 308.73 593.86
C 289.90 574.15 261.06 498.76 261.06 469.23
C 261.06 442.15 274.83 403.88 293.30 379.66
L 301.14 369.38
L 300.71 341.54
C 300.46 326.22 299.82 313.25 299.28 312.71
C 298.74 312.15 289.76 313.32 279.36 315.29
C 268.94 317.27 253.19 320.25 244.34 321.92
C 191.49 331.93 149.96 327.82 128.14 310.42
C 125.37 308.22 117.44 299.15 110.51 290.27
C 96.60 272.48 88.27 264.13 81.66 261.38
C 78.12 259.89 75.37 259.82 66.72 260.99
C 53.64 262.74 32.46 261.78 23.60 259.00
C 12.91 255.66 4.96 249.58 2.04 242.51
C -0.37 236.65 -0.39 236.15 1.72 229.46
C 4.59 220.38 11.03 214.59 26.39 207.31
C 32.91 204.23 38.86 201.71 39.62 201.71
C 43.58 201.71 41.96 198.10 34.76 190.83
C 28.69 184.72 26.89 182.06 27.21 179.73
C 27.51 177.69 28.63 176.52 30.56 176.25
C 32.74 175.94 36.63 178.75 45.99 187.48
C 61.27 201.66 63.21 202.10 70.37 192.85
C 86.95 171.42 88.89 169.44 93.08 169.85
C 99.88 170.51 99.11 174.75 90.38 184.73
C 86.24 189.48 81.87 194.89 80.70 196.77
L 78.55 200.18
L 91.94 206.67
C 107.84 214.37 111.99 218.22 125.53 237.88
C 131.06 245.90 138.79 255.87 142.70 260.03
C 159.77 278.18 175.15 278.29 222.98 260.58
C 247.39 251.55 267.33 246.19 284.16 244.18
C 290.86 243.37 296.46 242.57 296.62 242.42
C 296.78 242.25 294.62 189.52 291.82 125.23
C 289.00 60.95 287.04 7.03 287.42 5.41
C 287.82 3.80 289.61 1.93 291.40 1.23
C 293.20 0.55 305.34 0.00 318.38 0.00
C 340.37 0.00 342.26 0.18 344.65 2.57
C 346.06 3.98 347.22 6.15 347.21 7.39
C 347.21 8.62 344.89 62.53 342.08 127.19
C 339.26 191.86 336.95 245.41 336.95 246.21
C 336.93 247.00 339.62 248.34 342.91 249.16
C 355.39 252.31 374.59 258.90 403.81 270.10
C 443.70 285.38 461.06 291.01 480.04 294.77
C 503.47 299.43 513.93 299.82 550.95 297.42
C 591.86 294.76 623.69 295.18 629.82 298.47
C 636.83 302.22 635.04 306.55 624.25 311.97
C 617.54 315.34 603.39 318.10 580.63 320.47
C 539.81 324.73 519.69 324.44 453.32 318.59
C 437.76 317.23 408.54 314.93 388.37 313.49
C 368.21 312.04 347.90 310.51 343.25 310.09
L 334.76 309.30
L 333.92 318.14
C 333.47 323.00 333.09 336.57 333.09 348.27
L 333.08 369.55
L 340.80 379.75
C 359.22 404.03 372.94 442.25 372.94 469.23
C 372.94 491.32 354.72 546.06 336.87 577.59
C 330.45 588.94 320.64 600.00 317.00 600.00
C 315.68 600.00 311.96 597.24 308.73 593.86
M 331.66 570.45
C 342.95 548.54 359.09 504.71 363.27 484.60
C 365.74 472.74 365.74 465.49 363.26 452.42
C 358.20 425.79 345.72 398.51 330.63 381.10
C 325.73 375.43 325.71 375.34 324.93 361.46
C 324.51 353.81 324.57 339.01 325.08 328.59
L 326.00 309.64
L 317.37 309.64
L 308.74 309.64
L 309.01 341.67
C 309.28 373.25 309.25 373.73 306.36 377.32
C 286.98 401.36 276.07 424.38 270.74 452.42
C 267.31 470.56 268.58 481.41 277.29 508.14
C 288.10 541.34 302.20 573.28 311.56 585.78
L 316.78 592.74
L 321.08 587.70
C 323.43 584.93 328.20 577.17 331.66 570.45
M 216.06 319.31
C 224.90 318.27 245.43 314.84 261.70 311.69
C 304.68 303.38 309.89 302.79 333.51 303.57
C 354.71 304.28 426.99 309.46 462.96 312.85
C 516.79 317.94 550.08 317.92 589.63 312.80
C 606.65 310.59 613.48 309.04 619.08 306.15
C 621.96 304.66 622.40 303.98 621.01 303.10
C 618.14 301.30 581.71 301.75 550.33 303.98
C 494.12 308.00 474.43 304.56 406.38 278.81
C 311.24 242.83 297.32 241.89 227.10 266.83
C 194.34 278.45 184.99 280.54 168.57 279.85
C 157.93 279.42 155.31 278.84 149.38 275.60
C 140.64 270.82 132.60 262.00 119.41 242.71
C 113.63 234.26 106.64 225.29 103.86 222.78
C 101.08 220.28 93.22 215.60 86.38 212.38
C 75.69 207.34 72.49 206.43 63.66 205.90
C 55.36 205.41 51.75 205.84 45.01 208.10
C 16.32 217.70 1.89 231.51 10.04 241.55
C 12.31 244.36 12.49 244.37 16.59 242.25
C 18.90 241.05 21.62 240.39 22.62 240.77
C 25.54 241.89 24.70 245.16 21.00 247.10
L 17.58 248.90
L 25.18 251.81
C 34.95 255.53 48.24 256.43 64.84 254.47
C 87.04 251.83 92.40 254.83 113.67 281.81
C 133.24 306.62 137.99 310.42 156.26 315.94
C 174.18 321.35 190.73 322.29 216.06 319.31
M 329.18 241.86
C 329.15 239.92 331.29 187.34 333.90 125.02
C 337.81 31.95 338.36 11.36 337.00 9.71
C 334.54 6.76 299.46 6.76 297.00 9.71
C 295.64 11.36 296.22 32.38 300.20 126.95
C 302.87 190.33 305.22 242.35 305.41 242.57
C 305.85 243.03 320.83 245.01 325.68 245.23
C 328.73 245.37 329.22 244.91 329.18 241.86"/>
<path fill="#000000" stroke="none" d="
M 182.61 305.78
C 181.20 304.37 180.04 301.77 180.04 300.00
C 180.04 298.23 181.20 295.63 182.61 294.22
C 184.03 292.81 186.62 291.65 188.40 291.65
C 190.17 291.65 192.77 292.81 194.19 294.22
C 195.60 295.63 196.76 298.23 196.76 300.00
C 196.76 301.77 195.60 304.37 194.19 305.78
C 192.77 307.19 190.17 308.35 188.40 308.35
C 186.62 308.35 184.03 307.19 182.61 305.78
M 192.10 301.63
C 193.17 299.92 193.00 298.92 191.37 297.28
C 187.51 293.43 181.78 298.46 185.25 302.65
C 187.24 305.05 190.23 304.61 192.10 301.63"/>
<path fill="#000000" stroke="none" d="
M 146.60 301.93
C 145.19 300.51 144.03 297.92 144.03 296.15
C 144.03 294.37 145.19 291.78 146.60 290.36
C 148.02 288.95 150.62 287.79 152.39 287.79
C 154.17 287.79 156.76 288.95 158.18 290.36
C 159.59 291.78 160.75 294.37 160.75 296.15
C 160.75 297.92 159.59 300.51 158.18 301.93
C 156.76 303.34 154.17 304.50 152.39 304.50
C 150.62 304.50 148.02 303.34 146.60 301.93
M 156.10 297.78
C 157.16 296.07 157.00 295.07 155.36 293.42
C 151.50 289.58 145.77 294.60 149.24 298.79
C 151.23 301.19 154.22 300.76 156.10 297.78"/>
<path fill="#000000" stroke="none" d="
M 405.09 299.36
C 400.00 294.27 403.70 285.22 410.88 285.22
C 415.01 285.22 419.24 289.45 419.24 293.58
C 419.24 297.70 415.01 301.93 410.88 301.93
C 409.10 301.93 406.51 300.77 405.09 299.36
M 414.58 295.21
C 415.65 293.50 415.48 292.50 413.85 290.85
C 409.99 287.01 404.26 292.03 407.73 296.22
C 409.72 298.63 412.70 298.19 414.58 295.21"/>
<path fill="#000000" stroke="none" d="
M 217.33 296.79
C 215.92 295.37 214.76 292.78 214.76 291.01
C 214.76 289.23 215.92 286.64 217.33 285.22
C 218.75 283.81 221.35 282.66 223.12 282.66
C 224.90 282.66 227.49 283.81 228.91 285.22
C 230.32 286.64 231.48 289.23 231.48 291.01
C 231.48 292.78 230.32 295.37 228.91 296.79
C 227.49 298.20 224.90 299.36 223.12 299.36
C 221.35 299.36 218.75 298.20 217.33 296.79
M 226.83 292.64
C 227.89 290.93 227.73 289.93 226.09 288.28
C 222.23 284.44 216.50 289.46 219.97 293.65
C 221.96 296.06 224.95 295.62 226.83 292.64"/>
<path fill="#000000" stroke="none" d="
M 370.37 291.65
C 365.28 286.56 368.98 277.52 376.16 277.52
C 380.28 277.52 384.52 281.74 384.52 285.87
C 384.52 289.99 380.28 294.22 376.16 294.22
C 374.38 294.22 371.78 293.06 370.37 291.65
M 379.86 287.50
C 380.93 285.79 380.76 284.79 379.13 283.14
C 375.27 279.30 369.53 284.33 373.01 288.51
C 375.00 290.92 377.98 290.48 379.86 287.50"/>
<path fill="#000000" stroke="none" d="
M 254.63 285.22
C 253.21 283.81 252.06 281.22 252.06 279.44
C 252.06 277.67 253.21 275.07 254.63 273.66
C 256.04 272.25 258.64 271.09 260.42 271.09
C 262.19 271.09 264.79 272.25 266.20 273.66
C 267.62 275.07 268.77 277.67 268.77 279.44
C 268.77 281.22 267.62 283.81 266.20 285.22
C 264.79 286.64 262.19 287.79 260.42 287.79
C 258.64 287.79 256.04 286.64 254.63 285.22
M 264.12 281.07
C 265.19 279.37 265.02 278.36 263.39 276.72
C 259.53 272.88 253.79 277.90 257.27 282.09
C 259.26 284.49 262.24 284.06 264.12 281.07"/>
<path fill="#000000" stroke="none" d="
M 330.50 283.94
C 325.41 278.85 329.11 269.81 336.29 269.81
C 340.42 269.81 344.65 274.03 344.65 278.16
C 344.65 282.28 340.42 286.51 336.29 286.51
C 334.52 286.51 331.92 285.35 330.50 283.94
M 339.99 279.79
C 341.06 278.08 340.89 277.08 339.26 275.43
C 335.40 271.59 329.67 276.62 333.14 280.81
C 335.13 283.21 338.12 282.77 339.99 279.79"/>
<path fill="#000000" stroke="none" d="
M 294.49 280.09
C 293.08 278.67 291.92 276.08 291.92 274.30
C 291.92 272.53 293.08 269.94 294.49 268.52
C 295.91 267.11 298.51 265.95 300.28 265.95
C 302.06 265.95 304.65 267.11 306.07 268.52
C 307.48 269.94 308.64 272.53 308.64 274.30
C 308.64 276.08 307.48 278.67 306.07 280.09
C 304.65 281.50 302.06 282.66 300.28 282.66
C 298.51 282.66 295.91 281.50 294.49 280.09
M 303.99 275.94
C 305.05 274.23 304.89 273.22 303.25 271.58
C 299.39 267.74 293.66 272.76 297.13 276.95
C 299.12 279.35 302.11 278.92 303.99 275.94"/>
<path fill="#000000" stroke="none" d="
M 117.03 278.80
C 115.61 277.39 114.45 274.79 114.45 273.02
C 114.45 271.25 115.61 268.65 117.03 267.24
C 118.44 265.82 121.04 264.67 122.81 264.67
C 124.59 264.67 127.19 265.82 128.60 267.24
C 130.02 268.65 131.17 271.25 131.17 273.02
C 131.17 274.79 130.02 277.39 128.60 278.80
C 127.19 280.21 124.59 281.37 122.81 281.37
C 121.04 281.37 118.44 280.21 117.03 278.80
M 126.52 274.65
C 127.58 272.94 127.42 271.94 125.78 270.30
C 121.93 266.45 116.19 271.48 119.66 275.67
C 121.66 278.07 124.64 277.63 126.52 274.65"/>
<path fill="#000000" stroke="none" d="
M 97.74 254.39
C 96.32 252.98 95.16 250.38 95.16 248.61
C 95.16 246.84 96.32 244.24 97.74 242.83
C 99.15 241.41 101.75 240.26 103.52 240.26
C 105.30 240.26 107.90 241.41 109.31 242.83
C 110.72 244.24 111.88 246.84 111.88 248.61
C 111.88 250.38 110.72 252.98 109.31 254.39
C 107.90 255.80 105.30 256.96 103.52 256.96
C 101.75 256.96 99.15 255.80 97.74 254.39
M 107.23 250.24
C 108.29 248.53 108.13 247.53 106.49 245.88
C 102.64 242.04 96.90 247.07 100.37 251.25
C 102.37 253.66 105.35 253.22 107.23 250.24"/>
<path fill="#000000" stroke="none" d="
M 34.01 233.25
C 27.08 226.32 31.98 214.56 41.80 214.56
C 48.07 214.56 52.73 219.21 52.73 225.48
C 52.73 231.75 48.07 236.40 41.80 236.40
C 38.61 236.40 36.20 235.43 34.01 233.25
M 46.85 230.53
C 50.44 226.93 48.17 218.42 43.63 218.42
C 41.81 218.42 42.21 220.48 44.37 222.27
C 45.43 223.14 46.30 224.60 46.30 225.48
C 46.30 226.37 45.43 227.82 44.37 228.69
C 43.30 229.57 42.44 230.80 42.44 231.42
C 42.44 233.19 44.62 232.74 46.85 230.53"/>
<path fill="#c57a36" stroke="none" d="
M 311.56 585.78
C 302.20 573.28 288.10 541.34 277.29 508.14
C 268.58 481.41 267.31 470.56 270.74 452.42
C 276.07 424.38 286.98 401.36 306.36 377.32
C 309.25 373.73 309.28 373.25 309.01 341.67
L 308.74 309.64
L 317.37 309.64
L 326.00 309.64
L 325.08 328.59
C 324.57 339.01 324.51 353.81 324.93 361.46
C 325.71 375.34 325.73 375.43 330.63 381.10
C 345.72 398.51 358.20 425.79 363.26 452.42
C 365.74 465.49 365.74 472.74 363.27 484.60
C 357.06 514.51 332.68 574.07 321.08 587.70
L 316.78 592.74
L 311.56 585.78"/>
<path fill="#c57a36" stroke="none" d="
M 313.95 244.01
C 309.45 243.43 305.61 242.78 305.41 242.57
C 305.22 242.35 302.87 190.21 300.19 126.71
C 295.45 14.12 295.38 11.18 297.72 9.47
C 301.43 6.76 334.72 6.98 337.00 9.71
C 338.36 11.36 337.81 31.95 333.90 125.02
C 331.29 187.34 329.15 239.92 329.18 241.86
C 329.22 245.85 328.72 245.92 313.95 244.01"/>
<path fill="#ffa829" stroke="none" d="
M 172.97 319.77
C 163.58 318.42 149.02 314.12 142.39 310.74
C 134.75 306.85 128.28 300.33 113.67 281.81
C 92.40 254.83 87.04 251.83 64.84 254.47
C 48.24 256.43 34.95 255.53 25.18 251.81
L 17.58 248.90
L 21.00 247.10
C 24.70 245.16 25.54 241.89 22.62 240.77
C 21.62 240.39 18.90 241.05 16.59 242.25
C 12.49 244.37 12.31 244.36 10.04 241.55
C 3.27 233.20 12.80 221.18 32.83 212.80
C 55.62 203.27 66.72 203.18 86.38 212.40
C 93.22 215.61 101.08 220.28 103.86 222.78
C 106.64 225.29 113.63 234.26 119.41 242.71
C 132.60 262.00 140.64 270.82 149.38 275.60
C 155.31 278.84 157.93 279.42 168.57 279.85
C 184.99 280.54 194.34 278.45 227.10 266.83
C 297.32 241.89 311.24 242.83 406.38 278.81
C 474.43 304.56 494.12 308.00 550.33 303.98
C 581.71 301.75 618.14 301.30 621.01 303.10
C 622.40 303.98 621.96 304.66 619.08 306.15
C 613.48 309.04 606.65 310.59 589.63 312.80
C 550.08 317.92 516.79 317.94 462.96 312.85
C 426.99 309.46 354.71 304.28 333.51 303.57
C 309.89 302.79 304.68 303.38 261.70 311.69
C 215.86 320.57 192.94 322.65 172.97 319.77
M 194.19 305.78
C 195.60 304.37 196.76 301.77 196.76 300.00
C 196.76 298.23 195.60 295.63 194.19 294.22
C 192.77 292.81 190.17 291.65 188.40 291.65
C 186.62 291.65 184.03 292.81 182.61 294.22
C 181.20 295.63 180.04 298.23 180.04 300.00
C 180.04 301.77 181.20 304.37 182.61 305.78
C 184.03 307.19 186.62 308.35 188.40 308.35
C 190.17 308.35 192.77 307.19 194.19 305.78
M 158.18 301.93
C 159.59 300.51 160.75 297.92 160.75 296.15
C 160.75 294.37 159.59 291.78 158.18 290.36
C 156.76 288.95 154.17 287.79 152.39 287.79
C 150.62 287.79 148.02 288.95 146.60 290.36
C 145.19 291.78 144.03 294.37 144.03 296.15
C 144.03 297.92 145.19 300.51 146.60 301.93
C 148.02 303.34 150.62 304.50 152.39 304.50
C 154.17 304.50 156.76 303.34 158.18 301.93
M 416.67 299.36
C 421.76 294.27 418.05 285.22 410.88 285.22
C 406.75 285.22 402.52 289.45 402.52 293.58
C 402.52 297.70 406.75 301.93 410.88 301.93
C 412.65 301.93 415.25 300.77 416.67 299.36
M 228.91 296.79
C 230.32 295.37 231.48 292.78 231.48 291.01
C 231.48 289.23 230.32 286.64 228.91 285.22
C 227.49 283.81 224.90 282.66 223.12 282.66
C 221.35 282.66 218.75 283.81 217.33 285.22
C 215.92 286.64 214.76 289.23 214.76 291.01
C 214.76 292.78 215.92 295.37 217.33 296.79
C 218.75 298.20 221.35 299.36 223.12 299.36
C 224.90 299.36 227.49 298.20 228.91 296.79
M 381.94 291.65
C 387.04 286.56 383.33 277.52 376.16 277.52
C 372.03 277.52 367.80 281.74 367.80 285.87
C 367.80 289.99 372.03 294.22 376.16 294.22
C 377.93 294.22 380.53 293.06 381.94 291.65
M 266.20 285.22
C 267.62 283.81 268.77 281.22 268.77 279.44
C 268.77 277.67 267.62 275.07 266.20 273.66
C 264.79 272.25 262.19 271.09 260.42 271.09
C 258.64 271.09 256.04 272.25 254.63 273.66
C 253.21 275.07 252.06 277.67 252.06 279.44
C 252.06 281.22 253.21 283.81 254.63 285.22
C 256.04 286.64 258.64 287.79 260.42 287.79
C 262.19 287.79 264.79 286.64 266.20 285.22
M 342.08 283.94
C 347.17 278.85 343.47 269.81 336.29 269.81
C 332.16 269.81 327.93 274.03 327.93 278.16
C 327.93 282.28 332.16 286.51 336.29 286.51
C 338.06 286.51 340.66 285.35 342.08 283.94
M 306.07 280.09
C 307.48 278.67 308.64 276.08 308.64 274.30
C 308.64 272.53 307.48 269.94 306.07 268.52
C 304.65 267.11 302.06 265.95 300.28 265.95
C 298.51 265.95 295.91 267.11 294.49 268.52
C 293.08 269.94 291.92 272.53 291.92 274.30
C 291.92 276.08 293.08 278.67 294.49 280.09
C 295.91 281.50 298.51 282.66 300.28 282.66
C 302.06 282.66 304.65 281.50 306.07 280.09
M 128.60 278.80
C 130.02 277.39 131.17 274.79 131.17 273.02
C 131.17 271.25 130.02 268.65 128.60 267.24
C 127.19 265.82 124.59 264.67 122.81 264.67
C 121.04 264.67 118.44 265.82 117.03 267.24
C 115.61 268.65 114.45 271.25 114.45 273.02
C 114.45 274.79 115.61 277.39 117.03 278.80
C 118.44 280.21 121.04 281.37 122.81 281.37
C 124.59 281.37 127.19 280.21 128.60 278.80
M 109.31 254.39
C 110.72 252.98 111.88 250.38 111.88 248.61
C 111.88 246.84 110.72 244.24 109.31 242.83
C 107.90 241.41 105.30 240.26 103.52 240.26
C 101.75 240.26 99.15 241.41 97.74 242.83
C 96.32 244.24 95.16 246.84 95.16 248.61
C 95.16 250.38 96.32 252.98 97.74 254.39
C 99.15 255.80 101.75 256.96 103.52 256.96
C 105.30 256.96 107.90 255.80 109.31 254.39
M 49.58 233.25
C 56.51 226.32 51.61 214.56 41.80 214.56
C 35.52 214.56 30.86 219.21 30.86 225.48
C 30.86 231.75 35.52 236.40 41.80 236.40
C 44.98 236.40 47.39 235.43 49.58 233.25"/>
<path fill="#eb2e00" stroke="none" d="
M 42.44 231.42
C 42.44 230.80 43.30 229.57 44.37 228.69
C 46.82 226.65 46.81 224.96 44.28 222.18
C 41.68 219.31 44.07 217.67 46.84 220.42
C 49.43 223.03 49.45 227.94 46.85 230.53
C 44.62 232.74 42.44 233.19 42.44 231.42"/>
<path fill="#c55436" stroke="none" d="
M 185.25 302.65
C 181.78 298.46 187.51 293.43 191.37 297.28
C 193.00 298.92 193.17 299.92 192.10 301.63
C 190.23 304.61 187.24 305.05 185.25 302.65"/>
<path fill="#c55436" stroke="none" d="
M 149.24 298.79
C 145.77 294.60 151.50 289.58 155.36 293.42
C 157.00 295.07 157.16 296.07 156.10 297.78
C 154.22 300.76 151.23 301.19 149.24 298.79"/>
<path fill="#c55436" stroke="none" d="
M 407.73 296.22
C 404.26 292.03 409.99 287.01 413.85 290.85
C 415.48 292.50 415.65 293.50 414.58 295.21
C 412.70 298.19 409.72 298.63 407.73 296.22"/>
<path fill="#c55436" stroke="none" d="
M 219.97 293.65
C 216.50 289.46 222.23 284.44 226.09 288.28
C 227.73 289.93 227.89 290.93 226.83 292.64
C 224.95 295.62 221.96 296.06 219.97 293.65"/>
<path fill="#c55436" stroke="none" d="
M 373.01 288.51
C 369.53 284.33 375.27 279.30 379.13 283.14
C 380.76 284.79 380.93 285.79 379.86 287.50
C 377.98 290.48 375.00 290.92 373.01 288.51"/>
<path fill="#c55436" stroke="none" d="
M 257.27 282.09
C 253.79 277.90 259.53 272.88 263.39 276.72
C 265.02 278.36 265.19 279.37 264.12 281.07
C 262.24 284.06 259.26 284.49 257.27 282.09"/>
<path fill="#c55436" stroke="none" d="
M 333.14 280.81
C 329.67 276.62 335.40 271.59 339.26 275.43
C 340.89 277.08 341.06 278.08 339.99 279.79
C 338.12 282.77 335.13 283.21 333.14 280.81"/>
<path fill="#c55436" stroke="none" d="
M 297.13 276.95
C 293.66 272.76 299.39 267.74 303.25 271.58
C 304.89 273.22 305.05 274.23 303.99 275.94
C 302.11 278.92 299.12 279.35 297.13 276.95"/>
<path fill="#c55436" stroke="none" d="
M 119.66 275.67
C 116.19 271.48 121.93 266.45 125.78 270.30
C 127.42 271.94 127.58 272.94 126.52 274.65
C 124.64 277.63 121.66 278.07 119.66 275.67"/>
<path fill="#c55436" stroke="none" d="
M 100.60 251.60
C 98.26 249.26 98.68 246.95 101.75 245.32
C 105.47 243.33 109.36 246.84 107.23 250.24
C 105.44 253.05 102.64 253.63 100.60 251.60"/>
</g>
</svg>
