<?xml version="1.0" encoding="UTF-8" standalone="no"?>
<!DOCTYPE svg PUBLIC "-//W3C//DTD SVG 1.1//EN"
"http://www.w3.org/Graphics/SVG/1.1/DTD/svg11.dtd">
<svg width="600px" height="382px"
xmlns="http://www.w3.org/2000/svg" version="1.1">
<g transform="translate(0000, 0000) scale(1.0000, 1.0000)">
<path fill="#000000" stroke="none" d="
M 427.41 379.68
C 425.24 377.49 425.10 375.81 425.10 351.23
L 425.10 325.11
L 275.10 325.11
L 125.10 325.11
L 125.10 350.65
C 125.10 382.35 125.91 380.84 108.88 380.84
C 91.85 380.84 92.66 382.35 92.66 350.65
L 92.66 325.11
L 48.65 325.11
C -4.69 325.11 0.00 326.85 0.00 307.11
C 0.00 287.37 -4.69 289.11 48.65 289.11
L 92.66 289.11
L 92.68 281.28
C 92.73 233.59 110.53 201.98 147.98 183.00
C 163.93 174.93 183.98 170.18 236.87 161.98
C 299.36 152.30 320.95 147.19 337.96 138.10
C 356.02 128.44 361.67 121.22 382.59 81.13
C 391.09 64.82 400.88 47.36 404.33 42.33
C 418.11 22.28 433.54 9.25 449.91 3.85
C 458.11 1.15 461.21 0.77 474.90 0.71
C 487.83 0.65 492.15 1.09 499.81 3.29
C 512.27 6.84 527.25 14.22 530.95 18.64
L 533.98 22.23
L 533.98 91.82
C 533.98 159.85 533.93 161.44 531.66 163.71
C 529.47 165.91 527.78 166.04 501.83 166.06
C 475.51 166.07 474.13 166.19 469.69 168.68
C 466.81 170.30 464.19 173.03 462.74 175.92
C 460.54 180.32 460.40 183.26 460.08 234.83
L 459.72 289.11
L 527.55 289.11
C 593.83 289.11 595.42 289.17 597.68 291.43
C 599.73 293.49 600.00 295.30 600.00 307.11
C 600.00 318.92 599.73 320.73 597.68 322.78
C 595.42 325.05 593.83 325.11 527.03 325.11
L 458.69 325.11
L 458.69 351.23
C 458.69 383.72 459.63 382.00 441.89 382.00
C 431.27 382.00 429.44 381.71 427.41 379.68
M 450.35 373.64
C 451.33 372.65 451.74 365.47 451.74 348.68
L 451.74 325.11
L 441.89 325.11
L 432.05 325.11
L 432.05 348.68
C 432.05 365.47 432.45 372.65 433.44 373.64
C 435.25 375.46 448.53 375.46 450.35 373.64
M 116.76 372.48
C 117.74 371.49 118.15 364.43 118.15 348.10
L 118.15 325.11
L 108.88 325.11
L 99.61 325.11
L 99.61 348.10
C 99.61 364.43 100.02 371.49 101.00 372.48
C 102.81 374.29 114.95 374.29 116.76 372.48
M 591.66 316.75
C 593.50 314.90 593.50 299.32 591.66 297.47
C 589.63 295.44 10.37 295.44 8.34 297.47
C 6.50 299.32 6.50 314.90 8.34 316.75
C 10.37 318.78 589.63 318.78 591.66 316.75
M 453.14 231.27
L 453.47 173.41
L 456.74 168.47
C 462.46 159.80 465.37 159.13 496.97 159.09
C 516.61 159.08 524.64 158.68 525.64 157.68
C 526.68 156.63 527.03 140.39 527.03 91.73
L 527.03 27.16
L 523.26 23.51
C 519.02 19.39 508.34 14.24 496.48 10.58
C 463.09 0.27 433.59 13.82 409.48 50.51
C 404.87 57.53 395.49 74.25 388.63 87.66
C 381.78 101.07 373.81 115.60 370.91 119.93
C 354.07 145.17 331.71 154.55 262.36 165.46
C 178.00 178.72 165.30 181.91 143.65 195.26
C 115.75 212.47 102.41 237.21 100.05 276.13
L 99.27 289.11
L 276.03 289.11
L 452.81 289.11
L 453.14 231.27"/>
<path fill="#e16b4c" stroke="none" d="
M 100.05 276.13
C 102.41 237.21 115.75 212.47 143.65 195.26
C 165.30 181.91 178.00 178.72 262.36 165.46
C 331.71 154.55 354.07 145.17 370.91 119.93
C 373.81 115.60 381.78 101.07 388.63 87.66
C 395.49 74.25 404.87 57.53 409.48 50.51
C 433.58 13.82 463.14 0.28 496.60 10.61
C 508.34 14.24 519.03 19.40 523.26 23.51
L 527.03 27.16
L 527.03 91.73
C 527.03 140.39 526.68 156.63 525.64 157.68
C 524.64 158.68 516.61 159.08 496.97 159.09
C 465.37 159.13 462.46 159.80 456.74 168.47
L 453.47 173.41
L 453.14 231.27
L 452.81 289.11
L 276.03 289.11
L 99.27 289.11
L 100.05 276.13"/>
<path fill="#c57a36" stroke="none" d="
M 433.44 373.64
C 432.45 372.65 432.05 365.47 432.05 348.68
L 432.05 325.11
L 441.89 325.11
L 451.74 325.11
L 451.74 348.68
C 451.74 365.47 451.33 372.65 450.35 373.64
C 448.53 375.46 435.25 375.46 433.44 373.64"/>
<path fill="#c57a36" stroke="none" d="
M 101.00 372.48
C 100.02 371.49 99.61 364.43 99.61 348.10
L 99.61 325.11
L 108.88 325.11
L 118.15 325.11
L 118.15 348.10
C 118.15 364.43 117.74 371.49 116.76 372.48
C 114.95 374.29 102.81 374.29 101.00 372.48"/>
<path fill="#c57a36" stroke="none" d="
M 8.34 316.75
C 7.52 315.92 6.95 311.93 6.95 306.92
C 6.95 299.77 7.29 298.30 9.19 297.29
C 12.65 295.43 589.81 295.61 591.66 297.47
C 593.50 299.32 593.50 314.90 591.66 316.75
C 589.63 318.78 10.37 318.78 8.34 316.75"/>
</g>
</svg>
