<?xml version="1.0" encoding="UTF-8" standalone="no"?>
<!DOCTYPE svg PUBLIC "-//W3C//DTD SVG 1.1//EN"
"http://www.w3.org/Graphics/SVG/1.1/DTD/svg11.dtd">
<svg width="440px" height="600px"
xmlns="http://www.w3.org/2000/svg" version="1.1">
<g transform="translate(0000, 0000) scale(1.0000, 1.0000)">
<path fill="#000000" stroke="none" d="
M 6.67 593.33
C 0.10 586.77 0.00 582.23 0.00 300.63
C 0.00 58.90 0.73 13.60 4.73 8.13
C 9.30 1.87 15.97 1.63 218.00 0.77
C 423.43 -0.13 426.63 -0.03 433.27 6.60
C 439.93 13.27 440.00 16.73 440.00 300.00
C 440.00 582.23 439.90 586.77 433.33 593.33
C 426.80 599.87 422.23 600.00 220.00 600.00
C 17.77 600.00 13.20 599.87 6.67 593.33
M 100.00 561.67
L 100.00 543.33
L 60.00 543.33
L 20.00 543.33
L 20.00 557.67
C 20.00 565.53 21.80 573.80 24.00 576.00
C 26.63 578.63 40.43 580.00 64.00 580.00
L 100.00 580.00
L 100.00 561.67
M 140.00 541.67
L 140.00 503.33
L 121.67 503.33
L 103.33 503.33
L 103.33 541.67
L 103.33 580.00
L 121.67 580.00
L 140.00 580.00
L 140.00 541.67
M 180.00 541.67
L 180.00 503.33
L 161.67 503.33
L 143.33 503.33
L 143.33 541.67
L 143.33 580.00
L 161.67 580.00
L 180.00 580.00
L 180.00 541.67
M 260.00 561.67
L 260.00 543.33
L 221.67 543.33
L 183.33 543.33
L 183.33 561.67
L 183.33 580.00
L 221.67 580.00
L 260.00 580.00
L 260.00 561.67
M 300.00 541.67
L 300.00 503.33
L 281.67 503.33
L 263.33 503.33
L 263.33 541.67
L 263.33 580.00
L 281.67 580.00
L 300.00 580.00
L 300.00 541.67
M 340.00 541.67
L 340.00 503.33
L 321.67 503.33
L 303.33 503.33
L 303.33 541.67
L 303.33 580.00
L 321.67 580.00
L 340.00 580.00
L 340.00 541.67
M 416.00 576.00
C 418.20 573.80 420.00 565.57 420.00 557.67
L 420.00 543.33
L 381.67 543.33
L 343.33 543.33
L 343.33 561.67
L 343.33 580.00
L 377.67 580.00
C 399.93 580.00 413.40 578.60 416.00 576.00
M 100.00 521.67
L 100.00 503.33
L 60.00 503.33
L 20.00 503.33
L 20.00 521.67
L 20.00 540.00
L 60.00 540.00
L 100.00 540.00
L 100.00 521.67
M 260.00 521.67
L 260.00 503.33
L 221.67 503.33
L 183.33 503.33
L 183.33 521.67
L 183.33 540.00
L 221.67 540.00
L 260.00 540.00
L 260.00 521.67
M 420.00 521.67
L 420.00 503.33
L 381.67 503.33
L 343.33 503.33
L 343.33 521.67
L 343.33 540.00
L 381.67 540.00
L 420.00 540.00
L 420.00 521.67
M 60.00 461.67
L 60.00 423.33
L 40.00 423.33
L 20.00 423.33
L 20.00 461.67
L 20.00 500.00
L 40.00 500.00
L 60.00 500.00
L 60.00 461.67
M 100.00 461.67
L 100.00 423.33
L 81.67 423.33
L 63.33 423.33
L 63.33 461.67
L 63.33 500.00
L 81.67 500.00
L 100.00 500.00
L 100.00 461.67
M 180.00 481.67
L 180.00 463.33
L 141.67 463.33
L 103.33 463.33
L 103.33 481.67
L 103.33 500.00
L 141.67 500.00
L 180.00 500.00
L 180.00 481.67
M 220.00 461.67
L 220.00 423.33
L 201.67 423.33
L 183.33 423.33
L 183.33 461.67
L 183.33 500.00
L 201.67 500.00
L 220.00 500.00
L 220.00 461.67
M 260.00 461.67
L 260.00 423.33
L 241.67 423.33
L 223.33 423.33
L 223.33 461.67
L 223.33 500.00
L 241.67 500.00
L 260.00 500.00
L 260.00 461.67
M 340.00 481.67
L 340.00 463.33
L 301.67 463.33
L 263.33 463.33
L 263.33 481.67
L 263.33 500.00
L 301.67 500.00
L 340.00 500.00
L 340.00 481.67
M 380.00 461.67
L 380.00 423.33
L 361.67 423.33
L 343.33 423.33
L 343.33 461.67
L 343.33 500.00
L 361.67 500.00
L 380.00 500.00
L 380.00 461.67
M 420.00 461.67
L 420.00 423.33
L 401.67 423.33
L 383.33 423.33
L 383.33 461.67
L 383.33 500.00
L 401.67 500.00
L 420.00 500.00
L 420.00 461.67
M 180.00 441.67
L 180.00 423.33
L 141.67 423.33
L 103.33 423.33
L 103.33 441.67
L 103.33 460.00
L 141.67 460.00
L 180.00 460.00
L 180.00 441.67
M 340.00 441.67
L 340.00 423.33
L 301.67 423.33
L 263.33 423.33
L 263.33 441.67
L 263.33 460.00
L 301.67 460.00
L 340.00 460.00
L 340.00 441.67
M 100.00 401.67
L 100.00 383.33
L 60.00 383.33
L 20.00 383.33
L 20.00 401.67
L 20.00 420.00
L 60.00 420.00
L 100.00 420.00
L 100.00 401.67
M 140.00 381.67
L 140.00 343.33
L 121.67 343.33
L 103.33 343.33
L 103.33 381.67
L 103.33 420.00
L 121.67 420.00
L 140.00 420.00
L 140.00 381.67
M 180.00 381.67
L 180.00 343.33
L 161.67 343.33
L 143.33 343.33
L 143.33 381.67
L 143.33 420.00
L 161.67 420.00
L 180.00 420.00
L 180.00 381.67
M 260.00 401.67
L 260.00 383.33
L 221.67 383.33
L 183.33 383.33
L 183.33 401.67
L 183.33 420.00
L 221.67 420.00
L 260.00 420.00
L 260.00 401.67
M 300.00 381.67
L 300.00 343.33
L 281.67 343.33
L 263.33 343.33
L 263.33 381.67
L 263.33 420.00
L 281.67 420.00
L 300.00 420.00
L 300.00 381.67
M 340.00 381.67
L 340.00 343.33
L 321.67 343.33
L 303.33 343.33
L 303.33 381.67
L 303.33 420.00
L 321.67 420.00
L 340.00 420.00
L 340.00 381.67
M 420.00 401.67
L 420.00 383.33
L 381.67 383.33
L 343.33 383.33
L 343.33 401.67
L 343.33 420.00
L 381.67 420.00
L 420.00 420.00
L 420.00 401.67
M 100.00 361.67
L 100.00 343.33
L 60.00 343.33
L 20.00 343.33
L 20.00 361.67
L 20.00 380.00
L 60.00 380.00
L 100.00 380.00
L 100.00 361.67
M 260.00 361.67
L 260.00 343.33
L 221.67 343.33
L 183.33 343.33
L 183.33 361.67
L 183.33 380.00
L 221.67 380.00
L 260.00 380.00
L 260.00 361.67
M 420.00 361.67
L 420.00 343.33
L 381.67 343.33
L 343.33 343.33
L 343.33 361.67
L 343.33 380.00
L 381.67 380.00
L 420.00 380.00
L 420.00 361.67
M 60.00 301.67
L 60.00 263.33
L 40.00 263.33
L 20.00 263.33
L 20.00 301.67
L 20.00 340.00
L 40.00 340.00
L 60.00 340.00
L 60.00 301.67
M 100.00 301.67
L 100.00 263.33
L 81.67 263.33
L 63.33 263.33
L 63.33 301.67
L 63.33 340.00
L 81.67 340.00
L 100.00 340.00
L 100.00 301.67
M 180.00 321.67
L 180.00 303.33
L 141.67 303.33
L 103.33 303.33
L 103.33 321.67
L 103.33 340.00
L 141.67 340.00
L 180.00 340.00
L 180.00 321.67
M 220.00 301.67
L 220.00 263.33
L 201.67 263.33
L 183.33 263.33
L 183.33 301.67
L 183.33 340.00
L 201.67 340.00
L 220.00 340.00
L 220.00 301.67
M 260.00 301.67
L 260.00 263.33
L 241.67 263.33
L 223.33 263.33
L 223.33 301.67
L 223.33 340.00
L 241.67 340.00
L 260.00 340.00
L 260.00 301.67
M 340.00 321.67
L 340.00 303.33
L 301.67 303.33
L 263.33 303.33
L 263.33 321.67
L 263.33 340.00
L 301.67 340.00
L 340.00 340.00
L 340.00 321.67
M 380.00 301.67
L 380.00 263.33
L 361.67 263.33
L 343.33 263.33
L 343.33 301.67
L 343.33 340.00
L 361.67 340.00
L 380.00 340.00
L 380.00 301.67
M 420.00 301.67
L 420.00 263.33
L 401.67 263.33
L 383.33 263.33
L 383.33 301.67
L 383.33 340.00
L 401.67 340.00
L 420.00 340.00
L 420.00 301.67
M 180.00 281.67
L 180.00 263.33
L 141.67 263.33
L 103.33 263.33
L 103.33 281.67
L 103.33 300.00
L 141.67 300.00
L 180.00 300.00
L 180.00 281.67
M 340.00 281.67
L 340.00 263.33
L 301.67 263.33
L 263.33 263.33
L 263.33 281.67
L 263.33 300.00
L 301.67 300.00
L 340.00 300.00
L 340.00 281.67
M 100.00 241.67
L 100.00 223.33
L 60.00 223.33
L 20.00 223.33
L 20.00 241.67
L 20.00 260.00
L 60.00 260.00
L 100.00 260.00
L 100.00 241.67
M 140.00 221.67
L 140.00 183.33
L 121.67 183.33
L 103.33 183.33
L 103.33 221.67
L 103.33 260.00
L 121.67 260.00
L 140.00 260.00
L 140.00 221.67
M 180.00 221.67
L 180.00 183.33
L 161.67 183.33
L 143.33 183.33
L 143.33 221.67
L 143.33 260.00
L 161.67 260.00
L 180.00 260.00
L 180.00 221.67
M 260.00 241.67
L 260.00 223.33
L 221.67 223.33
L 183.33 223.33
L 183.33 241.67
L 183.33 260.00
L 221.67 260.00
L 260.00 260.00
L 260.00 241.67
M 300.00 221.67
L 300.00 183.33
L 281.67 183.33
L 263.33 183.33
L 263.33 221.67
L 263.33 260.00
L 281.67 260.00
L 300.00 260.00
L 300.00 221.67
M 340.00 221.67
L 340.00 183.33
L 321.67 183.33
L 303.33 183.33
L 303.33 221.67
L 303.33 260.00
L 321.67 260.00
L 340.00 260.00
L 340.00 221.67
M 420.00 241.67
L 420.00 223.33
L 381.67 223.33
L 343.33 223.33
L 343.33 241.67
L 343.33 260.00
L 381.67 260.00
L 420.00 260.00
L 420.00 241.67
M 100.00 201.67
L 100.00 183.33
L 60.00 183.33
L 20.00 183.33
L 20.00 201.67
L 20.00 220.00
L 60.00 220.00
L 100.00 220.00
L 100.00 201.67
M 260.00 201.67
L 260.00 183.33
L 221.67 183.33
L 183.33 183.33
L 183.33 201.67
L 183.33 220.00
L 221.67 220.00
L 260.00 220.00
L 260.00 201.67
M 420.00 201.67
L 420.00 183.33
L 381.67 183.33
L 343.33 183.33
L 343.33 201.67
L 343.33 220.00
L 381.67 220.00
L 420.00 220.00
L 420.00 201.67
M 60.00 141.67
L 60.00 103.33
L 40.00 103.33
L 20.00 103.33
L 20.00 141.67
L 20.00 180.00
L 40.00 180.00
L 60.00 180.00
L 60.00 141.67
M 100.00 141.67
L 100.00 103.33
L 81.67 103.33
L 63.33 103.33
L 63.33 141.67
L 63.33 180.00
L 81.67 180.00
L 100.00 180.00
L 100.00 141.67
M 180.00 161.67
L 180.00 143.33
L 141.67 143.33
L 103.33 143.33
L 103.33 161.67
L 103.33 180.00
L 141.67 180.00
L 180.00 180.00
L 180.00 161.67
M 220.00 141.67
L 220.00 103.33
L 201.67 103.33
L 183.33 103.33
L 183.33 141.67
L 183.33 180.00
L 201.67 180.00
L 220.00 180.00
L 220.00 141.67
M 260.00 141.67
L 260.00 103.33
L 241.67 103.33
L 223.33 103.33
L 223.33 141.67
L 223.33 180.00
L 241.67 180.00
L 260.00 180.00
L 260.00 141.67
M 340.00 161.67
L 340.00 143.33
L 301.67 143.33
L 263.33 143.33
L 263.33 161.67
L 263.33 180.00
L 301.67 180.00
L 340.00 180.00
L 340.00 161.67
M 380.00 141.67
L 380.00 103.33
L 361.67 103.33
L 343.33 103.33
L 343.33 141.67
L 343.33 180.00
L 361.67 180.00
L 380.00 180.00
L 380.00 141.67
M 420.00 141.67
L 420.00 103.33
L 401.67 103.33
L 383.33 103.33
L 383.33 141.67
L 383.33 180.00
L 401.67 180.00
L 420.00 180.00
L 420.00 141.67
M 180.00 121.67
L 180.00 103.33
L 141.67 103.33
L 103.33 103.33
L 103.33 121.67
L 103.33 140.00
L 141.67 140.00
L 180.00 140.00
L 180.00 121.67
M 340.00 121.67
L 340.00 103.33
L 301.67 103.33
L 263.33 103.33
L 263.33 121.67
L 263.33 140.00
L 301.67 140.00
L 340.00 140.00
L 340.00 121.67
M 100.00 81.67
L 100.00 63.33
L 60.00 63.33
L 20.00 63.33
L 20.00 81.67
L 20.00 100.00
L 60.00 100.00
L 100.00 100.00
L 100.00 81.67
M 140.00 60.00
L 140.00 20.00
L 121.67 20.00
L 103.33 20.00
L 103.33 60.00
L 103.33 100.00
L 121.67 100.00
L 140.00 100.00
L 140.00 60.00
M 180.00 60.00
L 180.00 20.00
L 161.67 20.00
L 143.33 20.00
L 143.33 60.00
L 143.33 100.00
L 161.67 100.00
L 180.00 100.00
L 180.00 60.00
M 260.00 81.67
L 260.00 63.33
L 221.67 63.33
L 183.33 63.33
L 183.33 81.67
L 183.33 100.00
L 221.67 100.00
L 260.00 100.00
L 260.00 81.67
M 300.00 60.00
L 300.00 20.00
L 281.67 20.00
L 263.33 20.00
L 263.33 60.00
L 263.33 100.00
L 281.67 100.00
L 300.00 100.00
L 300.00 60.00
M 340.00 60.00
L 340.00 20.00
L 321.67 20.00
L 303.33 20.00
L 303.33 60.00
L 303.33 100.00
L 321.67 100.00
L 340.00 100.00
L 340.00 60.00
M 420.00 81.67
L 420.00 63.33
L 381.67 63.33
L 343.33 63.33
L 343.33 81.67
L 343.33 100.00
L 381.67 100.00
L 420.00 100.00
L 420.00 81.67
M 100.00 40.00
L 100.00 20.00
L 64.00 20.00
C 40.43 20.00 26.63 21.37 24.00 24.00
C 21.80 26.20 20.00 35.20 20.00 44.00
L 20.00 60.00
L 60.00 60.00
L 100.00 60.00
L 100.00 40.00
M 260.00 40.00
L 260.00 20.00
L 221.67 20.00
L 183.33 20.00
L 183.33 40.00
L 183.33 60.00
L 221.67 60.00
L 260.00 60.00
L 260.00 40.00
M 420.00 44.00
C 420.00 35.20 418.20 26.20 416.00 24.00
C 413.40 21.40 399.93 20.00 377.67 20.00
L 343.33 20.00
L 343.33 40.00
L 343.33 60.00
L 381.67 60.00
L 420.00 60.00
L 420.00 44.00"/>
<path fill="#eaab6c" stroke="none" d="
M 24.00 576.00
C 21.80 573.80 20.00 565.53 20.00 557.67
L 20.00 543.33
L 60.00 543.33
L 100.00 543.33
L 100.00 561.67
L 100.00 580.00
L 64.00 580.00
C 40.43 580.00 26.63 578.63 24.00 576.00"/>
<path fill="#eaab6c" stroke="none" d="
M 183.33 561.67
L 183.33 543.33
L 221.67 543.33
L 260.00 543.33
L 260.00 561.67
L 260.00 580.00
L 221.67 580.00
L 183.33 580.00
L 183.33 561.67"/>
<path fill="#eaab6c" stroke="none" d="
M 343.33 561.67
L 343.33 543.33
L 381.67 543.33
L 420.00 543.33
L 420.00 557.67
C 420.00 565.57 418.20 573.80 416.00 576.00
C 413.40 578.60 399.93 580.00 377.67 580.00
L 343.33 580.00
L 343.33 561.67"/>
<path fill="#eaab6c" stroke="none" d="
M 20.00 521.67
L 20.00 503.33
L 60.00 503.33
L 100.00 503.33
L 100.00 521.67
L 100.00 540.00
L 60.00 540.00
L 20.00 540.00
L 20.00 521.67"/>
<path fill="#eaab6c" stroke="none" d="
M 183.33 521.67
L 183.33 503.33
L 221.67 503.33
L 260.00 503.33
L 260.00 521.67
L 260.00 540.00
L 221.67 540.00
L 183.33 540.00
L 183.33 521.67"/>
<path fill="#eaab6c" stroke="none" d="
M 343.33 521.67
L 343.33 503.33
L 381.67 503.33
L 420.00 503.33
L 420.00 521.67
L 420.00 540.00
L 381.67 540.00
L 343.33 540.00
L 343.33 521.67"/>
<path fill="#eaab6c" stroke="none" d="
M 103.33 481.67
L 103.33 463.33
L 141.67 463.33
L 180.00 463.33
L 180.00 481.67
L 180.00 500.00
L 141.67 500.00
L 103.33 500.00
L 103.33 481.67"/>
<path fill="#eaab6c" stroke="none" d="
M 263.33 481.67
L 263.33 463.33
L 301.67 463.33
L 340.00 463.33
L 340.00 481.67
L 340.00 500.00
L 301.67 500.00
L 263.33 500.00
L 263.33 481.67"/>
<path fill="#eaab6c" stroke="none" d="
M 103.33 441.67
L 103.33 423.33
L 141.67 423.33
L 180.00 423.33
L 180.00 441.67
L 180.00 460.00
L 141.67 460.00
L 103.33 460.00
L 103.33 441.67"/>
<path fill="#eaab6c" stroke="none" d="
M 263.33 441.67
L 263.33 423.33
L 301.67 423.33
L 340.00 423.33
L 340.00 441.67
L 340.00 460.00
L 301.67 460.00
L 263.33 460.00
L 263.33 441.67"/>
<path fill="#eaab6c" stroke="none" d="
M 20.00 401.67
L 20.00 383.33
L 60.00 383.33
L 100.00 383.33
L 100.00 401.67
L 100.00 420.00
L 60.00 420.00
L 20.00 420.00
L 20.00 401.67"/>
<path fill="#eaab6c" stroke="none" d="
M 183.33 401.67
L 183.33 383.33
L 221.67 383.33
L 260.00 383.33
L 260.00 401.67
L 260.00 420.00
L 221.67 420.00
L 183.33 420.00
L 183.33 401.67"/>
<path fill="#eaab6c" stroke="none" d="
M 343.33 401.67
L 343.33 383.33
L 381.67 383.33
L 420.00 383.33
L 420.00 401.67
L 420.00 420.00
L 381.67 420.00
L 343.33 420.00
L 343.33 401.67"/>
<path fill="#eaab6c" stroke="none" d="
M 20.00 361.67
L 20.00 343.33
L 60.00 343.33
L 100.00 343.33
L 100.00 361.67
L 100.00 380.00
L 60.00 380.00
L 20.00 380.00
L 20.00 361.67"/>
<path fill="#eaab6c" stroke="none" d="
M 183.33 361.67
L 183.33 343.33
L 221.67 343.33
L 260.00 343.33
L 260.00 361.67
L 260.00 380.00
L 221.67 380.00
L 183.33 380.00
L 183.33 361.67"/>
<path fill="#eaab6c" stroke="none" d="
M 343.33 361.67
L 343.33 343.33
L 381.67 343.33
L 420.00 343.33
L 420.00 361.67
L 420.00 380.00
L 381.67 380.00
L 343.33 380.00
L 343.33 361.67"/>
<path fill="#eaab6c" stroke="none" d="
M 103.33 321.67
L 103.33 303.33
L 141.67 303.33
L 180.00 303.33
L 180.00 321.67
L 180.00 340.00
L 141.67 340.00
L 103.33 340.00
L 103.33 321.67"/>
<path fill="#eaab6c" stroke="none" d="
M 263.33 321.67
L 263.33 303.33
L 301.67 303.33
L 340.00 303.33
L 340.00 321.67
L 340.00 340.00
L 301.67 340.00
L 263.33 340.00
L 263.33 321.67"/>
<path fill="#eaab6c" stroke="none" d="
M 103.33 281.67
L 103.33 263.33
L 141.67 263.33
L 180.00 263.33
L 180.00 281.67
L 180.00 300.00
L 141.67 300.00
L 103.33 300.00
L 103.33 281.67"/>
<path fill="#eaab6c" stroke="none" d="
M 263.33 281.67
L 263.33 263.33
L 301.67 263.33
L 340.00 263.33
L 340.00 281.67
L 340.00 300.00
L 301.67 300.00
L 263.33 300.00
L 263.33 281.67"/>
<path fill="#eaab6c" stroke="none" d="
M 20.00 241.67
L 20.00 223.33
L 60.00 223.33
L 100.00 223.33
L 100.00 241.67
L 100.00 260.00
L 60.00 260.00
L 20.00 260.00
L 20.00 241.67"/>
<path fill="#eaab6c" stroke="none" d="
M 183.33 241.67
L 183.33 223.33
L 221.67 223.33
L 260.00 223.33
L 260.00 241.67
L 260.00 260.00
L 221.67 260.00
L 183.33 260.00
L 183.33 241.67"/>
<path fill="#eaab6c" stroke="none" d="
M 343.33 241.67
L 343.33 223.33
L 381.67 223.33
L 420.00 223.33
L 420.00 241.67
L 420.00 260.00
L 381.67 260.00
L 343.33 260.00
L 343.33 241.67"/>
<path fill="#eaab6c" stroke="none" d="
M 20.00 201.67
L 20.00 183.33
L 60.00 183.33
L 100.00 183.33
L 100.00 201.67
L 100.00 220.00
L 60.00 220.00
L 20.00 220.00
L 20.00 201.67"/>
<path fill="#eaab6c" stroke="none" d="
M 183.33 201.67
L 183.33 183.33
L 221.67 183.33
L 260.00 183.33
L 260.00 201.67
L 260.00 220.00
L 221.67 220.00
L 183.33 220.00
L 183.33 201.67"/>
<path fill="#eaab6c" stroke="none" d="
M 343.33 201.67
L 343.33 183.33
L 381.67 183.33
L 420.00 183.33
L 420.00 201.67
L 420.00 220.00
L 381.67 220.00
L 343.33 220.00
L 343.33 201.67"/>
<path fill="#eaab6c" stroke="none" d="
M 103.33 161.67
L 103.33 143.33
L 141.67 143.33
L 180.00 143.33
L 180.00 161.67
L 180.00 180.00
L 141.67 180.00
L 103.33 180.00
L 103.33 161.67"/>
<path fill="#eaab6c" stroke="none" d="
M 263.33 161.67
L 263.33 143.33
L 301.67 143.33
L 340.00 143.33
L 340.00 161.67
L 340.00 180.00
L 301.67 180.00
L 263.33 180.00
L 263.33 161.67"/>
<path fill="#eaab6c" stroke="none" d="
M 103.33 121.67
L 103.33 103.33
L 141.67 103.33
L 180.00 103.33
L 180.00 121.67
L 180.00 140.00
L 141.67 140.00
L 103.33 140.00
L 103.33 121.67"/>
<path fill="#eaab6c" stroke="none" d="
M 263.33 121.67
L 263.33 103.33
L 301.67 103.33
L 340.00 103.33
L 340.00 121.67
L 340.00 140.00
L 301.67 140.00
L 263.33 140.00
L 263.33 121.67"/>
<path fill="#eaab6c" stroke="none" d="
M 20.00 81.67
L 20.00 63.33
L 60.00 63.33
L 100.00 63.33
L 100.00 81.67
L 100.00 100.00
L 60.00 100.00
L 20.00 100.00
L 20.00 81.67"/>
<path fill="#eaab6c" stroke="none" d="
M 183.33 81.67
L 183.33 63.33
L 221.67 63.33
L 260.00 63.33
L 260.00 81.67
L 260.00 100.00
L 221.67 100.00
L 183.33 100.00
L 183.33 81.67"/>
<path fill="#eaab6c" stroke="none" d="
M 343.33 81.67
L 343.33 63.33
L 381.67 63.33
L 420.00 63.33
L 420.00 81.67
L 420.00 100.00
L 381.67 100.00
L 343.33 100.00
L 343.33 81.67"/>
<path fill="#eaab6c" stroke="none" d="
M 20.00 43.47
C 20.00 21.93 23.83 20.00 66.43 20.00
L 100.00 20.00
L 100.00 40.00
L 100.00 60.00
L 60.00 60.00
L 20.00 60.00
L 20.00 43.47"/>
<path fill="#eaab6c" stroke="none" d="
M 183.33 40.00
L 183.33 20.00
L 221.67 20.00
L 260.00 20.00
L 260.00 40.00
L 260.00 60.00
L 221.67 60.00
L 183.33 60.00
L 183.33 40.00"/>
<path fill="#eaab6c" stroke="none" d="
M 343.33 40.00
L 343.33 20.00
L 377.67 20.00
C 399.93 20.00 413.40 21.40 416.00 24.00
C 418.20 26.20 420.00 35.20 420.00 44.00
L 420.00 60.00
L 381.67 60.00
L 343.33 60.00
L 343.33 40.00"/>
<path fill="#8e5e2f" stroke="none" d="
M 103.33 541.67
L 103.33 503.33
L 121.67 503.33
L 140.00 503.33
L 140.00 541.67
L 140.00 580.00
L 121.67 580.00
L 103.33 580.00
L 103.33 541.67"/>
<path fill="#8e5e2f" stroke="none" d="
M 143.33 541.67
L 143.33 503.33
L 161.67 503.33
L 180.00 503.33
L 180.00 541.67
L 180.00 580.00
L 161.67 580.00
L 143.33 580.00
L 143.33 541.67"/>
<path fill="#8e5e2f" stroke="none" d="
M 263.33 541.67
L 263.33 503.33
L 281.67 503.33
L 300.00 503.33
L 300.00 541.67
L 300.00 580.00
L 281.67 580.00
L 263.33 580.00
L 263.33 541.67"/>
<path fill="#8e5e2f" stroke="none" d="
M 303.33 541.67
L 303.33 503.33
L 321.67 503.33
L 340.00 503.33
L 340.00 541.67
L 340.00 580.00
L 321.67 580.00
L 303.33 580.00
L 303.33 541.67"/>
<path fill="#8e5e2f" stroke="none" d="
M 20.00 461.67
L 20.00 423.33
L 40.00 423.33
L 60.00 423.33
L 60.00 461.67
L 60.00 500.00
L 40.00 500.00
L 20.00 500.00
L 20.00 461.67"/>
<path fill="#8e5e2f" stroke="none" d="
M 63.33 461.67
L 63.33 423.33
L 81.67 423.33
L 100.00 423.33
L 100.00 461.67
L 100.00 500.00
L 81.67 500.00
L 63.33 500.00
L 63.33 461.67"/>
<path fill="#8e5e2f" stroke="none" d="
M 183.33 461.67
L 183.33 423.33
L 201.67 423.33
L 220.00 423.33
L 220.00 461.67
L 220.00 500.00
L 201.67 500.00
L 183.33 500.00
L 183.33 461.67"/>
<path fill="#8e5e2f" stroke="none" d="
M 223.33 461.67
L 223.33 423.33
L 241.67 423.33
L 260.00 423.33
L 260.00 461.67
L 260.00 500.00
L 241.67 500.00
L 223.33 500.00
L 223.33 461.67"/>
<path fill="#8e5e2f" stroke="none" d="
M 343.33 461.67
L 343.33 423.33
L 361.67 423.33
L 380.00 423.33
L 380.00 461.67
L 380.00 500.00
L 361.67 500.00
L 343.33 500.00
L 343.33 461.67"/>
<path fill="#8e5e2f" stroke="none" d="
M 383.33 461.67
L 383.33 423.33
L 401.67 423.33
L 420.00 423.33
L 420.00 461.67
L 420.00 500.00
L 401.67 500.00
L 383.33 500.00
L 383.33 461.67"/>
<path fill="#8e5e2f" stroke="none" d="
M 103.33 381.67
L 103.33 343.33
L 121.67 343.33
L 140.00 343.33
L 140.00 381.67
L 140.00 420.00
L 121.67 420.00
L 103.33 420.00
L 103.33 381.67"/>
<path fill="#8e5e2f" stroke="none" d="
M 143.33 381.67
L 143.33 343.33
L 161.67 343.33
L 180.00 343.33
L 180.00 381.67
L 180.00 420.00
L 161.67 420.00
L 143.33 420.00
L 143.33 381.67"/>
<path fill="#8e5e2f" stroke="none" d="
M 263.33 381.67
L 263.33 343.33
L 281.67 343.33
L 300.00 343.33
L 300.00 381.67
L 300.00 420.00
L 281.67 420.00
L 263.33 420.00
L 263.33 381.67"/>
<path fill="#8e5e2f" stroke="none" d="
M 303.33 381.67
L 303.33 343.33
L 321.67 343.33
L 340.00 343.33
L 340.00 381.67
L 340.00 420.00
L 321.67 420.00
L 303.33 420.00
L 303.33 381.67"/>
<path fill="#8e5e2f" stroke="none" d="
M 20.00 301.67
L 20.00 263.33
L 40.00 263.33
L 60.00 263.33
L 60.00 301.67
L 60.00 340.00
L 40.00 340.00
L 20.00 340.00
L 20.00 301.67"/>
<path fill="#8e5e2f" stroke="none" d="
M 63.33 301.67
L 63.33 263.33
L 81.67 263.33
L 100.00 263.33
L 100.00 301.67
L 100.00 340.00
L 81.67 340.00
L 63.33 340.00
L 63.33 301.67"/>
<path fill="#8e5e2f" stroke="none" d="
M 183.33 301.67
L 183.33 263.33
L 201.67 263.33
L 220.00 263.33
L 220.00 301.67
L 220.00 340.00
L 201.67 340.00
L 183.33 340.00
L 183.33 301.67"/>
<path fill="#8e5e2f" stroke="none" d="
M 223.33 301.67
L 223.33 263.33
L 241.67 263.33
L 260.00 263.33
L 260.00 301.67
L 260.00 340.00
L 241.67 340.00
L 223.33 340.00
L 223.33 301.67"/>
<path fill="#8e5e2f" stroke="none" d="
M 343.33 301.67
L 343.33 263.33
L 361.67 263.33
L 380.00 263.33
L 380.00 301.67
L 380.00 340.00
L 361.67 340.00
L 343.33 340.00
L 343.33 301.67"/>
<path fill="#8e5e2f" stroke="none" d="
M 383.33 301.67
L 383.33 263.33
L 401.67 263.33
L 420.00 263.33
L 420.00 301.67
L 420.00 340.00
L 401.67 340.00
L 383.33 340.00
L 383.33 301.67"/>
<path fill="#8e5e2f" stroke="none" d="
M 103.33 221.67
L 103.33 183.33
L 121.67 183.33
L 140.00 183.33
L 140.00 221.67
L 140.00 260.00
L 121.67 260.00
L 103.33 260.00
L 103.33 221.67"/>
<path fill="#8e5e2f" stroke="none" d="
M 143.33 221.67
L 143.33 183.33
L 161.67 183.33
L 180.00 183.33
L 180.00 221.67
L 180.00 260.00
L 161.67 260.00
L 143.33 260.00
L 143.33 221.67"/>
<path fill="#8e5e2f" stroke="none" d="
M 263.33 221.67
L 263.33 183.33
L 281.67 183.33
L 300.00 183.33
L 300.00 221.67
L 300.00 260.00
L 281.67 260.00
L 263.33 260.00
L 263.33 221.67"/>
<path fill="#8e5e2f" stroke="none" d="
M 303.33 221.67
L 303.33 183.33
L 321.67 183.33
L 340.00 183.33
L 340.00 221.67
L 340.00 260.00
L 321.67 260.00
L 303.33 260.00
L 303.33 221.67"/>
<path fill="#8e5e2f" stroke="none" d="
M 20.00 141.67
L 20.00 103.33
L 40.00 103.33
L 60.00 103.33
L 60.00 141.67
L 60.00 180.00
L 40.00 180.00
L 20.00 180.00
L 20.00 141.67"/>
<path fill="#8e5e2f" stroke="none" d="
M 63.33 141.67
L 63.33 103.33
L 81.67 103.33
L 100.00 103.33
L 100.00 141.67
L 100.00 180.00
L 81.67 180.00
L 63.33 180.00
L 63.33 141.67"/>
<path fill="#8e5e2f" stroke="none" d="
M 183.33 141.67
L 183.33 103.33
L 201.67 103.33
L 220.00 103.33
L 220.00 141.67
L 220.00 180.00
L 201.67 180.00
L 183.33 180.00
L 183.33 141.67"/>
<path fill="#8e5e2f" stroke="none" d="
M 223.33 141.67
L 223.33 103.33
L 241.67 103.33
L 260.00 103.33
L 260.00 141.67
L 260.00 180.00
L 241.67 180.00
L 223.33 180.00
L 223.33 141.67"/>
<path fill="#8e5e2f" stroke="none" d="
M 343.33 141.67
L 343.33 103.33
L 361.67 103.33
L 380.00 103.33
L 380.00 141.67
L 380.00 180.00
L 361.67 180.00
L 343.33 180.00
L 343.33 141.67"/>
<path fill="#8e5e2f" stroke="none" d="
M 383.33 141.67
L 383.33 103.33
L 401.67 103.33
L 420.00 103.33
L 420.00 141.67
L 420.00 180.00
L 401.67 180.00
L 383.33 180.00
L 383.33 141.67"/>
<path fill="#8e5e2f" stroke="none" d="
M 104.07 60.83
L 105.00 21.67
L 122.50 20.67
L 140.00 19.67
L 140.00 59.83
L 140.00 100.00
L 121.57 100.00
L 103.13 100.00
L 104.07 60.83"/>
<path fill="#8e5e2f" stroke="none" d="
M 143.33 60.00
L 143.33 20.00
L 161.67 20.00
L 180.00 20.00
L 180.00 60.00
L 180.00 100.00
L 161.67 100.00
L 143.33 100.00
L 143.33 60.00"/>
<path fill="#8e5e2f" stroke="none" d="
M 263.33 60.00
L 263.33 20.00
L 281.67 20.00
L 300.00 20.00
L 300.00 60.00
L 300.00 100.00
L 281.67 100.00
L 263.33 100.00
L 263.33 60.00"/>
<path fill="#8e5e2f" stroke="none" d="
M 303.33 60.00
L 303.33 20.00
L 321.67 20.00
L 340.00 20.00
L 340.00 60.00
L 340.00 100.00
L 321.67 100.00
L 303.33 100.00
L 303.33 60.00"/>
</g>
</svg>
