<?xml version="1.0" encoding="UTF-8" standalone="no"?>
<!DOCTYPE svg PUBLIC "-//W3C//DTD SVG 1.1//EN"
"http://www.w3.org/Graphics/SVG/1.1/DTD/svg11.dtd">
<svg width="600px" height="425px"
xmlns="http://www.w3.org/2000/svg" version="1.1">
<g transform="translate(0000, 0000) scale(1.0000, 1.0000)">
<path fill="#000000" stroke="none" d="
M 2.53 422.46
C 0.03 419.95 0.00 418.24 0.00 212.74
C 0.00 43.87 0.30 5.14 1.66 3.29
C 2.67 1.90 5.59 0.75 9.10 0.36
C 13.85 -0.18 15.38 0.19 17.57 2.39
C 20.23 5.05 20.25 5.61 20.25 67.86
L 20.25 130.65
L 34.61 118.26
C 66.03 91.18 95.99 70.96 131.01 53.21
C 173.51 31.69 211.78 19.61 258.23 13.11
C 282.43 9.72 331.29 10.07 355.70 13.83
C 435.49 26.07 502.27 59.40 567.41 119.48
L 579.75 130.86
L 579.75 67.97
C 579.75 6.76 579.81 5.01 582.28 2.54
C 585.71 -0.90 594.04 -0.90 597.47 2.54
C 599.97 5.05 600.00 6.76 600.00 212.50
C 600.00 418.24 599.97 419.95 597.47 422.46
C 594.04 425.90 585.71 425.90 582.28 422.46
C 579.90 420.08 579.75 418.24 579.75 390.75
L 579.75 361.57
L 300.00 361.57
L 20.25 361.57
L 20.25 390.75
C 20.25 418.24 20.10 420.08 17.72 422.46
C 16.04 424.15 13.51 425.00 10.13 425.00
C 6.75 425.00 4.22 424.15 2.53 422.46
M 12.41 417.13
C 13.57 415.97 13.92 368.76 13.92 212.40
C 13.92 33.31 13.70 9.01 12.03 7.61
C 10.51 6.36 9.75 6.36 8.23 7.61
C 6.56 9.01 6.33 33.31 6.33 212.40
C 6.33 414.36 6.41 418.66 10.13 418.66
C 10.54 418.66 11.57 417.97 12.41 417.13
M 592.15 417.13
C 593.32 415.97 593.67 368.76 593.67 212.40
C 593.67 33.31 593.44 9.01 591.77 7.61
C 590.25 6.36 589.49 6.36 587.97 7.61
C 586.30 9.01 586.08 33.31 586.08 212.40
C 586.08 414.36 586.15 418.66 589.87 418.66
C 590.29 418.66 591.32 417.97 592.15 417.13
M 579.75 255.00
L 579.75 158.58
L 300.00 158.58
L 20.25 158.58
L 20.25 255.00
L 20.25 351.42
L 300.00 351.42
L 579.75 351.42
L 579.75 255.00
M 578.48 146.06
C 578.48 141.48 577.54 140.25 563.96 127.06
C 503.95 68.80 428.49 31.16 351.25 20.95
C 296.44 13.70 238.90 19.65 185.44 38.11
C 130.77 56.98 82.57 85.90 33.86 129.05
C 21.82 139.70 21.52 140.12 21.52 145.48
L 21.52 150.97
L 300.00 150.97
L 578.48 150.97
L 578.48 146.06"/>
<path fill="#c57a36" stroke="none" d="
M 7.85 417.13
C 6.68 415.97 6.33 368.74 6.33 212.30
C 6.33 15.90 6.41 8.93 8.67 7.71
C 10.28 6.85 11.46 6.91 12.47 7.93
C 13.56 9.02 13.92 60.79 13.92 212.50
C 13.92 414.36 13.85 418.66 10.13 418.66
C 9.71 418.66 8.68 417.97 7.85 417.13"/>
<path fill="#c57a36" stroke="none" d="
M 587.59 417.13
C 586.43 415.97 586.08 368.76 586.08 212.40
C 586.08 33.31 586.30 9.01 587.97 7.61
C 589.49 6.36 590.25 6.36 591.77 7.61
C 593.44 9.01 593.67 33.31 593.67 212.40
C 593.67 414.36 593.59 418.66 589.87 418.66
C 589.46 418.66 588.43 417.97 587.59 417.13"/>
<path fill="#c57a36" stroke="none" d="
M 21.52 145.48
C 21.52 140.12 21.82 139.70 33.86 129.05
C 82.57 85.90 130.77 56.98 185.44 38.11
C 294.76 0.37 410.35 15.88 507.58 81.35
C 527.57 94.79 546.71 110.32 563.96 127.06
C 577.54 140.25 578.48 141.48 578.48 146.06
L 578.48 150.97
L 300.00 150.97
L 21.52 150.97
L 21.52 145.48"/>
<path fill="#c55436" stroke="none" d="
M 20.56 255.32
L 20.89 159.22
L 300.32 158.90
L 579.75 158.58
L 579.75 255.00
L 579.75 351.42
L 299.99 351.42
L 20.24 351.42
L 20.56 255.32"/>
</g>
</svg>
