<?xml version="1.0" encoding="UTF-8" standalone="no"?>
<!DOCTYPE svg PUBLIC "-//W3C//DTD SVG 1.1//EN"
"http://www.w3.org/Graphics/SVG/1.1/DTD/svg11.dtd">
<svg width="311px" height="600px"
xmlns="http://www.w3.org/2000/svg" version="1.1">
<g transform="translate(0000, 0000) scale(1.0000, 1.0000)">
<path fill="#000000" stroke="none" d="
M 3.14 596.87
C -2.25 591.47 -1.25 585.35 6.60 575.58
C 29.17 547.56 40.08 517.54 43.57 473.95
C 44.70 459.65 44.49 448.53 42.31 409.68
C 40.87 383.83 39.09 351.47 38.36 337.74
C 36.55 303.90 35.13 286.85 30.70 246.10
C 25.24 195.75 23.88 171.99 24.71 141.36
C 25.74 104.16 29.26 83.55 38.36 61.50
C 46.14 42.65 60.05 25.83 75.72 16.32
C 104.41 -1.06 149.46 -4.23 177.64 9.16
C 187.12 13.66 199.26 24.97 203.51 33.26
C 208.11 42.26 211.12 55.80 211.15 67.61
C 211.17 75.59 212.12 81.58 214.94 91.28
C 222.28 116.58 228.26 153.54 232.88 202.13
C 234.33 217.25 236.37 235.11 237.42 241.79
C 241.47 267.24 250.11 344.90 252.24 374.80
C 254.38 404.76 251.07 431.33 242.46 453.15
C 240.20 458.90 240.19 459.39 242.31 463.83
C 244.40 468.20 244.69 468.37 247.37 466.66
C 248.93 465.66 262.80 457.43 278.19 448.40
C 300.43 435.31 306.58 432.23 308.26 433.28
C 310.16 434.48 310.36 439.96 310.36 489.34
C 310.36 538.72 310.16 544.20 308.26 545.40
C 306.58 546.45 300.43 543.36 278.19 530.28
C 262.80 521.25 248.95 513.03 247.40 512.05
C 244.82 510.40 244.46 510.55 242.63 514.08
C 241.56 516.18 237.77 520.68 234.25 524.09
C 230.72 527.49 227.81 530.85 227.81 531.56
C 227.80 532.26 233.06 546.31 239.51 562.76
C 248.42 585.45 250.92 593.18 249.95 594.74
C 248.80 596.57 243.53 596.80 202.85 596.80
C 162.18 596.80 156.91 596.57 155.76 594.74
C 154.78 593.18 157.29 585.45 166.20 562.76
C 172.65 546.31 177.91 532.26 177.90 531.56
C 177.90 530.85 174.99 527.49 171.46 524.09
C 167.94 520.68 164.15 516.18 163.08 514.08
C 161.25 510.55 160.89 510.40 158.30 512.05
C 156.75 513.03 142.91 521.25 127.52 530.28
C 105.28 543.36 99.12 546.45 97.45 545.40
C 95.55 544.20 95.35 538.72 95.35 489.34
C 95.35 439.96 95.55 434.48 97.45 433.28
C 99.12 432.23 105.28 435.31 127.52 448.40
C 142.91 457.43 156.73 465.62 158.23 466.58
C 160.75 468.19 161.17 467.96 163.82 463.48
C 166.65 458.70 166.65 458.56 164.41 452.88
C 155.90 431.27 152.62 404.65 154.76 374.51
C 156.15 354.95 163.09 288.41 164.47 281.45
C 164.82 279.68 166.56 260.70 168.34 239.23
C 174.40 166.13 180.10 127.11 188.95 97.87
C 193.41 83.18 193.96 75.71 191.41 64.72
C 188.63 52.80 183.93 44.62 175.13 36.47
C 161.36 23.73 143.42 18.09 126.37 21.15
C 73.76 30.61 46.57 70.52 42.73 143.92
C 41.83 161.19 43.22 181.91 48.65 232.20
C 53.34 275.71 54.51 290.61 56.97 339.02
C 58.05 360.47 59.49 386.43 60.15 396.69
C 66.54 494.85 59.50 540.96 31.94 581.45
C 21.77 596.39 17.83 600.00 11.61 600.00
C 7.67 600.00 5.46 599.18 3.14 596.87
M 18.05 588.17
C 41.21 560.28 52.93 527.50 56.40 481.02
C 57.85 461.46 57.52 442.64 54.98 401.71
C 54.32 390.81 52.88 364.61 51.81 343.50
C 49.39 295.68 48.21 280.66 43.53 237.31
C 36.33 170.88 35.55 141.21 40.21 111.30
C 49.13 53.94 78.29 21.51 126.64 15.17
C 146.96 12.51 166.24 18.38 180.50 31.57
C 189.85 40.25 195.15 50.52 197.49 64.61
C 199.07 74.12 199.41 74.84 202.30 74.84
C 205.07 74.84 205.46 74.21 205.82 69.19
C 206.32 62.07 202.84 47.39 198.66 39.03
C 194.25 30.23 182.33 18.92 172.52 14.28
C 146.40 1.87 108.21 4.85 80.83 21.44
C 55.24 36.96 38.95 65.83 32.61 106.87
C 27.82 137.87 28.73 175.65 35.85 241.15
C 40.21 281.35 41.66 298.61 43.45 331.98
C 44.17 345.35 46.00 378.74 47.52 406.18
C 49.88 448.66 50.07 459.02 48.86 475.91
C 45.78 518.87 35.85 548.71 15.78 575.37
C 5.59 588.90 6.05 588.01 7.67 591.02
C 9.80 595.02 13.12 594.12 18.05 588.17
M 241.54 589.45
C 220.11 534.06 219.85 533.49 216.38 534.47
C 212.12 535.66 193.59 535.66 189.33 534.47
C 185.86 533.49 185.60 534.06 164.16 589.45
C 163.68 590.70 171.93 591.04 202.85 591.04
C 233.77 591.04 242.03 590.70 241.54 589.45
M 130.85 518.81
C 157.85 502.98 158.65 502.39 157.73 499.11
C 156.51 494.76 156.51 483.91 157.73 479.57
C 158.65 476.29 157.85 475.70 130.85 459.86
C 115.54 450.88 102.59 443.31 102.07 443.01
C 101.54 442.73 101.11 463.57 101.11 489.34
C 101.11 515.10 101.54 535.94 102.07 535.66
C 102.59 535.37 115.54 527.80 130.85 518.81
M 304.31 466.40
L 303.96 442.67
L 275.80 459.28
C 248.74 475.24 247.67 476.02 248.25 479.41
C 248.58 481.36 248.85 485.82 248.85 489.34
C 248.85 492.86 248.58 497.32 248.25 499.27
C 247.67 502.66 248.74 503.44 275.80 519.40
L 303.96 536.01
L 304.31 513.08
C 304.50 500.47 304.50 479.46 304.31 466.40
M 217.99 525.42
C 230.65 519.59 237.78 510.92 241.45 496.84
C 247.25 474.68 226.81 449.76 202.85 449.76
C 189.83 449.76 176.08 457.68 169.44 469.01
C 164.09 478.13 162.08 487.80 163.91 495.59
C 166.88 508.21 173.05 517.20 182.56 522.78
C 195.34 530.26 205.76 531.03 217.99 525.42
M 202.85 443.28
C 214.78 443.28 216.37 443.59 224.01 447.38
C 228.57 449.63 232.69 451.07 233.19 450.58
C 235.23 448.53 240.61 431.97 242.68 421.38
C 245.98 404.43 245.38 378.55 240.71 335.82
C 235.67 289.70 231.97 259.97 231.10 258.56
C 230.73 257.96 229.24 244.86 227.81 229.47
C 221.35 159.99 215.42 120.55 207.45 93.76
C 203.17 79.42 202.18 79.93 196.65 99.25
C 188.66 127.25 180.87 177.76 177.94 220.68
C 176.21 245.95 174.15 266.84 168.32 318.24
C 162.27 371.67 160.96 392.12 162.60 408.08
C 164.04 422.11 167.33 436.25 171.27 445.36
L 173.83 451.28
L 181.89 447.28
C 189.31 443.60 190.99 443.28 202.85 443.28"/>
<path fill="#6f6a6a" stroke="none" d="
M 7.67 591.02
C 6.05 588.01 5.59 588.90 15.78 575.37
C 35.85 548.71 45.78 518.87 48.86 475.91
C 50.07 459.02 49.88 448.66 47.52 406.18
C 46.00 378.74 44.17 345.35 43.45 331.98
C 41.66 298.61 40.21 281.35 35.85 241.15
C 30.45 191.46 29.01 167.59 29.88 142.00
C 31.33 99.24 38.19 71.42 52.83 48.99
C 65.78 29.12 83.80 16.49 108.15 10.21
C 130.85 4.36 154.89 5.87 172.52 14.26
C 182.33 18.93 194.25 30.24 198.66 39.03
C 202.84 47.39 206.32 62.07 205.82 69.19
C 205.46 74.21 205.07 74.84 202.30 74.84
C 199.41 74.84 199.07 74.12 197.49 64.61
C 195.15 50.52 189.85 40.25 180.50 31.57
C 166.24 18.38 146.96 12.51 126.64 15.17
C 78.29 21.51 49.13 53.94 40.21 111.30
C 35.55 141.21 36.33 170.88 43.53 237.31
C 48.21 280.66 49.39 295.68 51.81 343.50
C 52.88 364.61 54.32 390.81 54.98 401.71
C 57.52 442.64 57.85 461.46 56.40 481.02
C 53.42 521.04 44.54 550.18 27.75 575.05
C 15.90 592.62 10.73 596.72 7.67 591.02"/>
<path fill="#fd3535" stroke="none" d="
M 171.27 445.36
C 167.33 436.25 164.04 422.11 162.60 408.08
C 160.96 392.12 162.27 371.67 168.32 318.24
C 174.16 266.83 176.21 245.94 177.94 220.68
C 181.20 172.90 188.84 125.41 198.44 93.17
C 201.86 81.70 203.88 81.81 207.42 93.71
C 215.42 120.55 221.33 159.95 227.81 229.47
C 229.24 244.86 230.73 257.96 231.10 258.56
C 231.97 259.97 235.67 289.70 240.71 335.82
C 245.38 378.55 245.98 404.43 242.68 421.38
C 240.61 431.97 235.23 448.53 233.19 450.58
C 232.69 451.07 228.57 449.63 224.01 447.38
C 216.37 443.59 214.78 443.28 202.85 443.28
C 190.99 443.28 189.31 443.60 181.89 447.28
L 173.83 451.28
L 171.27 445.36"/>
<path fill="#e5bd1f" stroke="none" d="
M 164.16 589.45
C 185.60 534.06 185.86 533.49 189.33 534.47
C 193.59 535.66 212.12 535.66 216.38 534.47
C 219.85 533.49 220.11 534.06 241.54 589.45
C 242.03 590.70 233.77 591.04 202.85 591.04
C 171.93 591.04 163.68 590.70 164.16 589.45"/>
<path fill="#e5bd1f" stroke="none" d="
M 101.11 490.06
C 101.11 457.45 101.52 443.92 102.51 443.92
C 103.28 443.92 116.23 451.18 131.30 460.06
C 157.85 475.70 158.65 476.29 157.73 479.57
C 156.51 483.91 156.51 494.76 157.73 499.11
C 158.65 502.39 157.85 502.98 130.85 518.81
C 115.54 527.80 102.59 535.37 102.07 535.66
C 101.54 535.94 101.11 515.42 101.11 490.06"/>
<path fill="#e5bd1f" stroke="none" d="
M 275.80 519.40
C 248.74 503.44 247.67 502.66 248.25 499.27
C 248.58 497.32 248.85 492.86 248.85 489.34
C 248.85 485.82 248.58 481.36 248.25 479.41
C 247.67 476.02 248.74 475.24 275.80 459.28
L 303.96 442.67
L 304.31 466.40
C 304.50 479.46 304.50 500.47 304.31 513.08
L 303.96 536.01
L 275.80 519.40"/>
<path fill="#d25b3a" stroke="none" d="
M 193.63 527.86
C 177.41 522.58 167.80 512.14 163.91 495.59
C 162.64 490.22 162.71 487.75 164.25 481.84
C 166.60 472.89 171.43 464.48 176.91 459.85
C 200.82 439.64 234.53 451.70 241.82 483.08
C 243.63 490.89 241.61 500.57 236.27 509.67
C 227.91 523.93 207.85 532.49 193.63 527.86"/>
</g>
</svg>
