<?xml version="1.0" encoding="UTF-8" standalone="no"?>
<!DOCTYPE svg PUBLIC "-//W3C//DTD SVG 1.1//EN"
"http://www.w3.org/Graphics/SVG/1.1/DTD/svg11.dtd">
<svg width="620px" height="600px"
xmlns="http://www.w3.org/2000/svg" version="1.1">
<g transform="translate(0000, 0000) scale(1.0000, 1.0000)">
<path fill="#000000" stroke="none" d="
M 207.53 597.42
C 202.89 592.79 203.58 590.95 222.09 558.58
C 246.32 516.21 254.59 497.39 261.69 468.36
C 270.97 430.44 273.37 407.24 274.19 347.36
L 274.86 298.78
L 163.53 298.43
L 52.20 298.07
L 43.43 293.91
C 28.42 286.82 12.85 269.85 3.80 250.71
C -0.66 241.33 -0.98 236.60 2.58 233.05
C 5.04 230.59 6.87 230.47 41.36 230.47
L 77.57 230.47
L 71.22 225.46
C 59.33 216.06 47.69 196.92 42.06 177.49
C 37.14 160.52 35.61 147.12 35.63 121.03
C 35.65 84.50 40.16 55.53 48.45 38.78
C 54.30 26.96 67.21 13.48 77.34 8.61
C 113.17 -8.59 151.85 15.31 161.10 60.36
C 165.29 80.83 166.73 96.26 166.74 121.03
C 166.77 162.73 161.03 186.36 145.31 209.37
C 140.02 217.09 136.83 219.88 125.11 226.92
L 119.23 230.45
L 190.60 230.46
C 257.96 230.47 261.92 230.34 261.29 228.22
C 260.92 226.98 257.35 214.38 253.36 200.21
C 246.85 177.12 241.46 160.73 236.44 148.70
C 234.84 144.86 234.18 144.53 227.16 143.88
C 208.87 142.24 194.69 128.21 192.48 109.58
C 191.88 104.51 192.38 101.90 195.07 96.01
C 197.94 89.78 199.29 88.34 204.57 85.89
C 209.81 83.48 213.02 83.06 225.65 83.05
L 240.55 83.05
L 246.83 77.54
C 252.83 72.26 274.22 60.52 277.83 60.52
C 280.91 60.52 281.04 58.34 278.46 50.02
C 275.42 40.16 269.81 30.99 264.51 27.23
C 261.30 24.95 258.80 24.46 250.19 24.46
C 236.94 24.46 234.59 22.66 234.59 12.48
C 234.59 -0.35 228.20 0.70 309.21 0.30
C 379.00 -0.05 380.22 -0.03 382.80 2.55
C 384.79 4.53 385.41 6.84 385.41 12.23
C 385.41 22.69 383.14 24.46 369.81 24.46
C 361.20 24.46 358.70 24.95 355.49 27.23
C 350.19 30.99 344.58 40.16 341.54 50.02
C 338.96 58.34 339.09 60.52 342.17 60.52
C 345.73 60.52 367.13 72.22 373.01 77.38
L 379.10 82.75
L 394.18 82.98
C 415.12 83.30 421.56 86.56 425.97 99.01
C 428.59 106.44 428.46 110.54 425.35 118.83
C 420.07 132.97 408.10 142.20 393.09 143.77
C 385.83 144.53 385.16 144.88 383.56 148.70
C 378.54 160.73 373.15 177.12 366.64 200.21
C 362.65 214.38 359.08 226.98 358.71 228.22
C 358.08 230.34 361.57 230.47 419.73 230.45
L 481.43 230.42
L 474.35 226.53
C 458.46 217.82 447.96 202.56 443.99 182.51
C 441.89 171.84 441.89 170.65 444.00 160.03
C 449.60 131.90 467.04 114.41 495.29 108.61
C 506.16 106.38 506.98 106.38 517.85 108.61
C 546.10 114.41 563.54 131.90 569.14 160.03
C 571.25 170.65 571.25 171.84 569.15 182.51
C 565.18 202.56 554.67 217.82 538.79 226.53
L 531.70 230.42
L 573.27 230.45
C 613.10 230.47 614.95 230.58 617.42 233.05
C 620.98 236.60 620.66 241.33 616.20 250.71
C 607.15 269.85 591.58 286.82 576.57 293.91
L 567.80 298.07
L 456.47 298.43
L 345.14 298.78
L 345.81 347.36
C 346.63 407.24 349.03 430.44 358.31 468.36
C 365.41 497.39 373.68 516.21 397.91 558.58
C 416.42 590.95 417.11 592.79 412.47 597.42
C 409.93 599.96 408.18 600.00 310.00 600.00
C 211.82 600.00 210.07 599.96 207.53 597.42
M 406.71 592.21
C 407.18 591.46 402.33 581.77 395.94 570.64
C 370.08 525.61 362.64 509.79 355.08 483.81
C 344.08 446.00 340.32 413.46 339.38 347.96
L 338.67 298.71
L 310.00 298.71
L 281.33 298.71
L 280.62 347.96
C 279.68 413.46 275.92 446.00 264.92 483.81
C 257.36 509.79 249.92 525.61 224.06 570.64
C 217.67 581.77 212.82 591.46 213.29 592.21
C 214.46 594.10 405.54 594.10 406.71 592.21
M 571.02 288.28
C 581.06 283.55 590.50 275.65 598.07 265.65
C 605.82 255.44 612.88 241.66 611.81 238.88
C 611.13 237.12 579.44 236.91 310.00 236.91
C 29.92 236.91 8.88 237.06 8.12 239.06
C 7.04 241.87 13.93 255.10 22.09 265.87
C 28.46 274.26 38.15 282.88 45.66 286.78
C 56.24 292.29 47.96 292.13 311.93 291.88
L 563.93 291.63
L 571.02 288.28
M 351.45 225.00
C 352.91 221.99 357.43 207.36 361.49 192.49
C 365.56 177.62 371.10 159.66 373.82 152.58
C 381.35 132.94 383.25 125.21 383.36 113.95
C 383.42 105.66 382.85 102.45 380.43 97.51
C 376.14 88.76 363.47 78.50 347.38 70.75
C 333.91 64.26 332.53 62.97 332.58 56.87
C 332.62 51.57 338.54 36.03 342.83 29.94
L 346.68 24.46
L 310.00 24.46
L 273.32 24.46
L 277.17 29.94
C 281.46 36.03 287.38 51.57 287.42 56.87
C 287.47 62.97 286.09 64.26 272.62 70.75
C 256.53 78.50 243.86 88.76 239.57 97.51
C 237.15 102.45 236.58 105.66 236.64 113.95
C 236.75 125.21 238.65 132.94 246.18 152.58
C 248.90 159.66 254.44 177.62 258.51 192.49
C 262.57 207.36 267.09 221.99 268.55 225.00
L 271.20 230.47
L 310.00 230.47
L 348.80 230.47
L 351.45 225.00
M 114.94 223.60
C 137.74 213.39 151.64 191.79 158.11 156.57
C 161.11 140.19 161.11 102.21 158.11 82.40
C 153.39 51.27 148.81 40.26 134.80 26.32
C 122.26 13.84 116.03 11.00 101.19 11.00
C 86.34 11.00 80.11 13.84 67.57 26.32
C 57.60 36.24 51.68 46.61 48.41 59.87
C 39.43 96.30 39.74 147.98 49.11 176.50
C 56.81 199.92 73.56 221.50 87.53 225.98
C 95.31 228.46 106.16 227.52 114.94 223.60
M 515.85 226.47
C 544.84 220.40 567.25 189.72 562.05 163.25
C 557.42 139.79 538.02 120.39 514.63 115.83
C 487.44 110.52 457.01 133.25 451.09 163.25
C 445.99 189.14 467.28 219.21 495.61 226.11
C 503.97 228.14 507.54 228.21 515.85 226.47
M 232.02 137.21
C 232.02 134.55 229.06 130.04 227.32 130.04
C 226.13 130.04 222.66 128.58 219.59 126.79
C 209.37 120.80 204.12 106.40 210.03 100.51
C 212.84 97.70 220.36 95.29 226.38 95.29
C 229.27 95.28 231.04 94.35 232.55 92.06
L 234.66 88.84
L 224.63 88.87
C 211.52 88.91 204.83 91.79 201.16 99.00
C 197.90 105.37 197.85 109.80 200.94 116.61
C 206.02 127.78 218.50 137.58 227.83 137.70
C 230.13 137.74 232.02 137.51 232.02 137.21
M 401.60 134.72
C 413.29 129.27 422.77 114.72 420.96 105.03
C 419.90 99.37 414.55 92.90 409.03 90.59
C 406.71 89.63 400.43 88.84 395.09 88.84
L 385.34 88.84
L 387.34 91.89
C 388.90 94.25 390.94 95.12 396.50 95.77
C 404.56 96.72 410.48 99.31 411.67 102.41
C 414.61 110.06 409.26 121.60 400.41 126.79
C 397.34 128.58 393.87 130.04 392.68 130.04
C 390.94 130.04 387.98 134.55 387.98 137.21
C 387.98 138.81 395.88 137.37 401.60 134.72
M 228.87 112.66
C 228.95 100.48 228.43 99.95 219.37 103.11
C 214.06 104.96 213.13 108.42 216.50 113.87
C 218.78 117.57 225.92 123.50 228.15 123.58
C 228.51 123.59 228.83 118.67 228.87 112.66
M 396.46 120.97
C 401.80 117.67 406.49 110.36 405.42 107.00
C 404.61 104.42 398.68 101.72 393.84 101.72
C 391.19 101.72 391.06 102.28 391.13 112.66
C 391.17 118.67 391.42 123.61 391.70 123.61
C 391.97 123.61 394.12 122.42 396.46 120.97
M 377.41 16.48
C 378.26 15.63 378.96 13.73 378.96 12.23
C 378.96 6.40 379.36 6.44 310.00 6.44
C 240.64 6.44 241.04 6.40 241.04 12.23
C 241.04 13.73 241.74 15.63 242.59 16.48
C 244.82 18.71 375.18 18.71 377.41 16.48"/>
<path fill="#c55436" stroke="none" d="
M 268.55 225.00
C 267.09 221.99 262.57 207.36 258.51 192.49
C 254.44 177.62 248.90 159.66 246.18 152.58
C 238.65 132.94 236.75 125.21 236.64 113.95
C 236.58 105.66 237.15 102.45 239.57 97.51
C 243.86 88.76 256.53 78.50 272.62 70.75
C 286.09 64.26 287.47 62.97 287.42 56.87
C 287.38 51.57 281.46 36.03 277.17 29.94
L 273.32 24.46
L 310.00 24.46
L 346.68 24.46
L 342.83 29.94
C 338.54 36.03 332.62 51.57 332.58 56.87
C 332.53 62.97 333.91 64.26 347.38 70.75
C 363.47 78.50 376.14 88.76 380.43 97.51
C 382.85 102.45 383.42 105.66 383.36 113.95
C 383.25 125.21 381.35 132.94 373.82 152.58
C 371.10 159.66 365.56 177.62 361.49 192.49
C 357.43 207.36 352.91 221.99 351.45 225.00
L 348.80 230.47
L 310.00 230.47
L 271.20 230.47
L 268.55 225.00"/>
<path fill="#c55436" stroke="none" d="
M 217.72 134.56
C 210.81 130.97 204.30 124.00 200.94 116.61
C 197.85 109.80 197.90 105.37 201.16 99.00
C 204.83 91.79 211.52 88.91 224.63 88.87
L 234.66 88.84
L 232.55 92.06
C 231.04 94.35 229.27 95.28 226.38 95.29
C 220.36 95.29 212.84 97.70 210.03 100.51
C 204.12 106.40 209.37 120.80 219.59 126.79
C 222.66 128.58 226.13 130.04 227.32 130.04
C 229.06 130.04 232.02 134.55 232.02 137.21
C 232.02 138.91 222.80 137.21 217.72 134.56"/>
<path fill="#c55436" stroke="none" d="
M 387.98 137.21
C 387.98 134.55 390.94 130.04 392.68 130.04
C 393.87 130.04 397.34 128.58 400.41 126.79
C 409.26 121.60 414.61 110.06 411.67 102.41
C 410.48 99.31 404.56 96.72 396.50 95.77
C 390.94 95.12 388.90 94.25 387.34 91.89
L 385.34 88.84
L 395.09 88.84
C 400.43 88.84 406.71 89.63 409.03 90.59
C 414.55 92.90 419.90 99.37 420.96 105.03
C 422.77 114.72 413.29 129.27 401.60 134.72
C 395.88 137.37 387.98 138.81 387.98 137.21"/>
<path fill="#c55436" stroke="none" d="
M 242.59 16.48
C 240.21 14.11 240.74 9.26 243.53 7.78
C 247.32 5.74 375.38 5.95 377.41 7.98
C 378.26 8.83 378.96 10.74 378.96 12.23
C 378.96 13.73 378.26 15.63 377.41 16.48
C 375.18 18.71 244.82 18.71 242.59 16.48"/>
<path fill="#c57a36" stroke="none" d="
M 87.53 225.98
C 73.56 221.50 56.81 199.92 49.11 176.50
C 39.74 147.98 39.43 96.30 48.41 59.87
C 51.68 46.61 57.60 36.24 67.57 26.32
C 79.99 13.96 86.28 11.10 101.19 11.02
C 110.92 10.98 113.83 11.48 119.23 14.11
C 128.58 18.64 143.04 33.57 148.00 43.78
C 156.17 60.64 160.38 86.99 160.31 121.03
C 160.22 159.64 155.10 180.57 140.28 202.82
C 128.28 220.83 104.32 231.36 87.53 225.98"/>
<path fill="#c57a36" stroke="none" d="
M 495.61 226.11
C 467.28 219.21 445.99 189.14 451.09 163.25
C 457.01 133.25 487.44 110.52 514.63 115.83
C 538.02 120.39 557.42 139.79 562.05 163.25
C 567.25 189.72 544.84 220.40 515.85 226.47
C 507.54 228.21 503.97 228.14 495.61 226.11"/>
<path fill="#f8b6a6" stroke="none" d="
M 213.29 592.21
C 212.82 591.46 217.67 581.77 224.06 570.64
C 249.92 525.61 257.36 509.79 264.92 483.81
C 275.92 446.00 279.68 413.46 280.62 347.96
L 281.33 298.71
L 310.00 298.71
L 338.67 298.71
L 339.38 347.96
C 340.32 413.46 344.08 446.00 355.08 483.81
C 362.64 509.79 370.08 525.61 395.94 570.64
C 402.33 581.77 407.18 591.46 406.71 592.21
C 405.54 594.10 214.46 594.10 213.29 592.21"/>
<path fill="#f8b6a6" stroke="none" d="
M 54.78 290.48
C 38.37 285.27 23.78 271.66 12.35 250.88
C 7.26 241.62 6.72 238.87 9.77 237.70
C 10.89 237.26 146.65 236.91 311.43 236.91
C 579.58 236.91 611.13 237.12 611.81 238.88
C 612.88 241.66 605.82 255.44 598.07 265.65
C 590.50 275.65 581.06 283.55 571.02 288.28
L 563.93 291.63
L 311.93 291.88
C 111.23 292.07 58.89 291.79 54.78 290.48"/>
</g>
</svg>
