<?xml version="1.0" encoding="UTF-8" standalone="no"?>
<!DOCTYPE svg PUBLIC "-//W3C//DTD SVG 1.1//EN"
"http://www.w3.org/Graphics/SVG/1.1/DTD/svg11.dtd">
<svg width="584px" height="600px"
xmlns="http://www.w3.org/2000/svg" version="1.1">
<g transform="translate(0000, 0000) scale(1.0000, 1.0000)">
<path fill="#000000" stroke="none" d="
M 2.58 597.42
C 0.50 595.35 0.00 593.14 0.00 586.08
C 0.00 574.26 1.43 572.51 11.77 571.67
L 19.89 571.03
L 26.74 553.00
C 49.79 492.32 56.96 472.80 61.21 459.01
C 66.96 440.43 72.59 429.28 77.51 426.75
C 80.45 425.23 90.10 424.89 130.65 424.89
C 175.95 424.89 180.43 425.09 182.91 427.15
C 184.55 428.51 192.20 445.70 202.27 470.60
C 211.44 493.26 221.65 518.18 224.96 525.97
C 228.28 533.76 233.73 547.08 237.08 555.58
L 243.17 571.03
L 275.00 571.38
L 306.83 571.71
L 306.83 355.49
L 306.83 139.26
L 302.64 137.96
C 287.64 133.31 249.03 122.92 236.87 120.26
C 216.75 115.84 191.28 114.95 165.02 117.77
C 128.14 121.71 129.58 121.69 126.51 118.62
C 123.81 115.93 123.76 115.09 123.76 68.88
C 123.76 23.60 123.85 21.80 126.34 19.31
C 128.80 16.85 130.63 16.74 169.21 16.74
C 191.37 16.74 215.72 16.15 223.31 15.42
C 237.94 14.05 242.43 13.31 282.33 5.82
C 296.15 3.22 313.05 0.77 319.86 0.37
C 331.32 -0.30 332.45 -0.15 335.01 2.39
L 337.77 5.15
L 337.77 288.41
L 337.77 571.67
L 356.15 571.67
L 374.53 571.67
L 385.63 562.98
C 391.74 558.21 400.43 551.69 404.96 548.50
C 416.44 540.42 444.12 512.60 453.25 499.96
C 457.45 494.15 467.25 479.67 475.04 467.77
C 496.81 434.48 514.47 417.90 534.37 412.09
C 538.80 410.79 540.61 410.96 547.26 413.25
C 563.35 418.83 574.16 429.55 580.40 446.14
C 583.28 453.76 583.32 454.82 583.72 524.30
C 584.10 593.76 584.06 594.79 581.47 597.37
L 578.84 600.00
L 292.00 600.00
C 6.87 600.00 5.14 599.99 2.58 597.42
M 576.01 592.02
C 576.86 591.17 577.55 587.69 577.55 584.29
L 577.55 578.11
L 293.55 578.11
C 74.37 578.11 9.19 578.46 7.99 579.66
C 5.99 581.65 5.99 590.02 7.99 592.02
C 10.25 594.27 573.75 594.27 576.01 592.02
M 88.62 548.50
C 106.05 506.83 116.31 484.60 121.57 477.17
L 124.21 473.42
L 108.20 458.15
C 87.39 438.32 81.63 433.49 79.96 434.54
C 77.39 436.12 72.46 447.44 67.63 462.89
C 64.97 471.37 55.05 499.13 45.59 524.58
C 36.11 550.00 28.36 571.03 28.36 571.27
C 28.36 571.52 39.80 571.57 53.77 571.38
L 79.19 571.03
L 88.62 548.50
M 151.34 526.34
C 125.62 474.98 128.84 478.12 119.96 495.71
C 117.28 501.01 111.57 514.06 107.26 524.68
C 102.97 535.30 97.89 547.47 95.99 551.72
C 94.10 555.97 91.45 562.20 90.13 565.56
L 87.70 571.67
L 130.88 571.67
L 174.05 571.67
L 151.34 526.34
M 233.91 568.78
C 233.43 567.18 232.59 565.30 232.07 564.59
C 231.54 563.88 230.36 560.99 229.46 558.15
C 228.55 555.32 219.30 532.15 208.89 506.65
C 198.48 481.16 187.47 454.07 184.44 446.46
C 181.40 438.85 178.46 432.62 177.92 432.62
C 177.38 432.62 176.14 433.58 175.16 434.76
C 174.19 435.93 164.27 444.94 153.10 454.76
L 132.82 472.64
L 157.62 522.12
L 182.42 571.58
L 208.62 571.62
L 234.80 571.67
L 233.91 568.78
M 331.32 290.50
C 331.32 49.29 331.06 9.12 329.49 7.82
C 328.43 6.94 324.75 6.46 320.79 6.68
L 313.92 7.08
L 313.59 289.38
L 313.27 571.67
L 322.30 571.67
L 331.32 571.67
L 331.32 290.50
M 577.55 517.09
C 577.55 465.39 577.41 462.04 574.86 453.68
C 569.68 436.70 558.80 424.66 544.58 420.18
L 537.49 417.95
L 529.36 421.96
C 511.42 430.79 500.36 443.09 472.87 484.76
C 450.08 519.31 432.74 538.24 407.05 556.60
C 401.31 560.70 394.54 565.75 392.00 567.82
L 387.40 571.58
L 482.48 571.64
L 577.55 571.67
L 577.55 517.09
M 149.18 447.57
C 157.86 439.98 165.29 433.22 165.70 432.55
C 166.18 431.79 152.18 431.33 128.70 431.33
L 90.95 431.33
L 94.14 434.39
C 95.90 436.08 104.22 443.94 112.65 451.84
C 127.91 466.21 127.96 466.24 130.70 463.80
C 132.19 462.45 140.52 455.15 149.18 447.57
M 306.83 70.17
C 306.83 11.42 306.74 9.01 304.43 9.01
C 303.11 9.01 288.47 11.58 271.88 14.72
C 234.80 21.72 217.37 23.18 170.17 23.18
C 143.22 23.18 132.89 23.59 131.75 24.72
C 130.61 25.87 130.21 37.48 130.21 68.99
C 130.21 104.78 130.52 111.95 132.08 113.25
C 133.49 114.42 136.11 114.49 142.71 113.48
C 175.06 108.61 213.86 108.48 236.69 113.19
C 249.56 115.84 301.80 129.73 302.84 130.79
C 303.14 131.09 304.16 131.33 305.11 131.33
C 306.52 131.33 306.83 120.28 306.83 70.17"/>
<path fill="#c57a36" stroke="none" d="
M 313.27 289.84
C 313.27 34.03 313.46 7.93 315.31 7.22
C 318.83 5.87 328.15 6.36 329.77 7.98
C 330.97 9.18 331.32 73.70 331.32 290.60
L 331.32 571.67
L 322.30 571.67
L 313.27 571.67
L 313.27 289.84"/>
<path fill="#c57a36" stroke="none" d="
M 392.00 567.82
C 394.54 565.75 401.31 560.70 407.05 556.60
C 432.74 538.24 450.08 519.31 472.87 484.76
C 500.36 443.09 511.42 430.79 529.36 421.96
L 537.49 417.95
L 544.58 420.18
C 558.80 424.66 569.68 436.70 574.86 453.68
C 577.41 462.04 577.55 465.39 577.55 517.09
L 577.55 571.67
L 482.48 571.64
L 387.40 571.58
L 392.00 567.82"/>
<path fill="#ffbf53" stroke="none" d="
M 302.84 130.79
C 301.80 129.73 249.56 115.84 236.69 113.19
C 213.86 108.48 175.06 108.61 142.71 113.48
C 136.11 114.49 133.49 114.42 132.08 113.25
C 130.52 111.95 130.21 104.78 130.21 68.99
C 130.21 37.48 130.61 25.87 131.75 24.72
C 132.89 23.59 143.22 23.18 170.17 23.18
C 216.38 23.18 234.88 21.72 268.15 15.45
C 282.69 12.71 297.34 10.08 300.70 9.59
L 306.83 8.72
L 306.83 70.03
C 306.83 120.26 306.52 131.33 305.11 131.33
C 304.16 131.33 303.14 131.09 302.84 130.79"/>
<path fill="#c55436" stroke="none" d="
M 28.36 571.27
C 28.36 571.03 36.11 550.00 45.59 524.58
C 55.05 499.13 64.97 471.37 67.63 462.89
C 72.46 447.44 77.39 436.12 79.96 434.54
C 81.63 433.49 87.39 438.32 108.20 458.15
L 124.21 473.42
L 121.57 477.17
C 116.31 484.60 106.05 506.83 88.62 548.50
L 79.19 571.03
L 53.77 571.38
C 39.80 571.57 28.36 571.52 28.36 571.27"/>
<path fill="#c55436" stroke="none" d="
M 157.62 522.12
L 132.82 472.64
L 153.10 454.76
C 164.27 444.94 174.19 435.93 175.16 434.76
C 176.14 433.58 177.38 432.62 177.92 432.62
C 178.46 432.62 181.40 438.85 184.44 446.46
C 187.47 454.07 198.48 481.16 208.89 506.65
C 219.30 532.15 228.55 555.32 229.46 558.15
C 230.36 560.99 231.54 563.88 232.07 564.59
C 232.59 565.30 233.43 567.18 233.91 568.78
L 234.80 571.67
L 208.62 571.62
L 182.42 571.58
L 157.62 522.12"/>
<path fill="#c55436" stroke="none" d="
M 110.73 449.97
C 101.24 441.06 93.27 433.21 93.04 432.54
C 92.77 431.81 106.94 431.33 129.54 431.33
C 152.48 431.33 166.18 431.79 165.70 432.55
C 165.29 433.22 157.86 439.98 149.18 447.57
C 140.52 455.15 132.21 462.45 130.71 463.78
C 128.00 466.18 127.91 466.12 110.73 449.97"/>
<path fill="#cf9e66" stroke="none" d="
M 90.13 565.56
C 91.45 562.20 94.10 555.97 95.99 551.72
C 97.89 547.47 102.95 535.30 107.25 524.68
C 116.35 502.15 125.97 482.83 128.09 482.83
C 128.91 482.83 139.58 502.82 151.80 527.25
L 174.04 571.67
L 130.86 571.67
L 87.70 571.67
L 90.13 565.56"/>
<path fill="#358737" stroke="none" d="
M 7.99 592.02
C 5.43 589.45 6.06 580.98 8.93 579.45
C 10.64 578.54 101.83 578.11 294.49 578.11
L 577.55 578.11
L 577.55 584.29
C 577.55 587.69 576.86 591.17 576.01 592.02
C 573.75 594.27 10.25 594.27 7.99 592.02"/>
</g>
</svg>
