<?xml version="1.0" encoding="UTF-8" standalone="no"?>
<!DOCTYPE svg PUBLIC "-//W3C//DTD SVG 1.1//EN"
"http://www.w3.org/Graphics/SVG/1.1/DTD/svg11.dtd">
<svg width="607px" height="600px"
xmlns="http://www.w3.org/2000/svg" version="1.1">
<g transform="translate(0000, 0000) scale(1.0000, 1.0000)">
<path fill="#000000" stroke="none" d="
M 80.62 597.82
C 49.43 592.24 21.20 577.52 7.86 559.86
C 1.84 551.88 -0.22 543.16 2.67 537.78
C 4.55 534.26 11.75 530.93 17.46 530.93
C 21.96 530.93 21.60 531.93 25.00 510.61
C 31.33 471.02 40.86 413.36 41.53 410.72
C 42.27 407.74 42.03 407.67 31.31 407.67
C 17.07 407.67 14.90 405.89 14.90 394.13
C 14.90 380.07 13.12 380.59 61.65 380.59
C 84.38 380.59 102.97 380.09 102.97 379.48
C 102.97 376.39 97.66 361.37 88.79 339.37
C 78.79 314.59 59.40 255.78 33.17 170.65
C 25.26 144.96 15.46 113.88 11.42 101.58
C -0.65 64.89 -2.01 53.73 3.59 37.22
C 6.86 27.62 19.70 14.98 30.20 11.05
C 40.01 7.40 43.36 7.40 54.28 11.07
C 61.28 13.42 64.62 15.63 71.19 22.24
C 77.88 28.97 79.83 31.99 81.85 38.78
C 84.19 46.60 84.21 47.46 82.08 53.84
C 80.85 57.56 77.11 64.12 73.79 68.40
C 70.47 72.68 67.75 76.70 67.75 77.35
C 67.75 81.06 73.87 93.36 82.20 106.35
C 87.45 114.53 102.16 138.72 114.90 160.10
C 127.63 181.49 141.44 203.81 145.57 209.69
C 159.95 230.21 161.82 239.09 153.93 249.41
C 151.41 252.70 145.91 258.07 141.71 261.30
C 123.72 275.19 103.76 299.88 99.38 313.68
C 97.35 320.06 97.36 321.35 99.44 330.61
C 100.68 336.12 105.21 349.46 109.49 360.27
L 117.29 379.91
L 159.69 380.59
C 208.52 381.37 205.95 380.60 205.95 394.39
C 205.95 405.95 203.75 407.67 189.04 407.67
L 177.56 407.67
L 178.21 411.40
C 178.58 413.44 180.07 427.00 181.53 441.53
C 182.99 456.07 185.73 482.48 187.61 500.25
C 189.50 518.02 191.04 533.44 191.04 534.51
C 191.04 535.60 193.22 537.39 195.89 538.51
C 199.93 540.19 202.90 540.30 213.62 539.09
C 220.69 538.31 229.33 537.02 232.81 536.25
C 240.62 534.49 300.64 526.12 324.23 523.49
C 351.82 520.42 377.38 519.56 392.30 521.20
C 399.73 522.03 413.26 523.06 422.39 523.50
L 438.99 524.32
L 438.99 327.28
L 438.99 130.24
L 434.59 128.79
C 428.57 126.81 386.54 118.35 365.83 114.95
C 352.89 112.81 340.14 111.98 311.79 111.44
C 277.89 110.79 274.49 110.51 272.16 108.18
C 269.79 105.81 269.63 102.91 269.63 63.91
C 269.63 30.04 269.99 21.70 271.55 19.56
C 273.34 17.11 275.90 16.88 309.83 16.13
C 346.95 15.32 365.31 13.30 420.40 3.98
C 429.18 2.49 442.08 0.91 449.06 0.45
C 461.44 -0.37 461.85 -0.30 465.28 3.13
L 468.80 6.65
L 468.80 266.59
L 468.80 526.51
L 473.88 527.31
C 476.67 527.74 486.06 528.51 494.73 529.03
L 510.49 529.95
L 512.73 526.54
C 514.46 523.90 515.25 517.52 516.21 498.24
C 516.88 484.56 518.43 463.30 519.64 451.02
C 520.84 438.73 522.35 415.56 522.98 399.55
C 524.21 368.53 525.39 361.81 530.50 356.71
C 533.66 353.55 534.15 353.50 560.04 353.50
C 593.57 353.50 592.39 352.82 593.68 372.68
C 594.18 380.38 595.55 406.79 596.72 431.38
C 599.17 483.33 602.24 524.75 605.04 543.44
C 607.38 559.21 607.56 571.56 605.50 576.08
C 604.67 577.90 602.38 580.12 600.42 581.02
C 597.66 582.27 550.50 582.57 396.31 582.33
C 252.95 582.08 194.02 582.42 189.61 583.49
C 186.21 584.32 176.52 587.47 168.09 590.49
C 159.65 593.51 147.56 596.88 141.22 598.00
C 126.77 600.51 95.20 600.42 80.62 597.82
M 140.91 589.94
C 146.49 588.92 157.12 585.89 164.49 583.19
C 192.55 572.95 171.90 573.77 393.80 574.17
L 593.18 574.54
L 596.03 571.69
C 599.45 568.27 599.63 562.98 596.89 543.79
C 594.03 523.69 591.04 483.17 588.59 431.38
C 585.75 371.51 585.15 364.55 582.61 362.95
C 580.36 361.53 540.79 361.12 537.24 362.49
C 533.17 364.04 532.17 370.06 531.06 399.55
C 530.45 415.56 528.97 438.73 527.76 451.02
C 526.56 463.30 525.03 484.48 524.34 498.07
C 523.66 511.65 522.45 525.20 521.65 528.16
C 519.78 535.11 515.95 537.68 507.45 537.72
C 500.91 537.77 428.76 532.46 392.37 529.26
C 363.59 526.74 307.04 532.13 232.43 544.50
C 219.05 546.72 205.82 548.53 203.03 548.53
C 199.69 548.53 194.38 546.62 187.38 542.90
C 161.83 529.29 164.84 530.23 147.70 530.34
C 139.12 530.40 121.54 530.94 108.64 531.56
C 89.80 532.46 84.60 533.13 82.34 534.98
C 78.68 537.93 79.99 539.97 87.91 543.55
C 93.61 546.14 96.31 546.35 118.04 546.07
C 131.62 545.89 143.44 546.34 145.49 547.11
C 155.31 550.85 152.54 562.74 140.56 568.17
C 129.23 573.32 117.06 574.86 102.51 573.01
C 74.40 569.42 49.32 560.40 38.63 550.01
C 27.49 539.17 18.58 536.33 12.14 541.53
C 7.87 544.98 9.35 549.75 17.33 558.30
C 32.08 574.09 54.03 584.83 81.90 589.90
C 94.69 592.21 128.22 592.24 140.91 589.94
M 132.20 562.67
C 135.98 561.63 140.18 559.57 141.53 558.07
C 143.85 555.51 143.86 555.32 141.63 554.45
C 140.33 553.95 131.11 553.91 121.17 554.36
C 93.27 555.63 78.92 552.05 73.82 542.56
C 71.66 538.55 71.58 537.47 73.17 533.62
C 75.63 527.70 81.82 524.17 89.76 524.15
L 96.20 524.15
L 96.20 465.91
L 96.20 407.67
L 81.97 407.67
C 74.14 407.67 67.75 408.23 67.75 408.92
C 67.75 409.61 66.58 417.39 65.14 426.19
C 63.71 435.01 60.32 456.23 57.61 473.36
C 54.89 490.50 51.20 513.66 49.41 524.83
L 46.13 545.15
L 49.16 548.03
C 50.81 549.63 57.35 552.81 63.68 555.10
C 92.27 565.49 113.43 567.82 132.20 562.67
M 37.17 535.15
C 37.57 534.49 39.44 523.98 41.31 511.79
C 43.18 499.58 45.93 482.00 47.42 472.69
C 48.93 463.37 51.08 449.66 52.22 442.21
C 53.37 434.78 55.19 424.42 56.28 419.19
C 58.79 407.20 58.83 407.67 55.14 407.67
C 52.31 407.67 51.87 408.61 50.40 417.49
C 49.51 422.90 45.43 448.04 41.34 473.36
C 37.25 498.69 33.33 522.46 32.65 526.19
C 31.83 530.65 31.88 533.53 32.80 534.65
C 34.44 536.64 36.12 536.83 37.17 535.15
M 174.86 473.15
C 167.35 401.19 168.36 407.67 164.50 407.67
C 161.90 407.67 161.23 408.38 161.23 411.17
C 161.23 413.09 164.34 439.76 168.12 470.42
C 173.66 515.35 175.43 526.52 177.26 527.95
C 179.15 529.41 179.59 529.37 179.95 527.73
C 180.16 526.65 177.89 502.08 174.86 473.15
M 460.67 268.44
C 460.67 70.31 460.29 11.00 459.04 9.75
C 456.94 7.65 450.85 7.65 448.75 9.75
C 447.50 11.00 447.12 70.31 447.12 268.44
L 447.12 525.51
L 453.90 525.51
L 460.67 525.51
L 460.67 268.44
M 109.75 465.91
C 109.75 408.58 109.71 407.67 107.04 407.67
C 104.37 407.67 104.33 408.58 104.33 465.91
C 104.33 523.25 104.37 524.15 107.04 524.15
C 109.71 524.15 109.75 523.25 109.75 465.91
M 145.31 522.16
C 162.26 522.12 163.93 521.91 163.94 519.71
C 163.94 517.22 152.35 421.79 150.95 412.75
L 150.15 407.67
L 134.01 407.67
L 117.88 407.67
L 117.88 465.89
L 117.88 524.09
L 122.28 523.15
C 124.71 522.62 135.07 522.19 145.31 522.16
M 196.99 396.50
C 198.07 394.77 198.07 393.49 196.99 391.76
C 195.59 389.55 189.78 389.36 111.10 389.04
C 49.90 388.79 26.22 389.12 24.88 390.22
C 22.60 392.11 22.49 395.76 24.67 397.94
C 25.92 399.18 46.23 399.48 110.90 399.22
C 189.77 398.90 195.59 398.71 196.99 396.50
M 91.20 310.52
C 93.33 300.07 116.01 272.29 137.35 254.00
C 142.47 249.62 147.51 244.02 148.54 241.56
C 150.19 237.59 150.11 236.32 147.89 230.47
C 146.51 226.82 141.70 218.42 137.18 211.80
C 132.69 205.19 118.49 182.14 105.64 160.59
C 92.78 139.04 79.06 116.42 75.13 110.33
C 57.57 83.12 55.81 73.80 66.44 64.33
C 70.39 60.83 74.45 51.90 74.48 46.73
C 74.49 41.58 69.10 30.04 64.86 26.14
C 60.93 22.52 51.27 18.15 44.45 16.90
C 34.02 14.98 17.49 25.92 12.18 38.25
C 6.69 50.95 8.94 72.39 18.24 96.28
C 19.28 98.95 27.44 124.86 36.38 153.85
C 52.67 206.65 86.46 312.64 87.64 314.59
C 88.71 316.36 90.40 314.44 91.20 310.52
M 438.99 66.53
C 438.99 5.47 439.44 8.02 429.14 10.62
C 425.96 11.42 406.30 14.63 385.44 17.76
C 350.91 22.93 344.58 23.49 314.34 24.04
C 294.64 24.39 280.45 25.21 279.45 26.03
C 277.01 28.04 277.01 99.29 279.45 101.27
C 280.44 102.05 295.03 102.91 314.34 103.29
C 351.36 104.02 363.22 105.45 406.47 114.47
C 421.74 117.66 435.32 120.33 436.62 120.41
C 438.84 120.53 438.99 117.12 438.99 66.53"/>
<path fill="#c57a36" stroke="none" d="
M 32.80 534.65
C 31.88 533.53 31.83 530.65 32.65 526.19
C 33.33 522.46 37.25 498.69 41.34 473.36
C 45.43 448.04 49.51 422.90 50.40 417.49
C 51.87 408.61 52.31 407.67 55.14 407.67
C 58.83 407.67 58.79 407.20 56.28 419.19
C 55.19 424.42 53.37 434.78 52.22 442.21
C 51.08 449.66 48.93 463.37 47.42 472.69
C 45.93 482.00 43.18 499.58 41.31 511.79
C 39.44 523.98 37.57 534.49 37.17 535.15
C 36.12 536.83 34.44 536.64 32.80 534.65"/>
<path fill="#c57a36" stroke="none" d="
M 177.26 527.95
C 175.43 526.52 173.66 515.35 168.12 470.42
C 164.34 439.76 161.23 413.09 161.23 411.17
C 161.23 408.38 161.90 407.67 164.50 407.67
C 167.37 407.67 167.85 408.43 168.56 414.11
C 171.14 434.80 180.28 526.08 179.95 527.73
C 179.59 529.37 179.15 529.41 177.26 527.95"/>
<path fill="#c57a36" stroke="none" d="
M 447.46 267.86
L 447.80 10.23
L 451.59 8.88
C 454.18 7.98 456.13 8.02 457.69 9.01
C 459.84 10.36 460.02 27.45 460.33 267.98
L 460.68 525.51
L 453.90 525.51
L 447.11 525.51
L 447.46 267.86"/>
<path fill="#c57a36" stroke="none" d="
M 104.33 465.91
C 104.33 408.58 104.37 407.67 107.04 407.67
C 109.71 407.67 109.75 408.58 109.75 465.91
C 109.75 523.25 109.71 524.15 107.04 524.15
C 104.37 524.15 104.33 523.25 104.33 465.91"/>
<path fill="#c57a36" stroke="none" d="
M 24.67 397.94
C 22.49 395.76 22.60 392.11 24.88 390.22
C 26.22 389.12 49.90 388.79 111.10 389.04
C 189.78 389.36 195.59 389.55 196.99 391.76
C 198.07 393.49 198.07 394.77 196.99 396.50
C 195.59 398.71 189.77 398.90 110.90 399.22
C 46.23 399.48 25.92 399.18 24.67 397.94"/>
<path fill="#ffbf53" stroke="none" d="
M 406.47 114.47
C 363.22 105.45 351.36 104.02 314.34 103.29
C 295.03 102.91 280.44 102.05 279.45 101.27
C 277.01 99.29 277.01 28.04 279.45 26.03
C 280.45 25.21 294.64 24.39 314.34 24.04
C 344.57 23.49 350.91 22.93 385.38 17.76
C 406.19 14.64 425.92 11.49 429.22 10.74
C 439.47 8.45 438.99 5.70 438.99 66.53
C 438.99 117.12 438.84 120.53 436.62 120.41
C 435.32 120.33 421.74 117.66 406.47 114.47"/>
<path fill="#ef907a" stroke="none" d="
M 87.64 314.59
C 86.46 312.64 52.67 206.65 36.38 153.85
C 27.44 124.86 19.28 98.95 18.24 96.28
C 8.94 72.39 6.69 50.95 12.18 38.25
C 17.23 26.53 30.49 17.15 42.00 17.13
C 48.72 17.13 59.81 21.49 64.86 26.14
C 69.10 30.04 74.49 41.58 74.48 46.73
C 74.45 51.90 70.39 60.83 66.44 64.33
C 55.81 73.80 57.57 83.12 75.13 110.33
C 79.06 116.42 92.78 139.04 105.64 160.59
C 118.49 182.14 132.69 205.19 137.18 211.80
C 141.70 218.42 146.51 226.82 147.89 230.47
C 150.11 236.32 150.19 237.59 148.54 241.56
C 147.51 244.02 142.47 249.62 137.35 254.00
C 116.01 272.29 93.33 300.07 91.20 310.52
C 90.40 314.44 88.71 316.36 87.64 314.59"/>
<path fill="#ae3c2a" stroke="none" d="
M 81.90 589.90
C 54.03 584.83 32.08 574.09 17.33 558.30
C 9.35 549.75 7.87 544.98 12.14 541.53
C 18.58 536.33 27.49 539.17 38.63 550.01
C 49.32 560.40 74.40 569.42 102.51 573.01
C 117.06 574.86 129.23 573.32 140.56 568.17
C 152.54 562.74 155.31 550.85 145.49 547.11
C 143.44 546.34 131.62 545.89 118.04 546.07
C 96.31 546.35 93.61 546.14 87.91 543.55
C 79.99 539.97 78.68 537.93 82.34 534.98
C 84.60 533.13 89.80 532.46 108.64 531.56
C 121.54 530.94 139.12 530.40 147.70 530.34
C 164.84 530.23 161.83 529.29 187.38 542.90
C 194.38 546.62 199.69 548.53 203.03 548.53
C 205.82 548.53 219.05 546.72 232.43 544.50
C 307.04 532.13 363.59 526.74 392.37 529.26
C 428.76 532.46 500.91 537.77 507.45 537.72
C 515.95 537.68 519.78 535.11 521.65 528.16
C 522.45 525.20 523.66 511.65 524.34 498.07
C 525.03 484.48 526.56 463.30 527.76 451.02
C 528.97 438.73 530.45 415.56 531.06 399.55
C 531.67 383.54 532.79 368.83 533.56 366.89
C 534.35 364.94 536.40 362.97 538.13 362.51
C 543.16 361.16 580.38 361.53 582.61 362.95
C 585.15 364.55 585.75 371.51 588.59 431.38
C 591.04 483.17 594.03 523.69 596.89 543.79
C 599.63 562.98 599.45 568.27 596.03 571.69
L 593.18 574.54
L 393.80 574.17
C 171.90 573.77 192.55 572.95 164.49 583.19
C 157.12 585.89 146.49 588.92 140.91 589.94
C 128.22 592.24 94.69 592.21 81.90 589.90"/>
</g>
</svg>
