<?xml version="1.0" encoding="UTF-8" standalone="no"?>
<!DOCTYPE svg PUBLIC "-//W3C//DTD SVG 1.1//EN"
"http://www.w3.org/Graphics/SVG/1.1/DTD/svg11.dtd">
<svg width="195px" height="600px"
xmlns="http://www.w3.org/2000/svg" version="1.1">
<g transform="translate(0000, 0000) scale(1.0000, 1.0000)">
<path fill="#000000" stroke="none" d="
M 1.41 598.21
C 0.23 596.79 1.18 591.17 5.70 572.77
C 18.84 519.23 35.40 427.33 39.98 382.40
C 43.83 344.72 45.62 300.98 44.08 283.17
C 41.70 256.09 36.84 248.21 15.60 236.90
L 7.10 232.36
L 6.72 225.05
C 6.41 219.05 6.82 217.24 8.98 215.09
C 11.36 212.70 13.21 212.45 27.76 212.45
C 46.35 212.45 45.95 212.82 41.21 200.20
C 37.59 190.55 27.87 180.79 16.14 175.03
L 7.10 170.60
L 6.72 163.91
C 6.41 158.54 6.86 156.68 8.98 154.57
C 11.36 152.19 13.21 151.93 27.93 151.93
L 44.24 151.93
L 43.36 146.46
C 40.87 130.84 28.04 116.16 12.58 111.27
C 8.30 109.92 6.55 106.87 6.50 100.75
C 6.43 91.27 8.73 90.13 27.76 90.13
C 46.35 90.13 45.95 90.50 41.22 77.92
C 37.45 67.88 28.68 58.91 16.79 52.93
L 7.10 48.06
L 6.72 40.18
C 6.41 33.64 6.79 31.85 8.98 29.68
C 11.45 27.21 13.16 27.04 36.16 27.04
L 60.70 27.04
L 60.70 16.34
C 60.70 -0.30 58.44 0.71 96.69 0.26
C 136.06 -0.21 134.30 -0.95 134.30 16.09
L 134.30 27.04
L 158.84 27.04
C 181.84 27.04 183.55 27.21 186.02 29.68
C 188.21 31.85 188.59 33.64 188.28 40.18
L 187.90 48.06
L 178.21 52.93
C 166.32 58.91 157.55 67.88 153.78 77.92
C 149.05 90.50 148.65 90.13 167.24 90.13
C 186.31 90.13 188.54 91.26 188.54 100.88
C 188.54 107.37 187.32 108.71 176.56 114.05
C 162.84 120.84 153.84 132.54 151.64 146.46
L 150.76 151.93
L 167.07 151.93
C 181.79 151.93 183.64 152.19 186.02 154.57
C 188.14 156.68 188.59 158.54 188.28 163.91
L 187.90 170.60
L 178.86 175.03
C 167.13 180.79 157.41 190.55 153.79 200.20
C 149.05 212.82 148.65 212.45 167.24 212.45
C 181.79 212.45 183.64 212.70 186.02 215.09
C 188.18 217.24 188.59 219.05 188.28 225.05
L 187.90 232.36
L 179.40 236.90
C 164.10 245.05 158.16 251.14 154.11 262.83
C 148.94 277.82 149.31 326.42 155.02 382.40
C 160.36 434.76 181.93 549.62 193.90 589.43
C 197.13 600.15 205.05 599.32 97.85 599.69
C 17.54 599.96 2.69 599.74 1.41 598.21
M 186.41 592.58
C 186.75 592.04 185.34 584.67 183.29 576.17
C 166.83 508.00 150.72 414.03 146.42 361.16
C 143.63 326.83 143.29 276.44 145.79 266.52
C 149.81 250.52 159.07 239.03 173.76 231.82
C 180.30 228.62 182.09 227.11 182.09 224.86
C 182.09 223.27 181.39 221.28 180.54 220.43
C 178.30 218.20 16.70 218.20 14.46 220.43
C 13.61 221.28 12.91 223.27 12.91 224.86
C 12.91 227.11 14.70 228.62 21.24 231.82
C 35.93 239.03 45.19 250.52 49.21 266.52
C 51.71 276.44 51.37 326.83 48.58 361.16
C 44.28 414.03 28.17 508.00 11.71 576.17
C 9.66 584.67 8.25 592.04 8.59 592.58
C 8.92 593.12 48.93 593.56 97.50 593.56
C 146.07 593.56 186.08 593.12 186.41 592.58
M 145.24 207.72
C 148.29 191.51 158.84 177.42 173.70 169.76
C 181.98 165.50 183.67 163.04 180.54 159.91
C 178.30 157.69 16.70 157.69 14.46 159.91
C 11.33 163.04 13.02 165.50 21.30 169.76
C 36.16 177.42 46.71 191.51 49.76 207.72
L 50.65 212.45
L 97.50 212.45
L 144.35 212.45
L 145.24 207.72
M 145.77 143.96
C 149.16 127.64 158.29 115.92 173.87 107.88
C 181.98 103.70 183.66 101.23 180.54 98.11
C 178.30 95.88 16.70 95.88 14.46 98.11
C 11.34 101.23 13.02 103.70 21.13 107.88
C 36.71 115.92 45.84 127.64 49.23 143.96
L 50.88 151.93
L 97.50 151.93
L 144.12 151.93
L 145.77 143.96
M 145.69 83.11
C 148.83 67.51 159.96 53.38 174.40 46.69
C 180.81 43.71 182.06 42.59 182.07 39.85
C 182.09 38.05 181.39 35.87 180.54 35.02
C 178.30 32.79 16.70 32.79 14.46 35.02
C 13.61 35.87 12.91 38.05 12.93 39.85
C 12.94 42.59 14.19 43.71 20.60 46.69
C 35.04 53.38 46.17 67.51 49.31 83.11
L 50.73 90.13
L 97.50 90.13
L 144.27 90.13
L 145.69 83.11
M 127.85 18.28
C 127.85 13.18 127.20 8.88 126.30 7.98
C 124.10 5.79 70.90 5.79 68.70 7.98
C 67.80 8.88 67.15 13.18 67.15 18.28
L 67.15 27.04
L 97.50 27.04
L 127.85 27.04
L 127.85 18.28"/>
<path fill="#eeb0a1" stroke="none" d="
M 8.59 592.58
C 8.25 592.04 9.66 584.67 11.71 576.17
C 28.17 508.00 44.28 414.03 48.58 361.16
C 51.37 326.83 51.71 276.44 49.21 266.52
C 45.19 250.52 35.93 239.03 21.24 231.82
C 14.70 228.62 12.91 227.11 12.91 224.86
C 12.91 223.27 13.61 221.28 14.46 220.43
C 16.70 218.20 178.30 218.20 180.54 220.43
C 181.39 221.28 182.09 223.27 182.09 224.86
C 182.09 227.11 180.30 228.62 173.76 231.82
C 159.07 239.03 149.81 250.52 145.79 266.52
C 143.29 276.44 143.63 326.83 146.42 361.16
C 150.72 414.03 166.83 508.00 183.29 576.17
C 185.34 584.67 186.75 592.04 186.41 592.58
C 186.08 593.12 146.07 593.56 97.50 593.56
C 48.93 593.56 8.92 593.12 8.59 592.58"/>
<path fill="#eeb0a1" stroke="none" d="
M 49.76 207.72
C 46.71 191.51 36.16 177.42 21.30 169.76
C 13.02 165.50 11.33 163.04 14.46 159.91
C 16.70 157.69 178.30 157.69 180.54 159.91
C 183.67 163.04 181.98 165.50 173.70 169.76
C 158.84 177.42 148.29 191.51 145.24 207.72
L 144.35 212.45
L 97.50 212.45
L 50.65 212.45
L 49.76 207.72"/>
<path fill="#eeb0a1" stroke="none" d="
M 49.23 143.96
C 45.84 127.64 36.71 115.92 21.13 107.88
C 13.02 103.70 11.34 101.23 14.46 98.11
C 16.70 95.88 178.30 95.88 180.54 98.11
C 183.66 101.23 181.98 103.70 173.87 107.88
C 158.29 115.92 149.16 127.64 145.77 143.96
L 144.12 151.93
L 97.50 151.93
L 50.88 151.93
L 49.23 143.96"/>
<path fill="#eeb0a1" stroke="none" d="
M 49.31 83.11
C 46.17 67.51 35.04 53.38 20.60 46.69
C 14.19 43.71 12.94 42.59 12.93 39.85
C 12.91 38.05 13.61 35.87 14.46 35.02
C 16.70 32.79 178.30 32.79 180.54 35.02
C 181.39 35.87 182.09 38.05 182.07 39.85
C 182.06 42.59 180.81 43.71 174.40 46.69
C 159.96 53.38 148.83 67.51 145.69 83.11
L 144.27 90.13
L 97.50 90.13
L 50.73 90.13
L 49.31 83.11"/>
<path fill="#eeb0a1" stroke="none" d="
M 67.15 18.08
C 67.15 10.52 67.55 8.90 69.64 7.78
C 73.34 5.81 124.30 5.99 126.30 7.98
C 127.20 8.88 127.85 13.18 127.85 18.28
L 127.85 27.04
L 97.50 27.04
L 67.15 27.04
L 67.15 18.08"/>
</g>
</svg>
