<?xml version="1.0" encoding="UTF-8" standalone="no"?>
<!DOCTYPE svg PUBLIC "-//W3C//DTD SVG 1.1//EN"
"http://www.w3.org/Graphics/SVG/1.1/DTD/svg11.dtd">
<svg width="600px" height="353px"
xmlns="http://www.w3.org/2000/svg" version="1.1">
<g transform="translate(0000, 0000) scale(1.0000, 1.0000)">
<path fill="#000000" stroke="none" d="
M 401.65 350.51
C 399.26 348.12 399.17 346.38 399.17 302.21
L 399.17 256.41
L 345.56 211.73
C 316.07 187.14 285.81 162.12 278.31 156.12
C 270.81 150.11 261.88 142.80 258.47 139.87
C 255.06 136.94 248.08 131.12 242.98 126.92
L 233.68 119.30
L 197.18 119.62
L 160.67 119.95
L 154.03 138.59
C 150.37 148.84 146.47 157.93 145.35 158.79
C 143.85 159.93 135.07 160.34 111.57 160.34
C 88.08 160.34 79.28 159.93 77.76 158.79
C 76.65 157.93 73.17 149.96 70.04 141.09
C 66.92 132.20 63.57 123.74 62.60 122.27
C 61.65 120.79 56.79 117.99 51.82 116.04
C 28.46 106.87 10.70 89.99 3.58 70.23
C -0.32 59.36 -0.35 42.10 3.53 30.75
C 10.20 11.26 26.62 -1.81 41.43 0.56
C 51.99 2.25 62.57 8.90 66.27 16.16
C 67.14 17.87 68.53 22.16 69.36 25.69
C 70.69 31.36 70.55 33.27 68.27 41.61
C 66.84 46.83 64.25 53.92 62.52 57.35
C 55.91 70.43 57.72 85.34 66.93 93.69
L 71.91 98.19
L 333.47 98.19
C 593.39 98.19 595.05 98.21 597.52 100.68
C 599.27 102.43 600.00 104.82 600.00 108.76
C 600.00 112.70 599.27 115.09 597.52 116.84
C 595.09 119.27 593.39 119.32 507.64 119.32
L 420.25 119.32
L 420.25 233.68
C 420.25 346.38 420.21 348.07 417.77 350.51
C 416.02 352.27 413.64 353.00 409.71 353.00
C 405.78 353.00 403.40 352.27 401.65 350.51
M 412.56 345.29
C 413.70 344.15 414.05 317.20 414.05 231.56
L 414.05 119.32
L 409.71 119.32
L 405.37 119.32
L 405.37 231.56
C 405.37 345.63 405.41 346.79 409.71 346.79
C 410.47 346.79 411.74 346.11 412.56 345.29
M 397.74 239.28
C 375.47 218.66 314.60 167.48 278.93 139.37
C 259.36 123.96 252.68 119.35 249.89 119.34
C 247.91 119.32 246.51 119.54 246.79 119.81
C 247.08 120.07 257.08 128.32 269.01 138.14
C 297.73 161.77 331.98 190.16 368.63 220.72
C 392.79 240.87 398.63 245.21 398.98 243.25
C 399.20 241.90 398.64 240.13 397.74 239.28
M 399.17 174.64
L 399.17 119.32
L 332.73 119.32
L 266.28 119.32
L 287.89 136.41
C 307.26 151.75 318.56 161.06 361.36 197.03
C 368.18 202.76 379.34 212.48 386.16 218.65
C 392.98 224.80 398.69 229.86 398.86 229.90
C 399.04 229.92 399.17 205.06 399.17 174.64
M 139.25 152.56
C 141.00 151.29 148.05 134.14 151.79 122.12
L 152.64 119.32
L 111.57 119.32
L 70.50 119.32
L 71.36 122.12
C 75.09 134.14 82.14 151.29 83.89 152.56
C 86.90 154.79 136.24 154.79 139.25 152.56
M 592.65 111.15
C 593.83 109.72 593.93 108.61 592.97 107.11
C 591.77 105.18 572.36 104.98 328.77 104.41
L 65.86 103.79
L 62.02 100.10
C 59.91 98.07 56.67 93.31 54.82 89.53
C 52.05 83.91 51.45 80.97 51.45 73.33
C 51.45 65.24 52.08 62.56 56.22 53.01
C 66.88 28.48 62.39 13.42 42.99 8.60
C 38.52 7.50 35.85 7.47 32.39 8.50
C 21.43 11.80 11.44 25.78 8.43 42.05
C 3.24 70.02 23.90 98.24 58.61 110.62
C 64.83 112.84 75.25 112.94 328.05 113.02
C 566.54 113.10 591.17 112.92 592.65 111.15"/>
<path fill="#c57a36" stroke="none" d="
M 406.86 345.29
C 405.72 344.15 405.37 317.20 405.37 231.56
L 405.37 119.32
L 409.71 119.32
L 414.05 119.32
L 414.05 231.56
C 414.05 345.63 414.01 346.79 409.71 346.79
C 408.95 346.79 407.68 346.11 406.86 345.29"/>
<path fill="#c57a36" stroke="none" d="
M 368.63 220.72
C 331.98 190.16 297.73 161.77 269.01 138.14
C 257.08 128.32 247.08 120.07 246.79 119.81
C 246.51 119.54 247.91 119.32 249.89 119.34
C 255.42 119.36 308.28 161.39 366.94 212.41
C 382.96 226.34 396.82 238.44 397.74 239.28
C 398.64 240.13 399.20 241.90 398.98 243.25
C 398.63 245.21 392.79 240.87 368.63 220.72"/>
<path fill="#c57a36" stroke="none" d="
M 58.61 110.62
C 23.90 98.24 3.24 70.02 8.43 42.05
C 12.66 19.25 27.73 4.81 43.26 8.68
C 62.38 13.42 66.82 28.63 56.22 53.01
C 52.08 62.56 51.45 65.24 51.45 73.33
C 51.45 80.97 52.05 83.91 54.82 89.53
C 56.67 93.31 59.91 98.07 62.02 100.10
L 65.86 103.79
L 328.77 104.41
C 572.36 104.98 591.77 105.18 592.97 107.11
C 593.93 108.61 593.83 109.72 592.65 111.15
C 591.17 112.92 566.54 113.10 328.05 113.02
C 75.25 112.94 64.83 112.84 58.61 110.62"/>
<path fill="#c55436" stroke="none" d="
M 83.85 152.55
C 81.61 150.90 70.49 121.88 71.48 120.26
C 71.79 119.75 90.19 119.32 112.35 119.32
L 152.64 119.32
L 151.79 122.12
C 148.05 134.14 141.00 151.29 139.25 152.56
C 136.21 154.80 86.90 154.79 83.85 152.55"/>
</g>
</svg>
