<?xml version="1.0" encoding="UTF-8" standalone="no"?>
<!DOCTYPE svg PUBLIC "-//W3C//DTD SVG 1.1//EN"
"http://www.w3.org/Graphics/SVG/1.1/DTD/svg11.dtd">
<svg width="204px" height="600px"
xmlns="http://www.w3.org/2000/svg" version="1.1">
<g transform="translate(0000, 0000) scale(1.0000, 1.0000)">
<path fill="#000000" stroke="none" d="
M 100.04 598.21
C 94.61 595.85 87.80 587.73 87.80 583.64
C 87.80 578.49 96.64 387.60 97.33 378.06
L 97.92 369.68
L 68.00 369.68
C 40.67 369.68 37.30 369.43 28.96 366.80
C 12.19 361.54 2.32 350.40 0.46 334.66
C -0.49 326.63 2.57 315.29 7.17 309.83
C 11.56 304.63 21.87 299.90 32.94 298.01
C 40.86 296.66 43.58 296.79 54.89 299.07
C 71.48 302.41 80.75 305.97 91.31 313.05
C 95.98 316.18 99.93 318.59 100.09 318.40
C 100.24 318.22 100.68 309.79 101.06 299.68
C 101.75 281.50 101.73 281.29 98.98 281.28
C 93.97 281.25 83.19 275.28 79.00 270.21
C 73.58 263.64 71.46 256.83 68.44 236.21
C 66.47 222.76 65.11 217.61 62.22 212.43
C 57.86 204.66 54.15 202.45 38.79 198.50
C 26.52 195.35 21.95 191.97 21.95 186.04
C 21.95 180.68 25.67 176.65 34.49 172.44
L 42.17 168.77
L 43.68 147.05
C 44.51 135.11 46.62 112.37 48.38 96.54
C 50.12 80.70 52.12 58.61 52.82 47.43
C 53.52 36.18 55.07 23.63 56.29 19.25
C 60.27 5.10 69.81 -1.14 85.11 0.43
C 92.60 1.20 106.51 7.32 110.31 11.52
C 112.60 14.05 112.66 14.05 117.31 10.32
C 128.52 1.37 144.83 -2.23 155.60 1.87
C 167.29 6.34 171.15 16.34 173.09 47.10
C 173.81 58.45 175.83 80.70 177.58 96.54
C 179.33 112.37 181.44 135.11 182.27 147.05
L 183.78 168.77
L 191.46 172.44
C 200.28 176.65 204.00 180.68 204.00 186.04
C 204.00 191.97 199.43 195.35 187.16 198.50
C 171.80 202.45 168.09 204.66 163.73 212.43
C 160.84 217.61 159.48 222.76 157.51 236.21
C 154.48 256.83 152.37 263.64 146.94 270.21
C 142.68 275.38 131.95 281.25 126.73 281.28
C 123.77 281.29 123.70 281.51 124.44 290.00
C 124.85 294.79 125.51 308.00 125.91 319.35
C 126.30 330.71 126.96 342.76 127.35 346.13
L 128.07 352.26
L 136.94 352.26
C 152.46 352.26 169.73 360.80 179.82 373.45
C 189.18 385.19 198.84 410.61 198.84 423.47
C 198.84 429.29 195.26 433.55 190.35 433.55
C 184.08 433.55 182.40 431.45 178.32 418.40
C 173.45 402.81 166.72 391.29 157.67 383.02
C 153.87 379.52 150.56 376.84 150.35 377.06
C 150.13 377.28 151.94 381.61 154.36 386.70
C 163.26 405.38 168.66 430.52 170.00 459.48
C 170.78 476.27 170.69 477.16 168.04 479.81
C 164.63 483.21 159.61 483.38 156.41 480.18
C 154.58 478.35 153.79 474.89 153.08 465.66
C 151.30 442.46 146.94 422.80 139.88 405.97
C 136.45 397.81 130.55 387.81 129.68 388.68
C 129.39 388.98 131.17 432.14 133.65 484.61
C 136.12 537.07 138.15 581.57 138.15 583.51
C 138.15 587.86 131.35 595.86 125.63 598.26
C 120.33 600.46 105.16 600.43 100.04 598.21
M 122.68 591.15
C 125.15 589.82 128.16 587.06 129.35 585.02
C 131.40 581.50 131.23 575.35 126.49 475.48
C 123.72 417.29 121.43 369.54 121.41 369.35
C 121.39 369.17 117.60 369.03 112.97 369.03
C 108.35 369.03 104.56 369.17 104.54 369.35
C 104.52 369.54 102.23 417.29 99.46 475.48
C 94.72 575.35 94.55 581.50 96.60 585.02
C 99.44 589.88 106.47 593.55 112.97 593.55
C 115.84 593.55 120.21 592.46 122.68 591.15
M 164.75 460.03
C 162.00 418.23 149.00 380.61 134.69 373.10
C 133.13 372.28 131.54 371.61 131.14 371.61
C 129.13 371.61 130.96 376.26 136.06 384.15
C 148.61 403.55 155.83 428.46 158.22 460.65
C 159.21 473.99 160.48 477.21 163.66 474.55
C 165.25 473.24 165.45 470.67 164.75 460.03
M 192.19 424.84
C 193.77 421.82 189.63 406.12 184.12 394.27
C 175.98 376.80 164.65 366.21 147.42 359.96
C 139.33 357.03 138.89 357.02 95.35 357.82
C 49.95 358.67 43.90 358.25 32.74 353.47
C 21.16 348.50 11.56 335.91 13.49 328.21
C 15.04 322.01 24.31 314.06 32.89 311.57
C 40.12 309.47 41.10 309.47 50.94 311.57
C 65.63 314.71 77.73 320.79 89.41 330.89
L 99.42 339.55
L 99.42 333.64
C 99.42 327.90 99.21 327.57 91.35 321.79
C 77.49 311.59 62.65 305.60 46.83 303.81
C 25.27 301.37 6.46 314.04 6.46 330.99
C 6.46 338.63 12.01 348.86 19.06 354.25
C 22.29 356.71 28.75 360.03 33.44 361.60
C 41.65 364.36 43.76 364.46 91.08 364.49
L 140.20 364.52
L 150.03 369.37
C 166.47 377.47 178.32 393.37 183.99 414.92
C 187.16 426.97 189.55 429.85 192.19 424.84
M 97.96 351.51
C 99.33 350.30 95.94 346.40 85.63 337.34
C 73.10 326.35 61.23 319.97 48.24 317.30
C 41.25 315.87 39.60 315.94 34.43 317.91
C 31.19 319.15 26.49 322.44 23.95 325.26
C 19.51 330.17 19.41 330.52 21.21 334.03
C 23.67 338.76 31.49 345.60 37.35 348.12
C 48.03 352.70 54.40 353.45 76.18 352.68
C 87.90 352.27 97.70 351.74 97.96 351.51
M 119.59 328.06
C 119.11 314.76 118.36 298.79 117.92 292.58
L 117.12 281.29
L 112.97 281.29
L 108.83 281.29
L 108.03 292.58
C 107.59 298.79 106.84 314.76 106.36 328.06
L 105.49 352.26
L 112.97 352.26
L 120.46 352.26
L 119.59 328.06
M 131.06 272.44
C 136.83 269.81 144.07 262.26 146.60 256.21
C 147.51 254.03 149.46 244.21 150.95 234.39
C 153.77 215.54 156.76 206.80 162.36 200.95
C 165.60 197.57 169.05 196.21 186.14 191.55
C 199.12 188.01 199.02 184.67 185.69 177.95
C 178.44 174.28 177.18 174.10 145.52 172.17
C 115.94 170.35 109.76 170.35 80.30 172.17
C 48.78 174.12 47.49 174.30 40.24 177.95
C 26.95 184.67 26.83 188.01 39.81 191.55
C 56.90 196.21 60.35 197.57 63.59 200.95
C 69.19 206.80 72.17 215.54 75.00 234.39
C 76.49 244.21 78.44 254.03 79.35 256.21
C 81.88 262.26 89.11 269.81 94.89 272.44
C 102.19 275.75 123.76 275.75 131.06 272.44
M 87.13 165.14
C 98.48 164.44 108.21 163.87 108.75 163.87
C 109.29 163.87 109.75 132.13 109.75 93.33
L 109.75 22.79
L 104.05 17.34
C 97.26 10.83 85.37 5.90 78.94 6.93
C 70.78 8.25 64.85 14.37 61.95 24.52
C 61.24 27.01 59.81 40.93 58.76 55.48
C 57.71 70.04 55.43 94.99 53.69 110.97
C 51.94 126.94 50.12 146.28 49.63 153.96
L 48.74 167.94
L 57.62 167.16
C 62.50 166.75 75.78 165.83 87.13 165.14
M 176.31 153.87
C 175.83 146.25 174.01 126.94 172.26 110.97
C 170.52 94.99 168.24 70.04 167.19 55.48
C 166.14 40.93 164.71 27.01 164.00 24.52
C 161.10 14.37 155.17 8.25 147.01 6.93
C 140.58 5.90 128.69 10.83 121.90 17.34
L 116.20 22.79
L 116.20 93.33
L 116.20 163.87
L 119.75 164.00
C 121.70 164.08 133.76 164.86 146.54 165.74
C 159.33 166.63 171.45 167.45 173.49 167.55
L 177.20 167.74
L 176.31 153.87"/>
<path fill="#ffbf53" stroke="none" d="
M 49.64 153.96
C 50.13 146.28 52.20 124.32 54.23 105.16
C 56.25 86.00 58.29 63.35 58.76 54.84
C 60.28 26.63 62.98 16.36 70.37 10.55
C 78.57 4.12 93.36 7.10 104.05 17.34
L 109.75 22.79
L 109.75 93.33
C 109.75 132.13 109.29 163.87 108.75 163.87
C 106.12 163.87 65.41 166.49 57.62 167.16
L 48.74 167.94
L 49.64 153.96"/>
<path fill="#ffbf53" stroke="none" d="
M 146.54 165.74
C 133.76 164.86 121.70 164.08 119.75 164.00
L 116.20 163.87
L 116.20 93.33
L 116.20 22.79
L 121.90 17.34
C 128.69 10.83 140.58 5.90 147.01 6.93
C 155.17 8.25 161.10 14.37 164.00 24.52
C 164.71 27.01 166.14 40.93 167.19 55.48
C 168.24 70.04 170.52 94.99 172.26 110.97
C 174.01 126.94 175.83 146.25 176.31 153.87
L 177.20 167.74
L 173.49 167.55
C 171.45 167.45 159.33 166.63 146.54 165.74"/>
<path fill="#149a14" stroke="none" d="
M 103.27 591.15
C 100.80 589.82 97.79 587.06 96.60 585.02
C 94.55 581.50 94.72 575.35 99.46 475.48
C 102.23 417.29 104.52 369.54 104.54 369.35
C 104.56 369.17 108.35 369.03 112.97 369.03
C 117.60 369.03 121.39 369.17 121.41 369.35
C 121.43 369.54 123.72 417.29 126.49 475.48
C 131.23 575.35 131.40 581.50 129.35 585.02
C 126.51 589.88 119.48 593.55 112.97 593.55
C 110.11 593.55 105.74 592.46 103.27 591.15"/>
<path fill="#149a14" stroke="none" d="
M 106.36 328.06
C 106.84 314.76 107.59 298.79 108.03 292.58
L 108.83 281.29
L 112.97 281.29
L 117.12 281.29
L 117.92 292.58
C 118.36 298.79 119.11 314.76 119.59 328.06
L 120.46 352.26
L 112.97 352.26
L 105.49 352.26
L 106.36 328.06"/>
<path fill="#149a14" stroke="none" d="
M 94.89 272.44
C 89.11 269.81 81.88 262.26 79.35 256.21
C 78.44 254.03 76.49 244.21 75.00 234.39
C 72.17 215.54 69.19 206.80 63.59 200.95
C 60.35 197.57 56.90 196.21 39.81 191.55
C 26.82 188.01 26.93 184.67 40.28 177.94
C 47.58 174.26 48.73 174.09 80.73 172.17
C 110.38 170.39 116.90 170.39 145.95 172.18
C 177.16 174.12 178.47 174.31 185.70 177.95
C 199.00 184.67 199.12 188.01 186.14 191.55
C 169.05 196.21 165.60 197.57 162.36 200.95
C 156.76 206.80 153.77 215.54 150.95 234.39
C 149.46 244.21 147.51 254.03 146.60 256.21
C 144.07 262.26 136.83 269.81 131.06 272.44
C 123.76 275.75 102.19 275.75 94.89 272.44"/>
<path fill="#f4c3b8" stroke="none" d="
M 160.44 474.53
C 159.71 473.64 158.72 467.39 158.22 460.65
C 155.83 428.46 148.61 403.55 136.06 384.15
C 130.96 376.26 129.13 371.61 131.14 371.61
C 131.54 371.61 133.13 372.28 134.69 373.10
C 149.00 380.61 162.00 418.23 164.75 460.03
C 165.45 470.67 165.25 473.24 163.66 474.55
C 162.13 475.83 161.47 475.83 160.44 474.53"/>
<path fill="#f4c3b8" stroke="none" d="
M 187.59 425.48
C 186.91 424.59 185.29 419.85 183.99 414.92
C 178.32 393.37 166.47 377.47 150.03 369.37
L 140.20 364.52
L 91.08 364.49
C 43.76 364.46 41.65 364.36 33.44 361.60
C 12.19 354.44 1.59 336.66 8.92 320.49
C 13.72 309.92 25.13 304.13 41.32 304.01
C 58.58 303.90 74.92 309.70 91.35 321.79
C 99.21 327.57 99.42 327.90 99.42 333.64
L 99.42 339.55
L 89.41 330.89
C 77.73 320.79 65.63 314.71 50.94 311.57
C 41.10 309.47 40.12 309.47 32.89 311.57
C 24.31 314.06 15.04 322.01 13.49 328.21
C 11.56 335.91 21.16 348.50 32.74 353.47
C 43.90 358.25 49.95 358.67 95.35 357.82
C 138.89 357.02 139.33 357.03 147.42 359.96
C 164.65 366.21 175.98 376.80 184.12 394.27
C 189.63 406.12 193.77 421.82 192.19 424.84
C 190.78 427.50 189.29 427.72 187.59 425.48"/>
</g>
</svg>
