<?xml version="1.0" encoding="UTF-8" standalone="no"?>
<!DOCTYPE svg PUBLIC "-//W3C//DTD SVG 1.1//EN"
"http://www.w3.org/Graphics/SVG/1.1/DTD/svg11.dtd">
<svg width="215px" height="600px"
xmlns="http://www.w3.org/2000/svg" version="1.1">
<g transform="translate(0000, 0000) scale(1.0000, 1.0000)">
<path fill="#000000" stroke="none" d="
M 63.44 597.52
C 54.18 591.88 49.82 581.23 49.82 564.30
C 49.82 544.17 55.90 530.39 67.32 524.65
C 69.59 523.52 73.07 521.06 75.05 519.22
L 78.66 515.86
L 78.66 342.76
C 78.66 185.78 78.46 169.25 76.53 165.20
C 73.27 158.35 67.54 154.94 59.22 154.92
L 52.20 154.90
L 47.29 170.59
C 44.57 179.22 38.70 196.27 34.24 208.50
C 29.79 220.72 25.22 234.21 24.11 238.48
C 21.19 249.70 17.62 256.01 13.65 257.01
C 8.98 258.18 4.46 255.78 1.86 250.77
C -1.39 244.51 -0.01 224.80 5.20 202.61
C 8.04 190.56 9.94 177.73 11.20 162.09
C 13.99 127.45 16.52 120.25 38.75 83.48
C 54.60 57.27 59.52 46.82 63.60 30.71
C 68.43 11.62 71.97 1.63 74.24 0.77
C 77.83 -0.60 81.23 2.58 85.70 11.49
C 93.33 26.72 94.95 33.23 94.93 48.37
C 94.90 57.78 94.13 64.76 92.45 70.59
C 89.17 81.96 79.56 105.82 74.19 115.92
C 71.79 120.42 70.15 124.41 70.53 124.80
C 70.91 125.18 73.35 125.49 75.94 125.49
C 80.14 125.49 81.52 124.50 88.50 116.48
C 92.83 111.54 113.75 88.29 135.00 64.82
C 175.24 20.42 179.13 16.95 188.87 17.02
C 194.69 17.06 202.91 20.89 207.40 25.65
C 215.17 33.92 217.20 46.92 212.31 56.99
C 208.30 65.27 204.41 67.32 192.71 67.32
L 182.88 67.32
L 178.79 73.42
C 176.30 77.15 171.28 89.84 165.97 105.88
C 161.17 120.38 156.31 133.65 155.18 135.36
C 151.99 140.22 146.13 140.59 133.82 136.72
C 120.83 132.63 117.59 132.54 108.13 136.07
C 97.64 139.99 97.89 140.30 119.30 150.20
C 133.76 156.86 159.45 173.92 170.99 184.48
C 191.14 202.94 197.45 216.68 196.33 239.67
C 195.26 262.07 190.20 269.67 175.33 271.25
L 167.08 272.14
L 164.57 278.22
C 161.56 285.50 149.81 297.29 143.45 299.39
C 137.10 301.46 131.19 299.19 124.71 292.20
C 117.29 284.17 114.62 274.14 110.90 240.52
L 107.79 212.42
L 107.64 364.13
L 107.50 515.86
L 111.11 519.22
C 113.08 521.06 116.57 523.52 118.84 524.65
C 125.34 527.92 131.84 536.50 134.22 544.90
C 136.96 554.64 137.02 574.21 134.35 581.78
C 129.08 596.65 114.99 604.85 107.50 597.39
C 103.84 593.74 104.21 588.24 108.81 577.78
C 114.42 565.02 113.71 555.23 106.60 547.57
C 97.00 537.24 79.55 541.56 74.91 555.42
C 72.52 562.54 73.14 568.22 77.35 577.78
C 79.51 582.69 81.28 588.52 81.28 590.75
C 81.28 599.15 71.96 602.69 63.44 597.52
M 74.08 592.14
C 74.53 591.41 73.32 587.44 71.40 583.32
C 64.59 568.78 65.71 550.56 73.87 542.68
C 84.89 532.05 101.27 532.05 112.29 542.68
C 120.45 550.56 121.57 568.78 114.76 583.32
C 109.60 594.37 111.90 596.58 120.53 588.81
C 130.44 579.87 132.50 561.57 125.54 544.07
C 123.07 537.88 121.44 535.88 116.02 532.43
C 112.42 530.13 107.55 526.69 105.21 524.78
L 100.95 521.31
L 100.93 346.60
C 100.93 243.92 100.41 167.41 99.67 161.02
C 97.97 146.29 94.60 140.31 85.31 135.62
C 80.01 132.94 76.27 132.03 70.67 132.03
C 63.35 132.03 63.04 132.17 59.07 137.57
C 54.84 143.31 54.34 146.84 57.70 147.28
C 58.77 147.42 62.49 147.92 65.98 148.38
C 73.82 149.41 81.88 156.09 83.86 163.20
C 84.74 166.31 85.20 229.24 85.20 344.64
L 85.21 521.31
L 80.95 524.78
C 78.61 526.69 73.74 530.13 70.14 532.43
C 64.72 535.88 63.08 537.88 60.62 544.07
C 53.66 561.57 55.72 579.87 65.63 588.81
C 71.04 593.69 72.72 594.34 74.08 592.14
M 148.86 285.73
C 158.10 276.21 161.25 267.75 161.25 252.44
C 161.25 232.16 154.17 211.67 140.20 191.52
C 132.43 180.31 123.26 171.33 115.60 167.44
C 106.58 162.85 105.98 163.83 109.48 177.42
C 110.57 181.66 113.49 203.03 115.97 224.92
C 121.13 270.42 123.32 279.59 130.95 287.58
C 137.72 294.68 140.44 294.39 148.86 285.73
M 179.04 263.44
C 185.42 260.78 189.07 252.37 189.80 238.56
C 190.73 221.20 184.74 208.59 167.90 192.38
C 157.78 182.65 132.59 165.31 118.07 158.05
C 106.60 152.33 106.19 152.21 106.19 154.75
C 106.19 155.79 108.61 157.16 111.89 157.99
C 119.52 159.90 132.40 168.64 138.73 176.21
C 158.48 199.82 169.09 226.50 169.10 252.61
C 169.12 266.94 169.54 267.40 179.04 263.44
M 14.67 243.03
C 15.89 239.86 19.53 229.32 22.78 219.61
C 26.02 209.90 32.25 191.37 36.63 178.43
C 40.99 165.49 45.74 150.76 47.17 145.69
C 49.16 138.65 51.48 134.34 56.98 127.45
C 65.64 116.61 71.16 106.33 79.05 86.27
C 91.48 54.76 91.52 39.22 79.25 15.57
L 76.97 11.16
L 75.75 14.41
C 75.08 16.18 72.52 25.14 70.07 34.27
C 64.95 53.41 60.93 62.03 44.77 88.65
C 22.73 124.94 20.35 131.67 17.71 164.71
C 16.52 179.78 14.50 193.80 11.79 205.84
C 6.75 228.18 5.56 240.21 7.87 245.74
C 10.03 250.95 11.92 250.20 14.67 243.03
M 122.58 127.22
C 127.62 127.61 135.17 129.12 139.34 130.58
L 146.93 133.23
L 149.53 129.03
C 150.95 126.72 155.11 115.42 158.76 103.92
C 166.51 79.57 173.11 64.93 177.73 61.91
C 180.25 60.26 182.78 59.95 188.56 60.55
C 194.65 61.19 196.91 60.86 200.25 58.84
C 208.48 53.84 210.56 44.68 205.38 36.14
C 202.30 31.08 192.60 23.53 189.17 23.53
C 184.27 23.53 177.23 30.29 144.65 66.30
C 85.40 131.82 88.36 128.22 91.51 130.77
C 94.02 132.81 94.77 132.75 103.79 129.71
C 111.72 127.06 115.00 126.61 122.58 127.22"/>
<path fill="#000000" stroke="none" d="
M 27.53 147.91
C 27.53 146.58 28.09 143.78 28.78 141.70
C 29.46 139.61 30.66 135.41 31.45 132.35
C 32.64 127.71 33.40 126.80 36.10 126.80
C 39.68 126.80 40.19 129.01 38.08 135.42
C 37.40 137.52 36.20 141.71 35.41 144.77
C 34.22 149.41 33.46 150.33 30.76 150.33
C 28.49 150.33 27.53 149.61 27.53 147.91"/>
<path fill="#c57a36" stroke="none" d="
M 65.63 588.81
C 55.72 579.87 53.66 561.57 60.62 544.07
C 63.08 537.88 64.72 535.88 70.14 532.43
C 73.74 530.13 78.61 526.69 80.95 524.78
L 85.21 521.31
L 85.20 344.64
C 85.20 229.24 84.74 166.31 83.86 163.20
C 81.88 156.09 73.82 149.41 65.98 148.38
C 62.49 147.92 58.77 147.42 57.70 147.28
C 54.34 146.84 54.84 143.31 59.07 137.57
C 63.04 132.17 63.35 132.03 70.67 132.03
C 76.27 132.03 80.01 132.94 85.31 135.62
C 94.60 140.31 97.97 146.29 99.67 161.02
C 100.41 167.41 100.93 243.92 100.93 346.60
L 100.95 521.31
L 105.21 524.78
C 107.55 526.69 112.42 530.13 116.02 532.43
C 121.44 535.88 123.07 537.88 125.54 544.07
C 132.50 561.57 130.44 579.87 120.53 588.81
C 111.90 596.58 109.60 594.37 114.76 583.32
C 121.57 568.78 120.45 550.56 112.29 542.68
C 101.27 532.05 84.89 532.05 73.87 542.68
C 65.71 550.56 64.59 568.78 71.40 583.32
C 76.56 594.37 74.25 596.58 65.63 588.81"/>
<path fill="#c57a36" stroke="none" d="
M 7.87 245.74
C 5.56 240.21 6.75 228.18 11.79 205.84
C 14.50 193.80 16.52 179.78 17.71 164.71
C 20.37 131.27 22.31 125.92 46.43 85.69
C 61.86 59.96 65.61 51.95 69.44 36.60
C 73.23 21.44 76.04 13.07 77.33 13.07
C 79.18 13.07 86.71 32.69 88.12 41.19
C 89.89 51.87 87.06 65.99 79.08 86.25
C 71.16 106.33 65.64 116.61 56.98 127.45
C 51.48 134.34 49.16 138.65 47.17 145.69
C 45.74 150.76 40.99 165.49 36.63 178.43
C 32.25 191.37 26.02 209.90 22.78 219.61
C 12.19 251.28 11.01 253.33 7.87 245.74
M 35.41 144.77
C 36.20 141.71 37.40 137.52 38.08 135.42
C 40.19 129.01 39.68 126.80 36.10 126.80
C 33.40 126.80 32.64 127.71 31.45 132.35
C 30.66 135.41 29.46 139.61 28.78 141.70
C 26.67 148.12 27.18 150.33 30.76 150.33
C 33.46 150.33 34.22 149.41 35.41 144.77"/>
<path fill="#ef907a" stroke="none" d="
M 91.51 130.77
C 88.36 128.22 85.70 131.45 145.44 65.44
C 182.87 24.10 186.11 21.35 192.98 24.95
C 201.61 29.49 208.43 38.25 208.43 44.84
C 208.45 50.09 205.04 55.93 200.25 58.84
C 196.91 60.86 194.65 61.19 188.56 60.55
C 182.78 59.95 180.25 60.26 177.73 61.91
C 173.11 64.93 166.51 79.57 158.76 103.92
C 155.11 115.42 150.95 126.72 149.53 129.03
L 146.93 133.23
L 139.34 130.58
C 126.78 126.20 115.12 125.92 103.79 129.71
C 94.77 132.75 94.02 132.81 91.51 130.77"/>
<path fill="#ffbf53" stroke="none" d="
M 130.95 287.58
C 123.32 279.59 121.13 270.42 115.97 224.92
C 113.49 203.03 110.57 181.66 109.48 177.42
C 105.98 163.83 106.58 162.85 115.60 167.44
C 132.34 175.96 152.03 204.88 158.60 230.60
C 162.22 244.76 162.18 261.48 158.50 271.31
C 155.18 280.12 143.66 292.81 138.96 292.81
C 137.14 292.81 133.96 290.73 130.95 287.58"/>
<path fill="#ffbf53" stroke="none" d="
M 169.10 252.61
C 169.09 226.50 158.48 199.82 138.73 176.21
C 132.40 168.64 119.52 159.90 111.89 157.99
C 106.49 156.63 104.90 155.19 107.22 153.76
C 110.90 151.50 153.76 178.78 167.90 192.38
C 184.74 208.59 190.73 221.20 189.80 238.56
C 189.07 252.37 185.42 260.78 179.04 263.44
C 169.54 267.40 169.12 266.94 169.10 252.61"/>
</g>
</svg>
