<?xml version="1.0" encoding="UTF-8" standalone="no"?>
<!DOCTYPE svg PUBLIC "-//W3C//DTD SVG 1.1//EN"
"http://www.w3.org/Graphics/SVG/1.1/DTD/svg11.dtd">
<svg width="598px" height="600px"
xmlns="http://www.w3.org/2000/svg" version="1.1">
<g transform="translate(0000, 0000) scale(1.0000, 1.0000)">
<path fill="#000000" stroke="none" d="
M 200.19 597.42
C 198.77 596.00 197.61 594.04 197.61 593.06
C 197.61 589.81 209.15 566.40 222.98 541.61
C 238.76 513.30 243.57 503.20 249.08 486.62
C 261.09 450.52 266.00 408.89 266.04 342.90
L 266.06 308.39
L 163.66 308.39
C 53.95 308.39 55.12 308.45 40.18 301.85
C 25.69 295.45 11.22 279.68 3.94 262.32
C -0.67 251.37 -0.96 247.41 2.58 243.87
C 5.00 241.46 6.88 241.29 32.29 241.29
L 59.41 241.29
L 59.40 149.35
C 59.40 89.19 58.93 55.73 58.04 52.54
C 56.30 46.30 50.32 39.51 42.76 35.24
C 27.67 26.70 24.68 24.35 23.20 19.83
C 18.46 5.48 29.80 -2.77 47.88 1.86
C 65.30 6.32 79.38 18.31 85.70 34.08
L 89.12 42.61
L 89.12 141.95
L 89.12 241.29
L 130.45 241.29
L 171.78 241.29
L 171.77 149.35
C 171.77 89.19 171.30 55.73 170.41 52.54
C 168.67 46.30 162.69 39.51 155.13 35.24
C 140.03 26.70 137.05 24.35 135.56 19.83
C 130.80 5.42 142.02 -2.80 160.13 1.83
C 177.67 6.32 191.73 18.27 198.06 34.08
L 201.49 42.61
L 201.49 141.95
L 201.49 241.29
L 242.82 241.29
L 284.15 241.29
L 284.13 149.35
C 284.13 89.19 283.67 55.73 282.78 52.54
C 281.03 46.30 275.05 39.51 267.50 35.24
C 252.40 26.70 249.42 24.35 247.93 19.83
C 243.17 5.42 254.39 -2.80 272.50 1.83
C 290.04 6.32 304.10 18.27 310.43 34.08
L 313.85 42.61
L 313.85 141.95
L 313.85 241.29
L 353.25 241.29
L 392.64 241.29
L 392.63 149.35
C 392.63 89.19 392.16 55.73 391.27 52.54
C 389.53 46.30 383.55 39.51 375.99 35.24
C 360.89 26.70 357.91 24.35 356.42 19.83
C 351.66 5.42 362.88 -2.80 380.99 1.83
C 398.53 6.32 412.59 18.27 418.92 34.08
L 422.35 42.61
L 422.35 141.95
L 422.35 241.29
L 464.32 241.29
L 506.30 241.29
L 506.29 149.35
C 506.29 89.19 505.82 55.73 504.93 52.54
C 503.19 46.30 497.21 39.51 489.65 35.24
C 474.55 26.70 471.57 24.35 470.08 19.83
C 465.32 5.42 476.54 -2.80 494.65 1.83
C 512.19 6.32 526.25 18.27 532.58 34.08
L 536.00 42.61
L 536.00 141.95
L 536.00 241.29
L 564.42 241.29
C 591.12 241.29 592.99 241.45 595.42 243.87
C 598.96 247.41 598.67 251.37 594.06 262.32
C 586.78 279.68 572.31 295.45 557.82 301.85
C 542.88 308.45 544.05 308.39 434.34 308.39
L 331.94 308.39
L 331.96 342.90
C 332.00 408.89 336.91 450.52 348.92 486.62
C 354.43 503.20 359.24 513.30 375.02 541.61
C 388.85 566.40 400.39 589.81 400.39 593.06
C 400.39 594.04 399.23 596.00 397.81 597.42
C 395.27 599.95 393.50 600.00 299.00 600.00
C 204.50 600.00 202.73 599.95 200.19 597.42
M 389.91 591.78
C 391.90 589.39 387.71 580.25 370.00 548.39
C 352.60 517.05 347.55 506.18 341.75 487.60
C 330.64 452.03 326.90 420.95 325.86 355.81
L 325.10 308.39
L 299.00 308.39
L 272.90 308.39
L 272.14 355.81
C 271.10 420.95 267.36 452.03 256.25 487.60
C 250.45 506.18 245.40 517.05 228.00 548.39
C 210.29 580.25 206.10 589.39 208.09 591.78
C 209.30 593.25 224.79 593.55 299.00 593.55
C 373.21 593.55 388.70 593.25 389.91 591.78
M 544.35 298.85
C 556.72 294.93 565.26 289.43 574.02 279.75
C 581.18 271.85 590.73 254.40 589.99 250.57
C 589.59 248.53 570.53 248.39 299.00 248.39
C 27.47 248.39 8.41 248.53 8.01 250.57
C 7.27 254.40 16.82 271.85 23.98 279.75
C 32.64 289.32 41.23 294.89 53.29 298.80
L 62.64 301.82
L 298.63 301.88
L 534.61 301.94
L 544.35 298.85
M 82.66 144.49
C 82.66 51.96 82.54 47.37 80.16 40.55
C 74.80 25.32 62.53 13.81 46.43 8.93
C 36.95 6.05 32.29 6.80 29.69 11.64
C 27.46 15.82 30.74 19.61 41.95 25.79
C 54.79 32.86 58.88 36.46 62.71 44.00
L 65.87 50.23
L 65.87 145.77
L 65.87 241.29
L 74.27 241.29
L 82.66 241.29
L 82.66 144.49
M 195.03 144.49
C 195.03 51.96 194.91 47.37 192.52 40.55
C 187.16 25.32 174.89 13.81 158.80 8.93
C 149.32 6.05 144.66 6.80 142.06 11.64
C 139.83 15.82 143.11 19.61 154.32 25.79
C 167.16 32.86 171.25 36.46 175.07 44.00
L 178.24 50.23
L 178.24 145.77
L 178.24 241.29
L 186.63 241.29
L 195.03 241.29
L 195.03 144.49
M 307.40 144.49
C 307.40 51.96 307.28 47.37 304.89 40.55
C 299.53 25.32 287.26 13.81 271.17 8.93
C 261.69 6.05 257.02 6.80 254.43 11.64
C 252.19 15.82 255.47 19.61 266.68 25.79
C 279.52 32.86 283.62 36.46 287.44 44.00
L 290.60 50.23
L 290.60 145.77
L 290.60 241.29
L 299.00 241.29
L 307.40 241.29
L 307.40 144.49
M 415.89 144.49
C 415.89 51.96 415.77 47.37 413.38 40.55
C 408.02 25.32 395.75 13.81 379.66 8.93
C 370.18 6.05 365.52 6.80 362.92 11.64
C 360.69 15.82 363.97 19.61 375.18 25.79
C 388.02 32.86 392.11 36.46 395.93 44.00
L 399.10 50.23
L 399.10 145.77
L 399.10 241.29
L 407.49 241.29
L 415.89 241.29
L 415.89 144.49
M 529.55 144.49
C 529.55 51.96 529.43 47.37 527.04 40.55
C 521.68 25.32 509.41 13.81 493.32 8.93
C 483.84 6.05 479.17 6.80 476.58 11.64
C 474.34 15.82 477.63 19.61 488.84 25.79
C 501.67 32.86 505.77 36.46 509.59 44.00
L 512.76 50.23
L 512.76 145.77
L 512.76 241.29
L 521.15 241.29
L 529.55 241.29
L 529.55 144.49"/>
<path fill="#c55436" stroke="none" d="
M 65.87 145.77
L 65.87 50.23
L 62.71 44.00
C 58.88 36.46 54.79 32.86 41.95 25.79
C 36.59 22.84 31.28 19.02 30.16 17.30
C 28.31 14.49 28.31 13.91 30.12 11.14
C 32.91 6.89 37.96 6.30 47.16 9.14
C 62.63 13.91 74.89 25.57 80.16 40.55
C 82.54 47.37 82.66 51.96 82.66 144.49
L 82.66 241.29
L 74.27 241.29
L 65.87 241.29
L 65.87 145.77"/>
<path fill="#c55436" stroke="none" d="
M 178.24 145.77
L 178.24 50.23
L 175.07 44.00
C 171.25 36.46 167.16 32.86 154.32 25.79
C 143.11 19.61 139.83 15.82 142.06 11.64
C 144.66 6.80 149.32 6.05 158.80 8.93
C 174.89 13.81 187.16 25.32 192.52 40.55
C 194.91 47.37 195.03 51.96 195.03 144.49
L 195.03 241.29
L 186.63 241.29
L 178.24 241.29
L 178.24 145.77"/>
<path fill="#c55436" stroke="none" d="
M 290.60 145.77
L 290.60 50.23
L 287.44 44.00
C 283.62 36.46 279.52 32.86 266.68 25.79
C 255.47 19.61 252.19 15.82 254.43 11.64
C 257.02 6.80 261.69 6.05 271.17 8.93
C 287.26 13.81 299.53 25.32 304.89 40.55
C 307.28 47.37 307.40 51.96 307.40 144.49
L 307.40 241.29
L 299.00 241.29
L 290.60 241.29
L 290.60 145.77"/>
<path fill="#c55436" stroke="none" d="
M 399.10 145.77
L 399.10 50.23
L 395.93 44.00
C 392.11 36.46 388.02 32.86 375.18 25.79
C 363.97 19.61 360.69 15.82 362.92 11.64
C 365.52 6.80 370.18 6.05 379.66 8.93
C 395.75 13.81 408.02 25.32 413.38 40.55
C 415.77 47.37 415.89 51.96 415.89 144.49
L 415.89 241.29
L 407.49 241.29
L 399.10 241.29
L 399.10 145.77"/>
<path fill="#c55436" stroke="none" d="
M 512.76 145.77
L 512.76 50.23
L 509.59 44.00
C 505.77 36.46 501.67 32.86 488.84 25.79
C 477.63 19.61 474.34 15.82 476.58 11.64
C 479.17 6.80 483.84 6.05 493.32 8.93
C 509.41 13.81 521.68 25.32 527.04 40.55
C 529.43 47.37 529.55 51.96 529.55 144.49
L 529.55 241.29
L 521.15 241.29
L 512.76 241.29
L 512.76 145.77"/>
<path fill="#f1b9ac" stroke="none" d="
M 208.09 591.78
C 206.10 589.39 210.29 580.25 228.00 548.39
C 245.40 517.05 250.45 506.18 256.25 487.60
C 267.36 452.03 271.10 420.95 272.14 355.81
L 272.90 308.39
L 299.00 308.39
L 325.10 308.39
L 325.86 355.81
C 326.90 420.95 330.64 452.03 341.75 487.60
C 347.55 506.18 352.60 517.05 370.00 548.39
C 387.71 580.25 391.90 589.39 389.91 591.78
C 388.70 593.25 373.21 593.55 299.00 593.55
C 224.79 593.55 209.30 593.25 208.09 591.78"/>
<path fill="#f1b9ac" stroke="none" d="
M 53.29 298.80
C 41.23 294.89 32.64 289.32 23.98 279.75
C 17.42 272.52 7.75 255.42 7.75 251.07
C 7.75 249.97 9.05 248.76 10.66 248.39
C 12.26 248.00 143.16 247.85 301.57 248.04
C 570.53 248.36 589.59 248.53 589.99 250.57
C 590.73 254.40 581.18 271.85 574.02 279.75
C 565.26 289.43 556.72 294.93 544.35 298.85
L 534.61 301.94
L 298.63 301.88
L 62.64 301.82
L 53.29 298.80"/>
</g>
</svg>
