<?xml version="1.0" encoding="UTF-8" standalone="no"?>
<!DOCTYPE svg PUBLIC "-//W3C//DTD SVG 1.1//EN"
"http://www.w3.org/Graphics/SVG/1.1/DTD/svg11.dtd">
<svg width="272px" height="600px"
xmlns="http://www.w3.org/2000/svg" version="1.1">
<g transform="translate(0000, 0000) scale(1.0000, 1.0000)">
<path fill="#000000" stroke="none" d="
M 117.27 598.68
C 113.64 596.57 113.45 591.11 116.14 566.79
C 122.29 511.36 126.64 445.17 127.34 396.68
L 128.03 349.41
L 123.84 347.95
C 116.69 345.46 115.43 346.05 111.05 353.82
C 105.08 364.41 86.86 382.05 76.73 387.04
C 63.13 393.76 51.08 391.86 51.08 383.01
C 51.08 377.78 58.42 365.13 66.10 357.11
C 70.20 352.83 78.11 346.42 83.69 342.87
C 99.95 332.51 98.80 334.22 94.98 326.10
L 91.68 319.08
L 78.88 321.57
C 67.58 323.76 64.59 323.89 53.15 322.61
C 36.82 320.79 24.43 316.55 21.81 311.90
C 17.52 304.27 25.44 298.25 43.49 295.43
C 54.78 293.67 75.82 294.65 84.87 297.38
C 88.34 298.42 91.28 299.15 91.41 298.99
C 93.14 296.87 98.30 283.80 97.75 282.92
C 97.35 282.25 94.87 281.02 92.25 280.17
C 79.17 275.94 55.61 255.92 49.93 244.22
C 44.96 233.96 47.62 224.20 55.38 224.20
C 63.22 224.20 82.23 234.73 93.02 245.03
C 99.35 251.08 108.71 262.94 111.69 268.70
C 114.05 273.25 113.69 273.16 119.59 270.70
C 123.43 269.11 124.03 268.33 123.34 265.92
C 118.94 250.43 118.29 245.39 118.21 226.11
C 118.08 195.21 122.12 181.49 132.65 177.13
C 135.72 175.87 137.06 175.95 140.23 177.58
C 150.39 182.83 153.94 195.76 153.74 226.75
C 153.62 243.90 153.10 249.62 150.88 257.78
C 149.38 263.30 148.44 268.25 148.78 268.82
C 149.13 269.36 151.07 270.39 153.11 271.11
C 157.44 272.61 158.62 271.61 166.98 259.24
C 173.70 249.31 182.29 241.17 193.77 233.83
C 208.78 224.24 217.50 222.06 222.20 226.75
C 225.57 230.11 225.50 237.12 222.07 244.22
C 216.22 256.27 193.76 275.11 178.54 280.74
L 172.55 282.96
L 175.66 288.80
C 177.37 292.01 178.78 295.71 178.78 297.01
C 178.78 299.83 179.00 299.85 187.07 297.41
C 196.15 294.66 217.17 293.66 228.51 295.43
C 246.56 298.25 254.48 304.27 250.19 311.90
C 247.67 316.37 235.78 320.60 220.26 322.56
C 210.33 323.81 206.45 323.72 195.85 321.97
C 188.92 320.84 182.24 319.53 181.01 319.06
C 179.37 318.42 178.78 318.84 178.78 320.61
C 178.78 321.94 177.60 325.30 176.17 328.08
C 173.16 333.92 171.95 332.45 188.31 342.87
C 193.89 346.42 201.80 352.83 205.90 357.11
C 213.58 365.13 220.92 377.78 220.92 383.01
C 220.92 391.86 208.87 393.76 195.27 387.04
C 185.14 382.05 166.92 364.41 160.95 353.82
C 156.57 346.05 155.31 345.46 148.16 347.95
L 143.97 349.41
L 144.66 396.68
C 145.36 445.03 149.71 511.30 155.81 566.32
C 158.92 594.57 158.92 594.33 155.79 597.45
C 153.49 599.75 151.57 600.00 136.32 599.96
C 127.01 599.94 118.44 599.36 117.27 598.68
M 150.47 591.97
C 151.46 590.79 151.32 585.85 149.98 574.46
C 147.67 554.76 141.02 471.16 139.24 439.49
C 138.52 426.52 137.92 401.16 137.92 383.12
C 137.92 354.82 137.65 350.32 136.00 350.32
C 134.35 350.32 134.08 354.82 134.08 383.12
C 134.08 401.16 133.48 426.52 132.76 439.49
C 130.98 471.16 124.33 554.76 122.02 574.46
C 120.68 585.85 120.54 590.79 121.53 591.97
C 122.49 593.13 126.82 593.63 136.00 593.63
C 145.18 593.63 149.51 593.13 150.47 591.97
M 71.00 381.41
C 84.82 374.14 100.22 359.15 106.44 346.94
C 108.29 343.30 108.29 342.78 106.46 341.27
C 104.78 339.87 103.32 340.20 97.29 343.35
C 82.42 351.12 68.77 363.44 61.68 375.49
C 56.16 384.85 59.94 387.25 71.00 381.41
M 212.79 382.82
C 213.19 381.77 212.08 378.48 210.32 375.49
C 203.23 363.44 189.58 351.12 174.71 343.35
C 168.68 340.20 167.22 339.87 165.54 341.27
C 163.71 342.78 163.71 343.30 165.56 346.94
C 171.78 359.15 187.18 374.14 201.00 381.41
C 208.09 385.15 211.73 385.58 212.79 382.82
M 149.28 339.41
C 159.10 336.50 168.88 326.60 171.78 316.66
C 173.54 310.60 173.65 308.38 172.38 303.13
C 169.30 290.33 158.92 280.65 144.50 277.12
C 136.36 275.13 135.21 275.13 127.58 277.10
C 117.56 279.67 112.50 282.66 106.60 289.54
C 100.28 296.92 97.63 306.45 99.62 314.70
C 102.54 326.88 112.17 336.38 125.53 340.29
C 134.05 342.78 138.50 342.61 149.28 339.41
M 72.15 315.86
C 87.24 313.68 90.67 312.42 90.67 309.02
C 90.67 306.41 89.61 305.77 82.05 303.85
C 65.00 299.52 45.92 299.97 33.80 305.03
C 29.88 306.66 29.33 307.32 30.58 308.85
C 32.59 311.25 42.18 314.38 51.77 315.78
C 62.25 317.30 62.11 317.30 72.15 315.86
M 219.12 315.82
C 230.65 314.23 242.99 309.97 242.27 307.85
C 241.05 304.19 229.41 301.48 214.54 301.38
C 195.34 301.25 180.06 304.65 180.06 309.06
C 180.06 311.59 181.15 312.17 189.31 313.90
C 194.41 314.98 200.30 316.08 202.40 316.34
C 204.51 316.60 206.91 316.90 207.74 317.01
C 208.57 317.11 213.69 316.59 219.12 315.82
M 106.36 276.90
C 108.94 274.34 92.30 253.63 80.59 244.84
C 59.61 229.10 48.19 227.63 57.35 241.86
C 64.99 253.73 80.87 266.85 96.08 273.85
C 105.03 277.96 105.25 278.03 106.36 276.90
M 175.50 273.92
C 190.94 267.02 206.86 253.97 214.65 241.86
C 221.11 231.81 217.75 229.15 206.22 235.18
C 194.93 241.08 182.60 251.31 175.68 260.51
C 166.56 272.64 164.58 275.85 165.58 276.85
C 166.71 277.97 165.92 278.22 175.50 273.92
M 143.24 259.24
C 150.44 235.04 149.01 199.22 140.35 187.11
C 137.05 182.47 134.94 182.48 131.62 187.13
C 126.68 194.05 124.57 205.49 124.57 225.48
C 124.56 240.74 125.07 245.82 127.48 254.69
C 129.08 260.60 130.70 265.94 131.08 266.55
C 131.45 267.16 133.84 267.48 136.37 267.26
C 140.80 266.89 141.06 266.60 143.24 259.24"/>
<path fill="#000000" stroke="none" d="
M 2.55 230.57
C 0.03 228.05 -0.84 221.52 0.78 217.27
C 2.16 213.71 45.23 185.20 62.25 176.60
C 72.09 171.62 72.20 171.11 68.43 148.65
C 63.06 116.59 62.24 106.17 62.89 78.00
C 63.40 56.34 64.00 49.76 66.25 41.40
C 69.76 28.34 74.04 19.67 80.62 12.22
C 88.56 3.22 94.23 0.76 107.27 0.70
C 116.88 0.65 118.81 1.04 124.12 4.15
C 127.53 6.15 131.42 9.83 133.10 12.65
L 136.06 17.62
L 138.92 12.68
C 140.58 9.78 144.27 6.27 147.82 4.19
C 153.18 1.04 155.14 0.64 164.73 0.65
C 177.73 0.68 183.35 3.11 191.38 12.22
C 197.96 19.67 202.24 28.34 205.75 41.40
C 208.00 49.76 208.60 56.34 209.11 77.95
C 209.76 106.05 208.85 117.61 203.54 148.82
C 201.83 158.94 200.74 168.24 201.15 169.49
C 201.55 170.74 207.74 175.07 214.91 179.11
C 232.35 188.94 269.17 213.67 270.74 216.60
C 272.89 220.60 272.22 227.81 269.45 230.57
C 264.25 235.76 260.03 234.22 236.78 218.66
C 200.49 194.37 181.10 184.15 158.99 177.69
C 126.33 168.15 96.66 177.96 35.62 218.50
C 11.94 234.22 7.74 235.75 2.55 230.57
M 32.36 212.24
C 68.33 188.41 89.49 177.57 111.42 171.73
C 127.11 167.55 148.50 167.87 164.09 172.54
C 186.36 179.17 205.97 189.49 241.15 213.08
C 259.98 225.71 262.21 226.88 263.99 225.10
C 265.08 224.01 265.64 222.28 265.24 221.26
C 264.29 218.78 222.16 190.88 207.18 182.80
C 198.59 178.17 195.14 175.61 194.54 173.38
C 194.10 171.69 194.97 163.39 196.48 154.90
C 203.55 115.12 203.59 114.79 203.57 85.35
C 203.54 59.75 203.23 55.61 200.72 46.50
C 192.46 16.66 175.40 1.59 156.94 7.83
C 149.45 10.37 145.77 13.87 141.72 22.36
C 139.55 26.88 136.98 30.57 136.00 30.57
C 135.02 30.57 132.45 26.88 130.28 22.36
C 118.74 -1.78 90.82 2.09 77.33 29.69
C 69.95 44.82 68.46 54.13 68.45 85.35
C 68.43 115.49 70.45 133.24 76.80 159.01
C 80.23 172.97 79.20 175.73 68.54 181.11
C 54.11 188.37 6.38 219.15 6.38 221.18
C 6.38 222.37 9.02 226.75 9.73 226.75
C 10.13 226.75 20.30 220.22 32.36 212.24"/>
<path fill="#ffbf53" stroke="none" d="
M 7.71 224.29
C 6.99 222.93 6.38 221.53 6.38 221.18
C 6.38 219.15 54.11 188.37 68.54 181.11
C 79.20 175.73 80.23 172.97 76.80 159.01
C 70.45 133.24 68.43 115.49 68.45 85.35
C 68.46 59.73 68.75 55.61 71.28 46.50
C 75.22 32.29 79.81 23.53 87.37 15.81
C 92.84 10.23 95.02 8.93 101.20 7.58
C 107.13 6.28 109.59 6.28 113.97 7.58
C 122.32 10.08 126.00 13.41 130.28 22.36
C 132.45 26.88 135.02 30.57 136.00 30.57
C 136.98 30.57 139.55 26.88 141.72 22.36
C 153.26 -1.78 181.18 2.09 194.67 29.69
C 202.05 44.80 203.54 54.14 203.57 85.35
C 203.59 114.79 203.55 115.12 196.48 154.90
C 194.97 163.39 194.10 171.69 194.54 173.38
C 195.14 175.61 198.59 178.17 207.18 182.80
C 222.16 190.88 264.29 218.78 265.24 221.26
C 265.64 222.28 265.08 224.01 263.99 225.10
C 262.21 226.88 259.98 225.71 241.15 213.08
C 205.97 189.49 186.36 179.17 164.09 172.54
C 148.50 167.87 127.11 167.55 111.42 171.73
C 89.49 177.57 68.33 188.41 32.36 212.24
C 20.30 220.22 10.13 226.75 9.73 226.75
C 9.35 226.75 8.43 225.64 7.71 224.29"/>
<path fill="#079a0b" stroke="none" d="
M 59.21 382.82
C 58.81 381.77 59.92 378.48 61.68 375.49
C 68.77 363.44 82.42 351.12 97.29 343.35
C 103.32 340.20 104.78 339.87 106.46 341.27
C 108.29 342.78 108.29 343.30 106.44 346.94
C 100.22 359.15 84.82 374.14 71.00 381.41
C 63.91 385.15 60.27 385.58 59.21 382.82"/>
<path fill="#079a0b" stroke="none" d="
M 201.00 381.41
C 187.18 374.14 171.78 359.15 165.56 346.94
C 163.71 343.30 163.71 342.78 165.54 341.27
C 167.22 339.87 168.68 340.20 174.71 343.35
C 189.58 351.12 203.23 363.44 210.32 375.49
C 215.84 384.85 212.06 387.25 201.00 381.41"/>
<path fill="#079a0b" stroke="none" d="
M 125.53 340.29
C 112.17 336.38 102.54 326.88 99.62 314.70
C 97.63 306.45 100.28 296.92 106.60 289.54
C 112.50 282.66 117.56 279.67 127.58 277.10
C 135.21 275.13 136.36 275.13 144.50 277.12
C 158.92 280.65 169.30 290.33 172.38 303.13
C 173.65 308.38 173.54 310.60 171.78 316.66
C 168.88 326.60 159.10 336.50 149.28 339.41
C 138.50 342.61 134.05 342.78 125.53 340.29"/>
<path fill="#079a0b" stroke="none" d="
M 51.77 315.78
C 42.18 314.38 32.59 311.25 30.58 308.85
C 29.33 307.32 29.88 306.66 33.80 305.03
C 45.92 299.97 65.00 299.52 82.05 303.85
C 89.61 305.77 90.67 306.41 90.67 309.02
C 90.67 312.42 87.24 313.68 72.15 315.86
C 62.11 317.30 62.25 317.30 51.77 315.78"/>
<path fill="#079a0b" stroke="none" d="
M 202.40 316.34
C 200.30 316.08 194.41 314.98 189.31 313.90
C 181.15 312.17 180.06 311.59 180.06 309.06
C 180.06 304.65 195.34 301.25 214.54 301.38
C 229.41 301.48 241.05 304.19 242.27 307.85
C 242.99 309.97 230.65 314.23 219.12 315.82
C 213.69 316.59 208.57 317.11 207.74 317.01
C 206.91 316.90 204.51 316.60 202.40 316.34"/>
<path fill="#079a0b" stroke="none" d="
M 96.08 273.85
C 80.87 266.85 64.99 253.73 57.35 241.86
C 53.23 235.45 53.15 231.85 57.12 231.85
C 60.52 231.85 71.04 237.68 80.59 244.84
C 92.30 253.63 108.94 274.34 106.36 276.90
C 105.25 278.03 105.03 277.96 96.08 273.85"/>
<path fill="#079a0b" stroke="none" d="
M 165.58 276.85
C 163.35 274.64 181.05 252.59 191.12 245.06
C 212.43 229.10 223.86 227.54 214.65 241.86
C 206.86 253.97 190.94 267.02 175.50 273.92
C 165.92 278.22 166.71 277.97 165.58 276.85"/>
<path fill="#079a0b" stroke="none" d="
M 131.10 266.57
C 130.73 265.97 129.21 260.93 127.71 255.35
C 123.98 241.41 123.03 220.29 125.49 206.22
C 130.60 177.08 141.21 176.43 146.31 204.93
C 149.42 222.38 148.09 243.46 142.74 261.15
C 141.15 266.43 140.65 266.90 136.38 267.26
C 133.84 267.48 131.47 267.17 131.10 266.57"/>
<path fill="#1f793d" stroke="none" d="
M 121.53 591.97
C 120.54 590.79 120.68 585.85 122.02 574.46
C 123.64 560.56 126.32 528.90 131.62 460.51
C 132.44 450.00 133.47 421.10 133.92 396.28
C 134.53 361.90 135.11 351.03 136.32 350.64
C 137.57 350.22 137.92 357.26 137.92 383.02
C 137.92 401.12 138.52 426.52 139.24 439.49
C 141.02 471.16 147.67 554.76 149.98 574.46
C 151.32 585.85 151.46 590.79 150.47 591.97
C 149.51 593.13 145.18 593.63 136.00 593.63
C 126.82 593.63 122.49 593.13 121.53 591.97"/>
</g>
</svg>
