<?xml version="1.0" encoding="UTF-8" standalone="no"?>
<!DOCTYPE svg PUBLIC "-//W3C//DTD SVG 1.1//EN"
"http://www.w3.org/Graphics/SVG/1.1/DTD/svg11.dtd">
<svg width="468px" height="600px"
xmlns="http://www.w3.org/2000/svg" version="1.1">
<g transform="translate(0000, 0000) scale(1.0000, 1.0000)">
<path fill="#000000" stroke="none" d="
M 223.96 597.26
C 214.73 593.71 208.58 586.43 206.67 576.78
C 200.45 545.34 191.37 522.90 174.41 496.94
C 161.53 477.26 159.38 471.31 159.30 455.19
C 159.24 440.71 160.77 436.08 168.09 428.56
C 179.14 417.17 199.25 414.19 218.33 421.09
C 223.65 423.01 228.12 424.47 228.25 424.31
C 228.72 423.74 215.51 283.75 214.94 283.14
C 213.77 281.94 184.42 292.66 170.34 299.44
C 152.88 307.86 143.59 313.91 133.12 323.69
C 125.12 331.16 114.44 345.44 109.53 355.19
C 101.14 371.88 93.37 399.70 89.04 428.57
C 86.41 446.14 83.21 482.32 83.21 494.68
C 83.20 503.92 83.29 504.21 85.58 502.14
C 88.80 499.23 89.28 499.34 95.63 504.55
L 101.18 509.08
L 101.95 499.03
C 104.57 464.81 107.65 449.60 115.15 433.77
C 120.67 422.17 126.66 414.01 140.34 399.51
C 146.61 392.84 150.84 387.18 151.39 384.70
C 151.87 382.49 154.56 378.09 157.35 374.92
C 163.55 367.90 165.19 364.01 166.24 353.90
C 167.00 346.65 167.30 346.08 170.53 345.70
C 178.37 344.79 189.51 354.04 200.27 370.36
C 206.05 379.14 208.18 383.81 209.86 391.34
C 212.04 401.13 211.60 407.49 208.68 408.61
C 207.79 408.95 203.63 407.70 199.41 405.83
C 190.93 402.08 186.95 402.22 176.96 406.60
C 173.84 407.97 169.23 409.09 166.76 409.09
C 162.95 409.09 160.82 410.47 153.15 417.86
C 133.20 437.12 123.75 458.94 121.55 490.92
C 121.13 496.99 120.51 504.17 120.17 506.90
L 119.55 511.83
L 129.71 506.32
C 140.87 500.29 144.30 500.23 144.30 506.06
C 144.30 508.01 139.26 525.42 133.09 544.74
C 126.93 564.06 121.07 582.62 120.07 585.97
C 116.87 596.62 119.25 596.10 74.10 596.10
C 28.95 596.10 31.33 596.62 28.13 585.97
C 27.13 582.62 21.27 564.06 15.11 544.74
C 8.94 525.42 3.90 508.01 3.90 506.06
C 3.90 500.23 7.33 500.29 18.46 506.31
L 28.60 511.81
L 28.60 416.84
L 28.60 321.88
L 24.75 318.03
C 22.45 315.74 20.59 312.23 20.14 309.36
C 18.71 300.40 14.76 293.94 7.21 288.25
C 3.25 285.25 0.00 282.38 0.00 281.86
C 0.00 278.84 12.47 272.39 21.72 270.62
L 26.65 269.69
L 20.80 268.14
C 9.74 265.23 0.00 260.06 0.00 257.10
C 0.00 256.58 3.25 253.71 7.21 250.71
C 14.76 245.03 18.71 238.56 20.14 229.60
C 20.58 226.81 22.44 223.25 24.53 221.14
C 28.07 217.61 28.20 217.00 29.02 199.34
C 30.45 168.21 36.59 147.04 49.57 128.58
C 59.99 113.74 71.10 106.78 91.09 102.53
C 97.16 101.23 99.89 101.34 107.81 103.14
C 136.84 109.73 152.88 129.95 165.10 175.32
C 174.53 210.34 185.04 233.69 197.41 247.01
C 203.80 253.92 211.34 259.43 212.63 258.14
C 212.90 257.87 208.75 210.40 203.41 152.65
C 198.07 94.90 193.70 46.27 193.70 44.60
L 193.70 41.56
L 142.35 41.56
C 80.14 41.56 85.80 43.61 85.80 21.03
C 85.80 9.83 86.29 5.01 87.65 3.17
C 89.45 0.70 92.65 0.64 233.23 0.31
C 375.77 -0.03 376.99 -0.01 379.59 2.58
C 381.91 4.91 382.20 6.90 382.20 20.78
C 382.20 43.65 387.91 41.56 325.65 41.56
L 274.30 41.56
L 274.30 44.60
C 274.30 46.27 269.93 94.90 264.59 152.65
C 259.25 210.40 255.10 257.87 255.37 258.14
C 256.66 259.43 264.20 253.92 270.60 247.01
C 282.96 233.69 293.48 210.34 302.90 175.32
C 315.12 129.95 331.16 109.73 360.19 103.14
C 368.11 101.34 370.84 101.23 376.91 102.53
C 396.90 106.78 408.01 113.74 418.43 128.58
C 431.41 147.04 437.55 168.21 438.98 199.34
C 439.80 217.00 439.93 217.61 443.47 221.14
C 445.56 223.25 447.42 226.81 447.86 229.60
C 449.29 238.56 453.25 245.03 460.79 250.71
C 464.75 253.71 468.00 256.58 468.00 257.10
C 468.00 260.06 458.26 265.23 447.20 268.14
L 441.35 269.69
L 446.28 270.62
C 455.53 272.39 468.00 278.84 468.00 281.86
C 468.00 282.38 464.75 285.25 460.79 288.25
C 453.25 293.94 449.29 300.40 447.86 309.36
C 447.41 312.23 445.55 315.74 443.25 318.03
L 439.40 321.88
L 439.40 416.84
L 439.40 511.81
L 449.54 506.31
C 460.67 500.29 464.10 500.23 464.10 506.06
C 464.10 508.01 459.06 525.42 452.89 544.74
C 446.73 564.06 440.87 582.62 439.87 585.97
C 436.67 596.62 439.05 596.10 393.90 596.10
C 348.75 596.10 351.13 596.62 347.93 585.97
C 346.93 582.62 341.07 564.06 334.91 544.74
C 328.74 525.42 323.70 508.01 323.70 506.06
C 323.70 500.23 327.13 500.29 338.29 506.32
L 348.45 511.83
L 347.83 506.90
C 347.49 504.17 346.87 496.99 346.45 490.92
C 344.25 458.94 334.80 437.12 314.85 417.86
C 307.18 410.47 305.05 409.09 301.24 409.09
C 298.77 409.09 294.16 407.97 291.04 406.60
C 281.05 402.22 277.07 402.08 268.59 405.83
C 264.37 407.70 260.21 408.95 259.32 408.61
C 256.40 407.49 255.96 401.13 258.14 391.34
C 262.73 370.71 285.48 344.31 297.47 345.70
C 300.70 346.08 301.00 346.65 301.76 353.90
C 302.81 364.01 304.45 367.90 310.65 374.92
C 313.44 378.09 316.13 382.49 316.62 384.70
C 317.16 387.18 321.39 392.84 327.67 399.51
C 355.67 429.19 361.95 445.47 366.05 499.03
L 366.82 509.08
L 372.37 504.55
C 378.72 499.34 379.20 499.23 382.42 502.14
C 384.71 504.21 384.80 503.92 384.79 494.68
C 384.79 482.32 381.59 446.14 378.96 428.57
C 374.63 399.70 366.86 371.88 358.48 355.19
C 353.56 345.44 342.88 331.16 334.88 323.69
C 324.42 313.91 315.12 307.86 297.66 299.44
C 283.58 292.66 254.23 281.94 253.06 283.14
C 252.49 283.75 239.28 423.74 239.75 424.31
C 239.88 424.47 244.35 423.01 249.67 421.09
C 268.75 414.19 288.86 417.17 299.91 428.56
C 307.23 436.08 308.76 440.71 308.70 455.19
C 308.62 471.31 306.48 477.26 293.59 496.94
C 276.63 522.90 267.55 545.34 261.33 576.78
C 259.38 586.64 253.28 593.73 243.67 597.32
C 234.92 600.58 232.62 600.58 223.96 597.26
M 227.27 436.74
C 222.13 430.56 201.89 425.23 191.23 427.25
C 174.58 430.40 166.83 440.49 167.92 457.60
C 168.53 467.10 173.41 478.26 183.79 493.91
C 199.04 516.91 205.72 532.26 211.95 558.61
C 217.22 580.87 217.79 582.31 223.43 587.26
L 228.15 591.40
L 228.49 515.00
C 228.73 457.39 228.44 438.14 227.27 436.74
M 247.51 584.35
C 249.38 582.13 251.17 579.05 251.51 577.49
C 260.48 536.35 266.84 520.10 284.21 493.91
C 294.67 478.14 299.45 467.12 300.08 457.42
C 300.98 443.52 295.54 433.95 284.05 429.13
C 273.75 424.82 254.54 427.23 244.32 434.10
L 239.85 437.12
L 239.51 514.06
C 239.19 589.31 239.24 590.99 241.64 589.69
C 243.01 588.96 245.65 586.56 247.51 584.35
M 121.17 552.60
C 127.45 533.31 132.59 517.04 132.59 516.44
C 132.60 515.55 121.51 521.17 112.96 526.39
C 111.33 527.39 108.49 525.86 100.11 519.49
L 89.36 511.31
L 82.93 518.65
C 79.38 522.68 75.41 525.97 74.10 525.97
C 72.79 525.97 68.81 522.66 65.26 518.62
L 58.81 511.29
L 48.15 519.52
C 39.64 526.10 37.05 527.49 35.32 526.44
C 27.09 521.42 15.60 515.52 15.60 516.34
C 15.60 517.34 35.70 579.82 37.79 585.31
L 38.95 588.35
L 74.36 588.01
L 109.76 587.66
L 121.17 552.60
M 440.97 552.60
C 447.25 533.31 452.39 517.04 452.39 516.44
C 452.40 515.55 441.27 521.18 432.68 526.44
C 430.95 527.49 428.36 526.10 419.85 519.52
L 409.19 511.29
L 402.74 518.62
C 399.19 522.66 395.21 525.97 393.90 525.97
C 392.59 525.97 388.62 522.68 385.07 518.65
L 378.64 511.31
L 367.89 519.49
C 359.52 525.86 356.67 527.39 355.04 526.39
C 346.85 521.39 335.40 515.53 335.40 516.34
C 335.40 517.34 355.50 579.82 357.59 585.31
L 358.75 588.35
L 394.16 588.01
L 429.56 587.66
L 440.97 552.60
M 112.83 515.26
C 113.57 514.36 114.82 504.96 115.60 494.36
C 118.66 453.01 125.42 435.74 147.33 413.29
C 157.16 403.22 157.68 402.42 155.62 400.36
C 153.57 398.31 153.20 398.34 149.84 400.82
C 143.34 405.62 127.54 425.00 122.81 434.00
C 113.79 451.16 110.11 466.38 107.89 495.71
C 106.89 508.74 106.92 513.77 108.03 515.09
C 109.88 517.31 111.10 517.35 112.83 515.26
M 359.97 515.09
C 361.07 513.77 361.11 508.74 360.11 495.71
C 357.89 466.38 354.21 451.16 345.19 434.00
C 340.46 425.00 324.66 405.62 318.16 400.82
C 314.80 398.34 314.43 398.31 312.38 400.36
C 310.32 402.42 310.84 403.22 320.67 413.29
C 342.58 435.74 349.34 453.01 352.40 494.36
C 353.98 515.66 355.67 520.27 359.97 515.09
M 42.90 416.01
L 42.90 322.08
L 38.35 322.08
L 33.80 322.08
L 33.80 417.27
C 33.80 489.27 34.18 512.84 35.35 514.01
C 36.56 515.22 37.58 514.94 39.90 512.75
L 42.90 509.94
L 42.90 416.01
M 434.20 417.38
L 434.20 322.08
L 429.65 322.08
L 425.10 322.08
L 425.10 415.83
L 425.10 509.57
L 427.91 512.56
C 434.24 519.30 434.20 519.91 434.20 417.38
M 78.01 485.68
C 81.81 420.84 90.05 378.39 104.33 350.00
C 112.52 333.71 128.05 316.25 143.35 306.09
C 155.08 298.32 178.00 287.82 196.70 281.65
C 206.13 278.53 214.06 275.88 214.31 275.74
C 214.55 275.61 214.38 273.25 213.92 270.49
C 213.13 265.94 212.51 265.30 206.78 263.27
C 202.25 261.66 198.34 258.74 192.82 252.84
C 179.92 239.05 169.49 216.18 159.90 180.52
C 149.70 142.61 136.56 122.25 116.23 112.74
C 83.29 97.34 47.80 125.27 37.54 174.65
C 36.21 181.09 34.72 193.23 34.26 201.62
L 33.40 216.88
L 37.51 216.88
L 41.60 216.88
L 41.64 206.82
C 41.77 175.65 50.77 146.97 65.21 131.71
C 73.24 123.23 79.62 119.27 90.05 116.32
C 97.23 114.29 97.97 114.31 106.38 116.82
C 118.04 120.29 126.06 125.79 133.12 135.17
C 141.49 146.29 144.61 153.73 152.67 181.68
C 164.39 222.27 174.40 243.49 189.58 259.90
C 194.52 265.25 197.63 269.69 197.37 271.04
C 197.07 272.57 191.71 275.42 180.69 279.90
C 149.94 292.40 134.75 301.83 119.29 317.99
C 89.30 349.36 75.32 397.19 70.33 485.71
C 69.26 504.62 69.37 507.42 71.20 509.45
C 75.35 514.08 76.60 509.75 78.01 485.68
M 397.68 485.71
C 392.60 396.95 378.70 349.35 348.71 317.99
C 333.26 301.83 318.06 292.40 287.31 279.90
C 276.29 275.42 270.93 272.57 270.63 271.04
C 270.37 269.69 273.48 265.25 278.42 259.90
C 293.61 243.49 303.62 222.27 315.33 181.68
C 323.39 153.73 326.51 146.29 334.88 135.17
C 341.94 125.79 349.96 120.29 361.62 116.82
C 370.03 114.31 370.77 114.29 377.95 116.32
C 388.38 119.27 394.76 123.23 402.79 131.71
C 417.24 146.97 426.23 175.65 426.36 206.82
L 426.40 216.88
L 430.50 216.88
L 434.60 216.88
L 433.75 201.62
C 433.28 193.23 431.79 181.09 430.46 174.65
C 420.20 125.27 384.71 97.34 351.77 112.74
C 331.44 122.25 318.31 142.61 308.10 180.52
C 298.51 216.18 288.08 239.05 275.18 252.84
C 269.66 258.74 265.75 261.66 261.22 263.27
C 255.49 265.30 254.87 265.94 254.09 270.49
C 253.62 273.25 253.45 275.61 253.70 275.74
C 253.94 275.88 261.87 278.53 271.30 281.65
C 290.00 287.82 312.92 298.32 324.65 306.09
C 339.95 316.25 355.49 333.71 363.68 350.00
C 377.94 378.38 386.19 420.86 389.99 485.58
C 391.39 509.61 392.52 513.68 396.63 509.48
C 398.72 507.34 398.81 505.40 397.68 485.71
M 61.15 501.03
C 63.31 502.38 63.58 501.90 64.22 495.74
C 64.60 492.01 65.26 481.95 65.68 473.38
C 67.38 438.91 73.14 399.61 79.98 375.97
C 87.93 348.45 98.23 329.38 114.09 312.79
C 129.26 296.94 149.76 284.31 177.06 274.00
L 188.36 269.74
L 182.16 262.79
C 168.87 247.90 158.57 225.34 147.47 186.87
C 139.41 158.92 136.29 151.48 127.92 140.36
C 118.08 127.29 102.96 119.52 92.69 122.29
C 66.38 129.34 47.06 166.23 46.84 209.86
C 46.80 216.91 47.12 217.91 49.84 219.16
C 53.16 220.65 57.20 227.95 57.20 232.39
C 57.20 237.62 62.41 245.38 69.56 250.77
C 73.49 253.73 76.70 256.58 76.70 257.10
C 76.70 260.06 66.96 265.23 55.90 268.14
L 50.05 269.69
L 54.98 270.62
C 64.23 272.39 76.70 278.84 76.70 281.86
C 76.70 282.38 73.45 285.25 69.48 288.25
C 61.95 293.94 57.99 300.40 56.56 309.36
C 56.11 312.23 54.25 315.74 51.95 318.03
L 48.10 321.88
L 48.10 414.95
L 48.10 508.01
L 53.44 503.78
C 57.86 500.29 59.20 499.81 61.15 501.03
M 416.05 318.04
C 413.75 315.74 411.89 312.25 411.44 309.36
C 410.01 300.40 406.06 293.94 398.52 288.25
C 394.55 285.25 391.30 282.38 391.30 281.86
C 391.30 278.90 401.04 273.73 412.10 270.82
L 417.95 269.27
L 413.02 268.34
C 403.77 266.57 391.30 260.12 391.30 257.10
C 391.30 256.58 394.51 253.73 398.44 250.77
C 405.59 245.38 410.80 237.62 410.80 232.39
C 410.80 227.95 414.84 220.65 418.16 219.16
C 420.88 217.91 421.20 216.91 421.16 209.86
C 420.94 166.23 401.62 129.34 375.31 122.29
C 365.04 119.52 349.92 127.29 340.08 140.36
C 331.71 151.48 328.59 158.92 320.53 186.87
C 309.43 225.34 299.13 247.90 285.84 262.79
L 279.64 269.74
L 290.94 274.00
C 345.25 294.51 372.85 323.49 388.02 375.97
C 394.86 399.61 400.62 438.91 402.32 473.38
C 402.74 481.95 403.40 492.01 403.78 495.74
C 404.42 501.91 404.69 502.38 406.86 501.03
C 408.82 499.79 410.10 500.23 414.25 503.55
L 419.25 507.56
L 419.59 414.73
L 419.91 321.90
L 416.05 318.04
M 175.72 398.77
C 184.67 394.81 191.46 394.16 197.70 396.65
L 203.11 398.81
L 202.25 393.88
C 200.76 385.32 193.43 372.45 185.20 363.96
C 176.75 355.23 174.20 354.06 174.20 358.94
C 174.20 364.17 170.29 371.79 164.31 378.19
C 156.99 386.03 156.96 390.45 164.19 398.38
C 167.44 401.95 168.44 401.97 175.72 398.77
M 303.81 398.38
C 311.04 390.45 311.01 386.03 303.69 378.19
C 297.71 371.79 293.80 364.17 293.80 358.94
C 293.80 354.06 291.25 355.23 282.80 363.96
C 274.57 372.45 267.24 385.32 265.75 393.88
L 264.89 398.81
L 270.26 396.66
C 276.47 394.18 283.75 394.84 291.85 398.65
C 298.75 401.90 300.65 401.84 303.81 398.38
M 249.76 208.35
C 257.37 125.55 263.97 54.43 264.39 50.32
L 265.16 42.86
L 233.83 42.86
L 202.51 42.86
L 203.22 47.08
C 203.61 49.40 210.17 119.97 217.79 203.90
C 225.42 287.82 231.89 357.27 232.18 358.22
C 232.47 359.18 233.42 359.71 234.30 359.43
C 235.43 359.05 239.88 315.52 249.76 208.35
M 43.47 313.75
C 47.88 311.91 48.49 310.90 50.08 302.60
C 51.27 296.38 56.38 287.84 60.54 285.13
C 62.87 283.60 63.56 282.45 62.66 281.56
C 60.53 279.43 46.80 276.66 38.35 276.66
C 29.90 276.66 16.17 279.43 14.04 281.56
C 13.14 282.45 13.83 283.60 16.16 285.13
C 20.32 287.84 25.43 296.38 26.62 302.60
C 28.21 310.84 28.81 311.90 32.96 313.70
C 38.13 315.95 38.21 315.95 43.47 313.75
M 434.77 313.75
C 439.18 311.91 439.79 310.90 441.38 302.60
C 442.57 296.38 447.68 287.84 451.84 285.13
C 454.17 283.60 454.86 282.45 453.96 281.56
C 451.83 279.43 438.10 276.66 429.65 276.66
C 421.20 276.66 407.47 279.43 405.34 281.56
C 404.44 282.45 405.13 283.60 407.46 285.13
C 411.62 287.84 416.73 296.38 417.92 302.60
C 419.51 310.84 420.11 311.90 424.26 313.70
C 429.43 315.95 429.51 315.95 434.77 313.75
M 53.74 260.51
C 63.49 258.22 64.99 256.75 60.54 253.83
C 56.38 251.12 51.27 242.58 50.08 236.36
C 48.48 228.04 47.88 227.05 43.32 225.14
C 39.72 223.64 37.86 223.56 34.33 224.71
C 29.33 226.36 28.05 228.22 26.73 235.71
C 25.54 242.40 20.55 250.96 16.16 253.83
C 11.78 256.70 13.21 258.23 22.33 260.44
C 31.55 262.68 44.43 262.70 53.74 260.51
M 445.04 260.51
C 454.79 258.22 456.29 256.75 451.84 253.83
C 447.68 251.12 442.57 242.58 441.38 236.36
C 439.78 228.04 439.18 227.05 434.62 225.14
C 431.02 223.64 429.16 223.56 425.63 224.71
C 420.63 226.36 419.35 228.22 418.03 235.71
C 416.84 242.40 411.85 250.96 407.46 253.83
C 403.08 256.70 404.51 258.23 413.63 260.44
C 422.85 262.68 435.73 262.70 445.04 260.51
M 372.84 32.21
C 374.92 30.13 374.92 11.43 372.84 9.35
C 370.58 7.09 97.42 7.09 95.16 9.35
C 93.08 11.43 93.08 30.13 95.16 32.21
C 97.42 34.47 370.58 34.47 372.84 32.21"/>
<path fill="#cf280d" stroke="none" d="
M 223.43 587.26
C 217.79 582.31 217.22 580.87 211.95 558.61
C 205.72 532.26 199.04 516.91 183.79 493.91
C 173.41 478.26 168.53 467.10 167.92 457.60
C 166.83 440.49 174.58 430.40 191.23 427.25
C 201.89 425.23 222.13 430.56 227.27 436.74
C 228.44 438.14 228.73 457.39 228.49 515.00
L 228.15 591.40
L 223.43 587.26"/>
<path fill="#cf280d" stroke="none" d="
M 239.51 514.06
L 239.85 437.12
L 244.32 434.10
C 254.54 427.23 273.75 424.82 284.05 429.13
C 295.54 433.95 300.98 443.52 300.08 457.42
C 299.45 467.12 294.67 478.14 284.21 493.91
C 266.84 520.10 260.48 536.35 251.51 577.49
C 250.78 580.84 245.14 587.83 241.64 589.69
C 239.24 590.99 239.19 589.31 239.51 514.06"/>
<path fill="#cf280d" stroke="none" d="
M 232.18 358.22
C 231.89 357.27 225.42 287.82 217.79 203.90
C 210.17 119.97 203.61 49.40 203.22 47.08
L 202.51 42.86
L 233.83 42.86
L 265.16 42.86
L 264.39 50.32
C 263.97 54.43 257.37 125.55 249.76 208.35
C 239.88 315.52 235.43 359.05 234.30 359.43
C 233.42 359.71 232.47 359.18 232.18 358.22"/>
<path fill="#cf280d" stroke="none" d="
M 95.16 32.21
C 94.21 31.26 93.60 26.68 93.60 20.57
C 93.60 11.92 93.96 10.29 96.11 9.14
C 99.97 7.08 370.77 7.29 372.84 9.35
C 374.92 11.43 374.92 30.13 372.84 32.21
C 370.58 34.47 97.42 34.47 95.16 32.21"/>
<path fill="#39a917" stroke="none" d="
M 108.03 515.09
C 106.92 513.77 106.89 508.74 107.89 495.71
C 110.11 466.38 113.79 451.16 122.81 434.00
C 127.54 425.00 143.34 405.62 149.84 400.82
C 153.20 398.34 153.57 398.31 155.62 400.36
C 157.68 402.42 157.16 403.22 147.33 413.29
C 125.42 435.74 118.66 453.01 115.60 494.36
C 114.02 515.66 112.33 520.27 108.03 515.09"/>
<path fill="#39a917" stroke="none" d="
M 355.17 515.26
C 354.43 514.36 353.18 504.96 352.40 494.36
C 349.34 453.01 342.58 435.74 320.67 413.29
C 310.84 403.22 310.32 402.42 312.38 400.36
C 314.43 398.31 314.80 398.34 318.16 400.82
C 324.66 405.62 340.46 425.00 345.19 434.00
C 354.21 451.16 357.89 466.38 360.11 495.71
C 361.11 508.74 361.07 513.77 359.97 515.09
C 358.12 517.31 356.90 517.35 355.17 515.26"/>
<path fill="#39a917" stroke="none" d="
M 35.35 514.01
C 34.18 512.84 33.80 489.27 33.80 417.27
L 33.80 322.08
L 38.35 322.08
L 42.90 322.08
L 42.90 416.01
L 42.90 509.94
L 39.90 512.75
C 37.58 514.94 36.56 515.22 35.35 514.01"/>
<path fill="#39a917" stroke="none" d="
M 427.91 512.56
L 425.10 509.57
L 425.10 415.83
L 425.10 322.08
L 429.65 322.08
L 434.20 322.08
L 434.20 417.38
C 434.20 519.91 434.24 519.30 427.91 512.56"/>
<path fill="#39a917" stroke="none" d="
M 71.20 509.45
C 69.37 507.42 69.26 504.62 70.33 485.71
C 75.32 397.19 89.30 349.36 119.29 317.99
C 134.75 301.83 149.94 292.40 180.69 279.90
C 191.71 275.42 197.07 272.57 197.37 271.04
C 197.63 269.69 194.52 265.25 189.58 259.90
C 174.40 243.49 164.39 222.27 152.67 181.68
C 144.61 153.73 141.49 146.29 133.12 135.17
C 126.06 125.79 118.04 120.29 106.38 116.82
C 97.97 114.31 97.23 114.29 90.05 116.32
C 79.62 119.27 73.24 123.23 65.21 131.71
C 50.77 146.97 41.77 175.65 41.64 206.82
L 41.60 216.88
L 37.51 216.88
L 33.40 216.88
L 34.26 201.62
C 36.39 163.45 48.89 133.65 68.98 118.88
C 90.53 103.03 113.79 105.35 133.38 125.31
C 144.56 136.70 152.61 153.47 159.90 180.52
C 169.49 216.18 179.92 239.05 192.82 252.84
C 198.34 258.74 202.25 261.66 206.78 263.27
C 212.51 265.30 213.13 265.94 213.92 270.49
C 214.38 273.25 214.55 275.61 214.31 275.74
C 214.06 275.88 206.13 278.53 196.70 281.65
C 178.00 287.82 155.08 298.32 143.35 306.09
C 128.05 316.25 112.52 333.71 104.33 350.00
C 90.05 378.39 81.81 420.84 78.01 485.68
C 76.60 509.75 75.35 514.08 71.20 509.45"/>
<path fill="#39a917" stroke="none" d="
M 392.82 510.01
C 391.94 508.94 390.77 498.91 389.99 485.58
C 386.19 420.86 377.94 378.38 363.68 350.00
C 355.49 333.71 339.95 316.25 324.65 306.09
C 312.92 298.32 290.00 287.82 271.30 281.65
C 261.87 278.53 253.94 275.88 253.70 275.74
C 253.45 275.61 253.62 273.25 254.09 270.49
C 254.87 265.94 255.49 265.30 261.22 263.27
C 265.75 261.66 269.66 258.74 275.18 252.84
C 288.08 239.05 298.51 216.18 308.10 180.52
C 318.31 142.61 331.44 122.25 351.77 112.74
C 384.71 97.34 420.20 125.27 430.46 174.65
C 431.79 181.09 433.28 193.23 433.75 201.62
L 434.60 216.88
L 430.50 216.88
L 426.40 216.88
L 426.36 206.82
C 426.23 175.65 417.24 146.97 402.79 131.71
C 394.76 123.23 388.38 119.27 377.95 116.32
C 370.77 114.29 370.03 114.31 361.62 116.82
C 349.96 120.29 341.94 125.79 334.88 135.17
C 326.51 146.29 323.39 153.73 315.33 181.68
C 303.62 222.27 293.61 243.49 278.42 259.90
C 273.48 265.25 270.37 269.69 270.63 271.04
C 270.93 272.57 276.29 275.42 287.31 279.90
C 318.06 292.40 333.26 301.83 348.71 317.99
C 378.70 349.35 392.60 396.95 397.68 485.71
C 398.81 505.40 398.72 507.34 396.63 509.48
C 394.68 511.47 394.11 511.56 392.82 510.01"/>
<path fill="#39a917" stroke="none" d="
M 164.19 398.38
C 156.96 390.45 156.99 386.03 164.31 378.19
C 170.29 371.79 174.20 364.17 174.20 358.94
C 174.20 354.06 176.75 355.23 185.20 363.96
C 193.43 372.45 200.76 385.32 202.25 393.88
L 203.11 398.81
L 197.70 396.65
C 191.46 394.16 184.67 394.81 175.72 398.77
C 168.44 401.97 167.44 401.95 164.19 398.38"/>
<path fill="#39a917" stroke="none" d="
M 291.85 398.65
C 283.75 394.84 276.47 394.18 270.26 396.66
L 264.89 398.81
L 265.75 393.88
C 267.24 385.32 274.57 372.45 282.80 363.96
C 291.25 355.23 293.80 354.06 293.80 358.94
C 293.80 364.17 297.71 371.79 303.69 378.19
C 311.01 386.03 311.04 390.45 303.81 398.38
C 300.65 401.84 298.75 401.90 291.85 398.65"/>
<path fill="#39a917" stroke="none" d="
M 32.96 313.70
C 28.81 311.90 28.21 310.84 26.62 302.60
C 25.43 296.38 20.32 287.84 16.16 285.13
C 13.83 283.60 13.14 282.45 14.04 281.56
C 16.17 279.43 29.90 276.66 38.35 276.66
C 46.80 276.66 60.53 279.43 62.66 281.56
C 63.56 282.45 62.87 283.60 60.54 285.13
C 56.38 287.84 51.27 296.38 50.08 302.60
C 48.49 310.90 47.88 311.91 43.47 313.75
C 38.21 315.95 38.13 315.95 32.96 313.70"/>
<path fill="#39a917" stroke="none" d="
M 424.26 313.70
C 420.11 311.90 419.51 310.84 417.92 302.60
C 416.73 296.38 411.62 287.84 407.46 285.13
C 405.13 283.60 404.44 282.45 405.34 281.56
C 407.47 279.43 421.20 276.66 429.65 276.66
C 438.10 276.66 451.83 279.43 453.96 281.56
C 454.86 282.45 454.17 283.60 451.84 285.13
C 447.68 287.84 442.57 296.38 441.38 302.60
C 439.79 310.90 439.18 311.91 434.77 313.75
C 429.51 315.95 429.43 315.95 424.26 313.70"/>
<path fill="#39a917" stroke="none" d="
M 22.33 260.44
C 13.21 258.23 11.78 256.70 16.16 253.83
C 20.55 250.96 25.54 242.40 26.73 235.71
C 28.05 228.22 29.33 226.36 34.33 224.71
C 37.86 223.56 39.72 223.64 43.32 225.14
C 47.88 227.05 48.48 228.04 50.08 236.36
C 51.27 242.58 56.38 251.12 60.54 253.83
C 64.99 256.75 63.49 258.22 53.74 260.51
C 44.43 262.70 31.55 262.68 22.33 260.44"/>
<path fill="#39a917" stroke="none" d="
M 413.63 260.44
C 404.51 258.23 403.08 256.70 407.46 253.83
C 411.85 250.96 416.84 242.40 418.03 235.71
C 419.35 228.22 420.63 226.36 425.63 224.71
C 429.16 223.56 431.02 223.64 434.62 225.14
C 439.18 227.05 439.78 228.04 441.38 236.36
C 442.57 242.58 447.68 251.12 451.84 253.83
C 456.29 256.75 454.79 258.22 445.04 260.51
C 435.73 262.70 422.85 262.68 413.63 260.44"/>
<path fill="#c55436" stroke="none" d="
M 37.79 585.31
C 35.70 579.82 15.60 517.34 15.60 516.34
C 15.60 515.53 27.07 521.40 35.27 526.40
C 36.93 527.43 39.70 525.96 48.18 519.58
L 58.97 511.45
L 65.34 518.71
C 68.85 522.70 72.79 525.97 74.10 525.97
C 75.41 525.97 79.38 522.68 82.93 518.65
L 89.36 511.31
L 100.11 519.49
C 108.49 525.86 111.33 527.39 112.96 526.39
C 121.51 521.17 132.60 515.55 132.59 516.44
C 132.59 517.04 127.45 533.31 121.17 552.60
L 109.76 587.66
L 74.36 588.01
L 38.95 588.35
L 37.79 585.31"/>
<path fill="#c55436" stroke="none" d="
M 357.59 585.31
C 355.50 579.82 335.40 517.34 335.40 516.34
C 335.40 515.53 346.85 521.39 355.04 526.39
C 356.67 527.39 359.52 525.86 367.89 519.49
L 378.64 511.31
L 385.07 518.65
C 388.62 522.68 392.59 525.97 393.90 525.97
C 395.21 525.97 399.19 522.66 402.74 518.62
L 409.19 511.29
L 419.85 519.52
C 428.36 526.10 430.95 527.49 432.68 526.44
C 441.27 521.18 452.40 515.55 452.39 516.44
C 452.39 517.04 447.25 533.31 440.97 552.60
L 429.56 587.66
L 394.16 588.01
L 358.75 588.35
L 357.59 585.31"/>
</g>
</svg>
