<?xml version="1.0" encoding="UTF-8" standalone="no"?>
<!DOCTYPE svg PUBLIC "-//W3C//DTD SVG 1.1//EN"
"http://www.w3.org/Graphics/SVG/1.1/DTD/svg11.dtd">
<svg width="600px" height="272px"
xmlns="http://www.w3.org/2000/svg" version="1.1">
<g transform="translate(0000, 0000) scale(1.0000, 1.0000)">
<path fill="#000000" stroke="none" d="
M 2.54 269.46
C 0.16 267.08 0.00 265.23 0.00 240.86
C 0.00 216.49 0.16 214.64 2.54 212.26
C 5.00 209.80 6.76 209.72 62.16 209.72
C 110.00 209.72 119.24 209.44 119.24 207.95
C 119.24 206.99 109.24 163.38 97.04 111.05
C 84.82 58.72 74.84 13.59 74.84 10.74
C 74.84 7.89 75.65 4.46 76.64 3.10
C 78.39 0.71 80.97 0.62 162.24 0.29
L 246.04 -0.05
L 248.77 2.68
C 251.15 5.07 251.39 6.38 250.77 13.19
C 250.33 18.09 239.44 55.57 221.44 114.25
C 205.70 165.55 192.81 208.02 192.81 208.63
C 192.81 209.22 233.94 209.72 284.78 209.72
C 335.37 209.72 376.74 209.52 376.74 209.27
C 376.74 209.02 369.62 185.43 360.90 156.84
C 352.17 128.25 345.04 103.28 345.04 101.36
C 345.03 99.45 346.17 96.73 347.57 95.33
C 350.04 92.85 351.79 92.79 417.97 92.79
C 484.15 92.79 485.90 92.85 488.37 95.33
C 489.88 96.84 490.91 99.56 490.91 102.06
C 490.91 104.36 482.35 129.26 471.88 157.39
C 461.42 185.53 452.85 208.82 452.85 209.13
C 452.85 209.45 484.82 209.72 523.89 209.72
C 593.24 209.72 594.99 209.78 597.46 212.26
C 599.84 214.64 600.00 216.49 600.00 240.86
C 600.00 265.23 599.84 267.08 597.46 269.46
C 594.94 271.99 593.24 272.00 300.00 272.00
C 6.76 272.00 5.06 271.99 2.54 269.46
M 590.87 262.85
C 593.00 260.71 593.00 221.01 590.87 218.87
C 588.65 216.65 11.35 216.65 9.13 218.87
C 7.00 221.01 7.00 260.71 9.13 262.85
C 11.35 265.07 588.65 265.07 590.87 262.85
M 182.66 208.18
C 182.66 207.33 196.40 162.68 213.18 108.95
C 237.48 31.20 243.40 10.88 242.21 9.44
C 240.94 7.91 228.79 7.63 163.00 7.63
C 102.38 7.63 85.01 7.97 84.01 9.21
C 83.10 10.33 89.53 40.25 105.73 110.25
L 128.75 209.71
L 155.71 209.71
C 175.98 209.72 182.66 209.34 182.66 208.18
M 462.66 156.97
C 473.40 128.31 482.30 104.01 482.42 102.95
C 482.64 101.29 474.76 101.01 419.32 100.72
C 381.37 100.53 355.50 100.86 354.79 101.57
C 354.05 102.31 359.82 123.20 369.88 156.26
L 386.16 209.77
L 414.65 209.43
L 443.14 209.08
L 462.66 156.97"/>
<path fill="#c55436" stroke="none" d="
M 105.70 110.25
C 84.90 20.46 82.86 10.65 84.70 9.21
C 86.28 7.98 104.08 7.63 163.73 7.63
C 228.89 7.63 240.94 7.91 242.21 9.44
C 243.40 10.88 237.48 31.20 213.18 108.95
C 196.40 162.68 182.66 207.33 182.66 208.18
C 182.66 209.34 175.98 209.72 155.71 209.71
L 128.75 209.71
L 105.70 110.25"/>
<path fill="#c55436" stroke="none" d="
M 369.88 156.26
C 359.82 123.20 354.05 102.31 354.79 101.57
C 355.50 100.86 381.37 100.53 419.32 100.72
C 474.76 101.01 482.64 101.29 482.42 102.95
C 482.30 104.01 473.40 128.31 462.66 156.97
L 443.14 209.08
L 414.65 209.43
L 386.16 209.77
L 369.88 156.26"/>
<path fill="#ef907a" stroke="none" d="
M 9.13 262.85
C 8.08 261.79 7.61 255.03 7.61 240.66
C 7.61 221.51 7.79 219.88 10.06 218.67
C 13.85 216.63 588.84 216.84 590.87 218.87
C 593.00 221.01 593.00 260.71 590.87 262.85
C 588.65 265.07 11.35 265.07 9.13 262.85"/>
</g>
</svg>
