<?xml version="1.0" encoding="UTF-8" standalone="no"?>
<!DOCTYPE svg PUBLIC "-//W3C//DTD SVG 1.1//EN"
"http://www.w3.org/Graphics/SVG/1.1/DTD/svg11.dtd">
<svg width="600px" height="557px"
xmlns="http://www.w3.org/2000/svg" version="1.1">
<g transform="translate(0000, 0000) scale(1.0000, 1.0000)">
<path fill="#000000" stroke="none" d="
M 8.91 553.66
C 2.66 551.20 0.50 549.78 0.24 547.90
C -0.20 544.86 0.08 543.79 22.59 465.36
C 32.44 430.98 43.16 392.28 46.42 379.33
C 53.23 352.22 56.26 343.44 60.12 339.57
C 62.84 336.84 63.16 336.82 92.32 336.76
L 121.78 336.70
L 114.72 333.06
C 98.84 324.85 87.48 308.33 83.50 287.65
C 81.64 277.98 81.64 276.64 83.50 266.97
C 88.94 238.70 106.49 220.61 134.04 214.85
C 145.31 212.51 149.54 212.59 160.61 215.39
C 187.32 222.12 203.48 239.43 208.78 266.97
C 210.64 276.64 210.64 277.98 208.78 287.65
C 204.80 308.33 193.44 324.85 177.55 333.06
L 170.50 336.70
L 223.16 336.76
L 275.83 336.82
L 275.17 333.55
C 273.24 324.05 254.01 205.10 251.94 189.83
C 247.06 153.91 245.75 115.77 248.83 98.78
C 253.14 74.96 263.69 61.62 283.26 55.21
C 286.59 54.13 289.46 53.11 289.66 52.94
C 289.96 52.69 286.61 38.59 282.67 23.51
L 281.49 19.04
L 270.25 19.04
C 260.59 19.04 258.68 18.71 256.63 16.66
C 253.81 13.83 253.43 6.36 255.94 2.90
C 257.55 0.70 259.63 0.58 299.26 0.25
C 339.80 -0.08 340.97 -0.02 343.32 2.33
C 346.59 5.61 346.61 13.41 343.37 16.66
C 341.32 18.71 339.41 19.04 329.75 19.04
L 318.51 19.04
L 317.33 23.51
C 313.39 38.59 310.04 52.69 310.34 52.94
C 310.54 53.11 313.41 54.13 316.74 55.21
C 336.31 61.62 346.86 74.96 351.17 98.78
C 354.25 115.77 352.94 153.91 348.06 189.83
C 345.99 205.10 326.76 324.05 324.83 333.55
L 324.17 336.82
L 375.05 336.81
L 425.94 336.79
L 420.59 333.75
C 411.98 328.84 407.50 323.77 402.53 313.26
C 392.89 292.90 389.25 270.12 389.17 229.70
C 389.12 201.16 391.38 177.41 395.54 162.84
C 401.55 141.77 414.31 127.24 432.80 120.39
C 444.33 116.10 450.71 115.92 461.45 119.53
C 496.13 131.19 507.99 159.34 507.86 229.70
C 507.78 269.54 504.21 292.37 494.90 312.56
C 490.15 322.87 485.74 328.19 477.62 333.37
L 472.28 336.77
L 504.71 336.79
C 537.01 336.82 537.15 336.83 539.88 339.57
C 543.74 343.44 546.77 352.22 553.58 379.33
C 556.84 392.28 567.56 430.98 577.41 465.36
C 599.92 543.79 600.20 544.86 599.76 547.90
C 599.50 549.78 597.34 551.20 591.09 553.66
C 577.26 559.06 577.21 559.04 572.22 544.80
C 566.93 529.71 563.92 519.91 555.47 490.35
C 551.81 477.58 547.85 465.81 546.67 464.17
L 544.49 461.19
L 300.00 461.19
L 55.51 461.19
L 53.33 464.17
C 52.15 465.81 48.19 477.58 44.53 490.35
C 36.08 519.91 33.07 529.71 27.78 544.80
C 22.79 559.04 22.74 559.06 8.91 553.66
M 34.99 499.47
C 38.69 486.92 42.78 472.99 44.09 468.50
C 45.41 464.01 47.76 459.06 49.33 457.49
L 52.17 454.65
L 300.00 454.65
L 547.83 454.65
L 550.67 457.49
C 552.24 459.06 554.59 464.01 555.91 468.50
C 568.18 510.45 572.41 524.16 576.67 535.92
L 581.61 549.56
L 586.55 547.63
C 589.26 546.56 591.80 545.38 592.18 545.00
C 592.56 544.62 588.63 529.35 583.45 511.08
C 556.53 416.18 550.74 395.32 546.37 377.47
C 541.52 357.66 538.35 348.58 534.97 344.85
C 533.22 342.90 526.59 342.77 428.14 342.77
C 326.59 342.77 323.17 342.84 323.17 344.98
C 323.17 346.20 322.82 349.68 322.41 352.72
L 321.66 358.24
L 422.13 358.24
L 522.59 358.24
L 524.95 361.23
C 526.24 362.87 527.94 367.02 528.75 370.45
C 529.54 373.88 533.06 387.50 536.58 400.71
C 543.62 427.19 544.18 432.01 540.59 435.60
C 538.23 437.97 536.64 437.98 300.00 437.98
C 63.36 437.98 61.77 437.97 59.41 435.60
C 55.82 432.01 56.38 427.19 63.42 400.71
C 66.94 387.50 70.46 373.88 71.25 370.45
C 72.06 367.02 73.76 362.87 75.05 361.23
L 77.41 358.24
L 177.87 358.24
L 278.34 358.24
L 277.59 352.72
C 277.18 349.68 276.83 346.20 276.83 344.98
C 276.83 342.84 273.41 342.77 171.86 342.77
C 73.41 342.77 66.78 342.90 65.03 344.85
C 61.65 348.58 58.48 357.66 53.63 377.47
C 49.26 395.32 43.47 416.18 16.55 511.08
C 11.37 529.35 7.44 544.62 7.82 545.00
C 8.20 545.38 10.74 546.56 13.45 547.63
L 18.39 549.56
L 23.33 535.92
C 26.06 528.41 31.30 512.01 34.99 499.47
M 260.20 423.34
C 280.50 407.78 283.94 398.12 279.65 368.66
L 278.99 364.19
L 180.57 364.19
C 72.67 364.19 79.33 363.74 77.73 371.12
C 77.33 372.87 73.84 386.54 69.94 401.49
C 64.41 422.75 63.16 429.04 64.25 430.35
C 65.42 431.77 79.90 432.03 157.27 432.01
L 248.91 432.00
L 260.20 423.34
M 332.67 427.53
C 317.04 414.69 313.30 407.11 313.19 388.00
C 313.09 370.92 315.61 352.06 328.54 273.14
C 345.39 170.29 347.81 149.50 346.57 118.52
C 345.35 87.82 338.95 74.59 320.97 65.57
C 303.98 57.03 295.62 57.08 278.44 65.82
C 261.08 74.64 254.64 88.20 253.43 118.52
C 252.19 149.50 254.61 170.29 271.46 273.14
C 284.39 352.06 286.91 370.92 286.81 388.00
C 286.70 407.11 282.96 414.69 267.33 427.53
L 261.98 431.92
L 300.00 431.92
L 338.02 431.92
L 332.67 427.53
M 535.75 430.35
C 536.84 429.04 535.59 422.75 530.06 401.49
C 526.16 386.54 522.67 372.87 522.27 371.12
C 520.67 363.74 527.33 364.19 419.43 364.19
L 321.01 364.19
L 320.35 368.66
C 316.06 398.12 319.50 407.78 339.80 423.34
L 351.09 432.00
L 442.73 432.01
C 520.10 432.03 534.58 431.77 535.75 430.35
M 157.19 332.66
C 180.37 326.62 197.90 307.92 202.22 284.65
C 206.20 263.27 191.45 237.07 169.58 226.67
C 152.33 218.46 139.95 218.46 122.70 226.67
C 106.13 234.55 93.52 251.28 90.06 269.97
C 86.23 290.51 100.46 316.81 120.99 327.20
C 134.91 334.24 145.20 335.79 157.19 332.66
M 466.19 330.78
C 479.05 325.93 485.47 318.81 491.75 302.42
C 501.30 277.49 504.87 236.15 500.71 198.41
C 498.02 173.97 496.02 164.74 491.26 155.08
C 485.26 142.87 477.04 134.32 466.06 128.88
C 458.21 124.99 456.02 124.44 448.51 124.44
C 431.51 124.44 415.00 136.26 405.77 155.08
C 393.40 180.26 390.90 248.89 400.92 288.45
C 404.57 302.87 410.74 316.16 416.45 321.88
C 427.75 333.19 449.50 337.09 466.19 330.78
M 304.04 47.90
C 304.68 45.45 306.33 38.88 307.71 33.32
C 309.09 27.75 310.49 22.27 310.84 21.13
C 311.38 19.25 310.35 19.04 300.00 19.04
C 289.65 19.04 288.62 19.25 289.16 21.13
C 289.51 22.27 290.91 27.75 292.29 33.32
C 297.20 53.18 296.86 52.37 300.00 52.37
C 302.33 52.37 303.10 51.51 304.04 47.90
M 338.61 11.31
C 339.79 9.88 339.79 9.16 338.61 7.74
C 336.39 5.06 263.61 5.06 261.39 7.74
C 260.21 9.16 260.21 9.88 261.39 11.31
C 263.61 13.98 336.39 13.98 338.61 11.31"/>
<path fill="#c55436" stroke="none" d="
M 267.33 427.53
C 282.96 414.69 286.70 407.11 286.81 388.00
C 286.91 370.92 284.39 352.06 271.46 273.14
C 254.61 170.29 252.19 149.50 253.43 118.52
C 254.64 88.20 261.08 74.64 278.44 65.82
C 295.62 57.08 303.98 57.03 320.97 65.57
C 338.95 74.59 345.35 87.82 346.57 118.52
C 347.81 149.50 345.39 170.29 328.54 273.14
C 315.61 352.06 313.09 370.92 313.19 388.00
C 313.30 407.11 317.04 414.69 332.67 427.53
L 338.02 431.92
L 300.00 431.92
L 261.98 431.92
L 267.33 427.53"/>
<path fill="#c55436" stroke="none" d="
M 295.96 47.90
C 295.32 45.45 293.67 38.88 292.29 33.32
C 290.91 27.75 289.51 22.27 289.16 21.13
C 288.62 19.25 289.65 19.04 300.00 19.04
C 310.35 19.04 311.38 19.25 310.84 21.13
C 310.49 22.27 309.09 27.75 307.71 33.32
C 302.80 53.18 303.14 52.37 300.00 52.37
C 297.67 52.37 296.90 51.51 295.96 47.90"/>
<path fill="#c55436" stroke="none" d="
M 261.28 11.18
C 259.94 9.56 260.03 9.01 261.96 7.61
C 265.44 5.06 336.50 5.18 338.61 7.74
C 339.79 9.16 339.79 9.88 338.61 11.31
C 337.35 12.82 331.56 13.09 300.00 13.09
C 267.33 13.09 262.67 12.87 261.28 11.18"/>
<path fill="#e7ae6c" stroke="none" d="
M 134.58 332.61
C 111.77 326.45 94.32 307.67 90.06 284.65
C 86.08 263.27 100.82 237.07 122.70 226.67
C 139.95 218.46 152.33 218.46 169.58 226.67
C 186.14 234.55 198.76 251.28 202.22 269.97
C 206.03 290.50 191.82 316.81 171.33 327.18
C 157.49 334.18 146.45 335.81 134.58 332.61"/>
<path fill="#e7ae6c" stroke="none" d="
M 439.65 333.13
C 430.73 331.58 421.84 327.29 416.45 321.88
C 408.00 313.41 399.79 290.63 396.84 267.48
C 391.81 227.79 396.00 174.96 405.77 155.08
C 411.73 142.93 420.00 134.31 430.82 128.96
C 438.48 125.17 440.80 124.58 448.36 124.50
C 456.11 124.44 458.07 124.92 466.05 128.87
C 481.76 136.66 493.49 153.12 497.17 172.57
C 509.30 236.71 499.50 309.50 476.58 325.42
C 466.61 332.33 452.35 335.31 439.65 333.13"/>
<path fill="#c57a36" stroke="none" d="
M 13.45 547.63
C 10.74 546.56 8.20 545.38 7.82 545.00
C 7.44 544.62 11.37 529.35 16.55 511.08
C 43.49 416.13 49.26 395.30 53.67 377.34
C 58.93 355.83 62.66 346.03 66.34 344.05
C 68.02 343.16 100.29 342.77 172.79 342.77
C 273.43 342.77 276.83 342.84 276.83 344.98
C 276.83 346.20 277.18 349.68 277.59 352.72
L 278.34 358.24
L 177.87 358.24
L 77.41 358.24
L 75.05 361.23
C 73.76 362.87 72.06 367.02 71.25 370.45
C 70.46 373.88 66.94 387.50 63.42 400.71
C 56.38 427.19 55.82 432.01 59.41 435.60
C 61.77 437.97 63.36 437.98 300.00 437.98
C 536.64 437.98 538.23 437.97 540.59 435.60
C 544.18 432.01 543.62 427.19 536.58 400.71
C 533.06 387.50 529.54 373.88 528.75 370.45
C 527.94 367.02 526.24 362.87 524.95 361.23
L 522.59 358.24
L 422.13 358.24
L 321.66 358.24
L 322.41 352.72
C 322.82 349.68 323.17 346.20 323.17 344.98
C 323.17 342.84 326.59 342.77 428.14 342.77
C 526.59 342.77 533.22 342.90 534.97 344.85
C 538.35 348.58 541.52 357.66 546.37 377.47
C 550.74 395.32 556.53 416.18 583.45 511.08
C 588.63 529.35 592.56 544.62 592.18 545.00
C 591.80 545.38 589.26 546.56 586.55 547.63
L 581.61 549.56
L 576.67 535.92
C 572.41 524.16 568.18 510.45 555.91 468.50
C 554.59 464.01 552.24 459.06 550.67 457.49
L 547.83 454.65
L 300.00 454.65
L 52.17 454.65
L 49.33 457.49
C 47.76 459.06 45.41 464.01 44.09 468.50
C 31.82 510.45 27.59 524.16 23.33 535.92
L 18.39 549.56
L 13.45 547.63"/>
<path fill="#cf9e66" stroke="none" d="
M 64.25 430.37
C 63.17 429.06 64.49 422.43 70.19 400.31
C 79.02 366.12 79.13 365.79 82.37 364.92
C 83.79 364.54 128.61 364.22 181.97 364.20
L 278.99 364.19
L 279.65 368.66
C 283.94 398.12 280.50 407.78 260.20 423.34
L 248.91 432.00
L 157.27 432.01
C 80.08 432.03 65.42 431.77 64.25 430.37"/>
<path fill="#cf9e66" stroke="none" d="
M 339.80 423.34
C 319.50 407.78 316.06 398.12 320.35 368.66
L 321.01 364.19
L 419.43 364.19
C 527.33 364.19 520.67 363.74 522.27 371.12
C 522.67 372.87 526.16 386.54 530.06 401.49
C 535.59 422.75 536.84 429.04 535.75 430.35
C 534.58 431.77 520.10 432.03 442.73 432.01
L 351.09 432.00
L 339.80 423.34"/>
</g>
</svg>
