<?xml version="1.0" encoding="UTF-8" standalone="no"?>
<!DOCTYPE svg PUBLIC "-//W3C//DTD SVG 1.1//EN"
"http://www.w3.org/Graphics/SVG/1.1/DTD/svg11.dtd">
<svg width="600px" height="217px"
xmlns="http://www.w3.org/2000/svg" version="1.1">
<g transform="translate(0000, 0000) scale(1.0000, 1.0000)">
<path fill="#000000" stroke="none" d="
M 2.39 214.60
C 0.14 212.35 0.00 210.61 0.00 185.83
C 0.00 161.05 0.14 159.31 2.39 157.06
C 4.75 154.69 6.37 154.66 124.30 154.66
C 190.04 154.66 243.82 154.19 243.82 153.63
C 243.82 153.06 239.52 142.33 234.26 129.78
C 229.00 117.22 224.70 105.33 224.70 103.37
C 224.70 98.91 226.53 96.19 264.41 44.41
C 281.03 21.66 296.07 2.28 297.82 1.28
C 300.76 -0.37 301.24 -0.32 303.63 1.83
C 306.41 4.35 371.64 93.51 373.94 97.93
C 376.42 102.71 375.38 106.76 365.74 129.78
C 360.48 142.33 356.18 153.06 356.18 153.63
C 356.18 154.19 409.96 154.66 475.70 154.66
C 593.63 154.66 595.25 154.69 597.61 157.06
C 599.86 159.31 600.00 161.05 600.00 185.83
C 600.00 210.61 599.86 212.35 597.61 214.60
C 595.23 216.99 593.63 217.00 300.00 217.00
C 6.37 217.00 4.77 216.99 2.39 214.60
M 592.59 209.57
C 594.61 207.54 594.61 164.12 592.59 162.09
C 590.50 159.99 9.50 159.99 7.41 162.09
C 5.39 164.12 5.39 207.54 7.41 209.57
C 9.50 211.66 590.50 211.66 592.59 209.57
M 356.52 132.73
C 361.59 120.67 365.74 110.42 365.74 109.95
C 365.74 109.48 336.16 109.10 300.00 109.10
C 263.84 109.10 234.26 109.48 234.26 109.95
C 234.26 110.42 238.41 120.67 243.48 132.73
L 252.69 154.66
L 300.00 154.66
L 347.31 154.66
L 356.52 132.73
M 368.13 102.58
C 368.13 101.25 300.98 10.19 300.00 10.19
C 299.02 10.19 231.87 101.25 231.87 102.58
C 231.87 102.87 262.53 103.10 300.00 103.10
C 337.47 103.10 368.13 102.87 368.13 102.58"/>
<path fill="#c57a36" stroke="none" d="
M 243.48 132.73
C 238.41 120.67 234.26 110.42 234.26 109.95
C 234.26 109.48 263.84 109.10 300.00 109.10
C 336.16 109.10 365.74 109.48 365.74 109.95
C 365.74 110.42 361.59 120.67 356.52 132.73
L 347.31 154.66
L 300.00 154.66
L 252.69 154.66
L 243.48 132.73"/>
<path fill="#c57a36" stroke="none" d="
M 232.08 102.13
C 233.09 99.64 298.36 10.83 299.53 10.35
C 300.56 9.91 366.29 98.11 367.92 102.13
C 368.15 102.66 337.58 103.10 300.00 103.10
C 262.42 103.10 231.85 102.66 232.08 102.13"/>
<path fill="#c55436" stroke="none" d="
M 7.41 209.57
C 6.39 208.55 5.98 201.53 5.98 185.64
C 5.98 164.62 6.13 163.05 8.28 161.90
C 11.86 159.98 590.68 160.17 592.59 162.09
C 594.61 164.12 594.61 207.54 592.59 209.57
C 590.50 211.66 9.50 211.66 7.41 209.57"/>
</g>
</svg>
