<?xml version="1.0" encoding="UTF-8" standalone="no"?>
<!DOCTYPE svg PUBLIC "-//W3C//DTD SVG 1.1//EN"
"http://www.w3.org/Graphics/SVG/1.1/DTD/svg11.dtd">
<svg width="252px" height="600px"
xmlns="http://www.w3.org/2000/svg" version="1.1">
<g transform="translate(0000, 0000) scale(1.0000, 1.0000)">
<path fill="#000000" stroke="none" d="
M 219.86 597.43
C 217.31 594.89 217.29 593.15 217.29 380.35
L 217.29 165.84
L 208.61 163.32
C 186.79 156.96 180.95 155.36 166.50 151.75
C 127.45 141.97 86.36 137.34 61.08 139.89
C 54.00 140.61 43.29 141.56 37.29 142.02
C 31.27 142.48 22.41 143.68 17.59 144.67
C 6.30 146.99 5.63 146.96 2.57 143.90
C 0.08 141.40 0.00 139.62 0.00 83.11
C 0.00 34.90 0.31 24.48 1.83 22.41
C 3.57 20.02 6.22 19.88 65.15 19.14
C 138.00 18.24 149.49 17.10 200.96 5.68
C 212.13 3.20 226.94 0.82 233.88 0.40
C 245.61 -0.31 246.69 -0.17 249.25 2.39
L 252.00 5.14
L 252.00 300.00
C 252.00 593.15 251.99 594.87 249.43 597.43
C 247.22 599.64 245.15 600.00 234.64 600.00
C 224.14 600.00 222.07 599.64 219.86 597.43
M 244.03 592.03
C 245.22 590.84 245.57 524.20 245.57 299.90
C 245.57 41.64 245.35 9.12 243.62 7.70
C 241.65 6.05 228.00 6.50 225.09 8.30
C 222.99 9.58 223.16 589.94 225.26 592.03
C 227.28 594.05 242.01 594.05 244.03 592.03
M 217.29 84.76
C 217.29 21.66 217.03 11.38 215.41 10.77
C 214.37 10.37 208.35 11.25 202.01 12.75
C 195.69 14.22 187.42 16.05 183.64 16.78
C 179.87 17.51 168.98 19.64 159.43 21.51
C 142.30 24.85 141.18 24.90 75.90 25.37
C 31.71 25.68 9.18 26.30 8.07 27.21
C 6.79 28.28 6.43 40.05 6.43 81.58
C 6.43 127.40 6.70 134.81 8.38 136.20
C 9.95 137.51 14.00 137.42 29.28 135.74
C 58.65 132.51 77.35 131.91 98.86 133.54
C 130.64 135.93 165.23 142.87 198.00 153.43
C 205.43 155.82 212.80 157.84 214.39 157.90
L 217.29 158.03
L 217.29 84.76"/>
<path fill="#c57a36" stroke="none" d="
M 225.26 592.03
C 223.34 590.12 222.98 9.60 224.88 8.42
C 227.75 6.66 241.71 6.10 243.62 7.68
C 245.35 9.13 245.57 41.34 245.57 299.90
C 245.57 524.20 245.22 590.84 244.03 592.03
C 242.01 594.05 227.28 594.05 225.26 592.03"/>
<path fill="#ffbf53" stroke="none" d="
M 198.00 153.43
C 165.23 142.87 130.64 135.93 98.86 133.54
C 77.35 131.91 58.65 132.51 29.28 135.74
C 14.00 137.42 9.95 137.51 8.38 136.20
C 6.70 134.81 6.43 127.40 6.43 81.58
C 6.43 40.05 6.79 28.28 8.07 27.21
C 9.18 26.30 31.71 25.68 75.90 25.37
C 141.18 24.90 142.30 24.85 159.43 21.51
C 188.11 15.91 189.19 15.69 201.75 12.87
C 208.41 11.40 214.64 10.47 215.58 10.83
C 216.96 11.36 217.29 25.04 217.29 84.76
L 217.29 158.03
L 214.39 157.90
C 212.80 157.84 205.43 155.82 198.00 153.43"/>
</g>
</svg>
