<?xml version="1.0" encoding="UTF-8" standalone="no"?>
<!DOCTYPE svg PUBLIC "-//W3C//DTD SVG 1.1//EN"
"http://www.w3.org/Graphics/SVG/1.1/DTD/svg11.dtd">
<svg width="600px" height="321px"
xmlns="http://www.w3.org/2000/svg" version="1.1">
<g transform="translate(0000, 0000) scale(1.0000, 1.0000)">
<path fill="#000000" stroke="none" d="
M 2.71 318.29
C 0.03 315.61 0.00 313.79 0.03 168.29
C 0.05 27.98 0.18 20.74 2.56 15.58
C 5.58 9.02 9.87 4.89 16.56 2.10
C 21.03 0.23 51.83 0.00 300.69 0.00
C 572.37 0.00 579.93 0.07 584.82 2.57
C 590.64 5.57 594.72 9.72 597.81 15.85
C 599.78 19.76 600.00 34.54 600.00 167.88
C 600.00 313.78 599.97 315.61 597.29 318.29
C 594.87 320.72 592.78 321.00 576.98 321.00
C 561.17 321.00 559.08 320.72 556.66 318.29
C 553.99 315.62 553.95 313.77 553.94 191.31
L 553.92 67.04
L 550.74 60.22
C 547.02 52.23 541.57 47.24 532.97 43.95
C 527.84 41.99 525.89 41.85 521.62 43.13
C 514.43 45.28 507.83 50.01 504.26 55.56
C 498.47 64.55 489.58 76.55 481.77 85.88
L 473.93 95.27
L 483.21 100.15
C 501.71 109.88 516.89 123.81 523.73 137.30
C 532.55 154.72 527.55 172.99 513.30 175.40
C 496.50 178.24 476.83 156.27 464.53 120.92
L 460.19 108.44
L 452.56 115.02
C 448.36 118.65 441.32 124.11 436.90 127.17
C 432.50 130.23 429.53 132.73 430.31 132.73
C 432.95 132.73 453.52 154.19 459.75 163.45
C 466.40 173.31 471.35 186.78 471.30 194.85
C 471.26 201.23 467.02 210.51 462.91 213.20
C 456.76 217.22 451.60 217.32 443.85 213.51
C 435.40 209.38 432.50 206.54 426.28 196.16
C 420.47 186.52 416.36 173.53 413.96 157.40
C 412.93 150.48 411.81 144.54 411.47 144.19
C 411.12 143.85 405.33 145.97 398.61 148.88
C 391.88 151.79 383.85 154.95 380.78 155.87
C 377.69 156.79 375.17 157.75 375.17 158.01
C 375.17 158.25 377.97 162.27 381.41 166.93
C 395.19 185.61 401.57 203.07 400.62 219.44
C 399.70 235.54 393.12 243.80 381.26 243.80
C 363.12 243.80 352.14 220.45 352.14 181.81
L 352.14 164.40
L 338.94 166.27
C 331.68 167.30 322.25 168.79 318.00 169.57
L 310.27 171.01
L 312.41 175.91
C 317.11 186.67 321.10 201.30 322.60 213.21
C 323.99 224.09 323.89 227.02 321.89 235.10
C 318.05 250.62 307.77 260.06 296.90 258.03
C 289.99 256.75 281.44 247.68 278.91 238.95
C 274.78 224.73 277.57 200.77 285.66 180.82
C 290.23 169.55 290.74 170.05 272.45 167.98
C 266.00 167.25 257.82 166.11 254.29 165.44
L 247.86 164.24
L 247.86 181.72
C 247.86 220.46 236.91 243.80 218.74 243.80
C 206.88 243.80 200.30 235.54 199.38 219.44
C 198.43 203.07 204.81 185.61 218.59 166.93
C 222.03 162.27 224.83 158.25 224.83 158.01
C 224.83 157.75 222.31 156.79 219.22 155.87
C 216.15 154.95 208.12 151.79 201.39 148.88
C 194.67 145.97 188.88 143.85 188.53 144.19
C 188.19 144.54 187.07 150.48 186.04 157.40
C 183.64 173.53 179.53 186.52 173.72 196.16
C 167.50 206.52 164.60 209.38 156.18 213.50
C 144.95 219.00 136.14 216.13 131.26 205.36
C 124.10 189.59 133.75 166.72 157.38 143.47
C 163.38 137.57 168.92 132.73 169.69 132.73
C 170.47 132.73 167.50 130.23 163.10 127.17
C 158.68 124.11 151.64 118.65 147.44 115.02
L 139.81 108.44
L 135.47 120.92
C 123.17 156.27 103.50 178.24 86.70 175.40
C 76.62 173.71 71.11 165.01 72.11 152.43
C 73.63 133.63 90.34 114.07 116.79 100.15
L 126.07 95.27
L 118.23 85.88
C 110.42 76.55 101.53 64.55 95.74 55.56
C 92.17 50.01 85.57 45.28 78.38 43.13
C 68.38 40.13 54.93 48.03 49.26 60.22
L 46.08 67.04
L 46.06 191.31
C 46.05 313.77 46.01 315.62 43.34 318.29
C 40.92 320.72 38.83 321.00 23.02 321.00
C 7.22 321.00 5.13 320.72 2.71 318.29
M 37.65 312.60
C 38.90 311.36 39.28 281.30 39.29 185.62
L 39.30 60.27
L 42.49 53.45
C 46.37 45.10 51.78 40.38 61.65 36.68
C 70.60 33.33 75.10 33.17 84.49 35.91
C 93.98 38.67 100.13 44.09 108.73 57.29
C 112.73 63.40 120.76 74.09 126.58 81.04
C 172.29 135.50 248.74 167.84 316.70 161.45
C 338.32 159.42 349.99 156.96 370.35 150.22
C 419.93 133.75 462.98 100.67 491.27 57.29
C 499.87 44.09 506.02 38.67 515.51 35.91
C 524.90 33.17 529.40 33.33 538.35 36.68
C 548.22 40.38 553.63 45.10 557.51 53.45
L 560.70 60.27
L 560.71 185.62
C 560.72 281.30 561.10 311.36 562.35 312.60
C 564.74 315.00 589.71 314.81 591.72 312.37
C 592.86 311.00 593.17 272.43 592.90 166.32
L 592.55 22.13
L 588.74 17.15
C 586.66 14.41 582.57 10.96 579.66 9.47
C 574.43 6.80 571.27 6.77 300.00 6.77
C 28.73 6.77 25.57 6.80 20.34 9.47
C 17.43 10.96 13.34 14.41 11.26 17.15
L 7.45 22.13
L 7.10 166.32
C 6.83 272.43 7.14 311.00 8.28 312.37
C 10.29 314.81 35.26 315.00 37.65 312.60
M 305.70 247.91
C 308.09 246.45 311.40 242.65 313.07 239.45
C 317.43 231.09 317.16 213.54 312.43 197.75
C 307.71 181.97 302.52 170.66 300.00 170.66
C 297.48 170.66 292.29 181.97 287.57 197.75
C 282.84 213.54 282.57 231.09 286.93 239.45
C 289.67 244.70 296.55 250.56 300.00 250.56
C 300.74 250.56 303.30 249.36 305.70 247.91
M 226.73 234.18
C 236.09 226.83 241.03 208.60 241.06 181.32
L 241.08 162.86
L 236.98 161.16
C 234.72 160.23 232.66 159.69 232.40 159.99
C 228.07 164.77 217.04 180.87 214.10 186.71
C 205.61 203.52 203.47 220.26 208.54 230.19
C 210.01 233.06 211.99 235.74 212.94 236.12
C 216.98 237.74 223.34 236.85 226.73 234.18
M 386.63 236.19
C 390.56 234.67 394.13 225.54 394.13 217.01
C 394.13 202.60 387.62 186.46 375.06 169.78
C 371.21 164.67 367.86 160.27 367.60 159.99
C 367.34 159.69 365.28 160.23 363.02 161.16
L 358.92 162.86
L 358.94 181.32
C 358.97 202.01 361.04 214.33 366.22 224.54
C 371.57 235.10 378.76 239.21 386.63 236.19
M 156.79 205.64
C 168.45 198.45 177.62 175.98 180.81 146.75
C 181.67 139.02 181.52 138.34 178.84 137.49
C 175.14 136.32 172.23 138.27 160.82 149.58
C 140.36 169.87 131.20 191.03 137.54 203.30
C 141.21 210.40 147.78 211.20 156.79 205.64
M 456.96 208.64
C 458.83 207.93 461.31 205.52 462.46 203.29
C 468.80 191.03 459.63 169.86 439.18 149.58
C 427.77 138.27 424.86 136.32 421.16 137.49
C 418.48 138.34 418.33 139.02 419.19 146.75
C 422.64 178.34 432.37 200.37 445.80 207.01
C 452.59 210.37 452.45 210.36 456.96 208.64
M 96.89 166.76
C 103.73 163.66 112.50 153.81 119.15 141.80
C 125.80 129.77 134.94 103.25 133.08 101.39
C 132.16 100.47 128.88 101.43 123.07 104.35
C 96.50 117.67 78.60 137.98 78.57 154.85
C 78.56 160.28 79.23 162.06 82.51 165.35
C 87.12 169.94 89.39 170.17 96.89 166.76
M 517.49 165.35
C 528.15 154.68 517.16 131.10 493.84 114.54
C 482.23 106.32 468.64 99.67 466.92 101.39
C 465.06 103.25 474.20 129.77 480.85 141.80
C 487.50 153.81 496.27 163.66 503.11 166.76
C 510.61 170.17 512.88 169.94 517.49 165.35"/>
<path fill="#ffbf53" stroke="none" d="
M 8.28 312.37
C 7.14 311.00 6.83 272.43 7.10 166.32
L 7.45 22.13
L 11.35 17.01
C 13.50 14.19 17.77 10.75 20.83 9.36
C 26.22 6.92 35.73 6.83 300.39 6.80
C 571.31 6.77 574.43 6.80 579.66 9.47
C 582.57 10.96 586.66 14.41 588.74 17.15
L 592.55 22.13
L 592.90 166.32
C 593.17 272.43 592.86 311.00 591.72 312.37
C 589.71 314.81 564.74 315.00 562.35 312.60
C 561.10 311.36 560.72 281.30 560.71 185.62
L 560.70 60.27
L 557.51 53.45
C 553.63 45.10 548.22 40.38 538.35 36.68
C 529.40 33.33 524.90 33.17 515.51 35.91
C 506.02 38.67 499.87 44.09 491.27 57.29
C 462.98 100.67 419.93 133.75 370.35 150.22
C 349.99 156.96 338.32 159.42 316.70 161.45
C 288.50 164.10 260.65 160.50 229.65 150.22
C 180.07 133.75 137.02 100.67 108.73 57.29
C 100.13 44.09 93.98 38.67 84.49 35.91
C 75.10 33.17 70.60 33.33 61.65 36.68
C 51.78 40.38 46.37 45.10 42.49 53.45
L 39.30 60.27
L 39.29 185.62
C 39.28 281.30 38.90 311.36 37.65 312.60
C 35.26 315.00 10.29 314.81 8.28 312.37"/>
<path fill="#ef907a" stroke="none" d="
M 294.30 247.91
C 291.91 246.45 288.60 242.65 286.93 239.45
C 282.57 231.09 282.84 213.54 287.57 197.75
C 292.29 181.97 297.48 170.66 300.00 170.66
C 302.52 170.66 307.71 181.97 312.43 197.75
C 317.16 213.54 317.43 231.09 313.07 239.45
C 310.33 244.70 303.45 250.56 300.00 250.56
C 299.26 250.56 296.70 249.36 294.30 247.91"/>
<path fill="#ef907a" stroke="none" d="
M 212.94 236.12
C 211.99 235.74 210.01 233.06 208.54 230.19
C 203.47 220.26 205.61 203.52 214.10 186.71
C 217.04 180.87 228.07 164.77 232.40 159.99
C 232.66 159.69 234.72 160.23 236.98 161.16
L 241.08 162.86
L 241.06 181.32
C 241.03 208.60 236.09 226.83 226.73 234.18
C 223.34 236.85 216.98 237.74 212.94 236.12"/>
<path fill="#ef907a" stroke="none" d="
M 373.27 234.18
C 363.91 226.83 358.97 208.60 358.94 181.32
L 358.92 162.86
L 363.02 161.16
C 365.28 160.23 367.34 159.69 367.60 159.99
C 371.93 164.77 382.96 180.87 385.90 186.71
C 394.36 203.48 396.51 220.26 391.48 230.14
C 387.58 237.80 380.00 239.48 373.27 234.18"/>
<path fill="#ef907a" stroke="none" d="
M 142.62 208.60
C 140.98 207.92 138.70 205.53 137.54 203.30
C 131.20 191.03 140.36 169.87 160.82 149.58
C 172.23 138.27 175.14 136.32 178.84 137.49
C 181.52 138.34 181.67 139.02 180.81 146.75
C 178.43 168.61 173.26 185.42 165.40 196.84
C 158.98 206.17 149.09 211.26 142.62 208.60"/>
<path fill="#ef907a" stroke="none" d="
M 445.80 207.01
C 432.37 200.37 422.64 178.34 419.19 146.75
C 418.33 139.02 418.48 138.34 421.16 137.49
C 424.86 136.32 427.77 138.27 439.18 149.58
C 459.63 169.86 468.80 191.03 462.46 203.29
C 460.69 206.74 455.95 209.94 452.61 209.94
C 452.11 209.94 449.04 208.62 445.80 207.01"/>
<path fill="#ef907a" stroke="none" d="
M 82.51 165.35
C 71.84 154.66 82.78 131.19 106.24 114.45
C 116.82 106.92 131.54 99.85 133.21 101.51
C 134.93 103.23 125.46 130.35 119.15 141.80
C 112.50 153.81 103.73 163.66 96.89 166.76
C 89.39 170.17 87.12 169.94 82.51 165.35"/>
<path fill="#ef907a" stroke="none" d="
M 503.11 166.76
C 496.27 163.66 487.50 153.81 480.85 141.80
C 474.20 129.77 465.06 103.25 466.92 101.39
C 467.84 100.47 471.12 101.43 476.93 104.35
C 503.50 117.67 521.40 137.98 521.43 154.85
C 521.44 160.28 520.77 162.06 517.49 165.35
C 512.88 169.94 510.61 170.17 503.11 166.76"/>
</g>
</svg>
