<?xml version="1.0" encoding="UTF-8" standalone="no"?>
<!DOCTYPE svg PUBLIC "-//W3C//DTD SVG 1.1//EN"
"http://www.w3.org/Graphics/SVG/1.1/DTD/svg11.dtd">
<svg width="570px" height="600px"
xmlns="http://www.w3.org/2000/svg" version="1.1">
<g transform="translate(0000, 0000) scale(1.0000, 1.0000)">
<path fill="#000000" stroke="none" d="
M 268.89 597.11
C 265.62 595.46 261.56 591.92 259.43 588.86
C 252.85 579.38 252.67 572.71 256.51 474.73
C 258.40 426.68 259.94 384.15 259.94 380.22
L 259.91 373.08
L 247.69 371.15
L 235.46 369.22
L 235.46 385.73
C 235.46 422.39 225.04 444.54 207.80 444.54
C 196.54 444.54 190.29 436.70 189.41 421.44
C 188.51 405.91 194.57 389.34 207.66 371.63
C 210.93 367.21 213.59 363.39 213.59 363.16
C 213.59 362.92 211.20 362.00 208.26 361.13
C 205.34 360.26 197.71 357.26 191.32 354.50
C 184.93 351.74 179.44 349.73 179.11 350.06
C 178.78 350.39 177.72 356.02 176.74 362.58
C 174.46 377.88 170.55 390.21 165.03 399.35
C 159.12 409.18 156.37 411.89 148.37 415.80
C 137.70 421.01 129.34 418.29 124.69 408.08
C 117.90 393.12 127.06 371.42 149.51 349.37
C 155.21 343.77 160.47 339.19 161.21 339.19
C 161.94 339.19 159.12 336.81 154.94 333.91
C 150.75 331.00 144.06 325.82 140.07 322.38
L 132.82 316.14
L 128.69 327.98
C 117.01 361.52 98.33 382.36 82.36 379.66
C 72.79 378.05 67.55 369.80 68.50 357.87
C 69.94 340.03 85.82 321.48 110.95 308.27
L 119.76 303.65
L 112.31 294.75
C 104.90 285.89 96.45 274.51 90.96 265.98
C 87.56 260.71 81.29 256.23 74.46 254.18
C 64.96 251.34 52.19 258.84 46.80 270.40
L 43.77 276.87
L 43.76 394.75
C 43.75 510.91 43.71 512.67 41.17 515.20
C 38.87 517.50 36.89 517.77 21.87 517.77
C 6.86 517.77 4.88 517.50 2.57 515.20
C 0.03 512.66 0.00 510.93 0.00 373.19
C 0.00 250.24 0.23 233.19 1.99 228.99
C 4.53 222.94 8.39 218.81 14.42 215.72
C 19.02 213.37 23.84 213.28 143.41 213.28
L 267.63 213.28
L 267.63 206.27
C 267.63 199.55 267.45 199.18 263.23 197.18
C 248.92 190.39 229.62 159.65 217.95 125.04
C 206.56 91.26 209.29 60.01 225.21 41.91
C 230.65 35.72 240.97 29.40 250.86 26.18
C 258.69 23.65 259.32 23.18 259.99 19.12
C 261.58 9.58 267.96 3.48 278.63 1.27
C 294.33 -1.98 307.76 5.65 310.01 19.12
C 310.68 23.18 311.31 23.65 319.14 26.18
C 329.03 29.40 339.35 35.72 344.79 41.91
C 360.71 60.01 363.44 91.26 352.05 125.04
C 340.38 159.65 321.08 190.39 306.77 197.18
C 302.55 199.18 302.37 199.55 302.37 206.27
L 302.37 213.28
L 426.59 213.28
C 546.16 213.28 550.98 213.37 555.58 215.72
C 561.61 218.81 565.47 222.94 568.01 228.99
C 569.77 233.19 570.00 250.24 570.00 373.19
C 570.00 510.93 569.97 512.66 567.43 515.20
C 565.12 517.50 563.14 517.77 548.13 517.77
C 533.11 517.77 531.13 517.50 528.83 515.20
C 526.29 512.67 526.25 510.91 526.24 394.75
L 526.23 276.87
L 523.20 270.40
C 519.67 262.82 514.49 258.09 506.32 254.97
C 501.45 253.10 499.59 252.98 495.54 254.18
C 488.71 256.23 482.44 260.71 479.04 265.98
C 473.55 274.51 465.10 285.89 457.69 294.75
L 450.24 303.65
L 459.05 308.27
C 476.63 317.51 491.05 330.72 497.55 343.52
C 505.92 360.04 501.18 377.37 487.64 379.66
C 471.67 382.36 452.99 361.52 441.31 327.98
L 437.18 316.14
L 429.93 322.38
C 425.94 325.82 419.25 331.00 415.06 333.91
C 410.88 336.81 408.06 339.19 408.79 339.19
C 411.30 339.19 430.85 359.54 436.76 368.33
C 443.08 377.68 447.78 390.45 447.74 398.11
C 447.70 404.06 443.78 412.74 439.90 415.45
C 434.37 419.33 429.04 419.43 421.63 415.80
C 413.63 411.89 410.88 409.18 404.97 399.35
C 399.45 390.21 395.54 377.88 393.26 362.58
C 392.28 356.02 391.22 350.39 390.89 350.06
C 390.56 349.73 385.07 351.74 378.68 354.50
C 372.29 357.26 364.66 360.26 361.74 361.13
C 358.80 362.00 356.41 362.92 356.41 363.16
C 356.41 363.39 359.07 367.21 362.34 371.63
C 375.43 389.34 381.49 405.91 380.59 421.44
C 379.71 436.70 373.46 444.54 362.20 444.54
C 344.96 444.54 334.54 422.39 334.54 385.73
L 334.54 369.22
L 322.31 371.15
L 310.09 373.08
L 310.06 380.22
C 310.06 384.15 311.60 426.68 313.49 474.73
C 317.33 572.71 317.15 579.38 310.57 588.86
C 305.01 596.85 297.78 600.00 285.00 600.00
C 276.78 600.00 273.42 599.40 268.89 597.11
M 297.71 591.79
C 300.07 590.81 303.26 588.23 304.81 586.05
C 310.08 578.67 310.44 570.23 308.17 507.49
C 307.00 475.35 305.75 447.60 305.39 445.84
C 304.78 442.79 304.69 442.77 303.39 445.19
C 299.53 452.45 291.03 458.67 285.00 458.67
C 278.97 458.67 270.47 452.45 266.61 445.19
C 265.31 442.77 265.22 442.79 264.61 445.84
C 264.25 447.60 263.00 475.35 261.83 507.49
C 259.56 570.22 259.92 578.67 265.17 586.03
C 266.73 588.22 269.80 590.79 272.00 591.74
C 277.24 594.01 292.31 594.05 297.71 591.79
M 35.77 509.81
C 36.95 508.63 37.31 480.12 37.33 389.36
L 37.34 270.45
L 40.36 263.97
C 44.06 256.06 49.19 251.58 58.57 248.07
C 67.07 244.90 71.35 244.74 80.26 247.34
C 89.28 249.96 95.12 255.10 103.29 267.62
C 107.09 273.42 114.72 283.55 120.25 290.15
C 163.68 341.81 236.30 372.49 300.86 366.42
C 321.40 364.50 332.49 362.17 351.83 355.77
C 398.94 340.15 439.83 308.78 466.71 267.62
C 474.88 255.10 480.72 249.96 489.74 247.34
C 498.65 244.74 502.93 244.90 511.43 248.07
C 520.81 251.58 525.94 256.06 529.64 263.97
L 532.66 270.45
L 532.67 389.36
C 532.69 480.12 533.05 508.63 534.23 509.81
C 536.51 512.08 560.22 511.90 562.14 509.59
C 563.22 508.29 563.52 471.70 563.26 371.05
L 562.92 234.27
L 559.31 229.54
C 557.33 226.95 553.44 223.67 550.67 222.26
C 545.71 219.73 542.71 219.70 285.00 219.70
C 27.29 219.70 24.29 219.73 19.33 222.26
C 16.56 223.67 12.67 226.95 10.69 229.54
L 7.08 234.27
L 6.74 371.05
C 6.48 471.70 6.78 508.29 7.86 509.59
C 9.78 511.90 33.49 512.08 35.77 509.81
M 290.42 448.45
C 292.68 447.06 295.83 443.45 297.42 440.42
C 301.56 432.49 301.30 415.84 296.81 400.86
C 292.32 385.89 287.39 375.16 285.00 375.16
C 282.61 375.16 277.68 385.89 273.19 400.86
C 268.70 415.84 268.44 432.49 272.58 440.42
C 275.18 445.40 281.72 450.95 285.00 450.95
C 285.71 450.95 288.14 449.82 290.42 448.45
M 215.39 435.42
C 224.28 428.44 228.98 411.15 229.00 385.27
L 229.03 367.76
L 225.13 366.15
C 222.98 365.27 221.03 364.75 220.78 365.04
C 216.66 369.57 206.19 384.85 203.40 390.39
C 195.33 406.33 193.30 422.21 198.11 431.63
C 199.51 434.35 201.39 436.90 202.29 437.25
C 206.13 438.80 212.17 437.95 215.39 435.42
M 367.30 437.32
C 371.03 435.88 374.42 427.22 374.42 419.13
C 374.42 405.46 368.24 390.15 356.31 374.33
C 352.65 369.48 349.46 365.31 349.22 365.04
C 348.97 364.75 347.02 365.27 344.87 366.15
L 340.97 367.76
L 341.00 385.27
C 341.02 404.90 342.99 416.58 347.91 426.27
C 352.99 436.29 359.82 440.18 367.30 437.32
M 148.95 408.35
C 160.02 401.52 168.74 380.21 171.77 352.48
C 172.58 345.15 172.44 344.51 169.89 343.70
C 166.38 342.59 163.61 344.44 152.78 355.17
C 133.34 374.42 124.64 394.48 130.66 406.12
C 134.15 412.86 140.39 413.61 148.95 408.35
M 434.11 411.19
C 435.89 410.52 438.24 408.23 439.34 406.11
C 445.36 394.48 436.65 374.40 417.22 355.17
C 406.39 344.44 403.62 342.59 400.11 343.70
C 397.56 344.51 397.42 345.15 398.23 352.48
C 401.51 382.45 410.75 403.35 423.51 409.64
C 429.96 412.83 429.83 412.82 434.11 411.19
M 273.81 378.81
C 275.07 375.71 274.90 375.33 271.90 374.57
C 270.10 374.12 268.32 374.03 267.99 374.38
C 267.64 374.72 267.12 380.09 266.81 386.33
L 266.27 397.64
L 269.34 389.94
C 271.03 385.70 273.03 380.69 273.81 378.81
M 303.03 380.62
C 302.19 373.94 301.35 373.14 297.06 374.93
C 295.20 375.70 295.37 376.81 298.63 384.80
C 300.65 389.74 302.41 394.66 302.55 395.72
C 302.69 396.77 303.04 395.33 303.34 392.51
C 303.62 389.68 303.49 384.33 303.03 380.62
M 92.05 371.46
C 98.55 368.52 106.87 359.18 113.19 347.78
C 119.51 336.37 128.19 311.22 126.43 309.46
C 125.55 308.58 122.44 309.49 116.92 312.26
C 91.68 324.90 74.67 344.16 74.64 360.17
C 74.63 365.32 75.27 367.00 78.38 370.12
C 82.76 374.48 84.92 374.70 92.05 371.46
M 491.62 370.12
C 501.74 360.00 491.31 337.63 469.15 321.93
C 458.12 314.13 445.20 307.82 443.57 309.46
C 441.81 311.22 450.49 336.37 456.81 347.78
C 463.13 359.18 471.45 368.52 477.95 371.46
C 485.08 374.70 487.24 374.48 491.62 370.12
M 295.94 206.85
L 295.94 200.43
L 285.00 200.43
L 274.06 200.43
L 274.06 206.85
L 274.06 213.28
L 285.00 213.28
L 295.94 213.28
L 295.94 206.85
M 307.43 187.66
C 321.90 176.20 332.40 158.85 342.87 129.12
C 352.22 102.60 354.65 83.11 350.58 67.49
C 343.47 40.24 324.99 29.55 285.00 29.55
C 245.01 29.55 226.53 40.24 219.42 67.49
C 215.34 83.13 217.78 102.66 227.14 129.12
C 234.63 150.30 240.27 162.05 247.72 171.94
C 253.90 180.14 263.86 189.65 268.27 191.55
C 269.69 192.17 277.82 192.53 286.34 192.37
L 301.84 192.08
L 307.43 187.66
M 303.66 19.79
C 303.66 17.73 302.05 14.84 299.48 12.27
C 294.65 7.45 286.83 5.73 278.57 7.66
C 272.52 9.07 266.34 15.28 266.34 19.94
L 266.34 23.13
L 285.00 23.13
L 303.66 23.13
L 303.66 19.79"/>
<path fill="#c55436" stroke="none" d="
M 272.00 591.74
C 269.80 590.79 266.73 588.22 265.17 586.03
C 259.92 578.67 259.56 570.22 261.83 507.49
C 263.00 475.35 264.25 447.60 264.61 445.84
C 265.22 442.79 265.31 442.77 266.61 445.19
C 270.47 452.45 278.97 458.67 285.00 458.67
C 291.03 458.67 299.53 452.45 303.39 445.19
C 304.69 442.77 304.78 442.79 305.39 445.84
C 305.75 447.60 307.00 475.35 308.17 507.49
C 310.44 570.23 310.08 578.67 304.81 586.05
C 303.26 588.23 300.07 590.81 297.71 591.79
C 292.31 594.05 277.24 594.01 272.00 591.74"/>
<path fill="#c55436" stroke="none" d="
M 266.81 386.33
C 267.12 380.09 267.64 374.72 267.99 374.38
C 268.32 374.03 270.10 374.12 271.90 374.57
C 274.90 375.33 275.07 375.71 273.81 378.81
C 273.03 380.69 271.03 385.70 269.34 389.94
L 266.27 397.64
L 266.81 386.33"/>
<path fill="#c55436" stroke="none" d="
M 302.55 395.72
C 302.41 394.66 300.65 389.74 298.63 384.80
C 294.83 375.48 295.06 374.30 300.67 373.97
C 302.47 373.86 304.09 385.12 303.34 392.51
C 303.04 395.33 302.69 396.77 302.55 395.72"/>
<path fill="#c55436" stroke="none" d="
M 274.06 206.85
L 274.06 200.43
L 285.00 200.43
L 295.94 200.43
L 295.94 206.85
L 295.94 213.28
L 285.00 213.28
L 274.06 213.28
L 274.06 206.85"/>
<path fill="#c55436" stroke="none" d="
M 266.34 19.94
C 266.34 18.18 267.95 14.96 269.91 12.76
C 274.22 7.94 283.04 5.83 291.23 7.66
C 297.48 9.06 303.66 15.15 303.66 19.94
L 303.66 23.13
L 285.00 23.13
L 266.34 23.13
L 266.34 19.94"/>
<path fill="#c57a36" stroke="none" d="
M 268.27 191.55
C 263.86 189.65 253.90 180.14 247.72 171.94
C 240.27 162.05 234.63 150.30 227.14 129.12
C 217.78 102.66 215.34 83.13 219.42 67.49
C 226.55 40.19 245.11 29.55 285.66 29.55
C 324.94 29.55 343.52 40.41 350.58 67.49
C 354.65 83.11 352.22 102.60 342.87 129.12
C 332.40 158.85 321.90 176.20 307.43 187.66
L 301.84 192.08
L 286.34 192.37
C 277.82 192.53 269.69 192.17 268.27 191.55"/>
<path fill="#ffbf53" stroke="none" d="
M 7.86 509.59
C 6.78 508.29 6.48 471.70 6.74 371.05
L 7.08 234.27
L 10.78 229.41
C 12.83 226.74 16.88 223.48 19.79 222.15
C 24.91 219.84 33.94 219.75 285.37 219.73
C 542.75 219.70 545.71 219.73 550.67 222.26
C 553.44 223.67 557.33 226.95 559.31 229.54
L 562.92 234.27
L 563.26 371.05
C 563.52 471.70 563.22 508.29 562.14 509.59
C 560.22 511.90 536.51 512.08 534.23 509.81
C 533.05 508.63 532.69 480.12 532.67 389.36
L 532.66 270.45
L 529.64 263.97
C 525.94 256.06 520.81 251.58 511.43 248.07
C 502.93 244.90 498.65 244.74 489.74 247.34
C 480.72 249.96 474.88 255.10 466.71 267.62
C 439.83 308.78 398.94 340.15 351.83 355.77
C 332.49 362.17 321.40 364.50 300.86 366.42
C 274.08 368.94 247.62 365.52 218.17 355.77
C 171.06 340.15 130.17 308.78 103.29 267.62
C 95.12 255.10 89.28 249.96 80.26 247.34
C 71.35 244.74 67.07 244.90 58.57 248.07
C 49.19 251.58 44.06 256.06 40.36 263.97
L 37.34 270.45
L 37.33 389.36
C 37.31 480.12 36.95 508.63 35.77 509.81
C 33.49 512.08 9.78 511.90 7.86 509.59"/>
<path fill="#ef907a" stroke="none" d="
M 279.58 448.45
C 277.32 447.06 274.17 443.45 272.58 440.42
C 268.44 432.49 268.70 415.84 273.19 400.86
C 277.68 385.89 282.61 375.16 285.00 375.16
C 287.39 375.16 292.32 385.89 296.81 400.86
C 301.30 415.84 301.56 432.49 297.42 440.42
C 294.82 445.40 288.28 450.95 285.00 450.95
C 284.29 450.95 281.86 449.82 279.58 448.45"/>
<path fill="#ef907a" stroke="none" d="
M 202.29 437.25
C 201.39 436.90 199.51 434.35 198.11 431.63
C 193.30 422.21 195.33 406.33 203.40 390.39
C 206.19 384.85 216.66 369.57 220.78 365.04
C 221.03 364.75 222.98 365.27 225.13 366.15
L 229.03 367.76
L 229.00 385.27
C 228.98 411.15 224.28 428.44 215.39 435.42
C 212.17 437.95 206.13 438.80 202.29 437.25"/>
<path fill="#ef907a" stroke="none" d="
M 354.61 435.42
C 345.72 428.44 341.02 411.15 341.00 385.27
L 340.97 367.76
L 344.87 366.15
C 347.02 365.27 348.97 364.75 349.22 365.04
C 353.34 369.57 363.81 384.85 366.60 390.39
C 374.64 406.29 376.69 422.21 371.90 431.59
C 368.20 438.85 361.00 440.44 354.61 435.42"/>
<path fill="#ef907a" stroke="none" d="
M 135.49 411.15
C 133.93 410.51 131.77 408.24 130.66 406.12
C 124.64 394.48 133.34 374.42 152.78 355.17
C 163.61 344.44 166.38 342.59 169.89 343.70
C 172.44 344.51 172.58 345.15 171.77 352.48
C 169.51 373.22 164.59 389.16 157.13 400.00
C 151.03 408.85 141.64 413.68 135.49 411.15"/>
<path fill="#ef907a" stroke="none" d="
M 423.51 409.64
C 410.75 403.35 401.51 382.45 398.23 352.48
C 397.42 345.15 397.56 344.51 400.11 343.70
C 403.62 342.59 406.39 344.44 417.22 355.17
C 436.65 374.40 445.36 394.48 439.34 406.11
C 437.65 409.39 433.15 412.42 429.98 412.42
C 429.51 412.42 426.59 411.17 423.51 409.64"/>
<path fill="#ef907a" stroke="none" d="
M 78.38 370.12
C 68.25 359.99 78.64 337.72 100.93 321.84
C 110.98 314.70 124.96 307.99 126.55 309.57
C 128.18 311.20 119.19 336.93 113.19 347.78
C 106.87 359.18 98.55 368.52 92.05 371.46
C 84.92 374.70 82.76 374.48 78.38 370.12"/>
<path fill="#ef907a" stroke="none" d="
M 477.95 371.46
C 471.45 368.52 463.13 359.18 456.81 347.78
C 450.49 336.37 441.81 311.22 443.57 309.46
C 444.45 308.58 447.56 309.49 453.08 312.26
C 478.32 324.90 495.33 344.16 495.36 360.17
C 495.37 365.32 494.73 367.00 491.62 370.12
C 487.24 374.48 485.08 374.70 477.95 371.46"/>
</g>
</svg>
