<?xml version="1.0" encoding="UTF-8" standalone="no"?>
<!DOCTYPE svg PUBLIC "-//W3C//DTD SVG 1.1//EN"
"http://www.w3.org/Graphics/SVG/1.1/DTD/svg11.dtd">
<svg width="572px" height="600px"
xmlns="http://www.w3.org/2000/svg" version="1.1">
<g transform="translate(0000, 0000) scale(1.0000, 1.0000)">
<path fill="#000000" stroke="none" d="
M 255.92 598.45
C 253.67 596.21 253.98 594.48 257.59 589.16
C 260.28 585.20 260.82 582.88 260.82 575.38
C 260.82 564.48 262.73 559.66 269.71 552.97
L 275.02 547.86
L 275.02 511.92
L 275.02 475.97
L 271.18 471.19
C 268.79 468.23 266.48 463.01 265.12 457.51
C 263.21 449.77 263.13 447.06 264.48 436.39
C 265.33 429.65 267.79 419.15 269.95 413.03
C 276.68 394.04 276.99 395.24 265.15 394.17
C 259.57 393.65 250.80 392.53 245.65 391.65
L 236.29 390.05
L 236.29 406.70
C 236.29 443.57 225.84 465.81 208.53 465.81
C 197.23 465.81 190.96 457.94 190.08 442.61
C 189.17 427.01 195.25 410.37 208.39 392.58
C 211.67 388.14 214.34 384.31 214.34 384.08
C 214.34 383.83 211.94 382.92 208.99 382.04
C 206.06 381.16 198.41 378.15 191.99 375.38
C 185.58 372.61 180.07 370.59 179.73 370.92
C 179.41 371.25 178.34 376.90 177.36 383.50
C 175.07 398.86 171.15 411.24 165.61 420.43
C 159.68 430.30 156.92 433.02 148.89 436.94
C 138.18 442.18 129.79 439.45 125.13 429.19
C 118.31 414.17 127.51 392.37 150.04 370.23
C 155.76 364.61 161.04 360.00 161.77 360.00
C 162.51 360.00 159.68 357.61 155.49 354.70
C 151.28 351.78 144.56 346.58 140.56 343.12
L 133.29 336.85
L 129.15 348.75
C 117.42 382.43 98.67 403.35 82.65 400.65
C 73.04 399.03 67.79 390.75 68.74 378.76
C 70.19 360.85 86.12 342.22 111.34 328.95
L 120.18 324.31
L 112.71 315.37
C 105.27 306.48 96.79 295.05 91.27 286.48
C 87.87 281.19 81.58 276.68 74.72 274.63
C 65.19 271.78 52.37 279.30 46.96 290.92
L 43.93 297.42
L 43.91 415.81
C 43.90 532.46 43.86 534.23 41.32 536.77
C 39.01 539.08 37.02 539.35 21.95 539.35
C 6.88 539.35 4.89 539.08 2.58 536.77
C 0.03 534.22 0.00 532.48 0.00 394.15
C 0.00 270.67 0.23 253.55 2.00 249.33
C 4.55 243.25 8.42 239.11 14.47 236.00
C 19.08 233.64 23.99 233.55 147.14 233.55
L 275.02 233.55
L 275.02 194.18
L 275.02 154.80
L 270.58 149.99
C 267.69 146.83 265.73 145.61 264.93 146.45
C 263.38 148.06 254.90 167.33 251.56 176.77
C 250.18 180.68 247.94 189.30 246.55 195.94
C 243.96 208.43 239.93 219.17 237.21 220.90
C 234.79 222.44 227.95 222.12 226.22 220.39
C 224.02 218.19 224.29 211.64 227.21 196.66
C 228.59 189.50 231.54 168.59 233.75 150.21
C 235.95 131.82 238.50 115.33 239.40 113.55
C 240.30 111.77 246.88 99.86 254.00 87.07
C 277.49 44.92 280.13 38.94 283.62 20.04
C 285.33 10.81 287.15 2.89 287.65 2.43
C 288.17 1.96 289.86 1.20 291.41 0.72
C 295.40 -0.48 303.57 7.20 307.47 15.82
C 310.21 21.86 310.53 24.44 310.53 40.00
C 310.53 54.67 310.05 58.94 307.50 67.10
C 303.48 79.94 296.34 94.63 286.67 109.99
L 278.77 122.57
L 285.70 129.34
C 296.77 140.14 296.98 141.32 296.98 191.20
L 296.98 233.55
L 424.86 233.55
C 548.01 233.55 552.92 233.64 557.53 236.00
C 563.58 239.11 567.45 243.25 570.00 249.33
C 571.77 253.55 572.00 270.67 572.00 394.15
C 572.00 532.48 571.97 534.22 569.42 536.77
C 567.11 539.08 565.12 539.35 550.05 539.35
C 534.98 539.35 532.99 539.08 530.68 536.77
C 528.14 534.23 528.10 532.46 528.09 415.81
L 528.07 297.42
L 525.04 290.92
C 521.49 283.30 516.30 278.55 508.10 275.42
C 503.21 273.55 501.35 273.42 497.28 274.63
C 490.42 276.68 484.13 281.19 480.73 286.48
C 475.21 295.05 466.73 306.48 459.29 315.37
L 451.82 324.31
L 460.66 328.95
C 478.30 338.23 492.77 351.50 499.29 364.35
C 507.70 380.94 502.93 398.35 489.35 400.65
C 473.33 403.35 454.58 382.43 442.85 348.75
L 438.71 336.85
L 431.44 343.12
C 427.44 346.58 420.72 351.78 416.51 354.70
C 412.32 357.61 409.49 360.00 410.23 360.00
C 412.74 360.00 432.36 380.44 438.30 389.26
C 444.64 398.66 449.35 411.48 449.31 419.17
C 449.27 425.25 445.23 434.09 441.31 436.66
C 435.44 440.49 430.52 440.58 423.14 436.95
C 415.08 433.02 412.32 430.31 406.39 420.43
C 400.85 411.24 396.93 398.86 394.64 383.50
C 393.66 376.90 392.59 371.25 392.27 370.92
C 391.93 370.59 386.42 372.61 380.01 375.38
C 373.59 378.15 365.94 381.16 363.01 382.04
C 360.06 382.92 357.66 383.83 357.66 384.08
C 357.66 384.31 360.33 388.14 363.61 392.58
C 376.75 410.37 382.83 427.01 381.92 442.61
C 381.04 457.94 374.77 465.81 363.47 465.81
C 346.16 465.81 335.71 443.57 335.71 406.70
L 335.71 390.05
L 326.35 391.65
C 321.20 392.53 312.43 393.65 306.85 394.17
C 295.01 395.24 295.32 394.04 302.05 413.03
C 304.21 419.15 306.67 429.65 307.52 436.39
C 308.87 447.06 308.79 449.77 306.88 457.51
C 305.52 463.01 303.21 468.23 300.82 471.19
L 296.98 475.97
L 296.98 511.92
L 296.98 547.86
L 302.29 552.97
C 309.27 559.66 311.18 564.48 311.18 575.38
C 311.18 582.88 311.72 585.20 314.41 589.16
C 320.01 597.42 318.12 600.00 306.50 600.00
C 299.76 600.00 297.83 599.47 294.53 596.70
C 290.80 593.56 290.60 592.88 290.25 582.32
C 289.95 573.66 289.41 570.94 287.72 569.88
C 286.17 568.90 285.01 569.01 283.52 570.23
C 281.96 571.54 281.48 574.44 281.48 582.62
C 281.48 592.98 281.35 593.42 277.50 596.66
C 274.16 599.47 272.26 600.00 265.50 600.00
C 260.98 600.00 256.79 599.33 255.92 598.45
M 272.04 590.75
C 274.64 588.30 275.02 586.70 275.02 578.39
C 275.02 569.55 275.31 568.55 278.80 565.06
C 281.08 562.79 283.93 561.29 286.00 561.29
C 288.07 561.29 290.92 562.79 293.20 565.06
C 296.68 568.54 296.98 569.57 296.98 578.21
C 296.98 586.05 297.43 588.06 299.78 590.57
C 301.33 592.21 303.95 593.55 305.59 593.55
C 309.03 593.55 309.46 592.00 306.66 589.68
C 305.21 588.48 304.72 585.29 304.72 577.16
L 304.72 566.26
L 297.62 558.83
L 290.52 551.38
L 290.52 515.05
L 290.52 478.71
L 286.00 478.71
L 281.48 478.71
L 281.48 515.05
L 281.48 551.38
L 274.38 558.83
L 267.28 566.26
L 267.28 577.16
C 267.28 585.29 266.79 588.48 265.34 589.68
C 264.28 590.55 263.40 591.79 263.40 592.41
C 263.40 594.62 269.09 593.51 272.04 590.75
M 35.90 531.35
C 37.08 530.17 37.44 501.54 37.46 410.39
L 37.47 290.97
L 40.50 284.46
C 44.21 276.52 49.36 272.01 58.78 268.49
C 67.31 265.30 71.60 265.15 80.54 267.75
C 89.60 270.39 95.46 275.55 103.66 288.13
C 107.47 293.95 115.12 304.13 120.68 310.75
C 164.25 362.63 237.13 393.45 301.92 387.35
C 322.53 385.42 333.66 383.08 353.06 376.66
C 400.34 360.97 441.37 329.46 468.34 288.13
C 476.54 275.55 482.40 270.39 491.46 267.75
C 500.40 265.15 504.69 265.30 513.22 268.49
C 522.64 272.01 527.79 276.52 531.50 284.46
L 534.53 290.97
L 534.54 410.39
C 534.56 501.54 534.92 530.17 536.10 531.35
C 538.39 533.64 562.19 533.46 564.11 531.14
C 565.20 529.83 565.49 493.08 565.23 392.00
L 564.90 254.63
L 561.27 249.88
C 559.28 247.28 555.38 243.99 552.61 242.57
C 547.62 240.03 544.61 240.00 286.00 240.00
C 27.39 240.00 24.38 240.03 19.39 242.57
C 16.62 243.99 12.72 247.28 10.73 249.88
L 7.10 254.63
L 6.77 392.00
C 6.51 493.08 6.80 529.83 7.89 531.14
C 9.81 533.46 33.61 533.64 35.90 531.35
M 293.05 467.59
C 299.66 462.04 301.34 457.46 301.30 445.16
C 301.26 433.16 300.10 427.79 294.12 412.26
C 291.94 406.58 289.59 400.34 288.89 398.39
C 288.20 396.44 286.89 394.84 286.00 394.84
C 285.11 394.84 283.80 396.44 283.11 398.39
C 282.40 400.34 280.03 406.58 277.84 412.26
C 271.93 427.57 270.74 433.06 270.70 445.16
C 270.66 457.46 272.34 462.04 278.95 467.59
C 281.16 469.45 284.33 470.97 286.00 470.97
C 287.67 470.97 290.84 469.45 293.05 467.59
M 216.15 456.65
C 225.07 449.64 229.78 432.27 229.81 406.28
L 229.83 388.70
L 225.92 387.08
C 223.76 386.19 221.80 385.68 221.56 385.96
C 217.42 390.52 206.91 405.86 204.11 411.42
C 196.02 427.43 193.98 443.38 198.81 452.84
C 200.21 455.57 202.10 458.13 203.00 458.49
C 206.85 460.04 212.92 459.19 216.15 456.65
M 368.58 458.55
C 372.33 457.11 375.74 448.41 375.74 440.28
C 375.74 426.55 369.53 411.19 357.56 395.29
C 353.89 390.43 350.69 386.23 350.44 385.96
C 350.20 385.68 348.24 386.19 346.08 387.08
L 342.17 388.70
L 342.19 406.28
C 342.22 426.00 344.19 437.73 349.13 447.46
C 354.23 457.52 361.08 461.43 368.58 458.55
M 149.47 429.46
C 160.59 422.61 169.33 401.20 172.37 373.35
C 173.19 365.99 173.05 365.34 170.49 364.53
C 166.96 363.42 164.19 365.28 153.32 376.05
C 133.81 395.38 125.08 415.54 131.12 427.23
C 134.62 433.99 140.88 434.75 149.47 429.46
M 435.64 432.31
C 437.42 431.64 439.78 429.34 440.88 427.21
C 446.92 415.54 438.18 395.37 418.68 376.05
C 407.81 365.28 405.04 363.42 401.51 364.53
C 398.95 365.34 398.81 365.99 399.63 373.35
C 402.92 403.45 412.19 424.44 425.00 430.76
C 431.47 433.96 431.34 433.95 435.64 432.31
M 92.37 392.41
C 98.89 389.46 107.25 380.08 113.59 368.63
C 119.93 357.17 128.64 331.91 126.87 330.14
C 125.99 329.26 122.87 330.18 117.33 332.95
C 92.00 345.65 74.93 364.99 74.90 381.07
C 74.89 386.25 75.53 387.94 78.66 391.07
C 83.05 395.45 85.22 395.66 92.37 392.41
M 493.34 391.07
C 503.50 380.90 493.03 358.44 470.80 342.67
C 459.73 334.84 446.77 328.50 445.13 330.14
C 443.36 331.91 452.07 357.17 458.41 368.63
C 464.75 380.08 473.11 389.46 479.63 392.41
C 486.78 395.66 488.95 395.45 493.34 391.07
M 290.26 190.00
C 289.82 140.90 289.91 141.38 279.87 134.12
L 274.48 130.21
L 272.20 133.17
C 270.94 134.80 269.90 136.65 269.89 137.29
C 269.87 137.92 272.48 141.24 275.67 144.65
L 281.48 150.85
L 281.48 192.21
L 281.48 233.55
L 286.06 233.55
L 290.65 233.55
L 290.26 190.00
M 234.67 210.65
C 245.33 170.50 253.77 150.72 275.28 115.48
C 298.05 78.21 304.72 61.01 304.72 39.65
C 304.72 31.59 303.96 23.72 302.81 19.83
C 300.86 13.29 295.59 6.84 293.33 8.25
C 292.65 8.66 291.07 15.83 289.82 24.18
L 287.54 39.35
L 272.08 67.74
C 263.57 83.35 254.37 100.00 251.62 104.74
C 245.47 115.34 244.27 120.90 237.54 169.81
C 234.64 190.89 231.94 209.79 231.54 211.81
C 230.44 217.30 233.18 216.28 234.67 210.65"/>
<path fill="#000000" stroke="none" d="
M 250.81 144.95
C 248.80 144.14 248.79 141.37 250.71 132.98
C 252.05 127.21 252.56 126.52 254.91 127.24
C 256.39 127.69 257.83 128.27 258.11 128.53
C 258.90 129.24 254.20 145.82 253.26 145.70
C 252.80 145.65 251.71 145.32 250.81 144.95"/>
<path fill="#c57a36" stroke="none" d="
M 263.40 592.41
C 263.40 591.79 264.28 590.55 265.34 589.68
C 266.79 588.48 267.28 585.29 267.28 577.16
L 267.28 566.26
L 274.38 558.83
L 281.48 551.38
L 281.48 515.05
L 281.48 478.71
L 286.00 478.71
L 290.52 478.71
L 290.52 515.05
L 290.52 551.38
L 297.62 558.83
L 304.72 566.26
L 304.72 577.16
C 304.72 585.29 305.21 588.48 306.66 589.68
C 309.46 592.00 309.03 593.55 305.59 593.55
C 303.95 593.55 301.33 592.21 299.78 590.57
C 297.43 588.06 296.98 586.05 296.98 578.21
C 296.98 569.57 296.68 568.54 293.20 565.06
C 290.92 562.79 288.07 561.29 286.00 561.29
C 283.93 561.29 281.08 562.79 278.80 565.06
C 275.31 568.55 275.02 569.55 275.02 578.39
C 275.02 586.70 274.64 588.30 272.04 590.75
C 269.09 593.51 263.40 594.62 263.40 592.41"/>
<path fill="#c57a36" stroke="none" d="
M 281.48 192.21
L 281.48 150.85
L 275.67 144.65
C 272.48 141.24 269.87 137.92 269.89 137.29
C 269.90 136.65 270.94 134.80 272.20 133.17
L 274.48 130.21
L 279.87 134.12
C 289.91 141.38 289.82 140.90 290.26 190.00
L 290.65 233.55
L 286.06 233.55
L 281.48 233.55
L 281.48 192.21"/>
<path fill="#c57a36" stroke="none" d="
M 231.54 211.81
C 231.94 209.79 234.64 190.89 237.54 169.81
C 244.27 120.90 245.47 115.34 251.62 104.74
C 254.37 100.00 263.57 83.35 272.08 67.74
L 287.54 39.35
L 289.80 24.28
C 292.24 8.06 293.55 5.96 298.21 10.90
C 302.63 15.60 304.72 24.85 304.72 39.61
C 304.72 50.57 304.10 54.97 301.31 63.61
C 296.94 77.23 289.06 92.92 275.28 115.48
C 253.77 150.72 245.33 170.50 234.67 210.65
C 233.18 216.28 230.44 217.30 231.54 211.81
M 256.35 137.41
C 258.82 128.30 258.85 128.45 254.91 127.24
C 252.56 126.52 252.05 127.21 250.71 132.98
C 248.37 143.12 248.79 145.15 253.26 145.70
C 253.71 145.75 255.10 142.03 256.35 137.41"/>
<path fill="#ffbf53" stroke="none" d="
M 7.89 531.14
C 6.80 529.83 6.51 493.08 6.77 392.00
L 7.10 254.63
L 10.82 249.75
C 12.87 247.07 16.94 243.79 19.86 242.46
C 25.00 240.14 34.06 240.05 286.37 240.03
C 544.65 240.00 547.62 240.03 552.61 242.57
C 555.38 243.99 559.28 247.28 561.27 249.88
L 564.90 254.63
L 565.23 392.00
C 565.49 493.08 565.20 529.83 564.11 531.14
C 562.19 533.46 538.39 533.64 536.10 531.35
C 534.92 530.17 534.56 501.54 534.54 410.39
L 534.53 290.97
L 531.50 284.46
C 527.79 276.52 522.64 272.01 513.22 268.49
C 504.69 265.30 500.40 265.15 491.46 267.75
C 482.40 270.39 476.54 275.55 468.34 288.13
C 441.37 329.46 400.34 360.97 353.06 376.66
C 333.66 383.08 322.53 385.42 301.92 387.35
C 275.04 389.88 248.49 386.45 218.94 376.66
C 171.66 360.97 130.63 329.46 103.66 288.13
C 95.46 275.55 89.60 270.39 80.54 267.75
C 71.60 265.15 67.31 265.30 58.78 268.49
C 49.36 272.01 44.21 276.52 40.50 284.46
L 37.47 290.97
L 37.46 410.39
C 37.44 501.54 37.08 530.17 35.90 531.35
C 33.61 533.64 9.81 533.46 7.89 531.14"/>
<path fill="#ef907a" stroke="none" d="
M 278.95 467.59
C 272.34 462.04 270.66 457.46 270.70 445.16
C 270.74 433.06 271.93 427.57 277.84 412.26
C 280.03 406.58 282.40 400.34 283.11 398.39
C 283.80 396.44 285.11 394.84 286.00 394.84
C 286.89 394.84 288.20 396.44 288.89 398.39
C 289.59 400.34 291.94 406.58 294.12 412.26
C 300.10 427.79 301.26 433.16 301.30 445.16
C 301.34 457.46 299.66 462.04 293.05 467.59
C 290.84 469.45 287.67 470.97 286.00 470.97
C 284.33 470.97 281.16 469.45 278.95 467.59"/>
<path fill="#ef907a" stroke="none" d="
M 203.00 458.49
C 202.10 458.13 200.21 455.57 198.81 452.84
C 193.98 443.38 196.02 427.43 204.11 411.42
C 206.91 405.86 217.42 390.52 221.56 385.96
C 221.80 385.68 223.76 386.19 225.92 387.08
L 229.83 388.70
L 229.81 406.28
C 229.78 432.27 225.07 449.64 216.15 456.65
C 212.92 459.19 206.85 460.04 203.00 458.49"/>
<path fill="#ef907a" stroke="none" d="
M 355.85 456.65
C 346.93 449.64 342.22 432.27 342.19 406.28
L 342.17 388.70
L 346.08 387.08
C 348.24 386.19 350.20 385.68 350.44 385.96
C 354.58 390.52 365.09 405.86 367.89 411.42
C 375.96 427.39 378.01 443.38 373.21 452.80
C 369.49 460.09 362.27 461.69 355.85 456.65"/>
<path fill="#ef907a" stroke="none" d="
M 135.96 432.27
C 134.40 431.63 132.23 429.35 131.12 427.23
C 125.08 415.54 133.81 395.38 153.32 376.05
C 164.19 365.28 166.96 363.42 170.49 364.53
C 173.05 365.34 173.19 365.99 172.37 373.35
C 170.10 394.18 165.17 410.19 157.68 421.07
C 151.56 429.96 142.13 434.81 135.96 432.27"/>
<path fill="#ef907a" stroke="none" d="
M 425.00 430.76
C 412.19 424.44 402.92 403.45 399.63 373.35
C 398.81 365.99 398.95 365.34 401.51 364.53
C 405.04 363.42 407.81 365.28 418.68 376.05
C 438.18 395.37 446.92 415.54 440.88 427.21
C 439.19 430.50 434.67 433.55 431.49 433.55
C 431.01 433.55 428.08 432.30 425.00 430.76"/>
<path fill="#ef907a" stroke="none" d="
M 78.66 391.07
C 68.49 380.89 78.92 358.53 101.28 342.58
C 111.37 335.41 125.40 328.67 126.99 330.26
C 128.63 331.90 119.60 357.73 113.59 368.63
C 107.25 380.08 98.89 389.46 92.37 392.41
C 85.22 395.66 83.05 395.45 78.66 391.07"/>
<path fill="#ef907a" stroke="none" d="
M 479.63 392.41
C 473.11 389.46 464.75 380.08 458.41 368.63
C 452.07 357.17 443.36 331.91 445.13 330.14
C 446.01 329.26 449.13 330.18 454.67 332.95
C 480.00 345.65 497.07 364.99 497.10 381.07
C 497.11 386.25 496.47 387.94 493.34 391.07
C 488.95 395.45 486.78 395.66 479.63 392.41"/>
</g>
</svg>
