<?xml version="1.0" encoding="UTF-8" standalone="no"?>
<!DOCTYPE svg PUBLIC "-//W3C//DTD SVG 1.1//EN"
"http://www.w3.org/Graphics/SVG/1.1/DTD/svg11.dtd">
<svg width="617px" height="600px"
xmlns="http://www.w3.org/2000/svg" version="1.1">
<g transform="translate(0000, 0000) scale(1.0000, 1.0000)">
<path fill="#000000" stroke="none" d="
M 80.29 597.61
C 74.23 593.92 69.52 587.55 63.46 574.95
C 56.06 559.49 52.14 545.28 46.88 514.68
C 41.18 481.62 38.92 461.46 37.29 429.57
C 34.59 377.04 40.70 307.13 54.03 238.00
C 58.36 215.46 60.38 202.96 63.67 178.27
C 64.01 175.62 63.80 173.45 63.18 173.45
C 61.94 173.45 49.55 187.07 34.15 205.36
C 19.06 223.28 8.03 231.15 2.70 227.78
C 0.86 226.63 0.60 218.43 0.33 150.18
C 0.14 103.57 0.50 73.13 1.25 71.95
C 2.25 70.37 7.43 69.91 30.00 69.38
L 57.55 68.74
L 50.00 48.18
C 45.85 36.87 40.64 23.43 38.43 18.32
C 33.87 7.76 34.11 3.22 39.32 1.23
C 41.21 0.53 62.91 0.00 90.71 0.00
C 137.12 0.00 138.91 0.09 141.40 2.57
C 144.46 5.63 144.65 9.08 142.05 14.11
C 139.87 18.35 122.14 68.54 122.65 69.06
C 122.83 69.25 156.56 69.25 197.61 69.07
L 272.21 68.74
L 262.92 43.68
C 257.82 29.90 252.67 16.78 251.50 14.52
C 248.69 9.08 248.82 5.69 251.94 2.57
C 254.42 0.09 256.22 0.00 304.00 0.00
C 351.78 0.00 353.58 0.09 356.06 2.57
C 359.12 5.63 359.31 9.08 356.72 14.11
C 354.52 18.35 336.80 68.54 337.32 69.06
C 337.51 69.25 368.91 69.25 407.13 69.07
L 476.59 68.74
L 467.30 43.68
C 462.20 29.90 457.06 16.78 455.89 14.52
C 453.07 9.08 453.20 5.69 456.32 2.57
C 458.80 0.09 460.60 0.00 508.38 0.00
C 556.16 0.00 557.96 0.09 560.44 2.57
C 563.53 5.65 563.69 9.08 561.03 14.22
C 559.95 16.32 555.38 28.57 550.88 41.46
C 546.38 54.35 542.29 65.90 541.79 67.13
C 540.94 69.24 543.11 69.38 576.92 69.38
C 607.98 69.38 613.23 69.66 614.98 71.40
C 616.77 73.18 617.00 82.05 617.00 149.51
C 617.00 206.98 616.63 225.98 615.46 227.15
C 613.47 229.14 605.61 229.07 601.93 227.02
C 600.37 226.15 589.95 216.76 578.80 206.16
C 556.46 184.92 550.85 180.26 542.82 176.18
C 534.78 172.12 533.29 172.47 534.05 178.27
C 537.34 202.96 539.36 215.46 543.69 238.00
C 557.02 307.13 563.13 377.04 560.43 429.57
C 558.80 461.46 556.53 481.62 550.84 514.68
C 545.57 545.29 541.67 559.48 534.22 575.02
C 525.52 593.20 518.32 600.00 507.74 600.00
C 497.16 600.00 489.96 593.20 481.26 575.02
C 473.80 559.48 469.91 545.29 464.64 514.68
C 458.95 481.62 456.68 461.46 455.05 429.57
C 452.35 377.04 458.46 307.13 471.79 238.00
C 476.17 215.24 478.71 199.37 481.49 177.61
L 482.19 172.14
L 406.59 172.47
L 330.99 172.81
L 331.39 179.23
C 332.06 189.78 335.33 210.60 340.64 238.19
C 353.93 307.12 360.03 377.09 357.33 429.57
C 355.70 461.46 353.44 481.62 347.74 514.68
C 342.47 545.29 338.58 559.48 331.12 575.02
C 322.42 593.20 315.22 600.00 304.64 600.00
C 294.06 600.00 286.87 593.20 278.16 575.02
C 270.71 559.48 266.81 545.29 261.54 514.68
C 255.85 481.62 253.59 461.46 251.95 429.57
C 249.26 377.04 255.36 307.13 268.69 238.00
C 273.07 215.25 275.63 199.35 278.40 177.62
L 279.09 172.16
L 197.31 172.16
L 115.53 172.16
L 116.23 177.62
C 118.99 199.35 121.55 215.25 125.93 238.00
C 142.73 325.18 147.27 403.95 139.42 472.28
C 136.64 496.45 129.24 538.33 125.37 551.82
C 119.03 573.88 107.78 593.52 98.85 598.14
C 93.85 600.72 84.98 600.46 80.29 597.61
M 94.48 589.72
C 104.03 583.82 114.84 561.13 120.80 534.48
C 140.66 445.75 139.90 354.58 118.37 242.83
C 113.23 216.17 110.13 196.64 108.55 180.84
L 107.68 172.16
L 89.98 172.16
L 72.28 172.16
L 71.40 180.84
C 69.82 196.64 66.73 216.17 61.58 242.83
C 45.35 327.06 40.61 406.86 48.16 468.31
C 50.63 488.39 55.79 519.47 59.15 534.48
C 65.07 560.89 75.83 583.59 85.31 589.67
C 90.22 592.82 89.48 592.82 94.48 589.72
M 309.14 589.72
C 318.69 583.82 329.50 561.13 335.47 534.48
C 355.33 445.75 354.57 354.58 333.04 242.83
C 327.90 216.17 324.80 196.64 323.22 180.84
L 322.34 172.16
L 304.64 172.16
L 286.94 172.16
L 286.07 180.84
C 284.49 196.64 281.39 216.17 276.25 242.83
C 260.01 327.06 255.27 406.86 262.83 468.31
C 265.30 488.39 270.45 519.47 273.82 534.48
C 279.73 560.89 290.49 583.59 299.98 589.67
C 304.89 592.82 304.14 592.82 309.14 589.72
M 512.24 589.72
C 521.79 583.82 532.60 561.13 538.56 534.48
C 558.42 445.75 557.67 354.58 536.13 242.83
C 530.99 216.17 527.89 196.64 526.31 180.84
L 525.44 172.16
L 507.74 172.16
L 490.04 172.16
L 489.17 180.84
C 487.58 196.64 484.49 216.17 479.34 242.83
C 463.11 327.06 458.37 406.86 465.92 468.31
C 468.39 488.39 473.55 519.47 476.92 534.48
C 482.83 560.89 493.59 583.59 503.07 589.67
C 507.98 592.82 507.24 592.82 512.24 589.72
M 609.29 149.94
C 609.29 97.39 608.90 79.79 607.75 78.63
C 605.50 76.38 11.50 76.38 9.26 78.63
C 7.44 80.44 6.97 217.13 8.78 217.13
C 10.37 217.13 25.99 200.47 40.28 183.49
C 47.56 174.86 54.75 167.63 57.19 166.47
C 61.01 164.66 85.69 164.45 298.50 164.45
C 561.64 164.45 541.44 163.77 556.07 173.22
C 560.27 175.93 573.40 187.50 585.24 198.93
C 597.09 210.35 607.33 219.70 608.03 219.70
C 608.84 219.70 609.29 194.57 609.29 149.94
M 113.13 67.77
C 113.14 66.89 117.68 53.32 123.23 37.61
C 128.77 21.91 133.01 8.75 132.64 8.38
C 131.78 7.52 46.92 7.49 46.06 8.35
C 45.70 8.71 50.22 21.87 56.11 37.58
C 62.00 53.31 66.82 66.89 66.83 67.77
C 66.84 70.10 113.10 70.10 113.13 67.77
M 327.79 67.77
C 327.81 66.89 332.34 53.32 337.90 37.61
C 343.44 21.91 347.68 8.75 347.31 8.38
C 346.45 7.52 261.58 7.49 260.72 8.35
C 260.36 8.71 264.89 21.87 270.77 37.58
C 276.66 53.31 281.48 66.89 281.49 67.77
C 281.51 68.99 286.99 69.38 304.64 69.38
C 322.29 69.38 327.78 68.99 327.79 67.77
M 532.18 67.77
C 532.19 66.89 536.73 53.32 542.28 37.61
C 547.82 21.91 552.06 8.75 551.69 8.38
C 550.83 7.52 465.96 7.49 465.10 8.35
C 464.74 8.71 469.27 21.87 475.15 37.58
C 481.04 53.31 485.86 66.89 485.87 67.77
C 485.89 68.99 491.38 69.38 509.02 69.38
C 526.67 69.38 532.16 68.99 532.18 67.77"/>
<path fill="#c57a36" stroke="none" d="
M 66.83 67.77
C 66.82 66.89 62.01 53.33 56.12 37.63
C 47.79 15.38 45.84 8.94 47.25 8.40
C 49.58 7.52 131.76 7.49 132.64 8.38
C 133.01 8.75 128.77 21.91 123.23 37.61
C 117.68 53.32 113.14 66.89 113.13 67.77
C 113.10 70.10 66.84 70.10 66.83 67.77"/>
<path fill="#c57a36" stroke="none" d="
M 281.49 67.77
C 281.48 66.89 276.66 53.31 270.77 37.58
C 264.89 21.87 260.36 8.71 260.72 8.35
C 261.58 7.49 346.45 7.52 347.31 8.38
C 347.68 8.75 343.44 21.91 337.90 37.61
C 332.34 53.32 327.81 66.89 327.79 67.77
C 327.78 68.99 322.29 69.38 304.64 69.38
C 286.99 69.38 281.51 68.99 281.49 67.77"/>
<path fill="#c57a36" stroke="none" d="
M 485.87 67.77
C 485.86 66.89 481.04 53.31 475.15 37.58
C 469.27 21.87 464.74 8.71 465.10 8.35
C 465.96 7.49 550.83 7.52 551.69 8.38
C 552.06 8.75 547.82 21.91 542.28 37.61
C 536.73 53.32 532.19 66.89 532.18 67.77
C 532.16 68.99 526.67 69.38 509.02 69.38
C 491.38 69.38 485.89 68.99 485.87 67.77"/>
<path fill="#ffbf53" stroke="none" d="
M 585.24 198.93
C 573.40 187.50 560.27 175.93 556.07 173.22
C 541.44 163.77 561.64 164.45 298.50 164.45
C 85.69 164.45 61.01 164.66 57.19 166.47
C 54.75 167.63 47.56 174.86 40.28 183.49
C 25.99 200.47 10.37 217.13 8.78 217.13
C 8.19 217.13 7.71 186.22 7.71 148.45
C 7.71 81.84 7.79 79.71 10.19 78.42
C 14.04 76.37 605.69 76.57 607.75 78.63
C 609.72 80.61 610.01 219.70 608.03 219.70
C 607.33 219.70 597.09 210.35 585.24 198.93"/>
<path fill="#ef907a" stroke="none" d="
M 85.31 589.67
C 75.83 583.59 65.07 560.89 59.15 534.48
C 39.28 445.72 40.05 354.39 61.61 242.78
C 64.41 228.26 67.64 209.47 68.78 201.02
C 69.93 192.57 71.26 182.76 71.75 179.23
L 72.65 172.81
L 90.16 172.45
L 107.67 172.10
L 108.54 180.80
C 110.13 196.64 113.23 216.15 118.37 242.83
C 134.61 327.06 139.35 406.86 131.79 468.31
C 129.33 488.39 124.17 519.47 120.80 534.48
C 114.84 561.13 104.03 583.82 94.48 589.72
C 89.48 592.82 90.22 592.82 85.31 589.67"/>
<path fill="#ef907a" stroke="none" d="
M 299.98 589.67
C 290.49 583.59 279.73 560.89 273.82 534.48
C 253.96 445.75 254.72 354.58 276.25 242.83
C 281.39 216.17 284.49 196.64 286.07 180.84
L 286.94 172.16
L 304.64 172.16
L 322.34 172.16
L 323.22 180.84
C 324.80 196.64 327.90 216.17 333.04 242.83
C 349.27 327.06 354.02 406.86 346.46 468.31
C 343.99 488.39 338.84 519.47 335.47 534.48
C 329.50 561.13 318.69 583.82 309.14 589.72
C 304.14 592.82 304.89 592.82 299.98 589.67"/>
<path fill="#ef907a" stroke="none" d="
M 503.07 589.67
C 493.59 583.59 482.83 560.89 476.92 534.48
C 457.06 445.75 457.81 354.58 479.34 242.83
C 484.49 216.17 487.58 196.64 489.17 180.84
L 490.04 172.16
L 507.74 172.16
L 525.44 172.16
L 526.31 180.84
C 527.89 196.64 530.99 216.17 536.13 242.83
C 552.37 327.06 557.11 406.86 549.55 468.31
C 547.09 488.39 541.93 519.47 538.56 534.48
C 532.60 561.13 521.79 583.82 512.24 589.72
C 507.24 592.82 507.98 592.82 503.07 589.67"/>
</g>
</svg>
