<?xml version="1.0" encoding="UTF-8" standalone="no"?>
<!DOCTYPE svg PUBLIC "-//W3C//DTD SVG 1.1//EN"
"http://www.w3.org/Graphics/SVG/1.1/DTD/svg11.dtd">
<svg width="304px" height="600px"
xmlns="http://www.w3.org/2000/svg" version="1.1">
<g transform="translate(0000, 0000) scale(1.0000, 1.0000)">
<path fill="#000000" stroke="none" d="
M 124.42 597.44
C 121.63 594.65 120.97 587.42 123.14 583.38
C 123.83 582.06 128.74 578.30 134.04 575.01
C 139.33 571.73 143.66 568.57 143.66 567.99
C 143.66 567.43 139.97 564.90 135.44 562.38
C 121.54 554.62 117.26 546.74 120.46 534.81
C 122.41 527.53 125.53 524.20 135.68 518.52
C 144.96 513.34 144.88 512.80 133.97 506.56
C 121.48 499.45 117.38 491.30 120.46 479.80
C 122.41 472.52 125.53 469.19 135.65 463.54
C 140.06 461.07 143.66 458.56 143.66 457.94
C 143.66 457.34 140.02 454.81 135.58 452.33
C 120.09 443.69 116.08 435.11 121.74 422.67
C 123.63 418.53 126.20 416.14 133.90 411.35
C 139.26 408.01 143.66 404.81 143.66 404.24
C 143.66 403.68 140.06 401.19 135.65 398.72
C 125.47 393.04 122.41 389.74 120.42 382.31
C 119.14 377.51 119.14 375.25 120.46 370.80
C 122.49 363.95 125.65 360.43 134.18 355.57
C 144.86 349.47 144.93 348.91 135.68 343.74
C 123.46 336.91 119.29 331.33 119.29 321.75
C 119.29 312.18 123.46 306.59 135.65 299.78
C 140.06 297.31 143.66 294.81 143.66 294.19
C 143.66 293.59 139.94 291.02 135.40 288.47
C 121.14 280.53 115.92 271.71 119.12 261.03
C 121.24 253.98 124.55 250.44 134.59 244.49
C 139.83 241.38 143.30 238.52 142.96 237.59
C 142.62 236.72 138.51 233.72 133.80 230.90
C 122.16 223.96 119.93 220.66 119.93 210.45
C 119.93 200.32 121.97 197.26 134.12 189.19
C 139.02 185.94 142.79 182.76 142.52 182.15
C 142.25 181.54 137.75 178.29 132.52 174.95
C 122.60 168.61 119.28 163.97 119.30 156.43
C 119.30 150.58 121.75 143.60 125.23 139.48
L 128.50 135.61
L 94.20 135.61
L 59.89 135.61
L 53.36 141.71
C 49.76 145.07 45.09 149.12 42.97 150.72
C 38.60 154.00 37.81 152.99 51.30 161.42
C 60.52 167.19 62.81 170.51 63.74 179.44
C 64.81 189.84 62.33 193.88 49.88 201.99
C 44.19 205.70 39.92 209.12 40.39 209.59
C 40.87 210.06 45.05 212.75 49.69 215.57
C 60.63 222.19 63.20 225.74 63.80 235.06
C 64.48 245.53 61.83 249.93 50.10 257.78
C 44.86 261.30 40.71 264.75 40.89 265.46
C 41.07 266.16 45.04 269.04 49.68 271.86
C 60.63 278.48 63.20 282.03 63.80 291.35
C 64.48 301.97 61.84 306.27 50.24 313.41
C 45.06 316.59 40.74 319.73 40.62 320.38
C 40.51 321.03 44.61 324.10 49.76 327.21
C 60.97 334.00 62.90 336.65 63.69 346.32
C 64.56 356.99 61.97 361.20 50.03 368.55
C 44.74 371.81 40.47 374.97 40.56 375.57
C 40.64 376.18 44.96 379.29 50.18 382.50
C 60.90 389.09 64.14 393.84 64.14 402.99
C 64.14 412.00 60.88 416.87 50.06 423.97
C 42.75 428.76 40.93 430.52 42.37 431.37
C 43.41 431.99 47.38 434.34 51.21 436.61
C 60.58 442.16 63.22 446.03 63.80 455.10
C 64.48 465.72 61.84 470.02 50.24 477.16
C 45.06 480.35 40.74 483.45 40.62 484.09
C 40.51 484.72 44.74 487.89 50.03 491.16
C 60.92 497.85 64.14 502.54 64.14 511.73
C 64.14 520.86 60.90 525.62 50.24 532.17
C 45.06 535.36 40.83 538.53 40.83 539.23
C 40.83 539.94 45.06 543.11 50.24 546.29
C 60.90 552.84 64.14 557.60 64.14 566.74
C 64.14 575.53 60.83 580.70 51.31 586.78
C 46.72 589.71 41.01 593.60 38.60 595.42
C 29.78 602.06 19.24 598.59 19.24 589.04
C 19.24 582.31 20.82 580.32 31.43 573.74
C 36.71 570.45 41.05 567.29 41.05 566.71
C 41.05 566.15 37.35 563.62 32.82 561.10
C 18.92 553.34 14.65 545.46 17.84 533.53
C 19.79 526.25 22.91 522.92 33.07 517.24
C 42.34 512.06 42.26 511.52 31.35 505.28
C 18.87 498.17 14.76 490.02 17.84 478.52
C 19.79 471.24 22.91 467.91 33.03 462.26
C 37.44 459.79 41.05 457.28 41.05 456.67
C 41.05 456.06 37.40 453.53 32.97 451.05
C 17.47 442.41 13.47 433.83 19.13 421.39
C 21.01 417.25 23.59 414.86 31.29 410.07
C 36.65 406.73 41.05 403.54 41.05 402.96
C 41.05 402.40 37.44 399.91 33.03 397.45
C 22.86 391.77 19.79 388.46 17.80 381.03
C 16.52 376.23 16.52 373.97 17.84 369.52
C 19.87 362.67 23.04 359.16 31.57 354.29
C 42.24 348.19 42.32 347.63 33.07 342.46
C 20.84 335.63 16.68 330.05 16.68 320.47
C 16.68 310.90 20.84 305.31 33.03 298.50
C 37.44 296.03 41.05 293.53 41.05 292.91
C 41.05 292.31 37.33 289.74 32.79 287.19
C 18.52 279.25 13.30 270.43 16.51 259.75
C 18.62 252.70 21.93 249.16 31.98 243.21
C 37.21 240.10 40.69 237.24 40.34 236.32
C 40.01 235.45 35.89 232.44 31.18 229.62
C 19.55 222.68 17.32 219.38 17.32 209.17
C 17.32 199.04 19.36 195.98 31.50 187.91
C 36.40 184.66 40.29 181.59 40.16 181.07
C 40.02 180.58 35.40 177.19 29.90 173.55
C 21.60 168.08 19.57 166.07 18.09 161.78
C 15.79 155.14 17.06 146.24 21.19 140.16
L 24.29 135.61
L 14.71 135.61
C -0.72 135.61 0.00 137.64 0.00 94.03
C 0.00 59.27 0.12 57.45 2.57 55.01
C 5.04 52.54 6.84 52.45 52.92 52.45
L 100.72 52.45
L 103.74 41.90
C 107.55 28.61 110.43 22.96 117.00 15.84
C 127.49 4.50 148.52 -1.91 165.25 1.16
C 182.13 4.26 195.92 13.62 202.42 26.42
C 203.81 29.13 206.30 36.09 207.95 41.90
L 210.98 52.45
L 254.92 52.45
C 297.16 52.45 298.97 52.55 301.43 55.01
C 303.88 57.45 304.00 59.27 304.00 94.03
C 304.00 138.83 305.50 135.61 284.57 135.61
L 270.25 135.61
L 263.72 141.71
C 260.12 145.07 255.45 149.12 253.33 150.72
C 248.96 154.00 248.18 152.99 261.66 161.42
C 270.88 167.19 273.18 170.51 274.10 179.44
C 275.18 189.84 272.69 193.88 260.25 201.99
C 254.55 205.70 250.28 209.12 250.76 209.59
C 251.23 210.06 255.41 212.75 260.05 215.57
C 271.00 222.19 273.56 225.74 274.16 235.06
C 274.84 245.53 272.19 249.93 260.47 257.78
C 255.22 261.30 250.99 264.70 251.05 265.33
C 251.11 265.97 255.08 268.85 259.84 271.73
C 271.00 278.48 273.56 281.99 274.16 291.35
C 274.86 302.02 272.21 306.27 260.39 313.54
C 255.10 316.80 250.83 319.97 250.92 320.60
C 251.01 321.24 255.22 324.26 260.27 327.31
C 271.33 333.99 273.27 336.67 274.05 346.32
C 274.92 356.94 272.32 361.22 260.61 368.42
C 255.42 371.60 251.19 374.78 251.19 375.48
C 251.19 376.18 255.42 379.36 260.61 382.54
C 271.27 389.09 274.50 393.85 274.50 402.99
C 274.50 412.00 271.24 416.87 260.43 423.97
C 253.12 428.76 251.29 430.52 252.73 431.37
C 253.77 431.99 257.75 434.34 261.57 436.61
C 270.94 442.16 273.59 446.03 274.16 455.10
C 274.84 465.75 272.21 470.02 260.54 477.20
C 255.32 480.41 251.06 483.57 251.06 484.22
C 251.06 484.87 255.32 488.03 260.54 491.25
C 271.27 497.83 274.50 502.58 274.50 511.73
C 274.50 520.91 271.28 525.61 260.39 532.30
C 255.10 535.56 250.83 538.72 250.92 539.32
C 251.00 539.94 255.32 543.04 260.54 546.26
C 271.27 552.84 274.50 557.59 274.50 566.74
C 274.50 575.53 271.19 580.70 261.67 586.78
C 257.09 589.71 251.37 593.60 248.96 595.42
C 240.15 602.06 229.60 598.59 229.60 589.04
C 229.60 582.31 231.18 580.32 241.79 573.74
C 247.07 570.45 251.41 567.29 251.41 566.71
C 251.41 566.15 247.72 563.62 243.19 561.10
C 229.28 553.34 225.01 545.46 228.21 533.53
C 230.15 526.25 233.27 522.92 243.43 517.24
C 252.70 512.06 252.63 511.52 241.71 505.28
C 229.23 498.17 225.13 490.02 228.21 478.52
C 230.15 471.24 233.27 467.91 243.39 462.26
C 247.80 459.79 251.41 457.28 251.41 456.67
C 251.41 456.06 247.77 453.53 243.33 451.05
C 227.83 442.41 223.83 433.83 229.49 421.39
C 231.37 417.25 233.95 414.86 241.65 410.07
C 247.01 406.73 251.41 403.54 251.41 402.96
C 251.41 402.40 247.80 399.91 243.39 397.45
C 233.22 391.77 230.15 388.46 228.17 381.03
C 226.88 376.23 226.88 373.97 228.21 369.52
C 230.23 362.67 233.40 359.16 241.93 354.29
C 252.60 348.19 252.68 347.63 243.43 342.46
C 231.21 335.63 227.04 330.05 227.04 320.47
C 227.04 310.90 231.21 305.31 243.39 298.50
C 247.80 296.03 251.41 293.53 251.41 292.91
C 251.41 292.31 247.69 289.74 243.15 287.19
C 228.89 279.25 223.66 270.43 226.87 259.75
C 228.99 252.70 232.30 249.16 242.34 243.21
C 247.57 240.10 251.05 237.24 250.70 236.32
C 250.37 235.45 246.25 232.44 241.55 229.62
C 229.91 222.68 227.68 219.38 227.68 209.17
C 227.68 199.07 229.73 195.98 241.64 188.06
C 246.41 184.90 250.29 181.82 250.29 181.23
C 250.28 180.64 245.77 177.19 240.26 173.55
C 231.96 168.08 229.94 166.07 228.45 161.78
C 226.15 155.14 227.42 146.24 231.55 140.16
L 234.66 135.61
L 199.22 135.61
L 163.78 135.61
L 156.60 142.36
C 152.67 146.07 147.70 150.41 145.59 152.00
C 141.21 155.28 140.43 154.27 153.91 162.70
C 163.13 168.47 165.43 171.79 166.35 180.72
C 167.43 191.12 164.94 195.16 152.50 203.27
C 146.81 206.98 142.53 210.40 143.01 210.87
C 143.48 211.34 147.66 214.03 152.31 216.84
C 163.25 223.47 165.81 227.01 166.42 236.34
C 167.10 246.81 164.44 251.21 152.72 259.06
C 147.47 262.58 143.24 265.98 143.30 266.61
C 143.37 267.25 147.33 270.13 152.09 273.01
C 163.25 279.76 165.81 283.27 166.42 292.63
C 167.11 303.30 164.47 307.55 152.64 314.81
C 147.36 318.08 143.09 321.25 143.18 321.88
C 143.26 322.52 147.47 325.54 152.53 328.59
C 163.58 335.27 165.52 337.94 166.30 347.60
C 167.17 358.27 164.58 362.48 152.64 369.83
C 147.36 373.09 143.12 376.26 143.24 376.89
C 143.35 377.53 147.68 380.64 152.86 383.82
C 163.52 390.37 166.75 395.13 166.75 404.26
C 166.75 413.28 163.49 418.14 152.68 425.25
C 145.37 430.04 143.55 431.80 144.98 432.65
C 146.02 433.27 150.00 435.62 153.82 437.88
C 163.20 443.44 165.84 447.31 166.42 456.38
C 167.10 467.00 164.46 471.30 152.86 478.44
C 147.68 481.62 143.44 484.80 143.44 485.50
C 143.44 486.20 147.68 489.38 152.86 492.56
C 163.52 499.11 166.75 503.87 166.75 513.01
C 166.75 522.19 163.53 526.89 152.64 533.58
C 147.36 536.84 143.09 540.00 143.18 540.60
C 143.25 541.22 147.57 544.32 152.80 547.54
C 163.52 554.12 166.75 558.87 166.75 568.02
C 166.75 576.81 163.44 581.97 153.92 588.06
C 149.33 590.99 143.62 594.88 141.21 596.70
C 135.72 600.83 128.15 601.16 124.42 597.44
M 142.38 587.27
C 157.18 577.62 157.58 577.25 159.22 571.78
C 161.68 563.62 158.90 559.41 145.80 551.51
C 129.66 541.79 129.63 539.25 145.68 529.59
C 156.46 523.09 160.34 518.70 160.34 513.01
C 160.34 507.31 156.46 502.93 145.74 496.46
C 129.66 486.78 129.66 484.22 145.68 474.58
C 157.77 467.28 161.07 462.95 159.77 456.05
C 158.63 449.99 155.13 446.20 146.32 441.52
C 132.61 434.23 132.63 429.10 146.38 420.81
C 165.42 409.33 165.22 399.47 145.74 387.72
C 129.64 378.03 129.64 375.49 145.74 365.78
C 159.23 357.66 161.93 353.46 158.99 345.07
C 157.37 340.43 155.73 338.87 146.36 333.11
C 140.43 329.48 135.06 325.56 134.41 324.42
C 132.22 320.51 134.82 317.36 145.68 310.82
C 156.67 304.20 160.34 299.95 160.34 293.86
C 160.34 288.72 155.00 282.60 146.25 277.69
C 131.17 269.25 131.16 263.60 146.18 254.70
C 156.84 248.39 160.77 243.24 159.81 236.85
C 158.82 230.25 156.00 227.01 146.27 221.35
C 131.40 212.69 131.12 208.25 144.86 199.80
C 156.81 192.45 160.82 187.68 159.88 181.92
C 158.79 175.20 156.01 172.02 146.19 166.20
C 132.30 157.97 131.40 153.24 142.20 145.33
C 152.24 137.99 152.72 136.89 145.92 136.89
C 136.58 136.89 125.86 146.62 125.76 155.21
C 125.68 161.01 127.85 163.54 139.24 170.87
C 155.08 181.06 155.26 184.44 140.46 193.51
C 129.98 199.92 125.17 206.09 126.27 211.66
C 127.50 217.84 130.32 220.91 139.88 226.48
C 154.62 235.06 154.86 240.55 140.88 248.88
C 130.77 254.89 128.50 256.82 126.12 261.44
C 122.42 268.57 127.31 275.99 140.57 283.38
C 154.62 291.21 154.69 297.12 140.88 304.84
C 130.55 310.61 126.95 314.48 126.10 320.72
C 125.23 327.24 129.28 332.20 140.67 338.55
C 154.77 346.41 154.69 351.72 140.37 360.14
C 120.89 371.57 120.97 382.57 140.60 393.52
C 155.10 401.60 154.92 406.36 139.72 415.98
C 129.69 422.34 125.70 426.97 125.70 432.24
C 125.70 436.26 131.52 442.09 140.57 447.13
C 154.77 455.07 154.72 460.45 140.37 468.88
C 120.87 480.33 120.97 491.31 140.67 502.30
C 154.77 510.17 154.69 515.48 140.37 523.89
C 131.27 529.23 125.70 535.55 125.70 540.51
C 125.70 545.45 131.26 551.78 140.26 557.10
C 155.12 565.87 155.04 570.04 139.89 579.63
C 134.34 583.15 129.44 586.95 129.00 588.06
C 128.27 589.98 130.23 593.64 131.95 593.57
C 132.40 593.54 137.10 590.71 142.38 587.27
M 39.76 585.99
C 54.57 576.35 54.96 575.97 56.61 570.50
C 59.07 562.34 56.28 558.13 43.19 550.23
C 27.04 540.51 27.01 537.97 43.06 528.31
C 53.85 521.81 57.72 517.42 57.72 511.73
C 57.72 506.03 53.85 501.65 43.12 495.19
C 27.04 485.50 27.04 482.94 43.06 473.30
C 55.16 466.00 58.45 461.67 57.16 454.77
C 56.02 448.71 52.51 444.92 43.70 440.24
C 29.99 432.95 30.02 427.82 43.77 419.53
C 62.80 408.05 62.61 398.19 43.12 386.44
C 27.03 376.75 27.03 374.21 43.12 364.50
C 56.62 356.38 59.31 352.18 56.37 343.79
C 54.76 339.15 53.12 337.59 43.74 331.83
C 37.81 328.20 32.44 324.28 31.80 323.14
C 29.60 319.23 32.21 316.08 43.06 309.54
C 54.05 302.92 57.72 298.67 57.72 292.58
C 57.72 287.44 52.39 281.32 43.64 276.41
C 28.55 267.97 28.54 262.32 43.56 253.42
C 54.22 247.11 58.16 241.96 57.20 235.57
C 56.21 228.97 53.39 225.74 43.65 220.07
C 28.78 211.41 28.50 206.97 42.24 198.52
C 54.19 191.17 58.21 186.40 57.26 180.64
C 56.17 173.92 53.40 170.74 43.57 164.92
C 29.31 156.46 28.75 152.20 40.71 143.13
L 48.10 137.53
L 42.01 137.14
C 37.01 136.81 35.12 137.36 31.36 140.23
C 23.91 145.89 21.14 153.88 24.46 160.08
C 25.22 161.50 30.70 165.77 36.62 169.59
C 52.46 179.78 52.64 183.16 37.84 192.23
C 27.36 198.64 22.55 204.81 23.65 210.38
C 24.88 216.56 27.71 219.63 37.26 225.20
C 52.00 233.78 52.24 239.27 38.26 247.60
C 28.16 253.61 25.88 255.54 23.50 260.16
C 19.80 267.29 24.69 274.71 37.96 282.10
C 52.00 289.93 52.08 295.84 38.26 303.56
C 27.94 309.33 24.33 313.20 23.49 319.45
C 22.61 325.96 26.67 330.92 38.06 337.27
C 52.15 345.13 52.08 350.44 37.75 358.86
C 18.28 370.29 18.36 381.29 37.98 392.24
C 52.49 400.32 52.31 405.08 37.11 414.70
C 27.08 421.06 23.09 425.69 23.09 430.96
C 23.09 434.98 28.90 440.81 37.96 445.86
C 52.15 453.79 52.10 459.17 37.75 467.60
C 18.25 479.05 18.36 490.03 38.06 501.02
C 52.15 508.89 52.08 514.20 37.75 522.61
C 28.66 527.95 23.09 534.27 23.09 539.23
C 23.09 544.17 28.64 550.50 37.65 555.83
C 52.50 564.59 52.42 568.76 37.28 578.35
C 31.72 581.87 26.82 585.67 26.39 586.78
C 25.65 588.70 27.62 592.36 29.34 592.29
C 29.78 592.26 34.48 589.43 39.76 585.99
M 250.13 585.99
C 264.93 576.35 265.33 575.97 266.97 570.50
C 269.43 562.34 266.65 558.13 253.55 550.23
C 237.40 540.51 237.38 537.97 253.42 528.31
C 264.21 521.81 268.08 517.42 268.08 511.73
C 268.08 506.03 264.21 501.65 253.49 495.19
C 237.40 485.50 237.40 482.94 253.42 473.30
C 265.52 466.00 268.82 461.67 267.52 454.77
C 266.38 448.71 262.88 444.92 254.06 440.24
C 240.35 432.95 240.38 427.82 254.13 419.53
C 273.16 408.05 272.97 398.19 253.49 386.44
C 237.39 376.75 237.39 374.21 253.49 364.50
C 266.98 356.38 269.67 352.18 266.74 343.79
C 265.12 339.15 263.48 337.59 254.10 331.83
C 248.18 328.20 242.80 324.28 242.16 323.14
C 239.97 319.23 242.57 316.08 253.42 309.54
C 264.42 302.92 268.08 298.67 268.08 292.58
C 268.08 287.44 262.75 281.32 254.00 276.41
C 238.92 267.97 238.90 262.32 253.92 253.42
C 264.58 247.11 268.52 241.96 267.56 235.57
C 266.57 228.97 263.75 225.74 254.01 220.07
C 239.15 211.41 238.86 206.97 252.60 198.52
C 264.56 191.17 268.57 186.40 267.62 180.64
C 266.53 173.92 263.76 170.74 253.94 164.92
C 239.67 156.46 239.11 152.20 251.08 143.13
L 258.46 137.53
L 252.38 137.14
C 247.34 136.81 245.53 137.35 241.72 140.34
C 234.18 146.21 231.50 153.89 234.82 160.08
C 235.58 161.50 241.06 165.77 246.98 169.59
C 262.83 179.78 263.00 183.16 248.20 192.23
C 237.72 198.64 232.91 204.81 234.02 210.38
C 235.25 216.56 238.07 219.63 247.63 225.20
C 262.36 233.78 262.61 239.27 248.63 247.60
C 238.52 253.61 236.25 255.54 233.86 260.16
C 230.17 267.29 235.05 274.71 248.32 282.10
C 262.36 289.93 262.44 295.84 248.63 303.56
C 238.30 309.33 234.70 313.20 233.85 319.45
C 232.98 325.96 237.03 330.92 248.42 337.27
C 262.52 345.13 262.44 350.44 248.11 358.86
C 228.64 370.29 228.72 381.29 248.34 392.24
C 262.85 400.32 262.67 405.08 247.47 414.70
C 237.44 421.06 233.45 425.69 233.45 430.96
C 233.45 434.98 239.26 440.81 248.32 445.86
C 262.52 453.79 262.47 459.17 248.11 467.60
C 228.62 479.05 228.72 490.03 248.42 501.02
C 262.52 508.89 262.44 514.20 248.11 522.61
C 239.02 527.95 233.45 534.27 233.45 539.23
C 233.45 544.17 239.01 550.50 248.01 555.83
C 262.86 564.59 262.79 568.76 247.64 578.35
C 242.08 581.87 237.18 585.67 236.75 586.78
C 236.02 588.70 237.98 592.36 239.70 592.29
C 240.15 592.26 244.84 589.43 250.13 585.99
M 295.02 126.65
C 297.45 124.23 297.59 122.39 297.59 94.03
C 297.59 65.67 297.45 63.83 295.02 61.41
C 292.48 58.87 290.75 58.85 152.00 58.85
C 13.25 58.85 11.52 58.87 8.98 61.41
C 6.55 63.83 6.41 65.67 6.41 94.03
C 6.41 122.39 6.55 124.23 8.98 126.65
C 11.52 129.19 13.25 129.21 152.00 129.21
C 290.75 129.21 292.48 129.19 295.02 126.65
M 202.65 52.13
C 202.65 51.95 201.55 48.20 200.20 43.80
C 195.42 28.13 186.89 17.96 173.33 11.78
C 163.08 7.11 148.61 7.11 138.36 11.78
C 124.81 17.96 116.28 28.13 111.49 43.80
C 110.15 48.20 109.04 51.95 109.04 52.13
C 109.03 52.31 130.09 52.45 155.85 52.45
C 181.59 52.45 202.67 52.31 202.65 52.13"/>
<path fill="#34cf0a" stroke="none" d="
M 109.04 52.13
C 109.04 51.95 110.15 48.20 111.49 43.80
C 116.28 28.11 124.85 17.91 138.36 11.82
C 148.70 7.16 163.19 7.15 173.33 11.78
C 186.90 17.97 195.43 28.13 200.20 43.80
C 201.55 48.20 202.65 51.95 202.65 52.13
C 202.67 52.31 181.59 52.45 155.85 52.45
C 130.09 52.45 109.03 52.31 109.04 52.13"/>
<path fill="#ef610a" stroke="none" d="
M 8.98 126.65
C 6.55 124.23 6.41 122.39 6.41 94.27
C 6.41 70.54 6.79 63.95 8.23 61.97
C 10.02 59.54 13.16 59.48 151.24 59.16
C 291.24 58.82 292.44 58.84 295.01 61.39
C 297.45 63.83 297.59 65.60 297.59 94.03
C 297.59 122.39 297.45 124.23 295.02 126.65
C 292.48 129.19 290.75 129.21 152.00 129.21
C 13.25 129.21 11.52 129.19 8.98 126.65"/>
<path fill="#ffbf53" stroke="none" d="
M 129.69 591.85
C 127.22 588.88 129.39 586.30 139.89 579.63
C 155.04 570.04 155.12 565.87 140.26 557.10
C 131.26 551.78 125.70 545.45 125.70 540.51
C 125.70 535.55 131.27 529.23 140.37 523.89
C 154.69 515.48 154.77 510.17 140.67 502.30
C 120.97 491.31 120.87 480.33 140.37 468.88
C 154.72 460.45 154.77 455.07 140.57 447.13
C 121.16 436.31 120.93 427.89 139.72 415.98
C 154.92 406.36 155.10 401.60 140.60 393.52
C 120.97 382.57 120.89 371.57 140.37 360.14
C 154.69 351.72 154.77 346.41 140.67 338.55
C 129.28 332.20 125.23 327.24 126.10 320.72
C 126.95 314.48 130.55 310.61 140.88 304.84
C 154.69 297.12 154.62 291.21 140.57 283.38
C 127.31 275.99 122.42 268.57 126.12 261.44
C 128.50 256.82 130.77 254.89 140.88 248.88
C 154.86 240.55 154.62 235.06 139.88 226.48
C 121.16 215.58 121.34 205.22 140.46 193.51
C 155.26 184.44 155.08 181.06 139.24 170.87
C 127.85 163.54 125.68 161.01 125.76 155.21
C 125.82 150.13 128.27 146.29 134.66 141.25
C 139.07 137.76 141.32 136.89 145.92 136.89
C 152.72 136.89 152.24 137.99 142.20 145.33
C 131.40 153.24 132.30 157.97 146.19 166.20
C 156.01 172.02 158.79 175.20 159.88 181.92
C 160.82 187.68 156.81 192.45 144.86 199.80
C 131.12 208.25 131.40 212.69 146.27 221.35
C 156.00 227.01 158.82 230.25 159.81 236.85
C 160.77 243.24 156.84 248.39 146.18 254.70
C 131.16 263.60 131.17 269.25 146.25 277.69
C 155.00 282.60 160.34 288.72 160.34 293.86
C 160.34 299.95 156.67 304.20 145.68 310.82
C 134.82 317.36 132.22 320.51 134.41 324.42
C 135.06 325.56 140.43 329.48 146.36 333.11
C 155.73 338.87 157.37 340.43 158.99 345.07
C 161.93 353.46 159.23 357.66 145.74 365.78
C 129.64 375.49 129.64 378.03 145.74 387.72
C 165.22 399.47 165.42 409.33 146.38 420.81
C 132.63 429.10 132.61 434.23 146.32 441.52
C 155.13 446.20 158.63 449.99 159.77 456.05
C 161.07 462.95 157.77 467.28 145.68 474.58
C 129.66 484.22 129.66 486.78 145.74 496.46
C 156.46 502.93 160.34 507.31 160.34 513.01
C 160.34 518.70 156.46 523.09 145.68 529.59
C 129.63 539.25 129.66 541.79 145.80 551.51
C 158.90 559.41 161.68 563.62 159.22 571.78
C 158.38 574.61 156.41 577.84 154.85 578.96
C 149.09 583.10 132.73 593.53 131.95 593.57
C 131.52 593.59 130.49 592.81 129.69 591.85"/>
<path fill="#ffbf53" stroke="none" d="
M 27.08 590.57
C 24.60 587.60 26.77 585.02 37.28 578.35
C 52.42 568.76 52.50 564.59 37.65 555.83
C 28.64 550.50 23.09 544.17 23.09 539.23
C 23.09 534.27 28.66 527.95 37.75 522.61
C 52.08 514.20 52.15 508.89 38.06 501.02
C 18.36 490.03 18.25 479.05 37.75 467.60
C 52.10 459.17 52.15 453.79 37.96 445.86
C 18.55 435.03 18.32 426.61 37.11 414.70
C 52.31 405.08 52.49 400.32 37.98 392.24
C 18.36 381.29 18.28 370.29 37.75 358.86
C 52.08 350.44 52.15 345.13 38.06 337.27
C 26.67 330.92 22.61 325.96 23.49 319.45
C 24.33 313.20 27.94 309.33 38.26 303.56
C 52.08 295.84 52.00 289.93 37.96 282.10
C 24.69 274.71 19.80 267.29 23.50 260.16
C 25.88 255.54 28.16 253.61 38.26 247.60
C 52.24 239.27 52.00 233.78 37.26 225.20
C 18.55 214.30 18.73 203.94 37.84 192.23
C 52.64 183.16 52.46 179.78 36.62 169.59
C 30.70 165.77 25.22 161.50 24.46 160.08
C 19.13 150.13 30.10 136.23 42.60 137.13
L 48.10 137.53
L 40.71 143.13
C 28.75 152.20 29.31 156.46 43.57 164.92
C 53.40 170.74 56.17 173.92 57.26 180.64
C 58.21 186.40 54.19 191.17 42.24 198.52
C 28.50 206.97 28.78 211.41 43.65 220.07
C 53.39 225.74 56.21 228.97 57.20 235.57
C 58.16 241.96 54.22 247.11 43.56 253.42
C 28.54 262.32 28.55 267.97 43.64 276.41
C 52.39 281.32 57.72 287.44 57.72 292.58
C 57.72 298.67 54.05 302.92 43.06 309.54
C 32.21 316.08 29.60 319.23 31.80 323.14
C 32.44 324.28 37.81 328.20 43.74 331.83
C 53.12 337.59 54.76 339.15 56.37 343.79
C 59.31 352.18 56.62 356.38 43.12 364.50
C 27.03 374.21 27.03 376.75 43.12 386.44
C 62.61 398.19 62.80 408.05 43.77 419.53
C 30.02 427.82 29.99 432.95 43.70 440.24
C 52.51 444.92 56.02 448.71 57.16 454.77
C 58.45 461.67 55.16 466.00 43.06 473.30
C 27.04 482.94 27.04 485.50 43.12 495.19
C 53.85 501.65 57.72 506.03 57.72 511.73
C 57.72 517.42 53.85 521.81 43.06 528.31
C 27.01 537.97 27.04 540.51 43.19 550.23
C 56.28 558.13 59.07 562.34 56.61 570.50
C 55.76 573.33 53.80 576.56 52.23 577.68
C 46.47 581.82 30.12 592.25 29.34 592.29
C 28.90 592.31 27.87 591.53 27.08 590.57"/>
<path fill="#ffbf53" stroke="none" d="
M 237.44 590.57
C 234.97 587.60 237.13 585.02 247.64 578.35
C 262.79 568.76 262.86 564.59 248.01 555.83
C 239.01 550.50 233.45 544.17 233.45 539.23
C 233.45 534.27 239.02 527.95 248.11 522.61
C 262.44 514.20 262.52 508.89 248.42 501.02
C 228.72 490.03 228.62 479.05 248.11 467.60
C 262.47 459.17 262.52 453.79 248.32 445.86
C 228.91 435.03 228.68 426.61 247.47 414.70
C 262.67 405.08 262.85 400.32 248.34 392.24
C 228.72 381.29 228.64 370.29 248.11 358.86
C 262.44 350.44 262.52 345.13 248.42 337.27
C 237.03 330.92 232.98 325.96 233.85 319.45
C 234.70 313.20 238.30 309.33 248.63 303.56
C 262.44 295.84 262.36 289.93 248.32 282.10
C 235.05 274.71 230.17 267.29 233.86 260.16
C 236.25 255.54 238.52 253.61 248.63 247.60
C 262.61 239.27 262.36 233.78 247.63 225.20
C 228.91 214.30 229.09 203.94 248.20 192.23
C 263.00 183.16 262.83 179.78 246.98 169.59
C 241.06 165.77 235.58 161.50 234.82 160.08
C 231.50 153.89 234.18 146.21 241.72 140.34
C 245.53 137.35 247.34 136.81 252.38 137.14
L 258.46 137.53
L 251.08 143.13
C 239.11 152.20 239.67 156.46 253.94 164.92
C 263.76 170.74 266.53 173.92 267.62 180.64
C 268.57 186.40 264.56 191.17 252.60 198.52
C 238.86 206.97 239.15 211.41 254.01 220.07
C 263.75 225.74 266.57 228.97 267.56 235.57
C 268.52 241.96 264.58 247.11 253.92 253.42
C 238.90 262.32 238.92 267.97 254.00 276.41
C 262.75 281.32 268.08 287.44 268.08 292.58
C 268.08 298.67 264.42 302.92 253.42 309.54
C 242.57 316.08 239.97 319.23 242.16 323.14
C 242.80 324.28 248.18 328.20 254.10 331.83
C 263.48 337.59 265.12 339.15 266.74 343.79
C 269.67 352.18 266.98 356.38 253.49 364.50
C 237.39 374.21 237.39 376.75 253.49 386.44
C 272.97 398.19 273.16 408.05 254.13 419.53
C 240.38 427.82 240.35 432.95 254.06 440.24
C 262.88 444.92 266.38 448.71 267.52 454.77
C 268.82 461.67 265.52 466.00 253.42 473.30
C 237.40 482.94 237.40 485.50 253.49 495.19
C 264.21 501.65 268.08 506.03 268.08 511.73
C 268.08 517.42 264.21 521.81 253.42 528.31
C 237.38 537.97 237.40 540.51 253.55 550.23
C 266.65 558.13 269.43 562.34 266.97 570.50
C 266.12 573.33 264.16 576.56 262.59 577.68
C 256.84 581.82 240.48 592.25 239.70 592.29
C 239.26 592.31 238.24 591.53 237.44 590.57"/>
</g>
</svg>
