<?xml version="1.0" encoding="UTF-8" standalone="no"?>
<!DOCTYPE svg PUBLIC "-//W3C//DTD SVG 1.1//EN"
"http://www.w3.org/Graphics/SVG/1.1/DTD/svg11.dtd">
<svg width="600px" height="461px"
xmlns="http://www.w3.org/2000/svg" version="1.1">
<g transform="translate(0000, 0000) scale(1.0000, 1.0000)">
<path fill="#000000" stroke="none" d="
M 157.84 459.69
C 156.67 459.01 147.50 448.63 137.45 436.62
C 126.06 422.99 118.47 414.91 117.27 415.15
C 115.57 415.49 110.83 420.48 84.76 449.47
C 78.98 455.89 77.07 457.26 73.83 457.26
C 71.68 457.26 69.01 456.91 67.89 456.49
C 64.73 455.27 62.07 449.04 63.04 445.15
C 63.51 443.26 69.81 435.56 77.13 427.92
C 97.58 406.58 104.48 394.69 102.61 384.05
C 102.16 381.48 98.81 371.83 95.17 362.57
C 80.85 326.28 73.62 282.57 75.06 241.09
C 76.06 212.28 80.17 192.32 89.70 169.90
C 92.44 163.47 95.00 156.53 95.41 154.48
L 96.16 150.76
L 89.68 150.76
L 83.18 150.76
L 44.22 188.76
C 22.79 209.67 4.66 226.76 3.92 226.76
C 0.31 226.76 0.00 220.45 0.00 147.73
C 0.00 75.17 0.05 73.46 2.49 71.02
C 4.89 68.61 6.63 68.53 54.15 68.53
C 81.20 68.53 103.32 68.19 103.32 67.78
C 103.32 66.35 89.98 46.59 80.83 34.48
C 69.04 18.85 64.73 12.38 64.73 10.28
C 64.73 9.36 65.58 6.96 66.60 4.98
C 69.01 0.32 75.21 -1.08 80.74 1.78
C 85.18 4.07 105.70 30.23 118.68 50.15
L 127.41 63.53
L 133.20 54.81
C 144.25 38.19 172.00 6.23 178.15 3.04
C 186.11 -1.08 194.19 2.45 194.19 10.05
C 194.19 15.39 193.51 16.45 173.24 42.32
C 163.31 55.02 154.64 66.11 153.98 66.97
C 153.05 68.22 165.37 68.53 214.66 68.53
L 276.50 68.53
L 272.61 61.25
C 268.20 52.95 253.77 33.30 245.85 24.81
C 236.48 14.75 234.20 7.30 239.00 2.49
C 241.79 -0.30 247.23 -0.74 252.01 1.45
C 255.63 3.09 273.83 26.15 288.54 47.72
C 294.05 55.82 299.03 62.28 299.59 62.12
C 300.16 61.95 302.23 59.24 304.21 56.13
C 308.80 48.84 320.91 33.30 332.98 19.20
C 347.86 1.79 356.25 -2.38 362.93 4.30
C 368.18 9.57 366.11 17.16 356.61 27.41
C 355.03 29.13 347.22 38.94 339.24 49.21
L 324.75 67.90
L 355.94 68.24
C 373.10 68.41 401.22 68.41 418.42 68.24
L 449.69 67.90
L 444.49 61.31
C 432.00 45.50 411.93 18.38 410.10 14.83
C 407.79 10.35 408.47 6.06 412.07 2.45
C 415.17 -0.65 420.25 -0.67 425.24 2.38
C 429.63 5.06 444.73 24.32 460.39 47.22
L 470.96 62.68
L 473.55 59.56
C 474.97 57.84 479.63 51.43 483.88 45.34
C 494.34 30.36 513.06 8.90 519.34 4.68
C 525.71 0.39 530.68 0.27 534.71 4.30
C 540.07 9.68 538.66 15.46 529.64 24.92
C 526.71 28.01 517.79 38.94 509.84 49.21
L 495.36 67.90
L 545.91 68.53
C 594.14 69.13 596.55 69.26 598.23 71.57
C 599.71 73.60 600.00 86.14 600.00 148.59
C 600.00 222.20 599.70 228.01 595.95 228.01
C 595.15 228.01 577.94 211.54 557.73 191.40
C 537.50 171.27 519.16 153.89 516.97 152.78
C 514.27 151.41 509.73 150.76 502.83 150.76
C 493.67 150.76 492.76 150.97 493.52 152.94
C 496.61 160.93 503.13 184.82 505.21 195.71
C 512.55 234.18 511.67 276.82 502.79 312.06
C 497.29 333.86 489.00 358.00 478.78 381.88
C 472.21 397.24 475.26 404.06 499.16 427.48
C 508.95 437.08 516.80 445.80 517.24 447.59
C 519.01 454.60 510.78 462.31 503.51 460.49
C 498.72 459.28 492.45 453.00 476.78 433.71
C 468.92 424.05 461.83 416.15 461.00 416.15
C 460.20 416.15 454.02 422.16 447.29 429.53
C 424.63 454.33 421.48 457.26 417.49 457.26
C 412.82 457.26 409.05 454.61 407.13 449.96
C 405.00 444.83 406.66 442.26 424.53 423.00
C 441.96 404.21 447.77 394.50 446.32 386.60
C 445.83 384.00 443.60 377.67 441.36 372.54
C 434.74 357.40 427.08 327.71 422.55 299.65
C 419.80 282.59 418.78 240.33 420.71 222.89
C 423.37 198.77 427.71 183.13 440.29 152.32
C 440.80 151.08 428.46 150.76 381.05 150.76
C 348.11 150.76 321.16 151.10 321.16 151.51
C 321.16 151.91 324.51 165.22 328.59 181.10
C 338.56 219.82 341.53 238.36 340.47 255.42
C 338.45 287.61 324.95 340.75 311.14 370.81
C 304.48 385.28 302.39 392.77 303.71 397.36
C 305.58 403.87 312.55 412.67 327.50 427.36
C 335.53 435.23 342.70 442.91 343.46 444.40
C 349.00 455.47 336.00 464.75 326.35 456.63
C 324.31 454.91 315.54 445.10 306.83 434.82
C 298.15 424.56 290.37 416.15 289.56 416.15
C 287.76 416.15 280.41 423.80 265.82 440.82
C 252.32 456.56 247.07 459.67 240.17 455.98
C 236.81 454.17 233.73 447.71 234.73 444.54
C 235.18 443.10 241.82 435.13 249.46 426.85
C 266.44 408.45 270.70 403.03 273.92 395.75
C 276.88 389.02 276.09 384.34 269.20 368.18
C 264.11 356.22 259.84 341.89 255.76 323.14
C 242.69 262.98 244.43 214.44 261.25 171.04
C 264.76 161.99 267.63 153.71 267.63 152.67
C 267.63 150.98 260.76 150.76 208.37 150.76
C 152.44 150.76 149.15 150.88 149.95 152.94
C 152.59 159.83 158.17 180.59 160.41 191.88
C 164.44 212.16 165.56 224.30 165.56 247.53
C 165.56 287.29 160.85 311.01 145.12 350.65
C 130.52 387.40 129.65 392.45 135.78 404.73
C 138.78 410.75 143.07 415.70 155.68 427.67
C 164.51 436.06 172.36 444.43 173.12 446.26
C 174.92 450.61 173.78 453.92 169.13 457.84
C 165.19 461.15 161.41 461.77 157.84 459.69
M 165.61 451.59
C 166.99 449.94 164.83 447.34 150.29 433.22
C 119.80 403.59 118.95 396.39 139.87 344.29
C 154.23 308.48 157.99 291.00 159.00 255.33
C 159.96 221.43 156.37 196.15 146.09 164.15
L 141.78 150.76
L 122.86 150.77
L 103.94 150.80
L 100.05 162.30
C 97.89 168.63 94.66 177.32 92.83 181.61
C 84.34 201.62 80.33 227.93 81.30 257.29
C 82.53 293.89 88.99 327.52 100.23 355.73
C 106.77 372.13 109.49 381.89 109.52 389.03
C 109.57 400.22 101.10 413.98 81.44 434.69
C 70.61 446.09 69.52 447.64 71.20 449.33
C 72.90 451.02 75.00 449.08 90.96 431.08
C 112.43 406.89 115.83 404.63 123.45 409.62
C 125.29 410.80 133.06 419.35 140.73 428.61
C 155.98 446.98 161.86 453.52 163.16 453.52
C 163.63 453.52 164.73 452.65 165.61 451.59
M 336.60 450.70
C 337.66 449.00 334.94 445.64 321.05 431.46
C 302.86 412.88 299.73 408.66 297.49 399.74
C 295.51 391.87 297.24 384.30 304.97 366.84
C 311.61 351.86 320.46 325.29 325.34 305.77
C 337.61 256.66 337.08 239.01 321.68 181.29
C 318.59 169.64 315.49 158.00 314.81 155.43
L 313.59 150.76
L 294.45 150.76
L 275.30 150.76
L 274.46 154.81
C 274.00 157.04 270.88 165.86 267.55 174.43
C 258.78 196.96 255.29 213.58 253.26 242.34
C 251.17 271.85 261.25 328.53 274.58 362.28
C 281.63 380.10 283.39 388.66 281.48 395.70
C 279.25 403.90 271.57 414.50 256.01 430.84
C 243.27 444.22 241.62 446.43 242.76 448.59
C 243.76 450.46 244.62 450.77 246.21 449.90
C 249.05 448.34 257.48 439.37 270.02 424.54
C 281.54 410.94 284.23 408.67 288.76 408.68
C 294.04 408.68 297.91 412.23 315.63 433.33
C 325.02 444.49 333.29 453.42 334.00 453.19
C 334.72 452.95 335.88 451.83 336.60 450.70
M 508.99 451.82
C 511.20 449.16 509.73 447.05 500.20 439.11
C 479.93 422.20 468.57 405.59 468.77 393.12
C 468.82 389.23 470.18 383.80 472.32 378.77
C 508.28 294.67 513.09 235.32 489.67 164.15
L 485.27 150.76
L 466.67 150.76
C 450.05 150.76 447.98 151.00 447.34 152.94
C 446.94 154.14 443.86 162.23 440.50 170.92
C 428.55 201.88 425.17 222.71 426.07 259.78
C 426.54 278.82 427.43 288.96 429.86 302.76
C 434.38 328.44 440.96 353.03 447.11 367.19
C 451.78 377.95 452.40 380.50 452.41 388.74
C 452.44 402.53 448.78 408.70 426.78 431.93
C 414.41 444.99 412.23 448.22 415.02 449.29
C 417.90 450.40 419.35 449.08 436.21 430.15
C 455.23 408.81 459.77 405.87 466.48 410.58
C 467.98 411.62 475.05 419.61 482.19 428.33
C 503.40 454.20 505.51 456.03 508.99 451.82
M 593.78 145.95
C 593.78 94.57 593.40 77.37 592.28 76.25
C 590.10 74.07 9.90 74.07 7.72 76.25
C 5.70 78.27 5.55 211.25 7.56 212.48
C 8.30 212.94 23.61 198.68 42.10 180.31
C 60.36 162.16 76.53 146.69 78.02 145.93
C 80.00 144.92 140.46 144.53 298.72 144.53
C 511.69 144.53 516.80 144.58 521.32 146.93
C 523.85 148.26 540.75 164.20 558.85 182.38
C 576.95 200.55 592.21 215.13 592.77 214.78
C 593.32 214.44 593.78 183.47 593.78 145.95
M 119.70 65.10
C 118.41 63.22 114.37 57.19 110.74 51.71
C 100.94 36.90 81.10 11.40 77.61 9.11
C 75.41 7.66 74.18 7.49 73.20 8.47
C 72.22 9.44 74.79 13.74 82.51 23.96
C 88.37 31.73 96.83 43.68 101.32 50.51
C 113.79 69.50 112.90 68.53 117.73 68.53
L 122.07 68.53
L 119.70 65.10
M 154.36 53.36
C 160.85 45.02 171.07 32.03 177.06 24.50
C 185.44 13.94 187.62 10.43 186.56 9.16
C 184.21 6.32 178.76 10.75 165.16 26.58
C 152.65 41.12 137.02 61.21 134.44 66.05
C 133.22 68.32 133.49 68.53 137.81 68.53
C 142.37 68.53 142.94 67.99 154.36 53.36
M 292.53 67.84
C 292.53 66.51 277.10 44.02 266.53 29.96
C 253.72 12.92 247.10 5.69 245.30 6.80
C 242.69 8.42 244.12 11.25 252.11 20.18
C 260.89 30.00 275.54 50.76 280.07 59.81
C 281.61 62.90 283.43 66.11 284.12 66.97
C 285.32 68.48 292.53 69.22 292.53 67.84
M 329.88 48.29
C 338.44 37.18 348.41 24.82 352.05 20.82
C 358.57 13.66 359.83 9.76 355.85 8.98
C 354.76 8.77 352.21 9.99 350.20 11.69
C 344.88 16.17 320.48 45.81 312.06 58.02
L 304.83 68.53
L 309.57 68.51
C 314.23 68.50 314.60 68.14 329.88 48.29
M 463.68 67.31
C 464.55 65.90 456.95 54.36 440.65 32.34
C 424.26 10.19 418.78 4.85 416.40 8.70
C 415.41 10.30 417.26 13.62 422.94 20.36
C 425.50 23.40 434.88 35.48 443.78 47.20
C 452.68 58.92 460.63 68.51 461.44 68.51
C 462.26 68.53 463.26 67.98 463.68 67.31
M 498.55 50.82
C 506.08 41.09 516.30 28.64 521.27 23.15
C 526.23 17.66 530.29 12.42 530.29 11.52
C 530.29 9.15 527.15 8.32 524.18 9.91
C 518.60 12.90 481.36 59.11 478.48 66.61
C 477.92 68.07 478.61 68.53 481.29 68.51
C 484.39 68.50 486.62 66.21 498.55 50.82"/>
<path fill="#2675f9" stroke="none" d="
M 111.44 65.72
C 110.35 64.18 105.80 57.34 101.32 50.51
C 96.83 43.68 88.37 31.73 82.51 23.96
C 74.79 13.74 72.22 9.44 73.20 8.47
C 74.18 7.49 75.41 7.66 77.61 9.11
C 81.10 11.40 100.94 36.90 110.74 51.71
C 114.37 57.19 118.41 63.22 119.70 65.10
L 122.07 68.53
L 117.73 68.53
C 114.65 68.53 112.83 67.72 111.44 65.72"/>
<path fill="#2675f9" stroke="none" d="
M 134.44 66.05
C 137.02 61.21 152.65 41.12 165.16 26.58
C 178.76 10.75 184.21 6.32 186.56 9.16
C 187.62 10.43 185.44 13.94 177.06 24.50
C 171.07 32.03 160.85 45.02 154.36 53.36
C 142.94 67.99 142.37 68.53 137.81 68.53
C 133.49 68.53 133.22 68.32 134.44 66.05"/>
<path fill="#2675f9" stroke="none" d="
M 284.12 66.97
C 283.43 66.11 281.61 62.90 280.07 59.81
C 275.54 50.76 260.89 30.00 252.11 20.18
C 247.64 15.19 243.98 10.28 243.98 9.28
C 243.98 5.57 248.88 7.66 253.62 13.39
C 265.93 28.32 292.53 65.54 292.53 67.84
C 292.53 69.22 285.32 68.48 284.12 66.97"/>
<path fill="#2675f9" stroke="none" d="
M 312.06 58.02
C 320.48 45.81 344.88 16.17 350.20 11.69
C 352.21 9.99 354.76 8.77 355.85 8.98
C 359.83 9.76 358.57 13.66 352.05 20.82
C 348.41 24.82 338.44 37.18 329.88 48.29
C 314.60 68.14 314.23 68.50 309.57 68.51
L 304.83 68.53
L 312.06 58.02"/>
<path fill="#2675f9" stroke="none" d="
M 443.78 47.20
C 434.88 35.48 425.50 23.40 422.94 20.36
C 417.26 13.62 415.41 10.30 416.40 8.70
C 418.78 4.85 424.26 10.19 440.65 32.34
C 462.67 62.10 466.38 68.55 461.44 68.51
C 460.63 68.51 452.68 58.92 443.78 47.20"/>
<path fill="#2675f9" stroke="none" d="
M 478.48 66.61
C 481.36 59.11 518.60 12.90 524.18 9.91
C 527.15 8.32 530.29 9.15 530.29 11.52
C 530.29 12.42 526.23 17.66 521.27 23.15
C 516.30 28.64 506.08 41.09 498.55 50.82
C 486.62 66.21 484.39 68.50 481.29 68.51
C 478.61 68.53 477.92 68.07 478.48 66.61"/>
<path fill="#ffbf53" stroke="none" d="
M 558.85 182.38
C 540.75 164.20 523.85 148.26 521.32 146.93
C 516.80 144.58 511.69 144.53 298.72 144.53
C 140.46 144.53 80.00 144.92 78.02 145.93
C 76.53 146.69 60.36 162.16 42.10 180.31
C 23.61 198.68 8.30 212.94 7.56 212.48
C 6.63 211.92 6.22 190.85 6.22 144.50
C 6.22 79.37 6.30 77.30 8.63 76.05
C 12.35 74.06 590.29 74.26 592.28 76.25
C 594.02 78.00 594.50 213.70 592.77 214.78
C 592.21 215.13 576.95 200.55 558.85 182.38"/>
<path fill="#ef907a" stroke="none" d="
M 158.50 449.47
C 156.40 447.24 148.41 437.86 140.73 428.61
C 133.06 419.35 125.29 410.80 123.45 409.62
C 115.83 404.63 112.43 406.89 90.96 431.08
C 75.00 449.08 72.90 451.02 71.20 449.33
C 69.52 447.64 70.61 446.09 81.44 434.69
C 101.10 413.98 109.57 400.22 109.52 389.03
C 109.49 381.89 106.77 372.13 100.23 355.73
C 88.99 327.52 82.53 293.89 81.30 257.29
C 80.33 228.00 84.31 201.77 92.80 181.61
C 94.61 177.32 97.89 168.76 100.10 162.60
L 104.10 151.38
L 122.94 151.03
L 141.76 150.70
L 146.08 164.12
C 156.37 196.15 159.96 221.42 159.00 255.33
C 157.99 291.00 154.23 308.48 139.87 344.29
C 124.26 383.20 122.55 393.83 129.55 408.67
C 132.71 415.36 136.31 419.62 150.29 433.22
C 164.83 447.34 166.99 449.94 165.61 451.59
C 163.41 454.26 162.85 454.08 158.50 449.47"/>
<path fill="#ef907a" stroke="none" d="
M 315.63 433.33
C 297.91 412.23 294.04 408.68 288.76 408.68
C 284.23 408.67 281.54 410.94 270.02 424.54
C 257.48 439.37 249.05 448.34 246.21 449.90
C 244.62 450.77 243.76 450.46 242.76 448.59
C 241.62 446.43 243.27 444.22 256.01 430.84
C 271.57 414.50 279.25 403.90 281.48 395.70
C 283.39 388.66 281.63 380.10 274.58 362.28
C 261.25 328.53 251.17 271.85 253.26 242.34
C 255.29 213.58 258.78 196.96 267.55 174.43
C 270.88 165.86 274.00 157.04 274.46 154.81
L 275.30 150.76
L 294.45 150.76
L 313.59 150.76
L 314.81 155.43
C 315.49 158.00 318.59 169.64 321.68 181.29
C 337.08 239.01 337.61 256.66 325.34 305.77
C 320.46 325.29 311.61 351.86 304.97 366.84
C 297.24 384.30 295.51 391.87 297.49 399.74
C 299.73 408.66 302.86 412.88 321.05 431.46
C 334.94 445.64 337.66 449.00 336.60 450.70
C 335.88 451.83 334.72 452.95 334.00 453.19
C 333.29 453.42 325.02 444.49 315.63 433.33"/>
<path fill="#ef907a" stroke="none" d="
M 499.53 448.85
C 497.14 446.29 489.35 437.05 482.19 428.33
C 475.05 419.61 467.98 411.62 466.48 410.58
C 459.77 405.87 455.23 408.81 436.21 430.15
C 419.35 449.08 417.90 450.40 415.02 449.29
C 412.23 448.22 414.41 444.99 426.78 431.93
C 448.78 408.70 452.44 402.53 452.41 388.74
C 452.40 380.50 451.78 377.95 447.11 367.19
C 440.96 353.03 434.38 328.44 429.86 302.76
C 427.43 288.96 426.54 278.82 426.07 259.78
C 425.17 222.71 428.55 201.88 440.50 170.92
C 443.86 162.23 446.94 154.14 447.34 152.94
C 447.98 151.00 450.05 150.76 466.67 150.76
L 485.27 150.76
L 489.67 164.15
C 498.83 192.00 502.64 212.33 503.74 239.22
C 505.44 281.14 495.85 323.76 472.32 378.77
C 470.18 383.80 468.82 389.23 468.77 393.12
C 468.57 405.59 479.93 422.20 500.20 439.11
C 509.73 447.05 511.20 449.16 508.99 451.82
C 506.69 454.61 504.12 453.80 499.53 448.85"/>
</g>
</svg>
