<?xml version="1.0" encoding="UTF-8" standalone="no"?>
<!DOCTYPE svg PUBLIC "-//W3C//DTD SVG 1.1//EN"
"http://www.w3.org/Graphics/SVG/1.1/DTD/svg11.dtd">
<svg width="550px" height="600px"
xmlns="http://www.w3.org/2000/svg" version="1.1">
<g transform="translate(0000, 0000) scale(1.0000, 1.0000)">
<path fill="#000000" stroke="none" d="
M 241.01 598.04
C 157.74 590.13 93.22 558.35 40.68 499.36
C 19.13 475.17 0.00 442.85 0.00 430.63
C 0.00 419.83 -4.87 420.51 72.33 420.51
L 140.65 420.51
L 141.50 407.28
C 146.14 335.56 179.10 268.68 241.67 204.01
C 257.83 187.29 267.54 179.00 293.59 159.60
C 331.46 131.41 346.23 116.64 355.15 98.08
C 357.87 92.44 362.97 77.63 366.51 65.17
C 378.68 22.24 387.86 6.79 404.06 1.97
C 416.82 -1.81 431.15 0.08 443.17 7.12
C 453.17 12.97 457.09 26.06 453.35 41.12
C 452.17 45.82 444.73 62.55 435.97 80.13
C 425.97 100.21 419.90 114.01 418.51 119.87
C 415.87 130.96 415.90 148.53 418.58 166.67
C 424.28 205.27 421.67 245.87 410.17 297.38
C 401.63 335.60 390.27 368.47 373.01 404.81
L 365.56 420.51
L 455.29 420.51
C 514.71 420.51 545.88 420.96 547.53 421.85
C 551.04 423.73 550.86 434.05 547.15 442.71
C 539.85 459.79 498.32 508.90 474.36 528.81
C 424.01 570.63 364.68 593.15 290.38 598.65
C 268.91 600.26 263.56 600.18 241.01 598.04
M 308.33 588.95
C 384.26 579.67 449.92 546.27 498.36 492.31
C 512.04 477.08 534.78 446.97 539.18 438.32
C 540.99 434.73 542.17 430.99 541.79 430.00
C 541.21 428.47 501.81 428.21 275.12 428.21
C 93.60 428.21 8.87 428.63 8.31 429.53
C 6.41 432.60 21.41 459.54 34.97 477.44
C 44.95 490.59 66.46 512.81 81.41 525.38
C 122.19 559.68 176.26 582.42 232.69 589.05
C 261.38 592.42 280.13 592.40 308.33 588.95
M 362.53 404.81
C 383.15 363.85 395.99 326.12 405.59 278.21
C 414.03 236.06 415.64 209.51 411.76 176.92
C 407.62 142.18 407.41 138.58 408.90 126.79
C 410.87 111.12 414.44 101.77 430.46 70.33
C 445.28 41.26 448.00 33.54 445.97 26.22
C 443.13 15.92 431.36 8.71 417.21 8.58
C 397.72 8.38 387.22 23.63 373.63 71.83
C 367.60 93.23 360.77 109.79 354.62 117.95
C 346.09 129.24 327.92 145.49 301.92 165.08
C 278.95 182.37 269.67 190.38 251.86 208.22
C 239.85 220.27 225.42 235.88 219.81 242.94
C 188.33 282.45 166.59 324.36 156.37 365.21
C 152.64 380.12 148.72 405.88 148.72 415.45
L 148.72 420.51
L 251.67 420.51
L 354.62 420.51
L 362.53 404.81"/>
<path fill="#fefefe" stroke="none" d="
M 148.72 415.45
C 148.72 405.88 152.64 380.12 156.37 365.21
C 166.59 324.36 188.33 282.45 219.81 242.94
C 225.42 235.88 239.85 220.27 251.86 208.22
C 269.67 190.38 278.95 182.37 301.92 165.08
C 327.92 145.49 346.09 129.24 354.62 117.95
C 360.77 109.79 367.60 93.23 373.63 71.83
C 387.22 23.64 397.53 8.65 417.09 8.65
C 431.31 8.65 443.10 15.82 445.97 26.22
C 448.00 33.54 445.28 41.26 430.46 70.33
C 414.44 101.77 410.87 111.12 408.90 126.79
C 407.41 138.58 407.62 142.18 411.76 176.92
C 415.64 209.51 414.03 236.06 405.59 278.21
C 395.99 326.12 383.15 363.85 362.53 404.81
L 354.62 420.51
L 251.67 420.51
L 148.72 420.51
L 148.72 415.45"/>
<path fill="#ff0000" stroke="none" d="
M 257.05 591.42
C 190.47 587.91 127.72 564.32 81.41 525.38
C 50.56 499.45 24.67 467.56 11.38 439.18
C 8.06 432.08 7.65 430.29 9.12 429.37
C 10.13 428.73 125.22 428.23 276.00 428.23
C 501.95 428.21 541.21 428.47 541.79 430.00
C 544.41 436.83 503.32 490.26 478.01 512.92
C 430.17 555.78 374.06 580.92 308.33 588.95
C 291.68 590.99 269.31 592.06 257.05 591.42"/>
</g>
</svg>
