<?xml version="1.0" encoding="UTF-8" standalone="no"?>
<!DOCTYPE svg PUBLIC "-//W3C//DTD SVG 1.1//EN"
"http://www.w3.org/Graphics/SVG/1.1/DTD/svg11.dtd">
<svg width="600px" height="600px"
xmlns="http://www.w3.org/2000/svg" version="1.1">
<g transform="translate(0000, 0000) scale(1.0000, 1.0000)">
<path fill="#000000" stroke="none" d="
M 256.33 595.06
C 220.03 589.38 191.24 580.23 161.21 564.86
C 102.54 534.81 59.93 490.75 30.93 430.18
C 16.67 400.43 9.07 373.28 3.54 332.58
C -0.69 301.23 -0.69 298.77 3.54 267.42
C 9.37 224.46 16.82 198.91 33.25 165.47
C 63.27 104.36 107.58 60.74 169.82 30.93
C 200.66 16.16 228.10 8.63 269.48 3.59
C 302.73 -0.44 304.65 -0.42 338.11 4.45
C 379.99 10.57 406.60 18.69 438.79 35.16
C 494.85 63.84 536.21 105.25 565.03 161.56
C 580.43 191.68 588.89 218.36 595.13 256.62
C 600.98 292.52 601.13 302.61 596.24 336.57
C 581.29 440.46 526.43 520.01 438.79 564.84
C 407.41 580.89 380.61 589.23 340.99 595.20
C 303.61 600.86 293.24 600.84 256.33 595.06
M 336.89 581.70
C 467.88 561.96 569.24 456.12 582.98 324.74
C 588.17 275.26 578.90 227.51 554.46 177.76
C 510.27 87.84 426.00 28.52 325.94 16.89
C 234.89 6.30 132.81 52.35 73.82 130.67
C 55.70 154.72 34.01 198.20 25.97 226.72
C -9.81 353.14 52.45 490.62 173.51 552.54
C 227.88 580.38 281.83 589.99 336.89 581.70"/>
<path fill="#000000" stroke="none" d="
M 267.44 517.50
C 215.83 508.82 177.00 489.59 143.70 456.30
C 108.66 421.28 89.90 381.37 80.90 322.65
C 74.14 278.58 89.78 216.30 118.20 174.25
C 153.66 121.82 206.34 91.13 278.48 80.95
C 323.46 74.58 383.78 89.85 425.75 118.20
C 536.93 193.35 552.17 360.96 456.47 456.20
C 422.14 490.38 384.34 508.82 330.57 517.62
C 304.72 521.85 293.16 521.83 267.44 517.50
M 348.76 499.20
C 423.79 478.13 478.45 423.12 499.57 347.43
C 507.10 320.41 507.12 279.17 499.62 252.57
C 478.06 176.11 424.06 122.11 347.43 100.33
C 320.56 92.70 279.44 92.70 252.57 100.33
C 175.92 122.11 121.92 176.14 100.38 252.57
C 92.83 279.39 92.83 320.61 100.38 347.43
C 123.81 430.60 187.52 488.63 272.53 504.22
C 289.97 507.42 328.55 504.86 348.76 499.20"/>
<path fill="#ffbf53" stroke="none" d="
M 260.66 581.48
C 132.02 561.32 31.06 455.36 17.11 325.94
C 11.78 276.30 21.15 227.41 45.54 177.76
C 90.00 87.32 175.06 27.76 275.36 16.89
C 350.21 8.78 433.30 38.14 492.86 93.76
C 556.43 153.12 591.54 243.10 582.98 324.74
C 572.75 422.58 514.33 507.61 426.49 552.54
C 371.98 580.45 316.13 590.19 260.66 581.48
M 330.57 517.62
C 370.45 511.08 397.40 500.95 425.75 481.80
C 522.69 416.29 549.22 277.77 484.01 177.86
C 447.98 122.68 395.56 91.40 321.52 80.95
C 297.57 77.56 272.19 79.94 239.04 88.72
C 165.71 108.17 108.30 165.57 88.70 239.04
C 79.99 271.67 77.39 299.73 80.90 322.65
C 89.90 381.37 108.66 421.28 143.70 456.30
C 177.00 489.59 215.83 508.82 267.44 517.50
C 293.16 521.83 304.72 521.85 330.57 517.62"/>
</g>
</svg>
