<?xml version="1.0" encoding="UTF-8" standalone="no"?>
<!DOCTYPE svg PUBLIC "-//W3C//DTD SVG 1.1//EN"
"http://www.w3.org/Graphics/SVG/1.1/DTD/svg11.dtd">
<svg width="600px" height="134px"
xmlns="http://www.w3.org/2000/svg" version="1.1">
<g transform="translate(0000, 0000) scale(1.0000, 1.0000)">
<path fill="#000000" stroke="none" d="
M 0.87 133.13
C -2.19 130.07 2.62 120.11 15.51 102.78
C 28.60 85.20 32.47 77.02 32.47 67.00
C 32.47 56.98 28.60 48.80 15.51 31.22
C 1.48 12.36 -2.82 2.67 2.05 0.79
C 7.49 -1.30 16.78 0.04 95.45 14.32
C 114.74 17.82 146.30 23.38 165.58 26.67
C 222.25 36.32 251.88 41.68 263.36 44.34
C 269.29 45.72 274.69 46.83 275.38 46.83
C 276.06 46.83 276.62 44.99 276.62 42.72
C 276.62 37.00 282.16 28.13 287.97 24.52
C 294.70 20.36 305.30 20.36 312.03 24.52
C 317.84 28.13 323.38 37.00 323.38 42.72
C 323.38 44.99 323.68 46.83 324.05 46.83
C 324.42 46.83 330.12 45.66 336.71 44.25
C 351.06 41.15 378.01 36.28 430.52 27.33
C 451.95 23.69 485.26 17.82 504.55 14.32
C 591.74 -1.51 598.92 -2.33 599.75 3.47
C 600.32 7.48 595.12 16.94 584.49 31.22
C 571.40 48.80 567.53 56.98 567.53 67.00
C 567.53 77.02 571.40 85.20 584.49 102.78
C 595.12 117.06 600.32 126.52 599.75 130.53
C 598.92 136.33 591.74 135.51 504.55 119.68
C 485.26 116.18 451.95 110.31 430.52 106.67
C 378.01 97.72 351.06 92.85 336.71 89.75
C 330.12 88.34 324.42 87.17 324.05 87.17
C 323.68 87.17 323.38 89.01 323.38 91.28
C 323.38 93.54 321.92 97.89 320.14 100.93
C 310.95 116.65 289.05 116.65 279.86 100.93
C 278.08 97.89 276.62 93.54 276.62 91.28
C 276.62 89.01 276.32 87.17 275.95 87.17
C 275.58 87.17 269.88 88.34 263.29 89.75
C 248.94 92.85 221.99 97.72 169.48 106.67
C 148.05 110.31 114.74 116.18 95.45 119.68
C 17.48 133.83 3.55 135.82 0.87 133.13
M 55.84 119.69
C 79.78 115.41 126.52 107.20 159.74 101.44
C 231.68 88.97 251.94 85.28 261.96 82.79
C 266.10 81.77 271.09 80.57 273.05 80.13
L 276.62 79.31
L 276.62 67.14
L 276.62 54.98
L 271.38 54.13
C 268.49 53.67 263.68 52.43 260.66 51.36
C 255.55 49.55 227.68 44.43 137.66 28.74
C 117.30 25.20 80.31 18.67 55.47 14.23
C 30.61 9.81 9.92 6.53 9.49 6.97
C 8.58 7.87 12.66 14.26 23.61 29.05
C 37.09 47.26 38.31 50.40 38.31 67.00
C 38.31 82.75 37.29 85.85 27.51 99.52
C 24.95 103.10 19.75 110.34 15.97 115.60
C 8.84 125.52 7.96 127.50 10.71 127.50
C 11.61 127.48 31.91 123.98 55.84 119.69
M 590.91 126.34
C 590.91 125.69 587.82 120.86 584.03 115.60
C 561.01 83.60 561.69 85.07 561.69 67.00
C 561.69 50.40 562.91 47.26 576.39 29.05
C 587.34 14.26 591.42 7.87 590.51 6.97
C 590.08 6.53 569.39 9.81 544.53 14.23
C 501.69 21.88 474.95 26.57 387.66 41.75
C 366.95 45.35 345.61 49.40 340.26 50.74
C 334.91 52.08 328.91 53.51 326.95 53.93
L 323.38 54.69
L 323.38 67.00
L 323.38 79.31
L 326.95 80.06
C 328.91 80.47 333.75 81.65 337.69 82.66
C 347.03 85.10 366.81 88.71 440.26 101.45
C 473.47 107.20 519.64 115.36 542.86 119.59
C 587.58 127.70 590.91 128.17 590.91 126.34
M 308.68 102.10
C 314.42 98.31 315.99 92.92 316.62 74.61
C 317.70 43.26 315.10 33.77 304.39 30.04
C 299.61 28.37 298.68 28.43 294.08 30.69
C 284.75 35.28 283.77 38.74 283.77 67.00
C 283.77 89.49 284.00 92.12 286.40 96.27
C 291.29 104.69 300.90 107.20 308.68 102.10"/>
<path fill="#e7c295" stroke="none" d="
M 9.09 126.34
C 9.09 125.69 12.18 120.86 15.97 115.60
C 38.99 83.60 38.31 85.07 38.31 67.00
C 38.31 50.06 37.39 47.84 21.44 26.02
C 9.23 9.33 8.45 7.96 10.66 7.13
C 11.58 6.79 31.91 10.02 55.84 14.30
C 79.78 18.59 126.52 26.80 159.74 32.56
C 239.26 46.34 253.60 49.01 260.47 51.35
C 263.64 52.43 268.57 53.68 271.43 54.15
L 276.62 54.98
L 276.62 67.14
L 276.62 79.31
L 273.05 80.13
C 271.09 80.57 266.10 81.77 261.96 82.79
C 251.94 85.28 231.68 88.97 159.74 101.44
C 126.52 107.20 79.78 115.41 55.84 119.69
C 8.99 128.08 9.09 128.07 9.09 126.34"/>
<path fill="#e7c295" stroke="none" d="
M 542.86 119.59
C 519.64 115.36 473.47 107.20 440.26 101.45
C 366.81 88.71 347.03 85.10 337.69 82.66
C 333.75 81.65 328.91 80.47 326.95 80.06
L 323.38 79.31
L 323.38 67.00
L 323.38 54.69
L 326.95 53.93
C 328.91 53.51 334.91 52.08 340.26 50.74
C 345.61 49.40 366.95 45.35 387.66 41.75
C 474.95 26.57 501.69 21.88 544.53 14.23
C 569.39 9.81 590.08 6.53 590.51 6.97
C 591.42 7.87 587.34 14.26 576.39 29.05
C 562.91 47.26 561.69 50.40 561.69 67.00
C 561.69 82.75 562.71 85.85 572.49 99.52
C 575.05 103.10 580.25 110.34 584.03 115.60
C 587.82 120.86 590.91 125.69 590.91 126.34
C 590.91 128.17 587.58 127.70 542.86 119.59"/>
<path fill="#ffbf53" stroke="none" d="
M 293.55 103.15
C 285.74 99.12 284.04 94.35 283.38 74.74
C 282.30 42.95 284.90 33.62 295.79 30.13
C 300.66 28.58 301.78 28.65 306.12 30.78
C 315.23 35.28 316.23 38.86 316.23 67.00
C 316.23 88.19 315.91 92.32 313.94 95.93
C 309.53 104.00 301.01 107.02 293.55 103.15"/>
</g>
</svg>
