<?xml version="1.0" encoding="UTF-8" standalone="no"?>
<!DOCTYPE svg PUBLIC "-//W3C//DTD SVG 1.1//EN"
"http://www.w3.org/Graphics/SVG/1.1/DTD/svg11.dtd">
<svg width="459px" height="600px"
xmlns="http://www.w3.org/2000/svg" version="1.1">
<g transform="translate(0000, 0000) scale(1.0000, 1.0000)">
<path fill="#000000" stroke="none" d="
M 171.94 597.66
C 168.55 594.93 166.99 587.30 166.86 572.90
C 166.75 562.62 163.15 536.93 159.58 521.14
C 156.89 509.28 150.66 491.92 147.67 488.05
L 145.43 485.14
L 123.46 506.81
C 92.17 537.68 62.41 560.71 25.81 582.37
C 12.30 590.37 6.96 591.46 2.59 587.10
C 0.09 584.61 0.00 582.81 0.01 534.52
C 0.06 396.05 9.18 318.74 36.73 223.23
C 51.77 171.11 77.15 106.92 95.54 74.52
C 107.73 53.03 108.61 49.75 108.61 26.00
C 108.61 10.46 109.05 5.06 110.44 3.15
C 112.23 0.71 115.15 0.63 228.72 0.30
C 343.99 -0.04 345.21 -0.01 347.78 2.55
C 350.18 4.95 350.39 6.83 350.39 25.75
C 350.39 49.79 351.24 52.99 363.46 74.52
C 381.85 106.92 407.23 171.11 422.27 223.23
C 449.86 318.88 458.97 396.43 458.99 535.81
C 459.00 582.80 458.91 584.61 456.41 587.10
C 452.04 591.46 446.70 590.37 433.19 582.37
C 396.59 560.71 366.83 537.68 335.54 506.81
L 313.57 485.14
L 311.33 488.05
C 308.34 491.92 302.11 509.28 299.42 521.14
C 295.85 536.93 292.25 562.62 292.14 572.90
C 292.01 587.30 290.45 594.93 287.06 597.66
C 284.36 599.83 280.38 600.00 229.50 600.00
C 178.62 600.00 174.64 599.83 171.94 597.66
M 281.04 591.90
C 284.02 589.73 285.68 582.17 285.72 570.54
C 285.78 548.09 295.16 503.42 303.21 487.16
L 307.88 477.73
L 296.97 464.21
C 283.82 447.88 262.03 415.37 250.08 394.19
C 232.24 362.59 229.87 358.72 228.78 359.41
C 228.16 359.78 224.32 366.32 220.26 373.92
C 202.44 407.24 180.51 441.20 161.89 464.35
L 151.12 477.73
L 155.79 487.16
C 163.84 503.42 173.22 548.09 173.28 570.54
C 173.32 582.17 174.98 589.73 177.96 591.90
C 181.23 594.30 277.77 594.30 281.04 591.90
M 29.74 570.99
C 65.19 549.68 106.24 515.82 134.02 485.01
C 174.41 440.18 194.46 407.82 248.31 300.65
C 287.46 222.75 309.22 169.35 327.76 105.81
C 333.97 84.54 341.34 56.92 341.34 54.93
C 341.34 54.53 290.28 54.19 227.88 54.19
L 114.43 54.21
L 109.77 63.55
C 107.22 68.70 100.22 82.48 94.20 94.19
C 77.07 127.61 54.54 186.67 41.52 232.26
C 26.03 286.53 15.35 345.08 10.34 403.23
C 6.67 445.68 4.93 578.59 7.98 581.64
C 9.14 582.80 10.43 582.59 13.47 580.77
C 15.67 579.46 22.98 575.06 29.74 570.99
M 452.51 535.01
C 452.50 486.21 450.75 426.80 448.63 402.70
C 440.65 311.81 420.13 225.81 386.50 142.35
C 371.57 105.29 348.79 60.09 347.31 64.58
C 346.97 65.61 343.69 77.48 340.03 90.97
C 327.60 136.77 309.24 188.00 287.77 236.77
C 283.71 246.00 269.93 274.61 257.13 300.35
L 233.87 347.15
L 244.69 368.09
C 284.55 445.23 334.01 503.65 399.76 551.25
C 422.85 567.97 448.80 583.42 450.91 581.68
C 452.16 580.63 452.54 569.97 452.51 535.01
M 342.38 46.19
C 343.44 45.14 343.93 39.02 343.93 27.10
C 343.93 15.17 343.44 9.06 342.38 8.00
C 340.13 5.75 118.87 5.75 116.62 8.00
C 114.47 10.15 114.47 44.04 116.62 46.19
C 118.87 48.44 340.13 48.44 342.38 46.19"/>
<path fill="#c57a36" stroke="none" d="
M 116.62 46.19
C 115.56 45.14 115.07 38.98 115.07 26.89
C 115.07 10.65 115.29 9.01 117.57 7.79
C 121.41 5.74 340.32 5.95 342.38 8.00
C 343.44 9.06 343.93 15.17 343.93 27.10
C 343.93 39.02 343.44 45.14 342.38 46.19
C 340.13 48.44 118.87 48.44 116.62 46.19"/>
<path fill="#edc28f" stroke="none" d="
M 7.98 581.64
C 4.93 578.59 6.67 445.68 10.34 403.23
C 20.71 282.90 54.03 168.08 107.70 67.74
L 114.61 54.84
L 227.97 54.50
C 290.32 54.32 341.34 54.52 341.34 54.92
C 341.34 56.92 333.98 84.50 327.76 105.81
C 309.22 169.35 287.46 222.75 248.31 300.65
C 194.46 407.82 174.41 440.18 134.02 485.01
C 106.24 515.82 65.19 549.68 29.74 570.99
C 22.98 575.06 15.67 579.46 13.47 580.77
C 10.43 582.59 9.14 582.80 7.98 581.64"/>
<path fill="#edc28f" stroke="none" d="
M 432.71 573.08
C 353.20 525.28 290.73 457.17 244.69 368.09
L 233.87 347.15
L 257.13 300.35
C 269.93 274.61 283.71 246.00 287.77 236.77
C 309.24 188.00 327.60 136.77 340.03 90.97
C 343.69 77.48 346.97 65.61 347.31 64.58
C 348.79 60.09 371.57 105.29 386.50 142.35
C 420.13 225.81 440.65 311.81 448.63 402.70
C 452.37 445.23 454.06 579.06 450.91 581.68
C 449.69 582.68 444.92 580.43 432.71 573.08"/>
<path fill="#cf9e66" stroke="none" d="
M 177.96 591.90
C 174.98 589.73 173.32 582.17 173.28 570.54
C 173.22 548.09 163.84 503.42 155.79 487.16
L 151.12 477.73
L 161.89 464.35
C 180.52 441.19 202.43 407.24 220.28 373.87
C 224.37 366.25 228.40 360.00 229.24 360.00
C 230.09 360.01 233.65 365.08 237.13 371.29
C 261.98 415.56 278.81 441.68 297.04 464.28
L 307.88 477.73
L 303.21 487.16
C 295.16 503.42 285.78 548.09 285.72 570.54
C 285.68 582.17 284.02 589.73 281.04 591.90
C 277.77 594.30 181.23 594.30 177.96 591.90"/>
</g>
</svg>
