<?xml version="1.0" encoding="UTF-8" standalone="no"?>
<!DOCTYPE svg PUBLIC "-//W3C//DTD SVG 1.1//EN"
"http://www.w3.org/Graphics/SVG/1.1/DTD/svg11.dtd">
<svg width="258px" height="600px"
xmlns="http://www.w3.org/2000/svg" version="1.1">
<g transform="translate(0000, 0000) scale(1.0000, 1.0000)">
<path fill="#000000" stroke="none" d="
M 97.80 598.50
C 66.31 592.41 49.64 583.87 31.03 564.29
C 14.93 547.33 6.79 530.69 2.28 505.44
C -0.54 489.64 -0.54 484.01 2.28 468.22
C 7.14 441.07 14.99 425.76 33.60 407.19
C 42.62 398.18 48.86 393.11 55.57 389.34
C 91.09 369.39 135.71 369.39 171.23 389.34
C 184.16 396.61 203.80 416.20 211.08 429.11
C 217.84 441.09 222.36 454.72 225.01 471.02
C 228.91 495.04 223.79 521.99 211.00 544.68
C 203.84 557.37 184.08 577.09 171.37 584.23
C 149.64 596.43 118.39 602.49 97.80 598.50
M 137.40 587.99
C 146.34 585.66 163.46 578.26 168.31 574.63
C 170.23 573.21 167.77 570.41 142.50 545.21
L 114.58 517.37
L 86.06 545.84
L 57.55 574.32
L 65.68 578.68
C 88.63 591.01 113.47 594.23 137.40 587.99
M 81.62 538.32
C 100.30 519.75 113.21 507.78 114.60 507.78
C 115.99 507.78 128.78 519.62 147.24 537.99
L 177.59 568.19
L 184.88 561.04
C 188.90 557.11 193.85 551.83 195.86 549.31
L 199.55 544.72
L 169.38 514.53
C 152.78 497.92 139.20 483.57 139.20 482.63
C 139.20 481.71 152.02 468.13 167.66 452.46
L 196.14 423.95
L 187.76 415.49
C 183.17 410.81 177.86 405.90 175.99 404.54
L 172.58 402.08
L 144.73 429.78
C 127.94 446.48 115.98 457.49 114.60 457.49
C 113.22 457.49 101.03 446.26 83.86 429.16
L 55.38 400.85
L 50.80 404.53
C 48.26 406.54 42.97 411.47 39.04 415.47
L 31.87 422.75
L 60.94 451.86
C 76.92 467.86 90.00 481.71 90.00 482.63
C 90.00 483.57 76.14 498.19 59.20 515.15
C 31.22 543.14 28.55 546.17 30.02 548.13
C 32.38 551.26 49.63 568.86 50.34 568.86
C 50.68 568.86 64.75 555.11 81.62 538.32
M 52.20 510.18
L 79.79 482.62
L 53.23 456.13
L 26.69 429.64
L 22.12 437.80
C 9.10 461.03 5.65 486.29 12.13 510.99
C 14.72 520.86 21.97 537.72 23.63 537.72
C 24.18 537.72 37.03 525.33 52.20 510.18
M 208.63 528.17
C 221.54 499.33 220.93 470.78 206.77 442.10
L 201.25 430.90
L 175.33 456.77
L 149.41 482.62
L 176.40 509.58
C 191.23 524.40 203.71 536.53 204.13 536.53
C 204.54 536.53 206.57 532.77 208.63 528.17
M 164.40 397.23
C 164.40 395.56 147.35 388.29 136.72 385.45
C 122.72 381.71 104.11 381.70 90.19 385.43
C 81.53 387.74 65.57 394.05 63.73 395.88
C 63.38 396.22 74.69 408.06 88.85 422.20
L 114.58 447.90
L 139.49 423.07
C 153.19 409.40 164.40 397.78 164.40 397.23"/>
<path fill="#000000" stroke="none" d="
M 193.13 390.11
C 187.03 386.01 181.82 378.41 177.58 367.43
C 170.29 348.57 169.50 340.36 172.32 312.96
C 173.02 306.10 172.85 305.33 169.99 302.48
C 168.24 300.73 165.54 299.40 163.74 299.40
C 158.06 299.40 154.28 305.16 148.80 322.14
C 144.83 334.47 143.05 338.30 140.26 340.66
C 135.82 344.38 129.79 345.56 124.30 343.75
C 118.62 341.87 115.63 337.80 113.93 329.57
C 110.46 312.78 100.56 302.43 82.66 296.86
C 78.66 295.63 72.98 294.61 70.04 294.61
C 62.56 294.61 58.80 290.80 58.80 283.20
C 58.80 275.75 63.17 240.54 65.41 229.87
C 71.16 202.62 87.10 172.38 110.32 144.68
C 121.00 131.94 131.74 122.01 155.40 103.02
C 175.64 86.77 193.69 69.29 196.76 62.95
C 198.11 60.19 201.06 49.77 203.34 39.81
C 208.76 16.00 212.75 8.30 222.06 3.56
C 231.88 -1.44 242.10 -0.67 250.63 5.70
C 261.90 14.11 260.09 28.98 244.60 55.13
C 232.45 75.64 231.82 80.80 237.70 110.97
C 240.96 127.69 241.32 131.58 240.76 143.71
C 240.02 159.11 235.85 180.98 230.56 197.09
C 228.62 202.97 222.47 219.38 216.88 233.53
C 198.35 280.49 196.30 288.84 196.28 317.37
C 196.27 343.63 197.27 347.92 210.04 376.79
C 213.32 384.23 212.62 388.43 207.65 390.99
C 202.68 393.56 197.82 393.26 193.13 390.11
M 204.61 384.42
C 205.02 383.75 203.21 378.49 200.58 372.74
C 190.94 351.66 187.69 334.67 188.71 310.79
C 189.76 286.54 193.12 274.23 211.39 227.70
C 232.96 172.84 237.47 147.11 231.07 115.57
C 227.06 95.86 226.00 81.38 227.94 73.29
C 228.76 69.93 232.92 61.08 237.20 53.64
C 248.09 34.72 250.20 29.45 250.20 21.15
C 250.20 13.21 248.21 10.69 240.00 8.24
C 233.71 6.36 227.56 7.78 222.37 12.34
C 216.54 17.45 214.19 23.17 209.90 42.79
C 207.91 51.86 204.95 62.22 203.30 65.81
C 199.44 74.23 185.44 88.05 160.80 107.74
C 138.98 125.16 115.14 148.62 105.00 162.63
C 90.01 183.34 79.13 205.43 73.75 226.06
C 70.08 240.13 65.10 282.14 66.78 284.80
C 67.51 285.96 71.32 287.26 76.52 288.13
C 99.64 292.02 115.20 305.77 121.08 327.50
C 123.56 336.67 127.22 339.31 133.42 336.35
C 137.11 334.59 137.72 333.40 141.83 320.20
C 146.68 304.60 149.76 299.08 155.90 294.93
C 160.90 291.58 165.47 291.49 171.62 294.62
C 178.39 298.07 180.43 302.68 179.52 312.47
C 177.24 336.85 177.28 340.69 179.87 350.96
C 183.10 363.70 190.24 378.95 194.72 382.72
C 198.28 385.71 203.28 386.56 204.61 384.42"/>
<path fill="#fefefe" stroke="none" d="
M 194.72 382.72
C 190.24 378.95 183.10 363.70 179.87 350.96
C 177.28 340.69 177.24 336.85 179.52 312.47
C 180.43 302.68 178.39 298.07 171.62 294.62
C 165.47 291.49 160.90 291.58 155.90 294.93
C 149.76 299.08 146.68 304.60 141.83 320.20
C 137.72 333.40 137.11 334.59 133.42 336.35
C 127.22 339.31 123.56 336.67 121.08 327.50
C 115.20 305.77 99.64 292.02 76.52 288.13
C 71.32 287.26 67.51 285.96 66.78 284.80
C 65.10 282.14 70.08 240.13 73.75 226.06
C 79.13 205.43 90.01 183.34 105.00 162.63
C 115.14 148.62 138.98 125.16 160.80 107.74
C 185.44 88.05 199.44 74.23 203.30 65.81
C 204.95 62.22 207.91 51.86 209.90 42.79
C 214.19 23.20 216.54 17.45 222.35 12.36
C 228.30 7.14 235.43 6.11 242.87 9.40
C 249.40 12.28 251.32 16.00 250.39 23.95
C 249.60 30.71 246.91 36.77 237.14 53.72
C 232.90 61.13 228.76 69.93 227.94 73.29
C 226.00 81.38 227.06 95.86 231.07 115.57
C 237.47 147.11 232.96 172.84 211.39 227.70
C 193.12 274.23 189.76 286.54 188.71 310.79
C 187.69 334.67 190.94 351.66 200.58 372.74
C 203.21 378.49 205.02 383.75 204.61 384.42
C 203.28 386.56 198.28 385.71 194.72 382.72"/>
<path fill="#bd5628" stroke="none" d="
M 97.80 589.93
C 86.29 587.70 75.34 583.87 65.68 578.68
L 57.55 574.32
L 86.06 545.84
L 114.58 517.37
L 142.50 545.21
C 174.25 576.86 172.74 573.05 156.60 580.85
C 138.07 589.80 115.26 593.32 97.80 589.93"/>
<path fill="#bd5628" stroke="none" d="
M 18.61 529.01
C 13.67 518.34 9.95 504.55 8.92 493.07
C 7.45 476.85 12.82 454.38 22.12 437.80
L 26.69 429.64
L 53.23 456.13
L 79.79 482.62
L 52.20 510.18
C 37.03 525.33 24.18 537.72 23.63 537.72
C 23.09 537.72 20.83 533.80 18.61 529.01"/>
<path fill="#bd5628" stroke="none" d="
M 176.40 509.58
L 149.41 482.62
L 175.33 456.77
L 201.25 430.90
L 206.77 442.10
C 220.93 470.78 221.54 499.33 208.63 528.17
C 206.57 532.77 204.54 536.53 204.13 536.53
C 203.71 536.53 191.23 524.40 176.40 509.58"/>
<path fill="#bd5628" stroke="none" d="
M 88.85 422.20
C 74.69 408.06 63.38 396.22 63.73 395.88
C 65.58 394.02 81.54 387.74 90.19 385.45
C 104.23 381.74 122.87 381.74 136.72 385.45
C 147.35 388.29 164.40 395.56 164.40 397.23
C 164.40 397.78 153.19 409.40 139.49 423.07
L 114.58 447.90
L 88.85 422.20"/>
<path fill="#eae4a2" stroke="none" d="
M 40.70 559.58
C 35.72 554.48 30.92 549.33 30.02 548.13
C 28.55 546.17 31.22 543.14 59.20 515.15
C 76.14 498.19 90.00 483.57 90.00 482.63
C 90.00 481.71 76.92 467.86 60.94 451.86
L 31.87 422.75
L 39.04 415.44
C 42.97 411.41 48.32 406.54 50.93 404.62
L 55.66 401.13
L 83.99 429.31
C 101.08 446.31 113.22 457.49 114.60 457.49
C 115.98 457.49 127.94 446.48 144.73 429.78
L 172.58 402.08
L 175.99 404.54
C 177.86 405.90 183.17 410.81 187.76 415.49
L 196.14 423.95
L 167.66 452.46
C 152.02 468.13 139.20 481.71 139.20 482.63
C 139.20 483.57 152.78 497.92 169.38 514.53
L 199.55 544.72
L 195.86 549.31
C 193.85 551.83 188.90 557.11 184.88 561.04
L 177.59 568.19
L 147.24 537.99
C 128.78 519.62 115.99 507.78 114.60 507.78
C 113.21 507.78 100.30 519.75 81.62 538.32
C 64.75 555.11 50.68 568.86 50.34 568.86
C 50.02 568.86 45.67 564.68 40.70 559.58"/>
</g>
</svg>
