<?xml version="1.0" encoding="UTF-8" standalone="no"?>
<!DOCTYPE svg PUBLIC "-//W3C//DTD SVG 1.1//EN"
"http://www.w3.org/Graphics/SVG/1.1/DTD/svg11.dtd">
<svg width="359px" height="600px"
xmlns="http://www.w3.org/2000/svg" version="1.1">
<g transform="translate(0000, 0000) scale(1.0000, 1.0000)">
<path fill="#000000" stroke="none" d="
M 283.47 598.07
C 271.52 591.59 251.15 534.27 247.17 495.96
C 245.24 477.34 240.76 470.11 228.19 465.31
C 222.61 463.17 221.99 463.17 216.58 465.24
C 209.24 468.04 201.65 476.59 198.88 485.18
C 197.45 489.60 196.75 496.15 196.75 504.97
C 196.75 522.42 197.16 522.13 172.93 522.13
C 162.96 522.13 153.87 521.77 152.72 521.34
C 149.77 520.20 147.37 514.94 145.78 506.14
C 142.49 487.81 127.11 466.34 111.67 458.57
C 97.52 451.42 84.56 449.40 40.24 447.46
C 18.59 446.50 17.07 446.22 15.25 442.83
C 14.46 441.36 13.31 431.17 12.70 420.18
C 11.69 402.01 4.62 348.51 1.39 334.47
C 0.66 331.30 0.05 324.84 0.03 320.11
C -0.03 305.72 -5.02 306.83 64.03 306.01
C 126.37 305.27 143.82 304.11 183.97 298.06
C 212.38 293.77 227.78 290.59 228.35 288.88
C 228.61 288.11 226.92 285.27 224.60 282.56
C 215.06 271.46 194.72 249.23 169.87 222.77
C 112.76 161.95 57.11 99.69 48.42 86.90
C 44.40 80.97 41.67 75.04 39.80 68.08
C 36.37 55.40 36.36 50.32 39.69 38.27
C 46.36 14.25 56.60 5.37 82.40 1.28
C 91.26 -0.14 93.85 -0.08 101.78 1.72
C 114.15 4.54 116.49 5.54 121.95 10.33
C 127.78 15.45 130.91 21.49 133.02 31.65
C 136.14 46.76 128.88 65.23 117.18 71.97
C 106.09 78.37 90.62 79.24 81.96 73.97
C 66.19 64.39 73.21 30.64 90.95 30.64
C 100.37 30.64 104.42 43.12 97.10 49.54
C 92.74 53.36 92.29 55.49 95.46 57.27
C 98.49 58.97 103.43 56.22 108.99 49.72
C 115.28 42.38 115.79 39.24 111.79 32.43
C 107.98 25.95 97.50 19.17 91.26 19.16
C 78.56 19.12 63.85 30.40 58.85 44.00
C 54.62 55.48 56.81 63.00 68.62 77.50
C 84.14 96.59 145.61 164.55 188.44 209.99
C 200.39 222.65 219.03 242.92 229.86 255.03
C 240.70 267.13 250.29 277.02 251.20 277.02
C 256.13 277.02 263.62 259.99 273.38 226.60
C 298.23 141.52 309.65 102.77 319.91 68.66
C 326.51 46.70 332.87 25.28 334.05 21.05
C 337.32 9.24 339.54 7.01 347.95 7.09
C 358.55 7.19 359.33 8.34 358.67 22.91
C 358.26 31.88 356.01 44.07 350.20 68.94
C 345.85 87.55 335.45 132.92 327.09 169.79
C 312.84 232.61 305.04 266.31 292.64 318.50
C 282.06 363.06 279.79 384.45 279.82 439.15
C 279.84 491.78 282.08 507.24 297.17 559.42
C 300.96 572.54 304.06 584.78 304.06 586.61
C 304.06 590.90 300.87 597.01 297.75 598.69
C 294.30 600.52 287.44 600.23 283.47 598.07
M 294.39 590.34
C 295.49 589.23 296.40 588.01 296.40 587.63
C 296.40 587.25 293.54 577.38 290.05 565.71
C 274.95 515.29 273.17 503.50 272.46 448.90
C 271.59 383.13 273.62 362.67 286.32 308.72
C 297.48 261.31 308.83 212.03 324.49 142.98
C 340.12 74.09 347.28 42.82 350.89 27.78
C 352.55 20.85 352.64 18.80 351.35 17.25
C 348.82 14.20 346.34 14.97 344.28 19.47
C 341.68 25.15 303.95 151.90 277.80 242.83
C 267.50 278.64 263.56 284.97 246.94 292.54
C 234.79 298.07 222.84 300.86 193.55 305.00
C 142.00 312.31 115.71 313.99 53.49 314.03
C 15.91 314.04 10.32 314.30 8.85 316.06
C 7.49 317.71 7.47 319.76 8.76 327.23
C 13.90 356.90 19.37 399.00 20.26 415.79
C 20.94 428.34 21.88 435.89 22.95 437.17
C 24.03 438.49 26.78 439.15 31.13 439.15
C 45.32 439.16 92.80 443.11 100.70 444.94
C 105.31 446.00 112.71 448.67 117.15 450.86
C 133.19 458.74 148.77 479.99 152.81 499.47
C 155.92 514.39 156.02 514.47 172.24 514.47
C 181.25 514.47 186.55 513.93 187.55 512.94
C 188.52 511.97 189.08 507.15 189.08 499.94
C 189.08 478.95 195.80 464.82 208.64 458.85
C 218.89 454.09 222.62 453.78 231.61 457.02
C 248.07 462.93 251.77 468.60 254.89 492.66
C 259.41 527.67 276.02 577.17 287.14 588.83
C 291.02 592.90 291.68 593.04 294.39 590.34
M 241.96 281.07
C 242.73 279.83 212.08 245.54 175.02 206.17
C 125.19 153.23 66.20 87.26 58.47 75.80
C 50.03 63.31 48.59 52.34 53.65 38.94
C 57.98 27.49 67.28 18.86 79.22 15.23
C 90.26 11.87 97.02 12.46 106.40 17.55
C 117.50 23.57 123.63 36.80 119.70 46.21
C 117.36 51.79 110.56 59.58 105.91 61.98
C 100.63 64.71 92.51 64.35 89.43 61.28
C 85.34 57.19 86.02 50.34 90.95 45.73
C 94.14 42.75 94.75 41.46 93.74 39.87
C 91.76 36.73 90.18 36.70 86.30 39.75
C 79.31 45.24 77.22 56.08 81.71 63.45
C 85.41 69.50 91.03 71.95 99.31 71.09
C 126.71 68.26 137.35 33.01 116.25 14.97
C 109.69 9.36 101.64 7.00 89.43 7.10
C 66.87 7.29 52.60 17.90 45.94 39.40
C 44.56 43.85 43.44 49.97 43.44 52.98
C 43.44 61.38 47.90 73.93 53.94 82.57
C 62.84 95.27 121.22 160.43 174.99 217.66
C 189.50 233.11 209.29 254.50 218.96 265.21
C 234.12 281.99 236.88 284.49 238.93 283.39
C 240.25 282.69 241.62 281.64 241.96 281.07"/>
<path fill="#ffbf53" stroke="none" d="
M 218.96 265.21
C 209.29 254.50 189.50 233.11 174.99 217.66
C 121.22 160.43 62.84 95.27 53.94 82.57
C 47.90 73.93 43.44 61.38 43.44 52.98
C 43.44 49.97 44.56 43.85 45.94 39.40
C 52.60 17.90 66.65 7.47 89.37 7.15
C 101.61 6.98 109.65 9.33 116.25 14.97
C 137.35 33.01 126.71 68.26 99.31 71.09
C 91.03 71.95 85.41 69.50 81.71 63.45
C 77.22 56.08 79.31 45.24 86.30 39.75
C 90.18 36.70 91.76 36.73 93.74 39.87
C 94.75 41.46 94.14 42.75 90.95 45.73
C 86.02 50.34 85.34 57.19 89.43 61.28
C 92.51 64.35 100.63 64.71 105.91 61.98
C 110.56 59.58 117.36 51.79 119.70 46.21
C 123.63 36.80 117.50 23.57 106.40 17.55
C 97.02 12.46 90.26 11.87 79.22 15.23
C 67.28 18.86 57.98 27.49 53.65 38.94
C 48.59 52.34 50.03 63.31 58.47 75.80
C 66.20 87.26 125.19 153.23 175.02 206.17
C 212.08 245.54 242.73 279.83 241.96 281.07
C 241.62 281.64 240.25 282.69 238.93 283.39
C 236.88 284.49 234.12 281.99 218.96 265.21"/>
<path fill="#ff0000" stroke="none" d="
M 287.14 588.83
C 276.02 577.17 259.41 527.67 254.89 492.66
C 251.77 468.60 248.07 462.93 231.61 457.02
C 222.62 453.78 218.89 454.09 208.64 458.85
C 195.80 464.82 189.08 478.95 189.08 499.94
C 189.08 507.15 188.52 511.97 187.55 512.94
C 186.55 513.93 181.25 514.47 172.24 514.47
C 156.02 514.47 155.92 514.39 152.81 499.47
C 148.77 479.99 133.19 458.74 117.15 450.86
C 112.71 448.67 105.31 446.00 100.70 444.94
C 92.80 443.11 45.32 439.16 31.13 439.15
C 26.78 439.15 24.03 438.49 22.95 437.17
C 21.88 435.89 20.94 428.34 20.26 415.79
C 19.37 399.00 13.90 356.90 8.76 327.23
C 7.47 319.76 7.49 317.71 8.85 316.06
C 10.32 314.30 15.91 314.04 53.49 314.03
C 115.71 313.99 142.00 312.31 193.55 305.00
C 222.84 300.86 234.79 298.07 246.94 292.54
C 263.56 284.97 267.50 278.64 277.80 242.83
C 299.21 168.40 339.73 31.53 343.15 22.14
C 345.30 16.19 348.29 14.30 351.12 17.11
C 352.78 18.77 352.75 20.03 350.91 27.69
C 347.30 42.79 340.16 73.93 324.49 142.98
C 308.83 212.03 297.48 261.31 286.32 308.72
C 273.62 362.67 271.59 383.13 272.46 448.90
C 273.17 503.50 274.95 515.29 290.05 565.71
C 293.54 577.38 296.40 587.25 296.40 587.63
C 296.40 588.66 292.53 592.34 291.44 592.34
C 290.92 592.34 288.98 590.76 287.14 588.83"/>
</g>
</svg>
