<?xml version="1.0" encoding="UTF-8" standalone="no"?>
<svg
   width="635px"
   height="600px"
   version="1.1"
   id="svg2261"
   sodipodi:docname="S30.svg"
   inkscape:version="1.2.2 (732a01da63, 2022-12-09)"
   inkscape:export-filename="..\png\S30.png"
   inkscape:export-xdpi="300"
   inkscape:export-ydpi="300"
   xmlns:inkscape="http://www.inkscape.org/namespaces/inkscape"
   xmlns:sodipodi="http://sodipodi.sourceforge.net/DTD/sodipodi-0.dtd"
   xmlns="http://www.w3.org/2000/svg"
   xmlns:svg="http://www.w3.org/2000/svg">
  <defs
     id="defs2265" />
  <sodipodi:namedview
     id="namedview2263"
     pagecolor="#505050"
     bordercolor="#ffffff"
     borderopacity="1"
     inkscape:showpageshadow="0"
     inkscape:pageopacity="0"
     inkscape:pagecheckerboard="1"
     inkscape:deskcolor="#505050"
     showgrid="false"
     inkscape:zoom="1.3816667"
     inkscape:cx="250.42219"
     inkscape:cy="301.08564"
     inkscape:window-width="1920"
     inkscape:window-height="1009"
     inkscape:window-x="-8"
     inkscape:window-y="-8"
     inkscape:window-maximized="1"
     inkscape:current-layer="svg2261" />
  <g
     transform="translate(0000, 0000) scale(1.0000, 1.0000)"
     id="g2259">
    <path
       fill="#000000"
       stroke="none"
       d=" M 207.37 597.42 C 204.85 594.90 204.80 593.14 204.80 500.86 L 204.80 406.87 L 194.13 406.87 C 173.01 406.87 151.12 402.70 138.50 396.26 C 129.47 391.65 123.61 386.01 110.68 369.44 C 96.76 351.61 88.41 343.24 81.79 340.48 C 78.25 338.99 75.49 338.92 66.82 340.09 C 53.72 341.85 32.51 340.88 23.64 338.10 C 12.93 334.75 4.97 328.66 2.05 321.57 C -0.37 315.70 -0.39 315.19 1.73 308.50 C 4.60 299.39 11.05 293.59 26.43 286.30 C 32.96 283.21 38.92 280.69 39.68 280.69 C 43.65 280.69 42.03 277.07 34.82 269.78 C 28.74 263.65 26.93 260.99 27.25 258.66 C 27.55 256.61 28.67 255.44 30.60 255.17 C 32.79 254.86 36.68 257.68 46.06 266.42 C 61.36 280.64 63.31 281.07 70.48 271.80 C 87.08 250.33 89.03 248.34 93.23 248.76 C 100.04 249.41 99.27 253.66 90.52 263.67 C 86.38 268.43 82.00 273.85 80.82 275.73 L 78.67 279.15 L 92.08 285.66 C 108.01 293.37 112.16 297.23 125.72 316.93 C 138.49 335.46 148.24 345.86 156.50 349.74 C 164.96 353.72 178.11 353.73 193.20 349.79 L 204.15 346.93 L 204.80 198.90 C 205.44 51.05 205.44 50.85 208.21 44.11 C 216.87 23.02 232.72 8.82 253.91 3.15 C 294.37 -7.66 337.39 11.99 350.80 47.42 C 353.55 54.68 353.56 55.49 354.21 192.97 L 354.85 331.20 L 372.24 337.29 C 381.81 340.62 399.78 347.29 412.17 352.09 C 443.88 364.36 462.60 370.33 480.80 373.94 C 504.26 378.62 514.74 379.00 551.82 376.60 C 592.79 373.93 624.67 374.36 630.81 377.65 C 637.83 381.41 636.04 385.75 625.24 391.18 C 618.51 394.56 604.34 397.33 581.55 399.70 C 540.66 403.97 520.43 403.67 454.03 397.82 C 438.45 396.44 412.94 394.44 397.36 393.37 C 381.77 392.30 365.69 391.08 361.62 390.66 L 354.21 389.87 L 354.21 413.18 C 354.21 443.36 355.61 441.63 331.02 441.63 C 306.44 441.63 307.84 443.36 307.84 413.15 L 307.84 389.83 L 301.08 390.71 C 297.36 391.18 284.75 393.44 273.06 395.70 L 251.81 399.82 L 251.17 498.08 C 250.54 593.47 250.45 596.39 248.02 598.17 C 246.14 599.54 241.07 600.00 227.74 600.00 C 211.66 600.00 209.70 599.76 207.37 597.42 M 241.89 590.73 C 243.06 589.56 243.44 566.60 243.44 495.30 L 243.44 401.39 L 239.55 402.17 C 237.40 402.61 230.44 403.62 224.09 404.43 L 212.53 405.91 L 212.53 497.55 C 212.53 567.10 212.90 589.56 214.07 590.73 C 216.17 592.83 239.79 592.83 241.89 590.73 M 344.94 432.36 C 346.02 431.28 346.48 424.43 346.48 409.83 L 346.48 388.84 L 331.02 388.84 L 315.57 388.84 L 315.57 409.83 C 315.57 424.43 316.03 431.28 317.11 432.36 C 319.21 434.46 342.84 434.46 344.94 432.36 M 216.40 398.54 C 225.25 397.49 245.82 394.06 262.11 390.90 C 305.16 382.57 310.38 381.98 334.04 382.76 C 355.27 383.47 427.67 388.66 463.69 392.06 C 517.61 397.16 550.94 397.15 590.56 392.01 C 607.60 389.79 614.44 388.25 620.06 385.35 C 622.94 383.86 623.38 383.18 621.99 382.29 C 619.12 380.48 582.63 380.94 551.20 383.18 C 494.90 387.21 475.18 383.76 407.02 357.95 C 311.73 321.89 297.79 320.95 227.45 345.94 C 194.65 357.59 185.28 359.68 168.84 359.00 C 158.18 358.56 155.56 357.98 149.62 354.73 C 140.86 349.94 132.81 341.10 119.59 321.77 C 113.81 313.30 106.80 304.31 104.02 301.80 C 101.24 299.29 93.37 294.61 86.52 291.37 C 75.81 286.33 72.61 285.41 63.76 284.88 C 55.45 284.39 51.83 284.82 45.08 287.09 C 16.35 296.70 1.89 310.55 10.06 320.61 C 12.33 323.42 12.51 323.43 16.62 321.31 C 18.93 320.11 21.65 319.44 22.66 319.83 C 25.58 320.95 24.74 324.23 21.03 326.18 L 17.61 327.98 L 25.22 330.89 C 35.01 334.62 48.31 335.52 64.94 333.55 C 87.17 330.91 92.55 333.91 113.85 360.95 C 133.45 385.82 138.21 389.63 156.51 395.16 C 174.45 400.58 191.03 401.52 216.40 398.54 M 238.29 334.18 L 242.79 332.58 L 243.44 196.87 L 244.08 61.16 L 246.86 56.01 C 253.24 44.19 264.41 38.03 279.50 38.03 C 294.60 38.03 306.95 44.97 313.11 56.92 C 315.48 61.53 315.57 66.22 315.57 192.18 L 315.57 322.66 L 327.48 324.93 C 334.04 326.16 340.99 327.52 342.94 327.90 L 346.48 328.62 L 346.48 194.85 C 346.48 49.31 346.66 53.06 339.29 40.49 C 331.90 27.88 314.24 15.33 297.54 10.84 C 286.25 7.79 267.14 7.78 257.01 10.80 C 233.93 17.72 218.49 33.61 213.96 55.11 C 212.95 59.88 212.53 104.18 212.53 202.82 L 212.53 343.71 L 223.15 339.75 C 229.00 337.57 235.80 335.06 238.29 334.18 M 269.84 325.65 C 276.22 324.31 287.39 322.84 294.65 322.36 L 307.88 321.50 L 307.53 193.06 L 307.20 64.60 L 303.32 59.09 C 291.49 42.27 265.86 43.03 255.35 60.52 L 251.17 67.48 L 251.17 198.68 L 251.17 329.90 L 254.71 328.97 C 256.65 328.47 263.47 326.97 269.84 325.65"
       id="path2205" />
    <path
       fill="#000000"
       stroke="none"
       d=" M 182.90 384.98 C 177.80 379.88 181.51 370.82 188.70 370.82 C 192.83 370.82 197.07 375.05 197.07 379.18 C 197.07 383.32 192.83 387.55 188.70 387.55 C 186.92 387.55 184.32 386.39 182.90 384.98 M 192.41 380.82 C 193.48 379.11 193.31 378.10 191.67 376.45 C 187.81 372.61 182.06 377.64 185.54 381.84 C 187.54 384.24 190.53 383.81 192.41 380.82"
       id="path2207" />
    <path
       fill="#000000"
       stroke="none"
       d=" M 146.84 381.12 C 141.74 376.02 145.44 366.95 152.63 366.95 C 156.77 366.95 161.00 371.19 161.00 375.32 C 161.00 379.45 156.77 383.69 152.63 383.69 C 150.85 383.69 148.25 382.53 146.84 381.12 M 156.34 376.96 C 157.41 375.24 157.24 374.24 155.61 372.59 C 151.74 368.74 146.00 373.78 149.48 377.97 C 151.47 380.38 154.46 379.94 156.34 376.96"
       id="path2209" />
    <path
       fill="#000000"
       stroke="none"
       d=" M 405.73 378.54 C 404.31 377.12 403.15 374.52 403.15 372.75 C 403.15 370.97 404.31 368.37 405.73 366.95 C 407.15 365.54 409.75 364.38 411.53 364.38 C 413.30 364.38 415.91 365.54 417.32 366.95 C 418.74 368.37 419.90 370.97 419.90 372.75 C 419.90 374.52 418.74 377.12 417.32 378.54 C 415.91 379.96 413.30 381.12 411.53 381.12 C 409.75 381.12 407.15 379.96 405.73 378.54 M 415.24 374.38 C 416.30 372.67 416.14 371.67 414.50 370.02 C 410.64 366.17 404.89 371.20 408.37 375.40 C 410.37 377.81 413.36 377.37 415.24 374.38"
       id="path2211" />
    <path
       fill="#000000"
       stroke="none"
       d=" M 217.68 375.97 C 212.58 370.87 216.29 361.80 223.47 361.80 C 227.61 361.80 231.85 366.04 231.85 370.17 C 231.85 374.30 227.61 378.54 223.47 378.54 C 221.70 378.54 219.09 377.38 217.68 375.97 M 227.18 371.81 C 228.25 370.09 228.08 369.09 226.45 367.44 C 222.58 363.59 216.84 368.63 220.32 372.82 C 222.31 375.23 225.30 374.79 227.18 371.81"
       id="path2213" />
    <path
       fill="#000000"
       stroke="none"
       d=" M 370.95 370.82 C 369.54 369.40 368.38 366.80 368.38 365.02 C 368.38 363.24 369.54 360.64 370.95 359.23 C 372.37 357.81 374.97 356.65 376.75 356.65 C 378.53 356.65 381.13 357.81 382.55 359.23 C 383.96 360.64 385.12 363.24 385.12 365.02 C 385.12 366.80 383.96 369.40 382.55 370.82 C 381.13 372.23 378.53 373.39 376.75 373.39 C 374.97 373.39 372.37 372.23 370.95 370.82 M 380.46 366.66 C 381.53 364.94 381.36 363.94 379.72 362.29 C 375.86 358.44 370.12 363.48 373.59 367.67 C 375.59 370.08 378.58 369.64 380.46 366.66"
       id="path2215" />
    <path
       fill="#000000"
       stroke="none"
       d=" M 255.03 364.38 C 249.93 359.28 253.64 350.21 260.83 350.21 C 264.96 350.21 269.20 354.45 269.20 358.58 C 269.20 362.72 264.96 366.95 260.83 366.95 C 259.05 366.95 256.45 365.79 255.03 364.38 M 264.54 360.22 C 265.61 358.51 265.44 357.50 263.80 355.85 C 259.94 352.00 254.19 357.04 257.67 361.24 C 259.67 363.64 262.66 363.21 264.54 360.22"
       id="path2217" />
    <path
       fill="#000000"
       stroke="none"
       d=" M 331.02 363.09 C 329.61 361.67 328.45 359.07 328.45 357.30 C 328.45 355.52 329.61 352.92 331.02 351.50 C 332.44 350.09 335.04 348.93 336.82 348.93 C 338.60 348.93 341.20 350.09 342.62 351.50 C 344.03 352.92 345.19 355.52 345.19 357.30 C 345.19 359.07 344.03 361.67 342.62 363.09 C 341.20 364.51 338.60 365.67 336.82 365.67 C 335.04 365.67 332.44 364.51 331.02 363.09 M 340.53 358.93 C 341.60 357.22 341.43 356.21 339.80 354.57 C 335.93 350.72 330.19 355.75 333.66 359.95 C 335.66 362.36 338.65 361.92 340.53 358.93"
       id="path2219" />
    <path
       fill="#000000"
       stroke="none"
       d=" M 294.96 359.23 C 289.86 354.13 293.57 345.06 300.76 345.06 C 304.89 345.06 309.13 349.30 309.13 353.43 C 309.13 357.57 304.89 361.80 300.76 361.80 C 298.98 361.80 296.38 360.64 294.96 359.23 M 304.47 355.07 C 305.53 353.36 305.37 352.35 303.73 350.70 C 299.87 346.85 294.12 351.89 297.60 356.09 C 299.60 358.49 302.58 358.06 304.47 355.07"
       id="path2221" />
    <path
       fill="#000000"
       stroke="none"
       d=" M 117.21 357.94 C 112.11 352.84 115.82 343.78 123.01 343.78 C 127.14 343.78 131.38 348.01 131.38 352.15 C 131.38 356.28 127.14 360.52 123.01 360.52 C 121.23 360.52 118.63 359.36 117.21 357.94 M 126.72 353.78 C 127.79 352.07 127.62 351.06 125.98 349.42 C 122.12 345.57 116.37 350.60 119.85 354.80 C 121.85 357.21 124.84 356.77 126.72 353.78"
       id="path2223" />
    <path
       fill="#000000"
       stroke="none"
       d=" M 97.89 333.48 C 96.47 332.06 95.31 329.46 95.31 327.68 C 95.31 325.91 96.47 323.30 97.89 321.89 C 99.31 320.47 101.91 319.31 103.69 319.31 C 105.46 319.31 108.07 320.47 109.48 321.89 C 114.58 326.99 110.87 336.05 103.69 336.05 C 101.91 336.05 99.31 334.89 97.89 333.48 M 107.40 329.32 C 108.47 327.61 108.30 326.60 106.66 324.95 C 102.80 321.10 97.05 326.14 100.53 330.33 C 102.53 332.74 105.52 332.30 107.40 329.32"
       id="path2225" />
    <path
       fill="#000000"
       stroke="none"
       d=" M 34.07 312.30 C 27.13 305.34 32.03 293.56 41.86 293.56 C 48.15 293.56 52.81 298.22 52.81 304.51 C 52.81 310.79 48.15 315.45 41.86 315.45 C 38.67 315.45 36.26 314.47 34.07 312.30 M 46.92 309.57 C 50.52 305.96 48.25 297.42 43.70 297.42 C 41.87 297.42 42.27 299.50 44.44 301.29 C 45.51 302.16 46.37 303.62 46.37 304.51 C 46.37 305.39 45.51 306.85 44.44 307.73 C 43.37 308.60 42.51 309.84 42.51 310.45 C 42.51 312.23 44.69 311.78 46.92 309.57"
       id="path2227" />
    <path
       fill="#fbd09d"
       stroke="none"
       d=" M 214.07 590.73 C 212.90 589.56 212.53 567.10 212.53 497.55 L 212.53 405.91 L 224.09 404.43 C 230.44 403.62 237.40 402.61 239.55 402.17 L 243.44 401.39 L 243.44 495.30 C 243.44 566.60 243.06 589.56 241.89 590.73 C 239.79 592.83 216.17 592.83 214.07 590.73"
       id="path2229"
       style="fill:#d40000" />
    <path
       fill="#fbd09d"
       stroke="none"
       d=" M 317.11 432.36 C 316.03 431.28 315.57 424.43 315.57 409.83 L 315.57 388.84 L 331.02 388.84 L 346.48 388.84 L 346.48 409.83 C 346.48 424.43 346.02 431.28 344.94 432.36 C 342.84 434.46 319.21 434.46 317.11 432.36"
       id="path2231"
       style="fill:#d40000" />
    <path
       fill="#fbd09d"
       stroke="none"
       d=" M 212.53 202.82 C 212.53 104.18 212.95 59.88 213.96 55.11 C 217.32 39.14 229.13 23.34 242.92 16.35 C 258.73 8.36 280.26 6.17 297.54 10.83 C 314.24 15.35 331.90 27.89 339.29 40.49 C 346.66 53.06 346.48 49.31 346.48 194.85 L 346.48 328.62 L 342.94 327.90 C 340.99 327.52 334.04 326.16 327.48 324.93 L 315.57 322.66 L 315.57 192.18 C 315.57 66.22 315.48 61.53 313.11 56.92 C 306.95 44.97 294.60 38.03 279.50 38.03 C 264.41 38.03 253.24 44.19 246.86 56.01 L 244.08 61.16 L 243.44 196.87 L 242.79 332.58 L 238.29 334.18 C 235.80 335.06 229.00 337.57 223.15 339.75 L 212.53 343.71 L 212.53 202.82"
       id="path2233"
       style="fill:#d40000" />
    <path
       fill="#fca022"
       stroke="none"
       d=" M 173.24 399.00 C 163.84 397.65 149.26 393.33 142.61 389.95 C 134.96 386.05 128.48 379.52 113.85 360.95 C 92.55 333.91 87.17 330.91 64.94 333.55 C 48.31 335.52 35.01 334.62 25.22 330.89 L 17.61 327.98 L 21.03 326.18 C 24.74 324.23 25.58 320.95 22.66 319.83 C 21.65 319.44 18.93 320.11 16.62 321.31 C 12.51 323.43 12.33 323.42 10.06 320.61 C 3.27 312.24 12.82 300.19 32.88 291.80 C 55.71 282.24 66.82 282.15 86.52 291.40 C 93.37 294.62 101.24 299.29 104.02 301.80 C 106.80 304.31 113.81 313.30 119.59 321.77 C 132.81 341.10 140.86 349.94 149.62 354.73 C 155.56 357.98 158.18 358.56 168.84 359.00 C 185.28 359.68 194.65 357.59 227.45 345.94 C 297.79 320.95 311.73 321.89 407.02 357.95 C 475.18 383.76 494.90 387.21 551.20 383.18 C 582.63 380.94 619.12 380.48 621.99 382.29 C 623.38 383.18 622.94 383.86 620.06 385.35 C 614.44 388.25 607.60 389.79 590.56 392.01 C 550.94 397.15 517.61 397.16 463.69 392.06 C 427.67 388.66 355.27 383.47 334.04 382.76 C 310.38 381.98 305.16 382.57 262.11 390.90 C 216.20 399.80 193.24 401.88 173.24 399.00 M 194.49 384.98 C 199.59 379.88 195.88 370.82 188.70 370.82 C 184.56 370.82 180.32 375.05 180.32 379.18 C 180.32 383.32 184.56 387.55 188.70 387.55 C 190.47 387.55 193.08 386.39 194.49 384.98 M 158.43 381.12 C 163.53 376.02 159.82 366.95 152.63 366.95 C 148.50 366.95 144.26 371.19 144.26 375.32 C 144.26 379.45 148.50 383.69 152.63 383.69 C 154.41 383.69 157.01 382.53 158.43 381.12 M 417.32 378.54 C 418.74 377.12 419.90 374.52 419.90 372.75 C 419.90 370.97 418.74 368.37 417.32 366.95 C 415.91 365.54 413.30 364.38 411.53 364.38 C 409.75 364.38 407.15 365.54 405.73 366.95 C 404.31 368.37 403.15 370.97 403.15 372.75 C 403.15 374.52 404.31 377.12 405.73 378.54 C 407.15 379.96 409.75 381.12 411.53 381.12 C 413.30 381.12 415.91 379.96 417.32 378.54 M 229.27 375.97 C 234.37 370.87 230.66 361.80 223.47 361.80 C 219.34 361.80 215.10 366.04 215.10 370.17 C 215.10 374.30 219.34 378.54 223.47 378.54 C 225.25 378.54 227.85 377.38 229.27 375.97 M 382.55 370.82 C 383.96 369.40 385.12 366.80 385.12 365.02 C 385.12 363.24 383.96 360.64 382.55 359.23 C 381.13 357.81 378.53 356.65 376.75 356.65 C 374.97 356.65 372.37 357.81 370.95 359.23 C 369.54 360.64 368.38 363.24 368.38 365.02 C 368.38 366.80 369.54 369.40 370.95 370.82 C 372.37 372.23 374.97 373.39 376.75 373.39 C 378.53 373.39 381.13 372.23 382.55 370.82 M 266.62 364.38 C 271.72 359.28 268.01 350.21 260.83 350.21 C 256.69 350.21 252.45 354.45 252.45 358.58 C 252.45 362.72 256.69 366.95 260.83 366.95 C 262.60 366.95 265.21 365.79 266.62 364.38 M 342.62 363.09 C 344.03 361.67 345.19 359.07 345.19 357.30 C 345.19 355.52 344.03 352.92 342.62 351.50 C 341.20 350.09 338.60 348.93 336.82 348.93 C 335.04 348.93 332.44 350.09 331.02 351.50 C 329.61 352.92 328.45 355.52 328.45 357.30 C 328.45 359.07 329.61 361.67 331.02 363.09 C 332.44 364.51 335.04 365.67 336.82 365.67 C 338.60 365.67 341.20 364.51 342.62 363.09 M 306.55 359.23 C 311.65 354.13 307.94 345.06 300.76 345.06 C 296.62 345.06 292.38 349.30 292.38 353.43 C 292.38 357.57 296.62 361.80 300.76 361.80 C 302.53 361.80 305.13 360.64 306.55 359.23 M 128.80 357.94 C 133.90 352.84 130.19 343.78 123.01 343.78 C 118.87 343.78 114.63 348.01 114.63 352.15 C 114.63 356.28 118.87 360.52 123.01 360.52 C 124.78 360.52 127.39 359.36 128.80 357.94 M 109.48 333.48 C 110.90 332.06 112.06 329.46 112.06 327.68 C 112.06 325.91 110.90 323.30 109.48 321.89 C 108.07 320.47 105.46 319.31 103.69 319.31 C 101.91 319.31 99.31 320.47 97.89 321.89 C 92.79 326.99 96.50 336.05 103.69 336.05 C 105.46 336.05 108.07 334.89 109.48 333.48 M 49.65 312.30 C 56.60 305.34 51.69 293.56 41.86 293.56 C 35.58 293.56 30.91 298.22 30.91 304.51 C 30.91 310.79 35.58 315.45 41.86 315.45 C 45.06 315.45 47.46 314.47 49.65 312.30"
       id="path2235" />
    <path
       fill="#eb2e00"
       stroke="none"
       d=" M 42.51 310.45 C 42.51 309.84 43.37 308.60 44.44 307.73 C 46.90 305.68 46.88 303.98 44.35 301.20 C 41.75 298.33 44.14 296.68 46.91 299.43 C 49.51 302.05 49.52 306.97 46.92 309.57 C 44.69 311.78 42.51 312.23 42.51 310.45"
       id="path2237" />
    <path
       fill="#a75c1a"
       stroke="none"
       d=" M 185.54 381.84 C 182.06 377.64 187.81 372.61 191.67 376.45 C 193.31 378.10 193.48 379.11 192.41 380.82 C 190.53 383.81 187.54 384.24 185.54 381.84"
       id="path2239" />
    <path
       fill="#a75c1a"
       stroke="none"
       d=" M 149.48 377.97 C 146.00 373.78 151.74 368.74 155.61 372.59 C 157.24 374.24 157.41 375.24 156.34 376.96 C 154.46 379.94 151.47 380.38 149.48 377.97"
       id="path2241" />
    <path
       fill="#a75c1a"
       stroke="none"
       d=" M 408.37 375.40 C 404.89 371.20 410.64 366.17 414.50 370.02 C 416.14 371.67 416.30 372.67 415.24 374.38 C 413.36 377.37 410.37 377.81 408.37 375.40"
       id="path2243" />
    <path
       fill="#a75c1a"
       stroke="none"
       d=" M 220.32 372.82 C 216.84 368.63 222.58 363.59 226.45 367.44 C 228.08 369.09 228.25 370.09 227.18 371.81 C 225.30 374.79 222.31 375.23 220.32 372.82"
       id="path2245" />
    <path
       fill="#a75c1a"
       stroke="none"
       d=" M 373.59 367.67 C 370.12 363.48 375.86 358.44 379.72 362.29 C 381.36 363.94 381.53 364.94 380.46 366.66 C 378.58 369.64 375.59 370.08 373.59 367.67"
       id="path2247" />
    <path
       fill="#a75c1a"
       stroke="none"
       d=" M 257.67 361.24 C 254.19 357.04 259.94 352.00 263.80 355.85 C 265.44 357.50 265.61 358.51 264.54 360.22 C 262.66 363.21 259.67 363.64 257.67 361.24"
       id="path2249" />
    <path
       fill="#a75c1a"
       stroke="none"
       d=" M 333.66 359.95 C 330.19 355.75 335.93 350.72 339.80 354.57 C 341.43 356.21 341.60 357.22 340.53 358.93 C 338.65 361.92 335.66 362.36 333.66 359.95"
       id="path2251" />
    <path
       fill="#a75c1a"
       stroke="none"
       d=" M 297.60 356.09 C 294.12 351.89 299.87 346.85 303.73 350.70 C 305.37 352.35 305.53 353.36 304.47 355.07 C 302.58 358.06 299.60 358.49 297.60 356.09"
       id="path2253" />
    <path
       fill="#a75c1a"
       stroke="none"
       d=" M 119.85 354.80 C 116.37 350.60 122.12 345.57 125.98 349.42 C 127.62 351.06 127.79 352.07 126.72 353.78 C 124.84 356.77 121.85 357.21 119.85 354.80"
       id="path2255" />
    <path
       fill="#a75c1a"
       stroke="none"
       d=" M 100.76 330.68 C 98.42 328.34 98.83 326.02 101.91 324.39 C 105.63 322.39 109.53 325.91 107.40 329.32 C 105.61 332.14 102.80 332.72 100.76 330.68"
       id="path2257" />
  </g>
</svg>
