<?xml version="1.0" encoding="UTF-8" standalone="no"?>
<!DOCTYPE svg PUBLIC "-//W3C//DTD SVG 1.1//EN"
"http://www.w3.org/Graphics/SVG/1.1/DTD/svg11.dtd">
<svg width="600px" height="168px"
xmlns="http://www.w3.org/2000/svg" version="1.1">
<g transform="translate(0000, 0000) scale(1.0000, 1.0000)">
<path fill="#000000" stroke="none" d="
M 0.48 166.40
C 0.15 165.52 0.04 161.69 0.23 157.88
L 0.59 150.97
L 66.50 150.66
L 132.42 150.35
L 132.42 136.87
L 132.42 123.38
L 78.81 123.07
L 25.20 122.77
L 25.20 114.55
L 25.20 106.32
L 78.81 106.02
L 132.42 105.71
L 132.42 88.11
L 132.42 70.52
L 91.70 70.21
L 50.98 69.90
L 50.98 61.68
L 50.98 53.45
L 91.70 53.15
L 132.42 52.83
L 132.42 35.26
L 132.42 17.68
L 111.04 17.35
L 89.65 17.03
L 89.30 9.50
C 89.05 4.28 89.40 1.68 90.47 1.01
C 91.30 0.47 205.24 0.02 343.65 0.02
C 593.77 0.00 595.32 0.01 597.66 2.35
C 599.95 4.65 600.00 6.26 600.00 84.00
C 600.00 161.74 599.95 163.35 597.66 165.65
C 595.32 167.99 593.75 168.00 298.21 168.00
C 48.57 168.00 1.00 167.74 0.48 166.40
M 592.97 160.95
C 595.27 158.65 595.31 157.04 595.31 84.00
C 595.31 10.94 595.27 9.35 592.97 7.05
C 590.64 4.71 589.35 4.70 342.48 4.99
L 94.34 5.29
L 94.34 8.81
L 94.34 12.34
L 115.72 12.65
L 137.11 12.98
L 137.11 35.26
L 137.11 57.53
L 96.39 57.85
L 55.66 58.15
L 55.66 61.68
L 55.66 65.20
L 96.39 65.51
L 137.11 65.83
L 137.11 88.11
L 137.11 110.41
L 83.50 110.72
L 29.88 111.02
L 29.88 114.55
L 29.88 118.07
L 83.50 118.38
L 137.11 118.68
L 137.11 136.87
L 137.11 155.05
L 71.20 155.36
C 8.70 155.65 5.29 155.77 4.90 157.79
C 3.77 163.66 -15.93 163.30 298.21 163.30
C 589.07 163.30 590.64 163.29 592.97 160.95"/>
<path fill="#edbf8a" stroke="none" d="
M 5.13 161.61
C 4.78 160.68 4.68 158.95 4.90 157.79
C 5.29 155.77 8.70 155.65 71.20 155.36
L 137.11 155.05
L 137.11 136.87
L 137.11 118.68
L 83.50 118.38
L 29.88 118.07
L 29.88 114.55
L 29.88 111.02
L 83.50 110.72
L 137.11 110.41
L 137.11 88.11
L 137.11 65.83
L 96.39 65.51
L 55.66 65.20
L 55.66 61.68
L 55.66 58.15
L 96.39 57.85
L 137.11 57.53
L 137.11 35.26
L 137.11 12.98
L 115.72 12.65
L 94.34 12.34
L 93.94 9.53
C 93.73 7.99 94.25 6.27 95.11 5.73
C 95.98 5.18 207.82 4.72 343.65 4.72
C 589.08 4.70 590.64 4.71 592.97 7.05
C 595.27 9.35 595.31 10.96 595.31 84.00
C 595.31 157.04 595.27 158.65 592.97 160.95
C 590.64 163.29 589.07 163.30 298.21 163.30
C 44.62 163.30 5.70 163.08 5.13 161.61"/>
</g>
</svg>
