<?xml version="1.0" encoding="UTF-8" standalone="no"?>
<!DOCTYPE svg PUBLIC "-//W3C//DTD SVG 1.1//EN"
"http://www.w3.org/Graphics/SVG/1.1/DTD/svg11.dtd">
<svg width="425px" height="600px"
xmlns="http://www.w3.org/2000/svg" version="1.1">
<g transform="translate(0000, 0000) scale(1.0000, 1.0000)">
<path fill="#000000" stroke="none" d="
M 202.69 597.54
C 196.47 594.71 191.42 588.54 189.45 581.33
C 186.64 571.03 188.12 526.43 194.46 431.33
C 198.68 367.76 200.91 325.62 200.91 308.92
L 200.91 297.90
L 192.37 284.46
C 182.08 268.26 177.46 262.27 172.55 258.79
L 168.84 256.13
L 157.30 267.08
C 150.95 273.09 144.26 278.38 142.43 278.85
C 136.63 280.30 132.65 278.43 130.50 273.27
C 127.82 266.86 128.98 259.57 134.57 247.79
C 137.06 242.55 139.09 237.97 139.09 237.59
C 139.09 237.22 108.95 236.91 72.12 236.91
C -6.62 236.91 0.00 238.30 0.00 221.74
C 0.00 208.80 4.49 169.06 7.79 152.91
C 20.98 88.18 57.84 41.34 114.04 17.87
C 161.56 -1.98 230.74 -5.29 286.73 9.61
C 355.51 27.91 402.18 79.16 417.21 152.91
C 420.51 169.06 425.00 208.80 425.00 221.74
C 425.00 238.30 431.62 236.91 352.88 236.91
C 316.05 236.91 285.91 237.22 285.91 237.59
C 285.91 237.97 287.94 242.55 290.43 247.79
C 296.02 259.57 297.18 266.86 294.50 273.27
C 292.35 278.43 288.37 280.30 282.57 278.85
C 280.74 278.38 274.05 273.09 267.70 267.08
L 256.16 256.13
L 252.45 258.79
C 247.54 262.27 242.92 268.26 232.63 284.46
L 224.09 297.90
L 224.09 308.92
C 224.09 325.62 226.32 367.76 230.54 431.33
C 236.88 526.43 238.36 571.03 235.55 581.33
C 232.62 592.04 222.84 599.95 212.50 599.95
C 210.01 599.95 205.61 598.85 202.69 597.54
M 218.33 589.09
C 225.37 584.97 228.34 578.79 229.00 566.91
C 229.68 554.70 227.30 499.24 224.10 452.58
C 219.85 390.75 217.82 354.91 216.88 325.43
L 215.99 297.42
L 212.50 297.42
L 209.01 297.42
L 208.12 325.43
C 207.18 354.91 205.15 390.75 200.90 452.58
C 197.70 499.24 195.32 554.70 196.00 566.91
C 196.65 578.68 199.62 584.91 206.54 589.07
C 209.46 590.82 212.10 592.26 212.38 592.26
C 212.68 592.27 215.36 590.85 218.33 589.09
M 219.44 286.51
C 221.08 284.76 224.62 279.68 227.34 275.24
C 234.91 262.83 240.92 255.61 247.30 251.21
C 257.10 244.47 259.68 245.41 276.52 261.81
C 284.05 269.16 285.96 270.45 286.64 268.67
C 287.89 265.43 286.89 262.30 279.01 244.98
C 273.98 233.96 271.23 225.84 269.81 217.94
C 266.31 198.37 265.10 193.97 261.10 186.37
C 253.83 172.52 238.66 162.32 220.97 159.39
C 210.13 157.60 198.54 159.40 187.37 164.63
C 170.94 172.31 161.58 185.02 157.80 204.72
C 153.28 228.40 151.93 232.93 144.99 247.69
C 134.82 269.33 135.28 275.07 146.28 263.74
C 156.17 253.56 164.69 247.21 168.48 247.21
C 176.04 247.21 186.95 257.69 197.66 275.24
C 200.38 279.68 203.92 284.76 205.56 286.51
C 209.51 290.77 215.49 290.77 219.44 286.51
M 145.39 223.71
C 146.21 220.70 147.98 211.97 149.34 204.32
C 152.45 186.79 157.16 176.46 166.11 167.65
C 177.32 156.62 193.54 150.68 212.50 150.68
C 231.46 150.68 247.68 156.62 258.89 167.65
C 267.84 176.46 272.55 186.79 275.66 204.32
C 277.02 211.97 278.79 220.70 279.61 223.71
L 281.09 229.18
L 347.64 229.18
C 397.67 229.18 414.57 228.80 415.73 227.64
C 417.87 225.50 417.67 219.17 414.66 192.45
C 408.01 133.62 392.69 95.90 362.73 64.71
C 334.54 35.34 298.56 17.88 251.78 10.87
C 232.59 8.00 192.41 8.00 173.22 10.87
C 107.29 20.76 59.87 53.06 33.15 106.25
C 21.07 130.30 14.59 154.76 10.34 192.45
C 7.33 219.17 7.13 225.50 9.27 227.64
C 10.43 228.80 27.33 229.18 77.36 229.18
L 143.91 229.18
L 145.39 223.71"/>
<path fill="#f3a593" stroke="none" d="
M 9.27 227.64
C 7.13 225.50 7.33 219.17 10.34 192.45
C 16.99 133.62 32.31 95.90 62.27 64.71
C 90.47 35.34 126.53 17.85 173.22 10.88
C 192.46 8.02 232.69 8.01 251.78 10.87
C 317.69 20.76 365.13 53.06 391.85 106.25
C 403.93 130.30 410.41 154.76 414.66 192.45
C 417.67 219.17 417.87 225.50 415.73 227.64
C 414.57 228.80 397.67 229.18 347.64 229.18
L 281.09 229.18
L 279.61 223.71
C 278.79 220.70 277.02 211.97 275.66 204.32
C 272.55 186.79 267.84 176.46 258.89 167.65
C 247.68 156.62 231.46 150.68 212.50 150.68
C 193.54 150.68 177.32 156.62 166.11 167.65
C 157.16 176.46 152.45 186.79 149.34 204.32
C 147.98 211.97 146.21 220.70 145.39 223.71
L 143.91 229.18
L 77.36 229.18
C 27.33 229.18 10.43 228.80 9.27 227.64"/>
<path fill="#ea8c39" stroke="none" d="
M 205.56 286.51
C 203.92 284.76 200.38 279.68 197.66 275.24
C 186.95 257.69 176.04 247.21 168.48 247.21
C 164.69 247.21 156.17 253.56 146.28 263.74
C 135.28 275.07 134.82 269.33 144.99 247.69
C 151.93 232.93 153.28 228.40 157.80 204.72
C 160.33 191.51 165.71 180.88 173.49 173.70
C 185.51 162.64 205.70 156.67 221.66 159.48
C 238.98 162.53 253.94 172.73 261.10 186.37
C 265.10 193.97 266.31 198.37 269.81 217.94
C 271.23 225.84 273.98 233.96 279.01 244.98
C 286.89 262.30 287.89 265.43 286.64 268.67
C 285.96 270.45 284.05 269.16 276.52 261.81
C 259.68 245.41 257.10 244.47 247.30 251.21
C 240.92 255.61 234.91 262.83 227.34 275.24
C 224.62 279.68 221.08 284.76 219.44 286.51
C 215.49 290.77 209.51 290.77 205.56 286.51"/>
<path fill="#3f7fbf" stroke="none" d="
M 206.54 589.07
C 199.62 584.91 196.65 578.68 196.00 566.91
C 195.28 553.97 197.75 498.36 201.50 443.52
C 205.11 390.53 207.14 354.45 208.40 321.24
L 209.28 298.07
L 212.63 297.68
L 215.98 297.30
L 216.88 325.36
C 217.82 354.91 219.85 390.72 224.10 452.58
C 227.30 499.24 229.68 554.70 229.00 566.91
C 228.34 578.79 225.37 584.97 218.33 589.09
C 215.36 590.85 212.68 592.27 212.38 592.26
C 212.10 592.26 209.46 590.82 206.54 589.07"/>
</g>
</svg>
