<?xml version="1.0" encoding="UTF-8" standalone="no"?>
<!DOCTYPE svg PUBLIC "-//W3C//DTD SVG 1.1//EN"
"http://www.w3.org/Graphics/SVG/1.1/DTD/svg11.dtd">
<svg width="413px" height="600px"
xmlns="http://www.w3.org/2000/svg" version="1.1">
<g transform="translate(0000, 0000) scale(1.0000, 1.0000)">
<path fill="#000000" stroke="none" d="
M 198.01 597.44
C 192.53 594.55 185.63 587.02 183.25 581.36
C 180.20 574.05 179.73 559.03 181.84 535.68
C 182.94 523.36 184.19 501.71 184.59 487.58
C 185.00 473.45 186.47 437.88 187.87 408.57
C 190.19 360.06 191.79 320.03 193.88 258.57
L 194.62 236.40
L 99.89 236.40
L 5.15 236.40
L 2.39 233.65
C -0.31 230.96 -0.35 230.33 0.41 202.50
C 1.47 164.39 4.00 146.33 11.79 121.67
C 30.74 61.54 83.55 19.17 156.12 5.86
C 198.01 -1.82 218.07 -1.70 260.79 6.53
C 330.28 19.93 382.67 62.88 401.21 121.67
C 409.00 146.33 411.53 164.39 412.59 202.50
C 413.35 230.33 413.31 230.96 410.61 233.65
L 407.85 236.40
L 313.11 236.40
L 218.38 236.40
L 219.12 258.57
C 221.21 320.03 222.81 360.06 225.13 408.57
C 226.53 437.88 228.00 473.45 228.41 487.58
C 228.81 501.71 230.06 523.36 231.16 535.68
C 233.27 559.03 232.80 574.05 229.75 581.36
C 225.81 590.78 214.05 600.06 206.23 599.95
C 204.26 599.91 200.56 598.79 198.01 597.44
M 214.41 588.84
C 216.14 587.70 218.95 584.39 220.67 581.45
C 225.16 573.82 225.85 562.36 223.44 535.72
C 222.34 523.37 221.08 501.42 220.67 486.94
C 220.25 472.46 218.79 437.18 217.40 408.57
C 215.13 361.62 213.63 324.09 211.40 258.57
L 210.66 236.40
L 206.50 236.40
L 202.34 236.40
L 201.60 258.57
C 199.37 323.82 197.87 361.66 195.58 409.21
C 194.19 438.18 192.72 473.15 192.32 486.94
C 191.94 500.72 190.67 522.71 189.54 535.80
C 187.07 564.44 187.77 574.23 192.89 582.30
C 198.81 591.61 206.56 593.97 214.41 588.84
M 141.95 216.17
C 143.39 194.12 148.02 182.44 160.21 170.08
C 172.88 157.25 187.97 151.04 206.50 151.04
C 225.03 151.04 240.12 157.25 252.79 170.08
C 264.98 182.44 269.61 194.12 271.05 216.17
L 271.86 228.69
L 337.03 228.69
C 385.99 228.69 402.58 228.31 403.74 227.15
C 407.04 223.85 405.18 178.87 400.61 151.61
C 389.13 83.10 344.45 35.94 273.40 17.33
C 256.09 12.80 220.74 7.72 206.50 7.72
C 192.26 7.72 156.91 12.80 139.60 17.33
C 68.55 35.94 23.87 83.10 12.39 151.61
C 7.82 178.87 5.96 223.85 9.26 227.15
C 10.42 228.31 27.01 228.69 75.97 228.69
L 141.14 228.69
L 141.95 216.17
M 263.36 216.17
C 262.35 200.27 259.91 192.22 253.04 182.20
C 231.56 150.85 181.44 150.85 159.96 182.20
C 153.09 192.22 150.65 200.27 149.64 216.17
L 148.86 228.69
L 206.50 228.69
L 264.14 228.69
L 263.36 216.17"/>
<path fill="#f3a593" stroke="none" d="
M 9.26 227.15
C 5.96 223.85 7.82 178.87 12.39 151.61
C 23.12 87.52 62.97 42.03 126.52 21.24
C 149.00 13.89 186.04 7.71 207.53 7.71
C 220.90 7.72 256.61 12.94 273.40 17.33
C 344.45 35.94 389.13 83.10 400.61 151.61
C 405.18 178.87 407.04 223.85 403.74 227.15
C 402.58 228.31 385.99 228.69 337.03 228.69
L 271.86 228.69
L 271.05 216.17
C 269.61 194.12 264.98 182.44 252.79 170.08
C 240.12 157.25 225.03 151.04 206.50 151.04
C 187.97 151.04 172.88 157.25 160.21 170.08
C 148.02 182.44 143.39 194.12 141.95 216.17
L 141.14 228.69
L 75.97 228.69
C 27.01 228.69 10.42 228.31 9.26 227.15"/>
<path fill="#c57a36" stroke="none" d="
M 149.64 216.17
C 150.65 200.27 153.09 192.22 159.96 182.20
C 181.42 150.87 231.58 150.87 253.04 182.20
C 259.91 192.22 262.35 200.27 263.36 216.17
L 264.14 228.69
L 206.50 228.69
L 148.86 228.69
L 149.64 216.17"/>
<path fill="#c55436" stroke="none" d="
M 200.84 590.12
C 198.45 588.91 194.87 585.39 192.89 582.30
C 187.77 574.23 187.07 564.44 189.54 535.80
C 190.67 522.71 191.94 500.72 192.32 486.94
C 192.72 473.15 194.19 438.18 195.58 409.21
C 196.97 380.24 198.77 338.61 199.57 316.70
C 200.36 294.80 201.38 267.92 201.83 256.96
L 202.64 237.04
L 206.64 236.66
L 210.64 236.26
L 211.40 258.50
C 213.63 323.95 215.13 361.59 217.40 408.57
C 218.79 437.18 220.25 472.46 220.67 486.94
C 221.08 501.42 222.34 523.37 223.44 535.72
C 225.85 562.36 225.16 573.82 220.67 581.45
C 215.34 590.54 208.07 593.72 200.84 590.12"/>
</g>
</svg>
