<?xml version="1.0" encoding="UTF-8" standalone="no"?>
<!DOCTYPE svg PUBLIC "-//W3C//DTD SVG 1.1//EN"
"http://www.w3.org/Graphics/SVG/1.1/DTD/svg11.dtd">
<svg width="170px" height="600px"
xmlns="http://www.w3.org/2000/svg" version="1.1">
<g transform="translate(0000, 0000) scale(1.0000, 1.0000)">
<path fill="#000000" stroke="none" d="
M 71.48 598.53
C 65.41 595.22 65.68 605.76 65.68 375.97
L 65.68 158.86
L 68.93 155.63
C 70.70 153.86 75.48 150.95 79.55 149.15
C 89.47 144.79 101.74 135.55 112.77 124.15
C 139.13 96.87 143.83 67.36 125.04 47.06
C 114.07 35.22 96.96 31.27 81.59 37.03
C 55.97 46.63 42.51 71.95 48.18 99.83
C 50.23 109.86 50.21 110.56 47.91 115.74
C 45.23 121.78 39.19 127.53 27.88 134.81
C 16.60 142.06 8.26 142.83 2.54 137.14
C -3.03 131.60 0.04 124.17 13.70 110.18
L 23.16 100.47
L 20.99 90.54
C 19.11 81.88 19.03 79.15 20.44 69.54
C 23.45 48.78 31.67 32.51 45.77 19.37
C 56.02 9.82 66.79 4.63 82.12 1.85
C 93.23 -0.18 94.79 -0.18 105.64 1.79
C 119.30 4.28 128.14 7.95 137.52 15.01
C 154.78 28.03 164.96 47.03 168.78 73.31
C 170.18 83.04 170.10 85.85 168.16 95.63
C 162.74 122.78 147.73 141.94 114.92 163.54
C 106.19 169.28 99.40 174.74 97.87 177.26
C 95.35 181.35 95.32 184.44 95.30 386.76
C 95.30 499.69 94.94 593.03 94.50 594.18
C 92.57 599.19 77.81 601.97 71.48 598.53
M 85.55 590.29
C 87.37 588.47 87.58 567.77 87.58 381.49
L 87.58 174.71
L 90.45 171.00
C 94.35 165.97 95.37 165.17 110.11 155.51
C 127.89 143.88 147.29 124.40 153.57 111.87
C 162.41 94.23 163.21 76.35 156.05 56.79
C 138.32 8.41 85.03 -6.47 50.95 27.44
C 38.89 39.44 31.63 53.68 28.33 71.79
C 27.16 78.23 27.35 80.94 29.67 90.29
C 31.24 96.65 31.99 102.45 31.46 104.12
C 30.96 105.71 25.67 112.05 19.69 118.22
C 9.26 129.03 7.75 132.05 12.81 132.05
C 16.28 132.05 29.75 122.69 36.01 115.92
C 40.16 111.45 41.26 109.38 40.65 107.27
C 40.19 105.74 39.51 99.29 39.11 92.95
C 36.90 57.94 55.11 32.38 86.20 26.85
C 109.02 22.79 130.62 32.74 139.39 51.36
C 146.60 66.68 146.74 81.81 139.85 100.71
C 132.28 121.46 107.23 147.19 85.63 156.41
C 82.42 157.78 78.37 160.33 76.60 162.09
L 73.41 165.27
L 73.41 376.77
C 73.41 567.35 73.62 588.47 75.43 590.29
C 76.55 591.40 78.82 592.31 80.49 592.31
C 82.17 592.31 84.43 591.40 85.55 590.29"/>
<path fill="#c57a36" stroke="none" d="
M 75.43 590.29
C 73.62 588.47 73.41 567.35 73.41 376.77
L 73.41 165.27
L 76.60 162.09
C 78.37 160.33 82.42 157.78 85.63 156.41
C 107.23 147.19 132.28 121.46 139.85 100.71
C 146.74 81.81 146.60 66.68 139.39 51.36
C 130.62 32.74 109.02 22.79 86.20 26.85
C 55.11 32.38 36.90 57.94 39.11 92.95
C 39.51 99.29 40.19 105.74 40.65 107.27
C 41.26 109.38 40.16 111.45 36.01 115.92
C 29.75 122.69 16.28 132.05 12.81 132.05
C 7.75 132.05 9.26 129.03 19.69 118.22
C 25.67 112.05 30.96 105.71 31.46 104.12
C 31.99 102.45 31.24 96.65 29.67 90.29
C 27.35 80.94 27.16 78.23 28.33 71.79
C 37.22 23.03 80.93 -3.87 120.08 15.32
C 142.67 26.38 158.72 51.03 160.59 77.50
C 161.50 90.49 159.58 99.88 153.57 111.87
C 147.29 124.40 127.89 143.88 110.11 155.51
C 95.37 165.17 94.35 165.97 90.45 171.00
L 87.58 174.71
L 87.58 381.49
C 87.58 567.77 87.37 588.47 85.55 590.29
C 84.43 591.40 82.17 592.31 80.49 592.31
C 78.82 592.31 76.55 591.40 75.43 590.29"/>
</g>
</svg>
