<?xml version="1.0" encoding="UTF-8" standalone="no"?>
<!DOCTYPE svg PUBLIC "-//W3C//DTD SVG 1.1//EN"
"http://www.w3.org/Graphics/SVG/1.1/DTD/svg11.dtd">
<svg width="153px" height="600px"
xmlns="http://www.w3.org/2000/svg" version="1.1">
<g transform="translate(0000, 0000) scale(1.0000, 1.0000)">
<path fill="#000000" stroke="none" d="
M 119.57 597.43
C 117.01 594.87 117.00 593.15 117.00 329.81
L 117.00 64.74
L 113.31 59.04
C 100.31 38.94 77.13 30.15 58.71 38.34
C 48.18 43.00 41.17 51.01 36.50 63.69
C 34.51 69.06 34.06 75.61 33.47 106.93
L 32.79 143.86
L 28.58 148.05
C 24.84 151.79 23.59 152.25 17.23 152.25
C 10.80 152.25 9.69 151.82 6.40 148.14
C 4.38 145.89 2.12 141.84 1.38 139.14
C 0.57 136.24 0.01 119.42 0.01 97.64
C 0.01 65.38 0.32 59.74 2.61 50.24
C 10.62 16.84 30.82 2.34 72.00 0.42
C 89.69 -0.40 100.80 1.59 113.90 7.91
C 124.95 13.25 139.09 26.94 144.86 37.90
C 153.59 54.46 153.00 33.35 153.00 328.12
C 153.00 593.15 152.99 594.87 150.43 597.43
C 148.20 599.65 146.15 600.00 135.00 600.00
C 123.85 600.00 121.80 599.65 119.57 597.43
M 143.74 590.75
C 144.94 589.55 145.29 529.22 145.29 326.99
C 145.29 38.11 145.84 58.10 137.34 42.15
C 131.91 31.99 117.87 18.93 106.55 13.49
C 93.45 7.22 80.41 5.68 62.70 8.33
C 55.11 9.46 46.45 11.24 43.46 12.30
C 25.30 18.69 14.57 31.54 8.91 53.65
C 6.78 62.02 6.43 67.93 6.44 96.24
C 6.44 130.23 7.14 136.28 11.61 141.07
C 14.85 144.54 18.06 144.66 22.04 141.44
C 25.07 138.99 25.07 138.93 25.80 101.94
C 26.43 70.28 26.88 63.94 28.92 58.46
C 36.23 38.71 48.81 28.84 68.57 27.35
C 90.69 25.70 111.75 37.39 121.63 56.81
L 124.71 62.87
L 124.71 326.04
C 124.71 529.01 125.06 589.55 126.26 590.75
C 128.26 592.75 141.74 592.75 143.74 590.75"/>
<path fill="#c57a36" stroke="none" d="
M 126.26 590.75
C 125.06 589.55 124.71 529.01 124.71 326.04
L 124.71 62.87
L 121.63 56.81
C 104.31 22.73 53.18 16.39 34.97 46.06
C 27.04 58.97 26.61 61.61 25.80 101.94
C 25.07 138.93 25.07 138.99 22.04 141.44
C 18.06 144.66 14.85 144.54 11.61 141.07
C 7.14 136.28 6.44 130.23 6.44 96.24
C 6.43 60.21 7.70 51.24 14.79 37.27
C 24.02 19.05 37.88 11.23 67.06 7.77
C 82.16 5.99 96.07 8.11 107.73 13.99
C 118.25 19.30 132.25 32.62 137.34 42.15
C 145.84 58.10 145.29 38.11 145.29 326.99
C 145.29 529.22 144.94 589.55 143.74 590.75
C 141.74 592.75 128.26 592.75 126.26 590.75"/>
</g>
</svg>
