<?xml version="1.0" encoding="UTF-8" standalone="no"?>
<!DOCTYPE svg PUBLIC "-//W3C//DTD SVG 1.1//EN"
"http://www.w3.org/Graphics/SVG/1.1/DTD/svg11.dtd">
<svg width="093px" height="600px"
xmlns="http://www.w3.org/2000/svg" version="1.1">
<g transform="translate(0000, 0000) scale(1.0000, 1.0000)">
<path fill="#000000" stroke="none" d="
M 33.26 597.98
C 28.91 595.62 28.86 594.32 32.90 587.77
C 35.44 583.65 36.09 580.87 36.13 573.89
C 36.18 563.24 38.13 558.41 45.05 551.78
L 50.38 546.68
L 50.38 350.64
L 50.38 154.60
L 46.37 150.05
C 44.16 147.55 41.76 145.87 41.02 146.33
C 39.12 147.50 29.27 169.06 26.10 178.97
C 24.63 183.57 22.49 191.69 21.34 197.00
C 17.11 216.37 11.33 224.15 4.00 220.25
C -0.25 217.97 -0.58 213.12 2.40 197.09
C 3.94 188.85 6.92 167.85 9.04 150.40
C 11.16 132.95 13.47 117.17 14.17 115.33
C 14.88 113.48 21.51 101.10 28.89 87.81
C 51.55 47.05 55.44 38.59 58.27 23.95
C 62.59 1.49 64.74 -1.98 72.00 1.76
C 76.91 4.29 79.48 7.38 82.94 14.86
C 85.57 20.55 85.90 23.21 85.90 39.27
C 85.90 54.59 85.44 58.75 82.86 66.95
C 78.84 79.76 71.70 94.43 62.03 109.75
L 54.12 122.30
L 61.06 129.06
C 73.37 141.06 72.33 121.02 72.33 347.61
L 72.33 546.68
L 77.66 551.78
C 84.58 558.41 86.53 563.24 86.58 573.89
C 86.62 580.87 87.27 583.65 89.81 587.77
C 93.89 594.39 93.81 595.65 89.19 598.03
C 84.44 600.49 78.44 600.55 73.88 598.20
C 67.17 594.73 66.02 592.33 65.60 580.79
C 65.32 572.42 64.75 569.72 63.07 568.66
C 61.52 567.68 60.36 567.79 58.87 569.01
C 57.31 570.30 56.83 573.19 56.83 581.27
C 56.83 590.58 56.48 592.13 53.93 594.46
C 47.47 600.32 39.96 601.60 33.26 597.98
M 47.39 589.48
C 49.99 587.03 50.38 585.44 50.38 577.15
C 50.38 568.33 50.66 567.33 54.15 563.85
C 56.43 561.58 59.29 560.09 61.35 560.09
C 63.42 560.09 66.28 561.58 68.56 563.85
C 72.04 567.32 72.33 568.35 72.33 576.97
C 72.33 584.79 72.79 586.80 75.14 589.30
C 79.67 594.10 85.50 592.97 81.97 587.96
C 80.77 586.24 80.08 582.10 80.08 576.48
C 80.08 566.33 78.57 562.80 71.14 555.64
L 65.88 550.55
L 65.86 350.92
C 65.86 209.16 65.45 149.79 64.43 146.14
C 62.97 140.87 54.39 131.33 51.11 131.33
C 50.16 131.33 48.40 132.82 47.21 134.64
C 45.05 137.91 45.09 138.03 50.93 144.24
L 56.83 150.53
L 56.83 350.54
L 56.83 550.55
L 51.56 555.64
C 44.14 562.80 42.62 566.33 42.62 576.48
C 42.62 582.10 41.94 586.24 40.74 587.96
C 37.29 592.85 42.51 594.04 47.39 589.48
M 16.66 188.96
C 20.56 173.96 29.17 152.07 36.02 139.70
C 37.99 136.16 44.56 125.15 50.63 115.24
C 72.84 78.98 80.08 60.42 80.08 39.84
C 80.08 24.28 78.09 15.85 73.33 11.09
C 68.41 6.18 68.05 6.80 64.82 25.83
L 62.31 40.56
L 43.93 73.97
C 33.82 92.36 24.76 108.59 23.79 110.06
C 21.11 114.14 18.61 127.75 12.90 169.56
C 10.02 190.67 7.39 208.71 7.07 209.67
C 6.73 210.62 6.86 212.05 7.35 212.85
C 8.71 215.03 12.21 206.05 16.66 188.96"/>
<path fill="#000000" stroke="none" d="
M 23.84 144.13
C 22.66 142.21 27.20 126.18 28.93 126.21
C 32.37 126.24 33.95 128.56 33.17 132.42
C 31.14 142.56 26.49 148.39 23.84 144.13"/>
<path fill="#c57a36" stroke="none" d="
M 39.65 591.46
C 39.20 591.01 39.69 589.44 40.74 587.96
C 41.94 586.24 42.62 582.10 42.62 576.48
C 42.62 566.33 44.14 562.80 51.56 555.64
L 56.83 550.55
L 56.83 350.54
L 56.83 150.53
L 50.93 144.24
C 45.09 138.03 45.05 137.91 47.21 134.64
C 48.40 132.82 50.16 131.33 51.11 131.33
C 54.39 131.33 62.97 140.87 64.43 146.14
C 65.45 149.79 65.86 209.16 65.86 350.92
L 65.88 550.55
L 71.14 555.64
C 78.57 562.80 80.08 566.33 80.08 576.48
C 80.08 582.10 80.77 586.24 81.97 587.96
C 85.50 592.97 79.67 594.10 75.14 589.30
C 72.79 586.80 72.33 584.79 72.33 576.97
C 72.33 568.35 72.04 567.32 68.56 563.85
C 66.28 561.58 63.42 560.09 61.35 560.09
C 59.29 560.09 56.43 561.58 54.15 563.85
C 50.66 567.33 50.38 568.33 50.38 577.15
C 50.38 585.44 49.99 587.03 47.39 589.48
C 44.43 592.24 41.26 593.05 39.65 591.46"/>
<path fill="#c57a36" stroke="none" d="
M 7.35 212.85
C 6.86 212.05 6.73 210.62 7.07 209.67
C 7.39 208.71 10.02 190.67 12.90 169.56
C 18.61 127.75 21.11 114.14 23.79 110.06
C 24.76 108.59 33.82 92.36 43.93 73.97
L 62.31 40.56
L 64.82 25.75
C 67.52 9.82 68.51 7.64 72.05 9.77
C 76.89 12.71 79.27 20.58 79.85 35.59
C 80.33 48.24 79.99 51.37 77.04 61.66
C 72.98 75.73 65.41 91.11 50.63 115.24
C 44.56 125.15 37.99 136.16 36.02 139.70
C 29.17 152.07 20.56 173.96 16.66 188.96
C 12.21 206.05 8.71 215.03 7.35 212.85
M 30.47 140.92
C 34.66 130.93 34.16 126.27 28.93 126.21
C 27.20 126.18 22.66 142.21 23.84 144.13
C 25.55 146.86 28.60 145.38 30.47 140.92"/>
</g>
</svg>
