<?xml version="1.0" encoding="UTF-8" standalone="no"?>
<!DOCTYPE svg PUBLIC "-//W3C//DTD SVG 1.1//EN"
"http://www.w3.org/Graphics/SVG/1.1/DTD/svg11.dtd">
<svg width="093px" height="600px"
xmlns="http://www.w3.org/2000/svg" version="1.1">
<g transform="translate(0000, 0000) scale(1.0000, 1.0000)">
<path fill="#000000" stroke="none" d="
M 36.51 597.24
C 33.96 594.73 33.78 593.57 34.55 584.46
C 35.76 570.09 38.38 562.50 43.96 557.20
C 50.39 551.08 52.39 546.84 52.39 539.37
C 52.39 534.43 53.80 530.20 58.73 520.19
C 62.22 513.12 65.48 505.71 65.98 503.73
C 67.18 498.92 64.05 492.16 53.53 476.84
C 48.91 470.10 44.04 461.37 42.73 457.45
C 40.37 450.41 40.38 450.22 43.13 443.02
C 44.67 438.98 49.94 429.56 54.86 422.06
C 59.77 414.56 64.51 405.84 65.40 402.70
C 67.51 395.26 65.93 391.53 54.71 377.56
C 46.83 367.74 41.92 358.87 41.92 354.45
C 41.92 349.88 47.97 337.37 55.71 325.90
C 60.33 319.06 64.77 311.07 65.57 308.15
C 67.48 301.13 65.13 295.06 55.18 281.44
C 51.02 275.74 45.96 267.42 43.93 262.95
L 40.24 254.81
L 43.07 246.16
C 44.90 240.52 48.67 233.70 53.89 226.63
C 73.61 199.85 75.84 180.57 61.56 160.06
C 56.76 153.12 42.13 141.82 40.30 143.62
C 38.34 145.57 25.63 182.35 18.38 207.07
C 15.36 217.37 12.40 220.10 5.95 218.49
C -0.46 216.89 -0.63 214.03 3.73 182.54
C 5.95 166.60 8.40 147.15 9.18 139.31
C 11.95 111.80 15.27 102.86 33.07 74.98
C 51.33 46.42 54.87 38.09 59.01 14.02
C 60.76 3.80 62.15 1.59 67.55 0.54
C 77.69 -1.41 87.77 16.29 87.76 36.03
C 87.75 46.67 83.82 65.05 79.00 77.03
C 74.14 89.08 70.47 95.57 59.95 110.71
C 56.51 115.65 53.70 120.10 53.70 120.62
C 53.70 121.14 56.80 123.29 60.58 125.40
C 79.77 136.13 91.30 155.61 92.67 179.64
C 93.69 197.62 91.04 207.29 79.86 226.20
C 74.83 234.70 70.09 243.56 69.32 245.88
C 67.42 251.57 68.85 255.45 79.25 272.75
C 87.32 286.15 93.00 298.50 93.00 302.59
C 93.00 307.10 86.96 319.61 78.64 332.32
C 73.67 339.93 69.23 347.86 68.75 349.96
C 67.46 355.79 70.06 361.62 79.76 374.51
C 87.90 385.33 93.00 396.01 93.00 402.22
C 93.00 405.49 88.47 413.75 78.54 428.53
C 65.17 448.47 65.28 452.80 79.89 474.27
C 89.84 488.93 93.46 496.95 92.42 502.16
C 92.00 504.30 88.17 513.33 83.91 522.25
C 72.88 545.35 72.84 541.53 84.24 557.11
C 87.07 560.98 88.34 564.88 89.78 574.26
C 90.80 580.94 91.65 588.29 91.66 590.60
C 91.72 598.92 82.60 602.85 75.71 597.47
C 73.50 595.76 71.52 591.76 69.49 584.84
C 67.85 579.28 65.65 573.85 64.62 572.79
C 62.93 571.06 62.51 571.11 60.87 573.29
C 59.86 574.65 57.49 580.33 55.60 585.94
C 53.53 592.08 51.07 596.89 49.38 598.06
C 45.39 600.82 39.77 600.47 36.51 597.24
M 47.88 585.95
C 49.05 582.63 50.90 577.44 51.96 574.42
C 54.11 568.37 59.07 563.71 63.41 563.71
C 68.66 563.71 71.69 567.27 74.66 576.98
C 76.26 582.16 78.43 588.06 79.50 590.11
C 81.21 593.39 81.68 593.61 83.37 591.94
C 85.02 590.31 85.06 588.41 83.70 578.71
C 82.22 568.33 81.56 566.68 75.79 558.93
C 69.24 550.16 67.21 544.21 68.69 538.13
C 69.17 536.16 73.13 527.07 77.49 517.92
L 85.40 501.28
L 83.18 495.51
C 81.96 492.34 77.44 484.44 73.14 477.97
C 64.69 465.25 60.24 455.52 60.28 449.95
C 60.33 444.26 65.72 432.95 73.78 421.57
C 77.92 415.74 82.22 408.34 83.32 405.12
C 85.21 399.64 85.17 398.93 82.64 393.28
C 81.16 389.96 76.99 383.59 73.39 379.10
C 66.86 370.98 60.29 358.90 60.27 354.96
C 60.24 350.11 65.77 337.71 72.08 328.46
C 81.72 314.32 85.57 305.55 84.42 300.31
C 83.31 295.19 79.60 287.88 70.84 273.55
C 67.18 267.56 63.23 259.66 62.06 255.99
C 59.99 249.47 60.02 249.15 63.19 241.36
C 64.98 236.97 70.04 227.38 74.43 220.04
C 83.05 205.61 86.46 195.34 86.42 184.07
C 86.32 163.32 74.65 142.77 56.98 132.26
L 49.50 127.81
L 47.05 130.96
C 43.76 135.20 43.87 135.65 48.71 138.14
C 54.67 141.19 66.19 152.29 69.91 158.58
C 79.51 174.84 79.72 197.60 70.40 215.77
C 68.95 218.62 64.31 225.65 60.11 231.40
C 50.73 244.19 48.14 250.74 49.91 257.12
C 50.61 259.63 55.52 268.10 60.83 275.91
C 66.12 283.72 71.45 293.07 72.67 296.68
C 74.79 303.01 74.78 303.54 72.12 311.34
C 70.61 315.80 65.57 325.18 60.91 332.20
C 56.25 339.23 51.82 347.22 51.06 349.97
C 49.26 356.60 51.05 360.58 61.94 374.15
C 66.63 380.00 71.51 387.46 72.76 390.71
C 74.95 396.39 74.95 396.96 72.59 404.68
C 71.20 409.19 66.71 417.85 62.36 424.39
C 58.09 430.82 53.14 439.19 51.37 443.02
C 47.15 452.07 48.02 454.92 60.74 473.90
C 66.08 481.87 71.49 491.07 72.75 494.35
C 75.58 501.68 74.66 505.36 65.35 524.09
C 60.00 534.82 58.94 538.16 58.94 544.17
C 58.93 551.95 55.92 558.56 51.27 561.02
C 49.85 561.77 47.53 564.29 46.11 566.62
C 43.34 571.11 39.86 588.44 41.09 591.59
C 42.37 594.91 45.65 592.19 47.88 585.95
M 14.21 195.68
C 25.52 156.00 37.33 129.37 54.62 104.55
C 72.33 79.13 80.07 58.73 80.28 36.93
C 80.37 27.47 79.84 24.01 77.43 18.60
C 74.33 11.68 68.91 5.44 67.68 7.41
C 67.29 8.03 66.06 13.80 64.93 20.23
C 60.99 42.73 56.08 54.12 39.35 79.70
C 21.63 106.78 18.38 115.87 15.05 147.73
C 13.90 158.79 11.58 177.15 9.90 188.55
C 8.23 199.96 7.15 209.78 7.51 210.38
C 8.80 212.54 10.40 209.03 14.21 195.68"/>
<path fill="#000000" stroke="none" d="
M 23.94 136.46
C 23.47 135.24 24.56 130.13 26.35 125.12
C 29.39 116.60 29.88 115.98 33.47 115.98
C 37.12 115.98 37.33 116.27 37.23 121.17
C 37.17 124.02 35.88 129.12 34.36 132.51
C 32.08 137.56 30.98 138.66 28.19 138.66
C 26.21 138.66 24.46 137.74 23.94 136.46"/>
<path fill="#c57a36" stroke="none" d="
M 41.09 591.59
C 39.86 588.44 43.34 571.11 46.11 566.62
C 47.53 564.29 49.85 561.77 51.27 561.02
C 55.92 558.56 58.93 551.95 58.94 544.17
C 58.94 538.16 60.00 534.82 65.35 524.09
C 74.66 505.36 75.58 501.68 72.75 494.35
C 71.49 491.07 66.08 481.87 60.74 473.90
C 48.02 454.92 47.15 452.07 51.37 443.02
C 53.14 439.19 58.09 430.82 62.36 424.39
C 66.71 417.85 71.20 409.19 72.59 404.68
C 74.95 396.96 74.95 396.39 72.76 390.71
C 71.51 387.46 66.63 380.00 61.94 374.15
C 51.05 360.58 49.26 356.60 51.06 349.97
C 51.82 347.22 56.25 339.23 60.91 332.20
C 65.57 325.18 70.61 315.80 72.12 311.34
C 74.78 303.54 74.79 303.01 72.67 296.68
C 71.45 293.07 66.12 283.72 60.83 275.91
C 55.52 268.10 50.61 259.63 49.91 257.12
C 48.14 250.74 50.73 244.19 60.11 231.40
C 64.31 225.65 68.95 218.62 70.40 215.77
C 79.72 197.60 79.51 174.84 69.91 158.58
C 66.19 152.29 54.67 141.19 48.71 138.14
C 43.87 135.65 43.76 135.20 47.05 130.96
L 49.50 127.81
L 56.98 132.26
C 74.65 142.77 86.32 163.32 86.42 184.07
C 86.46 195.34 83.05 205.61 74.43 220.04
C 70.04 227.38 64.98 236.97 63.19 241.36
C 60.02 249.15 59.99 249.47 62.06 255.99
C 63.23 259.66 67.18 267.56 70.84 273.55
C 79.60 287.88 83.31 295.19 84.42 300.31
C 85.57 305.55 81.72 314.32 72.08 328.46
C 65.77 337.71 60.24 350.11 60.27 354.96
C 60.29 358.90 66.86 370.98 73.39 379.10
C 76.99 383.59 81.16 389.96 82.64 393.28
C 85.17 398.93 85.21 399.64 83.32 405.12
C 82.22 408.34 77.92 415.74 73.78 421.57
C 65.72 432.95 60.33 444.26 60.28 449.95
C 60.24 455.52 64.69 465.25 73.14 477.97
C 77.44 484.44 81.96 492.34 83.18 495.51
L 85.40 501.28
L 77.49 517.92
C 73.13 527.07 69.17 536.16 68.69 538.13
C 67.21 544.21 69.24 550.16 75.79 558.93
C 81.56 566.68 82.22 568.33 83.70 578.71
C 85.06 588.41 85.02 590.31 83.37 591.94
C 81.68 593.61 81.21 593.39 79.50 590.11
C 78.43 588.06 76.26 582.16 74.66 576.98
C 71.69 567.27 68.66 563.71 63.41 563.71
C 59.07 563.71 54.11 568.37 51.96 574.42
C 50.90 577.44 49.05 582.63 47.88 585.95
C 45.65 592.19 42.37 594.91 41.09 591.59"/>
<path fill="#c57a36" stroke="none" d="
M 7.51 210.38
C 7.15 209.78 8.23 199.96 9.90 188.55
C 11.58 177.15 13.90 158.79 15.05 147.73
C 18.38 115.87 21.63 106.78 39.35 79.70
C 56.13 54.04 61.69 40.74 65.52 17.17
C 67.59 4.38 71.14 4.87 77.49 18.84
C 79.86 24.06 80.40 27.46 80.29 36.93
C 80.06 58.76 72.32 79.14 54.62 104.55
C 37.33 129.37 25.52 156.00 14.21 195.68
C 10.40 209.03 8.80 212.54 7.51 210.38
M 34.36 132.51
C 35.88 129.12 37.17 124.02 37.23 121.17
C 37.33 116.27 37.12 115.98 33.47 115.98
C 29.88 115.98 29.39 116.60 26.35 125.12
C 22.70 135.34 23.16 138.66 28.19 138.66
C 30.98 138.66 32.08 137.56 34.36 132.51"/>
</g>
</svg>
