<?xml version="1.0" encoding="UTF-8" standalone="no"?>
<!DOCTYPE svg PUBLIC "-//W3C//DTD SVG 1.1//EN"
"http://www.w3.org/Graphics/SVG/1.1/DTD/svg11.dtd">
<svg width="189px" height="600px"
xmlns="http://www.w3.org/2000/svg" version="1.1">
<g transform="translate(0000, 0000) scale(1.0000, 1.0000)">
<path fill="#000000" stroke="none" d="
M 81.55 597.42
C 79.00 594.88 78.97 593.12 78.97 465.30
L 78.97 335.77
L 75.69 334.94
C 70.55 333.65 62.27 325.34 58.32 317.50
C 56.34 313.55 52.27 303.35 49.28 294.84
C 46.31 286.32 43.02 278.05 41.98 276.48
C 39.15 272.13 34.95 271.75 23.85 274.86
C 15.37 277.24 12.98 277.46 8.87 276.22
C 0.93 273.86 -1.92 267.55 1.53 260.01
C 3.16 256.44 15.74 248.12 30.10 241.12
C 34.90 238.77 39.12 235.96 39.48 234.85
C 41.81 227.52 51.53 156.70 54.62 124.52
C 56.86 101.26 56.82 34.84 54.55 20.31
C 52.51 7.08 53.19 2.97 57.72 1.24
C 59.54 0.55 76.62 0.00 95.89 0.00
C 129.71 0.00 130.82 0.08 133.50 2.75
C 136.51 5.74 136.52 3.47 133.25 32.26
C 131.32 49.25 132.40 104.79 135.23 132.90
C 138.25 163.03 147.38 228.14 149.53 234.88
C 149.88 235.96 154.10 238.77 158.90 241.12
C 182.46 252.61 190.46 259.81 188.47 267.75
C 186.36 276.09 178.09 278.19 163.11 274.19
C 159.19 273.15 154.94 272.28 153.66 272.27
C 149.22 272.25 145.52 278.14 139.92 294.19
C 136.83 303.07 132.68 313.55 130.68 317.50
C 126.73 325.34 118.45 333.66 113.31 334.94
L 110.03 335.77
L 110.03 465.30
C 110.03 616.05 111.89 600.00 94.50 600.00
C 85.87 600.00 83.72 599.57 81.55 597.42
M 99.68 590.97
C 102.23 588.43 102.27 586.67 102.27 462.26
L 102.27 336.13
L 94.50 336.13
L 86.73 336.13
L 86.73 462.26
C 86.73 586.67 86.77 588.43 89.32 590.97
C 90.75 592.39 93.08 593.55 94.50 593.55
C 95.92 593.55 98.25 592.39 99.68 590.97
M 111.28 325.81
C 115.57 323.56 122.16 316.53 124.73 311.45
C 125.85 309.23 129.40 299.74 132.62 290.39
C 139.33 270.84 141.92 266.59 148.37 264.46
C 152.30 263.17 154.73 263.39 164.44 265.88
C 173.92 268.32 176.25 268.54 177.92 267.16
C 179.03 266.25 179.94 265.01 179.94 264.40
C 179.94 262.52 164.77 252.97 152.39 247.06
C 113.65 228.58 75.35 228.58 36.61 247.06
C 24.04 253.06 9.06 262.53 9.06 264.48
C 9.06 266.83 13.31 269.82 15.38 268.92
C 22.01 266.05 36.40 262.98 39.55 263.77
C 45.92 265.37 49.99 271.41 55.09 286.81
C 62.10 307.94 66.12 316.09 72.25 321.57
C 77.31 326.12 78.89 326.85 86.73 328.25
C 92.12 329.20 107.76 327.65 111.28 325.81
M 66.78 229.02
C 88.43 224.10 95.54 223.78 111.99 226.94
C 119.81 228.45 129.39 230.53 133.27 231.57
C 137.15 232.61 140.49 233.29 140.70 233.08
C 140.90 232.89 140.20 227.83 139.15 221.85
C 135.94 203.72 130.97 167.17 128.09 140.61
C 124.62 108.58 123.25 48.31 125.50 26.59
C 126.72 14.84 126.72 11.06 125.50 9.61
C 123.21 6.85 65.79 6.85 63.50 9.61
C 62.28 11.06 62.28 14.84 63.50 26.59
C 65.74 48.26 64.38 108.58 60.92 140.44
C 57.35 173.45 51.74 213.59 48.38 230.13
C 47.73 233.33 47.96 233.70 50.14 233.01
C 51.52 232.58 59.00 230.77 66.78 229.02"/>
<path fill="#ffbf53" stroke="none" d="
M 48.38 230.13
C 51.74 213.59 57.35 173.45 60.92 140.44
C 64.39 108.43 65.75 48.26 63.48 26.41
C 62.01 12.17 62.06 10.99 64.21 9.42
C 67.74 6.85 123.35 7.01 125.50 9.61
C 126.72 11.06 126.72 14.84 125.50 26.59
C 121.23 67.81 127.33 154.98 139.15 221.85
C 140.20 227.83 140.90 232.89 140.70 233.08
C 140.49 233.29 137.15 232.61 133.27 231.57
C 115.83 226.92 97.71 224.21 89.33 225.01
C 81.97 225.70 57.30 230.75 50.14 233.01
C 47.96 233.70 47.73 233.33 48.38 230.13"/>
<path fill="#16ac1a" stroke="none" d="
M 86.73 328.25
C 78.89 326.85 77.31 326.12 72.25 321.57
C 66.12 316.09 62.10 307.94 55.09 286.81
C 49.99 271.41 45.92 265.37 39.55 263.77
C 36.40 262.98 22.01 266.05 15.38 268.92
C 13.31 269.82 9.06 266.83 9.06 264.48
C 9.06 262.53 24.04 253.06 36.61 247.06
C 75.26 228.62 113.74 228.62 152.39 247.06
C 164.77 252.97 179.94 262.52 179.94 264.40
C 179.94 265.01 179.03 266.25 177.92 267.16
C 176.25 268.54 173.92 268.32 164.44 265.88
C 154.73 263.39 152.30 263.17 148.37 264.46
C 141.92 266.59 139.33 270.84 132.62 290.39
C 129.40 299.74 125.85 309.23 124.73 311.45
C 122.16 316.53 115.57 323.56 111.28 325.81
C 107.76 327.65 92.12 329.20 86.73 328.25"/>
<path fill="#c55436" stroke="none" d="
M 89.32 590.97
C 86.75 588.40 86.72 586.98 87.06 462.46
L 87.38 336.54
L 94.82 336.34
L 102.27 336.13
L 102.27 462.26
C 102.27 586.67 102.23 588.43 99.68 590.97
C 96.38 594.26 92.62 594.26 89.32 590.97"/>
</g>
</svg>
