<?xml version="1.0" encoding="UTF-8" standalone="no"?>
<!DOCTYPE svg PUBLIC "-//W3C//DTD SVG 1.1//EN"
"http://www.w3.org/Graphics/SVG/1.1/DTD/svg11.dtd">
<svg width="121px" height="600px"
xmlns="http://www.w3.org/2000/svg" version="1.1">
<g transform="translate(0000, 0000) scale(1.0000, 1.0000)">
<path fill="#000000" stroke="none" d="
M 46.34 597.57
C 22.35 589.82 5.90 572.65 1.26 550.54
C -1.85 535.61 0.46 504.75 9.62 439.40
C 15.24 399.28 17.51 376.18 27.03 262.10
C 31.31 210.86 35.63 160.00 36.63 149.04
C 39.60 116.72 40.08 106.95 41.04 61.03
C 41.86 20.33 42.12 16.93 44.65 11.34
C 47.89 4.27 52.09 1.17 59.55 0.41
C 66.99 -0.35 72.70 3.37 76.31 11.28
C 78.91 16.96 79.14 20.12 79.96 61.03
C 80.88 106.70 81.37 116.31 84.37 149.04
C 85.37 160.00 89.69 210.86 93.97 262.10
C 103.49 376.18 105.76 399.28 111.38 439.40
C 120.54 504.75 122.85 535.61 119.74 550.54
C 115.05 572.94 97.65 590.76 73.46 597.93
C 64.50 600.58 55.27 600.46 46.34 597.57
M 78.17 586.57
C 96.21 578.03 109.34 561.92 112.52 544.43
L 113.39 539.61
L 60.50 539.61
L 7.61 539.61
L 8.48 544.43
C 12.20 564.93 29.35 583.04 52.13 590.56
C 59.33 592.93 67.32 591.71 78.17 586.57
M 113.25 527.09
C 113.20 517.32 109.45 484.02 104.41 448.39
C 98.47 406.52 95.09 372.58 86.89 273.02
C 83.70 234.15 79.68 186.45 77.95 167.02
C 73.60 117.70 73.23 111.03 72.21 63.40
C 71.36 23.46 71.16 20.92 68.51 15.83
C 63.81 6.87 57.19 6.87 52.51 15.83
C 49.84 20.90 49.65 23.50 48.77 63.60
C 47.72 111.70 47.36 118.16 43.05 167.02
C 41.32 186.45 37.30 234.15 34.11 273.02
C 25.91 372.58 22.53 406.52 16.59 448.39
C 11.55 484.02 7.80 517.32 7.75 527.09
L 7.72 531.91
L 60.50 531.91
L 113.28 531.91
L 113.25 527.09"/>
<path fill="#c57a36" stroke="none" d="
M 7.75 527.09
C 7.80 517.32 11.55 484.02 16.59 448.39
C 22.53 406.52 25.91 372.58 34.11 273.02
C 37.30 234.15 41.32 186.45 43.05 167.02
C 47.36 118.16 47.72 111.70 48.77 63.60
C 49.64 23.65 49.85 20.89 52.47 15.89
C 57.13 6.99 63.87 6.99 68.53 15.89
C 71.16 20.89 71.36 23.61 72.21 63.40
C 73.23 111.03 73.60 117.70 77.95 167.02
C 79.68 186.45 83.70 234.15 86.89 273.02
C 95.09 372.58 98.47 406.52 104.41 448.39
C 109.45 484.02 113.20 517.32 113.25 527.09
L 113.28 531.91
L 60.50 531.91
L 7.72 531.91
L 7.75 527.09"/>
<path fill="#c55436" stroke="none" d="
M 52.07 590.56
C 30.92 583.67 13.34 565.90 9.11 547.13
C 8.43 544.12 8.17 541.22 8.52 540.64
C 8.87 540.08 32.62 539.61 61.27 539.61
L 113.39 539.61
L 112.52 544.43
C 109.34 561.92 96.21 578.03 78.17 586.57
C 67.32 591.71 59.35 592.92 52.07 590.56"/>
</g>
</svg>
