<?xml version="1.0" encoding="UTF-8" standalone="no"?>
<!DOCTYPE svg PUBLIC "-//W3C//DTD SVG 1.1//EN"
"http://www.w3.org/Graphics/SVG/1.1/DTD/svg11.dtd">
<svg width="536px" height="600px"
xmlns="http://www.w3.org/2000/svg" version="1.1">
<g transform="translate(0000, 0000) scale(1.0000, 1.0000)">
<path fill="#000000" stroke="none" d="
M 305.66 596.17
C 290.16 585.76 277.74 561.72 272.04 531.14
C 269.55 517.84 269.81 504.01 272.88 484.61
C 274.46 474.61 274.40 472.91 272.20 467.13
C 270.21 461.93 268.64 460.20 263.88 457.88
C 258.73 455.37 257.48 455.24 253.79 456.78
C 244.04 460.81 238.31 471.94 232.35 498.41
C 230.48 506.66 228.04 514.84 226.89 516.59
C 224.02 521.02 214.69 524.93 206.93 524.97
C 193.27 525.03 186.56 518.89 184.82 504.76
C 182.92 489.31 167.82 467.70 152.58 458.58
C 143.38 453.10 131.63 450.00 119.94 450.00
C 99.08 450.00 95.21 443.43 100.16 416.40
C 101.24 410.51 102.79 398.93 103.63 390.68
C 107.16 355.51 111.63 335.55 120.98 313.30
C 124.38 305.17 126.83 298.16 126.39 297.74
C 125.97 297.31 121.14 295.77 115.66 294.31
C 96.51 289.23 62.86 273.68 44.33 261.35
C 32.65 253.60 16.27 236.58 10.43 226.15
C 4.96 216.35 0.00 199.21 0.00 190.10
C 0.00 181.92 3.66 165.41 7.01 158.47
C 11.36 149.47 22.61 138.05 31.59 133.53
C 66.00 116.15 102.75 130.04 111.28 163.61
C 115.97 182.07 109.03 203.24 95.31 212.32
C 89.54 216.14 74.86 220.88 68.78 220.90
C 56.23 220.94 42.70 212.85 38.00 202.51
C 34.41 194.60 34.52 179.58 38.19 175.91
C 43.96 170.14 54.55 174.33 54.55 182.39
C 54.57 191.21 65.10 200.51 72.86 198.56
C 78.14 197.24 87.36 188.35 90.29 181.73
C 92.82 176.02 92.81 175.91 89.92 169.17
C 86.32 160.79 76.40 151.28 67.89 148.02
C 61.97 145.76 61.09 145.75 55.13 147.78
C 36.61 154.09 23.69 168.64 21.07 186.12
C 18.70 201.95 36.55 228.08 60.79 244.27
C 83.62 259.51 137.16 281.78 138.90 276.76
C 140.18 273.04 164.95 237.52 175.03 224.96
C 190.04 206.22 204.33 192.85 235.61 168.23
C 271.90 139.66 286.43 126.91 298.86 112.68
C 313.27 96.20 317.10 87.94 320.62 65.89
C 327.40 23.26 332.10 12.80 348.13 4.62
C 372.64 -7.88 402.20 7.30 402.31 32.43
C 402.37 45.63 397.88 55.98 380.06 83.84
C 366.05 105.72 364.94 109.05 365.03 129.55
C 365.08 142.46 366.17 152.71 369.53 171.82
C 373.62 195.12 373.89 198.65 373.25 218.18
C 372.80 231.97 371.33 246.27 369.02 259.32
C 365.71 278.15 359.04 306.25 355.98 314.29
C 355.22 316.28 354.61 318.46 354.61 319.15
C 354.61 321.37 362.94 324.76 379.73 329.39
C 452.34 349.35 492.18 377.47 522.01 429.79
C 530.45 444.63 536.60 461.07 535.43 465.74
C 534.08 471.14 529.78 474.55 524.31 474.55
C 517.08 474.55 514.86 472.73 511.42 464.02
C 505.86 449.93 496.11 432.05 488.22 421.49
C 478.04 407.81 460.33 391.08 445.96 381.52
C 434.15 373.68 413.69 363.20 412.49 364.39
C 412.13 364.76 415.11 369.03 419.09 373.90
C 448.81 410.14 467.00 457.01 468.82 501.97
C 469.53 519.63 469.42 520.66 466.63 523.45
C 462.94 527.14 456.40 527.24 452.80 523.64
C 450.77 521.60 450.08 519.08 450.06 513.75
C 450.06 503.18 446.45 481.00 442.51 467.28
C 429.52 422.02 396.87 375.67 361.14 351.78
C 354.44 347.30 348.41 343.64 347.73 343.64
C 345.88 343.64 343.72 348.37 330.96 380.54
C 312.15 427.91 306.46 451.69 306.39 483.41
C 306.31 513.11 311.56 537.00 324.71 566.84
C 333.51 586.81 333.48 593.36 324.63 597.94
C 318.52 601.09 312.11 600.49 305.66 596.17
M 320.21 589.69
C 324.29 586.84 324.05 584.58 318.46 572.92
C 305.32 545.48 298.35 515.40 298.20 485.45
C 298.01 449.17 304.10 425.00 328.77 364.09
C 348.22 316.12 355.85 290.03 362.09 250.23
C 366.84 219.90 366.66 203.50 361.26 172.42
C 357.97 153.56 356.98 143.73 356.91 129.55
C 356.80 107.05 357.95 103.61 373.95 78.29
C 388.13 55.83 392.86 45.67 393.76 35.80
C 394.65 26.09 392.14 19.45 385.78 14.60
C 371.78 3.93 348.84 7.79 340.37 22.24
C 335.08 31.25 333.29 37.58 330.12 58.50
C 324.87 93.12 320.41 102.27 296.90 126.45
C 283.64 140.09 277.57 145.24 231.86 181.62
C 198.36 208.28 182.76 225.31 158.41 261.82
C 127.92 307.54 117.17 337.27 111.81 390.68
C 110.98 398.93 109.42 410.51 108.35 416.40
C 104.36 438.18 106.15 441.82 120.85 441.82
C 141.01 441.82 157.44 449.22 172.28 465.00
C 183.45 476.88 190.23 489.03 192.44 501.14
C 194.43 512.07 195.51 513.71 201.88 515.62
C 207.74 517.38 216.51 515.74 219.32 512.36
C 220.10 511.42 222.67 502.99 225.02 493.62
C 231.90 466.21 238.35 454.64 249.00 450.57
C 264.34 444.71 279.27 453.64 281.79 470.21
C 282.42 474.27 281.94 481.54 280.49 490.23
C 277.71 506.82 277.63 517.50 280.14 530.67
C 285.31 557.63 297.58 581.58 310.20 589.27
C 315.27 592.36 316.34 592.40 320.21 589.69
M 462.49 516.56
C 466.42 509.24 459.65 467.51 450.81 444.53
C 438.91 413.60 418.04 380.95 397.69 361.43
C 392.58 356.52 391.39 352.27 394.79 350.97
C 399.76 349.06 432.76 363.67 451.26 375.97
C 465.91 385.70 483.48 402.34 493.95 416.39
C 501.19 426.11 510.97 444.26 518.12 461.25
C 520.96 468.00 522.85 468.98 527.08 465.90
C 529.48 464.13 529.44 463.68 525.85 454.30
C 521.87 443.86 508.67 421.01 500.13 409.77
C 490.67 397.28 473.03 380.70 459.77 371.80
C 435.51 355.49 411.21 344.99 374.07 334.79
C 364.89 332.26 356.79 329.82 356.05 329.37
C 355.31 328.92 353.77 330.40 352.60 332.65
L 350.49 336.75
L 355.61 339.40
C 386.72 355.42 421.31 396.00 439.18 437.43
C 448.48 458.99 455.50 489.19 455.52 507.71
C 455.53 518.10 459.19 522.74 462.49 516.56
M 130.94 287.70
C 133.03 283.80 132.08 282.97 123.16 280.96
C 108.47 277.68 72.16 260.96 55.33 249.72
C 31.22 233.62 14.83 209.74 14.51 190.23
C 14.27 175.94 22.42 159.05 33.71 150.50
C 39.58 146.05 51.98 140.74 59.33 139.53
C 65.40 138.53 78.61 144.04 85.58 150.46
C 91.98 156.35 95.47 162.12 98.24 171.40
C 99.77 176.51 99.63 177.90 96.89 184.65
C 91.95 196.80 79.87 205.96 68.88 205.87
C 59.91 205.80 49.11 196.09 49.10 188.10
C 49.10 186.18 48.19 183.42 47.05 181.96
C 45.03 179.35 44.98 179.35 42.96 181.96
C 36.40 190.45 47.68 209.05 61.65 212.80
C 74.18 216.18 90.83 209.26 99.07 197.26
C 110.49 180.67 108.10 161.39 92.73 146.02
C 82.87 136.16 75.39 133.08 61.37 133.09
C 51.09 133.09 48.65 133.61 39.82 137.69
C 28.57 142.88 17.47 153.59 12.34 164.18
C 7.95 173.25 6.12 187.73 7.95 198.87
C 12.10 223.99 33.50 248.15 68.19 266.86
C 86.96 276.98 119.80 289.94 127.81 290.36
C 128.72 290.41 130.14 289.21 130.94 287.70"/>
<path fill="#fefefe" stroke="none" d="
M 310.20 589.27
C 297.58 581.58 285.31 557.63 280.14 530.67
C 277.63 517.50 277.71 506.82 280.49 490.23
C 281.94 481.54 282.42 474.27 281.79 470.21
C 279.27 453.64 264.34 444.71 249.00 450.57
C 238.35 454.64 231.90 466.21 225.02 493.62
C 222.67 502.99 220.10 511.42 219.32 512.36
C 216.51 515.74 207.74 517.38 201.88 515.62
C 195.51 513.71 194.43 512.07 192.44 501.14
C 190.23 489.03 183.45 476.88 172.28 465.00
C 157.44 449.22 141.01 441.82 120.85 441.82
C 106.15 441.82 104.36 438.18 108.35 416.40
C 109.42 410.51 110.98 398.93 111.81 390.68
C 117.17 337.27 127.92 307.54 158.41 261.82
C 182.76 225.31 198.36 208.28 231.86 181.62
C 277.57 145.24 283.64 140.09 296.90 126.45
C 320.41 102.27 324.87 93.12 330.12 58.50
C 333.29 37.58 335.08 31.25 340.37 22.24
C 348.80 7.85 371.74 4.00 385.78 14.62
C 392.14 19.43 394.65 26.09 393.76 35.80
C 392.86 45.67 388.13 55.83 373.95 78.29
C 357.95 103.61 356.80 107.05 356.91 129.55
C 356.98 143.73 357.97 153.56 361.26 172.42
C 366.66 203.50 366.84 219.90 362.09 250.23
C 355.85 290.03 348.22 316.12 328.77 364.09
C 304.10 425.00 298.01 449.17 298.20 485.45
C 298.35 515.40 305.32 545.48 318.46 572.92
C 324.05 584.58 324.29 586.84 320.21 589.69
C 316.34 592.40 315.27 592.36 310.20 589.27"/>
<path fill="#ffbf53" stroke="none" d="
M 456.95 516.91
C 456.17 515.45 455.53 511.31 455.52 507.71
C 455.50 489.19 448.48 458.99 439.18 437.43
C 421.31 396.00 386.72 355.42 355.61 339.40
L 350.49 336.75
L 352.60 332.65
C 353.77 330.40 355.31 328.92 356.05 329.37
C 356.79 329.82 364.89 332.26 374.07 334.79
C 411.21 344.99 435.51 355.49 459.77 371.80
C 473.03 380.70 490.67 397.28 500.13 409.77
C 508.67 421.01 521.87 443.86 525.85 454.30
C 529.44 463.68 529.48 464.13 527.08 465.90
C 522.85 468.98 520.96 468.00 518.12 461.25
C 510.97 444.26 501.19 426.11 493.95 416.39
C 483.48 402.34 465.91 385.70 451.26 375.97
C 432.76 363.67 399.76 349.06 394.79 350.97
C 391.39 352.27 392.58 356.52 397.69 361.43
C 418.04 380.95 438.91 413.60 450.81 444.53
C 459.65 467.51 466.42 509.24 462.49 516.56
C 460.52 520.24 458.79 520.35 456.95 516.91"/>
<path fill="#ffbf53" stroke="none" d="
M 118.66 288.27
C 109.00 285.68 81.34 273.95 68.19 266.86
C 33.50 248.15 12.10 223.99 7.95 198.87
C 6.12 187.73 7.95 173.25 12.34 164.18
C 17.46 153.63 28.57 142.88 39.70 137.75
C 48.36 133.76 50.95 133.20 61.26 133.15
C 75.41 133.06 82.79 136.09 92.73 146.02
C 108.10 161.39 110.49 180.67 99.07 197.26
C 90.83 209.26 74.18 216.18 61.65 212.80
C 47.68 209.05 36.40 190.45 42.96 181.96
C 44.98 179.35 45.03 179.35 47.05 181.96
C 48.19 183.42 49.10 186.18 49.10 188.10
C 49.11 196.09 59.91 205.80 68.88 205.87
C 79.87 205.96 91.95 196.80 96.89 184.65
C 99.63 177.90 99.77 176.51 98.24 171.40
C 93.92 156.91 84.82 146.89 71.49 141.89
C 62.53 138.53 59.22 138.71 47.35 143.17
C 32.12 148.90 21.45 160.24 16.73 175.75
C 7.60 205.70 30.37 238.80 75.76 261.53
C 93.34 270.34 114.61 279.05 123.16 280.96
C 132.08 282.97 133.03 283.80 130.94 287.70
C 129.23 290.90 128.63 290.93 118.66 288.27"/>
</g>
</svg>
