<?xml version="1.0" encoding="UTF-8" standalone="no"?>
<!DOCTYPE svg PUBLIC "-//W3C//DTD SVG 1.1//EN"
"http://www.w3.org/Graphics/SVG/1.1/DTD/svg11.dtd">
<svg width="358px" height="600px"
xmlns="http://www.w3.org/2000/svg" version="1.1">
<g transform="translate(0000, 0000) scale(1.0000, 1.0000)">
<path fill="#000000" stroke="none" d="
M 284.74 598.20
C 282.64 597.27 279.69 594.83 278.18 592.75
C 265.67 575.54 249.82 526.27 247.19 496.33
C 245.66 479.12 242.89 472.68 235.04 468.08
C 222.83 460.92 215.70 461.68 206.21 471.16
C 198.58 478.79 196.20 486.46 196.20 503.41
C 196.20 521.10 196.30 521.02 173.33 521.02
C 162.83 521.02 154.26 520.43 152.39 519.58
C 148.74 517.92 147.02 514.28 145.26 504.46
C 142.08 486.74 126.54 465.25 111.36 457.59
C 97.25 450.46 84.33 448.45 40.13 446.51
C 18.42 445.55 17.02 445.29 15.14 441.76
C 14.31 440.20 13.19 429.76 12.64 418.52
C 11.76 400.33 4.96 349.24 1.31 333.45
C 0.62 330.47 0.05 324.15 0.03 319.43
C -0.01 307.24 1.71 305.73 15.77 305.73
L 26.46 305.73
L 28.61 299.04
C 32.77 286.20 48.07 261.75 64.29 242.04
C 69.75 235.39 86.24 218.09 100.92 203.62
L 127.58 177.30
L 125.66 173.68
C 123.11 168.87 111.21 155.78 76.57 119.66
C 59.31 101.66 46.43 87.11 44.40 83.35
C 42.54 79.90 39.98 72.05 38.72 65.92
C 36.51 55.21 36.51 54.34 38.69 43.63
C 41.42 30.33 45.85 19.95 51.18 14.45
C 56.34 9.11 66.94 4.50 80.45 1.73
C 91.07 -0.43 91.86 -0.43 101.48 1.81
C 124.26 7.15 131.56 14.76 134.61 36.47
C 136.24 48.09 127.01 65.45 115.46 72.47
C 108.61 76.64 97.88 78.36 89.89 76.56
C 80.53 74.47 76.98 71.36 74.33 62.94
C 72.43 56.93 72.34 54.90 73.64 48.66
C 75.43 40.09 78.20 35.92 84.33 32.57
C 88.32 30.38 89.27 30.31 92.98 31.83
C 97.65 33.77 101.28 40.59 100.11 45.25
C 99.73 46.82 97.96 49.04 96.20 50.19
C 92.46 52.65 92.07 55.46 95.27 57.17
C 98.48 58.89 108.44 51.40 112.79 44.00
L 116.18 38.22
L 112.97 32.74
C 108.81 25.64 98.71 19.89 90.47 19.91
C 83.42 19.94 73.42 24.23 67.73 29.68
C 62.13 35.04 57.37 44.57 56.46 52.18
C 55.11 63.57 58.59 68.57 92.44 103.97
C 109.12 121.40 127.63 141.26 133.58 148.09
C 139.53 154.92 145.09 160.51 145.93 160.51
C 149.33 160.51 176.10 138.74 190.47 124.29
C 213.49 101.15 217.27 93.44 221.58 61.01
C 223.03 50.06 225.02 38.83 226.01 36.04
C 232.29 18.24 241.27 10.43 260.22 6.29
C 273.10 3.48 289.78 9.11 295.37 18.15
C 296.78 20.43 298.63 26.06 299.48 30.68
C 302.31 46.01 297.06 61.86 281.11 86.15
C 261.17 116.54 260.04 123.78 268.97 163.64
C 272.17 177.94 273.10 185.44 273.60 201.01
C 273.94 211.73 274.40 220.33 274.60 220.11
C 274.81 219.91 277.37 210.57 280.28 199.36
C 283.20 188.17 286.06 178.42 286.63 177.71
C 287.20 177.01 288.23 174.43 288.92 171.97
C 289.62 169.52 294.50 152.90 299.78 135.03
C 305.06 117.16 315.21 82.48 322.31 57.96
C 329.44 33.44 336.02 12.18 336.98 10.70
C 337.92 9.24 340.49 7.29 342.70 6.37
C 346.11 4.96 347.35 5.01 350.95 6.74
C 356.50 9.38 358.59 15.49 357.59 26.14
C 357.18 30.48 349.62 65.22 340.79 103.32
C 331.95 141.44 320.17 192.39 314.62 216.56
C 309.05 240.73 301.26 274.27 297.27 291.08
C 293.29 307.90 288.69 327.39 287.08 334.39
C 281.14 359.95 280.06 372.51 279.38 424.25
C 278.59 483.78 278.83 485.80 293.10 542.56
C 298.67 564.70 303.22 584.41 303.22 586.37
C 303.22 597.08 294.64 602.59 284.74 598.20
M 293.61 589.03
C 294.74 587.91 295.37 586.05 295.00 584.89
C 293.43 579.86 277.28 514.15 274.91 503.18
C 272.64 492.65 272.23 485.17 271.72 445.22
C 271.11 398.08 272.31 369.97 275.88 347.77
C 276.95 341.11 281.50 320.47 286.01 301.91
C 290.50 283.35 297.68 252.68 301.96 233.76
C 306.22 214.84 314.81 177.58 321.04 150.96
C 342.05 61.18 350.36 24.24 350.36 20.55
C 350.36 15.63 347.50 13.22 344.84 15.89
C 343.76 16.97 342.60 18.85 342.25 20.08
C 341.36 23.18 320.11 96.45 309.45 133.12
C 304.55 149.94 298.62 169.71 296.26 177.07
C 293.89 184.43 289.65 199.39 286.82 210.31
C 281.76 229.92 275.65 247.69 267.57 266.27
C 257.45 289.53 249.42 294.04 206.39 300.56
C 153.46 308.57 109.58 312.19 52.38 313.24
C 2.97 314.14 6.17 313.13 8.68 327.01
C 14.28 358.04 19.43 396.76 20.26 414.24
C 20.88 427.54 21.75 434.88 22.86 436.22
C 23.98 437.55 26.67 438.22 31.05 438.22
C 45.19 438.23 92.54 442.17 100.42 444.00
C 113.90 447.12 123.86 452.78 133.05 462.52
C 142.73 472.78 150.98 488.42 153.07 500.48
C 155.16 512.47 156.50 513.38 172.38 513.38
C 180.89 513.38 186.03 512.84 187.03 511.85
C 187.99 510.88 188.56 506.01 188.56 498.61
C 188.56 475.69 196.06 462.05 211.86 456.23
C 215.91 454.73 220.21 453.50 221.41 453.49
C 226.06 453.46 239.91 459.32 244.54 463.29
C 251.06 468.88 253.10 474.57 254.72 491.83
C 257.61 522.70 274.12 573.03 285.92 586.94
C 289.92 591.66 290.77 591.89 293.61 589.03
M 109.57 303.16
C 154.74 299.86 194.10 295.12 222.16 289.63
C 243.91 285.38 251.66 279.17 260.58 258.85
L 266.56 245.22
L 265.88 215.29
C 265.33 191.45 264.65 183.01 262.56 173.89
C 261.11 167.58 258.72 155.54 257.22 147.13
C 252.52 120.55 255.31 109.20 273.63 80.47
C 288.15 57.72 290.91 50.96 291.02 38.00
C 291.10 29.99 290.63 27.57 288.45 24.62
C 279.55 12.60 262.73 10.92 248.34 20.62
C 237.15 28.17 232.76 38.27 229.25 64.60
C 226.25 86.96 224.83 92.96 220.33 101.91
C 211.04 120.46 188.35 143.01 155.93 165.91
C 141.35 176.20 76.85 240.48 64.77 256.74
C 50.97 275.32 35.67 300.79 35.67 305.20
C 35.67 306.62 78.35 305.44 109.57 303.16
M 136.07 167.90
C 136.91 167.06 137.59 165.75 137.59 164.98
C 137.59 162.79 120.13 143.35 87.36 109.10
C 55.90 76.19 52.02 70.93 50.22 58.97
C 48.72 48.99 53.89 33.87 61.61 25.68
C 66.50 20.48 72.06 17.54 82.51 14.62
C 89.89 12.56 91.02 12.55 97.56 14.41
C 109.39 17.77 115.29 22.00 119.15 29.87
C 123.10 37.95 122.78 41.34 117.22 50.09
C 113.43 56.08 101.78 64.97 97.73 64.97
C 94.38 64.97 88.34 61.58 87.42 59.18
C 85.51 54.18 86.66 49.40 90.70 45.63
C 93.88 42.66 94.48 41.38 93.47 39.78
C 91.27 36.28 89.31 36.56 84.81 41.06
C 74.15 51.72 79.35 68.98 93.78 70.92
C 101.81 72.00 108.70 69.39 116.37 62.38
C 126.97 52.70 130.35 42.09 126.77 29.72
C 120.46 7.95 90.98 0.13 65.06 13.35
C 57.53 17.20 53.15 21.92 49.20 30.46
C 41.79 46.52 42.00 65.11 49.75 78.69
C 51.87 82.38 65.92 98.19 81.97 114.92
C 111.43 145.61 124.62 159.89 129.10 165.92
C 131.94 169.75 133.71 170.25 136.07 167.90"/>
<path fill="#ffbf53" stroke="none" d="
M 129.10 165.92
C 124.62 159.89 111.43 145.61 81.97 114.92
C 65.92 98.19 51.87 82.38 49.75 78.69
C 44.44 69.38 42.48 57.21 44.48 45.99
C 46.35 35.50 51.79 23.61 56.85 18.87
C 66.15 10.19 86.39 4.78 99.06 7.59
C 115.17 11.18 123.27 17.72 126.85 30.05
C 130.35 42.06 126.87 52.79 116.37 62.38
C 108.70 69.39 101.81 72.00 93.78 70.92
C 79.35 68.98 74.15 51.72 84.81 41.06
C 89.31 36.56 91.27 36.28 93.47 39.78
C 94.48 41.38 93.88 42.66 90.70 45.63
C 86.66 49.40 85.51 54.18 87.42 59.18
C 88.34 61.58 94.38 64.97 97.73 64.97
C 101.78 64.97 113.43 56.08 117.22 50.09
C 122.78 41.34 123.10 37.95 119.15 29.87
C 115.29 22.00 109.39 17.77 97.56 14.41
C 91.02 12.55 89.89 12.56 82.51 14.62
C 72.06 17.54 66.50 20.48 61.61 25.68
C 53.89 33.87 48.72 48.99 50.22 58.97
C 52.02 70.93 55.90 76.19 87.36 109.10
C 120.13 143.35 137.59 162.79 137.59 164.98
C 137.59 166.79 134.93 169.43 133.12 169.43
C 132.35 169.43 130.54 167.85 129.10 165.92"/>
<path fill="#fefefe" stroke="none" d="
M 35.67 305.20
C 35.67 300.79 50.97 275.32 64.77 256.74
C 76.85 240.48 141.35 176.20 155.93 165.91
C 188.35 143.01 211.04 120.46 220.33 101.91
C 224.83 92.96 226.25 86.96 229.25 64.60
C 232.76 38.24 237.12 28.23 248.41 20.52
C 260.23 12.46 275.51 12.45 284.68 20.50
C 290.21 25.35 292.26 31.50 291.41 40.64
C 290.37 51.50 286.37 60.50 273.63 80.47
C 255.31 109.20 252.52 120.55 257.22 147.13
C 258.72 155.54 261.11 167.58 262.56 173.89
C 264.65 183.01 265.33 191.45 265.88 215.29
L 266.56 245.22
L 260.58 258.85
C 251.66 279.17 243.91 285.38 222.16 289.63
C 194.10 295.12 154.74 299.86 109.57 303.16
C 78.35 305.44 35.67 306.62 35.67 305.20"/>
<path fill="#ff0000" stroke="none" d="
M 285.92 586.94
C 274.12 573.03 257.61 522.70 254.72 491.83
C 253.10 474.57 251.06 468.88 244.54 463.29
C 239.91 459.32 226.06 453.46 221.41 453.49
C 220.21 453.50 215.91 454.73 211.86 456.23
C 196.06 462.05 188.56 475.69 188.56 498.61
C 188.56 506.01 187.99 510.88 187.03 511.85
C 186.03 512.84 180.89 513.38 172.38 513.38
C 156.50 513.38 155.16 512.47 153.07 500.48
C 150.98 488.42 142.73 472.78 133.05 462.52
C 123.86 452.78 113.90 447.12 100.42 444.00
C 92.54 442.17 45.19 438.23 31.05 438.22
C 26.67 438.22 23.98 437.55 22.86 436.22
C 21.75 434.88 20.88 427.54 20.26 414.24
C 19.43 396.76 14.28 358.04 8.68 327.01
C 6.17 313.13 2.97 314.14 52.38 313.24
C 109.58 312.19 153.46 308.57 206.39 300.56
C 249.42 294.04 257.45 289.53 267.57 266.27
C 275.65 247.69 281.76 229.92 286.82 210.31
C 289.65 199.39 293.89 184.43 296.26 177.07
C 300.43 164.09 305.60 146.50 329.96 62.42
C 344.05 13.80 343.59 15.04 347.03 15.54
C 348.99 15.82 349.82 16.98 350.10 19.81
C 350.47 23.62 343.82 53.66 321.04 150.96
C 314.81 177.58 306.22 214.84 301.96 233.76
C 297.68 252.68 290.50 283.35 286.01 301.91
C 281.50 320.47 276.95 341.11 275.88 347.77
C 272.31 369.97 271.11 398.08 271.72 445.22
C 272.23 485.17 272.64 492.65 274.91 503.18
C 277.28 514.15 293.43 579.86 295.00 584.89
C 295.65 586.94 292.63 591.08 290.50 591.08
C 289.92 591.08 287.85 589.22 285.92 586.94"/>
</g>
</svg>
