<?xml version="1.0" encoding="UTF-8" standalone="no"?>
<!DOCTYPE svg PUBLIC "-//W3C//DTD SVG 1.1//EN"
"http://www.w3.org/Graphics/SVG/1.1/DTD/svg11.dtd">
<svg width="259px" height="600px"
xmlns="http://www.w3.org/2000/svg" version="1.1">
<g transform="translate(0000, 0000) scale(1.0000, 1.0000)">
<path fill="#000000" stroke="none" d="
M 96.83 598.52
C 65.65 592.48 49.15 584.03 30.72 564.64
C 14.78 547.85 6.72 531.38 2.26 506.37
C -0.53 490.73 -0.53 485.16 2.26 469.52
C 7.07 442.64 14.84 427.48 33.27 409.09
C 42.20 400.17 48.38 395.16 55.02 391.42
C 90.19 371.67 134.36 371.67 169.53 391.42
C 182.33 398.62 201.77 418.02 208.98 430.80
C 215.67 442.66 220.15 456.15 222.78 472.29
C 226.64 496.08 221.56 522.76 208.90 545.23
C 201.82 557.79 182.25 577.32 169.67 584.38
C 148.15 596.47 117.22 602.47 96.83 598.52
M 136.03 588.11
C 144.89 585.81 161.84 578.48 166.64 574.89
C 168.54 573.47 166.10 570.70 141.08 545.75
L 113.44 518.18
L 85.21 546.38
L 56.98 574.58
L 65.02 578.89
C 87.75 591.09 112.34 594.28 136.03 588.11
M 80.81 538.93
C 99.30 520.54 112.08 508.70 113.46 508.70
C 114.84 508.70 127.50 520.41 145.78 538.60
L 175.82 568.51
L 183.05 561.43
C 187.03 557.54 191.92 552.31 193.92 549.81
L 197.56 545.26
L 167.70 515.37
C 151.27 498.92 137.82 484.72 137.82 483.79
C 137.82 482.88 150.51 469.43 166.00 453.91
L 194.19 425.69
L 185.90 417.31
C 181.35 412.68 176.10 407.82 174.24 406.47
L 170.87 404.04
L 143.29 431.47
C 126.67 448.00 114.83 458.89 113.46 458.89
C 112.09 458.89 100.02 447.78 83.02 430.85
L 54.83 402.82
L 50.29 406.46
C 47.78 408.45 42.54 413.34 38.65 417.30
L 31.56 424.51
L 60.33 453.32
C 76.16 469.16 89.11 482.88 89.11 483.79
C 89.11 484.72 75.38 499.20 58.61 515.99
C 30.91 543.70 28.26 546.70 29.73 548.64
C 32.05 551.74 49.14 569.17 49.84 569.17
C 50.17 569.17 64.11 555.56 80.81 538.93
M 51.68 511.07
L 79.00 483.78
L 52.70 457.55
L 26.42 431.32
L 21.90 439.40
C 9.01 462.40 5.60 487.41 12.01 511.87
C 14.58 521.64 21.75 538.34 23.39 538.34
C 23.94 538.34 36.66 526.07 51.68 511.07
M 206.56 528.88
C 219.34 500.32 218.74 472.06 204.72 443.66
L 199.25 432.57
L 173.59 458.18
L 147.93 483.78
L 174.65 510.47
C 189.33 525.14 201.69 537.15 202.10 537.15
C 202.51 537.15 204.51 533.43 206.56 528.88
M 162.77 399.24
C 162.77 397.58 145.88 390.38 135.36 387.57
C 121.50 383.87 103.08 383.86 89.30 387.55
C 80.72 389.83 64.92 396.08 63.10 397.90
C 62.75 398.23 73.95 409.96 87.96 423.96
L 113.44 449.41
L 138.10 424.81
C 151.67 411.28 162.77 399.78 162.77 399.24"/>
<path fill="#000000" stroke="none" d="
M 205.04 388.64
C 199.41 382.97 193.89 368.35 189.28 346.86
C 183.24 318.71 180.85 311.87 175.95 308.61
C 169.74 304.48 164.57 305.04 159.19 310.40
C 154.00 315.59 152.09 321.30 152.09 331.72
C 152.07 342.66 150.46 343.87 135.95 343.87
C 129.70 343.87 123.65 343.38 122.50 342.76
C 120.47 341.67 119.58 339.42 115.91 326.09
C 113.81 318.50 107.13 309.20 100.38 304.51
C 92.84 299.25 79.48 296.51 57.11 295.64
C 30.68 294.59 32.29 296.34 29.82 266.21
C 29.13 257.73 27.22 242.81 25.57 233.06
C 21.79 210.72 21.79 208.19 25.48 204.49
L 28.41 201.58
L 57.86 201.58
C 90.47 201.57 111.37 200.34 139.00 196.78
C 158.10 194.32 169.89 191.63 169.89 189.75
C 169.89 188.45 159.52 175.92 155.64 172.53
C 154.15 171.23 140.57 156.56 125.47 139.93
C 110.37 123.31 89.53 100.90 79.16 90.13
C 57.61 67.75 49.59 57.19 47.49 48.45
C 44.60 36.47 47.90 21.55 55.39 12.65
C 60.22 6.91 65.78 3.65 74.28 1.55
C 81.50 -0.23 82.51 -0.21 89.91 1.79
C 100.87 4.75 106.15 9.68 109.29 19.83
C 112.26 29.42 112.25 32.42 109.21 39.13
C 105.83 46.58 101.59 50.60 94.19 53.36
C 86.22 56.34 82.40 56.35 77.58 53.41
C 69.82 48.69 67.39 40.77 70.65 30.94
C 71.76 27.60 73.66 24.36 74.87 23.70
C 78.56 21.74 84.17 22.35 86.85 25.02
C 89.36 27.52 89.41 29.68 87.22 36.75
C 86.33 39.64 86.36 39.66 89.19 37.80
C 97.97 32.04 96.04 21.60 85.40 17.26
C 81.39 15.63 80.74 15.69 75.91 18.13
C 66.92 22.67 60.27 34.16 62.20 41.81
C 63.56 47.23 70.99 56.67 86.22 72.33
C 94.78 81.13 113.20 100.87 127.15 116.21
C 172.51 166.06 187.03 181.46 188.26 181.04
C 191.10 180.09 194.40 171.37 202.16 144.32
C 206.70 128.53 216.22 96.14 223.33 72.33
C 230.44 48.52 237.38 25.21 238.74 20.51
C 240.47 14.62 242.20 11.23 244.34 9.55
C 251.15 4.20 259.67 8.28 258.73 16.42
C 258.05 22.32 247.04 69.71 232.24 130.43
C 211.13 217.06 208.04 234.91 207.07 275.74
C 206.64 293.48 206.91 307.41 207.84 315.46
C 209.52 330.13 215.23 360.02 218.59 371.74
C 221.64 382.29 221.64 387.09 218.61 390.12
C 214.93 393.78 209.55 393.19 205.04 388.64
M 210.48 368.62
C 208.35 360.07 205.18 345.27 203.45 335.73
C 200.50 319.54 200.30 316.08 200.30 283.99
C 200.30 236.63 202.50 222.62 223.30 137.55
C 240.74 66.18 251.94 16.20 250.74 15.00
C 250.14 14.40 248.96 15.39 247.96 17.36
C 246.19 20.83 224.00 94.33 209.33 145.28
C 196.96 188.24 195.90 189.75 172.86 197.22
C 152.42 203.85 119.62 207.47 73.07 208.23
C 53.46 208.57 36.24 209.06 34.79 209.37
C 29.90 210.37 29.51 213.33 32.17 229.07
C 35.57 249.28 38.02 269.57 38.02 277.64
C 38.02 281.89 38.65 285.04 39.69 286.09
C 40.91 287.30 46.28 287.99 59.00 288.58
C 88.56 289.93 100.57 293.73 111.38 305.13
C 118.38 312.52 121.87 318.87 123.70 327.53
C 124.43 330.97 125.57 334.46 126.22 335.28
C 127.78 337.21 141.59 337.26 143.52 335.34
C 144.30 334.55 144.94 331.72 144.94 329.03
C 144.94 307.81 161.57 293.31 176.92 301.14
C 186.56 306.05 188.59 310.45 194.92 340.11
C 199.42 361.28 203.55 374.17 208.16 381.42
C 210.76 385.52 211.96 386.55 212.99 385.53
C 214.01 384.51 213.38 380.29 210.48 368.62
M 180.22 186.42
C 181.16 185.82 177.44 180.98 169.06 171.91
C 162.16 164.43 143.38 143.89 127.31 126.28
C 111.25 108.68 90.88 86.79 82.02 77.64
C 56.55 51.33 53.23 44.79 57.68 29.82
C 60.14 21.55 67.44 14.04 75.59 11.38
C 81.45 9.47 81.89 9.49 88.44 11.93
C 96.12 14.80 99.25 18.69 100.49 26.88
C 101.50 33.60 98.31 40.11 92.49 43.23
C 88.88 45.15 87.63 45.31 85.10 44.16
C 81.41 42.49 79.95 37.61 81.72 32.93
C 82.78 30.11 82.68 29.38 81.13 28.79
C 78.78 27.89 76.31 31.13 75.32 36.38
C 74.48 40.87 76.64 45.04 81.45 48.18
C 87.73 52.28 100.19 44.98 104.04 34.93
C 105.80 30.32 105.86 28.97 104.49 24.07
C 102.34 16.43 96.34 10.10 88.92 7.65
C 79.43 4.51 70.04 7.20 62.11 15.32
C 54.94 22.68 52.92 27.81 52.89 38.70
C 52.87 48.27 52.92 48.44 58.44 56.49
C 61.51 60.96 72.73 73.71 83.39 84.79
C 94.05 95.89 115.14 118.57 130.25 135.19
C 145.36 151.81 159.45 167.02 161.54 168.97
C 163.65 170.93 168.03 175.86 171.30 179.94
C 177.43 187.61 177.85 187.92 180.22 186.42"/>
<path fill="#ffbf53" stroke="none" d="
M 171.30 179.94
C 168.03 175.86 163.65 170.93 161.54 168.97
C 159.45 167.02 145.36 151.81 130.25 135.19
C 115.14 118.57 94.05 95.89 83.39 84.79
C 72.73 73.71 61.51 60.96 58.44 56.49
C 52.92 48.44 52.87 48.27 52.88 38.70
C 52.89 31.55 53.48 27.97 55.13 24.90
C 60.40 15.09 67.72 9.08 76.99 6.95
C 88.77 4.23 101.07 11.89 104.49 24.07
C 105.86 28.97 105.80 30.32 104.04 34.93
C 101.62 41.25 95.64 46.80 89.18 48.74
C 85.17 49.93 84.01 49.85 81.45 48.18
C 76.64 45.04 74.48 40.87 75.32 36.38
C 76.31 31.13 78.78 27.89 81.13 28.79
C 82.68 29.38 82.78 30.11 81.72 32.93
C 79.95 37.61 81.41 42.49 85.10 44.16
C 87.63 45.31 88.88 45.15 92.49 43.23
C 98.31 40.11 101.50 33.60 100.49 26.88
C 99.25 18.69 96.12 14.80 88.44 11.93
C 81.89 9.49 81.45 9.47 75.59 11.38
C 67.44 14.04 60.14 21.55 57.68 29.82
C 53.23 44.79 56.55 51.33 82.02 77.64
C 90.88 86.79 111.25 108.68 127.31 126.28
C 143.38 143.89 162.16 164.43 169.06 171.91
C 180.54 184.35 182.21 187.23 178.02 187.33
C 177.58 187.34 174.55 184.02 171.30 179.94"/>
<path fill="#ff0000" stroke="none" d="
M 208.16 381.42
C 203.55 374.17 199.42 361.28 194.92 340.11
C 188.59 310.45 186.56 306.05 176.92 301.14
C 164.51 294.82 151.48 302.17 146.72 318.19
C 145.74 321.46 144.94 326.35 144.94 329.03
C 144.94 331.72 144.30 334.55 143.52 335.34
C 141.59 337.26 127.78 337.21 126.22 335.28
C 125.57 334.46 124.43 330.97 123.70 327.53
C 121.87 318.87 118.38 312.52 111.38 305.13
C 100.57 293.73 88.56 289.93 59.00 288.58
C 46.28 287.99 40.91 287.30 39.69 286.09
C 38.65 285.04 38.02 281.89 38.02 277.64
C 38.02 269.57 35.57 249.28 32.17 229.07
C 29.51 213.33 29.90 210.37 34.79 209.37
C 36.24 209.06 53.46 208.57 73.07 208.23
C 119.62 207.47 152.42 203.85 172.86 197.22
C 196.19 189.66 196.79 188.75 210.36 141.75
C 222.72 98.92 244.32 26.74 246.63 20.45
C 247.69 17.62 249.28 15.42 250.27 15.42
C 251.37 15.42 251.81 16.19 251.44 17.49
C 251.12 18.63 247.30 35.30 242.95 54.55
C 238.59 73.79 229.75 111.13 223.30 137.55
C 202.50 222.64 200.30 236.63 200.30 283.99
C 200.30 316.08 200.50 319.54 203.45 335.73
C 205.18 345.27 208.35 360.07 210.48 368.62
C 213.38 380.29 214.01 384.51 212.99 385.53
C 211.96 386.55 210.76 385.52 208.16 381.42"/>
<path fill="#bd5628" stroke="none" d="
M 96.83 590.03
C 85.43 587.82 74.59 584.03 65.02 578.89
L 56.98 574.58
L 85.21 546.38
L 113.44 518.18
L 141.08 545.75
C 172.52 577.09 171.02 573.32 155.04 581.04
C 136.70 589.90 114.11 593.38 96.83 590.03"/>
<path fill="#bd5628" stroke="none" d="
M 18.43 529.71
C 13.53 519.14 9.85 505.49 8.83 494.12
C 7.38 478.07 12.69 455.82 21.90 439.40
L 26.42 431.32
L 52.70 457.55
L 79.00 483.78
L 51.68 511.07
C 36.66 526.07 23.94 538.34 23.39 538.34
C 22.86 538.34 20.62 534.45 18.43 529.71"/>
<path fill="#bd5628" stroke="none" d="
M 174.65 510.47
L 147.93 483.78
L 173.59 458.18
L 199.25 432.57
L 204.72 443.66
C 218.74 472.06 219.34 500.32 206.56 528.88
C 204.51 533.43 202.51 537.15 202.10 537.15
C 201.69 537.15 189.33 525.14 174.65 510.47"/>
<path fill="#bd5628" stroke="none" d="
M 87.96 423.96
C 73.95 409.96 62.75 398.23 63.10 397.90
C 64.93 396.06 80.73 389.83 89.30 387.57
C 103.20 383.89 121.65 383.89 135.36 387.57
C 145.88 390.38 162.77 397.58 162.77 399.24
C 162.77 399.78 151.67 411.28 138.10 424.81
L 113.44 449.41
L 87.96 423.96"/>
<path fill="#eae4a2" stroke="none" d="
M 40.30 559.98
C 35.37 554.93 30.62 549.83 29.73 548.64
C 28.26 546.70 30.91 543.70 58.61 515.99
C 75.38 499.20 89.11 484.72 89.11 483.79
C 89.11 482.88 76.16 469.16 60.33 453.32
L 31.56 424.51
L 38.65 417.26
C 42.54 413.28 47.84 408.45 50.42 406.55
L 55.10 403.09
L 83.15 430.99
C 100.07 447.83 112.09 458.89 113.46 458.89
C 114.83 458.89 126.67 448.00 143.29 431.47
L 170.87 404.04
L 174.24 406.47
C 176.10 407.82 181.35 412.68 185.90 417.31
L 194.19 425.69
L 166.00 453.91
C 150.51 469.43 137.82 482.88 137.82 483.79
C 137.82 484.72 151.27 498.92 167.70 515.37
L 197.56 545.26
L 193.92 549.81
C 191.92 552.31 187.03 557.54 183.05 561.43
L 175.82 568.51
L 145.78 538.60
C 127.50 520.41 114.84 508.70 113.46 508.70
C 112.08 508.70 99.30 520.54 80.81 538.93
C 64.11 555.56 50.17 569.17 49.84 569.17
C 49.52 569.17 45.22 565.03 40.30 559.98"/>
</g>
</svg>
