<?xml version="1.0" encoding="UTF-8" standalone="no"?>
<!DOCTYPE svg PUBLIC "-//W3C//DTD SVG 1.1//EN"
"http://www.w3.org/Graphics/SVG/1.1/DTD/svg11.dtd">
<svg width="100px" height="600px"
xmlns="http://www.w3.org/2000/svg" version="1.1">
<g transform="translate(0000, 0000) scale(1.0000, 1.0000)">
<path fill="#000000" stroke="none" d="
M 37.23 597.76
C 19.97 592.46 9.58 579.53 4.05 556.45
C 0.68 542.38 0.68 534.65 4.04 520.59
C 8.91 500.30 18.05 487.45 32.16 481.07
L 39.19 477.89
L 39.19 280.84
C 39.19 172.46 38.88 83.78 38.50 83.78
C 38.11 83.78 29.82 87.78 20.08 92.66
C 9.01 98.20 1.88 101.07 1.08 100.27
C -0.12 99.07 47.08 2.47 49.66 0.88
C 51.38 -0.18 100.41 98.78 98.91 100.28
C 98.12 101.07 90.95 98.19 79.92 92.66
C 70.18 87.78 61.89 83.78 61.50 83.78
C 61.12 83.78 60.81 172.49 60.81 280.89
L 60.81 478.00
L 68.82 482.95
C 81.85 490.99 88.68 501.50 93.24 520.58
C 96.62 534.65 96.62 542.38 93.24 556.45
C 87.73 579.45 77.81 591.85 60.23 597.76
C 52.16 600.47 46.08 600.47 37.23 597.76
M 59.23 586.86
C 76.81 578.54 89.11 551.47 85.22 529.69
C 81.11 506.66 64.41 487.30 48.65 487.30
C 27.39 487.30 6.95 520.96 12.07 547.53
C 15.12 563.45 22.82 576.73 33.00 583.68
C 43.62 590.92 49.23 591.59 59.23 586.86
M 52.36 276.69
C 52.07 98.46 51.80 75.00 50.00 75.00
C 48.20 75.00 47.93 98.46 47.64 276.69
C 47.28 477.81 47.30 478.38 50.00 478.38
C 52.70 478.38 52.72 477.81 52.36 276.69
M 36.72 72.78
C 41.89 69.80 47.53 67.57 49.93 67.57
C 52.47 67.57 58.73 70.20 65.88 74.28
C 72.35 77.99 78.15 80.50 78.78 79.86
C 80.11 78.54 51.99 21.62 50.00 21.62
C 48.19 21.62 19.99 78.18 20.99 79.80
C 21.88 81.23 23.05 80.70 36.72 72.78"/>
<path fill="#f3971b" stroke="none" d="
M 42.57 588.93
C 27.34 583.31 15.99 567.91 12.07 547.53
C 6.95 520.96 27.39 487.30 48.65 487.30
C 70.03 487.30 90.26 520.80 85.18 547.77
C 80.18 574.23 58.77 594.91 42.57 588.93"/>
<path fill="#f3971b" stroke="none" d="
M 21.00 79.81
C 19.97 78.15 47.36 23.24 49.65 22.36
C 51.78 21.54 80.47 78.18 78.78 79.86
C 78.15 80.50 72.35 77.99 65.88 74.28
C 58.73 70.20 52.47 67.57 49.93 67.57
C 47.53 67.57 41.89 69.80 36.72 72.78
C 23.09 80.68 21.86 81.23 21.00 79.81"/>
<path fill="#c55436" stroke="none" d="
M 47.30 277.18
C 47.30 105.80 47.58 75.85 49.19 75.24
C 50.23 74.84 51.45 74.88 51.89 75.32
C 52.34 75.76 52.70 166.64 52.70 277.26
C 52.70 477.47 52.69 478.38 50.00 478.38
C 47.31 478.38 47.30 477.47 47.30 277.18"/>
</g>
</svg>
