<?xml version="1.0" encoding="UTF-8" standalone="no"?>
<!DOCTYPE svg PUBLIC "-//W3C//DTD SVG 1.1//EN"
"http://www.w3.org/Graphics/SVG/1.1/DTD/svg11.dtd">
<svg width="592px" height="600px"
xmlns="http://www.w3.org/2000/svg" version="1.1">
<g transform="translate(0000, 0000) scale(1.0000, 1.0000)">
<path fill="#000000" stroke="none" d="
M 193.85 596.62
C 167.63 590.20 142.45 573.96 124.30 551.69
C 113.51 538.46 99.35 509.90 94.85 492.23
C 89.91 472.92 88.77 438.60 92.42 419.18
C 101.51 370.83 136.08 300.19 170.92 258.79
C 178.08 250.26 196.05 227.44 201.78 219.55
C 202.84 218.09 200.56 214.50 193.99 207.27
C 188.88 201.65 180.85 191.61 176.14 184.99
C 164.92 169.21 155.22 159.94 146.84 157.00
C 143.11 155.68 131.16 153.80 120.30 152.82
C 109.44 151.83 96.44 149.98 91.44 148.70
C 55.92 139.61 20.45 113.40 7.26 86.51
C 1.88 75.55 1.08 72.34 0.40 59.16
C -0.48 41.89 1.19 34.18 8.09 23.76
C 18.40 8.19 37.02 0.87 65.96 1.00
C 87.09 1.08 98.73 4.20 113.78 13.85
C 137.50 29.00 147.77 44.62 176.94 109.82
C 187.78 134.03 200.38 153.09 217.59 171.31
L 231.28 185.79
L 253.58 164.08
C 281.81 136.60 304.40 119.07 354.15 86.03
C 394.92 58.95 402.56 54.69 410.23 54.69
C 416.75 54.69 420.46 58.62 429.26 74.80
C 436.76 88.57 438.03 89.97 455.45 103.42
C 489.06 129.36 501.86 144.32 517.69 176.17
C 532.61 206.20 537.92 229.42 537.93 264.61
C 537.93 282.14 537.13 290.75 534.30 303.46
L 530.66 319.79
L 536.53 334.02
C 541.60 346.33 563.70 389.53 585.37 429.49
C 592.88 443.36 593.34 446.65 588.53 452.78
C 585.03 457.21 566.81 466.49 561.60 466.49
C 557.30 466.49 552.22 460.83 546.72 449.92
C 541.52 439.64 515.96 381.70 505.56 356.64
C 498.07 338.59 492.21 331.88 474.90 321.51
C 437.44 299.08 408.43 252.68 402.05 204.87
C 399.41 185.21 401.11 157.48 406.08 138.79
C 410.30 122.93 410.12 120.21 404.12 108.42
C 398.36 97.16 396.93 96.80 387.29 104.30
C 382.64 107.92 364.13 121.48 346.16 134.41
C 307.90 161.94 291.17 175.71 270.39 196.78
L 255.24 212.14
L 263.15 221.20
C 308.71 273.31 347.27 346.78 359.80 405.36
C 363.95 424.75 363.97 475.56 359.82 490.62
C 350.90 523.03 337.91 545.42 315.80 566.45
C 299.39 582.05 280.59 592.02 257.18 597.54
C 242.21 601.06 210.14 600.61 193.85 596.62
M 254.08 589.40
C 269.26 585.72 291.91 574.29 304.20 564.10
C 324.44 547.30 342.93 517.96 351.00 489.81
C 354.22 478.60 354.69 473.31 354.70 448.79
C 354.72 422.09 354.44 419.57 349.33 399.73
C 334.77 343.17 297.53 274.31 257.20 229.40
L 248.69 219.92
L 241.92 227.74
L 235.14 235.54
L 245.07 246.63
C 295.53 303.07 324.83 356.57 333.64 408.47
C 336.89 427.59 336.94 453.89 333.76 472.13
C 329.16 498.48 315.16 524.64 295.77 543.10
C 277.48 560.53 257.95 567.76 229.09 567.81
C 161.71 567.91 118.59 516.74 122.79 441.65
C 126.52 374.91 172.18 289.91 250.62 203.68
C 279.06 172.41 294.60 159.17 344.26 123.91
C 357.08 114.80 370.85 104.65 374.83 101.36
C 388.71 89.86 399.17 87.07 405.34 93.25
C 409.91 97.82 416.41 111.31 417.59 118.71
C 418.31 123.23 417.28 130.18 414.03 142.57
C 410.02 157.82 409.45 162.93 409.46 182.57
C 409.49 200.93 410.17 207.62 413.18 218.77
C 423.70 257.82 449.63 294.64 479.28 312.60
C 502.36 326.57 503.55 328.25 523.55 374.82
C 542.82 419.69 556.59 449.60 560.08 454.12
C 562.26 456.92 562.59 456.92 569.53 453.92
C 573.48 452.22 578.08 449.29 579.76 447.43
C 582.75 444.06 582.69 443.86 572.82 426.24
C 556.16 396.48 528.44 340.79 525.35 330.84
C 522.25 320.80 522.57 312.90 526.83 295.98
C 530.39 281.86 531.37 262.66 529.39 246.11
C 527.65 231.59 522.84 210.43 519.71 203.49
C 496.41 151.99 486.39 138.64 451.56 112.84
C 432.61 98.80 431.24 97.38 423.73 84.29
C 411.91 63.64 411.46 63.17 405.60 65.39
C 399.70 67.61 353.32 97.30 329.78 113.92
C 290.40 141.73 266.54 162.43 236.74 194.67
C 215.24 217.90 211.43 222.40 197.27 241.29
C 190.97 249.68 184.13 258.37 182.09 260.59
C 155.54 289.34 121.78 350.86 107.04 397.32
C 91.79 445.40 96.36 489.28 120.93 530.36
C 132.80 550.23 159.05 573.54 179.50 582.39
C 201.33 591.83 232.07 594.72 254.08 589.40
M 248.96 557.94
C 277.24 552.58 304.96 526.28 319.18 491.29
C 332.37 458.83 330.57 414.42 314.31 370.81
C 301.10 335.39 271.31 289.51 238.63 254.27
L 229.05 243.92
L 220.05 255.07
C 206.52 271.85 187.61 299.36 175.14 320.38
C 140.62 378.60 125.56 431.32 132.03 471.31
C 138.72 512.75 164.31 544.29 200.15 555.25
C 219.01 561.02 229.61 561.60 248.96 557.94
M 220.68 197.42
L 223.87 192.98
L 213.06 181.34
C 189.86 156.39 180.99 142.23 162.48 100.54
C 148.79 69.73 142.06 57.18 132.62 44.91
C 111.88 17.97 81.53 4.44 52.85 9.36
C 33.43 12.69 19.40 21.43 12.34 34.58
C 9.59 39.72 8.88 43.80 8.86 54.77
C 8.85 67.42 9.33 69.51 14.78 80.56
C 24.74 100.68 45.80 119.24 73.29 132.13
C 90.04 139.98 100.82 142.66 123.87 144.77
C 156.40 147.73 162.98 151.11 179.51 173.32
C 184.61 180.18 193.46 191.07 199.17 197.53
L 209.56 209.28
L 213.52 205.58
C 215.71 203.53 218.93 199.88 220.68 197.42"/>
<path fill="#000000" stroke="none" d="
M 488.01 308.45
C 475.45 300.05 453.43 271.21 442.25 248.53
C 429.57 222.80 424.41 202.97 424.20 179.36
C 423.99 155.05 430.04 130.25 436.81 127.64
C 444.72 124.60 471.03 146.54 483.54 166.60
C 502.25 196.62 515.01 243.49 515.25 283.11
C 515.35 297.33 514.75 302.77 512.72 306.64
C 508.07 315.49 499.50 316.12 488.01 308.45
M 507.40 292.33
C 508.59 284.40 506.34 261.14 502.51 242.09
C 496.67 212.86 483.80 182.16 469.50 163.27
C 461.76 153.04 445.14 138.34 441.31 138.34
C 438.71 138.34 434.65 151.34 432.90 165.20
C 430.07 187.80 436.37 216.55 450.21 244.07
C 460.52 264.56 484.94 295.62 496.28 302.67
C 501.01 305.61 501.16 305.61 503.73 302.49
C 505.18 300.74 506.82 296.17 507.40 292.33"/>
<path fill="#000000" stroke="none" d="
M 111.19 129.52
C 76.75 120.79 57.86 112.07 43.80 98.40
C 30.87 85.83 26.77 76.73 26.66 60.32
C 26.59 49.93 27.28 46.13 30.23 40.60
C 37.47 26.99 53.68 19.74 73.39 21.33
C 100.61 23.52 126.12 48.29 149.42 95.16
C 156.00 108.40 158.13 114.60 158.84 122.35
C 159.61 130.91 159.31 132.71 156.78 134.56
C 151.83 138.19 140.46 136.92 111.19 129.52
M 150.17 122.65
C 149.88 116.14 134.47 85.46 123.60 69.73
C 108.27 47.55 87.83 31.46 72.38 29.39
C 52.09 26.67 31.14 45.72 34.52 63.78
C 38.21 83.40 55.64 100.46 83.83 112.04
C 96.20 117.12 140.74 128.62 146.39 128.19
C 149.85 127.93 150.38 127.14 150.17 122.65"/>
<path fill="#eaa66a" stroke="none" d="
M 198.67 588.80
C 174.46 582.39 156.14 571.24 138.07 551.94
C 112.37 524.45 98.21 488.35 98.15 450.14
C 98.11 426.98 103.44 403.77 116.13 371.58
C 130.27 335.76 162.04 282.31 182.09 260.59
C 184.13 258.37 190.97 249.68 197.27 241.29
C 211.43 222.40 215.24 217.90 236.74 194.67
C 266.54 162.43 290.40 141.73 329.78 113.92
C 353.32 97.30 399.70 67.61 405.60 65.39
C 411.46 63.17 411.91 63.64 423.73 84.29
C 431.24 97.38 432.61 98.80 451.56 112.84
C 486.39 138.64 496.41 151.99 519.71 203.49
C 522.84 210.43 527.65 231.59 529.39 246.11
C 531.37 262.66 530.39 281.86 526.83 295.98
C 522.57 312.90 522.25 320.80 525.35 330.84
C 528.44 340.79 556.16 396.48 572.82 426.24
C 582.69 443.86 582.75 444.06 579.76 447.43
C 578.08 449.29 573.48 452.22 569.53 453.92
C 562.59 456.92 562.26 456.92 560.08 454.12
C 556.59 449.60 542.82 419.69 523.55 374.82
C 503.55 328.25 502.36 326.57 479.28 312.60
C 449.63 294.64 423.70 257.82 413.18 218.77
C 410.17 207.62 409.49 200.93 409.46 182.57
C 409.45 162.93 410.02 157.82 414.03 142.57
C 417.28 130.18 418.31 123.23 417.59 118.71
C 416.41 111.31 409.91 97.82 405.34 93.25
C 399.17 87.07 388.71 89.86 374.83 101.36
C 370.85 104.65 357.08 114.80 344.26 123.91
C 294.60 159.17 279.06 172.41 250.62 203.68
C 172.18 289.91 126.52 374.91 122.79 441.65
C 118.59 516.74 161.71 567.91 229.09 567.81
C 257.95 567.76 277.48 560.53 295.77 543.10
C 315.16 524.64 329.16 498.48 333.76 472.13
C 346.00 401.90 316.24 326.22 245.07 246.63
L 235.14 235.54
L 241.92 227.74
L 248.69 219.92
L 257.20 229.40
C 297.53 274.31 334.77 343.17 349.33 399.73
C 354.44 419.57 354.72 422.09 354.70 448.79
C 354.69 473.31 354.22 478.60 351.00 489.81
C 342.93 517.96 324.44 547.30 304.20 564.10
C 291.91 574.29 269.26 585.72 254.08 589.40
C 239.53 592.92 213.15 592.63 198.67 588.80
M 507.48 312.68
C 513.27 310.46 515.38 302.45 515.25 283.11
C 515.01 243.49 502.25 196.62 483.54 166.60
C 471.03 146.54 444.72 124.60 436.81 127.64
C 430.04 130.25 423.99 155.05 424.20 179.36
C 424.50 214.75 439.29 252.31 465.97 285.52
C 484.89 309.06 496.72 316.79 507.48 312.68"/>
<path fill="#eaa66a" stroke="none" d="
M 199.17 197.53
C 193.46 191.07 184.61 180.18 179.51 173.32
C 162.98 151.11 156.40 147.73 123.87 144.77
C 100.82 142.66 90.04 139.98 73.29 132.13
C 45.80 119.24 24.74 100.68 14.78 80.56
C 9.33 69.51 8.85 67.42 8.86 54.77
C 8.88 43.80 9.59 39.72 12.34 34.58
C 19.55 21.17 33.78 12.47 53.62 9.38
C 82.72 4.86 111.90 17.98 132.62 44.91
C 142.06 57.18 148.79 69.73 162.48 100.54
C 180.99 142.23 189.86 156.39 213.06 181.34
L 223.87 192.98
L 220.68 197.42
C 218.93 199.88 215.71 203.53 213.52 205.58
L 209.56 209.28
L 199.17 197.53
M 156.78 134.56
C 159.31 132.71 159.61 130.91 158.84 122.35
C 158.13 114.60 156.00 108.40 149.42 95.16
C 126.12 48.29 100.61 23.52 73.39 21.33
C 53.68 19.74 37.47 26.99 30.23 40.60
C 27.28 46.13 26.59 49.93 26.66 60.32
C 26.77 76.73 30.87 85.83 43.80 98.40
C 57.86 112.07 76.75 120.79 111.19 129.52
C 140.46 136.92 151.83 138.19 156.78 134.56"/>
</g>
</svg>
