<?xml version="1.0" encoding="UTF-8" standalone="no"?>
<!DOCTYPE svg PUBLIC "-//W3C//DTD SVG 1.1//EN"
"http://www.w3.org/Graphics/SVG/1.1/DTD/svg11.dtd">
<svg width="342px" height="600px"
xmlns="http://www.w3.org/2000/svg" version="1.1">
<g transform="translate(0000, 0000) scale(1.0000, 1.0000)">
<path fill="#000000" stroke="none" d="
M 131.64 597.42
C 129.08 594.86 129.06 593.12 129.06 389.23
L 129.06 183.61
L 103.72 156.00
C 89.78 140.81 63.75 113.87 45.88 96.13
C 3.45 54.00 -1.29 47.92 0.58 37.94
C 1.64 32.30 9.51 24.05 22.58 14.86
C 27.55 11.38 33.49 6.93 35.79 4.97
C 41.26 0.30 48.03 -0.95 53.56 1.68
C 55.88 2.79 60.59 7.35 64.01 11.85
C 67.43 16.34 77.21 28.13 85.76 38.06
C 129.03 88.40 170.96 136.58 184.31 151.34
L 199.24 167.85
L 207.06 152.62
C 216.91 133.46 221.54 126.80 232.90 115.46
C 249.39 99.01 268.08 88.67 288.97 84.45
C 315.04 79.19 333.70 86.50 340.04 104.44
C 342.37 111.08 342.63 128.13 340.48 134.32
C 334.31 152.05 315.87 171.61 295.57 181.94
C 281.85 188.90 256.23 195.47 236.91 196.95
C 226.79 197.73 225.85 198.04 225.85 200.52
C 225.86 207.56 242.39 296.83 251.13 337.01
C 256.24 360.53 256.46 364.23 252.95 367.74
C 250.58 370.12 248.65 370.32 228.43 370.32
L 206.49 370.32
L 206.49 482.58
C 206.49 593.12 206.45 594.88 203.91 597.42
C 201.46 599.87 199.61 600.00 167.77 600.00
C 135.94 600.00 134.09 599.87 131.64 597.42
M 197.20 590.71
C 198.39 589.52 198.75 544.05 198.75 393.94
L 198.75 198.71
L 167.77 198.71
L 136.80 198.71
L 136.80 393.94
C 136.80 544.05 137.16 589.52 138.35 590.71
C 140.54 592.90 195.00 592.90 197.20 590.71
M 246.14 360.97
C 246.95 359.90 245.74 351.81 242.47 336.77
C 239.77 324.36 234.61 298.22 231.00 278.71
C 227.38 259.20 223.58 239.16 222.52 234.19
C 217.03 208.28 216.58 204.44 217.11 187.10
C 217.60 171.28 218.03 168.72 221.72 159.35
C 229.55 139.50 251.14 117.33 273.52 106.17
C 283.02 101.43 283.65 101.30 297.48 101.29
C 308.77 101.29 312.67 101.78 316.54 103.70
C 323.25 107.05 326.86 112.59 327.53 120.57
C 328.28 129.68 324.28 137.73 313.65 148.46
C 292.91 169.42 262.31 183.23 236.61 183.23
C 225.99 183.23 225.85 183.26 225.85 186.45
C 225.85 190.37 227.77 190.52 244.56 187.77
C 288.14 180.66 315.27 163.86 329.79 134.99
C 336.58 121.48 335.53 109.43 326.77 100.21
C 319.32 92.37 309.86 89.78 296.18 91.83
C 263.83 96.68 231.02 123.11 215.36 156.95
C 206.00 177.17 206.52 170.41 206.50 271.29
L 206.49 362.58
L 225.69 362.58
C 239.53 362.58 245.23 362.13 246.14 360.97
M 198.75 187.74
L 198.75 184.52
L 167.77 184.52
L 136.80 184.52
L 136.80 187.74
L 136.80 190.97
L 167.77 190.97
L 198.75 190.97
L 198.75 187.74
M 189.95 171.94
C 187.83 169.28 184.51 165.65 182.58 163.87
C 180.65 162.09 166.74 146.41 151.68 129.03
C 136.62 111.65 111.67 82.90 96.22 65.16
C 80.79 47.42 64.80 28.54 60.70 23.23
C 51.26 10.97 48.13 8.10 45.92 9.73
C 44.99 10.41 39.41 14.43 33.52 18.65
C 27.61 22.88 19.54 29.35 15.59 33.06
L 8.39 39.78
L 10.94 44.72
C 12.35 47.45 28.90 65.07 47.73 83.87
C 66.55 102.68 94.11 131.28 108.95 147.42
L 135.96 176.77
L 164.88 176.77
L 193.80 176.77
L 189.95 171.94
M 252.12 173.45
C 261.46 171.05 277.94 163.55 287.89 157.19
C 301.84 148.26 317.39 131.73 319.42 123.69
C 321.12 116.92 309.52 108.48 298.42 108.41
C 274.28 108.30 232.64 145.28 227.63 171.29
L 226.82 175.48
L 235.50 175.48
C 240.28 175.48 247.76 174.57 252.12 173.45"/>
<path fill="#e19856" stroke="none" d="
M 138.35 590.71
C 137.16 589.52 136.80 544.05 136.80 393.94
L 136.80 198.71
L 167.77 198.71
L 198.75 198.71
L 198.75 393.94
C 198.75 544.05 198.39 589.52 197.20 590.71
C 195.00 592.90 140.54 592.90 138.35 590.71"/>
<path fill="#e19856" stroke="none" d="
M 108.95 147.42
C 94.11 131.28 66.55 102.68 47.73 83.87
C 28.90 65.07 12.35 47.45 10.94 44.72
L 8.39 39.78
L 15.59 33.06
C 21.48 27.55 38.58 14.61 46.19 9.88
C 48.47 8.46 51.40 11.16 60.70 23.23
C 64.80 28.54 80.79 47.42 96.22 65.16
C 111.67 82.90 136.62 111.65 151.68 129.03
C 166.74 146.41 180.65 162.09 182.58 163.87
C 184.51 165.65 187.83 169.28 189.95 171.94
L 193.80 176.77
L 164.88 176.77
L 135.96 176.77
L 108.95 147.42"/>
<path fill="#fdcca1" stroke="none" d="
M 206.50 271.29
C 206.52 170.41 206.00 177.17 215.36 156.95
C 231.06 123.03 264.35 96.28 296.38 91.85
C 310.28 89.92 319.38 92.43 326.77 100.21
C 335.53 109.43 336.58 121.48 329.79 134.99
C 315.27 163.86 288.14 180.66 244.56 187.77
C 227.77 190.52 225.85 190.37 225.85 186.45
C 225.85 183.26 225.99 183.23 236.61 183.23
C 262.31 183.23 292.91 169.42 313.65 148.46
C 324.28 137.73 328.28 129.68 327.53 120.57
C 326.86 112.59 323.25 107.05 316.54 103.70
C 312.67 101.78 308.77 101.29 297.48 101.29
C 283.65 101.30 283.02 101.43 273.52 106.17
C 251.14 117.33 229.55 139.50 221.72 159.35
C 218.03 168.72 217.60 171.28 217.11 187.10
C 216.58 204.44 217.03 208.28 222.52 234.19
C 223.58 239.16 227.38 259.20 231.00 278.71
C 234.61 298.22 239.77 324.36 242.47 336.77
C 245.74 351.81 246.95 359.90 246.14 360.97
C 245.23 362.13 239.53 362.58 225.69 362.58
L 206.49 362.58
L 206.50 271.29"/>
<path fill="#fdcca1" stroke="none" d="
M 136.80 187.74
L 136.80 184.52
L 167.77 184.52
L 198.75 184.52
L 198.75 187.74
L 198.75 190.97
L 167.77 190.97
L 136.80 190.97
L 136.80 187.74"/>
</g>
</svg>
