<?xml version="1.0" encoding="UTF-8" standalone="no"?>
<!DOCTYPE svg PUBLIC "-//W3C//DTD SVG 1.1//EN"
"http://www.w3.org/Graphics/SVG/1.1/DTD/svg11.dtd">
<svg width="129px" height="600px"
xmlns="http://www.w3.org/2000/svg" version="1.1">
<g transform="translate(0000, 0000) scale(1.0000, 1.0000)">
<path fill="#000000" stroke="none" d="
M 93.82 597.41
C 91.24 594.85 91.21 593.08 91.19 375.32
C 91.16 165.41 91.06 155.59 88.78 150.61
C 87.46 147.75 81.65 139.24 75.86 131.70
C 70.08 124.18 56.21 104.99 45.05 89.07
C 33.89 73.15 20.22 54.03 14.69 46.55
C 2.35 29.94 0.00 25.50 0.00 18.80
C 0.01 11.74 3.78 6.09 10.71 2.77
C 22.19 -2.75 28.78 -0.41 36.56 11.94
C 48.02 30.10 101.92 109.46 110.30 120.48
C 115.53 127.34 121.87 136.71 124.40 141.27
L 129.00 149.57
L 129.00 372.19
C 129.00 593.11 128.97 594.85 126.39 597.41
C 124.11 599.68 122.05 600.00 110.11 600.00
C 98.16 600.00 96.10 599.68 93.82 597.41
M 119.62 590.69
C 120.82 589.50 121.18 539.19 121.18 372.12
L 121.18 155.08
L 118.02 148.89
C 116.28 145.49 110.26 136.63 104.66 129.22
C 93.61 114.61 35.65 29.22 32.04 22.23
C 30.82 19.88 27.74 15.67 25.21 12.88
C 20.82 8.06 20.43 7.90 17.13 9.61
C 15.23 10.59 12.34 12.81 10.71 14.55
C 6.97 18.52 7.77 20.96 16.63 32.56
C 20.16 37.20 27.08 46.76 31.98 53.79
C 50.66 80.60 77.11 117.43 84.76 127.28
C 89.13 132.92 94.13 140.33 95.88 143.73
L 99.03 149.91
L 99.03 369.53
C 99.03 538.62 99.40 589.50 100.59 590.69
C 102.64 592.72 117.57 592.72 119.62 590.69"/>
<path fill="#c57a36" stroke="none" d="
M 100.59 590.69
C 99.40 589.50 99.03 538.62 99.03 369.53
L 99.03 149.91
L 95.88 143.73
C 94.13 140.33 89.13 132.92 84.76 127.28
C 77.11 117.43 50.66 80.60 31.98 53.79
C 27.08 46.76 20.16 37.20 16.63 32.56
C 7.02 19.97 6.66 18.36 12.27 13.27
C 14.82 10.95 18.02 9.05 19.39 9.05
C 22.18 9.05 28.80 15.97 32.08 22.32
C 35.66 29.24 93.70 114.71 104.66 129.22
C 110.26 136.63 116.28 145.49 118.02 148.89
L 121.18 155.08
L 121.18 372.12
C 121.18 539.19 120.82 589.50 119.62 590.69
C 117.57 592.72 102.64 592.72 100.59 590.69"/>
</g>
</svg>
