<?xml version="1.0" encoding="UTF-8" standalone="no"?>
<!DOCTYPE svg PUBLIC "-//W3C//DTD SVG 1.1//EN"
"http://www.w3.org/Graphics/SVG/1.1/DTD/svg11.dtd">
<svg width="600px" height="224px"
xmlns="http://www.w3.org/2000/svg" version="1.1">
<g transform="translate(0000, 0000) scale(1.0000, 1.0000)">
<path fill="#000000" stroke="none" d="
M 211.44 222.70
C 185.88 220.29 162.93 213.93 142.33 203.57
C 93.69 179.05 53.79 137.53 21.69 78.04
C 5.35 47.77 -0.56 30.31 0.21 14.61
C 0.70 4.66 2.79 1.56 9.73 0.43
C 15.40 -0.49 18.76 2.81 29.25 19.66
C 68.07 82.01 108.96 123.09 151.00 141.97
C 176.15 153.26 197.14 157.77 224.40 157.73
C 245.26 157.69 259.80 155.36 276.46 149.37
C 312.80 136.31 349.49 107.04 372.64 72.68
C 377.73 65.14 383.85 57.10 386.24 54.81
L 390.61 50.64
L 422.38 49.92
C 457.02 49.15 465.18 48.03 495.32 39.90
C 514.46 34.76 551.04 23.23 559.52 19.68
C 563.12 18.17 570.62 15.50 576.19 13.75
C 587.68 10.14 592.65 10.41 597.15 14.92
L 600.00 17.77
L 600.00 69.05
C 600.00 132.43 601.90 128.00 577.19 122.23
C 540.95 113.80 499.43 108.08 473.81 108.02
C 448.20 107.95 437.75 109.56 425.60 115.46
C 412.42 121.84 403.17 129.99 381.54 154.29
C 356.90 181.96 346.51 190.54 323.98 201.87
C 309.46 209.17 297.68 213.43 281.55 217.24
C 259.01 222.56 232.14 224.66 211.44 222.70
M 248.21 215.04
C 269.88 213.47 296.85 205.96 316.83 195.93
C 340.14 184.23 353.83 172.56 381.92 140.48
C 403.94 115.30 419.13 105.41 440.15 102.56
C 473.55 98.04 511.60 101.00 569.58 112.62
C 584.32 115.57 590.17 116.33 591.31 115.38
C 592.54 114.36 592.86 104.51 592.86 68.45
C 592.86 27.93 592.64 22.59 590.93 20.87
C 588.55 18.49 585.64 19.03 570.24 24.71
C 549.64 32.29 511.60 44.06 492.26 48.83
C 464.48 55.67 451.87 57.19 423.20 57.19
C 391.50 57.19 394.88 55.40 377.46 81.33
C 364.24 101.01 339.52 124.69 317.64 138.63
C 284.61 159.70 246.24 168.51 205.10 164.52
C 140.87 158.28 89.94 123.33 39.45 50.90
C 32.95 41.58 24.29 28.60 20.19 22.04
C 16.08 15.49 12.14 9.73 11.43 9.26
C 9.45 7.94 7.14 11.86 7.14 16.53
C 7.14 28.04 19.63 57.95 36.50 86.85
C 75.82 154.20 132.68 200.02 192.04 212.17
C 205.19 214.86 224.79 216.74 233.33 216.12
C 236.27 215.91 242.98 215.42 248.21 215.04"/>
<path fill="#f4a721" stroke="none" d="
M 216.07 215.58
C 191.11 213.63 168.71 207.31 146.43 195.92
C 109.19 176.88 77.18 147.71 49.75 107.83
C 28.35 76.73 7.14 31.51 7.14 16.99
C 7.14 6.30 11.04 7.10 18.45 19.34
C 21.73 24.72 29.96 37.19 36.75 47.04
C 81.79 112.36 125.67 147.38 178.50 160.18
C 211.24 168.12 250.37 166.80 280.30 156.74
C 290.77 153.21 307.43 145.15 317.64 138.63
C 339.52 124.69 364.24 101.01 377.46 81.33
C 394.88 55.40 391.50 57.19 423.20 57.19
C 451.87 57.19 464.48 55.67 492.26 48.83
C 511.60 44.06 549.64 32.29 570.24 24.71
C 585.64 19.03 588.55 18.49 590.93 20.87
C 592.64 22.59 592.86 27.93 592.86 68.45
C 592.86 104.51 592.54 114.36 591.31 115.38
C 590.17 116.33 584.32 115.57 569.58 112.62
C 511.60 101.00 473.55 98.04 440.15 102.56
C 419.13 105.41 403.94 115.30 381.92 140.48
C 353.83 172.56 340.14 184.23 316.83 195.93
C 296.85 205.96 269.88 213.47 248.21 215.04
C 242.98 215.42 236.27 215.91 233.33 216.12
C 230.39 216.34 222.62 216.09 216.07 215.58"/>
</g>
</svg>
