<?xml version="1.0" encoding="UTF-8" standalone="no"?>
<!DOCTYPE svg PUBLIC "-//W3C//DTD SVG 1.1//EN"
"http://www.w3.org/Graphics/SVG/1.1/DTD/svg11.dtd">
<svg width="158px" height="600px"
xmlns="http://www.w3.org/2000/svg" version="1.1">
<g transform="translate(0000, 0000) scale(1.0000, 1.0000)">
<path fill="#000000" stroke="none" d="
M 103.48 597.10
C 94.27 591.02 89.26 574.80 88.43 548.39
C 87.91 531.64 88.35 526.30 92.65 497.42
C 95.29 479.68 97.74 461.55 98.09 457.14
C 98.71 449.25 98.63 449.02 93.47 443.16
C 90.57 439.88 87.18 434.49 85.94 431.19
C 82.65 422.40 78.42 416.14 73.00 412.03
C 70.39 410.03 66.14 406.49 63.58 404.18
C 59.08 400.12 59.00 399.91 61.44 398.05
C 65.75 394.76 76.80 391.24 87.97 389.61
L 98.70 388.05
L 98.21 373.70
C 97.77 360.75 97.35 358.68 93.92 352.46
C 88.84 343.28 78.20 333.82 66.18 327.85
C 53.24 321.41 46.29 319.24 29.14 316.32
C 10.10 313.08 6.04 311.24 2.49 304.31
C -0.34 298.80 -0.36 298.26 0.40 255.50
C 1.41 199.16 4.91 166.36 13.71 130.61
C 20.90 101.46 35.04 67.14 48.27 46.77
C 61.78 25.96 79.60 9.81 95.67 3.79
C 112.34 -2.45 132.33 -0.35 140.75 8.54
C 149.32 17.60 147.30 28.58 135.98 34.37
C 132.78 36.03 124.51 39.94 117.59 43.08
C 88.93 56.14 72.19 82.14 62.85 128.08
C 52.88 177.14 57.40 219.78 76.72 259.03
C 82.70 271.20 84.52 273.54 99.22 288.21
C 122.42 311.34 121.71 309.26 121.72 353.16
L 121.74 388.27
L 126.59 389.06
C 139.74 391.21 144.96 392.57 151.20 395.45
C 154.94 397.17 158.00 399.14 158.00 399.81
C 158.00 401.03 153.25 405.34 144.53 412.03
C 139.14 416.15 134.92 422.43 131.63 431.19
C 130.39 434.49 127.01 439.88 124.11 443.16
C 118.94 449.02 118.86 449.25 119.48 457.14
C 119.83 461.55 122.28 479.68 124.92 497.42
C 129.22 526.30 129.66 531.64 129.15 548.39
C 128.54 567.95 126.63 577.74 121.38 588.39
C 118.91 593.35 111.71 600.00 108.79 600.00
C 108.28 600.00 105.90 598.70 103.48 597.10
M 111.97 588.90
C 115.06 585.82 117.58 579.03 119.95 567.38
C 123.12 551.79 121.79 525.28 116.01 489.03
C 109.54 448.45 109.60 447.35 119.26 436.36
C 121.96 433.30 124.54 429.12 124.98 427.07
C 126.19 421.60 135.03 408.59 139.88 405.15
C 143.66 402.46 143.88 402.00 141.94 400.58
C 134.21 394.95 83.36 394.95 75.63 400.58
C 73.69 402.00 73.91 402.46 77.69 405.15
C 82.55 408.59 91.38 421.60 92.60 427.07
C 93.04 429.12 95.62 433.30 98.31 436.36
C 107.97 447.35 108.04 448.45 101.56 489.03
C 94.17 535.47 94.19 564.55 101.64 582.32
C 103.61 587.02 106.87 590.97 108.79 590.97
C 109.40 590.97 110.83 590.04 111.97 588.90
M 113.95 355.16
C 113.95 335.39 113.38 319.91 112.56 316.93
C 111.51 313.15 106.95 307.59 94.06 294.35
C 79.52 279.39 76.09 275.05 71.00 265.16
C 54.87 233.85 47.75 196.92 50.61 159.34
C 53.80 117.34 65.44 82.21 83.66 59.63
C 94.06 46.74 101.15 41.54 119.08 33.64
C 134.75 26.74 138.57 24.17 138.57 20.54
C 138.57 16.41 132.45 10.72 126.36 9.19
C 84.00 -1.45 39.95 52.19 19.49 139.35
C 12.36 169.75 9.13 202.46 8.17 254.22
C 7.49 291.43 7.64 296.65 9.51 300.25
C 12.02 305.08 15.02 306.21 34.36 309.47
C 64.18 314.52 87.95 328.18 99.98 347.20
C 103.94 353.46 106.20 364.05 106.20 376.36
L 106.20 388.39
L 110.08 388.39
L 113.97 388.39
L 113.95 355.16"/>
<path fill="#f4a721" stroke="none" d="
M 106.20 376.36
C 106.20 364.05 103.94 353.46 99.98 347.20
C 87.95 328.18 64.18 314.52 34.36 309.47
C 15.02 306.21 12.02 305.08 9.51 300.25
C 7.64 296.65 7.49 291.43 8.17 254.22
C 8.94 213.37 10.74 188.84 14.89 162.98
C 22.18 117.55 37.83 75.52 58.64 45.43
C 66.87 33.55 83.39 17.99 92.49 13.54
C 108.22 5.87 127.72 6.17 135.01 14.19
C 142.02 21.88 139.91 24.46 119.08 33.64
C 101.15 41.54 94.06 46.74 83.66 59.63
C 65.44 82.21 53.80 117.34 50.61 159.34
C 47.75 196.92 54.87 233.85 71.00 265.16
C 76.09 275.05 79.52 279.39 94.06 294.35
C 106.95 307.59 111.51 313.15 112.56 316.93
C 113.38 319.91 113.95 335.39 113.95 355.16
L 113.97 388.39
L 110.08 388.39
L 106.20 388.39
L 106.20 376.36"/>
<path fill="#c57a36" stroke="none" d="
M 105.60 588.90
C 102.52 585.82 99.99 579.03 97.62 567.38
C 94.45 551.79 95.78 525.28 101.56 489.03
C 108.04 448.48 107.96 447.34 98.36 436.43
C 95.69 433.38 93.12 429.32 92.64 427.39
C 91.19 421.48 85.41 412.54 79.38 406.86
C 74.20 401.99 73.88 401.35 76.03 400.19
C 79.65 398.27 97.27 396.13 109.47 396.13
C 122.44 396.13 138.94 398.39 141.94 400.58
C 143.88 402.00 143.66 402.46 139.88 405.15
C 135.03 408.59 126.19 421.60 124.98 427.07
C 124.54 429.12 121.96 433.30 119.26 436.36
C 109.60 447.35 109.54 448.45 116.01 489.03
C 123.41 535.47 123.38 564.55 115.94 582.32
C 113.97 587.02 110.70 590.97 108.79 590.97
C 108.18 590.97 106.74 590.04 105.60 588.90"/>
</g>
</svg>
