<?xml version="1.0" encoding="UTF-8" standalone="no"?>
<!DOCTYPE svg PUBLIC "-//W3C//DTD SVG 1.1//EN"
"http://www.w3.org/Graphics/SVG/1.1/DTD/svg11.dtd">
<svg width="664px" height="500px"
xmlns="http://www.w3.org/2000/svg" version="1.1">
<g transform="translate(0000, 0000) scale(1.0000, 1.0000)">
<path fill="#000000" stroke="none" d="
M 529.46 498.54
C 504.47 493.64 483.76 482.21 467.06 464.13
C 454.18 450.17 445.90 435.00 441.32 416.95
L 439.50 409.76
L 410.85 402.35
C 395.09 398.29 379.36 393.66 375.90 392.10
C 368.37 388.69 367.34 385.96 369.38 374.93
C 371.92 361.24 371.57 359.81 365.12 356.95
C 361.97 355.56 341.04 349.55 318.60 343.58
C 296.15 337.62 257.90 327.41 233.60 320.90
C 209.31 314.37 181.02 306.83 170.73 304.13
C 160.44 301.43 147.28 297.50 141.47 295.37
C 135.68 293.26 126.44 290.31 120.97 288.81
C 111.85 286.31 110.68 286.24 107.04 288.13
C 104.86 289.25 103.08 290.74 103.08 291.42
C 103.08 293.97 81.49 324.81 74.63 332.05
C 63.31 344.00 64.15 344.29 30.39 316.51
C 4.00 294.79 0.00 290.44 0.00 283.52
C 0.00 277.33 4.66 272.73 10.92 272.73
C 15.53 272.73 28.33 279.01 44.71 289.30
C 51.27 293.42 57.39 296.79 58.31 296.79
C 63.24 296.79 71.89 281.08 76.41 263.92
C 79.61 251.82 80.32 227.15 77.56 223.84
C 75.28 221.07 67.97 221.47 51.13 225.27
C 32.74 229.41 25.07 229.59 21.42 225.94
C 16.17 220.70 18.50 212.75 26.48 208.73
C 35.54 204.16 67.19 192.18 76.84 189.68
C 97.65 184.28 102.26 186.97 107.03 207.25
C 108.88 215.09 110.27 226.43 110.74 237.27
C 111.14 246.84 111.98 255.68 112.61 256.90
C 114.10 259.79 129.11 264.68 156.63 271.27
C 168.78 274.17 210.34 284.96 249.00 295.25
C 287.66 305.53 327.11 315.57 336.69 317.55
C 346.26 319.55 359.71 322.94 366.59 325.12
C 373.47 327.30 379.26 328.89 379.44 328.65
C 380.02 327.93 387.74 296.71 394.77 266.71
C 405.19 222.33 412.19 202.58 422.12 189.57
L 426.75 183.53
L 412.51 172.21
C 404.68 165.99 386.53 151.97 372.16 141.06
C 323.97 104.45 308.95 90.11 300.13 72.29
C 295.68 63.32 295.20 61.27 295.31 52.21
C 295.48 38.45 299.31 28.93 308.81 18.69
C 317.53 9.29 328.69 3.29 341.37 1.19
C 358.17 -1.59 382.13 2.57 398.01 11.03
C 407.85 16.27 422.08 29.36 431.48 41.83
C 438.90 51.67 462.23 88.50 484.60 125.67
C 491.47 137.07 497.77 147.17 498.63 148.10
C 499.89 149.49 502.70 149.41 513.49 147.63
C 536.10 143.93 550.56 146.23 585.50 159.06
C 595.62 162.79 610.34 167.69 618.22 169.96
C 642.94 177.09 647.27 180.64 647.17 193.76
C 647.12 199.69 644.33 209.10 633.46 239.97
C 625.95 261.30 618.60 281.75 617.12 285.43
L 614.41 292.11
L 618.12 294.65
C 625.11 299.45 643.25 319.00 647.73 326.58
C 653.12 335.64 657.76 346.84 660.96 358.45
C 664.27 370.45 664.27 403.61 660.96 415.61
C 654.78 438.09 647.16 451.30 631.19 467.23
C 615.38 483.03 602.10 490.72 580.25 496.75
C 570.75 499.37 539.30 500.48 529.46 498.54
M 574.90 491.34
C 596.42 485.56 609.98 477.71 625.83 461.89
C 641.82 445.92 649.52 432.57 655.58 410.27
C 658.70 398.74 658.70 375.32 655.58 363.80
C 649.52 341.50 641.82 328.14 625.83 312.18
C 609.85 296.22 596.48 288.53 574.15 282.47
C 562.61 279.36 539.15 279.36 527.61 282.47
C 505.28 288.53 491.91 296.22 475.92 312.18
C 459.94 328.14 452.24 341.50 446.18 363.80
C 443.06 375.32 443.06 398.74 446.18 410.27
C 451.65 430.39 459.34 444.61 472.42 458.78
C 489.10 476.86 509.77 488.26 534.81 493.21
C 543.77 494.97 565.06 493.98 574.90 491.34
M 438.12 383.36
C 438.84 365.25 440.69 355.98 446.37 341.95
C 457.48 314.49 484.09 289.18 510.72 280.76
C 521.67 277.30 521.63 277.17 505.93 259.05
C 495.48 246.99 435.86 189.84 433.74 189.84
C 431.85 189.84 424.45 199.13 421.18 205.60
C 416.43 215.01 410.22 234.64 404.18 259.36
C 401.21 271.48 395.20 296.16 390.81 314.17
C 386.42 332.18 381.97 349.93 380.93 353.61
C 378.51 362.11 376.18 375.04 376.18 379.97
C 376.18 383.24 377.09 384.18 382.54 386.56
C 387.84 388.88 431.05 400.52 435.91 400.94
C 436.91 401.03 437.64 395.23 438.12 383.36
M 376.02 344.33
C 376.85 341.06 377.52 338.11 377.52 337.78
C 377.52 335.92 357.46 329.72 335.96 324.93
C 322.40 321.90 278.76 310.80 238.99 300.24
C 199.21 289.69 158.53 279.16 148.60 276.84
C 125.04 271.35 110.67 266.58 107.63 263.22
C 105.62 261.00 105.02 257.18 104.25 241.56
C 102.97 215.87 98.31 196.72 92.83 194.63
C 89.29 193.26 74.98 197.42 51.54 206.59
C 26.25 216.50 24.66 217.37 26.92 220.09
C 29.00 222.61 31.94 222.39 48.19 218.58
C 55.93 216.76 66.32 215.28 71.29 215.27
C 83.71 215.23 85.01 216.70 86.15 232.07
C 88.61 265.33 73.62 304.77 58.52 304.81
C 55.48 304.81 47.99 301.00 36.48 293.60
C 31.51 290.39 23.60 285.84 18.90 283.49
C 11.42 279.73 10.11 279.44 8.41 281.14
C 5.45 284.09 7.98 287.19 24.77 301.12
C 32.87 307.85 42.81 316.12 46.85 319.53
C 58.35 329.18 62.57 331.97 64.58 331.20
C 67.11 330.23 83.94 307.78 91.70 294.99
C 98.40 284.00 103.80 279.43 110.14 279.41
C 114.91 279.41 129.85 283.42 149.61 290.04
C 158.26 292.93 186.12 300.79 211.52 307.51
C 321.49 336.62 348.01 343.72 358.10 346.76
C 373.67 351.46 374.24 351.39 376.02 344.33
M 614.51 271.26
C 616.06 266.06 622.45 247.57 628.71 230.16
C 634.98 212.77 640.18 196.60 640.26 194.25
C 640.56 186.38 633.62 181.59 614.55 176.52
C 608.34 174.88 592.62 169.72 579.62 165.05
C 547.22 153.44 537.22 151.52 520.76 153.74
C 513.76 154.69 507.04 155.83 505.82 156.27
C 504.01 156.94 508.72 165.75 531.67 204.55
C 547.10 230.66 561.88 256.22 564.49 261.36
C 569.86 271.95 573.76 276.74 576.98 276.74
C 579.89 276.74 596.94 282.55 601.88 285.23
C 605.61 287.25 605.90 287.19 608.72 284.02
C 610.36 282.21 612.95 276.47 614.51 271.26
M 550.57 274.08
L 562.31 274.06
L 559.43 268.38
C 552.63 254.95 478.24 129.91 451.85 87.57
C 424.48 43.62 414.20 30.87 397.46 20.07
C 387.62 13.72 371.64 8.37 359.04 7.19
C 337.09 5.16 315.40 17.23 305.79 36.87
C 298.61 51.52 301.61 63.97 316.91 82.89
C 326.67 94.96 336.86 103.84 369.48 128.69
C 392.31 146.10 419.74 167.59 436.81 181.47
C 440.65 184.59 456.75 199.33 472.60 214.22
C 499.34 239.34 517.52 258.70 525.72 270.75
C 528.83 275.31 529.47 275.64 533.96 274.89
C 536.64 274.45 544.12 274.09 550.57 274.08"/>
<path fill="#000000" stroke="none" d="
M 529.46 479.41
C 496.88 471.97 471.32 448.88 461.05 417.58
C 457.52 406.80 457.17 404.08 457.17 387.03
C 457.17 369.99 457.52 367.26 461.05 356.48
C 470.24 328.49 492.28 306.50 520.34 297.31
C 531.07 293.80 533.84 293.45 550.88 293.45
C 567.92 293.45 570.69 293.80 581.41 297.31
C 609.47 306.50 631.52 328.49 640.71 356.48
C 644.24 367.26 644.59 369.99 644.59 387.03
C 644.59 404.08 644.24 406.80 640.71 417.58
C 631.62 445.25 609.70 467.33 582.14 476.56
C 572.81 479.69 568.20 480.39 554.23 480.78
C 543.24 481.08 534.73 480.61 529.46 479.41
M 546.19 439.93
C 546.19 404.36 546.15 403.92 543.34 403.02
C 540.95 402.26 536.62 405.96 516.54 425.99
C 503.37 439.12 492.75 450.75 492.97 451.82
C 493.53 454.79 508.28 464.68 518.08 468.66
C 525.68 471.76 539.54 475.51 544.52 475.83
C 545.82 475.91 546.19 467.90 546.19 439.93
M 552.89 439.84
C 552.89 408.65 552.62 403.74 550.88 403.74
C 549.14 403.74 548.87 408.65 548.87 439.84
C 548.87 471.03 549.14 475.94 550.88 475.94
C 552.62 475.94 552.89 471.03 552.89 439.84
M 576.92 470.95
C 587.57 467.63 607.68 455.99 608.71 452.53
C 608.94 451.79 598.10 440.19 584.61 426.74
C 566.26 408.42 559.54 402.51 557.84 403.16
C 555.78 403.94 555.56 407.41 555.56 440.04
L 555.56 476.06
L 560.58 475.27
C 563.34 474.83 570.69 472.89 576.92 470.95
M 536.53 400.05
C 535.31 398.58 530.34 402.89 511.21 421.97
C 492.24 440.88 487.71 446.08 488.92 447.54
C 490.14 449.01 495.11 444.71 514.24 425.63
C 533.21 406.71 537.75 401.51 536.53 400.05
M 590.20 422.95
C 571.79 404.55 566.72 400.15 565.26 401.36
C 563.78 402.58 567.96 407.41 586.53 425.98
C 604.94 444.39 610.01 448.78 611.47 447.57
C 612.94 446.35 608.76 441.52 590.20 422.95
M 624.60 434.36
C 631.17 424.64 637.29 408.88 639.23 396.72
L 640.02 391.71
L 603.96 391.71
C 571.28 391.71 567.81 391.93 567.02 393.98
C 566.38 395.68 572.30 402.39 590.64 420.72
C 604.11 434.18 615.73 445.01 616.46 444.79
C 617.21 444.57 620.87 439.88 624.60 434.36
M 510.92 419.59
C 525.59 404.95 534.98 394.60 534.55 393.52
C 534.00 392.06 526.82 391.71 497.80 391.71
L 461.73 391.71
L 462.52 396.72
C 464.37 408.26 470.56 424.48 476.75 433.96
C 480.32 439.40 483.98 443.85 484.91 443.85
C 485.83 443.85 497.54 432.93 510.92 419.59
M 557.64 393.78
C 559.45 391.98 560.92 388.94 560.92 387.03
C 560.92 385.12 559.45 382.09 557.64 380.28
C 555.83 378.48 552.79 377.01 550.88 377.01
C 548.96 377.01 545.93 378.48 544.12 380.28
C 542.31 382.09 540.84 385.12 540.84 387.03
C 540.84 388.94 542.31 391.98 544.12 393.78
C 545.93 395.59 548.96 397.06 550.88 397.06
C 552.79 397.06 555.83 395.59 557.64 393.78
M 534.15 387.03
C 534.15 385.29 529.23 385.03 498.00 385.03
C 466.77 385.03 461.85 385.29 461.85 387.03
C 461.85 388.77 466.77 389.04 498.00 389.04
C 529.23 389.04 534.15 388.77 534.15 387.03
M 639.90 387.03
C 639.90 385.29 634.99 385.03 603.76 385.03
C 572.53 385.03 567.61 385.29 567.61 387.03
C 567.61 388.77 572.53 389.04 603.76 389.04
C 634.99 389.04 639.90 388.77 639.90 387.03
M 534.55 380.55
C 535.32 378.53 487.67 330.21 484.91 330.21
C 483.98 330.21 480.32 334.67 476.75 340.11
C 470.56 349.59 464.37 365.80 462.52 377.34
L 461.73 382.35
L 497.80 382.35
C 526.82 382.35 534.00 382.01 534.55 380.55
M 639.23 377.34
C 637.41 365.88 631.20 349.57 625.11 340.25
C 621.60 334.91 618.02 330.08 617.13 329.55
C 616.17 328.94 613.92 330.15 611.54 332.51
C 607.75 336.30 607.64 336.76 609.06 342.06
C 610.87 348.77 609.74 355.98 606.41 358.98
C 602.82 362.22 594.27 362.99 589.47 360.52
L 585.46 358.45
L 575.82 368.14
C 561.28 382.75 560.46 382.35 603.96 382.35
L 640.02 382.35
L 639.23 377.34
M 514.56 348.76
C 495.62 329.81 490.41 325.28 488.95 326.50
C 487.48 327.71 491.79 332.67 510.89 351.78
C 529.83 370.72 535.04 375.25 536.50 374.04
C 537.97 372.82 533.66 367.86 514.56 348.76
M 611.50 326.52
C 610.28 325.05 605.31 329.36 586.18 348.44
C 567.21 367.35 562.67 372.55 563.89 374.01
C 565.11 375.48 570.08 371.18 589.21 352.10
C 608.18 333.18 612.71 327.98 611.50 326.52
M 544.08 370.84
C 545.93 370.13 546.19 366.06 546.19 338.86
L 546.19 307.69
L 542.73 303.58
C 540.83 301.31 538.25 299.48 537.04 299.48
C 527.85 299.56 495.24 316.04 493.06 321.70
C 492.50 323.16 499.50 331.02 516.21 347.73
C 529.37 360.88 540.54 371.66 541.05 371.66
C 541.55 371.66 542.91 371.30 544.08 370.84
M 570.09 361.83
L 579.86 352.01
L 577.43 348.05
C 576.07 345.87 570.76 338.80 565.60 332.33
L 556.23 320.55
L 555.87 345.00
C 555.51 368.73 555.91 371.52 559.62 371.63
C 560.00 371.64 564.72 367.23 570.09 361.83
M 552.89 334.22
C 552.89 303.03 552.62 298.13 550.88 298.13
C 549.14 298.13 548.87 303.03 548.87 334.22
C 548.87 365.41 549.14 370.32 550.88 370.32
C 552.62 370.32 552.89 365.41 552.89 334.22
M 600.81 352.31
C 602.47 350.20 603.17 347.77 602.74 345.53
L 602.07 342.05
L 596.84 347.14
C 592.07 351.79 591.82 352.38 593.93 353.93
C 597.12 356.26 597.84 356.10 600.81 352.31
M 590.38 320.64
C 586.49 313.03 582.78 306.14 582.14 305.32
C 580.93 303.78 569.57 300.37 560.58 298.85
C 555.68 298.03 555.56 298.11 555.56 302.11
C 555.56 305.35 558.87 310.33 571.17 325.67
L 586.80 345.11
L 592.11 339.80
L 597.44 334.48
L 590.38 320.64
M 608.36 320.74
C 607.29 319.00 595.73 311.22 595.73 312.23
C 595.73 312.71 597.68 316.34 600.08 320.29
C 604.39 327.41 604.45 327.45 606.76 324.69
C 608.04 323.17 608.76 321.38 608.36 320.74"/>
<path fill="#c55436" stroke="none" d="
M 548.87 439.84
C 548.87 408.65 549.14 403.74 550.88 403.74
C 552.62 403.74 552.89 408.65 552.89 439.84
C 552.89 471.03 552.62 475.94 550.88 475.94
C 549.14 475.94 548.87 471.03 548.87 439.84"/>
<path fill="#c55436" stroke="none" d="
M 488.92 447.54
C 487.71 446.08 492.24 440.88 511.21 421.97
C 530.34 402.89 535.31 398.58 536.53 400.05
C 537.75 401.51 533.21 406.71 514.24 425.63
C 495.11 444.71 490.14 449.01 488.92 447.54"/>
<path fill="#c55436" stroke="none" d="
M 586.53 425.98
C 567.96 407.41 563.78 402.58 565.26 401.36
C 566.72 400.15 571.79 404.55 590.20 422.95
C 608.76 441.52 612.94 446.35 611.47 447.57
C 610.01 448.78 604.94 444.39 586.53 425.98"/>
<path fill="#c55436" stroke="none" d="
M 461.85 387.03
C 461.85 385.29 466.77 385.03 498.00 385.03
C 529.23 385.03 534.15 385.29 534.15 387.03
C 534.15 388.77 529.23 389.04 498.00 389.04
C 466.77 389.04 461.85 388.77 461.85 387.03"/>
<path fill="#c55436" stroke="none" d="
M 567.61 387.03
C 567.61 385.29 572.53 385.03 603.76 385.03
C 634.99 385.03 639.90 385.29 639.90 387.03
C 639.90 388.77 634.99 389.04 603.76 389.04
C 572.53 389.04 567.61 388.77 567.61 387.03"/>
<path fill="#c55436" stroke="none" d="
M 510.89 351.78
C 491.79 332.67 487.48 327.71 488.95 326.50
C 490.41 325.28 495.62 329.81 514.56 348.76
C 533.66 367.86 537.97 372.82 536.50 374.04
C 535.04 375.25 529.83 370.72 510.89 351.78"/>
<path fill="#c55436" stroke="none" d="
M 563.89 374.01
C 562.67 372.55 567.21 367.35 586.18 348.44
C 605.31 329.36 610.28 325.05 611.50 326.52
C 612.71 327.98 608.18 333.18 589.21 352.10
C 570.08 371.18 565.11 375.48 563.89 374.01"/>
<path fill="#c55436" stroke="none" d="
M 548.87 334.22
C 548.87 303.03 549.14 298.13 550.88 298.13
C 552.62 298.13 552.89 303.03 552.89 334.22
C 552.89 365.41 552.62 370.32 550.88 370.32
C 549.14 370.32 548.87 365.41 548.87 334.22"/>
<path fill="#c55436" stroke="none" d="
M 593.93 353.93
C 591.82 352.38 592.07 351.79 596.84 347.14
L 602.07 342.05
L 602.74 345.53
C 603.17 347.77 602.47 350.20 600.81 352.31
C 597.84 356.10 597.12 356.26 593.93 353.93"/>
<path fill="#c55436" stroke="none" d="
M 571.17 325.67
C 558.87 310.33 555.56 305.35 555.56 302.11
C 555.56 298.11 555.68 298.03 560.58 298.85
C 569.57 300.37 580.93 303.78 582.14 305.32
C 582.78 306.14 586.49 313.03 590.38 320.64
L 597.44 334.48
L 592.11 339.80
L 586.80 345.11
L 571.17 325.67"/>
<path fill="#c55436" stroke="none" d="
M 525.72 270.75
C 517.52 258.70 499.34 239.34 472.60 214.22
C 456.75 199.33 440.65 184.59 436.81 181.47
C 419.74 167.59 392.31 146.10 369.48 128.69
C 336.86 103.84 326.67 94.96 316.91 82.89
C 301.57 63.92 298.60 51.54 305.84 36.75
C 315.53 16.98 338.22 4.79 360.66 7.31
C 372.60 8.65 388.11 14.04 397.46 20.07
C 414.20 30.87 424.48 43.62 451.85 87.57
C 478.24 129.91 552.63 254.95 559.43 268.38
L 562.31 274.06
L 550.57 274.08
C 544.12 274.09 536.64 274.45 533.96 274.89
C 529.47 275.64 528.83 275.31 525.72 270.75"/>
<path fill="#918877" stroke="none" d="
M 411.65 395.08
C 399.14 391.93 386.03 388.09 382.54 386.56
C 377.09 384.18 376.18 383.24 376.18 379.97
C 376.18 375.04 378.51 362.11 380.93 353.61
C 381.97 349.93 386.42 332.18 390.81 314.17
C 395.20 296.16 401.21 271.48 404.18 259.36
C 410.22 234.64 416.43 215.01 421.18 205.60
C 424.45 199.13 431.85 189.84 433.74 189.84
C 435.86 189.84 495.48 246.99 505.93 259.05
C 521.63 277.17 521.67 277.30 510.72 280.76
C 484.09 289.18 457.48 314.49 446.37 341.95
C 440.69 355.98 438.84 365.25 438.12 383.36
C 437.64 395.23 436.91 401.03 435.91 400.94
C 435.08 400.87 424.17 398.24 411.65 395.08"/>
<path fill="#918877" stroke="none" d="
M 601.88 285.23
C 596.94 282.55 579.89 276.74 576.98 276.74
C 573.76 276.74 569.86 271.95 564.49 261.36
C 561.88 256.22 547.10 230.66 531.67 204.55
C 508.72 165.76 504.01 156.94 505.82 156.27
C 507.04 155.83 513.85 154.71 520.95 153.78
C 537.61 151.60 547.32 153.48 579.62 165.05
C 592.62 169.72 608.34 174.88 614.55 176.52
C 633.62 181.59 640.56 186.38 640.26 194.25
C 640.18 196.60 634.98 212.77 628.71 230.16
C 622.45 247.57 616.06 266.06 614.51 271.26
C 612.95 276.47 610.36 282.21 608.72 284.02
C 605.90 287.19 605.61 287.25 601.88 285.23"/>
<path fill="#c57a36" stroke="none" d="
M 358.10 346.76
C 348.01 343.72 321.49 336.62 211.52 307.51
C 186.12 300.79 158.26 292.93 149.61 290.04
C 129.85 283.42 114.91 279.41 110.14 279.41
C 103.80 279.43 98.40 284.00 91.70 294.99
C 83.94 307.78 67.11 330.23 64.58 331.20
C 62.57 331.97 58.35 329.18 46.85 319.53
C 42.81 316.12 32.87 307.85 24.77 301.12
C 7.98 287.19 5.45 284.09 8.41 281.14
C 10.11 279.44 11.42 279.73 18.90 283.49
C 23.60 285.84 31.51 290.39 36.48 293.60
C 47.99 301.00 55.48 304.81 58.52 304.81
C 73.62 304.77 88.61 265.33 86.15 232.07
C 85.01 216.70 83.71 215.23 71.29 215.27
C 66.32 215.28 55.93 216.76 48.19 218.58
C 31.94 222.39 29.00 222.61 26.92 220.09
C 24.66 217.37 26.24 216.50 51.54 206.56
C 73.79 197.83 89.51 193.34 93.07 194.72
C 98.31 196.72 103.00 216.36 104.25 241.56
C 105.02 257.18 105.62 261.00 107.63 263.22
C 110.67 266.58 125.04 271.35 148.60 276.84
C 158.53 279.16 199.21 289.69 238.99 300.24
C 278.76 310.80 322.40 321.90 335.96 324.93
C 357.46 329.72 377.52 335.92 377.52 337.78
C 377.52 338.11 376.85 341.06 376.02 344.33
C 374.24 351.39 373.67 351.46 358.10 346.76"/>
<path fill="#cf9e66" stroke="none" d="
M 534.81 493.21
C 509.77 488.26 489.10 476.86 472.42 458.78
C 459.34 444.61 451.65 430.39 446.18 410.27
C 443.06 398.74 443.06 375.32 446.18 363.80
C 452.24 341.50 459.94 328.14 475.92 312.18
C 491.94 296.19 505.46 288.42 527.61 282.51
C 539.29 279.40 562.77 279.39 574.15 282.47
C 596.52 288.56 609.86 296.22 625.83 312.18
C 641.82 328.14 649.52 341.50 655.58 363.80
C 658.70 375.32 658.70 398.74 655.58 410.27
C 649.52 432.57 641.82 445.92 625.83 461.89
C 609.98 477.71 596.42 485.56 574.90 491.34
C 565.06 493.98 543.77 494.97 534.81 493.21
M 582.14 476.56
C 609.70 467.33 631.62 445.25 640.71 417.58
C 644.24 406.80 644.59 404.08 644.59 387.03
C 644.59 369.99 644.24 367.26 640.71 356.48
C 631.52 328.49 609.47 306.50 581.41 297.31
C 570.69 293.80 567.92 293.45 550.88 293.45
C 533.84 293.45 531.07 293.80 520.34 297.31
C 492.28 306.50 470.24 328.49 461.05 356.48
C 457.52 367.26 457.17 369.99 457.17 387.03
C 457.17 404.08 457.52 406.80 461.05 417.58
C 471.32 448.88 496.88 471.97 529.46 479.41
C 534.73 480.61 543.24 481.08 554.23 480.78
C 568.20 480.39 572.81 479.69 582.14 476.56"/>
<path fill="#f4ac30" stroke="none" d="
M 544.12 393.78
C 538.17 387.83 541.19 379.18 549.78 377.53
C 553.22 376.87 554.71 377.37 557.48 380.13
C 561.82 384.47 561.87 389.55 557.64 393.78
C 555.83 395.59 552.79 397.06 550.88 397.06
C 548.96 397.06 545.93 395.59 544.12 393.78"/>
</g>
</svg>
