<?xml version="1.0" encoding="UTF-8" standalone="no"?>
<!DOCTYPE svg PUBLIC "-//W3C//DTD SVG 1.1//EN"
"http://www.w3.org/Graphics/SVG/1.1/DTD/svg11.dtd">
<svg width="118px" height="600px"
xmlns="http://www.w3.org/2000/svg" version="1.1">
<g transform="translate(0000, 0000) scale(1.0000, 1.0000)">
<path fill="#000000" stroke="none" d="
M 93.74 599.06
C 92.30 598.71 90.03 597.46 88.70 596.28
C 82.48 590.80 82.60 592.62 82.60 497.06
L 82.60 407.05
L 78.93 402.76
C 76.91 400.41 72.36 394.37 68.82 389.35
C 59.72 376.45 39.40 356.00 25.83 346.08
C 10.02 334.54 6.95 328.94 10.63 318.42
C 12.13 314.13 17.49 310.43 22.20 310.43
C 30.12 310.43 57.09 326.52 75.06 341.96
L 82.60 348.44
L 82.60 323.70
L 82.60 298.96
L 75.72 297.37
C 65.28 294.94 51.51 287.22 42.20 278.56
C 26.79 264.21 17.10 247.90 8.43 221.74
C 0.20 196.90 1.73 184.24 13.66 178.47
C 20.24 175.29 24.14 175.81 29.91 180.65
C 34.76 184.70 37.46 191.32 40.57 206.70
C 41.90 213.29 44.59 221.82 46.54 225.65
C 53.14 238.60 66.50 249.91 79.65 253.68
L 82.60 254.52
L 82.60 158.00
L 82.60 61.46
L 47.53 61.06
C 8.33 60.60 6.78 60.29 2.52 51.97
C -2.43 42.33 0.49 31.55 9.49 26.07
C 13.47 23.67 16.15 23.49 48.18 23.48
L 82.60 23.48
L 82.60 18.87
C 82.60 8.50 88.30 1.70 98.07 0.39
C 105.70 -0.63 110.99 2.67 114.81 10.85
L 117.97 17.61
L 117.99 301.76
C 118.00 620.26 118.92 592.21 108.28 597.34
C 102.91 599.92 99.15 600.37 93.74 599.06
M 104.48 590.93
C 106.78 589.54 109.29 587.23 110.07 585.78
C 111.05 583.94 111.37 499.62 111.13 299.74
C 110.80 31.51 110.67 16.08 108.47 12.08
C 104.53 4.90 94.78 4.70 91.15 11.69
C 89.38 15.08 89.16 48.07 89.21 299.61
C 89.25 605.09 88.85 587.80 95.86 591.65
C 99.88 593.88 99.59 593.90 104.48 590.93
M 72.50 350.87
C 57.68 336.68 29.29 318.26 22.25 318.26
C 20.60 318.26 15.73 323.10 15.73 324.74
C 15.73 327.14 24.10 335.45 31.64 340.55
C 43.49 348.55 61.48 366.38 72.18 380.71
L 81.94 393.78
L 82.34 377.22
L 82.72 360.65
L 72.50 350.87
M 82.60 276.63
L 82.60 262.38
L 74.38 259.67
C 52.21 252.33 39.36 236.47 33.98 209.78
C 29.13 185.69 21.58 178.06 13.15 188.73
C 9.23 193.67 9.78 201.34 15.24 218.18
C 24.10 245.53 35.89 264.12 52.67 277.24
C 60.94 283.71 75.11 290.87 79.65 290.87
C 82.53 290.87 82.60 290.53 82.60 276.63
M 82.60 42.33
L 82.60 29.87
L 49.25 30.26
L 15.90 30.65
L 11.90 34.47
C 6.66 39.46 5.97 42.04 8.54 47.00
C 12.21 54.05 15.59 54.68 50.81 54.73
L 82.60 54.78
L 82.60 42.33"/>
<path fill="#c55436" stroke="none" d="
M 95.86 591.65
C 88.85 587.80 89.25 605.09 89.21 299.61
C 89.16 -12.69 88.58 9.03 96.97 7.19
C 102.57 5.96 105.89 7.40 108.51 12.16
C 110.66 16.06 110.82 33.31 111.13 299.74
C 111.37 499.62 111.05 583.94 110.07 585.78
C 108.82 588.09 101.40 593.54 99.64 593.43
C 99.28 593.40 97.57 592.60 95.86 591.65"/>
<path fill="#c55436" stroke="none" d="
M 14.83 52.88
C 10.20 50.87 6.02 44.18 7.16 40.60
C 7.57 39.33 9.70 36.57 11.90 34.47
L 15.90 30.65
L 49.25 30.26
L 82.60 29.87
L 82.60 42.33
L 82.60 54.78
L 50.81 54.73
C 26.69 54.69 18.00 54.25 14.83 52.88"/>
<path fill="#f1a828" stroke="none" d="
M 72.18 380.71
C 61.48 366.38 43.49 348.55 31.64 340.55
C 24.10 335.45 15.73 327.14 15.73 324.74
C 15.73 323.10 20.60 318.26 22.25 318.26
C 29.29 318.26 57.68 336.68 72.50 350.87
L 82.72 360.65
L 82.34 377.22
L 81.94 393.78
L 72.18 380.71"/>
<path fill="#f1a828" stroke="none" d="
M 68.40 286.97
C 43.80 275.39 26.54 253.06 15.24 218.18
C 8.47 197.31 9.19 188.44 17.92 185.14
C 25.21 182.37 29.92 189.60 33.98 209.78
C 39.36 236.47 52.21 252.33 74.38 259.67
L 82.60 262.38
L 82.60 276.63
C 82.60 290.53 82.53 290.87 79.65 290.87
C 78.02 290.87 72.96 289.11 68.40 286.97"/>
</g>
</svg>
