<?xml version="1.0" encoding="UTF-8" standalone="no"?>
<!DOCTYPE svg PUBLIC "-//W3C//DTD SVG 1.1//EN"
"http://www.w3.org/Graphics/SVG/1.1/DTD/svg11.dtd">
<svg width="600px" height="244px"
xmlns="http://www.w3.org/2000/svg" version="1.1">
<g transform="translate(0000, 0000) scale(1.0000, 1.0000)">
<path fill="#000000" stroke="none" d="
M 77.53 238.56
C 73.93 235.63 69.29 232.43 67.24 231.45
C 65.19 230.47 54.45 222.78 43.38 214.35
C 32.31 205.92 19.66 196.46 15.27 193.33
C 4.06 185.37 0.00 179.53 0.00 171.35
C 0.00 166.15 0.55 164.40 2.92 162.01
L 5.86 159.08
L 73.06 159.08
C 123.76 159.08 140.64 158.72 141.71 157.64
C 142.58 156.77 143.14 152.54 143.14 146.88
C 143.14 131.50 137.36 132.76 207.53 132.76
L 267.16 132.76
L 302.06 101.38
C 321.27 84.12 340.34 66.77 344.45 62.81
L 351.91 55.62
L 350.58 50.86
C 349.01 45.32 349.90 35.50 352.70 26.92
C 354.07 22.75 356.66 18.95 361.34 14.26
C 368.77 6.81 375.55 3.67 389.62 1.17
C 397.01 -0.13 399.18 -0.07 406.44 1.71
C 420.73 5.23 424.84 9.38 428.19 23.65
C 431.25 36.64 424.40 52.60 411.69 62.18
C 401.67 69.74 384.13 74.19 373.44 71.90
C 370.06 71.17 366.26 70.57 365.01 70.57
C 363.73 70.57 347.83 83.98 328.49 101.37
L 294.23 132.17
L 336.27 132.76
C 385.35 133.46 381.71 132.31 381.71 147.11
C 381.71 152.60 382.28 156.78 383.14 157.64
C 384.24 158.74 409.57 159.08 489.90 159.08
C 611.71 159.08 600.00 157.74 600.00 171.64
C 600.00 185.54 611.63 184.20 490.50 184.20
C 410.62 184.20 385.43 184.53 384.33 185.63
C 383.45 186.52 382.90 190.87 382.90 196.99
C 382.90 213.46 397.31 211.71 262.43 211.71
C 127.49 211.71 141.95 213.49 141.95 196.90
C 141.95 189.88 141.46 186.47 140.31 185.52
C 138.14 183.72 54.67 184.21 54.06 186.03
C 53.83 186.71 61.73 198.81 71.59 212.94
C 82.89 229.10 89.42 239.50 89.20 241.01
C 88.63 245.05 84.44 244.17 77.53 238.56
M 67.99 221.75
C 67.99 221.35 64.14 215.57 59.43 208.90
C 45.58 189.24 45.33 188.82 45.33 184.70
C 45.33 177.00 45.18 177.02 97.48 177.02
C 153.21 177.02 149.11 175.85 149.11 191.73
C 149.11 197.86 149.65 202.21 150.54 203.09
C 152.61 205.18 372.24 205.18 374.31 203.09
C 375.20 202.21 375.75 197.86 375.75 191.73
C 375.75 175.31 362.98 177.02 485.25 177.02
C 565.12 177.02 590.31 176.68 591.41 175.58
C 593.25 173.74 593.25 169.53 591.41 167.69
C 590.31 166.59 564.98 166.25 484.65 166.25
C 361.98 166.25 374.55 167.87 374.55 152.14
C 374.55 146.48 373.99 142.25 373.12 141.38
C 371.05 139.30 153.81 139.30 151.73 141.38
C 150.86 142.25 150.30 146.48 150.30 152.14
C 150.30 167.62 157.29 166.25 77.77 166.25
C 26.67 166.25 9.67 166.60 8.59 167.69
C 5.96 170.32 7.07 174.63 11.63 179.45
C 15.97 184.03 65.31 222.23 67.10 222.39
C 67.59 222.43 67.99 222.15 67.99 221.75
M 321.23 98.82
C 340.50 81.48 357.53 66.60 359.07 65.77
C 361.31 64.56 363.81 64.58 371.74 65.81
C 380.37 67.16 382.60 67.10 389.61 65.37
C 414.79 59.13 429.65 35.82 419.84 17.94
C 415.56 10.12 407.98 6.54 396.02 6.69
C 383.38 6.84 374.70 10.43 366.11 19.04
C 357.13 28.05 354.85 34.72 355.98 48.70
C 356.64 56.73 356.43 59.37 355.00 61.56
C 354.02 63.07 337.75 78.18 318.85 95.12
C 274.54 134.86 279.10 130.37 282.99 130.37
C 285.50 130.37 293.79 123.53 321.23 98.82"/>
<path fill="#000000" stroke="none" d="
M 370.38 61.20
C 363.38 59.25 363.17 59.07 361.12 53.23
C 358.49 45.74 359.12 37.95 363.07 29.30
C 366.98 20.75 374.45 15.31 386.97 11.91
C 395.89 9.48 396.78 9.45 402.91 11.20
C 406.49 12.22 410.73 13.92 412.35 14.99
C 416.72 17.86 419.08 24.53 418.33 31.84
C 416.82 46.55 406.43 56.73 388.03 61.50
C 379.41 63.75 379.49 63.75 370.38 61.20
M 394.40 52.59
C 415.05 42.52 418.84 21.61 400.90 16.77
C 389.93 13.81 373.20 22.47 367.91 33.86
C 364.62 40.98 364.32 45.06 366.68 50.73
C 369.79 58.19 381.33 58.97 394.40 52.59"/>
<path fill="#d7c085" stroke="none" d="
M 282.14 128.15
C 283.43 126.93 299.95 112.07 318.85 95.12
C 337.75 78.18 354.02 63.07 355.00 61.56
C 356.43 59.37 356.64 56.73 355.98 48.70
C 354.85 34.72 357.13 28.05 366.11 19.04
C 374.61 10.51 383.28 6.94 396.02 6.72
C 407.96 6.53 415.55 10.09 419.84 17.94
C 429.65 35.82 414.79 59.13 389.61 65.37
C 382.60 67.10 380.37 67.16 371.74 65.81
C 363.81 64.58 361.31 64.56 359.07 65.77
C 357.53 66.60 340.50 81.48 321.23 98.82
C 293.79 123.53 285.50 130.37 282.99 130.37
C 279.82 130.37 279.82 130.35 282.14 128.15
M 388.03 61.50
C 406.43 56.73 416.82 46.55 418.33 31.84
C 419.08 24.53 416.72 17.86 412.35 14.99
C 410.73 13.92 406.49 12.22 402.91 11.20
C 396.78 9.45 395.89 9.48 386.97 11.91
C 374.45 15.31 366.98 20.75 363.07 29.30
C 359.12 37.95 358.49 45.74 361.12 53.23
C 363.17 59.07 363.38 59.25 370.38 61.20
C 379.49 63.75 379.41 63.75 388.03 61.50"/>
<path fill="#ed9f17" stroke="none" d="
M 41.15 203.24
C 27.38 192.75 14.09 182.04 11.63 179.45
C 7.07 174.63 5.96 170.32 8.59 167.69
C 9.67 166.60 26.67 166.25 77.77 166.25
C 157.36 166.25 150.30 167.65 150.30 151.95
C 150.30 143.74 150.62 142.25 152.60 141.19
C 156.14 139.28 371.22 139.47 373.12 141.38
C 373.99 142.25 374.55 146.48 374.55 152.14
C 374.55 167.87 361.98 166.25 484.65 166.25
C 564.98 166.25 590.31 166.59 591.41 167.69
C 593.25 169.53 593.25 173.74 591.41 175.58
C 590.31 176.68 565.12 177.02 485.25 177.02
C 362.98 177.02 375.75 175.31 375.75 191.73
C 375.75 197.86 375.20 202.21 374.31 203.09
C 372.24 205.18 152.61 205.18 150.54 203.09
C 149.65 202.21 149.11 197.86 149.11 191.73
C 149.11 175.85 153.21 177.02 97.48 177.02
C 45.18 177.02 45.33 177.00 45.33 184.70
C 45.33 188.82 45.58 189.24 59.43 208.90
C 67.90 220.89 68.84 222.54 67.10 222.39
C 66.61 222.34 54.93 213.73 41.15 203.24"/>
</g>
</svg>
