<?xml version="1.0" encoding="UTF-8" standalone="no"?>
<!DOCTYPE svg PUBLIC "-//W3C//DTD SVG 1.1//EN"
"http://www.w3.org/Graphics/SVG/1.1/DTD/svg11.dtd">
<svg width="308px" height="600px"
xmlns="http://www.w3.org/2000/svg" version="1.1">
<g transform="translate(0000, 0000) scale(1.0000, 1.0000)">
<path fill="#000000" stroke="none" d="
M 2.58 597.42
C -3.31 591.54 -0.54 581.10 15.85 547.21
C 21.17 536.24 26.38 525.14 27.45 522.58
L 29.38 517.89
L 22.85 517.03
C 14.59 515.94 12.11 514.60 9.68 509.90
C 3.70 498.33 11.60 489.27 27.67 489.27
L 34.79 489.27
L 34.77 479.29
C 34.76 473.81 33.60 456.28 32.20 440.34
C 30.80 424.40 29.65 404.63 29.65 396.39
C 29.61 336.61 50.36 257.36 80.02 204.08
C 89.10 187.75 110.34 155.10 117.27 146.78
C 123.75 139.00 130.16 128.74 130.16 126.13
C 130.16 123.00 127.04 120.66 111.41 111.98
C 71.90 90.08 54.98 84.14 23.93 81.35
C 13.02 80.37 10.80 79.78 8.79 77.29
C 4.27 71.70 6.70 55.55 13.09 48.71
C 16.79 44.74 16.96 44.70 26.20 45.49
C 45.23 47.09 71.11 58.65 102.43 79.51
C 112.35 86.11 120.62 91.02 120.83 90.40
C 121.18 89.38 108.08 47.05 99.98 22.94
C 96.21 11.77 95.84 6.76 98.48 3.14
C 100.24 0.75 102.54 0.63 151.93 0.28
C 203.31 -0.08 203.54 -0.08 206.31 2.69
C 210.05 6.42 209.10 14.25 203.10 29.28
C 200.61 35.48 195.35 51.57 191.41 65.02
C 183.09 93.36 181.63 97.61 175.62 110.90
C 171.23 120.62 171.20 120.77 173.38 125.06
C 174.59 127.45 181.27 137.52 188.22 147.45
C 203.94 169.94 209.32 178.78 221.14 201.50
C 248.29 253.70 266.56 306.99 275.20 359.23
C 278.39 378.46 278.89 411.17 276.56 447.01
C 275.42 464.50 274.49 481.16 274.49 484.03
L 274.49 489.27
L 281.62 489.27
C 294.40 489.27 301.56 494.34 301.56 503.43
C 301.56 510.12 298.64 513.31 290.24 515.87
C 286.20 517.09 282.69 518.23 282.47 518.36
C 282.25 518.50 284.92 524.32 288.40 531.31
C 295.69 545.95 300.11 557.33 304.73 573.42
C 308.73 587.42 308.93 593.92 305.42 597.42
C 302.97 599.87 301.13 600.00 266.76 600.00
C 220.36 600.00 222.86 601.74 228.81 573.61
C 234.44 546.95 238.10 536.32 245.74 524.38
L 250.09 517.60
L 153.55 517.60
L 57.00 517.60
L 64.44 534.66
C 73.40 555.24 82.48 583.02 82.48 589.87
C 82.48 593.14 81.59 595.74 79.90 597.42
C 77.45 599.87 75.61 600.00 41.24 600.00
C 6.87 600.00 5.03 599.87 2.58 597.42
M 74.77 591.59
C 76.99 588.93 68.49 562.53 57.06 536.59
L 48.70 517.60
L 43.79 517.60
L 38.88 517.60
L 25.16 545.60
C 8.67 579.24 5.14 588.50 7.62 591.49
C 10.14 594.53 72.26 594.62 74.77 591.59
M 300.33 591.55
C 303.48 587.77 293.55 558.18 280.28 531.72
L 273.11 517.47
L 265.79 517.85
L 258.46 518.24
L 254.26 525.32
C 243.90 542.74 237.04 562.36 233.87 583.60
C 232.35 593.77 231.64 593.56 267.41 593.56
C 294.13 593.56 298.90 593.27 300.33 591.55
M 288.50 509.73
C 296.52 506.95 296.52 499.92 288.50 497.14
C 283.00 495.22 22.86 495.12 19.28 497.02
C 13.29 500.23 13.54 507.37 19.74 509.86
C 24.07 511.61 283.49 511.48 288.50 509.73
M 57.68 478.33
C 96.34 419.87 118.23 371.69 130.69 317.64
C 138.11 285.41 140.34 264.97 143.06 204.08
C 143.79 187.79 144.94 169.25 145.62 162.88
C 146.31 156.50 146.87 145.89 146.89 139.30
L 146.91 127.30
L 142.78 127.71
C 139.23 128.05 138.03 129.18 134.49 135.48
C 132.21 139.53 126.63 147.64 122.09 153.50
C 113.53 164.55 97.31 189.22 87.61 205.98
C 58.44 256.29 36.05 339.15 36.10 396.57
C 36.11 404.70 37.26 424.12 38.66 439.70
C 40.07 455.28 41.21 472.84 41.23 478.73
L 41.24 489.42
L 46.06 489.03
C 50.52 488.65 51.39 487.85 57.68 478.33
M 243.64 485.09
C 242.12 482.78 239.09 477.42 236.90 473.18
C 234.71 468.93 228.13 457.34 222.28 447.42
C 186.78 387.33 168.46 342.77 157.97 290.99
C 154.34 273.05 152.17 242.14 151.90 204.17
C 151.68 174.03 150.15 182.60 148.24 224.68
C 146.47 263.51 144.05 287.59 139.81 308.63
C 129.10 361.67 110.96 406.80 79.85 457.73
C 73.37 468.35 66.39 479.79 64.36 483.15
L 60.67 489.27
L 153.54 489.27
L 246.40 489.27
L 243.64 485.09
M 268.53 472.85
C 268.99 463.83 270.02 446.87 270.82 435.19
C 274.30 383.76 268.78 344.78 250.03 288.41
C 236.40 247.43 212.28 196.71 192.53 167.52
C 166.26 128.69 165.82 128.15 160.52 127.70
L 155.61 127.29
L 156.38 143.79
C 156.81 152.87 157.71 181.16 158.38 206.65
C 159.88 263.86 160.31 269.19 165.17 291.63
C 176.50 343.87 192.42 380.87 235.12 454.18
L 255.55 489.27
L 261.61 489.27
L 267.68 489.27
L 268.53 472.85
M 166.22 113.36
C 172.75 100.43 177.29 87.88 184.84 61.91
C 188.81 48.21 193.86 32.59 196.05 27.19
C 201.77 13.08 202.51 10.15 200.86 8.15
C 198.72 5.58 106.65 5.64 104.51 8.21
C 103.38 9.58 103.77 12.05 106.15 18.84
C 113.26 39.04 127.68 85.27 130.82 97.85
C 132.66 105.30 134.73 113.55 135.43 116.20
L 136.71 121.03
L 149.52 121.03
L 162.34 121.03
L 166.22 113.36
M 125.64 107.83
C 125.17 106.24 124.54 103.98 124.22 102.82
C 123.90 101.65 121.80 99.95 119.55 99.03
C 117.32 98.10 106.76 91.60 96.09 84.58
C 65.17 64.26 31.30 49.51 21.33 52.02
C 18.07 52.83 14.42 59.29 13.29 66.24
C 12.22 72.88 15.88 74.55 34.32 75.84
C 57.17 77.43 79.81 85.55 111.46 103.44
C 118.55 107.45 124.82 110.73 125.40 110.73
C 125.98 110.73 126.09 109.43 125.64 107.83"/>
<path fill="#c57a36" stroke="none" d="
M 135.43 116.20
C 134.73 113.55 132.66 105.30 130.82 97.85
C 127.67 85.22 113.24 38.99 106.10 18.71
C 103.12 10.24 103.07 9.64 105.20 8.09
C 108.55 5.64 198.82 5.69 200.86 8.15
C 202.51 10.15 201.77 13.08 196.05 27.19
C 193.86 32.59 188.81 48.21 184.84 61.91
C 177.29 87.88 172.75 100.43 166.22 113.36
L 162.34 121.03
L 149.52 121.03
L 136.71 121.03
L 135.43 116.20"/>
<path fill="#e0a977" stroke="none" d="
M 7.62 591.49
C 5.14 588.50 8.67 579.24 25.16 545.60
L 38.88 517.60
L 43.79 517.60
L 48.70 517.60
L 57.06 536.59
C 68.49 562.53 76.99 588.93 74.77 591.59
C 72.26 594.62 10.14 594.53 7.62 591.49"/>
<path fill="#e0a977" stroke="none" d="
M 234.56 591.64
C 232.57 589.26 233.47 582.70 238.49 562.83
C 242.12 548.42 245.96 539.28 254.26 525.32
L 258.46 518.24
L 265.79 517.85
L 273.11 517.47
L 280.28 531.72
C 289.11 549.32 293.75 560.94 298.40 577.07
C 301.38 587.42 301.71 589.89 300.33 591.55
C 297.88 594.49 236.99 594.57 234.56 591.64"/>
<path fill="#e0a977" stroke="none" d="
M 41.23 478.73
C 41.21 472.84 40.07 455.28 38.66 439.70
C 37.26 424.12 36.11 404.70 36.10 396.57
C 36.05 339.15 58.44 256.29 87.61 205.98
C 97.31 189.22 113.53 164.55 122.09 153.50
C 126.63 147.64 132.21 139.53 134.49 135.48
C 138.03 129.18 139.23 128.05 142.78 127.71
L 146.91 127.30
L 146.89 139.30
C 146.87 145.89 146.31 156.50 145.62 162.88
C 144.94 169.25 143.79 187.79 143.06 204.08
C 140.34 264.97 138.11 285.41 130.69 317.64
C 118.23 371.69 96.34 419.87 57.68 478.33
C 51.39 487.85 50.52 488.65 46.06 489.03
L 41.24 489.42
L 41.23 478.73"/>
<path fill="#e0a977" stroke="none" d="
M 235.12 454.18
C 192.42 380.87 176.50 343.87 165.17 291.63
C 160.31 269.19 159.88 263.86 158.38 206.65
C 157.71 181.16 156.81 152.87 156.38 143.79
L 155.61 127.29
L 160.52 127.70
C 165.82 128.15 166.26 128.69 192.53 167.52
C 212.28 196.71 236.40 247.43 250.03 288.41
C 268.78 344.78 274.30 383.76 270.82 435.19
C 270.02 446.87 268.99 463.83 268.53 472.85
L 267.68 489.27
L 261.61 489.27
L 255.55 489.27
L 235.12 454.18"/>
<path fill="#e0a977" stroke="none" d="
M 111.46 103.44
C 79.81 85.55 57.17 77.43 34.32 75.84
C 15.88 74.55 12.22 72.88 13.29 66.24
C 14.51 58.78 17.95 53.01 21.70 52.20
C 32.27 49.88 64.90 64.09 96.09 84.58
C 106.76 91.60 117.32 98.10 119.55 99.03
C 121.80 99.95 123.90 101.65 124.22 102.82
C 124.54 103.98 125.17 106.24 125.64 107.83
C 126.09 109.43 125.98 110.73 125.40 110.73
C 124.82 110.73 118.55 107.45 111.46 103.44"/>
<path fill="#3f7fbf" stroke="none" d="
M 19.74 509.86
C 13.13 507.21 13.36 499.51 20.14 496.93
C 24.95 495.10 283.24 495.30 288.50 497.14
C 296.52 499.92 296.52 506.95 288.50 509.73
C 283.49 511.48 24.07 511.61 19.74 509.86"/>
</g>
</svg>
