<?xml version="1.0" encoding="UTF-8" standalone="no"?>
<!DOCTYPE svg PUBLIC "-//W3C//DTD SVG 1.1//EN"
"http://www.w3.org/Graphics/SVG/1.1/DTD/svg11.dtd">
<svg width="675px" height="600px"
xmlns="http://www.w3.org/2000/svg" version="1.1">
<g transform="translate(0000, 0000) scale(1.0000, 1.0000)">
<path fill="#000000" stroke="none" d="
M 4.26 595.74
C -0.85 590.64 -1.00 588.02 3.26 577.83
C 5.05 573.55 45.29 443.49 92.69 288.81
C 140.09 134.13 180.35 6.13 182.14 4.32
C 185.00 1.47 204.44 1.00 339.67 0.49
C 490.60 -0.06 494.01 0.00 498.12 4.11
C 500.42 6.40 503.38 12.40 504.70 17.45
C 510.30 38.72 656.86 533.40 665.48 560.04
C 670.68 576.09 674.34 590.72 673.64 592.55
C 672.93 594.36 670.63 596.79 668.51 597.94
C 666.04 599.26 544.96 600.00 336.58 600.00
C 11.35 600.00 8.47 599.96 4.26 595.74
M 256.56 406.85
C 297.55 306.55 331.05 222.55 331.01 220.21
C 330.92 216.49 211.27 48.87 193.13 27.06
L 186.32 18.87
L 103.70 288.68
C 58.26 437.09 19.65 564.11 17.89 570.91
C 15.42 580.49 15.25 584.02 17.18 586.34
C 19.27 588.85 33.39 589.36 100.87 589.30
L 182.06 589.26
L 256.56 406.85
M 485.49 586.94
C 485.49 581.74 339.91 236.13 338.37 237.70
C 337.27 238.87 212.23 541.87 194.37 586.70
C 193.54 588.81 223.39 589.36 339.40 589.36
C 447.67 589.36 485.49 588.72 485.49 586.94
M 659.31 586.23
C 660.31 583.60 500.33 38.17 496.20 30.19
C 495.28 28.40 468.82 60.81 422.52 120.49
C 382.79 171.68 349.10 215.17 347.70 217.13
C 345.19 220.60 362.12 262.38 491.77 572.87
L 498.67 589.36
L 578.37 589.36
C 646.51 589.36 658.26 588.91 659.31 586.23
M 416.01 111.96
C 456.51 59.45 489.15 15.64 488.51 14.62
C 487.87 13.60 422.40 12.77 342.59 12.77
L 197.82 12.77
L 204.74 22.87
C 228.33 57.43 339.31 208.60 340.69 208.09
C 341.63 207.72 375.51 164.47 416.01 111.96"/>
<path fill="#c55436" stroke="none" d="
M 17.18 586.34
C 15.25 584.02 15.42 580.49 17.89 570.91
C 19.65 564.11 58.26 437.09 103.70 288.68
L 186.32 18.87
L 193.13 27.06
C 211.27 48.87 330.92 216.49 331.01 220.21
C 331.05 222.55 297.55 306.55 256.56 406.85
L 182.06 589.26
L 100.87 589.30
C 33.39 589.36 19.27 588.85 17.18 586.34"/>
<path fill="#c55436" stroke="none" d="
M 491.77 572.87
C 362.12 262.38 345.19 220.60 347.70 217.13
C 349.10 215.17 382.79 171.68 422.52 120.49
C 468.82 60.81 495.28 28.40 496.20 30.19
C 500.33 38.17 660.31 583.60 659.31 586.23
C 658.26 588.91 646.51 589.36 578.37 589.36
L 498.67 589.36
L 491.77 572.87"/>
<path fill="#c55436" stroke="none" d="
M 283.37 132.02
C 214.00 36.49 200.16 16.96 200.16 14.62
C 200.16 12.19 487.00 12.19 488.51 14.62
C 489.60 16.38 344.14 206.77 340.72 208.09
C 339.80 208.43 313.99 174.19 283.37 132.02"/>
<path fill="#c57a36" stroke="none" d="
M 194.13 587.43
C 206.01 554.94 337.93 238.45 339.40 238.94
C 341.57 239.66 485.38 582.04 485.45 586.70
C 485.49 588.81 454.89 589.36 339.46 589.36
C 252.41 589.36 193.71 588.57 194.13 587.43"/>
</g>
</svg>
