<?xml version="1.0" encoding="UTF-8" standalone="no"?>
<!DOCTYPE svg PUBLIC "-//W3C//DTD SVG 1.1//EN"
"http://www.w3.org/Graphics/SVG/1.1/DTD/svg11.dtd">
<svg width="700px" height="600px"
xmlns="http://www.w3.org/2000/svg" version="1.1">
<g transform="translate(0000, 0000) scale(1.0000, 1.0000)">
<path fill="#000000" stroke="none" d="
M 149.49 597.13
C 145.58 593.22 145.86 588.43 150.98 571.82
C 153.40 564.03 161.86 533.76 169.80 504.55
C 177.73 475.33 189.63 432.39 196.23 409.09
C 202.83 385.79 215.33 340.91 224.03 309.33
C 232.71 277.75 240.46 250.25 241.23 248.22
C 242.59 244.71 241.91 243.98 227.33 233.15
C 190.38 205.69 113.19 136.15 63.95 85.94
C 40.39 61.92 4.13 20.11 1.11 13.48
C -1.09 8.66 0.91 3.00 5.43 1.26
C 11.53 -1.09 19.42 0.50 38.09 7.87
C 47.58 11.60 89.62 26.15 131.52 40.19
C 173.42 54.22 255.56 82.19 314.07 102.33
C 372.57 122.47 443.72 146.70 472.18 156.19
C 553.62 183.33 599.51 199.45 607.17 203.60
C 616.55 208.67 633.42 224.57 644.62 238.89
C 670.91 272.53 697.70 329.99 699.54 356.68
C 700.60 371.99 698.48 379.41 690.86 387.01
C 683.37 394.49 673.61 397.61 657.66 397.61
C 639.16 397.61 636.54 394.38 633.19 367.23
C 626.84 315.78 611.79 282.73 589.57 271.42
C 575.48 264.24 563.26 264.59 523.20 273.30
C 510.96 275.96 495.10 279.22 487.99 280.54
C 480.87 281.86 474.46 283.52 473.74 284.24
C 472.94 285.03 475.63 295.11 480.50 309.63
C 490.47 339.39 500.31 374.15 518.04 442.38
C 525.56 471.36 537.56 515.35 544.71 540.17
C 551.85 564.98 557.70 587.30 557.70 589.77
C 557.70 592.35 556.48 595.48 554.83 597.13
C 551.98 599.97 550.04 600.00 352.16 600.00
C 154.27 600.00 152.33 599.97 149.49 597.13
M 273.85 588.88
C 274.94 583.45 281.94 562.29 306.46 490.19
C 318.00 456.24 330.47 418.15 334.13 405.55
C 337.81 392.93 343.37 377.18 346.49 370.54
L 352.16 358.46
L 342.45 347.54
C 337.12 341.53 313.99 317.48 291.07 294.10
L 249.38 251.57
L 246.81 258.92
C 245.40 262.97 239.70 282.73 234.12 302.87
C 228.54 323.01 215.99 367.89 206.25 402.63
C 196.50 437.37 185.81 475.81 182.50 488.04
C 173.52 521.25 158.47 575.40 156.11 582.96
C 154.59 587.87 154.46 590.04 155.64 591.22
C 156.77 592.35 174.43 592.82 215.15 592.82
L 273.04 592.82
L 273.85 588.88
M 428.34 591.73
C 428.34 590.02 402.29 504.67 388.16 460.05
C 381.16 437.94 373.07 411.46 370.20 401.20
C 367.32 390.93 363.31 378.98 361.27 374.64
L 357.56 366.75
L 352.76 376.79
C 350.11 382.32 345.83 394.26 343.23 403.33
C 338.95 418.26 299.62 536.34 286.91 572.38
C 284.05 580.49 281.72 588.40 281.72 589.97
C 281.72 592.78 282.86 592.82 355.03 592.82
C 395.35 592.82 428.34 592.33 428.34 591.73
M 549.03 590.73
C 550.43 589.05 550.18 586.78 547.81 579.60
C 542.22 562.55 523.36 494.43 509.58 441.39
C 491.25 370.94 484.68 347.84 473.34 314.00
L 463.85 285.65
L 457.96 285.75
C 454.71 285.79 447.05 286.59 440.93 287.54
L 429.82 289.23
L 396.31 324.07
L 362.81 358.92
L 367.46 368.57
C 370.04 373.88 373.83 384.36 375.92 391.87
C 381.36 411.39 389.64 438.70 399.65 470.10
C 406.29 490.94 431.27 572.58 436.43 590.31
C 437.10 592.65 441.01 592.82 492.21 592.82
C 538.83 592.82 547.55 592.49 549.03 590.73
M 679.46 385.28
C 694.25 376.23 696.10 362.44 686.32 334.45
C 667.66 281.17 630.92 227.24 601.76 210.37
C 594.77 206.34 556.32 192.86 454.21 158.63
C 413.50 144.99 342.35 120.76 296.10 104.78
C 249.84 88.81 175.79 63.62 131.52 48.79
C 87.25 33.96 43.55 18.90 34.43 15.32
C 14.40 7.48 10.68 6.46 9.41 8.50
C 8.88 9.36 17.78 21.20 29.19 34.82
C 67.87 80.94 168.92 176.77 223.51 219.07
C 255.65 243.98 274.70 254.12 307.60 263.89
C 346.46 275.41 369.92 279.50 404.62 280.84
C 436.49 282.04 462.29 278.64 526.08 264.82
C 562.79 256.87 577.26 256.84 594.43 264.67
C 608.04 270.90 620.20 286.67 628.12 308.35
C 632.77 321.07 638.87 348.85 640.31 363.88
C 641.60 377.48 643.53 384.27 647.06 387.80
C 649.71 390.44 651.33 390.70 661.31 390.13
C 670.55 389.60 673.83 388.72 679.46 385.28
M 390.78 317.22
L 417.56 289.23
L 392.40 287.48
C 350.82 284.58 318.48 278.10 287.27 266.43
C 279.66 263.57 272.94 261.24 272.37 261.24
C 271.79 261.24 286.76 276.93 305.63 296.12
C 324.50 315.30 343.82 335.61 348.56 341.25
L 357.19 351.50
L 360.59 348.36
C 362.48 346.62 376.06 332.61 390.78 317.22"/>
<path fill="#f1a623" stroke="none" d="
M 647.06 387.80
C 643.53 384.27 641.60 377.48 640.31 363.88
C 638.87 348.85 632.77 321.07 628.12 308.35
C 620.20 286.67 608.04 270.90 594.43 264.67
C 577.26 256.84 562.79 256.87 526.08 264.82
C 462.29 278.64 436.49 282.04 404.62 280.84
C 369.92 279.50 346.46 275.41 307.60 263.89
C 274.70 254.12 255.65 243.98 223.51 219.07
C 168.82 176.70 67.87 80.94 29.08 34.67
C 2.79 3.32 2.86 3.07 34.50 15.39
C 43.58 18.93 87.25 33.96 131.52 48.79
C 175.79 63.62 249.84 88.81 296.10 104.78
C 342.35 120.76 413.50 144.99 454.21 158.63
C 556.32 192.86 594.77 206.34 601.76 210.37
C 616.46 218.89 634.30 237.69 649.99 261.24
C 661.97 279.22 678.99 313.52 686.32 334.45
C 696.10 362.44 694.25 376.23 679.46 385.28
C 673.83 388.72 670.55 389.60 661.31 390.13
C 651.33 390.70 649.71 390.44 647.06 387.80"/>
<path fill="#c55436" stroke="none" d="
M 155.64 591.22
C 154.46 590.04 154.59 587.87 156.11 582.96
C 158.48 575.33 173.63 520.85 182.50 488.04
C 185.81 475.81 194.89 443.18 202.68 415.55
C 210.47 387.92 222.40 345.14 229.17 320.48
C 243.68 267.76 248.44 252.29 249.97 252.90
C 251.74 253.61 331.70 335.43 342.45 347.53
L 352.16 358.46
L 346.49 370.54
C 343.37 377.18 337.81 392.93 334.13 405.55
C 330.47 418.15 318.00 456.24 306.46 490.19
C 281.94 562.29 274.94 583.45 273.85 588.88
L 273.04 592.82
L 215.15 592.82
C 174.43 592.82 156.77 592.35 155.64 591.22"/>
<path fill="#c55436" stroke="none" d="
M 436.43 590.31
C 431.27 572.58 406.29 490.94 399.65 470.10
C 389.64 438.70 381.36 411.39 375.92 391.87
C 373.83 384.36 370.04 373.88 367.46 368.57
L 362.81 358.92
L 396.31 324.07
L 429.82 289.23
L 440.93 287.54
C 447.05 286.59 454.71 285.79 457.96 285.75
L 463.85 285.65
L 473.34 314.00
C 484.68 347.84 491.25 370.94 509.58 441.39
C 523.36 494.43 542.22 562.55 547.81 579.60
C 550.18 586.78 550.43 589.05 549.03 590.73
C 547.55 592.49 538.83 592.82 492.21 592.82
C 441.01 592.82 437.10 592.65 436.43 590.31"/>
<path fill="#c55436" stroke="none" d="
M 348.56 341.25
C 343.82 335.61 324.50 315.30 305.63 296.12
C 286.76 276.93 271.79 261.24 272.37 261.24
C 272.94 261.24 279.66 263.57 287.27 266.43
C 318.48 278.10 350.82 284.58 392.40 287.48
L 417.56 289.23
L 390.78 317.22
C 376.06 332.61 362.48 346.62 360.59 348.36
L 357.19 351.50
L 348.56 341.25"/>
<path fill="#c57a36" stroke="none" d="
M 281.72 589.97
C 281.72 588.40 284.05 580.49 286.91 572.38
C 299.55 536.51 338.95 418.29 343.24 403.33
C 348.20 386.04 355.38 368.90 357.65 368.90
C 359.77 368.90 364.76 381.79 370.31 401.57
C 373.13 411.63 381.16 437.94 388.16 460.05
C 402.29 504.67 428.34 590.02 428.34 591.73
C 428.34 592.33 395.35 592.82 355.03 592.82
C 282.86 592.82 281.72 592.78 281.72 589.97"/>
</g>
</svg>
