<?xml version="1.0" encoding="UTF-8" standalone="no"?>
<!DOCTYPE svg PUBLIC "-//W3C//DTD SVG 1.1//EN"
"http://www.w3.org/Graphics/SVG/1.1/DTD/svg11.dtd">
<svg width="600px" height="342px"
xmlns="http://www.w3.org/2000/svg" version="1.1">
<g transform="translate(0000, 0000) scale(1.0000, 1.0000)">
<path fill="#000000" stroke="none" d="
M 551.66 340.24
C 546.87 338.14 544.63 331.74 542.73 314.52
C 541.10 299.74 536.12 276.91 532.34 266.83
C 525.56 248.77 516.60 236.81 505.62 231.19
C 497.29 226.93 489.66 227.05 466.46 231.85
C 438.51 237.64 399.68 244.02 378.99 246.23
C 357.04 248.57 323.16 247.97 304.88 244.92
C 268.01 238.76 230.46 224.17 199.39 203.91
C 184.29 194.06 179.29 189.99 156.66 169.17
C 147.90 161.11 133.07 147.65 123.72 139.24
C 74.12 94.71 3.18 19.86 0.52 9.26
C -0.54 5.01 1.89 1.44 6.41 0.59
C 9.23 0.06 13.33 0.95 20.73 3.70
C 43.41 12.15 469.23 156.87 492.07 163.89
C 514.77 170.87 520.23 174.10 536.06 189.90
C 552.99 206.80 565.93 225.89 579.94 254.63
C 594.89 285.34 599.20 297.55 599.30 309.63
C 599.38 318.17 598.96 320.12 596.06 325.07
C 588.43 338.08 565.04 346.07 551.66 340.24
M 573.52 333.44
C 582.35 330.13 589.56 323.74 592.17 316.88
C 594.82 309.94 593.79 304.77 585.80 284.59
C 573.99 254.75 556.44 224.19 539.55 204.05
C 522.32 183.50 513.82 178.08 483.61 168.39
C 470.91 164.31 416.04 145.88 361.66 127.41
C 307.29 108.94 214.24 77.39 154.88 57.27
C 95.51 37.17 38.78 17.66 28.80 13.92
C 17.35 9.65 10.23 7.59 9.50 8.32
C 7.26 10.57 33.39 39.72 75.52 81.96
C 98.71 105.19 125.67 131.30 135.43 139.98
C 145.18 148.64 160.34 162.33 169.10 170.39
C 187.17 187.03 198.65 195.59 217.13 206.20
C 249.65 224.87 285.90 236.73 322.56 240.69
C 338.82 242.47 369.39 241.59 389.02 238.80
C 405.93 236.41 460.88 226.79 471.95 224.29
C 492.01 219.76 504.44 220.96 515.33 228.47
C 531.78 239.80 543.94 270.05 548.84 311.81
C 550.62 326.94 552.00 331.79 555.18 334.01
C 558.84 336.59 565.71 336.37 573.52 333.44"/>
<path fill="#f1a623" stroke="none" d="
M 555.18 334.01
C 552.00 331.79 550.62 326.94 548.84 311.81
C 543.94 270.05 531.78 239.80 515.33 228.47
C 504.44 220.96 492.01 219.76 471.95 224.29
C 460.88 226.79 405.93 236.41 389.02 238.80
C 369.39 241.59 338.82 242.47 322.56 240.69
C 285.90 236.73 249.65 224.87 217.13 206.20
C 198.65 195.59 187.17 187.03 169.10 170.39
C 160.34 162.33 145.18 148.64 135.43 139.98
C 125.67 131.30 98.71 105.19 75.52 81.96
C 32.26 38.57 6.96 10.27 9.87 8.48
C 10.77 7.93 15.59 9.10 21.26 11.25
C 26.67 13.30 69.51 28.03 116.46 43.98
C 163.41 59.94 238.05 85.37 282.32 100.50
C 326.59 115.63 395.18 138.84 434.76 152.07
C 474.33 165.30 508.98 177.42 511.74 179.01
C 536.59 193.34 566.55 236.05 585.79 284.59
C 593.79 304.76 594.82 309.94 592.17 316.88
C 587.22 329.85 564.35 340.45 555.18 334.01"/>
</g>
</svg>
