<?xml version="1.0" encoding="UTF-8" standalone="no"?>
<!DOCTYPE svg PUBLIC "-//W3C//DTD SVG 1.1//EN"
"http://www.w3.org/Graphics/SVG/1.1/DTD/svg11.dtd">
<svg width="600px" height="330px"
xmlns="http://www.w3.org/2000/svg" version="1.1">
<g transform="translate(0000, 0000) scale(1.0000, 1.0000)">
<path fill="#000000" stroke="none" d="
M 553.35 328.93
C 541.68 325.95 527.44 315.18 518.51 302.58
C 511.81 293.12 508.38 286.05 503.88 272.46
C 499.46 259.07 496.78 254.43 491.69 251.27
C 486.87 248.26 484.07 248.73 466.95 255.38
C 457.49 259.06 447.09 261.80 429.75 265.24
C 395.80 271.96 375.84 274.05 353.42 273.25
C 325.13 272.23 307.10 267.58 280.04 254.33
C 248.28 238.79 225.17 221.08 172.60 171.98
C 136.07 137.85 57.09 67.06 29.79 43.96
C 8.83 26.24 2.79 19.96 1.05 14.14
C -2.94 0.82 8.70 -3.72 27.01 4.00
C 31.21 5.78 48.90 12.41 66.34 18.74
C 83.78 25.07 119.44 38.30 145.60 48.11
C 256.81 89.89 368.89 130.43 429.97 150.98
C 498.07 173.89 520.53 184.13 547.16 204.40
C 574.68 225.35 594.55 251.34 598.87 272.08
C 600.70 280.85 599.64 301.60 596.96 309.32
C 592.86 321.15 580.90 328.94 565.95 329.54
C 561.11 329.74 555.44 329.46 553.35 328.93
M 576.58 320.31
C 585.66 315.67 589.93 310.51 592.32 301.27
C 598.92 275.77 587.99 251.07 557.53 222.66
C 528.88 195.94 499.06 180.76 431.51 158.48
C 380.51 141.67 284.28 106.95 154.88 58.68
C 111.87 42.64 68.28 26.58 58.02 22.96
C 47.74 19.35 35.11 14.63 29.94 12.46
C 11.64 4.77 7.05 4.33 7.05 10.26
C 7.05 14.05 15.02 21.96 43.15 46.13
C 70.99 70.02 140.22 132.04 167.91 157.87
C 180.49 169.62 196.61 184.49 203.72 190.93
C 251.18 233.90 289.28 256.25 330.09 265.05
C 345.85 268.45 379.23 267.92 402.77 263.92
C 430.73 259.15 451.69 254.26 462.04 250.11
C 480.67 242.61 487.97 241.60 495.55 245.47
C 501.59 248.56 504.96 254.09 509.54 268.42
C 514.54 284.05 520.36 294.55 529.55 304.50
C 537.79 313.45 545.92 319.27 554.23 322.18
C 562.54 325.08 568.16 324.62 576.58 320.31"/>
<path fill="#f1a623" stroke="none" d="
M 554.23 322.18
C 545.92 319.27 537.79 313.45 529.55 304.50
C 520.36 294.55 514.54 284.05 509.54 268.42
C 504.96 254.09 501.59 248.56 495.55 245.47
C 487.97 241.60 480.67 242.61 462.04 250.11
C 451.69 254.26 430.73 259.15 402.77 263.92
C 379.23 267.92 345.85 268.45 330.09 265.05
C 289.28 256.25 251.18 233.90 203.72 190.93
C 196.61 184.49 180.49 169.62 167.91 157.87
C 140.22 132.04 70.99 70.02 43.15 46.13
C 15.15 22.08 7.05 14.05 7.05 10.31
C 7.05 4.43 12.46 5.01 31.12 12.93
C 35.64 14.84 47.74 19.37 58.02 22.97
C 68.28 26.58 111.87 42.64 154.88 58.68
C 284.28 106.95 380.51 141.67 431.51 158.48
C 499.06 180.76 528.88 195.94 557.53 222.66
C 587.99 251.07 598.92 275.77 592.32 301.27
C 589.93 310.51 585.66 315.67 576.58 320.31
C 568.16 324.62 562.54 325.08 554.23 322.18"/>
</g>
</svg>
