<?xml version="1.0" encoding="UTF-8" standalone="no"?>
<!DOCTYPE svg PUBLIC "-//W3C//DTD SVG 1.1//EN"
"http://www.w3.org/Graphics/SVG/1.1/DTD/svg11.dtd">
<svg width="692px" height="600px"
xmlns="http://www.w3.org/2000/svg" version="1.1">
<g transform="translate(0000, 0000) scale(1.0000, 1.0000)">
<path fill="#000000" stroke="none" d="
M 89.77 597.59
C 80.85 592.57 79.37 582.05 86.50 574.36
C 90.15 570.40 95.74 568.12 118.28 561.31
C 160.80 548.49 178.76 538.84 198.30 518.33
C 219.28 496.28 234.52 466.58 258.36 401.34
C 270.80 367.30 278.51 348.68 297.50 306.84
C 301.26 298.52 301.95 295.59 300.47 294.31
C 299.39 293.39 290.93 287.74 281.63 281.76
C 272.33 275.77 259.07 266.67 252.13 261.55
C 231.88 246.58 169.46 187.42 29.42 50.49
C 5.15 26.77 0.00 19.77 0.00 10.50
C 0.00 8.27 1.54 4.89 3.41 3.02
C 8.45 -2.01 18.62 -0.23 39.83 9.47
C 49.53 13.90 79.11 26.33 105.57 37.11
C 132.04 47.87 174.32 65.36 199.55 75.94
C 238.60 92.33 322.42 126.56 461.87 183.07
C 479.14 190.07 504.84 200.32 519.00 205.85
C 569.64 225.65 595.99 240.58 626.15 266.59
C 655.89 292.23 672.53 311.49 682.94 332.32
C 692.24 350.90 694.41 367.72 689.59 383.92
C 682.12 409.11 650.50 421.88 625.75 409.74
C 606.01 400.05 581.22 365.36 557.49 314.30
C 553.28 305.20 549.00 298.36 546.49 296.72
C 542.58 294.16 542.08 294.21 535.53 298.02
C 527.63 302.62 502.91 312.02 487.62 316.23
C 481.87 317.82 476.31 319.96 475.26 320.99
C 473.79 322.44 475.79 326.53 483.80 338.51
C 498.92 361.09 515.07 389.84 523.63 409.38
C 527.74 418.71 537.54 445.35 545.42 468.55
C 553.79 493.17 563.82 519.07 569.52 530.78
C 584.10 560.78 586.14 577.42 576.52 587.66
C 567.05 597.73 557.19 598.97 536.46 592.65
L 522.88 588.50
L 512.31 593.45
L 501.75 598.39
L 445.20 598.38
C 381.05 598.34 380.89 598.31 380.12 587.81
C 379.55 580.12 383.35 574.39 391.64 570.45
C 394.67 569.02 410.34 563.84 426.48 558.93
C 460.28 548.67 477.54 540.82 487.02 531.46
C 499.61 518.99 497.92 511.82 474.26 477.39
C 446.76 437.37 408.23 373.54 399.69 353.82
C 396.63 346.76 391.83 337.30 389.03 332.78
C 384.30 325.19 383.85 324.87 382.89 328.38
C 377.90 346.34 375.35 353.52 369.17 367.13
C 359.60 388.21 348.14 407.81 321.88 447.99
C 298.96 483.06 287.76 501.89 281.82 515.44
C 278.63 522.68 278.38 525.65 278.78 550.02
C 279.26 580.05 278.09 584.22 267.06 591.65
C 262.20 594.92 260.00 595.32 249.44 594.79
C 242.81 594.45 232.66 592.84 226.91 591.20
L 216.45 588.21
L 200.36 593.58
L 184.27 598.94
L 139.20 599.50
C 100.95 599.97 93.48 599.68 89.77 597.59
M 195.32 585.78
C 213.83 579.86 221.23 579.51 235.22 583.90
C 249.49 588.37 256.09 588.10 262.41 582.79
C 271.04 575.53 271.96 571.30 270.86 543.52
L 269.90 518.77
L 275.48 506.70
C 282.21 492.18 296.55 468.21 315.44 439.95
C 337.82 406.44 346.95 390.97 358.83 366.45
C 368.18 347.15 376.08 325.51 374.40 323.82
C 374.16 323.60 367.50 321.54 359.58 319.25
C 351.66 316.99 337.94 311.90 329.07 307.96
C 320.22 304.02 312.41 300.80 311.75 300.80
C 311.09 300.80 308.84 304.60 306.73 309.25
C 285.67 355.80 277.89 374.45 266.05 406.97
C 243.78 468.03 232.08 492.16 213.09 516.18
C 193.39 541.08 169.12 555.80 127.94 567.84
C 91.30 578.57 85.89 581.95 94.55 588.77
C 98.88 592.18 99.86 592.25 139.20 591.57
C 179.05 590.88 179.58 590.83 195.32 585.78
M 505.24 586.38
C 517.76 580.02 523.67 579.76 541.10 584.80
L 556.46 589.24
L 562.68 586.02
C 566.09 584.25 570.26 580.46 571.93 577.59
C 574.62 572.99 574.76 571.42 573.10 564.05
C 572.07 559.45 566.86 546.69 561.52 535.67
C 555.93 524.14 545.63 497.50 537.25 472.97
C 516.15 411.09 503.95 385.67 474.05 341.34
C 464.46 327.12 461.77 324.14 458.54 324.27
C 456.38 324.34 446.02 325.34 435.51 326.48
C 425.00 327.62 412.14 328.17 406.94 327.70
C 397.74 326.86 395.95 327.52 398.99 330.64
C 399.82 331.48 403.31 338.69 406.77 346.65
C 415.92 367.79 461.77 443.58 484.13 474.53
C 488.92 481.16 495.28 491.65 498.27 497.81
C 507.11 516.02 505.40 527.69 492.12 539.89
C 481.94 549.25 464.86 556.83 431.49 566.83
C 402.53 575.52 390.40 580.73 388.66 585.25
C 388.15 586.58 388.66 588.27 389.81 588.98
C 390.93 589.71 415.60 590.32 444.62 590.32
L 497.39 590.35
L 505.24 586.38
M 654.42 404.57
C 678.22 397.51 689.04 375.38 680.77 350.67
C 672.54 326.09 651.33 300.42 611.50 266.83
C 587.75 246.79 554.08 229.14 498.88 207.80
C 480.75 200.78 447.42 187.43 424.86 178.13
C 402.28 168.84 362.82 152.75 337.15 142.38
C 268.72 114.72 223.10 96.03 193.12 83.32
C 178.50 77.13 140.86 61.58 109.43 48.77
C 78.02 35.95 44.71 21.96 35.40 17.66
C 16.11 8.75 10.48 7.01 8.92 9.55
C 8.32 10.52 9.27 13.66 11.04 16.52
C 15.67 24.02 181.30 185.20 238.18 237.55
C 266.58 263.71 317.35 294.48 352.58 306.92
C 385.32 318.47 421.40 320.86 457.04 313.85
C 479.91 309.36 515.68 297.60 528.91 290.24
C 540.29 283.90 546.57 283.32 552.57 288.03
C 555.02 289.96 561.50 300.97 568.00 314.17
C 595.18 369.49 618.25 399.18 638.88 405.47
C 644.75 407.26 645.56 407.21 654.42 404.57"/>
<path fill="#f1a623" stroke="none" d="
M 638.88 405.47
C 630.17 402.82 624.44 398.61 613.00 386.43
C 599.47 372.03 585.06 348.90 568.00 314.17
C 561.50 300.97 555.02 289.96 552.57 288.03
C 546.57 283.32 540.29 283.90 528.91 290.24
C 523.46 293.28 509.23 299.02 497.27 302.99
C 441.98 321.38 397.06 322.60 352.58 306.92
C 317.35 294.48 266.58 263.71 238.18 237.55
C 180.55 184.49 15.66 23.97 10.91 16.33
C 8.14 11.86 7.97 10.70 9.83 9.52
C 12.76 7.67 15.32 8.49 35.40 17.71
C 44.71 21.97 78.02 35.95 109.43 48.77
C 140.86 61.58 178.50 77.13 193.12 83.32
C 223.10 96.03 268.72 114.72 337.15 142.38
C 362.82 152.75 402.28 168.84 424.86 178.13
C 447.42 187.43 480.75 200.78 498.88 207.80
C 554.08 229.14 587.75 246.79 611.50 266.83
C 651.33 300.42 672.54 326.09 680.77 350.67
C 689.04 375.38 678.22 397.51 654.42 404.57
C 645.56 407.21 644.75 407.26 638.88 405.47"/>
<path fill="#ae3c2a" stroke="none" d="
M 94.55 588.77
C 85.89 581.95 91.30 578.57 127.94 567.84
C 169.12 555.80 193.39 541.08 213.09 516.18
C 232.11 492.13 243.78 468.06 266.21 406.52
C 273.87 385.50 285.97 355.45 293.07 339.76
C 300.18 324.10 306.72 309.33 307.60 306.97
C 308.49 304.60 310.18 302.30 311.37 301.85
C 312.56 301.38 320.65 304.18 329.36 308.08
C 338.07 311.95 351.66 316.99 359.58 319.27
C 367.50 321.54 374.16 323.60 374.40 323.82
C 376.08 325.51 368.18 347.15 358.83 366.45
C 346.95 390.97 337.82 406.44 315.44 439.95
C 296.55 468.21 282.21 492.18 275.48 506.70
L 269.90 518.77
L 270.86 543.52
C 271.96 571.30 271.04 575.53 262.41 582.79
C 256.09 588.10 249.49 588.37 235.22 583.90
C 221.23 579.51 213.83 579.86 195.32 585.78
C 179.58 590.83 179.05 590.88 139.20 591.57
C 99.86 592.25 98.88 592.18 94.55 588.77"/>
<path fill="#ae3c2a" stroke="none" d="
M 389.81 588.98
C 388.66 588.27 388.15 586.58 388.66 585.25
C 390.40 580.73 402.53 575.52 431.49 566.83
C 464.86 556.83 481.94 549.25 492.12 539.89
C 505.40 527.69 507.11 516.02 498.27 497.81
C 495.28 491.65 488.92 481.16 484.13 474.53
C 461.77 443.58 415.92 367.79 406.77 346.65
C 403.31 338.69 399.82 331.48 398.99 330.64
C 395.95 327.52 397.74 326.86 406.94 327.70
C 412.14 328.17 425.00 327.62 435.51 326.48
C 446.02 325.34 456.38 324.34 458.54 324.27
C 461.77 324.14 464.46 327.12 474.05 341.34
C 503.95 385.67 516.15 411.09 537.25 472.97
C 545.63 497.50 555.93 524.14 561.52 535.67
C 566.86 546.69 572.07 559.45 573.10 564.05
C 574.76 571.42 574.62 572.99 571.93 577.59
C 570.26 580.46 566.09 584.25 562.68 586.02
L 556.46 589.24
L 541.10 584.80
C 523.67 579.76 517.76 580.02 505.24 586.38
L 497.39 590.35
L 444.62 590.32
C 415.60 590.32 390.93 589.71 389.81 588.98"/>
</g>
</svg>
