<?xml version="1.0" encoding="UTF-8" standalone="no"?>
<!DOCTYPE svg PUBLIC "-//W3C//DTD SVG 1.1//EN"
"http://www.w3.org/Graphics/SVG/1.1/DTD/svg11.dtd">
<svg width="600px" height="342px"
xmlns="http://www.w3.org/2000/svg" version="1.1">
<g transform="translate(0000, 0000) scale(1.0000, 1.0000)">
<path fill="#000000" stroke="none" d="
M 576.77 340.05
C 571.27 337.06 568.57 331.10 562.23 308.06
C 550.91 266.77 534.70 217.30 530.33 210.61
C 526.34 204.51 499.65 194.16 443.28 176.84
C 424.99 171.22 404.26 164.63 397.23 162.20
C 390.19 159.78 342.41 143.38 291.04 125.77
C 239.68 108.16 180.10 87.58 158.64 80.04
C 137.17 72.51 106.38 61.84 90.19 56.32
C 1.98 26.25 1.79 26.18 0.49 20.99
C -0.60 16.65 1.89 8.59 5.69 4.18
C 10.07 -0.90 17.74 -0.51 32.62 5.55
C 38.96 8.12 148.91 45.31 276.97 88.18
C 405.03 131.05 513.97 167.67 519.04 169.55
C 525.19 171.83 529.42 172.70 531.66 172.14
C 534.97 171.31 556.31 145.87 571.06 125.17
C 580.85 111.44 586.95 109.59 595.20 117.86
C 603.77 126.44 602.16 130.69 579.89 158.54
C 567.08 174.55 562.48 181.48 559.56 189.14
C 557.46 194.62 557.49 194.86 561.63 207.83
C 567.11 224.94 591.72 306.47 595.28 319.25
C 597.97 328.91 597.98 329.27 595.73 333.47
C 593.44 337.72 586.63 342.05 582.37 341.95
C 581.16 341.92 578.64 341.06 576.77 340.05
M 587.30 331.66
C 590.39 328.56 590.12 326.46 584.58 309.98
C 582.56 303.98 577.14 286.13 572.51 270.27
C 567.89 254.41 560.85 231.15 556.89 218.55
C 549.97 196.62 549.72 195.41 551.23 189.79
C 553.37 181.80 559.86 171.46 573.36 154.53
C 593.28 129.59 595.00 126.07 589.11 122.20
C 585.01 119.51 584.42 119.99 572.80 135.67
C 554.67 160.15 542.15 174.82 536.67 178.01
C 531.47 181.04 530.94 181.09 524.37 179.44
C 520.58 178.48 512.88 175.83 507.25 173.55
C 501.62 171.27 395.40 135.53 271.22 94.13
C 147.03 52.73 39.80 16.64 32.92 13.91
C 26.05 11.20 18.59 8.83 16.34 8.65
C 12.78 8.36 11.90 8.97 9.66 13.08
C 7.77 16.56 7.45 18.21 8.48 19.25
C 9.84 20.61 22.09 24.94 93.39 49.26
C 110.62 55.16 142.29 66.12 163.75 73.66
C 185.22 81.20 244.80 101.77 296.16 119.38
C 347.53 136.99 394.44 153.11 400.43 155.18
C 406.41 157.26 428.00 164.12 448.40 170.45
C 502.17 187.11 526.02 196.21 533.28 202.84
C 534.93 204.35 537.59 208.18 539.19 211.35
C 542.89 218.69 558.52 266.31 565.46 291.40
C 574.57 324.34 575.57 327.41 578.32 330.91
C 581.54 335.01 583.77 335.20 587.30 331.66"/>
<path fill="#f8c3b7" stroke="none" d="
M 578.32 330.91
C 575.57 327.41 574.57 324.34 565.46 291.40
C 558.52 266.31 542.89 218.69 539.19 211.35
C 537.59 208.18 534.93 204.35 533.28 202.84
C 526.02 196.21 502.17 187.11 448.40 170.45
C 428.00 164.12 406.41 157.26 400.43 155.18
C 394.44 153.11 347.53 136.99 296.16 119.38
C 244.80 101.77 185.22 81.20 163.75 73.66
C 142.29 66.12 110.62 55.16 93.39 49.26
C 22.68 25.14 9.84 20.61 8.61 19.38
C 6.87 17.64 9.80 10.57 12.97 8.88
C 14.74 7.92 17.72 8.48 24.63 11.04
C 29.73 12.94 139.25 49.76 268.02 92.89
C 396.78 136.01 505.59 172.73 509.81 174.50
C 514.03 176.28 520.58 178.49 524.37 179.45
C 530.94 181.09 531.48 181.04 536.67 178.01
C 542.15 174.82 554.67 160.15 572.80 135.67
C 584.42 119.99 585.01 119.51 589.11 122.20
C 595.00 126.07 593.28 129.59 573.36 154.53
C 559.86 171.46 553.37 181.80 551.23 189.79
C 549.72 195.41 549.97 196.62 556.89 218.55
C 560.85 231.15 567.89 254.41 572.51 270.27
C 577.14 286.13 582.56 303.98 584.58 309.98
C 590.12 326.46 590.39 328.56 587.30 331.66
C 583.77 335.20 581.54 335.01 578.32 330.91"/>
</g>
</svg>
