<?xml version="1.0" encoding="UTF-8" standalone="no"?>
<!DOCTYPE svg PUBLIC "-//W3C//DTD SVG 1.1//EN"
"http://www.w3.org/Graphics/SVG/1.1/DTD/svg11.dtd">
<svg width="268px" height="600px"
xmlns="http://www.w3.org/2000/svg" version="1.1">
<g transform="translate(0000, 0000) scale(1.0000, 1.0000)">
<path fill="#000000" stroke="none" d="
M 2.81 597.20
C 0.01 594.42 0.00 592.55 0.00 333.30
L 0.00 72.20
L 5.74 62.56
C 23.49 32.80 54.99 12.04 95.69 3.31
C 112.32 -0.25 155.95 -0.28 172.31 3.27
C 213.19 12.15 244.53 32.81 262.26 62.56
L 268.00 72.20
L 268.00 333.30
C 268.00 592.55 267.99 594.42 265.19 597.20
C 262.43 599.96 260.52 600.00 134.00 600.00
C 7.48 600.00 5.57 599.96 2.81 597.20
M 257.90 589.93
C 259.19 588.64 259.58 529.33 259.58 331.51
L 259.58 74.76
L 254.33 65.92
C 239.78 41.40 214.05 23.20 180.99 14.08
L 171.18 11.37
L 171.18 104.21
C 171.18 164.99 170.66 199.48 169.68 204.06
C 166.13 220.53 153.70 229.34 134.00 229.34
C 114.30 229.34 101.87 220.53 98.32 204.06
C 97.34 199.48 96.82 164.99 96.82 104.21
L 96.82 11.37
L 87.01 14.08
C 53.95 23.20 28.22 41.40 13.67 65.92
L 8.42 74.76
L 8.42 331.51
C 8.42 529.33 8.81 588.64 10.10 589.93
C 12.54 592.36 255.46 592.36 257.90 589.93
M 147.79 219.08
C 153.63 216.64 159.44 209.78 161.31 203.10
C 162.23 199.76 162.75 164.29 162.75 104.04
L 162.76 10.18
L 155.40 9.30
C 145.91 8.17 122.09 8.17 112.60 9.30
L 105.24 10.18
L 105.25 104.04
C 105.25 164.29 105.77 199.76 106.69 203.10
C 108.52 209.61 114.30 216.57 119.90 219.01
C 125.51 221.45 142.00 221.48 147.79 219.08"/>
<path fill="#c55436" stroke="none" d="
M 119.90 219.01
C 114.30 216.57 108.52 209.61 106.69 203.10
C 105.77 199.76 105.25 164.29 105.25 104.04
L 105.24 10.18
L 113.86 9.29
C 124.81 8.15 145.84 8.15 155.40 9.30
L 162.76 10.18
L 162.75 104.04
C 162.75 164.29 162.23 199.76 161.31 203.10
C 159.44 209.78 153.63 216.64 147.79 219.08
C 142.00 221.48 125.51 221.45 119.90 219.01"/>
<path fill="#ffaa53" stroke="none" d="
M 10.10 589.93
C 8.81 588.64 8.42 529.33 8.42 331.51
L 8.42 74.76
L 13.67 65.92
C 27.47 42.67 51.62 24.83 81.89 15.54
C 98.70 10.38 96.82 -0.88 96.82 104.83
C 96.82 165.17 97.34 199.48 98.32 204.06
C 101.87 220.53 114.30 229.34 134.00 229.34
C 153.70 229.34 166.13 220.53 169.68 204.06
C 170.66 199.48 171.18 164.99 171.18 104.21
L 171.18 11.37
L 180.99 14.08
C 214.05 23.20 239.78 41.40 254.33 65.92
L 259.58 74.76
L 259.58 331.51
C 259.58 529.33 259.19 588.64 257.90 589.93
C 255.46 592.36 12.54 592.36 10.10 589.93"/>
</g>
</svg>
