<?xml version="1.0" encoding="UTF-8" standalone="no"?>
<!DOCTYPE svg PUBLIC "-//W3C//DTD SVG 1.1//EN"
"http://www.w3.org/Graphics/SVG/1.1/DTD/svg11.dtd">
<svg width="477px" height="600px"
xmlns="http://www.w3.org/2000/svg" version="1.1">
<g transform="translate(0000, 0000) scale(1.0000, 1.0000)">
<path fill="#000000" stroke="none" d="
M 402.32 597.36
C 378.51 587.57 361.04 569.53 352.36 545.73
C 346.04 528.46 342.47 500.51 342.44 468.25
C 342.40 406.80 331.37 384.04 298.67 377.93
C 292.46 376.78 262.08 377.18 260.82 378.44
C 260.42 378.83 260.98 401.92 262.05 429.76
C 264.24 486.70 263.91 493.25 258.51 501.03
C 253.88 507.69 247.65 510.38 236.86 510.38
C 226.02 510.38 219.85 507.69 215.15 500.95
C 209.86 493.33 209.45 485.64 211.54 432.69
C 212.55 407.19 213.36 385.16 213.35 383.72
L 213.34 381.08
L 201.58 381.79
C 195.11 382.17 173.33 384.46 153.17 386.86
C 109.58 392.07 97.16 392.42 89.12 388.67
C 81.56 385.16 74.92 377.36 72.32 368.96
C 67.88 354.62 68.43 334.12 73.78 314.11
C 77.62 299.75 75.63 297.74 61.57 301.76
C 55.24 303.57 49.99 304.22 41.03 304.28
C 26.98 304.38 19.87 302.52 11.72 296.61
C 2.41 289.86 -0.46 282.34 2.59 272.66
C 8.46 254.09 42.50 241.50 73.92 246.30
C 87.17 248.31 96.22 251.52 101.34 256.01
C 107.22 261.16 108.75 264.97 108.73 274.32
C 108.71 281.32 107.87 284.96 102.92 299.44
C 97.66 314.77 97.16 317.04 97.62 323.50
C 98.17 331.15 101.44 339.87 105.36 344.12
C 111.60 350.91 119.56 352.00 141.72 349.11
C 154.06 347.50 214.76 337.78 215.11 337.36
C 215.20 337.25 216.06 316.01 217.03 290.16
C 218.01 264.32 219.09 238.55 219.46 232.90
L 220.13 222.62
L 204.42 223.28
C 195.79 223.64 172.23 225.92 152.07 228.35
C 108.56 233.58 96.09 233.95 88.03 230.20
C 80.47 226.69 73.83 218.89 71.22 210.49
C 66.79 196.15 67.34 175.65 72.69 155.64
C 76.53 141.28 74.54 139.27 60.48 143.29
C 54.14 145.10 48.89 145.75 39.93 145.81
C 25.88 145.91 18.77 144.05 10.62 138.14
C 1.31 131.39 -1.55 123.87 1.50 114.19
C 7.36 95.62 41.41 83.03 72.83 87.83
C 86.08 89.84 95.13 93.05 100.25 97.54
C 106.12 102.69 107.65 106.50 107.63 115.85
C 107.62 122.85 106.78 126.49 101.82 140.97
C 96.57 156.30 96.07 158.57 96.53 165.03
C 97.07 172.68 100.35 181.40 104.26 185.65
C 107.98 189.69 114.71 192.30 121.48 192.33
C 129.40 192.36 146.84 190.04 183.80 184.08
C 200.34 181.40 215.73 178.92 217.99 178.58
C 221.90 177.98 222.09 177.76 222.09 173.75
C 222.09 170.38 221.61 169.40 219.68 168.79
C 215.79 167.55 205.82 157.44 199.97 148.81
C 189.17 132.86 177.11 103.06 175.06 87.23
C 172.65 68.66 174.09 56.42 180.09 44.58
C 185.44 34.02 194.80 26.50 207.83 22.27
C 214.66 20.07 215.01 19.78 215.63 15.92
C 216.95 7.89 224.11 1.68 233.42 0.51
C 246.14 -1.07 256.31 5.42 258.13 16.26
C 258.70 19.72 259.23 20.12 265.88 22.27
C 292.39 30.86 303.20 52.28 298.66 87.23
C 296.60 103.06 284.55 132.86 273.75 148.81
C 267.90 157.44 257.93 167.55 254.04 168.79
C 252.41 169.30 251.63 170.43 251.63 172.27
L 251.63 174.99
L 259.56 174.17
C 271.49 172.93 307.53 173.23 320.55 174.69
C 355.65 178.60 389.43 188.26 409.48 200.12
C 418.72 205.58 429.95 215.98 435.61 224.32
C 442.30 234.15 449.36 249.73 452.59 261.75
C 455.39 272.14 455.54 273.96 455.57 298.91
C 455.60 322.36 455.28 327.16 452.57 344.26
C 443.27 402.86 441.37 422.69 442.32 450.82
C 443.05 472.25 445.29 486.55 452.31 514.47
C 458.59 539.44 462.53 550.55 470.55 565.92
C 477.51 579.29 478.19 582.42 474.81 585.79
C 470.03 590.57 464.42 588.23 453.35 576.85
C 430.00 552.89 416.46 527.60 409.51 495.08
C 406.19 479.55 406.73 435.75 410.68 398.91
C 416.78 342.03 414.09 310.02 400.84 282.00
C 389.05 257.05 372.43 243.04 343.16 233.36
C 321.71 226.26 293.30 221.86 269.01 221.86
L 253.69 221.86
L 254.35 234.70
C 255.04 248.00 258.19 326.74 258.19 330.60
C 258.19 332.72 258.93 332.79 283.63 332.79
C 306.31 332.79 310.09 333.06 318.59 335.21
C 343.05 341.44 358.32 353.45 368.29 374.32
C 376.15 390.78 379.07 409.87 380.68 455.26
C 382.48 505.65 384.74 523.05 392.18 543.86
C 397.67 559.21 403.58 568.37 415.39 579.84
C 426.39 590.51 427.71 593.50 423.39 597.81
C 420.25 600.95 410.56 600.74 402.32 597.36
M 418.58 593.27
C 419.04 592.51 417.41 590.27 414.54 587.75
C 405.13 579.43 402.30 576.44 398.25 570.49
C 386.21 552.81 379.34 530.45 376.43 499.45
C 375.78 492.55 374.74 472.66 374.12 455.26
C 372.91 421.39 371.16 404.34 367.54 391.26
C 361.64 369.95 350.30 355.41 333.54 347.67
C 317.85 340.42 311.41 339.34 283.72 339.34
C 270.38 339.34 259.29 339.60 259.06 339.89
C 258.84 340.19 258.84 347.38 259.07 355.87
L 259.49 371.29
L 276.71 370.74
C 290.31 370.31 295.65 370.58 302.10 372.01
C 328.28 377.83 341.47 393.68 346.33 425.14
C 347.20 430.85 348.40 450.27 348.98 468.31
C 350.54 517.18 353.65 535.58 363.54 554.59
C 372.85 572.47 393.38 589.15 411.34 593.40
C 416.83 594.71 417.69 594.69 418.58 593.27
M 469.83 580.42
C 470.18 579.86 467.79 574.33 464.52 568.12
C 456.84 553.51 452.99 542.31 446.41 515.40
C 438.00 481.03 437.10 473.86 437.10 440.98
C 437.09 413.57 437.92 401.91 441.45 379.23
C 449.29 328.96 450.74 316.24 450.74 298.26
C 450.74 274.40 446.97 258.19 437.10 239.66
C 424.54 216.08 408.54 203.56 377.44 193.05
C 344.45 181.89 308.68 177.22 271.87 179.28
C 262.84 179.78 254.84 180.23 254.09 180.26
C 252.55 180.34 252.23 192.80 253.43 206.94
L 254.13 215.30
L 260.93 215.30
C 264.67 215.30 274.07 215.79 281.82 216.40
C 343.33 221.21 379.47 235.87 398.04 263.54
C 414.54 288.11 422.06 325.37 419.09 367.90
C 418.38 378.04 416.75 395.68 415.47 407.10
C 412.25 435.66 412.03 479.20 415.03 492.86
C 419.43 512.89 427.43 531.87 438.50 548.58
C 444.09 557.04 466.25 581.42 468.32 581.42
C 468.82 581.42 469.49 580.96 469.83 580.42
M 247.67 503.40
C 253.15 501.11 256.08 496.16 257.32 487.09
C 258.13 481.16 257.30 451.70 253.91 366.67
C 251.46 304.75 248.96 240.57 248.37 224.04
C 247.78 207.52 246.98 188.83 246.58 182.51
L 245.88 171.04
L 236.87 171.04
L 227.86 171.04
L 227.13 181.42
C 226.74 187.13 225.94 205.81 225.36 222.95
C 224.31 254.51 220.83 344.94 218.84 392.90
C 215.47 473.91 215.30 480.52 216.42 487.76
C 217.72 496.10 220.78 501.17 225.81 503.36
C 230.26 505.29 243.07 505.32 247.67 503.40
M 146.60 381.88
C 164.36 379.79 186.47 377.39 195.72 376.55
C 207.05 375.52 212.87 374.54 213.48 373.57
C 213.98 372.78 214.41 365.86 214.41 358.20
C 214.43 344.30 214.43 344.26 211.86 344.26
C 210.44 344.26 197.52 346.20 183.14 348.57
C 129.86 357.36 116.95 358.20 107.49 353.49
C 96.90 348.21 91.07 334.59 92.19 317.78
C 92.66 310.79 93.96 305.54 97.94 294.54
C 103.98 277.81 104.61 271.43 100.83 265.32
C 97.93 260.63 93.49 257.66 84.62 254.50
C 75.50 251.26 53.63 250.42 42.54 252.89
C 16.61 258.66 0.65 275.95 11.04 286.98
L 13.41 289.51
L 18.85 286.75
C 21.84 285.25 24.98 284.27 25.82 284.59
C 28.39 285.57 27.54 288.37 24.13 290.13
C 19.04 292.77 19.16 293.87 24.81 296.44
C 32.81 300.08 46.45 299.79 60.63 295.69
C 70.75 292.77 71.79 292.66 75.95 294.09
C 82.68 296.42 83.37 300.62 79.50 315.68
C 73.86 337.64 73.29 353.23 77.68 365.78
C 82.62 379.96 94.19 387.21 109.91 386.01
C 112.34 385.84 128.86 383.97 146.60 381.88
M 149.88 222.93
C 170.05 220.58 193.97 218.07 203.06 217.36
L 219.60 216.04
L 220.30 204.57
C 221.50 184.94 221.47 184.70 217.99 184.70
C 216.33 184.71 201.69 186.89 185.44 189.55
C 128.18 198.95 115.99 199.79 106.40 195.02
C 95.80 189.74 89.97 176.12 91.10 159.31
C 91.57 152.32 92.86 147.07 96.84 136.07
C 102.88 119.34 103.52 112.96 99.73 106.85
C 96.83 102.16 92.39 99.19 83.53 96.03
C 74.41 92.79 52.54 91.95 41.44 94.42
C 15.51 100.19 -0.45 117.48 9.94 128.51
L 12.32 131.04
L 17.76 128.28
C 20.74 126.78 23.88 125.80 24.73 126.12
C 27.30 127.10 26.44 129.90 23.04 131.66
C 17.94 134.30 18.06 135.40 23.72 137.97
C 31.72 141.61 45.36 141.32 59.54 137.22
C 69.66 134.30 70.70 134.19 74.85 135.62
C 81.58 137.95 82.27 142.15 78.41 157.21
C 72.76 179.17 72.20 194.77 76.58 207.31
C 81.53 221.49 93.10 228.75 108.81 227.54
C 111.24 227.36 129.72 225.28 149.88 222.93
M 253.11 161.36
C 261.73 156.31 272.79 142.34 278.66 129.10
C 280.16 125.72 283.56 116.81 286.23 109.29
C 294.00 87.37 296.06 70.62 292.62 57.41
C 286.57 34.23 270.86 25.14 236.86 25.14
C 202.86 25.14 187.15 34.23 181.10 57.41
C 177.64 70.70 179.71 87.28 187.65 109.84
C 194.38 128.94 200.21 140.45 207.69 149.34
C 214.65 157.62 221.07 162.59 226.60 164.00
C 228.63 164.52 234.34 164.78 239.29 164.56
C 246.54 164.25 249.21 163.64 253.11 161.36
M 252.72 16.83
C 252.72 12.32 246.53 6.91 240.31 5.98
C 231.06 4.59 221.00 10.38 221.00 17.08
L 221.00 19.67
L 236.86 19.67
L 252.72 19.67
L 252.72 16.83"/>
<path fill="#000000" stroke="none" d="
M 356.17 474.08
C 352.64 469.04 355.74 462.30 361.58 462.30
C 363.09 462.30 365.30 463.28 366.50 464.48
C 367.71 465.68 368.69 467.89 368.69 469.40
C 368.69 475.67 359.66 479.05 356.17 474.08
M 364.26 471.65
C 365.96 469.61 363.82 465.29 361.35 465.78
C 358.53 466.34 357.10 469.49 358.77 471.50
C 360.55 473.64 362.55 473.70 364.26 471.65"/>
<path fill="#000000" stroke="none" d="
M 356.17 440.20
C 352.64 435.16 355.74 428.42 361.58 428.42
C 363.09 428.42 365.30 429.40 366.50 430.60
C 367.71 431.80 368.69 434.01 368.69 435.52
C 368.69 441.79 359.66 445.17 356.17 440.20
M 364.26 437.77
C 365.96 435.73 363.82 431.41 361.35 431.90
C 358.53 432.46 357.10 435.61 358.77 437.62
C 360.55 439.76 362.55 439.83 364.26 437.77"/>
<path fill="#000000" stroke="none" d="
M 347.42 406.32
C 343.89 401.28 346.98 394.54 352.83 394.54
C 354.34 394.54 356.55 395.52 357.75 396.72
C 358.95 397.92 359.94 400.13 359.94 401.64
C 359.94 407.91 350.91 411.29 347.42 406.32
M 355.51 403.89
C 357.20 401.85 355.07 397.53 352.60 398.02
C 349.77 398.58 348.35 401.73 350.02 403.74
C 351.80 405.88 353.80 405.95 355.51 403.89"/>
<path fill="#000000" stroke="none" d="
M 332.11 375.72
C 328.57 370.68 331.67 363.93 337.51 363.93
C 339.02 363.93 341.23 364.92 342.43 366.12
C 343.64 367.32 344.62 369.53 344.62 371.04
C 344.62 377.31 335.60 380.69 332.11 375.72
M 340.19 373.29
C 341.89 371.25 339.75 366.93 337.28 367.42
C 334.46 367.98 333.04 371.13 334.70 373.14
C 336.48 375.28 338.48 375.34 340.19 373.29"/>
<path fill="#000000" stroke="none" d="
M 302.57 361.51
C 299.03 356.47 302.13 349.73 307.97 349.73
C 309.48 349.73 311.69 350.71 312.89 351.91
C 314.10 353.11 315.08 355.32 315.08 356.83
C 315.08 363.10 306.06 366.48 302.57 361.51
M 310.65 359.08
C 312.35 357.04 310.21 352.72 307.74 353.21
C 304.92 353.77 303.50 356.92 305.16 358.93
C 306.94 361.07 308.95 361.14 310.65 359.08"/>
<path fill="#000000" stroke="none" d="
M 270.84 359.32
C 268.51 356.01 268.70 352.35 271.32 349.73
C 275.65 345.40 283.36 348.55 283.36 354.64
C 283.36 360.92 274.33 364.30 270.84 359.32
M 278.92 356.90
C 280.62 354.85 278.49 350.54 276.01 351.03
C 273.19 351.58 271.77 354.73 273.43 356.74
C 275.22 358.89 277.22 358.95 278.92 356.90"/>
<path fill="#000000" stroke="none" d="
M 427.29 340.74
C 423.75 335.70 426.85 328.96 432.69 328.96
C 434.20 328.96 436.41 329.95 437.61 331.15
C 438.82 332.35 439.80 334.56 439.80 336.07
C 439.80 342.34 430.78 345.72 427.29 340.74
M 435.37 338.32
C 437.07 336.27 434.93 331.96 432.46 332.45
C 429.64 333.01 428.22 336.15 429.88 338.16
C 431.66 340.31 433.67 340.37 435.37 338.32"/>
<path fill="#000000" stroke="none" d="
M 429.48 312.33
C 425.94 307.29 429.04 300.55 434.88 300.55
C 436.39 300.55 438.60 301.53 439.80 302.73
C 441.01 303.93 441.99 306.14 441.99 307.65
C 441.99 313.92 432.97 317.30 429.48 312.33
M 437.56 309.90
C 439.26 307.86 437.12 303.54 434.65 304.03
C 431.83 304.59 430.40 307.74 432.07 309.75
C 433.85 311.89 435.85 311.96 437.56 309.90"/>
<path fill="#000000" stroke="none" d="
M 421.82 280.63
C 419.49 277.32 419.67 273.66 422.30 271.04
C 426.63 266.71 434.33 269.86 434.33 275.96
C 434.33 282.23 425.31 285.61 421.82 280.63
M 429.90 278.21
C 431.60 276.16 429.46 271.85 426.99 272.34
C 424.17 272.90 422.75 276.04 424.41 278.05
C 426.19 280.20 428.20 280.26 429.90 278.21"/>
<path fill="#000000" stroke="none" d="
M 407.59 250.03
C 405.26 246.72 405.45 243.06 408.08 240.44
C 412.41 236.11 420.11 239.26 420.11 245.36
C 420.11 251.63 411.08 255.01 407.59 250.03
M 415.68 247.61
C 417.38 245.56 415.24 241.25 412.77 241.74
C 409.95 242.30 408.52 245.44 410.19 247.45
C 411.97 249.60 413.97 249.66 415.68 247.61"/>
<path fill="#000000" stroke="none" d="
M 385.71 229.27
C 383.38 225.96 383.57 222.30 386.19 219.67
C 390.53 215.34 398.23 218.49 398.23 224.59
C 398.23 230.86 389.20 234.24 385.71 229.27
M 393.80 226.84
C 395.49 224.80 393.36 220.48 390.89 220.97
C 388.07 221.53 386.64 224.68 388.31 226.69
C 390.09 228.83 392.09 228.90 393.80 226.84"/>
<path fill="#000000" stroke="none" d="
M 356.17 216.15
C 353.84 212.84 354.03 209.18 356.66 206.56
C 360.99 202.23 368.69 205.38 368.69 211.48
C 368.69 217.75 359.66 221.13 356.17 216.15
M 364.26 213.73
C 365.96 211.68 363.82 207.37 361.35 207.86
C 358.53 208.42 357.10 211.56 358.77 213.57
C 360.55 215.72 362.55 215.78 364.26 213.73"/>
<path fill="#000000" stroke="none" d="
M 324.45 207.41
C 322.12 204.10 322.30 200.44 324.93 197.81
C 329.26 193.49 336.96 196.63 336.96 202.73
C 336.96 209.01 327.94 212.38 324.45 207.41
M 332.53 204.98
C 334.23 202.94 332.09 198.62 329.62 199.11
C 326.80 199.67 325.38 202.82 327.04 204.83
C 328.82 206.97 330.83 207.04 332.53 204.98"/>
<path fill="#000000" stroke="none" d="
M 289.44 201.95
C 287.11 198.63 287.29 194.97 289.92 192.35
C 294.25 188.02 301.95 191.17 301.95 197.27
C 301.95 203.54 292.93 206.92 289.44 201.95
M 297.52 199.52
C 299.22 197.48 297.09 193.16 294.61 193.65
C 291.79 194.21 290.37 197.36 292.03 199.37
C 293.81 201.51 295.82 201.57 297.52 199.52"/>
<path fill="#000000" stroke="none" d="
M 256.62 200.85
C 253.08 195.81 256.18 189.07 262.02 189.07
C 263.53 189.07 265.74 190.05 266.94 191.26
C 268.15 192.46 269.13 194.67 269.13 196.17
C 269.13 202.45 260.11 205.83 256.62 200.85
M 264.70 198.43
C 266.40 196.38 264.26 192.07 261.79 192.56
C 258.97 193.11 257.55 196.26 259.21 198.27
C 260.99 200.42 263.00 200.48 264.70 198.43"/>
<path fill="#000000" stroke="none" d="
M 122.05 374.62
C 119.72 371.31 119.91 367.65 122.53 365.03
C 126.86 360.70 134.57 363.85 134.57 369.95
C 134.57 376.22 125.54 379.60 122.05 374.62
M 130.14 372.20
C 131.83 370.15 129.70 365.84 127.23 366.33
C 124.40 366.89 122.98 370.03 124.64 372.04
C 126.43 374.19 128.43 374.25 130.14 372.20"/>
<path fill="#000000" stroke="none" d="
M 155.97 371.34
C 153.64 368.03 153.82 364.37 156.45 361.75
C 160.78 357.42 168.48 360.57 168.48 366.67
C 168.48 372.94 159.46 376.32 155.97 371.34
M 164.05 368.92
C 165.75 366.87 163.61 362.56 161.14 363.05
C 158.32 363.61 156.90 366.75 158.56 368.77
C 160.34 370.91 162.34 370.97 164.05 368.92"/>
<path fill="#000000" stroke="none" d="
M 92.51 370.25
C 90.18 366.94 90.37 363.28 92.99 360.66
C 97.33 356.33 105.03 359.48 105.03 365.57
C 105.03 371.85 96.00 375.22 92.51 370.25
M 100.60 367.83
C 102.29 365.78 100.16 361.46 97.69 361.96
C 94.86 362.51 93.44 365.66 95.10 367.67
C 96.89 369.81 98.89 369.88 100.60 367.83"/>
<path fill="#000000" stroke="none" d="
M 190.98 365.88
C 188.64 362.57 188.83 358.91 191.46 356.28
C 195.79 351.96 203.49 355.10 203.49 361.20
C 203.49 367.48 194.47 370.85 190.98 365.88
M 199.06 363.45
C 200.76 361.41 198.62 357.09 196.15 357.58
C 193.33 358.14 191.90 361.29 193.57 363.30
C 195.35 365.44 197.35 365.51 199.06 363.45"/>
<path fill="#000000" stroke="none" d="
M 30.55 276.59
C 26.14 272.17 26.14 266.62 30.55 262.21
C 32.92 259.85 34.78 259.02 37.74 259.02
C 43.30 259.02 48.14 263.85 48.14 269.40
C 48.14 274.95 43.30 279.78 37.74 279.78
C 34.78 279.78 32.92 278.95 30.55 276.59
M 42.67 274.32
C 43.87 273.11 44.86 270.91 44.86 269.40
C 44.86 266.63 41.46 262.30 39.30 262.30
C 38.64 262.30 38.29 262.67 38.51 263.11
C 38.73 263.56 39.58 265.27 40.39 266.90
C 41.68 269.46 41.65 270.22 40.09 272.59
C 39.10 274.10 38.29 275.60 38.29 275.91
C 38.29 277.22 40.61 276.37 42.67 274.32"/>
<path fill="#000000" stroke="none" d="
M 120.96 216.15
C 117.42 211.11 120.52 204.37 126.36 204.37
C 127.87 204.37 130.08 205.36 131.28 206.56
C 132.49 207.76 133.47 209.97 133.47 211.48
C 133.47 217.75 124.45 221.13 120.96 216.15
M 129.04 213.73
C 130.74 211.68 128.60 207.37 126.13 207.86
C 123.31 208.42 121.89 211.56 123.55 213.57
C 125.33 215.72 127.33 215.78 129.04 213.73"/>
<path fill="#000000" stroke="none" d="
M 154.87 212.87
C 151.34 207.84 154.43 201.09 160.28 201.09
C 161.79 201.09 164.00 202.08 165.20 203.28
C 166.40 204.48 167.39 206.69 167.39 208.20
C 167.39 214.47 158.36 217.85 154.87 212.87
M 162.96 210.45
C 164.65 208.40 162.52 204.09 160.05 204.58
C 157.22 205.14 155.80 208.28 157.46 210.30
C 159.25 212.44 161.25 212.50 162.96 210.45"/>
<path fill="#000000" stroke="none" d="
M 91.42 211.78
C 87.88 206.74 90.98 200.00 96.82 200.00
C 98.33 200.00 100.54 200.98 101.75 202.19
C 102.95 203.39 103.93 205.60 103.93 207.10
C 103.93 213.38 94.91 216.75 91.42 211.78
M 99.50 209.36
C 101.20 207.31 99.07 202.99 96.59 203.49
C 93.77 204.04 92.35 207.19 94.01 209.20
C 95.79 211.34 97.80 211.41 99.50 209.36"/>
<path fill="#000000" stroke="none" d="
M 189.88 207.41
C 186.35 202.37 189.44 195.63 195.29 195.63
C 196.80 195.63 199.01 196.61 200.21 197.81
C 201.41 199.02 202.40 201.22 202.40 202.73
C 202.40 209.01 193.37 212.38 189.88 207.41
M 197.97 204.98
C 199.66 202.94 197.53 198.62 195.06 199.11
C 192.23 199.67 190.81 202.82 192.47 204.83
C 194.26 206.97 196.26 207.04 197.97 204.98"/>
<path fill="#000000" stroke="none" d="
M 29.45 118.12
C 25.04 113.70 25.04 108.15 29.45 103.74
C 31.83 101.38 33.69 100.55 36.65 100.55
C 42.21 100.55 47.04 105.38 47.04 110.93
C 47.04 113.89 46.21 115.75 43.85 118.12
C 39.43 122.52 33.87 122.52 29.45 118.12
M 41.57 115.85
C 42.78 114.64 43.76 112.44 43.76 110.93
C 43.76 108.16 40.37 103.83 38.20 103.83
C 37.55 103.83 37.20 104.20 37.42 104.64
C 37.63 105.09 38.49 106.80 39.30 108.43
C 40.59 110.99 40.56 111.75 38.99 114.12
C 38.01 115.63 37.20 117.13 37.20 117.44
C 37.20 118.75 39.52 117.90 41.57 115.85"/>
<path fill="#c55436" stroke="none" d="
M 225.81 503.36
C 220.78 501.17 217.72 496.10 216.42 487.76
C 215.30 480.52 215.47 473.91 218.84 392.90
C 220.83 344.94 224.31 254.51 225.36 222.95
C 225.94 205.81 226.74 187.13 227.13 181.42
L 227.86 171.04
L 236.87 171.04
L 245.88 171.04
L 246.58 182.51
C 246.98 188.83 247.78 207.52 248.37 224.04
C 248.96 240.57 251.46 304.75 253.91 366.67
C 257.30 451.70 258.13 481.16 257.32 487.09
C 256.08 496.16 253.15 501.11 247.67 503.40
C 243.07 505.32 230.26 505.29 225.81 503.36"/>
<path fill="#c55436" stroke="none" d="
M 221.00 16.85
C 221.00 10.38 231.89 4.52 241.06 6.08
C 246.61 7.01 252.72 12.66 252.72 16.83
L 252.72 19.67
L 236.86 19.67
L 221.00 19.67
L 221.00 16.85"/>
<path fill="#f9a91d" stroke="none" d="
M 226.60 164.00
C 221.07 162.59 214.65 157.62 207.69 149.34
C 200.21 140.45 194.38 128.94 187.65 109.84
C 179.71 87.28 177.64 70.70 181.10 57.41
C 187.16 34.19 202.94 25.14 237.42 25.14
C 270.82 25.14 286.62 34.37 292.62 57.41
C 296.06 70.62 294.00 87.37 286.23 109.29
C 277.85 132.92 273.25 141.61 263.16 152.77
C 255.17 161.58 250.07 164.11 239.29 164.56
C 234.34 164.78 228.63 164.52 226.60 164.00"/>
<path fill="#f8a81d" stroke="none" d="
M 411.34 593.40
C 393.38 589.15 372.85 572.47 363.54 554.59
C 353.65 535.58 350.54 517.18 348.98 468.31
C 348.40 450.27 347.20 430.85 346.33 425.14
C 341.47 393.68 328.28 377.83 302.10 372.01
C 295.65 370.58 290.31 370.31 276.71 370.74
L 259.49 371.29
L 259.07 355.87
C 258.84 347.38 258.84 340.19 259.06 339.89
C 259.29 339.60 270.38 339.34 283.72 339.34
C 311.41 339.34 317.85 340.42 333.54 347.67
C 350.30 355.41 361.64 369.95 367.54 391.26
C 371.16 404.34 372.91 421.39 374.12 455.26
C 374.74 472.66 375.78 492.55 376.43 499.45
C 379.34 530.45 386.21 552.81 398.25 570.49
C 402.30 576.44 405.13 579.43 414.54 587.75
C 421.11 593.54 420.01 595.46 411.34 593.40
M 366.50 474.32
C 367.71 473.11 368.69 470.91 368.69 469.40
C 368.69 467.89 367.71 465.68 366.50 464.48
C 360.18 458.16 350.99 466.69 356.17 474.08
C 358.34 477.17 363.53 477.29 366.50 474.32
M 366.50 440.44
C 367.71 439.23 368.69 437.03 368.69 435.52
C 368.69 434.01 367.71 431.80 366.50 430.60
C 360.18 424.28 350.99 432.81 356.17 440.20
C 358.34 443.29 363.53 443.41 366.50 440.44
M 357.75 406.56
C 358.95 405.36 359.94 403.15 359.94 401.64
C 359.94 400.13 358.95 397.92 357.75 396.72
C 351.43 390.40 342.24 398.93 347.42 406.32
C 349.59 409.41 354.77 409.53 357.75 406.56
M 342.43 375.96
C 343.64 374.75 344.62 372.55 344.62 371.04
C 344.62 369.53 343.64 367.32 342.43 366.12
C 336.11 359.80 326.92 368.33 332.11 375.72
C 334.27 378.81 339.46 378.93 342.43 375.96
M 312.89 361.75
C 314.10 360.55 315.08 358.34 315.08 356.83
C 315.08 355.32 314.10 353.11 312.89 351.91
C 306.57 345.60 297.38 354.12 302.57 361.51
C 304.73 364.60 309.92 364.72 312.89 361.75
M 281.17 359.56
C 285.50 355.23 282.35 347.54 276.24 347.54
C 272.83 347.54 269.13 351.10 269.13 354.40
C 269.13 360.97 276.56 364.16 281.17 359.56"/>
<path fill="#f8a81d" stroke="none" d="
M 456.03 569.62
C 434.79 547.66 421.70 523.14 415.03 492.86
C 412.03 479.20 412.25 435.66 415.47 407.10
C 416.75 395.68 418.38 378.04 419.09 367.90
C 422.06 325.37 414.54 288.11 398.04 263.54
C 379.47 235.87 343.33 221.21 281.82 216.40
C 274.07 215.79 264.67 215.30 260.93 215.30
L 254.13 215.30
L 253.43 206.94
C 252.23 192.80 252.55 180.34 254.09 180.26
C 254.84 180.23 262.84 179.78 271.87 179.28
C 308.68 177.22 344.45 181.89 377.44 193.05
C 408.54 203.56 424.54 216.08 437.10 239.66
C 446.97 258.19 450.74 274.40 450.74 298.26
C 450.74 316.24 449.29 328.96 441.45 379.23
C 437.92 401.91 437.09 413.57 437.10 440.98
C 437.10 473.86 438.00 481.03 446.41 515.40
C 452.99 542.31 456.84 553.51 464.52 568.12
C 469.94 578.42 470.80 581.42 468.32 581.42
C 467.84 581.42 462.31 576.11 456.03 569.62
M 437.61 340.98
C 438.82 339.78 439.80 337.57 439.80 336.07
C 439.80 334.56 438.82 332.35 437.61 331.15
C 431.29 324.83 422.10 333.36 427.29 340.74
C 429.45 343.84 434.64 343.96 437.61 340.98
M 439.80 312.57
C 441.01 311.37 441.99 309.16 441.99 307.65
C 441.99 306.14 441.01 303.93 439.80 302.73
C 433.48 296.42 424.29 304.94 429.48 312.33
C 431.64 315.42 436.83 315.54 439.80 312.57
M 432.14 280.87
C 436.48 276.55 433.33 268.85 427.22 268.85
C 423.81 268.85 420.11 272.42 420.11 275.72
C 420.11 282.28 427.54 285.48 432.14 280.87
M 417.92 250.27
C 422.25 245.95 419.10 238.25 413.00 238.25
C 409.59 238.25 405.89 241.81 405.89 245.11
C 405.89 251.68 413.32 254.87 417.92 250.27
M 396.04 229.51
C 400.37 225.18 397.22 217.49 391.12 217.49
C 387.70 217.49 384.01 221.05 384.01 224.35
C 384.01 230.92 391.44 234.11 396.04 229.51
M 366.50 216.39
C 370.83 212.07 367.68 204.37 361.58 204.37
C 358.17 204.37 354.47 207.93 354.47 211.23
C 354.47 217.80 361.90 220.99 366.50 216.39
M 334.78 207.65
C 339.11 203.32 335.96 195.63 329.85 195.63
C 326.44 195.63 322.74 199.19 322.74 202.49
C 322.74 209.06 330.17 212.25 334.78 207.65
M 299.77 202.19
C 304.10 197.86 300.95 190.16 294.84 190.16
C 291.43 190.16 287.73 193.73 287.73 197.03
C 287.73 203.60 295.16 206.79 299.77 202.19
M 266.94 201.09
C 268.15 199.89 269.13 197.68 269.13 196.17
C 269.13 194.67 268.15 192.46 266.94 191.26
C 260.62 184.94 251.43 193.46 256.62 200.85
C 258.78 203.95 263.97 204.07 266.94 201.09"/>
<path fill="#f8a81d" stroke="none" d="
M 100.30 385.62
C 89.85 384.12 81.53 376.83 77.68 365.78
C 73.29 353.23 73.86 337.64 79.50 315.68
C 83.37 300.62 82.68 296.42 75.95 294.09
C 71.79 292.66 70.75 292.77 60.63 295.69
C 46.45 299.79 32.81 300.08 24.81 296.44
C 19.16 293.87 19.04 292.77 24.13 290.13
C 27.54 288.37 28.39 285.57 25.82 284.59
C 24.98 284.27 21.84 285.25 18.85 286.75
L 13.41 289.51
L 11.04 286.98
C 0.65 275.95 16.61 258.66 42.54 252.89
C 53.63 250.42 75.50 251.26 84.62 254.50
C 93.49 257.66 97.93 260.63 100.83 265.32
C 104.61 271.43 103.98 277.81 97.94 294.54
C 93.96 305.54 92.66 310.79 92.19 317.78
C 91.07 334.59 96.90 348.21 107.49 353.49
C 116.95 358.20 129.86 357.36 183.14 348.57
C 197.52 346.20 210.44 344.26 211.86 344.26
C 214.43 344.26 214.43 344.30 214.41 358.20
C 214.41 365.86 213.98 372.78 213.48 373.57
C 212.87 374.54 207.05 375.52 195.72 376.55
C 186.47 377.39 164.36 379.79 146.60 381.88
C 107.48 386.48 106.79 386.54 100.30 385.62
M 132.38 374.86
C 136.71 370.54 133.56 362.84 127.46 362.84
C 124.04 362.84 120.34 366.40 120.34 369.70
C 120.34 376.27 127.77 379.46 132.38 374.86
M 166.29 371.58
C 170.63 367.26 167.48 359.56 161.37 359.56
C 157.96 359.56 154.26 363.13 154.26 366.43
C 154.26 372.99 161.69 376.19 166.29 371.58
M 102.84 370.49
C 107.17 366.16 104.02 358.47 97.92 358.47
C 94.50 358.47 90.81 362.03 90.81 365.33
C 90.81 371.90 98.23 375.09 102.84 370.49
M 201.30 366.12
C 205.64 361.79 202.48 354.10 196.38 354.10
C 192.97 354.10 189.27 357.66 189.27 360.96
C 189.27 367.53 196.70 370.72 201.30 366.12
M 44.94 276.59
C 47.31 274.22 48.14 272.36 48.14 269.40
C 48.14 266.44 47.31 264.58 44.94 262.21
C 42.57 259.85 40.71 259.02 37.74 259.02
C 32.19 259.02 27.35 263.85 27.35 269.40
C 27.35 274.95 32.19 279.78 37.74 279.78
C 40.71 279.78 42.57 278.95 44.94 276.59"/>
<path fill="#f8a81d" stroke="none" d="
M 99.21 227.15
C 88.76 225.65 80.43 218.36 76.58 207.31
C 72.20 194.77 72.76 179.17 78.41 157.21
C 82.27 142.15 81.58 137.95 74.85 135.62
C 70.70 134.19 69.66 134.30 59.54 137.22
C 45.36 141.32 31.72 141.61 23.72 137.97
C 18.06 135.40 17.94 134.30 23.04 131.66
C 26.44 129.90 27.30 127.10 24.73 126.12
C 23.88 125.80 20.74 126.78 17.76 128.28
L 12.32 131.04
L 9.94 128.51
C -0.50 117.41 15.83 99.90 41.76 94.39
C 52.94 92.01 74.65 92.87 83.53 96.03
C 92.39 99.19 96.83 102.16 99.73 106.85
C 103.52 112.96 102.88 119.34 96.84 136.07
C 92.86 147.07 91.57 152.32 91.10 159.31
C 89.97 176.12 95.80 189.74 106.40 195.02
C 115.99 199.79 128.18 198.95 185.44 189.55
C 201.69 186.89 216.33 184.71 217.99 184.70
C 221.47 184.70 221.50 184.94 220.30 204.57
L 219.60 216.04
L 203.06 217.36
C 193.97 218.07 170.05 220.58 149.88 222.93
C 105.80 228.07 105.73 228.08 99.21 227.15
M 131.28 216.39
C 132.49 215.19 133.47 212.98 133.47 211.48
C 133.47 209.97 132.49 207.76 131.28 206.56
C 124.96 200.24 115.77 208.77 120.96 216.15
C 123.12 219.25 128.31 219.37 131.28 216.39
M 165.20 213.11
C 166.40 211.91 167.39 209.70 167.39 208.20
C 167.39 206.69 166.40 204.48 165.20 203.28
C 158.88 196.96 149.69 205.49 154.87 212.87
C 157.04 215.97 162.22 216.09 165.20 213.11
M 101.75 212.02
C 102.95 210.82 103.93 208.61 103.93 207.10
C 103.93 205.60 102.95 203.39 101.75 202.19
C 95.42 195.87 86.23 204.39 91.42 211.78
C 93.58 214.87 98.77 214.99 101.75 212.02
M 200.21 207.65
C 201.41 206.45 202.40 204.24 202.40 202.73
C 202.40 201.22 201.41 199.02 200.21 197.81
C 193.89 191.50 184.70 200.02 189.88 207.41
C 192.05 210.50 197.23 210.62 200.21 207.65
M 43.85 118.12
C 46.21 115.75 47.04 113.89 47.04 110.93
C 47.04 105.38 42.21 100.55 36.65 100.55
C 33.69 100.55 31.83 101.38 29.45 103.74
C 25.04 108.15 25.04 113.70 29.45 118.12
C 33.87 122.52 39.43 122.52 43.85 118.12"/>
<path fill="#eb2e00" stroke="none" d="
M 38.29 275.91
C 38.29 275.60 39.10 274.10 40.09 272.59
C 41.65 270.22 41.68 269.46 40.39 266.90
C 39.58 265.27 38.73 263.56 38.51 263.11
C 38.29 262.67 38.64 262.30 39.30 262.30
C 41.46 262.30 44.86 266.63 44.86 269.40
C 44.86 270.91 43.87 273.11 42.67 274.32
C 40.61 276.37 38.29 277.22 38.29 275.91"/>
<path fill="#eb2e00" stroke="none" d="
M 37.42 117.21
C 37.63 116.77 38.49 115.06 39.30 113.43
C 40.59 110.86 40.56 110.11 39.00 107.75
C 36.73 104.27 38.55 102.99 41.53 105.97
C 44.36 108.80 44.39 113.04 41.57 115.85
C 39.46 117.96 36.60 118.90 37.42 117.21"/>
<path fill="#8c5320" stroke="none" d="
M 358.77 471.50
C 357.10 469.49 358.53 466.34 361.35 465.78
C 363.82 465.29 365.96 469.61 364.26 471.65
C 362.55 473.70 360.55 473.64 358.77 471.50"/>
<path fill="#8c5320" stroke="none" d="
M 358.77 437.62
C 357.10 435.61 358.53 432.46 361.35 431.90
C 363.82 431.41 365.96 435.73 364.26 437.77
C 362.55 439.83 360.55 439.76 358.77 437.62"/>
<path fill="#8c5320" stroke="none" d="
M 350.02 403.74
C 348.35 401.73 349.77 398.58 352.60 398.02
C 355.07 397.53 357.20 401.85 355.51 403.89
C 353.80 405.95 351.80 405.88 350.02 403.74"/>
<path fill="#8c5320" stroke="none" d="
M 334.70 373.14
C 333.04 371.13 334.46 367.98 337.28 367.42
C 339.75 366.93 341.89 371.25 340.19 373.29
C 338.48 375.34 336.48 375.28 334.70 373.14"/>
<path fill="#8c5320" stroke="none" d="
M 124.64 372.04
C 122.98 370.03 124.40 366.89 127.23 366.33
C 129.70 365.84 131.83 370.15 130.14 372.20
C 128.43 374.25 126.43 374.19 124.64 372.04"/>
<path fill="#8c5320" stroke="none" d="
M 158.56 368.77
C 156.90 366.75 158.32 363.61 161.14 363.05
C 163.61 362.56 165.75 366.87 164.05 368.92
C 162.34 370.97 160.34 370.91 158.56 368.77"/>
<path fill="#8c5320" stroke="none" d="
M 95.10 367.67
C 93.44 365.66 94.86 362.51 97.69 361.96
C 100.16 361.46 102.29 365.78 100.60 367.83
C 98.89 369.88 96.89 369.81 95.10 367.67"/>
<path fill="#8c5320" stroke="none" d="
M 193.57 363.30
C 191.90 361.29 193.33 358.14 196.15 357.58
C 198.62 357.09 200.76 361.41 199.06 363.45
C 197.35 365.51 195.35 365.44 193.57 363.30"/>
<path fill="#8c5320" stroke="none" d="
M 305.16 358.93
C 303.50 356.92 304.92 353.77 307.74 353.21
C 310.21 352.72 312.35 357.04 310.65 359.08
C 308.95 361.14 306.94 361.07 305.16 358.93"/>
<path fill="#8c5320" stroke="none" d="
M 273.43 356.74
C 271.77 354.73 273.19 351.58 276.01 351.03
C 278.49 350.54 280.62 354.85 278.92 356.90
C 277.22 358.95 275.22 358.89 273.43 356.74"/>
<path fill="#8c5320" stroke="none" d="
M 429.88 338.16
C 428.22 336.15 429.64 333.01 432.46 332.45
C 434.93 331.96 437.07 336.27 435.37 338.32
C 433.67 340.37 431.66 340.31 429.88 338.16"/>
<path fill="#8c5320" stroke="none" d="
M 432.07 309.75
C 430.40 307.74 431.83 304.59 434.65 304.03
C 437.12 303.54 439.26 307.86 437.56 309.90
C 435.85 311.96 433.85 311.89 432.07 309.75"/>
<path fill="#8c5320" stroke="none" d="
M 424.41 278.05
C 422.75 276.04 424.17 272.90 426.99 272.34
C 429.46 271.85 431.60 276.16 429.90 278.21
C 428.20 280.26 426.19 280.20 424.41 278.05"/>
<path fill="#8c5320" stroke="none" d="
M 410.19 247.45
C 408.52 245.44 409.95 242.30 412.77 241.74
C 415.24 241.25 417.38 245.56 415.68 247.61
C 413.97 249.66 411.97 249.60 410.19 247.45"/>
<path fill="#8c5320" stroke="none" d="
M 388.31 226.69
C 386.64 224.68 388.07 221.53 390.89 220.97
C 393.36 220.48 395.49 224.80 393.80 226.84
C 392.09 228.90 390.09 228.83 388.31 226.69"/>
<path fill="#8c5320" stroke="none" d="
M 123.55 213.57
C 121.89 211.56 123.31 208.42 126.13 207.86
C 128.60 207.37 130.74 211.68 129.04 213.73
C 127.33 215.78 125.33 215.72 123.55 213.57"/>
<path fill="#8c5320" stroke="none" d="
M 358.77 213.57
C 357.10 211.56 358.53 208.42 361.35 207.86
C 363.82 207.37 365.96 211.68 364.26 213.73
C 362.55 215.78 360.55 215.72 358.77 213.57"/>
<path fill="#8c5320" stroke="none" d="
M 157.46 210.30
C 155.80 208.28 157.22 205.14 160.05 204.58
C 162.52 204.09 164.65 208.40 162.96 210.45
C 161.25 212.50 159.25 212.44 157.46 210.30"/>
<path fill="#8c5320" stroke="none" d="
M 94.01 209.20
C 92.35 207.19 93.77 204.04 96.59 203.49
C 99.07 202.99 101.20 207.31 99.50 209.36
C 97.80 211.41 95.79 211.34 94.01 209.20"/>
<path fill="#8c5320" stroke="none" d="
M 192.47 204.83
C 190.81 202.82 192.23 199.67 195.06 199.11
C 197.53 198.62 199.66 202.94 197.97 204.98
C 196.26 207.04 194.26 206.97 192.47 204.83"/>
<path fill="#8c5320" stroke="none" d="
M 327.04 204.83
C 325.38 202.82 326.80 199.67 329.62 199.11
C 332.09 198.62 334.23 202.94 332.53 204.98
C 330.83 207.04 328.82 206.97 327.04 204.83"/>
<path fill="#8c5320" stroke="none" d="
M 292.03 199.37
C 290.37 197.36 291.79 194.21 294.61 193.65
C 297.09 193.16 299.22 197.48 297.52 199.52
C 295.82 201.57 293.81 201.51 292.03 199.37"/>
<path fill="#8c5320" stroke="none" d="
M 259.51 198.69
C 257.59 196.78 257.90 194.77 260.30 193.49
C 263.17 191.96 263.40 192.01 264.79 194.60
C 266.86 198.46 262.58 201.76 259.51 198.69"/>
</g>
</svg>
