<?xml version="1.0" encoding="UTF-8" standalone="no"?>
<!DOCTYPE svg PUBLIC "-//W3C//DTD SVG 1.1//EN"
"http://www.w3.org/Graphics/SVG/1.1/DTD/svg11.dtd">
<svg width="143px" height="600px"
xmlns="http://www.w3.org/2000/svg" version="1.1">
<g transform="translate(0000, 0000) scale(1.0000, 1.0000)">
<path fill="#000000" stroke="none" d="
M 64.07 598.65
C 46.55 594.36 35.93 581.77 33.06 561.88
C 31.89 553.80 32.23 545.86 35.17 512.84
C 40.85 449.23 41.57 434.52 40.81 399.57
C 40.08 365.85 38.40 346.47 32.77 306.42
C 29.30 281.65 17.59 211.81 12.30 184.37
C 4.46 143.51 7.32 118.30 21.28 105.47
C 27.22 100.01 36.86 96.36 45.32 96.36
L 50.24 96.36
L 50.24 88.65
L 50.24 80.94
L 27.70 80.94
C 0.66 80.94 0.00 80.65 0.00 68.36
C 0.00 50.87 8.44 31.43 21.21 19.52
C 49.02 -6.44 93.98 -6.44 121.79 19.52
C 134.56 31.43 143.00 50.87 143.00 68.36
C 143.00 80.65 142.34 80.94 115.30 80.94
L 92.76 80.94
L 92.76 88.65
L 92.76 96.36
L 97.68 96.36
C 106.14 96.36 115.78 100.01 121.72 105.47
C 135.68 118.30 138.54 143.51 130.70 184.37
C 125.41 211.81 113.70 281.65 110.23 306.42
C 104.60 346.47 102.92 365.85 102.19 399.57
C 101.43 434.52 102.15 449.23 107.83 512.84
C 111.71 556.32 111.39 565.68 105.63 577.54
C 98.23 592.78 79.32 602.38 64.07 598.65
M 84.40 586.57
C 94.88 580.43 100.91 570.21 102.56 555.70
C 102.96 552.15 101.81 533.34 100.01 513.92
C 94.61 455.73 93.67 436.20 94.44 398.93
C 95.48 350.09 98.91 320.02 112.80 238.33
C 117.36 211.48 122.31 183.44 123.79 176.02
C 126.91 160.37 127.63 136.96 125.23 128.92
C 122.58 120.00 116.02 111.61 108.90 107.97
C 102.56 104.75 102.15 104.71 71.50 104.71
C 40.85 104.71 40.44 104.75 34.10 107.97
C 26.98 111.61 20.42 120.00 17.77 128.92
C 15.37 136.96 16.09 160.37 19.21 176.02
C 20.69 183.44 25.64 211.48 30.20 238.33
C 44.16 320.43 47.55 350.20 48.54 399.57
C 49.30 437.23 48.59 451.86 42.95 514.72
C 39.60 552.14 39.55 553.70 41.65 562.25
C 44.29 573.03 48.97 580.02 57.20 585.55
C 68.09 592.86 73.30 593.05 84.40 586.57
M 85.03 88.01
L 85.03 79.66
L 71.50 79.66
L 57.97 79.66
L 57.97 88.01
L 57.97 96.36
L 71.50 96.36
L 85.03 96.36
L 85.03 88.01
M 134.09 69.89
C 135.52 68.17 135.44 66.44 133.57 59.29
C 126.66 32.93 110.29 16.42 84.40 9.69
C 74.75 7.18 68.25 7.18 58.60 9.69
C 32.71 16.42 16.34 32.93 9.43 59.29
C 5.85 72.99 0.75 71.95 71.50 71.95
C 125.74 71.95 132.56 71.73 134.09 69.89"/>
<path fill="#c55436" stroke="none" d="
M 57.97 88.01
L 57.97 79.66
L 71.50 79.66
L 85.03 79.66
L 85.03 88.01
L 85.03 96.36
L 71.50 96.36
L 57.97 96.36
L 57.97 88.01"/>
<path fill="#c55436" stroke="none" d="
M 8.91 69.89
C 7.48 68.17 7.56 66.44 9.43 59.29
C 15.76 35.16 28.66 20.51 50.96 12.13
C 62.49 7.80 73.51 6.93 83.67 9.52
C 110.17 16.29 126.59 32.67 133.57 59.29
C 137.15 72.99 142.25 71.95 71.50 71.95
C 17.26 71.95 10.44 71.73 8.91 69.89"/>
<path fill="#f3ab2d" stroke="none" d="
M 67.45 590.80
C 61.30 589.16 51.38 581.96 47.40 576.23
C 45.43 573.40 42.85 567.11 41.65 562.25
C 39.55 553.70 39.60 552.14 42.95 514.72
C 48.59 451.86 49.30 437.23 48.54 399.57
C 47.55 350.20 44.16 320.43 30.20 238.33
C 25.64 211.48 20.69 183.44 19.21 176.02
C 16.09 160.37 15.37 136.96 17.77 128.92
C 20.42 120.01 26.98 111.61 34.10 107.97
C 40.44 104.75 40.85 104.71 71.50 104.71
C 102.15 104.71 102.55 104.75 108.89 107.97
C 116.02 111.61 122.58 120.00 125.23 128.92
C 127.63 136.96 126.91 160.37 123.79 176.02
C 122.31 183.44 117.36 211.48 112.80 238.33
C 98.91 320.02 95.48 350.09 94.44 398.93
C 93.67 436.20 94.61 455.73 100.01 513.92
C 103.36 550.01 103.33 557.73 99.83 567.97
C 95.09 581.86 78.32 593.68 67.45 590.80"/>
</g>
</svg>
