<?xml version="1.0" encoding="UTF-8" standalone="no"?>
<!DOCTYPE svg PUBLIC "-//W3C//DTD SVG 1.1//EN"
"http://www.w3.org/Graphics/SVG/1.1/DTD/svg11.dtd">
<svg width="600px" height="104px"
xmlns="http://www.w3.org/2000/svg" version="1.1">
<g transform="translate(0000, 0000) scale(1.0000, 1.0000)">
<path fill="#000000" stroke="none" d="
M 91.43 103.15
C 71.90 100.51 45.81 89.25 27.49 75.55
C 8.40 61.28 1.21 50.94 0.30 36.46
C -0.17 28.98 0.14 27.40 3.23 21.54
C 7.18 14.03 14.67 8.58 22.46 7.53
C 30.00 6.53 37.82 9.92 57.55 22.80
C 82.89 39.32 92.44 42.50 107.83 39.52
C 120.82 37.01 130.70 31.33 145.22 18.03
C 152.45 11.40 161.03 4.64 164.28 2.99
L 170.19 0.00
L 301.60 0.00
L 433.02 0.00
L 438.51 5.89
C 441.55 9.14 448.02 16.16 452.90 21.49
C 463.46 33.03 476.43 42.05 487.23 45.39
C 503.96 50.57 513.11 47.85 549.20 27.00
C 571.16 14.33 574.18 13.29 581.15 15.95
C 598.33 22.51 604.70 39.22 596.38 55.87
C 589.25 70.13 570.24 84.96 546.84 94.47
C 528.42 101.96 520.61 103.40 499.00 103.35
C 481.25 103.32 479.19 103.08 470.32 100.00
C 455.34 94.80 443.58 87.81 425.70 73.48
L 420.53 69.33
L 299.40 69.33
L 178.27 69.33
L 172.51 73.71
C 169.33 76.11 164.43 80.10 161.61 82.57
C 154.53 88.75 134.02 98.79 122.62 101.63
C 113.78 103.84 101.09 104.47 91.43 103.15
M 118.25 96.13
C 129.19 93.52 148.64 83.73 157.17 76.54
C 161.12 73.23 166.73 68.91 169.66 66.94
L 174.97 63.36
L 193.27 63.36
L 211.55 63.36
L 211.55 34.67
L 211.55 5.98
L 192.07 5.98
L 172.58 5.98
L 167.00 9.52
C 163.94 11.46 156.49 17.67 150.45 23.31
C 133.53 39.15 121.22 45.08 102.79 46.26
C 85.28 47.40 77.10 44.37 50.95 27.03
C 42.50 21.42 32.99 15.97 29.82 14.92
C 24.38 13.11 23.83 13.14 19.51 15.36
C 11.56 19.44 5.98 27.54 5.98 35.01
C 5.98 56.17 49.82 88.24 89.64 96.24
C 100.35 98.39 109.00 98.36 118.25 96.13
M 519.67 96.15
C 530.74 93.89 547.31 87.48 558.76 81.02
C 575.01 71.87 585.49 62.20 591.14 51.14
C 596.07 41.52 594.65 35.16 585.76 27.14
C 577.11 19.31 576.12 19.51 551.24 33.97
C 542.50 39.05 532.02 44.77 527.93 46.67
C 507.55 56.15 490.24 56.10 472.11 46.50
C 463.46 41.92 449.06 29.74 442.55 21.52
C 439.69 17.90 435.50 12.92 433.24 10.46
L 429.12 5.98
L 409.98 5.98
L 390.84 5.98
L 390.84 34.67
L 390.84 63.36
L 407.27 63.36
C 425.89 63.37 423.79 62.59 441.04 75.88
C 465.97 95.09 491.96 101.79 519.67 96.15
M 300.00 34.67
L 300.00 5.98
L 258.76 5.98
L 217.53 5.98
L 217.53 34.67
L 217.53 63.36
L 258.76 63.36
L 300.00 63.36
L 300.00 34.67
M 384.86 34.67
L 384.86 5.98
L 345.42 5.98
L 305.98 5.98
L 305.98 34.67
L 305.98 63.36
L 345.42 63.36
L 384.86 63.36
L 384.86 34.67"/>
<path fill="#c57a36" stroke="none" d="
M 89.64 96.24
C 65.64 91.42 40.05 78.25 21.29 61.05
C 12.47 52.96 5.98 41.92 5.98 35.01
C 5.98 27.54 11.56 19.44 19.51 15.36
C 23.83 13.14 24.38 13.11 29.82 14.92
C 32.99 15.97 42.50 21.42 50.95 27.03
C 69.71 39.46 75.55 42.53 85.18 45.01
C 99.53 48.70 119.39 45.35 134.01 36.79
C 136.89 35.10 144.80 28.58 151.60 22.29
C 168.85 6.34 169.77 5.98 192.81 5.98
L 211.55 5.98
L 211.55 34.67
L 211.55 63.36
L 193.27 63.36
L 174.97 63.36
L 169.66 66.94
C 166.73 68.91 161.12 73.23 157.17 76.54
C 153.24 79.86 144.63 85.20 138.05 88.41
C 119.00 97.72 106.85 99.70 89.64 96.24"/>
<path fill="#c57a36" stroke="none" d="
M 479.28 95.55
C 466.98 92.32 453.13 85.20 441.04 75.88
C 423.79 62.59 425.89 63.37 407.27 63.36
L 390.84 63.36
L 390.84 34.67
L 390.84 5.98
L 409.98 5.98
L 429.12 5.98
L 433.24 10.46
C 435.50 12.92 439.69 17.90 442.55 21.52
C 449.06 29.74 463.46 41.92 472.11 46.50
C 490.24 56.10 507.55 56.15 527.93 46.67
C 532.02 44.77 542.50 39.05 551.24 33.97
C 576.12 19.51 577.11 19.31 585.76 27.14
C 594.65 35.16 596.07 41.52 591.14 51.14
C 583.46 66.17 565.41 79.79 539.64 90.00
C 518.87 98.24 497.16 100.22 479.28 95.55"/>
<path fill="#c57a36" stroke="none" d="
M 217.53 34.67
L 217.53 5.98
L 258.76 5.98
L 300.00 5.98
L 300.00 34.67
L 300.00 63.36
L 258.76 63.36
L 217.53 63.36
L 217.53 34.67"/>
<path fill="#c57a36" stroke="none" d="
M 305.98 34.67
L 305.98 5.98
L 345.42 5.98
L 384.86 5.98
L 384.86 34.67
L 384.86 63.36
L 345.42 63.36
L 305.98 63.36
L 305.98 34.67"/>
</g>
</svg>
