<?xml version="1.0" encoding="UTF-8" standalone="no"?>
<!DOCTYPE svg PUBLIC "-//W3C//DTD SVG 1.1//EN"
"http://www.w3.org/Graphics/SVG/1.1/DTD/svg11.dtd">
<svg width="600px" height="290px"
xmlns="http://www.w3.org/2000/svg" version="1.1">
<g transform="translate(0000, 0000) scale(1.0000, 1.0000)">
<path fill="#000000" stroke="none" d="
M 95.70 288.41
C 79.42 283.82 72.06 273.23 70.68 252.38
C 69.67 237.35 73.43 214.20 79.35 198.94
C 79.89 197.53 78.44 196.36 73.67 194.38
C 55.58 186.87 41.01 173.56 19.79 145.19
C 1.82 121.16 -0.46 117.44 0.61 114.05
C 1.50 111.24 8.73 105.36 14.86 102.42
C 19.19 100.36 19.43 100.37 21.93 102.63
C 23.36 103.90 28.96 111.23 34.38 118.89
C 45.58 134.70 61.39 151.84 70.76 158.30
C 74.25 160.70 80.30 163.98 84.22 165.57
L 91.32 168.45
L 102.50 146.42
C 108.64 134.30 116.69 118.91 120.40 112.24
C 124.10 105.56 126.75 99.76 126.29 99.34
C 125.83 98.93 122.46 97.64 118.79 96.48
C 104.48 91.97 90.13 81.88 74.75 65.51
C 66.15 56.35 38.30 20.31 36.80 16.37
C 35.85 13.91 37.96 11.56 46.16 6.01
C 58.10 -2.11 56.99 -2.61 72.15 17.79
C 93.77 46.89 108.50 60.14 126.98 67.14
L 133.94 69.77
L 365.25 70.38
C 592.46 70.97 596.59 71.02 598.28 73.34
C 599.42 74.90 600.00 78.91 600.00 85.17
C 600.00 99.83 600.67 99.50 570.30 99.50
L 545.45 99.50
L 545.45 135.29
L 545.45 171.09
L 570.30 171.09
C 600.74 171.09 600.00 170.72 600.00 185.65
C 600.00 193.74 599.60 195.76 597.58 197.78
C 595.16 200.20 593.54 200.21 376.36 200.21
L 157.58 200.21
L 157.55 207.79
C 157.53 217.37 154.69 238.88 152.05 249.63
C 149.54 259.77 143.33 273.52 138.86 278.80
C 137.02 280.98 132.98 284.25 129.92 286.04
C 125.05 288.90 122.80 289.37 112.76 289.65
C 106.02 289.83 98.91 289.32 95.70 288.41
M 125.32 281.03
C 132.36 276.91 136.55 271.79 141.27 261.49
C 153.32 235.23 156.45 185.28 150.73 110.67
L 149.96 100.61
L 142.00 100.97
L 134.04 101.32
L 129.95 108.60
C 118.29 129.36 103.70 157.78 97.05 172.60
C 81.66 207.03 76.00 226.65 75.99 245.71
C 75.99 258.88 77.75 265.57 83.03 272.52
C 92.01 284.30 112.67 288.46 125.32 281.03
M 592.48 192.69
C 594.38 190.79 594.38 180.50 592.48 178.61
C 591.37 177.49 541.38 177.15 374.91 177.15
L 158.79 177.15
L 158.79 185.65
L 158.79 194.14
L 374.91 194.14
C 541.38 194.14 591.37 193.80 592.48 192.69
M 85.59 182.64
C 87.20 178.71 88.10 175.12 87.59 174.68
C 87.08 174.24 84.21 172.93 81.21 171.77
C 72.65 168.45 60.33 159.66 52.51 151.29
C 48.57 147.07 39.47 135.61 32.27 125.82
C 25.07 116.01 18.64 107.99 17.99 107.99
C 17.33 107.99 14.36 109.67 11.38 111.72
L 5.98 115.45
L 11.70 123.55
C 32.36 152.83 45.26 167.92 56.97 176.54
C 63.65 181.45 80.22 190.59 81.65 190.14
C 82.22 189.96 83.99 186.58 85.59 182.64
M 237.58 135.29
L 237.58 99.50
L 196.25 99.50
L 154.95 99.50
L 155.70 108.29
C 156.39 116.44 158.73 162.15 158.78 168.36
L 158.79 171.09
L 198.18 171.09
L 237.58 171.09
L 237.58 135.29
M 284.85 135.29
L 284.85 99.50
L 264.24 99.50
L 243.64 99.50
L 243.64 135.29
L 243.64 171.09
L 264.24 171.09
L 284.85 171.09
L 284.85 135.29
M 492.12 135.29
L 492.12 99.50
L 391.52 99.50
L 290.91 99.50
L 290.91 135.29
L 290.91 171.09
L 391.52 171.09
L 492.12 171.09
L 492.12 135.29
M 539.39 135.29
L 539.39 99.50
L 518.79 99.50
L 498.18 99.50
L 498.18 135.29
L 498.18 171.09
L 518.79 171.09
L 539.39 171.09
L 539.39 135.29
M 592.48 91.97
C 594.38 90.08 594.38 79.79 592.48 77.90
C 591.37 76.78 538.69 76.44 362.75 76.44
L 134.47 76.44
L 125.05 72.82
C 103.18 64.36 86.29 48.74 63.08 15.47
C 59.48 10.30 56.22 6.08 55.84 6.09
C 55.45 6.12 52.55 8.04 49.36 10.39
C 45.30 13.36 43.84 15.14 44.51 16.32
C 47.84 22.24 70.47 49.86 81.01 60.86
C 98.72 79.37 112.53 89.28 124.55 92.11
C 132.01 93.88 590.72 93.75 592.48 91.97"/>
<path fill="#000000" stroke="none" d="
M 103.02 276.74
C 85.96 271.53 79.93 257.54 84.16 232.97
C 86.46 219.56 93.85 196.99 101.03 181.41
C 107.88 166.55 128.48 125.77 132.92 118.31
C 136.81 111.75 140.80 109.88 142.82 113.68
C 144.57 116.97 147.02 175.52 146.13 192.93
C 143.94 235.97 138.67 257.47 127.24 269.87
C 120.59 277.09 112.11 279.49 103.02 276.74
M 120.65 266.78
C 130.00 258.15 135.53 243.47 138.85 218.51
C 141.59 197.90 143.95 200.21 120.15 200.21
L 99.68 200.21
L 95.35 213.29
C 87.53 236.87 86.42 249.85 91.43 259.50
C 94.97 266.29 103.41 271.68 110.63 271.75
C 114.34 271.79 116.23 270.85 120.65 266.78
M 141.04 189.59
C 141.45 187.09 141.79 183.27 141.81 181.10
L 141.82 177.15
L 126.36 177.15
L 110.91 177.15
L 107.72 182.92
C 105.96 186.09 104.16 189.91 103.70 191.41
L 102.87 194.14
L 121.58 194.14
L 140.29 194.14
L 141.04 189.59
M 141.18 163.50
C 140.87 159.33 140.29 148.31 139.87 139.02
C 138.97 118.63 139.89 118.04 123.72 149.40
L 112.55 171.09
L 127.14 171.09
L 141.72 171.09
L 141.18 163.50"/>
<path fill="#c57a36" stroke="none" d="
M 103.70 191.41
C 104.16 189.91 105.96 186.09 107.72 182.92
L 110.91 177.15
L 126.36 177.15
L 141.82 177.15
L 141.81 181.10
C 141.79 183.27 141.45 187.09 141.04 189.59
L 140.29 194.14
L 121.58 194.14
L 102.87 194.14
L 103.70 191.41"/>
<path fill="#c57a36" stroke="none" d="
M 158.79 185.65
L 158.79 177.15
L 374.91 177.15
C 541.38 177.15 591.37 177.49 592.48 178.61
C 594.38 180.50 594.38 190.79 592.48 192.69
C 591.37 193.80 541.38 194.14 374.91 194.14
L 158.79 194.14
L 158.79 185.65"/>
<path fill="#c57a36" stroke="none" d="
M 71.52 185.50
C 50.23 173.90 39.12 162.39 11.70 123.55
L 5.98 115.45
L 11.38 111.72
C 14.36 109.67 17.33 107.99 17.99 107.99
C 18.64 107.99 25.07 116.01 32.27 125.82
C 39.47 135.61 48.57 147.07 52.51 151.29
C 60.33 159.66 72.65 168.45 81.21 171.77
C 84.21 172.93 87.08 174.24 87.59 174.68
C 88.63 175.59 83.24 189.64 81.65 190.14
C 81.08 190.32 76.51 188.23 71.52 185.50"/>
<path fill="#c57a36" stroke="none" d="
M 124.52 92.11
C 106.38 87.83 81.73 65.56 52.25 26.83
C 42.55 14.08 42.55 14.03 51.89 8.77
L 56.57 6.14
L 63.10 15.49
C 86.28 48.73 103.19 64.37 125.05 72.82
L 134.47 76.44
L 362.75 76.44
C 538.69 76.44 591.37 76.78 592.48 77.90
C 594.38 79.79 594.38 90.08 592.48 91.97
C 590.72 93.75 132.01 93.88 124.52 92.11"/>
<path fill="#c55436" stroke="none" d="
M 243.92 135.60
L 244.24 100.10
L 264.55 99.78
L 284.85 99.44
L 284.85 135.27
L 284.85 171.09
L 264.22 171.09
L 243.60 171.09
L 243.92 135.60"/>
<path fill="#c55436" stroke="none" d="
M 498.18 135.29
L 498.18 99.50
L 518.79 99.50
L 539.39 99.50
L 539.39 135.29
L 539.39 171.09
L 518.79 171.09
L 498.18 171.09
L 498.18 135.29"/>
<path fill="#ecc18f" stroke="none" d="
M 100.55 283.57
C 89.30 280.38 82.01 273.80 78.01 263.22
C 75.07 255.41 75.30 236.44 78.51 223.26
C 83.19 204.09 97.14 169.68 110.00 145.61
C 128.50 110.96 132.63 103.59 134.33 102.23
C 135.37 101.39 139.31 100.71 143.09 100.71
L 149.96 100.71
L 150.74 110.72
C 157.42 197.84 151.77 252.98 134.01 273.95
C 126.19 283.18 112.80 287.04 100.55 283.57
M 117.75 276.63
C 123.44 275.04 131.43 266.39 135.32 257.58
C 141.20 244.27 144.53 224.34 146.13 192.93
C 147.02 175.52 144.57 116.97 142.82 113.68
C 140.80 109.88 136.81 111.75 132.92 118.31
C 128.48 125.77 107.88 166.55 101.03 181.41
C 93.85 196.99 86.46 219.56 84.16 232.97
C 80.53 254.05 84.63 267.82 96.35 273.92
C 104.02 277.90 110.28 278.70 117.75 276.63"/>
</g>
</svg>
