<?xml version="1.0" encoding="UTF-8" standalone="no"?>
<!DOCTYPE svg PUBLIC "-//W3C//DTD SVG 1.1//EN"
"http://www.w3.org/Graphics/SVG/1.1/DTD/svg11.dtd">
<svg width="611px" height="500px"
xmlns="http://www.w3.org/2000/svg" version="1.1">
<g transform="translate(0000, 0000) scale(1.0000, 1.0000)">
<path fill="#000000" stroke="none" d="
M 2.67 497.33
C 0.05 494.71 0.00 492.87 0.00 415.36
C 0.00 349.00 0.31 335.66 1.90 333.48
C 3.74 330.95 6.91 330.87 119.97 330.21
L 236.12 329.55
L 158.18 167.82
C 115.30 78.88 80.22 5.07 80.22 3.81
C 80.22 2.55 81.28 1.20 82.56 0.82
C 86.13 -0.25 555.10 134.16 556.71 136.71
C 557.68 138.25 555.72 147.57 549.55 170.68
C 544.89 188.21 540.49 203.29 539.77 204.21
C 539.06 205.13 537.48 205.88 536.28 205.88
C 535.06 205.88 463.09 185.21 376.33 159.93
C 289.58 134.67 218.40 114.16 218.16 114.37
C 217.91 114.57 242.88 163.20 273.64 222.42
L 329.57 330.11
L 467.61 330.16
C 603.83 330.21 605.69 330.25 608.33 332.89
C 610.95 335.51 611.00 337.34 611.00 415.11
C 611.00 492.87 610.95 494.71 608.33 497.33
C 605.67 499.99 603.87 500.00 305.50 500.00
C 7.13 500.00 5.33 499.99 2.67 497.33
M 593.38 488.09
C 591.68 485.94 578.55 469.71 564.21 452.01
L 538.13 419.81
L 305.43 419.80
L 72.72 419.79
L 68.64 424.13
C 63.00 430.15 13.37 490.45 13.37 491.30
C 13.37 491.67 144.57 491.98 304.93 491.98
L 596.48 491.98
L 593.38 488.09
M 602.98 415.66
L 602.98 346.03
L 575.49 380.99
C 560.37 400.23 548.19 416.76 548.42 417.77
C 548.80 419.44 601.59 485.29 602.55 485.29
C 602.78 485.29 602.98 453.96 602.98 415.66
M 37.92 447.65
C 51.62 430.99 62.84 416.68 62.84 415.87
C 62.84 414.47 9.64 346.26 8.54 346.26
C 8.25 346.26 8.02 377.07 8.02 414.73
C 8.02 481.60 8.08 483.16 10.51 480.57
C 11.89 479.13 24.21 464.30 37.92 447.65
M 542.45 408.76
C 543.99 407.10 557.04 390.71 571.45 372.33
L 597.66 338.90
L 306.62 338.57
C 146.56 338.38 15.35 338.49 15.04 338.80
C 14.43 339.41 61.96 400.23 68.67 407.42
L 72.72 411.76
L 306.20 411.76
L 539.67 411.76
L 542.45 408.76
M 319.54 329.36
C 319.54 328.89 293.92 279.28 262.61 219.13
C 231.30 158.98 205.88 108.68 206.14 107.35
C 206.39 106.03 207.94 104.76 209.60 104.52
C 211.26 104.28 241.63 112.51 277.10 122.81
C 375.12 151.26 530.13 195.19 532.51 195.19
C 533.67 195.19 534.94 194.13 535.33 192.85
C 538.58 182.25 548.16 145.17 548.16 143.22
C 548.16 141.08 517.52 132.01 320.62 75.75
C 195.48 40.00 92.89 10.95 92.64 11.19
C 92.27 11.58 231.94 302.39 242.49 323.20
L 246.04 330.21
L 282.80 330.21
C 303.00 330.21 319.54 329.83 319.54 329.36"/>
<path fill="#ed9e14" stroke="none" d="
M 242.05 322.30
C 233.48 305.33 93.39 14.08 93.16 12.75
C 93.03 11.99 93.52 11.43 94.26 11.50
C 94.99 11.58 197.42 40.68 321.88 76.19
C 517.71 132.07 548.16 141.08 548.16 143.22
C 548.16 145.17 538.58 182.25 535.33 192.85
C 534.94 194.13 533.67 195.19 532.51 195.19
C 530.13 195.19 375.12 151.26 277.10 122.81
C 241.63 112.51 211.26 104.28 209.60 104.52
C 207.94 104.76 206.39 106.03 206.14 107.35
C 205.88 108.68 231.30 158.98 262.61 219.13
C 293.92 279.28 319.54 328.89 319.54 329.36
C 319.54 329.83 303.00 330.21 282.78 330.21
L 246.04 330.21
L 242.05 322.30"/>
<path fill="#c55436" stroke="none" d="
M 13.37 491.30
C 13.37 490.45 63.00 430.15 68.64 424.13
L 72.72 419.79
L 305.43 419.80
L 538.13 419.81
L 564.21 452.01
C 578.55 469.71 591.68 485.94 593.38 488.09
L 596.48 491.98
L 304.93 491.98
C 144.57 491.98 13.37 491.67 13.37 491.30"/>
<path fill="#c55436" stroke="none" d="
M 575.48 452.43
C 560.82 434.36 548.64 418.76 548.42 417.77
C 548.19 416.76 560.37 400.23 575.49 380.99
L 602.98 346.03
L 602.98 415.66
C 602.98 453.96 602.78 485.29 602.55 485.29
C 602.31 485.29 590.13 470.51 575.48 452.43"/>
<path fill="#c55436" stroke="none" d="
M 8.02 414.73
C 8.02 377.07 8.25 346.26 8.54 346.26
C 9.64 346.26 62.84 414.47 62.84 415.87
C 62.84 417.14 17.63 473.05 10.51 480.57
C 8.08 483.16 8.02 481.60 8.02 414.73"/>
<path fill="#c55436" stroke="none" d="
M 66.94 405.41
C 51.23 386.93 15.13 340.11 15.94 339.24
C 16.44 338.68 147.54 338.38 307.25 338.57
L 597.66 338.90
L 571.45 372.33
C 557.04 390.71 543.99 407.10 542.45 408.76
L 539.67 411.76
L 306.01 411.76
L 72.34 411.76
L 66.94 405.41"/>
</g>
</svg>
