<?xml version="1.0" encoding="UTF-8" standalone="no"?>
<!DOCTYPE svg PUBLIC "-//W3C//DTD SVG 1.1//EN"
"http://www.w3.org/Graphics/SVG/1.1/DTD/svg11.dtd">
<svg width="600px" height="157px"
xmlns="http://www.w3.org/2000/svg" version="1.1">
<g transform="translate(0000, 0000) scale(1.0000, 1.0000)">
<path fill="#000000" stroke="none" d="
M 44.67 155.31
C 39.47 153.03 34.88 147.03 32.87 139.84
C 31.92 136.42 26.25 115.33 20.28 92.95
C 14.30 70.59 7.48 46.32 5.13 39.02
C 2.52 30.97 0.61 22.40 0.26 17.17
C -0.78 1.49 1.99 0.64 53.68 0.61
C 86.66 0.60 97.53 1.49 127.63 6.69
C 161.13 12.46 190.02 20.25 261.17 42.71
C 344.48 69.02 371.22 75.52 418.09 80.81
C 457.55 85.28 507.96 86.46 540.95 83.68
C 567.28 81.46 584.18 81.76 589.90 84.56
C 596.68 87.90 600.01 94.97 599.98 106.02
C 599.93 119.10 595.78 126.46 586.88 129.23
C 578.93 131.70 548.30 134.23 526.78 134.21
C 491.14 134.16 431.28 132.00 411.02 130.03
C 351.77 124.29 298.84 112.00 212.35 83.88
C 151.01 63.94 129.66 58.58 92.45 53.78
C 75.50 51.58 65.08 51.44 62.02 53.34
C 61.47 53.68 63.41 61.10 66.36 69.82
C 77.18 101.94 82.64 128.67 80.61 139.54
C 79.59 145.03 73.59 151.94 67.41 154.77
C 61.73 157.36 49.99 157.64 44.67 155.31
M 62.52 145.89
C 65.07 144.43 68.29 141.70 69.67 139.83
C 74.60 133.14 71.94 118.40 58.33 77.01
C 49.80 51.08 49.32 47.88 53.70 45.53
C 57.72 43.37 73.23 42.80 87.77 44.27
C 125.81 48.15 156.68 55.49 215.90 74.76
C 289.55 98.71 328.70 108.87 377.53 116.72
C 409.80 121.91 430.34 123.45 486.08 124.87
C 534.49 126.10 541.63 126.03 558.80 124.19
C 582.50 121.63 586.93 119.93 589.85 112.24
C 592.51 105.26 591.55 99.77 586.90 95.30
C 582.10 90.66 575.07 89.72 558.25 91.44
C 535.80 93.73 450.95 93.24 426.44 90.68
C 389.44 86.82 360.06 81.60 329.82 73.55
C 311.87 68.76 304.90 66.65 249.30 49.15
C 163.55 22.14 129.22 13.99 82.90 9.62
C 60.70 7.54 18.99 8.61 11.62 11.45
C 8.05 12.81 8.21 16.36 12.39 29.54
C 17.25 44.85 23.17 66.12 33.96 107.18
C 38.29 123.62 42.88 138.78 44.18 140.89
C 46.50 144.66 52.53 148.55 56.06 148.56
C 57.05 148.56 59.95 147.36 62.52 145.89"/>
<path fill="#ed9e14" stroke="none" d="
M 50.41 146.65
C 48.27 145.59 45.47 143.00 44.18 140.89
C 42.88 138.78 38.29 123.62 33.96 107.18
C 23.17 66.12 17.25 44.85 12.39 29.54
C 8.18 16.31 8.05 12.82 11.68 11.42
C 18.89 8.64 61.11 7.57 82.90 9.62
C 129.22 13.99 163.55 22.14 249.30 49.15
C 304.90 66.65 311.87 68.76 329.82 73.55
C 360.06 81.60 389.44 86.82 426.44 90.68
C 450.95 93.24 535.80 93.73 558.25 91.44
C 575.07 89.72 582.10 90.66 586.90 95.30
C 591.55 99.77 592.51 105.26 589.85 112.24
C 586.93 119.93 582.50 121.63 558.80 124.19
C 541.63 126.03 534.49 126.10 486.08 124.87
C 430.34 123.45 409.80 121.91 377.53 116.72
C 328.70 108.87 289.55 98.71 215.90 74.76
C 156.68 55.49 125.81 48.15 87.77 44.27
C 73.23 42.80 57.72 43.37 53.70 45.53
C 49.32 47.88 49.80 51.08 58.33 77.01
C 71.94 118.40 74.60 133.14 69.67 139.83
C 67.00 143.46 59.02 148.57 56.06 148.56
C 55.07 148.56 52.53 147.69 50.41 146.65"/>
</g>
</svg>
