<?xml version="1.0" encoding="UTF-8" standalone="no"?>
<!DOCTYPE svg PUBLIC "-//W3C//DTD SVG 1.1//EN"
"http://www.w3.org/Graphics/SVG/1.1/DTD/svg11.dtd">
<svg width="314px" height="600px"
xmlns="http://www.w3.org/2000/svg" version="1.1">
<g transform="translate(0000, 0000) scale(1.0000, 1.0000)">
<path fill="#000000" stroke="none" d="
M 137.73 597.03
C 134.21 595.49 126.52 588.98 120.64 582.58
C 103.09 563.34 93.99 540.11 93.99 514.48
C 93.99 503.25 104.05 442.53 118.68 365.38
C 123.89 337.90 128.16 314.11 128.16 312.51
C 128.16 310.14 117.33 309.61 68.35 309.61
C 11.39 309.61 8.33 309.40 4.27 305.34
C -2.26 298.80 -1.00 292.44 11.88 266.84
C 28.05 234.70 31.61 224.58 48.85 162.04
C 86.55 25.28 100.78 2.90 151.57 0.47
C 210.44 -2.37 225.87 19.60 265.15 162.04
C 282.39 224.58 285.95 234.70 302.12 266.84
C 315.00 292.44 316.26 298.80 309.73 305.34
C 305.67 309.40 302.61 309.61 245.65 309.61
C 196.67 309.61 185.84 310.14 185.84 312.51
C 185.84 314.11 190.11 337.90 195.32 365.38
C 209.95 442.53 220.01 503.25 220.01 514.48
C 220.01 540.11 210.91 563.34 193.33 582.58
C 187.48 588.98 179.58 595.54 175.78 597.12
C 167.08 600.75 146.19 600.70 137.73 597.03
M 173.38 583.15
C 185.22 575.64 192.10 566.95 200.62 548.69
C 210.53 527.47 210.83 517.43 203.05 471.86
C 196.67 434.65 176.46 324.85 174.05 314.41
C 173.02 309.95 171.78 309.61 157.00 309.61
C 142.22 309.61 140.98 309.95 139.95 314.41
C 137.54 324.85 117.33 434.65 110.95 471.86
C 106.03 500.65 104.58 514.55 105.56 523.11
C 107.04 535.84 116.52 558.17 125.34 569.74
C 132.69 579.37 148.78 589.32 157.00 589.32
C 160.65 589.32 168.02 586.55 173.38 583.15
M 300.18 296.67
C 300.95 295.43 296.25 283.67 289.76 270.51
C 275.66 242.09 271.36 229.54 254.25 167.15
C 230.07 78.94 214.93 41.51 196.79 25.22
C 184.77 14.39 174.58 10.68 157.00 10.68
C 139.42 10.68 129.23 14.39 117.21 25.22
C 99.07 41.51 83.93 78.94 59.75 167.15
C 42.64 229.54 38.34 242.09 24.24 270.51
C 17.75 283.67 13.05 295.43 13.82 296.67
C 15.76 299.83 298.24 299.83 300.18 296.67"/>
<path fill="#fda50d" stroke="none" d="
M 13.82 296.67
C 13.05 295.43 17.75 283.67 24.24 270.51
C 38.34 242.09 42.64 229.54 59.75 167.15
C 95.23 37.71 112.23 10.68 158.24 10.68
C 174.56 10.68 185.00 14.60 196.79 25.22
C 214.93 41.51 230.07 78.94 254.25 167.15
C 271.36 229.54 275.66 242.09 289.76 270.51
C 296.25 283.67 300.95 295.43 300.18 296.67
C 298.24 299.83 15.76 299.83 13.82 296.67"/>
<path fill="#c55436" stroke="none" d="
M 140.62 583.15
C 128.78 575.64 121.90 566.95 113.38 548.69
C 103.81 528.19 103.26 516.96 109.84 478.27
C 121.58 409.15 139.63 314.84 141.60 312.28
C 142.88 310.59 149.08 309.61 158.28 309.61
C 171.74 309.61 173.02 310.01 174.05 314.41
C 176.46 324.85 196.67 434.65 203.05 471.86
C 207.97 500.65 209.42 514.55 208.44 523.11
C 206.96 535.84 197.48 558.17 188.66 569.74
C 181.31 579.37 165.22 589.32 157.00 589.32
C 153.35 589.32 145.98 586.55 140.62 583.15"/>
</g>
</svg>
