<?xml version="1.0" encoding="UTF-8" standalone="no"?>
<!DOCTYPE svg PUBLIC "-//W3C//DTD SVG 1.1//EN"
"http://www.w3.org/Graphics/SVG/1.1/DTD/svg11.dtd">
<svg width="153px" height="600px"
xmlns="http://www.w3.org/2000/svg" version="1.1">
<g transform="translate(0000, 0000) scale(1.0000, 1.0000)">
<path fill="#000000" stroke="none" d="
M 67.02 596.47
C 63.68 593.12 63.23 591.03 57.42 551.83
C 44.46 464.56 36.57 399.65 32.59 347.88
C 30.65 322.55 30.55 315.50 31.85 299.81
C 33.94 274.55 40.05 241.28 47.03 217.01
L 47.85 214.17
L 24.25 213.81
C 0.82 213.46 0.64 213.44 0.23 210.55
C -0.01 208.82 1.31 205.72 3.52 202.86
C 5.57 200.23 12.01 191.28 17.83 182.97
L 28.41 167.87
L 21.87 150.54
C 0.82 94.88 -2.62 74.23 5.22 50.83
C 7.38 44.38 10.58 36.65 12.34 33.65
C 15.51 28.26 15.52 28.21 12.82 28.21
C 11.31 28.21 8.40 26.51 6.33 24.46
C 3.07 21.21 2.57 19.76 2.57 13.50
C 2.57 7.56 3.12 5.74 5.72 3.14
L 8.88 -0.00
L 76.99 -0.00
L 145.09 0.00
L 147.77 3.37
C 149.72 5.86 150.43 8.62 150.43 13.73
C 150.43 19.73 149.90 21.23 146.67 24.46
C 144.60 26.51 141.69 28.21 140.18 28.21
C 137.48 28.21 137.49 28.26 140.66 33.65
C 142.42 36.65 145.62 44.38 147.78 50.83
C 155.62 74.23 152.18 94.88 131.13 150.54
L 124.59 167.87
L 135.17 182.97
C 140.99 191.28 147.43 200.23 149.48 202.86
C 151.69 205.72 153.01 208.82 152.77 210.55
C 152.36 213.44 152.18 213.46 128.75 213.81
L 105.15 214.17
L 105.97 217.01
C 112.95 241.28 119.06 274.55 121.15 299.81
C 122.45 315.50 122.35 322.55 120.41 347.88
C 116.43 399.65 108.54 464.56 95.58 551.83
C 89.77 591.03 89.32 593.12 85.98 596.47
C 83.16 599.32 81.32 600.00 76.50 600.00
C 71.68 600.00 69.84 599.32 67.02 596.47
M 79.46 589.41
C 82.97 585.19 102.52 442.38 109.41 370.51
C 114.83 314.14 113.22 294.01 97.39 220.19
L 96.08 214.10
L 76.50 214.10
L 56.92 214.10
L 55.61 220.19
C 39.78 294.01 38.17 314.14 43.59 370.51
C 50.48 442.38 70.03 585.19 73.54 589.41
C 74.28 590.29 75.61 591.03 76.50 591.03
C 77.39 591.03 78.72 590.29 79.46 589.41
M 137.57 204.56
C 137.57 204.24 132.36 196.68 126.00 187.76
C 119.64 178.82 114.43 170.38 114.43 169.01
C 114.43 167.64 117.54 158.62 121.36 148.96
C 140.09 101.49 145.38 77.67 140.97 60.54
C 138.43 50.71 132.16 37.77 127.61 33.01
L 124.24 29.49
L 76.50 29.49
L 28.76 29.49
L 25.39 33.01
C 20.84 37.77 14.57 50.71 12.03 60.54
C 7.62 77.67 12.91 101.49 31.64 148.96
C 35.46 158.62 38.57 167.64 38.57 169.01
C 38.57 170.38 33.36 178.82 27.00 187.76
C 20.64 196.68 15.43 204.24 15.43 204.56
C 15.43 204.87 42.92 205.13 76.50 205.13
C 110.08 205.13 137.57 204.87 137.57 204.56
M 140.64 16.35
C 141.67 14.71 141.67 13.50 140.64 11.86
C 139.32 9.78 134.65 9.59 77.16 9.28
C 13.18 8.94 11.57 9.05 11.57 14.00
C 11.57 19.22 12.20 19.27 76.95 18.92
C 134.64 18.62 139.32 18.42 140.64 16.35"/>
<path fill="#c55436" stroke="none" d="
M 15.43 204.56
C 15.43 204.24 20.64 196.68 27.00 187.76
C 33.36 178.82 38.57 170.38 38.57 169.01
C 38.57 167.64 35.46 158.62 31.64 148.96
C 12.91 101.49 7.62 77.67 12.03 60.54
C 14.57 50.71 20.84 37.77 25.39 33.01
L 28.76 29.49
L 76.50 29.49
L 124.24 29.49
L 127.61 33.01
C 132.16 37.77 138.43 50.71 140.97 60.54
C 145.38 77.67 140.09 101.49 121.36 148.96
C 117.54 158.62 114.43 167.64 114.43 169.01
C 114.43 170.38 119.64 178.82 126.00 187.76
C 132.36 196.68 137.57 204.24 137.57 204.56
C 137.57 204.87 110.08 205.13 76.50 205.13
C 42.92 205.13 15.43 204.87 15.43 204.56"/>
<path fill="#c55436" stroke="none" d="
M 13.13 17.71
C 10.79 15.37 11.25 11.79 14.08 10.29
C 15.75 9.40 37.11 9.06 77.90 9.28
C 134.69 9.59 139.32 9.78 140.64 11.86
C 141.67 13.50 141.67 14.71 140.64 16.35
C 139.32 18.42 134.64 18.62 76.95 18.92
C 29.58 19.18 14.31 18.88 13.13 17.71"/>
<path fill="#f1a828" stroke="none" d="
M 73.54 589.41
C 71.32 586.74 56.89 488.85 49.60 426.92
C 40.56 350.27 38.97 316.72 42.96 287.18
C 45.01 271.87 52.12 234.72 55.58 221.15
L 57.21 214.74
L 76.64 214.38
L 96.07 214.04
L 97.39 220.15
C 113.22 294.06 114.83 314.13 109.41 370.51
C 102.52 442.38 82.97 585.19 79.46 589.41
C 78.72 590.29 77.39 591.03 76.50 591.03
C 75.61 591.03 74.28 590.29 73.54 589.41"/>
</g>
</svg>
