<?xml version="1.0" encoding="UTF-8" standalone="no"?>
<!DOCTYPE svg PUBLIC "-//W3C//DTD SVG 1.1//EN"
"http://www.w3.org/Graphics/SVG/1.1/DTD/svg11.dtd">
<svg width="206px" height="600px"
xmlns="http://www.w3.org/2000/svg" version="1.1">
<g transform="translate(0000, 0000) scale(1.0000, 1.0000)">
<path fill="#000000" stroke="none" d="
M 80.60 595.16
C 74.68 588.91 70.51 579.78 68.54 568.76
L 66.96 559.91
L 52.26 559.91
C 34.83 559.91 32.39 558.59 32.39 549.17
C 32.39 539.41 33.71 538.67 52.50 537.93
L 68.94 537.28
L 70.88 531.47
C 71.94 528.26 75.24 522.57 78.19 518.82
C 81.14 515.07 85.17 509.56 87.13 506.60
L 90.69 501.21
L 90.69 346.27
L 90.69 191.34
L 83.19 195.12
C 62.02 205.78 41.37 207.31 25.67 199.34
C 7.35 190.06 1.20 181.24 0.27 162.87
C -0.43 149.26 1.40 140.08 7.06 128.51
C 15.94 110.41 28.49 98.22 54.35 82.62
C 73.85 70.84 85.72 66.96 103.05 66.66
C 110.19 66.54 116.88 65.94 117.90 65.30
C 118.92 64.67 126.41 59.35 134.55 53.47
C 146.70 44.70 152.57 39.16 167.49 22.37
C 177.50 11.13 186.59 1.54 187.73 1.06
C 188.87 0.58 191.70 0.14 194.02 0.09
C 199.87 -0.04 203.41 3.81 203.41 10.31
C 203.41 14.81 202.27 16.76 194.02 26.30
C 172.15 51.61 164.76 59.30 157.42 64.42
C 153.14 67.40 147.91 71.21 145.79 72.91
L 141.95 76.00
L 156.81 85.67
C 174.27 97.03 181.90 103.54 189.86 113.86
C 201.85 129.43 206.67 144.31 205.73 162.87
C 204.80 181.24 198.65 190.06 180.33 199.34
C 164.63 207.31 143.98 205.78 122.81 195.12
L 115.31 191.34
L 115.31 346.27
L 115.31 501.21
L 118.87 506.60
C 120.83 509.56 124.86 515.07 127.81 518.82
C 130.76 522.57 134.06 528.26 135.12 531.47
L 137.06 537.28
L 154.15 537.93
C 173.66 538.67 174.91 539.34 174.91 549.17
C 174.91 558.67 172.55 559.91 154.38 559.91
L 139.04 559.91
L 137.46 568.76
C 136.59 573.62 134.55 580.46 132.92 583.97
C 129.27 591.81 121.75 600.00 118.16 600.00
C 111.32 600.00 109.85 592.56 113.43 576.08
C 114.52 571.10 115.75 565.42 116.16 563.47
L 116.93 559.91
L 103.00 559.91
L 89.07 559.91
L 89.84 563.47
C 90.25 565.42 91.48 571.10 92.57 576.08
C 96.15 592.56 94.68 600.00 87.84 600.00
C 86.36 600.00 83.11 597.83 80.60 595.16
M 84.76 572.69
C 80.33 553.88 80.13 544.54 84.01 535.99
C 89.14 524.66 98.52 517.29 105.54 519.05
C 110.13 520.20 117.60 527.11 120.59 532.97
C 122.51 536.70 123.92 537.93 126.35 537.93
C 128.11 537.93 129.56 537.62 129.56 537.23
C 129.56 535.09 123.72 525.69 119.03 520.28
C 107.95 507.50 108.89 523.51 108.86 346.63
L 108.83 189.61
L 106.01 186.61
L 103.18 183.61
L 100.18 186.43
L 97.17 189.25
L 97.14 346.45
C 97.11 523.76 98.08 507.48 86.79 520.49
C 83.71 524.03 79.69 530.15 77.87 534.05
C 74.99 540.19 74.52 542.94 74.51 554.09
C 74.50 568.89 76.75 577.10 83.27 586.01
C 88.76 593.51 89.05 590.94 84.76 572.69
M 128.11 576.10
C 129.43 572.53 130.91 567.39 131.40 564.67
L 132.31 559.73
L 128.11 560.15
C 123.94 560.56 123.92 560.57 120.94 573.49
C 119.30 580.60 117.96 587.59 117.98 589.01
C 118.02 593.11 125.21 583.94 128.11 576.10
M 67.37 548.92
L 67.37 543.10
L 55.62 543.10
C 42.43 543.10 38.87 544.34 38.87 548.91
C 38.87 553.53 42.09 554.66 55.39 554.70
L 67.37 554.74
L 67.37 548.92
M 165.93 553.40
C 167.34 552.65 168.43 550.71 168.43 548.92
C 168.43 547.14 167.34 545.20 165.93 544.45
C 164.36 543.61 149.47 543.10 126.49 543.10
C 90.28 543.10 89.55 543.16 88.72 545.78
C 88.26 547.25 88.22 549.88 88.66 551.60
L 89.45 554.74
L 126.42 554.74
C 149.45 554.74 164.36 554.24 165.93 553.40
M 114.01 536.73
C 114.01 534.53 105.32 526.29 103.00 526.29
C 100.68 526.29 91.99 534.53 91.99 536.73
C 91.99 537.39 96.95 537.93 103.00 537.93
C 109.05 537.93 114.01 537.39 114.01 536.73
M 65.61 193.86
C 70.51 192.38 80.51 188.00 87.85 184.16
C 95.19 180.31 102.02 177.16 103.00 177.16
C 103.98 177.16 110.81 180.31 118.15 184.16
C 135.14 193.07 146.53 196.56 158.53 196.53
C 169.23 196.49 175.64 194.07 186.35 186.00
C 202.33 173.95 203.89 151.60 190.38 128.24
C 185.10 119.09 169.17 102.63 160.15 96.98
C 156.17 94.50 149.19 90.08 144.61 87.18
C 119.48 71.20 89.11 70.25 65.91 84.74
C 62.09 87.13 55.45 91.00 51.18 93.32
C 40.62 99.09 19.98 119.78 14.67 129.96
C -0.71 159.39 5.47 181.67 32.42 193.86
C 40.28 197.43 53.86 197.42 65.61 193.86
M 147.78 62.47
C 157.45 55.63 163.93 49.38 178.79 32.61
C 189.12 20.95 197.75 10.94 197.95 10.38
C 198.46 9.04 194.35 4.94 193.01 5.44
C 192.44 5.65 183.52 15.34 173.20 26.96
C 158.02 44.04 151.84 49.94 141.01 57.69
C 133.64 62.96 127.43 67.80 127.21 68.44
C 126.83 69.59 129.53 70.68 133.52 70.97
C 134.64 71.06 141.05 67.23 147.78 62.47"/>
<path fill="#cf9e66" stroke="none" d="
M 129.16 70.22
C 127.88 69.88 127.01 69.08 127.21 68.44
C 127.43 67.80 133.63 62.97 140.99 57.71
C 151.69 50.06 157.99 44.06 172.59 27.63
C 182.61 16.34 191.57 6.67 192.49 6.13
C 194.21 5.12 198.64 8.55 197.95 10.38
C 197.75 10.94 189.12 20.95 178.79 32.61
C 163.93 49.38 157.45 55.63 147.78 62.47
C 135.99 70.81 134.25 71.53 129.16 70.22"/>
<path fill="#edcbc3" stroke="none" d="
M 32.42 193.86
C 5.47 181.67 -0.71 159.39 14.67 129.96
C 19.98 119.78 40.62 99.09 51.18 93.32
C 55.45 91.00 62.09 87.13 65.91 84.74
C 89.06 70.29 119.54 71.24 144.61 87.18
C 149.19 90.08 156.17 94.50 160.15 96.98
C 169.17 102.63 185.10 119.09 190.38 128.24
C 203.89 151.60 202.33 173.95 186.35 186.00
C 175.64 194.07 169.23 196.49 158.53 196.53
C 146.53 196.56 135.14 193.07 118.15 184.16
C 110.81 180.31 103.98 177.16 103.00 177.16
C 102.02 177.16 95.19 180.31 87.85 184.16
C 64.25 196.54 45.55 199.81 32.42 193.86"/>
<path fill="#c55436" stroke="none" d="
M 83.27 586.01
C 76.75 577.10 74.50 568.89 74.51 554.09
C 74.52 542.94 74.99 540.19 77.87 534.05
C 79.69 530.15 83.71 524.03 86.79 520.49
C 98.08 507.48 97.11 523.76 97.14 346.42
C 97.17 195.76 97.27 189.10 99.54 187.05
C 102.57 184.31 104.04 184.36 106.69 187.28
C 108.66 189.45 108.83 202.40 108.86 346.66
C 108.89 523.51 107.95 507.50 119.03 520.28
C 123.72 525.69 129.56 535.09 129.56 537.23
C 129.56 537.62 128.11 537.93 126.35 537.93
C 123.92 537.93 122.51 536.70 120.59 532.97
C 117.60 527.11 110.13 520.20 105.54 519.05
C 98.52 517.29 89.14 524.66 84.01 535.99
C 80.13 544.54 80.33 553.88 84.76 572.69
C 89.05 590.94 88.76 593.51 83.27 586.01"/>
<path fill="#c55436" stroke="none" d="
M 117.98 589.01
C 117.96 587.59 119.30 580.60 120.94 573.49
C 123.92 560.57 123.94 560.56 128.11 560.15
L 132.31 559.73
L 131.40 564.67
C 129.90 573.00 125.91 582.38 121.85 587.09
C 118.62 590.86 118.00 591.18 117.98 589.01"/>
<path fill="#c57a36" stroke="none" d="
M 41.14 553.34
C 39.89 552.62 38.87 550.59 38.87 548.83
C 38.87 544.45 43.01 543.10 56.45 543.10
L 67.37 543.10
L 67.37 548.92
L 67.37 554.74
L 55.39 554.70
C 48.79 554.68 42.38 554.07 41.14 553.34"/>
<path fill="#c57a36" stroke="none" d="
M 88.66 551.60
C 88.22 549.88 88.26 547.25 88.72 545.78
C 89.55 543.16 90.28 543.10 126.49 543.10
C 149.47 543.10 164.36 543.61 165.93 544.45
C 167.34 545.20 168.43 547.14 168.43 548.92
C 168.43 550.71 167.34 552.65 165.93 553.40
C 164.36 554.24 149.45 554.74 126.42 554.74
L 89.45 554.74
L 88.66 551.60"/>
</g>
</svg>
