<?xml version="1.0" encoding="UTF-8" standalone="no"?>
<!DOCTYPE svg PUBLIC "-//W3C//DTD SVG 1.1//EN"
"http://www.w3.org/Graphics/SVG/1.1/DTD/svg11.dtd">
<svg width="381px" height="600px"
xmlns="http://www.w3.org/2000/svg" version="1.1">
<g transform="translate(0000, 0000) scale(1.0000, 1.0000)">
<path fill="#000000" stroke="none" d="
M 65.68 597.27
C 63.00 594.59 62.95 593.38 63.33 540.01
C 63.72 486.33 63.78 485.40 66.76 479.83
C 69.99 473.80 75.46 470.09 81.16 470.09
C 89.66 470.09 95.18 475.96 109.01 499.61
C 119.12 516.91 130.84 532.43 139.62 540.16
C 155.78 554.37 176.24 560.28 198.88 557.28
C 225.30 553.79 244.54 537.40 266.62 499.61
C 280.45 475.96 285.98 470.09 294.47 470.09
C 300.17 470.09 305.65 473.80 308.88 479.83
C 311.86 485.40 311.91 486.33 312.30 540.01
C 312.69 593.38 312.63 594.59 309.95 597.27
C 307.24 599.97 306.25 600.00 187.82 600.00
C 69.38 600.00 68.39 599.97 65.68 597.27
M 302.92 590.36
C 305.46 587.83 305.19 491.67 302.63 485.56
C 300.87 481.34 297.13 478.12 293.99 478.12
C 290.83 478.12 284.14 485.71 278.26 495.91
C 253.10 539.71 231.98 559.31 204.29 564.60
C 191.68 567.01 183.95 567.01 171.34 564.60
C 143.72 559.33 122.52 539.68 97.52 496.18
C 87.11 478.07 80.76 474.29 74.59 482.57
C 71.87 486.24 71.76 487.94 71.40 537.29
C 71.12 574.39 71.44 588.74 72.56 590.10
C 73.87 591.67 92.20 591.96 187.71 591.96
C 274.28 591.96 301.70 591.58 302.92 590.36"/>
<path fill="#000000" stroke="none" d="
M 170.39 533.54
C 149.81 529.06 133.28 516.80 123.95 499.12
C 116.42 484.86 116.35 476.62 123.41 428.57
C 128.60 393.15 134.45 346.66 133.78 346.10
C 131.49 344.16 106.72 333.00 87.87 325.43
C 47.07 309.03 32.48 300.63 18.77 285.68
C 10.28 276.42 4.95 265.63 1.84 251.36
C -0.34 241.45 -0.34 240.21 1.89 228.40
C 7.19 200.37 20.24 184.97 44.67 177.99
C 55.08 175.02 55.22 175.00 65.47 177.40
C 78.66 180.47 86.42 184.41 93.59 191.67
C 100.52 198.66 103.80 205.15 106.87 218.00
L 109.20 227.75
L 105.43 239.28
C 100.35 254.87 94.51 261.29 81.67 265.42
C 73.40 268.07 71.71 268.22 66.04 266.75
C 55.61 264.03 45.21 258.21 41.92 253.26
C 37.70 246.88 37.87 239.30 42.37 234.82
C 45.34 231.84 46.65 231.47 51.90 232.06
C 55.26 232.43 59.58 234.01 61.52 235.55
C 63.47 237.11 66.77 239.32 68.85 240.48
C 72.55 242.53 72.74 242.48 77.18 237.76
C 85.78 228.67 84.06 218.49 72.22 208.38
C 64.14 201.47 58.04 199.89 50.52 202.74
C 39.01 207.13 26.28 223.75 24.58 236.64
C 23.71 243.25 27.89 254.37 34.53 263.08
C 41.36 272.01 55.84 282.86 70.43 289.97
C 85.56 297.35 127.57 314.38 133.27 315.46
L 137.54 316.25
L 141.17 284.36
C 143.18 266.81 149.06 217.79 154.24 175.45
C 159.42 133.10 165.79 80.96 168.39 59.60
C 174.54 9.23 175.73 5.17 185.38 1.50
C 190.92 -0.60 197.27 4.26 200.09 12.75
C 201.31 16.42 204.48 37.19 207.14 58.93
C 226.52 217.42 231.26 256.54 234.78 287.28
C 236.98 306.43 239.16 323.60 239.63 325.45
C 240.10 327.29 240.85 333.91 241.32 340.18
L 242.15 351.56
L 248.19 354.55
C 251.50 356.20 260.70 359.89 268.62 362.76
C 296.24 372.76 322.05 389.73 346.24 413.79
C 365.65 433.08 379.27 449.95 380.44 456.09
C 382.26 465.83 377.31 471.43 366.87 471.43
C 361.28 471.43 360.53 470.75 343.44 450.08
C 319.73 421.41 285.09 395.56 256.99 385.54
C 251.14 383.45 246.16 381.94 245.92 382.17
C 245.69 382.39 248.28 401.52 251.66 424.66
C 259.32 476.99 259.32 484.65 251.69 499.12
C 237.07 526.83 203.93 540.86 170.39 533.54
M 210.86 523.70
C 226.84 518.77 238.15 508.89 245.58 493.34
C 251.04 481.94 250.80 474.04 243.48 425.22
C 240.16 403.12 234.13 355.82 230.05 320.09
C 225.98 284.36 218.75 222.59 213.99 182.81
C 209.21 143.04 203.18 92.75 200.58 71.05
C 194.74 22.30 193.56 15.46 190.35 11.69
L 187.82 8.71
L 185.28 11.69
C 182.08 15.46 180.89 22.30 175.06 71.05
C 172.46 92.75 166.42 143.04 161.64 182.81
C 156.88 222.59 149.65 284.36 145.58 320.09
C 141.51 355.82 135.47 403.12 132.16 425.22
C 124.74 474.67 124.55 481.86 130.34 493.97
C 140.96 516.16 163.95 528.62 191.35 527.00
C 197.36 526.63 206.13 525.16 210.86 523.70
M 372.33 462.84
C 374.78 461.06 374.79 460.73 372.74 456.48
C 369.49 449.80 350.80 428.10 337.02 415.00
C 315.24 394.31 288.84 377.44 263.92 368.29
C 256.37 365.52 249.10 362.80 247.74 362.25
C 245.49 361.33 245.36 361.78 246.24 367.78
C 246.76 371.38 247.31 374.48 247.48 374.67
C 247.62 374.85 253.43 377.04 260.38 379.50
C 290.42 390.16 324.35 415.18 348.80 444.70
C 366.95 466.61 367.06 466.70 372.33 462.84
M 133.47 333.15
C 135.43 324.78 135.05 323.71 129.46 321.72
C 117.52 317.48 79.12 301.98 68.85 297.27
C 41.24 284.58 24.81 268.35 19.40 248.45
C 17.37 240.94 17.27 238.63 18.65 232.46
C 22.19 216.63 32.16 203.33 44.94 197.36
C 56.53 191.95 67.35 194.00 78.44 203.72
C 83.90 208.50 89.84 219.50 89.87 224.84
C 89.91 234.64 82.17 246.63 74.55 248.53
C 70.55 249.54 62.99 246.43 56.28 241.03
C 52.45 237.95 49.03 238.54 46.82 242.65
C 43.99 247.94 51.89 255.12 65.19 259.34
C 71.53 261.36 72.51 261.35 78.84 259.26
C 88.43 256.07 95.46 248.12 99.37 236.00
C 102.40 226.61 102.40 226.51 99.99 217.59
C 97.65 208.98 91.72 199.41 85.31 193.86
C 80.53 189.75 70.77 185.22 62.95 183.48
C 56.52 182.05 54.33 182.14 47.52 184.08
C 26.78 189.99 12.09 207.24 7.90 230.64
C 3.85 253.26 15.75 277.11 39.45 293.89
C 50.46 301.69 64.41 308.48 93.24 320.06
C 106.52 325.41 120.11 331.18 123.42 332.91
C 131.04 336.86 132.59 336.90 133.47 333.15"/>
<path fill="#ff5d44" stroke="none" d="
M 172.00 525.72
C 152.37 521.26 138.25 510.50 130.34 493.97
C 124.55 481.86 124.74 474.67 132.16 425.22
C 135.47 403.12 141.51 355.82 145.58 320.09
C 149.65 284.36 156.88 222.59 161.64 182.81
C 166.42 143.04 172.46 92.75 175.06 71.05
C 181.06 21.05 182.10 15.08 185.51 11.68
L 188.25 8.95
L 190.57 11.81
C 193.55 15.48 194.82 22.97 200.58 71.05
C 203.18 92.75 209.21 143.04 213.99 182.81
C 218.75 222.59 225.98 284.36 230.05 320.09
C 234.13 355.82 240.16 403.12 243.48 425.22
C 250.80 474.04 251.04 481.94 245.58 493.34
C 238.15 508.89 226.84 518.77 210.86 523.70
C 199.26 527.28 182.64 528.15 172.00 525.72"/>
<path fill="#ecae42" stroke="none" d="
M 363.16 461.60
C 361.53 459.87 355.08 452.26 348.80 444.70
C 324.35 415.18 290.42 390.16 260.38 379.50
C 253.43 377.04 247.62 374.85 247.48 374.67
C 247.31 374.48 246.76 371.38 246.24 367.78
C 245.36 361.78 245.49 361.33 247.74 362.25
C 249.10 362.80 256.37 365.52 263.92 368.29
C 288.84 377.44 315.24 394.31 337.02 415.00
C 350.80 428.10 369.49 449.80 372.74 456.48
C 374.79 460.73 374.78 461.06 372.33 462.84
C 368.71 465.50 366.56 465.20 363.16 461.60"/>
<path fill="#ecae42" stroke="none" d="
M 123.42 332.91
C 120.11 331.18 106.52 325.41 93.24 320.06
C 64.41 308.48 50.46 301.69 39.45 293.89
C 15.75 277.11 3.85 253.26 7.90 230.64
C 12.15 206.91 27.27 189.39 48.07 184.10
C 55.20 182.28 57.69 182.20 63.50 183.56
C 82.16 187.94 95.26 200.17 99.99 217.59
C 102.40 226.51 102.40 226.61 99.37 236.00
C 95.46 248.12 88.43 256.07 78.84 259.26
C 72.51 261.35 71.53 261.36 65.19 259.34
C 51.89 255.12 43.99 247.94 46.82 242.65
C 49.03 238.54 52.45 237.95 56.28 241.03
C 62.99 246.43 70.55 249.54 74.55 248.53
C 82.17 246.63 89.91 234.64 89.87 224.84
C 89.83 215.45 79.19 201.87 67.84 196.73
C 48.67 188.04 24.70 205.45 18.65 232.46
C 17.27 238.63 17.37 240.94 19.40 248.45
C 24.81 268.35 41.24 284.58 68.85 297.27
C 79.12 301.98 117.52 317.48 129.46 321.72
C 135.05 323.71 135.43 324.78 133.47 333.15
C 132.59 336.90 131.04 336.86 123.42 332.91"/>
<path fill="#c55436" stroke="none" d="
M 72.71 590.36
C 71.52 589.17 71.10 575.95 71.10 539.13
C 71.10 494.57 71.34 489.03 73.45 484.83
C 74.82 482.12 77.34 479.62 79.49 478.89
C 82.65 477.79 83.74 478.17 87.25 481.53
C 89.51 483.68 94.12 490.27 97.52 496.18
C 122.52 539.68 143.72 559.33 171.34 564.60
C 183.95 567.01 191.68 567.01 204.29 564.60
C 231.98 559.31 253.10 539.71 278.26 495.91
C 284.14 485.71 290.83 478.12 293.99 478.12
C 297.13 478.12 300.87 481.34 302.63 485.56
C 305.19 491.67 305.46 587.83 302.92 590.36
C 300.59 592.69 75.05 592.69 72.71 590.36"/>
</g>
</svg>
