<?xml version="1.0" encoding="UTF-8" standalone="no"?>
<!DOCTYPE svg PUBLIC "-//W3C//DTD SVG 1.1//EN"
"http://www.w3.org/Graphics/SVG/1.1/DTD/svg11.dtd">
<svg width="600px" height="347px"
xmlns="http://www.w3.org/2000/svg" version="1.1">
<g transform="translate(0000, 0000) scale(1.0000, 1.0000)">
<path fill="#000000" stroke="none" d="
M 82.50 345.67
C 81.23 344.99 62.93 327.17 41.83 306.10
C 7.98 272.30 3.24 267.12 1.60 262.18
C 0.03 257.44 -0.02 255.77 1.20 251.19
C 2.50 246.31 6.07 242.33 38.50 209.65
L 74.38 173.50
L 38.50 137.35
C 6.07 104.67 2.50 100.69 1.20 95.81
C -0.02 91.23 0.03 89.56 1.60 84.82
C 3.24 79.89 8.02 74.66 41.83 40.82
C 62.93 19.70 81.66 1.87 83.45 1.21
C 91.02 -1.61 99.39 0.51 102.20 5.96
C 104.16 9.75 104.35 17.65 102.57 21.19
C 101.87 22.58 86.28 38.82 67.95 57.27
L 34.59 90.83
L 70.13 126.38
L 105.66 161.93
L 350.53 161.93
C 593.85 161.93 595.40 161.94 597.69 164.25
C 599.49 166.05 600.00 168.10 600.00 173.50
C 600.00 178.90 599.49 180.95 597.69 182.75
C 595.40 185.06 593.85 185.07 350.53 185.07
L 105.66 185.07
L 70.13 220.62
L 34.59 256.17
L 67.95 289.73
C 86.28 308.18 101.87 324.42 102.57 325.81
C 104.25 329.14 104.19 336.87 102.47 340.67
C 101.71 342.34 99.66 344.44 97.90 345.35
C 94.18 347.29 85.79 347.46 82.50 345.67
M 95.77 338.90
C 97.12 337.55 98.08 335.05 98.08 332.89
C 98.08 329.58 94.34 325.43 62.88 293.79
C 41.09 271.86 27.69 257.54 27.69 256.16
C 27.69 254.78 41.56 240.02 64.35 217.19
L 101.00 180.44
L 345.89 180.44
C 589.23 180.44 590.78 180.43 593.08 178.13
C 594.35 176.85 595.38 174.77 595.38 173.50
C 595.38 172.23 594.35 170.15 593.08 168.87
C 590.78 166.57 589.23 166.56 345.89 166.56
L 101.00 166.56
L 64.35 129.81
C 41.56 106.98 27.69 92.22 27.69 90.84
C 27.69 89.46 41.09 75.14 62.88 53.21
C 94.34 21.57 98.08 17.42 98.08 14.11
C 98.08 9.30 94.56 5.78 89.75 5.78
C 86.41 5.78 82.08 9.74 47.07 44.80
C 21.38 70.50 7.67 85.04 6.89 87.42
C 6.06 89.95 6.08 92.06 6.95 94.40
C 7.64 96.23 24.78 114.42 45.06 134.80
C 65.33 155.18 81.92 172.59 81.92 173.50
C 81.92 174.41 65.33 191.82 45.06 212.20
C 24.78 232.58 7.64 250.77 6.95 252.60
C 6.08 254.94 6.06 257.05 6.89 259.58
C 7.67 261.96 21.38 276.50 47.07 302.20
C 82.08 337.26 86.41 341.22 89.75 341.22
C 91.93 341.22 94.42 340.26 95.77 338.90"/>
<path fill="#c55436" stroke="none" d="
M 47.07 302.20
C 21.38 276.50 7.67 261.96 6.89 259.58
C 6.06 257.05 6.08 254.94 6.95 252.60
C 7.64 250.77 24.78 232.58 45.06 212.20
C 65.33 191.82 81.92 174.41 81.92 173.50
C 81.92 172.59 65.33 155.18 45.06 134.80
C 24.78 114.42 7.64 96.23 6.95 94.40
C 6.08 92.06 6.06 89.95 6.89 87.44
C 7.66 85.11 21.38 70.51 46.48 45.36
C 79.65 12.12 85.45 6.78 89.04 6.20
C 94.32 5.34 98.08 8.63 98.08 14.11
C 98.08 17.42 94.34 21.57 62.88 53.21
C 41.09 75.14 27.69 89.46 27.69 90.84
C 27.69 92.22 41.56 106.98 64.35 129.81
L 101.00 166.56
L 345.89 166.56
C 589.23 166.56 590.78 166.57 593.08 168.87
C 594.35 170.15 595.38 172.23 595.38 173.50
C 595.38 174.77 594.35 176.85 593.08 178.13
C 590.78 180.43 589.23 180.44 345.89 180.44
L 101.00 180.44
L 64.35 217.19
C 41.56 240.02 27.69 254.78 27.69 256.16
C 27.69 257.54 41.09 271.86 62.88 293.79
C 94.34 325.43 98.08 329.58 98.08 332.89
C 98.08 337.70 94.56 341.22 89.75 341.22
C 86.41 341.22 82.08 337.26 47.07 302.20"/>
</g>
</svg>
