<?xml version="1.0" encoding="UTF-8" standalone="no"?>
<!DOCTYPE svg PUBLIC "-//W3C//DTD SVG 1.1//EN"
"http://www.w3.org/Graphics/SVG/1.1/DTD/svg11.dtd">
<svg width="180px" height="600px"
xmlns="http://www.w3.org/2000/svg" version="1.1">
<g transform="translate(0000, 0000) scale(1.0000, 1.0000)">
<path fill="#000000" stroke="none" d="
M 103.40 597.36
C 89.95 593.85 81.66 589.47 74.96 582.29
C 63.27 569.80 60.04 558.60 60.03 530.43
C 60.03 519.59 61.09 502.14 62.48 490.21
C 63.83 478.63 65.57 459.09 66.32 446.81
C 68.72 408.19 72.59 364.54 81.09 280.21
C 85.62 235.28 91.62 174.38 94.43 144.89
C 97.24 115.40 100.11 87.83 100.83 83.62
C 104.86 59.63 98.72 46.74 78.36 36.51
C 62.49 28.54 48.13 27.66 37.23 34.01
C 22.29 42.71 17.49 44.68 11.31 44.68
C 2.31 44.68 -0.49 41.57 0.28 32.35
C 0.96 24.19 3.51 20.30 12.01 14.45
C 19.86 9.04 33.94 4.69 52.34 1.99
C 66.60 -0.10 67.38 -0.09 79.79 2.44
C 109.43 8.49 129.08 25.52 134.64 50.02
C 135.77 54.93 137.81 74.55 139.20 93.63
C 142.42 137.80 145.39 171.28 153.20 251.49
C 162.27 344.60 168.13 407.95 170.41 437.87
C 171.52 452.26 173.81 474.38 175.49 487.02
C 179.72 518.73 180.42 531.08 178.76 544.47
C 176.92 559.35 172.43 568.99 162.34 579.78
C 153.20 589.54 143.62 595.03 130.60 597.94
C 119.00 600.54 115.26 600.46 103.40 597.36
M 137.71 584.53
C 154.31 576.38 166.97 559.11 169.83 540.66
C 171.32 531.04 170.94 524.95 167.08 496.60
C 165.70 486.41 162.59 454.81 160.17 426.38
C 157.75 397.95 152.89 345.09 149.35 308.94
C 137.14 183.82 133.48 143.11 129.65 89.81
C 127.61 61.54 125.53 51.23 119.85 41.26
C 110.16 24.26 85.33 10.21 64.93 10.21
C 55.91 10.21 34.12 15.34 25.84 19.42
C 17.74 23.39 8.21 32.26 9.61 34.52
C 10.77 36.41 11.41 36.17 22.93 29.39
C 30.26 25.09 36.77 22.35 43.15 20.94
C 52.16 18.93 53.11 18.96 65.09 21.45
C 86.04 25.81 99.22 33.89 106.97 47.12
C 109.86 52.06 110.43 54.71 110.86 65.37
C 111.15 72.83 110.53 83.62 109.30 92.22
C 108.17 100.12 105.51 125.55 103.39 148.72
C 101.29 171.89 96.11 224.45 91.93 265.53
C 82.67 356.32 78.66 400.31 75.32 448.09
C 73.93 468.10 71.92 491.64 70.86 500.43
C 64.29 555.42 73.90 578.53 107.23 587.82
C 117.20 590.59 127.63 589.47 137.71 584.53"/>
<path fill="#f1a520" stroke="none" d="
M 107.23 587.82
C 86.95 582.17 75.88 571.25 70.85 551.90
C 68.39 542.46 68.40 521.08 70.86 500.43
C 71.92 491.64 73.93 468.10 75.32 448.09
C 78.66 400.31 82.67 356.32 91.93 265.53
C 96.11 224.45 101.29 171.89 103.39 148.72
C 105.51 125.55 108.17 100.12 109.30 92.22
C 110.53 83.62 111.15 72.83 110.86 65.37
C 110.43 54.71 109.86 52.06 106.97 47.12
C 99.22 33.89 86.04 25.81 65.09 21.45
C 53.11 18.96 52.16 18.93 43.15 20.94
C 36.77 22.35 30.26 25.09 22.93 29.39
C 11.41 36.17 10.77 36.41 9.61 34.52
C 8.21 32.26 17.77 23.37 25.84 19.47
C 40.19 12.50 63.06 8.85 76.00 11.45
C 93.49 14.99 112.09 27.63 119.85 41.26
C 125.53 51.23 127.61 61.54 129.65 89.81
C 133.48 143.11 137.14 183.82 149.35 308.94
C 152.89 345.09 157.75 397.95 160.17 426.38
C 162.59 454.81 165.70 486.41 167.08 496.60
C 170.94 524.95 171.32 531.04 169.83 540.66
C 164.94 572.17 134.21 595.33 107.23 587.82"/>
</g>
</svg>
