<?xml version="1.0" encoding="UTF-8" standalone="no"?>
<!DOCTYPE svg PUBLIC "-//W3C//DTD SVG 1.1//EN"
"http://www.w3.org/Graphics/SVG/1.1/DTD/svg11.dtd">
<svg width="157px" height="600px"
xmlns="http://www.w3.org/2000/svg" version="1.1">
<g transform="translate(0000, 0000) scale(1.0000, 1.0000)">
<path fill="#000000" stroke="none" d="
M 70.50 598.03
C 64.20 593.66 64.50 602.13 63.82 404.16
L 63.18 217.83
L 54.89 212.92
C 42.96 205.85 34.39 196.07 26.84 180.89
C 20.38 167.91 16.21 153.51 14.58 138.58
L 13.71 130.66
L 9.41 130.66
C 3.32 130.66 0.00 126.95 0.00 120.14
C 0.00 113.34 3.08 101.39 6.77 93.88
C 10.35 86.56 25.43 71.63 34.72 66.19
C 42.85 61.42 56.70 56.46 65.54 55.14
L 71.48 54.25
L 71.48 42.36
L 71.48 30.44
L 64.71 30.44
C 56.94 30.44 54.89 28.99 54.89 23.47
C 54.89 17.95 56.94 16.49 64.71 16.49
L 71.48 16.49
L 71.48 9.56
C 71.48 2.08 73.22 0.00 79.43 0.00
C 84.03 0.00 85.52 2.40 85.52 9.77
L 85.52 16.49
L 92.29 16.49
C 100.06 16.49 102.11 17.95 102.11 23.47
C 102.11 28.99 100.06 30.44 92.29 30.44
L 85.52 30.44
L 85.52 42.36
L 85.52 54.25
L 91.46 55.14
C 100.30 56.46 114.15 61.42 122.28 66.19
C 131.57 71.63 146.65 86.56 150.23 93.88
C 153.92 101.39 157.00 113.34 157.00 120.14
C 157.00 126.95 153.68 130.66 147.59 130.66
L 143.29 130.66
L 142.42 138.58
C 140.79 153.51 136.62 167.91 130.16 180.89
C 122.61 196.07 114.04 205.85 102.11 212.92
L 93.82 217.83
L 93.18 404.16
C 92.68 550.57 92.20 591.08 90.93 593.28
C 88.41 597.68 84.10 600.00 78.50 600.00
C 75.65 600.00 72.05 599.11 70.50 598.03
M 81.00 592.87
C 86.99 590.59 86.80 596.90 86.80 402.42
L 86.80 219.93
L 78.50 219.93
L 70.20 219.93
L 70.20 402.42
C 70.20 560.99 70.45 585.37 72.09 588.53
C 74.48 593.12 77.04 594.38 81.00 592.87
M 86.01 211.19
C 96.22 208.55 103.33 204.11 111.65 195.17
C 123.43 182.52 133.26 159.37 135.95 137.94
L 136.87 130.66
L 78.50 130.66
L 20.13 130.66
L 21.05 137.94
C 24.70 166.99 40.30 195.72 58.05 206.04
C 62.47 208.62 73.47 212.49 77.91 213.02
C 78.30 213.07 81.93 212.25 86.01 211.19
M 149.33 122.42
C 151.73 119.56 149.85 110.44 144.78 100.36
C 133.64 78.24 105.33 61.74 78.50 61.74
C 51.67 61.74 23.36 78.24 12.22 100.36
C 7.15 110.44 5.27 119.56 7.67 122.42
C 10.05 125.28 146.95 125.28 149.33 122.42
M 80.41 38.75
L 80.41 25.50
L 88.39 25.12
C 98.69 24.62 98.73 22.31 88.46 21.82
L 80.53 21.45
L 80.16 13.57
C 79.94 9.25 79.20 5.71 78.50 5.71
C 77.80 5.71 77.06 9.25 76.84 13.57
L 76.47 21.45
L 68.54 21.82
C 58.27 22.31 58.31 24.62 68.61 25.12
L 76.59 25.50
L 76.59 38.75
C 76.59 49.69 76.92 52.01 78.50 52.01
C 80.08 52.01 80.41 49.69 80.41 38.75"/>
<path fill="#e5a432" stroke="none" d="
M 76.59 38.75
L 76.59 25.50
L 68.61 25.12
C 64.22 24.90 60.63 24.16 60.63 23.47
C 60.63 22.77 64.22 22.03 68.61 21.82
L 76.59 21.44
L 76.59 13.89
C 76.59 8.03 77.01 6.34 78.50 6.34
C 79.99 6.34 80.41 8.03 80.41 13.89
L 80.41 21.44
L 88.39 21.82
C 92.78 22.03 96.37 22.77 96.37 23.47
C 96.37 24.16 92.78 24.90 88.39 25.12
L 80.41 25.50
L 80.41 38.75
C 80.41 49.69 80.08 52.01 78.50 52.01
C 76.92 52.01 76.59 49.69 76.59 38.75"/>
<path fill="#c57a36" stroke="none" d="
M 70.43 211.13
C 60.77 208.54 53.49 203.91 45.35 195.17
C 33.57 182.52 23.74 159.37 21.05 137.94
L 20.13 130.66
L 78.50 130.66
L 136.87 130.66
L 135.95 137.94
C 132.30 166.96 116.70 195.72 98.99 206.03
C 94.38 208.71 80.45 213.34 77.91 213.02
C 77.53 212.98 74.17 212.12 70.43 211.13"/>
<path fill="#c57a36" stroke="none" d="
M 7.67 122.42
C 5.27 119.56 7.15 110.44 12.22 100.36
C 20.70 83.53 41.42 68.25 62.30 63.42
C 85.86 58.00 112.64 65.62 131.23 83.04
C 141.27 92.46 148.52 104.69 150.06 114.84
C 151.58 124.95 156.40 124.31 78.50 124.31
C 18.69 124.31 9.04 124.06 7.67 122.42"/>
<path fill="#c55436" stroke="none" d="
M 74.07 591.16
C 72.68 589.78 71.22 587.35 70.84 585.77
C 70.46 584.17 70.31 501.27 70.50 401.54
L 70.84 220.21
L 78.82 220.00
L 86.80 219.79
L 86.80 402.34
C 86.80 596.90 86.99 590.59 81.00 592.87
C 77.79 594.09 76.78 593.85 74.07 591.16"/>
</g>
</svg>
