<?xml version="1.0" encoding="UTF-8" standalone="no"?>
<!DOCTYPE svg PUBLIC "-//W3C//DTD SVG 1.1//EN"
"http://www.w3.org/Graphics/SVG/1.1/DTD/svg11.dtd">
<svg width="616px" height="600px"
xmlns="http://www.w3.org/2000/svg" version="1.1">
<g transform="translate(0000, 0000) scale(1.0000, 1.0000)">
<path fill="#000000" stroke="none" d="
M 188.15 597.42
C 186.10 595.38 185.57 593.14 185.57 586.48
C 185.57 575.10 187.70 572.96 198.99 572.96
L 207.24 572.96
L 212.97 566.59
C 226.68 551.36 243.18 516.40 251.41 485.14
C 257.81 460.87 259.07 459.66 278.00 459.66
L 291.25 459.66
L 291.25 300.00
L 291.25 140.34
L 182.29 140.34
L 73.34 140.34
L 74.18 145.17
C 74.63 147.82 76.68 158.69 78.71 169.31
C 82.35 188.20 111.06 351.70 113.65 368.24
C 114.37 372.84 115.48 377.61 116.13 378.85
C 118.29 383.05 117.47 392.51 114.69 395.28
C 112.19 397.78 110.40 397.85 58.64 397.85
C 6.87 397.85 5.08 397.78 2.58 395.28
C 0.72 393.42 0.00 390.99 0.00 386.52
C 0.00 383.12 0.50 379.79 1.12 379.12
C 2.90 377.18 6.84 358.12 20.67 284.55
C 47.35 142.62 50.13 128.91 53.70 121.94
C 54.71 119.96 57.40 117.21 59.67 115.83
C 63.67 113.38 67.00 113.32 177.52 113.30
L 291.25 113.30
L 291.25 62.38
C 291.25 5.74 291.31 5.32 299.66 1.83
C 305.23 -0.49 309.75 -0.49 314.25 1.84
C 320.44 5.03 320.89 7.82 320.89 43.20
L 320.89 75.97
L 327.14 75.97
C 339.68 75.97 346.26 72.08 356.20 58.80
C 366.66 44.82 371.65 39.91 375.42 39.91
C 379.02 39.91 390.62 44.01 418.18 54.99
C 437.12 62.54 446.99 65.63 452.28 65.65
C 454.46 65.67 457.50 63.50 461.96 58.79
C 472.08 48.10 476.51 46.75 485.78 51.46
C 502.12 59.79 502.72 82.94 486.78 90.18
C 481.90 92.38 478.12 92.65 450.72 92.68
L 420.12 92.70
L 420.12 103.00
L 420.12 113.30
L 487.84 113.30
C 563.33 113.30 561.26 113.07 564.77 121.94
C 567.08 127.76 571.33 146.59 574.17 163.52
C 575.29 170.24 579.66 193.42 583.89 215.02
C 588.10 236.63 593.90 267.32 596.76 283.26
C 599.63 299.20 604.56 325.58 607.70 341.91
C 610.85 358.24 613.42 373.13 613.42 375.00
C 613.42 376.87 614.00 378.75 614.71 379.18
C 615.42 379.62 616.00 383.05 616.00 386.78
C 616.00 398.48 619.40 397.85 556.50 397.85
C 493.88 397.85 497.44 398.52 497.44 386.74
C 497.44 383.23 497.97 379.79 498.60 379.12
C 500.03 377.61 504.06 358.17 514.09 304.51
C 529.15 223.96 536.19 187.11 539.81 169.96
C 541.84 160.40 543.88 149.82 544.37 146.46
L 545.28 140.34
L 482.70 140.34
L 420.12 140.34
L 420.12 177.04
L 420.12 213.73
L 425.92 213.73
C 433.42 213.73 436.87 216.94 436.87 223.88
C 436.87 231.67 440.12 238.20 443.97 238.20
C 450.40 238.20 454.68 246.46 450.72 251.24
C 449.83 252.31 447.51 254.18 445.57 255.37
C 442.26 257.43 442.03 258.14 442.03 266.54
C 442.03 284.00 430.74 302.72 417.90 306.50
C 413.25 307.88 411.64 307.79 406.65 305.88
C 394.24 301.15 384.03 283.39 384.03 266.54
C 384.03 258.14 383.80 257.43 380.49 255.37
C 378.54 254.18 376.22 252.31 375.33 251.24
C 371.38 246.46 375.66 238.20 382.09 238.20
C 385.94 238.20 389.19 231.67 389.19 223.88
C 389.19 216.94 392.64 213.73 400.14 213.73
L 405.94 213.73
L 405.94 177.04
L 405.94 140.34
L 363.41 140.34
L 320.89 140.34
L 320.89 300.00
L 320.89 459.66
L 335.06 459.66
C 347.40 459.66 349.56 459.98 351.75 462.17
C 355.80 466.21 358.04 471.55 361.60 485.64
C 367.01 506.99 373.44 522.15 389.11 550.43
C 401.25 572.34 401.87 572.96 411.32 572.96
C 421.78 572.96 423.98 575.32 423.98 586.48
C 423.98 601.44 436.68 600.00 304.78 600.00
C 192.44 600.00 190.69 599.96 188.15 597.42
M 415.99 592.02
C 417.99 590.02 417.99 582.94 415.99 580.94
C 413.75 578.70 195.81 578.70 193.56 580.94
C 192.71 581.79 192.02 584.28 192.02 586.48
C 192.02 588.68 192.71 591.17 193.56 592.02
C 195.81 594.26 413.75 594.26 415.99 592.02
M 231.01 570.71
C 234.58 566.72 262.33 510.86 266.03 500.21
C 272.10 482.69 276.70 477.68 286.67 477.68
C 291.23 477.68 291.25 477.67 291.25 471.89
L 291.25 466.09
L 279.65 466.09
C 265.52 466.09 264.30 467.00 260.33 480.46
C 248.98 518.88 239.47 541.88 227.30 560.25
C 223.85 565.47 220.55 570.46 219.98 571.35
C 218.28 574.02 228.59 573.41 231.01 570.71
M 291.25 528.54
L 291.25 484.12
L 288.13 484.12
C 282.46 484.12 277.59 489.80 273.45 501.23
C 268.01 516.24 259.85 534.01 251.10 549.90
C 246.98 557.41 242.71 565.66 241.63 568.25
L 239.66 572.96
L 265.46 572.96
L 291.25 572.96
L 291.25 528.54
M 314.44 356.65
L 314.44 140.34
L 306.07 140.34
L 297.69 140.34
L 297.69 356.65
L 297.69 572.96
L 306.07 572.96
L 314.44 572.96
L 314.44 356.65
M 371.15 571.87
C 371.15 571.26 369.37 568.22 367.19 565.11
C 352.09 543.42 346.40 531.06 336.97 499.27
C 333.40 487.24 330.82 484.12 324.47 484.12
L 320.89 484.12
L 320.89 528.54
L 320.89 572.96
L 346.02 572.96
C 359.84 572.96 371.15 572.47 371.15 571.87
M 385.79 560.41
C 369.10 530.81 360.93 511.43 354.28 485.70
C 352.76 479.83 350.26 473.18 348.72 470.90
C 345.93 466.74 345.91 466.74 333.40 466.36
L 320.89 466.00
L 320.89 471.84
L 320.89 477.68
L 325.98 477.68
C 332.94 477.68 337.03 479.81 339.34 484.60
C 340.40 486.81 343.94 496.93 347.20 507.08
C 354.05 528.35 360.63 542.23 370.57 556.31
C 374.43 561.79 377.59 566.72 377.59 567.26
C 377.59 570.24 382.24 572.96 387.36 572.96
L 392.86 572.96
L 385.79 560.41
M 110.09 390.68
C 112.66 388.11 112.66 385.71 110.09 383.14
C 108.32 381.37 101.86 381.12 58.64 381.12
C 15.41 381.12 8.96 381.37 7.18 383.14
C 4.61 385.71 4.61 388.11 7.18 390.68
C 8.96 392.45 15.41 392.70 58.64 392.70
C 101.86 392.70 108.32 392.45 110.09 390.68
M 608.49 390.58
C 611.40 387.94 611.45 386.48 608.72 383.47
C 606.72 381.27 603.40 381.12 556.94 381.12
C 512.57 381.12 507.05 381.35 504.95 383.24
C 502.04 385.88 501.99 387.33 504.72 390.35
C 506.72 392.55 510.04 392.70 556.50 392.70
C 600.87 392.70 606.39 392.47 608.49 390.58
M 13.35 374.02
C 13.76 372.97 19.07 345.88 25.14 313.83
C 31.21 281.79 40.58 232.40 45.94 204.08
C 55.83 151.93 57.93 143.55 60.88 144.52
C 64.65 145.75 66.99 157.33 88.98 283.91
C 97.48 332.77 104.69 373.47 105.02 374.36
C 105.94 376.94 109.82 376.33 109.05 373.71
C 107.98 370.12 104.08 348.28 89.66 265.24
C 82.21 222.39 75.00 181.83 73.64 175.11
C 72.27 168.39 70.48 158.82 69.65 153.86
C 68.13 144.71 61.07 129.18 58.64 129.64
C 56.79 129.98 52.66 148.08 43.84 194.42
C 39.59 216.72 30.34 265.39 23.26 302.58
C 16.19 339.76 10.03 371.47 9.56 373.07
C 8.96 375.17 9.25 375.97 10.67 375.97
C 11.74 375.97 12.95 375.09 13.35 374.02
M 98.60 373.07
C 98.21 371.47 91.27 331.93 83.15 285.19
C 65.88 185.83 61.16 160.88 60.13 163.52
C 59.29 165.66 55.74 184.17 34.78 295.49
C 26.92 337.27 20.18 372.48 19.82 373.71
C 19.20 375.82 21.68 375.97 59.22 375.97
L 99.28 375.97
L 98.60 373.07
M 510.84 373.71
C 511.59 371.32 518.65 334.18 534.18 251.07
C 546.28 186.31 555.28 142.61 556.81 141.05
C 559.30 138.53 560.71 142.96 564.44 164.88
C 566.54 177.23 571.73 205.08 575.99 226.76
C 580.24 248.46 586.35 280.91 589.57 298.87
C 595.48 331.82 602.73 369.55 603.92 373.71
C 604.29 374.95 605.45 375.97 606.50 375.97
C 607.74 375.97 608.20 375.15 607.78 373.71
C 606.85 370.55 597.80 322.82 591.60 288.41
C 588.74 272.47 582.67 240.32 578.14 216.95
C 573.59 193.58 569.18 170.11 568.32 164.81
C 566.32 152.32 562.24 134.27 560.37 129.62
L 558.90 125.96
L 554.81 134.77
C 552.52 139.71 550.02 148.07 549.10 153.86
C 548.20 159.53 545.47 173.39 543.03 184.67
C 540.60 195.95 535.19 223.76 531.00 246.48
C 520.96 300.89 507.94 369.42 506.95 373.07
C 505.98 376.61 509.76 377.24 510.84 373.71
M 597.96 375.41
C 597.96 375.10 597.06 370.61 595.96 365.43
C 594.87 360.24 589.70 332.83 584.49 304.51
C 576.62 261.73 569.75 225.37 559.07 169.97
L 557.70 162.91
L 553.39 183.49
C 551.02 194.82 544.97 226.09 539.95 253.00
C 527.79 318.17 518.14 369.50 517.35 373.07
L 516.72 375.97
L 557.34 375.97
C 579.68 375.97 597.96 375.71 597.96 375.41
M 421.35 295.56
C 425.13 291.01 420.86 276.39 414.63 272.46
C 409.78 269.41 402.66 281.63 403.61 291.36
C 403.89 294.28 405.22 296.23 408.34 298.31
C 412.26 300.94 412.98 301.04 416.16 299.41
C 418.08 298.40 420.43 296.68 421.35 295.56
M 400.01 273.22
C 402.40 268.61 408.93 263.96 413.03 263.96
C 419.40 263.96 426.43 271.24 429.18 280.67
C 430.09 283.82 430.18 283.76 432.41 278.76
C 435.81 271.07 436.37 248.64 433.35 240.13
C 430.36 231.71 426.69 229.84 413.03 229.84
C 399.37 229.84 395.70 231.71 392.71 240.13
C 389.69 248.64 390.25 271.07 393.65 278.76
C 395.88 283.76 395.97 283.82 396.88 280.67
C 397.40 278.90 398.80 275.55 400.01 273.22
M 385.32 247.21
C 385.32 244.25 384.74 243.35 382.82 243.35
C 378.89 243.35 378.16 246.09 381.39 248.70
C 385.21 251.79 385.32 251.76 385.32 247.21
M 446.54 245.77
C 446.54 244.79 445.23 243.81 443.64 243.58
C 441.15 243.23 440.74 243.75 440.74 247.27
C 440.74 251.25 440.83 251.32 443.64 249.46
C 445.23 248.41 446.54 246.75 446.54 245.77
M 409.82 223.08
C 415.13 222.73 421.77 223.08 424.56 223.85
C 430.31 225.44 431.52 224.97 429.16 222.13
C 427.08 219.62 399.64 219.26 397.18 221.72
C 394.88 224.01 395.31 225.73 397.89 224.65
C 399.12 224.14 404.50 223.43 409.82 223.08
M 414.65 152.50
C 414.43 115.87 413.87 95.92 413.03 95.92
C 411.68 95.92 410.45 206.33 411.77 209.77
C 412.23 210.95 412.91 211.15 413.73 210.33
C 414.52 209.54 414.86 188.11 414.65 152.50
M 405.94 126.82
L 405.94 119.74
L 237.28 119.74
C 48.65 119.74 63.24 118.97 67.67 128.78
L 69.98 133.91
L 237.96 133.91
L 405.94 133.91
L 405.94 126.82
M 550.42 128.10
C 551.84 124.91 552.63 121.71 552.20 121.02
C 551.69 120.21 527.63 119.74 485.76 119.74
L 420.12 119.74
L 420.12 126.82
L 420.12 133.91
L 483.99 133.91
L 547.84 133.91
L 550.42 128.10
M 314.44 63.03
L 314.44 12.76
L 311.29 9.59
C 307.23 5.55 306.04 5.63 301.45 10.20
L 297.69 13.97
L 297.69 63.63
L 297.69 113.30
L 306.07 113.30
L 314.44 113.30
L 314.44 63.03
M 405.94 103.00
L 405.94 92.70
L 363.41 92.70
L 320.89 92.70
L 320.89 103.00
L 320.89 113.30
L 363.41 113.30
L 405.94 113.30
L 405.94 103.00
M 482.95 83.69
C 487.99 80.63 491.67 73.64 490.56 69.23
C 489.45 64.82 485.02 59.54 480.45 57.18
L 476.59 55.18
L 468.60 63.52
C 461.77 70.65 459.78 71.99 454.86 72.72
C 448.22 73.70 435.94 70.25 413.67 61.16
C 406.24 58.12 394.74 53.77 388.13 51.49
L 376.12 47.36
L 372.86 50.39
C 371.07 52.07 366.22 58.07 362.09 63.73
C 351.36 78.41 344.19 82.38 328.30 82.39
C 322.58 82.40 320.89 82.84 320.89 84.33
C 320.89 86.03 330.51 86.27 399.82 86.27
C 476.34 86.25 478.88 86.18 482.95 83.69"/>
<path fill="#000000" stroke="none" d="
M 393.92 257.94
C 390.50 254.54 398.88 245.23 408.05 242.20
C 412.76 240.66 414.09 240.72 419.20 242.67
C 426.10 245.30 433.44 252.37 432.79 255.75
C 432.02 259.71 428.18 259.21 423.51 254.55
C 421.08 252.12 417.55 249.75 415.68 249.27
C 411.46 248.21 403.93 251.59 401.19 255.77
C 399.28 258.68 395.72 259.74 393.92 257.94"/>
<path fill="#c55436" stroke="none" d="
M 193.56 592.02
C 192.71 591.17 192.02 588.68 192.02 586.48
C 192.02 584.28 192.71 581.79 193.56 580.94
C 195.81 578.70 413.75 578.70 415.99 580.94
C 417.99 582.94 417.99 590.02 415.99 592.02
C 413.75 594.26 195.81 594.26 193.56 592.02"/>
<path fill="#c55436" stroke="none" d="
M 219.98 571.35
C 220.55 570.46 223.85 565.47 227.30 560.25
C 239.47 541.88 248.98 518.88 260.33 480.46
C 264.30 467.00 265.52 466.09 279.65 466.09
L 291.25 466.09
L 291.25 471.89
C 291.25 477.67 291.23 477.68 286.67 477.68
C 276.70 477.68 272.10 482.69 266.03 500.21
C 262.33 510.86 234.58 566.72 231.01 570.71
C 228.59 573.41 218.28 574.02 219.98 571.35"/>
<path fill="#c55436" stroke="none" d="
M 297.69 356.65
L 297.69 140.34
L 306.07 140.34
L 314.44 140.34
L 314.44 356.65
L 314.44 572.96
L 306.07 572.96
L 297.69 572.96
L 297.69 356.65"/>
<path fill="#c55436" stroke="none" d="
M 379.72 570.61
C 378.54 569.32 377.59 567.81 377.59 567.26
C 377.59 566.72 374.43 561.79 370.57 556.31
C 360.63 542.23 354.05 528.35 347.20 507.08
C 343.94 496.93 340.40 486.81 339.34 484.60
C 337.03 479.81 332.94 477.68 325.98 477.68
L 320.89 477.68
L 320.89 471.84
L 320.89 466.00
L 333.40 466.36
C 345.91 466.74 345.93 466.74 348.72 470.90
C 350.26 473.18 352.76 479.83 354.28 485.70
C 360.93 511.43 369.10 530.81 385.79 560.41
L 392.86 572.96
L 387.36 572.96
C 383.66 572.96 381.16 572.19 379.72 570.61"/>
<path fill="#c55436" stroke="none" d="
M 297.69 63.90
C 297.69 16.66 297.81 14.37 300.24 11.28
C 303.97 6.54 307.69 6.01 311.36 9.68
L 314.44 12.76
L 314.44 63.03
L 314.44 113.30
L 306.07 113.30
L 297.69 113.30
L 297.69 63.90"/>
<path fill="#f3a593" stroke="none" d="
M 320.89 84.33
C 320.89 82.84 322.58 82.40 328.39 82.40
C 337.96 82.40 347.50 79.49 352.61 74.99
C 354.83 73.04 359.90 66.99 363.87 61.53
C 374.77 46.55 374.38 46.66 391.21 52.64
C 398.96 55.38 410.22 59.65 416.25 62.15
C 435.61 70.17 448.42 73.67 454.86 72.72
C 459.78 71.99 461.77 70.65 468.60 63.52
L 476.59 55.18
L 480.45 57.18
C 485.02 59.54 489.45 64.82 490.56 69.23
C 491.67 73.64 487.99 80.63 482.95 83.69
C 478.88 86.18 476.34 86.25 399.82 86.27
C 330.51 86.27 320.89 86.03 320.89 84.33"/>
<path fill="#cf9e66" stroke="none" d="
M 411.92 210.27
C 411.47 209.81 411.10 184.04 411.10 153.00
C 411.10 103.70 411.34 96.57 413.03 96.57
C 414.72 96.57 414.96 103.71 414.96 153.14
C 414.96 184.26 414.46 210.03 413.85 210.40
C 413.25 210.79 412.37 210.72 411.92 210.27"/>
<path fill="#e1991b" stroke="none" d="
M 67.59 128.61
C 65.26 123.44 65.26 123.27 67.64 121.53
C 69.69 120.03 96.95 119.74 238.01 119.74
L 405.94 119.74
L 405.94 126.82
L 405.94 133.91
L 237.96 133.91
L 69.98 133.91
L 67.59 128.61"/>
<path fill="#e1991b" stroke="none" d="
M 420.12 126.82
L 420.12 119.74
L 485.76 119.74
C 527.63 119.74 551.69 120.21 552.20 121.02
C 552.63 121.71 551.84 124.91 550.42 128.10
L 547.84 133.91
L 483.99 133.91
L 420.12 133.91
L 420.12 126.82"/>
<path fill="#d4a874" stroke="none" d="
M 9.56 373.07
C 10.03 371.47 16.19 339.76 23.26 302.58
C 30.34 265.39 39.59 216.72 43.84 194.42
C 52.66 148.08 56.79 129.98 58.64 129.64
C 61.07 129.18 68.13 144.71 69.65 153.86
C 70.48 158.82 72.27 168.39 73.64 175.11
C 75.00 181.83 82.21 222.39 89.66 265.24
C 104.08 348.28 107.98 370.12 109.05 373.71
C 109.82 376.33 105.94 376.94 105.02 374.36
C 104.69 373.47 97.48 332.77 88.98 283.91
C 66.99 157.33 64.65 145.75 60.88 144.52
C 57.93 143.55 55.83 151.93 45.94 204.08
C 40.58 232.40 31.21 281.79 25.14 313.83
C 19.07 345.88 13.76 372.97 13.35 374.02
C 12.95 375.09 11.74 375.97 10.67 375.97
C 9.25 375.97 8.96 375.17 9.56 373.07"/>
<path fill="#d4a874" stroke="none" d="
M 506.95 373.07
C 507.94 369.42 520.96 300.89 531.00 246.48
C 535.19 223.76 540.60 195.95 543.03 184.67
C 545.47 173.39 548.20 159.53 549.09 153.86
C 550.91 142.42 557.53 126.48 559.62 128.56
C 561.29 130.24 565.10 146.21 568.40 165.45
C 569.85 173.95 574.50 198.57 578.72 220.17
C 582.94 241.78 588.74 272.47 591.60 288.41
C 597.79 322.71 606.85 370.53 607.78 373.71
C 608.20 375.15 607.74 375.97 606.50 375.97
C 605.45 375.97 604.29 374.95 603.92 373.71
C 602.73 369.55 595.48 331.82 589.57 298.87
C 586.35 280.91 580.24 248.46 575.99 226.76
C 571.73 205.08 566.54 177.23 564.44 164.88
C 560.71 142.96 559.30 138.53 556.81 141.05
C 555.28 142.61 546.28 186.31 534.18 251.07
C 518.65 334.18 511.59 371.32 510.84 373.71
C 509.76 377.24 505.98 376.61 506.95 373.07"/>
<path fill="#d74928" stroke="none" d="
M 408.34 298.31
C 405.22 296.23 403.89 294.28 403.61 291.36
C 402.66 281.63 409.78 269.41 414.63 272.46
C 418.76 275.06 421.46 280.15 422.26 286.80
C 423.13 294.19 422.09 296.34 416.16 299.41
C 412.98 301.04 412.26 300.94 408.34 298.31"/>
<path fill="#d74928" stroke="none" d="
M 393.65 278.76
C 390.25 271.07 389.69 248.64 392.71 240.13
C 395.70 231.71 399.37 229.84 413.03 229.84
C 426.69 229.84 430.36 231.71 433.35 240.13
C 436.37 248.64 435.81 271.07 432.41 278.76
C 430.18 283.76 430.09 283.82 429.18 280.67
C 426.43 271.24 419.40 263.96 413.03 263.96
C 406.66 263.96 399.63 271.24 396.88 280.67
C 395.97 283.82 395.88 283.76 393.65 278.76
M 401.19 255.77
C 403.93 251.59 411.46 248.21 415.68 249.27
C 417.55 249.75 421.08 252.12 423.51 254.55
C 428.18 259.21 432.02 259.71 432.79 255.75
C 433.44 252.37 426.10 245.30 419.20 242.67
C 414.09 240.72 412.76 240.66 408.05 242.20
C 398.88 245.23 390.50 254.54 393.92 257.94
C 395.72 259.74 399.28 258.68 401.19 255.77"/>
<path fill="#d74928" stroke="none" d="
M 381.39 248.70
C 378.16 246.09 378.89 243.35 382.82 243.35
C 384.74 243.35 385.32 244.25 385.32 247.21
C 385.32 251.76 385.21 251.79 381.39 248.70"/>
<path fill="#d74928" stroke="none" d="
M 440.74 247.27
C 440.74 243.75 441.15 243.23 443.64 243.58
C 445.23 243.81 446.54 244.79 446.54 245.77
C 446.54 246.75 445.23 248.41 443.64 249.46
C 440.83 251.32 440.74 251.25 440.74 247.27"/>
<path fill="#d74928" stroke="none" d="
M 395.63 224.21
C 395.63 221.36 401.03 220.17 414.07 220.17
C 424.56 220.17 427.89 220.61 429.16 222.13
C 431.52 224.97 430.31 225.44 424.56 223.85
C 419.38 222.42 401.96 222.95 397.89 224.65
C 396.56 225.21 395.63 225.04 395.63 224.21"/>
<path fill="#e8a530" stroke="none" d="
M 7.18 390.68
C 4.87 388.38 4.67 386.46 6.42 383.69
C 7.46 382.04 14.88 381.71 57.81 381.40
C 102.45 381.06 108.21 381.26 110.06 383.10
C 112.66 385.70 112.67 388.09 110.09 390.68
C 108.32 392.45 101.86 392.70 58.64 392.70
C 15.41 392.70 8.96 392.45 7.18 390.68"/>
<path fill="#e8a530" stroke="none" d="
M 504.72 390.35
C 501.99 387.33 502.04 385.88 504.95 383.24
C 507.05 381.35 512.57 381.12 556.94 381.12
C 603.40 381.12 606.72 381.27 608.72 383.47
C 611.45 386.48 611.40 387.94 608.49 390.58
C 606.39 392.47 600.87 392.70 556.50 392.70
C 510.04 392.70 506.72 392.55 504.72 390.35"/>
</g>
</svg>
