<?xml version="1.0" encoding="UTF-8" standalone="no"?>
<!DOCTYPE svg PUBLIC "-//W3C//DTD SVG 1.1//EN"
"http://www.w3.org/Graphics/SVG/1.1/DTD/svg11.dtd">
<svg width="320px" height="600px"
xmlns="http://www.w3.org/2000/svg" version="1.1">
<g transform="translate(0000, 0000) scale(1.0000, 1.0000)">
<path fill="#000000" stroke="none" d="
M 2.47 597.53
C 0.41 595.47 0.00 593.42 0.00 585.19
C 0.00 568.98 -6.63 570.37 70.42 570.37
C 134.26 570.37 135.97 570.31 138.38 567.90
C 140.81 565.47 140.85 563.79 140.85 438.27
C 140.85 290.33 139.07 306.17 155.68 306.17
C 172.28 306.17 170.50 290.33 170.50 438.27
C 170.50 563.79 170.54 565.47 172.97 567.90
C 175.37 570.30 177.09 570.37 230.42 570.37
C 283.76 570.37 285.48 570.30 287.88 567.90
C 290.32 565.46 290.35 563.79 290.35 349.52
C 290.35 145.67 290.22 133.47 288.19 131.11
C 286.33 128.96 165.66 39.96 156.24 33.80
C 149.56 29.43 147.62 18.43 151.89 9.05
C 153.18 6.22 155.44 3.26 156.91 2.47
C 161.47 0.02 171.92 -0.47 176.69 1.53
C 181.89 3.70 311.77 98.67 316.60 103.81
L 320.00 107.44
L 320.00 351.26
C 320.00 593.42 319.99 595.07 317.53 597.53
C 315.08 599.98 313.41 600.00 160.00 600.00
C 6.59 600.00 4.92 599.98 2.47 597.53
M 312.59 592.59
C 315.05 590.14 315.06 588.48 315.06 351.26
L 315.06 112.38
L 311.66 108.75
C 308.93 105.84 192.59 19.80 176.82 9.04
C 169.55 4.07 161.06 5.52 157.54 12.32
C 154.60 18.01 155.16 23.28 159.07 26.74
C 160.94 28.40 191.38 50.88 226.72 76.70
C 262.05 102.53 291.94 124.79 293.13 126.17
C 295.17 128.53 295.29 140.96 295.29 349.52
C 295.29 568.73 295.28 570.38 292.82 572.84
C 290.41 575.25 288.70 575.31 230.42 575.31
C 172.15 575.31 170.44 575.25 168.03 572.84
C 165.60 570.41 165.56 568.73 165.56 443.21
C 165.56 317.69 165.52 316.01 163.09 313.58
C 159.74 310.23 151.61 310.23 148.26 313.58
C 145.83 316.01 145.79 317.69 145.79 443.21
C 145.79 568.73 145.75 570.41 143.32 572.84
C 140.91 575.25 139.21 575.31 75.37 575.31
C 11.53 575.31 9.82 575.37 7.41 577.78
C 5.77 579.42 4.94 581.89 4.94 585.19
C 4.94 588.48 5.77 590.95 7.41 592.59
C 9.86 595.04 11.53 595.06 160.00 595.06
C 308.47 595.06 310.14 595.04 312.59 592.59"/>
<path fill="#c55436" stroke="none" d="
M 7.41 592.59
C 4.06 589.25 4.06 581.12 7.41 577.78
C 9.82 575.37 11.53 575.31 75.37 575.31
C 139.21 575.31 140.91 575.25 143.32 572.84
C 145.75 570.41 145.79 568.73 145.79 443.21
C 145.79 317.69 145.83 316.01 148.26 313.58
C 151.61 310.23 159.74 310.23 163.09 313.58
C 165.52 316.01 165.56 317.69 165.56 443.21
C 165.56 568.73 165.60 570.41 168.03 572.84
C 170.44 575.25 172.15 575.31 230.42 575.31
C 288.70 575.31 290.41 575.25 292.82 572.84
C 295.28 570.38 295.29 568.73 295.29 349.52
C 295.29 140.96 295.17 128.53 293.13 126.17
C 291.94 124.79 262.05 102.53 226.72 76.70
C 191.38 50.88 160.94 28.40 159.07 26.74
C 154.93 23.09 154.56 17.27 158.10 11.48
C 160.83 7.00 167.56 4.98 172.90 7.02
C 177.09 8.63 307.29 104.09 311.66 108.75
L 315.06 112.38
L 315.06 351.26
C 315.06 588.48 315.05 590.14 312.59 592.59
C 310.14 595.04 308.47 595.06 160.00 595.06
C 11.53 595.06 9.86 595.04 7.41 592.59"/>
</g>
</svg>
