<?xml version="1.0" encoding="UTF-8" standalone="no"?>
<!DOCTYPE svg PUBLIC "-//W3C//DTD SVG 1.1//EN"
"http://www.w3.org/Graphics/SVG/1.1/DTD/svg11.dtd">
<svg width="174px" height="600px"
xmlns="http://www.w3.org/2000/svg" version="1.1">
<g transform="translate(0000, 0000) scale(1.0000, 1.0000)">
<path fill="#000000" stroke="none" d="
M 5.67 598.17
C 1.37 596.31 0.01 594.04 -0.01 588.68
C -0.03 586.74 14.98 555.42 34.46 516.67
L 68.96 448.08
L 69.60 226.03
C 70.12 46.38 70.57 3.65 71.92 2.31
C 74.50 -0.27 97.85 -0.73 101.18 1.73
C 103.73 3.63 103.76 5.51 104.40 225.86
L 105.04 448.08
L 139.54 516.67
C 160.36 558.08 174.03 586.69 174.01 588.87
C 174.00 594.09 172.03 596.97 167.39 598.58
C 154.73 602.97 145.46 596.90 135.76 577.82
C 133.17 572.74 124.52 554.55 116.53 537.38
C 104.17 510.82 88.80 482.05 87.00 482.05
C 85.20 482.05 69.83 510.82 57.47 537.38
C 38.55 578.01 34.37 586.10 29.46 591.67
C 22.28 599.81 14.42 601.96 5.67 598.17
M 21.07 589.67
C 25.64 586.10 31.19 575.91 45.15 545.51
C 67.67 496.49 81.43 472.44 87.00 472.44
C 92.63 472.44 106.59 497.04 130.71 549.42
C 144.12 578.58 149.59 587.99 154.76 590.86
C 158.47 592.92 164.68 592.00 165.75 589.23
C 166.33 587.74 128.66 510.78 108.90 473.08
C 95.27 447.09 96.67 475.00 96.67 227.58
C 96.67 60.65 96.31 10.41 95.12 9.23
C 93.11 7.23 80.89 7.23 78.88 9.23
C 77.69 10.41 77.33 60.65 77.33 227.58
C 77.33 475.00 78.73 447.09 65.10 473.08
C 52.97 496.23 7.73 587.18 7.73 588.42
C 7.73 590.10 11.73 592.22 14.98 592.27
C 16.47 592.29 19.22 591.12 21.07 589.67"/>
<path fill="#c55436" stroke="none" d="
M 9.99 590.92
C 8.75 590.21 7.73 589.08 7.73 588.42
C 7.73 587.18 52.97 496.23 65.10 473.08
C 78.73 447.09 77.33 475.04 77.33 227.36
C 77.33 14.12 77.37 10.32 79.82 9.03
C 83.24 7.21 93.23 7.35 95.12 9.23
C 96.31 10.41 96.67 60.65 96.67 227.58
C 96.67 475.00 95.27 447.09 108.90 473.08
C 128.66 510.78 166.33 587.74 165.75 589.23
C 164.68 592.00 158.47 592.92 154.76 590.86
C 149.59 587.99 144.12 578.58 130.71 549.42
C 106.59 497.04 92.63 472.44 87.00 472.44
C 81.43 472.44 67.67 496.49 45.15 545.51
C 38.68 559.62 31.37 574.72 28.91 579.09
C 22.31 590.82 16.30 594.58 9.99 590.92"/>
</g>
</svg>
