<?xml version="1.0" encoding="UTF-8" standalone="no"?>
<!DOCTYPE svg PUBLIC "-//W3C//DTD SVG 1.1//EN"
"http://www.w3.org/Graphics/SVG/1.1/DTD/svg11.dtd">
<svg width="600px" height="359px"
xmlns="http://www.w3.org/2000/svg" version="1.1">
<g transform="translate(0000, 0000) scale(1.0000, 1.0000)">
<path fill="#000000" stroke="none" d="
M 14.04 357.59
C 3.64 355.55 -2.08 348.61 1.03 341.78
C 3.09 337.27 6.66 336.21 24.63 334.83
C 40.84 333.58 103.01 323.55 136.86 316.74
C 182.13 307.62 236.40 291.94 275.80 276.61
C 322.51 258.42 373.25 232.14 404.04 210.15
C 425.57 194.78 446.69 170.80 450.80 157.09
C 454.16 145.87 445.23 133.42 427.60 124.76
C 418.98 120.53 414.29 119.22 399.18 116.87
C 389.29 115.34 387.17 108.93 391.98 95.06
C 397.61 78.79 400.01 44.54 396.82 25.90
C 396.00 21.14 395.74 15.09 396.24 12.46
C 397.58 5.33 401.62 3.82 425.06 1.71
C 451.56 -0.66 466.75 0.89 471.82 6.53
C 474.08 9.03 474.26 11.52 474.26 40.77
L 474.26 72.31
L 478.11 79.87
C 482.80 89.09 490.20 95.05 503.23 100.12
C 520.06 106.68 535.25 109.00 562.98 109.28
C 595.19 109.60 593.25 109.39 596.87 113.00
C 599.59 115.74 600.00 117.29 599.97 124.82
C 599.94 136.16 596.77 143.74 584.62 161.64
C 562.99 193.52 529.05 222.81 478.02 253.66
C 385.54 309.56 272.44 344.68 151.28 355.13
C 109.51 358.73 27.38 360.21 14.04 357.59
M 141.06 349.51
C 278.80 337.72 396.74 299.06 496.14 233.09
C 536.09 206.57 560.22 184.05 580.25 154.59
C 589.58 140.85 593.62 131.81 593.62 124.58
C 593.62 120.13 593.04 118.60 590.95 117.47
C 589.30 116.59 578.16 115.89 561.91 115.65
C 533.23 115.22 520.06 113.45 502.63 107.69
C 490.63 103.71 479.35 96.55 475.09 90.17
C 468.34 80.13 467.87 77.04 467.87 43.44
L 467.87 12.14
L 463.57 9.99
C 456.97 6.69 445.34 6.09 426.13 8.05
C 404.91 10.22 401.45 11.83 402.68 18.96
C 403.12 21.53 403.83 31.51 404.23 41.13
C 405.06 60.81 403.34 79.86 399.40 94.75
C 397.39 102.33 397.12 105.12 398.22 107.19
C 399.73 109.99 400.48 110.24 413.62 112.32
C 433.29 115.45 453.11 130.03 457.76 144.79
C 459.91 151.61 459.92 152.43 457.91 158.74
C 450.45 182.36 424.47 208.18 383.97 232.23
C 315.59 272.84 239.46 301.85 152.55 320.47
C 120.22 327.38 37.56 341.11 28.21 341.11
C 17.08 341.11 8.80 342.53 8.02 344.59
C 7.01 347.20 9.22 348.89 16.20 350.89
C 24.40 353.21 108.55 352.28 141.06 349.51"/>
<path fill="#000000" stroke="none" d="
M 8.78 212.21
C 5.86 209.84 5.83 209.68 7.90 205.33
C 9.08 202.88 11.71 198.94 13.75 196.58
C 15.79 194.20 21.69 185.95 26.83 178.22
C 38.82 160.21 42.66 155.44 48.42 151.46
L 53.12 148.20
L 193.79 148.20
C 332.77 148.20 334.49 148.22 337.02 150.75
C 339.42 153.16 339.57 155.01 339.57 181.42
C 339.57 207.82 339.42 209.68 337.02 212.08
C 334.49 214.61 332.77 214.63 173.12 214.63
C 16.56 214.63 11.68 214.56 8.78 212.21
M 331.66 206.71
C 333.82 204.55 333.82 158.28 331.66 156.12
C 330.49 154.94 298.20 154.59 194.11 154.59
C 61.72 154.60 57.97 154.66 54.03 157.08
C 49.17 160.03 41.76 169.16 32.23 183.91
C 28.40 189.84 23.32 197.25 20.95 200.35
C 18.57 203.45 16.95 206.51 17.34 207.12
C 18.47 208.97 329.81 208.56 331.66 206.71"/>
<path fill="#f3a61f" stroke="none" d="
M 16.20 350.89
C 9.22 348.89 7.01 347.20 8.02 344.59
C 8.80 342.53 17.08 341.11 28.21 341.11
C 37.56 341.11 120.22 327.38 152.55 320.47
C 239.46 301.85 315.59 272.84 383.97 232.23
C 424.47 208.18 450.45 182.36 457.91 158.74
C 459.92 152.43 459.91 151.61 457.76 144.79
C 453.11 130.03 433.29 115.45 413.62 112.32
C 400.48 110.24 399.73 109.99 398.22 107.19
C 397.12 105.12 397.39 102.33 399.40 94.75
C 403.34 79.86 405.06 60.81 404.23 41.13
C 403.83 31.51 403.12 21.53 402.68 18.96
C 401.45 11.79 404.96 10.16 426.17 8.06
C 445.52 6.15 457.09 6.75 463.57 9.99
L 467.87 12.14
L 467.87 43.44
C 467.87 77.04 468.34 80.13 475.09 90.17
C 479.35 96.55 490.63 103.71 502.63 107.69
C 520.06 113.45 533.23 115.22 561.91 115.65
C 578.16 115.89 589.30 116.59 590.95 117.47
C 593.04 118.60 593.62 120.13 593.62 124.58
C 593.62 131.81 589.58 140.85 580.25 154.59
C 560.22 184.05 536.09 206.57 496.14 233.09
C 396.74 299.06 278.80 337.72 141.06 349.51
C 108.55 352.28 24.40 353.21 16.20 350.89"/>
<path fill="#c55436" stroke="none" d="
M 17.34 207.12
C 16.95 206.51 18.55 203.49 20.89 200.41
C 23.21 197.35 28.90 189.08 33.51 182.06
C 44.22 165.78 50.46 158.53 55.74 156.34
C 61.51 153.92 329.25 153.71 331.66 156.12
C 333.82 158.28 333.82 204.55 331.66 206.71
C 329.81 208.56 18.47 208.97 17.34 207.12"/>
</g>
</svg>
