<?xml version="1.0" encoding="UTF-8" standalone="no"?>
<!DOCTYPE svg PUBLIC "-//W3C//DTD SVG 1.1//EN"
"http://www.w3.org/Graphics/SVG/1.1/DTD/svg11.dtd">
<svg width="460px" height="600px"
xmlns="http://www.w3.org/2000/svg" version="1.1">
<g transform="translate(0000, 0000) scale(1.0000, 1.0000)">
<path fill="#000000" stroke="none" d="
M 389.86 596.18
C 374.72 588.58 350.82 567.87 303.88 521.70
C 260.74 479.27 222.33 437.00 188.66 394.90
L 172.08 374.15
L 167.77 375.47
C 162.37 377.13 155.45 375.88 151.12 372.48
C 144.59 367.34 141.87 347.41 147.10 343.07
C 148.54 341.86 146.94 338.67 138.21 325.30
C 94.03 257.70 68.77 191.60 48.12 89.52
L 43.22 65.33
L 22.41 47.47
C 10.95 37.64 1.22 28.68 0.78 27.55
C -3.25 17.01 7.94 2.36 18.46 4.41
C 20.67 4.84 26.82 8.36 32.10 12.23
C 42.51 19.85 43.69 20.36 43.69 17.18
C 43.69 12.63 49.06 6.50 56.04 3.08
L 63.10 -0.37
L 69.40 2.58
C 82.26 8.60 85.38 15.02 86.77 38.36
L 87.71 53.99
L 178.77 127.97
C 228.86 168.67 270.12 202.42 270.46 202.99
C 270.82 203.55 273.28 202.88 275.92 201.48
C 281.55 198.54 292.41 198.94 297.51 202.27
C 301.94 205.18 304.02 213.21 302.39 221.18
L 301.08 227.59
L 376.53 289.14
C 418.03 323.00 453.78 352.75 455.99 355.27
C 461.04 361.01 461.25 366.51 456.67 373.37
C 450.80 382.16 445.88 384.39 437.32 382.10
C 435.79 381.69 399.42 352.90 356.49 318.12
L 278.42 254.88
L 266.95 258.69
L 255.48 262.50
L 234.07 288.87
C 207.06 322.12 208.17 320.43 208.17 328.63
C 208.16 332.36 207.35 337.34 206.37 339.69
L 204.58 343.97
L 222.11 365.77
C 274.39 430.83 343.09 504.59 400.28 557.09
C 408.05 564.22 415.53 572.13 416.89 574.65
C 419.31 579.13 419.31 579.37 416.98 584.52
C 414.00 591.12 404.56 600.00 400.48 600.00
C 398.81 600.00 394.03 598.28 389.86 596.18
M 405.52 589.95
C 409.45 586.66 411.49 582.21 410.65 578.81
C 410.24 577.18 401.48 568.21 391.21 558.87
C 371.01 540.55 299.66 467.54 271.26 436.14
C 251.37 414.15 233.67 393.22 219.16 374.52
C 213.67 367.45 207.32 359.49 205.03 356.83
L 200.88 352.00
L 190.60 362.12
L 180.33 372.24
L 195.85 391.49
C 224.28 426.73 242.44 447.26 286.05 493.49
C 334.84 545.20 367.88 575.34 390.61 588.84
C 397.31 592.81 401.72 593.14 405.52 589.95
M 448.92 371.31
C 454.31 365.36 454.54 363.89 450.93 359.29
C 448.06 355.66 302.85 236.67 299.89 235.53
C 298.91 235.16 298.10 235.44 298.10 236.16
C 298.10 236.89 295.13 240.73 291.51 244.69
C 287.89 248.66 285.14 252.12 285.41 252.36
C 294.55 260.88 440.41 376.45 441.99 376.45
C 443.24 376.45 446.37 374.13 448.92 371.31
M 173.99 366.09
C 181.58 362.52 193.56 349.61 198.84 339.28
C 202.08 332.94 203.02 329.50 203.03 323.91
C 203.03 315.21 201.76 317.20 229.07 283.55
L 250.62 257.01
L 257.99 254.89
C 278.87 248.87 290.57 239.25 295.45 224.16
C 297.95 216.41 298.00 215.52 296.13 211.93
C 293.33 206.51 286.43 203.33 281.91 205.39
C 278.69 206.87 278.62 207.06 280.69 209.34
C 281.88 210.68 284.26 212.11 285.97 212.54
C 292.25 214.11 291.06 224.90 283.68 233.32
C 279.29 238.33 265.17 246.68 261.11 246.68
C 258.24 246.68 254.41 242.29 254.41 239.00
C 254.41 237.91 253.32 236.34 251.98 235.50
C 249.74 234.10 249.48 234.53 248.67 241.30
C 248.18 245.32 246.86 250.05 245.71 251.82
C 241.67 258.13 200.32 308.26 197.03 310.86
C 195.13 312.35 191.77 313.49 189.28 313.49
L 184.89 313.49
L 187.01 317.10
C 188.19 319.08 190.39 321.25 191.90 321.92
C 195.80 323.63 195.96 326.72 192.63 335.60
C 188.88 345.64 177.95 357.78 170.70 359.95
C 163.70 362.06 159.48 360.32 156.19 353.96
C 153.29 348.36 151.23 347.74 150.53 352.25
C 149.71 357.64 152.83 364.87 157.15 367.57
C 161.84 370.48 165.28 370.18 173.99 366.09
M 178.44 344.90
C 182.06 340.93 185.37 336.33 185.79 334.68
C 186.39 332.29 183.15 326.52 170.57 307.48
C 135.58 254.54 117.60 220.00 104.27 180.15
C 91.52 142.01 83.92 98.69 80.89 46.90
C 80.14 34.18 78.89 22.15 78.14 20.18
C 76.30 15.47 67.14 7.71 63.41 7.71
C 58.87 7.71 51.64 14.87 49.98 20.99
C 47.13 31.57 49.69 59.19 56.55 91.86
C 79.77 202.52 104.58 263.82 156.46 338.83
C 168.88 356.76 167.85 356.48 178.44 344.90
M 191.89 305.72
C 195.15 303.15 236.42 253.13 240.60 246.68
C 241.74 244.91 243.07 239.96 243.54 235.67
L 244.42 227.86
L 170.25 167.82
C 129.47 134.79 95.79 108.06 95.43 108.44
C 93.68 110.18 104.23 155.94 111.16 176.66
C 123.26 212.90 141.14 248.16 169.94 292.61
C 179.55 307.44 180.39 308.35 184.35 308.35
C 186.65 308.35 190.05 307.17 191.89 305.72
M 278.85 227.83
C 281.02 225.34 282.63 222.77 282.41 222.12
C 281.74 220.09 89.33 64.43 88.90 65.58
C 88.67 66.17 89.43 73.43 90.57 81.70
C 92.30 94.16 93.14 97.13 95.48 99.02
C 97.02 100.27 136.16 131.88 182.43 169.27
L 266.57 237.25
L 270.72 234.80
C 273.01 233.45 276.67 230.31 278.85 227.83
M 42.94 42.08
C 41.94 26.72 41.63 26.24 27.20 16.45
C 16.31 9.06 13.35 9.01 8.97 16.11
C 6.51 20.08 6.36 21.13 7.72 24.45
C 9.21 28.05 40.04 55.25 42.62 55.25
C 43.33 55.25 43.46 49.85 42.94 42.08"/>
<path fill="#c57a36" stroke="none" d="
M 390.61 588.84
C 367.88 575.34 334.84 545.20 286.05 493.49
C 242.44 447.26 224.28 426.73 195.85 391.49
L 180.33 372.24
L 190.60 362.12
L 200.88 352.00
L 205.03 356.83
C 207.32 359.49 213.67 367.45 219.16 374.52
C 233.67 393.22 251.37 414.15 271.26 436.14
C 299.66 467.54 371.01 540.55 391.21 558.87
C 401.48 568.21 410.24 577.18 410.65 578.81
C 412.03 584.34 405.58 592.18 399.61 592.24
C 397.84 592.25 393.80 590.72 390.61 588.84"/>
<path fill="#c57a36" stroke="none" d="
M 362.80 314.63
C 320.50 280.64 285.68 252.62 285.41 252.36
C 285.14 252.12 287.89 248.66 291.51 244.69
C 295.13 240.73 298.10 236.89 298.10 236.16
C 298.10 235.44 298.91 235.16 299.89 235.53
C 302.85 236.67 448.06 355.66 450.93 359.29
C 452.38 361.14 453.58 363.44 453.58 364.41
C 453.58 367.10 444.58 376.45 441.99 376.45
C 440.73 376.45 405.08 348.63 362.80 314.63"/>
<path fill="#c57a36" stroke="none" d="
M 156.46 338.83
C 112.66 275.51 87.46 219.51 67.97 142.14
C 57.17 99.25 50.41 63.57 49.44 44.33
C 48.42 23.85 49.48 17.74 54.96 12.49
C 60.84 6.85 65.25 6.75 71.45 12.06
C 74.36 14.56 77.36 18.22 78.14 20.18
C 78.89 22.15 80.14 34.18 80.89 46.90
C 83.92 98.69 91.52 142.01 104.27 180.15
C 117.60 220.00 135.58 254.54 170.57 307.48
C 183.15 326.52 186.39 332.29 185.79 334.68
C 184.98 337.90 173.31 351.34 169.58 353.33
C 167.68 354.35 165.65 352.10 156.46 338.83"/>
<path fill="#c57a36" stroke="none" d="
M 182.43 169.27
C 136.16 131.88 97.02 100.27 95.48 99.02
C 93.14 97.13 92.30 94.16 90.57 81.70
C 89.43 73.43 88.67 66.17 88.90 65.58
C 89.33 64.43 281.74 220.09 282.41 222.12
C 283.00 223.86 275.54 231.96 270.72 234.80
L 266.57 237.25
L 182.43 169.27"/>
<path fill="#c57a36" stroke="none" d="
M 25.36 41.74
C 6.75 26.09 4.73 22.96 8.97 16.11
C 13.35 9.01 16.31 9.06 27.20 16.45
C 41.63 26.24 41.94 26.72 42.94 42.08
C 43.46 49.85 43.33 55.25 42.62 55.25
C 41.98 55.25 34.20 49.17 25.36 41.74"/>
<path fill="#e3a02b" stroke="none" d="
M 157.15 367.57
C 152.83 364.87 149.71 357.64 150.53 352.25
C 151.23 347.74 153.29 348.36 156.19 353.96
C 159.48 360.32 163.70 362.06 170.70 359.95
C 177.95 357.78 188.88 345.64 192.63 335.60
C 195.96 326.72 195.80 323.63 191.90 321.92
C 190.39 321.25 188.19 319.08 187.01 317.10
L 184.89 313.49
L 189.28 313.49
C 191.77 313.49 195.13 312.35 197.03 310.86
C 200.32 308.26 241.67 258.13 245.71 251.82
C 246.86 250.05 248.18 245.32 248.67 241.30
C 249.48 234.53 249.74 234.10 251.98 235.50
C 253.32 236.34 254.41 237.91 254.41 239.00
C 254.41 242.29 258.24 246.68 261.11 246.68
C 265.17 246.68 279.29 238.33 283.68 233.32
C 291.06 224.90 292.25 214.11 285.97 212.54
C 284.26 212.11 281.88 210.67 280.68 209.34
C 278.60 207.03 278.66 206.85 282.18 205.52
C 287.05 203.67 293.37 206.57 296.13 211.93
C 298.00 215.52 297.95 216.41 295.45 224.16
C 290.57 239.25 278.87 248.87 257.99 254.89
L 250.62 257.01
L 229.07 283.55
C 201.76 317.20 203.03 315.21 203.03 323.91
C 203.00 341.32 182.03 366.24 164.70 369.48
C 162.55 369.88 159.72 369.16 157.15 367.57"/>
</g>
</svg>
