<?xml version="1.0" encoding="UTF-8" standalone="no"?>
<!DOCTYPE svg PUBLIC "-//W3C//DTD SVG 1.1//EN"
"http://www.w3.org/Graphics/SVG/1.1/DTD/svg11.dtd">
<svg width="222px" height="600px"
xmlns="http://www.w3.org/2000/svg" version="1.1">
<g transform="translate(0000, 0000) scale(1.0000, 1.0000)">
<path fill="#000000" stroke="none" d="
M 67.20 598.10
C 59.41 594.77 55.51 587.74 49.72 566.66
C 39.58 529.75 28.48 462.07 22.82 402.60
C 21.50 388.74 19.54 369.47 18.46 359.78
C 16.50 342.24 16.48 342.16 13.04 340.73
C 7.99 338.64 3.05 332.41 1.20 325.81
C -1.81 315.06 3.70 299.84 11.82 296.47
C 15.06 295.13 15.53 294.29 16.07 288.78
C 19.62 252.91 23.39 222.13 25.87 208.80
C 34.61 161.93 51.20 110.45 68.60 76.24
L 75.91 61.88
L 71.40 45.64
C 65.58 24.73 64.68 13.81 68.29 7.97
C 71.18 3.30 79.67 -0.78 83.78 0.53
C 89.35 2.30 92.38 6.16 94.96 14.78
C 96.37 19.52 97.73 23.75 97.96 24.18
C 98.20 24.60 100.39 23.93 102.85 22.68
C 112.25 17.88 122.39 20.96 126.31 29.82
C 130.68 39.71 127.31 53.15 117.54 64.73
L 112.56 70.64
L 121.68 99.92
C 126.70 116.03 130.80 129.74 130.80 130.39
C 130.80 131.54 154.84 220.03 159.80 237.14
L 162.28 245.69
L 169.51 247.69
C 178.72 250.25 183.88 255.22 186.48 263.98
C 187.54 267.53 188.40 271.87 188.40 273.62
C 188.40 279.48 184.97 288.31 181.18 292.22
L 177.42 296.10
L 182.22 312.74
C 184.86 321.91 191.96 347.22 198.00 369.00
C 204.04 390.78 211.66 416.57 214.93 426.30
C 221.93 447.07 223.26 456.88 219.98 463.18
C 217.48 467.96 210.92 472.80 206.92 472.80
C 202.68 472.80 197.24 467.39 193.16 459.11
C 190.06 452.80 175.20 403.63 151.03 319.67
L 146.15 302.72
L 139.72 301.28
C 136.18 300.49 132.11 298.91 130.69 297.76
C 128.20 295.73 127.28 295.96 102.76 304.54
C 88.81 309.41 75.50 314.09 73.20 314.92
C 69.02 316.43 68.18 317.80 66.55 325.80
C 66.12 327.97 63.41 331.67 59.72 335.15
L 53.63 340.88
L 55.58 360.95
C 56.66 371.98 58.13 387.74 58.85 396.00
C 62.26 434.82 71.58 495.13 82.25 547.20
C 90.82 589.01 90.56 593.70 79.54 598.37
C 74.70 600.42 72.48 600.37 67.20 598.10
M 80.10 589.56
C 82.51 586.32 81.96 581.76 75.08 548.30
C 64.80 498.25 55.94 441.31 52.22 401.40
C 48.73 363.78 46.64 343.85 46.15 343.36
C 45.89 343.09 43.27 343.54 40.33 344.36
C 37.39 345.18 32.52 345.66 29.50 345.42
C 26.30 345.17 24.01 345.49 24.02 346.19
C 24.04 346.86 24.58 351.02 25.21 355.45
C 25.85 359.89 27.48 375.28 28.82 389.65
C 34.91 454.91 43.76 512.88 53.89 553.85
C 59.98 578.47 62.77 585.89 67.49 589.86
C 70.42 592.33 72.04 592.86 74.92 592.30
C 76.94 591.89 79.27 590.66 80.10 589.56
M 211.99 462.30
C 214.74 459.35 214.99 458.28 214.45 452.24
C 214.13 448.52 211.38 438.26 208.36 429.44
C 205.34 420.61 197.76 395.32 191.53 373.20
C 179.60 330.89 170.88 301.28 170.14 300.54
C 169.74 300.14 155.80 303.44 155.11 304.10
C 154.31 304.88 193.25 440.22 197.50 451.39
C 200.47 459.24 205.00 465.60 207.60 465.60
C 208.32 465.60 210.30 464.11 211.99 462.30
M 39.10 338.92
C 51.41 335.34 62.40 325.49 62.40 318.05
C 62.40 316.30 63.07 313.99 63.90 312.95
C 64.73 311.89 76.46 307.19 90.00 302.51
C 103.54 297.82 117.31 292.91 120.62 291.59
C 123.94 290.28 127.24 289.20 127.96 289.20
C 128.68 289.20 132.66 290.95 136.82 293.10
C 143.17 296.38 145.67 296.99 152.29 296.95
C 175.36 296.80 189.40 277.72 178.43 261.43
C 175.81 257.56 166.12 251.08 164.84 252.36
C 163.92 253.28 167.87 260.47 171.77 264.94
C 178.22 272.35 175.66 282.23 166.10 286.72
C 158.02 290.52 150.01 291.19 143.30 288.62
C 135.14 285.52 131.04 277.49 134.39 271.22
C 135.68 268.80 134.72 261.60 133.10 261.60
C 131.39 261.60 126.00 271.85 126.00 275.12
C 126.00 276.83 125.23 279.00 124.28 279.95
C 122.82 281.41 71.51 299.77 62.75 301.97
C 60.72 302.48 58.68 301.87 56.18 300.02
L 52.55 297.35
L 53.35 303.77
C 53.80 307.31 54.26 313.04 54.38 316.51
C 54.58 322.20 54.24 323.12 51.00 325.80
C 46.78 329.28 37.39 332.40 31.18 332.40
C 25.68 332.40 16.68 327.76 14.71 323.90
C 13.72 321.95 13.45 317.87 13.90 311.40
L 14.56 301.80
L 11.46 305.40
C 1.18 317.35 6.17 331.64 22.80 337.79
C 32.26 341.29 31.20 341.22 39.10 338.92
M 43.52 322.96
C 44.21 322.27 44.84 310.85 45.04 296.18
C 45.48 262.31 49.67 226.69 57.07 193.80
C 62.92 167.87 73.45 132.35 79.87 116.90
C 83.46 108.28 86.40 100.68 86.40 100.04
C 86.40 98.09 105.05 68.82 111.61 60.47
C 122.94 46.07 124.52 32.66 115.37 28.87
C 107.03 25.42 98.38 32.10 90.37 48.20
C 65.68 97.87 58.22 115.60 47.62 150.00
C 33.28 196.44 23.92 255.53 23.57 301.80
L 23.40 323.40
L 27.42 325.40
C 30.97 327.18 32.06 327.23 36.90 325.78
C 39.90 324.86 42.88 323.60 43.52 322.96
M 117.08 277.20
C 118.58 277.20 121.20 272.83 121.20 270.32
C 121.20 266.21 126.59 257.16 129.60 256.20
C 132.48 255.29 132.61 252.83 130.14 245.86
C 129.11 242.96 123.42 223.58 117.48 202.80
C 111.54 182.02 104.08 157.16 100.90 147.60
C 97.72 138.04 94.12 126.29 92.89 121.50
C 91.67 116.71 90.32 112.80 89.89 112.80
C 86.86 112.80 69.79 168.53 62.95 200.82
C 59.12 218.88 54.32 252.42 53.41 267.60
C 53.03 273.86 52.45 281.52 52.13 284.59
C 51.55 290.14 51.60 290.22 56.68 293.09
L 61.80 295.99
L 89.27 286.60
C 104.38 281.42 116.89 277.20 117.08 277.20
M 161.10 282.16
C 162.91 281.45 164.40 280.48 164.40 280.01
C 164.40 279.54 162.53 272.92 160.24 265.28
C 157.94 257.65 148.80 224.94 139.92 192.60
C 124.66 137.05 108.70 83.29 106.90 81.30
C 105.78 80.06 95.74 97.94 95.72 101.18
C 95.71 104.00 107.29 145.44 109.21 149.40
C 109.85 150.72 116.28 172.32 123.52 197.40
C 130.74 222.48 138.08 247.58 139.82 253.20
C 141.56 258.82 144.34 267.98 145.99 273.59
C 147.65 279.20 149.57 284.14 150.26 284.57
C 151.52 285.34 154.93 284.59 161.10 282.16
M 89.95 34.06
C 91.37 31.84 91.21 30.19 88.70 21.53
C 87.12 16.04 84.94 10.46 83.86 9.12
C 79.92 4.27 73.25 10.43 73.16 18.98
C 73.15 20.75 74.89 28.50 77.04 36.20
L 80.94 50.22
L 84.62 43.40
C 86.65 39.66 89.05 35.45 89.95 34.06"/>
<path fill="#c57a36" stroke="none" d="
M 67.49 589.86
C 62.77 585.89 59.98 578.47 53.89 553.85
C 43.76 512.88 34.91 454.91 28.82 389.65
C 27.48 375.28 25.85 359.89 25.21 355.45
C 24.58 351.02 24.04 346.86 24.02 346.19
C 24.01 345.49 26.30 345.17 29.50 345.42
C 32.52 345.66 37.39 345.18 40.33 344.36
C 43.27 343.54 45.89 343.09 46.15 343.36
C 46.64 343.85 48.73 363.78 52.22 401.40
C 55.94 441.31 64.80 498.25 75.08 548.30
C 78.67 565.74 81.60 581.71 81.60 583.78
C 81.60 588.68 79.48 591.40 74.92 592.30
C 72.04 592.86 70.42 592.33 67.49 589.86"/>
<path fill="#c57a36" stroke="none" d="
M 203.41 462.49
C 201.83 460.79 199.16 455.80 197.50 451.39
C 193.25 440.22 154.31 304.88 155.11 304.10
C 155.80 303.44 169.74 300.14 170.14 300.54
C 170.88 301.28 179.60 330.89 191.53 373.20
C 197.76 395.32 205.34 420.61 208.36 429.44
C 211.38 438.26 214.13 448.52 214.45 452.24
C 214.99 458.28 214.74 459.35 211.99 462.30
C 208.19 466.38 207.04 466.42 203.41 462.49"/>
<path fill="#c57a36" stroke="none" d="
M 27.42 325.40
L 23.40 323.40
L 23.57 301.80
C 23.92 255.53 33.28 196.44 47.62 150.00
C 58.22 115.60 65.68 97.87 90.37 48.20
C 98.38 32.10 107.03 25.42 115.37 28.87
C 124.52 32.66 122.94 46.07 111.61 60.47
C 105.05 68.82 86.40 98.09 86.40 100.04
C 86.40 100.68 83.46 108.28 79.87 116.90
C 73.45 132.35 62.92 167.87 57.07 193.80
C 49.67 226.69 45.48 262.31 45.04 296.18
C 44.84 310.85 44.21 322.27 43.52 322.96
C 42.88 323.60 39.90 324.86 36.90 325.78
C 32.06 327.23 30.97 327.18 27.42 325.40"/>
<path fill="#c57a36" stroke="none" d="
M 150.26 284.57
C 149.57 284.14 147.65 279.20 145.99 273.59
C 144.34 267.98 141.56 258.82 139.82 253.20
C 138.08 247.58 130.74 222.48 123.52 197.40
C 116.28 172.32 109.85 150.72 109.21 149.40
C 107.29 145.44 95.71 104.00 95.72 101.18
C 95.74 97.94 105.78 80.06 106.90 81.30
C 108.70 83.29 124.66 137.05 139.92 192.60
C 148.80 224.94 157.94 257.65 160.24 265.28
C 162.53 272.92 164.40 279.54 164.40 280.01
C 164.40 281.74 152.10 285.70 150.26 284.57"/>
<path fill="#c57a36" stroke="none" d="
M 77.04 36.20
C 71.72 17.15 72.14 10.86 78.86 8.30
C 83.35 6.60 85.06 8.88 88.70 21.53
C 91.21 30.19 91.37 31.84 89.95 34.06
C 89.05 35.45 86.65 39.66 84.62 43.40
L 80.94 50.22
L 77.04 36.20"/>
<path fill="#e3a437" stroke="none" d="
M 22.80 337.79
C 6.17 331.64 1.18 317.35 11.46 305.40
L 14.56 301.80
L 13.90 311.40
C 13.45 317.87 13.72 321.95 14.71 323.90
C 16.68 327.76 25.68 332.40 31.18 332.40
C 37.39 332.40 46.78 329.28 51.00 325.80
C 54.24 323.12 54.58 322.20 54.38 316.51
C 54.26 313.04 53.80 307.31 53.35 303.77
L 52.55 297.35
L 56.18 300.02
C 58.68 301.87 60.72 302.48 62.75 301.97
C 71.51 299.77 122.82 281.41 124.28 279.95
C 125.23 279.00 126.00 276.83 126.00 275.12
C 126.00 271.85 131.39 261.60 133.10 261.60
C 134.72 261.60 135.68 268.80 134.39 271.22
C 129.20 280.91 140.82 291.68 154.67 290.04
C 172.24 287.96 180.83 275.34 171.77 264.94
C 167.51 260.06 164.09 253.54 165.36 252.74
C 167.11 251.66 175.69 257.38 178.44 261.46
C 189.40 277.72 175.34 296.80 152.29 296.95
C 145.67 296.99 143.17 296.38 136.82 293.10
C 132.66 290.95 128.68 289.20 127.96 289.20
C 127.24 289.20 123.94 290.28 120.62 291.59
C 117.31 292.91 103.54 297.82 90.00 302.51
C 76.46 307.19 64.73 311.89 63.90 312.95
C 63.07 313.99 62.40 316.30 62.40 318.05
C 62.40 325.49 51.41 335.34 39.10 338.92
C 31.20 341.22 32.26 341.29 22.80 337.79"/>
</g>
</svg>
