<?xml version="1.0" encoding="UTF-8" standalone="no"?>
<!DOCTYPE svg PUBLIC "-//W3C//DTD SVG 1.1//EN"
"http://www.w3.org/Graphics/SVG/1.1/DTD/svg11.dtd">
<svg width="222px" height="600px"
xmlns="http://www.w3.org/2000/svg" version="1.1">
<g transform="translate(0000, 0000) scale(1.0000, 1.0000)">
<path fill="#000000" stroke="none" d="
M 142.20 598.32
C 131.46 593.58 131.23 588.79 139.75 547.20
C 150.42 495.13 159.74 434.82 163.15 396.00
C 163.87 387.74 165.34 371.98 166.42 360.95
L 168.37 340.88
L 162.28 335.15
C 158.59 331.67 155.88 327.97 155.45 325.80
C 153.82 317.80 152.98 316.43 148.80 314.92
C 146.50 314.09 133.19 309.41 119.24 304.54
C 94.72 295.96 93.80 295.73 91.31 297.76
C 89.89 298.91 85.82 300.49 82.28 301.28
L 75.85 302.72
L 70.97 319.67
C 46.80 403.63 31.94 452.80 28.84 459.11
C 24.76 467.39 19.32 472.80 15.08 472.80
C 11.08 472.80 4.52 467.96 2.02 463.18
C -1.26 456.88 0.07 447.07 7.07 426.30
C 10.34 416.57 17.96 390.78 24.00 369.00
C 30.04 347.22 37.14 321.91 39.78 312.74
L 44.58 296.10
L 40.82 292.22
C 37.03 288.31 33.60 279.48 33.60 273.62
C 33.60 271.87 34.46 267.53 35.52 263.98
C 38.12 255.22 43.28 250.25 52.49 247.69
L 59.72 245.69
L 62.20 237.14
C 67.16 220.03 91.20 131.54 91.20 130.39
C 91.20 129.74 95.30 116.03 100.32 99.92
L 109.44 70.64
L 104.46 64.73
C 94.69 53.15 91.32 39.71 95.69 29.82
C 99.61 20.96 109.75 17.88 119.15 22.68
C 121.61 23.93 123.80 24.60 124.04 24.18
C 124.27 23.75 125.63 19.52 127.04 14.78
C 130.88 1.92 138.00 -2.50 147.26 2.23
C 157.62 7.51 158.39 17.53 150.59 45.64
L 146.09 61.88
L 153.40 76.24
C 170.80 110.45 187.39 161.93 196.13 208.80
C 198.61 222.13 202.38 252.91 205.93 288.78
C 206.47 294.29 206.94 295.13 210.18 296.47
C 218.30 299.84 223.81 315.06 220.80 325.81
C 218.95 332.41 214.01 338.64 208.96 340.73
C 205.52 342.16 205.50 342.24 203.54 359.78
C 202.46 369.47 200.47 389.02 199.10 403.20
C 194.11 455.51 185.16 513.42 176.29 550.80
C 168.38 584.16 163.67 594.52 154.74 598.08
C 149.02 600.37 146.95 600.41 142.20 598.32
M 154.64 589.75
C 159.22 585.90 162.08 578.26 168.11 553.85
C 178.24 512.88 187.09 454.91 193.18 389.65
C 194.52 375.28 196.15 359.89 196.79 355.45
C 197.42 351.02 197.96 346.86 197.98 346.19
C 197.99 345.49 195.70 345.17 192.50 345.42
C 189.48 345.66 184.61 345.18 181.67 344.36
C 178.73 343.54 176.11 343.09 175.85 343.36
C 175.36 343.85 173.27 363.78 169.78 401.40
C 166.06 441.31 157.20 498.25 146.92 548.30
C 143.33 565.74 140.40 581.71 140.40 583.78
C 140.40 592.21 147.96 595.38 154.64 589.75
M 18.59 462.49
C 20.17 460.79 22.84 455.80 24.50 451.39
C 28.75 440.22 67.69 304.88 66.89 304.10
C 66.20 303.44 52.26 300.14 51.86 300.54
C 51.12 301.28 42.40 330.89 30.47 373.20
C 24.24 395.32 16.66 420.61 13.64 429.44
C 10.62 438.26 7.87 448.52 7.55 452.24
C 7.01 458.28 7.26 459.35 10.01 462.30
C 13.81 466.38 14.96 466.42 18.59 462.49
M 200.66 337.22
C 215.90 331.52 220.44 316.91 210.54 305.40
L 207.44 301.80
L 208.10 311.40
C 208.55 317.87 208.28 321.95 207.29 323.90
C 205.32 327.76 196.32 332.40 190.82 332.40
C 184.61 332.40 175.22 329.28 171.00 325.80
C 167.76 323.12 167.42 322.20 167.62 316.51
C 167.74 313.04 168.20 307.31 168.65 303.77
L 169.45 297.35
L 165.82 300.02
C 163.32 301.87 161.28 302.48 159.25 301.97
C 150.49 299.77 99.18 281.41 97.72 279.95
C 96.77 279.00 96.00 276.83 96.00 275.12
C 96.00 271.85 90.61 261.60 88.90 261.60
C 87.28 261.60 86.32 268.80 87.61 271.22
C 92.80 280.91 81.18 291.68 67.33 290.04
C 49.76 287.96 41.17 275.34 50.23 264.94
C 54.13 260.47 58.08 253.28 57.16 252.36
C 55.88 251.08 46.19 257.56 43.57 261.43
C 32.60 277.72 46.64 296.80 69.71 296.95
C 76.33 296.99 78.83 296.38 85.18 293.10
C 89.34 290.95 93.32 289.20 94.04 289.20
C 94.76 289.20 98.06 290.28 101.38 291.59
C 104.69 292.91 118.46 297.82 132.00 302.51
C 145.54 307.19 157.27 311.89 158.10 312.95
C 158.93 313.99 159.60 316.30 159.60 318.05
C 159.60 325.20 169.27 334.28 181.34 338.48
C 188.60 341.00 190.98 340.85 200.66 337.22
M 198.11 323.27
C 201.36 319.36 197.08 259.09 190.74 219.60
C 183.13 172.19 167.21 121.31 146.78 79.20
C 128.98 42.48 126.74 38.29 122.77 34.21
C 112.88 24.02 100.80 26.95 100.80 39.53
C 100.80 45.34 104.02 52.37 110.39 60.47
C 116.95 68.82 135.60 98.09 135.60 100.04
C 135.60 100.68 138.54 108.28 142.13 116.90
C 148.55 132.35 159.08 167.87 164.93 193.80
C 172.32 226.62 176.52 262.31 176.96 295.97
C 177.14 309.91 177.66 321.92 178.10 322.64
C 178.55 323.36 181.45 324.71 184.56 325.61
C 190.57 327.37 195.40 326.53 198.11 323.27
M 169.87 284.58
C 169.55 281.51 168.97 273.86 168.59 267.60
C 167.68 252.42 162.88 218.88 159.05 200.82
C 152.21 168.53 135.14 112.80 132.11 112.80
C 131.68 112.80 130.33 116.71 129.11 121.50
C 127.88 126.29 124.28 138.04 121.10 147.60
C 117.92 157.16 110.46 182.02 104.52 202.80
C 98.58 223.58 92.89 242.96 91.86 245.86
C 89.39 252.83 89.52 255.29 92.40 256.20
C 95.33 257.14 100.79 266.15 100.82 270.11
C 100.82 271.69 101.32 273.76 101.89 274.67
C 102.48 275.59 115.76 280.78 131.44 286.20
L 159.91 296.05
L 165.18 293.11
C 170.42 290.18 170.45 290.14 169.87 284.58
M 75.97 273.83
C 77.64 268.09 80.44 258.82 82.18 253.20
C 83.92 247.58 91.26 222.48 98.48 197.40
C 105.72 172.32 112.15 150.72 112.79 149.40
C 114.71 145.44 126.29 104.00 126.28 101.18
C 126.26 97.94 116.22 80.06 115.10 81.30
C 113.30 83.29 97.34 137.05 82.08 192.60
C 73.20 224.94 64.01 257.81 61.66 265.63
C 59.30 273.46 57.84 280.30 58.39 280.81
C 60.02 282.36 69.98 285.37 71.52 284.78
C 72.29 284.50 74.29 279.55 75.97 273.83
M 148.76 19.58
C 148.81 13.88 146.83 9.74 143.28 8.12
C 140.53 6.88 139.86 7.01 138.14 9.12
C 137.06 10.46 134.88 16.04 133.30 21.52
C 130.55 31.02 130.51 31.63 132.46 34.64
C 133.58 36.38 135.94 40.64 137.70 44.11
L 140.90 50.41
L 144.82 36.91
C 146.98 29.48 148.75 21.68 148.76 19.58"/>
<path fill="#c57a36" stroke="none" d="
M 145.20 591.97
C 142.24 590.90 140.40 587.77 140.40 583.78
C 140.40 581.71 143.33 565.74 146.92 548.30
C 157.20 498.25 166.06 441.31 169.78 401.40
C 173.27 363.78 175.36 343.85 175.85 343.36
C 176.11 343.09 178.73 343.54 181.67 344.36
C 184.61 345.18 189.48 345.66 192.50 345.42
C 195.70 345.17 197.99 345.49 197.98 346.19
C 197.96 346.86 197.42 351.02 196.79 355.45
C 196.15 359.89 194.52 375.28 193.18 389.65
C 187.09 454.91 178.24 512.88 168.11 553.85
C 162.08 578.26 159.22 585.90 154.64 589.75
C 151.09 592.73 148.84 593.27 145.20 591.97"/>
<path fill="#c57a36" stroke="none" d="
M 10.01 462.30
C 7.26 459.35 7.01 458.28 7.55 452.24
C 7.87 448.52 10.62 438.26 13.64 429.44
C 16.66 420.61 24.24 395.32 30.47 373.20
C 42.40 330.89 51.12 301.28 51.86 300.54
C 52.26 300.14 66.20 303.44 66.89 304.10
C 67.69 304.88 28.75 440.22 24.50 451.39
C 21.53 459.24 17.00 465.60 14.40 465.60
C 13.68 465.60 11.70 464.11 10.01 462.30"/>
<path fill="#c57a36" stroke="none" d="
M 184.56 325.61
C 181.45 324.71 178.55 323.36 178.10 322.64
C 177.66 321.92 177.14 309.91 176.96 295.97
C 176.52 262.31 172.32 226.62 164.93 193.80
C 159.08 167.87 148.55 132.35 142.13 116.90
C 138.54 108.28 135.60 100.68 135.60 100.04
C 135.60 98.09 116.95 68.82 110.39 60.47
C 104.02 52.37 100.80 45.34 100.80 39.53
C 100.80 26.95 112.88 24.02 122.77 34.21
C 126.74 38.29 128.98 42.48 146.78 79.20
C 167.21 121.31 183.13 172.19 190.74 219.60
C 197.08 259.09 201.36 319.36 198.11 323.27
C 195.40 326.53 190.57 327.37 184.56 325.61"/>
<path fill="#c57a36" stroke="none" d="
M 64.75 283.55
C 61.81 282.56 58.94 281.34 58.39 280.81
C 57.84 280.30 59.30 273.46 61.66 265.63
C 64.01 257.81 73.20 224.94 82.08 192.60
C 97.34 137.05 113.30 83.29 115.10 81.30
C 116.22 80.06 126.26 97.94 126.28 101.18
C 126.29 104.00 114.71 145.44 112.79 149.40
C 112.15 150.72 105.72 172.32 98.48 197.40
C 91.26 222.48 83.92 247.58 82.18 253.20
C 80.44 258.82 77.64 268.09 75.97 273.83
C 74.29 279.55 72.29 284.50 71.52 284.78
C 70.74 285.08 67.70 284.53 64.75 283.55"/>
<path fill="#c57a36" stroke="none" d="
M 137.70 44.11
C 135.94 40.64 133.58 36.38 132.46 34.64
C 130.51 31.63 130.55 31.02 133.31 21.44
C 135.98 12.18 138.83 7.20 141.47 7.20
C 142.06 7.20 143.75 8.18 145.22 9.37
C 149.65 12.96 149.56 21.05 144.89 36.91
L 140.90 50.41
L 137.70 44.11"/>
<path fill="#e3a437" stroke="none" d="
M 181.34 338.48
C 169.27 334.28 159.60 325.20 159.60 318.05
C 159.60 316.30 158.93 313.99 158.10 312.95
C 157.27 311.89 145.54 307.19 132.00 302.51
C 118.46 297.82 104.69 292.91 101.38 291.59
C 98.06 290.28 94.76 289.20 94.04 289.20
C 93.32 289.20 89.34 290.95 85.18 293.10
C 78.83 296.38 76.33 296.99 69.71 296.95
C 46.66 296.80 32.66 277.80 43.54 261.43
C 45.91 257.87 56.08 251.27 57.31 252.50
C 58.10 253.31 53.84 260.80 50.23 264.94
C 43.78 272.35 46.34 282.23 55.90 286.72
C 63.98 290.52 71.99 291.19 78.70 288.62
C 86.86 285.52 90.96 277.49 87.61 271.22
C 86.32 268.80 87.28 261.60 88.90 261.60
C 90.61 261.60 96.00 271.85 96.00 275.12
C 96.00 276.83 96.77 279.00 97.72 279.95
C 99.18 281.41 150.49 299.77 159.25 301.97
C 161.28 302.48 163.32 301.87 165.82 300.02
L 169.45 297.35
L 168.65 303.77
C 168.20 307.31 167.74 313.04 167.62 316.51
C 167.42 322.20 167.76 323.12 171.00 325.80
C 175.22 329.28 184.61 332.40 190.82 332.40
C 196.32 332.40 205.32 327.76 207.29 323.90
C 208.28 321.95 208.55 317.87 208.10 311.40
L 207.44 301.80
L 210.54 305.40
C 220.44 316.91 215.90 331.52 200.66 337.22
C 190.98 340.85 188.60 341.00 181.34 338.48"/>
</g>
</svg>
