<?xml version="1.0" encoding="UTF-8" standalone="no"?>
<!DOCTYPE svg PUBLIC "-//W3C//DTD SVG 1.1//EN"
"http://www.w3.org/Graphics/SVG/1.1/DTD/svg11.dtd">
<svg width="600px" height="230px"
xmlns="http://www.w3.org/2000/svg" version="1.1">
<g transform="translate(0000, 0000) scale(1.0000, 1.0000)">
<path fill="#000000" stroke="none" d="
M 537.50 228.77
C 507.24 227.49 433.35 219.51 400.00 213.95
C 390.50 212.36 375.51 209.88 366.67 208.45
C 357.82 207.01 344.99 204.58 338.14 203.03
L 325.69 200.22
L 322.05 203.76
C 318.42 207.29 306.71 212.12 301.83 212.12
C 300.43 212.12 295.95 211.00 291.89 209.63
C 283.15 206.68 278.32 201.60 275.37 192.25
L 273.43 186.06
L 260.82 181.81
C 233.55 172.62 199.11 157.14 170.83 141.37
C 136.37 122.15 92.96 90.95 68.74 68.00
L 58.61 58.39
L 35.56 58.39
C 8.92 58.38 6.71 57.71 2.12 48.25
C -0.33 43.19 -0.39 42.52 1.24 37.81
C 2.70 33.56 3.98 32.26 9.44 29.49
C 14.63 26.86 17.52 26.22 24.11 26.22
C 32.11 26.22 32.27 26.15 31.33 23.54
C 30.80 22.06 30.36 18.34 30.37 15.28
C 30.37 8.07 33.65 3.52 40.45 1.32
C 44.99 -0.14 46.32 -0.10 52.14 1.74
C 57.61 3.47 60.65 5.70 70.24 15.02
L 81.77 26.22
L 179.99 26.22
L 278.21 26.22
L 280.32 21.53
C 283.11 15.35 287.57 11.23 293.92 8.99
C 300.49 6.66 304.13 6.67 311.06 9.03
C 317.01 11.07 323.26 17.15 325.24 22.83
L 326.43 26.22
L 412.45 26.22
C 497.89 26.22 498.51 26.23 501.65 28.71
C 508.55 34.13 510.64 45.61 505.85 51.71
C 500.38 58.66 504.07 58.39 411.39 58.39
L 326.24 58.39
L 323.95 62.86
C 322.69 65.32 319.19 69.54 316.19 72.23
L 310.71 77.14
L 310.71 107.50
L 310.71 137.88
L 315.37 139.70
C 321.02 141.93 326.87 149.55 327.98 156.14
C 328.83 161.21 327.73 160.59 342.86 164.50
C 353.58 167.27 421.54 180.34 438.60 182.90
C 479.88 189.14 532.17 194.49 559.55 195.31
C 583.48 196.01 586.81 196.36 590.50 198.52
C 602.90 205.77 602.88 221.66 590.45 227.91
C 585.92 230.19 574.99 230.37 537.50 228.77
M 586.88 221.96
C 589.15 220.81 591.83 218.39 592.83 216.59
C 594.45 213.67 594.45 212.97 592.85 210.10
C 591.86 208.33 589.18 205.78 586.89 204.44
C 583.19 202.27 579.94 201.92 557.14 201.23
C 523.61 200.21 456.65 192.75 413.10 185.18
C 378.63 179.20 368.12 177.21 350.04 173.25
C 339.92 171.03 331.55 169.22 331.45 169.22
C 331.35 169.22 330.94 173.11 330.54 177.86
C 330.13 182.62 329.48 188.16 329.08 190.18
L 328.36 193.86
L 354.95 198.88
C 369.58 201.65 386.90 204.95 393.45 206.21
C 419.18 211.21 434.14 213.11 495.24 219.20
C 532.89 222.96 539.76 223.40 566.67 223.80
C 579.93 223.99 583.46 223.67 586.88 221.96
M 308.73 204.26
C 316.94 201.46 321.64 195.33 324.32 183.98
C 326.42 175.09 326.42 174.45 324.33 165.31
C 321.71 153.87 317.25 147.08 310.61 144.47
L 305.95 142.65
L 305.95 107.65
L 305.95 72.65
L 312.30 66.41
C 317.60 61.22 319.11 58.73 321.42 51.42
C 324.15 42.75 324.17 42.57 322.14 33.98
C 317.40 13.87 300.75 6.80 289.15 19.97
L 285.24 24.43
L 289.06 24.80
C 291.56 25.05 293.96 24.33 296.01 22.71
C 301.00 18.79 305.61 19.50 310.83 25.01
C 318.40 32.97 319.74 42.22 314.77 52.20
C 309.81 62.17 302.77 65.82 296.95 61.41
C 294.49 59.54 286.90 58.92 286.90 60.59
C 286.90 61.13 289.58 64.02 292.86 66.99
L 298.81 72.40
L 298.79 106.21
C 298.79 124.81 298.38 140.63 297.89 141.38
C 297.42 142.12 295.01 143.58 292.56 144.60
C 290.11 145.63 288.10 146.97 288.10 147.59
C 288.10 149.55 294.64 151.12 300.17 150.50
C 304.69 149.99 306.04 150.38 309.33 153.16
C 320.90 162.91 321.64 181.20 310.93 192.82
C 307.19 196.87 305.52 197.82 302.13 197.82
C 299.79 197.82 296.64 196.81 295.00 195.51
C 291.43 192.70 282.31 188.92 281.36 189.86
C 280.52 190.71 284.85 197.86 287.83 200.56
C 290.17 202.67 298.12 205.94 301.27 206.08
C 302.31 206.13 305.65 205.31 308.73 204.26
M 311.48 180.28
C 313.57 175.32 313.52 171.13 311.32 166.88
C 309.48 163.29 303.87 161.04 290.32 158.47
C 286.94 157.83 283.57 156.84 282.86 156.27
C 282.13 155.71 277.00 153.77 271.43 151.95
C 265.86 150.16 259.70 147.96 257.74 147.09
C 255.77 146.22 246.67 142.60 237.50 139.05
C 200.96 124.87 178.86 113.49 148.31 93.10
C 124.73 77.34 108.54 63.57 77.37 32.72
C 56.77 12.33 52.26 8.43 48.50 7.72
C 43.39 6.76 38.81 9.06 36.74 13.60
C 34.26 19.04 41.46 29.15 66.07 54.66
C 99.10 88.93 150.86 124.81 205.36 151.25
C 235.38 165.81 260.17 175.25 291.67 184.11
C 307.01 188.42 308.13 188.21 311.48 180.28
M 282.69 144.29
C 283.79 142.17 286.07 140.30 288.56 139.47
C 290.81 138.73 292.96 137.30 293.35 136.30
C 293.74 135.29 294.05 121.63 294.05 105.94
L 294.05 77.41
L 287.60 71.15
C 284.04 67.70 280.76 63.42 280.32 61.64
L 279.50 58.39
L 197.49 58.39
L 115.46 58.39
L 124.69 66.50
C 148.61 87.50 191.10 112.74 228.57 128.22
C 238.86 132.46 278.74 147.41 280.62 147.72
C 280.77 147.75 281.70 146.21 282.69 144.29
M 44.61 42.31
L 35.42 32.18
L 28.64 32.18
C 15.81 32.18 5.76 37.85 7.70 43.99
C 8.12 45.30 10.08 47.74 12.06 49.41
C 15.58 52.38 16.04 52.44 34.73 52.44
L 53.80 52.44
L 44.61 42.31
M 309.20 49.21
C 311.70 45.38 311.98 36.92 309.68 34.14
C 308.18 32.34 298.89 32.18 197.80 32.18
L 87.55 32.18
L 97.62 42.31
L 107.69 52.44
L 207.38 52.44
L 307.08 52.44
L 309.20 49.21
M 497.21 50.14
C 501.79 47.33 503.06 43.85 501.18 39.30
C 498.10 31.84 502.26 32.18 410.86 32.18
L 327.57 32.18
L 328.79 36.57
C 329.96 40.84 329.64 46.06 327.95 50.35
C 327.17 52.33 331.56 52.44 410.29 52.44
C 490.31 52.42 493.60 52.34 497.21 50.14"/>
<path fill="#c57a36" stroke="none" d="
M 541.07 223.20
C 531.69 222.83 473.68 217.26 443.45 213.83
C 425.39 211.77 410.08 209.44 393.45 206.21
C 386.90 204.95 369.58 201.65 354.95 198.88
L 328.36 193.86
L 329.08 190.18
C 329.48 188.16 330.13 182.62 330.54 177.86
C 330.94 173.11 331.35 169.22 331.45 169.22
C 331.55 169.22 339.92 171.03 350.04 173.25
C 368.12 177.21 378.63 179.20 413.10 185.18
C 456.65 192.75 523.61 200.21 557.14 201.23
C 579.94 201.92 583.19 202.27 586.89 204.44
C 589.18 205.78 591.86 208.33 592.85 210.10
C 594.45 212.97 594.45 213.67 592.83 216.59
C 591.83 218.39 589.15 220.81 586.88 221.96
C 582.71 224.05 571.27 224.36 541.07 223.20"/>
<path fill="#c57a36" stroke="none" d="
M 291.67 184.11
C 260.17 175.25 235.38 165.81 205.36 151.25
C 150.89 124.83 99.24 89.01 66.04 54.66
C 49.40 37.44 40.26 26.48 37.63 20.59
C 35.51 15.85 35.50 15.40 37.40 12.50
C 38.50 10.81 40.81 8.89 42.54 8.23
C 49.21 5.70 51.96 7.63 77.38 32.76
C 108.60 63.61 124.76 77.37 148.31 93.10
C 178.86 113.49 200.96 124.87 237.50 139.05
C 246.67 142.60 255.77 146.22 257.74 147.09
C 259.70 147.96 265.86 150.16 271.43 151.95
C 277.00 153.77 282.13 155.71 282.86 156.27
C 283.57 156.84 286.94 157.83 290.32 158.47
C 303.87 161.04 309.48 163.29 311.32 166.88
C 314.42 172.86 312.70 181.69 307.61 186.04
C 305.52 187.81 304.35 187.67 291.67 184.11"/>
<path fill="#c57a36" stroke="none" d="
M 12.06 49.41
C 10.08 47.74 8.12 45.30 7.70 43.99
C 5.76 37.85 15.81 32.18 28.64 32.18
L 35.42 32.18
L 44.61 42.31
L 53.80 52.44
L 34.73 52.44
C 16.04 52.44 15.58 52.38 12.06 49.41"/>
<path fill="#c57a36" stroke="none" d="
M 97.62 42.31
L 87.55 32.18
L 197.80 32.18
C 298.89 32.18 308.18 32.34 309.68 34.14
C 311.98 36.92 311.70 45.38 309.20 49.21
L 307.08 52.44
L 207.38 52.44
L 107.69 52.44
L 97.62 42.31"/>
<path fill="#c57a36" stroke="none" d="
M 327.95 50.35
C 329.64 46.06 329.96 40.84 328.79 36.57
L 327.57 32.18
L 410.86 32.18
C 502.26 32.18 498.10 31.84 501.18 39.30
C 503.06 43.85 501.79 47.33 497.21 50.14
C 493.60 52.34 490.31 52.42 410.29 52.44
C 331.56 52.44 327.17 52.33 327.95 50.35"/>
<path fill="#e3a02b" stroke="none" d="
M 294.73 204.28
C 292.14 203.34 289.05 201.66 287.83 200.56
C 284.85 197.86 280.52 190.71 281.36 189.86
C 282.31 188.92 291.43 192.70 295.00 195.51
C 296.64 196.81 299.79 197.82 302.13 197.82
C 305.52 197.82 307.19 196.87 310.93 192.82
C 321.64 181.20 320.90 162.91 309.33 153.16
C 306.04 150.38 304.69 149.99 300.17 150.50
C 294.64 151.12 288.10 149.55 288.10 147.59
C 288.10 146.97 290.11 145.63 292.56 144.60
C 295.01 143.58 297.42 142.12 297.89 141.38
C 298.38 140.63 298.79 124.81 298.79 106.21
L 298.81 72.40
L 292.86 66.99
C 289.58 64.02 286.90 61.13 286.90 60.59
C 286.90 58.92 294.49 59.54 296.95 61.41
C 302.77 65.82 309.81 62.17 314.77 52.20
C 319.74 42.22 318.40 32.97 310.83 25.01
C 305.61 19.50 301.00 18.79 296.01 22.71
C 293.96 24.33 291.56 25.05 289.06 24.80
L 285.24 24.43
L 289.15 19.97
C 300.69 6.86 317.43 13.97 322.14 33.98
C 324.17 42.57 324.15 42.75 321.42 51.42
C 319.11 58.73 317.60 61.22 312.30 66.41
L 305.95 72.65
L 305.95 107.65
L 305.95 142.65
L 310.61 144.47
C 317.25 147.08 321.71 153.87 324.33 165.31
C 326.42 174.45 326.42 175.09 324.32 183.98
C 321.64 195.33 316.94 201.46 308.73 204.26
C 302.10 206.52 300.85 206.52 294.73 204.28"/>
</g>
</svg>
