<?xml version="1.0" encoding="UTF-8" standalone="no"?>
<!DOCTYPE svg PUBLIC "-//W3C//DTD SVG 1.1//EN"
"http://www.w3.org/Graphics/SVG/1.1/DTD/svg11.dtd">
<svg width="600px" height="238px"
xmlns="http://www.w3.org/2000/svg" version="1.1">
<g transform="translate(0000, 0000) scale(1.0000, 1.0000)">
<path fill="#000000" stroke="none" d="
M 525.45 236.65
C 452.54 231.52 348.05 214.59 285.69 197.83
C 184.52 170.62 100.54 124.90 39.95 64.02
C 21.58 45.57 10.39 31.51 4.10 19.00
C -0.37 10.09 -0.91 6.48 1.69 2.92
C 3.35 0.63 7.28 0.60 234.10 0.29
L 464.80 -0.02
L 470.08 2.77
C 475.80 5.80 480.67 12.80 480.69 18.06
C 480.72 21.79 476.64 28.13 471.98 31.59
L 468.61 34.09
L 270.99 34.38
C 162.29 34.55 72.67 34.95 71.82 35.26
C 68.97 36.33 72.43 40.27 86.59 52.10
C 148.31 103.61 202.08 132.75 278.45 156.08
C 343.88 176.05 435.21 191.68 530.22 199.14
C 583.48 203.33 587.80 203.84 591.51 206.57
C 596.29 210.09 600.56 218.86 599.51 223.04
C 598.29 227.91 590.66 235.11 585.07 236.66
C 579.64 238.18 546.99 238.17 525.45 236.65
M 585.38 229.31
C 587.50 228.13 590.14 225.81 591.23 224.15
C 593.05 221.36 593.06 220.78 591.35 217.19
C 588.06 210.27 585.52 209.74 535.53 205.73
C 403.13 195.10 301.93 175.19 225.28 144.65
C 171.15 123.10 133.46 100.08 78.88 55.25
C 63.41 42.55 60.13 36.59 65.61 31.10
C 67.97 28.73 69.58 28.70 264.85 28.70
C 482.70 28.70 468.05 29.25 471.98 20.99
C 473.93 16.90 473.92 16.59 471.61 13.44
C 470.29 11.64 467.37 9.22 465.13 8.07
C 461.27 6.11 447.81 5.98 234.30 5.98
C 109.59 5.98 7.20 6.33 6.79 6.75
C 5.63 7.92 13.51 22.23 20.54 31.69
C 29.22 43.40 61.30 75.31 76.69 87.56
C 107.70 112.23 132.73 128.32 167.59 145.99
C 237.04 181.20 314.99 203.14 428.23 219.34
C 454.33 223.07 495.71 227.94 515.31 229.60
C 523.51 230.29 532.37 231.05 534.99 231.28
C 537.61 231.52 549.16 231.65 560.64 231.57
C 578.17 231.45 582.13 231.08 585.38 229.31"/>
<path fill="#c57a36" stroke="none" d="
M 534.99 231.28
C 532.37 231.05 523.51 230.29 515.31 229.60
C 466.12 225.45 391.71 214.75 344.35 205.01
C 214.37 178.28 116.79 130.55 45.28 58.69
C 25.55 38.86 16.88 28.18 10.15 15.38
C 6.60 8.63 6.25 7.32 7.85 6.71
C 8.89 6.30 111.28 5.98 235.38 5.98
C 447.85 5.98 461.27 6.11 465.13 8.07
C 467.37 9.22 470.29 11.64 471.61 13.44
C 473.92 16.59 473.93 16.90 471.98 20.99
C 468.05 29.25 482.70 28.70 264.85 28.70
C 69.58 28.70 67.97 28.73 65.61 31.10
C 60.13 36.59 63.41 42.55 78.88 55.25
C 133.46 100.08 171.15 123.10 225.28 144.65
C 301.93 175.19 403.13 195.10 535.53 205.73
C 585.52 209.74 588.06 210.27 591.35 217.19
C 593.06 220.78 593.05 221.36 591.23 224.15
C 587.07 230.51 583.37 231.41 560.64 231.57
C 549.16 231.65 537.61 231.52 534.99 231.28"/>
</g>
</svg>
