<?xml version="1.0" encoding="UTF-8" standalone="no"?>
<!DOCTYPE svg PUBLIC "-//W3C//DTD SVG 1.1//EN"
"http://www.w3.org/Graphics/SVG/1.1/DTD/svg11.dtd">
<svg width="603px" height="600px"
xmlns="http://www.w3.org/2000/svg" version="1.1">
<g transform="translate(0000, 0000) scale(1.0000, 1.0000)">
<path fill="#000000" stroke="none" d="
M 4.28 595.73
C 0.04 591.50 0.00 588.62 0.00 300.41
C 0.00 52.61 0.45 8.73 3.04 5.21
C 5.67 1.60 9.26 0.98 30.64 0.36
C 66.07 -0.68 64.15 -3.86 64.15 55.81
L 64.15 103.11
L 99.00 69.16
C 134.16 34.93 147.05 25.37 171.15 15.65
C 201.98 3.20 196.32 3.52 403.52 2.69
C 593.31 1.94 594.28 1.96 598.64 6.32
C 602.57 10.25 603.00 13.32 603.00 37.37
C 603.00 61.22 602.55 64.51 598.72 68.33
C 594.51 72.53 591.60 72.60 410.40 72.60
L 226.34 72.60
L 209.94 78.09
C 139.95 101.51 84.38 176.78 69.28 268.53
C 64.28 298.95 66.14 340.65 73.64 365.98
C 85.23 405.03 102.98 435.48 131.46 465.22
C 166.15 501.40 201.09 522.23 246.12 533.62
C 263.33 537.95 268.42 538.08 429.13 538.08
C 591.60 538.08 594.51 538.14 598.72 542.35
C 602.47 546.09 603.00 549.46 603.00 569.04
C 603.00 588.62 602.47 591.99 598.72 595.73
C 594.51 599.94 591.60 600.00 403.45 600.00
C 234.08 600.00 211.16 599.62 200.87 596.56
C 171.38 587.81 103.88 547.47 78.58 523.47
L 66.29 511.81
L 66.29 551.64
C 66.29 602.28 67.85 600.00 33.14 600.00
C 11.40 600.00 8.06 599.51 4.28 595.73
M 53.16 586.48
C 54.68 584.67 55.72 567.05 56.09 537.07
C 56.62 494.56 57.01 490.29 60.58 488.14
C 63.79 486.19 65.15 486.66 68.06 490.61
C 80.68 507.76 86.07 513.52 99.43 524.16
C 115.08 536.63 160.84 565.09 182.82 576.04
C 210.71 589.94 200.47 589.32 403.03 589.32
C 543.41 589.32 587.80 588.70 589.74 586.76
C 593.14 583.37 593.14 554.71 589.74 551.32
C 587.80 549.37 548.11 548.75 424.17 548.75
C 246.25 548.75 249.11 548.93 213.98 536.14
C 133.58 506.82 69.82 429.25 57.61 345.86
C 53.56 318.36 56.13 269.02 63.02 241.35
C 83.71 158.22 132.25 95.49 195.65 69.89
L 212.76 62.99
L 399.69 62.41
C 531.82 62.01 587.48 61.13 589.46 59.49
C 593.59 56.07 593.44 18.53 589.29 15.12
C 587.03 13.24 540.05 12.79 400.59 13.35
C 195.93 14.14 205.83 13.52 174.08 27.74
C 152.48 37.43 140.42 46.95 101.33 85.15
C 80.76 105.27 62.74 121.71 61.26 121.71
C 54.14 121.71 53.46 116.90 53.46 66.19
C 53.46 29.85 52.75 15.10 50.89 13.24
C 47.47 9.82 16.68 9.82 13.26 13.24
C 9.54 16.95 9.54 583.05 13.26 586.76
C 16.94 590.43 50.06 590.20 53.16 586.48"/>
<path fill="#ffbf53" stroke="none" d="
M 13.26 586.76
C 11.29 584.80 10.69 518.11 10.69 299.66
C 10.69 20.50 10.78 15.05 14.82 12.90
C 20.59 9.80 47.73 10.08 50.89 13.24
C 52.75 15.10 53.46 29.85 53.46 66.19
C 53.46 116.90 54.14 121.71 61.26 121.71
C 62.74 121.71 80.76 105.27 101.33 85.15
C 140.42 46.95 152.48 37.43 174.08 27.74
C 205.83 13.52 195.93 14.14 400.59 13.35
C 540.05 12.79 587.03 13.24 589.29 15.12
C 593.44 18.53 593.59 56.07 589.46 59.49
C 587.48 61.13 531.82 62.01 399.69 62.41
L 212.76 62.99
L 195.65 69.89
C 132.25 95.49 83.71 158.22 63.02 241.35
C 56.13 269.02 53.56 318.36 57.61 345.86
C 69.82 429.25 133.58 506.82 213.98 536.14
C 249.11 548.93 246.25 548.75 424.17 548.75
C 548.11 548.75 587.80 549.37 589.74 551.32
C 593.14 554.71 593.14 583.37 589.74 586.76
C 587.80 588.70 543.41 589.32 403.03 589.32
C 200.47 589.32 210.71 589.94 182.82 576.04
C 160.84 565.09 115.08 536.63 99.43 524.16
C 86.07 513.52 80.68 507.76 68.06 490.61
C 65.15 486.66 63.79 486.19 60.58 488.14
C 57.01 490.29 56.62 494.56 56.09 537.07
C 55.72 567.05 54.68 584.67 53.16 586.48
C 50.06 590.20 16.94 590.43 13.26 586.76"/>
</g>
</svg>
