<?xml version="1.0" encoding="UTF-8" standalone="no"?>
<!DOCTYPE svg PUBLIC "-//W3C//DTD SVG 1.1//EN"
"http://www.w3.org/Graphics/SVG/1.1/DTD/svg11.dtd">
<svg width="598px" height="600px"
xmlns="http://www.w3.org/2000/svg" version="1.1">
<g transform="translate(0000, 0000) scale(1.0000, 1.0000)">
<path fill="#000000" stroke="none" d="
M 237.18 596.47
C 218.61 592.79 159.62 573.17 159.62 570.65
C 159.62 569.71 153.05 565.26 145.03 560.76
C 124.79 549.46 101.08 530.09 79.49 507.24
C 27.27 451.93 0.00 380.88 0.00 300.00
C 0.00 236.40 17.09 178.47 50.74 127.84
C 71.27 96.99 113.60 56.92 143.09 40.43
C 150.33 36.38 157.32 31.75 158.65 30.16
C 162.34 25.64 219.01 6.99 240.21 3.30
C 255.68 0.61 289.22 0.00 424.06 0.00
C 586.02 0.00 589.10 0.09 593.50 4.49
C 597.53 8.52 598.00 11.98 598.00 37.08
C 598.00 62.18 597.53 65.64 593.50 69.66
C 589.10 74.07 586.02 74.16 427.44 74.16
L 265.86 74.16
L 244.30 79.62
C 202.13 90.31 164.67 112.20 133.40 144.40
C 112.20 166.25 99.39 184.58 87.23 210.52
C 59.71 269.24 59.76 330.85 87.36 389.73
C 99.82 416.31 115.94 438.79 137.72 459.91
C 169.44 490.67 203.59 510.04 244.30 520.38
L 265.86 525.84
L 427.44 525.84
C 586.02 525.84 589.10 525.93 593.50 530.34
C 597.53 534.36 598.00 537.82 598.00 562.92
C 598.00 588.02 597.53 591.48 593.50 595.51
C 589.07 599.93 586.15 600.00 420.96 599.80
C 287.44 599.62 249.68 598.94 237.18 596.47
M 581.81 583.82
C 583.48 582.16 584.51 574.09 584.51 562.92
C 584.51 551.75 583.48 543.69 581.81 542.02
C 579.77 539.98 539.82 539.33 415.74 539.33
L 252.37 539.33
L 230.81 533.87
C 190.10 523.53 155.95 504.16 124.23 473.39
C 92.20 442.34 70.66 405.60 59.04 362.27
C 53.78 342.58 53.19 336.47 53.19 300.00
C 53.19 263.53 53.78 257.42 59.04 237.73
C 70.25 195.89 89.32 162.43 119.91 130.92
C 151.19 98.72 188.64 76.83 230.81 66.13
L 252.37 60.67
L 415.74 60.67
C 539.82 60.67 579.77 60.02 581.81 57.98
C 583.48 56.31 584.51 48.25 584.51 37.08
C 584.51 25.91 583.48 17.84 581.81 16.18
C 579.77 14.13 541.80 13.48 424.69 13.48
C 256.02 13.48 254.26 13.60 215.10 26.83
C 169.98 42.07 136.82 62.97 101.03 98.74
C 73.31 126.47 59.67 145.17 44.00 176.83
C 26.10 213.01 13.49 263.93 13.49 300.00
C 13.49 349.69 33.45 412.09 64.41 459.12
C 78.12 479.93 122.37 524.16 143.18 537.87
C 175.49 559.10 216.00 576.09 250.94 583.03
C 272.16 587.24 577.65 587.98 581.81 583.82"/>
<path fill="#ffbf53" stroke="none" d="
M 250.94 583.03
C 216.00 576.09 175.49 559.10 143.18 537.87
C 122.37 524.16 78.12 479.93 64.41 459.12
C 33.45 412.09 13.49 349.69 13.49 300.00
C 13.49 250.31 33.45 187.91 64.41 140.88
C 78.08 120.13 122.37 75.84 143.07 62.22
C 177.22 39.75 217.87 23.08 253.77 16.79
C 278.90 12.38 577.45 11.82 581.81 16.18
C 583.48 17.84 584.51 25.91 584.51 37.08
C 584.51 48.25 583.48 56.31 581.81 57.98
C 579.77 60.02 539.82 60.67 415.74 60.67
L 252.37 60.67
L 230.81 66.13
C 188.64 76.83 151.19 98.72 119.91 130.92
C 89.32 162.43 70.25 195.89 59.04 237.73
C 53.78 257.42 53.19 263.53 53.19 300.00
C 53.19 336.47 53.78 342.58 59.04 362.27
C 70.66 405.60 92.20 442.34 124.23 473.39
C 155.95 504.16 190.10 523.53 230.81 533.87
L 252.37 539.33
L 415.74 539.33
C 539.82 539.33 579.77 539.98 581.81 542.02
C 583.48 543.69 584.51 551.75 584.51 562.92
C 584.51 574.09 583.48 582.16 581.81 583.82
C 577.65 587.98 272.16 587.24 250.94 583.03"/>
</g>
</svg>
