<?xml version="1.0" encoding="UTF-8" standalone="no"?>
<!DOCTYPE svg PUBLIC "-//W3C//DTD SVG 1.1//EN"
"http://www.w3.org/Graphics/SVG/1.1/DTD/svg11.dtd">
<svg width="603px" height="600px"
xmlns="http://www.w3.org/2000/svg" version="1.1">
<g transform="translate(0000, 0000) scale(1.0000, 1.0000)">
<path fill="#000000" stroke="none" d="
M 4.28 595.73
C 0.53 591.99 0.00 588.62 0.00 569.04
C 0.00 549.46 0.53 546.09 4.28 542.35
C 8.49 538.14 11.40 538.08 173.86 538.08
C 334.58 538.08 339.67 537.95 356.88 533.62
C 401.91 522.23 436.85 501.40 471.54 465.22
C 500.02 435.48 517.77 405.03 529.36 365.98
C 536.86 340.65 538.72 298.95 533.72 268.53
C 527.99 233.70 514.18 195.18 497.60 167.87
C 470.62 123.35 433.80 91.73 393.06 78.09
L 376.66 72.60
L 192.60 72.60
C 11.40 72.60 8.49 72.53 4.28 68.33
C 0.45 64.51 0.00 61.22 0.00 37.37
C 0.00 13.32 0.43 10.25 4.36 6.32
C 8.72 1.96 9.69 1.94 199.48 2.69
C 406.68 3.52 401.02 3.20 431.85 15.65
C 455.95 25.37 468.84 34.93 504.00 69.16
L 538.85 103.11
L 538.85 56.22
C 538.85 19.15 539.49 8.50 541.89 5.21
C 544.52 1.60 548.11 0.98 569.49 0.36
C 592.09 -0.30 594.45 0.00 598.55 4.10
L 603.00 8.54
L 603.00 300.00
C 603.00 588.62 602.96 591.50 598.72 595.73
C 594.94 599.51 591.60 600.00 569.86 600.00
C 535.15 600.00 536.71 602.28 536.71 551.64
L 536.71 511.81
L 524.42 523.47
C 499.12 547.47 431.62 587.81 402.13 596.56
C 391.84 599.62 368.92 600.00 199.55 600.00
C 11.40 600.00 8.49 599.94 4.28 595.73
M 395.73 585.89
C 402.13 583.99 413.12 579.57 420.18 576.04
C 442.16 565.09 487.92 536.63 503.57 524.16
C 516.93 513.52 522.32 507.76 534.94 490.61
C 537.85 486.66 539.21 486.19 542.42 488.14
C 545.99 490.29 546.38 494.56 546.91 537.07
C 547.28 567.05 548.32 584.67 549.84 586.48
C 552.94 590.20 586.06 590.43 589.74 586.76
C 593.46 583.05 593.46 16.95 589.74 13.24
C 586.32 9.82 555.53 9.82 552.11 13.24
C 550.25 15.10 549.54 29.85 549.54 66.19
C 549.54 116.90 548.86 121.71 541.74 121.71
C 540.26 121.71 522.24 105.27 501.67 85.15
C 462.58 46.95 450.52 37.43 428.92 27.74
C 397.17 13.52 407.07 14.14 202.41 13.35
C 62.95 12.79 15.97 13.24 13.71 15.12
C 9.56 18.53 9.41 56.07 13.54 59.49
C 15.52 61.13 71.18 62.01 203.31 62.41
L 390.24 62.99
L 407.35 69.89
C 470.75 95.49 519.29 158.22 539.98 241.35
C 546.87 269.02 549.44 318.36 545.39 345.86
C 533.18 429.25 469.42 506.82 389.02 536.14
C 353.89 548.93 356.75 548.75 178.83 548.75
C 54.89 548.75 15.20 549.37 13.26 551.32
C 9.86 554.71 9.86 583.37 13.26 586.76
C 15.20 588.70 59.59 589.32 199.97 589.32
C 363.13 589.32 385.45 588.94 395.73 585.89"/>
<path fill="#ffbf53" stroke="none" d="
M 13.26 586.76
C 9.86 583.37 9.86 554.71 13.26 551.32
C 15.20 549.37 54.89 548.75 178.83 548.75
C 356.75 548.75 353.89 548.93 389.02 536.14
C 469.42 506.82 533.18 429.25 545.39 345.86
C 549.44 318.36 546.87 269.02 539.98 241.35
C 519.29 158.22 470.75 95.49 407.35 69.89
L 390.24 62.99
L 203.31 62.41
C 71.18 62.01 15.52 61.13 13.54 59.49
C 9.41 56.07 9.56 18.53 13.71 15.12
C 15.97 13.24 62.95 12.79 202.41 13.35
C 407.07 14.14 397.17 13.52 428.92 27.74
C 450.52 37.43 462.58 46.95 501.67 85.15
C 522.24 105.27 540.26 121.71 541.74 121.71
C 548.88 121.71 549.54 116.90 549.54 65.85
C 549.54 17.85 549.78 14.97 553.67 12.90
C 559.44 9.80 586.58 10.08 589.74 13.24
C 593.46 16.95 593.46 583.05 589.74 586.76
C 586.06 590.43 552.94 590.20 549.84 586.48
C 548.32 584.67 547.28 567.05 546.91 537.07
C 546.38 494.56 545.99 490.29 542.42 488.14
C 539.21 486.19 537.85 486.66 534.94 490.61
C 522.32 507.76 516.93 513.52 503.57 524.16
C 487.92 536.63 442.16 565.09 420.18 576.04
C 392.29 589.94 402.53 589.32 199.97 589.32
C 59.59 589.32 15.20 588.70 13.26 586.76"/>
</g>
</svg>
