<?xml version="1.0" encoding="UTF-8" standalone="no"?>
<!DOCTYPE svg PUBLIC "-//W3C//DTD SVG 1.1//EN"
"http://www.w3.org/Graphics/SVG/1.1/DTD/svg11.dtd">
<svg width="600px" height="327px"
xmlns="http://www.w3.org/2000/svg" version="1.1">
<g transform="translate(0000, 0000) scale(1.0000, 1.0000)">
<path fill="#000000" stroke="none" d="
M 494.13 325.26
C 492.01 324.10 490.73 322.17 489.91 318.84
C 485.78 302.10 477.57 277.47 463.85 240.63
C 441.43 180.37 413.61 135.53 376.27 99.45
C 356.42 80.27 338.42 66.51 321.87 57.89
C 314.81 54.21 313.84 53.98 310.72 55.25
C 300.37 59.48 278.15 73.41 252.72 91.62
C 213.47 119.73 202.45 126.78 180.90 137.51
C 150.39 152.71 127.81 158.97 98.75 160.26
C 55.26 162.20 18.20 150.03 6.78 130.06
C -3.27 112.51 -1.85 80.92 10.04 56.69
C 20.19 36.04 39.53 21.23 68.54 11.88
C 96.03 3.01 114.37 0.67 156.18 0.71
C 190.53 0.74 208.43 2.17 240.45 7.42
C 262.39 11.01 306.36 22.04 313.06 25.62
C 314.61 26.44 316.29 26.31 319.11 25.10
C 325.85 22.25 349.42 16.90 363.48 15.04
C 378.40 13.05 419.51 13.44 436.52 15.73
C 481.87 21.86 522.94 37.62 554.12 60.89
C 564.45 68.60 594.06 97.57 597.69 103.54
C 600.17 107.60 600.72 114.55 598.84 118.06
C 596.36 122.69 586.96 125.13 581.94 122.44
C 580.74 121.80 573.31 114.66 565.44 106.57
C 557.56 98.49 547.33 88.72 542.70 84.86
C 507.48 55.50 456.87 36.85 402.25 33.08
C 390.38 32.27 373.29 34.26 355.09 38.59
L 344.46 41.12
L 354.53 48.04
C 370.54 59.03 382.65 69.16 397.83 84.27
C 435.13 121.37 460.06 162.67 484.17 227.28
C 504.57 281.96 513.04 311.76 510.78 320.81
C 509.43 326.18 500.33 328.61 494.13 325.26
M 504.55 319.63
C 507.76 315.75 502.96 296.61 488.65 256.40
C 460.98 178.65 440.02 139.78 404.31 100.00
C 387.36 81.10 361.52 59.20 342.72 47.77
L 335.67 43.49
L 329.64 46.45
C 326.31 48.08 323.60 49.87 323.60 50.43
C 323.60 50.98 327.26 53.60 331.74 56.25
C 355.80 70.47 386.52 97.89 407.20 123.61
C 422.24 142.31 440.43 171.77 450.82 194.26
C 465.39 225.81 490.47 294.66 493.85 312.39
C 495.39 320.45 500.82 324.12 504.55 319.63
M 121.91 152.71
C 139.33 149.18 156.18 143.09 176.40 133.01
C 197.96 122.28 208.98 115.24 248.22 87.12
C 291.82 55.89 320.03 41.29 350.07 34.36
C 372.88 29.10 386.20 27.62 402.98 28.46
C 458.42 31.27 511.08 50.23 547.19 80.37
C 551.82 84.24 562.34 94.29 570.56 102.70
C 579.65 112.00 586.36 117.99 587.70 117.99
C 590.54 117.99 594.38 114.12 594.38 111.26
C 594.38 106.63 566.54 78.22 549.07 65.04
C 524.03 46.15 490.12 31.49 454.73 24.25
C 435.02 20.23 424.53 19.06 401.69 18.35
C 367.26 17.28 341.80 22.01 311.80 35.04
C 279.83 48.90 274.66 51.99 231.55 82.93
C 199.94 105.61 184.16 115.46 163.55 125.39
C 119.56 146.59 87.99 150.39 52.66 138.71
C 36.71 133.43 24.71 124.47 19.58 113.99
C 15.47 105.58 15.02 98.80 17.85 87.62
C 24.04 63.13 37.21 46.91 60.67 34.91
C 86.82 21.53 117.25 15.25 155.62 15.30
C 194.43 15.36 236.27 21.40 275.98 32.64
L 291.85 37.14
L 299.85 34.17
C 307.97 31.16 309.46 29.83 305.90 28.79
C 245.75 11.27 207.96 5.32 156.18 5.24
C 119.20 5.18 99.63 7.80 73.03 16.37
C 44.02 25.72 24.69 40.53 14.54 61.19
C -0.24 91.27 2.18 121.54 20.52 136.13
C 31.75 145.06 52.10 152.52 72.02 155.02
C 84.01 156.52 108.76 155.38 121.91 152.71
M 117.36 136.56
C 138.34 131.24 162.08 120.77 186.43 106.15
C 192.97 102.21 212.47 88.87 229.78 76.50
C 247.08 64.13 265.53 51.47 270.79 48.38
C 276.04 45.29 281.10 42.30 282.02 41.75
C 283.26 41.02 281.60 40.11 275.84 38.35
C 233.90 25.58 172.63 17.41 139.91 20.23
C 82.17 25.19 44.09 43.66 28.66 74.15
C 25.12 81.14 21.24 94.10 21.16 99.17
C 21.07 104.66 25.72 114.08 31.12 119.33
C 42.26 130.14 64.09 138.42 87.64 140.76
C 92.58 141.25 106.89 139.23 117.36 136.56"/>
<path fill="#cf9e66" stroke="none" d="
M 496.20 318.85
C 495.33 317.46 494.27 314.56 493.85 312.39
C 490.47 294.66 465.39 225.81 450.82 194.26
C 440.43 171.77 422.24 142.31 407.20 123.61
C 386.52 97.89 355.80 70.47 331.74 56.25
C 327.26 53.60 323.60 50.98 323.60 50.43
C 323.60 49.87 326.31 48.08 329.64 46.45
L 335.67 43.49
L 342.72 47.77
C 361.52 59.20 387.36 81.10 404.31 100.00
C 440.02 139.78 460.98 178.65 488.65 256.40
C 502.96 296.61 507.76 315.75 504.55 319.63
C 502.42 322.20 498.07 321.80 496.20 318.85"/>
<path fill="#cf9e66" stroke="none" d="
M 72.02 155.02
C 43.64 151.45 19.35 139.68 11.27 125.56
C -3.82 99.18 9.16 54.47 38.07 33.25
C 55.12 20.72 85.07 10.68 117.42 6.63
C 133.84 4.57 179.94 4.87 201.12 7.16
C 238.90 11.26 262.38 16.11 305.90 28.79
C 309.46 29.83 307.97 31.16 299.85 34.17
L 291.85 37.14
L 275.98 32.64
C 236.27 21.40 194.43 15.36 155.62 15.30
C 117.25 15.25 86.82 21.53 60.67 34.91
C 37.21 46.91 24.04 63.13 17.85 87.62
C 15.02 98.80 15.47 105.58 19.58 113.99
C 24.71 124.47 36.71 133.43 52.66 138.71
C 87.99 150.39 119.56 146.59 163.55 125.39
C 184.16 115.46 199.94 105.61 231.55 82.93
C 273.06 53.14 282.78 47.24 306.18 37.62
C 311.74 35.34 318.62 32.27 321.45 30.81
C 328.21 27.32 351.06 21.78 367.98 19.52
C 382.74 17.55 413.53 17.89 431.46 20.22
C 476.37 26.03 518.80 42.20 549.07 65.04
C 566.54 78.22 594.38 106.63 594.38 111.26
C 594.38 114.12 590.54 117.99 587.70 117.99
C 586.36 117.99 579.65 112.00 570.56 102.70
C 562.34 94.29 551.82 84.24 547.19 80.37
C 511.08 50.23 458.42 31.27 402.98 28.46
C 386.30 27.62 373.24 29.07 349.62 34.41
C 335.45 37.61 329.91 39.49 318.45 44.99
C 310.78 48.68 304.29 51.69 304.02 51.69
C 303.76 51.69 297.56 55.03 290.26 59.12
C 282.94 63.20 264.03 75.81 248.22 87.12
C 208.98 115.24 197.96 122.28 176.40 133.01
C 146.00 148.17 123.04 154.56 95.51 155.53
C 87.17 155.83 76.60 155.59 72.02 155.02"/>
<path fill="#e7af5a" stroke="none" d="
M 330.71 38.58
C 331.12 38.17 331.80 38.17 332.21 38.58
C 332.62 38.99 332.28 39.33 331.46 39.33
C 330.64 39.33 330.30 38.99 330.71 38.58"/>
<path fill="#e7af5a" stroke="none" d="
M 334.83 37.64
C 334.83 37.34 335.09 37.08 335.39 37.08
C 335.70 37.08 335.96 37.34 335.96 37.64
C 335.96 37.95 335.70 38.21 335.39 38.21
C 335.09 38.21 334.83 37.95 334.83 37.64"/>
<path fill="#e7af5a" stroke="none" d="
M 316.85 33.15
C 316.85 32.85 317.11 32.59 317.42 32.59
C 317.72 32.59 317.98 32.85 317.98 33.15
C 317.98 33.45 317.72 33.71 317.42 33.71
C 317.11 33.71 316.85 33.45 316.85 33.15"/>
</g>
</svg>
