<?xml version="1.0" encoding="UTF-8" standalone="no"?>
<!DOCTYPE svg PUBLIC "-//W3C//DTD SVG 1.1//EN"
"http://www.w3.org/Graphics/SVG/1.1/DTD/svg11.dtd">
<svg width="600px" height="361px"
xmlns="http://www.w3.org/2000/svg" version="1.1">
<g transform="translate(0000, 0000) scale(1.0000, 1.0000)">
<path fill="#000000" stroke="none" d="
M 578.11 357.30
C 574.92 355.27 568.36 349.93 563.54 345.42
C 544.90 328.00 507.25 297.18 486.74 282.55
C 474.94 274.13 461.02 263.22 455.82 258.31
C 449.08 251.96 439.77 245.45 423.50 235.73
C 355.68 195.26 290.33 169.29 239.21 162.51
C 218.68 159.80 173.99 160.75 143.95 164.57
C 111.83 168.62 104.08 168.93 90.85 166.62
C 84.42 165.50 76.06 163.42 72.27 162.00
C 50.89 153.99 26.09 131.89 11.69 108.01
C -6.82 77.30 -2.78 36.52 20.97 14.27
C 34.43 1.65 50.96 -2.53 70.33 1.79
C 90.71 6.33 109.02 18.31 120.48 34.58
C 131.87 50.77 135.59 52.03 154.23 46.04
C 191.67 34.01 244.56 28.18 283.66 31.78
C 352.96 38.15 426.60 63.42 492.64 103.45
C 514.20 116.54 527.24 126.32 540.36 139.30
C 552.84 151.66 560.56 162.63 563.06 171.56
C 565.43 180.03 562.88 184.86 552.82 191.06
C 528.57 206.00 474.45 248.46 475.49 251.71
C 475.77 252.53 488.84 260.39 504.55 269.16
C 559.01 299.57 589.46 322.39 597.46 338.77
C 605.53 355.27 593.32 366.97 578.11 357.30
M 591.63 352.62
C 594.66 349.57 594.05 345.39 589.64 339.19
C 581.29 327.41 572.57 320.17 542.68 300.15
C 519.12 284.37 474.11 259.49 472.36 261.25
C 471.41 262.19 472.82 263.86 477.07 266.83
C 507.32 287.96 546.79 319.54 566.88 338.71
C 575.61 347.03 585.63 354.62 587.91 354.62
C 588.85 354.62 590.52 353.72 591.63 352.62
M 488.54 228.83
C 509.76 211.26 533.99 193.22 541.67 189.30
C 548.51 185.82 556.69 179.03 556.69 176.86
C 556.69 176.06 554.96 171.74 552.84 167.26
C 547.99 156.98 527.06 135.76 509.89 123.71
C 446.93 79.53 360.10 46.97 285.53 39.58
C 246.29 35.69 194.20 41.28 156.27 53.45
C 134.29 60.49 129.04 59.02 116.88 42.44
C 106.88 28.79 99.27 22.00 87.26 15.97
C 50.69 -2.40 19.36 10.94 9.59 49.06
C 2.55 76.54 13.40 105.81 40.06 131.17
C 59.08 149.26 74.98 157.16 97.45 159.67
C 107.30 160.78 112.96 160.49 137.58 157.56
C 188.17 151.57 228.27 151.79 260.08 158.24
C 310.22 168.39 374.31 196.39 439.54 236.64
C 451.13 243.78 461.45 249.94 462.47 250.31
C 463.57 250.72 465.91 249.26 468.15 246.78
C 470.25 244.46 479.43 236.38 488.54 228.83"/>
<path fill="#e7bb88" stroke="none" d="
M 462.47 250.31
C 461.45 249.94 451.13 243.78 439.54 236.64
C 374.31 196.39 310.22 168.39 260.08 158.24
C 228.27 151.79 188.17 151.57 137.58 157.56
C 105.35 161.38 93.86 160.98 77.16 155.47
C 54.68 148.06 27.80 123.29 15.43 98.55
C 2.51 72.75 5.85 41.69 23.68 21.83
C 38.34 5.50 62.06 3.32 87.26 15.97
C 99.27 22.00 106.88 28.79 116.88 42.44
C 129.04 59.02 134.29 60.49 156.27 53.45
C 171.77 48.46 200.55 42.61 221.49 40.16
C 299.41 31.02 395.75 55.51 483.13 106.68
C 506.32 120.25 520.45 130.78 535.32 145.55
C 545.83 155.98 549.89 161.00 552.84 167.26
C 554.96 171.74 556.69 176.06 556.69 176.86
C 556.69 179.03 548.51 185.82 541.67 189.30
C 530.13 195.20 477.85 236.07 468.15 246.78
C 465.91 249.26 463.57 250.72 462.47 250.31"/>
<path fill="#c57a36" stroke="none" d="
M 580.04 350.00
C 576.65 347.48 570.73 342.39 566.88 338.71
C 552.15 324.67 512.48 292.17 493.64 278.72
C 471.03 262.57 470.47 262.10 472.94 261.16
C 475.31 260.25 524.04 287.54 543.95 300.92
C 572.57 320.18 581.39 327.57 589.64 339.19
C 594.05 345.39 594.66 349.57 591.63 352.62
C 588.70 355.55 586.87 355.13 580.04 350.00"/>
</g>
</svg>
