<?xml version="1.0" encoding="UTF-8" standalone="no"?>
<!DOCTYPE svg PUBLIC "-//W3C//DTD SVG 1.1//EN"
"http://www.w3.org/Graphics/SVG/1.1/DTD/svg11.dtd">
<svg width="800px" height="224px"
xmlns="http://www.w3.org/2000/svg" version="1.1">
<g transform="translate(0000, 0000) scale(1.0000, 1.0000)">
<path fill="#000000" stroke="none" d="
M 45.35 221.47
C 16.25 214.42 -1.47 193.62 0.46 168.78
C 2.30 145.00 17.70 128.87 45.50 121.64
C 70.30 115.21 100.40 122.10 117.86 138.24
C 121.54 141.63 126.51 145.17 128.92 146.08
C 131.90 147.22 228.75 147.74 435.52 147.74
L 737.74 147.74
L 743.13 144.17
C 746.15 142.15 750.26 137.12 752.48 132.65
C 755.87 125.85 756.44 122.53 756.44 109.62
C 756.44 96.46 755.93 93.62 752.48 87.44
C 750.29 83.53 746.09 78.72 743.13 76.72
L 737.74 73.08
L 431.35 73.08
C 202.93 73.08 124.06 73.54 121.47 74.90
C 119.57 75.92 114.63 79.78 110.50 83.50
C 93.94 98.34 65.54 103.95 42.49 96.92
C 28.39 92.63 23.90 90.38 16.55 83.91
C 8.30 76.64 2.85 64.83 1.95 52.22
C 1.30 43.18 1.79 40.35 5.43 32.36
C 12.86 16.06 22.72 8.53 43.56 3.18
C 59.41 -0.89 70.50 -0.84 84.58 3.35
C 99.17 7.69 103.49 10.02 112.33 18.22
C 116.32 21.94 121.16 25.78 123.06 26.78
C 125.62 28.12 206.80 28.60 433.33 28.60
L 740.13 28.60
L 753.19 34.73
C 760.36 38.11 769.17 43.51 772.74 46.75
C 798.26 69.88 807.05 113.37 792.74 145.79
C 783.67 166.38 770.65 178.02 746.39 187.22
L 733.20 192.23
L 432.73 192.29
C 199.30 192.32 131.50 192.77 128.79 194.28
C 126.89 195.34 122.84 199.12 119.81 202.68
C 105.27 219.71 72.35 228.04 45.35 221.47
M 79.52 212.69
C 91.53 210.13 102.27 204.24 112.40 194.64
C 117.23 190.05 122.74 185.49 124.64 184.51
C 127.19 183.17 207.37 182.70 428.34 182.70
C 642.98 182.70 730.95 182.19 736.95 180.93
C 766.34 174.72 786.33 152.65 790.76 121.53
C 795.26 89.90 779.22 57.18 752.78 44.12
L 742.24 38.92
L 429.34 38.11
C 257.24 37.67 116.28 37.13 116.07 36.92
C 115.87 36.71 111.03 32.30 105.31 27.10
C 91.49 14.52 81.28 10.49 63.37 10.49
C 40.65 10.49 22.67 20.40 14.84 37.24
C 10.15 47.36 10.15 52.73 14.84 62.85
C 22.67 79.69 40.65 89.60 63.37 89.60
C 80.40 89.60 91.72 85.41 103.37 74.79
C 107.94 70.62 113.24 66.39 115.14 65.37
C 117.72 64.01 197.61 63.55 428.21 63.55
C 691.91 63.55 738.63 63.88 743.18 65.80
C 755.63 71.06 763.68 85.77 764.83 105.42
C 766.24 129.11 759.18 145.87 744.68 153.24
L 736.74 157.28
L 431.84 157.28
C 222.35 157.28 125.56 156.75 122.55 155.61
C 120.14 154.69 114.85 150.81 110.78 147.00
C 86.38 124.12 47.64 123.07 23.13 144.63
C 16.25 150.70 9.50 164.03 9.50 171.57
C 9.50 179.10 16.25 192.45 23.13 198.50
C 38.00 211.61 59.36 216.98 79.52 212.69"/>
<path fill="#000000" stroke="none" d="
M 50.27 199.60
C 44.36 197.58 37.35 193.85 34.68 191.31
C 29.07 185.95 23.76 176.37 23.76 171.57
C 23.76 166.36 29.39 156.64 35.52 151.24
C 41.03 146.39 58.44 139.80 65.74 139.80
C 73.05 139.80 90.46 146.39 95.97 151.24
C 102.10 156.64 107.72 166.36 107.72 171.57
C 107.72 176.32 102.43 185.94 96.95 191.18
C 91.55 196.33 73.60 203.36 66.06 203.30
C 63.27 203.28 56.16 201.62 50.27 199.60
M 80.00 189.16
C 87.45 185.92 96.63 176.07 96.63 171.30
C 96.63 165.66 84.23 154.78 74.50 151.88
C 66.57 149.51 65.16 149.51 57.12 151.84
C 47.19 154.75 34.85 165.60 34.85 171.43
C 34.85 177.13 45.75 187.33 55.46 190.72
C 64.81 193.97 69.61 193.67 80.00 189.16"/>
<path fill="#000000" stroke="none" d="
M 46.94 75.52
C 36.18 71.09 31.00 66.69 26.77 58.45
C 22.97 51.01 22.99 47.47 26.87 39.86
C 30.95 31.80 37.61 26.40 48.35 22.37
C 59.44 18.21 65.71 18.21 76.80 22.37
C 87.54 26.40 94.19 31.80 98.28 39.86
C 102.18 47.50 102.18 51.00 98.28 58.64
C 94.19 66.69 87.54 72.09 76.80 76.13
C 65.44 80.39 58.41 80.24 46.94 75.52
M 76.23 65.01
C 83.01 61.58 90.30 53.39 90.30 49.25
C 90.30 41.29 73.85 29.68 62.57 29.68
C 51.30 29.68 34.85 41.29 34.85 49.25
C 34.85 53.19 41.98 61.46 48.10 64.64
C 59.23 70.41 65.44 70.49 76.23 65.01"/>
<path fill="#cf9e66" stroke="none" d="
M 49.90 212.23
C 40.00 209.77 30.23 204.76 23.13 198.50
C 16.25 192.45 9.50 179.10 9.50 171.57
C 9.50 164.03 16.25 150.70 23.13 144.63
C 47.64 123.07 86.38 124.12 110.78 147.00
C 114.85 150.81 120.14 154.69 122.55 155.61
C 125.56 156.75 222.35 157.28 431.84 157.28
L 736.74 157.28
L 744.68 153.24
C 759.18 145.87 766.24 129.11 764.83 105.42
C 763.68 85.77 755.63 71.06 743.18 65.80
C 738.63 63.88 691.91 63.55 428.21 63.55
C 197.61 63.55 117.72 64.01 115.14 65.37
C 113.24 66.39 107.94 70.62 103.37 74.79
C 91.72 85.41 80.40 89.60 63.37 89.60
C 40.65 89.60 22.67 79.69 14.84 62.85
C 10.15 52.73 10.15 47.36 14.84 37.24
C 22.64 20.46 40.49 10.63 63.37 10.52
C 81.24 10.44 91.41 14.46 105.31 27.10
C 111.03 32.30 115.87 36.71 116.07 36.92
C 116.28 37.13 257.24 37.67 429.34 38.11
L 742.24 38.92
L 752.78 44.12
C 779.22 57.18 795.26 89.90 790.76 121.53
C 786.33 152.65 766.34 174.72 736.95 180.93
C 730.95 182.19 642.98 182.70 428.34 182.70
C 207.37 182.70 127.19 183.17 124.64 184.51
C 122.74 185.49 117.23 190.05 112.40 194.64
C 94.43 211.66 72.48 217.84 49.90 212.23
M 81.68 199.52
C 87.48 197.41 94.35 193.66 96.95 191.18
C 102.43 185.94 107.72 176.32 107.72 171.57
C 107.72 166.36 102.10 156.64 95.97 151.24
C 90.46 146.39 73.05 139.80 65.74 139.80
C 58.44 139.80 41.03 146.39 35.52 151.24
C 29.39 156.64 23.76 166.36 23.76 171.57
C 23.76 176.37 29.07 185.95 34.68 191.31
C 39.98 196.36 57.98 203.24 66.06 203.30
C 68.86 203.33 75.88 201.62 81.68 199.52
M 76.80 76.13
C 81.63 74.32 87.75 71.01 90.39 68.79
C 95.76 64.25 101.39 54.27 101.39 49.25
C 101.39 44.23 95.76 34.25 90.39 29.71
C 84.42 24.67 69.77 19.06 62.57 19.06
C 55.38 19.06 40.73 24.67 34.76 29.71
C 29.39 34.25 23.76 44.23 23.76 49.25
C 23.76 53.78 28.96 63.56 33.73 68.01
C 39.03 73.00 54.91 79.35 62.11 79.40
C 65.35 79.42 71.95 77.96 76.80 76.13"/>
</g>
</svg>
