<?xml version="1.0" encoding="UTF-8" standalone="no"?>
<!DOCTYPE svg PUBLIC "-//W3C//DTD SVG 1.1//EN"
"http://www.w3.org/Graphics/SVG/1.1/DTD/svg11.dtd">
<svg width="800px" height="231px"
xmlns="http://www.w3.org/2000/svg" version="1.1">
<g transform="translate(0000, 0000) scale(1.0000, 1.0000)">
<path fill="#000000" stroke="none" d="
M 44.02 227.33
C 30.22 223.48 26.52 221.73 18.19 215.19
C 11.29 209.74 3.98 195.33 1.31 181.84
C -0.32 173.53 -0.22 170.63 2.12 160.68
C 7.49 137.79 19.01 125.56 41.37 119.05
L 53.00 115.66
L 41.36 112.09
C 18.83 105.22 7.47 93.13 2.12 70.32
C -0.22 60.37 -0.32 57.47 1.31 49.16
C 2.36 43.86 5.30 35.21 7.85 29.94
C 15.29 14.45 26.98 6.99 51.32 2.19
C 64.08 -0.33 65.44 -0.33 77.56 2.25
C 102.72 7.60 112.40 14.19 121.82 32.37
C 125.31 39.11 129.27 45.05 130.63 45.56
C 131.97 46.09 268.28 46.51 433.54 46.51
C 663.17 46.51 735.46 46.94 740.20 48.37
C 746.29 50.20 746.50 50.14 750.98 44.88
C 753.50 41.94 759.69 33.25 764.74 25.58
C 775.35 9.44 777.17 7.75 784.00 7.75
C 794.42 7.75 800.00 13.27 800.00 23.61
C 800.00 28.65 789.47 46.06 775.60 63.92
L 768.71 72.80
L 772.39 80.97
C 775.80 88.56 776.06 91.05 776.06 115.50
C 776.06 141.82 776.06 141.87 771.21 152.12
C 764.91 165.47 757.03 174.06 746.19 179.40
L 737.45 183.71
L 433.20 184.51
C 265.87 184.94 128.82 185.47 128.65 185.67
C 128.48 185.87 125.45 191.62 121.92 198.46
C 112.71 216.19 104.12 222.46 81.53 227.90
C 65.54 231.74 59.54 231.65 44.02 227.33
M 78.46 220.91
C 97.62 216.36 107.37 208.94 115.31 192.83
C 118.44 186.46 121.76 180.74 122.67 180.15
C 123.58 179.54 260.90 178.72 427.80 178.29
L 731.27 177.51
L 740.02 173.20
C 750.86 167.85 758.73 159.27 765.03 145.92
C 769.70 136.06 769.88 134.88 769.88 115.50
C 769.88 95.98 769.73 95.00 764.86 84.71
C 762.10 78.85 759.85 73.18 759.85 72.08
C 759.85 70.97 763.57 65.30 768.11 59.46
C 777.08 47.92 792.28 24.96 792.28 22.96
C 792.28 21.36 786.49 15.49 784.94 15.53
C 782.29 15.58 779.72 18.53 772.11 30.26
C 761.90 45.98 752.82 56.93 748.94 58.17
C 747.29 58.70 742.08 57.69 737.39 55.92
C 728.85 52.71 728.45 52.71 426.49 52.71
C 186.95 52.71 123.63 52.31 121.70 50.77
C 120.36 49.70 118.47 46.32 117.50 43.25
C 109.48 17.81 78.18 2.53 49.48 10.05
C 30.35 15.05 20.76 22.23 13.56 36.88
C 9.28 45.60 8.49 48.93 8.49 58.14
C 8.49 67.36 9.28 70.66 13.61 79.49
C 22.75 98.12 39.92 107.69 64.09 107.58
C 88.00 107.47 105.37 98.04 114.15 80.40
C 116.77 75.13 118.92 69.90 118.92 68.80
C 118.92 67.69 120.28 66.04 121.93 65.16
C 124.02 64.04 218.30 63.66 424.25 63.94
L 723.55 64.34
L 730.64 67.63
C 740.11 72.03 748.56 80.79 753.48 91.33
C 757.00 98.86 757.53 102.01 757.53 115.50
C 757.53 128.40 756.93 132.31 753.98 138.76
C 747.34 153.27 735.92 162.30 720.00 165.70
C 708.91 168.06 126.29 168.18 121.90 165.82
C 120.26 164.96 118.92 163.31 118.92 162.20
C 118.92 157.36 109.05 140.86 103.51 136.46
C 90.08 125.79 70.12 120.74 53.84 123.92
C 32.96 128.00 21.17 136.09 13.56 151.61
C 9.28 160.32 8.49 163.65 8.49 172.86
C 8.49 182.07 9.28 185.40 13.56 194.12
C 20.51 208.27 29.33 215.17 47.10 220.33
C 58.69 223.70 66.07 223.84 78.46 220.91
M 713.82 159.50
C 729.78 156.10 741.24 146.99 747.74 132.55
C 757.25 111.41 746.39 84.01 724.46 73.83
L 717.37 70.54
L 425.02 70.14
C 230.89 69.87 131.69 70.26 129.76 71.30
C 128.17 72.15 124.39 78.03 121.36 84.35
C 113.58 100.57 102.33 108.82 81.71 113.41
L 73.36 115.27
L 81.08 117.39
C 104.91 123.95 113.44 130.12 121.30 146.52
C 124.34 152.88 128.00 158.77 129.44 159.62
C 133.34 161.90 703.07 161.78 713.82 159.50"/>
<path fill="#000000" stroke="none" d="
M 52.29 210.05
C 41.16 206.47 30.72 198.44 25.11 189.11
C 17.58 176.60 17.27 172.26 23.04 160.49
C 32.71 140.75 55.12 129.81 74.35 135.42
C 91.61 140.46 103.64 152.21 108.17 168.44
C 110.13 175.47 110.04 176.01 105.11 185.53
C 94.84 205.42 71.55 216.24 52.29 210.05
M 75.44 201.51
C 85.78 196.82 93.16 190.16 98.01 181.22
L 102.42 173.08
L 98.12 164.80
C 91.66 152.43 75.44 141.14 64.09 141.14
C 52.88 141.14 36.85 152.20 30.18 164.51
L 25.76 172.65
L 30.07 180.92
C 34.78 189.95 42.25 196.74 52.74 201.51
C 61.22 205.39 66.97 205.39 75.44 201.51"/>
<path fill="#000000" stroke="none" d="
M 52.29 95.33
C 41.16 91.75 30.72 83.72 25.11 74.39
C 17.58 61.87 17.27 57.53 23.04 45.77
C 32.71 26.03 55.12 15.08 74.35 20.70
C 91.52 25.70 103.64 37.49 108.11 53.47
C 109.96 60.15 109.82 60.97 105.17 70.46
C 95.35 90.48 71.75 101.58 52.29 95.33
M 75.44 86.79
C 85.78 82.09 93.16 75.44 98.01 66.49
L 102.42 58.35
L 98.12 50.08
C 91.66 37.70 75.44 26.42 64.09 26.42
C 52.88 26.42 36.85 37.47 30.18 49.78
L 25.76 57.92
L 30.07 66.20
C 34.78 75.22 42.25 82.01 52.74 86.79
C 61.22 90.66 66.97 90.66 75.44 86.79"/>
<path fill="#cf9e66" stroke="none" d="
M 47.10 220.33
C 29.33 215.17 20.51 208.27 13.56 194.12
C 6.36 179.44 6.36 166.29 13.56 151.61
C 21.17 136.09 32.96 128.00 53.84 123.92
C 70.12 120.74 90.08 125.79 103.51 136.46
C 109.05 140.86 118.92 157.36 118.92 162.20
C 118.92 163.31 120.26 164.96 121.90 165.82
C 126.29 168.18 708.91 168.06 720.00 165.70
C 735.92 162.30 747.34 153.27 753.98 138.76
C 756.93 132.31 757.53 128.40 757.53 115.50
C 757.53 102.01 757.00 98.86 753.48 91.33
C 748.56 80.79 740.11 72.03 730.64 67.63
L 723.55 64.34
L 424.25 63.94
C 218.30 63.66 124.02 64.04 121.93 65.16
C 120.28 66.04 118.92 67.69 118.92 68.80
C 118.92 69.90 116.77 75.13 114.15 80.40
C 105.37 98.04 88.00 107.47 64.09 107.58
C 39.92 107.69 22.75 98.12 13.61 79.49
C 9.28 70.66 8.49 67.36 8.49 58.14
C 8.49 48.93 9.28 45.60 13.56 36.88
C 21.17 21.36 32.96 13.27 53.84 9.19
C 70.12 6.02 90.08 11.07 103.51 21.74
C 109.05 26.14 118.92 42.63 118.92 47.47
C 118.92 48.59 120.26 50.23 121.90 51.10
C 123.94 52.20 221.67 52.71 426.87 52.71
C 728.43 52.71 728.85 52.71 737.39 55.92
C 742.08 57.69 747.29 58.70 748.94 58.17
C 752.82 56.93 761.90 45.98 772.11 30.26
C 779.72 18.53 782.29 15.58 784.94 15.53
C 786.49 15.49 792.28 21.36 792.28 22.96
C 792.28 24.96 777.08 47.92 768.11 59.46
C 763.57 65.30 759.85 70.97 759.85 72.08
C 759.85 73.18 762.10 78.85 764.86 84.71
C 769.73 95.00 769.88 95.98 769.88 115.50
C 769.88 134.88 769.70 136.06 765.03 145.92
C 758.73 159.27 750.86 167.85 740.02 173.20
L 731.27 177.51
L 427.80 178.29
C 260.90 178.72 123.58 179.54 122.67 180.15
C 121.76 180.74 118.44 186.46 115.31 192.83
C 107.37 208.94 97.62 216.36 78.46 220.91
C 66.07 223.84 58.69 223.70 47.10 220.33
M 81.20 207.85
C 92.45 202.86 99.63 196.16 105.11 185.53
C 110.04 176.01 110.13 175.47 108.17 168.44
C 103.64 152.21 91.61 140.46 74.35 135.42
C 55.12 129.81 32.71 140.75 23.04 160.49
C 17.27 172.26 17.58 176.60 25.11 189.11
C 36.91 208.74 61.05 216.80 81.20 207.85
M 81.20 93.13
C 92.80 87.98 99.86 81.32 105.17 70.46
C 109.82 60.97 109.96 60.15 108.11 53.47
C 103.64 37.49 91.52 25.70 74.35 20.70
C 55.12 15.08 32.71 26.03 23.04 45.77
C 17.27 57.53 17.58 61.87 25.11 74.39
C 36.91 94.01 61.05 102.07 81.20 93.13"/>
</g>
</svg>
