<?xml version="1.0" encoding="UTF-8" standalone="no"?>
<!DOCTYPE svg PUBLIC "-//W3C//DTD SVG 1.1//EN"
"http://www.w3.org/Graphics/SVG/1.1/DTD/svg11.dtd">
<svg width="664px" height="500px"
xmlns="http://www.w3.org/2000/svg" version="1.1">
<g transform="translate(0000, 0000) scale(1.0000, 1.0000)">
<path fill="#000000" stroke="none" d="
M 337.10 498.07
C 335.58 497.02 333.62 494.41 332.74 492.27
C 331.42 489.08 331.50 487.70 333.19 484.42
C 336.44 478.14 341.35 475.17 355.64 470.84
C 386.04 461.64 402.60 455.70 414.64 449.67
C 427.78 443.09 436.11 435.80 437.71 429.49
C 439.16 423.71 434.20 411.93 423.36 395.37
C 385.57 337.65 359.72 294.31 351.84 275.49
C 348.41 267.27 344.41 258.60 342.96 256.21
C 338.82 249.46 338.28 250.30 325.36 283.44
C 317.58 303.35 286.31 358.89 260.25 399.08
C 255.55 406.33 249.27 417.02 246.30 422.82
L 240.91 433.38
L 240.91 457.22
C 240.91 480.86 240.89 481.08 237.38 486.40
C 233.18 492.76 224.59 497.36 216.93 497.36
C 214.00 497.36 205.55 495.51 198.16 493.26
C 183.23 488.71 182.16 488.77 166.99 495.24
L 159.07 498.61
L 115.35 498.65
C 73.86 498.68 71.47 498.55 68.34 496.08
C 66.53 494.66 64.27 491.65 63.34 489.39
C 59.77 480.78 67.77 472.26 81.81 469.72
C 114.90 463.73 147.11 450.75 164.61 436.35
C 181.31 422.59 193.27 401.65 206.63 362.80
C 230.34 293.79 267.40 217.18 301.73 166.19
L 311.46 151.72
L 213.40 151.72
C 134.86 151.72 114.89 152.06 113.00 153.43
C 111.71 154.38 108.76 158.68 106.48 162.99
C 103.36 168.84 100.47 172.08 95.05 175.78
C 75.07 189.38 35.84 189.38 15.84 175.78
C 10.22 171.95 7.68 169.06 4.62 162.93
C 1.02 155.71 0.66 153.84 0.66 141.82
C 0.66 129.80 1.02 127.93 4.62 120.71
C 7.68 114.58 10.22 111.69 15.84 107.86
C 35.84 94.26 75.07 94.26 95.05 107.86
C 100.43 111.53 103.36 114.80 106.41 120.53
C 108.67 124.78 111.34 128.76 112.35 129.41
C 113.39 130.07 222.43 130.58 364.46 130.58
L 614.73 130.61
L 622.81 126.57
C 632.05 121.97 636.65 117.10 641.26 107.07
C 643.79 101.57 644.30 98.85 643.63 94.60
C 641.41 80.77 628.70 63.11 617.16 57.88
C 612.08 55.57 601.14 55.46 364.92 55.44
C 160.27 55.41 117.58 55.71 115.56 57.18
C 114.23 58.15 111.27 62.16 108.97 66.08
C 98.02 84.82 66.31 93.38 36.18 85.74
C 21.45 82.01 12.42 75.63 7.26 65.30
C 3.66 58.09 3.30 56.21 3.30 44.20
C 3.30 32.66 3.75 30.05 6.81 23.51
C 13.50 9.26 29.04 1.66 54.15 0.37
C 80.89 -1.00 100.67 7.15 109.12 23.02
C 111.40 27.34 114.35 31.64 115.64 32.59
C 117.55 33.98 165.06 34.30 371.14 34.30
C 623.28 34.30 624.33 34.31 631.54 37.01
C 645.33 42.16 657.16 56.12 662.02 72.97
C 663.78 79.05 664.13 84.79 663.76 100.67
C 663.31 119.46 663.06 121.12 659.74 127.31
C 653.24 139.34 646.13 145.29 633.56 149.21
C 625.84 151.61 619.50 151.72 489.00 151.72
L 352.53 151.72
L 363.92 167.88
C 406.61 228.40 441.82 285.91 457.43 320.63
C 460.55 327.56 470.54 351.91 479.64 374.74
C 488.72 397.56 500.32 426.03 505.41 437.99
C 517.52 466.54 518.41 470.13 515.46 478.98
C 511.44 491.07 501.85 498.68 490.65 498.68
C 488.77 498.68 483.19 497.16 478.26 495.30
C 460.83 488.73 461.17 488.76 453.83 493.32
C 450.23 495.57 444.80 497.97 441.78 498.67
C 438.75 499.37 414.58 499.95 388.06 499.97
C 347.89 500.00 339.39 499.68 337.10 498.07
M 449.75 486.81
L 460.56 480.87
L 470.87 484.63
C 476.54 486.70 483.48 489.25 486.29 490.29
C 491.08 492.07 491.84 491.99 497.51 489.17
C 505.33 485.29 510.08 476.98 509.02 469.00
C 508.64 466.09 504.75 455.49 500.36 445.42
C 495.98 435.36 483.70 405.38 473.08 378.80
C 462.45 352.22 449.69 322.34 444.71 312.39
C 427.06 277.10 402.25 237.01 364.70 183.05
L 342.89 151.72
L 332.03 151.72
L 321.15 151.72
L 310.58 167.22
C 275.32 218.94 237.90 295.38 213.83 364.89
C 196.65 414.47 185.43 432.57 162.29 447.94
C 145.49 459.10 113.16 471.65 93.07 474.79
C 79.42 476.91 74.24 478.65 71.98 481.87
C 69.38 485.59 69.44 486.28 72.60 489.45
C 75.13 491.97 77.00 492.08 114.87 492.08
L 154.50 492.08
L 166.48 487.41
C 183.74 480.67 183.86 480.66 200.70 486.11
C 216.97 491.36 219.66 491.35 226.71 485.99
C 233.96 480.47 234.31 478.98 234.31 453.83
C 234.31 425.55 234.23 425.79 256.77 389.84
C 291.61 334.25 313.90 293.73 322.11 271.11
C 326.90 257.88 331.92 247.22 335.00 243.73
C 340.47 237.52 347.05 244.67 356.50 267.12
C 360.17 275.84 366.78 289.21 371.19 296.83
C 381.57 314.75 413.15 365.38 427.19 386.62
C 439.74 405.62 443.48 413.46 444.48 422.97
C 446.83 445.15 430.66 455.66 361.70 476.82
C 352.79 479.55 344.88 482.85 342.56 484.80
L 338.60 488.11
L 341.82 490.84
C 344.98 493.52 346.12 493.58 391.98 493.17
L 438.93 492.74
L 449.75 486.81
M 76.56 176.89
C 88.78 172.97 96.78 166.64 101.62 157.04
C 103.81 152.72 106.74 148.56 108.15 147.81
C 109.90 146.87 191.99 146.44 365.46 146.44
C 612.24 146.44 620.45 146.36 628.28 143.93
C 640.86 140.01 648.01 134.02 654.42 122.03
C 657.48 116.28 658.01 113.55 658.47 100.74
C 658.86 89.62 658.46 84.18 656.77 78.31
C 651.88 61.40 640.08 47.45 626.26 42.28
C 619.05 39.59 618.00 39.58 365.86 39.58
C 159.78 39.58 112.27 39.26 110.36 37.86
C 109.06 36.91 106.12 32.61 103.84 28.30
C 91.01 4.18 47.31 -2.07 21.99 16.60
C 4.11 29.79 4.11 58.60 21.99 71.79
C 35.50 81.75 55.79 85.21 73.96 80.63
C 88.39 77.01 97.94 70.65 103.69 60.80
C 105.99 56.89 108.95 52.88 110.28 51.90
C 112.30 50.44 155.85 50.13 364.92 50.16
C 650.39 50.20 621.76 49.01 633.95 61.21
C 647.83 75.08 653.36 97.52 646.55 112.32
C 641.93 122.37 637.33 127.23 628.09 131.85
L 620.01 135.88
L 364.46 135.86
C 219.38 135.86 108.11 135.34 107.07 134.68
C 106.06 134.04 103.39 130.05 101.13 125.80
C 88.37 101.81 44.61 95.61 19.35 114.22
C 0.70 127.97 1.62 157.24 21.12 170.51
C 35.87 180.54 57.41 183.02 76.56 176.89"/>
<path fill="#000000" stroke="none" d="
M 42.90 167.47
C 28.28 162.73 17.12 151.48 17.19 141.54
C 17.24 131.20 30.74 119.12 46.53 115.25
C 54.81 113.23 56.08 113.23 64.35 115.25
C 80.14 119.12 93.65 131.20 93.70 141.54
C 93.77 151.65 82.50 162.81 67.51 167.55
C 57.24 170.78 53.08 170.77 42.90 167.47
M 64.78 161.57
C 72.89 158.76 82.83 151.17 85.38 145.86
C 87.38 141.66 87.35 141.12 84.95 136.99
C 81.66 131.35 69.78 123.25 61.71 121.13
C 56.72 119.84 54.16 119.84 49.17 121.13
C 41.11 123.25 29.23 131.35 25.94 136.99
C 23.52 141.15 23.51 141.65 25.54 145.91
C 29.21 153.61 45.44 163.35 54.88 163.52
C 57.11 163.56 61.57 162.68 64.78 161.57"/>
<path fill="#000000" stroke="none" d="
M 44.88 69.78
C 30.55 64.71 19.76 53.58 19.83 43.92
C 19.88 33.67 33.25 21.65 49.17 17.52
C 57.66 15.33 58.51 15.33 66.99 17.52
C 82.91 21.65 96.29 33.67 96.34 43.92
C 96.41 54.02 85.15 65.18 70.15 69.92
C 59.89 73.15 54.32 73.13 44.88 69.78
M 77.88 58.28
C 81.91 55.58 86.28 51.28 87.69 48.65
C 90.21 43.97 90.21 43.88 87.63 39.45
C 84.31 33.73 72.47 25.63 64.35 23.51
C 59.36 22.22 56.80 22.22 51.81 23.51
C 43.75 25.62 31.87 33.72 28.58 39.37
C 26.18 43.50 26.15 44.04 28.14 48.23
C 30.86 53.91 40.82 61.23 50.16 64.42
C 56.75 66.66 58.03 66.72 64.02 65.03
C 67.65 64.01 73.90 60.96 77.88 58.28"/>
<path fill="#cf9e66" stroke="none" d="
M 38.28 178.10
C 17.68 172.57 5.94 159.41 5.94 141.82
C 5.94 125.09 16.08 112.59 34.32 106.78
C 47.81 102.49 58.27 102.10 71.32 105.38
C 86.50 109.20 95.61 115.44 101.13 125.80
C 103.39 130.05 106.06 134.04 107.07 134.68
C 108.11 135.34 219.38 135.86 364.46 135.86
L 620.01 135.88
L 628.09 131.85
C 637.33 127.23 641.93 122.37 646.55 112.32
C 653.36 97.52 647.83 75.08 633.95 61.21
C 621.76 49.01 650.39 50.20 364.92 50.16
C 155.85 50.13 112.30 50.44 110.28 51.90
C 108.95 52.88 105.99 56.89 103.69 60.80
C 89.91 84.37 46.89 90.15 21.99 71.79
C 4.11 58.60 4.11 29.79 21.99 16.60
C 47.26 -2.03 91.03 4.22 103.84 28.30
C 106.12 32.61 109.06 36.91 110.36 37.86
C 112.27 39.26 159.78 39.58 365.86 39.58
C 618.00 39.58 619.05 39.59 626.26 42.28
C 640.08 47.45 651.88 61.40 656.77 78.31
C 658.46 84.18 658.86 89.62 658.47 100.74
C 658.01 113.55 657.48 116.28 654.42 122.03
C 648.01 134.02 640.86 140.01 628.28 143.93
C 620.45 146.36 612.24 146.44 365.46 146.44
C 191.99 146.44 109.90 146.87 108.15 147.81
C 106.74 148.56 103.81 152.72 101.62 157.04
C 96.78 166.64 88.78 172.97 76.56 176.89
C 63.98 180.91 50.36 181.35 38.28 178.10
M 67.51 167.55
C 82.50 162.81 93.77 151.65 93.70 141.54
C 93.65 131.20 80.14 119.12 64.35 115.25
C 56.08 113.23 54.81 113.23 46.53 115.25
C 30.74 119.12 17.24 131.20 17.19 141.54
C 17.12 151.48 28.28 162.73 42.90 167.47
C 53.08 170.77 57.24 170.78 67.51 167.55
M 70.15 69.92
C 85.15 65.18 96.41 54.02 96.34 43.92
C 96.29 33.67 82.91 21.65 66.99 17.52
C 58.51 15.33 57.66 15.33 49.17 17.52
C 33.25 21.65 19.88 33.67 19.83 43.92
C 19.76 53.58 30.55 64.71 44.88 69.78
C 54.32 73.13 59.89 73.15 70.15 69.92"/>
<path fill="#ae3c2a" stroke="none" d="
M 341.82 490.84
L 338.60 488.11
L 342.56 484.80
C 344.88 482.85 352.79 479.55 361.70 476.82
C 419.27 459.16 438.78 449.12 443.55 434.71
C 445.65 428.32 444.60 418.14 440.96 409.71
C 439.41 406.13 433.22 395.74 427.19 386.62
C 413.15 365.38 381.57 314.75 371.19 296.83
C 366.78 289.21 360.17 275.84 356.50 267.12
C 347.05 244.67 340.47 237.52 335.00 243.73
C 331.92 247.22 326.90 257.88 322.11 271.11
C 313.90 293.73 291.61 334.25 256.77 389.84
C 234.23 425.79 234.31 425.55 234.31 453.83
C 234.31 478.98 233.96 480.47 226.71 485.99
C 219.66 491.35 216.97 491.36 200.70 486.11
C 183.86 480.66 183.74 480.67 166.48 487.41
L 154.50 492.08
L 114.87 492.08
C 77.00 492.08 75.13 491.97 72.60 489.45
C 69.44 486.28 69.38 485.59 71.98 481.87
C 74.24 478.65 79.42 476.91 93.07 474.79
C 113.16 471.65 145.49 459.10 162.29 447.94
C 185.43 432.57 196.65 414.47 213.83 364.89
C 233.01 309.50 259.24 252.47 288.82 201.85
C 300.21 182.35 318.64 154.47 321.29 152.73
C 322.10 152.19 327.29 151.74 332.83 151.74
L 342.89 151.72
L 364.70 183.05
C 402.25 237.01 427.06 277.10 444.71 312.39
C 449.69 322.34 462.45 352.22 473.08 378.80
C 483.70 405.38 495.98 435.36 500.36 445.42
C 504.75 455.49 508.64 466.09 509.02 469.00
C 510.08 476.98 505.33 485.29 497.51 489.17
C 491.84 491.99 491.08 492.07 486.29 490.29
C 483.48 489.25 476.54 486.70 470.87 484.63
L 460.56 480.87
L 449.75 486.81
L 438.93 492.74
L 391.98 493.17
C 346.12 493.58 344.98 493.52 341.82 490.84"/>
</g>
</svg>
