<?xml version="1.0" encoding="UTF-8" standalone="no"?>
<!DOCTYPE svg PUBLIC "-//W3C//DTD SVG 1.1//EN"
"http://www.w3.org/Graphics/SVG/1.1/DTD/svg11.dtd">
<svg width="272px" height="600px"
xmlns="http://www.w3.org/2000/svg" version="1.1">
<g transform="translate(0000, 0000) scale(1.0000, 1.0000)">
<path fill="#000000" stroke="none" d="
M 49.99 598.23
C 49.62 597.26 53.52 584.84 58.66 570.64
C 89.90 484.32 99.05 451.64 104.83 405.84
C 108.41 377.47 106.09 350.44 96.33 306.49
C 93.74 294.83 86.00 265.35 83.11 256.17
L 81.78 251.95
L 54.74 251.95
C 29.83 251.95 27.42 251.74 24.44 249.40
C 20.65 246.43 17.76 237.08 15.59 220.78
C 14.78 214.70 11.83 198.31 9.02 184.35
C 2.00 149.45 0.05 134.53 0.04 115.58
C 0.01 86.36 3.08 67.38 8.71 62.10
C 11.75 59.25 13.11 59.05 34.74 58.44
L 57.56 57.79
L 59.80 50.65
C 65.80 31.48 76.59 18.35 92.86 10.39
C 107.95 3.01 117.47 0.91 136.00 0.88
C 154.48 0.84 163.84 2.91 179.14 10.39
C 195.41 18.35 206.20 31.48 212.20 50.65
L 214.44 57.79
L 237.26 58.44
C 258.89 59.05 260.25 59.25 263.29 62.10
C 268.92 67.38 271.99 86.36 271.96 115.58
C 271.95 134.53 270.00 149.45 262.98 184.35
C 260.17 198.31 257.22 214.70 256.41 220.78
C 254.24 237.08 251.35 246.43 247.56 249.40
C 244.58 251.74 242.17 251.95 217.26 251.95
L 190.22 251.95
L 188.89 256.17
C 179.39 286.39 170.58 326.74 167.25 355.18
C 164.84 375.81 164.83 387.25 167.17 405.84
C 172.95 451.64 182.10 484.32 213.34 570.64
C 218.48 584.84 222.38 597.26 222.01 598.23
C 221.00 600.87 51.00 600.87 49.99 598.23
M 208.32 578.25
C 204.82 568.43 197.51 547.96 192.08 532.77
C 179.62 497.97 171.62 470.45 167.21 447.31
C 165.32 437.36 163.51 427.91 163.20 426.30
C 162.63 423.38 162.58 423.38 136.00 423.38
C 109.42 423.38 109.37 423.38 108.80 426.30
C 108.49 427.91 106.68 437.36 104.79 447.31
C 100.38 470.45 92.38 497.97 79.92 532.77
C 74.49 547.96 67.18 568.43 63.68 578.25
L 57.32 596.10
L 136.00 596.10
L 214.68 596.10
L 208.32 578.25
M 161.38 414.61
C 161.38 413.36 160.70 407.52 159.88 401.62
L 158.38 390.91
L 136.00 390.91
L 113.62 390.91
L 112.12 401.62
C 111.30 407.52 110.62 413.36 110.62 414.61
C 110.62 416.70 112.70 416.88 136.00 416.88
C 159.30 416.88 161.38 416.70 161.38 414.61
M 158.78 376.78
C 158.78 372.58 159.14 367.32 159.58 365.09
L 160.40 361.04
L 136.00 361.04
L 111.60 361.04
L 112.42 365.09
C 112.86 367.32 113.22 372.58 113.22 376.78
L 113.22 384.42
L 136.00 384.42
L 158.78 384.42
L 158.78 376.78
M 160.58 351.62
C 160.90 350.01 162.38 340.73 163.89 330.97
C 166.64 313.23 173.27 284.57 180.85 257.79
C 183.07 249.94 185.51 239.12 186.26 233.77
C 187.02 228.42 190.83 211.45 194.73 196.10
C 203.23 162.75 206.17 144.19 208.32 110.39
C 211.93 53.62 202.18 28.96 170.41 14.52
C 158.62 9.16 149.53 7.22 136.00 7.22
C 110.44 7.22 87.07 18.06 75.56 35.26
C 64.47 51.83 61.26 72.18 63.68 110.39
C 65.83 144.19 68.77 162.75 77.27 196.10
C 81.17 211.45 84.98 228.42 85.74 233.77
C 86.49 239.12 88.93 249.94 91.15 257.79
C 98.73 284.57 105.36 313.23 108.11 330.97
C 109.62 340.73 111.10 350.01 111.42 351.62
C 111.98 354.53 112.12 354.55 136.00 354.55
C 159.88 354.55 160.02 354.53 160.58 351.62
M 80.69 245.13
C 80.66 241.65 75.55 218.12 71.07 200.91
C 60.50 160.34 55.61 125.42 55.43 89.29
L 55.31 64.94
L 36.05 64.94
C 17.10 64.94 16.75 64.99 13.73 68.23
C 9.72 72.56 7.90 82.75 6.94 106.49
C 6.04 128.31 7.05 137.55 14.47 175.19
C 17.35 189.77 20.80 209.17 22.14 218.30
C 24.44 233.91 27.08 242.25 30.44 244.45
C 31.72 245.30 80.69 245.95 80.69 245.13
M 241.56 244.45
C 244.92 242.25 247.56 233.91 249.86 218.30
C 251.20 209.17 254.65 189.77 257.53 175.19
C 264.95 137.55 265.96 128.31 265.06 106.49
C 264.10 82.75 262.28 72.56 258.27 68.23
C 255.25 64.99 254.90 64.94 235.95 64.94
L 216.69 64.94
L 216.57 89.29
C 216.39 125.42 211.50 160.34 200.93 200.91
C 196.45 218.12 191.34 241.65 191.31 245.13
C 191.31 245.95 240.28 245.30 241.56 244.45"/>
<path fill="#efcd7d" stroke="none" d="
M 63.68 578.25
C 67.18 568.43 74.49 547.96 79.92 532.77
C 92.38 497.97 100.38 470.45 104.79 447.31
C 106.68 437.36 108.49 427.91 108.80 426.30
C 109.37 423.38 109.42 423.38 136.00 423.38
C 162.58 423.38 162.63 423.38 163.20 426.30
C 163.51 427.91 165.32 437.36 167.21 447.31
C 171.62 470.45 179.62 497.97 192.08 532.77
C 197.51 547.96 204.82 568.43 208.32 578.25
L 214.68 596.10
L 136.00 596.10
L 57.32 596.10
L 63.68 578.25"/>
<path fill="#efcd7d" stroke="none" d="
M 111.42 351.62
C 111.10 350.01 109.62 340.73 108.11 330.97
C 105.36 313.23 98.73 284.57 91.15 257.79
C 88.93 249.94 86.49 239.12 85.74 233.77
C 84.98 228.42 81.17 211.45 77.27 196.10
C 68.77 162.75 65.83 144.19 63.68 110.39
C 61.90 82.31 62.95 66.87 67.67 51.58
C 76.15 24.21 102.03 7.47 136.00 7.36
C 169.69 7.27 195.84 24.21 204.33 51.58
C 209.05 66.87 210.10 82.31 208.32 110.39
C 206.17 144.19 203.23 162.75 194.73 196.10
C 190.83 211.45 187.02 228.42 186.26 233.77
C 185.51 239.12 183.07 249.94 180.85 257.79
C 173.27 284.57 166.64 313.23 163.89 330.97
C 162.38 340.73 160.90 350.01 160.58 351.62
C 160.02 354.53 159.88 354.55 136.00 354.55
C 112.12 354.55 111.98 354.53 111.42 351.62"/>
<path fill="#efcd7d" stroke="none" d="
M 30.44 244.45
C 27.08 242.25 24.44 233.91 22.14 218.30
C 20.80 209.17 17.35 189.77 14.47 175.19
C 7.05 137.55 6.04 128.31 6.94 106.49
C 7.90 82.75 9.72 72.56 13.73 68.23
C 16.75 64.99 17.10 64.94 36.05 64.94
L 55.31 64.94
L 55.43 89.29
C 55.61 125.42 60.50 160.34 71.07 200.91
C 75.55 218.12 80.66 241.65 80.69 245.13
C 80.69 245.95 31.72 245.30 30.44 244.45"/>
<path fill="#efcd7d" stroke="none" d="
M 191.31 245.13
C 191.34 241.65 196.45 218.12 200.93 200.91
C 211.50 160.34 216.39 125.42 216.57 89.29
L 216.69 64.94
L 235.95 64.94
C 254.90 64.94 255.25 64.99 258.27 68.23
C 262.28 72.56 264.10 82.75 265.06 106.49
C 265.96 128.31 264.95 137.55 257.53 175.19
C 254.65 189.77 251.20 209.17 249.86 218.30
C 247.56 233.91 244.92 242.25 241.56 244.45
C 240.28 245.30 191.31 245.95 191.31 245.13"/>
<path fill="#c57a36" stroke="none" d="
M 110.62 414.61
C 110.62 413.36 111.30 407.52 112.12 401.62
L 113.62 390.91
L 136.00 390.91
L 158.38 390.91
L 159.88 401.62
C 160.70 407.52 161.38 413.36 161.38 414.61
C 161.38 416.70 159.30 416.88 136.00 416.88
C 112.70 416.88 110.62 416.70 110.62 414.61"/>
<path fill="#c57a36" stroke="none" d="
M 112.94 373.70
C 112.63 367.81 112.60 362.55 112.87 362.01
C 113.15 361.48 123.96 361.04 136.88 361.04
L 160.40 361.04
L 159.58 365.09
C 159.14 367.32 158.78 372.58 158.78 376.78
L 158.78 384.42
L 136.14 384.42
L 113.50 384.42
L 112.94 373.70"/>
</g>
</svg>
