<?xml version="1.0" encoding="UTF-8" standalone="no"?>
<!DOCTYPE svg PUBLIC "-//W3C//DTD SVG 1.1//EN"
"http://www.w3.org/Graphics/SVG/1.1/DTD/svg11.dtd">
<svg width="718px" height="250px"
xmlns="http://www.w3.org/2000/svg" version="1.1">
<g transform="translate(0000, 0000) scale(1.0000, 1.0000)">
<path fill="#000000" stroke="none" d="
M 245.12 248.21
C 241.36 246.34 241.19 245.99 235.94 229.08
C 232.86 219.15 225.61 204.69 218.15 193.58
C 214.67 188.41 202.14 171.76 190.29 156.56
C 178.43 141.38 166.37 124.85 163.50 119.84
C 152.91 101.41 148.11 84.67 148.10 66.23
C 148.08 44.61 153.49 30.16 166.39 17.24
C 174.77 8.87 182.34 4.53 193.69 1.61
C 202.12 -0.55 222.74 -0.55 231.19 1.61
C 261.34 9.35 277.28 35.82 270.10 66.23
C 265.88 84.09 253.24 96.68 236.11 100.05
C 216.97 103.81 199.14 94.74 190.23 76.76
C 186.68 69.55 186.38 68.28 186.05 58.20
C 185.76 50.05 186.07 46.44 187.26 43.59
C 188.70 40.13 189.19 39.80 192.82 39.80
C 198.54 39.80 198.94 40.38 209.43 64.08
C 212.34 70.66 219.11 77.17 223.99 78.09
C 231.64 79.52 244.60 69.85 247.13 60.82
C 248.90 54.51 248.02 44.45 245.21 38.96
C 242.20 33.05 235.90 27.16 228.96 23.78
C 223.95 21.33 222.03 20.97 214.00 21.01
C 199.32 21.07 189.17 24.93 181.91 33.19
C 170.29 46.42 169.98 72.18 181.16 96.37
C 186.81 108.59 194.60 119.64 218.44 149.32
C 230.72 164.59 242.37 179.60 244.33 182.67
C 253.39 196.84 259.37 211.86 263.08 229.76
C 265.44 241.12 264.28 246.30 258.88 248.55
C 254.22 250.49 249.45 250.38 245.12 248.21
M 257.50 242.73
C 259.36 240.88 259.58 239.81 259.04 235.21
C 257.48 221.97 249.42 201.06 240.47 187.09
C 238.38 183.83 226.63 168.67 214.36 153.40
C 202.09 138.13 189.48 121.70 186.34 116.89
C 175.03 99.55 169.90 84.87 168.86 66.84
C 167.27 39.63 175.35 24.60 194.70 18.71
C 199.11 17.37 204.20 16.88 213.97 16.87
C 226.45 16.84 227.59 17.01 233.03 19.67
C 239.96 23.07 246.24 28.94 249.36 34.91
C 252.22 40.38 253.27 57.58 251.20 64.97
C 249.68 70.41 242.81 77.71 236.44 80.69
C 231.57 82.97 222.01 83.27 217.26 81.28
C 212.76 79.40 207.09 72.86 204.71 66.83
C 201.43 58.50 194.64 45.50 193.38 45.13
C 191.38 44.55 189.67 51.90 190.23 58.77
C 190.90 67.09 195.46 76.90 201.87 83.73
C 207.83 90.10 213.07 93.28 221.12 95.37
C 245.63 101.77 271.79 72.91 266.67 45.13
C 260.42 11.22 219.73 -6.03 184.86 10.45
C 175.89 14.68 163.93 26.59 159.50 35.71
C 152.31 50.50 150.46 66.78 154.21 82.38
C 159.55 104.64 166.51 116.80 194.35 152.48
C 229.16 197.11 234.93 206.82 243.00 234.39
C 245.33 242.33 247.64 244.90 252.49 244.90
C 254.06 244.90 256.31 243.92 257.50 242.73"/>
<path fill="#000000" stroke="none" d="
M 393.52 248.50
C 390.66 247.26 389.98 246.14 388.07 239.61
C 379.95 211.89 374.23 202.27 339.38 157.58
C 317.18 129.12 309.60 117.50 304.32 103.81
C 299.12 90.35 297.22 80.46 297.22 66.74
C 297.20 44.57 302.49 30.28 315.50 17.24
C 323.89 8.87 331.45 4.53 342.80 1.61
C 351.24 -0.55 371.86 -0.55 380.31 1.61
C 410.45 9.35 426.40 35.82 419.22 66.23
C 413.93 88.67 394.76 102.80 372.41 100.70
C 357.34 99.31 346.17 91.56 339.35 77.77
C 335.72 70.45 335.49 69.37 335.15 58.68
C 334.88 50.12 335.17 46.45 336.38 43.58
C 337.82 40.13 338.31 39.80 341.93 39.80
C 347.65 39.80 348.05 40.38 358.54 64.08
C 361.45 70.66 368.22 77.17 373.10 78.09
C 380.75 79.53 393.72 69.85 396.25 60.82
C 397.98 54.62 397.12 45.44 394.27 39.86
C 391.21 33.89 384.10 27.22 377.15 23.82
C 372.18 21.39 370.14 21.00 362.63 21.03
C 329.97 21.15 315.39 44.42 324.84 81.33
C 329.39 99.11 337.19 111.54 367.56 149.32
C 379.84 164.59 391.49 179.60 393.45 182.67
C 402.51 196.84 408.48 211.86 412.19 229.76
C 414.55 241.12 413.40 246.30 407.99 248.55
C 403.63 250.37 397.77 250.35 393.52 248.50
M 407.77 241.18
C 409.96 236.36 404.36 215.07 397.04 200.51
C 390.60 187.68 387.24 182.97 363.47 153.40
C 351.21 138.13 338.59 121.70 335.46 116.89
C 324.14 99.55 319.01 84.87 317.97 66.84
C 316.39 39.63 324.48 24.59 343.81 18.71
C 348.16 17.40 353.31 16.89 362.57 16.87
C 374.52 16.84 375.71 17.02 381.18 19.70
C 388.19 23.14 395.27 29.77 398.43 35.86
C 401.32 41.41 402.38 57.62 400.31 64.97
C 398.79 70.41 391.94 77.71 385.55 80.69
C 380.68 82.97 371.12 83.27 366.37 81.28
C 361.88 79.40 356.20 72.86 353.82 66.83
C 350.54 58.50 343.75 45.50 342.50 45.13
C 340.46 44.54 338.80 51.91 339.33 59.22
C 340.21 71.54 348.61 85.31 358.97 91.36
C 361.26 92.70 366.01 94.54 369.52 95.44
C 377.05 97.37 384.29 96.33 392.58 92.14
C 408.81 83.95 419.10 63.10 415.79 45.13
C 409.54 11.22 368.85 -6.03 333.98 10.45
C 325.01 14.68 313.05 26.59 308.62 35.71
C 299.10 55.29 299.03 75.45 308.40 99.72
C 313.68 113.42 321.26 125.04 343.47 153.50
C 378.31 198.18 384.03 207.81 392.15 235.53
C 394.05 242.04 394.75 243.17 397.54 244.34
C 401.59 246.04 406.20 244.62 407.77 241.18"/>
<path fill="#000000" stroke="none" d="
M 542.64 248.50
C 539.78 247.26 539.09 246.14 537.18 239.61
C 529.06 211.89 523.34 202.27 488.50 157.58
C 466.29 129.12 458.71 117.50 453.43 103.81
C 448.23 90.35 446.33 80.46 446.33 66.74
C 446.31 44.57 451.60 30.28 464.62 17.24
C 477.22 4.65 489.50 0.00 510.16 0.00
C 529.39 0.00 542.48 4.62 554.19 15.56
C 567.69 28.18 572.91 46.86 568.33 66.23
C 563.04 88.67 543.87 102.80 521.53 100.70
C 506.45 99.31 495.29 91.56 488.46 77.77
C 484.84 70.45 484.60 69.37 484.27 58.68
C 483.81 44.21 485.27 39.80 490.52 39.80
C 496.00 39.80 497.31 41.72 507.66 65.12
C 510.56 71.67 516.38 77.18 521.37 78.12
C 526.61 79.11 532.65 76.49 538.85 70.54
C 545.01 64.62 546.98 59.14 546.16 50.15
C 545.17 39.29 537.72 29.42 526.26 23.82
C 521.29 21.39 519.26 21.00 511.74 21.03
C 497.58 21.08 487.31 25.03 480.14 33.19
C 468.46 46.49 468.14 73.06 479.40 97.39
C 485.04 109.61 492.83 120.66 516.67 150.34
C 528.95 165.61 540.60 180.62 542.56 183.69
C 551.50 197.66 557.43 212.47 561.26 230.39
C 563.59 241.29 562.44 246.33 557.11 248.55
C 552.75 250.37 546.89 250.35 542.64 248.50
M 556.85 241.24
C 558.94 236.67 553.31 215.77 546.16 201.53
C 539.72 188.70 536.36 183.99 512.59 154.42
C 500.32 139.15 487.71 122.72 484.57 117.91
C 473.12 100.37 468.09 85.80 467.08 67.35
C 465.56 39.51 473.47 24.62 492.93 18.71
C 497.28 17.40 502.43 16.89 511.69 16.87
C 523.64 16.84 524.82 17.02 530.30 19.70
C 537.31 23.14 544.38 29.77 547.55 35.86
C 550.44 41.41 551.49 57.62 549.43 64.97
C 547.91 70.41 541.05 77.71 534.67 80.69
C 530.07 82.85 519.70 83.31 515.08 81.57
C 510.71 79.93 506.12 74.97 503.51 69.07
C 496.20 52.56 493.85 47.84 492.23 46.39
C 490.57 44.88 490.35 45.03 489.19 48.55
C 487.20 54.60 488.42 65.04 492.05 72.79
C 497.71 84.86 506.47 92.33 518.63 95.44
C 523.97 96.80 525.99 96.87 530.87 95.87
C 548.38 92.26 561.47 78.17 564.84 59.34
C 569.86 31.31 542.91 4.08 510.16 4.08
C 493.86 4.08 480.31 9.71 468.70 21.33
C 445.52 44.52 444.46 79.57 465.81 116.78
C 468.68 121.79 480.73 138.32 492.58 153.50
C 527.43 198.18 533.15 207.81 541.27 235.53
C 543.17 242.04 543.86 243.17 546.65 244.34
C 550.67 246.03 555.31 244.63 556.85 241.24"/>
<path fill="#000000" stroke="none" d="
M 96.31 247.48
C 93.45 246.23 92.77 245.12 90.86 238.59
C 82.74 210.87 77.02 201.24 42.17 156.56
C 30.32 141.38 18.27 124.85 15.40 119.84
C 4.82 101.41 0.02 84.67 0.01 66.23
C -0.01 44.61 5.39 30.16 18.29 17.24
C 30.88 4.67 43.20 0.04 64.20 0.01
C 82.71 -0.01 96.10 4.65 107.30 15.02
C 131.16 37.08 126.28 81.12 98.41 95.22
C 77.16 105.98 52.62 97.93 42.15 76.77
C 38.59 69.55 38.29 68.29 37.95 58.20
C 37.47 44.24 38.98 39.80 44.21 39.80
C 49.34 39.80 50.00 40.79 60.31 64.08
C 63.26 70.77 69.98 77.17 75.02 78.12
C 83.24 79.66 96.42 70.16 99.04 60.82
C 100.82 54.47 99.93 44.45 97.08 38.89
C 94.00 32.86 86.92 26.20 79.91 22.79
C 74.83 20.31 72.94 19.95 64.89 19.99
C 50.21 20.05 40.06 23.91 32.80 32.17
C 21.11 45.47 20.79 72.04 32.05 96.37
C 37.70 108.59 45.48 119.64 69.33 149.32
C 81.60 164.59 93.26 179.60 95.22 182.67
C 104.16 196.64 110.08 211.45 113.91 229.37
C 116.25 240.27 115.09 245.31 109.76 247.53
C 105.42 249.34 100.55 249.33 96.31 247.48
M 108.37 241.72
C 110.21 239.89 110.44 238.83 109.88 234.56
C 108.11 221.27 100.11 200.77 91.36 187.09
C 89.26 183.83 77.52 168.67 65.24 153.40
C 52.98 138.13 40.36 121.70 37.23 116.89
C 25.78 99.35 20.74 84.78 19.73 66.33
C 18.21 38.49 26.12 23.61 45.58 17.69
C 49.99 16.35 55.08 15.86 64.85 15.85
C 77.37 15.82 78.47 15.98 83.97 18.68
C 90.98 22.12 98.06 28.74 101.23 34.84
C 104.13 40.38 105.19 57.53 103.10 64.97
C 101.58 70.41 94.72 77.71 88.35 80.69
C 83.75 82.85 73.37 83.31 68.76 81.57
C 64.34 79.92 58.76 73.91 56.16 68.04
C 45.32 43.58 44.78 42.79 42.87 48.57
C 39.76 57.96 44.47 73.67 53.22 83.16
C 61.68 92.34 73.61 96.88 83.75 94.80
C 101.01 91.24 114.14 77.05 117.49 58.32
C 122.48 30.45 96.39 4.08 63.83 4.08
C 47.53 4.08 33.99 9.71 22.38 21.33
C 6.64 37.08 0.64 59.58 6.12 82.38
C 11.46 104.64 18.41 116.80 46.26 152.48
C 81.07 197.11 86.83 206.82 94.90 234.40
C 96.11 238.50 97.84 242.21 98.83 242.79
C 101.77 244.49 106.09 244.01 108.37 241.72"/>
<path fill="#000000" stroke="none" d="
M 691.75 247.48
C 688.89 246.23 688.21 245.12 686.30 238.59
C 678.18 210.87 672.46 201.24 637.61 156.56
C 625.76 141.38 613.71 124.85 610.84 119.84
C 600.26 101.41 595.46 84.67 595.45 66.23
C 595.43 44.61 600.83 30.16 613.73 17.24
C 626.33 4.65 638.61 0.00 659.27 0.00
C 678.19 0.00 691.47 4.59 702.74 15.02
C 726.60 37.08 721.72 81.12 693.85 95.22
C 672.59 105.99 648.06 97.93 637.58 76.74
C 633.95 69.42 633.72 68.36 633.38 57.60
C 632.93 43.60 634.29 39.80 639.73 39.80
C 644.77 39.80 645.47 40.86 655.75 64.08
C 658.70 70.77 665.42 77.17 670.46 78.12
C 678.68 79.66 691.86 70.16 694.48 60.82
C 696.26 54.47 695.37 44.45 692.52 38.89
C 689.44 32.86 682.36 26.20 675.35 22.79
C 670.27 20.31 668.38 19.95 660.33 19.99
C 645.65 20.05 635.50 23.91 628.23 32.17
C 616.55 45.47 616.23 72.04 627.49 96.37
C 633.14 108.59 640.92 119.64 664.77 149.32
C 677.04 164.59 688.70 179.60 690.66 182.67
C 699.60 196.64 705.52 211.45 709.35 229.37
C 711.69 240.27 710.53 245.31 705.20 247.53
C 700.86 249.34 695.99 249.33 691.75 247.48
M 703.81 241.72
C 705.65 239.89 705.88 238.83 705.31 234.56
C 703.55 221.27 695.55 200.77 686.80 187.09
C 684.70 183.83 672.96 168.67 660.68 153.40
C 648.42 138.13 635.80 121.70 632.67 116.89
C 621.22 99.35 616.18 84.78 615.17 66.33
C 613.65 38.49 621.56 23.61 641.02 17.69
C 645.43 16.35 650.52 15.86 660.29 15.85
C 672.81 15.82 673.91 15.98 679.41 18.68
C 686.42 22.12 693.50 28.74 696.67 34.84
C 699.56 40.38 700.63 57.53 698.54 64.97
C 697.02 70.41 690.16 77.71 683.79 80.69
C 679.19 82.85 668.81 83.31 664.20 81.57
C 659.78 79.92 654.20 73.91 651.60 68.04
C 644.59 52.21 641.96 46.81 640.85 45.89
C 638.67 44.08 636.99 50.30 637.55 58.09
C 639.12 80.09 660.22 98.69 679.19 94.80
C 696.45 91.24 709.58 77.05 712.93 58.32
C 717.92 30.45 691.83 4.08 659.27 4.08
C 642.97 4.08 629.43 9.71 617.82 21.33
C 602.08 37.08 596.08 59.58 601.56 82.38
C 606.90 104.64 613.85 116.80 641.70 152.48
C 676.51 197.11 682.27 206.82 690.34 234.40
C 691.55 238.50 693.28 242.21 694.27 242.79
C 697.21 244.49 701.53 244.01 703.81 241.72"/>
<path fill="#cf9e66" stroke="none" d="
M 397.54 244.34
C 394.75 243.17 394.05 242.04 392.15 235.53
C 384.03 207.81 378.31 198.18 343.47 153.50
C 315.62 117.82 308.67 105.66 303.33 83.40
C 297.74 60.14 303.77 37.16 319.59 21.33
C 331.33 9.58 344.72 4.08 361.55 4.08
C 394.98 4.08 420.89 30.45 415.75 59.22
C 412.35 78.17 399.31 92.24 381.76 95.87
C 371.23 98.04 359.00 93.48 350.43 84.18
C 344.26 77.50 339.93 67.79 339.33 59.22
C 338.80 51.91 340.46 44.54 342.50 45.13
C 343.75 45.50 350.54 58.50 353.82 66.83
C 356.20 72.86 361.88 79.40 366.37 81.28
C 371.12 83.27 380.68 82.97 385.55 80.69
C 391.94 77.71 398.79 70.41 400.31 64.97
C 402.38 57.62 401.32 41.41 398.43 35.86
C 395.27 29.77 388.19 23.14 381.18 19.70
C 375.71 17.02 374.52 16.84 362.57 16.87
C 353.31 16.89 348.16 17.40 343.81 18.71
C 324.48 24.59 316.39 39.63 317.97 66.84
C 319.01 84.87 324.14 99.55 335.46 116.89
C 338.59 121.70 351.21 138.13 363.47 153.40
C 387.24 182.97 390.60 187.68 397.04 200.51
C 404.36 215.07 409.96 236.36 407.77 241.18
C 406.20 244.62 401.59 246.04 397.54 244.34"/>
<path fill="#cf9e66" stroke="none" d="
M 546.65 244.34
C 543.86 243.17 543.17 242.04 541.27 235.53
C 533.15 207.81 527.43 198.18 492.58 153.50
C 470.38 125.04 462.80 113.42 457.52 99.72
C 448.14 75.45 448.21 55.29 457.73 35.71
C 462.17 26.59 474.13 14.68 483.09 10.45
C 506.42 -0.58 532.26 2.97 550.10 19.64
C 561.78 30.55 567.32 45.49 564.84 59.34
C 561.47 78.17 548.38 92.26 530.87 95.87
C 520.34 98.04 508.12 93.48 499.55 84.18
C 490.66 74.55 485.95 58.36 489.19 48.55
C 491.23 42.39 492.48 44.18 503.51 69.07
C 506.12 74.97 510.71 79.93 515.08 81.57
C 519.70 83.31 530.07 82.85 534.67 80.69
C 541.05 77.71 547.91 70.41 549.43 64.97
C 551.49 57.62 550.44 41.41 547.55 35.86
C 544.38 29.77 537.31 23.14 530.30 19.70
C 524.82 17.02 523.64 16.84 511.69 16.87
C 502.43 16.89 497.28 17.40 492.93 18.71
C 473.47 24.62 465.56 39.51 467.08 67.35
C 468.09 85.80 473.12 100.37 484.57 117.91
C 487.71 122.72 500.32 139.15 512.59 154.42
C 536.36 183.99 539.72 188.70 546.16 201.53
C 553.31 215.77 558.94 236.67 556.85 241.24
C 555.31 244.63 550.67 246.03 546.65 244.34"/>
<path fill="#cf9e66" stroke="none" d="
M 247.41 243.32
C 245.95 242.31 244.39 239.13 243.00 234.39
C 234.93 206.82 229.16 197.11 194.35 152.48
C 166.51 116.80 159.55 104.64 154.21 82.38
C 148.74 59.58 154.73 37.08 170.47 21.33
C 182.22 9.58 195.61 4.08 212.44 4.08
C 245.87 4.08 271.78 30.45 266.63 59.22
C 263.26 78.07 250.18 92.26 232.86 95.82
C 226.31 97.16 217.86 95.45 210.88 91.36
C 200.34 85.19 191.19 70.76 190.23 58.77
C 189.67 51.90 191.38 44.55 193.38 45.13
C 194.64 45.50 201.43 58.50 204.71 66.83
C 207.09 72.86 212.76 79.40 217.26 81.28
C 222.01 83.27 231.57 82.97 236.44 80.69
C 242.81 77.71 249.68 70.41 251.20 64.97
C 253.27 57.58 252.22 40.38 249.36 34.91
C 246.24 28.94 239.96 23.07 233.03 19.67
C 227.59 17.01 226.45 16.84 213.97 16.87
C 204.20 16.88 199.11 17.37 194.70 18.71
C 175.35 24.60 167.27 39.63 168.86 66.84
C 169.90 84.87 175.03 99.55 186.34 116.89
C 189.48 121.70 202.09 138.13 214.36 153.40
C 226.63 168.67 238.38 183.83 240.47 187.09
C 249.42 201.06 257.48 221.97 259.04 235.21
C 259.58 239.81 259.36 240.88 257.50 242.73
C 254.95 245.29 250.57 245.54 247.41 243.32"/>
<path fill="#cf9e66" stroke="none" d="
M 98.83 242.79
C 97.84 242.21 96.11 238.50 94.90 234.40
C 86.83 206.82 81.07 197.11 46.26 152.48
C 18.41 116.80 11.46 104.64 6.12 82.38
C 0.64 59.58 6.64 37.08 22.38 21.33
C 34.03 9.67 47.49 4.13 64.20 4.09
C 96.34 4.03 122.46 30.60 117.49 58.32
C 114.14 77.05 101.01 91.24 83.75 94.80
C 73.61 96.88 61.68 92.34 53.22 83.16
C 44.47 73.67 39.76 57.96 42.87 48.57
C 44.78 42.79 45.32 43.58 56.16 68.04
C 58.76 73.91 64.34 79.92 68.76 81.57
C 73.37 83.31 83.75 82.85 88.35 80.69
C 94.72 77.71 101.58 70.41 103.10 64.97
C 105.19 57.53 104.13 40.38 101.23 34.84
C 98.06 28.74 90.98 22.12 83.97 18.68
C 78.47 15.98 77.37 15.82 64.85 15.85
C 55.08 15.86 49.99 16.35 45.58 17.69
C 26.12 23.61 18.21 38.49 19.73 66.33
C 20.74 84.78 25.78 99.35 37.23 116.89
C 40.36 121.70 52.98 138.13 65.24 153.40
C 77.52 168.67 89.26 183.83 91.36 187.09
C 100.11 200.77 108.11 221.27 109.88 234.56
C 110.44 238.83 110.21 239.89 108.37 241.72
C 106.09 244.01 101.77 244.49 98.83 242.79"/>
<path fill="#cf9e66" stroke="none" d="
M 694.27 242.79
C 693.28 242.21 691.55 238.50 690.34 234.40
C 682.27 206.82 676.51 197.11 641.70 152.48
C 613.85 116.80 606.90 104.64 601.56 82.38
C 596.08 59.58 602.08 37.08 617.82 21.33
C 629.43 9.71 642.97 4.08 659.27 4.08
C 691.83 4.08 717.92 30.45 712.93 58.32
C 709.58 77.05 696.45 91.24 679.19 94.80
C 664.87 97.73 648.76 87.99 641.16 71.77
C 637.53 64.00 636.22 53.05 638.34 47.97
C 640.36 43.08 640.92 43.94 651.60 68.04
C 654.20 73.91 659.78 79.92 664.20 81.57
C 668.81 83.31 679.19 82.85 683.79 80.69
C 690.16 77.71 697.02 70.41 698.54 64.97
C 700.63 57.53 699.56 40.38 696.67 34.84
C 693.50 28.74 686.42 22.12 679.41 18.68
C 673.91 15.98 672.81 15.82 660.29 15.85
C 650.52 15.86 645.43 16.35 641.02 17.69
C 621.56 23.61 613.65 38.49 615.17 66.33
C 616.18 84.78 621.22 99.35 632.67 116.89
C 635.80 121.70 648.42 138.13 660.68 153.40
C 672.96 168.67 684.70 183.83 686.80 187.09
C 695.55 200.77 703.55 221.27 705.31 234.56
C 705.88 238.83 705.65 239.89 703.81 241.72
C 701.53 244.01 697.21 244.49 694.27 242.79"/>
</g>
</svg>
