<?xml version="1.0" encoding="UTF-8" standalone="no"?>
<!DOCTYPE svg PUBLIC "-//W3C//DTD SVG 1.1//EN"
"http://www.w3.org/Graphics/SVG/1.1/DTD/svg11.dtd">
<svg width="128px" height="300px"
xmlns="http://www.w3.org/2000/svg" version="1.1">
<g transform="translate(0000, 0000) scale(1.0000, 1.0000)">
<path fill="#000000" stroke="none" d="
M 1.66 298.34
C 0.06 296.73 0.00 295.58 0.02 264.89
C 0.03 229.88 0.83 220.11 4.56 208.89
C 7.54 199.96 12.52 191.85 18.87 185.60
C 36.83 167.91 72.05 164.38 97.66 177.71
C 104.71 181.38 114.12 190.40 117.91 197.11
C 119.38 199.71 121.52 204.57 122.66 207.91
C 126.89 220.30 127.32 224.86 127.75 261.90
C 128.16 296.22 128.15 296.53 126.42 298.25
C 124.09 300.59 118.67 300.64 116.36 298.34
C 114.78 296.75 114.70 295.55 114.68 271.54
C 114.67 235.10 113.36 225.22 106.74 211.36
C 104.38 206.42 101.67 202.28 99.03 199.56
C 87.43 187.66 69.62 181.72 54.86 184.82
C 36.22 188.73 21.91 202.65 16.70 221.93
C 13.92 232.17 13.30 240.91 13.30 269.43
C 13.30 295.57 13.23 296.74 11.64 298.34
C 10.53 299.44 8.87 300.00 6.65 300.00
C 4.43 300.00 2.77 299.44 1.66 298.34
M 9.11 295.07
C 9.66 294.06 9.97 283.40 9.97 266.17
C 9.97 251.16 10.36 235.70 10.84 231.83
C 12.87 215.24 17.70 204.13 26.98 194.80
C 34.36 187.37 41.88 183.51 53.87 180.99
C 61.68 179.35 62.99 179.29 68.83 180.27
C 89.77 183.76 102.58 192.39 110.06 208.04
C 116.69 221.90 117.99 231.77 118.01 268.27
C 118.02 284.02 118.35 294.07 118.89 295.07
C 120.03 297.20 122.72 297.12 123.90 294.91
C 125.40 292.11 124.39 232.60 122.71 223.96
C 119.66 208.37 114.90 198.67 105.94 189.78
C 95.82 179.73 83.69 174.81 66.91 173.96
C 54.02 173.30 45.09 174.96 35.16 179.90
C 17.85 188.48 7.62 204.41 4.53 227.59
C 3.10 238.37 2.82 292.51 4.19 295.07
C 4.65 295.95 5.77 296.68 6.65 296.68
C 7.53 296.68 8.64 295.95 9.11 295.07"/>
<path fill="#000000" stroke="none" d="
M 1.66 128.81
C 0.06 127.20 0.00 126.05 0.02 95.36
C 0.03 60.35 0.83 50.58 4.56 39.37
C 7.54 30.43 12.52 22.32 18.87 16.07
C 36.81 -1.61 72.08 -5.14 97.66 8.18
C 104.71 11.85 114.12 20.87 117.91 27.58
C 119.38 30.18 121.52 35.04 122.66 38.39
C 126.89 50.78 127.32 55.33 127.75 92.37
C 128.16 126.69 128.15 127.00 126.42 128.73
C 124.09 131.06 118.67 131.11 116.36 128.81
C 114.78 127.22 114.70 126.02 114.68 102.01
C 114.67 65.57 113.36 55.69 106.74 41.83
C 104.38 36.89 101.67 32.75 99.03 30.03
C 87.43 18.13 69.62 12.19 54.86 15.29
C 36.22 19.20 21.91 33.12 16.70 52.40
C 13.92 62.64 13.30 71.38 13.30 99.91
C 13.30 126.04 13.23 127.21 11.64 128.81
C 10.53 129.91 8.87 130.47 6.65 130.47
C 4.43 130.47 2.77 129.91 1.66 128.81
M 9.11 125.54
C 9.66 124.53 9.97 113.87 9.97 96.64
C 9.97 81.63 10.36 66.17 10.84 62.30
C 12.87 45.71 17.70 34.60 26.98 25.27
C 34.36 17.84 41.88 13.98 53.87 11.46
C 61.68 9.82 62.99 9.76 68.83 10.74
C 89.77 14.24 102.58 22.86 110.06 38.51
C 116.69 52.37 117.99 62.24 118.01 98.74
C 118.02 114.49 118.35 124.54 118.89 125.54
C 120.03 127.67 122.72 127.59 123.90 125.38
C 125.40 122.58 124.39 63.07 122.71 54.43
C 119.66 38.84 114.90 29.14 105.94 20.25
C 95.82 10.20 83.69 5.29 66.91 4.43
C 54.02 3.77 45.09 5.43 35.16 10.37
C 17.85 18.96 7.62 34.88 4.53 58.06
C 3.10 68.84 2.82 122.98 4.19 125.54
C 4.65 126.42 5.77 127.15 6.65 127.15
C 7.53 127.15 8.64 126.42 9.11 125.54"/>
<path fill="#c57a36" stroke="none" d="
M 4.19 295.07
C 2.82 292.51 3.10 238.37 4.53 227.59
C 9.28 191.90 32.22 172.18 66.91 173.96
C 83.69 174.81 95.82 179.73 105.94 189.78
C 114.90 198.67 119.66 208.37 122.71 223.96
C 124.39 232.60 125.40 292.11 123.90 294.91
C 122.72 297.12 120.03 297.20 118.89 295.07
C 118.35 294.07 118.02 284.02 118.01 268.27
C 117.99 231.77 116.69 221.90 110.06 208.04
C 102.58 192.39 89.77 183.76 68.83 180.27
C 62.99 179.29 61.68 179.35 53.87 180.99
C 41.88 183.51 34.36 187.37 26.98 194.80
C 17.70 204.13 12.87 215.24 10.84 231.83
C 10.36 235.70 9.97 251.16 9.97 266.17
C 9.97 283.40 9.66 294.06 9.11 295.07
C 8.64 295.95 7.53 296.68 6.65 296.68
C 5.77 296.68 4.65 295.95 4.19 295.07"/>
<path fill="#c57a36" stroke="none" d="
M 4.19 125.54
C 2.82 122.98 3.10 68.84 4.53 58.06
C 8.16 30.78 22.90 12.23 45.83 6.07
C 53.28 4.07 73.15 4.06 80.62 6.05
C 90.32 8.63 99.33 13.69 105.94 20.25
C 114.90 29.14 119.66 38.84 122.71 54.43
C 124.39 63.07 125.40 122.58 123.90 125.38
C 122.72 127.59 120.03 127.67 118.89 125.54
C 118.35 124.54 118.02 114.49 118.01 98.74
C 117.99 62.24 116.69 52.37 110.06 38.51
C 102.58 22.86 89.77 14.24 68.83 10.74
C 62.99 9.76 61.68 9.82 53.87 11.46
C 41.88 13.98 34.36 17.84 26.98 25.27
C 17.70 34.60 12.87 45.71 10.84 62.30
C 10.36 66.17 9.97 81.63 9.97 96.64
C 9.97 113.87 9.66 124.53 9.11 125.54
C 8.64 126.42 7.53 127.15 6.65 127.15
C 5.77 127.15 4.65 126.42 4.19 125.54"/>
</g>
</svg>
