<?xml version="1.0" encoding="UTF-8" standalone="no"?>
<!DOCTYPE svg PUBLIC "-//W3C//DTD SVG 1.1//EN"
"http://www.w3.org/Graphics/SVG/1.1/DTD/svg11.dtd">
<svg width="471px" height="300px"
xmlns="http://www.w3.org/2000/svg" version="1.1">
<g transform="translate(0000, 0000) scale(1.0000, 1.0000)">
<path fill="#000000" stroke="none" d="
M 1.65 298.36
C 0.06 296.77 0.00 295.63 0.02 265.27
C 0.03 230.65 0.82 220.98 4.52 209.89
C 7.47 201.06 12.40 193.04 18.69 186.85
C 36.49 169.36 71.38 165.86 96.75 179.05
C 103.74 182.68 113.06 191.60 116.81 198.24
C 118.27 200.81 120.38 205.62 121.51 208.92
C 125.70 221.18 126.13 225.68 126.56 262.32
C 126.96 296.26 126.96 296.56 125.24 298.27
C 122.93 300.58 117.56 300.63 115.28 298.36
C 113.71 296.79 113.63 295.60 113.62 271.85
C 113.60 235.81 112.31 226.04 105.74 212.33
C 103.41 207.44 100.72 203.35 98.10 200.66
C 86.62 188.89 68.97 183.02 54.35 186.08
C 35.88 189.95 21.71 203.71 16.54 222.78
C 13.79 232.92 13.17 241.55 13.17 269.77
C 13.17 295.62 13.11 296.78 11.53 298.36
C 10.43 299.45 8.79 300.00 6.59 300.00
C 4.39 300.00 2.74 299.45 1.65 298.36
M 9.02 295.13
C 9.57 294.12 9.88 283.58 9.88 266.54
C 9.88 251.70 10.27 236.41 10.74 232.58
C 12.75 216.17 17.54 205.18 26.73 195.95
C 34.04 188.61 41.49 184.78 53.37 182.29
C 61.11 180.67 62.40 180.61 68.19 181.58
C 88.94 185.04 101.63 193.57 109.04 209.05
C 115.60 222.76 116.89 232.52 116.91 268.62
C 116.92 284.19 117.25 294.13 117.78 295.13
C 118.91 297.23 121.58 297.15 122.75 294.96
C 124.23 292.20 123.23 233.34 121.56 224.79
C 118.54 209.38 113.83 199.78 104.95 190.99
C 94.92 181.05 82.91 176.19 66.29 175.34
C 53.51 174.69 44.67 176.33 34.83 181.22
C 17.68 189.71 7.55 205.45 4.49 228.39
C 3.07 239.05 2.79 292.59 4.15 295.13
C 4.61 296.00 5.71 296.71 6.59 296.71
C 7.46 296.71 8.56 296.00 9.02 295.13"/>
<path fill="#000000" stroke="none" d="
M 173.74 298.36
C 172.15 296.77 172.10 295.63 172.11 265.27
C 172.13 230.65 172.92 220.98 176.62 209.89
C 179.56 201.06 184.50 193.04 190.79 186.85
C 208.58 169.36 243.48 165.86 268.85 179.05
C 275.83 182.68 285.15 191.60 288.91 198.24
C 290.36 200.81 292.48 205.62 293.61 208.92
C 297.80 221.18 298.23 225.68 298.66 262.32
C 299.06 296.26 299.05 296.56 297.34 298.27
C 295.03 300.58 289.66 300.63 287.38 298.36
C 285.80 296.79 285.73 295.60 285.71 271.85
C 285.70 235.81 284.40 226.04 277.84 212.33
C 275.50 207.44 272.82 203.35 270.20 200.66
C 258.71 188.89 241.07 183.02 226.44 186.08
C 207.98 189.95 193.80 203.71 188.64 222.78
C 185.89 232.92 185.27 241.55 185.27 269.77
C 185.27 295.62 185.21 296.78 183.62 298.36
C 182.53 299.45 180.88 300.00 178.68 300.00
C 176.49 300.00 174.84 299.45 173.74 298.36
M 181.12 295.13
C 181.66 294.12 181.98 283.58 181.98 266.54
C 181.98 251.70 182.36 236.41 182.83 232.58
C 184.84 216.17 189.64 205.18 198.82 195.95
C 206.14 188.61 213.59 184.78 225.46 182.29
C 233.20 180.67 234.50 180.61 240.28 181.58
C 261.03 185.04 273.72 193.57 281.13 209.05
C 287.70 222.76 288.99 232.52 289.01 268.62
C 289.01 284.19 289.34 294.13 289.88 295.13
C 291.01 297.23 293.68 297.15 294.84 294.96
C 296.33 292.20 295.33 233.34 293.66 224.79
C 290.64 209.38 285.93 199.78 277.05 190.99
C 267.02 181.05 255.01 176.19 238.38 175.34
C 225.61 174.69 216.77 176.33 206.93 181.22
C 189.78 189.71 179.65 205.45 176.58 228.39
C 175.17 239.05 174.89 292.59 176.25 295.13
C 176.71 296.00 177.81 296.71 178.68 296.71
C 179.56 296.71 180.66 296.00 181.12 295.13"/>
<path fill="#000000" stroke="none" d="
M 345.84 297.53
C 344.25 295.95 344.19 294.81 344.21 264.45
C 344.23 229.82 345.02 220.16 348.71 209.07
C 351.66 200.24 356.59 192.21 362.88 186.03
C 380.68 168.53 415.58 165.04 440.94 178.22
C 447.93 181.86 457.25 190.78 461.00 197.42
C 462.46 199.99 464.58 204.80 465.71 208.10
C 469.90 220.36 470.32 224.86 470.75 261.49
C 471.16 295.44 471.15 295.74 469.44 297.45
C 467.12 299.76 461.75 299.81 459.47 297.53
C 457.90 295.96 457.83 294.78 457.81 271.03
C 457.79 234.99 456.50 225.21 449.94 211.51
C 447.60 206.62 444.91 202.53 442.30 199.84
C 430.81 188.07 413.16 182.19 398.54 185.26
C 380.08 189.13 365.90 202.89 360.73 221.96
C 357.98 232.09 357.37 240.73 357.37 268.95
C 357.37 294.80 357.30 295.96 355.72 297.53
C 354.63 298.63 352.98 299.18 350.78 299.18
C 348.58 299.18 346.93 298.63 345.84 297.53
M 353.22 294.30
C 353.76 293.30 354.07 282.76 354.07 265.72
C 354.07 250.87 354.46 235.59 354.93 231.76
C 356.94 215.35 361.73 204.36 370.92 195.13
C 378.23 187.78 385.68 183.96 397.56 181.47
C 405.30 179.85 406.59 179.79 412.38 180.76
C 433.13 184.22 445.82 192.75 453.23 208.22
C 459.79 221.93 461.09 231.70 461.10 267.80
C 461.11 283.37 461.44 293.31 461.98 294.30
C 463.10 296.41 465.77 296.33 466.94 294.14
C 468.42 291.38 467.43 232.52 465.75 223.97
C 462.73 208.55 458.02 198.96 449.15 190.17
C 439.12 180.23 427.10 175.36 410.48 174.52
C 397.71 173.87 388.86 175.51 379.02 180.39
C 361.87 188.88 351.74 204.63 348.68 227.56
C 347.26 238.22 346.98 291.77 348.34 294.30
C 348.80 295.18 349.91 295.89 350.78 295.89
C 351.65 295.89 352.76 295.18 353.22 294.30"/>
<path fill="#000000" stroke="none" d="
M 1.65 127.40
C 0.06 125.81 0.00 124.67 0.02 94.32
C 0.03 59.69 0.82 50.02 4.52 38.93
C 7.47 30.10 12.40 22.08 18.69 15.90
C 36.47 -1.59 71.41 -5.09 96.75 8.09
C 103.74 11.72 113.06 20.64 116.81 27.28
C 118.27 29.85 120.38 34.66 121.51 37.96
C 125.70 50.22 126.13 54.72 126.56 91.36
C 126.96 125.30 126.96 125.61 125.24 127.32
C 122.93 129.62 117.56 129.67 115.28 127.40
C 113.71 125.83 113.63 124.64 113.62 100.89
C 113.60 64.85 112.31 55.08 105.74 41.38
C 103.41 36.48 100.72 32.39 98.10 29.70
C 86.62 17.93 68.97 12.06 54.35 15.12
C 35.88 18.99 21.71 32.75 16.54 51.82
C 13.79 61.96 13.17 70.59 13.17 98.81
C 13.17 124.66 13.11 125.82 11.53 127.40
C 10.43 128.49 8.79 129.04 6.59 129.04
C 4.39 129.04 2.74 128.49 1.65 127.40
M 9.02 124.17
C 9.57 123.16 9.88 112.62 9.88 95.58
C 9.88 80.74 10.27 65.45 10.74 61.62
C 12.75 45.21 17.54 34.22 26.73 24.99
C 34.04 17.65 41.49 13.82 53.37 11.33
C 61.11 9.72 62.40 9.65 68.19 10.62
C 88.94 14.08 101.63 22.61 109.04 38.09
C 115.60 51.80 116.89 61.56 116.91 97.66
C 116.92 113.24 117.25 123.17 117.78 124.17
C 118.91 126.27 121.58 126.19 122.75 124.00
C 124.23 121.24 123.23 62.38 121.56 53.84
C 118.54 38.42 113.83 28.82 104.95 20.03
C 94.92 10.09 82.91 5.23 66.29 4.38
C 53.51 3.73 44.67 5.38 34.83 10.26
C 17.68 18.75 7.55 34.50 4.49 57.43
C 3.07 68.09 2.79 121.64 4.15 124.17
C 4.61 125.04 5.71 125.75 6.59 125.75
C 7.46 125.75 8.56 125.04 9.02 124.17"/>
<path fill="#000000" stroke="none" d="
M 173.74 127.40
C 172.15 125.81 172.10 124.67 172.11 94.32
C 172.13 59.69 172.92 50.02 176.62 38.93
C 179.56 30.10 184.50 22.08 190.79 15.90
C 208.58 -1.60 243.48 -5.10 268.85 8.09
C 275.83 11.72 285.15 20.64 288.91 27.28
C 290.36 29.85 292.48 34.66 293.61 37.96
C 297.80 50.22 298.23 54.72 298.66 91.36
C 299.06 125.30 299.05 125.61 297.34 127.32
C 295.03 129.62 289.66 129.67 287.38 127.40
C 285.80 125.83 285.73 124.64 285.71 100.89
C 285.70 64.85 284.40 55.08 277.84 41.38
C 275.50 36.48 272.82 32.39 270.20 29.70
C 258.71 17.93 241.07 12.06 226.44 15.12
C 207.98 18.99 193.80 32.75 188.64 51.82
C 185.89 61.96 185.27 70.59 185.27 98.81
C 185.27 124.66 185.21 125.82 183.62 127.40
C 182.53 128.49 180.88 129.04 178.68 129.04
C 176.49 129.04 174.84 128.49 173.74 127.40
M 181.12 124.17
C 181.66 123.16 181.98 112.62 181.98 95.58
C 181.98 80.74 182.36 65.45 182.83 61.62
C 184.84 45.21 189.64 34.22 198.82 24.99
C 206.14 17.65 213.59 13.82 225.46 11.33
C 233.20 9.72 234.50 9.65 240.28 10.62
C 261.03 14.08 273.72 22.61 281.13 38.09
C 287.70 51.80 288.99 61.56 289.01 97.66
C 289.01 113.24 289.34 123.17 289.88 124.17
C 291.01 126.27 293.68 126.19 294.84 124.00
C 296.33 121.24 295.33 62.38 293.66 53.84
C 290.64 38.42 285.93 28.82 277.05 20.03
C 267.02 10.09 255.01 5.23 238.38 4.38
C 225.61 3.73 216.77 5.38 206.93 10.26
C 189.78 18.75 179.65 34.50 176.58 57.43
C 175.17 68.09 174.89 121.64 176.25 124.17
C 176.71 125.04 177.81 125.75 178.68 125.75
C 179.56 125.75 180.66 125.04 181.12 124.17"/>
<path fill="#000000" stroke="none" d="
M 345.84 127.40
C 344.25 125.81 344.19 124.67 344.21 94.32
C 344.23 59.69 345.02 50.02 348.71 38.93
C 351.66 30.10 356.59 22.08 362.88 15.90
C 380.68 -1.60 415.58 -5.10 440.94 8.09
C 447.93 11.72 457.25 20.64 461.00 27.28
C 462.46 29.85 464.58 34.66 465.71 37.96
C 469.90 50.22 470.32 54.72 470.75 91.36
C 471.16 125.30 471.15 125.61 469.44 127.32
C 467.12 129.62 461.75 129.67 459.47 127.40
C 457.90 125.83 457.83 124.64 457.81 100.89
C 457.79 64.85 456.50 55.08 449.94 41.38
C 447.60 36.48 444.91 32.39 442.30 29.70
C 430.81 17.93 413.16 12.06 398.54 15.12
C 380.08 18.99 365.90 32.75 360.73 51.82
C 357.98 61.96 357.37 70.59 357.37 98.81
C 357.37 124.66 357.30 125.82 355.72 127.40
C 354.63 128.49 352.98 129.04 350.78 129.04
C 348.58 129.04 346.93 128.49 345.84 127.40
M 353.22 124.17
C 353.76 123.16 354.07 112.62 354.07 95.58
C 354.07 80.74 354.46 65.45 354.93 61.62
C 356.94 45.21 361.73 34.22 370.92 24.99
C 378.23 17.65 385.68 13.82 397.56 11.33
C 405.30 9.72 406.59 9.65 412.38 10.62
C 433.13 14.08 445.82 22.61 453.23 38.09
C 459.79 51.80 461.09 61.56 461.10 97.66
C 461.11 113.24 461.44 123.17 461.98 124.17
C 463.10 126.27 465.77 126.19 466.94 124.00
C 468.42 121.24 467.43 62.38 465.75 53.84
C 462.73 38.42 458.02 28.82 449.15 20.03
C 439.12 10.09 427.10 5.23 410.48 4.38
C 397.71 3.73 388.86 5.38 379.02 10.26
C 361.87 18.75 351.74 34.50 348.68 57.43
C 347.26 68.09 346.98 121.64 348.34 124.17
C 348.80 125.04 349.91 125.75 350.78 125.75
C 351.65 125.75 352.76 125.04 353.22 124.17"/>
<path fill="#c57a36" stroke="none" d="
M 4.15 295.13
C 2.79 292.59 3.07 239.05 4.49 228.39
C 9.20 193.08 31.92 173.58 66.29 175.34
C 82.91 176.19 94.92 181.05 104.95 190.99
C 113.83 199.78 118.54 209.38 121.56 224.79
C 123.23 233.34 124.23 292.20 122.75 294.96
C 121.58 297.15 118.91 297.23 117.78 295.13
C 117.25 294.13 116.92 284.19 116.91 268.62
C 116.89 232.52 115.60 222.76 109.04 209.05
C 101.63 193.57 88.94 185.04 68.19 181.58
C 62.40 180.61 61.11 180.67 53.37 182.29
C 41.49 184.78 34.04 188.61 26.73 195.95
C 17.54 205.18 12.75 216.17 10.74 232.58
C 10.27 236.41 9.88 251.70 9.88 266.54
C 9.88 283.58 9.57 294.12 9.02 295.13
C 8.56 296.00 7.46 296.71 6.59 296.71
C 5.71 296.71 4.61 296.00 4.15 295.13"/>
<path fill="#c57a36" stroke="none" d="
M 176.25 295.13
C 174.89 292.59 175.17 239.05 176.58 228.39
C 181.29 193.08 204.01 173.58 238.38 175.34
C 255.01 176.19 267.02 181.05 277.05 190.99
C 285.93 199.78 290.64 209.38 293.66 224.79
C 295.33 233.34 296.33 292.20 294.84 294.96
C 293.68 297.15 291.01 297.23 289.88 295.13
C 289.34 294.13 289.01 284.19 289.01 268.62
C 288.99 232.52 287.70 222.76 281.13 209.05
C 273.72 193.57 261.03 185.04 240.28 181.58
C 234.50 180.61 233.20 180.67 225.46 182.29
C 213.59 184.78 206.14 188.61 198.82 195.95
C 189.64 205.18 184.84 216.17 182.83 232.58
C 182.36 236.41 181.98 251.70 181.98 266.54
C 181.98 283.58 181.66 294.12 181.12 295.13
C 180.66 296.00 179.56 296.71 178.68 296.71
C 177.81 296.71 176.71 296.00 176.25 295.13"/>
<path fill="#c57a36" stroke="none" d="
M 348.34 294.30
C 346.98 291.77 347.26 238.22 348.68 227.56
C 353.39 192.26 376.11 172.76 410.48 174.52
C 427.10 175.36 439.12 180.23 449.15 190.17
C 458.02 198.96 462.73 208.55 465.75 223.97
C 467.43 232.52 468.42 291.38 466.94 294.14
C 465.77 296.33 463.10 296.41 461.98 294.30
C 461.44 293.31 461.11 283.37 461.10 267.80
C 461.09 231.70 459.79 221.93 453.23 208.22
C 445.82 192.75 433.13 184.22 412.38 180.76
C 406.59 179.79 405.30 179.85 397.56 181.47
C 385.68 183.96 378.23 187.78 370.92 195.13
C 361.73 204.36 356.94 215.35 354.93 231.76
C 354.46 235.59 354.07 250.87 354.07 265.72
C 354.07 282.76 353.76 293.30 353.22 294.30
C 352.76 295.18 351.65 295.89 350.78 295.89
C 349.91 295.89 348.80 295.18 348.34 294.30"/>
<path fill="#c57a36" stroke="none" d="
M 4.15 124.17
C 2.79 121.64 3.07 68.09 4.49 57.43
C 8.09 30.44 22.69 12.10 45.40 6.01
C 52.78 4.03 72.47 4.01 79.87 5.98
C 89.48 8.54 98.41 13.54 104.95 20.03
C 113.83 28.82 118.54 38.42 121.56 53.84
C 123.23 62.38 124.23 121.24 122.75 124.00
C 121.58 126.19 118.91 126.27 117.78 124.17
C 117.25 123.17 116.92 113.24 116.91 97.66
C 116.89 61.56 115.60 51.80 109.04 38.09
C 101.63 22.61 88.94 14.08 68.19 10.62
C 62.40 9.65 61.11 9.72 53.37 11.33
C 41.49 13.82 34.04 17.65 26.73 24.99
C 17.54 34.22 12.75 45.21 10.74 61.62
C 10.27 65.45 9.88 80.74 9.88 95.58
C 9.88 112.62 9.57 123.16 9.02 124.17
C 8.56 125.04 7.46 125.75 6.59 125.75
C 5.71 125.75 4.61 125.04 4.15 124.17"/>
<path fill="#c57a36" stroke="none" d="
M 176.25 124.17
C 174.89 121.64 175.17 68.09 176.58 57.43
C 181.29 22.13 204.01 2.62 238.38 4.38
C 255.01 5.23 267.02 10.09 277.05 20.03
C 285.93 28.82 290.64 38.42 293.66 53.84
C 295.33 62.38 296.33 121.24 294.84 124.00
C 293.68 126.19 291.01 126.27 289.88 124.17
C 289.34 123.17 289.01 113.24 289.01 97.66
C 288.99 61.56 287.70 51.80 281.13 38.09
C 273.72 22.61 261.03 14.08 240.28 10.62
C 234.50 9.65 233.20 9.72 225.46 11.33
C 213.59 13.82 206.14 17.65 198.82 24.99
C 189.64 34.22 184.84 45.21 182.83 61.62
C 182.36 65.45 181.98 80.74 181.98 95.58
C 181.98 112.62 181.66 123.16 181.12 124.17
C 180.66 125.04 179.56 125.75 178.68 125.75
C 177.81 125.75 176.71 125.04 176.25 124.17"/>
<path fill="#c57a36" stroke="none" d="
M 348.34 124.17
C 346.98 121.64 347.26 68.09 348.68 57.43
C 353.39 22.13 376.11 2.62 410.48 4.38
C 427.10 5.23 439.12 10.09 449.15 20.03
C 458.02 28.82 462.73 38.42 465.75 53.84
C 467.43 62.38 468.42 121.24 466.94 124.00
C 465.77 126.19 463.10 126.27 461.98 124.17
C 461.44 123.17 461.11 113.24 461.10 97.66
C 461.09 61.56 459.79 51.80 453.23 38.09
C 445.82 22.61 433.13 14.08 412.38 10.62
C 406.59 9.65 405.30 9.72 397.56 11.33
C 385.68 13.82 378.23 17.65 370.92 24.99
C 361.73 34.22 356.94 45.21 354.93 61.62
C 354.46 65.45 354.07 80.74 354.07 95.58
C 354.07 112.62 353.76 123.16 353.22 124.17
C 352.76 125.04 351.65 125.75 350.78 125.75
C 349.91 125.75 348.80 125.04 348.34 124.17"/>
</g>
</svg>
