<?xml version="1.0" encoding="UTF-8" standalone="no"?>
<!DOCTYPE svg PUBLIC "-//W3C//DTD SVG 1.1//EN"
"http://www.w3.org/Graphics/SVG/1.1/DTD/svg11.dtd">
<svg width="563px" height="300px"
xmlns="http://www.w3.org/2000/svg" version="1.1">
<g transform="translate(0000, 0000) scale(1.0000, 1.0000)">
<path fill="#000000" stroke="none" d="
M 46.59 298.13
C 44.74 296.29 44.72 295.95 45.18 267.12
C 45.77 229.58 47.24 220.25 54.92 205.43
C 64.09 187.72 82.87 177.74 107.05 177.74
C 131.75 177.74 150.44 187.82 159.38 205.97
C 166.64 220.72 168.28 232.57 168.28 270.05
C 168.28 295.31 168.20 296.56 166.52 298.24
C 164.19 300.57 158.34 300.63 156.05 298.34
C 154.51 296.81 154.35 294.59 153.91 269.09
C 153.66 253.91 153.00 239.31 152.45 236.66
C 147.43 212.12 135.49 198.40 115.21 193.82
C 97.84 189.90 76.50 200.13 68.37 216.28
C 61.56 229.81 59.87 240.10 59.27 271.75
C 58.83 294.56 58.64 296.87 57.15 298.36
C 54.82 300.69 49.02 300.56 46.59 298.13
M 54.49 294.94
C 54.93 294.10 55.50 282.12 55.75 268.33
C 56.07 251.09 56.66 240.78 57.63 235.34
C 62.32 209.04 74.49 194.91 96.66 190.02
C 106.41 187.87 108.85 187.87 117.90 190.04
C 139.33 195.17 150.87 208.24 155.97 233.14
C 156.52 235.79 157.17 250.45 157.44 265.69
C 157.69 280.93 158.27 294.10 158.71 294.94
C 159.81 296.99 162.71 296.90 163.84 294.78
C 165.07 292.50 165.04 249.70 163.82 238.73
C 160.53 209.23 149.03 192.41 126.87 184.65
C 121.88 182.90 119.40 182.64 107.49 182.62
C 92.34 182.59 89.57 183.13 79.37 188.14
C 70.53 192.48 63.19 199.77 58.44 208.94
C 51.02 223.28 49.34 233.31 48.71 267.07
C 48.20 293.95 48.48 296.48 51.98 296.48
C 52.92 296.48 54.04 295.79 54.49 294.94"/>
<path fill="#000000" stroke="none" d="
M 228.09 298.13
C 226.24 296.29 226.22 295.95 226.68 267.12
C 227.27 229.58 228.74 220.25 236.42 205.43
C 245.59 187.72 264.37 177.74 288.55 177.74
C 313.25 177.74 331.94 187.82 340.87 205.97
C 348.13 220.72 349.78 232.57 349.78 270.05
C 349.78 295.31 349.70 296.56 348.02 298.24
C 345.69 300.57 339.84 300.63 337.54 298.34
C 336.01 296.81 335.85 294.59 335.41 269.09
C 335.16 253.91 334.50 239.31 333.95 236.66
C 328.93 212.12 316.99 198.40 296.71 193.82
C 279.34 189.90 258.00 200.13 249.87 216.28
C 243.06 229.81 241.37 240.10 240.77 271.75
C 240.33 294.56 240.14 296.87 238.65 298.36
C 236.32 300.69 230.52 300.56 228.09 298.13
M 235.98 294.94
C 236.43 294.10 237.00 282.12 237.25 268.33
C 237.57 251.09 238.16 240.78 239.13 235.34
C 243.82 209.04 255.98 194.91 278.16 190.02
C 287.91 187.87 290.35 187.87 299.39 190.04
C 320.83 195.17 332.37 208.24 337.47 233.14
C 338.02 235.79 338.67 250.45 338.94 265.69
C 339.19 280.93 339.76 294.10 340.21 294.94
C 341.31 296.99 344.21 296.90 345.34 294.78
C 346.57 292.50 346.54 249.70 345.32 238.73
C 342.03 209.23 330.53 192.41 308.37 184.65
C 303.38 182.90 300.90 182.64 288.99 182.62
C 273.84 182.59 271.07 183.13 260.87 188.14
C 252.03 192.48 244.69 199.77 239.94 208.94
C 232.52 223.28 230.84 233.31 230.20 267.07
C 229.70 293.95 229.98 296.48 233.48 296.48
C 234.42 296.48 235.54 295.79 235.98 294.94"/>
<path fill="#000000" stroke="none" d="
M 409.59 298.13
C 407.74 296.29 407.72 295.95 408.18 267.12
C 408.77 229.58 410.24 220.25 417.92 205.43
C 427.09 187.72 445.87 177.74 470.05 177.74
C 494.75 177.74 513.44 187.82 522.37 205.97
C 529.63 220.72 531.28 232.57 531.28 270.05
C 531.28 295.31 531.20 296.56 529.52 298.24
C 527.18 300.57 521.34 300.63 519.04 298.34
C 517.51 296.81 517.35 294.59 516.91 269.09
C 516.66 253.91 516.00 239.31 515.45 236.66
C 510.43 212.12 498.49 198.40 478.21 193.82
C 460.84 189.90 439.50 200.13 431.37 216.28
C 424.56 229.81 422.87 240.10 422.27 271.75
C 421.83 294.56 421.64 296.87 420.14 298.36
C 417.82 300.69 412.02 300.56 409.59 298.13
M 417.48 294.94
C 417.93 294.10 418.50 282.12 418.75 268.33
C 419.07 251.09 419.66 240.78 420.63 235.34
C 425.32 209.04 437.48 194.91 459.66 190.02
C 469.40 187.87 471.85 187.87 480.89 190.04
C 502.33 195.17 513.87 208.24 518.97 233.14
C 519.52 235.79 520.17 250.45 520.44 265.69
C 520.69 280.93 521.26 294.10 521.71 294.94
C 522.81 296.99 525.70 296.90 526.84 294.78
C 528.07 292.50 528.04 249.70 526.81 238.73
C 523.53 209.23 512.03 192.41 489.87 184.65
C 484.88 182.90 482.40 182.64 470.49 182.62
C 455.34 182.59 452.57 183.13 442.36 188.14
C 433.53 192.48 426.19 199.77 421.44 208.94
C 414.02 223.28 412.34 233.31 411.70 267.07
C 411.20 293.95 411.48 296.48 414.98 296.48
C 415.92 296.48 417.04 295.79 417.48 294.94"/>
<path fill="#000000" stroke="none" d="
M 1.66 120.42
C -0.19 118.57 -0.21 118.24 0.25 89.41
C 0.84 51.87 2.31 42.54 9.98 27.71
C 14.78 18.47 22.06 11.25 31.09 6.82
C 39.88 2.50 46.67 0.92 59.03 0.32
C 85.12 -0.97 104.99 9.05 114.44 28.26
C 121.70 43.00 123.35 54.85 123.35 92.34
C 123.35 117.60 123.27 118.85 121.59 120.53
C 119.25 122.86 113.41 122.92 111.11 120.62
C 109.58 119.09 109.42 116.88 108.98 91.37
C 108.72 76.20 108.06 61.61 107.52 58.94
C 102.49 34.41 90.56 20.68 70.27 16.11
C 52.91 12.18 31.57 22.42 23.44 38.57
C 16.63 52.10 14.93 62.38 14.33 94.04
C 13.89 116.85 13.71 119.16 12.21 120.65
C 9.89 122.97 4.09 122.85 1.66 120.42
M 9.55 117.23
C 10.00 116.38 10.56 104.41 10.82 90.62
C 11.14 73.37 11.73 63.07 12.70 57.62
C 17.38 31.33 29.55 17.20 51.73 12.31
C 61.47 10.15 63.91 10.15 72.96 12.33
C 94.40 17.45 105.94 30.53 111.04 55.43
C 111.59 58.09 112.24 72.73 112.50 87.98
C 112.76 103.22 113.33 116.38 113.78 117.23
C 114.87 119.28 117.77 119.19 118.91 117.07
C 120.13 114.79 120.11 71.99 118.88 61.02
C 115.60 31.52 104.10 14.70 81.94 6.94
C 76.94 5.19 74.47 4.93 62.56 4.91
C 47.41 4.87 44.63 5.42 34.43 10.43
C 25.59 14.76 18.26 22.06 13.51 31.23
C 6.09 45.56 4.41 55.60 3.77 89.36
C 3.27 116.23 3.55 118.77 7.05 118.77
C 7.98 118.77 9.11 118.07 9.55 117.23"/>
<path fill="#000000" stroke="none" d="
M 148.79 120.42
C 146.94 118.57 146.93 118.24 147.38 89.41
C 147.97 51.87 149.45 42.54 157.12 27.71
C 166.29 10.00 185.08 0.03 209.25 0.03
C 233.96 0.03 252.65 10.11 261.58 28.26
C 268.84 43.00 270.49 54.85 270.49 92.34
C 270.49 117.60 270.41 118.85 268.72 120.53
C 266.39 122.86 260.55 122.92 258.25 120.62
C 256.72 119.09 256.56 116.88 256.12 91.37
C 255.86 76.20 255.20 61.61 254.65 58.94
C 249.63 34.41 237.69 20.68 217.41 16.11
C 200.05 12.18 178.71 22.42 170.57 38.57
C 163.76 52.10 162.07 62.38 161.47 94.04
C 161.03 116.85 160.85 119.16 159.35 120.65
C 157.02 122.97 151.23 122.85 148.79 120.42
M 156.69 117.23
C 157.14 116.38 157.70 104.41 157.96 90.62
C 158.27 73.37 158.86 63.07 159.83 57.62
C 164.52 31.33 176.69 17.20 198.86 12.31
C 208.61 10.15 211.05 10.15 220.10 12.33
C 241.53 17.45 253.08 30.53 258.18 55.43
C 258.72 58.09 259.38 72.73 259.64 87.98
C 259.90 103.22 260.47 116.38 260.92 117.23
C 262.01 119.28 264.91 119.19 266.05 117.07
C 267.27 114.79 267.24 71.99 266.02 61.02
C 262.73 31.52 251.24 14.70 229.08 6.94
C 224.08 5.19 221.61 4.93 209.69 4.91
C 194.55 4.87 191.77 5.42 181.57 10.43
C 172.73 14.76 165.39 22.06 160.64 31.23
C 153.23 45.56 151.54 55.60 150.91 89.36
C 150.41 116.23 150.69 118.77 154.19 118.77
C 155.12 118.77 156.25 118.07 156.69 117.23"/>
<path fill="#000000" stroke="none" d="
M 295.05 120.42
C 293.20 118.57 293.18 118.24 293.64 89.41
C 294.23 51.87 295.70 42.54 303.38 27.71
C 312.55 10.00 331.33 0.03 355.51 0.03
C 380.21 0.03 398.90 10.11 407.84 28.26
C 415.10 43.00 416.74 54.85 416.74 92.34
C 416.74 117.60 416.66 118.85 414.98 120.53
C 412.65 122.86 406.80 122.92 404.51 120.62
C 402.97 119.09 402.81 116.88 402.37 91.37
C 402.12 76.20 401.46 61.61 400.91 58.94
C 395.89 34.41 383.95 20.68 363.67 16.11
C 346.30 12.18 324.96 22.42 316.83 38.57
C 310.02 52.10 308.33 62.38 307.73 94.04
C 307.29 116.85 307.10 119.16 305.61 120.65
C 303.28 122.97 297.48 122.85 295.05 120.42
M 302.95 117.23
C 303.39 116.38 303.96 104.41 304.21 90.62
C 304.53 73.37 305.12 63.07 306.09 57.62
C 310.78 31.33 322.95 17.20 345.12 12.31
C 354.87 10.15 357.31 10.15 366.36 12.33
C 387.79 17.45 399.33 30.53 404.43 55.43
C 404.98 58.09 405.63 72.73 405.90 87.98
C 406.15 103.22 406.73 116.38 407.17 117.23
C 408.27 119.28 411.17 119.19 412.30 117.07
C 413.53 114.79 413.50 71.99 412.28 61.02
C 408.99 31.52 397.49 14.70 375.33 6.94
C 370.34 5.19 367.86 4.93 355.95 4.91
C 340.80 4.87 338.03 5.42 327.83 10.43
C 318.99 14.76 311.65 22.06 306.90 31.23
C 299.48 45.56 297.80 55.60 297.17 89.36
C 296.66 116.23 296.95 118.77 300.44 118.77
C 301.38 118.77 302.50 118.07 302.95 117.23"/>
<path fill="#000000" stroke="none" d="
M 441.31 120.42
C 439.46 118.57 439.44 118.24 439.90 89.41
C 440.49 51.87 441.96 42.54 449.63 27.71
C 458.81 10.00 477.59 0.03 501.77 0.03
C 526.47 0.03 545.16 10.11 554.09 28.26
C 561.35 43.00 563.00 54.85 563.00 92.34
C 563.00 117.60 562.92 118.85 561.24 120.53
C 558.90 122.86 553.06 122.92 550.76 120.62
C 549.23 119.09 549.07 116.88 548.63 91.37
C 548.37 76.20 547.71 61.61 547.17 58.94
C 542.15 34.41 530.21 20.68 509.92 16.11
C 492.56 12.18 471.22 22.42 463.09 38.57
C 456.28 52.10 454.59 62.38 453.99 94.04
C 453.55 116.85 453.36 119.16 451.86 120.65
C 449.54 122.97 443.74 122.85 441.31 120.42
M 449.20 117.23
C 449.65 116.38 450.21 104.41 450.47 90.62
C 450.79 73.37 451.38 63.07 452.35 57.62
C 457.03 31.33 469.20 17.20 491.38 12.31
C 501.12 10.15 503.56 10.15 512.61 12.33
C 534.05 17.45 545.59 30.53 550.69 55.43
C 551.24 58.09 551.89 72.73 552.15 87.98
C 552.41 103.22 552.98 116.38 553.43 117.23
C 554.52 119.28 557.42 119.19 558.56 117.07
C 559.78 114.79 559.76 71.99 558.53 61.02
C 555.25 31.52 543.75 14.70 521.59 6.94
C 516.59 5.19 514.12 4.93 502.21 4.91
C 487.06 4.87 484.29 5.42 474.08 10.43
C 465.25 14.76 457.91 22.06 453.16 31.23
C 445.74 45.56 444.06 55.60 443.42 89.36
C 442.92 116.23 443.20 118.77 446.70 118.77
C 447.63 118.77 448.76 118.07 449.20 117.23"/>
<path fill="#c57a36" stroke="none" d="
M 49.26 294.56
C 48.51 293.17 48.36 285.68 48.71 267.07
C 49.34 233.31 51.02 223.28 58.44 208.94
C 63.19 199.77 70.53 192.48 79.37 188.14
C 89.57 183.13 92.34 182.59 107.49 182.62
C 119.40 182.64 121.88 182.90 126.87 184.65
C 149.03 192.41 160.53 209.23 163.82 238.73
C 165.04 249.70 165.07 292.50 163.84 294.78
C 162.71 296.90 159.81 296.99 158.71 294.94
C 158.27 294.10 157.69 280.93 157.44 265.69
C 157.17 250.45 156.52 235.79 155.97 233.14
C 150.87 208.24 139.33 195.17 117.90 190.04
C 108.85 187.87 106.41 187.87 96.66 190.02
C 74.49 194.91 62.32 209.04 57.63 235.34
C 56.66 240.78 56.07 251.09 55.75 268.33
C 55.50 282.12 54.93 294.10 54.49 294.94
C 53.37 297.08 50.49 296.87 49.26 294.56"/>
<path fill="#c57a36" stroke="none" d="
M 230.76 294.56
C 230.01 293.17 229.86 285.68 230.20 267.07
C 230.84 233.31 232.52 223.28 239.94 208.94
C 244.69 199.77 252.03 192.48 260.87 188.14
C 271.07 183.13 273.84 182.59 288.99 182.62
C 300.90 182.64 303.38 182.90 308.37 184.65
C 330.53 192.41 342.03 209.23 345.32 238.73
C 346.54 249.70 346.57 292.50 345.34 294.78
C 344.21 296.90 341.31 296.99 340.21 294.94
C 339.76 294.10 339.19 280.93 338.94 265.69
C 338.67 250.45 338.02 235.79 337.47 233.14
C 332.37 208.24 320.83 195.17 299.39 190.04
C 290.35 187.87 287.91 187.87 278.16 190.02
C 255.98 194.91 243.82 209.04 239.13 235.34
C 238.16 240.78 237.57 251.09 237.25 268.33
C 237.00 282.12 236.43 294.10 235.98 294.94
C 234.87 297.08 231.99 296.87 230.76 294.56"/>
<path fill="#c57a36" stroke="none" d="
M 412.26 294.56
C 411.51 293.17 411.36 285.68 411.70 267.07
C 412.34 233.31 414.02 223.28 421.44 208.94
C 426.19 199.77 433.53 192.48 442.36 188.14
C 452.57 183.13 455.34 182.59 470.49 182.62
C 482.40 182.64 484.88 182.90 489.87 184.65
C 512.03 192.41 523.53 209.23 526.81 238.73
C 528.04 249.70 528.07 292.50 526.84 294.78
C 525.70 296.90 522.81 296.99 521.71 294.94
C 521.26 294.10 520.69 280.93 520.44 265.69
C 520.17 250.45 519.52 235.79 518.97 233.14
C 513.87 208.24 502.33 195.17 480.89 190.04
C 471.85 187.87 469.40 187.87 459.66 190.02
C 437.48 194.91 425.32 209.04 420.63 235.34
C 419.66 240.78 419.07 251.09 418.75 268.33
C 418.50 282.12 417.93 294.10 417.48 294.94
C 416.37 297.08 413.49 296.87 412.26 294.56"/>
<path fill="#c57a36" stroke="none" d="
M 4.33 116.85
C 3.58 115.46 3.43 107.96 3.77 89.36
C 4.41 55.60 6.09 45.56 13.51 31.23
C 18.26 22.06 25.59 14.76 34.43 10.43
C 44.51 5.48 47.40 4.92 62.56 4.92
C 74.52 4.92 76.93 5.17 81.94 6.93
C 104.12 14.72 115.60 31.52 118.88 61.02
C 120.11 71.99 120.13 114.79 118.91 117.07
C 117.77 119.19 114.87 119.28 113.78 117.23
C 113.33 116.38 112.76 103.22 112.50 87.98
C 112.24 72.73 111.59 58.09 111.04 55.43
C 105.94 30.53 94.40 17.45 72.96 12.33
C 63.91 10.15 61.47 10.15 51.73 12.31
C 29.55 17.20 17.38 31.33 12.70 57.62
C 11.73 63.07 11.14 73.37 10.82 90.62
C 10.56 104.41 10.00 116.38 9.55 117.23
C 8.44 119.37 5.56 119.16 4.33 116.85"/>
<path fill="#c57a36" stroke="none" d="
M 151.46 116.85
C 150.71 115.46 150.57 107.96 150.91 89.36
C 151.54 55.60 153.23 45.56 160.64 31.23
C 165.39 22.06 172.73 14.76 181.57 10.43
C 191.77 5.42 194.55 4.87 209.69 4.91
C 221.61 4.93 224.08 5.19 229.08 6.94
C 251.24 14.70 262.73 31.52 266.02 61.02
C 267.24 71.99 267.27 114.79 266.05 117.07
C 264.91 119.19 262.01 119.28 260.92 117.23
C 260.47 116.38 259.90 103.22 259.64 87.98
C 259.38 72.73 258.72 58.09 258.18 55.43
C 253.08 30.53 241.53 17.45 220.10 12.33
C 211.05 10.15 208.61 10.15 198.86 12.31
C 176.69 17.20 164.52 31.33 159.83 57.62
C 158.86 63.07 158.27 73.37 157.96 90.62
C 157.70 104.41 157.14 116.38 156.69 117.23
C 155.58 119.37 152.70 119.16 151.46 116.85"/>
<path fill="#c57a36" stroke="none" d="
M 297.72 116.85
C 296.97 115.46 296.82 107.96 297.17 89.36
C 297.80 55.60 299.48 45.56 306.90 31.23
C 311.65 22.06 318.99 14.76 327.83 10.43
C 338.03 5.42 340.80 4.87 355.95 4.91
C 367.86 4.93 370.34 5.19 375.33 6.94
C 397.49 14.70 408.99 31.52 412.28 61.02
C 413.50 71.99 413.53 114.79 412.30 117.07
C 411.17 119.19 408.27 119.28 407.17 117.23
C 406.73 116.38 406.15 103.22 405.90 87.98
C 405.63 72.73 404.98 58.09 404.43 55.43
C 399.33 30.53 387.79 17.45 366.36 12.33
C 357.31 10.15 354.87 10.15 345.12 12.31
C 322.95 17.20 310.78 31.33 306.09 57.62
C 305.12 63.07 304.53 73.37 304.21 90.62
C 303.96 104.41 303.39 116.38 302.95 117.23
C 301.83 119.37 298.95 119.16 297.72 116.85"/>
<path fill="#c57a36" stroke="none" d="
M 443.98 116.85
C 443.23 115.46 443.08 107.96 443.42 89.36
C 444.06 55.60 445.74 45.56 453.16 31.23
C 457.91 22.06 465.25 14.76 474.08 10.43
C 484.29 5.42 487.06 4.87 502.21 4.91
C 514.12 4.93 516.59 5.19 521.59 6.94
C 543.75 14.70 555.25 31.52 558.53 61.02
C 559.76 71.99 559.78 114.79 558.56 117.07
C 557.42 119.19 554.52 119.28 553.43 117.23
C 552.98 116.38 552.41 103.22 552.15 87.98
C 551.89 72.73 551.24 58.09 550.69 55.43
C 545.59 30.53 534.05 17.45 512.61 12.33
C 503.56 10.15 501.12 10.15 491.38 12.31
C 469.20 17.20 457.03 31.33 452.35 57.62
C 451.38 63.07 450.79 73.37 450.47 90.62
C 450.21 104.41 449.65 116.38 449.20 117.23
C 448.09 119.37 445.21 119.16 443.98 116.85"/>
</g>
</svg>
