<?xml version="1.0" encoding="UTF-8" standalone="no"?>
<!DOCTYPE svg PUBLIC "-//W3C//DTD SVG 1.1//EN"
"http://www.w3.org/Graphics/SVG/1.1/DTD/svg11.dtd">
<svg width="327px" height="150px"
xmlns="http://www.w3.org/2000/svg" version="1.1">
<g transform="translate(0000, 0000) scale(1.0000, 1.0000)">
<path fill="#000000" stroke="none" d="
M 1.90 148.10
C 0.07 146.27 0.00 144.95 0.02 109.89
C 0.05 60.52 1.85 48.36 11.63 31.83
C 28.02 4.11 64.25 -6.86 99.64 5.16
C 110.49 8.85 117.82 13.24 125.08 20.41
C 132.60 27.84 136.78 34.55 140.28 44.80
C 145.12 58.96 145.61 64.16 146.10 106.47
C 146.57 145.68 146.56 146.03 144.58 148.01
C 141.91 150.67 135.71 150.73 133.08 148.10
C 131.27 146.29 131.18 144.92 131.16 117.48
C 131.14 75.85 129.65 64.57 122.07 48.74
C 119.37 43.09 116.28 38.36 113.25 35.26
C 99.99 21.66 79.62 14.88 62.74 18.42
C 41.43 22.89 25.06 38.78 19.10 60.81
C 15.92 72.51 15.21 82.49 15.21 115.08
C 15.21 144.94 15.13 146.28 13.31 148.10
C 12.04 149.36 10.14 150.00 7.60 150.00
C 5.07 150.00 3.17 149.36 1.90 148.10
M 10.42 144.37
C 11.05 143.21 11.41 131.03 11.41 111.35
C 11.41 94.21 11.85 76.55 12.40 72.12
C 14.72 53.17 20.25 40.48 30.86 29.82
C 39.30 21.33 47.90 16.92 61.61 14.04
C 70.54 12.17 72.04 12.09 78.72 13.22
C 102.67 17.21 117.32 27.07 125.88 44.94
C 133.45 60.78 134.94 72.06 134.96 113.75
C 134.97 131.74 135.35 143.22 135.97 144.37
C 137.27 146.80 140.35 146.71 141.70 144.18
C 143.41 140.99 142.26 73.01 140.33 63.13
C 136.86 45.37 131.40 34.22 121.28 24.20
C 101.15 4.30 67.01 -0.96 41.12 11.86
C 20.91 21.87 8.74 40.65 5.18 67.28
C 3.55 79.59 3.22 141.45 4.79 144.37
C 5.32 145.38 6.60 146.20 7.60 146.20
C 8.61 146.20 9.89 145.38 10.42 144.37"/>
<path fill="#000000" stroke="none" d="
M 182.51 148.10
C 180.68 146.27 180.61 144.95 180.63 109.89
C 180.65 69.89 181.56 58.73 185.83 45.92
C 198.19 8.89 236.50 -8.33 278.05 4.49
C 289.78 8.12 298.09 12.89 305.69 20.40
C 313.22 27.85 317.39 34.55 320.89 44.80
C 325.73 58.96 326.22 64.16 326.71 106.47
C 327.18 145.68 327.17 146.03 325.19 148.01
C 322.52 150.67 316.32 150.73 313.69 148.10
C 311.88 146.29 311.79 144.92 311.77 117.48
C 311.75 75.85 310.26 64.57 302.68 48.74
C 299.98 43.09 296.89 38.36 293.86 35.26
C 280.60 21.66 260.23 14.88 243.35 18.42
C 222.04 22.89 205.67 38.78 199.71 60.81
C 196.53 72.51 195.82 82.49 195.82 115.08
C 195.82 144.94 195.74 146.28 193.92 148.10
C 192.65 149.36 190.75 150.00 188.22 150.00
C 185.68 150.00 183.78 149.36 182.51 148.10
M 191.03 144.37
C 191.66 143.21 192.02 131.03 192.02 111.35
C 192.02 94.21 192.46 76.55 193.01 72.12
C 195.33 53.17 200.86 40.48 211.47 29.82
C 219.91 21.33 228.51 16.92 242.22 14.04
C 251.15 12.17 252.65 12.09 259.33 13.22
C 283.28 17.21 297.93 27.07 306.49 44.94
C 314.06 60.78 315.56 72.06 315.57 113.75
C 315.58 131.74 315.96 143.22 316.58 144.37
C 317.88 146.80 320.96 146.71 322.31 144.18
C 324.02 140.99 322.87 73.01 320.94 63.13
C 317.47 45.37 312.01 34.22 301.89 24.20
C 281.76 4.30 247.62 -0.96 221.73 11.86
C 201.52 21.87 189.35 40.65 185.79 67.28
C 184.16 79.59 183.83 141.45 185.40 144.37
C 185.93 145.38 187.21 146.20 188.22 146.20
C 189.22 146.20 190.50 145.38 191.03 144.37"/>
<path fill="#c57a36" stroke="none" d="
M 4.79 144.37
C 3.22 141.45 3.55 79.59 5.18 67.28
C 8.62 41.49 20.63 22.42 39.66 12.54
C 48.78 7.79 55.45 5.95 66.40 5.14
C 86.85 3.62 107.81 10.90 121.28 24.21
C 131.40 34.22 136.86 45.36 140.33 63.13
C 142.26 73.01 143.41 140.99 141.70 144.18
C 140.35 146.71 137.27 146.80 135.97 144.37
C 135.35 143.22 134.97 131.74 134.96 113.75
C 134.94 72.06 133.45 60.78 125.88 44.94
C 117.32 27.07 102.67 17.21 78.72 13.22
C 72.04 12.09 70.54 12.17 61.61 14.04
C 47.90 16.92 39.30 21.33 30.86 29.82
C 20.25 40.48 14.72 53.17 12.40 72.12
C 11.85 76.55 11.41 94.21 11.41 111.35
C 11.41 131.03 11.05 143.21 10.42 144.37
C 9.89 145.38 8.61 146.20 7.60 146.20
C 6.60 146.20 5.32 145.38 4.79 144.37"/>
<path fill="#c57a36" stroke="none" d="
M 185.40 144.37
C 183.83 141.45 184.16 79.59 185.79 67.28
C 189.35 40.65 201.52 21.87 221.73 11.86
C 247.62 -0.96 281.76 4.30 301.89 24.20
C 312.01 34.22 317.47 45.37 320.94 63.13
C 322.87 73.01 324.02 140.99 322.31 144.18
C 320.96 146.71 317.88 146.80 316.58 144.37
C 315.96 143.22 315.58 131.74 315.57 113.75
C 315.56 72.06 314.06 60.78 306.49 44.94
C 297.93 27.07 283.28 17.21 259.33 13.22
C 252.65 12.09 251.15 12.17 242.22 14.04
C 228.51 16.92 219.91 21.33 211.47 29.82
C 200.86 40.48 195.33 53.17 193.01 72.12
C 192.46 76.55 192.02 94.21 192.02 111.35
C 192.02 131.03 191.66 143.21 191.03 144.37
C 190.50 145.38 189.22 146.20 188.22 146.20
C 187.21 146.20 185.93 145.38 185.40 144.37"/>
</g>
</svg>
