<?xml version="1.0" encoding="UTF-8" standalone="no"?>
<!DOCTYPE svg PUBLIC "-//W3C//DTD SVG 1.1//EN"
"http://www.w3.org/Graphics/SVG/1.1/DTD/svg11.dtd">
<svg width="543px" height="150px"
xmlns="http://www.w3.org/2000/svg" version="1.1">
<g transform="translate(0000, 0000) scale(1.0000, 1.0000)">
<path fill="#000000" stroke="none" d="
M 1.91 148.09
C 0.07 146.25 0.00 144.92 0.02 109.63
C 0.04 69.38 0.96 58.15 5.25 45.26
C 8.67 34.99 14.40 25.66 21.70 18.48
C 42.34 -1.85 82.90 -5.91 112.33 9.40
C 120.44 13.62 131.26 23.99 135.62 31.71
C 137.31 34.70 139.77 40.29 141.07 44.13
C 145.94 58.38 146.44 63.61 146.94 106.19
C 147.40 145.65 147.39 146.01 145.41 147.99
C 142.72 150.68 136.49 150.74 133.84 148.09
C 132.01 146.26 131.93 144.89 131.91 117.28
C 131.89 75.38 130.39 64.02 122.77 48.10
C 120.05 42.41 116.94 37.65 113.90 34.53
C 100.56 20.85 80.07 14.02 63.10 17.58
C 41.66 22.08 25.20 38.07 19.21 60.24
C 16.01 72.02 15.30 82.06 15.30 114.86
C 15.30 144.91 15.22 146.25 13.38 148.09
C 12.11 149.36 10.20 150.00 7.65 150.00
C 5.10 150.00 3.18 149.36 1.91 148.09
M 10.48 144.33
C 11.11 143.17 11.47 130.91 11.47 111.11
C 11.47 93.85 11.92 76.08 12.47 71.63
C 14.80 52.56 20.36 39.78 31.03 29.05
C 39.52 20.51 48.17 16.07 61.96 13.18
C 70.94 11.29 72.44 11.22 79.17 12.34
C 103.26 16.37 117.99 26.28 126.59 44.27
C 134.21 60.21 135.71 71.56 135.73 113.52
C 135.74 131.63 136.12 143.18 136.74 144.33
C 138.05 146.78 141.15 146.68 142.51 144.14
C 144.23 140.93 143.07 72.52 141.13 62.58
C 137.62 44.66 132.16 33.51 121.85 23.28
C 110.21 11.73 96.26 6.08 76.96 5.09
C 62.13 4.34 51.86 6.25 40.44 11.92
C 20.53 21.79 8.77 40.10 5.21 66.75
C 3.57 79.15 3.24 141.39 4.82 144.33
C 5.35 145.35 6.63 146.18 7.65 146.18
C 8.66 146.18 9.94 145.35 10.48 144.33"/>
<path fill="#000000" stroke="none" d="
M 200.76 148.09
C 198.91 146.25 198.85 144.92 198.86 109.63
C 198.88 69.38 199.80 58.15 204.09 45.26
C 207.52 34.99 213.24 25.66 220.55 18.48
C 241.20 -1.86 281.72 -5.92 311.17 9.40
C 319.28 13.62 330.10 23.99 334.46 31.71
C 336.15 34.70 338.61 40.29 339.92 44.13
C 344.79 58.38 345.28 63.61 345.78 106.19
C 346.25 145.65 346.24 146.01 344.25 147.99
C 341.56 150.68 335.33 150.74 332.68 148.09
C 330.86 146.26 330.77 144.89 330.75 117.28
C 330.73 75.38 329.23 64.02 321.61 48.10
C 318.90 42.41 315.78 37.65 312.74 34.53
C 299.41 20.85 278.92 14.02 261.94 17.58
C 240.51 22.08 224.04 38.07 218.05 60.24
C 214.86 72.02 214.14 82.06 214.14 114.86
C 214.14 144.91 214.06 146.25 212.23 148.09
C 210.96 149.36 209.05 150.00 206.49 150.00
C 203.94 150.00 202.03 149.36 200.76 148.09
M 209.32 144.33
C 209.95 143.17 210.32 130.91 210.32 111.11
C 210.32 93.85 210.77 76.08 211.31 71.63
C 213.64 52.56 219.21 39.78 229.88 29.05
C 238.37 20.51 247.02 16.07 260.80 13.18
C 269.79 11.29 271.29 11.22 278.01 12.34
C 302.10 16.37 316.83 26.28 325.44 44.27
C 333.06 60.21 334.56 71.56 334.58 113.52
C 334.59 131.63 334.97 143.18 335.59 144.33
C 336.90 146.78 340.00 146.68 341.35 144.14
C 343.07 140.93 341.92 72.52 339.98 62.58
C 336.47 44.66 331.00 33.51 320.70 23.28
C 309.05 11.73 295.10 6.08 275.80 5.09
C 260.97 4.34 250.71 6.25 239.28 11.92
C 219.37 21.79 207.61 40.10 204.06 66.75
C 202.41 79.15 202.09 141.39 203.66 144.33
C 204.20 145.35 205.48 146.18 206.49 146.18
C 207.51 146.18 208.79 145.35 209.32 144.33"/>
<path fill="#000000" stroke="none" d="
M 397.69 148.09
C 395.85 146.25 395.78 144.92 395.80 109.63
C 395.82 69.38 396.73 58.15 401.03 45.26
C 404.45 34.99 410.18 25.66 417.48 18.48
C 438.14 -1.86 478.65 -5.92 508.11 9.40
C 516.21 13.62 527.04 23.99 531.39 31.71
C 533.09 34.70 535.54 40.29 536.85 44.13
C 541.72 58.38 542.22 63.61 542.71 106.19
C 543.18 145.65 543.17 146.01 541.18 147.99
C 538.50 150.68 532.26 150.74 529.62 148.09
C 527.79 146.26 527.70 144.89 527.69 117.28
C 527.67 75.38 526.17 64.02 518.55 48.10
C 515.83 42.41 512.71 37.65 509.67 34.53
C 496.34 20.85 475.85 14.02 458.87 17.58
C 437.44 22.08 420.98 38.07 414.98 60.24
C 411.79 72.02 411.07 82.06 411.07 114.86
C 411.07 144.91 411.00 146.25 409.16 148.09
C 407.89 149.36 405.98 150.00 403.43 150.00
C 400.87 150.00 398.96 149.36 397.69 148.09
M 406.26 144.33
C 406.89 143.17 407.25 130.91 407.25 111.11
C 407.25 93.85 407.70 76.08 408.24 71.63
C 410.58 52.56 416.14 39.78 426.81 29.05
C 435.30 20.51 443.95 16.07 457.74 13.18
C 466.72 11.29 468.22 11.22 474.94 12.34
C 499.03 16.37 513.77 26.28 522.37 44.27
C 529.99 60.21 531.49 71.56 531.51 113.52
C 531.52 131.63 531.90 143.18 532.52 144.33
C 533.83 146.78 536.93 146.68 538.29 144.14
C 540.01 140.93 538.85 72.52 536.91 62.58
C 533.40 44.66 527.93 33.51 517.63 23.28
C 505.98 11.73 492.04 6.08 472.74 5.09
C 457.91 4.34 447.64 6.25 436.22 11.92
C 416.30 21.79 404.54 40.10 400.99 66.75
C 399.34 79.15 399.02 141.39 400.60 144.33
C 401.13 145.35 402.41 146.18 403.43 146.18
C 404.44 146.18 405.72 145.35 406.26 144.33"/>
<path fill="#c57a36" stroke="none" d="
M 4.82 144.33
C 3.24 141.39 3.57 79.15 5.21 66.75
C 9.39 35.39 26.34 14.06 52.71 6.98
C 61.28 4.68 84.14 4.66 92.73 6.96
C 103.89 9.93 114.25 15.74 121.85 23.28
C 132.16 33.51 137.62 44.66 141.13 62.58
C 143.07 72.52 144.23 140.93 142.51 144.14
C 141.15 146.68 138.05 146.78 136.74 144.33
C 136.12 143.18 135.74 131.63 135.73 113.52
C 135.71 71.56 134.21 60.21 126.59 44.27
C 117.99 26.28 103.26 16.37 79.17 12.34
C 72.44 11.22 70.94 11.29 61.96 13.18
C 48.17 16.07 39.52 20.51 31.03 29.05
C 20.36 39.78 14.80 52.56 12.47 71.63
C 11.92 76.08 11.47 93.85 11.47 111.11
C 11.47 130.91 11.11 143.17 10.48 144.33
C 9.94 145.35 8.66 146.18 7.65 146.18
C 6.63 146.18 5.35 145.35 4.82 144.33"/>
<path fill="#c57a36" stroke="none" d="
M 203.66 144.33
C 202.09 141.39 202.41 79.15 204.06 66.75
C 209.52 25.72 235.90 3.05 275.80 5.09
C 295.10 6.08 309.05 11.73 320.70 23.28
C 331.00 33.51 336.47 44.66 339.98 62.58
C 341.92 72.52 343.07 140.93 341.35 144.14
C 340.00 146.68 336.90 146.78 335.59 144.33
C 334.97 143.18 334.59 131.63 334.58 113.52
C 334.56 71.56 333.06 60.21 325.44 44.27
C 316.83 26.28 302.10 16.37 278.01 12.34
C 271.29 11.22 269.79 11.29 260.80 13.18
C 247.02 16.07 238.37 20.51 229.88 29.05
C 219.21 39.78 213.64 52.56 211.31 71.63
C 210.77 76.08 210.32 93.85 210.32 111.11
C 210.32 130.91 209.95 143.17 209.32 144.33
C 208.79 145.35 207.51 146.18 206.49 146.18
C 205.48 146.18 204.20 145.35 203.66 144.33"/>
<path fill="#c57a36" stroke="none" d="
M 400.60 144.33
C 399.02 141.39 399.34 79.15 400.99 66.75
C 406.46 25.72 432.83 3.05 472.74 5.09
C 492.04 6.08 505.98 11.73 517.63 23.28
C 527.93 33.51 533.40 44.66 536.91 62.58
C 538.85 72.52 540.01 140.93 538.29 144.14
C 536.93 146.68 533.83 146.78 532.52 144.33
C 531.90 143.18 531.52 131.63 531.51 113.52
C 531.49 71.56 529.99 60.21 522.37 44.27
C 513.77 26.28 499.03 16.37 474.94 12.34
C 468.22 11.22 466.72 11.29 457.74 13.18
C 443.95 16.07 435.30 20.51 426.81 29.05
C 416.14 39.78 410.58 52.56 408.24 71.63
C 407.70 76.08 407.25 93.85 407.25 111.11
C 407.25 130.91 406.89 143.17 406.26 144.33
C 405.72 145.35 404.44 146.18 403.43 146.18
C 402.41 146.18 401.13 145.35 400.60 144.33"/>
</g>
</svg>
