<?xml version="1.0" encoding="UTF-8" standalone="no"?>
<!DOCTYPE svg PUBLIC "-//W3C//DTD SVG 1.1//EN"
"http://www.w3.org/Graphics/SVG/1.1/DTD/svg11.dtd">
<svg width="627px" height="150px"
xmlns="http://www.w3.org/2000/svg" version="1.1">
<g transform="translate(0000, 0000) scale(1.0000, 1.0000)">
<path fill="#000000" stroke="none" d="
M 1.92 148.08
C 0.07 146.22 0.00 144.88 0.00 111.16
C 0.00 91.91 0.45 71.78 1.00 66.42
C 4.75 29.85 20.30 8.55 47.60 2.56
C 59.95 -0.15 65.12 -0.28 75.97 1.84
C 102.43 7.00 117.28 21.80 124.48 50.14
C 128.48 65.93 129.04 72.44 129.54 109.75
C 130.04 145.62 130.03 145.95 128.01 147.97
C 125.29 150.68 119.02 150.74 116.36 148.08
C 114.54 146.26 114.44 144.87 114.43 121.88
C 114.42 85.34 112.54 68.76 106.55 52.18
C 99.64 33.04 86.67 21.19 69.33 18.13
C 52.30 15.13 33.35 26.26 24.67 44.35
C 17.08 60.13 15.39 73.20 15.39 115.97
C 15.39 144.88 15.31 146.23 13.46 148.08
C 12.18 149.36 10.26 150.00 7.69 150.00
C 5.13 150.00 3.20 149.36 1.92 148.08
M 10.54 144.30
C 11.17 143.12 11.54 131.20 11.54 112.18
C 11.54 95.55 11.99 77.58 12.53 72.24
C 14.67 51.35 20.36 37.13 30.68 26.85
C 38.03 19.52 44.19 16.30 55.47 13.88
C 62.87 12.30 63.82 12.30 71.30 13.80
C 91.08 17.76 103.22 28.50 110.40 48.34
C 116.39 64.92 118.26 81.49 118.27 118.10
C 118.28 133.02 118.67 143.15 119.28 144.30
C 120.60 146.77 123.72 146.65 125.10 144.08
C 126.53 141.40 125.68 80.59 124.06 70.27
C 117.86 30.61 102.15 10.93 72.77 6.06
C 63.95 4.60 62.69 4.60 54.03 6.13
C 24.83 11.31 8.74 32.27 4.85 70.27
C 3.52 83.16 3.52 141.83 4.85 144.30
C 5.39 145.32 6.67 146.15 7.69 146.15
C 8.71 146.15 10.00 145.32 10.54 144.30"/>
<path fill="#000000" stroke="none" d="
M 168.29 148.08
C 166.43 146.22 166.37 144.88 166.37 111.16
C 166.37 91.91 166.82 71.78 167.37 66.42
C 170.42 36.59 181.76 16.18 200.16 7.36
C 207.01 4.08 223.37 0.00 229.71 0.00
C 231.33 0.00 237.11 0.86 242.54 1.90
C 272.90 7.74 287.99 26.55 294.29 66.42
C 294.92 70.41 295.63 89.49 295.91 109.75
C 296.40 145.62 296.39 145.95 294.37 147.97
C 291.66 150.68 285.39 150.74 282.73 148.08
C 280.91 146.26 280.80 144.87 280.79 121.88
C 280.78 85.34 278.91 68.76 272.92 52.18
C 266.00 33.04 253.04 21.19 235.69 18.13
C 218.67 15.13 199.72 26.26 191.03 44.35
C 183.45 60.13 181.75 73.20 181.75 115.97
C 181.75 144.88 181.68 146.23 179.83 148.08
C 178.55 149.36 176.63 150.00 174.06 150.00
C 171.49 150.00 169.57 149.36 168.29 148.08
M 176.91 144.30
C 177.54 143.12 177.91 131.20 177.91 112.18
C 177.91 95.55 178.36 77.58 178.90 72.24
C 181.04 51.35 186.72 37.13 197.04 26.85
C 204.40 19.52 210.55 16.30 221.83 13.88
C 229.24 12.30 230.18 12.30 237.66 13.80
C 257.45 17.76 269.59 28.50 276.76 48.34
C 282.76 64.92 284.63 81.49 284.64 118.10
C 284.65 133.02 285.03 143.15 285.65 144.30
C 286.97 146.77 290.08 146.65 291.47 144.08
C 292.89 141.40 292.05 80.59 290.43 70.27
C 284.23 30.61 268.51 10.93 239.14 6.06
C 230.32 4.60 229.06 4.60 220.39 6.13
C 191.20 11.31 175.11 32.27 171.21 70.27
C 169.89 83.16 169.89 141.83 171.21 144.30
C 171.75 145.32 173.04 146.15 174.06 146.15
C 175.08 146.15 176.37 145.32 176.91 144.30"/>
<path fill="#000000" stroke="none" d="
M 334.66 148.08
C 332.80 146.22 332.73 144.88 332.73 111.16
C 332.73 91.91 333.19 71.78 333.73 66.42
C 336.79 36.59 348.13 16.18 366.53 7.36
C 373.37 4.08 389.74 0.00 396.08 0.00
C 397.69 0.00 403.47 0.86 408.91 1.90
C 439.27 7.74 454.35 26.55 460.65 66.42
C 461.29 70.41 462.00 89.49 462.28 109.75
C 462.77 145.62 462.76 145.95 460.74 147.97
C 458.03 150.68 451.76 150.74 449.09 148.08
C 447.28 146.26 447.17 144.87 447.16 121.88
C 447.15 85.34 445.28 68.76 439.28 52.18
C 432.37 33.04 419.41 21.19 402.06 18.13
C 385.04 15.13 366.08 26.26 357.40 44.35
C 349.81 60.13 348.12 73.20 348.12 115.97
C 348.12 144.88 348.04 146.23 346.20 148.08
C 344.92 149.36 342.99 150.00 340.43 150.00
C 337.86 150.00 335.94 149.36 334.66 148.08
M 343.27 144.30
C 343.91 143.12 344.27 131.20 344.27 112.18
C 344.27 95.55 344.72 77.58 345.26 72.24
C 347.41 51.35 353.09 37.13 363.41 26.85
C 370.77 19.52 376.92 16.30 388.20 13.88
C 395.61 12.30 396.55 12.30 404.03 13.80
C 423.81 17.76 435.96 28.50 443.13 48.34
C 449.12 64.92 451.00 81.49 451.01 118.10
C 451.02 133.02 451.40 143.15 452.02 144.30
C 453.33 146.77 456.45 146.65 457.84 144.08
C 459.26 141.40 458.41 80.59 456.80 70.27
C 450.59 30.61 434.88 10.93 405.50 6.06
C 396.68 4.60 395.42 4.60 386.76 6.13
C 357.56 11.31 341.47 32.27 337.58 70.27
C 336.25 83.16 336.25 141.83 337.58 144.30
C 338.12 145.32 339.41 146.15 340.43 146.15
C 341.45 146.15 342.73 145.32 343.27 144.30"/>
<path fill="#000000" stroke="none" d="
M 499.10 148.08
C 497.24 146.22 497.18 144.88 497.18 111.16
C 497.18 91.91 497.63 71.78 498.18 66.42
C 501.23 36.59 512.57 16.18 530.97 7.36
C 537.82 4.08 554.18 0.00 560.52 0.00
C 562.14 0.00 567.92 0.86 573.35 1.90
C 603.71 7.74 618.80 26.55 625.10 66.42
C 625.73 70.41 626.44 89.49 626.72 109.75
C 627.21 145.62 627.20 145.95 625.18 147.97
C 622.47 150.68 616.20 150.74 613.54 148.08
C 611.72 146.26 611.61 144.87 611.60 121.88
C 611.59 85.34 609.72 68.76 603.73 52.18
C 596.81 33.04 583.85 21.19 566.50 18.13
C 549.48 15.13 530.53 26.26 521.84 44.35
C 514.26 60.13 512.56 73.20 512.56 115.97
C 512.56 144.88 512.49 146.23 510.64 148.08
C 509.36 149.36 507.44 150.00 504.87 150.00
C 502.30 150.00 500.38 149.36 499.10 148.08
M 507.72 144.30
C 508.35 143.12 508.72 131.20 508.72 112.18
C 508.72 95.55 509.17 77.58 509.71 72.24
C 511.85 51.35 517.53 37.13 527.85 26.85
C 535.21 19.52 541.36 16.30 552.64 13.88
C 560.05 12.30 560.99 12.30 568.47 13.80
C 588.25 17.76 600.40 28.50 607.57 48.34
C 613.57 64.92 615.44 81.49 615.45 118.10
C 615.46 133.02 615.84 143.15 616.46 144.30
C 617.78 146.77 620.89 146.65 622.28 144.08
C 623.70 141.40 622.86 80.59 621.24 70.27
C 615.04 30.61 599.32 10.93 569.94 6.06
C 561.13 4.60 559.87 4.60 551.20 6.13
C 522.01 11.31 505.92 32.27 502.02 70.27
C 500.70 83.16 500.70 141.83 502.02 144.30
C 502.56 145.32 503.85 146.15 504.87 146.15
C 505.89 146.15 507.18 145.32 507.72 144.30"/>
<path fill="#c57a36" stroke="none" d="
M 4.85 144.30
C 3.52 141.83 3.52 83.16 4.85 70.27
C 8.77 32.03 25.09 10.94 54.49 6.12
C 63.29 4.67 64.76 4.67 73.13 6.10
C 102.20 11.04 117.89 30.81 124.06 70.27
C 125.68 80.59 126.53 141.40 125.10 144.08
C 123.72 146.65 120.60 146.77 119.28 144.30
C 118.67 143.15 118.28 133.02 118.27 118.10
C 118.26 81.49 116.39 64.92 110.40 48.34
C 103.22 28.50 91.08 17.76 71.30 13.80
C 63.82 12.30 62.87 12.30 55.47 13.88
C 44.19 16.30 38.03 19.52 30.68 26.85
C 20.36 37.13 14.67 51.35 12.53 72.24
C 11.99 77.58 11.54 95.55 11.54 112.18
C 11.54 131.20 11.17 143.12 10.54 144.30
C 10.00 145.32 8.71 146.15 7.69 146.15
C 6.67 146.15 5.39 145.32 4.85 144.30"/>
<path fill="#c57a36" stroke="none" d="
M 171.21 144.30
C 169.89 141.83 169.89 83.16 171.21 70.27
C 175.11 32.27 191.20 11.31 220.39 6.13
C 229.06 4.60 230.32 4.60 239.14 6.06
C 268.51 10.93 284.23 30.61 290.43 70.27
C 292.05 80.59 292.89 141.40 291.47 144.08
C 290.08 146.65 286.97 146.77 285.65 144.30
C 285.03 143.15 284.65 133.02 284.64 118.10
C 284.63 81.49 282.76 64.92 276.76 48.34
C 269.59 28.50 257.45 17.76 237.66 13.80
C 230.18 12.30 229.24 12.30 221.83 13.88
C 210.55 16.30 204.40 19.52 197.04 26.85
C 186.72 37.13 181.04 51.35 178.90 72.24
C 178.36 77.58 177.91 95.55 177.91 112.18
C 177.91 131.20 177.54 143.12 176.91 144.30
C 176.37 145.32 175.08 146.15 174.06 146.15
C 173.04 146.15 171.75 145.32 171.21 144.30"/>
<path fill="#c57a36" stroke="none" d="
M 337.58 144.30
C 336.25 141.83 336.25 83.16 337.58 70.27
C 341.47 32.27 357.56 11.31 386.76 6.13
C 395.42 4.60 396.68 4.60 405.50 6.06
C 434.88 10.93 450.59 30.61 456.80 70.27
C 458.41 80.59 459.26 141.40 457.84 144.08
C 456.45 146.65 453.33 146.77 452.02 144.30
C 451.40 143.15 451.02 133.02 451.01 118.10
C 451.00 81.49 449.12 64.92 443.13 48.34
C 435.96 28.50 423.81 17.76 404.03 13.80
C 396.55 12.30 395.61 12.30 388.20 13.88
C 376.92 16.30 370.77 19.52 363.41 26.85
C 353.09 37.13 347.41 51.35 345.26 72.24
C 344.72 77.58 344.27 95.55 344.27 112.18
C 344.27 131.20 343.91 143.12 343.27 144.30
C 342.73 145.32 341.45 146.15 340.43 146.15
C 339.41 146.15 338.12 145.32 337.58 144.30"/>
<path fill="#c57a36" stroke="none" d="
M 502.02 144.30
C 500.70 141.83 500.70 83.16 502.02 70.27
C 505.92 32.27 522.01 11.31 551.20 6.13
C 559.87 4.60 561.13 4.60 569.94 6.06
C 599.32 10.93 615.04 30.61 621.24 70.27
C 622.86 80.59 623.70 141.40 622.28 144.08
C 620.89 146.65 617.78 146.77 616.46 144.30
C 615.84 143.15 615.46 133.02 615.45 118.10
C 615.44 81.49 613.57 64.92 607.57 48.34
C 600.40 28.50 588.25 17.76 568.47 13.80
C 560.99 12.30 560.05 12.30 552.64 13.88
C 541.36 16.30 535.21 19.52 527.85 26.85
C 517.53 37.13 511.85 51.35 509.71 72.24
C 509.17 77.58 508.72 95.55 508.72 112.18
C 508.72 131.20 508.35 143.12 507.72 144.30
C 507.18 145.32 505.89 146.15 504.87 146.15
C 503.85 146.15 502.56 145.32 502.02 144.30"/>
</g>
</svg>
