<?xml version="1.0" encoding="UTF-8" standalone="no"?>
<!DOCTYPE svg PUBLIC "-//W3C//DTD SVG 1.1//EN"
"http://www.w3.org/Graphics/SVG/1.1/DTD/svg11.dtd">
<svg width="671px" height="450px"
xmlns="http://www.w3.org/2000/svg" version="1.1">
<g transform="translate(0000, 0000) scale(1.0000, 1.0000)">
<path fill="#000000" stroke="none" d="
M 647.04 448.69
C 643.22 447.10 638.13 441.34 630.79 430.32
C 617.24 409.94 607.06 384.47 597.87 347.88
C 588.49 310.58 586.36 291.65 584.81 232.52
C 583.73 191.64 583.35 186.76 579.95 171.66
C 576.03 154.23 569.36 136.40 562.56 125.15
C 556.46 115.07 541.81 95.80 540.21 95.77
C 539.44 95.76 527.86 99.77 514.45 104.68
C 428.80 136.08 347.61 150.21 294.30 142.99
C 249.67 136.94 206.26 125.81 176.99 112.90
L 166.38 108.22
L 163.35 114.13
C 156.33 127.87 147.84 132.98 130.63 133.77
C 108.43 134.81 95.38 128.50 86.61 112.51
L 81.93 103.98
L 53.61 118.60
C 37.17 127.08 24.40 132.88 23.18 132.40
C 21.62 131.81 18.28 118.03 10.35 79.58
C 4.46 50.96 0.00 26.58 0.45 25.40
C 0.92 24.22 2.49 23.25 3.97 23.25
C 5.45 23.25 24.39 28.18 46.04 34.19
C 67.70 40.21 86.11 45.14 86.96 45.14
C 87.81 45.14 89.86 43.29 91.53 41.05
C 99.47 30.31 127.31 24.24 144.83 29.43
C 150.40 31.09 153.14 33.03 158.16 38.91
L 164.49 46.30
L 174.34 41.01
C 205.08 24.46 258.65 9.70 313.59 2.63
C 353.53 -2.52 404.48 0.98 466.28 13.12
C 489.64 17.70 592.53 43.54 597.45 46.05
C 603.00 48.88 604.87 53.71 602.09 57.95
C 597.93 64.30 589.01 65.38 568.25 62.07
L 562.56 61.15
L 571.47 72.19
C 609.67 119.43 621.00 156.56 624.41 245.30
C 627.75 332.85 637.15 374.02 664.26 419.91
C 670.08 429.76 672.15 438.47 669.74 442.97
C 666.58 448.85 654.66 451.86 647.04 448.69
M 660.84 439.99
C 664.37 436.97 664.45 436.60 662.77 431.44
C 661.80 428.48 658.57 422.45 655.57 418.03
C 647.16 405.62 637.34 383.83 632.73 367.30
C 623.32 333.75 619.46 303.63 617.59 249.51
C 614.84 169.81 606.78 138.02 578.58 95.74
C 560.42 68.53 542.43 51.36 516.60 36.64
C 509.21 32.43 498.87 27.71 493.62 26.14
C 482.48 22.83 457.35 17.34 456.62 18.08
C 456.35 18.36 459.63 20.65 463.93 23.20
C 500.09 44.52 522.44 62.38 540.91 84.69
C 565.67 114.57 575.50 130.87 583.07 154.56
C 590.58 178.04 591.58 185.73 591.59 220.50
C 591.63 281.35 595.85 317.61 607.45 356.99
C 609.99 365.64 613.06 376.11 614.25 380.24
C 615.44 384.37 620.65 396.40 625.82 406.94
C 633.07 421.73 637.04 428.06 643.22 434.64
C 652.06 444.08 655.03 444.98 660.84 439.99
M 357.56 136.08
C 384.04 133.48 411.04 128.65 437.81 121.72
C 475.20 112.03 532.69 91.83 532.69 88.37
C 532.69 85.86 508.92 63.16 497.09 54.38
C 491.45 50.20 478.51 41.70 468.33 35.52
C 458.16 29.34 446.98 22.25 443.48 19.76
C 437.27 15.36 436.46 15.18 409.93 12.38
C 394.97 10.81 377.46 8.90 371.01 8.18
C 346.22 5.35 313.37 7.92 274.56 15.70
C 237.48 23.14 207.61 32.50 182.94 44.40
C 164.33 53.37 165.27 52.13 167.89 64.29
C 169.41 71.44 169.86 78.36 169.37 87.18
L 168.65 99.82
L 172.64 102.65
C 189.91 114.93 239.27 128.39 292.36 135.29
C 316.86 138.47 331.38 138.65 357.56 136.08
M 143.70 124.51
C 156.07 118.20 162.01 105.22 162.18 84.17
C 162.31 64.23 158.89 50.70 151.70 42.92
C 144.91 35.55 138.58 33.61 124.82 34.62
C 98.77 36.56 89.05 49.65 89.04 82.75
C 89.04 95.77 89.48 98.74 92.34 104.87
C 96.45 113.69 105.17 122.29 112.70 124.96
C 121.40 128.02 137.24 127.81 143.70 124.51
M 80.45 94.61
C 81.55 93.26 82.16 87.91 82.16 79.82
C 82.16 72.86 82.83 64.01 83.67 60.16
C 84.49 56.31 84.89 52.88 84.55 52.54
C 83.35 51.35 9.33 31.27 8.64 31.95
C 7.90 32.69 25.47 119.74 26.80 121.88
C 27.70 123.33 77.84 97.86 80.45 94.61
M 593.49 55.67
C 595.57 54.14 595.66 53.64 593.97 52.26
C 592.11 50.72 531.08 34.03 530.24 34.84
C 530.02 35.04 531.87 36.44 534.35 37.91
C 536.83 39.39 542.25 43.32 546.39 46.63
C 553.36 52.21 554.93 52.82 567.61 54.86
C 585.19 57.69 590.48 57.86 593.49 55.67"/>
<path fill="#c55436" stroke="none" d="
M 292.36 135.29
C 239.27 128.39 189.91 114.93 172.64 102.65
L 168.65 99.82
L 169.37 87.18
C 169.86 78.36 169.41 71.44 167.89 64.29
C 165.27 52.13 164.33 53.37 182.94 44.40
C 233.75 19.89 320.79 2.89 369.26 8.02
C 441.30 15.62 436.59 14.88 443.49 19.78
C 446.98 22.25 458.16 29.34 468.33 35.52
C 478.51 41.70 491.45 50.20 497.09 54.38
C 508.92 63.16 532.69 85.86 532.69 88.37
C 532.69 91.83 475.20 112.03 437.81 121.72
C 411.04 128.65 384.04 133.48 357.56 136.08
C 331.38 138.65 316.86 138.47 292.36 135.29"/>
<path fill="#c55436" stroke="none" d="
M 112.70 124.96
C 105.17 122.29 96.45 113.69 92.34 104.87
C 89.48 98.74 89.04 95.77 89.04 82.75
C 89.05 49.65 98.77 36.56 124.82 34.62
C 138.58 33.61 144.91 35.55 151.70 42.92
C 158.89 50.70 162.31 64.23 162.18 84.17
C 162.01 105.22 156.07 118.20 143.70 124.51
C 137.24 127.81 121.40 128.02 112.70 124.96"/>
<path fill="#c55436" stroke="none" d="
M 26.80 121.88
C 25.47 119.74 7.90 32.69 8.64 31.95
C 9.33 31.27 83.35 51.35 84.55 52.54
C 84.89 52.88 84.49 56.31 83.67 60.16
C 82.83 64.01 82.16 72.86 82.16 79.82
C 82.16 87.91 81.55 93.26 80.45 94.61
C 77.84 97.86 27.70 123.33 26.80 121.88"/>
<path fill="#c55436" stroke="none" d="
M 567.61 54.86
C 554.93 52.82 553.36 52.21 546.39 46.63
C 542.25 43.32 536.83 39.39 534.35 37.91
C 531.87 36.44 530.02 35.04 530.24 34.84
C 531.08 34.03 592.11 50.72 593.97 52.26
C 595.66 53.64 595.57 54.14 593.49 55.67
C 590.48 57.86 585.19 57.69 567.61 54.86"/>
<path fill="#c57a36" stroke="none" d="
M 643.22 434.64
C 637.04 428.06 633.07 421.73 625.82 406.94
C 620.65 396.40 615.44 384.37 614.25 380.24
C 613.06 376.11 609.99 365.64 607.45 356.99
C 595.85 317.61 591.63 281.35 591.59 220.50
C 591.58 185.73 590.58 178.04 583.07 154.56
C 580.78 147.42 576.59 136.94 573.76 131.31
C 563.72 111.39 536.51 77.01 517.63 60.40
C 507.37 51.37 482.59 34.18 463.50 22.84
C 459.95 20.74 457.33 18.74 457.68 18.40
C 458.46 17.60 487.32 23.92 496.40 26.88
C 506.50 30.16 528.49 43.07 540.89 52.97
C 553.79 63.29 566.69 77.94 578.58 95.74
C 606.78 138.02 614.84 169.81 617.59 249.51
C 619.46 303.63 623.32 333.75 632.73 367.30
C 637.34 383.83 647.16 405.62 655.57 418.03
C 658.57 422.45 661.80 428.48 662.77 431.44
C 664.45 436.60 664.37 436.97 660.84 439.99
C 655.03 444.98 652.06 444.08 643.22 434.64"/>
</g>
</svg>
