<?xml version="1.0" encoding="UTF-8" standalone="no"?>
<!DOCTYPE svg PUBLIC "-//W3C//DTD SVG 1.1//EN"
"http://www.w3.org/Graphics/SVG/1.1/DTD/svg11.dtd">
<svg width="690px" height="500px"
xmlns="http://www.w3.org/2000/svg" version="1.1">
<g transform="translate(0000, 0000) scale(1.0000, 1.0000)">
<path fill="#000000" stroke="none" d="
M 667.80 493.50
C 660.21 486.16 646.34 463.98 637.94 445.72
C 616.53 399.27 601.91 337.05 590.57 244.17
C 583.84 189.04 578.51 167.19 566.55 145.52
C 559.62 132.97 543.91 116.41 531.51 108.59
C 506.16 92.58 494.28 91.80 455.16 103.62
C 404.88 118.81 369.98 125.83 330.59 128.67
C 294.99 131.24 268.11 129.14 179.77 116.99
C 164.62 114.89 142.93 112.42 131.57 111.47
L 110.92 109.74
L 86.14 115.26
C 59.27 121.27 54.80 121.65 42.53 119.11
C 21.01 114.65 7.62 99.16 1.50 71.65
C -0.15 64.22 -0.05 61.53 2.23 52.22
C 7.71 29.89 19.03 18.07 39.82 12.98
C 52.89 9.79 57.62 10.50 87.21 20.24
C 110.43 27.89 118.85 28.24 138.18 22.45
C 158.82 16.24 178.94 12.58 224.90 6.68
C 291.53 -1.87 325.63 -1.96 397.78 6.21
C 448.88 12.00 480.75 18.41 506.62 28.12
C 519.34 32.91 521.14 33.23 524.74 31.36
C 532.02 27.60 547.03 24.53 573.14 21.42
C 606.68 17.45 614.13 17.45 618.09 21.41
C 621.75 25.06 622.15 33.41 618.95 39.57
C 616.24 44.80 603.51 51.67 585.96 57.35
C 566.15 63.78 566.64 62.39 579.45 75.83
C 600.54 97.95 616.27 125.31 624.76 154.60
C 632.52 181.36 633.55 203.93 629.38 256.74
C 625.28 308.90 628.56 341.35 641.94 381.50
C 648.77 401.96 661.80 431.85 671.64 449.54
C 690.61 483.67 692.95 490.93 686.94 496.94
C 681.83 502.05 675.45 500.90 667.80 493.50
M 681.42 489.57
C 681.83 488.90 676.26 477.37 669.04 463.96
C 626.37 384.86 615.46 336.64 621.76 254.74
C 625.91 200.69 624.72 182.57 615.06 152.51
C 597.04 96.44 551.14 51.62 492.01 32.34
C 452.66 19.51 381.69 9.63 318.23 8.12
C 287.17 7.39 282.78 7.66 239.43 12.92
C 193.51 18.49 163.44 23.87 136.16 31.39
C 116.92 36.71 107.66 36.04 82.62 27.55
C 72.09 23.99 59.62 20.72 54.91 20.28
C 37.96 18.73 21.22 28.35 13.62 44.04
C 10.88 49.65 10.11 53.90 10.08 63.46
C 10.02 78.27 14.49 89.40 24.48 99.39
C 37.93 112.83 52.00 114.94 81.38 107.92
C 110.48 100.96 122.49 101.15 183.59 109.48
C 245.68 117.94 257.24 119.30 281.84 121.04
C 330.54 124.51 386.43 116.31 450.27 96.38
C 461.06 93.01 475.52 89.10 482.40 87.71
C 494.60 85.23 495.27 85.24 507.86 88.46
C 543.42 97.52 571.55 125.58 584.30 164.65
C 590.34 183.20 592.80 196.74 598.28 241.59
C 610.28 339.86 628.44 411.33 652.27 454.13
C 659.31 466.76 670.05 483.50 673.61 487.39
C 676.84 490.90 680.04 491.80 681.42 489.57
M 580.06 50.32
C 600.68 43.04 608.21 39.19 611.42 34.30
C 613.78 30.70 613.78 30.20 611.51 27.94
C 609.23 25.66 607.05 25.69 584.11 28.15
C 558.76 30.89 542.73 33.65 534.85 36.64
L 530.47 38.30
L 544.84 48.00
C 552.93 53.47 560.19 57.34 561.49 56.90
C 562.74 56.45 571.11 53.49 580.06 50.32"/>
<path fill="#c57a36" stroke="none" d="
M 673.61 487.39
C 670.05 483.50 659.31 466.76 652.27 454.13
C 628.44 411.33 610.28 339.86 598.28 241.59
C 592.80 196.74 590.34 183.20 584.30 164.65
C 571.55 125.58 543.42 97.52 507.86 88.46
C 495.27 85.24 494.60 85.23 482.40 87.71
C 475.52 89.10 461.06 93.01 450.27 96.38
C 386.43 116.31 330.54 124.51 281.84 121.04
C 257.24 119.30 245.68 117.94 183.59 109.48
C 122.49 101.15 110.48 100.96 81.38 107.92
C 52.00 114.94 37.93 112.83 24.48 99.39
C 14.49 89.40 10.02 78.27 10.08 63.46
C 10.11 53.90 10.88 49.65 13.62 44.04
C 21.22 28.35 37.96 18.73 54.91 20.28
C 59.62 20.72 72.09 23.99 82.62 27.55
C 107.63 36.02 116.90 36.70 136.16 31.42
C 164.21 23.75 184.74 19.89 227.96 14.20
C 268.73 8.85 274.09 8.47 310.58 8.53
C 375.66 8.61 448.58 18.18 492.01 32.34
C 551.14 51.62 597.04 96.44 615.06 152.51
C 624.72 182.57 625.91 200.69 621.76 254.74
C 615.46 336.64 626.37 384.86 669.04 463.96
C 676.26 477.37 681.83 488.90 681.42 489.57
C 680.04 491.80 676.84 490.90 673.61 487.39"/>
<path fill="#c55436" stroke="none" d="
M 544.84 48.00
L 530.47 38.30
L 534.85 36.64
C 542.85 33.61 558.92 30.86 584.17 28.20
C 606.91 25.81 609.37 25.80 611.56 27.98
C 613.76 30.18 613.75 30.75 611.42 34.30
C 607.58 40.14 602.32 42.52 561.49 56.90
C 560.19 57.34 552.93 53.47 544.84 48.00"/>
</g>
</svg>
