<?xml version="1.0" encoding="UTF-8" standalone="no"?>
<!DOCTYPE svg PUBLIC "-//W3C//DTD SVG 1.1//EN"
"http://www.w3.org/Graphics/SVG/1.1/DTD/svg11.dtd">
<svg width="600px" height="108px"
xmlns="http://www.w3.org/2000/svg" version="1.1">
<g transform="translate(0000, 0000) scale(1.0000, 1.0000)">
<path fill="#000000" stroke="none" d="
M 37.70 105.55
C 20.17 100.94 2.62 89.20 0.49 80.67
C -1.22 73.83 6.72 63.10 13.51 63.10
C 14.76 63.10 21.07 65.52 27.51 68.46
C 46.71 77.26 61.29 78.55 74.91 72.68
C 93.89 64.46 93.89 43.54 74.91 35.32
C 61.58 29.57 46.64 30.75 28.71 38.99
C 14.50 45.52 11.12 45.98 6.42 42.01
C -5.69 31.77 0.34 18.89 22.16 8.37
C 39.69 -0.08 58.77 -2.17 76.55 2.40
C 92.50 6.50 100.14 11.83 115.36 29.51
L 120.25 35.19
L 300.00 35.19
L 479.75 35.19
L 484.64 29.51
C 499.86 11.83 507.50 6.50 523.45 2.40
C 541.74 -2.31 561.61 0.06 579.37 9.04
C 599.92 19.45 605.35 32.05 593.58 42.01
C 588.88 45.98 585.50 45.52 571.29 38.99
C 553.36 30.75 538.42 29.57 525.09 35.32
C 506.11 43.54 506.11 64.46 525.09 72.68
C 538.71 78.55 553.29 77.26 572.49 68.46
C 578.93 65.52 585.24 63.10 586.49 63.10
C 593.28 63.10 601.22 73.83 599.51 80.67
C 598.18 86.00 590.68 92.99 580.70 98.22
C 562.23 107.87 542.28 110.44 523.45 105.60
C 507.50 101.50 499.86 96.17 484.64 78.49
L 479.75 72.81
L 300.00 72.81
L 120.25 72.81
L 115.36 78.49
C 105.72 89.69 98.27 96.52 92.14 99.83
C 77.41 107.78 55.05 110.12 37.70 105.55
M 78.49 98.09
C 90.33 93.68 99.25 87.14 106.14 77.80
C 109.46 73.28 113.59 68.95 115.30 68.17
C 119.81 66.11 480.19 66.11 484.70 68.17
C 486.41 68.95 490.54 73.28 493.86 77.80
C 508.18 97.21 534.49 106.16 558.13 99.64
C 568.85 96.69 577.55 92.56 585.75 86.56
C 592.01 81.97 593.55 79.00 591.59 75.31
C 588.74 69.96 586.14 69.92 574.90 75.08
C 569.07 77.76 559.73 80.83 553.93 81.96
C 543.77 83.96 543.15 83.95 531.60 81.45
C 517.11 78.33 511.30 74.70 507.09 66.16
C 503.12 58.13 503.12 49.87 507.09 41.84
C 511.30 33.30 517.11 29.67 531.60 26.55
C 543.15 24.05 543.77 24.04 553.93 26.04
C 559.73 27.17 569.07 30.24 574.90 32.92
C 586.14 38.08 588.74 38.04 591.59 32.69
C 593.55 29.00 592.01 26.03 585.75 21.44
C 577.55 15.44 568.85 11.31 558.13 8.36
C 534.49 1.84 508.18 10.79 493.86 30.20
C 490.54 34.72 486.41 39.05 484.70 39.83
C 482.34 40.91 436.71 41.26 300.00 41.26
C 163.29 41.26 117.66 40.91 115.30 39.83
C 113.59 39.05 109.46 34.72 106.14 30.20
C 91.82 10.79 65.51 1.84 41.87 8.36
C 31.15 11.31 22.45 15.44 14.25 21.44
C 7.99 26.03 6.45 29.00 8.41 32.69
C 11.26 38.04 13.86 38.08 25.10 32.92
C 30.93 30.24 40.27 27.17 46.07 26.04
C 56.23 24.04 56.85 24.05 68.40 26.55
C 82.89 29.67 88.70 33.30 92.91 41.84
C 98.75 53.67 95.34 68.44 85.11 75.54
C 81.89 77.77 76.32 79.74 68.40 81.45
C 56.85 83.95 56.23 83.96 46.07 81.96
C 40.27 80.83 30.93 77.76 25.10 75.08
C 13.86 69.92 11.26 69.96 8.41 75.31
C 6.45 79.00 7.99 81.97 14.25 86.56
C 22.18 92.36 29.31 95.87 39.84 99.14
C 51.72 102.83 66.80 102.42 78.49 98.09"/>
<path fill="#c57a36" stroke="none" d="
M 39.84 99.14
C 29.31 95.87 22.18 92.36 14.25 86.56
C 7.99 81.97 6.45 79.00 8.41 75.31
C 11.26 69.96 13.86 69.92 25.10 75.08
C 30.93 77.76 40.27 80.83 46.07 81.96
C 56.23 83.96 56.85 83.95 68.40 81.45
C 82.89 78.33 88.70 74.70 92.91 66.16
C 98.75 54.33 95.34 39.56 85.11 32.46
C 81.89 30.23 76.32 28.26 68.40 26.55
C 56.85 24.05 56.23 24.04 46.07 26.04
C 40.27 27.17 30.93 30.24 25.10 32.92
C 13.86 38.08 11.26 38.04 8.41 32.69
C 6.45 28.99 7.99 26.03 14.35 21.33
C 45.27 -1.48 85.65 2.43 106.14 30.20
C 109.46 34.72 113.59 39.05 115.30 39.83
C 119.81 41.89 480.19 41.89 484.70 39.83
C 486.41 39.05 490.54 34.72 493.86 30.20
C 508.18 10.79 534.49 1.84 558.13 8.36
C 568.85 11.31 577.55 15.44 585.75 21.44
C 592.01 26.03 593.55 29.00 591.59 32.69
C 588.74 38.04 586.14 38.08 574.90 32.92
C 569.07 30.24 559.73 27.17 553.93 26.04
C 543.77 24.04 543.15 24.05 531.60 26.55
C 517.11 29.67 511.30 33.30 507.09 41.84
C 503.12 49.87 503.12 58.13 507.09 66.16
C 511.30 74.70 517.11 78.33 531.60 81.45
C 543.15 83.95 543.77 83.96 553.93 81.96
C 559.73 80.83 569.07 77.76 574.90 75.08
C 586.14 69.92 588.74 69.96 591.59 75.31
C 593.55 79.00 592.01 81.97 585.75 86.56
C 577.55 92.56 568.85 96.69 558.13 99.64
C 534.49 106.16 508.18 97.21 493.86 77.80
C 490.54 73.28 486.41 68.95 484.70 68.17
C 480.19 66.11 119.81 66.11 115.30 68.17
C 113.59 68.95 109.46 73.28 106.14 77.80
C 91.47 97.69 63.80 106.59 39.84 99.14"/>
</g>
</svg>
