<?xml version="1.0" encoding="UTF-8" standalone="no"?>
<!DOCTYPE svg PUBLIC "-//W3C//DTD SVG 1.1//EN"
"http://www.w3.org/Graphics/SVG/1.1/DTD/svg11.dtd">
<svg width="183px" height="600px"
xmlns="http://www.w3.org/2000/svg" version="1.1">
<g transform="translate(0000, 0000) scale(1.0000, 1.0000)">
<path fill="#000000" stroke="none" d="
M 150.67 597.35
C 143.83 593.73 140.28 588.31 113.90 541.04
C 95.70 508.45 90.03 499.25 88.90 500.51
C 86.62 503.03 48.22 569.19 45.10 575.96
C 41.60 583.51 34.54 591.43 28.90 594.12
C 23.48 596.67 15.09 596.75 10.30 594.28
C 4.71 591.39 0.00 580.81 0.00 571.16
C 0.00 562.70 3.92 549.12 7.04 546.79
C 8.06 546.01 21.56 524.49 37.04 498.95
L 65.16 452.52
L 61.71 446.62
C 59.81 443.37 53.24 432.15 47.09 421.68
C 16.66 369.79 16.78 325.23 47.41 292.53
L 55.99 283.37
L 45.25 272.09
C 36.38 262.77 33.43 258.54 28.27 247.78
C 22.05 234.81 17.92 221.18 17.92 213.63
C 17.92 206.64 21.92 191.51 26.22 182.30
C 30.97 172.11 33.71 168.40 47.95 152.87
L 58.14 141.74
L 54.35 139.01
C 36.40 126.14 27.62 111.98 21.86 86.66
C 17.74 68.51 23.09 45.35 35.68 26.76
C 44.64 13.55 50.89 8.67 64.37 4.41
C 80.48 -0.68 93.66 -1.07 109.19 3.08
C 116.11 4.94 124.52 7.84 127.90 9.56
C 135.84 13.57 148.24 27.19 153.91 38.09
C 162.61 54.79 164.35 67.34 160.53 85.71
C 156.45 105.28 148.46 120.10 135.28 132.56
L 126.59 140.78
L 130.49 145.55
C 147.68 166.55 156.50 181.87 161.71 199.78
C 168.00 221.44 159.84 243.51 135.19 271.42
C 129.81 277.52 125.41 282.79 125.41 283.13
C 125.41 283.47 129.35 287.69 134.17 292.52
C 150.34 308.72 158.08 330.27 157.99 358.85
C 157.96 371.33 157.43 375.67 155.14 382.09
C 151.19 393.21 143.14 408.81 130.85 429.22
C 125.04 438.87 120.29 447.02 120.29 447.34
C 120.29 448.27 172.72 542.58 176.00 547.55
C 179.49 552.84 183.00 564.18 183.00 570.19
C 183.00 575.55 177.51 589.25 173.71 593.37
C 167.54 600.08 158.72 601.59 150.67 597.35
M 165.62 588.41
C 168.35 586.02 171.12 581.69 172.79 577.27
C 175.13 571.00 175.30 569.26 174.04 564.23
C 173.26 561.03 171.26 556.41 169.63 553.94
C 167.99 551.48 155.00 528.45 140.77 502.77
C 115.70 457.54 96.16 426.61 80.47 407.32
C 67.84 391.80 60.38 369.71 61.94 352.53
C 63.56 334.64 67.22 325.84 77.70 314.57
L 83.18 308.69
L 72.75 299.27
L 62.32 289.84
L 53.77 298.96
C 39.70 313.98 31.99 331.55 31.99 348.61
C 31.99 371.31 38.02 388.93 56.56 420.38
C 64.41 433.69 76.39 454.93 83.19 467.59
C 101.21 501.15 142.78 575.08 147.35 581.71
C 150.79 586.71 157.58 592.31 160.25 592.32
C 160.75 592.32 163.16 590.56 165.62 588.41
M 28.56 583.30
C 32.29 580.03 36.00 574.95 38.62 569.55
C 40.91 564.83 51.87 545.57 62.98 526.72
C 74.10 507.88 83.18 491.82 83.18 491.04
C 83.18 489.13 70.03 464.39 69.02 464.39
C 68.58 464.39 56.58 483.63 42.36 507.15
C 28.13 530.65 15.14 551.35 13.49 553.14
C 10.71 556.13 7.68 565.96 7.68 571.96
C 7.68 575.67 10.89 582.74 13.96 585.81
C 17.95 589.80 21.97 589.11 28.56 583.30
M 125.41 421.20
C 138.13 399.61 145.15 385.92 148.36 376.38
C 153.60 360.79 150.96 337.39 141.81 318.55
C 137.40 309.49 134.47 305.64 124.25 295.50
C 117.50 288.81 106.05 278.44 98.81 272.47
C 70.54 249.19 67.56 246.47 63.32 240.08
C 58.33 232.55 53.75 220.26 53.75 214.38
C 53.75 208.18 58.06 194.15 62.08 187.27
C 64.08 183.83 69.21 177.36 73.49 172.90
L 81.26 164.78
L 73.23 157.23
C 68.81 153.08 64.72 149.68 64.11 149.68
C 63.53 149.68 57.45 155.87 50.61 163.43
C 36.65 178.90 29.33 191.92 26.89 205.74
C 24.93 216.74 26.76 225.07 34.71 241.56
C 41.68 256.00 48.39 263.60 76.74 289.19
C 111.67 320.71 114.27 324.01 118.91 342.72
C 122.24 356.11 122.24 360.31 118.92 373.61
C 115.75 386.38 113.73 390.49 104.53 402.92
L 97.48 412.45
L 106.01 424.95
C 110.70 431.82 114.82 437.45 115.17 437.46
C 115.53 437.48 120.14 430.16 125.41 421.20
M 98.62 395.95
C 114.57 374.49 117.45 356.17 108.14 335.54
C 105.15 328.96 94.30 315.99 91.77 315.99
C 88.93 315.99 81.38 323.10 76.92 329.99
C 73.08 335.94 71.92 339.34 70.55 348.69
C 68.63 361.73 70.01 370.52 76.09 384.23
C 79.38 391.62 89.41 405.62 91.09 405.15
C 91.56 405.02 94.96 400.87 98.62 395.95
M 121.68 271.96
C 127.84 266.78 138.24 254.46 144.69 244.66
C 152.82 232.32 156.66 220.73 155.79 211.15
C 154.79 200.16 146.49 181.78 136.16 167.69
C 124.00 151.11 92.81 116.46 82.27 107.85
C 72.43 99.80 67.68 92.69 63.99 80.46
C 60.79 69.90 60.79 67.01 64.01 56.23
C 69.46 37.89 79.71 28.77 93.75 29.73
C 107.68 30.68 117.89 42.50 121.74 62.12
C 124.25 74.88 119.19 89.28 106.83 104.69
C 104.37 107.73 102.40 110.89 102.44 111.72
C 102.47 112.54 106.77 117.83 111.99 123.45
L 121.48 133.69
L 130.84 124.09
C 146.43 108.12 154.10 90.43 154.17 70.36
C 154.21 59.30 153.84 57.44 150.10 49.54
C 147.85 44.78 142.50 36.06 138.24 30.19
C 130.70 19.82 126.44 16.50 115.81 12.72
C 100.28 7.18 80.01 6.59 66.55 11.26
C 56.87 14.62 56.10 15.17 49.12 23.67
C 41.55 32.85 35.38 42.99 31.95 51.81
C 28.03 61.96 27.67 82.70 31.24 93.39
C 36.19 108.24 46.26 121.91 59.25 131.39
C 62.91 134.06 67.06 137.48 68.47 138.97
C 69.87 140.46 75.35 145.56 80.62 150.31
C 97.92 165.84 111.44 179.65 114.73 185.17
C 118.45 191.42 122.83 204.93 122.84 210.26
C 122.85 214.90 119.40 226.96 116.29 233.13
C 114.96 235.74 110.13 242.05 105.55 247.14
C 100.97 252.22 97.37 256.86 97.58 257.45
C 97.91 258.47 116.62 274.93 117.56 275.01
C 117.80 275.04 119.65 273.66 121.68 271.96
M 98.49 241.50
C 109.58 229.09 114.41 219.66 114.43 210.33
C 114.45 200.74 108.46 189.52 97.54 178.72
L 88.75 170.02
L 79.73 179.51
C 57.05 203.37 56.63 222.00 78.27 243.39
C 83.08 248.14 87.47 252.03 88.03 252.03
C 88.61 252.03 93.30 247.29 98.49 241.50
M 103.53 94.17
C 110.06 86.29 114.41 75.98 114.43 68.33
C 114.46 54.81 101.83 37.10 92.14 37.10
C 82.39 37.10 69.83 54.78 69.83 68.53
C 69.83 78.61 77.10 92.16 86.73 100.02
L 94.06 106.02
L 96.62 102.72
C 98.03 100.90 101.14 97.06 103.53 94.17"/>
<path fill="#cfa777" stroke="none" d="
M 155.29 589.86
C 153.08 588.51 149.50 584.84 147.35 581.71
C 142.78 575.08 101.21 501.15 83.19 467.59
C 76.39 454.93 64.41 433.69 56.56 420.38
C 38.02 388.93 31.99 371.31 31.99 348.61
C 31.99 331.55 39.70 313.98 53.77 298.96
L 62.32 289.84
L 72.75 299.27
L 83.18 308.69
L 77.70 314.57
C 67.22 325.84 63.56 334.64 61.94 352.53
C 60.38 369.71 67.84 391.80 80.47 407.32
C 96.16 426.61 115.70 457.54 140.77 502.77
C 155.00 528.45 167.99 551.48 169.63 553.94
C 171.26 556.41 173.26 561.03 174.04 564.23
C 175.30 569.26 175.13 571.00 172.79 577.27
C 171.12 581.69 168.35 586.02 165.62 588.41
C 160.36 593.03 160.46 593.01 155.29 589.86"/>
<path fill="#cfa777" stroke="none" d="
M 13.96 585.81
C 10.89 582.74 7.68 575.67 7.68 571.96
C 7.68 565.96 10.71 556.13 13.49 553.14
C 15.14 551.35 28.13 530.65 42.36 507.15
C 56.58 483.63 68.58 464.39 69.02 464.39
C 70.03 464.39 83.18 489.13 83.18 491.04
C 83.18 491.82 74.10 507.88 62.98 526.72
C 51.87 545.57 40.91 564.83 38.62 569.55
C 33.98 579.12 24.60 588.49 19.66 588.49
C 17.99 588.49 15.43 587.28 13.96 585.81"/>
<path fill="#cfa777" stroke="none" d="
M 106.01 424.95
L 97.48 412.45
L 104.53 402.92
C 113.73 390.49 115.75 386.38 118.92 373.61
C 122.24 360.31 122.24 356.11 118.91 342.72
C 114.27 324.01 111.67 320.71 76.74 289.19
C 48.39 263.60 41.68 256.00 34.71 241.56
C 26.76 225.07 24.93 216.74 26.89 205.74
C 29.33 191.92 36.65 178.90 50.61 163.43
C 57.45 155.87 63.53 149.68 64.11 149.68
C 64.72 149.68 68.81 153.08 73.23 157.23
L 81.26 164.78
L 73.49 172.90
C 69.21 177.36 64.08 183.83 62.08 187.27
C 58.06 194.15 53.75 208.18 53.75 214.38
C 53.75 220.26 58.33 232.55 63.32 240.08
C 67.56 246.47 70.54 249.19 98.81 272.47
C 106.05 278.44 117.50 288.81 124.25 295.50
C 134.47 305.64 137.40 309.49 141.81 318.55
C 150.96 337.39 153.60 360.79 148.36 376.38
C 146.91 380.69 143.30 388.87 140.36 394.57
C 133.76 407.35 116.05 437.50 115.17 437.46
C 114.82 437.45 110.70 431.82 106.01 424.95"/>
<path fill="#cfa777" stroke="none" d="
M 107.51 266.74
C 102.24 262.21 97.77 258.03 97.58 257.45
C 97.37 256.86 100.97 252.22 105.55 247.14
C 110.13 242.05 114.96 235.74 116.29 233.13
C 119.40 226.96 122.85 214.90 122.84 210.26
C 122.83 204.93 118.45 191.42 114.73 185.17
C 111.44 179.65 97.92 165.84 80.62 150.31
C 75.35 145.56 69.87 140.46 68.47 138.97
C 67.06 137.48 62.91 134.06 59.25 131.39
C 46.26 121.91 36.19 108.24 31.24 93.39
C 27.67 82.70 28.03 61.96 31.95 51.81
C 35.38 42.99 41.55 32.85 49.12 23.67
C 56.12 15.16 56.88 14.62 66.55 11.30
C 76.51 7.87 98.12 7.22 107.50 10.06
C 125.48 15.51 129.44 18.10 138.24 30.19
C 142.50 36.06 147.85 44.78 150.10 49.54
C 153.84 57.44 154.21 59.30 154.17 70.36
C 154.10 90.43 146.43 108.12 130.84 124.09
L 121.48 133.69
L 111.99 123.45
C 106.77 117.83 102.47 112.54 102.44 111.72
C 102.40 110.89 104.37 107.73 106.83 104.69
C 114.09 95.64 118.53 87.38 120.97 78.37
C 122.94 71.07 123.06 68.80 121.74 62.12
C 117.89 42.50 107.68 30.68 93.75 29.73
C 79.71 28.77 69.46 37.89 64.01 56.23
C 60.79 67.01 60.79 69.90 63.99 80.46
C 67.68 92.69 72.43 99.80 82.27 107.85
C 92.81 116.46 124.00 151.11 136.16 167.69
C 146.49 181.78 154.79 200.16 155.79 211.15
C 157.01 224.60 148.33 242.90 131.96 261.40
C 125.87 268.29 118.64 275.12 117.56 275.01
C 117.30 274.99 112.78 271.27 107.51 266.74"/>
</g>
</svg>
