<?xml version="1.0" encoding="UTF-8" standalone="no"?>
<!DOCTYPE svg PUBLIC "-//W3C//DTD SVG 1.1//EN"
"http://www.w3.org/Graphics/SVG/1.1/DTD/svg11.dtd">
<svg width="152px" height="600px"
xmlns="http://www.w3.org/2000/svg" version="1.1">
<g transform="translate(0000, 0000) scale(1.0000, 1.0000)">
<path fill="#000000" stroke="none" d="
M 3.16 596.85
C -1.16 592.52 -1.30 582.68 2.90 577.36
C 4.50 575.34 18.99 555.13 35.10 532.44
L 64.41 491.20
L 64.41 320.88
C 64.41 185.74 64.07 150.46 62.80 150.09
C 61.91 149.83 57.13 148.69 52.17 147.54
C 39.34 144.57 30.17 139.57 21.27 130.67
C 8.03 117.44 0.89 98.27 0.89 75.97
C 0.89 53.67 8.03 34.49 21.27 21.26
C 34.47 8.06 53.50 0.99 76.00 0.91
C 98.22 0.84 117.45 7.98 130.73 21.26
C 139.69 30.21 144.44 38.95 148.19 53.43
C 152.63 70.51 152.79 79.71 148.93 95.23
C 144.59 112.70 140.25 121.16 130.73 130.67
C 121.83 139.57 112.66 144.57 99.83 147.54
C 94.87 148.69 90.09 149.83 89.20 150.09
C 87.93 150.46 87.59 185.74 87.59 320.88
L 87.59 491.20
L 117.37 533.05
C 133.76 556.07 148.25 576.63 149.58 578.76
C 151.96 582.57 152.76 590.10 151.20 594.15
C 149.10 599.60 134.75 602.09 130.42 597.75
C 129.19 596.50 116.58 579.13 102.41 559.13
C 88.24 539.14 76.35 522.79 76.00 522.79
C 75.65 522.79 63.30 539.82 48.55 560.64
C 33.81 581.46 20.87 598.83 19.79 599.24
C 18.70 599.67 15.24 600.00 12.07 600.00
C 7.69 600.00 5.58 599.25 3.16 596.85
M 39.97 557.19
C 69.43 515.54 72.86 511.16 75.97 511.16
C 79.18 511.16 80.68 513.06 110.75 555.41
C 125.16 575.69 137.68 592.27 138.58 592.27
C 140.30 592.27 144.27 588.85 144.27 587.36
C 144.27 586.87 130.06 566.48 112.71 542.06
L 81.15 497.64
L 81.15 320.88
C 81.15 180.59 81.49 144.03 82.76 143.65
C 83.65 143.39 88.43 142.25 93.39 141.10
C 110.21 137.21 123.17 128.50 132.10 115.06
C 154.31 81.61 143.00 33.37 108.92 16.20
C 100.69 12.05 83.88 7.73 76.00 7.73
C 68.12 7.73 51.31 12.05 43.08 16.20
C 9.00 33.37 -2.31 81.61 19.90 115.06
C 28.83 128.50 41.79 137.21 58.61 141.10
C 63.57 142.25 68.35 143.39 69.24 143.65
C 70.51 144.03 70.85 180.59 70.85 320.88
L 70.85 497.64
L 41.13 539.48
C 24.78 562.51 10.58 582.24 9.57 583.36
C 8.55 584.48 7.73 586.03 7.73 586.82
C 7.73 588.76 11.41 592.27 13.46 592.27
C 14.39 592.27 26.32 576.49 39.97 557.19"/>
<path fill="#e1bc90" stroke="none" d="
M 9.75 590.25
C 7.24 587.74 7.20 585.98 9.57 583.36
C 10.58 582.24 24.78 562.51 41.13 539.48
L 70.85 497.64
L 70.85 320.88
C 70.85 180.59 70.51 144.03 69.24 143.65
C 68.35 143.39 63.57 142.25 58.61 141.10
C 27.88 134.01 8.62 108.91 8.62 75.97
C 8.62 38.15 34.05 11.23 72.60 8.24
C 88.55 7.00 108.72 13.75 121.34 24.53
C 140.66 41.03 148.65 72.22 140.16 97.98
C 132.56 121.03 116.61 135.73 93.39 141.10
C 88.43 142.25 83.65 143.39 82.76 143.65
C 81.49 144.03 81.15 180.59 81.15 320.88
L 81.15 497.64
L 112.71 542.06
C 130.06 566.48 144.27 586.87 144.27 587.36
C 144.27 588.85 140.30 592.27 138.58 592.27
C 137.68 592.27 125.16 575.69 110.75 555.41
C 80.68 513.06 79.18 511.16 75.97 511.16
C 72.86 511.16 69.43 515.54 39.97 557.19
C 26.32 576.49 14.39 592.27 13.46 592.27
C 12.53 592.27 10.87 591.36 9.75 590.25"/>
</g>
</svg>
