<?xml version="1.0" encoding="UTF-8" standalone="no"?>
<!DOCTYPE svg PUBLIC "-//W3C//DTD SVG 1.1//EN"
"http://www.w3.org/Graphics/SVG/1.1/DTD/svg11.dtd">
<svg width="649px" height="600px"
xmlns="http://www.w3.org/2000/svg" version="1.1">
<g transform="translate(0000, 0000) scale(1.0000, 1.0000)">
<path fill="#000000" stroke="none" d="
M 375.86 598.41
C 374.74 597.53 355.96 569.58 334.13 536.31
C 312.30 503.03 293.91 475.80 293.26 475.80
C 292.61 475.80 274.80 502.17 253.68 534.39
C 232.57 566.62 213.86 594.28 212.13 595.86
C 203.34 603.82 192.19 593.83 197.80 583.03
C 198.60 581.50 218.20 551.36 241.37 516.05
C 264.53 480.74 283.48 451.20 283.48 450.39
C 283.48 449.59 274.75 435.63 264.05 419.38
C 253.37 403.11 242.71 385.41 240.37 380.04
L 236.13 370.28
L 222.29 367.49
C 191.61 361.30 169.57 353.38 137.07 336.85
C 117.16 326.74 107.42 321.06 90.53 309.71
C 85.96 306.64 71.05 292.88 57.36 279.13
C 36.01 257.67 30.95 251.80 21.55 237.58
C 0.66 205.96 -3.39 195.75 2.55 189.81
C 5.06 187.30 6.80 187.26 114.12 187.26
L 223.13 187.26
L 223.16 179.30
C 223.17 172.08 225.26 160.56 227.51 155.25
C 228.21 153.59 220.24 148.25 187.53 128.50
C 165.07 114.93 146.67 103.10 146.66 102.20
C 146.62 99.39 155.03 83.75 162.98 71.90
C 187.20 35.72 223.13 10.82 263.30 2.34
C 275.49 -0.23 312.03 0.18 325.14 3.03
C 337.65 5.76 354.82 11.59 364.03 16.25
C 390.80 29.80 416.51 55.64 434.72 87.38
C 438.26 93.55 441.17 99.83 441.17 101.32
C 441.17 103.52 433.87 108.23 401.64 126.85
C 379.90 139.40 360.98 150.54 359.59 151.59
C 357.18 153.41 357.17 153.76 359.10 159.24
C 360.21 162.38 361.43 169.99 361.80 176.11
L 362.47 187.26
L 472.47 187.26
C 576.37 187.26 582.90 187.39 590.14 189.64
C 614.54 197.24 636.43 218.97 643.90 243.02
C 645.26 247.41 647.09 255.87 647.94 261.80
C 649.28 270.98 649.20 274.17 647.47 283.16
C 645.17 295.04 639.63 307.77 633.52 315.13
C 629.10 320.47 618.60 326.08 613.03 326.10
C 596.94 326.17 578.06 306.54 571.03 282.47
L 568.15 272.59
L 570.86 262.09
C 572.36 256.32 575.44 246.31 577.72 239.83
L 581.88 228.08
L 578.83 221.57
C 575.21 213.85 569.21 208.17 566.78 210.17
C 565.91 210.90 560.40 218.51 554.54 227.08
C 521.74 275.17 494.72 303.67 460.43 326.36
C 441.33 339.01 417.21 350.04 394.30 356.62
C 382.55 360.00 368.76 363.53 363.63 364.47
C 354.40 366.17 354.27 366.24 351.40 371.95
C 349.81 375.12 338.73 392.64 326.81 410.88
C 314.87 429.13 304.42 445.35 303.58 446.92
C 301.70 450.42 297.01 442.69 349.66 522.85
C 379.89 568.89 391.44 587.48 391.44 590.11
C 391.44 597.46 381.46 602.78 375.86 598.41
M 383.74 591.78
C 385.00 590.27 377.66 578.29 342.90 525.22
C 319.58 489.63 298.88 458.80 296.88 456.71
L 293.26 452.92
L 290.15 456.08
C 286.03 460.23 202.73 587.20 202.73 589.31
C 202.73 591.73 205.16 592.76 207.08 591.17
C 208.01 590.39 226.50 562.76 248.15 529.76
C 271.80 493.72 288.67 469.22 290.39 468.43
C 292.37 467.52 294.15 467.52 296.13 468.43
C 297.85 469.22 315.20 494.46 339.65 531.69
C 362.00 565.76 380.72 593.63 381.24 593.63
C 381.78 593.63 382.90 592.80 383.74 591.78
M 308.84 420.93
C 321.68 401.87 338.58 371.81 337.66 369.67
C 337.44 369.13 330.65 369.39 322.59 370.24
C 314.53 371.08 294.87 371.82 278.92 371.87
C 262.97 371.94 249.91 372.27 249.91 372.64
C 249.91 373.01 252.28 378.01 255.18 383.76
C 265.03 403.36 291.08 442.54 293.69 441.71
C 294.51 441.44 301.32 432.09 308.84 420.93
M 286.89 365.61
C 286.89 364.82 280.29 364.33 269.67 364.33
C 259.05 364.33 252.46 364.82 252.46 365.61
C 252.46 366.39 259.05 366.88 269.67 366.88
C 280.29 366.88 286.89 366.39 286.89 365.61
M 306.01 356.05
L 306.01 345.22
L 298.36 345.22
L 290.71 345.22
L 290.71 356.05
L 290.71 366.88
L 298.36 366.88
L 306.01 366.88
L 306.01 356.05
M 248.63 355.41
L 248.63 345.22
L 240.98 345.22
L 233.33 345.22
L 233.33 354.70
L 233.33 364.17
L 237.48 364.69
C 239.76 364.97 243.20 365.29 245.13 365.40
L 248.63 365.61
L 248.63 355.41
M 319.22 364.79
L 325.14 363.99
L 325.14 354.60
L 325.14 345.22
L 317.49 345.22
L 309.84 345.22
L 309.84 355.41
C 309.84 366.65 309.33 366.15 319.22 364.79
M 229.51 354.14
L 229.51 345.22
L 221.79 345.22
L 214.08 345.22
L 214.46 352.55
L 214.85 359.86
L 221.22 361.34
C 224.73 362.15 228.03 362.87 228.55 362.93
C 229.08 363.01 229.51 359.04 229.51 354.14
M 286.89 352.87
L 286.89 345.22
L 269.67 345.22
L 252.46 345.22
L 252.46 352.87
L 252.46 360.51
L 269.67 360.51
L 286.89 360.51
L 286.89 352.87
M 359.56 359.38
C 362.37 358.60 362.80 357.71 363.13 351.86
L 363.52 345.22
L 346.24 345.22
L 328.96 345.22
L 328.96 352.87
L 328.96 360.51
L 342.67 360.38
C 350.20 360.32 357.80 359.86 359.56 359.38
M 210.38 351.59
L 210.38 345.22
L 193.17 345.22
C 183.70 345.22 175.96 345.72 175.96 346.32
C 175.96 347.61 184.40 351.07 197.00 354.94
C 210.37 359.06 210.38 359.06 210.38 351.59
M 382.51 349.41
L 382.51 345.22
L 374.86 345.22
L 367.21 345.22
L 367.21 351.46
L 367.21 357.69
L 374.86 355.64
C 382.25 353.67 382.51 353.45 382.51 349.41
M 395.42 349.39
C 398.84 348.17 401.64 346.74 401.64 346.20
C 401.64 345.66 398.20 345.22 393.99 345.22
C 386.68 345.22 386.34 345.36 386.34 348.41
C 386.34 352.19 387.23 352.28 395.42 349.39
M 408.95 345.73
C 408.53 345.30 407.42 345.26 406.50 345.63
C 405.48 346.04 405.78 346.33 407.28 346.39
C 408.61 346.45 409.37 346.15 408.95 345.73
M 172.13 333.76
L 172.13 326.11
L 154.92 326.11
C 133.29 326.11 132.50 327.49 149.41 335.71
C 157.75 339.77 162.70 341.40 166.62 341.40
L 172.13 341.40
L 172.13 333.76
M 191.26 324.20
L 191.26 307.01
L 183.61 307.01
L 175.96 307.01
L 175.96 324.20
L 175.96 341.40
L 183.61 341.40
L 191.26 341.40
L 191.26 324.20
M 210.38 324.20
L 210.38 307.01
L 202.73 307.01
L 195.08 307.01
L 195.08 324.20
L 195.08 341.40
L 202.73 341.40
L 210.38 341.40
L 210.38 324.20
M 248.63 333.76
L 248.63 326.11
L 231.42 326.11
L 214.21 326.11
L 214.21 333.76
L 214.21 341.40
L 231.42 341.40
L 248.63 341.40
L 248.63 333.76
M 267.76 324.20
L 267.76 307.01
L 260.11 307.01
L 252.46 307.01
L 252.46 324.20
L 252.46 341.40
L 260.11 341.40
L 267.76 341.40
L 267.76 324.20
M 286.89 324.20
L 286.89 307.01
L 279.24 307.01
L 271.59 307.01
L 271.59 324.20
L 271.59 341.40
L 279.24 341.40
L 286.89 341.40
L 286.89 324.20
M 325.14 333.76
L 325.14 326.11
L 307.92 326.11
L 290.71 326.11
L 290.71 333.76
L 290.71 341.40
L 307.92 341.40
L 325.14 341.40
L 325.14 333.76
M 345.54 324.20
L 345.54 307.01
L 337.25 307.01
L 328.96 307.01
L 328.96 324.20
L 328.96 341.40
L 337.25 341.40
L 345.54 341.40
L 345.54 324.20
M 363.39 324.20
L 363.39 307.01
L 356.38 307.01
L 349.36 307.01
L 349.36 324.20
L 349.36 341.40
L 356.38 341.40
L 363.39 341.40
L 363.39 324.20
M 401.64 333.76
L 401.64 326.11
L 384.43 326.11
L 367.21 326.11
L 367.21 333.76
L 367.21 341.40
L 384.43 341.40
L 401.64 341.40
L 401.64 333.76
M 420.49 323.89
L 420.84 307.01
L 413.15 307.01
L 405.47 307.01
L 405.47 324.27
L 405.47 341.53
L 412.80 341.15
L 420.13 340.76
L 420.49 323.89
M 432.85 334.13
L 439.89 330.68
L 439.89 318.84
L 439.89 307.01
L 432.24 307.01
L 424.59 307.01
L 424.59 322.29
C 424.59 330.70 424.87 337.58 425.20 337.58
C 425.53 337.58 428.98 336.03 432.85 334.13
M 447.54 326.61
C 447.54 326.34 446.68 326.11 445.63 326.11
C 444.58 326.11 443.72 326.68 443.72 327.35
C 443.72 328.03 444.58 328.25 445.63 327.85
C 446.68 327.45 447.54 326.89 447.54 326.61
M 133.88 317.20
L 133.88 307.01
L 126.23 307.01
L 118.58 307.01
L 118.58 313.18
L 118.58 319.38
L 125.91 323.35
C 129.94 325.53 133.38 327.34 133.56 327.35
C 133.74 327.38 133.88 322.80 133.88 317.20
M 172.13 314.65
L 172.13 307.01
L 154.92 307.01
L 137.71 307.01
L 137.71 314.65
L 137.71 322.29
L 154.92 322.29
L 172.13 322.29
L 172.13 314.65
M 248.63 314.65
L 248.63 307.01
L 231.42 307.01
L 214.21 307.01
L 214.21 314.65
L 214.21 322.29
L 231.42 322.29
L 248.63 322.29
L 248.63 314.65
M 325.14 314.65
L 325.14 307.01
L 307.92 307.01
L 290.71 307.01
L 290.71 314.65
L 290.71 322.29
L 307.92 322.29
L 325.14 322.29
L 325.14 314.65
M 401.64 314.65
L 401.64 307.01
L 384.43 307.01
L 367.21 307.01
L 367.21 314.65
L 367.21 322.29
L 384.43 322.29
L 401.64 322.29
L 401.64 314.65
M 464.30 315.08
C 469.80 311.12 474.32 307.68 474.32 307.44
C 474.32 307.20 467.43 307.01 459.02 307.01
L 443.72 307.01
L 443.72 314.65
L 443.72 322.29
L 449.00 322.29
C 453.38 322.29 455.97 321.07 464.30 315.08
M 619.60 317.24
C 625.85 314.05 631.48 307.27 636.28 297.17
C 648.86 270.66 641.20 237.44 617.03 213.83
C 605.92 202.96 585.86 192.56 579.20 194.23
C 577.64 194.62 575.40 196.39 574.23 198.18
C 572.17 201.34 572.22 201.52 576.69 206.11
C 581.86 211.43 587.80 223.21 587.73 228.03
C 587.71 229.78 585.67 236.94 583.21 243.95
C 574.82 267.77 574.38 270.28 576.93 279.72
C 580.81 294.03 594.59 312.47 605.01 317.32
C 611.50 320.33 613.54 320.32 619.60 317.24
M 114.75 311.46
L 114.75 307.01
L 107.74 307.01
C 103.88 307.01 100.73 307.29 100.73 307.64
C 100.73 308.43 112.50 315.87 113.80 315.90
C 114.32 315.91 114.75 313.92 114.75 311.46
M 95.63 285.99
L 95.63 268.79
L 87.98 268.79
L 80.33 268.79
L 80.33 280.66
L 80.33 292.55
L 86.87 297.86
C 90.48 300.79 93.92 303.18 94.52 303.18
C 95.13 303.18 95.63 295.45 95.63 285.99
M 133.88 295.54
L 133.88 287.90
L 116.67 287.90
L 99.45 287.90
L 99.45 295.54
L 99.45 303.18
L 116.67 303.18
L 133.88 303.18
L 133.88 295.54
M 153.01 285.99
L 153.01 268.79
L 145.36 268.79
L 137.71 268.79
L 137.71 285.99
L 137.71 303.18
L 145.36 303.18
L 153.01 303.18
L 153.01 285.99
M 172.13 285.99
L 172.13 268.79
L 164.48 268.79
L 156.83 268.79
L 156.83 285.99
L 156.83 303.18
L 164.48 303.18
L 172.13 303.18
L 172.13 285.99
M 210.38 295.54
L 210.38 287.90
L 193.17 287.90
L 175.96 287.90
L 175.96 295.54
L 175.96 303.18
L 193.17 303.18
L 210.38 303.18
L 210.38 295.54
M 229.51 285.99
L 229.51 268.79
L 221.86 268.79
L 214.21 268.79
L 214.21 285.99
L 214.21 303.18
L 221.86 303.18
L 229.51 303.18
L 229.51 285.99
M 248.63 285.99
L 248.63 268.79
L 240.98 268.79
L 233.33 268.79
L 233.33 285.99
L 233.33 303.18
L 240.98 303.18
L 248.63 303.18
L 248.63 285.99
M 286.89 295.54
L 286.89 287.90
L 269.67 287.90
L 252.46 287.90
L 252.46 295.54
L 252.46 303.18
L 269.67 303.18
L 286.89 303.18
L 286.89 295.54
M 306.01 285.99
L 306.01 268.79
L 298.36 268.79
L 290.71 268.79
L 290.71 285.99
L 290.71 303.18
L 298.36 303.18
L 306.01 303.18
L 306.01 285.99
M 325.14 285.99
L 325.14 268.79
L 317.49 268.79
L 309.84 268.79
L 309.84 285.99
L 309.84 303.18
L 317.49 303.18
L 325.14 303.18
L 325.14 285.99
M 363.39 295.54
L 363.39 287.90
L 346.18 287.90
L 328.96 287.90
L 328.96 295.54
L 328.96 303.18
L 346.18 303.18
L 363.39 303.18
L 363.39 295.54
M 382.51 285.99
L 382.51 268.79
L 374.86 268.79
L 367.21 268.79
L 367.21 285.99
L 367.21 303.18
L 374.86 303.18
L 382.51 303.18
L 382.51 285.99
M 401.64 285.99
L 401.64 268.79
L 393.99 268.79
L 386.34 268.79
L 386.34 285.99
L 386.34 303.18
L 393.99 303.18
L 401.64 303.18
L 401.64 285.99
M 439.89 295.54
L 439.89 287.90
L 422.68 287.90
L 405.47 287.90
L 405.47 295.54
L 405.47 303.18
L 422.68 303.18
L 439.89 303.18
L 439.89 295.54
M 459.02 285.99
L 459.02 268.79
L 451.37 268.79
L 443.72 268.79
L 443.72 285.99
L 443.72 303.18
L 451.37 303.18
L 459.02 303.18
L 459.02 285.99
M 478.14 285.99
L 478.14 268.79
L 470.49 268.79
L 462.84 268.79
L 462.84 285.99
L 462.84 303.18
L 470.49 303.18
L 478.14 303.18
L 478.14 285.99
M 495.99 288.38
C 495.99 288.11 492.83 287.90 488.98 287.90
L 481.97 287.90
L 481.97 294.37
L 481.97 300.83
L 488.98 294.85
C 492.83 291.55 495.99 288.65 495.99 288.38
M 76.50 278.34
L 76.50 268.79
L 68.85 268.79
C 58.87 268.79 58.81 270.75 68.50 280.54
C 72.50 284.59 75.94 287.90 76.15 287.90
C 76.34 287.90 76.50 283.59 76.50 278.34
M 133.88 276.43
L 133.88 268.79
L 116.67 268.79
L 99.45 268.79
L 99.45 276.43
L 99.45 284.08
L 116.67 284.08
L 133.88 284.08
L 133.88 276.43
M 210.38 276.43
L 210.38 268.79
L 193.17 268.79
L 175.96 268.79
L 175.96 276.43
L 175.96 284.08
L 193.17 284.08
L 210.38 284.08
L 210.38 276.43
M 286.89 276.43
L 286.89 268.79
L 269.67 268.79
L 252.46 268.79
L 252.46 276.43
L 252.46 284.08
L 269.67 284.08
L 286.89 284.08
L 286.89 276.43
M 363.39 276.43
L 363.39 268.79
L 346.18 268.79
L 328.96 268.79
L 328.96 276.43
L 328.96 284.08
L 346.18 284.08
L 363.39 284.08
L 363.39 276.43
M 439.89 276.43
L 439.89 268.79
L 422.68 268.79
L 405.47 268.79
L 405.47 276.43
L 405.47 284.08
L 422.68 284.08
L 439.89 284.08
L 439.89 276.43
M 505.02 279.30
C 507.47 276.68 510.54 273.24 511.86 271.66
L 514.24 268.79
L 498.10 268.79
L 481.97 268.79
L 481.97 276.43
L 481.97 284.08
L 491.28 284.08
C 500.38 284.08 500.67 283.97 505.02 279.30
M 57.38 247.77
L 57.38 230.57
L 49.73 230.57
L 42.08 230.57
L 42.09 241.72
L 42.09 252.87
L 47.28 258.92
C 50.13 262.24 53.58 264.97 54.93 264.97
C 57.22 264.97 57.38 263.89 57.38 247.77
M 95.63 257.32
L 95.63 249.68
L 78.42 249.68
L 61.20 249.68
L 61.20 257.32
L 61.20 264.97
L 78.42 264.97
L 95.63 264.97
L 95.63 257.32
M 114.75 247.77
L 114.75 230.57
L 107.10 230.57
L 99.45 230.57
L 99.45 247.77
L 99.45 264.97
L 107.10 264.97
L 114.75 264.97
L 114.75 247.77
M 133.88 247.77
L 133.88 230.57
L 126.23 230.57
L 118.58 230.57
L 118.58 247.77
L 118.58 264.97
L 126.23 264.97
L 133.88 264.97
L 133.88 247.77
M 172.13 257.32
L 172.13 249.68
L 154.92 249.68
L 137.71 249.68
L 137.71 257.32
L 137.71 264.97
L 154.92 264.97
L 172.13 264.97
L 172.13 257.32
M 191.26 247.77
L 191.26 230.57
L 183.61 230.57
L 175.96 230.57
L 175.96 247.77
L 175.96 264.97
L 183.61 264.97
L 191.26 264.97
L 191.26 247.77
M 210.38 247.77
L 210.38 230.57
L 202.73 230.57
L 195.08 230.57
L 195.08 247.77
L 195.08 264.97
L 202.73 264.97
L 210.38 264.97
L 210.38 247.77
M 248.63 257.32
L 248.63 249.68
L 231.42 249.68
L 214.21 249.68
L 214.21 257.32
L 214.21 264.97
L 231.42 264.97
L 248.63 264.97
L 248.63 257.32
M 267.76 247.77
L 267.76 230.57
L 260.11 230.57
L 252.46 230.57
L 252.46 247.77
L 252.46 264.97
L 260.11 264.97
L 267.76 264.97
L 267.76 247.77
M 286.89 247.77
L 286.89 230.57
L 279.24 230.57
L 271.59 230.57
L 271.59 247.77
L 271.59 264.97
L 279.24 264.97
L 286.89 264.97
L 286.89 247.77
M 325.14 257.32
L 325.14 249.68
L 307.92 249.68
L 290.71 249.68
L 290.71 257.32
L 290.71 264.97
L 307.92 264.97
L 325.14 264.97
L 325.14 257.32
M 345.54 247.77
L 345.54 230.57
L 337.25 230.57
L 328.96 230.57
L 328.96 247.77
L 328.96 264.97
L 337.25 264.97
L 345.54 264.97
L 345.54 247.77
M 363.39 247.77
L 363.39 230.57
L 356.38 230.57
L 349.36 230.57
L 349.36 247.77
L 349.36 264.97
L 356.38 264.97
L 363.39 264.97
L 363.39 247.77
M 401.64 257.32
L 401.64 249.68
L 384.43 249.68
L 367.21 249.68
L 367.21 257.32
L 367.21 264.97
L 384.43 264.97
L 401.64 264.97
L 401.64 257.32
M 420.77 247.77
L 420.77 230.57
L 413.12 230.57
L 405.47 230.57
L 405.47 247.77
L 405.47 264.97
L 413.12 264.97
L 420.77 264.97
L 420.77 247.77
M 439.89 247.77
L 439.89 230.57
L 432.24 230.57
L 424.59 230.57
L 424.59 247.77
L 424.59 264.97
L 432.24 264.97
L 439.89 264.97
L 439.89 247.77
M 478.14 257.32
L 478.14 249.68
L 460.93 249.68
L 443.72 249.68
L 443.72 257.32
L 443.72 264.97
L 460.93 264.97
L 478.14 264.97
L 478.14 257.32
M 497.27 247.77
L 497.27 230.57
L 489.62 230.57
L 481.97 230.57
L 481.97 247.77
L 481.97 264.97
L 489.62 264.97
L 497.27 264.97
L 497.27 247.77
M 516.39 247.77
L 516.39 230.57
L 508.74 230.57
L 501.09 230.57
L 501.09 247.77
L 501.09 264.97
L 508.74 264.97
L 516.39 264.97
L 516.39 247.77
M 528.33 251.27
C 529.03 250.11 528.05 249.68 524.76 249.68
L 520.22 249.68
L 520.22 256.24
L 520.22 262.80
L 523.79 257.83
C 525.77 255.11 527.81 252.15 528.33 251.27
M 37.82 230.98
C 37.50 230.68 34.59 230.60 31.34 230.82
L 25.42 231.21
L 31.52 239.95
L 37.61 248.70
L 38.00 240.11
C 38.20 235.40 38.12 231.30 37.82 230.98
M 95.63 238.22
L 95.63 230.57
L 78.42 230.57
L 61.20 230.57
L 61.20 238.22
L 61.20 245.86
L 78.42 245.86
L 95.63 245.86
L 95.63 238.22
M 172.13 238.22
L 172.13 230.57
L 154.92 230.57
L 137.71 230.57
L 137.71 238.22
L 137.71 245.86
L 154.92 245.86
L 172.13 245.86
L 172.13 238.22
M 248.63 238.22
L 248.63 230.57
L 231.42 230.57
L 214.21 230.57
L 214.21 238.22
L 214.21 245.86
L 231.42 245.86
L 248.63 245.86
L 248.63 238.22
M 325.14 238.22
L 325.14 230.57
L 307.92 230.57
L 290.71 230.57
L 290.71 238.22
L 290.71 245.86
L 307.92 245.86
L 325.14 245.86
L 325.14 238.22
M 401.64 238.22
L 401.64 230.57
L 384.43 230.57
L 367.21 230.57
L 367.21 238.22
L 367.21 245.86
L 384.43 245.86
L 401.64 245.86
L 401.64 238.22
M 478.14 238.22
L 478.14 230.57
L 460.93 230.57
L 443.72 230.57
L 443.72 238.22
L 443.72 245.86
L 460.93 245.86
L 478.14 245.86
L 478.14 238.22
M 536.97 239.81
C 544.31 230.01 544.62 230.57 531.77 230.57
L 520.22 230.57
L 520.22 238.22
L 520.22 245.86
L 526.33 245.86
C 532.14 245.86 532.68 245.55 536.97 239.81
M 57.38 219.11
L 57.38 211.46
L 40.16 211.46
L 22.95 211.46
L 22.95 219.11
L 22.95 226.75
L 40.16 226.75
L 57.38 226.75
L 57.38 219.11
M 76.50 209.55
L 76.50 192.36
L 68.85 192.36
L 61.20 192.36
L 61.20 209.55
L 61.20 226.75
L 68.85 226.75
L 76.50 226.75
L 76.50 209.55
M 95.63 209.55
L 95.63 192.36
L 87.98 192.36
L 80.33 192.36
L 80.33 209.55
L 80.33 226.75
L 87.98 226.75
L 95.63 226.75
L 95.63 209.55
M 133.88 219.11
L 133.88 211.46
L 116.67 211.46
L 99.45 211.46
L 99.45 219.11
L 99.45 226.75
L 116.67 226.75
L 133.88 226.75
L 133.88 219.11
M 153.01 209.55
L 153.01 192.36
L 145.36 192.36
L 137.71 192.36
L 137.71 209.55
L 137.71 226.75
L 145.36 226.75
L 153.01 226.75
L 153.01 209.55
M 172.13 209.55
L 172.13 192.36
L 164.48 192.36
L 156.83 192.36
L 156.83 209.55
L 156.83 226.75
L 164.48 226.75
L 172.13 226.75
L 172.13 209.55
M 210.38 219.11
L 210.38 211.46
L 193.17 211.46
L 175.96 211.46
L 175.96 219.11
L 175.96 226.75
L 193.17 226.75
L 210.38 226.75
L 210.38 219.11
M 229.51 209.55
L 229.51 192.36
L 221.86 192.36
L 214.21 192.36
L 214.21 209.55
L 214.21 226.75
L 221.86 226.75
L 229.51 226.75
L 229.51 209.55
M 248.63 209.55
L 248.63 192.36
L 240.98 192.36
L 233.33 192.36
L 233.33 209.55
L 233.33 226.75
L 240.98 226.75
L 248.63 226.75
L 248.63 209.55
M 286.89 219.11
L 286.89 211.46
L 269.67 211.46
L 252.46 211.46
L 252.46 219.11
L 252.46 226.75
L 269.67 226.75
L 286.89 226.75
L 286.89 219.11
M 306.01 209.55
L 306.01 192.36
L 298.36 192.36
L 290.71 192.36
L 290.71 209.55
L 290.71 226.75
L 298.36 226.75
L 306.01 226.75
L 306.01 209.55
M 325.14 209.55
L 325.14 192.36
L 317.49 192.36
L 309.84 192.36
L 309.84 209.55
L 309.84 226.75
L 317.49 226.75
L 325.14 226.75
L 325.14 209.55
M 363.39 219.11
L 363.39 211.46
L 346.18 211.46
L 328.96 211.46
L 328.96 219.11
L 328.96 226.75
L 346.18 226.75
L 363.39 226.75
L 363.39 219.11
M 382.51 209.55
L 382.51 192.36
L 374.86 192.36
L 367.21 192.36
L 367.21 209.55
L 367.21 226.75
L 374.86 226.75
L 382.51 226.75
L 382.51 209.55
M 401.64 209.55
L 401.64 192.36
L 393.99 192.36
L 386.34 192.36
L 386.34 209.55
L 386.34 226.75
L 393.99 226.75
L 401.64 226.75
L 401.64 209.55
M 439.89 219.11
L 439.89 211.46
L 422.68 211.46
L 405.47 211.46
L 405.47 219.11
L 405.47 226.75
L 422.68 226.75
L 439.89 226.75
L 439.89 219.11
M 459.02 209.55
L 459.02 192.36
L 451.37 192.36
L 443.72 192.36
L 443.72 209.55
L 443.72 226.75
L 451.37 226.75
L 459.02 226.75
L 459.02 209.55
M 478.14 209.55
L 478.14 192.36
L 470.49 192.36
L 462.84 192.36
L 462.84 209.55
L 462.84 226.75
L 470.49 226.75
L 478.14 226.75
L 478.14 209.55
M 516.39 219.11
L 516.39 211.46
L 499.18 211.46
L 481.97 211.46
L 481.97 219.11
L 481.97 226.75
L 499.18 226.75
L 516.39 226.75
L 516.39 219.11
M 535.52 209.55
L 535.52 192.36
L 527.87 192.36
L 520.22 192.36
L 520.22 209.55
L 520.22 226.75
L 527.87 226.75
L 535.52 226.75
L 535.52 209.55
M 550.55 220.00
C 554.28 213.86 554.65 212.32 554.65 202.80
L 554.65 192.36
L 547.00 192.36
L 539.35 192.36
L 539.35 209.55
L 539.35 226.75
L 542.90 226.75
C 545.84 226.75 547.17 225.57 550.55 220.00
M 19.13 206.37
L 19.13 192.36
L 15.21 192.36
C 10.40 192.36 6.38 194.38 6.38 196.82
C 6.38 198.51 17.83 220.38 18.72 220.38
C 18.95 220.38 19.13 214.08 19.13 206.37
M 57.38 200.00
L 57.38 192.36
L 40.16 192.36
L 22.95 192.36
L 22.95 200.00
L 22.95 207.64
L 40.16 207.64
L 57.38 207.64
L 57.38 200.00
M 133.88 200.00
L 133.88 192.36
L 116.67 192.36
L 99.45 192.36
L 99.45 200.00
L 99.45 207.64
L 116.67 207.64
L 133.88 207.64
L 133.88 200.00
M 210.38 200.00
L 210.38 192.36
L 193.17 192.36
L 175.96 192.36
L 175.96 200.00
L 175.96 207.64
L 193.17 207.64
L 210.38 207.64
L 210.38 200.00
M 286.89 200.00
L 286.89 192.36
L 269.67 192.36
L 252.46 192.36
L 252.46 200.00
L 252.46 207.64
L 269.67 207.64
L 286.89 207.64
L 286.89 200.00
M 363.39 200.00
L 363.39 192.36
L 346.18 192.36
L 328.96 192.36
L 328.96 200.00
L 328.96 207.64
L 346.18 207.64
L 363.39 207.64
L 363.39 200.00
M 439.89 200.00
L 439.89 192.36
L 422.68 192.36
L 405.47 192.36
L 405.47 200.00
L 405.47 207.64
L 422.68 207.64
L 439.89 207.64
L 439.89 200.00
M 516.39 200.00
L 516.39 192.36
L 499.18 192.36
L 481.97 192.36
L 481.97 200.00
L 481.97 207.64
L 499.18 207.64
L 516.39 207.64
L 516.39 200.00
M 567.40 193.04
C 567.40 192.66 565.40 192.36 562.93 192.36
L 558.47 192.36
L 558.47 199.67
L 558.47 206.97
L 562.93 200.36
C 565.40 196.71 567.40 193.43 567.40 193.04
M 351.91 179.76
C 351.91 158.60 335.12 131.95 315.93 122.60
C 299.39 114.56 287.13 114.56 270.59 122.60
C 251.40 131.95 234.61 158.60 234.61 179.76
L 234.61 187.26
L 293.26 187.26
L 351.91 187.26
L 351.91 179.76
M 239.06 136.87
C 251.26 119.17 274.66 105.73 293.26 105.73
C 311.47 105.73 333.68 118.19 346.46 135.57
C 349.59 139.83 352.31 143.48 352.50 143.68
C 352.95 144.14 423.38 102.09 425.62 100.01
C 428.77 97.12 401.02 58.90 385.06 44.15
C 357.10 18.29 318.86 5.90 279.55 9.95
C 239.95 14.04 210.89 29.99 185.35 61.67
C 172.85 77.18 159.02 98.24 160.43 99.64
C 161.78 100.99 232.29 143.68 233.44 143.85
C 233.84 143.90 236.38 140.76 239.06 136.87"/>
<path fill="#000000" stroke="none" d="
M 601.82 304.78
C 595.35 300.61 590.54 292.84 587.12 281.02
C 584.47 271.82 584.97 267.57 590.96 248.47
C 593.48 240.46 595.88 230.42 596.30 226.18
C 597.79 211.21 601.39 210.22 612.24 221.77
C 619.78 229.82 627.94 244.04 631.79 255.89
C 636.34 269.91 632.26 291.96 623.15 302.48
C 619.81 306.36 617.95 307.36 613.30 307.86
C 608.53 308.37 606.59 307.85 601.82 304.78
M 618.23 297.45
C 627.27 287.16 629.62 266.87 623.44 252.23
C 618.07 239.52 606.73 223.38 604.25 224.92
C 603.70 225.26 602.86 228.24 602.37 231.55
C 601.89 234.87 599.48 243.89 597.02 251.59
C 591.16 269.92 591.14 276.19 596.86 287.58
C 601.19 296.17 607.28 301.91 612.07 301.91
C 613.31 301.91 616.08 299.90 618.23 297.45"/>
<path fill="#88b46d" stroke="none" d="
M 197.16 122.29
C 177.61 110.50 161.09 100.31 160.43 99.64
C 159.69 98.90 162.58 93.48 168.14 85.21
C 191.40 50.65 209.32 33.66 235.37 21.45
C 269.94 5.26 316.58 5.26 351.15 21.45
C 377.21 33.66 395.12 50.65 418.39 85.22
C 425.64 95.99 426.99 98.76 425.62 100.01
C 423.38 102.09 352.95 144.14 352.50 143.68
C 352.31 143.48 349.59 139.83 346.46 135.57
C 333.68 118.19 311.47 105.73 293.26 105.73
C 274.66 105.73 251.26 119.17 239.06 136.87
C 236.38 140.76 233.84 143.90 233.44 143.85
C 233.03 143.78 216.71 134.09 197.16 122.29"/>
<path fill="#c57a36" stroke="none" d="
M 339.65 531.69
C 315.20 494.46 297.85 469.22 296.13 468.43
C 294.15 467.52 292.37 467.52 290.39 468.43
C 288.67 469.22 271.80 493.72 248.15 529.76
C 226.50 562.76 208.01 590.39 207.08 591.17
C 205.16 592.76 202.73 591.73 202.73 589.31
C 202.73 587.20 286.03 460.23 290.15 456.08
L 293.26 452.92
L 296.88 456.71
C 298.88 458.80 319.58 489.63 342.90 525.22
C 377.66 578.29 385.00 590.27 383.74 591.78
C 382.90 592.80 381.78 593.63 381.24 593.63
C 380.72 593.63 362.00 565.76 339.65 531.69"/>
<path fill="#c57a36" stroke="none" d="
M 283.95 430.32
C 271.84 412.94 261.14 395.62 255.18 383.76
C 252.28 378.01 249.91 373.01 249.91 372.64
C 249.91 372.27 262.97 371.94 278.92 371.87
C 294.87 371.82 314.53 371.08 322.59 370.24
C 330.65 369.39 337.44 369.13 337.66 369.67
C 339.16 373.16 298.21 440.25 293.69 441.71
C 292.88 441.96 288.49 436.84 283.95 430.32"/>
<path fill="#c57a36" stroke="none" d="
M 252.46 365.61
C 252.46 364.82 259.05 364.33 269.67 364.33
C 280.29 364.33 286.89 364.82 286.89 365.61
C 286.89 366.39 280.29 366.88 269.67 366.88
C 259.05 366.88 252.46 366.39 252.46 365.61"/>
<path fill="#c57a36" stroke="none" d="
M 252.46 352.87
L 252.46 345.22
L 269.67 345.22
L 286.89 345.22
L 286.89 352.87
L 286.89 360.51
L 269.67 360.51
L 252.46 360.51
L 252.46 352.87"/>
<path fill="#c57a36" stroke="none" d="
M 328.96 352.87
L 328.96 345.22
L 346.24 345.22
L 363.52 345.22
L 363.13 351.86
C 362.66 359.97 362.11 360.20 342.67 360.38
L 328.96 360.51
L 328.96 352.87"/>
<path fill="#c57a36" stroke="none" d="
M 197.00 354.94
C 184.40 351.07 175.96 347.61 175.96 346.32
C 175.96 345.72 183.70 345.22 193.17 345.22
L 210.38 345.22
L 210.38 351.59
C 210.38 359.06 210.37 359.06 197.00 354.94"/>
<path fill="#c57a36" stroke="none" d="
M 406.50 345.63
C 407.42 345.26 408.53 345.30 408.95 345.73
C 409.37 346.15 408.61 346.45 407.28 346.39
C 405.78 346.33 405.48 346.04 406.50 345.63"/>
<path fill="#c57a36" stroke="none" d="
M 149.41 335.71
C 132.50 327.49 133.29 326.11 154.92 326.11
L 172.13 326.11
L 172.13 333.76
L 172.13 341.40
L 166.62 341.40
C 162.70 341.40 157.75 339.77 149.41 335.71"/>
<path fill="#c57a36" stroke="none" d="
M 214.21 333.76
L 214.21 326.11
L 231.42 326.11
L 248.63 326.11
L 248.63 333.76
L 248.63 341.40
L 231.42 341.40
L 214.21 341.40
L 214.21 333.76"/>
<path fill="#c57a36" stroke="none" d="
M 290.71 333.76
L 290.71 326.11
L 307.92 326.11
L 325.14 326.11
L 325.14 333.76
L 325.14 341.40
L 307.92 341.40
L 290.71 341.40
L 290.71 333.76"/>
<path fill="#c57a36" stroke="none" d="
M 367.21 333.76
L 367.21 326.11
L 384.43 326.11
L 401.64 326.11
L 401.64 333.76
L 401.64 341.40
L 384.43 341.40
L 367.21 341.40
L 367.21 333.76"/>
<path fill="#c57a36" stroke="none" d="
M 443.72 327.35
C 443.72 326.68 444.58 326.11 445.63 326.11
C 446.68 326.11 447.54 326.34 447.54 326.61
C 447.54 326.89 446.68 327.45 445.63 327.85
C 444.58 328.25 443.72 328.03 443.72 327.35"/>
<path fill="#c57a36" stroke="none" d="
M 137.71 314.65
L 137.71 307.01
L 154.92 307.01
L 172.13 307.01
L 172.13 314.65
L 172.13 322.29
L 154.92 322.29
L 137.71 322.29
L 137.71 314.65"/>
<path fill="#c57a36" stroke="none" d="
M 214.21 314.65
L 214.21 307.01
L 231.42 307.01
L 248.63 307.01
L 248.63 314.65
L 248.63 322.29
L 231.42 322.29
L 214.21 322.29
L 214.21 314.65"/>
<path fill="#c57a36" stroke="none" d="
M 290.71 314.65
L 290.71 307.01
L 307.92 307.01
L 325.14 307.01
L 325.14 314.65
L 325.14 322.29
L 307.92 322.29
L 290.71 322.29
L 290.71 314.65"/>
<path fill="#c57a36" stroke="none" d="
M 367.21 314.65
L 367.21 307.01
L 384.43 307.01
L 401.64 307.01
L 401.64 314.65
L 401.64 322.29
L 384.43 322.29
L 367.21 322.29
L 367.21 314.65"/>
<path fill="#c57a36" stroke="none" d="
M 443.72 314.65
L 443.72 307.01
L 459.02 307.01
C 467.43 307.01 474.32 307.20 474.32 307.44
C 474.32 307.68 469.80 311.12 464.30 315.08
C 455.97 321.07 453.38 322.29 449.00 322.29
L 443.72 322.29
L 443.72 314.65"/>
<path fill="#c57a36" stroke="none" d="
M 605.01 317.32
C 594.59 312.47 580.81 294.03 576.93 279.72
C 574.38 270.28 574.82 267.77 583.21 243.95
C 585.67 236.94 587.71 229.78 587.73 228.03
C 587.80 223.21 581.86 211.43 576.69 206.11
C 572.22 201.52 572.17 201.34 574.23 198.18
C 575.40 196.39 577.64 194.62 579.20 194.23
C 585.86 192.56 605.92 202.96 617.03 213.83
C 641.20 237.44 648.86 270.66 636.28 297.17
C 631.48 307.27 625.85 314.05 619.60 317.24
C 613.54 320.32 611.50 320.33 605.01 317.32
M 623.15 302.48
C 632.26 291.96 636.34 269.91 631.79 255.89
C 627.94 244.04 619.78 229.82 612.24 221.77
C 601.39 210.22 597.79 211.21 596.30 226.18
C 595.88 230.42 593.48 240.46 590.96 248.47
C 584.97 267.57 584.47 271.82 587.12 281.02
C 592.40 299.27 601.95 309.07 613.30 307.86
C 617.95 307.36 619.81 306.36 623.15 302.48"/>
<path fill="#c57a36" stroke="none" d="
M 99.45 295.54
L 99.45 287.90
L 116.67 287.90
L 133.88 287.90
L 133.88 295.54
L 133.88 303.18
L 116.67 303.18
L 99.45 303.18
L 99.45 295.54"/>
<path fill="#c57a36" stroke="none" d="
M 175.96 295.54
L 175.96 287.90
L 193.17 287.90
L 210.38 287.90
L 210.38 295.54
L 210.38 303.18
L 193.17 303.18
L 175.96 303.18
L 175.96 295.54"/>
<path fill="#c57a36" stroke="none" d="
M 252.46 295.54
L 252.46 287.90
L 269.67 287.90
L 286.89 287.90
L 286.89 295.54
L 286.89 303.18
L 269.67 303.18
L 252.46 303.18
L 252.46 295.54"/>
<path fill="#c57a36" stroke="none" d="
M 328.96 295.54
L 328.96 287.90
L 346.18 287.90
L 363.39 287.90
L 363.39 295.54
L 363.39 303.18
L 346.18 303.18
L 328.96 303.18
L 328.96 295.54"/>
<path fill="#c57a36" stroke="none" d="
M 405.47 295.54
L 405.47 287.90
L 422.68 287.90
L 439.89 287.90
L 439.89 295.54
L 439.89 303.18
L 422.68 303.18
L 405.47 303.18
L 405.47 295.54"/>
<path fill="#c57a36" stroke="none" d="
M 481.97 294.37
L 481.97 287.90
L 488.98 287.90
C 492.83 287.90 495.99 288.11 495.99 288.38
C 495.99 288.65 492.83 291.55 488.98 294.85
L 481.97 300.83
L 481.97 294.37"/>
<path fill="#c57a36" stroke="none" d="
M 99.45 276.43
L 99.45 268.79
L 116.67 268.79
L 133.88 268.79
L 133.88 276.43
L 133.88 284.08
L 116.67 284.08
L 99.45 284.08
L 99.45 276.43"/>
<path fill="#c57a36" stroke="none" d="
M 175.96 276.43
L 175.96 268.79
L 193.17 268.79
L 210.38 268.79
L 210.38 276.43
L 210.38 284.08
L 193.17 284.08
L 175.96 284.08
L 175.96 276.43"/>
<path fill="#c57a36" stroke="none" d="
M 252.46 276.43
L 252.46 268.79
L 269.67 268.79
L 286.89 268.79
L 286.89 276.43
L 286.89 284.08
L 269.67 284.08
L 252.46 284.08
L 252.46 276.43"/>
<path fill="#c57a36" stroke="none" d="
M 328.96 276.43
L 328.96 268.79
L 346.18 268.79
L 363.39 268.79
L 363.39 276.43
L 363.39 284.08
L 346.18 284.08
L 328.96 284.08
L 328.96 276.43"/>
<path fill="#c57a36" stroke="none" d="
M 405.47 276.43
L 405.47 268.79
L 422.68 268.79
L 439.89 268.79
L 439.89 276.43
L 439.89 284.08
L 422.68 284.08
L 405.47 284.08
L 405.47 276.43"/>
<path fill="#c57a36" stroke="none" d="
M 481.97 276.43
L 481.97 268.79
L 498.10 268.79
L 514.24 268.79
L 511.86 271.66
C 501.74 283.80 501.27 284.08 491.28 284.08
L 481.97 284.08
L 481.97 276.43"/>
<path fill="#c57a36" stroke="none" d="
M 61.20 257.32
L 61.20 249.68
L 78.42 249.68
L 95.63 249.68
L 95.63 257.32
L 95.63 264.97
L 78.42 264.97
L 61.20 264.97
L 61.20 257.32"/>
<path fill="#c57a36" stroke="none" d="
M 137.71 257.32
L 137.71 249.68
L 154.92 249.68
L 172.13 249.68
L 172.13 257.32
L 172.13 264.97
L 154.92 264.97
L 137.71 264.97
L 137.71 257.32"/>
<path fill="#c57a36" stroke="none" d="
M 214.21 257.32
L 214.21 249.68
L 231.42 249.68
L 248.63 249.68
L 248.63 257.32
L 248.63 264.97
L 231.42 264.97
L 214.21 264.97
L 214.21 257.32"/>
<path fill="#c57a36" stroke="none" d="
M 290.71 257.32
L 290.71 249.68
L 307.92 249.68
L 325.14 249.68
L 325.14 257.32
L 325.14 264.97
L 307.92 264.97
L 290.71 264.97
L 290.71 257.32"/>
<path fill="#c57a36" stroke="none" d="
M 367.21 257.32
L 367.21 249.68
L 384.43 249.68
L 401.64 249.68
L 401.64 257.32
L 401.64 264.97
L 384.43 264.97
L 367.21 264.97
L 367.21 257.32"/>
<path fill="#c57a36" stroke="none" d="
M 443.72 257.32
L 443.72 249.68
L 460.93 249.68
L 478.14 249.68
L 478.14 257.32
L 478.14 264.97
L 460.93 264.97
L 443.72 264.97
L 443.72 257.32"/>
<path fill="#c57a36" stroke="none" d="
M 520.22 256.24
L 520.22 249.68
L 524.76 249.68
C 529.73 249.68 529.76 249.55 523.79 257.83
L 520.22 262.80
L 520.22 256.24"/>
<path fill="#c57a36" stroke="none" d="
M 61.20 238.22
L 61.20 230.57
L 78.42 230.57
L 95.63 230.57
L 95.63 238.22
L 95.63 245.86
L 78.42 245.86
L 61.20 245.86
L 61.20 238.22"/>
<path fill="#c57a36" stroke="none" d="
M 137.71 238.22
L 137.71 230.57
L 154.92 230.57
L 172.13 230.57
L 172.13 238.22
L 172.13 245.86
L 154.92 245.86
L 137.71 245.86
L 137.71 238.22"/>
<path fill="#c57a36" stroke="none" d="
M 214.21 238.22
L 214.21 230.57
L 231.42 230.57
L 248.63 230.57
L 248.63 238.22
L 248.63 245.86
L 231.42 245.86
L 214.21 245.86
L 214.21 238.22"/>
<path fill="#c57a36" stroke="none" d="
M 290.71 238.22
L 290.71 230.57
L 307.92 230.57
L 325.14 230.57
L 325.14 238.22
L 325.14 245.86
L 307.92 245.86
L 290.71 245.86
L 290.71 238.22"/>
<path fill="#c57a36" stroke="none" d="
M 367.21 238.22
L 367.21 230.57
L 384.43 230.57
L 401.64 230.57
L 401.64 238.22
L 401.64 245.86
L 384.43 245.86
L 367.21 245.86
L 367.21 238.22"/>
<path fill="#c57a36" stroke="none" d="
M 443.72 238.22
L 443.72 230.57
L 460.93 230.57
L 478.14 230.57
L 478.14 238.22
L 478.14 245.86
L 460.93 245.86
L 443.72 245.86
L 443.72 238.22"/>
<path fill="#c57a36" stroke="none" d="
M 520.22 238.22
L 520.22 230.57
L 531.77 230.57
C 544.62 230.57 544.31 230.01 536.97 239.81
C 532.68 245.55 532.14 245.86 526.33 245.86
L 520.22 245.86
L 520.22 238.22"/>
<path fill="#c57a36" stroke="none" d="
M 22.95 219.11
L 22.95 211.46
L 40.16 211.46
L 57.38 211.46
L 57.38 219.11
L 57.38 226.75
L 40.16 226.75
L 22.95 226.75
L 22.95 219.11"/>
<path fill="#c57a36" stroke="none" d="
M 99.45 219.11
L 99.45 211.46
L 116.67 211.46
L 133.88 211.46
L 133.88 219.11
L 133.88 226.75
L 116.67 226.75
L 99.45 226.75
L 99.45 219.11"/>
<path fill="#c57a36" stroke="none" d="
M 175.96 219.11
L 175.96 211.46
L 193.17 211.46
L 210.38 211.46
L 210.38 219.11
L 210.38 226.75
L 193.17 226.75
L 175.96 226.75
L 175.96 219.11"/>
<path fill="#c57a36" stroke="none" d="
M 252.46 219.11
L 252.46 211.46
L 269.67 211.46
L 286.89 211.46
L 286.89 219.11
L 286.89 226.75
L 269.67 226.75
L 252.46 226.75
L 252.46 219.11"/>
<path fill="#c57a36" stroke="none" d="
M 328.96 219.11
L 328.96 211.46
L 346.18 211.46
L 363.39 211.46
L 363.39 219.11
L 363.39 226.75
L 346.18 226.75
L 328.96 226.75
L 328.96 219.11"/>
<path fill="#c57a36" stroke="none" d="
M 405.47 219.11
L 405.47 211.46
L 422.68 211.46
L 439.89 211.46
L 439.89 219.11
L 439.89 226.75
L 422.68 226.75
L 405.47 226.75
L 405.47 219.11"/>
<path fill="#c57a36" stroke="none" d="
M 481.97 219.11
L 481.97 211.46
L 499.18 211.46
L 516.39 211.46
L 516.39 219.11
L 516.39 226.75
L 499.18 226.75
L 481.97 226.75
L 481.97 219.11"/>
<path fill="#c57a36" stroke="none" d="
M 22.95 200.00
L 22.95 192.36
L 40.16 192.36
L 57.38 192.36
L 57.38 200.00
L 57.38 207.64
L 40.16 207.64
L 22.95 207.64
L 22.95 200.00"/>
<path fill="#c57a36" stroke="none" d="
M 99.45 200.00
L 99.45 192.36
L 116.67 192.36
L 133.88 192.36
L 133.88 200.00
L 133.88 207.64
L 116.67 207.64
L 99.45 207.64
L 99.45 200.00"/>
<path fill="#c57a36" stroke="none" d="
M 175.96 200.00
L 175.96 192.36
L 193.17 192.36
L 210.38 192.36
L 210.38 200.00
L 210.38 207.64
L 193.17 207.64
L 175.96 207.64
L 175.96 200.00"/>
<path fill="#c57a36" stroke="none" d="
M 252.46 200.00
L 252.46 192.36
L 269.67 192.36
L 286.89 192.36
L 286.89 200.00
L 286.89 207.64
L 269.67 207.64
L 252.46 207.64
L 252.46 200.00"/>
<path fill="#c57a36" stroke="none" d="
M 328.96 200.00
L 328.96 192.36
L 346.18 192.36
L 363.39 192.36
L 363.39 200.00
L 363.39 207.64
L 346.18 207.64
L 328.96 207.64
L 328.96 200.00"/>
<path fill="#c57a36" stroke="none" d="
M 405.47 200.00
L 405.47 192.36
L 422.68 192.36
L 439.89 192.36
L 439.89 200.00
L 439.89 207.64
L 422.68 207.64
L 405.47 207.64
L 405.47 200.00"/>
<path fill="#c57a36" stroke="none" d="
M 481.97 200.00
L 481.97 192.36
L 499.18 192.36
L 516.39 192.36
L 516.39 200.00
L 516.39 207.64
L 499.18 207.64
L 481.97 207.64
L 481.97 200.00"/>
<path fill="#c57a36" stroke="none" d="
M 558.47 199.67
L 558.47 192.36
L 562.93 192.36
C 565.40 192.36 567.40 192.66 567.40 193.04
C 567.40 193.43 565.40 196.71 562.93 200.36
L 558.47 206.97
L 558.47 199.67"/>
<path fill="#c57a36" stroke="none" d="
M 234.61 179.76
C 234.61 158.61 251.38 131.99 270.59 122.59
C 286.73 114.69 299.61 114.69 315.93 122.61
C 335.11 131.92 351.91 158.60 351.91 179.76
L 351.91 187.26
L 293.26 187.26
L 234.61 187.26
L 234.61 179.76"/>
<path fill="#f1b053" stroke="none" d="
M 290.71 356.05
L 290.71 345.22
L 298.36 345.22
L 306.01 345.22
L 306.01 356.05
L 306.01 366.88
L 298.36 366.88
L 290.71 366.88
L 290.71 356.05"/>
<path fill="#f1b053" stroke="none" d="
M 237.48 364.69
L 233.33 364.17
L 233.33 354.70
L 233.33 345.22
L 240.98 345.22
L 248.63 345.22
L 248.63 355.41
L 248.63 365.61
L 245.13 365.40
C 243.20 365.29 239.76 364.97 237.48 364.69"/>
<path fill="#f1b053" stroke="none" d="
M 309.84 355.41
L 309.84 345.22
L 317.49 345.22
L 325.14 345.22
L 325.14 354.60
L 325.14 363.99
L 319.22 364.79
C 309.33 366.15 309.84 366.65 309.84 355.41"/>
<path fill="#f1b053" stroke="none" d="
M 221.22 361.34
L 214.85 359.86
L 214.46 352.55
L 214.08 345.22
L 221.79 345.22
L 229.51 345.22
L 229.51 354.14
C 229.51 359.04 229.08 363.01 228.55 362.93
C 228.03 362.87 224.73 362.15 221.22 361.34"/>
<path fill="#f1b053" stroke="none" d="
M 367.21 351.46
L 367.21 345.22
L 374.86 345.22
L 382.51 345.22
L 382.51 349.41
C 382.51 353.45 382.25 353.67 374.86 355.64
L 367.21 357.69
L 367.21 351.46"/>
<path fill="#f1b053" stroke="none" d="
M 386.34 348.41
C 386.34 345.36 386.68 345.22 393.99 345.22
C 398.20 345.22 401.64 345.66 401.64 346.20
C 401.64 347.20 390.33 351.59 387.77 351.59
C 386.98 351.59 386.34 350.17 386.34 348.41"/>
<path fill="#f1b053" stroke="none" d="
M 175.96 324.20
L 175.96 307.01
L 183.61 307.01
L 191.26 307.01
L 191.26 324.20
L 191.26 341.40
L 183.61 341.40
L 175.96 341.40
L 175.96 324.20"/>
<path fill="#f1b053" stroke="none" d="
M 195.08 324.20
L 195.08 307.01
L 202.73 307.01
L 210.38 307.01
L 210.38 324.20
L 210.38 341.40
L 202.73 341.40
L 195.08 341.40
L 195.08 324.20"/>
<path fill="#f1b053" stroke="none" d="
M 252.46 324.20
L 252.46 307.01
L 260.11 307.01
L 267.76 307.01
L 267.76 324.20
L 267.76 341.40
L 260.11 341.40
L 252.46 341.40
L 252.46 324.20"/>
<path fill="#f1b053" stroke="none" d="
M 271.59 324.20
L 271.59 307.01
L 279.24 307.01
L 286.89 307.01
L 286.89 324.20
L 286.89 341.40
L 279.24 341.40
L 271.59 341.40
L 271.59 324.20"/>
<path fill="#f1b053" stroke="none" d="
M 328.96 324.20
L 328.96 307.01
L 337.25 307.01
L 345.54 307.01
L 345.54 324.20
L 345.54 341.40
L 337.25 341.40
L 328.96 341.40
L 328.96 324.20"/>
<path fill="#f1b053" stroke="none" d="
M 349.36 324.20
L 349.36 307.01
L 356.38 307.01
L 363.39 307.01
L 363.39 324.20
L 363.39 341.40
L 356.38 341.40
L 349.36 341.40
L 349.36 324.20"/>
<path fill="#f1b053" stroke="none" d="
M 405.47 324.27
L 405.47 307.01
L 413.15 307.01
L 420.84 307.01
L 420.49 323.89
L 420.13 340.76
L 412.80 341.15
L 405.47 341.53
L 405.47 324.27"/>
<path fill="#f1b053" stroke="none" d="
M 424.59 322.29
L 424.59 307.01
L 432.24 307.01
L 439.89 307.01
L 439.89 318.84
L 439.89 330.68
L 432.85 334.13
C 428.98 336.03 425.53 337.58 425.20 337.58
C 424.87 337.58 424.59 330.70 424.59 322.29"/>
<path fill="#f1b053" stroke="none" d="
M 125.91 323.35
L 118.58 319.38
L 118.58 313.18
L 118.58 307.01
L 126.23 307.01
L 133.88 307.01
L 133.88 317.20
C 133.88 322.80 133.74 327.38 133.56 327.35
C 133.38 327.34 129.94 325.53 125.91 323.35"/>
<path fill="#f1b053" stroke="none" d="
M 106.79 312.08
C 103.46 309.99 100.73 307.99 100.73 307.64
C 100.73 307.29 103.88 307.01 107.74 307.01
L 114.75 307.01
L 114.75 311.46
C 114.75 313.92 114.32 315.91 113.80 315.90
C 113.28 315.89 110.11 314.17 106.79 312.08"/>
<path fill="#f1b053" stroke="none" d="
M 86.87 297.86
L 80.33 292.55
L 80.33 280.66
L 80.33 268.79
L 87.98 268.79
L 95.63 268.79
L 95.63 285.99
C 95.63 295.45 95.13 303.18 94.52 303.18
C 93.92 303.18 90.48 300.79 86.87 297.86"/>
<path fill="#f1b053" stroke="none" d="
M 137.71 285.99
L 137.71 268.79
L 145.36 268.79
L 153.01 268.79
L 153.01 285.99
L 153.01 303.18
L 145.36 303.18
L 137.71 303.18
L 137.71 285.99"/>
<path fill="#f1b053" stroke="none" d="
M 156.83 285.99
L 156.83 268.79
L 164.48 268.79
L 172.13 268.79
L 172.13 285.99
L 172.13 303.18
L 164.48 303.18
L 156.83 303.18
L 156.83 285.99"/>
<path fill="#f1b053" stroke="none" d="
M 214.21 285.99
L 214.21 268.79
L 221.86 268.79
L 229.51 268.79
L 229.51 285.99
L 229.51 303.18
L 221.86 303.18
L 214.21 303.18
L 214.21 285.99"/>
<path fill="#f1b053" stroke="none" d="
M 233.33 285.99
L 233.33 268.79
L 240.98 268.79
L 248.63 268.79
L 248.63 285.99
L 248.63 303.18
L 240.98 303.18
L 233.33 303.18
L 233.33 285.99"/>
<path fill="#f1b053" stroke="none" d="
M 290.71 285.99
L 290.71 268.79
L 298.36 268.79
L 306.01 268.79
L 306.01 285.99
L 306.01 303.18
L 298.36 303.18
L 290.71 303.18
L 290.71 285.99"/>
<path fill="#f1b053" stroke="none" d="
M 309.84 285.99
L 309.84 268.79
L 317.49 268.79
L 325.14 268.79
L 325.14 285.99
L 325.14 303.18
L 317.49 303.18
L 309.84 303.18
L 309.84 285.99"/>
<path fill="#f1b053" stroke="none" d="
M 367.21 285.99
L 367.21 268.79
L 374.86 268.79
L 382.51 268.79
L 382.51 285.99
L 382.51 303.18
L 374.86 303.18
L 367.21 303.18
L 367.21 285.99"/>
<path fill="#f1b053" stroke="none" d="
M 386.34 285.99
L 386.34 268.79
L 393.99 268.79
L 401.64 268.79
L 401.64 285.99
L 401.64 303.18
L 393.99 303.18
L 386.34 303.18
L 386.34 285.99"/>
<path fill="#f1b053" stroke="none" d="
M 443.72 285.99
L 443.72 268.79
L 451.37 268.79
L 459.02 268.79
L 459.02 285.99
L 459.02 303.18
L 451.37 303.18
L 443.72 303.18
L 443.72 285.99"/>
<path fill="#f1b053" stroke="none" d="
M 462.84 285.99
L 462.84 268.79
L 470.49 268.79
L 478.14 268.79
L 478.14 285.99
L 478.14 303.18
L 470.49 303.18
L 462.84 303.18
L 462.84 285.99"/>
<path fill="#f1b053" stroke="none" d="
M 68.50 280.54
C 58.81 270.75 58.87 268.79 68.85 268.79
L 76.50 268.79
L 76.50 278.34
C 76.50 283.59 76.34 287.90 76.15 287.90
C 75.94 287.90 72.50 284.59 68.50 280.54"/>
<path fill="#f1b053" stroke="none" d="
M 47.28 258.92
L 42.09 252.87
L 42.09 241.72
L 42.08 230.57
L 49.73 230.57
L 57.38 230.57
L 57.38 247.77
C 57.38 263.89 57.22 264.97 54.93 264.97
C 53.58 264.97 50.13 262.24 47.28 258.92"/>
<path fill="#f1b053" stroke="none" d="
M 99.45 247.77
L 99.45 230.57
L 107.10 230.57
L 114.75 230.57
L 114.75 247.77
L 114.75 264.97
L 107.10 264.97
L 99.45 264.97
L 99.45 247.77"/>
<path fill="#f1b053" stroke="none" d="
M 118.58 247.77
L 118.58 230.57
L 126.23 230.57
L 133.88 230.57
L 133.88 247.77
L 133.88 264.97
L 126.23 264.97
L 118.58 264.97
L 118.58 247.77"/>
<path fill="#f1b053" stroke="none" d="
M 175.96 247.77
L 175.96 230.57
L 183.61 230.57
L 191.26 230.57
L 191.26 247.77
L 191.26 264.97
L 183.61 264.97
L 175.96 264.97
L 175.96 247.77"/>
<path fill="#f1b053" stroke="none" d="
M 195.08 247.77
L 195.08 230.57
L 202.73 230.57
L 210.38 230.57
L 210.38 247.77
L 210.38 264.97
L 202.73 264.97
L 195.08 264.97
L 195.08 247.77"/>
<path fill="#f1b053" stroke="none" d="
M 252.46 247.77
L 252.46 230.57
L 260.11 230.57
L 267.76 230.57
L 267.76 247.77
L 267.76 264.97
L 260.11 264.97
L 252.46 264.97
L 252.46 247.77"/>
<path fill="#f1b053" stroke="none" d="
M 271.59 247.77
L 271.59 230.57
L 279.24 230.57
L 286.89 230.57
L 286.89 247.77
L 286.89 264.97
L 279.24 264.97
L 271.59 264.97
L 271.59 247.77"/>
<path fill="#f1b053" stroke="none" d="
M 328.96 247.77
L 328.96 230.57
L 337.25 230.57
L 345.54 230.57
L 345.54 247.77
L 345.54 264.97
L 337.25 264.97
L 328.96 264.97
L 328.96 247.77"/>
<path fill="#f1b053" stroke="none" d="
M 349.36 247.77
L 349.36 230.57
L 356.38 230.57
L 363.39 230.57
L 363.39 247.77
L 363.39 264.97
L 356.38 264.97
L 349.36 264.97
L 349.36 247.77"/>
<path fill="#f1b053" stroke="none" d="
M 405.47 247.77
L 405.47 230.57
L 413.12 230.57
L 420.77 230.57
L 420.77 247.77
L 420.77 264.97
L 413.12 264.97
L 405.47 264.97
L 405.47 247.77"/>
<path fill="#f1b053" stroke="none" d="
M 424.59 247.77
L 424.59 230.57
L 432.24 230.57
L 439.89 230.57
L 439.89 247.77
L 439.89 264.97
L 432.24 264.97
L 424.59 264.97
L 424.59 247.77"/>
<path fill="#f1b053" stroke="none" d="
M 481.97 247.77
L 481.97 230.57
L 489.62 230.57
L 497.27 230.57
L 497.27 247.77
L 497.27 264.97
L 489.62 264.97
L 481.97 264.97
L 481.97 247.77"/>
<path fill="#f1b053" stroke="none" d="
M 501.09 247.77
L 501.09 230.57
L 508.74 230.57
L 516.39 230.57
L 516.39 247.77
L 516.39 264.97
L 508.74 264.97
L 501.09 264.97
L 501.09 247.77"/>
<path fill="#f1b053" stroke="none" d="
M 31.52 239.95
L 25.42 231.21
L 31.34 230.82
C 34.59 230.60 37.50 230.68 37.82 230.98
C 38.12 231.30 38.20 235.40 38.00 240.11
L 37.61 248.70
L 31.52 239.95"/>
<path fill="#f1b053" stroke="none" d="
M 61.20 209.55
L 61.20 192.36
L 68.85 192.36
L 76.50 192.36
L 76.50 209.55
L 76.50 226.75
L 68.85 226.75
L 61.20 226.75
L 61.20 209.55"/>
<path fill="#f1b053" stroke="none" d="
M 80.33 209.55
L 80.33 192.36
L 87.98 192.36
L 95.63 192.36
L 95.63 209.55
L 95.63 226.75
L 87.98 226.75
L 80.33 226.75
L 80.33 209.55"/>
<path fill="#f1b053" stroke="none" d="
M 137.71 209.55
L 137.71 192.36
L 145.36 192.36
L 153.01 192.36
L 153.01 209.55
L 153.01 226.75
L 145.36 226.75
L 137.71 226.75
L 137.71 209.55"/>
<path fill="#f1b053" stroke="none" d="
M 156.83 209.55
L 156.83 192.36
L 164.48 192.36
L 172.13 192.36
L 172.13 209.55
L 172.13 226.75
L 164.48 226.75
L 156.83 226.75
L 156.83 209.55"/>
<path fill="#f1b053" stroke="none" d="
M 214.21 209.55
L 214.21 192.36
L 221.86 192.36
L 229.51 192.36
L 229.51 209.55
L 229.51 226.75
L 221.86 226.75
L 214.21 226.75
L 214.21 209.55"/>
<path fill="#f1b053" stroke="none" d="
M 233.33 209.55
L 233.33 192.36
L 240.98 192.36
L 248.63 192.36
L 248.63 209.55
L 248.63 226.75
L 240.98 226.75
L 233.33 226.75
L 233.33 209.55"/>
<path fill="#f1b053" stroke="none" d="
M 290.71 209.55
L 290.71 192.36
L 298.36 192.36
L 306.01 192.36
L 306.01 209.55
L 306.01 226.75
L 298.36 226.75
L 290.71 226.75
L 290.71 209.55"/>
<path fill="#f1b053" stroke="none" d="
M 309.84 209.55
L 309.84 192.36
L 317.49 192.36
L 325.14 192.36
L 325.14 209.55
L 325.14 226.75
L 317.49 226.75
L 309.84 226.75
L 309.84 209.55"/>
<path fill="#f1b053" stroke="none" d="
M 367.21 209.55
L 367.21 192.36
L 374.86 192.36
L 382.51 192.36
L 382.51 209.55
L 382.51 226.75
L 374.86 226.75
L 367.21 226.75
L 367.21 209.55"/>
<path fill="#f1b053" stroke="none" d="
M 386.34 209.55
L 386.34 192.36
L 393.99 192.36
L 401.64 192.36
L 401.64 209.55
L 401.64 226.75
L 393.99 226.75
L 386.34 226.75
L 386.34 209.55"/>
<path fill="#f1b053" stroke="none" d="
M 443.72 209.55
L 443.72 192.36
L 451.37 192.36
L 459.02 192.36
L 459.02 209.55
L 459.02 226.75
L 451.37 226.75
L 443.72 226.75
L 443.72 209.55"/>
<path fill="#f1b053" stroke="none" d="
M 462.84 209.55
L 462.84 192.36
L 470.49 192.36
L 478.14 192.36
L 478.14 209.55
L 478.14 226.75
L 470.49 226.75
L 462.84 226.75
L 462.84 209.55"/>
<path fill="#f1b053" stroke="none" d="
M 520.22 209.55
L 520.22 192.36
L 527.87 192.36
L 535.52 192.36
L 535.52 209.55
L 535.52 226.75
L 527.87 226.75
L 520.22 226.75
L 520.22 209.55"/>
<path fill="#f1b053" stroke="none" d="
M 539.35 209.55
L 539.35 192.36
L 547.00 192.36
L 554.65 192.36
L 554.65 202.80
C 554.65 212.32 554.28 213.86 550.55 220.00
C 547.17 225.57 545.84 226.75 542.90 226.75
L 539.35 226.75
L 539.35 209.55"/>
<path fill="#f1b053" stroke="none" d="
M 12.34 209.50
C 9.07 203.52 6.38 197.77 6.38 196.74
C 6.38 194.61 11.34 192.36 16.03 192.36
C 19.13 192.36 19.13 192.37 19.13 206.37
C 19.13 214.08 18.95 220.38 18.72 220.38
C 18.49 220.38 15.62 215.49 12.34 209.50"/>
</g>
</svg>
