<?xml version="1.0" encoding="UTF-8" standalone="no"?>
<!DOCTYPE svg PUBLIC "-//W3C//DTD SVG 1.1//EN"
"http://www.w3.org/Graphics/SVG/1.1/DTD/svg11.dtd">
<svg width="600px" height="173px"
xmlns="http://www.w3.org/2000/svg" version="1.1">
<g transform="translate(0000, 0000) scale(1.0000, 1.0000)">
<path fill="#000000" stroke="none" d="
M 224.27 172.19
C 206.40 170.30 176.37 162.61 157.34 155.04
C 143.00 149.34 111.10 133.29 99.22 125.80
C 80.07 113.72 74.61 109.19 52.83 87.23
C 33.16 67.40 28.50 61.97 19.84 48.84
C 0.89 20.05 -3.24 9.60 1.67 2.87
C 3.31 0.62 7.57 0.59 270.81 0.28
C 567.96 -0.05 543.19 -0.71 558.90 7.87
C 579.45 19.10 592.79 37.50 597.71 61.42
C 600.43 74.63 600.56 81.91 598.27 92.83
C 594.75 109.59 586.17 123.09 576.01 127.83
C 561.30 134.69 546.85 128.00 533.78 108.27
C 529.14 101.27 523.67 85.74 523.70 79.67
C 523.73 75.08 526.98 62.90 531.86 49.18
L 535.50 38.93
L 532.65 33.29
C 529.55 27.16 525.62 22.93 523.96 23.95
C 523.39 24.31 518.48 31.12 513.06 39.07
C 482.81 83.57 457.95 109.88 426.35 130.86
C 410.31 141.51 386.59 152.66 369.08 157.81
C 341.20 165.97 329.57 168.26 300.59 171.25
C 285.16 172.84 236.11 173.44 224.27 172.19
M 265.36 165.94
C 265.36 165.21 259.29 164.76 249.51 164.76
C 239.73 164.76 233.66 165.21 233.66 165.94
C 233.66 166.67 239.73 167.12 249.51 167.12
C 259.29 167.12 265.36 166.67 265.36 165.94
M 282.97 157.11
L 282.97 147.11
L 275.93 147.11
L 268.88 147.11
L 268.88 157.11
L 268.88 167.12
L 275.93 167.12
L 282.97 167.12
L 282.97 157.11
M 230.14 156.52
L 230.14 147.11
L 223.09 147.11
L 216.05 147.11
L 216.05 155.86
L 216.05 164.61
L 219.86 165.09
C 221.96 165.35 225.14 165.64 226.91 165.75
L 230.14 165.94
L 230.14 156.52
M 295.14 165.19
L 300.59 164.44
L 300.59 155.77
L 300.59 147.11
L 293.54 147.11
L 286.50 147.11
L 286.50 156.52
C 286.50 166.90 286.03 166.44 295.14 165.19
M 212.52 155.35
L 212.52 147.11
L 205.42 147.11
L 198.32 147.11
L 198.67 153.88
L 199.02 160.63
L 204.89 162.00
C 208.12 162.75 211.16 163.41 211.64 163.47
C 212.13 163.54 212.52 159.88 212.52 155.35
M 265.36 154.17
L 265.36 147.11
L 249.51 147.11
L 233.66 147.11
L 233.66 154.17
L 233.66 161.23
L 249.51 161.23
L 265.36 161.23
L 265.36 154.17
M 332.29 160.18
C 334.87 159.47 335.27 158.64 335.58 153.24
L 335.93 147.11
L 320.02 147.11
L 304.11 147.11
L 304.11 154.17
L 304.11 161.23
L 316.73 161.11
C 323.67 161.05 330.67 160.63 332.29 160.18
M 194.91 152.99
L 194.91 147.11
L 179.06 147.11
C 170.34 147.11 163.21 147.57 163.21 148.12
C 163.21 149.31 170.98 152.51 182.58 156.09
C 194.90 159.89 194.91 159.89 194.91 152.99
M 353.42 150.98
L 353.42 147.11
L 346.38 147.11
L 339.33 147.11
L 339.33 152.88
L 339.33 158.63
L 346.38 156.74
C 353.18 154.91 353.42 154.71 353.42 150.98
M 365.31 150.96
C 368.45 149.83 371.04 148.51 371.04 148.02
C 371.04 147.51 367.87 147.11 363.99 147.11
C 357.26 147.11 356.95 147.24 356.95 150.05
C 356.95 153.55 357.77 153.63 365.31 150.96
M 377.77 147.58
C 377.38 147.18 376.36 147.14 375.51 147.49
C 374.57 147.86 374.85 148.13 376.23 148.19
C 377.46 148.24 378.15 147.97 377.77 147.58
M 159.69 136.52
L 159.69 129.46
L 143.84 129.46
C 123.92 129.46 123.19 130.73 138.76 138.32
C 146.44 142.07 151.00 143.58 154.61 143.58
L 159.69 143.58
L 159.69 136.52
M 177.30 127.69
L 177.30 111.80
L 170.25 111.80
L 163.21 111.80
L 163.21 127.69
L 163.21 143.58
L 170.25 143.58
L 177.30 143.58
L 177.30 127.69
M 194.91 127.69
L 194.91 111.80
L 187.87 111.80
L 180.82 111.80
L 180.82 127.69
L 180.82 143.58
L 187.87 143.58
L 194.91 143.58
L 194.91 127.69
M 230.14 136.52
L 230.14 129.46
L 214.29 129.46
L 198.43 129.46
L 198.43 136.52
L 198.43 143.58
L 214.29 143.58
L 230.14 143.58
L 230.14 136.52
M 247.75 127.69
L 247.75 111.80
L 240.70 111.80
L 233.66 111.80
L 233.66 127.69
L 233.66 143.58
L 240.70 143.58
L 247.75 143.58
L 247.75 127.69
M 265.36 127.69
L 265.36 111.80
L 258.32 111.80
L 251.27 111.80
L 251.27 127.69
L 251.27 143.58
L 258.32 143.58
L 265.36 143.58
L 265.36 127.69
M 300.59 136.52
L 300.59 129.46
L 284.74 129.46
L 268.88 129.46
L 268.88 136.52
L 268.88 143.58
L 284.74 143.58
L 300.59 143.58
L 300.59 136.52
M 319.37 127.69
L 319.37 111.80
L 311.74 111.80
L 304.11 111.80
L 304.11 127.69
L 304.11 143.58
L 311.74 143.58
L 319.37 143.58
L 319.37 127.69
M 335.81 127.69
L 335.81 111.80
L 329.35 111.80
L 322.90 111.80
L 322.90 127.69
L 322.90 143.58
L 329.35 143.58
L 335.81 143.58
L 335.81 127.69
M 371.04 136.52
L 371.04 129.46
L 355.19 129.46
L 339.33 129.46
L 339.33 136.52
L 339.33 143.58
L 355.19 143.58
L 371.04 143.58
L 371.04 136.52
M 388.39 127.40
L 388.72 111.80
L 381.64 111.80
L 374.56 111.80
L 374.56 127.75
L 374.56 143.70
L 381.31 143.34
L 388.06 142.99
L 388.39 127.40
M 399.78 136.86
L 406.26 133.67
L 406.26 122.74
L 406.26 111.80
L 399.22 111.80
L 392.17 111.80
L 392.17 125.93
C 392.17 133.69 392.43 140.05 392.74 140.05
C 393.04 140.05 396.21 138.61 399.78 136.86
M 413.31 129.91
C 413.31 129.67 412.51 129.46 411.55 129.46
C 410.58 129.46 409.78 129.97 409.78 130.60
C 409.78 131.22 410.58 131.43 411.55 131.06
C 412.51 130.69 413.31 130.17 413.31 129.91
M 124.46 121.22
L 124.46 111.80
L 117.42 111.80
L 110.37 111.80
L 110.37 117.51
L 110.37 123.23
L 117.12 126.90
C 120.83 128.91 124.00 130.59 124.17 130.60
C 124.33 130.62 124.46 126.40 124.46 121.22
M 159.69 118.86
L 159.69 111.80
L 143.84 111.80
L 127.98 111.80
L 127.98 118.86
L 127.98 125.93
L 143.84 125.93
L 159.69 125.93
L 159.69 118.86
M 230.14 118.86
L 230.14 111.80
L 214.29 111.80
L 198.43 111.80
L 198.43 118.86
L 198.43 125.93
L 214.29 125.93
L 230.14 125.93
L 230.14 118.86
M 300.59 118.86
L 300.59 111.80
L 284.74 111.80
L 268.88 111.80
L 268.88 118.86
L 268.88 125.93
L 284.74 125.93
L 300.59 125.93
L 300.59 118.86
M 371.04 118.86
L 371.04 111.80
L 355.19 111.80
L 339.33 111.80
L 339.33 118.86
L 339.33 125.93
L 355.19 125.93
L 371.04 125.93
L 371.04 118.86
M 428.74 119.26
C 433.81 115.60 437.96 112.43 437.96 112.20
C 437.96 111.98 431.62 111.80 423.87 111.80
L 409.78 111.80
L 409.78 118.86
L 409.78 125.93
L 414.65 125.93
C 418.68 125.93 421.07 124.80 428.74 119.26
M 571.75 121.25
C 577.50 118.31 582.69 112.05 587.11 102.72
C 598.70 78.23 591.64 47.53 569.39 25.73
C 559.15 15.68 540.68 6.07 534.55 7.61
C 533.11 7.98 531.05 9.62 529.97 11.26
C 528.07 14.18 528.12 14.35 532.24 18.59
C 536.99 23.50 542.47 34.39 542.41 38.84
C 542.38 40.46 540.50 47.07 538.24 53.55
C 530.51 75.56 530.11 77.87 532.46 86.59
C 536.03 99.81 548.72 116.85 558.32 121.34
C 564.29 124.11 566.17 124.10 571.75 121.25
M 106.85 115.92
L 106.85 111.80
L 100.39 111.80
C 96.83 111.80 93.93 112.06 93.93 112.39
C 93.93 113.12 104.77 119.99 105.97 120.02
C 106.45 120.03 106.85 118.18 106.85 115.92
M 89.24 92.38
L 89.24 76.50
L 82.19 76.50
L 75.15 76.50
L 75.15 87.47
L 75.15 98.45
L 81.17 103.35
C 84.49 106.06 87.66 108.27 88.22 108.27
C 88.78 108.27 89.24 101.12 89.24 92.38
M 124.46 101.21
L 124.46 94.15
L 108.61 94.15
L 92.76 94.15
L 92.76 101.21
L 92.76 108.27
L 108.61 108.27
L 124.46 108.27
L 124.46 101.21
M 142.07 92.38
L 142.07 76.50
L 135.03 76.50
L 127.98 76.50
L 127.98 92.38
L 127.98 108.27
L 135.03 108.27
L 142.07 108.27
L 142.07 92.38
M 159.69 92.38
L 159.69 76.50
L 152.64 76.50
L 145.60 76.50
L 145.60 92.38
L 145.60 108.27
L 152.64 108.27
L 159.69 108.27
L 159.69 92.38
M 194.91 101.21
L 194.91 94.15
L 179.06 94.15
L 163.21 94.15
L 163.21 101.21
L 163.21 108.27
L 179.06 108.27
L 194.91 108.27
L 194.91 101.21
M 212.52 92.38
L 212.52 76.50
L 205.48 76.50
L 198.43 76.50
L 198.43 92.38
L 198.43 108.27
L 205.48 108.27
L 212.52 108.27
L 212.52 92.38
M 230.14 92.38
L 230.14 76.50
L 223.09 76.50
L 216.05 76.50
L 216.05 92.38
L 216.05 108.27
L 223.09 108.27
L 230.14 108.27
L 230.14 92.38
M 265.36 101.21
L 265.36 94.15
L 249.51 94.15
L 233.66 94.15
L 233.66 101.21
L 233.66 108.27
L 249.51 108.27
L 265.36 108.27
L 265.36 101.21
M 282.97 92.38
L 282.97 76.50
L 275.93 76.50
L 268.88 76.50
L 268.88 92.38
L 268.88 108.27
L 275.93 108.27
L 282.97 108.27
L 282.97 92.38
M 300.59 92.38
L 300.59 76.50
L 293.54 76.50
L 286.50 76.50
L 286.50 92.38
L 286.50 108.27
L 293.54 108.27
L 300.59 108.27
L 300.59 92.38
M 335.81 101.21
L 335.81 94.15
L 319.96 94.15
L 304.11 94.15
L 304.11 101.21
L 304.11 108.27
L 319.96 108.27
L 335.81 108.27
L 335.81 101.21
M 353.42 92.38
L 353.42 76.50
L 346.38 76.50
L 339.33 76.50
L 339.33 92.38
L 339.33 108.27
L 346.38 108.27
L 353.42 108.27
L 353.42 92.38
M 371.04 92.38
L 371.04 76.50
L 363.99 76.50
L 356.95 76.50
L 356.95 92.38
L 356.95 108.27
L 363.99 108.27
L 371.04 108.27
L 371.04 92.38
M 406.26 101.21
L 406.26 94.15
L 390.41 94.15
L 374.56 94.15
L 374.56 101.21
L 374.56 108.27
L 390.41 108.27
L 406.26 108.27
L 406.26 101.21
M 423.87 92.38
L 423.87 76.50
L 416.83 76.50
L 409.78 76.50
L 409.78 92.38
L 409.78 108.27
L 416.83 108.27
L 423.87 108.27
L 423.87 92.38
M 441.49 92.38
L 441.49 76.50
L 434.44 76.50
L 427.40 76.50
L 427.40 92.38
L 427.40 108.27
L 434.44 108.27
L 441.49 108.27
L 441.49 92.38
M 457.93 94.60
C 457.93 94.35 455.01 94.15 451.47 94.15
L 445.01 94.15
L 445.01 100.13
L 445.01 106.09
L 451.47 100.58
C 455.01 97.53 457.93 94.84 457.93 94.60
M 71.62 85.32
L 71.62 76.50
L 64.58 76.50
C 55.39 76.50 55.33 78.31 64.25 87.35
C 67.94 91.09 71.11 94.15 71.30 94.15
C 71.47 94.15 71.62 90.17 71.62 85.32
M 124.46 83.56
L 124.46 76.50
L 108.61 76.50
L 92.76 76.50
L 92.76 83.56
L 92.76 90.62
L 108.61 90.62
L 124.46 90.62
L 124.46 83.56
M 194.91 83.56
L 194.91 76.50
L 179.06 76.50
L 163.21 76.50
L 163.21 83.56
L 163.21 90.62
L 179.06 90.62
L 194.91 90.62
L 194.91 83.56
M 265.36 83.56
L 265.36 76.50
L 249.51 76.50
L 233.66 76.50
L 233.66 83.56
L 233.66 90.62
L 249.51 90.62
L 265.36 90.62
L 265.36 83.56
M 335.81 83.56
L 335.81 76.50
L 319.96 76.50
L 304.11 76.50
L 304.11 83.56
L 304.11 90.62
L 319.96 90.62
L 335.81 90.62
L 335.81 83.56
M 406.26 83.56
L 406.26 76.50
L 390.41 76.50
L 374.56 76.50
L 374.56 83.56
L 374.56 90.62
L 390.41 90.62
L 406.26 90.62
L 406.26 83.56
M 466.24 86.21
C 468.49 83.78 471.32 80.60 472.53 79.14
L 474.73 76.50
L 459.86 76.50
L 445.01 76.50
L 445.01 83.56
L 445.01 90.62
L 453.58 90.62
C 461.96 90.62 462.23 90.52 466.24 86.21
M 54.01 57.08
L 54.01 41.19
L 46.97 41.19
L 39.92 41.19
L 39.93 51.49
L 39.93 61.79
L 44.71 67.38
C 47.34 70.45 50.51 72.97 51.76 72.97
C 53.87 72.97 54.01 71.97 54.01 57.08
M 89.24 65.90
L 89.24 58.84
L 73.39 58.84
L 57.53 58.84
L 57.53 65.90
L 57.53 72.97
L 73.39 72.97
L 89.24 72.97
L 89.24 65.90
M 106.85 57.08
L 106.85 41.19
L 99.80 41.19
L 92.76 41.19
L 92.76 57.08
L 92.76 72.97
L 99.80 72.97
L 106.85 72.97
L 106.85 57.08
M 124.46 57.08
L 124.46 41.19
L 117.42 41.19
L 110.37 41.19
L 110.37 57.08
L 110.37 72.97
L 117.42 72.97
L 124.46 72.97
L 124.46 57.08
M 159.69 65.90
L 159.69 58.84
L 143.84 58.84
L 127.98 58.84
L 127.98 65.90
L 127.98 72.97
L 143.84 72.97
L 159.69 72.97
L 159.69 65.90
M 177.30 57.08
L 177.30 41.19
L 170.25 41.19
L 163.21 41.19
L 163.21 57.08
L 163.21 72.97
L 170.25 72.97
L 177.30 72.97
L 177.30 57.08
M 194.91 57.08
L 194.91 41.19
L 187.87 41.19
L 180.82 41.19
L 180.82 57.08
L 180.82 72.97
L 187.87 72.97
L 194.91 72.97
L 194.91 57.08
M 230.14 65.90
L 230.14 58.84
L 214.29 58.84
L 198.43 58.84
L 198.43 65.90
L 198.43 72.97
L 214.29 72.97
L 230.14 72.97
L 230.14 65.90
M 247.75 57.08
L 247.75 41.19
L 240.70 41.19
L 233.66 41.19
L 233.66 57.08
L 233.66 72.97
L 240.70 72.97
L 247.75 72.97
L 247.75 57.08
M 265.36 57.08
L 265.36 41.19
L 258.32 41.19
L 251.27 41.19
L 251.27 57.08
L 251.27 72.97
L 258.32 72.97
L 265.36 72.97
L 265.36 57.08
M 300.59 65.90
L 300.59 58.84
L 284.74 58.84
L 268.88 58.84
L 268.88 65.90
L 268.88 72.97
L 284.74 72.97
L 300.59 72.97
L 300.59 65.90
M 319.37 57.08
L 319.37 41.19
L 311.74 41.19
L 304.11 41.19
L 304.11 57.08
L 304.11 72.97
L 311.74 72.97
L 319.37 72.97
L 319.37 57.08
M 335.81 57.08
L 335.81 41.19
L 329.35 41.19
L 322.90 41.19
L 322.90 57.08
L 322.90 72.97
L 329.35 72.97
L 335.81 72.97
L 335.81 57.08
M 371.04 65.90
L 371.04 58.84
L 355.19 58.84
L 339.33 58.84
L 339.33 65.90
L 339.33 72.97
L 355.19 72.97
L 371.04 72.97
L 371.04 65.90
M 388.65 57.08
L 388.65 41.19
L 381.60 41.19
L 374.56 41.19
L 374.56 57.08
L 374.56 72.97
L 381.60 72.97
L 388.65 72.97
L 388.65 57.08
M 406.26 57.08
L 406.26 41.19
L 399.22 41.19
L 392.17 41.19
L 392.17 57.08
L 392.17 72.97
L 399.22 72.97
L 406.26 72.97
L 406.26 57.08
M 441.49 65.90
L 441.49 58.84
L 425.64 58.84
L 409.78 58.84
L 409.78 65.90
L 409.78 72.97
L 425.64 72.97
L 441.49 72.97
L 441.49 65.90
M 459.10 57.08
L 459.10 41.19
L 452.05 41.19
L 445.01 41.19
L 445.01 57.08
L 445.01 72.97
L 452.05 72.97
L 459.10 72.97
L 459.10 57.08
M 476.71 57.08
L 476.71 41.19
L 469.67 41.19
L 462.62 41.19
L 462.62 57.08
L 462.62 72.97
L 469.67 72.97
L 476.71 72.97
L 476.71 57.08
M 487.70 60.31
C 488.35 59.24 487.44 58.84 484.41 58.84
L 480.23 58.84
L 480.23 64.90
L 480.23 70.97
L 483.52 66.38
C 485.34 63.86 487.22 61.13 487.70 60.31
M 36.00 41.57
C 35.71 41.28 33.03 41.21 30.04 41.41
L 24.59 41.78
L 30.20 49.85
L 35.81 57.94
L 36.16 50.01
C 36.35 45.65 36.28 41.86 36.00 41.57
M 89.24 48.25
L 89.24 41.19
L 73.39 41.19
L 57.53 41.19
L 57.53 48.25
L 57.53 55.31
L 73.39 55.31
L 89.24 55.31
L 89.24 48.25
M 159.69 48.25
L 159.69 41.19
L 143.84 41.19
L 127.98 41.19
L 127.98 48.25
L 127.98 55.31
L 143.84 55.31
L 159.69 55.31
L 159.69 48.25
M 230.14 48.25
L 230.14 41.19
L 214.29 41.19
L 198.43 41.19
L 198.43 48.25
L 198.43 55.31
L 214.29 55.31
L 230.14 55.31
L 230.14 48.25
M 300.59 48.25
L 300.59 41.19
L 284.74 41.19
L 268.88 41.19
L 268.88 48.25
L 268.88 55.31
L 284.74 55.31
L 300.59 55.31
L 300.59 48.25
M 371.04 48.25
L 371.04 41.19
L 355.19 41.19
L 339.33 41.19
L 339.33 48.25
L 339.33 55.31
L 355.19 55.31
L 371.04 55.31
L 371.04 48.25
M 441.49 48.25
L 441.49 41.19
L 425.64 41.19
L 409.78 41.19
L 409.78 48.25
L 409.78 55.31
L 425.64 55.31
L 441.49 55.31
L 441.49 48.25
M 495.66 49.72
C 502.41 40.67 502.71 41.19 490.87 41.19
L 480.23 41.19
L 480.23 48.25
L 480.23 55.31
L 485.86 55.31
C 491.21 55.31 491.71 55.03 495.66 49.72
M 54.01 30.60
L 54.01 23.54
L 38.16 23.54
L 22.31 23.54
L 22.31 30.60
L 22.31 37.66
L 38.16 37.66
L 54.01 37.66
L 54.01 30.60
M 71.62 21.77
L 71.62 5.88
L 64.58 5.88
L 57.53 5.88
L 57.53 21.77
L 57.53 37.66
L 64.58 37.66
L 71.62 37.66
L 71.62 21.77
M 89.24 21.77
L 89.24 5.88
L 82.19 5.88
L 75.15 5.88
L 75.15 21.77
L 75.15 37.66
L 82.19 37.66
L 89.24 37.66
L 89.24 21.77
M 124.46 30.60
L 124.46 23.54
L 108.61 23.54
L 92.76 23.54
L 92.76 30.60
L 92.76 37.66
L 108.61 37.66
L 124.46 37.66
L 124.46 30.60
M 142.07 21.77
L 142.07 5.88
L 135.03 5.88
L 127.98 5.88
L 127.98 21.77
L 127.98 37.66
L 135.03 37.66
L 142.07 37.66
L 142.07 21.77
M 159.69 21.77
L 159.69 5.88
L 152.64 5.88
L 145.60 5.88
L 145.60 21.77
L 145.60 37.66
L 152.64 37.66
L 159.69 37.66
L 159.69 21.77
M 194.91 30.60
L 194.91 23.54
L 179.06 23.54
L 163.21 23.54
L 163.21 30.60
L 163.21 37.66
L 179.06 37.66
L 194.91 37.66
L 194.91 30.60
M 212.52 21.77
L 212.52 5.88
L 205.48 5.88
L 198.43 5.88
L 198.43 21.77
L 198.43 37.66
L 205.48 37.66
L 212.52 37.66
L 212.52 21.77
M 230.14 21.77
L 230.14 5.88
L 223.09 5.88
L 216.05 5.88
L 216.05 21.77
L 216.05 37.66
L 223.09 37.66
L 230.14 37.66
L 230.14 21.77
M 265.36 30.60
L 265.36 23.54
L 249.51 23.54
L 233.66 23.54
L 233.66 30.60
L 233.66 37.66
L 249.51 37.66
L 265.36 37.66
L 265.36 30.60
M 282.97 21.77
L 282.97 5.88
L 275.93 5.88
L 268.88 5.88
L 268.88 21.77
L 268.88 37.66
L 275.93 37.66
L 282.97 37.66
L 282.97 21.77
M 300.59 21.77
L 300.59 5.88
L 293.54 5.88
L 286.50 5.88
L 286.50 21.77
L 286.50 37.66
L 293.54 37.66
L 300.59 37.66
L 300.59 21.77
M 335.81 30.60
L 335.81 23.54
L 319.96 23.54
L 304.11 23.54
L 304.11 30.60
L 304.11 37.66
L 319.96 37.66
L 335.81 37.66
L 335.81 30.60
M 353.42 21.77
L 353.42 5.88
L 346.38 5.88
L 339.33 5.88
L 339.33 21.77
L 339.33 37.66
L 346.38 37.66
L 353.42 37.66
L 353.42 21.77
M 371.04 21.77
L 371.04 5.88
L 363.99 5.88
L 356.95 5.88
L 356.95 21.77
L 356.95 37.66
L 363.99 37.66
L 371.04 37.66
L 371.04 21.77
M 406.26 30.60
L 406.26 23.54
L 390.41 23.54
L 374.56 23.54
L 374.56 30.60
L 374.56 37.66
L 390.41 37.66
L 406.26 37.66
L 406.26 30.60
M 423.87 21.77
L 423.87 5.88
L 416.83 5.88
L 409.78 5.88
L 409.78 21.77
L 409.78 37.66
L 416.83 37.66
L 423.87 37.66
L 423.87 21.77
M 441.49 21.77
L 441.49 5.88
L 434.44 5.88
L 427.40 5.88
L 427.40 21.77
L 427.40 37.66
L 434.44 37.66
L 441.49 37.66
L 441.49 21.77
M 476.71 30.60
L 476.71 23.54
L 460.86 23.54
L 445.01 23.54
L 445.01 30.60
L 445.01 37.66
L 460.86 37.66
L 476.71 37.66
L 476.71 30.60
M 494.32 21.77
L 494.32 5.88
L 487.28 5.88
L 480.23 5.88
L 480.23 21.77
L 480.23 37.66
L 487.28 37.66
L 494.32 37.66
L 494.32 21.77
M 508.17 31.42
C 511.60 25.75 511.94 24.33 511.94 15.53
L 511.94 5.88
L 504.89 5.88
L 497.85 5.88
L 497.85 21.77
L 497.85 37.66
L 501.12 37.66
C 503.82 37.66 505.06 36.57 508.17 31.42
M 18.79 18.83
L 18.79 5.88
L 15.18 5.88
C 10.76 5.88 7.05 7.76 7.05 10.00
C 7.05 11.57 17.59 31.78 18.41 31.78
C 18.62 31.78 18.79 25.95 18.79 18.83
M 54.01 12.95
L 54.01 5.88
L 38.16 5.88
L 22.31 5.88
L 22.31 12.95
L 22.31 20.01
L 38.16 20.01
L 54.01 20.01
L 54.01 12.95
M 124.46 12.95
L 124.46 5.88
L 108.61 5.88
L 92.76 5.88
L 92.76 12.95
L 92.76 20.01
L 108.61 20.01
L 124.46 20.01
L 124.46 12.95
M 194.91 12.95
L 194.91 5.88
L 179.06 5.88
L 163.21 5.88
L 163.21 12.95
L 163.21 20.01
L 179.06 20.01
L 194.91 20.01
L 194.91 12.95
M 265.36 12.95
L 265.36 5.88
L 249.51 5.88
L 233.66 5.88
L 233.66 12.95
L 233.66 20.01
L 249.51 20.01
L 265.36 20.01
L 265.36 12.95
M 335.81 12.95
L 335.81 5.88
L 319.96 5.88
L 304.11 5.88
L 304.11 12.95
L 304.11 20.01
L 319.96 20.01
L 335.81 20.01
L 335.81 12.95
M 406.26 12.95
L 406.26 5.88
L 390.41 5.88
L 374.56 5.88
L 374.56 12.95
L 374.56 20.01
L 390.41 20.01
L 406.26 20.01
L 406.26 12.95
M 476.71 12.95
L 476.71 5.88
L 460.86 5.88
L 445.01 5.88
L 445.01 12.95
L 445.01 20.01
L 460.86 20.01
L 476.71 20.01
L 476.71 12.95
M 523.68 6.52
C 523.68 6.17 521.84 5.88 519.57 5.88
L 515.46 5.88
L 515.46 12.64
L 515.46 19.38
L 519.57 13.28
C 521.84 9.91 523.68 6.87 523.68 6.52"/>
<path fill="#000000" stroke="none" d="
M 555.38 109.74
C 549.42 105.89 544.99 98.72 541.84 87.79
C 539.40 79.30 539.86 75.37 545.38 57.73
C 547.70 50.32 549.91 41.05 550.30 37.13
C 551.67 23.30 554.98 22.38 564.97 33.06
C 571.91 40.50 579.43 53.63 582.97 64.57
C 587.17 77.53 583.41 97.90 575.03 107.62
C 571.95 111.20 570.23 112.13 565.95 112.59
C 561.56 113.06 559.77 112.58 555.38 109.74
M 570.47 103.00
C 574.58 98.30 578.86 85.71 578.86 78.32
C 578.86 69.12 573.03 54.76 564.96 44.10
C 559.19 36.48 558.07 36.34 557.07 43.18
C 556.63 46.30 554.41 54.67 552.15 61.79
C 549.80 69.18 548.05 77.16 548.05 80.38
C 548.08 90.90 558.60 107.10 565.41 107.10
C 566.22 107.10 568.50 105.25 570.47 103.00"/>
<path fill="#f1b053" stroke="none" d="
M 268.88 157.11
L 268.88 147.11
L 275.93 147.11
L 282.97 147.11
L 282.97 157.11
L 282.97 167.12
L 275.93 167.12
L 268.88 167.12
L 268.88 157.11"/>
<path fill="#f1b053" stroke="none" d="
M 219.86 165.09
L 216.05 164.61
L 216.05 155.86
L 216.05 147.11
L 223.09 147.11
L 230.14 147.11
L 230.14 156.52
L 230.14 165.94
L 226.91 165.75
C 225.14 165.64 221.96 165.35 219.86 165.09"/>
<path fill="#f1b053" stroke="none" d="
M 286.50 156.52
L 286.50 147.11
L 293.54 147.11
L 300.59 147.11
L 300.59 155.77
L 300.59 164.44
L 295.14 165.19
C 286.03 166.44 286.50 166.90 286.50 156.52"/>
<path fill="#f1b053" stroke="none" d="
M 204.89 162.00
L 199.02 160.63
L 198.67 153.88
L 198.32 147.11
L 205.42 147.11
L 212.52 147.11
L 212.52 155.35
C 212.52 159.88 212.13 163.54 211.64 163.47
C 211.16 163.41 208.12 162.75 204.89 162.00"/>
<path fill="#f1b053" stroke="none" d="
M 339.33 152.88
L 339.33 147.11
L 346.38 147.11
L 353.42 147.11
L 353.42 150.98
C 353.42 154.71 353.18 154.91 346.38 156.74
L 339.33 158.63
L 339.33 152.88"/>
<path fill="#f1b053" stroke="none" d="
M 356.95 150.05
C 356.95 147.24 357.26 147.11 363.99 147.11
C 367.87 147.11 371.04 147.51 371.04 148.02
C 371.04 148.93 360.62 152.99 358.26 152.99
C 357.53 152.99 356.95 151.68 356.95 150.05"/>
<path fill="#f1b053" stroke="none" d="
M 163.21 127.69
L 163.21 111.80
L 170.25 111.80
L 177.30 111.80
L 177.30 127.69
L 177.30 143.58
L 170.25 143.58
L 163.21 143.58
L 163.21 127.69"/>
<path fill="#f1b053" stroke="none" d="
M 180.82 127.69
L 180.82 111.80
L 187.87 111.80
L 194.91 111.80
L 194.91 127.69
L 194.91 143.58
L 187.87 143.58
L 180.82 143.58
L 180.82 127.69"/>
<path fill="#f1b053" stroke="none" d="
M 233.66 127.69
L 233.66 111.80
L 240.70 111.80
L 247.75 111.80
L 247.75 127.69
L 247.75 143.58
L 240.70 143.58
L 233.66 143.58
L 233.66 127.69"/>
<path fill="#f1b053" stroke="none" d="
M 251.27 127.69
L 251.27 111.80
L 258.32 111.80
L 265.36 111.80
L 265.36 127.69
L 265.36 143.58
L 258.32 143.58
L 251.27 143.58
L 251.27 127.69"/>
<path fill="#f1b053" stroke="none" d="
M 304.11 127.69
L 304.11 111.80
L 311.74 111.80
L 319.37 111.80
L 319.37 127.69
L 319.37 143.58
L 311.74 143.58
L 304.11 143.58
L 304.11 127.69"/>
<path fill="#f1b053" stroke="none" d="
M 322.90 127.69
L 322.90 111.80
L 329.35 111.80
L 335.81 111.80
L 335.81 127.69
L 335.81 143.58
L 329.35 143.58
L 322.90 143.58
L 322.90 127.69"/>
<path fill="#f1b053" stroke="none" d="
M 374.56 127.75
L 374.56 111.80
L 381.64 111.80
L 388.72 111.80
L 388.39 127.40
L 388.06 142.99
L 381.31 143.34
L 374.56 143.70
L 374.56 127.75"/>
<path fill="#f1b053" stroke="none" d="
M 392.17 125.93
L 392.17 111.80
L 399.22 111.80
L 406.26 111.80
L 406.26 122.74
L 406.26 133.67
L 399.78 136.86
C 396.21 138.61 393.04 140.05 392.74 140.05
C 392.43 140.05 392.17 133.69 392.17 125.93"/>
<path fill="#f1b053" stroke="none" d="
M 117.12 126.90
L 110.37 123.23
L 110.37 117.51
L 110.37 111.80
L 117.42 111.80
L 124.46 111.80
L 124.46 121.22
C 124.46 126.40 124.33 130.62 124.17 130.60
C 124.00 130.59 120.83 128.91 117.12 126.90"/>
<path fill="#f1b053" stroke="none" d="
M 99.51 116.49
C 96.45 114.56 93.93 112.71 93.93 112.39
C 93.93 112.06 96.83 111.80 100.39 111.80
L 106.85 111.80
L 106.85 115.92
C 106.85 118.18 106.45 120.03 105.97 120.02
C 105.49 120.01 102.58 118.42 99.51 116.49"/>
<path fill="#f1b053" stroke="none" d="
M 81.17 103.35
L 75.15 98.45
L 75.15 87.47
L 75.15 76.50
L 82.19 76.50
L 89.24 76.50
L 89.24 92.38
C 89.24 101.12 88.78 108.27 88.22 108.27
C 87.66 108.27 84.49 106.06 81.17 103.35"/>
<path fill="#f1b053" stroke="none" d="
M 127.98 92.38
L 127.98 76.50
L 135.03 76.50
L 142.07 76.50
L 142.07 92.38
L 142.07 108.27
L 135.03 108.27
L 127.98 108.27
L 127.98 92.38"/>
<path fill="#f1b053" stroke="none" d="
M 145.60 92.38
L 145.60 76.50
L 152.64 76.50
L 159.69 76.50
L 159.69 92.38
L 159.69 108.27
L 152.64 108.27
L 145.60 108.27
L 145.60 92.38"/>
<path fill="#f1b053" stroke="none" d="
M 198.43 92.38
L 198.43 76.50
L 205.48 76.50
L 212.52 76.50
L 212.52 92.38
L 212.52 108.27
L 205.48 108.27
L 198.43 108.27
L 198.43 92.38"/>
<path fill="#f1b053" stroke="none" d="
M 216.05 92.38
L 216.05 76.50
L 223.09 76.50
L 230.14 76.50
L 230.14 92.38
L 230.14 108.27
L 223.09 108.27
L 216.05 108.27
L 216.05 92.38"/>
<path fill="#f1b053" stroke="none" d="
M 268.88 92.38
L 268.88 76.50
L 275.93 76.50
L 282.97 76.50
L 282.97 92.38
L 282.97 108.27
L 275.93 108.27
L 268.88 108.27
L 268.88 92.38"/>
<path fill="#f1b053" stroke="none" d="
M 286.50 92.38
L 286.50 76.50
L 293.54 76.50
L 300.59 76.50
L 300.59 92.38
L 300.59 108.27
L 293.54 108.27
L 286.50 108.27
L 286.50 92.38"/>
<path fill="#f1b053" stroke="none" d="
M 339.33 92.38
L 339.33 76.50
L 346.38 76.50
L 353.42 76.50
L 353.42 92.38
L 353.42 108.27
L 346.38 108.27
L 339.33 108.27
L 339.33 92.38"/>
<path fill="#f1b053" stroke="none" d="
M 356.95 92.38
L 356.95 76.50
L 363.99 76.50
L 371.04 76.50
L 371.04 92.38
L 371.04 108.27
L 363.99 108.27
L 356.95 108.27
L 356.95 92.38"/>
<path fill="#f1b053" stroke="none" d="
M 409.78 92.38
L 409.78 76.50
L 416.83 76.50
L 423.87 76.50
L 423.87 92.38
L 423.87 108.27
L 416.83 108.27
L 409.78 108.27
L 409.78 92.38"/>
<path fill="#f1b053" stroke="none" d="
M 427.40 92.38
L 427.40 76.50
L 434.44 76.50
L 441.49 76.50
L 441.49 92.38
L 441.49 108.27
L 434.44 108.27
L 427.40 108.27
L 427.40 92.38"/>
<path fill="#f1b053" stroke="none" d="
M 64.25 87.35
C 55.33 78.31 55.39 76.50 64.58 76.50
L 71.62 76.50
L 71.62 85.32
C 71.62 90.17 71.47 94.15 71.30 94.15
C 71.11 94.15 67.94 91.09 64.25 87.35"/>
<path fill="#f1b053" stroke="none" d="
M 44.71 67.38
L 39.93 61.79
L 39.93 51.49
L 39.92 41.19
L 46.97 41.19
L 54.01 41.19
L 54.01 57.08
C 54.01 71.97 53.87 72.97 51.76 72.97
C 50.51 72.97 47.34 70.45 44.71 67.38"/>
<path fill="#f1b053" stroke="none" d="
M 92.76 57.08
L 92.76 41.19
L 99.80 41.19
L 106.85 41.19
L 106.85 57.08
L 106.85 72.97
L 99.80 72.97
L 92.76 72.97
L 92.76 57.08"/>
<path fill="#f1b053" stroke="none" d="
M 110.37 57.08
L 110.37 41.19
L 117.42 41.19
L 124.46 41.19
L 124.46 57.08
L 124.46 72.97
L 117.42 72.97
L 110.37 72.97
L 110.37 57.08"/>
<path fill="#f1b053" stroke="none" d="
M 163.21 57.08
L 163.21 41.19
L 170.25 41.19
L 177.30 41.19
L 177.30 57.08
L 177.30 72.97
L 170.25 72.97
L 163.21 72.97
L 163.21 57.08"/>
<path fill="#f1b053" stroke="none" d="
M 180.82 57.08
L 180.82 41.19
L 187.87 41.19
L 194.91 41.19
L 194.91 57.08
L 194.91 72.97
L 187.87 72.97
L 180.82 72.97
L 180.82 57.08"/>
<path fill="#f1b053" stroke="none" d="
M 233.66 57.08
L 233.66 41.19
L 240.70 41.19
L 247.75 41.19
L 247.75 57.08
L 247.75 72.97
L 240.70 72.97
L 233.66 72.97
L 233.66 57.08"/>
<path fill="#f1b053" stroke="none" d="
M 251.27 57.08
L 251.27 41.19
L 258.32 41.19
L 265.36 41.19
L 265.36 57.08
L 265.36 72.97
L 258.32 72.97
L 251.27 72.97
L 251.27 57.08"/>
<path fill="#f1b053" stroke="none" d="
M 304.11 57.08
L 304.11 41.19
L 311.74 41.19
L 319.37 41.19
L 319.37 57.08
L 319.37 72.97
L 311.74 72.97
L 304.11 72.97
L 304.11 57.08"/>
<path fill="#f1b053" stroke="none" d="
M 322.90 57.08
L 322.90 41.19
L 329.35 41.19
L 335.81 41.19
L 335.81 57.08
L 335.81 72.97
L 329.35 72.97
L 322.90 72.97
L 322.90 57.08"/>
<path fill="#f1b053" stroke="none" d="
M 374.56 57.08
L 374.56 41.19
L 381.60 41.19
L 388.65 41.19
L 388.65 57.08
L 388.65 72.97
L 381.60 72.97
L 374.56 72.97
L 374.56 57.08"/>
<path fill="#f1b053" stroke="none" d="
M 392.17 57.08
L 392.17 41.19
L 399.22 41.19
L 406.26 41.19
L 406.26 57.08
L 406.26 72.97
L 399.22 72.97
L 392.17 72.97
L 392.17 57.08"/>
<path fill="#f1b053" stroke="none" d="
M 445.01 57.08
L 445.01 41.19
L 452.05 41.19
L 459.10 41.19
L 459.10 57.08
L 459.10 72.97
L 452.05 72.97
L 445.01 72.97
L 445.01 57.08"/>
<path fill="#f1b053" stroke="none" d="
M 462.62 57.08
L 462.62 41.19
L 469.67 41.19
L 476.71 41.19
L 476.71 57.08
L 476.71 72.97
L 469.67 72.97
L 462.62 72.97
L 462.62 57.08"/>
<path fill="#f1b053" stroke="none" d="
M 30.20 49.85
L 24.59 41.78
L 30.04 41.41
C 33.03 41.21 35.71 41.28 36.00 41.57
C 36.28 41.86 36.35 45.65 36.16 50.01
L 35.81 57.94
L 30.20 49.85"/>
<path fill="#f1b053" stroke="none" d="
M 57.53 21.77
L 57.53 5.88
L 64.58 5.88
L 71.62 5.88
L 71.62 21.77
L 71.62 37.66
L 64.58 37.66
L 57.53 37.66
L 57.53 21.77"/>
<path fill="#f1b053" stroke="none" d="
M 75.15 21.77
L 75.15 5.88
L 82.19 5.88
L 89.24 5.88
L 89.24 21.77
L 89.24 37.66
L 82.19 37.66
L 75.15 37.66
L 75.15 21.77"/>
<path fill="#f1b053" stroke="none" d="
M 127.98 21.77
L 127.98 5.88
L 135.03 5.88
L 142.07 5.88
L 142.07 21.77
L 142.07 37.66
L 135.03 37.66
L 127.98 37.66
L 127.98 21.77"/>
<path fill="#f1b053" stroke="none" d="
M 145.60 21.77
L 145.60 5.88
L 152.64 5.88
L 159.69 5.88
L 159.69 21.77
L 159.69 37.66
L 152.64 37.66
L 145.60 37.66
L 145.60 21.77"/>
<path fill="#f1b053" stroke="none" d="
M 198.43 21.77
L 198.43 5.88
L 205.48 5.88
L 212.52 5.88
L 212.52 21.77
L 212.52 37.66
L 205.48 37.66
L 198.43 37.66
L 198.43 21.77"/>
<path fill="#f1b053" stroke="none" d="
M 216.05 21.77
L 216.05 5.88
L 223.09 5.88
L 230.14 5.88
L 230.14 21.77
L 230.14 37.66
L 223.09 37.66
L 216.05 37.66
L 216.05 21.77"/>
<path fill="#f1b053" stroke="none" d="
M 268.88 21.77
L 268.88 5.88
L 275.93 5.88
L 282.97 5.88
L 282.97 21.77
L 282.97 37.66
L 275.93 37.66
L 268.88 37.66
L 268.88 21.77"/>
<path fill="#f1b053" stroke="none" d="
M 286.50 21.77
L 286.50 5.88
L 293.54 5.88
L 300.59 5.88
L 300.59 21.77
L 300.59 37.66
L 293.54 37.66
L 286.50 37.66
L 286.50 21.77"/>
<path fill="#f1b053" stroke="none" d="
M 339.33 21.77
L 339.33 5.88
L 346.38 5.88
L 353.42 5.88
L 353.42 21.77
L 353.42 37.66
L 346.38 37.66
L 339.33 37.66
L 339.33 21.77"/>
<path fill="#f1b053" stroke="none" d="
M 356.95 21.77
L 356.95 5.88
L 363.99 5.88
L 371.04 5.88
L 371.04 21.77
L 371.04 37.66
L 363.99 37.66
L 356.95 37.66
L 356.95 21.77"/>
<path fill="#f1b053" stroke="none" d="
M 409.78 21.77
L 409.78 5.88
L 416.83 5.88
L 423.87 5.88
L 423.87 21.77
L 423.87 37.66
L 416.83 37.66
L 409.78 37.66
L 409.78 21.77"/>
<path fill="#f1b053" stroke="none" d="
M 427.40 21.77
L 427.40 5.88
L 434.44 5.88
L 441.49 5.88
L 441.49 21.77
L 441.49 37.66
L 434.44 37.66
L 427.40 37.66
L 427.40 21.77"/>
<path fill="#f1b053" stroke="none" d="
M 480.23 21.77
L 480.23 5.88
L 487.28 5.88
L 494.32 5.88
L 494.32 21.77
L 494.32 37.66
L 487.28 37.66
L 480.23 37.66
L 480.23 21.77"/>
<path fill="#f1b053" stroke="none" d="
M 497.85 21.77
L 497.85 5.88
L 504.89 5.88
L 511.94 5.88
L 511.94 15.53
C 511.94 24.33 511.60 25.75 508.17 31.42
C 505.06 36.57 503.82 37.66 501.12 37.66
L 497.85 37.66
L 497.85 21.77"/>
<path fill="#f1b053" stroke="none" d="
M 12.54 21.73
C 9.52 16.19 7.05 10.89 7.05 9.93
C 7.05 7.97 11.61 5.88 15.93 5.88
C 18.79 5.88 18.79 5.90 18.79 18.83
C 18.79 25.95 18.62 31.78 18.41 31.78
C 18.20 31.78 15.56 27.26 12.54 21.73"/>
<path fill="#c57a36" stroke="none" d="
M 233.66 165.94
C 233.66 165.21 239.73 164.76 249.51 164.76
C 259.29 164.76 265.36 165.21 265.36 165.94
C 265.36 166.67 259.29 167.12 249.51 167.12
C 239.73 167.12 233.66 166.67 233.66 165.94"/>
<path fill="#c57a36" stroke="none" d="
M 233.66 154.17
L 233.66 147.11
L 249.51 147.11
L 265.36 147.11
L 265.36 154.17
L 265.36 161.23
L 249.51 161.23
L 233.66 161.23
L 233.66 154.17"/>
<path fill="#c57a36" stroke="none" d="
M 304.11 154.17
L 304.11 147.11
L 320.02 147.11
L 335.93 147.11
L 335.58 153.24
C 335.14 160.74 334.64 160.95 316.73 161.11
L 304.11 161.23
L 304.11 154.17"/>
<path fill="#c57a36" stroke="none" d="
M 182.58 156.09
C 170.98 152.51 163.21 149.31 163.21 148.12
C 163.21 147.57 170.34 147.11 179.06 147.11
L 194.91 147.11
L 194.91 152.99
C 194.91 159.89 194.90 159.89 182.58 156.09"/>
<path fill="#c57a36" stroke="none" d="
M 375.51 147.49
C 376.36 147.14 377.38 147.18 377.77 147.58
C 378.15 147.97 377.46 148.24 376.23 148.19
C 374.85 148.13 374.57 147.86 375.51 147.49"/>
<path fill="#c57a36" stroke="none" d="
M 138.76 138.32
C 123.19 130.73 123.92 129.46 143.84 129.46
L 159.69 129.46
L 159.69 136.52
L 159.69 143.58
L 154.61 143.58
C 151.00 143.58 146.44 142.07 138.76 138.32"/>
<path fill="#c57a36" stroke="none" d="
M 198.43 136.52
L 198.43 129.46
L 214.29 129.46
L 230.14 129.46
L 230.14 136.52
L 230.14 143.58
L 214.29 143.58
L 198.43 143.58
L 198.43 136.52"/>
<path fill="#c57a36" stroke="none" d="
M 268.88 136.52
L 268.88 129.46
L 284.74 129.46
L 300.59 129.46
L 300.59 136.52
L 300.59 143.58
L 284.74 143.58
L 268.88 143.58
L 268.88 136.52"/>
<path fill="#c57a36" stroke="none" d="
M 339.33 136.52
L 339.33 129.46
L 355.19 129.46
L 371.04 129.46
L 371.04 136.52
L 371.04 143.58
L 355.19 143.58
L 339.33 143.58
L 339.33 136.52"/>
<path fill="#c57a36" stroke="none" d="
M 409.78 130.60
C 409.78 129.97 410.58 129.46 411.55 129.46
C 412.51 129.46 413.31 129.67 413.31 129.91
C 413.31 130.17 412.51 130.69 411.55 131.06
C 410.58 131.43 409.78 131.22 409.78 130.60"/>
<path fill="#c57a36" stroke="none" d="
M 127.98 118.86
L 127.98 111.80
L 143.84 111.80
L 159.69 111.80
L 159.69 118.86
L 159.69 125.93
L 143.84 125.93
L 127.98 125.93
L 127.98 118.86"/>
<path fill="#c57a36" stroke="none" d="
M 198.43 118.86
L 198.43 111.80
L 214.29 111.80
L 230.14 111.80
L 230.14 118.86
L 230.14 125.93
L 214.29 125.93
L 198.43 125.93
L 198.43 118.86"/>
<path fill="#c57a36" stroke="none" d="
M 268.88 118.86
L 268.88 111.80
L 284.74 111.80
L 300.59 111.80
L 300.59 118.86
L 300.59 125.93
L 284.74 125.93
L 268.88 125.93
L 268.88 118.86"/>
<path fill="#c57a36" stroke="none" d="
M 339.33 118.86
L 339.33 111.80
L 355.19 111.80
L 371.04 111.80
L 371.04 118.86
L 371.04 125.93
L 355.19 125.93
L 339.33 125.93
L 339.33 118.86"/>
<path fill="#c57a36" stroke="none" d="
M 409.78 118.86
L 409.78 111.80
L 423.87 111.80
C 431.62 111.80 437.96 111.98 437.96 112.20
C 437.96 112.43 433.81 115.60 428.74 119.26
C 421.07 124.80 418.68 125.93 414.65 125.93
L 409.78 125.93
L 409.78 118.86"/>
<path fill="#c57a36" stroke="none" d="
M 558.32 121.34
C 548.72 116.85 536.03 99.81 532.46 86.59
C 530.11 77.87 530.51 75.56 538.24 53.55
C 540.50 47.07 542.38 40.46 542.41 38.84
C 542.47 34.39 536.99 23.50 532.24 18.59
C 528.12 14.35 528.07 14.18 529.97 11.26
C 531.05 9.62 533.11 7.98 534.55 7.61
C 540.68 6.07 559.15 15.68 569.39 25.73
C 591.64 47.53 598.70 78.23 587.11 102.72
C 582.69 112.05 577.50 118.31 571.75 121.25
C 566.17 124.10 564.29 124.11 558.32 121.34
M 575.03 107.62
C 583.41 97.90 587.17 77.53 582.97 64.57
C 579.43 53.63 571.91 40.50 564.97 33.06
C 554.98 22.38 551.67 23.30 550.30 37.13
C 549.91 41.05 547.70 50.32 545.38 57.73
C 539.86 75.37 539.40 79.30 541.84 87.79
C 546.70 104.66 555.50 113.71 565.95 112.59
C 570.23 112.13 571.95 111.20 575.03 107.62"/>
<path fill="#c57a36" stroke="none" d="
M 92.76 101.21
L 92.76 94.15
L 108.61 94.15
L 124.46 94.15
L 124.46 101.21
L 124.46 108.27
L 108.61 108.27
L 92.76 108.27
L 92.76 101.21"/>
<path fill="#c57a36" stroke="none" d="
M 163.21 101.21
L 163.21 94.15
L 179.06 94.15
L 194.91 94.15
L 194.91 101.21
L 194.91 108.27
L 179.06 108.27
L 163.21 108.27
L 163.21 101.21"/>
<path fill="#c57a36" stroke="none" d="
M 233.66 101.21
L 233.66 94.15
L 249.51 94.15
L 265.36 94.15
L 265.36 101.21
L 265.36 108.27
L 249.51 108.27
L 233.66 108.27
L 233.66 101.21"/>
<path fill="#c57a36" stroke="none" d="
M 304.11 101.21
L 304.11 94.15
L 319.96 94.15
L 335.81 94.15
L 335.81 101.21
L 335.81 108.27
L 319.96 108.27
L 304.11 108.27
L 304.11 101.21"/>
<path fill="#c57a36" stroke="none" d="
M 374.56 101.21
L 374.56 94.15
L 390.41 94.15
L 406.26 94.15
L 406.26 101.21
L 406.26 108.27
L 390.41 108.27
L 374.56 108.27
L 374.56 101.21"/>
<path fill="#c57a36" stroke="none" d="
M 445.01 100.13
L 445.01 94.15
L 451.47 94.15
C 455.01 94.15 457.93 94.35 457.93 94.60
C 457.93 94.84 455.01 97.53 451.47 100.58
L 445.01 106.09
L 445.01 100.13"/>
<path fill="#c57a36" stroke="none" d="
M 92.76 83.56
L 92.76 76.50
L 108.61 76.50
L 124.46 76.50
L 124.46 83.56
L 124.46 90.62
L 108.61 90.62
L 92.76 90.62
L 92.76 83.56"/>
<path fill="#c57a36" stroke="none" d="
M 163.21 83.56
L 163.21 76.50
L 179.06 76.50
L 194.91 76.50
L 194.91 83.56
L 194.91 90.62
L 179.06 90.62
L 163.21 90.62
L 163.21 83.56"/>
<path fill="#c57a36" stroke="none" d="
M 233.66 83.56
L 233.66 76.50
L 249.51 76.50
L 265.36 76.50
L 265.36 83.56
L 265.36 90.62
L 249.51 90.62
L 233.66 90.62
L 233.66 83.56"/>
<path fill="#c57a36" stroke="none" d="
M 304.11 83.56
L 304.11 76.50
L 319.96 76.50
L 335.81 76.50
L 335.81 83.56
L 335.81 90.62
L 319.96 90.62
L 304.11 90.62
L 304.11 83.56"/>
<path fill="#c57a36" stroke="none" d="
M 374.56 83.56
L 374.56 76.50
L 390.41 76.50
L 406.26 76.50
L 406.26 83.56
L 406.26 90.62
L 390.41 90.62
L 374.56 90.62
L 374.56 83.56"/>
<path fill="#c57a36" stroke="none" d="
M 445.01 83.56
L 445.01 76.50
L 459.86 76.50
L 474.73 76.50
L 472.53 79.14
C 463.22 90.36 462.79 90.62 453.58 90.62
L 445.01 90.62
L 445.01 83.56"/>
<path fill="#c57a36" stroke="none" d="
M 57.53 65.90
L 57.53 58.84
L 73.39 58.84
L 89.24 58.84
L 89.24 65.90
L 89.24 72.97
L 73.39 72.97
L 57.53 72.97
L 57.53 65.90"/>
<path fill="#c57a36" stroke="none" d="
M 127.98 65.90
L 127.98 58.84
L 143.84 58.84
L 159.69 58.84
L 159.69 65.90
L 159.69 72.97
L 143.84 72.97
L 127.98 72.97
L 127.98 65.90"/>
<path fill="#c57a36" stroke="none" d="
M 198.43 65.90
L 198.43 58.84
L 214.29 58.84
L 230.14 58.84
L 230.14 65.90
L 230.14 72.97
L 214.29 72.97
L 198.43 72.97
L 198.43 65.90"/>
<path fill="#c57a36" stroke="none" d="
M 268.88 65.90
L 268.88 58.84
L 284.74 58.84
L 300.59 58.84
L 300.59 65.90
L 300.59 72.97
L 284.74 72.97
L 268.88 72.97
L 268.88 65.90"/>
<path fill="#c57a36" stroke="none" d="
M 339.33 65.90
L 339.33 58.84
L 355.19 58.84
L 371.04 58.84
L 371.04 65.90
L 371.04 72.97
L 355.19 72.97
L 339.33 72.97
L 339.33 65.90"/>
<path fill="#c57a36" stroke="none" d="
M 409.78 65.90
L 409.78 58.84
L 425.64 58.84
L 441.49 58.84
L 441.49 65.90
L 441.49 72.97
L 425.64 72.97
L 409.78 72.97
L 409.78 65.90"/>
<path fill="#c57a36" stroke="none" d="
M 480.23 64.90
L 480.23 58.84
L 484.41 58.84
C 488.99 58.84 489.02 58.73 483.52 66.38
L 480.23 70.97
L 480.23 64.90"/>
<path fill="#c57a36" stroke="none" d="
M 57.53 48.25
L 57.53 41.19
L 73.39 41.19
L 89.24 41.19
L 89.24 48.25
L 89.24 55.31
L 73.39 55.31
L 57.53 55.31
L 57.53 48.25"/>
<path fill="#c57a36" stroke="none" d="
M 127.98 48.25
L 127.98 41.19
L 143.84 41.19
L 159.69 41.19
L 159.69 48.25
L 159.69 55.31
L 143.84 55.31
L 127.98 55.31
L 127.98 48.25"/>
<path fill="#c57a36" stroke="none" d="
M 198.43 48.25
L 198.43 41.19
L 214.29 41.19
L 230.14 41.19
L 230.14 48.25
L 230.14 55.31
L 214.29 55.31
L 198.43 55.31
L 198.43 48.25"/>
<path fill="#c57a36" stroke="none" d="
M 268.88 48.25
L 268.88 41.19
L 284.74 41.19
L 300.59 41.19
L 300.59 48.25
L 300.59 55.31
L 284.74 55.31
L 268.88 55.31
L 268.88 48.25"/>
<path fill="#c57a36" stroke="none" d="
M 339.33 48.25
L 339.33 41.19
L 355.19 41.19
L 371.04 41.19
L 371.04 48.25
L 371.04 55.31
L 355.19 55.31
L 339.33 55.31
L 339.33 48.25"/>
<path fill="#c57a36" stroke="none" d="
M 409.78 48.25
L 409.78 41.19
L 425.64 41.19
L 441.49 41.19
L 441.49 48.25
L 441.49 55.31
L 425.64 55.31
L 409.78 55.31
L 409.78 48.25"/>
<path fill="#c57a36" stroke="none" d="
M 480.23 48.25
L 480.23 41.19
L 490.87 41.19
C 502.71 41.19 502.41 40.67 495.66 49.72
C 491.71 55.03 491.21 55.31 485.86 55.31
L 480.23 55.31
L 480.23 48.25"/>
<path fill="#c57a36" stroke="none" d="
M 22.31 30.60
L 22.31 23.54
L 38.16 23.54
L 54.01 23.54
L 54.01 30.60
L 54.01 37.66
L 38.16 37.66
L 22.31 37.66
L 22.31 30.60"/>
<path fill="#c57a36" stroke="none" d="
M 92.76 30.60
L 92.76 23.54
L 108.61 23.54
L 124.46 23.54
L 124.46 30.60
L 124.46 37.66
L 108.61 37.66
L 92.76 37.66
L 92.76 30.60"/>
<path fill="#c57a36" stroke="none" d="
M 163.21 30.60
L 163.21 23.54
L 179.06 23.54
L 194.91 23.54
L 194.91 30.60
L 194.91 37.66
L 179.06 37.66
L 163.21 37.66
L 163.21 30.60"/>
<path fill="#c57a36" stroke="none" d="
M 233.66 30.60
L 233.66 23.54
L 249.51 23.54
L 265.36 23.54
L 265.36 30.60
L 265.36 37.66
L 249.51 37.66
L 233.66 37.66
L 233.66 30.60"/>
<path fill="#c57a36" stroke="none" d="
M 304.11 30.60
L 304.11 23.54
L 319.96 23.54
L 335.81 23.54
L 335.81 30.60
L 335.81 37.66
L 319.96 37.66
L 304.11 37.66
L 304.11 30.60"/>
<path fill="#c57a36" stroke="none" d="
M 374.56 30.60
L 374.56 23.54
L 390.41 23.54
L 406.26 23.54
L 406.26 30.60
L 406.26 37.66
L 390.41 37.66
L 374.56 37.66
L 374.56 30.60"/>
<path fill="#c57a36" stroke="none" d="
M 445.01 30.60
L 445.01 23.54
L 460.86 23.54
L 476.71 23.54
L 476.71 30.60
L 476.71 37.66
L 460.86 37.66
L 445.01 37.66
L 445.01 30.60"/>
<path fill="#c57a36" stroke="none" d="
M 22.54 13.24
L 22.90 6.47
L 38.45 6.14
L 54.01 5.81
L 54.01 12.91
L 54.01 20.01
L 38.10 20.01
L 22.19 20.01
L 22.54 13.24"/>
<path fill="#c57a36" stroke="none" d="
M 92.76 12.95
L 92.76 5.88
L 108.61 5.88
L 124.46 5.88
L 124.46 12.95
L 124.46 20.01
L 108.61 20.01
L 92.76 20.01
L 92.76 12.95"/>
<path fill="#c57a36" stroke="none" d="
M 163.21 12.95
L 163.21 5.88
L 179.06 5.88
L 194.91 5.88
L 194.91 12.95
L 194.91 20.01
L 179.06 20.01
L 163.21 20.01
L 163.21 12.95"/>
<path fill="#c57a36" stroke="none" d="
M 233.66 12.95
L 233.66 5.88
L 249.51 5.88
L 265.36 5.88
L 265.36 12.95
L 265.36 20.01
L 249.51 20.01
L 233.66 20.01
L 233.66 12.95"/>
<path fill="#c57a36" stroke="none" d="
M 304.11 12.95
L 304.11 5.88
L 319.96 5.88
L 335.81 5.88
L 335.81 12.95
L 335.81 20.01
L 319.96 20.01
L 304.11 20.01
L 304.11 12.95"/>
<path fill="#c57a36" stroke="none" d="
M 374.56 12.95
L 374.56 5.88
L 390.41 5.88
L 406.26 5.88
L 406.26 12.95
L 406.26 20.01
L 390.41 20.01
L 374.56 20.01
L 374.56 12.95"/>
<path fill="#c57a36" stroke="none" d="
M 445.01 12.95
L 445.01 5.88
L 460.86 5.88
L 476.71 5.88
L 476.71 12.95
L 476.71 20.01
L 460.86 20.01
L 445.01 20.01
L 445.01 12.95"/>
<path fill="#c57a36" stroke="none" d="
M 515.46 12.64
L 515.46 5.88
L 519.57 5.88
C 521.84 5.88 523.68 6.17 523.68 6.52
C 523.68 6.87 521.84 9.91 519.57 13.28
L 515.46 19.38
L 515.46 12.64"/>
</g>
</svg>
