<?xml version="1.0" encoding="UTF-8" standalone="no"?>
<!DOCTYPE svg PUBLIC "-//W3C//DTD SVG 1.1//EN"
"http://www.w3.org/Graphics/SVG/1.1/DTD/svg11.dtd">
<svg width="600px" height="173px"
xmlns="http://www.w3.org/2000/svg" version="1.1">
<g transform="translate(0000, 0000) scale(1.0000, 1.0000)">
<path fill="#000000" stroke="none" d="
M 302.94 171.75
C 298.10 171.16 289.37 170.12 283.56 169.43
C 254.70 166.01 221.08 156.29 198.52 144.84
C 153.83 122.16 124.60 94.46 86.94 39.07
C 81.52 31.12 76.61 24.31 76.04 23.95
C 74.38 22.93 70.45 27.16 67.35 33.29
L 64.50 38.93
L 68.14 49.18
C 73.02 62.90 76.27 75.08 76.30 79.67
C 76.33 85.74 70.86 101.27 66.22 108.27
C 56.47 122.99 45.53 130.66 34.30 130.62
C 28.11 130.61 18.68 125.83 14.25 120.49
C 6.21 110.74 -0.02 92.38 0.01 78.47
C 0.04 69.38 4.09 51.44 7.97 43.18
C 15.10 28.04 26.50 15.88 41.10 7.85
C 56.49 -0.62 33.58 0.00 329.01 0.00
C 593.74 0.00 595.32 0.01 597.65 2.35
C 599.31 4.01 600.00 6.27 600.00 10.06
C 600.00 16.54 595.02 26.27 580.16 48.84
C 571.50 61.97 566.84 67.40 547.17 87.23
C 525.39 109.19 519.93 113.72 500.78 125.80
C 488.90 133.29 457.00 149.34 442.66 155.04
C 428.49 160.68 410.21 165.97 392.30 169.65
C 381.50 171.86 375.31 172.24 345.79 172.51
C 327.06 172.67 307.77 172.33 302.94 171.75
M 331.12 157.11
L 331.12 147.11
L 324.07 147.11
L 317.03 147.11
L 317.03 157.11
L 317.03 167.12
L 324.07 167.12
L 331.12 167.12
L 331.12 157.11
M 366.34 165.94
C 366.34 165.21 360.27 164.76 350.49 164.76
C 340.71 164.76 334.64 165.21 334.64 165.94
C 334.64 166.67 340.71 167.12 350.49 167.12
C 360.27 167.12 366.34 166.67 366.34 165.94
M 313.50 156.52
L 313.50 147.11
L 306.46 147.11
L 299.41 147.11
L 299.41 155.86
L 299.41 164.61
L 303.23 165.09
C 305.33 165.35 308.50 165.64 310.27 165.75
L 313.50 165.94
L 313.50 156.52
M 378.50 165.19
L 383.95 164.44
L 383.95 155.77
L 383.95 147.11
L 376.91 147.11
L 369.86 147.11
L 369.86 156.52
C 369.86 166.90 369.39 166.44 378.50 165.19
M 398.04 161.25
C 400.68 160.56 401.01 159.81 401.33 153.79
L 401.68 147.11
L 394.58 147.11
L 387.48 147.11
L 387.48 155.31
L 387.48 163.53
L 391.29 162.77
C 393.39 162.36 396.42 161.68 398.04 161.25
M 295.89 154.17
L 295.89 147.11
L 279.98 147.11
L 264.07 147.11
L 264.42 153.24
C 264.86 160.74 265.36 160.95 283.27 161.11
L 295.89 161.23
L 295.89 154.17
M 366.34 154.17
L 366.34 147.11
L 350.49 147.11
L 334.64 147.11
L 334.64 154.17
L 334.64 161.23
L 350.49 161.23
L 366.34 161.23
L 366.34 154.17
M 260.67 152.99
L 260.67 147.11
L 253.62 147.11
L 246.58 147.11
L 246.58 150.99
C 246.58 154.72 246.85 154.96 253.33 156.77
C 257.04 157.81 260.21 158.70 260.37 158.76
C 260.54 158.83 260.67 156.23 260.67 152.99
M 416.11 156.45
C 426.86 153.32 436.79 149.30 436.79 148.07
C 436.79 147.54 429.66 147.11 420.94 147.11
L 405.09 147.11
L 405.09 152.99
C 405.09 156.62 405.60 158.88 406.43 158.88
C 407.17 158.88 411.52 157.78 416.11 156.45
M 243.05 150.05
C 243.05 147.24 242.74 147.11 236.01 147.11
C 232.13 147.11 228.96 147.52 228.96 148.03
C 228.96 149.06 237.86 152.64 241.00 152.85
C 242.44 152.95 243.05 152.12 243.05 150.05
M 225.12 147.58
C 224.74 147.18 223.71 147.14 222.87 147.49
C 221.93 147.86 222.21 148.13 223.59 148.19
C 224.82 148.24 225.51 147.97 225.12 147.58
M 225.44 127.69
L 225.44 111.80
L 218.40 111.80
L 211.35 111.80
L 211.35 126.90
C 211.35 135.21 211.70 142.37 212.14 142.79
C 212.56 143.23 215.73 143.58 219.18 143.58
L 225.44 143.58
L 225.44 127.69
M 260.67 136.52
L 260.67 129.46
L 244.81 129.46
L 228.96 129.46
L 228.96 136.52
L 228.96 143.58
L 244.81 143.58
L 260.67 143.58
L 260.67 136.52
M 277.10 127.69
L 277.10 111.80
L 270.65 111.80
L 264.19 111.80
L 264.19 127.69
L 264.19 143.58
L 270.65 143.58
L 277.10 143.58
L 277.10 127.69
M 295.89 127.69
L 295.89 111.80
L 288.26 111.80
L 280.63 111.80
L 280.63 127.69
L 280.63 143.58
L 288.26 143.58
L 295.89 143.58
L 295.89 127.69
M 331.12 136.52
L 331.12 129.46
L 315.26 129.46
L 299.41 129.46
L 299.41 136.52
L 299.41 143.58
L 315.26 143.58
L 331.12 143.58
L 331.12 136.52
M 348.73 127.69
L 348.73 111.80
L 341.68 111.80
L 334.64 111.80
L 334.64 127.69
L 334.64 143.58
L 341.68 143.58
L 348.73 143.58
L 348.73 127.69
M 366.34 127.69
L 366.34 111.80
L 359.30 111.80
L 352.25 111.80
L 352.25 127.69
L 352.25 143.58
L 359.30 143.58
L 366.34 143.58
L 366.34 127.69
M 401.57 136.52
L 401.57 129.46
L 385.71 129.46
L 369.86 129.46
L 369.86 136.52
L 369.86 143.58
L 385.71 143.58
L 401.57 143.58
L 401.57 136.52
M 419.18 127.69
L 419.18 111.80
L 412.13 111.80
L 405.09 111.80
L 405.09 127.69
L 405.09 143.58
L 412.13 143.58
L 419.18 143.58
L 419.18 127.69
M 436.79 127.69
L 436.79 111.80
L 429.75 111.80
L 422.70 111.80
L 422.70 127.69
L 422.70 143.58
L 429.75 143.58
L 436.79 143.58
L 436.79 127.69
M 461.24 138.32
C 476.81 130.73 476.08 129.46 456.16 129.46
L 440.31 129.46
L 440.31 136.52
L 440.31 143.58
L 445.39 143.58
C 449.00 143.58 453.56 142.07 461.24 138.32
M 207.83 125.93
L 207.83 111.80
L 200.78 111.80
L 193.74 111.80
L 193.74 122.74
L 193.74 133.68
L 199.90 136.79
C 203.30 138.51 206.47 139.94 206.95 139.98
C 207.43 140.01 207.83 133.69 207.83 125.93
M 190.22 130.63
C 190.22 129.99 189.29 129.47 188.16 129.48
C 186.40 129.49 186.36 129.66 187.87 130.63
C 190.09 132.07 190.22 132.07 190.22 130.63
M 489.63 117.52
L 489.63 111.80
L 482.58 111.80
L 475.54 111.80
L 475.54 121.29
L 475.54 130.77
L 482.58 127.01
L 489.63 123.24
L 489.63 117.52
M 190.22 118.86
L 190.22 111.80
L 175.93 111.80
C 168.07 111.80 162.00 112.16 162.43 112.59
C 162.86 113.03 167.05 116.19 171.72 119.63
C 178.81 124.83 181.07 125.88 185.23 125.90
L 190.22 125.93
L 190.22 118.86
M 260.67 118.86
L 260.67 111.80
L 244.81 111.80
L 228.96 111.80
L 228.96 118.86
L 228.96 125.93
L 244.81 125.93
L 260.67 125.93
L 260.67 118.86
M 331.12 118.86
L 331.12 111.80
L 315.26 111.80
L 299.41 111.80
L 299.41 118.86
L 299.41 125.93
L 315.26 125.93
L 331.12 125.93
L 331.12 118.86
M 401.57 118.86
L 401.57 111.80
L 385.71 111.80
L 369.86 111.80
L 369.86 118.86
L 369.86 125.93
L 385.71 125.93
L 401.57 125.93
L 401.57 118.86
M 472.02 118.86
L 472.02 111.80
L 456.16 111.80
L 440.31 111.80
L 440.31 118.86
L 440.31 125.93
L 456.16 125.93
L 472.02 125.93
L 472.02 118.86
M 40.84 121.75
C 50.50 117.71 63.89 100.10 67.51 86.64
C 69.89 77.87 69.49 75.58 61.76 53.55
C 59.50 47.07 57.62 40.46 57.59 38.84
C 57.53 34.39 63.01 23.50 67.76 18.59
C 71.88 14.35 71.93 14.18 70.03 11.26
C 68.95 9.62 66.89 7.98 65.45 7.61
C 59.32 6.07 40.85 15.68 30.61 25.73
C 8.36 47.53 1.30 78.23 12.89 102.72
C 17.23 111.87 22.44 118.25 27.99 121.19
C 33.28 123.98 35.27 124.08 40.84 121.75
M 499.69 116.99
C 507.08 112.65 507.08 111.80 499.68 111.80
L 493.15 111.80
L 493.15 115.92
C 493.15 118.18 493.46 120.04 493.82 120.04
C 494.20 120.04 496.84 118.66 499.69 116.99
M 172.60 92.38
L 172.60 76.50
L 165.56 76.50
L 158.51 76.50
L 158.51 92.38
L 158.51 108.27
L 165.56 108.27
L 172.60 108.27
L 172.60 92.38
M 190.22 92.38
L 190.22 76.50
L 183.17 76.50
L 176.13 76.50
L 176.13 92.38
L 176.13 108.27
L 183.17 108.27
L 190.22 108.27
L 190.22 92.38
M 225.44 101.21
L 225.44 94.15
L 209.59 94.15
L 193.74 94.15
L 193.74 101.21
L 193.74 108.27
L 209.59 108.27
L 225.44 108.27
L 225.44 101.21
M 243.05 92.38
L 243.05 76.50
L 236.01 76.50
L 228.96 76.50
L 228.96 92.38
L 228.96 108.27
L 236.01 108.27
L 243.05 108.27
L 243.05 92.38
M 260.67 92.38
L 260.67 76.50
L 253.62 76.50
L 246.58 76.50
L 246.58 92.38
L 246.58 108.27
L 253.62 108.27
L 260.67 108.27
L 260.67 92.38
M 295.89 101.21
L 295.89 94.15
L 280.04 94.15
L 264.19 94.15
L 264.19 101.21
L 264.19 108.27
L 280.04 108.27
L 295.89 108.27
L 295.89 101.21
M 313.50 92.38
L 313.50 76.50
L 306.46 76.50
L 299.41 76.50
L 299.41 92.38
L 299.41 108.27
L 306.46 108.27
L 313.50 108.27
L 313.50 92.38
M 331.12 92.38
L 331.12 76.50
L 324.07 76.50
L 317.03 76.50
L 317.03 92.38
L 317.03 108.27
L 324.07 108.27
L 331.12 108.27
L 331.12 92.38
M 366.34 101.21
L 366.34 94.15
L 350.49 94.15
L 334.64 94.15
L 334.64 101.21
L 334.64 108.27
L 350.49 108.27
L 366.34 108.27
L 366.34 101.21
M 383.95 92.38
L 383.95 76.50
L 376.91 76.50
L 369.86 76.50
L 369.86 92.38
L 369.86 108.27
L 376.91 108.27
L 383.95 108.27
L 383.95 92.38
M 401.57 92.38
L 401.57 76.50
L 394.52 76.50
L 387.48 76.50
L 387.48 92.38
L 387.48 108.27
L 394.52 108.27
L 401.57 108.27
L 401.57 92.38
M 436.79 101.21
L 436.79 94.15
L 420.94 94.15
L 405.09 94.15
L 405.09 101.21
L 405.09 108.27
L 420.94 108.27
L 436.79 108.27
L 436.79 101.21
M 454.40 92.38
L 454.40 76.50
L 447.36 76.50
L 440.31 76.50
L 440.31 92.38
L 440.31 108.27
L 447.36 108.27
L 454.40 108.27
L 454.40 92.38
M 472.02 92.38
L 472.02 76.50
L 464.97 76.50
L 457.93 76.50
L 457.93 92.38
L 457.93 108.27
L 464.97 108.27
L 472.02 108.27
L 472.02 92.38
M 507.24 101.21
L 507.24 94.15
L 491.39 94.15
L 475.54 94.15
L 475.54 101.21
L 475.54 108.27
L 491.39 108.27
L 507.24 108.27
L 507.24 101.21
M 518.83 103.35
L 524.85 98.45
L 524.85 87.47
L 524.85 76.50
L 517.81 76.50
L 510.76 76.50
L 510.76 92.38
C 510.76 101.12 511.22 108.27 511.78 108.27
C 512.34 108.27 515.51 106.06 518.83 103.35
M 154.99 100.03
L 154.99 94.15
L 148.24 94.18
L 141.49 94.22
L 147.95 100.03
C 151.50 103.22 154.53 105.86 154.70 105.88
C 154.86 105.91 154.99 103.27 154.99 100.03
M 542.47 78.59
C 542.47 76.81 541.40 76.50 535.42 76.50
L 528.38 76.50
L 528.38 85.58
L 528.38 94.67
L 535.42 87.68
C 539.30 83.83 542.47 79.74 542.47 78.59
M 154.99 83.56
L 154.99 76.50
L 140.14 76.50
L 125.27 76.50
L 127.47 79.14
C 136.78 90.36 137.21 90.62 146.42 90.62
L 154.99 90.62
L 154.99 83.56
M 225.44 83.56
L 225.44 76.50
L 209.59 76.50
L 193.74 76.50
L 193.74 83.56
L 193.74 90.62
L 209.59 90.62
L 225.44 90.62
L 225.44 83.56
M 295.89 83.56
L 295.89 76.50
L 280.04 76.50
L 264.19 76.50
L 264.19 83.56
L 264.19 90.62
L 280.04 90.62
L 295.89 90.62
L 295.89 83.56
M 366.34 83.56
L 366.34 76.50
L 350.49 76.50
L 334.64 76.50
L 334.64 83.56
L 334.64 90.62
L 350.49 90.62
L 366.34 90.62
L 366.34 83.56
M 436.79 83.56
L 436.79 76.50
L 420.94 76.50
L 405.09 76.50
L 405.09 83.56
L 405.09 90.62
L 420.94 90.62
L 436.79 90.62
L 436.79 83.56
M 507.24 83.56
L 507.24 76.50
L 491.39 76.50
L 475.54 76.50
L 475.54 83.56
L 475.54 90.62
L 491.39 90.62
L 507.24 90.62
L 507.24 83.56
M 137.38 57.08
L 137.38 41.19
L 130.33 41.19
L 123.29 41.19
L 123.29 57.08
L 123.29 72.97
L 130.33 72.97
L 137.38 72.97
L 137.38 57.08
M 154.99 57.08
L 154.99 41.19
L 147.95 41.19
L 140.90 41.19
L 140.90 57.08
L 140.90 72.97
L 147.95 72.97
L 154.99 72.97
L 154.99 57.08
M 190.22 65.90
L 190.22 58.84
L 174.36 58.84
L 158.51 58.84
L 158.51 65.90
L 158.51 72.97
L 174.36 72.97
L 190.22 72.97
L 190.22 65.90
M 207.83 57.08
L 207.83 41.19
L 200.78 41.19
L 193.74 41.19
L 193.74 57.08
L 193.74 72.97
L 200.78 72.97
L 207.83 72.97
L 207.83 57.08
M 225.44 57.08
L 225.44 41.19
L 218.40 41.19
L 211.35 41.19
L 211.35 57.08
L 211.35 72.97
L 218.40 72.97
L 225.44 72.97
L 225.44 57.08
M 260.67 65.90
L 260.67 58.84
L 244.81 58.84
L 228.96 58.84
L 228.96 65.90
L 228.96 72.97
L 244.81 72.97
L 260.67 72.97
L 260.67 65.90
M 277.10 57.08
L 277.10 41.19
L 270.65 41.19
L 264.19 41.19
L 264.19 57.08
L 264.19 72.97
L 270.65 72.97
L 277.10 72.97
L 277.10 57.08
M 295.89 57.08
L 295.89 41.19
L 288.26 41.19
L 280.63 41.19
L 280.63 57.08
L 280.63 72.97
L 288.26 72.97
L 295.89 72.97
L 295.89 57.08
M 331.12 65.90
L 331.12 58.84
L 315.26 58.84
L 299.41 58.84
L 299.41 65.90
L 299.41 72.97
L 315.26 72.97
L 331.12 72.97
L 331.12 65.90
M 348.73 57.08
L 348.73 41.19
L 341.68 41.19
L 334.64 41.19
L 334.64 57.08
L 334.64 72.97
L 341.68 72.97
L 348.73 72.97
L 348.73 57.08
M 366.34 57.08
L 366.34 41.19
L 359.30 41.19
L 352.25 41.19
L 352.25 57.08
L 352.25 72.97
L 359.30 72.97
L 366.34 72.97
L 366.34 57.08
M 401.57 65.90
L 401.57 58.84
L 385.71 58.84
L 369.86 58.84
L 369.86 65.90
L 369.86 72.97
L 385.71 72.97
L 401.57 72.97
L 401.57 65.90
M 419.18 57.08
L 419.18 41.19
L 412.13 41.19
L 405.09 41.19
L 405.09 57.08
L 405.09 72.97
L 412.13 72.97
L 419.18 72.97
L 419.18 57.08
M 436.79 57.08
L 436.79 41.19
L 429.75 41.19
L 422.70 41.19
L 422.70 57.08
L 422.70 72.97
L 429.75 72.97
L 436.79 72.97
L 436.79 57.08
M 472.02 65.90
L 472.02 58.84
L 456.16 58.84
L 440.31 58.84
L 440.31 65.90
L 440.31 72.97
L 456.16 72.97
L 472.02 72.97
L 472.02 65.90
M 489.63 57.08
L 489.63 41.19
L 482.58 41.19
L 475.54 41.19
L 475.54 57.08
L 475.54 72.97
L 482.58 72.97
L 489.63 72.97
L 489.63 57.08
M 507.24 57.08
L 507.24 41.19
L 500.20 41.19
L 493.15 41.19
L 493.15 57.08
L 493.15 72.97
L 500.20 72.97
L 507.24 72.97
L 507.24 57.08
M 542.47 65.90
L 542.47 58.84
L 526.61 58.84
L 510.76 58.84
L 510.76 65.90
L 510.76 72.97
L 526.61 72.97
L 542.47 72.97
L 542.47 65.90
M 555.29 67.38
L 560.07 61.79
L 560.07 51.49
L 560.08 41.19
L 553.03 41.19
L 545.99 41.19
L 545.99 57.08
C 545.99 71.97 546.13 72.97 548.24 72.97
C 549.49 72.97 552.66 70.45 555.29 67.38
M 119.37 59.22
C 119.06 58.93 117.18 58.84 115.19 59.06
L 111.56 59.43
L 115.37 64.89
L 119.18 70.34
L 119.54 65.06
C 119.74 62.15 119.66 59.53 119.37 59.22
M 569.67 50.02
C 576.16 40.76 576.16 41.19 569.54 41.19
L 563.60 41.19
L 563.60 49.66
C 563.60 54.32 564.04 57.63 564.58 57.02
C 565.10 56.41 567.39 53.25 569.67 50.02
M 119.77 48.25
L 119.77 41.19
L 109.13 41.19
C 97.29 41.19 97.59 40.67 104.34 49.72
C 108.29 55.03 108.79 55.31 114.14 55.31
L 119.77 55.31
L 119.77 48.25
M 190.22 48.25
L 190.22 41.19
L 174.36 41.19
L 158.51 41.19
L 158.51 48.25
L 158.51 55.31
L 174.36 55.31
L 190.22 55.31
L 190.22 48.25
M 260.67 48.25
L 260.67 41.19
L 244.81 41.19
L 228.96 41.19
L 228.96 48.25
L 228.96 55.31
L 244.81 55.31
L 260.67 55.31
L 260.67 48.25
M 331.12 48.25
L 331.12 41.19
L 315.26 41.19
L 299.41 41.19
L 299.41 48.25
L 299.41 55.31
L 315.26 55.31
L 331.12 55.31
L 331.12 48.25
M 401.57 48.25
L 401.57 41.19
L 385.71 41.19
L 369.86 41.19
L 369.86 48.25
L 369.86 55.31
L 385.71 55.31
L 401.57 55.31
L 401.57 48.25
M 472.02 48.25
L 472.02 41.19
L 456.16 41.19
L 440.31 41.19
L 440.31 48.25
L 440.31 55.31
L 456.16 55.31
L 472.02 55.31
L 472.02 48.25
M 542.47 48.25
L 542.47 41.19
L 526.61 41.19
L 510.76 41.19
L 510.76 48.25
L 510.76 55.31
L 526.61 55.31
L 542.47 55.31
L 542.47 48.25
M 102.15 21.77
L 102.15 5.88
L 95.11 5.88
L 88.06 5.88
L 88.06 15.53
C 88.06 24.33 88.40 25.75 91.83 31.42
C 94.94 36.57 96.18 37.66 98.88 37.66
L 102.15 37.66
L 102.15 21.77
M 119.77 21.77
L 119.77 5.88
L 112.72 5.88
L 105.68 5.88
L 105.68 21.77
L 105.68 37.66
L 112.72 37.66
L 119.77 37.66
L 119.77 21.77
M 154.99 30.60
L 154.99 23.54
L 139.14 23.54
L 123.29 23.54
L 123.29 30.60
L 123.29 37.66
L 139.14 37.66
L 154.99 37.66
L 154.99 30.60
M 172.60 21.77
L 172.60 5.88
L 165.56 5.88
L 158.51 5.88
L 158.51 21.77
L 158.51 37.66
L 165.56 37.66
L 172.60 37.66
L 172.60 21.77
M 190.22 21.77
L 190.22 5.88
L 183.17 5.88
L 176.13 5.88
L 176.13 21.77
L 176.13 37.66
L 183.17 37.66
L 190.22 37.66
L 190.22 21.77
M 225.44 30.60
L 225.44 23.54
L 209.59 23.54
L 193.74 23.54
L 193.74 30.60
L 193.74 37.66
L 209.59 37.66
L 225.44 37.66
L 225.44 30.60
M 243.05 21.77
L 243.05 5.88
L 236.01 5.88
L 228.96 5.88
L 228.96 21.77
L 228.96 37.66
L 236.01 37.66
L 243.05 37.66
L 243.05 21.77
M 260.67 21.77
L 260.67 5.88
L 253.62 5.88
L 246.58 5.88
L 246.58 21.77
L 246.58 37.66
L 253.62 37.66
L 260.67 37.66
L 260.67 21.77
M 295.89 30.60
L 295.89 23.54
L 280.04 23.54
L 264.19 23.54
L 264.19 30.60
L 264.19 37.66
L 280.04 37.66
L 295.89 37.66
L 295.89 30.60
M 313.50 21.77
L 313.50 5.88
L 306.46 5.88
L 299.41 5.88
L 299.41 21.77
L 299.41 37.66
L 306.46 37.66
L 313.50 37.66
L 313.50 21.77
M 331.12 21.77
L 331.12 5.88
L 324.07 5.88
L 317.03 5.88
L 317.03 21.77
L 317.03 37.66
L 324.07 37.66
L 331.12 37.66
L 331.12 21.77
M 366.34 30.60
L 366.34 23.54
L 350.49 23.54
L 334.64 23.54
L 334.64 30.60
L 334.64 37.66
L 350.49 37.66
L 366.34 37.66
L 366.34 30.60
M 383.95 21.77
L 383.95 5.88
L 376.91 5.88
L 369.86 5.88
L 369.86 21.77
L 369.86 37.66
L 376.91 37.66
L 383.95 37.66
L 383.95 21.77
M 401.57 21.77
L 401.57 5.88
L 394.52 5.88
L 387.48 5.88
L 387.48 21.77
L 387.48 37.66
L 394.52 37.66
L 401.57 37.66
L 401.57 21.77
M 436.79 30.60
L 436.79 23.54
L 420.94 23.54
L 405.09 23.54
L 405.09 30.60
L 405.09 37.66
L 420.94 37.66
L 436.79 37.66
L 436.79 30.60
M 454.40 21.77
L 454.40 5.88
L 447.36 5.88
L 440.31 5.88
L 440.31 21.77
L 440.31 37.66
L 447.36 37.66
L 454.40 37.66
L 454.40 21.77
M 472.02 21.77
L 472.02 5.88
L 464.97 5.88
L 457.93 5.88
L 457.93 21.77
L 457.93 37.66
L 464.97 37.66
L 472.02 37.66
L 472.02 21.77
M 507.24 30.60
L 507.24 23.54
L 491.39 23.54
L 475.54 23.54
L 475.54 30.60
L 475.54 37.66
L 491.39 37.66
L 507.24 37.66
L 507.24 30.60
M 524.85 21.77
L 524.85 5.88
L 517.81 5.88
L 510.76 5.88
L 510.76 21.77
L 510.76 37.66
L 517.81 37.66
L 524.85 37.66
L 524.85 21.77
M 542.47 21.77
L 542.47 5.88
L 535.42 5.88
L 528.38 5.88
L 528.38 21.77
L 528.38 37.66
L 535.42 37.66
L 542.47 37.66
L 542.47 21.77
M 577.69 30.60
L 577.69 23.54
L 561.84 23.54
L 545.99 23.54
L 545.99 30.60
L 545.99 37.66
L 561.84 37.66
L 577.69 37.66
L 577.69 30.60
M 587.60 21.43
C 590.55 16.10 592.95 10.97 592.95 10.03
C 592.95 7.77 589.27 5.88 584.82 5.88
L 581.21 5.88
L 581.21 19.03
C 581.21 26.26 581.45 31.93 581.73 31.65
C 582.02 31.35 584.67 26.76 587.60 21.43
M 154.99 12.95
L 154.99 5.88
L 139.14 5.88
L 123.29 5.88
L 123.29 12.95
L 123.29 20.01
L 139.14 20.01
L 154.99 20.01
L 154.99 12.95
M 225.44 12.95
L 225.44 5.88
L 209.59 5.88
L 193.74 5.88
L 193.74 12.95
L 193.74 20.01
L 209.59 20.01
L 225.44 20.01
L 225.44 12.95
M 295.89 12.95
L 295.89 5.88
L 280.04 5.88
L 264.19 5.88
L 264.19 12.95
L 264.19 20.01
L 280.04 20.01
L 295.89 20.01
L 295.89 12.95
M 366.34 12.95
L 366.34 5.88
L 350.49 5.88
L 334.64 5.88
L 334.64 12.95
L 334.64 20.01
L 350.49 20.01
L 366.34 20.01
L 366.34 12.95
M 436.79 12.95
L 436.79 5.88
L 420.94 5.88
L 405.09 5.88
L 405.09 12.95
L 405.09 20.01
L 420.94 20.01
L 436.79 20.01
L 436.79 12.95
M 507.24 12.95
L 507.24 5.88
L 491.39 5.88
L 475.54 5.88
L 475.54 12.95
L 475.54 20.01
L 491.39 20.01
L 507.24 20.01
L 507.24 12.95
M 577.69 12.95
L 577.69 5.88
L 561.84 5.88
L 545.99 5.88
L 545.99 12.95
L 545.99 20.01
L 561.84 20.01
L 577.69 20.01
L 577.69 12.95
M 84.54 12.36
L 84.54 5.88
L 80.43 5.88
C 78.18 5.88 76.32 6.16 76.32 6.48
C 76.32 7.17 83.79 18.77 84.25 18.81
C 84.41 18.82 84.54 15.92 84.54 12.36"/>
<path fill="#000000" stroke="none" d="
M 29.69 111.78
C 22.58 108.92 15.26 91.64 15.26 77.73
C 15.26 63.99 23.50 45.40 35.06 33.02
C 45.02 22.38 48.33 23.31 49.70 37.13
C 50.09 41.05 52.30 50.32 54.62 57.73
C 60.14 75.37 60.60 79.30 58.16 87.79
C 52.71 106.72 41.19 116.42 29.69 111.78
M 40.04 104.45
C 45.59 100.76 51.93 87.95 51.95 80.38
C 51.95 77.16 50.20 69.18 47.85 61.79
C 45.59 54.67 43.37 46.30 42.93 43.18
C 41.93 36.34 40.81 36.48 35.04 44.10
C 26.97 54.76 21.14 69.12 21.14 78.32
C 21.14 85.71 25.42 98.30 29.53 103.00
C 33.76 107.82 34.76 107.95 40.04 104.45"/>
<path fill="#c57a36" stroke="none" d="
M 334.64 165.94
C 334.64 165.21 340.71 164.76 350.49 164.76
C 360.27 164.76 366.34 165.21 366.34 165.94
C 366.34 166.67 360.27 167.12 350.49 167.12
C 340.71 167.12 334.64 166.67 334.64 165.94"/>
<path fill="#c57a36" stroke="none" d="
M 267.71 160.18
C 265.13 159.47 264.73 158.64 264.42 153.24
L 264.07 147.11
L 279.98 147.11
L 295.89 147.11
L 295.89 154.17
L 295.89 161.23
L 283.27 161.11
C 276.33 161.05 269.33 160.63 267.71 160.18"/>
<path fill="#c57a36" stroke="none" d="
M 334.64 154.17
L 334.64 147.11
L 350.49 147.11
L 366.34 147.11
L 366.34 154.17
L 366.34 161.23
L 350.49 161.23
L 334.64 161.23
L 334.64 154.17"/>
<path fill="#c57a36" stroke="none" d="
M 405.09 152.99
L 405.09 147.11
L 420.94 147.11
C 429.66 147.11 436.79 147.54 436.79 148.07
C 436.79 149.76 411.18 158.88 406.43 158.88
C 405.60 158.88 405.09 156.62 405.09 152.99"/>
<path fill="#c57a36" stroke="none" d="
M 222.87 147.49
C 223.71 147.14 224.74 147.18 225.12 147.58
C 225.51 147.97 224.82 148.24 223.59 148.19
C 222.21 148.13 221.93 147.86 222.87 147.49"/>
<path fill="#c57a36" stroke="none" d="
M 228.96 136.52
L 228.96 129.46
L 244.81 129.46
L 260.67 129.46
L 260.67 136.52
L 260.67 143.58
L 244.81 143.58
L 228.96 143.58
L 228.96 136.52"/>
<path fill="#c57a36" stroke="none" d="
M 299.41 136.52
L 299.41 129.46
L 315.26 129.46
L 331.12 129.46
L 331.12 136.52
L 331.12 143.58
L 315.26 143.58
L 299.41 143.58
L 299.41 136.52"/>
<path fill="#c57a36" stroke="none" d="
M 369.86 136.52
L 369.86 129.46
L 385.71 129.46
L 401.57 129.46
L 401.57 136.52
L 401.57 143.58
L 385.71 143.58
L 369.86 143.58
L 369.86 136.52"/>
<path fill="#c57a36" stroke="none" d="
M 440.31 136.52
L 440.31 129.46
L 456.16 129.46
C 476.08 129.46 476.81 130.73 461.24 138.32
C 453.56 142.07 449.00 143.58 445.39 143.58
L 440.31 143.58
L 440.31 136.52"/>
<path fill="#c57a36" stroke="none" d="
M 187.87 130.63
C 186.36 129.66 186.40 129.49 188.16 129.48
C 189.29 129.47 190.22 129.99 190.22 130.63
C 190.22 132.07 190.09 132.07 187.87 130.63"/>
<path fill="#c57a36" stroke="none" d="
M 171.72 119.63
C 167.05 116.19 162.86 113.03 162.43 112.59
C 162.00 112.16 168.07 111.80 175.93 111.80
L 190.22 111.80
L 190.22 118.86
L 190.22 125.93
L 185.23 125.90
C 181.07 125.88 178.81 124.83 171.72 119.63"/>
<path fill="#c57a36" stroke="none" d="
M 228.96 118.86
L 228.96 111.80
L 244.81 111.80
L 260.67 111.80
L 260.67 118.86
L 260.67 125.93
L 244.81 125.93
L 228.96 125.93
L 228.96 118.86"/>
<path fill="#c57a36" stroke="none" d="
M 299.41 118.86
L 299.41 111.80
L 315.26 111.80
L 331.12 111.80
L 331.12 118.86
L 331.12 125.93
L 315.26 125.93
L 299.41 125.93
L 299.41 118.86"/>
<path fill="#c57a36" stroke="none" d="
M 369.86 118.86
L 369.86 111.80
L 385.71 111.80
L 401.57 111.80
L 401.57 118.86
L 401.57 125.93
L 385.71 125.93
L 369.86 125.93
L 369.86 118.86"/>
<path fill="#c57a36" stroke="none" d="
M 440.31 118.86
L 440.31 111.80
L 456.16 111.80
L 472.02 111.80
L 472.02 118.86
L 472.02 125.93
L 456.16 125.93
L 440.31 125.93
L 440.31 118.86"/>
<path fill="#c57a36" stroke="none" d="
M 27.99 121.19
C 22.44 118.25 17.23 111.87 12.89 102.72
C 1.30 78.23 8.36 47.53 30.61 25.73
C 40.85 15.68 59.32 6.07 65.45 7.61
C 66.89 7.98 68.95 9.62 70.03 11.26
C 71.93 14.18 71.88 14.35 67.76 18.59
C 63.01 23.50 57.53 34.39 57.59 38.84
C 57.62 40.46 59.50 47.07 61.76 53.55
C 69.49 75.58 69.89 77.87 67.51 86.64
C 63.89 100.10 50.50 117.71 40.84 121.75
C 35.27 124.08 33.28 123.98 27.99 121.19
M 44.68 109.66
C 50.58 105.91 55.01 98.72 58.16 87.79
C 60.60 79.30 60.14 75.37 54.62 57.73
C 52.30 50.32 50.09 41.05 49.70 37.13
C 48.33 23.31 45.02 22.38 35.06 33.02
C 28.04 40.54 21.37 52.01 17.55 63.14
C 13.06 76.23 15.68 94.93 23.52 105.78
C 29.34 113.84 36.15 115.09 44.68 109.66"/>
<path fill="#c57a36" stroke="none" d="
M 193.74 101.21
L 193.74 94.15
L 209.59 94.15
L 225.44 94.15
L 225.44 101.21
L 225.44 108.27
L 209.59 108.27
L 193.74 108.27
L 193.74 101.21"/>
<path fill="#c57a36" stroke="none" d="
M 264.19 101.21
L 264.19 94.15
L 280.04 94.15
L 295.89 94.15
L 295.89 101.21
L 295.89 108.27
L 280.04 108.27
L 264.19 108.27
L 264.19 101.21"/>
<path fill="#c57a36" stroke="none" d="
M 334.64 101.21
L 334.64 94.15
L 350.49 94.15
L 366.34 94.15
L 366.34 101.21
L 366.34 108.27
L 350.49 108.27
L 334.64 108.27
L 334.64 101.21"/>
<path fill="#c57a36" stroke="none" d="
M 405.09 101.21
L 405.09 94.15
L 420.94 94.15
L 436.79 94.15
L 436.79 101.21
L 436.79 108.27
L 420.94 108.27
L 405.09 108.27
L 405.09 101.21"/>
<path fill="#c57a36" stroke="none" d="
M 475.54 101.21
L 475.54 94.15
L 491.39 94.15
L 507.24 94.15
L 507.24 101.21
L 507.24 108.27
L 491.39 108.27
L 475.54 108.27
L 475.54 101.21"/>
<path fill="#c57a36" stroke="none" d="
M 147.95 100.03
L 141.49 94.22
L 148.24 94.18
L 154.99 94.15
L 154.99 100.03
C 154.99 103.27 154.86 105.91 154.70 105.88
C 154.53 105.86 151.50 103.22 147.95 100.03"/>
<path fill="#c57a36" stroke="none" d="
M 133.76 86.21
C 131.51 83.78 128.68 80.60 127.47 79.14
L 125.27 76.50
L 140.14 76.50
L 154.99 76.50
L 154.99 83.56
L 154.99 90.62
L 146.42 90.62
C 138.04 90.62 137.77 90.52 133.76 86.21"/>
<path fill="#c57a36" stroke="none" d="
M 193.74 83.56
L 193.74 76.50
L 209.59 76.50
L 225.44 76.50
L 225.44 83.56
L 225.44 90.62
L 209.59 90.62
L 193.74 90.62
L 193.74 83.56"/>
<path fill="#c57a36" stroke="none" d="
M 264.19 83.56
L 264.19 76.50
L 280.04 76.50
L 295.89 76.50
L 295.89 83.56
L 295.89 90.62
L 280.04 90.62
L 264.19 90.62
L 264.19 83.56"/>
<path fill="#c57a36" stroke="none" d="
M 334.64 83.56
L 334.64 76.50
L 350.49 76.50
L 366.34 76.50
L 366.34 83.56
L 366.34 90.62
L 350.49 90.62
L 334.64 90.62
L 334.64 83.56"/>
<path fill="#c57a36" stroke="none" d="
M 405.09 83.56
L 405.09 76.50
L 420.94 76.50
L 436.79 76.50
L 436.79 83.56
L 436.79 90.62
L 420.94 90.62
L 405.09 90.62
L 405.09 83.56"/>
<path fill="#c57a36" stroke="none" d="
M 475.54 83.56
L 475.54 76.50
L 491.39 76.50
L 507.24 76.50
L 507.24 83.56
L 507.24 90.62
L 491.39 90.62
L 475.54 90.62
L 475.54 83.56"/>
<path fill="#c57a36" stroke="none" d="
M 158.51 65.90
L 158.51 58.84
L 174.36 58.84
L 190.22 58.84
L 190.22 65.90
L 190.22 72.97
L 174.36 72.97
L 158.51 72.97
L 158.51 65.90"/>
<path fill="#c57a36" stroke="none" d="
M 228.96 65.90
L 228.96 58.84
L 244.81 58.84
L 260.67 58.84
L 260.67 65.90
L 260.67 72.97
L 244.81 72.97
L 228.96 72.97
L 228.96 65.90"/>
<path fill="#c57a36" stroke="none" d="
M 299.41 65.90
L 299.41 58.84
L 315.26 58.84
L 331.12 58.84
L 331.12 65.90
L 331.12 72.97
L 315.26 72.97
L 299.41 72.97
L 299.41 65.90"/>
<path fill="#c57a36" stroke="none" d="
M 369.86 65.90
L 369.86 58.84
L 385.71 58.84
L 401.57 58.84
L 401.57 65.90
L 401.57 72.97
L 385.71 72.97
L 369.86 72.97
L 369.86 65.90"/>
<path fill="#c57a36" stroke="none" d="
M 440.31 65.90
L 440.31 58.84
L 456.16 58.84
L 472.02 58.84
L 472.02 65.90
L 472.02 72.97
L 456.16 72.97
L 440.31 72.97
L 440.31 65.90"/>
<path fill="#c57a36" stroke="none" d="
M 510.76 65.90
L 510.76 58.84
L 526.61 58.84
L 542.47 58.84
L 542.47 65.90
L 542.47 72.97
L 526.61 72.97
L 510.76 72.97
L 510.76 65.90"/>
<path fill="#c57a36" stroke="none" d="
M 115.37 64.89
L 111.56 59.43
L 115.19 59.06
C 117.18 58.84 119.06 58.93 119.37 59.22
C 119.66 59.53 119.74 62.15 119.54 65.06
L 119.18 70.34
L 115.37 64.89"/>
<path fill="#c57a36" stroke="none" d="
M 104.34 49.72
C 97.59 40.67 97.29 41.19 109.13 41.19
L 119.77 41.19
L 119.77 48.25
L 119.77 55.31
L 114.14 55.31
C 108.79 55.31 108.29 55.03 104.34 49.72"/>
<path fill="#c57a36" stroke="none" d="
M 158.51 48.25
L 158.51 41.19
L 174.36 41.19
L 190.22 41.19
L 190.22 48.25
L 190.22 55.31
L 174.36 55.31
L 158.51 55.31
L 158.51 48.25"/>
<path fill="#c57a36" stroke="none" d="
M 228.96 48.25
L 228.96 41.19
L 244.81 41.19
L 260.67 41.19
L 260.67 48.25
L 260.67 55.31
L 244.81 55.31
L 228.96 55.31
L 228.96 48.25"/>
<path fill="#c57a36" stroke="none" d="
M 299.41 48.25
L 299.41 41.19
L 315.26 41.19
L 331.12 41.19
L 331.12 48.25
L 331.12 55.31
L 315.26 55.31
L 299.41 55.31
L 299.41 48.25"/>
<path fill="#c57a36" stroke="none" d="
M 369.86 48.25
L 369.86 41.19
L 385.71 41.19
L 401.57 41.19
L 401.57 48.25
L 401.57 55.31
L 385.71 55.31
L 369.86 55.31
L 369.86 48.25"/>
<path fill="#c57a36" stroke="none" d="
M 440.31 48.25
L 440.31 41.19
L 456.16 41.19
L 472.02 41.19
L 472.02 48.25
L 472.02 55.31
L 456.16 55.31
L 440.31 55.31
L 440.31 48.25"/>
<path fill="#c57a36" stroke="none" d="
M 510.76 48.25
L 510.76 41.19
L 526.61 41.19
L 542.47 41.19
L 542.47 48.25
L 542.47 55.31
L 526.61 55.31
L 510.76 55.31
L 510.76 48.25"/>
<path fill="#c57a36" stroke="none" d="
M 123.29 30.60
L 123.29 23.54
L 139.14 23.54
L 154.99 23.54
L 154.99 30.60
L 154.99 37.66
L 139.14 37.66
L 123.29 37.66
L 123.29 30.60"/>
<path fill="#c57a36" stroke="none" d="
M 193.74 30.60
L 193.74 23.54
L 209.59 23.54
L 225.44 23.54
L 225.44 30.60
L 225.44 37.66
L 209.59 37.66
L 193.74 37.66
L 193.74 30.60"/>
<path fill="#c57a36" stroke="none" d="
M 264.19 30.60
L 264.19 23.54
L 280.04 23.54
L 295.89 23.54
L 295.89 30.60
L 295.89 37.66
L 280.04 37.66
L 264.19 37.66
L 264.19 30.60"/>
<path fill="#c57a36" stroke="none" d="
M 334.64 30.60
L 334.64 23.54
L 350.49 23.54
L 366.34 23.54
L 366.34 30.60
L 366.34 37.66
L 350.49 37.66
L 334.64 37.66
L 334.64 30.60"/>
<path fill="#c57a36" stroke="none" d="
M 405.09 30.60
L 405.09 23.54
L 420.94 23.54
L 436.79 23.54
L 436.79 30.60
L 436.79 37.66
L 420.94 37.66
L 405.09 37.66
L 405.09 30.60"/>
<path fill="#c57a36" stroke="none" d="
M 475.54 30.60
L 475.54 23.54
L 491.39 23.54
L 507.24 23.54
L 507.24 30.60
L 507.24 37.66
L 491.39 37.66
L 475.54 37.66
L 475.54 30.60"/>
<path fill="#c57a36" stroke="none" d="
M 545.99 30.60
L 545.99 23.54
L 561.84 23.54
L 577.69 23.54
L 577.69 30.60
L 577.69 37.66
L 561.84 37.66
L 545.99 37.66
L 545.99 30.60"/>
<path fill="#c57a36" stroke="none" d="
M 123.29 12.95
L 123.29 5.88
L 139.14 5.88
L 154.99 5.88
L 154.99 12.95
L 154.99 20.01
L 139.14 20.01
L 123.29 20.01
L 123.29 12.95"/>
<path fill="#c57a36" stroke="none" d="
M 193.74 12.95
L 193.74 5.88
L 209.59 5.88
L 225.44 5.88
L 225.44 12.95
L 225.44 20.01
L 209.59 20.01
L 193.74 20.01
L 193.74 12.95"/>
<path fill="#c57a36" stroke="none" d="
M 264.19 12.95
L 264.19 5.88
L 280.04 5.88
L 295.89 5.88
L 295.89 12.95
L 295.89 20.01
L 280.04 20.01
L 264.19 20.01
L 264.19 12.95"/>
<path fill="#c57a36" stroke="none" d="
M 334.64 12.95
L 334.64 5.88
L 350.49 5.88
L 366.34 5.88
L 366.34 12.95
L 366.34 20.01
L 350.49 20.01
L 334.64 20.01
L 334.64 12.95"/>
<path fill="#c57a36" stroke="none" d="
M 405.09 12.95
L 405.09 5.88
L 420.94 5.88
L 436.79 5.88
L 436.79 12.95
L 436.79 20.01
L 420.94 20.01
L 405.09 20.01
L 405.09 12.95"/>
<path fill="#c57a36" stroke="none" d="
M 475.54 12.95
L 475.54 5.88
L 491.39 5.88
L 507.24 5.88
L 507.24 12.95
L 507.24 20.01
L 491.39 20.01
L 475.54 20.01
L 475.54 12.95"/>
<path fill="#c57a36" stroke="none" d="
M 545.99 12.95
L 545.99 5.88
L 561.84 5.88
L 577.69 5.88
L 577.69 12.95
L 577.69 20.01
L 561.84 20.01
L 545.99 20.01
L 545.99 12.95"/>
<path fill="#c57a36" stroke="none" d="
M 80.21 13.05
C 78.15 9.89 76.79 6.99 77.18 6.59
C 77.57 6.20 79.39 5.88 81.22 5.88
C 84.46 5.88 84.54 6.04 84.54 12.36
C 84.54 15.92 84.41 18.82 84.25 18.81
C 84.08 18.79 82.27 16.21 80.21 13.05"/>
<path fill="#f1b053" stroke="none" d="
M 317.03 157.11
L 317.03 147.11
L 324.07 147.11
L 331.12 147.11
L 331.12 157.11
L 331.12 167.12
L 324.07 167.12
L 317.03 167.12
L 317.03 157.11"/>
<path fill="#f1b053" stroke="none" d="
M 303.23 165.09
L 299.41 164.61
L 299.41 155.86
L 299.41 147.11
L 306.46 147.11
L 313.50 147.11
L 313.50 156.52
L 313.50 165.94
L 310.27 165.75
C 308.50 165.64 305.33 165.35 303.23 165.09"/>
<path fill="#f1b053" stroke="none" d="
M 369.86 156.52
L 369.86 147.11
L 376.91 147.11
L 383.95 147.11
L 383.95 155.77
L 383.95 164.44
L 378.50 165.19
C 369.39 166.44 369.86 166.90 369.86 156.52"/>
<path fill="#f1b053" stroke="none" d="
M 387.48 155.31
L 387.48 147.11
L 394.58 147.11
L 401.68 147.11
L 401.33 153.79
C 400.94 161.05 401.21 160.82 391.29 162.77
L 387.48 163.53
L 387.48 155.31"/>
<path fill="#f1b053" stroke="none" d="
M 253.33 156.77
C 246.85 154.96 246.58 154.72 246.58 150.99
L 246.58 147.11
L 253.62 147.11
L 260.67 147.11
L 260.67 152.99
C 260.67 156.23 260.54 158.83 260.37 158.76
C 260.21 158.70 257.04 157.81 253.33 156.77"/>
<path fill="#f1b053" stroke="none" d="
M 233.95 150.83
C 231.21 149.79 228.96 148.53 228.96 148.03
C 228.96 147.52 232.13 147.11 236.01 147.11
C 242.74 147.11 243.05 147.24 243.05 150.05
C 243.05 153.49 241.40 153.63 233.95 150.83"/>
<path fill="#f1b053" stroke="none" d="
M 212.14 142.79
C 211.70 142.37 211.35 135.21 211.35 126.90
L 211.35 111.80
L 218.40 111.80
L 225.44 111.80
L 225.44 127.69
L 225.44 143.58
L 219.18 143.58
C 215.73 143.58 212.56 143.23 212.14 142.79"/>
<path fill="#f1b053" stroke="none" d="
M 264.19 127.69
L 264.19 111.80
L 270.65 111.80
L 277.10 111.80
L 277.10 127.69
L 277.10 143.58
L 270.65 143.58
L 264.19 143.58
L 264.19 127.69"/>
<path fill="#f1b053" stroke="none" d="
M 280.63 127.69
L 280.63 111.80
L 288.26 111.80
L 295.89 111.80
L 295.89 127.69
L 295.89 143.58
L 288.26 143.58
L 280.63 143.58
L 280.63 127.69"/>
<path fill="#f1b053" stroke="none" d="
M 334.64 127.69
L 334.64 111.80
L 341.68 111.80
L 348.73 111.80
L 348.73 127.69
L 348.73 143.58
L 341.68 143.58
L 334.64 143.58
L 334.64 127.69"/>
<path fill="#f1b053" stroke="none" d="
M 352.25 127.69
L 352.25 111.80
L 359.30 111.80
L 366.34 111.80
L 366.34 127.69
L 366.34 143.58
L 359.30 143.58
L 352.25 143.58
L 352.25 127.69"/>
<path fill="#f1b053" stroke="none" d="
M 405.09 127.69
L 405.09 111.80
L 412.13 111.80
L 419.18 111.80
L 419.18 127.69
L 419.18 143.58
L 412.13 143.58
L 405.09 143.58
L 405.09 127.69"/>
<path fill="#f1b053" stroke="none" d="
M 422.70 127.69
L 422.70 111.80
L 429.75 111.80
L 436.79 111.80
L 436.79 127.69
L 436.79 143.58
L 429.75 143.58
L 422.70 143.58
L 422.70 127.69"/>
<path fill="#f1b053" stroke="none" d="
M 199.90 136.79
L 193.74 133.68
L 193.74 122.74
L 193.74 111.80
L 200.78 111.80
L 207.83 111.80
L 207.83 125.93
C 207.83 133.69 207.43 140.01 206.95 139.98
C 206.47 139.94 203.30 138.51 199.90 136.79"/>
<path fill="#f1b053" stroke="none" d="
M 475.54 121.29
L 475.54 111.80
L 482.58 111.80
L 489.63 111.80
L 489.63 117.52
L 489.63 123.24
L 482.58 127.01
L 475.54 130.77
L 475.54 121.29"/>
<path fill="#f1b053" stroke="none" d="
M 493.15 115.92
L 493.15 111.80
L 499.68 111.80
C 503.27 111.80 505.91 112.29 505.55 112.87
C 504.86 113.99 494.97 120.04 493.82 120.04
C 493.46 120.04 493.15 118.18 493.15 115.92"/>
<path fill="#f1b053" stroke="none" d="
M 158.51 92.38
L 158.51 76.50
L 165.56 76.50
L 172.60 76.50
L 172.60 92.38
L 172.60 108.27
L 165.56 108.27
L 158.51 108.27
L 158.51 92.38"/>
<path fill="#f1b053" stroke="none" d="
M 176.13 92.38
L 176.13 76.50
L 183.17 76.50
L 190.22 76.50
L 190.22 92.38
L 190.22 108.27
L 183.17 108.27
L 176.13 108.27
L 176.13 92.38"/>
<path fill="#f1b053" stroke="none" d="
M 228.96 92.38
L 228.96 76.50
L 236.01 76.50
L 243.05 76.50
L 243.05 92.38
L 243.05 108.27
L 236.01 108.27
L 228.96 108.27
L 228.96 92.38"/>
<path fill="#f1b053" stroke="none" d="
M 246.58 92.38
L 246.58 76.50
L 253.62 76.50
L 260.67 76.50
L 260.67 92.38
L 260.67 108.27
L 253.62 108.27
L 246.58 108.27
L 246.58 92.38"/>
<path fill="#f1b053" stroke="none" d="
M 299.41 92.38
L 299.41 76.50
L 306.46 76.50
L 313.50 76.50
L 313.50 92.38
L 313.50 108.27
L 306.46 108.27
L 299.41 108.27
L 299.41 92.38"/>
<path fill="#f1b053" stroke="none" d="
M 317.03 92.38
L 317.03 76.50
L 324.07 76.50
L 331.12 76.50
L 331.12 92.38
L 331.12 108.27
L 324.07 108.27
L 317.03 108.27
L 317.03 92.38"/>
<path fill="#f1b053" stroke="none" d="
M 369.86 92.38
L 369.86 76.50
L 376.91 76.50
L 383.95 76.50
L 383.95 92.38
L 383.95 108.27
L 376.91 108.27
L 369.86 108.27
L 369.86 92.38"/>
<path fill="#f1b053" stroke="none" d="
M 387.48 92.38
L 387.48 76.50
L 394.52 76.50
L 401.57 76.50
L 401.57 92.38
L 401.57 108.27
L 394.52 108.27
L 387.48 108.27
L 387.48 92.38"/>
<path fill="#f1b053" stroke="none" d="
M 440.31 92.38
L 440.31 76.50
L 447.36 76.50
L 454.40 76.50
L 454.40 92.38
L 454.40 108.27
L 447.36 108.27
L 440.31 108.27
L 440.31 92.38"/>
<path fill="#f1b053" stroke="none" d="
M 457.93 92.38
L 457.93 76.50
L 464.97 76.50
L 472.02 76.50
L 472.02 92.38
L 472.02 108.27
L 464.97 108.27
L 457.93 108.27
L 457.93 92.38"/>
<path fill="#f1b053" stroke="none" d="
M 510.76 92.38
L 510.76 76.50
L 517.81 76.50
L 524.85 76.50
L 524.85 87.47
L 524.85 98.45
L 518.83 103.35
C 515.51 106.06 512.34 108.27 511.78 108.27
C 511.22 108.27 510.76 101.12 510.76 92.38"/>
<path fill="#f1b053" stroke="none" d="
M 528.38 85.58
L 528.38 76.50
L 535.42 76.50
C 541.40 76.50 542.47 76.81 542.47 78.59
C 542.47 79.74 539.30 83.83 535.42 87.68
L 528.38 94.67
L 528.38 85.58"/>
<path fill="#f1b053" stroke="none" d="
M 123.29 57.08
L 123.29 41.19
L 130.33 41.19
L 137.38 41.19
L 137.38 57.08
L 137.38 72.97
L 130.33 72.97
L 123.29 72.97
L 123.29 57.08"/>
<path fill="#f1b053" stroke="none" d="
M 140.90 57.08
L 140.90 41.19
L 147.95 41.19
L 154.99 41.19
L 154.99 57.08
L 154.99 72.97
L 147.95 72.97
L 140.90 72.97
L 140.90 57.08"/>
<path fill="#f1b053" stroke="none" d="
M 193.74 57.08
L 193.74 41.19
L 200.78 41.19
L 207.83 41.19
L 207.83 57.08
L 207.83 72.97
L 200.78 72.97
L 193.74 72.97
L 193.74 57.08"/>
<path fill="#f1b053" stroke="none" d="
M 211.35 57.08
L 211.35 41.19
L 218.40 41.19
L 225.44 41.19
L 225.44 57.08
L 225.44 72.97
L 218.40 72.97
L 211.35 72.97
L 211.35 57.08"/>
<path fill="#f1b053" stroke="none" d="
M 264.19 57.08
L 264.19 41.19
L 270.65 41.19
L 277.10 41.19
L 277.10 57.08
L 277.10 72.97
L 270.65 72.97
L 264.19 72.97
L 264.19 57.08"/>
<path fill="#f1b053" stroke="none" d="
M 280.63 57.08
L 280.63 41.19
L 288.26 41.19
L 295.89 41.19
L 295.89 57.08
L 295.89 72.97
L 288.26 72.97
L 280.63 72.97
L 280.63 57.08"/>
<path fill="#f1b053" stroke="none" d="
M 334.64 57.08
L 334.64 41.19
L 341.68 41.19
L 348.73 41.19
L 348.73 57.08
L 348.73 72.97
L 341.68 72.97
L 334.64 72.97
L 334.64 57.08"/>
<path fill="#f1b053" stroke="none" d="
M 352.25 57.08
L 352.25 41.19
L 359.30 41.19
L 366.34 41.19
L 366.34 57.08
L 366.34 72.97
L 359.30 72.97
L 352.25 72.97
L 352.25 57.08"/>
<path fill="#f1b053" stroke="none" d="
M 405.09 57.08
L 405.09 41.19
L 412.13 41.19
L 419.18 41.19
L 419.18 57.08
L 419.18 72.97
L 412.13 72.97
L 405.09 72.97
L 405.09 57.08"/>
<path fill="#f1b053" stroke="none" d="
M 422.70 57.08
L 422.70 41.19
L 429.75 41.19
L 436.79 41.19
L 436.79 57.08
L 436.79 72.97
L 429.75 72.97
L 422.70 72.97
L 422.70 57.08"/>
<path fill="#f1b053" stroke="none" d="
M 475.54 57.08
L 475.54 41.19
L 482.58 41.19
L 489.63 41.19
L 489.63 57.08
L 489.63 72.97
L 482.58 72.97
L 475.54 72.97
L 475.54 57.08"/>
<path fill="#f1b053" stroke="none" d="
M 493.15 57.08
L 493.15 41.19
L 500.20 41.19
L 507.24 41.19
L 507.24 57.08
L 507.24 72.97
L 500.20 72.97
L 493.15 72.97
L 493.15 57.08"/>
<path fill="#f1b053" stroke="none" d="
M 545.99 57.08
L 545.99 41.19
L 553.03 41.19
L 560.08 41.19
L 560.07 51.49
L 560.07 61.79
L 555.29 67.38
C 552.66 70.45 549.49 72.97 548.24 72.97
C 546.13 72.97 545.99 71.97 545.99 57.08"/>
<path fill="#f1b053" stroke="none" d="
M 563.60 49.66
L 563.60 41.19
L 569.54 41.19
C 573.96 41.19 575.26 41.57 574.64 42.66
C 573.55 44.56 565.83 55.56 564.58 57.02
C 564.04 57.63 563.60 54.32 563.60 49.66"/>
<path fill="#f1b053" stroke="none" d="
M 91.78 31.34
C 88.20 25.42 87.98 24.43 88.31 15.75
L 88.65 6.47
L 95.40 6.12
L 102.15 5.77
L 102.15 21.71
L 102.15 37.66
L 98.88 37.66
C 96.18 37.66 94.93 36.55 91.78 31.34"/>
<path fill="#f1b053" stroke="none" d="
M 105.68 21.77
L 105.68 5.88
L 112.72 5.88
L 119.77 5.88
L 119.77 21.77
L 119.77 37.66
L 112.72 37.66
L 105.68 37.66
L 105.68 21.77"/>
<path fill="#f1b053" stroke="none" d="
M 158.51 21.77
L 158.51 5.88
L 165.56 5.88
L 172.60 5.88
L 172.60 21.77
L 172.60 37.66
L 165.56 37.66
L 158.51 37.66
L 158.51 21.77"/>
<path fill="#f1b053" stroke="none" d="
M 176.13 21.77
L 176.13 5.88
L 183.17 5.88
L 190.22 5.88
L 190.22 21.77
L 190.22 37.66
L 183.17 37.66
L 176.13 37.66
L 176.13 21.77"/>
<path fill="#f1b053" stroke="none" d="
M 228.96 21.77
L 228.96 5.88
L 236.01 5.88
L 243.05 5.88
L 243.05 21.77
L 243.05 37.66
L 236.01 37.66
L 228.96 37.66
L 228.96 21.77"/>
<path fill="#f1b053" stroke="none" d="
M 246.58 21.77
L 246.58 5.88
L 253.62 5.88
L 260.67 5.88
L 260.67 21.77
L 260.67 37.66
L 253.62 37.66
L 246.58 37.66
L 246.58 21.77"/>
<path fill="#f1b053" stroke="none" d="
M 299.41 21.77
L 299.41 5.88
L 306.46 5.88
L 313.50 5.88
L 313.50 21.77
L 313.50 37.66
L 306.46 37.66
L 299.41 37.66
L 299.41 21.77"/>
<path fill="#f1b053" stroke="none" d="
M 317.03 21.77
L 317.03 5.88
L 324.07 5.88
L 331.12 5.88
L 331.12 21.77
L 331.12 37.66
L 324.07 37.66
L 317.03 37.66
L 317.03 21.77"/>
<path fill="#f1b053" stroke="none" d="
M 369.86 21.77
L 369.86 5.88
L 376.91 5.88
L 383.95 5.88
L 383.95 21.77
L 383.95 37.66
L 376.91 37.66
L 369.86 37.66
L 369.86 21.77"/>
<path fill="#f1b053" stroke="none" d="
M 387.48 21.77
L 387.48 5.88
L 394.52 5.88
L 401.57 5.88
L 401.57 21.77
L 401.57 37.66
L 394.52 37.66
L 387.48 37.66
L 387.48 21.77"/>
<path fill="#f1b053" stroke="none" d="
M 440.31 21.77
L 440.31 5.88
L 447.36 5.88
L 454.40 5.88
L 454.40 21.77
L 454.40 37.66
L 447.36 37.66
L 440.31 37.66
L 440.31 21.77"/>
<path fill="#f1b053" stroke="none" d="
M 457.93 21.77
L 457.93 5.88
L 464.97 5.88
L 472.02 5.88
L 472.02 21.77
L 472.02 37.66
L 464.97 37.66
L 457.93 37.66
L 457.93 21.77"/>
<path fill="#f1b053" stroke="none" d="
M 510.76 21.77
L 510.76 5.88
L 517.81 5.88
L 524.85 5.88
L 524.85 21.77
L 524.85 37.66
L 517.81 37.66
L 510.76 37.66
L 510.76 21.77"/>
<path fill="#f1b053" stroke="none" d="
M 528.38 21.77
L 528.38 5.88
L 535.42 5.88
L 542.47 5.88
L 542.47 21.77
L 542.47 37.66
L 535.42 37.66
L 528.38 37.66
L 528.38 21.77"/>
<path fill="#f1b053" stroke="none" d="
M 581.21 19.03
L 581.21 5.88
L 584.82 5.88
C 589.27 5.88 592.95 7.77 592.95 10.03
C 592.95 11.47 583.30 30.08 581.73 31.65
C 581.45 31.93 581.21 26.26 581.21 19.03"/>
</g>
</svg>
