<?xml version="1.0" encoding="UTF-8" standalone="no"?>
<!DOCTYPE svg PUBLIC "-//W3C//DTD SVG 1.1//EN"
"http://www.w3.org/Graphics/SVG/1.1/DTD/svg11.dtd">
<svg width="439px" height="600px"
xmlns="http://www.w3.org/2000/svg" version="1.1">
<g transform="translate(0000, 0000) scale(1.0000, 1.0000)">
<path fill="#000000" stroke="none" d="
M 179.03 593.98
C 166.23 590.60 147.81 583.86 138.13 578.99
C 74.83 547.13 24.92 468.73 5.71 371.02
C -0.54 339.23 -0.49 262.60 5.81 228.98
C 25.51 123.84 86.33 36.93 157.28 12.56
C 164.83 9.97 182.25 5.88 195.93 3.48
C 219.92 -0.71 221.76 -0.71 244.71 3.60
C 257.81 6.05 274.61 10.14 282.01 12.69
C 352.60 36.83 413.54 124.04 433.19 228.98
C 439.64 263.36 439.64 336.64 433.19 371.02
C 420.16 440.55 389.04 503.39 347.03 544.90
C 323.31 568.33 299.45 582.49 268.55 591.48
C 235.88 600.96 208.56 601.74 179.03 593.98
M 246.06 576.73
C 272.40 572.16 288.49 565.89 309.31 552.05
C 337.96 533.04 364.00 501.43 382.81 462.86
C 391.47 445.15 404.66 409.74 404.66 404.28
C 404.66 402.42 350.66 401.63 219.50 401.63
C 88.34 401.63 34.34 402.42 34.34 404.28
C 34.34 409.74 47.53 445.15 56.19 462.86
C 75.00 501.45 101.09 533.09 129.64 551.98
C 150.54 565.81 160.79 570.07 186.39 575.58
C 212.41 581.17 219.77 581.31 246.06 576.73
M 414.16 364.80
C 415.73 355.32 417.71 339.33 418.55 329.29
L 420.09 311.02
L 219.50 311.02
L 18.91 311.02
L 20.45 329.29
C 21.29 339.33 23.27 355.32 24.84 364.80
L 27.69 382.04
L 219.50 382.04
L 411.31 382.04
L 414.16 364.80
M 418.55 270.71
C 417.71 260.67 415.73 244.68 414.16 235.20
L 411.31 217.96
L 219.50 217.96
L 27.69 217.96
L 24.84 235.20
C 23.27 244.68 21.29 260.67 20.45 270.71
L 18.91 288.98
L 219.50 288.98
L 420.09 288.98
L 418.55 270.71
M 404.66 195.72
C 404.66 190.26 391.47 154.85 382.81 137.14
C 364.00 98.57 337.96 66.96 309.31 47.95
C 289.20 34.60 275.47 29.12 244.56 22.14
L 220.58 16.70
L 195.51 22.07
C 181.73 25.00 164.20 29.95 156.54 33.04
C 118.14 48.61 81.47 86.06 57.90 133.81
C 47.90 154.04 34.34 189.70 34.34 195.72
C 34.34 197.58 88.34 198.37 219.50 198.37
C 350.66 198.37 404.66 197.58 404.66 195.72"/>
<path fill="#f8b274" stroke="none" d="
M 186.39 575.58
C 160.79 570.07 150.54 565.81 129.64 551.98
C 101.09 533.09 75.00 501.45 56.19 462.86
C 47.53 445.15 34.34 409.74 34.34 404.28
C 34.34 402.42 88.34 401.63 219.50 401.63
C 350.66 401.63 404.66 402.42 404.66 404.28
C 404.66 409.74 391.47 445.15 382.81 462.86
C 358.09 513.53 320.40 552.10 280.05 567.99
C 265.68 573.62 229.85 580.51 216.12 580.24
C 211.24 580.14 197.84 578.03 186.39 575.58"/>
<path fill="#f8b274" stroke="none" d="
M 34.34 195.72
C 34.34 189.70 47.90 154.04 57.90 133.81
C 81.55 85.93 118.11 48.64 156.81 32.91
C 164.64 29.76 182.37 24.86 196.23 22.04
L 221.44 16.90
L 245.01 22.24
C 275.47 29.12 289.27 34.65 309.31 47.95
C 337.96 66.96 364.00 98.57 382.81 137.14
C 391.47 154.85 404.66 190.26 404.66 195.72
C 404.66 197.58 350.66 198.37 219.50 198.37
C 88.34 198.37 34.34 197.58 34.34 195.72"/>
<path fill="#c57a36" stroke="none" d="
M 24.84 364.80
C 23.27 355.32 21.29 339.33 20.45 329.29
L 18.91 311.02
L 219.50 311.02
L 420.09 311.02
L 418.55 329.29
C 417.71 339.33 415.73 355.32 414.16 364.80
L 411.31 382.04
L 219.50 382.04
L 27.69 382.04
L 24.84 364.80"/>
<path fill="#c57a36" stroke="none" d="
M 20.63 268.78
C 21.56 257.66 23.64 241.96 25.26 233.88
L 28.20 219.18
L 219.75 218.55
L 411.29 217.93
L 414.16 235.18
C 415.73 244.68 417.71 260.67 418.55 270.71
L 420.09 288.98
L 219.52 288.98
L 18.93 288.98
L 20.63 268.78"/>
</g>
</svg>
