<?xml version="1.0" encoding="UTF-8" standalone="no"?>
<!DOCTYPE svg PUBLIC "-//W3C//DTD SVG 1.1//EN"
"http://www.w3.org/Graphics/SVG/1.1/DTD/svg11.dtd">
<svg width="434px" height="600px"
xmlns="http://www.w3.org/2000/svg" version="1.1">
<g transform="translate(0000, 0000) scale(1.0000, 1.0000)">
<path fill="#000000" stroke="none" d="
M 199.74 597.65
C 178.13 594.55 161.47 589.71 145.51 581.92
C 89.90 554.76 48.32 495.95 28.88 416.94
C 22.26 390.06 14.52 343.94 14.52 331.40
C 14.52 316.15 16.62 314.52 36.30 314.52
C 44.74 314.52 51.63 313.92 51.63 313.19
C 51.63 309.90 79.30 263.94 88.70 251.61
C 102.48 233.55 126.20 209.89 145.20 195.24
C 159.50 184.24 197.43 158.06 199.09 158.06
C 200.56 158.06 225.87 141.47 225.86 140.50
C 225.86 139.44 199.17 128.55 165.37 115.81
C 153.84 111.47 114.28 97.74 77.44 85.31
C 40.61 72.87 8.83 61.63 6.78 60.31
C 0.16 56.00 -0.89 51.11 2.84 42.15
C 6.16 34.11 20.30 11.90 26.23 5.32
C 31.56 -0.56 37.17 -0.74 48.93 4.60
C 54.74 7.23 62.81 11.66 66.84 14.45
C 70.89 17.23 93.27 30.44 116.57 43.79
C 175.08 77.34 181.63 81.73 239.51 126.16
C 243.09 128.92 243.25 128.81 255.08 115.13
C 261.64 107.53 269.92 98.00 273.47 93.95
C 280.74 85.68 293.26 79.06 301.70 79.06
C 315.93 79.06 334.41 94.34 339.08 109.97
C 340.88 115.92 340.70 117.21 337.10 123.98
C 334.28 129.34 330.74 132.89 324.63 136.53
C 313.09 143.40 292.36 149.02 278.13 149.11
L 266.66 149.19
L 285.39 166.82
C 350.60 228.23 381.31 269.45 388.83 305.65
L 390.66 314.52
L 409.11 314.52
C 436.07 314.52 436.89 315.95 431.53 354.16
C 427.01 386.50 421.01 420.02 417.08 434.95
C 397.13 510.61 347.91 568.32 285.15 589.66
C 259.42 598.40 226.52 601.48 199.74 597.65
M 257.25 587.68
C 315.35 576.69 365.16 534.97 393.71 473.39
C 406.85 445.08 414.61 413.34 422.95 353.66
C 425.97 332.00 426.22 327.29 424.43 325.15
C 422.50 322.81 403.83 322.61 223.82 322.98
C 39.66 323.35 25.23 323.58 23.64 326.11
C 21.36 329.71 24.20 352.24 31.44 388.18
C 42.85 444.73 60.68 486.94 87.85 521.73
C 130.07 575.79 192.23 599.98 257.25 587.68
M 379.66 305.24
C 373.90 283.06 356.61 256.10 326.45 222.31
C 299.81 192.47 256.67 151.76 245.82 146.23
L 240.75 143.65
L 222.79 154.89
C 212.92 161.06 204.42 166.13 203.87 166.13
C 201.77 166.13 155.27 199.50 142.17 210.42
C 124.71 224.97 103.58 247.35 91.70 263.90
C 83.15 275.81 62.92 310.52 62.92 313.27
C 62.92 313.95 134.73 314.52 222.50 314.52
L 382.07 314.52
L 379.66 305.24
M 303.46 135.63
C 315.38 131.89 323.26 127.08 328.02 120.66
C 330.90 116.76 331.00 115.82 329.02 111.00
C 325.94 103.58 316.84 93.92 309.27 90.06
C 303.15 86.95 302.61 86.94 295.81 89.52
C 288.39 92.35 284.34 96.18 263.11 120.40
C 249.83 135.55 249.36 137.05 257.33 139.26
C 264.29 141.21 292.93 138.95 303.46 135.63
M 225.87 128.29
C 225.87 126.65 175.49 90.10 159.72 80.32
C 150.40 74.55 127.18 60.90 108.10 50.00
C 89.01 39.11 68.50 27.05 62.52 23.19
C 49.24 14.66 39.64 9.68 36.48 9.68
C 32.96 9.68 9.68 45.48 9.68 50.87
C 9.68 52.65 24.38 57.98 95.19 81.95
C 137.33 96.23 183.44 112.58 197.64 118.31
C 223.94 128.90 225.87 129.60 225.87 128.29"/>
<path fill="#f8b274" stroke="none" d="
M 62.92 313.27
C 62.92 310.52 83.15 275.81 91.70 263.90
C 103.58 247.35 124.71 224.97 142.17 210.42
C 155.27 199.50 201.77 166.13 203.87 166.13
C 204.42 166.13 212.92 161.06 222.79 154.89
L 240.75 143.65
L 245.82 146.23
C 256.67 151.76 299.81 192.47 326.45 222.31
C 356.61 256.10 373.90 283.06 379.66 305.24
L 382.07 314.52
L 222.50 314.52
C 134.73 314.52 62.92 313.95 62.92 313.27"/>
<path fill="#f8b274" stroke="none" d="
M 257.33 139.26
C 249.36 137.05 249.83 135.55 263.11 120.40
C 284.34 96.18 288.39 92.35 295.81 89.52
C 302.61 86.94 303.15 86.95 309.27 90.06
C 316.84 93.92 325.94 103.58 329.02 111.00
C 331.00 115.82 330.90 116.76 328.02 120.66
C 319.72 131.85 301.20 138.68 276.70 139.56
C 267.82 139.90 259.11 139.76 257.33 139.26"/>
<path fill="#f8b274" stroke="none" d="
M 197.64 118.31
C 183.44 112.58 137.33 96.23 95.19 81.95
C 53.05 67.68 16.52 54.98 14.04 53.73
C 10.45 51.92 9.74 50.71 10.58 47.90
C 12.91 40.26 31.33 12.69 35.43 10.74
C 38.71 9.18 45.82 12.45 62.52 23.19
C 68.50 27.05 89.01 39.11 108.10 50.00
C 127.18 60.90 150.40 74.55 159.72 80.32
C 175.49 90.10 225.87 126.65 225.87 128.29
C 225.87 129.60 223.94 128.90 197.64 118.31"/>
<path fill="#c57a36" stroke="none" d="
M 208.93 590.06
C 161.37 585.68 119.21 561.89 87.85 521.73
C 56.19 481.19 38.20 433.63 25.78 357.52
C 21.67 332.31 21.67 326.42 25.70 324.26
C 27.81 323.13 93.04 322.58 225.57 322.58
C 403.47 322.58 422.51 322.82 424.45 325.15
C 428.47 330.00 415.12 412.39 405.39 442.74
C 374.14 540.31 296.96 598.18 208.93 590.06"/>
</g>
</svg>
