<?xml version="1.0" encoding="UTF-8" standalone="no"?>
<!DOCTYPE svg PUBLIC "-//W3C//DTD SVG 1.1//EN"
"http://www.w3.org/Graphics/SVG/1.1/DTD/svg11.dtd">
<svg width="705px" height="600px"
xmlns="http://www.w3.org/2000/svg" version="1.1">
<g transform="translate(0000, 0000) scale(1.0000, 1.0000)">
<path fill="#000000" stroke="none" d="
M 320.31 597.39
C 310.14 596.19 292.75 592.94 281.68 590.20
C 160.14 560.09 78.53 465.36 30.68 298.89
C 19.04 258.40 12.09 228.68 5.67 192.05
C -0.98 154.15 -1.48 143.03 3.22 138.34
C 6.39 135.17 8.58 135.12 129.54 135.12
L 252.64 135.12
L 253.38 131.50
C 256.91 114.34 258.55 108.84 262.80 99.73
C 269.86 84.63 288.13 66.74 304.52 58.89
C 334.83 44.36 370.09 44.65 400.59 59.68
C 416.66 67.58 431.34 81.35 438.63 95.31
C 441.27 100.39 443.89 104.56 444.44 104.56
C 444.99 104.56 464.70 85.80 488.24 62.88
C 544.94 7.66 560.64 -2.98 580.06 0.66
C 591.41 2.78 602.42 13.85 604.58 25.27
C 606.90 37.66 604.00 41.86 567.62 78.85
C 548.90 97.90 529.36 118.36 524.23 124.29
L 514.88 135.12
L 606.72 135.12
C 696.42 135.12 698.64 135.20 701.78 138.34
C 706.80 143.36 707.38 138.45 690.40 232.44
C 676.94 306.80 662.02 352.86 633.57 407.89
C 612.21 449.16 588.27 482.01 556.89 513.14
C 506.81 562.81 453.02 589.21 385.16 597.43
C 360.27 600.43 345.71 600.43 320.31 597.39
M 393.16 587.77
C 472.96 576.84 546.99 525.51 601.76 443.16
C 642.07 382.55 666.90 315.92 683.27 224.40
C 686.43 206.70 690.82 182.19 693.02 169.91
C 696.07 152.94 696.58 147.07 695.18 145.38
C 693.62 143.50 640.41 143.16 352.63 143.16
C 89.77 143.16 11.48 143.60 9.98 145.09
C 7.10 147.97 7.52 152.86 13.75 188.54
C 19.67 222.56 30.74 268.54 41.95 305.63
C 62.93 375.09 94.76 438.69 130.97 483.54
C 145.01 500.94 169.86 524.33 188.47 537.68
C 207.38 551.26 243.24 569.28 265.98 576.64
C 309.78 590.83 347.14 594.10 393.16 587.77
M 440.00 128.28
C 433.43 86.48 397.63 57.96 351.70 57.96
C 306.40 57.96 270.60 86.36 264.05 127.48
L 262.85 135.12
L 351.95 135.12
L 441.06 135.12
L 440.00 128.28
M 508.02 128.28
C 511.59 124.52 518.05 117.10 522.34 111.80
C 526.66 106.49 544.48 87.67 561.94 69.97
C 581.95 49.71 594.12 36.16 594.81 33.35
C 597.01 24.45 588.82 13.35 577.36 9.70
C 571.84 7.93 570.44 8.14 562.87 11.86
C 549.76 18.32 527.96 36.87 497.36 67.61
C 481.88 83.18 465.77 98.65 461.57 102.02
C 457.38 105.38 452.55 110.40 450.85 113.18
C 448.14 117.59 447.95 119.31 449.43 126.68
L 451.12 135.12
L 476.31 135.12
L 501.52 135.12
L 508.02 128.28"/>
<path fill="#f9d7cf" stroke="none" d="
M 331.96 590.17
C 295.52 587.13 261.14 577.25 226.15 559.79
C 163.50 528.53 117.85 479.18 79.61 401.34
C 57.24 355.85 44.33 319.01 27.41 252.55
C 19.88 222.97 8.05 161.18 8.05 151.46
C 8.05 149.02 8.92 146.16 9.98 145.09
C 11.48 143.60 89.77 143.16 352.63 143.16
C 640.41 143.16 693.62 143.50 695.18 145.38
C 696.58 147.07 696.07 152.94 693.02 169.91
C 690.82 182.19 686.43 206.70 683.27 224.40
C 676.32 263.21 668.59 295.34 659.79 321.99
C 610.55 470.93 509.32 571.85 393.16 587.77
C 369.03 591.09 351.23 591.80 331.96 590.17"/>
<path fill="#f9d7cf" stroke="none" d="
M 264.05 127.48
C 270.60 86.36 306.40 57.96 351.70 57.96
C 397.63 57.96 433.43 86.48 440.00 128.28
L 441.06 135.12
L 351.95 135.12
L 262.85 135.12
L 264.05 127.48"/>
<path fill="#f9d7cf" stroke="none" d="
M 449.43 126.68
C 447.95 119.31 448.14 117.59 450.85 113.18
C 452.55 110.40 457.38 105.38 461.57 102.02
C 465.77 98.65 481.88 83.20 497.36 67.64
C 533.42 31.45 555.58 13.27 567.96 9.72
C 581.08 5.95 597.93 20.78 594.81 33.35
C 594.12 36.16 581.95 49.71 561.94 69.97
C 544.48 87.67 526.66 106.49 522.34 111.80
C 518.05 117.10 511.59 124.52 508.02 128.28
L 501.52 135.12
L 476.31 135.12
L 451.12 135.12
L 449.43 126.68"/>
</g>
</svg>
