<?xml version="1.0" encoding="UTF-8" standalone="no"?>
<!DOCTYPE svg PUBLIC "-//W3C//DTD SVG 1.1//EN"
"http://www.w3.org/Graphics/SVG/1.1/DTD/svg11.dtd">
<svg width="663px" height="400px"
xmlns="http://www.w3.org/2000/svg" version="1.1">
<g transform="translate(0000, 0000) scale(1.0000, 1.0000)">
<path fill="#000000" stroke="none" d="
M 388.58 398.39
C 362.44 395.45 333.43 387.07 308.80 375.37
C 255.28 349.92 218.28 311.20 189.70 250.71
C 185.10 240.96 179.84 229.84 178.02 225.99
C 172.01 213.31 143.47 187.68 96.97 153.26
C 84.87 144.30 67.85 131.68 59.15 125.22
C 30.01 103.60 7.08 77.25 1.91 59.46
C -0.51 51.18 -0.15 36.65 2.68 27.24
C 5.08 19.29 12.72 9.31 19.78 4.92
C 25.06 1.64 28.17 0.80 36.88 0.30
C 72.27 -1.75 106.20 23.75 126.36 67.51
C 129.27 73.86 135.85 89.87 140.95 103.09
C 160.33 153.31 183.52 207.01 187.92 211.86
C 190.18 214.35 197.39 214.43 423.96 214.43
C 590.72 214.43 658.49 214.86 660.50 215.95
C 664.03 217.83 663.43 222.63 657.36 240.84
C 648.14 268.52 634.43 292.00 613.54 315.82
C 574.10 360.78 512.86 391.67 449.51 398.54
C 433.89 400.25 404.29 400.16 388.58 398.39
M 468.90 385.68
C 521.98 374.87 564.07 352.21 599.73 315.27
C 615.89 298.52 627.90 281.81 637.42 262.83
C 644.68 248.36 652.39 226.65 650.83 225.09
C 650.26 224.52 546.05 224.21 419.26 224.40
L 188.73 224.74
L 195.34 239.46
C 235.02 328.03 300.88 377.58 394.77 389.51
C 397.43 389.84 411.35 389.90 425.72 389.64
C 446.89 389.25 455.09 388.49 468.90 385.68
M 158.40 172.91
C 153.05 160.56 142.56 134.69 135.06 115.44
C 116.09 66.71 107.25 49.66 93.22 34.85
C 75.14 15.74 43.41 4.56 28.02 11.86
C 11.53 19.68 4.80 45.04 14.36 63.33
C 22.89 79.64 42.97 100.80 66.02 117.72
C 120.94 158.05 139.38 172.27 157.37 188.18
C 162.60 192.81 167.15 196.30 167.50 195.97
C 167.83 195.63 163.74 185.25 158.40 172.91"/>
<path fill="#f9d7cf" stroke="none" d="
M 394.77 389.51
C 312.17 379.01 249.67 338.24 210.52 269.31
C 205.79 260.99 198.96 247.56 195.34 239.46
L 188.73 224.74
L 419.26 224.40
C 546.05 224.21 650.26 224.52 650.83 225.09
C 652.39 226.65 644.68 248.36 637.42 262.83
C 627.90 281.81 615.89 298.52 599.73 315.27
C 564.07 352.21 521.98 374.87 468.90 385.68
C 455.09 388.49 446.89 389.25 425.72 389.64
C 411.35 389.90 397.43 389.84 394.77 389.51"/>
<path fill="#f9d7cf" stroke="none" d="
M 157.37 188.18
C 139.38 172.27 120.94 158.05 66.02 117.72
C 58.83 112.44 47.79 103.12 41.46 97.02
C 13.55 70.05 5.46 52.33 11.83 32.05
C 14.87 22.35 24.37 11.97 31.51 10.54
C 50.19 6.80 76.49 17.17 93.22 34.85
C 107.25 49.66 116.09 66.71 135.06 115.44
C 142.56 134.69 153.05 160.56 158.40 172.91
C 163.74 185.25 167.83 195.63 167.50 195.97
C 167.15 196.30 162.60 192.81 157.37 188.18"/>
</g>
</svg>
