<?xml version="1.0" encoding="UTF-8" standalone="no"?>
<!DOCTYPE svg PUBLIC "-//W3C//DTD SVG 1.1//EN"
"http://www.w3.org/Graphics/SVG/1.1/DTD/svg11.dtd">
<svg width="566px" height="600px"
xmlns="http://www.w3.org/2000/svg" version="1.1">
<g transform="translate(0000, 0000) scale(1.0000, 1.0000)">
<path fill="#000000" stroke="none" d="
M 22.05 596.33
C 18.63 592.92 18.38 590.22 18.38 558.72
C 18.38 527.21 18.63 524.51 22.05 521.10
C 25.54 517.61 28.17 517.43 75.45 517.43
L 125.18 517.43
L 110.72 506.53
C 90.93 491.67 63.56 462.73 49.75 442.09
C 23.94 403.58 10.97 368.84 3.60 318.59
C -0.81 288.40 -0.81 276.73 3.60 246.55
C 13.71 177.58 37.21 129.58 83.50 83.38
C 116.69 50.24 147.90 30.79 191.04 16.39
C 251.80 -3.89 314.20 -3.89 374.96 16.39
C 418.10 30.79 449.31 50.24 482.50 83.38
C 525.04 125.83 549.55 173.03 560.80 234.07
C 571.15 290.33 561.20 358.50 535.07 410.40
C 517.36 445.58 485.84 483.56 455.28 506.53
L 440.82 517.43
L 490.55 517.43
C 537.83 517.43 540.46 517.61 543.95 521.10
C 547.37 524.51 547.62 527.21 547.62 558.72
C 547.62 590.22 547.37 592.92 543.95 596.33
C 540.31 599.96 537.83 600.00 283.00 600.00
C 28.17 600.00 25.69 599.96 22.05 596.33
M 534.89 588.92
C 538.16 587.17 538.44 584.83 538.44 558.88
C 538.44 537.65 537.83 530.22 535.99 528.70
C 534.34 527.34 515.67 526.50 479.67 526.18
C 430.69 525.72 425.64 525.39 423.78 522.48
C 420.79 517.72 423.43 514.62 443.28 499.54
C 476.87 474.04 507.58 437.56 525.61 401.78
C 535.02 383.08 544.90 354.29 549.74 331.47
C 555.34 305.06 555.34 260.07 549.74 233.67
C 537.76 177.17 513.83 132.99 473.31 92.55
C 432.84 52.13 388.87 28.37 331.97 16.18
C 305.46 10.50 260.54 10.50 234.03 16.18
C 177.13 28.37 133.16 52.13 92.69 92.55
C 52.15 133.01 28.15 177.34 16.28 233.67
C 10.73 260.06 10.73 305.08 16.28 331.47
C 28.04 387.23 52.13 432.00 91.79 471.72
C 103.46 483.43 119.96 497.89 128.45 503.83
C 146.15 516.28 148.83 519.45 145.30 523.71
C 143.19 526.24 135.78 526.61 87.44 526.61
C 46.75 526.61 31.39 527.19 29.77 528.81
C 26.68 531.89 26.68 585.54 29.77 588.62
C 32.69 591.54 529.41 591.85 534.89 588.92"/>
<path fill="#000000" stroke="none" d="
M 245.11 490.94
C 197.75 481.10 164.47 464.44 133.49 434.99
C 101.09 404.22 80.23 362.86 71.56 312.24
C 67.24 286.92 67.15 279.19 70.93 253.76
C 78.19 204.97 95.76 166.84 126.01 134.22
C 157.95 99.78 199.17 78.55 251.45 69.61
C 277.63 65.16 288.37 65.16 314.55 69.61
C 366.83 78.55 408.05 99.78 439.99 134.22
C 470.24 166.84 487.81 204.97 495.07 253.76
C 498.89 279.45 498.78 288.68 494.31 313.38
C 483.49 373.43 457.19 418.22 413.44 451.17
C 386.46 471.49 356.64 484.02 317.20 491.61
C 291.86 496.50 270.98 496.31 245.11 490.94
M 306.10 482.44
C 352.89 475.94 399.42 451.93 430.80 418.07
C 470.13 375.67 491.04 316.73 485.47 264.06
C 475.13 166.15 399.42 90.04 300.92 78.50
C 248.95 72.40 187.97 93.83 145.45 133.16
C 100.19 174.99 74.06 241.65 80.54 298.70
C 88.67 370.07 131.41 430.99 195.31 462.33
C 232.57 480.61 270.15 487.43 306.10 482.44"/>
<path fill="#ffbf53" stroke="none" d="
M 29.77 588.62
C 26.68 585.54 26.68 531.89 29.77 528.81
C 31.39 527.19 46.75 526.61 87.44 526.61
C 135.78 526.61 143.19 526.24 145.30 523.71
C 148.83 519.45 146.15 516.28 128.45 503.83
C 119.96 497.89 103.46 483.43 91.79 471.72
C 52.13 432.00 28.04 387.23 16.28 331.47
C 10.73 305.08 10.73 260.06 16.28 233.67
C 28.15 177.34 52.15 133.01 92.69 92.55
C 133.19 52.11 177.33 28.26 234.03 16.22
C 260.71 10.55 305.66 10.53 331.97 16.18
C 388.90 28.39 432.84 52.13 473.31 92.55
C 513.83 132.99 537.76 177.17 549.74 233.67
C 555.34 260.07 555.34 305.06 549.74 331.47
C 544.90 354.29 535.02 383.08 525.61 401.78
C 507.58 437.56 476.87 474.04 443.28 499.54
C 423.43 514.62 420.79 517.72 423.78 522.48
C 425.64 525.39 430.69 525.72 479.67 526.18
C 515.67 526.50 534.34 527.34 535.99 528.70
C 537.83 530.22 538.44 537.65 538.44 558.88
C 538.44 584.83 538.16 587.17 534.89 588.92
C 529.41 591.85 32.69 591.54 29.77 588.62
M 317.20 491.61
C 356.64 484.02 386.46 471.49 413.44 451.17
C 457.19 418.22 483.49 373.43 494.31 313.38
C 498.78 288.68 498.89 279.45 495.07 253.76
C 487.81 204.97 470.24 166.84 439.99 134.22
C 416.87 109.28 383.56 88.26 351.03 78.07
C 332.18 72.17 297.59 66.06 283.00 66.06
C 268.41 66.06 233.82 72.17 214.97 78.07
C 149.62 98.53 97.25 152.31 78.34 218.39
C 73.32 235.94 67.99 268.90 67.99 282.44
C 67.99 295.50 74.39 330.73 80.03 348.66
C 96.42 400.86 133.87 444.97 183.14 470.15
C 202.84 480.20 218.17 485.34 245.11 490.94
C 270.98 496.31 291.86 496.50 317.20 491.61"/>
</g>
</svg>
