<?xml version="1.0" encoding="UTF-8" standalone="no"?>
<!DOCTYPE svg PUBLIC "-//W3C//DTD SVG 1.1//EN"
"http://www.w3.org/Graphics/SVG/1.1/DTD/svg11.dtd">
<svg width="680px" height="450px"
xmlns="http://www.w3.org/2000/svg" version="1.1">
<g transform="translate(0000, 0000) scale(1.0000, 1.0000)">
<path fill="#000000" stroke="none" d="
M 188.65 444.67
C 186.77 441.73 146.12 348.75 98.28 238.03
C 50.44 127.30 8.67 31.52 5.47 25.18
C -1.21 12.01 -0.43 3.67 7.68 1.49
C 10.61 0.71 161.42 0.05 342.80 0.02
C 639.44 0.00 672.92 0.38 676.28 3.72
C 678.32 5.78 680.00 9.40 680.00 11.82
C 680.00 14.21 645.24 96.47 602.78 194.59
C 560.30 292.74 518.60 389.53 510.09 409.74
C 501.59 429.94 493.41 447.23 491.95 448.18
C 490.48 449.15 422.38 449.95 340.64 449.95
L 192.03 450.00
L 188.65 444.67
M 482.78 432.83
C 487.25 427.29 663.20 18.17 661.99 16.18
C 660.38 13.59 21.99 13.59 20.38 16.20
C 19.12 18.21 197.39 427.41 201.87 432.81
C 205.47 437.14 479.29 437.16 482.78 432.83"/>
<path fill="#c57a36" stroke="none" d="
M 201.87 432.81
C 200.49 431.17 158.82 337.17 109.23 223.89
C 43.97 74.87 19.88 17.46 21.96 16.13
C 25.90 13.64 660.45 13.69 661.99 16.18
C 663.20 18.17 487.25 427.29 482.78 432.83
C 479.29 437.16 205.47 437.14 201.87 432.81"/>
</g>
</svg>
