<?xml version="1.0" encoding="UTF-8" standalone="no"?>
<!DOCTYPE svg PUBLIC "-//W3C//DTD SVG 1.1//EN"
"http://www.w3.org/Graphics/SVG/1.1/DTD/svg11.dtd">
<svg width="687px" height="600px"
xmlns="http://www.w3.org/2000/svg" version="1.1">
<g transform="translate(0000, 0000) scale(1.0000, 1.0000)">
<path fill="#000000" stroke="none" d="
M 302.64 598.37
C 223.75 589.63 128.82 563.62 70.23 534.64
C 38.74 519.06 1.79 493.79 0.46 486.92
C 0.00 484.44 16.88 439.07 38.03 386.09
C 59.17 333.11 80.60 277.15 85.66 261.70
C 104.74 203.49 114.52 149.00 110.02 126.03
C 108.67 119.21 106.86 108.15 105.99 101.49
L 104.40 89.36
L 91.66 89.36
C 84.66 89.36 75.54 87.63 71.41 85.48
C 53.66 76.29 46.56 40.85 58.10 18.87
C 68.67 -1.30 48.68 0.00 344.85 0.00
C 603.28 0.00 608.67 0.10 616.69 5.06
C 634.03 15.78 640.08 48.92 628.72 70.80
C 621.88 83.95 612.17 89.36 595.34 89.36
L 582.60 89.36
L 581.01 101.49
C 580.14 108.15 578.33 119.21 576.98 126.03
C 572.48 149.00 582.26 203.49 601.34 261.70
C 606.40 277.15 627.83 333.11 648.97 386.09
C 670.12 439.07 687.00 484.44 686.54 486.92
C 685.21 493.79 648.26 519.06 616.77 534.64
C 568.58 558.46 493.98 581.11 426.50 592.39
C 395.57 597.57 325.80 600.92 302.64 598.37
M 385.64 583.35
C 432.86 579.75 503.60 565.10 552.79 548.73
C 583.95 538.37 633.06 514.21 655.71 498.13
C 665.90 490.90 674.23 484.09 674.23 482.96
C 674.23 481.86 664.40 457.48 652.39 428.78
C 600.45 304.65 572.36 220.21 564.28 163.89
C 561.40 143.80 563.70 105.98 568.58 93.27
C 569.90 89.77 545.90 89.36 343.50 89.36
C 141.10 89.36 117.10 89.77 118.42 93.27
C 123.30 105.98 125.60 143.80 122.72 163.89
C 114.64 220.21 86.55 304.65 34.61 428.78
C 22.60 457.48 12.77 481.86 12.77 482.96
C 12.77 487.38 51.56 512.14 80.45 526.16
C 142.33 556.21 228.60 578.02 310.86 584.43
C 337.68 586.52 345.85 586.39 385.64 583.35
M 610.20 74.14
C 614.78 71.69 618.96 63.19 621.54 51.06
C 623.59 41.59 619.24 25.86 612.71 18.89
L 606.94 12.77
L 343.50 12.77
L 80.06 12.77
L 74.29 18.89
C 67.50 26.14 63.57 41.21 65.66 52.19
C 67.58 62.37 73.12 73.25 77.20 74.89
C 83.44 77.39 605.48 76.67 610.20 74.14"/>
<path fill="#000000" stroke="none" d="
M 287.31 463.56
C 247.96 453.42 240.07 450.54 240.07 446.32
C 240.07 439.30 340.79 178.72 343.50 178.72
C 346.21 178.72 446.93 439.30 446.93 446.32
C 446.93 450.59 438.94 453.47 398.82 463.69
C 353.18 475.28 332.72 475.25 287.31 463.56
M 402.95 450.00
C 417.41 445.81 429.77 441.83 430.46 441.14
C 432.35 439.25 346.41 213.96 343.63 213.55
C 341.84 213.29 265.58 408.97 256.54 437.08
C 255.08 441.55 266.27 445.81 305.19 455.59
C 329.53 461.72 370.57 459.37 402.95 450.00"/>
<path fill="#c55436" stroke="none" d="
M 305.19 455.59
C 266.27 445.81 255.08 441.55 256.54 437.08
C 265.58 408.97 341.84 213.29 343.63 213.55
C 346.41 213.96 432.35 439.25 430.46 441.14
C 429.77 441.83 417.41 445.81 402.95 450.00
C 370.57 459.37 329.53 461.72 305.19 455.59"/>
<path fill="#c55436" stroke="none" d="
M 77.20 74.89
C 73.12 73.25 67.58 62.37 65.66 52.19
C 63.41 40.39 67.86 24.97 75.34 18.51
L 82.01 12.77
L 344.47 12.77
L 606.94 12.77
L 612.71 18.89
C 619.24 25.86 623.59 41.59 621.54 51.06
C 618.96 63.19 614.78 71.69 610.20 74.14
C 605.48 76.67 83.44 77.39 77.20 74.89"/>
<path fill="#c57a36" stroke="none" d="
M 310.86 584.43
C 228.60 578.02 142.33 556.21 80.45 526.16
C 51.56 512.14 12.77 487.38 12.77 482.96
C 12.77 481.86 22.60 457.48 34.61 428.78
C 86.55 304.65 114.64 220.21 122.72 163.89
C 125.45 144.87 124.25 120.05 119.29 93.55
C 118.91 91.40 177.65 90.46 344.42 89.97
C 546.54 89.41 569.93 89.74 568.58 93.27
C 563.70 105.98 561.40 143.80 564.28 163.89
C 572.36 220.21 600.45 304.65 652.39 428.78
C 664.40 457.48 674.23 481.86 674.23 482.96
C 674.23 487.38 635.44 512.14 606.55 526.16
C 537.29 559.81 453.65 579.40 352.44 585.70
C 344.70 586.16 326.01 585.60 310.86 584.43
M 398.82 463.69
C 438.94 453.47 446.93 450.59 446.93 446.32
C 446.93 439.30 346.21 178.72 343.50 178.72
C 340.79 178.72 240.07 439.30 240.07 446.32
C 240.07 450.54 247.96 453.42 287.31 463.56
C 332.72 475.25 353.18 475.28 398.82 463.69"/>
</g>
</svg>
