<?xml version="1.0" encoding="UTF-8" standalone="no"?>
<!DOCTYPE svg PUBLIC "-//W3C//DTD SVG 1.1//EN"
"http://www.w3.org/Graphics/SVG/1.1/DTD/svg11.dtd">
<svg width="179px" height="600px"
xmlns="http://www.w3.org/2000/svg" version="1.1">
<g transform="translate(0000, 0000) scale(1.0000, 1.0000)">
<path fill="#000000" stroke="none" d="
M 7.98 598.46
C 2.83 593.33 8.59 584.59 35.89 556.10
C 51.46 539.86 54.72 535.72 59.10 526.62
C 61.90 520.79 65.69 510.55 67.52 503.85
C 73.09 483.33 71.87 466.29 61.88 425.23
C 57.31 406.42 21.12 240.65 16.21 216.03
C 4.71 158.31 6.97 137.59 27.09 116.18
C 36.80 105.85 44.78 100.69 58.28 96.04
C 64.83 93.78 69.18 91.54 69.73 90.12
C 71.41 85.88 70.85 67.76 68.79 59.87
C 67.69 55.58 65.11 48.44 63.09 43.99
L 59.40 35.90
L 35.79 35.90
C 9.08 35.90 8.76 35.79 3.08 26.15
C -0.85 19.50 -0.66 12.19 3.57 6.53
C 8.50 -0.09 6.84 0.04 90.30 0.01
L 168.35 -0.00
L 171.90 2.78
C 175.95 5.95 179.00 12.33 179.00 17.65
C 179.00 21.90 172.61 32.53 168.87 34.53
C 167.31 35.36 157.08 35.90 142.94 35.90
L 119.60 35.90
L 115.91 43.99
C 113.89 48.44 111.31 55.58 110.21 59.87
C 108.15 67.76 107.59 85.88 109.27 90.12
C 109.82 91.54 114.17 93.78 120.72 96.04
C 134.22 100.69 142.20 105.85 151.91 116.18
C 169.23 134.60 173.02 152.50 167.40 189.10
C 165.98 198.27 163.91 210.38 162.79 216.03
C 157.88 240.65 121.69 406.42 117.12 425.23
C 107.13 466.29 105.91 483.33 111.48 503.85
C 113.31 510.55 117.10 520.79 119.90 526.62
C 124.28 535.72 127.54 539.86 143.11 556.10
C 170.41 584.59 176.17 593.33 171.02 598.46
C 168.79 600.68 10.21 600.68 7.98 598.46
M 158.40 589.73
C 158.40 589.03 151.16 580.94 142.31 571.76
C 124.21 552.96 115.93 541.94 108.40 526.58
C 100.72 510.88 98.64 501.92 98.71 484.62
C 98.76 467.41 101.48 449.06 107.71 423.85
C 113.16 401.76 120.55 368.31 132.64 310.90
C 137.69 286.92 144.94 253.76 148.75 237.18
C 159.64 189.76 162.89 164.33 159.76 150.79
C 154.80 129.38 138.59 112.73 114.39 104.17
C 106.23 101.28 102.87 100.83 89.50 100.83
C 76.13 100.83 72.77 101.28 64.61 104.17
C 51.63 108.76 42.19 114.69 34.11 123.35
C 14.11 144.77 13.46 164.12 30.25 237.18
C 34.06 253.76 41.31 286.92 46.36 310.90
C 58.45 368.31 65.84 401.76 71.29 423.85
C 77.52 449.06 80.24 467.41 80.29 484.62
C 80.36 501.92 78.28 510.88 70.60 526.58
C 63.07 541.94 54.79 552.96 36.69 571.76
C 27.84 580.94 20.60 589.03 20.60 589.73
C 20.60 590.59 44.17 591.03 89.50 591.03
C 134.83 591.03 158.40 590.59 158.40 589.73
M 98.55 81.73
C 97.55 70.56 100.02 55.26 104.66 43.82
L 107.88 35.90
L 89.50 35.90
L 71.12 35.90
L 74.34 43.82
C 78.98 55.26 81.45 70.56 80.45 81.73
L 79.62 91.03
L 89.50 91.03
L 99.38 91.03
L 98.55 81.73
M 166.34 23.53
C 169.73 20.47 169.44 13.49 165.84 10.97
C 163.33 9.22 153.91 8.97 89.50 8.97
C 25.09 8.97 15.67 9.22 13.16 10.97
C 9.70 13.40 9.31 19.86 12.43 23.29
C 14.45 25.51 18.53 25.64 89.28 25.64
C 156.99 25.64 164.20 25.44 166.34 23.53"/>
<path fill="#c55436" stroke="none" d="
M 80.45 81.73
C 81.45 70.56 78.98 55.26 74.34 43.82
L 71.12 35.90
L 89.50 35.90
L 107.88 35.90
L 104.66 43.82
C 100.02 55.26 97.55 70.56 98.55 81.73
L 99.38 91.03
L 89.50 91.03
L 79.62 91.03
L 80.45 81.73"/>
<path fill="#c55436" stroke="none" d="
M 12.34 23.19
C 9.07 19.60 10.07 12.68 14.17 10.63
C 16.64 9.38 34.29 9.01 90.18 8.99
C 171.14 8.97 168.70 8.72 168.70 17.18
C 168.70 26.03 172.33 25.64 89.28 25.64
C 17.42 25.64 14.47 25.55 12.34 23.19"/>
<path fill="#ef907a" stroke="none" d="
M 20.60 589.73
C 20.60 589.03 27.84 580.94 36.69 571.76
C 54.79 552.96 63.07 541.94 70.60 526.58
C 78.28 510.88 80.36 501.92 80.29 484.62
C 80.24 467.41 77.52 449.06 71.29 423.85
C 65.84 401.76 58.45 368.31 46.36 310.90
C 41.31 286.92 34.06 253.76 30.25 237.18
C 19.36 189.76 16.11 164.33 19.24 150.79
C 24.20 129.37 40.47 112.65 64.61 104.21
C 72.71 101.36 76.25 100.88 89.50 100.86
C 102.94 100.82 106.18 101.26 114.39 104.17
C 127.39 108.77 136.83 114.71 144.89 123.35
C 164.89 144.77 165.54 164.12 148.75 237.18
C 144.94 253.76 137.69 286.92 132.64 310.90
C 120.55 368.31 113.16 401.76 107.71 423.85
C 101.48 449.06 98.76 467.41 98.71 484.62
C 98.64 501.92 100.72 510.88 108.40 526.58
C 115.93 541.94 124.21 552.96 142.31 571.76
C 151.16 580.94 158.40 589.03 158.40 589.73
C 158.40 590.59 134.83 591.03 89.50 591.03
C 44.17 591.03 20.60 590.59 20.60 589.73"/>
</g>
</svg>
