<?xml version="1.0" encoding="UTF-8" standalone="no"?>
<!DOCTYPE svg PUBLIC "-//W3C//DTD SVG 1.1//EN"
"http://www.w3.org/Graphics/SVG/1.1/DTD/svg11.dtd">
<svg width="224px" height="600px"
xmlns="http://www.w3.org/2000/svg" version="1.1">
<g transform="translate(0000, 0000) scale(1.0000, 1.0000)">
<path fill="#000000" stroke="none" d="
M 55.36 597.44
C 53.94 596.03 52.78 593.77 52.78 592.44
C 52.78 588.67 62.41 576.79 82.22 556.10
C 97.79 539.86 101.04 535.72 105.42 526.62
C 108.23 520.79 112.01 510.55 113.84 503.85
C 119.42 483.35 118.19 466.35 108.22 425.23
C 96.08 375.23 61.84 214.00 57.21 185.04
C 56.62 181.31 56.00 180.85 49.89 179.54
C 41.12 177.67 32.36 171.95 27.11 164.67
C 24.78 161.44 20.37 151.76 17.29 143.18
C 13.13 131.55 10.79 126.83 8.11 124.72
C -0.17 118.17 0.00 118.50 0.00 108.33
C 0.00 100.42 0.46 98.26 2.57 96.15
C 7.39 91.36 18.73 93.90 26.67 101.56
C 29.70 104.47 31.94 108.92 34.91 117.85
C 37.15 124.60 40.05 131.65 41.36 133.51
C 43.60 136.69 51.98 141.03 55.91 141.03
C 56.89 141.03 59.40 137.38 61.50 132.94
C 65.91 123.53 78.23 109.79 87.64 103.78
C 91.18 101.53 98.82 98.04 104.61 96.04
C 111.15 93.78 115.50 91.54 116.06 90.12
C 117.73 85.88 117.18 67.76 115.12 59.87
C 114.01 55.58 111.43 48.44 109.41 43.99
L 105.73 35.90
L 82.12 35.90
C 55.42 35.90 55.10 35.79 49.42 26.15
C 45.50 19.50 45.69 12.19 49.91 6.53
C 54.84 -0.09 53.18 0.04 136.76 0.01
L 214.95 0.00
L 218.91 3.53
C 226.03 9.87 225.75 23.53 218.32 31.37
L 214.04 35.90
L 189.98 35.90
L 165.90 35.90
L 162.22 43.99
C 160.20 48.44 157.62 55.58 156.52 59.87
C 154.46 67.76 153.90 85.88 155.58 90.12
C 156.13 91.54 160.48 93.78 167.02 96.04
C 180.53 100.69 188.49 105.85 198.20 116.18
C 215.52 134.60 219.31 152.50 213.69 189.10
C 212.27 198.27 210.21 210.38 209.08 216.03
C 204.35 239.85 168.04 406.21 163.42 425.23
C 153.44 466.35 152.22 483.35 157.79 503.85
C 159.62 510.55 163.40 520.79 166.21 526.62
C 170.59 535.72 173.84 539.86 189.41 556.10
C 209.22 576.79 218.85 588.67 218.85 592.44
C 218.85 593.77 217.69 596.03 216.28 597.44
C 213.75 599.95 211.99 600.00 135.82 600.00
C 59.64 600.00 57.88 599.95 55.36 597.44
M 204.69 589.73
C 204.69 589.03 197.45 580.94 188.61 571.76
C 170.51 552.96 162.23 541.94 154.71 526.58
C 147.22 511.27 145.47 503.13 145.47 483.60
C 145.47 465.18 148.12 446.87 154.39 422.15
C 158.99 404.00 166.60 369.53 178.94 310.90
C 183.99 286.92 191.24 253.76 195.05 237.18
C 205.94 189.76 209.18 164.33 206.05 150.79
C 201.10 129.38 184.89 112.73 160.70 104.17
C 152.54 101.28 149.18 100.83 135.82 100.83
C 122.45 100.83 119.09 101.28 110.93 104.17
C 97.95 108.76 88.52 114.69 80.45 123.35
C 60.45 144.77 59.80 164.12 76.58 237.18
C 80.40 253.76 87.64 286.92 92.69 310.90
C 105.04 369.53 112.64 404.00 117.24 422.15
C 123.51 446.87 126.16 465.18 126.16 483.60
C 126.16 503.13 124.41 511.27 116.92 526.58
C 109.40 541.94 101.12 552.96 83.02 571.76
C 74.18 580.94 66.94 589.03 66.94 589.73
C 66.94 590.59 90.50 591.03 135.82 591.03
C 181.13 591.03 204.69 590.59 204.69 589.73
M 55.36 162.92
C 55.36 157.35 55.65 152.00 56.01 151.06
C 56.46 149.90 54.31 148.67 49.11 147.15
C 38.43 144.03 33.66 138.41 28.40 122.68
C 23.65 108.47 21.02 104.62 14.74 102.54
C 8.95 100.64 6.44 102.46 6.44 108.55
C 6.44 111.65 7.44 113.87 9.85 116.09
C 11.71 117.82 13.65 119.23 14.15 119.23
C 15.68 119.23 21.43 131.01 24.49 140.38
C 29.78 156.71 34.98 164.67 43.11 168.90
C 46.68 170.76 52.10 172.71 54.39 172.96
C 54.92 173.03 55.36 168.51 55.36 162.92
M 144.87 81.73
C 143.86 70.56 146.33 55.26 150.97 43.82
L 154.19 35.90
L 135.82 35.90
L 117.45 35.90
L 120.66 43.82
C 125.30 55.26 127.77 70.56 126.77 81.73
L 125.94 91.03
L 135.82 91.03
L 145.69 91.03
L 144.87 81.73
M 212.63 23.53
C 215.57 20.87 215.68 14.44 212.86 11.32
C 210.84 9.10 206.78 8.97 136.55 8.97
C 71.49 8.97 62.01 9.22 59.50 10.97
C 56.04 13.40 55.65 19.86 58.77 23.29
C 60.79 25.51 64.87 25.64 135.60 25.64
C 203.29 25.64 210.50 25.44 212.63 23.53"/>
<path fill="#c55436" stroke="none" d="
M 126.77 81.73
C 127.77 70.56 125.30 55.26 120.66 43.82
L 117.45 35.90
L 135.82 35.90
L 154.19 35.90
L 150.97 43.82
C 146.33 55.26 143.86 70.56 144.87 81.73
L 145.69 91.03
L 135.82 91.03
L 125.94 91.03
L 126.77 81.73"/>
<path fill="#c55436" stroke="none" d="
M 58.68 23.19
C 55.41 19.60 56.41 12.68 60.51 10.63
C 62.98 9.38 80.77 9.01 137.23 8.99
C 206.81 8.97 210.84 9.10 212.86 11.32
C 215.68 14.44 215.57 20.87 212.63 23.53
C 210.50 25.44 203.29 25.64 135.60 25.64
C 63.76 25.64 60.81 25.55 58.68 23.19"/>
<path fill="#ef907a" stroke="none" d="
M 66.94 589.73
C 66.94 589.03 74.18 580.94 83.02 571.76
C 101.12 552.96 109.40 541.94 116.92 526.58
C 124.41 511.27 126.16 503.13 126.16 483.60
C 126.16 465.18 123.51 446.87 117.24 422.15
C 112.64 404.00 105.04 369.53 92.69 310.90
C 87.64 286.92 80.40 253.76 76.58 237.18
C 65.69 189.76 62.45 164.33 65.58 150.79
C 70.53 129.37 86.81 112.65 110.93 104.21
C 119.03 101.36 122.57 100.88 135.82 100.86
C 149.26 100.82 152.49 101.26 160.70 104.17
C 173.69 108.77 183.13 114.71 191.19 123.35
C 211.18 144.77 211.83 164.12 195.05 237.18
C 191.24 253.76 183.99 286.92 178.94 310.90
C 166.60 369.53 158.99 404.00 154.39 422.15
C 148.12 446.87 145.47 465.18 145.47 483.60
C 145.47 503.13 147.22 511.27 154.71 526.58
C 162.23 541.94 170.51 552.96 188.61 571.76
C 197.45 580.94 204.69 589.03 204.69 589.73
C 204.69 590.59 181.13 591.03 135.82 591.03
C 90.50 591.03 66.94 590.59 66.94 589.73"/>
<path fill="#ef907a" stroke="none" d="
M 50.19 171.88
C 37.27 167.96 30.88 160.15 24.49 140.38
C 21.43 131.01 15.68 119.23 14.15 119.23
C 13.65 119.23 11.71 117.82 9.85 116.09
C 7.44 113.87 6.44 111.65 6.44 108.55
C 6.44 102.46 8.95 100.64 14.74 102.54
C 21.02 104.62 23.65 108.47 28.40 122.68
C 33.66 138.41 38.43 144.03 49.11 147.15
C 54.31 148.67 56.46 149.90 56.01 151.06
C 55.65 152.00 55.36 157.35 55.36 162.92
C 55.36 168.51 54.92 173.03 54.39 172.96
C 53.86 172.91 51.97 172.41 50.19 171.88"/>
</g>
</svg>
