<?xml version="1.0" encoding="UTF-8" standalone="no"?>
<!DOCTYPE svg PUBLIC "-//W3C//DTD SVG 1.1//EN"
"http://www.w3.org/Graphics/SVG/1.1/DTD/svg11.dtd">
<svg width="378px" height="600px"
xmlns="http://www.w3.org/2000/svg" version="1.1">
<g transform="translate(0000, 0000) scale(1.0000, 1.0000)">
<path fill="#000000" stroke="none" d="
M 20.93 598.54
C 19.53 597.77 17.68 596.27 16.81 595.16
C 14.75 592.59 14.78 585.91 16.85 583.09
C 17.73 581.87 24.72 577.59 32.38 573.57
C 40.03 569.56 46.30 565.48 46.30 564.53
C 46.30 562.71 42.62 559.75 25.94 548.10
C 13.74 539.58 4.19 530.97 1.79 526.37
C -0.53 521.89 -0.51 510.99 1.83 506.47
C 4.41 501.47 9.83 497.71 29.25 487.37
C 38.62 482.38 46.82 477.80 47.45 477.18
C 49.13 475.54 46.35 472.71 36.19 465.67
C 16.86 452.28 14.42 450.47 9.65 445.89
C 1.52 438.08 -0.94 427.99 2.98 418.61
C 5.28 413.14 10.27 409.53 30.52 398.76
C 39.89 393.77 48.09 389.19 48.72 388.57
C 50.40 386.94 47.62 384.10 37.46 377.06
C 18.80 364.14 15.77 361.90 11.56 357.94
C 4.77 351.54 2.55 347.01 2.54 339.49
C 2.54 327.13 5.51 324.14 31.79 310.15
C 41.16 305.16 49.36 300.58 49.99 299.96
C 51.66 298.33 48.89 295.49 38.73 288.46
C 20.07 275.53 17.04 273.29 12.82 269.33
C 6.24 263.14 3.82 258.35 3.81 251.54
C 3.81 238.65 6.89 235.47 33.06 221.54
C 42.43 216.56 50.62 211.97 51.26 211.35
C 52.96 209.70 50.07 206.81 39.68 199.81
C 34.60 196.41 29.54 192.22 28.44 190.53
C 26.66 187.84 26.49 182.58 26.94 148.47
C 27.44 111.46 27.63 108.89 30.73 97.35
C 44.43 46.44 73.28 16.52 116.52 8.34
C 122.36 7.23 129.74 6.33 132.93 6.33
C 137.20 6.33 139.53 5.58 141.78 3.48
L 144.81 0.63
L 223.15 0.29
L 301.47 -0.05
L 305.01 2.72
C 308.95 5.80 312.04 12.14 312.04 17.10
C 312.04 21.54 307.75 29.58 303.66 32.80
C 300.51 35.27 298.71 35.44 276.90 35.44
L 253.53 35.44
L 249.90 43.43
C 247.91 47.82 245.37 54.87 244.28 59.11
C 242.25 66.90 241.70 84.80 243.35 88.97
C 243.90 90.38 248.19 92.59 254.63 94.82
C 260.34 96.80 267.86 100.24 271.35 102.47
C 280.62 108.41 292.76 121.96 297.11 131.25
C 299.18 135.65 301.65 139.24 302.62 139.24
C 306.48 139.24 314.74 134.96 316.95 131.82
C 318.24 129.99 321.10 123.03 323.30 116.35
C 326.23 107.54 328.44 103.15 331.42 100.28
C 339.25 92.71 350.42 90.20 355.17 94.94
C 357.25 97.01 357.70 99.15 357.70 106.96
C 357.70 117.00 357.87 116.67 349.71 123.14
C 347.08 125.23 344.77 129.89 340.67 141.37
C 337.64 149.84 333.29 159.39 330.99 162.58
C 325.82 169.77 317.19 175.42 308.55 177.27
C 302.53 178.56 301.92 179.01 301.32 182.70
C 297.81 204.68 291.44 236.01 276.05 306.96
L 257.95 390.51
L 290.17 391.14
C 326.70 391.86 324.36 391.11 327.78 403.05
C 340.68 448.09 378.08 588.05 377.77 590.20
L 377.37 593.04
L 224.58 593.35
C 140.56 593.53 71.33 593.20 70.74 592.62
C 70.17 592.05 79.74 554.87 92.03 510.03
C 104.31 465.18 116.28 420.85 118.63 411.53
C 120.97 402.20 123.53 393.94 124.30 393.18
C 125.21 392.25 136.85 391.56 157.76 391.14
L 189.81 390.51
L 174.84 321.52
C 153.41 222.63 151.15 211.72 147.70 189.87
C 141.51 150.58 144.87 133.42 162.41 114.71
C 171.98 104.51 179.83 99.42 193.14 94.82
C 199.58 92.59 203.87 90.38 204.41 88.97
C 206.06 84.80 205.52 66.90 203.49 59.11
C 202.39 54.87 199.86 47.82 197.87 43.43
L 194.24 35.44
L 170.59 35.44
L 146.95 35.44
L 143.23 31.75
C 141.20 29.71 139.53 27.16 139.53 26.08
C 139.53 23.92 138.48 24.00 122.28 27.34
C 97.24 32.51 73.91 51.00 61.06 75.84
C 48.66 99.81 44.38 119.37 44.42 152.10
C 44.42 164.87 44.85 175.92 45.37 176.67
C 45.88 177.41 49.15 179.94 52.64 182.28
C 68.66 193.06 74.84 201.15 74.84 211.30
C 74.84 221.90 71.02 225.56 46.30 238.62
C 27.46 248.57 24.87 250.42 26.73 252.63
C 27.53 253.59 33.97 258.47 41.05 263.46
C 63.45 279.27 66.70 282.04 70.20 288.46
C 74.04 295.52 74.60 303.20 71.67 308.86
C 69.32 313.38 63.08 317.68 45.03 327.23
C 26.19 337.18 23.61 339.03 25.46 341.24
C 26.26 342.20 32.70 347.08 39.78 352.06
C 62.18 367.87 65.43 370.65 68.93 377.06
C 72.77 384.13 73.33 391.81 70.40 397.47
C 68.05 401.99 61.81 406.29 43.76 415.84
C 24.93 425.78 22.34 427.63 24.19 429.85
C 24.99 430.81 31.43 435.68 38.51 440.67
C 45.59 445.66 54.34 451.99 57.97 454.73
C 69.03 463.08 73.93 476.84 69.13 486.08
C 66.78 490.59 60.54 494.90 42.49 504.44
C 23.66 514.39 21.07 516.24 22.92 518.46
C 23.72 519.42 30.16 524.29 37.24 529.28
C 60.56 545.72 63.13 547.96 66.53 554.78
C 72.29 566.32 70.30 575.42 60.57 582.01
C 51.91 587.90 28.49 600.00 25.86 599.96
C 24.54 599.94 22.32 599.30 20.93 598.54
M 40.36 585.76
C 56.64 576.97 63.42 571.46 63.42 567.03
C 63.42 565.41 62.26 561.68 60.82 558.73
C 58.11 553.14 54.67 550.22 32.03 534.24
C 18.95 525.03 13.95 520.20 13.95 516.82
C 13.95 513.29 21.11 508.03 38.57 498.72
C 57.60 488.58 64.69 483.08 64.69 478.42
C 64.69 476.80 63.52 473.08 62.09 470.13
C 59.38 464.53 55.94 461.61 33.30 445.63
C 20.22 436.42 15.22 431.59 15.22 428.22
C 15.22 424.68 22.38 419.42 39.84 410.11
C 58.87 399.97 65.96 394.47 65.96 389.81
C 65.96 388.19 64.79 384.47 63.36 381.52
C 60.64 375.92 57.21 373.00 34.57 357.03
C 21.49 347.81 16.49 342.99 16.49 339.61
C 16.49 336.08 23.64 330.81 41.11 321.51
C 60.14 311.37 67.23 305.86 67.23 301.20
C 67.23 299.58 66.06 295.86 64.63 292.91
C 61.91 287.32 58.48 284.39 35.83 268.42
C 22.76 259.20 17.76 254.38 17.76 251.00
C 17.76 247.51 24.82 242.22 40.59 233.89
C 67.08 219.89 70.40 216.53 67.23 206.95
C 65.38 201.35 59.67 195.51 49.17 188.44
C 44.80 185.51 40.81 182.49 40.30 181.75
C 39.78 180.99 39.35 167.66 39.35 152.10
C 39.32 128.67 39.77 121.67 41.88 111.29
C 53.01 56.78 84.06 25.06 131.60 19.65
C 139.30 18.76 139.53 18.63 139.53 15.06
C 139.53 11.86 139.06 11.39 135.86 11.39
C 133.85 11.39 127.43 12.29 121.59 13.41
C 78.35 21.58 49.44 51.58 35.82 102.42
C 32.80 113.66 32.52 117.05 32.02 148.46
C 31.38 187.89 30.65 185.25 44.90 194.85
C 59.47 204.66 62.50 209.95 56.76 215.57
C 55.19 217.11 46.30 222.35 36.99 227.22
C 15.87 238.27 10.15 243.18 10.15 250.24
C 10.15 258.28 13.65 262.04 36.00 277.96
C 52.63 289.81 55.14 291.89 57.06 295.30
C 60.40 301.28 57.38 304.27 36.87 315.19
C 14.14 327.32 8.88 331.76 8.88 338.82
C 8.88 346.89 12.37 350.63 34.73 366.57
C 51.36 378.42 53.87 380.49 55.79 383.91
C 59.14 389.89 56.12 392.87 35.61 403.80
C 12.87 415.92 7.61 420.37 7.61 427.43
C 7.61 435.49 11.10 439.24 33.46 455.18
C 50.09 467.03 52.60 469.10 54.52 472.52
C 57.87 478.49 54.85 481.48 34.34 492.41
C 11.61 504.53 6.34 508.97 6.34 516.04
C 6.34 524.10 9.83 527.85 32.19 543.78
C 48.82 555.63 51.33 557.71 53.25 561.13
C 56.47 566.86 53.40 570.27 37.53 578.59
C 23.06 586.19 20.28 588.71 22.88 591.84
C 23.72 592.85 24.71 593.67 25.06 593.67
C 25.42 593.67 32.31 590.11 40.36 585.76
M 142.56 586.34
C 141.61 581.59 148.10 573.10 171.08 549.06
C 186.41 533.03 189.62 528.94 193.93 519.95
C 204.83 497.29 207.66 477.33 203.56 452.11
C 201.98 442.37 194.54 409.37 192.03 400.95
C 191.42 398.92 188.89 398.73 162.44 398.73
C 140.82 398.73 133.16 399.14 132.19 400.32
C 131.13 401.61 79.91 586.57 79.91 589.11
C 79.91 589.53 94.17 589.87 111.59 589.87
L 143.27 589.87
L 142.56 586.34
M 369.12 589.11
C 369.12 586.57 317.90 401.61 316.85 400.32
C 315.87 399.14 308.08 398.73 285.96 398.73
C 258.90 398.73 256.34 398.92 255.73 400.95
C 253.22 409.37 245.79 442.37 244.20 452.11
C 240.11 477.33 242.93 497.29 253.83 519.95
C 258.14 528.94 261.35 533.03 276.69 549.06
C 299.66 573.10 306.15 581.59 305.20 586.34
L 304.49 589.87
L 336.80 589.87
C 354.58 589.87 369.12 589.53 369.12 589.11
M 291.74 582.27
C 291.74 581.57 284.62 573.58 275.90 564.52
C 258.07 545.96 249.91 535.08 242.50 519.91
C 235.12 504.80 233.40 496.76 233.40 477.48
C 233.40 459.29 236.01 441.22 242.19 416.81
C 246.71 398.89 254.21 364.85 266.38 306.96
C 271.35 283.29 278.49 250.54 282.24 234.18
C 292.98 187.35 296.17 162.25 293.09 148.89
C 288.21 127.75 272.24 111.30 248.40 102.85
C 240.36 100.00 237.05 99.56 223.88 99.56
C 210.72 99.56 207.41 100.00 199.36 102.85
C 186.58 107.38 177.28 113.24 169.33 121.78
C 149.63 142.94 148.98 162.04 165.52 234.18
C 169.28 250.54 176.42 283.29 181.39 306.96
C 193.55 364.85 201.05 398.89 205.58 416.81
C 211.76 441.22 214.37 459.29 214.37 477.48
C 214.37 496.76 212.64 504.80 205.26 519.91
C 197.85 535.08 189.70 545.96 171.86 564.52
C 163.15 573.58 156.02 581.57 156.02 582.27
C 156.02 583.11 179.23 583.54 223.88 583.54
C 268.53 583.54 291.74 583.11 291.74 582.27
M 314.58 167.03
C 323.20 162.68 328.23 155.16 333.58 138.61
C 337.63 126.13 341.86 118.81 346.96 115.49
C 350.73 113.05 351.36 111.94 351.36 107.73
C 351.36 101.16 349.04 99.32 343.18 101.24
C 336.99 103.29 334.40 107.10 329.72 121.13
C 324.53 136.66 319.84 142.20 309.31 145.29
C 304.19 146.78 302.07 148.00 302.51 149.15
C 302.87 150.08 303.16 155.37 303.16 160.89
L 303.16 170.94
L 306.65 170.10
C 308.56 169.63 312.13 168.25 314.58 167.03
M 232.80 80.70
C 231.81 69.67 234.25 54.56 238.81 43.27
L 241.98 35.44
L 223.88 35.44
L 205.78 35.44
L 208.95 43.27
C 213.52 54.56 215.95 69.67 214.97 80.70
L 214.15 89.87
L 223.88 89.87
L 233.61 89.87
L 232.80 80.70
M 299.36 22.78
C 300.75 21.39 301.89 18.82 301.89 17.09
C 301.89 15.34 300.75 12.78 299.36 11.39
C 296.88 8.92 295.13 8.86 223.88 8.86
C 152.63 8.86 150.88 8.92 148.41 11.39
C 147.01 12.78 145.87 15.35 145.87 17.09
C 145.87 18.84 147.01 21.39 148.41 22.78
C 150.88 25.25 152.63 25.32 223.88 25.32
C 295.13 25.32 296.88 25.25 299.36 22.78"/>
<path fill="#c55436" stroke="none" d="
M 214.97 80.70
C 215.95 69.67 213.52 54.56 208.95 43.27
L 205.78 35.44
L 223.88 35.44
L 241.98 35.44
L 238.81 43.27
C 234.25 54.56 231.81 69.67 232.80 80.70
L 233.61 89.87
L 223.88 89.87
L 214.15 89.87
L 214.97 80.70"/>
<path fill="#c55436" stroke="none" d="
M 148.41 22.78
C 145.44 19.82 145.14 15.42 147.67 11.95
C 149.41 9.57 151.90 9.48 223.12 9.15
C 295.59 8.81 296.81 8.85 299.33 11.37
C 302.59 14.62 302.62 19.53 299.36 22.78
C 296.88 25.25 295.13 25.32 223.88 25.32
C 152.63 25.32 150.88 25.25 148.41 22.78"/>
<path fill="#0885ff" stroke="none" d="
M 22.88 591.84
C 20.28 588.71 23.06 586.19 37.53 578.59
C 53.40 570.27 56.47 566.86 53.25 561.13
C 51.33 557.71 48.82 555.63 32.19 543.78
C 9.83 527.85 6.34 524.10 6.34 516.04
C 6.34 508.97 11.61 504.53 34.34 492.41
C 54.85 481.48 57.87 478.49 54.52 472.52
C 52.60 469.10 50.09 467.03 33.46 455.18
C 11.10 439.24 7.61 435.49 7.61 427.43
C 7.61 420.37 12.87 415.92 35.61 403.80
C 56.12 392.87 59.14 389.89 55.79 383.91
C 53.87 380.49 51.36 378.42 34.73 366.57
C 12.37 350.63 8.88 346.89 8.88 338.82
C 8.88 331.76 14.14 327.32 36.87 315.19
C 57.38 304.27 60.40 301.28 57.06 295.30
C 55.14 291.89 52.63 289.81 36.00 277.96
C 13.65 262.04 10.15 258.28 10.15 250.24
C 10.15 243.18 15.87 238.27 36.99 227.22
C 46.30 222.35 55.19 217.11 56.76 215.57
C 62.50 209.95 59.47 204.66 44.90 194.85
C 30.65 185.25 31.38 187.89 32.02 148.46
C 32.52 117.05 32.80 113.66 35.82 102.42
C 49.53 51.23 79.05 20.87 122.47 13.32
C 138.46 10.53 139.53 10.65 139.53 15.06
C 139.53 18.63 139.30 18.76 131.60 19.65
C 84.06 25.06 53.01 56.78 41.88 111.29
C 39.77 121.67 39.32 128.67 39.35 152.10
C 39.35 167.66 39.78 180.99 40.30 181.75
C 40.81 182.49 44.80 185.51 49.17 188.44
C 59.67 195.51 65.38 201.35 67.23 206.95
C 70.40 216.53 67.08 219.89 40.59 233.89
C 24.82 242.22 17.76 247.51 17.76 251.00
C 17.76 254.38 22.76 259.20 35.83 268.42
C 58.48 284.39 61.91 287.32 64.63 292.91
C 66.06 295.86 67.23 299.58 67.23 301.20
C 67.23 305.86 60.14 311.37 41.11 321.51
C 23.64 330.81 16.49 336.08 16.49 339.61
C 16.49 342.99 21.49 347.81 34.57 357.03
C 57.21 373.00 60.64 375.92 63.36 381.52
C 64.79 384.47 65.96 388.19 65.96 389.81
C 65.96 394.47 58.87 399.97 39.84 410.11
C 22.38 419.42 15.22 424.68 15.22 428.22
C 15.22 431.59 20.22 436.42 33.30 445.63
C 55.94 461.61 59.38 464.53 62.09 470.13
C 63.52 473.08 64.69 476.80 64.69 478.42
C 64.69 483.08 57.60 488.58 38.57 498.72
C 21.11 508.03 13.95 513.29 13.95 516.82
C 13.95 520.20 18.95 525.03 32.03 534.24
C 54.67 550.22 58.11 553.14 60.82 558.73
C 64.45 566.20 64.12 569.30 59.22 573.90
C 55.74 577.16 27.22 593.67 25.06 593.67
C 24.71 593.67 23.72 592.85 22.88 591.84"/>
<path fill="#ef907a" stroke="none" d="
M 156.02 582.27
C 156.02 581.57 163.15 573.58 171.86 564.52
C 189.70 545.96 197.85 535.08 205.26 519.91
C 212.64 504.80 214.37 496.76 214.37 477.48
C 214.37 459.29 211.76 441.22 205.58 416.81
C 201.05 398.89 193.55 364.85 181.39 306.96
C 176.42 283.29 169.28 250.54 165.52 234.18
C 154.79 187.35 151.59 162.25 154.68 148.89
C 159.56 127.73 175.59 111.23 199.36 102.89
C 207.34 100.08 210.83 99.61 223.88 99.58
C 237.13 99.54 240.31 99.97 248.40 102.85
C 261.20 107.39 270.50 113.25 278.44 121.78
C 298.14 142.94 298.78 162.04 282.24 234.18
C 278.49 250.54 271.35 283.29 266.38 306.96
C 254.21 364.85 246.71 398.89 242.19 416.81
C 236.01 441.22 233.40 459.29 233.40 477.48
C 233.40 496.76 235.12 504.80 242.50 519.91
C 249.91 535.08 258.07 545.96 275.90 564.52
C 284.62 573.58 291.74 581.57 291.74 582.27
C 291.74 583.11 268.53 583.54 223.88 583.54
C 179.23 583.54 156.02 583.11 156.02 582.27"/>
<path fill="#ef907a" stroke="none" d="
M 303.16 160.89
C 303.16 155.37 302.87 150.08 302.51 149.15
C 302.07 148.00 304.19 146.78 309.31 145.29
C 319.84 142.20 324.53 136.66 329.72 121.13
C 334.40 107.10 336.99 103.29 343.18 101.24
C 349.04 99.32 351.36 101.16 351.36 107.73
C 351.36 111.94 350.73 113.05 346.96 115.49
C 341.86 118.81 337.63 126.13 333.58 138.61
C 327.10 158.65 320.06 166.89 306.65 170.10
L 303.16 170.94
L 303.16 160.89"/>
<path fill="#c57a36" stroke="none" d="
M 79.91 589.11
C 79.91 588.70 91.37 546.41 105.36 495.13
C 122.00 434.18 131.53 401.35 132.88 400.32
C 134.38 399.16 142.54 398.73 163.15 398.73
C 188.92 398.73 191.42 398.92 192.03 400.95
C 194.54 409.37 201.98 442.37 203.56 452.11
C 207.66 477.33 204.83 497.29 193.93 519.95
C 189.62 528.94 186.41 533.03 171.08 549.06
C 148.10 573.10 141.61 581.59 142.56 586.34
L 143.27 589.87
L 111.59 589.87
C 94.17 589.87 79.91 589.53 79.91 589.11"/>
<path fill="#c57a36" stroke="none" d="
M 305.20 586.34
C 306.15 581.59 299.66 573.10 276.69 549.06
C 261.35 533.03 258.14 528.94 253.83 519.95
C 242.93 497.29 240.11 477.33 244.20 452.11
C 245.79 442.37 253.22 409.37 255.73 400.95
C 256.34 398.92 258.90 398.73 285.96 398.73
C 308.08 398.73 315.87 399.14 316.85 400.32
C 317.90 401.61 369.12 586.57 369.12 589.11
C 369.12 589.53 354.58 589.87 336.80 589.87
L 304.49 589.87
L 305.20 586.34"/>
</g>
</svg>
