<?xml version="1.0" encoding="UTF-8" standalone="no"?>
<!DOCTYPE svg PUBLIC "-//W3C//DTD SVG 1.1//EN"
"http://www.w3.org/Graphics/SVG/1.1/DTD/svg11.dtd">
<svg width="538px" height="600px"
xmlns="http://www.w3.org/2000/svg" version="1.1">
<g transform="translate(0000, 0000) scale(1.0000, 1.0000)">
<path fill="#000000" stroke="none" d="
M 39.15 597.10
C 36.51 594.46 36.25 592.28 36.25 573.19
C 36.25 543.99 32.29 546.38 80.48 546.38
L 118.91 546.38
L 118.91 408.70
L 118.91 271.01
L 89.91 271.01
C 62.83 271.01 60.72 271.20 58.01 273.91
C 55.16 276.75 55.11 278.74 55.11 366.01
L 55.11 455.20
L 51.55 458.77
C 48.09 462.22 47.36 462.32 26.90 462.32
C 7.60 462.32 5.55 462.07 2.84 459.36
C -0.09 456.43 -0.12 455.41 0.33 360.45
C 0.84 253.41 0.55 256.58 11.12 240.97
C 23.67 222.46 45.61 215.94 95.30 215.94
L 118.91 215.94
L 118.91 135.51
L 118.91 55.07
L 80.48 55.07
C 43.98 55.07 41.91 54.93 39.15 52.17
C 36.51 49.54 36.25 47.35 36.25 27.81
C 36.25 11.57 36.75 5.67 38.31 3.54
C 40.33 0.78 44.58 0.72 268.14 0.35
C 494.58 -0.03 495.93 -0.01 498.83 2.88
C 501.49 5.54 501.75 7.70 501.75 27.54
C 501.75 47.35 501.49 49.54 498.85 52.17
C 496.09 54.93 494.02 55.07 457.52 55.07
L 419.09 55.07
L 419.09 135.51
L 419.09 215.94
L 442.70 215.94
C 492.39 215.94 514.33 222.46 526.88 240.97
C 537.45 256.58 537.16 253.41 537.67 360.45
C 538.12 455.41 538.09 456.43 535.16 459.36
C 532.45 462.07 530.40 462.32 511.10 462.32
C 490.64 462.32 489.91 462.22 486.45 458.77
L 482.89 455.20
L 482.89 366.01
C 482.89 278.74 482.84 276.75 479.99 273.91
C 477.28 271.20 475.17 271.01 448.09 271.01
L 419.09 271.01
L 419.09 408.70
L 419.09 546.38
L 457.52 546.38
C 505.71 546.38 501.75 543.99 501.75 573.19
C 501.75 592.28 501.49 594.46 498.85 597.10
C 495.98 599.97 494.02 600.00 269.00 600.00
C 43.98 600.00 42.02 599.97 39.15 597.10
M 491.31 589.57
C 493.68 587.19 493.68 559.19 491.31 556.81
C 488.78 554.29 49.22 554.29 46.69 556.81
C 44.32 559.19 44.32 587.19 46.69 589.57
C 49.22 592.09 488.78 592.09 491.31 589.57
M 165.32 300.72
L 165.32 55.07
L 146.46 55.07
L 127.61 55.07
L 127.61 300.72
L 127.61 546.38
L 146.46 546.38
L 165.32 546.38
L 165.32 300.72
M 240.72 408.70
L 240.72 271.01
L 207.37 271.01
L 174.02 271.01
L 174.02 408.70
L 174.02 546.38
L 207.37 546.38
L 240.72 546.38
L 240.72 408.70
M 288.58 300.72
L 288.58 55.07
L 269.00 55.07
L 249.42 55.07
L 249.42 300.72
L 249.42 546.38
L 269.00 546.38
L 288.58 546.38
L 288.58 300.72
M 363.98 408.70
L 363.98 271.01
L 330.63 271.01
L 297.28 271.01
L 297.28 408.70
L 297.28 546.38
L 330.63 546.38
L 363.98 546.38
L 363.98 408.70
M 410.39 300.72
L 410.39 55.07
L 391.54 55.07
L 372.68 55.07
L 372.68 300.72
L 372.68 546.38
L 391.54 546.38
L 410.39 546.38
L 410.39 300.72
M 44.66 451.88
C 45.98 450.57 46.40 428.48 46.40 361.38
C 46.40 299.41 46.90 271.54 48.01 269.07
C 50.78 262.99 54.74 262.32 87.81 262.32
L 118.91 262.32
L 118.91 243.48
L 118.91 224.64
L 94.62 224.68
C 66.71 224.74 52.42 226.26 39.33 230.62
C 27.19 234.65 17.68 243.71 12.88 255.80
L 9.43 264.49
L 9.01 357.03
C 8.69 425.83 9.01 450.07 10.27 451.59
C 12.49 454.26 42.04 454.51 44.66 451.88
M 527.73 451.59
C 528.99 450.07 529.31 425.83 528.99 357.03
L 528.57 264.49
L 525.12 255.80
C 520.32 243.71 510.81 234.65 498.67 230.62
C 485.58 226.26 471.29 224.74 443.38 224.68
L 419.09 224.64
L 419.09 243.48
L 419.09 262.32
L 450.19 262.32
C 483.26 262.32 487.22 262.99 489.99 269.07
C 491.10 271.54 491.60 299.41 491.60 361.38
C 491.60 428.48 492.02 450.57 493.34 451.88
C 495.96 454.51 525.51 454.26 527.73 451.59
M 240.72 244.20
L 240.72 226.09
L 207.37 226.09
L 174.02 226.09
L 174.02 244.20
L 174.02 262.32
L 207.37 262.32
L 240.72 262.32
L 240.72 244.20
M 363.98 244.20
L 363.98 226.09
L 330.63 226.09
L 297.28 226.09
L 297.28 244.20
L 297.28 262.32
L 330.63 262.32
L 363.98 262.32
L 363.98 244.20
M 240.72 136.23
L 240.72 55.07
L 207.37 55.07
L 174.02 55.07
L 174.02 136.23
L 174.02 217.39
L 207.37 217.39
L 240.72 217.39
L 240.72 136.23
M 363.98 136.23
L 363.98 55.07
L 330.63 55.07
L 297.28 55.07
L 297.28 136.23
L 297.28 217.39
L 330.63 217.39
L 363.98 217.39
L 363.98 136.23
M 491.31 44.64
C 492.44 43.51 493.05 37.55 493.05 27.54
C 493.05 17.52 492.44 11.57 491.31 10.43
C 488.78 7.91 49.22 7.91 46.69 10.43
C 44.30 12.83 44.30 42.25 46.69 44.64
C 49.22 47.16 488.78 47.16 491.31 44.64"/>
<path fill="#c55436" stroke="none" d="
M 46.69 589.57
C 44.32 587.19 44.32 559.19 46.69 556.81
C 49.22 554.29 488.78 554.29 491.31 556.81
C 493.68 559.19 493.68 587.19 491.31 589.57
C 488.78 592.09 49.22 592.09 46.69 589.57"/>
<path fill="#c55436" stroke="none" d="
M 46.69 44.64
C 45.56 43.51 44.95 37.49 44.95 27.30
C 44.95 13.36 45.26 11.54 47.75 10.20
C 52.07 7.88 488.99 8.12 491.31 10.43
C 492.44 11.57 493.05 17.52 493.05 27.54
C 493.05 37.55 492.44 43.51 491.31 44.64
C 488.78 47.16 49.22 47.16 46.69 44.64"/>
<path fill="#ef907a" stroke="none" d="
M 127.97 301.09
L 128.34 55.80
L 146.83 55.39
L 165.32 54.99
L 165.32 300.68
L 165.32 546.38
L 146.46 546.38
L 127.60 546.38
L 127.97 301.09"/>
<path fill="#ef907a" stroke="none" d="
M 249.42 300.72
L 249.42 55.07
L 269.00 55.07
L 288.58 55.07
L 288.58 300.72
L 288.58 546.38
L 269.00 546.38
L 249.42 546.38
L 249.42 300.72"/>
<path fill="#ef907a" stroke="none" d="
M 372.68 300.72
L 372.68 55.07
L 391.54 55.07
L 410.39 55.07
L 410.39 300.72
L 410.39 546.38
L 391.54 546.38
L 372.68 546.38
L 372.68 300.72"/>
<path fill="#c57a36" stroke="none" d="
M 10.27 451.59
C 9.01 450.07 8.69 425.83 9.01 357.03
L 9.43 264.49
L 12.88 255.80
C 15.14 250.12 18.71 244.78 23.20 240.41
C 35.21 228.68 53.74 224.67 96.07 224.65
L 118.91 224.64
L 118.91 243.48
L 118.91 262.32
L 87.81 262.32
C 54.74 262.32 50.78 262.99 48.01 269.07
C 46.90 271.54 46.40 299.41 46.40 361.38
C 46.40 428.48 45.98 450.57 44.66 451.88
C 42.04 454.51 12.49 454.26 10.27 451.59"/>
<path fill="#c57a36" stroke="none" d="
M 493.34 451.88
C 492.02 450.57 491.60 428.48 491.60 361.38
C 491.60 299.41 491.10 271.54 489.99 269.07
C 487.22 262.99 483.26 262.32 450.19 262.32
L 419.09 262.32
L 419.09 243.48
L 419.09 224.64
L 443.38 224.68
C 471.29 224.74 485.58 226.26 498.67 230.62
C 510.81 234.65 520.32 243.71 525.12 255.80
L 528.57 264.49
L 528.99 357.03
C 529.31 425.83 528.99 450.07 527.73 451.59
C 525.51 454.26 495.96 454.51 493.34 451.88"/>
<path fill="#c57a36" stroke="none" d="
M 174.02 244.20
L 174.02 226.09
L 207.37 226.09
L 240.72 226.09
L 240.72 244.20
L 240.72 262.32
L 207.37 262.32
L 174.02 262.32
L 174.02 244.20"/>
<path fill="#c57a36" stroke="none" d="
M 297.28 244.20
L 297.28 226.09
L 330.63 226.09
L 363.98 226.09
L 363.98 244.20
L 363.98 262.32
L 330.63 262.32
L 297.28 262.32
L 297.28 244.20"/>
</g>
</svg>
