<?xml version="1.0" encoding="UTF-8" standalone="no"?>
<!DOCTYPE svg PUBLIC "-//W3C//DTD SVG 1.1//EN"
"http://www.w3.org/Graphics/SVG/1.1/DTD/svg11.dtd">
<svg width="256px" height="600px"
xmlns="http://www.w3.org/2000/svg" version="1.1">
<g transform="translate(0000, 0000) scale(1.0000, 1.0000)">
<path fill="#000000" stroke="none" d="
M 84.40 597.31
C 79.66 593.59 77.62 589.16 73.40 573.29
C 71.38 565.72 65.85 548.54 61.09 535.12
C 56.33 521.69 48.83 499.72 44.43 486.30
L 36.42 461.88
L 20.03 461.24
C 5.72 460.68 3.41 460.28 1.83 458.11
C -0.75 454.59 -0.44 450.12 2.57 447.11
C 4.81 444.87 6.86 444.54 18.16 444.54
L 31.20 444.54
L 30.45 441.01
C 30.05 439.07 28.52 431.99 27.05 425.27
C 25.60 418.55 23.71 405.40 22.86 396.04
L 21.32 379.01
L 13.24 379.01
C 4.13 379.01 0.00 376.41 0.00 370.66
C 0.00 364.75 4.09 362.31 14.02 362.31
L 22.90 362.31
L 25.06 352.60
C 30.78 326.92 44.94 304.70 66.82 287.05
C 72.36 282.59 78.11 277.39 79.60 275.49
C 83.76 270.22 85.20 262.95 84.21 252.30
L 83.32 242.83
L 75.42 242.80
C 57.36 242.74 46.80 231.13 53.34 218.53
C 56.82 211.79 61.53 210.71 87.35 210.71
L 110.63 210.71
L 110.62 139.08
C 110.59 64.36 110.18 57.84 104.81 47.47
C 101.90 41.85 94.69 37.75 81.61 34.25
C 66.11 30.13 62.69 28.20 59.90 22.01
C 57.08 15.76 57.92 11.33 62.88 6.39
C 69.63 -0.36 81.78 -1.68 98.28 2.54
C 124.08 9.12 136.25 21.87 144.32 50.75
C 147.13 60.76 147.21 63.01 147.63 135.87
L 148.07 210.71
L 170.56 210.71
C 194.77 210.71 199.82 211.71 203.73 217.28
C 204.95 219.02 205.83 222.81 205.83 226.32
C 205.83 237.57 198.21 242.80 181.82 242.81
L 173.90 242.83
L 173.00 253.68
C 171.78 268.34 173.98 272.94 187.06 283.00
C 198.14 291.52 215.19 311.23 223.12 324.68
C 228.25 333.39 232.91 346.56 234.74 357.49
L 235.53 362.31
L 243.20 362.31
C 251.84 362.31 256.00 365.02 256.00 370.66
C 256.00 376.11 251.81 379.01 243.92 379.01
C 236.01 379.01 235.42 379.72 235.42 389.07
C 235.42 395.73 231.33 421.64 228.39 433.62
C 225.55 445.23 224.91 444.54 238.63 444.54
C 249.14 444.54 251.21 444.90 253.43 447.11
C 256.72 450.40 256.72 455.38 253.43 458.67
C 251.16 460.93 249.14 461.24 236.27 461.24
L 221.69 461.24
L 216.98 479.25
C 214.40 489.16 209.03 506.07 205.06 516.84
C 190.56 556.18 187.97 563.58 185.19 573.66
C 181.43 587.37 177.10 595.63 172.43 598.05
C 169.28 599.68 161.91 600.00 128.23 600.00
C 89.20 600.00 87.71 599.91 84.40 597.31
M 168.25 591.56
C 172.27 588.76 175.52 581.85 179.48 567.76
C 181.36 561.11 187.75 542.54 193.71 526.48
C 199.67 510.44 204.54 496.72 204.54 496.00
C 204.54 494.89 210.94 470.45 213.05 463.49
C 213.69 461.37 209.11 461.24 129.38 461.24
C 82.99 461.24 45.03 461.68 45.03 462.22
C 45.03 464.00 58.85 506.44 67.45 531.04
C 72.09 544.36 77.08 559.85 78.52 565.49
C 82.77 582.10 85.97 589.52 89.82 591.61
C 95.12 594.48 164.14 594.44 168.25 591.56
M 249.37 454.41
C 253.22 449.77 250.78 449.68 127.90 449.68
C 30.01 449.68 7.77 449.99 6.63 451.37
C 2.78 456.01 5.22 456.10 128.10 456.10
C 225.99 456.10 248.23 455.79 249.37 454.41
M 221.64 428.16
C 225.36 410.69 227.26 398.33 228.06 386.40
L 228.55 379.01
L 129.07 379.01
L 29.59 379.01
L 29.61 385.12
C 29.67 397.35 36.64 438.73 39.47 443.58
C 39.78 444.10 80.11 444.54 129.09 444.54
L 218.14 444.54
L 221.64 428.16
M 249.37 372.18
C 253.22 367.54 250.78 367.45 127.90 367.45
C 30.01 367.45 7.77 367.76 6.63 369.15
C 2.78 373.79 5.22 373.88 128.10 373.88
C 225.99 373.88 248.23 373.57 249.37 372.18
M 226.94 357.49
C 222.44 332.60 205.38 307.72 177.13 284.84
C 167.74 277.23 166.58 274.16 166.71 257.28
L 166.81 242.83
L 128.59 242.83
L 90.37 242.83
L 90.53 257.28
C 90.74 276.17 89.47 278.65 72.68 292.29
C 52.85 308.40 40.69 326.20 34.17 348.69
C 32.35 354.93 30.87 360.54 30.87 361.17
C 30.87 361.82 72.82 362.31 129.35 362.31
L 227.81 362.31
L 226.94 357.49
M 192.36 234.54
C 198.41 232.02 200.50 227.36 197.58 222.91
C 196.39 221.07 193.94 219.03 192.17 218.36
C 187.87 216.73 69.42 216.73 65.12 218.36
C 63.34 219.03 60.94 221.02 59.79 222.77
C 57.08 226.91 58.80 230.33 65.33 233.77
C 69.88 236.16 73.02 236.29 129.00 236.35
C 177.60 236.39 188.68 236.08 192.36 234.54
M 141.17 137.15
C 140.72 67.30 140.56 63.13 138.02 54.32
C 129.87 25.97 115.50 12.17 89.56 7.73
C 80.83 6.24 79.17 6.30 73.97 8.29
C 67.65 10.69 65.00 14.06 66.28 18.06
C 67.51 21.94 71.89 24.22 84.84 27.67
C 98.32 31.27 100.86 32.40 105.92 37.09
C 110.81 41.61 112.50 45.17 114.98 56.15
C 116.77 64.07 117.07 75.70 117.07 138.05
L 117.07 210.71
L 129.35 210.71
L 141.65 210.71
L 141.17 137.15"/>
<path fill="#f3ebec" stroke="none" d="
M 117.07 138.05
C 117.07 75.70 116.77 64.07 114.98 56.15
C 110.59 36.68 105.98 32.94 77.37 25.66
C 71.41 24.15 65.61 19.44 65.61 16.12
C 65.61 12.94 70.19 9.25 76.12 7.64
C 80.52 6.46 83.59 6.57 91.52 8.16
C 116.67 13.19 129.99 26.42 138.02 54.32
C 140.56 63.13 140.72 67.30 141.17 137.15
L 141.65 210.71
L 129.35 210.71
L 117.07 210.71
L 117.07 138.05"/>
<path fill="#c55436" stroke="none" d="
M 65.33 233.77
C 58.53 230.18 56.94 226.72 60.13 222.46
C 61.50 220.63 64.01 218.72 65.72 218.25
C 70.66 216.87 188.51 216.98 192.17 218.36
C 197.21 220.28 200.09 225.49 198.29 229.45
C 195.23 236.17 192.89 236.40 129.00 236.35
C 73.02 236.29 69.88 236.16 65.33 233.77"/>
<path fill="#c57a36" stroke="none" d="
M 89.82 591.61
C 85.97 589.52 82.77 582.10 78.52 565.49
C 77.08 559.85 72.09 544.36 67.45 531.04
C 58.85 506.44 45.03 464.00 45.03 462.22
C 45.03 461.68 82.99 461.24 129.38 461.24
C 209.11 461.24 213.69 461.37 213.05 463.49
C 210.94 470.45 204.54 494.89 204.54 496.00
C 204.54 496.72 199.67 510.44 193.71 526.48
C 187.75 542.54 181.36 561.11 179.48 567.76
C 175.52 581.85 172.27 588.76 168.25 591.56
C 164.14 594.44 95.12 594.48 89.82 591.61"/>
<path fill="#c57a36" stroke="none" d="
M 39.47 443.58
C 36.64 438.73 29.67 397.35 29.61 385.12
L 29.59 379.01
L 129.07 379.01
L 228.55 379.01
L 228.06 386.40
C 227.26 398.33 225.36 410.69 221.64 428.16
L 218.14 444.54
L 129.09 444.54
C 80.11 444.54 39.78 444.10 39.47 443.58"/>
<path fill="#c57a36" stroke="none" d="
M 30.87 361.17
C 30.87 360.54 32.35 354.93 34.17 348.69
C 40.69 326.20 52.85 308.40 72.68 292.29
C 89.33 278.78 90.69 276.14 90.69 257.60
L 90.69 243.47
L 128.76 243.13
L 166.81 242.79
L 166.71 257.27
C 166.58 274.16 167.74 277.23 177.13 284.84
C 188.68 294.21 195.92 301.36 204.14 311.56
C 217.25 327.83 224.06 341.54 226.94 357.49
L 227.81 362.31
L 129.35 362.31
C 72.82 362.31 30.87 361.82 30.87 361.17"/>
<path fill="#f1d3b0" stroke="none" d="
M 6.72 454.59
C 5.61 453.48 5.58 452.62 6.63 451.37
C 7.77 449.99 30.01 449.68 127.90 449.68
C 250.78 449.68 253.22 449.77 249.37 454.41
C 247.42 456.76 9.07 456.94 6.72 454.59"/>
<path fill="#f1d3b0" stroke="none" d="
M 6.51 372.04
C 5.29 370.57 5.49 369.92 7.55 368.83
C 9.33 367.88 47.03 367.45 128.94 367.45
C 250.75 367.45 253.22 367.55 249.37 372.18
C 247.19 374.81 8.71 374.69 6.51 372.04"/>
</g>
</svg>
