<?xml version="1.0" encoding="UTF-8" standalone="no"?>
<!DOCTYPE svg PUBLIC "-//W3C//DTD SVG 1.1//EN"
"http://www.w3.org/Graphics/SVG/1.1/DTD/svg11.dtd">
<svg width="913px" height="300px"
xmlns="http://www.w3.org/2000/svg" version="1.1">
<g transform="translate(0000, 0000) scale(1.0000, 1.0000)">
<path fill="#000000" stroke="none" d="
M 116.20 297.56
C 84.80 291.90 63.25 281.40 42.47 261.65
C 20.36 240.63 8.28 216.84 2.38 182.64
C -0.59 165.44 -0.60 157.49 2.29 139.49
C 8.07 103.63 20.78 79.31 45.59 56.59
L 56.97 46.18
L 53.38 39.44
C 46.46 26.46 49.69 10.03 60.36 3.81
C 65.48 0.84 67.97 0.75 139.59 0.75
C 211.21 0.75 213.70 0.84 218.82 3.81
C 229.49 10.03 232.72 26.46 225.81 39.44
L 222.21 46.18
L 233.59 56.59
C 258.15 79.07 270.63 102.71 276.80 138.47
C 279.80 155.83 279.80 165.27 276.80 182.64
C 270.90 216.84 258.82 240.63 236.72 261.65
C 215.44 281.88 194.36 291.99 161.70 297.62
C 145.52 300.41 131.91 300.39 116.20 297.56
M 169.65 281.14
C 191.76 274.75 207.97 265.45 224.64 249.59
C 258.39 217.51 272.54 170.61 260.51 130.70
C 253.30 106.76 241.86 87.89 224.64 71.52
C 191.85 40.33 148.04 28.22 109.71 39.75
C 87.07 46.57 71.12 55.75 54.54 71.52
C 20.80 103.60 6.64 150.50 18.67 190.40
C 33.79 240.59 73.09 275.61 124.74 284.95
C 135.92 286.97 155.15 285.35 169.65 281.14
M 76.63 35.59
C 91.30 28.19 122.07 21.11 139.59 21.11
C 157.11 21.11 187.88 28.19 202.55 35.59
C 206.46 37.58 210.01 39.20 210.44 39.20
C 211.89 39.20 217.31 27.27 217.31 24.08
C 217.31 18.99 214.71 15.51 209.57 13.73
C 202.94 11.41 76.24 11.41 69.61 13.73
C 64.47 15.51 61.87 18.99 61.87 24.08
C 61.87 27.27 67.29 39.20 68.74 39.20
C 69.18 39.20 72.72 37.58 76.63 35.59"/>
<path fill="#000000" stroke="none" d="
M 433.11 297.56
C 401.70 291.90 380.16 281.40 359.37 261.65
C 337.27 240.63 325.19 216.84 319.29 182.64
C 316.32 165.44 316.31 157.49 319.20 139.49
C 324.98 103.63 337.69 79.31 362.50 56.59
L 373.88 46.18
L 370.29 39.44
C 363.37 26.46 366.60 10.03 377.27 3.81
C 382.39 0.84 384.88 0.75 456.50 0.75
C 528.12 0.75 530.61 0.84 535.73 3.81
C 546.40 10.03 549.63 26.46 542.71 39.44
L 539.12 46.18
L 550.50 56.59
C 575.05 79.07 587.53 102.71 593.71 138.47
C 595.02 146.05 596.09 156.00 596.09 160.55
C 596.09 171.02 592.26 193.40 588.26 206.38
C 575.85 246.53 542.56 279.78 502.38 292.18
C 478.20 299.62 454.69 301.45 433.11 297.56
M 486.56 281.14
C 508.67 274.75 524.88 265.45 541.55 249.59
C 575.30 217.51 589.45 170.61 577.42 130.70
C 570.21 106.76 558.77 87.89 541.55 71.52
C 508.76 40.33 464.95 28.22 426.62 39.75
C 403.98 46.57 388.03 55.75 371.45 71.52
C 337.70 103.60 323.55 150.50 335.58 190.40
C 350.70 240.59 389.99 275.61 441.65 284.95
C 452.83 286.97 472.06 285.35 486.56 281.14
M 393.54 35.59
C 408.21 28.19 438.98 21.11 456.50 21.11
C 474.02 21.11 504.79 28.19 519.46 35.59
C 523.37 37.58 526.91 39.20 527.35 39.20
C 528.80 39.20 534.22 27.27 534.22 24.08
C 534.22 18.99 531.62 15.51 526.48 13.73
C 519.85 11.41 393.15 11.41 386.52 13.73
C 381.38 15.51 378.78 18.99 378.78 24.08
C 378.78 27.27 384.20 39.20 385.65 39.20
C 386.09 39.20 389.63 37.58 393.54 35.59"/>
<path fill="#000000" stroke="none" d="
M 750.02 297.56
C 718.61 291.90 697.06 281.40 676.28 261.65
C 654.18 240.63 642.10 216.84 636.20 182.64
C 633.23 165.44 633.21 157.49 636.11 139.49
C 641.89 103.63 654.60 79.31 679.41 56.59
L 690.79 46.18
L 687.19 39.44
C 680.28 26.46 683.51 10.03 694.18 3.81
C 699.30 0.84 701.79 0.75 773.41 0.75
C 845.03 0.75 847.52 0.84 852.64 3.81
C 863.31 10.03 866.54 26.46 859.62 39.44
L 856.03 46.18
L 867.41 56.59
C 891.96 79.07 904.44 102.71 910.62 138.47
C 913.62 155.83 913.62 165.27 910.62 182.64
C 904.72 216.84 892.64 240.63 870.53 261.65
C 849.26 281.88 828.17 291.99 795.52 297.62
C 779.34 300.41 765.73 300.39 750.02 297.56
M 803.47 281.14
C 848.03 268.25 880.71 235.61 894.33 190.40
C 902.13 164.50 899.00 134.71 885.64 108.09
C 872.80 82.48 851.72 61.43 825.93 48.45
C 799.40 35.11 769.49 31.94 743.53 39.75
C 698.26 53.37 666.11 85.48 652.49 130.70
C 644.68 156.60 647.82 186.39 661.18 213.02
C 680.18 250.90 715.81 277.21 758.56 284.95
C 769.74 286.97 788.97 285.35 803.47 281.14
M 710.45 35.59
C 725.12 28.19 755.89 21.11 773.41 21.11
C 790.93 21.11 821.70 28.19 836.37 35.59
C 840.28 37.58 843.82 39.20 844.26 39.20
C 845.71 39.20 851.13 27.27 851.13 24.08
C 851.13 18.99 848.53 15.51 843.39 13.73
C 836.76 11.41 710.06 11.41 703.43 13.73
C 698.29 15.51 695.69 18.99 695.69 24.08
C 695.69 27.27 701.11 39.20 702.56 39.20
C 702.99 39.20 706.54 37.58 710.45 35.59"/>
<path fill="#c55436" stroke="none" d="
M 64.92 33.23
C 59.58 22.76 61.48 16.16 70.57 13.64
C 78.52 11.44 203.21 11.52 209.57 13.73
C 214.71 15.51 217.31 18.99 217.31 24.08
C 217.31 27.27 211.89 39.20 210.44 39.20
C 210.01 39.20 206.46 37.58 202.55 35.59
C 187.88 28.19 157.11 21.11 139.59 21.11
C 122.07 21.11 91.30 28.19 76.63 35.59
C 72.72 37.58 69.18 39.20 68.74 39.20
C 68.32 39.20 66.60 36.51 64.92 33.23"/>
<path fill="#c55436" stroke="none" d="
M 381.83 33.23
C 376.70 23.19 378.30 16.60 386.52 13.73
C 393.15 11.41 519.85 11.41 526.48 13.73
C 531.62 15.51 534.22 18.99 534.22 24.08
C 534.22 27.27 528.80 39.20 527.35 39.20
C 526.91 39.20 523.37 37.58 519.46 35.59
C 504.79 28.19 474.02 21.11 456.50 21.11
C 438.98 21.11 408.21 28.19 393.54 35.59
C 389.63 37.58 386.09 39.20 385.65 39.20
C 385.23 39.20 383.51 36.51 381.83 33.23"/>
<path fill="#c55436" stroke="none" d="
M 698.74 33.23
C 693.61 23.19 695.21 16.60 703.43 13.73
C 710.06 11.41 836.76 11.41 843.39 13.73
C 848.53 15.51 851.13 18.99 851.13 24.08
C 851.13 27.27 845.71 39.20 844.26 39.20
C 843.82 39.20 840.28 37.58 836.37 35.59
C 821.70 28.19 790.93 21.11 773.41 21.11
C 755.89 21.11 725.12 28.19 710.45 35.59
C 706.54 37.58 702.99 39.20 702.56 39.20
C 702.13 39.20 700.41 36.51 698.74 33.23"/>
<path fill="#c57a36" stroke="none" d="
M 124.74 284.95
C 73.09 275.61 33.79 240.59 18.67 190.40
C 10.87 164.50 14.00 134.71 27.36 108.09
C 40.20 82.48 61.28 61.43 87.07 48.45
C 113.45 35.19 143.68 31.99 169.47 39.75
C 192.11 46.57 208.06 55.75 224.64 71.52
C 258.39 103.60 272.54 150.50 260.51 190.40
C 249.41 227.26 225.73 255.74 192.11 272.65
C 171.96 282.78 142.50 288.17 124.74 284.95"/>
<path fill="#c57a36" stroke="none" d="
M 441.65 284.95
C 389.99 275.61 350.70 240.59 335.58 190.40
C 327.77 164.50 330.91 134.71 344.27 108.09
C 357.11 82.48 378.19 61.43 403.98 48.45
C 430.51 35.11 460.42 31.94 486.38 39.75
C 509.02 46.57 524.97 55.75 541.55 71.52
C 575.30 103.60 589.45 150.50 577.42 190.40
C 566.32 227.26 542.64 255.74 509.02 272.65
C 488.87 282.78 459.41 288.17 441.65 284.95"/>
<path fill="#c57a36" stroke="none" d="
M 758.56 284.95
C 706.90 275.61 667.61 240.59 652.49 190.40
C 644.68 164.50 647.82 134.71 661.18 108.09
C 674.02 82.48 695.10 61.43 720.89 48.45
C 747.42 35.11 777.33 31.94 803.29 39.75
C 848.56 53.37 880.71 85.48 894.33 130.70
C 902.13 156.60 899.00 186.39 885.64 213.02
C 872.80 238.63 851.72 259.67 825.93 272.65
C 805.78 282.78 776.32 288.17 758.56 284.95"/>
</g>
</svg>
