<?xml version="1.0" encoding="UTF-8" standalone="no"?>
<!DOCTYPE svg PUBLIC "-//W3C//DTD SVG 1.1//EN"
"http://www.w3.org/Graphics/SVG/1.1/DTD/svg11.dtd">
<svg width="600px" height="201px"
xmlns="http://www.w3.org/2000/svg" version="1.1">
<g transform="translate(0000, 0000) scale(1.0000, 1.0000)">
<path fill="#000000" stroke="none" d="
M 122.83 198.55
C 108.83 194.90 101.95 190.96 91.94 180.85
C 84.90 173.76 81.83 169.53 78.17 161.83
C 69.94 144.61 67.51 124.67 71.53 107.62
C 73.63 98.67 73.42 98.36 63.31 95.06
C 46.54 89.61 29.63 78.30 15.17 62.83
C 4.56 51.52 0.00 44.46 0.00 39.37
C 0.00 32.23 7.16 28.53 13.76 32.27
C 15.17 33.05 22.02 39.72 29.00 47.06
C 46.25 65.24 59.66 74.42 76.85 79.81
L 83.43 81.88
L 92.01 75.26
L 100.57 68.62
L 93.84 65.64
C 90.14 64.00 86.88 62.66 86.60 62.66
C 84.77 62.66 65.53 52.11 58.51 47.25
C 48.17 40.09 31.96 23.69 28.51 16.90
C 23.70 7.44 25.72 1.47 34.09 0.34
C 39.05 -0.32 39.28 -0.19 44.68 6.01
C 64.20 28.47 76.94 37.54 106.65 50.20
L 119.42 55.63
L 331.28 55.58
L 543.13 55.54
L 549.83 58.04
C 558.34 61.23 576.54 73.35 583.49 80.46
C 602.10 99.48 605.39 132.77 591.52 161.83
C 587.86 169.53 584.79 173.76 577.75 180.85
C 567.61 191.08 560.79 194.95 546.37 198.62
C 537.18 200.96 533.75 201.00 334.36 200.93
C 137.09 200.87 131.46 200.81 122.83 198.55
M 543.77 192.61
C 566.91 185.77 581.99 171.15 590.20 147.59
C 597.76 125.94 593.91 103.04 580.07 87.35
C 574.65 81.19 557.22 68.81 547.78 64.41
L 541.54 61.51
L 334.84 61.51
L 128.15 61.51
L 121.90 64.41
C 112.46 68.81 95.03 81.19 89.61 87.35
C 68.85 110.92 71.81 150.30 96.26 175.56
C 103.58 183.12 111.17 187.65 123.40 191.77
L 132.87 194.96
L 334.12 195.02
C 535.13 195.09 535.38 195.09 543.77 192.61
M 77.66 89.45
C 78.85 86.81 78.59 86.57 72.24 84.57
C 54.73 79.08 41.85 70.21 23.44 50.97
C 15.91 43.10 9.13 36.65 8.37 36.65
C 5.62 36.65 5.70 40.37 8.55 44.66
C 13.41 52.00 27.83 66.74 36.91 73.67
C 46.02 80.61 56.26 86.22 66.41 89.84
C 74.68 92.78 76.16 92.73 77.66 89.45
M 108.66 61.53
L 111.61 59.26
L 104.53 56.13
C 71.68 41.60 57.19 31.75 43.72 14.81
C 37.57 7.07 34.68 5.01 32.70 6.99
C 27.83 11.87 54.94 39.10 76.18 50.66
C 80.93 53.25 104.01 63.69 105.12 63.76
C 105.45 63.78 107.03 62.77 108.66 61.53"/>
<path fill="#493f3f" stroke="none" d="
M 66.41 89.84
C 56.26 86.22 46.02 80.61 36.91 73.67
C 27.83 66.74 13.41 52.00 8.55 44.66
C 5.70 40.37 5.62 36.65 8.37 36.65
C 9.13 36.65 15.91 43.10 23.44 50.97
C 41.85 70.21 54.73 79.08 72.24 84.57
C 78.59 86.57 78.85 86.81 77.66 89.45
C 76.16 92.73 74.68 92.78 66.41 89.84"/>
<path fill="#493f3f" stroke="none" d="
M 92.72 58.48
C 70.18 48.48 58.50 40.64 44.62 26.21
C 34.20 15.37 30.25 8.83 33.07 7.09
C 35.57 5.55 37.43 6.89 43.72 14.81
C 57.19 31.75 71.68 41.60 104.53 56.13
L 111.61 59.26
L 108.66 61.53
C 107.03 62.77 105.45 63.78 105.12 63.76
C 104.79 63.74 99.21 61.36 92.72 58.48"/>
<path fill="#d98e4c" stroke="none" d="
M 123.40 191.77
C 111.17 187.65 103.58 183.12 96.26 175.56
C 71.81 150.30 68.85 110.92 89.61 87.35
C 94.43 81.88 110.52 70.17 120.47 64.89
L 125.79 62.07
L 333.07 61.75
C 569.67 61.38 542.76 60.00 562.89 73.48
C 580.85 85.51 588.30 95.05 592.50 111.46
C 595.10 121.60 594.17 136.22 590.20 147.59
C 581.99 171.15 566.91 185.77 543.77 192.61
C 535.38 195.09 535.13 195.09 334.12 195.02
L 132.87 194.96
L 123.40 191.77"/>
</g>
</svg>
