<?xml version="1.0" encoding="UTF-8" standalone="no"?>
<!DOCTYPE svg PUBLIC "-//W3C//DTD SVG 1.1//EN"
"http://www.w3.org/Graphics/SVG/1.1/DTD/svg11.dtd">
<svg width="630px" height="600px"
xmlns="http://www.w3.org/2000/svg" version="1.1">
<g transform="translate(0000, 0000) scale(1.0000, 1.0000)">
<path fill="#000000" stroke="none" d="
M 17.23 596.26
C 5.57 590.33 1.05 582.43 1.20 568.33
C 1.52 540.38 15.57 527.64 72.16 503.98
C 141.61 474.98 186.25 447.78 220.27 413.79
C 250.59 383.47 279.95 339.59 338.53 237.01
C 416.57 100.38 457.98 45.61 504.49 17.59
C 547.57 -8.37 604.86 -4.63 625.17 25.49
L 630.00 32.67
L 630.00 312.06
C 630.00 588.62 629.96 591.50 625.73 595.73
C 621.50 599.96 618.62 600.00 323.01 600.00
C 43.10 600.00 24.11 599.77 17.23 596.26
M 616.76 586.76
C 618.72 584.80 619.32 521.08 619.32 312.92
C 619.30 49.60 619.19 41.44 615.22 34.95
C 605.53 19.02 581.71 9.18 558.24 11.38
C 531.08 13.90 505.07 28.68 474.96 58.61
C 439.42 93.93 411.79 134.67 350.24 242.35
C 286.49 353.91 257.74 396.09 223.23 428.75
C 191.07 459.20 140.69 489.27 80.87 513.72
C 36.24 531.95 22.21 541.54 14.42 559.09
C 9.40 570.41 11.77 578.31 22.12 584.95
C 28.77 589.22 31.93 589.26 321.51 589.28
C 546.35 589.32 614.79 588.73 616.76 586.76"/>
<path fill="#d98e4c" stroke="none" d="
M 22.12 584.95
C 11.77 578.31 9.40 570.41 14.42 559.09
C 22.21 541.54 36.24 531.95 80.87 513.72
C 140.69 489.27 191.07 459.20 223.23 428.75
C 257.74 396.09 286.49 353.91 350.24 242.35
C 411.79 134.67 439.42 93.93 474.96 58.61
C 505.13 28.61 530.14 14.41 557.84 11.57
C 581.69 9.14 605.36 18.77 615.22 34.95
C 619.19 41.44 619.30 49.60 619.32 312.92
C 619.32 521.08 618.72 584.80 616.76 586.76
C 614.79 588.73 546.35 589.32 321.51 589.28
C 31.93 589.26 28.77 589.22 22.12 584.95"/>
</g>
</svg>
