<?xml version="1.0" encoding="UTF-8" standalone="no"?>
<!DOCTYPE svg PUBLIC "-//W3C//DTD SVG 1.1//EN"
"http://www.w3.org/Graphics/SVG/1.1/DTD/svg11.dtd">
<svg width="278px" height="600px"
xmlns="http://www.w3.org/2000/svg" version="1.1">
<g transform="translate(0000, 0000) scale(1.0000, 1.0000)">
<path fill="#000000" stroke="none" d="
M 2.43 597.26
C 0.31 595.15 -0.16 593.50 0.37 589.85
C 1.24 583.88 131.44 7.83 132.61 4.77
C 134.58 -0.34 141.24 -1.42 144.08 2.90
C 145.71 5.39 275.75 576.93 277.63 589.85
C 278.16 593.50 277.69 595.15 275.57 597.26
L 272.83 600.00
L 139.00 600.00
L 5.17 600.00
L 2.43 597.26
M 264.76 588.06
C 265.68 586.93 247.15 503.34 202.90 309.03
C 168.16 156.45 139.57 30.83 139.36 29.87
C 139.17 28.92 110.41 153.75 75.46 307.29
C 30.99 502.70 12.32 586.94 13.24 588.06
C 14.26 589.33 40.99 589.68 139.00 589.68
C 237.01 589.68 263.74 589.33 264.76 588.06"/>
<path fill="#d98e4c" stroke="none" d="
M 13.24 588.06
C 12.32 586.93 30.83 503.48 74.98 309.51
C 109.66 157.19 138.35 31.77 138.74 30.80
C 139.13 29.83 139.50 29.61 139.57 30.32
C 139.63 31.03 168.13 156.45 202.89 309.03
C 247.14 503.34 265.68 586.93 264.76 588.06
C 263.74 589.33 237.01 589.68 139.00 589.68
C 40.99 589.68 14.26 589.33 13.24 588.06"/>
</g>
</svg>
