<?xml version="1.0" encoding="UTF-8" standalone="no"?>
<!DOCTYPE svg PUBLIC "-//W3C//DTD SVG 1.1//EN"
"http://www.w3.org/Graphics/SVG/1.1/DTD/svg11.dtd">
<svg width="293px" height="600px"
xmlns="http://www.w3.org/2000/svg" version="1.1">
<g transform="translate(0000, 0000) scale(1.0000, 1.0000)">
<path fill="#000000" stroke="none" d="
M 3.66 596.34
C 0.05 592.74 0.00 590.25 0.00 436.74
C 0.00 345.62 0.77 272.67 1.85 261.27
C 5.38 224.20 16.08 193.26 32.30 173.32
C 36.19 168.55 48.13 157.43 58.82 148.61
C 69.51 139.79 80.43 129.99 83.07 126.86
L 87.88 121.13
L 82.41 103.34
C 76.16 83.12 75.39 68.78 79.66 52.46
C 85.30 30.79 97.62 14.54 114.80 6.15
C 127.99 -0.29 155.02 -2.05 170.76 2.52
C 197.68 10.35 215.50 35.96 217.37 69.51
C 218.12 83.20 217.55 87.22 212.59 103.10
L 206.95 121.13
L 211.77 126.86
C 214.40 129.99 225.32 139.79 236.01 148.61
C 246.71 157.43 258.65 168.55 262.53 173.32
C 272.56 185.65 281.61 204.55 287.23 224.87
L 292.05 242.38
L 292.58 417.48
C 293.11 591.31 293.07 592.61 289.39 596.29
C 285.73 599.95 283.90 600.00 146.50 600.00
C 9.76 600.00 7.25 599.93 3.66 596.34
M 280.02 586.48
C 281.57 584.60 281.99 540.77 281.59 415.90
C 281.06 248.45 281.04 247.81 276.96 233.23
C 271.89 215.05 260.57 191.78 251.87 181.65
C 248.24 177.42 236.80 167.01 226.45 158.52
C 204.97 140.87 196.53 131.91 194.77 124.92
C 193.93 121.59 195.67 113.62 200.23 99.73
C 203.91 88.55 206.93 76.85 206.93 73.74
C 206.93 58.74 194.97 34.19 182.37 23.34
C 171.99 14.40 164.43 11.91 147.42 11.91
C 130.40 11.91 122.84 14.40 112.46 23.34
C 99.89 34.15 87.90 58.74 87.90 73.63
C 87.90 76.68 90.37 86.91 93.39 96.33
C 96.42 105.75 98.89 117.13 98.89 121.61
C 98.89 131.76 94.55 137.01 68.38 158.52
C 44.92 177.79 38.25 185.51 29.17 203.96
C 20.69 221.16 15.64 239.87 12.95 264.07
C 10.04 290.07 10.25 583.90 13.19 586.83
C 16.66 590.30 277.10 589.98 280.02 586.48"/>
<path fill="#ef907a" stroke="none" d="
M 13.19 586.83
C 10.25 583.90 10.04 290.07 12.95 264.07
C 15.64 239.87 20.69 221.16 29.17 203.96
C 38.25 185.51 44.92 177.79 68.38 158.52
C 94.55 137.01 98.89 131.76 98.89 121.61
C 98.89 117.13 96.42 105.75 93.39 96.33
C 86.89 76.06 86.71 71.91 91.62 56.07
C 97.00 38.67 108.46 24.31 123.61 16.04
C 134.34 10.17 160.75 10.13 171.22 15.97
C 186.48 24.44 197.85 38.71 203.21 56.07
C 208.25 72.33 207.98 76.23 200.23 99.73
C 195.67 113.62 193.93 121.59 194.77 124.92
C 196.53 131.91 204.97 140.87 226.45 158.52
C 236.80 167.01 248.24 177.42 251.87 181.65
C 260.57 191.78 271.89 215.05 276.96 233.23
C 281.04 247.81 281.06 248.45 281.59 415.90
C 281.99 540.77 281.57 584.60 280.02 586.48
C 277.10 589.98 16.66 590.30 13.19 586.83"/>
</g>
</svg>
