<?xml version="1.0" encoding="UTF-8" standalone="no"?>
<!DOCTYPE svg PUBLIC "-//W3C//DTD SVG 1.1//EN"
"http://www.w3.org/Graphics/SVG/1.1/DTD/svg11.dtd">
<svg width="269px" height="600px"
xmlns="http://www.w3.org/2000/svg" version="1.1">
<g transform="translate(0000, 0000) scale(1.0000, 1.0000)">
<path fill="#000000" stroke="none" d="
M 123.77 598.76
C 114.99 595.94 110.11 586.78 109.75 572.38
C 109.62 567.52 110.28 550.02 111.19 533.48
C 115.84 449.59 117.86 408.65 118.65 382.39
L 119.51 353.48
L 113.88 349.56
C 97.70 338.33 87.27 321.28 80.07 294.28
C 72.80 267.01 70.58 263.41 58.99 260.23
C 42.35 255.66 37.15 250.99 37.15 240.60
C 37.15 229.48 41.72 226.95 59.44 228.26
C 71.08 229.10 71.49 229.04 75.40 225.75
C 77.61 223.89 79.42 221.54 79.42 220.52
C 79.42 218.10 75.06 209.57 69.65 201.36
C 66.84 197.12 65.33 193.28 65.33 190.41
C 65.33 187.57 64.02 184.21 61.63 180.96
C 57.18 174.88 30.20 124.59 17.06 97.87
C 11.87 87.31 6.19 74.15 4.42 68.60
C -3.79 42.73 0.63 15.91 14.73 6.14
C 25.18 -1.11 46.29 -1.59 57.43 5.18
C 61.52 7.66 63.84 7.74 134.50 7.74
C 205.09 7.74 207.48 7.66 211.56 5.18
C 222.55 -1.50 243.96 -1.01 254.27 6.14
C 268.37 15.91 272.79 42.73 264.58 68.60
C 262.81 74.15 257.13 87.31 251.94 97.87
C 238.80 124.59 211.82 174.88 207.37 180.96
C 204.98 184.21 203.67 187.57 203.67 190.41
C 203.67 193.28 202.16 197.12 199.35 201.36
C 193.94 209.57 189.58 218.10 189.58 220.52
C 189.58 221.54 191.39 223.89 193.60 225.75
C 197.51 229.04 197.92 229.10 209.56 228.26
C 227.28 226.95 231.85 229.48 231.85 240.60
C 231.85 250.99 226.65 255.66 210.01 260.23
C 198.42 263.41 196.20 267.01 188.93 294.28
C 181.73 321.28 171.30 338.33 155.12 349.56
L 149.49 353.48
L 150.35 382.39
C 151.14 408.65 153.16 449.59 157.81 533.48
C 159.99 572.88 159.73 580.86 156.01 588.28
C 151.70 596.83 147.98 599.01 136.83 599.51
C 131.67 599.74 125.79 599.40 123.77 598.76
M 143.02 591.51
C 148.86 588.74 152.50 581.50 152.78 572.10
C 153.00 564.91 152.16 547.61 147.32 457.36
C 145.95 432.03 144.45 398.90 143.97 383.74
L 143.10 356.17
L 134.50 356.17
L 125.90 356.17
L 125.03 383.74
C 124.55 398.90 123.05 432.03 121.68 457.36
C 115.02 581.26 115.12 576.79 118.99 584.38
C 123.30 592.84 133.71 595.92 143.02 591.51
M 139.75 349.05
C 157.39 343.02 174.13 321.43 181.25 295.52
C 187.13 274.13 189.66 266.85 192.85 261.98
C 195.60 257.80 197.28 256.84 207.12 253.83
C 223.33 248.89 230.06 241.02 222.36 235.98
C 219.84 234.35 217.22 234.13 208.37 234.84
C 194.64 235.96 192.33 235.34 184.64 228.51
C 177.91 222.55 164.91 217.11 145.07 211.94
L 134.50 209.19
L 123.93 211.94
C 104.09 217.11 91.09 222.55 84.36 228.51
C 76.66 235.34 74.36 235.96 60.63 234.84
C 51.78 234.13 49.16 234.35 46.64 235.98
C 38.94 241.02 45.67 248.89 61.88 253.83
C 77.11 258.47 77.92 259.78 87.75 295.52
C 94.76 321.06 111.42 342.77 128.74 348.96
C 133.83 350.78 134.65 350.79 139.75 349.05
M 104.86 210.19
C 120.88 204.68 123.33 204.18 134.50 204.18
C 145.70 204.18 148.09 204.68 164.41 210.28
C 174.16 213.63 182.31 216.20 182.51 215.97
C 182.70 215.74 184.67 211.97 186.89 207.57
L 190.90 199.57
L 134.53 199.57
L 78.16 199.57
L 82.26 207.89
C 84.53 212.46 86.61 216.20 86.87 216.20
C 87.16 216.20 95.25 213.51 104.86 210.19
M 196.63 190.62
C 196.63 188.94 188.80 188.66 135.22 188.37
C 98.93 188.17 73.32 188.52 72.63 189.21
C 68.94 192.90 74.10 193.20 134.90 192.87
C 188.76 192.58 196.63 192.29 196.63 190.62
M 88.74 174.31
C 89.12 170.26 90.33 156.29 91.43 143.28
C 92.55 130.27 94.32 110.70 95.37 99.79
C 96.42 88.87 97.49 76.55 97.76 72.38
C 98.54 60.04 98.27 60.13 134.50 60.13
C 170.73 60.13 170.46 60.04 171.24 72.38
C 171.51 76.55 172.58 88.87 173.63 99.79
C 174.68 110.70 176.45 130.27 177.57 143.28
C 178.67 156.29 179.88 170.26 180.26 174.31
L 180.92 181.66
L 187.33 181.66
C 193.35 181.66 193.68 181.50 192.92 178.78
C 192.48 177.20 191.55 170.15 190.85 163.11
C 186.71 121.22 184.30 96.13 183.16 83.16
C 182.46 75.06 181.52 64.85 181.08 60.45
L 180.26 52.45
L 134.50 52.45
L 88.74 52.45
L 87.92 60.45
C 87.48 64.85 86.54 75.06 85.84 83.16
C 84.70 96.13 82.29 121.22 78.15 163.11
C 77.45 170.15 76.52 177.20 76.08 178.78
C 75.32 181.50 75.65 181.66 81.67 181.66
L 88.08 181.66
L 88.74 174.31
M 173.77 174.95
C 173.36 171.25 172.13 157.29 171.05 143.92
C 169.97 130.55 168.21 112.02 167.16 102.73
C 166.10 93.44 165.24 82.77 165.24 79.02
C 165.24 74.93 164.45 71.08 163.24 69.36
C 161.30 66.59 160.70 66.52 134.50 66.52
C 108.30 66.52 107.70 66.59 105.76 69.36
C 104.55 71.08 103.76 74.93 103.76 79.02
C 103.76 82.77 102.90 93.44 101.84 102.73
C 100.79 112.02 99.03 130.55 97.95 143.92
C 96.87 157.29 95.64 171.25 95.23 174.95
L 94.47 181.66
L 134.50 181.66
L 174.53 181.66
L 173.77 174.95
M 67.89 172.96
C 67.89 171.71 61.51 158.89 53.71 144.50
C 37.07 113.81 16.51 72.43 13.37 63.33
C 10.04 53.67 9.40 35.83 12.13 28.70
C 17.91 13.59 32.93 6.31 46.58 12.00
C 51.90 14.21 58.68 22.34 59.69 27.71
C 61.46 37.16 53.94 47.33 45.18 47.33
C 41.46 47.33 39.68 46.35 35.79 42.14
C 30.56 36.49 28.12 37.20 31.36 43.43
C 35.21 50.88 45.37 53.31 53.83 48.79
C 60.20 45.38 63.37 39.31 63.37 30.47
C 63.37 24.46 62.69 22.22 59.53 17.67
C 57.32 14.51 53.24 10.89 49.94 9.19
C 45.05 6.65 42.78 6.29 34.83 6.75
C 22.98 7.45 16.51 11.51 10.94 21.79
C 7.71 27.76 7.08 30.52 6.62 40.62
C 5.96 55.74 9.02 66.00 22.17 92.75
C 30.74 110.15 60.44 166.45 64.34 172.71
C 66.33 175.88 67.89 176.00 67.89 172.96
M 221.66 141.36
C 243.77 100.00 255.73 75.28 259.58 63.01
C 262.42 53.99 262.83 50.71 262.38 40.62
C 261.92 30.52 261.29 27.76 258.06 21.79
C 252.49 11.51 246.02 7.45 234.17 6.75
C 226.22 6.29 223.95 6.65 219.06 9.19
C 215.76 10.89 211.68 14.51 209.47 17.67
C 202.21 28.11 205.02 43.36 215.17 48.79
C 223.63 53.31 233.79 50.88 237.64 43.43
C 240.88 37.20 238.44 36.49 233.21 42.14
C 227.28 48.55 221.45 49.19 215.38 44.10
C 207.57 37.52 207.07 27.25 214.15 18.68
C 226.56 3.63 249.32 8.97 256.87 28.70
C 259.60 35.83 258.96 53.67 255.63 63.33
C 252.49 72.43 231.93 113.81 215.29 144.50
C 201.38 170.19 200.25 172.71 201.95 174.41
C 203.20 175.65 204.43 173.59 221.66 141.36
M 73.01 152.29
C 73.01 148.17 74.15 133.96 75.55 120.69
C 76.96 107.44 78.66 89.68 79.37 81.24
C 80.06 72.79 81.01 62.92 81.47 59.28
C 82.26 53.01 82.16 52.66 79.27 52.25
C 76.66 51.88 76.15 50.99 75.82 46.27
C 75.49 41.63 75.83 40.63 77.98 40.07
C 80.53 39.40 80.53 39.39 77.95 34.09
C 76.51 31.18 74.09 27.85 72.55 26.71
C 69.77 24.64 69.77 24.67 69.76 31.83
C 69.76 41.82 65.19 50.76 58.28 54.31
C 51.69 57.68 38.38 57.85 32.36 54.63
C 27.82 52.20 23.06 44.21 23.06 39.07
C 23.06 34.86 27.27 30.70 31.54 30.70
C 33.80 30.70 36.39 32.34 39.57 35.82
C 42.14 38.64 44.91 40.94 45.70 40.94
C 47.82 40.94 53.80 33.47 53.80 30.83
C 53.80 27.31 45.23 18.24 40.41 16.66
C 28.82 12.83 14.09 29.95 15.77 45.31
C 16.92 56.02 20.33 64.46 35.91 95.31
C 55.95 135.02 70.48 161.33 71.86 160.48
C 72.50 160.08 73.01 156.40 73.01 152.29
M 211.92 136.25
C 227.59 107.22 247.63 66.59 250.44 58.21
C 254.10 47.23 254.31 39.65 251.16 32.53
C 247.77 24.90 244.29 21.01 237.85 17.72
C 233.72 15.59 232.28 15.44 228.59 16.66
C 223.77 18.24 215.20 27.31 215.20 30.83
C 215.20 33.47 221.18 40.94 223.30 40.94
C 224.09 40.94 226.86 38.64 229.43 35.82
C 232.61 32.34 235.20 30.70 237.46 30.70
C 241.73 30.70 245.94 34.86 245.94 39.07
C 245.94 44.21 241.18 52.20 236.64 54.63
C 230.62 57.85 217.31 57.68 210.72 54.31
C 203.85 50.79 199.28 41.87 199.23 31.87
C 199.19 24.72 199.18 24.69 196.42 26.72
C 194.90 27.86 192.49 31.18 191.05 34.09
C 188.47 39.39 188.47 39.40 191.02 40.07
C 193.17 40.63 193.51 41.63 193.18 46.27
C 192.85 50.99 192.33 51.88 189.73 52.25
C 186.84 52.66 186.74 53.01 187.53 59.28
C 187.99 62.92 188.94 72.79 189.63 81.24
C 190.34 89.68 192.04 107.44 193.45 120.69
C 194.85 133.96 195.99 148.11 195.99 152.15
C 195.99 159.38 196.90 162.18 198.61 160.26
C 199.10 159.71 205.09 148.91 211.92 136.25
M 183.71 31.45
C 186.24 26.93 190.76 21.19 193.74 18.68
L 199.19 14.12
L 134.50 14.12
L 69.81 14.12
L 75.26 18.68
C 78.24 21.19 82.76 26.93 85.29 31.45
L 89.88 39.66
L 134.50 39.66
L 179.12 39.66
L 183.71 31.45"/>
<path fill="#000000" stroke="none" d="
M 115.29 327.13
C 112.60 325.77 112.08 324.60 112.08 319.82
C 112.08 314.80 112.48 314.00 115.53 312.92
C 117.89 312.10 121.22 312.24 126.01 313.39
C 130.34 314.43 135.15 314.71 138.57 314.15
C 141.61 313.64 145.91 312.92 148.13 312.56
C 150.33 312.20 153.39 312.58 154.92 313.39
C 157.20 314.61 157.62 315.83 157.30 320.20
C 157.01 324.38 156.24 325.87 153.71 327.13
C 149.35 329.33 119.64 329.32 115.29 327.13
M 151.27 321.51
C 153.84 318.93 151.47 317.30 147.27 318.75
C 143.77 319.97 123.64 319.77 119.13 318.46
C 118.05 318.15 117.21 318.73 117.21 319.77
C 117.21 320.80 118.64 322.07 120.41 322.59
C 125.28 324.05 149.58 323.19 151.27 321.51"/>
<path fill="#000000" stroke="none" d="
M 125.15 302.93
C 116.35 300.59 115.16 295.20 118.64 273.45
C 119.06 270.82 119.04 267.20 118.59 265.41
C 117.89 262.59 117.53 262.40 115.95 263.97
C 113.67 266.25 103.94 267.77 99.09 266.62
C 87.27 263.78 84.97 258.50 93.83 254.61
C 106.11 249.24 116.32 250.25 122.38 257.44
C 125.69 261.36 125.79 261.93 125.06 272.44
C 124.64 278.46 123.94 285.51 123.50 288.10
C 122.77 292.46 123.05 293.05 127.01 295.46
C 129.36 296.89 132.73 298.07 134.50 298.07
C 136.27 298.07 139.64 296.89 141.99 295.46
C 145.95 293.05 146.23 292.46 145.50 288.10
C 145.06 285.51 144.36 278.46 143.94 272.44
C 143.21 261.97 143.31 261.35 146.57 257.50
C 152.77 250.13 162.76 249.11 175.12 254.57
C 184.03 258.51 181.75 263.77 169.91 266.62
C 165.06 267.77 155.33 266.25 153.05 263.97
C 151.47 262.40 151.11 262.59 150.41 265.41
C 149.96 267.20 149.94 270.82 150.36 273.45
C 153.94 295.83 152.77 300.56 142.98 303.02
C 136.23 304.72 131.85 304.70 125.15 302.93
M 108.15 259.83
C 109.87 259.16 110.16 258.58 109.10 257.92
C 107.25 256.77 102.48 258.13 102.48 259.79
C 102.48 261.19 104.67 261.20 108.15 259.83
M 166.52 259.79
C 166.52 258.13 161.75 256.77 159.90 257.92
C 158.84 258.58 159.13 259.16 160.85 259.83
C 164.33 261.20 166.52 261.19 166.52 259.79"/>
<path fill="#e3a840" stroke="none" d="
M 72.31 191.80
C 71.84 191.03 71.98 189.86 72.63 189.21
C 73.32 188.52 98.93 188.17 135.22 188.37
C 188.80 188.66 196.63 188.94 196.63 190.62
C 196.63 192.29 188.76 192.58 134.90 192.87
C 91.18 193.10 72.92 192.79 72.31 191.80"/>
<path fill="#e3a840" stroke="none" d="
M 76.08 178.78
C 76.52 177.20 77.45 170.15 78.15 163.11
C 82.29 121.22 84.70 96.13 85.84 83.16
C 86.54 75.06 87.48 64.85 87.92 60.45
L 88.74 52.45
L 134.50 52.45
L 180.26 52.45
L 181.08 60.45
C 181.52 64.85 182.46 75.06 183.16 83.16
C 184.30 96.13 186.71 121.22 190.85 163.11
C 191.55 170.15 192.48 177.20 192.92 178.78
C 193.68 181.50 193.35 181.66 187.33 181.66
L 180.92 181.66
L 180.26 174.31
C 179.88 170.26 178.67 156.29 177.57 143.28
C 176.45 130.27 174.68 110.70 173.63 99.79
C 172.58 88.87 171.51 76.55 171.24 72.38
C 170.46 60.04 170.73 60.13 134.50 60.13
C 98.27 60.13 98.54 60.04 97.76 72.38
C 97.49 76.55 96.42 88.87 95.37 99.79
C 94.32 110.70 92.55 130.27 91.43 143.28
C 90.33 156.29 89.12 170.26 88.74 174.31
L 88.08 181.66
L 81.67 181.66
C 75.65 181.66 75.32 181.50 76.08 178.78"/>
<path fill="#e3a840" stroke="none" d="
M 64.34 172.71
C 60.44 166.45 30.74 110.15 22.17 92.75
C 9.02 66.00 5.96 55.74 6.62 40.62
C 7.08 30.52 7.71 27.76 10.94 21.79
C 16.46 11.60 22.69 7.69 34.68 6.86
C 42.92 6.28 44.96 6.60 49.94 9.17
C 53.22 10.87 57.32 14.51 59.53 17.67
C 66.79 28.11 63.98 43.36 53.83 48.79
C 45.37 53.31 35.21 50.88 31.36 43.43
C 28.12 37.20 30.56 36.49 35.79 42.14
C 41.72 48.55 47.55 49.19 53.62 44.10
C 61.43 37.52 61.93 27.25 54.85 18.68
C 42.44 3.63 19.68 8.97 12.13 28.70
C 9.40 35.83 10.04 53.67 13.37 63.33
C 16.51 72.43 37.07 113.81 53.71 144.50
C 66.67 168.43 69.61 175.27 66.92 175.27
C 66.38 175.27 65.23 174.12 64.34 172.71"/>
<path fill="#e3a840" stroke="none" d="
M 201.95 174.41
C 200.25 172.71 201.38 170.19 215.29 144.50
C 231.93 113.81 252.49 72.43 255.63 63.33
C 258.96 53.67 259.60 35.83 256.87 28.70
C 251.09 13.59 236.07 6.31 222.42 12.00
C 217.10 14.21 210.32 22.34 209.31 27.71
C 207.54 37.16 215.06 47.33 223.82 47.33
C 227.54 47.33 229.32 46.35 233.21 42.14
C 238.44 36.49 240.88 37.20 237.64 43.43
C 233.79 50.88 223.63 53.31 215.17 48.79
C 208.80 45.38 205.63 39.31 205.63 30.47
C 205.63 24.46 206.31 22.22 209.47 17.67
C 211.68 14.51 215.76 10.89 219.06 9.19
C 223.95 6.65 226.22 6.29 234.17 6.75
C 246.02 7.45 252.49 11.51 258.06 21.79
C 261.29 27.76 261.92 30.52 262.38 40.62
C 262.83 50.71 262.42 53.99 259.58 63.01
C 255.73 75.28 243.77 100.00 221.66 141.36
C 204.43 173.59 203.20 175.65 201.95 174.41"/>
<path fill="#c55436" stroke="none" d="
M 82.26 207.89
L 78.16 199.57
L 134.53 199.57
L 190.90 199.57
L 186.89 207.57
C 184.67 211.97 182.70 215.74 182.51 215.97
C 182.31 216.20 174.16 213.63 164.41 210.28
C 148.09 204.68 145.70 204.18 134.50 204.18
C 123.33 204.18 120.88 204.68 104.86 210.19
C 95.25 213.51 87.16 216.20 86.87 216.20
C 86.61 216.20 84.53 212.46 82.26 207.89"/>
<path fill="#c55436" stroke="none" d="
M 85.23 31.36
C 82.67 26.79 78.59 21.45 76.15 19.52
C 73.72 17.58 71.73 15.56 71.73 15.03
C 71.73 14.51 100.41 14.09 135.46 14.10
L 199.19 14.12
L 193.74 18.68
C 190.76 21.19 186.24 26.93 183.71 31.45
L 179.12 39.66
L 134.50 39.66
L 89.88 39.66
L 85.23 31.36"/>
<path fill="#ae3c2a" stroke="none" d="
M 128.74 348.96
C 111.42 342.77 94.76 321.06 87.75 295.52
C 81.87 274.13 79.34 266.85 76.15 261.98
C 73.40 257.80 71.72 256.84 61.88 253.83
C 45.67 248.89 38.94 241.02 46.64 235.98
C 49.16 234.35 51.78 234.13 60.63 234.84
C 74.36 235.96 76.66 235.34 84.36 228.51
C 91.19 222.46 104.76 216.82 124.14 211.98
L 134.90 209.30
L 145.27 212.00
C 164.92 217.11 177.94 222.58 184.64 228.51
C 192.33 235.34 194.64 235.96 208.37 234.84
C 217.22 234.13 219.84 234.35 222.36 235.98
C 230.06 241.02 223.33 248.89 207.12 253.83
C 191.89 258.47 191.08 259.78 181.25 295.52
C 174.13 321.43 157.39 343.02 139.75 349.05
C 134.65 350.79 133.83 350.78 128.74 348.96
M 153.71 327.13
C 156.24 325.87 157.01 324.38 157.30 320.20
C 157.62 315.83 157.20 314.61 154.92 313.39
C 153.39 312.58 150.33 312.20 148.13 312.56
C 145.91 312.92 141.61 313.64 138.57 314.15
C 135.15 314.71 130.34 314.43 126.01 313.39
C 121.22 312.24 117.89 312.10 115.53 312.92
C 112.48 314.00 112.08 314.80 112.08 319.82
C 112.08 324.60 112.60 325.77 115.29 327.13
C 119.64 329.32 149.35 329.33 153.71 327.13
M 142.98 303.02
C 152.77 300.56 153.94 295.83 150.36 273.45
C 149.94 270.82 149.96 267.20 150.41 265.41
C 151.11 262.59 151.47 262.40 153.05 263.97
C 155.33 266.25 165.06 267.77 169.91 266.62
C 181.75 263.77 184.03 258.51 175.12 254.57
C 162.76 249.11 152.77 250.13 146.57 257.50
C 143.31 261.35 143.21 261.97 143.94 272.44
C 144.36 278.46 145.06 285.51 145.50 288.10
C 146.23 292.46 145.95 293.05 141.99 295.46
C 139.64 296.89 136.27 298.07 134.50 298.07
C 132.73 298.07 129.36 296.89 127.01 295.46
C 123.05 293.05 122.77 292.46 123.50 288.10
C 123.94 285.51 124.64 278.46 125.06 272.44
C 125.79 261.93 125.69 261.36 122.38 257.44
C 116.32 250.25 106.11 249.24 93.83 254.61
C 84.97 258.50 87.27 263.78 99.09 266.62
C 103.94 267.77 113.67 266.25 115.95 263.97
C 117.53 262.40 117.89 262.59 118.59 265.41
C 119.04 267.20 119.06 270.82 118.64 273.45
C 116.36 287.68 116.25 295.47 118.26 298.54
C 121.60 303.65 132.60 305.63 142.98 303.02"/>
<path fill="#fefefe" stroke="none" d="
M 102.48 259.86
C 102.48 258.38 107.66 257.03 109.34 258.06
C 110.06 258.51 109.52 259.29 108.15 259.83
C 104.72 261.19 102.48 261.19 102.48 259.86"/>
<path fill="#fefefe" stroke="none" d="
M 160.85 259.83
C 159.13 259.16 158.84 258.58 159.90 257.92
C 161.75 256.77 166.52 258.13 166.52 259.79
C 166.52 261.19 164.33 261.20 160.85 259.83"/>
<path fill="#f6947d" stroke="none" d="
M 120.50 322.62
C 118.80 322.09 117.18 321.03 116.93 320.25
C 116.58 319.23 120.27 319.01 129.81 319.50
C 137.91 319.92 144.73 319.64 147.13 318.81
C 151.45 317.30 153.88 318.90 151.27 321.51
C 149.59 323.18 125.29 324.05 120.50 322.62"/>
<path fill="#c57a36" stroke="none" d="
M 125.78 591.45
C 120.13 588.68 116.49 581.32 116.22 572.10
C 116.11 568.09 116.71 551.30 117.58 534.75
C 118.45 518.21 120.32 482.53 121.74 455.44
C 123.16 428.34 124.74 394.99 125.25 381.31
L 126.17 356.44
L 134.63 356.25
L 143.10 356.06
L 143.97 383.68
C 144.45 398.87 145.95 432.03 147.32 457.36
C 153.98 581.30 153.88 576.79 150.00 584.39
C 145.70 592.84 134.95 595.97 125.78 591.45"/>
</g>
</svg>
