<?xml version="1.0" encoding="UTF-8" standalone="no"?>
<!DOCTYPE svg PUBLIC "-//W3C//DTD SVG 1.1//EN"
"http://www.w3.org/Graphics/SVG/1.1/DTD/svg11.dtd">
<svg width="647px" height="450px"
xmlns="http://www.w3.org/2000/svg" version="1.1">
<g transform="translate(0000, 0000) scale(1.0000, 1.0000)">
<path fill="#000000" stroke="none" d="
M 458.33 368.27
C 375.93 317.14 325.86 286.86 324.54 287.36
C 323.39 287.81 262.73 324.08 189.75 368.00
C 116.76 411.90 55.46 448.07 53.52 448.34
C 50.24 448.82 48.22 446.06 25.43 409.99
C 11.92 388.61 0.62 369.81 0.32 368.22
C -0.05 366.30 0.96 364.38 3.37 362.50
C 5.36 360.93 56.10 329.23 116.13 292.03
C 200.03 240.04 224.88 224.04 223.57 222.85
C 222.62 221.98 172.24 190.54 111.61 152.96
C 22.27 97.59 1.37 84.10 1.37 81.77
C 1.39 78.32 45.50 5.90 49.75 2.30
C 51.39 0.93 53.74 0.08 54.97 0.41
C 56.21 0.73 117.44 38.28 191.02 83.84
C 264.61 129.42 325.38 166.51 326.07 166.29
C 326.74 166.06 386.40 129.36 458.64 84.72
C 530.88 40.09 591.56 3.33 593.45 3.05
C 595.60 2.72 597.80 3.48 599.20 5.04
C 604.05 10.40 646.99 81.80 647.00 84.50
C 647.00 86.80 625.42 100.78 534.88 157.12
C 438.94 216.80 423.09 227.10 425.06 228.53
C 426.32 229.45 476.51 260.64 536.60 297.85
C 639.32 361.44 645.83 365.69 645.32 368.99
C 645.02 370.91 633.76 389.92 620.28 411.24
C 600.83 442.04 595.20 450.00 592.89 450.00
C 591.30 450.00 530.75 413.22 458.33 368.27
M 609.32 412.27
C 630.56 378.75 635.08 370.88 634.06 369.23
C 633.62 368.53 503.45 287.57 344.78 189.32
C 107.26 42.24 55.92 10.98 54.27 12.35
C 53.16 13.25 43.20 28.80 32.13 46.89
C 16.88 71.81 12.39 80.15 13.60 81.36
C 16.02 83.77 589.86 440.14 590.95 439.90
C 591.49 439.79 599.75 427.36 609.32 412.27
M 185.98 360.14
C 257.45 317.13 315.75 281.36 315.51 280.65
C 314.83 278.60 237.25 230.65 234.49 230.57
C 231.48 230.47 12.40 366.00 11.42 368.55
C 10.67 370.48 53.50 439.31 55.08 438.70
C 55.59 438.50 114.50 403.15 185.98 360.14
M 526.02 152.41
C 585.90 115.12 635.20 83.81 635.58 82.81
C 636.27 81.01 597.78 16.77 594.28 13.86
C 592.85 12.68 563.67 30.11 464.26 91.56
C 393.75 135.15 336.03 171.41 335.97 172.17
C 335.81 174.20 413.90 222.16 415.65 221.12
C 416.47 220.61 466.14 189.70 526.02 152.41"/>
<path fill="#757575" stroke="none" d="
M 302.59 261.52
C 144.52 163.30 14.48 82.23 13.60 81.36
C 12.39 80.15 16.91 71.77 32.24 46.73
C 43.35 28.55 53.50 13.12 54.78 12.43
C 56.60 11.47 120.16 50.23 342.79 188.07
C 499.91 285.35 629.97 366.06 631.82 367.44
L 635.19 369.93
L 630.94 377.38
C 623.77 389.98 591.98 439.70 590.95 439.90
C 590.43 440.01 460.66 359.74 302.59 261.52"/>
<path fill="#757575" stroke="none" d="
M 32.43 404.71
C 20.50 385.81 11.03 369.54 11.42 368.55
C 12.40 366.00 231.48 230.47 234.49 230.57
C 237.25 230.65 314.83 278.60 315.51 280.65
C 315.83 281.61 60.35 436.66 55.08 438.70
C 54.56 438.90 44.37 423.60 32.43 404.71"/>
<path fill="#757575" stroke="none" d="
M 375.00 197.77
C 353.47 184.43 335.90 172.91 335.97 172.17
C 336.03 171.41 393.75 135.15 464.26 91.56
C 563.67 30.11 592.85 12.68 594.28 13.86
C 597.78 16.77 636.27 81.01 635.58 82.81
C 635.10 84.07 454.78 197.46 415.65 221.12
C 414.82 221.61 396.52 211.10 375.00 197.77"/>
</g>
</svg>
