<?xml version="1.0" encoding="UTF-8" standalone="no"?>
<!DOCTYPE svg PUBLIC "-//W3C//DTD SVG 1.1//EN"
"http://www.w3.org/Graphics/SVG/1.1/DTD/svg11.dtd">
<svg width="635px" height="600px"
xmlns="http://www.w3.org/2000/svg" version="1.1">
<g transform="translate(0000, 0000) scale(1.0000, 1.0000)">
<path fill="#000000" stroke="none" d="
M 253.74 597.42
C 251.23 594.91 251.17 593.14 251.17 518.74
L 251.17 442.64
L 246.98 443.41
C 191.68 453.68 150.46 449.76 128.34 432.12
C 125.57 429.91 117.62 420.82 110.68 411.93
C 96.76 394.09 88.41 385.73 81.79 382.97
C 78.25 381.48 75.49 381.41 66.82 382.58
C 53.72 384.33 32.51 383.37 23.64 380.59
C 12.93 377.24 4.97 371.15 2.05 364.06
C -0.37 358.18 -0.39 357.68 1.73 350.99
C 4.60 341.88 11.05 336.08 26.43 328.79
C 32.96 325.70 38.92 323.18 39.68 323.18
C 43.65 323.18 42.03 319.56 34.82 312.27
C 28.74 306.14 26.93 303.48 27.25 301.15
C 27.55 299.10 28.67 297.93 30.60 297.66
C 32.79 297.35 36.68 300.17 46.06 308.91
C 61.36 323.12 63.31 323.56 70.48 314.29
C 87.08 292.82 89.03 290.83 93.23 291.24
C 100.04 291.90 99.27 296.15 90.52 306.15
C 86.38 310.92 82.00 316.34 80.82 318.22
L 78.67 321.64
L 92.08 328.15
C 108.01 335.86 112.16 339.72 125.72 359.42
C 154.80 401.64 165.01 403.75 227.98 380.59
L 250.52 372.30
L 250.88 358.03
L 251.26 343.78
L 191.31 343.78
C 133.09 343.78 131.30 343.70 128.80 341.20
C 126.33 338.73 126.23 336.91 126.23 296.14
C 126.23 255.36 126.33 253.55 128.80 251.07
C 131.30 248.58 133.09 248.50 191.27 248.50
L 251.17 248.50
L 251.17 127.07
C 251.17 24.27 251.45 5.25 253.00 3.14
C 254.72 0.77 256.94 0.62 294.16 0.27
C 332.30 -0.09 333.57 -0.03 336.12 2.52
C 338.73 5.12 338.75 6.05 338.75 126.82
L 338.75 248.50
L 398.65 248.50
C 456.83 248.50 458.62 248.58 461.12 251.07
C 463.59 253.55 463.69 255.36 463.69 296.14
C 463.69 336.91 463.59 338.73 461.12 341.20
C 458.62 343.70 456.83 343.78 398.65 343.78
L 338.75 343.78
L 338.75 356.60
L 338.75 369.42
L 344.23 370.89
C 357.58 374.45 376.32 380.94 404.44 391.71
C 444.40 407.02 461.79 412.66 480.80 416.43
C 504.26 421.11 514.74 421.49 551.82 419.09
C 592.79 416.42 624.67 416.85 630.81 420.14
C 637.83 423.90 636.04 428.24 625.24 433.67
C 618.51 437.05 604.34 439.82 581.55 442.18
C 540.66 446.46 520.51 446.16 454.03 440.30
C 438.45 438.94 409.18 436.65 388.99 435.22
C 368.79 433.80 349.24 432.27 345.51 431.83
L 338.75 431.03
L 338.75 512.94
C 338.75 593.14 338.70 594.90 336.18 597.42
C 333.72 599.88 331.89 600.00 294.96 600.00
C 258.03 600.00 256.20 599.88 253.74 597.42
M 328.19 590.73
C 329.36 589.56 329.74 569.92 329.74 510.26
L 329.74 431.33
L 320.85 431.33
C 312.44 431.33 294.55 433.93 270.81 438.61
L 260.18 440.69
L 260.18 514.94
C 260.18 570.97 260.56 589.56 261.73 590.73
C 263.93 592.93 325.99 592.93 328.19 590.73
M 216.40 441.03
C 225.25 439.98 245.82 436.55 262.11 433.39
C 305.16 425.06 310.38 424.47 334.04 425.25
C 355.27 425.96 427.67 431.15 463.69 434.55
C 517.61 439.65 550.94 439.64 590.56 434.50
C 607.60 432.28 614.44 430.74 620.06 427.84
C 622.94 426.35 623.38 425.67 621.99 424.78
C 619.12 422.97 582.63 423.42 551.20 425.67
C 494.89 429.70 475.14 426.23 407.02 400.43
C 311.76 364.35 296.52 363.37 226.23 388.74
C 194.98 400.02 185.28 402.17 168.84 401.48
C 158.18 401.05 155.56 400.47 149.62 397.22
C 140.86 392.43 132.81 383.59 119.59 364.26
C 113.81 355.79 106.80 346.80 104.02 344.29
C 101.24 341.78 93.37 337.09 86.52 333.86
C 75.81 328.82 72.61 327.90 63.76 327.37
C 55.45 326.88 51.83 327.31 45.08 329.58
C 16.35 339.19 1.89 353.03 10.06 363.10
C 12.33 365.91 12.51 365.92 16.62 363.80
C 18.93 362.60 21.65 361.93 22.66 362.32
C 25.58 363.44 24.74 366.72 21.03 368.67
L 17.61 370.47
L 25.22 373.38
C 35.01 377.11 48.31 378.01 64.94 376.04
C 87.17 373.40 92.55 376.40 113.85 403.44
C 133.45 428.30 138.21 432.12 156.51 437.65
C 174.45 443.07 191.03 444.01 216.40 441.03
M 272.42 367.51
C 284.15 365.20 306.62 364.52 320.40 366.06
L 329.74 367.11
L 329.74 188.96
C 329.74 52.12 329.38 10.45 328.19 9.27
C 325.99 7.07 263.93 7.07 261.73 9.27
C 260.54 10.45 260.18 52.39 260.18 190.17
C 260.18 288.81 260.62 369.53 261.15 369.53
C 261.68 369.53 266.75 368.61 272.42 367.51
M 251.17 296.14
L 251.17 257.51
L 194.11 257.51
C 151.45 257.51 136.66 257.90 135.50 259.06
C 133.30 261.26 133.30 331.02 135.50 333.22
C 136.66 334.38 151.45 334.76 194.11 334.76
L 251.17 334.76
L 251.17 296.14
M 454.42 333.22
C 456.62 331.02 456.62 261.26 454.42 259.06
C 453.26 257.90 438.47 257.51 395.81 257.51
L 338.75 257.51
L 338.75 296.14
L 338.75 334.76
L 395.81 334.76
C 438.47 334.76 453.26 334.38 454.42 333.22"/>
<path fill="#000000" stroke="none" d="
M 182.90 427.47
C 177.80 422.37 181.51 413.30 188.70 413.30
C 192.83 413.30 197.07 417.54 197.07 421.67
C 197.07 425.81 192.83 430.04 188.70 430.04
C 186.92 430.04 184.32 428.88 182.90 427.47
M 192.41 423.31
C 193.48 421.60 193.31 420.59 191.67 418.94
C 187.81 415.09 182.06 420.13 185.54 424.33
C 187.54 426.73 190.53 426.30 192.41 423.31"/>
<path fill="#000000" stroke="none" d="
M 146.84 423.61
C 141.74 418.51 145.44 409.44 152.63 409.44
C 156.77 409.44 161.00 413.68 161.00 417.81
C 161.00 421.94 156.77 426.18 152.63 426.18
C 150.85 426.18 148.25 425.02 146.84 423.61
M 156.34 419.45
C 157.41 417.73 157.24 416.73 155.61 415.08
C 151.74 411.23 146.00 416.27 149.48 420.46
C 151.47 422.87 154.46 422.43 156.34 419.45"/>
<path fill="#000000" stroke="none" d="
M 405.73 421.03
C 404.31 419.61 403.15 417.01 403.15 415.24
C 403.15 413.46 404.31 410.86 405.73 409.44
C 407.15 408.03 409.75 406.87 411.53 406.87
C 413.30 406.87 415.91 408.03 417.32 409.44
C 418.74 410.86 419.90 413.46 419.90 415.24
C 419.90 417.01 418.74 419.61 417.32 421.03
C 415.91 422.45 413.30 423.61 411.53 423.61
C 409.75 423.61 407.15 422.45 405.73 421.03
M 415.24 416.87
C 416.30 415.16 416.14 414.15 414.50 412.51
C 410.64 408.66 404.89 413.69 408.37 417.89
C 410.37 420.30 413.36 419.86 415.24 416.87"/>
<path fill="#000000" stroke="none" d="
M 217.68 418.45
C 212.58 413.36 216.29 404.29 223.47 404.29
C 227.61 404.29 231.85 408.53 231.85 412.66
C 231.85 416.79 227.61 421.03 223.47 421.03
C 221.70 421.03 219.09 419.87 217.68 418.45
M 227.18 414.30
C 228.25 412.58 228.08 411.58 226.45 409.93
C 222.58 406.08 216.84 411.12 220.32 415.31
C 222.31 417.72 225.30 417.28 227.18 414.30"/>
<path fill="#000000" stroke="none" d="
M 370.95 413.30
C 369.54 411.89 368.38 409.29 368.38 407.51
C 368.38 405.73 369.54 403.13 370.95 401.72
C 372.37 400.30 374.97 399.14 376.75 399.14
C 378.53 399.14 381.13 400.30 382.55 401.72
C 383.96 403.13 385.12 405.73 385.12 407.51
C 385.12 409.29 383.96 411.89 382.55 413.30
C 381.13 414.72 378.53 415.88 376.75 415.88
C 374.97 415.88 372.37 414.72 370.95 413.30
M 380.46 409.15
C 381.53 407.43 381.36 406.43 379.72 404.78
C 375.86 400.93 370.12 405.97 373.59 410.16
C 375.59 412.57 378.58 412.13 380.46 409.15"/>
<path fill="#000000" stroke="none" d="
M 258.89 408.15
C 253.79 403.06 257.50 393.99 264.69 393.99
C 268.83 393.99 273.06 398.23 273.06 402.36
C 273.06 406.49 268.83 410.73 264.69 410.73
C 262.91 410.73 260.31 409.57 258.89 408.15
M 268.40 404.00
C 269.47 402.28 269.30 401.28 267.67 399.63
C 263.80 395.78 258.06 400.82 261.53 405.01
C 263.53 407.42 266.52 406.98 268.40 404.00"/>
<path fill="#000000" stroke="none" d="
M 332.31 404.29
C 330.90 402.88 329.74 400.27 329.74 398.50
C 329.74 396.72 330.90 394.12 332.31 392.70
C 333.73 391.29 336.33 390.13 338.11 390.13
C 339.89 390.13 342.49 391.29 343.90 392.70
C 345.32 394.12 346.48 396.72 346.48 398.50
C 346.48 400.27 345.32 402.88 343.90 404.29
C 342.49 405.71 339.89 406.87 338.11 406.87
C 336.33 406.87 333.73 405.71 332.31 404.29
M 341.82 400.13
C 342.89 398.42 342.72 397.42 341.08 395.77
C 337.22 391.92 331.48 396.95 334.95 401.15
C 336.95 403.56 339.94 403.12 341.82 400.13"/>
<path fill="#000000" stroke="none" d="
M 294.96 401.72
C 289.86 396.62 293.57 387.55 300.76 387.55
C 304.89 387.55 309.13 391.79 309.13 395.92
C 309.13 400.06 304.89 404.29 300.76 404.29
C 298.98 404.29 296.38 403.13 294.96 401.72
M 304.47 397.56
C 305.53 395.85 305.37 394.84 303.73 393.19
C 299.87 389.34 294.12 394.38 297.60 398.58
C 299.60 400.98 302.58 400.55 304.47 397.56"/>
<path fill="#000000" stroke="none" d="
M 117.21 400.43
C 112.11 395.33 115.82 386.27 123.01 386.27
C 127.14 386.27 131.38 390.50 131.38 394.64
C 131.38 398.77 127.14 403.00 123.01 403.00
C 121.23 403.00 118.63 401.85 117.21 400.43
M 126.72 396.27
C 127.79 394.56 127.62 393.55 125.98 391.91
C 122.12 388.06 116.37 393.09 119.85 397.29
C 121.85 399.70 124.84 399.26 126.72 396.27"/>
<path fill="#000000" stroke="none" d="
M 97.89 375.97
C 92.79 370.87 96.50 361.80 103.69 361.80
C 107.82 361.80 112.06 366.04 112.06 370.17
C 112.06 374.30 107.82 378.54 103.69 378.54
C 101.91 378.54 99.31 377.38 97.89 375.97
M 107.40 371.81
C 108.47 370.09 108.30 369.09 106.66 367.44
C 102.80 363.59 97.05 368.63 100.53 372.82
C 102.53 375.23 105.52 374.79 107.40 371.81"/>
<path fill="#000000" stroke="none" d="
M 34.07 354.79
C 27.13 347.83 32.03 336.05 41.86 336.05
C 48.15 336.05 52.81 340.71 52.81 347.00
C 52.81 356.82 41.02 361.73 34.07 354.79
M 46.92 352.06
C 50.52 348.45 48.25 339.91 43.70 339.91
C 41.87 339.91 42.27 341.99 44.44 343.78
C 45.51 344.65 46.37 346.11 46.37 347.00
C 46.37 347.88 45.51 349.34 44.44 350.21
C 43.37 351.09 42.51 352.33 42.51 352.94
C 42.51 354.72 44.69 354.27 46.92 352.06"/>
<path fill="#757575" stroke="none" d="
M 261.73 590.73
C 260.56 589.56 260.18 570.97 260.18 514.94
L 260.18 440.69
L 270.81 438.61
C 294.55 433.93 312.44 431.33 320.85 431.33
L 329.74 431.33
L 329.74 510.26
C 329.74 569.92 329.36 589.56 328.19 590.73
C 325.99 592.93 263.93 592.93 261.73 590.73"/>
<path fill="#757575" stroke="none" d="
M 260.18 189.97
C 260.18 13.74 260.23 10.36 262.67 9.06
C 266.38 7.07 326.18 7.26 328.19 9.27
C 329.38 10.45 329.74 52.12 329.74 188.96
L 329.74 367.11
L 320.40 366.06
C 306.62 364.52 284.15 365.20 272.42 367.51
C 266.75 368.61 261.68 369.53 261.15 369.53
C 260.62 369.53 260.18 288.72 260.18 189.97"/>
<path fill="#757575" stroke="none" d="
M 135.50 333.22
C 133.30 331.02 133.30 261.26 135.50 259.06
C 136.66 257.90 151.45 257.51 194.11 257.51
L 251.17 257.51
L 251.17 296.14
L 251.17 334.76
L 194.11 334.76
C 151.45 334.76 136.66 334.38 135.50 333.22"/>
<path fill="#757575" stroke="none" d="
M 338.75 296.14
L 338.75 257.51
L 395.81 257.51
C 438.47 257.51 453.26 257.90 454.42 259.06
C 456.62 261.26 456.62 331.02 454.42 333.22
C 453.26 334.38 438.47 334.76 395.81 334.76
L 338.75 334.76
L 338.75 296.14"/>
<path fill="#fca022" stroke="none" d="
M 173.24 441.49
C 163.84 440.14 149.26 435.82 142.61 432.44
C 134.96 428.54 128.48 422.01 113.85 403.44
C 92.55 376.40 87.17 373.40 64.94 376.04
C 48.31 378.01 35.01 377.11 25.22 373.38
L 17.61 370.47
L 21.03 368.67
C 24.74 366.72 25.58 363.44 22.66 362.32
C 21.65 361.93 18.93 362.60 16.62 363.80
C 12.51 365.92 12.33 365.91 10.06 363.10
C 3.27 354.73 12.82 342.68 32.88 334.29
C 55.71 324.73 66.82 324.64 86.52 333.89
C 93.37 337.11 101.24 341.78 104.02 344.29
C 106.80 346.80 113.81 355.79 119.59 364.26
C 132.81 383.59 140.86 392.43 149.62 397.22
C 155.56 400.47 158.18 401.05 168.84 401.48
C 185.28 402.17 194.98 400.02 226.23 388.74
C 296.52 363.37 311.76 364.35 407.02 400.43
C 475.14 426.23 494.89 429.70 551.20 425.67
C 582.63 423.42 619.12 422.97 621.99 424.78
C 623.38 425.67 622.94 426.35 620.06 427.84
C 614.44 430.74 607.60 432.28 590.56 434.50
C 550.94 439.64 517.61 439.65 463.69 434.55
C 427.67 431.15 355.27 425.96 334.04 425.25
C 310.38 424.47 305.16 425.06 262.11 433.39
C 216.20 442.29 193.24 444.37 173.24 441.49
M 194.49 427.47
C 199.59 422.37 195.88 413.30 188.70 413.30
C 184.56 413.30 180.32 417.54 180.32 421.67
C 180.32 425.81 184.56 430.04 188.70 430.04
C 190.47 430.04 193.08 428.88 194.49 427.47
M 158.43 423.61
C 163.53 418.51 159.82 409.44 152.63 409.44
C 148.50 409.44 144.26 413.68 144.26 417.81
C 144.26 421.94 148.50 426.18 152.63 426.18
C 154.41 426.18 157.01 425.02 158.43 423.61
M 417.32 421.03
C 418.74 419.61 419.90 417.01 419.90 415.24
C 419.90 413.46 418.74 410.86 417.32 409.44
C 415.91 408.03 413.30 406.87 411.53 406.87
C 409.75 406.87 407.15 408.03 405.73 409.44
C 404.31 410.86 403.15 413.46 403.15 415.24
C 403.15 417.01 404.31 419.61 405.73 421.03
C 407.15 422.45 409.75 423.61 411.53 423.61
C 413.30 423.61 415.91 422.45 417.32 421.03
M 229.27 418.45
C 234.37 413.36 230.66 404.29 223.47 404.29
C 219.34 404.29 215.10 408.53 215.10 412.66
C 215.10 416.79 219.34 421.03 223.47 421.03
C 225.25 421.03 227.85 419.87 229.27 418.45
M 382.55 413.30
C 383.96 411.89 385.12 409.29 385.12 407.51
C 385.12 405.73 383.96 403.13 382.55 401.72
C 381.13 400.30 378.53 399.14 376.75 399.14
C 374.97 399.14 372.37 400.30 370.95 401.72
C 369.54 403.13 368.38 405.73 368.38 407.51
C 368.38 409.29 369.54 411.89 370.95 413.30
C 372.37 414.72 374.97 415.88 376.75 415.88
C 378.53 415.88 381.13 414.72 382.55 413.30
M 270.49 408.15
C 275.59 403.06 271.88 393.99 264.69 393.99
C 260.56 393.99 256.32 398.23 256.32 402.36
C 256.32 406.49 260.56 410.73 264.69 410.73
C 266.47 410.73 269.07 409.57 270.49 408.15
M 343.90 404.29
C 345.32 402.88 346.48 400.27 346.48 398.50
C 346.48 396.72 345.32 394.12 343.90 392.70
C 342.49 391.29 339.89 390.13 338.11 390.13
C 336.33 390.13 333.73 391.29 332.31 392.70
C 330.90 394.12 329.74 396.72 329.74 398.50
C 329.74 400.27 330.90 402.88 332.31 404.29
C 333.73 405.71 336.33 406.87 338.11 406.87
C 339.89 406.87 342.49 405.71 343.90 404.29
M 306.55 401.72
C 311.65 396.62 307.94 387.55 300.76 387.55
C 296.62 387.55 292.38 391.79 292.38 395.92
C 292.38 400.06 296.62 404.29 300.76 404.29
C 302.53 404.29 305.13 403.13 306.55 401.72
M 128.80 400.43
C 133.90 395.33 130.19 386.27 123.01 386.27
C 118.87 386.27 114.63 390.50 114.63 394.64
C 114.63 398.77 118.87 403.00 123.01 403.00
C 124.78 403.00 127.39 401.85 128.80 400.43
M 109.48 375.97
C 114.58 370.87 110.87 361.80 103.69 361.80
C 99.55 361.80 95.31 366.04 95.31 370.17
C 95.31 374.30 99.55 378.54 103.69 378.54
C 105.46 378.54 108.07 377.38 109.48 375.97
M 49.65 354.79
C 56.60 347.83 51.69 336.05 41.86 336.05
C 35.58 336.05 30.91 340.71 30.91 347.00
C 30.91 356.82 42.70 361.73 49.65 354.79"/>
<path fill="#eb2e00" stroke="none" d="
M 42.51 352.94
C 42.51 352.33 43.37 351.09 44.44 350.21
C 46.90 348.17 46.88 346.47 44.35 343.69
C 41.75 340.82 44.14 339.17 46.91 341.92
C 49.51 344.54 49.52 349.45 46.92 352.06
C 44.69 354.27 42.51 354.72 42.51 352.94"/>
<path fill="#914623" stroke="none" d="
M 185.54 424.33
C 182.06 420.13 187.81 415.09 191.67 418.94
C 193.31 420.59 193.48 421.60 192.41 423.31
C 190.53 426.30 187.54 426.73 185.54 424.33"/>
<path fill="#914623" stroke="none" d="
M 149.48 420.46
C 146.00 416.27 151.74 411.23 155.61 415.08
C 157.24 416.73 157.41 417.73 156.34 419.45
C 154.46 422.43 151.47 422.87 149.48 420.46"/>
<path fill="#914623" stroke="none" d="
M 408.37 417.89
C 404.89 413.69 410.64 408.66 414.50 412.51
C 416.14 414.15 416.30 415.16 415.24 416.87
C 413.36 419.86 410.37 420.30 408.37 417.89"/>
<path fill="#914623" stroke="none" d="
M 220.32 415.31
C 216.84 411.12 222.58 406.08 226.45 409.93
C 228.08 411.58 228.25 412.58 227.18 414.30
C 225.30 417.28 222.31 417.72 220.32 415.31"/>
<path fill="#914623" stroke="none" d="
M 373.59 410.16
C 370.12 405.97 375.86 400.93 379.72 404.78
C 381.36 406.43 381.53 407.43 380.46 409.15
C 378.58 412.13 375.59 412.57 373.59 410.16"/>
<path fill="#914623" stroke="none" d="
M 261.53 405.01
C 258.06 400.82 263.80 395.78 267.67 399.63
C 269.30 401.28 269.47 402.28 268.40 404.00
C 266.52 406.98 263.53 407.42 261.53 405.01"/>
<path fill="#914623" stroke="none" d="
M 334.95 401.15
C 331.48 396.95 337.22 391.92 341.08 395.77
C 342.72 397.42 342.89 398.42 341.82 400.13
C 339.94 403.12 336.95 403.56 334.95 401.15"/>
<path fill="#914623" stroke="none" d="
M 297.60 398.58
C 294.12 394.38 299.87 389.34 303.73 393.19
C 305.37 394.84 305.53 395.85 304.47 397.56
C 302.58 400.55 299.60 400.98 297.60 398.58"/>
<path fill="#914623" stroke="none" d="
M 119.85 397.29
C 116.37 393.09 122.12 388.06 125.98 391.91
C 127.62 393.55 127.79 394.56 126.72 396.27
C 124.84 399.26 121.85 399.70 119.85 397.29"/>
<path fill="#914623" stroke="none" d="
M 100.76 373.17
C 98.42 370.83 98.83 368.51 101.91 366.88
C 105.63 364.88 109.53 368.39 107.40 371.81
C 105.61 374.63 102.80 375.21 100.76 373.17"/>
</g>
</svg>
