<?xml version="1.0" encoding="UTF-8" standalone="no"?>
<!DOCTYPE svg PUBLIC "-//W3C//DTD SVG 1.1//EN"
"http://www.w3.org/Graphics/SVG/1.1/DTD/svg11.dtd">
<svg width="299px" height="300px"
xmlns="http://www.w3.org/2000/svg" version="1.1">
<g transform="translate(0000, 0000) scale(1.0000, 1.0000)">
<path fill="#000000" stroke="none" d="
M 2.19 297.82
C 0.53 296.16 0.00 260.78 0.00 149.71
C 0.00 7.27 0.09 3.73 3.52 1.89
C 8.39 -0.71 27.95 -0.49 30.63 2.18
C 33.80 5.35 33.80 294.65 30.63 297.82
C 29.37 299.07 23.34 300.00 16.41 300.00
C 9.48 300.00 3.45 299.07 2.19 297.82
M 23.34 290.55
C 26.51 287.38 26.51 12.62 23.34 9.45
C 20.51 6.64 12.31 6.64 9.48 9.45
C 6.31 12.62 6.31 287.38 9.48 290.55
C 10.68 291.75 13.80 292.73 16.41 292.73
C 19.02 292.73 22.13 291.75 23.34 290.55"/>
<path fill="#000000" stroke="none" d="
M 135.28 297.82
C 132.11 294.65 132.11 5.35 135.28 2.18
C 138.16 -0.69 160.84 -0.69 163.72 2.18
C 166.89 5.35 166.89 294.65 163.72 297.82
C 162.46 299.07 156.43 300.00 149.50 300.00
C 142.57 300.00 136.54 299.07 135.28 297.82
M 156.43 290.55
C 159.60 287.38 159.60 12.62 156.43 9.45
C 153.60 6.64 145.40 6.64 142.57 9.45
C 139.40 12.62 139.40 287.38 142.57 290.55
C 143.78 291.75 146.89 292.73 149.50 292.73
C 152.11 292.73 155.22 291.75 156.43 290.55"/>
<path fill="#000000" stroke="none" d="
M 268.37 297.82
C 265.20 294.65 265.20 5.35 268.37 2.18
C 271.25 -0.69 293.93 -0.69 296.81 2.18
C 299.98 5.35 299.98 294.65 296.81 297.82
C 295.55 299.07 289.52 300.00 282.59 300.00
C 275.66 300.00 269.63 299.07 268.37 297.82
M 289.52 290.55
C 292.69 287.38 292.69 12.62 289.52 9.45
C 286.69 6.64 278.49 6.64 275.66 9.45
C 272.49 12.62 272.49 287.38 275.66 290.55
C 276.87 291.75 279.98 292.73 282.59 292.73
C 285.20 292.73 288.32 291.75 289.52 290.55"/>
<path fill="#757575" stroke="none" d="
M 9.33 290.25
C 7.82 288.45 7.40 250.00 7.73 148.93
L 8.20 10.09
L 13.31 8.29
C 16.79 7.07 19.42 7.13 21.51 8.45
C 24.38 10.25 24.65 20.93 25.09 149.09
C 25.41 250.04 25.00 288.45 23.48 290.25
C 22.35 291.62 19.18 292.73 16.41 292.73
C 13.64 292.73 10.47 291.62 9.33 290.25"/>
<path fill="#757575" stroke="none" d="
M 142.57 290.55
C 139.40 287.38 139.40 12.62 142.57 9.45
C 145.40 6.64 153.60 6.64 156.43 9.45
C 159.60 12.62 159.60 287.38 156.43 290.55
C 155.22 291.75 152.11 292.73 149.50 292.73
C 146.89 292.73 143.78 291.75 142.57 290.55"/>
<path fill="#757575" stroke="none" d="
M 275.66 290.55
C 272.49 287.38 272.49 12.62 275.66 9.45
C 278.49 6.64 286.69 6.64 289.52 9.45
C 292.69 12.62 292.69 287.38 289.52 290.55
C 288.32 291.75 285.20 292.73 282.59 292.73
C 279.98 292.73 276.87 291.75 275.66 290.55"/>
</g>
</svg>
