<?xml version="1.0" encoding="UTF-8" standalone="no"?>
<!DOCTYPE svg PUBLIC "-//W3C//DTD SVG 1.1//EN"
"http://www.w3.org/Graphics/SVG/1.1/DTD/svg11.dtd">
<svg width="431px" height="300px"
xmlns="http://www.w3.org/2000/svg" version="1.1">
<g transform="translate(0000, 0000) scale(1.0000, 1.0000)">
<path fill="#000000" stroke="none" d="
M 2.18 297.82
C 0.53 296.16 0.00 260.78 0.00 149.71
C 0.00 7.27 0.09 3.73 3.51 1.89
C 8.37 -0.71 27.88 -0.49 30.55 2.18
C 33.72 5.35 33.72 294.65 30.55 297.82
C 29.30 299.07 23.28 300.00 16.37 300.00
C 9.46 300.00 3.44 299.07 2.18 297.82
M 23.28 290.55
C 26.44 287.38 26.44 12.62 23.28 9.45
C 20.46 6.64 12.28 6.64 9.46 9.45
C 6.29 12.62 6.29 287.38 9.46 290.55
C 10.66 291.75 13.77 292.73 16.37 292.73
C 18.97 292.73 22.08 291.75 23.28 290.55"/>
<path fill="#000000" stroke="none" d="
M 134.94 297.82
C 131.77 294.65 131.77 5.35 134.94 2.18
C 137.81 -0.69 160.43 -0.69 163.31 2.18
C 166.47 5.35 166.47 294.65 163.31 297.82
C 162.05 299.07 156.03 300.00 149.12 300.00
C 142.21 300.00 136.19 299.07 134.94 297.82
M 156.03 290.55
C 159.20 287.38 159.20 12.62 156.03 9.45
C 153.21 6.64 145.03 6.64 142.21 9.45
C 139.05 12.62 139.05 287.38 142.21 290.55
C 143.41 291.75 146.52 292.73 149.12 292.73
C 151.72 292.73 154.83 291.75 156.03 290.55"/>
<path fill="#000000" stroke="none" d="
M 267.69 297.82
C 264.53 294.65 264.53 5.35 267.69 2.18
C 270.57 -0.69 293.19 -0.69 296.06 2.18
C 299.23 5.35 299.23 294.65 296.06 297.82
C 294.81 299.07 288.79 300.00 281.88 300.00
C 274.97 300.00 268.95 299.07 267.69 297.82
M 288.79 290.55
C 291.95 287.38 291.95 12.62 288.79 9.45
C 285.97 6.64 277.79 6.64 274.97 9.45
C 271.80 12.62 271.80 287.38 274.97 290.55
C 276.17 291.75 279.28 292.73 281.88 292.73
C 284.48 292.73 287.59 291.75 288.79 290.55"/>
<path fill="#000000" stroke="none" d="
M 400.45 297.82
C 397.28 294.65 397.28 5.35 400.45 2.18
C 403.32 -0.69 425.94 -0.69 428.82 2.18
C 431.98 5.35 431.98 294.65 428.82 297.82
C 427.56 299.07 421.54 300.00 414.63 300.00
C 407.72 300.00 401.70 299.07 400.45 297.82
M 421.54 290.55
C 424.71 287.38 424.71 12.62 421.54 9.45
C 418.72 6.64 410.54 6.64 407.72 9.45
C 404.56 12.62 404.56 287.38 407.72 290.55
C 408.92 291.75 412.03 292.73 414.63 292.73
C 417.23 292.73 420.34 291.75 421.54 290.55"/>
<path fill="#757575" stroke="none" d="
M 9.31 290.25
C 7.80 288.45 7.38 250.00 7.71 148.93
L 8.18 10.09
L 13.28 8.29
C 16.75 7.07 19.37 7.13 21.46 8.45
C 24.31 10.25 24.59 20.93 25.02 149.09
C 25.35 250.04 24.93 288.45 23.42 290.25
C 22.30 291.62 19.13 292.73 16.37 292.73
C 13.60 292.73 10.44 291.62 9.31 290.25"/>
<path fill="#757575" stroke="none" d="
M 142.21 290.55
C 139.05 287.38 139.05 12.62 142.21 9.45
C 145.03 6.64 153.21 6.64 156.03 9.45
C 159.20 12.62 159.20 287.38 156.03 290.55
C 154.83 291.75 151.72 292.73 149.12 292.73
C 146.52 292.73 143.41 291.75 142.21 290.55"/>
<path fill="#757575" stroke="none" d="
M 274.97 290.55
C 271.80 287.38 271.80 12.62 274.97 9.45
C 277.79 6.64 285.97 6.64 288.79 9.45
C 291.95 12.62 291.95 287.38 288.79 290.55
C 287.59 291.75 284.48 292.73 281.88 292.73
C 279.28 292.73 276.17 291.75 274.97 290.55"/>
<path fill="#757575" stroke="none" d="
M 407.72 290.55
C 404.56 287.38 404.56 12.62 407.72 9.45
C 410.54 6.64 418.72 6.64 421.54 9.45
C 424.71 12.62 424.71 287.38 421.54 290.55
C 420.34 291.75 417.23 292.73 414.63 292.73
C 412.03 292.73 408.92 291.75 407.72 290.55"/>
</g>
</svg>
