<?xml version="1.0" encoding="UTF-8" standalone="no"?>
<!DOCTYPE svg PUBLIC "-//W3C//DTD SVG 1.1//EN"
"http://www.w3.org/Graphics/SVG/1.1/DTD/svg11.dtd">
<svg width="294px" height="600px"
xmlns="http://www.w3.org/2000/svg" version="1.1">
<g transform="translate(0000, 0000) scale(1.0000, 1.0000)">
<path fill="#000000" stroke="none" d="
M 2.76 598.49
C 0.59 596.32 0.59 450.54 2.76 448.37
C 3.63 447.50 7.79 446.86 12.56 446.86
C 17.34 446.86 21.50 447.50 22.36 448.37
C 24.54 450.54 24.54 596.32 22.36 598.49
C 20.38 600.48 4.75 600.48 2.76 598.49
M 17.34 593.47
C 19.51 591.30 19.51 455.56 17.34 453.39
C 15.39 451.44 9.74 451.44 7.79 453.39
C 5.62 455.56 5.62 591.30 7.79 593.47
C 8.62 594.30 10.77 594.98 12.56 594.98
C 14.36 594.98 16.51 594.30 17.34 593.47"/>
<path fill="#000000" stroke="none" d="
M 138.46 598.49
C 136.28 596.32 136.28 450.54 138.46 448.37
C 139.32 447.50 143.48 446.86 148.26 446.86
C 153.03 446.86 157.19 447.50 158.06 448.37
C 160.23 450.54 160.23 596.32 158.06 598.49
C 156.07 600.48 140.44 600.48 138.46 598.49
M 153.03 593.47
C 155.20 591.30 155.20 455.56 153.03 453.39
C 151.08 451.44 145.43 451.44 143.48 453.39
C 141.31 455.56 141.31 591.30 143.48 593.47
C 144.31 594.30 146.46 594.98 148.26 594.98
C 150.05 594.98 152.20 594.30 153.03 593.47"/>
<path fill="#000000" stroke="none" d="
M 272.89 598.49
C 270.72 596.32 270.72 450.54 272.89 448.37
C 273.76 447.50 277.92 446.86 282.69 446.86
C 287.47 446.86 291.63 447.50 292.49 448.37
C 294.67 450.54 294.67 596.32 292.49 598.49
C 290.51 600.48 274.88 600.48 272.89 598.49
M 287.47 593.47
C 289.64 591.30 289.64 455.56 287.47 453.39
C 285.52 451.44 279.87 451.44 277.92 453.39
C 275.74 455.56 275.74 591.30 277.92 593.47
C 278.75 594.30 280.90 594.98 282.69 594.98
C 284.49 594.98 286.64 594.30 287.47 593.47"/>
<path fill="#000000" stroke="none" d="
M 2.76 372.55
C 0.59 370.38 0.59 224.60 2.76 222.43
C 3.63 221.56 7.79 220.92 12.56 220.92
C 17.34 220.92 21.50 221.56 22.36 222.43
C 24.54 224.60 24.54 370.38 22.36 372.55
C 20.38 374.54 4.75 374.54 2.76 372.55
M 17.34 367.53
C 19.51 365.36 19.51 229.62 17.34 227.45
C 15.39 225.50 9.74 225.50 7.79 227.45
C 5.62 229.62 5.62 365.36 7.79 367.53
C 8.62 368.36 10.77 369.04 12.56 369.04
C 14.36 369.04 16.51 368.36 17.34 367.53"/>
<path fill="#000000" stroke="none" d="
M 138.46 372.55
C 136.28 370.38 136.28 224.60 138.46 222.43
C 139.32 221.56 143.48 220.92 148.26 220.92
C 153.03 220.92 157.19 221.56 158.06 222.43
C 160.23 224.60 160.23 370.38 158.06 372.55
C 156.07 374.54 140.44 374.54 138.46 372.55
M 153.03 367.53
C 155.20 365.36 155.20 229.62 153.03 227.45
C 151.08 225.50 145.43 225.50 143.48 227.45
C 141.31 229.62 141.31 365.36 143.48 367.53
C 144.31 368.36 146.46 369.04 148.26 369.04
C 150.05 369.04 152.20 368.36 153.03 367.53"/>
<path fill="#000000" stroke="none" d="
M 272.89 372.55
C 270.72 370.38 270.72 224.60 272.89 222.43
C 273.76 221.56 277.92 220.92 282.69 220.92
C 287.47 220.92 291.63 221.56 292.49 222.43
C 294.67 224.60 294.67 370.38 292.49 372.55
C 290.51 374.54 274.88 374.54 272.89 372.55
M 287.47 367.53
C 289.64 365.36 289.64 229.62 287.47 227.45
C 285.52 225.50 279.87 225.50 277.92 227.45
C 275.74 229.62 275.74 365.36 277.92 367.53
C 278.75 368.36 280.90 369.04 282.69 369.04
C 284.49 369.04 286.64 368.36 287.47 367.53"/>
<path fill="#000000" stroke="none" d="
M 1.51 151.63
C 0.36 150.49 0.00 132.06 0.00 76.37
C 0.00 4.72 0.08 2.56 2.42 1.31
C 5.78 -0.49 19.26 -0.34 21.11 1.51
C 23.28 3.68 23.28 149.46 21.11 151.63
C 20.24 152.50 16.08 153.14 11.31 153.14
C 6.53 153.14 2.37 152.50 1.51 151.63
M 16.08 146.61
C 18.26 144.44 18.26 8.70 16.08 6.53
C 14.13 4.58 8.48 4.58 6.53 6.53
C 4.36 8.70 4.36 144.44 6.53 146.61
C 8.48 148.56 14.13 148.56 16.08 146.61"/>
<path fill="#000000" stroke="none" d="
M 137.20 151.63
C 135.03 149.46 135.03 3.68 137.20 1.51
C 139.19 -0.48 154.81 -0.48 156.80 1.51
C 158.97 3.68 158.97 149.46 156.80 151.63
C 155.93 152.50 151.77 153.14 147.00 153.14
C 142.23 153.14 138.07 152.50 137.20 151.63
M 151.77 146.61
C 153.95 144.44 153.95 8.70 151.77 6.53
C 149.83 4.58 144.17 4.58 142.23 6.53
C 140.05 8.70 140.05 144.44 142.23 146.61
C 144.17 148.56 149.83 148.56 151.77 146.61"/>
<path fill="#000000" stroke="none" d="
M 272.89 151.63
C 270.72 149.46 270.72 3.68 272.89 1.51
C 274.88 -0.48 290.51 -0.48 292.49 1.51
C 294.67 3.68 294.67 149.46 292.49 151.63
C 291.63 152.50 287.47 153.14 282.69 153.14
C 277.92 153.14 273.76 152.50 272.89 151.63
M 287.47 146.61
C 289.64 144.44 289.64 8.70 287.47 6.53
C 285.52 4.58 279.87 4.58 277.92 6.53
C 275.74 8.70 275.74 144.44 277.92 146.61
C 279.87 148.56 285.52 148.56 287.47 146.61"/>
<path fill="#757575" stroke="none" d="
M 7.79 593.47
C 5.62 591.30 5.62 455.56 7.79 453.39
C 9.74 451.44 15.39 451.44 17.34 453.39
C 19.51 455.56 19.51 591.30 17.34 593.47
C 16.51 594.30 14.36 594.98 12.56 594.98
C 10.77 594.98 8.62 594.30 7.79 593.47"/>
<path fill="#757575" stroke="none" d="
M 143.48 593.47
C 141.31 591.30 141.31 455.56 143.48 453.39
C 145.43 451.44 151.08 451.44 153.03 453.39
C 155.20 455.56 155.20 591.30 153.03 593.47
C 152.20 594.30 150.05 594.98 148.26 594.98
C 146.46 594.98 144.31 594.30 143.48 593.47"/>
<path fill="#757575" stroke="none" d="
M 277.92 593.47
C 275.74 591.30 275.74 455.56 277.92 453.39
C 279.87 451.44 285.52 451.44 287.47 453.39
C 289.64 455.56 289.64 591.30 287.47 593.47
C 286.64 594.30 284.49 594.98 282.69 594.98
C 280.90 594.98 278.75 594.30 277.92 593.47"/>
<path fill="#757575" stroke="none" d="
M 7.79 367.53
C 5.62 365.36 5.62 229.62 7.79 227.45
C 9.74 225.50 15.39 225.50 17.34 227.45
C 19.51 229.62 19.51 365.36 17.34 367.53
C 16.51 368.36 14.36 369.04 12.56 369.04
C 10.77 369.04 8.62 368.36 7.79 367.53"/>
<path fill="#757575" stroke="none" d="
M 143.48 367.53
C 141.31 365.36 141.31 229.62 143.48 227.45
C 145.43 225.50 151.08 225.50 153.03 227.45
C 155.20 229.62 155.20 365.36 153.03 367.53
C 152.20 368.36 150.05 369.04 148.26 369.04
C 146.46 369.04 144.31 368.36 143.48 367.53"/>
<path fill="#757575" stroke="none" d="
M 277.92 367.53
C 275.74 365.36 275.74 229.62 277.92 227.45
C 279.87 225.50 285.52 225.50 287.47 227.45
C 289.64 229.62 289.64 365.36 287.47 367.53
C 286.64 368.36 284.49 369.04 282.69 369.04
C 280.90 369.04 278.75 368.36 277.92 367.53"/>
<path fill="#757575" stroke="none" d="
M 6.42 146.41
C 5.40 145.17 5.09 125.65 5.33 75.83
L 5.65 6.97
L 9.17 5.72
C 11.57 4.88 13.38 4.92 14.83 5.84
C 16.79 7.07 16.99 12.84 17.29 75.94
C 17.53 125.67 17.21 145.17 16.20 146.41
C 15.40 147.35 13.22 148.12 11.31 148.12
C 9.40 148.12 7.21 147.35 6.42 146.41"/>
<path fill="#757575" stroke="none" d="
M 142.23 146.61
C 140.05 144.44 140.05 8.70 142.23 6.53
C 144.17 4.58 149.83 4.58 151.77 6.53
C 153.95 8.70 153.95 144.44 151.77 146.61
C 149.83 148.56 144.17 148.56 142.23 146.61"/>
<path fill="#757575" stroke="none" d="
M 277.92 146.61
C 275.74 144.44 275.74 8.70 277.92 6.53
C 279.87 4.58 285.52 4.58 287.47 6.53
C 289.64 8.70 289.64 144.44 287.47 146.61
C 285.52 148.56 279.87 148.56 277.92 146.61"/>
</g>
</svg>
