<?xml version="1.0" encoding="UTF-8" standalone="no"?>
<!DOCTYPE svg PUBLIC "-//W3C//DTD SVG 1.1//EN"
"http://www.w3.org/Graphics/SVG/1.1/DTD/svg11.dtd">
<svg width="300px" height="039px"
xmlns="http://www.w3.org/2000/svg" version="1.1">
<g transform="translate(0000, 0000) scale(1.0000, 1.0000)">
<path fill="#000000" stroke="none" d="
M 2.57 36.40
C 1.07 34.88 0.00 27.65 0.00 19.15
C 0.00 6.87 0.66 4.12 4.14 2.25
C 10.48 -1.19 294.02 -0.84 297.43 2.60
C 300.81 6.02 300.81 32.98 297.43 36.40
C 293.70 40.17 6.30 40.17 2.57 36.40
M 288.86 27.73
C 292.18 24.38 292.18 14.62 288.86 11.27
C 285.15 7.52 14.85 7.52 11.14 11.27
C 7.82 14.62 7.82 24.38 11.14 27.73
C 14.85 31.48 285.15 31.48 288.86 27.73"/>
<path fill="#757575" stroke="none" d="
M 11.14 27.73
C 7.07 23.62 8.01 13.45 12.71 10.92
C 19.03 7.50 285.47 7.84 288.86 11.27
C 292.18 14.62 292.18 24.38 288.86 27.73
C 285.15 31.48 14.85 31.48 11.14 27.73"/>
</g>
</svg>
