<?xml version="1.0" encoding="UTF-8" standalone="no"?>
<!DOCTYPE svg PUBLIC "-//W3C//DTD SVG 1.1//EN"
"http://www.w3.org/Graphics/SVG/1.1/DTD/svg11.dtd">
<svg width="300px" height="414px"
xmlns="http://www.w3.org/2000/svg" version="1.1">
<g transform="translate(0000, 0000) scale(1.0000, 1.0000)">
<path fill="#000000" stroke="none" d="
M 2.61 411.39
C -0.78 407.99 -0.78 385.15 2.61 381.75
C 6.39 377.96 293.61 377.96 297.39 381.75
C 298.83 383.19 300.00 389.86 300.00 396.57
C 300.00 403.28 298.83 409.95 297.39 411.39
C 293.61 415.18 6.39 415.18 2.61 411.39
M 289.98 400.38
C 291.72 397.59 291.72 395.54 289.98 392.76
C 287.74 389.20 278.35 388.90 151.09 388.38
C 52.09 387.98 13.80 388.51 11.65 390.27
C 8.00 393.32 7.83 399.18 11.33 402.69
C 13.33 404.70 46.15 405.18 150.76 404.76
C 278.35 404.24 287.74 403.93 289.98 400.38"/>
<path fill="#000000" stroke="none" d="
M 2.61 221.82
C -0.78 218.42 -0.78 195.58 2.61 192.18
C 6.39 188.39 293.61 188.39 297.39 192.18
C 298.83 193.62 300.00 200.29 300.00 207.00
C 300.00 213.71 298.83 220.38 297.39 221.82
C 293.61 225.61 6.39 225.61 2.61 221.82
M 289.98 210.81
C 291.72 208.02 291.72 205.98 289.98 203.19
C 287.74 199.64 278.35 199.33 151.09 198.81
C 52.09 198.41 13.80 198.94 11.65 200.70
C 8.00 203.75 7.83 209.61 11.33 213.12
C 13.33 215.13 46.15 215.61 150.76 215.19
C 278.35 214.67 287.74 214.36 289.98 210.81"/>
<path fill="#000000" stroke="none" d="
M 2.61 32.25
C 1.17 30.81 0.00 23.99 0.00 17.08
C 0.00 6.89 0.80 4.07 4.20 2.27
C 10.63 -1.18 293.93 -0.85 297.39 2.61
C 298.83 4.05 300.00 10.72 300.00 17.43
C 300.00 24.14 298.83 30.81 297.39 32.25
C 293.61 36.04 6.39 36.04 2.61 32.25
M 289.98 21.24
C 291.72 18.46 291.72 16.41 289.98 13.62
C 287.74 10.07 278.35 9.76 151.09 9.24
C 52.09 8.85 13.80 9.37 11.65 11.13
C 8.00 14.18 7.83 20.05 11.33 23.55
C 13.33 25.56 46.15 26.04 150.76 25.62
C 278.35 25.10 287.74 24.80 289.98 21.24"/>
<path fill="#757575" stroke="none" d="
M 11.33 402.69
C 7.83 399.18 8.00 393.32 11.65 390.27
C 13.80 388.51 52.09 387.98 151.09 388.38
C 278.35 388.90 287.74 389.20 289.98 392.76
C 291.72 395.54 291.72 397.59 289.98 400.38
C 287.74 403.93 278.35 404.24 150.76 404.76
C 46.15 405.18 13.33 404.70 11.33 402.69"/>
<path fill="#757575" stroke="none" d="
M 11.33 213.12
C 7.83 209.61 8.00 203.75 11.65 200.70
C 13.80 198.94 52.09 198.41 151.09 198.81
C 278.35 199.33 287.74 199.64 289.98 203.19
C 291.72 205.98 291.72 208.02 289.98 210.81
C 287.74 214.36 278.35 214.67 150.76 215.19
C 46.15 215.61 13.33 215.13 11.33 213.12"/>
<path fill="#757575" stroke="none" d="
M 11.33 23.55
C 7.37 19.59 8.15 13.51 12.93 10.96
C 15.78 9.43 61.65 8.87 152.37 9.24
C 278.41 9.76 287.74 10.07 289.98 13.62
C 291.72 16.41 291.72 18.46 289.98 21.24
C 287.74 24.80 278.35 25.10 150.76 25.62
C 46.15 26.04 13.33 25.56 11.33 23.55"/>
</g>
</svg>
