<?xml version="1.0" encoding="UTF-8" standalone="no"?>
<!DOCTYPE svg PUBLIC "-//W3C//DTD SVG 1.1//EN"
"http://www.w3.org/Graphics/SVG/1.1/DTD/svg11.dtd">
<svg width="299px" height="600px"
xmlns="http://www.w3.org/2000/svg" version="1.1">
<g transform="translate(0000, 0000) scale(1.0000, 1.0000)">
<path fill="#000000" stroke="none" d="
M 2.60 597.40
C -0.78 594.02 -0.78 571.32 2.60 567.94
C 6.37 564.17 292.63 564.17 296.40 567.94
C 297.83 569.37 299.00 576.00 299.00 582.67
C 299.00 589.34 297.83 595.97 296.40 597.40
C 292.63 601.17 6.37 601.17 2.60 597.40
M 289.01 586.46
C 290.74 583.69 290.74 581.65 289.01 578.88
C 286.78 575.35 277.42 575.05 150.58 574.53
C 51.91 574.14 13.76 574.66 11.61 576.41
C 7.97 579.44 7.80 585.27 11.29 588.76
C 13.28 590.75 46.00 591.23 150.26 590.82
C 277.42 590.30 286.78 589.99 289.01 586.46"/>
<path fill="#000000" stroke="none" d="
M 2.60 408.95
C -0.78 405.57 -0.78 382.87 2.60 379.49
C 6.37 375.73 292.63 375.73 296.40 379.49
C 297.83 380.92 299.00 387.55 299.00 394.22
C 299.00 400.90 297.83 407.52 296.40 408.95
C 292.63 412.72 6.37 412.72 2.60 408.95
M 289.01 398.01
C 290.74 395.24 290.74 393.21 289.01 390.43
C 286.78 386.90 277.42 386.60 150.58 386.08
C 51.91 385.69 13.76 386.21 11.61 387.96
C 7.97 391.00 7.80 396.82 11.29 400.31
C 13.28 402.30 46.00 402.78 150.26 402.37
C 277.42 401.85 286.78 401.55 289.01 398.01"/>
<path fill="#000000" stroke="none" d="
M 2.60 220.51
C -0.78 217.13 -0.78 194.43 2.60 191.05
C 6.37 187.28 292.63 187.28 296.40 191.05
C 297.83 192.48 299.00 199.10 299.00 205.78
C 299.00 212.45 297.83 219.08 296.40 220.51
C 292.63 224.27 6.37 224.27 2.60 220.51
M 289.01 209.57
C 290.74 206.79 290.74 204.76 289.01 201.99
C 286.78 198.45 277.42 198.15 150.58 197.63
C 51.91 197.24 13.76 197.76 11.61 199.52
C 7.97 202.55 7.80 208.38 11.29 211.86
C 13.28 213.86 46.00 214.33 150.26 213.92
C 277.42 213.40 286.78 213.10 289.01 209.57"/>
<path fill="#000000" stroke="none" d="
M 2.60 32.06
C 1.17 30.63 0.00 23.85 0.00 16.98
C 0.00 6.84 0.80 4.05 4.18 2.25
C 10.59 -1.17 292.95 -0.84 296.40 2.60
C 297.83 4.03 299.00 10.66 299.00 17.33
C 299.00 24.00 297.83 30.63 296.40 32.06
C 292.63 35.83 6.37 35.83 2.60 32.06
M 289.01 21.12
C 290.74 18.35 290.74 16.31 289.01 13.54
C 286.78 10.01 277.42 9.70 150.58 9.18
C 51.91 8.79 13.76 9.31 11.61 11.07
C 7.97 14.10 7.80 19.93 11.29 23.42
C 13.28 25.41 46.00 25.88 150.26 25.47
C 277.42 24.95 286.78 24.65 289.01 21.12"/>
<path fill="#757575" stroke="none" d="
M 11.29 588.76
C 7.80 585.27 7.97 579.44 11.61 576.41
C 13.76 574.66 51.91 574.14 150.58 574.53
C 277.42 575.05 286.78 575.35 289.01 578.88
C 290.74 581.65 290.74 583.69 289.01 586.46
C 286.78 589.99 277.42 590.30 150.26 590.82
C 46.00 591.23 13.28 590.75 11.29 588.76"/>
<path fill="#757575" stroke="none" d="
M 11.29 400.31
C 7.80 396.82 7.97 391.00 11.61 387.96
C 13.76 386.21 51.91 385.69 150.58 386.08
C 277.42 386.60 286.78 386.90 289.01 390.43
C 290.74 393.21 290.74 395.24 289.01 398.01
C 286.78 401.55 277.42 401.85 150.26 402.37
C 46.00 402.78 13.28 402.30 11.29 400.31"/>
<path fill="#757575" stroke="none" d="
M 11.29 211.86
C 7.80 208.38 7.97 202.55 11.61 199.52
C 13.76 197.76 51.91 197.24 150.58 197.63
C 277.42 198.15 286.78 198.45 289.01 201.99
C 290.74 204.76 290.74 206.79 289.01 209.57
C 286.78 213.10 277.42 213.40 150.26 213.92
C 46.00 214.33 13.28 213.86 11.29 211.86"/>
<path fill="#757575" stroke="none" d="
M 11.29 23.42
C 7.34 19.47 8.12 13.43 12.89 10.90
C 15.73 9.38 61.45 8.82 151.86 9.18
C 277.48 9.70 286.78 10.01 289.01 13.54
C 290.74 16.31 290.74 18.35 289.01 21.12
C 286.78 24.65 277.42 24.95 150.26 25.47
C 46.00 25.88 13.28 25.41 11.29 23.42"/>
</g>
</svg>
