<?xml version="1.0" encoding="UTF-8" standalone="no"?>
<!DOCTYPE svg PUBLIC "-//W3C//DTD SVG 1.1//EN"
"http://www.w3.org/Graphics/SVG/1.1/DTD/svg11.dtd">
<svg width="650px" height="200px"
xmlns="http://www.w3.org/2000/svg" version="1.1">
<g transform="translate(0000, 0000) scale(1.0000, 1.0000)">
<path fill="#000000" stroke="none" d="
M 2.58 197.42
C 0.05 194.89 0.00 193.12 0.00 100.25
C 0.00 20.66 0.28 5.25 1.83 3.15
C 3.49 0.88 5.63 0.61 24.36 0.23
C 43.85 -0.15 45.20 -0.03 47.72 2.49
C 50.38 5.15 50.40 5.85 50.40 100.00
C 50.40 193.12 50.35 194.89 47.81 197.42
C 45.45 199.78 43.51 200.00 25.20 200.00
C 6.89 200.00 4.95 199.78 2.58 197.42
M 41.09 190.71
C 43.34 188.46 43.34 11.54 41.09 9.29
C 38.96 7.16 11.44 7.16 9.30 9.29
C 7.06 11.54 7.06 188.46 9.30 190.71
C 10.33 191.73 15.77 192.26 25.20 192.26
C 34.63 192.26 40.07 191.73 41.09 190.71"/>
<path fill="#000000" stroke="none" d="
M 302.39 197.42
C 299.85 194.89 299.80 193.12 299.80 100.00
C 299.80 6.88 299.85 5.11 302.39 2.58
C 304.74 0.23 306.69 0.00 324.35 0.00
C 342.02 0.00 343.97 0.23 346.32 2.58
C 348.85 5.11 348.91 6.88 348.91 100.00
C 348.91 193.12 348.85 194.89 346.32 197.42
C 343.97 199.77 342.02 200.00 324.35 200.00
C 306.69 200.00 304.74 199.77 302.39 197.42
M 339.60 190.71
C 341.85 188.46 341.85 11.54 339.60 9.29
C 337.47 7.16 311.24 7.16 309.11 9.29
C 306.86 11.54 306.86 188.46 309.11 190.71
C 310.11 191.72 315.42 192.26 324.35 192.26
C 333.28 192.26 338.59 191.72 339.60 190.71"/>
<path fill="#000000" stroke="none" d="
M 603.48 197.42
C 600.95 194.89 600.89 193.12 600.89 100.00
C 600.89 6.88 600.95 5.11 603.48 2.58
C 605.83 0.23 607.78 0.00 625.45 0.00
C 643.11 0.00 645.06 0.23 647.42 2.58
C 649.95 5.11 650.00 6.88 650.00 100.00
C 650.00 193.12 649.95 194.89 647.42 197.42
C 645.06 199.77 643.11 200.00 625.45 200.00
C 607.78 200.00 605.83 199.77 603.48 197.42
M 640.70 190.71
C 642.94 188.46 642.94 11.54 640.70 9.29
C 638.56 7.16 612.33 7.16 610.20 9.29
C 607.95 11.54 607.95 188.46 610.20 190.71
C 611.21 191.72 616.52 192.26 625.45 192.26
C 634.38 192.26 639.69 191.72 640.70 190.71"/>
<path fill="#757575" stroke="none" d="
M 9.30 190.71
C 8.13 189.54 7.75 167.57 7.75 99.79
C 7.75 12.75 7.82 10.37 10.25 9.08
C 13.83 7.17 39.14 7.34 41.09 9.29
C 43.34 11.54 43.34 188.46 41.09 190.71
C 40.07 191.73 34.63 192.26 25.20 192.26
C 15.77 192.26 10.33 191.73 9.30 190.71"/>
<path fill="#757575" stroke="none" d="
M 309.11 190.71
C 306.86 188.46 306.86 11.54 309.11 9.29
C 311.24 7.16 337.47 7.16 339.60 9.29
C 341.85 11.54 341.85 188.46 339.60 190.71
C 338.59 191.72 333.28 192.26 324.35 192.26
C 315.42 192.26 310.11 191.72 309.11 190.71"/>
<path fill="#757575" stroke="none" d="
M 610.20 190.71
C 607.95 188.46 607.95 11.54 610.20 9.29
C 612.33 7.16 638.56 7.16 640.70 9.29
C 642.94 11.54 642.94 188.46 640.70 190.71
C 639.69 191.72 634.38 192.26 625.45 192.26
C 616.52 192.26 611.21 191.72 610.20 190.71"/>
</g>
</svg>
