<?xml version="1.0" encoding="UTF-8" standalone="no"?>
<!DOCTYPE svg PUBLIC "-//W3C//DTD SVG 1.1//EN"
"http://www.w3.org/Graphics/SVG/1.1/DTD/svg11.dtd">
<svg width="486px" height="200px"
xmlns="http://www.w3.org/2000/svg" version="1.1">
<g transform="translate(0000, 0000) scale(1.0000, 1.0000)">
<path fill="#000000" stroke="none" d="
M 2.59 197.42
C 0.05 194.89 0.00 193.12 0.00 100.25
C 0.00 20.66 0.28 5.25 1.84 3.15
C 3.49 0.88 5.64 0.61 24.36 0.23
C 43.86 -0.15 45.21 -0.03 47.73 2.49
C 50.40 5.15 50.41 5.85 50.41 100.00
C 50.41 193.12 50.36 194.89 47.82 197.42
C 45.46 199.78 43.52 200.00 25.20 200.00
C 6.89 200.00 4.95 199.78 2.59 197.42
M 41.10 190.71
C 43.35 188.46 43.35 11.54 41.10 9.29
C 38.97 7.16 11.44 7.16 9.31 9.29
C 7.06 11.54 7.06 188.46 9.31 190.71
C 10.33 191.73 15.77 192.26 25.20 192.26
C 34.64 192.26 40.08 191.73 41.10 190.71"/>
<path fill="#000000" stroke="none" d="
M 221.03 197.42
C 218.49 194.89 218.44 193.12 218.44 100.00
C 218.44 6.88 218.49 5.11 221.03 2.58
C 223.38 0.23 225.33 0.00 243.00 0.00
C 260.67 0.00 262.62 0.23 264.97 2.58
C 267.51 5.11 267.56 6.88 267.56 100.00
C 267.56 193.12 267.51 194.89 264.97 197.42
C 262.62 199.77 260.67 200.00 243.00 200.00
C 225.33 200.00 223.38 199.77 221.03 197.42
M 258.25 190.71
C 260.50 188.46 260.50 11.54 258.25 9.29
C 256.12 7.16 229.88 7.16 227.75 9.29
C 225.50 11.54 225.50 188.46 227.75 190.71
C 228.76 191.72 234.07 192.26 243.00 192.26
C 251.93 192.26 257.24 191.72 258.25 190.71"/>
<path fill="#000000" stroke="none" d="
M 438.18 197.42
C 435.64 194.89 435.59 193.12 435.59 100.00
C 435.59 6.88 435.64 5.11 438.18 2.58
C 440.54 0.22 442.48 0.00 460.80 0.00
C 479.11 0.00 481.05 0.22 483.41 2.58
C 485.95 5.11 486.00 6.88 486.00 100.00
C 486.00 193.12 485.95 194.89 483.41 197.42
C 481.05 199.78 479.11 200.00 460.80 200.00
C 442.48 200.00 440.54 199.78 438.18 197.42
M 476.69 190.71
C 478.94 188.46 478.94 11.54 476.69 9.29
C 474.56 7.16 447.03 7.16 444.90 9.29
C 442.65 11.54 442.65 188.46 444.90 190.71
C 445.92 191.73 451.36 192.26 460.80 192.26
C 470.23 192.26 475.67 191.73 476.69 190.71"/>
<path fill="#757575" stroke="none" d="
M 9.31 190.71
C 8.13 189.54 7.76 167.57 7.76 99.79
C 7.76 12.75 7.82 10.37 10.25 9.08
C 13.83 7.17 39.15 7.34 41.10 9.29
C 43.35 11.54 43.35 188.46 41.10 190.71
C 40.08 191.73 34.64 192.26 25.20 192.26
C 15.77 192.26 10.33 191.73 9.31 190.71"/>
<path fill="#757575" stroke="none" d="
M 227.75 190.71
C 225.50 188.46 225.50 11.54 227.75 9.29
C 229.88 7.16 256.12 7.16 258.25 9.29
C 260.50 11.54 260.50 188.46 258.25 190.71
C 257.24 191.72 251.93 192.26 243.00 192.26
C 234.07 192.26 228.76 191.72 227.75 190.71"/>
<path fill="#757575" stroke="none" d="
M 444.90 190.71
C 442.65 188.46 442.65 11.54 444.90 9.29
C 447.03 7.16 474.56 7.16 476.69 9.29
C 478.94 11.54 478.94 188.46 476.69 190.71
C 475.67 191.73 470.23 192.26 460.80 192.26
C 451.36 192.26 445.92 191.73 444.90 190.71"/>
</g>
</svg>
