<?xml version="1.0" encoding="UTF-8" standalone="no"?>
<!DOCTYPE svg PUBLIC "-//W3C//DTD SVG 1.1//EN"
"http://www.w3.org/Graphics/SVG/1.1/DTD/svg11.dtd">
<svg width="042px" height="600px"
xmlns="http://www.w3.org/2000/svg" version="1.1">
<g transform="translate(0000, 0000) scale(1.0000, 1.0000)">
<path fill="#000000" stroke="none" d="
M 2.60 597.40
C -0.03 594.82 -0.05 593.60 0.30 520.69
C 0.64 449.02 0.74 446.51 3.20 444.75
C 5.05 443.42 9.84 442.92 20.59 442.92
C 33.69 442.92 35.75 443.23 38.06 445.49
C 40.62 448.00 40.69 449.78 40.69 521.46
C 40.69 593.14 40.62 594.91 38.06 597.42
C 35.74 599.70 33.69 600.00 20.34 600.00
C 6.94 600.00 4.95 599.70 2.60 597.40
M 31.24 590.73
C 33.51 588.50 33.51 454.42 31.24 452.19
C 29.15 450.14 11.54 450.14 9.45 452.19
C 7.18 454.42 7.18 588.50 9.45 590.73
C 11.54 592.78 29.15 592.78 31.24 590.73"/>
<path fill="#000000" stroke="none" d="
M 2.62 375.97
C 0.07 373.45 0.00 371.68 0.00 300.00
C 0.00 228.32 0.07 226.55 2.62 224.03
C 4.95 221.76 7.00 221.46 20.34 221.46
C 33.69 221.46 35.74 221.76 38.06 224.03
C 40.62 226.55 40.69 228.32 40.69 300.00
C 40.69 371.68 40.62 373.45 38.06 375.97
C 35.74 378.24 33.69 378.54 20.34 378.54
C 7.00 378.54 4.95 378.24 2.62 375.97
M 32.50 301.43
C 32.75 251.74 32.42 232.21 31.36 230.94
C 29.44 228.68 11.71 228.52 9.45 230.73
C 7.14 233.00 7.18 367.04 9.50 369.32
C 10.59 370.39 14.58 370.79 21.64 370.55
L 32.16 370.17
L 32.50 301.43"/>
<path fill="#000000" stroke="none" d="
M 2.60 154.48
C -0.01 151.92 -0.05 150.68 0.30 77.94
C 0.58 19.36 1.01 3.64 2.36 2.32
C 3.52 1.18 9.27 0.50 20.28 0.19
C 35.33 -0.23 36.68 -0.06 39.24 2.45
C 41.97 5.12 42.00 5.70 42.00 78.54
C 42.00 150.22 41.93 152.00 39.38 154.51
C 37.04 156.80 35.00 157.08 21.00 157.08
C 6.94 157.08 4.96 156.80 2.60 154.48
M 32.55 147.81
C 34.82 145.58 34.82 11.50 32.55 9.27
C 30.45 7.21 11.55 7.21 9.45 9.27
C 7.18 11.50 7.18 145.58 9.45 147.81
C 10.39 148.74 14.99 149.36 21.00 149.36
C 27.01 149.36 31.60 148.74 32.55 147.81"/>
<path fill="#757575" stroke="none" d="
M 9.45 590.73
C 7.18 588.50 7.18 454.42 9.45 452.19
C 11.54 450.14 29.15 450.14 31.24 452.19
C 33.51 454.42 33.51 588.50 31.24 590.73
C 29.15 592.78 11.54 592.78 9.45 590.73"/>
<path fill="#757575" stroke="none" d="
M 9.50 369.32
C 7.18 367.04 7.14 233.00 9.45 230.73
C 11.71 228.52 29.44 228.68 31.36 230.94
C 32.42 232.21 32.75 251.74 32.50 301.43
L 32.16 370.17
L 21.64 370.55
C 14.58 370.79 10.59 370.39 9.50 369.32"/>
<path fill="#757575" stroke="none" d="
M 9.45 147.81
C 8.27 146.65 7.88 129.45 7.88 78.33
C 7.88 12.48 7.95 10.35 10.41 9.06
C 13.95 7.20 30.61 7.36 32.55 9.27
C 34.82 11.50 34.82 145.58 32.55 147.81
C 31.60 148.74 27.01 149.36 21.00 149.36
C 14.99 149.36 10.39 148.74 9.45 147.81"/>
</g>
</svg>
