<?xml version="1.0" encoding="UTF-8" standalone="no"?>
<!DOCTYPE svg PUBLIC "-//W3C//DTD SVG 1.1//EN"
"http://www.w3.org/Graphics/SVG/1.1/DTD/svg11.dtd">
<svg width="606px" height="500px"
xmlns="http://www.w3.org/2000/svg" version="1.1">
<g transform="translate(0000, 0000) scale(1.0000, 1.0000)">
<path fill="#000000" stroke="none" d="
M 211.92 494.05
C 207.71 487.64 13.35 51.41 4.93 29.49
C -1.82 11.87 -1.57 3.05 5.78 1.23
C 8.96 0.44 26.58 0.13 44.94 0.54
L 78.32 1.28
L 85.15 14.10
C 90.72 24.56 273.88 446.00 284.77 473.41
C 286.54 477.82 287.59 485.33 287.13 490.08
L 286.31 498.72
L 251.10 499.44
C 216.54 500.13 215.82 500.03 211.92 494.05
M 273.65 483.13
C 271.42 474.21 83.53 40.59 74.88 24.36
L 68.05 11.54
L 40.24 10.82
L 12.43 10.08
L 14.17 15.95
C 17.00 25.41 217.80 477.13 222.14 483.72
C 225.84 489.36 227.71 489.74 250.69 489.74
L 275.32 489.74
L 273.65 483.13"/>
<path fill="#000000" stroke="none" d="
M 527.71 491.74
C 525.60 487.10 477.58 378.95 421.02 251.36
C 338.41 65.03 318.30 17.59 318.92 10.33
L 319.69 1.28
L 359.41 1.28
L 399.14 1.28
L 465.31 153.85
C 604.84 475.49 606.36 479.10 605.51 489.26
L 604.72 498.72
L 568.12 499.44
L 531.51 500.13
L 527.71 491.74
M 592.03 483.08
C 591.11 479.41 545.04 371.79 489.63 243.97
L 388.89 11.54
L 360.08 10.82
C 341.36 10.33 331.25 11.03 331.25 12.74
C 331.25 14.23 376.18 116.67 431.08 240.41
C 485.98 364.15 533.31 470.87 536.21 477.56
L 541.52 489.74
L 567.61 489.74
L 593.73 489.74
L 592.03 483.08"/>
<path fill="#757575" stroke="none" d="
M 222.14 483.72
C 216.65 475.38 16.00 23.00 14.97 16.67
C 14.17 11.82 15.56 11.54 41.08 11.54
L 68.05 11.54
L 74.88 24.36
C 83.53 40.59 271.42 474.21 273.65 483.13
L 275.32 489.74
L 250.69 489.74
C 227.71 489.74 225.84 489.36 222.14 483.72"/>
<path fill="#757575" stroke="none" d="
M 536.21 477.56
C 533.31 470.87 485.98 364.15 431.08 240.41
C 376.18 116.67 331.25 14.23 331.25 12.74
C 331.25 11.03 341.36 10.33 360.08 10.82
L 388.89 11.54
L 489.63 243.97
C 545.04 371.79 591.11 479.41 592.03 483.08
L 593.73 489.74
L 567.61 489.74
L 541.52 489.74
L 536.21 477.56"/>
</g>
</svg>
