<?xml version="1.0" encoding="UTF-8" standalone="no"?>
<!DOCTYPE svg PUBLIC "-//W3C//DTD SVG 1.1//EN"
"http://www.w3.org/Graphics/SVG/1.1/DTD/svg11.dtd">
<svg width="372px" height="600px"
xmlns="http://www.w3.org/2000/svg" version="1.1">
<g transform="translate(0000, 0000) scale(1.0000, 1.0000)">
<path fill="#000000" stroke="none" d="
M 238.68 584.79
C 222.50 567.87 202.63 533.40 178.78 480.95
C 147.50 412.10 126.96 350.51 92.08 220.63
C 79.39 173.43 65.78 129.94 60.28 119.05
C 54.97 108.57 39.27 84.44 25.34 65.46
C -0.86 29.78 -4.39 19.94 4.51 7.75
C 8.55 2.19 13.86 1.49 57.77 0.54
C 119.68 -0.83 119.99 -0.67 149.82 43.84
C 187.59 100.29 195.22 119.46 221.17 223.40
C 252.58 349.33 264.66 380.06 330.19 500.92
C 353.18 543.33 372.00 580.13 372.00 582.67
C 372.00 585.21 369.14 590.16 365.64 593.65
C 359.79 599.49 355.05 600.00 306.25 600.00
L 253.18 600.00
L 238.68 584.79
M 344.37 577.40
C 346.88 573.37 339.22 556.76 309.17 501.21
C 248.48 388.98 237.41 360.13 204.00 226.98
C 179.23 128.41 169.15 104.38 127.85 45.24
C 107.69 16.41 106.48 15.87 63.27 15.87
C 17.04 15.87 13.10 18.54 29.44 38.79
C 46.96 60.48 72.56 99.52 79.39 114.89
C 82.83 122.70 94.21 161.08 104.64 200.25
C 146.77 358.22 169.12 421.49 213.57 508.57
C 232.67 546.00 242.53 561.68 253.09 571.40
L 267.14 584.32
L 304.15 583.43
C 334.10 582.70 341.73 581.56 344.37 577.40"/>
<path fill="#6f6f6f" stroke="none" d="
M 253.09 571.40
C 242.53 561.68 232.67 546.00 213.57 508.57
C 169.12 421.49 146.77 358.22 104.64 200.25
C 94.21 161.08 82.83 122.70 79.39 114.89
C 72.52 99.43 46.90 60.41 29.19 38.48
C 18.47 25.21 18.22 24.35 23.88 20.22
C 32.65 13.81 97.90 14.16 107.15 20.63
C 114.59 25.84 134.78 53.68 153.60 84.67
C 173.31 117.14 183.93 147.14 204.00 226.98
C 237.41 360.13 248.48 388.98 309.17 501.21
C 339.22 556.76 346.88 573.37 344.37 577.40
C 341.73 581.56 334.10 582.70 304.15 583.43
L 267.14 584.32
L 253.09 571.40"/>
</g>
</svg>
