<?xml version="1.0" encoding="UTF-8" standalone="no"?>
<!DOCTYPE svg PUBLIC "-//W3C//DTD SVG 1.1//EN"
"http://www.w3.org/Graphics/SVG/1.1/DTD/svg11.dtd">
<svg width="600px" height="313px"
xmlns="http://www.w3.org/2000/svg" version="1.1">
<g transform="translate(0000, 0000) scale(1.0000, 1.0000)">
<path fill="#000000" stroke="none" d="
M 572.49 311.41
C 567.39 309.19 563.22 303.44 554.66 286.91
C 537.73 254.16 511.61 211.11 503.73 202.99
C 499.66 198.78 496.06 196.69 485.00 192.05
C 465.45 183.85 440.06 175.28 399.63 163.23
C 333.41 143.51 201.81 102.24 116.98 74.60
C 60.54 56.21 41.27 50.21 25.32 46.09
C 8.15 41.63 3.30 39.00 1.20 32.94
C -0.27 28.71 -0.18 27.59 2.23 19.11
C 5.59 7.28 8.32 3.21 14.12 1.36
C 18.31 0.01 19.39 0.17 28.63 3.42
C 34.13 5.35 48.19 9.93 59.89 13.60
C 71.59 17.28 110.88 30.07 147.20 42.03
C 241.68 73.15 312.38 95.80 418.66 128.99
C 448.52 138.33 479.93 148.23 488.46 151.01
C 500.90 155.06 504.57 155.86 506.93 155.00
C 510.43 153.73 540.53 135.88 558.08 124.67
C 579.01 111.29 584.57 109.71 591.12 115.23
C 595.24 118.70 599.98 128.06 599.99 132.77
C 600.00 135.03 598.76 137.15 595.80 139.93
C 592.24 143.28 562.80 160.95 541.94 172.26
C 535.18 175.92 533.05 179.08 534.96 182.65
C 535.63 183.92 539.33 188.91 543.17 193.72
C 547.01 198.55 552.47 206.37 555.32 211.10
C 562.62 223.23 595.26 289.58 596.84 295.48
C 598.79 302.77 596.72 306.93 589.46 310.33
C 583.09 313.29 577.61 313.64 572.49 311.41
M 585.47 305.14
C 592.46 301.57 592.41 299.10 585.13 284.53
C 581.70 277.66 573.40 260.90 566.69 247.27
C 552.41 218.28 548.53 211.65 537.85 197.94
C 533.50 192.35 529.26 186.18 528.46 184.22
C 525.44 176.91 529.58 171.33 544.03 163.29
C 568.59 149.62 590.71 136.44 592.42 134.46
C 594.26 132.30 594.24 131.96 592.04 127.65
C 590.76 125.14 588.53 121.90 587.05 120.42
C 584.47 117.84 584.23 117.81 580.25 119.48
C 577.98 120.42 570.54 124.77 563.71 129.14
C 556.89 133.50 542.24 142.45 531.16 149.03
L 511.01 160.99
L 503.73 160.86
C 499.32 160.80 494.04 159.82 490.30 158.40
C 486.92 157.11 446.87 144.37 401.31 130.10
C 282.79 92.99 243.29 80.33 135.45 44.85
C 100.05 33.21 63.02 21.17 53.17 18.11
C 43.32 15.04 31.54 11.18 27.01 9.55
C 16.66 5.80 13.98 6.33 11.18 12.67
C 7.99 19.90 6.29 27.31 7.09 30.49
C 7.98 34.08 14.07 36.84 30.00 40.89
C 43.97 44.44 67.06 51.65 125.37 70.68
C 204.56 96.51 330.30 135.94 404.10 158.06
C 446.81 170.86 461.28 175.65 481.94 183.82
C 504.63 192.78 507.32 194.73 517.00 209.24
C 528.87 227.03 544.35 253.33 556.98 277.13
C 568.98 299.76 570.71 302.44 575.17 305.39
C 578.99 307.92 580.09 307.88 585.47 305.14"/>
<path fill="#757575" stroke="none" d="
M 575.17 305.39
C 570.71 302.44 568.98 299.76 556.98 277.13
C 544.35 253.33 528.87 227.03 517.00 209.24
C 507.32 194.73 504.63 192.78 481.94 183.82
C 461.28 175.65 446.81 170.86 404.10 158.06
C 330.30 135.94 204.56 96.51 125.37 70.68
C 67.06 51.65 43.97 44.44 30.00 40.89
C 14.07 36.84 7.98 34.08 7.09 30.49
C 6.29 27.33 7.98 19.90 11.13 12.78
C 13.91 6.47 16.90 5.88 27.18 9.60
C 31.62 11.22 43.32 15.04 53.17 18.11
C 63.02 21.17 100.05 33.21 135.45 44.85
C 243.29 80.33 282.79 92.99 401.31 130.10
C 446.87 144.37 486.92 157.11 490.30 158.40
C 494.04 159.82 499.32 160.80 503.73 160.86
L 511.01 160.99
L 531.16 149.03
C 542.24 142.45 556.89 133.50 563.71 129.14
C 570.54 124.77 577.98 120.42 580.25 119.48
C 584.23 117.81 584.47 117.84 587.05 120.42
C 588.53 121.90 590.76 125.14 592.04 127.65
C 594.24 131.96 594.26 132.30 592.42 134.46
C 590.71 136.44 568.59 149.62 544.03 163.29
C 529.58 171.33 525.44 176.91 528.46 184.22
C 529.26 186.18 533.50 192.35 537.85 197.94
C 548.53 211.65 552.41 218.28 566.69 247.27
C 573.40 260.90 581.70 277.66 585.13 284.53
C 592.41 299.10 592.46 301.57 585.47 305.14
C 580.09 307.88 578.99 307.92 575.17 305.39"/>
</g>
</svg>
