<?xml version="1.0" encoding="UTF-8" standalone="no"?>
<!DOCTYPE svg PUBLIC "-//W3C//DTD SVG 1.1//EN"
"http://www.w3.org/Graphics/SVG/1.1/DTD/svg11.dtd">
<svg width="598px" height="600px"
xmlns="http://www.w3.org/2000/svg" version="1.1">
<g transform="translate(0000, 0000) scale(1.0000, 1.0000)">
<path fill="#000000" stroke="none" d="
M 408.99 486.83
L 295.82 373.67
L 184.74 484.70
C 123.66 545.77 72.21 595.73 70.44 595.73
C 65.52 595.73 0.00 529.20 0.00 524.18
C 0.00 521.42 38.83 481.13 110.52 409.43
L 221.03 298.93
L 110.52 188.43
C 37.97 115.88 0.00 76.44 0.00 73.62
C 0.00 67.84 65.78 2.14 71.59 2.14
C 74.34 2.14 114.20 40.48 185.81 112.10
L 295.75 222.04
L 406.87 111.03
C 479.10 38.88 519.49 0.00 522.25 0.00
C 528.01 0.00 598.00 70.06 598.00 75.82
C 598.00 78.58 559.02 119.04 486.94 191.10
L 375.89 302.16
L 486.94 413.17
C 560.13 486.32 598.00 525.65 598.00 528.49
C 598.00 534.30 532.24 600.00 526.43 600.00
C 523.66 600.00 482.74 560.56 408.99 486.83
M 554.73 556.80
C 569.13 542.43 580.91 529.69 580.91 528.51
C 580.91 525.72 74.37 19.22 71.59 19.22
C 68.79 19.22 17.09 70.85 17.09 73.62
C 17.09 76.42 523.63 582.92 526.41 582.92
C 527.59 582.92 540.31 571.15 554.73 556.80
M 178.89 471.33
L 286.21 364.01
L 258.42 336.30
L 230.64 308.58
L 123.85 415.32
C 65.14 474.02 17.09 523.00 17.09 524.16
C 17.09 526.27 68.39 578.65 70.46 578.65
C 71.06 578.65 119.86 530.35 178.89 471.33
M 580.91 75.78
C 580.91 72.98 524.96 17.08 522.16 17.08
C 521.01 17.08 471.78 65.36 412.75 124.36
L 305.43 231.63
L 335.84 262.10
L 366.23 292.55
L 473.57 185.25
C 532.60 126.23 580.91 76.98 580.91 75.78"/>
<path fill="#757575" stroke="none" d="
M 270.70 329.36
C 131.22 189.91 17.09 74.82 17.09 73.62
C 17.09 70.85 68.79 19.22 71.59 19.22
C 74.37 19.22 580.91 525.72 580.91 528.51
C 580.91 531.29 529.21 582.92 526.41 582.92
C 525.26 582.92 410.19 468.81 270.70 329.36"/>
<path fill="#757575" stroke="none" d="
M 43.21 552.47
C 28.85 538.06 17.09 525.33 17.09 524.16
C 17.09 523.00 65.14 474.02 123.85 415.32
L 230.64 308.58
L 258.42 336.30
L 286.21 364.01
L 178.89 471.33
C 119.86 530.35 71.06 578.65 70.46 578.65
C 69.84 578.65 57.58 566.86 43.21 552.47"/>
<path fill="#757575" stroke="none" d="
M 335.82 262.08
L 305.41 231.61
L 412.77 124.36
C 471.82 65.36 521.07 17.08 522.20 17.08
C 524.96 17.08 580.91 73.02 580.91 75.78
C 580.91 76.98 532.60 126.23 473.57 185.25
L 366.23 292.55
L 335.82 262.08"/>
</g>
</svg>
